<?xml version="1.0" encoding="utf-8" standalone="no"?>
<!DOCTYPE svg PUBLIC "-//W3C//DTD SVG 1.1//EN"
  "http://www.w3.org/Graphics/SVG/1.1/DTD/svg11.dtd">
<svg xmlns:xlink="http://www.w3.org/1999/xlink" width="144pt" height="324pt" viewBox="0 0 144 324" xmlns="http://www.w3.org/2000/svg" version="1.1">
 <metadata>
  <rdf:RDF xmlns:dc="http://purl.org/dc/elements/1.1/" xmlns:cc="http://creativecommons.org/ns#" xmlns:rdf="http://www.w3.org/1999/02/22-rdf-syntax-ns#">
   <cc:Work>
    <dc:type rdf:resource="http://purl.org/dc/dcmitype/StillImage"/>
    <dc:date>2026-02-13T08:05:30.398009</dc:date>
    <dc:format>image/svg+xml</dc:format>
    <dc:creator>
     <cc:Agent>
      <dc:title>Matplotlib v3.10.0, https://matplotlib.org/</dc:title>
     </cc:Agent>
    </dc:creator>
   </cc:Work>
  </rdf:RDF>
 </metadata>
 <defs>
  <style type="text/css">*{stroke-linejoin: round; stroke-linecap: butt}</style>
 </defs>
 <g id="figure_1">
  <g id="patch_1">
   <path d="M 0 324 
L 144 324 
L 144 0 
L 0 0 
z
" style="fill: #ffffff"/>
  </g>
  <g id="axes_1">
   <g id="patch_2">
    <path d="M 21.6 291.6 
L 136.8 291.6 
L 136.8 16.2 
L 21.6 16.2 
z
" style="fill: #ffffff"/>
   </g>
   <g id="FillBetweenPolyCollection_1">
    <path d="M 53.707897 238.294485 
L 47.092103 238.294485 
L 46.783574 237.467076 
L 46.461764 236.639667 
L 46.12783 235.812258 
L 45.783107 234.984849 
L 45.429091 234.15744 
L 45.067411 233.33003 
L 44.699798 232.502621 
L 44.328048 231.675212 
L 43.953975 230.847803 
L 43.57937 230.020394 
L 43.205949 229.192984 
L 42.835316 228.365575 
L 42.468915 227.538166 
L 42.107998 226.710757 
L 41.753601 225.883348 
L 41.406521 225.055939 
L 41.067314 224.228529 
L 40.736298 223.40112 
L 40.413568 222.573711 
L 40.099017 221.746302 
L 39.792374 220.918893 
L 39.493236 220.091484 
L 39.201112 219.264074 
L 38.915461 218.436665 
L 38.635733 217.609256 
L 38.3614 216.781847 
L 38.091983 215.954438 
L 37.82707 215.127029 
L 37.56633 214.299619 
L 37.309507 213.47221 
L 37.05642 212.644801 
L 36.806953 211.817392 
L 36.561036 210.989983 
L 36.318641 210.162573 
L 36.079764 209.335164 
L 35.844433 208.507755 
L 35.612705 207.680346 
L 35.384694 206.852937 
L 35.160593 206.025528 
L 34.94072 205.198118 
L 34.725566 204.370709 
L 34.51585 203.5433 
L 34.312579 202.715891 
L 34.117098 201.888482 
L 33.931137 201.061073 
L 33.756835 200.233663 
L 33.596749 199.406254 
L 33.453839 198.578845 
L 33.331413 197.751436 
L 33.233056 196.924027 
L 33.162524 196.096618 
L 33.123612 195.269208 
L 33.12 194.441799 
L 33.155093 193.61439 
L 33.231847 192.786981 
L 33.352608 191.959572 
L 33.518959 191.132163 
L 33.731597 190.304753 
L 33.990238 189.477344 
L 34.293562 188.649935 
L 34.639207 187.822526 
L 35.0238 186.995117 
L 35.443039 186.167707 
L 35.891821 185.340298 
L 36.364396 184.512889 
L 36.854558 183.68548 
L 37.355858 182.858071 
L 37.861814 182.030662 
L 38.366137 181.203252 
L 38.862932 180.375843 
L 39.346886 179.548434 
L 39.813423 178.721025 
L 40.258827 177.893616 
L 40.680325 177.066207 
L 41.076125 176.238797 
L 41.445415 175.411388 
L 41.788324 174.583979 
L 42.105844 173.75657 
L 42.399722 172.929161 
L 42.672334 172.101752 
L 42.92653 171.274342 
L 43.165487 170.446933 
L 43.392545 169.619524 
L 43.611061 168.792115 
L 43.824265 167.964706 
L 44.035142 167.137296 
L 44.246327 166.309887 
L 44.460028 165.482478 
L 44.677976 164.655069 
L 44.901391 163.82766 
L 45.130978 163.000251 
L 45.366946 162.172841 
L 45.609038 161.345432 
L 45.856582 160.518023 
L 46.108548 159.690614 
L 46.363619 158.863205 
L 46.620261 158.035796 
L 46.876793 157.208386 
L 47.131458 156.380977 
L 53.668542 156.380977 
L 53.668542 156.380977 
L 53.923207 157.208386 
L 54.179739 158.035796 
L 54.436381 158.863205 
L 54.691452 159.690614 
L 54.943418 160.518023 
L 55.190962 161.345432 
L 55.433054 162.172841 
L 55.669022 163.000251 
L 55.898609 163.82766 
L 56.122024 164.655069 
L 56.339972 165.482478 
L 56.553673 166.309887 
L 56.764858 167.137296 
L 56.975735 167.964706 
L 57.188939 168.792115 
L 57.407455 169.619524 
L 57.634513 170.446933 
L 57.87347 171.274342 
L 58.127666 172.101752 
L 58.400278 172.929161 
L 58.694156 173.75657 
L 59.011676 174.583979 
L 59.354585 175.411388 
L 59.723875 176.238797 
L 60.119675 177.066207 
L 60.541173 177.893616 
L 60.986577 178.721025 
L 61.453114 179.548434 
L 61.937068 180.375843 
L 62.433863 181.203252 
L 62.938186 182.030662 
L 63.444142 182.858071 
L 63.945442 183.68548 
L 64.435604 184.512889 
L 64.908179 185.340298 
L 65.356961 186.167707 
L 65.7762 186.995117 
L 66.160793 187.822526 
L 66.506438 188.649935 
L 66.809762 189.477344 
L 67.068403 190.304753 
L 67.281041 191.132163 
L 67.447392 191.959572 
L 67.568153 192.786981 
L 67.644907 193.61439 
L 67.68 194.441799 
L 67.676388 195.269208 
L 67.637476 196.096618 
L 67.566944 196.924027 
L 67.468587 197.751436 
L 67.346161 198.578845 
L 67.203251 199.406254 
L 67.043165 200.233663 
L 66.868863 201.061073 
L 66.682902 201.888482 
L 66.487421 202.715891 
L 66.28415 203.5433 
L 66.074434 204.370709 
L 65.85928 205.198118 
L 65.639407 206.025528 
L 65.415306 206.852937 
L 65.187295 207.680346 
L 64.955567 208.507755 
L 64.720236 209.335164 
L 64.481359 210.162573 
L 64.238964 210.989983 
L 63.993047 211.817392 
L 63.74358 212.644801 
L 63.490493 213.47221 
L 63.23367 214.299619 
L 62.97293 215.127029 
L 62.708017 215.954438 
L 62.4386 216.781847 
L 62.164267 217.609256 
L 61.884539 218.436665 
L 61.598888 219.264074 
L 61.306764 220.091484 
L 61.007626 220.918893 
L 60.700983 221.746302 
L 60.386432 222.573711 
L 60.063702 223.40112 
L 59.732686 224.228529 
L 59.393479 225.055939 
L 59.046399 225.883348 
L 58.692002 226.710757 
L 58.331085 227.538166 
L 57.964684 228.365575 
L 57.594051 229.192984 
L 57.22063 230.020394 
L 56.846025 230.847803 
L 56.471952 231.675212 
L 56.100202 232.502621 
L 55.732589 233.33003 
L 55.370909 234.15744 
L 55.016893 234.984849 
L 54.67217 235.812258 
L 54.338236 236.639667 
L 54.016426 237.467076 
L 53.707897 238.294485 
L 53.707897 238.294485 
z
" clip-path="url(#p187c5f10bf)" style="fill: none; stroke: #000000; stroke-opacity: 0.3"/>
   </g>
   <g id="FillBetweenPolyCollection_2">
    <path d="M 50.707834 283.873861 
L 50.092166 283.873861 
L 50.09743 282.42331 
L 50.113784 280.972759 
L 50.138464 279.522208 
L 50.167492 278.071657 
L 50.196245 276.621106 
L 50.220071 275.170555 
L 50.234844 273.720004 
L 50.237382 272.269453 
L 50.225713 270.818902 
L 50.199204 269.368351 
L 50.158568 267.9178 
L 50.105775 266.467249 
L 50.043845 265.016698 
L 49.976542 263.566147 
L 49.907957 262.115596 
L 49.842035 260.665045 
L 49.782105 259.214494 
L 49.730478 257.763943 
L 49.688182 256.313392 
L 49.654851 254.862841 
L 49.628769 253.41229 
L 49.607038 251.961739 
L 49.585832 250.511188 
L 49.560712 249.060637 
L 49.526963 247.610086 
L 49.479952 246.159535 
L 49.415449 244.708984 
L 49.329889 243.258433 
L 49.220516 241.807882 
L 49.085368 240.357331 
L 48.923086 238.90678 
L 48.732559 237.456229 
L 48.512409 236.005678 
L 48.26038 234.555127 
L 47.972667 233.104576 
L 47.643269 231.654025 
L 47.263533 230.203474 
L 46.822085 228.752923 
L 46.305392 227.302372 
L 45.699164 225.851821 
L 44.990608 224.40127 
L 44.171344 222.950719 
L 43.240473 221.500168 
L 42.207152 220.049617 
L 41.09194 218.599066 
L 39.926426 217.148515 
L 38.750928 215.697964 
L 37.610526 214.247413 
L 36.550041 212.796862 
L 35.608773 211.346311 
L 34.815889 209.89576 
L 34.187161 208.445209 
L 33.723597 206.994658 
L 33.412159 205.544107 
L 33.228572 204.093556 
L 33.141857 202.643005 
L 33.12 201.192454 
L 33.135819 199.741903 
L 33.171922 198.291352 
L 33.223662 196.840801 
L 33.299269 195.39025 
L 33.416961 193.939699 
L 33.599579 192.489148 
L 33.868049 191.038597 
L 34.235401 189.588046 
L 34.703004 188.137495 
L 35.260138 186.686944 
L 35.886988 185.236393 
L 36.560142 183.785842 
L 37.258849 182.335291 
L 37.970086 180.88474 
L 38.690858 179.434189 
L 39.427115 177.983638 
L 40.189741 176.533087 
L 40.98899 175.082536 
L 41.829183 173.631985 
L 42.705248 172.181434 
L 43.602057 170.730883 
L 44.496533 169.280333 
L 45.361756 167.829782 
L 46.171758 166.379231 
L 46.90572 164.92868 
L 47.550587 163.478129 
L 48.101751 162.027578 
L 48.561971 160.577027 
L 48.939157 159.126476 
L 49.243793 157.675925 
L 49.486668 156.225374 
L 49.677383 154.774823 
L 49.823748 153.324272 
L 49.931956 151.873721 
L 50.007212 150.42317 
L 50.054512 148.972619 
L 50.079239 147.522068 
L 50.087411 146.071517 
L 50.085522 144.620966 
L 50.08004 143.170415 
L 50.076724 141.719864 
L 50.079945 140.269313 
L 50.720055 140.269313 
L 50.720055 140.269313 
L 50.723276 141.719864 
L 50.71996 143.170415 
L 50.714478 144.620966 
L 50.712589 146.071517 
L 50.720761 147.522068 
L 50.745488 148.972619 
L 50.792788 150.42317 
L 50.868044 151.873721 
L 50.976252 153.324272 
L 51.122617 154.774823 
L 51.313332 156.225374 
L 51.556207 157.675925 
L 51.860843 159.126476 
L 52.238029 160.577027 
L 52.698249 162.027578 
L 53.249413 163.478129 
L 53.89428 164.92868 
L 54.628242 166.379231 
L 55.438244 167.829782 
L 56.303467 169.280333 
L 57.197943 170.730883 
L 58.094752 172.181434 
L 58.970817 173.631985 
L 59.81101 175.082536 
L 60.610259 176.533087 
L 61.372885 177.983638 
L 62.109142 179.434189 
L 62.829914 180.88474 
L 63.541151 182.335291 
L 64.239858 183.785842 
L 64.913012 185.236393 
L 65.539862 186.686944 
L 66.096996 188.137495 
L 66.564599 189.588046 
L 66.931951 191.038597 
L 67.200421 192.489148 
L 67.383039 193.939699 
L 67.500731 195.39025 
L 67.576338 196.840801 
L 67.628078 198.291352 
L 67.664181 199.741903 
L 67.68 201.192454 
L 67.658143 202.643005 
L 67.571428 204.093556 
L 67.387841 205.544107 
L 67.076403 206.994658 
L 66.612839 208.445209 
L 65.984111 209.89576 
L 65.191227 211.346311 
L 64.249959 212.796862 
L 63.189474 214.247413 
L 62.049072 215.697964 
L 60.873574 217.148515 
L 59.70806 218.599066 
L 58.592848 220.049617 
L 57.559527 221.500168 
L 56.628656 222.950719 
L 55.809392 224.40127 
L 55.100836 225.851821 
L 54.494608 227.302372 
L 53.977915 228.752923 
L 53.536467 230.203474 
L 53.156731 231.654025 
L 52.827333 233.104576 
L 52.53962 234.555127 
L 52.287591 236.005678 
L 52.067441 237.456229 
L 51.876914 238.90678 
L 51.714632 240.357331 
L 51.579484 241.807882 
L 51.470111 243.258433 
L 51.384551 244.708984 
L 51.320048 246.159535 
L 51.273037 247.610086 
L 51.239288 249.060637 
L 51.214168 250.511188 
L 51.192962 251.961739 
L 51.171231 253.41229 
L 51.145149 254.862841 
L 51.111818 256.313392 
L 51.069522 257.763943 
L 51.017895 259.214494 
L 50.957965 260.665045 
L 50.892043 262.115596 
L 50.823458 263.566147 
L 50.756155 265.016698 
L 50.694225 266.467249 
L 50.641432 267.9178 
L 50.600796 269.368351 
L 50.574287 270.818902 
L 50.562618 272.269453 
L 50.565156 273.720004 
L 50.579929 275.170555 
L 50.603755 276.621106 
L 50.632508 278.071657 
L 50.661536 279.522208 
L 50.686216 280.972759 
L 50.70257 282.42331 
L 50.707834 283.873861 
L 50.707834 283.873861 
z
" clip-path="url(#p187c5f10bf)" style="fill: none; stroke: #000000; stroke-opacity: 0.3"/>
   </g>
   <g id="FillBetweenPolyCollection_3">
    <path d="M 51.195678 247.876822 
L 49.604322 247.876822 
L 49.532313 246.986857 
L 49.46122 246.096892 
L 49.391335 245.206927 
L 49.322598 244.316962 
L 49.254497 243.426997 
L 49.18597 242.537032 
L 49.115319 241.647067 
L 49.040153 240.757102 
L 48.957389 239.867137 
L 48.863308 238.977172 
L 48.753695 238.087207 
L 48.624056 237.197242 
L 48.469908 236.307277 
L 48.287119 235.417312 
L 48.072275 234.527347 
L 47.823033 233.637382 
L 47.538422 232.747417 
L 47.219056 231.857452 
L 46.867225 230.967487 
L 46.486852 230.077522 
L 46.083295 229.187557 
L 45.663019 228.297592 
L 45.23315 227.407627 
L 44.80095 226.517662 
L 44.373271 225.627697 
L 43.95602 224.737732 
L 43.553715 223.847767 
L 43.16915 222.957802 
L 42.803237 222.067837 
L 42.455012 221.177872 
L 42.121828 220.287907 
L 41.799698 219.397942 
L 41.483754 218.507977 
L 41.168771 217.618012 
L 40.849687 216.728047 
L 40.522067 215.838082 
L 40.182469 214.948117 
L 39.828674 214.058151 
L 39.459774 213.168186 
L 39.07614 212.278221 
L 38.679272 211.388256 
L 38.271604 210.498291 
L 37.85627 209.608326 
L 37.436887 208.718361 
L 37.017366 207.828396 
L 36.601769 206.938431 
L 36.194197 206.048466 
L 35.798715 205.158501 
L 35.419274 204.268536 
L 35.059641 203.378571 
L 34.723316 202.488606 
L 34.413442 201.598641 
L 34.132731 200.708676 
L 33.88341 199.818711 
L 33.667213 198.928746 
L 33.48543 198.038781 
L 33.339016 197.148816 
L 33.228751 196.258851 
L 33.155421 195.368886 
L 33.12 194.478921 
L 33.12378 193.588956 
L 33.168436 192.698991 
L 33.255983 191.809026 
L 33.388634 190.919061 
L 33.568561 190.029096 
L 33.797588 189.139131 
L 34.076868 188.249166 
L 34.406581 187.359201 
L 34.78572 186.469236 
L 35.211995 185.579271 
L 35.681879 184.689306 
L 36.190808 183.799341 
L 36.733488 182.909376 
L 37.30429 182.019411 
L 37.897648 181.129446 
L 38.508411 180.239481 
L 39.13208 179.349516 
L 39.764904 178.459551 
L 40.4038 177.569586 
L 41.046145 176.679621 
L 41.689456 175.789656 
L 42.331039 174.899691 
L 42.967682 174.009726 
L 43.59545 173.119761 
L 44.209629 172.229796 
L 44.804859 171.339831 
L 45.375411 170.449866 
L 45.915604 169.559901 
L 46.420274 168.669936 
L 46.885225 167.77997 
L 47.30761 166.890005 
L 47.686164 166.00004 
L 48.021273 165.110075 
L 48.314872 164.22011 
L 48.57019 163.330145 
L 48.791385 162.44018 
L 48.983129 161.550215 
L 49.150185 160.66025 
L 49.297045 159.770285 
L 51.502955 159.770285 
L 51.502955 159.770285 
L 51.649815 160.66025 
L 51.816871 161.550215 
L 52.008615 162.44018 
L 52.22981 163.330145 
L 52.485128 164.22011 
L 52.778727 165.110075 
L 53.113836 166.00004 
L 53.49239 166.890005 
L 53.914775 167.77997 
L 54.379726 168.669936 
L 54.884396 169.559901 
L 55.424589 170.449866 
L 55.995141 171.339831 
L 56.590371 172.229796 
L 57.20455 173.119761 
L 57.832318 174.009726 
L 58.468961 174.899691 
L 59.110544 175.789656 
L 59.753855 176.679621 
L 60.3962 177.569586 
L 61.035096 178.459551 
L 61.66792 179.349516 
L 62.291589 180.239481 
L 62.902352 181.129446 
L 63.49571 182.019411 
L 64.066512 182.909376 
L 64.609192 183.799341 
L 65.118121 184.689306 
L 65.588005 185.579271 
L 66.01428 186.469236 
L 66.393419 187.359201 
L 66.723132 188.249166 
L 67.002412 189.139131 
L 67.231439 190.029096 
L 67.411366 190.919061 
L 67.544017 191.809026 
L 67.631564 192.698991 
L 67.67622 193.588956 
L 67.68 194.478921 
L 67.644579 195.368886 
L 67.571249 196.258851 
L 67.460984 197.148816 
L 67.31457 198.038781 
L 67.132787 198.928746 
L 66.91659 199.818711 
L 66.667269 200.708676 
L 66.386558 201.598641 
L 66.076684 202.488606 
L 65.740359 203.378571 
L 65.380726 204.268536 
L 65.001285 205.158501 
L 64.605803 206.048466 
L 64.198231 206.938431 
L 63.782634 207.828396 
L 63.363113 208.718361 
L 62.94373 209.608326 
L 62.528396 210.498291 
L 62.120728 211.388256 
L 61.72386 212.278221 
L 61.340226 213.168186 
L 60.971326 214.058151 
L 60.617531 214.948117 
L 60.277933 215.838082 
L 59.950313 216.728047 
L 59.631229 217.618012 
L 59.316246 218.507977 
L 59.000302 219.397942 
L 58.678172 220.287907 
L 58.344988 221.177872 
L 57.996763 222.067837 
L 57.63085 222.957802 
L 57.246285 223.847767 
L 56.84398 224.737732 
L 56.426729 225.627697 
L 55.99905 226.517662 
L 55.56685 227.407627 
L 55.136981 228.297592 
L 54.716705 229.187557 
L 54.313148 230.077522 
L 53.932775 230.967487 
L 53.580944 231.857452 
L 53.261578 232.747417 
L 52.976967 233.637382 
L 52.727725 234.527347 
L 52.512881 235.417312 
L 52.330092 236.307277 
L 52.175944 237.197242 
L 52.046305 238.087207 
L 51.936692 238.977172 
L 51.842611 239.867137 
L 51.759847 240.757102 
L 51.684681 241.647067 
L 51.61403 242.537032 
L 51.545503 243.426997 
L 51.477402 244.316962 
L 51.408665 245.206927 
L 51.33878 246.096892 
L 51.267687 246.986857 
L 51.195678 247.876822 
L 51.195678 247.876822 
z
" clip-path="url(#p187c5f10bf)" style="fill: none; stroke: #000000; stroke-opacity: 0.3"/>
   </g>
   <g id="FillBetweenPolyCollection_4">
    <path d="M 50.838873 302.098623 
L 49.961127 302.098623 
L 49.967751 300.49983 
L 49.98703 298.901037 
L 50.017269 297.302243 
L 50.055921 295.70345 
L 50.099937 294.104656 
L 50.146161 292.505863 
L 50.191695 290.90707 
L 50.234179 289.308276 
L 50.271943 287.709483 
L 50.304048 286.110689 
L 50.330215 284.511896 
L 50.350679 282.913103 
L 50.366016 281.314309 
L 50.376962 279.715516 
L 50.38426 278.116722 
L 50.388534 276.517929 
L 50.390204 274.919136 
L 50.389433 273.320342 
L 50.386089 271.721549 
L 50.379743 270.122755 
L 50.369673 268.523962 
L 50.354899 266.925169 
L 50.334233 265.326375 
L 50.306362 263.727582 
L 50.269938 262.128788 
L 50.223684 260.529995 
L 50.16648 258.931202 
L 50.097404 257.332408 
L 50.015723 255.733615 
L 49.920793 254.134821 
L 49.811897 252.536028 
L 49.688026 250.937234 
L 49.547643 249.338441 
L 49.388491 247.739648 
L 49.207479 246.140854 
L 49.000698 244.542061 
L 48.763568 242.943267 
L 48.491118 241.344474 
L 48.178352 239.745681 
L 47.820643 238.146887 
L 47.414083 236.548094 
L 46.95573 234.9493 
L 46.443692 233.350507 
L 45.877052 231.751714 
L 45.25565 230.15292 
L 44.579814 228.554127 
L 43.850161 226.955333 
L 43.067602 225.35654 
L 42.233684 223.757747 
L 41.351317 222.158953 
L 40.425875 220.56016 
L 39.466483 218.961366 
L 38.487253 217.362573 
L 37.508101 215.76378 
L 36.554806 214.164986 
L 35.65806 212.566193 
L 34.851418 210.967399 
L 34.168324 209.368606 
L 33.638584 207.769813 
L 33.28489 206.171019 
L 33.12 204.572226 
L 33.145126 202.973432 
L 33.349833 201.374639 
L 33.713447 199.775846 
L 34.207668 198.177052 
L 34.799846 196.578259 
L 35.456352 194.979465 
L 36.145501 193.380672 
L 36.839752 191.781879 
L 37.517071 190.183085 
L 38.161596 188.584292 
L 38.763773 186.985498 
L 39.320146 185.386705 
L 39.832889 183.787911 
L 40.309036 182.189118 
L 40.759363 180.590325 
L 41.196872 178.991531 
L 41.634954 177.392738 
L 42.085426 175.793944 
L 42.556762 174.195151 
L 43.052843 172.596358 
L 43.572477 170.997564 
L 44.109783 169.398771 
L 44.655338 167.799977 
L 45.197799 166.201184 
L 45.725649 164.602391 
L 46.228707 163.003597 
L 46.69914 161.404804 
L 47.131891 159.80601 
L 47.524577 158.207217 
L 47.877024 156.608424 
L 48.190653 155.00963 
L 48.467902 153.410837 
L 48.711796 151.812043 
L 48.925672 150.21325 
L 49.113036 148.614457 
L 49.277457 147.015663 
L 49.422449 145.41687 
L 49.551303 143.818076 
L 51.248697 143.818076 
L 51.248697 143.818076 
L 51.377551 145.41687 
L 51.522543 147.015663 
L 51.686964 148.614457 
L 51.874328 150.21325 
L 52.088204 151.812043 
L 52.332098 153.410837 
L 52.609347 155.00963 
L 52.922976 156.608424 
L 53.275423 158.207217 
L 53.668109 159.80601 
L 54.10086 161.404804 
L 54.571293 163.003597 
L 55.074351 164.602391 
L 55.602201 166.201184 
L 56.144662 167.799977 
L 56.690217 169.398771 
L 57.227523 170.997564 
L 57.747157 172.596358 
L 58.243238 174.195151 
L 58.714574 175.793944 
L 59.165046 177.392738 
L 59.603128 178.991531 
L 60.040637 180.590325 
L 60.490964 182.189118 
L 60.967111 183.787911 
L 61.479854 185.386705 
L 62.036227 186.985498 
L 62.638404 188.584292 
L 63.282929 190.183085 
L 63.960248 191.781879 
L 64.654499 193.380672 
L 65.343648 194.979465 
L 66.000154 196.578259 
L 66.592332 198.177052 
L 67.086553 199.775846 
L 67.450167 201.374639 
L 67.654874 202.973432 
L 67.68 204.572226 
L 67.51511 206.171019 
L 67.161416 207.769813 
L 66.631676 209.368606 
L 65.948582 210.967399 
L 65.14194 212.566193 
L 64.245194 214.164986 
L 63.291899 215.76378 
L 62.312747 217.362573 
L 61.333517 218.961366 
L 60.374125 220.56016 
L 59.448683 222.158953 
L 58.566316 223.757747 
L 57.732398 225.35654 
L 56.949839 226.955333 
L 56.220186 228.554127 
L 55.54435 230.15292 
L 54.922948 231.751714 
L 54.356308 233.350507 
L 53.84427 234.9493 
L 53.385917 236.548094 
L 52.979357 238.146887 
L 52.621648 239.745681 
L 52.308882 241.344474 
L 52.036432 242.943267 
L 51.799302 244.542061 
L 51.592521 246.140854 
L 51.411509 247.739648 
L 51.252357 249.338441 
L 51.111974 250.937234 
L 50.988103 252.536028 
L 50.879207 254.134821 
L 50.784277 255.733615 
L 50.702596 257.332408 
L 50.63352 258.931202 
L 50.576316 260.529995 
L 50.530062 262.128788 
L 50.493638 263.727582 
L 50.465767 265.326375 
L 50.445101 266.925169 
L 50.430327 268.523962 
L 50.420257 270.122755 
L 50.413911 271.721549 
L 50.410567 273.320342 
L 50.409796 274.919136 
L 50.411466 276.517929 
L 50.41574 278.116722 
L 50.423038 279.715516 
L 50.433984 281.314309 
L 50.449321 282.913103 
L 50.469785 284.511896 
L 50.495952 286.110689 
L 50.528057 287.709483 
L 50.565821 289.308276 
L 50.608305 290.90707 
L 50.653839 292.505863 
L 50.700063 294.104656 
L 50.744079 295.70345 
L 50.782731 297.302243 
L 50.81297 298.901037 
L 50.832249 300.49983 
L 50.838873 302.098623 
L 50.838873 302.098623 
z
" clip-path="url(#p187c5f10bf)" style="fill: none; stroke: #000000; stroke-opacity: 0.3"/>
   </g>
   <g id="FillBetweenPolyCollection_5">
    <path d="M 50.797038 258.607314 
L 50.002962 258.607314 
L 49.991331 257.445519 
L 49.980842 256.283723 
L 49.967824 255.121928 
L 49.947541 253.960132 
L 49.914427 252.798337 
L 49.862437 251.636541 
L 49.785487 250.474746 
L 49.677965 249.31295 
L 49.535265 248.151155 
L 49.354297 246.98936 
L 49.133913 245.827564 
L 48.875189 244.665769 
L 48.581505 243.503973 
L 48.258381 242.342178 
L 47.913054 241.180382 
L 47.553829 240.018587 
L 47.189262 238.856791 
L 46.827282 237.694996 
L 46.474384 236.5332 
L 46.135015 235.371405 
L 45.811265 234.20961 
L 45.502918 233.047814 
L 45.207862 231.886019 
L 44.922775 230.724223 
L 44.643944 229.562428 
L 44.368065 228.400632 
L 44.092822 227.238837 
L 43.817116 226.077041 
L 43.54086 224.915246 
L 43.264369 223.75345 
L 42.987437 222.591655 
L 42.708312 221.429859 
L 42.422804 220.268064 
L 42.123768 219.106269 
L 41.80117 217.944473 
L 41.44282 216.782678 
L 41.035772 215.620882 
L 40.568208 214.459087 
L 40.031559 213.297291 
L 39.422527 212.135496 
L 38.744665 210.9737 
L 38.009235 209.811905 
L 37.235172 208.650109 
L 36.448103 207.488314 
L 35.678542 206.326519 
L 34.959477 205.164723 
L 34.323651 204.002928 
L 33.800876 202.841132 
L 33.415688 201.679337 
L 33.185584 200.517541 
L 33.12 199.355746 
L 33.220076 198.19395 
L 33.479169 197.032155 
L 33.883978 195.870359 
L 34.416107 194.708564 
L 35.053847 193.546769 
L 35.773967 192.384973 
L 36.553337 191.223178 
L 37.370233 190.061382 
L 38.205242 188.899587 
L 39.041767 187.737791 
L 39.866144 186.575996 
L 40.667468 185.4142 
L 41.437237 184.252405 
L 42.168908 183.090609 
L 42.857497 181.928814 
L 43.499266 180.767019 
L 44.091557 179.605223 
L 44.632772 178.443428 
L 45.122458 177.281632 
L 45.561452 176.119837 
L 45.952002 174.958041 
L 46.297821 173.796246 
L 46.603987 172.63445 
L 46.8767 171.472655 
L 47.122871 170.310859 
L 47.349593 169.149064 
L 47.563564 167.987269 
L 47.770515 166.825473 
L 47.974747 165.663678 
L 48.178816 164.501882 
L 48.383424 163.340087 
L 48.587517 162.178291 
L 48.788572 161.016496 
L 48.983031 159.8547 
L 49.166819 158.692905 
L 49.335882 157.531109 
L 49.486683 156.369314 
L 49.616605 155.207519 
L 49.724229 154.045723 
L 49.809465 152.883928 
L 49.873539 151.722132 
L 49.918849 150.560337 
L 49.948706 149.398541 
L 49.967008 148.236746 
L 49.977867 147.07495 
L 49.985241 145.913155 
L 49.992605 144.751359 
L 50.002696 143.589564 
L 50.797304 143.589564 
L 50.797304 143.589564 
L 50.807395 144.751359 
L 50.814759 145.913155 
L 50.822133 147.07495 
L 50.832992 148.236746 
L 50.851294 149.398541 
L 50.881151 150.560337 
L 50.926461 151.722132 
L 50.990535 152.883928 
L 51.075771 154.045723 
L 51.183395 155.207519 
L 51.313317 156.369314 
L 51.464118 157.531109 
L 51.633181 158.692905 
L 51.816969 159.8547 
L 52.011428 161.016496 
L 52.212483 162.178291 
L 52.416576 163.340087 
L 52.621184 164.501882 
L 52.825253 165.663678 
L 53.029485 166.825473 
L 53.236436 167.987269 
L 53.450407 169.149064 
L 53.677129 170.310859 
L 53.9233 171.472655 
L 54.196013 172.63445 
L 54.502179 173.796246 
L 54.847998 174.958041 
L 55.238548 176.119837 
L 55.677542 177.281632 
L 56.167228 178.443428 
L 56.708443 179.605223 
L 57.300734 180.767019 
L 57.942503 181.928814 
L 58.631092 183.090609 
L 59.362763 184.252405 
L 60.132532 185.4142 
L 60.933856 186.575996 
L 61.758233 187.737791 
L 62.594758 188.899587 
L 63.429767 190.061382 
L 64.246663 191.223178 
L 65.026033 192.384973 
L 65.746153 193.546769 
L 66.383893 194.708564 
L 66.916022 195.870359 
L 67.320831 197.032155 
L 67.579924 198.19395 
L 67.68 199.355746 
L 67.614416 200.517541 
L 67.384312 201.679337 
L 66.999124 202.841132 
L 66.476349 204.002928 
L 65.840523 205.164723 
L 65.121458 206.326519 
L 64.351897 207.488314 
L 63.564828 208.650109 
L 62.790765 209.811905 
L 62.055335 210.9737 
L 61.377473 212.135496 
L 60.768441 213.297291 
L 60.231792 214.459087 
L 59.764228 215.620882 
L 59.35718 216.782678 
L 58.99883 217.944473 
L 58.676232 219.106269 
L 58.377196 220.268064 
L 58.091688 221.429859 
L 57.812563 222.591655 
L 57.535631 223.75345 
L 57.25914 224.915246 
L 56.982884 226.077041 
L 56.707178 227.238837 
L 56.431935 228.400632 
L 56.156056 229.562428 
L 55.877225 230.724223 
L 55.592138 231.886019 
L 55.297082 233.047814 
L 54.988735 234.20961 
L 54.664985 235.371405 
L 54.325616 236.5332 
L 53.972718 237.694996 
L 53.610738 238.856791 
L 53.246171 240.018587 
L 52.886946 241.180382 
L 52.541619 242.342178 
L 52.218495 243.503973 
L 51.924811 244.665769 
L 51.666087 245.827564 
L 51.445703 246.98936 
L 51.264735 248.151155 
L 51.122035 249.31295 
L 51.014513 250.474746 
L 50.937563 251.636541 
L 50.885573 252.798337 
L 50.852459 253.960132 
L 50.832176 255.121928 
L 50.819158 256.283723 
L 50.808669 257.445519 
L 50.797038 258.607314 
L 50.797038 258.607314 
z
" clip-path="url(#p187c5f10bf)" style="fill: none; stroke: #000000; stroke-opacity: 0.3"/>
   </g>
   <g id="FillBetweenPolyCollection_6">
    <path d="M 51.251835 246.320433 
L 49.548165 246.320433 
L 49.45892 245.395603 
L 49.36088 244.470773 
L 49.25281 243.545943 
L 49.133609 242.621113 
L 49.002428 241.696283 
L 48.85877 240.771453 
L 48.702569 239.846623 
L 48.534215 238.921793 
L 48.354541 237.996964 
L 48.16475 237.072134 
L 47.966291 236.147304 
L 47.760699 235.222474 
L 47.549408 234.297644 
L 47.333553 233.372814 
L 47.1138 232.447984 
L 46.890208 231.523154 
L 46.662158 230.598324 
L 46.428352 229.673494 
L 46.186908 228.748664 
L 45.93553 227.823835 
L 45.671765 226.899005 
L 45.393306 225.974175 
L 45.098339 225.049345 
L 44.785875 224.124515 
L 44.456048 223.199685 
L 44.110333 222.274855 
L 43.75165 221.350025 
L 43.384335 220.425195 
L 43.013957 219.500365 
L 42.64699 218.575535 
L 42.290357 217.650706 
L 41.950869 216.725876 
L 41.634626 215.801046 
L 41.346412 214.876216 
L 41.089163 213.951386 
L 40.863548 213.026556 
L 40.667721 212.101726 
L 40.497265 211.176896 
L 40.345358 210.252066 
L 40.203139 209.327236 
L 40.06026 208.402406 
L 39.905583 207.477577 
L 39.727967 206.552747 
L 39.51709 205.627917 
L 39.264242 204.703087 
L 38.96303 203.778257 
L 38.609957 202.853427 
L 38.204823 201.928597 
L 37.750933 201.003767 
L 37.255095 200.078937 
L 36.72742 199.154107 
L 36.180919 198.229277 
L 35.63095 197.304448 
L 35.09452 196.379618 
L 34.589513 195.454788 
L 34.133853 194.529958 
L 33.744686 193.605128 
L 33.43759 192.680298 
L 33.225876 191.755468 
L 33.12 190.830638 
L 33.127125 189.905808 
L 33.250837 188.980978 
L 33.491035 188.056149 
L 33.843992 187.131319 
L 34.302577 186.206489 
L 34.856617 185.281659 
L 35.493397 184.356829 
L 36.19824 183.431999 
L 36.955157 182.507169 
L 37.747534 181.582339 
L 38.558797 180.657509 
L 39.373056 179.732679 
L 40.175663 178.807849 
L 40.953685 177.88302 
L 41.69626 176.95819 
L 42.394818 176.03336 
L 43.043184 175.10853 
L 43.637548 174.1837 
L 44.176327 173.25887 
L 44.659938 172.33404 
L 45.090502 171.40921 
L 45.471506 170.48438 
L 45.807454 169.55955 
L 46.10352 168.63472 
L 46.365229 167.709891 
L 46.598179 166.785061 
L 46.807805 165.860231 
L 46.999192 164.935401 
L 47.17694 164.010571 
L 47.345066 163.085741 
L 47.506948 162.160911 
L 47.665292 161.236081 
L 47.822141 160.311251 
L 47.978881 159.386421 
L 48.136292 158.461591 
L 48.294589 157.536762 
L 48.453494 156.611932 
L 48.612316 155.687102 
L 48.770031 154.762272 
L 52.029969 154.762272 
L 52.029969 154.762272 
L 52.187684 155.687102 
L 52.346506 156.611932 
L 52.505411 157.536762 
L 52.663708 158.461591 
L 52.821119 159.386421 
L 52.977859 160.311251 
L 53.134708 161.236081 
L 53.293052 162.160911 
L 53.454934 163.085741 
L 53.62306 164.010571 
L 53.800808 164.935401 
L 53.992195 165.860231 
L 54.201821 166.785061 
L 54.434771 167.709891 
L 54.69648 168.63472 
L 54.992546 169.55955 
L 55.328494 170.48438 
L 55.709498 171.40921 
L 56.140062 172.33404 
L 56.623673 173.25887 
L 57.162452 174.1837 
L 57.756816 175.10853 
L 58.405182 176.03336 
L 59.10374 176.95819 
L 59.846315 177.88302 
L 60.624337 178.807849 
L 61.426944 179.732679 
L 62.241203 180.657509 
L 63.052466 181.582339 
L 63.844843 182.507169 
L 64.60176 183.431999 
L 65.306603 184.356829 
L 65.943383 185.281659 
L 66.497423 186.206489 
L 66.956008 187.131319 
L 67.308965 188.056149 
L 67.549163 188.980978 
L 67.672875 189.905808 
L 67.68 190.830638 
L 67.574124 191.755468 
L 67.36241 192.680298 
L 67.055314 193.605128 
L 66.666147 194.529958 
L 66.210487 195.454788 
L 65.70548 196.379618 
L 65.16905 197.304448 
L 64.619081 198.229277 
L 64.07258 199.154107 
L 63.544905 200.078937 
L 63.049067 201.003767 
L 62.595177 201.928597 
L 62.190043 202.853427 
L 61.83697 203.778257 
L 61.535758 204.703087 
L 61.28291 205.627917 
L 61.072033 206.552747 
L 60.894417 207.477577 
L 60.73974 208.402406 
L 60.596861 209.327236 
L 60.454642 210.252066 
L 60.302735 211.176896 
L 60.132279 212.101726 
L 59.936452 213.026556 
L 59.710837 213.951386 
L 59.453588 214.876216 
L 59.165374 215.801046 
L 58.849131 216.725876 
L 58.509643 217.650706 
L 58.15301 218.575535 
L 57.786043 219.500365 
L 57.415665 220.425195 
L 57.04835 221.350025 
L 56.689667 222.274855 
L 56.343952 223.199685 
L 56.014125 224.124515 
L 55.701661 225.049345 
L 55.406694 225.974175 
L 55.128235 226.899005 
L 54.86447 227.823835 
L 54.613092 228.748664 
L 54.371648 229.673494 
L 54.137842 230.598324 
L 53.909792 231.523154 
L 53.6862 232.447984 
L 53.466447 233.372814 
L 53.250592 234.297644 
L 53.039301 235.222474 
L 52.833709 236.147304 
L 52.63525 237.072134 
L 52.445459 237.996964 
L 52.265785 238.921793 
L 52.097431 239.846623 
L 51.94123 240.771453 
L 51.797572 241.696283 
L 51.666391 242.621113 
L 51.54719 243.545943 
L 51.43912 244.470773 
L 51.34108 245.395603 
L 51.251835 246.320433 
L 51.251835 246.320433 
z
" clip-path="url(#p187c5f10bf)" style="fill: none; stroke: #000000; stroke-opacity: 0.3"/>
   </g>
   <g id="FillBetweenPolyCollection_7">
    <path d="M 52.046526 251.002345 
L 48.753474 251.002345 
L 48.649163 250.030217 
L 48.542476 249.058089 
L 48.430763 248.085961 
L 48.310786 247.113834 
L 48.178872 246.141706 
L 48.031113 245.169578 
L 47.863601 244.197451 
L 47.672673 243.225323 
L 47.455163 242.253195 
L 47.208622 241.281067 
L 46.931493 240.30894 
L 46.623229 239.336812 
L 46.284334 238.364684 
L 45.916335 237.392557 
L 45.521669 236.420429 
L 45.10352 235.448301 
L 44.665594 234.476173 
L 44.211873 233.504046 
L 43.746368 232.531918 
L 43.272878 231.55979 
L 42.794797 230.587663 
L 42.314964 229.615535 
L 41.835587 228.643407 
L 41.358221 227.671279 
L 40.883816 226.699152 
L 40.412813 225.727024 
L 39.945282 224.754896 
L 39.481084 223.782769 
L 39.020041 222.810641 
L 38.562097 221.838513 
L 38.107462 220.866385 
L 37.656733 219.894258 
L 37.210973 218.92213 
L 36.771767 217.950002 
L 36.341238 216.977874 
L 35.922038 216.005747 
L 35.517308 215.033619 
L 35.130612 214.061491 
L 34.765857 213.089364 
L 34.427182 212.117236 
L 34.118835 211.145108 
L 33.845036 210.17298 
L 33.609815 209.200853 
L 33.416861 208.228725 
L 33.269355 207.256597 
L 33.169823 206.28447 
L 33.12 205.312342 
L 33.120735 204.340214 
L 33.171928 203.368086 
L 33.272519 202.395959 
L 33.42053 201.423831 
L 33.613156 200.451703 
L 33.846902 199.479576 
L 34.117764 198.507448 
L 34.421425 197.53532 
L 34.753467 196.563192 
L 35.109569 195.591065 
L 35.485689 194.618937 
L 35.878204 193.646809 
L 36.284013 192.674682 
L 36.700579 191.702554 
L 37.12594 190.730426 
L 37.558662 189.758298 
L 37.997764 188.786171 
L 38.44262 187.814043 
L 38.892839 186.841915 
L 39.348152 185.869787 
L 39.808293 184.89766 
L 40.272905 183.925532 
L 40.741445 182.953404 
L 41.213126 181.981277 
L 41.68686 181.009149 
L 42.161237 180.037021 
L 42.634509 179.064893 
L 43.1046 178.092766 
L 43.56914 177.120638 
L 44.025511 176.14851 
L 44.470918 175.176383 
L 44.902479 174.204255 
L 45.317332 173.232127 
L 45.712752 172.259999 
L 46.086273 171.287872 
L 46.435812 170.315744 
L 46.759774 169.343616 
L 47.057142 168.371489 
L 47.327531 167.399361 
L 47.571222 166.427233 
L 47.789139 165.455105 
L 47.982808 164.482978 
L 48.154267 163.51085 
L 48.30596 162.538722 
L 48.440607 161.566595 
L 48.561058 160.594467 
L 48.67016 159.622339 
L 48.770623 158.650211 
L 48.864902 157.678084 
L 48.955111 156.705956 
L 49.042958 155.733828 
L 49.129707 154.7617 
L 51.670293 154.7617 
L 51.670293 154.7617 
L 51.757042 155.733828 
L 51.844889 156.705956 
L 51.935098 157.678084 
L 52.029377 158.650211 
L 52.12984 159.622339 
L 52.238942 160.594467 
L 52.359393 161.566595 
L 52.49404 162.538722 
L 52.645733 163.51085 
L 52.817192 164.482978 
L 53.010861 165.455105 
L 53.228778 166.427233 
L 53.472469 167.399361 
L 53.742858 168.371489 
L 54.040226 169.343616 
L 54.364188 170.315744 
L 54.713727 171.287872 
L 55.087248 172.259999 
L 55.482668 173.232127 
L 55.897521 174.204255 
L 56.329082 175.176383 
L 56.774489 176.14851 
L 57.23086 177.120638 
L 57.6954 178.092766 
L 58.165491 179.064893 
L 58.638763 180.037021 
L 59.11314 181.009149 
L 59.586874 181.981277 
L 60.058555 182.953404 
L 60.527095 183.925532 
L 60.991707 184.89766 
L 61.451848 185.869787 
L 61.907161 186.841915 
L 62.35738 187.814043 
L 62.802236 188.786171 
L 63.241338 189.758298 
L 63.67406 190.730426 
L 64.099421 191.702554 
L 64.515987 192.674682 
L 64.921796 193.646809 
L 65.314311 194.618937 
L 65.690431 195.591065 
L 66.046533 196.563192 
L 66.378575 197.53532 
L 66.682236 198.507448 
L 66.953098 199.479576 
L 67.186844 200.451703 
L 67.37947 201.423831 
L 67.527481 202.395959 
L 67.628072 203.368086 
L 67.679265 204.340214 
L 67.68 205.312342 
L 67.630177 206.28447 
L 67.530645 207.256597 
L 67.383139 208.228725 
L 67.190185 209.200853 
L 66.954964 210.17298 
L 66.681165 211.145108 
L 66.372818 212.117236 
L 66.034143 213.089364 
L 65.669388 214.061491 
L 65.282692 215.033619 
L 64.877962 216.005747 
L 64.458762 216.977874 
L 64.028233 217.950002 
L 63.589027 218.92213 
L 63.143267 219.894258 
L 62.692538 220.866385 
L 62.237903 221.838513 
L 61.779959 222.810641 
L 61.318916 223.782769 
L 60.854718 224.754896 
L 60.387187 225.727024 
L 59.916184 226.699152 
L 59.441779 227.671279 
L 58.964413 228.643407 
L 58.485036 229.615535 
L 58.005203 230.587663 
L 57.527122 231.55979 
L 57.053632 232.531918 
L 56.588127 233.504046 
L 56.134406 234.476173 
L 55.69648 235.448301 
L 55.278331 236.420429 
L 54.883665 237.392557 
L 54.515666 238.364684 
L 54.176771 239.336812 
L 53.868507 240.30894 
L 53.591378 241.281067 
L 53.344837 242.253195 
L 53.127327 243.225323 
L 52.936399 244.197451 
L 52.768887 245.169578 
L 52.621128 246.141706 
L 52.489214 247.113834 
L 52.369237 248.085961 
L 52.257524 249.058089 
L 52.150837 250.030217 
L 52.046526 251.002345 
L 52.046526 251.002345 
z
" clip-path="url(#p187c5f10bf)" style="fill: none; stroke: #000000; stroke-opacity: 0.3"/>
   </g>
   <g id="FillBetweenPolyCollection_8">
    <path d="M 108.260583 213.538662 
L 107.739417 213.538662 
L 107.744251 212.263628 
L 107.758222 210.988595 
L 107.77983 209.713562 
L 107.806876 208.438528 
L 107.836822 207.163495 
L 107.867182 205.888461 
L 107.895844 204.613428 
L 107.921273 203.338394 
L 107.942574 202.063361 
L 107.959435 200.788328 
L 107.971976 199.513294 
L 107.980562 198.238261 
L 107.985607 196.963227 
L 107.987418 195.688194 
L 107.986073 194.41316 
L 107.981357 193.138127 
L 107.972739 191.863094 
L 107.959389 190.58806 
L 107.940237 189.313027 
L 107.914028 188.037993 
L 107.879392 186.76296 
L 107.834887 185.487927 
L 107.779009 184.212893 
L 107.710184 182.93786 
L 107.626754 181.662826 
L 107.527018 180.387793 
L 107.409371 179.112759 
L 107.272569 177.837726 
L 107.116123 176.562693 
L 106.940735 175.287659 
L 106.748669 174.012626 
L 106.543916 172.737592 
L 106.332045 171.462559 
L 106.119694 170.187525 
L 105.913765 168.912492 
L 105.720463 167.637459 
L 105.544347 166.362425 
L 105.387586 165.087392 
L 105.249536 163.812358 
L 105.126675 162.537325 
L 105.012884 161.262291 
L 104.899994 159.987258 
L 104.778499 158.712225 
L 104.638347 157.437191 
L 104.46971 156.162158 
L 104.263649 154.887124 
L 104.012624 153.612091 
L 103.710785 152.337057 
L 103.354071 151.062024 
L 102.940131 149.786991 
L 102.468154 148.511957 
L 101.938678 147.236924 
L 101.353444 145.96189 
L 100.715315 144.686857 
L 100.028267 143.411823 
L 99.297423 142.13679 
L 98.52914 140.861757 
L 97.731151 139.586723 
L 96.912795 138.31169 
L 96.085311 137.036656 
L 95.262121 135.761623 
L 94.458929 134.486589 
L 93.693439 133.211556 
L 92.984521 131.936523 
L 92.350787 130.661489 
L 91.808762 129.386456 
L 91.370991 128.111422 
L 91.044609 126.836389 
L 90.830775 125.561355 
L 90.725248 124.286322 
L 90.72 123.011289 
L 90.80547 121.736255 
L 90.972861 120.461222 
L 91.215846 119.186188 
L 91.53129 117.911155 
L 91.918869 116.636121 
L 92.379848 115.361088 
L 92.915459 114.086055 
L 93.525387 112.811021 
L 94.206723 111.535988 
L 94.95353 110.260954 
L 95.756951 108.985921 
L 96.605653 107.710887 
L 97.486398 106.435854 
L 98.384598 105.160821 
L 99.284823 103.885787 
L 100.171336 102.610754 
L 101.028727 101.33572 
L 101.842705 100.060687 
L 102.601017 98.785654 
L 103.29437 97.51062 
L 103.917181 96.235587 
L 104.467968 94.960553 
L 104.949251 93.68552 
L 105.366929 92.410486 
L 105.729209 91.135453 
L 106.045295 89.86042 
L 106.324062 88.585386 
L 106.572981 87.310353 
L 109.427019 87.310353 
L 109.427019 87.310353 
L 109.675938 88.585386 
L 109.954705 89.86042 
L 110.270791 91.135453 
L 110.633071 92.410486 
L 111.050749 93.68552 
L 111.532032 94.960553 
L 112.082819 96.235587 
L 112.70563 97.51062 
L 113.398983 98.785654 
L 114.157295 100.060687 
L 114.971273 101.33572 
L 115.828664 102.610754 
L 116.715177 103.885787 
L 117.615402 105.160821 
L 118.513602 106.435854 
L 119.394347 107.710887 
L 120.243049 108.985921 
L 121.04647 110.260954 
L 121.793277 111.535988 
L 122.474613 112.811021 
L 123.084541 114.086055 
L 123.620152 115.361088 
L 124.081131 116.636121 
L 124.46871 117.911155 
L 124.784154 119.186188 
L 125.027139 120.461222 
L 125.19453 121.736255 
L 125.28 123.011289 
L 125.274752 124.286322 
L 125.169225 125.561355 
L 124.955391 126.836389 
L 124.629009 128.111422 
L 124.191238 129.386456 
L 123.649213 130.661489 
L 123.015479 131.936523 
L 122.306561 133.211556 
L 121.541071 134.486589 
L 120.737879 135.761623 
L 119.914689 137.036656 
L 119.087205 138.31169 
L 118.268849 139.586723 
L 117.47086 140.861757 
L 116.702577 142.13679 
L 115.971733 143.411823 
L 115.284685 144.686857 
L 114.646556 145.96189 
L 114.061322 147.236924 
L 113.531846 148.511957 
L 113.059869 149.786991 
L 112.645929 151.062024 
L 112.289215 152.337057 
L 111.987376 153.612091 
L 111.736351 154.887124 
L 111.53029 156.162158 
L 111.361653 157.437191 
L 111.221501 158.712225 
L 111.100006 159.987258 
L 110.987116 161.262291 
L 110.873325 162.537325 
L 110.750464 163.812358 
L 110.612414 165.087392 
L 110.455653 166.362425 
L 110.279537 167.637459 
L 110.086235 168.912492 
L 109.880306 170.187525 
L 109.667955 171.462559 
L 109.456084 172.737592 
L 109.251331 174.012626 
L 109.059265 175.287659 
L 108.883877 176.562693 
L 108.727431 177.837726 
L 108.590629 179.112759 
L 108.472982 180.387793 
L 108.373246 181.662826 
L 108.289816 182.93786 
L 108.220991 184.212893 
L 108.165113 185.487927 
L 108.120608 186.76296 
L 108.085972 188.037993 
L 108.059763 189.313027 
L 108.040611 190.58806 
L 108.027261 191.863094 
L 108.018643 193.138127 
L 108.013927 194.41316 
L 108.012582 195.688194 
L 108.014393 196.963227 
L 108.019438 198.238261 
L 108.028024 199.513294 
L 108.040565 200.788328 
L 108.057426 202.063361 
L 108.078727 203.338394 
L 108.104156 204.613428 
L 108.132818 205.888461 
L 108.163178 207.163495 
L 108.193124 208.438528 
L 108.22017 209.713562 
L 108.241778 210.988595 
L 108.255749 212.263628 
L 108.260583 213.538662 
L 108.260583 213.538662 
z
" clip-path="url(#p187c5f10bf)" style="fill: none; stroke: #000000; stroke-opacity: 0.3"/>
   </g>
   <g id="FillBetweenPolyCollection_9">
    <path d="M 108.245034 191.029447 
L 107.754966 191.029447 
L 107.746148 189.975281 
L 107.737656 188.921114 
L 107.727207 187.866947 
L 107.711942 186.812781 
L 107.688626 185.758614 
L 107.653916 184.704447 
L 107.604672 183.65028 
L 107.538299 182.596114 
L 107.453066 181.541947 
L 107.348376 180.48778 
L 107.224948 179.433614 
L 107.084867 178.379447 
L 106.931491 177.32528 
L 106.769191 176.271114 
L 106.602935 175.216947 
L 106.437748 174.16278 
L 106.278105 173.108613 
L 106.127328 172.054447 
L 105.987082 171.00028 
L 105.85706 169.946113 
L 105.734917 168.891947 
L 105.616511 167.83778 
L 105.496431 166.783613 
L 105.368764 165.729447 
L 105.227989 164.67528 
L 105.069863 163.621113 
L 104.89215 162.566946 
L 104.695052 161.51278 
L 104.481254 160.458613 
L 104.255563 159.404446 
L 104.024175 158.35028 
L 103.793693 157.296113 
L 103.57006 156.241946 
L 103.357574 155.18778 
L 103.158159 154.133613 
L 102.970997 153.079446 
L 102.792578 152.02528 
L 102.617134 150.971113 
L 102.437378 149.916946 
L 102.245401 148.862779 
L 102.033602 147.808613 
L 101.795482 146.754446 
L 101.526226 145.700279 
L 101.22299 144.646113 
L 100.884907 143.591946 
L 100.51284 142.537779 
L 100.108951 141.483613 
L 99.67619 140.429446 
L 99.217795 139.375279 
L 98.736865 138.321112 
L 98.236104 137.266946 
L 97.717714 136.212779 
L 97.183491 135.158612 
L 96.635049 134.104446 
L 96.074174 133.050279 
L 95.503224 131.996112 
L 94.925561 130.941946 
L 94.345936 129.887779 
L 93.770823 128.833612 
L 93.208654 127.779445 
L 92.669916 126.725279 
L 92.167107 125.671112 
L 91.71448 124.616945 
L 91.327584 123.562779 
L 91.022557 122.508612 
L 90.815221 121.454445 
L 90.72 120.400279 
L 90.748765 119.346112 
L 90.909718 118.291945 
L 91.206447 117.237779 
L 91.637281 116.183612 
L 92.195037 115.129445 
L 92.867213 114.075278 
L 93.636616 113.021112 
L 94.48237 111.966945 
L 95.381191 110.912778 
L 96.308798 109.858612 
L 97.241331 108.804445 
L 98.156635 107.750278 
L 99.035334 106.696112 
L 99.861624 105.641945 
L 100.62375 104.587778 
L 101.314201 103.533611 
L 101.92961 102.479445 
L 102.470442 101.425278 
L 102.940488 100.371111 
L 103.346232 99.316945 
L 103.696137 98.262778 
L 103.999888 97.208611 
L 104.267653 96.154445 
L 104.509377 95.100278 
L 104.734166 94.046111 
L 104.949784 92.991944 
L 105.162287 91.937778 
L 105.375817 90.883611 
L 105.59255 89.829444 
L 105.812812 88.775278 
L 106.035317 87.721111 
L 106.257518 86.666944 
L 109.742482 86.666944 
L 109.742482 86.666944 
L 109.964683 87.721111 
L 110.187188 88.775278 
L 110.40745 89.829444 
L 110.624183 90.883611 
L 110.837713 91.937778 
L 111.050216 92.991944 
L 111.265834 94.046111 
L 111.490623 95.100278 
L 111.732347 96.154445 
L 112.000112 97.208611 
L 112.303863 98.262778 
L 112.653768 99.316945 
L 113.059512 100.371111 
L 113.529558 101.425278 
L 114.07039 102.479445 
L 114.685799 103.533611 
L 115.37625 104.587778 
L 116.138376 105.641945 
L 116.964666 106.696112 
L 117.843365 107.750278 
L 118.758669 108.804445 
L 119.691202 109.858612 
L 120.618809 110.912778 
L 121.51763 111.966945 
L 122.363384 113.021112 
L 123.132787 114.075278 
L 123.804963 115.129445 
L 124.362719 116.183612 
L 124.793553 117.237779 
L 125.090282 118.291945 
L 125.251235 119.346112 
L 125.28 120.400279 
L 125.184779 121.454445 
L 124.977443 122.508612 
L 124.672416 123.562779 
L 124.28552 124.616945 
L 123.832893 125.671112 
L 123.330084 126.725279 
L 122.791346 127.779445 
L 122.229177 128.833612 
L 121.654064 129.887779 
L 121.074439 130.941946 
L 120.496776 131.996112 
L 119.925826 133.050279 
L 119.364951 134.104446 
L 118.816509 135.158612 
L 118.282286 136.212779 
L 117.763896 137.266946 
L 117.263135 138.321112 
L 116.782205 139.375279 
L 116.32381 140.429446 
L 115.891049 141.483613 
L 115.48716 142.537779 
L 115.115093 143.591946 
L 114.77701 144.646113 
L 114.473774 145.700279 
L 114.204518 146.754446 
L 113.966398 147.808613 
L 113.754599 148.862779 
L 113.562622 149.916946 
L 113.382866 150.971113 
L 113.207422 152.02528 
L 113.029003 153.079446 
L 112.841841 154.133613 
L 112.642426 155.18778 
L 112.42994 156.241946 
L 112.206307 157.296113 
L 111.975825 158.35028 
L 111.744437 159.404446 
L 111.518746 160.458613 
L 111.304948 161.51278 
L 111.10785 162.566946 
L 110.930137 163.621113 
L 110.772011 164.67528 
L 110.631236 165.729447 
L 110.503569 166.783613 
L 110.383489 167.83778 
L 110.265083 168.891947 
L 110.14294 169.946113 
L 110.012918 171.00028 
L 109.872672 172.054447 
L 109.721895 173.108613 
L 109.562252 174.16278 
L 109.397065 175.216947 
L 109.230809 176.271114 
L 109.068509 177.32528 
L 108.915133 178.379447 
L 108.775052 179.433614 
L 108.651624 180.48778 
L 108.546934 181.541947 
L 108.461701 182.596114 
L 108.395328 183.65028 
L 108.346084 184.704447 
L 108.311374 185.758614 
L 108.288058 186.812781 
L 108.272793 187.866947 
L 108.262344 188.921114 
L 108.253852 189.975281 
L 108.245034 191.029447 
L 108.245034 191.029447 
z
" clip-path="url(#p187c5f10bf)" style="fill: none; stroke: #000000; stroke-opacity: 0.3"/>
   </g>
   <g id="FillBetweenPolyCollection_10">
    <path d="M 108.149448 253.693573 
L 107.850552 253.693573 
L 107.857111 251.811815 
L 107.875111 249.930057 
L 107.900214 248.048299 
L 107.927115 246.166541 
L 107.951335 244.284782 
L 107.970296 242.403024 
L 107.983426 240.521266 
L 107.991546 238.639508 
L 107.996058 236.75775 
L 107.998319 234.875992 
L 107.999344 232.994234 
L 107.999762 231.112476 
L 107.999906 229.230718 
L 107.999915 227.34896 
L 107.999799 225.467202 
L 107.999443 223.585444 
L 107.998554 221.703685 
L 107.996557 219.821927 
L 107.992505 217.940169 
L 107.985086 216.058411 
L 107.97287 214.176653 
L 107.954885 212.294895 
L 107.931416 210.413137 
L 107.904685 208.531379 
L 107.878893 206.649621 
L 107.859284 204.767863 
L 107.850385 202.886105 
L 107.854157 201.004347 
L 107.868945 199.122588 
L 107.88974 197.24083 
L 107.909532 195.359072 
L 107.920999 193.477314 
L 107.917867 191.595556 
L 107.895738 189.713798 
L 107.852631 187.83204 
L 107.789521 185.950282 
L 107.710782 184.068524 
L 107.624108 182.186766 
L 107.539442 180.305008 
L 107.466831 178.42325 
L 107.413694 176.541492 
L 107.382304 174.659733 
L 107.368181 172.777975 
L 107.359598 170.896217 
L 107.337893 169.014459 
L 107.278298 167.132701 
L 107.151553 165.250943 
L 106.927288 163.369185 
L 106.580077 161.487427 
L 106.097695 159.605669 
L 105.48882 157.723911 
L 104.785834 155.842153 
L 104.039077 153.960395 
L 103.302489 152.078636 
L 102.615656 150.196878 
L 101.990495 148.31512 
L 101.409561 146.433362 
L 100.836938 144.551604 
L 100.235295 142.669846 
L 99.579199 140.788088 
L 98.857996 138.90633 
L 98.069438 137.024572 
L 97.211936 135.142814 
L 96.283681 133.261056 
L 95.290826 131.379298 
L 94.259207 129.497539 
L 93.240595 127.615781 
L 92.307508 125.734023 
L 91.537717 123.852265 
L 90.995745 121.970507 
L 90.72 120.088749 
L 90.720226 118.206991 
L 90.983748 116.325233 
L 91.484885 114.443475 
L 92.192254 112.561717 
L 93.072434 110.679959 
L 94.091636 108.798201 
L 95.217132 106.916442 
L 96.417986 105.034684 
L 97.663515 103.152926 
L 98.919629 101.271168 
L 100.146074 99.38941 
L 101.298483 97.507652 
L 102.336483 95.625894 
L 103.234656 93.744136 
L 103.990188 91.862378 
L 104.622012 89.98062 
L 105.160815 88.098862 
L 105.634753 86.217104 
L 106.058407 84.335346 
L 106.430502 82.453587 
L 106.740558 80.571829 
L 106.979648 78.690071 
L 107.14881 76.808313 
L 107.261144 74.926555 
L 107.33769 73.044797 
L 107.400323 71.163039 
L 107.465401 69.281281 
L 107.540522 67.399523 
L 108.459478 67.399523 
L 108.459478 67.399523 
L 108.534599 69.281281 
L 108.599677 71.163039 
L 108.66231 73.044797 
L 108.738856 74.926555 
L 108.85119 76.808313 
L 109.020352 78.690071 
L 109.259442 80.571829 
L 109.569498 82.453587 
L 109.941593 84.335346 
L 110.365247 86.217104 
L 110.839185 88.098862 
L 111.377988 89.98062 
L 112.009812 91.862378 
L 112.765344 93.744136 
L 113.663517 95.625894 
L 114.701517 97.507652 
L 115.853926 99.38941 
L 117.080371 101.271168 
L 118.336485 103.152926 
L 119.582014 105.034684 
L 120.782868 106.916442 
L 121.908364 108.798201 
L 122.927566 110.679959 
L 123.807746 112.561717 
L 124.515115 114.443475 
L 125.016252 116.325233 
L 125.279774 118.206991 
L 125.28 120.088749 
L 125.004255 121.970507 
L 124.462283 123.852265 
L 123.692492 125.734023 
L 122.759405 127.615781 
L 121.740793 129.497539 
L 120.709174 131.379298 
L 119.716319 133.261056 
L 118.788064 135.142814 
L 117.930562 137.024572 
L 117.142004 138.90633 
L 116.420801 140.788088 
L 115.764705 142.669846 
L 115.163062 144.551604 
L 114.590439 146.433362 
L 114.009505 148.31512 
L 113.384344 150.196878 
L 112.697511 152.078636 
L 111.960923 153.960395 
L 111.214166 155.842153 
L 110.51118 157.723911 
L 109.902305 159.605669 
L 109.419923 161.487427 
L 109.072712 163.369185 
L 108.848447 165.250943 
L 108.721702 167.132701 
L 108.662107 169.014459 
L 108.640402 170.896217 
L 108.631819 172.777975 
L 108.617696 174.659733 
L 108.586306 176.541492 
L 108.533169 178.42325 
L 108.460558 180.305008 
L 108.375892 182.186766 
L 108.289218 184.068524 
L 108.210479 185.950282 
L 108.147369 187.83204 
L 108.104262 189.713798 
L 108.082133 191.595556 
L 108.079001 193.477314 
L 108.090468 195.359072 
L 108.11026 197.24083 
L 108.131055 199.122588 
L 108.145843 201.004347 
L 108.149615 202.886105 
L 108.140716 204.767863 
L 108.121107 206.649621 
L 108.095315 208.531379 
L 108.068584 210.413137 
L 108.045115 212.294895 
L 108.02713 214.176653 
L 108.014914 216.058411 
L 108.007495 217.940169 
L 108.003443 219.821927 
L 108.001446 221.703685 
L 108.000557 223.585444 
L 108.000201 225.467202 
L 108.000085 227.34896 
L 108.000094 229.230718 
L 108.000238 231.112476 
L 108.000656 232.994234 
L 108.001681 234.875992 
L 108.003942 236.75775 
L 108.008454 238.639508 
L 108.016574 240.521266 
L 108.029704 242.403024 
L 108.048665 244.284782 
L 108.072885 246.166541 
L 108.099786 248.048299 
L 108.124889 249.930057 
L 108.142889 251.811815 
L 108.149448 253.693573 
L 108.149448 253.693573 
z
" clip-path="url(#p187c5f10bf)" style="fill: none; stroke: #000000; stroke-opacity: 0.3"/>
   </g>
   <g id="FillBetweenPolyCollection_11">
    <path d="M 108.626541 185.113634 
L 107.373459 185.113634 
L 107.325681 184.021833 
L 107.284149 182.930032 
L 107.248765 181.838231 
L 107.218723 180.74643 
L 107.192599 179.654629 
L 107.168516 178.562828 
L 107.144342 177.471027 
L 107.117909 176.379226 
L 107.087201 175.287424 
L 107.05048 174.195623 
L 107.00634 173.103822 
L 106.953671 172.012021 
L 106.891536 170.92022 
L 106.818991 169.828419 
L 106.734869 168.736618 
L 106.637558 167.644817 
L 106.524825 166.553016 
L 106.393705 165.461215 
L 106.240494 164.369414 
L 106.060861 163.277612 
L 105.850082 162.185811 
L 105.603382 161.09401 
L 105.316365 160.002209 
L 104.985485 158.910408 
L 104.608501 157.818607 
L 104.184868 156.726806 
L 103.715995 155.635005 
L 103.205319 154.543204 
L 102.658175 153.451403 
L 102.081446 152.359602 
L 101.483024 151.2678 
L 100.87115 150.175999 
L 100.253693 149.084198 
L 99.637495 147.992397 
L 99.027867 146.900596 
L 98.42833 145.808795 
L 97.840635 144.716994 
L 97.265096 143.625193 
L 96.70115 142.533392 
L 96.148073 141.441591 
L 95.605699 140.34979 
L 95.074992 139.257988 
L 94.558363 138.166187 
L 94.059633 137.074386 
L 93.583662 135.982585 
L 93.135713 134.890784 
L 92.720706 133.798983 
L 92.342544 132.707182 
L 92.003673 131.615381 
L 91.705 130.52358 
L 91.446197 129.431779 
L 91.226302 128.339978 
L 91.044489 127.248176 
L 90.900794 126.156375 
L 90.796624 125.064574 
L 90.734931 123.972773 
L 90.72 122.880972 
L 90.756916 121.789171 
L 90.850843 120.69737 
L 91.006267 119.605569 
L 91.226352 118.513768 
L 91.512518 117.421967 
L 91.864258 116.330166 
L 92.279171 115.238364 
L 92.753146 114.146563 
L 93.280597 113.054762 
L 93.854712 111.962961 
L 94.467671 110.87116 
L 95.110866 109.779359 
L 95.775134 108.687558 
L 96.451064 107.595757 
L 97.129368 106.503956 
L 97.801318 105.412155 
L 98.459188 104.320354 
L 99.096639 103.228552 
L 99.708994 102.136751 
L 100.29334 101.04495 
L 100.848463 99.953149 
L 101.374622 98.861348 
L 101.87321 97.769547 
L 102.346355 96.677746 
L 102.796507 95.585945 
L 103.22607 94.494144 
L 103.637079 93.402343 
L 104.03097 92.310542 
L 104.408428 91.218741 
L 104.769336 90.126939 
L 105.112819 89.035138 
L 105.437383 87.943337 
L 105.741146 86.851536 
L 106.022133 85.759735 
L 106.278601 84.667934 
L 106.509349 83.576133 
L 106.713964 82.484332 
L 106.892952 81.392531 
L 107.047747 80.30073 
L 107.180578 79.208929 
L 107.294229 78.117127 
L 107.391736 77.025326 
L 108.608264 77.025326 
L 108.608264 77.025326 
L 108.705771 78.117127 
L 108.819422 79.208929 
L 108.952253 80.30073 
L 109.107048 81.392531 
L 109.286036 82.484332 
L 109.490651 83.576133 
L 109.721399 84.667934 
L 109.977867 85.759735 
L 110.258854 86.851536 
L 110.562617 87.943337 
L 110.887181 89.035138 
L 111.230664 90.126939 
L 111.591572 91.218741 
L 111.96903 92.310542 
L 112.362921 93.402343 
L 112.77393 94.494144 
L 113.203493 95.585945 
L 113.653645 96.677746 
L 114.12679 97.769547 
L 114.625378 98.861348 
L 115.151537 99.953149 
L 115.70666 101.04495 
L 116.291006 102.136751 
L 116.903361 103.228552 
L 117.540812 104.320354 
L 118.198682 105.412155 
L 118.870632 106.503956 
L 119.548936 107.595757 
L 120.224866 108.687558 
L 120.889134 109.779359 
L 121.532329 110.87116 
L 122.145288 111.962961 
L 122.719403 113.054762 
L 123.246854 114.146563 
L 123.720829 115.238364 
L 124.135742 116.330166 
L 124.487482 117.421967 
L 124.773648 118.513768 
L 124.993733 119.605569 
L 125.149157 120.69737 
L 125.243084 121.789171 
L 125.28 122.880972 
L 125.265069 123.972773 
L 125.203376 125.064574 
L 125.099206 126.156375 
L 124.955511 127.248176 
L 124.773698 128.339978 
L 124.553803 129.431779 
L 124.295 130.52358 
L 123.996327 131.615381 
L 123.657456 132.707182 
L 123.279294 133.798983 
L 122.864287 134.890784 
L 122.416338 135.982585 
L 121.940367 137.074386 
L 121.441637 138.166187 
L 120.925008 139.257988 
L 120.394301 140.34979 
L 119.851927 141.441591 
L 119.29885 142.533392 
L 118.734904 143.625193 
L 118.159365 144.716994 
L 117.57167 145.808795 
L 116.972133 146.900596 
L 116.362505 147.992397 
L 115.746307 149.084198 
L 115.12885 150.175999 
L 114.516976 151.2678 
L 113.918554 152.359602 
L 113.341825 153.451403 
L 112.794681 154.543204 
L 112.284005 155.635005 
L 111.815132 156.726806 
L 111.391499 157.818607 
L 111.014515 158.910408 
L 110.683635 160.002209 
L 110.396618 161.09401 
L 110.149918 162.185811 
L 109.939139 163.277612 
L 109.759506 164.369414 
L 109.606295 165.461215 
L 109.475175 166.553016 
L 109.362442 167.644817 
L 109.265131 168.736618 
L 109.181009 169.828419 
L 109.108464 170.92022 
L 109.046329 172.012021 
L 108.99366 173.103822 
L 108.94952 174.195623 
L 108.912799 175.287424 
L 108.882091 176.379226 
L 108.855658 177.471027 
L 108.831484 178.562828 
L 108.807401 179.654629 
L 108.781277 180.74643 
L 108.751235 181.838231 
L 108.715851 182.930032 
L 108.674319 184.021833 
L 108.626541 185.113634 
L 108.626541 185.113634 
z
" clip-path="url(#p187c5f10bf)" style="fill: none; stroke: #000000; stroke-opacity: 0.3"/>
   </g>
   <g id="FillBetweenPolyCollection_12">
    <path d="M 109.206918 179.863173 
L 106.793082 179.863173 
L 106.682071 178.897825 
L 106.578016 177.932477 
L 106.480763 176.967129 
L 106.388615 176.001781 
L 106.298299 175.036433 
L 106.205099 174.071085 
L 106.103171 173.105736 
L 105.986004 172.140388 
L 105.846985 171.17504 
L 105.679998 170.209692 
L 105.479991 169.244344 
L 105.243437 168.278996 
L 104.968642 167.313648 
L 104.655853 166.3483 
L 104.307157 165.382951 
L 103.926206 164.417603 
L 103.517781 163.452255 
L 103.087295 162.486907 
L 102.640271 161.521559 
L 102.181896 160.556211 
L 101.716685 159.590863 
L 101.248301 158.625514 
L 100.779534 157.660166 
L 100.31241 156.694818 
L 99.848396 155.72947 
L 99.388632 154.764122 
L 98.934133 153.798774 
L 98.485912 152.833426 
L 98.044989 151.868078 
L 97.612294 150.902729 
L 97.18848 149.937381 
L 96.773701 148.972033 
L 96.367414 148.006685 
L 95.968277 147.041337 
L 95.574187 146.075989 
L 95.182492 145.110641 
L 94.790376 144.145292 
L 94.395383 143.179944 
L 93.996016 142.214596 
L 93.59232 141.249248 
L 93.186379 140.2839 
L 92.782612 139.318552 
L 92.387824 138.353204 
L 92.010969 137.387856 
L 91.662619 136.422507 
L 91.354174 135.457159 
L 91.096886 134.491811 
L 90.900785 133.526463 
L 90.773631 132.561115 
L 90.72 131.595767 
L 90.740628 130.630419 
L 90.832116 129.665071 
L 90.987046 128.699722 
L 91.194556 127.734374 
L 91.441319 126.769026 
L 91.712857 125.803678 
L 91.995054 124.83833 
L 92.275679 123.872982 
L 92.545738 122.907634 
L 92.80047 121.942285 
L 93.039828 120.976937 
L 93.268388 120.011589 
L 93.49466 119.046241 
L 93.729905 118.080893 
L 93.986613 117.115545 
L 94.276848 116.150197 
L 94.610684 115.184849 
L 94.994949 114.2195 
L 95.43241 113.254152 
L 95.921495 112.288804 
L 96.456534 111.323456 
L 97.028452 110.358108 
L 97.625774 109.39276 
L 98.235784 108.427412 
L 98.845683 107.462063 
L 99.443598 106.496715 
L 100.019368 105.531367 
L 100.565039 104.566019 
L 101.075084 103.600671 
L 101.546376 102.635323 
L 101.977976 101.669975 
L 102.370806 100.704627 
L 102.727272 99.739278 
L 103.050882 98.77393 
L 103.345896 97.808582 
L 103.617022 96.843234 
L 103.869151 95.877886 
L 104.107124 94.912538 
L 104.33551 93.94719 
L 104.558398 92.981842 
L 104.779197 92.016493 
L 105.000455 91.051145 
L 105.223719 90.085797 
L 105.449465 89.120449 
L 105.677099 88.155101 
L 105.905053 87.189753 
L 106.130976 86.224405 
L 106.351978 85.259056 
L 106.564928 84.293708 
L 109.435072 84.293708 
L 109.435072 84.293708 
L 109.648022 85.259056 
L 109.869024 86.224405 
L 110.094947 87.189753 
L 110.322901 88.155101 
L 110.550535 89.120449 
L 110.776281 90.085797 
L 110.999545 91.051145 
L 111.220803 92.016493 
L 111.441602 92.981842 
L 111.66449 93.94719 
L 111.892876 94.912538 
L 112.130849 95.877886 
L 112.382978 96.843234 
L 112.654104 97.808582 
L 112.949118 98.77393 
L 113.272728 99.739278 
L 113.629194 100.704627 
L 114.022024 101.669975 
L 114.453624 102.635323 
L 114.924916 103.600671 
L 115.434961 104.566019 
L 115.980632 105.531367 
L 116.556402 106.496715 
L 117.154317 107.462063 
L 117.764216 108.427412 
L 118.374226 109.39276 
L 118.971548 110.358108 
L 119.543466 111.323456 
L 120.078505 112.288804 
L 120.56759 113.254152 
L 121.005051 114.2195 
L 121.389316 115.184849 
L 121.723152 116.150197 
L 122.013387 117.115545 
L 122.270095 118.080893 
L 122.50534 119.046241 
L 122.731612 120.011589 
L 122.960172 120.976937 
L 123.19953 121.942285 
L 123.454262 122.907634 
L 123.724321 123.872982 
L 124.004946 124.83833 
L 124.287143 125.803678 
L 124.558681 126.769026 
L 124.805444 127.734374 
L 125.012954 128.699722 
L 125.167884 129.665071 
L 125.259372 130.630419 
L 125.28 131.595767 
L 125.226369 132.561115 
L 125.099215 133.526463 
L 124.903114 134.491811 
L 124.645826 135.457159 
L 124.337381 136.422507 
L 123.989031 137.387856 
L 123.612176 138.353204 
L 123.217388 139.318552 
L 122.813621 140.2839 
L 122.40768 141.249248 
L 122.003984 142.214596 
L 121.604617 143.179944 
L 121.209624 144.145292 
L 120.817508 145.110641 
L 120.425813 146.075989 
L 120.031723 147.041337 
L 119.632586 148.006685 
L 119.226299 148.972033 
L 118.81152 149.937381 
L 118.387706 150.902729 
L 117.955011 151.868078 
L 117.514088 152.833426 
L 117.065867 153.798774 
L 116.611368 154.764122 
L 116.151604 155.72947 
L 115.68759 156.694818 
L 115.220466 157.660166 
L 114.751699 158.625514 
L 114.283315 159.590863 
L 113.818104 160.556211 
L 113.359729 161.521559 
L 112.912705 162.486907 
L 112.482219 163.452255 
L 112.073794 164.417603 
L 111.692843 165.382951 
L 111.344147 166.3483 
L 111.031358 167.313648 
L 110.756563 168.278996 
L 110.520009 169.244344 
L 110.320002 170.209692 
L 110.153015 171.17504 
L 110.013996 172.140388 
L 109.896829 173.105736 
L 109.794901 174.071085 
L 109.701701 175.036433 
L 109.611385 176.001781 
L 109.519237 176.967129 
L 109.421984 177.932477 
L 109.317929 178.897825 
L 109.206918 179.863173 
L 109.206918 179.863173 
z
" clip-path="url(#p187c5f10bf)" style="fill: none; stroke: #000000; stroke-opacity: 0.3"/>
   </g>
   <g id="FillBetweenPolyCollection_13">
    <path d="M 108.266372 221.810107 
L 107.733628 221.810107 
L 107.738373 220.403076 
L 107.752108 218.996045 
L 107.773408 217.589014 
L 107.800163 216.181983 
L 107.829912 214.774952 
L 107.860189 213.367921 
L 107.88881 211.96089 
L 107.914047 210.55386 
L 107.934662 209.146829 
L 107.949812 207.739798 
L 107.958853 206.332767 
L 107.961095 204.925736 
L 107.955557 203.518705 
L 107.940765 202.111674 
L 107.914638 200.704644 
L 107.874489 199.297613 
L 107.817144 197.890582 
L 107.739192 196.483551 
L 107.637328 195.07652 
L 107.508752 193.669489 
L 107.351571 192.262458 
L 107.165139 190.855427 
L 106.95028 189.448397 
L 106.709369 188.041366 
L 106.44623 186.634335 
L 106.165855 185.227304 
L 105.873934 183.820273 
L 105.57621 182.413242 
L 105.277675 181.006211 
L 104.981674 179.59918 
L 104.689031 178.19215 
L 104.397363 176.785119 
L 104.100762 175.378088 
L 103.790024 173.971057 
L 103.453515 172.564026 
L 103.078629 171.156995 
L 102.653676 169.749964 
L 102.169874 168.342933 
L 101.623079 166.935903 
L 101.014884 165.528872 
L 100.352803 164.121841 
L 99.649436 162.71481 
L 98.920725 161.307779 
L 98.183604 159.900748 
L 97.45354 158.493717 
L 96.742493 157.086686 
L 96.057777 155.679656 
L 95.402085 154.272625 
L 94.774648 152.865594 
L 94.173214 151.458563 
L 93.596296 150.051532 
L 93.045115 148.644501 
L 92.524759 147.23747 
L 92.044359 145.83044 
L 91.616376 144.423409 
L 91.255314 143.016378 
L 90.976261 141.609347 
L 90.793597 140.202316 
L 90.72 138.795285 
L 90.765709 137.388254 
L 90.937844 135.981223 
L 91.239622 134.574193 
L 91.669406 133.167162 
L 92.219732 131.760131 
L 92.876623 130.3531 
L 93.619549 128.946069 
L 94.42228 127.539038 
L 95.254711 126.132007 
L 96.085445 124.724976 
L 96.884726 123.317946 
L 97.627238 121.910915 
L 98.294301 120.503884 
L 98.875212 119.096853 
L 99.367619 117.689822 
L 99.777057 116.282791 
L 100.11584 114.87576 
L 100.401515 113.468729 
L 100.655058 112.061699 
L 100.898891 110.654668 
L 101.154792 109.247637 
L 101.441787 107.840606 
L 101.774171 106.433575 
L 102.159917 105.026544 
L 102.599723 103.619513 
L 103.086945 102.212482 
L 103.608506 100.805452 
L 104.146689 99.398421 
L 104.681533 97.99139 
L 105.193419 96.584359 
L 105.665403 95.177328 
L 106.084945 93.770297 
L 106.444803 92.363266 
L 106.743101 90.956236 
L 106.982675 89.549205 
L 107.169936 88.142174 
L 107.313514 86.735143 
L 107.422901 85.328112 
L 107.507284 83.921081 
L 107.574663 82.51405 
L 108.425337 82.51405 
L 108.425337 82.51405 
L 108.492716 83.921081 
L 108.577099 85.328112 
L 108.686486 86.735143 
L 108.830064 88.142174 
L 109.017325 89.549205 
L 109.256899 90.956236 
L 109.555197 92.363266 
L 109.915055 93.770297 
L 110.334597 95.177328 
L 110.806581 96.584359 
L 111.318467 97.99139 
L 111.853311 99.398421 
L 112.391494 100.805452 
L 112.913055 102.212482 
L 113.400277 103.619513 
L 113.840083 105.026544 
L 114.225829 106.433575 
L 114.558213 107.840606 
L 114.845208 109.247637 
L 115.101109 110.654668 
L 115.344942 112.061699 
L 115.598485 113.468729 
L 115.88416 114.87576 
L 116.222943 116.282791 
L 116.632381 117.689822 
L 117.124788 119.096853 
L 117.705699 120.503884 
L 118.372762 121.910915 
L 119.115274 123.317946 
L 119.914555 124.724976 
L 120.745289 126.132007 
L 121.57772 127.539038 
L 122.380451 128.946069 
L 123.123377 130.3531 
L 123.780268 131.760131 
L 124.330594 133.167162 
L 124.760378 134.574193 
L 125.062156 135.981223 
L 125.234291 137.388254 
L 125.28 138.795285 
L 125.206403 140.202316 
L 125.023739 141.609347 
L 124.744686 143.016378 
L 124.383624 144.423409 
L 123.955641 145.83044 
L 123.475241 147.23747 
L 122.954885 148.644501 
L 122.403704 150.051532 
L 121.826786 151.458563 
L 121.225352 152.865594 
L 120.597915 154.272625 
L 119.942223 155.679656 
L 119.257507 157.086686 
L 118.54646 158.493717 
L 117.816396 159.900748 
L 117.079275 161.307779 
L 116.350564 162.71481 
L 115.647197 164.121841 
L 114.985116 165.528872 
L 114.376921 166.935903 
L 113.830126 168.342933 
L 113.346324 169.749964 
L 112.921371 171.156995 
L 112.546485 172.564026 
L 112.209976 173.971057 
L 111.899238 175.378088 
L 111.602637 176.785119 
L 111.310969 178.19215 
L 111.018326 179.59918 
L 110.722325 181.006211 
L 110.42379 182.413242 
L 110.126066 183.820273 
L 109.834145 185.227304 
L 109.55377 186.634335 
L 109.290631 188.041366 
L 109.04972 189.448397 
L 108.834861 190.855427 
L 108.648429 192.262458 
L 108.491248 193.669489 
L 108.362672 195.07652 
L 108.260808 196.483551 
L 108.182856 197.890582 
L 108.125511 199.297613 
L 108.085362 200.704644 
L 108.059235 202.111674 
L 108.044443 203.518705 
L 108.038905 204.925736 
L 108.041147 206.332767 
L 108.050188 207.739798 
L 108.065338 209.146829 
L 108.085953 210.55386 
L 108.11119 211.96089 
L 108.139811 213.367921 
L 108.170088 214.774952 
L 108.199837 216.181983 
L 108.226592 217.589014 
L 108.247892 218.996045 
L 108.261627 220.403076 
L 108.266372 221.810107 
L 108.266372 221.810107 
z
" clip-path="url(#p187c5f10bf)" style="fill: none; stroke: #000000; stroke-opacity: 0.3"/>
   </g>
   <g id="FillBetweenPolyCollection_14">
    <path d="M 109.278461 192.187468 
L 106.721539 192.187468 
L 106.567949 191.126605 
L 106.408974 190.065743 
L 106.244666 189.00488 
L 106.074867 187.944018 
L 105.899379 186.883155 
L 105.718177 185.822292 
L 105.531623 184.76143 
L 105.340628 183.700567 
L 105.146729 182.639705 
L 104.952032 181.578842 
L 104.75903 180.51798 
L 104.570285 179.457117 
L 104.388033 178.396255 
L 104.213759 177.335392 
L 104.047814 176.274529 
L 103.889155 175.213667 
L 103.735251 174.152804 
L 103.582199 173.091942 
L 103.425063 172.031079 
L 103.258382 170.970217 
L 103.076815 169.909354 
L 102.875818 168.848492 
L 102.652261 167.787629 
L 102.404899 166.726766 
L 102.134605 165.665904 
L 101.844319 164.605041 
L 101.5387 163.544179 
L 101.223496 162.483316 
L 100.904712 161.422454 
L 100.587662 160.361591 
L 100.276036 159.300729 
L 99.971119 158.239866 
L 99.671279 157.179003 
L 99.371829 156.118141 
L 99.065319 155.057278 
L 98.742254 153.996416 
L 98.392198 152.935553 
L 98.005124 151.874691 
L 97.572875 150.813828 
L 97.09053 149.752965 
L 96.557497 148.692103 
L 95.978175 147.63124 
L 95.362057 146.570378 
L 94.723249 145.509515 
L 94.079425 144.448653 
L 93.450341 143.38779 
L 92.856075 142.326928 
L 92.315209 141.266065 
L 91.84318 140.205202 
L 91.451005 139.14434 
L 91.144526 138.083477 
L 90.924274 137.022615 
L 90.785941 135.961752 
L 90.721381 134.90089 
L 90.72 133.840027 
L 90.770337 132.779165 
L 90.861621 131.718302 
L 90.985107 130.657439 
L 91.135041 129.596577 
L 91.309144 128.535714 
L 91.508582 127.474852 
L 91.737481 126.413989 
L 92.002045 125.353127 
L 92.309454 124.292264 
L 92.666654 123.231402 
L 93.079225 122.170539 
L 93.55042 121.109676 
L 94.080503 120.048814 
L 94.666402 118.987951 
L 95.301725 117.927089 
L 95.977088 116.866226 
L 96.68071 115.805364 
L 97.39921 114.744501 
L 98.118514 113.683638 
L 98.82479 112.622776 
L 99.505342 111.561913 
L 100.149374 110.501051 
L 100.748591 109.440188 
L 101.297573 108.379326 
L 101.793919 107.318463 
L 102.238155 106.257601 
L 102.633407 105.196738 
L 102.984905 104.135875 
L 103.299345 103.075013 
L 103.584187 102.01415 
L 103.846955 100.953288 
L 104.094609 99.892425 
L 104.333035 98.831563 
L 104.566712 97.7707 
L 104.798555 96.709838 
L 105.029945 95.648975 
L 105.260906 94.588112 
L 105.490397 93.52725 
L 105.716657 92.466387 
L 105.937563 91.405525 
L 106.15094 90.344662 
L 106.354802 89.2838 
L 106.547512 88.222937 
L 106.727848 87.162075 
L 109.272152 87.162075 
L 109.272152 87.162075 
L 109.452488 88.222937 
L 109.645198 89.2838 
L 109.84906 90.344662 
L 110.062437 91.405525 
L 110.283343 92.466387 
L 110.509603 93.52725 
L 110.739094 94.588112 
L 110.970055 95.648975 
L 111.201445 96.709838 
L 111.433288 97.7707 
L 111.666965 98.831563 
L 111.905391 99.892425 
L 112.153045 100.953288 
L 112.415813 102.01415 
L 112.700655 103.075013 
L 113.015095 104.135875 
L 113.366593 105.196738 
L 113.761845 106.257601 
L 114.206081 107.318463 
L 114.702427 108.379326 
L 115.251409 109.440188 
L 115.850626 110.501051 
L 116.494658 111.561913 
L 117.17521 112.622776 
L 117.881486 113.683638 
L 118.60079 114.744501 
L 119.31929 115.805364 
L 120.022912 116.866226 
L 120.698275 117.927089 
L 121.333598 118.987951 
L 121.919497 120.048814 
L 122.44958 121.109676 
L 122.920775 122.170539 
L 123.333346 123.231402 
L 123.690546 124.292264 
L 123.997955 125.353127 
L 124.262519 126.413989 
L 124.491418 127.474852 
L 124.690856 128.535714 
L 124.864959 129.596577 
L 125.014893 130.657439 
L 125.138379 131.718302 
L 125.229663 132.779165 
L 125.28 133.840027 
L 125.278619 134.90089 
L 125.214059 135.961752 
L 125.075726 137.022615 
L 124.855474 138.083477 
L 124.548995 139.14434 
L 124.15682 140.205202 
L 123.684791 141.266065 
L 123.143925 142.326928 
L 122.549659 143.38779 
L 121.920575 144.448653 
L 121.276751 145.509515 
L 120.637943 146.570378 
L 120.021825 147.63124 
L 119.442503 148.692103 
L 118.90947 149.752965 
L 118.427125 150.813828 
L 117.994876 151.874691 
L 117.607802 152.935553 
L 117.257746 153.996416 
L 116.934681 155.057278 
L 116.628171 156.118141 
L 116.328721 157.179003 
L 116.028881 158.239866 
L 115.723964 159.300729 
L 115.412338 160.361591 
L 115.095288 161.422454 
L 114.776504 162.483316 
L 114.4613 163.544179 
L 114.155681 164.605041 
L 113.865395 165.665904 
L 113.595101 166.726766 
L 113.347739 167.787629 
L 113.124182 168.848492 
L 112.923185 169.909354 
L 112.741618 170.970217 
L 112.574937 172.031079 
L 112.417801 173.091942 
L 112.264749 174.152804 
L 112.110845 175.213667 
L 111.952186 176.274529 
L 111.786241 177.335392 
L 111.611967 178.396255 
L 111.429715 179.457117 
L 111.24097 180.51798 
L 111.047968 181.578842 
L 110.853271 182.639705 
L 110.659372 183.700567 
L 110.468377 184.76143 
L 110.281823 185.822292 
L 110.100621 186.883155 
L 109.925133 187.944018 
L 109.755334 189.00488 
L 109.591026 190.065743 
L 109.432051 191.126605 
L 109.278461 192.187468 
L 109.278461 192.187468 
z
" clip-path="url(#p187c5f10bf)" style="fill: none; stroke: #000000; stroke-opacity: 0.3"/>
   </g>
   <g id="FillBetweenPolyCollection_15">
    <path d="M 108.535221 190.561226 
L 107.464779 190.561226 
L 107.410736 189.508948 
L 107.358333 188.45667 
L 107.308 187.404392 
L 107.25993 186.352114 
L 107.214048 185.299836 
L 107.169977 184.247558 
L 107.126991 183.19528 
L 107.083974 182.143003 
L 107.03939 181.090725 
L 106.991281 180.038447 
L 106.937323 178.986169 
L 106.874937 177.933891 
L 106.801468 176.881613 
L 106.714412 175.829335 
L 106.611669 174.777057 
L 106.491791 173.724779 
L 106.354176 172.672501 
L 106.199186 171.620224 
L 106.02817 170.567946 
L 105.843365 169.515668 
L 105.647709 168.46339 
L 105.444578 167.411112 
L 105.237475 166.358834 
L 105.029713 165.306556 
L 104.824105 164.254278 
L 104.622686 163.202 
L 104.426481 162.149722 
L 104.235311 161.097445 
L 104.047659 160.045167 
L 103.860597 158.992889 
L 103.66979 157.940611 
L 103.469591 156.888333 
L 103.253229 155.836055 
L 103.013095 154.783777 
L 102.741109 153.731499 
L 102.429134 152.679221 
L 102.069417 151.626943 
L 101.655036 150.574666 
L 101.18032 149.522388 
L 100.641259 148.47011 
L 100.035911 147.417832 
L 99.36481 146.365554 
L 98.631397 145.313276 
L 97.84245 144.260998 
L 97.008455 143.20872 
L 96.143863 142.156442 
L 95.267111 141.104165 
L 94.400313 140.051887 
L 93.568534 138.999609 
L 92.798615 137.947331 
L 92.117575 136.895053 
L 91.550701 135.842775 
L 91.119507 134.790497 
L 90.839785 133.738219 
L 90.72 132.685941 
L 90.760241 131.633663 
L 90.951908 130.581386 
L 91.278212 129.529108 
L 91.715472 128.47683 
L 92.235098 127.424552 
L 92.806061 126.372274 
L 93.3976 125.319996 
L 93.981851 124.267718 
L 94.536148 123.21544 
L 95.044708 122.163162 
L 95.499567 121.110884 
L 95.900659 120.058607 
L 96.255078 119.006329 
L 96.575645 117.954051 
L 96.878998 116.901773 
L 97.183432 115.849495 
L 97.50676 114.797217 
L 97.864413 113.744939 
L 98.267951 112.692661 
L 98.72408 111.640383 
L 99.234226 110.588105 
L 99.794638 109.535828 
L 100.396961 108.48355 
L 101.029189 107.431272 
L 101.676889 106.378994 
L 102.324548 105.326716 
L 102.956927 104.274438 
L 103.560271 103.22216 
L 104.123268 102.169882 
L 104.637675 101.117604 
L 105.098567 100.065326 
L 105.504228 99.013049 
L 105.855746 97.960771 
L 106.156404 96.908493 
L 106.410984 95.856215 
L 106.625092 94.803937 
L 106.804576 93.751659 
L 106.955094 92.699381 
L 107.081847 91.647103 
L 107.189433 90.594825 
L 107.281812 89.542547 
L 107.362317 88.49027 
L 107.433686 87.437992 
L 107.498094 86.385714 
L 108.501906 86.385714 
L 108.501906 86.385714 
L 108.566314 87.437992 
L 108.637683 88.49027 
L 108.718188 89.542547 
L 108.810567 90.594825 
L 108.918153 91.647103 
L 109.044906 92.699381 
L 109.195424 93.751659 
L 109.374908 94.803937 
L 109.589016 95.856215 
L 109.843596 96.908493 
L 110.144254 97.960771 
L 110.495772 99.013049 
L 110.901433 100.065326 
L 111.362325 101.117604 
L 111.876732 102.169882 
L 112.439729 103.22216 
L 113.043073 104.274438 
L 113.675452 105.326716 
L 114.323111 106.378994 
L 114.970811 107.431272 
L 115.603039 108.48355 
L 116.205362 109.535828 
L 116.765774 110.588105 
L 117.27592 111.640383 
L 117.732049 112.692661 
L 118.135587 113.744939 
L 118.49324 114.797217 
L 118.816568 115.849495 
L 119.121002 116.901773 
L 119.424355 117.954051 
L 119.744922 119.006329 
L 120.099341 120.058607 
L 120.500433 121.110884 
L 120.955292 122.163162 
L 121.463852 123.21544 
L 122.018149 124.267718 
L 122.6024 125.319996 
L 123.193939 126.372274 
L 123.764902 127.424552 
L 124.284528 128.47683 
L 124.721788 129.529108 
L 125.048092 130.581386 
L 125.239759 131.633663 
L 125.28 132.685941 
L 125.160215 133.738219 
L 124.880493 134.790497 
L 124.449299 135.842775 
L 123.882425 136.895053 
L 123.201385 137.947331 
L 122.431466 138.999609 
L 121.599687 140.051887 
L 120.732889 141.104165 
L 119.856137 142.156442 
L 118.991545 143.20872 
L 118.15755 144.260998 
L 117.368603 145.313276 
L 116.63519 146.365554 
L 115.964089 147.417832 
L 115.358741 148.47011 
L 114.81968 149.522388 
L 114.344964 150.574666 
L 113.930583 151.626943 
L 113.570866 152.679221 
L 113.258891 153.731499 
L 112.986905 154.783777 
L 112.746771 155.836055 
L 112.530409 156.888333 
L 112.33021 157.940611 
L 112.139403 158.992889 
L 111.952341 160.045167 
L 111.764689 161.097445 
L 111.573519 162.149722 
L 111.377314 163.202 
L 111.175895 164.254278 
L 110.970287 165.306556 
L 110.762525 166.358834 
L 110.555422 167.411112 
L 110.352291 168.46339 
L 110.156635 169.515668 
L 109.97183 170.567946 
L 109.800814 171.620224 
L 109.645824 172.672501 
L 109.508209 173.724779 
L 109.388331 174.777057 
L 109.285588 175.829335 
L 109.198532 176.881613 
L 109.125063 177.933891 
L 109.062677 178.986169 
L 109.008719 180.038447 
L 108.96061 181.090725 
L 108.916026 182.143003 
L 108.873009 183.19528 
L 108.830023 184.247558 
L 108.785952 185.299836 
L 108.74007 186.352114 
L 108.692 187.404392 
L 108.641667 188.45667 
L 108.589264 189.508948 
L 108.535221 190.561226 
L 108.535221 190.561226 
z
" clip-path="url(#p187c5f10bf)" style="fill: none; stroke: #000000; stroke-opacity: 0.3"/>
   </g>
   <g id="matplotlib.axis_1">
    <g id="xtick_1">
     <g id="line2d_1">
      <defs>
       <path id="m15e3a9dc44" d="M 0 0 
L 0 3.5 
" style="stroke: #000000; stroke-width: 0.8"/>
      </defs>
      <g>
       <use xlink:href="#m15e3a9dc44" x="50.4" y="291.6" style="stroke: #000000; stroke-width: 0.8"/>
      </g>
     </g>
     <g id="text_1">
      <text style="font-size: 10px; font-family: 'DejaVu Sans', 'Bitstream Vera Sans', 'Computer Modern Sans Serif', 'Lucida Grande', 'Verdana', 'Geneva', 'Lucid', 'Arial', 'Helvetica', 'Avant Garde', sans-serif; text-anchor: middle" x="50.4" y="306.198438" transform="rotate(-0 50.4 306.198438)">0.3</text>
     </g>
    </g>
    <g id="xtick_2">
     <g id="line2d_2">
      <g>
       <use xlink:href="#m15e3a9dc44" x="108" y="291.6" style="stroke: #000000; stroke-width: 0.8"/>
      </g>
     </g>
     <g id="text_2">
      <text style="font-size: 10px; font-family: 'DejaVu Sans', 'Bitstream Vera Sans', 'Computer Modern Sans Serif', 'Lucida Grande', 'Verdana', 'Geneva', 'Lucid', 'Arial', 'Helvetica', 'Avant Garde', sans-serif; text-anchor: middle" x="108" y="306.198438" transform="rotate(-0 108 306.198438)">0.6</text>
     </g>
    </g>
   </g>
   <g id="matplotlib.axis_2">
    <g id="ytick_1">
     <g id="line2d_3">
      <defs>
       <path id="m098ebff82d" d="M 0 0 
L -3.5 0 
" style="stroke: #000000; stroke-width: 0.8"/>
      </defs>
      <g>
       <use xlink:href="#m098ebff82d" x="21.6" y="291.6" style="stroke: #000000; stroke-width: 0.8"/>
      </g>
     </g>
    </g>
    <g id="ytick_2">
     <g id="line2d_4">
      <g>
       <use xlink:href="#m098ebff82d" x="21.6" y="222.75" style="stroke: #000000; stroke-width: 0.8"/>
      </g>
     </g>
    </g>
    <g id="ytick_3">
     <g id="line2d_5">
      <g>
       <use xlink:href="#m098ebff82d" x="21.6" y="153.9" style="stroke: #000000; stroke-width: 0.8"/>
      </g>
     </g>
    </g>
    <g id="ytick_4">
     <g id="line2d_6">
      <g>
       <use xlink:href="#m098ebff82d" x="21.6" y="85.05" style="stroke: #000000; stroke-width: 0.8"/>
      </g>
     </g>
    </g>
    <g id="ytick_5">
     <g id="line2d_7">
      <g>
       <use xlink:href="#m098ebff82d" x="21.6" y="16.2" style="stroke: #000000; stroke-width: 0.8"/>
      </g>
     </g>
    </g>
   </g>
   <g id="line2d_8">
    <path d="M 50.4 269.568 
L 50.4 264.06 
" clip-path="url(#p187c5f10bf)" style="fill: none; stroke: #000000; stroke-linecap: square"/>
   </g>
   <g id="line2d_9">
    <path d="M 50.4 269.568 
L 108 269.568 
" clip-path="url(#p187c5f10bf)" style="fill: none; stroke: #000000; stroke-linecap: square"/>
   </g>
   <g id="line2d_10">
    <path d="M 108 269.568 
L 108 264.06 
" clip-path="url(#p187c5f10bf)" style="fill: none; stroke: #000000; stroke-linecap: square"/>
   </g>
   <g id="patch_3">
    <path d="M 21.6 291.6 
L 21.6 16.2 
" style="fill: none; stroke: #000000; stroke-width: 0.8; stroke-linejoin: miter; stroke-linecap: square"/>
   </g>
   <g id="patch_4">
    <path d="M 136.8 291.6 
L 136.8 16.2 
" style="fill: none; stroke: #000000; stroke-width: 0.8; stroke-linejoin: miter; stroke-linecap: square"/>
   </g>
   <g id="patch_5">
    <path d="M 21.6 291.6 
L 136.8 291.6 
" style="fill: none; stroke: #000000; stroke-width: 0.8; stroke-linejoin: miter; stroke-linecap: square"/>
   </g>
   <g id="patch_6">
    <path d="M 21.6 16.2 
L 136.8 16.2 
" style="fill: none; stroke: #000000; stroke-width: 0.8; stroke-linejoin: miter; stroke-linecap: square"/>
   </g>
   <g id="text_3">
    <text style="font-weight: 700; font-size: 12px; font-family: 'DejaVu Sans', 'Bitstream Vera Sans', 'Computer Modern Sans Serif', 'Lucida Grande', 'Verdana', 'Geneva', 'Lucid', 'Arial', 'Helvetica', 'Avant Garde', sans-serif; text-anchor: middle" x="50.4" y="289.104375" transform="rotate(-0 50.4 289.104375)">#5</text>
   </g>
   <g id="text_4">
    <text style="font-weight: 700; font-size: 12px; font-family: 'DejaVu Sans', 'Bitstream Vera Sans', 'Computer Modern Sans Serif', 'Lucida Grande', 'Verdana', 'Geneva', 'Lucid', 'Arial', 'Helvetica', 'Avant Garde', sans-serif; text-anchor: middle" x="108" y="289.104375" transform="rotate(-0 108 289.104375)">#19</text>
   </g>
   <g id="text_5">
    <text style="font-size: 12px; font-family: 'DejaVu Sans', 'Bitstream Vera Sans', 'Computer Modern Sans Serif', 'Lucida Grande', 'Verdana', 'Geneva', 'Lucid', 'Arial', 'Helvetica', 'Avant Garde', sans-serif; text-anchor: middle" x="79.2" y="268.449375" transform="rotate(-0 79.2 268.449375)">****</text>
   </g>
   <g id="line2d_11">
    <path d="M 21.6 199.262032 
L 136.8 199.262032 
" clip-path="url(#p187c5f10bf)" style="fill: none; stroke-dasharray: 3.7,1.6; stroke-dashoffset: 0; stroke: #808080; stroke-opacity: 0.7"/>
   </g>
   <g id="line2d_12">
    <path d="M 21.6 128.74649 
L 136.8 128.74649 
" clip-path="url(#p187c5f10bf)" style="fill: none; stroke-dasharray: 3.7,1.6; stroke-dashoffset: 0; stroke: #808080; stroke-opacity: 0.7"/>
   </g>
   <g id="LineCollection_1">
    <path d="M 50.4 202.871964 
L 50.4 195.652101 
" clip-path="url(#p187c5f10bf)" style="fill: none; stroke: #000000; stroke-width: 2"/>
   </g>
   <g id="line2d_13">
    <defs>
     <path id="m2236ff793b" d="M 5 0 
L -5 -0 
" style="stroke: #000000; stroke-width: 2"/>
    </defs>
    <g clip-path="url(#p187c5f10bf)">
     <use xlink:href="#m2236ff793b" x="50.4" y="202.871964" style="stroke: #000000; stroke-width: 2"/>
    </g>
   </g>
   <g id="line2d_14">
    <g clip-path="url(#p187c5f10bf)">
     <use xlink:href="#m2236ff793b" x="50.4" y="195.652101" style="stroke: #000000; stroke-width: 2"/>
    </g>
   </g>
   <g id="LineCollection_2">
    <path d="M 108 135.260423 
L 108 122.232558 
" clip-path="url(#p187c5f10bf)" style="fill: none; stroke: #000000; stroke-width: 2"/>
   </g>
   <g id="line2d_15">
    <g clip-path="url(#p187c5f10bf)">
     <use xlink:href="#m2236ff793b" x="108" y="135.260423" style="stroke: #000000; stroke-width: 2"/>
    </g>
   </g>
   <g id="line2d_16">
    <g clip-path="url(#p187c5f10bf)">
     <use xlink:href="#m2236ff793b" x="108" y="122.232558" style="stroke: #000000; stroke-width: 2"/>
    </g>
   </g>
   <g id="line2d_17">
    <defs>
     <path id="me732effa46" d="M 0 4 
C 1.060812 4 2.078319 3.578535 2.828427 2.828427 
C 3.578535 2.078319 4 1.060812 4 0 
C 4 -1.060812 3.578535 -2.078319 2.828427 -2.828427 
C 2.078319 -3.578535 1.060812 -4 0 -4 
C -1.060812 -4 -2.078319 -3.578535 -2.828427 -2.828427 
C -3.578535 -2.078319 -4 -1.060812 -4 0 
C -4 1.060812 -3.578535 2.078319 -2.828427 2.828427 
C -2.078319 3.578535 -1.060812 4 0 4 
z
" style="stroke: #000000"/>
    </defs>
    <g clip-path="url(#p187c5f10bf)">
     <use xlink:href="#me732effa46" x="50.4" y="199.262032" style="stroke: #000000"/>
    </g>
   </g>
   <g id="line2d_18">
    <g clip-path="url(#p187c5f10bf)">
     <use xlink:href="#me732effa46" x="108" y="128.74649" style="stroke: #000000"/>
    </g>
   </g>
  </g>
 </g>
 <defs>
  <clipPath id="p187c5f10bf">
   <rect x="21.6" y="16.2" width="115.2" height="275.4"/>
  </clipPath>
 </defs>
</svg>
