<?xml version="1.0" encoding="utf-8" standalone="no"?>
<!DOCTYPE svg PUBLIC "-//W3C//DTD SVG 1.1//EN"
  "http://www.w3.org/Graphics/SVG/1.1/DTD/svg11.dtd">
<svg xmlns:xlink="http://www.w3.org/1999/xlink" width="144pt" height="324pt" viewBox="0 0 144 324" xmlns="http://www.w3.org/2000/svg" version="1.1">
 <metadata>
  <rdf:RDF xmlns:dc="http://purl.org/dc/elements/1.1/" xmlns:cc="http://creativecommons.org/ns#" xmlns:rdf="http://www.w3.org/1999/02/22-rdf-syntax-ns#">
   <cc:Work>
    <dc:type rdf:resource="http://purl.org/dc/dcmitype/StillImage"/>
    <dc:date>2025-12-08T20:14:21.258229</dc:date>
    <dc:format>image/svg+xml</dc:format>
    <dc:creator>
     <cc:Agent>
      <dc:title>Matplotlib v3.10.0, https://matplotlib.org/</dc:title>
     </cc:Agent>
    </dc:creator>
   </cc:Work>
  </rdf:RDF>
 </metadata>
 <defs>
  <style type="text/css">*{stroke-linejoin: round; stroke-linecap: butt}</style>
 </defs>
 <g id="figure_1">
  <g id="patch_1">
   <path d="M 0 324 
L 144 324 
L 144 0 
L 0 0 
z
" style="fill: #ffffff"/>
  </g>
  <g id="axes_1">
   <g id="patch_2">
    <path d="M 21.6 291.6 
L 136.8 291.6 
L 136.8 16.2 
L 21.6 16.2 
z
" style="fill: #ffffff"/>
   </g>
   <g id="FillBetweenPolyCollection_1">
    <path d="M 47.772505 170.13173 
L 45.17295 170.13173 
L 44.996585 168.819921 
L 44.792892 167.508112 
L 44.558033 166.196303 
L 44.28862 164.884494 
L 43.982041 163.572685 
L 43.636775 162.260876 
L 43.252651 160.949067 
L 42.831018 159.637258 
L 42.3748 158.325449 
L 41.888413 157.01364 
L 41.377546 155.701831 
L 40.848816 154.390022 
L 40.309321 153.078213 
L 39.766146 151.766404 
L 39.225859 150.454595 
L 38.694053 149.142786 
L 38.175003 147.830977 
L 37.671444 146.519168 
L 37.184523 145.207359 
L 36.713911 143.89555 
L 36.258053 142.583741 
L 35.814527 141.271932 
L 35.380464 139.960123 
L 34.95295 138.648314 
L 34.529387 137.336505 
L 34.10775 136.024696 
L 33.68671 134.712887 
L 33.265642 133.401078 
L 32.844509 132.089269 
L 32.423679 130.77746 
L 32.003704 129.465651 
L 31.585137 128.153842 
L 31.168415 126.842033 
L 30.753851 125.530224 
L 30.341758 124.218415 
L 29.932685 122.906606 
L 29.527742 121.594797 
L 29.128963 120.282988 
L 28.739655 118.971179 
L 28.364656 117.65937 
L 28.01045 116.347561 
L 27.685107 115.035752 
L 27.39802 113.723943 
L 27.159438 112.412134 
L 26.97985 111.100325 
L 26.869249 109.788516 
L 26.836364 108.476707 
L 26.887926 107.164898 
L 27.028051 105.853089 
L 27.257804 104.54128 
L 27.574979 103.229471 
L 27.974139 101.917662 
L 28.446894 100.605853 
L 28.982401 99.294044 
L 29.568033 97.982235 
L 30.190155 96.670426 
L 30.83494 95.358617 
L 31.489148 94.046808 
L 32.140807 92.734999 
L 32.779746 91.42319 
L 33.397952 90.111381 
L 33.989729 88.799572 
L 34.551673 87.487763 
L 35.08249 86.175954 
L 35.582681 84.864145 
L 36.054146 83.552336 
L 36.499757 82.240527 
L 36.922928 80.928718 
L 37.327238 79.616909 
L 37.716114 78.3051 
L 38.092602 76.993291 
L 38.459225 75.681482 
L 38.817926 74.369673 
L 39.170075 73.057864 
L 39.516534 71.746055 
L 39.857746 70.434246 
L 40.193839 69.122437 
L 40.524724 67.810628 
L 40.850167 66.498819 
L 41.169844 65.18701 
L 41.483362 63.875201 
L 41.79026 62.563392 
L 42.089993 61.251583 
L 42.381912 59.939774 
L 42.665247 58.627965 
L 42.939111 57.316156 
L 43.202523 56.004347 
L 43.454454 54.692538 
L 43.693896 53.380729 
L 43.919943 52.06892 
L 44.13188 50.757111 
L 44.32926 49.445302 
L 44.511966 48.133493 
L 44.680235 46.821684 
L 44.834663 45.509875 
L 44.976161 44.198065 
L 45.105889 42.886256 
L 45.225163 41.574447 
L 45.335353 40.262638 
L 47.610101 40.262638 
L 47.610101 40.262638 
L 47.720291 41.574447 
L 47.839565 42.886256 
L 47.969293 44.198065 
L 48.110791 45.509875 
L 48.265219 46.821684 
L 48.433489 48.133493 
L 48.616194 49.445302 
L 48.813575 50.757111 
L 49.025512 52.06892 
L 49.251559 53.380729 
L 49.491 54.692538 
L 49.742931 56.004347 
L 50.006343 57.316156 
L 50.280208 58.627965 
L 50.563543 59.939774 
L 50.855461 61.251583 
L 51.155195 62.563392 
L 51.462093 63.875201 
L 51.775611 65.18701 
L 52.095288 66.498819 
L 52.42073 67.810628 
L 52.751615 69.122437 
L 53.087709 70.434246 
L 53.428921 71.746055 
L 53.77538 73.057864 
L 54.127529 74.369673 
L 54.48623 75.681482 
L 54.852853 76.993291 
L 55.229341 78.3051 
L 55.618216 79.616909 
L 56.022527 80.928718 
L 56.445698 82.240527 
L 56.891308 83.552336 
L 57.362774 84.864145 
L 57.862964 86.175954 
L 58.393782 87.487763 
L 58.955726 88.799572 
L 59.547502 90.111381 
L 60.165708 91.42319 
L 60.804647 92.734999 
L 61.456306 94.046808 
L 62.110514 95.358617 
L 62.7553 96.670426 
L 63.377422 97.982235 
L 63.963053 99.294044 
L 64.49856 100.605853 
L 64.971316 101.917662 
L 65.370476 103.229471 
L 65.687651 104.54128 
L 65.917403 105.853089 
L 66.057529 107.164898 
L 66.109091 108.476707 
L 66.076206 109.788516 
L 65.965605 111.100325 
L 65.786017 112.412134 
L 65.547435 113.723943 
L 65.260347 115.035752 
L 64.935005 116.347561 
L 64.580799 117.65937 
L 64.205799 118.971179 
L 63.816492 120.282988 
L 63.417713 121.594797 
L 63.012769 122.906606 
L 62.603696 124.218415 
L 62.191604 125.530224 
L 61.77704 126.842033 
L 61.360317 128.153842 
L 60.941751 129.465651 
L 60.521776 130.77746 
L 60.100945 132.089269 
L 59.679813 133.401078 
L 59.258745 134.712887 
L 58.837705 136.024696 
L 58.416067 137.336505 
L 57.992505 138.648314 
L 57.564991 139.960123 
L 57.130927 141.271932 
L 56.687402 142.583741 
L 56.231543 143.89555 
L 55.760931 145.207359 
L 55.274011 146.519168 
L 54.770452 147.830977 
L 54.251401 149.142786 
L 53.719596 150.454595 
L 53.179308 151.766404 
L 52.636134 153.078213 
L 52.096639 154.390022 
L 51.567908 155.701831 
L 51.057041 157.01364 
L 50.570654 158.325449 
L 50.114437 159.637258 
L 49.692804 160.949067 
L 49.30868 162.260876 
L 48.963414 163.572685 
L 48.656835 164.884494 
L 48.387422 166.196303 
L 48.152563 167.508112 
L 47.948869 168.819921 
L 47.772505 170.13173 
L 47.772505 170.13173 
z
" clip-path="url(#p57cb6945ba)" style="fill: none; stroke: #000000; stroke-opacity: 0.3"/>
   </g>
   <g id="FillBetweenPolyCollection_2">
    <path d="M 48.826759 165.148641 
L 44.118696 165.148641 
L 43.890751 163.920369 
L 43.662303 162.692097 
L 43.435285 161.463826 
L 43.211302 160.235554 
L 42.991566 159.007282 
L 42.776859 157.77901 
L 42.567513 156.550738 
L 42.363418 155.322467 
L 42.164038 154.094195 
L 41.968425 152.865923 
L 41.775227 151.637651 
L 41.582681 150.40938 
L 41.388587 149.181108 
L 41.190258 147.952836 
L 40.98447 146.724564 
L 40.767407 145.496293 
L 40.534631 144.268021 
L 40.281093 143.039749 
L 40.001215 141.811477 
L 39.689042 140.583205 
L 39.33849 139.354934 
L 38.943688 138.126662 
L 38.499398 136.89839 
L 38.001482 135.670118 
L 37.447397 134.441847 
L 36.836661 133.213575 
L 36.171242 131.985303 
L 35.455823 130.757031 
L 34.697909 129.528759 
L 33.907736 128.300488 
L 33.097974 127.072216 
L 32.283237 125.843944 
L 31.479416 124.615672 
L 30.702883 123.387401 
L 29.96962 122.159129 
L 29.29435 120.930857 
L 28.689719 119.702585 
L 28.165609 118.474314 
L 27.728627 117.246042 
L 27.381819 116.01777 
L 27.124617 114.789498 
L 26.953032 113.561226 
L 26.860075 112.332955 
L 26.836364 111.104683 
L 26.870872 109.876411 
L 26.951762 108.648139 
L 27.067229 107.419868 
L 27.206299 106.191596 
L 27.359514 104.963324 
L 27.519462 103.735052 
L 27.681115 102.50678 
L 27.841946 101.278509 
L 28.001845 100.050237 
L 28.162837 98.821965 
L 28.328647 97.593693 
L 28.504142 96.365422 
L 28.694731 95.13715 
L 28.905749 93.908878 
L 29.141903 92.680606 
L 29.406812 91.452334 
L 29.702668 90.224063 
L 30.030059 88.995791 
L 30.387932 87.767519 
L 30.773703 86.539247 
L 31.183484 85.310976 
L 31.612409 84.082704 
L 32.055006 82.854432 
L 32.505602 81.62616 
L 32.95871 80.397889 
L 33.409382 79.169617 
L 33.853502 77.941345 
L 34.288001 76.713073 
L 34.710993 75.484801 
L 35.121816 74.25653 
L 35.520997 73.028258 
L 35.910135 71.799986 
L 36.291708 70.571714 
L 36.66884 69.343443 
L 37.04501 68.115171 
L 37.423751 66.886899 
L 37.808341 65.658627 
L 38.201514 64.430355 
L 38.605207 63.202084 
L 39.020374 61.973812 
L 39.446859 60.74554 
L 39.883368 59.517268 
L 40.327517 58.288997 
L 40.775972 57.060725 
L 41.224652 55.832453 
L 41.668994 54.604181 
L 42.104243 53.375909 
L 42.525746 52.147638 
L 42.929228 50.919366 
L 43.311022 49.691094 
L 43.668234 48.462822 
L 43.998847 47.234551 
L 44.301744 46.006279 
L 44.576664 44.778007 
L 44.824107 43.549735 
L 48.121347 43.549735 
L 48.121347 43.549735 
L 48.368791 44.778007 
L 48.643711 46.006279 
L 48.946608 47.234551 
L 49.277221 48.462822 
L 49.634433 49.691094 
L 50.016226 50.919366 
L 50.419708 52.147638 
L 50.841212 53.375909 
L 51.27646 54.604181 
L 51.720803 55.832453 
L 52.169483 57.060725 
L 52.617937 58.288997 
L 53.062086 59.517268 
L 53.498595 60.74554 
L 53.925081 61.973812 
L 54.340247 63.202084 
L 54.743941 64.430355 
L 55.137114 65.658627 
L 55.521704 66.886899 
L 55.900445 68.115171 
L 56.276615 69.343443 
L 56.653746 70.571714 
L 57.03532 71.799986 
L 57.424457 73.028258 
L 57.823639 74.25653 
L 58.234462 75.484801 
L 58.657453 76.713073 
L 59.091953 77.941345 
L 59.536073 79.169617 
L 59.986745 80.397889 
L 60.439853 81.62616 
L 60.890449 82.854432 
L 61.333046 84.082704 
L 61.761971 85.310976 
L 62.171752 86.539247 
L 62.557522 87.767519 
L 62.915395 88.995791 
L 63.242787 90.224063 
L 63.538643 91.452334 
L 63.803551 92.680606 
L 64.039706 93.908878 
L 64.250724 95.13715 
L 64.441312 96.365422 
L 64.616808 97.593693 
L 64.782617 98.821965 
L 64.94361 100.050237 
L 65.103509 101.278509 
L 65.264339 102.50678 
L 65.425992 103.735052 
L 65.585941 104.963324 
L 65.739156 106.191596 
L 65.878225 107.419868 
L 65.993693 108.648139 
L 66.074583 109.876411 
L 66.109091 111.104683 
L 66.085379 112.332955 
L 65.992422 113.561226 
L 65.820838 114.789498 
L 65.563635 116.01777 
L 65.216828 117.246042 
L 64.779846 118.474314 
L 64.255736 119.702585 
L 63.651104 120.930857 
L 62.975835 122.159129 
L 62.242572 123.387401 
L 61.466038 124.615672 
L 60.662217 125.843944 
L 59.847481 127.072216 
L 59.037719 128.300488 
L 58.247545 129.528759 
L 57.489631 130.757031 
L 56.774213 131.985303 
L 56.108793 133.213575 
L 55.498057 134.441847 
L 54.943973 135.670118 
L 54.446056 136.89839 
L 54.001766 138.126662 
L 53.606965 139.354934 
L 53.256413 140.583205 
L 52.944239 141.811477 
L 52.664361 143.039749 
L 52.410824 144.268021 
L 52.178047 145.496293 
L 51.960984 146.724564 
L 51.755196 147.952836 
L 51.556868 149.181108 
L 51.362773 150.40938 
L 51.170228 151.637651 
L 50.97703 152.865923 
L 50.781417 154.094195 
L 50.582037 155.322467 
L 50.377942 156.550738 
L 50.168596 157.77901 
L 49.953888 159.007282 
L 49.734153 160.235554 
L 49.51017 161.463826 
L 49.283152 162.692097 
L 49.054703 163.920369 
L 48.826759 165.148641 
L 48.826759 165.148641 
z
" clip-path="url(#p57cb6945ba)" style="fill: none; stroke: #000000; stroke-opacity: 0.3"/>
   </g>
   <g id="FillBetweenPolyCollection_3">
    <path d="M 51.342291 162.872379 
L 41.603164 162.872379 
L 41.371397 161.937628 
L 41.139381 161.002878 
L 40.906383 160.068127 
L 40.671491 159.133377 
L 40.433659 158.198626 
L 40.191743 157.263876 
L 39.944557 156.329126 
L 39.690916 155.394375 
L 39.429687 154.459625 
L 39.159828 153.524874 
L 38.88043 152.590124 
L 38.590747 151.655373 
L 38.290217 150.720623 
L 37.978479 149.785873 
L 37.655381 148.851122 
L 37.320975 147.916372 
L 36.97551 146.981621 
L 36.61942 146.046871 
L 36.253306 145.112121 
L 35.877908 144.17737 
L 35.494093 143.24262 
L 35.102822 142.307869 
L 34.705139 141.373119 
L 34.302142 140.438368 
L 33.894976 139.503618 
L 33.484818 138.568868 
L 33.072871 137.634117 
L 32.660362 136.699367 
L 32.248546 135.764616 
L 31.838711 134.829866 
L 31.432193 133.895115 
L 31.030385 132.960365 
L 30.634763 132.025615 
L 30.246896 131.090864 
L 29.868472 130.156114 
L 29.501312 129.221363 
L 29.147387 128.286613 
L 28.80883 127.351862 
L 28.487939 126.417112 
L 28.187176 125.482362 
L 27.909154 124.547611 
L 27.656617 123.612861 
L 27.432407 122.67811 
L 27.239421 121.74336 
L 27.080558 120.808609 
L 26.958656 119.873859 
L 26.876424 118.939109 
L 26.836364 118.004358 
L 26.840694 117.069608 
L 26.891276 116.134857 
L 26.989538 115.200107 
L 27.136415 114.265356 
L 27.332295 113.330606 
L 27.576978 112.395856 
L 27.869658 111.461105 
L 28.208915 110.526355 
L 28.592728 109.591604 
L 29.018513 108.656854 
L 29.48316 107.722104 
L 29.983107 106.787353 
L 30.514409 105.852603 
L 31.07282 104.917852 
L 31.653886 103.983102 
L 32.253028 103.048351 
L 32.865635 102.113601 
L 33.48714 101.178851 
L 34.113098 100.2441 
L 34.739241 99.30935 
L 35.36154 98.374599 
L 35.976236 97.439849 
L 36.579872 96.505098 
L 37.16931 95.570348 
L 37.741741 94.635598 
L 38.294683 93.700847 
L 38.825984 92.766097 
L 39.333808 91.831346 
L 39.816632 90.896596 
L 40.273236 89.961845 
L 40.702696 89.027095 
L 41.104378 88.092345 
L 41.477935 87.157594 
L 41.823305 86.222844 
L 42.140708 85.288093 
L 42.430642 84.353343 
L 42.693877 83.418592 
L 42.931451 82.483842 
L 43.144649 81.549092 
L 43.334993 80.614341 
L 43.50421 79.679591 
L 43.654206 78.74484 
L 43.787026 77.81009 
L 43.904814 76.875339 
L 44.009764 75.940589 
L 44.104075 75.005839 
L 44.189897 74.071088 
L 44.26929 73.136338 
L 44.344169 72.201587 
L 44.416272 71.266837 
L 44.487123 70.332086 
L 48.458332 70.332086 
L 48.458332 70.332086 
L 48.529182 71.266837 
L 48.601285 72.201587 
L 48.676165 73.136338 
L 48.755557 74.071088 
L 48.84138 75.005839 
L 48.935691 75.940589 
L 49.040641 76.875339 
L 49.158428 77.81009 
L 49.291248 78.74484 
L 49.441245 79.679591 
L 49.610462 80.614341 
L 49.800806 81.549092 
L 50.014004 82.483842 
L 50.251577 83.418592 
L 50.514812 84.353343 
L 50.804746 85.288093 
L 51.122149 86.222844 
L 51.46752 87.157594 
L 51.841077 88.092345 
L 52.242759 89.027095 
L 52.672218 89.961845 
L 53.128822 90.896596 
L 53.611646 91.831346 
L 54.119471 92.766097 
L 54.650771 93.700847 
L 55.203714 94.635598 
L 55.776144 95.570348 
L 56.365582 96.505098 
L 56.969218 97.439849 
L 57.583914 98.374599 
L 58.206213 99.30935 
L 58.832357 100.2441 
L 59.458314 101.178851 
L 60.07982 102.113601 
L 60.692427 103.048351 
L 61.291569 103.983102 
L 61.872634 104.917852 
L 62.431046 105.852603 
L 62.962347 106.787353 
L 63.462295 107.722104 
L 63.926942 108.656854 
L 64.352726 109.591604 
L 64.73654 110.526355 
L 65.075797 111.461105 
L 65.368477 112.395856 
L 65.61316 113.330606 
L 65.809039 114.265356 
L 65.955917 115.200107 
L 66.054179 116.134857 
L 66.10476 117.069608 
L 66.109091 118.004358 
L 66.06903 118.939109 
L 65.986798 119.873859 
L 65.864897 120.808609 
L 65.706034 121.74336 
L 65.513048 122.67811 
L 65.288838 123.612861 
L 65.036301 124.547611 
L 64.758279 125.482362 
L 64.457515 126.417112 
L 64.136625 127.351862 
L 63.798068 128.286613 
L 63.444143 129.221363 
L 63.076983 130.156114 
L 62.698558 131.090864 
L 62.310692 132.025615 
L 61.915069 132.960365 
L 61.513262 133.895115 
L 61.106743 134.829866 
L 60.696908 135.764616 
L 60.285092 136.699367 
L 59.872584 137.634117 
L 59.460637 138.568868 
L 59.050479 139.503618 
L 58.643313 140.438368 
L 58.240316 141.373119 
L 57.842632 142.307869 
L 57.451362 143.24262 
L 57.067546 144.17737 
L 56.692149 145.112121 
L 56.326034 146.046871 
L 55.969945 146.981621 
L 55.62448 147.916372 
L 55.290073 148.851122 
L 54.966975 149.785873 
L 54.655238 150.720623 
L 54.354708 151.655373 
L 54.065024 152.590124 
L 53.785626 153.524874 
L 53.515768 154.459625 
L 53.254538 155.394375 
L 53.000898 156.329126 
L 52.753712 157.263876 
L 52.511796 158.198626 
L 52.273963 159.133377 
L 52.039072 160.068127 
L 51.806074 161.002878 
L 51.574058 161.937628 
L 51.342291 162.872379 
L 51.342291 162.872379 
z
" clip-path="url(#p57cb6945ba)" style="fill: none; stroke: #000000; stroke-opacity: 0.3"/>
   </g>
   <g id="FillBetweenPolyCollection_4">
    <path d="M 48.248837 161.247057 
L 44.696618 161.247057 
L 44.444512 160.16689 
L 44.16935 159.086723 
L 43.871294 158.006556 
L 43.550955 156.926389 
L 43.209412 155.846222 
L 42.848187 154.766055 
L 42.469198 153.685888 
L 42.074683 152.605721 
L 41.667105 151.525554 
L 41.249039 150.445387 
L 40.82306 149.36522 
L 40.391648 148.285053 
L 39.957101 147.204887 
L 39.521478 146.12472 
L 39.086569 145.044553 
L 38.653896 143.964386 
L 38.224725 142.884219 
L 37.800101 141.804052 
L 37.380883 140.723885 
L 36.96778 139.643718 
L 36.56138 138.563551 
L 36.162165 137.483384 
L 35.770528 136.403217 
L 35.386778 135.32305 
L 35.011153 134.242883 
L 34.643843 133.162716 
L 34.28502 132.082549 
L 33.934886 131.002383 
L 33.593718 129.922216 
L 33.261921 128.842049 
L 32.940061 127.761882 
L 32.628867 126.681715 
L 32.3292 125.601548 
L 32.041971 124.521381 
L 31.768015 123.441214 
L 31.507926 122.361047 
L 31.261872 121.28088 
L 31.029407 120.200713 
L 30.809327 119.120546 
L 30.599573 118.040379 
L 30.397244 116.960212 
L 30.198703 115.880045 
L 29.999813 114.799879 
L 29.796278 113.719712 
L 29.584082 112.639545 
L 29.359975 111.559378 
L 29.121962 110.479211 
L 28.869747 109.399044 
L 28.605061 108.318877 
L 28.331833 107.23871 
L 28.056173 106.158543 
L 27.786132 105.078376 
L 27.531257 103.998209 
L 27.301972 102.918042 
L 27.108819 101.837875 
L 26.961641 100.757708 
L 26.86878 99.677541 
L 26.836364 98.597375 
L 26.867767 97.517208 
L 26.96329 96.437041 
L 27.120105 95.356874 
L 27.332475 94.276707 
L 27.592224 93.19654 
L 27.889429 92.116373 
L 28.213255 91.036206 
L 28.552859 89.956039 
L 28.898282 88.875872 
L 29.241233 87.795705 
L 29.575696 86.715538 
L 29.898309 85.635371 
L 30.208477 84.555204 
L 30.508216 83.475037 
L 30.801762 82.394871 
L 31.094969 81.314704 
L 31.394594 80.234537 
L 31.707517 79.15437 
L 32.039999 78.074203 
L 32.397042 76.994036 
L 32.781906 75.913869 
L 33.195844 74.833702 
L 33.638042 73.753535 
L 34.105783 72.673368 
L 34.594782 71.593201 
L 35.099663 70.513034 
L 35.614497 69.432867 
L 36.133355 68.3527 
L 36.650809 67.272533 
L 37.162329 66.192367 
L 37.664541 65.1122 
L 38.155337 64.032033 
L 38.633833 62.951866 
L 39.100195 61.871699 
L 39.555363 60.791532 
L 40.000723 59.711365 
L 40.437754 58.631198 
L 40.867708 57.551031 
L 41.291344 56.470864 
L 41.708752 55.390697 
L 42.119263 54.31053 
L 50.826191 54.31053 
L 50.826191 54.31053 
L 51.236702 55.390697 
L 51.65411 56.470864 
L 52.077747 57.551031 
L 52.5077 58.631198 
L 52.944731 59.711365 
L 53.390091 60.791532 
L 53.84526 61.871699 
L 54.311622 62.951866 
L 54.790118 64.032033 
L 55.280914 65.1122 
L 55.783125 66.192367 
L 56.294645 67.272533 
L 56.8121 68.3527 
L 57.330958 69.432867 
L 57.845791 70.513034 
L 58.350672 71.593201 
L 58.839672 72.673368 
L 59.307413 73.753535 
L 59.749611 74.833702 
L 60.163549 75.913869 
L 60.548413 76.994036 
L 60.905455 78.074203 
L 61.237938 79.15437 
L 61.550861 80.234537 
L 61.850485 81.314704 
L 62.143693 82.394871 
L 62.437238 83.475037 
L 62.736978 84.555204 
L 63.047145 85.635371 
L 63.369758 86.715538 
L 63.704221 87.795705 
L 64.047172 88.875872 
L 64.392596 89.956039 
L 64.7322 91.036206 
L 65.056025 92.116373 
L 65.353231 93.19654 
L 65.61298 94.276707 
L 65.825349 95.356874 
L 65.982165 96.437041 
L 66.077688 97.517208 
L 66.109091 98.597375 
L 66.076675 99.677541 
L 65.983814 100.757708 
L 65.836636 101.837875 
L 65.643483 102.918042 
L 65.414198 103.998209 
L 65.159323 105.078376 
L 64.889281 106.158543 
L 64.613621 107.23871 
L 64.340394 108.318877 
L 64.075707 109.399044 
L 63.823492 110.479211 
L 63.58548 111.559378 
L 63.361372 112.639545 
L 63.149177 113.719712 
L 62.945642 114.799879 
L 62.746751 115.880045 
L 62.54821 116.960212 
L 62.345881 118.040379 
L 62.136128 119.120546 
L 61.916047 120.200713 
L 61.683583 121.28088 
L 61.437528 122.361047 
L 61.17744 123.441214 
L 60.903484 124.521381 
L 60.616255 125.601548 
L 60.316587 126.681715 
L 60.005393 127.761882 
L 59.683533 128.842049 
L 59.351737 129.922216 
L 59.010569 131.002383 
L 58.660434 132.082549 
L 58.301612 133.162716 
L 57.934302 134.242883 
L 57.558677 135.32305 
L 57.174926 136.403217 
L 56.783289 137.483384 
L 56.384075 138.563551 
L 55.977675 139.643718 
L 55.564572 140.723885 
L 55.145354 141.804052 
L 54.720729 142.884219 
L 54.291558 143.964386 
L 53.858885 145.044553 
L 53.423977 146.12472 
L 52.988354 147.204887 
L 52.553806 148.285053 
L 52.122395 149.36522 
L 51.696416 150.445387 
L 51.278349 151.525554 
L 50.870771 152.605721 
L 50.476257 153.685888 
L 50.097268 154.766055 
L 49.736042 155.846222 
L 49.394499 156.926389 
L 49.074161 158.006556 
L 48.776104 159.086723 
L 48.500943 160.16689 
L 48.248837 161.247057 
L 48.248837 161.247057 
z
" clip-path="url(#p57cb6945ba)" style="fill: none; stroke: #000000; stroke-opacity: 0.3"/>
   </g>
   <g id="FillBetweenPolyCollection_5">
    <path d="M 53.804448 145.2748 
L 39.141006 145.2748 
L 38.677365 144.575551 
L 38.203695 143.876301 
L 37.721357 143.177052 
L 37.23181 142.477803 
L 36.736611 141.778553 
L 36.237399 141.079304 
L 35.735884 140.380055 
L 35.233834 139.680805 
L 34.733059 138.981556 
L 34.235392 138.282307 
L 33.742675 137.583057 
L 33.256739 136.883808 
L 32.779385 136.184559 
L 32.312367 135.485309 
L 31.857374 134.78606 
L 31.416012 134.086811 
L 30.989791 133.387561 
L 30.580107 132.688312 
L 30.188237 131.989063 
L 29.815323 131.289813 
L 29.462369 130.590564 
L 29.130239 129.891315 
L 28.819648 129.192065 
L 28.531172 128.492816 
L 28.265244 127.793567 
L 28.022167 127.094317 
L 27.802113 126.395068 
L 27.605141 125.695819 
L 27.431199 124.996569 
L 27.280144 124.29732 
L 27.151746 123.598071 
L 27.045701 122.898821 
L 26.961645 122.199572 
L 26.899161 121.500323 
L 26.857788 120.801073 
L 26.837031 120.101824 
L 26.836364 119.402575 
L 26.855235 118.703325 
L 26.893071 118.004076 
L 26.949276 117.304827 
L 27.023236 116.605577 
L 27.11431 115.906328 
L 27.221837 115.207079 
L 27.345128 114.507829 
L 27.483466 113.80858 
L 27.636103 113.109331 
L 27.80226 112.410081 
L 27.981123 111.710832 
L 28.171852 111.011583 
L 28.373573 110.312333 
L 28.585392 109.613084 
L 28.806394 108.913835 
L 29.035654 108.214586 
L 29.272247 107.515336 
L 29.515254 106.816087 
L 29.763781 106.116838 
L 30.016964 105.417588 
L 30.273985 104.718339 
L 30.534084 104.01909 
L 30.796571 103.31984 
L 31.060834 102.620591 
L 31.326348 101.921342 
L 31.592682 101.222092 
L 31.859502 100.522843 
L 32.126574 99.823594 
L 32.393756 99.124344 
L 32.661002 98.425095 
L 32.928348 97.725846 
L 33.195903 97.026596 
L 33.463839 96.327347 
L 33.732375 95.628098 
L 34.001765 94.928848 
L 34.272278 94.229599 
L 34.544185 93.53035 
L 34.817744 92.8311 
L 35.093183 92.131851 
L 35.37069 91.432602 
L 35.650402 90.733352 
L 35.932395 90.034103 
L 36.21668 89.334854 
L 36.503199 88.635604 
L 36.791823 87.936355 
L 37.082356 87.237106 
L 37.374537 86.537856 
L 37.668048 85.838607 
L 37.962518 85.139358 
L 38.257536 84.440108 
L 38.552655 83.740859 
L 38.847405 83.04161 
L 39.1413 82.34236 
L 39.433848 81.643111 
L 39.724556 80.943862 
L 40.012937 80.244612 
L 40.298518 79.545363 
L 40.580839 78.846114 
L 40.859458 78.146864 
L 41.133954 77.447615 
L 41.403922 76.748366 
L 41.668977 76.049116 
L 51.276478 76.049116 
L 51.276478 76.049116 
L 51.541533 76.748366 
L 51.811501 77.447615 
L 52.085996 78.146864 
L 52.364616 78.846114 
L 52.646937 79.545363 
L 52.932518 80.244612 
L 53.220899 80.943862 
L 53.511607 81.643111 
L 53.804154 82.34236 
L 54.09805 83.04161 
L 54.3928 83.740859 
L 54.687919 84.440108 
L 54.982936 85.139358 
L 55.277407 85.838607 
L 55.570918 86.537856 
L 55.863099 87.237106 
L 56.153632 87.936355 
L 56.442256 88.635604 
L 56.728775 89.334854 
L 57.01306 90.034103 
L 57.295053 90.733352 
L 57.574765 91.432602 
L 57.852272 92.131851 
L 58.127711 92.8311 
L 58.401269 93.53035 
L 58.673176 94.229599 
L 58.943689 94.928848 
L 59.213079 95.628098 
L 59.481616 96.327347 
L 59.749552 97.026596 
L 60.017107 97.725846 
L 60.284452 98.425095 
L 60.551698 99.124344 
L 60.818881 99.823594 
L 61.085952 100.522843 
L 61.352773 101.222092 
L 61.619107 101.921342 
L 61.884621 102.620591 
L 62.148883 103.31984 
L 62.41137 104.01909 
L 62.67147 104.718339 
L 62.928491 105.417588 
L 63.181673 106.116838 
L 63.4302 106.816087 
L 63.673208 107.515336 
L 63.9098 108.214586 
L 64.139061 108.913835 
L 64.360063 109.613084 
L 64.571881 110.312333 
L 64.773603 111.011583 
L 64.964331 111.710832 
L 65.143195 112.410081 
L 65.309351 113.109331 
L 65.461988 113.80858 
L 65.600326 114.507829 
L 65.723617 115.207079 
L 65.831144 115.906328 
L 65.922219 116.605577 
L 65.996178 117.304827 
L 66.052384 118.004076 
L 66.09022 118.703325 
L 66.109091 119.402575 
L 66.108424 120.101824 
L 66.087667 120.801073 
L 66.046294 121.500323 
L 65.98381 122.199572 
L 65.899754 122.898821 
L 65.793709 123.598071 
L 65.66531 124.29732 
L 65.514255 124.996569 
L 65.340314 125.695819 
L 65.143341 126.395068 
L 64.923288 127.094317 
L 64.68021 127.793567 
L 64.414283 128.492816 
L 64.125807 129.192065 
L 63.815216 129.891315 
L 63.483085 130.590564 
L 63.130132 131.289813 
L 62.757218 131.989063 
L 62.365347 132.688312 
L 61.955664 133.387561 
L 61.529442 134.086811 
L 61.088081 134.78606 
L 60.633088 135.485309 
L 60.16607 136.184559 
L 59.688716 136.883808 
L 59.20278 137.583057 
L 58.710063 138.282307 
L 58.212396 138.981556 
L 57.71162 139.680805 
L 57.20957 140.380055 
L 56.708056 141.079304 
L 56.208844 141.778553 
L 55.713645 142.477803 
L 55.224098 143.177052 
L 54.741759 143.876301 
L 54.26809 144.575551 
L 53.804448 145.2748 
L 53.804448 145.2748 
z
" clip-path="url(#p57cb6945ba)" style="fill: none; stroke: #000000; stroke-opacity: 0.3"/>
   </g>
   <g id="FillBetweenPolyCollection_6">
    <path d="M 55.987662 147.987965 
L 36.957793 147.987965 
L 36.07841 146.726086 
L 35.195464 145.464206 
L 34.31857 144.202327 
L 33.457329 142.940447 
L 32.621075 141.678568 
L 31.818654 140.416688 
L 31.058235 139.154809 
L 30.347152 137.892929 
L 29.691791 136.631049 
L 29.097515 135.36917 
L 28.568621 134.10729 
L 28.108328 132.845411 
L 27.718787 131.583531 
L 27.4011 130.321652 
L 27.15536 129.059772 
L 26.980682 127.797893 
L 26.875251 126.536013 
L 26.836364 125.274134 
L 26.860492 124.012254 
L 26.943353 122.750375 
L 27.079995 121.488495 
L 27.264922 120.226616 
L 27.492231 118.964736 
L 27.755784 117.702857 
L 28.049404 116.440977 
L 28.367091 115.179098 
L 28.70324 113.917218 
L 29.05286 112.655338 
L 29.411772 111.393459 
L 29.776775 110.131579 
L 30.145766 108.8697 
L 30.517794 107.60782 
L 30.893062 106.345941 
L 31.272847 105.084061 
L 31.659358 103.822182 
L 32.055528 102.560302 
L 32.464766 101.298423 
L 32.89066 100.036543 
L 33.336674 98.774664 
L 33.805841 97.512784 
L 34.300486 96.250905 
L 34.821984 94.989025 
L 35.370577 93.727146 
L 35.945263 92.465266 
L 36.543758 91.203386 
L 37.162541 89.941507 
L 37.796964 88.679627 
L 38.441443 87.417748 
L 39.089686 86.155868 
L 39.734968 84.893989 
L 40.370423 83.632109 
L 40.989329 82.37023 
L 41.585383 81.10835 
L 42.152938 79.846471 
L 42.687199 78.584591 
L 43.184355 77.322712 
L 43.641661 76.060832 
L 44.057462 74.798953 
L 44.43116 73.537073 
L 44.763133 72.275194 
L 45.054622 71.013314 
L 45.307585 69.751435 
L 45.524543 68.489555 
L 45.708415 67.227675 
L 45.862363 65.965796 
L 45.989641 64.703916 
L 46.093473 63.442037 
L 46.17694 62.180157 
L 46.242903 60.918278 
L 46.293937 59.656398 
L 46.332291 58.394519 
L 46.359873 57.132639 
L 46.378241 55.87076 
L 46.388617 54.60888 
L 46.391907 53.347001 
L 46.388735 52.085121 
L 46.379478 50.823242 
L 46.364315 49.561362 
L 46.343273 48.299483 
L 46.316281 47.037603 
L 46.283224 45.775723 
L 46.244002 44.513844 
L 46.198585 43.251964 
L 46.147066 41.990085 
L 46.089707 40.728205 
L 46.026985 39.466326 
L 45.959617 38.204446 
L 45.888575 36.942567 
L 45.815091 35.680687 
L 45.740632 34.418808 
L 45.666871 33.156928 
L 45.595626 31.895049 
L 45.528799 30.633169 
L 45.468287 29.37129 
L 45.4159 28.10941 
L 45.373273 26.847531 
L 45.341775 25.585651 
L 45.322445 24.323772 
L 45.315929 23.061892 
L 47.629526 23.061892 
L 47.629526 23.061892 
L 47.623009 24.323772 
L 47.603679 25.585651 
L 47.572182 26.847531 
L 47.529554 28.10941 
L 47.477168 29.37129 
L 47.416656 30.633169 
L 47.349828 31.895049 
L 47.278584 33.156928 
L 47.204822 34.418808 
L 47.130364 35.680687 
L 47.05688 36.942567 
L 46.985838 38.204446 
L 46.918469 39.466326 
L 46.855747 40.728205 
L 46.798389 41.990085 
L 46.746869 43.251964 
L 46.701452 44.513844 
L 46.662231 45.775723 
L 46.629174 47.037603 
L 46.602181 48.299483 
L 46.581139 49.561362 
L 46.565977 50.823242 
L 46.55672 52.085121 
L 46.553547 53.347001 
L 46.556837 54.60888 
L 46.567213 55.87076 
L 46.585581 57.132639 
L 46.613163 58.394519 
L 46.651518 59.656398 
L 46.702551 60.918278 
L 46.768514 62.180157 
L 46.851982 63.442037 
L 46.955813 64.703916 
L 47.083091 65.965796 
L 47.237039 67.227675 
L 47.420912 68.489555 
L 47.63787 69.751435 
L 47.890833 71.013314 
L 48.182321 72.275194 
L 48.514294 73.537073 
L 48.887992 74.798953 
L 49.303794 76.060832 
L 49.7611 77.322712 
L 50.258255 78.584591 
L 50.792516 79.846471 
L 51.360072 81.10835 
L 51.956126 82.37023 
L 52.575031 83.632109 
L 53.210486 84.893989 
L 53.855769 86.155868 
L 54.504012 87.417748 
L 55.148491 88.679627 
L 55.782914 89.941507 
L 56.401696 91.203386 
L 57.000191 92.465266 
L 57.574877 93.727146 
L 58.12347 94.989025 
L 58.644968 96.250905 
L 59.139614 97.512784 
L 59.608781 98.774664 
L 60.054794 100.036543 
L 60.480688 101.298423 
L 60.889926 102.560302 
L 61.286097 103.822182 
L 61.672607 105.084061 
L 62.052392 106.345941 
L 62.427661 107.60782 
L 62.799689 108.8697 
L 63.168679 110.131579 
L 63.533683 111.393459 
L 63.892594 112.655338 
L 64.242214 113.917218 
L 64.578363 115.179098 
L 64.89605 116.440977 
L 65.189671 117.702857 
L 65.453224 118.964736 
L 65.680532 120.226616 
L 65.865459 121.488495 
L 66.002102 122.750375 
L 66.084962 124.012254 
L 66.109091 125.274134 
L 66.070204 126.536013 
L 65.964772 127.797893 
L 65.790095 129.059772 
L 65.544355 130.321652 
L 65.226668 131.583531 
L 64.837126 132.845411 
L 64.376833 134.10729 
L 63.847939 135.36917 
L 63.253663 136.631049 
L 62.598302 137.892929 
L 61.887219 139.154809 
L 61.1268 140.416688 
L 60.32438 141.678568 
L 59.488125 142.940447 
L 58.626884 144.202327 
L 57.749991 145.464206 
L 56.867045 146.726086 
L 55.987662 147.987965 
L 55.987662 147.987965 
z
" clip-path="url(#p57cb6945ba)" style="fill: none; stroke: #000000; stroke-opacity: 0.3"/>
   </g>
   <g id="FillBetweenPolyCollection_7">
    <path d="M 56.958322 143.801584 
L 35.987133 143.801584 
L 35.389281 143.084216 
L 34.791001 142.366848 
L 34.195172 141.64948 
L 33.604731 140.932111 
L 33.022654 140.214743 
L 32.451929 139.497375 
L 31.895521 138.780006 
L 31.356353 138.062638 
L 30.837268 137.34527 
L 30.341001 136.627901 
L 29.87015 135.910533 
L 29.427146 135.193165 
L 29.014221 134.475797 
L 28.633388 133.758428 
L 28.28641 133.04106 
L 27.974783 132.323692 
L 27.699719 131.606323 
L 27.462132 130.888955 
L 27.262629 130.171587 
L 27.101511 129.454218 
L 26.978772 128.73685 
L 26.894107 128.019482 
L 26.846925 127.302114 
L 26.836364 126.584745 
L 26.86131 125.867377 
L 26.920423 125.150009 
L 27.012162 124.43264 
L 27.134807 123.715272 
L 27.286492 122.997904 
L 27.465227 122.280535 
L 27.668927 121.563167 
L 27.895437 120.845799 
L 28.14255 120.128431 
L 28.408035 119.411062 
L 28.689647 118.693694 
L 28.985154 117.976326 
L 29.29234 117.258957 
L 29.60903 116.541589 
L 29.933092 115.824221 
L 30.262457 115.106852 
L 30.595126 114.389484 
L 30.929181 113.672116 
L 31.262799 112.954748 
L 31.594265 112.237379 
L 31.92198 111.520011 
L 32.244477 110.802643 
L 32.560435 110.085274 
L 32.868686 109.367906 
L 33.168228 108.650538 
L 33.458237 107.933169 
L 33.73807 107.215801 
L 34.00727 106.498433 
L 34.265568 105.781064 
L 34.51288 105.063696 
L 34.749301 104.346328 
L 34.975095 103.62896 
L 35.190682 102.911591 
L 35.396618 102.194223 
L 35.593578 101.476855 
L 35.782334 100.759486 
L 35.96373 100.042118 
L 36.138656 99.32475 
L 36.308026 98.607381 
L 36.472755 97.890013 
L 36.633731 97.172645 
L 36.791802 96.455277 
L 36.947754 95.737908 
L 37.102301 95.02054 
L 37.256074 94.303172 
L 37.409611 93.585803 
L 37.563363 92.868435 
L 37.717687 92.151067 
L 37.872856 91.433698 
L 38.029067 90.71633 
L 38.186448 89.998962 
L 38.345075 89.281594 
L 38.504978 88.564225 
L 38.666163 87.846857 
L 38.828618 87.129489 
L 38.992331 86.41212 
L 39.157298 85.694752 
L 39.323529 84.977384 
L 39.491062 84.260015 
L 39.659957 83.542647 
L 39.830305 82.825279 
L 40.002221 82.107911 
L 40.175841 81.390542 
L 40.351312 80.673174 
L 40.528788 79.955806 
L 40.708412 79.238437 
L 40.89031 78.521069 
L 41.074576 77.803701 
L 41.261258 77.086332 
L 41.45035 76.368964 
L 41.64178 75.651596 
L 41.8354 74.934228 
L 42.030986 74.216859 
L 42.228227 73.499491 
L 42.42673 72.782123 
L 50.518724 72.782123 
L 50.518724 72.782123 
L 50.717228 73.499491 
L 50.914469 74.216859 
L 51.110054 74.934228 
L 51.303675 75.651596 
L 51.495104 76.368964 
L 51.684197 77.086332 
L 51.870879 77.803701 
L 52.055145 78.521069 
L 52.237043 79.238437 
L 52.416667 79.955806 
L 52.594142 80.673174 
L 52.769614 81.390542 
L 52.943233 82.107911 
L 53.115149 82.825279 
L 53.285497 83.542647 
L 53.454393 84.260015 
L 53.621925 84.977384 
L 53.788157 85.694752 
L 53.953123 86.41212 
L 54.116836 87.129489 
L 54.279292 87.846857 
L 54.440477 88.564225 
L 54.60038 89.281594 
L 54.759006 89.998962 
L 54.916388 90.71633 
L 55.072599 91.433698 
L 55.227768 92.151067 
L 55.382092 92.868435 
L 55.535843 93.585803 
L 55.689381 94.303172 
L 55.843153 95.02054 
L 55.997701 95.737908 
L 56.153653 96.455277 
L 56.311724 97.172645 
L 56.4727 97.890013 
L 56.637428 98.607381 
L 56.806799 99.32475 
L 56.981725 100.042118 
L 57.16312 100.759486 
L 57.351877 101.476855 
L 57.548837 102.194223 
L 57.754773 102.911591 
L 57.970359 103.62896 
L 58.196154 104.346328 
L 58.432575 105.063696 
L 58.679887 105.781064 
L 58.938185 106.498433 
L 59.207384 107.215801 
L 59.487217 107.933169 
L 59.777226 108.650538 
L 60.076769 109.367906 
L 60.385019 110.085274 
L 60.700977 110.802643 
L 61.023475 111.520011 
L 61.35119 112.237379 
L 61.682655 112.954748 
L 62.016274 113.672116 
L 62.350329 114.389484 
L 62.682997 115.106852 
L 63.012362 115.824221 
L 63.336425 116.541589 
L 63.653114 117.258957 
L 63.960301 117.976326 
L 64.255807 118.693694 
L 64.53742 119.411062 
L 64.802904 120.128431 
L 65.050018 120.845799 
L 65.276527 121.563167 
L 65.480228 122.280535 
L 65.658963 122.997904 
L 65.810647 123.715272 
L 65.933293 124.43264 
L 66.025031 125.150009 
L 66.084145 125.867377 
L 66.109091 126.584745 
L 66.098529 127.302114 
L 66.051347 128.019482 
L 65.966682 128.73685 
L 65.843944 129.454218 
L 65.682826 130.171587 
L 65.483323 130.888955 
L 65.245735 131.606323 
L 64.970671 132.323692 
L 64.659045 133.04106 
L 64.312066 133.758428 
L 63.931233 134.475797 
L 63.518309 135.193165 
L 63.075304 135.910533 
L 62.604454 136.627901 
L 62.108187 137.34527 
L 61.589101 138.062638 
L 61.049933 138.780006 
L 60.493526 139.497375 
L 59.9228 140.214743 
L 59.340724 140.932111 
L 58.750283 141.64948 
L 58.154453 142.366848 
L 57.556174 143.084216 
L 56.958322 143.801584 
L 56.958322 143.801584 
z
" clip-path="url(#p57cb6945ba)" style="fill: none; stroke: #000000; stroke-opacity: 0.3"/>
   </g>
   <g id="FillBetweenPolyCollection_8">
    <path d="M 115.350352 182.518719 
L 108.504193 182.518719 
L 107.879191 180.52623 
L 107.179282 178.533741 
L 106.404939 176.541252 
L 105.558977 174.548764 
L 104.646779 172.556275 
L 103.676424 170.563786 
L 102.658667 168.571297 
L 101.606778 166.578808 
L 100.536224 164.586319 
L 99.464207 162.59383 
L 98.409083 160.601341 
L 97.389683 158.608852 
L 96.424584 156.616363 
L 95.531382 154.623875 
L 94.725988 152.631386 
L 94.022026 150.638897 
L 93.430335 148.646408 
L 92.958628 146.653919 
L 92.611307 144.66143 
L 92.389443 142.668941 
L 92.290909 140.676452 
L 92.310645 138.683963 
L 92.441031 136.691474 
L 92.67233 134.698986 
L 92.993172 132.706497 
L 93.391043 130.714008 
L 93.852754 128.721519 
L 94.364869 126.72903 
L 94.914073 124.736541 
L 95.487471 122.744052 
L 96.072834 120.751563 
L 96.658763 118.759074 
L 97.234817 116.766586 
L 97.791588 114.774097 
L 98.320752 112.781608 
L 98.815094 110.789119 
L 99.268532 108.79663 
L 99.676134 106.804141 
L 100.034137 104.811652 
L 100.339973 102.819163 
L 100.592285 100.826674 
L 100.790944 98.834185 
L 100.937035 96.841697 
L 101.032832 94.849208 
L 101.081725 92.856719 
L 101.088113 90.86423 
L 101.057253 88.871741 
L 100.995071 86.879252 
L 100.90794 84.886763 
L 100.802445 82.894274 
L 100.68515 80.901785 
L 100.562377 78.909297 
L 100.440032 76.916808 
L 100.323471 74.924319 
L 100.217438 72.93183 
L 100.126057 70.939341 
L 100.052882 68.946852 
L 100.000993 66.954363 
L 99.973117 64.961874 
L 99.97175 62.969385 
L 99.999269 60.976896 
L 100.057996 58.984408 
L 100.150221 56.991919 
L 100.278155 54.99943 
L 100.443827 53.006941 
L 100.648934 51.014452 
L 100.894648 49.021963 
L 101.181414 47.029474 
L 101.508763 45.036985 
L 101.875156 43.044496 
L 102.277894 41.052007 
L 102.713097 39.059519 
L 103.17578 37.06703 
L 103.660008 35.074541 
L 104.159128 33.082052 
L 104.666062 31.089563 
L 105.173638 29.097074 
L 105.674921 27.104585 
L 106.163533 25.112096 
L 106.633915 23.119607 
L 107.081527 21.127119 
L 107.502967 19.13463 
L 107.896007 17.142141 
L 108.259545 15.149652 
L 108.593492 13.157163 
L 108.898611 11.164674 
L 109.176319 9.172185 
L 109.428494 7.179696 
L 109.657274 5.187207 
L 109.864899 3.194718 
L 110.053576 1.20223 
L 110.225384 -0.790259 
L 110.241893 -1 
M 113.612653 -1 
L 113.629162 -0.790259 
L 113.800969 1.20223 
L 113.989646 3.194718 
L 114.197272 5.187207 
L 114.426052 7.179696 
L 114.678226 9.172185 
L 114.955935 11.164674 
L 115.261054 13.157163 
L 115.595001 15.149652 
L 115.958539 17.142141 
L 116.351579 19.13463 
L 116.773019 21.127119 
L 117.22063 23.119607 
L 117.691012 25.112096 
L 118.179624 27.104585 
L 118.680908 29.097074 
L 119.188483 31.089563 
L 119.695417 33.082052 
L 120.194537 35.074541 
L 120.678765 37.06703 
L 121.141449 39.059519 
L 121.576652 41.052007 
L 121.979389 43.044496 
L 122.345782 45.036985 
L 122.673132 47.029474 
L 122.959898 49.021963 
L 123.205611 51.014452 
L 123.410718 53.006941 
L 123.576391 54.99943 
L 123.704324 56.991919 
L 123.796549 58.984408 
L 123.855277 60.976896 
L 123.882795 62.969385 
L 123.881429 64.961874 
L 123.853552 66.954363 
L 123.801664 68.946852 
L 123.728489 70.939341 
L 123.637108 72.93183 
L 123.531075 74.924319 
L 123.414514 76.916808 
L 123.292168 78.909297 
L 123.169395 80.901785 
L 123.0521 82.894274 
L 122.946606 84.886763 
L 122.859475 86.879252 
L 122.797293 88.871741 
L 122.766433 90.86423 
L 122.772821 92.856719 
L 122.821713 94.849208 
L 122.91751 96.841697 
L 123.063602 98.834185 
L 123.26226 100.826674 
L 123.514573 102.819163 
L 123.820409 104.811652 
L 124.178412 106.804141 
L 124.586013 108.79663 
L 125.039451 110.789119 
L 125.533793 112.781608 
L 126.062957 114.774097 
L 126.619729 116.766586 
L 127.195783 118.759074 
L 127.781712 120.751563 
L 128.367074 122.744052 
L 128.940473 124.736541 
L 129.489676 126.72903 
L 130.001791 128.721519 
L 130.463503 130.714008 
L 130.861373 132.706497 
L 131.182215 134.698986 
L 131.413514 136.691474 
L 131.5439 138.683963 
L 131.563636 140.676452 
L 131.465102 142.668941 
L 131.243239 144.66143 
L 130.895918 146.653919 
L 130.424211 148.646408 
L 129.83252 150.638897 
L 129.128557 152.631386 
L 128.323164 154.623875 
L 127.429961 156.616363 
L 126.464863 158.608852 
L 125.445462 160.601341 
L 124.390338 162.59383 
L 123.318322 164.586319 
L 122.247767 166.578808 
L 121.195878 168.571297 
L 120.178122 170.563786 
L 119.207767 172.556275 
L 118.295569 174.548764 
L 117.449606 176.541252 
L 116.675264 178.533741 
L 115.975354 180.52623 
L 115.350352 182.518719 
L 115.350352 182.518719 
" clip-path="url(#p57cb6945ba)" style="fill: none; stroke: #000000; stroke-opacity: 0.3"/>
   </g>
   <g id="FillBetweenPolyCollection_9">
    <path d="M 121.299764 151.550672 
L 102.554782 151.550672 
L 102.186478 150.282848 
L 101.824199 149.015024 
L 101.468649 147.7472 
L 101.120384 146.479376 
L 100.779806 145.211552 
L 100.447158 143.943728 
L 100.122534 142.675904 
L 99.805881 141.40808 
L 99.49701 140.140256 
L 99.19561 138.872432 
L 98.901265 137.604608 
L 98.613474 136.336784 
L 98.331671 135.06896 
L 98.055251 133.801136 
L 97.78359 132.533312 
L 97.516074 131.265488 
L 97.252119 129.997664 
L 96.991199 128.72984 
L 96.732864 127.462016 
L 96.476764 126.194192 
L 96.222661 124.926368 
L 95.970451 123.658544 
L 95.720169 122.39072 
L 95.471999 121.122896 
L 95.22628 119.855072 
L 94.983502 118.587248 
L 94.74431 117.319424 
L 94.509488 116.0516 
L 94.279954 114.783776 
L 94.056748 113.515952 
L 93.841011 112.248128 
L 93.633967 110.980304 
L 93.436906 109.71248 
L 93.251156 108.444656 
L 93.078065 107.176832 
L 92.918974 105.909008 
L 92.775191 104.641184 
L 92.647975 103.37336 
L 92.538505 102.105536 
L 92.447866 100.837712 
L 92.377025 99.569888 
L 92.326818 98.302064 
L 92.297936 97.03424 
L 92.290909 95.766416 
L 92.306106 94.498592 
L 92.343723 93.230768 
L 92.403785 91.962944 
L 92.48615 90.69512 
L 92.590508 89.427296 
L 92.716395 88.159472 
L 92.863199 86.891648 
L 93.030177 85.623824 
L 93.216468 84.356 
L 93.42111 83.088176 
L 93.643059 81.820352 
L 93.881206 80.552528 
L 94.134397 79.284704 
L 94.401449 78.01688 
L 94.681172 76.749056 
L 94.97238 75.481232 
L 95.273907 74.213408 
L 95.584621 72.945584 
L 95.903433 71.67776 
L 96.229305 70.409936 
L 96.561256 69.142112 
L 96.898361 67.874288 
L 97.23976 66.606464 
L 97.584647 65.33864 
L 97.932276 64.070816 
L 98.281949 62.802992 
L 98.633016 61.535168 
L 98.984868 60.267344 
L 99.336928 58.99952 
L 99.688649 57.731696 
L 100.039505 56.463872 
L 100.388991 55.196048 
L 100.736614 53.928224 
L 101.081896 52.6604 
L 101.42437 51.392576 
L 101.763583 50.124752 
L 102.099095 48.856928 
L 102.430485 47.589104 
L 102.75735 46.32128 
L 103.079316 45.053456 
L 103.396038 43.785632 
L 103.707205 42.517808 
L 104.012545 41.249984 
L 104.311829 39.98216 
L 104.604874 38.714336 
L 104.891542 37.446512 
L 105.171745 36.178688 
L 105.445438 34.910864 
L 105.712623 33.64304 
L 105.973339 32.375216 
L 106.227663 31.107392 
L 106.475698 29.839568 
L 106.717573 28.571744 
L 106.953428 27.30392 
L 107.183413 26.036096 
L 116.671132 26.036096 
L 116.671132 26.036096 
L 116.901118 27.30392 
L 117.136973 28.571744 
L 117.378847 29.839568 
L 117.626882 31.107392 
L 117.881206 32.375216 
L 118.141922 33.64304 
L 118.409107 34.910864 
L 118.682801 36.178688 
L 118.963003 37.446512 
L 119.249672 38.714336 
L 119.542717 39.98216 
L 119.842001 41.249984 
L 120.147341 42.517808 
L 120.458507 43.785632 
L 120.775229 45.053456 
L 121.097195 46.32128 
L 121.424061 47.589104 
L 121.75545 48.856928 
L 122.090962 50.124752 
L 122.430175 51.392576 
L 122.77265 52.6604 
L 123.117932 53.928224 
L 123.465555 55.196048 
L 123.81504 56.463872 
L 124.165897 57.731696 
L 124.517617 58.99952 
L 124.869678 60.267344 
L 125.221529 61.535168 
L 125.572597 62.802992 
L 125.92227 64.070816 
L 126.269898 65.33864 
L 126.614786 66.606464 
L 126.956184 67.874288 
L 127.29329 69.142112 
L 127.62524 70.409936 
L 127.951112 71.67776 
L 128.269925 72.945584 
L 128.580639 74.213408 
L 128.882166 75.481232 
L 129.173373 76.749056 
L 129.453096 78.01688 
L 129.720149 79.284704 
L 129.973339 80.552528 
L 130.211486 81.820352 
L 130.433436 83.088176 
L 130.638078 84.356 
L 130.824369 85.623824 
L 130.991347 86.891648 
L 131.138151 88.159472 
L 131.264037 89.427296 
L 131.368396 90.69512 
L 131.45076 91.962944 
L 131.510823 93.230768 
L 131.54844 94.498592 
L 131.563636 95.766416 
L 131.55661 97.03424 
L 131.527727 98.302064 
L 131.47752 99.569888 
L 131.406679 100.837712 
L 131.31604 102.105536 
L 131.20657 103.37336 
L 131.079354 104.641184 
L 130.935572 105.909008 
L 130.77648 107.176832 
L 130.603389 108.444656 
L 130.41764 109.71248 
L 130.220578 110.980304 
L 130.013535 112.248128 
L 129.797797 113.515952 
L 129.574591 114.783776 
L 129.345058 116.0516 
L 129.110236 117.319424 
L 128.871043 118.587248 
L 128.628266 119.855072 
L 128.382546 121.122896 
L 128.134376 122.39072 
L 127.884094 123.658544 
L 127.631884 124.926368 
L 127.377782 126.194192 
L 127.121681 127.462016 
L 126.863347 128.72984 
L 126.602426 129.997664 
L 126.338472 131.265488 
L 126.070955 132.533312 
L 125.799294 133.801136 
L 125.522874 135.06896 
L 125.241072 136.336784 
L 124.953281 137.604608 
L 124.658936 138.872432 
L 124.357536 140.140256 
L 124.048664 141.40808 
L 123.732011 142.675904 
L 123.407387 143.943728 
L 123.07474 145.211552 
L 122.734161 146.479376 
L 122.385896 147.7472 
L 122.030347 149.015024 
L 121.668067 150.282848 
L 121.299764 151.550672 
L 121.299764 151.550672 
z
" clip-path="url(#p57cb6945ba)" style="fill: none; stroke: #000000; stroke-opacity: 0.3"/>
   </g>
   <g id="FillBetweenPolyCollection_10">
    <path d="M 129.056958 160.247569 
L 94.797587 160.247569 
L 94.372255 158.290884 
L 93.981832 156.334199 
L 93.628485 154.377513 
L 93.314078 152.420828 
L 93.040157 150.464143 
L 92.807937 148.507458 
L 92.618291 146.550773 
L 92.471747 144.594088 
L 92.368491 142.637403 
L 92.308371 140.680718 
L 92.290909 138.724033 
L 92.315319 136.767348 
L 92.38052 134.810663 
L 92.485167 132.853978 
L 92.627669 130.897293 
L 92.80622 128.940608 
L 93.018831 126.983922 
L 93.263353 125.027237 
L 93.537516 123.070552 
L 93.83895 121.113867 
L 94.165223 119.157182 
L 94.513863 117.200497 
L 94.882387 115.243812 
L 95.268326 113.287127 
L 95.669244 111.330442 
L 96.082759 109.373757 
L 96.506562 107.417072 
L 96.938427 105.460387 
L 97.376225 103.503702 
L 97.817933 101.547017 
L 98.26164 99.590331 
L 98.705551 97.633646 
L 99.147992 95.676961 
L 99.587405 93.720276 
L 100.022355 91.763591 
L 100.451521 89.806906 
L 100.873697 87.850221 
L 101.287788 85.893536 
L 101.692805 83.936851 
L 102.087861 81.980166 
L 102.472167 80.023481 
L 102.845026 78.066796 
L 103.205833 76.110111 
L 103.554064 74.153426 
L 103.889281 72.19674 
L 104.211121 70.240055 
L 104.519297 68.28337 
L 104.813594 66.326685 
L 105.093869 64.37 
L 105.360045 62.413315 
L 105.612109 60.45663 
L 105.850114 58.499945 
L 106.074172 56.54326 
L 106.284454 54.586575 
L 106.481189 52.62989 
L 106.664657 50.673205 
L 106.835191 48.71652 
L 106.993169 46.759835 
L 107.139015 44.803149 
L 107.273191 42.846464 
L 107.396195 40.889779 
L 107.508557 38.933094 
L 107.610835 36.976409 
L 107.703605 35.019724 
L 107.787463 33.063039 
L 107.863017 31.106354 
L 107.930882 29.149669 
L 107.991675 27.192984 
L 108.046014 25.236299 
L 108.09451 23.279614 
L 108.137764 21.322929 
L 108.176366 19.366243 
L 108.210891 17.409558 
L 108.241898 15.452873 
L 108.269924 13.496188 
L 108.295488 11.539503 
L 108.319088 9.582818 
L 108.341199 7.626133 
L 108.362276 5.669448 
L 108.38275 3.712763 
L 108.403035 1.756078 
L 108.423521 -0.200607 
L 108.432124 -1 
M 115.422421 -1 
L 115.431024 -0.200607 
L 115.45151 1.756078 
L 115.471795 3.712763 
L 115.49227 5.669448 
L 115.513346 7.626133 
L 115.535457 9.582818 
L 115.559057 11.539503 
L 115.584621 13.496188 
L 115.612648 15.452873 
L 115.643654 17.409558 
L 115.67818 19.366243 
L 115.716782 21.322929 
L 115.760036 23.279614 
L 115.808531 25.236299 
L 115.86287 27.192984 
L 115.923664 29.149669 
L 115.991529 31.106354 
L 116.067083 33.063039 
L 116.150941 35.019724 
L 116.243711 36.976409 
L 116.345988 38.933094 
L 116.458351 40.889779 
L 116.581355 42.846464 
L 116.715531 44.803149 
L 116.861376 46.759835 
L 117.019354 48.71652 
L 117.189888 50.673205 
L 117.373356 52.62989 
L 117.570091 54.586575 
L 117.780374 56.54326 
L 118.004432 58.499945 
L 118.242436 60.45663 
L 118.494501 62.413315 
L 118.760676 64.37 
L 119.040951 66.326685 
L 119.335249 68.28337 
L 119.643425 70.240055 
L 119.965265 72.19674 
L 120.300481 74.153426 
L 120.648713 76.110111 
L 121.009519 78.066796 
L 121.382379 80.023481 
L 121.766684 81.980166 
L 122.16174 83.936851 
L 122.566757 85.893536 
L 122.980848 87.850221 
L 123.403025 89.806906 
L 123.83219 91.763591 
L 124.26714 93.720276 
L 124.706554 95.676961 
L 125.148994 97.633646 
L 125.592906 99.590331 
L 126.036613 101.547017 
L 126.478321 103.503702 
L 126.916119 105.460387 
L 127.347984 107.417072 
L 127.771786 109.373757 
L 128.185302 111.330442 
L 128.58622 113.287127 
L 128.972158 115.243812 
L 129.340683 117.200497 
L 129.689323 119.157182 
L 130.015596 121.113867 
L 130.31703 123.070552 
L 130.591192 125.027237 
L 130.835715 126.983922 
L 131.048325 128.940608 
L 131.226877 130.897293 
L 131.369379 132.853978 
L 131.474025 134.810663 
L 131.539227 136.767348 
L 131.563636 138.724033 
L 131.546175 140.680718 
L 131.486055 142.637403 
L 131.382799 144.594088 
L 131.236255 146.550773 
L 131.046609 148.507458 
L 130.814388 150.464143 
L 130.540467 152.420828 
L 130.22606 154.377513 
L 129.872713 156.334199 
L 129.482291 158.290884 
L 129.056958 160.247569 
L 129.056958 160.247569 
" clip-path="url(#p57cb6945ba)" style="fill: none; stroke: #000000; stroke-opacity: 0.3"/>
   </g>
   <g id="FillBetweenPolyCollection_11">
    <path d="M 120.192984 133.697232 
L 103.661561 133.697232 
L 103.177117 132.54114 
L 102.683416 131.385048 
L 102.182055 130.228957 
L 101.674778 129.072865 
L 101.163467 127.916773 
L 100.650121 126.760682 
L 100.13684 125.60459 
L 99.625796 124.448498 
L 99.119211 123.292407 
L 98.619323 122.136315 
L 98.128357 120.980223 
L 97.648488 119.824132 
L 97.181812 118.66804 
L 96.730312 117.511948 
L 96.295826 116.355857 
L 95.880021 115.199765 
L 95.484373 114.043673 
L 95.110141 112.887582 
L 94.758363 111.73149 
L 94.429843 110.575398 
L 94.125155 109.419307 
L 93.844653 108.263215 
L 93.588478 107.107123 
L 93.356586 105.951032 
L 93.148768 104.79494 
L 92.964686 103.638848 
L 92.803905 102.482757 
L 92.665928 101.326665 
L 92.550238 100.170573 
L 92.456333 99.014482 
L 92.383761 97.85839 
L 92.332151 96.702298 
L 92.301244 95.546207 
L 92.290909 94.390115 
L 92.301161 93.234024 
L 92.332166 92.077932 
L 92.384238 90.92184 
L 92.457837 89.765749 
L 92.55354 88.609657 
L 92.67203 87.453565 
L 92.814055 86.297474 
L 92.980397 85.141382 
L 93.171831 83.98529 
L 93.389079 82.829199 
L 93.632773 81.673107 
L 93.903401 80.517015 
L 94.201273 79.360924 
L 94.526482 78.204832 
L 94.878863 77.04874 
L 95.257974 75.892649 
L 95.663069 74.736557 
L 96.093088 73.580465 
L 96.546647 72.424374 
L 97.022045 71.268282 
L 97.517275 70.11219 
L 98.030039 68.956099 
L 98.557778 67.800007 
L 99.097702 66.643915 
L 99.646828 65.487824 
L 100.202027 64.331732 
L 100.760064 63.17564 
L 101.317651 62.019549 
L 101.871494 60.863457 
L 102.418343 59.707365 
L 102.955038 58.551274 
L 103.478557 57.395182 
L 103.986057 56.23909 
L 104.474912 55.082999 
L 104.942747 53.926907 
L 105.387464 52.770815 
L 105.80727 51.614724 
L 106.200689 50.458632 
L 106.566579 49.30254 
L 106.904133 48.146449 
L 107.212884 46.990357 
L 107.492697 45.834265 
L 107.743762 44.678174 
L 107.966581 43.522082 
L 108.161949 42.36599 
L 108.33093 41.209899 
L 108.474838 40.053807 
L 108.595209 38.897715 
L 108.693766 37.741624 
L 108.772397 36.585532 
L 108.833117 35.42944 
L 108.878038 34.273349 
L 108.909335 33.117257 
L 108.929214 31.961165 
L 108.939882 30.805074 
L 108.943511 29.648982 
L 108.942216 28.49289 
L 108.93802 27.336799 
L 108.932834 26.180707 
L 108.928432 25.024615 
L 108.926433 23.868524 
L 108.928282 22.712432 
L 108.935239 21.55634 
L 108.948367 20.400249 
L 108.96853 19.244157 
L 114.886016 19.244157 
L 114.886016 19.244157 
L 114.906178 20.400249 
L 114.919307 21.55634 
L 114.926263 22.712432 
L 114.928112 23.868524 
L 114.926113 25.024615 
L 114.921712 26.180707 
L 114.916525 27.336799 
L 114.912329 28.49289 
L 114.911034 29.648982 
L 114.914664 30.805074 
L 114.925331 31.961165 
L 114.945211 33.117257 
L 114.976508 34.273349 
L 115.021428 35.42944 
L 115.082148 36.585532 
L 115.160779 37.741624 
L 115.259337 38.897715 
L 115.379707 40.053807 
L 115.523616 41.209899 
L 115.692597 42.36599 
L 115.887964 43.522082 
L 116.110783 44.678174 
L 116.361849 45.834265 
L 116.641662 46.990357 
L 116.950412 48.146449 
L 117.287966 49.30254 
L 117.653856 50.458632 
L 118.047276 51.614724 
L 118.467082 52.770815 
L 118.911799 53.926907 
L 119.379633 55.082999 
L 119.868488 56.23909 
L 120.375988 57.395182 
L 120.899508 58.551274 
L 121.436203 59.707365 
L 121.983051 60.863457 
L 122.536894 62.019549 
L 123.094481 63.17564 
L 123.652519 64.331732 
L 124.207717 65.487824 
L 124.756844 66.643915 
L 125.296767 67.800007 
L 125.824506 68.956099 
L 126.33727 70.11219 
L 126.8325 71.268282 
L 127.307899 72.424374 
L 127.761458 73.580465 
L 128.191476 74.736557 
L 128.596571 75.892649 
L 128.975683 77.04874 
L 129.328064 78.204832 
L 129.653272 79.360924 
L 129.951145 80.517015 
L 130.221773 81.673107 
L 130.465466 82.829199 
L 130.682715 83.98529 
L 130.874148 85.141382 
L 131.04049 86.297474 
L 131.182515 87.453565 
L 131.301005 88.609657 
L 131.396709 89.765749 
L 131.470307 90.92184 
L 131.52238 92.077932 
L 131.553384 93.234024 
L 131.563636 94.390115 
L 131.553302 95.546207 
L 131.522394 96.702298 
L 131.470785 97.85839 
L 131.398212 99.014482 
L 131.304307 100.170573 
L 131.188617 101.326665 
L 131.050641 102.482757 
L 130.889859 103.638848 
L 130.705777 104.79494 
L 130.49796 105.951032 
L 130.266067 107.107123 
L 130.009892 108.263215 
L 129.72939 109.419307 
L 129.424703 110.575398 
L 129.096183 111.73149 
L 128.744404 112.887582 
L 128.370172 114.043673 
L 127.974524 115.199765 
L 127.55872 116.355857 
L 127.124234 117.511948 
L 126.672733 118.66804 
L 126.206058 119.824132 
L 125.726189 120.980223 
L 125.235222 122.136315 
L 124.735334 123.292407 
L 124.228749 124.448498 
L 123.717706 125.60459 
L 123.204424 126.760682 
L 122.691078 127.916773 
L 122.179767 129.072865 
L 121.672491 130.228957 
L 121.171129 131.385048 
L 120.677428 132.54114 
L 120.192984 133.697232 
L 120.192984 133.697232 
z
" clip-path="url(#p57cb6945ba)" style="fill: none; stroke: #000000; stroke-opacity: 0.3"/>
   </g>
   <g id="FillBetweenPolyCollection_12">
    <path d="M 119.997096 169.420856 
L 103.85745 169.420856 
L 103.093384 167.754867 
L 102.318448 166.088878 
L 101.539388 164.422889 
L 100.762902 162.7569 
L 99.995472 161.090911 
L 99.243212 159.424922 
L 98.511754 157.758934 
L 97.806172 156.092945 
L 97.13094 154.426956 
L 96.489941 152.760967 
L 95.886493 151.094978 
L 95.323415 149.428989 
L 94.803101 147.763 
L 94.327599 146.097011 
L 93.89869 144.431022 
L 93.517941 142.765033 
L 93.186743 141.099044 
L 92.906317 139.433056 
L 92.677685 137.767067 
L 92.501618 136.101078 
L 92.378552 134.435089 
L 92.308493 132.7691 
L 92.290909 131.103111 
L 92.324633 129.437122 
L 92.407771 127.771133 
L 92.537648 126.105144 
L 92.710779 124.439155 
L 92.922894 122.773167 
L 93.169 121.107178 
L 93.443493 119.441189 
L 93.740323 117.7752 
L 94.05318 116.109211 
L 94.375723 114.443222 
L 94.701819 112.777233 
L 95.025776 111.111244 
L 95.342578 109.445255 
L 95.648072 107.779266 
L 95.939133 106.113277 
L 96.213756 104.447289 
L 96.471106 102.7813 
L 96.711485 101.115311 
L 96.936242 99.449322 
L 97.147628 97.783333 
L 97.348585 96.117344 
L 97.542512 94.451355 
L 97.732996 92.785366 
L 97.92355 91.119377 
L 98.117354 89.453388 
L 98.317037 87.787399 
L 98.524503 86.121411 
L 98.740819 84.455422 
L 98.966162 82.789433 
L 99.199849 81.123444 
L 99.440419 79.457455 
L 99.685784 77.791466 
L 99.933416 76.125477 
L 100.180566 74.459488 
L 100.424496 72.793499 
L 100.662701 71.12751 
L 100.8931 69.461522 
L 101.1142 67.795533 
L 101.325203 66.129544 
L 101.526052 64.463555 
L 101.717434 62.797566 
L 101.900715 61.131577 
L 102.077841 59.465588 
L 102.251196 57.799599 
L 102.423438 56.13361 
L 102.597332 54.467621 
L 102.775576 52.801632 
L 102.960651 51.135644 
L 103.154684 49.469655 
L 103.35935 47.803666 
L 103.575801 46.137677 
L 103.804633 44.471688 
L 104.045881 42.805699 
L 104.299051 41.13971 
L 104.563169 39.473721 
L 104.836853 37.807732 
L 105.1184 36.141743 
L 105.405877 34.475755 
L 105.697218 32.809766 
L 105.990316 31.143777 
L 106.283109 29.477788 
L 106.573657 27.811799 
L 106.860202 26.14581 
L 107.14122 24.479821 
L 107.415448 22.813832 
L 107.681906 21.147843 
L 107.939888 19.481854 
L 108.188955 17.815865 
L 108.428905 16.149877 
L 108.659731 14.483888 
L 108.881584 12.817899 
L 109.094716 11.15191 
L 109.299435 9.485921 
L 109.496062 7.819932 
L 109.684885 6.153943 
L 109.866128 4.487954 
L 113.988417 4.487954 
L 113.988417 4.487954 
L 114.169661 6.153943 
L 114.358483 7.819932 
L 114.55511 9.485921 
L 114.75983 11.15191 
L 114.972961 12.817899 
L 115.194814 14.483888 
L 115.425641 16.149877 
L 115.66559 17.815865 
L 115.914658 19.481854 
L 116.17264 21.147843 
L 116.439097 22.813832 
L 116.713326 24.479821 
L 116.994343 26.14581 
L 117.280889 27.811799 
L 117.571437 29.477788 
L 117.86423 31.143777 
L 118.157328 32.809766 
L 118.448669 34.475755 
L 118.736146 36.141743 
L 119.017693 37.807732 
L 119.291377 39.473721 
L 119.555494 41.13971 
L 119.808665 42.805699 
L 120.049913 44.471688 
L 120.278744 46.137677 
L 120.495195 47.803666 
L 120.699861 49.469655 
L 120.893894 51.135644 
L 121.078969 52.801632 
L 121.257214 54.467621 
L 121.431108 56.13361 
L 121.60335 57.799599 
L 121.776704 59.465588 
L 121.95383 61.131577 
L 122.137111 62.797566 
L 122.328493 64.463555 
L 122.529342 66.129544 
L 122.740345 67.795533 
L 122.961446 69.461522 
L 123.191845 71.12751 
L 123.430049 72.793499 
L 123.673979 74.459488 
L 123.92113 76.125477 
L 124.168761 77.791466 
L 124.414126 79.457455 
L 124.654697 81.123444 
L 124.888384 82.789433 
L 125.113727 84.455422 
L 125.330042 86.121411 
L 125.537509 87.787399 
L 125.737192 89.453388 
L 125.930995 91.119377 
L 126.121549 92.785366 
L 126.312034 94.451355 
L 126.505961 96.117344 
L 126.706918 97.783333 
L 126.918303 99.449322 
L 127.143061 101.115311 
L 127.383439 102.7813 
L 127.640789 104.447289 
L 127.915413 106.113277 
L 128.206473 107.779266 
L 128.511968 109.445255 
L 128.828769 111.111244 
L 129.152727 112.777233 
L 129.478822 114.443222 
L 129.801366 116.109211 
L 130.114223 117.7752 
L 130.411052 119.441189 
L 130.685546 121.107178 
L 130.931651 122.773167 
L 131.143766 124.439155 
L 131.316898 126.105144 
L 131.446774 127.771133 
L 131.529913 129.437122 
L 131.563636 131.103111 
L 131.546053 132.7691 
L 131.475994 134.435089 
L 131.352927 136.101078 
L 131.17686 137.767067 
L 130.948228 139.433056 
L 130.667802 141.099044 
L 130.336605 142.765033 
L 129.955855 144.431022 
L 129.526946 146.097011 
L 129.051445 147.763 
L 128.531131 149.428989 
L 127.968053 151.094978 
L 127.364605 152.760967 
L 126.723605 154.426956 
L 126.048374 156.092945 
L 125.342791 157.758934 
L 124.611334 159.424922 
L 123.859074 161.090911 
L 123.091644 162.7569 
L 122.315158 164.422889 
L 121.536097 166.088878 
L 120.761162 167.754867 
L 119.997096 169.420856 
L 119.997096 169.420856 
z
" clip-path="url(#p57cb6945ba)" style="fill: none; stroke: #000000; stroke-opacity: 0.3"/>
   </g>
   <g id="FillBetweenPolyCollection_13">
    <path d="M 114.97532 191.140023 
L 108.879226 191.140023 
L 108.296497 188.674236 
L 107.64264 186.208449 
L 106.918357 183.742661 
L 106.126495 181.276874 
L 105.272156 178.811087 
L 104.362682 176.345299 
L 103.407527 173.879512 
L 102.418026 171.413725 
L 101.407071 168.947937 
L 100.388719 166.48215 
L 99.377758 164.016363 
L 98.389245 161.550575 
L 97.438035 159.084788 
L 96.538318 156.619001 
L 95.703173 154.153213 
L 94.944162 151.687426 
L 94.270968 149.221639 
L 93.691123 146.755851 
L 93.209815 144.290064 
L 92.82982 141.824277 
L 92.551541 139.358489 
L 92.373165 136.892702 
L 92.290909 134.426915 
L 92.29933 131.961127 
L 92.391649 129.49534 
L 92.560063 127.029553 
L 92.795998 124.563765 
L 93.090299 122.097978 
L 93.433345 119.632191 
L 93.815102 117.166403 
L 94.225151 114.700616 
L 94.65273 112.234829 
L 95.086806 109.769041 
L 95.516231 107.303254 
L 95.92997 104.837467 
L 96.317418 102.371679 
L 96.668779 99.905892 
L 96.975487 97.440104 
L 97.23062 94.974317 
L 97.429293 92.50853 
L 97.568984 90.042742 
L 97.649783 87.576955 
L 97.674527 85.111168 
L 97.648833 82.64538 
L 97.580993 80.179593 
L 97.481744 77.713806 
L 97.363879 75.248018 
L 97.241728 72.782231 
L 97.130477 70.316444 
L 97.045388 67.850656 
L 97.000929 65.384869 
L 97.009891 62.919082 
L 97.08258 60.453294 
L 97.22615 57.987507 
L 97.444171 55.52172 
L 97.736505 53.055932 
L 98.099483 50.590145 
L 98.526413 48.124358 
L 99.008326 45.65857 
L 99.534884 43.192783 
L 100.095332 40.726996 
L 100.679367 38.261208 
L 101.277824 35.795421 
L 101.883107 33.329634 
L 102.489333 30.863846 
L 103.092213 28.398059 
L 103.688728 25.932272 
L 104.276682 23.466484 
L 104.854238 21.000697 
L 105.419508 18.53491 
L 105.970285 16.069122 
L 106.503925 13.603335 
L 107.017396 11.137548 
L 107.507451 8.67176 
L 107.970877 6.205973 
L 108.404762 3.740185 
L 108.806729 1.274398 
L 109.146495 -1 
M 114.70805 -1 
L 115.047816 1.274398 
L 115.449783 3.740185 
L 115.883669 6.205973 
L 116.347094 8.67176 
L 116.837149 11.137548 
L 117.35062 13.603335 
L 117.884261 16.069122 
L 118.435038 18.53491 
L 119.000308 21.000697 
L 119.577863 23.466484 
L 120.165818 25.932272 
L 120.762333 28.398059 
L 121.365212 30.863846 
L 121.971438 33.329634 
L 122.576721 35.795421 
L 123.175179 38.261208 
L 123.759214 40.726996 
L 124.319662 43.192783 
L 124.84622 45.65857 
L 125.328132 48.124358 
L 125.755063 50.590145 
L 126.118041 53.055932 
L 126.410374 55.52172 
L 126.628396 57.987507 
L 126.771965 60.453294 
L 126.844654 62.919082 
L 126.853617 65.384869 
L 126.809157 67.850656 
L 126.724068 70.316444 
L 126.612818 72.782231 
L 126.490666 75.248018 
L 126.372802 77.713806 
L 126.273552 80.179593 
L 126.205713 82.64538 
L 126.180018 85.111168 
L 126.204762 87.576955 
L 126.285561 90.042742 
L 126.425253 92.50853 
L 126.623925 94.974317 
L 126.879058 97.440104 
L 127.185766 99.905892 
L 127.537128 102.371679 
L 127.924575 104.837467 
L 128.338314 107.303254 
L 128.767739 109.769041 
L 129.201816 112.234829 
L 129.629395 114.700616 
L 130.039444 117.166403 
L 130.4212 119.632191 
L 130.764246 122.097978 
L 131.058548 124.563765 
L 131.294483 127.029553 
L 131.462896 129.49534 
L 131.555215 131.961127 
L 131.563636 134.426915 
L 131.481381 136.892702 
L 131.303004 139.358489 
L 131.024725 141.824277 
L 130.64473 144.290064 
L 130.163423 146.755851 
L 129.583577 149.221639 
L 128.910384 151.687426 
L 128.151372 154.153213 
L 127.316228 156.619001 
L 126.416511 159.084788 
L 125.465301 161.550575 
L 124.476787 164.016363 
L 123.465826 166.48215 
L 122.447474 168.947937 
L 121.43652 171.413725 
L 120.447019 173.879512 
L 119.491864 176.345299 
L 118.582389 178.811087 
L 117.72805 181.276874 
L 116.936189 183.742661 
L 116.211905 186.208449 
L 115.558048 188.674236 
L 114.97532 191.140023 
L 114.97532 191.140023 
" clip-path="url(#p57cb6945ba)" style="fill: none; stroke: #000000; stroke-opacity: 0.3"/>
   </g>
   <g id="matplotlib.axis_1"/>
   <g id="matplotlib.axis_2">
    <g id="ytick_1">
     <g id="line2d_1">
      <defs>
       <path id="m500dad3879" d="M 0 0 
L -3.5 0 
" style="stroke: #000000; stroke-width: 0.8"/>
      </defs>
      <g>
       <use xlink:href="#m500dad3879" x="21.6" y="291.6" style="stroke: #000000; stroke-width: 0.8"/>
      </g>
     </g>
     <g id="text_1">
      <text style="font-size: 10px; font-family: 'DejaVu Sans', 'Bitstream Vera Sans', 'Computer Modern Sans Serif', 'Lucida Grande', 'Verdana', 'Geneva', 'Lucid', 'Arial', 'Helvetica', 'Avant Garde', sans-serif; text-anchor: end" x="14.6" y="295.399219" transform="rotate(-0 14.6 295.399219)">0.1</text>
     </g>
    </g>
    <g id="ytick_2">
     <g id="line2d_2">
      <g>
       <use xlink:href="#m500dad3879" x="21.6" y="236.52" style="stroke: #000000; stroke-width: 0.8"/>
      </g>
     </g>
     <g id="text_2">
      <text style="font-size: 10px; font-family: 'DejaVu Sans', 'Bitstream Vera Sans', 'Computer Modern Sans Serif', 'Lucida Grande', 'Verdana', 'Geneva', 'Lucid', 'Arial', 'Helvetica', 'Avant Garde', sans-serif; text-anchor: end" x="14.6" y="240.319219" transform="rotate(-0 14.6 240.319219)">0.2</text>
     </g>
    </g>
    <g id="ytick_3">
     <g id="line2d_3">
      <g>
       <use xlink:href="#m500dad3879" x="21.6" y="181.44" style="stroke: #000000; stroke-width: 0.8"/>
      </g>
     </g>
     <g id="text_3">
      <text style="font-size: 10px; font-family: 'DejaVu Sans', 'Bitstream Vera Sans', 'Computer Modern Sans Serif', 'Lucida Grande', 'Verdana', 'Geneva', 'Lucid', 'Arial', 'Helvetica', 'Avant Garde', sans-serif; text-anchor: end" x="14.6" y="185.239219" transform="rotate(-0 14.6 185.239219)">0.3</text>
     </g>
    </g>
    <g id="ytick_4">
     <g id="line2d_4">
      <g>
       <use xlink:href="#m500dad3879" x="21.6" y="126.36" style="stroke: #000000; stroke-width: 0.8"/>
      </g>
     </g>
     <g id="text_4">
      <text style="font-size: 10px; font-family: 'DejaVu Sans', 'Bitstream Vera Sans', 'Computer Modern Sans Serif', 'Lucida Grande', 'Verdana', 'Geneva', 'Lucid', 'Arial', 'Helvetica', 'Avant Garde', sans-serif; text-anchor: end" x="14.6" y="130.159219" transform="rotate(-0 14.6 130.159219)">0.4</text>
     </g>
    </g>
    <g id="ytick_5">
     <g id="line2d_5">
      <g>
       <use xlink:href="#m500dad3879" x="21.6" y="71.28" style="stroke: #000000; stroke-width: 0.8"/>
      </g>
     </g>
     <g id="text_5">
      <text style="font-size: 10px; font-family: 'DejaVu Sans', 'Bitstream Vera Sans', 'Computer Modern Sans Serif', 'Lucida Grande', 'Verdana', 'Geneva', 'Lucid', 'Arial', 'Helvetica', 'Avant Garde', sans-serif; text-anchor: end" x="14.6" y="75.079219" transform="rotate(-0 14.6 75.079219)">0.5</text>
     </g>
    </g>
    <g id="ytick_6">
     <g id="line2d_6">
      <g>
       <use xlink:href="#m500dad3879" x="21.6" y="16.2" style="stroke: #000000; stroke-width: 0.8"/>
      </g>
     </g>
     <g id="text_6">
      <text style="font-size: 10px; font-family: 'DejaVu Sans', 'Bitstream Vera Sans', 'Computer Modern Sans Serif', 'Lucida Grande', 'Verdana', 'Geneva', 'Lucid', 'Arial', 'Helvetica', 'Avant Garde', sans-serif; text-anchor: end" x="14.6" y="19.999219" transform="rotate(-0 14.6 19.999219)">0.6</text>
     </g>
    </g>
    <g id="text_7">
     <!-- $E_{f}$ -->
     <g transform="translate(12.928437 160.27) rotate(-90)">
      <text>
       <tspan x="0" y="-0.796875" style="font-style: oblique; font-size: 14px; font-family: 'DejaVu Sans'">E</tspan>
       <tspan x="8.845703" y="1.5" style="font-style: oblique; font-size: 9.8px; font-family: 'DejaVu Sans'">f</tspan>
      </text>
     </g>
    </g>
   </g>
   <g id="line2d_7">
    <path d="M 46.472727 269.568 
L 46.472727 264.06 
" clip-path="url(#p57cb6945ba)" style="fill: none; stroke: #000000; stroke-linecap: square"/>
   </g>
   <g id="line2d_8">
    <path d="M 46.472727 269.568 
L 111.927273 269.568 
" clip-path="url(#p57cb6945ba)" style="fill: none; stroke: #000000; stroke-linecap: square"/>
   </g>
   <g id="line2d_9">
    <path d="M 111.927273 269.568 
L 111.927273 264.06 
" clip-path="url(#p57cb6945ba)" style="fill: none; stroke: #000000; stroke-linecap: square"/>
   </g>
   <g id="patch_3">
    <path d="M 21.6 291.6 
L 21.6 16.2 
" style="fill: none; stroke: #000000; stroke-width: 0.8; stroke-linejoin: miter; stroke-linecap: square"/>
   </g>
   <g id="patch_4">
    <path d="M 136.8 291.6 
L 136.8 16.2 
" style="fill: none; stroke: #000000; stroke-width: 0.8; stroke-linejoin: miter; stroke-linecap: square"/>
   </g>
   <g id="patch_5">
    <path d="M 21.6 291.6 
L 136.8 291.6 
" style="fill: none; stroke: #000000; stroke-width: 0.8; stroke-linejoin: miter; stroke-linecap: square"/>
   </g>
   <g id="patch_6">
    <path d="M 21.6 16.2 
L 136.8 16.2 
" style="fill: none; stroke: #000000; stroke-width: 0.8; stroke-linejoin: miter; stroke-linecap: square"/>
   </g>
   <g id="text_8">
    <text style="font-weight: 700; font-size: 12px; font-family: 'DejaVu Sans', 'Bitstream Vera Sans', 'Computer Modern Sans Serif', 'Lucida Grande', 'Verdana', 'Geneva', 'Lucid', 'Arial', 'Helvetica', 'Avant Garde', sans-serif; text-anchor: middle" x="46.472727" y="289.104375" transform="rotate(-0 46.472727 289.104375)">#35</text>
   </g>
   <g id="text_9">
    <text style="font-weight: 700; font-size: 12px; font-family: 'DejaVu Sans', 'Bitstream Vera Sans', 'Computer Modern Sans Serif', 'Lucida Grande', 'Verdana', 'Geneva', 'Lucid', 'Arial', 'Helvetica', 'Avant Garde', sans-serif; text-anchor: middle" x="111.927273" y="289.104375" transform="rotate(-0 111.927273 289.104375)">#36</text>
   </g>
   <g id="text_10">
    <text style="font-size: 12px; font-family: 'DejaVu Sans', 'Bitstream Vera Sans', 'Computer Modern Sans Serif', 'Lucida Grande', 'Verdana', 'Geneva', 'Lucid', 'Arial', 'Helvetica', 'Avant Garde', sans-serif; text-anchor: middle" x="79.2" y="268.449375" transform="rotate(-0 79.2 268.449375)">ns</text>
   </g>
   <g id="line2d_10">
    <path d="M 21.6 113.088984 
L 136.8 113.088984 
" clip-path="url(#p57cb6945ba)" style="fill: none; stroke-dasharray: 3.7,1.6; stroke-dashoffset: 0; stroke: #808080; stroke-opacity: 0.7"/>
   </g>
   <g id="line2d_11">
    <path d="M 21.6 110.690185 
L 136.8 110.690185 
" clip-path="url(#p57cb6945ba)" style="fill: none; stroke-dasharray: 3.7,1.6; stroke-dashoffset: 0; stroke: #808080; stroke-opacity: 0.7"/>
   </g>
   <g id="LineCollection_1">
    <path d="M 46.472727 121.084462 
L 46.472727 105.093506 
" clip-path="url(#p57cb6945ba)" style="fill: none; stroke: #000000; stroke-width: 2"/>
   </g>
   <g id="line2d_12">
    <defs>
     <path id="m88fef485f2" d="M 5 0 
L -5 -0 
" style="stroke: #000000; stroke-width: 2"/>
    </defs>
    <g clip-path="url(#p57cb6945ba)">
     <use xlink:href="#m88fef485f2" x="46.472727" y="121.084462" style="stroke: #000000; stroke-width: 2"/>
    </g>
   </g>
   <g id="line2d_13">
    <g clip-path="url(#p57cb6945ba)">
     <use xlink:href="#m88fef485f2" x="46.472727" y="105.093506" style="stroke: #000000; stroke-width: 2"/>
    </g>
   </g>
   <g id="LineCollection_2">
    <path d="M 111.927273 127.463445 
L 111.927273 93.916925 
" clip-path="url(#p57cb6945ba)" style="fill: none; stroke: #000000; stroke-width: 2"/>
   </g>
   <g id="line2d_14">
    <g clip-path="url(#p57cb6945ba)">
     <use xlink:href="#m88fef485f2" x="111.927273" y="127.463445" style="stroke: #000000; stroke-width: 2"/>
    </g>
   </g>
   <g id="line2d_15">
    <g clip-path="url(#p57cb6945ba)">
     <use xlink:href="#m88fef485f2" x="111.927273" y="93.916925" style="stroke: #000000; stroke-width: 2"/>
    </g>
   </g>
   <g id="line2d_16">
    <defs>
     <path id="mf21013978d" d="M 0 4 
C 1.060812 4 2.078319 3.578535 2.828427 2.828427 
C 3.578535 2.078319 4 1.060812 4 0 
C 4 -1.060812 3.578535 -2.078319 2.828427 -2.828427 
C 2.078319 -3.578535 1.060812 -4 0 -4 
C -1.060812 -4 -2.078319 -3.578535 -2.828427 -2.828427 
C -3.578535 -2.078319 -4 -1.060812 -4 0 
C -4 1.060812 -3.578535 2.078319 -2.828427 2.828427 
C -2.078319 3.578535 -1.060812 4 0 4 
z
" style="stroke: #000000"/>
    </defs>
    <g clip-path="url(#p57cb6945ba)">
     <use xlink:href="#mf21013978d" x="46.472727" y="113.088984" style="stroke: #000000"/>
    </g>
   </g>
   <g id="line2d_17">
    <g clip-path="url(#p57cb6945ba)">
     <use xlink:href="#mf21013978d" x="111.927273" y="110.690185" style="stroke: #000000"/>
    </g>
   </g>
  </g>
 </g>
 <defs>
  <clipPath id="p57cb6945ba">
   <rect x="21.6" y="16.2" width="115.2" height="275.4"/>
  </clipPath>
 </defs>
</svg>
