<?xml version="1.0" encoding="utf-8" standalone="no"?>
<!DOCTYPE svg PUBLIC "-//W3C//DTD SVG 1.1//EN"
  "http://www.w3.org/Graphics/SVG/1.1/DTD/svg11.dtd">
<svg xmlns:xlink="http://www.w3.org/1999/xlink" width="144pt" height="324pt" viewBox="0 0 144 324" xmlns="http://www.w3.org/2000/svg" version="1.1">
 <metadata>
  <rdf:RDF xmlns:dc="http://purl.org/dc/elements/1.1/" xmlns:cc="http://creativecommons.org/ns#" xmlns:rdf="http://www.w3.org/1999/02/22-rdf-syntax-ns#">
   <cc:Work>
    <dc:type rdf:resource="http://purl.org/dc/dcmitype/StillImage"/>
    <dc:date>2025-12-08T20:14:21.347833</dc:date>
    <dc:format>image/svg+xml</dc:format>
    <dc:creator>
     <cc:Agent>
      <dc:title>Matplotlib v3.10.0, https://matplotlib.org/</dc:title>
     </cc:Agent>
    </dc:creator>
   </cc:Work>
  </rdf:RDF>
 </metadata>
 <defs>
  <style type="text/css">*{stroke-linejoin: round; stroke-linecap: butt}</style>
 </defs>
 <g id="figure_1">
  <g id="patch_1">
   <path d="M 0 324 
L 144 324 
L 144 0 
L 0 0 
z
" style="fill: #ffffff"/>
  </g>
  <g id="axes_1">
   <g id="patch_2">
    <path d="M 21.6 291.6 
L 136.8 291.6 
L 136.8 16.2 
L 21.6 16.2 
z
" style="fill: #ffffff"/>
   </g>
   <g id="FillBetweenPolyCollection_1">
    <path d="M 46.869955 179.342062 
L 46.0755 179.342062 
L 46.038227 178.66464 
L 45.99965 177.987218 
L 45.958258 177.309796 
L 45.912108 176.632374 
L 45.858891 175.954952 
L 45.795984 175.27753 
L 45.720479 174.600108 
L 45.629185 173.922686 
L 45.518628 173.245263 
L 45.385059 172.567841 
L 45.224535 171.890419 
L 45.03307 171.212997 
L 44.806892 170.535575 
L 44.542787 169.858153 
L 44.238497 169.180731 
L 43.893111 168.503309 
L 43.507369 167.825887 
L 43.083812 167.148465 
L 42.626702 166.471043 
L 42.141696 165.79362 
L 41.635268 165.116198 
L 41.11396 164.438776 
L 40.583545 163.761354 
L 40.048239 163.083932 
L 39.510102 162.40651 
L 38.96873 161.729088 
L 38.421337 161.051666 
L 37.863219 160.374244 
L 37.288569 159.696822 
L 36.691514 159.0194 
L 36.067231 158.341978 
L 35.41295 157.664555 
L 34.728709 156.987133 
L 34.01773 156.309711 
L 33.286392 155.632289 
L 32.543827 154.954867 
L 31.801242 154.277445 
L 31.071099 153.600023 
L 30.366279 152.922601 
L 29.699357 152.245179 
L 29.082033 151.567757 
L 28.524749 150.890335 
L 28.036473 150.212912 
L 27.624611 149.53549 
L 27.295011 148.858068 
L 27.052026 148.180646 
L 26.898601 147.503224 
L 26.836364 146.825802 
L 26.865676 146.14838 
L 26.985607 145.470958 
L 27.193815 144.793536 
L 27.486324 144.116114 
L 27.857259 143.438692 
L 28.298601 142.76127 
L 28.800098 142.083847 
L 29.34943 141.406425 
L 29.932707 140.729003 
L 30.535314 140.051581 
L 31.143022 139.374159 
L 31.74321 138.696737 
L 32.325999 138.019315 
L 32.885073 137.341893 
L 33.418023 136.664471 
L 33.926135 135.987049 
L 34.413631 135.309627 
L 34.886519 134.632204 
L 35.35125 133.954782 
L 35.813449 133.27736 
L 36.276941 132.599938 
L 36.743227 131.922516 
L 37.211467 131.245094 
L 37.678916 130.567672 
L 38.141654 129.89025 
L 38.595432 129.212828 
L 39.036423 128.535406 
L 39.461754 127.857984 
L 39.869743 127.180562 
L 40.259847 126.503139 
L 40.632414 125.825717 
L 40.98835 125.148295 
L 41.328792 124.470873 
L 41.654884 123.793451 
L 41.967661 123.116029 
L 42.268037 122.438607 
L 42.556831 121.761185 
L 42.834792 121.083763 
L 43.102583 120.406341 
L 43.360721 119.728919 
L 43.609484 119.051496 
L 43.848851 118.374074 
L 44.078489 117.696652 
L 44.297821 117.01923 
L 44.506164 116.341808 
L 44.7029 115.664386 
L 44.887636 114.986964 
L 45.060302 114.309542 
L 45.221167 113.63212 
L 45.370754 112.954698 
L 45.5097 112.277276 
L 47.435755 112.277276 
L 47.435755 112.277276 
L 47.574701 112.954698 
L 47.724287 113.63212 
L 47.885152 114.309542 
L 48.057819 114.986964 
L 48.242554 115.664386 
L 48.43929 116.341808 
L 48.647633 117.01923 
L 48.866966 117.696652 
L 49.096604 118.374074 
L 49.335971 119.051496 
L 49.584734 119.728919 
L 49.842871 120.406341 
L 50.110663 121.083763 
L 50.388624 121.761185 
L 50.677417 122.438607 
L 50.977793 123.116029 
L 51.290571 123.793451 
L 51.616662 124.470873 
L 51.957105 125.148295 
L 52.31304 125.825717 
L 52.685608 126.503139 
L 53.075711 127.180562 
L 53.4837 127.857984 
L 53.909032 128.535406 
L 54.350022 129.212828 
L 54.8038 129.89025 
L 55.266539 130.567672 
L 55.733988 131.245094 
L 56.202228 131.922516 
L 56.668513 132.599938 
L 57.132005 133.27736 
L 57.594205 133.954782 
L 58.058935 134.632204 
L 58.531823 135.309627 
L 59.019319 135.987049 
L 59.527431 136.664471 
L 60.060382 137.341893 
L 60.619455 138.019315 
L 61.202244 138.696737 
L 61.802433 139.374159 
L 62.410141 140.051581 
L 63.012748 140.729003 
L 63.596025 141.406425 
L 64.145356 142.083847 
L 64.646853 142.76127 
L 65.088195 143.438692 
L 65.45913 144.116114 
L 65.75164 144.793536 
L 65.959848 145.470958 
L 66.079779 146.14838 
L 66.109091 146.825802 
L 66.046854 147.503224 
L 65.893429 148.180646 
L 65.650443 148.858068 
L 65.320844 149.53549 
L 64.908982 150.212912 
L 64.420706 150.890335 
L 63.863422 151.567757 
L 63.246097 152.245179 
L 62.579175 152.922601 
L 61.874356 153.600023 
L 61.144212 154.277445 
L 60.401628 154.954867 
L 59.659062 155.632289 
L 58.927724 156.309711 
L 58.216745 156.987133 
L 57.532505 157.664555 
L 56.878224 158.341978 
L 56.25394 159.0194 
L 55.656886 159.696822 
L 55.082236 160.374244 
L 54.524118 161.051666 
L 53.976725 161.729088 
L 53.435353 162.40651 
L 52.897215 163.083932 
L 52.36191 163.761354 
L 51.831494 164.438776 
L 51.310186 165.116198 
L 50.803758 165.79362 
L 50.318752 166.471043 
L 49.861643 167.148465 
L 49.438086 167.825887 
L 49.052344 168.503309 
L 48.706957 169.180731 
L 48.402667 169.858153 
L 48.138562 170.535575 
L 47.912384 171.212997 
L 47.720919 171.890419 
L 47.560396 172.567841 
L 47.426827 173.245263 
L 47.316269 173.922686 
L 47.224976 174.600108 
L 47.149471 175.27753 
L 47.086564 175.954952 
L 47.033347 176.632374 
L 46.987197 177.309796 
L 46.945805 177.987218 
L 46.907228 178.66464 
L 46.869955 179.342062 
L 46.869955 179.342062 
z
" clip-path="url(#pbd8b0024a8)" style="fill: none; stroke: #000000; stroke-opacity: 0.3"/>
   </g>
   <g id="FillBetweenPolyCollection_2">
    <path d="M 46.809257 205.653293 
L 46.136198 205.653293 
L 46.134546 204.742976 
L 46.139968 203.832659 
L 46.150333 202.922342 
L 46.162889 202.012025 
L 46.174715 201.101708 
L 46.18322 200.191391 
L 46.186589 199.281074 
L 46.184097 198.370758 
L 46.176233 197.460441 
L 46.164596 196.550124 
L 46.151592 195.639807 
L 46.139982 194.72949 
L 46.132346 193.819173 
L 46.130578 192.908856 
L 46.135479 191.998539 
L 46.146507 191.088222 
L 46.161722 190.177905 
L 46.177911 189.267588 
L 46.190847 188.357271 
L 46.195639 187.446954 
L 46.187108 186.536637 
L 46.160151 185.626321 
L 46.110057 184.716004 
L 46.032767 183.805687 
L 45.925081 182.89537 
L 45.784803 181.985053 
L 45.610821 181.074736 
L 45.403118 180.164419 
L 45.162704 179.254102 
L 44.891444 178.343785 
L 44.591811 177.433468 
L 44.266556 176.523151 
L 43.91834 175.612834 
L 43.549366 174.702517 
L 43.161082 173.7922 
L 42.753978 172.881883 
L 42.32755 171.971567 
L 41.880436 171.06125 
L 41.410729 170.150933 
L 40.91642 169.240616 
L 40.395912 168.330299 
L 39.848516 167.419982 
L 39.274827 166.509665 
L 38.676924 165.599348 
L 38.058316 164.689031 
L 37.423683 163.778714 
L 36.778421 162.868397 
L 36.128131 161.95808 
L 35.478141 161.047763 
L 34.833177 160.137446 
L 34.197253 159.22713 
L 33.57376 158.316813 
L 32.9657 157.406496 
L 32.375946 156.496179 
L 31.807394 155.585862 
L 31.262927 154.675545 
L 30.745152 153.765228 
L 30.256 152.854911 
L 29.796322 151.944594 
L 29.365659 151.034277 
L 28.962371 150.12396 
L 28.584206 149.213643 
L 28.229306 148.303326 
L 27.897514 147.393009 
L 27.591719 146.482692 
L 27.318954 145.572376 
L 27.090913 144.662059 
L 26.923649 143.751742 
L 26.836364 142.841425 
L 26.849334 141.931108 
L 26.981256 141.020791 
L 27.246422 140.110474 
L 27.652235 139.200157 
L 28.197548 138.28984 
L 28.872203 137.379523 
L 29.657881 136.469206 
L 30.530163 135.558889 
L 31.461395 134.648572 
L 32.423831 133.738255 
L 33.392456 132.827939 
L 34.347008 131.917622 
L 35.272928 131.007305 
L 36.16121 130.096988 
L 37.007395 129.186671 
L 37.810081 128.276354 
L 38.569394 127.366037 
L 39.285765 126.45572 
L 39.959239 125.545403 
L 40.589333 124.635086 
L 41.175327 123.724769 
L 41.71679 122.814452 
L 42.214107 121.904135 
L 42.668832 120.993818 
L 43.083761 120.083501 
L 43.462716 119.173185 
L 43.81009 118.262868 
L 44.130273 117.352551 
L 44.427066 116.442234 
L 44.703235 115.531917 
L 48.242219 115.531917 
L 48.242219 115.531917 
L 48.518389 116.442234 
L 48.815182 117.352551 
L 49.135364 118.262868 
L 49.482739 119.173185 
L 49.861694 120.083501 
L 50.276623 120.993818 
L 50.731348 121.904135 
L 51.228665 122.814452 
L 51.770128 123.724769 
L 52.356121 124.635086 
L 52.986215 125.545403 
L 53.65969 126.45572 
L 54.376061 127.366037 
L 55.135373 128.276354 
L 55.938059 129.186671 
L 56.784245 130.096988 
L 57.672527 131.007305 
L 58.598447 131.917622 
L 59.552999 132.827939 
L 60.521623 133.738255 
L 61.484059 134.648572 
L 62.415292 135.558889 
L 63.287574 136.469206 
L 64.073252 137.379523 
L 64.747906 138.28984 
L 65.29322 139.200157 
L 65.699032 140.110474 
L 65.964199 141.020791 
L 66.096121 141.931108 
L 66.109091 142.841425 
L 66.021806 143.751742 
L 65.854542 144.662059 
L 65.6265 145.572376 
L 65.353736 146.482692 
L 65.047941 147.393009 
L 64.716148 148.303326 
L 64.361249 149.213643 
L 63.983083 150.12396 
L 63.579795 151.034277 
L 63.149133 151.944594 
L 62.689454 152.854911 
L 62.200303 153.765228 
L 61.682527 154.675545 
L 61.13806 155.585862 
L 60.569509 156.496179 
L 59.979755 157.406496 
L 59.371695 158.316813 
L 58.748201 159.22713 
L 58.112277 160.137446 
L 57.467314 161.047763 
L 56.817323 161.95808 
L 56.167034 162.868397 
L 55.521772 163.778714 
L 54.887138 164.689031 
L 54.268531 165.599348 
L 53.670627 166.509665 
L 53.096939 167.419982 
L 52.549542 168.330299 
L 52.029034 169.240616 
L 51.534725 170.150933 
L 51.065018 171.06125 
L 50.617904 171.971567 
L 50.191476 172.881883 
L 49.784372 173.7922 
L 49.396088 174.702517 
L 49.027115 175.612834 
L 48.678898 176.523151 
L 48.353643 177.433468 
L 48.054011 178.343785 
L 47.782751 179.254102 
L 47.542336 180.164419 
L 47.334634 181.074736 
L 47.160651 181.985053 
L 47.020373 182.89537 
L 46.912688 183.805687 
L 46.835398 184.716004 
L 46.785303 185.626321 
L 46.758346 186.536637 
L 46.749816 187.446954 
L 46.754608 188.357271 
L 46.767543 189.267588 
L 46.783732 190.177905 
L 46.798948 191.088222 
L 46.809975 191.998539 
L 46.814876 192.908856 
L 46.813109 193.819173 
L 46.805473 194.72949 
L 46.793862 195.639807 
L 46.780859 196.550124 
L 46.769222 197.460441 
L 46.761357 198.370758 
L 46.758865 199.281074 
L 46.762234 200.191391 
L 46.770739 201.101708 
L 46.782566 202.012025 
L 46.795121 202.922342 
L 46.805486 203.832659 
L 46.810909 204.742976 
L 46.809257 205.653293 
L 46.809257 205.653293 
z
" clip-path="url(#pbd8b0024a8)" style="fill: none; stroke: #000000; stroke-opacity: 0.3"/>
   </g>
   <g id="FillBetweenPolyCollection_3">
    <path d="M 52.171068 165.359303 
L 40.774386 165.359303 
L 40.481765 164.812545 
L 40.184847 164.265788 
L 39.883346 163.719031 
L 39.576828 163.172273 
L 39.26472 162.625516 
L 38.94632 162.078759 
L 38.620823 161.532001 
L 38.287338 160.985244 
L 37.944928 160.438487 
L 37.592641 159.891729 
L 37.229555 159.344972 
L 36.854821 158.798215 
L 36.46771 158.251457 
L 36.067666 157.7047 
L 35.65435 157.157943 
L 35.227688 156.611185 
L 34.787918 156.064428 
L 34.335625 155.517671 
L 33.871779 154.970913 
L 33.397758 154.424156 
L 32.915364 153.877398 
L 32.426836 153.330641 
L 31.934841 152.783884 
L 31.442464 152.237126 
L 30.953185 151.690369 
L 30.470838 151.143612 
L 29.999568 150.596854 
L 29.543772 150.050097 
L 29.108036 149.50334 
L 28.69706 148.956582 
L 28.315576 148.409825 
L 27.968269 147.863068 
L 27.659685 147.31631 
L 27.394146 146.769553 
L 27.175665 146.222796 
L 27.007862 145.676038 
L 26.893889 145.129281 
L 26.836364 144.582524 
L 26.837306 144.035766 
L 26.898095 143.489009 
L 27.019428 142.942252 
L 27.201305 142.395494 
L 27.443014 141.848737 
L 27.743138 141.30198 
L 28.099577 140.755222 
L 28.509575 140.208465 
L 28.969769 139.661707 
L 29.476241 139.11495 
L 30.024588 138.568193 
L 30.60999 138.021435 
L 31.22729 137.474678 
L 31.871081 136.927921 
L 32.535787 136.381163 
L 33.215747 135.834406 
L 33.905304 135.287649 
L 34.598877 134.740891 
L 35.291043 134.194134 
L 35.976598 133.647377 
L 36.650621 133.100619 
L 37.308524 132.553862 
L 37.946097 132.007105 
L 38.559542 131.460347 
L 39.145495 130.91359 
L 39.701046 130.366833 
L 40.223747 129.820075 
L 40.711611 129.273318 
L 41.163108 128.726561 
L 41.577154 128.179803 
L 41.953094 127.633046 
L 42.290686 127.086289 
L 42.59007 126.539531 
L 42.851755 125.992774 
L 43.076582 125.446016 
L 43.265704 124.899259 
L 43.420556 124.352502 
L 43.542828 123.805744 
L 43.634439 123.258987 
L 43.697509 122.71223 
L 43.734331 122.165472 
L 43.747349 121.618715 
L 43.739126 121.071958 
L 43.712321 120.5252 
L 43.66966 119.978443 
L 43.61391 119.431686 
L 43.547849 118.884928 
L 43.474239 118.338171 
L 43.395799 117.791414 
L 43.315172 117.244656 
L 43.234896 116.697899 
L 43.157384 116.151142 
L 43.084884 115.604384 
L 43.019465 115.057627 
L 42.962987 114.51087 
L 42.917082 113.964112 
L 42.883136 113.417355 
L 42.862277 112.870598 
L 42.855365 112.32384 
L 42.862986 111.777083 
L 42.885452 111.230326 
L 50.060003 111.230326 
L 50.060003 111.230326 
L 50.082469 111.777083 
L 50.090089 112.32384 
L 50.083177 112.870598 
L 50.062319 113.417355 
L 50.028373 113.964112 
L 49.982468 114.51087 
L 49.925989 115.057627 
L 49.860571 115.604384 
L 49.788071 116.151142 
L 49.710558 116.697899 
L 49.630283 117.244656 
L 49.549655 117.791414 
L 49.471215 118.338171 
L 49.397606 118.884928 
L 49.331545 119.431686 
L 49.275795 119.978443 
L 49.233134 120.5252 
L 49.206329 121.071958 
L 49.198106 121.618715 
L 49.211123 122.165472 
L 49.247946 122.71223 
L 49.311015 123.258987 
L 49.402626 123.805744 
L 49.524899 124.352502 
L 49.67975 124.899259 
L 49.868872 125.446016 
L 50.093699 125.992774 
L 50.355384 126.539531 
L 50.654769 127.086289 
L 50.99236 127.633046 
L 51.368301 128.179803 
L 51.782347 128.726561 
L 52.233844 129.273318 
L 52.721707 129.820075 
L 53.244408 130.366833 
L 53.79996 130.91359 
L 54.385913 131.460347 
L 54.999357 132.007105 
L 55.636931 132.553862 
L 56.294834 133.100619 
L 56.968857 133.647377 
L 57.654411 134.194134 
L 58.346577 134.740891 
L 59.040151 135.287649 
L 59.729708 135.834406 
L 60.409668 136.381163 
L 61.074373 136.927921 
L 61.718164 137.474678 
L 62.335465 138.021435 
L 62.920866 138.568193 
L 63.469213 139.11495 
L 63.975686 139.661707 
L 64.43588 140.208465 
L 64.845878 140.755222 
L 65.202316 141.30198 
L 65.502441 141.848737 
L 65.744149 142.395494 
L 65.926026 142.942252 
L 66.04736 143.489009 
L 66.108148 144.035766 
L 66.109091 144.582524 
L 66.051565 145.129281 
L 65.937593 145.676038 
L 65.76979 146.222796 
L 65.551308 146.769553 
L 65.285769 147.31631 
L 64.977185 147.863068 
L 64.629878 148.409825 
L 64.248395 148.956582 
L 63.837418 149.50334 
L 63.401683 150.050097 
L 62.945887 150.596854 
L 62.474616 151.143612 
L 61.992269 151.690369 
L 61.50299 152.237126 
L 61.010614 152.783884 
L 60.518619 153.330641 
L 60.03009 153.877398 
L 59.547697 154.424156 
L 59.073675 154.970913 
L 58.60983 155.517671 
L 58.157537 156.064428 
L 57.717767 156.611185 
L 57.291105 157.157943 
L 56.877788 157.7047 
L 56.477744 158.251457 
L 56.090634 158.798215 
L 55.715899 159.344972 
L 55.352813 159.891729 
L 55.000527 160.438487 
L 54.658116 160.985244 
L 54.324632 161.532001 
L 53.999134 162.078759 
L 53.680735 162.625516 
L 53.368627 163.172273 
L 53.062109 163.719031 
L 52.760608 164.265788 
L 52.46369 164.812545 
L 52.171068 165.359303 
L 52.171068 165.359303 
z
" clip-path="url(#pbd8b0024a8)" style="fill: none; stroke: #000000; stroke-opacity: 0.3"/>
   </g>
   <g id="FillBetweenPolyCollection_4">
    <path d="M 49.967124 263.534406 
L 42.97833 263.534406 
L 42.882266 261.904725 
L 42.792966 260.275044 
L 42.710626 258.645363 
L 42.635364 257.015682 
L 42.56723 255.386001 
L 42.50621 253.75632 
L 42.452233 252.126639 
L 42.40518 250.496958 
L 42.364891 248.867277 
L 42.331169 247.237596 
L 42.303791 245.607915 
L 42.282505 243.978234 
L 42.267038 242.348553 
L 42.257093 240.718871 
L 42.252349 239.08919 
L 42.252456 237.459509 
L 42.257035 235.829828 
L 42.265662 234.200147 
L 42.277869 232.570466 
L 42.293131 230.940785 
L 42.31086 229.311104 
L 42.330391 227.681423 
L 42.35098 226.051742 
L 42.371792 224.422061 
L 42.391897 222.79238 
L 42.410266 221.162699 
L 42.425765 219.533018 
L 42.437157 217.903337 
L 42.443106 216.273656 
L 42.442174 214.643975 
L 42.432833 213.014294 
L 42.413471 211.384613 
L 42.382403 209.754932 
L 42.337884 208.125251 
L 42.278125 206.49557 
L 42.201307 204.865889 
L 42.105604 203.236208 
L 41.989205 201.606527 
L 41.850331 199.976846 
L 41.687271 198.347165 
L 41.498401 196.717484 
L 41.282217 195.087803 
L 41.037369 193.458122 
L 40.76269 191.828441 
L 40.457233 190.19876 
L 40.120306 188.569079 
L 39.751508 186.939398 
L 39.350764 185.309717 
L 38.91836 183.680036 
L 38.454974 182.050355 
L 37.961706 180.420674 
L 37.440103 178.790993 
L 36.892176 177.161312 
L 36.320416 175.531631 
L 35.727794 173.90195 
L 35.117762 172.272268 
L 34.494234 170.642587 
L 33.861565 169.012906 
L 33.224516 167.383225 
L 32.588203 165.753544 
L 31.958045 164.123863 
L 31.339694 162.494182 
L 30.738958 160.864501 
L 30.161719 159.23482 
L 29.613838 157.605139 
L 29.101062 155.975458 
L 28.628926 154.345777 
L 28.202655 152.716096 
L 27.82707 151.086415 
L 27.506498 149.456734 
L 27.244692 147.827053 
L 27.044755 146.197372 
L 26.909087 144.567691 
L 26.839335 142.93801 
L 26.836364 141.308329 
L 26.900243 139.678648 
L 27.030249 138.048967 
L 27.224885 136.419286 
L 27.481916 134.789605 
L 27.798418 133.159924 
L 28.170844 131.530243 
L 28.595097 129.900562 
L 29.066612 128.270881 
L 29.580454 126.6412 
L 30.131404 125.011519 
L 30.714064 123.381838 
L 31.322946 121.752157 
L 31.952568 120.122476 
L 32.597542 118.492795 
L 33.252645 116.863114 
L 33.912899 115.233433 
L 34.573623 113.603752 
L 35.230485 111.974071 
L 35.879537 110.34439 
L 36.517243 108.714709 
L 37.140493 107.085028 
L 37.746604 105.455347 
L 38.33332 103.825666 
L 38.898798 102.195984 
L 54.046657 102.195984 
L 54.046657 102.195984 
L 54.612134 103.825666 
L 55.198851 105.455347 
L 55.804962 107.085028 
L 56.428211 108.714709 
L 57.065917 110.34439 
L 57.71497 111.974071 
L 58.371831 113.603752 
L 59.032555 115.233433 
L 59.692809 116.863114 
L 60.347913 118.492795 
L 60.992886 120.122476 
L 61.622509 121.752157 
L 62.231391 123.381838 
L 62.814051 125.011519 
L 63.365001 126.6412 
L 63.878842 128.270881 
L 64.350358 129.900562 
L 64.77461 131.530243 
L 65.147036 133.159924 
L 65.463539 134.789605 
L 65.72057 136.419286 
L 65.915206 138.048967 
L 66.045212 139.678648 
L 66.109091 141.308329 
L 66.106119 142.93801 
L 66.036367 144.567691 
L 65.900699 146.197372 
L 65.700763 147.827053 
L 65.438956 149.456734 
L 65.118385 151.086415 
L 64.7428 152.716096 
L 64.316529 154.345777 
L 63.844393 155.975458 
L 63.331617 157.605139 
L 62.783735 159.23482 
L 62.206496 160.864501 
L 61.605761 162.494182 
L 60.98741 164.123863 
L 60.357252 165.753544 
L 59.720939 167.383225 
L 59.083889 169.012906 
L 58.451221 170.642587 
L 57.827693 172.272268 
L 57.21766 173.90195 
L 56.625039 175.531631 
L 56.053278 177.161312 
L 55.505352 178.790993 
L 54.983748 180.420674 
L 54.490481 182.050355 
L 54.027095 183.680036 
L 53.594691 185.309717 
L 53.193947 186.939398 
L 52.825149 188.569079 
L 52.488222 190.19876 
L 52.182764 191.828441 
L 51.908085 193.458122 
L 51.663237 195.087803 
L 51.447054 196.717484 
L 51.258183 198.347165 
L 51.095123 199.976846 
L 50.95625 201.606527 
L 50.83985 203.236208 
L 50.744148 204.865889 
L 50.66733 206.49557 
L 50.60757 208.125251 
L 50.563052 209.754932 
L 50.531984 211.384613 
L 50.512622 213.014294 
L 50.503281 214.643975 
L 50.502349 216.273656 
L 50.508297 217.903337 
L 50.51969 219.533018 
L 50.535189 221.162699 
L 50.553557 222.79238 
L 50.573663 224.422061 
L 50.594475 226.051742 
L 50.615064 227.681423 
L 50.634595 229.311104 
L 50.652323 230.940785 
L 50.667586 232.570466 
L 50.679793 234.200147 
L 50.68842 235.829828 
L 50.692998 237.459509 
L 50.693106 239.08919 
L 50.688362 240.718871 
L 50.678417 242.348553 
L 50.662949 243.978234 
L 50.641663 245.607915 
L 50.614285 247.237596 
L 50.580564 248.867277 
L 50.540274 250.496958 
L 50.493222 252.126639 
L 50.439245 253.75632 
L 50.378225 255.386001 
L 50.310091 257.015682 
L 50.234829 258.645363 
L 50.152489 260.275044 
L 50.063189 261.904725 
L 49.967124 263.534406 
L 49.967124 263.534406 
z
" clip-path="url(#pbd8b0024a8)" style="fill: none; stroke: #000000; stroke-opacity: 0.3"/>
   </g>
   <g id="FillBetweenPolyCollection_5">
    <path d="M 53.610472 163.705585 
L 39.334983 163.705585 
L 39.187763 163.42505 
L 39.05832 163.144515 
L 38.946597 162.86398 
L 38.852209 162.583444 
L 38.774444 162.302909 
L 38.712268 162.022374 
L 38.664334 161.741839 
L 38.629006 161.461303 
L 38.604373 161.180768 
L 38.58829 160.900233 
L 38.578404 160.619698 
L 38.572198 160.339163 
L 38.567027 160.058627 
L 38.56017 159.778092 
L 38.548869 159.497557 
L 38.530379 159.217022 
L 38.50201 158.936486 
L 38.461178 158.655951 
L 38.405442 158.375416 
L 38.332543 158.094881 
L 38.240447 157.814345 
L 38.12737 157.53381 
L 37.99181 157.253275 
L 37.832567 156.97274 
L 37.648766 156.692205 
L 37.439863 156.411669 
L 37.20566 156.131134 
L 36.946301 155.850599 
L 36.662272 155.570064 
L 36.354397 155.289528 
L 36.023818 155.008993 
L 35.671984 154.728458 
L 35.300632 154.447923 
L 34.911755 154.167388 
L 34.507582 153.886852 
L 34.090544 153.606317 
L 33.663241 153.325782 
L 33.228411 153.045247 
L 32.78889 152.764711 
L 32.347576 152.484176 
L 31.907397 152.203641 
L 31.47127 151.923106 
L 31.042067 151.642571 
L 30.622584 151.362035 
L 30.215505 151.0815 
L 29.823377 150.800965 
L 29.44858 150.52043 
L 29.093308 150.239894 
L 28.759546 149.959359 
L 28.449058 149.678824 
L 28.163374 149.398289 
L 27.90378 149.117753 
L 27.67132 148.837218 
L 27.466792 148.556683 
L 27.290752 148.276148 
L 27.143528 147.995613 
L 27.025223 147.715077 
L 26.935734 147.434542 
L 26.874766 147.154007 
L 26.841849 146.873472 
L 26.836364 146.592936 
L 26.857554 146.312401 
L 26.904553 146.031866 
L 26.976406 145.751331 
L 27.072086 145.470796 
L 27.190521 145.19026 
L 27.330607 144.909725 
L 27.491231 144.62919 
L 27.671286 144.348655 
L 27.869684 144.068119 
L 28.085371 143.787584 
L 28.317337 143.507049 
L 28.564624 143.226514 
L 28.826331 142.945978 
L 29.101621 142.665443 
L 29.389718 142.384908 
L 29.689909 142.104373 
L 30.001542 141.823838 
L 30.324021 141.543302 
L 30.656798 141.262767 
L 30.999366 140.982232 
L 31.351252 140.701697 
L 31.712004 140.421161 
L 32.081183 140.140626 
L 32.45835 139.860091 
L 32.843057 139.579556 
L 33.234836 139.299021 
L 33.633186 139.018485 
L 34.037569 138.73795 
L 34.447398 138.457415 
L 34.862031 138.17688 
L 35.28077 137.896344 
L 35.702854 137.615809 
L 36.127459 137.335274 
L 36.5537 137.054739 
L 36.980635 136.774204 
L 37.407268 136.493668 
L 37.832559 136.213133 
L 38.25543 135.932598 
L 54.690025 135.932598 
L 54.690025 135.932598 
L 55.112895 136.213133 
L 55.538186 136.493668 
L 55.96482 136.774204 
L 56.391755 137.054739 
L 56.817996 137.335274 
L 57.242601 137.615809 
L 57.664684 137.896344 
L 58.083423 138.17688 
L 58.498057 138.457415 
L 58.907885 138.73795 
L 59.312268 139.018485 
L 59.710619 139.299021 
L 60.102397 139.579556 
L 60.487105 139.860091 
L 60.864272 140.140626 
L 61.233451 140.421161 
L 61.594203 140.701697 
L 61.946088 140.982232 
L 62.288656 141.262767 
L 62.621433 141.543302 
L 62.943912 141.823838 
L 63.255546 142.104373 
L 63.555737 142.384908 
L 63.843834 142.665443 
L 64.119123 142.945978 
L 64.380831 143.226514 
L 64.628118 143.507049 
L 64.860084 143.787584 
L 65.075771 144.068119 
L 65.274169 144.348655 
L 65.454223 144.62919 
L 65.614847 144.909725 
L 65.754933 145.19026 
L 65.873368 145.470796 
L 65.969049 145.751331 
L 66.040901 146.031866 
L 66.087901 146.312401 
L 66.109091 146.592936 
L 66.103605 146.873472 
L 66.070689 147.154007 
L 66.00972 147.434542 
L 65.920231 147.715077 
L 65.801926 147.995613 
L 65.654702 148.276148 
L 65.478663 148.556683 
L 65.274134 148.837218 
L 65.041674 149.117753 
L 64.78208 149.398289 
L 64.496396 149.678824 
L 64.185908 149.959359 
L 63.852147 150.239894 
L 63.496875 150.52043 
L 63.122078 150.800965 
L 62.729949 151.0815 
L 62.32287 151.362035 
L 61.903387 151.642571 
L 61.474185 151.923106 
L 61.038058 152.203641 
L 60.597879 152.484176 
L 60.156565 152.764711 
L 59.717043 153.045247 
L 59.282213 153.325782 
L 58.854911 153.606317 
L 58.437873 153.886852 
L 58.0337 154.167388 
L 57.644823 154.447923 
L 57.27347 154.728458 
L 56.921637 155.008993 
L 56.591058 155.289528 
L 56.283182 155.570064 
L 55.999154 155.850599 
L 55.739795 156.131134 
L 55.505591 156.411669 
L 55.296689 156.692205 
L 55.112887 156.97274 
L 54.953645 157.253275 
L 54.818084 157.53381 
L 54.705007 157.814345 
L 54.612911 158.094881 
L 54.540013 158.375416 
L 54.484276 158.655951 
L 54.443444 158.936486 
L 54.415076 159.217022 
L 54.396585 159.497557 
L 54.385284 159.778092 
L 54.378427 160.058627 
L 54.373257 160.339163 
L 54.36705 160.619698 
L 54.357164 160.900233 
L 54.341081 161.180768 
L 54.316449 161.461303 
L 54.28112 161.741839 
L 54.233187 162.022374 
L 54.171011 162.302909 
L 54.093246 162.583444 
L 53.998858 162.86398 
L 53.887134 163.144515 
L 53.757691 163.42505 
L 53.610472 163.705585 
L 53.610472 163.705585 
z
" clip-path="url(#pbd8b0024a8)" style="fill: none; stroke: #000000; stroke-opacity: 0.3"/>
   </g>
   <g id="FillBetweenPolyCollection_6">
    <path d="M 58.673466 173.814373 
L 34.271989 173.814373 
L 33.680312 172.962965 
L 33.097046 172.111558 
L 32.525266 171.26015 
L 31.967991 170.408742 
L 31.42815 169.557334 
L 30.908552 168.705927 
L 30.411852 167.854519 
L 29.940527 167.003111 
L 29.496854 166.151703 
L 29.082888 165.300296 
L 28.700452 164.448888 
L 28.351124 163.59748 
L 28.036231 162.746072 
L 27.756851 161.894664 
L 27.513814 161.043257 
L 27.307709 160.191849 
L 27.138895 159.340441 
L 27.00751 158.489033 
L 26.91349 157.637626 
L 26.856583 156.786218 
L 26.836364 155.93481 
L 26.852253 155.083402 
L 26.903534 154.231994 
L 26.989363 153.380587 
L 27.108789 152.529179 
L 27.260764 151.677771 
L 27.44415 150.826363 
L 27.657733 149.974956 
L 27.900227 149.123548 
L 28.170277 148.27214 
L 28.466468 147.420732 
L 28.787324 146.569324 
L 29.131311 145.717917 
L 29.496837 144.866509 
L 29.882258 144.015101 
L 30.285876 143.163693 
L 30.705943 142.312286 
L 31.140666 141.460878 
L 31.58821 140.60947 
L 32.046707 139.758062 
L 32.514262 138.906655 
L 32.988959 138.055247 
L 33.468877 137.203839 
L 33.952096 136.352431 
L 34.436708 135.501023 
L 34.920835 134.649616 
L 35.402631 133.798208 
L 35.880302 132.9468 
L 36.352114 132.095392 
L 36.816402 131.243985 
L 37.271581 130.392577 
L 37.716153 129.541169 
L 38.148716 128.689761 
L 38.567967 127.838353 
L 38.972709 126.986946 
L 39.361853 126.135538 
L 39.73442 125.28413 
L 40.089544 124.432722 
L 40.426473 123.581315 
L 40.744569 122.729907 
L 41.043308 121.878499 
L 41.32228 121.027091 
L 41.58119 120.175684 
L 41.819858 119.324276 
L 42.038221 118.472868 
L 42.23633 117.62146 
L 42.414355 116.770052 
L 42.572582 115.918645 
L 42.711415 115.067237 
L 42.831379 114.215829 
L 42.933115 113.364421 
L 43.01738 112.513014 
L 43.085047 111.661606 
L 43.137099 110.810198 
L 43.174625 109.95879 
L 43.198813 109.107382 
L 43.210942 108.255975 
L 43.212373 107.404567 
L 43.204534 106.553159 
L 43.188908 105.701751 
L 43.167022 104.850344 
L 43.140422 103.998936 
L 43.110663 103.147528 
L 43.079289 102.29612 
L 43.04781 101.444712 
L 43.017688 100.593305 
L 42.990318 99.741897 
L 42.967007 98.890489 
L 42.948959 98.039081 
L 42.937263 97.187674 
L 42.932873 96.336266 
L 42.936605 95.484858 
L 42.949121 94.63345 
L 42.970926 93.782043 
L 43.002366 92.930635 
L 43.043624 92.079227 
L 43.094725 91.227819 
L 43.15554 90.376411 
L 43.225793 89.525004 
L 49.719661 89.525004 
L 49.719661 89.525004 
L 49.789914 90.376411 
L 49.850729 91.227819 
L 49.901831 92.079227 
L 49.943089 92.930635 
L 49.974528 93.782043 
L 49.996334 94.63345 
L 50.008849 95.484858 
L 50.012581 96.336266 
L 50.008192 97.187674 
L 49.996496 98.039081 
L 49.978448 98.890489 
L 49.955137 99.741897 
L 49.927766 100.593305 
L 49.897645 101.444712 
L 49.866166 102.29612 
L 49.834791 103.147528 
L 49.805033 103.998936 
L 49.778433 104.850344 
L 49.756546 105.701751 
L 49.740921 106.553159 
L 49.733082 107.404567 
L 49.734512 108.255975 
L 49.746642 109.107382 
L 49.77083 109.95879 
L 49.808356 110.810198 
L 49.860408 111.661606 
L 49.928074 112.513014 
L 50.01234 113.364421 
L 50.114075 114.215829 
L 50.234039 115.067237 
L 50.372873 115.918645 
L 50.5311 116.770052 
L 50.709124 117.62146 
L 50.907233 118.472868 
L 51.125596 119.324276 
L 51.364265 120.175684 
L 51.623175 121.027091 
L 51.902146 121.878499 
L 52.200885 122.729907 
L 52.518981 123.581315 
L 52.855911 124.432722 
L 53.211035 125.28413 
L 53.583602 126.135538 
L 53.972745 126.986946 
L 54.377487 127.838353 
L 54.796738 128.689761 
L 55.229301 129.541169 
L 55.673873 130.392577 
L 56.129052 131.243985 
L 56.59334 132.095392 
L 57.065152 132.9468 
L 57.542824 133.798208 
L 58.02462 134.649616 
L 58.508746 135.501023 
L 58.993359 136.352431 
L 59.476577 137.203839 
L 59.956495 138.055247 
L 60.431193 138.906655 
L 60.898747 139.758062 
L 61.357244 140.60947 
L 61.804789 141.460878 
L 62.239512 142.312286 
L 62.659578 143.163693 
L 63.063196 144.015101 
L 63.448617 144.866509 
L 63.814144 145.717917 
L 64.15813 146.569324 
L 64.478986 147.420732 
L 64.775177 148.27214 
L 65.045228 149.123548 
L 65.287721 149.974956 
L 65.501304 150.826363 
L 65.684691 151.677771 
L 65.836665 152.529179 
L 65.956092 153.380587 
L 66.041921 154.231994 
L 66.093201 155.083402 
L 66.109091 155.93481 
L 66.088872 156.786218 
L 66.031964 157.637626 
L 65.937945 158.489033 
L 65.80656 159.340441 
L 65.637745 160.191849 
L 65.431641 161.043257 
L 65.188604 161.894664 
L 64.909224 162.746072 
L 64.594331 163.59748 
L 64.245002 164.448888 
L 63.862566 165.300296 
L 63.448601 166.151703 
L 63.004927 167.003111 
L 62.533602 167.854519 
L 62.036902 168.705927 
L 61.517304 169.557334 
L 60.977464 170.408742 
L 60.420189 171.26015 
L 59.848409 172.111558 
L 59.265143 172.962965 
L 58.673466 173.814373 
L 58.673466 173.814373 
z
" clip-path="url(#pbd8b0024a8)" style="fill: none; stroke: #000000; stroke-opacity: 0.3"/>
   </g>
   <g id="FillBetweenPolyCollection_7">
    <path d="M 121.433986 179.4365 
L 102.42056 179.4365 
L 102.003608 179.151975 
L 101.602858 178.867449 
L 101.220873 178.582924 
L 100.859953 178.298399 
L 100.522085 178.013873 
L 100.2089 177.729348 
L 99.921635 177.444823 
L 99.661099 177.160297 
L 99.427658 176.875772 
L 99.221216 176.591247 
L 99.041218 176.306721 
L 98.886657 176.022196 
L 98.756088 175.73767 
L 98.647663 175.453145 
L 98.55916 175.16862 
L 98.488034 174.884094 
L 98.431465 174.599569 
L 98.386418 174.315044 
L 98.349704 174.030518 
L 98.318045 173.745993 
L 98.288141 173.461468 
L 98.256733 173.176942 
L 98.220671 172.892417 
L 98.176971 172.607892 
L 98.122877 172.323366 
L 98.055906 172.038841 
L 97.973895 171.754316 
L 97.875042 171.46979 
L 97.757929 171.185265 
L 97.621552 170.90074 
L 97.465332 170.616214 
L 97.28912 170.331689 
L 97.0932 170.047163 
L 96.878281 169.762638 
L 96.645482 169.478113 
L 96.396313 169.193587 
L 96.13265 168.909062 
L 95.856707 168.624537 
L 95.571003 168.340011 
L 95.278324 168.055486 
L 94.981689 167.770961 
L 94.684304 167.486435 
L 94.389525 167.20191 
L 94.100813 166.917385 
L 93.821692 166.632859 
L 93.555703 166.348334 
L 93.306362 166.063809 
L 93.077118 165.779283 
L 92.871305 165.494758 
L 92.692106 165.210233 
L 92.542508 164.925707 
L 92.425264 164.641182 
L 92.342856 164.356656 
L 92.297459 164.072131 
L 92.290909 163.787606 
L 92.324675 163.50308 
L 92.399836 163.218555 
L 92.517057 162.93403 
L 92.676579 162.649504 
L 92.87821 162.364979 
L 93.121319 162.080454 
L 93.404845 161.795928 
L 93.727304 161.511403 
L 94.086809 161.226878 
L 94.481096 160.942352 
L 94.907553 160.657827 
L 95.363257 160.373302 
L 95.845021 160.088776 
L 96.349436 159.804251 
L 96.872925 159.519725 
L 97.411799 159.2352 
L 97.962308 158.950675 
L 98.5207 158.666149 
L 99.083274 158.381624 
L 99.646435 158.097099 
L 100.206744 157.812573 
L 100.760961 157.528048 
L 101.306087 157.243523 
L 101.839401 156.958997 
L 102.358486 156.674472 
L 102.861251 156.389947 
L 103.345946 156.105421 
L 103.811169 155.820896 
L 104.255866 155.536371 
L 104.679323 155.251845 
L 105.081158 154.96732 
L 105.461294 154.682795 
L 105.819944 154.398269 
L 106.157577 154.113744 
L 106.474886 153.829218 
L 106.772759 153.544693 
L 107.052237 153.260168 
L 107.314481 152.975642 
L 107.560736 152.691117 
L 107.792294 152.406592 
L 108.01046 152.122066 
L 108.216523 151.837541 
L 108.411729 151.553016 
L 108.597254 151.26849 
L 115.257291 151.26849 
L 115.257291 151.26849 
L 115.442816 151.553016 
L 115.638022 151.837541 
L 115.844086 152.122066 
L 116.062252 152.406592 
L 116.293809 152.691117 
L 116.540064 152.975642 
L 116.802309 153.260168 
L 117.081787 153.544693 
L 117.379659 153.829218 
L 117.696969 154.113744 
L 118.034601 154.398269 
L 118.393251 154.682795 
L 118.773388 154.96732 
L 119.175222 155.251845 
L 119.59868 155.536371 
L 120.043376 155.820896 
L 120.508599 156.105421 
L 120.993294 156.389947 
L 121.496059 156.674472 
L 122.015145 156.958997 
L 122.548459 157.243523 
L 123.093585 157.528048 
L 123.647801 157.812573 
L 124.20811 158.097099 
L 124.771272 158.381624 
L 125.333846 158.666149 
L 125.892237 158.950675 
L 126.442746 159.2352 
L 126.98162 159.519725 
L 127.50511 159.804251 
L 128.009524 160.088776 
L 128.491288 160.373302 
L 128.946993 160.657827 
L 129.373449 160.942352 
L 129.767736 161.226878 
L 130.127242 161.511403 
L 130.4497 161.795928 
L 130.733226 162.080454 
L 130.976336 162.364979 
L 131.177966 162.649504 
L 131.337489 162.93403 
L 131.45471 163.218555 
L 131.52987 163.50308 
L 131.563636 163.787606 
L 131.557086 164.072131 
L 131.511689 164.356656 
L 131.429281 164.641182 
L 131.312038 164.925707 
L 131.16244 165.210233 
L 130.983241 165.494758 
L 130.777428 165.779283 
L 130.548183 166.063809 
L 130.298843 166.348334 
L 130.032854 166.632859 
L 129.753732 166.917385 
L 129.46502 167.20191 
L 129.170242 167.486435 
L 128.872856 167.770961 
L 128.576221 168.055486 
L 128.283543 168.340011 
L 127.997838 168.624537 
L 127.721896 168.909062 
L 127.458233 169.193587 
L 127.209064 169.478113 
L 126.976265 169.762638 
L 126.761346 170.047163 
L 126.565426 170.331689 
L 126.389214 170.616214 
L 126.232993 170.90074 
L 126.096617 171.185265 
L 125.979504 171.46979 
L 125.88065 171.754316 
L 125.79864 172.038841 
L 125.731668 172.323366 
L 125.677574 172.607892 
L 125.633875 172.892417 
L 125.597813 173.176942 
L 125.566405 173.461468 
L 125.5365 173.745993 
L 125.504841 174.030518 
L 125.468128 174.315044 
L 125.423081 174.599569 
L 125.366512 174.884094 
L 125.295386 175.16862 
L 125.206883 175.453145 
L 125.098457 175.73767 
L 124.967889 176.022196 
L 124.813327 176.306721 
L 124.63333 176.591247 
L 124.426888 176.875772 
L 124.193446 177.160297 
L 123.932911 177.444823 
L 123.645645 177.729348 
L 123.332461 178.013873 
L 122.994593 178.298399 
L 122.633672 178.582924 
L 122.251687 178.867449 
L 121.850937 179.151975 
L 121.433986 179.4365 
L 121.433986 179.4365 
z
" clip-path="url(#pbd8b0024a8)" style="fill: none; stroke: #000000; stroke-opacity: 0.3"/>
   </g>
   <g id="FillBetweenPolyCollection_8">
    <path d="M 112.943097 201.324152 
L 110.911448 201.324152 
L 110.917612 200.730396 
L 110.93615 200.13664 
L 110.966306 199.542884 
L 111.006883 198.949128 
L 111.056299 198.355372 
L 111.112661 197.761616 
L 111.173849 197.16786 
L 111.237605 196.574104 
L 111.3016 195.980348 
L 111.363507 195.386592 
L 111.42104 194.792836 
L 111.471979 194.19908 
L 111.514173 193.605324 
L 111.545523 193.011568 
L 111.563954 192.417812 
L 111.567377 191.824056 
L 111.553656 191.2303 
L 111.52058 190.636544 
L 111.46586 190.042788 
L 111.387141 189.449032 
L 111.282055 188.855276 
L 111.148292 188.26152 
L 110.983717 187.667764 
L 110.786496 187.074008 
L 110.555253 186.480252 
L 110.289218 185.886496 
L 109.988375 185.29274 
L 109.653578 184.698984 
L 109.286624 184.105228 
L 108.890275 183.511472 
L 108.468202 182.917716 
L 108.024866 182.32396 
L 107.565323 181.730204 
L 107.094955 181.136448 
L 106.619169 180.542692 
L 106.14305 179.948936 
L 105.671025 179.35518 
L 105.206544 178.761424 
L 104.75182 178.167668 
L 104.307652 177.573912 
L 103.873345 176.980156 
L 103.446744 176.3864 
L 103.024383 175.792644 
L 102.601747 175.198888 
L 102.17362 174.605132 
L 101.734506 174.011376 
L 101.279087 173.41762 
L 100.802682 172.823864 
L 100.301684 172.230108 
L 99.773936 171.636352 
L 99.219019 171.042596 
L 98.638444 170.44884 
L 98.035733 169.855084 
L 97.416383 169.261328 
L 96.787735 168.667572 
L 96.158741 168.073816 
L 95.539672 167.48006 
L 94.941761 166.886304 
L 94.376837 166.292548 
L 93.856926 165.698792 
L 93.393879 165.105036 
L 92.999011 164.51128 
L 92.682763 163.917524 
L 92.4544 163.323768 
L 92.321741 162.730012 
L 92.290909 162.136256 
L 92.366124 161.5425 
L 92.549519 160.948744 
L 92.840998 160.354988 
L 93.238137 159.761232 
L 93.736144 159.167476 
L 94.327886 158.57372 
L 95.004002 157.979964 
L 95.753095 157.386208 
L 96.562034 156.792452 
L 97.416336 156.198696 
L 98.300629 155.60494 
L 99.199184 155.011184 
L 100.096477 154.417428 
L 100.977755 153.823672 
L 101.829577 153.229916 
L 102.640288 152.63616 
L 103.400409 152.042404 
L 104.1029 151.448648 
L 104.743301 150.854892 
L 105.319736 150.261136 
L 105.832784 149.66738 
L 106.285225 149.073624 
L 106.681704 148.479868 
L 107.028305 147.886112 
L 107.332097 147.292356 
L 107.600663 146.6986 
L 107.841648 146.104844 
L 108.062351 145.511088 
L 108.269381 144.917332 
L 108.468388 144.323576 
L 108.663889 143.72982 
L 108.859173 143.136064 
L 109.056294 142.542308 
L 114.798252 142.542308 
L 114.798252 142.542308 
L 114.995372 143.136064 
L 115.190656 143.72982 
L 115.386157 144.323576 
L 115.585165 144.917332 
L 115.792194 145.511088 
L 116.012897 146.104844 
L 116.253883 146.6986 
L 116.522448 147.292356 
L 116.82624 147.886112 
L 117.172841 148.479868 
L 117.56932 149.073624 
L 118.021762 149.66738 
L 118.534809 150.261136 
L 119.111245 150.854892 
L 119.751646 151.448648 
L 120.454136 152.042404 
L 121.214257 152.63616 
L 122.024969 153.229916 
L 122.87679 153.823672 
L 123.758068 154.417428 
L 124.655361 155.011184 
L 125.553917 155.60494 
L 126.43821 156.198696 
L 127.292511 156.792452 
L 128.101451 157.386208 
L 128.850544 157.979964 
L 129.526659 158.57372 
L 130.118402 159.167476 
L 130.616409 159.761232 
L 131.013548 160.354988 
L 131.305026 160.948744 
L 131.488421 161.5425 
L 131.563636 162.136256 
L 131.532805 162.730012 
L 131.400145 163.323768 
L 131.171783 163.917524 
L 130.855535 164.51128 
L 130.460666 165.105036 
L 129.99762 165.698792 
L 129.477709 166.292548 
L 128.912784 166.886304 
L 128.314874 167.48006 
L 127.695804 168.073816 
L 127.06681 168.667572 
L 126.438162 169.261328 
L 125.818813 169.855084 
L 125.216101 170.44884 
L 124.635526 171.042596 
L 124.080609 171.636352 
L 123.552861 172.230108 
L 123.051864 172.823864 
L 122.575459 173.41762 
L 122.120039 174.011376 
L 121.680926 174.605132 
L 121.252799 175.198888 
L 120.830163 175.792644 
L 120.407802 176.3864 
L 119.9812 176.980156 
L 119.546893 177.573912 
L 119.102725 178.167668 
L 118.648002 178.761424 
L 118.18352 179.35518 
L 117.711495 179.948936 
L 117.235377 180.542692 
L 116.759591 181.136448 
L 116.289223 181.730204 
L 115.829679 182.32396 
L 115.386344 182.917716 
L 114.964271 183.511472 
L 114.567921 184.105228 
L 114.200967 184.698984 
L 113.86617 185.29274 
L 113.565327 185.886496 
L 113.299292 186.480252 
L 113.068049 187.074008 
L 112.870829 187.667764 
L 112.706253 188.26152 
L 112.572491 188.855276 
L 112.467404 189.449032 
L 112.388685 190.042788 
L 112.333965 190.636544 
L 112.30089 191.2303 
L 112.287168 191.824056 
L 112.290591 192.417812 
L 112.309022 193.011568 
L 112.340372 193.605324 
L 112.382566 194.19908 
L 112.433505 194.792836 
L 112.491038 195.386592 
L 112.552945 195.980348 
L 112.616941 196.574104 
L 112.680696 197.16786 
L 112.741885 197.761616 
L 112.798246 198.355372 
L 112.847662 198.949128 
L 112.888239 199.542884 
L 112.918396 200.13664 
L 112.936933 200.730396 
L 112.943097 201.324152 
L 112.943097 201.324152 
z
" clip-path="url(#pbd8b0024a8)" style="fill: none; stroke: #000000; stroke-opacity: 0.3"/>
   </g>
   <g id="FillBetweenPolyCollection_9">
    <path d="M 124.650884 177.850114 
L 99.203661 177.850114 
L 98.722858 177.282813 
L 98.25087 176.715512 
L 97.78902 176.148211 
L 97.338567 175.58091 
L 96.900703 175.013609 
L 96.476565 174.446308 
L 96.067236 173.879007 
L 95.673757 173.311706 
L 95.29713 172.744405 
L 94.938332 172.177104 
L 94.598315 171.609803 
L 94.278015 171.042502 
L 93.978357 170.475201 
L 93.700253 169.9079 
L 93.444609 169.340599 
L 93.212311 168.773298 
L 93.004233 168.205997 
L 92.821219 167.638696 
L 92.664079 167.071395 
L 92.533578 166.504094 
L 92.430421 165.936793 
L 92.355242 165.369492 
L 92.308588 164.802191 
L 92.290909 164.23489 
L 92.302541 163.667589 
L 92.343698 163.100288 
L 92.414459 162.532987 
L 92.51476 161.965686 
L 92.644393 161.398385 
L 92.802996 160.831084 
L 92.990055 160.263783 
L 93.204907 159.696482 
L 93.446743 159.129181 
L 93.714615 158.56188 
L 94.00744 157.994579 
L 94.324018 157.427278 
L 94.663035 156.859977 
L 95.023079 156.292676 
L 95.402652 155.725375 
L 95.800181 155.158074 
L 96.214031 154.590773 
L 96.642516 154.023472 
L 97.083908 153.456171 
L 97.536451 152.88887 
L 97.998364 152.321569 
L 98.467851 151.754268 
L 98.943111 151.186967 
L 99.422336 150.619666 
L 99.903725 150.052365 
L 100.385481 149.485064 
L 100.865821 148.917763 
L 101.342979 148.350462 
L 101.815209 147.783161 
L 102.280793 147.21586 
L 102.738049 146.648559 
L 103.185333 146.081258 
L 103.621052 145.513957 
L 104.043671 144.946656 
L 104.451723 144.379355 
L 104.843823 143.812054 
L 105.218675 143.244753 
L 105.575088 142.677452 
L 105.911986 142.110151 
L 106.228423 141.54285 
L 106.523593 140.975549 
L 106.796843 140.408248 
L 107.047681 139.840947 
L 107.275788 139.273646 
L 107.481023 138.706345 
L 107.663429 138.139044 
L 107.823238 137.571743 
L 107.960871 137.004442 
L 108.076936 136.437141 
L 108.172224 135.86984 
L 108.247704 135.302539 
L 108.304511 134.735238 
L 108.343937 134.167937 
L 108.367415 133.600636 
L 108.376504 133.033335 
L 108.372869 132.466034 
L 108.358261 131.898733 
L 108.334496 131.331432 
L 108.303434 130.764131 
L 108.26695 130.19683 
L 108.226916 129.629529 
L 108.185174 129.062228 
L 108.143514 128.494927 
L 108.10365 127.927626 
L 108.067202 127.360325 
L 108.035671 126.793024 
L 108.010426 126.225723 
L 107.992688 125.658422 
L 107.983515 125.091121 
L 107.983795 124.523821 
L 107.994234 123.95652 
L 108.015358 123.389219 
L 108.047509 122.821918 
L 108.090843 122.254617 
L 108.145343 121.687316 
L 115.709202 121.687316 
L 115.709202 121.687316 
L 115.763702 122.254617 
L 115.807037 122.821918 
L 115.839187 123.389219 
L 115.860311 123.95652 
L 115.870751 124.523821 
L 115.87103 125.091121 
L 115.861857 125.658422 
L 115.844119 126.225723 
L 115.818875 126.793024 
L 115.787344 127.360325 
L 115.750895 127.927626 
L 115.711032 128.494927 
L 115.669372 129.062228 
L 115.62763 129.629529 
L 115.587596 130.19683 
L 115.551112 130.764131 
L 115.520049 131.331432 
L 115.496285 131.898733 
L 115.481677 132.466034 
L 115.478041 133.033335 
L 115.48713 133.600636 
L 115.510609 134.167937 
L 115.550035 134.735238 
L 115.606842 135.302539 
L 115.682321 135.86984 
L 115.777609 136.437141 
L 115.893674 137.004442 
L 116.031307 137.571743 
L 116.191117 138.139044 
L 116.373523 138.706345 
L 116.578757 139.273646 
L 116.806864 139.840947 
L 117.057702 140.408248 
L 117.330952 140.975549 
L 117.626123 141.54285 
L 117.94256 142.110151 
L 118.279458 142.677452 
L 118.63587 143.244753 
L 119.010722 143.812054 
L 119.402822 144.379355 
L 119.810875 144.946656 
L 120.233493 145.513957 
L 120.669212 146.081258 
L 121.116496 146.648559 
L 121.573752 147.21586 
L 122.039337 147.783161 
L 122.511567 148.350462 
L 122.988724 148.917763 
L 123.469064 149.485064 
L 123.950821 150.052365 
L 124.432209 150.619666 
L 124.911435 151.186967 
L 125.386694 151.754268 
L 125.856182 152.321569 
L 126.318094 152.88887 
L 126.770637 153.456171 
L 127.21203 154.023472 
L 127.640514 154.590773 
L 128.054364 155.158074 
L 128.451894 155.725375 
L 128.831467 156.292676 
L 129.191511 156.859977 
L 129.530528 157.427278 
L 129.847105 157.994579 
L 130.139931 158.56188 
L 130.407802 159.129181 
L 130.649638 159.696482 
L 130.864491 160.263783 
L 131.05155 160.831084 
L 131.210152 161.398385 
L 131.339785 161.965686 
L 131.440087 162.532987 
L 131.510847 163.100288 
L 131.552004 163.667589 
L 131.563636 164.23489 
L 131.545957 164.802191 
L 131.499304 165.369492 
L 131.424125 165.936793 
L 131.320968 166.504094 
L 131.190466 167.071395 
L 131.033327 167.638696 
L 130.850312 168.205997 
L 130.642234 168.773298 
L 130.409937 169.340599 
L 130.154292 169.9079 
L 129.876189 170.475201 
L 129.576531 171.042502 
L 129.256231 171.609803 
L 128.916213 172.177104 
L 128.557415 172.744405 
L 128.180789 173.311706 
L 127.78731 173.879007 
L 127.377981 174.446308 
L 126.953843 175.013609 
L 126.515979 175.58091 
L 126.065525 176.148211 
L 125.603676 176.715512 
L 125.131687 177.282813 
L 124.650884 177.850114 
L 124.650884 177.850114 
z
" clip-path="url(#pbd8b0024a8)" style="fill: none; stroke: #000000; stroke-opacity: 0.3"/>
   </g>
   <g id="FillBetweenPolyCollection_10">
    <path d="M 114.383757 184.893251 
L 109.470788 184.893251 
L 109.276066 184.445911 
L 109.084655 183.998572 
L 108.895832 183.551233 
L 108.707919 183.103893 
L 108.518367 182.656554 
L 108.323926 182.209215 
L 108.120891 181.761875 
L 107.9054 181.314536 
L 107.673764 180.867197 
L 107.422798 180.419857 
L 107.150123 179.972518 
L 106.854411 179.525179 
L 106.535547 179.077839 
L 106.194695 178.6305 
L 105.834248 178.183161 
L 105.457677 177.735821 
L 105.069274 177.288482 
L 104.673815 176.841143 
L 104.276169 176.393803 
L 103.880884 175.946464 
L 103.491789 175.499125 
L 103.111638 175.051785 
L 102.741848 174.604446 
L 102.38234 174.157107 
L 102.031522 173.709767 
L 101.686404 173.262428 
L 101.342864 172.815089 
L 100.996029 172.367749 
L 100.640761 171.92041 
L 100.272189 171.473071 
L 99.886263 171.025731 
L 99.480254 170.578392 
L 99.05316 170.131053 
L 98.605978 169.683713 
L 98.141788 169.236374 
L 97.665646 168.789035 
L 97.18428 168.341695 
L 96.705612 167.894356 
L 96.238145 167.447017 
L 95.790276 166.999677 
L 95.369601 166.552338 
L 94.982289 166.104999 
L 94.632586 165.65766 
L 94.322508 165.21032 
L 94.051757 164.762981 
L 93.817866 164.315642 
L 93.616571 163.868302 
L 93.442348 163.420963 
L 93.289079 162.973624 
L 93.150768 162.526284 
L 93.022225 162.078945 
L 92.899659 161.631606 
L 92.781105 161.184266 
L 92.666668 160.736927 
L 92.55854 160.289588 
L 92.460818 159.842248 
L 92.37913 159.394909 
L 92.320129 158.94757 
L 92.290909 158.50023 
L 92.298399 158.052891 
L 92.348799 157.605552 
L 92.447114 157.158212 
L 92.596817 156.710873 
L 92.799663 156.263534 
L 93.05566 155.816194 
L 93.363183 155.368855 
L 93.719205 154.921516 
L 94.119596 154.474176 
L 94.559473 154.026837 
L 95.033531 153.579498 
L 95.536349 153.132158 
L 96.062622 152.684819 
L 96.60732 152.23748 
L 97.165767 151.79014 
L 97.733646 151.342801 
L 98.306954 150.895462 
L 98.881938 150.448122 
L 99.455018 150.000783 
L 100.022747 149.553444 
L 100.581806 149.106104 
L 101.129062 148.658765 
L 101.661666 148.211426 
L 102.177196 147.764087 
L 102.673824 147.316747 
L 103.150462 146.869408 
L 103.606881 146.422069 
L 104.043764 145.974729 
L 104.462676 145.52739 
L 104.865952 145.080051 
L 105.256488 144.632711 
L 105.63748 144.185372 
L 106.012107 143.738033 
L 106.383211 143.290693 
L 106.753009 142.843354 
L 107.122848 142.396015 
L 107.493062 141.948675 
L 107.862921 141.501336 
L 108.230676 141.053997 
L 108.593717 140.606657 
L 115.260829 140.606657 
L 115.260829 140.606657 
L 115.623869 141.053997 
L 115.991625 141.501336 
L 116.361483 141.948675 
L 116.731698 142.396015 
L 117.101537 142.843354 
L 117.471334 143.290693 
L 117.842439 143.738033 
L 118.217065 144.185372 
L 118.598057 144.632711 
L 118.988594 145.080051 
L 119.391869 145.52739 
L 119.810782 145.974729 
L 120.247664 146.422069 
L 120.704083 146.869408 
L 121.180721 147.316747 
L 121.677349 147.764087 
L 122.19288 148.211426 
L 122.725483 148.658765 
L 123.272739 149.106104 
L 123.831799 149.553444 
L 124.399527 150.000783 
L 124.972607 150.448122 
L 125.547591 150.895462 
L 126.1209 151.342801 
L 126.688778 151.79014 
L 127.247225 152.23748 
L 127.791924 152.684819 
L 128.318197 153.132158 
L 128.821014 153.579498 
L 129.295073 154.026837 
L 129.734949 154.474176 
L 130.135341 154.921516 
L 130.491362 155.368855 
L 130.798886 155.816194 
L 131.054882 156.263534 
L 131.257728 156.710873 
L 131.407431 157.158212 
L 131.505747 157.605552 
L 131.556147 158.052891 
L 131.563636 158.50023 
L 131.534416 158.94757 
L 131.475415 159.394909 
L 131.393727 159.842248 
L 131.296005 160.289588 
L 131.187878 160.736927 
L 131.073441 161.184266 
L 130.954887 161.631606 
L 130.83232 162.078945 
L 130.703778 162.526284 
L 130.565467 162.973624 
L 130.412198 163.420963 
L 130.237974 163.868302 
L 130.036679 164.315642 
L 129.802789 164.762981 
L 129.532037 165.21032 
L 129.221959 165.65766 
L 128.872256 166.104999 
L 128.484944 166.552338 
L 128.06427 166.999677 
L 127.6164 167.447017 
L 127.148933 167.894356 
L 126.670265 168.341695 
L 126.188899 168.789035 
L 125.712757 169.236374 
L 125.248567 169.683713 
L 124.801385 170.131053 
L 124.374292 170.578392 
L 123.968282 171.025731 
L 123.582356 171.473071 
L 123.213785 171.92041 
L 122.858516 172.367749 
L 122.511682 172.815089 
L 122.168142 173.262428 
L 121.823024 173.709767 
L 121.472205 174.157107 
L 121.112697 174.604446 
L 120.742907 175.051785 
L 120.362757 175.499125 
L 119.973661 175.946464 
L 119.578377 176.393803 
L 119.180731 176.841143 
L 118.785271 177.288482 
L 118.396868 177.735821 
L 118.020297 178.183161 
L 117.659851 178.6305 
L 117.318998 179.077839 
L 117.000135 179.525179 
L 116.704423 179.972518 
L 116.431747 180.419857 
L 116.180781 180.867197 
L 115.949145 181.314536 
L 115.733654 181.761875 
L 115.530619 182.209215 
L 115.336178 182.656554 
L 115.146626 183.103893 
L 114.958713 183.551233 
L 114.769891 183.998572 
L 114.57848 184.445911 
L 114.383757 184.893251 
L 114.383757 184.893251 
z
" clip-path="url(#pbd8b0024a8)" style="fill: none; stroke: #000000; stroke-opacity: 0.3"/>
   </g>
   <g id="FillBetweenPolyCollection_11">
    <path d="M 115.836849 181.629844 
L 108.017697 181.629844 
L 107.805816 181.219199 
L 107.591084 180.808554 
L 107.373065 180.397908 
L 107.151163 179.987263 
L 106.924636 179.576617 
L 106.692612 179.165972 
L 106.454118 178.755327 
L 106.208101 178.344681 
L 105.953468 177.934036 
L 105.689116 177.523391 
L 105.413969 177.112745 
L 105.127016 176.7021 
L 104.82734 176.291455 
L 104.51416 175.880809 
L 104.18685 175.470164 
L 103.844972 175.059519 
L 103.488291 174.648873 
L 103.116793 174.238228 
L 102.730693 173.827582 
L 102.330442 173.416937 
L 101.916723 173.006292 
L 101.490451 172.595646 
L 101.052761 172.185001 
L 100.604994 171.774356 
L 100.14869 171.36371 
L 99.685564 170.953065 
L 99.217495 170.54242 
L 98.746502 170.131774 
L 98.274729 169.721129 
L 97.804429 169.310484 
L 97.337939 168.899838 
L 96.877666 168.489193 
L 96.426071 168.078547 
L 95.985646 167.667902 
L 95.558897 167.257257 
L 95.148329 166.846611 
L 94.75642 166.435966 
L 94.385607 166.025321 
L 94.038261 165.614675 
L 93.71667 165.20403 
L 93.423017 164.793385 
L 93.159355 164.382739 
L 92.927593 163.972094 
L 92.729476 163.561449 
L 92.566562 163.150803 
L 92.440212 162.740158 
L 92.351575 162.329512 
L 92.301576 161.918867 
L 92.290909 161.508222 
L 92.320029 161.097576 
L 92.389149 160.686931 
L 92.498239 160.276286 
L 92.647026 159.86564 
L 92.834994 159.454995 
L 93.061389 159.04435 
L 93.32522 158.633704 
L 93.625264 158.223059 
L 93.960068 157.812414 
L 94.327959 157.401768 
L 94.727042 156.991123 
L 95.155215 156.580477 
L 95.610168 156.169832 
L 96.089401 155.759187 
L 96.590233 155.348541 
L 97.109815 154.937896 
L 97.645156 154.527251 
L 98.19314 154.116605 
L 98.750557 153.70596 
L 99.314131 153.295315 
L 99.880556 152.884669 
L 100.446535 152.474024 
L 101.008817 152.063379 
L 101.564242 151.652733 
L 102.109782 151.242088 
L 102.64258 150.831442 
L 103.159994 150.420797 
L 103.659635 150.010152 
L 104.139396 149.599506 
L 104.597483 149.188861 
L 105.03244 148.778216 
L 105.443163 148.36757 
L 105.828912 147.956925 
L 106.18931 147.54628 
L 106.524345 147.135634 
L 106.834352 146.724989 
L 107.119994 146.314344 
L 107.382243 145.903698 
L 107.622338 145.493053 
L 107.841759 145.082407 
L 108.042173 144.671762 
L 108.225401 144.261117 
L 108.39336 143.850471 
L 108.548021 143.439826 
L 108.69136 143.029181 
L 108.825308 142.618535 
L 108.951711 142.20789 
L 109.072288 141.797245 
L 109.188597 141.386599 
L 109.302008 140.975954 
L 114.552538 140.975954 
L 114.552538 140.975954 
L 114.665949 141.386599 
L 114.782258 141.797245 
L 114.902834 142.20789 
L 115.029237 142.618535 
L 115.163185 143.029181 
L 115.306524 143.439826 
L 115.461186 143.850471 
L 115.629145 144.261117 
L 115.812372 144.671762 
L 116.012787 145.082407 
L 116.232207 145.493053 
L 116.472303 145.903698 
L 116.734551 146.314344 
L 117.020194 146.724989 
L 117.3302 147.135634 
L 117.665235 147.54628 
L 118.025634 147.956925 
L 118.411382 148.36757 
L 118.822105 148.778216 
L 119.257063 149.188861 
L 119.71515 149.599506 
L 120.19491 150.010152 
L 120.694551 150.420797 
L 121.211966 150.831442 
L 121.744764 151.242088 
L 122.290303 151.652733 
L 122.845728 152.063379 
L 123.408011 152.474024 
L 123.97399 152.884669 
L 124.540415 153.295315 
L 125.103989 153.70596 
L 125.661405 154.116605 
L 126.20939 154.527251 
L 126.74473 154.937896 
L 127.264313 155.348541 
L 127.765144 155.759187 
L 128.244377 156.169832 
L 128.699331 156.580477 
L 129.127503 156.991123 
L 129.526587 157.401768 
L 129.894477 157.812414 
L 130.229282 158.223059 
L 130.529325 158.633704 
L 130.793156 159.04435 
L 131.019551 159.454995 
L 131.20752 159.86564 
L 131.356307 160.276286 
L 131.465397 160.686931 
L 131.534517 161.097576 
L 131.563636 161.508222 
L 131.552969 161.918867 
L 131.502971 162.329512 
L 131.414334 162.740158 
L 131.287984 163.150803 
L 131.12507 163.561449 
L 130.926952 163.972094 
L 130.695191 164.382739 
L 130.431529 164.793385 
L 130.137875 165.20403 
L 129.816284 165.614675 
L 129.468939 166.025321 
L 129.098126 166.435966 
L 128.706217 166.846611 
L 128.295648 167.257257 
L 127.8689 167.667902 
L 127.428474 168.078547 
L 126.976879 168.489193 
L 126.516607 168.899838 
L 126.050117 169.310484 
L 125.579816 169.721129 
L 125.108044 170.131774 
L 124.637051 170.54242 
L 124.168981 170.953065 
L 123.705856 171.36371 
L 123.249551 171.774356 
L 122.801785 172.185001 
L 122.364094 172.595646 
L 121.937822 173.006292 
L 121.524104 173.416937 
L 121.123853 173.827582 
L 120.737753 174.238228 
L 120.366255 174.648873 
L 120.009574 175.059519 
L 119.667695 175.470164 
L 119.340386 175.880809 
L 119.027205 176.291455 
L 118.72753 176.7021 
L 118.440576 177.112745 
L 118.165429 177.523391 
L 117.901077 177.934036 
L 117.646445 178.344681 
L 117.400428 178.755327 
L 117.161933 179.165972 
L 116.92991 179.576617 
L 116.703383 179.987263 
L 116.481481 180.397908 
L 116.263462 180.808554 
L 116.04873 181.219199 
L 115.836849 181.629844 
L 115.836849 181.629844 
z
" clip-path="url(#pbd8b0024a8)" style="fill: none; stroke: #000000; stroke-opacity: 0.3"/>
   </g>
   <g id="FillBetweenPolyCollection_12">
    <path d="M 112.215159 218.258353 
L 111.639387 218.258353 
L 111.647441 217.286496 
L 111.670276 216.31464 
L 111.704269 215.342784 
L 111.744442 214.370928 
L 111.785648 213.399072 
L 111.823619 212.427216 
L 111.855595 211.455359 
L 111.88044 210.483503 
L 111.898359 209.511647 
L 111.910397 208.539791 
L 111.917939 207.567935 
L 111.922321 206.596078 
L 111.9246 205.624222 
L 111.925454 204.652366 
L 111.925141 203.68051 
L 111.923465 202.708654 
L 111.919691 201.736797 
L 111.912413 200.764941 
L 111.899383 199.793085 
L 111.877379 198.821229 
L 111.842177 197.849373 
L 111.788761 196.877516 
L 111.711803 195.90566 
L 111.606455 194.933804 
L 111.469357 193.961948 
L 111.299704 192.990092 
L 111.100141 192.018235 
L 110.877227 191.046379 
L 110.641258 190.074523 
L 110.405277 189.102667 
L 110.183221 188.130811 
L 109.987318 187.158954 
L 109.825067 186.187098 
L 109.696334 185.215242 
L 109.591303 184.243386 
L 109.489959 183.27153 
L 109.363558 182.299674 
L 109.178064 181.327817 
L 108.898965 180.355961 
L 108.49643 179.384105 
L 107.949595 178.412249 
L 107.249022 177.440393 
L 106.39694 176.468536 
L 105.405642 175.49668 
L 104.294939 174.524824 
L 103.089735 173.552968 
L 101.8184 172.581112 
L 100.511988 171.609255 
L 99.203826 170.637399 
L 97.928848 169.665543 
L 96.722326 168.693687 
L 95.61803 167.721831 
L 94.646081 166.749974 
L 93.830654 165.778118 
L 93.18766 164.806262 
L 92.722687 163.834406 
L 92.429966 162.86255 
L 92.293466 161.890693 
L 92.290909 160.918837 
L 92.400367 159.946981 
L 92.607633 158.975125 
L 92.911595 158.003269 
L 93.325091 157.031412 
L 93.870269 156.059556 
L 94.569642 155.0877 
L 95.435759 154.115844 
L 96.46299 153.143988 
L 97.62421 152.172132 
L 98.873414 151.200275 
L 100.153447 150.228419 
L 101.406485 149.256563 
L 102.58421 148.284707 
L 103.654894 147.312851 
L 104.605681 146.340994 
L 105.440024 145.369138 
L 106.171766 144.397282 
L 106.81837 143.425426 
L 107.39567 142.45357 
L 107.915525 141.481713 
L 108.386251 140.509857 
L 108.814487 139.538001 
L 109.206858 138.566145 
L 109.570278 137.594289 
L 109.91084 136.622432 
L 110.232094 135.650576 
L 110.533826 134.67872 
L 110.812071 133.706864 
L 111.060428 132.735008 
L 111.272102 131.763151 
L 111.441907 130.791295 
L 111.567634 129.819439 
L 111.650567 128.847583 
L 111.695287 127.875727 
L 111.709035 126.90387 
L 111.700865 125.932014 
L 111.680673 124.960158 
L 111.658122 123.988302 
L 111.64149 123.016446 
L 111.636619 122.04459 
L 112.217927 122.04459 
L 112.217927 122.04459 
L 112.213055 123.016446 
L 112.196423 123.988302 
L 112.173872 124.960158 
L 112.153681 125.932014 
L 112.14551 126.90387 
L 112.159258 127.875727 
L 112.203979 128.847583 
L 112.286912 129.819439 
L 112.412639 130.791295 
L 112.582444 131.763151 
L 112.794117 132.735008 
L 113.042474 133.706864 
L 113.320719 134.67872 
L 113.622451 135.650576 
L 113.943706 136.622432 
L 114.284267 137.594289 
L 114.647687 138.566145 
L 115.040058 139.538001 
L 115.468295 140.509857 
L 115.93902 141.481713 
L 116.458876 142.45357 
L 117.036175 143.425426 
L 117.682779 144.397282 
L 118.414522 145.369138 
L 119.248864 146.340994 
L 120.199652 147.312851 
L 121.270335 148.284707 
L 122.448061 149.256563 
L 123.701098 150.228419 
L 124.981132 151.200275 
L 126.230335 152.172132 
L 127.391555 153.143988 
L 128.418787 154.115844 
L 129.284903 155.0877 
L 129.984277 156.059556 
L 130.529455 157.031412 
L 130.94295 158.003269 
L 131.246913 158.975125 
L 131.454179 159.946981 
L 131.563636 160.918837 
L 131.56108 161.890693 
L 131.42458 162.86255 
L 131.131858 163.834406 
L 130.666885 164.806262 
L 130.023891 165.778118 
L 129.208464 166.749974 
L 128.236515 167.721831 
L 127.13222 168.693687 
L 125.925697 169.665543 
L 124.65072 170.637399 
L 123.342558 171.609255 
L 122.036146 172.581112 
L 120.764811 173.552968 
L 119.559607 174.524824 
L 118.448904 175.49668 
L 117.457605 176.468536 
L 116.605524 177.440393 
L 115.90495 178.412249 
L 115.358116 179.384105 
L 114.95558 180.355961 
L 114.676481 181.327817 
L 114.490988 182.299674 
L 114.364587 183.27153 
L 114.263243 184.243386 
L 114.158212 185.215242 
L 114.029479 186.187098 
L 113.867227 187.158954 
L 113.671325 188.130811 
L 113.449268 189.102667 
L 113.213287 190.074523 
L 112.977319 191.046379 
L 112.754404 192.018235 
L 112.554841 192.990092 
L 112.385189 193.961948 
L 112.248091 194.933804 
L 112.142742 195.90566 
L 112.065784 196.877516 
L 112.012368 197.849373 
L 111.977167 198.821229 
L 111.955162 199.793085 
L 111.942133 200.764941 
L 111.934855 201.736797 
L 111.931081 202.708654 
L 111.929404 203.68051 
L 111.929092 204.652366 
L 111.929945 205.624222 
L 111.932225 206.596078 
L 111.936607 207.567935 
L 111.944149 208.539791 
L 111.956187 209.511647 
L 111.974105 210.483503 
L 111.998951 211.455359 
L 112.030926 212.427216 
L 112.068898 213.399072 
L 112.110103 214.370928 
L 112.150276 215.342784 
L 112.18427 216.31464 
L 112.207105 217.286496 
L 112.215159 218.258353 
L 112.215159 218.258353 
z
" clip-path="url(#pbd8b0024a8)" style="fill: none; stroke: #000000; stroke-opacity: 0.3"/>
   </g>
   <g id="FillBetweenPolyCollection_13">
    <path d="M 113.015098 195.480208 
L 110.839448 195.480208 
L 110.731471 194.841282 
L 110.630742 194.202356 
L 110.539499 193.563431 
L 110.459089 192.924505 
L 110.389688 192.285579 
L 110.330072 191.646654 
L 110.277489 191.007728 
L 110.227655 190.368802 
L 110.174884 189.729877 
L 110.112361 189.090951 
L 110.032533 188.452025 
L 109.927611 187.8131 
L 109.790107 187.174174 
L 109.613396 186.535248 
L 109.392216 185.896323 
L 109.123077 185.257397 
L 108.804525 184.618471 
L 108.437247 183.979546 
L 108.023982 183.34062 
L 107.569265 182.701694 
L 107.079017 182.062769 
L 106.560014 181.423843 
L 106.01929 180.784917 
L 105.463534 180.145992 
L 104.898528 179.507066 
L 104.328693 178.868141 
L 103.756778 178.229215 
L 103.183739 177.590289 
L 102.608814 176.951364 
L 102.029792 176.312438 
L 101.443462 175.673512 
L 100.8462 175.034587 
L 100.234641 174.395661 
L 99.606365 173.756735 
L 98.960551 173.11781 
L 98.298507 172.478884 
L 97.624031 171.839958 
L 96.943556 171.201033 
L 96.266052 170.562107 
L 95.602675 169.923181 
L 94.966203 169.284256 
L 94.370285 168.64533 
L 93.828599 168.006404 
L 93.353977 167.367479 
L 92.957614 166.728553 
L 92.648412 166.089627 
L 92.432544 165.450702 
L 92.313257 164.811776 
L 92.290909 164.17285 
L 92.363218 163.533925 
L 92.525657 162.894999 
L 92.77193 162.256074 
L 93.094461 161.617148 
L 93.484841 160.978222 
L 93.934205 160.339297 
L 94.433531 159.700371 
L 94.973865 159.061445 
L 95.546508 158.42252 
L 96.143181 157.783594 
L 96.756181 157.144668 
L 97.378538 156.505743 
L 98.004156 155.866817 
L 98.627912 155.227891 
L 99.245692 154.588966 
L 99.85435 153.95004 
L 100.45158 153.311114 
L 101.035722 152.672189 
L 101.605524 152.033263 
L 102.159918 151.394337 
L 102.697821 150.755412 
L 103.218022 150.116486 
L 103.71916 149.47756 
L 104.199786 148.838635 
L 104.658495 148.199709 
L 105.094093 147.560783 
L 105.505749 146.921858 
L 105.893118 146.282932 
L 106.256374 145.644007 
L 106.596174 145.005081 
L 106.91355 144.366155 
L 107.209739 143.72723 
L 107.486011 143.088304 
L 107.743511 142.449378 
L 107.983162 141.810453 
L 108.205639 141.171527 
L 108.411441 140.532601 
L 108.601024 139.893676 
L 108.774998 139.25475 
L 108.93432 138.615824 
L 109.080463 137.976899 
L 109.215504 137.337973 
L 109.342121 136.699047 
L 109.463458 136.060122 
L 109.582902 135.421196 
L 109.703765 134.78227 
L 109.828946 134.143345 
L 109.960601 133.504419 
L 110.099889 132.865493 
L 110.24683 132.226568 
L 113.607715 132.226568 
L 113.607715 132.226568 
L 113.754656 132.865493 
L 113.893945 133.504419 
L 114.0256 134.143345 
L 114.15078 134.78227 
L 114.271644 135.421196 
L 114.391087 136.060122 
L 114.512425 136.699047 
L 114.639041 137.337973 
L 114.774083 137.976899 
L 114.920225 138.615824 
L 115.079547 139.25475 
L 115.253521 139.893676 
L 115.443105 140.532601 
L 115.648906 141.171527 
L 115.871384 141.810453 
L 116.111034 142.449378 
L 116.368535 143.088304 
L 116.644807 143.72723 
L 116.940996 144.366155 
L 117.258371 145.005081 
L 117.598172 145.644007 
L 117.961427 146.282932 
L 118.348796 146.921858 
L 118.760453 147.560783 
L 119.19605 148.199709 
L 119.654759 148.838635 
L 120.135385 149.47756 
L 120.636524 150.116486 
L 121.156725 150.755412 
L 121.694627 151.394337 
L 122.249021 152.033263 
L 122.818824 152.672189 
L 123.402965 153.311114 
L 124.000195 153.95004 
L 124.608853 154.588966 
L 125.226633 155.227891 
L 125.850389 155.866817 
L 126.476008 156.505743 
L 127.098365 157.144668 
L 127.711364 157.783594 
L 128.308037 158.42252 
L 128.88068 159.061445 
L 129.421014 159.700371 
L 129.92034 160.339297 
L 130.369705 160.978222 
L 130.760085 161.617148 
L 131.082616 162.256074 
L 131.328889 162.894999 
L 131.491328 163.533925 
L 131.563636 164.17285 
L 131.541288 164.811776 
L 131.422001 165.450702 
L 131.206134 166.089627 
L 130.896931 166.728553 
L 130.500568 167.367479 
L 130.025947 168.006404 
L 129.48426 168.64533 
L 128.888343 169.284256 
L 128.25187 169.923181 
L 127.588494 170.562107 
L 126.910989 171.201033 
L 126.230515 171.839958 
L 125.556038 172.478884 
L 124.893994 173.11781 
L 124.248181 173.756735 
L 123.619905 174.395661 
L 123.008345 175.034587 
L 122.411084 175.673512 
L 121.824754 176.312438 
L 121.245731 176.951364 
L 120.670806 177.590289 
L 120.097768 178.229215 
L 119.525853 178.868141 
L 118.956017 179.507066 
L 118.391012 180.145992 
L 117.835256 180.784917 
L 117.294532 181.423843 
L 116.775528 182.062769 
L 116.28528 182.701694 
L 115.830563 183.34062 
L 115.417298 183.979546 
L 115.05002 184.618471 
L 114.731469 185.257397 
L 114.462329 185.896323 
L 114.241149 186.535248 
L 114.064439 187.174174 
L 113.926935 187.8131 
L 113.822012 188.452025 
L 113.742185 189.090951 
L 113.679661 189.729877 
L 113.626891 190.368802 
L 113.577057 191.007728 
L 113.524473 191.646654 
L 113.464857 192.285579 
L 113.395456 192.924505 
L 113.315046 193.563431 
L 113.223803 194.202356 
L 113.123075 194.841282 
L 113.015098 195.480208 
L 113.015098 195.480208 
z
" clip-path="url(#pbd8b0024a8)" style="fill: none; stroke: #000000; stroke-opacity: 0.3"/>
   </g>
   <g id="matplotlib.axis_1"/>
   <g id="matplotlib.axis_2">
    <g id="ytick_1">
     <g id="line2d_1">
      <defs>
       <path id="m530698d0f1" d="M 0 0 
L -3.5 0 
" style="stroke: #000000; stroke-width: 0.8"/>
      </defs>
      <g>
       <use xlink:href="#m530698d0f1" x="21.6" y="291.6" style="stroke: #000000; stroke-width: 0.8"/>
      </g>
     </g>
    </g>
    <g id="ytick_2">
     <g id="line2d_2">
      <g>
       <use xlink:href="#m530698d0f1" x="21.6" y="236.52" style="stroke: #000000; stroke-width: 0.8"/>
      </g>
     </g>
    </g>
    <g id="ytick_3">
     <g id="line2d_3">
      <g>
       <use xlink:href="#m530698d0f1" x="21.6" y="181.44" style="stroke: #000000; stroke-width: 0.8"/>
      </g>
     </g>
    </g>
    <g id="ytick_4">
     <g id="line2d_4">
      <g>
       <use xlink:href="#m530698d0f1" x="21.6" y="126.36" style="stroke: #000000; stroke-width: 0.8"/>
      </g>
     </g>
    </g>
    <g id="ytick_5">
     <g id="line2d_5">
      <g>
       <use xlink:href="#m530698d0f1" x="21.6" y="71.28" style="stroke: #000000; stroke-width: 0.8"/>
      </g>
     </g>
    </g>
    <g id="ytick_6">
     <g id="line2d_6">
      <g>
       <use xlink:href="#m530698d0f1" x="21.6" y="16.2" style="stroke: #000000; stroke-width: 0.8"/>
      </g>
     </g>
    </g>
   </g>
   <g id="line2d_7">
    <path d="M 46.472727 269.568 
L 46.472727 264.06 
" clip-path="url(#pbd8b0024a8)" style="fill: none; stroke: #000000; stroke-linecap: square"/>
   </g>
   <g id="line2d_8">
    <path d="M 46.472727 269.568 
L 111.927273 269.568 
" clip-path="url(#pbd8b0024a8)" style="fill: none; stroke: #000000; stroke-linecap: square"/>
   </g>
   <g id="line2d_9">
    <path d="M 111.927273 269.568 
L 111.927273 264.06 
" clip-path="url(#pbd8b0024a8)" style="fill: none; stroke: #000000; stroke-linecap: square"/>
   </g>
   <g id="patch_3">
    <path d="M 21.6 291.6 
L 21.6 16.2 
" style="fill: none; stroke: #000000; stroke-width: 0.8; stroke-linejoin: miter; stroke-linecap: square"/>
   </g>
   <g id="patch_4">
    <path d="M 136.8 291.6 
L 136.8 16.2 
" style="fill: none; stroke: #000000; stroke-width: 0.8; stroke-linejoin: miter; stroke-linecap: square"/>
   </g>
   <g id="patch_5">
    <path d="M 21.6 291.6 
L 136.8 291.6 
" style="fill: none; stroke: #000000; stroke-width: 0.8; stroke-linejoin: miter; stroke-linecap: square"/>
   </g>
   <g id="patch_6">
    <path d="M 21.6 16.2 
L 136.8 16.2 
" style="fill: none; stroke: #000000; stroke-width: 0.8; stroke-linejoin: miter; stroke-linecap: square"/>
   </g>
   <g id="text_1">
    <text style="font-weight: 700; font-size: 12px; font-family: 'DejaVu Sans', 'Bitstream Vera Sans', 'Computer Modern Sans Serif', 'Lucida Grande', 'Verdana', 'Geneva', 'Lucid', 'Arial', 'Helvetica', 'Avant Garde', sans-serif; text-anchor: middle" x="46.472727" y="289.104375" transform="rotate(-0 46.472727 289.104375)">#37</text>
   </g>
   <g id="text_2">
    <text style="font-weight: 700; font-size: 12px; font-family: 'DejaVu Sans', 'Bitstream Vera Sans', 'Computer Modern Sans Serif', 'Lucida Grande', 'Verdana', 'Geneva', 'Lucid', 'Arial', 'Helvetica', 'Avant Garde', sans-serif; text-anchor: middle" x="111.927273" y="289.104375" transform="rotate(-0 111.927273 289.104375)">#38</text>
   </g>
   <g id="text_3">
    <text style="font-size: 12px; font-family: 'DejaVu Sans', 'Bitstream Vera Sans', 'Computer Modern Sans Serif', 'Lucida Grande', 'Verdana', 'Geneva', 'Lucid', 'Arial', 'Helvetica', 'Avant Garde', sans-serif; text-anchor: middle" x="79.2" y="268.449375" transform="rotate(-0 79.2 268.449375)">****</text>
   </g>
   <g id="line2d_10">
    <path d="M 21.6 146.25506 
L 136.8 146.25506 
" clip-path="url(#pbd8b0024a8)" style="fill: none; stroke-dasharray: 3.7,1.6; stroke-dashoffset: 0; stroke: #808080; stroke-opacity: 0.7"/>
   </g>
   <g id="line2d_11">
    <path d="M 21.6 162.84675 
L 136.8 162.84675 
" clip-path="url(#pbd8b0024a8)" style="fill: none; stroke-dasharray: 3.7,1.6; stroke-dashoffset: 0; stroke: #808080; stroke-opacity: 0.7"/>
   </g>
   <g id="LineCollection_1">
    <path d="M 46.472727 149.061937 
L 46.472727 143.448183 
" clip-path="url(#pbd8b0024a8)" style="fill: none; stroke: #000000; stroke-width: 2"/>
   </g>
   <g id="line2d_12">
    <defs>
     <path id="me1991bccb5" d="M 5 0 
L -5 -0 
" style="stroke: #000000; stroke-width: 2"/>
    </defs>
    <g clip-path="url(#pbd8b0024a8)">
     <use xlink:href="#me1991bccb5" x="46.472727" y="149.061937" style="stroke: #000000; stroke-width: 2"/>
    </g>
   </g>
   <g id="line2d_13">
    <g clip-path="url(#pbd8b0024a8)">
     <use xlink:href="#me1991bccb5" x="46.472727" y="143.448183" style="stroke: #000000; stroke-width: 2"/>
    </g>
   </g>
   <g id="LineCollection_2">
    <path d="M 111.927273 164.82122 
L 111.927273 160.872281 
" clip-path="url(#pbd8b0024a8)" style="fill: none; stroke: #000000; stroke-width: 2"/>
   </g>
   <g id="line2d_14">
    <g clip-path="url(#pbd8b0024a8)">
     <use xlink:href="#me1991bccb5" x="111.927273" y="164.82122" style="stroke: #000000; stroke-width: 2"/>
    </g>
   </g>
   <g id="line2d_15">
    <g clip-path="url(#pbd8b0024a8)">
     <use xlink:href="#me1991bccb5" x="111.927273" y="160.872281" style="stroke: #000000; stroke-width: 2"/>
    </g>
   </g>
   <g id="line2d_16">
    <defs>
     <path id="m31fe5ef094" d="M 0 4 
C 1.060812 4 2.078319 3.578535 2.828427 2.828427 
C 3.578535 2.078319 4 1.060812 4 0 
C 4 -1.060812 3.578535 -2.078319 2.828427 -2.828427 
C 2.078319 -3.578535 1.060812 -4 0 -4 
C -1.060812 -4 -2.078319 -3.578535 -2.828427 -2.828427 
C -3.578535 -2.078319 -4 -1.060812 -4 0 
C -4 1.060812 -3.578535 2.078319 -2.828427 2.828427 
C -2.078319 3.578535 -1.060812 4 0 4 
z
" style="stroke: #000000"/>
    </defs>
    <g clip-path="url(#pbd8b0024a8)">
     <use xlink:href="#m31fe5ef094" x="46.472727" y="146.25506" style="stroke: #000000"/>
    </g>
   </g>
   <g id="line2d_17">
    <g clip-path="url(#pbd8b0024a8)">
     <use xlink:href="#m31fe5ef094" x="111.927273" y="162.84675" style="stroke: #000000"/>
    </g>
   </g>
  </g>
 </g>
 <defs>
  <clipPath id="pbd8b0024a8">
   <rect x="21.6" y="16.2" width="115.2" height="275.4"/>
  </clipPath>
 </defs>
</svg>
