<?xml version="1.0" encoding="utf-8" standalone="no"?>
<!DOCTYPE svg PUBLIC "-//W3C//DTD SVG 1.1//EN"
  "http://www.w3.org/Graphics/SVG/1.1/DTD/svg11.dtd">
<svg xmlns:xlink="http://www.w3.org/1999/xlink" width="144pt" height="324pt" viewBox="0 0 144 324" xmlns="http://www.w3.org/2000/svg" version="1.1">
 <metadata>
  <rdf:RDF xmlns:dc="http://purl.org/dc/elements/1.1/" xmlns:cc="http://creativecommons.org/ns#" xmlns:rdf="http://www.w3.org/1999/02/22-rdf-syntax-ns#">
   <cc:Work>
    <dc:type rdf:resource="http://purl.org/dc/dcmitype/StillImage"/>
    <dc:date>2025-12-08T20:14:21.413642</dc:date>
    <dc:format>image/svg+xml</dc:format>
    <dc:creator>
     <cc:Agent>
      <dc:title>Matplotlib v3.10.0, https://matplotlib.org/</dc:title>
     </cc:Agent>
    </dc:creator>
   </cc:Work>
  </rdf:RDF>
 </metadata>
 <defs>
  <style type="text/css">*{stroke-linejoin: round; stroke-linecap: butt}</style>
 </defs>
 <g id="figure_1">
  <g id="patch_1">
   <path d="M 0 324 
L 144 324 
L 144 0 
L 0 0 
z
" style="fill: #ffffff"/>
  </g>
  <g id="axes_1">
   <g id="patch_2">
    <path d="M 21.6 291.6 
L 136.8 291.6 
L 136.8 16.2 
L 21.6 16.2 
z
" style="fill: #ffffff"/>
   </g>
   <g id="FillBetweenPolyCollection_1">
    <path d="M 48.318121 257.678101 
L 44.627334 257.678101 
L 44.406225 256.931959 
L 44.163825 256.185816 
L 43.894206 255.439674 
L 43.590564 254.693531 
L 43.245814 253.947388 
L 42.853338 253.201246 
L 42.407828 252.455103 
L 41.906117 251.70896 
L 41.3479 250.962818 
L 40.736241 250.216675 
L 40.077781 249.470533 
L 39.382593 248.72439 
L 38.663665 247.978247 
L 37.936035 247.232105 
L 37.215654 246.485962 
L 36.518073 245.739819 
L 35.857091 244.993677 
L 35.243509 244.247534 
L 34.684138 243.501391 
L 34.181169 242.755249 
L 33.732016 242.009106 
L 33.329646 241.262964 
L 32.963389 240.516821 
L 32.620153 239.770678 
L 32.285908 239.024536 
L 31.947273 238.278393 
L 31.593037 237.53225 
L 31.215423 236.786108 
L 30.810962 236.039965 
L 30.380876 235.293823 
L 29.930929 234.54768 
L 29.470794 233.801537 
L 29.012994 233.055395 
L 28.571583 232.309252 
L 28.160702 231.563109 
L 27.793195 230.816967 
L 27.479436 230.070824 
L 27.226488 229.324681 
L 27.037676 228.578539 
L 26.912599 227.832396 
L 26.847565 227.086254 
L 26.836364 226.340111 
L 26.871276 225.593968 
L 26.944192 224.847826 
L 27.047688 224.101683 
L 27.175951 223.35554 
L 27.325437 222.609398 
L 27.495197 221.863255 
L 27.686857 221.117113 
L 27.904258 220.37097 
L 28.152811 219.624827 
L 28.438662 218.878685 
L 28.767762 218.132542 
L 29.144949 217.386399 
L 29.573151 216.640257 
L 30.052796 215.894114 
L 30.581483 215.147971 
L 31.15395 214.401829 
L 31.762337 213.655686 
L 32.396697 212.909544 
L 33.045718 212.163401 
L 33.697544 211.417258 
L 34.340642 210.671116 
L 34.964599 209.924973 
L 35.560799 209.17883 
L 36.122907 208.432688 
L 36.647147 207.686545 
L 37.132352 206.940403 
L 37.579808 206.19426 
L 37.992928 205.448117 
L 38.376799 204.701975 
L 38.737641 203.955832 
L 39.082249 203.209689 
L 39.417441 202.463547 
L 39.749555 201.717404 
L 40.084027 200.971261 
L 40.425064 200.225119 
L 40.775415 199.478976 
L 41.136253 198.732834 
L 41.507165 197.986691 
L 41.886229 197.240548 
L 42.270193 196.494406 
L 42.654719 195.748263 
L 43.034702 195.00212 
L 43.404622 194.255978 
L 43.758926 193.509835 
L 44.092404 192.763693 
L 44.400543 192.01755 
L 44.679824 191.271407 
L 44.927938 190.525265 
L 45.143911 189.779122 
L 45.328121 189.032979 
L 45.482208 188.286837 
L 45.608884 187.540694 
L 45.711674 186.794551 
L 45.794598 186.048409 
L 45.861844 185.302266 
L 45.917456 184.556124 
L 45.965065 183.809981 
L 46.98039 183.809981 
L 46.98039 183.809981 
L 47.027998 184.556124 
L 47.08361 185.302266 
L 47.150857 186.048409 
L 47.233781 186.794551 
L 47.33657 187.540694 
L 47.463247 188.286837 
L 47.617333 189.032979 
L 47.801544 189.779122 
L 48.017516 190.525265 
L 48.26563 191.271407 
L 48.544911 192.01755 
L 48.853051 192.763693 
L 49.186529 193.509835 
L 49.540832 194.255978 
L 49.910752 195.00212 
L 50.290736 195.748263 
L 50.675262 196.494406 
L 51.059225 197.240548 
L 51.438289 197.986691 
L 51.809201 198.732834 
L 52.17004 199.478976 
L 52.52039 200.225119 
L 52.861427 200.971261 
L 53.1959 201.717404 
L 53.528013 202.463547 
L 53.863205 203.209689 
L 54.207814 203.955832 
L 54.568656 204.701975 
L 54.952526 205.448117 
L 55.365647 206.19426 
L 55.813103 206.940403 
L 56.298308 207.686545 
L 56.822548 208.432688 
L 57.384656 209.17883 
L 57.980855 209.924973 
L 58.604812 210.671116 
L 59.24791 211.417258 
L 59.899737 212.163401 
L 60.548757 212.909544 
L 61.183118 213.655686 
L 61.791504 214.401829 
L 62.363972 215.147971 
L 62.892658 215.894114 
L 63.372304 216.640257 
L 63.800506 217.386399 
L 64.177693 218.132542 
L 64.506793 218.878685 
L 64.792644 219.624827 
L 65.041197 220.37097 
L 65.258597 221.117113 
L 65.450258 221.863255 
L 65.620018 222.609398 
L 65.769503 223.35554 
L 65.897767 224.101683 
L 66.001263 224.847826 
L 66.074178 225.593968 
L 66.109091 226.340111 
L 66.097889 227.086254 
L 66.032856 227.832396 
L 65.907779 228.578539 
L 65.718966 229.324681 
L 65.466018 230.070824 
L 65.152259 230.816967 
L 64.784752 231.563109 
L 64.373871 232.309252 
L 63.93246 233.055395 
L 63.474661 233.801537 
L 63.014525 234.54768 
L 62.564579 235.293823 
L 62.134492 236.039965 
L 61.730032 236.786108 
L 61.352418 237.53225 
L 60.998182 238.278393 
L 60.659547 239.024536 
L 60.325301 239.770678 
L 59.982066 240.516821 
L 59.615809 241.262964 
L 59.213438 242.009106 
L 58.764286 242.755249 
L 58.261317 243.501391 
L 57.701945 244.247534 
L 57.088364 244.993677 
L 56.427381 245.739819 
L 55.7298 246.485962 
L 55.00942 247.232105 
L 54.28179 247.978247 
L 53.562861 248.72439 
L 52.867674 249.470533 
L 52.209214 250.216675 
L 51.597554 250.962818 
L 51.039337 251.70896 
L 50.537626 252.455103 
L 50.092116 253.201246 
L 49.69964 253.947388 
L 49.35489 254.693531 
L 49.051248 255.439674 
L 48.781629 256.185816 
L 48.53923 256.931959 
L 48.318121 257.678101 
L 48.318121 257.678101 
z
" clip-path="url(#p466c08de36)" style="fill: none; stroke: #000000; stroke-opacity: 0.3"/>
   </g>
   <g id="FillBetweenPolyCollection_2">
    <path d="M 46.842156 304.829498 
L 46.103298 304.829498 
L 46.11262 303.624657 
L 46.1392 302.419815 
L 46.179211 301.214973 
L 46.227295 300.010132 
L 46.277728 298.80529 
L 46.325518 297.600448 
L 46.367134 296.395607 
L 46.40076 295.190765 
L 46.426122 293.985923 
L 46.44405 292.781082 
L 46.455961 291.57624 
L 46.463413 290.371398 
L 46.467811 289.166557 
L 46.470262 287.961715 
L 46.471552 286.756873 
L 46.472195 285.552032 
L 46.472498 284.34719 
L 46.472634 283.142348 
L 46.472691 281.937507 
L 46.472714 280.732665 
L 46.472722 279.527823 
L 46.472725 278.322982 
L 46.472725 277.11814 
L 46.472722 275.913298 
L 46.472711 274.708457 
L 46.472683 273.503615 
L 46.472611 272.298773 
L 46.472436 271.093932 
L 46.472031 269.88909 
L 46.471138 268.684248 
L 46.469263 267.479407 
L 46.465513 266.274565 
L 46.458362 265.069723 
L 46.445354 263.864882 
L 46.422763 262.66004 
L 46.385281 261.455198 
L 46.325809 260.250357 
L 46.235468 259.045515 
L 46.103934 257.840673 
L 45.920116 256.635832 
L 45.673146 255.43099 
L 45.353511 254.226148 
L 44.954085 253.021307 
L 44.470772 251.816465 
L 43.902553 250.611623 
L 43.250862 249.406782 
L 42.518474 248.20194 
L 41.708274 246.997098 
L 40.82244 245.792257 
L 39.862528 244.587415 
L 38.830744 243.382573 
L 37.732266 242.177731 
L 36.578054 240.97289 
L 35.387143 239.768048 
L 34.187357 238.563206 
L 33.013592 237.358365 
L 31.903534 236.153523 
L 30.891588 234.948681 
L 30.002662 233.74384 
L 29.247815 232.538998 
L 28.623444 231.334156 
L 28.114603 230.129315 
L 27.701631 228.924473 
L 27.368026 227.719631 
L 27.106944 226.51479 
L 26.92415 225.309948 
L 26.836364 224.105106 
L 26.865523 222.900265 
L 27.030796 221.695423 
L 27.340936 220.490581 
L 27.789512 219.28574 
L 28.354721 218.080898 
L 29.004084 216.876056 
L 29.702781 215.671215 
L 30.423073 214.466373 
L 31.151819 213.261531 
L 31.8935 212.05669 
L 32.667629 210.851848 
L 33.501235 209.647006 
L 34.418735 208.442165 
L 35.432368 207.237323 
L 36.536064 206.032481 
L 37.704418 204.82764 
L 38.896703 203.622798 
L 40.064374 202.417956 
L 41.159632 201.213115 
L 42.142736 200.008273 
L 42.986541 198.803431 
L 43.677905 197.59859 
L 44.216612 196.393748 
L 44.612928 195.188906 
L 44.884869 193.984065 
L 45.055761 192.779223 
L 45.152128 191.574381 
L 45.201624 190.36954 
L 45.230724 189.164698 
L 45.262197 187.959856 
L 45.312729 186.755015 
L 45.391319 185.550173 
L 47.554136 185.550173 
L 47.554136 185.550173 
L 47.632725 186.755015 
L 47.683258 187.959856 
L 47.71473 189.164698 
L 47.743831 190.36954 
L 47.793326 191.574381 
L 47.889693 192.779223 
L 48.060586 193.984065 
L 48.332527 195.188906 
L 48.728842 196.393748 
L 49.267549 197.59859 
L 49.958914 198.803431 
L 50.802719 200.008273 
L 51.785823 201.213115 
L 52.88108 202.417956 
L 54.048751 203.622798 
L 55.241037 204.82764 
L 56.40939 206.032481 
L 57.513087 207.237323 
L 58.526719 208.442165 
L 59.44422 209.647006 
L 60.277826 210.851848 
L 61.051955 212.05669 
L 61.793635 213.261531 
L 62.522381 214.466373 
L 63.242674 215.671215 
L 63.94137 216.876056 
L 64.590734 218.080898 
L 65.155943 219.28574 
L 65.604519 220.490581 
L 65.914659 221.695423 
L 66.079932 222.900265 
L 66.109091 224.105106 
L 66.021304 225.309948 
L 65.83851 226.51479 
L 65.577429 227.719631 
L 65.243823 228.924473 
L 64.830852 230.129315 
L 64.32201 231.334156 
L 63.697639 232.538998 
L 62.942793 233.74384 
L 62.053867 234.948681 
L 61.041921 236.153523 
L 59.931863 237.358365 
L 58.758098 238.563206 
L 57.558312 239.768048 
L 56.367401 240.97289 
L 55.213188 242.177731 
L 54.114711 243.382573 
L 53.082926 244.587415 
L 52.123015 245.792257 
L 51.23718 246.997098 
L 50.42698 248.20194 
L 49.694592 249.406782 
L 49.042901 250.611623 
L 48.474682 251.816465 
L 47.99137 253.021307 
L 47.591944 254.226148 
L 47.272309 255.43099 
L 47.025338 256.635832 
L 46.84152 257.840673 
L 46.709987 259.045515 
L 46.619646 260.250357 
L 46.560173 261.455198 
L 46.522691 262.66004 
L 46.500101 263.864882 
L 46.487092 265.069723 
L 46.479941 266.274565 
L 46.476191 267.479407 
L 46.474316 268.684248 
L 46.473423 269.88909 
L 46.473018 271.093932 
L 46.472843 272.298773 
L 46.472771 273.503615 
L 46.472743 274.708457 
L 46.472733 275.913298 
L 46.47273 277.11814 
L 46.472729 278.322982 
L 46.472732 279.527823 
L 46.472741 280.732665 
L 46.472764 281.937507 
L 46.472821 283.142348 
L 46.472956 284.34719 
L 46.473259 285.552032 
L 46.473902 286.756873 
L 46.475193 287.961715 
L 46.477644 289.166557 
L 46.482041 290.371398 
L 46.489494 291.57624 
L 46.501405 292.781082 
L 46.519333 293.985923 
L 46.544695 295.190765 
L 46.57832 296.395607 
L 46.619936 297.600448 
L 46.667727 298.80529 
L 46.71816 300.010132 
L 46.766243 301.214973 
L 46.806255 302.419815 
L 46.832834 303.624657 
L 46.842156 304.829498 
L 46.842156 304.829498 
z
" clip-path="url(#p466c08de36)" style="fill: none; stroke: #000000; stroke-opacity: 0.3"/>
   </g>
   <g id="FillBetweenPolyCollection_3">
    <path d="M 46.847066 296.946931 
L 46.098388 296.946931 
L 46.10536 295.918808 
L 46.125507 294.890685 
L 46.15666 293.862562 
L 46.195635 292.834439 
L 46.238769 291.806316 
L 46.282478 290.778193 
L 46.32373 289.750071 
L 46.360343 288.721948 
L 46.391086 287.693825 
L 46.415605 286.665702 
L 46.434228 285.637579 
L 46.447721 284.609456 
L 46.457046 283.581334 
L 46.463174 282.553211 
L 46.466948 281.525088 
L 46.469011 280.496965 
L 46.469772 279.468842 
L 46.469395 278.440719 
L 46.467796 277.412596 
L 46.464648 276.384474 
L 46.459381 275.356351 
L 46.451207 274.328228 
L 46.439176 273.300105 
L 46.422283 272.271982 
L 46.399626 271.243859 
L 46.370616 270.215736 
L 46.335185 269.187614 
L 46.293955 268.159491 
L 46.248262 267.131368 
L 46.199995 266.103245 
L 46.151185 265.075122 
L 46.103362 264.046999 
L 46.056767 263.018876 
L 46.009527 261.990754 
L 45.957008 260.962631 
L 45.891469 259.934508 
L 45.802187 258.906385 
L 45.676048 257.878262 
L 45.498583 256.850139 
L 45.255276 255.822016 
L 44.932947 254.793894 
L 44.520989 253.765771 
L 44.012274 252.737648 
L 43.403666 251.709525 
L 42.696147 250.681402 
L 41.894708 249.653279 
L 41.008179 248.625156 
L 40.04915 247.597034 
L 39.034023 246.568911 
L 37.983059 245.540788 
L 36.920138 244.512665 
L 35.871911 243.484542 
L 34.866084 242.456419 
L 33.92885 241.428296 
L 33.081758 240.400174 
L 32.338646 239.372051 
L 31.703369 238.343928 
L 31.168985 237.315805 
L 30.71881 236.287682 
L 30.329287 235.259559 
L 29.974209 234.231436 
L 29.629497 233.203314 
L 29.277573 232.175191 
L 28.910443 231.147068 
L 28.530815 230.118945 
L 28.151013 229.090822 
L 27.789871 228.062699 
L 27.468296 227.034577 
L 27.20454 226.006454 
L 27.010365 224.978331 
L 26.889133 223.950208 
L 26.836364 222.922085 
L 26.8426 221.893962 
L 26.897698 220.865839 
L 26.995182 219.837717 
L 27.135228 218.809594 
L 27.325273 217.781471 
L 27.578035 216.753348 
L 27.907593 215.725225 
L 28.324826 214.697102 
L 28.833728 213.668979 
L 29.429754 212.640857 
L 30.100652 211.612734 
L 30.829398 210.584611 
L 31.598159 209.556488 
L 32.39199 208.528365 
L 33.20113 207.500242 
L 34.021361 206.472119 
L 34.852564 205.443997 
L 35.696189 204.415874 
L 36.552589 203.387751 
L 37.419087 202.359628 
L 38.289259 201.331505 
L 39.15343 200.303382 
L 40.00001 199.275259 
L 40.81709 198.247137 
L 41.593788 197.219014 
L 42.321052 196.190891 
L 42.991904 195.162768 
L 49.953551 195.162768 
L 49.953551 195.162768 
L 50.624403 196.190891 
L 51.351667 197.219014 
L 52.128364 198.247137 
L 52.945445 199.275259 
L 53.792025 200.303382 
L 54.656196 201.331505 
L 55.526367 202.359628 
L 56.392866 203.387751 
L 57.249266 204.415874 
L 58.092891 205.443997 
L 58.924094 206.472119 
L 59.744324 207.500242 
L 60.553464 208.528365 
L 61.347296 209.556488 
L 62.116057 210.584611 
L 62.844802 211.612734 
L 63.5157 212.640857 
L 64.111726 213.668979 
L 64.620629 214.697102 
L 65.037862 215.725225 
L 65.367419 216.753348 
L 65.620182 217.781471 
L 65.810227 218.809594 
L 65.950273 219.837717 
L 66.047757 220.865839 
L 66.102855 221.893962 
L 66.109091 222.922085 
L 66.056322 223.950208 
L 65.93509 224.978331 
L 65.740914 226.006454 
L 65.477158 227.034577 
L 65.155584 228.062699 
L 64.794442 229.090822 
L 64.41464 230.118945 
L 64.035012 231.147068 
L 63.667881 232.175191 
L 63.315958 233.203314 
L 62.971245 234.231436 
L 62.616167 235.259559 
L 62.226644 236.287682 
L 61.77647 237.315805 
L 61.242086 238.343928 
L 60.606808 239.372051 
L 59.863697 240.400174 
L 59.016605 241.428296 
L 58.07937 242.456419 
L 57.073544 243.484542 
L 56.025317 244.512665 
L 54.962396 245.540788 
L 53.911432 246.568911 
L 52.896305 247.597034 
L 51.937276 248.625156 
L 51.050746 249.653279 
L 50.249307 250.681402 
L 49.541788 251.709525 
L 48.93318 252.737648 
L 48.424466 253.765771 
L 48.012507 254.793894 
L 47.690179 255.822016 
L 47.446872 256.850139 
L 47.269406 257.878262 
L 47.143267 258.906385 
L 47.053985 259.934508 
L 46.988447 260.962631 
L 46.935927 261.990754 
L 46.888688 263.018876 
L 46.842092 264.046999 
L 46.79427 265.075122 
L 46.74546 266.103245 
L 46.697193 267.131368 
L 46.6515 268.159491 
L 46.610269 269.187614 
L 46.574839 270.215736 
L 46.545828 271.243859 
L 46.523171 272.271982 
L 46.506278 273.300105 
L 46.494248 274.328228 
L 46.486074 275.356351 
L 46.480806 276.384474 
L 46.477658 277.412596 
L 46.47606 278.440719 
L 46.475682 279.468842 
L 46.476443 280.496965 
L 46.478506 281.525088 
L 46.48228 282.553211 
L 46.488408 283.581334 
L 46.497734 284.609456 
L 46.511226 285.637579 
L 46.529849 286.665702 
L 46.554368 287.693825 
L 46.585112 288.721948 
L 46.621725 289.750071 
L 46.662977 290.778193 
L 46.706686 291.806316 
L 46.74982 292.834439 
L 46.788795 293.862562 
L 46.819947 294.890685 
L 46.840094 295.918808 
L 46.847066 296.946931 
L 46.847066 296.946931 
z
" clip-path="url(#p466c08de36)" style="fill: none; stroke: #000000; stroke-opacity: 0.3"/>
   </g>
   <g id="FillBetweenPolyCollection_4">
    <path d="M 47.537853 314.796156 
L 45.407601 314.796156 
L 45.411091 313.59531 
L 45.424303 312.394463 
L 45.446613 311.193617 
L 45.477076 309.99277 
L 45.514467 308.791923 
L 45.557314 307.591077 
L 45.603957 306.39023 
L 45.652598 305.189384 
L 45.701368 303.988537 
L 45.748385 302.787691 
L 45.791807 301.586844 
L 45.829893 300.385997 
L 45.861043 299.185151 
L 45.883841 297.984304 
L 45.897091 296.783458 
L 45.899834 295.582611 
L 45.891378 294.381764 
L 45.871302 293.180918 
L 45.839464 291.980071 
L 45.796005 290.779225 
L 45.741341 289.578378 
L 45.676153 288.377531 
L 45.601365 287.176685 
L 45.518129 285.975838 
L 45.427784 284.774992 
L 45.331818 283.574145 
L 45.231826 282.373298 
L 45.129447 281.172452 
L 45.026306 279.971605 
L 44.923943 278.770759 
L 44.823744 277.569912 
L 44.726861 276.369066 
L 44.634143 275.168219 
L 44.546064 273.967372 
L 44.46266 272.766526 
L 44.383479 271.565679 
L 44.307543 270.364833 
L 44.233322 269.163986 
L 44.158741 267.963139 
L 44.081192 266.762293 
L 43.997584 265.561446 
L 43.904406 264.3606 
L 43.797815 263.159753 
L 43.67375 261.958906 
L 43.528053 260.75806 
L 43.356608 259.557213 
L 43.155494 258.356367 
L 42.921124 257.15552 
L 42.650392 255.954673 
L 42.340805 254.753827 
L 41.990586 253.55298 
L 41.598771 252.352134 
L 41.165255 251.151287 
L 40.690827 249.950441 
L 40.177152 248.749594 
L 39.626735 247.548747 
L 39.042838 246.347901 
L 38.429388 245.147054 
L 37.790846 243.946208 
L 37.132075 242.745361 
L 36.458196 241.544514 
L 35.774451 240.343668 
L 35.08607 239.142821 
L 34.398168 237.941975 
L 33.715652 236.741128 
L 33.043173 235.540281 
L 32.385097 234.339435 
L 31.745515 233.138588 
L 31.128275 231.937742 
L 30.537047 230.736895 
L 29.975398 229.536048 
L 29.446877 228.335202 
L 28.955103 227.134355 
L 28.503839 225.933509 
L 28.09705 224.732662 
L 27.738924 223.531816 
L 27.433869 222.330969 
L 27.186465 221.130122 
L 27.001372 219.929276 
L 26.883203 218.728429 
L 26.836364 217.527583 
L 26.864857 216.326736 
L 26.972078 215.125889 
L 27.1606 213.925043 
L 27.431969 212.724196 
L 27.786522 211.52335 
L 28.223237 210.322503 
L 28.739628 209.121656 
L 29.331705 207.92081 
L 29.993982 206.719963 
L 30.719559 205.519117 
L 31.500257 204.31827 
L 32.326822 203.117423 
L 33.189158 201.916577 
L 34.076616 200.71573 
L 34.978292 199.514884 
L 35.883331 198.314037 
L 36.781235 197.113191 
L 37.662133 195.912344 
L 55.283321 195.912344 
L 55.283321 195.912344 
L 56.16422 197.113191 
L 57.062123 198.314037 
L 57.967163 199.514884 
L 58.868838 200.71573 
L 59.756297 201.916577 
L 60.618633 203.117423 
L 61.445197 204.31827 
L 62.225896 205.519117 
L 62.951473 206.719963 
L 63.61375 207.92081 
L 64.205827 209.121656 
L 64.722218 210.322503 
L 65.158932 211.52335 
L 65.513485 212.724196 
L 65.784855 213.925043 
L 65.973377 215.125889 
L 66.080598 216.326736 
L 66.109091 217.527583 
L 66.062251 218.728429 
L 65.944083 219.929276 
L 65.758989 221.130122 
L 65.511585 222.330969 
L 65.206531 223.531816 
L 64.848405 224.732662 
L 64.441615 225.933509 
L 63.990352 227.134355 
L 63.498578 228.335202 
L 62.970057 229.536048 
L 62.408407 230.736895 
L 61.817179 231.937742 
L 61.19994 233.138588 
L 60.560357 234.339435 
L 59.902282 235.540281 
L 59.229803 236.741128 
L 58.547287 237.941975 
L 57.859384 239.142821 
L 57.171004 240.343668 
L 56.487258 241.544514 
L 55.813379 242.745361 
L 55.154608 243.946208 
L 54.516066 245.147054 
L 53.902616 246.347901 
L 53.31872 247.548747 
L 52.768302 248.749594 
L 52.254628 249.950441 
L 51.7802 251.151287 
L 51.346684 252.352134 
L 50.954868 253.55298 
L 50.60465 254.753827 
L 50.295062 255.954673 
L 50.024331 257.15552 
L 49.789961 258.356367 
L 49.588846 259.557213 
L 49.417402 260.75806 
L 49.271704 261.958906 
L 49.147639 263.159753 
L 49.041049 264.3606 
L 48.947871 265.561446 
L 48.864263 266.762293 
L 48.786714 267.963139 
L 48.712132 269.163986 
L 48.637912 270.364833 
L 48.561975 271.565679 
L 48.482795 272.766526 
L 48.399391 273.967372 
L 48.311312 275.168219 
L 48.218594 276.369066 
L 48.121711 277.569912 
L 48.021511 278.770759 
L 47.919149 279.971605 
L 47.816008 281.172452 
L 47.713629 282.373298 
L 47.613636 283.574145 
L 47.517671 284.774992 
L 47.427325 285.975838 
L 47.344089 287.176685 
L 47.269302 288.377531 
L 47.204113 289.578378 
L 47.149449 290.779225 
L 47.105991 291.980071 
L 47.074153 293.180918 
L 47.054076 294.381764 
L 47.04562 295.582611 
L 47.048364 296.783458 
L 47.061613 297.984304 
L 47.084412 299.185151 
L 47.115562 300.385997 
L 47.153647 301.586844 
L 47.19707 302.787691 
L 47.244086 303.988537 
L 47.292857 305.189384 
L 47.341498 306.39023 
L 47.38814 307.591077 
L 47.430987 308.791923 
L 47.468378 309.99277 
L 47.498842 311.193617 
L 47.521151 312.394463 
L 47.534364 313.59531 
L 47.537853 314.796156 
L 47.537853 314.796156 
z
" clip-path="url(#p466c08de36)" style="fill: none; stroke: #000000; stroke-opacity: 0.3"/>
   </g>
   <g id="FillBetweenPolyCollection_5">
    <path d="M 60.782977 235.349399 
L 32.162478 235.349399 
L 31.540345 234.924463 
L 30.94882 234.499527 
L 30.391817 234.074591 
L 29.872682 233.649655 
L 29.394117 233.224719 
L 28.958128 232.799783 
L 28.565996 232.374847 
L 28.218256 231.949911 
L 27.914707 231.524975 
L 27.654436 231.100039 
L 27.435864 230.675103 
L 27.256812 230.250167 
L 27.114574 229.825231 
L 27.006012 229.400295 
L 26.927654 228.975359 
L 26.875804 228.550423 
L 26.846648 228.125487 
L 26.836364 227.700551 
L 26.841221 227.275615 
L 26.857682 226.850679 
L 26.882482 226.425743 
L 26.912703 226.000807 
L 26.945833 225.575871 
L 26.979806 225.150935 
L 27.013031 224.725999 
L 27.044398 224.301063 
L 27.07328 223.876127 
L 27.099511 223.451191 
L 27.123356 223.026255 
L 27.14547 222.601319 
L 27.166853 222.176383 
L 27.188792 221.751447 
L 27.212807 221.326511 
L 27.24059 220.901575 
L 27.273949 220.476639 
L 27.314752 220.051703 
L 27.364875 219.626767 
L 27.426153 219.201831 
L 27.500343 218.776895 
L 27.589083 218.351959 
L 27.693867 217.927023 
L 27.816012 217.502087 
L 27.956647 217.077151 
L 28.116692 216.652215 
L 28.296846 216.227279 
L 28.497581 215.802343 
L 28.719132 215.377407 
L 28.961498 214.952471 
L 29.224436 214.527535 
L 29.507463 214.102599 
L 29.809857 213.677663 
L 30.130658 213.252727 
L 30.468679 212.827791 
L 30.822511 212.402855 
L 31.190532 211.977919 
L 31.570928 211.552983 
L 31.961705 211.128048 
L 32.360717 210.703112 
L 32.765683 210.278176 
L 33.174228 209.85324 
L 33.583905 209.428304 
L 33.992238 209.003368 
L 34.396755 208.578432 
L 34.79503 208.153496 
L 35.184724 207.72856 
L 35.563621 207.303624 
L 35.929668 206.878688 
L 36.281009 206.453752 
L 36.616021 206.028816 
L 36.933338 205.60388 
L 37.231878 205.178944 
L 37.510859 204.754008 
L 37.769811 204.329072 
L 38.008585 203.904136 
L 38.227351 203.4792 
L 38.426591 203.054264 
L 38.607091 202.629328 
L 38.76992 202.204392 
L 38.916408 201.779456 
L 39.048119 201.35452 
L 39.16682 200.929584 
L 39.274443 200.504648 
L 39.373051 200.079712 
L 39.464792 199.654776 
L 39.551863 199.22984 
L 39.636463 198.804904 
L 39.720752 198.379968 
L 39.806812 197.955032 
L 39.896604 197.530096 
L 39.991931 197.10516 
L 40.094409 196.680224 
L 40.205432 196.255288 
L 40.32615 195.830352 
L 40.457451 195.405416 
L 40.599947 194.98048 
L 40.753965 194.555544 
L 40.919548 194.130608 
L 41.096463 193.705672 
L 41.284208 193.280736 
L 51.661246 193.280736 
L 51.661246 193.280736 
L 51.848992 193.705672 
L 52.025906 194.130608 
L 52.19149 194.555544 
L 52.345508 194.98048 
L 52.488003 195.405416 
L 52.619305 195.830352 
L 52.740023 196.255288 
L 52.851046 196.680224 
L 52.953523 197.10516 
L 53.048851 197.530096 
L 53.138642 197.955032 
L 53.224702 198.379968 
L 53.308992 198.804904 
L 53.393592 199.22984 
L 53.480662 199.654776 
L 53.572404 200.079712 
L 53.671011 200.504648 
L 53.778635 200.929584 
L 53.897335 201.35452 
L 54.029047 201.779456 
L 54.175534 202.204392 
L 54.338363 202.629328 
L 54.518863 203.054264 
L 54.718104 203.4792 
L 54.93687 203.904136 
L 55.175644 204.329072 
L 55.434596 204.754008 
L 55.713577 205.178944 
L 56.012117 205.60388 
L 56.329434 206.028816 
L 56.664446 206.453752 
L 57.015787 206.878688 
L 57.381833 207.303624 
L 57.76073 207.72856 
L 58.150424 208.153496 
L 58.5487 208.578432 
L 58.953217 209.003368 
L 59.361549 209.428304 
L 59.771226 209.85324 
L 60.179771 210.278176 
L 60.584738 210.703112 
L 60.983749 211.128048 
L 61.374527 211.552983 
L 61.754923 211.977919 
L 62.122944 212.402855 
L 62.476775 212.827791 
L 62.814796 213.252727 
L 63.135598 213.677663 
L 63.437991 214.102599 
L 63.721018 214.527535 
L 63.983957 214.952471 
L 64.226323 215.377407 
L 64.447874 215.802343 
L 64.648608 216.227279 
L 64.828762 216.652215 
L 64.988807 217.077151 
L 65.129442 217.502087 
L 65.251588 217.927023 
L 65.356371 218.351959 
L 65.445112 218.776895 
L 65.519302 219.201831 
L 65.58058 219.626767 
L 65.630702 220.051703 
L 65.671505 220.476639 
L 65.704865 220.901575 
L 65.732648 221.326511 
L 65.756663 221.751447 
L 65.778602 222.176383 
L 65.799985 222.601319 
L 65.822099 223.026255 
L 65.845943 223.451191 
L 65.872174 223.876127 
L 65.901057 224.301063 
L 65.932424 224.725999 
L 65.965648 225.150935 
L 65.999621 225.575871 
L 66.032751 226.000807 
L 66.062972 226.425743 
L 66.087772 226.850679 
L 66.104233 227.275615 
L 66.109091 227.700551 
L 66.098806 228.125487 
L 66.06965 228.550423 
L 66.017801 228.975359 
L 65.939443 229.400295 
L 65.83088 229.825231 
L 65.688642 230.250167 
L 65.50959 230.675103 
L 65.291019 231.100039 
L 65.030748 231.524975 
L 64.727198 231.949911 
L 64.379458 232.374847 
L 63.987326 232.799783 
L 63.551338 233.224719 
L 63.072772 233.649655 
L 62.553637 234.074591 
L 61.996635 234.499527 
L 61.405109 234.924463 
L 60.782977 235.349399 
L 60.782977 235.349399 
z
" clip-path="url(#p466c08de36)" style="fill: none; stroke: #000000; stroke-opacity: 0.3"/>
   </g>
   <g id="FillBetweenPolyCollection_6">
    <path d="M 51.120068 241.342844 
L 41.825387 241.342844 
L 41.409027 240.845845 
L 40.971708 240.348846 
L 40.514309 239.851847 
L 40.037976 239.354848 
L 39.544121 238.857849 
L 39.034409 238.36085 
L 38.510741 237.863851 
L 37.975224 237.366852 
L 37.430137 236.869854 
L 36.877887 236.372855 
L 36.320965 235.875856 
L 35.761894 235.378857 
L 35.203183 234.881858 
L 34.647276 234.384859 
L 34.09652 233.88786 
L 33.553124 233.390861 
L 33.019146 232.893862 
L 32.496474 232.396863 
L 31.986837 231.899864 
L 31.491816 231.402866 
L 31.012872 230.905867 
L 30.551384 230.408868 
L 30.108694 229.911869 
L 29.686155 229.41487 
L 29.285181 228.917871 
L 28.907291 228.420872 
L 28.554146 227.923873 
L 28.227574 227.426874 
L 27.92958 226.929875 
L 27.662336 226.432877 
L 27.428154 225.935878 
L 27.229439 225.438879 
L 27.068619 224.94188 
L 26.948065 224.444881 
L 26.869994 223.947882 
L 26.836364 223.450883 
L 26.848767 222.953884 
L 26.908325 222.456885 
L 27.015593 221.959886 
L 27.170482 221.462887 
L 27.372195 220.965889 
L 27.619196 220.46889 
L 27.909199 219.971891 
L 28.239192 219.474892 
L 28.605489 218.977893 
L 29.003813 218.480894 
L 29.429394 217.983895 
L 29.877103 217.486896 
L 30.341591 216.989897 
L 30.81744 216.492898 
L 31.299312 215.995899 
L 31.782104 215.498901 
L 32.261075 215.001902 
L 32.731975 214.504903 
L 33.191132 214.007904 
L 33.635528 213.510905 
L 34.062839 213.013906 
L 34.471451 212.516907 
L 34.860437 212.019908 
L 35.229526 211.522909 
L 35.579031 211.02591 
L 35.909766 210.528912 
L 36.222952 210.031913 
L 36.520113 209.534914 
L 36.802963 209.037915 
L 37.073305 208.540916 
L 37.33293 208.043917 
L 37.583533 207.546918 
L 37.82664 207.049919 
L 38.063551 206.55292 
L 38.295306 206.055921 
L 38.522668 205.558922 
L 38.746118 205.061924 
L 38.965875 204.564925 
L 39.181925 204.067926 
L 39.394062 203.570927 
L 39.601937 203.073928 
L 39.805114 202.576929 
L 40.003124 202.07993 
L 40.195522 201.582931 
L 40.381934 201.085932 
L 40.562099 200.588933 
L 40.735909 200.091935 
L 40.903426 199.594936 
L 41.064895 199.097937 
L 41.220751 198.600938 
L 41.371602 198.103939 
L 41.518215 197.60694 
L 41.661482 197.109941 
L 41.802386 196.612942 
L 41.941963 196.115943 
L 42.081252 195.618944 
L 42.221254 195.121945 
L 42.362889 194.624947 
L 42.506951 194.127948 
L 42.654081 193.630949 
L 42.804733 193.13395 
L 42.959156 192.636951 
L 43.117386 192.139952 
L 49.828068 192.139952 
L 49.828068 192.139952 
L 49.986298 192.636951 
L 50.140722 193.13395 
L 50.291374 193.630949 
L 50.438504 194.127948 
L 50.582566 194.624947 
L 50.7242 195.121945 
L 50.864202 195.618944 
L 51.003491 196.115943 
L 51.143068 196.612942 
L 51.283973 197.109941 
L 51.427239 197.60694 
L 51.573852 198.103939 
L 51.724704 198.600938 
L 51.88056 199.097937 
L 52.042029 199.594936 
L 52.209545 200.091935 
L 52.383355 200.588933 
L 52.563521 201.085932 
L 52.749932 201.582931 
L 52.942331 202.07993 
L 53.140341 202.576929 
L 53.343518 203.073928 
L 53.551393 203.570927 
L 53.76353 204.067926 
L 53.97958 204.564925 
L 54.199337 205.061924 
L 54.422787 205.558922 
L 54.650148 206.055921 
L 54.881904 206.55292 
L 55.118815 207.049919 
L 55.361921 207.546918 
L 55.612524 208.043917 
L 55.872149 208.540916 
L 56.142491 209.037915 
L 56.425341 209.534914 
L 56.722502 210.031913 
L 57.035689 210.528912 
L 57.366424 211.02591 
L 57.715928 211.522909 
L 58.085017 212.019908 
L 58.474004 212.516907 
L 58.882615 213.013906 
L 59.309927 213.510905 
L 59.754323 214.007904 
L 60.21348 214.504903 
L 60.684379 215.001902 
L 61.163351 215.498901 
L 61.646142 215.995899 
L 62.128015 216.492898 
L 62.603863 216.989897 
L 63.068352 217.486896 
L 63.516061 217.983895 
L 63.941642 218.480894 
L 64.339965 218.977893 
L 64.706263 219.474892 
L 65.036256 219.971891 
L 65.326259 220.46889 
L 65.57326 220.965889 
L 65.774973 221.462887 
L 65.929862 221.959886 
L 66.03713 222.456885 
L 66.096688 222.953884 
L 66.109091 223.450883 
L 66.075461 223.947882 
L 65.99739 224.444881 
L 65.876836 224.94188 
L 65.716016 225.438879 
L 65.5173 225.935878 
L 65.283119 226.432877 
L 65.015875 226.929875 
L 64.717881 227.426874 
L 64.391309 227.923873 
L 64.038163 228.420872 
L 63.660273 228.917871 
L 63.2593 229.41487 
L 62.836761 229.911869 
L 62.394071 230.408868 
L 61.932583 230.905867 
L 61.453639 231.402866 
L 60.958618 231.899864 
L 60.448981 232.396863 
L 59.926309 232.893862 
L 59.39233 233.390861 
L 58.848935 233.88786 
L 58.298179 234.384859 
L 57.742272 234.881858 
L 57.18356 235.378857 
L 56.624489 235.875856 
L 56.067567 236.372855 
L 55.515318 236.869854 
L 54.970231 237.366852 
L 54.434714 237.863851 
L 53.911046 238.36085 
L 53.401334 238.857849 
L 52.907478 239.354848 
L 52.431145 239.851847 
L 51.973746 240.348846 
L 51.536427 240.845845 
L 51.120068 241.342844 
L 51.120068 241.342844 
z
" clip-path="url(#p466c08de36)" style="fill: none; stroke: #000000; stroke-opacity: 0.3"/>
   </g>
   <g id="FillBetweenPolyCollection_7">
    <path d="M 54.803316 232.965629 
L 38.142139 232.965629 
L 37.619505 232.481583 
L 37.091625 231.997536 
L 36.560381 231.51349 
L 36.027672 231.029444 
L 35.495404 230.545397 
L 34.965485 230.061351 
L 34.439813 229.577305 
L 33.920273 229.093259 
L 33.408727 228.609212 
L 32.907005 228.125166 
L 32.416894 227.64112 
L 31.940126 227.157074 
L 31.478362 226.673027 
L 31.03318 226.188981 
L 30.606051 225.704935 
L 30.198331 225.220888 
L 29.811237 224.736842 
L 29.445837 224.252796 
L 29.103039 223.76875 
L 28.783582 223.284703 
L 28.488036 222.800657 
L 28.216805 222.316611 
L 27.970134 221.832565 
L 27.748128 221.348518 
L 27.550768 220.864472 
L 27.377937 220.380426 
L 27.229446 219.89638 
L 27.10506 219.412333 
L 27.004527 218.928287 
L 26.927598 218.444241 
L 26.874048 217.960194 
L 26.843687 217.476148 
L 26.836364 216.992102 
L 26.851964 216.508056 
L 26.890394 216.024009 
L 26.951562 215.539963 
L 27.035346 215.055917 
L 27.141562 214.571871 
L 27.269926 214.087824 
L 27.420011 213.603778 
L 27.591215 213.119732 
L 27.782723 212.635685 
L 27.993489 212.151639 
L 28.222214 211.667593 
L 28.467351 211.183547 
L 28.727111 210.6995 
L 28.999492 210.215454 
L 29.282316 209.731408 
L 29.573283 209.247362 
L 29.870034 208.763315 
L 30.170223 208.279269 
L 30.471589 207.795223 
L 30.772036 207.311177 
L 31.069707 206.82713 
L 31.36305 206.343084 
L 31.650871 205.859038 
L 31.932381 205.374991 
L 32.207216 204.890945 
L 32.475449 204.406899 
L 32.737574 203.922853 
L 32.99448 203.438806 
L 33.247398 202.95476 
L 33.497844 202.470714 
L 33.747536 201.986668 
L 33.998317 201.502621 
L 34.25206 201.018575 
L 34.510581 200.534529 
L 34.775554 200.050482 
L 35.048426 199.566436 
L 35.330359 199.08239 
L 35.622165 198.598344 
L 35.924277 198.114297 
L 36.23672 197.630251 
L 36.559115 197.146205 
L 36.890687 196.662159 
L 37.230295 196.178112 
L 37.576479 195.694066 
L 37.927514 195.21002 
L 38.281471 194.725974 
L 38.636288 194.241927 
L 38.989845 193.757881 
L 39.34003 193.273835 
L 39.684811 192.789788 
L 40.022293 192.305742 
L 40.350774 191.821696 
L 40.668786 191.33765 
L 40.975128 190.853603 
L 41.268882 190.369557 
L 41.549426 189.885511 
L 41.816427 189.401465 
L 42.069827 188.917418 
L 42.309825 188.433372 
L 42.536838 187.949326 
L 42.751473 187.46528 
L 42.954484 186.981233 
L 43.146726 186.497187 
L 43.32912 186.013141 
L 43.502609 185.529094 
L 43.668119 185.045048 
L 49.277336 185.045048 
L 49.277336 185.045048 
L 49.442845 185.529094 
L 49.616334 186.013141 
L 49.798729 186.497187 
L 49.990971 186.981233 
L 50.193981 187.46528 
L 50.408617 187.949326 
L 50.63563 188.433372 
L 50.875627 188.917418 
L 51.129028 189.401465 
L 51.396029 189.885511 
L 51.676573 190.369557 
L 51.970327 190.853603 
L 52.276668 191.33765 
L 52.59468 191.821696 
L 52.923162 192.305742 
L 53.260644 192.789788 
L 53.605424 193.273835 
L 53.95561 193.757881 
L 54.309167 194.241927 
L 54.663984 194.725974 
L 55.01794 195.21002 
L 55.368975 195.694066 
L 55.71516 196.178112 
L 56.054768 196.662159 
L 56.386339 197.146205 
L 56.708734 197.630251 
L 57.021178 198.114297 
L 57.323289 198.598344 
L 57.615096 199.08239 
L 57.897028 199.566436 
L 58.169901 200.050482 
L 58.434873 200.534529 
L 58.693395 201.018575 
L 58.947138 201.502621 
L 59.197918 201.986668 
L 59.447611 202.470714 
L 59.698056 202.95476 
L 59.950975 203.438806 
L 60.207881 203.922853 
L 60.470006 204.406899 
L 60.738238 204.890945 
L 61.013074 205.374991 
L 61.294583 205.859038 
L 61.582404 206.343084 
L 61.875747 206.82713 
L 62.173419 207.311177 
L 62.473866 207.795223 
L 62.775232 208.279269 
L 63.07542 208.763315 
L 63.372172 209.247362 
L 63.663139 209.731408 
L 63.945963 210.215454 
L 64.218343 210.6995 
L 64.478103 211.183547 
L 64.72324 211.667593 
L 64.951966 212.151639 
L 65.162731 212.635685 
L 65.35424 213.119732 
L 65.525444 213.603778 
L 65.675529 214.087824 
L 65.803893 214.571871 
L 65.910109 215.055917 
L 65.993893 215.539963 
L 66.055061 216.024009 
L 66.093491 216.508056 
L 66.109091 216.992102 
L 66.101768 217.476148 
L 66.071407 217.960194 
L 66.017856 218.444241 
L 65.940927 218.928287 
L 65.840394 219.412333 
L 65.716009 219.89638 
L 65.567517 220.380426 
L 65.394687 220.864472 
L 65.197327 221.348518 
L 64.975321 221.832565 
L 64.72865 222.316611 
L 64.457418 222.800657 
L 64.161873 223.284703 
L 63.842416 223.76875 
L 63.499618 224.252796 
L 63.134218 224.736842 
L 62.747124 225.220888 
L 62.339403 225.704935 
L 61.912275 226.188981 
L 61.467092 226.673027 
L 61.005329 227.157074 
L 60.52856 227.64112 
L 60.038449 228.125166 
L 59.536727 228.609212 
L 59.025181 229.093259 
L 58.505641 229.577305 
L 57.97997 230.061351 
L 57.45005 230.545397 
L 56.917783 231.029444 
L 56.385074 231.51349 
L 55.853829 231.997536 
L 55.325949 232.481583 
L 54.803316 232.965629 
L 54.803316 232.965629 
z
" clip-path="url(#p466c08de36)" style="fill: none; stroke: #000000; stroke-opacity: 0.3"/>
   </g>
   <g id="FillBetweenPolyCollection_8">
    <path d="M 117.211556 244.664419 
L 106.642989 244.664419 
L 106.519311 244.25001 
L 106.40123 243.835601 
L 106.288081 243.421192 
L 106.179026 243.006783 
L 106.073065 242.592374 
L 105.969045 242.177965 
L 105.865684 241.763556 
L 105.761585 241.349147 
L 105.655266 240.934738 
L 105.545177 240.520329 
L 105.429737 240.10592 
L 105.307356 239.691511 
L 105.176468 239.277103 
L 105.03556 238.862694 
L 104.883198 238.448285 
L 104.718059 238.033876 
L 104.538952 237.619467 
L 104.344848 237.205058 
L 104.134892 236.790649 
L 103.908427 236.37624 
L 103.665006 235.961831 
L 103.404399 235.547422 
L 103.126605 235.133013 
L 102.831847 234.718604 
L 102.520577 234.304196 
L 102.193465 233.889787 
L 101.851394 233.475378 
L 101.495448 233.060969 
L 101.126892 232.64656 
L 100.74716 232.232151 
L 100.357833 231.817742 
L 99.96062 231.403333 
L 99.55733 230.988924 
L 99.149854 230.574515 
L 98.740139 230.160106 
L 98.330168 229.745697 
L 97.921929 229.331289 
L 97.517399 228.91688 
L 97.118521 228.502471 
L 96.727182 228.088062 
L 96.345193 227.673653 
L 95.974275 227.259244 
L 95.616039 226.844835 
L 95.271976 226.430426 
L 94.943441 226.016017 
L 94.631642 225.601608 
L 94.337637 225.187199 
L 94.062322 224.77279 
L 93.806429 224.358382 
L 93.570522 223.943973 
L 93.354999 223.529564 
L 93.160091 223.115155 
L 92.985869 222.700746 
L 92.832245 222.286337 
L 92.698986 221.871928 
L 92.585719 221.457519 
L 92.491942 221.04311 
L 92.417044 220.628701 
L 92.360313 220.214292 
L 92.320957 219.799883 
L 92.298122 219.385474 
L 92.290909 218.971066 
L 92.298397 218.556657 
L 92.319659 218.142248 
L 92.353789 217.727839 
L 92.399917 217.31343 
L 92.457228 216.899021 
L 92.524986 216.484612 
L 92.602544 216.070203 
L 92.689363 215.655794 
L 92.785024 215.241385 
L 92.889235 214.826976 
L 93.001838 214.412567 
L 93.122814 213.998159 
L 93.25228 213.58375 
L 93.390488 213.169341 
L 93.537813 212.754932 
L 93.694747 212.340523 
L 93.861878 211.926114 
L 94.039879 211.511705 
L 94.229482 211.097296 
L 94.431462 210.682887 
L 94.646604 210.268478 
L 94.875684 209.854069 
L 95.119444 209.43966 
L 95.378559 209.025252 
L 95.653618 208.610843 
L 95.945098 208.196434 
L 96.253342 207.782025 
L 96.578541 207.367616 
L 96.920713 206.953207 
L 97.279698 206.538798 
L 97.65514 206.124389 
L 98.046491 205.70998 
L 98.453001 205.295571 
L 98.873727 204.881162 
L 99.307541 204.466753 
L 99.753136 204.052345 
L 100.209046 203.637936 
L 123.6455 203.637936 
L 123.6455 203.637936 
L 124.10141 204.052345 
L 124.547005 204.466753 
L 124.980818 204.881162 
L 125.401545 205.295571 
L 125.808055 205.70998 
L 126.199405 206.124389 
L 126.574848 206.538798 
L 126.933832 206.953207 
L 127.276005 207.367616 
L 127.601203 207.782025 
L 127.909447 208.196434 
L 128.200928 208.610843 
L 128.475987 209.025252 
L 128.735102 209.43966 
L 128.978861 209.854069 
L 129.207942 210.268478 
L 129.423084 210.682887 
L 129.625063 211.097296 
L 129.814667 211.511705 
L 129.992668 211.926114 
L 130.159799 212.340523 
L 130.316732 212.754932 
L 130.464058 213.169341 
L 130.602266 213.58375 
L 130.731732 213.998159 
L 130.852708 214.412567 
L 130.96531 214.826976 
L 131.069521 215.241385 
L 131.165182 215.655794 
L 131.252002 216.070203 
L 131.32956 216.484612 
L 131.397318 216.899021 
L 131.454629 217.31343 
L 131.500756 217.727839 
L 131.534886 218.142248 
L 131.556149 218.556657 
L 131.563636 218.971066 
L 131.556424 219.385474 
L 131.533589 219.799883 
L 131.494233 220.214292 
L 131.437502 220.628701 
L 131.362603 221.04311 
L 131.268827 221.457519 
L 131.155559 221.871928 
L 131.0223 222.286337 
L 130.868677 222.700746 
L 130.694455 223.115155 
L 130.499547 223.529564 
L 130.284024 223.943973 
L 130.048117 224.358382 
L 129.792223 224.77279 
L 129.516908 225.187199 
L 129.222903 225.601608 
L 128.911105 226.016017 
L 128.582569 226.430426 
L 128.238506 226.844835 
L 127.880271 227.259244 
L 127.509353 227.673653 
L 127.127364 228.088062 
L 126.736024 228.502471 
L 126.337146 228.91688 
L 125.932617 229.331289 
L 125.524378 229.745697 
L 125.114406 230.160106 
L 124.704692 230.574515 
L 124.297216 230.988924 
L 123.893926 231.403333 
L 123.496712 231.817742 
L 123.107386 232.232151 
L 122.727654 232.64656 
L 122.359098 233.060969 
L 122.003151 233.475378 
L 121.661081 233.889787 
L 121.333969 234.304196 
L 121.022698 234.718604 
L 120.72794 235.133013 
L 120.450146 235.547422 
L 120.18954 235.961831 
L 119.946118 236.37624 
L 119.719654 236.790649 
L 119.509698 237.205058 
L 119.315593 237.619467 
L 119.136487 238.033876 
L 118.971347 238.448285 
L 118.818985 238.862694 
L 118.678077 239.277103 
L 118.547189 239.691511 
L 118.424809 240.10592 
L 118.309369 240.520329 
L 118.19928 240.934738 
L 118.09296 241.349147 
L 117.988862 241.763556 
L 117.8855 242.177965 
L 117.781481 242.592374 
L 117.675519 243.006783 
L 117.566465 243.421192 
L 117.453316 243.835601 
L 117.335235 244.25001 
L 117.211556 244.664419 
L 117.211556 244.664419 
z
" clip-path="url(#p466c08de36)" style="fill: none; stroke: #000000; stroke-opacity: 0.3"/>
   </g>
   <g id="FillBetweenPolyCollection_9">
    <path d="M 117.014966 241.92333 
L 106.839579 241.92333 
L 106.433688 241.467084 
L 106.008822 241.010837 
L 105.565522 240.554591 
L 105.104566 240.098344 
L 104.62699 239.642098 
L 104.134097 239.185852 
L 103.627465 238.729605 
L 103.108945 238.273359 
L 102.580653 237.817112 
L 102.044951 237.360866 
L 101.504422 236.90462 
L 100.961841 236.448373 
L 100.420125 235.992127 
L 99.882295 235.53588 
L 99.351416 235.079634 
L 98.830542 234.623388 
L 98.322657 234.167141 
L 97.830617 233.710895 
L 97.357083 233.254648 
L 96.904473 232.798402 
L 96.474905 232.342155 
L 96.070151 231.885909 
L 95.691602 231.429663 
L 95.340236 230.973416 
L 95.016599 230.51717 
L 94.720797 230.060923 
L 94.452502 229.604677 
L 94.210965 229.148431 
L 93.995045 228.692184 
L 93.803246 228.235938 
L 93.633769 227.779691 
L 93.484572 227.323445 
L 93.353432 226.867199 
L 93.238024 226.410952 
L 93.135996 225.954706 
L 93.045048 225.498459 
L 92.963009 225.042213 
L 92.887912 224.585967 
L 92.81806 224.12972 
L 92.752085 223.673474 
L 92.688998 223.217227 
L 92.628216 222.760981 
L 92.569589 222.304734 
L 92.513399 221.848488 
L 92.46035 221.392242 
L 92.41154 220.935995 
L 92.368421 220.479749 
L 92.332743 220.023502 
L 92.306489 219.567256 
L 92.291803 219.11101 
L 92.290909 218.654763 
L 92.306034 218.198517 
L 92.339323 217.74227 
L 92.392767 217.286024 
L 92.468131 216.829778 
L 92.566891 216.373531 
L 92.690191 215.917285 
L 92.838798 215.461038 
L 93.013085 215.004792 
L 93.213017 214.548546 
L 93.438157 214.092299 
L 93.687683 213.636053 
L 93.960419 213.179806 
L 94.254873 212.72356 
L 94.569287 212.267313 
L 94.901692 211.811067 
L 95.249964 211.354821 
L 95.61189 210.898574 
L 95.985224 210.442328 
L 96.367747 209.986081 
L 96.757319 209.529835 
L 97.151929 209.073589 
L 97.549728 208.617342 
L 97.949065 208.161096 
L 98.348507 207.704849 
L 98.746853 207.248603 
L 99.143131 206.792357 
L 99.536601 206.33611 
L 99.926738 205.879864 
L 100.313212 205.423617 
L 100.695862 204.967371 
L 101.074671 204.511124 
L 101.449734 204.054878 
L 101.821221 203.598632 
L 102.189352 203.142385 
L 102.554362 202.686139 
L 102.916472 202.229892 
L 103.275868 201.773646 
L 103.632678 201.3174 
L 103.986957 200.861153 
L 104.338671 200.404907 
L 104.687696 199.94866 
L 105.033806 199.492414 
L 105.376683 199.036168 
L 105.715915 198.579921 
L 106.051005 198.123675 
L 106.381382 197.667428 
L 106.706413 197.211182 
L 107.025415 196.754936 
L 116.829131 196.754936 
L 116.829131 196.754936 
L 117.148133 197.211182 
L 117.473163 197.667428 
L 117.803541 198.123675 
L 118.138631 198.579921 
L 118.477862 199.036168 
L 118.820739 199.492414 
L 119.16685 199.94866 
L 119.515874 200.404907 
L 119.867589 200.861153 
L 120.221867 201.3174 
L 120.578678 201.773646 
L 120.938074 202.229892 
L 121.300184 202.686139 
L 121.665193 203.142385 
L 122.033324 203.598632 
L 122.404812 204.054878 
L 122.779874 204.511124 
L 123.158684 204.967371 
L 123.541334 205.423617 
L 123.927807 205.879864 
L 124.317944 206.33611 
L 124.711415 206.792357 
L 125.107693 207.248603 
L 125.506038 207.704849 
L 125.905481 208.161096 
L 126.304818 208.617342 
L 126.702617 209.073589 
L 127.097226 209.529835 
L 127.486799 209.986081 
L 127.869322 210.442328 
L 128.242656 210.898574 
L 128.604581 211.354821 
L 128.952853 211.811067 
L 129.285258 212.267313 
L 129.599672 212.72356 
L 129.894127 213.179806 
L 130.166863 213.636053 
L 130.416389 214.092299 
L 130.641529 214.548546 
L 130.84146 215.004792 
L 131.015747 215.461038 
L 131.164355 215.917285 
L 131.287654 216.373531 
L 131.386415 216.829778 
L 131.461778 217.286024 
L 131.515222 217.74227 
L 131.548512 218.198517 
L 131.563636 218.654763 
L 131.562743 219.11101 
L 131.548056 219.567256 
L 131.521802 220.023502 
L 131.486124 220.479749 
L 131.443005 220.935995 
L 131.394195 221.392242 
L 131.341146 221.848488 
L 131.284956 222.304734 
L 131.226329 222.760981 
L 131.165548 223.217227 
L 131.10246 223.673474 
L 131.036486 224.12972 
L 130.966634 224.585967 
L 130.891536 225.042213 
L 130.809497 225.498459 
L 130.718549 225.954706 
L 130.616521 226.410952 
L 130.501114 226.867199 
L 130.369974 227.323445 
L 130.220776 227.779691 
L 130.0513 228.235938 
L 129.859501 228.692184 
L 129.643581 229.148431 
L 129.402044 229.604677 
L 129.133749 230.060923 
L 128.837947 230.51717 
L 128.514309 230.973416 
L 128.162943 231.429663 
L 127.784394 231.885909 
L 127.379641 232.342155 
L 126.950073 232.798402 
L 126.497463 233.254648 
L 126.023929 233.710895 
L 125.531888 234.167141 
L 125.024004 234.623388 
L 124.50313 235.079634 
L 123.97225 235.53588 
L 123.43442 235.992127 
L 122.892705 236.448373 
L 122.350123 236.90462 
L 121.809595 237.360866 
L 121.273892 237.817112 
L 120.7456 238.273359 
L 120.22708 238.729605 
L 119.720448 239.185852 
L 119.227556 239.642098 
L 118.74998 240.098344 
L 118.289024 240.554591 
L 117.845723 241.010837 
L 117.420857 241.467084 
L 117.014966 241.92333 
L 117.014966 241.92333 
z
" clip-path="url(#p466c08de36)" style="fill: none; stroke: #000000; stroke-opacity: 0.3"/>
   </g>
   <g id="FillBetweenPolyCollection_10">
    <path d="M 112.32237 268.736065 
L 111.532176 268.736065 
L 111.530399 267.90789 
L 111.534915 267.079715 
L 111.543221 266.25154 
L 111.551888 265.423365 
L 111.556789 264.595191 
L 111.553392 263.767016 
L 111.537079 262.938841 
L 111.503446 262.110666 
L 111.448565 261.282491 
L 111.369148 260.454316 
L 111.262624 259.626142 
L 111.127088 258.797967 
L 110.961162 257.969792 
L 110.763778 257.141617 
L 110.533925 256.313442 
L 110.270431 255.485267 
L 109.971826 254.657092 
L 109.636344 253.828918 
L 109.262094 253.000743 
L 108.847381 252.172568 
L 108.391143 251.344393 
L 107.893421 250.516218 
L 107.355744 249.688043 
L 106.781349 248.859868 
L 106.175154 248.031694 
L 105.54344 247.203519 
L 104.893303 246.375344 
L 104.231929 245.547169 
L 103.565846 244.718994 
L 102.900279 243.890819 
L 102.238745 243.062645 
L 101.582959 242.23447 
L 100.933082 241.406295 
L 100.288252 240.57812 
L 99.647294 239.749945 
L 99.009471 238.92177 
L 98.375125 238.093595 
L 97.746106 237.265421 
L 97.125908 236.437246 
L 96.519521 235.609071 
L 95.933032 234.780896 
L 95.373076 233.952721 
L 94.846238 233.124546 
L 94.358525 232.296372 
L 93.914978 231.468197 
L 93.519513 230.640022 
L 93.174993 229.811847 
L 92.88353 228.983672 
L 92.646943 228.155497 
L 92.467295 227.327322 
L 92.347361 226.499148 
L 92.290909 225.670973 
L 92.30266 224.842798 
L 92.38788 224.014623 
L 92.551613 223.186448 
L 92.797673 222.358273 
L 93.127574 221.530098 
L 93.539648 220.701924 
L 94.028554 219.873749 
L 94.585336 219.045574 
L 95.198053 218.217399 
L 95.852905 217.389224 
L 96.535629 216.561049 
L 97.232934 215.732875 
L 97.933701 214.9047 
L 98.629766 214.076525 
L 99.316182 213.24835 
L 99.990983 212.420175 
L 100.654528 211.592 
L 101.308601 210.763825 
L 101.955428 209.935651 
L 102.596775 209.107476 
L 103.233242 208.279301 
L 103.863823 207.451126 
L 104.485762 206.622951 
L 105.09468 205.794776 
L 105.684938 204.966602 
L 106.250148 204.138427 
L 106.783786 203.310252 
L 107.279807 202.482077 
L 107.733204 201.653902 
L 108.140461 200.825727 
L 108.499867 199.997552 
L 108.811652 199.169378 
L 109.077974 198.341203 
L 109.302731 197.513028 
L 109.491251 196.684853 
L 109.649869 195.856678 
L 109.785432 195.028503 
L 109.904793 194.200328 
L 110.01432 193.372154 
L 110.119495 192.543979 
L 110.224609 191.715804 
L 110.332609 190.887629 
L 110.445077 190.059454 
L 110.562339 189.231279 
L 110.683668 188.403105 
L 110.807546 187.57493 
L 110.93194 186.746755 
L 112.922605 186.746755 
L 112.922605 186.746755 
L 113.046999 187.57493 
L 113.170877 188.403105 
L 113.292207 189.231279 
L 113.409469 190.059454 
L 113.521937 190.887629 
L 113.629936 191.715804 
L 113.73505 192.543979 
L 113.840225 193.372154 
L 113.949753 194.200328 
L 114.069113 195.028503 
L 114.204676 195.856678 
L 114.363294 196.684853 
L 114.551815 197.513028 
L 114.776572 198.341203 
L 115.042893 199.169378 
L 115.354679 199.997552 
L 115.714084 200.825727 
L 116.121342 201.653902 
L 116.574738 202.482077 
L 117.070759 203.310252 
L 117.604398 204.138427 
L 118.169608 204.966602 
L 118.759865 205.794776 
L 119.368784 206.622951 
L 119.990722 207.451126 
L 120.621303 208.279301 
L 121.25777 209.107476 
L 121.899118 209.935651 
L 122.545945 210.763825 
L 123.200017 211.592 
L 123.863562 212.420175 
L 124.538363 213.24835 
L 125.22478 214.076525 
L 125.920844 214.9047 
L 126.621611 215.732875 
L 127.318916 216.561049 
L 128.001641 217.389224 
L 128.656492 218.217399 
L 129.26921 219.045574 
L 129.825991 219.873749 
L 130.314897 220.701924 
L 130.726971 221.530098 
L 131.056873 222.358273 
L 131.302932 223.186448 
L 131.466666 224.014623 
L 131.551886 224.842798 
L 131.563636 225.670973 
L 131.507184 226.499148 
L 131.387251 227.327322 
L 131.207603 228.155497 
L 130.971015 228.983672 
L 130.679552 229.811847 
L 130.335033 230.640022 
L 129.939568 231.468197 
L 129.496021 232.296372 
L 129.008307 233.124546 
L 128.48147 233.952721 
L 127.921513 234.780896 
L 127.335024 235.609071 
L 126.728637 236.437246 
L 126.108439 237.265421 
L 125.47942 238.093595 
L 124.845074 238.92177 
L 124.207251 239.749945 
L 123.566294 240.57812 
L 122.921464 241.406295 
L 122.271586 242.23447 
L 121.6158 243.062645 
L 120.954266 243.890819 
L 120.2887 244.718994 
L 119.622617 245.547169 
L 118.961242 246.375344 
L 118.311105 247.203519 
L 117.679392 248.031694 
L 117.073196 248.859868 
L 116.498802 249.688043 
L 115.961124 250.516218 
L 115.463402 251.344393 
L 115.007165 252.172568 
L 114.592451 253.000743 
L 114.218201 253.828918 
L 113.88272 254.657092 
L 113.584115 255.485267 
L 113.320621 256.313442 
L 113.090768 257.141617 
L 112.893383 257.969792 
L 112.727458 258.797967 
L 112.591921 259.626142 
L 112.485397 260.454316 
L 112.405981 261.282491 
L 112.351099 262.110666 
L 112.317467 262.938841 
L 112.301153 263.767016 
L 112.297757 264.595191 
L 112.302658 265.423365 
L 112.311324 266.25154 
L 112.31963 267.079715 
L 112.324147 267.90789 
L 112.32237 268.736065 
L 112.32237 268.736065 
z
" clip-path="url(#p466c08de36)" style="fill: none; stroke: #000000; stroke-opacity: 0.3"/>
   </g>
   <g id="FillBetweenPolyCollection_11">
    <path d="M 114.706001 259.019061 
L 109.148544 259.019061 
L 109.143303 258.496337 
L 109.146159 257.973612 
L 109.156657 257.450888 
L 109.1742 256.928163 
L 109.198053 256.405439 
L 109.227349 255.882715 
L 109.261094 255.35999 
L 109.298177 254.837266 
L 109.337381 254.314542 
L 109.377391 253.791817 
L 109.416814 253.269093 
L 109.454186 252.746369 
L 109.487991 252.223644 
L 109.516675 251.70092 
L 109.538664 251.178195 
L 109.552379 250.655471 
L 109.556251 250.132747 
L 109.54874 249.610022 
L 109.528348 249.087298 
L 109.493636 248.564574 
L 109.44324 248.041849 
L 109.375881 247.519125 
L 109.29038 246.9964 
L 109.185673 246.473676 
L 109.060818 245.950952 
L 108.915004 245.428227 
L 108.747566 244.905503 
L 108.557983 244.382779 
L 108.345892 243.860054 
L 108.111088 243.33733 
L 107.853525 242.814606 
L 107.573322 242.291881 
L 107.27076 241.769157 
L 106.946279 241.246432 
L 106.600477 240.723708 
L 106.2341 240.200984 
L 105.848045 239.678259 
L 105.443342 239.155535 
L 105.021152 238.632811 
L 104.582755 238.110086 
L 104.12954 237.587362 
L 103.662996 237.064638 
L 103.184698 236.541913 
L 102.696296 236.019189 
L 102.199509 235.496464 
L 101.696107 234.97374 
L 101.187907 234.451016 
L 100.676759 233.928291 
L 100.164542 233.405567 
L 99.653153 232.882843 
L 99.144498 232.360118 
L 98.640492 231.837394 
L 98.143048 231.314669 
L 97.654075 230.791945 
L 97.17547 230.269221 
L 96.709119 229.746496 
L 96.256888 229.223772 
L 95.820619 228.701048 
L 95.402127 228.178323 
L 95.003191 227.655599 
L 94.625552 227.132875 
L 94.270901 226.61015 
L 93.94087 226.087426 
L 93.637026 225.564701 
L 93.360858 225.041977 
L 93.113763 224.519253 
L 92.897039 223.996528 
L 92.711866 223.473804 
L 92.559297 222.95108 
L 92.440244 222.428355 
L 92.355463 221.905631 
L 92.305546 221.382907 
L 92.290909 220.860182 
L 92.311781 220.337458 
L 92.3682 219.814733 
L 92.460006 219.292009 
L 92.586842 218.769285 
L 92.74815 218.24656 
L 92.943174 217.723836 
L 93.170971 217.201112 
L 93.430411 216.678387 
L 93.720194 216.155663 
L 94.038858 215.632938 
L 94.384796 215.110214 
L 94.75627 214.58749 
L 95.151433 214.064765 
L 95.568339 213.542041 
L 96.00497 213.019317 
L 96.45925 212.496592 
L 96.929063 211.973868 
L 97.412276 211.451144 
L 97.906749 210.928419 
L 98.410359 210.405695 
L 98.921007 209.88297 
L 99.436639 209.360246 
L 99.955254 208.837522 
L 100.474914 208.314797 
L 100.993757 207.792073 
L 101.510003 207.269349 
L 122.344543 207.269349 
L 122.344543 207.269349 
L 122.860789 207.792073 
L 123.379632 208.314797 
L 123.899292 208.837522 
L 124.417906 209.360246 
L 124.933538 209.88297 
L 125.444187 210.405695 
L 125.947796 210.928419 
L 126.44227 211.451144 
L 126.925482 211.973868 
L 127.395296 212.496592 
L 127.849575 213.019317 
L 128.286207 213.542041 
L 128.703113 214.064765 
L 129.098275 214.58749 
L 129.46975 215.110214 
L 129.815688 215.632938 
L 130.134351 216.155663 
L 130.424134 216.678387 
L 130.683574 217.201112 
L 130.911371 217.723836 
L 131.106396 218.24656 
L 131.267703 218.769285 
L 131.394539 219.292009 
L 131.486346 219.814733 
L 131.542765 220.337458 
L 131.563636 220.860182 
L 131.548999 221.382907 
L 131.499082 221.905631 
L 131.414302 222.428355 
L 131.295248 222.95108 
L 131.14268 223.473804 
L 130.957507 223.996528 
L 130.740783 224.519253 
L 130.493688 225.041977 
L 130.217519 225.564701 
L 129.913675 226.087426 
L 129.583645 226.61015 
L 129.228993 227.132875 
L 128.851354 227.655599 
L 128.452419 228.178323 
L 128.033927 228.701048 
L 127.597658 229.223772 
L 127.145426 229.746496 
L 126.679075 230.269221 
L 126.200471 230.791945 
L 125.711497 231.314669 
L 125.214053 231.837394 
L 124.710047 232.360118 
L 124.201393 232.882843 
L 123.690003 233.405567 
L 123.177786 233.928291 
L 122.666639 234.451016 
L 122.158438 234.97374 
L 121.655037 235.496464 
L 121.158249 236.019189 
L 120.669848 236.541913 
L 120.191549 237.064638 
L 119.725005 237.587362 
L 119.271791 238.110086 
L 118.833394 238.632811 
L 118.411204 239.155535 
L 118.0065 239.678259 
L 117.620445 240.200984 
L 117.254069 240.723708 
L 116.908266 241.246432 
L 116.583785 241.769157 
L 116.281223 242.291881 
L 116.001021 242.814606 
L 115.743458 243.33733 
L 115.508653 243.860054 
L 115.296562 244.382779 
L 115.10698 244.905503 
L 114.939541 245.428227 
L 114.793728 245.950952 
L 114.668872 246.473676 
L 114.564165 246.9964 
L 114.478665 247.519125 
L 114.411306 248.041849 
L 114.360909 248.564574 
L 114.326198 249.087298 
L 114.305806 249.610022 
L 114.298294 250.132747 
L 114.302166 250.655471 
L 114.315881 251.178195 
L 114.33787 251.70092 
L 114.366555 252.223644 
L 114.400359 252.746369 
L 114.437731 253.269093 
L 114.477154 253.791817 
L 114.517165 254.314542 
L 114.556369 254.837266 
L 114.593452 255.35999 
L 114.627197 255.882715 
L 114.656493 256.405439 
L 114.680346 256.928163 
L 114.697889 257.450888 
L 114.708387 257.973612 
L 114.711243 258.496337 
L 114.706001 259.019061 
L 114.706001 259.019061 
z
" clip-path="url(#p466c08de36)" style="fill: none; stroke: #000000; stroke-opacity: 0.3"/>
   </g>
   <g id="FillBetweenPolyCollection_12">
    <path d="M 112.348383 265.921495 
L 111.506162 265.921495 
L 111.492076 265.097302 
L 111.479785 264.273109 
L 111.465588 263.448916 
L 111.444909 262.624723 
L 111.412721 261.80053 
L 111.364066 260.976337 
L 111.294626 260.152144 
L 111.201263 259.327951 
L 111.082456 258.503757 
L 110.938587 257.679564 
L 110.772021 256.855371 
L 110.586964 256.031178 
L 110.389109 255.206985 
L 110.185089 254.382792 
L 109.981802 253.558599 
L 109.785657 252.734406 
L 109.601825 251.910213 
L 109.433562 251.08602 
L 109.281685 250.261826 
L 109.144248 249.437633 
L 109.016492 248.61344 
L 108.891087 247.789247 
L 108.758675 246.965054 
L 108.608704 246.140861 
L 108.430456 245.316668 
L 108.214179 244.492475 
L 107.952164 243.668282 
L 107.639602 242.844089 
L 107.275074 242.019895 
L 106.860552 241.195702 
L 106.400876 240.371509 
L 105.902753 239.547316 
L 105.373419 238.723123 
L 104.819191 237.89893 
L 104.244178 237.074737 
L 103.649418 236.250544 
L 103.032657 235.426351 
L 102.388892 234.602157 
L 101.711645 233.777964 
L 100.994804 232.953771 
L 100.234722 232.129578 
L 99.432202 231.305385 
L 98.593953 230.481192 
L 97.733185 229.656999 
L 96.869152 228.832806 
L 96.0256 228.008613 
L 95.228349 227.18442 
L 94.502329 226.360226 
L 93.868609 225.536033 
L 93.341893 224.71184 
L 92.928967 223.887647 
L 92.628378 223.063454 
L 92.431417 222.239261 
L 92.324264 221.415068 
L 92.290909 220.590875 
L 92.316347 219.766682 
L 92.389469 218.942489 
L 92.505152 218.118295 
L 92.665173 217.294102 
L 92.877785 216.469909 
L 93.15606 215.645716 
L 93.515286 214.821523 
L 93.969882 213.99733 
L 94.530383 213.173137 
L 95.200981 212.348944 
L 95.978034 211.524751 
L 96.849735 210.700558 
L 97.796959 209.876364 
L 98.795081 209.052171 
L 99.816459 208.227978 
L 100.833151 207.403785 
L 101.819497 206.579592 
L 102.754207 205.755399 
L 103.621743 204.931206 
L 104.412909 204.107013 
L 105.124663 203.28282 
L 105.759315 202.458627 
L 106.323275 201.634433 
L 106.825609 200.81024 
L 107.276593 199.986047 
L 107.686435 199.161854 
L 108.064277 198.337661 
L 108.417521 197.513468 
L 108.751474 196.689275 
L 109.069268 195.865082 
L 109.372016 195.040889 
L 109.659142 194.216696 
L 109.928828 193.392502 
L 110.178552 192.568309 
L 110.40565 191.744116 
L 110.60786 190.919923 
L 110.783791 190.09573 
L 110.933254 189.271537 
L 111.057411 188.447344 
L 111.158722 187.623151 
L 111.240702 186.798958 
L 111.307521 185.974764 
L 111.363521 185.150571 
L 111.412741 184.326378 
L 112.441805 184.326378 
L 112.441805 184.326378 
L 112.491025 185.150571 
L 112.547025 185.974764 
L 112.613843 186.798958 
L 112.695823 187.623151 
L 112.797135 188.447344 
L 112.921291 189.271537 
L 113.070754 190.09573 
L 113.246686 190.919923 
L 113.448896 191.744116 
L 113.675993 192.568309 
L 113.925717 193.392502 
L 114.195404 194.216696 
L 114.482529 195.040889 
L 114.785278 195.865082 
L 115.103071 196.689275 
L 115.437024 197.513468 
L 115.790269 198.337661 
L 116.168111 199.161854 
L 116.577952 199.986047 
L 117.028936 200.81024 
L 117.531271 201.634433 
L 118.095231 202.458627 
L 118.729882 203.28282 
L 119.441637 204.107013 
L 120.232802 204.931206 
L 121.100338 205.755399 
L 122.035048 206.579592 
L 123.021395 207.403785 
L 124.038087 208.227978 
L 125.059464 209.052171 
L 126.057587 209.876364 
L 127.00481 210.700558 
L 127.876512 211.524751 
L 128.653564 212.348944 
L 129.324162 213.173137 
L 129.884663 213.99733 
L 130.33926 214.821523 
L 130.698485 215.645716 
L 130.976761 216.469909 
L 131.189373 217.294102 
L 131.349393 218.118295 
L 131.465077 218.942489 
L 131.538199 219.766682 
L 131.563636 220.590875 
L 131.530282 221.415068 
L 131.423129 222.239261 
L 131.226168 223.063454 
L 130.925578 223.887647 
L 130.512653 224.71184 
L 129.985937 225.536033 
L 129.352216 226.360226 
L 128.626197 227.18442 
L 127.828945 228.008613 
L 126.985394 228.832806 
L 126.12136 229.656999 
L 125.260593 230.481192 
L 124.422343 231.305385 
L 123.619824 232.129578 
L 122.859742 232.953771 
L 122.1429 233.777964 
L 121.465653 234.602157 
L 120.821889 235.426351 
L 120.205128 236.250544 
L 119.610367 237.074737 
L 119.035355 237.89893 
L 118.481127 238.723123 
L 117.951792 239.547316 
L 117.453669 240.371509 
L 116.993993 241.195702 
L 116.579472 242.019895 
L 116.214944 242.844089 
L 115.902382 243.668282 
L 115.640366 244.492475 
L 115.424089 245.316668 
L 115.245841 246.140861 
L 115.09587 246.965054 
L 114.963459 247.789247 
L 114.838053 248.61344 
L 114.710298 249.437633 
L 114.572861 250.261826 
L 114.420983 251.08602 
L 114.252721 251.910213 
L 114.068888 252.734406 
L 113.872743 253.558599 
L 113.669457 254.382792 
L 113.465437 255.206985 
L 113.267581 256.031178 
L 113.082525 256.855371 
L 112.915958 257.679564 
L 112.772089 258.503757 
L 112.653282 259.327951 
L 112.559919 260.152144 
L 112.490479 260.976337 
L 112.441824 261.80053 
L 112.409636 262.624723 
L 112.388958 263.448916 
L 112.374761 264.273109 
L 112.36247 265.097302 
L 112.348383 265.921495 
L 112.348383 265.921495 
z
" clip-path="url(#p466c08de36)" style="fill: none; stroke: #000000; stroke-opacity: 0.3"/>
   </g>
   <g id="FillBetweenPolyCollection_13">
    <path d="M 112.417934 251.960421 
L 111.436611 251.960421 
L 111.378684 251.183858 
L 111.312969 250.407294 
L 111.236317 249.630731 
L 111.145528 248.854168 
L 111.037733 248.077605 
L 110.910697 247.301042 
L 110.762973 246.524479 
L 110.593845 245.747915 
L 110.403063 244.971352 
L 110.190423 244.194789 
L 109.955279 243.418226 
L 109.696113 242.641663 
L 109.410266 241.8651 
L 109.093928 241.088536 
L 108.742423 240.311973 
L 108.350763 239.53541 
L 107.914395 238.758847 
L 107.430002 237.982284 
L 106.896231 237.205721 
L 106.314191 236.429157 
L 105.687622 235.652594 
L 105.022692 234.876031 
L 104.327437 234.099468 
L 103.610933 233.322905 
L 102.882329 232.546342 
L 102.149896 231.769778 
L 101.420245 230.993215 
L 100.697836 230.216652 
L 99.98485 229.440089 
L 99.281447 228.663526 
L 98.586376 227.886963 
L 97.897875 227.110399 
L 97.214727 226.333836 
L 96.537378 225.557273 
L 95.86894 224.78071 
L 95.215952 224.004147 
L 94.588749 223.227584 
L 94.001351 222.45102 
L 93.470817 221.674457 
L 93.016087 220.897894 
L 92.656449 220.121331 
L 92.409792 219.344768 
L 92.290909 218.568205 
L 92.310062 217.791641 
L 92.472006 217.015078 
L 92.775578 216.238515 
L 93.213852 215.461952 
L 93.774767 214.685389 
L 94.442099 213.908826 
L 95.196604 213.132262 
L 96.017194 212.355699 
L 96.882049 211.579136 
L 97.769614 210.802573 
L 98.659466 210.02601 
L 99.533078 209.249447 
L 100.374461 208.472883 
L 101.170704 207.69632 
L 101.912367 206.919757 
L 102.593697 206.143194 
L 103.212624 205.366631 
L 103.770514 204.590068 
L 104.271679 203.813504 
L 104.722688 203.036941 
L 105.131537 202.260378 
L 105.506793 201.483815 
L 105.856785 200.707252 
L 106.18896 199.930689 
L 106.509423 199.154125 
L 106.822713 198.377562 
L 107.131774 197.600999 
L 107.438086 196.824436 
L 107.741898 196.047873 
L 108.042493 195.27131 
L 108.338468 194.494746 
L 108.627981 193.718183 
L 108.908961 192.94162 
L 109.179291 192.165057 
L 109.436967 191.388494 
L 109.680227 190.611931 
L 109.907658 189.835368 
L 110.118282 189.058804 
L 110.311585 188.282241 
L 110.487515 187.505678 
L 110.646415 186.729115 
L 110.788911 185.952552 
L 110.915787 185.175989 
L 111.027843 184.399425 
L 111.125798 183.622862 
L 111.210261 182.846299 
L 111.281762 182.069736 
L 111.340877 181.293173 
L 111.388378 180.51661 
L 111.425395 179.740046 
L 111.453517 178.963483 
L 111.474806 178.18692 
L 111.491688 177.410357 
L 111.506748 176.633794 
L 111.522441 175.857231 
L 111.540806 175.080667 
L 112.313739 175.080667 
L 112.313739 175.080667 
L 112.332104 175.857231 
L 112.347798 176.633794 
L 112.362857 177.410357 
L 112.37974 178.18692 
L 112.401028 178.963483 
L 112.429151 179.740046 
L 112.466167 180.51661 
L 112.513669 181.293173 
L 112.572784 182.069736 
L 112.644285 182.846299 
L 112.728747 183.622862 
L 112.826703 184.399425 
L 112.938758 185.175989 
L 113.065634 185.952552 
L 113.208131 186.729115 
L 113.36703 187.505678 
L 113.54296 188.282241 
L 113.736264 189.058804 
L 113.946887 189.835368 
L 114.174319 190.611931 
L 114.417578 191.388494 
L 114.675254 192.165057 
L 114.945585 192.94162 
L 115.226564 193.718183 
L 115.516077 194.494746 
L 115.812053 195.27131 
L 116.112648 196.047873 
L 116.416459 196.824436 
L 116.722772 197.600999 
L 117.031832 198.377562 
L 117.345122 199.154125 
L 117.665585 199.930689 
L 117.99776 200.707252 
L 118.347753 201.483815 
L 118.723008 202.260378 
L 119.131857 203.036941 
L 119.582866 203.813504 
L 120.084032 204.590068 
L 120.641922 205.366631 
L 121.260848 206.143194 
L 121.942178 206.919757 
L 122.683841 207.69632 
L 123.480084 208.472883 
L 124.321468 209.249447 
L 125.195079 210.02601 
L 126.084932 210.802573 
L 126.972496 211.579136 
L 127.837352 212.355699 
L 128.657942 213.132262 
L 129.412447 213.908826 
L 130.079778 214.685389 
L 130.640693 215.461952 
L 131.078967 216.238515 
L 131.38254 217.015078 
L 131.544484 217.791641 
L 131.563636 218.568205 
L 131.444754 219.344768 
L 131.198097 220.121331 
L 130.838458 220.897894 
L 130.383729 221.674457 
L 129.853194 222.45102 
L 129.265797 223.227584 
L 128.638593 224.004147 
L 127.985605 224.78071 
L 127.317168 225.557273 
L 126.639819 226.333836 
L 125.956671 227.110399 
L 125.268169 227.886963 
L 124.573099 228.663526 
L 123.869695 229.440089 
L 123.156709 230.216652 
L 122.4343 230.993215 
L 121.70465 231.769778 
L 120.972216 232.546342 
L 120.243612 233.322905 
L 119.527108 234.099468 
L 118.831853 234.876031 
L 118.166923 235.652594 
L 117.540354 236.429157 
L 116.958315 237.205721 
L 116.424544 237.982284 
L 115.940151 238.758847 
L 115.503782 239.53541 
L 115.112123 240.311973 
L 114.760618 241.088536 
L 114.44428 241.8651 
L 114.158432 242.641663 
L 113.899266 243.418226 
L 113.664123 244.194789 
L 113.451482 244.971352 
L 113.2607 245.747915 
L 113.091572 246.524479 
L 112.943849 247.301042 
L 112.816813 248.077605 
L 112.709017 248.854168 
L 112.618229 249.630731 
L 112.541577 250.407294 
L 112.475861 251.183858 
L 112.417934 251.960421 
L 112.417934 251.960421 
z
" clip-path="url(#p466c08de36)" style="fill: none; stroke: #000000; stroke-opacity: 0.3"/>
   </g>
   <g id="FillBetweenPolyCollection_14">
    <path d="M 118.44886 243.269932 
L 105.405685 243.269932 
L 104.936823 242.822267 
L 104.456544 242.374602 
L 103.966394 241.926937 
L 103.467991 241.479273 
L 102.963007 241.031608 
L 102.453153 240.583943 
L 101.940167 240.136278 
L 101.425793 239.688613 
L 100.91178 239.240949 
L 100.399865 238.793284 
L 99.891771 238.345619 
L 99.389199 237.897954 
L 98.893825 237.450289 
L 98.4073 237.002625 
L 97.931242 236.55496 
L 97.467236 236.107295 
L 97.01683 235.65963 
L 96.581526 235.211965 
L 96.162773 234.764301 
L 95.761951 234.316636 
L 95.380361 233.868971 
L 95.019203 233.421306 
L 94.679556 232.973641 
L 94.362356 232.525976 
L 94.06837 232.078312 
L 93.798174 231.630647 
L 93.552132 231.182982 
L 93.330377 230.735317 
L 93.132793 230.287652 
L 92.959015 229.839988 
L 92.80842 229.392323 
L 92.680138 228.944658 
L 92.573067 228.496993 
L 92.485897 228.049328 
L 92.417144 227.601664 
L 92.365188 227.153999 
L 92.328319 226.706334 
L 92.304791 226.258669 
L 92.292873 225.811004 
L 92.290909 225.36334 
L 92.297365 224.915675 
L 92.310886 224.46801 
L 92.330337 224.020345 
L 92.354845 223.57268 
L 92.383823 223.125016 
L 92.416999 222.677351 
L 92.454415 222.229686 
L 92.496436 221.782021 
L 92.543731 221.334356 
L 92.597255 220.886691 
L 92.65822 220.439027 
L 92.728048 219.991362 
L 92.808335 219.543697 
L 92.900791 219.096032 
L 93.007189 218.648367 
L 93.129306 218.200703 
L 93.268862 217.753038 
L 93.427466 217.305373 
L 93.606555 216.857708 
L 93.807346 216.410043 
L 94.030788 215.962379 
L 94.277519 215.514714 
L 94.547834 215.067049 
L 94.841661 214.619384 
L 95.158543 214.171719 
L 95.497635 213.724055 
L 95.857706 213.27639 
L 96.237157 212.828725 
L 96.634044 212.38106 
L 97.046119 211.933395 
L 97.470874 211.485731 
L 97.905593 211.038066 
L 98.347418 210.590401 
L 98.793415 210.142736 
L 99.240644 209.695071 
L 99.68623 209.247407 
L 100.127433 208.799742 
L 100.561718 208.352077 
L 100.986809 207.904412 
L 101.400749 207.456747 
L 101.801933 207.009082 
L 102.189146 206.561418 
L 102.561572 206.113753 
L 102.918805 205.666088 
L 103.260832 205.218423 
L 103.588013 204.770758 
L 103.901045 204.323094 
L 104.200917 203.875429 
L 104.488853 203.427764 
L 104.766254 202.980099 
L 105.03463 202.532434 
L 105.295542 202.08477 
L 105.550528 201.637105 
L 105.801051 201.18944 
L 106.048441 200.741775 
L 106.293852 200.29411 
L 106.538221 199.846446 
L 106.782244 199.398781 
L 107.026364 198.951116 
L 116.828182 198.951116 
L 116.828182 198.951116 
L 117.072301 199.398781 
L 117.316325 199.846446 
L 117.560693 200.29411 
L 117.806104 200.741775 
L 118.053495 201.18944 
L 118.304018 201.637105 
L 118.559004 202.08477 
L 118.819915 202.532434 
L 119.088292 202.980099 
L 119.365692 203.427764 
L 119.653628 203.875429 
L 119.9535 204.323094 
L 120.266533 204.770758 
L 120.593714 205.218423 
L 120.935741 205.666088 
L 121.292973 206.113753 
L 121.6654 206.561418 
L 122.052612 207.009082 
L 122.453797 207.456747 
L 122.867736 207.904412 
L 123.292828 208.352077 
L 123.727112 208.799742 
L 124.168316 209.247407 
L 124.613901 209.695071 
L 125.06113 210.142736 
L 125.507128 210.590401 
L 125.948953 211.038066 
L 126.383672 211.485731 
L 126.808426 211.933395 
L 127.220501 212.38106 
L 127.617389 212.828725 
L 127.996839 213.27639 
L 128.35691 213.724055 
L 128.696002 214.171719 
L 129.012885 214.619384 
L 129.306712 215.067049 
L 129.577027 215.514714 
L 129.823758 215.962379 
L 130.047199 216.410043 
L 130.247991 216.857708 
L 130.42708 217.305373 
L 130.585683 217.753038 
L 130.725239 218.200703 
L 130.847356 218.648367 
L 130.953754 219.096032 
L 131.046211 219.543697 
L 131.126497 219.991362 
L 131.196326 220.439027 
L 131.25729 220.886691 
L 131.310815 221.334356 
L 131.35811 221.782021 
L 131.40013 222.229686 
L 131.437547 222.677351 
L 131.470722 223.125016 
L 131.499701 223.57268 
L 131.524208 224.020345 
L 131.543659 224.46801 
L 131.55718 224.915675 
L 131.563636 225.36334 
L 131.561672 225.811004 
L 131.549755 226.258669 
L 131.526226 226.706334 
L 131.489357 227.153999 
L 131.437401 227.601664 
L 131.368648 228.049328 
L 131.281479 228.496993 
L 131.174408 228.944658 
L 131.046126 229.392323 
L 130.89553 229.839988 
L 130.721752 230.287652 
L 130.524169 230.735317 
L 130.302413 231.182982 
L 130.056371 231.630647 
L 129.786176 232.078312 
L 129.492189 232.525976 
L 129.174989 232.973641 
L 128.835342 233.421306 
L 128.474185 233.868971 
L 128.092595 234.316636 
L 127.691773 234.764301 
L 127.273019 235.211965 
L 126.837715 235.65963 
L 126.387309 236.107295 
L 125.923304 236.55496 
L 125.447245 237.002625 
L 124.96072 237.450289 
L 124.465347 237.897954 
L 123.962774 238.345619 
L 123.45468 238.793284 
L 122.942765 239.240949 
L 122.428752 239.688613 
L 121.914379 240.136278 
L 121.401392 240.583943 
L 120.891539 241.031608 
L 120.386555 241.479273 
L 119.888152 241.926937 
L 119.398001 242.374602 
L 118.917722 242.822267 
L 118.44886 243.269932 
L 118.44886 243.269932 
z
" clip-path="url(#p466c08de36)" style="fill: none; stroke: #000000; stroke-opacity: 0.3"/>
   </g>
   <g id="matplotlib.axis_1"/>
   <g id="matplotlib.axis_2">
    <g id="ytick_1">
     <g id="line2d_1">
      <defs>
       <path id="m8d2264e55b" d="M 0 0 
L -3.5 0 
" style="stroke: #000000; stroke-width: 0.8"/>
      </defs>
      <g>
       <use xlink:href="#m8d2264e55b" x="21.6" y="291.6" style="stroke: #000000; stroke-width: 0.8"/>
      </g>
     </g>
    </g>
    <g id="ytick_2">
     <g id="line2d_2">
      <g>
       <use xlink:href="#m8d2264e55b" x="21.6" y="236.52" style="stroke: #000000; stroke-width: 0.8"/>
      </g>
     </g>
    </g>
    <g id="ytick_3">
     <g id="line2d_3">
      <g>
       <use xlink:href="#m8d2264e55b" x="21.6" y="181.44" style="stroke: #000000; stroke-width: 0.8"/>
      </g>
     </g>
    </g>
    <g id="ytick_4">
     <g id="line2d_4">
      <g>
       <use xlink:href="#m8d2264e55b" x="21.6" y="126.36" style="stroke: #000000; stroke-width: 0.8"/>
      </g>
     </g>
    </g>
    <g id="ytick_5">
     <g id="line2d_5">
      <g>
       <use xlink:href="#m8d2264e55b" x="21.6" y="71.28" style="stroke: #000000; stroke-width: 0.8"/>
      </g>
     </g>
    </g>
    <g id="ytick_6">
     <g id="line2d_6">
      <g>
       <use xlink:href="#m8d2264e55b" x="21.6" y="16.2" style="stroke: #000000; stroke-width: 0.8"/>
      </g>
     </g>
    </g>
   </g>
   <g id="line2d_7">
    <path d="M 46.472727 269.568 
L 46.472727 264.06 
" clip-path="url(#p466c08de36)" style="fill: none; stroke: #000000; stroke-linecap: square"/>
   </g>
   <g id="line2d_8">
    <path d="M 46.472727 269.568 
L 111.927273 269.568 
" clip-path="url(#p466c08de36)" style="fill: none; stroke: #000000; stroke-linecap: square"/>
   </g>
   <g id="line2d_9">
    <path d="M 111.927273 269.568 
L 111.927273 264.06 
" clip-path="url(#p466c08de36)" style="fill: none; stroke: #000000; stroke-linecap: square"/>
   </g>
   <g id="patch_3">
    <path d="M 21.6 291.6 
L 21.6 16.2 
" style="fill: none; stroke: #000000; stroke-width: 0.8; stroke-linejoin: miter; stroke-linecap: square"/>
   </g>
   <g id="patch_4">
    <path d="M 136.8 291.6 
L 136.8 16.2 
" style="fill: none; stroke: #000000; stroke-width: 0.8; stroke-linejoin: miter; stroke-linecap: square"/>
   </g>
   <g id="patch_5">
    <path d="M 21.6 291.6 
L 136.8 291.6 
" style="fill: none; stroke: #000000; stroke-width: 0.8; stroke-linejoin: miter; stroke-linecap: square"/>
   </g>
   <g id="patch_6">
    <path d="M 21.6 16.2 
L 136.8 16.2 
" style="fill: none; stroke: #000000; stroke-width: 0.8; stroke-linejoin: miter; stroke-linecap: square"/>
   </g>
   <g id="text_1">
    <text style="font-weight: 700; font-size: 12px; font-family: 'DejaVu Sans', 'Bitstream Vera Sans', 'Computer Modern Sans Serif', 'Lucida Grande', 'Verdana', 'Geneva', 'Lucid', 'Arial', 'Helvetica', 'Avant Garde', sans-serif; text-anchor: middle" x="46.472727" y="289.104375" transform="rotate(-0 46.472727 289.104375)">#39</text>
   </g>
   <g id="text_2">
    <text style="font-weight: 700; font-size: 12px; font-family: 'DejaVu Sans', 'Bitstream Vera Sans', 'Computer Modern Sans Serif', 'Lucida Grande', 'Verdana', 'Geneva', 'Lucid', 'Arial', 'Helvetica', 'Avant Garde', sans-serif; text-anchor: middle" x="111.927273" y="289.104375" transform="rotate(-0 111.927273 289.104375)">#40</text>
   </g>
   <g id="text_3">
    <text style="font-size: 12px; font-family: 'DejaVu Sans', 'Bitstream Vera Sans', 'Computer Modern Sans Serif', 'Lucida Grande', 'Verdana', 'Geneva', 'Lucid', 'Arial', 'Helvetica', 'Avant Garde', sans-serif; text-anchor: middle" x="79.2" y="268.449375" transform="rotate(-0 79.2 268.449375)">ns</text>
   </g>
   <g id="line2d_10">
    <path d="M 21.6 221.664111 
L 136.8 221.664111 
" clip-path="url(#p466c08de36)" style="fill: none; stroke-dasharray: 3.7,1.6; stroke-dashoffset: 0; stroke: #808080; stroke-opacity: 0.7"/>
   </g>
   <g id="line2d_11">
    <path d="M 21.6 221.381713 
L 136.8 221.381713 
" clip-path="url(#p466c08de36)" style="fill: none; stroke-dasharray: 3.7,1.6; stroke-dashoffset: 0; stroke: #808080; stroke-opacity: 0.7"/>
   </g>
   <g id="LineCollection_1">
    <path d="M 46.472727 225.201116 
L 46.472727 218.127106 
" clip-path="url(#p466c08de36)" style="fill: none; stroke: #000000; stroke-width: 2"/>
   </g>
   <g id="line2d_12">
    <defs>
     <path id="m52a6204cd6" d="M 5 0 
L -5 -0 
" style="stroke: #000000; stroke-width: 2"/>
    </defs>
    <g clip-path="url(#p466c08de36)">
     <use xlink:href="#m52a6204cd6" x="46.472727" y="225.201116" style="stroke: #000000; stroke-width: 2"/>
    </g>
   </g>
   <g id="line2d_13">
    <g clip-path="url(#p466c08de36)">
     <use xlink:href="#m52a6204cd6" x="46.472727" y="218.127106" style="stroke: #000000; stroke-width: 2"/>
    </g>
   </g>
   <g id="LineCollection_2">
    <path d="M 111.927273 223.828371 
L 111.927273 218.935054 
" clip-path="url(#p466c08de36)" style="fill: none; stroke: #000000; stroke-width: 2"/>
   </g>
   <g id="line2d_14">
    <g clip-path="url(#p466c08de36)">
     <use xlink:href="#m52a6204cd6" x="111.927273" y="223.828371" style="stroke: #000000; stroke-width: 2"/>
    </g>
   </g>
   <g id="line2d_15">
    <g clip-path="url(#p466c08de36)">
     <use xlink:href="#m52a6204cd6" x="111.927273" y="218.935054" style="stroke: #000000; stroke-width: 2"/>
    </g>
   </g>
   <g id="line2d_16">
    <defs>
     <path id="m3509ce42ce" d="M 0 4 
C 1.060812 4 2.078319 3.578535 2.828427 2.828427 
C 3.578535 2.078319 4 1.060812 4 0 
C 4 -1.060812 3.578535 -2.078319 2.828427 -2.828427 
C 2.078319 -3.578535 1.060812 -4 0 -4 
C -1.060812 -4 -2.078319 -3.578535 -2.828427 -2.828427 
C -3.578535 -2.078319 -4 -1.060812 -4 0 
C -4 1.060812 -3.578535 2.078319 -2.828427 2.828427 
C -2.078319 3.578535 -1.060812 4 0 4 
z
" style="stroke: #000000"/>
    </defs>
    <g clip-path="url(#p466c08de36)">
     <use xlink:href="#m3509ce42ce" x="46.472727" y="221.664111" style="stroke: #000000"/>
    </g>
   </g>
   <g id="line2d_17">
    <g clip-path="url(#p466c08de36)">
     <use xlink:href="#m3509ce42ce" x="111.927273" y="221.381713" style="stroke: #000000"/>
    </g>
   </g>
  </g>
 </g>
 <defs>
  <clipPath id="p466c08de36">
   <rect x="21.6" y="16.2" width="115.2" height="275.4"/>
  </clipPath>
 </defs>
</svg>
