<?xml version="1.0" encoding="utf-8" standalone="no"?>
<!DOCTYPE svg PUBLIC "-//W3C//DTD SVG 1.1//EN"
  "http://www.w3.org/Graphics/SVG/1.1/DTD/svg11.dtd">
<svg xmlns:xlink="http://www.w3.org/1999/xlink" width="144pt" height="324pt" viewBox="0 0 144 324" xmlns="http://www.w3.org/2000/svg" version="1.1">
 <metadata>
  <rdf:RDF xmlns:dc="http://purl.org/dc/elements/1.1/" xmlns:cc="http://creativecommons.org/ns#" xmlns:rdf="http://www.w3.org/1999/02/22-rdf-syntax-ns#">
   <cc:Work>
    <dc:type rdf:resource="http://purl.org/dc/dcmitype/StillImage"/>
    <dc:date>2025-12-08T20:14:21.475407</dc:date>
    <dc:format>image/svg+xml</dc:format>
    <dc:creator>
     <cc:Agent>
      <dc:title>Matplotlib v3.10.0, https://matplotlib.org/</dc:title>
     </cc:Agent>
    </dc:creator>
   </cc:Work>
  </rdf:RDF>
 </metadata>
 <defs>
  <style type="text/css">*{stroke-linejoin: round; stroke-linecap: butt}</style>
 </defs>
 <g id="figure_1">
  <g id="patch_1">
   <path d="M 0 324 
L 144 324 
L 144 0 
L 0 0 
z
" style="fill: #ffffff"/>
  </g>
  <g id="axes_1">
   <g id="patch_2">
    <path d="M 21.6 291.6 
L 136.8 291.6 
L 136.8 16.2 
L 21.6 16.2 
z
" style="fill: #ffffff"/>
   </g>
   <g id="FillBetweenPolyCollection_1">
    <path d="M 45.918088 325 
L 45.903407 324.373474 
L 45.8669 322.768846 
L 45.829414 321.164218 
L 45.789212 319.55959 
L 45.74554 317.954962 
L 45.69912 316.350335 
L 45.652323 314.745707 
L 45.608941 313.141079 
L 45.573567 311.536451 
L 45.55068 309.931823 
L 45.543635 308.327195 
L 45.553774 306.722567 
L 45.579855 305.117939 
L 45.617935 303.513311 
L 45.661738 301.908683 
L 45.70343 300.304055 
L 45.734651 298.699427 
L 45.747612 297.094799 
L 45.736052 295.490171 
L 45.695892 293.885543 
L 45.6255 292.280915 
L 45.525516 290.676288 
L 45.398283 289.07166 
L 45.246956 287.467032 
L 45.074428 285.862404 
L 44.882208 284.257776 
L 44.669404 282.653148 
L 44.431952 281.04852 
L 44.162202 279.443892 
L 43.848942 277.839264 
L 43.477903 276.234636 
L 43.032759 274.630008 
L 42.496588 273.02538 
L 41.853748 271.420752 
L 41.092024 269.816124 
L 40.204881 268.211496 
L 39.193538 266.606868 
L 38.068525 265.002241 
L 36.850374 263.397613 
L 35.569124 261.792985 
L 34.262498 260.188357 
L 32.972826 258.583729 
L 31.743067 256.979101 
L 30.612513 255.374473 
L 29.612902 253.769845 
L 28.765637 252.165217 
L 28.08064 250.560589 
L 27.557021 248.955961 
L 27.185415 247.351333 
L 26.951441 245.746705 
L 26.839538 244.142077 
L 26.836364 242.537449 
L 26.933031 240.932821 
L 27.125782 239.328194 
L 27.41502 237.723566 
L 27.803049 236.118938 
L 28.291156 234.51431 
L 28.876835 232.909682 
L 29.551907 231.305054 
L 30.302076 229.700426 
L 31.108063 228.095798 
L 31.94808 226.49117 
L 32.801016 224.886542 
L 33.649556 223.281914 
L 34.482429 221.677286 
L 35.295256 220.072658 
L 36.089817 218.46803 
L 36.871976 216.863402 
L 37.648825 215.258774 
L 38.425803 213.654147 
L 39.204443 212.049519 
L 39.981246 210.444891 
L 40.747826 208.840263 
L 41.492138 207.235635 
L 42.20039 205.631007 
L 42.859124 204.026379 
L 43.457008 202.421751 
L 43.986027 200.817123 
L 44.441979 199.212495 
L 44.824344 197.607867 
L 45.13573 196.003239 
L 45.38113 194.398611 
L 45.56717 192.793983 
L 45.701472 191.189355 
L 45.792161 189.584727 
L 45.847484 187.9801 
L 45.875489 186.375472 
L 45.883726 184.770844 
L 45.878979 183.166216 
L 45.86703 181.561588 
L 45.852535 179.95696 
L 45.839014 178.352332 
L 45.828978 176.747704 
L 45.824152 175.143076 
L 45.825727 173.538448 
L 45.834561 171.93382 
L 45.851285 170.329192 
L 45.876288 168.724564 
L 45.909606 167.119936 
L 47.035849 167.119936 
L 47.035849 167.119936 
L 47.069167 168.724564 
L 47.09417 170.329192 
L 47.110894 171.93382 
L 47.119727 173.538448 
L 47.121302 175.143076 
L 47.116477 176.747704 
L 47.106441 178.352332 
L 47.092919 179.95696 
L 47.078424 181.561588 
L 47.066476 183.166216 
L 47.061728 184.770844 
L 47.069966 186.375472 
L 47.09797 187.9801 
L 47.153294 189.584727 
L 47.243983 191.189355 
L 47.378285 192.793983 
L 47.564324 194.398611 
L 47.809725 196.003239 
L 48.121111 197.607867 
L 48.503475 199.212495 
L 48.959427 200.817123 
L 49.488447 202.421751 
L 50.086331 204.026379 
L 50.745065 205.631007 
L 51.453316 207.235635 
L 52.197628 208.840263 
L 52.964209 210.444891 
L 53.741012 212.049519 
L 54.519651 213.654147 
L 55.296629 215.258774 
L 56.073479 216.863402 
L 56.855637 218.46803 
L 57.650199 220.072658 
L 58.463026 221.677286 
L 59.295899 223.281914 
L 60.144439 224.886542 
L 60.997375 226.49117 
L 61.837391 228.095798 
L 62.643378 229.700426 
L 63.393547 231.305054 
L 64.06862 232.909682 
L 64.654299 234.51431 
L 65.142406 236.118938 
L 65.530435 237.723566 
L 65.819672 239.328194 
L 66.012423 240.932821 
L 66.109091 242.537449 
L 66.105916 244.142077 
L 65.994014 245.746705 
L 65.760039 247.351333 
L 65.388434 248.955961 
L 64.864815 250.560589 
L 64.179817 252.165217 
L 63.332553 253.769845 
L 62.332941 255.374473 
L 61.202387 256.979101 
L 59.972628 258.583729 
L 58.682956 260.188357 
L 57.37633 261.792985 
L 56.095081 263.397613 
L 54.87693 265.002241 
L 53.751917 266.606868 
L 52.740573 268.211496 
L 51.85343 269.816124 
L 51.091706 271.420752 
L 50.448866 273.02538 
L 49.912696 274.630008 
L 49.467551 276.234636 
L 49.096513 277.839264 
L 48.783252 279.443892 
L 48.513502 281.04852 
L 48.27605 282.653148 
L 48.063246 284.257776 
L 47.871026 285.862404 
L 47.698498 287.467032 
L 47.547171 289.07166 
L 47.419938 290.676288 
L 47.319955 292.280915 
L 47.249563 293.885543 
L 47.209403 295.490171 
L 47.197842 297.094799 
L 47.210804 298.699427 
L 47.242025 300.304055 
L 47.283716 301.908683 
L 47.327519 303.513311 
L 47.365599 305.117939 
L 47.39168 306.722567 
L 47.401819 308.327195 
L 47.394775 309.931823 
L 47.371888 311.536451 
L 47.336514 313.141079 
L 47.293132 314.745707 
L 47.246335 316.350335 
L 47.199915 317.954962 
L 47.156243 319.55959 
L 47.116041 321.164218 
L 47.078555 322.768846 
L 47.042048 324.373474 
L 47.027367 325 
" clip-path="url(#p8e27ff92ef)" style="fill: none; stroke: #000000; stroke-opacity: 0.3"/>
   </g>
   <g id="FillBetweenPolyCollection_2">
    <path d="M 51.564069 275.768016 
L 41.381385 275.768016 
L 40.787036 274.976741 
L 40.1679 274.185467 
L 39.52765 273.394193 
L 38.869877 272.602918 
L 38.197964 271.811644 
L 37.514994 271.02037 
L 36.823722 270.229095 
L 36.126618 269.437821 
L 35.425968 268.646547 
L 34.724028 267.855272 
L 34.02322 267.063998 
L 33.326342 266.272724 
L 32.636756 265.48145 
L 31.958547 264.690175 
L 31.296604 263.898901 
L 30.656625 263.107627 
L 30.045018 262.316352 
L 29.468711 261.525078 
L 28.934869 260.733804 
L 28.45054 259.942529 
L 28.02226 259.151255 
L 27.655644 258.359981 
L 27.354997 257.568706 
L 27.122981 256.777432 
L 26.960373 255.986158 
L 26.865926 255.194884 
L 26.836364 254.403609 
L 26.866509 253.612335 
L 26.949546 252.821061 
L 27.077401 252.029786 
L 27.241219 251.238512 
L 27.431912 250.447238 
L 27.640722 249.655963 
L 27.859773 248.864689 
L 28.082556 248.073415 
L 28.30431 247.282141 
L 28.522259 246.490866 
L 28.735685 245.699592 
L 28.945825 244.908318 
L 29.155595 244.117043 
L 29.369167 243.325769 
L 29.591439 242.534495 
L 29.827429 241.74322 
L 30.081683 240.951946 
L 30.357712 240.160672 
L 30.657553 239.369397 
L 30.981457 238.578123 
L 31.327765 237.786849 
L 31.692952 236.995575 
L 32.071854 236.2043 
L 32.458041 235.413026 
L 32.844291 234.621752 
L 33.223141 233.830477 
L 33.587441 233.039203 
L 33.930876 232.247929 
L 34.248413 231.456654 
L 34.53664 230.66538 
L 34.793981 229.874106 
L 35.020775 229.082831 
L 35.219226 228.291557 
L 35.393237 227.500283 
L 35.548143 226.709009 
L 35.69038 225.917734 
L 35.827093 225.12646 
L 35.965735 224.335186 
L 36.113658 223.543911 
L 36.27773 222.752637 
L 36.463993 221.961363 
L 36.677376 221.170088 
L 36.921472 220.378814 
L 37.198393 219.58754 
L 37.5087 218.796266 
L 37.851417 218.004991 
L 38.224118 217.213717 
L 38.623084 216.422443 
L 39.04352 215.631168 
L 39.479821 214.839894 
L 39.925853 214.04862 
L 40.375265 213.257345 
L 40.821776 212.466071 
L 41.259451 211.674797 
L 41.682933 210.883522 
L 42.087628 210.092248 
L 42.469838 209.300974 
L 42.826829 208.5097 
L 43.156852 207.718425 
L 43.459107 206.927151 
L 43.733664 206.135877 
L 43.981354 205.344602 
L 44.203637 204.553328 
L 44.402452 203.762054 
L 44.58007 202.970779 
L 44.73895 202.179505 
L 44.881606 201.388231 
L 45.01049 200.596957 
L 45.127895 199.805682 
L 45.23588 199.014408 
L 45.336219 198.223134 
L 45.430367 197.431859 
L 47.515088 197.431859 
L 47.515088 197.431859 
L 47.609235 198.223134 
L 47.709574 199.014408 
L 47.81756 199.805682 
L 47.934964 200.596957 
L 48.063848 201.388231 
L 48.206504 202.179505 
L 48.365385 202.970779 
L 48.543003 203.762054 
L 48.741817 204.553328 
L 48.9641 205.344602 
L 49.211791 206.135877 
L 49.486347 206.927151 
L 49.788602 207.718425 
L 50.118626 208.5097 
L 50.475617 209.300974 
L 50.857827 210.092248 
L 51.262522 210.883522 
L 51.686004 211.674797 
L 52.123679 212.466071 
L 52.57019 213.257345 
L 53.019601 214.04862 
L 53.465634 214.839894 
L 53.901934 215.631168 
L 54.322371 216.422443 
L 54.721337 217.213717 
L 55.094038 218.004991 
L 55.436755 218.796266 
L 55.747062 219.58754 
L 56.023983 220.378814 
L 56.268079 221.170088 
L 56.481462 221.961363 
L 56.667725 222.752637 
L 56.831796 223.543911 
L 56.979719 224.335186 
L 57.118361 225.12646 
L 57.255075 225.917734 
L 57.397311 226.709009 
L 57.552218 227.500283 
L 57.726228 228.291557 
L 57.92468 229.082831 
L 58.151474 229.874106 
L 58.408815 230.66538 
L 58.697042 231.456654 
L 59.014578 232.247929 
L 59.358013 233.039203 
L 59.722314 233.830477 
L 60.101164 234.621752 
L 60.487414 235.413026 
L 60.8736 236.2043 
L 61.252503 236.995575 
L 61.61769 237.786849 
L 61.963997 238.578123 
L 62.287902 239.369397 
L 62.587742 240.160672 
L 62.863772 240.951946 
L 63.118025 241.74322 
L 63.354016 242.534495 
L 63.576287 243.325769 
L 63.78986 244.117043 
L 63.99963 244.908318 
L 64.209769 245.699592 
L 64.423195 246.490866 
L 64.641144 247.282141 
L 64.862898 248.073415 
L 65.085682 248.864689 
L 65.304733 249.655963 
L 65.513543 250.447238 
L 65.704236 251.238512 
L 65.868054 252.029786 
L 65.995908 252.821061 
L 66.078945 253.612335 
L 66.109091 254.403609 
L 66.079529 255.194884 
L 65.985081 255.986158 
L 65.822473 256.777432 
L 65.590458 257.568706 
L 65.28981 258.359981 
L 64.923194 259.151255 
L 64.494915 259.942529 
L 64.010586 260.733804 
L 63.476743 261.525078 
L 62.900437 262.316352 
L 62.288829 263.107627 
L 61.64885 263.898901 
L 60.986907 264.690175 
L 60.308698 265.48145 
L 59.619113 266.272724 
L 58.922235 267.063998 
L 58.221427 267.855272 
L 57.519487 268.646547 
L 56.818836 269.437821 
L 56.121733 270.229095 
L 55.430461 271.02037 
L 54.74749 271.811644 
L 54.075577 272.602918 
L 53.417805 273.394193 
L 52.777554 274.185467 
L 52.158419 274.976741 
L 51.564069 275.768016 
L 51.564069 275.768016 
z
" clip-path="url(#p8e27ff92ef)" style="fill: none; stroke: #000000; stroke-opacity: 0.3"/>
   </g>
   <g id="FillBetweenPolyCollection_3">
    <path d="M 49.200936 295.212587 
L 43.744518 295.212587 
L 43.580926 294.309818 
L 43.408988 293.407048 
L 43.227925 292.504279 
L 43.036985 291.601509 
L 42.835483 290.69874 
L 42.622828 289.795971 
L 42.398554 288.893201 
L 42.16235 287.990432 
L 41.91408 287.087662 
L 41.653796 286.184893 
L 41.381748 285.282123 
L 41.098381 284.379354 
L 40.804324 283.476584 
L 40.500373 282.573815 
L 40.187462 281.671045 
L 39.866627 280.768276 
L 39.538967 279.865506 
L 39.205601 278.962737 
L 38.86762 278.059968 
L 38.526044 277.157198 
L 38.181776 276.254429 
L 37.835569 275.351659 
L 37.487995 274.44889 
L 37.139425 273.54612 
L 36.790019 272.643351 
L 36.439729 271.740581 
L 36.08831 270.837812 
L 35.73535 269.935042 
L 35.380305 269.032273 
L 35.022541 268.129504 
L 34.661395 267.226734 
L 34.296228 266.323965 
L 33.926491 265.421195 
L 33.551785 264.518426 
L 33.171923 263.615656 
L 32.786982 262.712887 
L 32.397355 261.810117 
L 32.00378 260.907348 
L 31.607371 260.004578 
L 31.209629 259.101809 
L 30.812433 258.19904 
L 30.418032 257.29627 
L 30.029004 256.393501 
L 29.648216 255.490731 
L 29.278764 254.587962 
L 28.923906 253.685192 
L 28.586986 252.782423 
L 28.271347 251.879653 
L 27.980254 250.976884 
L 27.716799 250.074114 
L 27.483826 249.171345 
L 27.28385 248.268576 
L 27.118992 247.365806 
L 26.990915 246.463037 
L 26.900785 245.560267 
L 26.849239 244.657498 
L 26.836364 243.754728 
L 26.861704 242.851959 
L 26.924272 241.949189 
L 27.022583 241.04642 
L 27.154696 240.14365 
L 27.318272 239.240881 
L 27.510641 238.338112 
L 27.728876 237.435342 
L 27.969869 236.532573 
L 28.230418 235.629803 
L 28.5073 234.727034 
L 28.797353 233.824264 
L 29.097544 232.921495 
L 29.405034 232.018725 
L 29.717231 231.115956 
L 30.031834 230.213186 
L 30.346867 229.310417 
L 30.660697 228.407647 
L 30.972046 227.504878 
L 31.279994 226.602109 
L 31.583965 225.699339 
L 31.883711 224.79657 
L 32.179291 223.8938 
L 32.471035 222.991031 
L 32.759515 222.088261 
L 33.045509 221.185492 
L 33.329956 220.282722 
L 33.613922 219.379953 
L 33.898558 218.477183 
L 34.18506 217.574414 
L 34.47463 216.671645 
L 34.768441 215.768875 
L 35.067596 214.866106 
L 35.373101 213.963336 
L 35.685823 213.060567 
L 36.006473 212.157797 
L 36.33557 211.255028 
L 36.673424 210.352258 
L 37.020116 209.449489 
L 37.37549 208.546719 
L 37.739137 207.64395 
L 38.110404 206.741181 
L 38.488393 205.838411 
L 54.457062 205.838411 
L 54.457062 205.838411 
L 54.835051 206.741181 
L 55.206318 207.64395 
L 55.569965 208.546719 
L 55.925338 209.449489 
L 56.272031 210.352258 
L 56.609885 211.255028 
L 56.938982 212.157797 
L 57.259631 213.060567 
L 57.572354 213.963336 
L 57.877858 214.866106 
L 58.177014 215.768875 
L 58.470825 216.671645 
L 58.760395 217.574414 
L 59.046897 218.477183 
L 59.331533 219.379953 
L 59.615499 220.282722 
L 59.899946 221.185492 
L 60.185939 222.088261 
L 60.47442 222.991031 
L 60.766164 223.8938 
L 61.061743 224.79657 
L 61.361489 225.699339 
L 61.66546 226.602109 
L 61.973408 227.504878 
L 62.284758 228.407647 
L 62.598588 229.310417 
L 62.91362 230.213186 
L 63.228224 231.115956 
L 63.54042 232.018725 
L 63.84791 232.921495 
L 64.148101 233.824264 
L 64.438154 234.727034 
L 64.715036 235.629803 
L 64.975585 236.532573 
L 65.216579 237.435342 
L 65.434813 238.338112 
L 65.627182 239.240881 
L 65.790758 240.14365 
L 65.922871 241.04642 
L 66.021182 241.949189 
L 66.083751 242.851959 
L 66.109091 243.754728 
L 66.096216 244.657498 
L 66.044669 245.560267 
L 65.95454 246.463037 
L 65.826463 247.365806 
L 65.661604 248.268576 
L 65.461629 249.171345 
L 65.228656 250.074114 
L 64.965201 250.976884 
L 64.674107 251.879653 
L 64.358469 252.782423 
L 64.021548 253.685192 
L 63.666691 254.587962 
L 63.297239 255.490731 
L 62.916451 256.393501 
L 62.527423 257.29627 
L 62.133021 258.19904 
L 61.735826 259.101809 
L 61.338083 260.004578 
L 60.941675 260.907348 
L 60.5481 261.810117 
L 60.158472 262.712887 
L 59.773532 263.615656 
L 59.39367 264.518426 
L 59.018963 265.421195 
L 58.649226 266.323965 
L 58.284059 267.226734 
L 57.922913 268.129504 
L 57.56515 269.032273 
L 57.210104 269.935042 
L 56.857145 270.837812 
L 56.505726 271.740581 
L 56.155435 272.643351 
L 55.806029 273.54612 
L 55.457459 274.44889 
L 55.109886 275.351659 
L 54.763679 276.254429 
L 54.419411 277.157198 
L 54.077834 278.059968 
L 53.739854 278.962737 
L 53.406488 279.865506 
L 53.078828 280.768276 
L 52.757993 281.671045 
L 52.445081 282.573815 
L 52.14113 283.476584 
L 51.847074 284.379354 
L 51.563707 285.282123 
L 51.291659 286.184893 
L 51.031375 287.087662 
L 50.783104 287.990432 
L 50.546901 288.893201 
L 50.322627 289.795971 
L 50.109971 290.69874 
L 49.908469 291.601509 
L 49.71753 292.504279 
L 49.536466 293.407048 
L 49.364529 294.309818 
L 49.200936 295.212587 
L 49.200936 295.212587 
z
" clip-path="url(#p8e27ff92ef)" style="fill: none; stroke: #000000; stroke-opacity: 0.3"/>
   </g>
   <g id="FillBetweenPolyCollection_4">
    <path d="M 49.75795 276.843073 
L 43.187505 276.843073 
L 42.827423 276.118533 
L 42.439575 275.393992 
L 42.023739 274.669451 
L 41.580113 273.944911 
L 41.109356 273.22037 
L 40.612623 272.495829 
L 40.091569 271.771289 
L 39.548337 271.046748 
L 38.985524 270.322207 
L 38.406128 269.597667 
L 37.813472 268.873126 
L 37.21112 268.148585 
L 36.602787 267.424045 
L 35.992237 266.699504 
L 35.383193 265.974963 
L 34.779252 265.250423 
L 34.183816 264.525882 
L 33.600037 263.801341 
L 33.030781 263.076801 
L 32.478609 262.35226 
L 31.945776 261.627719 
L 31.434242 260.903179 
L 30.945698 260.178638 
L 30.481587 259.454097 
L 30.043136 258.729557 
L 29.631381 258.005016 
L 29.247189 257.280475 
L 28.891268 256.555935 
L 28.564171 255.831394 
L 28.266295 255.106853 
L 27.997867 254.382313 
L 27.758932 253.657772 
L 27.549334 252.933231 
L 27.3687 252.20869 
L 27.216429 251.48415 
L 27.091688 250.759609 
L 26.993408 250.035068 
L 26.920304 249.310528 
L 26.870887 248.585987 
L 26.843503 247.861446 
L 26.836364 247.136906 
L 26.847602 246.412365 
L 26.875321 245.687824 
L 26.91765 244.963284 
L 26.972809 244.238743 
L 27.039166 243.514202 
L 27.115295 242.789662 
L 27.200031 242.065121 
L 27.292516 241.34058 
L 27.392239 240.61604 
L 27.499063 239.891499 
L 27.613238 239.166958 
L 27.735402 238.442418 
L 27.866568 237.717877 
L 28.008092 236.993336 
L 28.161624 236.268796 
L 28.329049 235.544255 
L 28.51241 234.819714 
L 28.713823 234.095174 
L 28.935383 233.370633 
L 29.179065 232.646092 
L 29.446628 231.921552 
L 29.739515 231.197011 
L 30.058772 230.47247 
L 30.404969 229.74793 
L 30.778143 229.023389 
L 31.177752 228.298848 
L 31.602658 227.574308 
L 32.051122 226.849767 
L 32.520829 226.125226 
L 33.008925 225.400686 
L 33.512081 224.676145 
L 34.026572 223.951604 
L 34.548369 223.227064 
L 35.073248 222.502523 
L 35.596901 221.777982 
L 36.115059 221.053442 
L 36.623608 220.328901 
L 37.118711 219.60436 
L 37.596916 218.87982 
L 38.055253 218.155279 
L 38.491322 217.430738 
L 38.903354 216.706198 
L 39.290258 215.981657 
L 39.651638 215.257116 
L 39.987786 214.532575 
L 40.299648 213.808035 
L 40.588767 213.083494 
L 40.857199 212.358953 
L 41.107405 211.634413 
L 41.342138 210.909872 
L 41.564308 210.185331 
L 41.776848 209.460791 
L 41.982585 208.73625 
L 42.184113 208.011709 
L 42.383691 207.287169 
L 42.583156 206.562628 
L 42.783862 205.838087 
L 42.986646 205.113547 
L 49.958808 205.113547 
L 49.958808 205.113547 
L 50.161592 205.838087 
L 50.362298 206.562628 
L 50.561764 207.287169 
L 50.761342 208.011709 
L 50.96287 208.73625 
L 51.168606 209.460791 
L 51.381146 210.185331 
L 51.603316 210.909872 
L 51.83805 211.634413 
L 52.088256 212.358953 
L 52.356687 213.083494 
L 52.645807 213.808035 
L 52.957669 214.532575 
L 53.293816 215.257116 
L 53.655196 215.981657 
L 54.0421 216.706198 
L 54.454133 217.430738 
L 54.890201 218.155279 
L 55.348539 218.87982 
L 55.826743 219.60436 
L 56.321847 220.328901 
L 56.830396 221.053442 
L 57.348553 221.777982 
L 57.872207 222.502523 
L 58.397085 223.227064 
L 58.918883 223.951604 
L 59.433374 224.676145 
L 59.93653 225.400686 
L 60.424626 226.125226 
L 60.894332 226.849767 
L 61.342797 227.574308 
L 61.767703 228.298848 
L 62.167312 229.023389 
L 62.540485 229.74793 
L 62.886683 230.47247 
L 63.20594 231.197011 
L 63.498827 231.921552 
L 63.766389 232.646092 
L 64.010072 233.370633 
L 64.231632 234.095174 
L 64.433045 234.819714 
L 64.616405 235.544255 
L 64.78383 236.268796 
L 64.937362 236.993336 
L 65.078886 237.717877 
L 65.210053 238.442418 
L 65.332217 239.166958 
L 65.446391 239.891499 
L 65.553215 240.61604 
L 65.652939 241.34058 
L 65.745424 242.065121 
L 65.83016 242.789662 
L 65.906289 243.514202 
L 65.972645 244.238743 
L 66.027805 244.963284 
L 66.070134 245.687824 
L 66.097852 246.412365 
L 66.109091 247.136906 
L 66.101952 247.861446 
L 66.074567 248.585987 
L 66.025151 249.310528 
L 65.952046 250.035068 
L 65.853767 250.759609 
L 65.729025 251.48415 
L 65.576755 252.20869 
L 65.396121 252.933231 
L 65.186522 253.657772 
L 64.947587 254.382313 
L 64.67916 255.106853 
L 64.381283 255.831394 
L 64.054187 256.555935 
L 63.698265 257.280475 
L 63.314073 258.005016 
L 62.902319 258.729557 
L 62.463868 259.454097 
L 61.999756 260.178638 
L 61.511212 260.903179 
L 60.999679 261.627719 
L 60.466846 262.35226 
L 59.914673 263.076801 
L 59.345417 263.801341 
L 58.761639 264.525882 
L 58.166203 265.250423 
L 57.562262 265.974963 
L 56.953217 266.699504 
L 56.342667 267.424045 
L 55.734334 268.148585 
L 55.131983 268.873126 
L 54.539327 269.597667 
L 53.95993 270.322207 
L 53.397118 271.046748 
L 52.853886 271.771289 
L 52.332832 272.495829 
L 51.836099 273.22037 
L 51.365342 273.944911 
L 50.921715 274.669451 
L 50.505879 275.393992 
L 50.118032 276.118533 
L 49.75795 276.843073 
L 49.75795 276.843073 
z
" clip-path="url(#p8e27ff92ef)" style="fill: none; stroke: #000000; stroke-opacity: 0.3"/>
   </g>
   <g id="FillBetweenPolyCollection_5">
    <path d="M 54.25082 258.869524 
L 38.694634 258.869524 
L 38.332829 258.320074 
L 37.973084 257.770624 
L 37.616153 257.221174 
L 37.262693 256.671724 
L 36.913274 256.122274 
L 36.568376 255.572824 
L 36.228401 255.023374 
L 35.893683 254.473923 
L 35.564495 253.924473 
L 35.241065 253.375023 
L 34.92359 252.825573 
L 34.612242 252.276123 
L 34.307187 251.726673 
L 34.008589 251.177223 
L 33.716621 250.627773 
L 33.431466 250.078323 
L 33.153326 249.528873 
L 32.882417 248.979422 
L 32.618965 248.429972 
L 32.363203 247.880522 
L 32.115361 247.331072 
L 31.875656 246.781622 
L 31.644278 246.232172 
L 31.421381 245.682722 
L 31.207063 245.133272 
L 31.00136 244.583822 
L 30.804231 244.034372 
L 30.615547 243.484921 
L 30.435087 242.935471 
L 30.262529 242.386021 
L 30.097453 241.836571 
L 29.939342 241.287121 
L 29.787589 240.737671 
L 29.641509 240.188221 
L 29.500355 239.638771 
L 29.363336 239.089321 
L 29.229638 238.539871 
L 29.098453 237.99042 
L 28.969005 237.44097 
L 28.840579 236.89152 
L 28.712552 236.34207 
L 28.58442 235.79262 
L 28.455828 235.24317 
L 28.326594 234.69372 
L 28.196736 234.14427 
L 28.066481 233.59482 
L 27.936286 233.045369 
L 27.806843 232.495919 
L 27.679078 231.946469 
L 27.554149 231.397019 
L 27.433428 230.847569 
L 27.318492 230.298119 
L 27.211089 229.748669 
L 27.113114 229.199219 
L 27.026571 228.649769 
L 26.953533 228.100319 
L 26.896104 227.550868 
L 26.856371 227.001418 
L 26.836364 226.451968 
L 26.838007 225.902518 
L 26.863084 225.353068 
L 26.913192 224.803618 
L 26.989716 224.254168 
L 27.09379 223.704718 
L 27.226281 223.155268 
L 27.387769 222.605818 
L 27.578535 222.056367 
L 27.798557 221.506917 
L 28.047512 220.957467 
L 28.324786 220.408017 
L 28.629484 219.858567 
L 28.96045 219.309117 
L 29.316291 218.759667 
L 29.695403 218.210217 
L 30.095998 217.660767 
L 30.516135 217.111317 
L 30.953755 216.561866 
L 31.406708 216.012416 
L 31.872789 215.462966 
L 32.349763 214.913516 
L 32.835401 214.364066 
L 33.327498 213.814616 
L 33.823905 213.265166 
L 34.322546 212.715716 
L 34.821438 212.166266 
L 35.318707 211.616816 
L 35.8126 211.067365 
L 36.301496 210.517915 
L 36.783911 209.968465 
L 37.258505 209.419015 
L 37.724081 208.869565 
L 38.179584 208.320115 
L 38.6241 207.770665 
L 39.056851 207.221215 
L 39.477184 206.671765 
L 39.884569 206.122315 
L 40.278586 205.572864 
L 40.658916 205.023414 
L 41.025332 204.473964 
L 51.920123 204.473964 
L 51.920123 204.473964 
L 52.286538 205.023414 
L 52.666868 205.572864 
L 53.060885 206.122315 
L 53.46827 206.671765 
L 53.888604 207.221215 
L 54.321354 207.770665 
L 54.765871 208.320115 
L 55.221374 208.869565 
L 55.686949 209.419015 
L 56.161543 209.968465 
L 56.643959 210.517915 
L 57.132854 211.067365 
L 57.626747 211.616816 
L 58.124016 212.166266 
L 58.622908 212.715716 
L 59.12155 213.265166 
L 59.617957 213.814616 
L 60.110054 214.364066 
L 60.595691 214.913516 
L 61.072666 215.462966 
L 61.538746 216.012416 
L 61.991699 216.561866 
L 62.429319 217.111317 
L 62.849456 217.660767 
L 63.250051 218.210217 
L 63.629163 218.759667 
L 63.985005 219.309117 
L 64.315971 219.858567 
L 64.620668 220.408017 
L 64.897942 220.957467 
L 65.146898 221.506917 
L 65.36692 222.056367 
L 65.557685 222.605818 
L 65.719174 223.155268 
L 65.851665 223.704718 
L 65.955739 224.254168 
L 66.032262 224.803618 
L 66.082371 225.353068 
L 66.107447 225.902518 
L 66.109091 226.451968 
L 66.089083 227.001418 
L 66.049351 227.550868 
L 65.991922 228.100319 
L 65.918884 228.649769 
L 65.83234 229.199219 
L 65.734365 229.748669 
L 65.626962 230.298119 
L 65.512026 230.847569 
L 65.391306 231.397019 
L 65.266376 231.946469 
L 65.138611 232.495919 
L 65.009168 233.045369 
L 64.878974 233.59482 
L 64.748719 234.14427 
L 64.61886 234.69372 
L 64.489627 235.24317 
L 64.361035 235.79262 
L 64.232902 236.34207 
L 64.104875 236.89152 
L 63.976449 237.44097 
L 63.847002 237.99042 
L 63.715817 238.539871 
L 63.582119 239.089321 
L 63.445099 239.638771 
L 63.303945 240.188221 
L 63.157866 240.737671 
L 63.006113 241.287121 
L 62.848002 241.836571 
L 62.682926 242.386021 
L 62.510368 242.935471 
L 62.329907 243.484921 
L 62.141224 244.034372 
L 61.944095 244.583822 
L 61.738392 245.133272 
L 61.524074 245.682722 
L 61.301176 246.232172 
L 61.069798 246.781622 
L 60.830093 247.331072 
L 60.582252 247.880522 
L 60.32649 248.429972 
L 60.063038 248.979422 
L 59.792128 249.528873 
L 59.513988 250.078323 
L 59.228834 250.627773 
L 58.936865 251.177223 
L 58.638267 251.726673 
L 58.333212 252.276123 
L 58.021865 252.825573 
L 57.704389 253.375023 
L 57.38096 253.924473 
L 57.051772 254.473923 
L 56.717053 255.023374 
L 56.377079 255.572824 
L 56.032181 256.122274 
L 55.682761 256.671724 
L 55.329302 257.221174 
L 54.97237 257.770624 
L 54.612625 258.320074 
L 54.25082 258.869524 
L 54.25082 258.869524 
z
" clip-path="url(#p8e27ff92ef)" style="fill: none; stroke: #000000; stroke-opacity: 0.3"/>
   </g>
   <g id="FillBetweenPolyCollection_6">
    <path d="M 50.369988 277.111998 
L 42.575467 277.111998 
L 42.231322 276.349222 
L 41.882794 275.586446 
L 41.530881 274.82367 
L 41.175943 274.060894 
L 40.817631 273.298118 
L 40.454857 272.535342 
L 40.085814 271.772566 
L 39.708051 271.00979 
L 39.318597 270.247014 
L 38.914145 269.484238 
L 38.491266 268.721461 
L 38.046661 267.958685 
L 37.57743 267.195909 
L 37.081335 266.433133 
L 36.55705 265.670357 
L 36.004375 264.907581 
L 35.42439 264.144805 
L 34.819552 263.382029 
L 34.193711 262.619253 
L 33.552046 261.856477 
L 32.900925 261.093701 
L 32.247691 260.330925 
L 31.600393 259.568149 
L 30.967468 258.805372 
L 30.357414 258.042596 
L 29.778452 257.27982 
L 29.238212 256.517044 
L 28.743465 255.754268 
L 28.299897 254.991492 
L 27.911959 254.228716 
L 27.582776 253.46594 
L 27.31412 252.703164 
L 27.106455 251.940388 
L 26.959013 251.177612 
L 26.869924 250.414836 
L 26.836364 249.65206 
L 26.854718 248.889283 
L 26.920754 248.126507 
L 27.029793 247.363731 
L 27.176877 246.600955 
L 27.356933 245.838179 
L 27.564933 245.075403 
L 27.796046 244.312627 
L 28.045784 243.549851 
L 28.310136 242.787075 
L 28.585688 242.024299 
L 28.869719 241.261523 
L 29.160257 240.498747 
L 29.456105 239.735971 
L 29.756811 238.973194 
L 30.062591 238.210418 
L 30.374204 237.447642 
L 30.692777 236.684866 
L 31.019603 235.92209 
L 31.355923 235.159314 
L 31.7027 234.396538 
L 32.060427 233.633762 
L 32.428966 232.870986 
L 32.807442 232.10821 
L 33.194212 231.345434 
L 33.586899 230.582658 
L 33.982501 229.819882 
L 34.377564 229.057106 
L 34.768402 228.294329 
L 35.151357 227.531553 
L 35.523061 226.768777 
L 35.88069 226.006001 
L 36.222186 225.243225 
L 36.546427 224.480449 
L 36.853326 223.717673 
L 37.143857 222.954897 
L 37.419998 222.192121 
L 37.6846 221.429345 
L 37.941189 220.666569 
L 38.193714 219.903793 
L 38.446264 219.141017 
L 38.702771 218.37824 
L 38.966735 217.615464 
L 39.240968 216.852688 
L 39.527408 216.089912 
L 39.82699 215.327136 
L 40.13959 214.56436 
L 40.464059 213.801584 
L 40.798319 213.038808 
L 41.13952 212.276032 
L 41.484255 211.513256 
L 41.828789 210.75048 
L 42.169302 209.987704 
L 42.502119 209.224928 
L 42.823913 208.462151 
L 43.13186 207.699375 
L 43.42375 206.936599 
L 43.698039 206.173823 
L 43.95385 205.411047 
L 44.190932 204.648271 
L 44.409573 203.885495 
L 44.610499 203.122719 
L 44.794749 202.359943 
L 44.963558 201.597167 
L 47.981897 201.597167 
L 47.981897 201.597167 
L 48.150705 202.359943 
L 48.334955 203.122719 
L 48.535881 203.885495 
L 48.754523 204.648271 
L 48.991604 205.411047 
L 49.247416 206.173823 
L 49.521704 206.936599 
L 49.813594 207.699375 
L 50.121541 208.462151 
L 50.443335 209.224928 
L 50.776153 209.987704 
L 51.116665 210.75048 
L 51.461199 211.513256 
L 51.805934 212.276032 
L 52.147136 213.038808 
L 52.481395 213.801584 
L 52.805865 214.56436 
L 53.118465 215.327136 
L 53.418046 216.089912 
L 53.704487 216.852688 
L 53.97872 217.615464 
L 54.242683 218.37824 
L 54.499191 219.141017 
L 54.75174 219.903793 
L 55.004266 220.666569 
L 55.260855 221.429345 
L 55.525457 222.192121 
L 55.801598 222.954897 
L 56.092128 223.717673 
L 56.399027 224.480449 
L 56.723269 225.243225 
L 57.064765 226.006001 
L 57.422393 226.768777 
L 57.794097 227.531553 
L 58.177052 228.294329 
L 58.567891 229.057106 
L 58.962953 229.819882 
L 59.358556 230.582658 
L 59.751243 231.345434 
L 60.138013 232.10821 
L 60.516489 232.870986 
L 60.885027 233.633762 
L 61.242755 234.396538 
L 61.589532 235.159314 
L 61.925851 235.92209 
L 62.252678 236.684866 
L 62.57125 237.447642 
L 62.882863 238.210418 
L 63.188644 238.973194 
L 63.48935 239.735971 
L 63.785197 240.498747 
L 64.075735 241.261523 
L 64.359766 242.024299 
L 64.635319 242.787075 
L 64.899671 243.549851 
L 65.149408 244.312627 
L 65.380521 245.075403 
L 65.588521 245.838179 
L 65.768577 246.600955 
L 65.915661 247.363731 
L 66.0247 248.126507 
L 66.090737 248.889283 
L 66.109091 249.65206 
L 66.075531 250.414836 
L 65.986442 251.177612 
L 65.839 251.940388 
L 65.631334 252.703164 
L 65.362679 253.46594 
L 65.033495 254.228716 
L 64.645557 254.991492 
L 64.20199 255.754268 
L 63.707242 256.517044 
L 63.167003 257.27982 
L 62.58804 258.042596 
L 61.977986 258.805372 
L 61.345062 259.568149 
L 60.697763 260.330925 
L 60.04453 261.093701 
L 59.393409 261.856477 
L 58.751744 262.619253 
L 58.125903 263.382029 
L 57.521065 264.144805 
L 56.941079 264.907581 
L 56.388404 265.670357 
L 55.86412 266.433133 
L 55.368025 267.195909 
L 54.898793 267.958685 
L 54.454189 268.721461 
L 54.031309 269.484238 
L 53.626857 270.247014 
L 53.237404 271.00979 
L 52.85964 271.772566 
L 52.490597 272.535342 
L 52.127824 273.298118 
L 51.769512 274.060894 
L 51.414574 274.82367 
L 51.062661 275.586446 
L 50.714133 276.349222 
L 50.369988 277.111998 
L 50.369988 277.111998 
z
" clip-path="url(#p8e27ff92ef)" style="fill: none; stroke: #000000; stroke-opacity: 0.3"/>
   </g>
   <g id="FillBetweenPolyCollection_7">
    <path d="M 112.601763 281.331257 
L 111.252782 281.331257 
L 111.166268 280.441168 
L 111.070241 279.551078 
L 110.961915 278.660988 
L 110.838254 277.770898 
L 110.696346 276.880809 
L 110.533845 275.990719 
L 110.349421 275.100629 
L 110.143156 274.21054 
L 109.916813 273.32045 
L 109.673913 272.43036 
L 109.419582 271.54027 
L 109.160154 270.650181 
L 108.902563 269.760091 
L 108.653573 268.870001 
L 108.418942 267.979911 
L 108.202616 267.089822 
L 108.006056 266.199732 
L 107.827791 265.309642 
L 107.663262 264.419553 
L 107.50499 263.529463 
L 107.343069 262.639373 
L 107.165946 261.749283 
L 106.961423 260.859194 
L 106.717771 259.969104 
L 106.424844 259.079014 
L 106.075048 258.188925 
L 105.664037 257.298835 
L 105.191037 256.408745 
L 104.658739 255.518655 
L 104.072756 254.628566 
L 103.440734 253.738476 
L 102.771255 252.848386 
L 102.072706 251.958296 
L 101.35234 251.068207 
L 100.615689 250.178117 
L 99.866472 249.288027 
L 99.107029 248.397938 
L 98.339229 247.507848 
L 97.565713 246.617758 
L 96.791248 245.727668 
L 96.023947 244.837579 
L 95.276098 243.947489 
L 94.5644 243.057399 
L 93.909491 242.16731 
L 93.334753 241.27722 
L 92.864498 240.38713 
L 92.521762 239.49704 
L 92.325984 238.606951 
L 92.290909 237.716861 
L 92.42302 236.826771 
L 92.720705 235.936681 
L 93.1743 235.046592 
L 93.766958 234.156502 
L 94.476208 233.266412 
L 95.275959 232.376323 
L 96.138656 231.486233 
L 97.037311 230.596143 
L 97.947189 229.706053 
L 98.847008 228.815964 
L 99.719612 227.925874 
L 100.552152 227.035784 
L 101.335877 226.145695 
L 102.065647 225.255605 
L 102.739313 224.365515 
L 103.357055 223.475425 
L 103.920776 222.585336 
L 104.433594 221.695246 
L 104.899464 220.805156 
L 105.322921 219.915066 
L 105.708927 219.024977 
L 106.062789 218.134887 
L 106.390091 217.244797 
L 106.696603 216.354708 
L 106.988137 215.464618 
L 107.270322 214.574528 
L 107.548308 213.684438 
L 107.826438 212.794349 
L 108.107911 211.904259 
L 108.394514 211.014169 
L 108.686451 210.12408 
L 108.982313 209.23399 
L 109.279206 208.3439 
L 109.573027 207.45381 
L 109.858845 206.563721 
L 110.131375 205.673631 
L 110.385459 204.783541 
L 110.616531 203.893451 
L 110.821006 203.003362 
L 110.996576 202.113272 
L 111.142375 201.223182 
L 111.259016 200.333093 
L 111.348502 199.443003 
L 111.414027 198.552913 
L 111.459673 197.662823 
L 111.49006 196.772734 
L 111.509953 195.882644 
L 111.523885 194.992554 
L 111.535826 194.102465 
L 111.54892 193.212375 
L 112.305625 193.212375 
L 112.305625 193.212375 
L 112.31872 194.102465 
L 112.33066 194.992554 
L 112.344593 195.882644 
L 112.364486 196.772734 
L 112.394873 197.662823 
L 112.440519 198.552913 
L 112.506043 199.443003 
L 112.59553 200.333093 
L 112.71217 201.223182 
L 112.857969 202.113272 
L 113.03354 203.003362 
L 113.238015 203.893451 
L 113.469086 204.783541 
L 113.72317 205.673631 
L 113.9957 206.563721 
L 114.281519 207.45381 
L 114.575339 208.3439 
L 114.872233 209.23399 
L 115.168095 210.12408 
L 115.460031 211.014169 
L 115.746634 211.904259 
L 116.028108 212.794349 
L 116.306237 213.684438 
L 116.584224 214.574528 
L 116.866408 215.464618 
L 117.157942 216.354708 
L 117.464454 217.244797 
L 117.791756 218.134887 
L 118.145618 219.024977 
L 118.531625 219.915066 
L 118.955081 220.805156 
L 119.420951 221.695246 
L 119.93377 222.585336 
L 120.497491 223.475425 
L 121.115233 224.365515 
L 121.788898 225.255605 
L 122.518668 226.145695 
L 123.302393 227.035784 
L 124.134934 227.925874 
L 125.007538 228.815964 
L 125.907357 229.706053 
L 126.817235 230.596143 
L 127.715889 231.486233 
L 128.578586 232.376323 
L 129.378338 233.266412 
L 130.087588 234.156502 
L 130.680246 235.046592 
L 131.133841 235.936681 
L 131.431526 236.826771 
L 131.563636 237.716861 
L 131.528562 238.606951 
L 131.332783 239.49704 
L 130.990047 240.38713 
L 130.519793 241.27722 
L 129.945055 242.16731 
L 129.290146 243.057399 
L 128.578448 243.947489 
L 127.830598 244.837579 
L 127.063298 245.727668 
L 126.288833 246.617758 
L 125.515316 247.507848 
L 124.747516 248.397938 
L 123.988073 249.288027 
L 123.238856 250.178117 
L 122.502205 251.068207 
L 121.781839 251.958296 
L 121.08329 252.848386 
L 120.413811 253.738476 
L 119.78179 254.628566 
L 119.195806 255.518655 
L 118.663508 256.408745 
L 118.190509 257.298835 
L 117.779497 258.188925 
L 117.429701 259.079014 
L 117.136775 259.969104 
L 116.893123 260.859194 
L 116.688599 261.749283 
L 116.511477 262.639373 
L 116.349555 263.529463 
L 116.191284 264.419553 
L 116.026755 265.309642 
L 115.84849 266.199732 
L 115.651929 267.089822 
L 115.435603 267.979911 
L 115.200973 268.870001 
L 114.951983 269.760091 
L 114.694391 270.650181 
L 114.434963 271.54027 
L 114.180632 272.43036 
L 113.937733 273.32045 
L 113.71139 274.21054 
L 113.505125 275.100629 
L 113.320701 275.990719 
L 113.1582 276.880809 
L 113.016292 277.770898 
L 112.89263 278.660988 
L 112.784304 279.551078 
L 112.688277 280.441168 
L 112.601763 281.331257 
L 112.601763 281.331257 
z
" clip-path="url(#p8e27ff92ef)" style="fill: none; stroke: #000000; stroke-opacity: 0.3"/>
   </g>
   <g id="FillBetweenPolyCollection_8">
    <path d="M 112.981068 278.046361 
L 110.873478 278.046361 
L 110.717068 277.20811 
L 110.543485 276.369859 
L 110.351733 275.531609 
L 110.14112 274.693358 
L 109.911332 273.855107 
L 109.662445 273.016857 
L 109.39487 272.178606 
L 109.109217 271.340355 
L 108.806086 270.502105 
L 108.485799 269.663854 
L 108.148106 268.825603 
L 107.791904 267.987353 
L 107.415019 267.149102 
L 107.01411 266.310851 
L 106.584722 265.472601 
L 106.121536 264.63435 
L 105.618811 263.796099 
L 105.071012 262.957849 
L 104.473565 262.119598 
L 103.823676 261.281347 
L 103.121099 260.443097 
L 102.368764 259.604846 
L 101.573146 258.766595 
L 100.744303 257.928345 
L 99.89553 257.090094 
L 99.042628 256.251844 
L 98.202859 255.413593 
L 97.393665 254.575342 
L 96.631316 253.737092 
L 95.92963 252.898841 
L 95.298923 252.06059 
L 94.745328 251.22234 
L 94.270538 250.384089 
L 93.872027 249.545838 
L 93.543683 248.707588 
L 93.276775 247.869337 
L 93.061129 247.031086 
L 92.886348 246.192836 
L 92.742942 245.354585 
L 92.623254 244.516334 
L 92.522077 243.678084 
L 92.436941 242.839833 
L 92.368051 242.001582 
L 92.317945 241.163332 
L 92.290909 240.325081 
L 92.292256 239.48683 
L 92.327548 238.64858 
L 92.401848 237.810329 
L 92.519068 236.972079 
L 92.68148 236.133828 
L 92.889421 235.295577 
L 93.141208 234.457327 
L 93.433278 233.619076 
L 93.76052 232.780825 
L 94.116776 231.942575 
L 94.495442 231.104324 
L 94.890128 230.266073 
L 95.295274 229.427823 
L 95.706662 228.589572 
L 96.121753 227.751321 
L 96.539793 226.913071 
L 96.961671 226.07482 
L 97.38954 225.236569 
L 97.826251 224.398319 
L 98.274676 223.560068 
L 98.737035 222.721817 
L 99.214314 221.883567 
L 99.705891 221.045316 
L 100.209424 220.207065 
L 100.721024 219.368815 
L 101.235685 218.530564 
L 101.747907 217.692313 
L 102.252402 216.854063 
L 102.744755 216.015812 
L 103.221947 215.177562 
L 103.682627 214.339311 
L 104.127114 213.50106 
L 104.557119 212.66281 
L 104.975248 211.824559 
L 105.384375 210.986308 
L 105.786993 210.148058 
L 106.184662 209.309807 
L 106.577628 208.471556 
L 106.964694 207.633306 
L 107.343327 206.795055 
L 107.709998 205.956804 
L 108.060679 205.118554 
L 108.391407 204.280303 
L 108.698843 203.442052 
L 108.980713 202.603802 
L 109.236101 201.765551 
L 109.465537 200.9273 
L 109.67089 200.08905 
L 109.855104 199.250799 
L 110.021805 198.412548 
L 110.174868 197.574298 
L 110.317984 196.736047 
L 110.4543 195.897797 
L 110.586166 195.059546 
L 113.268379 195.059546 
L 113.268379 195.059546 
L 113.400245 195.897797 
L 113.536562 196.736047 
L 113.679677 197.574298 
L 113.83274 198.412548 
L 113.999442 199.250799 
L 114.183655 200.08905 
L 114.389009 200.9273 
L 114.618444 201.765551 
L 114.873832 202.603802 
L 115.155703 203.442052 
L 115.463138 204.280303 
L 115.793867 205.118554 
L 116.144547 205.956804 
L 116.511218 206.795055 
L 116.889851 207.633306 
L 117.276917 208.471556 
L 117.669884 209.309807 
L 118.067552 210.148058 
L 118.470171 210.986308 
L 118.879298 211.824559 
L 119.297427 212.66281 
L 119.727432 213.50106 
L 120.171919 214.339311 
L 120.632598 215.177562 
L 121.10979 216.015812 
L 121.602144 216.854063 
L 122.106638 217.692313 
L 122.618861 218.530564 
L 123.133522 219.368815 
L 123.645121 220.207065 
L 124.148655 221.045316 
L 124.640232 221.883567 
L 125.11751 222.721817 
L 125.579869 223.560068 
L 126.028295 224.398319 
L 126.465006 225.236569 
L 126.892874 226.07482 
L 127.314752 226.913071 
L 127.732792 227.751321 
L 128.147883 228.589572 
L 128.559271 229.427823 
L 128.964417 230.266073 
L 129.359103 231.104324 
L 129.73777 231.942575 
L 130.094025 232.780825 
L 130.421268 233.619076 
L 130.713338 234.457327 
L 130.965125 235.295577 
L 131.173065 236.133828 
L 131.335477 236.972079 
L 131.452697 237.810329 
L 131.526997 238.64858 
L 131.562289 239.48683 
L 131.563636 240.325081 
L 131.5366 241.163332 
L 131.486494 242.001582 
L 131.417605 242.839833 
L 131.332468 243.678084 
L 131.231292 244.516334 
L 131.111604 245.354585 
L 130.968198 246.192836 
L 130.793416 247.031086 
L 130.57777 247.869337 
L 130.310863 248.707588 
L 129.982518 249.545838 
L 129.584007 250.384089 
L 129.109217 251.22234 
L 128.555622 252.06059 
L 127.924916 252.898841 
L 127.223229 253.737092 
L 126.460881 254.575342 
L 125.651687 255.413593 
L 124.811918 256.251844 
L 123.959016 257.090094 
L 123.110242 257.928345 
L 122.2814 258.766595 
L 121.485782 259.604846 
L 120.733447 260.443097 
L 120.030869 261.281347 
L 119.38098 262.119598 
L 118.783534 262.957849 
L 118.235735 263.796099 
L 117.73301 264.63435 
L 117.269823 265.472601 
L 116.840436 266.310851 
L 116.439527 267.149102 
L 116.062642 267.987353 
L 115.706439 268.825603 
L 115.368746 269.663854 
L 115.04846 270.502105 
L 114.745329 271.340355 
L 114.459675 272.178606 
L 114.1921 273.016857 
L 113.943213 273.855107 
L 113.713425 274.693358 
L 113.502812 275.531609 
L 113.31106 276.369859 
L 113.137477 277.20811 
L 112.981068 278.046361 
L 112.981068 278.046361 
z
" clip-path="url(#p8e27ff92ef)" style="fill: none; stroke: #000000; stroke-opacity: 0.3"/>
   </g>
   <g id="FillBetweenPolyCollection_9">
    <path d="M 115.015983 263.669248 
L 108.838563 263.669248 
L 108.702237 263.15768 
L 108.558644 262.646112 
L 108.406276 262.134544 
L 108.243521 261.622976 
L 108.068683 261.111408 
L 107.880023 260.59984 
L 107.675788 260.088272 
L 107.454254 259.576705 
L 107.213765 259.065137 
L 106.952777 258.553569 
L 106.669897 258.042001 
L 106.363924 257.530433 
L 106.033889 257.018865 
L 105.679087 256.507297 
L 105.29911 255.99573 
L 104.893876 255.484162 
L 104.463643 254.972594 
L 104.009033 254.461026 
L 103.531032 253.949458 
L 103.031 253.43789 
L 102.510663 252.926322 
L 101.972103 252.414755 
L 101.417744 251.903187 
L 100.850329 251.391619 
L 100.272896 250.880051 
L 99.688744 250.368483 
L 99.1014 249.856915 
L 98.514583 249.345347 
L 97.932161 248.833779 
L 97.358113 248.322212 
L 96.79648 247.810644 
L 96.251329 247.299076 
L 95.726704 246.787508 
L 95.226583 246.27594 
L 94.754834 245.764372 
L 94.315178 245.252804 
L 93.911141 244.741237 
L 93.546017 244.229669 
L 93.222831 243.718101 
L 92.944299 243.206533 
L 92.712798 242.694965 
L 92.530328 242.183397 
L 92.398487 241.671829 
L 92.318443 241.160262 
L 92.290909 240.648694 
L 92.316127 240.137126 
L 92.393852 239.625558 
L 92.523341 239.11399 
L 92.703356 238.602422 
L 92.932157 238.090854 
L 93.207523 237.579286 
L 93.526759 237.067719 
L 93.886729 236.556151 
L 94.283884 236.044583 
L 94.714302 235.533015 
L 95.173737 235.021447 
L 95.657675 234.509879 
L 96.161393 233.998311 
L 96.680023 233.486744 
L 97.208627 232.975176 
L 97.742268 232.463608 
L 98.276084 231.95204 
L 98.805366 231.440472 
L 99.325626 230.928904 
L 99.83267 230.417336 
L 100.322662 229.905769 
L 100.79218 229.394201 
L 101.238268 228.882633 
L 101.658474 228.371065 
L 102.050882 227.859497 
L 102.414127 227.347929 
L 102.74741 226.836361 
L 103.050487 226.324794 
L 103.323655 225.813226 
L 103.56773 225.301658 
L 103.784004 224.79009 
L 103.974206 224.278522 
L 104.140444 223.766954 
L 104.285146 223.255386 
L 104.410999 222.743818 
L 104.520877 222.232251 
L 104.617779 221.720683 
L 104.704752 221.209115 
L 104.784832 220.697547 
L 104.860979 220.185979 
L 104.936019 219.674411 
L 105.012589 219.162843 
L 105.0931 218.651276 
L 105.179691 218.139708 
L 105.274205 217.62814 
L 105.378167 217.116572 
L 105.492771 216.605004 
L 105.618875 216.093436 
L 105.757005 215.581868 
L 105.907365 215.070301 
L 106.069853 214.558733 
L 106.244083 214.047165 
L 106.429412 213.535597 
L 106.62497 213.024029 
L 117.229576 213.024029 
L 117.229576 213.024029 
L 117.425133 213.535597 
L 117.610462 214.047165 
L 117.784693 214.558733 
L 117.94718 215.070301 
L 118.09754 215.581868 
L 118.235671 216.093436 
L 118.361775 216.605004 
L 118.476378 217.116572 
L 118.580341 217.62814 
L 118.674855 218.139708 
L 118.761446 218.651276 
L 118.841956 219.162843 
L 118.918527 219.674411 
L 118.993566 220.185979 
L 119.069713 220.697547 
L 119.149794 221.209115 
L 119.236767 221.720683 
L 119.333668 222.232251 
L 119.443547 222.743818 
L 119.5694 223.255386 
L 119.714102 223.766954 
L 119.880339 224.278522 
L 120.070541 224.79009 
L 120.286816 225.301658 
L 120.53089 225.813226 
L 120.804059 226.324794 
L 121.107135 226.836361 
L 121.440418 227.347929 
L 121.803664 227.859497 
L 122.196071 228.371065 
L 122.616277 228.882633 
L 123.062365 229.394201 
L 123.531884 229.905769 
L 124.021876 230.417336 
L 124.52892 230.928904 
L 125.04918 231.440472 
L 125.578461 231.95204 
L 126.112278 232.463608 
L 126.645919 232.975176 
L 127.174523 233.486744 
L 127.693153 233.998311 
L 128.19687 234.509879 
L 128.680808 235.021447 
L 129.140244 235.533015 
L 129.570662 236.044583 
L 129.967816 236.556151 
L 130.327786 237.067719 
L 130.647023 237.579286 
L 130.922388 238.090854 
L 131.15119 238.602422 
L 131.331204 239.11399 
L 131.460694 239.625558 
L 131.538418 240.137126 
L 131.563636 240.648694 
L 131.536102 241.160262 
L 131.456058 241.671829 
L 131.324218 242.183397 
L 131.141748 242.694965 
L 130.910246 243.206533 
L 130.631715 243.718101 
L 130.308529 244.229669 
L 129.943405 244.741237 
L 129.539367 245.252804 
L 129.099711 245.764372 
L 128.627963 246.27594 
L 128.127841 246.787508 
L 127.603216 247.299076 
L 127.058065 247.810644 
L 126.496433 248.322212 
L 125.922384 248.833779 
L 125.339963 249.345347 
L 124.753146 249.856915 
L 124.165802 250.368483 
L 123.58165 250.880051 
L 123.004216 251.391619 
L 122.436802 251.903187 
L 121.882443 252.414755 
L 121.343882 252.926322 
L 120.823545 253.43789 
L 120.323513 253.949458 
L 119.845513 254.461026 
L 119.390902 254.972594 
L 118.96067 255.484162 
L 118.555435 255.99573 
L 118.175459 256.507297 
L 117.820656 257.018865 
L 117.490621 257.530433 
L 117.184648 258.042001 
L 116.901768 258.553569 
L 116.64078 259.065137 
L 116.400292 259.576705 
L 116.178758 260.088272 
L 115.974522 260.59984 
L 115.785862 261.111408 
L 115.611025 261.622976 
L 115.448269 262.134544 
L 115.295902 262.646112 
L 115.152308 263.15768 
L 115.015983 263.669248 
L 115.015983 263.669248 
z
" clip-path="url(#p8e27ff92ef)" style="fill: none; stroke: #000000; stroke-opacity: 0.3"/>
   </g>
   <g id="FillBetweenPolyCollection_10">
    <path d="M 115.015507 261.871229 
L 108.839039 261.871229 
L 108.631793 261.280136 
L 108.427063 260.689044 
L 108.226032 260.097952 
L 108.029679 259.506859 
L 107.838732 258.915767 
L 107.653644 258.324675 
L 107.474558 257.733582 
L 107.301296 257.14249 
L 107.133345 256.551397 
L 106.969857 255.960305 
L 106.809652 255.369213 
L 106.651233 254.77812 
L 106.492802 254.187028 
L 106.332285 253.595935 
L 106.167359 253.004843 
L 105.99549 252.413751 
L 105.813964 251.822658 
L 105.619936 251.231566 
L 105.410478 250.640473 
L 105.18263 250.049381 
L 104.933471 249.458289 
L 104.660178 248.867196 
L 104.360115 248.276104 
L 104.030912 247.685011 
L 103.670559 247.093919 
L 103.277504 246.502827 
L 102.850752 245.911734 
L 102.389964 245.320642 
L 101.89555 244.729549 
L 101.368748 244.138457 
L 100.811696 243.547365 
L 100.227472 242.956272 
L 99.620115 242.36518 
L 98.994614 241.774087 
L 98.356856 241.182995 
L 97.713548 240.591903 
L 97.07209 240.00081 
L 96.440423 239.409718 
L 95.826831 238.818625 
L 95.239729 238.227533 
L 94.687422 237.636441 
L 94.177853 237.045348 
L 93.718353 236.454256 
L 93.315399 235.863163 
L 92.974394 235.272071 
L 92.699474 234.680979 
L 92.493366 234.089886 
L 92.357288 233.498794 
L 92.290909 232.907701 
L 92.292373 232.316609 
L 92.358376 231.725517 
L 92.484312 231.134424 
L 92.664467 230.543332 
L 92.89226 229.952239 
L 93.160524 229.361147 
L 93.461804 228.770055 
L 93.788669 228.178962 
L 94.134013 227.58787 
L 94.49134 226.996777 
L 94.855011 226.405685 
L 95.22044 225.814593 
L 95.584241 225.2235 
L 95.944298 224.632408 
L 96.299778 224.041315 
L 96.651065 223.450223 
L 96.999638 222.859131 
L 97.347885 222.268038 
L 97.698877 221.676946 
L 98.056103 221.085853 
L 98.423196 220.494761 
L 98.803651 219.903669 
L 99.200561 219.312576 
L 99.616387 218.721484 
L 100.052758 218.130391 
L 100.510343 217.539299 
L 100.988763 216.948207 
L 101.486579 216.357114 
L 102.001332 215.766022 
L 102.529646 215.174929 
L 103.067372 214.583837 
L 103.609775 213.992745 
L 104.151747 213.401652 
L 104.688031 212.81056 
L 105.213445 212.219467 
L 105.723094 211.628375 
L 106.21256 211.037283 
L 106.678055 210.44619 
L 107.116541 209.855098 
L 107.525806 209.264005 
L 107.90449 208.672913 
L 108.252081 208.081821 
L 108.568862 207.490728 
L 108.855827 206.899636 
L 109.114576 206.308543 
L 109.347187 205.717451 
L 109.556078 205.126359 
L 109.743875 204.535266 
L 109.913273 203.944174 
L 110.066919 203.353081 
L 113.787627 203.353081 
L 113.787627 203.353081 
L 113.941273 203.944174 
L 114.11067 204.535266 
L 114.298467 205.126359 
L 114.507359 205.717451 
L 114.739969 206.308543 
L 114.998718 206.899636 
L 115.285683 207.490728 
L 115.602464 208.081821 
L 115.950056 208.672913 
L 116.32874 209.264005 
L 116.738004 209.855098 
L 117.17649 210.44619 
L 117.641985 211.037283 
L 118.131451 211.628375 
L 118.6411 212.219467 
L 119.166515 212.81056 
L 119.702799 213.401652 
L 120.244771 213.992745 
L 120.787173 214.583837 
L 121.324899 215.174929 
L 121.853213 215.766022 
L 122.367967 216.357114 
L 122.865783 216.948207 
L 123.344203 217.539299 
L 123.801788 218.130391 
L 124.238159 218.721484 
L 124.653984 219.312576 
L 125.050895 219.903669 
L 125.43135 220.494761 
L 125.798443 221.085853 
L 126.155669 221.676946 
L 126.50666 222.268038 
L 126.854907 222.859131 
L 127.20348 223.450223 
L 127.554767 224.041315 
L 127.910247 224.632408 
L 128.270305 225.2235 
L 128.634105 225.814593 
L 128.999535 226.405685 
L 129.363205 226.996777 
L 129.720533 227.58787 
L 130.065877 228.178962 
L 130.392741 228.770055 
L 130.694021 229.361147 
L 130.962285 229.952239 
L 131.190079 230.543332 
L 131.370233 231.134424 
L 131.49617 231.725517 
L 131.562173 232.316609 
L 131.563636 232.907701 
L 131.497258 233.498794 
L 131.36118 234.089886 
L 131.155071 234.680979 
L 130.880152 235.272071 
L 130.539146 235.863163 
L 130.136193 236.454256 
L 129.676693 237.045348 
L 129.167124 237.636441 
L 128.614816 238.227533 
L 128.027715 238.818625 
L 127.414123 239.409718 
L 126.782455 240.00081 
L 126.140998 240.591903 
L 125.497689 241.182995 
L 124.859932 241.774087 
L 124.23443 242.36518 
L 123.627073 242.956272 
L 123.042849 243.547365 
L 122.485797 244.138457 
L 121.958996 244.729549 
L 121.464581 245.320642 
L 121.003793 245.911734 
L 120.577042 246.502827 
L 120.183986 247.093919 
L 119.823633 247.685011 
L 119.49443 248.276104 
L 119.194367 248.867196 
L 118.921075 249.458289 
L 118.671915 250.049381 
L 118.444068 250.640473 
L 118.234609 251.231566 
L 118.040581 251.822658 
L 117.859056 252.413751 
L 117.687186 253.004843 
L 117.522261 253.595935 
L 117.361744 254.187028 
L 117.203312 254.77812 
L 117.044893 255.369213 
L 116.884688 255.960305 
L 116.7212 256.551397 
L 116.553249 257.14249 
L 116.379987 257.733582 
L 116.200902 258.324675 
L 116.015813 258.915767 
L 115.824867 259.506859 
L 115.628513 260.097952 
L 115.427483 260.689044 
L 115.222753 261.280136 
L 115.015507 261.871229 
L 115.015507 261.871229 
z
" clip-path="url(#p8e27ff92ef)" style="fill: none; stroke: #000000; stroke-opacity: 0.3"/>
   </g>
   <g id="FillBetweenPolyCollection_11">
    <path d="M 113.739621 306.262831 
L 110.114924 306.262831 
L 110.099944 304.877949 
L 110.093093 303.493066 
L 110.092712 302.108184 
L 110.096667 300.723302 
L 110.102373 299.338419 
L 110.106841 297.953537 
L 110.106728 296.568654 
L 110.098406 295.183772 
L 110.078036 293.79889 
L 110.041657 292.414007 
L 109.985271 291.029125 
L 109.904939 289.644242 
L 109.796874 288.25936 
L 109.657532 286.874478 
L 109.483701 285.489595 
L 109.272578 284.104713 
L 109.021842 282.71983 
L 108.729715 281.334948 
L 108.39501 279.950066 
L 108.017162 278.565183 
L 107.596247 277.180301 
L 107.132987 275.795418 
L 106.62873 274.410536 
L 106.085432 273.025654 
L 105.505604 271.640771 
L 104.892269 270.255889 
L 104.248898 268.871006 
L 103.579349 267.486124 
L 102.887799 266.101242 
L 102.178687 264.716359 
L 101.456661 263.331477 
L 100.726531 261.946594 
L 99.993243 260.561712 
L 99.261857 259.17683 
L 98.537546 257.791947 
L 97.825594 256.407065 
L 97.131411 255.022182 
L 96.460544 253.6373 
L 95.818686 252.252418 
L 95.211673 250.867535 
L 94.645472 249.482653 
L 94.126137 248.09777 
L 93.659754 246.712888 
L 93.25235 245.328006 
L 92.909781 243.943123 
L 92.637598 242.558241 
L 92.440886 241.173358 
L 92.324104 239.788476 
L 92.290909 238.403594 
L 92.343994 237.018711 
L 92.484939 235.633829 
L 92.714083 234.248946 
L 93.03044 232.864064 
L 93.431642 231.479182 
L 93.913939 230.094299 
L 94.472236 228.709417 
L 95.100185 227.324534 
L 95.790314 225.939652 
L 96.534195 224.55477 
L 97.322649 223.169887 
L 98.145963 221.785005 
L 98.994124 220.400122 
L 99.857058 219.01524 
L 100.724857 217.630358 
L 101.587989 216.245475 
L 102.437494 214.860593 
L 103.265139 213.47571 
L 104.063549 212.090828 
L 104.826301 210.705946 
L 105.547983 209.321063 
L 106.22422 207.936181 
L 106.851669 206.551298 
L 107.427986 205.166416 
L 107.951779 203.781534 
L 108.422533 202.396651 
L 108.840529 201.011769 
L 109.206758 199.626886 
L 109.522825 198.242004 
L 109.790866 196.857122 
L 110.013455 195.472239 
L 110.193529 194.087357 
L 110.334311 192.702474 
L 110.43925 191.317592 
L 110.511958 189.93271 
L 110.556162 188.547827 
L 110.575659 187.162945 
L 110.574268 185.778062 
L 110.555792 184.39318 
L 110.523978 183.008298 
L 110.482475 181.623415 
L 110.434794 180.238533 
L 110.384261 178.85365 
L 110.33398 177.468768 
L 110.286782 176.083886 
L 110.245191 174.699003 
L 110.211385 173.314121 
L 110.187163 171.929238 
L 110.173921 170.544356 
L 110.172641 169.159474 
L 113.681904 169.159474 
L 113.681904 169.159474 
L 113.680625 170.544356 
L 113.667383 171.929238 
L 113.64316 173.314121 
L 113.609354 174.699003 
L 113.567764 176.083886 
L 113.520566 177.468768 
L 113.470284 178.85365 
L 113.419752 180.238533 
L 113.37207 181.623415 
L 113.330568 183.008298 
L 113.298754 184.39318 
L 113.280278 185.778062 
L 113.278886 187.162945 
L 113.298383 188.547827 
L 113.342588 189.93271 
L 113.415296 191.317592 
L 113.520234 192.702474 
L 113.661016 194.087357 
L 113.84109 195.472239 
L 114.063679 196.857122 
L 114.33172 198.242004 
L 114.647788 199.626886 
L 115.014016 201.011769 
L 115.432012 202.396651 
L 115.902766 203.781534 
L 116.426559 205.166416 
L 117.002877 206.551298 
L 117.630325 207.936181 
L 118.306562 209.321063 
L 119.028244 210.705946 
L 119.790997 212.090828 
L 120.589407 213.47571 
L 121.417051 214.860593 
L 122.266556 216.245475 
L 123.129689 217.630358 
L 123.997487 219.01524 
L 124.860421 220.400122 
L 125.708583 221.785005 
L 126.531896 223.169887 
L 127.32035 224.55477 
L 128.064232 225.939652 
L 128.75436 227.324534 
L 129.382309 228.709417 
L 129.940607 230.094299 
L 130.422903 231.479182 
L 130.824106 232.864064 
L 131.140463 234.248946 
L 131.369607 235.633829 
L 131.510551 237.018711 
L 131.563636 238.403594 
L 131.530441 239.788476 
L 131.413659 241.173358 
L 131.216948 242.558241 
L 130.944764 243.943123 
L 130.602196 245.328006 
L 130.194791 246.712888 
L 129.728408 248.09777 
L 129.209073 249.482653 
L 128.642872 250.867535 
L 128.03586 252.252418 
L 127.394002 253.6373 
L 126.723135 255.022182 
L 126.028952 256.407065 
L 125.316999 257.791947 
L 124.592688 259.17683 
L 123.861303 260.561712 
L 123.128015 261.946594 
L 122.397885 263.331477 
L 121.675858 264.716359 
L 120.966747 266.101242 
L 120.275197 267.486124 
L 119.605647 268.871006 
L 118.962277 270.255889 
L 118.348942 271.640771 
L 117.769114 273.025654 
L 117.225815 274.410536 
L 116.721559 275.795418 
L 116.258298 277.180301 
L 115.837384 278.565183 
L 115.459535 279.950066 
L 115.12483 281.334948 
L 114.832704 282.71983 
L 114.581967 284.104713 
L 114.370844 285.489595 
L 114.197013 286.874478 
L 114.057672 288.25936 
L 113.949607 289.644242 
L 113.869275 291.029125 
L 113.812889 292.414007 
L 113.776509 293.79889 
L 113.75614 295.183772 
L 113.747817 296.568654 
L 113.747705 297.953537 
L 113.752173 299.338419 
L 113.757879 300.723302 
L 113.761833 302.108184 
L 113.761452 303.493066 
L 113.754602 304.877949 
L 113.739621 306.262831 
L 113.739621 306.262831 
z
" clip-path="url(#p8e27ff92ef)" style="fill: none; stroke: #000000; stroke-opacity: 0.3"/>
   </g>
   <g id="FillBetweenPolyCollection_12">
    <path d="M 117.767762 253.013319 
L 106.086784 253.013319 
L 105.717574 252.619864 
L 105.332846 252.226409 
L 104.932559 251.832954 
L 104.516799 251.439499 
L 104.085798 251.046044 
L 103.639957 250.652589 
L 103.179855 250.259134 
L 102.706274 249.865679 
L 102.220203 249.472225 
L 101.722851 249.07877 
L 101.215652 248.685315 
L 100.700263 248.29186 
L 100.178565 247.898405 
L 99.652648 247.50495 
L 99.124803 247.111495 
L 98.597503 246.71804 
L 98.073377 246.324585 
L 97.555191 245.93113 
L 97.04581 245.537675 
L 96.548172 245.14422 
L 96.065247 244.750765 
L 95.600005 244.35731 
L 95.155376 243.963855 
L 94.734214 243.5704 
L 94.339258 243.176945 
L 93.973099 242.78349 
L 93.638147 242.390035 
L 93.336598 241.99658 
L 93.070413 241.603125 
L 92.84129 241.20967 
L 92.65065 240.816215 
L 92.499619 240.42276 
L 92.389023 240.029305 
L 92.319382 239.635851 
L 92.290909 239.242396 
L 92.303514 238.848941 
L 92.356814 238.455486 
L 92.450142 238.062031 
L 92.582564 237.668576 
L 92.752892 237.275121 
L 92.959709 236.881666 
L 93.201381 236.488211 
L 93.476086 236.094756 
L 93.78183 235.701301 
L 94.116471 235.307846 
L 94.477739 234.914391 
L 94.863258 234.520936 
L 95.270564 234.127481 
L 95.697124 233.734026 
L 96.140355 233.340571 
L 96.597639 232.947116 
L 97.066343 232.553661 
L 97.543827 232.160206 
L 98.027468 231.766751 
L 98.514669 231.373296 
L 99.002873 230.979841 
L 99.489582 230.586386 
L 99.972368 230.192932 
L 100.448891 229.799477 
L 100.916912 229.406022 
L 101.37431 229.012567 
L 101.819098 228.619112 
L 102.249437 228.225657 
L 102.663654 227.832202 
L 103.060255 227.438747 
L 103.437941 227.045292 
L 103.795618 226.651837 
L 104.132407 226.258382 
L 104.447659 225.864927 
L 104.740953 225.471472 
L 105.012106 225.078017 
L 105.26117 224.684562 
L 105.488429 224.291107 
L 105.694397 223.897652 
L 105.879803 223.504197 
L 106.045582 223.110742 
L 106.192859 222.717287 
L 106.322928 222.323832 
L 106.437231 221.930377 
L 106.537339 221.536922 
L 106.624918 221.143467 
L 106.701711 220.750012 
L 106.769504 220.356558 
L 106.830102 219.963103 
L 106.885301 219.569648 
L 106.936859 219.176193 
L 106.986474 218.782738 
L 107.035758 218.389283 
L 107.086216 217.995828 
L 107.139226 217.602373 
L 107.196025 217.208918 
L 107.257694 216.815463 
L 107.325148 216.422008 
L 107.399129 216.028553 
L 107.480202 215.635098 
L 107.568754 215.241643 
L 107.664998 214.848188 
L 107.768977 214.454733 
L 107.880572 214.061278 
L 115.973973 214.061278 
L 115.973973 214.061278 
L 116.085569 214.454733 
L 116.189548 214.848188 
L 116.285792 215.241643 
L 116.374344 215.635098 
L 116.455416 216.028553 
L 116.529397 216.422008 
L 116.596851 216.815463 
L 116.65852 217.208918 
L 116.715319 217.602373 
L 116.76833 217.995828 
L 116.818787 218.389283 
L 116.868071 218.782738 
L 116.917686 219.176193 
L 116.969245 219.569648 
L 117.024443 219.963103 
L 117.085042 220.356558 
L 117.152835 220.750012 
L 117.229627 221.143467 
L 117.317207 221.536922 
L 117.417314 221.930377 
L 117.531618 222.323832 
L 117.661686 222.717287 
L 117.808963 223.110742 
L 117.974743 223.504197 
L 118.160149 223.897652 
L 118.366116 224.291107 
L 118.593376 224.684562 
L 118.842439 225.078017 
L 119.113592 225.471472 
L 119.406886 225.864927 
L 119.722138 226.258382 
L 120.058928 226.651837 
L 120.416604 227.045292 
L 120.79429 227.438747 
L 121.190892 227.832202 
L 121.605109 228.225657 
L 122.035448 228.619112 
L 122.480235 229.012567 
L 122.937633 229.406022 
L 123.405654 229.799477 
L 123.882177 230.192932 
L 124.364964 230.586386 
L 124.851673 230.979841 
L 125.339877 231.373296 
L 125.827077 231.766751 
L 126.310718 232.160206 
L 126.788203 232.553661 
L 127.256906 232.947116 
L 127.714191 233.340571 
L 128.157421 233.734026 
L 128.583982 234.127481 
L 128.991287 234.520936 
L 129.376806 234.914391 
L 129.738075 235.307846 
L 130.072716 235.701301 
L 130.37846 236.094756 
L 130.653164 236.488211 
L 130.894837 236.881666 
L 131.101653 237.275121 
L 131.271982 237.668576 
L 131.404403 238.062031 
L 131.497732 238.455486 
L 131.551031 238.848941 
L 131.563636 239.242396 
L 131.535163 239.635851 
L 131.465522 240.029305 
L 131.354927 240.42276 
L 131.203896 240.816215 
L 131.013255 241.20967 
L 130.784132 241.603125 
L 130.517947 241.99658 
L 130.216398 242.390035 
L 129.881446 242.78349 
L 129.515287 243.176945 
L 129.120331 243.5704 
L 128.699169 243.963855 
L 128.25454 244.35731 
L 127.789299 244.750765 
L 127.306374 245.14422 
L 126.808735 245.537675 
L 126.299354 245.93113 
L 125.781168 246.324585 
L 125.257043 246.71804 
L 124.729742 247.111495 
L 124.201898 247.50495 
L 123.675981 247.898405 
L 123.154282 248.29186 
L 122.638894 248.685315 
L 122.131695 249.07877 
L 121.634343 249.472225 
L 121.148271 249.865679 
L 120.67469 250.259134 
L 120.214589 250.652589 
L 119.768747 251.046044 
L 119.337747 251.439499 
L 118.921987 251.832954 
L 118.521699 252.226409 
L 118.136971 252.619864 
L 117.767762 253.013319 
L 117.767762 253.013319 
z
" clip-path="url(#p8e27ff92ef)" style="fill: none; stroke: #000000; stroke-opacity: 0.3"/>
   </g>
   <g id="FillBetweenPolyCollection_13">
    <path d="M 116.531886 266.279138 
L 107.322659 266.279138 
L 106.787478 265.610269 
L 106.231937 264.941401 
L 105.658585 264.272532 
L 105.069549 263.603663 
L 104.466467 262.934795 
L 103.850498 262.265926 
L 103.222417 261.597057 
L 102.582771 260.928188 
L 101.932101 260.25932 
L 101.271191 259.590451 
L 100.601327 258.921582 
L 99.924529 258.252713 
L 99.24373 257.583845 
L 98.562876 256.914976 
L 97.886928 256.246107 
L 97.221767 255.577238 
L 96.574002 254.90837 
L 95.950696 254.239501 
L 95.359042 253.570632 
L 94.806017 252.901763 
L 94.298049 252.232895 
L 93.840731 251.564026 
L 93.438604 250.895157 
L 93.095029 250.226289 
L 92.812139 249.55742 
L 92.590884 248.888551 
L 92.431125 248.219682 
L 92.33177 247.550814 
L 92.290909 246.881945 
L 92.305937 246.213076 
L 92.37363 245.544207 
L 92.490177 244.875339 
L 92.651175 244.20647 
L 92.851586 243.537601 
L 93.085705 242.868732 
L 93.34715 242.199864 
L 93.628908 241.530995 
L 93.923472 240.862126 
L 94.223059 240.193258 
L 94.519925 239.524389 
L 94.806754 238.85552 
L 95.077079 238.186651 
L 95.325711 237.517783 
L 95.549116 236.848914 
L 95.745702 236.180045 
L 95.915972 235.511176 
L 96.062534 234.842308 
L 96.189929 234.173439 
L 96.304323 233.50457 
L 96.413051 232.835701 
L 96.524072 232.166833 
L 96.645371 231.497964 
L 96.784357 230.829095 
L 96.947308 230.160226 
L 97.138909 229.491358 
L 97.36191 228.822489 
L 97.616942 228.15362 
L 97.902493 227.484752 
L 98.215053 226.815883 
L 98.54942 226.147014 
L 98.899135 225.478145 
L 99.257031 224.809277 
L 99.615836 224.140408 
L 99.968801 223.471539 
L 100.310288 222.80267 
L 100.636267 222.133802 
L 100.944688 221.464933 
L 101.23567 220.796064 
L 101.511496 220.127195 
L 101.776408 219.458327 
L 102.036208 218.789458 
L 102.297712 218.120589 
L 102.568095 217.45172 
L 102.854206 216.782852 
L 103.161902 216.113983 
L 103.495488 215.445114 
L 103.8573 214.776246 
L 104.247478 214.107377 
L 104.663938 213.438508 
L 105.102548 212.769639 
L 105.55747 212.100771 
L 106.021628 211.431902 
L 106.487262 210.763033 
L 106.946492 210.094164 
L 107.391859 209.425296 
L 107.816781 208.756427 
L 108.215911 208.087558 
L 108.585357 207.418689 
L 108.922775 206.749821 
L 109.227341 206.080952 
L 109.499611 205.412083 
L 109.741301 204.743215 
L 109.955017 204.074346 
L 110.143949 203.405477 
L 110.31158 202.736608 
L 110.461411 202.06774 
L 110.596732 201.398871 
L 110.720439 200.730002 
L 110.834929 200.061133 
L 113.019617 200.061133 
L 113.019617 200.061133 
L 113.134106 200.730002 
L 113.257814 201.398871 
L 113.393134 202.06774 
L 113.542966 202.736608 
L 113.710597 203.405477 
L 113.899529 204.074346 
L 114.113244 204.743215 
L 114.354935 205.412083 
L 114.627205 206.080952 
L 114.931771 206.749821 
L 115.269189 207.418689 
L 115.638634 208.087558 
L 116.037764 208.756427 
L 116.462687 209.425296 
L 116.908053 210.094164 
L 117.367284 210.763033 
L 117.832917 211.431902 
L 118.297076 212.100771 
L 118.751997 212.769639 
L 119.190607 213.438508 
L 119.607068 214.107377 
L 119.997245 214.776246 
L 120.359057 215.445114 
L 120.692643 216.113983 
L 121.000339 216.782852 
L 121.28645 217.45172 
L 121.556834 218.120589 
L 121.818338 218.789458 
L 122.078138 219.458327 
L 122.343049 220.127195 
L 122.618875 220.796064 
L 122.909857 221.464933 
L 123.218279 222.133802 
L 123.544258 222.80267 
L 123.885744 223.471539 
L 124.238709 224.140408 
L 124.597515 224.809277 
L 124.95541 225.478145 
L 125.305125 226.147014 
L 125.639492 226.815883 
L 125.952052 227.484752 
L 126.237603 228.15362 
L 126.492635 228.822489 
L 126.715636 229.491358 
L 126.907237 230.160226 
L 127.070188 230.829095 
L 127.209174 231.497964 
L 127.330473 232.166833 
L 127.441495 232.835701 
L 127.550223 233.50457 
L 127.664617 234.173439 
L 127.792012 234.842308 
L 127.938573 235.511176 
L 128.108844 236.180045 
L 128.305429 236.848914 
L 128.528834 237.517783 
L 128.777466 238.186651 
L 129.047791 238.85552 
L 129.33462 239.524389 
L 129.631487 240.193258 
L 129.931074 240.862126 
L 130.225637 241.530995 
L 130.507396 242.199864 
L 130.76884 242.868732 
L 131.00296 243.537601 
L 131.203371 244.20647 
L 131.364368 244.875339 
L 131.480916 245.544207 
L 131.548608 246.213076 
L 131.563636 246.881945 
L 131.522776 247.550814 
L 131.423421 248.219682 
L 131.263662 248.888551 
L 131.042407 249.55742 
L 130.759517 250.226289 
L 130.415941 250.895157 
L 130.013815 251.564026 
L 129.556497 252.232895 
L 129.048529 252.901763 
L 128.495503 253.570632 
L 127.903849 254.239501 
L 127.280543 254.90837 
L 126.632778 255.577238 
L 125.967618 256.246107 
L 125.291669 256.914976 
L 124.610815 257.583845 
L 123.930016 258.252713 
L 123.253218 258.921582 
L 122.583354 259.590451 
L 121.922444 260.25932 
L 121.271774 260.928188 
L 120.632129 261.597057 
L 120.004048 262.265926 
L 119.388079 262.934795 
L 118.784996 263.603663 
L 118.19596 264.272532 
L 117.622608 264.941401 
L 117.067067 265.610269 
L 116.531886 266.279138 
L 116.531886 266.279138 
z
" clip-path="url(#p8e27ff92ef)" style="fill: none; stroke: #000000; stroke-opacity: 0.3"/>
   </g>
   <g id="matplotlib.axis_1"/>
   <g id="matplotlib.axis_2">
    <g id="ytick_1">
     <g id="line2d_1">
      <defs>
       <path id="md69bc1f3db" d="M 0 0 
L -3.5 0 
" style="stroke: #000000; stroke-width: 0.8"/>
      </defs>
      <g>
       <use xlink:href="#md69bc1f3db" x="21.6" y="291.6" style="stroke: #000000; stroke-width: 0.8"/>
      </g>
     </g>
    </g>
    <g id="ytick_2">
     <g id="line2d_2">
      <g>
       <use xlink:href="#md69bc1f3db" x="21.6" y="236.52" style="stroke: #000000; stroke-width: 0.8"/>
      </g>
     </g>
    </g>
    <g id="ytick_3">
     <g id="line2d_3">
      <g>
       <use xlink:href="#md69bc1f3db" x="21.6" y="181.44" style="stroke: #000000; stroke-width: 0.8"/>
      </g>
     </g>
    </g>
    <g id="ytick_4">
     <g id="line2d_4">
      <g>
       <use xlink:href="#md69bc1f3db" x="21.6" y="126.36" style="stroke: #000000; stroke-width: 0.8"/>
      </g>
     </g>
    </g>
    <g id="ytick_5">
     <g id="line2d_5">
      <g>
       <use xlink:href="#md69bc1f3db" x="21.6" y="71.28" style="stroke: #000000; stroke-width: 0.8"/>
      </g>
     </g>
    </g>
    <g id="ytick_6">
     <g id="line2d_6">
      <g>
       <use xlink:href="#md69bc1f3db" x="21.6" y="16.2" style="stroke: #000000; stroke-width: 0.8"/>
      </g>
     </g>
    </g>
   </g>
   <g id="line2d_7">
    <path d="M 46.472727 269.568 
L 46.472727 264.06 
" clip-path="url(#p8e27ff92ef)" style="fill: none; stroke: #000000; stroke-linecap: square"/>
   </g>
   <g id="line2d_8">
    <path d="M 46.472727 269.568 
L 111.927273 269.568 
" clip-path="url(#p8e27ff92ef)" style="fill: none; stroke: #000000; stroke-linecap: square"/>
   </g>
   <g id="line2d_9">
    <path d="M 111.927273 269.568 
L 111.927273 264.06 
" clip-path="url(#p8e27ff92ef)" style="fill: none; stroke: #000000; stroke-linecap: square"/>
   </g>
   <g id="patch_3">
    <path d="M 21.6 291.6 
L 21.6 16.2 
" style="fill: none; stroke: #000000; stroke-width: 0.8; stroke-linejoin: miter; stroke-linecap: square"/>
   </g>
   <g id="patch_4">
    <path d="M 136.8 291.6 
L 136.8 16.2 
" style="fill: none; stroke: #000000; stroke-width: 0.8; stroke-linejoin: miter; stroke-linecap: square"/>
   </g>
   <g id="patch_5">
    <path d="M 21.6 291.6 
L 136.8 291.6 
" style="fill: none; stroke: #000000; stroke-width: 0.8; stroke-linejoin: miter; stroke-linecap: square"/>
   </g>
   <g id="patch_6">
    <path d="M 21.6 16.2 
L 136.8 16.2 
" style="fill: none; stroke: #000000; stroke-width: 0.8; stroke-linejoin: miter; stroke-linecap: square"/>
   </g>
   <g id="text_1">
    <text style="font-weight: 700; font-size: 12px; font-family: 'DejaVu Sans', 'Bitstream Vera Sans', 'Computer Modern Sans Serif', 'Lucida Grande', 'Verdana', 'Geneva', 'Lucid', 'Arial', 'Helvetica', 'Avant Garde', sans-serif; text-anchor: middle" x="46.472727" y="289.104375" transform="rotate(-0 46.472727 289.104375)">#41</text>
   </g>
   <g id="text_2">
    <text style="font-weight: 700; font-size: 12px; font-family: 'DejaVu Sans', 'Bitstream Vera Sans', 'Computer Modern Sans Serif', 'Lucida Grande', 'Verdana', 'Geneva', 'Lucid', 'Arial', 'Helvetica', 'Avant Garde', sans-serif; text-anchor: middle" x="111.927273" y="289.104375" transform="rotate(-0 111.927273 289.104375)">#42</text>
   </g>
   <g id="text_3">
    <text style="font-size: 12px; font-family: 'DejaVu Sans', 'Bitstream Vera Sans', 'Computer Modern Sans Serif', 'Lucida Grande', 'Verdana', 'Geneva', 'Lucid', 'Arial', 'Helvetica', 'Avant Garde', sans-serif; text-anchor: middle" x="79.2" y="268.449375" transform="rotate(-0 79.2 268.449375)">ns</text>
   </g>
   <g id="line2d_10">
    <path d="M 21.6 241.988825 
L 136.8 241.988825 
" clip-path="url(#p8e27ff92ef)" style="fill: none; stroke-dasharray: 3.7,1.6; stroke-dashoffset: 0; stroke: #808080; stroke-opacity: 0.7"/>
   </g>
   <g id="line2d_11">
    <path d="M 21.6 237.899269 
L 136.8 237.899269 
" clip-path="url(#p8e27ff92ef)" style="fill: none; stroke-dasharray: 3.7,1.6; stroke-dashoffset: 0; stroke: #808080; stroke-opacity: 0.7"/>
   </g>
   <g id="LineCollection_1">
    <path d="M 46.472727 247.606086 
L 46.472727 236.371564 
" clip-path="url(#p8e27ff92ef)" style="fill: none; stroke: #000000; stroke-width: 2"/>
   </g>
   <g id="line2d_12">
    <defs>
     <path id="m2b3fffd550" d="M 5 0 
L -5 -0 
" style="stroke: #000000; stroke-width: 2"/>
    </defs>
    <g clip-path="url(#p8e27ff92ef)">
     <use xlink:href="#m2b3fffd550" x="46.472727" y="247.606086" style="stroke: #000000; stroke-width: 2"/>
    </g>
   </g>
   <g id="line2d_13">
    <g clip-path="url(#p8e27ff92ef)">
     <use xlink:href="#m2b3fffd550" x="46.472727" y="236.371564" style="stroke: #000000; stroke-width: 2"/>
    </g>
   </g>
   <g id="LineCollection_2">
    <path d="M 111.927273 240.53164 
L 111.927273 235.266899 
" clip-path="url(#p8e27ff92ef)" style="fill: none; stroke: #000000; stroke-width: 2"/>
   </g>
   <g id="line2d_14">
    <g clip-path="url(#p8e27ff92ef)">
     <use xlink:href="#m2b3fffd550" x="111.927273" y="240.53164" style="stroke: #000000; stroke-width: 2"/>
    </g>
   </g>
   <g id="line2d_15">
    <g clip-path="url(#p8e27ff92ef)">
     <use xlink:href="#m2b3fffd550" x="111.927273" y="235.266899" style="stroke: #000000; stroke-width: 2"/>
    </g>
   </g>
   <g id="line2d_16">
    <defs>
     <path id="maf49e7362d" d="M 0 4 
C 1.060812 4 2.078319 3.578535 2.828427 2.828427 
C 3.578535 2.078319 4 1.060812 4 0 
C 4 -1.060812 3.578535 -2.078319 2.828427 -2.828427 
C 2.078319 -3.578535 1.060812 -4 0 -4 
C -1.060812 -4 -2.078319 -3.578535 -2.828427 -2.828427 
C -3.578535 -2.078319 -4 -1.060812 -4 0 
C -4 1.060812 -3.578535 2.078319 -2.828427 2.828427 
C -2.078319 3.578535 -1.060812 4 0 4 
z
" style="stroke: #000000"/>
    </defs>
    <g clip-path="url(#p8e27ff92ef)">
     <use xlink:href="#maf49e7362d" x="46.472727" y="241.988825" style="stroke: #000000"/>
    </g>
   </g>
   <g id="line2d_17">
    <g clip-path="url(#p8e27ff92ef)">
     <use xlink:href="#maf49e7362d" x="111.927273" y="237.899269" style="stroke: #000000"/>
    </g>
   </g>
  </g>
 </g>
 <defs>
  <clipPath id="p8e27ff92ef">
   <rect x="21.6" y="16.2" width="115.2" height="275.4"/>
  </clipPath>
 </defs>
</svg>
