<?xml version="1.0" encoding="utf-8" standalone="no"?>
<!DOCTYPE svg PUBLIC "-//W3C//DTD SVG 1.1//EN"
  "http://www.w3.org/Graphics/SVG/1.1/DTD/svg11.dtd">
<svg xmlns:xlink="http://www.w3.org/1999/xlink" width="144pt" height="324pt" viewBox="0 0 144 324" xmlns="http://www.w3.org/2000/svg" version="1.1">
 <metadata>
  <rdf:RDF xmlns:dc="http://purl.org/dc/elements/1.1/" xmlns:cc="http://creativecommons.org/ns#" xmlns:rdf="http://www.w3.org/1999/02/22-rdf-syntax-ns#">
   <cc:Work>
    <dc:type rdf:resource="http://purl.org/dc/dcmitype/StillImage"/>
    <dc:date>2025-12-11T11:15:00.376541</dc:date>
    <dc:format>image/svg+xml</dc:format>
    <dc:creator>
     <cc:Agent>
      <dc:title>Matplotlib v3.10.3, https://matplotlib.org/</dc:title>
     </cc:Agent>
    </dc:creator>
   </cc:Work>
  </rdf:RDF>
 </metadata>
 <defs>
  <style type="text/css">*{stroke-linejoin: round; stroke-linecap: butt}</style>
 </defs>
 <g id="figure_1">
  <g id="patch_1">
   <path d="M 0 324 
L 144 324 
L 144 0 
L 0 0 
z
" style="fill: #ffffff"/>
  </g>
  <g id="axes_1">
   <g id="patch_2">
    <path d="M 21.6 291.6 
L 136.8 291.6 
L 136.8 16.2 
L 21.6 16.2 
z
" style="fill: #ffffff"/>
   </g>
   <g id="FillBetweenPolyCollection_1">
    <path d="M 51.542909 204.781276 
L 49.257091 204.781276 
L 49.134588 203.392748 
L 49.021496 202.004219 
L 48.919534 200.61569 
L 48.828936 199.227161 
L 48.748352 197.838633 
L 48.674936 196.450104 
L 48.604582 195.061575 
L 48.532274 193.673046 
L 48.452509 192.284518 
L 48.359744 190.895989 
L 48.248814 189.50746 
L 48.115327 188.118931 
L 47.95598 186.730403 
L 47.768821 185.341874 
L 47.553427 183.953345 
L 47.310983 182.564816 
L 47.044231 181.176288 
L 46.757255 179.787759 
L 46.455086 178.39923 
L 46.143115 177.010701 
L 45.826365 175.622173 
L 45.508696 174.233644 
L 45.192065 172.845115 
L 44.875976 171.456586 
L 44.557238 170.068058 
L 44.230106 168.679529 
L 43.886809 167.291 
L 43.518394 165.902471 
L 43.115757 164.513943 
L 42.670707 163.125414 
L 42.176912 161.736885 
L 41.630636 160.348356 
L 41.031223 158.959828 
L 40.381344 157.571299 
L 39.687061 156.18277 
L 38.957757 154.794241 
L 38.205946 153.405712 
L 37.446946 152.017184 
L 36.698352 150.628655 
L 35.979258 149.240126 
L 35.30918 147.851597 
L 34.706742 146.463069 
L 34.188229 145.07454 
L 33.766207 143.686011 
L 33.448453 142.297482 
L 33.237409 140.908954 
L 33.130306 139.520425 
L 33.12 138.131896 
L 33.196406 136.743367 
L 33.348287 135.354839 
L 33.565087 133.96631 
L 33.838471 132.577781 
L 34.163278 131.189252 
L 34.53774 129.800724 
L 34.962948 128.412195 
L 35.441713 127.023666 
L 35.977061 125.635137 
L 36.570688 124.246609 
L 37.221645 122.85808 
L 37.925478 121.469551 
L 38.67394 120.081022 
L 39.455268 118.692494 
L 40.254957 117.303965 
L 41.056878 115.915436 
L 41.844574 114.526907 
L 42.602564 113.138379 
L 43.317512 111.74985 
L 43.979128 110.361321 
L 44.580728 108.972792 
L 45.119403 107.584264 
L 45.59581 106.195735 
L 46.013644 104.807206 
L 46.378876 103.418677 
L 46.698902 102.030149 
L 46.981707 100.64162 
L 47.235155 99.253091 
L 47.466474 97.864562 
L 47.681923 96.476034 
L 47.886634 95.087505 
L 48.084558 93.698976 
L 48.278457 92.310447 
L 48.46992 90.921919 
L 48.659369 89.53339 
L 48.846102 88.144861 
L 49.028394 86.756332 
L 49.203686 85.367804 
L 49.368882 83.979275 
L 49.520733 82.590746 
L 49.656268 81.202217 
L 49.773201 79.813688 
L 49.870267 78.42516 
L 49.947417 77.036631 
L 50.005848 75.648102 
L 50.047876 74.259573 
L 50.076658 72.871045 
L 50.09583 71.482516 
L 50.1091 70.093987 
L 50.119867 68.705458 
L 50.130904 67.31693 
L 50.669096 67.31693 
L 50.669096 67.31693 
L 50.680133 68.705458 
L 50.6909 70.093987 
L 50.70417 71.482516 
L 50.723342 72.871045 
L 50.752124 74.259573 
L 50.794152 75.648102 
L 50.852583 77.036631 
L 50.929733 78.42516 
L 51.026799 79.813688 
L 51.143732 81.202217 
L 51.279267 82.590746 
L 51.431118 83.979275 
L 51.596314 85.367804 
L 51.771606 86.756332 
L 51.953898 88.144861 
L 52.140631 89.53339 
L 52.33008 90.921919 
L 52.521543 92.310447 
L 52.715442 93.698976 
L 52.913366 95.087505 
L 53.118077 96.476034 
L 53.333526 97.864562 
L 53.564845 99.253091 
L 53.818293 100.64162 
L 54.101098 102.030149 
L 54.421124 103.418677 
L 54.786356 104.807206 
L 55.20419 106.195735 
L 55.680597 107.584264 
L 56.219272 108.972792 
L 56.820872 110.361321 
L 57.482488 111.74985 
L 58.197436 113.138379 
L 58.955426 114.526907 
L 59.743122 115.915436 
L 60.545043 117.303965 
L 61.344732 118.692494 
L 62.12606 120.081022 
L 62.874522 121.469551 
L 63.578355 122.85808 
L 64.229312 124.246609 
L 64.822939 125.635137 
L 65.358287 127.023666 
L 65.837052 128.412195 
L 66.26226 129.800724 
L 66.636722 131.189252 
L 66.961529 132.577781 
L 67.234913 133.96631 
L 67.451713 135.354839 
L 67.603594 136.743367 
L 67.68 138.131896 
L 67.669694 139.520425 
L 67.562591 140.908954 
L 67.351547 142.297482 
L 67.033793 143.686011 
L 66.611771 145.07454 
L 66.093258 146.463069 
L 65.49082 147.851597 
L 64.820742 149.240126 
L 64.101648 150.628655 
L 63.353054 152.017184 
L 62.594054 153.405712 
L 61.842243 154.794241 
L 61.112939 156.18277 
L 60.418656 157.571299 
L 59.768777 158.959828 
L 59.169364 160.348356 
L 58.623088 161.736885 
L 58.129293 163.125414 
L 57.684243 164.513943 
L 57.281606 165.902471 
L 56.913191 167.291 
L 56.569894 168.679529 
L 56.242762 170.068058 
L 55.924024 171.456586 
L 55.607935 172.845115 
L 55.291304 174.233644 
L 54.973635 175.622173 
L 54.656885 177.010701 
L 54.344914 178.39923 
L 54.042745 179.787759 
L 53.755769 181.176288 
L 53.489017 182.564816 
L 53.246573 183.953345 
L 53.031179 185.341874 
L 52.84402 186.730403 
L 52.684673 188.118931 
L 52.551186 189.50746 
L 52.440256 190.895989 
L 52.347491 192.284518 
L 52.267726 193.673046 
L 52.195418 195.061575 
L 52.125064 196.450104 
L 52.051648 197.838633 
L 51.971064 199.227161 
L 51.880466 200.61569 
L 51.778504 202.004219 
L 51.665412 203.392748 
L 51.542909 204.781276 
L 51.542909 204.781276 
z
" clip-path="url(#pe7fea39f7c)" style="fill: none; stroke: #000000; stroke-opacity: 0.3"/>
   </g>
   <g id="FillBetweenPolyCollection_2">
    <path d="M 50.725699 217.381334 
L 50.074301 217.381334 
L 50.07755 216.218694 
L 50.088617 215.056053 
L 50.106143 213.893413 
L 50.128132 212.730772 
L 50.152144 211.568131 
L 50.175523 210.405491 
L 50.195641 209.24285 
L 50.2101 208.080209 
L 50.216905 206.917569 
L 50.214558 205.754928 
L 50.202105 204.592287 
L 50.179109 203.429647 
L 50.145575 202.267006 
L 50.101829 201.104366 
L 50.048366 199.941725 
L 49.98567 198.779084 
L 49.914049 197.616444 
L 49.833479 196.453803 
L 49.743483 195.291162 
L 49.643063 194.128522 
L 49.530688 192.965881 
L 49.404323 191.80324 
L 49.261514 190.6406 
L 49.099491 189.477959 
L 48.915301 188.315319 
L 48.705971 187.152678 
L 48.468682 185.990037 
L 48.200982 184.827397 
L 47.901021 183.664756 
L 47.567796 182.502115 
L 47.201366 181.339475 
L 46.803006 180.176834 
L 46.37524 179.014193 
L 45.92172 177.851553 
L 45.446949 176.688912 
L 44.955856 175.526272 
L 44.453302 174.363631 
L 43.943582 173.20099 
L 43.430031 172.03835 
L 42.914828 170.875709 
L 42.399012 169.713068 
L 41.88275 168.550428 
L 41.36576 167.387787 
L 40.847819 166.225146 
L 40.329202 165.062506 
L 39.810966 163.899865 
L 39.294995 162.737225 
L 38.783798 161.574584 
L 38.280141 160.411943 
L 37.786613 159.249303 
L 37.305282 158.086662 
L 36.837547 156.924021 
L 36.38427 155.761381 
L 35.946142 154.59874 
L 35.524226 153.4361 
L 35.120508 152.273459 
L 34.738306 151.110818 
L 34.382407 149.948178 
L 34.058859 148.785537 
L 33.774427 147.622896 
L 33.535792 146.460256 
L 33.348618 145.297615 
L 33.216663 144.134974 
L 33.141072 142.972334 
L 33.12 141.809693 
L 33.148638 140.647053 
L 33.219684 139.484412 
L 33.324215 138.321771 
L 33.452852 137.159131 
L 33.597063 135.99649 
L 33.750401 134.833849 
L 33.909469 133.671209 
L 34.074444 132.508568 
L 34.249076 131.345927 
L 34.440153 130.183287 
L 34.656548 129.020646 
L 34.908033 127.858006 
L 35.204063 126.695365 
L 35.552736 125.532724 
L 35.960059 124.370084 
L 36.429567 123.207443 
L 36.962245 122.044802 
L 37.556667 120.882162 
L 38.20922 119.719521 
L 38.914324 118.55688 
L 39.664607 117.39424 
L 40.451029 116.231599 
L 41.263031 115.068959 
L 42.088764 113.906318 
L 42.915459 112.743677 
L 43.729959 111.581037 
L 44.519386 110.418396 
L 45.271858 109.255755 
L 45.977176 108.093115 
L 46.627366 106.930474 
L 47.217018 105.767834 
L 47.743371 104.605193 
L 48.20617 103.442552 
L 48.607312 102.279912 
L 52.192688 102.279912 
L 52.192688 102.279912 
L 52.59383 103.442552 
L 53.056629 104.605193 
L 53.582982 105.767834 
L 54.172634 106.930474 
L 54.822824 108.093115 
L 55.528142 109.255755 
L 56.280614 110.418396 
L 57.070041 111.581037 
L 57.884541 112.743677 
L 58.711236 113.906318 
L 59.536969 115.068959 
L 60.348971 116.231599 
L 61.135393 117.39424 
L 61.885676 118.55688 
L 62.59078 119.719521 
L 63.243333 120.882162 
L 63.837755 122.044802 
L 64.370433 123.207443 
L 64.839941 124.370084 
L 65.247264 125.532724 
L 65.595937 126.695365 
L 65.891967 127.858006 
L 66.143452 129.020646 
L 66.359847 130.183287 
L 66.550924 131.345927 
L 66.725556 132.508568 
L 66.890531 133.671209 
L 67.049599 134.833849 
L 67.202937 135.99649 
L 67.347148 137.159131 
L 67.475785 138.321771 
L 67.580316 139.484412 
L 67.651362 140.647053 
L 67.68 141.809693 
L 67.658928 142.972334 
L 67.583337 144.134974 
L 67.451382 145.297615 
L 67.264208 146.460256 
L 67.025573 147.622896 
L 66.741141 148.785537 
L 66.417593 149.948178 
L 66.061694 151.110818 
L 65.679492 152.273459 
L 65.275774 153.4361 
L 64.853858 154.59874 
L 64.41573 155.761381 
L 63.962453 156.924021 
L 63.494718 158.086662 
L 63.013387 159.249303 
L 62.519859 160.411943 
L 62.016202 161.574584 
L 61.505005 162.737225 
L 60.989034 163.899865 
L 60.470798 165.062506 
L 59.952181 166.225146 
L 59.43424 167.387787 
L 58.91725 168.550428 
L 58.400988 169.713068 
L 57.885172 170.875709 
L 57.369969 172.03835 
L 56.856418 173.20099 
L 56.346698 174.363631 
L 55.844144 175.526272 
L 55.353051 176.688912 
L 54.87828 177.851553 
L 54.42476 179.014193 
L 53.996994 180.176834 
L 53.598634 181.339475 
L 53.232204 182.502115 
L 52.898979 183.664756 
L 52.599018 184.827397 
L 52.331318 185.990037 
L 52.094029 187.152678 
L 51.884699 188.315319 
L 51.700509 189.477959 
L 51.538486 190.6406 
L 51.395677 191.80324 
L 51.269312 192.965881 
L 51.156937 194.128522 
L 51.056517 195.291162 
L 50.966521 196.453803 
L 50.885951 197.616444 
L 50.81433 198.779084 
L 50.751634 199.941725 
L 50.698171 201.104366 
L 50.654425 202.267006 
L 50.620891 203.429647 
L 50.597895 204.592287 
L 50.585442 205.754928 
L 50.583095 206.917569 
L 50.5899 208.080209 
L 50.604359 209.24285 
L 50.624477 210.405491 
L 50.647856 211.568131 
L 50.671868 212.730772 
L 50.693857 213.893413 
L 50.711383 215.056053 
L 50.72245 216.218694 
L 50.725699 217.381334 
L 50.725699 217.381334 
z
" clip-path="url(#pe7fea39f7c)" style="fill: none; stroke: #000000; stroke-opacity: 0.3"/>
   </g>
   <g id="FillBetweenPolyCollection_3">
    <path d="M 50.846073 202.34918 
L 49.953927 202.34918 
L 49.890351 200.959275 
L 49.820745 199.569371 
L 49.742196 198.179467 
L 49.65108 196.789562 
L 49.543424 195.399658 
L 49.415346 194.009753 
L 49.263473 192.619849 
L 49.085281 191.229945 
L 48.879317 189.84004 
L 48.645314 188.450136 
L 48.384228 187.060231 
L 48.098272 185.670327 
L 47.790939 184.280423 
L 47.466975 182.890518 
L 47.132194 181.500614 
L 46.792987 180.110709 
L 46.455421 178.720805 
L 46.123948 177.330901 
L 45.799938 175.940996 
L 45.480363 174.551092 
L 45.157112 173.161187 
L 44.817297 171.771283 
L 44.444768 170.381379 
L 44.022702 168.991474 
L 43.536855 167.60157 
L 42.978793 166.211666 
L 42.348379 164.821761 
L 41.654844 163.431857 
L 40.916122 162.041952 
L 40.156433 160.652048 
L 39.402541 159.262144 
L 38.67938 157.872239 
L 38.005956 156.482335 
L 37.392383 155.09243 
L 36.838754 153.702526 
L 36.336184 152.312622 
L 35.869935 150.922717 
L 35.424064 149.532813 
L 34.986654 148.142908 
L 34.554479 146.753004 
L 34.135951 145.3631 
L 33.751528 143.973195 
L 33.43125 142.583291 
L 33.209785 141.193387 
L 33.12 139.803482 
L 33.186524 138.413578 
L 33.420835 137.023673 
L 33.81907 135.633769 
L 34.363026 134.243865 
L 35.023972 132.85396 
L 35.768114 131.464056 
L 36.562225 130.074151 
L 37.37802 128.684247 
L 38.19442 127.294343 
L 38.997615 125.904438 
L 39.779512 124.514534 
L 40.535529 123.124629 
L 41.26268 121.734725 
L 41.958521 120.344821 
L 42.621043 118.954916 
L 43.249152 117.565012 
L 43.84323 116.175108 
L 44.405292 114.785203 
L 44.938565 113.395299 
L 45.446555 112.005394 
L 45.931935 110.61549 
L 46.395629 109.225586 
L 46.836395 107.835681 
L 47.251043 106.445777 
L 47.635217 105.055872 
L 47.984512 103.665968 
L 48.295622 102.276064 
L 48.567216 100.886159 
L 48.800326 99.496255 
L 48.998185 98.10635 
L 49.165592 96.716446 
L 49.308004 95.326542 
L 49.430623 93.936637 
L 49.537699 92.546733 
L 49.632205 91.156828 
L 49.715908 89.766924 
L 49.789731 88.37702 
L 49.854236 86.987115 
L 49.91004 85.597211 
L 49.958037 84.207307 
L 49.999369 82.817402 
L 50.035213 81.427498 
L 50.066486 80.037593 
L 50.093621 78.647689 
L 50.116513 77.257785 
L 50.134671 75.86788 
L 50.147536 74.477976 
L 50.154871 73.088071 
L 50.157082 71.698167 
L 50.155383 70.308263 
L 50.15172 68.918358 
L 50.148489 67.528454 
L 50.148109 66.138549 
L 50.152561 64.748645 
L 50.647439 64.748645 
L 50.647439 64.748645 
L 50.651891 66.138549 
L 50.651511 67.528454 
L 50.64828 68.918358 
L 50.644617 70.308263 
L 50.642918 71.698167 
L 50.645129 73.088071 
L 50.652464 74.477976 
L 50.665329 75.86788 
L 50.683487 77.257785 
L 50.706379 78.647689 
L 50.733514 80.037593 
L 50.764787 81.427498 
L 50.800631 82.817402 
L 50.841963 84.207307 
L 50.88996 85.597211 
L 50.945764 86.987115 
L 51.010269 88.37702 
L 51.084092 89.766924 
L 51.167795 91.156828 
L 51.262301 92.546733 
L 51.369377 93.936637 
L 51.491996 95.326542 
L 51.634408 96.716446 
L 51.801815 98.10635 
L 51.999674 99.496255 
L 52.232784 100.886159 
L 52.504378 102.276064 
L 52.815488 103.665968 
L 53.164783 105.055872 
L 53.548957 106.445777 
L 53.963605 107.835681 
L 54.404371 109.225586 
L 54.868065 110.61549 
L 55.353445 112.005394 
L 55.861435 113.395299 
L 56.394708 114.785203 
L 56.95677 116.175108 
L 57.550848 117.565012 
L 58.178957 118.954916 
L 58.841479 120.344821 
L 59.53732 121.734725 
L 60.264471 123.124629 
L 61.020488 124.514534 
L 61.802385 125.904438 
L 62.60558 127.294343 
L 63.42198 128.684247 
L 64.237775 130.074151 
L 65.031886 131.464056 
L 65.776028 132.85396 
L 66.436974 134.243865 
L 66.98093 135.633769 
L 67.379165 137.023673 
L 67.613476 138.413578 
L 67.68 139.803482 
L 67.590215 141.193387 
L 67.36875 142.583291 
L 67.048472 143.973195 
L 66.664049 145.3631 
L 66.245521 146.753004 
L 65.813346 148.142908 
L 65.375936 149.532813 
L 64.930065 150.922717 
L 64.463816 152.312622 
L 63.961246 153.702526 
L 63.407617 155.09243 
L 62.794044 156.482335 
L 62.12062 157.872239 
L 61.397459 159.262144 
L 60.643567 160.652048 
L 59.883878 162.041952 
L 59.145156 163.431857 
L 58.451621 164.821761 
L 57.821207 166.211666 
L 57.263145 167.60157 
L 56.777298 168.991474 
L 56.355232 170.381379 
L 55.982703 171.771283 
L 55.642888 173.161187 
L 55.319637 174.551092 
L 55.000062 175.940996 
L 54.676052 177.330901 
L 54.344579 178.720805 
L 54.007013 180.110709 
L 53.667806 181.500614 
L 53.333025 182.890518 
L 53.009061 184.280423 
L 52.701728 185.670327 
L 52.415772 187.060231 
L 52.154686 188.450136 
L 51.920683 189.84004 
L 51.714719 191.229945 
L 51.536527 192.619849 
L 51.384654 194.009753 
L 51.256576 195.399658 
L 51.14892 196.789562 
L 51.057804 198.179467 
L 50.979255 199.569371 
L 50.909649 200.959275 
L 50.846073 202.34918 
L 50.846073 202.34918 
z
" clip-path="url(#pe7fea39f7c)" style="fill: none; stroke: #000000; stroke-opacity: 0.3"/>
   </g>
   <g id="FillBetweenPolyCollection_4">
    <path d="M 50.67777 266.289904 
L 50.12223 266.289904 
L 50.131474 264.139326 
L 50.157398 261.988748 
L 50.195164 259.83817 
L 50.23837 257.687592 
L 50.28081 255.537013 
L 50.317858 253.386435 
L 50.347095 251.235857 
L 50.368156 249.085279 
L 50.382087 246.934701 
L 50.390582 244.784123 
L 50.395371 242.633545 
L 50.397866 240.482967 
L 50.399058 238.332389 
L 50.399546 236.18181 
L 50.399619 234.031232 
L 50.399326 231.880654 
L 50.398482 229.730076 
L 50.396624 227.579498 
L 50.39292 225.42892 
L 50.386092 223.278342 
L 50.374408 221.127764 
L 50.355851 218.977186 
L 50.328468 216.826607 
L 50.290861 214.676029 
L 50.242569 212.525451 
L 50.184066 210.374873 
L 50.116139 208.224295 
L 50.038756 206.073717 
L 49.949918 203.923139 
L 49.845251 201.772561 
L 49.718934 199.621983 
L 49.565873 197.471404 
L 49.384222 195.320826 
L 49.176771 193.170248 
L 48.949937 191.01967 
L 48.710098 188.869092 
L 48.458363 186.718514 
L 48.185934 184.567936 
L 47.872319 182.417358 
L 47.487721 180.26678 
L 46.999253 178.116201 
L 46.379105 175.965623 
L 45.612035 173.815045 
L 44.699893 171.664467 
L 43.662066 169.513889 
L 42.53206 167.363311 
L 41.351456 165.212733 
L 40.162987 163.062155 
L 39.004563 160.911577 
L 37.905724 158.760998 
L 36.88725 156.61042 
L 35.963541 154.459842 
L 35.146348 152.309264 
L 34.447989 150.158686 
L 33.882649 148.008108 
L 33.4653 145.85753 
L 33.208761 143.706952 
L 33.12 141.556374 
L 33.197062 139.405795 
L 33.428112 137.255217 
L 33.793759 135.104639 
L 34.272785 132.954061 
L 34.84956 130.803483 
L 35.519895 128.652905 
L 36.291869 126.502327 
L 37.180203 124.351749 
L 38.195913 122.201171 
L 39.335661 120.050593 
L 40.575578 117.900014 
L 41.872303 115.749436 
L 43.170611 113.598858 
L 44.41441 111.44828 
L 45.556938 109.297702 
L 46.567123 107.147124 
L 47.430986 104.996546 
L 48.148985 102.845968 
L 48.731225 100.69539 
L 49.192575 98.544811 
L 49.549027 96.394233 
L 49.815725 94.243655 
L 50.006331 92.093077 
L 50.133125 89.942499 
L 50.207331 87.791921 
L 50.239479 85.641343 
L 50.239755 83.490765 
L 50.2183 81.340187 
L 50.185246 79.189608 
L 50.150224 77.03903 
L 50.121287 74.888452 
L 50.103539 72.737874 
L 50.098114 70.587296 
L 50.102161 68.436718 
L 50.110147 66.28614 
L 50.116166 64.135562 
L 50.116397 61.984984 
L 50.110715 59.834405 
L 50.102754 57.683827 
L 50.09843 55.533249 
L 50.103556 53.382671 
L 50.696444 53.382671 
L 50.696444 53.382671 
L 50.70157 55.533249 
L 50.697246 57.683827 
L 50.689285 59.834405 
L 50.683603 61.984984 
L 50.683834 64.135562 
L 50.689853 66.28614 
L 50.697839 68.436718 
L 50.701886 70.587296 
L 50.696461 72.737874 
L 50.678713 74.888452 
L 50.649776 77.03903 
L 50.614754 79.189608 
L 50.5817 81.340187 
L 50.560245 83.490765 
L 50.560521 85.641343 
L 50.592669 87.791921 
L 50.666875 89.942499 
L 50.793669 92.093077 
L 50.984275 94.243655 
L 51.250973 96.394233 
L 51.607425 98.544811 
L 52.068775 100.69539 
L 52.651015 102.845968 
L 53.369014 104.996546 
L 54.232877 107.147124 
L 55.243062 109.297702 
L 56.38559 111.44828 
L 57.629389 113.598858 
L 58.927697 115.749436 
L 60.224422 117.900014 
L 61.464339 120.050593 
L 62.604087 122.201171 
L 63.619797 124.351749 
L 64.508131 126.502327 
L 65.280105 128.652905 
L 65.95044 130.803483 
L 66.527215 132.954061 
L 67.006241 135.104639 
L 67.371888 137.255217 
L 67.602938 139.405795 
L 67.68 141.556374 
L 67.591239 143.706952 
L 67.3347 145.85753 
L 66.917351 148.008108 
L 66.352011 150.158686 
L 65.653652 152.309264 
L 64.836459 154.459842 
L 63.91275 156.61042 
L 62.894276 158.760998 
L 61.795437 160.911577 
L 60.637013 163.062155 
L 59.448544 165.212733 
L 58.26794 167.363311 
L 57.137934 169.513889 
L 56.100107 171.664467 
L 55.187965 173.815045 
L 54.420895 175.965623 
L 53.800747 178.116201 
L 53.312279 180.26678 
L 52.927681 182.417358 
L 52.614066 184.567936 
L 52.341637 186.718514 
L 52.089902 188.869092 
L 51.850063 191.01967 
L 51.623229 193.170248 
L 51.415778 195.320826 
L 51.234127 197.471404 
L 51.081066 199.621983 
L 50.954749 201.772561 
L 50.850082 203.923139 
L 50.761244 206.073717 
L 50.683861 208.224295 
L 50.615934 210.374873 
L 50.557431 212.525451 
L 50.509139 214.676029 
L 50.471532 216.826607 
L 50.444149 218.977186 
L 50.425592 221.127764 
L 50.413908 223.278342 
L 50.40708 225.42892 
L 50.403376 227.579498 
L 50.401518 229.730076 
L 50.400674 231.880654 
L 50.400381 234.031232 
L 50.400454 236.18181 
L 50.400942 238.332389 
L 50.402134 240.482967 
L 50.404629 242.633545 
L 50.409418 244.784123 
L 50.417913 246.934701 
L 50.431844 249.085279 
L 50.452905 251.235857 
L 50.482142 253.386435 
L 50.51919 255.537013 
L 50.56163 257.687592 
L 50.604836 259.83817 
L 50.642602 261.988748 
L 50.668526 264.139326 
L 50.67777 266.289904 
L 50.67777 266.289904 
z
" clip-path="url(#pe7fea39f7c)" style="fill: none; stroke: #000000; stroke-opacity: 0.3"/>
   </g>
   <g id="FillBetweenPolyCollection_5">
    <path d="M 50.99245 207.067237 
L 49.80755 207.067237 
L 49.728924 205.69922 
L 49.647972 204.331203 
L 49.564954 202.963187 
L 49.479928 201.59517 
L 49.392716 200.227153 
L 49.302825 198.859136 
L 49.209356 197.491119 
L 49.110899 196.123102 
L 49.005455 194.755085 
L 48.89042 193.387068 
L 48.762645 192.019051 
L 48.618615 190.651035 
L 48.454706 189.283018 
L 48.267544 187.915001 
L 48.054397 186.546984 
L 47.813579 185.178967 
L 47.544795 183.81095 
L 47.249362 182.442933 
L 46.930253 181.074916 
L 46.591904 179.706899 
L 46.239773 178.338883 
L 45.879663 176.970866 
L 45.516883 175.602849 
L 45.155333 174.234832 
L 44.796655 172.866815 
L 44.439578 171.498798 
L 44.079579 170.130781 
L 43.708959 168.762764 
L 43.317371 167.394747 
L 42.892798 166.026731 
L 42.42293 164.658714 
L 41.896787 163.290697 
L 41.306435 161.92268 
L 40.648577 160.554663 
L 39.925789 159.186646 
L 39.147199 157.818629 
L 38.328483 156.450612 
L 37.491108 155.082595 
L 36.660871 153.714579 
L 35.865894 152.346562 
L 35.134287 150.978545 
L 34.491753 149.610528 
L 33.959433 148.242511 
L 33.552207 146.874494 
L 33.277678 145.506477 
L 33.135915 144.13846 
L 33.12 142.770444 
L 33.217292 141.402427 
L 33.41126 140.03441 
L 33.683646 138.666393 
L 34.016678 137.298376 
L 34.395015 135.930359 
L 34.807159 134.562342 
L 35.246117 133.194325 
L 35.709252 131.826308 
L 36.197396 130.458292 
L 36.713459 129.090275 
L 37.260862 127.722258 
L 37.842121 126.354241 
L 38.457873 124.986224 
L 39.10647 123.618207 
L 39.78411 122.25019 
L 40.485335 120.882173 
L 41.203657 119.514156 
L 41.93208 118.14614 
L 42.663386 116.778123 
L 43.390158 115.410106 
L 44.10464 114.042089 
L 44.798598 112.674072 
L 45.463335 111.306055 
L 46.089981 109.938038 
L 46.670041 108.570021 
L 47.196144 107.202004 
L 47.662822 105.833988 
L 48.06716 104.465971 
L 48.409151 103.097954 
L 48.691698 101.729937 
L 48.920235 100.36192 
L 49.10205 98.993903 
L 49.245438 97.625886 
L 49.358822 96.257869 
L 49.450002 94.889852 
L 49.525601 93.521836 
L 49.590771 92.153819 
L 49.649136 90.785802 
L 49.702918 89.417785 
L 49.753186 88.049768 
L 49.800154 86.681751 
L 49.843486 85.313734 
L 49.882586 83.945717 
L 49.91685 82.5777 
L 49.945901 81.209684 
L 49.969756 79.841667 
L 49.988947 78.47365 
L 50.00453 77.105633 
L 50.018009 75.737616 
L 50.031142 74.369599 
L 50.045686 73.001582 
L 50.063118 71.633565 
L 50.736882 71.633565 
L 50.736882 71.633565 
L 50.754314 73.001582 
L 50.768858 74.369599 
L 50.781991 75.737616 
L 50.79547 77.105633 
L 50.811053 78.47365 
L 50.830244 79.841667 
L 50.854099 81.209684 
L 50.88315 82.5777 
L 50.917414 83.945717 
L 50.956514 85.313734 
L 50.999846 86.681751 
L 51.046814 88.049768 
L 51.097082 89.417785 
L 51.150864 90.785802 
L 51.209229 92.153819 
L 51.274399 93.521836 
L 51.349998 94.889852 
L 51.441178 96.257869 
L 51.554562 97.625886 
L 51.69795 98.993903 
L 51.879765 100.36192 
L 52.108302 101.729937 
L 52.390849 103.097954 
L 52.73284 104.465971 
L 53.137178 105.833988 
L 53.603856 107.202004 
L 54.129959 108.570021 
L 54.710019 109.938038 
L 55.336665 111.306055 
L 56.001402 112.674072 
L 56.69536 114.042089 
L 57.409842 115.410106 
L 58.136614 116.778123 
L 58.86792 118.14614 
L 59.596343 119.514156 
L 60.314665 120.882173 
L 61.01589 122.25019 
L 61.69353 123.618207 
L 62.342127 124.986224 
L 62.957879 126.354241 
L 63.539138 127.722258 
L 64.086541 129.090275 
L 64.602604 130.458292 
L 65.090748 131.826308 
L 65.553883 133.194325 
L 65.992841 134.562342 
L 66.404985 135.930359 
L 66.783322 137.298376 
L 67.116354 138.666393 
L 67.38874 140.03441 
L 67.582708 141.402427 
L 67.68 142.770444 
L 67.664085 144.13846 
L 67.522322 145.506477 
L 67.247793 146.874494 
L 66.840567 148.242511 
L 66.308247 149.610528 
L 65.665713 150.978545 
L 64.934106 152.346562 
L 64.139129 153.714579 
L 63.308892 155.082595 
L 62.471517 156.450612 
L 61.652801 157.818629 
L 60.874211 159.186646 
L 60.151423 160.554663 
L 59.493565 161.92268 
L 58.903213 163.290697 
L 58.37707 164.658714 
L 57.907202 166.026731 
L 57.482629 167.394747 
L 57.091041 168.762764 
L 56.720421 170.130781 
L 56.360422 171.498798 
L 56.003345 172.866815 
L 55.644667 174.234832 
L 55.283117 175.602849 
L 54.920337 176.970866 
L 54.560227 178.338883 
L 54.208096 179.706899 
L 53.869747 181.074916 
L 53.550638 182.442933 
L 53.255205 183.81095 
L 52.986421 185.178967 
L 52.745603 186.546984 
L 52.532456 187.915001 
L 52.345294 189.283018 
L 52.181385 190.651035 
L 52.037355 192.019051 
L 51.90958 193.387068 
L 51.794545 194.755085 
L 51.689101 196.123102 
L 51.590644 197.491119 
L 51.497175 198.859136 
L 51.407284 200.227153 
L 51.320072 201.59517 
L 51.235046 202.963187 
L 51.152028 204.331203 
L 51.071076 205.69922 
L 50.99245 207.067237 
L 50.99245 207.067237 
z
" clip-path="url(#pe7fea39f7c)" style="fill: none; stroke: #000000; stroke-opacity: 0.3"/>
   </g>
   <g id="FillBetweenPolyCollection_6">
    <path d="M 52.032571 203.666714 
L 48.767429 203.666714 
L 48.580169 202.420024 
L 48.386952 201.173333 
L 48.188463 199.926642 
L 47.98513 198.679951 
L 47.777152 197.43326 
L 47.56457 196.186569 
L 47.347361 194.939878 
L 47.125558 193.693188 
L 46.899365 192.446497 
L 46.669246 191.199806 
L 46.435979 189.953115 
L 46.200638 188.706424 
L 45.964518 187.459733 
L 45.728984 186.213042 
L 45.495268 184.966352 
L 45.264221 183.719661 
L 45.03606 182.47297 
L 44.810132 181.226279 
L 44.584732 179.979588 
L 44.357017 178.732897 
L 44.123017 177.486206 
L 43.877779 176.239516 
L 43.615628 174.992825 
L 43.330545 173.746134 
L 43.016617 172.499443 
L 42.668541 171.252752 
L 42.28212 170.006061 
L 41.854716 168.75937 
L 41.385605 167.51268 
L 40.876199 166.265989 
L 40.330122 165.019298 
L 39.753108 163.772607 
L 39.152738 162.525916 
L 38.538047 161.279225 
L 37.91902 160.032534 
L 37.306036 158.785843 
L 36.709312 157.539153 
L 36.1384 156.292462 
L 35.601789 155.045771 
L 35.106648 153.79908 
L 34.658733 152.552389 
L 34.262465 151.305698 
L 33.921144 150.059007 
L 33.637291 148.812317 
L 33.413019 147.565626 
L 33.250414 146.318935 
L 33.151823 145.072244 
L 33.12 143.825553 
L 33.158085 142.578862 
L 33.269373 141.332171 
L 33.45691 140.085481 
L 33.722949 138.83879 
L 34.068353 137.592099 
L 34.492019 136.345408 
L 34.990431 135.098717 
L 35.557421 133.852026 
L 36.184194 132.605335 
L 36.859643 131.358645 
L 37.570937 130.111954 
L 38.304314 128.865263 
L 39.045998 127.618572 
L 39.783127 126.371881 
L 40.504569 125.12519 
L 41.201552 123.878499 
L 41.868005 122.631809 
L 42.500607 121.385118 
L 43.098545 120.138427 
L 43.663023 118.891736 
L 44.196614 117.645045 
L 44.702534 116.398354 
L 45.183959 115.151663 
L 45.643447 113.904973 
L 46.082548 112.658282 
L 46.501619 111.411591 
L 46.899861 110.1649 
L 47.275536 108.918209 
L 47.626318 107.671518 
L 47.949711 106.424827 
L 48.243468 105.178137 
L 48.505953 103.931446 
L 48.73639 102.684755 
L 48.934994 101.438064 
L 49.102964 100.191373 
L 49.242367 98.944682 
L 49.355941 97.697991 
L 49.446849 96.4513 
L 49.518442 95.20461 
L 49.574041 93.957919 
L 49.616779 92.711228 
L 49.649503 91.464537 
L 49.674737 90.217846 
L 49.69469 88.971155 
L 49.711295 87.724464 
L 49.726249 86.477774 
L 49.741053 85.231083 
L 49.757021 83.984392 
L 49.775271 82.737701 
L 49.796695 81.49101 
L 49.821916 80.244319 
L 50.978084 80.244319 
L 50.978084 80.244319 
L 51.003305 81.49101 
L 51.024729 82.737701 
L 51.042979 83.984392 
L 51.058947 85.231083 
L 51.073751 86.477774 
L 51.088705 87.724464 
L 51.10531 88.971155 
L 51.125263 90.217846 
L 51.150497 91.464537 
L 51.183221 92.711228 
L 51.225959 93.957919 
L 51.281558 95.20461 
L 51.353151 96.4513 
L 51.444059 97.697991 
L 51.557633 98.944682 
L 51.697036 100.191373 
L 51.865006 101.438064 
L 52.06361 102.684755 
L 52.294047 103.931446 
L 52.556532 105.178137 
L 52.850289 106.424827 
L 53.173682 107.671518 
L 53.524464 108.918209 
L 53.900139 110.1649 
L 54.298381 111.411591 
L 54.717452 112.658282 
L 55.156553 113.904973 
L 55.616041 115.151663 
L 56.097466 116.398354 
L 56.603386 117.645045 
L 57.136977 118.891736 
L 57.701455 120.138427 
L 58.299393 121.385118 
L 58.931995 122.631809 
L 59.598448 123.878499 
L 60.295431 125.12519 
L 61.016873 126.371881 
L 61.754002 127.618572 
L 62.495686 128.865263 
L 63.229063 130.111954 
L 63.940357 131.358645 
L 64.615806 132.605335 
L 65.242579 133.852026 
L 65.809569 135.098717 
L 66.307981 136.345408 
L 66.731647 137.592099 
L 67.077051 138.83879 
L 67.34309 140.085481 
L 67.530627 141.332171 
L 67.641915 142.578862 
L 67.68 143.825553 
L 67.648177 145.072244 
L 67.549586 146.318935 
L 67.386981 147.565626 
L 67.162709 148.812317 
L 66.878856 150.059007 
L 66.537535 151.305698 
L 66.141267 152.552389 
L 65.693352 153.79908 
L 65.198211 155.045771 
L 64.6616 156.292462 
L 64.090688 157.539153 
L 63.493964 158.785843 
L 62.88098 160.032534 
L 62.261953 161.279225 
L 61.647262 162.525916 
L 61.046892 163.772607 
L 60.469878 165.019298 
L 59.923801 166.265989 
L 59.414395 167.51268 
L 58.945284 168.75937 
L 58.51788 170.006061 
L 58.131459 171.252752 
L 57.783383 172.499443 
L 57.469455 173.746134 
L 57.184372 174.992825 
L 56.922221 176.239516 
L 56.676983 177.486206 
L 56.442983 178.732897 
L 56.215268 179.979588 
L 55.989868 181.226279 
L 55.76394 182.47297 
L 55.535779 183.719661 
L 55.304732 184.966352 
L 55.071016 186.213042 
L 54.835482 187.459733 
L 54.599362 188.706424 
L 54.364021 189.953115 
L 54.130754 191.199806 
L 53.900635 192.446497 
L 53.674442 193.693188 
L 53.452639 194.939878 
L 53.23543 196.186569 
L 53.022848 197.43326 
L 52.81487 198.679951 
L 52.611537 199.926642 
L 52.413048 201.173333 
L 52.219831 202.420024 
L 52.032571 203.666714 
L 52.032571 203.666714 
z
" clip-path="url(#pe7fea39f7c)" style="fill: none; stroke: #000000; stroke-opacity: 0.3"/>
   </g>
   <g id="FillBetweenPolyCollection_7">
    <path d="M 50.971082 210.502208 
L 49.828918 210.502208 
L 49.819861 209.327037 
L 49.819688 208.151866 
L 49.826311 206.976694 
L 49.836714 205.801523 
L 49.847201 204.626352 
L 49.853727 203.451181 
L 49.85226 202.27601 
L 49.839143 201.100839 
L 49.811404 199.925667 
L 49.766979 198.750496 
L 49.704825 197.575325 
L 49.624911 196.400154 
L 49.528094 195.224983 
L 49.415884 194.049812 
L 49.290148 192.87464 
L 49.152764 191.699469 
L 49.00529 190.524298 
L 48.848681 189.349127 
L 48.683093 188.173956 
L 48.507827 186.998785 
L 48.321413 185.823613 
L 48.121862 184.648442 
L 47.907048 183.473271 
L 47.675183 182.2981 
L 47.425325 181.122929 
L 47.157831 179.947758 
L 46.874665 178.772586 
L 46.579503 177.597415 
L 46.277565 176.422244 
L 45.975179 175.247073 
L 45.679095 174.071902 
L 45.395635 172.896731 
L 45.129774 171.721559 
L 44.884274 170.546388 
L 44.658996 169.371217 
L 44.450478 168.196046 
L 44.251849 167.020875 
L 44.053109 165.845704 
L 43.841748 164.670533 
L 43.603664 163.495361 
L 43.324293 162.32019 
L 42.989867 161.145019 
L 42.588681 159.969848 
L 42.112275 158.794677 
L 41.556423 157.619506 
L 40.92185 156.444334 
L 40.214616 155.269163 
L 39.446127 154.093992 
L 38.632767 152.918821 
L 37.795182 151.74365 
L 36.957264 150.568479 
L 36.144908 149.393307 
L 35.384611 148.218136 
L 34.702011 147.042965 
L 34.120437 145.867794 
L 33.659559 144.692623 
L 33.334204 143.517452 
L 33.15344 142.34228 
L 33.12 141.167109 
L 33.230114 139.991938 
L 33.473805 138.816767 
L 33.835659 137.641596 
L 34.296026 136.466425 
L 34.832548 135.291253 
L 35.421883 134.116082 
L 36.041418 132.940911 
L 36.670802 131.76574 
L 37.293141 130.590569 
L 37.895728 129.415398 
L 38.470296 128.240226 
L 39.012806 127.065055 
L 39.522874 125.889884 
L 40.002957 124.714713 
L 40.457443 123.539542 
L 40.891756 122.364371 
L 41.311575 121.189199 
L 41.722215 120.014028 
L 42.128195 118.838857 
L 42.532975 117.663686 
L 42.938845 116.488515 
L 43.346939 115.313344 
L 43.757335 114.138173 
L 44.169215 112.963001 
L 44.581067 111.78783 
L 44.99089 110.612659 
L 45.396388 109.437488 
L 45.795145 108.262317 
L 46.184753 107.087146 
L 46.562907 105.911974 
L 46.927459 104.736803 
L 47.276454 103.561632 
L 47.608151 102.386461 
L 47.921046 101.21129 
L 48.213899 100.036119 
L 48.485768 98.860947 
L 48.736041 97.685776 
L 48.964465 96.510605 
L 49.171145 95.335434 
L 49.356535 94.160263 
L 51.443465 94.160263 
L 51.443465 94.160263 
L 51.628855 95.335434 
L 51.835535 96.510605 
L 52.063959 97.685776 
L 52.314232 98.860947 
L 52.586101 100.036119 
L 52.878954 101.21129 
L 53.191849 102.386461 
L 53.523546 103.561632 
L 53.872541 104.736803 
L 54.237093 105.911974 
L 54.615247 107.087146 
L 55.004855 108.262317 
L 55.403612 109.437488 
L 55.80911 110.612659 
L 56.218933 111.78783 
L 56.630785 112.963001 
L 57.042665 114.138173 
L 57.453061 115.313344 
L 57.861155 116.488515 
L 58.267025 117.663686 
L 58.671805 118.838857 
L 59.077785 120.014028 
L 59.488425 121.189199 
L 59.908244 122.364371 
L 60.342557 123.539542 
L 60.797043 124.714713 
L 61.277126 125.889884 
L 61.787194 127.065055 
L 62.329704 128.240226 
L 62.904272 129.415398 
L 63.506859 130.590569 
L 64.129198 131.76574 
L 64.758582 132.940911 
L 65.378117 134.116082 
L 65.967452 135.291253 
L 66.503974 136.466425 
L 66.964341 137.641596 
L 67.326195 138.816767 
L 67.569886 139.991938 
L 67.68 141.167109 
L 67.64656 142.34228 
L 67.465796 143.517452 
L 67.140441 144.692623 
L 66.679563 145.867794 
L 66.097989 147.042965 
L 65.415389 148.218136 
L 64.655092 149.393307 
L 63.842736 150.568479 
L 63.004818 151.74365 
L 62.167233 152.918821 
L 61.353873 154.093992 
L 60.585384 155.269163 
L 59.87815 156.444334 
L 59.243577 157.619506 
L 58.687725 158.794677 
L 58.211319 159.969848 
L 57.810133 161.145019 
L 57.475707 162.32019 
L 57.196336 163.495361 
L 56.958252 164.670533 
L 56.746891 165.845704 
L 56.548151 167.020875 
L 56.349522 168.196046 
L 56.141004 169.371217 
L 55.915726 170.546388 
L 55.670226 171.721559 
L 55.404365 172.896731 
L 55.120905 174.071902 
L 54.824821 175.247073 
L 54.522435 176.422244 
L 54.220497 177.597415 
L 53.925335 178.772586 
L 53.642169 179.947758 
L 53.374675 181.122929 
L 53.124817 182.2981 
L 52.892952 183.473271 
L 52.678138 184.648442 
L 52.478587 185.823613 
L 52.292173 186.998785 
L 52.116907 188.173956 
L 51.951319 189.349127 
L 51.79471 190.524298 
L 51.647236 191.699469 
L 51.509852 192.87464 
L 51.384116 194.049812 
L 51.271906 195.224983 
L 51.175089 196.400154 
L 51.095175 197.575325 
L 51.033021 198.750496 
L 50.988596 199.925667 
L 50.960857 201.100839 
L 50.94774 202.27601 
L 50.946273 203.451181 
L 50.952799 204.626352 
L 50.963286 205.801523 
L 50.973689 206.976694 
L 50.980312 208.151866 
L 50.980139 209.327037 
L 50.971082 210.502208 
L 50.971082 210.502208 
z
" clip-path="url(#pe7fea39f7c)" style="fill: none; stroke: #000000; stroke-opacity: 0.3"/>
   </g>
   <g id="FillBetweenPolyCollection_8">
    <path d="M 111.004587 143.960294 
L 104.995413 143.960294 
L 104.841532 143.181527 
L 104.697046 142.40276 
L 104.562257 141.623993 
L 104.436962 140.845226 
L 104.320446 140.066458 
L 104.211485 139.287691 
L 104.108376 138.508924 
L 104.008979 137.730157 
L 103.910776 136.95139 
L 103.81094 136.172623 
L 103.706404 135.393856 
L 103.593942 134.615089 
L 103.470243 133.836322 
L 103.33199 133.057555 
L 103.175926 132.278787 
L 102.998923 131.50002 
L 102.798046 130.721253 
L 102.570608 129.942486 
L 102.314232 129.163719 
L 102.026901 128.384952 
L 101.707022 127.606185 
L 101.353479 126.827418 
L 100.965691 126.048651 
L 100.543673 125.269884 
L 100.088092 124.491116 
L 99.600318 123.712349 
L 99.08247 122.933582 
L 98.537445 122.154815 
L 97.968935 121.376048 
L 97.381426 120.597281 
L 96.780163 119.818514 
L 96.171097 119.039747 
L 95.560803 118.26098 
L 94.956366 117.482213 
L 94.365244 116.703445 
L 93.795104 115.924678 
L 93.253649 115.145911 
L 92.748421 114.367144 
L 92.286609 113.588377 
L 91.874861 112.80961 
L 91.519104 112.030843 
L 91.224388 111.252076 
L 90.994757 110.473309 
L 90.833156 109.694542 
L 90.741368 108.915775 
L 90.72 108.137007 
L 90.768495 107.35824 
L 90.885192 106.579473 
L 91.067411 105.800706 
L 91.311563 105.021939 
L 91.613281 104.243172 
L 91.967568 103.464405 
L 92.368934 102.685638 
L 92.811551 101.906871 
L 93.289384 101.128104 
L 93.796316 100.349336 
L 94.326261 99.570569 
L 94.873254 98.791802 
L 95.431526 98.013035 
L 95.995571 97.234268 
L 96.560187 96.455501 
L 97.120517 95.676734 
L 97.672073 94.897967 
L 98.210763 94.1192 
L 98.732905 93.340433 
L 99.23525 92.561665 
L 99.714989 91.782898 
L 100.169776 91.004131 
L 100.597733 90.225364 
L 100.997467 89.446597 
L 101.368067 88.66783 
L 101.709113 87.889063 
L 102.020658 87.110296 
L 102.30322 86.331529 
L 102.557753 85.552762 
L 102.78561 84.773994 
L 102.988504 83.995227 
L 103.168453 83.21646 
L 103.327725 82.437693 
L 103.468773 81.658926 
L 103.594177 80.880159 
L 103.706577 80.101392 
L 103.808613 79.322625 
L 103.902873 78.543858 
L 103.991836 77.765091 
L 104.077837 76.986323 
L 104.163022 76.207556 
L 104.249323 75.428789 
L 104.338433 74.650022 
L 104.431786 73.871255 
L 104.530549 73.092488 
L 104.635609 72.313721 
L 104.747568 71.534954 
L 104.866748 70.756187 
L 104.993188 69.97742 
L 105.126657 69.198652 
L 105.266666 68.419885 
L 105.412484 67.641118 
L 105.563168 66.862351 
L 110.436832 66.862351 
L 110.436832 66.862351 
L 110.587516 67.641118 
L 110.733334 68.419885 
L 110.873343 69.198652 
L 111.006812 69.97742 
L 111.133252 70.756187 
L 111.252432 71.534954 
L 111.364391 72.313721 
L 111.469451 73.092488 
L 111.568214 73.871255 
L 111.661567 74.650022 
L 111.750677 75.428789 
L 111.836978 76.207556 
L 111.922163 76.986323 
L 112.008164 77.765091 
L 112.097127 78.543858 
L 112.191387 79.322625 
L 112.293423 80.101392 
L 112.405823 80.880159 
L 112.531227 81.658926 
L 112.672275 82.437693 
L 112.831547 83.21646 
L 113.011496 83.995227 
L 113.21439 84.773994 
L 113.442247 85.552762 
L 113.69678 86.331529 
L 113.979342 87.110296 
L 114.290887 87.889063 
L 114.631933 88.66783 
L 115.002533 89.446597 
L 115.402267 90.225364 
L 115.830224 91.004131 
L 116.285011 91.782898 
L 116.76475 92.561665 
L 117.267095 93.340433 
L 117.789237 94.1192 
L 118.327927 94.897967 
L 118.879483 95.676734 
L 119.439813 96.455501 
L 120.004429 97.234268 
L 120.568474 98.013035 
L 121.126746 98.791802 
L 121.673739 99.570569 
L 122.203684 100.349336 
L 122.710616 101.128104 
L 123.188449 101.906871 
L 123.631066 102.685638 
L 124.032432 103.464405 
L 124.386719 104.243172 
L 124.688437 105.021939 
L 124.932589 105.800706 
L 125.114808 106.579473 
L 125.231505 107.35824 
L 125.28 108.137007 
L 125.258632 108.915775 
L 125.166844 109.694542 
L 125.005243 110.473309 
L 124.775612 111.252076 
L 124.480896 112.030843 
L 124.125139 112.80961 
L 123.713391 113.588377 
L 123.251579 114.367144 
L 122.746351 115.145911 
L 122.204896 115.924678 
L 121.634756 116.703445 
L 121.043634 117.482213 
L 120.439197 118.26098 
L 119.828903 119.039747 
L 119.219837 119.818514 
L 118.618574 120.597281 
L 118.031065 121.376048 
L 117.462555 122.154815 
L 116.91753 122.933582 
L 116.399682 123.712349 
L 115.911908 124.491116 
L 115.456327 125.269884 
L 115.034309 126.048651 
L 114.646521 126.827418 
L 114.292978 127.606185 
L 113.973099 128.384952 
L 113.685768 129.163719 
L 113.429392 129.942486 
L 113.201954 130.721253 
L 113.001077 131.50002 
L 112.824074 132.278787 
L 112.66801 133.057555 
L 112.529757 133.836322 
L 112.406058 134.615089 
L 112.293596 135.393856 
L 112.18906 136.172623 
L 112.089224 136.95139 
L 111.991021 137.730157 
L 111.891624 138.508924 
L 111.788515 139.287691 
L 111.679554 140.066458 
L 111.563038 140.845226 
L 111.437743 141.623993 
L 111.302954 142.40276 
L 111.158468 143.181527 
L 111.004587 143.960294 
L 111.004587 143.960294 
z
" clip-path="url(#pe7fea39f7c)" style="fill: none; stroke: #000000; stroke-opacity: 0.3"/>
   </g>
   <g id="FillBetweenPolyCollection_9">
    <path d="M 110.626102 142.796106 
L 105.373898 142.796106 
L 105.220638 141.96147 
L 105.065591 141.126833 
L 104.907571 140.292196 
L 104.74499 139.457559 
L 104.575867 138.622922 
L 104.397863 137.788286 
L 104.208337 136.953649 
L 104.004416 136.119012 
L 103.783093 135.284375 
L 103.541328 134.449738 
L 103.276175 133.615101 
L 102.984905 132.780465 
L 102.665144 131.945828 
L 102.314997 131.111191 
L 101.933173 130.276554 
L 101.519093 129.441917 
L 101.072972 128.607281 
L 100.595883 127.772644 
L 100.089788 126.938007 
L 99.55753 126.10337 
L 99.002803 125.268733 
L 98.430071 124.434097 
L 97.844463 123.59946 
L 97.251638 122.764823 
L 96.657622 121.930186 
L 96.068628 121.095549 
L 95.490871 120.260912 
L 94.930376 119.426276 
L 94.392797 118.591639 
L 93.883258 117.757002 
L 93.406205 116.922365 
L 92.965306 116.087728 
L 92.563371 115.253092 
L 92.202318 114.418455 
L 91.883176 113.583818 
L 91.60612 112.749181 
L 91.370544 111.914544 
L 91.175158 111.079908 
L 91.018106 110.245271 
L 90.897096 109.410634 
L 90.809537 108.575997 
L 90.752679 107.74136 
L 90.723735 106.906723 
L 90.72 106.072087 
L 90.738943 105.23745 
L 90.778288 104.402813 
L 90.836062 103.568176 
L 90.910628 102.733539 
L 91.000697 101.898903 
L 91.105315 101.064266 
L 91.223834 100.229629 
L 91.355881 99.394992 
L 91.501302 98.560355 
L 91.660111 97.725719 
L 91.832435 96.891082 
L 92.018459 96.056445 
L 92.218374 95.221808 
L 92.43234 94.387171 
L 92.660442 93.552534 
L 92.902673 92.717898 
L 93.158913 91.883261 
L 93.428924 91.048624 
L 93.712346 90.213987 
L 94.008712 89.37935 
L 94.317457 88.544714 
L 94.637931 87.710077 
L 94.969421 86.87544 
L 95.311161 86.040803 
L 95.662352 85.206166 
L 96.022163 84.37153 
L 96.389743 83.536893 
L 96.764216 82.702256 
L 97.144681 81.867619 
L 97.530201 81.032982 
L 97.919792 80.198345 
L 98.312418 79.363709 
L 98.706976 78.529072 
L 99.102292 77.694435 
L 99.497123 76.859798 
L 99.890158 76.025161 
L 100.280032 75.190525 
L 100.665343 74.355888 
L 101.044681 73.521251 
L 101.416655 72.686614 
L 101.77993 71.851977 
L 102.133259 71.017341 
L 102.475526 70.182704 
L 102.805771 69.348067 
L 103.123222 68.51343 
L 103.427312 67.678793 
L 103.71769 66.844156 
L 103.994223 66.00952 
L 104.256988 65.174883 
L 104.506253 64.340246 
L 104.742449 63.505609 
L 104.966139 62.670972 
L 105.177982 61.836336 
L 105.37869 61.001699 
L 105.568993 60.167062 
L 110.431007 60.167062 
L 110.431007 60.167062 
L 110.62131 61.001699 
L 110.822018 61.836336 
L 111.033861 62.670972 
L 111.257551 63.505609 
L 111.493747 64.340246 
L 111.743012 65.174883 
L 112.005777 66.00952 
L 112.28231 66.844156 
L 112.572688 67.678793 
L 112.876778 68.51343 
L 113.194229 69.348067 
L 113.524474 70.182704 
L 113.866741 71.017341 
L 114.22007 71.851977 
L 114.583345 72.686614 
L 114.955319 73.521251 
L 115.334657 74.355888 
L 115.719968 75.190525 
L 116.109842 76.025161 
L 116.502877 76.859798 
L 116.897708 77.694435 
L 117.293024 78.529072 
L 117.687582 79.363709 
L 118.080208 80.198345 
L 118.469799 81.032982 
L 118.855319 81.867619 
L 119.235784 82.702256 
L 119.610257 83.536893 
L 119.977837 84.37153 
L 120.337648 85.206166 
L 120.688839 86.040803 
L 121.030579 86.87544 
L 121.362069 87.710077 
L 121.682543 88.544714 
L 121.991288 89.37935 
L 122.287654 90.213987 
L 122.571076 91.048624 
L 122.841087 91.883261 
L 123.097327 92.717898 
L 123.339558 93.552534 
L 123.56766 94.387171 
L 123.781626 95.221808 
L 123.981541 96.056445 
L 124.167565 96.891082 
L 124.339889 97.725719 
L 124.498698 98.560355 
L 124.644119 99.394992 
L 124.776166 100.229629 
L 124.894685 101.064266 
L 124.999303 101.898903 
L 125.089372 102.733539 
L 125.163938 103.568176 
L 125.221712 104.402813 
L 125.261057 105.23745 
L 125.28 106.072087 
L 125.276265 106.906723 
L 125.247321 107.74136 
L 125.190463 108.575997 
L 125.102904 109.410634 
L 124.981894 110.245271 
L 124.824842 111.079908 
L 124.629456 111.914544 
L 124.39388 112.749181 
L 124.116824 113.583818 
L 123.797682 114.418455 
L 123.436629 115.253092 
L 123.034694 116.087728 
L 122.593795 116.922365 
L 122.116742 117.757002 
L 121.607203 118.591639 
L 121.069624 119.426276 
L 120.509129 120.260912 
L 119.931372 121.095549 
L 119.342378 121.930186 
L 118.748362 122.764823 
L 118.155537 123.59946 
L 117.569929 124.434097 
L 116.997197 125.268733 
L 116.44247 126.10337 
L 115.910212 126.938007 
L 115.404117 127.772644 
L 114.927028 128.607281 
L 114.480907 129.441917 
L 114.066827 130.276554 
L 113.685003 131.111191 
L 113.334856 131.945828 
L 113.015095 132.780465 
L 112.723825 133.615101 
L 112.458672 134.449738 
L 112.216907 135.284375 
L 111.995584 136.119012 
L 111.791663 136.953649 
L 111.602137 137.788286 
L 111.424133 138.622922 
L 111.25501 139.457559 
L 111.092429 140.292196 
L 110.934409 141.126833 
L 110.779362 141.96147 
L 110.626102 142.796106 
L 110.626102 142.796106 
z
" clip-path="url(#pe7fea39f7c)" style="fill: none; stroke: #000000; stroke-opacity: 0.3"/>
   </g>
   <g id="FillBetweenPolyCollection_10">
    <path d="M 110.84407 147.767796 
L 105.15593 147.767796 
L 104.888207 146.893126 
L 104.606853 146.018455 
L 104.312312 145.143785 
L 104.005143 144.269114 
L 103.686009 143.394444 
L 103.355658 142.519773 
L 103.01491 141.645103 
L 102.66463 140.770432 
L 102.305704 139.895762 
L 101.939019 139.021091 
L 101.565439 138.146421 
L 101.18579 137.27175 
L 100.800852 136.39708 
L 100.411357 135.522409 
L 100.017993 134.647739 
L 99.621417 133.773068 
L 99.222278 132.898398 
L 98.821235 132.023727 
L 98.418983 131.149057 
L 98.016273 130.274386 
L 97.613932 129.399716 
L 97.212871 128.525045 
L 96.814089 127.650375 
L 96.418659 126.775704 
L 96.027721 125.901034 
L 95.642446 125.026363 
L 95.264018 124.151693 
L 94.893596 123.277022 
L 94.532285 122.402352 
L 94.18112 121.527681 
L 93.841045 120.653011 
L 93.512919 119.77834 
L 93.197523 118.90367 
L 92.895592 118.028999 
L 92.607851 117.154329 
L 92.335064 116.279658 
L 92.078093 115.404988 
L 91.83795 114.530317 
L 91.615853 113.655647 
L 91.413268 112.780976 
L 91.231936 111.906306 
L 91.073883 111.031635 
L 90.941408 110.156965 
L 90.837043 109.282294 
L 90.763495 108.407624 
L 90.723555 107.532953 
L 90.72 106.658283 
L 90.755467 105.783612 
L 90.83232 104.908942 
L 90.952519 104.034271 
L 91.117476 103.159601 
L 91.327937 102.28493 
L 91.583869 101.41026 
L 91.88437 100.535589 
L 92.227616 99.660919 
L 92.610825 98.786248 
L 93.030277 97.911578 
L 93.481356 97.036907 
L 93.958638 96.162237 
L 94.456021 95.287566 
L 94.966881 94.412896 
L 95.484264 93.538225 
L 96.001098 92.663555 
L 96.510421 91.788884 
L 97.005614 90.914214 
L 97.480627 90.039543 
L 97.930194 89.164873 
L 98.350012 88.290202 
L 98.736892 87.415532 
L 99.088862 86.540861 
L 99.405221 85.666191 
L 99.686537 84.79152 
L 99.934588 83.91685 
L 100.152257 83.042179 
L 100.343369 82.167509 
L 100.5125 81.292838 
L 100.664746 80.418168 
L 100.805484 79.543497 
L 100.940118 78.668827 
L 101.073843 77.794156 
L 101.211428 76.919486 
L 101.357022 76.044815 
L 101.514017 75.170145 
L 101.684938 74.295474 
L 101.871396 73.420804 
L 102.074087 72.546133 
L 102.292831 71.671463 
L 102.526656 70.796792 
L 102.773913 69.922122 
L 103.032412 69.047451 
L 103.299573 68.172781 
L 103.572578 67.29811 
L 103.848517 66.42344 
L 104.124523 65.548769 
L 104.39788 64.674099 
L 104.666121 63.799428 
L 104.927081 62.924758 
L 105.178946 62.050087 
L 105.42026 61.175417 
L 110.57974 61.175417 
L 110.57974 61.175417 
L 110.821054 62.050087 
L 111.072919 62.924758 
L 111.333879 63.799428 
L 111.60212 64.674099 
L 111.875477 65.548769 
L 112.151483 66.42344 
L 112.427422 67.29811 
L 112.700427 68.172781 
L 112.967588 69.047451 
L 113.226087 69.922122 
L 113.473344 70.796792 
L 113.707169 71.671463 
L 113.925913 72.546133 
L 114.128604 73.420804 
L 114.315062 74.295474 
L 114.485983 75.170145 
L 114.642978 76.044815 
L 114.788572 76.919486 
L 114.926157 77.794156 
L 115.059882 78.668827 
L 115.194516 79.543497 
L 115.335254 80.418168 
L 115.4875 81.292838 
L 115.656631 82.167509 
L 115.847743 83.042179 
L 116.065412 83.91685 
L 116.313463 84.79152 
L 116.594779 85.666191 
L 116.911138 86.540861 
L 117.263108 87.415532 
L 117.649988 88.290202 
L 118.069806 89.164873 
L 118.519373 90.039543 
L 118.994386 90.914214 
L 119.489579 91.788884 
L 119.998902 92.663555 
L 120.515736 93.538225 
L 121.033119 94.412896 
L 121.543979 95.287566 
L 122.041362 96.162237 
L 122.518644 97.036907 
L 122.969723 97.911578 
L 123.389175 98.786248 
L 123.772384 99.660919 
L 124.11563 100.535589 
L 124.416131 101.41026 
L 124.672063 102.28493 
L 124.882524 103.159601 
L 125.047481 104.034271 
L 125.16768 104.908942 
L 125.244533 105.783612 
L 125.28 106.658283 
L 125.276445 107.532953 
L 125.236505 108.407624 
L 125.162957 109.282294 
L 125.058592 110.156965 
L 124.926117 111.031635 
L 124.768064 111.906306 
L 124.586732 112.780976 
L 124.384147 113.655647 
L 124.16205 114.530317 
L 123.921907 115.404988 
L 123.664936 116.279658 
L 123.392149 117.154329 
L 123.104408 118.028999 
L 122.802477 118.90367 
L 122.487081 119.77834 
L 122.158955 120.653011 
L 121.81888 121.527681 
L 121.467715 122.402352 
L 121.106404 123.277022 
L 120.735982 124.151693 
L 120.357554 125.026363 
L 119.972279 125.901034 
L 119.581341 126.775704 
L 119.185911 127.650375 
L 118.787129 128.525045 
L 118.386068 129.399716 
L 117.983727 130.274386 
L 117.581017 131.149057 
L 117.178765 132.023727 
L 116.777722 132.898398 
L 116.378583 133.773068 
L 115.982007 134.647739 
L 115.588643 135.522409 
L 115.199148 136.39708 
L 114.81421 137.27175 
L 114.434561 138.146421 
L 114.060981 139.021091 
L 113.694296 139.895762 
L 113.33537 140.770432 
L 112.98509 141.645103 
L 112.644342 142.519773 
L 112.313991 143.394444 
L 111.994857 144.269114 
L 111.687688 145.143785 
L 111.393147 146.018455 
L 111.111793 146.893126 
L 110.84407 147.767796 
L 110.84407 147.767796 
z
" clip-path="url(#pe7fea39f7c)" style="fill: none; stroke: #000000; stroke-opacity: 0.3"/>
   </g>
   <g id="FillBetweenPolyCollection_11">
    <path d="M 108.832867 164.785641 
L 107.167133 164.785641 
L 107.150308 163.613432 
L 107.137587 162.441223 
L 107.126657 161.269014 
L 107.114604 160.096805 
L 107.098034 158.924596 
L 107.073225 157.752387 
L 107.036311 156.580178 
L 106.983474 155.407969 
L 106.911145 154.23576 
L 106.816173 153.063551 
L 106.695977 151.891342 
L 106.548643 150.719133 
L 106.372976 149.546924 
L 106.168482 148.374715 
L 105.935305 147.202506 
L 105.674092 146.030297 
L 105.385829 144.858088 
L 105.071642 143.685879 
L 104.732593 142.51367 
L 104.369496 141.341461 
L 103.982768 140.169252 
L 103.572355 138.997043 
L 103.13773 137.824834 
L 102.67799 136.652625 
L 102.192042 135.480416 
L 101.678872 134.308207 
L 101.137863 133.135998 
L 100.569149 131.963789 
L 99.973932 130.791579 
L 99.354751 129.61937 
L 98.715637 128.447161 
L 98.062134 127.274952 
L 97.401164 126.102743 
L 96.740732 124.930534 
L 96.089504 123.758325 
L 95.456279 122.586116 
L 94.849423 121.413907 
L 94.276333 120.241698 
L 93.742978 119.069489 
L 93.253593 117.89728 
L 92.810557 116.725071 
L 92.414479 115.552862 
L 92.064474 114.380653 
L 91.758609 113.208444 
L 91.494456 112.036235 
L 91.269679 110.864026 
L 91.082589 109.691817 
L 90.932589 108.519608 
L 90.820451 107.347399 
L 90.748404 106.17519 
L 90.72 105.002981 
L 90.739793 103.830772 
L 90.812859 102.658563 
L 90.94422 101.486354 
L 91.138224 100.314145 
L 91.397969 99.141936 
L 91.72481 97.969727 
L 92.11801 96.797518 
L 92.574571 95.625309 
L 93.089243 94.4531 
L 93.654716 93.280891 
L 94.261972 92.108682 
L 94.900755 90.936473 
L 95.560117 89.764264 
L 96.228998 88.592055 
L 96.89678 87.419846 
L 97.553782 86.247637 
L 98.191659 85.075428 
L 98.803688 83.903219 
L 99.384917 82.73101 
L 99.932197 81.558801 
L 100.444087 80.386592 
L 100.920673 79.214383 
L 101.363312 78.042174 
L 101.77433 76.869965 
L 102.156707 75.697756 
L 102.51376 74.525547 
L 102.848868 73.353338 
L 103.165217 72.181129 
L 103.465614 71.00892 
L 103.752348 69.836711 
L 104.027103 68.664502 
L 104.290943 67.492293 
L 104.544329 66.320084 
L 104.787199 65.147875 
L 105.019074 63.975666 
L 105.239197 62.803457 
L 105.44669 61.631248 
L 105.640714 60.459039 
L 105.820611 59.28683 
L 105.986036 58.114621 
L 106.137041 56.942412 
L 106.274121 55.770203 
L 106.398211 54.597994 
L 106.510638 53.425785 
L 106.613026 52.253576 
L 106.707174 51.081367 
L 106.794924 49.909158 
L 106.878013 48.736949 
L 109.121987 48.736949 
L 109.121987 48.736949 
L 109.205076 49.909158 
L 109.292826 51.081367 
L 109.386974 52.253576 
L 109.489362 53.425785 
L 109.601789 54.597994 
L 109.725879 55.770203 
L 109.862959 56.942412 
L 110.013964 58.114621 
L 110.179389 59.28683 
L 110.359286 60.459039 
L 110.55331 61.631248 
L 110.760803 62.803457 
L 110.980926 63.975666 
L 111.212801 65.147875 
L 111.455671 66.320084 
L 111.709057 67.492293 
L 111.972897 68.664502 
L 112.247652 69.836711 
L 112.534386 71.00892 
L 112.834783 72.181129 
L 113.151132 73.353338 
L 113.48624 74.525547 
L 113.843293 75.697756 
L 114.22567 76.869965 
L 114.636688 78.042174 
L 115.079327 79.214383 
L 115.555913 80.386592 
L 116.067803 81.558801 
L 116.615083 82.73101 
L 117.196312 83.903219 
L 117.808341 85.075428 
L 118.446218 86.247637 
L 119.10322 87.419846 
L 119.771002 88.592055 
L 120.439883 89.764264 
L 121.099245 90.936473 
L 121.738028 92.108682 
L 122.345284 93.280891 
L 122.910757 94.4531 
L 123.425429 95.625309 
L 123.88199 96.797518 
L 124.27519 97.969727 
L 124.602031 99.141936 
L 124.861776 100.314145 
L 125.05578 101.486354 
L 125.187141 102.658563 
L 125.260207 103.830772 
L 125.28 105.002981 
L 125.251596 106.17519 
L 125.179549 107.347399 
L 125.067411 108.519608 
L 124.917411 109.691817 
L 124.730321 110.864026 
L 124.505544 112.036235 
L 124.241391 113.208444 
L 123.935526 114.380653 
L 123.585521 115.552862 
L 123.189443 116.725071 
L 122.746407 117.89728 
L 122.257022 119.069489 
L 121.723667 120.241698 
L 121.150577 121.413907 
L 120.543721 122.586116 
L 119.910496 123.758325 
L 119.259268 124.930534 
L 118.598836 126.102743 
L 117.937866 127.274952 
L 117.284363 128.447161 
L 116.645249 129.61937 
L 116.026068 130.791579 
L 115.430851 131.963789 
L 114.862137 133.135998 
L 114.321128 134.308207 
L 113.807958 135.480416 
L 113.32201 136.652625 
L 112.86227 137.824834 
L 112.427645 138.997043 
L 112.017232 140.169252 
L 111.630504 141.341461 
L 111.267407 142.51367 
L 110.928358 143.685879 
L 110.614171 144.858088 
L 110.325908 146.030297 
L 110.064695 147.202506 
L 109.831518 148.374715 
L 109.627024 149.546924 
L 109.451357 150.719133 
L 109.304023 151.891342 
L 109.183827 153.063551 
L 109.088855 154.23576 
L 109.016526 155.407969 
L 108.963689 156.580178 
L 108.926775 157.752387 
L 108.901966 158.924596 
L 108.885396 160.096805 
L 108.873343 161.269014 
L 108.862413 162.441223 
L 108.849692 163.613432 
L 108.832867 164.785641 
L 108.832867 164.785641 
z
" clip-path="url(#pe7fea39f7c)" style="fill: none; stroke: #000000; stroke-opacity: 0.3"/>
   </g>
   <g id="FillBetweenPolyCollection_12">
    <path d="M 109.6366 163.102063 
L 106.3634 163.102063 
L 106.211955 162.069555 
L 106.058475 161.037046 
L 105.903684 160.004538 
L 105.748124 158.97203 
L 105.592141 157.939521 
L 105.435903 156.907013 
L 105.279429 155.874505 
L 105.122651 154.841996 
L 104.965488 153.809488 
L 104.807929 152.77698 
L 104.650121 151.744471 
L 104.492448 150.711963 
L 104.335586 149.679455 
L 104.180532 148.646946 
L 104.028593 147.614438 
L 103.881324 146.581929 
L 103.740431 145.549421 
L 103.607618 144.516913 
L 103.484406 143.484404 
L 103.371925 142.451896 
L 103.270701 141.419388 
L 103.180453 140.386879 
L 103.099913 139.354371 
L 103.026711 138.321863 
L 102.957303 137.289354 
L 102.886995 136.256846 
L 102.810036 135.224338 
L 102.719795 134.191829 
L 102.609022 133.159321 
L 102.470157 132.126813 
L 102.295701 131.094304 
L 102.0786 130.061796 
L 101.812634 129.029288 
L 101.492785 127.996779 
L 101.115561 126.964271 
L 100.679256 125.931763 
L 100.184137 124.899254 
L 99.632548 123.866746 
L 99.02892 122.834237 
L 98.379705 121.801729 
L 97.693228 120.769221 
L 96.979469 119.736712 
L 96.249789 118.704204 
L 95.516619 117.671696 
L 94.793099 116.639187 
L 94.09271 115.606679 
L 93.42888 114.574171 
L 92.814588 113.541662 
L 92.261961 112.509154 
L 91.781885 111.476646 
L 91.383629 110.444137 
L 91.074507 109.411629 
L 90.859579 108.379121 
L 90.741423 107.346612 
L 90.72 106.314104 
L 90.792609 105.281596 
L 90.953975 104.249087 
L 91.196455 103.216579 
L 91.510376 102.184071 
L 91.88448 101.151562 
L 92.306477 100.119054 
L 92.763643 99.086545 
L 93.24346 98.054037 
L 93.734223 97.021529 
L 94.225599 95.98902 
L 94.709075 94.956512 
L 95.178287 93.924004 
L 95.629184 92.891495 
L 96.060038 91.858987 
L 96.471298 90.826479 
L 96.865301 89.79397 
L 97.245875 88.761462 
L 97.617856 87.728954 
L 97.986586 86.696445 
L 98.357391 85.663937 
L 98.735121 84.631429 
L 99.123746 83.59892 
L 99.526054 82.566412 
L 99.943462 81.533904 
L 100.375933 80.501395 
L 100.822014 79.468887 
L 101.278959 78.436379 
L 101.74295 77.40387 
L 102.209358 76.371362 
L 102.673059 75.338853 
L 103.128742 74.306345 
L 103.571224 73.273837 
L 103.995719 72.241328 
L 104.398077 71.20882 
L 104.774955 70.176312 
L 105.123926 69.143803 
L 105.443535 68.111295 
L 105.733278 67.078787 
L 105.993535 66.046278 
L 106.225459 65.01377 
L 106.430824 63.981262 
L 106.611862 62.948753 
L 106.771088 61.916245 
L 106.911133 60.883737 
L 109.088867 60.883737 
L 109.088867 60.883737 
L 109.228912 61.916245 
L 109.388138 62.948753 
L 109.569176 63.981262 
L 109.774541 65.01377 
L 110.006465 66.046278 
L 110.266722 67.078787 
L 110.556465 68.111295 
L 110.876074 69.143803 
L 111.225045 70.176312 
L 111.601923 71.20882 
L 112.004281 72.241328 
L 112.428776 73.273837 
L 112.871258 74.306345 
L 113.326941 75.338853 
L 113.790642 76.371362 
L 114.25705 77.40387 
L 114.721041 78.436379 
L 115.177986 79.468887 
L 115.624067 80.501395 
L 116.056538 81.533904 
L 116.473946 82.566412 
L 116.876254 83.59892 
L 117.264879 84.631429 
L 117.642609 85.663937 
L 118.013414 86.696445 
L 118.382144 87.728954 
L 118.754125 88.761462 
L 119.134699 89.79397 
L 119.528702 90.826479 
L 119.939962 91.858987 
L 120.370816 92.891495 
L 120.821713 93.924004 
L 121.290925 94.956512 
L 121.774401 95.98902 
L 122.265777 97.021529 
L 122.75654 98.054037 
L 123.236357 99.086545 
L 123.693523 100.119054 
L 124.11552 101.151562 
L 124.489624 102.184071 
L 124.803545 103.216579 
L 125.046025 104.249087 
L 125.207391 105.281596 
L 125.28 106.314104 
L 125.258577 107.346612 
L 125.140421 108.379121 
L 124.925493 109.411629 
L 124.616371 110.444137 
L 124.218115 111.476646 
L 123.738039 112.509154 
L 123.185412 113.541662 
L 122.57112 114.574171 
L 121.90729 115.606679 
L 121.206901 116.639187 
L 120.483381 117.671696 
L 119.750211 118.704204 
L 119.020531 119.736712 
L 118.306772 120.769221 
L 117.620295 121.801729 
L 116.97108 122.834237 
L 116.367452 123.866746 
L 115.815863 124.899254 
L 115.320744 125.931763 
L 114.884439 126.964271 
L 114.507215 127.996779 
L 114.187366 129.029288 
L 113.9214 130.061796 
L 113.704299 131.094304 
L 113.529843 132.126813 
L 113.390978 133.159321 
L 113.280205 134.191829 
L 113.189964 135.224338 
L 113.113005 136.256846 
L 113.042697 137.289354 
L 112.973289 138.321863 
L 112.900087 139.354371 
L 112.819547 140.386879 
L 112.729299 141.419388 
L 112.628075 142.451896 
L 112.515594 143.484404 
L 112.392382 144.516913 
L 112.259569 145.549421 
L 112.118676 146.581929 
L 111.971407 147.614438 
L 111.819468 148.646946 
L 111.664414 149.679455 
L 111.507552 150.711963 
L 111.349879 151.744471 
L 111.192071 152.77698 
L 111.034512 153.809488 
L 110.877349 154.841996 
L 110.720571 155.874505 
L 110.564097 156.907013 
L 110.407859 157.939521 
L 110.251876 158.97203 
L 110.096316 160.004538 
L 109.941525 161.037046 
L 109.788045 162.069555 
L 109.6366 163.102063 
L 109.6366 163.102063 
z
" clip-path="url(#pe7fea39f7c)" style="fill: none; stroke: #000000; stroke-opacity: 0.3"/>
   </g>
   <g id="FillBetweenPolyCollection_13">
    <path d="M 108.497067 212.384627 
L 107.502933 212.384627 
L 107.508979 210.979569 
L 107.526812 209.574511 
L 107.555058 208.169454 
L 107.591609 206.764396 
L 107.633844 205.359338 
L 107.678885 203.95428 
L 107.723847 202.549223 
L 107.766053 201.144165 
L 107.803184 199.739107 
L 107.833371 198.334049 
L 107.855216 196.928992 
L 107.867779 195.523934 
L 107.870547 194.118876 
L 107.863409 192.713819 
L 107.846645 191.308761 
L 107.820943 189.903703 
L 107.787425 188.498645 
L 107.747673 187.093588 
L 107.703715 185.68853 
L 107.65797 184.283472 
L 107.613111 182.878415 
L 107.571862 181.473357 
L 107.536736 180.068299 
L 107.509739 178.663241 
L 107.492075 177.258184 
L 107.483908 175.853126 
L 107.484198 174.448068 
L 107.490655 173.04301 
L 107.499807 171.637953 
L 107.507196 170.232895 
L 107.507657 168.827837 
L 107.495674 167.42278 
L 107.465764 166.017722 
L 107.412861 164.612664 
L 107.332666 163.207606 
L 107.221938 161.802549 
L 107.078699 160.397491 
L 106.902324 158.992433 
L 106.693518 157.587376 
L 106.454138 156.182318 
L 106.1869 154.77726 
L 105.894955 153.372202 
L 105.581388 151.967145 
L 105.248698 150.562087 
L 104.898319 149.157029 
L 104.530259 147.751971 
L 104.142928 146.346914 
L 103.733205 144.941856 
L 103.296758 143.536798 
L 102.828607 142.131741 
L 102.323873 140.726683 
L 101.778635 139.321625 
L 101.190776 137.916567 
L 100.560708 136.51151 
L 99.891843 135.106452 
L 99.190731 133.701394 
L 98.466797 132.296337 
L 97.731686 130.891279 
L 96.998277 129.486221 
L 96.279485 128.081163 
L 95.587042 126.676106 
L 94.930446 125.271048 
L 94.316261 123.86599 
L 93.747925 122.460932 
L 93.226101 121.055875 
L 92.749548 119.650817 
L 92.316355 118.245759 
L 91.925332 116.840702 
L 91.577287 115.435644 
L 91.275957 114.030586 
L 91.028403 112.625528 
L 90.844781 111.220471 
L 90.737513 109.815413 
L 90.72 108.410355 
L 90.805073 107.005298 
L 91.003426 105.60024 
L 91.322259 104.195182 
L 91.764293 102.790124 
L 92.327263 101.385067 
L 93.003872 99.980009 
L 93.782178 98.574951 
L 94.646287 97.169893 
L 95.577263 95.764836 
L 96.55414 94.359778 
L 97.554978 92.95472 
L 98.557903 91.549663 
L 99.54211 90.144605 
L 100.488788 88.739547 
L 101.381946 87.334489 
L 102.209066 85.929432 
L 102.961554 84.524374 
L 103.634908 83.119316 
L 104.228599 81.714259 
L 104.745637 80.309201 
L 105.191888 78.904143 
L 105.575195 77.499085 
L 105.904434 76.094028 
L 106.188588 74.68897 
L 106.435977 73.283912 
L 109.564023 73.283912 
L 109.564023 73.283912 
L 109.811412 74.68897 
L 110.095566 76.094028 
L 110.424805 77.499085 
L 110.808112 78.904143 
L 111.254363 80.309201 
L 111.771401 81.714259 
L 112.365092 83.119316 
L 113.038446 84.524374 
L 113.790934 85.929432 
L 114.618054 87.334489 
L 115.511212 88.739547 
L 116.45789 90.144605 
L 117.442097 91.549663 
L 118.445022 92.95472 
L 119.44586 94.359778 
L 120.422737 95.764836 
L 121.353713 97.169893 
L 122.217822 98.574951 
L 122.996128 99.980009 
L 123.672737 101.385067 
L 124.235707 102.790124 
L 124.677741 104.195182 
L 124.996574 105.60024 
L 125.194927 107.005298 
L 125.28 108.410355 
L 125.262487 109.815413 
L 125.155219 111.220471 
L 124.971597 112.625528 
L 124.724043 114.030586 
L 124.422713 115.435644 
L 124.074668 116.840702 
L 123.683645 118.245759 
L 123.250452 119.650817 
L 122.773899 121.055875 
L 122.252075 122.460932 
L 121.683739 123.86599 
L 121.069554 125.271048 
L 120.412958 126.676106 
L 119.720515 128.081163 
L 119.001723 129.486221 
L 118.268314 130.891279 
L 117.533203 132.296337 
L 116.809269 133.701394 
L 116.108157 135.106452 
L 115.439292 136.51151 
L 114.809224 137.916567 
L 114.221365 139.321625 
L 113.676127 140.726683 
L 113.171393 142.131741 
L 112.703242 143.536798 
L 112.266795 144.941856 
L 111.857072 146.346914 
L 111.469741 147.751971 
L 111.101681 149.157029 
L 110.751302 150.562087 
L 110.418612 151.967145 
L 110.105045 153.372202 
L 109.8131 154.77726 
L 109.545862 156.182318 
L 109.306482 157.587376 
L 109.097676 158.992433 
L 108.921301 160.397491 
L 108.778062 161.802549 
L 108.667334 163.207606 
L 108.587139 164.612664 
L 108.534236 166.017722 
L 108.504326 167.42278 
L 108.492343 168.827837 
L 108.492804 170.232895 
L 108.500193 171.637953 
L 108.509345 173.04301 
L 108.515802 174.448068 
L 108.516092 175.853126 
L 108.507925 177.258184 
L 108.490261 178.663241 
L 108.463264 180.068299 
L 108.428138 181.473357 
L 108.386889 182.878415 
L 108.34203 184.283472 
L 108.296285 185.68853 
L 108.252327 187.093588 
L 108.212575 188.498645 
L 108.179057 189.903703 
L 108.153355 191.308761 
L 108.136591 192.713819 
L 108.129453 194.118876 
L 108.132221 195.523934 
L 108.144784 196.928992 
L 108.166629 198.334049 
L 108.196816 199.739107 
L 108.233947 201.144165 
L 108.276153 202.549223 
L 108.321115 203.95428 
L 108.366156 205.359338 
L 108.408391 206.764396 
L 108.444942 208.169454 
L 108.473188 209.574511 
L 108.491021 210.979569 
L 108.497067 212.384627 
L 108.497067 212.384627 
z
" clip-path="url(#pe7fea39f7c)" style="fill: none; stroke: #000000; stroke-opacity: 0.3"/>
   </g>
   <g id="FillBetweenPolyCollection_14">
    <path d="M 110.63975 155.90288 
L 105.36025 155.90288 
L 105.093985 154.735869 
L 104.815519 153.568857 
L 104.525694 152.401846 
L 104.225648 151.234835 
L 103.916857 150.067823 
L 103.601159 148.900812 
L 103.280741 147.7338 
L 102.958091 146.566789 
L 102.635916 145.399778 
L 102.317018 144.232766 
L 102.004155 143.065755 
L 101.699875 141.898744 
L 101.406365 140.731732 
L 101.125297 139.564721 
L 100.857718 138.397709 
L 100.603962 137.230698 
L 100.363618 136.063687 
L 100.135537 134.896675 
L 99.91788 133.729664 
L 99.708205 132.562652 
L 99.503577 131.395641 
L 99.300699 130.22863 
L 99.096046 129.061618 
L 98.885996 127.894607 
L 98.666963 126.727595 
L 98.435515 125.560584 
L 98.188483 124.393573 
L 97.923068 123.226561 
L 97.636942 122.05955 
L 97.328342 120.892539 
L 96.996176 119.725527 
L 96.640107 118.558516 
L 96.260647 117.391504 
L 95.859234 116.224493 
L 95.43828 115.057482 
L 95.001205 113.89047 
L 94.552427 112.723459 
L 94.097312 111.556447 
L 93.642084 110.389436 
L 93.193692 109.222425 
L 92.759635 108.055413 
L 92.347771 106.888402 
L 91.966089 105.72139 
L 91.622492 104.554379 
L 91.324573 103.387368 
L 91.079411 102.220356 
L 90.893395 101.053345 
L 90.772066 99.886334 
L 90.72 98.719322 
L 90.74071 97.552311 
L 90.836576 96.385299 
L 91.0088 95.218288 
L 91.257366 94.051277 
L 91.581024 92.884265 
L 91.977283 91.717254 
L 92.442422 90.550242 
L 92.971517 89.383231 
L 93.558504 88.21622 
L 94.196265 87.049208 
L 94.87676 85.882197 
L 95.591194 84.715185 
L 96.330226 83.548174 
L 97.08421 82.381163 
L 97.843462 81.214151 
L 98.598539 80.04714 
L 99.340514 78.880129 
L 100.061228 77.713117 
L 100.753516 76.546106 
L 101.411381 75.379094 
L 102.030105 74.212083 
L 102.606308 73.045072 
L 103.13794 71.87806 
L 103.624202 70.711049 
L 104.065434 69.544037 
L 104.462944 68.377026 
L 104.818816 67.210015 
L 105.135707 66.043003 
L 105.416634 64.875992 
L 105.664783 63.70898 
L 105.883339 62.541969 
L 106.075348 61.374958 
L 106.243617 60.207946 
L 106.39066 59.040935 
L 106.518676 57.873924 
L 106.629563 56.706912 
L 106.724969 55.539901 
L 106.80635 54.372889 
L 106.875047 53.205878 
L 106.932359 52.038867 
L 106.979604 50.871855 
L 107.018169 49.704844 
L 107.049531 48.537832 
L 107.075258 47.370821 
L 107.096985 46.20381 
L 107.116362 45.036798 
L 107.134998 43.869787 
L 107.154386 42.702775 
L 107.175833 41.535764 
L 107.200394 40.368753 
L 108.799606 40.368753 
L 108.799606 40.368753 
L 108.824167 41.535764 
L 108.845614 42.702775 
L 108.865002 43.869787 
L 108.883638 45.036798 
L 108.903015 46.20381 
L 108.924742 47.370821 
L 108.950469 48.537832 
L 108.981831 49.704844 
L 109.020396 50.871855 
L 109.067641 52.038867 
L 109.124953 53.205878 
L 109.19365 54.372889 
L 109.275031 55.539901 
L 109.370437 56.706912 
L 109.481324 57.873924 
L 109.60934 59.040935 
L 109.756383 60.207946 
L 109.924652 61.374958 
L 110.116661 62.541969 
L 110.335217 63.70898 
L 110.583366 64.875992 
L 110.864293 66.043003 
L 111.181184 67.210015 
L 111.537056 68.377026 
L 111.934566 69.544037 
L 112.375798 70.711049 
L 112.86206 71.87806 
L 113.393692 73.045072 
L 113.969895 74.212083 
L 114.588619 75.379094 
L 115.246484 76.546106 
L 115.938772 77.713117 
L 116.659486 78.880129 
L 117.401461 80.04714 
L 118.156538 81.214151 
L 118.91579 82.381163 
L 119.669774 83.548174 
L 120.408806 84.715185 
L 121.12324 85.882197 
L 121.803735 87.049208 
L 122.441496 88.21622 
L 123.028483 89.383231 
L 123.557578 90.550242 
L 124.022717 91.717254 
L 124.418976 92.884265 
L 124.742634 94.051277 
L 124.9912 95.218288 
L 125.163424 96.385299 
L 125.25929 97.552311 
L 125.28 98.719322 
L 125.227934 99.886334 
L 125.106605 101.053345 
L 124.920589 102.220356 
L 124.675427 103.387368 
L 124.377508 104.554379 
L 124.033911 105.72139 
L 123.652229 106.888402 
L 123.240365 108.055413 
L 122.806308 109.222425 
L 122.357916 110.389436 
L 121.902688 111.556447 
L 121.447573 112.723459 
L 120.998795 113.89047 
L 120.56172 115.057482 
L 120.140766 116.224493 
L 119.739353 117.391504 
L 119.359893 118.558516 
L 119.003824 119.725527 
L 118.671658 120.892539 
L 118.363058 122.05955 
L 118.076932 123.226561 
L 117.811517 124.393573 
L 117.564485 125.560584 
L 117.333037 126.727595 
L 117.114004 127.894607 
L 116.903954 129.061618 
L 116.699301 130.22863 
L 116.496423 131.395641 
L 116.291795 132.562652 
L 116.08212 133.729664 
L 115.864463 134.896675 
L 115.636382 136.063687 
L 115.396038 137.230698 
L 115.142282 138.397709 
L 114.874703 139.564721 
L 114.593635 140.731732 
L 114.300125 141.898744 
L 113.995845 143.065755 
L 113.682982 144.232766 
L 113.364084 145.399778 
L 113.041909 146.566789 
L 112.719259 147.7338 
L 112.398841 148.900812 
L 112.083143 150.067823 
L 111.774352 151.234835 
L 111.474306 152.401846 
L 111.184481 153.568857 
L 110.906015 154.735869 
L 110.63975 155.90288 
L 110.63975 155.90288 
z
" clip-path="url(#pe7fea39f7c)" style="fill: none; stroke: #000000; stroke-opacity: 0.3"/>
   </g>
   <g id="matplotlib.axis_1"/>
   <g id="matplotlib.axis_2">
    <g id="ytick_1">
     <g id="line2d_1">
      <defs>
       <path id="mc2425ac148" d="M 0 0 
L -3.5 0 
" style="stroke: #000000; stroke-width: 0.8"/>
      </defs>
      <g>
       <use xlink:href="#mc2425ac148" x="21.6" y="291.6" style="stroke: #000000; stroke-width: 0.8"/>
      </g>
     </g>
    </g>
    <g id="ytick_2">
     <g id="line2d_2">
      <g>
       <use xlink:href="#mc2425ac148" x="21.6" y="199.8" style="stroke: #000000; stroke-width: 0.8"/>
      </g>
     </g>
    </g>
    <g id="ytick_3">
     <g id="line2d_3">
      <g>
       <use xlink:href="#mc2425ac148" x="21.6" y="108" style="stroke: #000000; stroke-width: 0.8"/>
      </g>
     </g>
    </g>
    <g id="ytick_4">
     <g id="line2d_4">
      <g>
       <use xlink:href="#mc2425ac148" x="21.6" y="16.2" style="stroke: #000000; stroke-width: 0.8"/>
      </g>
     </g>
    </g>
   </g>
   <g id="line2d_5">
    <path d="M 50.4 269.568 
L 50.4 264.06 
" clip-path="url(#pe7fea39f7c)" style="fill: none; stroke: #000000; stroke-linecap: square"/>
   </g>
   <g id="line2d_6">
    <path d="M 50.4 269.568 
L 108 269.568 
" clip-path="url(#pe7fea39f7c)" style="fill: none; stroke: #000000; stroke-linecap: square"/>
   </g>
   <g id="line2d_7">
    <path d="M 108 269.568 
L 108 264.06 
" clip-path="url(#pe7fea39f7c)" style="fill: none; stroke: #000000; stroke-linecap: square"/>
   </g>
   <g id="patch_3">
    <path d="M 21.6 291.6 
L 21.6 16.2 
" style="fill: none; stroke: #000000; stroke-width: 0.8; stroke-linejoin: miter; stroke-linecap: square"/>
   </g>
   <g id="patch_4">
    <path d="M 136.8 291.6 
L 136.8 16.2 
" style="fill: none; stroke: #000000; stroke-width: 0.8; stroke-linejoin: miter; stroke-linecap: square"/>
   </g>
   <g id="patch_5">
    <path d="M 21.6 291.6 
L 136.8 291.6 
" style="fill: none; stroke: #000000; stroke-width: 0.8; stroke-linejoin: miter; stroke-linecap: square"/>
   </g>
   <g id="patch_6">
    <path d="M 21.6 16.2 
L 136.8 16.2 
" style="fill: none; stroke: #000000; stroke-width: 0.8; stroke-linejoin: miter; stroke-linecap: square"/>
   </g>
   <g id="text_1">
    <text style="font-weight: 700; font-size: 12px; font-family: 'DejaVu Sans', 'Bitstream Vera Sans', 'Computer Modern Sans Serif', 'Lucida Grande', 'Verdana', 'Geneva', 'Lucid', 'Arial', 'Helvetica', 'Avant Garde', sans-serif; text-anchor: middle" x="50.4" y="289.104375" transform="rotate(-0 50.4 289.104375)">#1</text>
   </g>
   <g id="text_2">
    <text style="font-weight: 700; font-size: 12px; font-family: 'DejaVu Sans', 'Bitstream Vera Sans', 'Computer Modern Sans Serif', 'Lucida Grande', 'Verdana', 'Geneva', 'Lucid', 'Arial', 'Helvetica', 'Avant Garde', sans-serif; text-anchor: middle" x="108" y="289.104375" transform="rotate(-0 108 289.104375)">#2</text>
   </g>
   <g id="text_3">
    <text style="font-size: 12px; font-family: 'DejaVu Sans', 'Bitstream Vera Sans', 'Computer Modern Sans Serif', 'Lucida Grande', 'Verdana', 'Geneva', 'Lucid', 'Arial', 'Helvetica', 'Avant Garde', sans-serif; text-anchor: middle" x="79.2" y="268.449375" transform="rotate(-0 79.2 268.449375)">****</text>
   </g>
   <g id="line2d_8">
    <path d="M 21.6 141.966001 
L 136.8 141.966001 
" clip-path="url(#pe7fea39f7c)" style="fill: none; stroke-dasharray: 3.7,1.6; stroke-dashoffset: 0; stroke: #808080; stroke-opacity: 0.7"/>
   </g>
   <g id="line2d_9">
    <path d="M 21.6 106.201702 
L 136.8 106.201702 
" clip-path="url(#pe7fea39f7c)" style="fill: none; stroke-dasharray: 3.7,1.6; stroke-dashoffset: 0; stroke: #808080; stroke-opacity: 0.7"/>
   </g>
   <g id="LineCollection_1">
    <path d="M 50.4 144.164357 
L 50.4 139.767644 
" clip-path="url(#pe7fea39f7c)" style="fill: none; stroke: #000000; stroke-width: 2"/>
   </g>
   <g id="line2d_10">
    <defs>
     <path id="m0bf48c3413" d="M 5 0 
L -5 -0 
" style="stroke: #000000; stroke-width: 2"/>
    </defs>
    <g clip-path="url(#pe7fea39f7c)">
     <use xlink:href="#m0bf48c3413" x="50.4" y="144.164357" style="stroke: #000000; stroke-width: 2"/>
    </g>
   </g>
   <g id="line2d_11">
    <g clip-path="url(#pe7fea39f7c)">
     <use xlink:href="#m0bf48c3413" x="50.4" y="139.767644" style="stroke: #000000; stroke-width: 2"/>
    </g>
   </g>
   <g id="LineCollection_2">
    <path d="M 108 109.632054 
L 108 102.771351 
" clip-path="url(#pe7fea39f7c)" style="fill: none; stroke: #000000; stroke-width: 2"/>
   </g>
   <g id="line2d_12">
    <g clip-path="url(#pe7fea39f7c)">
     <use xlink:href="#m0bf48c3413" x="108" y="109.632054" style="stroke: #000000; stroke-width: 2"/>
    </g>
   </g>
   <g id="line2d_13">
    <g clip-path="url(#pe7fea39f7c)">
     <use xlink:href="#m0bf48c3413" x="108" y="102.771351" style="stroke: #000000; stroke-width: 2"/>
    </g>
   </g>
   <g id="line2d_14">
    <defs>
     <path id="m9fd04771a7" d="M 0 4 
C 1.060812 4 2.078319 3.578535 2.828427 2.828427 
C 3.578535 2.078319 4 1.060812 4 0 
C 4 -1.060812 3.578535 -2.078319 2.828427 -2.828427 
C 2.078319 -3.578535 1.060812 -4 0 -4 
C -1.060812 -4 -2.078319 -3.578535 -2.828427 -2.828427 
C -3.578535 -2.078319 -4 -1.060812 -4 0 
C -4 1.060812 -3.578535 2.078319 -2.828427 2.828427 
C -2.078319 3.578535 -1.060812 4 0 4 
z
" style="stroke: #000000"/>
    </defs>
    <g clip-path="url(#pe7fea39f7c)">
     <use xlink:href="#m9fd04771a7" x="50.4" y="141.966001" style="stroke: #000000"/>
    </g>
   </g>
   <g id="line2d_15">
    <g clip-path="url(#pe7fea39f7c)">
     <use xlink:href="#m9fd04771a7" x="108" y="106.201702" style="stroke: #000000"/>
    </g>
   </g>
  </g>
 </g>
 <defs>
  <clipPath id="pe7fea39f7c">
   <rect x="21.6" y="16.2" width="115.2" height="275.4"/>
  </clipPath>
 </defs>
</svg>
