<?xml version="1.0" encoding="utf-8" standalone="no"?>
<!DOCTYPE svg PUBLIC "-//W3C//DTD SVG 1.1//EN"
  "http://www.w3.org/Graphics/SVG/1.1/DTD/svg11.dtd">
<svg xmlns:xlink="http://www.w3.org/1999/xlink" width="144pt" height="324pt" viewBox="0 0 144 324" xmlns="http://www.w3.org/2000/svg" version="1.1">
 <metadata>
  <rdf:RDF xmlns:dc="http://purl.org/dc/elements/1.1/" xmlns:cc="http://creativecommons.org/ns#" xmlns:rdf="http://www.w3.org/1999/02/22-rdf-syntax-ns#">
   <cc:Work>
    <dc:type rdf:resource="http://purl.org/dc/dcmitype/StillImage"/>
    <dc:date>2025-12-11T09:10:03.549335</dc:date>
    <dc:format>image/svg+xml</dc:format>
    <dc:creator>
     <cc:Agent>
      <dc:title>Matplotlib v3.10.0, https://matplotlib.org/</dc:title>
     </cc:Agent>
    </dc:creator>
   </cc:Work>
  </rdf:RDF>
 </metadata>
 <defs>
  <style type="text/css">*{stroke-linejoin: round; stroke-linecap: butt}</style>
 </defs>
 <g id="figure_1">
  <g id="patch_1">
   <path d="M 0 324 
L 144 324 
L 144 0 
L 0 0 
z
" style="fill: #ffffff"/>
  </g>
  <g id="axes_1">
   <g id="patch_2">
    <path d="M 21.6 291.6 
L 136.8 291.6 
L 136.8 16.2 
L 21.6 16.2 
z
" style="fill: #ffffff"/>
   </g>
   <g id="FillBetweenPolyCollection_1">
    <path d="M 50.943723 186.279834 
L 49.856277 186.279834 
L 49.81146 184.45325 
L 49.771792 182.626666 
L 49.734838 180.800082 
L 49.69603 178.973498 
L 49.648438 177.146914 
L 49.582674 175.32033 
L 49.486996 173.493746 
L 49.347686 171.667162 
L 49.149761 169.840578 
L 48.87804 168.013994 
L 48.518558 166.18741 
L 48.060204 164.360826 
L 47.496447 162.534242 
L 46.826887 160.707658 
L 46.058354 158.881074 
L 45.205232 157.05449 
L 44.288747 155.227906 
L 43.335074 153.401322 
L 42.372381 151.574738 
L 41.427192 149.748154 
L 40.520744 147.92157 
L 39.666165 146.094986 
L 38.867259 144.268402 
L 38.119374 142.441818 
L 37.412325 140.615234 
L 36.734806 138.78865 
L 36.07922 136.962066 
L 35.445681 135.135482 
L 34.844098 133.308898 
L 34.293738 131.482315 
L 33.820369 129.655731 
L 33.451713 127.829147 
L 33.212443 126.002563 
L 33.12 124.175979 
L 33.182215 122.349395 
L 33.397148 120.522811 
L 33.754896 118.696227 
L 34.240579 116.869643 
L 34.837489 115.043059 
L 35.529501 113.216475 
L 36.302182 111.389891 
L 37.142581 109.563307 
L 38.038094 107.736723 
L 38.975046 105.910139 
L 39.937654 104.083555 
L 40.907807 102.256971 
L 41.865792 100.430387 
L 42.791767 98.603803 
L 43.667589 96.777219 
L 44.478519 94.950635 
L 45.214423 93.124051 
L 45.870254 91.297467 
L 46.445812 89.470883 
L 46.944923 87.644299 
L 47.374312 85.817715 
L 47.742399 83.991131 
L 48.05822 82.164547 
L 48.330579 80.337963 
L 48.567423 78.511379 
L 48.775428 76.684795 
L 48.959722 74.858211 
L 49.123761 73.031628 
L 49.269331 71.205044 
L 49.396752 69.37846 
L 49.505274 67.551876 
L 49.593659 65.725292 
L 49.660874 63.898708 
L 49.706771 62.072124 
L 49.732613 60.24554 
L 49.741331 58.418956 
L 49.737443 56.592372 
L 49.726642 54.765788 
L 49.715132 52.939204 
L 49.708841 51.11262 
L 49.712665 49.286036 
L 49.729873 47.459452 
L 49.761781 45.632868 
L 49.807728 43.806284 
L 49.865332 41.9797 
L 49.930969 40.153116 
L 50.000362 38.326532 
L 50.069169 36.499948 
L 50.133473 34.673364 
L 50.19012 32.84678 
L 50.236853 31.020196 
L 50.272291 29.193612 
L 50.295799 27.367028 
L 50.307311 25.540444 
L 50.307185 23.71386 
L 50.296144 21.887276 
L 50.275291 20.060692 
L 50.246205 18.234108 
L 50.211033 16.407525 
L 50.17253 14.580941 
L 50.133973 12.754357 
L 50.098923 10.927773 
L 50.070854 9.101189 
L 50.052707 7.274605 
L 50.046464 5.448021 
L 50.753536 5.448021 
L 50.753536 5.448021 
L 50.747293 7.274605 
L 50.729146 9.101189 
L 50.701077 10.927773 
L 50.666027 12.754357 
L 50.62747 14.580941 
L 50.588967 16.407525 
L 50.553795 18.234108 
L 50.524709 20.060692 
L 50.503856 21.887276 
L 50.492815 23.71386 
L 50.492689 25.540444 
L 50.504201 27.367028 
L 50.527709 29.193612 
L 50.563147 31.020196 
L 50.60988 32.84678 
L 50.666527 34.673364 
L 50.730831 36.499948 
L 50.799638 38.326532 
L 50.869031 40.153116 
L 50.934668 41.9797 
L 50.992272 43.806284 
L 51.038219 45.632868 
L 51.070127 47.459452 
L 51.087335 49.286036 
L 51.091159 51.11262 
L 51.084868 52.939204 
L 51.073358 54.765788 
L 51.062557 56.592372 
L 51.058669 58.418956 
L 51.067387 60.24554 
L 51.093229 62.072124 
L 51.139126 63.898708 
L 51.206341 65.725292 
L 51.294726 67.551876 
L 51.403248 69.37846 
L 51.530669 71.205044 
L 51.676239 73.031628 
L 51.840278 74.858211 
L 52.024572 76.684795 
L 52.232577 78.511379 
L 52.469421 80.337963 
L 52.74178 82.164547 
L 53.057601 83.991131 
L 53.425688 85.817715 
L 53.855077 87.644299 
L 54.354188 89.470883 
L 54.929746 91.297467 
L 55.585577 93.124051 
L 56.321481 94.950635 
L 57.132411 96.777219 
L 58.008233 98.603803 
L 58.934208 100.430387 
L 59.892193 102.256971 
L 60.862346 104.083555 
L 61.824954 105.910139 
L 62.761906 107.736723 
L 63.657419 109.563307 
L 64.497818 111.389891 
L 65.270499 113.216475 
L 65.962511 115.043059 
L 66.559421 116.869643 
L 67.045104 118.696227 
L 67.402852 120.522811 
L 67.617785 122.349395 
L 67.68 124.175979 
L 67.587557 126.002563 
L 67.348287 127.829147 
L 66.979631 129.655731 
L 66.506262 131.482315 
L 65.955902 133.308898 
L 65.354319 135.135482 
L 64.72078 136.962066 
L 64.065194 138.78865 
L 63.387675 140.615234 
L 62.680626 142.441818 
L 61.932741 144.268402 
L 61.133835 146.094986 
L 60.279256 147.92157 
L 59.372808 149.748154 
L 58.427619 151.574738 
L 57.464926 153.401322 
L 56.511253 155.227906 
L 55.594768 157.05449 
L 54.741646 158.881074 
L 53.973113 160.707658 
L 53.303553 162.534242 
L 52.739796 164.360826 
L 52.281442 166.18741 
L 51.92196 168.013994 
L 51.650239 169.840578 
L 51.452314 171.667162 
L 51.313004 173.493746 
L 51.217326 175.32033 
L 51.151562 177.146914 
L 51.10397 178.973498 
L 51.065162 180.800082 
L 51.028208 182.626666 
L 50.98854 184.45325 
L 50.943723 186.279834 
L 50.943723 186.279834 
z
" clip-path="url(#pb8c37266cb)" style="fill: none; stroke: #000000; stroke-opacity: 0.3"/>
   </g>
   <g id="FillBetweenPolyCollection_2">
    <path d="M 50.656105 236.647928 
L 50.143895 236.647928 
L 50.138325 234.800358 
L 50.138194 232.952788 
L 50.141295 231.105219 
L 50.14512 229.257649 
L 50.147525 227.410079 
L 50.147323 225.56251 
L 50.144608 223.71494 
L 50.140731 221.86737 
L 50.137921 220.019801 
L 50.138672 218.172231 
L 50.145063 216.324661 
L 50.158211 214.477092 
L 50.177977 212.629522 
L 50.202985 210.781952 
L 50.230893 208.934383 
L 50.258818 207.086813 
L 50.283758 205.239243 
L 50.302913 203.391674 
L 50.313831 201.544104 
L 50.314403 199.696534 
L 50.302735 197.848965 
L 50.276986 196.001395 
L 50.235215 194.153825 
L 50.175273 192.306256 
L 50.09477 190.458686 
L 49.991118 188.611116 
L 49.861668 186.763547 
L 49.703945 184.915977 
L 49.516005 183.068407 
L 49.29684 181.220838 
L 49.046754 179.373268 
L 48.76755 177.525698 
L 48.462381 175.678129 
L 48.135182 173.830559 
L 47.789726 171.982989 
L 47.428486 170.13542 
L 47.051626 168.28785 
L 46.656429 166.44028 
L 46.237398 164.592711 
L 45.787097 162.745141 
L 45.297577 160.897571 
L 44.762078 159.050002 
L 44.176649 157.202432 
L 43.54131 155.354862 
L 42.860505 153.507293 
L 42.142735 151.659723 
L 41.399404 149.812153 
L 40.643102 147.964584 
L 39.885705 146.117014 
L 39.13674 144.269444 
L 38.402505 142.421875 
L 37.686249 140.574305 
L 36.98946 138.726735 
L 36.31397 136.879166 
L 35.66429 135.031596 
L 35.049476 133.184026 
L 34.483932 131.336457 
L 33.986847 129.488887 
L 33.580426 127.641317 
L 33.287391 125.793748 
L 33.128405 123.946178 
L 33.12 122.098608 
L 33.273273 120.251039 
L 33.593289 118.403469 
L 34.078874 116.555899 
L 34.722489 114.70833 
L 35.510019 112.86076 
L 36.420634 111.01319 
L 37.427044 109.165621 
L 38.496509 107.318051 
L 39.592757 105.470481 
L 40.678724 103.622912 
L 41.719693 101.775342 
L 42.686343 99.927772 
L 43.557203 98.080203 
L 44.32012 96.232633 
L 44.972588 94.385063 
L 45.520903 92.537494 
L 45.978316 90.689924 
L 46.36248 88.842354 
L 46.692585 86.994785 
L 46.986658 85.147215 
L 47.259423 83.299645 
L 47.521018 81.452076 
L 47.776635 79.604506 
L 48.026966 77.756936 
L 48.269216 75.909367 
L 48.498389 74.061797 
L 48.708633 72.214227 
L 48.894508 70.366658 
L 49.052103 68.519088 
L 49.179917 66.671518 
L 49.2794 64.823949 
L 49.355018 62.976379 
L 49.413738 61.12881 
L 49.463954 59.28124 
L 49.514047 57.43367 
L 49.570882 55.586101 
L 49.638628 53.738531 
L 51.161372 53.738531 
L 51.161372 53.738531 
L 51.229118 55.586101 
L 51.285953 57.43367 
L 51.336046 59.28124 
L 51.386262 61.12881 
L 51.444982 62.976379 
L 51.5206 64.823949 
L 51.620083 66.671518 
L 51.747897 68.519088 
L 51.905492 70.366658 
L 52.091367 72.214227 
L 52.301611 74.061797 
L 52.530784 75.909367 
L 52.773034 77.756936 
L 53.023365 79.604506 
L 53.278982 81.452076 
L 53.540577 83.299645 
L 53.813342 85.147215 
L 54.107415 86.994785 
L 54.43752 88.842354 
L 54.821684 90.689924 
L 55.279097 92.537494 
L 55.827412 94.385063 
L 56.47988 96.232633 
L 57.242797 98.080203 
L 58.113657 99.927772 
L 59.080307 101.775342 
L 60.121276 103.622912 
L 61.207243 105.470481 
L 62.303491 107.318051 
L 63.372956 109.165621 
L 64.379366 111.01319 
L 65.289981 112.86076 
L 66.077511 114.70833 
L 66.721126 116.555899 
L 67.206711 118.403469 
L 67.526727 120.251039 
L 67.68 122.098608 
L 67.671595 123.946178 
L 67.512609 125.793748 
L 67.219574 127.641317 
L 66.813153 129.488887 
L 66.316068 131.336457 
L 65.750524 133.184026 
L 65.13571 135.031596 
L 64.48603 136.879166 
L 63.81054 138.726735 
L 63.113751 140.574305 
L 62.397495 142.421875 
L 61.66326 144.269444 
L 60.914295 146.117014 
L 60.156898 147.964584 
L 59.400596 149.812153 
L 58.657265 151.659723 
L 57.939495 153.507293 
L 57.25869 155.354862 
L 56.623351 157.202432 
L 56.037922 159.050002 
L 55.502423 160.897571 
L 55.012903 162.745141 
L 54.562602 164.592711 
L 54.143571 166.44028 
L 53.748374 168.28785 
L 53.371514 170.13542 
L 53.010274 171.982989 
L 52.664818 173.830559 
L 52.337619 175.678129 
L 52.03245 177.525698 
L 51.753246 179.373268 
L 51.50316 181.220838 
L 51.283995 183.068407 
L 51.096055 184.915977 
L 50.938332 186.763547 
L 50.808882 188.611116 
L 50.70523 190.458686 
L 50.624727 192.306256 
L 50.564785 194.153825 
L 50.523014 196.001395 
L 50.497265 197.848965 
L 50.485597 199.696534 
L 50.486169 201.544104 
L 50.497087 203.391674 
L 50.516242 205.239243 
L 50.541182 207.086813 
L 50.569107 208.934383 
L 50.597015 210.781952 
L 50.622023 212.629522 
L 50.641789 214.477092 
L 50.654937 216.324661 
L 50.661328 218.172231 
L 50.662079 220.019801 
L 50.659269 221.86737 
L 50.655392 223.71494 
L 50.652677 225.56251 
L 50.652475 227.410079 
L 50.65488 229.257649 
L 50.658705 231.105219 
L 50.661806 232.952788 
L 50.661675 234.800358 
L 50.656105 236.647928 
L 50.656105 236.647928 
z
" clip-path="url(#pb8c37266cb)" style="fill: none; stroke: #000000; stroke-opacity: 0.3"/>
   </g>
   <g id="FillBetweenPolyCollection_3">
    <path d="M 54.627426 160.92195 
L 46.172574 160.92195 
L 45.651192 159.68102 
L 45.106438 158.440091 
L 44.541857 157.199162 
L 43.961682 155.958233 
L 43.370878 154.717304 
L 42.775083 153.476374 
L 42.180404 152.235445 
L 41.593076 150.994516 
L 41.018997 149.753587 
L 40.463188 148.512657 
L 39.929276 147.271728 
L 39.419074 146.030799 
L 38.932348 144.78987 
L 38.466844 143.548941 
L 38.018599 142.308011 
L 37.582524 141.067082 
L 37.153212 139.826153 
L 36.725864 138.585224 
L 36.297227 137.344294 
L 35.86642 136.103365 
L 35.43552 134.862436 
L 35.009847 133.621507 
L 34.597877 132.380578 
L 34.210799 131.139648 
L 33.861762 129.898719 
L 33.56489 128.65779 
L 33.334173 127.416861 
L 33.182367 126.175932 
L 33.12 124.935002 
L 33.15459 123.694073 
L 33.290133 122.453144 
L 33.52688 121.212215 
L 33.861411 119.971285 
L 34.286954 118.730356 
L 34.79389 117.489427 
L 35.37039 116.248498 
L 36.003111 115.007569 
L 36.677893 113.766639 
L 37.380425 112.52571 
L 38.096842 111.284781 
L 38.814242 110.043852 
L 39.521116 108.802923 
L 40.207673 107.561993 
L 40.866068 106.321064 
L 41.490521 105.080135 
L 42.077323 103.839206 
L 42.624733 102.598276 
L 43.13278 101.357347 
L 43.602987 100.116418 
L 44.038034 98.875489 
L 44.441413 97.63456 
L 44.817081 96.39363 
L 45.169154 95.152701 
L 45.501646 93.911772 
L 45.81828 92.670843 
L 46.122333 91.429913 
L 46.416549 90.188984 
L 46.703078 88.948055 
L 46.983441 87.707126 
L 47.258519 86.466197 
L 47.528564 85.225267 
L 47.793223 83.984338 
L 48.051604 82.743409 
L 48.302356 81.50248 
L 48.543789 80.261551 
L 48.774021 79.020621 
L 48.99113 77.779692 
L 49.193315 76.538763 
L 49.379046 75.297834 
L 49.547177 74.056904 
L 49.697028 72.815975 
L 49.828422 71.575046 
L 49.94167 70.334117 
L 50.037525 69.093188 
L 50.117093 67.852258 
L 50.181728 66.611329 
L 50.232917 65.3704 
L 50.27217 64.129471 
L 50.300915 62.888542 
L 50.320419 61.647612 
L 50.331738 60.406683 
L 50.335687 59.165754 
L 50.332849 57.924825 
L 50.323606 56.683895 
L 50.308198 55.442966 
L 50.2868 54.202037 
L 50.259618 52.961108 
L 50.226976 51.720179 
L 50.189414 50.479249 
L 50.147751 49.23832 
L 50.103128 47.997391 
L 50.057018 46.756462 
L 50.011177 45.515532 
L 49.96757 44.274603 
L 49.928245 43.033674 
L 49.895187 41.792745 
L 49.87016 40.551816 
L 49.85455 39.310886 
L 49.849246 38.069957 
L 50.950754 38.069957 
L 50.950754 38.069957 
L 50.94545 39.310886 
L 50.92984 40.551816 
L 50.904813 41.792745 
L 50.871755 43.033674 
L 50.83243 44.274603 
L 50.788823 45.515532 
L 50.742982 46.756462 
L 50.696872 47.997391 
L 50.652249 49.23832 
L 50.610586 50.479249 
L 50.573024 51.720179 
L 50.540382 52.961108 
L 50.5132 54.202037 
L 50.491802 55.442966 
L 50.476394 56.683895 
L 50.467151 57.924825 
L 50.464313 59.165754 
L 50.468262 60.406683 
L 50.479581 61.647612 
L 50.499085 62.888542 
L 50.52783 64.129471 
L 50.567083 65.3704 
L 50.618272 66.611329 
L 50.682907 67.852258 
L 50.762475 69.093188 
L 50.85833 70.334117 
L 50.971578 71.575046 
L 51.102972 72.815975 
L 51.252823 74.056904 
L 51.420954 75.297834 
L 51.606685 76.538763 
L 51.80887 77.779692 
L 52.025979 79.020621 
L 52.256211 80.261551 
L 52.497644 81.50248 
L 52.748396 82.743409 
L 53.006777 83.984338 
L 53.271436 85.225267 
L 53.541481 86.466197 
L 53.816559 87.707126 
L 54.096922 88.948055 
L 54.383451 90.188984 
L 54.677667 91.429913 
L 54.98172 92.670843 
L 55.298354 93.911772 
L 55.630846 95.152701 
L 55.982919 96.39363 
L 56.358587 97.63456 
L 56.761966 98.875489 
L 57.197013 100.116418 
L 57.66722 101.357347 
L 58.175267 102.598276 
L 58.722677 103.839206 
L 59.309479 105.080135 
L 59.933932 106.321064 
L 60.592327 107.561993 
L 61.278884 108.802923 
L 61.985758 110.043852 
L 62.703158 111.284781 
L 63.419575 112.52571 
L 64.122107 113.766639 
L 64.796889 115.007569 
L 65.42961 116.248498 
L 66.00611 117.489427 
L 66.513046 118.730356 
L 66.938589 119.971285 
L 67.27312 121.212215 
L 67.509867 122.453144 
L 67.64541 123.694073 
L 67.68 124.935002 
L 67.617633 126.175932 
L 67.465827 127.416861 
L 67.23511 128.65779 
L 66.938238 129.898719 
L 66.589201 131.139648 
L 66.202123 132.380578 
L 65.790153 133.621507 
L 65.36448 134.862436 
L 64.93358 136.103365 
L 64.502773 137.344294 
L 64.074136 138.585224 
L 63.646788 139.826153 
L 63.217476 141.067082 
L 62.781401 142.308011 
L 62.333156 143.548941 
L 61.867652 144.78987 
L 61.380926 146.030799 
L 60.870724 147.271728 
L 60.336812 148.512657 
L 59.781003 149.753587 
L 59.206924 150.994516 
L 58.619596 152.235445 
L 58.024917 153.476374 
L 57.429122 154.717304 
L 56.838318 155.958233 
L 56.258143 157.199162 
L 55.693562 158.440091 
L 55.148808 159.68102 
L 54.627426 160.92195 
L 54.627426 160.92195 
z
" clip-path="url(#pb8c37266cb)" style="fill: none; stroke: #000000; stroke-opacity: 0.3"/>
   </g>
   <g id="FillBetweenPolyCollection_4">
    <path d="M 50.597185 209.587117 
L 50.202815 209.587117 
L 50.202672 207.728848 
L 50.208997 205.870579 
L 50.218005 204.01231 
L 50.22506 202.154041 
L 50.225817 200.295771 
L 50.217303 198.437502 
L 50.198618 196.579233 
L 50.171069 194.720964 
L 50.137728 192.862695 
L 50.102523 191.004426 
L 50.069095 189.146157 
L 50.039664 187.287887 
L 50.014151 185.429618 
L 49.989756 183.571349 
L 49.96111 181.71308 
L 49.921034 179.854811 
L 49.861781 177.996542 
L 49.776484 176.138272 
L 49.660368 174.280003 
L 49.511292 172.421734 
L 49.329311 170.563465 
L 49.115306 168.705196 
L 48.869131 166.846927 
L 48.588035 164.988658 
L 48.266187 163.130388 
L 47.895769 161.272119 
L 47.469554 159.41385 
L 46.984111 157.555581 
L 46.442402 155.697312 
L 45.854576 153.839043 
L 45.236396 151.980773 
L 44.605674 150.122504 
L 43.977898 148.264235 
L 43.362476 146.405966 
L 42.760678 144.547697 
L 42.165554 142.689428 
L 41.563483 140.831159 
L 40.936706 138.972889 
L 40.266405 137.11462 
L 39.536244 135.256351 
L 38.736405 133.398082 
L 37.867948 131.539813 
L 36.94682 129.681544 
L 36.006437 127.823274 
L 35.097662 125.965005 
L 34.285368 124.106736 
L 33.641404 122.248467 
L 33.234689 120.390198 
L 33.12 118.531929 
L 33.327757 116.67366 
L 33.857313 114.81539 
L 34.675743 112.957121 
L 35.722838 111.098852 
L 36.921273 109.240583 
L 38.189376 107.382314 
L 39.453273 105.524045 
L 40.655634 103.665775 
L 41.75962 101.807506 
L 42.748209 99.949237 
L 43.620341 98.090968 
L 44.385704 96.232699 
L 45.059748 94.37443 
L 45.659744 92.516161 
L 46.202039 90.657891 
L 46.700205 88.799622 
L 47.163754 86.941353 
L 47.597316 85.083084 
L 48.000505 83.224815 
L 48.368741 81.366546 
L 48.695149 79.508276 
L 48.973203 77.650007 
L 49.199384 75.791738 
L 49.37499 73.933469 
L 49.506422 72.0752 
L 49.603859 70.216931 
L 49.678765 68.358662 
L 49.741136 66.500392 
L 49.797396 64.642123 
L 49.849619 62.783854 
L 49.896219 60.925585 
L 49.933782 59.067316 
L 49.959336 57.209047 
L 49.972265 55.350777 
L 49.975214 53.492508 
L 49.973696 51.634239 
L 49.974577 49.77597 
L 49.983991 47.917701 
L 50.005457 46.059432 
L 50.038832 44.201163 
L 50.08044 42.342893 
L 50.124265 40.484624 
L 50.163759 38.626355 
L 50.193657 36.768086 
L 50.211289 34.909817 
L 50.217078 33.051548 
L 50.21419 31.193278 
L 50.207517 29.335009 
L 50.202316 27.47674 
L 50.202892 25.618471 
L 50.597108 25.618471 
L 50.597108 25.618471 
L 50.597684 27.47674 
L 50.592483 29.335009 
L 50.58581 31.193278 
L 50.582922 33.051548 
L 50.588711 34.909817 
L 50.606343 36.768086 
L 50.636241 38.626355 
L 50.675735 40.484624 
L 50.71956 42.342893 
L 50.761168 44.201163 
L 50.794543 46.059432 
L 50.816009 47.917701 
L 50.825423 49.77597 
L 50.826304 51.634239 
L 50.824786 53.492508 
L 50.827735 55.350777 
L 50.840664 57.209047 
L 50.866218 59.067316 
L 50.903781 60.925585 
L 50.950381 62.783854 
L 51.002604 64.642123 
L 51.058864 66.500392 
L 51.121235 68.358662 
L 51.196141 70.216931 
L 51.293578 72.0752 
L 51.42501 73.933469 
L 51.600616 75.791738 
L 51.826797 77.650007 
L 52.104851 79.508276 
L 52.431259 81.366546 
L 52.799495 83.224815 
L 53.202684 85.083084 
L 53.636246 86.941353 
L 54.099795 88.799622 
L 54.597961 90.657891 
L 55.140256 92.516161 
L 55.740252 94.37443 
L 56.414296 96.232699 
L 57.179659 98.090968 
L 58.051791 99.949237 
L 59.04038 101.807506 
L 60.144366 103.665775 
L 61.346727 105.524045 
L 62.610624 107.382314 
L 63.878727 109.240583 
L 65.077162 111.098852 
L 66.124257 112.957121 
L 66.942687 114.81539 
L 67.472243 116.67366 
L 67.68 118.531929 
L 67.565311 120.390198 
L 67.158596 122.248467 
L 66.514632 124.106736 
L 65.702338 125.965005 
L 64.793563 127.823274 
L 63.85318 129.681544 
L 62.932052 131.539813 
L 62.063595 133.398082 
L 61.263756 135.256351 
L 60.533595 137.11462 
L 59.863294 138.972889 
L 59.236517 140.831159 
L 58.634446 142.689428 
L 58.039322 144.547697 
L 57.437524 146.405966 
L 56.822102 148.264235 
L 56.194326 150.122504 
L 55.563604 151.980773 
L 54.945424 153.839043 
L 54.357598 155.697312 
L 53.815889 157.555581 
L 53.330446 159.41385 
L 52.904231 161.272119 
L 52.533813 163.130388 
L 52.211965 164.988658 
L 51.930869 166.846927 
L 51.684694 168.705196 
L 51.470689 170.563465 
L 51.288708 172.421734 
L 51.139632 174.280003 
L 51.023516 176.138272 
L 50.938219 177.996542 
L 50.878966 179.854811 
L 50.83889 181.71308 
L 50.810244 183.571349 
L 50.785849 185.429618 
L 50.760336 187.287887 
L 50.730905 189.146157 
L 50.697477 191.004426 
L 50.662272 192.862695 
L 50.628931 194.720964 
L 50.601382 196.579233 
L 50.582697 198.437502 
L 50.574183 200.295771 
L 50.57494 202.154041 
L 50.581995 204.01231 
L 50.591003 205.870579 
L 50.597328 207.728848 
L 50.597185 209.587117 
L 50.597185 209.587117 
z
" clip-path="url(#pb8c37266cb)" style="fill: none; stroke: #000000; stroke-opacity: 0.3"/>
   </g>
   <g id="FillBetweenPolyCollection_5">
    <path d="M 109.124621 169.79796 
L 106.875379 169.79796 
L 106.772723 168.748095 
L 106.664886 167.698231 
L 106.550169 166.648366 
L 106.426483 165.598501 
L 106.29146 164.548636 
L 106.142613 163.498771 
L 105.97751 162.448907 
L 105.793968 161.399042 
L 105.590217 160.349177 
L 105.365044 159.299312 
L 105.117867 158.249447 
L 104.848749 157.199583 
L 104.558329 156.149718 
L 104.247682 155.099853 
L 103.918118 154.049988 
L 103.570952 153.000123 
L 103.207253 151.950259 
L 102.827638 150.900394 
L 102.432115 149.850529 
L 102.020023 148.800664 
L 101.590081 147.7508 
L 101.140546 146.700935 
L 100.669491 145.65107 
L 100.175154 144.601205 
L 99.656341 143.55134 
L 99.112832 142.501476 
L 98.54574 141.451611 
L 97.957777 140.401746 
L 97.353385 139.351881 
L 96.738708 138.302016 
L 96.121392 137.252152 
L 95.510224 136.202287 
L 94.914626 135.152422 
L 94.344064 134.102557 
L 93.807409 133.052692 
L 93.312322 132.002828 
L 92.86473 130.952963 
L 92.468428 129.903098 
L 92.124879 128.853233 
L 91.83321 127.803368 
L 91.590427 126.753504 
L 91.391816 125.703639 
L 91.231496 124.653774 
L 91.103068 123.603909 
L 91.000282 122.554044 
L 90.917665 121.50418 
L 90.851034 120.454315 
L 90.797842 119.40445 
L 90.757344 118.354585 
L 90.730549 117.30472 
L 90.72 116.254856 
L 90.729406 115.204991 
L 90.763189 114.155126 
L 90.826002 113.105261 
L 90.922277 112.055396 
L 91.055854 111.005532 
L 91.22973 109.955667 
L 91.445924 108.905802 
L 91.705468 107.855937 
L 92.00849 106.806073 
L 92.354356 105.756208 
L 92.741827 104.706343 
L 93.169203 103.656478 
L 93.634413 102.606613 
L 94.135056 101.556749 
L 94.668371 100.506884 
L 95.231173 99.457019 
L 95.81976 98.407154 
L 96.429844 97.357289 
L 97.056504 96.307425 
L 97.694218 95.25756 
L 98.336945 94.207695 
L 98.978302 93.15783 
L 99.611777 92.107965 
L 100.230991 91.058101 
L 100.829964 90.008236 
L 101.403356 88.958371 
L 101.94667 87.908506 
L 102.456379 86.858641 
L 102.929995 85.808777 
L 103.36606 84.758912 
L 103.764074 83.709047 
L 104.124391 82.659182 
L 104.448085 81.609317 
L 104.73681 80.559453 
L 104.992681 79.509588 
L 105.218167 78.459723 
L 105.416014 77.409858 
L 105.589181 76.359993 
L 105.7408 75.310129 
L 105.874126 74.260264 
L 105.99248 73.210399 
L 106.099184 72.160534 
L 106.197462 71.11067 
L 106.290339 70.060805 
L 106.380518 69.01094 
L 106.470267 67.961075 
L 106.561321 66.91121 
L 106.654813 65.861346 
L 109.345187 65.861346 
L 109.345187 65.861346 
L 109.438679 66.91121 
L 109.529733 67.961075 
L 109.619482 69.01094 
L 109.709661 70.060805 
L 109.802538 71.11067 
L 109.900816 72.160534 
L 110.00752 73.210399 
L 110.125874 74.260264 
L 110.2592 75.310129 
L 110.410819 76.359993 
L 110.583986 77.409858 
L 110.781833 78.459723 
L 111.007319 79.509588 
L 111.26319 80.559453 
L 111.551915 81.609317 
L 111.875609 82.659182 
L 112.235926 83.709047 
L 112.63394 84.758912 
L 113.070005 85.808777 
L 113.543621 86.858641 
L 114.05333 87.908506 
L 114.596644 88.958371 
L 115.170036 90.008236 
L 115.769009 91.058101 
L 116.388223 92.107965 
L 117.021698 93.15783 
L 117.663055 94.207695 
L 118.305782 95.25756 
L 118.943496 96.307425 
L 119.570156 97.357289 
L 120.18024 98.407154 
L 120.768827 99.457019 
L 121.331629 100.506884 
L 121.864944 101.556749 
L 122.365587 102.606613 
L 122.830797 103.656478 
L 123.258173 104.706343 
L 123.645644 105.756208 
L 123.99151 106.806073 
L 124.294532 107.855937 
L 124.554076 108.905802 
L 124.77027 109.955667 
L 124.944146 111.005532 
L 125.077723 112.055396 
L 125.173998 113.105261 
L 125.236811 114.155126 
L 125.270594 115.204991 
L 125.28 116.254856 
L 125.269451 117.30472 
L 125.242656 118.354585 
L 125.202158 119.40445 
L 125.148966 120.454315 
L 125.082335 121.50418 
L 124.999718 122.554044 
L 124.896932 123.603909 
L 124.768504 124.653774 
L 124.608184 125.703639 
L 124.409573 126.753504 
L 124.16679 127.803368 
L 123.875121 128.853233 
L 123.531572 129.903098 
L 123.13527 130.952963 
L 122.687678 132.002828 
L 122.192591 133.052692 
L 121.655936 134.102557 
L 121.085374 135.152422 
L 120.489776 136.202287 
L 119.878608 137.252152 
L 119.261292 138.302016 
L 118.646615 139.351881 
L 118.042223 140.401746 
L 117.45426 141.451611 
L 116.887168 142.501476 
L 116.343659 143.55134 
L 115.824846 144.601205 
L 115.330509 145.65107 
L 114.859454 146.700935 
L 114.409919 147.7508 
L 113.979977 148.800664 
L 113.567885 149.850529 
L 113.172362 150.900394 
L 112.792747 151.950259 
L 112.429048 153.000123 
L 112.081882 154.049988 
L 111.752318 155.099853 
L 111.441671 156.149718 
L 111.151251 157.199583 
L 110.882133 158.249447 
L 110.634956 159.299312 
L 110.409783 160.349177 
L 110.206032 161.399042 
L 110.02249 162.448907 
L 109.857387 163.498771 
L 109.70854 164.548636 
L 109.573517 165.598501 
L 109.449831 166.648366 
L 109.335114 167.698231 
L 109.227277 168.748095 
L 109.124621 169.79796 
L 109.124621 169.79796 
z
" clip-path="url(#pb8c37266cb)" style="fill: none; stroke: #000000; stroke-opacity: 0.3"/>
   </g>
   <g id="FillBetweenPolyCollection_6">
    <path d="M 110.394617 166.175002 
L 105.605383 166.175002 
L 105.347626 165.187568 
L 105.075465 164.200135 
L 104.789652 163.212701 
L 104.491044 162.225267 
L 104.180532 161.237834 
L 103.858956 160.2504 
L 103.527 159.262966 
L 103.185093 158.275533 
L 102.833313 157.288099 
L 102.471313 156.300665 
L 102.098274 155.313232 
L 101.712909 154.325798 
L 101.313512 153.338365 
L 100.898068 152.350931 
L 100.46441 151.363497 
L 100.010428 150.376064 
L 99.534319 149.38863 
L 99.034847 148.401196 
L 98.511604 147.413763 
L 97.965258 146.426329 
L 97.397735 145.438895 
L 96.812357 144.451462 
L 96.213882 143.464028 
L 95.608459 142.476595 
L 95.003482 141.489161 
L 94.407354 140.501727 
L 93.829166 139.514294 
L 93.278311 138.52686 
L 92.764056 137.539426 
L 92.295096 136.551993 
L 91.879129 135.564559 
L 91.522462 134.577125 
L 91.229694 133.589692 
L 91.003484 132.602258 
L 90.844434 131.614825 
L 90.751079 130.627391 
L 90.72 129.639957 
L 90.746051 128.652524 
L 90.822677 127.66509 
L 90.942309 126.677656 
L 91.09681 125.690223 
L 91.277946 124.702789 
L 91.477833 123.715355 
L 91.68936 122.727922 
L 91.906538 121.740488 
L 92.124764 120.753055 
L 92.340988 119.765621 
L 92.55377 118.778187 
L 92.763237 117.790754 
L 92.970935 116.80332 
L 93.179602 115.815886 
L 93.392884 114.828453 
L 93.614995 113.841019 
L 93.850376 112.853585 
L 94.103348 111.866152 
L 94.377796 110.878718 
L 94.676901 109.891284 
L 95.002922 108.903851 
L 95.35705 107.916417 
L 95.739334 106.928984 
L 96.148666 105.94155 
L 96.582845 104.954116 
L 97.038681 103.966683 
L 97.512158 102.979249 
L 97.998624 101.991815 
L 98.493005 101.004382 
L 98.990022 100.016948 
L 99.484413 99.029514 
L 99.971135 98.042081 
L 100.445547 97.054647 
L 100.903556 96.067214 
L 101.341731 95.07978 
L 101.757384 94.092346 
L 102.148598 93.104913 
L 102.514226 92.117479 
L 102.853854 91.130045 
L 103.167731 90.142612 
L 103.456674 89.155178 
L 103.721964 88.167744 
L 103.965229 87.180311 
L 104.188326 86.192877 
L 104.393232 85.205444 
L 104.581952 84.21801 
L 104.756437 83.230576 
L 104.918527 82.243143 
L 105.06991 81.255709 
L 105.212108 80.268275 
L 105.346467 79.280842 
L 105.47417 78.293408 
L 105.596253 77.305974 
L 105.713624 76.318541 
L 105.827081 75.331107 
L 105.937331 74.343674 
L 106.044993 73.35624 
L 106.150606 72.368806 
L 106.254619 71.381373 
L 106.357389 70.393939 
L 106.459164 69.406505 
L 106.560071 68.419072 
L 109.439929 68.419072 
L 109.439929 68.419072 
L 109.540836 69.406505 
L 109.642611 70.393939 
L 109.745381 71.381373 
L 109.849394 72.368806 
L 109.955007 73.35624 
L 110.062669 74.343674 
L 110.172919 75.331107 
L 110.286376 76.318541 
L 110.403747 77.305974 
L 110.52583 78.293408 
L 110.653533 79.280842 
L 110.787892 80.268275 
L 110.93009 81.255709 
L 111.081473 82.243143 
L 111.243563 83.230576 
L 111.418048 84.21801 
L 111.606768 85.205444 
L 111.811674 86.192877 
L 112.034771 87.180311 
L 112.278036 88.167744 
L 112.543326 89.155178 
L 112.832269 90.142612 
L 113.146146 91.130045 
L 113.485774 92.117479 
L 113.851402 93.104913 
L 114.242616 94.092346 
L 114.658269 95.07978 
L 115.096444 96.067214 
L 115.554453 97.054647 
L 116.028865 98.042081 
L 116.515587 99.029514 
L 117.009978 100.016948 
L 117.506995 101.004382 
L 118.001376 101.991815 
L 118.487842 102.979249 
L 118.961319 103.966683 
L 119.417155 104.954116 
L 119.851334 105.94155 
L 120.260666 106.928984 
L 120.64295 107.916417 
L 120.997078 108.903851 
L 121.323099 109.891284 
L 121.622204 110.878718 
L 121.896652 111.866152 
L 122.149624 112.853585 
L 122.385005 113.841019 
L 122.607116 114.828453 
L 122.820398 115.815886 
L 123.029065 116.80332 
L 123.236763 117.790754 
L 123.44623 118.778187 
L 123.659012 119.765621 
L 123.875236 120.753055 
L 124.093462 121.740488 
L 124.31064 122.727922 
L 124.522167 123.715355 
L 124.722054 124.702789 
L 124.90319 125.690223 
L 125.057691 126.677656 
L 125.177323 127.66509 
L 125.253949 128.652524 
L 125.28 129.639957 
L 125.248921 130.627391 
L 125.155566 131.614825 
L 124.996516 132.602258 
L 124.770306 133.589692 
L 124.477538 134.577125 
L 124.120871 135.564559 
L 123.704904 136.551993 
L 123.235944 137.539426 
L 122.721689 138.52686 
L 122.170834 139.514294 
L 121.592646 140.501727 
L 120.996518 141.489161 
L 120.391541 142.476595 
L 119.786118 143.464028 
L 119.187643 144.451462 
L 118.602265 145.438895 
L 118.034742 146.426329 
L 117.488396 147.413763 
L 116.965153 148.401196 
L 116.465681 149.38863 
L 115.989572 150.376064 
L 115.53559 151.363497 
L 115.101932 152.350931 
L 114.686488 153.338365 
L 114.287091 154.325798 
L 113.901726 155.313232 
L 113.528687 156.300665 
L 113.166687 157.288099 
L 112.814907 158.275533 
L 112.473 159.262966 
L 112.141044 160.2504 
L 111.819468 161.237834 
L 111.508956 162.225267 
L 111.210348 163.212701 
L 110.924535 164.200135 
L 110.652374 165.187568 
L 110.394617 166.175002 
L 110.394617 166.175002 
z
" clip-path="url(#pb8c37266cb)" style="fill: none; stroke: #000000; stroke-opacity: 0.3"/>
   </g>
   <g id="FillBetweenPolyCollection_7">
    <path d="M 108.356909 181.973954 
L 107.643091 181.973954 
L 107.640488 180.743904 
L 107.64291 179.513854 
L 107.648011 178.283804 
L 107.652597 177.053754 
L 107.652814 175.823704 
L 107.644397 174.593654 
L 107.62296 173.363604 
L 107.584287 172.133554 
L 107.524614 170.903504 
L 107.440859 169.673454 
L 107.330788 168.443405 
L 107.193096 167.213355 
L 107.027398 165.983305 
L 106.834115 164.753255 
L 106.614285 163.523205 
L 106.369291 162.293155 
L 106.100563 161.063105 
L 105.809285 159.833055 
L 105.496136 158.603005 
L 105.16114 157.372955 
L 104.80362 156.142905 
L 104.42229 154.912855 
L 104.015482 153.682805 
L 103.581466 152.452755 
L 103.118832 151.222705 
L 102.626866 149.992656 
L 102.105859 148.762606 
L 101.557285 147.532556 
L 100.983812 146.302506 
L 100.389127 145.072456 
L 99.777595 143.842406 
L 99.153815 142.612356 
L 98.522154 141.382306 
L 97.886361 140.152256 
L 97.249351 138.922206 
L 96.613236 137.692156 
L 95.979613 136.462106 
L 95.350093 135.232056 
L 94.726984 134.002006 
L 94.114005 132.771956 
L 93.516924 131.541907 
L 92.943975 130.311857 
L 92.405976 129.081807 
L 91.916097 127.851757 
L 91.489284 126.621707 
L 91.141387 125.391657 
L 90.888075 124.161607 
L 90.74367 122.931557 
L 90.72 121.701507 
L 90.825416 120.471457 
L 91.064069 119.241407 
L 91.43552 118.011357 
L 91.93471 116.781307 
L 92.552282 115.551257 
L 93.275163 114.321207 
L 94.087336 113.091157 
L 94.970663 111.861108 
L 95.905684 110.631058 
L 96.872312 109.401008 
L 97.850429 108.170958 
L 98.820386 106.940908 
L 99.763486 105.710858 
L 100.662478 104.480808 
L 101.502098 103.250758 
L 102.269645 102.020708 
L 102.955525 100.790658 
L 103.553681 99.560608 
L 104.061834 98.330558 
L 104.481454 97.100508 
L 104.817455 95.870458 
L 105.077638 94.640408 
L 105.271959 93.410359 
L 105.411715 92.180309 
L 105.508743 90.950259 
L 105.574715 89.720209 
L 105.620573 88.490159 
L 105.65611 87.260109 
L 105.689691 86.030059 
L 105.728076 84.800009 
L 105.77632 83.569959 
L 105.837728 82.339909 
L 105.913861 81.109859 
L 106.004596 79.879809 
L 106.108258 78.649759 
L 106.221845 77.419709 
L 106.341335 76.189659 
L 106.462103 74.95961 
L 106.579386 73.72956 
L 106.688786 72.49951 
L 106.786753 71.26946 
L 106.870974 70.03941 
L 106.94063 68.80936 
L 106.996471 67.57931 
L 107.040692 66.34926 
L 107.076614 65.11921 
L 107.108221 63.88916 
L 107.139618 62.65911 
L 107.174481 61.42906 
L 107.215601 60.19901 
L 108.784399 60.19901 
L 108.784399 60.19901 
L 108.825519 61.42906 
L 108.860382 62.65911 
L 108.891779 63.88916 
L 108.923386 65.11921 
L 108.959308 66.34926 
L 109.003529 67.57931 
L 109.05937 68.80936 
L 109.129026 70.03941 
L 109.213247 71.26946 
L 109.311214 72.49951 
L 109.420614 73.72956 
L 109.537897 74.95961 
L 109.658665 76.189659 
L 109.778155 77.419709 
L 109.891742 78.649759 
L 109.995404 79.879809 
L 110.086139 81.109859 
L 110.162272 82.339909 
L 110.22368 83.569959 
L 110.271924 84.800009 
L 110.310309 86.030059 
L 110.34389 87.260109 
L 110.379427 88.490159 
L 110.425285 89.720209 
L 110.491257 90.950259 
L 110.588285 92.180309 
L 110.728041 93.410359 
L 110.922362 94.640408 
L 111.182545 95.870458 
L 111.518546 97.100508 
L 111.938166 98.330558 
L 112.446319 99.560608 
L 113.044475 100.790658 
L 113.730355 102.020708 
L 114.497902 103.250758 
L 115.337522 104.480808 
L 116.236514 105.710858 
L 117.179614 106.940908 
L 118.149571 108.170958 
L 119.127688 109.401008 
L 120.094316 110.631058 
L 121.029337 111.861108 
L 121.912664 113.091157 
L 122.724837 114.321207 
L 123.447718 115.551257 
L 124.06529 116.781307 
L 124.56448 118.011357 
L 124.935931 119.241407 
L 125.174584 120.471457 
L 125.28 121.701507 
L 125.25633 122.931557 
L 125.111925 124.161607 
L 124.858613 125.391657 
L 124.510716 126.621707 
L 124.083903 127.851757 
L 123.594024 129.081807 
L 123.056025 130.311857 
L 122.483076 131.541907 
L 121.885995 132.771956 
L 121.273016 134.002006 
L 120.649907 135.232056 
L 120.020387 136.462106 
L 119.386764 137.692156 
L 118.750649 138.922206 
L 118.113639 140.152256 
L 117.477846 141.382306 
L 116.846185 142.612356 
L 116.222405 143.842406 
L 115.610873 145.072456 
L 115.016188 146.302506 
L 114.442715 147.532556 
L 113.894141 148.762606 
L 113.373134 149.992656 
L 112.881168 151.222705 
L 112.418534 152.452755 
L 111.984518 153.682805 
L 111.57771 154.912855 
L 111.19638 156.142905 
L 110.83886 157.372955 
L 110.503864 158.603005 
L 110.190715 159.833055 
L 109.899437 161.063105 
L 109.630709 162.293155 
L 109.385715 163.523205 
L 109.165885 164.753255 
L 108.972602 165.983305 
L 108.806904 167.213355 
L 108.669212 168.443405 
L 108.559141 169.673454 
L 108.475386 170.903504 
L 108.415713 172.133554 
L 108.37704 173.363604 
L 108.355603 174.593654 
L 108.347186 175.823704 
L 108.347403 177.053754 
L 108.351989 178.283804 
L 108.35709 179.513854 
L 108.359512 180.743904 
L 108.356909 181.973954 
L 108.356909 181.973954 
z
" clip-path="url(#pb8c37266cb)" style="fill: none; stroke: #000000; stroke-opacity: 0.3"/>
   </g>
   <g id="FillBetweenPolyCollection_8">
    <path d="M 109.525968 172.758922 
L 106.474032 172.758922 
L 106.359772 171.895707 
L 106.234434 171.032492 
L 106.095799 170.169278 
L 105.941527 169.306063 
L 105.769246 168.442849 
L 105.576639 167.579634 
L 105.361544 166.716419 
L 105.122046 165.853205 
L 104.856574 164.98999 
L 104.563972 164.126776 
L 104.243575 163.263561 
L 103.895242 162.400346 
L 103.519386 161.537132 
L 103.11697 160.673917 
L 102.689479 159.810703 
L 102.238875 158.947488 
L 101.767526 158.084273 
L 101.278127 157.221059 
L 100.773605 156.357844 
L 100.257023 155.49463 
L 99.731491 154.631415 
L 99.200079 153.7682 
L 98.665748 152.904986 
L 98.131304 152.041771 
L 97.599361 151.178557 
L 97.072342 150.315342 
L 96.552487 149.452127 
L 96.04189 148.588913 
L 95.54254 147.725698 
L 95.056378 146.862484 
L 94.585351 145.999269 
L 94.131458 145.136054 
L 93.696783 144.27284 
L 93.283516 143.409625 
L 92.893942 142.546411 
L 92.530407 141.683196 
L 92.195258 140.819981 
L 91.890766 139.956767 
L 91.619016 139.093552 
L 91.381802 138.230338 
L 91.180506 137.367123 
L 91.015988 136.503908 
L 90.88849 135.640694 
L 90.797566 134.777479 
L 90.742038 133.914265 
L 90.72 133.05105 
L 90.728851 132.187835 
L 90.765379 131.324621 
L 90.825873 130.461406 
L 90.906281 129.598192 
L 91.002381 128.734977 
L 91.109978 127.871762 
L 91.225097 127.008548 
L 91.344177 126.145333 
L 91.464238 125.282119 
L 91.583029 124.418904 
L 91.699131 123.55569 
L 91.812019 122.692475 
L 91.922072 121.82926 
L 92.030541 120.966046 
L 92.139461 120.102831 
L 92.251524 119.239617 
L 92.369916 118.376402 
L 92.49812 117.513187 
L 92.639713 116.649973 
L 92.79815 115.786758 
L 92.976559 114.923544 
L 93.177551 114.060329 
L 93.403062 113.197114 
L 93.654235 112.3339 
L 93.931343 111.470685 
L 94.233764 110.607471 
L 94.56 109.744256 
L 94.907755 108.881041 
L 95.274045 108.017827 
L 95.655353 107.154612 
L 96.047803 106.291398 
L 96.447357 105.428183 
L 96.850011 104.564968 
L 97.251986 103.701754 
L 97.649896 102.838539 
L 98.040891 101.975325 
L 98.422765 101.11211 
L 98.794016 100.248895 
L 99.153866 99.385681 
L 99.50224 98.522466 
L 99.839697 97.659252 
L 100.167336 96.796037 
L 100.486667 95.932822 
L 100.799469 95.069608 
L 101.107635 94.206393 
L 101.413029 93.343179 
L 101.717341 92.479964 
L 102.021971 91.616749 
L 102.327931 90.753535 
L 102.635785 89.89032 
L 102.94561 89.027106 
L 103.256998 88.163891 
L 103.569081 87.300676 
L 112.430919 87.300676 
L 112.430919 87.300676 
L 112.743002 88.163891 
L 113.05439 89.027106 
L 113.364215 89.89032 
L 113.672069 90.753535 
L 113.978029 91.616749 
L 114.282659 92.479964 
L 114.586971 93.343179 
L 114.892365 94.206393 
L 115.200531 95.069608 
L 115.513333 95.932822 
L 115.832664 96.796037 
L 116.160303 97.659252 
L 116.49776 98.522466 
L 116.846134 99.385681 
L 117.205984 100.248895 
L 117.577235 101.11211 
L 117.959109 101.975325 
L 118.350104 102.838539 
L 118.748014 103.701754 
L 119.149989 104.564968 
L 119.552643 105.428183 
L 119.952197 106.291398 
L 120.344647 107.154612 
L 120.725955 108.017827 
L 121.092245 108.881041 
L 121.44 109.744256 
L 121.766236 110.607471 
L 122.068657 111.470685 
L 122.345765 112.3339 
L 122.596938 113.197114 
L 122.822449 114.060329 
L 123.023441 114.923544 
L 123.20185 115.786758 
L 123.360287 116.649973 
L 123.50188 117.513187 
L 123.630084 118.376402 
L 123.748476 119.239617 
L 123.860539 120.102831 
L 123.969459 120.966046 
L 124.077928 121.82926 
L 124.187981 122.692475 
L 124.300869 123.55569 
L 124.416971 124.418904 
L 124.535762 125.282119 
L 124.655823 126.145333 
L 124.774903 127.008548 
L 124.890022 127.871762 
L 124.997619 128.734977 
L 125.093719 129.598192 
L 125.174127 130.461406 
L 125.234621 131.324621 
L 125.271149 132.187835 
L 125.28 133.05105 
L 125.257962 133.914265 
L 125.202434 134.777479 
L 125.11151 135.640694 
L 124.984012 136.503908 
L 124.819494 137.367123 
L 124.618198 138.230338 
L 124.380984 139.093552 
L 124.109234 139.956767 
L 123.804742 140.819981 
L 123.469593 141.683196 
L 123.106058 142.546411 
L 122.716484 143.409625 
L 122.303217 144.27284 
L 121.868542 145.136054 
L 121.414649 145.999269 
L 120.943622 146.862484 
L 120.45746 147.725698 
L 119.95811 148.588913 
L 119.447513 149.452127 
L 118.927658 150.315342 
L 118.400639 151.178557 
L 117.868696 152.041771 
L 117.334252 152.904986 
L 116.799921 153.7682 
L 116.268509 154.631415 
L 115.742977 155.49463 
L 115.226395 156.357844 
L 114.721873 157.221059 
L 114.232474 158.084273 
L 113.761125 158.947488 
L 113.310521 159.810703 
L 112.88303 160.673917 
L 112.480614 161.537132 
L 112.104758 162.400346 
L 111.756425 163.263561 
L 111.436028 164.126776 
L 111.143426 164.98999 
L 110.877954 165.853205 
L 110.638456 166.716419 
L 110.423361 167.579634 
L 110.230754 168.442849 
L 110.058473 169.306063 
L 109.904201 170.169278 
L 109.765566 171.032492 
L 109.640228 171.895707 
L 109.525968 172.758922 
L 109.525968 172.758922 
z
" clip-path="url(#pb8c37266cb)" style="fill: none; stroke: #000000; stroke-opacity: 0.3"/>
   </g>
   <g id="FillBetweenPolyCollection_9">
    <path d="M 111.384395 169.900429 
L 104.615605 169.900429 
L 104.19851 168.117099 
L 103.742847 166.33377 
L 103.246053 164.550441 
L 102.706029 162.767111 
L 102.121444 160.983782 
L 101.492058 159.200453 
L 100.819023 157.417123 
L 100.105152 155.633794 
L 99.355106 153.850465 
L 98.575492 152.067135 
L 97.774839 150.283806 
L 96.963445 148.500477 
L 96.153094 146.717147 
L 95.35666 144.933818 
L 94.587613 143.150489 
L 93.859458 141.367159 
L 93.185157 139.58383 
L 92.576553 137.800501 
L 92.043866 136.017171 
L 91.595261 134.233842 
L 91.236549 132.450513 
L 90.971016 130.667183 
L 90.7994 128.883854 
L 90.72 127.100525 
L 90.728914 125.317195 
L 90.820371 123.533866 
L 90.98714 121.750537 
L 91.22097 119.967207 
L 91.513046 118.183878 
L 91.854415 116.400549 
L 92.236369 114.617219 
L 92.650765 112.83389 
L 93.090258 111.050561 
L 93.548462 109.267231 
L 94.02002 107.483902 
L 94.500603 105.700573 
L 94.986835 103.917243 
L 95.476175 102.133914 
L 95.966753 100.350585 
L 96.457182 98.567255 
L 96.946379 96.783926 
L 97.433376 95.000597 
L 97.917168 93.217267 
L 98.396589 91.433938 
L 98.870236 89.650608 
L 99.33643 87.867279 
L 99.793234 86.08395 
L 100.238515 84.30062 
L 100.670032 82.517291 
L 101.085569 80.733962 
L 101.483065 78.950632 
L 101.860758 77.167303 
L 102.21731 75.383974 
L 102.551905 73.600644 
L 102.864321 71.817315 
L 103.154947 70.033986 
L 103.424772 68.250656 
L 103.675322 66.467327 
L 103.908564 64.683998 
L 104.126781 62.900668 
L 104.332438 61.117339 
L 104.528029 59.33401 
L 104.715942 57.55068 
L 104.898329 55.767351 
L 105.077005 53.984022 
L 105.253373 52.200692 
L 105.428373 50.417363 
L 105.602473 48.634034 
L 105.775674 46.850704 
L 105.947552 45.067375 
L 106.117308 43.284046 
L 106.283844 41.500716 
L 106.445838 39.717387 
L 106.601826 37.934058 
L 106.750287 36.150728 
L 106.889715 34.367399 
L 107.018689 32.58407 
L 107.135934 30.80074 
L 107.240367 29.017411 
L 107.331137 27.234082 
L 107.40765 25.450752 
L 107.469592 23.667423 
L 107.51694 21.884094 
L 107.549969 20.100764 
L 107.569251 18.317435 
L 107.575653 16.534106 
L 107.570324 14.750776 
L 107.554686 12.967447 
L 107.530401 11.184118 
L 107.499339 9.400788 
L 107.463537 7.617459 
L 107.425134 5.83413 
L 107.386309 4.0508 
L 107.349203 2.267471 
L 107.315832 0.484142 
L 107.29268 -1 
M 108.70732 -1 
L 108.684168 0.484142 
L 108.650797 2.267471 
L 108.613691 4.0508 
L 108.574866 5.83413 
L 108.536463 7.617459 
L 108.500661 9.400788 
L 108.469599 11.184118 
L 108.445314 12.967447 
L 108.429676 14.750776 
L 108.424347 16.534106 
L 108.430749 18.317435 
L 108.450031 20.100764 
L 108.48306 21.884094 
L 108.530408 23.667423 
L 108.59235 25.450752 
L 108.668863 27.234082 
L 108.759633 29.017411 
L 108.864066 30.80074 
L 108.981311 32.58407 
L 109.110285 34.367399 
L 109.249713 36.150728 
L 109.398174 37.934058 
L 109.554162 39.717387 
L 109.716156 41.500716 
L 109.882692 43.284046 
L 110.052448 45.067375 
L 110.224326 46.850704 
L 110.397527 48.634034 
L 110.571627 50.417363 
L 110.746627 52.200692 
L 110.922995 53.984022 
L 111.101671 55.767351 
L 111.284058 57.55068 
L 111.471971 59.33401 
L 111.667562 61.117339 
L 111.873219 62.900668 
L 112.091436 64.683998 
L 112.324678 66.467327 
L 112.575228 68.250656 
L 112.845053 70.033986 
L 113.135679 71.817315 
L 113.448095 73.600644 
L 113.78269 75.383974 
L 114.139242 77.167303 
L 114.516935 78.950632 
L 114.914431 80.733962 
L 115.329968 82.517291 
L 115.761485 84.30062 
L 116.206766 86.08395 
L 116.66357 87.867279 
L 117.129764 89.650608 
L 117.603411 91.433938 
L 118.082832 93.217267 
L 118.566624 95.000597 
L 119.053621 96.783926 
L 119.542818 98.567255 
L 120.033247 100.350585 
L 120.523825 102.133914 
L 121.013165 103.917243 
L 121.499397 105.700573 
L 121.97998 107.483902 
L 122.451538 109.267231 
L 122.909742 111.050561 
L 123.349235 112.83389 
L 123.763631 114.617219 
L 124.145585 116.400549 
L 124.486954 118.183878 
L 124.77903 119.967207 
L 125.01286 121.750537 
L 125.179629 123.533866 
L 125.271086 125.317195 
L 125.28 127.100525 
L 125.2006 128.883854 
L 125.028984 130.667183 
L 124.763451 132.450513 
L 124.404739 134.233842 
L 123.956134 136.017171 
L 123.423447 137.800501 
L 122.814843 139.58383 
L 122.140542 141.367159 
L 121.412387 143.150489 
L 120.64334 144.933818 
L 119.846906 146.717147 
L 119.036555 148.500477 
L 118.225161 150.283806 
L 117.424508 152.067135 
L 116.644894 153.850465 
L 115.894848 155.633794 
L 115.180977 157.417123 
L 114.507942 159.200453 
L 113.878556 160.983782 
L 113.293971 162.767111 
L 112.753947 164.550441 
L 112.257153 166.33377 
L 111.80149 168.117099 
L 111.384395 169.900429 
L 111.384395 169.900429 
" clip-path="url(#pb8c37266cb)" style="fill: none; stroke: #000000; stroke-opacity: 0.3"/>
   </g>
   <g id="FillBetweenPolyCollection_10">
    <path d="M 108.602679 205.273671 
L 107.397321 205.273671 
L 107.403695 203.28808 
L 107.423812 201.302489 
L 107.45552 199.316898 
L 107.495541 197.331307 
L 107.539657 195.345716 
L 107.582933 193.360125 
L 107.619903 191.374534 
L 107.6447 189.388943 
L 107.651102 187.403351 
L 107.6325 185.41776 
L 107.581832 183.432169 
L 107.491519 181.446578 
L 107.353483 179.460987 
L 107.159282 177.475396 
L 106.900436 175.489805 
L 106.568916 173.504214 
L 106.157804 171.518623 
L 105.662034 169.533032 
L 105.079124 167.547441 
L 104.409767 165.56185 
L 103.658176 163.576259 
L 102.832085 161.590668 
L 101.942384 159.605077 
L 101.002422 157.619486 
L 100.027104 155.633895 
L 99.031932 153.648303 
L 98.032198 151.662712 
L 97.042464 149.677121 
L 96.07643 147.69153 
L 95.147177 145.705939 
L 94.267671 143.720348 
L 93.451341 141.734757 
L 92.712511 139.749166 
L 92.066501 137.763575 
L 91.529273 135.777984 
L 91.116611 133.792393 
L 90.842946 131.806802 
L 90.72 129.821211 
L 90.755475 127.83562 
L 90.952019 125.850029 
L 91.30662 123.864438 
L 91.810521 121.878846 
L 92.44966 119.893255 
L 93.205544 117.907664 
L 94.056432 115.922073 
L 94.978684 113.936482 
L 95.948094 111.950891 
L 96.941123 109.9653 
L 97.935907 107.979709 
L 98.913021 105.994118 
L 99.855972 104.008527 
L 100.751451 102.022936 
L 101.589366 100.037345 
L 102.362717 98.051754 
L 103.067339 96.066163 
L 103.701559 94.080572 
L 104.265798 92.094981 
L 104.762154 90.10939 
L 105.193989 88.123798 
L 105.565553 86.138207 
L 105.881665 84.152616 
L 106.147481 82.167025 
L 106.368337 80.181434 
L 106.549673 78.195843 
L 106.697007 76.210252 
L 106.81592 74.224661 
L 106.912015 72.23907 
L 106.990827 70.253479 
L 107.057658 68.267888 
L 107.117355 66.282297 
L 107.174066 64.296706 
L 107.231008 62.311115 
L 107.290297 60.325524 
L 107.352894 58.339933 
L 107.418655 56.354342 
L 107.48651 54.36875 
L 107.554717 52.383159 
L 107.621166 50.397568 
L 107.683668 48.411977 
L 107.740199 46.426386 
L 107.789061 44.440795 
L 107.828959 42.455204 
L 107.858997 40.469613 
L 107.878626 38.484022 
L 107.887566 36.498431 
L 107.885746 34.51284 
L 107.873274 32.527249 
L 107.850466 30.541658 
L 107.817916 28.556067 
L 107.776596 26.570476 
L 107.727968 24.584885 
L 107.674052 22.599293 
L 107.617434 20.613702 
L 107.561189 18.628111 
L 107.508699 16.64252 
L 107.463392 14.656929 
L 107.42842 12.671338 
L 107.406335 10.685747 
L 107.3988 8.700156 
L 108.6012 8.700156 
L 108.6012 8.700156 
L 108.593665 10.685747 
L 108.57158 12.671338 
L 108.536608 14.656929 
L 108.491301 16.64252 
L 108.438811 18.628111 
L 108.382566 20.613702 
L 108.325948 22.599293 
L 108.272032 24.584885 
L 108.223404 26.570476 
L 108.182084 28.556067 
L 108.149534 30.541658 
L 108.126726 32.527249 
L 108.114254 34.51284 
L 108.112434 36.498431 
L 108.121374 38.484022 
L 108.141003 40.469613 
L 108.171041 42.455204 
L 108.210939 44.440795 
L 108.259801 46.426386 
L 108.316332 48.411977 
L 108.378834 50.397568 
L 108.445283 52.383159 
L 108.51349 54.36875 
L 108.581345 56.354342 
L 108.647106 58.339933 
L 108.709703 60.325524 
L 108.768992 62.311115 
L 108.825934 64.296706 
L 108.882645 66.282297 
L 108.942342 68.267888 
L 109.009173 70.253479 
L 109.087985 72.23907 
L 109.18408 74.224661 
L 109.302993 76.210252 
L 109.450327 78.195843 
L 109.631663 80.181434 
L 109.852519 82.167025 
L 110.118335 84.152616 
L 110.434447 86.138207 
L 110.806011 88.123798 
L 111.237846 90.10939 
L 111.734202 92.094981 
L 112.298441 94.080572 
L 112.932661 96.066163 
L 113.637283 98.051754 
L 114.410634 100.037345 
L 115.248549 102.022936 
L 116.144028 104.008527 
L 117.086979 105.994118 
L 118.064093 107.979709 
L 119.058877 109.9653 
L 120.051906 111.950891 
L 121.021316 113.936482 
L 121.943568 115.922073 
L 122.794456 117.907664 
L 123.55034 119.893255 
L 124.189479 121.878846 
L 124.69338 123.864438 
L 125.047981 125.850029 
L 125.244525 127.83562 
L 125.28 129.821211 
L 125.157054 131.806802 
L 124.883389 133.792393 
L 124.470727 135.777984 
L 123.933499 137.763575 
L 123.287489 139.749166 
L 122.548659 141.734757 
L 121.732329 143.720348 
L 120.852823 145.705939 
L 119.92357 147.69153 
L 118.957536 149.677121 
L 117.967802 151.662712 
L 116.968068 153.648303 
L 115.972896 155.633895 
L 114.997578 157.619486 
L 114.057616 159.605077 
L 113.167915 161.590668 
L 112.341824 163.576259 
L 111.590233 165.56185 
L 110.920876 167.547441 
L 110.337966 169.533032 
L 109.842196 171.518623 
L 109.431084 173.504214 
L 109.099564 175.489805 
L 108.840718 177.475396 
L 108.646517 179.460987 
L 108.508481 181.446578 
L 108.418168 183.432169 
L 108.3675 185.41776 
L 108.348898 187.403351 
L 108.3553 189.388943 
L 108.380097 191.374534 
L 108.417067 193.360125 
L 108.460343 195.345716 
L 108.504459 197.331307 
L 108.54448 199.316898 
L 108.576188 201.302489 
L 108.596305 203.28808 
L 108.602679 205.273671 
L 108.602679 205.273671 
z
" clip-path="url(#pb8c37266cb)" style="fill: none; stroke: #000000; stroke-opacity: 0.3"/>
   </g>
   <g id="FillBetweenPolyCollection_11">
    <path d="M 114.35552 163.323273 
L 101.64448 163.323273 
L 101.066238 161.874809 
L 100.469438 160.426344 
L 99.857269 158.97788 
L 99.233213 157.529415 
L 98.601012 156.080951 
L 97.964625 154.632486 
L 97.328193 153.184022 
L 96.696007 151.735558 
L 96.072471 150.287093 
L 95.462076 148.838629 
L 94.869372 147.390164 
L 94.298939 145.9417 
L 93.755361 144.493235 
L 93.243193 143.044771 
L 92.766925 141.596306 
L 92.330932 140.147842 
L 91.939424 138.699378 
L 91.596373 137.250913 
L 91.30544 135.802449 
L 91.069883 134.353984 
L 90.892464 132.90552 
L 90.775347 131.457055 
L 90.72 130.008591 
L 90.727105 128.560127 
L 90.796479 127.111662 
L 90.927016 125.663198 
L 91.116657 124.214733 
L 91.36239 122.766269 
L 91.660286 121.317804 
L 92.005573 119.86934 
L 92.392742 118.420876 
L 92.815694 116.972411 
L 93.267908 115.523947 
L 93.742634 114.075482 
L 94.2331 112.627018 
L 94.73271 111.178553 
L 95.235244 109.730089 
L 95.735034 108.281624 
L 96.227107 106.83316 
L 96.707297 105.384696 
L 97.172307 103.936231 
L 97.619737 102.487767 
L 98.048053 101.039302 
L 98.456529 99.590838 
L 98.84514 98.142373 
L 99.214436 96.693909 
L 99.565392 95.245445 
L 99.899256 93.79698 
L 100.217391 92.348516 
L 100.52114 90.900051 
L 100.811698 89.451587 
L 101.090027 88.003122 
L 101.356791 86.554658 
L 101.612333 85.106194 
L 101.856677 83.657729 
L 102.089567 82.209265 
L 102.310533 80.7608 
L 102.518966 79.312336 
L 102.714215 77.863871 
L 102.895682 76.415407 
L 103.062916 74.966942 
L 103.215696 73.518478 
L 103.354091 72.070014 
L 103.478512 70.621549 
L 103.589725 69.173085 
L 103.688853 67.72462 
L 103.777347 66.276156 
L 103.856934 64.827691 
L 103.929556 63.379227 
L 103.997285 61.930763 
L 104.062239 60.482298 
L 104.12649 59.033834 
L 104.191977 57.585369 
L 104.26043 56.136905 
L 104.333295 54.68844 
L 104.41169 53.239976 
L 104.49637 51.791512 
L 104.587708 50.343047 
L 104.685703 48.894583 
L 104.790003 47.446118 
L 104.899941 45.997654 
L 105.01459 44.549189 
L 105.132823 43.100725 
L 105.253386 41.65226 
L 105.374962 40.203796 
L 105.496245 38.755332 
L 105.616004 37.306867 
L 105.733133 35.858403 
L 105.846704 34.409938 
L 105.95599 32.961474 
L 106.060488 31.513009 
L 106.15992 30.064545 
L 106.254229 28.616081 
L 106.343551 27.167616 
L 106.428192 25.719152 
L 106.508585 24.270687 
L 106.585255 22.822223 
L 106.65877 21.373758 
L 106.729705 19.925294 
L 109.270295 19.925294 
L 109.270295 19.925294 
L 109.34123 21.373758 
L 109.414745 22.822223 
L 109.491415 24.270687 
L 109.571808 25.719152 
L 109.656449 27.167616 
L 109.745771 28.616081 
L 109.84008 30.064545 
L 109.939512 31.513009 
L 110.04401 32.961474 
L 110.153296 34.409938 
L 110.266867 35.858403 
L 110.383996 37.306867 
L 110.503755 38.755332 
L 110.625038 40.203796 
L 110.746614 41.65226 
L 110.867177 43.100725 
L 110.98541 44.549189 
L 111.100059 45.997654 
L 111.209997 47.446118 
L 111.314297 48.894583 
L 111.412292 50.343047 
L 111.50363 51.791512 
L 111.58831 53.239976 
L 111.666705 54.68844 
L 111.73957 56.136905 
L 111.808023 57.585369 
L 111.87351 59.033834 
L 111.937761 60.482298 
L 112.002715 61.930763 
L 112.070444 63.379227 
L 112.143066 64.827691 
L 112.222653 66.276156 
L 112.311147 67.72462 
L 112.410275 69.173085 
L 112.521488 70.621549 
L 112.645909 72.070014 
L 112.784304 73.518478 
L 112.937084 74.966942 
L 113.104318 76.415407 
L 113.285785 77.863871 
L 113.481034 79.312336 
L 113.689467 80.7608 
L 113.910433 82.209265 
L 114.143323 83.657729 
L 114.387667 85.106194 
L 114.643209 86.554658 
L 114.909973 88.003122 
L 115.188302 89.451587 
L 115.47886 90.900051 
L 115.782609 92.348516 
L 116.100744 93.79698 
L 116.434608 95.245445 
L 116.785564 96.693909 
L 117.15486 98.142373 
L 117.543471 99.590838 
L 117.951947 101.039302 
L 118.380263 102.487767 
L 118.827693 103.936231 
L 119.292703 105.384696 
L 119.772893 106.83316 
L 120.264966 108.281624 
L 120.764756 109.730089 
L 121.26729 111.178553 
L 121.7669 112.627018 
L 122.257366 114.075482 
L 122.732092 115.523947 
L 123.184306 116.972411 
L 123.607258 118.420876 
L 123.994427 119.86934 
L 124.339714 121.317804 
L 124.63761 122.766269 
L 124.883343 124.214733 
L 125.072984 125.663198 
L 125.203521 127.111662 
L 125.272895 128.560127 
L 125.28 130.008591 
L 125.224653 131.457055 
L 125.107536 132.90552 
L 124.930117 134.353984 
L 124.69456 135.802449 
L 124.403627 137.250913 
L 124.060576 138.699378 
L 123.669068 140.147842 
L 123.233075 141.596306 
L 122.756807 143.044771 
L 122.244639 144.493235 
L 121.701061 145.9417 
L 121.130628 147.390164 
L 120.537924 148.838629 
L 119.927529 150.287093 
L 119.303993 151.735558 
L 118.671807 153.184022 
L 118.035375 154.632486 
L 117.398988 156.080951 
L 116.766787 157.529415 
L 116.142731 158.97788 
L 115.530562 160.426344 
L 114.933762 161.874809 
L 114.35552 163.323273 
L 114.35552 163.323273 
z
" clip-path="url(#pb8c37266cb)" style="fill: none; stroke: #000000; stroke-opacity: 0.3"/>
   </g>
   <g id="matplotlib.axis_1"/>
   <g id="matplotlib.axis_2">
    <g id="ytick_1">
     <g id="line2d_1">
      <defs>
       <path id="m2a21fb23d3" d="M 0 0 
L -3.5 0 
" style="stroke: #000000; stroke-width: 0.8"/>
      </defs>
      <g>
       <use xlink:href="#m2a21fb23d3" x="21.6" y="291.6" style="stroke: #000000; stroke-width: 0.8"/>
      </g>
     </g>
    </g>
    <g id="ytick_2">
     <g id="line2d_2">
      <g>
       <use xlink:href="#m2a21fb23d3" x="21.6" y="199.8" style="stroke: #000000; stroke-width: 0.8"/>
      </g>
     </g>
    </g>
    <g id="ytick_3">
     <g id="line2d_3">
      <g>
       <use xlink:href="#m2a21fb23d3" x="21.6" y="108" style="stroke: #000000; stroke-width: 0.8"/>
      </g>
     </g>
    </g>
    <g id="ytick_4">
     <g id="line2d_4">
      <g>
       <use xlink:href="#m2a21fb23d3" x="21.6" y="16.2" style="stroke: #000000; stroke-width: 0.8"/>
      </g>
     </g>
    </g>
   </g>
   <g id="line2d_5">
    <path d="M 50.4 269.568 
L 50.4 264.06 
" clip-path="url(#pb8c37266cb)" style="fill: none; stroke: #000000; stroke-linecap: square"/>
   </g>
   <g id="line2d_6">
    <path d="M 50.4 269.568 
L 108 269.568 
" clip-path="url(#pb8c37266cb)" style="fill: none; stroke: #000000; stroke-linecap: square"/>
   </g>
   <g id="line2d_7">
    <path d="M 108 269.568 
L 108 264.06 
" clip-path="url(#pb8c37266cb)" style="fill: none; stroke: #000000; stroke-linecap: square"/>
   </g>
   <g id="patch_3">
    <path d="M 21.6 291.6 
L 21.6 16.2 
" style="fill: none; stroke: #000000; stroke-width: 0.8; stroke-linejoin: miter; stroke-linecap: square"/>
   </g>
   <g id="patch_4">
    <path d="M 136.8 291.6 
L 136.8 16.2 
" style="fill: none; stroke: #000000; stroke-width: 0.8; stroke-linejoin: miter; stroke-linecap: square"/>
   </g>
   <g id="patch_5">
    <path d="M 21.6 291.6 
L 136.8 291.6 
" style="fill: none; stroke: #000000; stroke-width: 0.8; stroke-linejoin: miter; stroke-linecap: square"/>
   </g>
   <g id="patch_6">
    <path d="M 21.6 16.2 
L 136.8 16.2 
" style="fill: none; stroke: #000000; stroke-width: 0.8; stroke-linejoin: miter; stroke-linecap: square"/>
   </g>
   <g id="text_1">
    <text style="font-weight: 700; font-size: 12px; font-family: 'DejaVu Sans', 'Bitstream Vera Sans', 'Computer Modern Sans Serif', 'Lucida Grande', 'Verdana', 'Geneva', 'Lucid', 'Arial', 'Helvetica', 'Avant Garde', sans-serif; text-anchor: middle" x="50.4" y="289.104375" transform="rotate(-0 50.4 289.104375)">#10</text>
   </g>
   <g id="text_2">
    <text style="font-weight: 700; font-size: 12px; font-family: 'DejaVu Sans', 'Bitstream Vera Sans', 'Computer Modern Sans Serif', 'Lucida Grande', 'Verdana', 'Geneva', 'Lucid', 'Arial', 'Helvetica', 'Avant Garde', sans-serif; text-anchor: middle" x="108" y="289.104375" transform="rotate(-0 108 289.104375)">#18</text>
   </g>
   <g id="text_3">
    <text style="font-size: 12px; font-family: 'DejaVu Sans', 'Bitstream Vera Sans', 'Computer Modern Sans Serif', 'Lucida Grande', 'Verdana', 'Geneva', 'Lucid', 'Arial', 'Helvetica', 'Avant Garde', sans-serif; text-anchor: middle" x="79.2" y="268.449375" transform="rotate(-0 79.2 268.449375)">ns</text>
   </g>
   <g id="line2d_8">
    <path d="M 21.6 123.792773 
L 136.8 123.792773 
" clip-path="url(#pb8c37266cb)" style="fill: none; stroke-dasharray: 3.7,1.6; stroke-dashoffset: 0; stroke: #808080; stroke-opacity: 0.7"/>
   </g>
   <g id="line2d_9">
    <path d="M 21.6 123.803 
L 136.8 123.803 
" clip-path="url(#pb8c37266cb)" style="fill: none; stroke-dasharray: 3.7,1.6; stroke-dashoffset: 0; stroke: #808080; stroke-opacity: 0.7"/>
   </g>
   <g id="LineCollection_1">
    <path d="M 50.4 126.095257 
L 50.4 121.49029 
" clip-path="url(#pb8c37266cb)" style="fill: none; stroke: #000000; stroke-width: 2"/>
   </g>
   <g id="line2d_10">
    <defs>
     <path id="m18ef33baea" d="M 5 0 
L -5 -0 
" style="stroke: #000000; stroke-width: 2"/>
    </defs>
    <g clip-path="url(#pb8c37266cb)">
     <use xlink:href="#m18ef33baea" x="50.4" y="126.095257" style="stroke: #000000; stroke-width: 2"/>
    </g>
   </g>
   <g id="line2d_11">
    <g clip-path="url(#pb8c37266cb)">
     <use xlink:href="#m18ef33baea" x="50.4" y="121.49029" style="stroke: #000000; stroke-width: 2"/>
    </g>
   </g>
   <g id="LineCollection_2">
    <path d="M 108 127.884457 
L 108 119.721543 
" clip-path="url(#pb8c37266cb)" style="fill: none; stroke: #000000; stroke-width: 2"/>
   </g>
   <g id="line2d_12">
    <g clip-path="url(#pb8c37266cb)">
     <use xlink:href="#m18ef33baea" x="108" y="127.884457" style="stroke: #000000; stroke-width: 2"/>
    </g>
   </g>
   <g id="line2d_13">
    <g clip-path="url(#pb8c37266cb)">
     <use xlink:href="#m18ef33baea" x="108" y="119.721543" style="stroke: #000000; stroke-width: 2"/>
    </g>
   </g>
   <g id="line2d_14">
    <defs>
     <path id="m351aeb9e85" d="M 0 4 
C 1.060812 4 2.078319 3.578535 2.828427 2.828427 
C 3.578535 2.078319 4 1.060812 4 0 
C 4 -1.060812 3.578535 -2.078319 2.828427 -2.828427 
C 2.078319 -3.578535 1.060812 -4 0 -4 
C -1.060812 -4 -2.078319 -3.578535 -2.828427 -2.828427 
C -3.578535 -2.078319 -4 -1.060812 -4 0 
C -4 1.060812 -3.578535 2.078319 -2.828427 2.828427 
C -2.078319 3.578535 -1.060812 4 0 4 
z
" style="stroke: #000000"/>
    </defs>
    <g clip-path="url(#pb8c37266cb)">
     <use xlink:href="#m351aeb9e85" x="50.4" y="123.792773" style="stroke: #000000"/>
    </g>
   </g>
   <g id="line2d_15">
    <g clip-path="url(#pb8c37266cb)">
     <use xlink:href="#m351aeb9e85" x="108" y="123.803" style="stroke: #000000"/>
    </g>
   </g>
  </g>
 </g>
 <defs>
  <clipPath id="pb8c37266cb">
   <rect x="21.6" y="16.2" width="115.2" height="275.4"/>
  </clipPath>
 </defs>
</svg>
