<?xml version="1.0" encoding="utf-8" standalone="no"?>
<!DOCTYPE svg PUBLIC "-//W3C//DTD SVG 1.1//EN"
  "http://www.w3.org/Graphics/SVG/1.1/DTD/svg11.dtd">
<svg xmlns:xlink="http://www.w3.org/1999/xlink" width="144pt" height="324pt" viewBox="0 0 144 324" xmlns="http://www.w3.org/2000/svg" version="1.1">
 <metadata>
  <rdf:RDF xmlns:dc="http://purl.org/dc/elements/1.1/" xmlns:cc="http://creativecommons.org/ns#" xmlns:rdf="http://www.w3.org/1999/02/22-rdf-syntax-ns#">
   <cc:Work>
    <dc:type rdf:resource="http://purl.org/dc/dcmitype/StillImage"/>
    <dc:date>2025-12-08T20:10:47.218786</dc:date>
    <dc:format>image/svg+xml</dc:format>
    <dc:creator>
     <cc:Agent>
      <dc:title>Matplotlib v3.10.0, https://matplotlib.org/</dc:title>
     </cc:Agent>
    </dc:creator>
   </cc:Work>
  </rdf:RDF>
 </metadata>
 <defs>
  <style type="text/css">*{stroke-linejoin: round; stroke-linecap: butt}</style>
 </defs>
 <g id="figure_1">
  <g id="patch_1">
   <path d="M 0 324 
L 144 324 
L 144 0 
L 0 0 
z
" style="fill: #ffffff"/>
  </g>
  <g id="axes_1">
   <g id="patch_2">
    <path d="M 21.6 291.6 
L 136.8 291.6 
L 136.8 16.2 
L 21.6 16.2 
z
" style="fill: #ffffff"/>
   </g>
   <g id="FillBetweenPolyCollection_1">
    <path d="M 47.090594 186.279834 
L 45.85486 186.279834 
L 45.803932 184.45325 
L 45.758855 182.626666 
L 45.716862 180.800082 
L 45.672762 178.973498 
L 45.61868 177.146914 
L 45.543947 175.32033 
L 45.435223 173.493746 
L 45.276916 171.667162 
L 45.052001 169.840578 
L 44.743228 168.013994 
L 44.334725 166.18741 
L 43.813868 164.360826 
L 43.173235 162.534242 
L 42.412372 160.707658 
L 41.539038 158.881074 
L 40.569582 157.05449 
L 39.528121 155.227906 
L 38.444402 153.401322 
L 37.350433 151.574738 
L 36.276355 149.748154 
L 35.2463 147.92157 
L 34.275187 146.094986 
L 33.36734 144.268402 
L 32.51747 142.441818 
L 31.714005 140.615234 
L 30.944098 138.78865 
L 30.199114 136.962066 
L 29.479183 135.135482 
L 28.795565 133.308898 
L 28.170157 131.482315 
L 27.632238 129.655731 
L 27.21331 127.829147 
L 26.941412 126.002563 
L 26.836364 124.175979 
L 26.907062 122.349395 
L 27.151305 120.522811 
L 27.557837 118.696227 
L 28.109748 116.869643 
L 28.788056 115.043059 
L 29.574433 113.216475 
L 30.45248 111.389891 
L 31.407479 109.563307 
L 32.425107 107.736723 
L 33.489825 105.910139 
L 34.583698 104.083555 
L 35.686145 102.256971 
L 36.774764 100.430387 
L 37.827008 98.603803 
L 38.82226 96.777219 
L 39.743771 94.950635 
L 40.580026 93.124051 
L 41.325289 91.297467 
L 41.979332 89.470883 
L 42.546503 87.644299 
L 43.034446 85.817715 
L 43.452726 83.991131 
L 43.811614 82.164547 
L 44.121112 80.337963 
L 44.390254 78.511379 
L 44.626622 76.684795 
L 44.836048 74.858211 
L 45.022455 73.031628 
L 45.187876 71.205044 
L 45.332673 69.37846 
L 45.455993 67.551876 
L 45.556431 65.725292 
L 45.632812 63.898708 
L 45.684967 62.072124 
L 45.714333 60.24554 
L 45.72424 58.418956 
L 45.719822 56.592372 
L 45.707548 54.765788 
L 45.694468 52.939204 
L 45.68732 51.11262 
L 45.691664 49.286036 
L 45.711219 47.459452 
L 45.747479 45.632868 
L 45.799691 43.806284 
L 45.86515 41.9797 
L 45.939738 40.153116 
L 46.018594 38.326532 
L 46.096782 36.499948 
L 46.169856 34.673364 
L 46.234228 32.84678 
L 46.287333 31.020196 
L 46.327604 29.193612 
L 46.354317 27.367028 
L 46.367398 25.540444 
L 46.367256 23.71386 
L 46.354709 21.887276 
L 46.331012 20.060692 
L 46.29796 18.234108 
L 46.257992 16.407525 
L 46.214239 14.580941 
L 46.170424 12.754357 
L 46.130594 10.927773 
L 46.098697 9.101189 
L 46.078076 7.274605 
L 46.070982 5.448021 
L 46.874473 5.448021 
L 46.874473 5.448021 
L 46.867378 7.274605 
L 46.846757 9.101189 
L 46.814861 10.927773 
L 46.775031 12.754357 
L 46.731215 14.580941 
L 46.687462 16.407525 
L 46.647494 18.234108 
L 46.614442 20.060692 
L 46.590746 21.887276 
L 46.578199 23.71386 
L 46.578056 25.540444 
L 46.591137 27.367028 
L 46.617851 29.193612 
L 46.658122 31.020196 
L 46.711227 32.84678 
L 46.775598 34.673364 
L 46.848672 36.499948 
L 46.926861 38.326532 
L 47.005717 40.153116 
L 47.080305 41.9797 
L 47.145764 43.806284 
L 47.197976 45.632868 
L 47.234236 47.459452 
L 47.25379 49.286036 
L 47.258135 51.11262 
L 47.250986 52.939204 
L 47.237907 54.765788 
L 47.225633 56.592372 
L 47.221215 58.418956 
L 47.231121 60.24554 
L 47.260487 62.072124 
L 47.312643 63.898708 
L 47.389024 65.725292 
L 47.489462 67.551876 
L 47.612782 69.37846 
L 47.757579 71.205044 
L 47.922999 73.031628 
L 48.109406 74.858211 
L 48.318832 76.684795 
L 48.555201 78.511379 
L 48.824342 80.337963 
L 49.133841 82.164547 
L 49.492729 83.991131 
L 49.911009 85.817715 
L 50.398951 87.644299 
L 50.966123 89.470883 
L 51.620165 91.297467 
L 52.365429 93.124051 
L 53.201684 94.950635 
L 54.123195 96.777219 
L 55.118447 98.603803 
L 56.170691 100.430387 
L 57.25931 102.256971 
L 58.361757 104.083555 
L 59.45563 105.910139 
L 60.520348 107.736723 
L 61.537976 109.563307 
L 62.492975 111.389891 
L 63.371021 113.216475 
L 64.157399 115.043059 
L 64.835706 116.869643 
L 65.387618 118.696227 
L 65.79415 120.522811 
L 66.038392 122.349395 
L 66.109091 124.175979 
L 66.004042 126.002563 
L 65.732145 127.829147 
L 65.313217 129.655731 
L 64.775297 131.482315 
L 64.149889 133.308898 
L 63.466271 135.135482 
L 62.746341 136.962066 
L 62.001357 138.78865 
L 61.231449 140.615234 
L 60.427984 142.441818 
L 59.578114 144.268402 
L 58.670268 146.094986 
L 57.699155 147.92157 
L 56.6691 149.748154 
L 55.595022 151.574738 
L 54.501053 153.401322 
L 53.417333 155.227906 
L 52.375873 157.05449 
L 51.406416 158.881074 
L 50.533083 160.707658 
L 49.772219 162.534242 
L 49.131586 164.360826 
L 48.61073 166.18741 
L 48.202227 168.013994 
L 47.893454 169.840578 
L 47.668538 171.667162 
L 47.510232 173.493746 
L 47.401507 175.32033 
L 47.326775 177.146914 
L 47.272693 178.973498 
L 47.228593 180.800082 
L 47.1866 182.626666 
L 47.141523 184.45325 
L 47.090594 186.279834 
L 47.090594 186.279834 
z
" clip-path="url(#pfef013d512)" style="fill: none; stroke: #000000; stroke-opacity: 0.3"/>
   </g>
   <g id="FillBetweenPolyCollection_2">
    <path d="M 46.763756 236.647928 
L 46.181699 236.647928 
L 46.17537 234.800358 
L 46.17522 232.952788 
L 46.178745 231.105219 
L 46.183091 229.257649 
L 46.185824 227.410079 
L 46.185595 225.56251 
L 46.18251 223.71494 
L 46.178104 221.86737 
L 46.174911 220.019801 
L 46.175763 218.172231 
L 46.183026 216.324661 
L 46.197967 214.477092 
L 46.220429 212.629522 
L 46.248847 210.781952 
L 46.28056 208.934383 
L 46.312293 207.086813 
L 46.340634 205.239243 
L 46.362401 203.391674 
L 46.374808 201.544104 
L 46.375458 199.696534 
L 46.362198 197.848965 
L 46.332939 196.001395 
L 46.285472 194.153825 
L 46.217355 192.306256 
L 46.125875 190.458686 
L 46.008089 188.611116 
L 45.860986 186.763547 
L 45.681756 184.915977 
L 45.468188 183.068407 
L 45.219136 181.220838 
L 44.934948 179.373268 
L 44.61767 177.525698 
L 44.270887 175.678129 
L 43.899071 173.830559 
L 43.506507 171.982989 
L 43.096007 170.13542 
L 42.667757 168.28785 
L 42.218669 166.44028 
L 41.742497 164.592711 
L 41.230793 162.745141 
L 40.674519 160.897571 
L 40.065998 159.050002 
L 39.400738 157.202432 
L 38.678761 155.354862 
L 37.905119 153.507293 
L 37.089472 151.659723 
L 36.244777 149.812153 
L 35.385343 147.964584 
L 34.524665 146.117014 
L 33.673568 144.269444 
L 32.83921 142.421875 
L 32.025283 140.574305 
L 31.233478 138.726735 
L 30.465875 136.879166 
L 29.727602 135.031596 
L 29.02895 133.184026 
L 28.386286 131.336457 
L 27.821417 129.488887 
L 27.359575 127.641317 
L 27.026581 125.793748 
L 26.845915 123.946178 
L 26.836364 122.098608 
L 27.010538 120.251039 
L 27.374192 118.403469 
L 27.925994 116.555899 
L 28.657374 114.70833 
L 29.552294 112.86076 
L 30.587084 111.01319 
L 31.730732 109.165621 
L 32.946032 107.318051 
L 34.19177 105.470481 
L 35.425823 103.622912 
L 36.608742 101.775342 
L 37.707208 99.927772 
L 38.696821 98.080203 
L 39.563772 96.232633 
L 40.305213 94.385063 
L 40.928299 92.537494 
L 41.448087 90.689924 
L 41.884636 88.842354 
L 42.259756 86.994785 
L 42.593929 85.147215 
L 42.90389 83.299645 
L 43.201157 81.452076 
L 43.49163 79.604506 
L 43.776098 77.756936 
L 44.051382 75.909367 
L 44.311806 74.061797 
L 44.550719 72.214227 
L 44.761941 70.366658 
L 44.941026 68.519088 
L 45.086269 66.671518 
L 45.199318 64.823949 
L 45.285248 62.976379 
L 45.351975 61.12881 
L 45.409039 59.28124 
L 45.465963 57.43367 
L 45.530547 55.586101 
L 45.607531 53.738531 
L 47.337923 53.738531 
L 47.337923 53.738531 
L 47.414907 55.586101 
L 47.479492 57.43367 
L 47.536416 59.28124 
L 47.59348 61.12881 
L 47.660207 62.976379 
L 47.746137 64.823949 
L 47.859186 66.671518 
L 48.004429 68.519088 
L 48.183514 70.366658 
L 48.394736 72.214227 
L 48.633649 74.061797 
L 48.894072 75.909367 
L 49.169357 77.756936 
L 49.453824 79.604506 
L 49.744297 81.452076 
L 50.041565 83.299645 
L 50.351526 85.147215 
L 50.685699 86.994785 
L 51.060818 88.842354 
L 51.497368 90.689924 
L 52.017156 92.537494 
L 52.640241 94.385063 
L 53.381682 96.232633 
L 54.248633 98.080203 
L 55.238246 99.927772 
L 56.336713 101.775342 
L 57.519631 103.622912 
L 58.753685 105.470481 
L 59.999422 107.318051 
L 61.214722 109.165621 
L 62.358371 111.01319 
L 63.39316 112.86076 
L 64.28808 114.70833 
L 65.019461 116.555899 
L 65.571263 118.403469 
L 65.934917 120.251039 
L 66.109091 122.098608 
L 66.09954 123.946178 
L 65.918874 125.793748 
L 65.585879 127.641317 
L 65.124038 129.488887 
L 64.559168 131.336457 
L 63.916504 133.184026 
L 63.217853 135.031596 
L 62.47958 136.879166 
L 61.711977 138.726735 
L 60.920172 140.574305 
L 60.106245 142.421875 
L 59.271887 144.269444 
L 58.42079 146.117014 
L 57.560111 147.964584 
L 56.700678 149.812153 
L 55.855983 151.659723 
L 55.040335 153.507293 
L 54.266693 155.354862 
L 53.544717 157.202432 
L 52.879457 159.050002 
L 52.270935 160.897571 
L 51.714662 162.745141 
L 51.202957 164.592711 
L 50.726786 166.44028 
L 50.277697 168.28785 
L 49.849448 170.13542 
L 49.438948 171.982989 
L 49.046384 173.830559 
L 48.674568 175.678129 
L 48.327785 177.525698 
L 48.010507 179.373268 
L 47.726318 181.220838 
L 47.477267 183.068407 
L 47.263698 184.915977 
L 47.084468 186.763547 
L 46.937365 188.611116 
L 46.81958 190.458686 
L 46.728099 192.306256 
L 46.659983 194.153825 
L 46.612515 196.001395 
L 46.583256 197.848965 
L 46.569997 199.696534 
L 46.570646 201.544104 
L 46.583053 203.391674 
L 46.60482 205.239243 
L 46.633162 207.086813 
L 46.664894 208.934383 
L 46.696608 210.781952 
L 46.725026 212.629522 
L 46.747488 214.477092 
L 46.762429 216.324661 
L 46.769691 218.172231 
L 46.770544 220.019801 
L 46.767351 221.86737 
L 46.762945 223.71494 
L 46.75986 225.56251 
L 46.75963 227.410079 
L 46.762364 229.257649 
L 46.76671 231.105219 
L 46.770234 232.952788 
L 46.770085 234.800358 
L 46.763756 236.647928 
L 46.763756 236.647928 
z
" clip-path="url(#pfef013d512)" style="fill: none; stroke: #000000; stroke-opacity: 0.3"/>
   </g>
   <g id="FillBetweenPolyCollection_3">
    <path d="M 51.276621 160.92195 
L 41.668834 160.92195 
L 41.076355 159.68102 
L 40.457316 158.440091 
L 39.815746 157.199162 
L 39.156457 155.958233 
L 38.485089 154.717304 
L 37.808049 153.476374 
L 37.132277 152.235445 
L 36.46486 150.994516 
L 35.812497 149.753587 
L 35.180895 148.512657 
L 34.574178 147.271728 
L 33.994403 146.030799 
L 33.441305 144.78987 
L 32.912323 143.548941 
L 32.402953 142.308011 
L 31.907414 141.067082 
L 31.419559 139.826153 
L 30.933936 138.585224 
L 30.446849 137.344294 
L 29.957295 136.103365 
L 29.467637 134.862436 
L 28.983918 133.621507 
L 28.515769 132.380578 
L 28.075907 131.139648 
L 27.679275 129.898719 
L 27.34192 128.65779 
L 27.079742 127.416861 
L 26.907235 126.175932 
L 26.836364 124.935002 
L 26.875671 123.694073 
L 27.029696 122.453144 
L 27.298727 121.212215 
L 27.678877 119.971285 
L 28.162448 118.730356 
L 28.738511 117.489427 
L 29.393625 116.248498 
L 30.112626 115.007569 
L 30.879424 113.766639 
L 31.677756 112.52571 
L 32.491866 111.284781 
L 33.307094 110.043852 
L 34.110359 108.802923 
L 34.890537 107.561993 
L 35.638713 106.321064 
L 36.348319 105.080135 
L 37.015139 103.839206 
L 37.637196 102.598276 
L 38.214523 101.357347 
L 38.748849 100.116418 
L 39.243221 98.875489 
L 39.701606 97.63456 
L 40.128502 96.39363 
L 40.528584 95.152701 
L 40.906416 93.911772 
L 41.266227 92.670843 
L 41.611742 91.429913 
L 41.946078 90.188984 
L 42.271679 88.948055 
L 42.590273 87.707126 
L 42.902862 86.466197 
L 43.209731 85.225267 
L 43.510481 83.984338 
L 43.804096 82.743409 
L 44.08904 81.50248 
L 44.363397 80.261551 
L 44.625024 79.020621 
L 44.871738 77.779692 
L 45.101495 76.538763 
L 45.312553 75.297834 
L 45.50361 74.056904 
L 45.673896 72.815975 
L 45.823206 71.575046 
L 45.951898 70.334117 
L 46.060824 69.093188 
L 46.151242 67.852258 
L 46.224691 66.611329 
L 46.282861 65.3704 
L 46.327466 64.129471 
L 46.36013 62.888542 
L 46.382294 61.647612 
L 46.395156 60.406683 
L 46.399644 59.165754 
L 46.396419 57.924825 
L 46.385916 56.683895 
L 46.368407 55.442966 
L 46.344091 54.202037 
L 46.313202 52.961108 
L 46.27611 51.720179 
L 46.233425 50.479249 
L 46.18608 49.23832 
L 46.135373 47.997391 
L 46.082975 46.756462 
L 46.030883 45.515532 
L 45.981329 44.274603 
L 45.936642 43.033674 
L 45.899076 41.792745 
L 45.870636 40.551816 
L 45.852897 39.310886 
L 45.846871 38.069957 
L 47.098584 38.069957 
L 47.098584 38.069957 
L 47.092557 39.310886 
L 47.074819 40.551816 
L 47.046378 41.792745 
L 47.008813 43.033674 
L 46.964125 44.274603 
L 46.914572 45.515532 
L 46.86248 46.756462 
L 46.810081 47.997391 
L 46.759374 49.23832 
L 46.712029 50.479249 
L 46.669345 51.720179 
L 46.632253 52.961108 
L 46.601363 54.202037 
L 46.577048 55.442966 
L 46.559538 56.683895 
L 46.549035 57.924825 
L 46.54581 59.165754 
L 46.550298 60.406683 
L 46.56316 61.647612 
L 46.585324 62.888542 
L 46.617988 64.129471 
L 46.662594 65.3704 
L 46.720764 66.611329 
L 46.794213 67.852258 
L 46.88463 69.093188 
L 46.993557 70.334117 
L 47.122248 71.575046 
L 47.271559 72.815975 
L 47.441844 74.056904 
L 47.632902 75.297834 
L 47.84396 76.538763 
L 48.073716 77.779692 
L 48.320431 79.020621 
L 48.582058 80.261551 
L 48.856414 81.50248 
L 49.141359 82.743409 
L 49.434973 83.984338 
L 49.735723 85.225267 
L 50.042592 86.466197 
L 50.355181 87.707126 
L 50.673775 88.948055 
L 50.999376 90.188984 
L 51.333713 91.429913 
L 51.679228 92.670843 
L 52.039038 93.911772 
L 52.416871 95.152701 
L 52.816953 96.39363 
L 53.243848 97.63456 
L 53.702234 98.875489 
L 54.196606 100.116418 
L 54.730932 101.357347 
L 55.308259 102.598276 
L 55.930315 103.839206 
L 56.597135 105.080135 
L 57.306741 106.321064 
L 58.054917 107.561993 
L 58.835095 108.802923 
L 59.638361 110.043852 
L 60.453589 111.284781 
L 61.267699 112.52571 
L 62.066031 113.766639 
L 62.832829 115.007569 
L 63.551829 116.248498 
L 64.206943 117.489427 
L 64.783006 118.730356 
L 65.266578 119.971285 
L 65.646728 121.212215 
L 65.915758 122.453144 
L 66.069784 123.694073 
L 66.109091 124.935002 
L 66.038219 126.175932 
L 65.865713 127.416861 
L 65.603534 128.65779 
L 65.26618 129.898719 
L 64.869547 131.139648 
L 64.429686 132.380578 
L 63.961537 133.621507 
L 63.477818 134.862436 
L 62.988159 136.103365 
L 62.498606 137.344294 
L 62.011519 138.585224 
L 61.525895 139.826153 
L 61.038041 141.067082 
L 60.542502 142.308011 
L 60.033132 143.548941 
L 59.50415 144.78987 
L 58.951052 146.030799 
L 58.371277 147.271728 
L 57.764559 148.512657 
L 57.132958 149.753587 
L 56.480595 150.994516 
L 55.813177 152.235445 
L 55.137406 153.476374 
L 54.460365 154.717304 
L 53.788998 155.958233 
L 53.129708 157.199162 
L 52.488139 158.440091 
L 51.8691 159.68102 
L 51.276621 160.92195 
L 51.276621 160.92195 
z
" clip-path="url(#pfef013d512)" style="fill: none; stroke: #000000; stroke-opacity: 0.3"/>
   </g>
   <g id="FillBetweenPolyCollection_4">
    <path d="M 46.696801 209.587117 
L 46.248653 209.587117 
L 46.248491 207.728848 
L 46.255678 205.870579 
L 46.265915 204.01231 
L 46.273931 202.154041 
L 46.274792 200.295771 
L 46.265117 198.437502 
L 46.243884 196.579233 
L 46.212578 194.720964 
L 46.174691 192.862695 
L 46.134685 191.004426 
L 46.096699 189.146157 
L 46.063254 187.287887 
L 46.034262 185.429618 
L 46.00654 183.571349 
L 45.973988 181.71308 
L 45.928447 179.854811 
L 45.861115 177.996542 
L 45.764186 176.138272 
L 45.632236 174.280003 
L 45.462832 172.421734 
L 45.256035 170.563465 
L 45.012848 168.705196 
L 44.733103 166.846927 
L 44.413677 164.988658 
L 44.047939 163.130388 
L 43.627011 161.272119 
L 43.142675 159.41385 
L 42.591035 157.555581 
L 41.975456 155.697312 
L 41.307473 153.839043 
L 40.604996 151.980773 
L 39.888266 150.122504 
L 39.174884 148.264235 
L 38.475541 146.405966 
L 37.79168 144.547697 
L 37.115402 142.689428 
L 36.431231 140.831159 
L 35.718984 138.972889 
L 34.957279 137.11462 
L 34.12755 135.256351 
L 33.218642 133.398082 
L 32.231759 131.539813 
L 31.185023 129.681544 
L 30.116406 127.823274 
L 29.083707 125.965005 
L 28.160645 124.106736 
L 27.428868 122.248467 
L 26.966692 120.390198 
L 26.836364 118.531929 
L 27.072451 116.67366 
L 27.67422 114.81539 
L 28.604253 112.957121 
L 29.794134 111.098852 
L 31.155992 109.240583 
L 32.597018 107.382314 
L 34.033264 105.524045 
L 35.399584 103.665775 
L 36.654113 101.807506 
L 37.777511 99.949237 
L 38.768569 98.090968 
L 39.638301 96.232699 
L 40.40426 94.37443 
L 41.086073 92.516161 
L 41.702317 90.657891 
L 42.268415 88.799622 
L 42.795175 86.941353 
L 43.287859 85.083084 
L 43.746028 83.224815 
L 44.164478 81.366546 
L 44.535397 79.508276 
L 44.851367 77.650007 
L 45.108391 75.791738 
L 45.307943 73.933469 
L 45.457298 72.0752 
L 45.568021 70.216931 
L 45.653142 68.358662 
L 45.724018 66.500392 
L 45.78795 64.642123 
L 45.847294 62.783854 
L 45.900249 60.925585 
L 45.942934 59.067316 
L 45.971973 57.209047 
L 45.986665 55.350777 
L 45.990016 53.492508 
L 45.988291 51.634239 
L 45.989292 49.77597 
L 45.99999 47.917701 
L 46.024383 46.059432 
L 46.062309 44.201163 
L 46.109591 42.342893 
L 46.159392 40.484624 
L 46.204271 38.626355 
L 46.238246 36.768086 
L 46.258283 34.909817 
L 46.264861 33.051548 
L 46.26158 31.193278 
L 46.253997 29.335009 
L 46.248087 27.47674 
L 46.248741 25.618471 
L 46.696713 25.618471 
L 46.696713 25.618471 
L 46.697368 27.47674 
L 46.691458 29.335009 
L 46.683875 31.193278 
L 46.680593 33.051548 
L 46.687172 34.909817 
L 46.707208 36.768086 
L 46.741183 38.626355 
L 46.786062 40.484624 
L 46.835864 42.342893 
L 46.883145 44.201163 
L 46.921071 46.059432 
L 46.945465 47.917701 
L 46.956163 49.77597 
L 46.957163 51.634239 
L 46.955439 53.492508 
L 46.95879 55.350777 
L 46.973482 57.209047 
L 47.00252 59.067316 
L 47.045205 60.925585 
L 47.09816 62.783854 
L 47.157505 64.642123 
L 47.221437 66.500392 
L 47.292312 68.358662 
L 47.377433 70.216931 
L 47.488157 72.0752 
L 47.637512 73.933469 
L 47.837063 75.791738 
L 48.094088 77.650007 
L 48.410058 79.508276 
L 48.780976 81.366546 
L 49.199426 83.224815 
L 49.657596 85.083084 
L 50.15028 86.941353 
L 50.677039 88.799622 
L 51.243138 90.657891 
L 51.859382 92.516161 
L 52.541195 94.37443 
L 53.307154 96.232699 
L 54.176885 98.090968 
L 55.167944 99.949237 
L 56.291341 101.807506 
L 57.54587 103.665775 
L 58.91219 105.524045 
L 60.348436 107.382314 
L 61.789462 109.240583 
L 63.151321 111.098852 
L 64.341202 112.957121 
L 65.271235 114.81539 
L 65.873003 116.67366 
L 66.109091 118.531929 
L 65.978762 120.390198 
L 65.516586 122.248467 
L 64.784809 124.106736 
L 63.861747 125.965005 
L 62.829049 127.823274 
L 61.760431 129.681544 
L 60.713696 131.539813 
L 59.726813 133.398082 
L 58.817904 135.256351 
L 57.988176 137.11462 
L 57.226471 138.972889 
L 56.514224 140.831159 
L 55.830052 142.689428 
L 55.153775 144.547697 
L 54.469913 146.405966 
L 53.770571 148.264235 
L 53.057188 150.122504 
L 52.340459 151.980773 
L 51.637982 153.839043 
L 50.969998 155.697312 
L 50.35442 157.555581 
L 49.802779 159.41385 
L 49.318444 161.272119 
L 48.897515 163.130388 
L 48.531778 164.988658 
L 48.212352 166.846927 
L 47.932607 168.705196 
L 47.689419 170.563465 
L 47.482623 172.421734 
L 47.313218 174.280003 
L 47.181269 176.138272 
L 47.08434 177.996542 
L 47.017007 179.854811 
L 46.971466 181.71308 
L 46.938914 183.571349 
L 46.911193 185.429618 
L 46.8822 187.287887 
L 46.848755 189.146157 
L 46.810769 191.004426 
L 46.770764 192.862695 
L 46.732876 194.720964 
L 46.701571 196.579233 
L 46.680337 198.437502 
L 46.670663 200.295771 
L 46.671523 202.154041 
L 46.67954 204.01231 
L 46.689777 205.870579 
L 46.696964 207.728848 
L 46.696801 209.587117 
L 46.696801 209.587117 
z
" clip-path="url(#pfef013d512)" style="fill: none; stroke: #000000; stroke-opacity: 0.3"/>
   </g>
   <g id="FillBetweenPolyCollection_5">
    <path d="M 113.205251 169.79796 
L 110.649294 169.79796 
L 110.53264 168.748095 
L 110.410098 167.698231 
L 110.279738 166.648366 
L 110.139185 165.598501 
L 109.98575 164.548636 
L 109.816606 163.498771 
L 109.628989 162.448907 
L 109.420418 161.399042 
L 109.188883 160.349177 
L 108.933004 159.299312 
L 108.652122 158.249447 
L 108.346306 157.199583 
L 108.016283 156.149718 
L 107.663275 155.099853 
L 107.288771 154.049988 
L 106.894263 153.000123 
L 106.480969 151.950259 
L 106.049589 150.900394 
L 105.600131 149.850529 
L 105.131845 148.800664 
L 104.643273 147.7508 
L 104.132439 146.700935 
L 103.597149 145.65107 
L 103.035402 144.601205 
L 102.445842 143.55134 
L 101.828218 142.501476 
L 101.183796 141.451611 
L 100.515656 140.401746 
L 99.828846 139.351881 
L 99.130349 138.302016 
L 98.428855 137.252152 
L 97.734345 136.202287 
L 97.05753 135.152422 
L 96.409164 134.102557 
L 95.799328 133.052692 
L 95.23673 132.002828 
L 94.728102 130.952963 
L 94.277759 129.903098 
L 93.887362 128.853233 
L 93.55592 127.803368 
L 93.280031 126.753504 
L 93.054336 125.703639 
L 92.872154 124.653774 
L 92.726213 123.603909 
L 92.609411 122.554044 
L 92.515529 121.50418 
L 92.439811 120.454315 
L 92.379366 119.40445 
L 92.333346 118.354585 
L 92.302897 117.30472 
L 92.290909 116.254856 
L 92.301598 115.204991 
L 92.339988 114.155126 
L 92.411366 113.105261 
L 92.520769 112.055396 
L 92.672562 111.005532 
L 92.870148 109.955667 
L 93.115823 108.905802 
L 93.410759 107.855937 
L 93.755102 106.806073 
L 94.148132 105.756208 
L 94.58844 104.706343 
L 95.074094 103.656478 
L 95.602742 102.606613 
L 96.171655 101.556749 
L 96.777695 100.506884 
L 97.417241 99.457019 
L 98.086091 98.407154 
L 98.779368 97.357289 
L 99.491482 96.307425 
L 100.216156 95.25756 
L 100.946529 94.207695 
L 101.675343 93.15783 
L 102.395201 92.107965 
L 103.098853 91.058101 
L 103.779504 90.008236 
L 104.431087 88.958371 
L 105.048488 87.908506 
L 105.627703 86.858641 
L 106.165904 85.808777 
L 106.661432 84.758912 
L 107.113721 83.709047 
L 107.523172 82.659182 
L 107.891006 81.609317 
L 108.219102 80.559453 
L 108.509865 79.509588 
L 108.766099 78.459723 
L 108.990925 77.409858 
L 109.187706 76.359993 
L 109.36 75.310129 
L 109.511506 74.260264 
L 109.646 73.210399 
L 109.767254 72.160534 
L 109.878935 71.11067 
L 109.984477 70.060805 
L 110.086952 69.01094 
L 110.188939 67.961075 
L 110.29241 66.91121 
L 110.398651 65.861346 
L 113.455894 65.861346 
L 113.455894 65.861346 
L 113.562136 66.91121 
L 113.665606 67.961075 
L 113.767593 69.01094 
L 113.870069 70.060805 
L 113.975611 71.11067 
L 114.087291 72.160534 
L 114.208545 73.210399 
L 114.343039 74.260264 
L 114.494545 75.310129 
L 114.66684 76.359993 
L 114.863621 77.409858 
L 115.088446 78.459723 
L 115.34468 79.509588 
L 115.635443 80.559453 
L 115.96354 81.609317 
L 116.331373 82.659182 
L 116.740825 83.709047 
L 117.193114 84.758912 
L 117.688642 85.808777 
L 118.226842 86.858641 
L 118.806057 87.908506 
L 119.423459 88.958371 
L 120.075041 90.008236 
L 120.755692 91.058101 
L 121.459345 92.107965 
L 122.179202 93.15783 
L 122.908017 94.207695 
L 123.638389 95.25756 
L 124.363063 96.307425 
L 125.075178 97.357289 
L 125.768455 98.407154 
L 126.437304 99.457019 
L 127.076851 100.506884 
L 127.682891 101.556749 
L 128.251803 102.606613 
L 128.780452 103.656478 
L 129.266105 104.706343 
L 129.706414 105.756208 
L 130.099443 106.806073 
L 130.443787 107.855937 
L 130.738723 108.905802 
L 130.984398 109.955667 
L 131.181984 111.005532 
L 131.333776 112.055396 
L 131.443179 113.105261 
L 131.514558 114.155126 
L 131.552948 115.204991 
L 131.563636 116.254856 
L 131.551648 117.30472 
L 131.5212 118.354585 
L 131.475179 119.40445 
L 131.414734 120.454315 
L 131.339017 121.50418 
L 131.245134 122.554044 
L 131.128332 123.603909 
L 130.982391 124.653774 
L 130.800209 125.703639 
L 130.574515 126.753504 
L 130.298625 127.803368 
L 129.967183 128.853233 
L 129.576786 129.903098 
L 129.126443 130.952963 
L 128.617816 132.002828 
L 128.055218 133.052692 
L 127.445382 134.102557 
L 126.797016 135.152422 
L 126.1202 136.202287 
L 125.425691 137.252152 
L 124.724196 138.302016 
L 124.025699 139.351881 
L 123.33889 140.401746 
L 122.67075 141.451611 
L 122.026328 142.501476 
L 121.408704 143.55134 
L 120.819143 144.601205 
L 120.257396 145.65107 
L 119.722107 146.700935 
L 119.211272 147.7508 
L 118.722701 148.800664 
L 118.254415 149.850529 
L 117.804957 150.900394 
L 117.373576 151.950259 
L 116.960282 153.000123 
L 116.565775 154.049988 
L 116.191271 155.099853 
L 115.838262 156.149718 
L 115.508239 157.199583 
L 115.202424 158.249447 
L 114.921541 159.299312 
L 114.665663 160.349177 
L 114.434128 161.399042 
L 114.225556 162.448907 
L 114.03794 163.498771 
L 113.868795 164.548636 
L 113.71536 165.598501 
L 113.574808 166.648366 
L 113.444448 167.698231 
L 113.321905 168.748095 
L 113.205251 169.79796 
L 113.205251 169.79796 
z
" clip-path="url(#pfef013d512)" style="fill: none; stroke: #000000; stroke-opacity: 0.3"/>
   </g>
   <g id="FillBetweenPolyCollection_6">
    <path d="M 114.648428 166.175002 
L 109.206117 166.175002 
L 108.913212 165.187568 
L 108.603938 164.200135 
L 108.27915 163.212701 
L 107.939822 162.225267 
L 107.586968 161.237834 
L 107.221541 160.2504 
L 106.844318 159.262966 
L 106.455787 158.275533 
L 106.056038 157.288099 
L 105.644674 156.300665 
L 105.220766 155.313232 
L 104.782851 154.325798 
L 104.328991 153.338365 
L 103.856896 152.350931 
L 103.364102 151.363497 
L 102.848214 150.376064 
L 102.307181 149.38863 
L 101.739598 148.401196 
L 101.145005 147.413763 
L 100.524156 146.426329 
L 99.879244 145.438895 
L 99.214042 144.451462 
L 98.533956 143.464028 
L 97.845976 142.476595 
L 97.158502 141.489161 
L 96.481084 140.501727 
L 95.824053 139.514294 
L 95.198081 138.52686 
L 94.6137 137.539426 
L 94.080791 136.551993 
L 93.608102 135.564559 
L 93.202798 134.577125 
L 92.870107 133.589692 
L 92.61305 132.602258 
L 92.432312 131.614825 
L 92.326226 130.627391 
L 92.290909 129.639957 
L 92.320513 128.652524 
L 92.407588 127.66509 
L 92.543532 126.677656 
L 92.719103 125.690223 
L 92.924938 124.702789 
L 93.152083 123.715355 
L 93.392455 122.727922 
L 93.639248 121.740488 
L 93.887232 120.753055 
L 94.13294 119.765621 
L 94.374739 118.778187 
L 94.61277 117.790754 
L 94.848789 116.80332 
L 95.085911 115.815886 
L 95.328277 114.828453 
L 95.580676 113.841019 
L 95.848154 112.853585 
L 96.135622 111.866152 
L 96.447496 110.878718 
L 96.787387 109.891284 
L 97.157865 108.903851 
L 97.560284 107.916417 
L 97.994697 106.928984 
L 98.459848 105.94155 
L 98.953233 104.954116 
L 99.471228 103.966683 
L 100.00927 102.979249 
L 100.562073 101.991815 
L 101.123869 101.004382 
L 101.688661 100.016948 
L 102.250469 99.029514 
L 102.803563 98.042081 
L 103.342667 97.054647 
L 103.863131 96.067214 
L 104.361058 95.07978 
L 104.833391 94.092346 
L 105.277952 93.104913 
L 105.693438 92.117479 
L 106.07938 91.130045 
L 106.436057 90.142612 
L 106.764402 89.155178 
L 107.065869 88.167744 
L 107.342306 87.180311 
L 107.595825 86.192877 
L 107.828673 85.205444 
L 108.043127 84.21801 
L 108.241406 83.230576 
L 108.425598 82.243143 
L 108.597625 81.255709 
L 108.759214 80.268275 
L 108.911894 79.280842 
L 109.057012 78.293408 
L 109.195742 77.305974 
L 109.329118 76.318541 
L 109.458047 75.331107 
L 109.583331 74.343674 
L 109.705674 73.35624 
L 109.825688 72.368806 
L 109.943886 71.381373 
L 110.06067 70.393939 
L 110.176322 69.406505 
L 110.290989 68.419072 
L 113.563556 68.419072 
L 113.563556 68.419072 
L 113.678223 69.406505 
L 113.793876 70.393939 
L 113.91066 71.381373 
L 114.028857 72.368806 
L 114.148871 73.35624 
L 114.271215 74.343674 
L 114.396498 75.331107 
L 114.525427 76.318541 
L 114.658803 77.305974 
L 114.797534 78.293408 
L 114.942651 79.280842 
L 115.095332 80.268275 
L 115.25692 81.255709 
L 115.428947 82.243143 
L 115.61314 83.230576 
L 115.811418 84.21801 
L 116.025873 85.205444 
L 116.258721 86.192877 
L 116.512239 87.180311 
L 116.788677 88.167744 
L 117.090143 89.155178 
L 117.418488 90.142612 
L 117.775166 91.130045 
L 118.161107 92.117479 
L 118.576594 93.104913 
L 119.021154 94.092346 
L 119.493487 95.07978 
L 119.991414 96.067214 
L 120.511878 97.054647 
L 121.050982 98.042081 
L 121.604077 99.029514 
L 122.165885 100.016948 
L 122.730676 101.004382 
L 123.292472 101.991815 
L 123.845275 102.979249 
L 124.383317 103.966683 
L 124.901313 104.954116 
L 125.394697 105.94155 
L 125.859848 106.928984 
L 126.294261 107.916417 
L 126.69668 108.903851 
L 127.067158 109.891284 
L 127.40705 110.878718 
L 127.718923 111.866152 
L 128.006391 112.853585 
L 128.27387 113.841019 
L 128.526269 114.828453 
L 128.768634 115.815886 
L 129.005756 116.80332 
L 129.241776 117.790754 
L 129.479807 118.778187 
L 129.721605 119.765621 
L 129.967314 120.753055 
L 130.215298 121.740488 
L 130.462091 122.727922 
L 130.702463 123.715355 
L 130.929607 124.702789 
L 131.135443 125.690223 
L 131.311013 126.677656 
L 131.446958 127.66509 
L 131.534032 128.652524 
L 131.563636 129.639957 
L 131.52832 130.627391 
L 131.422234 131.614825 
L 131.241495 132.602258 
L 130.984439 133.589692 
L 130.651747 134.577125 
L 130.246444 135.564559 
L 129.773754 136.551993 
L 129.240846 137.539426 
L 128.656464 138.52686 
L 128.030493 139.514294 
L 127.373461 140.501727 
L 126.696043 141.489161 
L 126.00857 142.476595 
L 125.320589 143.464028 
L 124.640504 144.451462 
L 123.975302 145.438895 
L 123.330389 146.426329 
L 122.70954 147.413763 
L 122.114947 148.401196 
L 121.547365 149.38863 
L 121.006332 150.376064 
L 120.490444 151.363497 
L 119.99765 152.350931 
L 119.525554 153.338365 
L 119.071695 154.325798 
L 118.63378 155.313232 
L 118.209872 156.300665 
L 117.798508 157.288099 
L 117.398758 158.275533 
L 117.010228 159.262966 
L 116.633005 160.2504 
L 116.267577 161.237834 
L 115.914723 162.225267 
L 115.575395 163.212701 
L 115.250608 164.200135 
L 114.941334 165.187568 
L 114.648428 166.175002 
L 114.648428 166.175002 
z
" clip-path="url(#pfef013d512)" style="fill: none; stroke: #000000; stroke-opacity: 0.3"/>
   </g>
   <g id="FillBetweenPolyCollection_7">
    <path d="M 112.332851 181.973954 
L 111.521695 181.973954 
L 111.518736 180.743904 
L 111.521489 179.513854 
L 111.527285 178.283804 
L 111.532496 177.053754 
L 111.532743 175.823704 
L 111.523179 174.593654 
L 111.498818 173.363604 
L 111.454871 172.133554 
L 111.387061 170.903504 
L 111.291885 169.673454 
L 111.166805 168.443405 
L 111.010337 167.213355 
L 110.822043 165.983305 
L 110.602404 164.753255 
L 110.352597 163.523205 
L 110.074194 162.293155 
L 109.768822 161.063105 
L 109.437823 159.833055 
L 109.081973 158.603005 
L 108.701296 157.372955 
L 108.295023 156.142905 
L 107.861693 154.912855 
L 107.399411 153.682805 
L 106.906211 152.452755 
L 106.38049 151.222705 
L 105.821438 149.992656 
L 105.229385 148.762606 
L 104.606005 147.532556 
L 103.954332 146.302506 
L 103.278553 145.072456 
L 102.58363 143.842406 
L 101.87479 142.612356 
L 101.156994 141.382306 
L 100.434501 140.152256 
L 99.710626 138.922206 
L 98.987768 137.692156 
L 98.267742 136.462106 
L 97.552379 135.232056 
L 96.8443 134.002006 
L 96.147732 132.771956 
L 95.469231 131.541907 
L 94.818153 130.311857 
L 94.20679 129.081807 
L 93.65011 127.851757 
L 93.165096 126.621707 
L 92.769758 125.391657 
L 92.481904 124.161607 
L 92.317807 122.931557 
L 92.290909 121.701507 
L 92.4107 120.471457 
L 92.681897 119.241407 
L 93.104 118.011357 
L 93.671262 116.781307 
L 94.373048 115.551257 
L 95.194504 114.321207 
L 96.117427 113.091157 
L 97.121208 111.861108 
L 98.183731 110.631058 
L 99.282173 109.401008 
L 100.393669 108.170958 
L 101.495893 106.940908 
L 102.567598 105.710858 
L 103.589179 104.480808 
L 104.543293 103.250758 
L 105.415506 102.020708 
L 106.194915 100.790658 
L 106.874638 99.560608 
L 107.452084 98.330558 
L 107.928925 97.100508 
L 108.310744 95.870458 
L 108.606406 94.640408 
L 108.827226 93.410359 
L 108.98604 92.180309 
L 109.096299 90.950259 
L 109.171267 89.720209 
L 109.223378 88.490159 
L 109.263762 87.260109 
L 109.301922 86.030059 
L 109.345541 84.800009 
L 109.400364 83.569959 
L 109.470145 82.339909 
L 109.55666 81.109859 
L 109.659768 79.879809 
L 109.777566 78.649759 
L 109.906641 77.419709 
L 110.042427 76.189659 
L 110.179663 74.95961 
L 110.312938 73.72956 
L 110.437257 72.49951 
L 110.548583 71.26946 
L 110.644289 70.03941 
L 110.723443 68.80936 
L 110.786899 67.57931 
L 110.83715 66.34926 
L 110.87797 65.11921 
L 110.913888 63.88916 
L 110.949566 62.65911 
L 110.989183 61.42906 
L 111.03591 60.19901 
L 112.818635 60.19901 
L 112.818635 60.19901 
L 112.865362 61.42906 
L 112.90498 62.65911 
L 112.940658 63.88916 
L 112.976575 65.11921 
L 113.017395 66.34926 
L 113.067646 67.57931 
L 113.131102 68.80936 
L 113.210257 70.03941 
L 113.305962 71.26946 
L 113.417288 72.49951 
L 113.541607 73.72956 
L 113.674883 74.95961 
L 113.812119 76.189659 
L 113.947904 77.419709 
L 114.076979 78.649759 
L 114.194778 79.879809 
L 114.297885 81.109859 
L 114.3844 82.339909 
L 114.454182 83.569959 
L 114.509004 84.800009 
L 114.552623 86.030059 
L 114.590784 87.260109 
L 114.631167 88.490159 
L 114.683278 89.720209 
L 114.758247 90.950259 
L 114.868505 92.180309 
L 115.027319 93.410359 
L 115.248139 94.640408 
L 115.543801 95.870458 
L 115.92562 97.100508 
L 116.402461 98.330558 
L 116.979908 99.560608 
L 117.659631 100.790658 
L 118.439039 102.020708 
L 119.311252 103.250758 
L 120.265366 104.480808 
L 121.286947 105.710858 
L 122.358652 106.940908 
L 123.460876 108.170958 
L 124.572372 109.401008 
L 125.670814 110.631058 
L 126.733337 111.861108 
L 127.737118 113.091157 
L 128.660042 114.321207 
L 129.481498 115.551257 
L 130.183284 116.781307 
L 130.750546 118.011357 
L 131.172648 119.241407 
L 131.443845 120.471457 
L 131.563636 121.701507 
L 131.536738 122.931557 
L 131.372642 124.161607 
L 131.084788 125.391657 
L 130.68945 126.621707 
L 130.204435 127.851757 
L 129.647755 129.081807 
L 129.036392 130.311857 
L 128.385314 131.541907 
L 127.706813 132.771956 
L 127.010246 134.002006 
L 126.302166 135.232056 
L 125.586804 136.462106 
L 124.866778 137.692156 
L 124.143919 138.922206 
L 123.420044 140.152256 
L 122.697552 141.382306 
L 121.979756 142.612356 
L 121.270915 143.842406 
L 120.575992 145.072456 
L 119.900213 146.302506 
L 119.24854 147.532556 
L 118.625161 148.762606 
L 118.033107 149.992656 
L 117.474055 151.222705 
L 116.948334 152.452755 
L 116.455134 153.682805 
L 115.992852 154.912855 
L 115.559523 156.142905 
L 115.15325 157.372955 
L 114.772573 158.603005 
L 114.416722 159.833055 
L 114.085723 161.063105 
L 113.780352 162.293155 
L 113.501949 163.523205 
L 113.252142 164.753255 
L 113.032502 165.983305 
L 112.844209 167.213355 
L 112.687741 168.443405 
L 112.56266 169.673454 
L 112.467484 170.903504 
L 112.399674 172.133554 
L 112.355727 173.363604 
L 112.331367 174.593654 
L 112.321803 175.823704 
L 112.322049 177.053754 
L 112.32726 178.283804 
L 112.333057 179.513854 
L 112.335809 180.743904 
L 112.332851 181.973954 
L 112.332851 181.973954 
z
" clip-path="url(#pfef013d512)" style="fill: none; stroke: #000000; stroke-opacity: 0.3"/>
   </g>
   <g id="FillBetweenPolyCollection_8">
    <path d="M 113.661328 172.758922 
L 110.193218 172.758922 
L 110.063377 171.895707 
L 109.920948 171.032492 
L 109.763408 170.169278 
L 109.588099 169.306063 
L 109.392325 168.442849 
L 109.173454 167.579634 
L 108.929027 166.716419 
L 108.656871 165.853205 
L 108.355197 164.98999 
L 108.022696 164.126776 
L 107.658608 163.263561 
L 107.262775 162.400346 
L 106.835666 161.537132 
L 106.378375 160.673917 
L 105.89259 159.810703 
L 105.38054 158.947488 
L 104.844916 158.084273 
L 104.288781 157.221059 
L 103.71546 156.357844 
L 103.128435 155.49463 
L 102.53124 154.631415 
L 101.927362 153.7682 
L 101.320169 152.904986 
L 100.712845 152.041771 
L 100.108365 151.178557 
L 99.509479 150.315342 
L 98.918735 149.452127 
L 98.338511 148.588913 
L 97.771068 147.725698 
L 97.218612 146.862484 
L 96.683354 145.999269 
L 96.167565 145.136054 
L 95.673617 144.27284 
L 95.203996 143.409625 
L 94.761298 142.546411 
L 94.34819 141.683196 
L 93.967339 140.819981 
L 93.621325 139.956767 
L 93.312518 139.093552 
L 93.042957 138.230338 
L 92.814212 137.367123 
L 92.627259 136.503908 
L 92.482376 135.640694 
L 92.379052 134.777479 
L 92.315952 133.914265 
L 92.290909 133.05105 
L 92.300968 132.187835 
L 92.342476 131.324621 
L 92.411219 130.461406 
L 92.502592 129.598192 
L 92.611797 128.734977 
L 92.734066 127.871762 
L 92.864883 127.008548 
L 93.000201 126.145333 
L 93.136634 125.282119 
L 93.271624 124.418904 
L 93.403558 123.55569 
L 93.531839 122.692475 
L 93.6569 121.82926 
L 93.78016 120.966046 
L 93.903933 120.102831 
L 94.031278 119.239617 
L 94.165813 118.376402 
L 94.3115 117.513187 
L 94.472401 116.649973 
L 94.652444 115.786758 
L 94.855181 114.923544 
L 95.08358 114.060329 
L 95.339843 113.197114 
L 95.625267 112.3339 
L 95.940163 111.470685 
L 96.283822 110.607471 
L 96.654545 109.744256 
L 97.049721 108.881041 
L 97.46596 108.017827 
L 97.899265 107.154612 
L 98.345231 106.291398 
L 98.799269 105.428183 
L 99.256831 104.564968 
L 99.71362 103.701754 
L 100.16579 102.838539 
L 100.610103 101.975325 
L 101.044051 101.11211 
L 101.465927 100.248895 
L 101.874848 99.385681 
L 102.270727 98.522466 
L 102.654201 97.659252 
L 103.026519 96.796037 
L 103.389395 95.932822 
L 103.744851 95.069608 
L 104.09504 94.206393 
L 104.442078 93.343179 
L 104.787888 92.479964 
L 105.134058 91.616749 
L 105.48174 90.753535 
L 105.831574 89.89032 
L 106.183648 89.027106 
L 106.537498 88.163891 
L 106.892138 87.300676 
L 116.962407 87.300676 
L 116.962407 87.300676 
L 117.317047 88.163891 
L 117.670897 89.027106 
L 118.022971 89.89032 
L 118.372805 90.753535 
L 118.720488 91.616749 
L 119.066658 92.479964 
L 119.412467 93.343179 
L 119.759506 94.206393 
L 120.109695 95.069608 
L 120.465151 95.932822 
L 120.828027 96.796037 
L 121.200344 97.659252 
L 121.583818 98.522466 
L 121.979698 99.385681 
L 122.388618 100.248895 
L 122.810494 101.11211 
L 123.244442 101.975325 
L 123.688755 102.838539 
L 124.140925 103.701754 
L 124.597714 104.564968 
L 125.055276 105.428183 
L 125.509315 106.291398 
L 125.955281 107.154612 
L 126.388585 108.017827 
L 126.804824 108.881041 
L 127.2 109.744256 
L 127.570723 110.607471 
L 127.914383 111.470685 
L 128.229279 112.3339 
L 128.514703 113.197114 
L 128.770965 114.060329 
L 128.999365 114.923544 
L 129.202102 115.786758 
L 129.382145 116.649973 
L 129.543046 117.513187 
L 129.688732 118.376402 
L 129.823268 119.239617 
L 129.950613 120.102831 
L 130.074385 120.966046 
L 130.197646 121.82926 
L 130.322706 122.692475 
L 130.450987 123.55569 
L 130.582921 124.418904 
L 130.717911 125.282119 
L 130.854345 126.145333 
L 130.989662 127.008548 
L 131.12048 127.871762 
L 131.242749 128.734977 
L 131.351954 129.598192 
L 131.443326 130.461406 
L 131.51207 131.324621 
L 131.553578 132.187835 
L 131.563636 133.05105 
L 131.538593 133.914265 
L 131.475493 134.777479 
L 131.37217 135.640694 
L 131.227286 136.503908 
L 131.040334 137.367123 
L 130.811589 138.230338 
L 130.542028 139.093552 
L 130.233221 139.956767 
L 129.887206 140.819981 
L 129.506356 141.683196 
L 129.093247 142.546411 
L 128.650549 143.409625 
L 128.180929 144.27284 
L 127.68698 145.136054 
L 127.171192 145.999269 
L 126.635934 146.862484 
L 126.083478 147.725698 
L 125.516035 148.588913 
L 124.93581 149.452127 
L 124.345066 150.315342 
L 123.746181 151.178557 
L 123.1417 152.041771 
L 122.534377 152.904986 
L 121.927183 153.7682 
L 121.323306 154.631415 
L 120.72611 155.49463 
L 120.139085 156.357844 
L 119.565764 157.221059 
L 119.009629 158.084273 
L 118.474006 158.947488 
L 117.961955 159.810703 
L 117.47617 160.673917 
L 117.018879 161.537132 
L 116.59177 162.400346 
L 116.195938 163.263561 
L 115.831849 164.126776 
L 115.499348 164.98999 
L 115.197675 165.853205 
L 114.925518 166.716419 
L 114.681092 167.579634 
L 114.462221 168.442849 
L 114.266447 169.306063 
L 114.091138 170.169278 
L 113.933597 171.032492 
L 113.791169 171.895707 
L 113.661328 172.758922 
L 113.661328 172.758922 
z
" clip-path="url(#pfef013d512)" style="fill: none; stroke: #000000; stroke-opacity: 0.3"/>
   </g>
   <g id="FillBetweenPolyCollection_9">
    <path d="M 115.773177 169.900429 
L 108.081369 169.900429 
L 107.607398 168.117099 
L 107.089599 166.33377 
L 106.525061 164.550441 
L 105.911396 162.767111 
L 105.247095 160.983782 
L 104.531884 159.200453 
L 103.767072 157.417123 
L 102.955854 155.633794 
L 102.103529 153.850465 
L 101.217605 152.067135 
L 100.307772 150.283806 
L 99.385733 148.500477 
L 98.464879 146.717147 
L 97.559841 144.933818 
L 96.685923 143.150489 
L 95.858475 141.367159 
L 95.092223 139.58383 
L 94.400629 137.800501 
L 93.795302 136.017171 
L 93.285524 134.233842 
L 92.877896 132.450513 
L 92.576154 130.667183 
L 92.381136 128.883854 
L 92.290909 127.100525 
L 92.301038 125.317195 
L 92.404967 123.533866 
L 92.594477 121.750537 
L 92.860193 119.967207 
L 93.192097 118.183878 
L 93.580017 116.400549 
L 94.014056 114.617219 
L 94.48496 112.83389 
L 94.984384 111.050561 
L 95.50507 109.267231 
L 96.040932 107.483902 
L 96.587048 105.700573 
L 97.139585 103.917243 
L 97.695654 102.133914 
L 98.253128 100.350585 
L 98.810435 98.567255 
L 99.36634 96.783926 
L 99.919746 95.000597 
L 100.469509 93.217267 
L 101.014306 91.433938 
L 101.552541 89.650608 
L 102.082306 87.867279 
L 102.601403 86.08395 
L 103.107403 84.30062 
L 103.597764 82.517291 
L 104.069964 80.733962 
L 104.521664 78.950632 
L 104.950861 77.167303 
L 105.356034 75.383974 
L 105.736256 73.600644 
L 106.091273 71.817315 
L 106.421531 70.033986 
L 106.728151 68.250656 
L 107.012866 66.467327 
L 107.277913 64.683998 
L 107.525888 62.900668 
L 107.759589 61.117339 
L 107.981851 59.33401 
L 108.195388 57.55068 
L 108.402646 55.767351 
L 108.605688 53.984022 
L 108.806105 52.200692 
L 109.00497 50.417363 
L 109.20281 48.634034 
L 109.39963 46.850704 
L 109.594945 45.067375 
L 109.78785 43.284046 
L 109.977095 41.500716 
L 110.161179 39.717387 
L 110.338439 37.934058 
L 110.507144 36.150728 
L 110.665585 34.367399 
L 110.812147 32.58407 
L 110.94538 30.80074 
L 111.064054 29.017411 
L 111.167201 27.234082 
L 111.254147 25.450752 
L 111.324536 23.667423 
L 111.378341 21.884094 
L 111.415874 20.100764 
L 111.437785 18.317435 
L 111.44506 16.534106 
L 111.439005 14.750776 
L 111.421234 12.967447 
L 111.393637 11.184118 
L 111.35834 9.400788 
L 111.317655 7.617459 
L 111.274016 5.83413 
L 111.229897 4.0508 
L 111.187731 2.267471 
L 111.14981 0.484142 
L 111.123499 -1 
M 112.731046 -1 
L 112.704736 0.484142 
L 112.666815 2.267471 
L 112.624648 4.0508 
L 112.58053 5.83413 
L 112.53689 7.617459 
L 112.496205 9.400788 
L 112.460908 11.184118 
L 112.433311 12.967447 
L 112.41554 14.750776 
L 112.409486 16.534106 
L 112.41676 18.317435 
L 112.438671 20.100764 
L 112.476204 21.884094 
L 112.530009 23.667423 
L 112.600398 25.450752 
L 112.687345 27.234082 
L 112.790492 29.017411 
L 112.909166 30.80074 
L 113.042399 32.58407 
L 113.18896 34.367399 
L 113.347401 36.150728 
L 113.516107 37.934058 
L 113.693366 39.717387 
L 113.87745 41.500716 
L 114.066696 43.284046 
L 114.2596 45.067375 
L 114.454916 46.850704 
L 114.651735 48.634034 
L 114.849576 50.417363 
L 115.04844 52.200692 
L 115.248858 53.984022 
L 115.451899 55.767351 
L 115.659157 57.55068 
L 115.872694 59.33401 
L 116.094957 61.117339 
L 116.328658 62.900668 
L 116.576632 64.683998 
L 116.841679 66.467327 
L 117.126395 68.250656 
L 117.433015 70.033986 
L 117.763272 71.817315 
L 118.118289 73.600644 
L 118.498512 75.383974 
L 118.903684 77.167303 
L 119.332881 78.950632 
L 119.784581 80.733962 
L 120.256782 82.517291 
L 120.747143 84.30062 
L 121.253143 86.08395 
L 121.772239 87.867279 
L 122.302005 89.650608 
L 122.840239 91.433938 
L 123.385036 93.217267 
L 123.9348 95.000597 
L 124.488205 96.783926 
L 125.044111 98.567255 
L 125.601418 100.350585 
L 126.158892 102.133914 
L 126.71496 103.917243 
L 127.267497 105.700573 
L 127.813614 107.483902 
L 128.349475 109.267231 
L 128.870162 111.050561 
L 129.369585 112.83389 
L 129.84049 114.617219 
L 130.274529 116.400549 
L 130.662448 118.183878 
L 130.994352 119.967207 
L 131.260069 121.750537 
L 131.449578 123.533866 
L 131.553507 125.317195 
L 131.563636 127.100525 
L 131.473409 128.883854 
L 131.278391 130.667183 
L 130.976649 132.450513 
L 130.569022 134.233842 
L 130.059243 136.017171 
L 129.453917 137.800501 
L 128.762322 139.58383 
L 127.99607 141.367159 
L 127.168622 143.150489 
L 126.294705 144.933818 
L 125.389666 146.717147 
L 124.468813 148.500477 
L 123.546774 150.283806 
L 122.636941 152.067135 
L 121.751016 153.850465 
L 120.898691 155.633794 
L 120.087474 157.417123 
L 119.322662 159.200453 
L 118.60745 160.983782 
L 117.943149 162.767111 
L 117.329485 164.550441 
L 116.764946 166.33377 
L 116.247148 168.117099 
L 115.773177 169.900429 
L 115.773177 169.900429 
" clip-path="url(#pfef013d512)" style="fill: none; stroke: #000000; stroke-opacity: 0.3"/>
   </g>
   <g id="FillBetweenPolyCollection_10">
    <path d="M 112.612135 205.273671 
L 111.24241 205.273671 
L 111.249654 203.28808 
L 111.272513 201.302489 
L 111.308546 199.316898 
L 111.354023 197.331307 
L 111.404156 195.345716 
L 111.453333 193.360125 
L 111.495344 191.374534 
L 111.523523 189.388943 
L 111.530798 187.403351 
L 111.509659 185.41776 
L 111.452082 183.432169 
L 111.349454 181.446578 
L 111.192594 179.460987 
L 110.971912 177.475396 
L 110.677768 175.489805 
L 110.301041 173.504214 
L 109.833868 171.518623 
L 109.270493 169.533032 
L 108.608095 167.547441 
L 107.847462 165.56185 
L 106.993381 163.576259 
L 106.054642 161.590668 
L 105.043618 159.605077 
L 103.97548 157.619486 
L 102.867163 155.633895 
L 101.736287 153.648303 
L 100.600225 151.662712 
L 99.475527 149.677121 
L 98.377761 147.69153 
L 97.321792 145.705939 
L 96.322354 143.720348 
L 95.394706 141.734757 
L 94.555126 139.749166 
L 93.821024 137.763575 
L 93.210537 135.777984 
L 92.741603 133.792393 
L 92.430621 131.806802 
L 92.290909 129.821211 
L 92.331222 127.83562 
L 92.554568 125.850029 
L 92.957523 123.864438 
L 93.530138 121.878846 
L 94.256432 119.893255 
L 95.11539 117.907664 
L 96.08231 115.922073 
L 97.130322 113.936482 
L 98.231925 111.950891 
L 99.360367 109.9653 
L 100.490803 107.979709 
L 101.60116 105.994118 
L 102.672696 104.008527 
L 103.690285 102.022936 
L 104.642461 100.037345 
L 105.521269 98.051754 
L 106.321977 96.066163 
L 107.042681 94.080572 
L 107.683862 92.094981 
L 108.247903 90.10939 
L 108.738624 88.123798 
L 109.160856 86.138207 
L 109.520074 84.152616 
L 109.822138 82.167025 
L 110.07311 80.181434 
L 110.279174 78.195843 
L 110.446599 76.210252 
L 110.581727 74.224661 
L 110.690926 72.23907 
L 110.780486 70.253479 
L 110.85643 68.267888 
L 110.924267 66.282297 
L 110.988712 64.296706 
L 111.053418 62.311115 
L 111.120792 60.325524 
L 111.191925 58.339933 
L 111.266653 56.354342 
L 111.343761 54.36875 
L 111.421269 52.383159 
L 111.49678 50.397568 
L 111.567805 48.411977 
L 111.632045 46.426386 
L 111.68757 44.440795 
L 111.732908 42.455204 
L 111.767042 40.469613 
L 111.789348 38.484022 
L 111.799507 36.498431 
L 111.797439 34.51284 
L 111.783266 32.527249 
L 111.757348 30.541658 
L 111.720359 28.556067 
L 111.673405 26.570476 
L 111.618146 24.584885 
L 111.556877 22.599293 
L 111.492538 20.613702 
L 111.428623 18.628111 
L 111.368976 16.64252 
L 111.317491 14.656929 
L 111.27775 12.671338 
L 111.252653 10.685747 
L 111.244091 8.700156 
L 112.610455 8.700156 
L 112.610455 8.700156 
L 112.601892 10.685747 
L 112.576795 12.671338 
L 112.537055 14.656929 
L 112.485569 16.64252 
L 112.425922 18.628111 
L 112.362007 20.613702 
L 112.297669 22.599293 
L 112.2364 24.584885 
L 112.181141 26.570476 
L 112.134187 28.556067 
L 112.097197 30.541658 
L 112.071279 32.527249 
L 112.057107 34.51284 
L 112.055038 36.498431 
L 112.065198 38.484022 
L 112.087503 40.469613 
L 112.121638 42.455204 
L 112.166976 44.440795 
L 112.222501 46.426386 
L 112.286741 48.411977 
L 112.357766 50.397568 
L 112.433276 52.383159 
L 112.510785 54.36875 
L 112.587892 56.354342 
L 112.662621 58.339933 
L 112.733753 60.325524 
L 112.801128 62.311115 
L 112.865834 64.296706 
L 112.930278 66.282297 
L 112.998116 68.267888 
L 113.07406 70.253479 
L 113.163619 72.23907 
L 113.272818 74.224661 
L 113.407947 76.210252 
L 113.575372 78.195843 
L 113.781435 80.181434 
L 114.032408 82.167025 
L 114.334471 84.152616 
L 114.69369 86.138207 
L 115.115921 88.123798 
L 115.606643 90.10939 
L 116.170684 92.094981 
L 116.811864 94.080572 
L 117.532569 96.066163 
L 118.333276 98.051754 
L 119.212085 100.037345 
L 120.164261 102.022936 
L 121.18185 104.008527 
L 122.253386 105.994118 
L 123.363742 107.979709 
L 124.494179 109.9653 
L 125.62262 111.950891 
L 126.724223 113.936482 
L 127.772236 115.922073 
L 128.739155 117.907664 
L 129.598113 119.893255 
L 130.324408 121.878846 
L 130.897023 123.864438 
L 131.299978 125.850029 
L 131.523324 127.83562 
L 131.563636 129.821211 
L 131.423925 131.806802 
L 131.112942 133.792393 
L 130.644008 135.777984 
L 130.033521 137.763575 
L 129.299419 139.749166 
L 128.45984 141.734757 
L 127.532191 143.720348 
L 126.532753 145.705939 
L 125.476784 147.69153 
L 124.379018 149.677121 
L 123.25432 151.662712 
L 122.118259 153.648303 
L 120.987382 155.633895 
L 119.879066 157.619486 
L 118.810928 159.605077 
L 117.799904 161.590668 
L 116.861164 163.576259 
L 116.007083 165.56185 
L 115.24645 167.547441 
L 114.584052 169.533032 
L 114.020678 171.518623 
L 113.553505 173.504214 
L 113.176777 175.489805 
L 112.882634 177.475396 
L 112.661952 179.460987 
L 112.505092 181.446578 
L 112.402464 183.432169 
L 112.344886 185.41776 
L 112.323748 187.403351 
L 112.331022 189.388943 
L 112.359201 191.374534 
L 112.401213 193.360125 
L 112.45039 195.345716 
L 112.500522 197.331307 
L 112.546 199.316898 
L 112.582032 201.302489 
L 112.604892 203.28808 
L 112.612135 205.273671 
L 112.612135 205.273671 
z
" clip-path="url(#pfef013d512)" style="fill: none; stroke: #000000; stroke-opacity: 0.3"/>
   </g>
   <g id="FillBetweenPolyCollection_11">
    <path d="M 119.149455 163.323273 
L 104.70509 163.323273 
L 104.047998 161.874809 
L 103.369816 160.426344 
L 102.674169 158.97788 
L 101.965015 157.529415 
L 101.246605 156.080951 
L 100.523438 154.632486 
L 99.80022 153.184022 
L 99.081826 151.735558 
L 98.373262 150.287093 
L 97.679632 148.838629 
L 97.006104 147.390164 
L 96.357885 145.9417 
L 95.740183 144.493235 
L 95.158174 143.044771 
L 94.61696 141.596306 
L 94.121514 140.147842 
L 93.676618 138.699378 
L 93.286787 137.250913 
L 92.956181 135.802449 
L 92.688503 134.353984 
L 92.486891 132.90552 
L 92.353803 131.457055 
L 92.290909 130.008591 
L 92.298983 128.560127 
L 92.377817 127.111662 
L 92.526154 125.663198 
L 92.741655 124.214733 
L 93.020897 122.766269 
L 93.359416 121.317804 
L 93.751787 119.86934 
L 94.191752 118.420876 
L 94.672379 116.972411 
L 95.186259 115.523947 
L 95.725721 114.075482 
L 96.283068 112.627018 
L 96.850807 111.178553 
L 97.421868 109.730089 
L 97.989811 108.281624 
L 98.548986 106.83316 
L 99.094655 105.384696 
L 99.623076 103.936231 
L 100.131519 102.487767 
L 100.618243 101.039302 
L 101.08242 99.590838 
L 101.524023 98.142373 
L 101.943677 96.693909 
L 102.342491 95.245445 
L 102.721882 93.79698 
L 103.083399 92.348516 
L 103.428568 90.900051 
L 103.758747 89.451587 
L 104.07503 88.003122 
L 104.378172 86.554658 
L 104.66856 85.106194 
L 104.946223 83.657729 
L 105.210872 82.209265 
L 105.46197 80.7608 
L 105.698825 79.312336 
L 105.920698 77.863871 
L 106.126911 76.415407 
L 106.31695 74.966942 
L 106.490564 73.518478 
L 106.647831 72.070014 
L 106.789218 70.621549 
L 106.915597 69.173085 
L 107.028242 67.72462 
L 107.128803 66.276156 
L 107.219243 64.827691 
L 107.301768 63.379227 
L 107.378732 61.930763 
L 107.452544 60.482298 
L 107.525556 59.033834 
L 107.599974 57.585369 
L 107.677761 56.136905 
L 107.760562 54.68844 
L 107.849648 53.239976 
L 107.945875 51.791512 
L 108.049668 50.343047 
L 108.161026 48.894583 
L 108.279549 47.446118 
L 108.404478 45.997654 
L 108.534761 44.549189 
L 108.669117 43.100725 
L 108.806121 41.65226 
L 108.944275 40.203796 
L 109.082097 38.755332 
L 109.218186 37.306867 
L 109.351288 35.858403 
L 109.480345 34.409938 
L 109.604534 32.961474 
L 109.723281 31.513009 
L 109.836273 30.064545 
L 109.943442 28.616081 
L 110.044944 27.167616 
L 110.141127 25.719152 
L 110.232483 24.270687 
L 110.319608 22.822223 
L 110.403148 21.373758 
L 110.483755 19.925294 
L 113.37079 19.925294 
L 113.37079 19.925294 
L 113.451397 21.373758 
L 113.534937 22.822223 
L 113.622062 24.270687 
L 113.713419 25.719152 
L 113.809601 27.167616 
L 113.911104 28.616081 
L 114.018272 30.064545 
L 114.131264 31.513009 
L 114.250012 32.961474 
L 114.3742 34.409938 
L 114.503258 35.858403 
L 114.63636 37.306867 
L 114.772449 38.755332 
L 114.910271 40.203796 
L 115.048425 41.65226 
L 115.185428 43.100725 
L 115.319785 44.549189 
L 115.450067 45.997654 
L 115.574997 47.446118 
L 115.693519 48.894583 
L 115.804877 50.343047 
L 115.90867 51.791512 
L 116.004897 53.239976 
L 116.093983 54.68844 
L 116.176785 56.136905 
L 116.254571 57.585369 
L 116.328989 59.033834 
L 116.402002 60.482298 
L 116.475813 61.930763 
L 116.552778 63.379227 
L 116.635302 64.827691 
L 116.725742 66.276156 
L 116.826303 67.72462 
L 116.938949 69.173085 
L 117.065327 70.621549 
L 117.206714 72.070014 
L 117.363982 73.518478 
L 117.537595 74.966942 
L 117.727634 76.415407 
L 117.933847 77.863871 
L 118.15572 79.312336 
L 118.392576 80.7608 
L 118.643673 82.209265 
L 118.908322 83.657729 
L 119.185985 85.106194 
L 119.476374 86.554658 
L 119.779515 88.003122 
L 120.095798 89.451587 
L 120.425978 90.900051 
L 120.771146 92.348516 
L 121.132664 93.79698 
L 121.512054 95.245445 
L 121.910868 96.693909 
L 122.330522 98.142373 
L 122.772126 99.590838 
L 123.236303 101.039302 
L 123.723026 102.487767 
L 124.231469 103.936231 
L 124.75989 105.384696 
L 125.30556 106.83316 
L 125.864734 108.281624 
L 126.432677 109.730089 
L 127.003739 111.178553 
L 127.571477 112.627018 
L 128.128824 114.075482 
L 128.668287 115.523947 
L 129.182166 116.972411 
L 129.662793 118.420876 
L 130.102758 119.86934 
L 130.495129 121.317804 
L 130.833648 122.766269 
L 131.11289 124.214733 
L 131.328391 125.663198 
L 131.476729 127.111662 
L 131.555562 128.560127 
L 131.563636 130.008591 
L 131.500742 131.457055 
L 131.367655 132.90552 
L 131.166042 134.353984 
L 130.898364 135.802449 
L 130.567758 137.250913 
L 130.177928 138.699378 
L 129.733032 140.147842 
L 129.237586 141.596306 
L 128.696371 143.044771 
L 128.114363 144.493235 
L 127.496661 145.9417 
L 126.848441 147.390164 
L 126.174914 148.838629 
L 125.481283 150.287093 
L 124.772719 151.735558 
L 124.054326 153.184022 
L 123.331108 154.632486 
L 122.607941 156.080951 
L 121.88953 157.529415 
L 121.180376 158.97788 
L 120.484729 160.426344 
L 119.806547 161.874809 
L 119.149455 163.323273 
L 119.149455 163.323273 
z
" clip-path="url(#pfef013d512)" style="fill: none; stroke: #000000; stroke-opacity: 0.3"/>
   </g>
   <g id="matplotlib.axis_1"/>
   <g id="matplotlib.axis_2">
    <g id="ytick_1">
     <g id="line2d_1">
      <defs>
       <path id="mdb0964ce79" d="M 0 0 
L -3.5 0 
" style="stroke: #000000; stroke-width: 0.8"/>
      </defs>
      <g>
       <use xlink:href="#mdb0964ce79" x="21.6" y="291.6" style="stroke: #000000; stroke-width: 0.8"/>
      </g>
     </g>
    </g>
    <g id="ytick_2">
     <g id="line2d_2">
      <g>
       <use xlink:href="#mdb0964ce79" x="21.6" y="199.8" style="stroke: #000000; stroke-width: 0.8"/>
      </g>
     </g>
    </g>
    <g id="ytick_3">
     <g id="line2d_3">
      <g>
       <use xlink:href="#mdb0964ce79" x="21.6" y="108" style="stroke: #000000; stroke-width: 0.8"/>
      </g>
     </g>
    </g>
    <g id="ytick_4">
     <g id="line2d_4">
      <g>
       <use xlink:href="#mdb0964ce79" x="21.6" y="16.2" style="stroke: #000000; stroke-width: 0.8"/>
      </g>
     </g>
    </g>
   </g>
   <g id="line2d_5">
    <path d="M 46.472727 269.568 
L 46.472727 264.06 
" clip-path="url(#pfef013d512)" style="fill: none; stroke: #000000; stroke-linecap: square"/>
   </g>
   <g id="line2d_6">
    <path d="M 46.472727 269.568 
L 111.927273 269.568 
" clip-path="url(#pfef013d512)" style="fill: none; stroke: #000000; stroke-linecap: square"/>
   </g>
   <g id="line2d_7">
    <path d="M 111.927273 269.568 
L 111.927273 264.06 
" clip-path="url(#pfef013d512)" style="fill: none; stroke: #000000; stroke-linecap: square"/>
   </g>
   <g id="patch_3">
    <path d="M 21.6 291.6 
L 21.6 16.2 
" style="fill: none; stroke: #000000; stroke-width: 0.8; stroke-linejoin: miter; stroke-linecap: square"/>
   </g>
   <g id="patch_4">
    <path d="M 136.8 291.6 
L 136.8 16.2 
" style="fill: none; stroke: #000000; stroke-width: 0.8; stroke-linejoin: miter; stroke-linecap: square"/>
   </g>
   <g id="patch_5">
    <path d="M 21.6 291.6 
L 136.8 291.6 
" style="fill: none; stroke: #000000; stroke-width: 0.8; stroke-linejoin: miter; stroke-linecap: square"/>
   </g>
   <g id="patch_6">
    <path d="M 21.6 16.2 
L 136.8 16.2 
" style="fill: none; stroke: #000000; stroke-width: 0.8; stroke-linejoin: miter; stroke-linecap: square"/>
   </g>
   <g id="text_1">
    <text style="font-weight: 700; font-size: 12px; font-family: 'DejaVu Sans', 'Bitstream Vera Sans', 'Computer Modern Sans Serif', 'Lucida Grande', 'Verdana', 'Geneva', 'Lucid', 'Arial', 'Helvetica', 'Avant Garde', sans-serif; text-anchor: middle" x="46.472727" y="289.104375" transform="rotate(-0 46.472727 289.104375)">#10</text>
   </g>
   <g id="text_2">
    <text style="font-weight: 700; font-size: 12px; font-family: 'DejaVu Sans', 'Bitstream Vera Sans', 'Computer Modern Sans Serif', 'Lucida Grande', 'Verdana', 'Geneva', 'Lucid', 'Arial', 'Helvetica', 'Avant Garde', sans-serif; text-anchor: middle" x="111.927273" y="289.104375" transform="rotate(-0 111.927273 289.104375)">#18</text>
   </g>
   <g id="text_3">
    <text style="font-size: 12px; font-family: 'DejaVu Sans', 'Bitstream Vera Sans', 'Computer Modern Sans Serif', 'Lucida Grande', 'Verdana', 'Geneva', 'Lucid', 'Arial', 'Helvetica', 'Avant Garde', sans-serif; text-anchor: middle" x="79.2" y="268.449375" transform="rotate(-0 79.2 268.449375)">ns</text>
   </g>
   <g id="line2d_8">
    <path d="M 21.6 123.792773 
L 136.8 123.792773 
" clip-path="url(#pfef013d512)" style="fill: none; stroke-dasharray: 3.7,1.6; stroke-dashoffset: 0; stroke: #808080; stroke-opacity: 0.7"/>
   </g>
   <g id="line2d_9">
    <path d="M 21.6 123.803 
L 136.8 123.803 
" clip-path="url(#pfef013d512)" style="fill: none; stroke-dasharray: 3.7,1.6; stroke-dashoffset: 0; stroke: #808080; stroke-opacity: 0.7"/>
   </g>
   <g id="LineCollection_1">
    <path d="M 46.472727 126.095257 
L 46.472727 121.49029 
" clip-path="url(#pfef013d512)" style="fill: none; stroke: #000000; stroke-width: 2"/>
   </g>
   <g id="line2d_10">
    <defs>
     <path id="m1362c05c5c" d="M 5 0 
L -5 -0 
" style="stroke: #000000; stroke-width: 2"/>
    </defs>
    <g clip-path="url(#pfef013d512)">
     <use xlink:href="#m1362c05c5c" x="46.472727" y="126.095257" style="stroke: #000000; stroke-width: 2"/>
    </g>
   </g>
   <g id="line2d_11">
    <g clip-path="url(#pfef013d512)">
     <use xlink:href="#m1362c05c5c" x="46.472727" y="121.49029" style="stroke: #000000; stroke-width: 2"/>
    </g>
   </g>
   <g id="LineCollection_2">
    <path d="M 111.927273 127.884457 
L 111.927273 119.721543 
" clip-path="url(#pfef013d512)" style="fill: none; stroke: #000000; stroke-width: 2"/>
   </g>
   <g id="line2d_12">
    <g clip-path="url(#pfef013d512)">
     <use xlink:href="#m1362c05c5c" x="111.927273" y="127.884457" style="stroke: #000000; stroke-width: 2"/>
    </g>
   </g>
   <g id="line2d_13">
    <g clip-path="url(#pfef013d512)">
     <use xlink:href="#m1362c05c5c" x="111.927273" y="119.721543" style="stroke: #000000; stroke-width: 2"/>
    </g>
   </g>
   <g id="line2d_14">
    <defs>
     <path id="m91fdc91772" d="M 0 4 
C 1.060812 4 2.078319 3.578535 2.828427 2.828427 
C 3.578535 2.078319 4 1.060812 4 0 
C 4 -1.060812 3.578535 -2.078319 2.828427 -2.828427 
C 2.078319 -3.578535 1.060812 -4 0 -4 
C -1.060812 -4 -2.078319 -3.578535 -2.828427 -2.828427 
C -3.578535 -2.078319 -4 -1.060812 -4 0 
C -4 1.060812 -3.578535 2.078319 -2.828427 2.828427 
C -2.078319 3.578535 -1.060812 4 0 4 
z
" style="stroke: #000000"/>
    </defs>
    <g clip-path="url(#pfef013d512)">
     <use xlink:href="#m91fdc91772" x="46.472727" y="123.792773" style="stroke: #000000"/>
    </g>
   </g>
   <g id="line2d_15">
    <g clip-path="url(#pfef013d512)">
     <use xlink:href="#m91fdc91772" x="111.927273" y="123.803" style="stroke: #000000"/>
    </g>
   </g>
  </g>
 </g>
 <defs>
  <clipPath id="pfef013d512">
   <rect x="21.6" y="16.2" width="115.2" height="275.4"/>
  </clipPath>
 </defs>
</svg>
