<?xml version="1.0" encoding="utf-8" standalone="no"?>
<!DOCTYPE svg PUBLIC "-//W3C//DTD SVG 1.1//EN"
  "http://www.w3.org/Graphics/SVG/1.1/DTD/svg11.dtd">
<svg xmlns:xlink="http://www.w3.org/1999/xlink" width="144pt" height="324pt" viewBox="0 0 144 324" xmlns="http://www.w3.org/2000/svg" version="1.1">
 <metadata>
  <rdf:RDF xmlns:dc="http://purl.org/dc/elements/1.1/" xmlns:cc="http://creativecommons.org/ns#" xmlns:rdf="http://www.w3.org/1999/02/22-rdf-syntax-ns#">
   <cc:Work>
    <dc:type rdf:resource="http://purl.org/dc/dcmitype/StillImage"/>
    <dc:date>2025-12-11T09:10:03.279201</dc:date>
    <dc:format>image/svg+xml</dc:format>
    <dc:creator>
     <cc:Agent>
      <dc:title>Matplotlib v3.10.0, https://matplotlib.org/</dc:title>
     </cc:Agent>
    </dc:creator>
   </cc:Work>
  </rdf:RDF>
 </metadata>
 <defs>
  <style type="text/css">*{stroke-linejoin: round; stroke-linecap: butt}</style>
 </defs>
 <g id="figure_1">
  <g id="patch_1">
   <path d="M 0 324 
L 144 324 
L 144 0 
L 0 0 
z
" style="fill: #ffffff"/>
  </g>
  <g id="axes_1">
   <g id="patch_2">
    <path d="M 21.6 291.6 
L 136.8 291.6 
L 136.8 16.2 
L 21.6 16.2 
z
" style="fill: #ffffff"/>
   </g>
   <g id="FillBetweenPolyCollection_1">
    <path d="M 50.580344 189.425042 
L 50.219656 189.425042 
L 50.225424 187.986003 
L 50.241643 186.546965 
L 50.265391 185.107926 
L 50.29276 183.668888 
L 50.319887 182.229849 
L 50.343776 180.79081 
L 50.362678 179.351772 
L 50.375996 177.912733 
L 50.383873 176.473695 
L 50.386674 175.034656 
L 50.384588 173.595618 
L 50.377449 172.156579 
L 50.364844 170.71754 
L 50.346462 169.278502 
L 50.322541 167.839463 
L 50.294229 166.400425 
L 50.263629 164.961386 
L 50.233373 163.522347 
L 50.20577 162.083309 
L 50.18181 160.64427 
L 50.160445 159.205232 
L 50.138529 157.766193 
L 50.111509 156.327154 
L 50.074578 154.888116 
L 50.023738 153.449077 
L 49.956265 152.010039 
L 49.870391 150.571 
L 49.764481 149.131962 
L 49.636289 147.692923 
L 49.482779 146.253884 
L 49.300663 144.814846 
L 49.087306 143.375807 
L 48.841483 141.936769 
L 48.563554 140.49773 
L 48.255036 139.058691 
L 47.917839 137.619653 
L 47.553491 136.180614 
L 47.162492 134.741576 
L 46.743674 133.302537 
L 46.293439 131.863499 
L 45.80498 130.42446 
L 45.267929 128.985421 
L 44.669075 127.546383 
L 43.994544 126.107344 
L 43.233239 124.668306 
L 42.380609 123.229267 
L 41.441436 121.790228 
L 40.430539 120.35119 
L 39.371187 118.912151 
L 38.292069 117.473113 
L 37.224418 116.034074 
L 36.200793 114.595035 
L 35.256027 113.155997 
L 34.429413 111.716958 
L 33.765971 110.27792 
L 33.314356 108.838881 
L 33.12 107.399843 
L 33.214275 105.960804 
L 33.602948 104.521765 
L 34.258725 103.082727 
L 35.122077 101.643688 
L 36.111783 100.20465 
L 37.142532 98.765611 
L 38.143699 97.326572 
L 39.072542 95.887534 
L 39.917334 94.448495 
L 40.69013 93.009457 
L 41.4132 91.570418 
L 42.105385 90.131379 
L 42.773971 88.692341 
L 43.414499 87.253302 
L 44.016972 85.814264 
L 44.574089 84.375225 
L 45.086837 82.936187 
L 45.564759 81.497148 
L 46.021417 80.058109 
L 46.468006 78.619071 
L 46.90863 77.180032 
L 47.339358 75.740994 
L 47.750872 74.301955 
L 48.132804 72.862916 
L 48.477452 71.423878 
L 48.781469 69.984839 
L 49.045522 68.545801 
L 49.272817 67.106762 
L 49.467549 65.667723 
L 49.633871 64.228685 
L 49.775398 62.789646 
L 49.894977 61.350608 
L 49.994545 59.911569 
L 50.075103 58.472531 
L 50.136965 57.033492 
L 50.180377 55.594453 
L 50.206356 54.155415 
L 50.217419 52.716376 
L 50.217835 51.277338 
L 50.213188 49.838299 
L 50.209327 48.39926 
L 50.211065 46.960222 
L 50.588935 46.960222 
L 50.588935 46.960222 
L 50.590673 48.39926 
L 50.586812 49.838299 
L 50.582165 51.277338 
L 50.582581 52.716376 
L 50.593644 54.155415 
L 50.619623 55.594453 
L 50.663035 57.033492 
L 50.724897 58.472531 
L 50.805455 59.911569 
L 50.905023 61.350608 
L 51.024602 62.789646 
L 51.166129 64.228685 
L 51.332451 65.667723 
L 51.527183 67.106762 
L 51.754478 68.545801 
L 52.018531 69.984839 
L 52.322548 71.423878 
L 52.667196 72.862916 
L 53.049128 74.301955 
L 53.460642 75.740994 
L 53.89137 77.180032 
L 54.331994 78.619071 
L 54.778583 80.058109 
L 55.235241 81.497148 
L 55.713163 82.936187 
L 56.225911 84.375225 
L 56.783028 85.814264 
L 57.385501 87.253302 
L 58.026029 88.692341 
L 58.694615 90.131379 
L 59.3868 91.570418 
L 60.10987 93.009457 
L 60.882666 94.448495 
L 61.727458 95.887534 
L 62.656301 97.326572 
L 63.657468 98.765611 
L 64.688217 100.20465 
L 65.677923 101.643688 
L 66.541275 103.082727 
L 67.197052 104.521765 
L 67.585725 105.960804 
L 67.68 107.399843 
L 67.485644 108.838881 
L 67.034029 110.27792 
L 66.370587 111.716958 
L 65.543973 113.155997 
L 64.599207 114.595035 
L 63.575582 116.034074 
L 62.507931 117.473113 
L 61.428813 118.912151 
L 60.369461 120.35119 
L 59.358564 121.790228 
L 58.419391 123.229267 
L 57.566761 124.668306 
L 56.805456 126.107344 
L 56.130925 127.546383 
L 55.532071 128.985421 
L 54.99502 130.42446 
L 54.506561 131.863499 
L 54.056326 133.302537 
L 53.637508 134.741576 
L 53.246509 136.180614 
L 52.882161 137.619653 
L 52.544964 139.058691 
L 52.236446 140.49773 
L 51.958517 141.936769 
L 51.712694 143.375807 
L 51.499337 144.814846 
L 51.317221 146.253884 
L 51.163711 147.692923 
L 51.035519 149.131962 
L 50.929609 150.571 
L 50.843735 152.010039 
L 50.776262 153.449077 
L 50.725422 154.888116 
L 50.688491 156.327154 
L 50.661471 157.766193 
L 50.639555 159.205232 
L 50.61819 160.64427 
L 50.59423 162.083309 
L 50.566627 163.522347 
L 50.536371 164.961386 
L 50.505771 166.400425 
L 50.477459 167.839463 
L 50.453538 169.278502 
L 50.435156 170.71754 
L 50.422551 172.156579 
L 50.415412 173.595618 
L 50.413326 175.034656 
L 50.416127 176.473695 
L 50.424004 177.912733 
L 50.437322 179.351772 
L 50.456224 180.79081 
L 50.480113 182.229849 
L 50.50724 183.668888 
L 50.534609 185.107926 
L 50.558357 186.546965 
L 50.574576 187.986003 
L 50.580344 189.425042 
L 50.580344 189.425042 
z
" clip-path="url(#pe0e5aa0049)" style="fill: none; stroke: #000000; stroke-opacity: 0.3"/>
   </g>
   <g id="FillBetweenPolyCollection_2">
    <path d="M 50.643042 184.393577 
L 50.156958 184.393577 
L 50.152119 182.966529 
L 50.153283 181.539481 
L 50.157618 180.112432 
L 50.161974 178.685384 
L 50.16382 177.258335 
L 50.161995 175.831287 
L 50.156998 174.404239 
L 50.150706 172.97719 
L 50.1456 171.550142 
L 50.143748 170.123094 
L 50.145876 168.696045 
L 50.150808 167.268997 
L 50.155464 165.841948 
L 50.155351 164.4149 
L 50.145393 162.987852 
L 50.120777 161.560803 
L 50.077571 160.133755 
L 50.012924 158.706706 
L 49.924874 157.279658 
L 49.811938 155.85261 
L 49.672772 154.425561 
L 49.50618 152.998513 
L 49.311605 151.571464 
L 49.089966 150.144416 
L 48.844483 148.717368 
L 48.580994 147.290319 
L 48.307371 145.863271 
L 48.031963 144.436222 
L 47.761397 143.009174 
L 47.498411 141.582126 
L 47.240457 140.155077 
L 46.979553 138.728029 
L 46.703447 137.300981 
L 46.397657 135.873932 
L 46.047723 134.446884 
L 45.641007 133.019835 
L 45.167647 131.592787 
L 44.620676 130.165739 
L 43.995614 128.73869 
L 43.290082 127.311642 
L 42.503892 125.884593 
L 41.639925 124.457545 
L 40.705713 123.030497 
L 39.71528 121.603448 
L 38.690495 120.1764 
L 37.661158 118.749351 
L 36.663245 117.322303 
L 35.735384 115.895255 
L 34.914218 114.468206 
L 34.229866 113.041158 
L 33.70276 111.614109 
L 33.342723 110.187061 
L 33.150351 108.760013 
L 33.12 107.332964 
L 33.243129 105.905916 
L 33.510811 104.478868 
L 33.91472 103.051819 
L 34.446617 101.624771 
L 35.096979 100.197722 
L 35.853654 98.770674 
L 36.701235 97.343626 
L 37.621387 95.916577 
L 38.593859 94.489529 
L 39.597677 93.06248 
L 40.612067 91.635432 
L 41.616975 90.208384 
L 42.593399 88.781335 
L 43.523862 87.354287 
L 44.393273 85.927238 
L 45.190062 84.50019 
L 45.907195 83.073142 
L 46.542589 81.646093 
L 47.098645 80.219045 
L 47.580967 78.791996 
L 47.996751 77.364948 
L 48.353393 75.9379 
L 48.657762 74.510851 
L 48.916183 73.083803 
L 49.134844 71.656755 
L 49.320166 70.229706 
L 49.478745 68.802658 
L 49.616791 67.375609 
L 49.739282 65.948561 
L 49.849206 64.521513 
L 49.947242 63.094464 
L 50.032036 61.667416 
L 50.100971 60.240367 
L 50.151192 58.813319 
L 50.180598 57.386271 
L 50.188615 55.959222 
L 50.176631 54.532174 
L 50.148107 53.105125 
L 50.108349 51.678077 
L 50.063989 50.251029 
L 50.022205 48.82398 
L 49.989754 47.396932 
L 49.971989 45.969883 
L 49.972053 44.542835 
L 49.99044 43.115787 
L 50.80956 43.115787 
L 50.80956 43.115787 
L 50.827947 44.542835 
L 50.828011 45.969883 
L 50.810246 47.396932 
L 50.777795 48.82398 
L 50.736011 50.251029 
L 50.691651 51.678077 
L 50.651893 53.105125 
L 50.623369 54.532174 
L 50.611385 55.959222 
L 50.619402 57.386271 
L 50.648808 58.813319 
L 50.699029 60.240367 
L 50.767964 61.667416 
L 50.852758 63.094464 
L 50.950794 64.521513 
L 51.060718 65.948561 
L 51.183209 67.375609 
L 51.321255 68.802658 
L 51.479834 70.229706 
L 51.665156 71.656755 
L 51.883817 73.083803 
L 52.142238 74.510851 
L 52.446607 75.9379 
L 52.803249 77.364948 
L 53.219033 78.791996 
L 53.701355 80.219045 
L 54.257411 81.646093 
L 54.892805 83.073142 
L 55.609938 84.50019 
L 56.406727 85.927238 
L 57.276138 87.354287 
L 58.206601 88.781335 
L 59.183025 90.208384 
L 60.187933 91.635432 
L 61.202323 93.06248 
L 62.206141 94.489529 
L 63.178613 95.916577 
L 64.098765 97.343626 
L 64.946346 98.770674 
L 65.703021 100.197722 
L 66.353383 101.624771 
L 66.88528 103.051819 
L 67.289189 104.478868 
L 67.556871 105.905916 
L 67.68 107.332964 
L 67.649649 108.760013 
L 67.457277 110.187061 
L 67.09724 111.614109 
L 66.570134 113.041158 
L 65.885782 114.468206 
L 65.064616 115.895255 
L 64.136755 117.322303 
L 63.138842 118.749351 
L 62.109505 120.1764 
L 61.08472 121.603448 
L 60.094287 123.030497 
L 59.160075 124.457545 
L 58.296108 125.884593 
L 57.509918 127.311642 
L 56.804386 128.73869 
L 56.179324 130.165739 
L 55.632353 131.592787 
L 55.158993 133.019835 
L 54.752277 134.446884 
L 54.402343 135.873932 
L 54.096553 137.300981 
L 53.820447 138.728029 
L 53.559543 140.155077 
L 53.301589 141.582126 
L 53.038603 143.009174 
L 52.768037 144.436222 
L 52.492629 145.863271 
L 52.219006 147.290319 
L 51.955517 148.717368 
L 51.710034 150.144416 
L 51.488395 151.571464 
L 51.29382 152.998513 
L 51.127228 154.425561 
L 50.988062 155.85261 
L 50.875126 157.279658 
L 50.787076 158.706706 
L 50.722429 160.133755 
L 50.679223 161.560803 
L 50.654607 162.987852 
L 50.644649 164.4149 
L 50.644536 165.841948 
L 50.649192 167.268997 
L 50.654124 168.696045 
L 50.656252 170.123094 
L 50.6544 171.550142 
L 50.649294 172.97719 
L 50.643002 174.404239 
L 50.638005 175.831287 
L 50.63618 177.258335 
L 50.638026 178.685384 
L 50.642382 180.112432 
L 50.646717 181.539481 
L 50.647881 182.966529 
L 50.643042 184.393577 
L 50.643042 184.393577 
z
" clip-path="url(#pe0e5aa0049)" style="fill: none; stroke: #000000; stroke-opacity: 0.3"/>
   </g>
   <g id="FillBetweenPolyCollection_3">
    <path d="M 50.653056 160.18644 
L 50.146944 160.18644 
L 50.150022 159.117291 
L 50.161215 158.048142 
L 50.178307 156.978993 
L 50.198201 155.909845 
L 50.217383 154.840696 
L 50.232441 153.771547 
L 50.24052 152.702398 
L 50.239653 151.63325 
L 50.228874 150.564101 
L 50.208116 149.494952 
L 50.177886 148.425803 
L 50.138765 147.356655 
L 50.090821 146.287506 
L 50.033068 145.218357 
L 49.96311 144.149208 
L 49.877101 143.08006 
L 49.77009 142.010911 
L 49.636729 140.941762 
L 49.472198 139.872613 
L 49.273151 138.803465 
L 49.038422 137.734316 
L 48.769337 136.665167 
L 48.469531 135.596018 
L 48.144336 134.52687 
L 47.79986 133.457721 
L 47.441925 132.388572 
L 47.075014 131.319424 
L 46.701309 130.250275 
L 46.319926 129.181126 
L 45.926411 128.111977 
L 45.51268 127.042829 
L 45.067552 125.97368 
L 44.578029 124.904531 
L 44.031307 123.835382 
L 43.417298 122.766234 
L 42.731206 121.697085 
L 41.975592 120.627936 
L 41.161338 119.558787 
L 40.307158 118.489639 
L 39.437599 117.42049 
L 38.579849 116.351341 
L 37.759999 115.282192 
L 36.999512 114.213044 
L 36.312643 113.143895 
L 35.705346 112.074746 
L 35.175834 111.005597 
L 34.716688 109.936449 
L 34.318018 108.8673 
L 33.971091 107.798151 
L 33.671683 106.729002 
L 33.422542 105.659854 
L 33.234466 104.590705 
L 33.125744 103.521556 
L 33.12 102.452407 
L 33.242727 101.383259 
L 33.517049 100.31411 
L 33.959387 99.244961 
L 34.575722 98.175812 
L 35.359103 97.106664 
L 36.288841 96.037515 
L 37.331641 94.968366 
L 38.4446 93.899218 
L 39.579721 92.830069 
L 40.689305 91.76092 
L 41.731367 90.691771 
L 42.674163 89.622623 
L 43.499046 88.553474 
L 44.201165 87.484325 
L 44.787995 86.415176 
L 45.27609 85.346028 
L 45.686875 84.276879 
L 46.042348 83.20773 
L 46.361555 82.138581 
L 46.658355 81.069433 
L 46.940684 80.000284 
L 47.211139 78.931135 
L 47.468472 77.861986 
L 47.70948 76.792838 
L 47.930798 75.723689 
L 48.130246 74.65454 
L 48.307552 73.585391 
L 48.464447 72.516243 
L 48.604279 71.447094 
L 48.731332 70.377945 
L 48.850074 69.308796 
L 48.964454 68.239648 
L 49.077381 67.170499 
L 49.190393 66.10135 
L 49.303546 65.032201 
L 49.415531 63.963053 
L 49.524001 62.893904 
L 49.62609 61.824755 
L 49.719045 60.755606 
L 49.800848 59.686458 
L 49.870685 58.617309 
L 49.929137 57.54816 
L 49.978039 56.479011 
L 50.020039 55.409863 
L 50.057988 54.340714 
L 50.742012 54.340714 
L 50.742012 54.340714 
L 50.779961 55.409863 
L 50.821961 56.479011 
L 50.870863 57.54816 
L 50.929315 58.617309 
L 50.999152 59.686458 
L 51.080955 60.755606 
L 51.17391 61.824755 
L 51.275999 62.893904 
L 51.384469 63.963053 
L 51.496454 65.032201 
L 51.609607 66.10135 
L 51.722619 67.170499 
L 51.835546 68.239648 
L 51.949926 69.308796 
L 52.068668 70.377945 
L 52.195721 71.447094 
L 52.335553 72.516243 
L 52.492448 73.585391 
L 52.669754 74.65454 
L 52.869202 75.723689 
L 53.09052 76.792838 
L 53.331528 77.861986 
L 53.588861 78.931135 
L 53.859316 80.000284 
L 54.141645 81.069433 
L 54.438445 82.138581 
L 54.757652 83.20773 
L 55.113125 84.276879 
L 55.52391 85.346028 
L 56.012005 86.415176 
L 56.598835 87.484325 
L 57.300954 88.553474 
L 58.125837 89.622623 
L 59.068633 90.691771 
L 60.110695 91.76092 
L 61.220279 92.830069 
L 62.3554 93.899218 
L 63.468359 94.968366 
L 64.511159 96.037515 
L 65.440897 97.106664 
L 66.224278 98.175812 
L 66.840613 99.244961 
L 67.282951 100.31411 
L 67.557273 101.383259 
L 67.68 102.452407 
L 67.674256 103.521556 
L 67.565534 104.590705 
L 67.377458 105.659854 
L 67.128317 106.729002 
L 66.828909 107.798151 
L 66.481982 108.8673 
L 66.083312 109.936449 
L 65.624166 111.005597 
L 65.094654 112.074746 
L 64.487357 113.143895 
L 63.800488 114.213044 
L 63.040001 115.282192 
L 62.220151 116.351341 
L 61.362401 117.42049 
L 60.492842 118.489639 
L 59.638662 119.558787 
L 58.824408 120.627936 
L 58.068794 121.697085 
L 57.382702 122.766234 
L 56.768693 123.835382 
L 56.221971 124.904531 
L 55.732448 125.97368 
L 55.28732 127.042829 
L 54.873589 128.111977 
L 54.480074 129.181126 
L 54.098691 130.250275 
L 53.724986 131.319424 
L 53.358075 132.388572 
L 53.00014 133.457721 
L 52.655664 134.52687 
L 52.330469 135.596018 
L 52.030663 136.665167 
L 51.761578 137.734316 
L 51.526849 138.803465 
L 51.327802 139.872613 
L 51.163271 140.941762 
L 51.02991 142.010911 
L 50.922899 143.08006 
L 50.83689 144.149208 
L 50.766932 145.218357 
L 50.709179 146.287506 
L 50.661235 147.356655 
L 50.622114 148.425803 
L 50.591884 149.494952 
L 50.571126 150.564101 
L 50.560347 151.63325 
L 50.55948 152.702398 
L 50.567559 153.771547 
L 50.582617 154.840696 
L 50.601799 155.909845 
L 50.621693 156.978993 
L 50.638785 158.048142 
L 50.649978 159.117291 
L 50.653056 160.18644 
L 50.653056 160.18644 
z
" clip-path="url(#pe0e5aa0049)" style="fill: none; stroke: #000000; stroke-opacity: 0.3"/>
   </g>
   <g id="FillBetweenPolyCollection_4">
    <path d="M 52.493242 145.900087 
L 48.306758 145.900087 
L 47.961542 144.749627 
L 47.616192 143.599167 
L 47.276851 142.448707 
L 46.945952 141.298246 
L 46.62162 140.147786 
L 46.29787 138.997326 
L 45.965534 137.846865 
L 45.613718 136.696405 
L 45.231488 135.545945 
L 44.809481 134.395484 
L 44.341183 133.245024 
L 43.823759 132.094564 
L 43.258387 130.944104 
L 42.650154 129.793643 
L 42.007604 128.643183 
L 41.341999 127.492723 
L 40.666401 126.342262 
L 39.994634 125.191802 
L 39.340196 124.041342 
L 38.715209 122.890882 
L 38.12948 121.740421 
L 37.589758 120.589961 
L 37.099259 119.439501 
L 36.657551 118.28904 
L 36.260834 117.13858 
L 35.902638 115.98812 
L 35.574864 114.837659 
L 35.269037 113.687199 
L 34.977564 112.536739 
L 34.694824 111.386279 
L 34.417928 110.235818 
L 34.147186 109.085358 
L 33.886337 107.934898 
L 33.642719 106.784437 
L 33.427449 105.633977 
L 33.255551 104.483517 
L 33.145805 103.333057 
L 33.12 102.182596 
L 33.201331 101.032136 
L 33.411893 99.881676 
L 33.769554 98.731215 
L 34.28475 97.580755 
L 34.95792 96.430295 
L 35.778199 95.279834 
L 36.72375 94.129374 
L 37.763698 92.978914 
L 38.861279 91.828454 
L 39.97758 90.677993 
L 41.075186 89.527533 
L 42.121195 88.377073 
L 43.089285 87.226612 
L 43.960783 86.076152 
L 44.724876 84.925692 
L 45.378169 83.775231 
L 45.923808 82.624771 
L 46.370313 81.474311 
L 46.730203 80.323851 
L 47.018477 79.17339 
L 47.251033 78.02293 
L 47.443165 76.87247 
L 47.608301 75.722009 
L 47.757144 74.571549 
L 47.89733 73.421089 
L 48.033601 72.270629 
L 48.168383 71.120168 
L 48.302574 69.969708 
L 48.436331 68.819248 
L 48.569653 67.668787 
L 48.702656 66.518327 
L 48.835547 65.367867 
L 48.968381 64.217406 
L 49.100758 63.066946 
L 49.231618 61.916486 
L 49.359229 60.766026 
L 49.481413 59.615565 
L 49.595939 58.465105 
L 49.700962 57.314645 
L 49.795383 56.164184 
L 49.879007 55.013724 
L 49.952475 53.863264 
L 50.016991 52.712803 
L 50.073946 51.562343 
L 50.124548 50.411883 
L 50.169558 49.261423 
L 50.209186 48.110962 
L 50.243141 46.960502 
L 50.270797 45.810042 
L 50.291424 44.659581 
L 50.30441 43.509121 
L 50.309467 42.358661 
L 50.306773 41.208201 
L 50.297066 40.05774 
L 50.281678 38.90728 
L 50.262492 37.75682 
L 50.241819 36.606359 
L 50.222188 35.455899 
L 50.206068 34.305439 
L 50.19555 33.154978 
L 50.192063 32.004518 
L 50.607937 32.004518 
L 50.607937 32.004518 
L 50.60445 33.154978 
L 50.593932 34.305439 
L 50.577812 35.455899 
L 50.558181 36.606359 
L 50.537508 37.75682 
L 50.518322 38.90728 
L 50.502934 40.05774 
L 50.493227 41.208201 
L 50.490533 42.358661 
L 50.49559 43.509121 
L 50.508576 44.659581 
L 50.529203 45.810042 
L 50.556859 46.960502 
L 50.590814 48.110962 
L 50.630442 49.261423 
L 50.675452 50.411883 
L 50.726054 51.562343 
L 50.783009 52.712803 
L 50.847525 53.863264 
L 50.920993 55.013724 
L 51.004617 56.164184 
L 51.099038 57.314645 
L 51.204061 58.465105 
L 51.318587 59.615565 
L 51.440771 60.766026 
L 51.568382 61.916486 
L 51.699242 63.066946 
L 51.831619 64.217406 
L 51.964453 65.367867 
L 52.097344 66.518327 
L 52.230347 67.668787 
L 52.363669 68.819248 
L 52.497426 69.969708 
L 52.631617 71.120168 
L 52.766399 72.270629 
L 52.90267 73.421089 
L 53.042856 74.571549 
L 53.191699 75.722009 
L 53.356835 76.87247 
L 53.548967 78.02293 
L 53.781523 79.17339 
L 54.069797 80.323851 
L 54.429687 81.474311 
L 54.876192 82.624771 
L 55.421831 83.775231 
L 56.075124 84.925692 
L 56.839217 86.076152 
L 57.710715 87.226612 
L 58.678805 88.377073 
L 59.724814 89.527533 
L 60.82242 90.677993 
L 61.938721 91.828454 
L 63.036302 92.978914 
L 64.07625 94.129374 
L 65.021801 95.279834 
L 65.84208 96.430295 
L 66.51525 97.580755 
L 67.030446 98.731215 
L 67.388107 99.881676 
L 67.598669 101.032136 
L 67.68 102.182596 
L 67.654195 103.333057 
L 67.544449 104.483517 
L 67.372551 105.633977 
L 67.157281 106.784437 
L 66.913663 107.934898 
L 66.652814 109.085358 
L 66.382072 110.235818 
L 66.105176 111.386279 
L 65.822436 112.536739 
L 65.530963 113.687199 
L 65.225136 114.837659 
L 64.897362 115.98812 
L 64.539166 117.13858 
L 64.142449 118.28904 
L 63.700741 119.439501 
L 63.210242 120.589961 
L 62.67052 121.740421 
L 62.084791 122.890882 
L 61.459804 124.041342 
L 60.805366 125.191802 
L 60.133599 126.342262 
L 59.458001 127.492723 
L 58.792396 128.643183 
L 58.149846 129.793643 
L 57.541613 130.944104 
L 56.976241 132.094564 
L 56.458817 133.245024 
L 55.990519 134.395484 
L 55.568512 135.545945 
L 55.186282 136.696405 
L 54.834466 137.846865 
L 54.50213 138.997326 
L 54.17838 140.147786 
L 53.854048 141.298246 
L 53.523149 142.448707 
L 53.183808 143.599167 
L 52.838458 144.749627 
L 52.493242 145.900087 
L 52.493242 145.900087 
z
" clip-path="url(#pe0e5aa0049)" style="fill: none; stroke: #000000; stroke-opacity: 0.3"/>
   </g>
   <g id="FillBetweenPolyCollection_5">
    <path d="M 108.316658 244.525458 
L 107.683342 244.525458 
L 107.689791 242.466401 
L 107.70859 240.407344 
L 107.737138 238.348287 
L 107.771657 236.289229 
L 107.807799 234.230172 
L 107.841266 232.171115 
L 107.868326 230.112058 
L 107.886139 228.053001 
L 107.892928 225.993944 
L 107.888036 223.934887 
L 107.871935 221.87583 
L 107.84622 219.816773 
L 107.813561 217.757716 
L 107.777561 215.698659 
L 107.742442 213.639602 
L 107.712564 211.580545 
L 107.691796 209.521488 
L 107.682881 207.462431 
L 107.686919 205.403373 
L 107.703126 203.344316 
L 107.728907 201.285259 
L 107.760219 199.226202 
L 107.792124 197.167145 
L 107.819372 195.108088 
L 107.836912 193.049031 
L 107.840257 190.989974 
L 107.825735 188.930917 
L 107.79066 186.87186 
L 107.733496 184.812803 
L 107.654004 182.753746 
L 107.553309 180.694689 
L 107.433772 178.635632 
L 107.298552 176.576575 
L 107.150832 174.517518 
L 106.992789 172.45846 
L 106.824552 170.399403 
L 106.64343 168.340346 
L 106.443689 166.281289 
L 106.216994 164.222232 
L 105.953404 162.163175 
L 105.642609 160.104118 
L 105.275032 158.045061 
L 104.842469 155.986004 
L 104.338213 153.926947 
L 103.756875 151.86789 
L 103.094261 149.808833 
L 102.347696 147.749776 
L 101.516893 145.690719 
L 100.605207 143.631662 
L 99.620822 141.572605 
L 98.577445 139.513547 
L 97.494255 137.45449 
L 96.395194 135.395433 
L 95.307971 133.336376 
L 94.263142 131.277319 
L 93.293414 129.218262 
L 92.432954 127.159205 
L 91.716176 125.100148 
L 91.175479 123.041091 
L 90.837745 120.982034 
L 90.72 118.922977 
L 90.825208 116.86392 
L 91.139546 114.804863 
L 91.632361 112.745806 
L 92.259439 110.686749 
L 92.969366 108.627691 
L 93.711793 106.568634 
L 94.44579 104.509577 
L 95.146314 102.45052 
L 95.807179 100.391463 
L 96.439788 98.332406 
L 97.067953 96.273349 
L 97.720108 94.214292 
L 98.420848 92.155235 
L 99.183831 90.096178 
L 100.007639 88.037121 
L 100.875399 85.978064 
L 101.757977 83.919007 
L 102.619735 81.85995 
L 103.425311 79.800893 
L 104.145823 77.741836 
L 104.76318 75.682778 
L 105.271824 73.623721 
L 105.677866 71.564664 
L 105.996176 69.505607 
L 106.246351 67.44655 
L 106.448564 65.387493 
L 106.620146 63.328436 
L 106.773461 61.269379 
L 106.915255 59.210322 
L 107.047325 57.151265 
L 107.168107 55.092208 
L 107.274662 53.033151 
L 107.36452 50.974094 
L 107.436972 48.915037 
L 107.493585 46.85598 
L 107.537931 44.796922 
L 107.574731 42.737865 
L 107.608746 40.678808 
L 108.391254 40.678808 
L 108.391254 40.678808 
L 108.425269 42.737865 
L 108.462069 44.796922 
L 108.506415 46.85598 
L 108.563028 48.915037 
L 108.63548 50.974094 
L 108.725338 53.033151 
L 108.831893 55.092208 
L 108.952675 57.151265 
L 109.084745 59.210322 
L 109.226539 61.269379 
L 109.379854 63.328436 
L 109.551436 65.387493 
L 109.753649 67.44655 
L 110.003824 69.505607 
L 110.322134 71.564664 
L 110.728176 73.623721 
L 111.23682 75.682778 
L 111.854177 77.741836 
L 112.574689 79.800893 
L 113.380265 81.85995 
L 114.242023 83.919007 
L 115.124601 85.978064 
L 115.992361 88.037121 
L 116.816169 90.096178 
L 117.579152 92.155235 
L 118.279892 94.214292 
L 118.932047 96.273349 
L 119.560212 98.332406 
L 120.192821 100.391463 
L 120.853686 102.45052 
L 121.55421 104.509577 
L 122.288207 106.568634 
L 123.030634 108.627691 
L 123.740561 110.686749 
L 124.367639 112.745806 
L 124.860454 114.804863 
L 125.174792 116.86392 
L 125.28 118.922977 
L 125.162255 120.982034 
L 124.824521 123.041091 
L 124.283824 125.100148 
L 123.567046 127.159205 
L 122.706586 129.218262 
L 121.736858 131.277319 
L 120.692029 133.336376 
L 119.604806 135.395433 
L 118.505745 137.45449 
L 117.422555 139.513547 
L 116.379178 141.572605 
L 115.394793 143.631662 
L 114.483107 145.690719 
L 113.652304 147.749776 
L 112.905739 149.808833 
L 112.243125 151.86789 
L 111.661787 153.926947 
L 111.157531 155.986004 
L 110.724968 158.045061 
L 110.357391 160.104118 
L 110.046596 162.163175 
L 109.783006 164.222232 
L 109.556311 166.281289 
L 109.35657 168.340346 
L 109.175448 170.399403 
L 109.007211 172.45846 
L 108.849168 174.517518 
L 108.701448 176.576575 
L 108.566228 178.635632 
L 108.446691 180.694689 
L 108.345996 182.753746 
L 108.266504 184.812803 
L 108.20934 186.87186 
L 108.174265 188.930917 
L 108.159743 190.989974 
L 108.163088 193.049031 
L 108.180628 195.108088 
L 108.207876 197.167145 
L 108.239781 199.226202 
L 108.271093 201.285259 
L 108.296874 203.344316 
L 108.313081 205.403373 
L 108.317119 207.462431 
L 108.308204 209.521488 
L 108.287436 211.580545 
L 108.257558 213.639602 
L 108.222439 215.698659 
L 108.186439 217.757716 
L 108.15378 219.816773 
L 108.128065 221.87583 
L 108.111964 223.934887 
L 108.107072 225.993944 
L 108.113861 228.053001 
L 108.131674 230.112058 
L 108.158734 232.171115 
L 108.192201 234.230172 
L 108.228343 236.289229 
L 108.262862 238.348287 
L 108.29141 240.407344 
L 108.310209 242.466401 
L 108.316658 244.525458 
L 108.316658 244.525458 
z
" clip-path="url(#pe0e5aa0049)" style="fill: none; stroke: #000000; stroke-opacity: 0.3"/>
   </g>
   <g id="FillBetweenPolyCollection_6">
    <path d="M 108.329553 183.146795 
L 107.670447 183.146795 
L 107.662336 182.005332 
L 107.657054 180.863869 
L 107.652666 179.722407 
L 107.64675 178.580944 
L 107.636608 177.439481 
L 107.619504 176.298018 
L 107.592903 175.156555 
L 107.554649 174.015093 
L 107.503065 172.87363 
L 107.436956 171.732167 
L 107.355523 170.590704 
L 107.258207 169.449242 
L 107.14451 168.307779 
L 107.013854 167.166316 
L 106.865507 166.024853 
L 106.698635 164.883391 
L 106.512461 163.741928 
L 106.30652 162.600465 
L 106.080943 161.459002 
L 105.836701 160.317539 
L 105.575731 159.176077 
L 105.300891 158.034614 
L 105.015731 156.893151 
L 104.7241 155.751688 
L 104.429678 154.610226 
L 104.135514 153.468763 
L 103.843675 152.3273 
L 103.555096 151.185837 
L 103.269629 150.044374 
L 102.986316 148.902912 
L 102.703781 147.761449 
L 102.420672 146.619986 
L 102.136042 145.478523 
L 101.849587 144.337061 
L 101.561692 143.195598 
L 101.27328 142.054135 
L 100.985503 140.912672 
L 100.699327 139.771209 
L 100.415093 138.629747 
L 100.132117 137.488284 
L 99.848409 136.346821 
L 99.560524 135.205358 
L 99.263603 134.063896 
L 98.951582 132.922433 
L 98.617595 131.78097 
L 98.254544 130.639507 
L 97.855806 129.498045 
L 97.416047 128.356582 
L 96.932067 127.215119 
L 96.403592 126.073656 
L 95.833908 124.932193 
L 95.230241 123.790731 
L 94.603766 122.649268 
L 93.969225 121.507805 
L 93.34413 120.366342 
L 92.747623 119.22488 
L 92.19913 118.083417 
L 91.716974 116.941954 
L 91.317143 115.800491 
L 91.012362 114.659028 
L 90.811598 113.517566 
L 90.72 112.376103 
L 90.739237 111.23464 
L 90.868085 110.093177 
L 91.103094 108.951715 
L 91.439174 107.810252 
L 91.869963 106.668789 
L 92.387921 105.527326 
L 92.984211 104.385863 
L 93.648443 103.244401 
L 94.368475 102.102938 
L 95.130393 100.961475 
L 95.918821 99.820012 
L 96.717572 98.67855 
L 97.510602 97.537087 
L 98.283127 96.395624 
L 99.02273 95.254161 
L 99.720251 94.112699 
L 100.37031 92.971236 
L 100.971372 91.829773 
L 101.525351 90.68831 
L 102.036828 89.546847 
L 102.512016 88.405385 
L 102.957651 87.263922 
L 103.379968 86.122459 
L 103.783908 84.980996 
L 104.17262 83.839534 
L 104.54732 82.698071 
L 104.907447 81.556608 
L 105.251075 80.415145 
L 105.575471 79.273682 
L 105.877703 78.13222 
L 106.155194 76.990757 
L 106.406159 75.849294 
L 106.629863 74.707831 
L 106.826695 73.566369 
L 106.998068 72.424906 
L 107.146193 71.283443 
L 107.27377 70.14198 
L 108.72623 70.14198 
L 108.72623 70.14198 
L 108.853807 71.283443 
L 109.001932 72.424906 
L 109.173305 73.566369 
L 109.370137 74.707831 
L 109.593841 75.849294 
L 109.844806 76.990757 
L 110.122297 78.13222 
L 110.424529 79.273682 
L 110.748925 80.415145 
L 111.092553 81.556608 
L 111.45268 82.698071 
L 111.82738 83.839534 
L 112.216092 84.980996 
L 112.620032 86.122459 
L 113.042349 87.263922 
L 113.487984 88.405385 
L 113.963172 89.546847 
L 114.474649 90.68831 
L 115.028628 91.829773 
L 115.62969 92.971236 
L 116.279749 94.112699 
L 116.97727 95.254161 
L 117.716873 96.395624 
L 118.489398 97.537087 
L 119.282428 98.67855 
L 120.081179 99.820012 
L 120.869607 100.961475 
L 121.631525 102.102938 
L 122.351557 103.244401 
L 123.015789 104.385863 
L 123.612079 105.527326 
L 124.130037 106.668789 
L 124.560826 107.810252 
L 124.896906 108.951715 
L 125.131915 110.093177 
L 125.260763 111.23464 
L 125.28 112.376103 
L 125.188402 113.517566 
L 124.987638 114.659028 
L 124.682857 115.800491 
L 124.283026 116.941954 
L 123.80087 118.083417 
L 123.252377 119.22488 
L 122.65587 120.366342 
L 122.030775 121.507805 
L 121.396234 122.649268 
L 120.769759 123.790731 
L 120.166092 124.932193 
L 119.596408 126.073656 
L 119.067933 127.215119 
L 118.583953 128.356582 
L 118.144194 129.498045 
L 117.745456 130.639507 
L 117.382405 131.78097 
L 117.048418 132.922433 
L 116.736397 134.063896 
L 116.439476 135.205358 
L 116.151591 136.346821 
L 115.867883 137.488284 
L 115.584907 138.629747 
L 115.300673 139.771209 
L 115.014497 140.912672 
L 114.72672 142.054135 
L 114.438308 143.195598 
L 114.150413 144.337061 
L 113.863958 145.478523 
L 113.579328 146.619986 
L 113.296219 147.761449 
L 113.013684 148.902912 
L 112.730371 150.044374 
L 112.444904 151.185837 
L 112.156325 152.3273 
L 111.864486 153.468763 
L 111.570322 154.610226 
L 111.2759 155.751688 
L 110.984269 156.893151 
L 110.699109 158.034614 
L 110.424269 159.176077 
L 110.163299 160.317539 
L 109.919057 161.459002 
L 109.69348 162.600465 
L 109.487539 163.741928 
L 109.301365 164.883391 
L 109.134493 166.024853 
L 108.986146 167.166316 
L 108.85549 168.307779 
L 108.741793 169.449242 
L 108.644477 170.590704 
L 108.563044 171.732167 
L 108.496935 172.87363 
L 108.445351 174.015093 
L 108.407097 175.156555 
L 108.380496 176.298018 
L 108.363392 177.439481 
L 108.35325 178.580944 
L 108.347334 179.722407 
L 108.342946 180.863869 
L 108.337664 182.005332 
L 108.329553 183.146795 
L 108.329553 183.146795 
z
" clip-path="url(#pe0e5aa0049)" style="fill: none; stroke: #000000; stroke-opacity: 0.3"/>
   </g>
   <g id="FillBetweenPolyCollection_7">
    <path d="M 114.509296 159.568867 
L 101.490704 159.568867 
L 101.052836 158.638846 
L 100.62049 157.708824 
L 100.197182 156.778803 
L 99.78625 155.848782 
L 99.390768 154.918761 
L 99.013458 153.988739 
L 98.656609 153.058718 
L 98.322011 152.128697 
L 98.010892 151.198676 
L 97.72388 150.268654 
L 97.460977 149.338633 
L 97.221547 148.408612 
L 97.004329 147.478591 
L 96.807472 146.548569 
L 96.62858 145.618548 
L 96.464782 144.688527 
L 96.312823 143.758506 
L 96.169161 142.828484 
L 96.030086 141.898463 
L 95.891839 140.968442 
L 95.750745 140.038421 
L 95.603346 139.108399 
L 95.446521 138.178378 
L 95.277613 137.248357 
L 95.094529 136.318336 
L 94.895836 135.388314 
L 94.680822 134.458293 
L 94.449545 133.528272 
L 94.202842 132.598251 
L 93.942322 131.668229 
L 93.670317 130.738208 
L 93.389814 129.808187 
L 93.104355 128.878166 
L 92.817918 127.948144 
L 92.534776 127.018123 
L 92.25935 126.088102 
L 91.996047 125.158081 
L 91.749112 124.228059 
L 91.522474 123.298038 
L 91.319621 122.368017 
L 91.143491 121.437996 
L 90.996383 120.507974 
L 90.879914 119.577953 
L 90.794991 118.647932 
L 90.74183 117.717911 
L 90.72 116.787889 
L 90.728496 115.857868 
L 90.765838 114.927847 
L 90.830184 113.997826 
L 90.919461 113.067804 
L 91.031494 112.137783 
L 91.164133 111.207762 
L 91.315371 110.277741 
L 91.483444 109.347719 
L 91.666913 108.417698 
L 91.864713 107.487677 
L 92.076184 106.557656 
L 92.301067 105.627634 
L 92.539475 104.697613 
L 92.791844 103.767592 
L 93.058856 102.837571 
L 93.341351 101.907549 
L 93.640231 100.977528 
L 93.956353 100.047507 
L 94.290431 99.117486 
L 94.64294 98.187464 
L 95.014031 97.257443 
L 95.403472 96.327422 
L 95.810596 95.397401 
L 96.234277 94.467379 
L 96.672928 93.537358 
L 97.124522 92.607337 
L 97.586632 91.677316 
L 98.056487 90.747294 
L 98.531051 89.817273 
L 99.007106 88.887252 
L 99.481347 87.957231 
L 99.950478 87.027209 
L 100.411306 86.097188 
L 100.860834 85.167167 
L 101.296337 84.237146 
L 101.715438 83.307124 
L 102.116153 82.377103 
L 102.496936 81.447082 
L 102.856694 80.517061 
L 103.194795 79.587039 
L 103.511052 78.657018 
L 103.805696 77.726997 
L 104.079337 76.796976 
L 104.332909 75.866954 
L 104.567612 74.936933 
L 104.784854 74.006912 
L 104.986175 73.076891 
L 105.173192 72.146869 
L 105.347531 71.216848 
L 105.510777 70.286827 
L 105.66442 69.356806 
L 105.80982 68.426784 
L 105.948174 67.496763 
L 110.051826 67.496763 
L 110.051826 67.496763 
L 110.19018 68.426784 
L 110.33558 69.356806 
L 110.489223 70.286827 
L 110.652469 71.216848 
L 110.826808 72.146869 
L 111.013825 73.076891 
L 111.215146 74.006912 
L 111.432388 74.936933 
L 111.667091 75.866954 
L 111.920663 76.796976 
L 112.194304 77.726997 
L 112.488948 78.657018 
L 112.805205 79.587039 
L 113.143306 80.517061 
L 113.503064 81.447082 
L 113.883847 82.377103 
L 114.284562 83.307124 
L 114.703663 84.237146 
L 115.139166 85.167167 
L 115.588694 86.097188 
L 116.049522 87.027209 
L 116.518653 87.957231 
L 116.992894 88.887252 
L 117.468949 89.817273 
L 117.943513 90.747294 
L 118.413368 91.677316 
L 118.875478 92.607337 
L 119.327072 93.537358 
L 119.765723 94.467379 
L 120.189404 95.397401 
L 120.596528 96.327422 
L 120.985969 97.257443 
L 121.35706 98.187464 
L 121.709569 99.117486 
L 122.043647 100.047507 
L 122.359769 100.977528 
L 122.658649 101.907549 
L 122.941144 102.837571 
L 123.208156 103.767592 
L 123.460525 104.697613 
L 123.698933 105.627634 
L 123.923816 106.557656 
L 124.135287 107.487677 
L 124.333087 108.417698 
L 124.516556 109.347719 
L 124.684629 110.277741 
L 124.835867 111.207762 
L 124.968506 112.137783 
L 125.080539 113.067804 
L 125.169816 113.997826 
L 125.234162 114.927847 
L 125.271504 115.857868 
L 125.28 116.787889 
L 125.25817 117.717911 
L 125.205009 118.647932 
L 125.120086 119.577953 
L 125.003617 120.507974 
L 124.856509 121.437996 
L 124.680379 122.368017 
L 124.477526 123.298038 
L 124.250888 124.228059 
L 124.003953 125.158081 
L 123.74065 126.088102 
L 123.465224 127.018123 
L 123.182082 127.948144 
L 122.895645 128.878166 
L 122.610186 129.808187 
L 122.329683 130.738208 
L 122.057678 131.668229 
L 121.797158 132.598251 
L 121.550455 133.528272 
L 121.319178 134.458293 
L 121.104164 135.388314 
L 120.905471 136.318336 
L 120.722387 137.248357 
L 120.553479 138.178378 
L 120.396654 139.108399 
L 120.249255 140.038421 
L 120.108161 140.968442 
L 119.969914 141.898463 
L 119.830839 142.828484 
L 119.687177 143.758506 
L 119.535218 144.688527 
L 119.37142 145.618548 
L 119.192528 146.548569 
L 118.995671 147.478591 
L 118.778453 148.408612 
L 118.539023 149.338633 
L 118.27612 150.268654 
L 117.989108 151.198676 
L 117.677989 152.128697 
L 117.343391 153.058718 
L 116.986542 153.988739 
L 116.609232 154.918761 
L 116.21375 155.848782 
L 115.802818 156.778803 
L 115.37951 157.708824 
L 114.947164 158.638846 
L 114.509296 159.568867 
L 114.509296 159.568867 
z
" clip-path="url(#pe0e5aa0049)" style="fill: none; stroke: #000000; stroke-opacity: 0.3"/>
   </g>
   <g id="FillBetweenPolyCollection_8">
    <path d="M 108.953848 202.959737 
L 107.046152 202.959737 
L 106.98163 201.675325 
L 106.921348 200.390914 
L 106.864669 199.106502 
L 106.810542 197.822091 
L 106.757677 196.537679 
L 106.704769 195.253268 
L 106.65074 193.968857 
L 106.594976 192.684445 
L 106.537509 191.400034 
L 106.479125 190.115622 
L 106.421367 188.831211 
L 106.36644 187.546799 
L 106.316994 186.262388 
L 106.275839 184.977976 
L 106.245601 183.693565 
L 106.228355 182.409154 
L 106.225289 181.124742 
L 106.236421 179.840331 
L 106.260401 178.555919 
L 106.294426 177.271508 
L 106.334258 175.987096 
L 106.374365 174.702685 
L 106.408152 173.418274 
L 106.428282 172.133862 
L 106.42705 170.849451 
L 106.396795 169.565039 
L 106.330301 168.280628 
L 106.221183 166.996216 
L 106.064199 165.711805 
L 105.855481 164.427394 
L 105.592653 163.142982 
L 105.274829 161.858571 
L 104.902493 160.574159 
L 104.477267 159.289748 
L 104.001626 158.005336 
L 103.478572 156.720925 
L 102.911353 155.436513 
L 102.303248 154.152102 
L 101.657491 152.867691 
L 100.977329 151.583279 
L 100.266232 150.298868 
L 99.528207 149.014456 
L 98.768174 147.730045 
L 97.992319 146.445633 
L 97.20835 145.161222 
L 96.425584 143.876811 
L 95.654805 142.592399 
L 94.907894 141.307988 
L 94.197224 140.023576 
L 93.534893 138.739165 
L 92.931879 137.454753 
L 92.397207 136.170342 
L 91.937259 134.88593 
L 91.555307 133.601519 
L 91.251353 132.317108 
L 91.022306 131.032696 
L 90.862496 129.748285 
L 90.764473 128.463873 
L 90.72 127.179462 
L 90.721125 125.89505 
L 90.761202 124.610639 
L 90.835725 123.326228 
L 90.942869 122.041816 
L 91.083664 120.757405 
L 91.261766 119.472993 
L 91.482853 118.188582 
L 91.753718 116.90417 
L 92.081175 115.619759 
L 92.470918 114.335348 
L 92.926484 113.050936 
L 93.448456 111.766525 
L 94.034003 110.482113 
L 94.676817 109.197702 
L 95.367451 107.91329 
L 96.09399 106.628879 
L 96.842979 105.344467 
L 97.600461 104.060056 
L 98.353009 102.775645 
L 99.088623 101.491233 
L 99.797389 100.206822 
L 100.471862 98.92241 
L 101.10715 97.637999 
L 101.700737 96.353587 
L 102.252107 95.069176 
L 102.762249 93.784765 
L 103.233134 92.500353 
L 103.667239 91.215942 
L 104.067165 89.93153 
L 104.435388 88.647119 
L 104.77414 87.362707 
L 105.085392 86.078296 
L 105.370922 84.793885 
L 105.632401 83.509473 
L 105.871494 82.225062 
L 106.089907 80.94065 
L 106.289413 79.656239 
L 106.471811 78.371827 
L 106.638862 77.087416 
L 106.792205 75.803004 
L 109.207795 75.803004 
L 109.207795 75.803004 
L 109.361138 77.087416 
L 109.528189 78.371827 
L 109.710587 79.656239 
L 109.910093 80.94065 
L 110.128506 82.225062 
L 110.367599 83.509473 
L 110.629078 84.793885 
L 110.914608 86.078296 
L 111.22586 87.362707 
L 111.564612 88.647119 
L 111.932835 89.93153 
L 112.332761 91.215942 
L 112.766866 92.500353 
L 113.237751 93.784765 
L 113.747893 95.069176 
L 114.299263 96.353587 
L 114.89285 97.637999 
L 115.528138 98.92241 
L 116.202611 100.206822 
L 116.911377 101.491233 
L 117.646991 102.775645 
L 118.399539 104.060056 
L 119.157021 105.344467 
L 119.90601 106.628879 
L 120.632549 107.91329 
L 121.323183 109.197702 
L 121.965997 110.482113 
L 122.551544 111.766525 
L 123.073516 113.050936 
L 123.529082 114.335348 
L 123.918825 115.619759 
L 124.246282 116.90417 
L 124.517147 118.188582 
L 124.738234 119.472993 
L 124.916336 120.757405 
L 125.057131 122.041816 
L 125.164275 123.326228 
L 125.238798 124.610639 
L 125.278875 125.89505 
L 125.28 127.179462 
L 125.235527 128.463873 
L 125.137504 129.748285 
L 124.977694 131.032696 
L 124.748647 132.317108 
L 124.444693 133.601519 
L 124.062741 134.88593 
L 123.602793 136.170342 
L 123.068121 137.454753 
L 122.465107 138.739165 
L 121.802776 140.023576 
L 121.092106 141.307988 
L 120.345195 142.592399 
L 119.574416 143.876811 
L 118.79165 145.161222 
L 118.007681 146.445633 
L 117.231826 147.730045 
L 116.471793 149.014456 
L 115.733768 150.298868 
L 115.022671 151.583279 
L 114.342509 152.867691 
L 113.696752 154.152102 
L 113.088647 155.436513 
L 112.521428 156.720925 
L 111.998374 158.005336 
L 111.522733 159.289748 
L 111.097507 160.574159 
L 110.725171 161.858571 
L 110.407347 163.142982 
L 110.144519 164.427394 
L 109.935801 165.711805 
L 109.778817 166.996216 
L 109.669699 168.280628 
L 109.603205 169.565039 
L 109.57295 170.849451 
L 109.571718 172.133862 
L 109.591848 173.418274 
L 109.625635 174.702685 
L 109.665742 175.987096 
L 109.705574 177.271508 
L 109.739599 178.555919 
L 109.763579 179.840331 
L 109.774711 181.124742 
L 109.771645 182.409154 
L 109.754399 183.693565 
L 109.724161 184.977976 
L 109.683006 186.262388 
L 109.63356 187.546799 
L 109.578633 188.831211 
L 109.520875 190.115622 
L 109.462491 191.400034 
L 109.405024 192.684445 
L 109.34926 193.968857 
L 109.295231 195.253268 
L 109.242323 196.537679 
L 109.189458 197.822091 
L 109.135331 199.106502 
L 109.078652 200.390914 
L 109.01837 201.675325 
L 108.953848 202.959737 
L 108.953848 202.959737 
z
" clip-path="url(#pe0e5aa0049)" style="fill: none; stroke: #000000; stroke-opacity: 0.3"/>
   </g>
   <g id="FillBetweenPolyCollection_9">
    <path d="M 109.103816 162.311183 
L 106.896184 162.311183 
L 106.747782 161.327314 
L 106.599485 160.343445 
L 106.454998 159.359577 
L 106.317869 158.375708 
L 106.191162 157.39184 
L 106.077118 156.407971 
L 105.976834 155.424102 
L 105.890008 154.440234 
L 105.814759 153.456365 
L 105.747558 152.472497 
L 105.683291 151.488628 
L 105.615441 150.504759 
L 105.536407 149.520891 
L 105.437934 148.537022 
L 105.311632 147.553154 
L 105.149559 146.569285 
L 104.944815 145.585416 
L 104.692126 144.601548 
L 104.388349 143.617679 
L 104.032878 142.63381 
L 103.627893 141.649942 
L 103.178439 140.666073 
L 102.692301 139.682205 
L 102.179675 138.698336 
L 101.65263 137.714467 
L 101.124396 136.730599 
L 100.608498 135.74673 
L 100.117802 134.762862 
L 99.663543 133.778993 
L 99.254408 132.795124 
L 98.895774 131.811256 
L 98.589172 130.827387 
L 98.332064 129.843519 
L 98.117943 128.85965 
L 97.936799 127.875781 
L 97.775878 126.891913 
L 97.620695 125.908044 
L 97.456178 124.924176 
L 97.267844 123.940307 
L 97.042897 122.956438 
L 96.771151 121.97257 
L 96.445738 120.988701 
L 96.06356 120.004833 
L 95.625507 119.020964 
L 95.136486 118.037095 
L 94.605276 117.053227 
L 94.044264 116.069358 
L 93.469063 115.08549 
L 92.898005 114.101621 
L 92.351467 113.117752 
L 91.851022 112.133884 
L 91.418378 111.150015 
L 91.074153 110.166146 
L 90.836541 109.182278 
L 90.72 108.198409 
L 90.734111 107.214541 
L 90.882773 106.230672 
L 91.163851 105.246803 
L 91.569363 104.262935 
L 92.086197 103.279066 
L 92.697272 102.295198 
L 93.382999 101.311329 
L 94.122843 100.32746 
L 94.896806 99.343592 
L 95.686661 98.359723 
L 96.476833 97.375855 
L 97.254887 96.391986 
L 98.011639 95.408117 
L 98.740962 94.424249 
L 99.439368 93.44038 
L 100.105455 92.456512 
L 100.739312 91.472643 
L 101.34193 90.488774 
L 101.914672 89.504906 
L 102.458837 88.521037 
L 102.975332 87.537169 
L 103.464484 86.5533 
L 103.925991 85.569431 
L 104.359 84.585563 
L 104.762315 83.601694 
L 105.134662 82.617825 
L 105.474988 81.633957 
L 105.782721 80.650088 
L 106.057949 79.66622 
L 106.301492 78.682351 
L 106.514859 77.698482 
L 106.700115 76.714614 
L 106.859692 75.730745 
L 106.996196 74.746877 
L 107.112244 73.763008 
L 107.210358 72.779139 
L 107.292925 71.795271 
L 107.362203 70.811402 
L 107.42036 69.827534 
L 107.4695 68.843665 
L 107.511664 67.859796 
L 107.548799 66.875928 
L 107.582681 65.892059 
L 107.614825 64.908191 
L 108.385175 64.908191 
L 108.385175 64.908191 
L 108.417319 65.892059 
L 108.451201 66.875928 
L 108.488336 67.859796 
L 108.5305 68.843665 
L 108.57964 69.827534 
L 108.637797 70.811402 
L 108.707075 71.795271 
L 108.789642 72.779139 
L 108.887756 73.763008 
L 109.003804 74.746877 
L 109.140308 75.730745 
L 109.299885 76.714614 
L 109.485141 77.698482 
L 109.698508 78.682351 
L 109.942051 79.66622 
L 110.217279 80.650088 
L 110.525012 81.633957 
L 110.865338 82.617825 
L 111.237685 83.601694 
L 111.641 84.585563 
L 112.074009 85.569431 
L 112.535516 86.5533 
L 113.024668 87.537169 
L 113.541163 88.521037 
L 114.085328 89.504906 
L 114.65807 90.488774 
L 115.260688 91.472643 
L 115.894545 92.456512 
L 116.560632 93.44038 
L 117.259038 94.424249 
L 117.988361 95.408117 
L 118.745113 96.391986 
L 119.523167 97.375855 
L 120.313339 98.359723 
L 121.103194 99.343592 
L 121.877157 100.32746 
L 122.617001 101.311329 
L 123.302728 102.295198 
L 123.913803 103.279066 
L 124.430637 104.262935 
L 124.836149 105.246803 
L 125.117227 106.230672 
L 125.265889 107.214541 
L 125.28 108.198409 
L 125.163459 109.182278 
L 124.925847 110.166146 
L 124.581622 111.150015 
L 124.148978 112.133884 
L 123.648533 113.117752 
L 123.101995 114.101621 
L 122.530937 115.08549 
L 121.955736 116.069358 
L 121.394724 117.053227 
L 120.863514 118.037095 
L 120.374493 119.020964 
L 119.93644 120.004833 
L 119.554262 120.988701 
L 119.228849 121.97257 
L 118.957103 122.956438 
L 118.732156 123.940307 
L 118.543822 124.924176 
L 118.379305 125.908044 
L 118.224122 126.891913 
L 118.063201 127.875781 
L 117.882057 128.85965 
L 117.667936 129.843519 
L 117.410828 130.827387 
L 117.104226 131.811256 
L 116.745592 132.795124 
L 116.336457 133.778993 
L 115.882198 134.762862 
L 115.391502 135.74673 
L 114.875604 136.730599 
L 114.34737 137.714467 
L 113.820325 138.698336 
L 113.307699 139.682205 
L 112.821561 140.666073 
L 112.372107 141.649942 
L 111.967122 142.63381 
L 111.611651 143.617679 
L 111.307874 144.601548 
L 111.055185 145.585416 
L 110.850441 146.569285 
L 110.688368 147.553154 
L 110.562066 148.537022 
L 110.463593 149.520891 
L 110.384559 150.504759 
L 110.316709 151.488628 
L 110.252442 152.472497 
L 110.185241 153.456365 
L 110.109992 154.440234 
L 110.023166 155.424102 
L 109.922882 156.407971 
L 109.808838 157.39184 
L 109.682131 158.375708 
L 109.545002 159.359577 
L 109.400515 160.343445 
L 109.252218 161.327314 
L 109.103816 162.311183 
L 109.103816 162.311183 
z
" clip-path="url(#pe0e5aa0049)" style="fill: none; stroke: #000000; stroke-opacity: 0.3"/>
   </g>
   <g id="FillBetweenPolyCollection_10">
    <path d="M 108.411802 175.240314 
L 107.588198 175.240314 
L 107.593522 173.997857 
L 107.610796 172.755401 
L 107.637505 171.512945 
L 107.669963 170.270488 
L 107.703702 169.028032 
L 107.733928 167.785576 
L 107.755933 166.543119 
L 107.76544 165.300663 
L 107.758807 164.058207 
L 107.733124 162.815751 
L 107.686183 161.573294 
L 107.616367 160.330838 
L 107.522477 159.088382 
L 107.403519 157.845925 
L 107.258482 156.603469 
L 107.086157 155.361013 
L 106.885029 154.118556 
L 106.653298 152.8761 
L 106.389041 151.633644 
L 106.09051 150.391188 
L 105.756495 149.148731 
L 105.386647 147.906275 
L 104.981636 146.663819 
L 104.543041 145.421362 
L 104.072925 144.178906 
L 103.573169 142.93645 
L 103.044724 141.693994 
L 102.487029 140.451537 
L 101.897841 139.209081 
L 101.273677 137.966625 
L 100.610857 136.724168 
L 99.907013 135.481712 
L 99.162696 134.239256 
L 98.38265 132.996799 
L 97.576346 131.754343 
L 96.757546 130.511887 
L 95.942911 129.269431 
L 95.149973 128.026974 
L 94.394981 126.784518 
L 93.691209 125.542062 
L 93.0482 124.299605 
L 92.472127 123.057149 
L 91.967145 121.814693 
L 91.537256 120.572237 
L 91.188078 119.32978 
L 90.927907 118.087324 
L 90.767709 116.844868 
L 90.72 115.602411 
L 90.796953 114.359955 
L 91.008256 113.117499 
L 91.359309 111.875042 
L 91.850172 110.632586 
L 92.475368 109.39013 
L 93.2244 108.147674 
L 94.082622 106.905217 
L 95.03211 105.662761 
L 96.052322 104.420305 
L 97.120538 103.177848 
L 98.212245 101.935392 
L 99.301722 100.692936 
L 100.362991 99.45048 
L 101.37117 98.208023 
L 102.30407 96.965567 
L 103.14377 95.723111 
L 103.877874 94.480654 
L 104.500218 93.238198 
L 105.010925 91.995742 
L 105.415853 90.753285 
L 105.725556 89.510829 
L 105.953974 88.268373 
L 106.11702 87.025917 
L 106.231232 85.78346 
L 106.312595 84.541004 
L 106.375591 83.298548 
L 106.432501 82.056091 
L 106.492942 80.813635 
L 106.563636 79.571179 
L 106.648386 78.328723 
L 106.748237 77.086266 
L 106.861797 75.84381 
L 106.985711 74.601354 
L 107.115239 73.358897 
L 107.244885 72.116441 
L 107.369033 70.873985 
L 107.482501 69.631528 
L 107.580982 68.389072 
L 107.661319 67.146616 
L 107.721645 65.90416 
L 107.761387 64.661703 
L 107.7812 63.419247 
L 107.782853 62.176791 
L 107.769111 60.934334 
L 107.74358 59.691878 
L 107.710525 58.449422 
L 107.674609 57.206966 
L 107.640551 55.964509 
L 107.612718 54.722053 
L 107.59469 53.479597 
L 107.588882 52.23714 
L 108.411118 52.23714 
L 108.411118 52.23714 
L 108.40531 53.479597 
L 108.387282 54.722053 
L 108.359449 55.964509 
L 108.325391 57.206966 
L 108.289475 58.449422 
L 108.25642 59.691878 
L 108.230889 60.934334 
L 108.217147 62.176791 
L 108.2188 63.419247 
L 108.238613 64.661703 
L 108.278355 65.90416 
L 108.338681 67.146616 
L 108.419018 68.389072 
L 108.517499 69.631528 
L 108.630967 70.873985 
L 108.755115 72.116441 
L 108.884761 73.358897 
L 109.014289 74.601354 
L 109.138203 75.84381 
L 109.251763 77.086266 
L 109.351614 78.328723 
L 109.436364 79.571179 
L 109.507058 80.813635 
L 109.567499 82.056091 
L 109.624409 83.298548 
L 109.687405 84.541004 
L 109.768768 85.78346 
L 109.88298 87.025917 
L 110.046026 88.268373 
L 110.274444 89.510829 
L 110.584147 90.753285 
L 110.989075 91.995742 
L 111.499782 93.238198 
L 112.122126 94.480654 
L 112.85623 95.723111 
L 113.69593 96.965567 
L 114.62883 98.208023 
L 115.637009 99.45048 
L 116.698278 100.692936 
L 117.787755 101.935392 
L 118.879462 103.177848 
L 119.947678 104.420305 
L 120.96789 105.662761 
L 121.917378 106.905217 
L 122.7756 108.147674 
L 123.524632 109.39013 
L 124.149828 110.632586 
L 124.640691 111.875042 
L 124.991744 113.117499 
L 125.203047 114.359955 
L 125.28 115.602411 
L 125.232291 116.844868 
L 125.072093 118.087324 
L 124.811922 119.32978 
L 124.462744 120.572237 
L 124.032855 121.814693 
L 123.527873 123.057149 
L 122.9518 124.299605 
L 122.308791 125.542062 
L 121.605019 126.784518 
L 120.850027 128.026974 
L 120.057089 129.269431 
L 119.242454 130.511887 
L 118.423654 131.754343 
L 117.61735 132.996799 
L 116.837304 134.239256 
L 116.092987 135.481712 
L 115.389143 136.724168 
L 114.726323 137.966625 
L 114.102159 139.209081 
L 113.512971 140.451537 
L 112.955276 141.693994 
L 112.426831 142.93645 
L 111.927075 144.178906 
L 111.456959 145.421362 
L 111.018364 146.663819 
L 110.613353 147.906275 
L 110.243505 149.148731 
L 109.90949 150.391188 
L 109.610959 151.633644 
L 109.346702 152.8761 
L 109.114971 154.118556 
L 108.913843 155.361013 
L 108.741518 156.603469 
L 108.596481 157.845925 
L 108.477523 159.088382 
L 108.383633 160.330838 
L 108.313817 161.573294 
L 108.266876 162.815751 
L 108.241193 164.058207 
L 108.23456 165.300663 
L 108.244067 166.543119 
L 108.266072 167.785576 
L 108.296298 169.028032 
L 108.330037 170.270488 
L 108.362495 171.512945 
L 108.389204 172.755401 
L 108.406478 173.997857 
L 108.411802 175.240314 
L 108.411802 175.240314 
z
" clip-path="url(#pe0e5aa0049)" style="fill: none; stroke: #000000; stroke-opacity: 0.3"/>
   </g>
   <g id="FillBetweenPolyCollection_11">
    <path d="M 109.596973 175.594531 
L 106.403027 175.594531 
L 106.263558 174.693752 
L 106.125698 173.792974 
L 105.990416 172.892195 
L 105.858302 171.991417 
L 105.729504 171.090638 
L 105.603683 170.18986 
L 105.479994 169.289081 
L 105.357093 168.388303 
L 105.233169 167.487525 
L 105.106001 166.586746 
L 104.97304 165.685968 
L 104.831508 164.785189 
L 104.678509 163.884411 
L 104.511162 162.983632 
L 104.326734 162.082854 
L 104.122775 161.182075 
L 103.897256 160.281297 
L 103.648695 159.380518 
L 103.376268 158.47974 
L 103.079899 157.578961 
L 102.760318 156.678183 
L 102.419082 155.777405 
L 102.058544 154.876626 
L 101.681785 153.975848 
L 101.292492 153.075069 
L 100.894786 152.174291 
L 100.493023 151.273512 
L 100.091567 150.372734 
L 99.694553 149.471955 
L 99.305668 148.571177 
L 98.927954 147.670398 
L 98.56366 146.76962 
L 98.214147 145.868841 
L 97.879855 144.968063 
L 97.56034 144.067285 
L 97.254359 143.166506 
L 96.96001 142.265728 
L 96.674905 141.364949 
L 96.396359 140.464171 
L 96.12159 139.563392 
L 95.847906 138.662614 
L 95.572876 137.761835 
L 95.294482 136.861057 
L 95.011234 135.960278 
L 94.722264 135.0595 
L 94.427381 134.158721 
L 94.1271 133.257943 
L 93.822639 132.357165 
L 93.515884 131.456386 
L 93.209323 130.555608 
L 92.905952 129.654829 
L 92.609154 128.754051 
L 92.322562 127.853272 
L 92.049903 126.952494 
L 91.79485 126.051715 
L 91.560876 125.150937 
L 91.351128 124.250158 
L 91.168334 123.34938 
L 91.014741 122.448601 
L 90.892088 121.547823 
L 90.801618 120.647044 
L 90.744122 119.746266 
L 90.72 118.845488 
L 90.729342 117.944709 
L 90.772015 117.043931 
L 90.847738 116.143152 
L 90.956156 115.242374 
L 91.096883 114.341595 
L 91.269534 113.440817 
L 91.473722 112.540038 
L 91.70904 111.63926 
L 91.975013 110.738481 
L 92.27104 109.837703 
L 92.596319 108.936924 
L 92.949774 108.036146 
L 93.329989 107.135368 
L 93.73516 106.234589 
L 94.163073 105.333811 
L 94.611114 104.433032 
L 95.07632 103.532254 
L 95.555464 102.631475 
L 96.045175 101.730697 
L 96.542079 100.829918 
L 97.042951 99.92914 
L 97.544863 99.028361 
L 98.045304 98.127583 
L 98.54227 97.226804 
L 99.034307 96.326026 
L 99.520496 95.425248 
L 100.000387 94.524469 
L 100.473894 93.623691 
L 100.941142 92.722912 
L 101.40231 91.822134 
L 101.857462 90.921355 
L 102.306402 90.020577 
L 102.748561 89.119798 
L 103.182934 88.21902 
L 103.608057 87.318241 
L 104.022052 86.417463 
L 111.977948 86.417463 
L 111.977948 86.417463 
L 112.391943 87.318241 
L 112.817066 88.21902 
L 113.251439 89.119798 
L 113.693598 90.020577 
L 114.142538 90.921355 
L 114.59769 91.822134 
L 115.058858 92.722912 
L 115.526106 93.623691 
L 115.999613 94.524469 
L 116.479504 95.425248 
L 116.965693 96.326026 
L 117.45773 97.226804 
L 117.954696 98.127583 
L 118.455137 99.028361 
L 118.957049 99.92914 
L 119.457921 100.829918 
L 119.954825 101.730697 
L 120.444536 102.631475 
L 120.92368 103.532254 
L 121.388886 104.433032 
L 121.836927 105.333811 
L 122.26484 106.234589 
L 122.670011 107.135368 
L 123.050226 108.036146 
L 123.403681 108.936924 
L 123.72896 109.837703 
L 124.024987 110.738481 
L 124.29096 111.63926 
L 124.526278 112.540038 
L 124.730466 113.440817 
L 124.903117 114.341595 
L 125.043844 115.242374 
L 125.152262 116.143152 
L 125.227985 117.043931 
L 125.270658 117.944709 
L 125.28 118.845488 
L 125.255878 119.746266 
L 125.198382 120.647044 
L 125.107912 121.547823 
L 124.985259 122.448601 
L 124.831666 123.34938 
L 124.648872 124.250158 
L 124.439124 125.150937 
L 124.20515 126.051715 
L 123.950097 126.952494 
L 123.677438 127.853272 
L 123.390846 128.754051 
L 123.094048 129.654829 
L 122.790677 130.555608 
L 122.484116 131.456386 
L 122.177361 132.357165 
L 121.8729 133.257943 
L 121.572619 134.158721 
L 121.277736 135.0595 
L 120.988766 135.960278 
L 120.705518 136.861057 
L 120.427124 137.761835 
L 120.152094 138.662614 
L 119.87841 139.563392 
L 119.603641 140.464171 
L 119.325095 141.364949 
L 119.03999 142.265728 
L 118.745641 143.166506 
L 118.43966 144.067285 
L 118.120145 144.968063 
L 117.785853 145.868841 
L 117.43634 146.76962 
L 117.072046 147.670398 
L 116.694332 148.571177 
L 116.305447 149.471955 
L 115.908433 150.372734 
L 115.506977 151.273512 
L 115.105214 152.174291 
L 114.707508 153.075069 
L 114.318215 153.975848 
L 113.941456 154.876626 
L 113.580918 155.777405 
L 113.239682 156.678183 
L 112.920101 157.578961 
L 112.623732 158.47974 
L 112.351305 159.380518 
L 112.102744 160.281297 
L 111.877225 161.182075 
L 111.673266 162.082854 
L 111.488838 162.983632 
L 111.321491 163.884411 
L 111.168492 164.785189 
L 111.02696 165.685968 
L 110.893999 166.586746 
L 110.766831 167.487525 
L 110.642907 168.388303 
L 110.520006 169.289081 
L 110.396317 170.18986 
L 110.270496 171.090638 
L 110.141698 171.991417 
L 110.009584 172.892195 
L 109.874302 173.792974 
L 109.736442 174.693752 
L 109.596973 175.594531 
L 109.596973 175.594531 
z
" clip-path="url(#pe0e5aa0049)" style="fill: none; stroke: #000000; stroke-opacity: 0.3"/>
   </g>
   <g id="matplotlib.axis_1"/>
   <g id="matplotlib.axis_2">
    <g id="ytick_1">
     <g id="line2d_1">
      <defs>
       <path id="mb056bb8a41" d="M 0 0 
L -3.5 0 
" style="stroke: #000000; stroke-width: 0.8"/>
      </defs>
      <g>
       <use xlink:href="#mb056bb8a41" x="21.6" y="291.6" style="stroke: #000000; stroke-width: 0.8"/>
      </g>
     </g>
    </g>
    <g id="ytick_2">
     <g id="line2d_2">
      <g>
       <use xlink:href="#mb056bb8a41" x="21.6" y="199.8" style="stroke: #000000; stroke-width: 0.8"/>
      </g>
     </g>
    </g>
    <g id="ytick_3">
     <g id="line2d_3">
      <g>
       <use xlink:href="#mb056bb8a41" x="21.6" y="108" style="stroke: #000000; stroke-width: 0.8"/>
      </g>
     </g>
    </g>
    <g id="ytick_4">
     <g id="line2d_4">
      <g>
       <use xlink:href="#mb056bb8a41" x="21.6" y="16.2" style="stroke: #000000; stroke-width: 0.8"/>
      </g>
     </g>
    </g>
   </g>
   <g id="line2d_5">
    <path d="M 50.4 269.568 
L 50.4 264.06 
" clip-path="url(#pe0e5aa0049)" style="fill: none; stroke: #000000; stroke-linecap: square"/>
   </g>
   <g id="line2d_6">
    <path d="M 50.4 269.568 
L 108 269.568 
" clip-path="url(#pe0e5aa0049)" style="fill: none; stroke: #000000; stroke-linecap: square"/>
   </g>
   <g id="line2d_7">
    <path d="M 108 269.568 
L 108 264.06 
" clip-path="url(#pe0e5aa0049)" style="fill: none; stroke: #000000; stroke-linecap: square"/>
   </g>
   <g id="patch_3">
    <path d="M 21.6 291.6 
L 21.6 16.2 
" style="fill: none; stroke: #000000; stroke-width: 0.8; stroke-linejoin: miter; stroke-linecap: square"/>
   </g>
   <g id="patch_4">
    <path d="M 136.8 291.6 
L 136.8 16.2 
" style="fill: none; stroke: #000000; stroke-width: 0.8; stroke-linejoin: miter; stroke-linecap: square"/>
   </g>
   <g id="patch_5">
    <path d="M 21.6 291.6 
L 136.8 291.6 
" style="fill: none; stroke: #000000; stroke-width: 0.8; stroke-linejoin: miter; stroke-linecap: square"/>
   </g>
   <g id="patch_6">
    <path d="M 21.6 16.2 
L 136.8 16.2 
" style="fill: none; stroke: #000000; stroke-width: 0.8; stroke-linejoin: miter; stroke-linecap: square"/>
   </g>
   <g id="text_1">
    <text style="font-weight: 700; font-size: 12px; font-family: 'DejaVu Sans', 'Bitstream Vera Sans', 'Computer Modern Sans Serif', 'Lucida Grande', 'Verdana', 'Geneva', 'Lucid', 'Arial', 'Helvetica', 'Avant Garde', sans-serif; text-anchor: middle" x="50.4" y="289.104375" transform="rotate(-0 50.4 289.104375)">#19</text>
   </g>
   <g id="text_2">
    <text style="font-weight: 700; font-size: 12px; font-family: 'DejaVu Sans', 'Bitstream Vera Sans', 'Computer Modern Sans Serif', 'Lucida Grande', 'Verdana', 'Geneva', 'Lucid', 'Arial', 'Helvetica', 'Avant Garde', sans-serif; text-anchor: middle" x="108" y="289.104375" transform="rotate(-0 108 289.104375)">#25</text>
   </g>
   <g id="text_3">
    <text style="font-size: 12px; font-family: 'DejaVu Sans', 'Bitstream Vera Sans', 'Computer Modern Sans Serif', 'Lucida Grande', 'Verdana', 'Geneva', 'Lucid', 'Arial', 'Helvetica', 'Avant Garde', sans-serif; text-anchor: middle" x="79.2" y="268.449375" transform="rotate(-0 79.2 268.449375)">**</text>
   </g>
   <g id="line2d_8">
    <path d="M 21.6 106.498598 
L 136.8 106.498598 
" clip-path="url(#pe0e5aa0049)" style="fill: none; stroke-dasharray: 3.7,1.6; stroke-dashoffset: 0; stroke: #808080; stroke-opacity: 0.7"/>
   </g>
   <g id="line2d_9">
    <path d="M 21.6 118.238889 
L 136.8 118.238889 
" clip-path="url(#pe0e5aa0049)" style="fill: none; stroke-dasharray: 3.7,1.6; stroke-dashoffset: 0; stroke: #808080; stroke-opacity: 0.7"/>
   </g>
   <g id="LineCollection_1">
    <path d="M 50.4 108.075843 
L 50.4 104.921353 
" clip-path="url(#pe0e5aa0049)" style="fill: none; stroke: #000000; stroke-width: 2"/>
   </g>
   <g id="line2d_10">
    <defs>
     <path id="mfe64346dc2" d="M 5 0 
L -5 -0 
" style="stroke: #000000; stroke-width: 2"/>
    </defs>
    <g clip-path="url(#pe0e5aa0049)">
     <use xlink:href="#mfe64346dc2" x="50.4" y="108.075843" style="stroke: #000000; stroke-width: 2"/>
    </g>
   </g>
   <g id="line2d_11">
    <g clip-path="url(#pe0e5aa0049)">
     <use xlink:href="#mfe64346dc2" x="50.4" y="104.921353" style="stroke: #000000; stroke-width: 2"/>
    </g>
   </g>
   <g id="LineCollection_2">
    <path d="M 108 123.417812 
L 108 113.059965 
" clip-path="url(#pe0e5aa0049)" style="fill: none; stroke: #000000; stroke-width: 2"/>
   </g>
   <g id="line2d_12">
    <g clip-path="url(#pe0e5aa0049)">
     <use xlink:href="#mfe64346dc2" x="108" y="123.417812" style="stroke: #000000; stroke-width: 2"/>
    </g>
   </g>
   <g id="line2d_13">
    <g clip-path="url(#pe0e5aa0049)">
     <use xlink:href="#mfe64346dc2" x="108" y="113.059965" style="stroke: #000000; stroke-width: 2"/>
    </g>
   </g>
   <g id="line2d_14">
    <defs>
     <path id="m009374227a" d="M 0 4 
C 1.060812 4 2.078319 3.578535 2.828427 2.828427 
C 3.578535 2.078319 4 1.060812 4 0 
C 4 -1.060812 3.578535 -2.078319 2.828427 -2.828427 
C 2.078319 -3.578535 1.060812 -4 0 -4 
C -1.060812 -4 -2.078319 -3.578535 -2.828427 -2.828427 
C -3.578535 -2.078319 -4 -1.060812 -4 0 
C -4 1.060812 -3.578535 2.078319 -2.828427 2.828427 
C -2.078319 3.578535 -1.060812 4 0 4 
z
" style="stroke: #000000"/>
    </defs>
    <g clip-path="url(#pe0e5aa0049)">
     <use xlink:href="#m009374227a" x="50.4" y="106.498598" style="stroke: #000000"/>
    </g>
   </g>
   <g id="line2d_15">
    <g clip-path="url(#pe0e5aa0049)">
     <use xlink:href="#m009374227a" x="108" y="118.238889" style="stroke: #000000"/>
    </g>
   </g>
  </g>
 </g>
 <defs>
  <clipPath id="pe0e5aa0049">
   <rect x="21.6" y="16.2" width="115.2" height="275.4"/>
  </clipPath>
 </defs>
</svg>
