<?xml version="1.0" encoding="utf-8" standalone="no"?>
<!DOCTYPE svg PUBLIC "-//W3C//DTD SVG 1.1//EN"
  "http://www.w3.org/Graphics/SVG/1.1/DTD/svg11.dtd">
<svg xmlns:xlink="http://www.w3.org/1999/xlink" width="144pt" height="324pt" viewBox="0 0 144 324" xmlns="http://www.w3.org/2000/svg" version="1.1">
 <metadata>
  <rdf:RDF xmlns:dc="http://purl.org/dc/elements/1.1/" xmlns:cc="http://creativecommons.org/ns#" xmlns:rdf="http://www.w3.org/1999/02/22-rdf-syntax-ns#">
   <cc:Work>
    <dc:type rdf:resource="http://purl.org/dc/dcmitype/StillImage"/>
    <dc:date>2025-12-11T09:10:03.168006</dc:date>
    <dc:format>image/svg+xml</dc:format>
    <dc:creator>
     <cc:Agent>
      <dc:title>Matplotlib v3.10.0, https://matplotlib.org/</dc:title>
     </cc:Agent>
    </dc:creator>
   </cc:Work>
  </rdf:RDF>
 </metadata>
 <defs>
  <style type="text/css">*{stroke-linejoin: round; stroke-linecap: butt}</style>
 </defs>
 <g id="figure_1">
  <g id="patch_1">
   <path d="M 0 324 
L 144 324 
L 144 0 
L 0 0 
z
" style="fill: #ffffff"/>
  </g>
  <g id="axes_1">
   <g id="patch_2">
    <path d="M 21.6 291.6 
L 136.8 291.6 
L 136.8 16.2 
L 21.6 16.2 
z
" style="fill: #ffffff"/>
   </g>
   <g id="FillBetweenPolyCollection_1">
    <path d="M 56.32983 219.540021 
L 44.47017 219.540021 
L 44.155074 218.575805 
L 43.841878 217.611589 
L 43.531376 216.647373 
L 43.224269 215.683157 
L 42.921173 214.718942 
L 42.622645 213.754726 
L 42.329197 212.79051 
L 42.041328 211.826294 
L 41.759537 210.862079 
L 41.484353 209.897863 
L 41.216347 208.933647 
L 40.956145 207.969431 
L 40.704436 207.005216 
L 40.461964 206.041 
L 40.229521 205.076784 
L 40.007927 204.112568 
L 39.798001 203.148352 
L 39.600529 202.184137 
L 39.416225 201.219921 
L 39.245685 200.255705 
L 39.089344 199.291489 
L 38.947431 198.327274 
L 38.819927 197.363058 
L 38.70653 196.398842 
L 38.606626 195.434626 
L 38.519268 194.470411 
L 38.44317 193.506195 
L 38.376708 192.541979 
L 38.31794 191.577763 
L 38.264633 190.613548 
L 38.214311 189.649332 
L 38.164301 188.685116 
L 38.111807 187.7209 
L 38.053983 186.756684 
L 37.988009 185.792469 
L 37.911183 184.828253 
L 37.821006 183.864037 
L 37.715264 182.899821 
L 37.592115 181.935606 
L 37.45016 180.97139 
L 37.288507 180.007174 
L 37.106825 179.042958 
L 36.905378 178.078743 
L 36.68505 177.114527 
L 36.447343 176.150311 
L 36.19437 175.186095 
L 35.928818 174.221879 
L 35.653898 173.257664 
L 35.373282 172.293448 
L 35.091024 171.329232 
L 34.811465 170.365016 
L 34.539135 169.400801 
L 34.278648 168.436585 
L 34.034589 167.472369 
L 33.811415 166.508153 
L 33.613346 165.543938 
L 33.444273 164.579722 
L 33.307676 163.615506 
L 33.206553 162.65129 
L 33.143365 161.687075 
L 33.12 160.722859 
L 33.137747 159.758643 
L 33.197296 158.794427 
L 33.298743 157.830211 
L 33.441619 156.865996 
L 33.624927 155.90178 
L 33.847186 154.937564 
L 34.106489 153.973348 
L 34.40056 153.009133 
L 34.726821 152.044917 
L 35.082446 151.080701 
L 35.464432 150.116485 
L 35.869651 149.15227 
L 36.294905 148.188054 
L 36.736977 147.223838 
L 37.192672 146.259622 
L 37.658857 145.295407 
L 38.132495 144.331191 
L 38.610672 143.366975 
L 39.090625 142.402759 
L 39.569763 141.438543 
L 40.045684 140.474328 
L 40.51619 139.510112 
L 40.979307 138.545896 
L 41.433287 137.58168 
L 41.876622 136.617465 
L 42.308045 135.653249 
L 42.726534 134.689033 
L 43.131309 133.724817 
L 43.521823 132.760602 
L 43.89775 131.796386 
L 44.258974 130.83217 
L 44.605565 129.867954 
L 44.937755 128.903738 
L 45.255913 127.939523 
L 45.560516 126.975307 
L 45.852118 126.011091 
L 46.131317 125.046875 
L 46.398732 124.08266 
L 54.401268 124.08266 
L 54.401268 124.08266 
L 54.668683 125.046875 
L 54.947882 126.011091 
L 55.239484 126.975307 
L 55.544087 127.939523 
L 55.862245 128.903738 
L 56.194435 129.867954 
L 56.541026 130.83217 
L 56.90225 131.796386 
L 57.278177 132.760602 
L 57.668691 133.724817 
L 58.073466 134.689033 
L 58.491955 135.653249 
L 58.923378 136.617465 
L 59.366713 137.58168 
L 59.820693 138.545896 
L 60.28381 139.510112 
L 60.754316 140.474328 
L 61.230237 141.438543 
L 61.709375 142.402759 
L 62.189328 143.366975 
L 62.667505 144.331191 
L 63.141143 145.295407 
L 63.607328 146.259622 
L 64.063023 147.223838 
L 64.505095 148.188054 
L 64.930349 149.15227 
L 65.335568 150.116485 
L 65.717554 151.080701 
L 66.073179 152.044917 
L 66.39944 153.009133 
L 66.693511 153.973348 
L 66.952814 154.937564 
L 67.175073 155.90178 
L 67.358381 156.865996 
L 67.501257 157.830211 
L 67.602704 158.794427 
L 67.662253 159.758643 
L 67.68 160.722859 
L 67.656635 161.687075 
L 67.593447 162.65129 
L 67.492324 163.615506 
L 67.355727 164.579722 
L 67.186654 165.543938 
L 66.988585 166.508153 
L 66.765411 167.472369 
L 66.521352 168.436585 
L 66.260865 169.400801 
L 65.988535 170.365016 
L 65.708976 171.329232 
L 65.426718 172.293448 
L 65.146102 173.257664 
L 64.871182 174.221879 
L 64.60563 175.186095 
L 64.352657 176.150311 
L 64.11495 177.114527 
L 63.894622 178.078743 
L 63.693175 179.042958 
L 63.511493 180.007174 
L 63.34984 180.97139 
L 63.207885 181.935606 
L 63.084736 182.899821 
L 62.978994 183.864037 
L 62.888817 184.828253 
L 62.811991 185.792469 
L 62.746017 186.756684 
L 62.688193 187.7209 
L 62.635699 188.685116 
L 62.585689 189.649332 
L 62.535367 190.613548 
L 62.48206 191.577763 
L 62.423292 192.541979 
L 62.35683 193.506195 
L 62.280732 194.470411 
L 62.193374 195.434626 
L 62.09347 196.398842 
L 61.980073 197.363058 
L 61.852569 198.327274 
L 61.710656 199.291489 
L 61.554315 200.255705 
L 61.383775 201.219921 
L 61.199471 202.184137 
L 61.001999 203.148352 
L 60.792073 204.112568 
L 60.570479 205.076784 
L 60.338036 206.041 
L 60.095564 207.005216 
L 59.843855 207.969431 
L 59.583653 208.933647 
L 59.315647 209.897863 
L 59.040463 210.862079 
L 58.758672 211.826294 
L 58.470803 212.79051 
L 58.177355 213.754726 
L 57.878827 214.718942 
L 57.575731 215.683157 
L 57.268624 216.647373 
L 56.958122 217.611589 
L 56.644926 218.575805 
L 56.32983 219.540021 
L 56.32983 219.540021 
z
" clip-path="url(#p1b36892d5b)" style="fill: none; stroke: #000000; stroke-opacity: 0.3"/>
   </g>
   <g id="FillBetweenPolyCollection_2">
    <path d="M 51.899364 244.063909 
L 48.900636 244.063909 
L 48.831073 242.865038 
L 48.76035 241.666167 
L 48.687394 240.467296 
L 48.611013 239.268425 
L 48.52995 238.069554 
L 48.442936 236.870683 
L 48.348737 235.671811 
L 48.246209 234.47294 
L 48.134327 233.274069 
L 48.012217 232.075198 
L 47.879162 230.876327 
L 47.734594 229.677456 
L 47.578078 228.478585 
L 47.409266 227.279714 
L 47.227853 226.080843 
L 47.033516 224.881971 
L 46.825856 223.6831 
L 46.60434 222.484229 
L 46.368253 221.285358 
L 46.116668 220.086487 
L 45.848429 218.887616 
L 45.562168 217.688745 
L 45.256339 216.489874 
L 44.929289 215.291003 
L 44.579347 214.092132 
L 44.204937 212.89326 
L 43.804713 211.694389 
L 43.3777 210.495518 
L 42.923433 209.296647 
L 42.4421 208.097776 
L 41.934652 206.898905 
L 41.402899 205.700034 
L 40.849568 204.501163 
L 40.278311 203.302292 
L 39.693682 202.103421 
L 39.101051 200.904549 
L 38.506477 199.705678 
L 37.916539 198.506807 
L 37.338124 197.307936 
L 36.778192 196.109065 
L 36.24352 194.910194 
L 35.740451 193.711323 
L 35.274642 192.512452 
L 34.850846 191.313581 
L 34.472728 190.11471 
L 34.142729 188.915838 
L 33.861992 187.716967 
L 33.630341 186.518096 
L 33.446335 185.319225 
L 33.307376 184.120354 
L 33.209874 182.921483 
L 33.14946 181.722612 
L 33.121228 180.523741 
L 33.12 179.32487 
L 33.14059 178.125999 
L 33.178056 176.927127 
L 33.22793 175.728256 
L 33.2864 174.529385 
L 33.350455 173.330514 
L 33.417961 172.131643 
L 33.4877 170.932772 
L 33.559337 169.733901 
L 33.633349 168.53503 
L 33.710915 167.336159 
L 33.793766 166.137288 
L 33.884032 164.938416 
L 33.984071 163.739545 
L 34.096315 162.540674 
L 34.223119 161.341803 
L 34.366648 160.142932 
L 34.528778 158.944061 
L 34.711042 157.74519 
L 34.914591 156.546319 
L 35.140196 155.347448 
L 35.388261 154.148576 
L 35.658859 152.949705 
L 35.951778 151.750834 
L 36.266565 150.551963 
L 36.602571 149.353092 
L 36.958994 148.154221 
L 37.334901 146.95535 
L 37.729251 145.756479 
L 38.140899 144.557608 
L 38.568593 143.358737 
L 39.010966 142.159865 
L 39.46652 140.960994 
L 39.933617 139.762123 
L 40.410465 138.563252 
L 40.895114 137.364381 
L 41.385463 136.16551 
L 41.879267 134.966639 
L 42.374166 133.767768 
L 42.867712 132.568897 
L 43.357408 131.370026 
L 43.840751 130.171154 
L 44.315284 128.972283 
L 44.778638 127.773412 
L 45.228578 126.574541 
L 45.663052 125.37567 
L 55.136948 125.37567 
L 55.136948 125.37567 
L 55.571422 126.574541 
L 56.021362 127.773412 
L 56.484716 128.972283 
L 56.959249 130.171154 
L 57.442592 131.370026 
L 57.932288 132.568897 
L 58.425834 133.767768 
L 58.920733 134.966639 
L 59.414537 136.16551 
L 59.904886 137.364381 
L 60.389535 138.563252 
L 60.866383 139.762123 
L 61.33348 140.960994 
L 61.789034 142.159865 
L 62.231407 143.358737 
L 62.659101 144.557608 
L 63.070749 145.756479 
L 63.465099 146.95535 
L 63.841006 148.154221 
L 64.197429 149.353092 
L 64.533435 150.551963 
L 64.848222 151.750834 
L 65.141141 152.949705 
L 65.411739 154.148576 
L 65.659804 155.347448 
L 65.885409 156.546319 
L 66.088958 157.74519 
L 66.271222 158.944061 
L 66.433352 160.142932 
L 66.576881 161.341803 
L 66.703685 162.540674 
L 66.815929 163.739545 
L 66.915968 164.938416 
L 67.006234 166.137288 
L 67.089085 167.336159 
L 67.166651 168.53503 
L 67.240663 169.733901 
L 67.3123 170.932772 
L 67.382039 172.131643 
L 67.449545 173.330514 
L 67.5136 174.529385 
L 67.57207 175.728256 
L 67.621944 176.927127 
L 67.65941 178.125999 
L 67.68 179.32487 
L 67.678772 180.523741 
L 67.65054 181.722612 
L 67.590126 182.921483 
L 67.492624 184.120354 
L 67.353665 185.319225 
L 67.169659 186.518096 
L 66.938008 187.716967 
L 66.657271 188.915838 
L 66.327272 190.11471 
L 65.949154 191.313581 
L 65.525358 192.512452 
L 65.059549 193.711323 
L 64.55648 194.910194 
L 64.021808 196.109065 
L 63.461876 197.307936 
L 62.883461 198.506807 
L 62.293523 199.705678 
L 61.698949 200.904549 
L 61.106318 202.103421 
L 60.521689 203.302292 
L 59.950432 204.501163 
L 59.397101 205.700034 
L 58.865348 206.898905 
L 58.3579 208.097776 
L 57.876567 209.296647 
L 57.4223 210.495518 
L 56.995287 211.694389 
L 56.595063 212.89326 
L 56.220653 214.092132 
L 55.870711 215.291003 
L 55.543661 216.489874 
L 55.237832 217.688745 
L 54.951571 218.887616 
L 54.683332 220.086487 
L 54.431747 221.285358 
L 54.19566 222.484229 
L 53.974144 223.6831 
L 53.766484 224.881971 
L 53.572147 226.080843 
L 53.390734 227.279714 
L 53.221922 228.478585 
L 53.065406 229.677456 
L 52.920838 230.876327 
L 52.787783 232.075198 
L 52.665673 233.274069 
L 52.553791 234.47294 
L 52.451263 235.671811 
L 52.357064 236.870683 
L 52.27005 238.069554 
L 52.188987 239.268425 
L 52.112606 240.467296 
L 52.03965 241.666167 
L 51.968927 242.865038 
L 51.899364 244.063909 
L 51.899364 244.063909 
z
" clip-path="url(#p1b36892d5b)" style="fill: none; stroke: #000000; stroke-opacity: 0.3"/>
   </g>
   <g id="FillBetweenPolyCollection_3">
    <path d="M 108.355838 267.591446 
L 107.644162 267.591446 
L 107.649423 266.127833 
L 107.664744 264.66422 
L 107.688804 263.200607 
L 107.719609 261.736995 
L 107.754765 260.273382 
L 107.791775 258.809769 
L 107.828323 257.346156 
L 107.862478 255.882543 
L 107.892822 254.418931 
L 107.918464 252.955318 
L 107.938972 251.491705 
L 107.954247 250.028092 
L 107.964353 248.564479 
L 107.969347 247.100867 
L 107.96912 245.637254 
L 107.963265 244.173641 
L 107.950976 242.710028 
L 107.93099 241.246415 
L 107.90155 239.782803 
L 107.860413 238.31919 
L 107.804882 236.855577 
L 107.731884 235.391964 
L 107.638085 233.928351 
L 107.520068 232.464739 
L 107.374565 231.001126 
L 107.198751 229.537513 
L 106.990565 228.0739 
L 106.749029 226.610287 
L 106.474478 225.146675 
L 106.168628 223.683062 
L 105.834403 222.219449 
L 105.475462 220.755836 
L 105.095468 219.292223 
L 104.697178 217.82861 
L 104.281541 216.364998 
L 103.847025 214.901385 
L 103.389405 213.437772 
L 102.902169 211.974159 
L 102.37757 210.510546 
L 101.808226 209.046934 
L 101.188998 207.583321 
L 100.518781 206.119708 
L 99.801842 204.656095 
L 99.048387 203.192482 
L 98.274192 201.72887 
L 97.499317 200.265257 
L 96.7461 198.801644 
L 96.036764 197.338031 
L 95.391024 195.874418 
L 94.824062 194.410806 
L 94.345135 192.947193 
L 93.956956 191.48358 
L 93.655834 190.019967 
L 93.432458 188.556354 
L 93.273124 187.092742 
L 93.161215 185.629129 
L 93.078729 184.165516 
L 93.007754 182.701903 
L 92.931788 181.23829 
L 92.836889 179.774678 
L 92.712637 178.311065 
L 92.552901 176.847452 
L 92.356356 175.383839 
L 92.126719 173.920226 
L 91.872611 172.456614 
L 91.607012 170.993001 
L 91.346294 169.529388 
L 91.108905 168.065775 
L 90.913829 166.602162 
L 90.779019 165.13855 
L 90.72 163.674937 
L 90.748819 162.211324 
L 90.873447 160.747711 
L 91.097648 159.284098 
L 91.421247 157.820486 
L 91.840688 156.356873 
L 92.349719 154.89326 
L 92.940108 153.429647 
L 93.602272 151.966034 
L 94.325784 150.502422 
L 95.099742 149.038809 
L 95.912993 147.575196 
L 96.754253 146.111583 
L 97.612132 144.64797 
L 98.475133 143.184358 
L 99.331676 141.720745 
L 100.170222 140.257132 
L 100.979533 138.793519 
L 101.749109 137.329906 
L 102.469757 135.866294 
L 103.134219 134.402681 
L 103.737734 132.939068 
L 104.278406 131.475455 
L 104.757271 130.011842 
L 105.17802 128.54823 
L 105.546393 127.084617 
L 105.869353 125.621004 
L 106.154165 124.157391 
L 106.407557 122.693778 
L 109.592443 122.693778 
L 109.592443 122.693778 
L 109.845835 124.157391 
L 110.130647 125.621004 
L 110.453607 127.084617 
L 110.82198 128.54823 
L 111.242729 130.011842 
L 111.721594 131.475455 
L 112.262266 132.939068 
L 112.865781 134.402681 
L 113.530243 135.866294 
L 114.250891 137.329906 
L 115.020467 138.793519 
L 115.829778 140.257132 
L 116.668324 141.720745 
L 117.524867 143.184358 
L 118.387868 144.64797 
L 119.245747 146.111583 
L 120.087007 147.575196 
L 120.900258 149.038809 
L 121.674216 150.502422 
L 122.397728 151.966034 
L 123.059892 153.429647 
L 123.650281 154.89326 
L 124.159312 156.356873 
L 124.578753 157.820486 
L 124.902352 159.284098 
L 125.126553 160.747711 
L 125.251181 162.211324 
L 125.28 163.674937 
L 125.220981 165.13855 
L 125.086171 166.602162 
L 124.891095 168.065775 
L 124.653706 169.529388 
L 124.392988 170.993001 
L 124.127389 172.456614 
L 123.873281 173.920226 
L 123.643644 175.383839 
L 123.447099 176.847452 
L 123.287363 178.311065 
L 123.163111 179.774678 
L 123.068212 181.23829 
L 122.992246 182.701903 
L 122.921271 184.165516 
L 122.838785 185.629129 
L 122.726876 187.092742 
L 122.567542 188.556354 
L 122.344166 190.019967 
L 122.043044 191.48358 
L 121.654865 192.947193 
L 121.175938 194.410806 
L 120.608976 195.874418 
L 119.963236 197.338031 
L 119.2539 198.801644 
L 118.500683 200.265257 
L 117.725808 201.72887 
L 116.951613 203.192482 
L 116.198158 204.656095 
L 115.481219 206.119708 
L 114.811002 207.583321 
L 114.191774 209.046934 
L 113.62243 210.510546 
L 113.097831 211.974159 
L 112.610595 213.437772 
L 112.152975 214.901385 
L 111.718459 216.364998 
L 111.302822 217.82861 
L 110.904532 219.292223 
L 110.524538 220.755836 
L 110.165597 222.219449 
L 109.831372 223.683062 
L 109.525522 225.146675 
L 109.250971 226.610287 
L 109.009435 228.0739 
L 108.801249 229.537513 
L 108.625435 231.001126 
L 108.479932 232.464739 
L 108.361915 233.928351 
L 108.268116 235.391964 
L 108.195118 236.855577 
L 108.139587 238.31919 
L 108.09845 239.782803 
L 108.06901 241.246415 
L 108.049024 242.710028 
L 108.036735 244.173641 
L 108.03088 245.637254 
L 108.030653 247.100867 
L 108.035647 248.564479 
L 108.045753 250.028092 
L 108.061028 251.491705 
L 108.081536 252.955318 
L 108.107178 254.418931 
L 108.137522 255.882543 
L 108.171677 257.346156 
L 108.208225 258.809769 
L 108.245235 260.273382 
L 108.280391 261.736995 
L 108.311196 263.200607 
L 108.335256 264.66422 
L 108.350577 266.127833 
L 108.355838 267.591446 
L 108.355838 267.591446 
z
" clip-path="url(#p1b36892d5b)" style="fill: none; stroke: #000000; stroke-opacity: 0.3"/>
   </g>
   <g id="FillBetweenPolyCollection_4">
    <path d="M 108.328423 313.997067 
L 107.671577 313.997067 
L 107.673419 312.007655 
L 107.684369 310.018244 
L 107.701724 308.028833 
L 107.721853 306.039421 
L 107.740791 304.05001 
L 107.754912 302.060599 
L 107.76155 300.071188 
L 107.75946 298.081776 
L 107.749023 296.092365 
L 107.732184 294.102954 
L 107.712103 292.113543 
L 107.692603 290.124131 
L 107.677493 288.13472 
L 107.669894 286.145309 
L 107.671693 284.155897 
L 107.683218 282.166486 
L 107.703196 280.177075 
L 107.728978 278.187664 
L 107.756993 276.198252 
L 107.783316 274.208841 
L 107.804264 272.21943 
L 107.816924 270.230019 
L 107.819547 268.240607 
L 107.811781 266.251196 
L 107.794716 264.261785 
L 107.770756 262.272373 
L 107.743306 260.282962 
L 107.716319 258.293551 
L 107.693735 256.30414 
L 107.678892 254.314728 
L 107.674 252.325317 
L 107.679769 250.335906 
L 107.695251 248.346494 
L 107.717914 246.357083 
L 107.743921 244.367672 
L 107.768532 242.378261 
L 107.786541 240.388849 
L 107.792686 238.399438 
L 107.781976 236.410027 
L 107.749936 234.420616 
L 107.692782 232.431204 
L 107.607545 230.441793 
L 107.492122 228.452382 
L 107.345234 226.46297 
L 107.16623 224.473559 
L 106.954726 222.484148 
L 106.710064 220.494737 
L 106.430701 218.505325 
L 106.113636 216.515914 
L 105.754056 214.526503 
L 105.34533 212.537092 
L 104.879457 210.54768 
L 104.34794 208.558269 
L 103.743008 206.568858 
L 103.059015 204.579446 
L 102.29382 202.590035 
L 101.449949 200.600624 
L 100.535354 198.611213 
L 99.563624 196.621801 
L 98.553535 194.63239 
L 97.527927 192.642979 
L 96.511964 190.653567 
L 95.530999 188.664156 
L 94.608367 186.674745 
L 93.763502 184.685334 
L 93.01077 182.695922 
L 92.359264 180.706511 
L 91.8136 178.7171 
L 91.375503 176.727689 
L 91.045764 174.738277 
L 90.826037 172.748866 
L 90.72 170.759455 
L 90.733556 168.770043 
L 90.874005 166.780632 
L 91.14838 164.791221 
L 91.561362 162.80181 
L 92.113258 160.812398 
L 92.798531 158.822987 
L 93.605169 156.833576 
L 94.515029 154.844165 
L 95.50499 152.854753 
L 96.548662 150.865342 
L 97.618301 148.875931 
L 98.686617 146.886519 
L 99.728302 144.897108 
L 100.7212 142.907697 
L 101.647153 140.918286 
L 102.492571 138.928874 
L 103.248785 136.939463 
L 103.912165 134.950052 
L 104.483957 132.960641 
L 104.969798 130.971229 
L 105.378881 128.981818 
L 105.722801 126.992407 
L 106.014211 125.002995 
L 106.265439 123.013584 
L 106.487274 121.024173 
L 106.688094 119.034762 
L 106.873445 117.04535 
L 109.126555 117.04535 
L 109.126555 117.04535 
L 109.311906 119.034762 
L 109.512726 121.024173 
L 109.734561 123.013584 
L 109.985789 125.002995 
L 110.277199 126.992407 
L 110.621119 128.981818 
L 111.030202 130.971229 
L 111.516043 132.960641 
L 112.087835 134.950052 
L 112.751215 136.939463 
L 113.507429 138.928874 
L 114.352847 140.918286 
L 115.2788 142.907697 
L 116.271698 144.897108 
L 117.313383 146.886519 
L 118.381699 148.875931 
L 119.451338 150.865342 
L 120.49501 152.854753 
L 121.484971 154.844165 
L 122.394831 156.833576 
L 123.201469 158.822987 
L 123.886742 160.812398 
L 124.438638 162.80181 
L 124.85162 164.791221 
L 125.125995 166.780632 
L 125.266444 168.770043 
L 125.28 170.759455 
L 125.173963 172.748866 
L 124.954236 174.738277 
L 124.624497 176.727689 
L 124.1864 178.7171 
L 123.640736 180.706511 
L 122.98923 182.695922 
L 122.236498 184.685334 
L 121.391633 186.674745 
L 120.469001 188.664156 
L 119.488036 190.653567 
L 118.472073 192.642979 
L 117.446465 194.63239 
L 116.436376 196.621801 
L 115.464646 198.611213 
L 114.550051 200.600624 
L 113.70618 202.590035 
L 112.940985 204.579446 
L 112.256992 206.568858 
L 111.65206 208.558269 
L 111.120543 210.54768 
L 110.65467 212.537092 
L 110.245944 214.526503 
L 109.886364 216.515914 
L 109.569299 218.505325 
L 109.289936 220.494737 
L 109.045274 222.484148 
L 108.83377 224.473559 
L 108.654766 226.46297 
L 108.507878 228.452382 
L 108.392455 230.441793 
L 108.307218 232.431204 
L 108.250064 234.420616 
L 108.218024 236.410027 
L 108.207314 238.399438 
L 108.213459 240.388849 
L 108.231468 242.378261 
L 108.256079 244.367672 
L 108.282086 246.357083 
L 108.304749 248.346494 
L 108.320231 250.335906 
L 108.326 252.325317 
L 108.321108 254.314728 
L 108.306265 256.30414 
L 108.283681 258.293551 
L 108.256694 260.282962 
L 108.229244 262.272373 
L 108.205284 264.261785 
L 108.188219 266.251196 
L 108.180453 268.240607 
L 108.183076 270.230019 
L 108.195736 272.21943 
L 108.216684 274.208841 
L 108.243007 276.198252 
L 108.271022 278.187664 
L 108.296804 280.177075 
L 108.316782 282.166486 
L 108.328307 284.155897 
L 108.330106 286.145309 
L 108.322507 288.13472 
L 108.307397 290.124131 
L 108.287897 292.113543 
L 108.267816 294.102954 
L 108.250977 296.092365 
L 108.24054 298.081776 
L 108.23845 300.071188 
L 108.245088 302.060599 
L 108.259209 304.05001 
L 108.278147 306.039421 
L 108.298276 308.028833 
L 108.315631 310.018244 
L 108.326581 312.007655 
L 108.328423 313.997067 
L 108.328423 313.997067 
z
" clip-path="url(#p1b36892d5b)" style="fill: none; stroke: #000000; stroke-opacity: 0.3"/>
   </g>
   <g id="FillBetweenPolyCollection_5">
    <path d="M 108.807971 226.185012 
L 107.192029 226.185012 
L 107.057932 224.997603 
L 106.9119 223.810195 
L 106.753618 222.622787 
L 106.582528 221.435379 
L 106.397798 220.247971 
L 106.198348 219.060562 
L 105.982966 217.873154 
L 105.750504 216.685746 
L 105.500143 215.498338 
L 105.231681 214.31093 
L 104.945786 213.123522 
L 104.644145 211.936113 
L 104.329446 210.748705 
L 104.00516 209.561297 
L 103.675127 208.373889 
L 103.342983 207.186481 
L 103.011518 205.999072 
L 102.682069 204.811664 
L 102.354052 203.624256 
L 102.024719 202.436848 
L 101.68918 201.24944 
L 101.340701 200.062031 
L 100.971232 198.874623 
L 100.572105 197.687215 
L 100.134829 196.499807 
L 99.651923 195.312399 
L 99.11775 194.124991 
L 98.529301 192.937582 
L 97.886923 191.750174 
L 97.194898 190.562766 
L 96.46182 189.375358 
L 95.70066 188.18795 
L 94.928417 187.000541 
L 94.165301 185.813133 
L 93.433466 184.625725 
L 92.755395 183.438317 
L 92.152137 182.250909 
L 91.641639 181.063501 
L 91.237436 179.876092 
L 90.947883 178.688684 
L 90.776012 177.501276 
L 90.72 176.313868 
L 90.774062 175.12646 
L 90.929569 173.939051 
L 91.176148 172.751643 
L 91.50256 171.564235 
L 91.897282 170.376827 
L 92.348783 169.189419 
L 92.845595 168.00201 
L 93.376335 166.814602 
L 93.929797 165.627194 
L 94.495224 164.439786 
L 95.062765 163.252378 
L 95.624024 162.06497 
L 96.172602 160.877561 
L 96.704454 159.690153 
L 97.217959 158.502745 
L 97.713645 157.315337 
L 98.193607 156.127929 
L 98.660719 154.94052 
L 99.117805 153.753112 
L 99.566935 152.565704 
L 100.008976 151.378296 
L 100.443481 150.190888 
L 100.8689 149.00348 
L 101.283046 147.816071 
L 101.68368 146.628663 
L 102.069081 145.441255 
L 102.438465 144.253847 
L 102.792156 143.066439 
L 103.131505 141.87903 
L 103.458561 140.691622 
L 103.775609 139.504214 
L 104.084663 138.316806 
L 104.387044 137.129398 
L 104.683112 135.94199 
L 104.972205 134.754581 
L 105.252766 133.567173 
L 105.52261 132.379765 
L 105.779257 131.192357 
L 106.020259 130.004949 
L 106.243468 128.81754 
L 106.447211 127.630132 
L 106.630382 126.442724 
L 106.792467 125.255316 
L 106.933526 124.067908 
L 107.054165 122.880499 
L 107.155497 121.693091 
L 107.239103 120.505683 
L 107.306974 119.318275 
L 107.361437 118.130867 
L 107.405052 116.943459 
L 107.440479 115.75605 
L 107.470343 114.568642 
L 107.497081 113.381234 
L 107.522811 112.193826 
L 107.549222 111.006418 
L 107.577494 109.819009 
L 107.608272 108.631601 
L 108.391728 108.631601 
L 108.391728 108.631601 
L 108.422506 109.819009 
L 108.450778 111.006418 
L 108.477189 112.193826 
L 108.502919 113.381234 
L 108.529657 114.568642 
L 108.559521 115.75605 
L 108.594948 116.943459 
L 108.638563 118.130867 
L 108.693026 119.318275 
L 108.760897 120.505683 
L 108.844503 121.693091 
L 108.945835 122.880499 
L 109.066474 124.067908 
L 109.207533 125.255316 
L 109.369618 126.442724 
L 109.552789 127.630132 
L 109.756532 128.81754 
L 109.979741 130.004949 
L 110.220743 131.192357 
L 110.47739 132.379765 
L 110.747234 133.567173 
L 111.027795 134.754581 
L 111.316888 135.94199 
L 111.612956 137.129398 
L 111.915337 138.316806 
L 112.224391 139.504214 
L 112.541439 140.691622 
L 112.868495 141.87903 
L 113.207844 143.066439 
L 113.561535 144.253847 
L 113.930919 145.441255 
L 114.31632 146.628663 
L 114.716954 147.816071 
L 115.1311 149.00348 
L 115.556519 150.190888 
L 115.991024 151.378296 
L 116.433065 152.565704 
L 116.882195 153.753112 
L 117.339281 154.94052 
L 117.806393 156.127929 
L 118.286355 157.315337 
L 118.782041 158.502745 
L 119.295546 159.690153 
L 119.827398 160.877561 
L 120.375976 162.06497 
L 120.937235 163.252378 
L 121.504776 164.439786 
L 122.070203 165.627194 
L 122.623665 166.814602 
L 123.154405 168.00201 
L 123.651217 169.189419 
L 124.102718 170.376827 
L 124.49744 171.564235 
L 124.823852 172.751643 
L 125.070431 173.939051 
L 125.225938 175.12646 
L 125.28 176.313868 
L 125.223988 177.501276 
L 125.052117 178.688684 
L 124.762564 179.876092 
L 124.358361 181.063501 
L 123.847863 182.250909 
L 123.244605 183.438317 
L 122.566534 184.625725 
L 121.834699 185.813133 
L 121.071583 187.000541 
L 120.29934 188.18795 
L 119.53818 189.375358 
L 118.805102 190.562766 
L 118.113077 191.750174 
L 117.470699 192.937582 
L 116.88225 194.124991 
L 116.348077 195.312399 
L 115.865171 196.499807 
L 115.427895 197.687215 
L 115.028768 198.874623 
L 114.659299 200.062031 
L 114.31082 201.24944 
L 113.975281 202.436848 
L 113.645948 203.624256 
L 113.317931 204.811664 
L 112.988482 205.999072 
L 112.657017 207.186481 
L 112.324873 208.373889 
L 111.99484 209.561297 
L 111.670554 210.748705 
L 111.355855 211.936113 
L 111.054214 213.123522 
L 110.768319 214.31093 
L 110.499857 215.498338 
L 110.249496 216.685746 
L 110.017034 217.873154 
L 109.801652 219.060562 
L 109.602202 220.247971 
L 109.417472 221.435379 
L 109.246382 222.622787 
L 109.0881 223.810195 
L 108.942068 224.997603 
L 108.807971 226.185012 
L 108.807971 226.185012 
z
" clip-path="url(#p1b36892d5b)" style="fill: none; stroke: #000000; stroke-opacity: 0.3"/>
   </g>
   <g id="FillBetweenPolyCollection_6">
    <path d="M 108.469561 276.015555 
L 107.530439 276.015555 
L 107.537346 274.362303 
L 107.557464 272.709051 
L 107.589069 271.055798 
L 107.629559 269.402546 
L 107.675811 267.749294 
L 107.724569 266.096042 
L 107.77282 264.442789 
L 107.818071 262.789537 
L 107.858525 261.136285 
L 107.893115 259.483032 
L 107.921446 257.82978 
L 107.943642 256.176528 
L 107.96016 254.523276 
L 107.971592 252.870023 
L 107.97847 251.216771 
L 107.981109 249.563519 
L 107.979464 247.910266 
L 107.973032 246.257014 
L 107.960761 244.603762 
L 107.941005 242.950509 
L 107.911508 241.297257 
L 107.869439 239.644005 
L 107.811486 237.990753 
L 107.734022 236.3375 
L 107.633338 234.684248 
L 107.505932 233.030996 
L 107.348825 231.377743 
L 107.159849 229.724491 
L 106.937872 228.071239 
L 106.682899 226.417987 
L 106.396002 224.764734 
L 106.079076 223.111482 
L 105.734405 221.45823 
L 105.36409 219.804977 
L 104.969394 218.151725 
L 104.55011 216.498473 
L 104.104063 214.845221 
L 103.626874 213.191968 
L 103.112114 211.538716 
L 102.551914 209.885464 
L 101.938068 208.232211 
L 101.263536 206.578959 
L 100.524178 204.925707 
L 99.720421 203.272455 
L 98.858547 201.619202 
L 97.951263 199.96595 
L 97.017351 198.312698 
L 96.080318 196.659445 
L 95.166238 195.006193 
L 94.301086 193.352941 
L 93.508068 191.699689 
L 92.80541 190.046436 
L 92.205002 188.393184 
L 91.712091 186.739932 
L 91.326 185.086679 
L 91.041613 183.433427 
L 90.851265 181.780175 
L 90.746592 180.126923 
L 90.72 178.47367 
L 90.765512 176.820418 
L 90.878962 175.167166 
L 91.057633 173.513913 
L 91.299562 171.860661 
L 91.602791 170.207409 
L 91.964784 168.554156 
L 92.382182 166.900904 
L 92.850917 165.247652 
L 93.366612 163.5944 
L 93.925092 161.941147 
L 94.522805 160.287895 
L 95.156973 158.634643 
L 95.825384 156.98139 
L 96.525837 155.328138 
L 97.255359 153.674886 
L 98.0094 152.021634 
L 98.781221 150.368381 
L 99.561648 148.715129 
L 100.339299 147.061877 
L 101.101254 145.408624 
L 101.834085 143.755372 
L 102.52504 142.10212 
L 103.163214 140.448868 
L 103.740483 138.795615 
L 104.252116 137.142363 
L 104.696955 135.489111 
L 105.077213 133.835858 
L 105.397917 132.182606 
L 105.666134 130.529354 
L 105.890089 128.876102 
L 106.078309 127.222849 
L 106.238902 125.569597 
L 106.379035 123.916345 
L 106.504644 122.263092 
L 106.620363 120.60984 
L 106.729606 118.956588 
L 106.834751 117.303336 
L 106.937333 115.650083 
L 107.038214 113.996831 
L 107.137702 112.343579 
L 108.862298 112.343579 
L 108.862298 112.343579 
L 108.961786 113.996831 
L 109.062667 115.650083 
L 109.165249 117.303336 
L 109.270394 118.956588 
L 109.379637 120.60984 
L 109.495356 122.263092 
L 109.620965 123.916345 
L 109.761098 125.569597 
L 109.921691 127.222849 
L 110.109911 128.876102 
L 110.333866 130.529354 
L 110.602083 132.182606 
L 110.922787 133.835858 
L 111.303045 135.489111 
L 111.747884 137.142363 
L 112.259517 138.795615 
L 112.836786 140.448868 
L 113.47496 142.10212 
L 114.165915 143.755372 
L 114.898746 145.408624 
L 115.660701 147.061877 
L 116.438352 148.715129 
L 117.218779 150.368381 
L 117.9906 152.021634 
L 118.744641 153.674886 
L 119.474163 155.328138 
L 120.174616 156.98139 
L 120.843027 158.634643 
L 121.477195 160.287895 
L 122.074908 161.941147 
L 122.633388 163.5944 
L 123.149083 165.247652 
L 123.617818 166.900904 
L 124.035216 168.554156 
L 124.397209 170.207409 
L 124.700438 171.860661 
L 124.942367 173.513913 
L 125.121038 175.167166 
L 125.234488 176.820418 
L 125.28 178.47367 
L 125.253408 180.126923 
L 125.148735 181.780175 
L 124.958387 183.433427 
L 124.674 185.086679 
L 124.287909 186.739932 
L 123.794998 188.393184 
L 123.19459 190.046436 
L 122.491932 191.699689 
L 121.698914 193.352941 
L 120.833762 195.006193 
L 119.919682 196.659445 
L 118.982649 198.312698 
L 118.048737 199.96595 
L 117.141453 201.619202 
L 116.279579 203.272455 
L 115.475822 204.925707 
L 114.736464 206.578959 
L 114.061932 208.232211 
L 113.448086 209.885464 
L 112.887886 211.538716 
L 112.373126 213.191968 
L 111.895937 214.845221 
L 111.44989 216.498473 
L 111.030606 218.151725 
L 110.63591 219.804977 
L 110.265595 221.45823 
L 109.920924 223.111482 
L 109.603998 224.764734 
L 109.317101 226.417987 
L 109.062128 228.071239 
L 108.840151 229.724491 
L 108.651175 231.377743 
L 108.494068 233.030996 
L 108.366662 234.684248 
L 108.265978 236.3375 
L 108.188514 237.990753 
L 108.130561 239.644005 
L 108.088492 241.297257 
L 108.058995 242.950509 
L 108.039239 244.603762 
L 108.026968 246.257014 
L 108.020536 247.910266 
L 108.018891 249.563519 
L 108.02153 251.216771 
L 108.028408 252.870023 
L 108.03984 254.523276 
L 108.056358 256.176528 
L 108.078554 257.82978 
L 108.106885 259.483032 
L 108.141475 261.136285 
L 108.181929 262.789537 
L 108.22718 264.442789 
L 108.275431 266.096042 
L 108.324189 267.749294 
L 108.370441 269.402546 
L 108.410931 271.055798 
L 108.442536 272.709051 
L 108.462654 274.362303 
L 108.469561 276.015555 
L 108.469561 276.015555 
z
" clip-path="url(#p1b36892d5b)" style="fill: none; stroke: #000000; stroke-opacity: 0.3"/>
   </g>
   <g id="FillBetweenPolyCollection_7">
    <path d="M 108.542496 264.482899 
L 107.457504 264.482899 
L 107.464361 262.945419 
L 107.484415 261.407938 
L 107.516185 259.870457 
L 107.5574 258.332977 
L 107.605274 256.795496 
L 107.656809 255.258016 
L 107.709107 253.720535 
L 107.759617 252.183055 
L 107.806324 250.645574 
L 107.84783 249.108094 
L 107.883353 247.570613 
L 107.912651 246.033132 
L 107.935896 244.495652 
L 107.953513 242.958171 
L 107.966016 241.420691 
L 107.973845 239.88321 
L 107.977221 238.34573 
L 107.976002 236.808249 
L 107.969572 235.270769 
L 107.956718 233.733288 
L 107.93555 232.195807 
L 107.90343 230.658327 
L 107.856958 229.120846 
L 107.792019 227.583366 
L 107.703921 226.045885 
L 107.587626 224.508405 
L 107.438092 222.970924 
L 107.250682 221.433444 
L 107.021613 219.895963 
L 106.748373 218.358482 
L 106.430027 216.821002 
L 106.067343 215.283521 
L 105.662673 213.746041 
L 105.219593 212.20856 
L 104.742312 210.67108 
L 104.234953 209.133599 
L 103.700827 207.596118 
L 103.141845 206.058638 
L 102.558198 204.521157 
L 101.9484 202.983677 
L 101.309705 201.446196 
L 100.638868 199.908716 
L 99.933112 198.371235 
L 99.191161 196.833755 
L 98.414172 195.296274 
L 97.606421 193.758793 
L 96.775663 192.221313 
L 95.933145 190.683832 
L 95.093301 189.146352 
L 94.273198 187.608871 
L 93.491832 186.071391 
L 92.76934 184.53391 
L 92.126183 182.99643 
L 91.58231 181.458949 
L 91.15631 179.921468 
L 90.864503 178.383988 
L 90.72 176.846507 
L 90.731722 175.309027 
L 90.903464 173.771546 
L 91.233109 172.234066 
L 91.712126 170.696585 
L 92.325495 169.159105 
L 93.052174 167.621624 
L 93.866155 166.084143 
L 94.738072 164.546663 
L 95.637232 163.009182 
L 96.53386 161.471702 
L 97.401288 159.934221 
L 98.217827 158.396741 
L 98.968078 156.85926 
L 99.643547 155.32178 
L 100.24251 153.784299 
L 100.769204 152.246818 
L 101.232492 150.709338 
L 101.644241 149.171857 
L 102.017628 147.634377 
L 102.365607 146.096896 
L 102.699669 144.559416 
L 103.02899 143.021935 
L 103.359974 141.484455 
L 103.696131 139.946974 
L 104.038229 138.409493 
L 104.384629 136.872013 
L 104.731726 135.334532 
L 105.074459 133.797052 
L 105.40686 132.259571 
L 105.722619 130.722091 
L 106.015664 129.18461 
L 106.28072 127.647129 
L 106.513807 126.109649 
L 106.712643 124.572168 
L 106.876875 123.034688 
L 107.008124 121.497207 
L 107.109816 119.959727 
L 107.186813 118.422246 
L 107.244888 116.884766 
L 107.290124 115.347285 
L 107.328301 113.809804 
L 107.364371 112.272324 
L 108.635629 112.272324 
L 108.635629 112.272324 
L 108.671699 113.809804 
L 108.709876 115.347285 
L 108.755112 116.884766 
L 108.813187 118.422246 
L 108.890184 119.959727 
L 108.991876 121.497207 
L 109.123125 123.034688 
L 109.287357 124.572168 
L 109.486193 126.109649 
L 109.71928 127.647129 
L 109.984336 129.18461 
L 110.277381 130.722091 
L 110.59314 132.259571 
L 110.925541 133.797052 
L 111.268274 135.334532 
L 111.615371 136.872013 
L 111.961771 138.409493 
L 112.303869 139.946974 
L 112.640026 141.484455 
L 112.97101 143.021935 
L 113.300331 144.559416 
L 113.634393 146.096896 
L 113.982372 147.634377 
L 114.355759 149.171857 
L 114.767508 150.709338 
L 115.230796 152.246818 
L 115.75749 153.784299 
L 116.356453 155.32178 
L 117.031922 156.85926 
L 117.782173 158.396741 
L 118.598712 159.934221 
L 119.46614 161.471702 
L 120.362768 163.009182 
L 121.261928 164.546663 
L 122.133845 166.084143 
L 122.947826 167.621624 
L 123.674505 169.159105 
L 124.287874 170.696585 
L 124.766891 172.234066 
L 125.096536 173.771546 
L 125.268278 175.309027 
L 125.28 176.846507 
L 125.135497 178.383988 
L 124.84369 179.921468 
L 124.41769 181.458949 
L 123.873817 182.99643 
L 123.23066 184.53391 
L 122.508168 186.071391 
L 121.726802 187.608871 
L 120.906699 189.146352 
L 120.066855 190.683832 
L 119.224337 192.221313 
L 118.393579 193.758793 
L 117.585828 195.296274 
L 116.808839 196.833755 
L 116.066888 198.371235 
L 115.361132 199.908716 
L 114.690295 201.446196 
L 114.0516 202.983677 
L 113.441802 204.521157 
L 112.858155 206.058638 
L 112.299173 207.596118 
L 111.765047 209.133599 
L 111.257688 210.67108 
L 110.780407 212.20856 
L 110.337327 213.746041 
L 109.932657 215.283521 
L 109.569973 216.821002 
L 109.251627 218.358482 
L 108.978387 219.895963 
L 108.749318 221.433444 
L 108.561908 222.970924 
L 108.412374 224.508405 
L 108.296079 226.045885 
L 108.207981 227.583366 
L 108.143042 229.120846 
L 108.09657 230.658327 
L 108.06445 232.195807 
L 108.043282 233.733288 
L 108.030428 235.270769 
L 108.023998 236.808249 
L 108.022779 238.34573 
L 108.026155 239.88321 
L 108.033984 241.420691 
L 108.046487 242.958171 
L 108.064104 244.495652 
L 108.087349 246.033132 
L 108.116647 247.570613 
L 108.15217 249.108094 
L 108.193676 250.645574 
L 108.240383 252.183055 
L 108.290893 253.720535 
L 108.343191 255.258016 
L 108.394726 256.795496 
L 108.4426 258.332977 
L 108.483815 259.870457 
L 108.515585 261.407938 
L 108.535639 262.945419 
L 108.542496 264.482899 
L 108.542496 264.482899 
z
" clip-path="url(#p1b36892d5b)" style="fill: none; stroke: #000000; stroke-opacity: 0.3"/>
   </g>
   <g id="FillBetweenPolyCollection_8">
    <path d="M 109.472919 220.676573 
L 106.527081 220.676573 
L 106.321581 219.726454 
L 106.095629 218.776335 
L 105.848316 217.826217 
L 105.579074 216.876098 
L 105.287806 215.925979 
L 104.975026 214.975861 
L 104.641983 214.025742 
L 104.290752 213.075623 
L 103.924287 212.125505 
L 103.54641 211.175386 
L 103.161732 210.225267 
L 102.775495 209.275149 
L 102.393341 208.32503 
L 102.020999 207.374911 
L 101.663933 206.424793 
L 101.326939 205.474674 
L 101.01375 204.524555 
L 100.726661 203.574437 
L 100.466225 202.624318 
L 100.231038 201.674199 
L 100.01766 200.724081 
L 99.820672 199.773962 
L 99.632898 198.823843 
L 99.44577 197.873725 
L 99.249836 196.923606 
L 99.035364 195.973488 
L 98.793014 195.023369 
L 98.51452 194.07325 
L 98.193334 193.123132 
L 97.825182 192.173013 
L 97.408479 191.222894 
L 96.944576 190.272776 
L 96.437812 189.322657 
L 95.895364 188.372538 
L 95.326905 187.42242 
L 94.744095 186.472301 
L 94.159943 185.522182 
L 93.588084 184.572064 
L 93.042035 183.621945 
L 92.534473 182.671826 
L 92.076596 181.721708 
L 91.677615 180.771589 
L 91.3444 179.82147 
L 91.08131 178.871352 
L 90.890198 177.921233 
L 90.770588 176.971114 
L 90.72 176.020996 
L 90.734359 175.070877 
L 90.808476 174.120758 
L 90.93652 173.17064 
L 91.112453 172.220521 
L 91.330387 171.270402 
L 91.58483 170.320284 
L 91.870811 169.370165 
L 92.183891 168.420046 
L 92.520081 167.469928 
L 92.875676 166.519809 
L 93.247078 165.569691 
L 93.630605 164.619572 
L 94.022362 163.669453 
L 94.418175 162.719335 
L 94.81363 161.769216 
L 95.204204 160.819097 
L 95.585489 159.868979 
L 95.953482 158.91886 
L 96.304921 157.968741 
L 96.637594 157.018623 
L 96.95062 156.068504 
L 97.244628 155.118385 
L 97.521816 154.168267 
L 97.785877 153.218148 
L 98.041781 152.268029 
L 98.295418 151.317911 
L 98.553159 150.367792 
L 98.821338 149.417673 
L 99.105738 148.467555 
L 99.411107 147.517436 
L 99.740763 146.567317 
L 100.096319 145.617199 
L 100.477558 144.66708 
L 100.882449 143.716961 
L 101.30732 142.766843 
L 101.747144 141.816724 
L 102.195917 140.866605 
L 102.647087 139.916487 
L 103.093995 138.966368 
L 103.530277 138.01625 
L 103.950226 137.066131 
L 104.349052 136.116012 
L 104.723064 135.165894 
L 105.069751 134.215775 
L 105.387768 133.265656 
L 105.676849 132.315538 
L 105.937664 131.365419 
L 106.171629 130.4153 
L 106.380699 129.465182 
L 106.567162 128.515063 
L 106.733446 127.564944 
L 106.881957 126.614826 
L 109.118043 126.614826 
L 109.118043 126.614826 
L 109.266554 127.564944 
L 109.432838 128.515063 
L 109.619301 129.465182 
L 109.828371 130.4153 
L 110.062336 131.365419 
L 110.323151 132.315538 
L 110.612232 133.265656 
L 110.930249 134.215775 
L 111.276936 135.165894 
L 111.650948 136.116012 
L 112.049774 137.066131 
L 112.469723 138.01625 
L 112.906005 138.966368 
L 113.352913 139.916487 
L 113.804083 140.866605 
L 114.252856 141.816724 
L 114.69268 142.766843 
L 115.117551 143.716961 
L 115.522442 144.66708 
L 115.903681 145.617199 
L 116.259237 146.567317 
L 116.588893 147.517436 
L 116.894262 148.467555 
L 117.178662 149.417673 
L 117.446841 150.367792 
L 117.704582 151.317911 
L 117.958219 152.268029 
L 118.214123 153.218148 
L 118.478184 154.168267 
L 118.755372 155.118385 
L 119.04938 156.068504 
L 119.362406 157.018623 
L 119.695079 157.968741 
L 120.046518 158.91886 
L 120.414511 159.868979 
L 120.795796 160.819097 
L 121.18637 161.769216 
L 121.581825 162.719335 
L 121.977638 163.669453 
L 122.369395 164.619572 
L 122.752922 165.569691 
L 123.124324 166.519809 
L 123.479919 167.469928 
L 123.816109 168.420046 
L 124.129189 169.370165 
L 124.41517 170.320284 
L 124.669613 171.270402 
L 124.887547 172.220521 
L 125.06348 173.17064 
L 125.191524 174.120758 
L 125.265641 175.070877 
L 125.28 176.020996 
L 125.229412 176.971114 
L 125.109802 177.921233 
L 124.91869 178.871352 
L 124.6556 179.82147 
L 124.322385 180.771589 
L 123.923404 181.721708 
L 123.465527 182.671826 
L 122.957965 183.621945 
L 122.411916 184.572064 
L 121.840057 185.522182 
L 121.255905 186.472301 
L 120.673095 187.42242 
L 120.104636 188.372538 
L 119.562188 189.322657 
L 119.055424 190.272776 
L 118.591521 191.222894 
L 118.174818 192.173013 
L 117.806666 193.123132 
L 117.48548 194.07325 
L 117.206986 195.023369 
L 116.964636 195.973488 
L 116.750164 196.923606 
L 116.55423 197.873725 
L 116.367102 198.823843 
L 116.179328 199.773962 
L 115.98234 200.724081 
L 115.768962 201.674199 
L 115.533775 202.624318 
L 115.273339 203.574437 
L 114.98625 204.524555 
L 114.673061 205.474674 
L 114.336067 206.424793 
L 113.979001 207.374911 
L 113.606659 208.32503 
L 113.224505 209.275149 
L 112.838268 210.225267 
L 112.45359 211.175386 
L 112.075713 212.125505 
L 111.709248 213.075623 
L 111.358017 214.025742 
L 111.024974 214.975861 
L 110.712194 215.925979 
L 110.420926 216.876098 
L 110.151684 217.826217 
L 109.904371 218.776335 
L 109.678419 219.726454 
L 109.472919 220.676573 
L 109.472919 220.676573 
z
" clip-path="url(#p1b36892d5b)" style="fill: none; stroke: #000000; stroke-opacity: 0.3"/>
   </g>
   <g id="FillBetweenPolyCollection_9">
    <path d="M 109.863832 237.51131 
L 106.136168 237.51131 
L 105.954517 236.268248 
L 105.757354 235.025187 
L 105.543195 233.782125 
L 105.31069 232.539064 
L 105.058712 231.296002 
L 104.786453 230.05294 
L 104.493494 228.809879 
L 104.179866 227.566817 
L 103.846075 226.323756 
L 103.493118 225.080694 
L 103.12245 223.837632 
L 102.735946 222.594571 
L 102.335832 221.351509 
L 101.924599 220.108448 
L 101.504911 218.865386 
L 101.079513 217.622324 
L 100.651129 216.379263 
L 100.222377 215.136201 
L 99.795687 213.89314 
L 99.373235 212.650078 
L 98.956879 211.407016 
L 98.54812 210.163955 
L 98.148058 208.920893 
L 97.757379 207.677832 
L 97.376335 206.43477 
L 97.004755 205.191708 
L 96.642065 203.948647 
L 96.287331 202.705585 
L 95.939326 201.462524 
L 95.596621 200.219462 
L 95.257702 198.976401 
L 94.921108 197.733339 
L 94.585587 196.490277 
L 94.250262 195.247216 
L 93.914784 194.004154 
L 93.579484 192.761093 
L 93.245479 191.518031 
L 92.91475 190.274969 
L 92.590159 189.031908 
L 92.275417 187.788846 
L 91.974982 186.545785 
L 91.693916 185.302723 
L 91.437689 184.059661 
L 91.211952 182.8166 
L 91.022296 181.573538 
L 90.874016 180.330477 
L 90.771891 179.087415 
L 90.72 177.844353 
L 90.72158 176.601292 
L 90.778937 175.35823 
L 90.893408 174.115169 
L 91.065364 172.872107 
L 91.294259 171.629045 
L 91.578694 170.385984 
L 91.91651 169.142922 
L 92.30487 167.899861 
L 92.740344 166.656799 
L 93.218981 165.413738 
L 93.736366 164.170676 
L 94.28767 162.927614 
L 94.86769 161.684553 
L 95.470891 160.441491 
L 96.091464 159.19843 
L 96.723389 157.955368 
L 97.360529 156.712306 
L 97.996747 155.469245 
L 98.626033 154.226183 
L 99.242665 152.983122 
L 99.841358 151.74006 
L 100.417419 150.496998 
L 100.966879 149.253937 
L 101.4866 148.010875 
L 101.974338 146.767814 
L 102.428764 145.524752 
L 102.849435 144.28169 
L 103.236718 143.038629 
L 103.591677 141.795567 
L 103.915927 140.552506 
L 104.211474 139.309444 
L 104.480551 138.066382 
L 104.725463 136.823321 
L 104.948453 135.580259 
L 105.151605 134.337198 
L 105.336778 133.094136 
L 105.505578 131.851075 
L 105.659369 130.608013 
L 105.799308 129.364951 
L 105.926406 128.12189 
L 106.041595 126.878828 
L 106.145796 125.635767 
L 106.239977 124.392705 
L 106.3252 123.149643 
L 106.402635 121.906582 
L 106.47356 120.66352 
L 106.539336 119.420459 
L 106.601357 118.177397 
L 106.660997 116.934335 
L 106.719541 115.691274 
L 106.778118 114.448212 
L 109.221882 114.448212 
L 109.221882 114.448212 
L 109.280459 115.691274 
L 109.339003 116.934335 
L 109.398643 118.177397 
L 109.460664 119.420459 
L 109.52644 120.66352 
L 109.597365 121.906582 
L 109.6748 123.149643 
L 109.760023 124.392705 
L 109.854204 125.635767 
L 109.958405 126.878828 
L 110.073594 128.12189 
L 110.200692 129.364951 
L 110.340631 130.608013 
L 110.494422 131.851075 
L 110.663222 133.094136 
L 110.848395 134.337198 
L 111.051547 135.580259 
L 111.274537 136.823321 
L 111.519449 138.066382 
L 111.788526 139.309444 
L 112.084073 140.552506 
L 112.408323 141.795567 
L 112.763282 143.038629 
L 113.150565 144.28169 
L 113.571236 145.524752 
L 114.025662 146.767814 
L 114.5134 148.010875 
L 115.033121 149.253937 
L 115.582581 150.496998 
L 116.158642 151.74006 
L 116.757335 152.983122 
L 117.373967 154.226183 
L 118.003253 155.469245 
L 118.639471 156.712306 
L 119.276611 157.955368 
L 119.908536 159.19843 
L 120.529109 160.441491 
L 121.13231 161.684553 
L 121.71233 162.927614 
L 122.263634 164.170676 
L 122.781019 165.413738 
L 123.259656 166.656799 
L 123.69513 167.899861 
L 124.08349 169.142922 
L 124.421306 170.385984 
L 124.705741 171.629045 
L 124.934636 172.872107 
L 125.106592 174.115169 
L 125.221063 175.35823 
L 125.27842 176.601292 
L 125.28 177.844353 
L 125.228109 179.087415 
L 125.125984 180.330477 
L 124.977704 181.573538 
L 124.788048 182.8166 
L 124.562311 184.059661 
L 124.306084 185.302723 
L 124.025018 186.545785 
L 123.724583 187.788846 
L 123.409841 189.031908 
L 123.08525 190.274969 
L 122.754521 191.518031 
L 122.420516 192.761093 
L 122.085216 194.004154 
L 121.749738 195.247216 
L 121.414413 196.490277 
L 121.078892 197.733339 
L 120.742298 198.976401 
L 120.403379 200.219462 
L 120.060674 201.462524 
L 119.712669 202.705585 
L 119.357935 203.948647 
L 118.995245 205.191708 
L 118.623665 206.43477 
L 118.242621 207.677832 
L 117.851942 208.920893 
L 117.45188 210.163955 
L 117.043121 211.407016 
L 116.626765 212.650078 
L 116.204313 213.89314 
L 115.777623 215.136201 
L 115.348871 216.379263 
L 114.920487 217.622324 
L 114.495089 218.865386 
L 114.075401 220.108448 
L 113.664168 221.351509 
L 113.264054 222.594571 
L 112.87755 223.837632 
L 112.506882 225.080694 
L 112.153925 226.323756 
L 111.820134 227.566817 
L 111.506506 228.809879 
L 111.213547 230.05294 
L 110.941288 231.296002 
L 110.68931 232.539064 
L 110.456805 233.782125 
L 110.242646 235.025187 
L 110.045483 236.268248 
L 109.863832 237.51131 
L 109.863832 237.51131 
z
" clip-path="url(#p1b36892d5b)" style="fill: none; stroke: #000000; stroke-opacity: 0.3"/>
   </g>
   <g id="matplotlib.axis_1"/>
   <g id="matplotlib.axis_2">
    <g id="ytick_1">
     <g id="line2d_1">
      <defs>
       <path id="mefcbce857f" d="M 0 0 
L -3.5 0 
" style="stroke: #000000; stroke-width: 0.8"/>
      </defs>
      <g>
       <use xlink:href="#mefcbce857f" x="21.6" y="291.6" style="stroke: #000000; stroke-width: 0.8"/>
      </g>
     </g>
    </g>
    <g id="ytick_2">
     <g id="line2d_2">
      <g>
       <use xlink:href="#mefcbce857f" x="21.6" y="199.8" style="stroke: #000000; stroke-width: 0.8"/>
      </g>
     </g>
    </g>
    <g id="ytick_3">
     <g id="line2d_3">
      <g>
       <use xlink:href="#mefcbce857f" x="21.6" y="108" style="stroke: #000000; stroke-width: 0.8"/>
      </g>
     </g>
    </g>
    <g id="ytick_4">
     <g id="line2d_4">
      <g>
       <use xlink:href="#mefcbce857f" x="21.6" y="16.2" style="stroke: #000000; stroke-width: 0.8"/>
      </g>
     </g>
    </g>
   </g>
   <g id="line2d_5">
    <path d="M 50.4 269.568 
L 50.4 264.06 
" clip-path="url(#p1b36892d5b)" style="fill: none; stroke: #000000; stroke-linecap: square"/>
   </g>
   <g id="line2d_6">
    <path d="M 50.4 269.568 
L 108 269.568 
" clip-path="url(#p1b36892d5b)" style="fill: none; stroke: #000000; stroke-linecap: square"/>
   </g>
   <g id="line2d_7">
    <path d="M 108 269.568 
L 108 264.06 
" clip-path="url(#p1b36892d5b)" style="fill: none; stroke: #000000; stroke-linecap: square"/>
   </g>
   <g id="patch_3">
    <path d="M 21.6 291.6 
L 21.6 16.2 
" style="fill: none; stroke: #000000; stroke-width: 0.8; stroke-linejoin: miter; stroke-linecap: square"/>
   </g>
   <g id="patch_4">
    <path d="M 136.8 291.6 
L 136.8 16.2 
" style="fill: none; stroke: #000000; stroke-width: 0.8; stroke-linejoin: miter; stroke-linecap: square"/>
   </g>
   <g id="patch_5">
    <path d="M 21.6 291.6 
L 136.8 291.6 
" style="fill: none; stroke: #000000; stroke-width: 0.8; stroke-linejoin: miter; stroke-linecap: square"/>
   </g>
   <g id="patch_6">
    <path d="M 21.6 16.2 
L 136.8 16.2 
" style="fill: none; stroke: #000000; stroke-width: 0.8; stroke-linejoin: miter; stroke-linecap: square"/>
   </g>
   <g id="text_1">
    <text style="font-weight: 700; font-size: 12px; font-family: 'DejaVu Sans', 'Bitstream Vera Sans', 'Computer Modern Sans Serif', 'Lucida Grande', 'Verdana', 'Geneva', 'Lucid', 'Arial', 'Helvetica', 'Avant Garde', sans-serif; text-anchor: middle" x="50.4" y="289.104375" transform="rotate(-0 50.4 289.104375)">#20</text>
   </g>
   <g id="text_2">
    <text style="font-weight: 700; font-size: 12px; font-family: 'DejaVu Sans', 'Bitstream Vera Sans', 'Computer Modern Sans Serif', 'Lucida Grande', 'Verdana', 'Geneva', 'Lucid', 'Arial', 'Helvetica', 'Avant Garde', sans-serif; text-anchor: middle" x="108" y="289.104375" transform="rotate(-0 108 289.104375)">#26</text>
   </g>
   <g id="text_3">
    <text style="font-size: 12px; font-family: 'DejaVu Sans', 'Bitstream Vera Sans', 'Computer Modern Sans Serif', 'Lucida Grande', 'Verdana', 'Geneva', 'Lucid', 'Arial', 'Helvetica', 'Avant Garde', sans-serif; text-anchor: middle" x="79.2" y="268.449375" transform="rotate(-0 79.2 268.449375)">ns</text>
   </g>
   <g id="line2d_8">
    <path d="M 21.6 169.77183 
L 136.8 169.77183 
" clip-path="url(#p1b36892d5b)" style="fill: none; stroke-dasharray: 3.7,1.6; stroke-dashoffset: 0; stroke: #808080; stroke-opacity: 0.7"/>
   </g>
   <g id="line2d_9">
    <path d="M 21.6 174.832136 
L 136.8 174.832136 
" clip-path="url(#p1b36892d5b)" style="fill: none; stroke-dasharray: 3.7,1.6; stroke-dashoffset: 0; stroke: #808080; stroke-opacity: 0.7"/>
   </g>
   <g id="LineCollection_1">
    <path d="M 50.4 176.5898 
L 50.4 162.95386 
" clip-path="url(#p1b36892d5b)" style="fill: none; stroke: #000000; stroke-width: 2"/>
   </g>
   <g id="line2d_10">
    <defs>
     <path id="m8bbf2bc78d" d="M 5 0 
L -5 -0 
" style="stroke: #000000; stroke-width: 2"/>
    </defs>
    <g clip-path="url(#p1b36892d5b)">
     <use xlink:href="#m8bbf2bc78d" x="50.4" y="176.5898" style="stroke: #000000; stroke-width: 2"/>
    </g>
   </g>
   <g id="line2d_11">
    <g clip-path="url(#p1b36892d5b)">
     <use xlink:href="#m8bbf2bc78d" x="50.4" y="162.95386" style="stroke: #000000; stroke-width: 2"/>
    </g>
   </g>
   <g id="LineCollection_2">
    <path d="M 108 177.885501 
L 108 171.77877 
" clip-path="url(#p1b36892d5b)" style="fill: none; stroke: #000000; stroke-width: 2"/>
   </g>
   <g id="line2d_12">
    <g clip-path="url(#p1b36892d5b)">
     <use xlink:href="#m8bbf2bc78d" x="108" y="177.885501" style="stroke: #000000; stroke-width: 2"/>
    </g>
   </g>
   <g id="line2d_13">
    <g clip-path="url(#p1b36892d5b)">
     <use xlink:href="#m8bbf2bc78d" x="108" y="171.77877" style="stroke: #000000; stroke-width: 2"/>
    </g>
   </g>
   <g id="line2d_14">
    <defs>
     <path id="m163e8ff944" d="M 0 4 
C 1.060812 4 2.078319 3.578535 2.828427 2.828427 
C 3.578535 2.078319 4 1.060812 4 0 
C 4 -1.060812 3.578535 -2.078319 2.828427 -2.828427 
C 2.078319 -3.578535 1.060812 -4 0 -4 
C -1.060812 -4 -2.078319 -3.578535 -2.828427 -2.828427 
C -3.578535 -2.078319 -4 -1.060812 -4 0 
C -4 1.060812 -3.578535 2.078319 -2.828427 2.828427 
C -2.078319 3.578535 -1.060812 4 0 4 
z
" style="stroke: #000000"/>
    </defs>
    <g clip-path="url(#p1b36892d5b)">
     <use xlink:href="#m163e8ff944" x="50.4" y="169.77183" style="stroke: #000000"/>
    </g>
   </g>
   <g id="line2d_15">
    <g clip-path="url(#p1b36892d5b)">
     <use xlink:href="#m163e8ff944" x="108" y="174.832136" style="stroke: #000000"/>
    </g>
   </g>
  </g>
 </g>
 <defs>
  <clipPath id="p1b36892d5b">
   <rect x="21.6" y="16.2" width="115.2" height="275.4"/>
  </clipPath>
 </defs>
</svg>
