<?xml version="1.0" encoding="utf-8" standalone="no"?>
<!DOCTYPE svg PUBLIC "-//W3C//DTD SVG 1.1//EN"
  "http://www.w3.org/Graphics/SVG/1.1/DTD/svg11.dtd">
<svg xmlns:xlink="http://www.w3.org/1999/xlink" width="144pt" height="324pt" viewBox="0 0 144 324" xmlns="http://www.w3.org/2000/svg" version="1.1">
 <metadata>
  <rdf:RDF xmlns:dc="http://purl.org/dc/elements/1.1/" xmlns:cc="http://creativecommons.org/ns#" xmlns:rdf="http://www.w3.org/1999/02/22-rdf-syntax-ns#">
   <cc:Work>
    <dc:type rdf:resource="http://purl.org/dc/dcmitype/StillImage"/>
    <dc:date>2025-12-08T20:10:26.974995</dc:date>
    <dc:format>image/svg+xml</dc:format>
    <dc:creator>
     <cc:Agent>
      <dc:title>Matplotlib v3.10.0, https://matplotlib.org/</dc:title>
     </cc:Agent>
    </dc:creator>
   </cc:Work>
  </rdf:RDF>
 </metadata>
 <defs>
  <style type="text/css">*{stroke-linejoin: round; stroke-linecap: butt}</style>
 </defs>
 <g id="figure_1">
  <g id="patch_1">
   <path d="M 0 324 
L 144 324 
L 144 0 
L 0 0 
z
" style="fill: #ffffff"/>
  </g>
  <g id="axes_1">
   <g id="patch_2">
    <path d="M 21.6 291.6 
L 136.8 291.6 
L 136.8 16.2 
L 21.6 16.2 
z
" style="fill: #ffffff"/>
   </g>
   <g id="FillBetweenPolyCollection_1">
    <path d="M 53.21117 219.540021 
L 39.734285 219.540021 
L 39.37622 218.575805 
L 39.020316 217.611589 
L 38.667473 216.647373 
L 38.318487 215.683157 
L 37.97406 214.718942 
L 37.634823 213.754726 
L 37.301361 212.79051 
L 36.974236 211.826294 
L 36.654019 210.862079 
L 36.34131 209.897863 
L 36.036757 208.933647 
L 35.741074 207.969431 
L 35.455041 207.005216 
L 35.179505 206.041 
L 34.915365 205.076784 
L 34.663553 204.112568 
L 34.425001 203.148352 
L 34.200601 202.184137 
L 33.991165 201.219921 
L 33.797369 200.255705 
L 33.619709 199.291489 
L 33.458444 198.327274 
L 33.313553 197.363058 
L 33.184693 196.398842 
L 33.071166 195.434626 
L 32.971896 194.470411 
L 32.88542 193.506195 
L 32.809895 192.541979 
L 32.743113 191.577763 
L 32.682538 190.613548 
L 32.625353 189.649332 
L 32.568523 188.685116 
L 32.508872 187.7209 
L 32.443162 186.756684 
L 32.368192 185.792469 
L 32.28089 184.828253 
L 32.178415 183.864037 
L 32.058254 182.899821 
L 31.918312 181.935606 
L 31.757 180.97139 
L 31.573304 180.007174 
L 31.366847 179.042958 
L 31.13793 178.078743 
L 30.887556 177.114527 
L 30.617435 176.150311 
L 30.329966 175.186095 
L 30.028202 174.221879 
L 29.715793 173.257664 
L 29.396912 172.293448 
L 29.076164 171.329232 
L 28.758483 170.365016 
L 28.449018 169.400801 
L 28.153009 168.436585 
L 27.87567 167.472369 
L 27.622063 166.508153 
L 27.396984 165.543938 
L 27.204855 164.579722 
L 27.049631 163.615506 
L 26.934719 162.65129 
L 26.862915 161.687075 
L 26.836364 160.722859 
L 26.856531 159.758643 
L 26.9242 158.794427 
L 27.03948 157.830211 
L 27.20184 156.865996 
L 27.410144 155.90178 
L 27.662711 154.937564 
L 27.957374 153.973348 
L 28.291546 153.009133 
L 28.662296 152.044917 
L 29.066416 151.080701 
L 29.500491 150.116485 
L 29.960967 149.15227 
L 30.44421 148.188054 
L 30.946565 147.223838 
L 31.4644 146.259622 
L 31.994156 145.295407 
L 32.53238 144.331191 
L 33.075763 143.366975 
L 33.621165 142.402759 
L 34.16564 141.438543 
L 34.706459 140.474328 
L 35.241125 139.510112 
L 35.767394 138.545896 
L 36.283281 137.58168 
L 36.78707 136.617465 
L 37.277324 135.653249 
L 37.75288 134.689033 
L 38.212852 133.724817 
L 38.656617 132.760602 
L 39.083807 131.796386 
L 39.494289 130.83217 
L 39.888142 129.867954 
L 40.26563 128.903738 
L 40.627174 127.939523 
L 40.973314 126.975307 
L 41.304679 126.011091 
L 41.621951 125.046875 
L 41.925832 124.08266 
L 51.019623 124.08266 
L 51.019623 124.08266 
L 51.323503 125.046875 
L 51.640775 126.011091 
L 51.97214 126.975307 
L 52.31828 127.939523 
L 52.679824 128.903738 
L 53.057313 129.867954 
L 53.451166 130.83217 
L 53.861648 131.796386 
L 54.288838 132.760602 
L 54.732603 133.724817 
L 55.192574 134.689033 
L 55.668131 135.653249 
L 56.158385 136.617465 
L 56.662174 137.58168 
L 57.17806 138.545896 
L 57.704329 139.510112 
L 58.238996 140.474328 
L 58.779814 141.438543 
L 59.324289 142.402759 
L 59.869691 143.366975 
L 60.413074 144.331191 
L 60.951299 145.295407 
L 61.481055 146.259622 
L 61.99889 147.223838 
L 62.501244 148.188054 
L 62.984488 149.15227 
L 63.444964 150.116485 
L 63.879039 151.080701 
L 64.283158 152.044917 
L 64.653909 153.009133 
L 64.988081 153.973348 
L 65.282744 154.937564 
L 65.535311 155.90178 
L 65.743615 156.865996 
L 65.905974 157.830211 
L 66.021255 158.794427 
L 66.088923 159.758643 
L 66.109091 160.722859 
L 66.08254 161.687075 
L 66.010736 162.65129 
L 65.895823 163.615506 
L 65.740599 164.579722 
L 65.54847 165.543938 
L 65.323392 166.508153 
L 65.069785 167.472369 
L 64.792446 168.436585 
L 64.496437 169.400801 
L 64.186971 170.365016 
L 63.869291 171.329232 
L 63.548543 172.293448 
L 63.229662 173.257664 
L 62.917253 174.221879 
L 62.615488 175.186095 
L 62.328019 176.150311 
L 62.057898 177.114527 
L 61.807524 178.078743 
L 61.578608 179.042958 
L 61.372151 180.007174 
L 61.188455 180.97139 
L 61.027142 181.935606 
L 60.8872 182.899821 
L 60.767039 183.864037 
L 60.664564 184.828253 
L 60.577263 185.792469 
L 60.502292 186.756684 
L 60.436583 187.7209 
L 60.376931 188.685116 
L 60.320102 189.649332 
L 60.262917 190.613548 
L 60.202341 191.577763 
L 60.135559 192.541979 
L 60.060034 193.506195 
L 59.973559 194.470411 
L 59.874289 195.434626 
L 59.760761 196.398842 
L 59.631902 197.363058 
L 59.487011 198.327274 
L 59.325746 199.291489 
L 59.148085 200.255705 
L 58.95429 201.219921 
L 58.744853 202.184137 
L 58.520454 203.148352 
L 58.281901 204.112568 
L 58.030089 205.076784 
L 57.76595 206.041 
L 57.490414 207.005216 
L 57.20438 207.969431 
L 56.908697 208.933647 
L 56.604145 209.897863 
L 56.291435 210.862079 
L 55.971218 211.826294 
L 55.644094 212.79051 
L 55.310631 213.754726 
L 54.971394 214.718942 
L 54.626968 215.683157 
L 54.277982 216.647373 
L 53.925139 217.611589 
L 53.569234 218.575805 
L 53.21117 219.540021 
L 53.21117 219.540021 
z
" clip-path="url(#p1770dedf80)" style="fill: none; stroke: #000000; stroke-opacity: 0.3"/>
   </g>
   <g id="FillBetweenPolyCollection_2">
    <path d="M 49.955961 238.897301 
L 42.989493 238.897301 
L 42.808889 237.706841 
L 42.625827 236.51638 
L 42.440101 235.32592 
L 42.251425 234.135459 
L 42.059453 232.944999 
L 41.863788 231.754538 
L 41.664005 230.564078 
L 41.459671 229.373617 
L 41.250363 228.183157 
L 41.035695 226.992696 
L 40.815336 225.802236 
L 40.589028 224.611775 
L 40.356606 223.421315 
L 40.118007 222.230854 
L 39.87328 221.040393 
L 39.622588 219.849933 
L 39.366205 218.659472 
L 39.10451 217.469012 
L 38.837974 216.278551 
L 38.567142 215.088091 
L 38.292613 213.89763 
L 38.015013 212.70717 
L 37.734973 211.516709 
L 37.453099 210.326249 
L 37.16995 209.135788 
L 36.88601 207.945328 
L 36.601673 206.754867 
L 36.317223 205.564407 
L 36.032826 204.373946 
L 35.748528 203.183485 
L 35.464253 201.993025 
L 35.179816 200.802564 
L 34.89494 199.612104 
L 34.609275 198.421643 
L 34.322428 197.231183 
L 34.03399 196.040722 
L 33.743578 194.850262 
L 33.450861 193.659801 
L 33.155601 192.469341 
L 32.857687 191.27888 
L 32.557156 190.08842 
L 32.254228 188.897959 
L 31.949315 187.707499 
L 31.643034 186.517038 
L 31.33621 185.326577 
L 31.029867 184.136117 
L 30.725211 182.945656 
L 30.423611 181.755196 
L 30.126557 180.564735 
L 29.835632 179.374275 
L 29.552459 178.183814 
L 29.278661 176.993354 
L 29.015805 175.802893 
L 28.765361 174.612433 
L 28.52865 173.421972 
L 28.306807 172.231512 
L 28.100747 171.041051 
L 27.91114 169.850591 
L 27.73839 168.66013 
L 27.582641 167.469669 
L 27.443774 166.279209 
L 27.321428 165.088748 
L 27.215031 163.898288 
L 27.123838 162.707827 
L 27.046978 161.517367 
L 26.983506 160.326906 
L 26.932466 159.136446 
L 26.892948 157.945985 
L 26.864148 156.755525 
L 26.845428 155.565064 
L 26.836364 154.374604 
L 26.836791 153.184143 
L 26.846837 151.993683 
L 26.866942 150.803222 
L 26.897872 149.612762 
L 26.94071 148.422301 
L 26.996841 147.23184 
L 27.067921 146.04138 
L 27.155836 144.850919 
L 27.262643 143.660459 
L 27.390513 142.469998 
L 27.541659 141.279538 
L 27.718259 140.089077 
L 27.922387 138.898617 
L 28.155931 137.708156 
L 28.420523 136.517696 
L 28.717472 135.327235 
L 29.047707 134.136775 
L 29.411723 132.946314 
L 29.809549 131.755854 
L 30.240717 130.565393 
L 30.704253 129.374932 
L 31.198679 128.184472 
L 31.722023 126.994011 
L 32.271853 125.803551 
L 32.845312 124.61309 
L 33.43917 123.42263 
L 34.049882 122.232169 
L 34.673655 121.041709 
L 58.271799 121.041709 
L 58.271799 121.041709 
L 58.895573 122.232169 
L 59.506285 123.42263 
L 60.100142 124.61309 
L 60.673601 125.803551 
L 61.223431 126.994011 
L 61.746776 128.184472 
L 62.241201 129.374932 
L 62.704738 130.565393 
L 63.135906 131.755854 
L 63.533731 132.946314 
L 63.897748 134.136775 
L 64.227982 135.327235 
L 64.524932 136.517696 
L 64.789524 137.708156 
L 65.023067 138.898617 
L 65.227195 140.089077 
L 65.403796 141.279538 
L 65.554941 142.469998 
L 65.682811 143.660459 
L 65.789618 144.850919 
L 65.877533 146.04138 
L 65.948614 147.23184 
L 66.004745 148.422301 
L 66.047583 149.612762 
L 66.078512 150.803222 
L 66.098618 151.993683 
L 66.108664 153.184143 
L 66.109091 154.374604 
L 66.100027 155.565064 
L 66.081307 156.755525 
L 66.052507 157.945985 
L 66.012988 159.136446 
L 65.961948 160.326906 
L 65.898477 161.517367 
L 65.821616 162.707827 
L 65.730424 163.898288 
L 65.624027 165.088748 
L 65.501681 166.279209 
L 65.362813 167.469669 
L 65.207064 168.66013 
L 65.034315 169.850591 
L 64.844707 171.041051 
L 64.638647 172.231512 
L 64.416805 173.421972 
L 64.180094 174.612433 
L 63.929649 175.802893 
L 63.666794 176.993354 
L 63.392995 178.183814 
L 63.109823 179.374275 
L 62.818897 180.564735 
L 62.521844 181.755196 
L 62.220243 182.945656 
L 61.915588 184.136117 
L 61.609245 185.326577 
L 61.302421 186.517038 
L 60.99614 187.707499 
L 60.691227 188.897959 
L 60.388298 190.08842 
L 60.087768 191.27888 
L 59.789853 192.469341 
L 59.494594 193.659801 
L 59.201877 194.850262 
L 58.911464 196.040722 
L 58.623027 197.231183 
L 58.336179 198.421643 
L 58.050514 199.612104 
L 57.765639 200.802564 
L 57.481202 201.993025 
L 57.196927 203.183485 
L 56.912628 204.373946 
L 56.628232 205.564407 
L 56.343781 206.754867 
L 56.059444 207.945328 
L 55.775505 209.135788 
L 55.492355 210.326249 
L 55.210482 211.516709 
L 54.930442 212.70717 
L 54.652842 213.89763 
L 54.378312 215.088091 
L 54.107481 216.278551 
L 53.840945 217.469012 
L 53.57925 218.659472 
L 53.322867 219.849933 
L 53.072174 221.040393 
L 52.827447 222.230854 
L 52.588848 223.421315 
L 52.356427 224.611775 
L 52.130119 225.802236 
L 51.909759 226.992696 
L 51.695091 228.183157 
L 51.485784 229.373617 
L 51.281449 230.564078 
L 51.081667 231.754538 
L 50.886002 232.944999 
L 50.694029 234.135459 
L 50.505354 235.32592 
L 50.319627 236.51638 
L 50.136566 237.706841 
L 49.955961 238.897301 
L 49.955961 238.897301 
z
" clip-path="url(#p1770dedf80)" style="fill: none; stroke: #000000; stroke-opacity: 0.3"/>
   </g>
   <g id="FillBetweenPolyCollection_3">
    <path d="M 48.17655 244.063909 
L 44.768904 244.063909 
L 44.689855 242.865038 
L 44.609489 241.666167 
L 44.526584 240.467296 
L 44.439787 239.268425 
L 44.347671 238.069554 
L 44.24879 236.870683 
L 44.141747 235.671811 
L 44.025237 234.47294 
L 43.898099 233.274069 
L 43.759338 232.075198 
L 43.608138 230.876327 
L 43.443857 229.677456 
L 43.265998 228.478585 
L 43.074166 227.279714 
L 42.868014 226.080843 
L 42.647177 224.881971 
L 42.4112 223.6831 
L 42.159477 222.484229 
L 41.891197 221.285358 
L 41.605305 220.086487 
L 41.300488 218.887616 
L 40.97519 217.688745 
L 40.627658 216.489874 
L 40.25601 215.291003 
L 39.858348 214.092132 
L 39.432883 212.89326 
L 38.978083 211.694389 
L 38.49284 210.495518 
L 37.976629 209.296647 
L 37.429659 208.097776 
L 36.853013 206.898905 
L 36.248749 205.700034 
L 35.619963 204.501163 
L 34.970808 203.302292 
L 34.306457 202.103421 
L 33.633013 200.904549 
L 32.957361 199.705678 
L 32.286976 198.506807 
L 31.629686 197.307936 
L 30.993399 196.109065 
L 30.385819 194.910194 
L 29.814149 193.711323 
L 29.284821 192.512452 
L 28.803234 191.313581 
L 28.373555 190.11471 
L 27.998556 188.915838 
L 27.679536 187.716967 
L 27.416297 186.518096 
L 27.207199 185.319225 
L 27.049291 184.120354 
L 26.938493 182.921483 
L 26.86984 181.722612 
L 26.837759 180.523741 
L 26.836364 179.32487 
L 26.859761 178.125999 
L 26.902336 176.927127 
L 26.959011 175.728256 
L 27.025455 174.529385 
L 27.098244 173.330514 
L 27.174956 172.131643 
L 27.254205 170.932772 
L 27.33561 169.733901 
L 27.419715 168.53503 
L 27.507858 167.336159 
L 27.602007 166.137288 
L 27.704582 164.938416 
L 27.818263 163.739545 
L 27.945812 162.540674 
L 28.089908 161.341803 
L 28.253009 160.142932 
L 28.437248 158.944061 
L 28.644365 157.74519 
L 28.875672 156.546319 
L 29.132041 155.347448 
L 29.413933 154.148576 
L 29.721431 152.949705 
L 30.054293 151.750834 
L 30.412006 150.551963 
L 30.793831 149.353092 
L 31.198857 148.154221 
L 31.626024 146.95535 
L 32.074149 145.756479 
L 32.541931 144.557608 
L 33.027947 143.358737 
L 33.530643 142.159865 
L 34.048318 140.960994 
L 34.57911 139.762123 
L 35.120983 138.563252 
L 35.671721 137.364381 
L 36.228935 136.16551 
L 36.790076 134.966639 
L 37.352462 133.767768 
L 37.913309 132.568897 
L 38.469781 131.370026 
L 39.019036 130.171154 
L 39.558278 128.972283 
L 40.084815 127.773412 
L 40.596112 126.574541 
L 41.089831 125.37567 
L 51.855623 125.37567 
L 51.855623 125.37567 
L 52.349343 126.574541 
L 52.860639 127.773412 
L 53.387177 128.972283 
L 53.926419 130.171154 
L 54.475673 131.370026 
L 55.032145 132.568897 
L 55.592993 133.767768 
L 56.155378 134.966639 
L 56.71652 136.16551 
L 57.273734 137.364381 
L 57.824472 138.563252 
L 58.366344 139.762123 
L 58.897136 140.960994 
L 59.414812 142.159865 
L 59.917508 143.358737 
L 60.403524 144.557608 
L 60.871305 145.756479 
L 61.31943 146.95535 
L 61.746598 148.154221 
L 62.151623 149.353092 
L 62.533449 150.551963 
L 62.891161 151.750834 
L 63.224024 152.949705 
L 63.531522 154.148576 
L 63.813414 155.347448 
L 64.069783 156.546319 
L 64.301089 157.74519 
L 64.508207 158.944061 
L 64.692446 160.142932 
L 64.855546 161.341803 
L 64.999642 162.540674 
L 65.127192 163.739545 
L 65.240873 164.938416 
L 65.343448 166.137288 
L 65.437597 167.336159 
L 65.525739 168.53503 
L 65.609845 169.733901 
L 65.69125 170.932772 
L 65.770499 172.131643 
L 65.847211 173.330514 
L 65.919999 174.529385 
L 65.986443 175.728256 
L 66.043118 176.927127 
L 66.085694 178.125999 
L 66.109091 179.32487 
L 66.107696 180.523741 
L 66.075614 181.722612 
L 66.006962 182.921483 
L 65.896164 184.120354 
L 65.738256 185.319225 
L 65.529158 186.518096 
L 65.265918 187.716967 
L 64.946898 188.915838 
L 64.5719 190.11471 
L 64.14222 191.313581 
L 63.660634 192.512452 
L 63.131305 193.711323 
L 62.559636 194.910194 
L 61.952055 196.109065 
L 61.315768 197.307936 
L 60.658478 198.506807 
L 59.988094 199.705678 
L 59.312442 200.904549 
L 58.638997 202.103421 
L 57.974646 203.302292 
L 57.325491 204.501163 
L 56.696705 205.700034 
L 56.092441 206.898905 
L 55.515796 208.097776 
L 54.968826 209.296647 
L 54.452614 210.495518 
L 53.967372 211.694389 
L 53.512572 212.89326 
L 53.087106 214.092132 
L 52.689444 215.291003 
L 52.317797 216.489874 
L 51.970264 217.688745 
L 51.644967 218.887616 
L 51.34015 220.086487 
L 51.054258 221.285358 
L 50.785978 222.484229 
L 50.534255 223.6831 
L 50.298278 224.881971 
L 50.07744 226.080843 
L 49.871289 227.279714 
L 49.679457 228.478585 
L 49.501598 229.677456 
L 49.337316 230.876327 
L 49.186117 232.075198 
L 49.047355 233.274069 
L 48.920217 234.47294 
L 48.803708 235.671811 
L 48.696664 236.870683 
L 48.597784 238.069554 
L 48.505667 239.268425 
L 48.418871 240.467296 
L 48.335966 241.666167 
L 48.255599 242.865038 
L 48.17655 244.063909 
L 48.17655 244.063909 
z
" clip-path="url(#p1770dedf80)" style="fill: none; stroke: #000000; stroke-opacity: 0.3"/>
   </g>
   <g id="FillBetweenPolyCollection_4">
    <path d="M 57.58365 183.30937 
L 35.361805 183.30937 
L 34.926255 182.822027 
L 34.503936 182.334683 
L 34.096944 181.84734 
L 33.707234 181.359996 
L 33.336593 180.872653 
L 32.986609 180.38531 
L 32.658652 179.897966 
L 32.353849 179.410623 
L 32.073071 178.923279 
L 31.816916 178.435936 
L 31.585702 177.948592 
L 31.379464 177.461249 
L 31.19795 176.973905 
L 31.040629 176.486562 
L 30.9067 175.999219 
L 30.795103 175.511875 
L 30.704537 175.024532 
L 30.633485 174.537188 
L 30.580233 174.049845 
L 30.542899 173.562501 
L 30.519465 173.075158 
L 30.507803 172.587814 
L 30.505711 172.100471 
L 30.510947 171.613128 
L 30.521255 171.125784 
L 30.534405 170.638441 
L 30.548217 170.151097 
L 30.560593 169.663754 
L 30.569545 169.17641 
L 30.573217 168.689067 
L 30.56991 168.201723 
L 30.558099 167.71438 
L 30.536448 167.227036 
L 30.503827 166.739693 
L 30.459319 166.25235 
L 30.402229 165.765006 
L 30.332084 165.277663 
L 30.248643 164.790319 
L 30.151888 164.302976 
L 30.042025 163.815632 
L 29.919477 163.328289 
L 29.784879 162.840945 
L 29.639067 162.353602 
L 29.483067 161.866259 
L 29.318088 161.378915 
L 29.1455 160.891572 
L 28.966828 160.404228 
L 28.783733 159.916885 
L 28.597995 159.429541 
L 28.411495 158.942198 
L 28.2262 158.454854 
L 28.044137 157.967511 
L 27.867381 157.480168 
L 27.698029 156.992824 
L 27.538176 156.505481 
L 27.389903 156.018137 
L 27.255242 155.530794 
L 27.136167 155.04345 
L 27.03456 154.556107 
L 26.952201 154.068763 
L 26.89074 153.58142 
L 26.851681 153.094077 
L 26.836364 152.606733 
L 26.845949 152.11939 
L 26.881406 151.632046 
L 26.943499 151.144703 
L 27.032779 150.657359 
L 27.149582 150.170016 
L 27.294024 149.682672 
L 27.466002 149.195329 
L 27.665195 148.707986 
L 27.891077 148.220642 
L 28.142922 147.733299 
L 28.419815 147.245955 
L 28.720671 146.758612 
L 29.044247 146.271268 
L 29.389162 145.783925 
L 29.753918 145.296581 
L 30.136916 144.809238 
L 30.53648 144.321895 
L 30.950876 143.834551 
L 31.378335 143.347208 
L 31.817066 142.859864 
L 32.265282 142.372521 
L 32.721212 141.885177 
L 33.183119 141.397834 
L 33.649312 140.91049 
L 34.118161 140.423147 
L 34.588102 139.935804 
L 35.057652 139.44846 
L 35.525406 138.961117 
L 35.990053 138.473773 
L 36.450367 137.98643 
L 36.905217 137.499086 
L 37.353565 137.011743 
L 37.794458 136.524399 
L 38.227038 136.037056 
L 38.650528 135.549713 
L 39.064234 135.062369 
L 53.88122 135.062369 
L 53.88122 135.062369 
L 54.294927 135.549713 
L 54.718416 136.037056 
L 55.150996 136.524399 
L 55.59189 137.011743 
L 56.040237 137.499086 
L 56.495088 137.98643 
L 56.955402 138.473773 
L 57.420048 138.961117 
L 57.887803 139.44846 
L 58.357352 139.935804 
L 58.827294 140.423147 
L 59.296142 140.91049 
L 59.762336 141.397834 
L 60.224243 141.885177 
L 60.680173 142.372521 
L 61.128388 142.859864 
L 61.56712 143.347208 
L 61.994578 143.834551 
L 62.408975 144.321895 
L 62.808539 144.809238 
L 63.191537 145.296581 
L 63.556293 145.783925 
L 63.901208 146.271268 
L 64.224784 146.758612 
L 64.525639 147.245955 
L 64.802533 147.733299 
L 65.054377 148.220642 
L 65.280259 148.707986 
L 65.479453 149.195329 
L 65.65143 149.682672 
L 65.795872 150.170016 
L 65.912676 150.657359 
L 66.001956 151.144703 
L 66.064048 151.632046 
L 66.099505 152.11939 
L 66.109091 152.606733 
L 66.093774 153.094077 
L 66.054714 153.58142 
L 65.993253 154.068763 
L 65.910894 154.556107 
L 65.809288 155.04345 
L 65.690212 155.530794 
L 65.555552 156.018137 
L 65.407278 156.505481 
L 65.247426 156.992824 
L 65.078073 157.480168 
L 64.901317 157.967511 
L 64.719255 158.454854 
L 64.533959 158.942198 
L 64.34746 159.429541 
L 64.161721 159.916885 
L 63.978626 160.404228 
L 63.799955 160.891572 
L 63.627367 161.378915 
L 63.462387 161.866259 
L 63.306388 162.353602 
L 63.160575 162.840945 
L 63.025977 163.328289 
L 62.90343 163.815632 
L 62.793566 164.302976 
L 62.696811 164.790319 
L 62.61337 165.277663 
L 62.543226 165.765006 
L 62.486135 166.25235 
L 62.441627 166.739693 
L 62.409006 167.227036 
L 62.387356 167.71438 
L 62.375544 168.201723 
L 62.372238 168.689067 
L 62.37591 169.17641 
L 62.384862 169.663754 
L 62.397238 170.151097 
L 62.411049 170.638441 
L 62.424199 171.125784 
L 62.434508 171.613128 
L 62.439743 172.100471 
L 62.437652 172.587814 
L 62.42599 173.075158 
L 62.402555 173.562501 
L 62.365221 174.049845 
L 62.311969 174.537188 
L 62.240917 175.024532 
L 62.150352 175.511875 
L 62.038755 175.999219 
L 61.904825 176.486562 
L 61.747505 176.973905 
L 61.565991 177.461249 
L 61.359752 177.948592 
L 61.128538 178.435936 
L 60.872383 178.923279 
L 60.591605 179.410623 
L 60.286803 179.897966 
L 59.958845 180.38531 
L 59.608862 180.872653 
L 59.238221 181.359996 
L 58.848511 181.84734 
L 58.441518 182.334683 
L 58.019199 182.822027 
L 57.58365 183.30937 
L 57.58365 183.30937 
z
" clip-path="url(#p1770dedf80)" style="fill: none; stroke: #000000; stroke-opacity: 0.3"/>
   </g>
   <g id="FillBetweenPolyCollection_5">
    <path d="M 112.331634 267.591446 
L 111.522911 267.591446 
L 111.52889 266.127833 
L 111.5463 264.66422 
L 111.57364 263.200607 
L 111.608646 261.736995 
L 111.648596 260.273382 
L 111.690654 258.809769 
L 111.732185 257.346156 
L 111.770998 255.882543 
L 111.80548 254.418931 
L 111.834618 252.955318 
L 111.857923 251.491705 
L 111.875281 250.028092 
L 111.886765 248.564479 
L 111.89244 247.100867 
L 111.892182 245.637254 
L 111.885528 244.173641 
L 111.871564 242.710028 
L 111.848852 241.246415 
L 111.815398 239.782803 
L 111.768651 238.31919 
L 111.705548 236.855577 
L 111.622595 235.391964 
L 111.516005 233.928351 
L 111.381895 232.464739 
L 111.216552 231.001126 
L 111.016763 229.537513 
L 110.780188 228.0739 
L 110.505715 226.610287 
L 110.193725 225.146675 
L 109.846169 223.683062 
L 109.466367 222.219449 
L 109.058479 220.755836 
L 108.626668 219.292223 
L 108.174066 217.82861 
L 107.701751 216.364998 
L 107.207982 214.901385 
L 106.687961 213.437772 
L 106.134283 211.974159 
L 105.538147 210.510546 
L 104.891166 209.046934 
L 104.187497 207.583321 
L 103.425887 206.119708 
L 102.611184 204.656095 
L 101.754985 203.192482 
L 100.875218 201.72887 
L 99.994678 200.265257 
L 99.13875 198.801644 
L 98.332687 197.338031 
L 97.598891 195.874418 
L 96.954616 194.410806 
L 96.410381 192.947193 
L 95.969268 191.48358 
L 95.627084 190.019967 
L 95.373248 188.556354 
L 95.192187 187.092742 
L 95.065017 185.629129 
L 94.971283 184.165516 
L 94.89063 182.701903 
L 94.804305 181.23829 
L 94.696464 179.774678 
L 94.555269 178.311065 
L 94.373751 176.847452 
L 94.150404 175.383839 
L 93.889453 173.920226 
L 93.600694 172.456614 
L 93.298877 170.993001 
L 93.002607 169.529388 
L 92.732847 168.065775 
L 92.51117 166.602162 
L 92.357976 165.13855 
L 92.290909 163.674937 
L 92.323658 162.211324 
L 92.465281 160.747711 
L 92.720054 159.284098 
L 93.087781 157.820486 
L 93.564418 156.356873 
L 94.142863 154.89326 
L 94.81376 153.429647 
L 95.566218 151.966034 
L 96.388391 150.502422 
L 97.267888 149.038809 
L 98.192038 147.575196 
L 99.148015 146.111583 
L 100.122877 144.64797 
L 101.10356 143.184358 
L 102.076905 141.720745 
L 103.029798 140.257132 
L 103.94947 138.793519 
L 104.823987 137.329906 
L 105.642905 135.866294 
L 106.397976 134.402681 
L 107.083789 132.939068 
L 107.698189 131.475455 
L 108.242354 130.011842 
L 108.720477 128.54823 
L 109.139083 127.084617 
L 109.506083 125.621004 
L 109.829733 124.157391 
L 110.117679 122.693778 
L 113.736867 122.693778 
L 113.736867 122.693778 
L 114.024812 124.157391 
L 114.348462 125.621004 
L 114.715462 127.084617 
L 115.134068 128.54823 
L 115.612192 130.011842 
L 116.156357 131.475455 
L 116.770757 132.939068 
L 117.45657 134.402681 
L 118.21164 135.866294 
L 119.030558 137.329906 
L 119.905076 138.793519 
L 120.824747 140.257132 
L 121.77764 141.720745 
L 122.750986 143.184358 
L 123.731668 144.64797 
L 124.70653 146.111583 
L 125.662508 147.575196 
L 126.586657 149.038809 
L 127.466154 150.502422 
L 128.288327 151.966034 
L 129.040786 153.429647 
L 129.711683 154.89326 
L 130.290128 156.356873 
L 130.766764 157.820486 
L 131.134491 159.284098 
L 131.389264 160.747711 
L 131.530887 162.211324 
L 131.563636 163.674937 
L 131.496569 165.13855 
L 131.343376 166.602162 
L 131.121699 168.065775 
L 130.851939 169.529388 
L 130.555669 170.993001 
L 130.253851 172.456614 
L 129.965092 173.920226 
L 129.704141 175.383839 
L 129.480795 176.847452 
L 129.299276 178.311065 
L 129.158081 179.774678 
L 129.050241 181.23829 
L 128.963916 182.701903 
L 128.883263 184.165516 
L 128.789529 185.629129 
L 128.662359 187.092742 
L 128.481298 188.556354 
L 128.227461 190.019967 
L 127.885278 191.48358 
L 127.444165 192.947193 
L 126.899929 194.410806 
L 126.255654 195.874418 
L 125.521859 197.338031 
L 124.715795 198.801644 
L 123.859867 200.265257 
L 122.979327 201.72887 
L 122.099561 203.192482 
L 121.243362 204.656095 
L 120.428658 206.119708 
L 119.667048 207.583321 
L 118.96338 209.046934 
L 118.316398 210.510546 
L 117.720262 211.974159 
L 117.166585 213.437772 
L 116.646563 214.901385 
L 116.152795 216.364998 
L 115.68048 217.82861 
L 115.227878 219.292223 
L 114.796066 220.755836 
L 114.388179 222.219449 
L 114.008377 223.683062 
L 113.660821 225.146675 
L 113.348831 226.610287 
L 113.074357 228.0739 
L 112.837783 229.537513 
L 112.637994 231.001126 
L 112.47265 232.464739 
L 112.33854 233.928351 
L 112.23195 235.391964 
L 112.148998 236.855577 
L 112.085894 238.31919 
L 112.039147 239.782803 
L 112.005693 241.246415 
L 111.982982 242.710028 
L 111.969017 244.173641 
L 111.962363 245.637254 
L 111.962106 247.100867 
L 111.967781 248.564479 
L 111.979264 250.028092 
L 111.996622 251.491705 
L 112.019927 252.955318 
L 112.049066 254.418931 
L 112.083548 255.882543 
L 112.122361 257.346156 
L 112.163892 258.809769 
L 112.205949 260.273382 
L 112.245899 261.736995 
L 112.280905 263.200607 
L 112.308246 264.66422 
L 112.325656 266.127833 
L 112.331634 267.591446 
L 112.331634 267.591446 
z
" clip-path="url(#p1770dedf80)" style="fill: none; stroke: #000000; stroke-opacity: 0.3"/>
   </g>
   <g id="FillBetweenPolyCollection_6">
    <path d="M 112.300481 313.997067 
L 111.554065 313.997067 
L 111.556158 312.007655 
L 111.568601 310.018244 
L 111.588323 308.028833 
L 111.611197 306.039421 
L 111.632717 304.05001 
L 111.648763 302.060599 
L 111.656307 300.071188 
L 111.653931 298.081776 
L 111.642072 296.092365 
L 111.622936 294.102954 
L 111.600117 292.113543 
L 111.577958 290.124131 
L 111.560787 288.13472 
L 111.552152 286.145309 
L 111.554196 284.155897 
L 111.567293 282.166486 
L 111.589995 280.177075 
L 111.619294 278.187664 
L 111.651129 276.198252 
L 111.681041 274.208841 
L 111.704845 272.21943 
L 111.719231 270.230019 
L 111.722212 268.240607 
L 111.713387 266.251196 
L 111.693995 264.261785 
L 111.666768 262.272373 
L 111.635575 260.282962 
L 111.604908 258.293551 
L 111.579245 256.30414 
L 111.562378 254.314728 
L 111.556819 252.325317 
L 111.563374 250.335906 
L 111.580967 248.346494 
L 111.60672 246.357083 
L 111.636274 244.367672 
L 111.664241 242.378261 
L 111.684706 240.388849 
L 111.691689 238.399438 
L 111.679519 236.410027 
L 111.643109 234.420616 
L 111.578161 232.431204 
L 111.481301 230.441793 
L 111.350139 228.452382 
L 111.18322 226.46297 
L 110.979807 224.473559 
L 110.739461 222.484148 
L 110.461436 220.494737 
L 110.143978 218.505325 
L 109.783678 216.515914 
L 109.375063 214.526503 
L 108.910602 212.537092 
L 108.381201 210.54768 
L 107.777205 208.558269 
L 107.089782 206.568858 
L 106.312518 204.579446 
L 105.442977 202.590035 
L 104.484033 200.600624 
L 103.44472 198.611213 
L 102.340481 196.621801 
L 101.192654 194.63239 
L 100.02719 192.642979 
L 98.872686 190.653567 
L 97.757953 188.664156 
L 96.709507 186.674745 
L 95.749434 184.685334 
L 94.894057 182.695922 
L 94.153709 180.706511 
L 93.533636 178.7171 
L 93.035799 176.727689 
L 92.661096 174.738277 
L 92.411406 172.748866 
L 92.290909 170.759455 
L 92.306314 168.770043 
L 92.465914 166.780632 
L 92.777704 164.791221 
L 93.247002 162.80181 
L 93.874157 160.812398 
L 94.652876 158.822987 
L 95.569511 156.833576 
L 96.603442 154.844165 
L 97.728397 152.854753 
L 98.914389 150.865342 
L 100.129888 148.875931 
L 101.343883 146.886519 
L 102.527616 144.897108 
L 103.65591 142.907697 
L 104.708128 140.918286 
L 105.66883 138.928874 
L 106.528165 136.939463 
L 107.282006 134.950052 
L 107.931769 132.960641 
L 108.483861 130.971229 
L 108.948728 128.981818 
L 109.339547 126.992407 
L 109.670694 125.002995 
L 109.95618 123.013584 
L 110.208266 121.024173 
L 110.43647 119.034762 
L 110.647097 117.04535 
L 113.207449 117.04535 
L 113.207449 117.04535 
L 113.418075 119.034762 
L 113.64628 121.024173 
L 113.898365 123.013584 
L 114.183851 125.002995 
L 114.514999 126.992407 
L 114.905817 128.981818 
L 115.370684 130.971229 
L 115.922777 132.960641 
L 116.57254 134.950052 
L 117.32638 136.939463 
L 118.185715 138.928874 
L 119.146417 140.918286 
L 120.198636 142.907697 
L 121.326929 144.897108 
L 122.510662 146.886519 
L 123.724658 148.875931 
L 124.940157 150.865342 
L 126.126148 152.854753 
L 127.251103 154.844165 
L 128.285035 156.833576 
L 129.20167 158.822987 
L 129.980388 160.812398 
L 130.607544 162.80181 
L 131.076841 164.791221 
L 131.388631 166.780632 
L 131.548232 168.770043 
L 131.563636 170.759455 
L 131.44314 172.748866 
L 131.193449 174.738277 
L 130.818746 176.727689 
L 130.320909 178.7171 
L 129.700837 180.706511 
L 128.960489 182.695922 
L 128.105112 184.685334 
L 127.145038 186.674745 
L 126.096592 188.664156 
L 124.981859 190.653567 
L 123.827355 192.642979 
L 122.661892 194.63239 
L 121.514064 196.621801 
L 120.409825 198.611213 
L 119.370513 200.600624 
L 118.411568 202.590035 
L 117.542028 204.579446 
L 116.764763 206.568858 
L 116.077341 208.558269 
L 115.473344 210.54768 
L 114.943943 212.537092 
L 114.479482 214.526503 
L 114.070868 216.515914 
L 113.710567 218.505325 
L 113.393109 220.494737 
L 113.115084 222.484148 
L 112.874738 224.473559 
L 112.671325 226.46297 
L 112.504406 228.452382 
L 112.373244 230.441793 
L 112.276384 232.431204 
L 112.211437 234.420616 
L 112.175027 236.410027 
L 112.162856 238.399438 
L 112.16984 240.388849 
L 112.190305 242.378261 
L 112.218271 244.367672 
L 112.247825 246.357083 
L 112.273579 248.346494 
L 112.291171 250.335906 
L 112.297727 252.325317 
L 112.292168 254.314728 
L 112.275301 256.30414 
L 112.249637 258.293551 
L 112.218971 260.282962 
L 112.187778 262.272373 
L 112.16055 264.261785 
L 112.141158 266.251196 
L 112.132333 268.240607 
L 112.135314 270.230019 
L 112.1497 272.21943 
L 112.173505 274.208841 
L 112.203417 276.198252 
L 112.235252 278.187664 
L 112.26455 280.177075 
L 112.287252 282.166486 
L 112.300349 284.155897 
L 112.302394 286.145309 
L 112.293758 288.13472 
L 112.276587 290.124131 
L 112.254428 292.113543 
L 112.231609 294.102954 
L 112.212474 296.092365 
L 112.200614 298.081776 
L 112.198239 300.071188 
L 112.205782 302.060599 
L 112.221828 304.05001 
L 112.243348 306.039421 
L 112.266222 308.028833 
L 112.285944 310.018244 
L 112.298387 312.007655 
L 112.300481 313.997067 
L 112.300481 313.997067 
z
" clip-path="url(#p1770dedf80)" style="fill: none; stroke: #000000; stroke-opacity: 0.3"/>
   </g>
   <g id="FillBetweenPolyCollection_7">
    <path d="M 112.845422 226.185012 
L 111.009124 226.185012 
L 110.856741 224.997603 
L 110.690795 223.810195 
L 110.510929 222.622787 
L 110.31651 221.435379 
L 110.106589 220.247971 
L 109.879941 219.060562 
L 109.635188 217.873154 
L 109.371027 216.685746 
L 109.086526 215.498338 
L 108.781456 214.31093 
L 108.456575 213.123522 
L 108.113801 211.936113 
L 107.756188 210.748705 
L 107.387682 209.561297 
L 107.012644 208.373889 
L 106.635208 207.186481 
L 106.258543 205.999072 
L 105.884169 204.811664 
L 105.511423 203.624256 
L 105.137181 202.436848 
L 104.755886 201.24944 
L 104.359887 200.062031 
L 103.940036 198.874623 
L 103.486483 197.687215 
L 102.989578 196.499807 
L 102.440822 195.312399 
L 101.833806 194.124991 
L 101.165115 192.937582 
L 100.43514 191.750174 
L 99.648747 190.562766 
L 98.815704 189.375358 
L 97.95075 188.18795 
L 97.073201 187.000541 
L 96.206024 185.813133 
L 95.374393 184.625725 
L 94.603858 183.438317 
L 93.918337 182.250909 
L 93.338226 181.063501 
L 92.878905 179.876092 
L 92.549867 178.688684 
L 92.354559 177.501276 
L 92.290909 176.313868 
L 92.352343 175.12646 
L 92.529056 173.939051 
L 92.809259 172.751643 
L 93.180182 171.564235 
L 93.62873 170.376827 
L 94.141799 169.189419 
L 94.706358 168.00201 
L 95.309472 166.814602 
L 95.938405 165.627194 
L 96.580937 164.439786 
L 97.225869 163.252378 
L 97.863664 162.06497 
L 98.487048 160.877561 
L 99.091425 159.690153 
L 99.674953 158.502745 
L 100.238233 157.315337 
L 100.783644 156.127929 
L 101.314453 154.94052 
L 101.83387 153.753112 
L 102.344244 152.565704 
L 102.846564 151.378296 
L 103.340319 150.190888 
L 103.82375 149.00348 
L 104.29437 147.816071 
L 104.749636 146.628663 
L 105.187592 145.441255 
L 105.607346 144.253847 
L 106.009268 143.066439 
L 106.394892 141.87903 
L 106.766547 140.691622 
L 107.126828 139.504214 
L 107.478027 138.316806 
L 107.821641 137.129398 
L 108.158081 135.94199 
L 108.486596 134.754581 
L 108.805416 133.567173 
L 109.112057 132.379765 
L 109.403701 131.192357 
L 109.677567 130.004949 
L 109.931214 128.81754 
L 110.16274 127.630132 
L 110.370889 126.442724 
L 110.555076 125.255316 
L 110.71537 124.067908 
L 110.85246 122.880499 
L 110.96761 121.693091 
L 111.062617 120.505683 
L 111.139743 119.318275 
L 111.201634 118.130867 
L 111.251195 116.943459 
L 111.291454 115.75605 
L 111.32539 114.568642 
L 111.355774 113.381234 
L 111.385013 112.193826 
L 111.415025 111.006418 
L 111.447153 109.819009 
L 111.482127 108.631601 
L 112.372419 108.631601 
L 112.372419 108.631601 
L 112.407393 109.819009 
L 112.439521 111.006418 
L 112.469532 112.193826 
L 112.498771 113.381234 
L 112.529155 114.568642 
L 112.563092 115.75605 
L 112.60335 116.943459 
L 112.652912 118.130867 
L 112.714802 119.318275 
L 112.791929 120.505683 
L 112.886935 121.693091 
L 113.002086 122.880499 
L 113.139175 124.067908 
L 113.29947 125.255316 
L 113.483657 126.442724 
L 113.691806 127.630132 
L 113.923332 128.81754 
L 114.176978 130.004949 
L 114.450845 131.192357 
L 114.742489 132.379765 
L 115.04913 133.567173 
L 115.367949 134.754581 
L 115.696464 135.94199 
L 116.032905 137.129398 
L 116.376519 138.316806 
L 116.727717 139.504214 
L 117.087999 140.691622 
L 117.459654 141.87903 
L 117.845277 143.066439 
L 118.247199 144.253847 
L 118.666953 145.441255 
L 119.10491 146.628663 
L 119.560175 147.816071 
L 120.030795 149.00348 
L 120.514226 150.190888 
L 121.007982 151.378296 
L 121.510301 152.565704 
L 122.020676 153.753112 
L 122.540092 154.94052 
L 123.070901 156.127929 
L 123.616313 157.315337 
L 124.179592 158.502745 
L 124.76312 159.690153 
L 125.367497 160.877561 
L 125.990882 162.06497 
L 126.628676 163.252378 
L 127.273609 164.439786 
L 127.91614 165.627194 
L 128.545074 166.814602 
L 129.148187 168.00201 
L 129.712747 169.189419 
L 130.225816 170.376827 
L 130.674364 171.564235 
L 131.045286 172.751643 
L 131.325489 173.939051 
L 131.502203 175.12646 
L 131.563636 176.313868 
L 131.499986 177.501276 
L 131.304679 178.688684 
L 130.975641 179.876092 
L 130.51632 181.063501 
L 129.936208 182.250909 
L 129.250687 183.438317 
L 128.480152 184.625725 
L 127.648522 185.813133 
L 126.781345 187.000541 
L 125.903796 188.18795 
L 125.038841 189.375358 
L 124.205798 190.562766 
L 123.419405 191.750174 
L 122.68943 192.937582 
L 122.020739 194.124991 
L 121.413723 195.312399 
L 120.864967 196.499807 
L 120.368063 197.687215 
L 119.91451 198.874623 
L 119.494658 200.062031 
L 119.098659 201.24944 
L 118.717364 202.436848 
L 118.343122 203.624256 
L 117.970377 204.811664 
L 117.596003 205.999072 
L 117.219338 207.186481 
L 116.841901 208.373889 
L 116.466864 209.561297 
L 116.098357 210.748705 
L 115.740744 211.936113 
L 115.39797 213.123522 
L 115.07309 214.31093 
L 114.768019 215.498338 
L 114.483519 216.685746 
L 114.219357 217.873154 
L 113.974605 219.060562 
L 113.747957 220.247971 
L 113.538036 221.435379 
L 113.343616 222.622787 
L 113.16375 223.810195 
L 112.997805 224.997603 
L 112.845422 226.185012 
L 112.845422 226.185012 
z
" clip-path="url(#p1770dedf80)" style="fill: none; stroke: #000000; stroke-opacity: 0.3"/>
   </g>
   <g id="FillBetweenPolyCollection_8">
    <path d="M 112.460865 276.015555 
L 111.393681 276.015555 
L 111.40153 274.362303 
L 111.424391 272.709051 
L 111.460306 271.055798 
L 111.506318 269.402546 
L 111.558876 267.749294 
L 111.614283 266.096042 
L 111.669113 264.442789 
L 111.720535 262.789537 
L 111.766505 261.136285 
L 111.805813 259.483032 
L 111.838007 257.82978 
L 111.863229 256.176528 
L 111.882001 254.523276 
L 111.894991 252.870023 
L 111.902807 251.216771 
L 111.905805 249.563519 
L 111.903937 247.910266 
L 111.896627 246.257014 
L 111.882683 244.603762 
L 111.860233 242.950509 
L 111.826714 241.297257 
L 111.778908 239.644005 
L 111.713053 237.990753 
L 111.625025 236.3375 
L 111.510611 234.684248 
L 111.365832 233.030996 
L 111.187301 231.377743 
L 110.972555 229.724491 
L 110.720309 228.071239 
L 110.430567 226.417987 
L 110.104547 224.764734 
L 109.744404 223.111482 
L 109.352733 221.45823 
L 108.931921 219.804977 
L 108.483403 218.151725 
L 108.006944 216.498473 
L 107.500071 214.845221 
L 106.957812 213.191968 
L 106.372857 211.538716 
L 105.736266 209.885464 
L 105.038713 208.232211 
L 104.2722 206.578959 
L 103.43202 204.925707 
L 102.51866 203.272455 
L 101.539257 201.619202 
L 100.508254 199.96595 
L 99.446989 198.312698 
L 98.38218 196.659445 
L 97.343452 195.006193 
L 96.360325 193.352941 
L 95.459168 191.699689 
L 94.660693 190.046436 
L 93.978411 188.393184 
L 93.418286 186.739932 
L 92.979545 185.086679 
L 92.656378 183.433427 
L 92.440074 181.780175 
L 92.321128 180.126923 
L 92.290909 178.47367 
L 92.342627 176.820418 
L 92.471548 175.167166 
L 92.674583 173.513913 
L 92.949502 171.860661 
L 93.294081 170.207409 
L 93.705437 168.554156 
L 94.179753 166.900904 
L 94.712406 165.247652 
L 95.298423 163.5944 
L 95.93306 161.941147 
L 96.612278 160.287895 
L 97.332924 158.634643 
L 98.092482 156.98139 
L 98.888451 155.328138 
L 99.717453 153.674886 
L 100.574318 152.021634 
L 101.451387 150.368381 
L 102.338237 148.715129 
L 103.221931 147.061877 
L 104.087789 145.408624 
L 104.920551 143.755372 
L 105.705728 142.10212 
L 106.430924 140.448868 
L 107.086913 138.795615 
L 107.668313 137.142363 
L 108.173813 135.489111 
L 108.605924 133.835858 
L 108.97036 132.182606 
L 109.275152 130.529354 
L 109.529646 128.876102 
L 109.743533 127.222849 
L 109.926025 125.569597 
L 110.085267 123.916345 
L 110.228005 122.263092 
L 110.359503 120.60984 
L 110.483643 118.956588 
L 110.603126 117.303336 
L 110.719696 115.650083 
L 110.834335 113.996831 
L 110.947389 112.343579 
L 112.907157 112.343579 
L 112.907157 112.343579 
L 113.020211 113.996831 
L 113.134849 115.650083 
L 113.251419 117.303336 
L 113.370902 118.956588 
L 113.495043 120.60984 
L 113.626541 122.263092 
L 113.769278 123.916345 
L 113.92852 125.569597 
L 114.111012 127.222849 
L 114.324899 128.876102 
L 114.579393 130.529354 
L 114.884185 132.182606 
L 115.248621 133.835858 
L 115.680733 135.489111 
L 116.186232 137.142363 
L 116.767633 138.795615 
L 117.423621 140.448868 
L 118.148818 142.10212 
L 118.933995 143.755372 
L 119.766756 145.408624 
L 120.632615 147.061877 
L 121.516309 148.715129 
L 122.403158 150.368381 
L 123.280228 152.021634 
L 124.137092 153.674886 
L 124.966094 155.328138 
L 125.762063 156.98139 
L 126.521622 158.634643 
L 127.242267 160.287895 
L 127.921486 161.941147 
L 128.556122 163.5944 
L 129.142139 165.247652 
L 129.674793 166.900904 
L 130.149109 168.554156 
L 130.560465 170.207409 
L 130.905043 171.860661 
L 131.179963 173.513913 
L 131.382998 175.167166 
L 131.511918 176.820418 
L 131.563636 178.47367 
L 131.533418 180.126923 
L 131.414472 181.780175 
L 131.198167 183.433427 
L 130.875 185.086679 
L 130.43626 186.739932 
L 129.876134 188.393184 
L 129.193852 190.046436 
L 128.395378 191.699689 
L 127.494221 193.352941 
L 126.511093 195.006193 
L 125.472366 196.659445 
L 124.407556 198.312698 
L 123.346292 199.96595 
L 122.315288 201.619202 
L 121.335885 203.272455 
L 120.422525 204.925707 
L 119.582345 206.578959 
L 118.815832 208.232211 
L 118.11828 209.885464 
L 117.481689 211.538716 
L 116.896734 213.191968 
L 116.354474 214.845221 
L 115.847602 216.498473 
L 115.371143 218.151725 
L 114.922625 219.804977 
L 114.501812 221.45823 
L 114.110141 223.111482 
L 113.749998 224.764734 
L 113.423979 226.417987 
L 113.134236 228.071239 
L 112.88199 229.724491 
L 112.667244 231.377743 
L 112.488714 233.030996 
L 112.343935 234.684248 
L 112.22952 236.3375 
L 112.141493 237.990753 
L 112.075637 239.644005 
L 112.027832 241.297257 
L 111.994313 242.950509 
L 111.971863 244.603762 
L 111.957918 246.257014 
L 111.950609 247.910266 
L 111.94874 249.563519 
L 111.951738 251.216771 
L 111.959555 252.870023 
L 111.972545 254.523276 
L 111.991316 256.176528 
L 112.016539 257.82978 
L 112.048733 259.483032 
L 112.08804 261.136285 
L 112.13401 262.789537 
L 112.185432 264.442789 
L 112.240262 266.096042 
L 112.295669 267.749294 
L 112.348228 269.402546 
L 112.39424 271.055798 
L 112.430154 272.709051 
L 112.453016 274.362303 
L 112.460865 276.015555 
L 112.460865 276.015555 
z
" clip-path="url(#p1770dedf80)" style="fill: none; stroke: #000000; stroke-opacity: 0.3"/>
   </g>
   <g id="FillBetweenPolyCollection_9">
    <path d="M 112.543745 264.482899 
L 111.3108 264.482899 
L 111.318592 262.945419 
L 111.341381 261.407938 
L 111.377483 259.870457 
L 111.424318 258.332977 
L 111.47872 256.795496 
L 111.537283 255.258016 
L 111.596712 253.720535 
L 111.65411 252.183055 
L 111.707187 250.645574 
L 111.754352 249.108094 
L 111.794719 247.570613 
L 111.828013 246.033132 
L 111.854428 244.495652 
L 111.874447 242.958171 
L 111.888654 241.420691 
L 111.897552 239.88321 
L 111.901387 238.34573 
L 111.900003 236.808249 
L 111.892695 235.270769 
L 111.878089 233.733288 
L 111.854034 232.195807 
L 111.817534 230.658327 
L 111.764725 229.120846 
L 111.690931 227.583366 
L 111.590819 226.045885 
L 111.458666 224.508405 
L 111.288741 222.970924 
L 111.075775 221.433444 
L 110.815469 219.895963 
L 110.504969 218.358482 
L 110.143213 216.821002 
L 109.731071 215.283521 
L 109.271219 213.746041 
L 108.767719 212.20856 
L 108.225355 210.67108 
L 107.64881 209.133599 
L 107.041848 207.596118 
L 106.406641 206.058638 
L 105.743407 204.521157 
L 105.050454 202.983677 
L 104.324665 201.446196 
L 103.56235 199.908716 
L 102.760354 198.371235 
L 101.917229 196.833755 
L 101.034287 195.296274 
L 100.116387 193.758793 
L 99.172344 192.221313 
L 98.214938 190.683832 
L 97.26057 189.146352 
L 96.328634 187.608871 
L 95.440718 186.071391 
L 94.619705 184.53391 
L 93.888844 182.99643 
L 93.270807 181.458949 
L 92.786715 179.921468 
L 92.455117 178.383988 
L 92.290909 176.846507 
L 92.304229 175.309027 
L 92.49939 173.771546 
L 92.873987 172.234066 
L 93.418325 170.696585 
L 94.115335 169.159105 
L 94.941107 167.621624 
L 95.866085 166.084143 
L 96.856899 164.546663 
L 97.878672 163.009182 
L 98.897568 161.471702 
L 99.883282 159.934221 
L 100.811167 158.396741 
L 101.663725 156.85926 
L 102.431303 155.32178 
L 103.111943 153.784299 
L 103.710459 152.246818 
L 104.236923 150.709338 
L 104.704819 149.171857 
L 105.129123 147.634377 
L 105.524553 146.096896 
L 105.904169 144.559416 
L 106.278398 143.021935 
L 106.654516 141.484455 
L 107.036513 139.946974 
L 107.425261 138.409493 
L 107.818897 136.872013 
L 108.213325 135.334532 
L 108.602794 133.797052 
L 108.980522 132.259571 
L 109.33934 130.722091 
L 109.672346 129.18461 
L 109.973545 127.647129 
L 110.238418 126.109649 
L 110.464367 124.572168 
L 110.650994 123.034688 
L 110.800141 121.497207 
L 110.9157 119.959727 
L 111.003196 118.422246 
L 111.06919 116.884766 
L 111.120595 115.347285 
L 111.163979 113.809804 
L 111.204967 112.272324 
L 112.649578 112.272324 
L 112.649578 112.272324 
L 112.690567 113.809804 
L 112.733951 115.347285 
L 112.785355 116.884766 
L 112.851349 118.422246 
L 112.938845 119.959727 
L 113.054405 121.497207 
L 113.203551 123.034688 
L 113.390178 124.572168 
L 113.616128 126.109649 
L 113.881 127.647129 
L 114.1822 129.18461 
L 114.515206 130.722091 
L 114.874023 132.259571 
L 115.251751 133.797052 
L 115.641221 135.334532 
L 116.035649 136.872013 
L 116.429285 138.409493 
L 116.818033 139.946974 
L 117.200029 141.484455 
L 117.576147 143.021935 
L 117.950377 144.559416 
L 118.329992 146.096896 
L 118.725423 147.634377 
L 119.149727 149.171857 
L 119.617622 150.709338 
L 120.144086 152.246818 
L 120.742602 153.784299 
L 121.423242 155.32178 
L 122.19082 156.85926 
L 123.043378 158.396741 
L 123.971263 159.934221 
L 124.956978 161.471702 
L 125.975873 163.009182 
L 126.997646 164.546663 
L 127.98846 166.084143 
L 128.913439 167.621624 
L 129.73921 169.159105 
L 130.436221 170.696585 
L 130.980558 172.234066 
L 131.355155 173.771546 
L 131.550316 175.309027 
L 131.563636 176.846507 
L 131.399428 178.383988 
L 131.06783 179.921468 
L 130.583738 181.458949 
L 129.965702 182.99643 
L 129.234841 184.53391 
L 128.413827 186.071391 
L 127.525911 187.608871 
L 126.593976 189.146352 
L 125.639608 190.683832 
L 124.682201 192.221313 
L 123.738158 193.758793 
L 122.820259 195.296274 
L 121.937317 196.833755 
L 121.094191 198.371235 
L 120.292195 199.908716 
L 119.52988 201.446196 
L 118.804091 202.983677 
L 118.111139 204.521157 
L 117.447904 206.058638 
L 116.812697 207.596118 
L 116.205736 209.133599 
L 115.629191 210.67108 
L 115.086826 212.20856 
L 114.583326 213.746041 
L 114.123474 215.283521 
L 113.711333 216.821002 
L 113.349576 218.358482 
L 113.039076 219.895963 
L 112.778771 221.433444 
L 112.565805 222.970924 
L 112.39588 224.508405 
L 112.263727 226.045885 
L 112.163615 227.583366 
L 112.089821 229.120846 
L 112.037011 230.658327 
L 112.000512 232.195807 
L 111.976457 233.733288 
L 111.96185 235.270769 
L 111.954543 236.808249 
L 111.953159 238.34573 
L 111.956994 239.88321 
L 111.965891 241.420691 
L 111.980099 242.958171 
L 112.000118 244.495652 
L 112.026533 246.033132 
L 112.059826 247.570613 
L 112.100193 249.108094 
L 112.147359 250.645574 
L 112.200435 252.183055 
L 112.257833 253.720535 
L 112.317262 255.258016 
L 112.375825 256.795496 
L 112.430227 258.332977 
L 112.477063 259.870457 
L 112.513164 261.407938 
L 112.535953 262.945419 
L 112.543745 264.482899 
L 112.543745 264.482899 
z
" clip-path="url(#p1770dedf80)" style="fill: none; stroke: #000000; stroke-opacity: 0.3"/>
   </g>
   <g id="FillBetweenPolyCollection_10">
    <path d="M 113.601045 220.676573 
L 110.253501 220.676573 
L 110.019978 219.726454 
L 109.763214 218.776335 
L 109.482178 217.826217 
L 109.176221 216.876098 
L 108.845234 215.925979 
L 108.489803 214.975861 
L 108.111344 214.025742 
L 107.712218 213.075623 
L 107.29578 212.125505 
L 106.866375 211.175386 
L 106.429241 210.225267 
L 105.990336 209.275149 
L 105.556069 208.32503 
L 105.132954 207.374911 
L 104.727197 206.424793 
L 104.344249 205.474674 
L 103.988352 204.524555 
L 103.662115 203.574437 
L 103.366165 202.624318 
L 103.098907 201.674199 
L 102.856432 200.724081 
L 102.632582 199.773962 
L 102.419202 198.823843 
L 102.206557 197.873725 
L 101.983904 196.923606 
L 101.740187 195.973488 
L 101.464789 195.023369 
L 101.148318 194.07325 
L 100.783335 193.123132 
L 100.36498 192.173013 
L 99.891454 191.222894 
L 99.364291 190.272776 
L 98.788423 189.322657 
L 98.172004 188.372538 
L 97.526028 187.42242 
L 96.863744 186.472301 
L 96.199935 185.522182 
L 95.550096 184.572064 
L 94.929586 183.621945 
L 94.35281 182.671826 
L 93.832495 181.721708 
L 93.379108 180.771589 
L 93.000455 179.82147 
L 92.701489 178.871352 
L 92.484316 177.921233 
L 92.348396 176.971114 
L 92.290909 176.020996 
L 92.307227 175.070877 
L 92.39145 174.120758 
L 92.536954 173.17064 
L 92.736878 172.220521 
L 92.984531 171.270402 
L 93.273671 170.320284 
L 93.598649 169.370165 
L 93.954422 168.420046 
L 94.336455 167.469928 
L 94.740541 166.519809 
L 95.162589 165.569691 
L 95.598415 164.619572 
L 96.043593 163.669453 
L 96.493381 162.719335 
L 96.942762 161.769216 
L 97.386596 160.819097 
L 97.819873 159.868979 
L 98.238048 158.91886 
L 98.63741 157.968741 
L 99.015448 157.018623 
L 99.37116 156.068504 
L 99.705259 155.118385 
L 100.020245 154.168267 
L 100.320315 153.218148 
L 100.611114 152.268029 
L 100.899339 151.317911 
L 101.192226 150.367792 
L 101.496975 149.417673 
L 101.820157 148.467555 
L 102.167167 147.517436 
L 102.541776 146.567317 
L 102.945818 145.617199 
L 103.379043 144.66708 
L 103.839147 143.716961 
L 104.321955 142.766843 
L 104.821754 141.816724 
L 105.331723 140.866605 
L 105.844417 139.916487 
L 106.352267 138.966368 
L 106.848042 138.01625 
L 107.325257 137.066131 
L 107.778468 136.116012 
L 108.203482 135.165894 
L 108.597445 134.215775 
L 108.958827 133.265656 
L 109.287328 132.315538 
L 109.583709 131.365419 
L 109.849578 130.4153 
L 110.087158 129.465182 
L 110.299047 128.515063 
L 110.488007 127.564944 
L 110.65677 126.614826 
L 113.197776 126.614826 
L 113.197776 126.614826 
L 113.366538 127.564944 
L 113.555498 128.515063 
L 113.767388 129.465182 
L 114.004967 130.4153 
L 114.270836 131.365419 
L 114.567217 132.315538 
L 114.895719 133.265656 
L 115.257101 134.215775 
L 115.651063 135.165894 
L 116.076078 136.116012 
L 116.529289 137.066131 
L 117.006503 138.01625 
L 117.502279 138.966368 
L 118.010128 139.916487 
L 118.522822 140.866605 
L 119.032791 141.816724 
L 119.532591 142.766843 
L 120.015398 143.716961 
L 120.475502 144.66708 
L 120.908728 145.617199 
L 121.31277 146.567317 
L 121.687379 147.517436 
L 122.034388 148.467555 
L 122.35757 149.417673 
L 122.662319 150.367792 
L 122.955207 151.317911 
L 123.243431 152.268029 
L 123.53423 153.218148 
L 123.8343 154.168267 
L 124.149287 155.118385 
L 124.483386 156.068504 
L 124.839098 157.018623 
L 125.217136 157.968741 
L 125.616497 158.91886 
L 126.034672 159.868979 
L 126.467949 160.819097 
L 126.911784 161.769216 
L 127.361165 162.719335 
L 127.810953 163.669453 
L 128.25613 164.619572 
L 128.691957 165.569691 
L 129.114004 166.519809 
L 129.51809 167.469928 
L 129.900123 168.420046 
L 130.255897 169.370165 
L 130.580875 170.320284 
L 130.870014 171.270402 
L 131.117667 172.220521 
L 131.317591 173.17064 
L 131.463095 174.120758 
L 131.547319 175.070877 
L 131.563636 176.020996 
L 131.506149 176.971114 
L 131.37023 177.921233 
L 131.153056 178.871352 
L 130.85409 179.82147 
L 130.475438 180.771589 
L 130.022051 181.721708 
L 129.501735 182.671826 
L 128.92496 183.621945 
L 128.30445 184.572064 
L 127.654611 185.522182 
L 126.990801 186.472301 
L 126.328517 187.42242 
L 125.682541 188.372538 
L 125.066123 189.322657 
L 124.490254 190.272776 
L 123.963092 191.222894 
L 123.489565 192.173013 
L 123.071211 193.123132 
L 122.706227 194.07325 
L 122.389757 195.023369 
L 122.114359 195.973488 
L 121.870641 196.923606 
L 121.647989 197.873725 
L 121.435344 198.823843 
L 121.221964 199.773962 
L 120.998114 200.724081 
L 120.755638 201.674199 
L 120.488381 202.624318 
L 120.19243 203.574437 
L 119.866193 204.524555 
L 119.510296 205.474674 
L 119.127349 206.424793 
L 118.721592 207.374911 
L 118.298477 208.32503 
L 117.86421 209.275149 
L 117.425305 210.225267 
L 116.988171 211.175386 
L 116.558765 212.125505 
L 116.142328 213.075623 
L 115.743201 214.025742 
L 115.364743 214.975861 
L 115.009311 215.925979 
L 114.678325 216.876098 
L 114.372368 217.826217 
L 114.091331 218.776335 
L 113.834567 219.726454 
L 113.601045 220.676573 
L 113.601045 220.676573 
z
" clip-path="url(#p1770dedf80)" style="fill: none; stroke: #000000; stroke-opacity: 0.3"/>
   </g>
   <g id="FillBetweenPolyCollection_11">
    <path d="M 114.045264 237.51131 
L 109.809282 237.51131 
L 109.60286 236.268248 
L 109.378811 235.025187 
L 109.135449 233.782125 
L 108.871238 232.539064 
L 108.5849 231.296002 
L 108.275515 230.05294 
L 107.942607 228.809879 
L 107.586211 227.566817 
L 107.206904 226.323756 
L 106.805816 225.080694 
L 106.384602 223.837632 
L 105.945394 222.594571 
L 105.490718 221.351509 
L 105.023408 220.108448 
L 104.54649 218.865386 
L 104.063083 217.622324 
L 103.576283 216.379263 
L 103.089064 215.136201 
L 102.60419 213.89314 
L 102.12413 212.650078 
L 101.650999 211.407016 
L 101.1865 210.163955 
L 100.731885 208.920893 
L 100.28793 207.677832 
L 99.854926 206.43477 
L 99.432676 205.191708 
L 99.020528 203.948647 
L 98.617422 202.705585 
L 98.221962 201.462524 
L 97.832524 200.219462 
L 97.447388 198.976401 
L 97.064895 197.733339 
L 96.683622 196.490277 
L 96.30257 195.247216 
L 95.921346 194.004154 
L 95.540323 192.761093 
L 95.160772 191.518031 
L 94.784943 190.274969 
L 94.41609 189.031908 
L 94.058428 187.788846 
L 93.717025 186.545785 
L 93.397632 185.302723 
L 93.106465 184.059661 
L 92.849945 182.8166 
L 92.634427 181.573538 
L 92.465927 180.330477 
L 92.349876 179.087415 
L 92.290909 177.844353 
L 92.292704 176.601292 
L 92.357883 175.35823 
L 92.487963 174.115169 
L 92.683368 172.872107 
L 92.943476 171.629045 
L 93.266698 170.385984 
L 93.65058 169.142922 
L 94.091898 167.899861 
L 94.586755 166.656799 
L 95.13066 165.413738 
L 95.718598 164.170676 
L 96.345079 162.927614 
L 97.004193 161.684553 
L 97.689649 160.441491 
L 98.394845 159.19843 
L 99.112942 157.955368 
L 99.836965 156.712306 
L 100.559939 155.469245 
L 101.275038 154.226183 
L 101.975756 152.983122 
L 102.656089 151.74006 
L 103.310703 150.496998 
L 103.935089 149.253937 
L 104.525681 148.010875 
L 105.079929 146.767814 
L 105.596323 145.524752 
L 106.074358 144.28169 
L 106.514453 143.038629 
L 106.917815 141.795567 
L 107.28628 140.552506 
L 107.622129 139.309444 
L 107.927899 138.066382 
L 108.206208 136.823321 
L 108.459606 135.580259 
L 108.690461 134.337198 
L 108.900885 133.094136 
L 109.092703 131.851075 
L 109.267465 130.608013 
L 109.426486 129.364951 
L 109.570916 128.12189 
L 109.701812 126.878828 
L 109.820222 125.635767 
L 109.927247 124.392705 
L 110.024091 123.149643 
L 110.112085 121.906582 
L 110.192682 120.66352 
L 110.267427 119.420459 
L 110.337906 118.177397 
L 110.405679 116.934335 
L 110.472205 115.691274 
L 110.53877 114.448212 
L 113.315775 114.448212 
L 113.315775 114.448212 
L 113.38234 115.691274 
L 113.448867 116.934335 
L 113.516639 118.177397 
L 113.587118 119.420459 
L 113.661863 120.66352 
L 113.74246 121.906582 
L 113.830454 123.149643 
L 113.927299 124.392705 
L 114.034323 125.635767 
L 114.152733 126.878828 
L 114.283629 128.12189 
L 114.428059 129.364951 
L 114.587081 130.608013 
L 114.761843 131.851075 
L 114.953661 133.094136 
L 115.164085 134.337198 
L 115.39494 135.580259 
L 115.648338 136.823321 
L 115.926646 138.066382 
L 116.232416 139.309444 
L 116.568265 140.552506 
L 116.936731 141.795567 
L 117.340093 143.038629 
L 117.780187 144.28169 
L 118.258223 145.524752 
L 118.774616 146.767814 
L 119.328864 148.010875 
L 119.919456 149.253937 
L 120.543842 150.496998 
L 121.198457 151.74006 
L 121.878789 152.983122 
L 122.579508 154.226183 
L 123.294606 155.469245 
L 124.01758 156.712306 
L 124.741604 157.955368 
L 125.4597 159.19843 
L 126.164896 160.441491 
L 126.850353 161.684553 
L 127.509466 162.927614 
L 128.135948 164.170676 
L 128.723885 165.413738 
L 129.267791 166.656799 
L 129.762647 167.899861 
L 130.203965 169.142922 
L 130.587847 170.385984 
L 130.91107 171.629045 
L 131.171177 172.872107 
L 131.366582 174.115169 
L 131.496663 175.35823 
L 131.561841 176.601292 
L 131.563636 177.844353 
L 131.504669 179.087415 
L 131.388618 180.330477 
L 131.220119 181.573538 
L 131.0046 182.8166 
L 130.74808 184.059661 
L 130.456913 185.302723 
L 130.13752 186.545785 
L 129.796117 187.788846 
L 129.438455 189.031908 
L 129.069602 190.274969 
L 128.693774 191.518031 
L 128.314223 192.761093 
L 127.9332 194.004154 
L 127.551975 195.247216 
L 127.170924 196.490277 
L 126.789651 197.733339 
L 126.407157 198.976401 
L 126.022021 200.219462 
L 125.632584 201.462524 
L 125.237124 202.705585 
L 124.834017 203.948647 
L 124.42187 205.191708 
L 123.99962 206.43477 
L 123.566615 207.677832 
L 123.122661 208.920893 
L 122.668046 210.163955 
L 122.203546 211.407016 
L 121.730415 212.650078 
L 121.250356 213.89314 
L 120.765481 215.136201 
L 120.278263 216.379263 
L 119.791462 217.622324 
L 119.308055 218.865386 
L 118.831138 220.108448 
L 118.363827 221.351509 
L 117.909152 222.594571 
L 117.469943 223.837632 
L 117.04873 225.080694 
L 116.647642 226.323756 
L 116.268335 227.566817 
L 115.911938 228.809879 
L 115.579031 230.05294 
L 115.269645 231.296002 
L 114.983307 232.539064 
L 114.719096 233.782125 
L 114.475734 235.025187 
L 114.251686 236.268248 
L 114.045264 237.51131 
L 114.045264 237.51131 
z
" clip-path="url(#p1770dedf80)" style="fill: none; stroke: #000000; stroke-opacity: 0.3"/>
   </g>
   <g id="matplotlib.axis_1"/>
   <g id="matplotlib.axis_2">
    <g id="ytick_1">
     <g id="line2d_1">
      <defs>
       <path id="mefc963e420" d="M 0 0 
L -3.5 0 
" style="stroke: #000000; stroke-width: 0.8"/>
      </defs>
      <g>
       <use xlink:href="#mefc963e420" x="21.6" y="291.6" style="stroke: #000000; stroke-width: 0.8"/>
      </g>
     </g>
    </g>
    <g id="ytick_2">
     <g id="line2d_2">
      <g>
       <use xlink:href="#mefc963e420" x="21.6" y="199.8" style="stroke: #000000; stroke-width: 0.8"/>
      </g>
     </g>
    </g>
    <g id="ytick_3">
     <g id="line2d_3">
      <g>
       <use xlink:href="#mefc963e420" x="21.6" y="108" style="stroke: #000000; stroke-width: 0.8"/>
      </g>
     </g>
    </g>
    <g id="ytick_4">
     <g id="line2d_4">
      <g>
       <use xlink:href="#mefc963e420" x="21.6" y="16.2" style="stroke: #000000; stroke-width: 0.8"/>
      </g>
     </g>
    </g>
   </g>
   <g id="line2d_5">
    <path d="M 46.472727 269.568 
L 46.472727 264.06 
" clip-path="url(#p1770dedf80)" style="fill: none; stroke: #000000; stroke-linecap: square"/>
   </g>
   <g id="line2d_6">
    <path d="M 46.472727 269.568 
L 111.927273 269.568 
" clip-path="url(#p1770dedf80)" style="fill: none; stroke: #000000; stroke-linecap: square"/>
   </g>
   <g id="line2d_7">
    <path d="M 111.927273 269.568 
L 111.927273 264.06 
" clip-path="url(#p1770dedf80)" style="fill: none; stroke: #000000; stroke-linecap: square"/>
   </g>
   <g id="patch_3">
    <path d="M 21.6 291.6 
L 21.6 16.2 
" style="fill: none; stroke: #000000; stroke-width: 0.8; stroke-linejoin: miter; stroke-linecap: square"/>
   </g>
   <g id="patch_4">
    <path d="M 136.8 291.6 
L 136.8 16.2 
" style="fill: none; stroke: #000000; stroke-width: 0.8; stroke-linejoin: miter; stroke-linecap: square"/>
   </g>
   <g id="patch_5">
    <path d="M 21.6 291.6 
L 136.8 291.6 
" style="fill: none; stroke: #000000; stroke-width: 0.8; stroke-linejoin: miter; stroke-linecap: square"/>
   </g>
   <g id="patch_6">
    <path d="M 21.6 16.2 
L 136.8 16.2 
" style="fill: none; stroke: #000000; stroke-width: 0.8; stroke-linejoin: miter; stroke-linecap: square"/>
   </g>
   <g id="text_1">
    <text style="font-weight: 700; font-size: 12px; font-family: 'DejaVu Sans', 'Bitstream Vera Sans', 'Computer Modern Sans Serif', 'Lucida Grande', 'Verdana', 'Geneva', 'Lucid', 'Arial', 'Helvetica', 'Avant Garde', sans-serif; text-anchor: middle" x="46.472727" y="289.104375" transform="rotate(-0 46.472727 289.104375)">#20</text>
   </g>
   <g id="text_2">
    <text style="font-weight: 700; font-size: 12px; font-family: 'DejaVu Sans', 'Bitstream Vera Sans', 'Computer Modern Sans Serif', 'Lucida Grande', 'Verdana', 'Geneva', 'Lucid', 'Arial', 'Helvetica', 'Avant Garde', sans-serif; text-anchor: middle" x="111.927273" y="289.104375" transform="rotate(-0 111.927273 289.104375)">#26</text>
   </g>
   <g id="text_3">
    <text style="font-size: 12px; font-family: 'DejaVu Sans', 'Bitstream Vera Sans', 'Computer Modern Sans Serif', 'Lucida Grande', 'Verdana', 'Geneva', 'Lucid', 'Arial', 'Helvetica', 'Avant Garde', sans-serif; text-anchor: middle" x="79.2" y="268.449375" transform="rotate(-0 79.2 268.449375)">**</text>
   </g>
   <g id="line2d_8">
    <path d="M 21.6 166.21886 
L 136.8 166.21886 
" clip-path="url(#p1770dedf80)" style="fill: none; stroke-dasharray: 3.7,1.6; stroke-dashoffset: 0; stroke: #808080; stroke-opacity: 0.7"/>
   </g>
   <g id="line2d_9">
    <path d="M 21.6 174.832136 
L 136.8 174.832136 
" clip-path="url(#p1770dedf80)" style="fill: none; stroke-dasharray: 3.7,1.6; stroke-dashoffset: 0; stroke: #808080; stroke-opacity: 0.7"/>
   </g>
   <g id="LineCollection_1">
    <path d="M 46.472727 172.059422 
L 46.472727 160.378298 
" clip-path="url(#p1770dedf80)" style="fill: none; stroke: #000000; stroke-width: 2"/>
   </g>
   <g id="line2d_10">
    <defs>
     <path id="m488a79cadb" d="M 5 0 
L -5 -0 
" style="stroke: #000000; stroke-width: 2"/>
    </defs>
    <g clip-path="url(#p1770dedf80)">
     <use xlink:href="#m488a79cadb" x="46.472727" y="172.059422" style="stroke: #000000; stroke-width: 2"/>
    </g>
   </g>
   <g id="line2d_11">
    <g clip-path="url(#p1770dedf80)">
     <use xlink:href="#m488a79cadb" x="46.472727" y="160.378298" style="stroke: #000000; stroke-width: 2"/>
    </g>
   </g>
   <g id="LineCollection_2">
    <path d="M 111.927273 177.885501 
L 111.927273 171.77877 
" clip-path="url(#p1770dedf80)" style="fill: none; stroke: #000000; stroke-width: 2"/>
   </g>
   <g id="line2d_12">
    <g clip-path="url(#p1770dedf80)">
     <use xlink:href="#m488a79cadb" x="111.927273" y="177.885501" style="stroke: #000000; stroke-width: 2"/>
    </g>
   </g>
   <g id="line2d_13">
    <g clip-path="url(#p1770dedf80)">
     <use xlink:href="#m488a79cadb" x="111.927273" y="171.77877" style="stroke: #000000; stroke-width: 2"/>
    </g>
   </g>
   <g id="line2d_14">
    <defs>
     <path id="mbe59128fce" d="M 0 4 
C 1.060812 4 2.078319 3.578535 2.828427 2.828427 
C 3.578535 2.078319 4 1.060812 4 0 
C 4 -1.060812 3.578535 -2.078319 2.828427 -2.828427 
C 2.078319 -3.578535 1.060812 -4 0 -4 
C -1.060812 -4 -2.078319 -3.578535 -2.828427 -2.828427 
C -3.578535 -2.078319 -4 -1.060812 -4 0 
C -4 1.060812 -3.578535 2.078319 -2.828427 2.828427 
C -2.078319 3.578535 -1.060812 4 0 4 
z
" style="stroke: #000000"/>
    </defs>
    <g clip-path="url(#p1770dedf80)">
     <use xlink:href="#mbe59128fce" x="46.472727" y="166.21886" style="stroke: #000000"/>
    </g>
   </g>
   <g id="line2d_15">
    <g clip-path="url(#p1770dedf80)">
     <use xlink:href="#mbe59128fce" x="111.927273" y="174.832136" style="stroke: #000000"/>
    </g>
   </g>
  </g>
 </g>
 <defs>
  <clipPath id="p1770dedf80">
   <rect x="21.6" y="16.2" width="115.2" height="275.4"/>
  </clipPath>
 </defs>
</svg>
