<?xml version="1.0" encoding="utf-8" standalone="no"?>
<!DOCTYPE svg PUBLIC "-//W3C//DTD SVG 1.1//EN"
  "http://www.w3.org/Graphics/SVG/1.1/DTD/svg11.dtd">
<svg xmlns:xlink="http://www.w3.org/1999/xlink" width="144pt" height="324pt" viewBox="0 0 144 324" xmlns="http://www.w3.org/2000/svg" version="1.1">
 <metadata>
  <rdf:RDF xmlns:dc="http://purl.org/dc/elements/1.1/" xmlns:cc="http://creativecommons.org/ns#" xmlns:rdf="http://www.w3.org/1999/02/22-rdf-syntax-ns#">
   <cc:Work>
    <dc:type rdf:resource="http://purl.org/dc/dcmitype/StillImage"/>
    <dc:date>2025-12-08T20:11:12.129478</dc:date>
    <dc:format>image/svg+xml</dc:format>
    <dc:creator>
     <cc:Agent>
      <dc:title>Matplotlib v3.10.0, https://matplotlib.org/</dc:title>
     </cc:Agent>
    </dc:creator>
   </cc:Work>
  </rdf:RDF>
 </metadata>
 <defs>
  <style type="text/css">*{stroke-linejoin: round; stroke-linecap: butt}</style>
 </defs>
 <g id="figure_1">
  <g id="patch_1">
   <path d="M 0 324 
L 144 324 
L 144 0 
L 0 0 
z
" style="fill: #ffffff"/>
  </g>
  <g id="axes_1">
   <g id="patch_2">
    <path d="M 21.6 291.6 
L 136.8 291.6 
L 136.8 16.2 
L 21.6 16.2 
z
" style="fill: #ffffff"/>
   </g>
   <g id="FillBetweenPolyCollection_1">
    <path d="M 47.355782 208.206686 
L 45.589673 208.206686 
L 45.439395 206.714874 
L 45.261716 205.223062 
L 45.051604 203.73125 
L 44.804587 202.239438 
L 44.517363 200.747626 
L 44.188328 199.255814 
L 43.817917 197.764002 
L 43.408671 196.27219 
L 42.964958 194.780378 
L 42.492359 193.288566 
L 41.996759 191.796754 
L 41.483287 190.304942 
L 40.955263 188.81313 
L 40.413366 187.321318 
L 39.855198 185.829505 
L 39.275405 184.337693 
L 38.666396 182.845881 
L 38.019616 181.354069 
L 37.327202 179.862257 
L 36.583766 178.370445 
L 35.788011 176.878633 
L 34.943873 175.386821 
L 34.060974 173.895009 
L 33.154277 172.403197 
L 32.242999 170.911385 
L 31.348935 169.419573 
L 30.494506 167.927761 
L 29.700816 166.435949 
L 28.986038 164.944137 
L 28.364313 163.452325 
L 27.845236 161.960513 
L 27.433888 160.468701 
L 27.131244 158.976889 
L 26.934782 157.485077 
L 26.839086 155.993265 
L 26.836364 154.501453 
L 26.916835 153.00964 
L 27.069085 151.517828 
L 27.280496 150.026016 
L 27.53788 148.534204 
L 27.828379 147.042392 
L 28.1406 145.55058 
L 28.465841 144.058768 
L 28.799207 142.566956 
L 29.140341 141.075144 
L 29.493588 139.583332 
L 29.867433 138.09152 
L 30.273246 136.599708 
L 30.723464 135.107896 
L 31.229488 133.616084 
L 31.799616 132.124272 
L 32.437374 130.63246 
L 33.14051 129.140648 
L 33.900833 127.648836 
L 34.704916 126.157024 
L 35.535535 124.665212 
L 36.373605 123.1734 
L 37.200295 121.681588 
L 37.998976 120.189776 
L 38.756734 118.697963 
L 39.465239 117.206151 
L 40.120909 115.714339 
L 40.724415 114.222527 
L 41.279677 112.730715 
L 41.792575 111.238903 
L 42.269598 109.747091 
L 42.716646 108.255279 
L 43.138146 106.763467 
L 43.536557 105.271655 
L 43.912264 103.779843 
L 44.263823 102.288031 
L 44.588439 100.796219 
L 44.882584 99.304407 
L 45.142633 97.812595 
L 45.365425 96.320783 
L 45.548725 94.828971 
L 45.69152 93.337159 
L 45.794195 91.845347 
L 45.85857 90.353535 
L 45.887844 88.861723 
L 45.886456 87.369911 
L 45.859872 85.878098 
L 45.81431 84.386286 
L 45.756402 82.894474 
L 45.692808 81.402662 
L 45.629801 79.91085 
L 45.572871 78.419038 
L 45.526383 76.927226 
L 45.493347 75.435414 
L 45.475335 73.943602 
L 45.472559 72.45179 
L 45.484093 70.959978 
L 45.508212 69.468166 
L 45.542767 67.976354 
L 45.585544 66.484542 
L 45.634534 64.99273 
L 45.688099 63.500918 
L 45.744996 62.009106 
L 45.804306 60.517294 
L 47.141148 60.517294 
L 47.141148 60.517294 
L 47.200459 62.009106 
L 47.257356 63.500918 
L 47.31092 64.99273 
L 47.359911 66.484542 
L 47.402687 67.976354 
L 47.437243 69.468166 
L 47.461362 70.959978 
L 47.472896 72.45179 
L 47.470119 73.943602 
L 47.452107 75.435414 
L 47.419071 76.927226 
L 47.372583 78.419038 
L 47.315653 79.91085 
L 47.252646 81.402662 
L 47.189052 82.894474 
L 47.131145 84.386286 
L 47.085583 85.878098 
L 47.058999 87.369911 
L 47.05761 88.861723 
L 47.086884 90.353535 
L 47.151259 91.845347 
L 47.253934 93.337159 
L 47.39673 94.828971 
L 47.580029 96.320783 
L 47.802822 97.812595 
L 48.06287 99.304407 
L 48.357016 100.796219 
L 48.681632 102.288031 
L 49.03319 103.779843 
L 49.408897 105.271655 
L 49.807308 106.763467 
L 50.228809 108.255279 
L 50.675857 109.747091 
L 51.152879 111.238903 
L 51.665778 112.730715 
L 52.22104 114.222527 
L 52.824546 115.714339 
L 53.480216 117.206151 
L 54.18872 118.697963 
L 54.946479 120.189776 
L 55.74516 121.681588 
L 56.571849 123.1734 
L 57.40992 124.665212 
L 58.240538 126.157024 
L 59.044621 127.648836 
L 59.804945 129.140648 
L 60.508081 130.63246 
L 61.145839 132.124272 
L 61.715967 133.616084 
L 62.22199 135.107896 
L 62.672209 136.599708 
L 63.078021 138.09152 
L 63.451866 139.583332 
L 63.805113 141.075144 
L 64.146248 142.566956 
L 64.479613 144.058768 
L 64.804855 145.55058 
L 65.117075 147.042392 
L 65.407574 148.534204 
L 65.664958 150.026016 
L 65.876369 151.517828 
L 66.02862 153.00964 
L 66.109091 154.501453 
L 66.106369 155.993265 
L 66.010673 157.485077 
L 65.81421 158.976889 
L 65.511567 160.468701 
L 65.100218 161.960513 
L 64.581142 163.452325 
L 63.959417 164.944137 
L 63.244639 166.435949 
L 62.450949 167.927761 
L 61.596519 169.419573 
L 60.702456 170.911385 
L 59.791177 172.403197 
L 58.884481 173.895009 
L 58.001581 175.386821 
L 57.157444 176.878633 
L 56.361689 178.370445 
L 55.618253 179.862257 
L 54.925838 181.354069 
L 54.279059 182.845881 
L 53.67005 184.337693 
L 53.090257 185.829505 
L 52.532088 187.321318 
L 51.990191 188.81313 
L 51.462168 190.304942 
L 50.948696 191.796754 
L 50.453096 193.288566 
L 49.980496 194.780378 
L 49.536784 196.27219 
L 49.127537 197.764002 
L 48.757126 199.255814 
L 48.428091 200.747626 
L 48.140867 202.239438 
L 47.893851 203.73125 
L 47.683738 205.223062 
L 47.50606 206.714874 
L 47.355782 208.206686 
L 47.355782 208.206686 
z
" clip-path="url(#p924da76342)" style="fill: none; stroke: #000000; stroke-opacity: 0.3"/>
   </g>
   <g id="FillBetweenPolyCollection_2">
    <path d="M 47.354277 197.54922 
L 45.591178 197.54922 
L 45.466135 196.331569 
L 45.314792 195.113918 
L 45.12881 193.896267 
L 44.899044 192.678616 
L 44.616156 191.460965 
L 44.271363 190.243314 
L 43.857279 189.025663 
L 43.368756 187.808012 
L 42.80364 186.590361 
L 42.163347 185.37271 
L 41.453171 184.155059 
L 40.682265 182.937407 
L 39.863269 181.719756 
L 39.011605 180.502105 
L 38.144497 179.284454 
L 37.279835 178.066803 
L 36.434992 176.849152 
L 35.625745 175.631501 
L 34.865403 174.41385 
L 34.164231 173.196199 
L 33.529191 171.978548 
L 32.963969 170.760897 
L 32.46924 169.543246 
L 32.043062 168.325595 
L 31.68131 167.107943 
L 31.378074 165.890292 
L 31.125988 164.672641 
L 30.916469 163.45499 
L 30.739931 162.237339 
L 30.586003 161.019688 
L 30.443838 159.802037 
L 30.302529 158.584386 
L 30.151674 157.366735 
L 29.982045 156.149084 
L 29.786319 154.931433 
L 29.559774 153.713782 
L 29.300885 152.496131 
L 29.011703 151.27848 
L 28.697986 150.060828 
L 28.369017 148.843177 
L 28.03713 147.625526 
L 27.716952 146.407875 
L 27.424441 145.190224 
L 27.175796 143.972573 
L 26.986361 142.754922 
L 26.869613 141.537271 
L 26.836364 140.31962 
L 26.894243 139.101969 
L 27.047507 137.884318 
L 27.297161 136.666667 
L 27.641352 135.449016 
L 28.075917 134.231364 
L 28.594985 133.013713 
L 29.191511 131.796062 
L 29.857661 130.578411 
L 30.585014 129.36076 
L 31.364588 128.143109 
L 32.186771 126.925458 
L 33.041233 125.707807 
L 33.916913 124.490156 
L 34.802168 123.272505 
L 35.685095 122.054854 
L 36.554014 120.837203 
L 37.398048 119.619552 
L 38.207697 118.4019 
L 38.975323 117.184249 
L 39.695445 115.966598 
L 40.364815 114.748947 
L 40.982265 113.531296 
L 41.548363 112.313645 
L 42.064958 111.095994 
L 42.534697 109.878343 
L 42.960589 108.660692 
L 43.345677 107.443041 
L 43.692851 106.22539 
L 44.004784 105.007739 
L 44.283968 103.790088 
L 44.532798 102.572437 
L 44.753652 101.354785 
L 44.948934 100.137134 
L 45.121049 98.919483 
L 45.272325 97.701832 
L 45.404894 96.484181 
L 45.520569 95.26653 
L 45.620761 94.048879 
L 45.70645 92.831228 
L 45.778245 91.613577 
L 45.836514 90.395926 
L 45.881577 89.178275 
L 45.91392 87.960624 
L 45.934392 86.742973 
L 45.944348 85.525321 
L 45.945713 84.30767 
L 45.940936 83.090019 
L 45.932857 81.872368 
L 45.924489 80.654717 
L 45.91875 79.437066 
L 45.918196 78.219415 
L 45.924779 77.001764 
L 47.020675 77.001764 
L 47.020675 77.001764 
L 47.027259 78.219415 
L 47.026705 79.437066 
L 47.020966 80.654717 
L 47.012597 81.872368 
L 47.004519 83.090019 
L 46.999742 84.30767 
L 47.001106 85.525321 
L 47.011063 86.742973 
L 47.031534 87.960624 
L 47.063877 89.178275 
L 47.108941 90.395926 
L 47.16721 91.613577 
L 47.239005 92.831228 
L 47.324694 94.048879 
L 47.424885 95.26653 
L 47.540561 96.484181 
L 47.673129 97.701832 
L 47.824405 98.919483 
L 47.99652 100.137134 
L 48.191802 101.354785 
L 48.412656 102.572437 
L 48.661486 103.790088 
L 48.94067 105.007739 
L 49.252603 106.22539 
L 49.599778 107.443041 
L 49.984866 108.660692 
L 50.410758 109.878343 
L 50.880497 111.095994 
L 51.397092 112.313645 
L 51.963189 113.531296 
L 52.580639 114.748947 
L 53.25001 115.966598 
L 53.970132 117.184249 
L 54.737758 118.4019 
L 55.547407 119.619552 
L 56.39144 120.837203 
L 57.26036 122.054854 
L 58.143287 123.272505 
L 59.028542 124.490156 
L 59.904222 125.707807 
L 60.758683 126.925458 
L 61.580867 128.143109 
L 62.360441 129.36076 
L 63.087793 130.578411 
L 63.753943 131.796062 
L 64.350469 133.013713 
L 64.869537 134.231364 
L 65.304102 135.449016 
L 65.648293 136.666667 
L 65.897947 137.884318 
L 66.051211 139.101969 
L 66.109091 140.31962 
L 66.075842 141.537271 
L 65.959093 142.754922 
L 65.769658 143.972573 
L 65.521014 145.190224 
L 65.228502 146.407875 
L 64.908324 147.625526 
L 64.576437 148.843177 
L 64.247469 150.060828 
L 63.933751 151.27848 
L 63.64457 152.496131 
L 63.38568 153.713782 
L 63.159136 154.931433 
L 62.963409 156.149084 
L 62.793781 157.366735 
L 62.642925 158.584386 
L 62.501616 159.802037 
L 62.359451 161.019688 
L 62.205524 162.237339 
L 62.028986 163.45499 
L 61.819467 164.672641 
L 61.56738 165.890292 
L 61.264145 167.107943 
L 60.902392 168.325595 
L 60.476214 169.543246 
L 59.981485 170.760897 
L 59.416263 171.978548 
L 58.781223 173.196199 
L 58.080052 174.41385 
L 57.31971 175.631501 
L 56.510462 176.849152 
L 55.665619 178.066803 
L 54.800957 179.284454 
L 53.93385 180.502105 
L 53.082185 181.719756 
L 52.263189 182.937407 
L 51.492283 184.155059 
L 50.782107 185.37271 
L 50.141815 186.590361 
L 49.576699 187.808012 
L 49.088176 189.025663 
L 48.674092 190.243314 
L 48.329299 191.460965 
L 48.04641 192.678616 
L 47.816645 193.896267 
L 47.630663 195.113918 
L 47.47932 196.331569 
L 47.354277 197.54922 
L 47.354277 197.54922 
z
" clip-path="url(#p924da76342)" style="fill: none; stroke: #000000; stroke-opacity: 0.3"/>
   </g>
   <g id="FillBetweenPolyCollection_3">
    <path d="M 47.832794 220.600096 
L 45.11266 220.600096 
L 45.037432 219.356002 
L 44.974538 218.111907 
L 44.924001 216.867813 
L 44.884832 215.623719 
L 44.855046 214.379625 
L 44.831755 213.13553 
L 44.81135 211.891436 
L 44.78973 210.647342 
L 44.762588 209.403248 
L 44.725695 208.159153 
L 44.675168 206.915059 
L 44.607698 205.670965 
L 44.520691 204.42687 
L 44.412329 203.182776 
L 44.281535 201.938682 
L 44.127836 200.694588 
L 43.951172 199.450493 
L 43.751638 198.206399 
L 43.529232 196.962305 
L 43.283612 195.718211 
L 43.013926 194.474116 
L 42.718727 193.230022 
L 42.395995 191.985928 
L 42.043286 190.741834 
L 41.657977 189.497739 
L 41.237613 188.253645 
L 40.780297 187.009551 
L 40.285096 185.765456 
L 39.752406 184.521362 
L 39.184236 183.277268 
L 38.584351 182.033174 
L 37.958268 180.789079 
L 37.313067 179.544985 
L 36.657031 178.300891 
L 35.99914 177.056797 
L 35.348451 175.812702 
L 34.713444 174.568608 
L 34.10138 173.324514 
L 33.517772 172.080419 
L 32.966009 170.836325 
L 32.4472 169.592231 
L 31.960265 168.348137 
L 31.502255 167.104042 
L 31.068894 165.859948 
L 30.65526 164.615854 
L 30.256537 163.37176 
L 29.868741 162.127665 
L 29.489346 160.883571 
L 29.117716 159.639477 
L 28.755313 158.395383 
L 28.405657 157.151288 
L 28.074051 155.907194 
L 27.767118 154.6631 
L 27.492232 153.419005 
L 27.256888 152.174911 
L 27.068136 150.930817 
L 26.932101 149.686723 
L 26.853673 148.442628 
L 26.836364 147.198534 
L 26.88233 145.95444 
L 26.992544 144.710346 
L 27.167044 143.466251 
L 27.40522 142.222157 
L 27.706076 140.978063 
L 28.06841 139.733968 
L 28.490894 138.489874 
L 28.972029 137.24578 
L 29.509996 136.001686 
L 30.102415 134.757591 
L 30.746076 133.513497 
L 31.436667 132.269403 
L 32.168572 131.025309 
L 32.934759 129.781214 
L 33.726806 128.53712 
L 34.535065 127.293026 
L 35.348965 126.048932 
L 36.157428 124.804837 
L 36.949372 123.560743 
L 37.71425 122.316649 
L 38.442572 121.072554 
L 39.126385 119.82846 
L 39.759639 118.584366 
L 40.33844 117.340272 
L 40.861149 116.096177 
L 41.32833 114.852083 
L 41.742562 113.607989 
L 42.108121 112.363895 
L 42.430571 111.1198 
L 42.716309 109.875706 
L 42.972082 108.631612 
L 43.204538 107.387518 
L 43.419821 106.143423 
L 43.623262 104.899329 
L 43.819154 103.655235 
L 44.01064 102.41114 
L 44.199697 101.167046 
L 44.387208 99.922952 
L 44.573103 98.678858 
L 44.75655 97.434763 
L 48.188905 97.434763 
L 48.188905 97.434763 
L 48.372351 98.678858 
L 48.558246 99.922952 
L 48.745757 101.167046 
L 48.934815 102.41114 
L 49.126301 103.655235 
L 49.322192 104.899329 
L 49.525633 106.143423 
L 49.740917 107.387518 
L 49.973372 108.631612 
L 50.229146 109.875706 
L 50.514884 111.1198 
L 50.837334 112.363895 
L 51.202892 113.607989 
L 51.617124 114.852083 
L 52.084306 116.096177 
L 52.607014 117.340272 
L 53.185815 118.584366 
L 53.819069 119.82846 
L 54.502882 121.072554 
L 55.231205 122.316649 
L 55.996082 123.560743 
L 56.788027 124.804837 
L 57.59649 126.048932 
L 58.410389 127.293026 
L 59.218648 128.53712 
L 60.010696 129.781214 
L 60.776883 131.025309 
L 61.508788 132.269403 
L 62.199379 133.513497 
L 62.843039 134.757591 
L 63.435459 136.001686 
L 63.973425 137.24578 
L 64.454561 138.489874 
L 64.877044 139.733968 
L 65.239378 140.978063 
L 65.540234 142.222157 
L 65.778411 143.466251 
L 65.952911 144.710346 
L 66.063125 145.95444 
L 66.109091 147.198534 
L 66.091781 148.442628 
L 66.013354 149.686723 
L 65.877319 150.930817 
L 65.688566 152.174911 
L 65.453223 153.419005 
L 65.178336 154.6631 
L 64.871404 155.907194 
L 64.539797 157.151288 
L 64.190141 158.395383 
L 63.827739 159.639477 
L 63.456109 160.883571 
L 63.076714 162.127665 
L 62.688918 163.37176 
L 62.290194 164.615854 
L 61.87656 165.859948 
L 61.4432 167.104042 
L 60.98519 168.348137 
L 60.498254 169.592231 
L 59.979446 170.836325 
L 59.427683 172.080419 
L 58.844075 173.324514 
L 58.232011 174.568608 
L 57.597003 175.812702 
L 56.946314 177.056797 
L 56.288423 178.300891 
L 55.632388 179.544985 
L 54.987187 180.789079 
L 54.361104 182.033174 
L 53.761219 183.277268 
L 53.193048 184.521362 
L 52.660359 185.765456 
L 52.165158 187.009551 
L 51.707842 188.253645 
L 51.287478 189.497739 
L 50.902169 190.741834 
L 50.549459 191.985928 
L 50.226728 193.230022 
L 49.931528 194.474116 
L 49.661843 195.718211 
L 49.416223 196.962305 
L 49.193816 198.206399 
L 48.994283 199.450493 
L 48.817618 200.694588 
L 48.66392 201.938682 
L 48.533125 203.182776 
L 48.424764 204.42687 
L 48.337757 205.670965 
L 48.270287 206.915059 
L 48.21976 208.159153 
L 48.182866 209.403248 
L 48.155724 210.647342 
L 48.134105 211.891436 
L 48.113699 213.13553 
L 48.090409 214.379625 
L 48.060623 215.623719 
L 48.021454 216.867813 
L 47.970917 218.111907 
L 47.908023 219.356002 
L 47.832794 220.600096 
L 47.832794 220.600096 
z
" clip-path="url(#p924da76342)" style="fill: none; stroke: #000000; stroke-opacity: 0.3"/>
   </g>
   <g id="FillBetweenPolyCollection_4">
    <path d="M 113.031892 141.846388 
L 110.822654 141.846388 
L 110.642567 140.725475 
L 110.444435 139.604561 
L 110.225005 138.483648 
L 109.979526 137.362735 
L 109.70166 136.241821 
L 109.383581 135.120908 
L 109.016316 133.999995 
L 108.59035 132.879081 
L 108.096484 131.758168 
L 107.526901 130.637255 
L 106.876316 129.516341 
L 106.143069 128.395428 
L 105.329961 127.274515 
L 104.444685 126.153601 
L 103.499689 125.032688 
L 102.511472 123.911775 
L 101.499352 122.790861 
L 100.483882 121.669948 
L 99.48518 120.549035 
L 98.521409 119.428121 
L 97.607672 118.307208 
L 96.75544 117.186295 
L 95.972531 116.065381 
L 95.263576 114.944468 
L 94.630754 113.823555 
L 94.07463 112.702641 
L 93.594898 111.581728 
L 93.190929 110.460815 
L 92.86209 109.339901 
L 92.607888 108.218988 
L 92.428008 107.098075 
L 92.322322 105.977161 
L 92.290909 104.856248 
L 92.334083 103.735335 
L 92.452377 102.614421 
L 92.64643 101.493508 
L 92.916746 100.372595 
L 93.263318 99.251681 
L 93.685178 98.130768 
L 94.179959 97.009855 
L 94.743553 95.888941 
L 95.369948 94.768028 
L 96.051288 93.647115 
L 96.778125 92.526201 
L 97.539849 91.405288 
L 98.325199 90.284375 
L 99.122793 89.163461 
L 99.921621 88.042548 
L 100.711438 86.921635 
L 101.483046 85.800721 
L 102.228457 84.679808 
L 102.940946 83.558895 
L 103.615024 82.437981 
L 104.246365 81.317068 
L 104.831721 80.196155 
L 105.368859 79.075241 
L 105.856527 77.954328 
L 106.29447 76.833415 
L 106.683454 75.712501 
L 107.025302 74.591588 
L 107.322897 73.470675 
L 107.580156 72.349761 
L 107.801948 71.228848 
L 107.993965 70.107935 
L 108.162537 68.987021 
L 108.314397 67.866108 
L 108.456373 66.745195 
L 108.595021 65.624281 
L 108.736207 64.503368 
L 108.88466 63.382455 
L 109.043563 62.261541 
L 109.214242 61.140628 
L 109.396032 60.019714 
L 109.586361 58.898801 
L 109.781086 57.777888 
L 109.975037 56.656974 
L 110.162704 55.536061 
L 110.338949 54.415148 
L 110.499636 53.294234 
L 110.642057 52.173321 
L 110.765109 51.052408 
L 110.86919 49.931494 
L 110.955869 48.810581 
L 111.027405 47.689668 
L 111.086237 46.568754 
L 111.134545 45.447841 
L 111.173976 44.326928 
L 111.205571 43.206014 
L 111.229892 42.085101 
L 111.247295 40.964188 
L 111.258265 39.843274 
L 111.263719 38.722361 
L 111.265192 37.601448 
L 111.264866 36.480534 
L 111.265403 35.359621 
L 111.269649 34.238708 
L 111.28024 33.117794 
L 111.29922 31.996881 
L 111.32773 30.875968 
L 112.526815 30.875968 
L 112.526815 30.875968 
L 112.555326 31.996881 
L 112.574306 33.117794 
L 112.584897 34.238708 
L 112.589142 35.359621 
L 112.58968 36.480534 
L 112.589353 37.601448 
L 112.590827 38.722361 
L 112.59628 39.843274 
L 112.60725 40.964188 
L 112.624653 42.085101 
L 112.648974 43.206014 
L 112.680569 44.326928 
L 112.72 45.447841 
L 112.768308 46.568754 
L 112.827141 47.689668 
L 112.898677 48.810581 
L 112.985356 49.931494 
L 113.089437 51.052408 
L 113.212488 52.173321 
L 113.354909 53.294234 
L 113.515596 54.415148 
L 113.691842 55.536061 
L 113.879509 56.656974 
L 114.07346 57.777888 
L 114.268184 58.898801 
L 114.458513 60.019714 
L 114.640303 61.140628 
L 114.810983 62.261541 
L 114.969886 63.382455 
L 115.118339 64.503368 
L 115.259524 65.624281 
L 115.398173 66.745195 
L 115.540148 67.866108 
L 115.692008 68.987021 
L 115.860581 70.107935 
L 116.052597 71.228848 
L 116.274389 72.349761 
L 116.531648 73.470675 
L 116.829243 74.591588 
L 117.171091 75.712501 
L 117.560076 76.833415 
L 117.998019 77.954328 
L 118.485687 79.075241 
L 119.022824 80.196155 
L 119.60818 81.317068 
L 120.239522 82.437981 
L 120.9136 83.558895 
L 121.626089 84.679808 
L 122.3715 85.800721 
L 123.143108 86.921635 
L 123.932924 88.042548 
L 124.731752 89.163461 
L 125.529347 90.284375 
L 126.314696 91.405288 
L 127.076421 92.526201 
L 127.803258 93.647115 
L 128.484597 94.768028 
L 129.110993 95.888941 
L 129.674586 97.009855 
L 130.169368 98.130768 
L 130.591228 99.251681 
L 130.937799 100.372595 
L 131.208115 101.493508 
L 131.402169 102.614421 
L 131.520462 103.735335 
L 131.563636 104.856248 
L 131.532223 105.977161 
L 131.426537 107.098075 
L 131.246657 108.218988 
L 130.992456 109.339901 
L 130.663617 110.460815 
L 130.259647 111.581728 
L 129.779916 112.702641 
L 129.223791 113.823555 
L 128.590969 114.944468 
L 127.882014 116.065381 
L 127.099106 117.186295 
L 126.246873 118.307208 
L 125.333137 119.428121 
L 124.369366 120.549035 
L 123.370663 121.669948 
L 122.355194 122.790861 
L 121.343073 123.911775 
L 120.354857 125.032688 
L 119.409861 126.153601 
L 118.524584 127.274515 
L 117.711477 128.395428 
L 116.978229 129.516341 
L 116.327644 130.637255 
L 115.758061 131.758168 
L 115.264195 132.879081 
L 114.838229 133.999995 
L 114.470965 135.120908 
L 114.152886 136.241821 
L 113.87502 137.362735 
L 113.62954 138.483648 
L 113.41011 139.604561 
L 113.211979 140.725475 
L 113.031892 141.846388 
L 113.031892 141.846388 
z
" clip-path="url(#p924da76342)" style="fill: none; stroke: #000000; stroke-opacity: 0.3"/>
   </g>
   <g id="FillBetweenPolyCollection_5">
    <path d="M 112.27288 182.992722 
L 111.581665 182.992722 
L 111.586992 181.61748 
L 111.602503 180.242238 
L 111.626771 178.866996 
L 111.657645 177.491754 
L 111.692535 176.116512 
L 111.728722 174.74127 
L 111.763629 173.366029 
L 111.795002 171.990787 
L 111.820984 170.615545 
L 111.840065 169.240303 
L 111.850945 167.865061 
L 111.852348 166.489819 
L 111.84282 165.114577 
L 111.820573 163.739335 
L 111.783394 162.364093 
L 111.728655 160.988851 
L 111.653411 159.613609 
L 111.554577 158.238367 
L 111.429158 156.863125 
L 111.274467 155.487884 
L 111.088301 154.112642 
L 110.869023 152.7374 
L 110.615542 151.362158 
L 110.327189 149.986916 
L 110.003548 148.611674 
L 109.644275 147.236432 
L 109.24899 145.86119 
L 108.817261 144.485948 
L 108.348691 143.110706 
L 107.843058 141.735464 
L 107.300442 140.360222 
L 106.721264 138.98498 
L 106.106191 137.609739 
L 105.455936 136.234497 
L 104.771012 134.859255 
L 104.051565 133.484013 
L 103.297415 132.108771 
L 102.508368 130.733529 
L 101.684831 129.358287 
L 100.828629 127.983045 
L 99.943904 126.607803 
L 99.037894 125.232561 
L 98.121436 123.857319 
L 97.209049 122.482077 
L 96.318547 121.106835 
L 95.470175 119.731593 
L 94.685367 118.356352 
L 93.985249 116.98111 
L 93.389071 115.605868 
L 92.912753 114.230626 
L 92.567727 112.855384 
L 92.3602 111.480142 
L 92.290909 110.1049 
L 92.355354 108.729658 
L 92.544449 107.354416 
L 92.845466 105.979174 
L 93.24316 104.603932 
L 93.720969 103.22869 
L 94.262191 101.853448 
L 94.85109 100.478207 
L 95.47384 99.102965 
L 96.119238 97.727723 
L 96.779089 96.352481 
L 97.448201 94.977239 
L 98.123943 93.601997 
L 98.805424 92.226755 
L 99.492389 90.851513 
L 100.184042 89.476271 
L 100.877987 88.101029 
L 101.569509 86.725787 
L 102.251328 85.350545 
L 102.913881 83.975303 
L 103.546108 82.600062 
L 104.136624 81.22482 
L 104.675086 79.849578 
L 105.153585 78.474336 
L 105.567834 77.099094 
L 105.917985 75.723852 
L 106.208945 74.34861 
L 106.45011 72.973368 
L 106.654505 71.598126 
L 106.837436 70.222884 
L 107.014786 68.847642 
L 107.201207 67.4724 
L 107.408456 66.097158 
L 107.64413 64.721916 
L 107.910993 63.346675 
L 108.206985 61.971433 
L 108.525886 60.596191 
L 108.8585 59.220949 
L 109.194128 57.845707 
L 109.522078 56.470465 
L 109.83298 55.095223 
L 110.11972 53.719981 
L 110.377906 52.344739 
L 110.605869 50.969497 
L 110.804283 49.594255 
L 110.975528 48.219013 
L 111.122961 46.843771 
L 112.731584 46.843771 
L 112.731584 46.843771 
L 112.879017 48.219013 
L 113.050263 49.594255 
L 113.248676 50.969497 
L 113.476639 52.344739 
L 113.734825 53.719981 
L 114.021565 55.095223 
L 114.332468 56.470465 
L 114.660418 57.845707 
L 114.996045 59.220949 
L 115.328659 60.596191 
L 115.647561 61.971433 
L 115.943552 63.346675 
L 116.210415 64.721916 
L 116.446089 66.097158 
L 116.653338 67.4724 
L 116.83976 68.847642 
L 117.01711 70.222884 
L 117.20004 71.598126 
L 117.404436 72.973368 
L 117.6456 74.34861 
L 117.936561 75.723852 
L 118.286711 77.099094 
L 118.70096 78.474336 
L 119.17946 79.849578 
L 119.717922 81.22482 
L 120.308437 82.600062 
L 120.940665 83.975303 
L 121.603217 85.350545 
L 122.285036 86.725787 
L 122.976559 88.101029 
L 123.670504 89.476271 
L 124.362156 90.851513 
L 125.049122 92.226755 
L 125.730602 93.601997 
L 126.406345 94.977239 
L 127.075456 96.352481 
L 127.735307 97.727723 
L 128.380705 99.102965 
L 129.003456 100.478207 
L 129.592355 101.853448 
L 130.133577 103.22869 
L 130.611385 104.603932 
L 131.00908 105.979174 
L 131.310097 107.354416 
L 131.499191 108.729658 
L 131.563636 110.1049 
L 131.494345 111.480142 
L 131.286819 112.855384 
L 130.941793 114.230626 
L 130.465475 115.605868 
L 129.869296 116.98111 
L 129.169178 118.356352 
L 128.38437 119.731593 
L 127.535998 121.106835 
L 126.645496 122.482077 
L 125.73311 123.857319 
L 124.816651 125.232561 
L 123.910641 126.607803 
L 123.025916 127.983045 
L 122.169714 129.358287 
L 121.346177 130.733529 
L 120.557131 132.108771 
L 119.802981 133.484013 
L 119.083534 134.859255 
L 118.398609 136.234497 
L 117.748354 137.609739 
L 117.133282 138.98498 
L 116.554103 140.360222 
L 116.011488 141.735464 
L 115.505855 143.110706 
L 115.037285 144.485948 
L 114.605556 145.86119 
L 114.21027 147.236432 
L 113.850997 148.611674 
L 113.527356 149.986916 
L 113.239004 151.362158 
L 112.985522 152.7374 
L 112.766244 154.112642 
L 112.580078 155.487884 
L 112.425388 156.863125 
L 112.299969 158.238367 
L 112.201135 159.613609 
L 112.12589 160.988851 
L 112.071151 162.364093 
L 112.033973 163.739335 
L 112.011725 165.114577 
L 112.002198 166.489819 
L 112.003601 167.865061 
L 112.014481 169.240303 
L 112.033561 170.615545 
L 112.059543 171.990787 
L 112.090917 173.366029 
L 112.125823 174.74127 
L 112.16201 176.116512 
L 112.1969 177.491754 
L 112.227774 178.866996 
L 112.252042 180.242238 
L 112.267554 181.61748 
L 112.27288 182.992722 
L 112.27288 182.992722 
z
" clip-path="url(#p924da76342)" style="fill: none; stroke: #000000; stroke-opacity: 0.3"/>
   </g>
   <g id="FillBetweenPolyCollection_6">
    <path d="M 113.433214 166.058321 
L 110.421332 166.058321 
L 110.332564 165.038598 
L 110.254902 164.018874 
L 110.189134 162.999151 
L 110.135408 161.979428 
L 110.093218 160.959704 
L 110.061441 159.939981 
L 110.038419 158.920257 
L 110.022067 157.900534 
L 110.010004 156.880811 
L 109.999684 155.861087 
L 109.988514 154.841364 
L 109.973953 153.82164 
L 109.953555 152.801917 
L 109.924991 151.782194 
L 109.886011 150.76247 
L 109.834382 149.742747 
L 109.767807 148.723023 
L 109.683841 147.7033 
L 109.579829 146.683577 
L 109.452886 145.663853 
L 109.29992 144.64413 
L 109.11773 143.624406 
L 108.903147 142.604683 
L 108.65323 141.584959 
L 108.365485 140.565236 
L 108.038082 139.545513 
L 107.670051 138.525789 
L 107.261415 137.506066 
L 106.813258 136.486342 
L 106.327699 135.466619 
L 105.807781 134.446896 
L 105.257282 133.427172 
L 104.680463 132.407449 
L 104.081789 131.387725 
L 103.465645 130.368002 
L 102.836096 129.348279 
L 102.196697 128.328555 
L 101.550407 127.308832 
L 100.899586 126.289108 
L 100.246111 125.269385 
L 99.591572 124.249662 
L 98.937536 123.229938 
L 98.285858 122.210215 
L 97.638978 121.190491 
L 97.000186 120.170768 
L 96.373808 119.151045 
L 95.765291 118.131321 
L 95.181164 117.111598 
L 94.62888 116.091874 
L 94.116548 115.072151 
L 93.652576 114.052428 
L 93.245261 113.032704 
L 92.902368 112.012981 
L 92.630723 110.993257 
L 92.435875 109.973534 
L 92.321834 108.953811 
L 92.290909 107.934087 
L 92.343652 106.914364 
L 92.478899 105.89464 
L 92.693905 104.874917 
L 92.984538 103.855194 
L 93.34554 102.83547 
L 93.7708 101.815747 
L 94.253655 100.796023 
L 94.787171 99.7763 
L 95.364409 98.756577 
L 95.978651 97.736853 
L 96.623584 96.71713 
L 97.293416 95.697406 
L 97.982944 94.677683 
L 98.687545 93.65796 
L 99.403113 92.638236 
L 100.125942 91.618513 
L 100.852571 90.598789 
L 101.579607 89.579066 
L 102.303551 88.559343 
L 103.020646 87.539619 
L 103.726772 86.519896 
L 104.4174 85.500172 
L 105.087614 84.480449 
L 105.732214 83.460726 
L 106.345883 82.441002 
L 106.923416 81.421279 
L 107.459985 80.401555 
L 107.95142 79.381832 
L 108.394485 78.362108 
L 108.787109 77.342385 
L 109.128575 76.322662 
L 109.419616 75.302938 
L 109.662431 74.283215 
L 109.860607 73.263491 
L 110.018946 72.243768 
L 110.143213 71.224045 
L 110.239821 70.204321 
L 110.315475 69.184598 
L 110.376805 68.164874 
L 110.43001 67.145151 
L 110.480553 66.125428 
L 110.532916 65.105704 
L 113.321629 65.105704 
L 113.321629 65.105704 
L 113.373992 66.125428 
L 113.424536 67.145151 
L 113.477741 68.164874 
L 113.53907 69.184598 
L 113.614724 70.204321 
L 113.711332 71.224045 
L 113.8356 72.243768 
L 113.993939 73.263491 
L 114.192115 74.283215 
L 114.43493 75.302938 
L 114.72597 76.322662 
L 115.067436 77.342385 
L 115.460061 78.362108 
L 115.903125 79.381832 
L 116.39456 80.401555 
L 116.931129 81.421279 
L 117.508662 82.441002 
L 118.122332 83.460726 
L 118.766932 84.480449 
L 119.437146 85.500172 
L 120.127773 86.519896 
L 120.8339 87.539619 
L 121.550995 88.559343 
L 122.274938 89.579066 
L 123.001974 90.598789 
L 123.728603 91.618513 
L 124.451433 92.638236 
L 125.167001 93.65796 
L 125.871601 94.677683 
L 126.561129 95.697406 
L 127.230962 96.71713 
L 127.875894 97.736853 
L 128.490137 98.756577 
L 129.067374 99.7763 
L 129.60089 100.796023 
L 130.083745 101.815747 
L 130.509006 102.83547 
L 130.870007 103.855194 
L 131.160641 104.874917 
L 131.375646 105.89464 
L 131.510894 106.914364 
L 131.563636 107.934087 
L 131.532712 108.953811 
L 131.418671 109.973534 
L 131.223823 110.993257 
L 130.952178 112.012981 
L 130.609284 113.032704 
L 130.20197 114.052428 
L 129.737998 115.072151 
L 129.225666 116.091874 
L 128.673382 117.111598 
L 128.089254 118.131321 
L 127.480737 119.151045 
L 126.854359 120.170768 
L 126.215567 121.190491 
L 125.568687 122.210215 
L 124.917009 123.229938 
L 124.262974 124.249662 
L 123.608434 125.269385 
L 122.95496 126.289108 
L 122.304139 127.308832 
L 121.657848 128.328555 
L 121.01845 129.348279 
L 120.3889 130.368002 
L 119.772757 131.387725 
L 119.174082 132.407449 
L 118.597264 133.427172 
L 118.046765 134.446896 
L 117.526847 135.466619 
L 117.041288 136.486342 
L 116.59313 137.506066 
L 116.184495 138.525789 
L 115.816463 139.545513 
L 115.489061 140.565236 
L 115.201315 141.584959 
L 114.951398 142.604683 
L 114.736815 143.624406 
L 114.554625 144.64413 
L 114.40166 145.663853 
L 114.274716 146.683577 
L 114.170705 147.7033 
L 114.086739 148.723023 
L 114.020164 149.742747 
L 113.968535 150.76247 
L 113.929554 151.782194 
L 113.90099 152.801917 
L 113.880593 153.82164 
L 113.866031 154.841364 
L 113.854862 155.861087 
L 113.844541 156.880811 
L 113.832478 157.900534 
L 113.816126 158.920257 
L 113.793104 159.939981 
L 113.761328 160.959704 
L 113.719137 161.979428 
L 113.665411 162.999151 
L 113.599644 164.018874 
L 113.521981 165.038598 
L 113.433214 166.058321 
L 113.433214 166.058321 
z
" clip-path="url(#p924da76342)" style="fill: none; stroke: #000000; stroke-opacity: 0.3"/>
   </g>
   <g id="FillBetweenPolyCollection_7">
    <path d="M 114.775578 137.451392 
L 109.078968 137.451392 
L 108.738942 136.604743 
L 108.365649 135.758094 
L 107.955786 134.911445 
L 107.506411 134.064796 
L 107.015275 133.218148 
L 106.481149 132.371499 
L 105.904124 131.52485 
L 105.285841 130.678201 
L 104.629619 129.831552 
L 103.940479 128.984903 
L 103.22503 128.138255 
L 102.491233 127.291606 
L 101.748062 126.444957 
L 101.005068 125.598308 
L 100.27191 124.751659 
L 99.557867 123.905011 
L 98.87138 123.058362 
L 98.21967 122.211713 
L 97.608436 121.365064 
L 97.041681 120.518415 
L 96.521641 119.671766 
L 96.04884 118.825118 
L 95.622239 117.978469 
L 95.239465 117.13182 
L 94.897098 116.285171 
L 94.590984 115.438522 
L 94.316555 114.591874 
L 94.069147 113.745225 
L 93.844273 112.898576 
L 93.637887 112.051927 
L 93.446585 111.205278 
L 93.267781 110.358629 
L 93.099834 109.511981 
L 92.942133 108.665332 
L 92.795143 107.818683 
L 92.660407 106.972034 
L 92.540501 106.125385 
L 92.438948 105.278737 
L 92.360092 104.432088 
L 92.308931 103.585439 
L 92.290909 102.73879 
L 92.311696 101.892141 
L 92.376936 101.045493 
L 92.491997 100.198844 
L 92.661722 99.352195 
L 92.890194 98.505546 
L 93.180522 97.658897 
L 93.53467 96.812248 
L 93.953306 95.9656 
L 94.435714 95.118951 
L 94.979737 94.272302 
L 95.581773 93.425653 
L 96.236813 92.579004 
L 96.93853 91.732356 
L 97.679399 90.885707 
L 98.45086 90.039058 
L 99.243516 89.192409 
L 100.047357 88.34576 
L 100.852013 87.499111 
L 101.647024 86.652463 
L 102.422136 85.805814 
L 103.167589 84.959165 
L 103.874425 84.112516 
L 104.534763 83.265867 
L 105.14207 82.419219 
L 105.691374 81.57257 
L 106.179436 80.725921 
L 106.604848 79.879272 
L 106.968054 79.032623 
L 107.271286 78.185974 
L 107.518413 77.339326 
L 107.714711 76.492677 
L 107.866566 75.646028 
L 107.981127 74.799379 
L 108.06593 73.95273 
L 108.128522 73.106082 
L 108.17611 72.259433 
L 108.215251 71.412784 
L 108.251618 70.566135 
L 108.289836 69.719486 
L 108.333409 68.872837 
L 108.384728 68.026189 
L 108.445158 67.17954 
L 108.515178 66.332891 
L 108.594569 65.486242 
L 108.682626 64.639593 
L 108.778353 63.792945 
L 108.88066 62.946296 
L 108.988508 62.099647 
L 109.101016 61.252998 
L 109.21752 60.406349 
L 109.337577 59.5597 
L 109.460934 58.713052 
L 109.587463 57.866403 
L 109.717076 57.019754 
L 109.849633 56.173105 
L 109.984864 55.326456 
L 110.122304 54.479808 
L 110.261255 53.633159 
L 113.593291 53.633159 
L 113.593291 53.633159 
L 113.732242 54.479808 
L 113.869682 55.326456 
L 114.004912 56.173105 
L 114.137469 57.019754 
L 114.267082 57.866403 
L 114.393611 58.713052 
L 114.516969 59.5597 
L 114.637026 60.406349 
L 114.753529 61.252998 
L 114.866038 62.099647 
L 114.973885 62.946296 
L 115.076193 63.792945 
L 115.17192 64.639593 
L 115.259976 65.486242 
L 115.339368 66.332891 
L 115.409387 67.17954 
L 115.469817 68.026189 
L 115.521137 68.872837 
L 115.56471 69.719486 
L 115.602928 70.566135 
L 115.639294 71.412784 
L 115.678436 72.259433 
L 115.726023 73.106082 
L 115.788615 73.95273 
L 115.873419 74.799379 
L 115.98798 75.646028 
L 116.139835 76.492677 
L 116.336133 77.339326 
L 116.583259 78.185974 
L 116.886491 79.032623 
L 117.249697 79.879272 
L 117.675109 80.725921 
L 118.163172 81.57257 
L 118.712475 82.419219 
L 119.319782 83.265867 
L 119.980121 84.112516 
L 120.686956 84.959165 
L 121.43241 85.805814 
L 122.207521 86.652463 
L 123.002533 87.499111 
L 123.807188 88.34576 
L 124.611029 89.192409 
L 125.403685 90.039058 
L 126.175147 90.885707 
L 126.916015 91.732356 
L 127.617732 92.579004 
L 128.272773 93.425653 
L 128.874808 94.272302 
L 129.418831 95.118951 
L 129.901239 95.9656 
L 130.319876 96.812248 
L 130.674023 97.658897 
L 130.964352 98.505546 
L 131.192823 99.352195 
L 131.362548 100.198844 
L 131.47761 101.045493 
L 131.54285 101.892141 
L 131.563636 102.73879 
L 131.545615 103.585439 
L 131.494453 104.432088 
L 131.415598 105.278737 
L 131.314045 106.125385 
L 131.194138 106.972034 
L 131.059402 107.818683 
L 130.912413 108.665332 
L 130.754712 109.511981 
L 130.586764 110.358629 
L 130.40796 111.205278 
L 130.216658 112.051927 
L 130.010272 112.898576 
L 129.785399 113.745225 
L 129.53799 114.591874 
L 129.263562 115.438522 
L 128.957447 116.285171 
L 128.61508 117.13182 
L 128.232306 117.978469 
L 127.805705 118.825118 
L 127.332904 119.671766 
L 126.812864 120.518415 
L 126.246109 121.365064 
L 125.634876 122.211713 
L 124.983165 123.058362 
L 124.296679 123.905011 
L 123.582635 124.751659 
L 122.849477 125.598308 
L 122.106484 126.444957 
L 121.363312 127.291606 
L 120.629516 128.138255 
L 119.914066 128.984903 
L 119.224927 129.831552 
L 118.568705 130.678201 
L 117.950421 131.52485 
L 117.373397 132.371499 
L 116.839271 133.218148 
L 116.348134 134.064796 
L 115.898759 134.911445 
L 115.488896 135.758094 
L 115.115603 136.604743 
L 114.775578 137.451392 
L 114.775578 137.451392 
z
" clip-path="url(#p924da76342)" style="fill: none; stroke: #000000; stroke-opacity: 0.3"/>
   </g>
   <g id="FillBetweenPolyCollection_8">
    <path d="M 112.694399 157.222716 
L 111.160147 157.222716 
L 111.079549 156.225735 
L 110.995795 155.228754 
L 110.907325 154.231772 
L 110.812102 153.234791 
L 110.707771 152.237809 
L 110.591862 151.240828 
L 110.461989 150.243846 
L 110.316039 149.246865 
L 110.152296 148.249884 
L 109.96952 147.252902 
L 109.766959 146.255921 
L 109.544319 145.258939 
L 109.301698 144.261958 
L 109.039516 143.264976 
L 108.758438 142.267995 
L 108.459308 141.271013 
L 108.143078 140.274032 
L 107.810722 139.277051 
L 107.463124 138.280069 
L 107.100932 137.283088 
L 106.724378 136.286106 
L 106.333078 135.289125 
L 105.925854 134.292143 
L 105.500607 133.295162 
L 105.05429 132.298181 
L 104.583016 131.301199 
L 104.082318 130.304218 
L 103.54757 129.307236 
L 102.974524 128.310255 
L 102.359942 127.313273 
L 101.702221 126.316292 
L 101.001977 125.319311 
L 100.262474 124.322329 
L 99.489881 123.325348 
L 98.693285 122.328366 
L 97.88447 121.331385 
L 97.077465 120.334403 
L 96.287903 119.337422 
L 95.53224 118.340441 
L 94.826891 117.343459 
L 94.187344 116.346478 
L 93.627312 115.349496 
L 93.157963 114.352515 
L 92.787283 113.355533 
L 92.5196 112.358552 
L 92.355323 111.361571 
L 92.290909 110.364589 
L 92.319099 109.367608 
L 92.42941 108.370626 
L 92.608878 107.373645 
L 92.843001 106.376663 
L 93.116793 105.379682 
L 93.415878 104.382701 
L 93.727486 103.385719 
L 94.04128 102.388738 
L 94.34991 101.391756 
L 94.649272 100.394775 
L 94.938449 99.397793 
L 95.219378 98.400812 
L 95.496298 97.403831 
L 95.775066 96.406849 
L 96.062411 95.409868 
L 96.365213 94.412886 
L 96.689866 93.415905 
L 97.041743 92.418923 
L 97.424805 91.421942 
L 97.84133 90.42496 
L 98.291764 89.427979 
L 98.774672 88.430998 
L 99.286783 87.434016 
L 99.823107 86.437035 
L 100.37715 85.440053 
L 100.941215 84.443072 
L 101.506805 83.44609 
L 102.065126 82.449109 
L 102.607664 81.452128 
L 103.126806 80.455146 
L 103.616437 79.458165 
L 104.072452 78.461183 
L 104.493094 77.464202 
L 104.879084 76.46722 
L 105.233487 75.470239 
L 105.561339 74.473258 
L 105.869073 73.476276 
L 106.1638 72.479295 
L 106.452561 71.482313 
L 106.741626 70.485332 
L 107.035916 69.48835 
L 107.338625 68.491369 
L 107.651039 67.494388 
L 107.972581 66.497406 
L 108.301023 65.500425 
L 108.632838 64.503443 
L 108.963633 63.506462 
L 109.288598 62.50948 
L 109.602936 61.512499 
L 109.902234 60.515518 
L 110.182736 59.518536 
L 110.441529 58.521555 
L 113.413017 58.521555 
L 113.413017 58.521555 
L 113.67181 59.518536 
L 113.952312 60.515518 
L 114.251609 61.512499 
L 114.565948 62.50948 
L 114.890912 63.506462 
L 115.221707 64.503443 
L 115.553523 65.500425 
L 115.881965 66.497406 
L 116.203507 67.494388 
L 116.515921 68.491369 
L 116.818629 69.48835 
L 117.11292 70.485332 
L 117.401984 71.482313 
L 117.690746 72.479295 
L 117.985472 73.476276 
L 118.293206 74.473258 
L 118.621059 75.470239 
L 118.975462 76.46722 
L 119.361451 77.464202 
L 119.782094 78.461183 
L 120.238108 79.458165 
L 120.72774 80.455146 
L 121.246881 81.452128 
L 121.789419 82.449109 
L 122.34774 83.44609 
L 122.913331 84.443072 
L 123.477396 85.440053 
L 124.031439 86.437035 
L 124.567763 87.434016 
L 125.079873 88.430998 
L 125.562782 89.427979 
L 126.013215 90.42496 
L 126.42974 91.421942 
L 126.812802 92.418923 
L 127.16468 93.415905 
L 127.489332 94.412886 
L 127.792135 95.409868 
L 128.079479 96.406849 
L 128.358247 97.403831 
L 128.635168 98.400812 
L 128.916096 99.397793 
L 129.205273 100.394775 
L 129.504635 101.391756 
L 129.813265 102.388738 
L 130.127059 103.385719 
L 130.438668 104.382701 
L 130.737752 105.379682 
L 131.011545 106.376663 
L 131.245667 107.373645 
L 131.425136 108.370626 
L 131.535446 109.367608 
L 131.563636 110.364589 
L 131.499223 111.361571 
L 131.334946 112.358552 
L 131.067263 113.355533 
L 130.696582 114.352515 
L 130.227234 115.349496 
L 129.667202 116.346478 
L 129.027655 117.343459 
L 128.322305 118.340441 
L 127.566642 119.337422 
L 126.777081 120.334403 
L 125.970076 121.331385 
L 125.161261 122.328366 
L 124.364665 123.325348 
L 123.592072 124.322329 
L 122.852569 125.319311 
L 122.152324 126.316292 
L 121.494604 127.313273 
L 120.880021 128.310255 
L 120.306976 129.307236 
L 119.772227 130.304218 
L 119.271529 131.301199 
L 118.800255 132.298181 
L 118.353939 133.295162 
L 117.928692 134.292143 
L 117.521468 135.289125 
L 117.130168 136.286106 
L 116.753614 137.283088 
L 116.391422 138.280069 
L 116.043824 139.277051 
L 115.711467 140.274032 
L 115.395237 141.271013 
L 115.096108 142.267995 
L 114.81503 143.264976 
L 114.552848 144.261958 
L 114.310227 145.258939 
L 114.087587 146.255921 
L 113.885026 147.252902 
L 113.70225 148.249884 
L 113.538507 149.246865 
L 113.392556 150.243846 
L 113.262684 151.240828 
L 113.146774 152.237809 
L 113.042443 153.234791 
L 112.94722 154.231772 
L 112.858751 155.228754 
L 112.774997 156.225735 
L 112.694399 157.222716 
L 112.694399 157.222716 
z
" clip-path="url(#p924da76342)" style="fill: none; stroke: #000000; stroke-opacity: 0.3"/>
   </g>
   <g id="FillBetweenPolyCollection_9">
    <path d="M 112.610209 192.517608 
L 111.244337 192.517608 
L 111.218607 191.374626 
L 111.195194 190.231643 
L 111.172674 189.08866 
L 111.149444 187.945678 
L 111.123912 186.802695 
L 111.094696 185.659713 
L 111.060817 184.51673 
L 111.021868 183.373748 
L 110.978129 182.230765 
L 110.930608 181.087783 
L 110.881007 179.9448 
L 110.831601 178.801818 
L 110.785045 177.658835 
L 110.744127 176.515852 
L 110.711477 175.37287 
L 110.689286 174.229887 
L 110.679037 173.086905 
L 110.681295 171.943922 
L 110.695571 170.80094 
L 110.720273 169.657957 
L 110.752744 168.514975 
L 110.789393 167.371992 
L 110.825897 166.229009 
L 110.857453 165.086027 
L 110.879065 163.943044 
L 110.885834 162.800062 
L 110.873231 161.657079 
L 110.837333 160.514097 
L 110.775016 159.371114 
L 110.684076 158.228132 
L 110.563301 157.085149 
L 110.412469 155.942167 
L 110.232293 154.799184 
L 110.024316 153.656201 
L 109.790754 152.513219 
L 109.534317 151.370236 
L 109.258003 150.227254 
L 108.964884 149.084271 
L 108.657898 147.941289 
L 108.339649 146.798306 
L 108.012243 145.655324 
L 107.677158 144.512341 
L 107.335151 143.369358 
L 106.986229 142.226376 
L 106.629657 141.083393 
L 106.264024 139.940411 
L 105.887349 138.797428 
L 105.497221 137.654446 
L 105.090968 136.511463 
L 104.665826 135.368481 
L 104.219125 134.225498 
L 103.748449 133.082516 
L 103.251796 131.939533 
L 102.727711 130.79655 
L 102.175409 129.653568 
L 101.594885 128.510585 
L 100.987019 127.367603 
L 100.353676 126.22462 
L 99.697804 125.081638 
L 99.023525 123.938655 
L 98.3362 122.795673 
L 97.642471 121.65269 
L 96.950233 120.509708 
L 96.268545 119.366725 
L 95.607455 118.223742 
L 94.977726 117.08076 
L 94.390497 115.937777 
L 93.856862 114.794795 
L 93.387435 113.651812 
L 92.991904 112.50883 
L 92.678648 111.365847 
L 92.454423 110.222865 
L 92.324165 109.079882 
L 92.290909 107.936899 
L 92.355833 106.793917 
L 92.518394 105.650934 
L 92.776528 104.507952 
L 93.126892 103.364969 
L 93.565079 102.221987 
L 94.085805 101.079004 
L 94.683033 99.936022 
L 95.350034 98.793039 
L 96.079397 97.650057 
L 96.863011 96.507074 
L 97.69205 95.364091 
L 98.556988 94.221109 
L 99.447686 93.078126 
L 100.353536 91.935144 
L 101.263704 90.792161 
L 102.167421 89.649179 
L 103.054327 88.506196 
L 103.914821 87.363214 
L 104.740381 86.220231 
L 105.523829 85.077248 
L 106.259515 83.934266 
L 106.943397 82.791283 
L 107.573029 81.648301 
L 108.147457 80.505318 
L 108.667042 79.362336 
L 115.187504 79.362336 
L 115.187504 79.362336 
L 115.707089 80.505318 
L 116.281517 81.648301 
L 116.911149 82.791283 
L 117.595031 83.934266 
L 118.330716 85.077248 
L 119.114164 86.220231 
L 119.939724 87.363214 
L 120.800218 88.506196 
L 121.687125 89.649179 
L 122.590842 90.792161 
L 123.501009 91.935144 
L 124.40686 93.078126 
L 125.297557 94.221109 
L 126.162496 95.364091 
L 126.991534 96.507074 
L 127.775148 97.650057 
L 128.504511 98.793039 
L 129.171512 99.936022 
L 129.76874 101.079004 
L 130.289466 102.221987 
L 130.727653 103.364969 
L 131.078017 104.507952 
L 131.336152 105.650934 
L 131.498712 106.793917 
L 131.563636 107.936899 
L 131.530381 109.079882 
L 131.400122 110.222865 
L 131.175897 111.365847 
L 130.862641 112.50883 
L 130.467111 113.651812 
L 129.997683 114.794795 
L 129.464049 115.937777 
L 128.876819 117.08076 
L 128.247091 118.223742 
L 127.586 119.366725 
L 126.904313 120.509708 
L 126.212074 121.65269 
L 125.518345 122.795673 
L 124.831021 123.938655 
L 124.156741 125.081638 
L 123.500869 126.22462 
L 122.867526 127.367603 
L 122.259661 128.510585 
L 121.679137 129.653568 
L 121.126835 130.79655 
L 120.602749 131.939533 
L 120.106096 133.082516 
L 119.635421 134.225498 
L 119.188719 135.368481 
L 118.763578 136.511463 
L 118.357324 137.654446 
L 117.967197 138.797428 
L 117.590521 139.940411 
L 117.224888 141.083393 
L 116.868316 142.226376 
L 116.519394 143.369358 
L 116.177388 144.512341 
L 115.842302 145.655324 
L 115.514897 146.798306 
L 115.196647 147.941289 
L 114.889661 149.084271 
L 114.596543 150.227254 
L 114.320229 151.370236 
L 114.063792 152.513219 
L 113.83023 153.656201 
L 113.622252 154.799184 
L 113.442077 155.942167 
L 113.291245 157.085149 
L 113.17047 158.228132 
L 113.07953 159.371114 
L 113.017212 160.514097 
L 112.981315 161.657079 
L 112.968712 162.800062 
L 112.975481 163.943044 
L 112.997093 165.086027 
L 113.028649 166.229009 
L 113.065152 167.371992 
L 113.101801 168.514975 
L 113.134272 169.657957 
L 113.158974 170.80094 
L 113.173251 171.943922 
L 113.175509 173.086905 
L 113.165259 174.229887 
L 113.143068 175.37287 
L 113.110419 176.515852 
L 113.0695 177.658835 
L 113.022945 178.801818 
L 112.973538 179.9448 
L 112.923937 181.087783 
L 112.876416 182.230765 
L 112.832677 183.373748 
L 112.793729 184.51673 
L 112.759849 185.659713 
L 112.730633 186.802695 
L 112.705102 187.945678 
L 112.681872 189.08866 
L 112.659351 190.231643 
L 112.635938 191.374626 
L 112.610209 192.517608 
L 112.610209 192.517608 
z
" clip-path="url(#p924da76342)" style="fill: none; stroke: #000000; stroke-opacity: 0.3"/>
   </g>
   <g id="FillBetweenPolyCollection_10">
    <path d="M 112.974742 179.664816 
L 110.879803 179.664816 
L 110.850102 178.507891 
L 110.833762 177.350966 
L 110.830847 176.19404 
L 110.840655 175.037115 
L 110.861699 173.88019 
L 110.891724 172.723264 
L 110.92776 171.566339 
L 110.966216 170.409414 
L 111.002991 169.252488 
L 111.033611 168.095563 
L 111.053368 166.938638 
L 111.057472 165.781713 
L 111.041194 164.624787 
L 111.000007 163.467862 
L 110.929722 162.310937 
L 110.826616 161.154011 
L 110.687548 159.997086 
L 110.510074 158.840161 
L 110.292542 157.683235 
L 110.034179 156.52631 
L 109.735158 155.369385 
L 109.39664 154.212459 
L 109.020784 153.055534 
L 108.610726 151.898609 
L 108.170524 150.741683 
L 107.705053 149.584758 
L 107.21987 148.427833 
L 106.721044 147.270907 
L 106.214953 146.113982 
L 105.708059 144.957057 
L 105.206671 143.800131 
L 104.716694 142.643206 
L 104.243389 141.486281 
L 103.791135 140.329356 
L 103.363214 139.17243 
L 102.961624 138.015505 
L 102.586931 136.85858 
L 102.238175 135.701654 
L 101.912845 134.544729 
L 101.606918 133.387804 
L 101.315007 132.230878 
L 101.03059 131.073953 
L 100.746349 129.917028 
L 100.454591 128.760102 
L 100.147758 127.603177 
L 99.818975 126.446252 
L 99.462616 125.289326 
L 99.074839 124.132401 
L 98.65403 122.975476 
L 98.201118 121.81855 
L 97.719706 120.661625 
L 97.215995 119.5047 
L 96.69847 118.347774 
L 96.177375 117.190849 
L 95.664001 116.033924 
L 95.169834 114.876998 
L 94.705665 113.720073 
L 94.280721 112.563148 
L 93.901937 111.406223 
L 93.573436 110.249297 
L 93.296288 109.092372 
L 93.068586 107.935447 
L 92.885834 106.778521 
L 92.741622 105.621596 
L 92.628502 104.464671 
L 92.53899 103.307745 
L 92.46656 102.15082 
L 92.406532 100.993895 
L 92.356751 99.836969 
L 92.317968 98.680044 
L 92.293893 97.523119 
L 92.290909 96.366193 
L 92.317479 95.209268 
L 92.383327 94.052343 
L 92.498472 92.895417 
L 92.672238 91.738492 
L 92.912333 90.581567 
L 93.22411 89.424641 
L 93.61006 88.267716 
L 94.069592 87.110791 
L 94.599103 85.953866 
L 95.192304 84.79694 
L 95.840754 83.640015 
L 96.534528 82.48309 
L 97.262942 81.326164 
L 98.015252 80.169239 
L 98.781263 79.012314 
L 99.551805 77.855388 
L 100.319046 76.698463 
L 101.076625 75.541538 
L 101.819648 74.384612 
L 102.544545 73.227687 
L 103.248846 72.070762 
L 103.930904 70.913836 
L 104.589616 69.756911 
L 105.224162 68.599986 
L 105.833791 67.44306 
L 106.417674 66.286135 
L 106.974818 65.12921 
L 116.879727 65.12921 
L 116.879727 65.12921 
L 117.436872 66.286135 
L 118.020755 67.44306 
L 118.630383 68.599986 
L 119.264929 69.756911 
L 119.923642 70.913836 
L 120.6057 72.070762 
L 121.310001 73.227687 
L 122.034898 74.384612 
L 122.777921 75.541538 
L 123.5355 76.698463 
L 124.30274 77.855388 
L 125.073283 79.012314 
L 125.839294 80.169239 
L 126.591603 81.326164 
L 127.320017 82.48309 
L 128.013791 83.640015 
L 128.662241 84.79694 
L 129.255442 85.953866 
L 129.784954 87.110791 
L 130.244486 88.267716 
L 130.630435 89.424641 
L 130.942212 90.581567 
L 131.182308 91.738492 
L 131.356073 92.895417 
L 131.471218 94.052343 
L 131.537066 95.209268 
L 131.563636 96.366193 
L 131.560652 97.523119 
L 131.536577 98.680044 
L 131.497795 99.836969 
L 131.448014 100.993895 
L 131.387986 102.15082 
L 131.315555 103.307745 
L 131.226043 104.464671 
L 131.112924 105.621596 
L 130.968711 106.778521 
L 130.78596 107.935447 
L 130.558258 109.092372 
L 130.28111 110.249297 
L 129.952608 111.406223 
L 129.573824 112.563148 
L 129.14888 113.720073 
L 128.684711 114.876998 
L 128.190545 116.033924 
L 127.67717 117.190849 
L 127.156076 118.347774 
L 126.63855 119.5047 
L 126.134839 120.661625 
L 125.653428 121.81855 
L 125.200515 122.975476 
L 124.779706 124.132401 
L 124.391929 125.289326 
L 124.03557 126.446252 
L 123.706787 127.603177 
L 123.399954 128.760102 
L 123.108197 129.917028 
L 122.823955 131.073953 
L 122.539539 132.230878 
L 122.247628 133.387804 
L 121.941701 134.544729 
L 121.61637 135.701654 
L 121.267615 136.85858 
L 120.892922 138.015505 
L 120.491331 139.17243 
L 120.06341 140.329356 
L 119.611156 141.486281 
L 119.137852 142.643206 
L 118.647875 143.800131 
L 118.146486 144.957057 
L 117.639593 146.113982 
L 117.133502 147.270907 
L 116.634676 148.427833 
L 116.149493 149.584758 
L 115.684021 150.741683 
L 115.243819 151.898609 
L 114.833762 153.055534 
L 114.457905 154.212459 
L 114.119387 155.369385 
L 113.820367 156.52631 
L 113.562004 157.683235 
L 113.344472 158.840161 
L 113.166997 159.997086 
L 113.027929 161.154011 
L 112.924823 162.310937 
L 112.854538 163.467862 
L 112.813351 164.624787 
L 112.797073 165.781713 
L 112.801177 166.938638 
L 112.820935 168.095563 
L 112.851554 169.252488 
L 112.88833 170.409414 
L 112.926785 171.566339 
L 112.962821 172.723264 
L 112.992846 173.88019 
L 113.013891 175.037115 
L 113.023699 176.19404 
L 113.020783 177.350966 
L 113.004443 178.507891 
L 112.974742 179.664816 
L 112.974742 179.664816 
z
" clip-path="url(#p924da76342)" style="fill: none; stroke: #000000; stroke-opacity: 0.3"/>
   </g>
   <g id="matplotlib.axis_1"/>
   <g id="matplotlib.axis_2">
    <g id="ytick_1">
     <g id="line2d_1">
      <defs>
       <path id="mad8fadbbb9" d="M 0 0 
L -3.5 0 
" style="stroke: #000000; stroke-width: 0.8"/>
      </defs>
      <g>
       <use xlink:href="#mad8fadbbb9" x="21.6" y="291.6" style="stroke: #000000; stroke-width: 0.8"/>
      </g>
     </g>
    </g>
    <g id="ytick_2">
     <g id="line2d_2">
      <g>
       <use xlink:href="#mad8fadbbb9" x="21.6" y="199.8" style="stroke: #000000; stroke-width: 0.8"/>
      </g>
     </g>
    </g>
    <g id="ytick_3">
     <g id="line2d_3">
      <g>
       <use xlink:href="#mad8fadbbb9" x="21.6" y="108" style="stroke: #000000; stroke-width: 0.8"/>
      </g>
     </g>
    </g>
    <g id="ytick_4">
     <g id="line2d_4">
      <g>
       <use xlink:href="#mad8fadbbb9" x="21.6" y="16.2" style="stroke: #000000; stroke-width: 0.8"/>
      </g>
     </g>
    </g>
   </g>
   <g id="line2d_5">
    <path d="M 46.472727 269.568 
L 46.472727 264.06 
" clip-path="url(#p924da76342)" style="fill: none; stroke: #000000; stroke-linecap: square"/>
   </g>
   <g id="line2d_6">
    <path d="M 46.472727 269.568 
L 111.927273 269.568 
" clip-path="url(#p924da76342)" style="fill: none; stroke: #000000; stroke-linecap: square"/>
   </g>
   <g id="line2d_7">
    <path d="M 111.927273 269.568 
L 111.927273 264.06 
" clip-path="url(#p924da76342)" style="fill: none; stroke: #000000; stroke-linecap: square"/>
   </g>
   <g id="patch_3">
    <path d="M 21.6 291.6 
L 21.6 16.2 
" style="fill: none; stroke: #000000; stroke-width: 0.8; stroke-linejoin: miter; stroke-linecap: square"/>
   </g>
   <g id="patch_4">
    <path d="M 136.8 291.6 
L 136.8 16.2 
" style="fill: none; stroke: #000000; stroke-width: 0.8; stroke-linejoin: miter; stroke-linecap: square"/>
   </g>
   <g id="patch_5">
    <path d="M 21.6 291.6 
L 136.8 291.6 
" style="fill: none; stroke: #000000; stroke-width: 0.8; stroke-linejoin: miter; stroke-linecap: square"/>
   </g>
   <g id="patch_6">
    <path d="M 21.6 16.2 
L 136.8 16.2 
" style="fill: none; stroke: #000000; stroke-width: 0.8; stroke-linejoin: miter; stroke-linecap: square"/>
   </g>
   <g id="text_1">
    <text style="font-weight: 700; font-size: 12px; font-family: 'DejaVu Sans', 'Bitstream Vera Sans', 'Computer Modern Sans Serif', 'Lucida Grande', 'Verdana', 'Geneva', 'Lucid', 'Arial', 'Helvetica', 'Avant Garde', sans-serif; text-anchor: middle" x="46.472727" y="289.104375" transform="rotate(-0 46.472727 289.104375)">#21</text>
   </g>
   <g id="text_2">
    <text style="font-weight: 700; font-size: 12px; font-family: 'DejaVu Sans', 'Bitstream Vera Sans', 'Computer Modern Sans Serif', 'Lucida Grande', 'Verdana', 'Geneva', 'Lucid', 'Arial', 'Helvetica', 'Avant Garde', sans-serif; text-anchor: middle" x="111.927273" y="289.104375" transform="rotate(-0 111.927273 289.104375)">#27</text>
   </g>
   <g id="text_3">
    <text style="font-size: 12px; font-family: 'DejaVu Sans', 'Bitstream Vera Sans', 'Computer Modern Sans Serif', 'Lucida Grande', 'Verdana', 'Geneva', 'Lucid', 'Arial', 'Helvetica', 'Avant Garde', sans-serif; text-anchor: middle" x="79.2" y="268.449375" transform="rotate(-0 79.2 268.449375)">****</text>
   </g>
   <g id="line2d_8">
    <path d="M 21.6 149.228793 
L 136.8 149.228793 
" clip-path="url(#p924da76342)" style="fill: none; stroke-dasharray: 3.7,1.6; stroke-dashoffset: 0; stroke: #808080; stroke-opacity: 0.7"/>
   </g>
   <g id="line2d_9">
    <path d="M 21.6 106.591542 
L 136.8 106.591542 
" clip-path="url(#p924da76342)" style="fill: none; stroke-dasharray: 3.7,1.6; stroke-dashoffset: 0; stroke: #808080; stroke-opacity: 0.7"/>
   </g>
   <g id="LineCollection_1">
    <path d="M 46.472727 152.312907 
L 46.472727 146.144679 
" clip-path="url(#p924da76342)" style="fill: none; stroke: #000000; stroke-width: 2"/>
   </g>
   <g id="line2d_10">
    <defs>
     <path id="mfe940fc04b" d="M 5 0 
L -5 -0 
" style="stroke: #000000; stroke-width: 2"/>
    </defs>
    <g clip-path="url(#p924da76342)">
     <use xlink:href="#mfe940fc04b" x="46.472727" y="152.312907" style="stroke: #000000; stroke-width: 2"/>
    </g>
   </g>
   <g id="line2d_11">
    <g clip-path="url(#p924da76342)">
     <use xlink:href="#mfe940fc04b" x="46.472727" y="146.144679" style="stroke: #000000; stroke-width: 2"/>
    </g>
   </g>
   <g id="LineCollection_2">
    <path d="M 111.927273 109.599194 
L 111.927273 103.583889 
" clip-path="url(#p924da76342)" style="fill: none; stroke: #000000; stroke-width: 2"/>
   </g>
   <g id="line2d_12">
    <g clip-path="url(#p924da76342)">
     <use xlink:href="#mfe940fc04b" x="111.927273" y="109.599194" style="stroke: #000000; stroke-width: 2"/>
    </g>
   </g>
   <g id="line2d_13">
    <g clip-path="url(#p924da76342)">
     <use xlink:href="#mfe940fc04b" x="111.927273" y="103.583889" style="stroke: #000000; stroke-width: 2"/>
    </g>
   </g>
   <g id="line2d_14">
    <defs>
     <path id="maf0294b9d7" d="M 0 4 
C 1.060812 4 2.078319 3.578535 2.828427 2.828427 
C 3.578535 2.078319 4 1.060812 4 0 
C 4 -1.060812 3.578535 -2.078319 2.828427 -2.828427 
C 2.078319 -3.578535 1.060812 -4 0 -4 
C -1.060812 -4 -2.078319 -3.578535 -2.828427 -2.828427 
C -3.578535 -2.078319 -4 -1.060812 -4 0 
C -4 1.060812 -3.578535 2.078319 -2.828427 2.828427 
C -2.078319 3.578535 -1.060812 4 0 4 
z
" style="stroke: #000000"/>
    </defs>
    <g clip-path="url(#p924da76342)">
     <use xlink:href="#maf0294b9d7" x="46.472727" y="149.228793" style="stroke: #000000"/>
    </g>
   </g>
   <g id="line2d_15">
    <g clip-path="url(#p924da76342)">
     <use xlink:href="#maf0294b9d7" x="111.927273" y="106.591542" style="stroke: #000000"/>
    </g>
   </g>
  </g>
 </g>
 <defs>
  <clipPath id="p924da76342">
   <rect x="21.6" y="16.2" width="115.2" height="275.4"/>
  </clipPath>
 </defs>
</svg>
