<?xml version="1.0" encoding="utf-8" standalone="no"?>
<!DOCTYPE svg PUBLIC "-//W3C//DTD SVG 1.1//EN"
  "http://www.w3.org/Graphics/SVG/1.1/DTD/svg11.dtd">
<svg xmlns:xlink="http://www.w3.org/1999/xlink" width="144pt" height="324pt" viewBox="0 0 144 324" xmlns="http://www.w3.org/2000/svg" version="1.1">
 <metadata>
  <rdf:RDF xmlns:dc="http://purl.org/dc/elements/1.1/" xmlns:cc="http://creativecommons.org/ns#" xmlns:rdf="http://www.w3.org/1999/02/22-rdf-syntax-ns#">
   <cc:Work>
    <dc:type rdf:resource="http://purl.org/dc/dcmitype/StillImage"/>
    <dc:date>2025-12-11T09:10:03.922090</dc:date>
    <dc:format>image/svg+xml</dc:format>
    <dc:creator>
     <cc:Agent>
      <dc:title>Matplotlib v3.10.0, https://matplotlib.org/</dc:title>
     </cc:Agent>
    </dc:creator>
   </cc:Work>
  </rdf:RDF>
 </metadata>
 <defs>
  <style type="text/css">*{stroke-linejoin: round; stroke-linecap: butt}</style>
 </defs>
 <g id="figure_1">
  <g id="patch_1">
   <path d="M 0 324 
L 144 324 
L 144 0 
L 0 0 
z
" style="fill: #ffffff"/>
  </g>
  <g id="axes_1">
   <g id="patch_2">
    <path d="M 21.6 291.6 
L 136.8 291.6 
L 136.8 16.2 
L 21.6 16.2 
z
" style="fill: #ffffff"/>
   </g>
   <g id="FillBetweenPolyCollection_1">
    <path d="M 51.177088 208.206686 
L 49.622912 208.206686 
L 49.490667 206.714874 
L 49.33431 205.223062 
L 49.149412 203.73125 
L 48.932037 202.239438 
L 48.67928 200.747626 
L 48.389729 199.255814 
L 48.063767 197.764002 
L 47.70363 196.27219 
L 47.313163 194.780378 
L 46.897276 193.288566 
L 46.461148 191.796754 
L 46.009292 190.304942 
L 45.544632 188.81313 
L 45.067762 187.321318 
L 44.576574 185.829505 
L 44.066356 184.337693 
L 43.530428 182.845881 
L 42.961262 181.354069 
L 42.351937 179.862257 
L 41.697714 178.370445 
L 40.99745 176.878633 
L 40.254609 175.386821 
L 39.477657 173.895009 
L 38.679764 172.403197 
L 37.877839 170.911385 
L 37.091063 169.419573 
L 36.339165 167.927761 
L 35.640718 166.435949 
L 35.011713 164.944137 
L 34.464595 163.452325 
L 34.007808 161.960513 
L 33.645821 160.468701 
L 33.379495 158.976889 
L 33.206608 157.485077 
L 33.122396 155.993265 
L 33.12 154.501453 
L 33.190815 153.00964 
L 33.324795 151.517828 
L 33.510837 150.026016 
L 33.737335 148.534204 
L 33.992974 147.042392 
L 34.267728 145.55058 
L 34.55394 144.058768 
L 34.847302 142.566956 
L 35.147501 141.075144 
L 35.458358 139.583332 
L 35.787341 138.09152 
L 36.144456 136.599708 
L 36.540648 135.107896 
L 36.985949 133.616084 
L 37.487662 132.124272 
L 38.048889 130.63246 
L 38.667649 129.140648 
L 39.336733 127.648836 
L 40.044326 126.157024 
L 40.775271 124.665212 
L 41.512772 123.1734 
L 42.240259 121.681588 
L 42.943099 120.189776 
L 43.609926 118.697963 
L 44.23341 117.206151 
L 44.8104 115.714339 
L 45.341485 114.222527 
L 45.830116 112.730715 
L 46.281466 111.238903 
L 46.701246 109.747091 
L 47.094648 108.255279 
L 47.465569 106.763467 
L 47.81617 105.271655 
L 48.146793 103.779843 
L 48.456164 102.288031 
L 48.741826 100.796219 
L 49.000674 99.304407 
L 49.229517 97.812595 
L 49.425574 96.320783 
L 49.586878 94.828971 
L 49.712538 93.337159 
L 49.802892 91.845347 
L 49.859542 90.353535 
L 49.885303 88.861723 
L 49.884081 87.369911 
L 49.860687 85.878098 
L 49.820593 84.386286 
L 49.769634 82.894474 
L 49.713671 81.402662 
L 49.658225 79.91085 
L 49.608127 78.419038 
L 49.567217 76.927226 
L 49.538146 75.435414 
L 49.522295 73.943602 
L 49.519852 72.45179 
L 49.530002 70.959978 
L 49.551227 69.468166 
L 49.581635 67.976354 
L 49.619278 66.484542 
L 49.66239 64.99273 
L 49.709527 63.500918 
L 49.759596 62.009106 
L 49.81179 60.517294 
L 50.98821 60.517294 
L 50.98821 60.517294 
L 51.040404 62.009106 
L 51.090473 63.500918 
L 51.13761 64.99273 
L 51.180722 66.484542 
L 51.218365 67.976354 
L 51.248773 69.468166 
L 51.269998 70.959978 
L 51.280148 72.45179 
L 51.277705 73.943602 
L 51.261854 75.435414 
L 51.232783 76.927226 
L 51.191873 78.419038 
L 51.141775 79.91085 
L 51.086329 81.402662 
L 51.030366 82.894474 
L 50.979407 84.386286 
L 50.939313 85.878098 
L 50.915919 87.369911 
L 50.914697 88.861723 
L 50.940458 90.353535 
L 50.997108 91.845347 
L 51.087462 93.337159 
L 51.213122 94.828971 
L 51.374426 96.320783 
L 51.570483 97.812595 
L 51.799326 99.304407 
L 52.058174 100.796219 
L 52.343836 102.288031 
L 52.653207 103.779843 
L 52.98383 105.271655 
L 53.334431 106.763467 
L 53.705352 108.255279 
L 54.098754 109.747091 
L 54.518534 111.238903 
L 54.969884 112.730715 
L 55.458515 114.222527 
L 55.9896 115.714339 
L 56.56659 117.206151 
L 57.190074 118.697963 
L 57.856901 120.189776 
L 58.559741 121.681588 
L 59.287228 123.1734 
L 60.024729 124.665212 
L 60.755674 126.157024 
L 61.463267 127.648836 
L 62.132351 129.140648 
L 62.751111 130.63246 
L 63.312338 132.124272 
L 63.814051 133.616084 
L 64.259352 135.107896 
L 64.655544 136.599708 
L 65.012659 138.09152 
L 65.341642 139.583332 
L 65.652499 141.075144 
L 65.952698 142.566956 
L 66.24606 144.058768 
L 66.532272 145.55058 
L 66.807026 147.042392 
L 67.062665 148.534204 
L 67.289163 150.026016 
L 67.475205 151.517828 
L 67.609185 153.00964 
L 67.68 154.501453 
L 67.677604 155.993265 
L 67.593392 157.485077 
L 67.420505 158.976889 
L 67.154179 160.468701 
L 66.792192 161.960513 
L 66.335405 163.452325 
L 65.788287 164.944137 
L 65.159282 166.435949 
L 64.460835 167.927761 
L 63.708937 169.419573 
L 62.922161 170.911385 
L 62.120236 172.403197 
L 61.322343 173.895009 
L 60.545391 175.386821 
L 59.80255 176.878633 
L 59.102286 178.370445 
L 58.448063 179.862257 
L 57.838738 181.354069 
L 57.269572 182.845881 
L 56.733644 184.337693 
L 56.223426 185.829505 
L 55.732238 187.321318 
L 55.255368 188.81313 
L 54.790708 190.304942 
L 54.338852 191.796754 
L 53.902724 193.288566 
L 53.486837 194.780378 
L 53.09637 196.27219 
L 52.736233 197.764002 
L 52.410271 199.255814 
L 52.12072 200.747626 
L 51.867963 202.239438 
L 51.650588 203.73125 
L 51.46569 205.223062 
L 51.309333 206.714874 
L 51.177088 208.206686 
L 51.177088 208.206686 
z
" clip-path="url(#p32abe37907)" style="fill: none; stroke: #000000; stroke-opacity: 0.3"/>
   </g>
   <g id="FillBetweenPolyCollection_2">
    <path d="M 51.175763 197.54922 
L 49.624237 197.54922 
L 49.514198 196.331569 
L 49.381017 195.113918 
L 49.217353 193.896267 
L 49.015159 192.678616 
L 48.766217 191.460965 
L 48.462799 190.243314 
L 48.098405 189.025663 
L 47.668505 187.808012 
L 47.171203 186.590361 
L 46.607746 185.37271 
L 45.982791 184.155059 
L 45.304393 182.937407 
L 44.583677 181.719756 
L 43.834212 180.502105 
L 43.071157 179.284454 
L 42.310255 178.066803 
L 41.566793 176.849152 
L 40.854655 175.631501 
L 40.185554 174.41385 
L 39.568524 173.196199 
L 39.009688 171.978548 
L 38.512293 170.760897 
L 38.076932 169.543246 
L 37.701895 168.325595 
L 37.383553 167.107943 
L 37.116705 165.890292 
L 36.894869 164.672641 
L 36.710493 163.45499 
L 36.555139 162.237339 
L 36.419683 161.019688 
L 36.294578 159.802037 
L 36.170226 158.584386 
L 36.037473 157.366735 
L 35.8882 156.149084 
L 35.71596 154.931433 
L 35.516601 153.713782 
L 35.288779 152.496131 
L 35.034299 151.27848 
L 34.758227 150.060828 
L 34.468735 148.843177 
L 34.176675 147.625526 
L 33.894918 146.407875 
L 33.637508 145.190224 
L 33.418701 143.972573 
L 33.251998 142.754922 
L 33.149259 141.537271 
L 33.12 140.31962 
L 33.170934 139.101969 
L 33.305806 137.884318 
L 33.525502 136.666667 
L 33.82839 135.449016 
L 34.210807 134.231364 
L 34.667587 133.013713 
L 35.19253 131.796062 
L 35.778742 130.578411 
L 36.418812 129.36076 
L 37.104837 128.143109 
L 37.828359 126.925458 
L 38.580285 125.707807 
L 39.350883 124.490156 
L 40.129908 123.272505 
L 40.906883 122.054854 
L 41.671532 120.837203 
L 42.414282 119.619552 
L 43.126773 118.4019 
L 43.802284 117.184249 
L 44.435991 115.966598 
L 45.025037 114.748947 
L 45.568393 113.531296 
L 46.066559 112.313645 
L 46.521163 111.095994 
L 46.934533 109.878343 
L 47.309318 108.660692 
L 47.648196 107.443041 
L 47.953709 106.22539 
L 48.22821 105.007739 
L 48.473892 103.790088 
L 48.692862 102.572437 
L 48.887214 101.354785 
L 49.059062 100.137134 
L 49.210524 98.919483 
L 49.343646 97.701832 
L 49.460307 96.484181 
L 49.562101 95.26653 
L 49.65027 94.048879 
L 49.725676 92.831228 
L 49.788855 91.613577 
L 49.840132 90.395926 
L 49.879788 89.178275 
L 49.90825 87.960624 
L 49.926265 86.742973 
L 49.935026 85.525321 
L 49.936227 84.30767 
L 49.932024 83.090019 
L 49.924915 81.872368 
L 49.91755 80.654717 
L 49.9125 79.437066 
L 49.912012 78.219415 
L 49.917806 77.001764 
L 50.882194 77.001764 
L 50.882194 77.001764 
L 50.887988 78.219415 
L 50.8875 79.437066 
L 50.88245 80.654717 
L 50.875085 81.872368 
L 50.867976 83.090019 
L 50.863773 84.30767 
L 50.864974 85.525321 
L 50.873735 86.742973 
L 50.89175 87.960624 
L 50.920212 89.178275 
L 50.959868 90.395926 
L 51.011145 91.613577 
L 51.074324 92.831228 
L 51.14973 94.048879 
L 51.237899 95.26653 
L 51.339693 96.484181 
L 51.456354 97.701832 
L 51.589476 98.919483 
L 51.740938 100.137134 
L 51.912786 101.354785 
L 52.107138 102.572437 
L 52.326108 103.790088 
L 52.57179 105.007739 
L 52.846291 106.22539 
L 53.151804 107.443041 
L 53.490682 108.660692 
L 53.865467 109.878343 
L 54.278837 111.095994 
L 54.733441 112.313645 
L 55.231607 113.531296 
L 55.774963 114.748947 
L 56.364009 115.966598 
L 56.997716 117.184249 
L 57.673227 118.4019 
L 58.385718 119.619552 
L 59.128468 120.837203 
L 59.893117 122.054854 
L 60.670092 123.272505 
L 61.449117 124.490156 
L 62.219715 125.707807 
L 62.971641 126.925458 
L 63.695163 128.143109 
L 64.381188 129.36076 
L 65.021258 130.578411 
L 65.60747 131.796062 
L 66.132413 133.013713 
L 66.589193 134.231364 
L 66.97161 135.449016 
L 67.274498 136.666667 
L 67.494194 137.884318 
L 67.629066 139.101969 
L 67.68 140.31962 
L 67.650741 141.537271 
L 67.548002 142.754922 
L 67.381299 143.972573 
L 67.162492 145.190224 
L 66.905082 146.407875 
L 66.623325 147.625526 
L 66.331265 148.843177 
L 66.041773 150.060828 
L 65.765701 151.27848 
L 65.511221 152.496131 
L 65.283399 153.713782 
L 65.08404 154.931433 
L 64.9118 156.149084 
L 64.762527 157.366735 
L 64.629774 158.584386 
L 64.505422 159.802037 
L 64.380317 161.019688 
L 64.244861 162.237339 
L 64.089507 163.45499 
L 63.905131 164.672641 
L 63.683295 165.890292 
L 63.416447 167.107943 
L 63.098105 168.325595 
L 62.723068 169.543246 
L 62.287707 170.760897 
L 61.790312 171.978548 
L 61.231476 173.196199 
L 60.614446 174.41385 
L 59.945345 175.631501 
L 59.233207 176.849152 
L 58.489745 178.066803 
L 57.728843 179.284454 
L 56.965788 180.502105 
L 56.216323 181.719756 
L 55.495607 182.937407 
L 54.817209 184.155059 
L 54.192254 185.37271 
L 53.628797 186.590361 
L 53.131495 187.808012 
L 52.701595 189.025663 
L 52.337201 190.243314 
L 52.033783 191.460965 
L 51.784841 192.678616 
L 51.582647 193.896267 
L 51.418983 195.113918 
L 51.285802 196.331569 
L 51.175763 197.54922 
L 51.175763 197.54922 
z
" clip-path="url(#p32abe37907)" style="fill: none; stroke: #000000; stroke-opacity: 0.3"/>
   </g>
   <g id="FillBetweenPolyCollection_3">
    <path d="M 51.596859 220.600096 
L 49.203141 220.600096 
L 49.13694 219.356002 
L 49.081593 218.111907 
L 49.03712 216.867813 
L 49.002652 215.623719 
L 48.97644 214.379625 
L 48.955945 213.13553 
L 48.937988 211.891436 
L 48.918963 210.647342 
L 48.895078 209.403248 
L 48.862611 208.159153 
L 48.818148 206.915059 
L 48.758774 205.670965 
L 48.682208 204.42687 
L 48.58685 203.182776 
L 48.47175 201.938682 
L 48.336496 200.694588 
L 48.181031 199.450493 
L 48.005442 198.206399 
L 47.809724 196.962305 
L 47.593578 195.718211 
L 47.356255 194.474116 
L 47.096479 193.230022 
L 46.812476 191.985928 
L 46.502091 190.741834 
L 46.16302 189.497739 
L 45.793099 188.253645 
L 45.390661 187.009551 
L 44.954884 185.765456 
L 44.486118 184.521362 
L 43.986128 183.277268 
L 43.458229 182.033174 
L 42.907275 180.789079 
L 42.339499 179.544985 
L 41.762188 178.300891 
L 41.183243 177.056797 
L 40.610637 175.812702 
L 40.05183 174.568608 
L 39.513214 173.324514 
L 38.999639 172.080419 
L 38.514088 170.836325 
L 38.057536 169.592231 
L 37.629033 168.348137 
L 37.225984 167.104042 
L 36.844627 165.859948 
L 36.480629 164.615854 
L 36.129752 163.37176 
L 35.788492 162.127665 
L 35.454624 160.883571 
L 35.12759 159.639477 
L 34.808676 158.395383 
L 34.500978 157.151288 
L 34.209165 155.907194 
L 33.939064 154.6631 
L 33.697164 153.419005 
L 33.490062 152.174911 
L 33.323959 150.930817 
L 33.204249 149.686723 
L 33.135233 148.442628 
L 33.12 147.198534 
L 33.16045 145.95444 
L 33.257439 144.710346 
L 33.410998 143.466251 
L 33.620594 142.222157 
L 33.885347 140.978063 
L 34.204201 139.733968 
L 34.575987 138.489874 
L 34.999386 137.24578 
L 35.472796 136.001686 
L 35.994125 134.757591 
L 36.560547 133.513497 
L 37.168267 132.269403 
L 37.812343 131.025309 
L 38.486588 129.781214 
L 39.183589 128.53712 
L 39.894858 127.293026 
L 40.611089 126.048932 
L 41.322536 124.804837 
L 42.019447 123.560743 
L 42.69254 122.316649 
L 43.333464 121.072554 
L 43.935219 119.82846 
L 44.492482 118.584366 
L 45.001827 117.340272 
L 45.461811 116.096177 
L 45.87293 114.852083 
L 46.237455 113.607989 
L 46.559146 112.363895 
L 46.842902 111.1198 
L 47.094352 109.875706 
L 47.319432 108.631612 
L 47.523993 107.387518 
L 47.713443 106.143423 
L 47.892471 104.899329 
L 48.064855 103.655235 
L 48.233363 102.41114 
L 48.399733 101.167046 
L 48.564743 99.922952 
L 48.728331 98.678858 
L 48.889764 97.434763 
L 51.910236 97.434763 
L 51.910236 97.434763 
L 52.071669 98.678858 
L 52.235257 99.922952 
L 52.400267 101.167046 
L 52.566637 102.41114 
L 52.735145 103.655235 
L 52.907529 104.899329 
L 53.086557 106.143423 
L 53.276007 107.387518 
L 53.480568 108.631612 
L 53.705648 109.875706 
L 53.957098 111.1198 
L 54.240854 112.363895 
L 54.562545 113.607989 
L 54.92707 114.852083 
L 55.338189 116.096177 
L 55.798173 117.340272 
L 56.307518 118.584366 
L 56.864781 119.82846 
L 57.466536 121.072554 
L 58.10746 122.316649 
L 58.780553 123.560743 
L 59.477464 124.804837 
L 60.188911 126.048932 
L 60.905142 127.293026 
L 61.616411 128.53712 
L 62.313412 129.781214 
L 62.987657 131.025309 
L 63.631733 132.269403 
L 64.239453 133.513497 
L 64.805875 134.757591 
L 65.327204 136.001686 
L 65.800614 137.24578 
L 66.224013 138.489874 
L 66.595799 139.733968 
L 66.914653 140.978063 
L 67.179406 142.222157 
L 67.389002 143.466251 
L 67.542561 144.710346 
L 67.63955 145.95444 
L 67.68 147.198534 
L 67.664767 148.442628 
L 67.595751 149.686723 
L 67.476041 150.930817 
L 67.309938 152.174911 
L 67.102836 153.419005 
L 66.860936 154.6631 
L 66.590835 155.907194 
L 66.299022 157.151288 
L 65.991324 158.395383 
L 65.67241 159.639477 
L 65.345376 160.883571 
L 65.011508 162.127665 
L 64.670248 163.37176 
L 64.319371 164.615854 
L 63.955373 165.859948 
L 63.574016 167.104042 
L 63.170967 168.348137 
L 62.742464 169.592231 
L 62.285912 170.836325 
L 61.800361 172.080419 
L 61.286786 173.324514 
L 60.74817 174.568608 
L 60.189363 175.812702 
L 59.616757 177.056797 
L 59.037812 178.300891 
L 58.460501 179.544985 
L 57.892725 180.789079 
L 57.341771 182.033174 
L 56.813872 183.277268 
L 56.313882 184.521362 
L 55.845116 185.765456 
L 55.409339 187.009551 
L 55.006901 188.253645 
L 54.63698 189.497739 
L 54.297909 190.741834 
L 53.987524 191.985928 
L 53.703521 193.230022 
L 53.443745 194.474116 
L 53.206422 195.718211 
L 52.990276 196.962305 
L 52.794558 198.206399 
L 52.618969 199.450493 
L 52.463504 200.694588 
L 52.32825 201.938682 
L 52.21315 203.182776 
L 52.117792 204.42687 
L 52.041226 205.670965 
L 51.981852 206.915059 
L 51.937389 208.159153 
L 51.904922 209.403248 
L 51.881037 210.647342 
L 51.862012 211.891436 
L 51.844055 213.13553 
L 51.82356 214.379625 
L 51.797348 215.623719 
L 51.76288 216.867813 
L 51.718407 218.111907 
L 51.66306 219.356002 
L 51.596859 220.600096 
L 51.596859 220.600096 
z
" clip-path="url(#p32abe37907)" style="fill: none; stroke: #000000; stroke-opacity: 0.3"/>
   </g>
   <g id="FillBetweenPolyCollection_4">
    <path d="M 108.972065 141.846388 
L 107.027935 141.846388 
L 106.869459 140.725475 
L 106.695103 139.604561 
L 106.502004 138.483648 
L 106.285983 137.362735 
L 106.04146 136.241821 
L 105.761551 135.120908 
L 105.438358 133.999995 
L 105.063508 132.879081 
L 104.628906 131.758168 
L 104.127673 130.637255 
L 103.555158 129.516341 
L 102.9099 128.395428 
L 102.194366 127.274515 
L 101.415322 126.153601 
L 100.583726 125.032688 
L 99.714095 123.911775 
L 98.82343 122.790861 
L 97.929817 121.669948 
L 97.050958 120.549035 
L 96.20284 119.428121 
L 95.398752 118.307208 
L 94.648787 117.186295 
L 93.959828 116.065381 
L 93.335947 114.944468 
L 92.779064 113.823555 
L 92.289674 112.702641 
L 91.86751 111.581728 
L 91.512017 110.460815 
L 91.222639 109.339901 
L 90.998941 108.218988 
L 90.840647 107.098075 
L 90.747643 105.977161 
L 90.72 104.856248 
L 90.757993 103.735335 
L 90.862092 102.614421 
L 91.032859 101.493508 
L 91.270737 100.372595 
L 91.57572 99.251681 
L 91.946957 98.130768 
L 92.382364 97.009855 
L 92.878326 95.888941 
L 93.429555 94.768028 
L 94.029133 93.647115 
L 94.66875 92.526201 
L 95.339067 91.405288 
L 96.030175 90.284375 
L 96.732058 89.163461 
L 97.435027 88.042548 
L 98.130065 86.921635 
L 98.80908 85.800721 
L 99.465042 84.679808 
L 100.092032 83.558895 
L 100.685221 82.437981 
L 101.240801 81.317068 
L 101.755915 80.196155 
L 102.228596 79.075241 
L 102.657744 77.954328 
L 103.043133 76.833415 
L 103.38544 75.712501 
L 103.686266 74.591588 
L 103.94815 73.470675 
L 104.174538 72.349761 
L 104.369714 71.228848 
L 104.538689 70.107935 
L 104.687033 68.987021 
L 104.82067 67.866108 
L 104.945608 66.745195 
L 105.067618 65.624281 
L 105.191862 64.503368 
L 105.3225 63.382455 
L 105.462335 62.261541 
L 105.612533 61.140628 
L 105.772508 60.019714 
L 105.939998 58.898801 
L 106.111355 57.777888 
L 106.282032 56.656974 
L 106.447179 55.536061 
L 106.602276 54.415148 
L 106.74368 53.294234 
L 106.86901 52.173321 
L 106.977296 51.052408 
L 107.068887 49.931494 
L 107.145164 48.810581 
L 107.208116 47.689668 
L 107.259889 46.568754 
L 107.3024 45.447841 
L 107.337099 44.326928 
L 107.364903 43.206014 
L 107.386305 42.085101 
L 107.40162 40.964188 
L 107.411273 39.843274 
L 107.416072 38.722361 
L 107.417369 37.601448 
L 107.417082 36.480534 
L 107.417555 35.359621 
L 107.421291 34.238708 
L 107.430611 33.117794 
L 107.447314 31.996881 
L 107.472403 30.875968 
L 108.527597 30.875968 
L 108.527597 30.875968 
L 108.552686 31.996881 
L 108.569389 33.117794 
L 108.578709 34.238708 
L 108.582445 35.359621 
L 108.582918 36.480534 
L 108.582631 37.601448 
L 108.583928 38.722361 
L 108.588727 39.843274 
L 108.59838 40.964188 
L 108.613695 42.085101 
L 108.635097 43.206014 
L 108.662901 44.326928 
L 108.6976 45.447841 
L 108.740111 46.568754 
L 108.791884 47.689668 
L 108.854836 48.810581 
L 108.931113 49.931494 
L 109.022704 51.052408 
L 109.13099 52.173321 
L 109.25632 53.294234 
L 109.397724 54.415148 
L 109.552821 55.536061 
L 109.717968 56.656974 
L 109.888645 57.777888 
L 110.060002 58.898801 
L 110.227492 60.019714 
L 110.387467 61.140628 
L 110.537665 62.261541 
L 110.6775 63.382455 
L 110.808138 64.503368 
L 110.932382 65.624281 
L 111.054392 66.745195 
L 111.17933 67.866108 
L 111.312967 68.987021 
L 111.461311 70.107935 
L 111.630286 71.228848 
L 111.825462 72.349761 
L 112.05185 73.470675 
L 112.313734 74.591588 
L 112.61456 75.712501 
L 112.956867 76.833415 
L 113.342256 77.954328 
L 113.771404 79.075241 
L 114.244085 80.196155 
L 114.759199 81.317068 
L 115.314779 82.437981 
L 115.907968 83.558895 
L 116.534958 84.679808 
L 117.19092 85.800721 
L 117.869935 86.921635 
L 118.564973 88.042548 
L 119.267942 89.163461 
L 119.969825 90.284375 
L 120.660933 91.405288 
L 121.33125 92.526201 
L 121.970867 93.647115 
L 122.570445 94.768028 
L 123.121674 95.888941 
L 123.617636 97.009855 
L 124.053043 98.130768 
L 124.42428 99.251681 
L 124.729263 100.372595 
L 124.967141 101.493508 
L 125.137908 102.614421 
L 125.242007 103.735335 
L 125.28 104.856248 
L 125.252357 105.977161 
L 125.159353 107.098075 
L 125.001059 108.218988 
L 124.777361 109.339901 
L 124.487983 110.460815 
L 124.13249 111.581728 
L 123.710326 112.702641 
L 123.220936 113.823555 
L 122.664053 114.944468 
L 122.040172 116.065381 
L 121.351213 117.186295 
L 120.601248 118.307208 
L 119.79716 119.428121 
L 118.949042 120.549035 
L 118.070183 121.669948 
L 117.17657 122.790861 
L 116.285905 123.911775 
L 115.416274 125.032688 
L 114.584678 126.153601 
L 113.805634 127.274515 
L 113.0901 128.395428 
L 112.444842 129.516341 
L 111.872327 130.637255 
L 111.371094 131.758168 
L 110.936492 132.879081 
L 110.561642 133.999995 
L 110.238449 135.120908 
L 109.95854 136.241821 
L 109.714017 137.362735 
L 109.497996 138.483648 
L 109.304897 139.604561 
L 109.130541 140.725475 
L 108.972065 141.846388 
L 108.972065 141.846388 
z
" clip-path="url(#p32abe37907)" style="fill: none; stroke: #000000; stroke-opacity: 0.3"/>
   </g>
   <g id="FillBetweenPolyCollection_5">
    <path d="M 108.304135 182.992722 
L 107.695865 182.992722 
L 107.700553 181.61748 
L 107.714203 180.242238 
L 107.735559 178.866996 
L 107.762728 177.491754 
L 107.793431 176.116512 
L 107.825275 174.74127 
L 107.855993 173.366029 
L 107.883602 171.990787 
L 107.906466 170.615545 
L 107.923257 169.240303 
L 107.932831 167.865061 
L 107.934066 166.489819 
L 107.925682 165.114577 
L 107.906104 163.739335 
L 107.873387 162.364093 
L 107.825217 160.988851 
L 107.759001 159.613609 
L 107.672028 158.238367 
L 107.561659 156.863125 
L 107.425531 155.487884 
L 107.261705 154.112642 
L 107.06874 152.7374 
L 106.845677 151.362158 
L 106.591927 149.986916 
L 106.307122 148.611674 
L 105.990962 147.236432 
L 105.643111 145.86119 
L 105.263189 144.485948 
L 104.850848 143.110706 
L 104.405891 141.735464 
L 103.928389 140.360222 
L 103.418712 138.98498 
L 102.877448 137.609739 
L 102.305224 136.234497 
L 101.70249 134.859255 
L 101.069377 133.484013 
L 100.405725 132.108771 
L 99.711364 130.733529 
L 98.986651 129.358287 
L 98.233194 127.983045 
L 97.454636 126.607803 
L 96.657347 125.232561 
L 95.850864 123.857319 
L 95.047964 122.482077 
L 94.264322 121.106835 
L 93.517754 119.731593 
L 92.827123 118.356352 
L 92.211019 116.98111 
L 91.686382 115.605868 
L 91.267222 114.230626 
L 90.9636 112.855384 
L 90.780976 111.480142 
L 90.72 110.1049 
L 90.776712 108.729658 
L 90.943115 107.354416 
L 91.20801 105.979174 
L 91.557981 104.603932 
L 91.978452 103.22869 
L 92.454728 101.853448 
L 92.972959 100.478207 
L 93.52098 99.102965 
L 94.08893 97.727723 
L 94.669599 96.352481 
L 95.258417 94.977239 
L 95.85307 93.601997 
L 96.452773 92.226755 
L 97.057302 90.851513 
L 97.665957 89.476271 
L 98.276628 88.101029 
L 98.885168 86.725787 
L 99.485169 85.350545 
L 100.068215 83.975303 
L 100.624575 82.600062 
L 101.144229 81.22482 
L 101.618076 79.849578 
L 102.039155 78.474336 
L 102.403694 77.099094 
L 102.711827 75.723852 
L 102.967872 74.34861 
L 103.180097 72.973368 
L 103.359964 71.598126 
L 103.520943 70.222884 
L 103.677012 68.847642 
L 103.841062 67.4724 
L 104.023442 66.097158 
L 104.230835 64.721916 
L 104.465674 63.346675 
L 104.726147 61.971433 
L 105.00678 60.596191 
L 105.29948 59.220949 
L 105.594833 57.845707 
L 105.883428 56.470465 
L 106.157022 55.095223 
L 106.409354 53.719981 
L 106.636557 52.344739 
L 106.837165 50.969497 
L 107.011769 49.594255 
L 107.162465 48.219013 
L 107.292206 46.843771 
L 108.707794 46.843771 
L 108.707794 46.843771 
L 108.837535 48.219013 
L 108.988231 49.594255 
L 109.162835 50.969497 
L 109.363443 52.344739 
L 109.590646 53.719981 
L 109.842978 55.095223 
L 110.116572 56.470465 
L 110.405167 57.845707 
L 110.70052 59.220949 
L 110.99322 60.596191 
L 111.273853 61.971433 
L 111.534326 63.346675 
L 111.769165 64.721916 
L 111.976558 66.097158 
L 112.158938 67.4724 
L 112.322988 68.847642 
L 112.479057 70.222884 
L 112.640036 71.598126 
L 112.819903 72.973368 
L 113.032128 74.34861 
L 113.288173 75.723852 
L 113.596306 77.099094 
L 113.960845 78.474336 
L 114.381924 79.849578 
L 114.855771 81.22482 
L 115.375425 82.600062 
L 115.931785 83.975303 
L 116.514831 85.350545 
L 117.114832 86.725787 
L 117.723372 88.101029 
L 118.334043 89.476271 
L 118.942698 90.851513 
L 119.547227 92.226755 
L 120.14693 93.601997 
L 120.741583 94.977239 
L 121.330401 96.352481 
L 121.91107 97.727723 
L 122.47902 99.102965 
L 123.027041 100.478207 
L 123.545272 101.853448 
L 124.021548 103.22869 
L 124.442019 104.603932 
L 124.79199 105.979174 
L 125.056885 107.354416 
L 125.223288 108.729658 
L 125.28 110.1049 
L 125.219024 111.480142 
L 125.0364 112.855384 
L 124.732778 114.230626 
L 124.313618 115.605868 
L 123.788981 116.98111 
L 123.172877 118.356352 
L 122.482246 119.731593 
L 121.735678 121.106835 
L 120.952036 122.482077 
L 120.149136 123.857319 
L 119.342653 125.232561 
L 118.545364 126.607803 
L 117.766806 127.983045 
L 117.013349 129.358287 
L 116.288636 130.733529 
L 115.594275 132.108771 
L 114.930623 133.484013 
L 114.29751 134.859255 
L 113.694776 136.234497 
L 113.122552 137.609739 
L 112.581288 138.98498 
L 112.071611 140.360222 
L 111.594109 141.735464 
L 111.149152 143.110706 
L 110.736811 144.485948 
L 110.356889 145.86119 
L 110.009038 147.236432 
L 109.692878 148.611674 
L 109.408073 149.986916 
L 109.154323 151.362158 
L 108.93126 152.7374 
L 108.738295 154.112642 
L 108.574469 155.487884 
L 108.438341 156.863125 
L 108.327972 158.238367 
L 108.240999 159.613609 
L 108.174783 160.988851 
L 108.126613 162.364093 
L 108.093896 163.739335 
L 108.074318 165.114577 
L 108.065934 166.489819 
L 108.067169 167.865061 
L 108.076743 169.240303 
L 108.093534 170.615545 
L 108.116398 171.990787 
L 108.144007 173.366029 
L 108.174725 174.74127 
L 108.206569 176.116512 
L 108.237272 177.491754 
L 108.264441 178.866996 
L 108.285797 180.242238 
L 108.299447 181.61748 
L 108.304135 182.992722 
L 108.304135 182.992722 
z
" clip-path="url(#p32abe37907)" style="fill: none; stroke: #000000; stroke-opacity: 0.3"/>
   </g>
   <g id="FillBetweenPolyCollection_6">
    <path d="M 109.325228 166.058321 
L 106.674772 166.058321 
L 106.596657 165.038598 
L 106.528313 164.018874 
L 106.470438 162.999151 
L 106.423159 161.979428 
L 106.386032 160.959704 
L 106.358068 159.939981 
L 106.337809 158.920257 
L 106.323419 157.900534 
L 106.312804 156.880811 
L 106.303722 155.861087 
L 106.293893 154.841364 
L 106.281078 153.82164 
L 106.263129 152.801917 
L 106.237992 151.782194 
L 106.20369 150.76247 
L 106.158256 149.742747 
L 106.09967 148.723023 
L 106.02578 147.7033 
L 105.93425 146.683577 
L 105.82254 145.663853 
L 105.68793 144.64413 
L 105.527602 143.624406 
L 105.338769 142.604683 
L 105.118842 141.584959 
L 104.865627 140.565236 
L 104.577512 139.545513 
L 104.253645 138.525789 
L 103.894045 137.506066 
L 103.499667 136.486342 
L 103.072375 135.466619 
L 102.614847 134.446896 
L 102.130408 133.427172 
L 101.622807 132.407449 
L 101.095974 131.387725 
L 100.553768 130.368002 
L 99.999764 129.348279 
L 99.437094 128.328555 
L 98.868358 127.308832 
L 98.295635 126.289108 
L 97.720578 125.269385 
L 97.144583 124.249662 
L 96.569032 123.229938 
L 95.995555 122.210215 
L 95.426301 121.190491 
L 94.864164 120.170768 
L 94.312951 119.151045 
L 93.777456 118.131321 
L 93.263424 117.111598 
L 92.777414 116.091874 
L 92.326562 115.072151 
L 91.918267 114.052428 
L 91.55983 113.032704 
L 91.258084 112.012981 
L 91.019036 110.993257 
L 90.84757 109.973534 
L 90.747214 108.953811 
L 90.72 107.934087 
L 90.766414 106.914364 
L 90.885431 105.89464 
L 91.074636 104.874917 
L 91.330394 103.855194 
L 91.648075 102.83547 
L 92.022304 101.815747 
L 92.447217 100.796023 
L 92.91671 99.7763 
L 93.42468 98.756577 
L 93.965213 97.736853 
L 94.532754 96.71713 
L 95.122206 95.697406 
L 95.728991 94.677683 
L 96.34904 93.65796 
L 96.978739 92.638236 
L 97.614829 91.618513 
L 98.254263 90.598789 
L 98.894054 89.579066 
L 99.531125 88.559343 
L 100.162168 87.539619 
L 100.78356 86.519896 
L 101.391312 85.500172 
L 101.9811 84.480449 
L 102.548348 83.460726 
L 103.088377 82.441002 
L 103.596606 81.421279 
L 104.068787 80.401555 
L 104.50125 79.381832 
L 104.891146 78.362108 
L 105.236656 77.342385 
L 105.537146 76.322662 
L 105.793262 75.302938 
L 106.006939 74.283215 
L 106.181334 73.263491 
L 106.320672 72.243768 
L 106.430027 71.224045 
L 106.515043 70.204321 
L 106.581618 69.184598 
L 106.635588 68.164874 
L 106.682408 67.145151 
L 106.726887 66.125428 
L 106.772966 65.105704 
L 109.227034 65.105704 
L 109.227034 65.105704 
L 109.273113 66.125428 
L 109.317592 67.145151 
L 109.364412 68.164874 
L 109.418382 69.184598 
L 109.484957 70.204321 
L 109.569973 71.224045 
L 109.679328 72.243768 
L 109.818666 73.263491 
L 109.993061 74.283215 
L 110.206738 75.302938 
L 110.462854 76.322662 
L 110.763344 77.342385 
L 111.108854 78.362108 
L 111.49875 79.381832 
L 111.931213 80.401555 
L 112.403394 81.421279 
L 112.911623 82.441002 
L 113.451652 83.460726 
L 114.0189 84.480449 
L 114.608688 85.500172 
L 115.21644 86.519896 
L 115.837832 87.539619 
L 116.468875 88.559343 
L 117.105946 89.579066 
L 117.745737 90.598789 
L 118.385171 91.618513 
L 119.021261 92.638236 
L 119.65096 93.65796 
L 120.271009 94.677683 
L 120.877794 95.697406 
L 121.467246 96.71713 
L 122.034787 97.736853 
L 122.57532 98.756577 
L 123.08329 99.7763 
L 123.552783 100.796023 
L 123.977696 101.815747 
L 124.351925 102.83547 
L 124.669606 103.855194 
L 124.925364 104.874917 
L 125.114569 105.89464 
L 125.233586 106.914364 
L 125.28 107.934087 
L 125.252786 108.953811 
L 125.15243 109.973534 
L 124.980964 110.993257 
L 124.741916 112.012981 
L 124.44017 113.032704 
L 124.081733 114.052428 
L 123.673438 115.072151 
L 123.222586 116.091874 
L 122.736576 117.111598 
L 122.222544 118.131321 
L 121.687049 119.151045 
L 121.135836 120.170768 
L 120.573699 121.190491 
L 120.004445 122.210215 
L 119.430968 123.229938 
L 118.855417 124.249662 
L 118.279422 125.269385 
L 117.704365 126.289108 
L 117.131642 127.308832 
L 116.562906 128.328555 
L 116.000236 129.348279 
L 115.446232 130.368002 
L 114.904026 131.387725 
L 114.377193 132.407449 
L 113.869592 133.427172 
L 113.385153 134.446896 
L 112.927625 135.466619 
L 112.500333 136.486342 
L 112.105955 137.506066 
L 111.746355 138.525789 
L 111.422488 139.545513 
L 111.134373 140.565236 
L 110.881158 141.584959 
L 110.661231 142.604683 
L 110.472398 143.624406 
L 110.31207 144.64413 
L 110.17746 145.663853 
L 110.06575 146.683577 
L 109.97422 147.7033 
L 109.90033 148.723023 
L 109.841744 149.742747 
L 109.79631 150.76247 
L 109.762008 151.782194 
L 109.736871 152.801917 
L 109.718922 153.82164 
L 109.706107 154.841364 
L 109.696278 155.861087 
L 109.687196 156.880811 
L 109.676581 157.900534 
L 109.662191 158.920257 
L 109.641932 159.939981 
L 109.613968 160.959704 
L 109.576841 161.979428 
L 109.529562 162.999151 
L 109.471687 164.018874 
L 109.403343 165.038598 
L 109.325228 166.058321 
L 109.325228 166.058321 
z
" clip-path="url(#p32abe37907)" style="fill: none; stroke: #000000; stroke-opacity: 0.3"/>
   </g>
   <g id="FillBetweenPolyCollection_7">
    <path d="M 110.506509 137.451392 
L 105.493491 137.451392 
L 105.194269 136.604743 
L 104.865771 135.758094 
L 104.505092 134.911445 
L 104.109642 134.064796 
L 103.677442 133.218148 
L 103.207411 132.371499 
L 102.699629 131.52485 
L 102.15554 130.678201 
L 101.578065 129.831552 
L 100.971622 128.984903 
L 100.342026 128.138255 
L 99.696285 127.291606 
L 99.042294 126.444957 
L 98.38846 125.598308 
L 97.743281 124.751659 
L 97.114923 123.905011 
L 96.510814 123.058362 
L 95.937309 122.211713 
L 95.399424 121.365064 
L 94.90068 120.518415 
L 94.443044 119.671766 
L 94.02698 118.825118 
L 93.65157 117.978469 
L 93.314729 117.13182 
L 93.013446 116.285171 
L 92.744066 115.438522 
L 92.502569 114.591874 
L 92.284849 113.745225 
L 92.086961 112.898576 
L 91.905341 112.051927 
L 91.736995 111.205278 
L 91.579647 110.358629 
L 91.431854 109.511981 
L 91.293077 108.665332 
L 91.163726 107.818683 
L 91.045158 106.972034 
L 90.939641 106.125385 
L 90.850274 105.278737 
L 90.780881 104.432088 
L 90.735859 103.585439 
L 90.72 102.73879 
L 90.738292 101.892141 
L 90.795704 101.045493 
L 90.896957 100.198844 
L 91.046316 99.352195 
L 91.24737 98.505546 
L 91.50286 97.658897 
L 91.814509 96.812248 
L 92.182909 95.9656 
L 92.607429 95.118951 
L 93.086169 94.272302 
L 93.61596 93.425653 
L 94.192396 92.579004 
L 94.809907 91.732356 
L 95.461871 90.885707 
L 96.140757 90.039058 
L 96.838294 89.192409 
L 97.545675 88.34576 
L 98.253771 87.499111 
L 98.953381 86.652463 
L 99.635479 85.805814 
L 100.291479 84.959165 
L 100.913494 84.112516 
L 101.494592 83.265867 
L 102.029022 82.419219 
L 102.512409 81.57257 
L 102.941904 80.725921 
L 103.316266 79.879272 
L 103.635888 79.032623 
L 103.902732 78.185974 
L 104.120203 77.339326 
L 104.292945 76.492677 
L 104.426578 75.646028 
L 104.527392 74.799379 
L 104.602018 73.95273 
L 104.6571 73.106082 
L 104.698977 72.259433 
L 104.733421 71.412784 
L 104.765424 70.566135 
L 104.799055 69.719486 
L 104.8374 68.872837 
L 104.882561 68.026189 
L 104.935739 67.17954 
L 104.997356 66.332891 
L 105.067221 65.486242 
L 105.14471 64.639593 
L 105.228951 63.792945 
L 105.318981 62.946296 
L 105.413887 62.099647 
L 105.512894 61.252998 
L 105.615417 60.406349 
L 105.721067 59.5597 
L 105.829622 58.713052 
L 105.940968 57.866403 
L 106.055027 57.019754 
L 106.171677 56.173105 
L 106.29068 55.326456 
L 106.411627 54.479808 
L 106.533904 53.633159 
L 109.466096 53.633159 
L 109.466096 53.633159 
L 109.588373 54.479808 
L 109.70932 55.326456 
L 109.828323 56.173105 
L 109.944973 57.019754 
L 110.059032 57.866403 
L 110.170378 58.713052 
L 110.278933 59.5597 
L 110.384583 60.406349 
L 110.487106 61.252998 
L 110.586113 62.099647 
L 110.681019 62.946296 
L 110.771049 63.792945 
L 110.85529 64.639593 
L 110.932779 65.486242 
L 111.002644 66.332891 
L 111.064261 67.17954 
L 111.117439 68.026189 
L 111.1626 68.872837 
L 111.200945 69.719486 
L 111.234576 70.566135 
L 111.266579 71.412784 
L 111.301023 72.259433 
L 111.3429 73.106082 
L 111.397982 73.95273 
L 111.472608 74.799379 
L 111.573422 75.646028 
L 111.707055 76.492677 
L 111.879797 77.339326 
L 112.097268 78.185974 
L 112.364112 79.032623 
L 112.683734 79.879272 
L 113.058096 80.725921 
L 113.487591 81.57257 
L 113.970978 82.419219 
L 114.505408 83.265867 
L 115.086506 84.112516 
L 115.708521 84.959165 
L 116.364521 85.805814 
L 117.046619 86.652463 
L 117.746229 87.499111 
L 118.454325 88.34576 
L 119.161706 89.192409 
L 119.859243 90.039058 
L 120.538129 90.885707 
L 121.190093 91.732356 
L 121.807604 92.579004 
L 122.38404 93.425653 
L 122.913831 94.272302 
L 123.392571 95.118951 
L 123.817091 95.9656 
L 124.185491 96.812248 
L 124.49714 97.658897 
L 124.75263 98.505546 
L 124.953684 99.352195 
L 125.103043 100.198844 
L 125.204296 101.045493 
L 125.261708 101.892141 
L 125.28 102.73879 
L 125.264141 103.585439 
L 125.219119 104.432088 
L 125.149726 105.278737 
L 125.060359 106.125385 
L 124.954842 106.972034 
L 124.836274 107.818683 
L 124.706923 108.665332 
L 124.568146 109.511981 
L 124.420353 110.358629 
L 124.263005 111.205278 
L 124.094659 112.051927 
L 123.913039 112.898576 
L 123.715151 113.745225 
L 123.497431 114.591874 
L 123.255934 115.438522 
L 122.986554 116.285171 
L 122.685271 117.13182 
L 122.34843 117.978469 
L 121.97302 118.825118 
L 121.556956 119.671766 
L 121.09932 120.518415 
L 120.600576 121.365064 
L 120.062691 122.211713 
L 119.489186 123.058362 
L 118.885077 123.905011 
L 118.256719 124.751659 
L 117.61154 125.598308 
L 116.957706 126.444957 
L 116.303715 127.291606 
L 115.657974 128.138255 
L 115.028378 128.984903 
L 114.421935 129.831552 
L 113.84446 130.678201 
L 113.300371 131.52485 
L 112.792589 132.371499 
L 112.322558 133.218148 
L 111.890358 134.064796 
L 111.494908 134.911445 
L 111.134229 135.758094 
L 110.805731 136.604743 
L 110.506509 137.451392 
L 110.506509 137.451392 
z
" clip-path="url(#p32abe37907)" style="fill: none; stroke: #000000; stroke-opacity: 0.3"/>
   </g>
   <g id="FillBetweenPolyCollection_8">
    <path d="M 108.675071 157.222716 
L 107.324929 157.222716 
L 107.254003 156.225735 
L 107.180299 155.228754 
L 107.102446 154.231772 
L 107.01865 153.234791 
L 106.926839 152.237809 
L 106.824838 151.240828 
L 106.710551 150.243846 
L 106.582114 149.246865 
L 106.43802 148.249884 
L 106.277177 147.252902 
L 106.098924 146.255921 
L 105.903 145.258939 
L 105.689494 144.261958 
L 105.458774 143.264976 
L 105.211425 142.267995 
L 104.948191 141.271013 
L 104.669909 140.274032 
L 104.377435 139.277051 
L 104.071549 138.280069 
L 103.75282 137.283088 
L 103.421452 136.286106 
L 103.077108 135.289125 
L 102.718751 134.292143 
L 102.344534 133.295162 
L 101.951775 132.298181 
L 101.537054 131.301199 
L 101.09644 130.304218 
L 100.625861 129.307236 
L 100.121581 128.310255 
L 99.580749 127.313273 
L 99.001955 126.316292 
L 98.385739 125.319311 
L 97.734977 124.322329 
L 97.055095 123.325348 
L 96.354091 122.328366 
L 95.642333 121.331385 
L 94.932169 120.334403 
L 94.237355 119.337422 
L 93.572371 118.340441 
L 92.951664 117.343459 
L 92.388862 116.346478 
L 91.896034 115.349496 
L 91.483007 114.352515 
L 91.156809 113.355533 
L 90.921248 112.358552 
L 90.776684 111.361571 
L 90.72 110.364589 
L 90.744807 109.367608 
L 90.841881 108.370626 
L 90.999813 107.373645 
L 91.205841 106.376663 
L 91.446778 105.379682 
L 91.709973 104.382701 
L 91.984188 103.385719 
L 92.260327 102.388738 
L 92.531921 101.391756 
L 92.79536 100.394775 
L 93.049835 99.397793 
L 93.297053 98.400812 
L 93.540743 97.403831 
L 93.786058 96.406849 
L 94.038921 95.409868 
L 94.305388 94.412886 
L 94.591082 93.415905 
L 94.900734 92.418923 
L 95.237829 91.421942 
L 95.604371 90.42496 
L 96.000752 89.427979 
L 96.425712 88.430998 
L 96.876369 87.434016 
L 97.348334 86.437035 
L 97.835892 85.440053 
L 98.332269 84.443072 
L 98.829989 83.44609 
L 99.321311 82.449109 
L 99.798745 81.452128 
L 100.255589 80.455146 
L 100.686465 79.458165 
L 101.087757 78.461183 
L 101.457923 77.464202 
L 101.797594 76.46722 
L 102.109468 75.470239 
L 102.397979 74.473258 
L 102.668784 73.476276 
L 102.928144 72.479295 
L 103.182254 71.482313 
L 103.436631 70.485332 
L 103.695606 69.48835 
L 103.96199 68.491369 
L 104.236914 67.494388 
L 104.519871 66.497406 
L 104.8089 65.500425 
L 105.100898 64.503443 
L 105.391997 63.506462 
L 105.677966 62.50948 
L 105.954584 61.512499 
L 106.217966 60.515518 
L 106.464807 59.518536 
L 106.692545 58.521555 
L 109.307455 58.521555 
L 109.307455 58.521555 
L 109.535193 59.518536 
L 109.782034 60.515518 
L 110.045416 61.512499 
L 110.322034 62.50948 
L 110.608003 63.506462 
L 110.899102 64.503443 
L 111.1911 65.500425 
L 111.480129 66.497406 
L 111.763086 67.494388 
L 112.03801 68.491369 
L 112.304394 69.48835 
L 112.563369 70.485332 
L 112.817746 71.482313 
L 113.071856 72.479295 
L 113.331216 73.476276 
L 113.602021 74.473258 
L 113.890532 75.470239 
L 114.202406 76.46722 
L 114.542077 77.464202 
L 114.912243 78.461183 
L 115.313535 79.458165 
L 115.744411 80.455146 
L 116.201255 81.452128 
L 116.678689 82.449109 
L 117.170011 83.44609 
L 117.667731 84.443072 
L 118.164108 85.440053 
L 118.651666 86.437035 
L 119.123631 87.434016 
L 119.574288 88.430998 
L 119.999248 89.427979 
L 120.395629 90.42496 
L 120.762171 91.421942 
L 121.099266 92.418923 
L 121.408918 93.415905 
L 121.694612 94.412886 
L 121.961079 95.409868 
L 122.213942 96.406849 
L 122.459257 97.403831 
L 122.702947 98.400812 
L 122.950165 99.397793 
L 123.20464 100.394775 
L 123.468079 101.391756 
L 123.739673 102.388738 
L 124.015812 103.385719 
L 124.290027 104.382701 
L 124.553222 105.379682 
L 124.794159 106.376663 
L 125.000187 107.373645 
L 125.158119 108.370626 
L 125.255193 109.367608 
L 125.28 110.364589 
L 125.223316 111.361571 
L 125.078752 112.358552 
L 124.843191 113.355533 
L 124.516993 114.352515 
L 124.103966 115.349496 
L 123.611138 116.346478 
L 123.048336 117.343459 
L 122.427629 118.340441 
L 121.762645 119.337422 
L 121.067831 120.334403 
L 120.357667 121.331385 
L 119.645909 122.328366 
L 118.944905 123.325348 
L 118.265023 124.322329 
L 117.614261 125.319311 
L 116.998045 126.316292 
L 116.419251 127.313273 
L 115.878419 128.310255 
L 115.374139 129.307236 
L 114.90356 130.304218 
L 114.462946 131.301199 
L 114.048225 132.298181 
L 113.655466 133.295162 
L 113.281249 134.292143 
L 112.922892 135.289125 
L 112.578548 136.286106 
L 112.24718 137.283088 
L 111.928451 138.280069 
L 111.622565 139.277051 
L 111.330091 140.274032 
L 111.051809 141.271013 
L 110.788575 142.267995 
L 110.541226 143.264976 
L 110.310506 144.261958 
L 110.097 145.258939 
L 109.901076 146.255921 
L 109.722823 147.252902 
L 109.56198 148.249884 
L 109.417886 149.246865 
L 109.289449 150.243846 
L 109.175162 151.240828 
L 109.073161 152.237809 
L 108.98135 153.234791 
L 108.897554 154.231772 
L 108.819701 155.228754 
L 108.745997 156.225735 
L 108.675071 157.222716 
L 108.675071 157.222716 
z
" clip-path="url(#p32abe37907)" style="fill: none; stroke: #000000; stroke-opacity: 0.3"/>
   </g>
   <g id="FillBetweenPolyCollection_9">
    <path d="M 108.600984 192.517608 
L 107.399016 192.517608 
L 107.376375 191.374626 
L 107.355771 190.231643 
L 107.335953 189.08866 
L 107.315511 187.945678 
L 107.293043 186.802695 
L 107.267333 185.659713 
L 107.237519 184.51673 
L 107.203244 183.373748 
L 107.164754 182.230765 
L 107.122935 181.087783 
L 107.079286 179.9448 
L 107.035809 178.801818 
L 106.99484 177.658835 
L 106.958832 176.515852 
L 106.9301 175.37287 
L 106.910572 174.229887 
L 106.901552 173.086905 
L 106.903539 171.943922 
L 106.916103 170.80094 
L 106.93784 169.657957 
L 106.966415 168.514975 
L 106.998666 167.371992 
L 107.030789 166.229009 
L 107.058558 165.086027 
L 107.077577 163.943044 
L 107.083534 162.800062 
L 107.072443 161.657079 
L 107.040853 160.514097 
L 106.986014 159.371114 
L 106.905987 158.228132 
L 106.799705 157.085149 
L 106.666972 155.942167 
L 106.508418 154.799184 
L 106.325398 153.656201 
L 106.119863 152.513219 
L 105.894199 151.370236 
L 105.651042 150.227254 
L 105.393098 149.084271 
L 105.12295 147.941289 
L 104.842891 146.798306 
L 104.554774 145.655324 
L 104.259899 144.512341 
L 103.958933 143.369358 
L 103.651882 142.226376 
L 103.338098 141.083393 
L 103.016341 139.940411 
L 102.684867 138.797428 
L 102.341555 137.654446 
L 101.984052 136.511463 
L 101.609927 135.368481 
L 101.21683 134.225498 
L 100.802635 133.082516 
L 100.365581 131.939533 
L 99.904386 130.79655 
L 99.41836 129.653568 
L 98.907499 128.510585 
L 98.372577 127.367603 
L 97.815235 126.22462 
L 97.238068 125.081638 
L 96.644702 123.938655 
L 96.039856 122.795673 
L 95.429375 121.65269 
L 94.820205 120.509708 
L 94.22032 119.366725 
L 93.63856 118.223742 
L 93.084399 117.08076 
L 92.567637 115.937777 
L 92.098039 114.794795 
L 91.684943 113.651812 
L 91.336876 112.50883 
L 91.06121 111.365847 
L 90.863893 110.222865 
L 90.749265 109.079882 
L 90.72 107.936899 
L 90.777133 106.793917 
L 90.920186 105.650934 
L 91.147345 104.507952 
L 91.455665 103.364969 
L 91.84127 102.221987 
L 92.299509 101.079004 
L 92.825069 99.936022 
L 93.41203 98.793039 
L 94.053869 97.650057 
L 94.74345 96.507074 
L 95.473004 95.364091 
L 96.23415 94.221109 
L 97.017963 93.078126 
L 97.815112 91.935144 
L 98.616059 90.792161 
L 99.41133 89.649179 
L 100.191808 88.506196 
L 100.949043 87.363214 
L 101.675535 86.220231 
L 102.36497 85.077248 
L 103.012373 83.934266 
L 103.614189 82.791283 
L 104.168265 81.648301 
L 104.673762 80.505318 
L 105.130997 79.362336 
L 110.869003 79.362336 
L 110.869003 79.362336 
L 111.326238 80.505318 
L 111.831735 81.648301 
L 112.385811 82.791283 
L 112.987627 83.934266 
L 113.63503 85.077248 
L 114.324465 86.220231 
L 115.050957 87.363214 
L 115.808192 88.506196 
L 116.58867 89.649179 
L 117.383941 90.792161 
L 118.184888 91.935144 
L 118.982037 93.078126 
L 119.76585 94.221109 
L 120.526996 95.364091 
L 121.25655 96.507074 
L 121.946131 97.650057 
L 122.58797 98.793039 
L 123.174931 99.936022 
L 123.700491 101.079004 
L 124.15873 102.221987 
L 124.544335 103.364969 
L 124.852655 104.507952 
L 125.079814 105.650934 
L 125.222867 106.793917 
L 125.28 107.936899 
L 125.250735 109.079882 
L 125.136107 110.222865 
L 124.93879 111.365847 
L 124.663124 112.50883 
L 124.315057 113.651812 
L 123.901961 114.794795 
L 123.432363 115.937777 
L 122.915601 117.08076 
L 122.36144 118.223742 
L 121.77968 119.366725 
L 121.179795 120.509708 
L 120.570625 121.65269 
L 119.960144 122.795673 
L 119.355298 123.938655 
L 118.761932 125.081638 
L 118.184765 126.22462 
L 117.627423 127.367603 
L 117.092501 128.510585 
L 116.58164 129.653568 
L 116.095614 130.79655 
L 115.634419 131.939533 
L 115.197365 133.082516 
L 114.78317 134.225498 
L 114.390073 135.368481 
L 114.015948 136.511463 
L 113.658445 137.654446 
L 113.315133 138.797428 
L 112.983659 139.940411 
L 112.661902 141.083393 
L 112.348118 142.226376 
L 112.041067 143.369358 
L 111.740101 144.512341 
L 111.445226 145.655324 
L 111.157109 146.798306 
L 110.87705 147.941289 
L 110.606902 149.084271 
L 110.348958 150.227254 
L 110.105801 151.370236 
L 109.880137 152.513219 
L 109.674602 153.656201 
L 109.491582 154.799184 
L 109.333028 155.942167 
L 109.200295 157.085149 
L 109.094013 158.228132 
L 109.013986 159.371114 
L 108.959147 160.514097 
L 108.927557 161.657079 
L 108.916466 162.800062 
L 108.922423 163.943044 
L 108.941442 165.086027 
L 108.969211 166.229009 
L 109.001334 167.371992 
L 109.033585 168.514975 
L 109.06216 169.657957 
L 109.083897 170.80094 
L 109.096461 171.943922 
L 109.098448 173.086905 
L 109.089428 174.229887 
L 109.0699 175.37287 
L 109.041168 176.515852 
L 109.00516 177.658835 
L 108.964191 178.801818 
L 108.920714 179.9448 
L 108.877065 181.087783 
L 108.835246 182.230765 
L 108.796756 183.373748 
L 108.762481 184.51673 
L 108.732667 185.659713 
L 108.706957 186.802695 
L 108.684489 187.945678 
L 108.664047 189.08866 
L 108.644229 190.231643 
L 108.623625 191.374626 
L 108.600984 192.517608 
L 108.600984 192.517608 
z
" clip-path="url(#p32abe37907)" style="fill: none; stroke: #000000; stroke-opacity: 0.3"/>
   </g>
   <g id="FillBetweenPolyCollection_10">
    <path d="M 108.921773 179.664816 
L 107.078227 179.664816 
L 107.05209 178.507891 
L 107.037711 177.350966 
L 107.035145 176.19404 
L 107.043776 175.037115 
L 107.062295 173.88019 
L 107.088717 172.723264 
L 107.120429 171.566339 
L 107.15427 170.409414 
L 107.186632 169.252488 
L 107.213577 168.095563 
L 107.230964 166.938638 
L 107.234576 165.781713 
L 107.220251 164.624787 
L 107.184006 163.467862 
L 107.122156 162.310937 
L 107.031422 161.154011 
L 106.909043 159.997086 
L 106.752865 158.840161 
L 106.561437 157.683235 
L 106.334077 156.52631 
L 106.070939 155.369385 
L 105.773043 154.212459 
L 105.44229 153.055534 
L 105.081439 151.898609 
L 104.694061 150.741683 
L 104.284447 149.584758 
L 103.857485 148.427833 
L 103.418519 147.270907 
L 102.973158 146.113982 
L 102.527092 144.957057 
L 102.08587 143.800131 
L 101.654691 142.643206 
L 101.238182 141.486281 
L 100.840199 140.329356 
L 100.463629 139.17243 
L 100.110229 138.015505 
L 99.780499 136.85858 
L 99.473594 135.701654 
L 99.187303 134.544729 
L 98.918088 133.387804 
L 98.661206 132.230878 
L 98.410919 131.073953 
L 98.160787 129.917028 
L 97.90404 128.760102 
L 97.634027 127.603177 
L 97.344698 126.446252 
L 97.031102 125.289326 
L 96.689859 124.132401 
L 96.319546 122.975476 
L 95.920984 121.81855 
L 95.497342 120.661625 
L 95.054076 119.5047 
L 94.598653 118.347774 
L 94.14009 117.190849 
L 93.68832 116.033924 
L 93.253454 114.876998 
L 92.844985 113.720073 
L 92.471035 112.563148 
L 92.137705 111.406223 
L 91.848624 110.249297 
L 91.604733 109.092372 
L 91.404355 107.935447 
L 91.243534 106.778521 
L 91.116627 105.621596 
L 91.017082 104.464671 
L 90.938312 103.307745 
L 90.874573 102.15082 
L 90.821748 100.993895 
L 90.777941 99.836969 
L 90.743812 98.680044 
L 90.722626 97.523119 
L 90.72 96.366193 
L 90.743382 95.209268 
L 90.801328 94.052343 
L 90.902656 92.895417 
L 91.055569 91.738492 
L 91.266853 90.581567 
L 91.541217 89.424641 
L 91.880853 88.267716 
L 92.285241 87.110791 
L 92.751211 85.953866 
L 93.273228 84.79694 
L 93.843864 83.640015 
L 94.454385 82.48309 
L 95.095389 81.326164 
L 95.757422 80.169239 
L 96.431511 79.012314 
L 97.109589 77.855388 
L 97.78476 76.698463 
L 98.45143 75.541538 
L 99.10529 74.384612 
L 99.7432 73.227687 
L 100.362984 72.070762 
L 100.963195 70.913836 
L 101.542862 69.756911 
L 102.101263 68.599986 
L 102.637736 67.44306 
L 103.151553 66.286135 
L 103.64184 65.12921 
L 112.35816 65.12921 
L 112.35816 65.12921 
L 112.848447 66.286135 
L 113.362264 67.44306 
L 113.898737 68.599986 
L 114.457138 69.756911 
L 115.036805 70.913836 
L 115.637016 72.070762 
L 116.2568 73.227687 
L 116.89471 74.384612 
L 117.54857 75.541538 
L 118.21524 76.698463 
L 118.890411 77.855388 
L 119.568489 79.012314 
L 120.242578 80.169239 
L 120.904611 81.326164 
L 121.545615 82.48309 
L 122.156136 83.640015 
L 122.726772 84.79694 
L 123.248789 85.953866 
L 123.714759 87.110791 
L 124.119147 88.267716 
L 124.458783 89.424641 
L 124.733147 90.581567 
L 124.944431 91.738492 
L 125.097344 92.895417 
L 125.198672 94.052343 
L 125.256618 95.209268 
L 125.28 96.366193 
L 125.277374 97.523119 
L 125.256188 98.680044 
L 125.222059 99.836969 
L 125.178252 100.993895 
L 125.125427 102.15082 
L 125.061688 103.307745 
L 124.982918 104.464671 
L 124.883373 105.621596 
L 124.756466 106.778521 
L 124.595645 107.935447 
L 124.395267 109.092372 
L 124.151376 110.249297 
L 123.862295 111.406223 
L 123.528965 112.563148 
L 123.155015 113.720073 
L 122.746546 114.876998 
L 122.31168 116.033924 
L 121.85991 117.190849 
L 121.401347 118.347774 
L 120.945924 119.5047 
L 120.502658 120.661625 
L 120.079016 121.81855 
L 119.680454 122.975476 
L 119.310141 124.132401 
L 118.968898 125.289326 
L 118.655302 126.446252 
L 118.365973 127.603177 
L 118.09596 128.760102 
L 117.839213 129.917028 
L 117.589081 131.073953 
L 117.338794 132.230878 
L 117.081912 133.387804 
L 116.812697 134.544729 
L 116.526406 135.701654 
L 116.219501 136.85858 
L 115.889771 138.015505 
L 115.536371 139.17243 
L 115.159801 140.329356 
L 114.761818 141.486281 
L 114.345309 142.643206 
L 113.91413 143.800131 
L 113.472908 144.957057 
L 113.026842 146.113982 
L 112.581481 147.270907 
L 112.142515 148.427833 
L 111.715553 149.584758 
L 111.305939 150.741683 
L 110.918561 151.898609 
L 110.55771 153.055534 
L 110.226957 154.212459 
L 109.929061 155.369385 
L 109.665923 156.52631 
L 109.438563 157.683235 
L 109.247135 158.840161 
L 109.090957 159.997086 
L 108.968578 161.154011 
L 108.877844 162.310937 
L 108.815994 163.467862 
L 108.779749 164.624787 
L 108.765424 165.781713 
L 108.769036 166.938638 
L 108.786423 168.095563 
L 108.813368 169.252488 
L 108.84573 170.409414 
L 108.879571 171.566339 
L 108.911283 172.723264 
L 108.937705 173.88019 
L 108.956224 175.037115 
L 108.964855 176.19404 
L 108.962289 177.350966 
L 108.94791 178.507891 
L 108.921773 179.664816 
L 108.921773 179.664816 
z
" clip-path="url(#p32abe37907)" style="fill: none; stroke: #000000; stroke-opacity: 0.3"/>
   </g>
   <g id="matplotlib.axis_1"/>
   <g id="matplotlib.axis_2">
    <g id="ytick_1">
     <g id="line2d_1">
      <defs>
       <path id="mb729d75a5d" d="M 0 0 
L -3.5 0 
" style="stroke: #000000; stroke-width: 0.8"/>
      </defs>
      <g>
       <use xlink:href="#mb729d75a5d" x="21.6" y="291.6" style="stroke: #000000; stroke-width: 0.8"/>
      </g>
     </g>
    </g>
    <g id="ytick_2">
     <g id="line2d_2">
      <g>
       <use xlink:href="#mb729d75a5d" x="21.6" y="199.8" style="stroke: #000000; stroke-width: 0.8"/>
      </g>
     </g>
    </g>
    <g id="ytick_3">
     <g id="line2d_3">
      <g>
       <use xlink:href="#mb729d75a5d" x="21.6" y="108" style="stroke: #000000; stroke-width: 0.8"/>
      </g>
     </g>
    </g>
    <g id="ytick_4">
     <g id="line2d_4">
      <g>
       <use xlink:href="#mb729d75a5d" x="21.6" y="16.2" style="stroke: #000000; stroke-width: 0.8"/>
      </g>
     </g>
    </g>
   </g>
   <g id="line2d_5">
    <path d="M 50.4 269.568 
L 50.4 264.06 
" clip-path="url(#p32abe37907)" style="fill: none; stroke: #000000; stroke-linecap: square"/>
   </g>
   <g id="line2d_6">
    <path d="M 50.4 269.568 
L 108 269.568 
" clip-path="url(#p32abe37907)" style="fill: none; stroke: #000000; stroke-linecap: square"/>
   </g>
   <g id="line2d_7">
    <path d="M 108 269.568 
L 108 264.06 
" clip-path="url(#p32abe37907)" style="fill: none; stroke: #000000; stroke-linecap: square"/>
   </g>
   <g id="patch_3">
    <path d="M 21.6 291.6 
L 21.6 16.2 
" style="fill: none; stroke: #000000; stroke-width: 0.8; stroke-linejoin: miter; stroke-linecap: square"/>
   </g>
   <g id="patch_4">
    <path d="M 136.8 291.6 
L 136.8 16.2 
" style="fill: none; stroke: #000000; stroke-width: 0.8; stroke-linejoin: miter; stroke-linecap: square"/>
   </g>
   <g id="patch_5">
    <path d="M 21.6 291.6 
L 136.8 291.6 
" style="fill: none; stroke: #000000; stroke-width: 0.8; stroke-linejoin: miter; stroke-linecap: square"/>
   </g>
   <g id="patch_6">
    <path d="M 21.6 16.2 
L 136.8 16.2 
" style="fill: none; stroke: #000000; stroke-width: 0.8; stroke-linejoin: miter; stroke-linecap: square"/>
   </g>
   <g id="text_1">
    <text style="font-weight: 700; font-size: 12px; font-family: 'DejaVu Sans', 'Bitstream Vera Sans', 'Computer Modern Sans Serif', 'Lucida Grande', 'Verdana', 'Geneva', 'Lucid', 'Arial', 'Helvetica', 'Avant Garde', sans-serif; text-anchor: middle" x="50.4" y="289.104375" transform="rotate(-0 50.4 289.104375)">#21</text>
   </g>
   <g id="text_2">
    <text style="font-weight: 700; font-size: 12px; font-family: 'DejaVu Sans', 'Bitstream Vera Sans', 'Computer Modern Sans Serif', 'Lucida Grande', 'Verdana', 'Geneva', 'Lucid', 'Arial', 'Helvetica', 'Avant Garde', sans-serif; text-anchor: middle" x="108" y="289.104375" transform="rotate(-0 108 289.104375)">#27</text>
   </g>
   <g id="text_3">
    <text style="font-size: 12px; font-family: 'DejaVu Sans', 'Bitstream Vera Sans', 'Computer Modern Sans Serif', 'Lucida Grande', 'Verdana', 'Geneva', 'Lucid', 'Arial', 'Helvetica', 'Avant Garde', sans-serif; text-anchor: middle" x="79.2" y="268.449375" transform="rotate(-0 79.2 268.449375)">****</text>
   </g>
   <g id="line2d_8">
    <path d="M 21.6 149.228793 
L 136.8 149.228793 
" clip-path="url(#p32abe37907)" style="fill: none; stroke-dasharray: 3.7,1.6; stroke-dashoffset: 0; stroke: #808080; stroke-opacity: 0.7"/>
   </g>
   <g id="line2d_9">
    <path d="M 21.6 106.591542 
L 136.8 106.591542 
" clip-path="url(#p32abe37907)" style="fill: none; stroke-dasharray: 3.7,1.6; stroke-dashoffset: 0; stroke: #808080; stroke-opacity: 0.7"/>
   </g>
   <g id="LineCollection_1">
    <path d="M 50.4 152.312907 
L 50.4 146.144679 
" clip-path="url(#p32abe37907)" style="fill: none; stroke: #000000; stroke-width: 2"/>
   </g>
   <g id="line2d_10">
    <defs>
     <path id="m21fafe1b96" d="M 5 0 
L -5 -0 
" style="stroke: #000000; stroke-width: 2"/>
    </defs>
    <g clip-path="url(#p32abe37907)">
     <use xlink:href="#m21fafe1b96" x="50.4" y="152.312907" style="stroke: #000000; stroke-width: 2"/>
    </g>
   </g>
   <g id="line2d_11">
    <g clip-path="url(#p32abe37907)">
     <use xlink:href="#m21fafe1b96" x="50.4" y="146.144679" style="stroke: #000000; stroke-width: 2"/>
    </g>
   </g>
   <g id="LineCollection_2">
    <path d="M 108 109.599194 
L 108 103.583889 
" clip-path="url(#p32abe37907)" style="fill: none; stroke: #000000; stroke-width: 2"/>
   </g>
   <g id="line2d_12">
    <g clip-path="url(#p32abe37907)">
     <use xlink:href="#m21fafe1b96" x="108" y="109.599194" style="stroke: #000000; stroke-width: 2"/>
    </g>
   </g>
   <g id="line2d_13">
    <g clip-path="url(#p32abe37907)">
     <use xlink:href="#m21fafe1b96" x="108" y="103.583889" style="stroke: #000000; stroke-width: 2"/>
    </g>
   </g>
   <g id="line2d_14">
    <defs>
     <path id="m27ff11df49" d="M 0 4 
C 1.060812 4 2.078319 3.578535 2.828427 2.828427 
C 3.578535 2.078319 4 1.060812 4 0 
C 4 -1.060812 3.578535 -2.078319 2.828427 -2.828427 
C 2.078319 -3.578535 1.060812 -4 0 -4 
C -1.060812 -4 -2.078319 -3.578535 -2.828427 -2.828427 
C -3.578535 -2.078319 -4 -1.060812 -4 0 
C -4 1.060812 -3.578535 2.078319 -2.828427 2.828427 
C -2.078319 3.578535 -1.060812 4 0 4 
z
" style="stroke: #000000"/>
    </defs>
    <g clip-path="url(#p32abe37907)">
     <use xlink:href="#m27ff11df49" x="50.4" y="149.228793" style="stroke: #000000"/>
    </g>
   </g>
   <g id="line2d_15">
    <g clip-path="url(#p32abe37907)">
     <use xlink:href="#m27ff11df49" x="108" y="106.591542" style="stroke: #000000"/>
    </g>
   </g>
  </g>
 </g>
 <defs>
  <clipPath id="p32abe37907">
   <rect x="21.6" y="16.2" width="115.2" height="275.4"/>
  </clipPath>
 </defs>
</svg>
