<?xml version="1.0" encoding="utf-8" standalone="no"?>
<!DOCTYPE svg PUBLIC "-//W3C//DTD SVG 1.1//EN"
  "http://www.w3.org/Graphics/SVG/1.1/DTD/svg11.dtd">
<svg xmlns:xlink="http://www.w3.org/1999/xlink" width="144pt" height="324pt" viewBox="0 0 144 324" xmlns="http://www.w3.org/2000/svg" version="1.1">
 <metadata>
  <rdf:RDF xmlns:dc="http://purl.org/dc/elements/1.1/" xmlns:cc="http://creativecommons.org/ns#" xmlns:rdf="http://www.w3.org/1999/02/22-rdf-syntax-ns#">
   <cc:Work>
    <dc:type rdf:resource="http://purl.org/dc/dcmitype/StillImage"/>
    <dc:date>2025-12-08T20:11:22.263962</dc:date>
    <dc:format>image/svg+xml</dc:format>
    <dc:creator>
     <cc:Agent>
      <dc:title>Matplotlib v3.10.0, https://matplotlib.org/</dc:title>
     </cc:Agent>
    </dc:creator>
   </cc:Work>
  </rdf:RDF>
 </metadata>
 <defs>
  <style type="text/css">*{stroke-linejoin: round; stroke-linecap: butt}</style>
 </defs>
 <g id="figure_1">
  <g id="patch_1">
   <path d="M 0 324 
L 144 324 
L 144 0 
L 0 0 
z
" style="fill: #ffffff"/>
  </g>
  <g id="axes_1">
   <g id="patch_2">
    <path d="M 21.6 291.6 
L 136.8 291.6 
L 136.8 16.2 
L 21.6 16.2 
z
" style="fill: #ffffff"/>
   </g>
   <g id="FillBetweenPolyCollection_1">
    <path d="M 51.934903 183.904124 
L 41.010551 183.904124 
L 40.709155 183.108973 
L 40.421093 182.313823 
L 40.14911 181.518672 
L 39.895692 180.723521 
L 39.663015 179.928371 
L 39.452899 179.13322 
L 39.266764 178.33807 
L 39.105603 177.542919 
L 38.969952 176.747769 
L 38.859881 175.952618 
L 38.774973 175.157467 
L 38.714324 174.362317 
L 38.676541 173.567166 
L 38.659745 172.772016 
L 38.661576 171.976865 
L 38.679212 171.181714 
L 38.709381 170.386564 
L 38.748394 169.591413 
L 38.792173 168.796263 
L 38.836298 168.001112 
L 38.876063 167.205962 
L 38.906542 166.410811 
L 38.922671 165.61566 
L 38.919341 164.82051 
L 38.891505 164.025359 
L 38.834297 163.230209 
L 38.74315 162.435058 
L 38.613935 161.639907 
L 38.443081 160.844757 
L 38.227709 160.049606 
L 37.965743 159.254456 
L 37.656011 158.459305 
L 37.298332 157.664155 
L 36.893566 156.869004 
L 36.443646 156.073853 
L 35.95158 155.278703 
L 35.421412 154.483552 
L 34.858157 153.688402 
L 34.267707 152.893251 
L 33.656704 152.0981 
L 33.032389 151.30295 
L 32.402438 150.507799 
L 31.774777 149.712649 
L 31.157395 148.917498 
L 30.558157 148.122348 
L 29.984625 147.327197 
L 29.443886 146.532046 
L 28.942404 145.736896 
L 28.485894 144.941745 
L 28.079218 144.146595 
L 27.726313 143.351444 
L 27.430146 142.556293 
L 27.192698 141.761143 
L 27.014972 140.965992 
L 26.897027 140.170842 
L 26.838038 139.375691 
L 26.836364 138.580541 
L 26.889639 137.78539 
L 26.994872 136.990239 
L 27.148549 136.195089 
L 27.346746 135.399938 
L 27.585238 134.604788 
L 27.859609 133.809637 
L 28.165358 133.014486 
L 28.497999 132.219336 
L 28.853153 131.424185 
L 29.226636 130.629035 
L 29.614534 129.833884 
L 30.013264 129.038734 
L 30.419633 128.243583 
L 30.830873 127.448432 
L 31.244674 126.653282 
L 31.65919 125.858131 
L 32.073042 125.062981 
L 32.485304 124.26783 
L 32.895468 123.472679 
L 33.303405 122.677529 
L 33.709311 121.882378 
L 34.113643 121.087228 
L 34.517051 120.292077 
L 34.920301 119.496927 
L 35.324201 118.701776 
L 35.72953 117.906625 
L 36.136966 117.111475 
L 36.547027 116.316324 
L 36.960021 115.521174 
L 37.376009 114.726023 
L 37.794778 113.930872 
L 38.215831 113.135722 
L 38.638392 112.340571 
L 39.061418 111.545421 
L 39.483629 110.75027 
L 39.903546 109.95512 
L 40.319536 109.159969 
L 40.729861 108.364818 
L 41.132731 107.569668 
L 41.526356 106.774517 
L 41.909003 105.979367 
L 42.279031 105.184216 
L 50.666423 105.184216 
L 50.666423 105.184216 
L 51.036452 105.979367 
L 51.419098 106.774517 
L 51.812724 107.569668 
L 52.215593 108.364818 
L 52.625918 109.159969 
L 53.041908 109.95512 
L 53.461826 110.75027 
L 53.884037 111.545421 
L 54.307063 112.340571 
L 54.729623 113.135722 
L 55.150677 113.930872 
L 55.569446 114.726023 
L 55.985434 115.521174 
L 56.398428 116.316324 
L 56.808489 117.111475 
L 57.215924 117.906625 
L 57.621253 118.701776 
L 58.025154 119.496927 
L 58.428404 120.292077 
L 58.831811 121.087228 
L 59.236144 121.882378 
L 59.642049 122.677529 
L 60.049986 123.472679 
L 60.46015 124.26783 
L 60.872412 125.062981 
L 61.286265 125.858131 
L 61.700781 126.653282 
L 62.114581 127.448432 
L 62.525822 128.243583 
L 62.932191 129.038734 
L 63.330921 129.833884 
L 63.718818 130.629035 
L 64.092302 131.424185 
L 64.447456 132.219336 
L 64.780096 133.014486 
L 65.085845 133.809637 
L 65.360217 134.604788 
L 65.598709 135.399938 
L 65.796906 136.195089 
L 65.950583 136.990239 
L 66.055816 137.78539 
L 66.109091 138.580541 
L 66.107417 139.375691 
L 66.048427 140.170842 
L 65.930483 140.965992 
L 65.752756 141.761143 
L 65.515308 142.556293 
L 65.219142 143.351444 
L 64.866237 144.146595 
L 64.459561 144.941745 
L 64.00305 145.736896 
L 63.501568 146.532046 
L 62.960829 147.327197 
L 62.387297 148.122348 
L 61.78806 148.917498 
L 61.170678 149.712649 
L 60.543016 150.507799 
L 59.913065 151.30295 
L 59.288751 152.0981 
L 58.677747 152.893251 
L 58.087298 153.688402 
L 57.524043 154.483552 
L 56.993874 155.278703 
L 56.501808 156.073853 
L 56.051889 156.869004 
L 55.647122 157.664155 
L 55.289443 158.459305 
L 54.979712 159.254456 
L 54.717745 160.049606 
L 54.502373 160.844757 
L 54.33152 161.639907 
L 54.202304 162.435058 
L 54.111158 163.230209 
L 54.053949 164.025359 
L 54.026114 164.82051 
L 54.022784 165.61566 
L 54.038912 166.410811 
L 54.069391 167.205962 
L 54.109156 168.001112 
L 54.153281 168.796263 
L 54.19706 169.591413 
L 54.236073 170.386564 
L 54.266243 171.181714 
L 54.283878 171.976865 
L 54.28571 172.772016 
L 54.268913 173.567166 
L 54.23113 174.362317 
L 54.170482 175.157467 
L 54.085574 175.952618 
L 53.975502 176.747769 
L 53.839852 177.542919 
L 53.67869 178.33807 
L 53.492555 179.13322 
L 53.282439 179.928371 
L 53.049763 180.723521 
L 52.796345 181.518672 
L 52.524362 182.313823 
L 52.2363 183.108973 
L 51.934903 183.904124 
L 51.934903 183.904124 
z
" clip-path="url(#pfa3fadb71f)" style="fill: none; stroke: #000000; stroke-opacity: 0.3"/>
   </g>
   <g id="FillBetweenPolyCollection_2">
    <path d="M 47.011719 209.527573 
L 45.933736 209.527573 
L 45.911286 208.463402 
L 45.888292 207.399231 
L 45.861785 206.335059 
L 45.828156 205.270888 
L 45.78333 204.206717 
L 45.723005 203.142545 
L 45.642942 202.078374 
L 45.539265 201.014202 
L 45.40877 199.950031 
L 45.249202 198.88586 
L 45.059476 197.821688 
L 44.839827 196.757517 
L 44.591851 195.693346 
L 44.318447 194.629174 
L 44.023626 193.565003 
L 43.712234 192.500832 
L 43.389559 191.43666 
L 43.060905 190.372489 
L 42.731121 189.308318 
L 42.404167 188.244146 
L 42.082741 187.179975 
L 41.768003 186.115803 
L 41.459438 185.051632 
L 41.154855 183.987461 
L 40.850527 182.923289 
L 40.541464 181.859118 
L 40.221777 180.794947 
L 39.885121 179.730775 
L 39.525175 178.666604 
L 39.136124 177.602433 
L 38.713131 176.538261 
L 38.252764 175.47409 
L 37.753358 174.409918 
L 37.215298 173.345747 
L 36.641185 172.281576 
L 36.035867 171.217404 
L 35.406317 170.153233 
L 34.761329 169.089062 
L 34.111042 168.02489 
L 33.466317 166.960719 
L 32.837998 165.896548 
L 32.236136 164.832376 
L 31.669254 163.768205 
L 31.143743 162.704034 
L 30.663467 161.639862 
L 30.229629 160.575691 
L 29.84092 159.511519 
L 29.493925 158.447348 
L 29.183744 157.383177 
L 28.904708 156.319005 
L 28.651119 155.254834 
L 28.417894 154.190663 
L 28.201047 153.126491 
L 27.997944 152.06232 
L 27.807348 150.998149 
L 27.629268 149.933977 
L 27.464676 148.869806 
L 27.315166 147.805634 
L 27.182623 146.741463 
L 27.068966 145.677292 
L 26.975985 144.61312 
L 26.905285 143.548949 
L 26.8583 142.484778 
L 26.836364 141.420606 
L 26.840761 140.356435 
L 26.872766 139.292264 
L 26.933614 138.228092 
L 27.024447 137.163921 
L 27.146228 136.09975 
L 27.299686 135.035578 
L 27.48531 133.971407 
L 27.703424 132.907235 
L 27.954353 131.843064 
L 28.23865 130.778893 
L 28.557337 129.714721 
L 28.912112 128.65055 
L 29.305436 127.586379 
L 29.740467 126.522207 
L 30.22079 125.458036 
L 30.749964 124.393865 
L 31.330927 123.329693 
L 31.965323 122.265522 
L 32.65287 121.20135 
L 33.390851 120.137179 
L 34.173835 119.073008 
L 34.993682 118.008836 
L 35.839845 116.944665 
L 36.699957 115.880494 
L 37.560619 114.816322 
L 38.408298 113.752151 
L 39.230232 112.68798 
L 40.015216 111.623808 
L 40.754201 110.559637 
L 41.44065 109.495466 
L 42.070621 108.431294 
L 42.642622 107.367123 
L 43.157272 106.302951 
L 43.616841 105.23878 
L 44.024743 104.174609 
L 48.920712 104.174609 
L 48.920712 104.174609 
L 49.328614 105.23878 
L 49.788182 106.302951 
L 50.302832 107.367123 
L 50.874834 108.431294 
L 51.504804 109.495466 
L 52.191253 110.559637 
L 52.930239 111.623808 
L 53.715222 112.68798 
L 54.537156 113.752151 
L 55.384835 114.816322 
L 56.245497 115.880494 
L 57.105609 116.944665 
L 57.951773 118.008836 
L 58.771619 119.073008 
L 59.554604 120.137179 
L 60.292584 121.20135 
L 60.980131 122.265522 
L 61.614528 123.329693 
L 62.195491 124.393865 
L 62.724665 125.458036 
L 63.204987 126.522207 
L 63.640018 127.586379 
L 64.033343 128.65055 
L 64.388117 129.714721 
L 64.706804 130.778893 
L 64.991101 131.843064 
L 65.242031 132.907235 
L 65.460145 133.971407 
L 65.645768 135.035578 
L 65.799227 136.09975 
L 65.921008 137.163921 
L 66.01184 138.228092 
L 66.072689 139.292264 
L 66.104693 140.356435 
L 66.109091 141.420606 
L 66.087154 142.484778 
L 66.04017 143.548949 
L 65.969469 144.61312 
L 65.876489 145.677292 
L 65.762832 146.741463 
L 65.630289 147.805634 
L 65.480779 148.869806 
L 65.316187 149.933977 
L 65.138107 150.998149 
L 64.947511 152.06232 
L 64.744407 153.126491 
L 64.52756 154.190663 
L 64.294336 155.254834 
L 64.040747 156.319005 
L 63.76171 157.383177 
L 63.451529 158.447348 
L 63.104535 159.511519 
L 62.715825 160.575691 
L 62.281987 161.639862 
L 61.801712 162.704034 
L 61.276201 163.768205 
L 60.709318 164.832376 
L 60.107456 165.896548 
L 59.479137 166.960719 
L 58.834413 168.02489 
L 58.184126 169.089062 
L 57.539137 170.153233 
L 56.909587 171.217404 
L 56.30427 172.281576 
L 55.730157 173.345747 
L 55.192097 174.409918 
L 54.692691 175.47409 
L 54.232323 176.538261 
L 53.80933 177.602433 
L 53.420279 178.666604 
L 53.060333 179.730775 
L 52.723678 180.794947 
L 52.403991 181.859118 
L 52.094927 182.923289 
L 51.7906 183.987461 
L 51.486017 185.051632 
L 51.177452 186.115803 
L 50.862714 187.179975 
L 50.541287 188.244146 
L 50.214334 189.308318 
L 49.88455 190.372489 
L 49.555895 191.43666 
L 49.233221 192.500832 
L 48.921828 193.565003 
L 48.627008 194.629174 
L 48.353603 195.693346 
L 48.105628 196.757517 
L 47.885979 197.821688 
L 47.696253 198.88586 
L 47.536684 199.950031 
L 47.406189 201.014202 
L 47.302512 202.078374 
L 47.222449 203.142545 
L 47.162125 204.206717 
L 47.117298 205.270888 
L 47.083669 206.335059 
L 47.057163 207.399231 
L 47.034168 208.463402 
L 47.011719 209.527573 
L 47.011719 209.527573 
z
" clip-path="url(#pfa3fadb71f)" style="fill: none; stroke: #000000; stroke-opacity: 0.3"/>
   </g>
   <g id="FillBetweenPolyCollection_3">
    <path d="M 47.037487 209.563201 
L 45.907968 209.563201 
L 45.875702 208.53046 
L 45.841537 207.497718 
L 45.803014 206.464977 
L 45.757321 205.432236 
L 45.7015 204.399494 
L 45.632676 203.366753 
L 45.548297 202.334011 
L 45.446346 201.30127 
L 45.325506 200.268528 
L 45.18526 199.235787 
L 45.025902 198.203045 
L 44.848468 197.170304 
L 44.654587 196.137562 
L 44.446262 195.104821 
L 44.225623 194.072079 
L 43.994648 193.039338 
L 43.754913 192.006597 
L 43.507376 190.973855 
L 43.252216 189.941114 
L 42.988761 188.908372 
L 42.715487 187.875631 
L 42.430108 186.842889 
L 42.129742 185.810148 
L 41.811147 184.777406 
L 41.471 183.744665 
L 41.106217 182.711923 
L 40.714272 181.679182 
L 40.293507 180.64644 
L 39.843396 179.613699 
L 39.364743 178.580958 
L 38.859788 177.548216 
L 38.332203 176.515475 
L 37.78697 175.482733 
L 37.230132 174.449992 
L 36.668436 173.41725 
L 36.108882 172.384509 
L 35.558219 171.351767 
L 35.022431 170.319026 
L 34.506269 169.286284 
L 34.012864 168.253543 
L 33.543498 167.220801 
L 33.097542 166.18806 
L 32.672588 165.155319 
L 32.264783 164.122577 
L 31.869325 163.089836 
L 31.48108 162.057094 
L 31.095252 161.024353 
L 30.708043 159.991611 
L 30.317211 158.95887 
L 29.922468 157.926128 
L 29.525685 156.893387 
L 29.130855 155.860645 
L 28.743845 154.827904 
L 28.371961 153.795162 
L 28.023379 152.762421 
L 27.706511 151.72968 
L 27.429388 150.696938 
L 27.199106 149.664197 
L 27.021403 148.631455 
L 26.900395 147.598714 
L 26.838474 146.565972 
L 26.836364 145.533231 
L 26.8933 144.500489 
L 27.007311 143.467748 
L 27.17553 142.435006 
L 27.394529 141.402265 
L 27.660612 140.369523 
L 27.970054 139.336782 
L 28.319275 138.304041 
L 28.704929 137.271299 
L 29.123928 136.238558 
L 29.573398 135.205816 
L 30.050605 134.173075 
L 30.55285 133.140333 
L 31.077376 132.107592 
L 31.621289 131.07485 
L 32.181528 130.042109 
L 32.754878 129.009367 
L 33.338039 127.976626 
L 33.927741 126.943884 
L 34.520885 125.911143 
L 35.114689 124.878402 
L 35.706814 123.84566 
L 36.295448 122.812919 
L 36.879311 121.780177 
L 37.457603 120.747436 
L 38.029858 119.714694 
L 38.595766 118.681953 
L 39.154946 117.649211 
L 39.706741 116.61647 
L 40.25004 115.583728 
L 40.783177 114.550987 
L 41.30391 113.518245 
L 41.809486 112.485504 
L 42.296792 111.452763 
L 42.762553 110.420021 
L 43.203566 109.38728 
L 43.616927 108.354538 
L 44.000232 107.321797 
L 48.945223 107.321797 
L 48.945223 107.321797 
L 49.328527 108.354538 
L 49.741889 109.38728 
L 50.182902 110.420021 
L 50.648663 111.452763 
L 51.135968 112.485504 
L 51.641545 113.518245 
L 52.162277 114.550987 
L 52.695415 115.583728 
L 53.238714 116.61647 
L 53.790508 117.649211 
L 54.349688 118.681953 
L 54.915596 119.714694 
L 55.487852 120.747436 
L 56.066143 121.780177 
L 56.650007 122.812919 
L 57.23864 123.84566 
L 57.830766 124.878402 
L 58.424569 125.911143 
L 59.017713 126.943884 
L 59.607416 127.976626 
L 60.190577 129.009367 
L 60.763927 130.042109 
L 61.324165 131.07485 
L 61.868078 132.107592 
L 62.392604 133.140333 
L 62.89485 134.173075 
L 63.372056 135.205816 
L 63.821527 136.238558 
L 64.240525 137.271299 
L 64.62618 138.304041 
L 64.975401 139.336782 
L 65.284843 140.369523 
L 65.550925 141.402265 
L 65.769924 142.435006 
L 65.938144 143.467748 
L 66.052154 144.500489 
L 66.109091 145.533231 
L 66.10698 146.565972 
L 66.045059 147.598714 
L 65.924052 148.631455 
L 65.746349 149.664197 
L 65.516066 150.696938 
L 65.238943 151.72968 
L 64.922076 152.762421 
L 64.573493 153.795162 
L 64.201609 154.827904 
L 63.814599 155.860645 
L 63.419769 156.893387 
L 63.022986 157.926128 
L 62.628244 158.95887 
L 62.237411 159.991611 
L 61.850203 161.024353 
L 61.464375 162.057094 
L 61.076129 163.089836 
L 60.680672 164.122577 
L 60.272867 165.155319 
L 59.847913 166.18806 
L 59.401956 167.220801 
L 58.932591 168.253543 
L 58.439186 169.286284 
L 57.923023 170.319026 
L 57.387236 171.351767 
L 56.836573 172.384509 
L 56.277019 173.41725 
L 55.715323 174.449992 
L 55.158485 175.482733 
L 54.613252 176.515475 
L 54.085667 177.548216 
L 53.580711 178.580958 
L 53.102059 179.613699 
L 52.651948 180.64644 
L 52.231183 181.679182 
L 51.839238 182.711923 
L 51.474454 183.744665 
L 51.134307 184.777406 
L 50.815712 185.810148 
L 50.515347 186.842889 
L 50.229968 187.875631 
L 49.956694 188.908372 
L 49.693239 189.941114 
L 49.438079 190.973855 
L 49.190541 192.006597 
L 48.950807 193.039338 
L 48.719831 194.072079 
L 48.499192 195.104821 
L 48.290868 196.137562 
L 48.096987 197.170304 
L 47.919553 198.203045 
L 47.760195 199.235787 
L 47.619949 200.268528 
L 47.499109 201.30127 
L 47.397157 202.334011 
L 47.312778 203.366753 
L 47.243955 204.399494 
L 47.188134 205.432236 
L 47.142441 206.464977 
L 47.103917 207.497718 
L 47.069753 208.53046 
L 47.037487 209.563201 
L 47.037487 209.563201 
z
" clip-path="url(#pfa3fadb71f)" style="fill: none; stroke: #000000; stroke-opacity: 0.3"/>
   </g>
   <g id="FillBetweenPolyCollection_4">
    <path d="M 47.860181 201.033239 
L 45.085273 201.033239 
L 44.940978 199.999545 
L 44.792265 198.965852 
L 44.639332 197.932159 
L 44.482171 196.898465 
L 44.320558 195.864772 
L 44.154069 194.831078 
L 43.98209 193.797385 
L 43.803842 192.763692 
L 43.618401 191.729998 
L 43.424713 190.696305 
L 43.221613 189.662612 
L 43.007834 188.628918 
L 42.782009 187.595225 
L 42.54268 186.561531 
L 42.288287 185.527838 
L 42.017177 184.494145 
L 41.727593 183.460451 
L 41.417687 182.426758 
L 41.085532 181.393065 
L 40.729157 180.359371 
L 40.346594 179.325678 
L 39.935964 178.291984 
L 39.495584 177.258291 
L 39.024098 176.224598 
L 38.520636 175.190904 
L 37.98498 174.157211 
L 37.417716 173.123518 
L 36.820371 172.089824 
L 36.195503 171.056131 
L 35.546736 170.022437 
L 34.878732 168.988744 
L 34.197093 167.955051 
L 33.50821 166.921357 
L 32.819072 165.887664 
L 32.137043 164.853971 
L 31.469644 163.820277 
L 30.824346 162.786584 
L 30.208393 161.75289 
L 29.628652 160.719197 
L 29.091496 159.685504 
L 28.602697 158.65181 
L 28.167329 157.618117 
L 27.789655 156.584424 
L 27.472997 155.55073 
L 27.219586 154.517037 
L 27.030401 153.483343 
L 26.905016 152.44965 
L 26.841498 151.415957 
L 26.836364 150.382263 
L 26.88465 149.34857 
L 26.980116 148.314877 
L 27.115575 147.281183 
L 27.283366 146.24749 
L 27.475922 145.213796 
L 27.686387 144.180103 
L 27.909229 143.14641 
L 28.140763 142.112716 
L 28.379534 141.079023 
L 28.626484 140.04533 
L 28.884889 139.011636 
L 29.160042 137.977943 
L 29.458719 136.944249 
L 29.788464 135.910556 
L 30.156786 134.876863 
L 30.570324 133.843169 
L 31.034093 132.809476 
L 31.55087 131.775783 
L 32.120782 130.742089 
L 32.741127 129.708396 
L 33.406434 128.674702 
L 34.108743 127.641009 
L 34.838061 126.607316 
L 35.582944 125.573622 
L 36.331152 124.539929 
L 37.070304 123.506236 
L 37.788512 122.472542 
L 38.47493 121.438849 
L 39.120207 120.405155 
L 39.716835 119.371462 
L 40.259371 118.337769 
L 40.744554 117.304075 
L 41.171309 116.270382 
L 41.540664 115.236689 
L 41.855572 114.202995 
L 42.120669 113.169302 
L 42.341963 112.135608 
L 42.526488 111.101915 
L 42.681917 110.068222 
L 42.816174 109.034528 
L 42.937037 108.000835 
L 43.05178 106.967142 
L 43.166846 105.933448 
L 43.287581 104.899755 
L 43.418045 103.866061 
L 43.560897 102.832368 
L 43.717374 101.798675 
L 43.887346 100.764981 
L 44.069457 99.731288 
L 44.261325 98.697595 
L 48.68413 98.697595 
L 48.68413 98.697595 
L 48.875998 99.731288 
L 49.058108 100.764981 
L 49.22808 101.798675 
L 49.384557 102.832368 
L 49.52741 103.866061 
L 49.657874 104.899755 
L 49.778609 105.933448 
L 49.893674 106.967142 
L 50.008417 108.000835 
L 50.129281 109.034528 
L 50.263537 110.068222 
L 50.418967 111.101915 
L 50.603491 112.135608 
L 50.824786 113.169302 
L 51.089882 114.202995 
L 51.404791 115.236689 
L 51.774146 116.270382 
L 52.200901 117.304075 
L 52.686083 118.337769 
L 53.228619 119.371462 
L 53.825247 120.405155 
L 54.470525 121.438849 
L 55.156942 122.472542 
L 55.87515 123.506236 
L 56.614303 124.539929 
L 57.36251 125.573622 
L 58.107394 126.607316 
L 58.836712 127.641009 
L 59.539021 128.674702 
L 60.204328 129.708396 
L 60.824673 130.742089 
L 61.394585 131.775783 
L 61.911362 132.809476 
L 62.375131 133.843169 
L 62.788669 134.876863 
L 63.15699 135.910556 
L 63.486736 136.944249 
L 63.785412 137.977943 
L 64.060565 139.011636 
L 64.31897 140.04533 
L 64.565921 141.079023 
L 64.804692 142.112716 
L 65.036226 143.14641 
L 65.259067 144.180103 
L 65.469532 145.213796 
L 65.662088 146.24749 
L 65.82988 147.281183 
L 65.965339 148.314877 
L 66.060804 149.34857 
L 66.109091 150.382263 
L 66.103956 151.415957 
L 66.040438 152.44965 
L 65.915054 153.483343 
L 65.725868 154.517037 
L 65.472457 155.55073 
L 65.155799 156.584424 
L 64.778125 157.618117 
L 64.342757 158.65181 
L 63.853959 159.685504 
L 63.316802 160.719197 
L 62.737062 161.75289 
L 62.121109 162.786584 
L 61.475811 163.820277 
L 60.808412 164.853971 
L 60.126382 165.887664 
L 59.437244 166.921357 
L 58.748362 167.955051 
L 58.066722 168.988744 
L 57.398718 170.022437 
L 56.749952 171.056131 
L 56.125084 172.089824 
L 55.527738 173.123518 
L 54.960474 174.157211 
L 54.424818 175.190904 
L 53.921357 176.224598 
L 53.449871 177.258291 
L 53.00949 178.291984 
L 52.598861 179.325678 
L 52.216298 180.359371 
L 51.859922 181.393065 
L 51.527768 182.426758 
L 51.217862 183.460451 
L 50.928278 184.494145 
L 50.657167 185.527838 
L 50.402775 186.561531 
L 50.163445 187.595225 
L 49.937621 188.628918 
L 49.723842 189.662612 
L 49.520742 190.696305 
L 49.327054 191.729998 
L 49.141612 192.763692 
L 48.963365 193.797385 
L 48.791386 194.831078 
L 48.624896 195.864772 
L 48.463283 196.898465 
L 48.306122 197.932159 
L 48.15319 198.965852 
L 48.004476 199.999545 
L 47.860181 201.033239 
L 47.860181 201.033239 
z
" clip-path="url(#pfa3fadb71f)" style="fill: none; stroke: #000000; stroke-opacity: 0.3"/>
   </g>
   <g id="FillBetweenPolyCollection_5">
    <path d="M 113.145642 199.998568 
L 110.708903 199.998568 
L 110.621639 199.220729 
L 110.533122 198.442889 
L 110.441937 197.66505 
L 110.346398 196.887211 
L 110.244672 196.109372 
L 110.134916 195.331533 
L 110.015399 194.553694 
L 109.884599 193.775855 
L 109.741262 192.998016 
L 109.584408 192.220177 
L 109.413289 191.442337 
L 109.227303 190.664498 
L 109.025876 189.886659 
L 108.808336 189.10882 
L 108.573788 188.330981 
L 108.32103 187.553142 
L 108.048513 186.775303 
L 107.754362 185.997464 
L 107.436479 185.219624 
L 107.0927 184.441785 
L 106.721027 183.663946 
L 106.319885 182.886107 
L 105.888413 182.108268 
L 105.426726 181.330429 
L 104.936154 180.55259 
L 104.419404 179.774751 
L 103.880639 178.996912 
L 103.325451 178.219072 
L 102.76073 177.441233 
L 102.194415 176.663394 
L 101.635159 175.885555 
L 101.091911 175.107716 
L 100.573446 174.329877 
L 100.087878 173.552038 
L 99.64218 172.774199 
L 99.241751 171.996359 
L 98.890058 171.21852 
L 98.588376 170.440681 
L 98.335654 169.662842 
L 98.128512 168.885003 
L 97.961383 168.107164 
L 97.826777 167.329325 
L 97.715677 166.551486 
L 97.618019 165.773647 
L 97.523252 164.995807 
L 97.420919 164.217968 
L 97.301247 163.440129 
L 97.155694 162.66229 
L 96.977432 161.884451 
L 96.76173 161.106612 
L 96.506235 160.328773 
L 96.211116 159.550934 
L 95.879092 158.773094 
L 95.515322 157.995255 
L 95.12719 157.217416 
L 94.723977 156.439577 
L 94.316459 155.661738 
L 93.91643 154.883899 
L 93.536185 154.10606 
L 93.187988 153.328221 
L 92.883541 152.550382 
L 92.633475 151.772542 
L 92.446906 150.994703 
L 92.331045 150.216864 
L 92.290909 149.439025 
L 92.329132 148.661186 
L 92.445886 147.883347 
L 92.638924 147.105508 
L 92.903745 146.327669 
L 93.233867 145.54983 
L 93.621207 144.77199 
L 94.056543 143.994151 
L 94.530044 143.216312 
L 95.031819 142.438473 
L 95.552481 141.660634 
L 96.083654 140.882795 
L 96.618411 140.104956 
L 97.151605 139.327117 
L 97.680045 138.549277 
L 98.202527 137.771438 
L 98.719695 136.993599 
L 99.233745 136.21576 
L 99.748013 135.437921 
L 100.266455 134.660082 
L 100.793102 133.882243 
L 101.331517 133.104404 
L 101.88431 132.326565 
L 102.452767 131.548725 
L 103.036617 130.770886 
L 103.633942 129.993047 
L 104.241261 129.215208 
L 104.853736 128.437369 
L 105.465498 127.65953 
L 106.070039 126.881691 
L 106.660639 126.103852 
L 107.230776 125.326012 
L 107.77449 124.548173 
L 108.286682 123.770334 
L 108.763312 122.992495 
L 115.091233 122.992495 
L 115.091233 122.992495 
L 115.567864 123.770334 
L 116.080056 124.548173 
L 116.62377 125.326012 
L 117.193906 126.103852 
L 117.784506 126.881691 
L 118.389048 127.65953 
L 119.00081 128.437369 
L 119.613285 129.215208 
L 120.220604 129.993047 
L 120.817929 130.770886 
L 121.401778 131.548725 
L 121.970236 132.326565 
L 122.523028 133.104404 
L 123.061443 133.882243 
L 123.588091 134.660082 
L 124.106533 135.437921 
L 124.6208 136.21576 
L 125.134851 136.993599 
L 125.652018 137.771438 
L 126.1745 138.549277 
L 126.702941 139.327117 
L 127.236134 140.104956 
L 127.770892 140.882795 
L 128.302064 141.660634 
L 128.822726 142.438473 
L 129.324502 143.216312 
L 129.798002 143.994151 
L 130.233339 144.77199 
L 130.620678 145.54983 
L 130.9508 146.327669 
L 131.215621 147.105508 
L 131.40866 147.883347 
L 131.525413 148.661186 
L 131.563636 149.439025 
L 131.523501 150.216864 
L 131.40764 150.994703 
L 131.22107 151.772542 
L 130.971005 152.550382 
L 130.666557 153.328221 
L 130.318361 154.10606 
L 129.938116 154.883899 
L 129.538086 155.661738 
L 129.130569 156.439577 
L 128.727356 157.217416 
L 128.339223 157.995255 
L 127.975453 158.773094 
L 127.643429 159.550934 
L 127.348311 160.328773 
L 127.092815 161.106612 
L 126.877114 161.884451 
L 126.698851 162.66229 
L 126.553299 163.440129 
L 126.433627 164.217968 
L 126.331294 164.995807 
L 126.236526 165.773647 
L 126.138869 166.551486 
L 126.027768 167.329325 
L 125.893162 168.107164 
L 125.726033 168.885003 
L 125.518892 169.662842 
L 125.266169 170.440681 
L 124.964487 171.21852 
L 124.612794 171.996359 
L 124.212366 172.774199 
L 123.766668 173.552038 
L 123.2811 174.329877 
L 122.762634 175.107716 
L 122.219386 175.885555 
L 121.66013 176.663394 
L 121.093815 177.441233 
L 120.529094 178.219072 
L 119.973907 178.996912 
L 119.435141 179.774751 
L 118.918391 180.55259 
L 118.427819 181.330429 
L 117.966133 182.108268 
L 117.53466 182.886107 
L 117.133519 183.663946 
L 116.761845 184.441785 
L 116.418067 185.219624 
L 116.100183 185.997464 
L 115.806033 186.775303 
L 115.533515 187.553142 
L 115.280758 188.330981 
L 115.04621 189.10882 
L 114.828669 189.886659 
L 114.627243 190.664498 
L 114.441256 191.442337 
L 114.270137 192.220177 
L 114.113284 192.998016 
L 113.969947 193.775855 
L 113.839147 194.553694 
L 113.719629 195.331533 
L 113.609873 196.109372 
L 113.508148 196.887211 
L 113.412609 197.66505 
L 113.321423 198.442889 
L 113.232906 199.220729 
L 113.145642 199.998568 
L 113.145642 199.998568 
z
" clip-path="url(#pfa3fadb71f)" style="fill: none; stroke: #000000; stroke-opacity: 0.3"/>
   </g>
   <g id="FillBetweenPolyCollection_6">
    <path d="M 112.426543 217.699998 
L 111.428003 217.699998 
L 111.414914 216.483798 
L 111.40612 215.267599 
L 111.398871 214.0514 
L 111.389779 212.835201 
L 111.375189 211.619002 
L 111.351612 210.402802 
L 111.316178 209.186603 
L 111.267031 207.970404 
L 111.203629 206.754205 
L 111.126886 205.538006 
L 111.039139 204.321806 
L 110.943928 203.105607 
L 110.845603 201.889408 
L 110.748784 200.673209 
L 110.657738 199.457009 
L 110.575747 198.24081 
L 110.50452 197.024611 
L 110.443756 195.808412 
L 110.390893 194.592213 
L 110.341108 193.376013 
L 110.287561 192.159814 
L 110.221865 190.943615 
L 110.134746 189.727416 
L 110.016783 188.511217 
L 109.859173 187.295017 
L 109.654412 186.078818 
L 109.396828 184.862619 
L 109.082906 183.64642 
L 108.711389 182.430221 
L 108.283143 181.214021 
L 107.800808 179.997822 
L 107.268276 178.781623 
L 106.690047 177.565424 
L 106.070545 176.349225 
L 105.413456 175.133025 
L 104.721225 173.916826 
L 103.994785 172.700627 
L 103.233637 171.484428 
L 102.43634 170.268229 
L 101.601414 169.052029 
L 100.728603 167.83583 
L 99.820325 166.619631 
L 98.883083 165.403432 
L 97.928554 164.187233 
L 96.974064 162.971033 
L 96.042239 161.754834 
L 95.15973 160.538635 
L 94.3551 159.322436 
L 93.656102 158.106237 
L 93.086762 156.890037 
L 92.664735 155.673838 
L 92.39938 154.457639 
L 92.290909 153.24144 
L 92.330734 152.025241 
L 92.502948 150.809041 
L 92.786633 149.592842 
L 93.158565 148.376643 
L 93.595837 147.160444 
L 94.077969 145.944245 
L 94.588248 144.728045 
L 95.114205 143.511846 
L 95.647347 142.295647 
L 96.182382 141.079448 
L 96.716256 139.863248 
L 97.247289 138.647049 
L 97.774599 137.43085 
L 98.297894 136.214651 
L 98.817562 134.998452 
L 99.334922 133.782252 
L 99.85244 132.566053 
L 100.373743 131.349854 
L 100.903328 130.133655 
L 101.445972 128.917456 
L 102.005924 127.701256 
L 102.58602 126.485057 
L 103.186927 125.268858 
L 103.806647 124.052659 
L 104.440398 122.83646 
L 105.080892 121.62026 
L 105.718966 120.404061 
L 106.344436 119.187862 
L 106.947053 117.971663 
L 107.517398 116.755464 
L 108.047603 115.539264 
L 108.531839 114.323065 
L 108.966528 113.106866 
L 109.350328 111.890667 
L 109.683911 110.674468 
L 109.969644 109.458268 
L 110.211198 108.242069 
L 110.413163 107.02587 
L 110.580701 105.809671 
L 110.719236 104.593472 
L 110.834205 103.377272 
L 110.930832 102.161073 
L 111.013944 100.944874 
L 111.087803 99.728675 
L 111.155958 98.512476 
L 111.221146 97.296276 
L 112.633399 97.296276 
L 112.633399 97.296276 
L 112.698587 98.512476 
L 112.766743 99.728675 
L 112.840601 100.944874 
L 112.923714 102.161073 
L 113.020341 103.377272 
L 113.135309 104.593472 
L 113.273844 105.809671 
L 113.441382 107.02587 
L 113.643347 108.242069 
L 113.884901 109.458268 
L 114.170634 110.674468 
L 114.504218 111.890667 
L 114.888017 113.106866 
L 115.322707 114.323065 
L 115.806942 115.539264 
L 116.337148 116.755464 
L 116.907492 117.971663 
L 117.51011 119.187862 
L 118.13558 120.404061 
L 118.773653 121.62026 
L 119.414148 122.83646 
L 120.047898 124.052659 
L 120.667618 125.268858 
L 121.268526 126.485057 
L 121.848622 127.701256 
L 122.408573 128.917456 
L 122.951218 130.133655 
L 123.480803 131.349854 
L 124.002105 132.566053 
L 124.519624 133.782252 
L 125.036984 134.998452 
L 125.556651 136.214651 
L 126.079946 137.43085 
L 126.607257 138.647049 
L 127.13829 139.863248 
L 127.672164 141.079448 
L 128.207198 142.295647 
L 128.74034 143.511846 
L 129.266298 144.728045 
L 129.776577 145.944245 
L 130.258709 147.160444 
L 130.69598 148.376643 
L 131.067912 149.592842 
L 131.351597 150.809041 
L 131.523811 152.025241 
L 131.563636 153.24144 
L 131.455165 154.457639 
L 131.189811 155.673838 
L 130.767783 156.890037 
L 130.198443 158.106237 
L 129.499445 159.322436 
L 128.694815 160.538635 
L 127.812307 161.754834 
L 126.880481 162.971033 
L 125.925991 164.187233 
L 124.971462 165.403432 
L 124.03422 166.619631 
L 123.125942 167.83583 
L 122.253132 169.052029 
L 121.418206 170.268229 
L 120.620909 171.484428 
L 119.859761 172.700627 
L 119.133321 173.916826 
L 118.44109 175.133025 
L 117.784001 176.349225 
L 117.164498 177.565424 
L 116.58627 178.781623 
L 116.053737 179.997822 
L 115.571402 181.214021 
L 115.143156 182.430221 
L 114.77164 183.64642 
L 114.457717 184.862619 
L 114.200133 186.078818 
L 113.995372 187.295017 
L 113.837762 188.511217 
L 113.719799 189.727416 
L 113.63268 190.943615 
L 113.566985 192.159814 
L 113.513437 193.376013 
L 113.463653 194.592213 
L 113.41079 195.808412 
L 113.350025 197.024611 
L 113.278799 198.24081 
L 113.196807 199.457009 
L 113.105762 200.673209 
L 113.008942 201.889408 
L 112.910617 203.105607 
L 112.815407 204.321806 
L 112.72766 205.538006 
L 112.650916 206.754205 
L 112.587514 207.970404 
L 112.538368 209.186603 
L 112.502934 210.402802 
L 112.479357 211.619002 
L 112.464766 212.835201 
L 112.455675 214.0514 
L 112.448426 215.267599 
L 112.439631 216.483798 
L 112.426543 217.699998 
L 112.426543 217.699998 
z
" clip-path="url(#pfa3fadb71f)" style="fill: none; stroke: #000000; stroke-opacity: 0.3"/>
   </g>
   <g id="FillBetweenPolyCollection_7">
    <path d="M 113.265797 194.848564 
L 110.588748 194.848564 
L 110.387847 193.755878 
L 110.179118 192.663193 
L 109.961243 191.570508 
L 109.730767 190.477822 
L 109.482235 189.385137 
L 109.208759 188.292452 
L 108.903008 187.199767 
L 108.55848 186.107081 
L 108.170841 185.014396 
L 107.73903 183.921711 
L 107.265829 182.829025 
L 106.757649 181.73634 
L 106.223457 180.643655 
L 105.672955 179.550969 
L 105.114345 178.458284 
L 104.552179 177.365599 
L 103.985836 176.272913 
L 103.409067 175.180228 
L 102.810858 174.087543 
L 102.177519 172.994857 
L 101.495668 171.902172 
L 100.755529 170.809487 
L 99.953886 169.716801 
L 99.09612 168.624116 
L 98.196886 167.531431 
L 97.279284 166.438745 
L 96.372605 165.34606 
L 95.509 164.253375 
L 94.719569 163.160689 
L 94.030485 162.068004 
L 93.459746 160.975319 
L 93.015094 159.882633 
L 92.693433 158.789948 
L 92.481864 157.697263 
L 92.360182 156.604577 
L 92.30443 155.511892 
L 92.290909 154.419207 
L 92.299982 153.326521 
L 92.319018 152.233836 
L 92.344003 151.141151 
L 92.379573 150.048465 
L 92.437522 148.95578 
L 92.534102 147.863095 
L 92.686677 146.77041 
L 92.910382 145.677724 
L 93.215436 144.585039 
L 93.605603 143.492354 
L 94.078041 142.399668 
L 94.624465 141.306983 
L 95.233265 140.214298 
L 95.892017 139.121612 
L 96.589771 138.028927 
L 97.318584 136.936242 
L 98.074008 135.843556 
L 98.854503 134.750871 
L 99.660022 133.658186 
L 100.490191 132.5655 
L 101.342577 131.472815 
L 102.211464 130.38013 
L 103.087395 129.287444 
L 103.957553 128.194759 
L 104.806857 127.102074 
L 105.619509 126.009388 
L 106.380688 124.916703 
L 107.07809 123.824018 
L 107.703097 122.731332 
L 108.251446 121.638647 
L 108.723363 120.545962 
L 109.123217 119.453276 
L 109.458768 118.360591 
L 109.740129 117.267906 
L 109.978565 116.17522 
L 110.185272 115.082535 
L 110.370269 113.98985 
L 110.541533 112.897164 
L 110.704486 111.804479 
L 110.861875 110.711794 
L 111.014043 109.619108 
L 111.159503 108.526423 
L 111.295683 107.433738 
L 111.41969 106.341052 
L 111.528958 105.248367 
L 111.621679 104.155682 
L 111.69699 103.062997 
L 111.754937 101.970311 
L 111.796281 100.877626 
L 111.82225 99.784941 
L 111.834304 98.692255 
L 111.833981 97.59957 
L 111.822858 96.506885 
L 111.802606 95.414199 
L 111.775108 94.321514 
L 111.742567 93.228829 
L 111.707567 92.136143 
L 111.67301 91.043458 
L 111.641942 89.950773 
L 111.617264 88.858087 
L 111.601393 87.765402 
L 111.595944 86.672717 
L 112.258602 86.672717 
L 112.258602 86.672717 
L 112.253152 87.765402 
L 112.237282 88.858087 
L 112.212603 89.950773 
L 112.181535 91.043458 
L 112.146978 92.136143 
L 112.111978 93.228829 
L 112.079438 94.321514 
L 112.051939 95.414199 
L 112.031688 96.506885 
L 112.020564 97.59957 
L 112.020241 98.692255 
L 112.032295 99.784941 
L 112.058265 100.877626 
L 112.099609 101.970311 
L 112.157555 103.062997 
L 112.232866 104.155682 
L 112.325587 105.248367 
L 112.434855 106.341052 
L 112.558862 107.433738 
L 112.695042 108.526423 
L 112.840502 109.619108 
L 112.992671 110.711794 
L 113.150059 111.804479 
L 113.313012 112.897164 
L 113.484276 113.98985 
L 113.669273 115.082535 
L 113.87598 116.17522 
L 114.114416 117.267906 
L 114.395777 118.360591 
L 114.731328 119.453276 
L 115.131183 120.545962 
L 115.6031 121.638647 
L 116.151448 122.731332 
L 116.776456 123.824018 
L 117.473858 124.916703 
L 118.235037 126.009388 
L 119.047689 127.102074 
L 119.896993 128.194759 
L 120.767151 129.287444 
L 121.643081 130.38013 
L 122.511968 131.472815 
L 123.364355 132.5655 
L 124.194523 133.658186 
L 125.000042 134.750871 
L 125.780538 135.843556 
L 126.535962 136.936242 
L 127.264775 138.028927 
L 127.962528 139.121612 
L 128.621281 140.214298 
L 129.23008 141.306983 
L 129.776504 142.399668 
L 130.248942 143.492354 
L 130.63911 144.585039 
L 130.944164 145.677724 
L 131.167869 146.77041 
L 131.320444 147.863095 
L 131.417024 148.95578 
L 131.474972 150.048465 
L 131.510543 151.141151 
L 131.535528 152.233836 
L 131.554563 153.326521 
L 131.563636 154.419207 
L 131.550116 155.511892 
L 131.494363 156.604577 
L 131.372682 157.697263 
L 131.161112 158.789948 
L 130.839451 159.882633 
L 130.394799 160.975319 
L 129.824061 162.068004 
L 129.134976 163.160689 
L 128.345546 164.253375 
L 127.48194 165.34606 
L 126.575261 166.438745 
L 125.657659 167.531431 
L 124.758425 168.624116 
L 123.90066 169.716801 
L 123.099017 170.809487 
L 122.358877 171.902172 
L 121.677026 172.994857 
L 121.043687 174.087543 
L 120.445478 175.180228 
L 119.86871 176.272913 
L 119.302366 177.365599 
L 118.7402 178.458284 
L 118.18159 179.550969 
L 117.631088 180.643655 
L 117.096896 181.73634 
L 116.588716 182.829025 
L 116.115515 183.921711 
L 115.683705 185.014396 
L 115.296066 186.107081 
L 114.951538 187.199767 
L 114.645786 188.292452 
L 114.372311 189.385137 
L 114.123779 190.477822 
L 113.893303 191.570508 
L 113.675427 192.663193 
L 113.466698 193.755878 
L 113.265797 194.848564 
L 113.265797 194.848564 
z
" clip-path="url(#pfa3fadb71f)" style="fill: none; stroke: #000000; stroke-opacity: 0.3"/>
   </g>
   <g id="FillBetweenPolyCollection_8">
    <path d="M 113.198278 223.534339 
L 110.656267 223.534339 
L 110.600957 222.519139 
L 110.551426 221.503939 
L 110.506745 220.488738 
L 110.46539 219.473538 
L 110.425258 218.458337 
L 110.383723 217.443137 
L 110.337731 216.427936 
L 110.283924 215.412736 
L 110.218803 214.397536 
L 110.138902 213.382335 
L 110.04098 212.367135 
L 109.922204 211.351934 
L 109.780325 210.336734 
L 109.613809 209.321534 
L 109.421948 208.306333 
L 109.204902 207.291133 
L 108.963693 206.275932 
L 108.700142 205.260732 
L 108.416745 204.245531 
L 108.116508 203.230331 
L 107.802743 202.215131 
L 107.478847 201.19993 
L 107.148082 200.18473 
L 106.813367 199.169529 
L 106.477113 198.154329 
L 106.141104 197.139129 
L 105.806431 196.123928 
L 105.473496 195.108728 
L 105.142073 194.093527 
L 104.811422 193.078327 
L 104.480437 192.063127 
L 104.147822 191.047926 
L 103.812265 190.032726 
L 103.472597 189.017525 
L 103.127924 188.002325 
L 102.777713 186.987124 
L 102.421822 185.971924 
L 102.060492 184.956724 
L 101.694284 183.941523 
L 101.323979 182.926323 
L 100.950468 181.911122 
L 100.574619 180.895922 
L 100.197171 179.880722 
L 99.818637 178.865521 
L 99.439252 177.850321 
L 99.058965 176.83512 
L 98.677466 175.81992 
L 98.294268 174.804719 
L 97.908815 173.789519 
L 97.520627 172.774319 
L 97.129442 171.759118 
L 96.735375 170.743918 
L 96.339051 169.728717 
L 95.941714 168.713517 
L 95.5453 167.698317 
L 95.152468 166.683116 
L 94.766581 165.667916 
L 94.391637 164.652715 
L 94.032166 163.637515 
L 93.693081 162.622315 
L 93.379508 161.607114 
L 93.096599 160.591914 
L 92.849345 159.576713 
L 92.642396 158.561513 
L 92.479905 157.546312 
L 92.365406 156.531112 
L 92.301719 155.515912 
L 92.290909 154.500711 
L 92.334266 153.485511 
L 92.43233 152.47031 
L 92.584931 151.45511 
L 92.791249 150.43991 
L 93.049875 149.424709 
L 93.358867 148.409509 
L 93.715796 147.394308 
L 94.117778 146.379108 
L 94.561494 145.363908 
L 95.043201 144.348707 
L 95.558749 143.333507 
L 96.103603 142.318306 
L 96.672894 141.303106 
L 97.261486 140.287905 
L 97.864091 139.272705 
L 98.475399 138.257505 
L 99.090244 137.242304 
L 99.703783 136.227104 
L 100.311666 135.211903 
L 100.910194 134.196703 
L 101.49644 133.181503 
L 102.068322 132.166302 
L 102.62461 131.151102 
L 103.164879 130.135901 
L 103.689391 129.120701 
L 104.198933 128.1055 
L 104.694618 127.0903 
L 105.177668 126.0751 
L 105.649203 125.059899 
L 106.110053 124.044699 
L 106.560614 123.029498 
L 117.293932 123.029498 
L 117.293932 123.029498 
L 117.744492 124.044699 
L 118.205342 125.059899 
L 118.676877 126.0751 
L 119.159928 127.0903 
L 119.655612 128.1055 
L 120.165154 129.120701 
L 120.689666 130.135901 
L 121.229935 131.151102 
L 121.786224 132.166302 
L 122.358106 133.181503 
L 122.944352 134.196703 
L 123.542879 135.211903 
L 124.150762 136.227104 
L 124.764301 137.242304 
L 125.379147 138.257505 
L 125.990454 139.272705 
L 126.593059 140.287905 
L 127.181652 141.303106 
L 127.750942 142.318306 
L 128.295797 143.333507 
L 128.811345 144.348707 
L 129.293051 145.363908 
L 129.736767 146.379108 
L 130.138749 147.394308 
L 130.495678 148.409509 
L 130.80467 149.424709 
L 131.063297 150.43991 
L 131.269615 151.45511 
L 131.422216 152.47031 
L 131.520279 153.485511 
L 131.563636 154.500711 
L 131.552826 155.515912 
L 131.48914 156.531112 
L 131.37464 157.546312 
L 131.212149 158.561513 
L 131.0052 159.576713 
L 130.757946 160.591914 
L 130.475038 161.607114 
L 130.161465 162.622315 
L 129.82238 163.637515 
L 129.462909 164.652715 
L 129.087965 165.667916 
L 128.702077 166.683116 
L 128.309245 167.698317 
L 127.912832 168.713517 
L 127.515495 169.728717 
L 127.11917 170.743918 
L 126.725104 171.759118 
L 126.333919 172.774319 
L 125.94573 173.789519 
L 125.560278 174.804719 
L 125.177079 175.81992 
L 124.79558 176.83512 
L 124.415293 177.850321 
L 124.035909 178.865521 
L 123.657374 179.880722 
L 123.279926 180.895922 
L 122.904078 181.911122 
L 122.530566 182.926323 
L 122.160262 183.941523 
L 121.794053 184.956724 
L 121.432723 185.971924 
L 121.076833 186.987124 
L 120.726621 188.002325 
L 120.381949 189.017525 
L 120.042281 190.032726 
L 119.706723 191.047926 
L 119.374108 192.063127 
L 119.043123 193.078327 
L 118.712472 194.093527 
L 118.38105 195.108728 
L 118.048115 196.123928 
L 117.713441 197.139129 
L 117.377432 198.154329 
L 117.041179 199.169529 
L 116.706464 200.18473 
L 116.375698 201.19993 
L 116.051802 202.215131 
L 115.738037 203.230331 
L 115.437801 204.245531 
L 115.154404 205.260732 
L 114.890853 206.275932 
L 114.649644 207.291133 
L 114.432597 208.306333 
L 114.240736 209.321534 
L 114.074221 210.336734 
L 113.932341 211.351934 
L 113.813566 212.367135 
L 113.715644 213.382335 
L 113.635743 214.397536 
L 113.570621 215.412736 
L 113.516815 216.427936 
L 113.470822 217.443137 
L 113.429287 218.458337 
L 113.389155 219.473538 
L 113.3478 220.488738 
L 113.303119 221.503939 
L 113.253588 222.519139 
L 113.198278 223.534339 
L 113.198278 223.534339 
z
" clip-path="url(#pfa3fadb71f)" style="fill: none; stroke: #000000; stroke-opacity: 0.3"/>
   </g>
   <g id="FillBetweenPolyCollection_9">
    <path d="M 113.445432 218.055253 
L 110.409113 218.055253 
L 110.337134 217.096364 
L 110.262912 216.137474 
L 110.184898 215.178585 
L 110.101296 214.219696 
L 110.010104 213.260806 
L 109.909161 212.301917 
L 109.796214 211.343028 
L 109.668977 210.384138 
L 109.525207 209.425249 
L 109.362775 208.46636 
L 109.179738 207.50747 
L 108.974413 206.548581 
L 108.745435 205.589692 
L 108.491819 204.630802 
L 108.213005 203.671913 
L 107.908891 202.713024 
L 107.579854 201.754135 
L 107.226759 200.795245 
L 106.850942 199.836356 
L 106.454186 198.877467 
L 106.038678 197.918577 
L 105.606946 196.959688 
L 105.161789 196.000799 
L 104.706195 195.041909 
L 104.243246 194.08302 
L 103.776032 193.124131 
L 103.307551 192.165241 
L 102.840627 191.206352 
L 102.377832 190.247463 
L 101.921421 189.288574 
L 101.473283 188.329684 
L 101.034913 187.370795 
L 100.607396 186.411906 
L 100.191415 185.453016 
L 99.787268 184.494127 
L 99.394906 183.535238 
L 99.013977 182.576348 
L 98.64388 181.617459 
L 98.28382 180.65857 
L 97.932869 179.69968 
L 97.590027 178.740791 
L 97.254278 177.781902 
L 96.924648 176.823013 
L 96.600258 175.864123 
L 96.280378 174.905234 
L 95.964478 173.946345 
L 95.652277 172.987455 
L 95.343794 172.028566 
L 95.039388 171.069677 
L 94.739801 170.110787 
L 94.446187 169.151898 
L 94.160132 168.193009 
L 93.883656 167.234119 
L 93.619194 166.27523 
L 93.369554 165.316341 
L 93.137852 164.357451 
L 92.927416 163.398562 
L 92.741668 162.439673 
L 92.583982 161.480784 
L 92.457531 160.521894 
L 92.365124 159.563005 
L 92.309046 158.604116 
L 92.290909 157.645226 
L 92.311537 156.686337 
L 92.37087 155.727448 
L 92.467929 154.768558 
L 92.600815 153.809669 
L 92.766771 152.85078 
L 92.962292 151.89189 
L 93.183285 150.933001 
L 93.425267 149.974112 
L 93.683594 149.015223 
L 93.953703 148.056333 
L 94.231361 147.097444 
L 94.512891 146.138555 
L 94.795374 145.179665 
L 95.076803 144.220776 
L 95.35619 143.261887 
L 95.633603 142.302997 
L 95.910153 141.344108 
L 96.187902 140.385219 
L 96.46973 139.426329 
L 96.759142 138.46744 
L 97.060044 137.508551 
L 97.376495 136.549662 
L 97.712452 135.590772 
L 98.071523 134.631883 
L 98.456735 133.672994 
L 98.870346 132.714104 
L 99.313694 131.755215 
L 99.787093 130.796326 
L 100.289792 129.837436 
L 100.819981 128.878547 
L 101.374849 127.919658 
L 101.950687 126.960768 
L 102.543034 126.001879 
L 103.146842 125.04299 
L 103.756665 124.0841 
L 104.366859 123.125211 
L 119.487687 123.125211 
L 119.487687 123.125211 
L 120.09788 124.0841 
L 120.707704 125.04299 
L 121.311511 126.001879 
L 121.903858 126.960768 
L 122.479697 127.919658 
L 123.034565 128.878547 
L 123.564754 129.837436 
L 124.067453 130.796326 
L 124.540852 131.755215 
L 124.984199 132.714104 
L 125.39781 133.672994 
L 125.783023 134.631883 
L 126.142093 135.590772 
L 126.478051 136.549662 
L 126.794502 137.508551 
L 127.095403 138.46744 
L 127.384815 139.426329 
L 127.666643 140.385219 
L 127.944392 141.344108 
L 128.220942 142.302997 
L 128.498356 143.261887 
L 128.777742 144.220776 
L 129.059172 145.179665 
L 129.341655 146.138555 
L 129.623185 147.097444 
L 129.900843 148.056333 
L 130.170952 149.015223 
L 130.429278 149.974112 
L 130.67126 150.933001 
L 130.892253 151.89189 
L 131.087775 152.85078 
L 131.253731 153.809669 
L 131.386617 154.768558 
L 131.483675 155.727448 
L 131.543009 156.686337 
L 131.563636 157.645226 
L 131.5455 158.604116 
L 131.489421 159.563005 
L 131.397014 160.521894 
L 131.270564 161.480784 
L 131.112878 162.439673 
L 130.927129 163.398562 
L 130.716693 164.357451 
L 130.484992 165.316341 
L 130.235352 166.27523 
L 129.970889 167.234119 
L 129.694413 168.193009 
L 129.408358 169.151898 
L 129.114744 170.110787 
L 128.815157 171.069677 
L 128.510751 172.028566 
L 128.202268 172.987455 
L 127.890068 173.946345 
L 127.574168 174.905234 
L 127.254288 175.864123 
L 126.929898 176.823013 
L 126.600267 177.781902 
L 126.264518 178.740791 
L 125.921676 179.69968 
L 125.570726 180.65857 
L 125.210665 181.617459 
L 124.840568 182.576348 
L 124.45964 183.535238 
L 124.067278 184.494127 
L 123.663131 185.453016 
L 123.247149 186.411906 
L 122.819632 187.370795 
L 122.381262 188.329684 
L 121.933125 189.288574 
L 121.476714 190.247463 
L 121.013919 191.206352 
L 120.546995 192.165241 
L 120.078514 193.124131 
L 119.611299 194.08302 
L 119.148351 195.041909 
L 118.692756 196.000799 
L 118.2476 196.959688 
L 117.815867 197.918577 
L 117.400359 198.877467 
L 117.003604 199.836356 
L 116.627787 200.795245 
L 116.274691 201.754135 
L 115.945655 202.713024 
L 115.64154 203.671913 
L 115.362726 204.630802 
L 115.10911 205.589692 
L 114.880133 206.548581 
L 114.674807 207.50747 
L 114.491771 208.46636 
L 114.329339 209.425249 
L 114.185568 210.384138 
L 114.058331 211.343028 
L 113.945384 212.301917 
L 113.844442 213.260806 
L 113.753249 214.219696 
L 113.669648 215.178585 
L 113.591634 216.137474 
L 113.517412 217.096364 
L 113.445432 218.055253 
L 113.445432 218.055253 
z
" clip-path="url(#pfa3fadb71f)" style="fill: none; stroke: #000000; stroke-opacity: 0.3"/>
   </g>
   <g id="FillBetweenPolyCollection_10">
    <path d="M 113.703943 215.993073 
L 110.150603 215.993073 
L 109.965727 214.82099 
L 109.764075 213.648908 
L 109.543849 212.476825 
L 109.30332 211.304743 
L 109.040923 210.13266 
L 108.755344 208.960578 
L 108.445588 207.788495 
L 108.111031 206.616413 
L 107.751443 205.44433 
L 107.366985 204.272248 
L 106.958186 203.100165 
L 106.525897 201.928082 
L 106.071236 200.756 
L 105.595527 199.583917 
L 105.100244 198.411835 
L 104.586965 197.239752 
L 104.057341 196.06767 
L 103.513084 194.895587 
L 102.955966 193.723505 
L 102.387837 192.551422 
L 101.81065 191.37934 
L 101.226484 190.207257 
L 100.637569 189.035175 
L 100.046299 187.863092 
L 99.455236 186.69101 
L 98.867102 185.518927 
L 98.28476 184.346845 
L 97.711188 183.174762 
L 97.149453 182.00268 
L 96.602687 180.830597 
L 96.074064 179.658515 
L 95.566792 178.486432 
L 95.084109 177.31435 
L 94.62928 176.142267 
L 94.205591 174.970185 
L 93.816341 173.798102 
L 93.464803 172.62602 
L 93.154168 171.453937 
L 92.887464 170.281855 
L 92.667434 169.109772 
L 92.4964 167.93769 
L 92.376109 166.765607 
L 92.307568 165.593525 
L 92.290909 164.421442 
L 92.325267 163.249359 
L 92.408718 162.077277 
L 92.53827 160.905194 
L 92.70993 159.733112 
L 92.91883 158.561029 
L 93.159429 157.388947 
L 93.425762 156.216864 
L 93.711731 155.044782 
L 94.011402 153.872699 
L 94.319302 152.700617 
L 94.630686 151.528534 
L 94.941748 150.356452 
L 95.249777 149.184369 
L 95.55323 148.012287 
L 95.851745 146.840204 
L 96.146068 145.668122 
L 96.437926 144.496039 
L 96.729854 143.323957 
L 97.024975 142.151874 
L 97.326781 140.979792 
L 97.63889 139.807709 
L 97.96483 138.635627 
L 98.307834 137.463544 
L 98.670666 136.291462 
L 99.05548 135.119379 
L 99.463712 133.947297 
L 99.896013 132.775214 
L 100.352207 131.603132 
L 100.831287 130.431049 
L 101.331436 129.258967 
L 101.850082 128.086884 
L 102.38396 126.914802 
L 102.929213 125.742719 
L 103.481496 124.570636 
L 104.036105 123.398554 
L 104.588114 122.226471 
L 105.132521 121.054389 
L 105.664397 119.882306 
L 106.179044 118.710224 
L 106.672135 117.538141 
L 107.139857 116.366059 
L 107.579026 115.193976 
L 107.987189 114.021894 
L 108.362692 112.849811 
L 108.704717 111.677729 
L 109.013288 110.505646 
L 109.289232 109.333564 
L 109.53411 108.161481 
L 109.750118 106.989399 
L 109.939952 105.817316 
L 110.106661 104.645234 
L 110.253485 103.473151 
L 110.3837 102.301069 
L 110.50046 101.128986 
L 110.606668 99.956904 
L 113.247878 99.956904 
L 113.247878 99.956904 
L 113.354085 101.128986 
L 113.470845 102.301069 
L 113.60106 103.473151 
L 113.747885 104.645234 
L 113.914593 105.817316 
L 114.104427 106.989399 
L 114.320435 108.161481 
L 114.565314 109.333564 
L 114.841258 110.505646 
L 115.149828 111.677729 
L 115.491854 112.849811 
L 115.867357 114.021894 
L 116.27552 115.193976 
L 116.714689 116.366059 
L 117.18241 117.538141 
L 117.675502 118.710224 
L 118.190148 119.882306 
L 118.722025 121.054389 
L 119.266431 122.226471 
L 119.81844 123.398554 
L 120.37305 124.570636 
L 120.925333 125.742719 
L 121.470585 126.914802 
L 122.004464 128.086884 
L 122.523109 129.258967 
L 123.023259 130.431049 
L 123.502338 131.603132 
L 123.958532 132.775214 
L 124.390833 133.947297 
L 124.799066 135.119379 
L 125.18388 136.291462 
L 125.546712 137.463544 
L 125.889716 138.635627 
L 126.215656 139.807709 
L 126.527765 140.979792 
L 126.82957 142.151874 
L 127.124692 143.323957 
L 127.416619 144.496039 
L 127.708478 145.668122 
L 128.0028 146.840204 
L 128.301315 148.012287 
L 128.604769 149.184369 
L 128.912797 150.356452 
L 129.223859 151.528534 
L 129.535243 152.700617 
L 129.843144 153.872699 
L 130.142815 155.044782 
L 130.428783 156.216864 
L 130.695117 157.388947 
L 130.935716 158.561029 
L 131.144615 159.733112 
L 131.316275 160.905194 
L 131.445828 162.077277 
L 131.529279 163.249359 
L 131.563636 164.421442 
L 131.546977 165.593525 
L 131.478437 166.765607 
L 131.358145 167.93769 
L 131.187112 169.109772 
L 130.967082 170.281855 
L 130.700377 171.453937 
L 130.389743 172.62602 
L 130.038204 173.798102 
L 129.648954 174.970185 
L 129.225266 176.142267 
L 128.770436 177.31435 
L 128.287754 178.486432 
L 127.780482 179.658515 
L 127.251859 180.830597 
L 126.705092 182.00268 
L 126.143358 183.174762 
L 125.569786 184.346845 
L 124.987444 185.518927 
L 124.39931 186.69101 
L 123.808247 187.863092 
L 123.216976 189.035175 
L 122.628061 190.207257 
L 122.043895 191.37934 
L 121.466708 192.551422 
L 120.898579 193.723505 
L 120.341461 194.895587 
L 119.797204 196.06767 
L 119.267581 197.239752 
L 118.754302 198.411835 
L 118.259019 199.583917 
L 117.78331 200.756 
L 117.328649 201.928082 
L 116.89636 203.100165 
L 116.487561 204.272248 
L 116.103103 205.44433 
L 115.743514 206.616413 
L 115.408957 207.788495 
L 115.099202 208.960578 
L 114.813623 210.13266 
L 114.551226 211.304743 
L 114.310696 212.476825 
L 114.09047 213.648908 
L 113.888818 214.82099 
L 113.703943 215.993073 
L 113.703943 215.993073 
z
" clip-path="url(#pfa3fadb71f)" style="fill: none; stroke: #000000; stroke-opacity: 0.3"/>
   </g>
   <g id="FillBetweenPolyCollection_11">
    <path d="M 112.28767 241.791797 
L 111.566876 241.791797 
L 111.568246 239.845932 
L 111.580457 237.900067 
L 111.599451 235.954202 
L 111.619936 234.008336 
L 111.636388 232.062471 
L 111.64408 230.116606 
L 111.639885 228.170741 
L 111.622653 226.224876 
L 111.593056 224.279011 
L 111.55294 222.333145 
L 111.504339 220.38728 
L 111.448427 218.441415 
L 111.384692 216.49555 
L 111.310612 214.549685 
L 111.221961 212.603819 
L 111.113727 210.657954 
L 110.981405 208.712089 
L 110.822329 206.766224 
L 110.636654 204.820359 
L 110.427664 202.874494 
L 110.201245 200.928628 
L 109.964519 198.982763 
L 109.723835 197.036898 
L 109.482413 195.091033 
L 109.238051 193.145168 
L 108.981341 191.199302 
L 108.694857 189.253437 
L 108.353743 187.307572 
L 107.927963 185.361707 
L 107.386227 183.415842 
L 106.701195 181.469977 
L 105.855101 179.524111 
L 104.844618 177.578246 
L 103.683685 175.632381 
L 102.403304 173.686516 
L 101.048051 171.740651 
L 99.669925 169.794786 
L 98.321045 167.84892 
L 97.047159 165.903055 
L 95.88374 163.95719 
L 94.855606 162.011325 
L 93.979754 160.06546 
L 93.269884 158.119594 
L 92.740452 156.173729 
L 92.408295 154.227864 
L 92.290909 152.281999 
L 92.401927 150.336134 
L 92.745618 148.390269 
L 93.312728 146.444403 
L 94.079529 144.498538 
L 95.010643 142.552673 
L 96.064776 140.606808 
L 97.201345 138.660943 
L 98.385811 136.715077 
L 99.592163 134.769212 
L 100.802187 132.823347 
L 102.002377 130.877482 
L 103.180072 128.931617 
L 104.32046 126.985752 
L 105.405541 125.039886 
L 106.415284 123.094021 
L 107.330415 121.148156 
L 108.135771 119.202291 
L 108.823096 117.256426 
L 109.392431 115.310561 
L 109.851747 113.364695 
L 110.21502 111.41883 
L 110.49934 109.472965 
L 110.721863 107.5271 
L 110.897351 105.581235 
L 111.03681 103.635369 
L 111.147343 101.689504 
L 111.233001 99.743639 
L 111.296158 97.797774 
L 111.338869 95.851909 
L 111.363807 93.906044 
L 111.374592 91.960178 
L 111.375579 90.014313 
L 111.371345 88.068448 
L 111.36616 86.122583 
L 111.363621 84.176718 
L 111.366506 82.230853 
L 111.376771 80.284987 
L 111.395551 78.339122 
L 111.423075 76.393257 
L 111.458502 74.447392 
L 111.499786 72.501527 
L 111.543696 70.555661 
L 111.586109 68.609796 
L 111.622586 66.663931 
L 111.649149 64.718066 
L 111.663075 62.772201 
L 111.663541 60.826336 
L 111.651929 58.88047 
L 111.631714 56.934605 
L 111.607918 54.98874 
L 111.586233 53.042875 
L 111.571989 51.09701 
L 111.569181 49.151144 
L 112.285364 49.151144 
L 112.285364 49.151144 
L 112.282556 51.09701 
L 112.268312 53.042875 
L 112.246628 54.98874 
L 112.222832 56.934605 
L 112.202616 58.88047 
L 112.191004 60.826336 
L 112.19147 62.772201 
L 112.205396 64.718066 
L 112.231959 66.663931 
L 112.268437 68.609796 
L 112.310849 70.555661 
L 112.354759 72.501527 
L 112.396043 74.447392 
L 112.431471 76.393257 
L 112.458994 78.339122 
L 112.477774 80.284987 
L 112.48804 82.230853 
L 112.490925 84.176718 
L 112.488385 86.122583 
L 112.4832 88.068448 
L 112.478967 90.014313 
L 112.479953 91.960178 
L 112.490738 93.906044 
L 112.515676 95.851909 
L 112.558387 97.797774 
L 112.621544 99.743639 
L 112.707203 101.689504 
L 112.817736 103.635369 
L 112.957195 105.581235 
L 113.132683 107.5271 
L 113.355205 109.472965 
L 113.639525 111.41883 
L 114.002798 113.364695 
L 114.462114 115.310561 
L 115.031449 117.256426 
L 115.718774 119.202291 
L 116.52413 121.148156 
L 117.439261 123.094021 
L 118.449005 125.039886 
L 119.534086 126.985752 
L 120.674473 128.931617 
L 121.852168 130.877482 
L 123.052358 132.823347 
L 124.262383 134.769212 
L 125.468735 136.715077 
L 126.653201 138.660943 
L 127.789769 140.606808 
L 128.843902 142.552673 
L 129.775017 144.498538 
L 130.541817 146.444403 
L 131.108928 148.390269 
L 131.452619 150.336134 
L 131.563636 152.281999 
L 131.44625 154.227864 
L 131.114093 156.173729 
L 130.584662 158.119594 
L 129.874792 160.06546 
L 128.99894 162.011325 
L 127.970806 163.95719 
L 126.807386 165.903055 
L 125.5335 167.84892 
L 124.18462 169.794786 
L 122.806495 171.740651 
L 121.451242 173.686516 
L 120.170861 175.632381 
L 119.009927 177.578246 
L 117.999445 179.524111 
L 117.15335 181.469977 
L 116.468318 183.415842 
L 115.926583 185.361707 
L 115.500802 187.307572 
L 115.159688 189.253437 
L 114.873205 191.199302 
L 114.616494 193.145168 
L 114.372132 195.091033 
L 114.13071 197.036898 
L 113.890026 198.982763 
L 113.653301 200.928628 
L 113.426881 202.874494 
L 113.217892 204.820359 
L 113.032217 206.766224 
L 112.873141 208.712089 
L 112.740818 210.657954 
L 112.632585 212.603819 
L 112.543934 214.549685 
L 112.469853 216.49555 
L 112.406119 218.441415 
L 112.350207 220.38728 
L 112.301606 222.333145 
L 112.261489 224.279011 
L 112.231892 226.224876 
L 112.214661 228.170741 
L 112.210466 230.116606 
L 112.218157 232.062471 
L 112.23461 234.008336 
L 112.255095 235.954202 
L 112.274089 237.900067 
L 112.286299 239.845932 
L 112.28767 241.791797 
L 112.28767 241.791797 
z
" clip-path="url(#pfa3fadb71f)" style="fill: none; stroke: #000000; stroke-opacity: 0.3"/>
   </g>
   <g id="matplotlib.axis_1"/>
   <g id="matplotlib.axis_2">
    <g id="ytick_1">
     <g id="line2d_1">
      <defs>
       <path id="m76816400e5" d="M 0 0 
L -3.5 0 
" style="stroke: #000000; stroke-width: 0.8"/>
      </defs>
      <g>
       <use xlink:href="#m76816400e5" x="21.6" y="291.6" style="stroke: #000000; stroke-width: 0.8"/>
      </g>
     </g>
    </g>
    <g id="ytick_2">
     <g id="line2d_2">
      <g>
       <use xlink:href="#m76816400e5" x="21.6" y="199.8" style="stroke: #000000; stroke-width: 0.8"/>
      </g>
     </g>
    </g>
    <g id="ytick_3">
     <g id="line2d_3">
      <g>
       <use xlink:href="#m76816400e5" x="21.6" y="108" style="stroke: #000000; stroke-width: 0.8"/>
      </g>
     </g>
    </g>
    <g id="ytick_4">
     <g id="line2d_4">
      <g>
       <use xlink:href="#m76816400e5" x="21.6" y="16.2" style="stroke: #000000; stroke-width: 0.8"/>
      </g>
     </g>
    </g>
   </g>
   <g id="line2d_5">
    <path d="M 46.472727 269.568 
L 46.472727 264.06 
" clip-path="url(#pfa3fadb71f)" style="fill: none; stroke: #000000; stroke-linecap: square"/>
   </g>
   <g id="line2d_6">
    <path d="M 46.472727 269.568 
L 111.927273 269.568 
" clip-path="url(#pfa3fadb71f)" style="fill: none; stroke: #000000; stroke-linecap: square"/>
   </g>
   <g id="line2d_7">
    <path d="M 111.927273 269.568 
L 111.927273 264.06 
" clip-path="url(#pfa3fadb71f)" style="fill: none; stroke: #000000; stroke-linecap: square"/>
   </g>
   <g id="patch_3">
    <path d="M 21.6 291.6 
L 21.6 16.2 
" style="fill: none; stroke: #000000; stroke-width: 0.8; stroke-linejoin: miter; stroke-linecap: square"/>
   </g>
   <g id="patch_4">
    <path d="M 136.8 291.6 
L 136.8 16.2 
" style="fill: none; stroke: #000000; stroke-width: 0.8; stroke-linejoin: miter; stroke-linecap: square"/>
   </g>
   <g id="patch_5">
    <path d="M 21.6 291.6 
L 136.8 291.6 
" style="fill: none; stroke: #000000; stroke-width: 0.8; stroke-linejoin: miter; stroke-linecap: square"/>
   </g>
   <g id="patch_6">
    <path d="M 21.6 16.2 
L 136.8 16.2 
" style="fill: none; stroke: #000000; stroke-width: 0.8; stroke-linejoin: miter; stroke-linecap: square"/>
   </g>
   <g id="text_1">
    <text style="font-weight: 700; font-size: 12px; font-family: 'DejaVu Sans', 'Bitstream Vera Sans', 'Computer Modern Sans Serif', 'Lucida Grande', 'Verdana', 'Geneva', 'Lucid', 'Arial', 'Helvetica', 'Avant Garde', sans-serif; text-anchor: middle" x="46.472727" y="289.104375" transform="rotate(-0 46.472727 289.104375)">#22</text>
   </g>
   <g id="text_2">
    <text style="font-weight: 700; font-size: 12px; font-family: 'DejaVu Sans', 'Bitstream Vera Sans', 'Computer Modern Sans Serif', 'Lucida Grande', 'Verdana', 'Geneva', 'Lucid', 'Arial', 'Helvetica', 'Avant Garde', sans-serif; text-anchor: middle" x="111.927273" y="289.104375" transform="rotate(-0 111.927273 289.104375)">#28</text>
   </g>
   <g id="text_3">
    <text style="font-size: 12px; font-family: 'DejaVu Sans', 'Bitstream Vera Sans', 'Computer Modern Sans Serif', 'Lucida Grande', 'Verdana', 'Geneva', 'Lucid', 'Arial', 'Helvetica', 'Avant Garde', sans-serif; text-anchor: middle" x="79.2" y="268.449375" transform="rotate(-0 79.2 268.449375)">**</text>
   </g>
   <g id="line2d_8">
    <path d="M 21.6 145.832862 
L 136.8 145.832862 
" clip-path="url(#pfa3fadb71f)" style="fill: none; stroke-dasharray: 3.7,1.6; stroke-dashoffset: 0; stroke: #808080; stroke-opacity: 0.7"/>
   </g>
   <g id="line2d_9">
    <path d="M 21.6 155.291927 
L 136.8 155.291927 
" clip-path="url(#pfa3fadb71f)" style="fill: none; stroke-dasharray: 3.7,1.6; stroke-dashoffset: 0; stroke: #808080; stroke-opacity: 0.7"/>
   </g>
   <g id="LineCollection_1">
    <path d="M 46.472727 148.916626 
L 46.472727 142.749098 
" clip-path="url(#pfa3fadb71f)" style="fill: none; stroke: #000000; stroke-width: 2"/>
   </g>
   <g id="line2d_10">
    <defs>
     <path id="mdc409488ab" d="M 5 0 
L -5 -0 
" style="stroke: #000000; stroke-width: 2"/>
    </defs>
    <g clip-path="url(#pfa3fadb71f)">
     <use xlink:href="#mdc409488ab" x="46.472727" y="148.916626" style="stroke: #000000; stroke-width: 2"/>
    </g>
   </g>
   <g id="line2d_11">
    <g clip-path="url(#pfa3fadb71f)">
     <use xlink:href="#mdc409488ab" x="46.472727" y="142.749098" style="stroke: #000000; stroke-width: 2"/>
    </g>
   </g>
   <g id="LineCollection_2">
    <path d="M 111.927273 159.153528 
L 111.927273 151.430327 
" clip-path="url(#pfa3fadb71f)" style="fill: none; stroke: #000000; stroke-width: 2"/>
   </g>
   <g id="line2d_12">
    <g clip-path="url(#pfa3fadb71f)">
     <use xlink:href="#mdc409488ab" x="111.927273" y="159.153528" style="stroke: #000000; stroke-width: 2"/>
    </g>
   </g>
   <g id="line2d_13">
    <g clip-path="url(#pfa3fadb71f)">
     <use xlink:href="#mdc409488ab" x="111.927273" y="151.430327" style="stroke: #000000; stroke-width: 2"/>
    </g>
   </g>
   <g id="line2d_14">
    <defs>
     <path id="mc5b60d994c" d="M 0 4 
C 1.060812 4 2.078319 3.578535 2.828427 2.828427 
C 3.578535 2.078319 4 1.060812 4 0 
C 4 -1.060812 3.578535 -2.078319 2.828427 -2.828427 
C 2.078319 -3.578535 1.060812 -4 0 -4 
C -1.060812 -4 -2.078319 -3.578535 -2.828427 -2.828427 
C -3.578535 -2.078319 -4 -1.060812 -4 0 
C -4 1.060812 -3.578535 2.078319 -2.828427 2.828427 
C -2.078319 3.578535 -1.060812 4 0 4 
z
" style="stroke: #000000"/>
    </defs>
    <g clip-path="url(#pfa3fadb71f)">
     <use xlink:href="#mc5b60d994c" x="46.472727" y="145.832862" style="stroke: #000000"/>
    </g>
   </g>
   <g id="line2d_15">
    <g clip-path="url(#pfa3fadb71f)">
     <use xlink:href="#mc5b60d994c" x="111.927273" y="155.291927" style="stroke: #000000"/>
    </g>
   </g>
  </g>
 </g>
 <defs>
  <clipPath id="pfa3fadb71f">
   <rect x="21.6" y="16.2" width="115.2" height="275.4"/>
  </clipPath>
 </defs>
</svg>
