<?xml version="1.0" encoding="utf-8" standalone="no"?>
<!DOCTYPE svg PUBLIC "-//W3C//DTD SVG 1.1//EN"
  "http://www.w3.org/Graphics/SVG/1.1/DTD/svg11.dtd">
<svg xmlns:xlink="http://www.w3.org/1999/xlink" width="144pt" height="324pt" viewBox="0 0 144 324" xmlns="http://www.w3.org/2000/svg" version="1.1">
 <metadata>
  <rdf:RDF xmlns:dc="http://purl.org/dc/elements/1.1/" xmlns:cc="http://creativecommons.org/ns#" xmlns:rdf="http://www.w3.org/1999/02/22-rdf-syntax-ns#">
   <cc:Work>
    <dc:type rdf:resource="http://purl.org/dc/dcmitype/StillImage"/>
    <dc:date>2025-12-11T09:10:04.039002</dc:date>
    <dc:format>image/svg+xml</dc:format>
    <dc:creator>
     <cc:Agent>
      <dc:title>Matplotlib v3.10.0, https://matplotlib.org/</dc:title>
     </cc:Agent>
    </dc:creator>
   </cc:Work>
  </rdf:RDF>
 </metadata>
 <defs>
  <style type="text/css">*{stroke-linejoin: round; stroke-linecap: butt}</style>
 </defs>
 <g id="figure_1">
  <g id="patch_1">
   <path d="M 0 324 
L 144 324 
L 144 0 
L 0 0 
z
" style="fill: #ffffff"/>
  </g>
  <g id="axes_1">
   <g id="patch_2">
    <path d="M 21.6 291.6 
L 136.8 291.6 
L 136.8 16.2 
L 21.6 16.2 
z
" style="fill: #ffffff"/>
   </g>
   <g id="FillBetweenPolyCollection_1">
    <path d="M 55.206715 183.904124 
L 45.593285 183.904124 
L 45.328056 183.108973 
L 45.074562 182.313823 
L 44.835216 181.518672 
L 44.612209 180.723521 
L 44.407453 179.928371 
L 44.222551 179.13322 
L 44.058753 178.33807 
L 43.91693 177.542919 
L 43.797558 176.747769 
L 43.700695 175.952618 
L 43.625976 175.157467 
L 43.572605 174.362317 
L 43.539356 173.567166 
L 43.524575 172.772016 
L 43.526187 171.976865 
L 43.541706 171.181714 
L 43.568255 170.386564 
L 43.602587 169.591413 
L 43.641112 168.796263 
L 43.679943 168.001112 
L 43.714936 167.205962 
L 43.741757 166.410811 
L 43.75595 165.61566 
L 43.75302 164.82051 
L 43.728525 164.025359 
L 43.678181 163.230209 
L 43.597972 162.435058 
L 43.484263 161.639907 
L 43.333911 160.844757 
L 43.144384 160.049606 
L 42.913854 159.254456 
L 42.64129 158.459305 
L 42.326532 157.664155 
L 41.970338 156.869004 
L 41.574409 156.073853 
L 41.14139 155.278703 
L 40.674842 154.483552 
L 40.179178 153.688402 
L 39.659582 152.893251 
L 39.121899 152.0981 
L 38.572503 151.30295 
L 38.018146 150.507799 
L 37.465804 149.712649 
L 36.922507 148.917498 
L 36.395179 148.122348 
L 35.89047 147.327197 
L 35.41462 146.532046 
L 34.973316 145.736896 
L 34.571587 144.941745 
L 34.213712 144.146595 
L 33.903155 143.351444 
L 33.642529 142.556293 
L 33.433575 141.761143 
L 33.277175 140.965992 
L 33.173384 140.170842 
L 33.121473 139.375691 
L 33.12 138.580541 
L 33.166882 137.78539 
L 33.259487 136.990239 
L 33.394723 136.195089 
L 33.569136 135.399938 
L 33.779009 134.604788 
L 34.020456 133.809637 
L 34.289515 133.014486 
L 34.582239 132.219336 
L 34.894775 131.424185 
L 35.22344 130.629035 
L 35.56479 129.833884 
L 35.915672 129.038734 
L 36.273277 128.243583 
L 36.635168 127.448432 
L 36.999313 126.653282 
L 37.364087 125.858131 
L 37.728277 125.062981 
L 38.091068 124.26783 
L 38.452012 123.472679 
L 38.810996 122.677529 
L 39.168194 121.882378 
L 39.524006 121.087228 
L 39.879005 120.292077 
L 40.233865 119.496927 
L 40.589297 118.701776 
L 40.945987 117.906625 
L 41.30453 117.111475 
L 41.665383 116.316324 
L 42.028818 115.521174 
L 42.394888 114.726023 
L 42.763404 113.930872 
L 43.133931 113.135722 
L 43.505785 112.340571 
L 43.878048 111.545421 
L 44.249593 110.75027 
L 44.619121 109.95512 
L 44.985192 109.159969 
L 45.346278 108.364818 
L 45.700803 107.569668 
L 46.047194 106.774517 
L 46.383922 105.979367 
L 46.709547 105.184216 
L 54.090453 105.184216 
L 54.090453 105.184216 
L 54.416078 105.979367 
L 54.752806 106.774517 
L 55.099197 107.569668 
L 55.453722 108.364818 
L 55.814808 109.159969 
L 56.180879 109.95512 
L 56.550407 110.75027 
L 56.921952 111.545421 
L 57.294215 112.340571 
L 57.666069 113.135722 
L 58.036596 113.930872 
L 58.405112 114.726023 
L 58.771182 115.521174 
L 59.134617 116.316324 
L 59.49547 117.111475 
L 59.854013 117.906625 
L 60.210703 118.701776 
L 60.566135 119.496927 
L 60.920995 120.292077 
L 61.275994 121.087228 
L 61.631806 121.882378 
L 61.989004 122.677529 
L 62.347988 123.472679 
L 62.708932 124.26783 
L 63.071723 125.062981 
L 63.435913 125.858131 
L 63.800687 126.653282 
L 64.164832 127.448432 
L 64.526723 128.243583 
L 64.884328 129.038734 
L 65.23521 129.833884 
L 65.57656 130.629035 
L 65.905225 131.424185 
L 66.217761 132.219336 
L 66.510485 133.014486 
L 66.779544 133.809637 
L 67.020991 134.604788 
L 67.230864 135.399938 
L 67.405277 136.195089 
L 67.540513 136.990239 
L 67.633118 137.78539 
L 67.68 138.580541 
L 67.678527 139.375691 
L 67.626616 140.170842 
L 67.522825 140.965992 
L 67.366425 141.761143 
L 67.157471 142.556293 
L 66.896845 143.351444 
L 66.586288 144.146595 
L 66.228413 144.941745 
L 65.826684 145.736896 
L 65.38538 146.532046 
L 64.90953 147.327197 
L 64.404821 148.122348 
L 63.877493 148.917498 
L 63.334196 149.712649 
L 62.781854 150.507799 
L 62.227497 151.30295 
L 61.678101 152.0981 
L 61.140418 152.893251 
L 60.620822 153.688402 
L 60.125158 154.483552 
L 59.65861 155.278703 
L 59.225591 156.073853 
L 58.829662 156.869004 
L 58.473468 157.664155 
L 58.15871 158.459305 
L 57.886146 159.254456 
L 57.655616 160.049606 
L 57.466089 160.844757 
L 57.315737 161.639907 
L 57.202028 162.435058 
L 57.121819 163.230209 
L 57.071475 164.025359 
L 57.04698 164.82051 
L 57.04405 165.61566 
L 57.058243 166.410811 
L 57.085064 167.205962 
L 57.120057 168.001112 
L 57.158888 168.796263 
L 57.197413 169.591413 
L 57.231745 170.386564 
L 57.258294 171.181714 
L 57.273813 171.976865 
L 57.275425 172.772016 
L 57.260644 173.567166 
L 57.227395 174.362317 
L 57.174024 175.157467 
L 57.099305 175.952618 
L 57.002442 176.747769 
L 56.88307 177.542919 
L 56.741247 178.33807 
L 56.577449 179.13322 
L 56.392547 179.928371 
L 56.187791 180.723521 
L 55.964784 181.518672 
L 55.725438 182.313823 
L 55.471944 183.108973 
L 55.206715 183.904124 
L 55.206715 183.904124 
z
" clip-path="url(#pdcb32179f3)" style="fill: none; stroke: #000000; stroke-opacity: 0.3"/>
   </g>
   <g id="FillBetweenPolyCollection_2">
    <path d="M 50.874313 209.527573 
L 49.925687 209.527573 
L 49.905932 208.463402 
L 49.885697 207.399231 
L 49.862371 206.335059 
L 49.832778 205.270888 
L 49.79333 204.206717 
L 49.740244 203.142545 
L 49.669789 202.078374 
L 49.578553 201.014202 
L 49.463718 199.950031 
L 49.323298 198.88586 
L 49.156339 197.821688 
L 48.963047 196.757517 
L 48.744829 195.693346 
L 48.504233 194.629174 
L 48.244791 193.565003 
L 47.970765 192.500832 
L 47.686812 191.43666 
L 47.397596 190.372489 
L 47.107386 189.308318 
L 46.819667 188.244146 
L 46.536812 187.179975 
L 46.259842 186.115803 
L 45.988305 185.051632 
L 45.720272 183.987461 
L 45.452464 182.923289 
L 45.180488 181.859118 
L 44.899164 180.794947 
L 44.602907 179.730775 
L 44.286154 178.666604 
L 43.943789 177.602433 
L 43.571556 176.538261 
L 43.166432 175.47409 
L 42.726955 174.409918 
L 42.253462 173.345747 
L 41.748243 172.281576 
L 41.215563 171.217404 
L 40.661559 170.153233 
L 40.093969 169.089062 
L 39.521717 168.02489 
L 38.954359 166.960719 
L 38.401439 165.896548 
L 37.8718 164.832376 
L 37.372943 163.768205 
L 36.910494 162.704034 
L 36.487851 161.639862 
L 36.106074 160.575691 
L 35.764009 159.511519 
L 35.458654 158.447348 
L 35.185695 157.383177 
L 34.940143 156.319005 
L 34.716984 155.254834 
L 34.511747 154.190663 
L 34.320921 153.126491 
L 34.142191 152.06232 
L 33.974466 150.998149 
L 33.817756 149.933977 
L 33.672915 148.869806 
L 33.541346 147.805634 
L 33.424708 146.741463 
L 33.32469 145.677292 
L 33.242867 144.61312 
L 33.18065 143.548949 
L 33.139304 142.484778 
L 33.12 141.420606 
L 33.12387 140.356435 
L 33.152034 139.292264 
L 33.20558 138.228092 
L 33.285513 137.163921 
L 33.39268 136.09975 
L 33.527724 135.035578 
L 33.691072 133.971407 
L 33.883013 132.907235 
L 34.103831 131.843064 
L 34.354012 130.778893 
L 34.634457 129.714721 
L 34.946658 128.65055 
L 35.292784 127.586379 
L 35.675611 126.522207 
L 36.098295 125.458036 
L 36.563968 124.393865 
L 37.075215 123.329693 
L 37.633484 122.265522 
L 38.238526 121.20135 
L 38.887949 120.137179 
L 39.576975 119.073008 
L 40.29844 118.008836 
L 41.043064 116.944665 
L 41.799963 115.880494 
L 42.557345 114.816322 
L 43.303303 113.752151 
L 44.026604 112.68798 
L 44.71739 111.623808 
L 45.367697 110.559637 
L 45.971772 109.495466 
L 46.526146 108.431294 
L 47.029507 107.367123 
L 47.4824 106.302951 
L 47.88682 105.23878 
L 48.245774 104.174609 
L 52.554226 104.174609 
L 52.554226 104.174609 
L 52.91318 105.23878 
L 53.3176 106.302951 
L 53.770493 107.367123 
L 54.273854 108.431294 
L 54.828228 109.495466 
L 55.432303 110.559637 
L 56.08261 111.623808 
L 56.773396 112.68798 
L 57.496697 113.752151 
L 58.242655 114.816322 
L 59.000037 115.880494 
L 59.756936 116.944665 
L 60.50156 118.008836 
L 61.223025 119.073008 
L 61.912051 120.137179 
L 62.561474 121.20135 
L 63.166516 122.265522 
L 63.724785 123.329693 
L 64.236032 124.393865 
L 64.701705 125.458036 
L 65.124389 126.522207 
L 65.507216 127.586379 
L 65.853342 128.65055 
L 66.165543 129.714721 
L 66.445988 130.778893 
L 66.696169 131.843064 
L 66.916987 132.907235 
L 67.108928 133.971407 
L 67.272276 135.035578 
L 67.40732 136.09975 
L 67.514487 137.163921 
L 67.59442 138.228092 
L 67.647966 139.292264 
L 67.67613 140.356435 
L 67.68 141.420606 
L 67.660696 142.484778 
L 67.61935 143.548949 
L 67.557133 144.61312 
L 67.47531 145.677292 
L 67.375292 146.741463 
L 67.258654 147.805634 
L 67.127085 148.869806 
L 66.982244 149.933977 
L 66.825534 150.998149 
L 66.657809 152.06232 
L 66.479079 153.126491 
L 66.288253 154.190663 
L 66.083016 155.254834 
L 65.859857 156.319005 
L 65.614305 157.383177 
L 65.341346 158.447348 
L 65.035991 159.511519 
L 64.693926 160.575691 
L 64.312149 161.639862 
L 63.889506 162.704034 
L 63.427057 163.768205 
L 62.9282 164.832376 
L 62.398561 165.896548 
L 61.845641 166.960719 
L 61.278283 168.02489 
L 60.706031 169.089062 
L 60.138441 170.153233 
L 59.584437 171.217404 
L 59.051757 172.281576 
L 58.546538 173.345747 
L 58.073045 174.409918 
L 57.633568 175.47409 
L 57.228444 176.538261 
L 56.856211 177.602433 
L 56.513846 178.666604 
L 56.197093 179.730775 
L 55.900836 180.794947 
L 55.619512 181.859118 
L 55.347536 182.923289 
L 55.079728 183.987461 
L 54.811695 185.051632 
L 54.540158 186.115803 
L 54.263188 187.179975 
L 53.980333 188.244146 
L 53.692614 189.308318 
L 53.402404 190.372489 
L 53.113188 191.43666 
L 52.829235 192.500832 
L 52.555209 193.565003 
L 52.295767 194.629174 
L 52.055171 195.693346 
L 51.836953 196.757517 
L 51.643661 197.821688 
L 51.476702 198.88586 
L 51.336282 199.950031 
L 51.221447 201.014202 
L 51.130211 202.078374 
L 51.059756 203.142545 
L 51.00667 204.206717 
L 50.967222 205.270888 
L 50.937629 206.335059 
L 50.914303 207.399231 
L 50.894068 208.463402 
L 50.874313 209.527573 
L 50.874313 209.527573 
z
" clip-path="url(#pdcb32179f3)" style="fill: none; stroke: #000000; stroke-opacity: 0.3"/>
   </g>
   <g id="FillBetweenPolyCollection_3">
    <path d="M 50.896988 209.563201 
L 49.903012 209.563201 
L 49.874618 208.53046 
L 49.844553 207.497718 
L 49.810652 206.464977 
L 49.770443 205.432236 
L 49.72132 204.399494 
L 49.660755 203.366753 
L 49.586501 202.334011 
L 49.496784 201.30127 
L 49.390445 200.268528 
L 49.267029 199.235787 
L 49.126793 198.203045 
L 48.970652 197.170304 
L 48.800036 196.137562 
L 48.616711 195.104821 
L 48.422548 194.072079 
L 48.21929 193.039338 
L 48.008324 192.006597 
L 47.790491 190.973855 
L 47.56595 189.941114 
L 47.33411 188.908372 
L 47.093629 187.875631 
L 46.842495 186.842889 
L 46.578173 185.810148 
L 46.297809 184.777406 
L 45.99848 183.744665 
L 45.677471 182.711923 
L 45.332559 181.679182 
L 44.962286 180.64644 
L 44.566188 179.613699 
L 44.144974 178.580958 
L 43.700613 177.548216 
L 43.236339 176.515475 
L 42.756533 175.482733 
L 42.266516 174.449992 
L 41.772224 173.41725 
L 41.279816 172.384509 
L 40.795232 171.351767 
L 40.32374 170.319026 
L 39.869516 169.286284 
L 39.43532 168.253543 
L 39.022279 167.220801 
L 38.629837 166.18806 
L 38.255877 165.155319 
L 37.897009 164.122577 
L 37.549006 163.089836 
L 37.20735 162.057094 
L 36.867822 161.024353 
L 36.527078 159.991611 
L 36.183145 158.95887 
L 35.835772 157.926128 
L 35.486603 156.893387 
L 35.139153 155.860645 
L 34.798584 154.827904 
L 34.471326 153.795162 
L 34.164573 152.762421 
L 33.88573 151.72968 
L 33.641862 150.696938 
L 33.439213 149.664197 
L 33.282834 148.631455 
L 33.176348 147.598714 
L 33.121858 146.565972 
L 33.12 145.533231 
L 33.170104 144.500489 
L 33.270434 143.467748 
L 33.418467 142.435006 
L 33.611186 141.402265 
L 33.845338 140.369523 
L 34.117647 139.336782 
L 34.424962 138.304041 
L 34.764338 137.271299 
L 35.133057 136.238558 
L 35.52859 135.205816 
L 35.948532 134.173075 
L 36.390508 133.140333 
L 36.852091 132.107592 
L 37.330735 131.07485 
L 37.823745 130.042109 
L 38.328292 129.009367 
L 38.841474 127.976626 
L 39.360412 126.943884 
L 39.882379 125.911143 
L 40.404926 124.878402 
L 40.925997 123.84566 
L 41.443994 122.812919 
L 41.957794 121.780177 
L 42.46669 120.747436 
L 42.970275 119.714694 
L 43.468274 118.681953 
L 43.960353 117.649211 
L 44.445932 116.61647 
L 44.924035 115.583728 
L 45.393196 114.550987 
L 45.851441 113.518245 
L 46.296348 112.485504 
L 46.725177 111.452763 
L 47.135047 110.420021 
L 47.523138 109.38728 
L 47.886896 108.354538 
L 48.224204 107.321797 
L 52.575796 107.321797 
L 52.575796 107.321797 
L 52.913104 108.354538 
L 53.276862 109.38728 
L 53.664953 110.420021 
L 54.074823 111.452763 
L 54.503652 112.485504 
L 54.948559 113.518245 
L 55.406804 114.550987 
L 55.875965 115.583728 
L 56.354068 116.61647 
L 56.839647 117.649211 
L 57.331726 118.681953 
L 57.829725 119.714694 
L 58.33331 120.747436 
L 58.842206 121.780177 
L 59.356006 122.812919 
L 59.874003 123.84566 
L 60.395074 124.878402 
L 60.917621 125.911143 
L 61.439588 126.943884 
L 61.958526 127.976626 
L 62.471708 129.009367 
L 62.976255 130.042109 
L 63.469265 131.07485 
L 63.947909 132.107592 
L 64.409492 133.140333 
L 64.851468 134.173075 
L 65.27141 135.205816 
L 65.666943 136.238558 
L 66.035662 137.271299 
L 66.375038 138.304041 
L 66.682353 139.336782 
L 66.954662 140.369523 
L 67.188814 141.402265 
L 67.381533 142.435006 
L 67.529566 143.467748 
L 67.629896 144.500489 
L 67.68 145.533231 
L 67.678142 146.565972 
L 67.623652 147.598714 
L 67.517166 148.631455 
L 67.360787 149.664197 
L 67.158138 150.696938 
L 66.91427 151.72968 
L 66.635427 152.762421 
L 66.328674 153.795162 
L 66.001416 154.827904 
L 65.660847 155.860645 
L 65.313397 156.893387 
L 64.964228 157.926128 
L 64.616855 158.95887 
L 64.272922 159.991611 
L 63.932178 161.024353 
L 63.59265 162.057094 
L 63.250994 163.089836 
L 62.902991 164.122577 
L 62.544123 165.155319 
L 62.170163 166.18806 
L 61.777721 167.220801 
L 61.36468 168.253543 
L 60.930484 169.286284 
L 60.47626 170.319026 
L 60.004768 171.351767 
L 59.520184 172.384509 
L 59.027776 173.41725 
L 58.533484 174.449992 
L 58.043467 175.482733 
L 57.563661 176.515475 
L 57.099387 177.548216 
L 56.655026 178.580958 
L 56.233812 179.613699 
L 55.837714 180.64644 
L 55.467441 181.679182 
L 55.122529 182.711923 
L 54.80152 183.744665 
L 54.502191 184.777406 
L 54.221827 185.810148 
L 53.957505 186.842889 
L 53.706371 187.875631 
L 53.46589 188.908372 
L 53.23405 189.941114 
L 53.009509 190.973855 
L 52.791676 192.006597 
L 52.58071 193.039338 
L 52.377452 194.072079 
L 52.183289 195.104821 
L 51.999964 196.137562 
L 51.829348 197.170304 
L 51.673207 198.203045 
L 51.532971 199.235787 
L 51.409555 200.268528 
L 51.303216 201.30127 
L 51.213499 202.334011 
L 51.139245 203.366753 
L 51.07868 204.399494 
L 51.029557 205.432236 
L 50.989348 206.464977 
L 50.955447 207.497718 
L 50.925382 208.53046 
L 50.896988 209.563201 
L 50.896988 209.563201 
z
" clip-path="url(#pdcb32179f3)" style="fill: none; stroke: #000000; stroke-opacity: 0.3"/>
   </g>
   <g id="FillBetweenPolyCollection_4">
    <path d="M 51.62096 201.033239 
L 49.17904 201.033239 
L 49.052061 199.999545 
L 48.921193 198.965852 
L 48.786613 197.932159 
L 48.648311 196.898465 
L 48.506091 195.864772 
L 48.359581 194.831078 
L 48.208239 193.797385 
L 48.051381 192.763692 
L 47.888193 191.729998 
L 47.717747 190.696305 
L 47.539019 189.662612 
L 47.350894 188.628918 
L 47.152168 187.595225 
L 46.941558 186.561531 
L 46.717693 185.527838 
L 46.479115 184.494145 
L 46.224282 183.460451 
L 45.951564 182.426758 
L 45.659268 181.393065 
L 45.345658 180.359371 
L 45.009002 179.325678 
L 44.647648 178.291984 
L 44.260114 177.258291 
L 43.845206 176.224598 
L 43.40216 175.190904 
L 42.930783 174.157211 
L 42.43159 173.123518 
L 41.905926 172.089824 
L 41.356043 171.056131 
L 40.785128 170.022437 
L 40.197284 168.988744 
L 39.597442 167.955051 
L 38.991225 166.921357 
L 38.384783 165.887664 
L 37.784598 164.853971 
L 37.197286 163.820277 
L 36.629424 162.786584 
L 36.087386 161.75289 
L 35.577214 160.719197 
L 35.104516 159.685504 
L 34.674373 158.65181 
L 34.29125 157.618117 
L 33.958897 156.584424 
L 33.680238 155.55073 
L 33.457236 154.517037 
L 33.290752 153.483343 
L 33.180414 152.44965 
L 33.124518 151.415957 
L 33.12 150.382263 
L 33.162492 149.34857 
L 33.246502 148.314877 
L 33.365706 147.281183 
L 33.513363 146.24749 
L 33.682812 145.213796 
L 33.868021 144.180103 
L 34.064121 143.14641 
L 34.267871 142.112716 
L 34.47799 141.079023 
L 34.695306 140.04533 
L 34.922702 139.011636 
L 35.164837 137.977943 
L 35.427672 136.944249 
L 35.717849 135.910556 
L 36.041972 134.876863 
L 36.405885 133.843169 
L 36.814002 132.809476 
L 37.268766 131.775783 
L 37.770288 130.742089 
L 38.316191 129.708396 
L 38.901662 128.674702 
L 39.519694 127.641009 
L 40.161493 126.607316 
L 40.816991 125.573622 
L 41.475414 124.539929 
L 42.125868 123.506236 
L 42.757891 122.472542 
L 43.361938 121.438849 
L 43.929782 120.405155 
L 44.454815 119.371462 
L 44.932247 118.337769 
L 45.359207 117.304075 
L 45.734752 116.270382 
L 46.059784 115.236689 
L 46.336904 114.202995 
L 46.570189 113.169302 
L 46.764928 112.135608 
L 46.927309 111.101915 
L 47.064087 110.068222 
L 47.182233 109.034528 
L 47.288593 108.000835 
L 47.389567 106.967142 
L 47.490824 105.933448 
L 47.597071 104.899755 
L 47.711879 103.866061 
L 47.83759 102.832368 
L 47.975289 101.798675 
L 48.124865 100.764981 
L 48.285122 99.731288 
L 48.453966 98.697595 
L 52.346034 98.697595 
L 52.346034 98.697595 
L 52.514878 99.731288 
L 52.675135 100.764981 
L 52.824711 101.798675 
L 52.96241 102.832368 
L 53.088121 103.866061 
L 53.202929 104.899755 
L 53.309176 105.933448 
L 53.410433 106.967142 
L 53.511407 108.000835 
L 53.617767 109.034528 
L 53.735913 110.068222 
L 53.872691 111.101915 
L 54.035072 112.135608 
L 54.229811 113.169302 
L 54.463096 114.202995 
L 54.740216 115.236689 
L 55.065248 116.270382 
L 55.440793 117.304075 
L 55.867753 118.337769 
L 56.345185 119.371462 
L 56.870218 120.405155 
L 57.438062 121.438849 
L 58.042109 122.472542 
L 58.674132 123.506236 
L 59.324586 124.539929 
L 59.983009 125.573622 
L 60.638507 126.607316 
L 61.280306 127.641009 
L 61.898338 128.674702 
L 62.483809 129.708396 
L 63.029712 130.742089 
L 63.531234 131.775783 
L 63.985998 132.809476 
L 64.394115 133.843169 
L 64.758028 134.876863 
L 65.082151 135.910556 
L 65.372328 136.944249 
L 65.635163 137.977943 
L 65.877298 139.011636 
L 66.104694 140.04533 
L 66.32201 141.079023 
L 66.532129 142.112716 
L 66.735879 143.14641 
L 66.931979 144.180103 
L 67.117188 145.213796 
L 67.286637 146.24749 
L 67.434294 147.281183 
L 67.553498 148.314877 
L 67.637508 149.34857 
L 67.68 150.382263 
L 67.675482 151.415957 
L 67.619586 152.44965 
L 67.509248 153.483343 
L 67.342764 154.517037 
L 67.119762 155.55073 
L 66.841103 156.584424 
L 66.50875 157.618117 
L 66.125627 158.65181 
L 65.695484 159.685504 
L 65.222786 160.719197 
L 64.712614 161.75289 
L 64.170576 162.786584 
L 63.602714 163.820277 
L 63.015402 164.853971 
L 62.415217 165.887664 
L 61.808775 166.921357 
L 61.202558 167.955051 
L 60.602716 168.988744 
L 60.014872 170.022437 
L 59.443957 171.056131 
L 58.894074 172.089824 
L 58.36841 173.123518 
L 57.869217 174.157211 
L 57.39784 175.190904 
L 56.954794 176.224598 
L 56.539886 177.258291 
L 56.152352 178.291984 
L 55.790998 179.325678 
L 55.454342 180.359371 
L 55.140732 181.393065 
L 54.848436 182.426758 
L 54.575718 183.460451 
L 54.320885 184.494145 
L 54.082307 185.527838 
L 53.858442 186.561531 
L 53.647832 187.595225 
L 53.449106 188.628918 
L 53.260981 189.662612 
L 53.082253 190.696305 
L 52.911807 191.729998 
L 52.748619 192.763692 
L 52.591761 193.797385 
L 52.440419 194.831078 
L 52.293909 195.864772 
L 52.151689 196.898465 
L 52.013387 197.932159 
L 51.878807 198.965852 
L 51.747939 199.999545 
L 51.62096 201.033239 
L 51.62096 201.033239 
z
" clip-path="url(#pdcb32179f3)" style="fill: none; stroke: #000000; stroke-opacity: 0.3"/>
   </g>
   <g id="FillBetweenPolyCollection_5">
    <path d="M 109.072165 199.998568 
L 106.927835 199.998568 
L 106.851043 199.220729 
L 106.773147 198.442889 
L 106.692904 197.66505 
L 106.60883 196.887211 
L 106.519311 196.109372 
L 106.422726 195.331533 
L 106.317551 194.553694 
L 106.202447 193.775855 
L 106.07631 192.998016 
L 105.938279 192.220177 
L 105.787694 191.442337 
L 105.624027 190.664498 
L 105.446771 189.886659 
L 105.255335 189.10882 
L 105.048933 188.330981 
L 104.826507 187.553142 
L 104.586691 186.775303 
L 104.327839 185.997464 
L 104.048101 185.219624 
L 103.745576 184.441785 
L 103.418503 183.663946 
L 103.065499 182.886107 
L 102.685803 182.108268 
L 102.279519 181.330429 
L 101.847816 180.55259 
L 101.393076 179.774751 
L 100.918962 178.996912 
L 100.430397 178.219072 
L 99.933443 177.441233 
L 99.435085 176.663394 
L 98.94294 175.885555 
L 98.464882 175.107716 
L 98.008632 174.329877 
L 97.581332 173.552038 
L 97.189118 172.774199 
L 96.836741 171.996359 
L 96.527251 171.21852 
L 96.261771 170.440681 
L 96.039375 169.662842 
L 95.857091 168.885003 
L 95.710017 168.107164 
L 95.591564 167.329325 
L 95.493796 166.551486 
L 95.407857 165.773647 
L 95.324461 164.995807 
L 95.234408 164.217968 
L 95.129097 163.440129 
L 95.001011 162.66229 
L 94.84414 161.884451 
L 94.654322 161.106612 
L 94.429487 160.328773 
L 94.169783 159.550934 
L 93.877601 158.773094 
L 93.557484 157.995255 
L 93.215927 157.217416 
L 92.8611 156.439577 
L 92.502484 155.661738 
L 92.150458 154.883899 
L 91.815843 154.10606 
L 91.50943 153.328221 
L 91.241516 152.550382 
L 91.021458 151.772542 
L 90.857277 150.994703 
L 90.755319 150.216864 
L 90.72 149.439025 
L 90.753636 148.661186 
L 90.856379 147.883347 
L 91.026253 147.105508 
L 91.259296 146.327669 
L 91.549803 145.54983 
L 91.890662 144.77199 
L 92.273758 143.994151 
L 92.690438 143.216312 
L 93.132001 142.438473 
L 93.590184 141.660634 
L 94.057615 140.882795 
L 94.528202 140.104956 
L 94.997412 139.327117 
L 95.46244 138.549277 
L 95.922224 137.771438 
L 96.377331 136.993599 
L 96.829696 136.21576 
L 97.282251 135.437921 
L 97.73848 134.660082 
L 98.20193 133.882243 
L 98.675735 133.104404 
L 99.162193 132.326565 
L 99.662435 131.548725 
L 100.176223 130.770886 
L 100.701869 129.993047 
L 101.236309 129.215208 
L 101.775287 128.437369 
L 102.313638 127.65953 
L 102.845634 126.881691 
L 103.365363 126.103852 
L 103.867082 125.326012 
L 104.345551 124.548173 
L 104.79628 123.770334 
L 105.215715 122.992495 
L 110.784285 122.992495 
L 110.784285 122.992495 
L 111.20372 123.770334 
L 111.654449 124.548173 
L 112.132918 125.326012 
L 112.634637 126.103852 
L 113.154366 126.881691 
L 113.686362 127.65953 
L 114.224713 128.437369 
L 114.763691 129.215208 
L 115.298131 129.993047 
L 115.823777 130.770886 
L 116.337565 131.548725 
L 116.837807 132.326565 
L 117.324265 133.104404 
L 117.79807 133.882243 
L 118.26152 134.660082 
L 118.717749 135.437921 
L 119.170304 136.21576 
L 119.622669 136.993599 
L 120.077776 137.771438 
L 120.53756 138.549277 
L 121.002588 139.327117 
L 121.471798 140.104956 
L 121.942385 140.882795 
L 122.409816 141.660634 
L 122.867999 142.438473 
L 123.309562 143.216312 
L 123.726242 143.994151 
L 124.109338 144.77199 
L 124.450197 145.54983 
L 124.740704 146.327669 
L 124.973747 147.105508 
L 125.143621 147.883347 
L 125.246364 148.661186 
L 125.28 149.439025 
L 125.244681 150.216864 
L 125.142723 150.994703 
L 124.978542 151.772542 
L 124.758484 152.550382 
L 124.49057 153.328221 
L 124.184157 154.10606 
L 123.849542 154.883899 
L 123.497516 155.661738 
L 123.1389 156.439577 
L 122.784073 157.217416 
L 122.442516 157.995255 
L 122.122399 158.773094 
L 121.830217 159.550934 
L 121.570513 160.328773 
L 121.345678 161.106612 
L 121.15586 161.884451 
L 120.998989 162.66229 
L 120.870903 163.440129 
L 120.765592 164.217968 
L 120.675539 164.995807 
L 120.592143 165.773647 
L 120.506204 166.551486 
L 120.408436 167.329325 
L 120.289983 168.107164 
L 120.142909 168.885003 
L 119.960625 169.662842 
L 119.738229 170.440681 
L 119.472749 171.21852 
L 119.163259 171.996359 
L 118.810882 172.774199 
L 118.418668 173.552038 
L 117.991368 174.329877 
L 117.535118 175.107716 
L 117.05706 175.885555 
L 116.564915 176.663394 
L 116.066557 177.441233 
L 115.569603 178.219072 
L 115.081038 178.996912 
L 114.606924 179.774751 
L 114.152184 180.55259 
L 113.720481 181.330429 
L 113.314197 182.108268 
L 112.934501 182.886107 
L 112.581497 183.663946 
L 112.254424 184.441785 
L 111.951899 185.219624 
L 111.672161 185.997464 
L 111.413309 186.775303 
L 111.173493 187.553142 
L 110.951067 188.330981 
L 110.744665 189.10882 
L 110.553229 189.886659 
L 110.375973 190.664498 
L 110.212306 191.442337 
L 110.061721 192.220177 
L 109.92369 192.998016 
L 109.797553 193.775855 
L 109.682449 194.553694 
L 109.577274 195.331533 
L 109.480689 196.109372 
L 109.39117 196.887211 
L 109.307096 197.66505 
L 109.226853 198.442889 
L 109.148957 199.220729 
L 109.072165 199.998568 
L 109.072165 199.998568 
z
" clip-path="url(#pdcb32179f3)" style="fill: none; stroke: #000000; stroke-opacity: 0.3"/>
   </g>
   <g id="FillBetweenPolyCollection_6">
    <path d="M 108.439358 217.699998 
L 107.560642 217.699998 
L 107.549124 216.483798 
L 107.541385 215.267599 
L 107.535006 214.0514 
L 107.527006 212.835201 
L 107.514166 211.619002 
L 107.493418 210.402802 
L 107.462236 209.186603 
L 107.418987 207.970404 
L 107.363194 206.754205 
L 107.29566 205.538006 
L 107.218442 204.321806 
L 107.134657 203.105607 
L 107.048131 201.889408 
L 106.96293 200.673209 
L 106.88281 199.457009 
L 106.810657 198.24081 
L 106.747978 197.024611 
L 106.694505 195.808412 
L 106.647986 194.592213 
L 106.604175 193.376013 
L 106.557053 192.159814 
L 106.499242 190.943615 
L 106.422577 189.727416 
L 106.318769 188.511217 
L 106.180072 187.295017 
L 105.999883 186.078818 
L 105.773209 184.862619 
L 105.496957 183.64642 
L 105.170023 182.430221 
L 104.793166 181.214021 
L 104.368711 179.997822 
L 103.900083 178.781623 
L 103.391242 177.565424 
L 102.846079 176.349225 
L 102.267841 175.133025 
L 101.658678 173.916826 
L 101.01941 172.700627 
L 100.3496 171.484428 
L 99.647979 170.268229 
L 98.913244 169.052029 
L 98.145171 167.83583 
L 97.345886 166.619631 
L 96.521113 165.403432 
L 95.681128 164.187233 
L 94.841177 162.971033 
L 94.02117 161.754834 
L 93.244562 160.538635 
L 92.536488 159.322436 
L 91.92137 158.106237 
L 91.420351 156.890037 
L 91.048967 155.673838 
L 90.815455 154.457639 
L 90.72 153.24144 
L 90.755046 152.025241 
L 90.906595 150.809041 
L 91.156237 149.592842 
L 91.483538 148.376643 
L 91.868336 147.160444 
L 92.292612 145.944245 
L 92.741658 144.728045 
L 93.204501 143.511846 
L 93.673666 142.295647 
L 94.144496 141.079448 
L 94.614305 139.863248 
L 95.081614 138.647049 
L 95.545647 137.43085 
L 96.006147 136.214651 
L 96.463454 134.998452 
L 96.918731 133.782252 
L 97.374147 132.566053 
L 97.832894 131.349854 
L 98.298928 130.133655 
L 98.776456 128.917456 
L 99.269213 127.701256 
L 99.779697 126.485057 
L 100.308496 125.268858 
L 100.85385 124.052659 
L 101.41155 122.83646 
L 101.975185 121.62026 
L 102.53669 120.404061 
L 103.087103 119.187862 
L 103.617407 117.971663 
L 104.11931 116.755464 
L 104.585891 115.539264 
L 105.012018 114.323065 
L 105.394545 113.106866 
L 105.732288 111.890667 
L 106.025842 110.674468 
L 106.277287 109.458268 
L 106.489854 108.242069 
L 106.667584 107.02587 
L 106.815017 105.809671 
L 106.936928 104.593472 
L 107.0381 103.377272 
L 107.123132 102.161073 
L 107.196271 100.944874 
L 107.261266 99.728675 
L 107.321243 98.512476 
L 107.378609 97.296276 
L 108.621391 97.296276 
L 108.621391 97.296276 
L 108.678757 98.512476 
L 108.738734 99.728675 
L 108.803729 100.944874 
L 108.876868 102.161073 
L 108.9619 103.377272 
L 109.063072 104.593472 
L 109.184983 105.809671 
L 109.332416 107.02587 
L 109.510146 108.242069 
L 109.722713 109.458268 
L 109.974158 110.674468 
L 110.267712 111.890667 
L 110.605455 113.106866 
L 110.987982 114.323065 
L 111.414109 115.539264 
L 111.88069 116.755464 
L 112.382593 117.971663 
L 112.912897 119.187862 
L 113.46331 120.404061 
L 114.024815 121.62026 
L 114.58845 122.83646 
L 115.14615 124.052659 
L 115.691504 125.268858 
L 116.220303 126.485057 
L 116.730787 127.701256 
L 117.223544 128.917456 
L 117.701072 130.133655 
L 118.167106 131.349854 
L 118.625853 132.566053 
L 119.081269 133.782252 
L 119.536546 134.998452 
L 119.993853 136.214651 
L 120.454353 137.43085 
L 120.918386 138.647049 
L 121.385695 139.863248 
L 121.855504 141.079448 
L 122.326334 142.295647 
L 122.795499 143.511846 
L 123.258342 144.728045 
L 123.707388 145.944245 
L 124.131664 147.160444 
L 124.516462 148.376643 
L 124.843763 149.592842 
L 125.093405 150.809041 
L 125.244954 152.025241 
L 125.28 153.24144 
L 125.184545 154.457639 
L 124.951033 155.673838 
L 124.579649 156.890037 
L 124.07863 158.106237 
L 123.463512 159.322436 
L 122.755438 160.538635 
L 121.97883 161.754834 
L 121.158823 162.971033 
L 120.318872 164.187233 
L 119.478887 165.403432 
L 118.654114 166.619631 
L 117.854829 167.83583 
L 117.086756 169.052029 
L 116.352021 170.268229 
L 115.6504 171.484428 
L 114.98059 172.700627 
L 114.341322 173.916826 
L 113.732159 175.133025 
L 113.153921 176.349225 
L 112.608758 177.565424 
L 112.099917 178.781623 
L 111.631289 179.997822 
L 111.206834 181.214021 
L 110.829977 182.430221 
L 110.503043 183.64642 
L 110.226791 184.862619 
L 110.000117 186.078818 
L 109.819928 187.295017 
L 109.681231 188.511217 
L 109.577423 189.727416 
L 109.500758 190.943615 
L 109.442947 192.159814 
L 109.395825 193.376013 
L 109.352014 194.592213 
L 109.305495 195.808412 
L 109.252022 197.024611 
L 109.189343 198.24081 
L 109.11719 199.457009 
L 109.03707 200.673209 
L 108.951869 201.889408 
L 108.865343 203.105607 
L 108.781558 204.321806 
L 108.70434 205.538006 
L 108.636806 206.754205 
L 108.581013 207.970404 
L 108.537764 209.186603 
L 108.506582 210.402802 
L 108.485834 211.619002 
L 108.472994 212.835201 
L 108.464994 214.0514 
L 108.458615 215.267599 
L 108.450876 216.483798 
L 108.439358 217.699998 
L 108.439358 217.699998 
z
" clip-path="url(#pdcb32179f3)" style="fill: none; stroke: #000000; stroke-opacity: 0.3"/>
   </g>
   <g id="FillBetweenPolyCollection_7">
    <path d="M 109.177902 194.848564 
L 106.822098 194.848564 
L 106.645306 193.755878 
L 106.461624 192.663193 
L 106.269894 191.570508 
L 106.067075 190.477822 
L 105.848367 189.385137 
L 105.607708 188.292452 
L 105.338647 187.199767 
L 105.035462 186.107081 
L 104.69434 185.014396 
L 104.314347 183.921711 
L 103.89793 182.829025 
L 103.450731 181.73634 
L 102.980642 180.643655 
L 102.496201 179.550969 
L 102.004624 178.458284 
L 101.509918 177.365599 
L 101.011535 176.272913 
L 100.503979 175.180228 
L 99.977555 174.087543 
L 99.420217 172.994857 
L 98.820188 171.902172 
L 98.168865 170.809487 
L 97.46342 169.716801 
L 96.708586 168.624116 
L 95.91726 167.531431 
L 95.10977 166.438745 
L 94.311892 165.34606 
L 93.55192 164.253375 
L 92.857221 163.160689 
L 92.250827 162.068004 
L 91.748577 160.975319 
L 91.357283 159.882633 
L 91.074221 158.789948 
L 90.88804 157.697263 
L 90.78096 156.604577 
L 90.731898 155.511892 
L 90.72 154.419207 
L 90.727984 153.326521 
L 90.744736 152.233836 
L 90.766722 151.141151 
L 90.798024 150.048465 
L 90.849019 148.95578 
L 90.934009 147.863095 
L 91.068275 146.77041 
L 91.265136 145.677724 
L 91.533584 144.585039 
L 91.876931 143.492354 
L 92.292676 142.399668 
L 92.773529 141.306983 
L 93.309273 140.214298 
L 93.888975 139.121612 
L 94.502998 138.028927 
L 95.144354 136.936242 
L 95.809127 135.843556 
L 96.495963 134.750871 
L 97.204819 133.658186 
L 97.935368 132.5655 
L 98.685468 131.472815 
L 99.450089 130.38013 
L 100.220907 129.287444 
L 100.986646 128.194759 
L 101.734034 127.102074 
L 102.449168 126.009388 
L 103.119005 124.916703 
L 103.732719 123.824018 
L 104.282726 122.731332 
L 104.765272 121.638647 
L 105.180559 120.545962 
L 105.532431 119.453276 
L 105.827716 118.360591 
L 106.075314 117.267906 
L 106.285137 116.17522 
L 106.467039 115.082535 
L 106.629837 113.98985 
L 106.780549 112.897164 
L 106.923948 111.804479 
L 107.06245 110.711794 
L 107.196358 109.619108 
L 107.324363 108.526423 
L 107.444201 107.433738 
L 107.553327 106.341052 
L 107.649483 105.248367 
L 107.731078 104.155682 
L 107.797352 103.062997 
L 107.848344 101.970311 
L 107.884727 100.877626 
L 107.90758 99.784941 
L 107.918188 98.692255 
L 107.917903 97.59957 
L 107.908115 96.506885 
L 107.890293 95.414199 
L 107.866095 94.321514 
L 107.837459 93.228829 
L 107.806659 92.136143 
L 107.776249 91.043458 
L 107.748909 89.950773 
L 107.727192 88.858087 
L 107.713226 87.765402 
L 107.708431 86.672717 
L 108.291569 86.672717 
L 108.291569 86.672717 
L 108.286774 87.765402 
L 108.272808 88.858087 
L 108.251091 89.950773 
L 108.223751 91.043458 
L 108.193341 92.136143 
L 108.162541 93.228829 
L 108.133905 94.321514 
L 108.109707 95.414199 
L 108.091885 96.506885 
L 108.082097 97.59957 
L 108.081812 98.692255 
L 108.09242 99.784941 
L 108.115273 100.877626 
L 108.151656 101.970311 
L 108.202648 103.062997 
L 108.268922 104.155682 
L 108.350517 105.248367 
L 108.446673 106.341052 
L 108.555799 107.433738 
L 108.675637 108.526423 
L 108.803642 109.619108 
L 108.93755 110.711794 
L 109.076052 111.804479 
L 109.219451 112.897164 
L 109.370163 113.98985 
L 109.532961 115.082535 
L 109.714863 116.17522 
L 109.924686 117.267906 
L 110.172284 118.360591 
L 110.467569 119.453276 
L 110.819441 120.545962 
L 111.234728 121.638647 
L 111.717274 122.731332 
L 112.267281 123.824018 
L 112.880995 124.916703 
L 113.550832 126.009388 
L 114.265966 127.102074 
L 115.013354 128.194759 
L 115.779093 129.287444 
L 116.549911 130.38013 
L 117.314532 131.472815 
L 118.064632 132.5655 
L 118.795181 133.658186 
L 119.504037 134.750871 
L 120.190873 135.843556 
L 120.855646 136.936242 
L 121.497002 138.028927 
L 122.111025 139.121612 
L 122.690727 140.214298 
L 123.226471 141.306983 
L 123.707324 142.399668 
L 124.123069 143.492354 
L 124.466416 144.585039 
L 124.734864 145.677724 
L 124.931725 146.77041 
L 125.065991 147.863095 
L 125.150981 148.95578 
L 125.201976 150.048465 
L 125.233278 151.141151 
L 125.255264 152.233836 
L 125.272016 153.326521 
L 125.28 154.419207 
L 125.268102 155.511892 
L 125.21904 156.604577 
L 125.11196 157.697263 
L 124.925779 158.789948 
L 124.642717 159.882633 
L 124.251423 160.975319 
L 123.749173 162.068004 
L 123.142779 163.160689 
L 122.44808 164.253375 
L 121.688108 165.34606 
L 120.89023 166.438745 
L 120.08274 167.531431 
L 119.291414 168.624116 
L 118.53658 169.716801 
L 117.831135 170.809487 
L 117.179812 171.902172 
L 116.579783 172.994857 
L 116.022445 174.087543 
L 115.496021 175.180228 
L 114.988465 176.272913 
L 114.490082 177.365599 
L 113.995376 178.458284 
L 113.503799 179.550969 
L 113.019358 180.643655 
L 112.549269 181.73634 
L 112.10207 182.829025 
L 111.685653 183.921711 
L 111.30566 185.014396 
L 110.964538 186.107081 
L 110.661353 187.199767 
L 110.392292 188.292452 
L 110.151633 189.385137 
L 109.932925 190.477822 
L 109.730106 191.570508 
L 109.538376 192.663193 
L 109.354694 193.755878 
L 109.177902 194.848564 
L 109.177902 194.848564 
z
" clip-path="url(#pdcb32179f3)" style="fill: none; stroke: #000000; stroke-opacity: 0.3"/>
   </g>
   <g id="FillBetweenPolyCollection_8">
    <path d="M 109.118485 223.534339 
L 106.881515 223.534339 
L 106.832842 222.519139 
L 106.789255 221.503939 
L 106.749936 220.488738 
L 106.713543 219.473538 
L 106.678227 218.458337 
L 106.641676 217.443137 
L 106.601203 216.427936 
L 106.553853 215.412736 
L 106.496546 214.397536 
L 106.426234 213.382335 
L 106.340062 212.367135 
L 106.23554 211.351934 
L 106.110686 210.336734 
L 105.964152 209.321534 
L 105.795314 208.306333 
L 105.604314 207.291133 
L 105.39205 206.275932 
L 105.160125 205.260732 
L 104.910736 204.245531 
L 104.646527 203.230331 
L 104.370414 202.215131 
L 104.085386 201.19993 
L 103.794312 200.18473 
L 103.499763 199.169529 
L 103.20386 198.154329 
L 102.908172 197.139129 
L 102.613659 196.123928 
L 102.320676 195.108728 
L 102.029024 194.093527 
L 101.738051 193.078327 
L 101.446785 192.063127 
L 101.154084 191.047926 
L 100.858793 190.032726 
L 100.559885 189.017525 
L 100.256573 188.002325 
L 99.948387 186.987124 
L 99.635203 185.971924 
L 99.317233 184.956724 
L 98.99497 183.941523 
L 98.669102 182.926323 
L 98.340412 181.911122 
L 98.009665 180.895922 
L 97.677511 179.880722 
L 97.3444 178.865521 
L 97.010542 177.850321 
L 96.675889 176.83512 
L 96.34017 175.81992 
L 96.002956 174.804719 
L 95.663758 173.789519 
L 95.322151 172.774319 
L 94.977909 171.759118 
L 94.63113 170.743918 
L 94.282365 169.728717 
L 93.932708 168.713517 
L 93.583864 167.698317 
L 93.238172 166.683116 
L 92.898591 165.667916 
L 92.56864 164.652715 
L 92.252306 163.637515 
L 91.953911 162.622315 
L 91.677967 161.607114 
L 91.429007 160.591914 
L 91.211424 159.576713 
L 91.029309 158.561513 
L 90.886317 157.546312 
L 90.785557 156.531112 
L 90.729513 155.515912 
L 90.72 154.500711 
L 90.758154 153.485511 
L 90.84445 152.47031 
L 90.978739 151.45511 
L 91.160299 150.43991 
L 91.38789 149.424709 
L 91.659803 148.409509 
L 91.973901 147.394308 
L 92.327645 146.379108 
L 92.718115 145.363908 
L 93.142017 144.348707 
L 93.595699 143.333507 
L 94.075171 142.318306 
L 94.576146 141.303106 
L 95.094108 140.287905 
L 95.6244 139.272705 
L 96.162351 138.257505 
L 96.703415 137.242304 
L 97.243329 136.227104 
L 97.778266 135.211903 
L 98.30497 134.196703 
L 98.820867 133.181503 
L 99.324123 132.166302 
L 99.813657 131.151102 
L 100.289094 130.135901 
L 100.750664 129.120701 
L 101.199061 128.1055 
L 101.635264 127.0903 
L 102.060348 126.0751 
L 102.475299 125.059899 
L 102.880847 124.044699 
L 103.27734 123.029498 
L 112.72266 123.029498 
L 112.72266 123.029498 
L 113.119153 124.044699 
L 113.524701 125.059899 
L 113.939652 126.0751 
L 114.364736 127.0903 
L 114.800939 128.1055 
L 115.249336 129.120701 
L 115.710906 130.135901 
L 116.186343 131.151102 
L 116.675877 132.166302 
L 117.179133 133.181503 
L 117.69503 134.196703 
L 118.221734 135.211903 
L 118.756671 136.227104 
L 119.296585 137.242304 
L 119.837649 138.257505 
L 120.3756 139.272705 
L 120.905892 140.287905 
L 121.423854 141.303106 
L 121.924829 142.318306 
L 122.404301 143.333507 
L 122.857983 144.348707 
L 123.281885 145.363908 
L 123.672355 146.379108 
L 124.026099 147.394308 
L 124.340197 148.409509 
L 124.61211 149.424709 
L 124.839701 150.43991 
L 125.021261 151.45511 
L 125.15555 152.47031 
L 125.241846 153.485511 
L 125.28 154.500711 
L 125.270487 155.515912 
L 125.214443 156.531112 
L 125.113683 157.546312 
L 124.970691 158.561513 
L 124.788576 159.576713 
L 124.570993 160.591914 
L 124.322033 161.607114 
L 124.046089 162.622315 
L 123.747694 163.637515 
L 123.43136 164.652715 
L 123.101409 165.667916 
L 122.761828 166.683116 
L 122.416136 167.698317 
L 122.067292 168.713517 
L 121.717635 169.728717 
L 121.36887 170.743918 
L 121.022091 171.759118 
L 120.677849 172.774319 
L 120.336242 173.789519 
L 119.997044 174.804719 
L 119.65983 175.81992 
L 119.324111 176.83512 
L 118.989458 177.850321 
L 118.6556 178.865521 
L 118.322489 179.880722 
L 117.990335 180.895922 
L 117.659588 181.911122 
L 117.330898 182.926323 
L 117.00503 183.941523 
L 116.682767 184.956724 
L 116.364797 185.971924 
L 116.051613 186.987124 
L 115.743427 188.002325 
L 115.440115 189.017525 
L 115.141207 190.032726 
L 114.845916 191.047926 
L 114.553215 192.063127 
L 114.261949 193.078327 
L 113.970976 194.093527 
L 113.679324 195.108728 
L 113.386341 196.123928 
L 113.091828 197.139129 
L 112.79614 198.154329 
L 112.500237 199.169529 
L 112.205688 200.18473 
L 111.914614 201.19993 
L 111.629586 202.215131 
L 111.353473 203.230331 
L 111.089264 204.245531 
L 110.839875 205.260732 
L 110.60795 206.275932 
L 110.395686 207.291133 
L 110.204686 208.306333 
L 110.035848 209.321534 
L 109.889314 210.336734 
L 109.76446 211.351934 
L 109.659938 212.367135 
L 109.573766 213.382335 
L 109.503454 214.397536 
L 109.446147 215.412736 
L 109.398797 216.427936 
L 109.358324 217.443137 
L 109.321773 218.458337 
L 109.286457 219.473538 
L 109.250064 220.488738 
L 109.210745 221.503939 
L 109.167158 222.519139 
L 109.118485 223.534339 
L 109.118485 223.534339 
z
" clip-path="url(#pdcb32179f3)" style="fill: none; stroke: #000000; stroke-opacity: 0.3"/>
   </g>
   <g id="FillBetweenPolyCollection_9">
    <path d="M 109.33598 218.055253 
L 106.66402 218.055253 
L 106.600678 217.096364 
L 106.535362 216.137474 
L 106.46671 215.178585 
L 106.393141 214.219696 
L 106.312891 213.260806 
L 106.224062 212.301917 
L 106.124668 211.343028 
L 106.0127 210.384138 
L 105.886182 209.425249 
L 105.743242 208.46636 
L 105.58217 207.50747 
L 105.401483 206.548581 
L 105.199983 205.589692 
L 104.976801 204.630802 
L 104.731445 203.671913 
L 104.463824 202.713024 
L 104.174272 201.754135 
L 103.863548 200.795245 
L 103.532829 199.836356 
L 103.183684 198.877467 
L 102.818037 197.918577 
L 102.438112 196.959688 
L 102.046375 196.000799 
L 101.645451 195.041909 
L 101.238057 194.08302 
L 100.826908 193.124131 
L 100.414645 192.165241 
L 100.003752 191.206352 
L 99.596492 190.247463 
L 99.19485 189.288574 
L 98.800489 188.329684 
L 98.414724 187.370795 
L 98.038509 186.411906 
L 97.672445 185.453016 
L 97.316795 184.494127 
L 96.971517 183.535238 
L 96.6363 182.576348 
L 96.310614 181.617459 
L 95.993761 180.65857 
L 95.684925 179.69968 
L 95.383224 178.740791 
L 95.087765 177.781902 
L 94.79769 176.823013 
L 94.512227 175.864123 
L 94.230732 174.905234 
L 93.95274 173.946345 
L 93.678004 172.987455 
L 93.406539 172.028566 
L 93.138662 171.069677 
L 92.875025 170.110787 
L 92.616645 169.151898 
L 92.364917 168.193009 
L 92.121618 167.234119 
L 91.888891 166.27523 
L 91.669207 165.316341 
L 91.46531 164.357451 
L 91.280126 163.398562 
L 91.116668 162.439673 
L 90.977904 161.480784 
L 90.866627 160.521894 
L 90.785309 159.563005 
L 90.73596 158.604116 
L 90.72 157.645226 
L 90.738152 156.686337 
L 90.790366 155.727448 
L 90.875777 154.768558 
L 90.992717 153.809669 
L 91.138758 152.85078 
L 91.310817 151.89189 
L 91.505291 150.933001 
L 91.718235 149.974112 
L 91.945562 149.015223 
L 92.183258 148.056333 
L 92.427597 147.097444 
L 92.675344 146.138555 
L 92.923929 145.179665 
L 93.171587 144.220776 
L 93.417447 143.261887 
L 93.661571 142.302997 
L 93.904935 141.344108 
L 94.149354 140.385219 
L 94.397363 139.426329 
L 94.652045 138.46744 
L 94.916838 137.508551 
L 95.195315 136.549662 
L 95.490958 135.590772 
L 95.80694 134.631883 
L 96.145927 133.672994 
L 96.509905 132.714104 
L 96.90005 131.755215 
L 97.316641 130.796326 
L 97.759017 129.837436 
L 98.225583 128.878547 
L 98.713867 127.919658 
L 99.220605 126.960768 
L 99.74187 126.001879 
L 100.273221 125.04299 
L 100.809866 124.0841 
L 101.346836 123.125211 
L 114.653164 123.125211 
L 114.653164 123.125211 
L 115.190134 124.0841 
L 115.726779 125.04299 
L 116.25813 126.001879 
L 116.779395 126.960768 
L 117.286133 127.919658 
L 117.774417 128.878547 
L 118.240983 129.837436 
L 118.683359 130.796326 
L 119.09995 131.755215 
L 119.490095 132.714104 
L 119.854073 133.672994 
L 120.19306 134.631883 
L 120.509042 135.590772 
L 120.804685 136.549662 
L 121.083162 137.508551 
L 121.347955 138.46744 
L 121.602637 139.426329 
L 121.850646 140.385219 
L 122.095065 141.344108 
L 122.338429 142.302997 
L 122.582553 143.261887 
L 122.828413 144.220776 
L 123.076071 145.179665 
L 123.324656 146.138555 
L 123.572403 147.097444 
L 123.816742 148.056333 
L 124.054438 149.015223 
L 124.281765 149.974112 
L 124.494709 150.933001 
L 124.689183 151.89189 
L 124.861242 152.85078 
L 125.007283 153.809669 
L 125.124223 154.768558 
L 125.209634 155.727448 
L 125.261848 156.686337 
L 125.28 157.645226 
L 125.26404 158.604116 
L 125.214691 159.563005 
L 125.133373 160.521894 
L 125.022096 161.480784 
L 124.883332 162.439673 
L 124.719874 163.398562 
L 124.53469 164.357451 
L 124.330793 165.316341 
L 124.111109 166.27523 
L 123.878382 167.234119 
L 123.635083 168.193009 
L 123.383355 169.151898 
L 123.124975 170.110787 
L 122.861338 171.069677 
L 122.593461 172.028566 
L 122.321996 172.987455 
L 122.04726 173.946345 
L 121.769268 174.905234 
L 121.487773 175.864123 
L 121.20231 176.823013 
L 120.912235 177.781902 
L 120.616776 178.740791 
L 120.315075 179.69968 
L 120.006239 180.65857 
L 119.689386 181.617459 
L 119.3637 182.576348 
L 119.028483 183.535238 
L 118.683205 184.494127 
L 118.327555 185.453016 
L 117.961491 186.411906 
L 117.585276 187.370795 
L 117.199511 188.329684 
L 116.80515 189.288574 
L 116.403508 190.247463 
L 115.996248 191.206352 
L 115.585355 192.165241 
L 115.173092 193.124131 
L 114.761943 194.08302 
L 114.354549 195.041909 
L 113.953625 196.000799 
L 113.561888 196.959688 
L 113.181963 197.918577 
L 112.816316 198.877467 
L 112.467171 199.836356 
L 112.136452 200.795245 
L 111.825728 201.754135 
L 111.536176 202.713024 
L 111.268555 203.671913 
L 111.023199 204.630802 
L 110.800017 205.589692 
L 110.598517 206.548581 
L 110.41783 207.50747 
L 110.256758 208.46636 
L 110.113818 209.425249 
L 109.9873 210.384138 
L 109.875332 211.343028 
L 109.775938 212.301917 
L 109.687109 213.260806 
L 109.606859 214.219696 
L 109.53329 215.178585 
L 109.464638 216.137474 
L 109.399322 217.096364 
L 109.33598 218.055253 
L 109.33598 218.055253 
z
" clip-path="url(#pdcb32179f3)" style="fill: none; stroke: #000000; stroke-opacity: 0.3"/>
   </g>
   <g id="FillBetweenPolyCollection_10">
    <path d="M 109.56347 215.993073 
L 106.43653 215.993073 
L 106.27384 214.82099 
L 106.096386 213.648908 
L 105.902587 212.476825 
L 105.690921 211.304743 
L 105.460012 210.13266 
L 105.208703 208.960578 
L 104.936117 207.788495 
L 104.641707 206.616413 
L 104.32527 205.44433 
L 103.986947 204.272248 
L 103.627203 203.100165 
L 103.246789 201.928082 
L 102.846688 200.756 
L 102.428064 199.583917 
L 101.992214 198.411835 
L 101.540529 197.239752 
L 101.07446 196.06767 
L 100.595514 194.895587 
L 100.10525 193.723505 
L 99.605297 192.551422 
L 99.097372 191.37934 
L 98.583306 190.207257 
L 98.065061 189.035175 
L 97.544743 187.863092 
L 97.024607 186.69101 
L 96.50705 185.518927 
L 95.994588 184.346845 
L 95.489845 183.174762 
L 94.995519 182.00268 
L 94.514364 180.830597 
L 94.049176 179.658515 
L 93.602777 178.486432 
L 93.178016 177.31435 
L 92.777766 176.142267 
L 92.40492 174.970185 
L 92.06238 173.798102 
L 91.753026 172.62602 
L 91.479668 171.453937 
L 91.244968 170.281855 
L 91.051342 169.109772 
L 90.900832 167.93769 
L 90.794976 166.765607 
L 90.73466 165.593525 
L 90.72 164.421442 
L 90.750235 163.249359 
L 90.823671 162.077277 
L 90.937678 160.905194 
L 91.088738 159.733112 
L 91.27257 158.561029 
L 91.484297 157.388947 
L 91.718671 156.216864 
L 91.970323 155.044782 
L 92.234033 153.872699 
L 92.504986 152.700617 
L 92.779004 151.528534 
L 93.052739 150.356452 
L 93.323803 149.184369 
L 93.590843 148.012287 
L 93.853536 146.840204 
L 94.11254 145.668122 
L 94.369375 144.496039 
L 94.626271 143.323957 
L 94.885978 142.151874 
L 95.151567 140.979792 
L 95.426223 139.807709 
L 95.71305 138.635627 
L 96.014894 137.463544 
L 96.334186 136.291462 
L 96.672822 135.119379 
L 97.032067 133.947297 
L 97.412492 132.775214 
L 97.813942 131.603132 
L 98.235532 130.431049 
L 98.675664 129.258967 
L 99.132072 128.086884 
L 99.601885 126.914802 
L 100.081707 125.742719 
L 100.567716 124.570636 
L 101.055772 123.398554 
L 101.541541 122.226471 
L 102.020618 121.054389 
L 102.48867 119.882306 
L 102.941559 118.710224 
L 103.375479 117.538141 
L 103.787074 116.366059 
L 104.173543 115.193976 
L 104.532726 114.021894 
L 104.863169 112.849811 
L 105.164151 111.677729 
L 105.435693 110.505646 
L 105.678524 109.333564 
L 105.894017 108.161481 
L 106.084104 106.989399 
L 106.251158 105.817316 
L 106.397861 104.645234 
L 106.527067 103.473151 
L 106.641656 102.301069 
L 106.744405 101.128986 
L 106.837868 99.956904 
L 109.162132 99.956904 
L 109.162132 99.956904 
L 109.255595 101.128986 
L 109.358344 102.301069 
L 109.472933 103.473151 
L 109.602139 104.645234 
L 109.748842 105.817316 
L 109.915896 106.989399 
L 110.105983 108.161481 
L 110.321476 109.333564 
L 110.564307 110.505646 
L 110.835849 111.677729 
L 111.136831 112.849811 
L 111.467274 114.021894 
L 111.826457 115.193976 
L 112.212926 116.366059 
L 112.624521 117.538141 
L 113.058441 118.710224 
L 113.51133 119.882306 
L 113.979382 121.054389 
L 114.458459 122.226471 
L 114.944228 123.398554 
L 115.432284 124.570636 
L 115.918293 125.742719 
L 116.398115 126.914802 
L 116.867928 128.086884 
L 117.324336 129.258967 
L 117.764468 130.431049 
L 118.186058 131.603132 
L 118.587508 132.775214 
L 118.967933 133.947297 
L 119.327178 135.119379 
L 119.665814 136.291462 
L 119.985106 137.463544 
L 120.28695 138.635627 
L 120.573777 139.807709 
L 120.848433 140.979792 
L 121.114022 142.151874 
L 121.373729 143.323957 
L 121.630625 144.496039 
L 121.88746 145.668122 
L 122.146464 146.840204 
L 122.409157 148.012287 
L 122.676197 149.184369 
L 122.947261 150.356452 
L 123.220996 151.528534 
L 123.495014 152.700617 
L 123.765967 153.872699 
L 124.029677 155.044782 
L 124.281329 156.216864 
L 124.515703 157.388947 
L 124.72743 158.561029 
L 124.911262 159.733112 
L 125.062322 160.905194 
L 125.176329 162.077277 
L 125.249765 163.249359 
L 125.28 164.421442 
L 125.26534 165.593525 
L 125.205024 166.765607 
L 125.099168 167.93769 
L 124.948658 169.109772 
L 124.755032 170.281855 
L 124.520332 171.453937 
L 124.246974 172.62602 
L 123.93762 173.798102 
L 123.59508 174.970185 
L 123.222234 176.142267 
L 122.821984 177.31435 
L 122.397223 178.486432 
L 121.950824 179.658515 
L 121.485636 180.830597 
L 121.004481 182.00268 
L 120.510155 183.174762 
L 120.005412 184.346845 
L 119.49295 185.518927 
L 118.975393 186.69101 
L 118.455257 187.863092 
L 117.934939 189.035175 
L 117.416694 190.207257 
L 116.902628 191.37934 
L 116.394703 192.551422 
L 115.89475 193.723505 
L 115.404486 194.895587 
L 114.92554 196.06767 
L 114.459471 197.239752 
L 114.007786 198.411835 
L 113.571936 199.583917 
L 113.153312 200.756 
L 112.753211 201.928082 
L 112.372797 203.100165 
L 112.013053 204.272248 
L 111.67473 205.44433 
L 111.358293 206.616413 
L 111.063883 207.788495 
L 110.791297 208.960578 
L 110.539988 210.13266 
L 110.309079 211.304743 
L 110.097413 212.476825 
L 109.903614 213.648908 
L 109.72616 214.82099 
L 109.56347 215.993073 
L 109.56347 215.993073 
z
" clip-path="url(#pdcb32179f3)" style="fill: none; stroke: #000000; stroke-opacity: 0.3"/>
   </g>
   <g id="FillBetweenPolyCollection_11">
    <path d="M 108.317149 241.791797 
L 107.682851 241.791797 
L 107.684057 239.845932 
L 107.694802 237.900067 
L 107.711517 235.954202 
L 107.729544 234.008336 
L 107.744021 232.062471 
L 107.75079 230.116606 
L 107.747099 228.170741 
L 107.731935 226.224876 
L 107.70589 224.279011 
L 107.670587 222.333145 
L 107.627818 220.38728 
L 107.578616 218.441415 
L 107.522529 216.49555 
L 107.457338 214.549685 
L 107.379326 212.603819 
L 107.28408 210.657954 
L 107.167636 208.712089 
L 107.027649 206.766224 
L 106.864255 204.820359 
L 106.680344 202.874494 
L 106.481096 200.928628 
L 106.272777 198.982763 
L 106.060975 197.036898 
L 105.848524 195.091033 
L 105.633485 193.145168 
L 105.40758 191.199302 
L 105.155475 189.253437 
L 104.855294 187.307572 
L 104.480607 185.361707 
L 104.00388 183.415842 
L 103.401052 181.469977 
L 102.656489 179.524111 
L 101.767264 177.578246 
L 100.745642 175.632381 
L 99.618907 173.686516 
L 98.426285 171.740651 
L 97.213534 169.794786 
L 96.02652 167.84892 
L 94.9055 165.903055 
L 93.881691 163.95719 
L 92.976933 162.011325 
L 92.206183 160.06546 
L 91.581498 158.119594 
L 91.115598 156.173729 
L 90.8233 154.227864 
L 90.72 152.281999 
L 90.817696 150.336134 
L 91.120144 148.390269 
L 91.619201 146.444403 
L 92.293985 144.498538 
L 93.113366 142.552673 
L 94.041003 140.606808 
L 95.041183 138.660943 
L 96.083513 136.715077 
L 97.145103 134.769212 
L 98.209925 132.823347 
L 99.266092 130.877482 
L 100.302464 128.931617 
L 101.306005 126.985752 
L 102.260876 125.039886 
L 103.14945 123.094021 
L 103.954765 121.148156 
L 104.663479 119.202291 
L 105.268325 117.256426 
L 105.769339 115.310561 
L 106.173538 113.364695 
L 106.493218 111.41883 
L 106.743419 109.472965 
L 106.939239 107.5271 
L 107.093669 105.581235 
L 107.216393 103.635369 
L 107.313662 101.689504 
L 107.389041 99.743639 
L 107.444619 97.797774 
L 107.482205 95.851909 
L 107.50415 93.906044 
L 107.513641 91.960178 
L 107.514509 90.014313 
L 107.510784 88.068448 
L 107.506221 86.122583 
L 107.503986 84.176718 
L 107.506525 82.230853 
L 107.515559 80.284987 
L 107.532085 78.339122 
L 107.556306 76.393257 
L 107.587482 74.447392 
L 107.623812 72.501527 
L 107.662453 70.555661 
L 107.699776 68.609796 
L 107.731876 66.663931 
L 107.755251 64.718066 
L 107.767506 62.772201 
L 107.767916 60.826336 
L 107.757698 58.88047 
L 107.739908 56.934605 
L 107.718968 54.98874 
L 107.699885 53.042875 
L 107.687351 51.09701 
L 107.68488 49.151144 
L 108.31512 49.151144 
L 108.31512 49.151144 
L 108.312649 51.09701 
L 108.300115 53.042875 
L 108.281032 54.98874 
L 108.260092 56.934605 
L 108.242302 58.88047 
L 108.232084 60.826336 
L 108.232494 62.772201 
L 108.244749 64.718066 
L 108.268124 66.663931 
L 108.300224 68.609796 
L 108.337547 70.555661 
L 108.376188 72.501527 
L 108.412518 74.447392 
L 108.443694 76.393257 
L 108.467915 78.339122 
L 108.484441 80.284987 
L 108.493475 82.230853 
L 108.496014 84.176718 
L 108.493779 86.122583 
L 108.489216 88.068448 
L 108.485491 90.014313 
L 108.486359 91.960178 
L 108.49585 93.906044 
L 108.517795 95.851909 
L 108.555381 97.797774 
L 108.610959 99.743639 
L 108.686338 101.689504 
L 108.783607 103.635369 
L 108.906331 105.581235 
L 109.060761 107.5271 
L 109.256581 109.472965 
L 109.506782 111.41883 
L 109.826462 113.364695 
L 110.230661 115.310561 
L 110.731675 117.256426 
L 111.336521 119.202291 
L 112.045235 121.148156 
L 112.85055 123.094021 
L 113.739124 125.039886 
L 114.693995 126.985752 
L 115.697536 128.931617 
L 116.733908 130.877482 
L 117.790075 132.823347 
L 118.854897 134.769212 
L 119.916487 136.715077 
L 120.958817 138.660943 
L 121.958997 140.606808 
L 122.886634 142.552673 
L 123.706015 144.498538 
L 124.380799 146.444403 
L 124.879856 148.390269 
L 125.182304 150.336134 
L 125.28 152.281999 
L 125.1767 154.227864 
L 124.884402 156.173729 
L 124.418502 158.119594 
L 123.793817 160.06546 
L 123.023067 162.011325 
L 122.118309 163.95719 
L 121.0945 165.903055 
L 119.97348 167.84892 
L 118.786466 169.794786 
L 117.573715 171.740651 
L 116.381093 173.686516 
L 115.254358 175.632381 
L 114.232736 177.578246 
L 113.343511 179.524111 
L 112.598948 181.469977 
L 111.99612 183.415842 
L 111.519393 185.361707 
L 111.144706 187.307572 
L 110.844525 189.253437 
L 110.59242 191.199302 
L 110.366515 193.145168 
L 110.151476 195.091033 
L 109.939025 197.036898 
L 109.727223 198.982763 
L 109.518904 200.928628 
L 109.319656 202.874494 
L 109.135745 204.820359 
L 108.972351 206.766224 
L 108.832364 208.712089 
L 108.71592 210.657954 
L 108.620674 212.603819 
L 108.542662 214.549685 
L 108.477471 216.49555 
L 108.421384 218.441415 
L 108.372182 220.38728 
L 108.329413 222.333145 
L 108.29411 224.279011 
L 108.268065 226.224876 
L 108.252901 228.170741 
L 108.24921 230.116606 
L 108.255979 232.062471 
L 108.270456 234.008336 
L 108.288483 235.954202 
L 108.305198 237.900067 
L 108.315943 239.845932 
L 108.317149 241.791797 
L 108.317149 241.791797 
z
" clip-path="url(#pdcb32179f3)" style="fill: none; stroke: #000000; stroke-opacity: 0.3"/>
   </g>
   <g id="matplotlib.axis_1"/>
   <g id="matplotlib.axis_2">
    <g id="ytick_1">
     <g id="line2d_1">
      <defs>
       <path id="ma99f202ecc" d="M 0 0 
L -3.5 0 
" style="stroke: #000000; stroke-width: 0.8"/>
      </defs>
      <g>
       <use xlink:href="#ma99f202ecc" x="21.6" y="291.6" style="stroke: #000000; stroke-width: 0.8"/>
      </g>
     </g>
    </g>
    <g id="ytick_2">
     <g id="line2d_2">
      <g>
       <use xlink:href="#ma99f202ecc" x="21.6" y="199.8" style="stroke: #000000; stroke-width: 0.8"/>
      </g>
     </g>
    </g>
    <g id="ytick_3">
     <g id="line2d_3">
      <g>
       <use xlink:href="#ma99f202ecc" x="21.6" y="108" style="stroke: #000000; stroke-width: 0.8"/>
      </g>
     </g>
    </g>
    <g id="ytick_4">
     <g id="line2d_4">
      <g>
       <use xlink:href="#ma99f202ecc" x="21.6" y="16.2" style="stroke: #000000; stroke-width: 0.8"/>
      </g>
     </g>
    </g>
   </g>
   <g id="line2d_5">
    <path d="M 50.4 269.568 
L 50.4 264.06 
" clip-path="url(#pdcb32179f3)" style="fill: none; stroke: #000000; stroke-linecap: square"/>
   </g>
   <g id="line2d_6">
    <path d="M 50.4 269.568 
L 108 269.568 
" clip-path="url(#pdcb32179f3)" style="fill: none; stroke: #000000; stroke-linecap: square"/>
   </g>
   <g id="line2d_7">
    <path d="M 108 269.568 
L 108 264.06 
" clip-path="url(#pdcb32179f3)" style="fill: none; stroke: #000000; stroke-linecap: square"/>
   </g>
   <g id="patch_3">
    <path d="M 21.6 291.6 
L 21.6 16.2 
" style="fill: none; stroke: #000000; stroke-width: 0.8; stroke-linejoin: miter; stroke-linecap: square"/>
   </g>
   <g id="patch_4">
    <path d="M 136.8 291.6 
L 136.8 16.2 
" style="fill: none; stroke: #000000; stroke-width: 0.8; stroke-linejoin: miter; stroke-linecap: square"/>
   </g>
   <g id="patch_5">
    <path d="M 21.6 291.6 
L 136.8 291.6 
" style="fill: none; stroke: #000000; stroke-width: 0.8; stroke-linejoin: miter; stroke-linecap: square"/>
   </g>
   <g id="patch_6">
    <path d="M 21.6 16.2 
L 136.8 16.2 
" style="fill: none; stroke: #000000; stroke-width: 0.8; stroke-linejoin: miter; stroke-linecap: square"/>
   </g>
   <g id="text_1">
    <text style="font-weight: 700; font-size: 12px; font-family: 'DejaVu Sans', 'Bitstream Vera Sans', 'Computer Modern Sans Serif', 'Lucida Grande', 'Verdana', 'Geneva', 'Lucid', 'Arial', 'Helvetica', 'Avant Garde', sans-serif; text-anchor: middle" x="50.4" y="289.104375" transform="rotate(-0 50.4 289.104375)">#22</text>
   </g>
   <g id="text_2">
    <text style="font-weight: 700; font-size: 12px; font-family: 'DejaVu Sans', 'Bitstream Vera Sans', 'Computer Modern Sans Serif', 'Lucida Grande', 'Verdana', 'Geneva', 'Lucid', 'Arial', 'Helvetica', 'Avant Garde', sans-serif; text-anchor: middle" x="108" y="289.104375" transform="rotate(-0 108 289.104375)">#28</text>
   </g>
   <g id="text_3">
    <text style="font-size: 12px; font-family: 'DejaVu Sans', 'Bitstream Vera Sans', 'Computer Modern Sans Serif', 'Lucida Grande', 'Verdana', 'Geneva', 'Lucid', 'Arial', 'Helvetica', 'Avant Garde', sans-serif; text-anchor: middle" x="79.2" y="268.449375" transform="rotate(-0 79.2 268.449375)">**</text>
   </g>
   <g id="line2d_8">
    <path d="M 21.6 145.832862 
L 136.8 145.832862 
" clip-path="url(#pdcb32179f3)" style="fill: none; stroke-dasharray: 3.7,1.6; stroke-dashoffset: 0; stroke: #808080; stroke-opacity: 0.7"/>
   </g>
   <g id="line2d_9">
    <path d="M 21.6 155.291927 
L 136.8 155.291927 
" clip-path="url(#pdcb32179f3)" style="fill: none; stroke-dasharray: 3.7,1.6; stroke-dashoffset: 0; stroke: #808080; stroke-opacity: 0.7"/>
   </g>
   <g id="LineCollection_1">
    <path d="M 50.4 148.916626 
L 50.4 142.749098 
" clip-path="url(#pdcb32179f3)" style="fill: none; stroke: #000000; stroke-width: 2"/>
   </g>
   <g id="line2d_10">
    <defs>
     <path id="m774f6a440e" d="M 5 0 
L -5 -0 
" style="stroke: #000000; stroke-width: 2"/>
    </defs>
    <g clip-path="url(#pdcb32179f3)">
     <use xlink:href="#m774f6a440e" x="50.4" y="148.916626" style="stroke: #000000; stroke-width: 2"/>
    </g>
   </g>
   <g id="line2d_11">
    <g clip-path="url(#pdcb32179f3)">
     <use xlink:href="#m774f6a440e" x="50.4" y="142.749098" style="stroke: #000000; stroke-width: 2"/>
    </g>
   </g>
   <g id="LineCollection_2">
    <path d="M 108 159.153528 
L 108 151.430327 
" clip-path="url(#pdcb32179f3)" style="fill: none; stroke: #000000; stroke-width: 2"/>
   </g>
   <g id="line2d_12">
    <g clip-path="url(#pdcb32179f3)">
     <use xlink:href="#m774f6a440e" x="108" y="159.153528" style="stroke: #000000; stroke-width: 2"/>
    </g>
   </g>
   <g id="line2d_13">
    <g clip-path="url(#pdcb32179f3)">
     <use xlink:href="#m774f6a440e" x="108" y="151.430327" style="stroke: #000000; stroke-width: 2"/>
    </g>
   </g>
   <g id="line2d_14">
    <defs>
     <path id="m50693fd191" d="M 0 4 
C 1.060812 4 2.078319 3.578535 2.828427 2.828427 
C 3.578535 2.078319 4 1.060812 4 0 
C 4 -1.060812 3.578535 -2.078319 2.828427 -2.828427 
C 2.078319 -3.578535 1.060812 -4 0 -4 
C -1.060812 -4 -2.078319 -3.578535 -2.828427 -2.828427 
C -3.578535 -2.078319 -4 -1.060812 -4 0 
C -4 1.060812 -3.578535 2.078319 -2.828427 2.828427 
C -2.078319 3.578535 -1.060812 4 0 4 
z
" style="stroke: #000000"/>
    </defs>
    <g clip-path="url(#pdcb32179f3)">
     <use xlink:href="#m50693fd191" x="50.4" y="145.832862" style="stroke: #000000"/>
    </g>
   </g>
   <g id="line2d_15">
    <g clip-path="url(#pdcb32179f3)">
     <use xlink:href="#m50693fd191" x="108" y="155.291927" style="stroke: #000000"/>
    </g>
   </g>
  </g>
 </g>
 <defs>
  <clipPath id="pdcb32179f3">
   <rect x="21.6" y="16.2" width="115.2" height="275.4"/>
  </clipPath>
 </defs>
</svg>
