<?xml version="1.0" encoding="utf-8" standalone="no"?>
<!DOCTYPE svg PUBLIC "-//W3C//DTD SVG 1.1//EN"
  "http://www.w3.org/Graphics/SVG/1.1/DTD/svg11.dtd">
<svg xmlns:xlink="http://www.w3.org/1999/xlink" width="144pt" height="324pt" viewBox="0 0 144 324" xmlns="http://www.w3.org/2000/svg" version="1.1">
 <metadata>
  <rdf:RDF xmlns:dc="http://purl.org/dc/elements/1.1/" xmlns:cc="http://creativecommons.org/ns#" xmlns:rdf="http://www.w3.org/1999/02/22-rdf-syntax-ns#">
   <cc:Work>
    <dc:type rdf:resource="http://purl.org/dc/dcmitype/StillImage"/>
    <dc:date>2025-12-08T20:11:00.463037</dc:date>
    <dc:format>image/svg+xml</dc:format>
    <dc:creator>
     <cc:Agent>
      <dc:title>Matplotlib v3.10.0, https://matplotlib.org/</dc:title>
     </cc:Agent>
    </dc:creator>
   </cc:Work>
  </rdf:RDF>
 </metadata>
 <defs>
  <style type="text/css">*{stroke-linejoin: round; stroke-linecap: butt}</style>
 </defs>
 <g id="figure_1">
  <g id="patch_1">
   <path d="M 0 324 
L 144 324 
L 144 0 
L 0 0 
z
" style="fill: #ffffff"/>
  </g>
  <g id="axes_1">
   <g id="patch_2">
    <path d="M 21.6 291.6 
L 136.8 291.6 
L 136.8 16.2 
L 21.6 16.2 
z
" style="fill: #ffffff"/>
   </g>
   <g id="FillBetweenPolyCollection_1">
    <path d="M 47.546316 210.345257 
L 45.399138 210.345257 
L 45.274986 208.864224 
L 45.144019 207.383191 
L 45.005815 205.902158 
L 44.859995 204.421125 
L 44.706353 202.940092 
L 44.544997 201.459059 
L 44.376448 199.978026 
L 44.201692 198.496993 
L 44.022153 197.01596 
L 43.839576 195.534927 
L 43.65582 194.053894 
L 43.472566 192.572861 
L 43.290969 191.091828 
L 43.111285 189.610795 
L 42.932525 188.129762 
L 42.752173 186.648729 
L 42.566021 185.167696 
L 42.368159 183.686663 
L 42.15113 182.20563 
L 41.906275 180.724597 
L 41.624241 179.243564 
L 41.295619 177.762531 
L 40.911682 176.281498 
L 40.465152 174.800465 
L 39.950931 173.319432 
L 39.366731 171.838399 
L 38.713532 170.357366 
L 37.995812 168.876333 
L 37.221513 167.3953 
L 36.401714 165.914267 
L 35.550031 164.433234 
L 34.681791 162.952201 
L 33.813049 161.471168 
L 32.959559 159.990135 
L 32.135794 158.509102 
L 31.354159 157.028069 
L 30.624456 155.547036 
L 29.95368 154.066003 
L 29.346145 152.58497 
L 28.803913 151.103937 
L 28.327433 149.622904 
L 27.916291 148.141871 
L 27.569932 146.660838 
L 27.288261 145.179805 
L 27.072016 143.698772 
L 26.922885 142.217739 
L 26.843358 140.736706 
L 26.836364 139.255673 
L 26.904768 137.77464 
L 27.050825 136.293607 
L 27.27567 134.812574 
L 27.578942 133.331541 
L 27.958555 131.850508 
L 28.410654 130.369475 
L 28.929729 128.888442 
L 29.508841 127.407409 
L 30.139926 125.926376 
L 30.814114 124.445343 
L 31.52205 122.96431 
L 32.254178 121.483277 
L 33.001015 120.002244 
L 33.753402 118.521211 
L 34.502763 117.040178 
L 35.241379 115.559145 
L 35.962655 114.078112 
L 36.661384 112.597079 
L 37.33394 111.116046 
L 37.978388 109.635013 
L 38.594443 108.15398 
L 39.183274 106.672947 
L 39.747153 105.191914 
L 40.288964 103.710881 
L 40.811648 102.229848 
L 41.317634 100.748815 
L 41.808366 99.267782 
L 42.283957 97.786749 
L 42.743051 96.305716 
L 43.182889 94.824683 
L 43.599572 93.34365 
L 43.988475 91.862617 
L 44.344751 90.381584 
L 44.663854 88.900551 
L 44.942023 87.419518 
L 45.176662 85.938485 
L 45.366613 84.457452 
L 45.512285 82.976419 
L 45.615662 81.495386 
L 45.680206 80.014353 
L 45.710666 78.53332 
L 45.712833 77.052287 
L 45.693237 75.571254 
L 45.658816 74.090221 
L 45.616567 72.609188 
L 45.573186 71.128155 
L 45.534724 69.647122 
L 45.50628 68.166089 
L 45.491743 66.685056 
L 45.493632 65.204023 
L 45.513019 63.72299 
L 47.432436 63.72299 
L 47.432436 63.72299 
L 47.451823 65.204023 
L 47.453711 66.685056 
L 47.439175 68.166089 
L 47.41073 69.647122 
L 47.372269 71.128155 
L 47.328888 72.609188 
L 47.286639 74.090221 
L 47.252218 75.571254 
L 47.232622 77.052287 
L 47.234788 78.53332 
L 47.265249 80.014353 
L 47.329792 81.495386 
L 47.43317 82.976419 
L 47.578842 84.457452 
L 47.768793 85.938485 
L 48.003432 87.419518 
L 48.2816 88.900551 
L 48.600704 90.381584 
L 48.95698 91.862617 
L 49.345883 93.34365 
L 49.762565 94.824683 
L 50.202403 96.305716 
L 50.661497 97.786749 
L 51.137088 99.267782 
L 51.62782 100.748815 
L 52.133807 102.229848 
L 52.65649 103.710881 
L 53.198302 105.191914 
L 53.762181 106.672947 
L 54.351012 108.15398 
L 54.967066 109.635013 
L 55.611514 111.116046 
L 56.284071 112.597079 
L 56.982799 114.078112 
L 57.704076 115.559145 
L 58.442691 117.040178 
L 59.192053 118.521211 
L 59.94444 120.002244 
L 60.691277 121.483277 
L 61.423405 122.96431 
L 62.13134 124.445343 
L 62.805528 125.926376 
L 63.436613 127.407409 
L 64.015726 128.888442 
L 64.5348 130.369475 
L 64.9869 131.850508 
L 65.366512 133.331541 
L 65.669784 134.812574 
L 65.89463 136.293607 
L 66.040686 137.77464 
L 66.109091 139.255673 
L 66.102097 140.736706 
L 66.02257 142.217739 
L 65.873439 143.698772 
L 65.657194 145.179805 
L 65.375522 146.660838 
L 65.029163 148.141871 
L 64.618021 149.622904 
L 64.141542 151.103937 
L 63.59931 152.58497 
L 62.991775 154.066003 
L 62.320998 155.547036 
L 61.591295 157.028069 
L 60.809661 158.509102 
L 59.985896 159.990135 
L 59.132405 161.471168 
L 58.263664 162.952201 
L 57.395424 164.433234 
L 56.543741 165.914267 
L 55.723941 167.3953 
L 54.949642 168.876333 
L 54.231923 170.357366 
L 53.578723 171.838399 
L 52.994523 173.319432 
L 52.480302 174.800465 
L 52.033773 176.281498 
L 51.649836 177.762531 
L 51.321213 179.243564 
L 51.039179 180.724597 
L 50.794325 182.20563 
L 50.577296 183.686663 
L 50.379433 185.167696 
L 50.193282 186.648729 
L 50.012929 188.129762 
L 49.834169 189.610795 
L 49.654486 191.091828 
L 49.472888 192.572861 
L 49.289634 194.053894 
L 49.105878 195.534927 
L 48.923301 197.01596 
L 48.743762 198.496993 
L 48.569006 199.978026 
L 48.400458 201.459059 
L 48.239102 202.940092 
L 48.08546 204.421125 
L 47.939639 205.902158 
L 47.801435 207.383191 
L 47.670468 208.864224 
L 47.546316 210.345257 
L 47.546316 210.345257 
z
" clip-path="url(#p569e15b50b)" style="fill: none; stroke: #000000; stroke-opacity: 0.3"/>
   </g>
   <g id="FillBetweenPolyCollection_2">
    <path d="M 47.127453 213.228539 
L 45.818002 213.228539 
L 45.727018 211.508704 
L 45.63743 209.788868 
L 45.54876 208.069033 
L 45.458935 206.349197 
L 45.364453 204.629362 
L 45.260866 202.909526 
L 45.143471 201.18969 
L 45.008053 199.469855 
L 44.851425 197.750019 
L 44.671592 196.030184 
L 44.4674 194.310348 
L 44.237766 192.590513 
L 43.980714 190.870677 
L 43.692593 189.150842 
L 43.367848 187.431006 
L 42.999535 185.711171 
L 42.580559 183.991335 
L 42.105296 182.2715 
L 41.571137 180.551664 
L 40.979459 178.831829 
L 40.335781 177.111993 
L 39.649107 175.392158 
L 38.930767 173.672322 
L 38.19316 171.952487 
L 37.448728 170.232651 
L 36.709267 168.512816 
L 35.985414 166.79298 
L 35.286058 165.073144 
L 34.617449 163.353309 
L 33.982059 161.633473 
L 33.377536 159.913638 
L 32.796295 158.193802 
L 32.226285 156.473967 
L 31.653177 154.754131 
L 31.063794 153.034296 
L 30.450125 151.31446 
L 29.812992 149.594625 
L 29.164425 147.874789 
L 28.528096 146.154954 
L 27.937627 144.435118 
L 27.43312 142.715283 
L 27.056579 140.995447 
L 26.847075 139.275612 
L 26.836364 137.555776 
L 27.045501 135.835941 
L 27.482707 134.116105 
L 28.142562 132.39627 
L 29.006485 130.676434 
L 30.044357 128.956598 
L 31.217101 127.236763 
L 32.479907 125.516927 
L 33.785751 123.797092 
L 35.088804 122.077256 
L 36.347383 120.357421 
L 37.526203 118.637585 
L 38.59782 116.91775 
L 39.543336 115.197914 
L 40.352466 113.478079 
L 41.023144 111.758243 
L 41.560815 110.038408 
L 41.977495 108.318572 
L 42.290638 106.598737 
L 42.521806 104.878901 
L 42.695104 103.159066 
L 42.835357 101.43923 
L 42.966096 99.719395 
L 43.107497 97.999559 
L 43.274528 96.279724 
L 43.475637 94.559888 
L 43.712241 92.840052 
L 43.979194 91.120217 
L 44.266169 89.400381 
L 44.559733 87.680546 
L 44.845693 85.96071 
L 45.11132 84.240875 
L 45.347046 82.521039 
L 45.547429 80.801204 
L 45.711303 79.081368 
L 45.841217 77.361533 
L 45.942362 75.641697 
L 46.021251 73.921862 
L 46.08443 72.202026 
L 46.137435 70.482191 
L 46.184148 68.762355 
L 46.226597 67.04252 
L 46.265134 65.322684 
L 46.298882 63.602849 
L 46.326307 61.883013 
L 46.345777 60.163178 
L 46.356031 58.443342 
L 46.356515 56.723506 
L 46.347585 55.003671 
L 46.330579 53.283835 
L 46.307772 51.564 
L 46.282182 49.844164 
L 46.257262 48.124329 
L 46.236469 46.404493 
L 46.222784 44.684658 
L 46.218266 42.964822 
L 46.727189 42.964822 
L 46.727189 42.964822 
L 46.722671 44.684658 
L 46.708985 46.404493 
L 46.688193 48.124329 
L 46.663273 49.844164 
L 46.637683 51.564 
L 46.614875 53.283835 
L 46.59787 55.003671 
L 46.58894 56.723506 
L 46.589424 58.443342 
L 46.599678 60.163178 
L 46.619148 61.883013 
L 46.646573 63.602849 
L 46.680321 65.322684 
L 46.718857 67.04252 
L 46.761306 68.762355 
L 46.80802 70.482191 
L 46.861024 72.202026 
L 46.924203 73.921862 
L 47.003093 75.641697 
L 47.104237 77.361533 
L 47.234151 79.081368 
L 47.398025 80.801204 
L 47.598408 82.521039 
L 47.834135 84.240875 
L 48.099762 85.96071 
L 48.385722 87.680546 
L 48.679285 89.400381 
L 48.966261 91.120217 
L 49.233214 92.840052 
L 49.469818 94.559888 
L 49.670927 96.279724 
L 49.837958 97.999559 
L 49.979358 99.719395 
L 50.110098 101.43923 
L 50.25035 103.159066 
L 50.423648 104.878901 
L 50.654817 106.598737 
L 50.96796 108.318572 
L 51.384639 110.038408 
L 51.922311 111.758243 
L 52.592989 113.478079 
L 53.402118 115.197914 
L 54.347634 116.91775 
L 55.419252 118.637585 
L 56.598071 120.357421 
L 57.856651 122.077256 
L 59.159704 123.797092 
L 60.465547 125.516927 
L 61.728354 127.236763 
L 62.901098 128.956598 
L 63.93897 130.676434 
L 64.802892 132.39627 
L 65.462747 134.116105 
L 65.899954 135.835941 
L 66.109091 137.555776 
L 66.09838 139.275612 
L 65.888875 140.995447 
L 65.512335 142.715283 
L 65.007827 144.435118 
L 64.417359 146.154954 
L 63.781029 147.874789 
L 63.132463 149.594625 
L 62.495329 151.31446 
L 61.88166 153.034296 
L 61.292278 154.754131 
L 60.71917 156.473967 
L 60.14916 158.193802 
L 59.567919 159.913638 
L 58.963395 161.633473 
L 58.328005 163.353309 
L 57.659397 165.073144 
L 56.960041 166.79298 
L 56.236188 168.512816 
L 55.496726 170.232651 
L 54.752295 171.952487 
L 54.014687 173.672322 
L 53.296347 175.392158 
L 52.609673 177.111993 
L 51.965995 178.831829 
L 51.374318 180.551664 
L 50.840158 182.2715 
L 50.364896 183.991335 
L 49.945919 185.711171 
L 49.577606 187.431006 
L 49.252861 189.150842 
L 48.964741 190.870677 
L 48.707689 192.590513 
L 48.478055 194.310348 
L 48.273863 196.030184 
L 48.094029 197.750019 
L 47.937402 199.469855 
L 47.801983 201.18969 
L 47.684589 202.909526 
L 47.581002 204.629362 
L 47.48652 206.349197 
L 47.396694 208.069033 
L 47.308024 209.788868 
L 47.218437 211.508704 
L 47.127453 213.228539 
L 47.127453 213.228539 
z
" clip-path="url(#p569e15b50b)" style="fill: none; stroke: #000000; stroke-opacity: 0.3"/>
   </g>
   <g id="FillBetweenPolyCollection_3">
    <path d="M 47.171611 205.757641 
L 45.773844 205.757641 
L 45.667243 204.323 
L 45.548135 202.888358 
L 45.414678 201.453717 
L 45.265064 200.019075 
L 45.097752 198.584434 
L 44.911672 197.149792 
L 44.706389 195.715151 
L 44.48217 194.280509 
L 44.239922 192.845868 
L 43.981016 191.411226 
L 43.706991 189.976585 
L 43.419194 188.541943 
L 43.118409 187.107302 
L 42.80455 185.67266 
L 42.47647 184.238019 
L 42.131946 182.803377 
L 41.767855 181.368736 
L 41.380517 179.934094 
L 40.96616 178.499453 
L 40.521421 177.064811 
L 40.04379 175.63017 
L 39.531913 174.195529 
L 38.985707 172.760887 
L 38.406276 171.326246 
L 37.795685 169.891604 
L 37.156666 168.456963 
L 36.492363 167.022321 
L 35.806196 165.58768 
L 35.1019 164.153038 
L 34.383708 162.718397 
L 33.65662 161.283755 
L 32.926644 159.849114 
L 32.200913 158.414472 
L 31.487594 156.979831 
L 30.795581 155.545189 
L 30.134048 154.110548 
L 29.511949 152.675906 
L 28.937628 151.241265 
L 28.418622 149.806623 
L 27.961734 148.371982 
L 27.573315 146.93734 
L 27.259677 145.502699 
L 27.027465 144.068057 
L 26.883839 142.633416 
L 26.836364 141.198774 
L 26.892555 139.764133 
L 27.059137 138.329491 
L 27.341122 136.89485 
L 27.740883 135.460208 
L 28.257364 134.025567 
L 28.885573 132.590925 
L 29.616428 131.156284 
L 30.436989 129.721642 
L 31.331037 128.287001 
L 32.279936 126.852359 
L 33.26368 125.417718 
L 34.262032 123.983076 
L 35.255625 122.548435 
L 36.226952 121.113793 
L 37.161135 119.679152 
L 38.04641 118.24451 
L 38.874307 116.809869 
L 39.639513 115.375227 
L 40.339469 113.940586 
L 40.973781 112.505944 
L 41.543542 111.071303 
L 42.050689 109.636661 
L 42.497473 108.20202 
L 42.886133 106.767378 
L 43.218787 105.332737 
L 43.497529 103.898095 
L 43.724671 102.463454 
L 43.903058 101.028812 
L 44.036346 99.594171 
L 44.129185 98.159529 
L 44.187227 96.724888 
L 44.216965 95.290246 
L 44.225406 93.855605 
L 44.219643 92.420963 
L 44.206389 90.986322 
L 44.191563 89.55168 
L 44.179973 88.117039 
L 44.175153 86.682397 
L 44.179364 85.247756 
L 44.193736 83.813115 
L 44.218516 82.378473 
L 44.253386 80.943832 
L 44.297767 79.50919 
L 44.351094 78.074549 
L 44.412994 76.639907 
L 44.483372 75.205266 
L 44.562386 73.770624 
L 44.650324 72.335983 
L 44.747427 70.901341 
L 44.853677 69.4667 
L 44.968612 68.032058 
L 45.091186 66.597417 
L 45.219719 65.162775 
L 45.351945 63.728134 
L 47.59351 63.728134 
L 47.59351 63.728134 
L 47.725735 65.162775 
L 47.854269 66.597417 
L 47.976842 68.032058 
L 48.091777 69.4667 
L 48.198028 70.901341 
L 48.295131 72.335983 
L 48.383069 73.770624 
L 48.462082 75.205266 
L 48.532461 76.639907 
L 48.594361 78.074549 
L 48.647687 79.50919 
L 48.692068 80.943832 
L 48.726938 82.378473 
L 48.751719 83.813115 
L 48.76609 85.247756 
L 48.770301 86.682397 
L 48.765482 88.117039 
L 48.753891 89.55168 
L 48.739065 90.986322 
L 48.725812 92.420963 
L 48.720048 93.855605 
L 48.72849 95.290246 
L 48.758228 96.724888 
L 48.81627 98.159529 
L 48.909109 99.594171 
L 49.042397 101.028812 
L 49.220783 102.463454 
L 49.447925 103.898095 
L 49.726667 105.332737 
L 50.059322 106.767378 
L 50.447982 108.20202 
L 50.894766 109.636661 
L 51.401912 111.071303 
L 51.971674 112.505944 
L 52.605985 113.940586 
L 53.305941 115.375227 
L 54.071147 116.809869 
L 54.899044 118.24451 
L 55.784319 119.679152 
L 56.718502 121.113793 
L 57.68983 122.548435 
L 58.683423 123.983076 
L 59.681774 125.417718 
L 60.665519 126.852359 
L 61.614417 128.287001 
L 62.508465 129.721642 
L 63.329027 131.156284 
L 64.059881 132.590925 
L 64.68809 134.025567 
L 65.204572 135.460208 
L 65.604333 136.89485 
L 65.886318 138.329491 
L 66.052899 139.764133 
L 66.109091 141.198774 
L 66.061616 142.633416 
L 65.91799 144.068057 
L 65.685777 145.502699 
L 65.372139 146.93734 
L 64.983721 148.371982 
L 64.526832 149.806623 
L 64.007827 151.241265 
L 63.433505 152.675906 
L 62.811407 154.110548 
L 62.149874 155.545189 
L 61.457861 156.979831 
L 60.744541 158.414472 
L 60.018811 159.849114 
L 59.288835 161.283755 
L 58.561746 162.718397 
L 57.843554 164.153038 
L 57.139259 165.58768 
L 56.453092 167.022321 
L 55.788788 168.456963 
L 55.14977 169.891604 
L 54.539179 171.326246 
L 53.959748 172.760887 
L 53.413541 174.195529 
L 52.901665 175.63017 
L 52.424034 177.064811 
L 51.979295 178.499453 
L 51.564938 179.934094 
L 51.177599 181.368736 
L 50.813508 182.803377 
L 50.468985 184.238019 
L 50.140905 185.67266 
L 49.827046 187.107302 
L 49.526261 188.541943 
L 49.238463 189.976585 
L 48.964438 191.411226 
L 48.705532 192.845868 
L 48.463285 194.280509 
L 48.239065 195.715151 
L 48.033783 197.149792 
L 47.847703 198.584434 
L 47.68039 200.019075 
L 47.530777 201.453717 
L 47.397319 202.888358 
L 47.278212 204.323 
L 47.171611 205.757641 
L 47.171611 205.757641 
z
" clip-path="url(#p569e15b50b)" style="fill: none; stroke: #000000; stroke-opacity: 0.3"/>
   </g>
   <g id="FillBetweenPolyCollection_4">
    <path d="M 48.544208 192.851146 
L 44.401246 192.851146 
L 44.112083 191.438463 
L 43.811409 190.02578 
L 43.49585 188.613098 
L 43.159433 187.200415 
L 42.794107 185.787732 
L 42.39066 184.375049 
L 41.939872 182.962366 
L 41.433691 181.549683 
L 40.866229 180.137 
L 40.234404 178.724317 
L 39.538197 177.311634 
L 38.780548 175.898951 
L 37.96705 174.486268 
L 37.105591 173.073586 
L 36.206084 171.660903 
L 35.280303 170.24822 
L 34.341758 168.835537 
L 33.405449 167.422854 
L 32.48737 166.010171 
L 31.603696 164.597488 
L 30.769728 163.184805 
L 29.998819 161.772122 
L 29.301549 160.359439 
L 28.685374 158.946757 
L 28.154839 157.534074 
L 27.712269 156.121391 
L 27.358664 154.708708 
L 27.094517 153.296025 
L 26.920276 151.883342 
L 26.836364 150.470659 
L 26.842834 149.057976 
L 26.938866 147.645293 
L 27.122333 146.23261 
L 27.389609 144.819927 
L 27.735636 143.407245 
L 28.15417 141.994562 
L 28.638058 140.581879 
L 29.179442 139.169196 
L 29.76991 137.756513 
L 30.400655 136.34383 
L 31.062827 134.931147 
L 31.748102 133.518464 
L 32.449456 132.105781 
L 33.161908 130.693098 
L 33.882954 129.280415 
L 34.612433 127.867733 
L 35.351693 126.45505 
L 36.10218 125.042367 
L 36.863767 123.629684 
L 37.633277 122.217001 
L 38.403623 120.804318 
L 39.163862 119.391635 
L 39.900183 117.978952 
L 40.597636 116.566269 
L 41.242198 115.153586 
L 41.822721 113.740903 
L 42.332374 112.328221 
L 42.769321 110.915538 
L 43.136577 109.502855 
L 43.441165 108.090172 
L 43.692793 106.677489 
L 43.902357 105.264806 
L 44.080528 103.852123 
L 44.236656 102.43944 
L 44.378111 101.026757 
L 44.5101 99.614074 
L 44.635897 98.201391 
L 44.757344 96.788709 
L 44.875467 95.376026 
L 44.991016 93.963343 
L 45.104805 92.55066 
L 45.217794 91.137977 
L 45.330936 89.725294 
L 45.444875 88.312611 
L 45.559634 86.899928 
L 45.674412 85.487245 
L 45.787567 84.074562 
L 45.896802 82.66188 
L 45.999498 81.249197 
L 46.093118 79.836514 
L 46.175558 78.423831 
L 46.245397 77.011148 
L 46.301975 75.598465 
L 46.345327 74.185782 
L 46.376012 72.773099 
L 46.394893 71.360416 
L 46.402942 69.947733 
L 46.401116 68.53505 
L 46.390326 67.122368 
L 46.371504 65.709685 
L 46.345731 64.297002 
L 46.31439 62.884319 
L 46.279285 61.471636 
L 46.242674 60.058953 
L 46.207198 58.64627 
L 46.175677 57.233587 
L 46.150823 55.820904 
L 46.134905 54.408221 
L 46.129431 52.995538 
L 46.816024 52.995538 
L 46.816024 52.995538 
L 46.81055 54.408221 
L 46.794631 55.820904 
L 46.769778 57.233587 
L 46.738257 58.64627 
L 46.70278 60.058953 
L 46.66617 61.471636 
L 46.631065 62.884319 
L 46.599724 64.297002 
L 46.573951 65.709685 
L 46.555129 67.122368 
L 46.544339 68.53505 
L 46.542513 69.947733 
L 46.550562 71.360416 
L 46.569442 72.773099 
L 46.600127 74.185782 
L 46.643479 75.598465 
L 46.700057 77.011148 
L 46.769896 78.423831 
L 46.852337 79.836514 
L 46.945956 81.249197 
L 47.048653 82.66188 
L 47.157888 84.074562 
L 47.271043 85.487245 
L 47.385821 86.899928 
L 47.500579 88.312611 
L 47.614518 89.725294 
L 47.72766 91.137977 
L 47.84065 92.55066 
L 47.954439 93.963343 
L 48.069988 95.376026 
L 48.188111 96.788709 
L 48.309558 98.201391 
L 48.435355 99.614074 
L 48.567344 101.026757 
L 48.708799 102.43944 
L 48.864926 103.852123 
L 49.043097 105.264806 
L 49.252661 106.677489 
L 49.50429 108.090172 
L 49.808877 109.502855 
L 50.176133 110.915538 
L 50.61308 112.328221 
L 51.122734 113.740903 
L 51.703257 115.153586 
L 52.347818 116.566269 
L 53.045272 117.978952 
L 53.781593 119.391635 
L 54.541831 120.804318 
L 55.312178 122.217001 
L 56.081688 123.629684 
L 56.843275 125.042367 
L 57.593762 126.45505 
L 58.333021 127.867733 
L 59.062501 129.280415 
L 59.783547 130.693098 
L 60.495998 132.105781 
L 61.197352 133.518464 
L 61.882628 134.931147 
L 62.544799 136.34383 
L 63.175545 137.756513 
L 63.766012 139.169196 
L 64.307397 140.581879 
L 64.791284 141.994562 
L 65.209819 143.407245 
L 65.555846 144.819927 
L 65.823121 146.23261 
L 66.006588 147.645293 
L 66.10262 149.057976 
L 66.109091 150.470659 
L 66.025179 151.883342 
L 65.850937 153.296025 
L 65.586791 154.708708 
L 65.233186 156.121391 
L 64.790615 157.534074 
L 64.260081 158.946757 
L 63.643905 160.359439 
L 62.946635 161.772122 
L 62.175727 163.184805 
L 61.341758 164.597488 
L 60.458084 166.010171 
L 59.540006 167.422854 
L 58.603697 168.835537 
L 57.665151 170.24822 
L 56.739371 171.660903 
L 55.839864 173.073586 
L 54.978405 174.486268 
L 54.164906 175.898951 
L 53.407258 177.311634 
L 52.711051 178.724317 
L 52.079226 180.137 
L 51.511763 181.549683 
L 51.005583 182.962366 
L 50.554794 184.375049 
L 50.151347 185.787732 
L 49.786022 187.200415 
L 49.449605 188.613098 
L 49.134046 190.02578 
L 48.833371 191.438463 
L 48.544208 192.851146 
L 48.544208 192.851146 
z
" clip-path="url(#p569e15b50b)" style="fill: none; stroke: #000000; stroke-opacity: 0.3"/>
   </g>
   <g id="FillBetweenPolyCollection_5">
    <path d="M 48.510198 225.584141 
L 44.435257 225.584141 
L 44.1874 223.715477 
L 43.916253 221.846813 
L 43.617579 219.978149 
L 43.28683 218.109485 
L 42.919599 216.240821 
L 42.512164 214.372157 
L 42.062055 212.503493 
L 41.568594 210.634829 
L 41.03331 208.766165 
L 40.460182 206.897501 
L 39.855651 205.028837 
L 39.228368 203.160173 
L 38.588689 201.291509 
L 37.94796 199.422845 
L 37.317644 197.554181 
L 36.7084 195.685517 
L 36.129203 193.816853 
L 35.586609 191.948189 
L 35.084248 190.079525 
L 34.622607 188.210861 
L 34.199114 186.342197 
L 33.808524 184.473533 
L 33.443537 182.604869 
L 33.09559 180.736205 
L 32.755726 178.867541 
L 32.415438 176.998877 
L 32.067419 175.130213 
L 31.706146 173.261549 
L 31.328253 171.392885 
L 30.932708 169.524221 
L 30.520793 167.655557 
L 30.095927 165.786893 
L 29.663402 163.918229 
L 29.230064 162.049565 
L 28.803998 160.180901 
L 28.394243 158.312237 
L 28.010545 156.443573 
L 27.663152 154.57491 
L 27.36261 152.706246 
L 27.119541 150.837582 
L 26.944375 148.968918 
L 26.847004 147.100254 
L 26.836364 145.23159 
L 26.919967 143.362926 
L 27.10341 141.494262 
L 27.389916 139.625598 
L 27.779968 137.756934 
L 28.271086 135.88827 
L 28.857783 134.019606 
L 29.531717 132.150942 
L 30.282034 130.282278 
L 31.095872 128.413614 
L 31.958972 126.54495 
L 32.856345 124.676286 
L 33.772922 122.807622 
L 34.694158 120.938958 
L 35.606521 119.070294 
L 36.497874 117.20163 
L 37.35772 115.332966 
L 38.177341 113.464302 
L 38.949835 111.595638 
L 39.670078 109.726974 
L 40.334643 107.85831 
L 40.941679 105.989646 
L 41.490781 104.120982 
L 41.982843 102.252318 
L 42.419899 100.383654 
L 42.804961 98.51499 
L 43.14183 96.646326 
L 43.434901 94.777662 
L 43.688953 92.908998 
L 43.908928 91.040334 
L 44.099714 89.17167 
L 44.265946 87.303006 
L 44.411826 85.434342 
L 44.540988 83.565678 
L 44.656409 81.697014 
L 44.760381 79.82835 
L 44.854529 77.959686 
L 44.93989 76.091022 
L 45.017029 74.222358 
L 45.086183 72.353694 
L 45.147415 70.48503 
L 45.200769 68.616366 
L 45.246398 66.747702 
L 45.284663 64.879038 
L 45.316197 63.010374 
L 45.341916 61.14171 
L 45.36301 59.273046 
L 45.380888 57.404382 
L 45.397102 55.535718 
L 45.413267 53.667054 
L 45.43096 51.79839 
L 45.451639 49.929726 
L 45.476554 48.061062 
L 45.506681 46.192398 
L 45.542665 44.323734 
L 45.584789 42.45507 
L 45.632956 40.586406 
L 47.312499 40.586406 
L 47.312499 40.586406 
L 47.360665 42.45507 
L 47.40279 44.323734 
L 47.438774 46.192398 
L 47.4689 48.061062 
L 47.493815 49.929726 
L 47.514494 51.79839 
L 47.532188 53.667054 
L 47.548352 55.535718 
L 47.564567 57.404382 
L 47.582444 59.273046 
L 47.603539 61.14171 
L 47.629258 63.010374 
L 47.660791 64.879038 
L 47.699057 66.747702 
L 47.744686 68.616366 
L 47.79804 70.48503 
L 47.859272 72.353694 
L 47.928425 74.222358 
L 48.005564 76.091022 
L 48.090926 77.959686 
L 48.185074 79.82835 
L 48.289046 81.697014 
L 48.404467 83.565678 
L 48.533628 85.434342 
L 48.679508 87.303006 
L 48.84574 89.17167 
L 49.036527 91.040334 
L 49.256501 92.908998 
L 49.510553 94.777662 
L 49.803624 96.646326 
L 50.140493 98.51499 
L 50.525555 100.383654 
L 50.962612 102.252318 
L 51.454674 104.120982 
L 52.003776 105.989646 
L 52.610812 107.85831 
L 53.275376 109.726974 
L 53.99562 111.595638 
L 54.768114 113.464302 
L 55.587735 115.332966 
L 56.447581 117.20163 
L 57.338933 119.070294 
L 58.251296 120.938958 
L 59.172532 122.807622 
L 60.08911 124.676286 
L 60.986482 126.54495 
L 61.849583 128.413614 
L 62.663421 130.282278 
L 63.413738 132.150942 
L 64.087671 134.019606 
L 64.674368 135.88827 
L 65.165487 137.756934 
L 65.555539 139.625598 
L 65.842044 141.494262 
L 66.025487 143.362926 
L 66.109091 145.23159 
L 66.098451 147.100254 
L 66.001079 148.968918 
L 65.825913 150.837582 
L 65.582845 152.706246 
L 65.282303 154.57491 
L 64.93491 156.443573 
L 64.551212 158.312237 
L 64.141456 160.180901 
L 63.71539 162.049565 
L 63.282052 163.918229 
L 62.849527 165.786893 
L 62.424662 167.655557 
L 62.012746 169.524221 
L 61.617202 171.392885 
L 61.239309 173.261549 
L 60.878035 175.130213 
L 60.530017 176.998877 
L 60.189729 178.867541 
L 59.849864 180.736205 
L 59.501918 182.604869 
L 59.13693 184.473533 
L 58.74634 186.342197 
L 58.322848 188.210861 
L 57.861206 190.079525 
L 57.358845 191.948189 
L 56.816251 193.816853 
L 56.237055 195.685517 
L 55.627811 197.554181 
L 54.997495 199.422845 
L 54.356765 201.291509 
L 53.717087 203.160173 
L 53.089803 205.028837 
L 52.485272 206.897501 
L 51.912145 208.766165 
L 51.37686 210.634829 
L 50.883399 212.503493 
L 50.433291 214.372157 
L 50.025855 216.240821 
L 49.658624 218.109485 
L 49.327875 219.978149 
L 49.029201 221.846813 
L 48.758054 223.715477 
L 48.510198 225.584141 
L 48.510198 225.584141 
z
" clip-path="url(#p569e15b50b)" style="fill: none; stroke: #000000; stroke-opacity: 0.3"/>
   </g>
   <g id="FillBetweenPolyCollection_6">
    <path d="M 50.20846 184.972262 
L 42.736995 184.972262 
L 42.356919 183.799893 
L 41.965667 182.627525 
L 41.565717 181.455157 
L 41.159626 180.282789 
L 40.749942 179.110421 
L 40.339109 177.938053 
L 39.929336 176.765685 
L 39.522478 175.593317 
L 39.119894 174.420949 
L 38.722338 173.24858 
L 38.329864 172.076212 
L 37.941784 170.903844 
L 37.556685 169.731476 
L 37.172507 168.559108 
L 36.786689 167.38674 
L 36.396375 166.214372 
L 35.998659 165.042004 
L 35.590855 163.869636 
L 35.17076 162.697268 
L 34.736882 161.524899 
L 34.288619 160.352531 
L 33.826363 159.180163 
L 33.351516 158.007795 
L 32.866435 156.835427 
L 32.374299 155.663059 
L 31.878925 154.490691 
L 31.384556 153.318323 
L 30.895645 152.145955 
L 30.416659 150.973586 
L 29.951928 149.801218 
L 29.50555 148.62885 
L 29.081351 147.456482 
L 28.682913 146.284114 
L 28.313642 145.111746 
L 27.976872 143.939378 
L 27.675981 142.76701 
L 27.41449 141.594642 
L 27.196137 140.422273 
L 27.024906 139.249905 
L 26.904993 138.077537 
L 26.840715 136.905169 
L 26.836364 135.732801 
L 26.89601 134.560433 
L 27.023278 133.388065 
L 27.221112 132.215697 
L 27.491543 131.043329 
L 27.835499 129.870961 
L 28.252642 128.698592 
L 28.741279 127.526224 
L 29.298325 126.353856 
L 29.919335 125.181488 
L 30.598604 124.00912 
L 31.329304 122.836752 
L 32.103676 121.664384 
L 32.913248 120.492016 
L 33.749067 119.319648 
L 34.601933 118.147279 
L 35.462639 116.974911 
L 36.322184 115.802543 
L 37.171973 114.630175 
L 38.00399 113.457807 
L 38.810946 112.285439 
L 39.586393 111.113071 
L 40.32481 109.940703 
L 41.021658 108.768335 
L 41.673404 107.595966 
L 42.277518 106.423598 
L 42.832442 105.25123 
L 43.337534 104.078862 
L 43.792991 102.906494 
L 44.199756 101.734126 
L 44.559409 100.561758 
L 44.874048 99.38939 
L 45.146174 98.217022 
L 45.378562 97.044653 
L 45.574152 95.872285 
L 45.735941 94.699917 
L 45.86689 93.527549 
L 45.969853 92.355181 
L 46.047523 91.182813 
L 46.102402 90.010445 
L 46.13679 88.838077 
L 46.152805 87.665709 
L 46.152409 86.493341 
L 46.137461 85.320972 
L 46.109767 84.148604 
L 46.071148 82.976236 
L 46.023484 81.803868 
L 45.968761 80.6315 
L 45.909094 79.459132 
L 45.846725 78.286764 
L 45.783999 77.114396 
L 45.723308 75.942028 
L 45.667024 74.769659 
L 45.617398 73.597291 
L 45.576467 72.424923 
L 45.545949 71.252555 
L 45.527153 70.080187 
L 45.520906 68.907819 
L 47.424548 68.907819 
L 47.424548 68.907819 
L 47.418301 70.080187 
L 47.399505 71.252555 
L 47.368987 72.424923 
L 47.328057 73.597291 
L 47.278431 74.769659 
L 47.222146 75.942028 
L 47.161456 77.114396 
L 47.098729 78.286764 
L 47.036361 79.459132 
L 46.976694 80.6315 
L 46.921971 81.803868 
L 46.874307 82.976236 
L 46.835687 84.148604 
L 46.807994 85.320972 
L 46.793045 86.493341 
L 46.792649 87.665709 
L 46.808664 88.838077 
L 46.843053 90.010445 
L 46.897931 91.182813 
L 46.975602 92.355181 
L 47.078565 93.527549 
L 47.209514 94.699917 
L 47.371302 95.872285 
L 47.566892 97.044653 
L 47.799281 98.217022 
L 48.071406 99.38939 
L 48.386046 100.561758 
L 48.745698 101.734126 
L 49.152463 102.906494 
L 49.607921 104.078862 
L 50.113013 105.25123 
L 50.667937 106.423598 
L 51.272051 107.595966 
L 51.923797 108.768335 
L 52.620644 109.940703 
L 53.359061 111.113071 
L 54.134508 112.285439 
L 54.941465 113.457807 
L 55.773482 114.630175 
L 56.623271 115.802543 
L 57.482816 116.974911 
L 58.343522 118.147279 
L 59.196388 119.319648 
L 60.032206 120.492016 
L 60.841778 121.664384 
L 61.616151 122.836752 
L 62.34685 124.00912 
L 63.026119 125.181488 
L 63.64713 126.353856 
L 64.204175 127.526224 
L 64.692812 128.698592 
L 65.109955 129.870961 
L 65.453911 131.043329 
L 65.724343 132.215697 
L 65.922176 133.388065 
L 66.049445 134.560433 
L 66.109091 135.732801 
L 66.10474 136.905169 
L 66.040462 138.077537 
L 65.920549 139.249905 
L 65.749318 140.422273 
L 65.530965 141.594642 
L 65.269473 142.76701 
L 64.968582 143.939378 
L 64.631813 145.111746 
L 64.262542 146.284114 
L 63.864104 147.456482 
L 63.439905 148.62885 
L 62.993526 149.801218 
L 62.528796 150.973586 
L 62.049809 152.145955 
L 61.560898 153.318323 
L 61.066529 154.490691 
L 60.571156 155.663059 
L 60.07902 156.835427 
L 59.593939 158.007795 
L 59.119092 159.180163 
L 58.656836 160.352531 
L 58.208573 161.524899 
L 57.774695 162.697268 
L 57.354599 163.869636 
L 56.946795 165.042004 
L 56.549079 166.214372 
L 56.158765 167.38674 
L 55.772947 168.559108 
L 55.38877 169.731476 
L 55.003671 170.903844 
L 54.615591 172.076212 
L 54.223116 173.24858 
L 53.82556 174.420949 
L 53.422977 175.593317 
L 53.016118 176.765685 
L 52.606346 177.938053 
L 52.195512 179.110421 
L 51.785829 180.282789 
L 51.379738 181.455157 
L 50.979788 182.627525 
L 50.588536 183.799893 
L 50.20846 184.972262 
L 50.20846 184.972262 
z
" clip-path="url(#p569e15b50b)" style="fill: none; stroke: #000000; stroke-opacity: 0.3"/>
   </g>
   <g id="FillBetweenPolyCollection_7">
    <path d="M 50.248939 212.518326 
L 42.696516 212.518326 
L 42.455724 211.513336 
L 42.207849 210.508346 
L 41.952744 209.503356 
L 41.690286 208.498365 
L 41.420402 207.493375 
L 41.143114 206.488385 
L 40.858559 205.483395 
L 40.567032 204.478405 
L 40.269001 203.473414 
L 39.965134 202.468424 
L 39.6563 201.463434 
L 39.343573 200.458444 
L 39.028216 199.453454 
L 38.711656 198.448463 
L 38.395447 197.443473 
L 38.081221 196.438483 
L 37.770636 195.433493 
L 37.46531 194.428502 
L 37.166754 193.423512 
L 36.87631 192.418522 
L 36.595086 191.413532 
L 36.323899 190.408542 
L 36.063232 189.403551 
L 35.8132 188.398561 
L 35.57353 187.393571 
L 35.343562 186.388581 
L 35.122266 185.383591 
L 34.908269 184.3786 
L 34.69991 183.37361 
L 34.495302 182.36862 
L 34.2924 181.36363 
L 34.08909 180.358639 
L 33.883271 179.353649 
L 33.672941 178.348659 
L 33.456281 177.343669 
L 33.23173 176.338679 
L 32.998047 175.333688 
L 32.754364 174.328698 
L 32.500223 173.323708 
L 32.235588 172.318718 
L 31.960852 171.313728 
L 31.676823 170.308737 
L 31.384687 169.303747 
L 31.085972 168.298757 
L 30.782491 167.293767 
L 30.476284 166.288776 
L 30.16955 165.283786 
L 29.864587 164.278796 
L 29.563728 163.273806 
L 29.269285 162.268816 
L 28.983501 161.263825 
L 28.708515 160.258835 
L 28.44633 159.253845 
L 28.1988 158.248855 
L 27.967621 157.243865 
L 27.754336 156.238874 
L 27.560347 155.233884 
L 27.386924 154.228894 
L 27.235229 153.223904 
L 27.106332 152.218914 
L 27.001226 151.213923 
L 26.920838 150.208933 
L 26.866038 149.203943 
L 26.837634 148.198953 
L 26.836364 147.193962 
L 26.862883 146.188972 
L 26.917742 145.183982 
L 27.001362 144.178992 
L 27.114006 143.174002 
L 27.255755 142.169011 
L 27.426484 141.164021 
L 27.625841 140.159031 
L 27.853237 139.154041 
L 28.107842 138.149051 
L 28.388594 137.14406 
L 28.694209 136.13907 
L 29.023211 135.13408 
L 29.373966 134.12909 
L 29.744718 133.124099 
L 30.133637 132.119109 
L 30.538863 131.114119 
L 30.95855 130.109129 
L 31.39091 129.104139 
L 31.834246 128.099148 
L 32.286979 127.094158 
L 32.747669 126.089168 
L 33.215019 125.084178 
L 33.687875 124.079188 
L 34.165213 123.074197 
L 34.646117 122.069207 
L 35.129753 121.064217 
L 35.615338 120.059227 
L 36.102102 119.054236 
L 36.589259 118.049246 
L 37.07597 117.044256 
L 37.561322 116.039266 
L 38.044303 115.034276 
L 38.523795 114.029285 
L 38.998566 113.024295 
L 53.946888 113.024295 
L 53.946888 113.024295 
L 54.42166 114.029285 
L 54.901151 115.034276 
L 55.384133 116.039266 
L 55.869484 117.044256 
L 56.356195 118.049246 
L 56.843352 119.054236 
L 57.330117 120.059227 
L 57.815701 121.064217 
L 58.299338 122.069207 
L 58.780242 123.074197 
L 59.257579 124.079188 
L 59.730435 125.084178 
L 60.197785 126.089168 
L 60.658475 127.094158 
L 61.111209 128.099148 
L 61.554544 129.104139 
L 61.986904 130.109129 
L 62.406592 131.114119 
L 62.811817 132.119109 
L 63.200736 133.124099 
L 63.571489 134.12909 
L 63.922244 135.13408 
L 64.251246 136.13907 
L 64.556861 137.14406 
L 64.837612 138.149051 
L 65.092218 139.154041 
L 65.319614 140.159031 
L 65.518971 141.164021 
L 65.6897 142.169011 
L 65.831449 143.174002 
L 65.944093 144.178992 
L 66.027712 145.183982 
L 66.082571 146.188972 
L 66.109091 147.193962 
L 66.107821 148.198953 
L 66.079416 149.203943 
L 66.024616 150.208933 
L 65.944229 151.213923 
L 65.839122 152.218914 
L 65.710225 153.223904 
L 65.558531 154.228894 
L 65.385108 155.233884 
L 65.191118 156.238874 
L 64.977834 157.243865 
L 64.746655 158.248855 
L 64.499125 159.253845 
L 64.23694 160.258835 
L 63.961954 161.263825 
L 63.67617 162.268816 
L 63.381727 163.273806 
L 63.080867 164.278796 
L 62.775905 165.283786 
L 62.469171 166.288776 
L 62.162963 167.293767 
L 61.859483 168.298757 
L 61.560768 169.303747 
L 61.268632 170.308737 
L 60.984602 171.313728 
L 60.709867 172.318718 
L 60.445232 173.323708 
L 60.19109 174.328698 
L 59.947408 175.333688 
L 59.713725 176.338679 
L 59.489173 177.343669 
L 59.272513 178.348659 
L 59.062183 179.353649 
L 58.856364 180.358639 
L 58.653054 181.36363 
L 58.450153 182.36862 
L 58.245544 183.37361 
L 58.037186 184.3786 
L 57.823189 185.383591 
L 57.601892 186.388581 
L 57.371925 187.393571 
L 57.132255 188.398561 
L 56.882222 189.403551 
L 56.621556 190.408542 
L 56.350369 191.413532 
L 56.069145 192.418522 
L 55.778701 193.423512 
L 55.480145 194.428502 
L 55.174818 195.433493 
L 54.864233 196.438483 
L 54.550008 197.443473 
L 54.233798 198.448463 
L 53.917238 199.453454 
L 53.601881 200.458444 
L 53.289155 201.463434 
L 52.980321 202.468424 
L 52.676453 203.473414 
L 52.378423 204.478405 
L 52.086895 205.483395 
L 51.802341 206.488385 
L 51.525052 207.493375 
L 51.255169 208.498365 
L 50.99271 209.503356 
L 50.737606 210.508346 
L 50.489731 211.513336 
L 50.248939 212.518326 
L 50.248939 212.518326 
z
" clip-path="url(#p569e15b50b)" style="fill: none; stroke: #000000; stroke-opacity: 0.3"/>
   </g>
   <g id="FillBetweenPolyCollection_8">
    <path d="M 113.269244 247.453468 
L 110.585302 247.453468 
L 110.58485 245.919996 
L 110.593377 244.386524 
L 110.609989 242.853053 
L 110.633443 241.319581 
L 110.662158 239.78611 
L 110.694248 238.252638 
L 110.727548 236.719166 
L 110.759659 235.185695 
L 110.787995 233.652223 
L 110.809836 232.118752 
L 110.822386 230.58528 
L 110.822833 229.051808 
L 110.808409 227.518337 
L 110.776458 225.984865 
L 110.724497 224.451394 
L 110.650282 222.917922 
L 110.55187 221.38445 
L 110.427683 219.850979 
L 110.276553 218.317507 
L 110.097781 216.784036 
L 109.891166 215.250564 
L 109.657035 213.717092 
L 109.39625 212.183621 
L 109.110198 210.650149 
L 108.800762 209.116678 
L 108.470271 207.583206 
L 108.121423 206.049734 
L 107.757196 204.516263 
L 107.380735 202.982791 
L 106.995225 201.449319 
L 106.603766 199.915848 
L 106.209234 198.382376 
L 105.81416 196.848905 
L 105.42062 195.315433 
L 105.030147 193.781961 
L 104.64367 192.24849 
L 104.261494 190.715018 
L 103.883305 189.181547 
L 103.508225 187.648075 
L 103.134891 186.114603 
L 102.761569 184.581132 
L 102.386294 183.04766 
L 102.007017 181.514189 
L 101.621767 179.980717 
L 101.228802 178.447245 
L 100.826748 176.913774 
L 100.414709 175.380302 
L 99.992359 173.846831 
L 99.559987 172.313359 
L 99.118514 170.779887 
L 98.669471 169.246416 
L 98.214941 167.712944 
L 97.757484 166.179473 
L 97.30003 164.646001 
L 96.84577 163.112529 
L 96.398035 161.579058 
L 95.960191 160.045586 
L 95.535532 158.512114 
L 95.127198 156.978643 
L 94.738114 155.445171 
L 94.370947 153.9117 
L 94.028087 152.378228 
L 93.711645 150.844756 
L 93.423466 149.311285 
L 93.165158 147.777813 
L 92.938117 146.244342 
L 92.743561 144.71087 
L 92.582557 143.177398 
L 92.456039 141.643927 
L 92.364819 140.110455 
L 92.309588 138.576984 
L 92.290909 137.043512 
L 92.309198 135.51004 
L 92.364705 133.976569 
L 92.457495 132.443097 
L 92.587427 130.909626 
L 92.754141 129.376154 
L 92.957054 127.842682 
L 93.195362 126.309211 
L 93.468058 124.775739 
L 93.773953 123.242268 
L 94.111708 121.708796 
L 94.479871 120.175324 
L 94.876908 118.641853 
L 95.301245 117.108381 
L 95.751288 115.574909 
L 96.225443 114.041438 
L 96.722126 112.507966 
L 97.239753 110.974495 
L 97.776725 109.441023 
L 98.331398 107.907551 
L 98.902048 106.37408 
L 99.486832 104.840608 
L 100.083745 103.307137 
L 100.690588 101.773665 
L 101.304943 100.240193 
L 101.924155 98.706722 
L 102.545339 97.17325 
L 103.165401 95.639779 
L 120.689145 95.639779 
L 120.689145 95.639779 
L 121.309206 97.17325 
L 121.930391 98.706722 
L 122.549603 100.240193 
L 123.163957 101.773665 
L 123.770801 103.307137 
L 124.367714 104.840608 
L 124.952498 106.37408 
L 125.523148 107.907551 
L 126.077821 109.441023 
L 126.614793 110.974495 
L 127.13242 112.507966 
L 127.629102 114.041438 
L 128.103258 115.574909 
L 128.5533 117.108381 
L 128.977637 118.641853 
L 129.374675 120.175324 
L 129.742837 121.708796 
L 130.080593 123.242268 
L 130.386488 124.775739 
L 130.659184 126.309211 
L 130.897492 127.842682 
L 131.100404 129.376154 
L 131.267118 130.909626 
L 131.39705 132.443097 
L 131.489841 133.976569 
L 131.545348 135.51004 
L 131.563636 137.043512 
L 131.544957 138.576984 
L 131.489727 140.110455 
L 131.398507 141.643927 
L 131.271988 143.177398 
L 131.110984 144.71087 
L 130.916429 146.244342 
L 130.689387 147.777813 
L 130.431079 149.311285 
L 130.1429 150.844756 
L 129.826458 152.378228 
L 129.483598 153.9117 
L 129.116432 155.445171 
L 128.727348 156.978643 
L 128.319014 158.512114 
L 127.894354 160.045586 
L 127.45651 161.579058 
L 127.008776 163.112529 
L 126.554515 164.646001 
L 126.097061 166.179473 
L 125.639604 167.712944 
L 125.185075 169.246416 
L 124.736031 170.779887 
L 124.294559 172.313359 
L 123.862187 173.846831 
L 123.439837 175.380302 
L 123.027798 176.913774 
L 122.625743 178.447245 
L 122.232779 179.980717 
L 121.847529 181.514189 
L 121.468252 183.04766 
L 121.092976 184.581132 
L 120.719654 186.114603 
L 120.34632 187.648075 
L 119.97124 189.181547 
L 119.593052 190.715018 
L 119.210875 192.24849 
L 118.824399 193.781961 
L 118.433925 195.315433 
L 118.040386 196.848905 
L 117.645312 198.382376 
L 117.25078 199.915848 
L 116.85932 201.449319 
L 116.473811 202.982791 
L 116.097349 204.516263 
L 115.733123 206.049734 
L 115.384275 207.583206 
L 115.053783 209.116678 
L 114.744347 210.650149 
L 114.458295 212.183621 
L 114.19751 213.717092 
L 113.963379 215.250564 
L 113.756765 216.784036 
L 113.577993 218.317507 
L 113.426863 219.850979 
L 113.302675 221.38445 
L 113.204264 222.917922 
L 113.130049 224.451394 
L 113.078088 225.984865 
L 113.046136 227.518337 
L 113.031712 229.051808 
L 113.032159 230.58528 
L 113.04471 232.118752 
L 113.066551 233.652223 
L 113.094887 235.185695 
L 113.126997 236.719166 
L 113.160297 238.252638 
L 113.192387 239.78611 
L 113.221103 241.319581 
L 113.244556 242.853053 
L 113.261168 244.386524 
L 113.269695 245.919996 
L 113.269244 247.453468 
L 113.269244 247.453468 
z
" clip-path="url(#p569e15b50b)" style="fill: none; stroke: #000000; stroke-opacity: 0.3"/>
   </g>
   <g id="FillBetweenPolyCollection_9">
    <path d="M 112.7646 258.189909 
L 111.089945 258.189909 
L 111.097099 256.454142 
L 111.118204 254.718374 
L 111.152191 252.982607 
L 111.197374 251.246839 
L 111.25159 249.511072 
L 111.312364 247.775305 
L 111.377084 246.039537 
L 111.443181 244.30377 
L 111.508274 242.568003 
L 111.570281 240.832235 
L 111.62749 239.096468 
L 111.67858 237.360701 
L 111.722598 235.624933 
L 111.758899 233.889166 
L 111.78707 232.153398 
L 111.806822 230.417631 
L 111.817894 228.681864 
L 111.819956 226.946096 
L 111.812527 225.210329 
L 111.794914 223.474562 
L 111.76617 221.738794 
L 111.725083 220.003027 
L 111.670178 218.267259 
L 111.599739 216.531492 
L 111.511857 214.795725 
L 111.404471 213.059957 
L 111.275427 211.32419 
L 111.12253 209.588423 
L 110.943601 207.852655 
L 110.736518 206.116888 
L 110.499253 204.381121 
L 110.229911 202.645353 
L 109.926741 200.909586 
L 109.588161 199.173818 
L 109.212767 197.438051 
L 108.799341 195.702284 
L 108.346861 193.966516 
L 107.854515 192.230749 
L 107.321728 190.494982 
L 106.748196 188.759214 
L 106.133952 187.023447 
L 105.479456 185.28768 
L 104.785716 183.551912 
L 104.054454 181.816145 
L 103.288281 180.080377 
L 102.490904 178.34461 
L 101.667306 176.608843 
L 100.8239 174.873075 
L 99.968608 173.137308 
L 99.110826 171.401541 
L 98.261275 169.665773 
L 97.431691 167.930006 
L 96.63438 166.194239 
L 95.881642 164.458471 
L 95.185115 162.722704 
L 94.55507 160.986936 
L 93.999753 159.251169 
L 93.52481 157.515402 
L 93.13287 155.779634 
L 92.823345 154.043867 
L 92.592459 152.3081 
L 92.433543 150.572332 
L 92.337557 148.836565 
L 92.293824 147.100797 
L 92.290909 145.36503 
L 92.317577 143.629263 
L 92.363737 141.893495 
L 92.421304 140.157728 
L 92.484883 138.421961 
L 92.552217 136.686193 
L 92.624351 134.950426 
L 92.705488 133.214659 
L 92.802555 131.478891 
L 92.924502 129.743124 
L 93.081427 128.007356 
L 93.283584 126.271589 
L 93.540403 124.535822 
L 93.859596 122.800054 
L 94.246448 121.064287 
L 94.703345 119.32852 
L 95.229581 117.592752 
L 95.821435 115.856985 
L 96.472491 114.121218 
L 97.174151 112.38545 
L 97.91626 110.649683 
L 98.687794 108.913915 
L 99.477517 107.178148 
L 100.274577 105.442381 
L 101.068984 103.706613 
L 101.851962 101.970846 
L 102.61617 100.235079 
L 103.355789 98.499311 
L 104.0665 96.763544 
L 104.745372 95.027777 
L 105.39068 93.292009 
L 106.001679 91.556242 
L 106.578351 89.820474 
L 107.121156 88.084707 
L 107.630801 86.34894 
L 116.223744 86.34894 
L 116.223744 86.34894 
L 116.73339 88.084707 
L 117.276195 89.820474 
L 117.852867 91.556242 
L 118.463865 93.292009 
L 119.109174 95.027777 
L 119.788046 96.763544 
L 120.498757 98.499311 
L 121.238375 100.235079 
L 122.002584 101.970846 
L 122.785562 103.706613 
L 123.579968 105.442381 
L 124.377028 107.178148 
L 125.166752 108.913915 
L 125.938286 110.649683 
L 126.680395 112.38545 
L 127.382054 114.121218 
L 128.033111 115.856985 
L 128.624965 117.592752 
L 129.151201 119.32852 
L 129.608098 121.064287 
L 129.99495 122.800054 
L 130.314143 124.535822 
L 130.570962 126.271589 
L 130.773119 128.007356 
L 130.930043 129.743124 
L 131.051991 131.478891 
L 131.149057 133.214659 
L 131.230195 134.950426 
L 131.302328 136.686193 
L 131.369662 138.421961 
L 131.433241 140.157728 
L 131.490808 141.893495 
L 131.536969 143.629263 
L 131.563636 145.36503 
L 131.560722 147.100797 
L 131.516988 148.836565 
L 131.421002 150.572332 
L 131.262086 152.3081 
L 131.031201 154.043867 
L 130.721675 155.779634 
L 130.329736 157.515402 
L 129.854792 159.251169 
L 129.299476 160.986936 
L 128.669431 162.722704 
L 127.972903 164.458471 
L 127.220166 166.194239 
L 126.422855 167.930006 
L 125.593271 169.665773 
L 124.74372 171.401541 
L 123.885938 173.137308 
L 123.030645 174.873075 
L 122.18724 176.608843 
L 121.363642 178.34461 
L 120.566264 180.080377 
L 119.800092 181.816145 
L 119.068829 183.551912 
L 118.37509 185.28768 
L 117.720593 187.023447 
L 117.106349 188.759214 
L 116.532817 190.494982 
L 116.00003 192.230749 
L 115.507685 193.966516 
L 115.055204 195.702284 
L 114.641778 197.438051 
L 114.266384 199.173818 
L 113.927805 200.909586 
L 113.624635 202.645353 
L 113.355292 204.381121 
L 113.118028 206.116888 
L 112.910944 207.852655 
L 112.732015 209.588423 
L 112.579119 211.32419 
L 112.450074 213.059957 
L 112.342688 214.795725 
L 112.254806 216.531492 
L 112.184368 218.267259 
L 112.129462 220.003027 
L 112.088375 221.738794 
L 112.059632 223.474562 
L 112.042018 225.210329 
L 112.034589 226.946096 
L 112.036651 228.681864 
L 112.047723 230.417631 
L 112.067475 232.153398 
L 112.095646 233.889166 
L 112.131948 235.624933 
L 112.175965 237.360701 
L 112.227055 239.096468 
L 112.284264 240.832235 
L 112.346272 242.568003 
L 112.411364 244.30377 
L 112.477462 246.039537 
L 112.542182 247.775305 
L 112.602955 249.511072 
L 112.657171 251.246839 
L 112.702355 252.982607 
L 112.736342 254.718374 
L 112.757447 256.454142 
L 112.7646 258.189909 
L 112.7646 258.189909 
z
" clip-path="url(#p569e15b50b)" style="fill: none; stroke: #000000; stroke-opacity: 0.3"/>
   </g>
   <g id="FillBetweenPolyCollection_10">
    <path d="M 112.522517 298.392513 
L 111.332028 298.392513 
L 111.34061 295.868874 
L 111.365622 293.345235 
L 111.404959 290.821595 
L 111.455442 288.297956 
L 111.513232 285.774317 
L 111.574315 283.250678 
L 111.634936 280.727039 
L 111.691951 278.2034 
L 111.743027 275.67976 
L 111.786701 273.156121 
L 111.822293 270.632482 
L 111.849728 268.108843 
L 111.869308 265.585204 
L 111.881466 263.061565 
L 111.886563 260.537925 
L 111.884728 258.014286 
L 111.875779 255.490647 
L 111.859215 252.967008 
L 111.834284 250.443369 
L 111.800113 247.919729 
L 111.755886 245.39609 
L 111.701038 242.872451 
L 111.635427 240.348812 
L 111.559467 237.825173 
L 111.474157 235.301534 
L 111.381028 232.777894 
L 111.281972 230.254255 
L 111.178998 227.730616 
L 111.073957 225.206977 
L 110.968287 222.683338 
L 110.86282 220.159699 
L 110.757702 217.636059 
L 110.652401 215.11242 
L 110.54578 212.588781 
L 110.436151 210.065142 
L 110.32125 207.541503 
L 110.19805 205.017864 
L 110.062379 202.494224 
L 109.908395 199.970585 
L 109.727987 197.446946 
L 109.510293 194.923307 
L 109.241502 192.399668 
L 108.905157 189.876028 
L 108.483071 187.352389 
L 107.956901 184.82875 
L 107.310265 182.305111 
L 106.531168 179.781472 
L 105.614382 177.257833 
L 104.563398 174.734193 
L 103.391568 172.210554 
L 102.122204 169.686915 
L 100.787548 167.163276 
L 99.426718 164.639637 
L 98.082918 162.115998 
L 96.800296 159.592358 
L 95.62087 157.068719 
L 94.581912 154.54508 
L 93.714021 152.021441 
L 93.040031 149.497802 
L 92.574689 146.974163 
L 92.324987 144.450523 
L 92.290909 141.926884 
L 92.46638 139.403245 
L 92.840217 136.879606 
L 93.396957 134.355967 
L 94.117533 131.832327 
L 94.97982 129.308688 
L 95.959169 126.785049 
L 97.029016 124.26141 
L 98.161693 121.737771 
L 99.329445 119.214132 
L 100.505623 116.690492 
L 101.665922 114.166853 
L 102.789492 111.643214 
L 103.859724 109.119575 
L 104.864602 106.595936 
L 105.796539 104.072297 
L 106.651766 101.548657 
L 107.429425 99.025018 
L 108.13055 96.501379 
L 108.757146 93.97774 
L 109.311521 91.454101 
L 109.795932 88.930462 
L 110.212542 86.406822 
L 110.56359 83.883183 
L 110.851679 81.359544 
L 111.080052 78.835905 
L 111.252792 76.312266 
L 111.374914 73.788626 
L 111.452335 71.264987 
L 111.491771 68.741348 
L 111.500556 66.217709 
L 111.486428 63.69407 
L 111.457259 61.170431 
L 111.420743 58.646791 
L 111.384028 56.123152 
L 111.35334 53.599513 
L 111.333601 51.075874 
L 111.328138 48.552235 
L 112.526407 48.552235 
L 112.526407 48.552235 
L 112.520945 51.075874 
L 112.501206 53.599513 
L 112.470517 56.123152 
L 112.433803 58.646791 
L 112.397286 61.170431 
L 112.368117 63.69407 
L 112.35399 66.217709 
L 112.362775 68.741348 
L 112.40221 71.264987 
L 112.479632 73.788626 
L 112.601753 76.312266 
L 112.774493 78.835905 
L 113.002866 81.359544 
L 113.290955 83.883183 
L 113.642004 86.406822 
L 114.058613 88.930462 
L 114.543025 91.454101 
L 115.097399 93.97774 
L 115.723995 96.501379 
L 116.42512 99.025018 
L 117.202779 101.548657 
L 118.058007 104.072297 
L 118.989943 106.595936 
L 119.994822 109.119575 
L 121.065054 111.643214 
L 122.188623 114.166853 
L 123.348923 116.690492 
L 124.525101 119.214132 
L 125.692853 121.737771 
L 126.82553 124.26141 
L 127.895377 126.785049 
L 128.874725 129.308688 
L 129.737013 131.832327 
L 130.457589 134.355967 
L 131.014329 136.879606 
L 131.388165 139.403245 
L 131.563636 141.926884 
L 131.529559 144.450523 
L 131.279857 146.974163 
L 130.814515 149.497802 
L 130.140524 152.021441 
L 129.272634 154.54508 
L 128.233675 157.068719 
L 127.05425 159.592358 
L 125.771627 162.115998 
L 124.427828 164.639637 
L 123.066998 167.163276 
L 121.732342 169.686915 
L 120.462977 172.210554 
L 119.291147 174.734193 
L 118.240163 177.257833 
L 117.323378 179.781472 
L 116.54428 182.305111 
L 115.897644 184.82875 
L 115.371475 187.352389 
L 114.949389 189.876028 
L 114.613044 192.399668 
L 114.344253 194.923307 
L 114.126558 197.446946 
L 113.946151 199.970585 
L 113.792167 202.494224 
L 113.656496 205.017864 
L 113.533295 207.541503 
L 113.418395 210.065142 
L 113.308766 212.588781 
L 113.202144 215.11242 
L 113.096844 217.636059 
L 112.991726 220.159699 
L 112.886259 222.683338 
L 112.780588 225.206977 
L 112.675548 227.730616 
L 112.572573 230.254255 
L 112.473517 232.777894 
L 112.380388 235.301534 
L 112.295079 237.825173 
L 112.219118 240.348812 
L 112.153508 242.872451 
L 112.098659 245.39609 
L 112.054433 247.919729 
L 112.020262 250.443369 
L 111.99533 252.967008 
L 111.978766 255.490647 
L 111.969818 258.014286 
L 111.967983 260.537925 
L 111.973079 263.061565 
L 111.985238 265.585204 
L 112.004817 268.108843 
L 112.032253 270.632482 
L 112.067844 273.156121 
L 112.111518 275.67976 
L 112.162595 278.2034 
L 112.219609 280.727039 
L 112.28023 283.250678 
L 112.341313 285.774317 
L 112.399104 288.297956 
L 112.449586 290.821595 
L 112.488923 293.345235 
L 112.513935 295.868874 
L 112.522517 298.392513 
L 112.522517 298.392513 
z
" clip-path="url(#p569e15b50b)" style="fill: none; stroke: #000000; stroke-opacity: 0.3"/>
   </g>
   <g id="FillBetweenPolyCollection_11">
    <path d="M 112.737303 258.025137 
L 111.117242 258.025137 
L 111.12593 256.076757 
L 111.151454 254.128376 
L 111.192189 252.179995 
L 111.24562 250.231614 
L 111.30858 248.283233 
L 111.377554 246.334852 
L 111.448975 244.386471 
L 111.51949 242.43809 
L 111.586163 240.48971 
L 111.646585 238.541329 
L 111.698902 236.592948 
L 111.741753 234.644567 
L 111.774134 232.696186 
L 111.795231 230.747805 
L 111.804212 228.799424 
L 111.80004 226.851043 
L 111.781295 224.902663 
L 111.746041 222.954282 
L 111.691738 221.005901 
L 111.615215 219.05752 
L 111.512698 217.109139 
L 111.379889 215.160758 
L 111.212113 213.212377 
L 111.004489 211.263996 
L 110.752154 209.315616 
L 110.450494 207.367235 
L 110.095384 205.418854 
L 109.68341 203.470473 
L 109.212057 201.522092 
L 108.679846 199.573711 
L 108.086403 197.62533 
L 107.432468 195.676949 
L 106.719838 193.728569 
L 105.95127 191.780188 
L 105.130383 189.831807 
L 104.26158 187.883426 
L 103.350048 185.935045 
L 102.401856 183.986664 
L 101.424159 182.038283 
L 100.425511 180.089902 
L 99.416211 178.141522 
L 98.408645 176.193141 
L 97.417495 174.24476 
L 96.459743 172.296379 
L 95.554386 170.347998 
L 94.721806 168.399617 
L 93.982818 166.451236 
L 93.357455 164.502855 
L 92.863602 162.554475 
L 92.515651 160.606094 
L 92.323337 158.657713 
L 92.290909 156.709332 
L 92.416772 154.760951 
L 92.693624 152.81257 
L 93.109095 150.864189 
L 93.646778 148.915808 
L 94.287536 146.967428 
L 95.010897 145.019047 
L 95.796381 143.070666 
L 96.624625 141.122285 
L 97.47821 139.173904 
L 98.342161 137.225523 
L 99.204128 135.277142 
L 100.054332 133.328762 
L 100.885331 131.380381 
L 101.691705 129.432 
L 102.469729 127.483619 
L 103.217064 125.535238 
L 103.932495 123.586857 
L 104.615694 121.638476 
L 105.266993 119.690095 
L 105.887151 117.741715 
L 106.477102 115.793334 
L 107.037697 113.844953 
L 107.569459 111.896572 
L 108.072393 109.948191 
L 108.545873 107.99981 
L 108.988639 106.051429 
L 109.398901 104.103048 
L 109.77454 102.154668 
L 110.113369 100.206287 
L 110.413424 98.257906 
L 110.67323 96.309525 
L 110.892016 94.361144 
L 111.069868 92.412763 
L 111.207798 90.464382 
L 111.307752 88.516001 
L 111.372563 86.567621 
L 111.405874 84.61924 
L 111.412036 82.670859 
L 111.395982 80.722478 
L 111.363091 78.774097 
L 111.319015 76.825716 
L 111.269473 74.877335 
L 111.220018 72.928954 
L 111.175766 70.980574 
L 111.141131 69.032193 
L 111.119573 67.083812 
L 111.113407 65.135431 
L 112.741138 65.135431 
L 112.741138 65.135431 
L 112.734972 67.083812 
L 112.713415 69.032193 
L 112.678779 70.980574 
L 112.634528 72.928954 
L 112.585072 74.877335 
L 112.535531 76.825716 
L 112.491455 78.774097 
L 112.458564 80.722478 
L 112.44251 82.670859 
L 112.448671 84.61924 
L 112.481982 86.567621 
L 112.546794 88.516001 
L 112.646747 90.464382 
L 112.784678 92.412763 
L 112.96253 94.361144 
L 113.181316 96.309525 
L 113.441121 98.257906 
L 113.741176 100.206287 
L 114.080006 102.154668 
L 114.455644 104.103048 
L 114.865906 106.051429 
L 115.308672 107.99981 
L 115.782153 109.948191 
L 116.285087 111.896572 
L 116.816849 113.844953 
L 117.377444 115.793334 
L 117.967395 117.741715 
L 118.587552 119.690095 
L 119.238851 121.638476 
L 119.92205 123.586857 
L 120.637482 125.535238 
L 121.384817 127.483619 
L 122.16284 129.432 
L 122.969214 131.380381 
L 123.800213 133.328762 
L 124.650417 135.277142 
L 125.512385 137.225523 
L 126.376335 139.173904 
L 127.229921 141.122285 
L 128.058165 143.070666 
L 128.843649 145.019047 
L 129.567009 146.967428 
L 130.207768 148.915808 
L 130.745451 150.864189 
L 131.160921 152.81257 
L 131.437773 154.760951 
L 131.563636 156.709332 
L 131.531209 158.657713 
L 131.338894 160.606094 
L 130.990944 162.554475 
L 130.497091 164.502855 
L 129.871728 166.451236 
L 129.13274 168.399617 
L 128.30016 170.347998 
L 127.394803 172.296379 
L 126.437051 174.24476 
L 125.4459 176.193141 
L 124.438334 178.141522 
L 123.429035 180.089902 
L 122.430386 182.038283 
L 121.45269 183.986664 
L 120.504497 185.935045 
L 119.592966 187.883426 
L 118.724162 189.831807 
L 117.903275 191.780188 
L 117.134708 193.728569 
L 116.422077 195.676949 
L 115.768143 197.62533 
L 115.1747 199.573711 
L 114.642488 201.522092 
L 114.171135 203.470473 
L 113.759161 205.418854 
L 113.404051 207.367235 
L 113.102391 209.315616 
L 112.850056 211.263996 
L 112.642432 213.212377 
L 112.474656 215.160758 
L 112.341848 217.109139 
L 112.23933 219.05752 
L 112.162808 221.005901 
L 112.108505 222.954282 
L 112.07325 224.902663 
L 112.054505 226.851043 
L 112.050333 228.799424 
L 112.059315 230.747805 
L 112.080411 232.696186 
L 112.112793 234.644567 
L 112.155643 236.592948 
L 112.20796 238.541329 
L 112.268383 240.48971 
L 112.335055 242.43809 
L 112.40557 244.386471 
L 112.476991 246.334852 
L 112.545966 248.283233 
L 112.608926 250.231614 
L 112.662356 252.179995 
L 112.703092 254.128376 
L 112.728615 256.076757 
L 112.737303 258.025137 
L 112.737303 258.025137 
z
" clip-path="url(#p569e15b50b)" style="fill: none; stroke: #000000; stroke-opacity: 0.3"/>
   </g>
   <g id="FillBetweenPolyCollection_12">
    <path d="M 113.394586 207.600682 
L 110.45996 207.600682 
L 110.327548 206.611542 
L 110.185504 205.622402 
L 110.032689 204.633262 
L 109.867909 203.644122 
L 109.689949 202.654982 
L 109.497629 201.665842 
L 109.289845 200.676702 
L 109.065627 199.687562 
L 108.824175 198.698422 
L 108.564914 197.709282 
L 108.287527 196.720142 
L 107.991987 195.731002 
L 107.67859 194.741862 
L 107.347973 193.752722 
L 107.001128 192.763583 
L 106.639402 191.774443 
L 106.264497 190.785303 
L 105.878449 189.796163 
L 105.4836 188.807023 
L 105.082557 187.817883 
L 104.678134 186.828743 
L 104.273282 185.839603 
L 103.871014 184.850463 
L 103.474311 183.861323 
L 103.086027 182.872183 
L 102.708795 181.883043 
L 102.344926 180.893903 
L 101.996328 179.904763 
L 101.664424 178.915623 
L 101.350097 177.926483 
L 101.053649 176.937343 
L 100.774781 175.948203 
L 100.512601 174.959063 
L 100.265648 173.969924 
L 100.031945 172.980784 
L 99.809068 171.991644 
L 99.594228 171.002504 
L 99.384371 170.013364 
L 99.176286 169.024224 
L 98.966715 168.035084 
L 98.752464 167.045944 
L 98.530517 166.056804 
L 98.298141 165.067664 
L 98.052982 164.078524 
L 97.79316 163.089384 
L 97.517341 162.100244 
L 97.224818 161.111104 
L 96.915557 160.121964 
L 96.590251 159.132824 
L 96.250345 158.143684 
L 95.898058 157.154544 
L 95.536376 156.165404 
L 95.169032 155.176264 
L 94.800464 154.187125 
L 94.435737 153.197985 
L 94.080453 152.208845 
L 93.740616 151.219705 
L 93.422481 150.230565 
L 93.132371 149.241425 
L 92.876478 148.252285 
L 92.660646 147.263145 
L 92.490156 146.274005 
L 92.369519 145.284865 
L 92.302288 144.295725 
L 92.290909 143.306585 
L 92.336611 142.317445 
L 92.439352 141.328305 
L 92.597832 140.339165 
L 92.809553 139.350025 
L 93.070952 138.360885 
L 93.377571 137.371745 
L 93.724282 136.382605 
L 94.105526 135.393466 
L 94.515567 134.404326 
L 94.948743 133.415186 
L 95.399695 132.426046 
L 95.863563 131.436906 
L 96.336139 130.447766 
L 96.813972 129.458626 
L 97.294424 128.469486 
L 97.775668 127.480346 
L 98.256652 126.491206 
L 98.737009 125.502066 
L 99.216947 124.512926 
L 99.697109 123.523786 
L 100.178423 122.534646 
L 100.661946 121.545506 
L 101.148717 120.556366 
L 101.63961 119.567226 
L 102.135217 118.578086 
L 102.635745 117.588946 
L 103.140944 116.599807 
L 103.650062 115.610667 
L 104.16183 114.621527 
L 104.674476 113.632387 
L 105.185772 112.643247 
L 105.693103 111.654107 
L 106.193554 110.664967 
L 106.684026 109.675827 
L 117.17052 109.675827 
L 117.17052 109.675827 
L 117.660991 110.664967 
L 118.161443 111.654107 
L 118.668773 112.643247 
L 119.18007 113.632387 
L 119.692716 114.621527 
L 120.204483 115.610667 
L 120.713601 116.599807 
L 121.218801 117.588946 
L 121.719329 118.578086 
L 122.214935 119.567226 
L 122.705828 120.556366 
L 123.192599 121.545506 
L 123.676123 122.534646 
L 124.157437 123.523786 
L 124.637598 124.512926 
L 125.117536 125.502066 
L 125.597893 126.491206 
L 126.078877 127.480346 
L 126.560122 128.469486 
L 127.040573 129.458626 
L 127.518406 130.447766 
L 127.990982 131.436906 
L 128.45485 132.426046 
L 128.905803 133.415186 
L 129.338979 134.404326 
L 129.74902 135.393466 
L 130.130264 136.382605 
L 130.476975 137.371745 
L 130.783594 138.360885 
L 131.044992 139.350025 
L 131.256713 140.339165 
L 131.415193 141.328305 
L 131.517935 142.317445 
L 131.563636 143.306585 
L 131.552257 144.295725 
L 131.485027 145.284865 
L 131.36439 146.274005 
L 131.193899 147.263145 
L 130.978067 148.252285 
L 130.722174 149.241425 
L 130.432065 150.230565 
L 130.11393 151.219705 
L 129.774093 152.208845 
L 129.418808 153.197985 
L 129.054082 154.187125 
L 128.685513 155.176264 
L 128.31817 156.165404 
L 127.956488 157.154544 
L 127.6042 158.143684 
L 127.264295 159.132824 
L 126.938988 160.121964 
L 126.629727 161.111104 
L 126.337204 162.100244 
L 126.061386 163.089384 
L 125.801563 164.078524 
L 125.556404 165.067664 
L 125.324028 166.056804 
L 125.102082 167.045944 
L 124.887831 168.035084 
L 124.678259 169.024224 
L 124.470174 170.013364 
L 124.260318 171.002504 
L 124.045477 171.991644 
L 123.8226 172.980784 
L 123.588898 173.969924 
L 123.341945 174.959063 
L 123.079764 175.948203 
L 122.800897 176.937343 
L 122.504448 177.926483 
L 122.190122 178.915623 
L 121.858218 179.904763 
L 121.509619 180.893903 
L 121.145751 181.883043 
L 120.768518 182.872183 
L 120.380235 183.861323 
L 119.983532 184.850463 
L 119.581264 185.839603 
L 119.176412 186.828743 
L 118.771988 187.817883 
L 118.370945 188.807023 
L 117.976097 189.796163 
L 117.590049 190.785303 
L 117.215144 191.774443 
L 116.853418 192.763583 
L 116.506572 193.752722 
L 116.175956 194.741862 
L 115.862559 195.731002 
L 115.567019 196.720142 
L 115.289631 197.709282 
L 115.03037 198.698422 
L 114.788919 199.687562 
L 114.5647 200.676702 
L 114.356917 201.665842 
L 114.164596 202.654982 
L 113.986637 203.644122 
L 113.821856 204.633262 
L 113.669042 205.622402 
L 113.526997 206.611542 
L 113.394586 207.600682 
L 113.394586 207.600682 
z
" clip-path="url(#p569e15b50b)" style="fill: none; stroke: #000000; stroke-opacity: 0.3"/>
   </g>
   <g id="FillBetweenPolyCollection_13">
    <path d="M 114.622613 203.154792 
L 109.231933 203.154792 
L 108.966751 201.821406 
L 108.688646 200.48802 
L 108.396887 199.154634 
L 108.09052 197.821248 
L 107.768429 196.487861 
L 107.429431 195.154475 
L 107.072389 193.821089 
L 106.696333 192.487703 
L 106.300594 191.154317 
L 105.884921 189.820931 
L 105.449591 188.487544 
L 104.995479 187.154158 
L 104.52411 185.820772 
L 104.037655 184.487386 
L 103.538897 183.154 
L 103.03115 181.820613 
L 102.518143 180.487227 
L 102.003858 179.153841 
L 101.49236 177.820455 
L 100.987588 176.487069 
L 100.493156 175.153683 
L 100.012142 173.820296 
L 99.546909 172.48691 
L 99.098947 171.153524 
L 98.668768 169.820138 
L 98.255856 168.486752 
L 97.858693 167.153365 
L 97.474873 165.819979 
L 97.101285 164.486593 
L 96.734401 163.153207 
L 96.370619 161.819821 
L 96.006666 160.486435 
L 95.640034 159.153048 
L 95.269392 157.819662 
L 94.89497 156.486276 
L 94.518853 155.15289 
L 94.145154 153.819504 
L 93.78005 152.486117 
L 93.431657 151.152731 
L 93.109739 149.819345 
L 92.825276 148.485959 
L 92.589904 147.152573 
L 92.415276 145.819187 
L 92.312387 144.4858 
L 92.290909 143.152414 
L 92.358606 141.819028 
L 92.520846 140.485642 
L 92.780263 139.152256 
L 93.13659 137.81887 
L 93.586658 136.485483 
L 94.124567 135.152097 
L 94.742005 133.818711 
L 95.428672 132.485325 
L 96.172795 131.151939 
L 96.961674 129.818552 
L 97.782224 128.485166 
L 98.621489 127.15178 
L 99.467084 125.818394 
L 100.307552 124.485008 
L 101.132633 123.151622 
L 101.933432 121.818235 
L 102.702496 120.484849 
L 103.433822 119.151463 
L 104.122797 117.818077 
L 104.766103 116.484691 
L 105.361596 115.151304 
L 105.908177 113.817918 
L 106.405673 112.484532 
L 106.854721 111.151146 
L 107.256678 109.81776 
L 107.613535 108.484374 
L 107.927849 107.150987 
L 108.20267 105.817601 
L 108.441467 104.484215 
L 108.648046 103.150829 
L 108.826448 101.817443 
L 108.980834 100.484056 
L 109.115354 99.15067 
L 109.234017 97.817284 
L 109.340547 96.483898 
L 109.438268 95.150512 
L 109.529994 93.817126 
L 109.617968 92.483739 
L 109.703824 91.150353 
L 109.788601 89.816967 
L 109.872799 88.483581 
L 109.956461 87.150195 
L 110.039296 85.816808 
L 110.120806 84.483422 
L 110.200423 83.150036 
L 110.277629 81.81665 
L 110.352057 80.483264 
L 110.423556 79.149878 
L 110.492227 77.816491 
L 110.558411 76.483105 
L 110.622657 75.149719 
L 110.685651 73.816333 
L 110.748135 72.482947 
L 110.810823 71.14956 
L 113.043723 71.14956 
L 113.043723 71.14956 
L 113.106411 72.482947 
L 113.168895 73.816333 
L 113.231888 75.149719 
L 113.296134 76.483105 
L 113.362319 77.816491 
L 113.430989 79.149878 
L 113.502489 80.483264 
L 113.576916 81.81665 
L 113.654122 83.150036 
L 113.73374 84.483422 
L 113.81525 85.816808 
L 113.898085 87.150195 
L 113.981747 88.483581 
L 114.065944 89.816967 
L 114.150722 91.150353 
L 114.236577 92.483739 
L 114.324551 93.817126 
L 114.416278 95.150512 
L 114.513998 96.483898 
L 114.620529 97.817284 
L 114.739191 99.15067 
L 114.873712 100.484056 
L 115.028097 101.817443 
L 115.206499 103.150829 
L 115.413078 104.484215 
L 115.651876 105.817601 
L 115.926696 107.150987 
L 116.24101 108.484374 
L 116.597868 109.81776 
L 116.999825 111.151146 
L 117.448873 112.484532 
L 117.946368 113.817918 
L 118.49295 115.151304 
L 119.088442 116.484691 
L 119.731748 117.818077 
L 120.420724 119.151463 
L 121.15205 120.484849 
L 121.921114 121.818235 
L 122.721913 123.151622 
L 123.546994 124.485008 
L 124.387462 125.818394 
L 125.233056 127.15178 
L 126.072322 128.485166 
L 126.892872 129.818552 
L 127.68175 131.151939 
L 128.425873 132.485325 
L 129.112541 133.818711 
L 129.729978 135.152097 
L 130.267888 136.485483 
L 130.717955 137.81887 
L 131.074282 139.152256 
L 131.333699 140.485642 
L 131.495939 141.819028 
L 131.563636 143.152414 
L 131.542159 144.4858 
L 131.439269 145.819187 
L 131.264642 147.152573 
L 131.02927 148.485959 
L 130.744807 149.819345 
L 130.422889 151.152731 
L 130.074495 152.486117 
L 129.709392 153.819504 
L 129.335692 155.15289 
L 128.959575 156.486276 
L 128.585154 157.819662 
L 128.214512 159.153048 
L 127.847879 160.486435 
L 127.483927 161.819821 
L 127.120144 163.153207 
L 126.75326 164.486593 
L 126.379673 165.819979 
L 125.995852 167.153365 
L 125.59869 168.486752 
L 125.185777 169.820138 
L 124.755598 171.153524 
L 124.307637 172.48691 
L 123.842404 173.820296 
L 123.36139 175.153683 
L 122.866957 176.487069 
L 122.362185 177.820455 
L 121.850687 179.153841 
L 121.336403 180.487227 
L 120.823395 181.820613 
L 120.315649 183.154 
L 119.816891 184.487386 
L 119.330435 185.820772 
L 118.859066 187.154158 
L 118.404955 188.487544 
L 117.969624 189.820931 
L 117.553952 191.154317 
L 117.158212 192.487703 
L 116.782156 193.821089 
L 116.425114 195.154475 
L 116.086117 196.487861 
L 115.764026 197.821248 
L 115.457659 199.154634 
L 115.1659 200.48802 
L 114.887795 201.821406 
L 114.622613 203.154792 
L 114.622613 203.154792 
z
" clip-path="url(#p569e15b50b)" style="fill: none; stroke: #000000; stroke-opacity: 0.3"/>
   </g>
   <g id="matplotlib.axis_1"/>
   <g id="matplotlib.axis_2">
    <g id="ytick_1">
     <g id="line2d_1">
      <defs>
       <path id="m9ef4987122" d="M 0 0 
L -3.5 0 
" style="stroke: #000000; stroke-width: 0.8"/>
      </defs>
      <g>
       <use xlink:href="#m9ef4987122" x="21.6" y="291.6" style="stroke: #000000; stroke-width: 0.8"/>
      </g>
     </g>
    </g>
    <g id="ytick_2">
     <g id="line2d_2">
      <g>
       <use xlink:href="#m9ef4987122" x="21.6" y="199.8" style="stroke: #000000; stroke-width: 0.8"/>
      </g>
     </g>
    </g>
    <g id="ytick_3">
     <g id="line2d_3">
      <g>
       <use xlink:href="#m9ef4987122" x="21.6" y="108" style="stroke: #000000; stroke-width: 0.8"/>
      </g>
     </g>
    </g>
    <g id="ytick_4">
     <g id="line2d_4">
      <g>
       <use xlink:href="#m9ef4987122" x="21.6" y="16.2" style="stroke: #000000; stroke-width: 0.8"/>
      </g>
     </g>
    </g>
   </g>
   <g id="line2d_5">
    <path d="M 46.472727 269.568 
L 46.472727 264.06 
" clip-path="url(#p569e15b50b)" style="fill: none; stroke: #000000; stroke-linecap: square"/>
   </g>
   <g id="line2d_6">
    <path d="M 46.472727 269.568 
L 111.927273 269.568 
" clip-path="url(#p569e15b50b)" style="fill: none; stroke: #000000; stroke-linecap: square"/>
   </g>
   <g id="line2d_7">
    <path d="M 111.927273 269.568 
L 111.927273 264.06 
" clip-path="url(#p569e15b50b)" style="fill: none; stroke: #000000; stroke-linecap: square"/>
   </g>
   <g id="patch_3">
    <path d="M 21.6 291.6 
L 21.6 16.2 
" style="fill: none; stroke: #000000; stroke-width: 0.8; stroke-linejoin: miter; stroke-linecap: square"/>
   </g>
   <g id="patch_4">
    <path d="M 136.8 291.6 
L 136.8 16.2 
" style="fill: none; stroke: #000000; stroke-width: 0.8; stroke-linejoin: miter; stroke-linecap: square"/>
   </g>
   <g id="patch_5">
    <path d="M 21.6 291.6 
L 136.8 291.6 
" style="fill: none; stroke: #000000; stroke-width: 0.8; stroke-linejoin: miter; stroke-linecap: square"/>
   </g>
   <g id="patch_6">
    <path d="M 21.6 16.2 
L 136.8 16.2 
" style="fill: none; stroke: #000000; stroke-width: 0.8; stroke-linejoin: miter; stroke-linecap: square"/>
   </g>
   <g id="text_1">
    <text style="font-weight: 700; font-size: 12px; font-family: 'DejaVu Sans', 'Bitstream Vera Sans', 'Computer Modern Sans Serif', 'Lucida Grande', 'Verdana', 'Geneva', 'Lucid', 'Arial', 'Helvetica', 'Avant Garde', sans-serif; text-anchor: middle" x="46.472727" y="289.104375" transform="rotate(-0 46.472727 289.104375)">#24</text>
   </g>
   <g id="text_2">
    <text style="font-weight: 700; font-size: 12px; font-family: 'DejaVu Sans', 'Bitstream Vera Sans', 'Computer Modern Sans Serif', 'Lucida Grande', 'Verdana', 'Geneva', 'Lucid', 'Arial', 'Helvetica', 'Avant Garde', sans-serif; text-anchor: middle" x="111.927273" y="289.104375" transform="rotate(-0 111.927273 289.104375)">#32</text>
   </g>
   <g id="text_3">
    <text style="font-size: 12px; font-family: 'DejaVu Sans', 'Bitstream Vera Sans', 'Computer Modern Sans Serif', 'Lucida Grande', 'Verdana', 'Geneva', 'Lucid', 'Arial', 'Helvetica', 'Avant Garde', sans-serif; text-anchor: middle" x="79.2" y="268.449375" transform="rotate(-0 79.2 268.449375)">ns</text>
   </g>
   <g id="line2d_8">
    <path d="M 21.6 145.516875 
L 136.8 145.516875 
" clip-path="url(#p569e15b50b)" style="fill: none; stroke-dasharray: 3.7,1.6; stroke-dashoffset: 0; stroke: #808080; stroke-opacity: 0.7"/>
   </g>
   <g id="line2d_9">
    <path d="M 21.6 145.56737 
L 136.8 145.56737 
" clip-path="url(#p569e15b50b)" style="fill: none; stroke-dasharray: 3.7,1.6; stroke-dashoffset: 0; stroke: #808080; stroke-opacity: 0.7"/>
   </g>
   <g id="LineCollection_1">
    <path d="M 46.472727 151.985913 
L 46.472727 139.047838 
" clip-path="url(#p569e15b50b)" style="fill: none; stroke: #000000; stroke-width: 2"/>
   </g>
   <g id="line2d_10">
    <defs>
     <path id="m362c498e89" d="M 5 0 
L -5 -0 
" style="stroke: #000000; stroke-width: 2"/>
    </defs>
    <g clip-path="url(#p569e15b50b)">
     <use xlink:href="#m362c498e89" x="46.472727" y="151.985913" style="stroke: #000000; stroke-width: 2"/>
    </g>
   </g>
   <g id="line2d_11">
    <g clip-path="url(#p569e15b50b)">
     <use xlink:href="#m362c498e89" x="46.472727" y="139.047838" style="stroke: #000000; stroke-width: 2"/>
    </g>
   </g>
   <g id="LineCollection_2">
    <path d="M 111.927273 151.768923 
L 111.927273 139.365817 
" clip-path="url(#p569e15b50b)" style="fill: none; stroke: #000000; stroke-width: 2"/>
   </g>
   <g id="line2d_12">
    <g clip-path="url(#p569e15b50b)">
     <use xlink:href="#m362c498e89" x="111.927273" y="151.768923" style="stroke: #000000; stroke-width: 2"/>
    </g>
   </g>
   <g id="line2d_13">
    <g clip-path="url(#p569e15b50b)">
     <use xlink:href="#m362c498e89" x="111.927273" y="139.365817" style="stroke: #000000; stroke-width: 2"/>
    </g>
   </g>
   <g id="line2d_14">
    <defs>
     <path id="m9719d804e7" d="M 0 4 
C 1.060812 4 2.078319 3.578535 2.828427 2.828427 
C 3.578535 2.078319 4 1.060812 4 0 
C 4 -1.060812 3.578535 -2.078319 2.828427 -2.828427 
C 2.078319 -3.578535 1.060812 -4 0 -4 
C -1.060812 -4 -2.078319 -3.578535 -2.828427 -2.828427 
C -3.578535 -2.078319 -4 -1.060812 -4 0 
C -4 1.060812 -3.578535 2.078319 -2.828427 2.828427 
C -2.078319 3.578535 -1.060812 4 0 4 
z
" style="stroke: #000000"/>
    </defs>
    <g clip-path="url(#p569e15b50b)">
     <use xlink:href="#m9719d804e7" x="46.472727" y="145.516875" style="stroke: #000000"/>
    </g>
   </g>
   <g id="line2d_15">
    <g clip-path="url(#p569e15b50b)">
     <use xlink:href="#m9719d804e7" x="111.927273" y="145.56737" style="stroke: #000000"/>
    </g>
   </g>
  </g>
 </g>
 <defs>
  <clipPath id="p569e15b50b">
   <rect x="21.6" y="16.2" width="115.2" height="275.4"/>
  </clipPath>
 </defs>
</svg>
