<?xml version="1.0" encoding="utf-8" standalone="no"?>
<!DOCTYPE svg PUBLIC "-//W3C//DTD SVG 1.1//EN"
  "http://www.w3.org/Graphics/SVG/1.1/DTD/svg11.dtd">
<svg xmlns:xlink="http://www.w3.org/1999/xlink" width="144pt" height="324pt" viewBox="0 0 144 324" xmlns="http://www.w3.org/2000/svg" version="1.1">
 <metadata>
  <rdf:RDF xmlns:dc="http://purl.org/dc/elements/1.1/" xmlns:cc="http://creativecommons.org/ns#" xmlns:rdf="http://www.w3.org/1999/02/22-rdf-syntax-ns#">
   <cc:Work>
    <dc:type rdf:resource="http://purl.org/dc/dcmitype/StillImage"/>
    <dc:date>2025-12-11T11:15:00.739788</dc:date>
    <dc:format>image/svg+xml</dc:format>
    <dc:creator>
     <cc:Agent>
      <dc:title>Matplotlib v3.10.3, https://matplotlib.org/</dc:title>
     </cc:Agent>
    </dc:creator>
   </cc:Work>
  </rdf:RDF>
 </metadata>
 <defs>
  <style type="text/css">*{stroke-linejoin: round; stroke-linecap: butt}</style>
 </defs>
 <g id="figure_1">
  <g id="patch_1">
   <path d="M 0 324 
L 144 324 
L 144 0 
L 0 0 
z
" style="fill: #ffffff"/>
  </g>
  <g id="axes_1">
   <g id="patch_2">
    <path d="M 21.6 291.6 
L 136.8 291.6 
L 136.8 16.2 
L 21.6 16.2 
z
" style="fill: #ffffff"/>
   </g>
   <g id="FillBetweenPolyCollection_1">
    <path d="M 51.344759 210.345257 
L 49.455241 210.345257 
L 49.345988 208.864224 
L 49.230737 207.383191 
L 49.109118 205.902158 
L 48.980795 204.421125 
L 48.84559 202.940092 
L 48.703597 201.459059 
L 48.555274 199.978026 
L 48.401489 198.496993 
L 48.243495 197.01596 
L 48.082827 195.534927 
L 47.921122 194.053894 
L 47.759858 192.572861 
L 47.600053 191.091828 
L 47.441931 189.610795 
L 47.284622 188.129762 
L 47.125912 186.648729 
L 46.962099 185.167696 
L 46.787979 183.686663 
L 46.596994 182.20563 
L 46.381522 180.724597 
L 46.133332 179.243564 
L 45.844145 177.762531 
L 45.50628 176.281498 
L 45.113334 174.800465 
L 44.66082 173.319432 
L 44.146724 171.838399 
L 43.571908 170.357366 
L 42.940315 168.876333 
L 42.258932 167.3953 
L 41.537508 165.914267 
L 40.788027 164.433234 
L 40.023976 162.952201 
L 39.259484 161.471168 
L 38.508412 159.990135 
L 37.783499 158.509102 
L 37.09566 157.028069 
L 36.453521 155.547036 
L 35.863238 154.066003 
L 35.328607 152.58497 
L 34.851443 151.103937 
L 34.432141 149.622904 
L 34.070336 148.141871 
L 33.765541 146.660838 
L 33.51767 145.179805 
L 33.327374 143.698772 
L 33.196138 142.217739 
L 33.126155 140.736706 
L 33.12 139.255673 
L 33.180196 137.77464 
L 33.308726 136.293607 
L 33.50659 134.812574 
L 33.773469 133.331541 
L 34.107528 131.850508 
L 34.505376 130.369475 
L 34.962161 128.888442 
L 35.47178 127.407409 
L 36.027135 125.926376 
L 36.620421 124.445343 
L 37.243404 122.96431 
L 37.887677 121.483277 
L 38.544893 120.002244 
L 39.206993 118.521211 
L 39.866432 117.040178 
L 40.516413 115.559145 
L 41.151137 114.078112 
L 41.766018 112.597079 
L 42.357868 111.116046 
L 42.924982 109.635013 
L 43.46711 108.15398 
L 43.985281 106.672947 
L 44.481494 105.191914 
L 44.958289 103.710881 
L 45.41825 102.229848 
L 45.863518 100.748815 
L 46.295362 99.267782 
L 46.713882 97.786749 
L 47.117885 96.305716 
L 47.504943 94.824683 
L 47.871623 93.34365 
L 48.213858 91.862617 
L 48.52738 90.381584 
L 48.808192 88.900551 
L 49.05298 87.419518 
L 49.259462 85.938485 
L 49.426619 84.457452 
L 49.554811 82.976419 
L 49.645783 81.495386 
L 49.702581 80.014353 
L 49.729386 78.53332 
L 49.731293 77.052287 
L 49.714048 75.571254 
L 49.683758 74.090221 
L 49.646579 72.609188 
L 49.608403 71.128155 
L 49.574557 69.647122 
L 49.549526 68.166089 
L 49.536734 66.685056 
L 49.538396 65.204023 
L 49.555456 63.72299 
L 51.244544 63.72299 
L 51.244544 63.72299 
L 51.261604 65.204023 
L 51.263266 66.685056 
L 51.250474 68.166089 
L 51.225443 69.647122 
L 51.191597 71.128155 
L 51.153421 72.609188 
L 51.116242 74.090221 
L 51.085952 75.571254 
L 51.068707 77.052287 
L 51.070614 78.53332 
L 51.097419 80.014353 
L 51.154217 81.495386 
L 51.245189 82.976419 
L 51.373381 84.457452 
L 51.540538 85.938485 
L 51.74702 87.419518 
L 51.991808 88.900551 
L 52.27262 90.381584 
L 52.586142 91.862617 
L 52.928377 93.34365 
L 53.295057 94.824683 
L 53.682115 96.305716 
L 54.086118 97.786749 
L 54.504638 99.267782 
L 54.936482 100.748815 
L 55.38175 102.229848 
L 55.841711 103.710881 
L 56.318506 105.191914 
L 56.814719 106.672947 
L 57.33289 108.15398 
L 57.875018 109.635013 
L 58.442132 111.116046 
L 59.033982 112.597079 
L 59.648863 114.078112 
L 60.283587 115.559145 
L 60.933568 117.040178 
L 61.593007 118.521211 
L 62.255107 120.002244 
L 62.912323 121.483277 
L 63.556596 122.96431 
L 64.179579 124.445343 
L 64.772865 125.926376 
L 65.32822 127.407409 
L 65.837839 128.888442 
L 66.294624 130.369475 
L 66.692472 131.850508 
L 67.026531 133.331541 
L 67.29341 134.812574 
L 67.491274 136.293607 
L 67.619804 137.77464 
L 67.68 139.255673 
L 67.673845 140.736706 
L 67.603862 142.217739 
L 67.472626 143.698772 
L 67.28233 145.179805 
L 67.034459 146.660838 
L 66.729664 148.141871 
L 66.367859 149.622904 
L 65.948557 151.103937 
L 65.471393 152.58497 
L 64.936762 154.066003 
L 64.346479 155.547036 
L 63.70434 157.028069 
L 63.016501 158.509102 
L 62.291588 159.990135 
L 61.540516 161.471168 
L 60.776024 162.952201 
L 60.011973 164.433234 
L 59.262492 165.914267 
L 58.541068 167.3953 
L 57.859685 168.876333 
L 57.228092 170.357366 
L 56.653276 171.838399 
L 56.13918 173.319432 
L 55.686666 174.800465 
L 55.29372 176.281498 
L 54.955855 177.762531 
L 54.666668 179.243564 
L 54.418478 180.724597 
L 54.203006 182.20563 
L 54.012021 183.686663 
L 53.837901 185.167696 
L 53.674088 186.648729 
L 53.515378 188.129762 
L 53.358069 189.610795 
L 53.199947 191.091828 
L 53.040142 192.572861 
L 52.878878 194.053894 
L 52.717173 195.534927 
L 52.556505 197.01596 
L 52.398511 198.496993 
L 52.244726 199.978026 
L 52.096403 201.459059 
L 51.95441 202.940092 
L 51.819205 204.421125 
L 51.690882 205.902158 
L 51.569263 207.383191 
L 51.454012 208.864224 
L 51.344759 210.345257 
L 51.344759 210.345257 
z
" clip-path="url(#p532682171b)" style="fill: none; stroke: #000000; stroke-opacity: 0.3"/>
   </g>
   <g id="FillBetweenPolyCollection_2">
    <path d="M 50.976158 213.228539 
L 49.823842 213.228539 
L 49.743775 211.508704 
L 49.664938 209.788868 
L 49.586909 208.069033 
L 49.507863 206.349197 
L 49.424719 204.629362 
L 49.333562 202.909526 
L 49.230255 201.18969 
L 49.111086 199.469855 
L 48.973254 197.750019 
L 48.815001 196.030184 
L 48.635312 194.310348 
L 48.433234 192.590513 
L 48.207028 190.870677 
L 47.953482 189.150842 
L 47.667706 187.431006 
L 47.343591 185.711171 
L 46.974892 183.991335 
L 46.556661 182.2715 
L 46.0866 180.551664 
L 45.565924 178.831829 
L 44.999488 177.111993 
L 44.395215 175.392158 
L 43.763075 173.672322 
L 43.113981 171.952487 
L 42.458881 170.232651 
L 41.808155 168.512816 
L 41.171164 166.79298 
L 40.555731 165.073144 
L 39.967355 163.353309 
L 39.408212 161.633473 
L 38.876232 159.913638 
L 38.36474 158.193802 
L 37.86313 156.473967 
L 37.358796 154.754131 
L 36.840139 153.034296 
L 36.30011 151.31446 
L 35.739433 149.594625 
L 35.168694 147.874789 
L 34.608724 146.154954 
L 34.089112 144.435118 
L 33.645145 142.715283 
L 33.31379 140.995447 
L 33.129426 139.275612 
L 33.12 137.555776 
L 33.304041 135.835941 
L 33.688782 134.116105 
L 34.269455 132.39627 
L 35.029706 130.676434 
L 35.943034 128.956598 
L 36.975049 127.236763 
L 38.086318 125.516927 
L 39.235461 123.797092 
L 40.382147 122.077256 
L 41.489697 120.357421 
L 42.527058 118.637585 
L 43.470082 116.91775 
L 44.302136 115.197914 
L 45.01417 113.478079 
L 45.604366 111.758243 
L 46.077517 110.038408 
L 46.444196 108.318572 
L 46.719761 106.598737 
L 46.92319 104.878901 
L 47.075692 103.159066 
L 47.199114 101.43923 
L 47.314165 99.719395 
L 47.438597 97.999559 
L 47.585585 96.279724 
L 47.76256 94.559888 
L 47.970772 92.840052 
L 48.20569 91.120217 
L 48.458229 89.400381 
L 48.716565 87.680546 
L 48.96821 85.96071 
L 49.201961 84.240875 
L 49.409401 82.521039 
L 49.585738 80.801204 
L 49.729947 79.081368 
L 49.844271 77.361533 
L 49.933279 75.641697 
L 50.002701 73.921862 
L 50.058299 72.202026 
L 50.104943 70.482191 
L 50.14605 68.762355 
L 50.183406 67.04252 
L 50.217318 65.322684 
L 50.247016 63.602849 
L 50.27115 61.883013 
L 50.288284 60.163178 
L 50.297307 58.443342 
L 50.297733 56.723506 
L 50.289874 55.003671 
L 50.27491 53.283835 
L 50.254839 51.564 
L 50.23232 49.844164 
L 50.210391 48.124329 
L 50.192093 46.404493 
L 50.18005 44.684658 
L 50.176074 42.964822 
L 50.623926 42.964822 
L 50.623926 42.964822 
L 50.61995 44.684658 
L 50.607907 46.404493 
L 50.589609 48.124329 
L 50.56768 49.844164 
L 50.545161 51.564 
L 50.52509 53.283835 
L 50.510126 55.003671 
L 50.502267 56.723506 
L 50.502693 58.443342 
L 50.511716 60.163178 
L 50.52885 61.883013 
L 50.552984 63.602849 
L 50.582682 65.322684 
L 50.616594 67.04252 
L 50.65395 68.762355 
L 50.695057 70.482191 
L 50.741701 72.202026 
L 50.797299 73.921862 
L 50.866721 75.641697 
L 50.955729 77.361533 
L 51.070053 79.081368 
L 51.214262 80.801204 
L 51.390599 82.521039 
L 51.598039 84.240875 
L 51.83179 85.96071 
L 52.083435 87.680546 
L 52.341771 89.400381 
L 52.59431 91.120217 
L 52.829228 92.840052 
L 53.03744 94.559888 
L 53.214415 96.279724 
L 53.361403 97.999559 
L 53.485835 99.719395 
L 53.600886 101.43923 
L 53.724308 103.159066 
L 53.87681 104.878901 
L 54.080239 106.598737 
L 54.355804 108.318572 
L 54.722483 110.038408 
L 55.195634 111.758243 
L 55.78583 113.478079 
L 56.497864 115.197914 
L 57.329918 116.91775 
L 58.272942 118.637585 
L 59.310303 120.357421 
L 60.417853 122.077256 
L 61.564539 123.797092 
L 62.713682 125.516927 
L 63.824951 127.236763 
L 64.856966 128.956598 
L 65.770294 130.676434 
L 66.530545 132.39627 
L 67.111218 134.116105 
L 67.495959 135.835941 
L 67.68 137.555776 
L 67.670574 139.275612 
L 67.48621 140.995447 
L 67.154855 142.715283 
L 66.710888 144.435118 
L 66.191276 146.154954 
L 65.631306 147.874789 
L 65.060567 149.594625 
L 64.49989 151.31446 
L 63.959861 153.034296 
L 63.441204 154.754131 
L 62.93687 156.473967 
L 62.43526 158.193802 
L 61.923768 159.913638 
L 61.391788 161.633473 
L 60.832645 163.353309 
L 60.244269 165.073144 
L 59.628836 166.79298 
L 58.991845 168.512816 
L 58.341119 170.232651 
L 57.686019 171.952487 
L 57.036925 173.672322 
L 56.404785 175.392158 
L 55.800512 177.111993 
L 55.234076 178.831829 
L 54.7134 180.551664 
L 54.243339 182.2715 
L 53.825108 183.991335 
L 53.456409 185.711171 
L 53.132294 187.431006 
L 52.846518 189.150842 
L 52.592972 190.870677 
L 52.366766 192.590513 
L 52.164688 194.310348 
L 51.984999 196.030184 
L 51.826746 197.750019 
L 51.688914 199.469855 
L 51.569745 201.18969 
L 51.466438 202.909526 
L 51.375281 204.629362 
L 51.292137 206.349197 
L 51.213091 208.069033 
L 51.135062 209.788868 
L 51.056225 211.508704 
L 50.976158 213.228539 
L 50.976158 213.228539 
z
" clip-path="url(#p532682171b)" style="fill: none; stroke: #000000; stroke-opacity: 0.3"/>
   </g>
   <g id="FillBetweenPolyCollection_3">
    <path d="M 51.015018 205.757641 
L 49.784982 205.757641 
L 49.691174 204.323 
L 49.586359 202.888358 
L 49.468916 201.453717 
L 49.337257 200.019075 
L 49.190022 198.584434 
L 49.026271 197.149792 
L 48.845622 195.715151 
L 48.648309 194.280509 
L 48.435132 192.845868 
L 48.207295 191.411226 
L 47.966152 189.976585 
L 47.71289 188.541943 
L 47.4482 187.107302 
L 47.172004 185.67266 
L 46.883293 184.238019 
L 46.580113 182.803377 
L 46.259713 181.368736 
L 45.918855 179.934094 
L 45.55422 178.499453 
L 45.16285 177.064811 
L 44.742535 175.63017 
L 44.292084 174.195529 
L 43.811422 172.760887 
L 43.301523 171.326246 
L 42.764203 169.891604 
L 42.201866 168.456963 
L 41.617279 167.022321 
L 41.013452 165.58768 
L 40.393672 164.153038 
L 39.761663 162.718397 
L 39.121825 161.283755 
L 38.479447 159.849114 
L 37.840804 158.414472 
L 37.213082 156.979831 
L 36.604111 155.545189 
L 36.021962 154.110548 
L 35.474515 152.675906 
L 34.969112 151.241265 
L 34.512388 149.806623 
L 34.110326 148.371982 
L 33.768517 146.93734 
L 33.492516 145.502699 
L 33.288169 144.068057 
L 33.161778 142.633416 
L 33.12 141.198774 
L 33.169449 139.764133 
L 33.31604 138.329491 
L 33.564187 136.89485 
L 33.915977 135.460208 
L 34.370481 134.025567 
L 34.923304 132.590925 
L 35.566457 131.156284 
L 36.28855 129.721642 
L 37.075313 128.287001 
L 37.910344 126.852359 
L 38.776039 125.417718 
L 39.654588 123.983076 
L 40.52895 122.548435 
L 41.383718 121.113793 
L 42.205799 119.679152 
L 42.984841 118.24451 
L 43.713391 116.809869 
L 44.386772 115.375227 
L 45.002733 113.940586 
L 45.560927 112.505944 
L 46.062317 111.071303 
L 46.508606 109.636661 
L 46.901776 108.20202 
L 47.243797 106.767378 
L 47.536533 105.332737 
L 47.781826 103.898095 
L 47.981711 102.463454 
L 48.138691 101.028812 
L 48.255984 99.594171 
L 48.337682 98.159529 
L 48.38876 96.724888 
L 48.414929 95.290246 
L 48.422357 93.855605 
L 48.417286 92.420963 
L 48.405623 90.986322 
L 48.392576 89.55168 
L 48.382376 88.117039 
L 48.378135 86.682397 
L 48.381841 85.247756 
L 48.394487 83.813115 
L 48.416294 82.378473 
L 48.44698 80.943832 
L 48.486035 79.50919 
L 48.532962 78.074549 
L 48.587434 76.639907 
L 48.649367 75.205266 
L 48.7189 73.770624 
L 48.796285 72.335983 
L 48.881735 70.901341 
L 48.975236 69.4667 
L 49.076379 68.032058 
L 49.184244 66.597417 
L 49.297353 65.162775 
L 49.413712 63.728134 
L 51.386288 63.728134 
L 51.386288 63.728134 
L 51.502647 65.162775 
L 51.615756 66.597417 
L 51.723621 68.032058 
L 51.824764 69.4667 
L 51.918265 70.901341 
L 52.003715 72.335983 
L 52.0811 73.770624 
L 52.150633 75.205266 
L 52.212566 76.639907 
L 52.267038 78.074549 
L 52.313965 79.50919 
L 52.35302 80.943832 
L 52.383706 82.378473 
L 52.405513 83.813115 
L 52.418159 85.247756 
L 52.421865 86.682397 
L 52.417624 88.117039 
L 52.407424 89.55168 
L 52.394377 90.986322 
L 52.382714 92.420963 
L 52.377643 93.855605 
L 52.385071 95.290246 
L 52.41124 96.724888 
L 52.462318 98.159529 
L 52.544016 99.594171 
L 52.661309 101.028812 
L 52.818289 102.463454 
L 53.018174 103.898095 
L 53.263467 105.332737 
L 53.556203 106.767378 
L 53.898224 108.20202 
L 54.291394 109.636661 
L 54.737683 111.071303 
L 55.239073 112.505944 
L 55.797267 113.940586 
L 56.413228 115.375227 
L 57.086609 116.809869 
L 57.815159 118.24451 
L 58.594201 119.679152 
L 59.416282 121.113793 
L 60.27105 122.548435 
L 61.145412 123.983076 
L 62.023961 125.417718 
L 62.889656 126.852359 
L 63.724687 128.287001 
L 64.51145 129.721642 
L 65.233543 131.156284 
L 65.876696 132.590925 
L 66.429519 134.025567 
L 66.884023 135.460208 
L 67.235813 136.89485 
L 67.48396 138.329491 
L 67.630551 139.764133 
L 67.68 141.198774 
L 67.638222 142.633416 
L 67.511831 144.068057 
L 67.307484 145.502699 
L 67.031483 146.93734 
L 66.689674 148.371982 
L 66.287612 149.806623 
L 65.830888 151.241265 
L 65.325485 152.675906 
L 64.778038 154.110548 
L 64.195889 155.545189 
L 63.586918 156.979831 
L 62.959196 158.414472 
L 62.320553 159.849114 
L 61.678175 161.283755 
L 61.038337 162.718397 
L 60.406328 164.153038 
L 59.786548 165.58768 
L 59.182721 167.022321 
L 58.598134 168.456963 
L 58.035797 169.891604 
L 57.498477 171.326246 
L 56.988578 172.760887 
L 56.507916 174.195529 
L 56.057465 175.63017 
L 55.63715 177.064811 
L 55.24578 178.499453 
L 54.881145 179.934094 
L 54.540287 181.368736 
L 54.219887 182.803377 
L 53.916707 184.238019 
L 53.627996 185.67266 
L 53.3518 187.107302 
L 53.08711 188.541943 
L 52.833848 189.976585 
L 52.592705 191.411226 
L 52.364868 192.845868 
L 52.151691 194.280509 
L 51.954378 195.715151 
L 51.773729 197.149792 
L 51.609978 198.584434 
L 51.462743 200.019075 
L 51.331084 201.453717 
L 51.213641 202.888358 
L 51.108826 204.323 
L 51.015018 205.757641 
L 51.015018 205.757641 
z
" clip-path="url(#p532682171b)" style="fill: none; stroke: #000000; stroke-opacity: 0.3"/>
   </g>
   <g id="FillBetweenPolyCollection_4">
    <path d="M 52.222903 192.851146 
L 48.577097 192.851146 
L 48.322633 191.438463 
L 48.058039 190.02578 
L 47.780348 188.613098 
L 47.484301 187.200415 
L 47.162814 185.787732 
L 46.807781 184.375049 
L 46.411087 182.962366 
L 45.965648 181.549683 
L 45.466281 180.137 
L 44.910276 178.724317 
L 44.297613 177.311634 
L 43.630882 175.898951 
L 42.915004 174.486268 
L 42.15692 173.073586 
L 41.365354 171.660903 
L 40.550667 170.24822 
L 39.724747 168.835537 
L 38.900795 167.422854 
L 38.092886 166.010171 
L 37.315253 164.597488 
L 36.581361 163.184805 
L 35.902961 161.772122 
L 35.289363 160.359439 
L 34.747129 158.946757 
L 34.280259 157.534074 
L 33.890796 156.121391 
L 33.579624 154.708708 
L 33.347175 153.296025 
L 33.193843 151.883342 
L 33.12 150.470659 
L 33.125694 149.057976 
L 33.210202 147.645293 
L 33.371653 146.23261 
L 33.606856 144.819927 
L 33.91136 143.407245 
L 34.27967 141.994562 
L 34.705491 140.581879 
L 35.181909 139.169196 
L 35.70152 137.756513 
L 36.256577 136.34383 
L 36.839288 134.931147 
L 37.44233 133.518464 
L 38.059522 132.105781 
L 38.686479 130.693098 
L 39.320999 129.280415 
L 39.962941 127.867733 
L 40.61349 126.45505 
L 41.273918 125.042367 
L 41.944115 123.629684 
L 42.621283 122.217001 
L 43.299188 120.804318 
L 43.968198 119.391635 
L 44.616161 117.978952 
L 45.22992 116.566269 
L 45.797134 115.153586 
L 46.307994 113.740903 
L 46.756489 112.328221 
L 47.141003 110.915538 
L 47.464188 109.502855 
L 47.732225 108.090172 
L 47.953658 106.677489 
L 48.138074 105.264806 
L 48.294865 103.852123 
L 48.432257 102.43944 
L 48.556737 101.026757 
L 48.672888 99.614074 
L 48.783589 98.201391 
L 48.890462 96.788709 
L 48.994411 95.376026 
L 49.096094 93.963343 
L 49.196228 92.55066 
L 49.295659 91.137977 
L 49.395224 89.725294 
L 49.49549 88.312611 
L 49.596478 86.899928 
L 49.697482 85.487245 
L 49.797059 84.074562 
L 49.893186 82.66188 
L 49.983559 81.249197 
L 50.065944 79.836514 
L 50.138491 78.423831 
L 50.19995 77.011148 
L 50.249738 75.598465 
L 50.287888 74.185782 
L 50.314891 72.773099 
L 50.331506 71.360416 
L 50.338589 69.947733 
L 50.336982 68.53505 
L 50.327487 67.122368 
L 50.310923 65.709685 
L 50.288243 64.297002 
L 50.260663 62.884319 
L 50.22977 61.471636 
L 50.197553 60.058953 
L 50.166334 58.64627 
L 50.138595 57.233587 
L 50.116725 55.820904 
L 50.102716 54.408221 
L 50.097899 52.995538 
L 50.702101 52.995538 
L 50.702101 52.995538 
L 50.697284 54.408221 
L 50.683275 55.820904 
L 50.661405 57.233587 
L 50.633666 58.64627 
L 50.602447 60.058953 
L 50.57023 61.471636 
L 50.539337 62.884319 
L 50.511757 64.297002 
L 50.489077 65.709685 
L 50.472513 67.122368 
L 50.463018 68.53505 
L 50.461411 69.947733 
L 50.468494 71.360416 
L 50.485109 72.773099 
L 50.512112 74.185782 
L 50.550262 75.598465 
L 50.60005 77.011148 
L 50.661509 78.423831 
L 50.734056 79.836514 
L 50.816441 81.249197 
L 50.906814 82.66188 
L 51.002941 84.074562 
L 51.102518 85.487245 
L 51.203522 86.899928 
L 51.30451 88.312611 
L 51.404776 89.725294 
L 51.504341 91.137977 
L 51.603772 92.55066 
L 51.703906 93.963343 
L 51.805589 95.376026 
L 51.909538 96.788709 
L 52.016411 98.201391 
L 52.127112 99.614074 
L 52.243263 101.026757 
L 52.367743 102.43944 
L 52.505135 103.852123 
L 52.661926 105.264806 
L 52.846342 106.677489 
L 53.067775 108.090172 
L 53.335812 109.502855 
L 53.658997 110.915538 
L 54.043511 112.328221 
L 54.492006 113.740903 
L 55.002866 115.153586 
L 55.57008 116.566269 
L 56.183839 117.978952 
L 56.831802 119.391635 
L 57.500812 120.804318 
L 58.178717 122.217001 
L 58.855885 123.629684 
L 59.526082 125.042367 
L 60.18651 126.45505 
L 60.837059 127.867733 
L 61.479001 129.280415 
L 62.113521 130.693098 
L 62.740478 132.105781 
L 63.35767 133.518464 
L 63.960712 134.931147 
L 64.543423 136.34383 
L 65.09848 137.756513 
L 65.618091 139.169196 
L 66.094509 140.581879 
L 66.52033 141.994562 
L 66.88864 143.407245 
L 67.193144 144.819927 
L 67.428347 146.23261 
L 67.589798 147.645293 
L 67.674306 149.057976 
L 67.68 150.470659 
L 67.606157 151.883342 
L 67.452825 153.296025 
L 67.220376 154.708708 
L 66.909204 156.121391 
L 66.519741 157.534074 
L 66.052871 158.946757 
L 65.510637 160.359439 
L 64.897039 161.772122 
L 64.218639 163.184805 
L 63.484747 164.597488 
L 62.707114 166.010171 
L 61.899205 167.422854 
L 61.075253 168.835537 
L 60.249333 170.24822 
L 59.434646 171.660903 
L 58.64308 173.073586 
L 57.884996 174.486268 
L 57.169118 175.898951 
L 56.502387 177.311634 
L 55.889724 178.724317 
L 55.333719 180.137 
L 54.834352 181.549683 
L 54.388913 182.962366 
L 53.992219 184.375049 
L 53.637186 185.787732 
L 53.315699 187.200415 
L 53.019652 188.613098 
L 52.741961 190.02578 
L 52.477367 191.438463 
L 52.222903 192.851146 
L 52.222903 192.851146 
z
" clip-path="url(#p532682171b)" style="fill: none; stroke: #000000; stroke-opacity: 0.3"/>
   </g>
   <g id="FillBetweenPolyCollection_5">
    <path d="M 52.192974 225.584141 
L 48.607026 225.584141 
L 48.388912 223.715477 
L 48.150303 221.846813 
L 47.88747 219.978149 
L 47.596411 218.109485 
L 47.273247 216.240821 
L 46.914704 214.372157 
L 46.518609 212.503493 
L 46.084363 210.634829 
L 45.613313 208.766165 
L 45.10896 206.897501 
L 44.576973 205.028837 
L 44.024964 203.160173 
L 43.462047 201.291509 
L 42.898205 199.422845 
L 42.343526 197.554181 
L 41.807392 195.685517 
L 41.297699 193.816853 
L 40.820216 191.948189 
L 40.378138 190.079525 
L 39.971894 188.210861 
L 39.599221 186.342197 
L 39.255501 184.473533 
L 38.934312 182.604869 
L 38.628119 180.736205 
L 38.329039 178.867541 
L 38.029585 176.998877 
L 37.723329 175.130213 
L 37.405408 173.261549 
L 37.072862 171.392885 
L 36.724783 169.524221 
L 36.362298 167.655557 
L 35.988416 165.786893 
L 35.607794 163.918229 
L 35.226456 162.049565 
L 34.851518 160.180901 
L 34.490933 158.312237 
L 34.153279 156.443573 
L 33.847574 154.57491 
L 33.583096 152.706246 
L 33.369196 150.837582 
L 33.21505 148.968918 
L 33.129363 147.100254 
L 33.12 145.23159 
L 33.193571 143.362926 
L 33.355001 141.494262 
L 33.607126 139.625598 
L 33.950372 137.756934 
L 34.382556 135.88827 
L 34.898849 134.019606 
L 35.491911 132.150942 
L 36.152189 130.282278 
L 36.868367 128.413614 
L 37.627895 126.54495 
L 38.417583 124.676286 
L 39.224172 122.807622 
L 40.034859 120.938958 
L 40.837739 119.070294 
L 41.622129 117.20163 
L 42.378793 115.332966 
L 43.10006 113.464302 
L 43.779855 111.595638 
L 44.413669 109.726974 
L 44.998486 107.85831 
L 45.532677 105.989646 
L 46.015887 104.120982 
L 46.448901 102.252318 
L 46.833511 100.383654 
L 47.172366 98.51499 
L 47.46881 96.646326 
L 47.726713 94.777662 
L 47.950279 92.908998 
L 48.143856 91.040334 
L 48.311749 89.17167 
L 48.458033 87.303006 
L 48.586407 85.434342 
L 48.700069 83.565678 
L 48.80164 81.697014 
L 48.893135 79.82835 
L 48.975985 77.959686 
L 49.051103 76.091022 
L 49.118986 74.222358 
L 49.179841 72.353694 
L 49.233725 70.48503 
L 49.280677 68.616366 
L 49.32083 66.747702 
L 49.354504 64.879038 
L 49.382253 63.010374 
L 49.404886 61.14171 
L 49.423449 59.273046 
L 49.439181 57.404382 
L 49.45345 55.535718 
L 49.467675 53.667054 
L 49.483245 51.79839 
L 49.501443 49.929726 
L 49.523368 48.061062 
L 49.549879 46.192398 
L 49.581545 44.323734 
L 49.618614 42.45507 
L 49.661001 40.586406 
L 51.138999 40.586406 
L 51.138999 40.586406 
L 51.181386 42.45507 
L 51.218455 44.323734 
L 51.250121 46.192398 
L 51.276632 48.061062 
L 51.298557 49.929726 
L 51.316755 51.79839 
L 51.332325 53.667054 
L 51.34655 55.535718 
L 51.360819 57.404382 
L 51.376551 59.273046 
L 51.395114 61.14171 
L 51.417747 63.010374 
L 51.445496 64.879038 
L 51.47917 66.747702 
L 51.519323 68.616366 
L 51.566275 70.48503 
L 51.620159 72.353694 
L 51.681014 74.222358 
L 51.748897 76.091022 
L 51.824015 77.959686 
L 51.906865 79.82835 
L 51.99836 81.697014 
L 52.099931 83.565678 
L 52.213593 85.434342 
L 52.341967 87.303006 
L 52.488251 89.17167 
L 52.656144 91.040334 
L 52.849721 92.908998 
L 53.073287 94.777662 
L 53.33119 96.646326 
L 53.627634 98.51499 
L 53.966489 100.383654 
L 54.351099 102.252318 
L 54.784113 104.120982 
L 55.267323 105.989646 
L 55.801514 107.85831 
L 56.386331 109.726974 
L 57.020145 111.595638 
L 57.69994 113.464302 
L 58.421207 115.332966 
L 59.177871 117.20163 
L 59.962261 119.070294 
L 60.765141 120.938958 
L 61.575828 122.807622 
L 62.382417 124.676286 
L 63.172105 126.54495 
L 63.931633 128.413614 
L 64.647811 130.282278 
L 65.308089 132.150942 
L 65.901151 134.019606 
L 66.417444 135.88827 
L 66.849628 137.756934 
L 67.192874 139.625598 
L 67.444999 141.494262 
L 67.606429 143.362926 
L 67.68 145.23159 
L 67.670637 147.100254 
L 67.58495 148.968918 
L 67.430804 150.837582 
L 67.216904 152.706246 
L 66.952426 154.57491 
L 66.646721 156.443573 
L 66.309067 158.312237 
L 65.948482 160.180901 
L 65.573544 162.049565 
L 65.192206 163.918229 
L 64.811584 165.786893 
L 64.437702 167.655557 
L 64.075217 169.524221 
L 63.727138 171.392885 
L 63.394592 173.261549 
L 63.076671 175.130213 
L 62.770415 176.998877 
L 62.470961 178.867541 
L 62.171881 180.736205 
L 61.865688 182.604869 
L 61.544499 184.473533 
L 61.200779 186.342197 
L 60.828106 188.210861 
L 60.421862 190.079525 
L 59.979784 191.948189 
L 59.502301 193.816853 
L 58.992608 195.685517 
L 58.456474 197.554181 
L 57.901795 199.422845 
L 57.337953 201.291509 
L 56.775036 203.160173 
L 56.223027 205.028837 
L 55.69104 206.897501 
L 55.186687 208.766165 
L 54.715637 210.634829 
L 54.281391 212.503493 
L 53.885296 214.372157 
L 53.526753 216.240821 
L 53.203589 218.109485 
L 52.91253 219.978149 
L 52.649697 221.846813 
L 52.411088 223.715477 
L 52.192974 225.584141 
L 52.192974 225.584141 
z
" clip-path="url(#p532682171b)" style="fill: none; stroke: #000000; stroke-opacity: 0.3"/>
   </g>
   <g id="FillBetweenPolyCollection_6">
    <path d="M 53.687445 184.972262 
L 47.112555 184.972262 
L 46.778089 183.799893 
L 46.433787 182.627525 
L 46.081831 181.455157 
L 45.724471 180.282789 
L 45.363949 179.110421 
L 45.002416 177.938053 
L 44.641816 176.765685 
L 44.28378 175.593317 
L 43.929507 174.420949 
L 43.579658 173.24858 
L 43.23428 172.076212 
L 42.89277 170.903844 
L 42.553883 169.731476 
L 42.215806 168.559108 
L 41.876287 167.38674 
L 41.53281 166.214372 
L 41.18282 165.042004 
L 40.823953 163.869636 
L 40.454269 162.697268 
L 40.072456 161.524899 
L 39.677985 160.352531 
L 39.271199 159.180163 
L 38.853334 158.007795 
L 38.426463 156.835427 
L 37.993383 155.663059 
L 37.557454 154.490691 
L 37.12241 153.318323 
L 36.692168 152.145955 
L 36.27066 150.973586 
L 35.861697 149.801218 
L 35.468884 148.62885 
L 35.095589 147.456482 
L 34.744963 146.284114 
L 34.420005 145.111746 
L 34.123648 143.939378 
L 33.858863 142.76701 
L 33.628751 141.594642 
L 33.4366 140.422273 
L 33.285917 139.249905 
L 33.180393 138.077537 
L 33.123829 136.905169 
L 33.12 135.732801 
L 33.172489 134.560433 
L 33.284485 133.388065 
L 33.458578 132.215697 
L 33.696558 131.043329 
L 33.999239 129.870961 
L 34.366325 128.698592 
L 34.796326 127.526224 
L 35.286526 126.353856 
L 35.833015 125.181488 
L 36.430772 124.00912 
L 37.073787 122.836752 
L 37.755235 121.664384 
L 38.467659 120.492016 
L 39.203179 119.319648 
L 39.953701 118.147279 
L 40.711122 116.974911 
L 41.467522 115.802543 
L 42.215336 114.630175 
L 42.947511 113.457807 
L 43.657633 112.285439 
L 44.340026 111.113071 
L 44.989833 109.940703 
L 45.603059 108.768335 
L 46.176595 107.595966 
L 46.708216 106.423598 
L 47.196549 105.25123 
L 47.64103 104.078862 
L 48.041832 102.906494 
L 48.399786 101.734126 
L 48.71628 100.561758 
L 48.993163 99.38939 
L 49.232633 98.217022 
L 49.437135 97.044653 
L 49.609254 95.872285 
L 49.751628 94.699917 
L 49.866863 93.527549 
L 49.957471 92.355181 
L 50.02582 91.182813 
L 50.074113 90.010445 
L 50.104375 88.838077 
L 50.118469 87.665709 
L 50.11812 86.493341 
L 50.104965 85.320972 
L 50.080595 84.148604 
L 50.04661 82.976236 
L 50.004666 81.803868 
L 49.95651 80.6315 
L 49.904003 79.459132 
L 49.849118 78.286764 
L 49.793919 77.114396 
L 49.740511 75.942028 
L 49.690981 74.769659 
L 49.64731 73.597291 
L 49.611291 72.424923 
L 49.584435 71.252555 
L 49.567895 70.080187 
L 49.562398 68.907819 
L 51.237602 68.907819 
L 51.237602 68.907819 
L 51.232105 70.080187 
L 51.215565 71.252555 
L 51.188709 72.424923 
L 51.15269 73.597291 
L 51.109019 74.769659 
L 51.059489 75.942028 
L 51.006081 77.114396 
L 50.950882 78.286764 
L 50.895997 79.459132 
L 50.84349 80.6315 
L 50.795334 81.803868 
L 50.75339 82.976236 
L 50.719405 84.148604 
L 50.695035 85.320972 
L 50.68188 86.493341 
L 50.681531 87.665709 
L 50.695625 88.838077 
L 50.725887 90.010445 
L 50.77418 91.182813 
L 50.842529 92.355181 
L 50.933137 93.527549 
L 51.048372 94.699917 
L 51.190746 95.872285 
L 51.362865 97.044653 
L 51.567367 98.217022 
L 51.806837 99.38939 
L 52.08372 100.561758 
L 52.400214 101.734126 
L 52.758168 102.906494 
L 53.15897 104.078862 
L 53.603451 105.25123 
L 54.091784 106.423598 
L 54.623405 107.595966 
L 55.196941 108.768335 
L 55.810167 109.940703 
L 56.459974 111.113071 
L 57.142367 112.285439 
L 57.852489 113.457807 
L 58.584664 114.630175 
L 59.332478 115.802543 
L 60.088878 116.974911 
L 60.846299 118.147279 
L 61.596821 119.319648 
L 62.332341 120.492016 
L 63.044765 121.664384 
L 63.726213 122.836752 
L 64.369228 124.00912 
L 64.966985 125.181488 
L 65.513474 126.353856 
L 66.003674 127.526224 
L 66.433675 128.698592 
L 66.800761 129.870961 
L 67.103442 131.043329 
L 67.341422 132.215697 
L 67.515515 133.388065 
L 67.627511 134.560433 
L 67.68 135.732801 
L 67.676171 136.905169 
L 67.619607 138.077537 
L 67.514083 139.249905 
L 67.3634 140.422273 
L 67.171249 141.594642 
L 66.941137 142.76701 
L 66.676352 143.939378 
L 66.379995 145.111746 
L 66.055037 146.284114 
L 65.704411 147.456482 
L 65.331116 148.62885 
L 64.938303 149.801218 
L 64.52934 150.973586 
L 64.107832 152.145955 
L 63.67759 153.318323 
L 63.242546 154.490691 
L 62.806617 155.663059 
L 62.373537 156.835427 
L 61.946666 158.007795 
L 61.528801 159.180163 
L 61.122015 160.352531 
L 60.727544 161.524899 
L 60.345731 162.697268 
L 59.976047 163.869636 
L 59.61718 165.042004 
L 59.26719 166.214372 
L 58.923713 167.38674 
L 58.584194 168.559108 
L 58.246117 169.731476 
L 57.90723 170.903844 
L 57.56572 172.076212 
L 57.220342 173.24858 
L 56.870493 174.420949 
L 56.51622 175.593317 
L 56.158184 176.765685 
L 55.797584 177.938053 
L 55.436051 179.110421 
L 55.075529 180.282789 
L 54.718169 181.455157 
L 54.366213 182.627525 
L 54.021911 183.799893 
L 53.687445 184.972262 
L 53.687445 184.972262 
z
" clip-path="url(#p532682171b)" style="fill: none; stroke: #000000; stroke-opacity: 0.3"/>
   </g>
   <g id="FillBetweenPolyCollection_7">
    <path d="M 53.723066 212.518326 
L 47.076934 212.518326 
L 46.865037 211.513336 
L 46.646907 210.508346 
L 46.422415 209.503356 
L 46.191451 208.498365 
L 45.953954 207.493375 
L 45.70994 206.488385 
L 45.459532 205.483395 
L 45.202988 204.478405 
L 44.940721 203.473414 
L 44.673318 202.468424 
L 44.401544 201.463434 
L 44.126344 200.458444 
L 43.84883 199.453454 
L 43.570257 198.448463 
L 43.291993 197.443473 
L 43.015475 196.438483 
L 42.74216 195.433493 
L 42.473473 194.428502 
L 42.210743 193.423512 
L 41.955153 192.418522 
L 41.707675 191.413532 
L 41.469031 190.408542 
L 41.239644 189.403551 
L 41.019616 188.398561 
L 40.808706 187.393571 
L 40.606335 186.388581 
L 40.411594 185.383591 
L 40.223276 184.3786 
L 40.039921 183.37361 
L 39.859866 182.36862 
L 39.681312 181.36363 
L 39.5024 180.358639 
L 39.321279 179.353649 
L 39.136188 178.348659 
L 38.945528 177.343669 
L 38.747922 176.338679 
L 38.542281 175.333688 
L 38.327841 174.328698 
L 38.104196 173.323708 
L 37.871317 172.318718 
L 37.62955 171.313728 
L 37.379604 170.308737 
L 37.122524 169.303747 
L 36.859655 168.298757 
L 36.592592 167.293767 
L 36.32313 166.288776 
L 36.053204 165.283786 
L 35.784837 164.278796 
L 35.52008 163.273806 
L 35.26097 162.268816 
L 35.009481 161.263825 
L 34.767493 160.258835 
L 34.53677 159.253845 
L 34.318944 158.248855 
L 34.115506 157.243865 
L 33.927816 156.238874 
L 33.757105 155.233884 
L 33.604493 154.228894 
L 33.471002 153.223904 
L 33.357572 152.218914 
L 33.265079 151.213923 
L 33.194338 150.208933 
L 33.146114 149.203943 
L 33.121118 148.198953 
L 33.12 147.193962 
L 33.143337 146.188972 
L 33.191613 145.183982 
L 33.265198 144.178992 
L 33.364325 143.174002 
L 33.489064 142.169011 
L 33.639306 141.164021 
L 33.81474 140.159031 
L 34.014848 139.154041 
L 34.238901 138.149051 
L 34.485963 137.14406 
L 34.754904 136.13907 
L 35.044426 135.13408 
L 35.35309 134.12909 
L 35.679352 133.124099 
L 36.021601 132.119109 
L 36.378199 131.114119 
L 36.747524 130.109129 
L 37.128001 129.104139 
L 37.518136 128.099148 
L 37.916542 127.094158 
L 38.321949 126.089168 
L 38.733217 125.084178 
L 39.14933 124.079188 
L 39.569387 123.074197 
L 39.992583 122.069207 
L 40.418183 121.064217 
L 40.845497 120.059227 
L 41.27385 119.054236 
L 41.702548 118.049246 
L 42.130854 117.044256 
L 42.557963 116.039266 
L 42.982987 115.034276 
L 43.404939 114.029285 
L 43.822738 113.024295 
L 56.977262 113.024295 
L 56.977262 113.024295 
L 57.395061 114.029285 
L 57.817013 115.034276 
L 58.242037 116.039266 
L 58.669146 117.044256 
L 59.097452 118.049246 
L 59.52615 119.054236 
L 59.954503 120.059227 
L 60.381817 121.064217 
L 60.807417 122.069207 
L 61.230613 123.074197 
L 61.65067 124.079188 
L 62.066783 125.084178 
L 62.478051 126.089168 
L 62.883458 127.094158 
L 63.281864 128.099148 
L 63.671999 129.104139 
L 64.052476 130.109129 
L 64.421801 131.114119 
L 64.778399 132.119109 
L 65.120648 133.124099 
L 65.44691 134.12909 
L 65.755574 135.13408 
L 66.045096 136.13907 
L 66.314037 137.14406 
L 66.561099 138.149051 
L 66.785152 139.154041 
L 66.98526 140.159031 
L 67.160694 141.164021 
L 67.310936 142.169011 
L 67.435675 143.174002 
L 67.534802 144.178992 
L 67.608387 145.183982 
L 67.656663 146.188972 
L 67.68 147.193962 
L 67.678882 148.198953 
L 67.653886 149.203943 
L 67.605662 150.208933 
L 67.534921 151.213923 
L 67.442428 152.218914 
L 67.328998 153.223904 
L 67.195507 154.228894 
L 67.042895 155.233884 
L 66.872184 156.238874 
L 66.684494 157.243865 
L 66.481056 158.248855 
L 66.26323 159.253845 
L 66.032507 160.258835 
L 65.790519 161.263825 
L 65.53903 162.268816 
L 65.27992 163.273806 
L 65.015163 164.278796 
L 64.746796 165.283786 
L 64.47687 166.288776 
L 64.207408 167.293767 
L 63.940345 168.298757 
L 63.677476 169.303747 
L 63.420396 170.308737 
L 63.17045 171.313728 
L 62.928683 172.318718 
L 62.695804 173.323708 
L 62.472159 174.328698 
L 62.257719 175.333688 
L 62.052078 176.338679 
L 61.854472 177.343669 
L 61.663812 178.348659 
L 61.478721 179.353649 
L 61.2976 180.358639 
L 61.118688 181.36363 
L 60.940134 182.36862 
L 60.760079 183.37361 
L 60.576724 184.3786 
L 60.388406 185.383591 
L 60.193665 186.388581 
L 59.991294 187.393571 
L 59.780384 188.398561 
L 59.560356 189.403551 
L 59.330969 190.408542 
L 59.092325 191.413532 
L 58.844847 192.418522 
L 58.589257 193.423512 
L 58.326527 194.428502 
L 58.05784 195.433493 
L 57.784525 196.438483 
L 57.508007 197.443473 
L 57.229743 198.448463 
L 56.95117 199.453454 
L 56.673656 200.458444 
L 56.398456 201.463434 
L 56.126682 202.468424 
L 55.859279 203.473414 
L 55.597012 204.478405 
L 55.340468 205.483395 
L 55.09006 206.488385 
L 54.846046 207.493375 
L 54.608549 208.498365 
L 54.377585 209.503356 
L 54.153093 210.508346 
L 53.934963 211.513336 
L 53.723066 212.518326 
L 53.723066 212.518326 
z
" clip-path="url(#p532682171b)" style="fill: none; stroke: #000000; stroke-opacity: 0.3"/>
   </g>
   <g id="FillBetweenPolyCollection_8">
    <path d="M 109.180935 247.453468 
L 106.819065 247.453468 
L 106.818668 245.919996 
L 106.826172 244.386524 
L 106.840791 242.853053 
L 106.861429 241.319581 
L 106.886699 239.78611 
L 106.914938 238.252638 
L 106.944242 236.719166 
L 106.9725 235.185695 
L 106.997435 233.652223 
L 107.016656 232.118752 
L 107.0277 230.58528 
L 107.028093 229.051808 
L 107.0154 227.518337 
L 106.987283 225.984865 
L 106.941557 224.451394 
L 106.876248 222.917922 
L 106.789646 221.38445 
L 106.680361 219.850979 
L 106.547367 218.317507 
L 106.390047 216.784036 
L 106.208226 215.250564 
L 106.002191 213.717092 
L 105.7727 212.183621 
L 105.520974 210.650149 
L 105.248671 209.116678 
L 104.957838 207.583206 
L 104.650852 206.049734 
L 104.330333 204.516263 
L 103.999046 202.982791 
L 103.659798 201.449319 
L 103.315314 199.915848 
L 102.968126 198.382376 
L 102.620461 196.848905 
L 102.274146 195.315433 
L 101.930529 193.781961 
L 101.59043 192.24849 
L 101.254114 190.715018 
L 100.921309 189.181547 
L 100.591238 187.648075 
L 100.262704 186.114603 
L 99.934181 184.581132 
L 99.603938 183.04766 
L 99.270175 181.514189 
L 98.931155 179.980717 
L 98.585346 178.447245 
L 98.231538 176.913774 
L 97.868944 175.380302 
L 97.497276 173.846831 
L 97.116788 172.313359 
L 96.728293 170.779887 
L 96.333134 169.246416 
L 95.933148 167.712944 
L 95.530586 166.179473 
L 95.128027 164.646001 
L 94.728277 163.112529 
L 94.334271 161.579058 
L 93.948968 160.045586 
L 93.575268 158.512114 
L 93.215934 156.978643 
L 92.87354 155.445171 
L 92.550434 153.9117 
L 92.248717 152.378228 
L 91.970248 150.844756 
L 91.716651 149.311285 
L 91.489339 147.777813 
L 91.289543 146.244342 
L 91.118334 144.71087 
L 90.97665 143.177398 
L 90.865314 141.643927 
L 90.78504 140.110455 
L 90.736438 138.576984 
L 90.72 137.043512 
L 90.736094 135.51004 
L 90.78494 133.976569 
L 90.866596 132.443097 
L 90.980936 130.909626 
L 91.127644 129.376154 
L 91.306207 127.842682 
L 91.515918 126.309211 
L 91.755891 124.775739 
L 92.025078 123.242268 
L 92.322303 121.708796 
L 92.646286 120.175324 
L 92.995679 118.641853 
L 93.369096 117.108381 
L 93.765133 115.574909 
L 94.18239 114.041438 
L 94.619471 112.507966 
L 95.074983 110.974495 
L 95.547518 109.441023 
L 96.03563 107.907551 
L 96.537802 106.37408 
L 97.052412 104.840608 
L 97.577695 103.307137 
L 98.111718 101.773665 
L 98.65235 100.240193 
L 99.197256 98.706722 
L 99.743898 97.17325 
L 100.289553 95.639779 
L 115.710447 95.639779 
L 115.710447 95.639779 
L 116.256102 97.17325 
L 116.802744 98.706722 
L 117.34765 100.240193 
L 117.888282 101.773665 
L 118.422305 103.307137 
L 118.947588 104.840608 
L 119.462198 106.37408 
L 119.96437 107.907551 
L 120.452482 109.441023 
L 120.925017 110.974495 
L 121.380529 112.507966 
L 121.81761 114.041438 
L 122.234867 115.574909 
L 122.630904 117.108381 
L 123.004321 118.641853 
L 123.353714 120.175324 
L 123.677697 121.708796 
L 123.974922 123.242268 
L 124.244109 124.775739 
L 124.484082 126.309211 
L 124.693793 127.842682 
L 124.872356 129.376154 
L 125.019064 130.909626 
L 125.133404 132.443097 
L 125.21506 133.976569 
L 125.263906 135.51004 
L 125.28 137.043512 
L 125.263562 138.576984 
L 125.21496 140.110455 
L 125.134686 141.643927 
L 125.02335 143.177398 
L 124.881666 144.71087 
L 124.710457 146.244342 
L 124.510661 147.777813 
L 124.283349 149.311285 
L 124.029752 150.844756 
L 123.751283 152.378228 
L 123.449566 153.9117 
L 123.12646 155.445171 
L 122.784066 156.978643 
L 122.424732 158.512114 
L 122.051032 160.045586 
L 121.665729 161.579058 
L 121.271723 163.112529 
L 120.871973 164.646001 
L 120.469414 166.179473 
L 120.066852 167.712944 
L 119.666866 169.246416 
L 119.271707 170.779887 
L 118.883212 172.313359 
L 118.502724 173.846831 
L 118.131056 175.380302 
L 117.768462 176.913774 
L 117.414654 178.447245 
L 117.068845 179.980717 
L 116.729825 181.514189 
L 116.396062 183.04766 
L 116.065819 184.581132 
L 115.737296 186.114603 
L 115.408762 187.648075 
L 115.078691 189.181547 
L 114.745886 190.715018 
L 114.40957 192.24849 
L 114.069471 193.781961 
L 113.725854 195.315433 
L 113.379539 196.848905 
L 113.031874 198.382376 
L 112.684686 199.915848 
L 112.340202 201.449319 
L 112.000954 202.982791 
L 111.669667 204.516263 
L 111.349148 206.049734 
L 111.042162 207.583206 
L 110.751329 209.116678 
L 110.479026 210.650149 
L 110.2273 212.183621 
L 109.997809 213.717092 
L 109.791774 215.250564 
L 109.609953 216.784036 
L 109.452633 218.317507 
L 109.319639 219.850979 
L 109.210354 221.38445 
L 109.123752 222.917922 
L 109.058443 224.451394 
L 109.012717 225.984865 
L 108.9846 227.518337 
L 108.971907 229.051808 
L 108.9723 230.58528 
L 108.983344 232.118752 
L 109.002565 233.652223 
L 109.0275 235.185695 
L 109.055758 236.719166 
L 109.085062 238.252638 
L 109.113301 239.78611 
L 109.138571 241.319581 
L 109.159209 242.853053 
L 109.173828 244.386524 
L 109.181332 245.919996 
L 109.180935 247.453468 
L 109.180935 247.453468 
z
" clip-path="url(#p532682171b)" style="fill: none; stroke: #000000; stroke-opacity: 0.3"/>
   </g>
   <g id="FillBetweenPolyCollection_9">
    <path d="M 108.736848 258.189909 
L 107.263152 258.189909 
L 107.269447 256.454142 
L 107.288019 254.718374 
L 107.317928 252.982607 
L 107.357689 251.246839 
L 107.4054 249.511072 
L 107.45888 247.775305 
L 107.515834 246.039537 
L 107.573999 244.30377 
L 107.631281 242.568003 
L 107.685847 240.832235 
L 107.736192 239.096468 
L 107.781151 237.360701 
L 107.819886 235.624933 
L 107.851832 233.889166 
L 107.876622 232.153398 
L 107.894003 230.417631 
L 107.903747 228.681864 
L 107.905561 226.946096 
L 107.899024 225.210329 
L 107.883524 223.474562 
L 107.85823 221.738794 
L 107.822073 220.003027 
L 107.773756 218.267259 
L 107.71177 216.531492 
L 107.634434 214.795725 
L 107.539935 213.059957 
L 107.426376 211.32419 
L 107.291827 209.588423 
L 107.134369 207.852655 
L 106.952135 206.116888 
L 106.743343 204.381121 
L 106.506321 202.645353 
L 106.239532 200.909586 
L 105.941582 199.173818 
L 105.611235 197.438051 
L 105.24742 195.702284 
L 104.849237 193.966516 
L 104.415973 192.230749 
L 103.947121 190.494982 
L 103.442413 188.759214 
L 102.901878 187.023447 
L 102.325921 185.28768 
L 101.71543 183.551912 
L 101.071919 181.816145 
L 100.397688 180.080377 
L 99.695995 178.34461 
L 98.971229 176.608843 
L 98.229032 174.873075 
L 97.476375 173.137308 
L 96.721527 171.401541 
L 95.973922 169.665773 
L 95.243888 167.930006 
L 94.542254 166.194239 
L 93.879845 164.458471 
L 93.266901 162.722704 
L 92.712461 160.986936 
L 92.223783 159.251169 
L 91.805833 157.515402 
L 91.460926 155.779634 
L 91.188543 154.043867 
L 90.985364 152.3081 
L 90.845518 150.572332 
L 90.76105 148.836565 
L 90.722565 147.100797 
L 90.72 145.36503 
L 90.743468 143.629263 
L 90.784089 141.893495 
L 90.834748 140.157728 
L 90.890697 138.421961 
L 90.949951 136.686193 
L 91.013429 134.950426 
L 91.08483 133.214659 
L 91.170248 131.478891 
L 91.277562 129.743124 
L 91.415655 128.007356 
L 91.593553 126.271589 
L 91.819554 124.535822 
L 92.100444 122.800054 
L 92.440874 121.064287 
L 92.842943 119.32852 
L 93.306031 117.592752 
L 93.826863 115.856985 
L 94.399792 114.121218 
L 95.017253 112.38545 
L 95.670309 110.649683 
L 96.349258 108.913915 
L 97.044215 107.178148 
L 97.745628 105.442381 
L 98.444706 103.706613 
L 99.133727 101.970846 
L 99.80623 100.235079 
L 100.457094 98.499311 
L 101.08252 96.763544 
L 101.679927 95.027777 
L 102.247798 93.292009 
L 102.785477 91.556242 
L 103.292949 89.820474 
L 103.770617 88.084707 
L 104.219105 86.34894 
L 111.780895 86.34894 
L 111.780895 86.34894 
L 112.229383 88.084707 
L 112.707051 89.820474 
L 113.214523 91.556242 
L 113.752202 93.292009 
L 114.320073 95.027777 
L 114.91748 96.763544 
L 115.542906 98.499311 
L 116.19377 100.235079 
L 116.866273 101.970846 
L 117.555294 103.706613 
L 118.254372 105.442381 
L 118.955785 107.178148 
L 119.650742 108.913915 
L 120.329691 110.649683 
L 120.982747 112.38545 
L 121.600208 114.121218 
L 122.173137 115.856985 
L 122.693969 117.592752 
L 123.157057 119.32852 
L 123.559126 121.064287 
L 123.899556 122.800054 
L 124.180446 124.535822 
L 124.406447 126.271589 
L 124.584345 128.007356 
L 124.722438 129.743124 
L 124.829752 131.478891 
L 124.91517 133.214659 
L 124.986571 134.950426 
L 125.050049 136.686193 
L 125.109303 138.421961 
L 125.165252 140.157728 
L 125.215911 141.893495 
L 125.256532 143.629263 
L 125.28 145.36503 
L 125.277435 147.100797 
L 125.23895 148.836565 
L 125.154482 150.572332 
L 125.014636 152.3081 
L 124.811457 154.043867 
L 124.539074 155.779634 
L 124.194167 157.515402 
L 123.776217 159.251169 
L 123.287539 160.986936 
L 122.733099 162.722704 
L 122.120155 164.458471 
L 121.457746 166.194239 
L 120.756112 167.930006 
L 120.026078 169.665773 
L 119.278473 171.401541 
L 118.523625 173.137308 
L 117.770968 174.873075 
L 117.028771 176.608843 
L 116.304005 178.34461 
L 115.602312 180.080377 
L 114.928081 181.816145 
L 114.28457 183.551912 
L 113.674079 185.28768 
L 113.098122 187.023447 
L 112.557587 188.759214 
L 112.052879 190.494982 
L 111.584027 192.230749 
L 111.150763 193.966516 
L 110.75258 195.702284 
L 110.388765 197.438051 
L 110.058418 199.173818 
L 109.760468 200.909586 
L 109.493679 202.645353 
L 109.256657 204.381121 
L 109.047865 206.116888 
L 108.865631 207.852655 
L 108.708173 209.588423 
L 108.573624 211.32419 
L 108.460065 213.059957 
L 108.365566 214.795725 
L 108.28823 216.531492 
L 108.226244 218.267259 
L 108.177927 220.003027 
L 108.14177 221.738794 
L 108.116476 223.474562 
L 108.100976 225.210329 
L 108.094439 226.946096 
L 108.096253 228.681864 
L 108.105997 230.417631 
L 108.123378 232.153398 
L 108.148168 233.889166 
L 108.180114 235.624933 
L 108.218849 237.360701 
L 108.263808 239.096468 
L 108.314153 240.832235 
L 108.368719 242.568003 
L 108.426001 244.30377 
L 108.484166 246.039537 
L 108.54112 247.775305 
L 108.5946 249.511072 
L 108.642311 251.246839 
L 108.682072 252.982607 
L 108.711981 254.718374 
L 108.730553 256.454142 
L 108.736848 258.189909 
L 108.736848 258.189909 
z
" clip-path="url(#p532682171b)" style="fill: none; stroke: #000000; stroke-opacity: 0.3"/>
   </g>
   <g id="FillBetweenPolyCollection_10">
    <path d="M 108.523815 298.392513 
L 107.476185 298.392513 
L 107.483737 295.868874 
L 107.505747 293.345235 
L 107.540364 290.821595 
L 107.584789 288.297956 
L 107.635645 285.774317 
L 107.689397 283.250678 
L 107.742744 280.727039 
L 107.792917 278.2034 
L 107.837864 275.67976 
L 107.876297 273.156121 
L 107.907618 270.632482 
L 107.931761 268.108843 
L 107.948991 265.585204 
L 107.95969 263.061565 
L 107.964175 260.537925 
L 107.962561 258.014286 
L 107.954686 255.490647 
L 107.940109 252.967008 
L 107.91817 250.443369 
L 107.888099 247.919729 
L 107.84918 245.39609 
L 107.800913 242.872451 
L 107.743176 240.348812 
L 107.676331 237.825173 
L 107.601258 235.301534 
L 107.519305 232.777894 
L 107.432135 230.254255 
L 107.341518 227.730616 
L 107.249083 225.206977 
L 107.156092 222.683338 
L 107.063281 220.159699 
L 106.970778 217.636059 
L 106.878113 215.11242 
L 106.784286 212.588781 
L 106.687813 210.065142 
L 106.5867 207.541503 
L 106.478284 205.017864 
L 106.358893 202.494224 
L 106.223387 199.970585 
L 106.064629 197.446946 
L 105.873058 194.923307 
L 105.636522 192.399668 
L 105.340538 189.876028 
L 104.969102 187.352389 
L 104.506073 184.82875 
L 103.937033 182.305111 
L 103.251427 179.781472 
L 102.444656 177.257833 
L 101.51979 174.734193 
L 100.48858 172.210554 
L 99.371539 169.686915 
L 98.197042 167.163276 
L 96.999512 164.639637 
L 95.816968 162.115998 
L 94.68826 159.592358 
L 93.650366 157.068719 
L 92.736082 154.54508 
L 91.972339 152.021441 
L 91.379227 149.497802 
L 90.969726 146.974163 
L 90.749988 144.450523 
L 90.72 141.926884 
L 90.874415 139.403245 
L 91.203391 136.879606 
L 91.693322 134.355967 
L 92.327429 131.832327 
L 93.086242 129.308688 
L 93.948068 126.785049 
L 94.889534 124.26141 
L 95.886289 121.737771 
L 96.913911 119.214132 
L 97.948948 116.690492 
L 98.970012 114.166853 
L 99.958753 111.643214 
L 100.900557 109.119575 
L 101.78485 106.595936 
L 102.604954 104.072297 
L 103.357554 101.548657 
L 104.041894 99.025018 
L 104.658884 96.501379 
L 105.210289 93.97774 
L 105.698138 91.454101 
L 106.12442 88.930462 
L 106.491037 86.406822 
L 106.799959 83.883183 
L 107.053478 81.359544 
L 107.254446 78.835905 
L 107.406457 76.312266 
L 107.513924 73.788626 
L 107.582055 71.264987 
L 107.616758 68.741348 
L 107.624489 66.217709 
L 107.612057 63.69407 
L 107.586388 61.170431 
L 107.554254 58.646791 
L 107.521945 56.123152 
L 107.494939 53.599513 
L 107.477569 51.075874 
L 107.472762 48.552235 
L 108.527238 48.552235 
L 108.527238 48.552235 
L 108.522431 51.075874 
L 108.505061 53.599513 
L 108.478055 56.123152 
L 108.445746 58.646791 
L 108.413612 61.170431 
L 108.387943 63.69407 
L 108.375511 66.217709 
L 108.383242 68.741348 
L 108.417945 71.264987 
L 108.486076 73.788626 
L 108.593543 76.312266 
L 108.745554 78.835905 
L 108.946522 81.359544 
L 109.200041 83.883183 
L 109.508963 86.406822 
L 109.87558 88.930462 
L 110.301862 91.454101 
L 110.789711 93.97774 
L 111.341116 96.501379 
L 111.958106 99.025018 
L 112.642446 101.548657 
L 113.395046 104.072297 
L 114.21515 106.595936 
L 115.099443 109.119575 
L 116.041247 111.643214 
L 117.029988 114.166853 
L 118.051052 116.690492 
L 119.086089 119.214132 
L 120.113711 121.737771 
L 121.110466 124.26141 
L 122.051932 126.785049 
L 122.913758 129.308688 
L 123.672571 131.832327 
L 124.306678 134.355967 
L 124.796609 136.879606 
L 125.125585 139.403245 
L 125.28 141.926884 
L 125.250012 144.450523 
L 125.030274 146.974163 
L 124.620773 149.497802 
L 124.027661 152.021441 
L 123.263918 154.54508 
L 122.349634 157.068719 
L 121.31174 159.592358 
L 120.183032 162.115998 
L 119.000488 164.639637 
L 117.802958 167.163276 
L 116.628461 169.686915 
L 115.51142 172.210554 
L 114.48021 174.734193 
L 113.555344 177.257833 
L 112.748573 179.781472 
L 112.062967 182.305111 
L 111.493927 184.82875 
L 111.030898 187.352389 
L 110.659462 189.876028 
L 110.363478 192.399668 
L 110.126942 194.923307 
L 109.935371 197.446946 
L 109.776613 199.970585 
L 109.641107 202.494224 
L 109.521716 205.017864 
L 109.4133 207.541503 
L 109.312187 210.065142 
L 109.215714 212.588781 
L 109.121887 215.11242 
L 109.029222 217.636059 
L 108.936719 220.159699 
L 108.843908 222.683338 
L 108.750917 225.206977 
L 108.658482 227.730616 
L 108.567865 230.254255 
L 108.480695 232.777894 
L 108.398742 235.301534 
L 108.323669 237.825173 
L 108.256824 240.348812 
L 108.199087 242.872451 
L 108.15082 245.39609 
L 108.111901 247.919729 
L 108.08183 250.443369 
L 108.059891 252.967008 
L 108.045314 255.490647 
L 108.037439 258.014286 
L 108.035825 260.537925 
L 108.04031 263.061565 
L 108.051009 265.585204 
L 108.068239 268.108843 
L 108.092382 270.632482 
L 108.123703 273.156121 
L 108.162136 275.67976 
L 108.207083 278.2034 
L 108.257256 280.727039 
L 108.310603 283.250678 
L 108.364355 285.774317 
L 108.415211 288.297956 
L 108.459636 290.821595 
L 108.494253 293.345235 
L 108.516263 295.868874 
L 108.523815 298.392513 
L 108.523815 298.392513 
z
" clip-path="url(#p532682171b)" style="fill: none; stroke: #000000; stroke-opacity: 0.3"/>
   </g>
   <g id="FillBetweenPolyCollection_11">
    <path d="M 108.712827 258.025137 
L 107.287173 258.025137 
L 107.294819 256.076757 
L 107.317279 254.128376 
L 107.353127 252.179995 
L 107.400145 250.231614 
L 107.45555 248.283233 
L 107.516248 246.334852 
L 107.579098 244.386471 
L 107.641152 242.43809 
L 107.699823 240.48971 
L 107.752995 238.541329 
L 107.799034 236.592948 
L 107.836742 234.644567 
L 107.865238 232.696186 
L 107.883803 230.747805 
L 107.891707 228.799424 
L 107.888035 226.851043 
L 107.87154 224.902663 
L 107.840516 222.954282 
L 107.792729 221.005901 
L 107.725389 219.05752 
L 107.635174 217.109139 
L 107.518303 215.160758 
L 107.370659 213.212377 
L 107.187951 211.263996 
L 106.965896 209.315616 
L 106.700435 207.367235 
L 106.387938 205.418854 
L 106.025401 203.470473 
L 105.61061 201.522092 
L 105.142264 199.573711 
L 104.620034 197.62533 
L 104.044572 195.676949 
L 103.417457 193.728569 
L 102.741118 191.780188 
L 102.018737 189.831807 
L 101.25419 187.883426 
L 100.452042 185.935045 
L 99.617633 183.986664 
L 98.75726 182.038283 
L 97.878449 180.089902 
L 96.990266 178.141522 
L 96.103608 176.193141 
L 95.231395 174.24476 
L 94.388574 172.296379 
L 93.591859 170.347998 
L 92.859189 168.399617 
L 92.20888 166.451236 
L 91.65856 164.502855 
L 91.22397 162.554475 
L 90.917773 160.606094 
L 90.748536 158.657713 
L 90.72 156.709332 
L 90.830759 154.760951 
L 91.074389 152.81257 
L 91.440003 150.864189 
L 91.913164 148.915808 
L 92.477032 146.967428 
L 93.113589 145.019047 
L 93.804815 143.070666 
L 94.53367 141.122285 
L 95.284825 139.173904 
L 96.045101 137.225523 
L 96.803633 135.277142 
L 97.551812 133.328762 
L 98.283091 131.380381 
L 98.9927 129.432 
L 99.677361 127.483619 
L 100.335016 125.535238 
L 100.964596 123.586857 
L 101.565811 121.638476 
L 102.138954 119.690095 
L 102.684693 117.741715 
L 103.20385 115.793334 
L 103.697173 113.844953 
L 104.165124 111.896572 
L 104.607706 109.948191 
L 105.024368 107.99981 
L 105.414002 106.051429 
L 105.775033 104.103048 
L 106.105595 102.154668 
L 106.403765 100.206287 
L 106.667813 98.257906 
L 106.896442 96.309525 
L 107.088974 94.361144 
L 107.245484 92.412763 
L 107.366862 90.464382 
L 107.454822 88.516001 
L 107.511855 86.567621 
L 107.54117 84.61924 
L 107.546592 82.670859 
L 107.532464 80.722478 
L 107.50352 78.774097 
L 107.464733 76.825716 
L 107.421136 74.877335 
L 107.377616 72.928954 
L 107.338674 70.980574 
L 107.308195 69.032193 
L 107.289225 67.083812 
L 107.283799 65.135431 
L 108.716201 65.135431 
L 108.716201 65.135431 
L 108.710775 67.083812 
L 108.691805 69.032193 
L 108.661326 70.980574 
L 108.622384 72.928954 
L 108.578864 74.877335 
L 108.535267 76.825716 
L 108.49648 78.774097 
L 108.467536 80.722478 
L 108.453408 82.670859 
L 108.45883 84.61924 
L 108.488145 86.567621 
L 108.545178 88.516001 
L 108.633138 90.464382 
L 108.754516 92.412763 
L 108.911026 94.361144 
L 109.103558 96.309525 
L 109.332187 98.257906 
L 109.596235 100.206287 
L 109.894405 102.154668 
L 110.224967 104.103048 
L 110.585998 106.051429 
L 110.975632 107.99981 
L 111.392294 109.948191 
L 111.834876 111.896572 
L 112.302827 113.844953 
L 112.79615 115.793334 
L 113.315307 117.741715 
L 113.861046 119.690095 
L 114.434189 121.638476 
L 115.035404 123.586857 
L 115.664984 125.535238 
L 116.322639 127.483619 
L 117.0073 129.432 
L 117.716909 131.380381 
L 118.448188 133.328762 
L 119.196367 135.277142 
L 119.954899 137.225523 
L 120.715175 139.173904 
L 121.46633 141.122285 
L 122.195185 143.070666 
L 122.886411 145.019047 
L 123.522968 146.967428 
L 124.086836 148.915808 
L 124.559997 150.864189 
L 124.925611 152.81257 
L 125.169241 154.760951 
L 125.28 156.709332 
L 125.251464 158.657713 
L 125.082227 160.606094 
L 124.77603 162.554475 
L 124.34144 164.502855 
L 123.79112 166.451236 
L 123.140811 168.399617 
L 122.408141 170.347998 
L 121.611426 172.296379 
L 120.768605 174.24476 
L 119.896392 176.193141 
L 119.009734 178.141522 
L 118.121551 180.089902 
L 117.24274 182.038283 
L 116.382367 183.986664 
L 115.547958 185.935045 
L 114.74581 187.883426 
L 113.981263 189.831807 
L 113.258882 191.780188 
L 112.582543 193.728569 
L 111.955428 195.676949 
L 111.379966 197.62533 
L 110.857736 199.573711 
L 110.38939 201.522092 
L 109.974599 203.470473 
L 109.612062 205.418854 
L 109.299565 207.367235 
L 109.034104 209.315616 
L 108.812049 211.263996 
L 108.629341 213.212377 
L 108.481697 215.160758 
L 108.364826 217.109139 
L 108.274611 219.05752 
L 108.207271 221.005901 
L 108.159484 222.954282 
L 108.12846 224.902663 
L 108.111965 226.851043 
L 108.108293 228.799424 
L 108.116197 230.747805 
L 108.134762 232.696186 
L 108.163258 234.644567 
L 108.200966 236.592948 
L 108.247005 238.541329 
L 108.300177 240.48971 
L 108.358848 242.43809 
L 108.420902 244.386471 
L 108.483752 246.334852 
L 108.54445 248.283233 
L 108.599855 250.231614 
L 108.646873 252.179995 
L 108.682721 254.128376 
L 108.705181 256.076757 
L 108.712827 258.025137 
L 108.712827 258.025137 
z
" clip-path="url(#p532682171b)" style="fill: none; stroke: #000000; stroke-opacity: 0.3"/>
   </g>
   <g id="FillBetweenPolyCollection_12">
    <path d="M 109.291235 207.600682 
L 106.708765 207.600682 
L 106.592242 206.611542 
L 106.467243 205.622402 
L 106.332766 204.633262 
L 106.18776 203.644122 
L 106.031155 202.654982 
L 105.861913 201.665842 
L 105.679064 200.676702 
L 105.481751 199.687562 
L 105.269274 198.698422 
L 105.041125 197.709282 
L 104.797023 196.720142 
L 104.536948 195.731002 
L 104.261159 194.741862 
L 103.970217 193.752722 
L 103.664992 192.763583 
L 103.346674 191.774443 
L 103.016757 190.785303 
L 102.677035 189.796163 
L 102.329568 188.807023 
L 101.976651 187.817883 
L 101.620758 186.828743 
L 101.264488 185.839603 
L 100.910492 184.850463 
L 100.561393 183.861323 
L 100.219704 182.872183 
L 99.887739 181.883043 
L 99.567535 180.893903 
L 99.260768 179.904763 
L 98.968693 178.915623 
L 98.692085 177.926483 
L 98.431211 176.937343 
L 98.185807 175.948203 
L 97.955089 174.959063 
L 97.73777 173.969924 
L 97.532112 172.980784 
L 97.33598 171.991644 
L 97.146921 171.002504 
L 96.962247 170.013364 
L 96.779132 169.024224 
L 96.594709 168.035084 
L 96.406168 167.045944 
L 96.210855 166.056804 
L 96.006364 165.067664 
L 95.790625 164.078524 
L 95.56198 163.089384 
L 95.31926 162.100244 
L 95.06184 161.111104 
L 94.78969 160.121964 
L 94.503421 159.132824 
L 94.204304 158.143684 
L 93.894291 157.154544 
L 93.576011 156.165404 
L 93.252748 155.176264 
L 92.928408 154.187125 
L 92.607449 153.197985 
L 92.294798 152.208845 
L 91.995742 151.219705 
L 91.715783 150.230565 
L 91.460487 149.241425 
L 91.235301 148.252285 
L 91.045368 147.263145 
L 90.895337 146.274005 
L 90.789176 145.284865 
L 90.730013 144.295725 
L 90.72 143.306585 
L 90.760217 142.317445 
L 90.85063 141.328305 
L 90.990092 140.339165 
L 91.176407 139.350025 
L 91.406437 138.360885 
L 91.676262 137.371745 
L 91.981368 136.382605 
L 92.316863 135.393466 
L 92.677699 134.404326 
L 93.058894 133.415186 
L 93.455732 132.426046 
L 93.863936 131.436906 
L 94.279802 130.447766 
L 94.700296 129.458626 
L 95.123093 128.469486 
L 95.546588 127.480346 
L 95.969854 126.491206 
L 96.392568 125.502066 
L 96.814914 124.512926 
L 97.237456 123.523786 
L 97.661012 122.534646 
L 98.086513 121.545506 
L 98.514871 120.556366 
L 98.946857 119.567226 
L 99.382991 118.578086 
L 99.823456 117.588946 
L 100.268031 116.599807 
L 100.716055 115.610667 
L 101.16641 114.621527 
L 101.617539 113.632387 
L 102.067479 112.643247 
L 102.51393 111.654107 
L 102.954328 110.664967 
L 103.385942 109.675827 
L 112.614058 109.675827 
L 112.614058 109.675827 
L 113.045672 110.664967 
L 113.48607 111.654107 
L 113.932521 112.643247 
L 114.382461 113.632387 
L 114.83359 114.621527 
L 115.283945 115.610667 
L 115.731969 116.599807 
L 116.176544 117.588946 
L 116.617009 118.578086 
L 117.053143 119.567226 
L 117.485129 120.556366 
L 117.913487 121.545506 
L 118.338988 122.534646 
L 118.762544 123.523786 
L 119.185086 124.512926 
L 119.607432 125.502066 
L 120.030146 126.491206 
L 120.453412 127.480346 
L 120.876907 128.469486 
L 121.299704 129.458626 
L 121.720198 130.447766 
L 122.136064 131.436906 
L 122.544268 132.426046 
L 122.941106 133.415186 
L 123.322301 134.404326 
L 123.683137 135.393466 
L 124.018632 136.382605 
L 124.323738 137.371745 
L 124.593563 138.360885 
L 124.823593 139.350025 
L 125.009908 140.339165 
L 125.14937 141.328305 
L 125.239783 142.317445 
L 125.28 143.306585 
L 125.269987 144.295725 
L 125.210824 145.284865 
L 125.104663 146.274005 
L 124.954632 147.263145 
L 124.764699 148.252285 
L 124.539513 149.241425 
L 124.284217 150.230565 
L 124.004258 151.219705 
L 123.705202 152.208845 
L 123.392551 153.197985 
L 123.071592 154.187125 
L 122.747252 155.176264 
L 122.423989 156.165404 
L 122.105709 157.154544 
L 121.795696 158.143684 
L 121.496579 159.132824 
L 121.21031 160.121964 
L 120.93816 161.111104 
L 120.68074 162.100244 
L 120.43802 163.089384 
L 120.209375 164.078524 
L 119.993636 165.067664 
L 119.789145 166.056804 
L 119.593832 167.045944 
L 119.405291 168.035084 
L 119.220868 169.024224 
L 119.037753 170.013364 
L 118.853079 171.002504 
L 118.66402 171.991644 
L 118.467888 172.980784 
L 118.26223 173.969924 
L 118.044911 174.959063 
L 117.814193 175.948203 
L 117.568789 176.937343 
L 117.307915 177.926483 
L 117.031307 178.915623 
L 116.739232 179.904763 
L 116.432465 180.893903 
L 116.112261 181.883043 
L 115.780296 182.872183 
L 115.438607 183.861323 
L 115.089508 184.850463 
L 114.735512 185.839603 
L 114.379242 186.828743 
L 114.023349 187.817883 
L 113.670432 188.807023 
L 113.322965 189.796163 
L 112.983243 190.785303 
L 112.653326 191.774443 
L 112.335008 192.763583 
L 112.029783 193.752722 
L 111.738841 194.741862 
L 111.463052 195.731002 
L 111.202977 196.720142 
L 110.958875 197.709282 
L 110.730726 198.698422 
L 110.518249 199.687562 
L 110.320936 200.676702 
L 110.138087 201.665842 
L 109.968845 202.654982 
L 109.81224 203.644122 
L 109.667234 204.633262 
L 109.532757 205.622402 
L 109.407758 206.611542 
L 109.291235 207.600682 
L 109.291235 207.600682 
z
" clip-path="url(#p532682171b)" style="fill: none; stroke: #000000; stroke-opacity: 0.3"/>
   </g>
   <g id="FillBetweenPolyCollection_13">
    <path d="M 110.371899 203.154792 
L 105.628101 203.154792 
L 105.394741 201.821406 
L 105.150008 200.48802 
L 104.89326 199.154634 
L 104.623657 197.821248 
L 104.340217 196.487861 
L 104.0419 195.154475 
L 103.727702 193.821089 
L 103.396773 192.487703 
L 103.048522 191.154317 
L 102.682731 189.820931 
L 102.29964 188.487544 
L 101.900022 187.154158 
L 101.485217 185.820772 
L 101.057136 184.487386 
L 100.618229 183.154 
L 100.171412 181.820613 
L 99.719966 180.487227 
L 99.267395 179.153841 
L 98.817277 177.820455 
L 98.373078 176.487069 
L 97.937977 175.153683 
L 97.514685 173.820296 
L 97.10528 172.48691 
L 96.711074 171.153524 
L 96.332516 169.820138 
L 95.969153 168.486752 
L 95.61965 167.153365 
L 95.281888 165.819979 
L 94.953131 164.486593 
L 94.630273 163.153207 
L 94.310144 161.819821 
L 93.989866 160.486435 
L 93.66723 159.153048 
L 93.341065 157.819662 
L 93.011574 156.486276 
L 92.680591 155.15289 
L 92.351735 153.819504 
L 92.030444 152.486117 
L 91.723858 151.152731 
L 91.44057 149.819345 
L 91.190242 148.485959 
L 90.983115 147.152573 
L 90.829443 145.819187 
L 90.7389 144.4858 
L 90.72 143.152414 
L 90.779574 141.819028 
L 90.922345 140.485642 
L 91.150632 139.152256 
L 91.464199 137.81887 
L 91.860259 136.485483 
L 92.333619 135.152097 
L 92.876964 133.818711 
L 93.481231 132.485325 
L 94.13606 131.151939 
L 94.830273 129.818552 
L 95.552357 128.485166 
L 96.290911 127.15178 
L 97.035034 125.818394 
L 97.774645 124.485008 
L 98.500717 123.151622 
L 99.20542 121.818235 
L 99.882196 120.484849 
L 100.525763 119.151463 
L 101.132061 117.818077 
L 101.698171 116.484691 
L 102.222204 115.151304 
L 102.703196 113.817918 
L 103.140992 112.484532 
L 103.536154 111.151146 
L 103.889876 109.81776 
L 104.203911 108.484374 
L 104.480507 107.150987 
L 104.72235 105.817601 
L 104.932491 104.484215 
L 105.114281 103.150829 
L 105.271274 101.817443 
L 105.407134 100.484056 
L 105.525512 99.15067 
L 105.629935 97.817284 
L 105.723682 96.483898 
L 105.809676 95.150512 
L 105.890395 93.817126 
L 105.967812 92.483739 
L 106.043365 91.150353 
L 106.117969 89.816967 
L 106.192063 88.483581 
L 106.265686 87.150195 
L 106.33858 85.816808 
L 106.410309 84.483422 
L 106.480372 83.150036 
L 106.548314 81.81665 
L 106.61381 80.483264 
L 106.676729 79.149878 
L 106.737159 77.816491 
L 106.795402 76.483105 
L 106.851938 75.149719 
L 106.907373 73.816333 
L 106.962359 72.482947 
L 107.017524 71.14956 
L 108.982476 71.14956 
L 108.982476 71.14956 
L 109.037641 72.482947 
L 109.092627 73.816333 
L 109.148062 75.149719 
L 109.204598 76.483105 
L 109.262841 77.816491 
L 109.323271 79.149878 
L 109.38619 80.483264 
L 109.451686 81.81665 
L 109.519628 83.150036 
L 109.589691 84.483422 
L 109.66142 85.816808 
L 109.734314 87.150195 
L 109.807937 88.483581 
L 109.882031 89.816967 
L 109.956635 91.150353 
L 110.032188 92.483739 
L 110.109605 93.817126 
L 110.190324 95.150512 
L 110.276318 96.483898 
L 110.370065 97.817284 
L 110.474488 99.15067 
L 110.592866 100.484056 
L 110.728726 101.817443 
L 110.885719 103.150829 
L 111.067509 104.484215 
L 111.27765 105.817601 
L 111.519493 107.150987 
L 111.796089 108.484374 
L 112.110124 109.81776 
L 112.463846 111.151146 
L 112.859008 112.484532 
L 113.296804 113.817918 
L 113.777796 115.151304 
L 114.301829 116.484691 
L 114.867939 117.818077 
L 115.474237 119.151463 
L 116.117804 120.484849 
L 116.79458 121.818235 
L 117.499283 123.151622 
L 118.225355 124.485008 
L 118.964966 125.818394 
L 119.709089 127.15178 
L 120.447643 128.485166 
L 121.169727 129.818552 
L 121.86394 131.151939 
L 122.518769 132.485325 
L 123.123036 133.818711 
L 123.666381 135.152097 
L 124.139741 136.485483 
L 124.535801 137.81887 
L 124.849368 139.152256 
L 125.077655 140.485642 
L 125.220426 141.819028 
L 125.28 143.152414 
L 125.2611 144.4858 
L 125.170557 145.819187 
L 125.016885 147.152573 
L 124.809758 148.485959 
L 124.55943 149.819345 
L 124.276142 151.152731 
L 123.969556 152.486117 
L 123.648265 153.819504 
L 123.319409 155.15289 
L 122.988426 156.486276 
L 122.658935 157.819662 
L 122.33277 159.153048 
L 122.010134 160.486435 
L 121.689856 161.819821 
L 121.369727 163.153207 
L 121.046869 164.486593 
L 120.718112 165.819979 
L 120.38035 167.153365 
L 120.030847 168.486752 
L 119.667484 169.820138 
L 119.288926 171.153524 
L 118.89472 172.48691 
L 118.485315 173.820296 
L 118.062023 175.153683 
L 117.626922 176.487069 
L 117.182723 177.820455 
L 116.732605 179.153841 
L 116.280034 180.487227 
L 115.828588 181.820613 
L 115.381771 183.154 
L 114.942864 184.487386 
L 114.514783 185.820772 
L 114.099978 187.154158 
L 113.70036 188.487544 
L 113.317269 189.820931 
L 112.951478 191.154317 
L 112.603227 192.487703 
L 112.272298 193.821089 
L 111.9581 195.154475 
L 111.659783 196.487861 
L 111.376343 197.821248 
L 111.10674 199.154634 
L 110.849992 200.48802 
L 110.605259 201.821406 
L 110.371899 203.154792 
L 110.371899 203.154792 
z
" clip-path="url(#p532682171b)" style="fill: none; stroke: #000000; stroke-opacity: 0.3"/>
   </g>
   <g id="matplotlib.axis_1"/>
   <g id="matplotlib.axis_2">
    <g id="ytick_1">
     <g id="line2d_1">
      <defs>
       <path id="m6703929963" d="M 0 0 
L -3.5 0 
" style="stroke: #000000; stroke-width: 0.8"/>
      </defs>
      <g>
       <use xlink:href="#m6703929963" x="21.6" y="291.6" style="stroke: #000000; stroke-width: 0.8"/>
      </g>
     </g>
    </g>
    <g id="ytick_2">
     <g id="line2d_2">
      <g>
       <use xlink:href="#m6703929963" x="21.6" y="199.8" style="stroke: #000000; stroke-width: 0.8"/>
      </g>
     </g>
    </g>
    <g id="ytick_3">
     <g id="line2d_3">
      <g>
       <use xlink:href="#m6703929963" x="21.6" y="108" style="stroke: #000000; stroke-width: 0.8"/>
      </g>
     </g>
    </g>
    <g id="ytick_4">
     <g id="line2d_4">
      <g>
       <use xlink:href="#m6703929963" x="21.6" y="16.2" style="stroke: #000000; stroke-width: 0.8"/>
      </g>
     </g>
    </g>
   </g>
   <g id="line2d_5">
    <path d="M 50.4 269.568 
L 50.4 264.06 
" clip-path="url(#p532682171b)" style="fill: none; stroke: #000000; stroke-linecap: square"/>
   </g>
   <g id="line2d_6">
    <path d="M 50.4 269.568 
L 108 269.568 
" clip-path="url(#p532682171b)" style="fill: none; stroke: #000000; stroke-linecap: square"/>
   </g>
   <g id="line2d_7">
    <path d="M 108 269.568 
L 108 264.06 
" clip-path="url(#p532682171b)" style="fill: none; stroke: #000000; stroke-linecap: square"/>
   </g>
   <g id="patch_3">
    <path d="M 21.6 291.6 
L 21.6 16.2 
" style="fill: none; stroke: #000000; stroke-width: 0.8; stroke-linejoin: miter; stroke-linecap: square"/>
   </g>
   <g id="patch_4">
    <path d="M 136.8 291.6 
L 136.8 16.2 
" style="fill: none; stroke: #000000; stroke-width: 0.8; stroke-linejoin: miter; stroke-linecap: square"/>
   </g>
   <g id="patch_5">
    <path d="M 21.6 291.6 
L 136.8 291.6 
" style="fill: none; stroke: #000000; stroke-width: 0.8; stroke-linejoin: miter; stroke-linecap: square"/>
   </g>
   <g id="patch_6">
    <path d="M 21.6 16.2 
L 136.8 16.2 
" style="fill: none; stroke: #000000; stroke-width: 0.8; stroke-linejoin: miter; stroke-linecap: square"/>
   </g>
   <g id="text_1">
    <text style="font-weight: 700; font-size: 12px; font-family: 'DejaVu Sans', 'Bitstream Vera Sans', 'Computer Modern Sans Serif', 'Lucida Grande', 'Verdana', 'Geneva', 'Lucid', 'Arial', 'Helvetica', 'Avant Garde', sans-serif; text-anchor: middle" x="50.4" y="289.104375" transform="rotate(-0 50.4 289.104375)">#24</text>
   </g>
   <g id="text_2">
    <text style="font-weight: 700; font-size: 12px; font-family: 'DejaVu Sans', 'Bitstream Vera Sans', 'Computer Modern Sans Serif', 'Lucida Grande', 'Verdana', 'Geneva', 'Lucid', 'Arial', 'Helvetica', 'Avant Garde', sans-serif; text-anchor: middle" x="108" y="289.104375" transform="rotate(-0 108 289.104375)">#32</text>
   </g>
   <g id="text_3">
    <text style="font-size: 12px; font-family: 'DejaVu Sans', 'Bitstream Vera Sans', 'Computer Modern Sans Serif', 'Lucida Grande', 'Verdana', 'Geneva', 'Lucid', 'Arial', 'Helvetica', 'Avant Garde', sans-serif; text-anchor: middle" x="79.2" y="268.449375" transform="rotate(-0 79.2 268.449375)">ns</text>
   </g>
   <g id="line2d_8">
    <path d="M 21.6 145.516875 
L 136.8 145.516875 
" clip-path="url(#p532682171b)" style="fill: none; stroke-dasharray: 3.7,1.6; stroke-dashoffset: 0; stroke: #808080; stroke-opacity: 0.7"/>
   </g>
   <g id="line2d_9">
    <path d="M 21.6 145.56737 
L 136.8 145.56737 
" clip-path="url(#p532682171b)" style="fill: none; stroke-dasharray: 3.7,1.6; stroke-dashoffset: 0; stroke: #808080; stroke-opacity: 0.7"/>
   </g>
   <g id="LineCollection_1">
    <path d="M 50.4 151.985913 
L 50.4 139.047838 
" clip-path="url(#p532682171b)" style="fill: none; stroke: #000000; stroke-width: 2"/>
   </g>
   <g id="line2d_10">
    <defs>
     <path id="m276c2ca007" d="M 5 0 
L -5 -0 
" style="stroke: #000000; stroke-width: 2"/>
    </defs>
    <g clip-path="url(#p532682171b)">
     <use xlink:href="#m276c2ca007" x="50.4" y="151.985913" style="stroke: #000000; stroke-width: 2"/>
    </g>
   </g>
   <g id="line2d_11">
    <g clip-path="url(#p532682171b)">
     <use xlink:href="#m276c2ca007" x="50.4" y="139.047838" style="stroke: #000000; stroke-width: 2"/>
    </g>
   </g>
   <g id="LineCollection_2">
    <path d="M 108 151.768923 
L 108 139.365817 
" clip-path="url(#p532682171b)" style="fill: none; stroke: #000000; stroke-width: 2"/>
   </g>
   <g id="line2d_12">
    <g clip-path="url(#p532682171b)">
     <use xlink:href="#m276c2ca007" x="108" y="151.768923" style="stroke: #000000; stroke-width: 2"/>
    </g>
   </g>
   <g id="line2d_13">
    <g clip-path="url(#p532682171b)">
     <use xlink:href="#m276c2ca007" x="108" y="139.365817" style="stroke: #000000; stroke-width: 2"/>
    </g>
   </g>
   <g id="line2d_14">
    <defs>
     <path id="m7556d16a43" d="M 0 4 
C 1.060812 4 2.078319 3.578535 2.828427 2.828427 
C 3.578535 2.078319 4 1.060812 4 0 
C 4 -1.060812 3.578535 -2.078319 2.828427 -2.828427 
C 2.078319 -3.578535 1.060812 -4 0 -4 
C -1.060812 -4 -2.078319 -3.578535 -2.828427 -2.828427 
C -3.578535 -2.078319 -4 -1.060812 -4 0 
C -4 1.060812 -3.578535 2.078319 -2.828427 2.828427 
C -2.078319 3.578535 -1.060812 4 0 4 
z
" style="stroke: #000000"/>
    </defs>
    <g clip-path="url(#p532682171b)">
     <use xlink:href="#m7556d16a43" x="50.4" y="145.516875" style="stroke: #000000"/>
    </g>
   </g>
   <g id="line2d_15">
    <g clip-path="url(#p532682171b)">
     <use xlink:href="#m7556d16a43" x="108" y="145.56737" style="stroke: #000000"/>
    </g>
   </g>
  </g>
 </g>
 <defs>
  <clipPath id="p532682171b">
   <rect x="21.6" y="16.2" width="115.2" height="275.4"/>
  </clipPath>
 </defs>
</svg>
