<?xml version="1.0" encoding="utf-8" standalone="no"?>
<!DOCTYPE svg PUBLIC "-//W3C//DTD SVG 1.1//EN"
  "http://www.w3.org/Graphics/SVG/1.1/DTD/svg11.dtd">
<svg xmlns:xlink="http://www.w3.org/1999/xlink" width="144pt" height="324pt" viewBox="0 0 144 324" xmlns="http://www.w3.org/2000/svg" version="1.1">
 <metadata>
  <rdf:RDF xmlns:dc="http://purl.org/dc/elements/1.1/" xmlns:cc="http://creativecommons.org/ns#" xmlns:rdf="http://www.w3.org/1999/02/22-rdf-syntax-ns#">
   <cc:Work>
    <dc:type rdf:resource="http://purl.org/dc/dcmitype/StillImage"/>
    <dc:date>2025-12-11T11:15:01.270978</dc:date>
    <dc:format>image/svg+xml</dc:format>
    <dc:creator>
     <cc:Agent>
      <dc:title>Matplotlib v3.10.3, https://matplotlib.org/</dc:title>
     </cc:Agent>
    </dc:creator>
   </cc:Work>
  </rdf:RDF>
 </metadata>
 <defs>
  <style type="text/css">*{stroke-linejoin: round; stroke-linecap: butt}</style>
 </defs>
 <g id="figure_1">
  <g id="patch_1">
   <path d="M 0 324 
L 144 324 
L 144 0 
L 0 0 
z
" style="fill: #ffffff"/>
  </g>
  <g id="axes_1">
   <g id="patch_2">
    <path d="M 21.6 291.6 
L 136.8 291.6 
L 136.8 16.2 
L 21.6 16.2 
z
" style="fill: #ffffff"/>
   </g>
   <g id="FillBetweenPolyCollection_1">
    <path d="M 51.543804 170.13173 
L 49.256196 170.13173 
L 49.100995 168.819921 
L 48.921745 167.508112 
L 48.715069 166.196303 
L 48.477985 164.884494 
L 48.208196 163.572685 
L 47.904362 162.260876 
L 47.566333 160.949067 
L 47.195296 159.637258 
L 46.793824 158.325449 
L 46.365804 157.01364 
L 45.916241 155.701831 
L 45.450958 154.390022 
L 44.976202 153.078213 
L 44.498209 151.766404 
L 44.022756 150.454595 
L 43.554767 149.142786 
L 43.098003 147.830977 
L 42.65487 146.519168 
L 42.22638 145.207359 
L 41.812242 143.89555 
L 41.411086 142.583741 
L 41.020784 141.271932 
L 40.638808 139.960123 
L 40.262596 138.648314 
L 39.889861 137.336505 
L 39.51882 136.024696 
L 39.148305 134.712887 
L 38.777765 133.401078 
L 38.407168 132.089269 
L 38.036837 130.77746 
L 37.66726 129.465651 
L 37.298921 128.153842 
L 36.932205 126.842033 
L 36.567389 125.530224 
L 36.204747 124.218415 
L 35.844763 122.906606 
L 35.488413 121.594797 
L 35.137487 120.282988 
L 34.794897 118.971179 
L 34.464897 117.65937 
L 34.153196 116.347561 
L 33.866894 115.035752 
L 33.614257 113.723943 
L 33.404305 112.412134 
L 33.246268 111.100325 
L 33.148939 109.788516 
L 33.12 108.476707 
L 33.165374 107.164898 
L 33.288685 105.853089 
L 33.490867 104.54128 
L 33.769981 103.229471 
L 34.121242 101.917662 
L 34.537267 100.605853 
L 35.008513 99.294044 
L 35.523869 97.982235 
L 36.071336 96.670426 
L 36.638747 95.358617 
L 37.214451 94.046808 
L 37.78791 92.734999 
L 38.350177 91.42319 
L 38.894198 90.111381 
L 39.414961 88.799572 
L 39.909472 87.487763 
L 40.376591 86.175954 
L 40.816759 84.864145 
L 41.231649 83.552336 
L 41.623786 82.240527 
L 41.996177 80.928718 
L 42.351969 79.616909 
L 42.69418 78.3051 
L 43.02549 76.993291 
L 43.348118 75.681482 
L 43.663775 74.369673 
L 43.973666 73.057864 
L 44.27855 71.746055 
L 44.578816 70.434246 
L 44.874579 69.122437 
L 45.165757 67.810628 
L 45.452147 66.498819 
L 45.733462 65.18701 
L 46.009358 63.875201 
L 46.279429 62.563392 
L 46.543194 61.251583 
L 46.800083 59.939774 
L 47.049417 58.627965 
L 47.290418 57.316156 
L 47.522221 56.004347 
L 47.74392 54.692538 
L 47.954628 53.380729 
L 48.153549 52.06892 
L 48.340054 50.757111 
L 48.513749 49.445302 
L 48.67453 48.133493 
L 48.822607 46.821684 
L 48.958504 45.509875 
L 49.083022 44.198065 
L 49.197182 42.886256 
L 49.302144 41.574447 
L 49.399111 40.262638 
L 51.400889 40.262638 
L 51.400889 40.262638 
L 51.497856 41.574447 
L 51.602818 42.886256 
L 51.716978 44.198065 
L 51.841496 45.509875 
L 51.977393 46.821684 
L 52.12547 48.133493 
L 52.286251 49.445302 
L 52.459946 50.757111 
L 52.646451 52.06892 
L 52.845372 53.380729 
L 53.05608 54.692538 
L 53.277779 56.004347 
L 53.509582 57.316156 
L 53.750583 58.627965 
L 53.999917 59.939774 
L 54.256806 61.251583 
L 54.520571 62.563392 
L 54.790642 63.875201 
L 55.066538 65.18701 
L 55.347853 66.498819 
L 55.634243 67.810628 
L 55.925421 69.122437 
L 56.221184 70.434246 
L 56.52145 71.746055 
L 56.826334 73.057864 
L 57.136225 74.369673 
L 57.451882 75.681482 
L 57.77451 76.993291 
L 58.10582 78.3051 
L 58.448031 79.616909 
L 58.803823 80.928718 
L 59.176214 82.240527 
L 59.568351 83.552336 
L 59.983241 84.864145 
L 60.423409 86.175954 
L 60.890528 87.487763 
L 61.385039 88.799572 
L 61.905802 90.111381 
L 62.449823 91.42319 
L 63.01209 92.734999 
L 63.585549 94.046808 
L 64.161253 95.358617 
L 64.728664 96.670426 
L 65.276131 97.982235 
L 65.791487 99.294044 
L 66.262733 100.605853 
L 66.678758 101.917662 
L 67.030019 103.229471 
L 67.309133 104.54128 
L 67.511315 105.853089 
L 67.634626 107.164898 
L 67.68 108.476707 
L 67.651061 109.788516 
L 67.553732 111.100325 
L 67.395695 112.412134 
L 67.185743 113.723943 
L 66.933106 115.035752 
L 66.646804 116.347561 
L 66.335103 117.65937 
L 66.005103 118.971179 
L 65.662513 120.282988 
L 65.311587 121.594797 
L 64.955237 122.906606 
L 64.595253 124.218415 
L 64.232611 125.530224 
L 63.867795 126.842033 
L 63.501079 128.153842 
L 63.13274 129.465651 
L 62.763163 130.77746 
L 62.392832 132.089269 
L 62.022235 133.401078 
L 61.651695 134.712887 
L 61.28118 136.024696 
L 60.910139 137.336505 
L 60.537404 138.648314 
L 60.161192 139.960123 
L 59.779216 141.271932 
L 59.388914 142.583741 
L 58.987758 143.89555 
L 58.57362 145.207359 
L 58.14513 146.519168 
L 57.701997 147.830977 
L 57.245233 149.142786 
L 56.777244 150.454595 
L 56.301791 151.766404 
L 55.823798 153.078213 
L 55.349042 154.390022 
L 54.883759 155.701831 
L 54.434196 157.01364 
L 54.006176 158.325449 
L 53.604704 159.637258 
L 53.233667 160.949067 
L 52.895638 162.260876 
L 52.591804 163.572685 
L 52.322015 164.884494 
L 52.084931 166.196303 
L 51.878255 167.508112 
L 51.699005 168.819921 
L 51.543804 170.13173 
L 51.543804 170.13173 
z
" clip-path="url(#pacb631fe6b)" style="fill: none; stroke: #000000; stroke-opacity: 0.3"/>
   </g>
   <g id="FillBetweenPolyCollection_2">
    <path d="M 52.471548 165.148641 
L 48.328452 165.148641 
L 48.127861 163.920369 
L 47.926827 162.692097 
L 47.727051 161.463826 
L 47.529945 160.235554 
L 47.336578 159.007282 
L 47.147636 157.77901 
L 46.963411 156.550738 
L 46.783808 155.322467 
L 46.608353 154.094195 
L 46.436214 152.865923 
L 46.266199 151.637651 
L 46.096759 150.40938 
L 45.925956 149.181108 
L 45.751427 147.952836 
L 45.570334 146.724564 
L 45.379318 145.496293 
L 45.174475 144.268021 
L 44.951362 143.039749 
L 44.70507 141.811477 
L 44.430357 140.583205 
L 44.121871 139.354934 
L 43.774446 138.126662 
L 43.38347 136.89839 
L 42.945304 135.670118 
L 42.457709 134.441847 
L 41.920262 133.213575 
L 41.334693 131.985303 
L 40.705124 130.757031 
L 40.03816 129.528759 
L 39.342808 128.300488 
L 38.630217 127.072216 
L 37.913249 125.843944 
L 37.205886 124.615672 
L 36.522537 123.387401 
L 35.877266 122.159129 
L 35.283028 120.930857 
L 34.750953 119.702585 
L 34.289735 118.474314 
L 33.905192 117.246042 
L 33.600001 116.01777 
L 33.373663 114.789498 
L 33.222668 113.561226 
L 33.140866 112.332955 
L 33.12 111.104683 
L 33.150367 109.876411 
L 33.221551 108.648139 
L 33.323162 107.419868 
L 33.445543 106.191596 
L 33.580372 104.963324 
L 33.721127 103.735052 
L 33.863381 102.50678 
L 34.004912 101.278509 
L 34.145623 100.050237 
L 34.287297 98.821965 
L 34.433209 97.593693 
L 34.587645 96.365422 
L 34.755363 95.13715 
L 34.941059 93.908878 
L 35.148875 92.680606 
L 35.381994 91.452334 
L 35.642348 90.224063 
L 35.930452 88.995791 
L 36.24538 87.767519 
L 36.584858 86.539247 
L 36.945466 85.310976 
L 37.32292 84.082704 
L 37.712405 82.854432 
L 38.108929 81.62616 
L 38.507664 80.397889 
L 38.904256 79.169617 
L 39.295082 77.941345 
L 39.677441 76.713073 
L 40.049674 75.484801 
L 40.411198 74.25653 
L 40.762478 73.028258 
L 41.104918 71.799986 
L 41.440703 70.571714 
L 41.772579 69.343443 
L 42.103609 68.115171 
L 42.436901 66.886899 
L 42.77534 65.658627 
L 43.121332 64.430355 
L 43.476583 63.202084 
L 43.841929 61.973812 
L 44.217236 60.74554 
L 44.601364 59.517268 
L 44.992215 58.288997 
L 45.386855 57.060725 
L 45.781694 55.832453 
L 46.172715 54.604181 
L 46.555734 53.375909 
L 46.926657 52.147638 
L 47.281721 50.919366 
L 47.617699 49.691094 
L 47.932046 48.462822 
L 48.222985 47.234551 
L 48.489535 46.006279 
L 48.731464 44.778007 
L 48.949214 43.549735 
L 51.850786 43.549735 
L 51.850786 43.549735 
L 52.068536 44.778007 
L 52.310465 46.006279 
L 52.577015 47.234551 
L 52.867954 48.462822 
L 53.182301 49.691094 
L 53.518279 50.919366 
L 53.873343 52.147638 
L 54.244266 53.375909 
L 54.627285 54.604181 
L 55.018306 55.832453 
L 55.413145 57.060725 
L 55.807785 58.288997 
L 56.198636 59.517268 
L 56.582764 60.74554 
L 56.958071 61.973812 
L 57.323417 63.202084 
L 57.678668 64.430355 
L 58.02466 65.658627 
L 58.363099 66.886899 
L 58.696391 68.115171 
L 59.027421 69.343443 
L 59.359297 70.571714 
L 59.695082 71.799986 
L 60.037522 73.028258 
L 60.388802 74.25653 
L 60.750326 75.484801 
L 61.122559 76.713073 
L 61.504918 77.941345 
L 61.895744 79.169617 
L 62.292336 80.397889 
L 62.691071 81.62616 
L 63.087595 82.854432 
L 63.47708 84.082704 
L 63.854534 85.310976 
L 64.215142 86.539247 
L 64.55462 87.767519 
L 64.869548 88.995791 
L 65.157652 90.224063 
L 65.418006 91.452334 
L 65.651125 92.680606 
L 65.858941 93.908878 
L 66.044637 95.13715 
L 66.212355 96.365422 
L 66.366791 97.593693 
L 66.512703 98.821965 
L 66.654377 100.050237 
L 66.795088 101.278509 
L 66.936619 102.50678 
L 67.078873 103.735052 
L 67.219628 104.963324 
L 67.354457 106.191596 
L 67.476838 107.419868 
L 67.578449 108.648139 
L 67.649633 109.876411 
L 67.68 111.104683 
L 67.659134 112.332955 
L 67.577332 113.561226 
L 67.426337 114.789498 
L 67.199999 116.01777 
L 66.894808 117.246042 
L 66.510265 118.474314 
L 66.049047 119.702585 
L 65.516972 120.930857 
L 64.922734 122.159129 
L 64.277463 123.387401 
L 63.594114 124.615672 
L 62.886751 125.843944 
L 62.169783 127.072216 
L 61.457192 128.300488 
L 60.76184 129.528759 
L 60.094876 130.757031 
L 59.465307 131.985303 
L 58.879738 133.213575 
L 58.342291 134.441847 
L 57.854696 135.670118 
L 57.41653 136.89839 
L 57.025554 138.126662 
L 56.678129 139.354934 
L 56.369643 140.583205 
L 56.09493 141.811477 
L 55.848638 143.039749 
L 55.625525 144.268021 
L 55.420682 145.496293 
L 55.229666 146.724564 
L 55.048573 147.952836 
L 54.874044 149.181108 
L 54.703241 150.40938 
L 54.533801 151.637651 
L 54.363786 152.865923 
L 54.191647 154.094195 
L 54.016192 155.322467 
L 53.836589 156.550738 
L 53.652364 157.77901 
L 53.463422 159.007282 
L 53.270055 160.235554 
L 53.072949 161.463826 
L 52.873173 162.692097 
L 52.672139 163.920369 
L 52.471548 165.148641 
L 52.471548 165.148641 
z
" clip-path="url(#pacb631fe6b)" style="fill: none; stroke: #000000; stroke-opacity: 0.3"/>
   </g>
   <g id="FillBetweenPolyCollection_3">
    <path d="M 51.962976 161.247057 
L 48.837024 161.247057 
L 48.61517 160.16689 
L 48.373028 159.086723 
L 48.110739 158.006556 
L 47.828841 156.926389 
L 47.528283 155.846222 
L 47.210404 154.766055 
L 46.876894 153.685888 
L 46.529721 152.605721 
L 46.171053 151.525554 
L 45.803154 150.445387 
L 45.428293 149.36522 
L 45.04865 148.285053 
L 44.666249 147.204887 
L 44.2829 146.12472 
L 43.900181 145.044553 
L 43.519429 143.964386 
L 43.141758 142.884219 
L 42.768089 141.804052 
L 42.399177 140.723885 
L 42.035646 139.643718 
L 41.678014 138.563551 
L 41.326705 137.483384 
L 40.982065 136.403217 
L 40.644364 135.32305 
L 40.313815 134.242883 
L 39.990582 133.162716 
L 39.674818 132.082549 
L 39.366699 131.002383 
L 39.066472 129.922216 
L 38.774491 128.842049 
L 38.491254 127.761882 
L 38.217403 126.681715 
L 37.953696 125.601548 
L 37.700934 124.521381 
L 37.459853 123.441214 
L 37.230975 122.361047 
L 37.014447 121.28088 
L 36.809879 120.200713 
L 36.616207 119.120546 
L 36.431624 118.040379 
L 36.253575 116.960212 
L 36.078859 115.880045 
L 35.903835 114.799879 
L 35.724724 113.719712 
L 35.537992 112.639545 
L 35.340778 111.559378 
L 35.131327 110.479211 
L 34.909378 109.399044 
L 34.676453 108.318877 
L 34.436013 107.23871 
L 34.193433 106.158543 
L 33.955796 105.078376 
L 33.731506 103.998209 
L 33.529735 102.918042 
L 33.359761 101.837875 
L 33.230244 100.757708 
L 33.148526 99.677541 
L 33.12 98.597375 
L 33.147635 97.517208 
L 33.231695 96.437041 
L 33.369693 95.356874 
L 33.556578 94.276707 
L 33.785157 93.19654 
L 34.046698 92.116373 
L 34.331664 91.036206 
L 34.630516 89.956039 
L 34.934488 88.875872 
L 35.236285 87.795705 
L 35.530613 86.715538 
L 35.814512 85.635371 
L 36.087459 84.555204 
L 36.35123 83.475037 
L 36.60955 82.394871 
L 36.867573 81.314704 
L 37.131243 80.234537 
L 37.406615 79.15437 
L 37.6992 78.074203 
L 38.013397 76.994036 
L 38.352077 75.913869 
L 38.716342 74.833702 
L 39.105477 73.753535 
L 39.517089 72.673368 
L 39.947409 71.593201 
L 40.391704 70.513034 
L 40.844757 69.432867 
L 41.301352 68.3527 
L 41.756712 67.272533 
L 42.20685 66.192367 
L 42.648796 65.1122 
L 43.080696 64.032033 
L 43.501773 62.951866 
L 43.912171 61.871699 
L 44.31272 60.791532 
L 44.704636 59.711365 
L 45.089224 58.631198 
L 45.467583 57.551031 
L 45.840383 56.470864 
L 46.207702 55.390697 
L 46.568952 54.31053 
L 54.231048 54.31053 
L 54.231048 54.31053 
L 54.592298 55.390697 
L 54.959617 56.470864 
L 55.332417 57.551031 
L 55.710776 58.631198 
L 56.095364 59.711365 
L 56.48728 60.791532 
L 56.887829 61.871699 
L 57.298227 62.951866 
L 57.719304 64.032033 
L 58.151204 65.1122 
L 58.59315 66.192367 
L 59.043288 67.272533 
L 59.498648 68.3527 
L 59.955243 69.432867 
L 60.408296 70.513034 
L 60.852591 71.593201 
L 61.282911 72.673368 
L 61.694523 73.753535 
L 62.083658 74.833702 
L 62.447923 75.913869 
L 62.786603 76.994036 
L 63.1008 78.074203 
L 63.393385 79.15437 
L 63.668757 80.234537 
L 63.932427 81.314704 
L 64.19045 82.394871 
L 64.44877 83.475037 
L 64.712541 84.555204 
L 64.985488 85.635371 
L 65.269387 86.715538 
L 65.563715 87.795705 
L 65.865512 88.875872 
L 66.169484 89.956039 
L 66.468336 91.036206 
L 66.753302 92.116373 
L 67.014843 93.19654 
L 67.243422 94.276707 
L 67.430307 95.356874 
L 67.568305 96.437041 
L 67.652365 97.517208 
L 67.68 98.597375 
L 67.651474 99.677541 
L 67.569756 100.757708 
L 67.440239 101.837875 
L 67.270265 102.918042 
L 67.068494 103.998209 
L 66.844204 105.078376 
L 66.606567 106.158543 
L 66.363987 107.23871 
L 66.123547 108.318877 
L 65.890622 109.399044 
L 65.668673 110.479211 
L 65.459222 111.559378 
L 65.262008 112.639545 
L 65.075276 113.719712 
L 64.896165 114.799879 
L 64.721141 115.880045 
L 64.546425 116.960212 
L 64.368376 118.040379 
L 64.183793 119.120546 
L 63.990121 120.200713 
L 63.785553 121.28088 
L 63.569025 122.361047 
L 63.340147 123.441214 
L 63.099066 124.521381 
L 62.846304 125.601548 
L 62.582597 126.681715 
L 62.308746 127.761882 
L 62.025509 128.842049 
L 61.733528 129.922216 
L 61.433301 131.002383 
L 61.125182 132.082549 
L 60.809418 133.162716 
L 60.486185 134.242883 
L 60.155636 135.32305 
L 59.817935 136.403217 
L 59.473295 137.483384 
L 59.121986 138.563551 
L 58.764354 139.643718 
L 58.400823 140.723885 
L 58.031911 141.804052 
L 57.658242 142.884219 
L 57.280571 143.964386 
L 56.899819 145.044553 
L 56.5171 146.12472 
L 56.133751 147.204887 
L 55.75135 148.285053 
L 55.371707 149.36522 
L 54.996846 150.445387 
L 54.628947 151.525554 
L 54.270279 152.605721 
L 53.923106 153.685888 
L 53.589596 154.766055 
L 53.271717 155.846222 
L 52.971159 156.926389 
L 52.689261 158.006556 
L 52.426972 159.086723 
L 52.18483 160.16689 
L 51.962976 161.247057 
L 51.962976 161.247057 
z
" clip-path="url(#pacb631fe6b)" style="fill: none; stroke: #000000; stroke-opacity: 0.3"/>
   </g>
   <g id="FillBetweenPolyCollection_4">
    <path d="M 58.773143 147.987965 
L 42.026857 147.987965 
L 41.253001 146.726086 
L 40.476008 145.464206 
L 39.704342 144.202327 
L 38.94645 142.940447 
L 38.210546 141.678568 
L 37.504416 140.416688 
L 36.835247 139.154809 
L 36.209494 137.892929 
L 35.632776 136.631049 
L 35.109814 135.36917 
L 34.644387 134.10729 
L 34.239329 132.845411 
L 33.896532 131.583531 
L 33.616968 130.321652 
L 33.400717 129.059772 
L 33.247 127.797893 
L 33.154221 126.536013 
L 33.12 125.274134 
L 33.141233 124.012254 
L 33.21415 122.750375 
L 33.334396 121.488495 
L 33.497132 120.226616 
L 33.697163 118.964736 
L 33.92909 117.702857 
L 34.187476 116.440977 
L 34.467041 115.179098 
L 34.762852 113.917218 
L 35.070517 112.655338 
L 35.386359 111.393459 
L 35.707562 110.131579 
L 36.032274 108.8697 
L 36.359659 107.60782 
L 36.689895 106.345941 
L 37.024106 105.084061 
L 37.364235 103.822182 
L 37.712865 102.560302 
L 38.072994 101.298423 
L 38.447781 100.036543 
L 38.840273 98.774664 
L 39.25314 97.512784 
L 39.688428 96.250905 
L 40.147346 94.989025 
L 40.630108 93.727146 
L 41.135832 92.465266 
L 41.662507 91.203386 
L 42.207036 89.941507 
L 42.765328 88.679627 
L 43.33247 87.417748 
L 43.902923 86.155868 
L 44.470772 84.893989 
L 45.029972 83.632109 
L 45.574609 82.37023 
L 46.099137 81.10835 
L 46.598586 79.846471 
L 47.068735 78.584591 
L 47.506232 77.322712 
L 47.908662 76.060832 
L 48.274567 74.798953 
L 48.603421 73.537073 
L 48.895557 72.275194 
L 49.152067 71.013314 
L 49.374675 69.751435 
L 49.565598 68.489555 
L 49.727406 67.227675 
L 49.86288 65.965796 
L 49.974884 64.703916 
L 50.066256 63.442037 
L 50.139707 62.180157 
L 50.197755 60.918278 
L 50.242664 59.656398 
L 50.276416 58.394519 
L 50.300689 57.132639 
L 50.316852 55.87076 
L 50.325983 54.60888 
L 50.328878 53.347001 
L 50.326087 52.085121 
L 50.317941 50.823242 
L 50.304597 49.561362 
L 50.28608 48.299483 
L 50.262327 47.037603 
L 50.233237 45.775723 
L 50.198722 44.513844 
L 50.158755 43.251964 
L 50.113418 41.990085 
L 50.062942 40.728205 
L 50.007747 39.466326 
L 49.948463 38.204446 
L 49.885946 36.942567 
L 49.82128 35.680687 
L 49.755756 34.418808 
L 49.690846 33.156928 
L 49.628151 31.895049 
L 49.569343 30.633169 
L 49.516092 29.37129 
L 49.469992 28.10941 
L 49.43248 26.847531 
L 49.404762 25.585651 
L 49.387752 24.323772 
L 49.382017 23.061892 
L 51.417983 23.061892 
L 51.417983 23.061892 
L 51.412248 24.323772 
L 51.395238 25.585651 
L 51.36752 26.847531 
L 51.330008 28.10941 
L 51.283908 29.37129 
L 51.230657 30.633169 
L 51.171849 31.895049 
L 51.109154 33.156928 
L 51.044244 34.418808 
L 50.97872 35.680687 
L 50.914054 36.942567 
L 50.851537 38.204446 
L 50.792253 39.466326 
L 50.737058 40.728205 
L 50.686582 41.990085 
L 50.641245 43.251964 
L 50.601278 44.513844 
L 50.566763 45.775723 
L 50.537673 47.037603 
L 50.51392 48.299483 
L 50.495403 49.561362 
L 50.482059 50.823242 
L 50.473913 52.085121 
L 50.471122 53.347001 
L 50.474017 54.60888 
L 50.483148 55.87076 
L 50.499311 57.132639 
L 50.523584 58.394519 
L 50.557336 59.656398 
L 50.602245 60.918278 
L 50.660293 62.180157 
L 50.733744 63.442037 
L 50.825116 64.703916 
L 50.93712 65.965796 
L 51.072594 67.227675 
L 51.234402 68.489555 
L 51.425325 69.751435 
L 51.647933 71.013314 
L 51.904443 72.275194 
L 52.196579 73.537073 
L 52.525433 74.798953 
L 52.891338 76.060832 
L 53.293768 77.322712 
L 53.731265 78.584591 
L 54.201414 79.846471 
L 54.700863 81.10835 
L 55.225391 82.37023 
L 55.770028 83.632109 
L 56.329228 84.893989 
L 56.897077 86.155868 
L 57.46753 87.417748 
L 58.034672 88.679627 
L 58.592964 89.941507 
L 59.137493 91.203386 
L 59.664168 92.465266 
L 60.169892 93.727146 
L 60.652654 94.989025 
L 61.111572 96.250905 
L 61.54686 97.512784 
L 61.959727 98.774664 
L 62.352219 100.036543 
L 62.727006 101.298423 
L 63.087135 102.560302 
L 63.435765 103.822182 
L 63.775894 105.084061 
L 64.110105 106.345941 
L 64.440341 107.60782 
L 64.767726 108.8697 
L 65.092438 110.131579 
L 65.413641 111.393459 
L 65.729483 112.655338 
L 66.037148 113.917218 
L 66.332959 115.179098 
L 66.612524 116.440977 
L 66.87091 117.702857 
L 67.102837 118.964736 
L 67.302868 120.226616 
L 67.465604 121.488495 
L 67.58585 122.750375 
L 67.658767 124.012254 
L 67.68 125.274134 
L 67.645779 126.536013 
L 67.553 127.797893 
L 67.399283 129.059772 
L 67.183032 130.321652 
L 66.903468 131.583531 
L 66.560671 132.845411 
L 66.155613 134.10729 
L 65.690186 135.36917 
L 65.167224 136.631049 
L 64.590506 137.892929 
L 63.964753 139.154809 
L 63.295584 140.416688 
L 62.589454 141.678568 
L 61.85355 142.940447 
L 61.095658 144.202327 
L 60.323992 145.464206 
L 59.546999 146.726086 
L 58.773143 147.987965 
L 58.773143 147.987965 
z
" clip-path="url(#pacb631fe6b)" style="fill: none; stroke: #000000; stroke-opacity: 0.3"/>
   </g>
   <g id="FillBetweenPolyCollection_5">
    <path d="M 59.627323 143.801584 
L 41.172677 143.801584 
L 40.646567 143.084216 
L 40.120081 142.366848 
L 39.595751 141.64948 
L 39.076163 140.932111 
L 38.563936 140.214743 
L 38.061697 139.497375 
L 37.572059 138.780006 
L 37.097591 138.062638 
L 36.640796 137.34527 
L 36.204081 136.627901 
L 35.789732 135.910533 
L 35.399888 135.193165 
L 35.036515 134.475797 
L 34.701381 133.758428 
L 34.396041 133.04106 
L 34.121809 132.323692 
L 33.879753 131.606323 
L 33.670676 130.888955 
L 33.495113 130.171587 
L 33.35333 129.454218 
L 33.24532 128.73685 
L 33.170815 128.019482 
L 33.129294 127.302114 
L 33.12 126.584745 
L 33.141953 125.867377 
L 33.193973 125.150009 
L 33.274703 124.43264 
L 33.38263 123.715272 
L 33.516113 122.997904 
L 33.6734 122.280535 
L 33.852656 121.563167 
L 34.051984 120.845799 
L 34.269444 120.128431 
L 34.50307 119.411062 
L 34.75089 118.693694 
L 35.010935 117.976326 
L 35.28126 117.258957 
L 35.559946 116.541589 
L 35.845121 115.824221 
L 36.134962 115.106852 
L 36.427711 114.389484 
L 36.721679 113.672116 
L 37.015263 112.954748 
L 37.306953 112.237379 
L 37.595342 111.520011 
L 37.87914 110.802643 
L 38.157183 110.085274 
L 38.428444 109.367906 
L 38.692041 108.650538 
L 38.947249 107.933169 
L 39.193502 107.215801 
L 39.430397 106.498433 
L 39.657699 105.781064 
L 39.875334 105.063696 
L 40.083385 104.346328 
L 40.282084 103.62896 
L 40.4718 102.911591 
L 40.653024 102.194223 
L 40.826349 101.476855 
L 40.992454 100.759486 
L 41.152082 100.042118 
L 41.306017 99.32475 
L 41.455063 98.607381 
L 41.600024 97.890013 
L 41.741683 97.172645 
L 41.880785 96.455277 
L 42.018023 95.737908 
L 42.154025 95.02054 
L 42.289345 94.303172 
L 42.424458 93.585803 
L 42.559759 92.868435 
L 42.695564 92.151067 
L 42.832113 91.433698 
L 42.969579 90.71633 
L 43.108075 89.998962 
L 43.247666 89.281594 
L 43.388381 88.564225 
L 43.530223 87.846857 
L 43.673184 87.129489 
L 43.817252 86.41212 
L 43.962422 85.694752 
L 44.108706 84.977384 
L 44.256134 84.260015 
L 44.404762 83.542647 
L 44.554669 82.825279 
L 44.705955 82.107911 
L 44.85874 81.390542 
L 45.013155 80.673174 
L 45.169333 79.955806 
L 45.327402 79.238437 
L 45.487473 78.521069 
L 45.649627 77.803701 
L 45.813907 77.086332 
L 45.980308 76.368964 
L 46.148766 75.651596 
L 46.319152 74.934228 
L 46.491267 74.216859 
L 46.664839 73.499491 
L 46.839523 72.782123 
L 53.960477 72.782123 
L 53.960477 72.782123 
L 54.135161 73.499491 
L 54.308733 74.216859 
L 54.480848 74.934228 
L 54.651234 75.651596 
L 54.819692 76.368964 
L 54.986093 77.086332 
L 55.150373 77.803701 
L 55.312527 78.521069 
L 55.472598 79.238437 
L 55.630667 79.955806 
L 55.786845 80.673174 
L 55.94126 81.390542 
L 56.094045 82.107911 
L 56.245331 82.825279 
L 56.395238 83.542647 
L 56.543866 84.260015 
L 56.691294 84.977384 
L 56.837578 85.694752 
L 56.982748 86.41212 
L 57.126816 87.129489 
L 57.269777 87.846857 
L 57.411619 88.564225 
L 57.552334 89.281594 
L 57.691925 89.998962 
L 57.830421 90.71633 
L 57.967887 91.433698 
L 58.104436 92.151067 
L 58.240241 92.868435 
L 58.375542 93.585803 
L 58.510655 94.303172 
L 58.645975 95.02054 
L 58.781977 95.737908 
L 58.919215 96.455277 
L 59.058317 97.172645 
L 59.199976 97.890013 
L 59.344937 98.607381 
L 59.493983 99.32475 
L 59.647918 100.042118 
L 59.807546 100.759486 
L 59.973651 101.476855 
L 60.146976 102.194223 
L 60.3282 102.911591 
L 60.517916 103.62896 
L 60.716615 104.346328 
L 60.924666 105.063696 
L 61.142301 105.781064 
L 61.369603 106.498433 
L 61.606498 107.215801 
L 61.852751 107.933169 
L 62.107959 108.650538 
L 62.371556 109.367906 
L 62.642817 110.085274 
L 62.92086 110.802643 
L 63.204658 111.520011 
L 63.493047 112.237379 
L 63.784737 112.954748 
L 64.078321 113.672116 
L 64.372289 114.389484 
L 64.665038 115.106852 
L 64.954879 115.824221 
L 65.240054 116.541589 
L 65.51874 117.258957 
L 65.789065 117.976326 
L 66.04911 118.693694 
L 66.29693 119.411062 
L 66.530556 120.128431 
L 66.748016 120.845799 
L 66.947344 121.563167 
L 67.1266 122.280535 
L 67.283887 122.997904 
L 67.41737 123.715272 
L 67.525297 124.43264 
L 67.606027 125.150009 
L 67.658047 125.867377 
L 67.68 126.584745 
L 67.670706 127.302114 
L 67.629185 128.019482 
L 67.55468 128.73685 
L 67.44667 129.454218 
L 67.304887 130.171587 
L 67.129324 130.888955 
L 66.920247 131.606323 
L 66.678191 132.323692 
L 66.403959 133.04106 
L 66.098619 133.758428 
L 65.763485 134.475797 
L 65.400112 135.193165 
L 65.010268 135.910533 
L 64.595919 136.627901 
L 64.159204 137.34527 
L 63.702409 138.062638 
L 63.227941 138.780006 
L 62.738303 139.497375 
L 62.236064 140.214743 
L 61.723837 140.932111 
L 61.204249 141.64948 
L 60.679919 142.366848 
L 60.153433 143.084216 
L 59.627323 143.801584 
L 59.627323 143.801584 
z
" clip-path="url(#pacb631fe6b)" style="fill: none; stroke: #000000; stroke-opacity: 0.3"/>
   </g>
   <g id="FillBetweenPolyCollection_6">
    <path d="M 111.01231 182.518719 
L 104.98769 182.518719 
L 104.437688 180.52623 
L 103.821768 178.533741 
L 103.140347 176.541252 
L 102.395899 174.548764 
L 101.593165 172.556275 
L 100.739253 170.563786 
L 99.843627 168.571297 
L 98.917965 166.578808 
L 97.975877 164.586319 
L 97.032502 162.59383 
L 96.103993 160.601341 
L 95.206921 158.608852 
L 94.357634 156.616363 
L 93.571616 154.623875 
L 92.86287 152.631386 
L 92.243383 150.638897 
L 91.722694 148.646408 
L 91.307592 146.653919 
L 91.00195 144.66143 
L 90.80671 142.668941 
L 90.72 140.676452 
L 90.737368 138.683963 
L 90.852108 136.691474 
L 91.055651 134.698986 
L 91.337992 132.706497 
L 91.688118 130.714008 
L 92.094424 128.721519 
L 92.545085 126.72903 
L 93.028384 124.736541 
L 93.532975 122.744052 
L 94.048094 120.751563 
L 94.563711 118.759074 
L 95.070639 116.766586 
L 95.560598 114.774097 
L 96.026262 112.781608 
L 96.461283 110.789119 
L 96.860308 108.79663 
L 97.218998 106.804141 
L 97.53404 104.811652 
L 97.803176 102.819163 
L 98.025211 100.826674 
L 98.200031 98.834185 
L 98.328591 96.841697 
L 98.412892 94.849208 
L 98.455918 92.856719 
L 98.461539 90.86423 
L 98.434383 88.871741 
L 98.379662 86.879252 
L 98.302987 84.886763 
L 98.210152 82.894274 
L 98.106932 80.901785 
L 97.998892 78.909297 
L 97.891228 76.916808 
L 97.788654 74.924319 
L 97.695345 72.93183 
L 97.61493 70.939341 
L 97.550536 68.946852 
L 97.504874 66.954363 
L 97.480343 64.961874 
L 97.47914 62.969385 
L 97.503356 60.976896 
L 97.555037 58.984408 
L 97.636195 56.991919 
L 97.748776 54.99943 
L 97.894568 53.006941 
L 98.075062 51.014452 
L 98.29129 49.021963 
L 98.543644 47.029474 
L 98.831711 45.036985 
L 99.154138 43.044496 
L 99.508546 41.052007 
L 99.891525 39.059519 
L 100.298687 37.06703 
L 100.724807 35.074541 
L 101.164033 33.082052 
L 101.610135 31.089563 
L 102.056801 29.097074 
L 102.497931 27.104585 
L 102.927909 25.112096 
L 103.341845 23.119607 
L 103.735743 21.127119 
L 104.106611 19.13463 
L 104.452486 17.142141 
L 104.772399 15.149652 
L 105.066273 13.157163 
L 105.334777 11.164674 
L 105.579161 9.172185 
L 105.801074 7.179696 
L 106.002401 5.187207 
L 106.185111 3.194718 
L 106.351147 1.20223 
L 106.502338 -0.790259 
L 106.516865 -1 
M 109.483135 -1 
L 109.497662 -0.790259 
L 109.648853 1.20223 
L 109.814889 3.194718 
L 109.997599 5.187207 
L 110.198926 7.179696 
L 110.420839 9.172185 
L 110.665223 11.164674 
L 110.933727 13.157163 
L 111.227601 15.149652 
L 111.547514 17.142141 
L 111.893389 19.13463 
L 112.264257 21.127119 
L 112.658155 23.119607 
L 113.072091 25.112096 
L 113.502069 27.104585 
L 113.943199 29.097074 
L 114.389865 31.089563 
L 114.835967 33.082052 
L 115.275193 35.074541 
L 115.701313 37.06703 
L 116.108475 39.059519 
L 116.491454 41.052007 
L 116.845862 43.044496 
L 117.168289 45.036985 
L 117.456356 47.029474 
L 117.70871 49.021963 
L 117.924938 51.014452 
L 118.105432 53.006941 
L 118.251224 54.99943 
L 118.363805 56.991919 
L 118.444963 58.984408 
L 118.496644 60.976896 
L 118.52086 62.969385 
L 118.519657 64.961874 
L 118.495126 66.954363 
L 118.449464 68.946852 
L 118.38507 70.939341 
L 118.304655 72.93183 
L 118.211346 74.924319 
L 118.108772 76.916808 
L 118.001108 78.909297 
L 117.893068 80.901785 
L 117.789848 82.894274 
L 117.697013 84.886763 
L 117.620338 86.879252 
L 117.565617 88.871741 
L 117.538461 90.86423 
L 117.544082 92.856719 
L 117.587108 94.849208 
L 117.671409 96.841697 
L 117.799969 98.834185 
L 117.974789 100.826674 
L 118.196824 102.819163 
L 118.46596 104.811652 
L 118.781002 106.804141 
L 119.139692 108.79663 
L 119.538717 110.789119 
L 119.973738 112.781608 
L 120.439402 114.774097 
L 120.929361 116.766586 
L 121.436289 118.759074 
L 121.951906 120.751563 
L 122.467025 122.744052 
L 122.971616 124.736541 
L 123.454915 126.72903 
L 123.905576 128.721519 
L 124.311882 130.714008 
L 124.662008 132.706497 
L 124.944349 134.698986 
L 125.147892 136.691474 
L 125.262632 138.683963 
L 125.28 140.676452 
L 125.19329 142.668941 
L 124.99805 144.66143 
L 124.692408 146.653919 
L 124.277306 148.646408 
L 123.756617 150.638897 
L 123.13713 152.631386 
L 122.428384 154.623875 
L 121.642366 156.616363 
L 120.793079 158.608852 
L 119.896007 160.601341 
L 118.967498 162.59383 
L 118.024123 164.586319 
L 117.082035 166.578808 
L 116.156373 168.571297 
L 115.260747 170.563786 
L 114.406835 172.556275 
L 113.604101 174.548764 
L 112.859653 176.541252 
L 112.178232 178.533741 
L 111.562312 180.52623 
L 111.01231 182.518719 
L 111.01231 182.518719 
" clip-path="url(#pacb631fe6b)" style="fill: none; stroke: #000000; stroke-opacity: 0.3"/>
   </g>
   <g id="FillBetweenPolyCollection_7">
    <path d="M 115.101444 169.420856 
L 100.898556 169.420856 
L 100.226178 167.754867 
L 99.544234 166.088878 
L 98.858661 164.422889 
L 98.175354 162.7569 
L 97.500015 161.090911 
L 96.838026 159.424922 
L 96.194344 157.758934 
L 95.573431 156.092945 
L 94.979227 154.426956 
L 94.415148 152.760967 
L 93.884114 151.094978 
L 93.388605 149.428989 
L 92.930729 147.763 
L 92.512287 146.097011 
L 92.134847 144.431022 
L 91.799788 142.765033 
L 91.508334 141.099044 
L 91.261559 139.433056 
L 91.060363 137.767067 
L 90.905424 136.101078 
L 90.797126 134.435089 
L 90.735473 132.7691 
L 90.72 131.103111 
L 90.749677 129.437122 
L 90.822839 127.771133 
L 90.93713 126.105144 
L 91.089486 124.439155 
L 91.276147 122.773167 
L 91.49272 121.107178 
L 91.734274 119.441189 
L 91.995484 117.7752 
L 92.270798 116.109211 
L 92.554637 114.443222 
L 92.841601 112.777233 
L 93.126683 111.111244 
L 93.405468 109.445255 
L 93.674304 107.779266 
L 93.930437 106.113277 
L 94.172106 104.447289 
L 94.398574 102.7813 
L 94.610106 101.115311 
L 94.807893 99.449322 
L 94.993912 97.783333 
L 95.170755 96.117344 
L 95.34141 94.451355 
L 95.509037 92.785366 
L 95.676724 91.119377 
L 95.847271 89.453388 
L 96.022992 87.787399 
L 96.205563 86.121411 
L 96.39592 84.455422 
L 96.594222 82.789433 
L 96.799867 81.123444 
L 97.011569 79.457455 
L 97.22749 77.791466 
L 97.445406 76.125477 
L 97.662898 74.459488 
L 97.877557 72.793499 
L 98.087177 71.12751 
L 98.289928 69.461522 
L 98.484496 67.795533 
L 98.670179 66.129544 
L 98.846926 64.463555 
L 99.015342 62.797566 
L 99.17663 61.131577 
L 99.3325 59.465588 
L 99.485052 57.799599 
L 99.636625 56.13361 
L 99.789652 54.467621 
L 99.946507 52.801632 
L 100.109373 51.135644 
L 100.280122 49.469655 
L 100.460228 47.803666 
L 100.650705 46.137677 
L 100.852077 44.471688 
L 101.064375 42.805699 
L 101.287165 41.13971 
L 101.519589 39.473721 
L 101.760431 37.807732 
L 102.008192 36.141743 
L 102.261172 34.475755 
L 102.517552 32.809766 
L 102.775478 31.143777 
L 103.033136 29.477788 
L 103.288818 27.811799 
L 103.540978 26.14581 
L 103.788273 24.479821 
L 104.029595 22.813832 
L 104.264077 21.147843 
L 104.491101 19.481854 
L 104.710281 17.815865 
L 104.921436 16.149877 
L 105.124564 14.483888 
L 105.319794 12.817899 
L 105.50735 11.15191 
L 105.687503 9.485921 
L 105.860535 7.819932 
L 106.026698 6.153943 
L 106.186193 4.487954 
L 109.813807 4.487954 
L 109.813807 4.487954 
L 109.973302 6.153943 
L 110.139465 7.819932 
L 110.312497 9.485921 
L 110.49265 11.15191 
L 110.680206 12.817899 
L 110.875436 14.483888 
L 111.078564 16.149877 
L 111.289719 17.815865 
L 111.508899 19.481854 
L 111.735923 21.147843 
L 111.970405 22.813832 
L 112.211727 24.479821 
L 112.459022 26.14581 
L 112.711182 27.811799 
L 112.966864 29.477788 
L 113.224522 31.143777 
L 113.482448 32.809766 
L 113.738828 34.475755 
L 113.991808 36.141743 
L 114.239569 37.807732 
L 114.480411 39.473721 
L 114.712835 41.13971 
L 114.935625 42.805699 
L 115.147923 44.471688 
L 115.349295 46.137677 
L 115.539772 47.803666 
L 115.719878 49.469655 
L 115.890627 51.135644 
L 116.053493 52.801632 
L 116.210348 54.467621 
L 116.363375 56.13361 
L 116.514948 57.799599 
L 116.6675 59.465588 
L 116.82337 61.131577 
L 116.984658 62.797566 
L 117.153074 64.463555 
L 117.329821 66.129544 
L 117.515504 67.795533 
L 117.710072 69.461522 
L 117.912823 71.12751 
L 118.122443 72.793499 
L 118.337102 74.459488 
L 118.554594 76.125477 
L 118.77251 77.791466 
L 118.988431 79.457455 
L 119.200133 81.123444 
L 119.405778 82.789433 
L 119.60408 84.455422 
L 119.794437 86.121411 
L 119.977008 87.787399 
L 120.152729 89.453388 
L 120.323276 91.119377 
L 120.490963 92.785366 
L 120.65859 94.451355 
L 120.829245 96.117344 
L 121.006088 97.783333 
L 121.192107 99.449322 
L 121.389894 101.115311 
L 121.601426 102.7813 
L 121.827894 104.447289 
L 122.069563 106.113277 
L 122.325696 107.779266 
L 122.594532 109.445255 
L 122.873317 111.111244 
L 123.158399 112.777233 
L 123.445363 114.443222 
L 123.729202 116.109211 
L 124.004516 117.7752 
L 124.265726 119.441189 
L 124.50728 121.107178 
L 124.723853 122.773167 
L 124.910514 124.439155 
L 125.06287 126.105144 
L 125.177161 127.771133 
L 125.250323 129.437122 
L 125.28 131.103111 
L 125.264527 132.7691 
L 125.202874 134.435089 
L 125.094576 136.101078 
L 124.939637 137.767067 
L 124.738441 139.433056 
L 124.491666 141.099044 
L 124.200212 142.765033 
L 123.865153 144.431022 
L 123.487713 146.097011 
L 123.069271 147.763 
L 122.611395 149.428989 
L 122.115886 151.094978 
L 121.584852 152.760967 
L 121.020773 154.426956 
L 120.426569 156.092945 
L 119.805656 157.758934 
L 119.161974 159.424922 
L 118.499985 161.090911 
L 117.824646 162.7569 
L 117.141339 164.422889 
L 116.455766 166.088878 
L 115.773822 167.754867 
L 115.101444 169.420856 
L 115.101444 169.420856 
z
" clip-path="url(#pacb631fe6b)" style="fill: none; stroke: #000000; stroke-opacity: 0.3"/>
   </g>
   <g id="FillBetweenPolyCollection_8">
    <path d="M 110.682281 191.140023 
L 105.317719 191.140023 
L 104.804918 188.674236 
L 104.229523 186.208449 
L 103.592154 183.742661 
L 102.895316 181.276874 
L 102.143497 178.811087 
L 101.34316 176.345299 
L 100.502623 173.879512 
L 99.631863 171.413725 
L 98.742222 168.947937 
L 97.846073 166.48215 
L 96.956427 164.016363 
L 96.086536 161.550575 
L 95.249471 159.084788 
L 94.457719 156.619001 
L 93.722792 154.153213 
L 93.054862 151.687426 
L 92.462452 149.221639 
L 91.952188 146.755851 
L 91.528637 144.290064 
L 91.194242 141.824277 
L 90.949356 139.358489 
L 90.792385 136.892702 
L 90.72 134.426915 
L 90.72741 131.961127 
L 90.808651 129.49534 
L 90.956855 127.029553 
L 91.164478 124.563765 
L 91.423463 122.097978 
L 91.725344 119.632191 
L 92.061289 117.166403 
L 92.422133 114.700616 
L 92.798402 112.234829 
L 93.18039 109.769041 
L 93.558284 107.303254 
L 93.922374 104.837467 
L 94.263328 102.371679 
L 94.572526 99.905892 
L 94.842429 97.440104 
L 95.066946 94.974317 
L 95.241778 92.50853 
L 95.364706 90.042742 
L 95.435809 87.576955 
L 95.457584 85.111168 
L 95.434973 82.64538 
L 95.375274 80.179593 
L 95.287934 77.713806 
L 95.184214 75.248018 
L 95.07672 72.782231 
L 94.97882 70.316444 
L 94.903942 67.850656 
L 94.864817 65.384869 
L 94.872704 62.919082 
L 94.936671 60.453294 
L 95.063012 57.987507 
L 95.254871 55.52172 
L 95.512124 53.055932 
L 95.831545 50.590145 
L 96.207244 48.124358 
L 96.631327 45.65857 
L 97.094698 43.192783 
L 97.587892 40.726996 
L 98.101843 38.261208 
L 98.628485 35.795421 
L 99.161134 33.329634 
L 99.694613 30.863846 
L 100.225147 28.398059 
L 100.75008 25.932272 
L 101.26748 23.466484 
L 101.775729 21.000697 
L 102.273167 18.53491 
L 102.757851 16.069122 
L 103.227454 13.603335 
L 103.679309 11.137548 
L 104.110557 8.67176 
L 104.518371 6.205973 
L 104.900191 3.740185 
L 105.253922 1.274398 
L 105.552916 -1 
M 110.447084 -1 
L 110.746078 1.274398 
L 111.099809 3.740185 
L 111.481629 6.205973 
L 111.889443 8.67176 
L 112.320691 11.137548 
L 112.772546 13.603335 
L 113.242149 16.069122 
L 113.726833 18.53491 
L 114.224271 21.000697 
L 114.73252 23.466484 
L 115.24992 25.932272 
L 115.774853 28.398059 
L 116.305387 30.863846 
L 116.838866 33.329634 
L 117.371515 35.795421 
L 117.898157 38.261208 
L 118.412108 40.726996 
L 118.905302 43.192783 
L 119.368673 45.65857 
L 119.792756 48.124358 
L 120.168455 50.590145 
L 120.487876 53.055932 
L 120.745129 55.52172 
L 120.936988 57.987507 
L 121.063329 60.453294 
L 121.127296 62.919082 
L 121.135183 65.384869 
L 121.096058 67.850656 
L 121.02118 70.316444 
L 120.92328 72.782231 
L 120.815786 75.248018 
L 120.712066 77.713806 
L 120.624726 80.179593 
L 120.565027 82.64538 
L 120.542416 85.111168 
L 120.564191 87.576955 
L 120.635294 90.042742 
L 120.758222 92.50853 
L 120.933054 94.974317 
L 121.157571 97.440104 
L 121.427474 99.905892 
L 121.736672 102.371679 
L 122.077626 104.837467 
L 122.441716 107.303254 
L 122.81961 109.769041 
L 123.201598 112.234829 
L 123.577867 114.700616 
L 123.938711 117.166403 
L 124.274656 119.632191 
L 124.576537 122.097978 
L 124.835522 124.563765 
L 125.043145 127.029553 
L 125.191349 129.49534 
L 125.27259 131.961127 
L 125.28 134.426915 
L 125.207615 136.892702 
L 125.050644 139.358489 
L 124.805758 141.824277 
L 124.471363 144.290064 
L 124.047812 146.755851 
L 123.537548 149.221639 
L 122.945138 151.687426 
L 122.277208 154.153213 
L 121.542281 156.619001 
L 120.750529 159.084788 
L 119.913464 161.550575 
L 119.043573 164.016363 
L 118.153927 166.48215 
L 117.257778 168.947937 
L 116.368137 171.413725 
L 115.497377 173.879512 
L 114.65684 176.345299 
L 113.856503 178.811087 
L 113.104684 181.276874 
L 112.407846 183.742661 
L 111.770477 186.208449 
L 111.195082 188.674236 
L 110.682281 191.140023 
L 110.682281 191.140023 
" clip-path="url(#pacb631fe6b)" style="fill: none; stroke: #000000; stroke-opacity: 0.3"/>
   </g>
   <g id="matplotlib.axis_1"/>
   <g id="matplotlib.axis_2">
    <g id="ytick_1">
     <g id="line2d_1">
      <defs>
       <path id="m9169a638d3" d="M 0 0 
L -3.5 0 
" style="stroke: #000000; stroke-width: 0.8"/>
      </defs>
      <g>
       <use xlink:href="#m9169a638d3" x="21.6" y="291.6" style="stroke: #000000; stroke-width: 0.8"/>
      </g>
     </g>
     <g id="text_1">
      <text style="font-size: 10px; font-family: 'DejaVu Sans', 'Bitstream Vera Sans', 'Computer Modern Sans Serif', 'Lucida Grande', 'Verdana', 'Geneva', 'Lucid', 'Arial', 'Helvetica', 'Avant Garde', sans-serif; text-anchor: end" x="14.6" y="295.399219" transform="rotate(-0 14.6 295.399219)">0.1</text>
     </g>
    </g>
    <g id="ytick_2">
     <g id="line2d_2">
      <g>
       <use xlink:href="#m9169a638d3" x="21.6" y="236.52" style="stroke: #000000; stroke-width: 0.8"/>
      </g>
     </g>
     <g id="text_2">
      <text style="font-size: 10px; font-family: 'DejaVu Sans', 'Bitstream Vera Sans', 'Computer Modern Sans Serif', 'Lucida Grande', 'Verdana', 'Geneva', 'Lucid', 'Arial', 'Helvetica', 'Avant Garde', sans-serif; text-anchor: end" x="14.6" y="240.319219" transform="rotate(-0 14.6 240.319219)">0.2</text>
     </g>
    </g>
    <g id="ytick_3">
     <g id="line2d_3">
      <g>
       <use xlink:href="#m9169a638d3" x="21.6" y="181.44" style="stroke: #000000; stroke-width: 0.8"/>
      </g>
     </g>
     <g id="text_3">
      <text style="font-size: 10px; font-family: 'DejaVu Sans', 'Bitstream Vera Sans', 'Computer Modern Sans Serif', 'Lucida Grande', 'Verdana', 'Geneva', 'Lucid', 'Arial', 'Helvetica', 'Avant Garde', sans-serif; text-anchor: end" x="14.6" y="185.239219" transform="rotate(-0 14.6 185.239219)">0.3</text>
     </g>
    </g>
    <g id="ytick_4">
     <g id="line2d_4">
      <g>
       <use xlink:href="#m9169a638d3" x="21.6" y="126.36" style="stroke: #000000; stroke-width: 0.8"/>
      </g>
     </g>
     <g id="text_4">
      <text style="font-size: 10px; font-family: 'DejaVu Sans', 'Bitstream Vera Sans', 'Computer Modern Sans Serif', 'Lucida Grande', 'Verdana', 'Geneva', 'Lucid', 'Arial', 'Helvetica', 'Avant Garde', sans-serif; text-anchor: end" x="14.6" y="130.159219" transform="rotate(-0 14.6 130.159219)">0.4</text>
     </g>
    </g>
    <g id="ytick_5">
     <g id="line2d_5">
      <g>
       <use xlink:href="#m9169a638d3" x="21.6" y="71.28" style="stroke: #000000; stroke-width: 0.8"/>
      </g>
     </g>
     <g id="text_5">
      <text style="font-size: 10px; font-family: 'DejaVu Sans', 'Bitstream Vera Sans', 'Computer Modern Sans Serif', 'Lucida Grande', 'Verdana', 'Geneva', 'Lucid', 'Arial', 'Helvetica', 'Avant Garde', sans-serif; text-anchor: end" x="14.6" y="75.079219" transform="rotate(-0 14.6 75.079219)">0.5</text>
     </g>
    </g>
    <g id="ytick_6">
     <g id="line2d_6">
      <g>
       <use xlink:href="#m9169a638d3" x="21.6" y="16.2" style="stroke: #000000; stroke-width: 0.8"/>
      </g>
     </g>
     <g id="text_6">
      <text style="font-size: 10px; font-family: 'DejaVu Sans', 'Bitstream Vera Sans', 'Computer Modern Sans Serif', 'Lucida Grande', 'Verdana', 'Geneva', 'Lucid', 'Arial', 'Helvetica', 'Avant Garde', sans-serif; text-anchor: end" x="14.6" y="19.999219" transform="rotate(-0 14.6 19.999219)">0.6</text>
     </g>
    </g>
    <g id="text_7">
     <!-- $E_{f}$ -->
     <g transform="translate(16.384437 160.27) rotate(-90)">
      <text>
       <tspan x="0" y="-0.796875" style="font-style: oblique; font-size: 14px; font-family: 'DejaVu Sans'">E</tspan>
       <tspan x="8.845703" y="1.5" style="font-style: oblique; font-size: 9.8px; font-family: 'DejaVu Sans'">f</tspan>
      </text>
     </g>
    </g>
   </g>
   <g id="line2d_7">
    <path d="M 50.4 269.568 
L 50.4 264.06 
" clip-path="url(#pacb631fe6b)" style="fill: none; stroke: #000000; stroke-linecap: square"/>
   </g>
   <g id="line2d_8">
    <path d="M 50.4 269.568 
L 108 269.568 
" clip-path="url(#pacb631fe6b)" style="fill: none; stroke: #000000; stroke-linecap: square"/>
   </g>
   <g id="line2d_9">
    <path d="M 108 269.568 
L 108 264.06 
" clip-path="url(#pacb631fe6b)" style="fill: none; stroke: #000000; stroke-linecap: square"/>
   </g>
   <g id="patch_3">
    <path d="M 21.6 291.6 
L 21.6 16.2 
" style="fill: none; stroke: #000000; stroke-width: 0.8; stroke-linejoin: miter; stroke-linecap: square"/>
   </g>
   <g id="patch_4">
    <path d="M 136.8 291.6 
L 136.8 16.2 
" style="fill: none; stroke: #000000; stroke-width: 0.8; stroke-linejoin: miter; stroke-linecap: square"/>
   </g>
   <g id="patch_5">
    <path d="M 21.6 291.6 
L 136.8 291.6 
" style="fill: none; stroke: #000000; stroke-width: 0.8; stroke-linejoin: miter; stroke-linecap: square"/>
   </g>
   <g id="patch_6">
    <path d="M 21.6 16.2 
L 136.8 16.2 
" style="fill: none; stroke: #000000; stroke-width: 0.8; stroke-linejoin: miter; stroke-linecap: square"/>
   </g>
   <g id="text_8">
    <text style="font-weight: 700; font-size: 12px; font-family: 'DejaVu Sans', 'Bitstream Vera Sans', 'Computer Modern Sans Serif', 'Lucida Grande', 'Verdana', 'Geneva', 'Lucid', 'Arial', 'Helvetica', 'Avant Garde', sans-serif; text-anchor: middle" x="50.4" y="289.104375" transform="rotate(-0 50.4 289.104375)">#35</text>
   </g>
   <g id="text_9">
    <text style="font-weight: 700; font-size: 12px; font-family: 'DejaVu Sans', 'Bitstream Vera Sans', 'Computer Modern Sans Serif', 'Lucida Grande', 'Verdana', 'Geneva', 'Lucid', 'Arial', 'Helvetica', 'Avant Garde', sans-serif; text-anchor: middle" x="108" y="289.104375" transform="rotate(-0 108 289.104375)">#36</text>
   </g>
   <g id="text_10">
    <text style="font-size: 12px; font-family: 'DejaVu Sans', 'Bitstream Vera Sans', 'Computer Modern Sans Serif', 'Lucida Grande', 'Verdana', 'Geneva', 'Lucid', 'Arial', 'Helvetica', 'Avant Garde', sans-serif; text-anchor: middle" x="79.2" y="268.449375" transform="rotate(-0 79.2 268.449375)">ns</text>
   </g>
   <g id="line2d_10">
    <path d="M 21.6 111.446968 
L 136.8 111.446968 
" clip-path="url(#pacb631fe6b)" style="fill: none; stroke-dasharray: 3.7,1.6; stroke-dashoffset: 0; stroke: #808080; stroke-opacity: 0.7"/>
   </g>
   <g id="line2d_11">
    <path d="M 21.6 113.227199 
L 136.8 113.227199 
" clip-path="url(#pacb631fe6b)" style="fill: none; stroke-dasharray: 3.7,1.6; stroke-dashoffset: 0; stroke: #808080; stroke-opacity: 0.7"/>
   </g>
   <g id="line2d_12">
    <path d="M 21.6 113.227199 
L 136.8 113.227199 
" clip-path="url(#pacb631fe6b)" style="fill: none; stroke-dasharray: 3.7,1.6; stroke-dashoffset: 0; stroke: #808080; stroke-opacity: 0.7"/>
   </g>
   <g id="LineCollection_1">
    <path d="M 50.4 120.558935 
L 50.4 102.335001 
" clip-path="url(#pacb631fe6b)" style="fill: none; stroke: #000000; stroke-width: 2"/>
   </g>
   <g id="line2d_13">
    <defs>
     <path id="mc0edba95c1" d="M 5 0 
L -5 -0 
" style="stroke: #000000; stroke-width: 2"/>
    </defs>
    <g clip-path="url(#pacb631fe6b)">
     <use xlink:href="#mc0edba95c1" x="50.4" y="120.558935" style="stroke: #000000; stroke-width: 2"/>
    </g>
   </g>
   <g id="line2d_14">
    <g clip-path="url(#pacb631fe6b)">
     <use xlink:href="#mc0edba95c1" x="50.4" y="102.335001" style="stroke: #000000; stroke-width: 2"/>
    </g>
   </g>
   <g id="LineCollection_2">
    <path d="M 108 118.125247 
L 108 108.329152 
" clip-path="url(#pacb631fe6b)" style="fill: none; stroke: #000000; stroke-width: 2"/>
   </g>
   <g id="line2d_15">
    <g clip-path="url(#pacb631fe6b)">
     <use xlink:href="#mc0edba95c1" x="108" y="118.125247" style="stroke: #000000; stroke-width: 2"/>
    </g>
   </g>
   <g id="line2d_16">
    <g clip-path="url(#pacb631fe6b)">
     <use xlink:href="#mc0edba95c1" x="108" y="108.329152" style="stroke: #000000; stroke-width: 2"/>
    </g>
   </g>
   <g id="line2d_17">
    <defs>
     <path id="m7d915884a4" d="M 0 4 
C 1.060812 4 2.078319 3.578535 2.828427 2.828427 
C 3.578535 2.078319 4 1.060812 4 0 
C 4 -1.060812 3.578535 -2.078319 2.828427 -2.828427 
C 2.078319 -3.578535 1.060812 -4 0 -4 
C -1.060812 -4 -2.078319 -3.578535 -2.828427 -2.828427 
C -3.578535 -2.078319 -4 -1.060812 -4 0 
C -4 1.060812 -3.578535 2.078319 -2.828427 2.828427 
C -2.078319 3.578535 -1.060812 4 0 4 
z
" style="stroke: #000000"/>
    </defs>
    <g clip-path="url(#pacb631fe6b)">
     <use xlink:href="#m7d915884a4" x="50.4" y="111.446968" style="stroke: #000000"/>
    </g>
   </g>
   <g id="line2d_18">
    <g clip-path="url(#pacb631fe6b)">
     <use xlink:href="#m7d915884a4" x="108" y="113.227199" style="stroke: #000000"/>
    </g>
   </g>
  </g>
 </g>
 <defs>
  <clipPath id="pacb631fe6b">
   <rect x="21.6" y="16.2" width="115.2" height="275.4"/>
  </clipPath>
 </defs>
</svg>
