<?xml version="1.0" encoding="utf-8" standalone="no"?>
<!DOCTYPE svg PUBLIC "-//W3C//DTD SVG 1.1//EN"
  "http://www.w3.org/Graphics/SVG/1.1/DTD/svg11.dtd">
<svg xmlns:xlink="http://www.w3.org/1999/xlink" width="144pt" height="324pt" viewBox="0 0 144 324" xmlns="http://www.w3.org/2000/svg" version="1.1">
 <metadata>
  <rdf:RDF xmlns:dc="http://purl.org/dc/elements/1.1/" xmlns:cc="http://creativecommons.org/ns#" xmlns:rdf="http://www.w3.org/1999/02/22-rdf-syntax-ns#">
   <cc:Work>
    <dc:type rdf:resource="http://purl.org/dc/dcmitype/StillImage"/>
    <dc:date>2025-12-11T11:15:01.364211</dc:date>
    <dc:format>image/svg+xml</dc:format>
    <dc:creator>
     <cc:Agent>
      <dc:title>Matplotlib v3.10.3, https://matplotlib.org/</dc:title>
     </cc:Agent>
    </dc:creator>
   </cc:Work>
  </rdf:RDF>
 </metadata>
 <defs>
  <style type="text/css">*{stroke-linejoin: round; stroke-linecap: butt}</style>
 </defs>
 <g id="figure_1">
  <g id="patch_1">
   <path d="M 0 324 
L 144 324 
L 144 0 
L 0 0 
z
" style="fill: #ffffff"/>
  </g>
  <g id="axes_1">
   <g id="patch_2">
    <path d="M 21.6 291.6 
L 136.8 291.6 
L 136.8 16.2 
L 21.6 16.2 
z
" style="fill: #ffffff"/>
   </g>
   <g id="FillBetweenPolyCollection_1">
    <path d="M 50.74956 179.342062 
L 50.05044 179.342062 
L 50.017639 178.66464 
L 49.983692 177.987218 
L 49.947267 177.309796 
L 49.906655 176.632374 
L 49.859824 175.954952 
L 49.804466 175.27753 
L 49.738021 174.600108 
L 49.657683 173.922686 
L 49.560392 173.245263 
L 49.442852 172.567841 
L 49.301591 171.890419 
L 49.133102 171.212997 
L 48.934065 170.535575 
L 48.701653 169.858153 
L 48.433878 169.180731 
L 48.129938 168.503309 
L 47.790485 167.825887 
L 47.417754 167.148465 
L 47.015498 166.471043 
L 46.588693 165.79362 
L 46.143036 165.116198 
L 45.684285 164.438776 
L 45.21752 163.761354 
L 44.746451 163.083932 
L 44.272889 162.40651 
L 43.796482 161.729088 
L 43.314776 161.051666 
L 42.823633 160.374244 
L 42.317941 159.696822 
L 41.792532 159.0194 
L 41.243163 158.341978 
L 40.667396 157.664555 
L 40.065264 156.987133 
L 39.439603 156.309711 
L 38.796025 155.632289 
L 38.142568 154.954867 
L 37.489093 154.277445 
L 36.846567 153.600023 
L 36.226326 152.922601 
L 35.639434 152.245179 
L 35.096189 151.567757 
L 34.605779 150.890335 
L 34.176096 150.212912 
L 33.813657 149.53549 
L 33.52361 148.858068 
L 33.309783 148.180646 
L 33.174769 147.503224 
L 33.12 146.825802 
L 33.145795 146.14838 
L 33.251334 145.470958 
L 33.434557 144.793536 
L 33.691966 144.116114 
L 34.018388 143.438692 
L 34.406769 142.76127 
L 34.848087 142.083847 
L 35.331498 141.406425 
L 35.844782 140.729003 
L 36.375076 140.051581 
L 36.909859 139.374159 
L 37.438025 138.696737 
L 37.95088 138.019315 
L 38.442864 137.341893 
L 38.91186 136.664471 
L 39.358999 135.987049 
L 39.787996 135.309627 
L 40.204137 134.632204 
L 40.6131 133.954782 
L 41.019835 133.27736 
L 41.427708 132.599938 
L 41.83804 131.922516 
L 42.250091 131.245094 
L 42.661446 130.567672 
L 43.068656 129.89025 
L 43.46798 129.212828 
L 43.856052 128.535406 
L 44.230344 127.857984 
L 44.589374 127.180562 
L 44.932665 126.503139 
L 45.260524 125.825717 
L 45.573748 125.148295 
L 45.873337 124.470873 
L 46.160298 123.793451 
L 46.435542 123.116029 
L 46.699873 122.438607 
L 46.954011 121.761185 
L 47.198617 121.083763 
L 47.434273 120.406341 
L 47.661434 119.728919 
L 47.880346 119.051496 
L 48.090989 118.374074 
L 48.29307 117.696652 
L 48.486083 117.01923 
L 48.669425 116.341808 
L 48.842552 115.664386 
L 49.00512 114.986964 
L 49.157066 114.309542 
L 49.298627 113.63212 
L 49.430263 112.954698 
L 49.552536 112.277276 
L 51.247464 112.277276 
L 51.247464 112.277276 
L 51.369737 112.954698 
L 51.501373 113.63212 
L 51.642934 114.309542 
L 51.79488 114.986964 
L 51.957448 115.664386 
L 52.130575 116.341808 
L 52.313917 117.01923 
L 52.50693 117.696652 
L 52.709011 118.374074 
L 52.919654 119.051496 
L 53.138566 119.728919 
L 53.365727 120.406341 
L 53.601383 121.083763 
L 53.845989 121.761185 
L 54.100127 122.438607 
L 54.364458 123.116029 
L 54.639702 123.793451 
L 54.926663 124.470873 
L 55.226252 125.148295 
L 55.539476 125.825717 
L 55.867335 126.503139 
L 56.210626 127.180562 
L 56.569656 127.857984 
L 56.943948 128.535406 
L 57.33202 129.212828 
L 57.731344 129.89025 
L 58.138554 130.567672 
L 58.549909 131.245094 
L 58.96196 131.922516 
L 59.372292 132.599938 
L 59.780165 133.27736 
L 60.1869 133.954782 
L 60.595863 134.632204 
L 61.012004 135.309627 
L 61.441001 135.987049 
L 61.88814 136.664471 
L 62.357136 137.341893 
L 62.84912 138.019315 
L 63.361975 138.696737 
L 63.890141 139.374159 
L 64.424924 140.051581 
L 64.955218 140.729003 
L 65.468502 141.406425 
L 65.951913 142.083847 
L 66.393231 142.76127 
L 66.781612 143.438692 
L 67.108034 144.116114 
L 67.365443 144.793536 
L 67.548666 145.470958 
L 67.654205 146.14838 
L 67.68 146.825802 
L 67.625231 147.503224 
L 67.490217 148.180646 
L 67.27639 148.858068 
L 66.986343 149.53549 
L 66.623904 150.212912 
L 66.194221 150.890335 
L 65.703811 151.567757 
L 65.160566 152.245179 
L 64.573674 152.922601 
L 63.953433 153.600023 
L 63.310907 154.277445 
L 62.657432 154.954867 
L 62.003975 155.632289 
L 61.360397 156.309711 
L 60.734736 156.987133 
L 60.132604 157.664555 
L 59.556837 158.341978 
L 59.007468 159.0194 
L 58.482059 159.696822 
L 57.976367 160.374244 
L 57.485224 161.051666 
L 57.003518 161.729088 
L 56.527111 162.40651 
L 56.053549 163.083932 
L 55.58248 163.761354 
L 55.115715 164.438776 
L 54.656964 165.116198 
L 54.211307 165.79362 
L 53.784502 166.471043 
L 53.382246 167.148465 
L 53.009515 167.825887 
L 52.670062 168.503309 
L 52.366122 169.180731 
L 52.098347 169.858153 
L 51.865935 170.535575 
L 51.666898 171.212997 
L 51.498409 171.890419 
L 51.357148 172.567841 
L 51.239608 173.245263 
L 51.142317 173.922686 
L 51.061979 174.600108 
L 50.995534 175.27753 
L 50.940176 175.954952 
L 50.893345 176.632374 
L 50.852733 177.309796 
L 50.816308 177.987218 
L 50.782361 178.66464 
L 50.74956 179.342062 
L 50.74956 179.342062 
z
" clip-path="url(#p17a3143bf8)" style="fill: none; stroke: #000000; stroke-opacity: 0.3"/>
   </g>
   <g id="FillBetweenPolyCollection_2">
    <path d="M 50.696146 205.653293 
L 50.103854 205.653293 
L 50.1024 204.742976 
L 50.107172 203.832659 
L 50.116293 202.922342 
L 50.127342 202.012025 
L 50.137749 201.101708 
L 50.145234 200.191391 
L 50.148198 199.281074 
L 50.146006 198.370758 
L 50.139085 197.460441 
L 50.128844 196.550124 
L 50.117401 195.639807 
L 50.107184 194.72949 
L 50.100464 193.819173 
L 50.098909 192.908856 
L 50.103222 191.998539 
L 50.112926 191.088222 
L 50.126316 190.177905 
L 50.140562 189.267588 
L 50.151945 188.357271 
L 50.156162 187.446954 
L 50.148655 186.536637 
L 50.124933 185.626321 
L 50.08085 184.716004 
L 50.012835 183.805687 
L 49.918072 182.89537 
L 49.794627 181.985053 
L 49.641522 181.074736 
L 49.458744 180.164419 
L 49.247179 179.254102 
L 49.008471 178.343785 
L 48.744794 177.433468 
L 48.45857 176.523151 
L 48.152139 175.612834 
L 47.827442 174.702517 
L 47.485752 173.7922 
L 47.127501 172.881883 
L 46.752244 171.971567 
L 46.358784 171.06125 
L 45.945442 170.150933 
L 45.51045 169.240616 
L 45.052403 168.330299 
L 44.570694 167.419982 
L 44.065848 166.509665 
L 43.539693 165.599348 
L 42.995318 164.689031 
L 42.436841 163.778714 
L 41.869011 162.868397 
L 41.296756 161.95808 
L 40.724764 161.047763 
L 40.157196 160.137446 
L 39.597583 159.22713 
L 39.048909 158.316813 
L 38.513816 157.406496 
L 37.994832 156.496179 
L 37.494507 155.585862 
L 37.015376 154.675545 
L 36.559733 153.765228 
L 36.12928 152.854911 
L 35.724763 151.944594 
L 35.34578 151.034277 
L 34.990887 150.12396 
L 34.658101 149.213643 
L 34.345789 148.303326 
L 34.053812 147.393009 
L 33.784713 146.482692 
L 33.54468 145.572376 
L 33.344003 144.662059 
L 33.196811 143.751742 
L 33.12 142.841425 
L 33.131414 141.931108 
L 33.247505 141.020791 
L 33.480852 140.110474 
L 33.837967 139.200157 
L 34.317842 138.28984 
L 34.911538 137.379523 
L 35.602935 136.469206 
L 36.370543 135.558889 
L 37.190028 134.648572 
L 38.036971 133.738255 
L 38.889361 132.827939 
L 39.729367 131.917622 
L 40.544176 131.007305 
L 41.325865 130.096988 
L 42.070508 129.186671 
L 42.776872 128.276354 
L 43.445066 127.366037 
L 44.075473 126.45572 
L 44.668131 125.545403 
L 45.222613 124.635086 
L 45.738288 123.724769 
L 46.214775 122.814452 
L 46.652414 121.904135 
L 47.052572 120.993818 
L 47.417709 120.083501 
L 47.75119 119.173185 
L 48.056879 118.262868 
L 48.33864 117.352551 
L 48.599818 116.442234 
L 48.842847 115.531917 
L 51.957153 115.531917 
L 51.957153 115.531917 
L 52.200182 116.442234 
L 52.46136 117.352551 
L 52.743121 118.262868 
L 53.04881 119.173185 
L 53.382291 120.083501 
L 53.747428 120.993818 
L 54.147586 121.904135 
L 54.585225 122.814452 
L 55.061712 123.724769 
L 55.577387 124.635086 
L 56.131869 125.545403 
L 56.724527 126.45572 
L 57.354934 127.366037 
L 58.023128 128.276354 
L 58.729492 129.186671 
L 59.474135 130.096988 
L 60.255824 131.007305 
L 61.070633 131.917622 
L 61.910639 132.827939 
L 62.763029 133.738255 
L 63.609972 134.648572 
L 64.429457 135.558889 
L 65.197065 136.469206 
L 65.888462 137.379523 
L 66.482158 138.28984 
L 66.962033 139.200157 
L 67.319148 140.110474 
L 67.552495 141.020791 
L 67.668586 141.931108 
L 67.68 142.841425 
L 67.603189 143.751742 
L 67.455997 144.662059 
L 67.25532 145.572376 
L 67.015287 146.482692 
L 66.746188 147.393009 
L 66.454211 148.303326 
L 66.141899 149.213643 
L 65.809113 150.12396 
L 65.45422 151.034277 
L 65.075237 151.944594 
L 64.67072 152.854911 
L 64.240267 153.765228 
L 63.784624 154.675545 
L 63.305493 155.585862 
L 62.805168 156.496179 
L 62.286184 157.406496 
L 61.751091 158.316813 
L 61.202417 159.22713 
L 60.642804 160.137446 
L 60.075236 161.047763 
L 59.503244 161.95808 
L 58.930989 162.868397 
L 58.363159 163.778714 
L 57.804682 164.689031 
L 57.260307 165.599348 
L 56.734152 166.509665 
L 56.229306 167.419982 
L 55.747597 168.330299 
L 55.28955 169.240616 
L 54.854558 170.150933 
L 54.441216 171.06125 
L 54.047756 171.971567 
L 53.672499 172.881883 
L 53.314248 173.7922 
L 52.972558 174.702517 
L 52.647861 175.612834 
L 52.34143 176.523151 
L 52.055206 177.433468 
L 51.791529 178.343785 
L 51.552821 179.254102 
L 51.341256 180.164419 
L 51.158478 181.074736 
L 51.005373 181.985053 
L 50.881928 182.89537 
L 50.787165 183.805687 
L 50.71915 184.716004 
L 50.675067 185.626321 
L 50.651345 186.536637 
L 50.643838 187.446954 
L 50.648055 188.357271 
L 50.659438 189.267588 
L 50.673684 190.177905 
L 50.687074 191.088222 
L 50.696778 191.998539 
L 50.701091 192.908856 
L 50.699536 193.819173 
L 50.692816 194.72949 
L 50.682599 195.639807 
L 50.671156 196.550124 
L 50.660915 197.460441 
L 50.653994 198.370758 
L 50.651802 199.281074 
L 50.654766 200.191391 
L 50.662251 201.101708 
L 50.672658 202.012025 
L 50.683707 202.922342 
L 50.692828 203.832659 
L 50.6976 204.742976 
L 50.696146 205.653293 
L 50.696146 205.653293 
z
" clip-path="url(#p17a3143bf8)" style="fill: none; stroke: #000000; stroke-opacity: 0.3"/>
   </g>
   <g id="FillBetweenPolyCollection_3">
    <path d="M 108.893926 201.324152 
L 107.106074 201.324152 
L 107.111499 200.730396 
L 107.127812 200.13664 
L 107.15435 199.542884 
L 107.190057 198.949128 
L 107.233543 198.355372 
L 107.283141 197.761616 
L 107.336988 197.16786 
L 107.393092 196.574104 
L 107.449408 195.980348 
L 107.503887 195.386592 
L 107.554516 194.792836 
L 107.599342 194.19908 
L 107.636472 193.605324 
L 107.66406 193.011568 
L 107.68028 192.417812 
L 107.683292 191.824056 
L 107.671217 191.2303 
L 107.642111 190.636544 
L 107.593957 190.042788 
L 107.524685 189.449032 
L 107.432208 188.855276 
L 107.314497 188.26152 
L 107.169671 187.667764 
L 106.996117 187.074008 
L 106.792623 186.480252 
L 106.558512 185.886496 
L 106.29377 185.29274 
L 105.999149 184.698984 
L 105.676229 184.105228 
L 105.327442 183.511472 
L 104.956018 182.917716 
L 104.565882 182.32396 
L 104.161484 181.730204 
L 103.74756 181.136448 
L 103.328868 180.542692 
L 102.909884 179.948936 
L 102.494502 179.35518 
L 102.085759 178.761424 
L 101.685602 178.167668 
L 101.294734 177.573912 
L 100.912544 176.980156 
L 100.537134 176.3864 
L 100.165457 175.792644 
L 99.793537 175.198888 
L 99.416786 174.605132 
L 99.030366 174.011376 
L 98.629596 173.41762 
L 98.21036 172.823864 
L 97.769482 172.230108 
L 97.305064 171.636352 
L 96.816737 171.042596 
L 96.305831 170.44884 
L 95.775445 169.855084 
L 95.230417 169.261328 
L 94.677207 168.667572 
L 94.123693 168.073816 
L 93.578911 167.48006 
L 93.05275 166.886304 
L 92.555616 166.292548 
L 92.098094 165.698792 
L 91.690614 165.105036 
L 91.34313 164.51128 
L 91.064831 163.917524 
L 90.863872 163.323768 
L 90.747132 162.730012 
L 90.72 162.136256 
L 90.786189 161.5425 
L 90.947577 160.948744 
L 91.204078 160.354988 
L 91.55356 159.761232 
L 91.991806 159.167476 
L 92.51254 158.57372 
L 93.107521 157.979964 
L 93.766723 157.386208 
L 94.47859 156.792452 
L 95.230375 156.198696 
L 96.008553 155.60494 
L 96.799282 155.011184 
L 97.5889 154.417428 
L 98.364424 153.823672 
L 99.114027 153.229916 
L 99.827454 152.63616 
L 100.49636 152.042404 
L 101.114552 151.448648 
L 101.678105 150.854892 
L 102.185368 150.261136 
L 102.63685 149.66738 
L 103.034998 149.073624 
L 103.3839 148.479868 
L 103.688908 147.886112 
L 103.956245 147.292356 
L 104.192583 146.6986 
L 104.40465 146.104844 
L 104.598869 145.511088 
L 104.781055 144.917332 
L 104.956182 144.323576 
L 105.128223 143.72982 
L 105.300072 143.136064 
L 105.473539 142.542308 
L 110.526461 142.542308 
L 110.526461 142.542308 
L 110.699928 143.136064 
L 110.871777 143.72982 
L 111.043818 144.323576 
L 111.218945 144.917332 
L 111.401131 145.511088 
L 111.59535 146.104844 
L 111.807417 146.6986 
L 112.043755 147.292356 
L 112.311092 147.886112 
L 112.6161 148.479868 
L 112.965002 149.073624 
L 113.36315 149.66738 
L 113.814632 150.261136 
L 114.321895 150.854892 
L 114.885448 151.448648 
L 115.50364 152.042404 
L 116.172546 152.63616 
L 116.885973 153.229916 
L 117.635576 153.823672 
L 118.4111 154.417428 
L 119.200718 155.011184 
L 119.991447 155.60494 
L 120.769625 156.198696 
L 121.52141 156.792452 
L 122.233277 157.386208 
L 122.892479 157.979964 
L 123.48746 158.57372 
L 124.008194 159.167476 
L 124.44644 159.761232 
L 124.795922 160.354988 
L 125.052423 160.948744 
L 125.213811 161.5425 
L 125.28 162.136256 
L 125.252868 162.730012 
L 125.136128 163.323768 
L 124.935169 163.917524 
L 124.65687 164.51128 
L 124.309386 165.105036 
L 123.901906 165.698792 
L 123.444384 166.292548 
L 122.94725 166.886304 
L 122.421089 167.48006 
L 121.876307 168.073816 
L 121.322793 168.667572 
L 120.769583 169.261328 
L 120.224555 169.855084 
L 119.694169 170.44884 
L 119.183263 171.042596 
L 118.694936 171.636352 
L 118.230518 172.230108 
L 117.78964 172.823864 
L 117.370404 173.41762 
L 116.969634 174.011376 
L 116.583214 174.605132 
L 116.206463 175.198888 
L 115.834543 175.792644 
L 115.462866 176.3864 
L 115.087456 176.980156 
L 114.705266 177.573912 
L 114.314398 178.167668 
L 113.914241 178.761424 
L 113.505498 179.35518 
L 113.090116 179.948936 
L 112.671132 180.542692 
L 112.25244 181.136448 
L 111.838516 181.730204 
L 111.434118 182.32396 
L 111.043982 182.917716 
L 110.672558 183.511472 
L 110.323771 184.105228 
L 110.000851 184.698984 
L 109.70623 185.29274 
L 109.441488 185.886496 
L 109.207377 186.480252 
L 109.003883 187.074008 
L 108.830329 187.667764 
L 108.685503 188.26152 
L 108.567792 188.855276 
L 108.475315 189.449032 
L 108.406043 190.042788 
L 108.357889 190.636544 
L 108.328783 191.2303 
L 108.316708 191.824056 
L 108.31972 192.417812 
L 108.33594 193.011568 
L 108.363528 193.605324 
L 108.400658 194.19908 
L 108.445484 194.792836 
L 108.496113 195.386592 
L 108.550592 195.980348 
L 108.606908 196.574104 
L 108.663012 197.16786 
L 108.716859 197.761616 
L 108.766457 198.355372 
L 108.809943 198.949128 
L 108.84565 199.542884 
L 108.872188 200.13664 
L 108.888501 200.730396 
L 108.893926 201.324152 
L 108.893926 201.324152 
z
" clip-path="url(#p17a3143bf8)" style="fill: none; stroke: #000000; stroke-opacity: 0.3"/>
   </g>
   <g id="FillBetweenPolyCollection_4">
    <path d="M 110.161706 184.893251 
L 105.838294 184.893251 
L 105.666938 184.445911 
L 105.498496 183.998572 
L 105.332332 183.551233 
L 105.166969 183.103893 
L 105.000163 182.656554 
L 104.829055 182.209215 
L 104.650384 181.761875 
L 104.460752 181.314536 
L 104.256912 180.867197 
L 104.036062 180.419857 
L 103.796108 179.972518 
L 103.535881 179.525179 
L 103.255281 179.077839 
L 102.955331 178.6305 
L 102.638138 178.183161 
L 102.306756 177.735821 
L 101.964961 177.288482 
L 101.616957 176.841143 
L 101.267028 176.393803 
L 100.919178 175.946464 
L 100.576774 175.499125 
L 100.242242 175.051785 
L 99.916826 174.604446 
L 99.60046 174.157107 
L 99.291739 173.709767 
L 98.988035 173.262428 
L 98.68572 172.815089 
L 98.380506 172.367749 
L 98.06787 171.92041 
L 97.743527 171.473071 
L 97.403912 171.025731 
L 97.046623 170.578392 
L 96.670781 170.131053 
L 96.277261 169.683713 
L 95.868774 169.236374 
L 95.449769 168.789035 
L 95.026166 168.341695 
L 94.604939 167.894356 
L 94.193568 167.447017 
L 93.799443 166.999677 
L 93.429249 166.552338 
L 93.088414 166.104999 
L 92.780676 165.65766 
L 92.507807 165.21032 
L 92.269546 164.762981 
L 92.063722 164.315642 
L 91.886583 163.868302 
L 91.733266 163.420963 
L 91.598389 162.973624 
L 91.476676 162.526284 
L 91.363558 162.078945 
L 91.2557 161.631606 
L 91.151372 161.184266 
L 91.050667 160.736927 
L 90.955516 160.289588 
L 90.86952 159.842248 
L 90.797634 159.394909 
L 90.745714 158.94757 
L 90.72 158.50023 
L 90.726591 158.052891 
L 90.770943 157.605552 
L 90.857461 157.158212 
L 90.989199 156.710873 
L 91.167703 156.263534 
L 91.39298 155.816194 
L 91.663601 155.368855 
L 91.9769 154.921516 
L 92.329245 154.474176 
L 92.716336 154.026837 
L 93.133507 153.579498 
L 93.575987 153.132158 
L 94.039107 152.684819 
L 94.518442 152.23748 
L 95.009875 151.79014 
L 95.509608 151.342801 
L 96.01412 150.895462 
L 96.520106 150.448122 
L 97.024416 150.000783 
L 97.524017 149.553444 
L 98.01599 149.106104 
L 98.497575 148.658765 
L 98.966266 148.211426 
L 99.419933 147.764087 
L 99.856965 147.316747 
L 100.276407 146.869408 
L 100.678055 146.422069 
L 101.062512 145.974729 
L 101.431155 145.52739 
L 101.786037 145.080051 
L 102.129709 144.632711 
L 102.464982 144.185372 
L 102.794654 143.738033 
L 103.121226 143.290693 
L 103.446648 142.843354 
L 103.772106 142.396015 
L 104.097895 141.948675 
L 104.42337 141.501336 
L 104.746995 141.053997 
L 105.066471 140.606657 
L 110.933529 140.606657 
L 110.933529 140.606657 
L 111.253005 141.053997 
L 111.57663 141.501336 
L 111.902105 141.948675 
L 112.227894 142.396015 
L 112.553352 142.843354 
L 112.878774 143.290693 
L 113.205346 143.738033 
L 113.535018 144.185372 
L 113.870291 144.632711 
L 114.213963 145.080051 
L 114.568845 145.52739 
L 114.937488 145.974729 
L 115.321945 146.422069 
L 115.723593 146.869408 
L 116.143035 147.316747 
L 116.580067 147.764087 
L 117.033734 148.211426 
L 117.502425 148.658765 
L 117.98401 149.106104 
L 118.475983 149.553444 
L 118.975584 150.000783 
L 119.479894 150.448122 
L 119.98588 150.895462 
L 120.490392 151.342801 
L 120.990125 151.79014 
L 121.481558 152.23748 
L 121.960893 152.684819 
L 122.424013 153.132158 
L 122.866493 153.579498 
L 123.283664 154.026837 
L 123.670755 154.474176 
L 124.0231 154.921516 
L 124.336399 155.368855 
L 124.60702 155.816194 
L 124.832297 156.263534 
L 125.010801 156.710873 
L 125.142539 157.158212 
L 125.229057 157.605552 
L 125.273409 158.052891 
L 125.28 158.50023 
L 125.254286 158.94757 
L 125.202366 159.394909 
L 125.13048 159.842248 
L 125.044484 160.289588 
L 124.949333 160.736927 
L 124.848628 161.184266 
L 124.7443 161.631606 
L 124.636442 162.078945 
L 124.523324 162.526284 
L 124.401611 162.973624 
L 124.266734 163.420963 
L 124.113417 163.868302 
L 123.936278 164.315642 
L 123.730454 164.762981 
L 123.492193 165.21032 
L 123.219324 165.65766 
L 122.911586 166.104999 
L 122.570751 166.552338 
L 122.200557 166.999677 
L 121.806432 167.447017 
L 121.395061 167.894356 
L 120.973834 168.341695 
L 120.550231 168.789035 
L 120.131226 169.236374 
L 119.722739 169.683713 
L 119.329219 170.131053 
L 118.953377 170.578392 
L 118.596088 171.025731 
L 118.256473 171.473071 
L 117.93213 171.92041 
L 117.619494 172.367749 
L 117.31428 172.815089 
L 117.011965 173.262428 
L 116.708261 173.709767 
L 116.39954 174.157107 
L 116.083174 174.604446 
L 115.757758 175.051785 
L 115.423226 175.499125 
L 115.080822 175.946464 
L 114.732972 176.393803 
L 114.383043 176.841143 
L 114.035039 177.288482 
L 113.693244 177.735821 
L 113.361862 178.183161 
L 113.044669 178.6305 
L 112.744719 179.077839 
L 112.464119 179.525179 
L 112.203892 179.972518 
L 111.963938 180.419857 
L 111.743088 180.867197 
L 111.539248 181.314536 
L 111.349616 181.761875 
L 111.170945 182.209215 
L 110.999837 182.656554 
L 110.833031 183.103893 
L 110.667668 183.551233 
L 110.501504 183.998572 
L 110.333062 184.445911 
L 110.161706 184.893251 
L 110.161706 184.893251 
z
" clip-path="url(#p17a3143bf8)" style="fill: none; stroke: #000000; stroke-opacity: 0.3"/>
   </g>
   <g id="FillBetweenPolyCollection_5">
    <path d="M 108.25334 218.258353 
L 107.74666 218.258353 
L 107.753748 217.286496 
L 107.773843 216.31464 
L 107.803757 215.342784 
L 107.839109 214.370928 
L 107.87537 213.399072 
L 107.908785 212.427216 
L 107.936923 211.455359 
L 107.958787 210.483503 
L 107.974555 209.511647 
L 107.985149 208.539791 
L 107.991786 207.567935 
L 107.995642 206.596078 
L 107.997648 205.624222 
L 107.998399 204.652366 
L 107.998124 203.68051 
L 107.996649 202.708654 
L 107.993328 201.736797 
L 107.986923 200.764941 
L 107.975457 199.793085 
L 107.956093 198.821229 
L 107.925116 197.849373 
L 107.87811 196.877516 
L 107.810387 195.90566 
L 107.71768 194.933804 
L 107.597034 193.961948 
L 107.44774 192.990092 
L 107.272124 192.018235 
L 107.07596 191.046379 
L 106.868307 190.074523 
L 106.660644 189.102667 
L 106.465234 188.130811 
L 106.29284 187.158954 
L 106.150059 186.187098 
L 106.036774 185.215242 
L 105.944346 184.243386 
L 105.855164 183.27153 
L 105.743931 182.299674 
L 105.580696 181.327817 
L 105.33509 180.355961 
L 104.980858 179.384105 
L 104.499644 178.412249 
L 103.883139 177.440393 
L 103.133307 176.468536 
L 102.260965 175.49668 
L 101.283546 174.524824 
L 100.222967 173.552968 
L 99.104192 172.581112 
L 97.954549 171.609255 
L 96.803367 170.637399 
L 95.681386 169.665543 
L 94.619647 168.693687 
L 93.647867 167.721831 
L 92.792551 166.749974 
L 92.074976 165.778118 
L 91.509141 164.806262 
L 91.099965 163.834406 
L 90.84237 162.86255 
L 90.72225 161.890693 
L 90.72 160.918837 
L 90.816323 159.946981 
L 90.998717 158.975125 
L 91.266204 158.003269 
L 91.63008 157.031412 
L 92.109836 156.059556 
L 92.725285 155.0877 
L 93.487468 154.115844 
L 94.391431 153.143988 
L 95.413305 152.172132 
L 96.512604 151.200275 
L 97.639033 150.228419 
L 98.741707 149.256563 
L 99.778105 148.284707 
L 100.720307 147.312851 
L 101.556999 146.340994 
L 102.291221 145.369138 
L 102.935154 144.397282 
L 103.504166 143.425426 
L 104.012189 142.45357 
L 104.469662 141.481713 
L 104.883901 140.509857 
L 105.260749 139.538001 
L 105.606035 138.566145 
L 105.925845 137.594289 
L 106.225539 136.622432 
L 106.508243 135.650576 
L 106.773767 134.67872 
L 107.018623 133.706864 
L 107.237177 132.735008 
L 107.42345 131.763151 
L 107.572878 130.791295 
L 107.683518 129.819439 
L 107.756499 128.847583 
L 107.795853 127.875727 
L 107.807951 126.90387 
L 107.800761 125.932014 
L 107.782992 124.960158 
L 107.763148 123.988302 
L 107.748511 123.016446 
L 107.744225 122.04459 
L 108.255775 122.04459 
L 108.255775 122.04459 
L 108.251489 123.016446 
L 108.236852 123.988302 
L 108.217008 124.960158 
L 108.199239 125.932014 
L 108.192049 126.90387 
L 108.204147 127.875727 
L 108.243501 128.847583 
L 108.316482 129.819439 
L 108.427122 130.791295 
L 108.57655 131.763151 
L 108.762823 132.735008 
L 108.981377 133.706864 
L 109.226233 134.67872 
L 109.491757 135.650576 
L 109.774461 136.622432 
L 110.074155 137.594289 
L 110.393965 138.566145 
L 110.739251 139.538001 
L 111.116099 140.509857 
L 111.530338 141.481713 
L 111.987811 142.45357 
L 112.495834 143.425426 
L 113.064846 144.397282 
L 113.708779 145.369138 
L 114.443001 146.340994 
L 115.279693 147.312851 
L 116.221895 148.284707 
L 117.258293 149.256563 
L 118.360967 150.228419 
L 119.487396 151.200275 
L 120.586695 152.172132 
L 121.608569 153.143988 
L 122.512532 154.115844 
L 123.274715 155.0877 
L 123.890164 156.059556 
L 124.36992 157.031412 
L 124.733796 158.003269 
L 125.001283 158.975125 
L 125.183677 159.946981 
L 125.28 160.918837 
L 125.27775 161.890693 
L 125.15763 162.86255 
L 124.900035 163.834406 
L 124.490859 164.806262 
L 123.925024 165.778118 
L 123.207449 166.749974 
L 122.352133 167.721831 
L 121.380353 168.693687 
L 120.318614 169.665543 
L 119.196633 170.637399 
L 118.045451 171.609255 
L 116.895808 172.581112 
L 115.777033 173.552968 
L 114.716454 174.524824 
L 113.739035 175.49668 
L 112.866693 176.468536 
L 112.116861 177.440393 
L 111.500356 178.412249 
L 111.019142 179.384105 
L 110.66491 180.355961 
L 110.419304 181.327817 
L 110.256069 182.299674 
L 110.144836 183.27153 
L 110.055654 184.243386 
L 109.963226 185.215242 
L 109.849941 186.187098 
L 109.70716 187.158954 
L 109.534766 188.130811 
L 109.339356 189.102667 
L 109.131693 190.074523 
L 108.92404 191.046379 
L 108.727876 192.018235 
L 108.55226 192.990092 
L 108.402966 193.961948 
L 108.28232 194.933804 
L 108.189613 195.90566 
L 108.12189 196.877516 
L 108.074884 197.849373 
L 108.043907 198.821229 
L 108.024543 199.793085 
L 108.013077 200.764941 
L 108.006672 201.736797 
L 108.003351 202.708654 
L 108.001876 203.68051 
L 108.001601 204.652366 
L 108.002352 205.624222 
L 108.004358 206.596078 
L 108.008214 207.567935 
L 108.014851 208.539791 
L 108.025445 209.511647 
L 108.041213 210.483503 
L 108.063077 211.455359 
L 108.091215 212.427216 
L 108.12463 213.399072 
L 108.160891 214.370928 
L 108.196243 215.342784 
L 108.226157 216.31464 
L 108.246252 217.286496 
L 108.25334 218.258353 
L 108.25334 218.258353 
z
" clip-path="url(#p17a3143bf8)" style="fill: none; stroke: #000000; stroke-opacity: 0.3"/>
   </g>
   <g id="FillBetweenPolyCollection_6">
    <path d="M 108.957286 195.480208 
L 107.042714 195.480208 
L 106.947694 194.841282 
L 106.859053 194.202356 
L 106.778759 193.563431 
L 106.707999 192.924505 
L 106.646926 192.285579 
L 106.594463 191.646654 
L 106.54819 191.007728 
L 106.504336 190.368802 
L 106.457898 189.729877 
L 106.402877 189.090951 
L 106.332629 188.452025 
L 106.240297 187.8131 
L 106.119294 187.174174 
L 105.963788 186.535248 
L 105.76915 185.896323 
L 105.532307 185.257397 
L 105.251982 184.618471 
L 104.928778 183.979546 
L 104.565104 183.34062 
L 104.164954 182.701694 
L 103.733535 182.062769 
L 103.276812 181.423843 
L 102.800975 180.784917 
L 102.31191 180.145992 
L 101.814705 179.507066 
L 101.31325 178.868141 
L 100.809964 178.229215 
L 100.30569 177.590289 
L 99.799756 176.951364 
L 99.290217 176.312438 
L 98.774246 175.673512 
L 98.248656 175.034587 
L 97.710484 174.395661 
L 97.157601 173.756735 
L 96.589285 173.11781 
L 96.006686 172.478884 
L 95.413147 171.839958 
L 94.81433 171.201033 
L 94.218126 170.562107 
L 93.634354 169.923181 
L 93.074259 169.284256 
L 92.549851 168.64533 
L 92.073167 168.006404 
L 91.6555 167.367479 
L 91.3067 166.728553 
L 91.034602 166.089627 
L 90.844639 165.450702 
L 90.739666 164.811776 
L 90.72 164.17285 
L 90.783632 163.533925 
L 90.926578 162.894999 
L 91.143298 162.256074 
L 91.427125 161.617148 
L 91.77066 160.978222 
L 92.1661 160.339297 
L 92.605507 159.700371 
L 93.081001 159.061445 
L 93.584927 158.42252 
L 94.109999 157.783594 
L 94.649439 157.144668 
L 95.197113 156.505743 
L 95.747657 155.866817 
L 96.296563 155.227891 
L 96.840209 154.588966 
L 97.375828 153.95004 
L 97.901391 153.311114 
L 98.415435 152.672189 
L 98.916862 152.033263 
L 99.404728 151.394337 
L 99.878082 150.755412 
L 100.335859 150.116486 
L 100.776861 149.47756 
L 101.199812 148.838635 
L 101.603476 148.199709 
L 101.986801 147.560783 
L 102.349059 146.921858 
L 102.689944 146.282932 
L 103.009609 145.644007 
L 103.308633 145.005081 
L 103.587924 144.366155 
L 103.84857 143.72723 
L 104.091689 143.088304 
L 104.31829 142.449378 
L 104.529182 141.810453 
L 104.724962 141.171527 
L 104.906068 140.532601 
L 105.072901 139.893676 
L 105.225999 139.25475 
L 105.366202 138.615824 
L 105.494807 137.976899 
L 105.613644 137.337973 
L 105.725066 136.699047 
L 105.831843 136.060122 
L 105.936954 135.421196 
L 106.043313 134.78227 
L 106.153472 134.143345 
L 106.269329 133.504419 
L 106.391903 132.865493 
L 106.521211 132.226568 
L 109.478789 132.226568 
L 109.478789 132.226568 
L 109.608097 132.865493 
L 109.730671 133.504419 
L 109.846528 134.143345 
L 109.956687 134.78227 
L 110.063046 135.421196 
L 110.168157 136.060122 
L 110.274934 136.699047 
L 110.386356 137.337973 
L 110.505193 137.976899 
L 110.633798 138.615824 
L 110.774001 139.25475 
L 110.927099 139.893676 
L 111.093932 140.532601 
L 111.275038 141.171527 
L 111.470818 141.810453 
L 111.68171 142.449378 
L 111.908311 143.088304 
L 112.15143 143.72723 
L 112.412076 144.366155 
L 112.691367 145.005081 
L 112.990391 145.644007 
L 113.310056 146.282932 
L 113.650941 146.921858 
L 114.013199 147.560783 
L 114.396524 148.199709 
L 114.800188 148.838635 
L 115.223139 149.47756 
L 115.664141 150.116486 
L 116.121918 150.755412 
L 116.595272 151.394337 
L 117.083138 152.033263 
L 117.584565 152.672189 
L 118.098609 153.311114 
L 118.624172 153.95004 
L 119.159791 154.588966 
L 119.703437 155.227891 
L 120.252343 155.866817 
L 120.802887 156.505743 
L 121.350561 157.144668 
L 121.890001 157.783594 
L 122.415073 158.42252 
L 122.918999 159.061445 
L 123.394493 159.700371 
L 123.8339 160.339297 
L 124.22934 160.978222 
L 124.572875 161.617148 
L 124.856702 162.256074 
L 125.073422 162.894999 
L 125.216368 163.533925 
L 125.28 164.17285 
L 125.260334 164.811776 
L 125.155361 165.450702 
L 124.965398 166.089627 
L 124.6933 166.728553 
L 124.3445 167.367479 
L 123.926833 168.006404 
L 123.450149 168.64533 
L 122.925741 169.284256 
L 122.365646 169.923181 
L 121.781874 170.562107 
L 121.18567 171.201033 
L 120.586853 171.839958 
L 119.993314 172.478884 
L 119.410715 173.11781 
L 118.842399 173.756735 
L 118.289516 174.395661 
L 117.751344 175.034587 
L 117.225754 175.673512 
L 116.709783 176.312438 
L 116.200244 176.951364 
L 115.69431 177.590289 
L 115.190036 178.229215 
L 114.68675 178.868141 
L 114.185295 179.507066 
L 113.68809 180.145992 
L 113.199025 180.784917 
L 112.723188 181.423843 
L 112.266465 182.062769 
L 111.835046 182.701694 
L 111.434896 183.34062 
L 111.071222 183.979546 
L 110.748018 184.618471 
L 110.467693 185.257397 
L 110.23085 185.896323 
L 110.036212 186.535248 
L 109.880706 187.174174 
L 109.759703 187.8131 
L 109.667371 188.452025 
L 109.597123 189.090951 
L 109.542102 189.729877 
L 109.495664 190.368802 
L 109.45181 191.007728 
L 109.405537 191.646654 
L 109.353074 192.285579 
L 109.292001 192.924505 
L 109.221241 193.563431 
L 109.140947 194.202356 
L 109.052306 194.841282 
L 108.957286 195.480208 
L 108.957286 195.480208 
z
" clip-path="url(#p17a3143bf8)" style="fill: none; stroke: #000000; stroke-opacity: 0.3"/>
   </g>
   <g id="matplotlib.axis_1"/>
   <g id="matplotlib.axis_2">
    <g id="ytick_1">
     <g id="line2d_1">
      <defs>
       <path id="m38cdf949fb" d="M 0 0 
L -3.5 0 
" style="stroke: #000000; stroke-width: 0.8"/>
      </defs>
      <g>
       <use xlink:href="#m38cdf949fb" x="21.6" y="291.6" style="stroke: #000000; stroke-width: 0.8"/>
      </g>
     </g>
    </g>
    <g id="ytick_2">
     <g id="line2d_2">
      <g>
       <use xlink:href="#m38cdf949fb" x="21.6" y="236.52" style="stroke: #000000; stroke-width: 0.8"/>
      </g>
     </g>
    </g>
    <g id="ytick_3">
     <g id="line2d_3">
      <g>
       <use xlink:href="#m38cdf949fb" x="21.6" y="181.44" style="stroke: #000000; stroke-width: 0.8"/>
      </g>
     </g>
    </g>
    <g id="ytick_4">
     <g id="line2d_4">
      <g>
       <use xlink:href="#m38cdf949fb" x="21.6" y="126.36" style="stroke: #000000; stroke-width: 0.8"/>
      </g>
     </g>
    </g>
    <g id="ytick_5">
     <g id="line2d_5">
      <g>
       <use xlink:href="#m38cdf949fb" x="21.6" y="71.28" style="stroke: #000000; stroke-width: 0.8"/>
      </g>
     </g>
    </g>
    <g id="ytick_6">
     <g id="line2d_6">
      <g>
       <use xlink:href="#m38cdf949fb" x="21.6" y="16.2" style="stroke: #000000; stroke-width: 0.8"/>
      </g>
     </g>
    </g>
   </g>
   <g id="line2d_7">
    <path d="M 50.4 269.568 
L 50.4 264.06 
" clip-path="url(#p17a3143bf8)" style="fill: none; stroke: #000000; stroke-linecap: square"/>
   </g>
   <g id="line2d_8">
    <path d="M 50.4 269.568 
L 108 269.568 
" clip-path="url(#p17a3143bf8)" style="fill: none; stroke: #000000; stroke-linecap: square"/>
   </g>
   <g id="line2d_9">
    <path d="M 108 269.568 
L 108 264.06 
" clip-path="url(#p17a3143bf8)" style="fill: none; stroke: #000000; stroke-linecap: square"/>
   </g>
   <g id="patch_3">
    <path d="M 21.6 291.6 
L 21.6 16.2 
" style="fill: none; stroke: #000000; stroke-width: 0.8; stroke-linejoin: miter; stroke-linecap: square"/>
   </g>
   <g id="patch_4">
    <path d="M 136.8 291.6 
L 136.8 16.2 
" style="fill: none; stroke: #000000; stroke-width: 0.8; stroke-linejoin: miter; stroke-linecap: square"/>
   </g>
   <g id="patch_5">
    <path d="M 21.6 291.6 
L 136.8 291.6 
" style="fill: none; stroke: #000000; stroke-width: 0.8; stroke-linejoin: miter; stroke-linecap: square"/>
   </g>
   <g id="patch_6">
    <path d="M 21.6 16.2 
L 136.8 16.2 
" style="fill: none; stroke: #000000; stroke-width: 0.8; stroke-linejoin: miter; stroke-linecap: square"/>
   </g>
   <g id="text_1">
    <text style="font-weight: 700; font-size: 12px; font-family: 'DejaVu Sans', 'Bitstream Vera Sans', 'Computer Modern Sans Serif', 'Lucida Grande', 'Verdana', 'Geneva', 'Lucid', 'Arial', 'Helvetica', 'Avant Garde', sans-serif; text-anchor: middle" x="50.4" y="289.104375" transform="rotate(-0 50.4 289.104375)">#37</text>
   </g>
   <g id="text_2">
    <text style="font-weight: 700; font-size: 12px; font-family: 'DejaVu Sans', 'Bitstream Vera Sans', 'Computer Modern Sans Serif', 'Lucida Grande', 'Verdana', 'Geneva', 'Lucid', 'Arial', 'Helvetica', 'Avant Garde', sans-serif; text-anchor: middle" x="108" y="289.104375" transform="rotate(-0 108 289.104375)">#38</text>
   </g>
   <g id="text_3">
    <text style="font-size: 12px; font-family: 'DejaVu Sans', 'Bitstream Vera Sans', 'Computer Modern Sans Serif', 'Lucida Grande', 'Verdana', 'Geneva', 'Lucid', 'Arial', 'Helvetica', 'Avant Garde', sans-serif; text-anchor: middle" x="79.2" y="268.449375" transform="rotate(-0 79.2 268.449375)">***</text>
   </g>
   <g id="line2d_10">
    <path d="M 21.6 145.550804 
L 136.8 145.550804 
" clip-path="url(#p17a3143bf8)" style="fill: none; stroke-dasharray: 3.7,1.6; stroke-dashoffset: 0; stroke: #808080; stroke-opacity: 0.7"/>
   </g>
   <g id="line2d_11">
    <path d="M 21.6 145.550804 
L 136.8 145.550804 
" clip-path="url(#p17a3143bf8)" style="fill: none; stroke-dasharray: 3.7,1.6; stroke-dashoffset: 0; stroke: #808080; stroke-opacity: 0.7"/>
   </g>
   <g id="line2d_12">
    <path d="M 21.6 162.132455 
L 136.8 162.132455 
" clip-path="url(#p17a3143bf8)" style="fill: none; stroke-dasharray: 3.7,1.6; stroke-dashoffset: 0; stroke: #808080; stroke-opacity: 0.7"/>
   </g>
   <g id="line2d_13">
    <path d="M 21.6 162.132455 
L 136.8 162.132455 
" clip-path="url(#p17a3143bf8)" style="fill: none; stroke-dasharray: 3.7,1.6; stroke-dashoffset: 0; stroke: #808080; stroke-opacity: 0.7"/>
   </g>
   <g id="LineCollection_1">
    <path d="M 50.4 145.730997 
L 50.4 145.370612 
" clip-path="url(#p17a3143bf8)" style="fill: none; stroke: #000000; stroke-width: 2"/>
   </g>
   <g id="line2d_14">
    <defs>
     <path id="m6a2d7d6b88" d="M 5 0 
L -5 -0 
" style="stroke: #000000; stroke-width: 2"/>
    </defs>
    <g clip-path="url(#p17a3143bf8)">
     <use xlink:href="#m6a2d7d6b88" x="50.4" y="145.730997" style="stroke: #000000; stroke-width: 2"/>
    </g>
   </g>
   <g id="line2d_15">
    <g clip-path="url(#p17a3143bf8)">
     <use xlink:href="#m6a2d7d6b88" x="50.4" y="145.370612" style="stroke: #000000; stroke-width: 2"/>
    </g>
   </g>
   <g id="LineCollection_2">
    <path d="M 108 163.819716 
L 108 160.445194 
" clip-path="url(#p17a3143bf8)" style="fill: none; stroke: #000000; stroke-width: 2"/>
   </g>
   <g id="line2d_16">
    <g clip-path="url(#p17a3143bf8)">
     <use xlink:href="#m6a2d7d6b88" x="108" y="163.819716" style="stroke: #000000; stroke-width: 2"/>
    </g>
   </g>
   <g id="line2d_17">
    <g clip-path="url(#p17a3143bf8)">
     <use xlink:href="#m6a2d7d6b88" x="108" y="160.445194" style="stroke: #000000; stroke-width: 2"/>
    </g>
   </g>
   <g id="line2d_18">
    <defs>
     <path id="mde97ab58df" d="M 0 4 
C 1.060812 4 2.078319 3.578535 2.828427 2.828427 
C 3.578535 2.078319 4 1.060812 4 0 
C 4 -1.060812 3.578535 -2.078319 2.828427 -2.828427 
C 2.078319 -3.578535 1.060812 -4 0 -4 
C -1.060812 -4 -2.078319 -3.578535 -2.828427 -2.828427 
C -3.578535 -2.078319 -4 -1.060812 -4 0 
C -4 1.060812 -3.578535 2.078319 -2.828427 2.828427 
C -2.078319 3.578535 -1.060812 4 0 4 
z
" style="stroke: #000000"/>
    </defs>
    <g clip-path="url(#p17a3143bf8)">
     <use xlink:href="#mde97ab58df" x="50.4" y="145.550804" style="stroke: #000000"/>
    </g>
   </g>
   <g id="line2d_19">
    <g clip-path="url(#p17a3143bf8)">
     <use xlink:href="#mde97ab58df" x="108" y="162.132455" style="stroke: #000000"/>
    </g>
   </g>
  </g>
 </g>
 <defs>
  <clipPath id="p17a3143bf8">
   <rect x="21.6" y="16.2" width="115.2" height="275.4"/>
  </clipPath>
 </defs>
</svg>
