<?xml version="1.0" encoding="utf-8" standalone="no"?>
<!DOCTYPE svg PUBLIC "-//W3C//DTD SVG 1.1//EN"
  "http://www.w3.org/Graphics/SVG/1.1/DTD/svg11.dtd">
<svg xmlns:xlink="http://www.w3.org/1999/xlink" width="144pt" height="324pt" viewBox="0 0 144 324" xmlns="http://www.w3.org/2000/svg" version="1.1">
 <metadata>
  <rdf:RDF xmlns:dc="http://purl.org/dc/elements/1.1/" xmlns:cc="http://creativecommons.org/ns#" xmlns:rdf="http://www.w3.org/1999/02/22-rdf-syntax-ns#">
   <cc:Work>
    <dc:type rdf:resource="http://purl.org/dc/dcmitype/StillImage"/>
    <dc:date>2025-12-11T09:10:04.250348</dc:date>
    <dc:format>image/svg+xml</dc:format>
    <dc:creator>
     <cc:Agent>
      <dc:title>Matplotlib v3.10.0, https://matplotlib.org/</dc:title>
     </cc:Agent>
    </dc:creator>
   </cc:Work>
  </rdf:RDF>
 </metadata>
 <defs>
  <style type="text/css">*{stroke-linejoin: round; stroke-linecap: butt}</style>
 </defs>
 <g id="figure_1">
  <g id="patch_1">
   <path d="M 0 324 
L 144 324 
L 144 0 
L 0 0 
z
" style="fill: #ffffff"/>
  </g>
  <g id="axes_1">
   <g id="patch_2">
    <path d="M 21.6 291.6 
L 136.8 291.6 
L 136.8 16.2 
L 21.6 16.2 
z
" style="fill: #ffffff"/>
   </g>
   <g id="FillBetweenPolyCollection_1">
    <path d="M 52.023946 257.678101 
L 48.776054 257.678101 
L 48.581478 256.931959 
L 48.368166 256.185816 
L 48.130901 255.439674 
L 47.863697 254.693531 
L 47.560316 253.947388 
L 47.214938 253.201246 
L 46.822889 252.455103 
L 46.381383 251.70896 
L 45.890152 250.962818 
L 45.351892 250.216675 
L 44.772447 249.470533 
L 44.160682 248.72439 
L 43.528025 247.978247 
L 42.887711 247.232105 
L 42.253776 246.485962 
L 41.639904 245.739819 
L 41.05824 244.993677 
L 40.518288 244.247534 
L 40.026041 243.501391 
L 39.583429 242.755249 
L 39.188174 242.009106 
L 38.834088 241.262964 
L 38.511782 240.516821 
L 38.209735 239.770678 
L 37.915599 239.024536 
L 37.6176 238.278393 
L 37.305872 237.53225 
L 36.973572 236.786108 
L 36.617647 236.039965 
L 36.23917 235.293823 
L 35.843218 234.54768 
L 35.438298 233.801537 
L 35.035435 233.055395 
L 34.646993 232.309252 
L 34.285418 231.563109 
L 33.962012 230.816967 
L 33.685904 230.070824 
L 33.46331 229.324681 
L 33.297155 228.578539 
L 33.187087 227.832396 
L 33.129857 227.086254 
L 33.12 226.340111 
L 33.150723 225.593968 
L 33.214889 224.847826 
L 33.305965 224.101683 
L 33.418837 223.35554 
L 33.550384 222.609398 
L 33.699773 221.863255 
L 33.868434 221.117113 
L 34.059747 220.37097 
L 34.278473 219.624827 
L 34.530022 218.878685 
L 34.819631 218.132542 
L 35.151555 217.386399 
L 35.528373 216.640257 
L 35.950461 215.894114 
L 36.415705 215.147971 
L 36.919476 214.401829 
L 37.454856 213.655686 
L 38.013093 212.909544 
L 38.584231 212.163401 
L 39.157839 211.417258 
L 39.723765 210.671116 
L 40.272847 209.924973 
L 40.797503 209.17883 
L 41.292158 208.432688 
L 41.753489 207.686545 
L 42.180469 206.940403 
L 42.574231 206.19426 
L 42.937777 205.448117 
L 43.275583 204.701975 
L 43.593124 203.955832 
L 43.896379 203.209689 
L 44.191348 202.463547 
L 44.483608 201.717404 
L 44.777944 200.971261 
L 45.078056 200.225119 
L 45.386365 199.478976 
L 45.703903 198.732834 
L 46.030305 197.986691 
L 46.363882 197.240548 
L 46.701769 196.494406 
L 47.040153 195.748263 
L 47.374538 195.00212 
L 47.700068 194.255978 
L 48.011855 193.509835 
L 48.305315 192.763693 
L 48.576478 192.01755 
L 48.822245 191.271407 
L 49.040585 190.525265 
L 49.230642 189.779122 
L 49.392747 189.032979 
L 49.528343 188.286837 
L 49.639818 187.540694 
L 49.730273 186.794551 
L 49.803246 186.048409 
L 49.862423 185.302266 
L 49.911362 184.556124 
L 49.953257 183.809981 
L 50.846743 183.809981 
L 50.846743 183.809981 
L 50.888638 184.556124 
L 50.937577 185.302266 
L 50.996754 186.048409 
L 51.069727 186.794551 
L 51.160182 187.540694 
L 51.271657 188.286837 
L 51.407253 189.032979 
L 51.569358 189.779122 
L 51.759415 190.525265 
L 51.977755 191.271407 
L 52.223522 192.01755 
L 52.494685 192.763693 
L 52.788145 193.509835 
L 53.099932 194.255978 
L 53.425462 195.00212 
L 53.759847 195.748263 
L 54.098231 196.494406 
L 54.436118 197.240548 
L 54.769695 197.986691 
L 55.096097 198.732834 
L 55.413635 199.478976 
L 55.721944 200.225119 
L 56.022056 200.971261 
L 56.316392 201.717404 
L 56.608652 202.463547 
L 56.903621 203.209689 
L 57.206876 203.955832 
L 57.524417 204.701975 
L 57.862223 205.448117 
L 58.225769 206.19426 
L 58.619531 206.940403 
L 59.046511 207.686545 
L 59.507842 208.432688 
L 60.002497 209.17883 
L 60.527153 209.924973 
L 61.076235 210.671116 
L 61.642161 211.417258 
L 62.215769 212.163401 
L 62.786907 212.909544 
L 63.345144 213.655686 
L 63.880524 214.401829 
L 64.384295 215.147971 
L 64.849539 215.894114 
L 65.271627 216.640257 
L 65.648445 217.386399 
L 65.980369 218.132542 
L 66.269978 218.878685 
L 66.521527 219.624827 
L 66.740253 220.37097 
L 66.931566 221.117113 
L 67.100227 221.863255 
L 67.249616 222.609398 
L 67.381163 223.35554 
L 67.494035 224.101683 
L 67.585111 224.847826 
L 67.649277 225.593968 
L 67.68 226.340111 
L 67.670143 227.086254 
L 67.612913 227.832396 
L 67.502845 228.578539 
L 67.33669 229.324681 
L 67.114096 230.070824 
L 66.837988 230.816967 
L 66.514582 231.563109 
L 66.153007 232.309252 
L 65.764565 233.055395 
L 65.361702 233.801537 
L 64.956782 234.54768 
L 64.56083 235.293823 
L 64.182353 236.039965 
L 63.826428 236.786108 
L 63.494128 237.53225 
L 63.1824 238.278393 
L 62.884401 239.024536 
L 62.590265 239.770678 
L 62.288218 240.516821 
L 61.965912 241.262964 
L 61.611826 242.009106 
L 61.216571 242.755249 
L 60.773959 243.501391 
L 60.281712 244.247534 
L 59.74176 244.993677 
L 59.160096 245.739819 
L 58.546224 246.485962 
L 57.912289 247.232105 
L 57.271975 247.978247 
L 56.639318 248.72439 
L 56.027553 249.470533 
L 55.448108 250.216675 
L 54.909848 250.962818 
L 54.418617 251.70896 
L 53.977111 252.455103 
L 53.585062 253.201246 
L 53.239684 253.947388 
L 52.936303 254.693531 
L 52.669099 255.439674 
L 52.431834 256.185816 
L 52.218522 256.931959 
L 52.023946 257.678101 
L 52.023946 257.678101 
z
" clip-path="url(#pf1efe0f5aa)" style="fill: none; stroke: #000000; stroke-opacity: 0.3"/>
   </g>
   <g id="FillBetweenPolyCollection_2">
    <path d="M 50.725098 304.829498 
L 50.074902 304.829498 
L 50.083106 303.624657 
L 50.106496 302.419815 
L 50.141706 301.214973 
L 50.184019 300.010132 
L 50.228401 298.80529 
L 50.270456 297.600448 
L 50.307078 296.395607 
L 50.336669 295.190765 
L 50.358987 293.985923 
L 50.374764 292.781082 
L 50.385246 291.57624 
L 50.391804 290.371398 
L 50.395674 289.166557 
L 50.39783 287.961715 
L 50.398966 286.756873 
L 50.399532 285.552032 
L 50.399799 284.34719 
L 50.399918 283.142348 
L 50.399968 281.937507 
L 50.399988 280.732665 
L 50.399996 279.527823 
L 50.399998 278.322982 
L 50.399998 277.11814 
L 50.399995 275.913298 
L 50.399986 274.708457 
L 50.399961 273.503615 
L 50.399898 272.298773 
L 50.399744 271.093932 
L 50.399388 269.88909 
L 50.398602 268.684248 
L 50.396952 267.479407 
L 50.393652 266.274565 
L 50.387359 265.069723 
L 50.375911 263.864882 
L 50.356032 262.66004 
L 50.323048 261.455198 
L 50.270711 260.250357 
L 50.191212 259.045515 
L 50.075462 257.840673 
L 49.913702 256.635832 
L 49.696368 255.43099 
L 49.41509 254.226148 
L 49.063595 253.021307 
L 48.63828 251.816465 
L 48.138247 250.611623 
L 47.564759 249.406782 
L 46.920257 248.20194 
L 46.207281 246.997098 
L 45.427747 245.792257 
L 44.583025 244.587415 
L 43.675054 243.382573 
L 42.708394 242.177731 
L 41.692687 240.97289 
L 40.644685 239.768048 
L 39.588874 238.563206 
L 38.555961 237.358365 
L 37.57911 236.153523 
L 36.688597 234.948681 
L 35.906342 233.74384 
L 35.242077 232.538998 
L 34.692631 231.334156 
L 34.24485 230.129315 
L 33.881436 228.924473 
L 33.587863 227.719631 
L 33.358111 226.51479 
L 33.197252 225.309948 
L 33.12 224.105106 
L 33.14566 222.900265 
L 33.2911 221.695423 
L 33.564024 220.490581 
L 33.958771 219.28574 
L 34.456154 218.080898 
L 35.027594 216.876056 
L 35.642447 215.671215 
L 36.276305 214.466373 
L 36.917601 213.261531 
L 37.57028 212.05669 
L 38.251513 210.851848 
L 38.985087 209.647006 
L 39.792487 208.442165 
L 40.684484 207.237323 
L 41.655736 206.032481 
L 42.683888 204.82764 
L 43.733099 203.622798 
L 44.760649 202.417956 
L 45.724476 201.213115 
L 46.589608 200.008273 
L 47.332156 198.803431 
L 47.940557 197.59859 
L 48.414619 196.393748 
L 48.763376 195.188906 
L 49.002685 193.984065 
L 49.15307 192.779223 
L 49.237873 191.574381 
L 49.281429 190.36954 
L 49.307038 189.164698 
L 49.334733 187.959856 
L 49.379202 186.755015 
L 49.448361 185.550173 
L 51.351639 185.550173 
L 51.351639 185.550173 
L 51.420798 186.755015 
L 51.465267 187.959856 
L 51.492962 189.164698 
L 51.518571 190.36954 
L 51.562127 191.574381 
L 51.64693 192.779223 
L 51.797315 193.984065 
L 52.036624 195.188906 
L 52.385381 196.393748 
L 52.859443 197.59859 
L 53.467844 198.803431 
L 54.210392 200.008273 
L 55.075524 201.213115 
L 56.039351 202.417956 
L 57.066901 203.622798 
L 58.116112 204.82764 
L 59.144264 206.032481 
L 60.115516 207.237323 
L 61.007513 208.442165 
L 61.814913 209.647006 
L 62.548487 210.851848 
L 63.22972 212.05669 
L 63.882399 213.261531 
L 64.523695 214.466373 
L 65.157553 215.671215 
L 65.772406 216.876056 
L 66.343846 218.080898 
L 66.841229 219.28574 
L 67.235976 220.490581 
L 67.5089 221.695423 
L 67.65434 222.900265 
L 67.68 224.105106 
L 67.602748 225.309948 
L 67.441889 226.51479 
L 67.212137 227.719631 
L 66.918564 228.924473 
L 66.55515 230.129315 
L 66.107369 231.334156 
L 65.557923 232.538998 
L 64.893658 233.74384 
L 64.111403 234.948681 
L 63.22089 236.153523 
L 62.244039 237.358365 
L 61.211126 238.563206 
L 60.155315 239.768048 
L 59.107313 240.97289 
L 58.091606 242.177731 
L 57.124946 243.382573 
L 56.216975 244.587415 
L 55.372253 245.792257 
L 54.592719 246.997098 
L 53.879743 248.20194 
L 53.235241 249.406782 
L 52.661753 250.611623 
L 52.16172 251.816465 
L 51.736405 253.021307 
L 51.38491 254.226148 
L 51.103632 255.43099 
L 50.886298 256.635832 
L 50.724538 257.840673 
L 50.608788 259.045515 
L 50.529289 260.250357 
L 50.476952 261.455198 
L 50.443968 262.66004 
L 50.424089 263.864882 
L 50.412641 265.069723 
L 50.406348 266.274565 
L 50.403048 267.479407 
L 50.401398 268.684248 
L 50.400612 269.88909 
L 50.400256 271.093932 
L 50.400102 272.298773 
L 50.400039 273.503615 
L 50.400014 274.708457 
L 50.400005 275.913298 
L 50.400002 277.11814 
L 50.400002 278.322982 
L 50.400004 279.527823 
L 50.400012 280.732665 
L 50.400032 281.937507 
L 50.400082 283.142348 
L 50.400201 284.34719 
L 50.400468 285.552032 
L 50.401034 286.756873 
L 50.40217 287.961715 
L 50.404326 289.166557 
L 50.408196 290.371398 
L 50.414754 291.57624 
L 50.425236 292.781082 
L 50.441013 293.985923 
L 50.463331 295.190765 
L 50.492922 296.395607 
L 50.529544 297.600448 
L 50.571599 298.80529 
L 50.615981 300.010132 
L 50.658294 301.214973 
L 50.693504 302.419815 
L 50.716894 303.624657 
L 50.725098 304.829498 
L 50.725098 304.829498 
z
" clip-path="url(#pf1efe0f5aa)" style="fill: none; stroke: #000000; stroke-opacity: 0.3"/>
   </g>
   <g id="FillBetweenPolyCollection_3">
    <path d="M 50.729418 296.946931 
L 50.070582 296.946931 
L 50.076717 295.918808 
L 50.094446 294.890685 
L 50.121861 293.862562 
L 50.156159 292.834439 
L 50.194116 291.806316 
L 50.23258 290.778193 
L 50.268882 289.750071 
L 50.301102 288.721948 
L 50.328156 287.693825 
L 50.349733 286.665702 
L 50.366121 285.637579 
L 50.377994 284.609456 
L 50.386201 283.581334 
L 50.391593 282.553211 
L 50.394914 281.525088 
L 50.39673 280.496965 
L 50.397399 279.468842 
L 50.397067 278.440719 
L 50.395661 277.412596 
L 50.39289 276.384474 
L 50.388255 275.356351 
L 50.381062 274.328228 
L 50.370475 273.300105 
L 50.355609 272.271982 
L 50.335671 271.243859 
L 50.310142 270.215736 
L 50.278963 269.187614 
L 50.24268 268.159491 
L 50.202471 267.131368 
L 50.159996 266.103245 
L 50.117042 265.075122 
L 50.074959 264.046999 
L 50.033955 263.018876 
L 49.992384 261.990754 
L 49.946167 260.962631 
L 49.888493 259.934508 
L 49.809925 258.906385 
L 49.698922 257.878262 
L 49.542753 256.850139 
L 49.328643 255.822016 
L 49.044994 254.793894 
L 48.68247 253.765771 
L 48.234801 252.737648 
L 47.699226 251.709525 
L 47.07661 250.681402 
L 46.371343 249.653279 
L 45.591197 248.625156 
L 44.747252 247.597034 
L 43.85394 246.568911 
L 42.929092 245.540788 
L 41.993721 244.512665 
L 41.071281 243.484542 
L 40.186154 242.456419 
L 39.361388 241.428296 
L 38.615947 240.400174 
L 37.962009 239.372051 
L 37.402965 238.343928 
L 36.932707 237.315805 
L 36.536553 236.287682 
L 36.193773 235.259559 
L 35.881304 234.231436 
L 35.577957 233.203314 
L 35.268265 232.175191 
L 34.94519 231.147068 
L 34.611117 230.118945 
L 34.276891 229.090822 
L 33.959086 228.062699 
L 33.676101 227.034577 
L 33.443995 226.006454 
L 33.273121 224.978331 
L 33.166437 223.950208 
L 33.12 222.922085 
L 33.125488 221.893962 
L 33.173974 220.865839 
L 33.25976 219.837717 
L 33.383 218.809594 
L 33.55024 217.781471 
L 33.772671 216.753348 
L 34.062682 215.725225 
L 34.429847 214.697102 
L 34.877681 213.668979 
L 35.402184 212.640857 
L 35.992574 211.612734 
L 36.63387 210.584611 
L 37.31038 209.556488 
L 38.008951 208.528365 
L 38.720995 207.500242 
L 39.442798 206.472119 
L 40.174256 205.443997 
L 40.916646 204.415874 
L 41.670278 203.387751 
L 42.432797 202.359628 
L 43.198548 201.331505 
L 43.959018 200.303382 
L 44.704009 199.275259 
L 45.423039 198.247137 
L 46.106533 197.219014 
L 46.746525 196.190891 
L 47.336875 195.162768 
L 53.463125 195.162768 
L 53.463125 195.162768 
L 54.053475 196.190891 
L 54.693467 197.219014 
L 55.376961 198.247137 
L 56.095991 199.275259 
L 56.840982 200.303382 
L 57.601452 201.331505 
L 58.367203 202.359628 
L 59.129722 203.387751 
L 59.883354 204.415874 
L 60.625744 205.443997 
L 61.357202 206.472119 
L 62.079005 207.500242 
L 62.791049 208.528365 
L 63.48962 209.556488 
L 64.16613 210.584611 
L 64.807426 211.612734 
L 65.397816 212.640857 
L 65.922319 213.668979 
L 66.370153 214.697102 
L 66.737318 215.725225 
L 67.027329 216.753348 
L 67.24976 217.781471 
L 67.417 218.809594 
L 67.54024 219.837717 
L 67.626026 220.865839 
L 67.674512 221.893962 
L 67.68 222.922085 
L 67.633563 223.950208 
L 67.526879 224.978331 
L 67.356005 226.006454 
L 67.123899 227.034577 
L 66.840914 228.062699 
L 66.523109 229.090822 
L 66.188883 230.118945 
L 65.85481 231.147068 
L 65.531735 232.175191 
L 65.222043 233.203314 
L 64.918696 234.231436 
L 64.606227 235.259559 
L 64.263447 236.287682 
L 63.867293 237.315805 
L 63.397035 238.343928 
L 62.837991 239.372051 
L 62.184053 240.400174 
L 61.438612 241.428296 
L 60.613846 242.456419 
L 59.728719 243.484542 
L 58.806279 244.512665 
L 57.870908 245.540788 
L 56.94606 246.568911 
L 56.052748 247.597034 
L 55.208803 248.625156 
L 54.428657 249.653279 
L 53.72339 250.681402 
L 53.100774 251.709525 
L 52.565199 252.737648 
L 52.11753 253.765771 
L 51.755006 254.793894 
L 51.471357 255.822016 
L 51.257247 256.850139 
L 51.101078 257.878262 
L 50.990075 258.906385 
L 50.911507 259.934508 
L 50.853833 260.962631 
L 50.807616 261.990754 
L 50.766045 263.018876 
L 50.725041 264.046999 
L 50.682958 265.075122 
L 50.640004 266.103245 
L 50.597529 267.131368 
L 50.55732 268.159491 
L 50.521037 269.187614 
L 50.489858 270.215736 
L 50.464329 271.243859 
L 50.444391 272.271982 
L 50.429525 273.300105 
L 50.418938 274.328228 
L 50.411745 275.356351 
L 50.40711 276.384474 
L 50.404339 277.412596 
L 50.402933 278.440719 
L 50.402601 279.468842 
L 50.40327 280.496965 
L 50.405086 281.525088 
L 50.408407 282.553211 
L 50.413799 283.581334 
L 50.422006 284.609456 
L 50.433879 285.637579 
L 50.450267 286.665702 
L 50.471844 287.693825 
L 50.498898 288.721948 
L 50.531118 289.750071 
L 50.56742 290.778193 
L 50.605884 291.806316 
L 50.643841 292.834439 
L 50.678139 293.862562 
L 50.705554 294.890685 
L 50.723283 295.918808 
L 50.729418 296.946931 
L 50.729418 296.946931 
z
" clip-path="url(#pf1efe0f5aa)" style="fill: none; stroke: #000000; stroke-opacity: 0.3"/>
   </g>
   <g id="FillBetweenPolyCollection_4">
    <path d="M 51.337311 314.796156 
L 49.462689 314.796156 
L 49.46576 313.59531 
L 49.477387 312.394463 
L 49.497019 311.193617 
L 49.523827 309.99277 
L 49.556731 308.791923 
L 49.594437 307.591077 
L 49.635482 306.39023 
L 49.678286 305.189384 
L 49.721204 303.988537 
L 49.762578 302.787691 
L 49.80079 301.586844 
L 49.834306 300.385997 
L 49.861718 299.185151 
L 49.88178 297.984304 
L 49.89344 296.783458 
L 49.895854 295.582611 
L 49.888413 294.381764 
L 49.870745 293.180918 
L 49.842728 291.980071 
L 49.804485 290.779225 
L 49.75638 289.578378 
L 49.699014 288.377531 
L 49.633202 287.176685 
L 49.559954 285.975838 
L 49.48045 284.774992 
L 49.396 283.574145 
L 49.308007 282.373298 
L 49.217913 281.172452 
L 49.127149 279.971605 
L 49.03707 278.770759 
L 48.948895 277.569912 
L 48.863638 276.369066 
L 48.782046 275.168219 
L 48.704536 273.967372 
L 48.631141 272.766526 
L 48.561462 271.565679 
L 48.494638 270.364833 
L 48.429323 269.163986 
L 48.363692 267.963139 
L 48.295449 266.762293 
L 48.221874 265.561446 
L 48.139877 264.3606 
L 48.046078 263.159753 
L 47.9369 261.958906 
L 47.808686 260.75806 
L 47.657815 259.557213 
L 47.480834 258.356367 
L 47.274589 257.15552 
L 47.036345 255.954673 
L 46.763908 254.753827 
L 46.455716 253.55298 
L 46.110918 252.352134 
L 45.729424 251.151287 
L 45.311928 249.950441 
L 44.859894 248.749594 
L 44.375527 247.548747 
L 43.861698 246.347901 
L 43.321862 245.147054 
L 42.759945 243.946208 
L 42.180226 242.745361 
L 41.587213 241.544514 
L 40.985517 240.343668 
L 40.379742 239.142821 
L 39.774387 237.941975 
L 39.173773 236.741128 
L 38.581992 235.540281 
L 38.002886 234.339435 
L 37.440053 233.138588 
L 36.896882 231.937742 
L 36.376602 230.736895 
L 35.88235 229.536048 
L 35.417251 228.335202 
L 34.98449 227.134355 
L 34.587379 225.933509 
L 34.229404 224.732662 
L 33.914253 223.531816 
L 33.645805 222.330969 
L 33.428089 221.130122 
L 33.265207 219.929276 
L 33.161219 218.728429 
L 33.12 217.527583 
L 33.145074 216.326736 
L 33.239428 215.125889 
L 33.405328 213.925043 
L 33.644133 212.724196 
L 33.95614 211.52335 
L 34.340448 210.322503 
L 34.794872 209.121656 
L 35.3159 207.92081 
L 35.898704 206.719963 
L 36.537212 205.519117 
L 37.224226 204.31827 
L 37.951603 203.117423 
L 38.710459 201.916577 
L 39.491422 200.71573 
L 40.284897 199.514884 
L 41.081331 198.314037 
L 41.871487 197.113191 
L 42.646677 195.912344 
L 58.153323 195.912344 
L 58.153323 195.912344 
L 58.928513 197.113191 
L 59.718669 198.314037 
L 60.515103 199.514884 
L 61.308578 200.71573 
L 62.089541 201.916577 
L 62.848397 203.117423 
L 63.575774 204.31827 
L 64.262788 205.519117 
L 64.901296 206.719963 
L 65.4841 207.92081 
L 66.005128 209.121656 
L 66.459552 210.322503 
L 66.84386 211.52335 
L 67.155867 212.724196 
L 67.394672 213.925043 
L 67.560572 215.125889 
L 67.654926 216.326736 
L 67.68 217.527583 
L 67.638781 218.728429 
L 67.534793 219.929276 
L 67.371911 221.130122 
L 67.154195 222.330969 
L 66.885747 223.531816 
L 66.570596 224.732662 
L 66.212621 225.933509 
L 65.81551 227.134355 
L 65.382749 228.335202 
L 64.91765 229.536048 
L 64.423398 230.736895 
L 63.903118 231.937742 
L 63.359947 233.138588 
L 62.797114 234.339435 
L 62.218008 235.540281 
L 61.626227 236.741128 
L 61.025613 237.941975 
L 60.420258 239.142821 
L 59.814483 240.343668 
L 59.212787 241.544514 
L 58.619774 242.745361 
L 58.040055 243.946208 
L 57.478138 245.147054 
L 56.938302 246.347901 
L 56.424473 247.548747 
L 55.940106 248.749594 
L 55.488072 249.950441 
L 55.070576 251.151287 
L 54.689082 252.352134 
L 54.344284 253.55298 
L 54.036092 254.753827 
L 53.763655 255.954673 
L 53.525411 257.15552 
L 53.319166 258.356367 
L 53.142185 259.557213 
L 52.991314 260.75806 
L 52.8631 261.958906 
L 52.753922 263.159753 
L 52.660123 264.3606 
L 52.578126 265.561446 
L 52.504551 266.762293 
L 52.436308 267.963139 
L 52.370677 269.163986 
L 52.305362 270.364833 
L 52.238538 271.565679 
L 52.168859 272.766526 
L 52.095464 273.967372 
L 52.017954 275.168219 
L 51.936362 276.369066 
L 51.851105 277.569912 
L 51.76293 278.770759 
L 51.672851 279.971605 
L 51.582087 281.172452 
L 51.491993 282.373298 
L 51.404 283.574145 
L 51.31955 284.774992 
L 51.240046 285.975838 
L 51.166798 287.176685 
L 51.100986 288.377531 
L 51.04362 289.578378 
L 50.995515 290.779225 
L 50.957272 291.980071 
L 50.929255 293.180918 
L 50.911587 294.381764 
L 50.904146 295.582611 
L 50.90656 296.783458 
L 50.91822 297.984304 
L 50.938282 299.185151 
L 50.965694 300.385997 
L 50.99921 301.586844 
L 51.037422 302.787691 
L 51.078796 303.988537 
L 51.121714 305.189384 
L 51.164518 306.39023 
L 51.205563 307.591077 
L 51.243269 308.791923 
L 51.276173 309.99277 
L 51.302981 311.193617 
L 51.322613 312.394463 
L 51.33424 313.59531 
L 51.337311 314.796156 
L 51.337311 314.796156 
z
" clip-path="url(#pf1efe0f5aa)" style="fill: none; stroke: #000000; stroke-opacity: 0.3"/>
   </g>
   <g id="FillBetweenPolyCollection_5">
    <path d="M 62.99302 235.349399 
L 37.80698 235.349399 
L 37.259504 234.924463 
L 36.738961 234.499527 
L 36.248799 234.074591 
L 35.79196 233.649655 
L 35.370823 233.224719 
L 34.987153 232.799783 
L 34.642077 232.374847 
L 34.336065 231.949911 
L 34.068942 231.524975 
L 33.839903 231.100039 
L 33.647561 230.675103 
L 33.489995 230.250167 
L 33.364825 229.825231 
L 33.26929 229.400295 
L 33.200336 228.975359 
L 33.154708 228.550423 
L 33.129051 228.125487 
L 33.12 227.700551 
L 33.124275 227.275615 
L 33.13876 226.850679 
L 33.160584 226.425743 
L 33.187179 226.000807 
L 33.216333 225.575871 
L 33.24623 225.150935 
L 33.275467 224.725999 
L 33.30307 224.301063 
L 33.328487 223.876127 
L 33.35157 223.451191 
L 33.372553 223.026255 
L 33.392014 222.601319 
L 33.41083 222.176383 
L 33.430137 221.751447 
L 33.45127 221.326511 
L 33.475719 220.901575 
L 33.505075 220.476639 
L 33.540982 220.051703 
L 33.58509 219.626767 
L 33.639015 219.201831 
L 33.704302 218.776895 
L 33.782393 218.351959 
L 33.874603 217.927023 
L 33.982091 217.502087 
L 34.10585 217.077151 
L 34.246689 216.652215 
L 34.405225 216.227279 
L 34.581871 215.802343 
L 34.776836 215.377407 
L 34.990118 214.952471 
L 35.221504 214.527535 
L 35.470568 214.102599 
L 35.736674 213.677663 
L 36.018979 213.252727 
L 36.316438 212.827791 
L 36.627809 212.402855 
L 36.951668 211.977919 
L 37.286416 211.552983 
L 37.630301 211.128048 
L 37.981431 210.703112 
L 38.337801 210.278176 
L 38.697321 209.85324 
L 39.057837 209.428304 
L 39.417169 209.003368 
L 39.773144 208.578432 
L 40.123627 208.153496 
L 40.466558 207.72856 
L 40.799987 207.303624 
L 41.122108 206.878688 
L 41.431288 206.453752 
L 41.726098 206.028816 
L 42.005337 205.60388 
L 42.268053 205.178944 
L 42.513556 204.754008 
L 42.741434 204.329072 
L 42.951555 203.904136 
L 43.144069 203.4792 
L 43.3194 203.054264 
L 43.47824 202.629328 
L 43.62153 202.204392 
L 43.750439 201.779456 
L 43.866345 201.35452 
L 43.970802 200.929584 
L 44.06551 200.504648 
L 44.152285 200.079712 
L 44.233017 199.654776 
L 44.309639 199.22984 
L 44.384087 198.804904 
L 44.458262 198.379968 
L 44.533995 197.955032 
L 44.613012 197.530096 
L 44.6969 197.10516 
L 44.78708 196.680224 
L 44.88478 196.255288 
L 44.991012 195.830352 
L 45.106557 195.405416 
L 45.231953 194.98048 
L 45.367489 194.555544 
L 45.513202 194.130608 
L 45.668887 193.705672 
L 45.834103 193.280736 
L 54.965897 193.280736 
L 54.965897 193.280736 
L 55.131113 193.705672 
L 55.286798 194.130608 
L 55.432511 194.555544 
L 55.568047 194.98048 
L 55.693443 195.405416 
L 55.808988 195.830352 
L 55.91522 196.255288 
L 56.01292 196.680224 
L 56.1031 197.10516 
L 56.186988 197.530096 
L 56.266005 197.955032 
L 56.341738 198.379968 
L 56.415913 198.804904 
L 56.490361 199.22984 
L 56.566983 199.654776 
L 56.647715 200.079712 
L 56.73449 200.504648 
L 56.829198 200.929584 
L 56.933655 201.35452 
L 57.049561 201.779456 
L 57.17847 202.204392 
L 57.32176 202.629328 
L 57.4806 203.054264 
L 57.655931 203.4792 
L 57.848445 203.904136 
L 58.058566 204.329072 
L 58.286444 204.754008 
L 58.531947 205.178944 
L 58.794663 205.60388 
L 59.073902 206.028816 
L 59.368712 206.453752 
L 59.677892 206.878688 
L 60.000013 207.303624 
L 60.333442 207.72856 
L 60.676373 208.153496 
L 61.026856 208.578432 
L 61.382831 209.003368 
L 61.742163 209.428304 
L 62.102679 209.85324 
L 62.462199 210.278176 
L 62.818569 210.703112 
L 63.169699 211.128048 
L 63.513584 211.552983 
L 63.848332 211.977919 
L 64.172191 212.402855 
L 64.483562 212.827791 
L 64.781021 213.252727 
L 65.063326 213.677663 
L 65.329432 214.102599 
L 65.578496 214.527535 
L 65.809882 214.952471 
L 66.023164 215.377407 
L 66.218129 215.802343 
L 66.394775 216.227279 
L 66.553311 216.652215 
L 66.69415 217.077151 
L 66.817909 217.502087 
L 66.925397 217.927023 
L 67.017607 218.351959 
L 67.095698 218.776895 
L 67.160985 219.201831 
L 67.21491 219.626767 
L 67.259018 220.051703 
L 67.294925 220.476639 
L 67.324281 220.901575 
L 67.34873 221.326511 
L 67.369863 221.751447 
L 67.38917 222.176383 
L 67.407986 222.601319 
L 67.427447 223.026255 
L 67.44843 223.451191 
L 67.471513 223.876127 
L 67.49693 224.301063 
L 67.524533 224.725999 
L 67.55377 225.150935 
L 67.583667 225.575871 
L 67.612821 226.000807 
L 67.639416 226.425743 
L 67.66124 226.850679 
L 67.675725 227.275615 
L 67.68 227.700551 
L 67.670949 228.125487 
L 67.645292 228.550423 
L 67.599664 228.975359 
L 67.53071 229.400295 
L 67.435175 229.825231 
L 67.310005 230.250167 
L 67.152439 230.675103 
L 66.960097 231.100039 
L 66.731058 231.524975 
L 66.463935 231.949911 
L 66.157923 232.374847 
L 65.812847 232.799783 
L 65.429177 233.224719 
L 65.00804 233.649655 
L 64.551201 234.074591 
L 64.061039 234.499527 
L 63.540496 234.924463 
L 62.99302 235.349399 
L 62.99302 235.349399 
z
" clip-path="url(#pf1efe0f5aa)" style="fill: none; stroke: #000000; stroke-opacity: 0.3"/>
   </g>
   <g id="FillBetweenPolyCollection_6">
    <path d="M 54.489659 241.342844 
L 46.310341 241.342844 
L 45.943944 240.845845 
L 45.559103 240.348846 
L 45.156592 239.851847 
L 44.737419 239.354848 
L 44.302827 238.857849 
L 43.85428 238.36085 
L 43.393452 237.863851 
L 42.922197 237.366852 
L 42.44252 236.869854 
L 41.956541 236.372855 
L 41.466449 235.875856 
L 40.974467 235.378857 
L 40.482801 234.881858 
L 39.993603 234.384859 
L 39.508937 233.88786 
L 39.030749 233.390861 
L 38.560848 232.893862 
L 38.100897 232.396863 
L 37.652417 231.899864 
L 37.216798 231.402866 
L 36.795327 230.905867 
L 36.389218 230.408868 
L 35.99965 229.911869 
L 35.627816 229.41487 
L 35.274959 228.917871 
L 34.942416 228.420872 
L 34.631648 227.923873 
L 34.344265 227.426874 
L 34.08203 226.929875 
L 33.846856 226.432877 
L 33.640776 225.935878 
L 33.465906 225.438879 
L 33.324384 224.94188 
L 33.218297 224.444881 
L 33.149594 223.947882 
L 33.12 223.450883 
L 33.130915 222.953884 
L 33.183326 222.456885 
L 33.277722 221.959886 
L 33.414024 221.462887 
L 33.591532 220.965889 
L 33.808892 220.46889 
L 34.064095 219.971891 
L 34.354489 219.474892 
L 34.676831 218.977893 
L 35.027355 218.480894 
L 35.401866 217.983895 
L 35.795851 217.486896 
L 36.2046 216.989897 
L 36.623347 216.492898 
L 37.047395 215.995899 
L 37.472251 215.498901 
L 37.893746 215.001902 
L 38.308138 214.504903 
L 38.712196 214.007904 
L 39.103264 213.510905 
L 39.479299 213.013906 
L 39.838876 212.516907 
L 40.181185 212.019908 
L 40.505983 211.522909 
L 40.813547 211.02591 
L 41.104594 210.528912 
L 41.380198 210.031913 
L 41.6417 209.534914 
L 41.890608 209.037915 
L 42.128509 208.540916 
L 42.356979 208.043917 
L 42.577509 207.546918 
L 42.791443 207.049919 
L 42.999925 206.55292 
L 43.203869 206.055921 
L 43.403948 205.558922 
L 43.600584 205.061924 
L 43.79397 204.564925 
L 43.984094 204.067926 
L 44.170774 203.570927 
L 44.353704 203.073928 
L 44.5325 202.576929 
L 44.706749 202.07993 
L 44.876059 201.582931 
L 45.040102 201.085932 
L 45.198648 200.588933 
L 45.3516 200.091935 
L 45.499014 199.594936 
L 45.641108 199.097937 
L 45.778261 198.600938 
L 45.91101 198.103939 
L 46.040029 197.60694 
L 46.166104 197.109941 
L 46.2901 196.612942 
L 46.412928 196.115943 
L 46.535502 195.618944 
L 46.658704 195.121945 
L 46.783342 194.624947 
L 46.910117 194.127948 
L 47.039591 193.630949 
L 47.172165 193.13395 
L 47.308058 192.636951 
L 47.4473 192.139952 
L 53.3527 192.139952 
L 53.3527 192.139952 
L 53.491942 192.636951 
L 53.627835 193.13395 
L 53.760409 193.630949 
L 53.889883 194.127948 
L 54.016658 194.624947 
L 54.141296 195.121945 
L 54.264498 195.618944 
L 54.387072 196.115943 
L 54.5099 196.612942 
L 54.633896 197.109941 
L 54.759971 197.60694 
L 54.88899 198.103939 
L 55.021739 198.600938 
L 55.158892 199.097937 
L 55.300986 199.594936 
L 55.4484 200.091935 
L 55.601352 200.588933 
L 55.759898 201.085932 
L 55.923941 201.582931 
L 56.093251 202.07993 
L 56.2675 202.576929 
L 56.446296 203.073928 
L 56.629226 203.570927 
L 56.815906 204.067926 
L 57.00603 204.564925 
L 57.199416 205.061924 
L 57.396052 205.558922 
L 57.596131 206.055921 
L 57.800075 206.55292 
L 58.008557 207.049919 
L 58.222491 207.546918 
L 58.443021 208.043917 
L 58.671491 208.540916 
L 58.909392 209.037915 
L 59.1583 209.534914 
L 59.419802 210.031913 
L 59.695406 210.528912 
L 59.986453 211.02591 
L 60.294017 211.522909 
L 60.618815 212.019908 
L 60.961124 212.516907 
L 61.320701 213.013906 
L 61.696736 213.510905 
L 62.087804 214.007904 
L 62.491862 214.504903 
L 62.906254 215.001902 
L 63.327749 215.498901 
L 63.752605 215.995899 
L 64.176653 216.492898 
L 64.5954 216.989897 
L 65.004149 217.486896 
L 65.398134 217.983895 
L 65.772645 218.480894 
L 66.123169 218.977893 
L 66.445511 219.474892 
L 66.735905 219.971891 
L 66.991108 220.46889 
L 67.208468 220.965889 
L 67.385976 221.462887 
L 67.522278 221.959886 
L 67.616674 222.456885 
L 67.669085 222.953884 
L 67.68 223.450883 
L 67.650406 223.947882 
L 67.581703 224.444881 
L 67.475616 224.94188 
L 67.334094 225.438879 
L 67.159224 225.935878 
L 66.953144 226.432877 
L 66.71797 226.929875 
L 66.455735 227.426874 
L 66.168352 227.923873 
L 65.857584 228.420872 
L 65.525041 228.917871 
L 65.172184 229.41487 
L 64.80035 229.911869 
L 64.410782 230.408868 
L 64.004673 230.905867 
L 63.583202 231.402866 
L 63.147583 231.899864 
L 62.699103 232.396863 
L 62.239152 232.893862 
L 61.769251 233.390861 
L 61.291063 233.88786 
L 60.806397 234.384859 
L 60.317199 234.881858 
L 59.825533 235.378857 
L 59.333551 235.875856 
L 58.843459 236.372855 
L 58.35748 236.869854 
L 57.877803 237.366852 
L 57.406548 237.863851 
L 56.94572 238.36085 
L 56.497173 238.857849 
L 56.062581 239.354848 
L 55.643408 239.851847 
L 55.240897 240.348846 
L 54.856056 240.845845 
L 54.489659 241.342844 
L 54.489659 241.342844 
z
" clip-path="url(#pf1efe0f5aa)" style="fill: none; stroke: #000000; stroke-opacity: 0.3"/>
   </g>
   <g id="FillBetweenPolyCollection_7">
    <path d="M 108.347685 268.736065 
L 107.652315 268.736065 
L 107.650751 267.90789 
L 107.654726 267.079715 
L 107.662035 266.25154 
L 107.669661 265.423365 
L 107.673974 264.595191 
L 107.670985 263.767016 
L 107.656629 262.938841 
L 107.627032 262.110666 
L 107.578737 261.282491 
L 107.508851 260.454316 
L 107.415109 259.626142 
L 107.295837 258.797967 
L 107.149823 257.969792 
L 106.976124 257.141617 
L 106.773854 256.313442 
L 106.541979 255.485267 
L 106.279207 254.657092 
L 105.983983 253.828918 
L 105.654643 253.000743 
L 105.289695 252.172568 
L 104.888206 251.344393 
L 104.450211 250.516218 
L 103.977054 249.688043 
L 103.471587 248.859868 
L 102.938135 248.031694 
L 102.382227 247.203519 
L 101.810107 246.375344 
L 101.228097 245.547169 
L 100.641944 244.718994 
L 100.056246 243.890819 
L 99.474096 243.062645 
L 98.897004 242.23447 
L 98.325112 241.406295 
L 97.757661 240.57812 
L 97.193619 239.749945 
L 96.632334 238.92177 
L 96.07411 238.093595 
L 95.520573 237.265421 
L 94.974799 236.437246 
L 94.441179 235.609071 
L 93.925068 234.780896 
L 93.432306 233.952721 
L 92.96869 233.124546 
L 92.539502 232.296372 
L 92.14918 231.468197 
L 91.801171 230.640022 
L 91.497994 229.811847 
L 91.241506 228.983672 
L 91.03331 228.155497 
L 90.875219 227.327322 
L 90.769678 226.499148 
L 90.72 225.670973 
L 90.730341 224.842798 
L 90.805334 224.014623 
L 90.949419 223.186448 
L 91.165952 222.358273 
L 91.456265 221.530098 
L 91.81889 220.701924 
L 92.249128 219.873749 
L 92.739095 219.045574 
L 93.278287 218.217399 
L 93.854556 217.389224 
L 94.455354 216.561049 
L 95.068982 215.732875 
L 95.685657 214.9047 
L 96.298194 214.076525 
L 96.90224 213.24835 
L 97.496065 212.420175 
L 98.079985 211.592 
L 98.655569 210.763825 
L 99.224776 209.935651 
L 99.789162 209.107476 
L 100.349253 208.279301 
L 100.904165 207.451126 
L 101.45147 206.622951 
L 101.987319 205.794776 
L 102.506745 204.966602 
L 103.00413 204.138427 
L 103.473732 203.310252 
L 103.91023 202.482077 
L 104.309219 201.653902 
L 104.667606 200.825727 
L 104.983883 199.997552 
L 105.258254 199.169378 
L 105.492617 198.341203 
L 105.690403 197.513028 
L 105.856301 196.684853 
L 105.995885 195.856678 
L 106.11518 195.028503 
L 106.220217 194.200328 
L 106.316602 193.372154 
L 106.409156 192.543979 
L 106.501656 191.715804 
L 106.596696 190.887629 
L 106.695667 190.059454 
L 106.798858 189.231279 
L 106.905628 188.403105 
L 107.014641 187.57493 
L 107.124107 186.746755 
L 108.875893 186.746755 
L 108.875893 186.746755 
L 108.985359 187.57493 
L 109.094372 188.403105 
L 109.201142 189.231279 
L 109.304333 190.059454 
L 109.403304 190.887629 
L 109.498344 191.715804 
L 109.590844 192.543979 
L 109.683398 193.372154 
L 109.779783 194.200328 
L 109.88482 195.028503 
L 110.004115 195.856678 
L 110.143699 196.684853 
L 110.309597 197.513028 
L 110.507383 198.341203 
L 110.741746 199.169378 
L 111.016117 199.997552 
L 111.332394 200.825727 
L 111.690781 201.653902 
L 112.08977 202.482077 
L 112.526268 203.310252 
L 112.99587 204.138427 
L 113.493255 204.966602 
L 114.012681 205.794776 
L 114.54853 206.622951 
L 115.095835 207.451126 
L 115.650747 208.279301 
L 116.210838 209.107476 
L 116.775224 209.935651 
L 117.344431 210.763825 
L 117.920015 211.592 
L 118.503935 212.420175 
L 119.09776 213.24835 
L 119.701806 214.076525 
L 120.314343 214.9047 
L 120.931018 215.732875 
L 121.544646 216.561049 
L 122.145444 217.389224 
L 122.721713 218.217399 
L 123.260905 219.045574 
L 123.750872 219.873749 
L 124.18111 220.701924 
L 124.543735 221.530098 
L 124.834048 222.358273 
L 125.050581 223.186448 
L 125.194666 224.014623 
L 125.269659 224.842798 
L 125.28 225.670973 
L 125.230322 226.499148 
L 125.124781 227.327322 
L 124.96669 228.155497 
L 124.758494 228.983672 
L 124.502006 229.811847 
L 124.198829 230.640022 
L 123.85082 231.468197 
L 123.460498 232.296372 
L 123.03131 233.124546 
L 122.567694 233.952721 
L 122.074932 234.780896 
L 121.558821 235.609071 
L 121.025201 236.437246 
L 120.479427 237.265421 
L 119.92589 238.093595 
L 119.367666 238.92177 
L 118.806381 239.749945 
L 118.242339 240.57812 
L 117.674888 241.406295 
L 117.102996 242.23447 
L 116.525904 243.062645 
L 115.943754 243.890819 
L 115.358056 244.718994 
L 114.771903 245.547169 
L 114.189893 246.375344 
L 113.617773 247.203519 
L 113.061865 248.031694 
L 112.528413 248.859868 
L 112.022946 249.688043 
L 111.549789 250.516218 
L 111.111794 251.344393 
L 110.710305 252.172568 
L 110.345357 253.000743 
L 110.016017 253.828918 
L 109.720793 254.657092 
L 109.458021 255.485267 
L 109.226146 256.313442 
L 109.023876 257.141617 
L 108.850177 257.969792 
L 108.704163 258.797967 
L 108.584891 259.626142 
L 108.491149 260.454316 
L 108.421263 261.282491 
L 108.372968 262.110666 
L 108.343371 262.938841 
L 108.329015 263.767016 
L 108.326026 264.595191 
L 108.330339 265.423365 
L 108.337965 266.25154 
L 108.345274 267.079715 
L 108.349249 267.90789 
L 108.347685 268.736065 
L 108.347685 268.736065 
z
" clip-path="url(#pf1efe0f5aa)" style="fill: none; stroke: #000000; stroke-opacity: 0.3"/>
   </g>
   <g id="FillBetweenPolyCollection_8">
    <path d="M 108.370577 265.921495 
L 107.629423 265.921495 
L 107.617027 265.097302 
L 107.606211 264.273109 
L 107.593717 263.448916 
L 107.57552 262.624723 
L 107.547195 261.80053 
L 107.504378 260.976337 
L 107.443271 260.152144 
L 107.361112 259.327951 
L 107.256561 258.503757 
L 107.129957 257.679564 
L 106.983378 256.855371 
L 106.820528 256.031178 
L 106.646416 255.206985 
L 106.466878 254.382792 
L 106.287986 253.558599 
L 106.115378 252.734406 
L 105.953606 251.910213 
L 105.805535 251.08602 
L 105.671883 250.261826 
L 105.550938 249.437633 
L 105.438513 248.61344 
L 105.328156 247.789247 
L 105.211634 246.965054 
L 105.07966 246.140861 
L 104.922802 245.316668 
L 104.732478 244.492475 
L 104.501904 243.668282 
L 104.22685 242.844089 
L 103.906065 242.019895 
L 103.541286 241.195702 
L 103.136771 240.371509 
L 102.698423 239.547316 
L 102.232608 238.723123 
L 101.744888 237.89893 
L 101.238877 237.074737 
L 100.715488 236.250544 
L 100.172738 235.426351 
L 99.606225 234.602157 
L 99.010248 233.777964 
L 98.379427 232.953771 
L 97.710555 232.129578 
L 97.004338 231.305385 
L 96.266678 230.481192 
L 95.509203 229.656999 
L 94.748853 228.832806 
L 94.006528 228.008613 
L 93.304947 227.18442 
L 92.66605 226.360226 
L 92.108376 225.536033 
L 91.644865 224.71184 
L 91.281491 223.887647 
L 91.016972 223.063454 
L 90.843647 222.239261 
L 90.749352 221.415068 
L 90.72 220.590875 
L 90.742385 219.766682 
L 90.806732 218.942489 
L 90.908534 218.118295 
L 91.049352 217.294102 
L 91.23645 216.469909 
L 91.481333 215.645716 
L 91.797452 214.821523 
L 92.197497 213.99733 
L 92.690737 213.173137 
L 93.280863 212.348944 
L 93.96467 211.524751 
L 94.731767 210.700558 
L 95.565324 209.876364 
L 96.443672 209.052171 
L 97.342484 208.227978 
L 98.237173 207.403785 
L 99.105158 206.579592 
L 99.927702 205.755399 
L 100.691134 204.931206 
L 101.387359 204.107013 
L 102.013704 203.28282 
L 102.572197 202.458627 
L 103.068482 201.634433 
L 103.510536 200.81024 
L 103.907402 199.986047 
L 104.268063 199.161854 
L 104.600564 198.337661 
L 104.911419 197.513468 
L 105.205297 196.689275 
L 105.484956 195.865082 
L 105.751374 195.040889 
L 106.004045 194.216696 
L 106.241369 193.392502 
L 106.461126 192.568309 
L 106.660972 191.744116 
L 106.838917 190.919923 
L 106.993736 190.09573 
L 107.125264 189.271537 
L 107.234521 188.447344 
L 107.323675 187.623151 
L 107.395818 186.798958 
L 107.454618 185.974764 
L 107.503898 185.150571 
L 107.547212 184.326378 
L 108.452788 184.326378 
L 108.452788 184.326378 
L 108.496102 185.150571 
L 108.545382 185.974764 
L 108.604182 186.798958 
L 108.676325 187.623151 
L 108.765479 188.447344 
L 108.874736 189.271537 
L 109.006264 190.09573 
L 109.161083 190.919923 
L 109.339028 191.744116 
L 109.538874 192.568309 
L 109.758631 193.392502 
L 109.995955 194.216696 
L 110.248626 195.040889 
L 110.515044 195.865082 
L 110.794703 196.689275 
L 111.088581 197.513468 
L 111.399436 198.337661 
L 111.731937 199.161854 
L 112.092598 199.986047 
L 112.489464 200.81024 
L 112.931518 201.634433 
L 113.427803 202.458627 
L 113.986296 203.28282 
L 114.612641 204.107013 
L 115.308866 204.931206 
L 116.072298 205.755399 
L 116.894842 206.579592 
L 117.762827 207.403785 
L 118.657516 208.227978 
L 119.556328 209.052171 
L 120.434676 209.876364 
L 121.268233 210.700558 
L 122.03533 211.524751 
L 122.719137 212.348944 
L 123.309263 213.173137 
L 123.802503 213.99733 
L 124.202548 214.821523 
L 124.518667 215.645716 
L 124.76355 216.469909 
L 124.950648 217.294102 
L 125.091466 218.118295 
L 125.193268 218.942489 
L 125.257615 219.766682 
L 125.28 220.590875 
L 125.250648 221.415068 
L 125.156353 222.239261 
L 124.983028 223.063454 
L 124.718509 223.887647 
L 124.355135 224.71184 
L 123.891624 225.536033 
L 123.33395 226.360226 
L 122.695053 227.18442 
L 121.993472 228.008613 
L 121.251147 228.832806 
L 120.490797 229.656999 
L 119.733322 230.481192 
L 118.995662 231.305385 
L 118.289445 232.129578 
L 117.620573 232.953771 
L 116.989752 233.777964 
L 116.393775 234.602157 
L 115.827262 235.426351 
L 115.284512 236.250544 
L 114.761123 237.074737 
L 114.255112 237.89893 
L 113.767392 238.723123 
L 113.301577 239.547316 
L 112.863229 240.371509 
L 112.458714 241.195702 
L 112.093935 242.019895 
L 111.77315 242.844089 
L 111.498096 243.668282 
L 111.267522 244.492475 
L 111.077198 245.316668 
L 110.92034 246.140861 
L 110.788366 246.965054 
L 110.671844 247.789247 
L 110.561487 248.61344 
L 110.449062 249.437633 
L 110.328117 250.261826 
L 110.194465 251.08602 
L 110.046394 251.910213 
L 109.884622 252.734406 
L 109.712014 253.558599 
L 109.533122 254.382792 
L 109.353584 255.206985 
L 109.179472 256.031178 
L 109.016622 256.855371 
L 108.870043 257.679564 
L 108.743439 258.503757 
L 108.638888 259.327951 
L 108.556729 260.152144 
L 108.495622 260.976337 
L 108.452805 261.80053 
L 108.42448 262.624723 
L 108.406283 263.448916 
L 108.393789 264.273109 
L 108.382973 265.097302 
L 108.370577 265.921495 
L 108.370577 265.921495 
z
" clip-path="url(#pf1efe0f5aa)" style="fill: none; stroke: #000000; stroke-opacity: 0.3"/>
   </g>
   <g id="FillBetweenPolyCollection_9">
    <path d="M 108.431782 251.960421 
L 107.568218 251.960421 
L 107.517242 251.183858 
L 107.459412 250.407294 
L 107.391959 249.630731 
L 107.312065 248.854168 
L 107.217205 248.077605 
L 107.105413 247.301042 
L 106.975416 246.524479 
L 106.826584 245.747915 
L 106.658696 244.971352 
L 106.471572 244.194789 
L 106.264646 243.418226 
L 106.03658 242.641663 
L 105.785034 241.8651 
L 105.506656 241.088536 
L 105.197332 240.311973 
L 104.852672 239.53541 
L 104.468667 238.758847 
L 104.042401 237.982284 
L 103.572683 237.205721 
L 103.060488 236.429157 
L 102.509108 235.652594 
L 101.923969 234.876031 
L 101.312145 234.099468 
L 100.681621 233.322905 
L 100.04045 232.546342 
L 99.395908 231.769778 
L 98.753816 230.993215 
L 98.118096 230.216652 
L 97.490668 229.440089 
L 96.871673 228.663526 
L 96.260011 227.886963 
L 95.65413 227.110399 
L 95.052959 226.333836 
L 94.456893 225.557273 
L 93.868668 224.78071 
L 93.294038 224.004147 
L 92.742099 223.227584 
L 92.225189 222.45102 
L 91.758319 221.674457 
L 91.358157 220.897894 
L 91.041675 220.121331 
L 90.824617 219.344768 
L 90.72 218.568205 
L 90.736854 217.791641 
L 90.879365 217.015078 
L 91.146509 216.238515 
L 91.53219 215.461952 
L 92.025795 214.685389 
L 92.613047 213.908826 
L 93.277011 213.132262 
L 93.999131 212.355699 
L 94.760203 211.579136 
L 95.54126 210.802573 
L 96.32433 210.02601 
L 97.093108 209.249447 
L 97.833526 208.472883 
L 98.53422 207.69632 
L 99.186883 206.919757 
L 99.786454 206.143194 
L 100.331109 205.366631 
L 100.822052 204.590068 
L 101.263078 203.813504 
L 101.659965 203.036941 
L 102.019753 202.260378 
L 102.349977 201.483815 
L 102.657971 200.707252 
L 102.950285 199.930689 
L 103.232293 199.154125 
L 103.507988 198.377562 
L 103.779961 197.600999 
L 104.049516 196.824436 
L 104.31687 196.047873 
L 104.581393 195.27131 
L 104.841852 194.494746 
L 105.096623 193.718183 
L 105.343885 192.94162 
L 105.581776 192.165057 
L 105.808531 191.388494 
L 106.022599 190.611931 
L 106.222739 189.835368 
L 106.408088 189.058804 
L 106.578195 188.282241 
L 106.733014 187.505678 
L 106.872845 186.729115 
L 106.998242 185.952552 
L 107.109893 185.175989 
L 107.208502 184.399425 
L 107.294703 183.622862 
L 107.369029 182.846299 
L 107.43195 182.069736 
L 107.483971 181.293173 
L 107.525773 180.51661 
L 107.558347 179.740046 
L 107.583095 178.963483 
L 107.601829 178.18692 
L 107.616686 177.410357 
L 107.629938 176.633794 
L 107.643748 175.857231 
L 107.65991 175.080667 
L 108.34009 175.080667 
L 108.34009 175.080667 
L 108.356252 175.857231 
L 108.370062 176.633794 
L 108.383314 177.410357 
L 108.398171 178.18692 
L 108.416905 178.963483 
L 108.441653 179.740046 
L 108.474227 180.51661 
L 108.516029 181.293173 
L 108.56805 182.069736 
L 108.630971 182.846299 
L 108.705297 183.622862 
L 108.791498 184.399425 
L 108.890107 185.175989 
L 109.001758 185.952552 
L 109.127155 186.729115 
L 109.266986 187.505678 
L 109.421805 188.282241 
L 109.591912 189.058804 
L 109.777261 189.835368 
L 109.977401 190.611931 
L 110.191469 191.388494 
L 110.418224 192.165057 
L 110.656115 192.94162 
L 110.903377 193.718183 
L 111.158148 194.494746 
L 111.418607 195.27131 
L 111.68313 196.047873 
L 111.950484 196.824436 
L 112.220039 197.600999 
L 112.492012 198.377562 
L 112.767707 199.154125 
L 113.049715 199.930689 
L 113.342029 200.707252 
L 113.650023 201.483815 
L 113.980247 202.260378 
L 114.340035 203.036941 
L 114.736922 203.813504 
L 115.177948 204.590068 
L 115.668891 205.366631 
L 116.213546 206.143194 
L 116.813117 206.919757 
L 117.46578 207.69632 
L 118.166474 208.472883 
L 118.906892 209.249447 
L 119.67567 210.02601 
L 120.45874 210.802573 
L 121.239797 211.579136 
L 122.000869 212.355699 
L 122.722989 213.132262 
L 123.386953 213.908826 
L 123.974205 214.685389 
L 124.46781 215.461952 
L 124.853491 216.238515 
L 125.120635 217.015078 
L 125.263146 217.791641 
L 125.28 218.568205 
L 125.175383 219.344768 
L 124.958325 220.121331 
L 124.641843 220.897894 
L 124.241681 221.674457 
L 123.774811 222.45102 
L 123.257901 223.227584 
L 122.705962 224.004147 
L 122.131332 224.78071 
L 121.543107 225.557273 
L 120.947041 226.333836 
L 120.34587 227.110399 
L 119.739989 227.886963 
L 119.128327 228.663526 
L 118.509332 229.440089 
L 117.881904 230.216652 
L 117.246184 230.993215 
L 116.604092 231.769778 
L 115.95955 232.546342 
L 115.318379 233.322905 
L 114.687855 234.099468 
L 114.076031 234.876031 
L 113.490892 235.652594 
L 112.939512 236.429157 
L 112.427317 237.205721 
L 111.957599 237.982284 
L 111.531333 238.758847 
L 111.147328 239.53541 
L 110.802668 240.311973 
L 110.493344 241.088536 
L 110.214966 241.8651 
L 109.96342 242.641663 
L 109.735354 243.418226 
L 109.528428 244.194789 
L 109.341304 244.971352 
L 109.173416 245.747915 
L 109.024584 246.524479 
L 108.894587 247.301042 
L 108.782795 248.077605 
L 108.687935 248.854168 
L 108.608041 249.630731 
L 108.540588 250.407294 
L 108.482758 251.183858 
L 108.431782 251.960421 
L 108.431782 251.960421 
z
" clip-path="url(#pf1efe0f5aa)" style="fill: none; stroke: #000000; stroke-opacity: 0.3"/>
   </g>
   <g id="FillBetweenPolyCollection_10">
    <path d="M 113.738997 243.269932 
L 102.261003 243.269932 
L 101.848404 242.822267 
L 101.425759 242.374602 
L 100.994427 241.926937 
L 100.555832 241.479273 
L 100.111446 241.031608 
L 99.662775 240.583943 
L 99.211347 240.136278 
L 98.758698 239.688613 
L 98.306367 239.240949 
L 97.855881 238.793284 
L 97.408758 238.345619 
L 96.966495 237.897954 
L 96.530566 237.450289 
L 96.102424 237.002625 
L 95.683493 236.55496 
L 95.275168 236.107295 
L 94.878811 235.65963 
L 94.495743 235.211965 
L 94.12724 234.764301 
L 93.774517 234.316636 
L 93.438718 233.868971 
L 93.120899 233.421306 
L 92.82201 232.973641 
L 92.542873 232.525976 
L 92.284165 232.078312 
L 92.046393 231.630647 
L 91.829876 231.182982 
L 91.634731 230.735317 
L 91.460858 230.287652 
L 91.307933 229.839988 
L 91.175409 229.392323 
L 91.062521 228.944658 
L 90.968299 228.496993 
L 90.89159 228.049328 
L 90.831087 227.601664 
L 90.785366 227.153999 
L 90.752921 226.706334 
L 90.732216 226.258669 
L 90.721729 225.811004 
L 90.72 225.36334 
L 90.725681 224.915675 
L 90.73758 224.46801 
L 90.754697 224.020345 
L 90.776263 223.57268 
L 90.801765 223.125016 
L 90.830959 222.677351 
L 90.863885 222.229686 
L 90.900863 221.782021 
L 90.942483 221.334356 
L 90.989585 220.886691 
L 91.043233 220.439027 
L 91.104682 219.991362 
L 91.175335 219.543697 
L 91.256696 219.096032 
L 91.350327 218.648367 
L 91.457789 218.200703 
L 91.580599 217.753038 
L 91.72017 217.305373 
L 91.877768 216.857708 
L 92.054465 216.410043 
L 92.251093 215.962379 
L 92.468216 215.514714 
L 92.706094 215.067049 
L 92.964662 214.619384 
L 93.243518 214.171719 
L 93.541919 213.724055 
L 93.858782 213.27639 
L 94.192698 212.828725 
L 94.541959 212.38106 
L 94.904585 211.933395 
L 95.278369 211.485731 
L 95.660921 211.038066 
L 96.049728 210.590401 
L 96.442206 210.142736 
L 96.835767 209.695071 
L 97.227882 209.247407 
L 97.616141 208.799742 
L 97.998311 208.352077 
L 98.372392 207.904412 
L 98.736659 207.456747 
L 99.089701 207.009082 
L 99.430448 206.561418 
L 99.758184 206.113753 
L 100.072548 205.666088 
L 100.373532 205.218423 
L 100.661451 204.770758 
L 100.93692 204.323094 
L 101.200807 203.875429 
L 101.454191 203.427764 
L 101.698303 202.980099 
L 101.934475 202.532434 
L 102.164077 202.08477 
L 102.388464 201.637105 
L 102.608925 201.18944 
L 102.826629 200.741775 
L 103.04259 200.29411 
L 103.257634 199.846446 
L 103.472375 199.398781 
L 103.6872 198.951116 
L 112.3128 198.951116 
L 112.3128 198.951116 
L 112.527625 199.398781 
L 112.742366 199.846446 
L 112.95741 200.29411 
L 113.173371 200.741775 
L 113.391075 201.18944 
L 113.611536 201.637105 
L 113.835923 202.08477 
L 114.065525 202.532434 
L 114.301697 202.980099 
L 114.545809 203.427764 
L 114.799193 203.875429 
L 115.06308 204.323094 
L 115.338549 204.770758 
L 115.626468 205.218423 
L 115.927452 205.666088 
L 116.241816 206.113753 
L 116.569552 206.561418 
L 116.910299 207.009082 
L 117.263341 207.456747 
L 117.627608 207.904412 
L 118.001689 208.352077 
L 118.383859 208.799742 
L 118.772118 209.247407 
L 119.164233 209.695071 
L 119.557794 210.142736 
L 119.950272 210.590401 
L 120.339079 211.038066 
L 120.721631 211.485731 
L 121.095415 211.933395 
L 121.458041 212.38106 
L 121.807302 212.828725 
L 122.141218 213.27639 
L 122.458081 213.724055 
L 122.756482 214.171719 
L 123.035338 214.619384 
L 123.293906 215.067049 
L 123.531784 215.514714 
L 123.748907 215.962379 
L 123.945535 216.410043 
L 124.122232 216.857708 
L 124.27983 217.305373 
L 124.419401 217.753038 
L 124.542211 218.200703 
L 124.649673 218.648367 
L 124.743304 219.096032 
L 124.824665 219.543697 
L 124.895318 219.991362 
L 124.956767 220.439027 
L 125.010415 220.886691 
L 125.057517 221.334356 
L 125.099137 221.782021 
L 125.136115 222.229686 
L 125.169041 222.677351 
L 125.198235 223.125016 
L 125.223737 223.57268 
L 125.245303 224.020345 
L 125.26242 224.46801 
L 125.274319 224.915675 
L 125.28 225.36334 
L 125.278271 225.811004 
L 125.267784 226.258669 
L 125.247079 226.706334 
L 125.214634 227.153999 
L 125.168913 227.601664 
L 125.10841 228.049328 
L 125.031701 228.496993 
L 124.937479 228.944658 
L 124.824591 229.392323 
L 124.692067 229.839988 
L 124.539142 230.287652 
L 124.365269 230.735317 
L 124.170124 231.182982 
L 123.953607 231.630647 
L 123.715835 232.078312 
L 123.457127 232.525976 
L 123.17799 232.973641 
L 122.879101 233.421306 
L 122.561282 233.868971 
L 122.225483 234.316636 
L 121.87276 234.764301 
L 121.504257 235.211965 
L 121.121189 235.65963 
L 120.724832 236.107295 
L 120.316507 236.55496 
L 119.897576 237.002625 
L 119.469434 237.450289 
L 119.033505 237.897954 
L 118.591242 238.345619 
L 118.144119 238.793284 
L 117.693633 239.240949 
L 117.241302 239.688613 
L 116.788653 240.136278 
L 116.337225 240.583943 
L 115.888554 241.031608 
L 115.444168 241.479273 
L 115.005573 241.926937 
L 114.574241 242.374602 
L 114.151596 242.822267 
L 113.738997 243.269932 
L 113.738997 243.269932 
z
" clip-path="url(#pf1efe0f5aa)" style="fill: none; stroke: #000000; stroke-opacity: 0.3"/>
   </g>
   <g id="matplotlib.axis_1"/>
   <g id="matplotlib.axis_2">
    <g id="ytick_1">
     <g id="line2d_1">
      <defs>
       <path id="m77e7d280fb" d="M 0 0 
L -3.5 0 
" style="stroke: #000000; stroke-width: 0.8"/>
      </defs>
      <g>
       <use xlink:href="#m77e7d280fb" x="21.6" y="291.6" style="stroke: #000000; stroke-width: 0.8"/>
      </g>
     </g>
    </g>
    <g id="ytick_2">
     <g id="line2d_2">
      <g>
       <use xlink:href="#m77e7d280fb" x="21.6" y="236.52" style="stroke: #000000; stroke-width: 0.8"/>
      </g>
     </g>
    </g>
    <g id="ytick_3">
     <g id="line2d_3">
      <g>
       <use xlink:href="#m77e7d280fb" x="21.6" y="181.44" style="stroke: #000000; stroke-width: 0.8"/>
      </g>
     </g>
    </g>
    <g id="ytick_4">
     <g id="line2d_4">
      <g>
       <use xlink:href="#m77e7d280fb" x="21.6" y="126.36" style="stroke: #000000; stroke-width: 0.8"/>
      </g>
     </g>
    </g>
    <g id="ytick_5">
     <g id="line2d_5">
      <g>
       <use xlink:href="#m77e7d280fb" x="21.6" y="71.28" style="stroke: #000000; stroke-width: 0.8"/>
      </g>
     </g>
    </g>
    <g id="ytick_6">
     <g id="line2d_6">
      <g>
       <use xlink:href="#m77e7d280fb" x="21.6" y="16.2" style="stroke: #000000; stroke-width: 0.8"/>
      </g>
     </g>
    </g>
   </g>
   <g id="line2d_7">
    <path d="M 50.4 269.568 
L 50.4 264.06 
" clip-path="url(#pf1efe0f5aa)" style="fill: none; stroke: #000000; stroke-linecap: square"/>
   </g>
   <g id="line2d_8">
    <path d="M 50.4 269.568 
L 108 269.568 
" clip-path="url(#pf1efe0f5aa)" style="fill: none; stroke: #000000; stroke-linecap: square"/>
   </g>
   <g id="line2d_9">
    <path d="M 108 269.568 
L 108 264.06 
" clip-path="url(#pf1efe0f5aa)" style="fill: none; stroke: #000000; stroke-linecap: square"/>
   </g>
   <g id="patch_3">
    <path d="M 21.6 291.6 
L 21.6 16.2 
" style="fill: none; stroke: #000000; stroke-width: 0.8; stroke-linejoin: miter; stroke-linecap: square"/>
   </g>
   <g id="patch_4">
    <path d="M 136.8 291.6 
L 136.8 16.2 
" style="fill: none; stroke: #000000; stroke-width: 0.8; stroke-linejoin: miter; stroke-linecap: square"/>
   </g>
   <g id="patch_5">
    <path d="M 21.6 291.6 
L 136.8 291.6 
" style="fill: none; stroke: #000000; stroke-width: 0.8; stroke-linejoin: miter; stroke-linecap: square"/>
   </g>
   <g id="patch_6">
    <path d="M 21.6 16.2 
L 136.8 16.2 
" style="fill: none; stroke: #000000; stroke-width: 0.8; stroke-linejoin: miter; stroke-linecap: square"/>
   </g>
   <g id="text_1">
    <text style="font-weight: 700; font-size: 12px; font-family: 'DejaVu Sans', 'Bitstream Vera Sans', 'Computer Modern Sans Serif', 'Lucida Grande', 'Verdana', 'Geneva', 'Lucid', 'Arial', 'Helvetica', 'Avant Garde', sans-serif; text-anchor: middle" x="50.4" y="289.104375" transform="rotate(-0 50.4 289.104375)">#39</text>
   </g>
   <g id="text_2">
    <text style="font-weight: 700; font-size: 12px; font-family: 'DejaVu Sans', 'Bitstream Vera Sans', 'Computer Modern Sans Serif', 'Lucida Grande', 'Verdana', 'Geneva', 'Lucid', 'Arial', 'Helvetica', 'Avant Garde', sans-serif; text-anchor: middle" x="108" y="289.104375" transform="rotate(-0 108 289.104375)">#40</text>
   </g>
   <g id="text_3">
    <text style="font-size: 12px; font-family: 'DejaVu Sans', 'Bitstream Vera Sans', 'Computer Modern Sans Serif', 'Lucida Grande', 'Verdana', 'Geneva', 'Lucid', 'Arial', 'Helvetica', 'Avant Garde', sans-serif; text-anchor: middle" x="79.2" y="268.449375" transform="rotate(-0 79.2 268.449375)">ns</text>
   </g>
   <g id="line2d_10">
    <path d="M 21.6 222.744956 
L 136.8 222.744956 
" clip-path="url(#pf1efe0f5aa)" style="fill: none; stroke-dasharray: 3.7,1.6; stroke-dashoffset: 0; stroke: #808080; stroke-opacity: 0.7"/>
   </g>
   <g id="line2d_11">
    <path d="M 21.6 222.022579 
L 136.8 222.022579 
" clip-path="url(#pf1efe0f5aa)" style="fill: none; stroke-dasharray: 3.7,1.6; stroke-dashoffset: 0; stroke: #808080; stroke-opacity: 0.7"/>
   </g>
   <g id="LineCollection_1">
    <path d="M 50.4 225.025174 
L 50.4 220.464738 
" clip-path="url(#pf1efe0f5aa)" style="fill: none; stroke: #000000; stroke-width: 2"/>
   </g>
   <g id="line2d_12">
    <defs>
     <path id="m9503a32dbe" d="M 5 0 
L -5 -0 
" style="stroke: #000000; stroke-width: 2"/>
    </defs>
    <g clip-path="url(#pf1efe0f5aa)">
     <use xlink:href="#m9503a32dbe" x="50.4" y="225.025174" style="stroke: #000000; stroke-width: 2"/>
    </g>
   </g>
   <g id="line2d_13">
    <g clip-path="url(#pf1efe0f5aa)">
     <use xlink:href="#m9503a32dbe" x="50.4" y="220.464738" style="stroke: #000000; stroke-width: 2"/>
    </g>
   </g>
   <g id="LineCollection_2">
    <path d="M 108 225.096578 
L 108 218.94858 
" clip-path="url(#pf1efe0f5aa)" style="fill: none; stroke: #000000; stroke-width: 2"/>
   </g>
   <g id="line2d_14">
    <g clip-path="url(#pf1efe0f5aa)">
     <use xlink:href="#m9503a32dbe" x="108" y="225.096578" style="stroke: #000000; stroke-width: 2"/>
    </g>
   </g>
   <g id="line2d_15">
    <g clip-path="url(#pf1efe0f5aa)">
     <use xlink:href="#m9503a32dbe" x="108" y="218.94858" style="stroke: #000000; stroke-width: 2"/>
    </g>
   </g>
   <g id="line2d_16">
    <defs>
     <path id="mec63e6b881" d="M 0 4 
C 1.060812 4 2.078319 3.578535 2.828427 2.828427 
C 3.578535 2.078319 4 1.060812 4 0 
C 4 -1.060812 3.578535 -2.078319 2.828427 -2.828427 
C 2.078319 -3.578535 1.060812 -4 0 -4 
C -1.060812 -4 -2.078319 -3.578535 -2.828427 -2.828427 
C -3.578535 -2.078319 -4 -1.060812 -4 0 
C -4 1.060812 -3.578535 2.078319 -2.828427 2.828427 
C -2.078319 3.578535 -1.060812 4 0 4 
z
" style="stroke: #000000"/>
    </defs>
    <g clip-path="url(#pf1efe0f5aa)">
     <use xlink:href="#mec63e6b881" x="50.4" y="222.744956" style="stroke: #000000"/>
    </g>
   </g>
   <g id="line2d_17">
    <g clip-path="url(#pf1efe0f5aa)">
     <use xlink:href="#mec63e6b881" x="108" y="222.022579" style="stroke: #000000"/>
    </g>
   </g>
  </g>
 </g>
 <defs>
  <clipPath id="pf1efe0f5aa">
   <rect x="21.6" y="16.2" width="115.2" height="275.4"/>
  </clipPath>
 </defs>
</svg>
