<?xml version="1.0" encoding="utf-8" standalone="no"?>
<!DOCTYPE svg PUBLIC "-//W3C//DTD SVG 1.1//EN"
  "http://www.w3.org/Graphics/SVG/1.1/DTD/svg11.dtd">
<svg xmlns:xlink="http://www.w3.org/1999/xlink" width="144pt" height="324pt" viewBox="0 0 144 324" xmlns="http://www.w3.org/2000/svg" version="1.1">
 <metadata>
  <rdf:RDF xmlns:dc="http://purl.org/dc/elements/1.1/" xmlns:cc="http://creativecommons.org/ns#" xmlns:rdf="http://www.w3.org/1999/02/22-rdf-syntax-ns#">
   <cc:Work>
    <dc:type rdf:resource="http://purl.org/dc/dcmitype/StillImage"/>
    <dc:date>2025-12-11T09:10:04.306122</dc:date>
    <dc:format>image/svg+xml</dc:format>
    <dc:creator>
     <cc:Agent>
      <dc:title>Matplotlib v3.10.0, https://matplotlib.org/</dc:title>
     </cc:Agent>
    </dc:creator>
   </cc:Work>
  </rdf:RDF>
 </metadata>
 <defs>
  <style type="text/css">*{stroke-linejoin: round; stroke-linecap: butt}</style>
 </defs>
 <g id="figure_1">
  <g id="patch_1">
   <path d="M 0 324 
L 144 324 
L 144 0 
L 0 0 
z
" style="fill: #ffffff"/>
  </g>
  <g id="axes_1">
   <g id="patch_2">
    <path d="M 21.6 291.6 
L 136.8 291.6 
L 136.8 16.2 
L 21.6 16.2 
z
" style="fill: #ffffff"/>
   </g>
   <g id="FillBetweenPolyCollection_1">
    <path d="M 49.911917 325 
L 49.898998 324.373474 
L 49.866872 322.768846 
L 49.833884 321.164218 
L 49.798506 319.55959 
L 49.760075 317.954962 
L 49.719226 316.350335 
L 49.678044 314.745707 
L 49.639868 313.141079 
L 49.608739 311.536451 
L 49.588598 309.931823 
L 49.582399 308.327195 
L 49.591321 306.722567 
L 49.614273 305.117939 
L 49.647783 303.513311 
L 49.68633 301.908683 
L 49.723018 300.304055 
L 49.750492 298.699427 
L 49.761899 297.094799 
L 49.751726 295.490171 
L 49.716385 293.885543 
L 49.65444 292.280915 
L 49.566454 290.676288 
L 49.454489 289.07166 
L 49.321321 287.467032 
L 49.169497 285.862404 
L 49.000343 284.257776 
L 48.813076 282.653148 
L 48.604118 281.04852 
L 48.366738 279.443892 
L 48.091069 277.839264 
L 47.764555 276.234636 
L 47.372828 274.630008 
L 46.900998 273.02538 
L 46.335298 271.420752 
L 45.664981 269.816124 
L 44.884296 268.211496 
L 43.994313 266.606868 
L 43.004302 265.002241 
L 41.932329 263.397613 
L 40.804829 261.792985 
L 39.654998 260.188357 
L 38.520087 258.583729 
L 37.437899 256.979101 
L 36.443012 255.374473 
L 35.563354 253.769845 
L 34.817761 252.165217 
L 34.214963 250.560589 
L 33.754178 248.955961 
L 33.427166 247.351333 
L 33.221268 245.746705 
L 33.122794 244.142077 
L 33.12 242.537449 
L 33.205068 240.932821 
L 33.374688 239.328194 
L 33.629217 237.723566 
L 33.970683 236.118938 
L 34.400217 234.51431 
L 34.915614 232.909682 
L 35.509678 231.305054 
L 36.169827 229.700426 
L 36.879096 228.095798 
L 37.61831 226.49117 
L 38.368894 224.886542 
L 39.115609 223.281914 
L 39.848537 221.677286 
L 40.563825 220.072658 
L 41.263039 218.46803 
L 41.951338 216.863402 
L 42.634966 215.258774 
L 43.318707 213.654147 
L 44.00391 212.049519 
L 44.687497 210.444891 
L 45.362087 208.840263 
L 46.017082 207.235635 
L 46.640343 205.631007 
L 47.220029 204.026379 
L 47.746167 202.421751 
L 48.211704 200.817123 
L 48.612942 199.212495 
L 48.949422 197.607867 
L 49.223442 196.003239 
L 49.439394 194.398611 
L 49.603109 192.793983 
L 49.721295 191.189355 
L 49.801102 189.584727 
L 49.849786 187.9801 
L 49.87443 186.375472 
L 49.881679 184.770844 
L 49.877501 183.166216 
L 49.866987 181.561588 
L 49.854231 179.95696 
L 49.842332 178.352332 
L 49.8335 176.747704 
L 49.829254 175.143076 
L 49.83064 173.538448 
L 49.838414 171.93382 
L 49.853131 170.329192 
L 49.875133 168.724564 
L 49.904453 167.119936 
L 50.895547 167.119936 
L 50.895547 167.119936 
L 50.924867 168.724564 
L 50.946869 170.329192 
L 50.961586 171.93382 
L 50.96936 173.538448 
L 50.970746 175.143076 
L 50.9665 176.747704 
L 50.957668 178.352332 
L 50.945769 179.95696 
L 50.933013 181.561588 
L 50.922499 183.166216 
L 50.918321 184.770844 
L 50.92557 186.375472 
L 50.950214 187.9801 
L 50.998898 189.584727 
L 51.078705 191.189355 
L 51.196891 192.793983 
L 51.360606 194.398611 
L 51.576558 196.003239 
L 51.850578 197.607867 
L 52.187058 199.212495 
L 52.588296 200.817123 
L 53.053833 202.421751 
L 53.579971 204.026379 
L 54.159657 205.631007 
L 54.782918 207.235635 
L 55.437913 208.840263 
L 56.112503 210.444891 
L 56.79609 212.049519 
L 57.481293 213.654147 
L 58.165034 215.258774 
L 58.848662 216.863402 
L 59.536961 218.46803 
L 60.236175 220.072658 
L 60.951463 221.677286 
L 61.684391 223.281914 
L 62.431106 224.886542 
L 63.18169 226.49117 
L 63.920904 228.095798 
L 64.630173 229.700426 
L 65.290322 231.305054 
L 65.884386 232.909682 
L 66.399783 234.51431 
L 66.829317 236.118938 
L 67.170783 237.723566 
L 67.425312 239.328194 
L 67.594932 240.932821 
L 67.68 242.537449 
L 67.677206 244.142077 
L 67.578732 245.746705 
L 67.372834 247.351333 
L 67.045822 248.955961 
L 66.585037 250.560589 
L 65.982239 252.165217 
L 65.236646 253.769845 
L 64.356988 255.374473 
L 63.362101 256.979101 
L 62.279913 258.583729 
L 61.145002 260.188357 
L 59.995171 261.792985 
L 58.867671 263.397613 
L 57.795698 265.002241 
L 56.805687 266.606868 
L 55.915704 268.211496 
L 55.135019 269.816124 
L 54.464702 271.420752 
L 53.899002 273.02538 
L 53.427172 274.630008 
L 53.035445 276.234636 
L 52.708931 277.839264 
L 52.433262 279.443892 
L 52.195882 281.04852 
L 51.986924 282.653148 
L 51.799657 284.257776 
L 51.630503 285.862404 
L 51.478679 287.467032 
L 51.345511 289.07166 
L 51.233546 290.676288 
L 51.14556 292.280915 
L 51.083615 293.885543 
L 51.048274 295.490171 
L 51.038101 297.094799 
L 51.049508 298.699427 
L 51.076982 300.304055 
L 51.11367 301.908683 
L 51.152217 303.513311 
L 51.185727 305.117939 
L 51.208679 306.722567 
L 51.217601 308.327195 
L 51.211402 309.931823 
L 51.191261 311.536451 
L 51.160132 313.141079 
L 51.121956 314.745707 
L 51.080774 316.350335 
L 51.039925 317.954962 
L 51.001494 319.55959 
L 50.966116 321.164218 
L 50.933128 322.768846 
L 50.901002 324.373474 
L 50.888083 325 
" clip-path="url(#p9afbf43375)" style="fill: none; stroke: #000000; stroke-opacity: 0.3"/>
   </g>
   <g id="FillBetweenPolyCollection_2">
    <path d="M 54.880381 275.768016 
L 45.919619 275.768016 
L 45.396592 274.976741 
L 44.851752 274.185467 
L 44.288332 273.394193 
L 43.709492 272.602918 
L 43.118209 271.811644 
L 42.517194 271.02037 
L 41.908875 270.229095 
L 41.295424 269.437821 
L 40.678852 268.646547 
L 40.061144 267.855272 
L 39.444434 267.063998 
L 38.831181 266.272724 
L 38.224346 265.48145 
L 37.627522 264.690175 
L 37.045012 263.898901 
L 36.48183 263.107627 
L 35.943616 262.316352 
L 35.436466 261.525078 
L 34.966685 260.733804 
L 34.540475 259.942529 
L 34.163589 259.151255 
L 33.840967 258.359981 
L 33.576397 257.568706 
L 33.372223 256.777432 
L 33.229128 255.986158 
L 33.146015 255.194884 
L 33.12 254.403609 
L 33.146528 253.612335 
L 33.219601 252.821061 
L 33.332112 252.029786 
L 33.476273 251.238512 
L 33.644083 250.447238 
L 33.827835 249.655963 
L 34.0206 248.864689 
L 34.216649 248.073415 
L 34.411793 247.282141 
L 34.603588 246.490866 
L 34.791403 245.699592 
L 34.976326 244.908318 
L 35.160923 244.117043 
L 35.348867 243.325769 
L 35.544466 242.534495 
L 35.752138 241.74322 
L 35.975881 240.951946 
L 36.218787 240.160672 
L 36.482647 239.369397 
L 36.767683 238.578123 
L 37.072433 237.786849 
L 37.393798 236.995575 
L 37.727232 236.2043 
L 38.067076 235.413026 
L 38.406976 234.621752 
L 38.740364 233.830477 
L 39.060948 233.039203 
L 39.363171 232.247929 
L 39.642603 231.456654 
L 39.896243 230.66538 
L 40.122703 229.874106 
L 40.322282 229.082831 
L 40.496919 228.291557 
L 40.650048 227.500283 
L 40.786366 226.709009 
L 40.911534 225.917734 
L 41.031842 225.12646 
L 41.153847 224.335186 
L 41.284019 223.543911 
L 41.428402 222.752637 
L 41.592314 221.961363 
L 41.780091 221.170088 
L 41.994895 220.378814 
L 42.238586 219.58754 
L 42.511656 218.796266 
L 42.813247 218.004991 
L 43.141224 217.213717 
L 43.492314 216.422443 
L 43.862298 215.631168 
L 44.246242 214.839894 
L 44.638751 214.04862 
L 45.034233 213.257345 
L 45.427163 212.466071 
L 45.812317 211.674797 
L 46.184981 210.883522 
L 46.541113 210.092248 
L 46.877457 209.300974 
L 47.191609 208.5097 
L 47.48203 207.718425 
L 47.748014 206.927151 
L 47.989624 206.135877 
L 48.207592 205.344602 
L 48.403201 204.553328 
L 48.578158 203.762054 
L 48.734462 202.970779 
L 48.874276 202.179505 
L 48.999814 201.388231 
L 49.113231 200.596957 
L 49.216547 199.805682 
L 49.311575 199.014408 
L 49.399873 198.223134 
L 49.482723 197.431859 
L 51.317277 197.431859 
L 51.317277 197.431859 
L 51.400127 198.223134 
L 51.488425 199.014408 
L 51.583453 199.805682 
L 51.686769 200.596957 
L 51.800186 201.388231 
L 51.925724 202.179505 
L 52.065538 202.970779 
L 52.221842 203.762054 
L 52.396799 204.553328 
L 52.592408 205.344602 
L 52.810376 206.135877 
L 53.051986 206.927151 
L 53.31797 207.718425 
L 53.608391 208.5097 
L 53.922543 209.300974 
L 54.258887 210.092248 
L 54.615019 210.883522 
L 54.987683 211.674797 
L 55.372837 212.466071 
L 55.765767 213.257345 
L 56.161249 214.04862 
L 56.553758 214.839894 
L 56.937702 215.631168 
L 57.307686 216.422443 
L 57.658776 217.213717 
L 57.986753 218.004991 
L 58.288344 218.796266 
L 58.561414 219.58754 
L 58.805105 220.378814 
L 59.019909 221.170088 
L 59.207686 221.961363 
L 59.371598 222.752637 
L 59.515981 223.543911 
L 59.646153 224.335186 
L 59.768158 225.12646 
L 59.888466 225.917734 
L 60.013634 226.709009 
L 60.149952 227.500283 
L 60.303081 228.291557 
L 60.477718 229.082831 
L 60.677297 229.874106 
L 60.903757 230.66538 
L 61.157397 231.456654 
L 61.436829 232.247929 
L 61.739052 233.039203 
L 62.059636 233.830477 
L 62.393024 234.621752 
L 62.732924 235.413026 
L 63.072768 236.2043 
L 63.406202 236.995575 
L 63.727567 237.786849 
L 64.032317 238.578123 
L 64.317353 239.369397 
L 64.581213 240.160672 
L 64.824119 240.951946 
L 65.047862 241.74322 
L 65.255534 242.534495 
L 65.451133 243.325769 
L 65.639077 244.117043 
L 65.823674 244.908318 
L 66.008597 245.699592 
L 66.196412 246.490866 
L 66.388207 247.282141 
L 66.583351 248.073415 
L 66.7794 248.864689 
L 66.972165 249.655963 
L 67.155917 250.447238 
L 67.323727 251.238512 
L 67.467888 252.029786 
L 67.580399 252.821061 
L 67.653472 253.612335 
L 67.68 254.403609 
L 67.653985 255.194884 
L 67.570872 255.986158 
L 67.427777 256.777432 
L 67.223603 257.568706 
L 66.959033 258.359981 
L 66.636411 259.151255 
L 66.259525 259.942529 
L 65.833315 260.733804 
L 65.363534 261.525078 
L 64.856384 262.316352 
L 64.31817 263.107627 
L 63.754988 263.898901 
L 63.172478 264.690175 
L 62.575654 265.48145 
L 61.968819 266.272724 
L 61.355566 267.063998 
L 60.738856 267.855272 
L 60.121148 268.646547 
L 59.504576 269.437821 
L 58.891125 270.229095 
L 58.282806 271.02037 
L 57.681791 271.811644 
L 57.090508 272.602918 
L 56.511668 273.394193 
L 55.948248 274.185467 
L 55.403408 274.976741 
L 54.880381 275.768016 
L 54.880381 275.768016 
z
" clip-path="url(#p9afbf43375)" style="fill: none; stroke: #000000; stroke-opacity: 0.3"/>
   </g>
   <g id="FillBetweenPolyCollection_3">
    <path d="M 53.290996 276.843073 
L 47.509004 276.843073 
L 47.192132 276.118533 
L 46.850826 275.393992 
L 46.484891 274.669451 
L 46.094499 273.944911 
L 45.680233 273.22037 
L 45.243108 272.495829 
L 44.784581 271.771289 
L 44.306537 271.046748 
L 43.811262 270.322207 
L 43.301393 269.597667 
L 42.779855 268.873126 
L 42.249786 268.148585 
L 41.714453 267.424045 
L 41.177169 266.699504 
L 40.641209 265.974963 
L 40.109741 265.250423 
L 39.585758 264.525882 
L 39.072033 263.801341 
L 38.571088 263.076801 
L 38.085176 262.35226 
L 37.616283 261.627719 
L 37.166133 260.903179 
L 36.736214 260.178638 
L 36.327796 259.454097 
L 35.941959 258.729557 
L 35.579615 258.005016 
L 35.241527 257.280475 
L 34.928316 256.555935 
L 34.640471 255.831394 
L 34.37834 255.106853 
L 34.142123 254.382313 
L 33.93186 253.657772 
L 33.747414 252.933231 
L 33.588456 252.20869 
L 33.454458 251.48415 
L 33.344685 250.759609 
L 33.258199 250.035068 
L 33.193867 249.310528 
L 33.150381 248.585987 
L 33.126282 247.861446 
L 33.12 247.136906 
L 33.12989 246.412365 
L 33.154282 245.687824 
L 33.191532 244.963284 
L 33.240072 244.238743 
L 33.298466 243.514202 
L 33.365459 242.789662 
L 33.440027 242.065121 
L 33.521414 241.34058 
L 33.609171 240.61604 
L 33.703175 239.891499 
L 33.803649 239.166958 
L 33.911154 238.442418 
L 34.02658 237.717877 
L 34.151121 236.993336 
L 34.286229 236.268796 
L 34.433563 235.544255 
L 34.594921 234.819714 
L 34.772164 234.095174 
L 34.967137 233.370633 
L 35.181577 232.646092 
L 35.417032 231.921552 
L 35.674773 231.197011 
L 35.955719 230.47247 
L 36.260373 229.74793 
L 36.588766 229.023389 
L 36.940422 228.298848 
L 37.314339 227.574308 
L 37.708987 226.849767 
L 38.12233 226.125226 
L 38.551854 225.400686 
L 38.994631 224.676145 
L 39.447383 223.951604 
L 39.906565 223.227064 
L 40.368458 222.502523 
L 40.829273 221.777982 
L 41.285252 221.053442 
L 41.732775 220.328901 
L 42.168466 219.60436 
L 42.589286 218.87982 
L 42.992623 218.155279 
L 43.376363 217.430738 
L 43.738952 216.706198 
L 44.079427 215.981657 
L 44.397442 215.257116 
L 44.693251 214.532575 
L 44.96769 213.808035 
L 45.222115 213.083494 
L 45.458335 212.358953 
L 45.678516 211.634413 
L 45.885082 210.909872 
L 46.080591 210.185331 
L 46.267627 209.460791 
L 46.448675 208.73625 
L 46.626019 208.011709 
L 46.801648 207.287169 
L 46.977178 206.562628 
L 47.153799 205.838087 
L 47.332249 205.113547 
L 53.467751 205.113547 
L 53.467751 205.113547 
L 53.646201 205.838087 
L 53.822822 206.562628 
L 53.998352 207.287169 
L 54.173981 208.011709 
L 54.351325 208.73625 
L 54.532373 209.460791 
L 54.719409 210.185331 
L 54.914918 210.909872 
L 55.121484 211.634413 
L 55.341665 212.358953 
L 55.577885 213.083494 
L 55.83231 213.808035 
L 56.106749 214.532575 
L 56.402558 215.257116 
L 56.720573 215.981657 
L 57.061048 216.706198 
L 57.423637 217.430738 
L 57.807377 218.155279 
L 58.210714 218.87982 
L 58.631534 219.60436 
L 59.067225 220.328901 
L 59.514748 221.053442 
L 59.970727 221.777982 
L 60.431542 222.502523 
L 60.893435 223.227064 
L 61.352617 223.951604 
L 61.805369 224.676145 
L 62.248146 225.400686 
L 62.67767 226.125226 
L 63.091013 226.849767 
L 63.485661 227.574308 
L 63.859578 228.298848 
L 64.211234 229.023389 
L 64.539627 229.74793 
L 64.844281 230.47247 
L 65.125227 231.197011 
L 65.382968 231.921552 
L 65.618423 232.646092 
L 65.832863 233.370633 
L 66.027836 234.095174 
L 66.205079 234.819714 
L 66.366437 235.544255 
L 66.513771 236.268796 
L 66.648879 236.993336 
L 66.77342 237.717877 
L 66.888846 238.442418 
L 66.996351 239.166958 
L 67.096825 239.891499 
L 67.190829 240.61604 
L 67.278586 241.34058 
L 67.359973 242.065121 
L 67.434541 242.789662 
L 67.501534 243.514202 
L 67.559928 244.238743 
L 67.608468 244.963284 
L 67.645718 245.687824 
L 67.67011 246.412365 
L 67.68 247.136906 
L 67.673718 247.861446 
L 67.649619 248.585987 
L 67.606133 249.310528 
L 67.541801 250.035068 
L 67.455315 250.759609 
L 67.345542 251.48415 
L 67.211544 252.20869 
L 67.052586 252.933231 
L 66.86814 253.657772 
L 66.657877 254.382313 
L 66.42166 255.106853 
L 66.159529 255.831394 
L 65.871684 256.555935 
L 65.558473 257.280475 
L 65.220385 258.005016 
L 64.858041 258.729557 
L 64.472204 259.454097 
L 64.063786 260.178638 
L 63.633867 260.903179 
L 63.183717 261.627719 
L 62.714824 262.35226 
L 62.228912 263.076801 
L 61.727967 263.801341 
L 61.214242 264.525882 
L 60.690259 265.250423 
L 60.158791 265.974963 
L 59.622831 266.699504 
L 59.085547 267.424045 
L 58.550214 268.148585 
L 58.020145 268.873126 
L 57.498607 269.597667 
L 56.988738 270.322207 
L 56.493463 271.046748 
L 56.015419 271.771289 
L 55.556892 272.495829 
L 55.119767 273.22037 
L 54.705501 273.944911 
L 54.315109 274.669451 
L 53.949174 275.393992 
L 53.607868 276.118533 
L 53.290996 276.843073 
L 53.290996 276.843073 
z
" clip-path="url(#p9afbf43375)" style="fill: none; stroke: #000000; stroke-opacity: 0.3"/>
   </g>
   <g id="FillBetweenPolyCollection_4">
    <path d="M 53.829589 277.111998 
L 46.970411 277.111998 
L 46.667563 276.349222 
L 46.360859 275.586446 
L 46.051175 274.82367 
L 45.73883 274.060894 
L 45.423515 273.298118 
L 45.104274 272.535342 
L 44.779517 271.772566 
L 44.447085 271.00979 
L 44.104366 270.247014 
L 43.748448 269.484238 
L 43.376314 268.721461 
L 42.985062 267.958685 
L 42.572138 267.195909 
L 42.135575 266.433133 
L 41.674204 265.670357 
L 41.18785 264.907581 
L 40.677463 264.144805 
L 40.145206 263.382029 
L 39.594465 262.619253 
L 39.0298 261.856477 
L 38.456814 261.093701 
L 37.881968 260.330925 
L 37.312346 259.568149 
L 36.755372 258.805372 
L 36.218525 258.042596 
L 35.709038 257.27982 
L 35.233627 256.517044 
L 34.798249 255.754268 
L 34.407909 254.991492 
L 34.066524 254.228716 
L 33.776842 253.46594 
L 33.540426 252.703164 
L 33.35768 251.940388 
L 33.227931 251.177612 
L 33.149533 250.414836 
L 33.12 249.65206 
L 33.136152 248.889283 
L 33.194264 248.126507 
L 33.290218 247.363731 
L 33.419652 246.600955 
L 33.578101 245.838179 
L 33.761141 245.075403 
L 33.964521 244.312627 
L 34.18429 243.549851 
L 34.416919 242.787075 
L 34.659406 242.024299 
L 34.909353 241.261523 
L 35.165026 240.498747 
L 35.425372 239.735971 
L 35.689993 238.973194 
L 35.95908 238.210418 
L 36.2333 237.447642 
L 36.513644 236.684866 
L 36.801251 235.92209 
L 37.097212 235.159314 
L 37.402376 234.396538 
L 37.717176 233.633762 
L 38.04149 232.870986 
L 38.374549 232.10821 
L 38.714906 231.345434 
L 39.060471 230.582658 
L 39.408601 229.819882 
L 39.756256 229.057106 
L 40.100194 228.294329 
L 40.437195 227.531553 
L 40.764294 226.768777 
L 41.079007 226.006001 
L 41.379524 225.243225 
L 41.664856 224.480449 
L 41.934927 223.717673 
L 42.190594 222.954897 
L 42.433598 222.192121 
L 42.666448 221.429345 
L 42.892246 220.666569 
L 43.114469 219.903793 
L 43.336712 219.141017 
L 43.562439 218.37824 
L 43.794726 217.615464 
L 44.036052 216.852688 
L 44.288119 216.089912 
L 44.551751 215.327136 
L 44.826839 214.56436 
L 45.112372 213.801584 
L 45.40652 213.038808 
L 45.706778 212.276032 
L 46.010145 211.513256 
L 46.313335 210.75048 
L 46.612986 209.987704 
L 46.905865 209.224928 
L 47.189043 208.462151 
L 47.460037 207.699375 
L 47.7169 206.936599 
L 47.958274 206.173823 
L 48.183388 205.411047 
L 48.39202 204.648271 
L 48.584424 203.885495 
L 48.761239 203.122719 
L 48.923379 202.359943 
L 49.071931 201.597167 
L 51.728069 201.597167 
L 51.728069 201.597167 
L 51.876621 202.359943 
L 52.038761 203.122719 
L 52.215576 203.885495 
L 52.40798 204.648271 
L 52.616612 205.411047 
L 52.841726 206.173823 
L 53.0831 206.936599 
L 53.339963 207.699375 
L 53.610957 208.462151 
L 53.894135 209.224928 
L 54.187014 209.987704 
L 54.486665 210.75048 
L 54.789855 211.513256 
L 55.093222 212.276032 
L 55.39348 213.038808 
L 55.687628 213.801584 
L 55.973161 214.56436 
L 56.248249 215.327136 
L 56.511881 216.089912 
L 56.763948 216.852688 
L 57.005274 217.615464 
L 57.237561 218.37824 
L 57.463288 219.141017 
L 57.685531 219.903793 
L 57.907754 220.666569 
L 58.133552 221.429345 
L 58.366402 222.192121 
L 58.609406 222.954897 
L 58.865073 223.717673 
L 59.135144 224.480449 
L 59.420476 225.243225 
L 59.720993 226.006001 
L 60.035706 226.768777 
L 60.362805 227.531553 
L 60.699806 228.294329 
L 61.043744 229.057106 
L 61.391399 229.819882 
L 61.739529 230.582658 
L 62.085094 231.345434 
L 62.425451 232.10821 
L 62.75851 232.870986 
L 63.082824 233.633762 
L 63.397624 234.396538 
L 63.702788 235.159314 
L 63.998749 235.92209 
L 64.286356 236.684866 
L 64.5667 237.447642 
L 64.84092 238.210418 
L 65.110007 238.973194 
L 65.374628 239.735971 
L 65.634974 240.498747 
L 65.890647 241.261523 
L 66.140594 242.024299 
L 66.383081 242.787075 
L 66.61571 243.549851 
L 66.835479 244.312627 
L 67.038859 245.075403 
L 67.221899 245.838179 
L 67.380348 246.600955 
L 67.509782 247.363731 
L 67.605736 248.126507 
L 67.663848 248.889283 
L 67.68 249.65206 
L 67.650467 250.414836 
L 67.572069 251.177612 
L 67.44232 251.940388 
L 67.259574 252.703164 
L 67.023158 253.46594 
L 66.733476 254.228716 
L 66.392091 254.991492 
L 66.001751 255.754268 
L 65.566373 256.517044 
L 65.090962 257.27982 
L 64.581475 258.042596 
L 64.044628 258.805372 
L 63.487654 259.568149 
L 62.918032 260.330925 
L 62.343186 261.093701 
L 61.7702 261.856477 
L 61.205535 262.619253 
L 60.654794 263.382029 
L 60.122537 264.144805 
L 59.61215 264.907581 
L 59.125796 265.670357 
L 58.664425 266.433133 
L 58.227862 267.195909 
L 57.814938 267.958685 
L 57.423686 268.721461 
L 57.051552 269.484238 
L 56.695634 270.247014 
L 56.352915 271.00979 
L 56.020483 271.772566 
L 55.695726 272.535342 
L 55.376485 273.298118 
L 55.06117 274.060894 
L 54.748825 274.82367 
L 54.439141 275.586446 
L 54.132437 276.349222 
L 53.829589 277.111998 
L 53.829589 277.111998 
z
" clip-path="url(#p9afbf43375)" style="fill: none; stroke: #000000; stroke-opacity: 0.3"/>
   </g>
   <g id="FillBetweenPolyCollection_5">
    <path d="M 108.593552 281.331257 
L 107.406448 281.331257 
L 107.330316 280.441168 
L 107.245812 279.551078 
L 107.150485 278.660988 
L 107.041663 277.770898 
L 106.916784 276.880809 
L 106.773783 275.990719 
L 106.61149 275.100629 
L 106.429977 274.21054 
L 106.230795 273.32045 
L 106.017044 272.43036 
L 105.793232 271.54027 
L 105.564936 270.650181 
L 105.338255 269.760091 
L 105.119144 268.870001 
L 104.912669 267.979911 
L 104.722302 267.089822 
L 104.549329 266.199732 
L 104.392456 265.309642 
L 104.24767 264.419553 
L 104.108391 263.529463 
L 103.965901 262.639373 
L 103.810032 261.749283 
L 103.630052 260.859194 
L 103.415638 259.969104 
L 103.157863 259.079014 
L 102.850043 258.188925 
L 102.488353 257.298835 
L 102.072113 256.408745 
L 101.60369 255.518655 
L 101.088025 254.628566 
L 100.531846 253.738476 
L 99.942705 252.848386 
L 99.327982 251.958296 
L 98.694059 251.068207 
L 98.045806 250.178117 
L 97.386496 249.288027 
L 96.718186 248.397938 
L 96.042522 247.507848 
L 95.361827 246.617758 
L 94.680298 245.727668 
L 94.005073 244.837579 
L 93.346966 243.947489 
L 92.720672 243.057399 
L 92.144352 242.16731 
L 91.638582 241.27722 
L 91.224759 240.38713 
L 90.923151 239.49704 
L 90.750866 238.606951 
L 90.72 237.716861 
L 90.836257 236.826771 
L 91.09822 235.936681 
L 91.497384 235.046592 
L 92.018923 234.156502 
L 92.643063 233.266412 
L 93.346844 232.376323 
L 94.106017 231.486233 
L 94.896834 230.596143 
L 95.697526 229.706053 
L 96.489367 228.815964 
L 97.257258 227.925874 
L 97.989894 227.035784 
L 98.679572 226.145695 
L 99.32177 225.255605 
L 99.914595 224.365515 
L 100.458208 223.475425 
L 100.954283 222.585336 
L 101.405563 221.695246 
L 101.815529 220.805156 
L 102.18817 219.915066 
L 102.527856 219.024977 
L 102.839255 218.134887 
L 103.12728 217.244797 
L 103.397011 216.354708 
L 103.653561 215.464618 
L 103.901883 214.574528 
L 104.146511 213.684438 
L 104.391265 212.794349 
L 104.638962 211.904259 
L 104.891173 211.014169 
L 105.148077 210.12408 
L 105.408435 209.23399 
L 105.669702 208.3439 
L 105.928263 207.45381 
L 106.179784 206.563721 
L 106.41961 205.673631 
L 106.643204 204.783541 
L 106.846547 203.893451 
L 107.026485 203.003362 
L 107.180987 202.113272 
L 107.30929 201.223182 
L 107.411934 200.333093 
L 107.490682 199.443003 
L 107.548343 198.552913 
L 107.588512 197.662823 
L 107.615253 196.772734 
L 107.632758 195.882644 
L 107.645019 194.992554 
L 107.655526 194.102465 
L 107.66705 193.212375 
L 108.33295 193.212375 
L 108.33295 193.212375 
L 108.344474 194.102465 
L 108.354981 194.992554 
L 108.367242 195.882644 
L 108.384747 196.772734 
L 108.411488 197.662823 
L 108.451657 198.552913 
L 108.509318 199.443003 
L 108.588066 200.333093 
L 108.69071 201.223182 
L 108.819013 202.113272 
L 108.973515 203.003362 
L 109.153453 203.893451 
L 109.356796 204.783541 
L 109.58039 205.673631 
L 109.820216 206.563721 
L 110.071737 207.45381 
L 110.330298 208.3439 
L 110.591565 209.23399 
L 110.851923 210.12408 
L 111.108827 211.014169 
L 111.361038 211.904259 
L 111.608735 212.794349 
L 111.853489 213.684438 
L 112.098117 214.574528 
L 112.346439 215.464618 
L 112.602989 216.354708 
L 112.87272 217.244797 
L 113.160745 218.134887 
L 113.472144 219.024977 
L 113.81183 219.915066 
L 114.184471 220.805156 
L 114.594437 221.695246 
L 115.045717 222.585336 
L 115.541792 223.475425 
L 116.085405 224.365515 
L 116.67823 225.255605 
L 117.320428 226.145695 
L 118.010106 227.035784 
L 118.742742 227.925874 
L 119.510633 228.815964 
L 120.302474 229.706053 
L 121.103166 230.596143 
L 121.893983 231.486233 
L 122.653156 232.376323 
L 123.356937 233.266412 
L 123.981077 234.156502 
L 124.502616 235.046592 
L 124.90178 235.936681 
L 125.163743 236.826771 
L 125.28 237.716861 
L 125.249134 238.606951 
L 125.076849 239.49704 
L 124.775241 240.38713 
L 124.361418 241.27722 
L 123.855648 242.16731 
L 123.279328 243.057399 
L 122.653034 243.947489 
L 121.994927 244.837579 
L 121.319702 245.727668 
L 120.638173 246.617758 
L 119.957478 247.507848 
L 119.281814 248.397938 
L 118.613504 249.288027 
L 117.954194 250.178117 
L 117.305941 251.068207 
L 116.672018 251.958296 
L 116.057295 252.848386 
L 115.468154 253.738476 
L 114.911975 254.628566 
L 114.39631 255.518655 
L 113.927887 256.408745 
L 113.511647 257.298835 
L 113.149957 258.188925 
L 112.842137 259.079014 
L 112.584362 259.969104 
L 112.369948 260.859194 
L 112.189968 261.749283 
L 112.034099 262.639373 
L 111.891609 263.529463 
L 111.75233 264.419553 
L 111.607544 265.309642 
L 111.450671 266.199732 
L 111.277698 267.089822 
L 111.087331 267.979911 
L 110.880856 268.870001 
L 110.661745 269.760091 
L 110.435064 270.650181 
L 110.206768 271.54027 
L 109.982956 272.43036 
L 109.769205 273.32045 
L 109.570023 274.21054 
L 109.38851 275.100629 
L 109.226217 275.990719 
L 109.083216 276.880809 
L 108.958337 277.770898 
L 108.849515 278.660988 
L 108.754188 279.551078 
L 108.669684 280.441168 
L 108.593552 281.331257 
L 108.593552 281.331257 
z
" clip-path="url(#p9afbf43375)" style="fill: none; stroke: #000000; stroke-opacity: 0.3"/>
   </g>
   <g id="FillBetweenPolyCollection_6">
    <path d="M 108.92734 278.046361 
L 107.07266 278.046361 
L 106.93502 277.20811 
L 106.782267 276.369859 
L 106.613525 275.531609 
L 106.428186 274.693358 
L 106.225973 273.855107 
L 106.006952 273.016857 
L 105.771486 272.178606 
L 105.520111 271.340355 
L 105.253356 270.502105 
L 104.971503 269.663854 
L 104.674334 268.825603 
L 104.360875 267.987353 
L 104.029216 267.149102 
L 103.676416 266.310851 
L 103.298555 265.472601 
L 102.890952 264.63435 
L 102.448554 263.796099 
L 101.96649 262.957849 
L 101.440737 262.119598 
L 100.868835 261.281347 
L 100.250567 260.443097 
L 99.588512 259.604846 
L 98.888368 258.766595 
L 98.158987 257.928345 
L 97.412066 257.090094 
L 96.661513 256.251844 
L 95.922516 255.413593 
L 95.210425 254.575342 
L 94.539558 253.737092 
L 93.922074 252.898841 
L 93.367053 252.06059 
L 92.879889 251.22234 
L 92.462074 250.384089 
L 92.111384 249.545838 
L 91.822441 248.707588 
L 91.587562 247.869337 
L 91.397794 247.031086 
L 91.243986 246.192836 
L 91.117789 245.354585 
L 91.012463 244.516334 
L 90.923428 243.678084 
L 90.848508 242.839833 
L 90.787885 242.001582 
L 90.743792 241.163332 
L 90.72 240.325081 
L 90.721185 239.48683 
L 90.752243 238.64858 
L 90.817626 237.810329 
L 90.92078 236.972079 
L 91.063703 236.133828 
L 91.24669 235.295577 
L 91.468263 234.457327 
L 91.725284 233.619076 
L 92.013258 232.780825 
L 92.326763 231.942575 
L 92.659989 231.104324 
L 93.007313 230.266073 
L 93.363841 229.427823 
L 93.725863 228.589572 
L 94.091143 227.751321 
L 94.459018 226.913071 
L 94.83027 226.07482 
L 95.206795 225.236569 
L 95.5911 224.398319 
L 95.985715 223.560068 
L 96.392591 222.721817 
L 96.812596 221.883567 
L 97.245184 221.045316 
L 97.688293 220.207065 
L 98.138501 219.368815 
L 98.591402 218.530564 
L 99.042158 217.692313 
L 99.486114 216.854063 
L 99.919385 216.015812 
L 100.339313 215.177562 
L 100.744712 214.339311 
L 101.13586 213.50106 
L 101.514264 212.66281 
L 101.882218 211.824559 
L 102.24225 210.986308 
L 102.596554 210.148058 
L 102.946502 209.309807 
L 103.292313 208.471556 
L 103.632931 207.633306 
L 103.966128 206.795055 
L 104.288799 205.956804 
L 104.597397 205.118554 
L 104.888438 204.280303 
L 105.158982 203.442052 
L 105.407027 202.603802 
L 105.631769 201.765551 
L 105.833672 200.9273 
L 106.014383 200.08905 
L 106.176491 199.250799 
L 106.323189 198.412548 
L 106.457884 197.574298 
L 106.583826 196.736047 
L 106.703784 195.897797 
L 106.819826 195.059546 
L 109.180174 195.059546 
L 109.180174 195.059546 
L 109.296216 195.897797 
L 109.416174 196.736047 
L 109.542116 197.574298 
L 109.676811 198.412548 
L 109.823509 199.250799 
L 109.985617 200.08905 
L 110.166328 200.9273 
L 110.368231 201.765551 
L 110.592973 202.603802 
L 110.841018 203.442052 
L 111.111562 204.280303 
L 111.402603 205.118554 
L 111.711201 205.956804 
L 112.033872 206.795055 
L 112.367069 207.633306 
L 112.707687 208.471556 
L 113.053498 209.309807 
L 113.403446 210.148058 
L 113.75775 210.986308 
L 114.117782 211.824559 
L 114.485736 212.66281 
L 114.86414 213.50106 
L 115.255288 214.339311 
L 115.660687 215.177562 
L 116.080615 216.015812 
L 116.513886 216.854063 
L 116.957842 217.692313 
L 117.408598 218.530564 
L 117.861499 219.368815 
L 118.311707 220.207065 
L 118.754816 221.045316 
L 119.187404 221.883567 
L 119.607409 222.721817 
L 120.014285 223.560068 
L 120.4089 224.398319 
L 120.793205 225.236569 
L 121.16973 226.07482 
L 121.540982 226.913071 
L 121.908857 227.751321 
L 122.274137 228.589572 
L 122.636159 229.427823 
L 122.992687 230.266073 
L 123.340011 231.104324 
L 123.673237 231.942575 
L 123.986742 232.780825 
L 124.274716 233.619076 
L 124.531737 234.457327 
L 124.75331 235.295577 
L 124.936297 236.133828 
L 125.07922 236.972079 
L 125.182374 237.810329 
L 125.247757 238.64858 
L 125.278815 239.48683 
L 125.28 240.325081 
L 125.256208 241.163332 
L 125.212115 242.001582 
L 125.151492 242.839833 
L 125.076572 243.678084 
L 124.987537 244.516334 
L 124.882211 245.354585 
L 124.756014 246.192836 
L 124.602206 247.031086 
L 124.412438 247.869337 
L 124.177559 248.707588 
L 123.888616 249.545838 
L 123.537926 250.384089 
L 123.120111 251.22234 
L 122.632947 252.06059 
L 122.077926 252.898841 
L 121.460442 253.737092 
L 120.789575 254.575342 
L 120.077484 255.413593 
L 119.338487 256.251844 
L 118.587934 257.090094 
L 117.841013 257.928345 
L 117.111632 258.766595 
L 116.411488 259.604846 
L 115.749433 260.443097 
L 115.131165 261.281347 
L 114.559263 262.119598 
L 114.03351 262.957849 
L 113.551446 263.796099 
L 113.109048 264.63435 
L 112.701445 265.472601 
L 112.323584 266.310851 
L 111.970784 267.149102 
L 111.639125 267.987353 
L 111.325666 268.825603 
L 111.028497 269.663854 
L 110.746644 270.502105 
L 110.479889 271.340355 
L 110.228514 272.178606 
L 109.993048 273.016857 
L 109.774027 273.855107 
L 109.571814 274.693358 
L 109.386475 275.531609 
L 109.217733 276.369859 
L 109.06498 277.20811 
L 108.92734 278.046361 
L 108.92734 278.046361 
z
" clip-path="url(#p9afbf43375)" style="fill: none; stroke: #000000; stroke-opacity: 0.3"/>
   </g>
   <g id="FillBetweenPolyCollection_7">
    <path d="M 110.717646 261.871229 
L 105.282354 261.871229 
L 105.099978 261.280136 
L 104.919815 260.689044 
L 104.742908 260.097952 
L 104.570117 259.506859 
L 104.402084 258.915767 
L 104.239206 258.324675 
L 104.081611 257.733582 
L 103.929141 257.14249 
L 103.781344 256.551397 
L 103.637474 255.960305 
L 103.496494 255.369213 
L 103.357085 254.77812 
L 103.217666 254.187028 
L 103.07641 253.595935 
L 102.931276 253.004843 
L 102.780031 252.413751 
L 102.620288 251.822658 
L 102.449544 251.231566 
L 102.26522 250.640473 
L 102.064715 250.049381 
L 101.845454 249.458289 
L 101.604957 248.867196 
L 101.340901 248.276104 
L 101.051203 247.685011 
L 100.734092 247.093919 
L 100.388203 246.502827 
L 100.012662 245.911734 
L 99.607169 245.320642 
L 99.172084 244.729549 
L 98.708498 244.138457 
L 98.218293 243.547365 
L 97.704175 242.956272 
L 97.169702 242.36518 
L 96.61926 241.774087 
L 96.058033 241.182995 
L 95.491922 240.591903 
L 94.92744 240.00081 
L 94.371572 239.409718 
L 93.831611 238.818625 
L 93.314962 238.227533 
L 92.828931 237.636441 
L 92.38051 237.045348 
L 91.97615 236.454256 
L 91.621551 235.863163 
L 91.321466 235.272071 
L 91.079537 234.680979 
L 90.898162 234.089886 
L 90.778413 233.498794 
L 90.72 232.907701 
L 90.721288 232.316609 
L 90.779371 231.725517 
L 90.890195 231.134424 
L 91.048731 230.543332 
L 91.249189 229.952239 
L 91.485261 229.361147 
L 91.750388 228.770055 
L 92.038029 228.178962 
L 92.341931 227.58787 
L 92.656379 226.996777 
L 92.976409 226.405685 
L 93.297987 225.814593 
L 93.618132 225.2235 
L 93.934982 224.632408 
L 94.247805 224.041315 
L 94.556938 223.450223 
L 94.863682 222.859131 
L 95.170139 222.268038 
L 95.479012 221.676946 
L 95.79337 221.085853 
L 96.116412 220.494761 
L 96.451212 219.903669 
L 96.800494 219.312576 
L 97.16642 218.721484 
L 97.550427 218.130391 
L 97.953101 217.539299 
L 98.374111 216.948207 
L 98.812189 216.357114 
L 99.265173 215.766022 
L 99.730089 215.174929 
L 100.203287 214.583837 
L 100.680602 213.992745 
L 101.157537 213.401652 
L 101.629467 212.81056 
L 102.091832 212.219467 
L 102.540323 211.628375 
L 102.971053 211.037283 
L 103.380688 210.44619 
L 103.766556 209.855098 
L 104.126709 209.264005 
L 104.459951 208.672913 
L 104.765832 208.081821 
L 105.044599 207.490728 
L 105.297128 206.899636 
L 105.524827 206.308543 
L 105.729524 205.717451 
L 105.913349 205.126359 
L 106.07861 204.535266 
L 106.22768 203.944174 
L 106.362888 203.353081 
L 109.637112 203.353081 
L 109.637112 203.353081 
L 109.77232 203.944174 
L 109.92139 204.535266 
L 110.086651 205.126359 
L 110.270476 205.717451 
L 110.475173 206.308543 
L 110.702872 206.899636 
L 110.955401 207.490728 
L 111.234168 208.081821 
L 111.540049 208.672913 
L 111.873291 209.264005 
L 112.233444 209.855098 
L 112.619312 210.44619 
L 113.028947 211.037283 
L 113.459677 211.628375 
L 113.908168 212.219467 
L 114.370533 212.81056 
L 114.842463 213.401652 
L 115.319398 213.992745 
L 115.796713 214.583837 
L 116.269911 215.174929 
L 116.734827 215.766022 
L 117.187811 216.357114 
L 117.625889 216.948207 
L 118.046899 217.539299 
L 118.449573 218.130391 
L 118.83358 218.721484 
L 119.199506 219.312576 
L 119.548788 219.903669 
L 119.883588 220.494761 
L 120.20663 221.085853 
L 120.520988 221.676946 
L 120.829861 222.268038 
L 121.136318 222.859131 
L 121.443062 223.450223 
L 121.752195 224.041315 
L 122.065018 224.632408 
L 122.381868 225.2235 
L 122.702013 225.814593 
L 123.023591 226.405685 
L 123.343621 226.996777 
L 123.658069 227.58787 
L 123.961971 228.178962 
L 124.249612 228.770055 
L 124.514739 229.361147 
L 124.750811 229.952239 
L 124.951269 230.543332 
L 125.109805 231.134424 
L 125.220629 231.725517 
L 125.278712 232.316609 
L 125.28 232.907701 
L 125.221587 233.498794 
L 125.101838 234.089886 
L 124.920463 234.680979 
L 124.678534 235.272071 
L 124.378449 235.863163 
L 124.02385 236.454256 
L 123.61949 237.045348 
L 123.171069 237.636441 
L 122.685038 238.227533 
L 122.168389 238.818625 
L 121.628428 239.409718 
L 121.07256 240.00081 
L 120.508078 240.591903 
L 119.941967 241.182995 
L 119.38074 241.774087 
L 118.830298 242.36518 
L 118.295825 242.956272 
L 117.781707 243.547365 
L 117.291502 244.138457 
L 116.827916 244.729549 
L 116.392831 245.320642 
L 115.987338 245.911734 
L 115.611797 246.502827 
L 115.265908 247.093919 
L 114.948797 247.685011 
L 114.659099 248.276104 
L 114.395043 248.867196 
L 114.154546 249.458289 
L 113.935285 250.049381 
L 113.73478 250.640473 
L 113.550456 251.231566 
L 113.379712 251.822658 
L 113.219969 252.413751 
L 113.068724 253.004843 
L 112.92359 253.595935 
L 112.782334 254.187028 
L 112.642915 254.77812 
L 112.503506 255.369213 
L 112.362526 255.960305 
L 112.218656 256.551397 
L 112.070859 257.14249 
L 111.918389 257.733582 
L 111.760794 258.324675 
L 111.597916 258.915767 
L 111.429883 259.506859 
L 111.257092 260.097952 
L 111.080185 260.689044 
L 110.900022 261.280136 
L 110.717646 261.871229 
L 110.717646 261.871229 
z
" clip-path="url(#p9afbf43375)" style="fill: none; stroke: #000000; stroke-opacity: 0.3"/>
   </g>
   <g id="FillBetweenPolyCollection_8">
    <path d="M 112.05206 266.279138 
L 103.94794 266.279138 
L 103.476981 265.610269 
L 102.988105 264.941401 
L 102.483555 264.272532 
L 101.965204 263.603663 
L 101.434491 262.934795 
L 100.892438 262.265926 
L 100.339727 261.597057 
L 99.776839 260.928188 
L 99.204249 260.25932 
L 98.622648 259.590451 
L 98.033168 258.921582 
L 97.437586 258.252713 
L 96.838483 257.583845 
L 96.239331 256.914976 
L 95.644496 256.246107 
L 95.059155 255.577238 
L 94.489122 254.90837 
L 93.940613 254.239501 
L 93.419957 253.570632 
L 92.933295 252.901763 
L 92.486283 252.232895 
L 92.083843 251.564026 
L 91.729972 250.895157 
L 91.427625 250.226289 
L 91.178682 249.55742 
L 90.983978 248.888551 
L 90.84339 248.219682 
L 90.755957 247.550814 
L 90.72 246.881945 
L 90.733225 246.213076 
L 90.792794 245.544207 
L 90.895356 244.875339 
L 91.037034 244.20647 
L 91.213395 243.537601 
L 91.419421 242.868732 
L 91.649492 242.199864 
L 91.897439 241.530995 
L 92.156655 240.862126 
L 92.420292 240.193258 
L 92.681534 239.524389 
L 92.933944 238.85552 
L 93.17183 238.186651 
L 93.390626 237.517783 
L 93.587222 236.848914 
L 93.760218 236.180045 
L 93.910056 235.511176 
L 94.03903 234.842308 
L 94.151137 234.173439 
L 94.251804 233.50457 
L 94.347485 232.835701 
L 94.445183 232.166833 
L 94.551927 231.497964 
L 94.674234 230.829095 
L 94.817631 230.160226 
L 94.98624 229.491358 
L 95.182481 228.822489 
L 95.406909 228.15362 
L 95.658194 227.484752 
L 95.933247 226.815883 
L 96.22749 226.147014 
L 96.535239 225.478145 
L 96.850187 224.809277 
L 97.165936 224.140408 
L 97.476545 223.471539 
L 97.777053 222.80267 
L 98.063915 222.133802 
L 98.335326 221.464933 
L 98.59139 220.796064 
L 98.834117 220.127195 
L 99.067239 219.458327 
L 99.295863 218.789458 
L 99.525986 218.120589 
L 99.763924 217.45172 
L 100.015701 216.782852 
L 100.286474 216.113983 
L 100.58003 215.445114 
L 100.898424 214.776246 
L 101.241781 214.107377 
L 101.608266 213.438508 
L 101.994243 212.769639 
L 102.394574 212.100771 
L 102.803033 211.431902 
L 103.21279 210.763033 
L 103.616913 210.094164 
L 104.008836 209.425296 
L 104.382767 208.756427 
L 104.734002 208.087558 
L 105.059114 207.418689 
L 105.356042 206.749821 
L 105.62406 206.080952 
L 105.863657 205.412083 
L 106.076345 204.743215 
L 106.264415 204.074346 
L 106.430675 203.405477 
L 106.57819 202.736608 
L 106.710042 202.06774 
L 106.829124 201.398871 
L 106.937987 200.730002 
L 107.038737 200.061133 
L 108.961263 200.061133 
L 108.961263 200.061133 
L 109.062013 200.730002 
L 109.170876 201.398871 
L 109.289958 202.06774 
L 109.42181 202.736608 
L 109.569325 203.405477 
L 109.735585 204.074346 
L 109.923655 204.743215 
L 110.136343 205.412083 
L 110.37594 206.080952 
L 110.643958 206.749821 
L 110.940886 207.418689 
L 111.265998 208.087558 
L 111.617233 208.756427 
L 111.991164 209.425296 
L 112.383087 210.094164 
L 112.78721 210.763033 
L 113.196967 211.431902 
L 113.605426 212.100771 
L 114.005757 212.769639 
L 114.391734 213.438508 
L 114.758219 214.107377 
L 115.101576 214.776246 
L 115.41997 215.445114 
L 115.713526 216.113983 
L 115.984299 216.782852 
L 116.236076 217.45172 
L 116.474014 218.120589 
L 116.704137 218.789458 
L 116.932761 219.458327 
L 117.165883 220.127195 
L 117.40861 220.796064 
L 117.664674 221.464933 
L 117.936085 222.133802 
L 118.222947 222.80267 
L 118.523455 223.471539 
L 118.834064 224.140408 
L 119.149813 224.809277 
L 119.464761 225.478145 
L 119.77251 226.147014 
L 120.066753 226.815883 
L 120.341806 227.484752 
L 120.593091 228.15362 
L 120.817519 228.822489 
L 121.01376 229.491358 
L 121.182369 230.160226 
L 121.325766 230.829095 
L 121.448073 231.497964 
L 121.554817 232.166833 
L 121.652515 232.835701 
L 121.748196 233.50457 
L 121.848863 234.173439 
L 121.96097 234.842308 
L 122.089944 235.511176 
L 122.239782 236.180045 
L 122.412778 236.848914 
L 122.609374 237.517783 
L 122.82817 238.186651 
L 123.066056 238.85552 
L 123.318466 239.524389 
L 123.579708 240.193258 
L 123.843345 240.862126 
L 124.102561 241.530995 
L 124.350508 242.199864 
L 124.580579 242.868732 
L 124.786605 243.537601 
L 124.962966 244.20647 
L 125.104644 244.875339 
L 125.207206 245.544207 
L 125.266775 246.213076 
L 125.28 246.881945 
L 125.244043 247.550814 
L 125.15661 248.219682 
L 125.016022 248.888551 
L 124.821318 249.55742 
L 124.572375 250.226289 
L 124.270028 250.895157 
L 123.916157 251.564026 
L 123.513717 252.232895 
L 123.066705 252.901763 
L 122.580043 253.570632 
L 122.059387 254.239501 
L 121.510878 254.90837 
L 120.940845 255.577238 
L 120.355504 256.246107 
L 119.760669 256.914976 
L 119.161517 257.583845 
L 118.562414 258.252713 
L 117.966832 258.921582 
L 117.377352 259.590451 
L 116.795751 260.25932 
L 116.223161 260.928188 
L 115.660273 261.597057 
L 115.107562 262.265926 
L 114.565509 262.934795 
L 114.034796 263.603663 
L 113.516445 264.272532 
L 113.011895 264.941401 
L 112.523019 265.610269 
L 112.05206 266.279138 
L 112.05206 266.279138 
z
" clip-path="url(#p9afbf43375)" style="fill: none; stroke: #000000; stroke-opacity: 0.3"/>
   </g>
   <g id="matplotlib.axis_1"/>
   <g id="matplotlib.axis_2">
    <g id="ytick_1">
     <g id="line2d_1">
      <defs>
       <path id="m0945a1a96d" d="M 0 0 
L -3.5 0 
" style="stroke: #000000; stroke-width: 0.8"/>
      </defs>
      <g>
       <use xlink:href="#m0945a1a96d" x="21.6" y="291.6" style="stroke: #000000; stroke-width: 0.8"/>
      </g>
     </g>
    </g>
    <g id="ytick_2">
     <g id="line2d_2">
      <g>
       <use xlink:href="#m0945a1a96d" x="21.6" y="236.52" style="stroke: #000000; stroke-width: 0.8"/>
      </g>
     </g>
    </g>
    <g id="ytick_3">
     <g id="line2d_3">
      <g>
       <use xlink:href="#m0945a1a96d" x="21.6" y="181.44" style="stroke: #000000; stroke-width: 0.8"/>
      </g>
     </g>
    </g>
    <g id="ytick_4">
     <g id="line2d_4">
      <g>
       <use xlink:href="#m0945a1a96d" x="21.6" y="126.36" style="stroke: #000000; stroke-width: 0.8"/>
      </g>
     </g>
    </g>
    <g id="ytick_5">
     <g id="line2d_5">
      <g>
       <use xlink:href="#m0945a1a96d" x="21.6" y="71.28" style="stroke: #000000; stroke-width: 0.8"/>
      </g>
     </g>
    </g>
    <g id="ytick_6">
     <g id="line2d_6">
      <g>
       <use xlink:href="#m0945a1a96d" x="21.6" y="16.2" style="stroke: #000000; stroke-width: 0.8"/>
      </g>
     </g>
    </g>
   </g>
   <g id="line2d_7">
    <path d="M 50.4 269.568 
L 50.4 264.06 
" clip-path="url(#p9afbf43375)" style="fill: none; stroke: #000000; stroke-linecap: square"/>
   </g>
   <g id="line2d_8">
    <path d="M 50.4 269.568 
L 108 269.568 
" clip-path="url(#p9afbf43375)" style="fill: none; stroke: #000000; stroke-linecap: square"/>
   </g>
   <g id="line2d_9">
    <path d="M 108 269.568 
L 108 264.06 
" clip-path="url(#p9afbf43375)" style="fill: none; stroke: #000000; stroke-linecap: square"/>
   </g>
   <g id="patch_3">
    <path d="M 21.6 291.6 
L 21.6 16.2 
" style="fill: none; stroke: #000000; stroke-width: 0.8; stroke-linejoin: miter; stroke-linecap: square"/>
   </g>
   <g id="patch_4">
    <path d="M 136.8 291.6 
L 136.8 16.2 
" style="fill: none; stroke: #000000; stroke-width: 0.8; stroke-linejoin: miter; stroke-linecap: square"/>
   </g>
   <g id="patch_5">
    <path d="M 21.6 291.6 
L 136.8 291.6 
" style="fill: none; stroke: #000000; stroke-width: 0.8; stroke-linejoin: miter; stroke-linecap: square"/>
   </g>
   <g id="patch_6">
    <path d="M 21.6 16.2 
L 136.8 16.2 
" style="fill: none; stroke: #000000; stroke-width: 0.8; stroke-linejoin: miter; stroke-linecap: square"/>
   </g>
   <g id="text_1">
    <text style="font-weight: 700; font-size: 12px; font-family: 'DejaVu Sans', 'Bitstream Vera Sans', 'Computer Modern Sans Serif', 'Lucida Grande', 'Verdana', 'Geneva', 'Lucid', 'Arial', 'Helvetica', 'Avant Garde', sans-serif; text-anchor: middle" x="50.4" y="289.104375" transform="rotate(-0 50.4 289.104375)">#41</text>
   </g>
   <g id="text_2">
    <text style="font-weight: 700; font-size: 12px; font-family: 'DejaVu Sans', 'Bitstream Vera Sans', 'Computer Modern Sans Serif', 'Lucida Grande', 'Verdana', 'Geneva', 'Lucid', 'Arial', 'Helvetica', 'Avant Garde', sans-serif; text-anchor: middle" x="108" y="289.104375" transform="rotate(-0 108 289.104375)">#42</text>
   </g>
   <g id="text_3">
    <text style="font-size: 12px; font-family: 'DejaVu Sans', 'Bitstream Vera Sans', 'Computer Modern Sans Serif', 'Lucida Grande', 'Verdana', 'Geneva', 'Lucid', 'Arial', 'Helvetica', 'Avant Garde', sans-serif; text-anchor: middle" x="79.2" y="268.449375" transform="rotate(-0 79.2 268.449375)">*</text>
   </g>
   <g id="line2d_10">
    <path d="M 21.6 244.438755 
L 136.8 244.438755 
" clip-path="url(#p9afbf43375)" style="fill: none; stroke-dasharray: 3.7,1.6; stroke-dashoffset: 0; stroke: #808080; stroke-opacity: 0.7"/>
   </g>
   <g id="line2d_11">
    <path d="M 21.6 237.639709 
L 136.8 237.639709 
" clip-path="url(#p9afbf43375)" style="fill: none; stroke-dasharray: 3.7,1.6; stroke-dashoffset: 0; stroke: #808080; stroke-opacity: 0.7"/>
   </g>
   <g id="LineCollection_1">
    <path d="M 50.4 247.555904 
L 50.4 241.321605 
" clip-path="url(#p9afbf43375)" style="fill: none; stroke: #000000; stroke-width: 2"/>
   </g>
   <g id="line2d_12">
    <defs>
     <path id="m6f8414f67b" d="M 5 0 
L -5 -0 
" style="stroke: #000000; stroke-width: 2"/>
    </defs>
    <g clip-path="url(#p9afbf43375)">
     <use xlink:href="#m6f8414f67b" x="50.4" y="247.555904" style="stroke: #000000; stroke-width: 2"/>
    </g>
   </g>
   <g id="line2d_13">
    <g clip-path="url(#p9afbf43375)">
     <use xlink:href="#m6f8414f67b" x="50.4" y="241.321605" style="stroke: #000000; stroke-width: 2"/>
    </g>
   </g>
   <g id="LineCollection_2">
    <path d="M 108 241.131695 
L 108 234.147722 
" clip-path="url(#p9afbf43375)" style="fill: none; stroke: #000000; stroke-width: 2"/>
   </g>
   <g id="line2d_14">
    <g clip-path="url(#p9afbf43375)">
     <use xlink:href="#m6f8414f67b" x="108" y="241.131695" style="stroke: #000000; stroke-width: 2"/>
    </g>
   </g>
   <g id="line2d_15">
    <g clip-path="url(#p9afbf43375)">
     <use xlink:href="#m6f8414f67b" x="108" y="234.147722" style="stroke: #000000; stroke-width: 2"/>
    </g>
   </g>
   <g id="line2d_16">
    <defs>
     <path id="m5e428b9ac3" d="M 0 4 
C 1.060812 4 2.078319 3.578535 2.828427 2.828427 
C 3.578535 2.078319 4 1.060812 4 0 
C 4 -1.060812 3.578535 -2.078319 2.828427 -2.828427 
C 2.078319 -3.578535 1.060812 -4 0 -4 
C -1.060812 -4 -2.078319 -3.578535 -2.828427 -2.828427 
C -3.578535 -2.078319 -4 -1.060812 -4 0 
C -4 1.060812 -3.578535 2.078319 -2.828427 2.828427 
C -2.078319 3.578535 -1.060812 4 0 4 
z
" style="stroke: #000000"/>
    </defs>
    <g clip-path="url(#p9afbf43375)">
     <use xlink:href="#m5e428b9ac3" x="50.4" y="244.438755" style="stroke: #000000"/>
    </g>
   </g>
   <g id="line2d_17">
    <g clip-path="url(#p9afbf43375)">
     <use xlink:href="#m5e428b9ac3" x="108" y="237.639709" style="stroke: #000000"/>
    </g>
   </g>
  </g>
 </g>
 <defs>
  <clipPath id="p9afbf43375">
   <rect x="21.6" y="16.2" width="115.2" height="275.4"/>
  </clipPath>
 </defs>
</svg>
