<?xml version="1.0" encoding="utf-8" standalone="no"?>
<!DOCTYPE svg PUBLIC "-//W3C//DTD SVG 1.1//EN"
  "http://www.w3.org/Graphics/SVG/1.1/DTD/svg11.dtd">
<svg xmlns:xlink="http://www.w3.org/1999/xlink" width="144pt" height="324pt" viewBox="0 0 144 324" xmlns="http://www.w3.org/2000/svg" version="1.1">
 <metadata>
  <rdf:RDF xmlns:dc="http://purl.org/dc/elements/1.1/" xmlns:cc="http://creativecommons.org/ns#" xmlns:rdf="http://www.w3.org/1999/02/22-rdf-syntax-ns#">
   <cc:Work>
    <dc:type rdf:resource="http://purl.org/dc/dcmitype/StillImage"/>
    <dc:date>2025-12-11T09:10:03.785576</dc:date>
    <dc:format>image/svg+xml</dc:format>
    <dc:creator>
     <cc:Agent>
      <dc:title>Matplotlib v3.10.0, https://matplotlib.org/</dc:title>
     </cc:Agent>
    </dc:creator>
   </cc:Work>
  </rdf:RDF>
 </metadata>
 <defs>
  <style type="text/css">*{stroke-linejoin: round; stroke-linecap: butt}</style>
 </defs>
 <g id="figure_1">
  <g id="patch_1">
   <path d="M 0 324 
L 144 324 
L 144 0 
L 0 0 
z
" style="fill: #ffffff"/>
  </g>
  <g id="axes_1">
   <g id="patch_2">
    <path d="M 21.6 291.6 
L 136.8 291.6 
L 136.8 16.2 
L 21.6 16.2 
z
" style="fill: #ffffff"/>
   </g>
   <g id="FillBetweenPolyCollection_1">
    <path d="M 51.778961 223.760572 
L 49.021039 223.760572 
L 48.842742 222.654742 
L 48.653536 221.548913 
L 48.45242 220.443083 
L 48.238089 219.337254 
L 48.009149 218.231424 
L 47.764407 217.125595 
L 47.503182 216.019765 
L 47.22559 214.913936 
L 46.932735 213.808106 
L 46.62678 212.702277 
L 46.310833 211.596447 
L 45.988685 210.490618 
L 45.664378 209.384788 
L 45.341694 208.278959 
L 45.02361 207.173129 
L 44.711812 206.0673 
L 44.406345 204.96147 
L 44.105453 203.855641 
L 43.805647 202.749811 
L 43.501993 201.643982 
L 43.188581 200.538152 
L 42.859111 199.432323 
L 42.507517 198.326493 
L 42.128536 197.220664 
L 41.718173 196.114834 
L 41.274005 195.009005 
L 40.795322 193.903175 
L 40.283136 192.797346 
L 39.740088 191.691516 
L 39.17031 190.585687 
L 38.579297 189.479857 
L 37.9738 188.374028 
L 37.361759 187.268198 
L 36.752238 186.162369 
L 36.155333 185.056539 
L 35.582006 183.95071 
L 35.043795 182.84488 
L 34.552403 181.739051 
L 34.119161 180.633221 
L 33.754419 179.527392 
L 33.466915 178.421562 
L 33.263205 177.315733 
L 33.147217 176.209903 
L 33.12 175.104074 
L 33.179678 173.998244 
L 33.321626 172.892415 
L 33.538831 171.786585 
L 33.822387 170.680756 
L 34.162075 169.574926 
L 34.54694 168.469097 
L 34.965844 167.363267 
L 35.407939 166.257438 
L 35.863063 165.151609 
L 36.322056 164.045779 
L 36.777022 162.93995 
L 37.221548 161.83412 
L 37.6509 160.728291 
L 38.062178 159.622461 
L 38.454416 158.516632 
L 38.828587 157.410802 
L 39.187475 156.304973 
L 39.535385 155.199143 
L 39.877677 154.093314 
L 40.220158 152.987484 
L 40.568378 151.881655 
L 40.92692 150.775825 
L 41.29878 149.669996 
L 41.684932 148.564166 
L 42.084153 147.458337 
L 42.493142 146.352507 
L 42.906919 145.246678 
L 43.319456 144.140848 
L 43.724438 143.035019 
L 44.11605 141.929189 
L 44.489659 140.82336 
L 44.842309 139.71753 
L 45.172954 138.611701 
L 45.482412 137.505871 
L 45.773063 136.400042 
L 46.048352 135.294212 
L 46.312184 134.188383 
L 46.568309 133.082553 
L 46.819782 131.976724 
L 47.068585 130.870894 
L 47.315434 129.765065 
L 47.559791 128.659235 
L 47.800055 127.553406 
L 48.033889 126.447576 
L 48.258611 125.341747 
L 48.471598 124.235917 
L 48.670633 123.130088 
L 48.854156 122.024258 
L 49.021406 120.918429 
L 49.172427 119.812599 
L 49.307977 118.70677 
L 49.429359 117.60094 
L 49.538207 116.495111 
L 49.636263 115.389281 
L 49.725184 114.283452 
L 51.074816 114.283452 
L 51.074816 114.283452 
L 51.163737 115.389281 
L 51.261793 116.495111 
L 51.370641 117.60094 
L 51.492023 118.70677 
L 51.627573 119.812599 
L 51.778594 120.918429 
L 51.945844 122.024258 
L 52.129367 123.130088 
L 52.328402 124.235917 
L 52.541389 125.341747 
L 52.766111 126.447576 
L 52.999945 127.553406 
L 53.240209 128.659235 
L 53.484566 129.765065 
L 53.731415 130.870894 
L 53.980218 131.976724 
L 54.231691 133.082553 
L 54.487816 134.188383 
L 54.751648 135.294212 
L 55.026937 136.400042 
L 55.317588 137.505871 
L 55.627046 138.611701 
L 55.957691 139.71753 
L 56.310341 140.82336 
L 56.68395 141.929189 
L 57.075562 143.035019 
L 57.480544 144.140848 
L 57.893081 145.246678 
L 58.306858 146.352507 
L 58.715847 147.458337 
L 59.115068 148.564166 
L 59.50122 149.669996 
L 59.87308 150.775825 
L 60.231622 151.881655 
L 60.579842 152.987484 
L 60.922323 154.093314 
L 61.264615 155.199143 
L 61.612525 156.304973 
L 61.971413 157.410802 
L 62.345584 158.516632 
L 62.737822 159.622461 
L 63.1491 160.728291 
L 63.578452 161.83412 
L 64.022978 162.93995 
L 64.477944 164.045779 
L 64.936937 165.151609 
L 65.392061 166.257438 
L 65.834156 167.363267 
L 66.25306 168.469097 
L 66.637925 169.574926 
L 66.977613 170.680756 
L 67.261169 171.786585 
L 67.478374 172.892415 
L 67.620322 173.998244 
L 67.68 175.104074 
L 67.652783 176.209903 
L 67.536795 177.315733 
L 67.333085 178.421562 
L 67.045581 179.527392 
L 66.680839 180.633221 
L 66.247597 181.739051 
L 65.756205 182.84488 
L 65.217994 183.95071 
L 64.644667 185.056539 
L 64.047762 186.162369 
L 63.438241 187.268198 
L 62.8262 188.374028 
L 62.220703 189.479857 
L 61.62969 190.585687 
L 61.059912 191.691516 
L 60.516864 192.797346 
L 60.004678 193.903175 
L 59.525995 195.009005 
L 59.081827 196.114834 
L 58.671464 197.220664 
L 58.292483 198.326493 
L 57.940889 199.432323 
L 57.611419 200.538152 
L 57.298007 201.643982 
L 56.994353 202.749811 
L 56.694547 203.855641 
L 56.393655 204.96147 
L 56.088188 206.0673 
L 55.77639 207.173129 
L 55.458306 208.278959 
L 55.135622 209.384788 
L 54.811315 210.490618 
L 54.489167 211.596447 
L 54.17322 212.702277 
L 53.867265 213.808106 
L 53.57441 214.913936 
L 53.296818 216.019765 
L 53.035593 217.125595 
L 52.790851 218.231424 
L 52.561911 219.337254 
L 52.34758 220.443083 
L 52.146464 221.548913 
L 51.957258 222.654742 
L 51.778961 223.760572 
L 51.778961 223.760572 
z
" clip-path="url(#p9540990f7f)" style="fill: none; stroke: #000000; stroke-opacity: 0.3"/>
   </g>
   <g id="FillBetweenPolyCollection_2">
    <path d="M 50.743562 294.231824 
L 50.056438 294.231824 
L 50.064178 291.996309 
L 50.086367 289.760794 
L 50.120139 287.525279 
L 50.1614 285.289765 
L 50.205639 283.05425 
L 50.24873 280.818735 
L 50.287512 278.58322 
L 50.320077 276.347705 
L 50.345745 274.112191 
L 50.36481 271.876676 
L 50.378192 269.641161 
L 50.387086 267.405646 
L 50.39269 265.170131 
L 50.396038 262.934617 
L 50.397925 260.699102 
L 50.398904 258.463587 
L 50.399313 256.228072 
L 50.399303 253.992557 
L 50.398858 251.757043 
L 50.397776 249.521528 
L 50.39562 247.286013 
L 50.391634 245.050498 
L 50.38463 242.814983 
L 50.372861 240.579469 
L 50.353911 238.343954 
L 50.32463 236.108439 
L 50.281126 233.872924 
L 50.218814 231.637409 
L 50.132478 229.401894 
L 50.016266 227.16638 
L 49.863512 224.930865 
L 49.666346 222.69535 
L 49.41513 220.459835 
L 49.09793 218.22432 
L 48.700392 215.988806 
L 48.206433 213.753291 
L 47.600059 211.517776 
L 46.868334 209.282261 
L 46.005034 207.046746 
L 45.014156 204.811232 
L 43.912205 202.575717 
L 42.728331 200.340202 
L 41.501907 198.104687 
L 40.277841 195.869172 
L 39.100589 193.633658 
L 38.008221 191.398143 
L 37.02788 189.162628 
L 36.17357 186.927113 
L 35.446622 184.691598 
L 34.838561 182.456084 
L 34.335642 180.220569 
L 33.923977 177.985054 
L 33.594159 175.749539 
L 33.344401 173.514024 
L 33.181569 171.278509 
L 33.12 169.042995 
L 33.178529 166.80748 
L 33.376512 164.571965 
L 33.729798 162.33645 
L 34.247403 160.100935 
L 34.929328 157.865421 
L 35.765617 155.629906 
L 36.736499 153.394391 
L 37.813473 151.158876 
L 38.961183 148.923361 
L 40.140018 146.687847 
L 41.309293 144.452332 
L 42.430717 142.216817 
L 43.471721 139.981302 
L 44.408143 137.745787 
L 45.225819 135.510273 
L 45.920863 133.274758 
L 46.498629 131.039243 
L 46.971635 128.803728 
L 47.356842 126.568213 
L 47.672779 124.332699 
L 47.936937 122.097184 
L 48.163783 119.861669 
L 48.363612 117.626154 
L 48.542318 115.390639 
L 48.702021 113.155125 
L 48.842348 110.91961 
L 48.962051 108.684095 
L 49.060571 106.44858 
L 49.139185 104.213065 
L 49.201453 101.97755 
L 49.252878 99.742036 
L 49.299883 97.506521 
L 49.348423 95.271006 
L 49.402667 93.035491 
L 49.464153 90.799976 
L 49.5317 88.564462 
L 49.602111 86.328947 
L 49.67141 84.093432 
L 49.736209 81.857917 
L 49.794744 79.622402 
L 49.847252 77.386888 
L 49.895633 75.151373 
L 49.942572 72.915858 
L 50.857428 72.915858 
L 50.857428 72.915858 
L 50.904367 75.151373 
L 50.952748 77.386888 
L 51.005256 79.622402 
L 51.063791 81.857917 
L 51.12859 84.093432 
L 51.197889 86.328947 
L 51.2683 88.564462 
L 51.335847 90.799976 
L 51.397333 93.035491 
L 51.451577 95.271006 
L 51.500117 97.506521 
L 51.547122 99.742036 
L 51.598547 101.97755 
L 51.660815 104.213065 
L 51.739429 106.44858 
L 51.837949 108.684095 
L 51.957652 110.91961 
L 52.097979 113.155125 
L 52.257682 115.390639 
L 52.436388 117.626154 
L 52.636217 119.861669 
L 52.863063 122.097184 
L 53.127221 124.332699 
L 53.443158 126.568213 
L 53.828365 128.803728 
L 54.301371 131.039243 
L 54.879137 133.274758 
L 55.574181 135.510273 
L 56.391857 137.745787 
L 57.328279 139.981302 
L 58.369283 142.216817 
L 59.490707 144.452332 
L 60.659982 146.687847 
L 61.838817 148.923361 
L 62.986527 151.158876 
L 64.063501 153.394391 
L 65.034383 155.629906 
L 65.870672 157.865421 
L 66.552597 160.100935 
L 67.070202 162.33645 
L 67.423488 164.571965 
L 67.621471 166.80748 
L 67.68 169.042995 
L 67.618431 171.278509 
L 67.455599 173.514024 
L 67.205841 175.749539 
L 66.876023 177.985054 
L 66.464358 180.220569 
L 65.961439 182.456084 
L 65.353378 184.691598 
L 64.62643 186.927113 
L 63.77212 189.162628 
L 62.791779 191.398143 
L 61.699411 193.633658 
L 60.522159 195.869172 
L 59.298093 198.104687 
L 58.071669 200.340202 
L 56.887795 202.575717 
L 55.785844 204.811232 
L 54.794966 207.046746 
L 53.931666 209.282261 
L 53.199941 211.517776 
L 52.593567 213.753291 
L 52.099608 215.988806 
L 51.70207 218.22432 
L 51.38487 220.459835 
L 51.133654 222.69535 
L 50.936488 224.930865 
L 50.783734 227.16638 
L 50.667522 229.401894 
L 50.581186 231.637409 
L 50.518874 233.872924 
L 50.47537 236.108439 
L 50.446089 238.343954 
L 50.427139 240.579469 
L 50.41537 242.814983 
L 50.408366 245.050498 
L 50.40438 247.286013 
L 50.402224 249.521528 
L 50.401142 251.757043 
L 50.400697 253.992557 
L 50.400687 256.228072 
L 50.401096 258.463587 
L 50.402075 260.699102 
L 50.403962 262.934617 
L 50.40731 265.170131 
L 50.412914 267.405646 
L 50.421808 269.641161 
L 50.43519 271.876676 
L 50.454255 274.112191 
L 50.479923 276.347705 
L 50.512488 278.58322 
L 50.55127 280.818735 
L 50.594361 283.05425 
L 50.6386 285.289765 
L 50.679861 287.525279 
L 50.713633 289.760794 
L 50.735822 291.996309 
L 50.743562 294.231824 
L 50.743562 294.231824 
z
" clip-path="url(#p9540990f7f)" style="fill: none; stroke: #000000; stroke-opacity: 0.3"/>
   </g>
   <g id="FillBetweenPolyCollection_3">
    <path d="M 50.674585 266.609067 
L 50.125415 266.609067 
L 50.127146 265.090201 
L 50.136503 263.571335 
L 50.151291 262.052469 
L 50.168532 260.533603 
L 50.184949 259.014738 
L 50.197493 257.495872 
L 50.20385 255.977006 
L 50.20281 254.45814 
L 50.194446 252.939275 
L 50.180074 251.420409 
L 50.161983 249.901543 
L 50.142988 248.382677 
L 50.125881 246.863812 
L 50.112871 245.344946 
L 50.105125 243.82608 
L 50.102503 242.307214 
L 50.103544 240.788348 
L 50.105696 239.269483 
L 50.105747 237.750617 
L 50.100343 236.231751 
L 50.086478 234.712885 
L 50.061846 233.19402 
L 50.024981 231.675154 
L 49.975176 230.156288 
L 49.912219 228.637422 
L 49.836034 227.118557 
L 49.746299 225.599691 
L 49.642127 224.080825 
L 49.521833 222.561959 
L 49.382781 221.043093 
L 49.221295 219.524228 
L 49.032597 218.005362 
L 48.810797 216.486496 
L 48.548954 214.96763 
L 48.239287 213.448765 
L 47.87356 211.929899 
L 47.44367 210.411033 
L 46.942363 208.892167 
L 46.363974 207.373302 
L 45.705078 205.854436 
L 44.96496 204.33557 
L 44.145899 202.816704 
L 43.253336 201.297838 
L 42.296021 199.778973 
L 41.286204 198.260107 
L 40.239878 196.741241 
L 39.176933 195.222375 
L 38.12106 193.70351 
L 37.099195 192.184644 
L 36.140413 190.665778 
L 35.274254 189.146912 
L 34.528602 187.628047 
L 33.927319 186.109181 
L 33.487856 184.590315 
L 33.219133 183.071449 
L 33.12 181.552584 
L 33.178642 180.033718 
L 33.373289 178.514852 
L 33.674466 176.995986 
L 34.048716 175.47712 
L 34.46337 173.958255 
L 34.891475 172.439389 
L 35.315772 170.920523 
L 35.730667 169.401657 
L 36.14155 167.882792 
L 36.561497 166.363926 
L 37.006159 164.84506 
L 37.488205 163.326194 
L 38.012838 161.807329 
L 38.575645 160.288463 
L 39.163313 158.769597 
L 39.75692 157.250731 
L 40.336771 155.731865 
L 40.88733 154.213 
L 41.40086 152.694134 
L 41.878826 151.175268 
L 42.330809 149.656402 
L 42.771395 148.137537 
L 43.215992 146.618671 
L 43.676744 145.099805 
L 44.159547 143.580939 
L 44.662772 142.062074 
L 45.177814 140.543208 
L 45.691111 139.024342 
L 46.186982 137.505476 
L 46.65057 135.98661 
L 47.070259 134.467745 
L 47.43918 132.948879 
L 47.755666 131.430013 
L 48.022796 129.911147 
L 48.247266 128.392282 
L 48.437926 126.873416 
L 48.60429 125.35455 
L 48.755249 123.835684 
L 48.898124 122.316819 
L 49.038114 120.797953 
L 49.178114 119.279087 
L 49.318853 117.760221 
L 49.459262 116.241355 
L 51.340738 116.241355 
L 51.340738 116.241355 
L 51.481147 117.760221 
L 51.621886 119.279087 
L 51.761886 120.797953 
L 51.901876 122.316819 
L 52.044751 123.835684 
L 52.19571 125.35455 
L 52.362074 126.873416 
L 52.552734 128.392282 
L 52.777204 129.911147 
L 53.044334 131.430013 
L 53.36082 132.948879 
L 53.729741 134.467745 
L 54.14943 135.98661 
L 54.613018 137.505476 
L 55.108889 139.024342 
L 55.622186 140.543208 
L 56.137228 142.062074 
L 56.640453 143.580939 
L 57.123256 145.099805 
L 57.584008 146.618671 
L 58.028605 148.137537 
L 58.469191 149.656402 
L 58.921174 151.175268 
L 59.39914 152.694134 
L 59.91267 154.213 
L 60.463229 155.731865 
L 61.04308 157.250731 
L 61.636687 158.769597 
L 62.224355 160.288463 
L 62.787162 161.807329 
L 63.311795 163.326194 
L 63.793841 164.84506 
L 64.238503 166.363926 
L 64.65845 167.882792 
L 65.069333 169.401657 
L 65.484228 170.920523 
L 65.908525 172.439389 
L 66.33663 173.958255 
L 66.751284 175.47712 
L 67.125534 176.995986 
L 67.426711 178.514852 
L 67.621358 180.033718 
L 67.68 181.552584 
L 67.580867 183.071449 
L 67.312144 184.590315 
L 66.872681 186.109181 
L 66.271398 187.628047 
L 65.525746 189.146912 
L 64.659587 190.665778 
L 63.700805 192.184644 
L 62.67894 193.70351 
L 61.623067 195.222375 
L 60.560122 196.741241 
L 59.513796 198.260107 
L 58.503979 199.778973 
L 57.546664 201.297838 
L 56.654101 202.816704 
L 55.83504 204.33557 
L 55.094922 205.854436 
L 54.436026 207.373302 
L 53.857637 208.892167 
L 53.35633 210.411033 
L 52.92644 211.929899 
L 52.560713 213.448765 
L 52.251046 214.96763 
L 51.989203 216.486496 
L 51.767403 218.005362 
L 51.578705 219.524228 
L 51.417219 221.043093 
L 51.278167 222.561959 
L 51.157873 224.080825 
L 51.053701 225.599691 
L 50.963966 227.118557 
L 50.887781 228.637422 
L 50.824824 230.156288 
L 50.775019 231.675154 
L 50.738154 233.19402 
L 50.713522 234.712885 
L 50.699657 236.231751 
L 50.694253 237.750617 
L 50.694304 239.269483 
L 50.696456 240.788348 
L 50.697497 242.307214 
L 50.694875 243.82608 
L 50.687129 245.344946 
L 50.674119 246.863812 
L 50.657012 248.382677 
L 50.638017 249.901543 
L 50.619926 251.420409 
L 50.605554 252.939275 
L 50.59719 254.45814 
L 50.59615 255.977006 
L 50.602507 257.495872 
L 50.615051 259.014738 
L 50.631468 260.533603 
L 50.648709 262.052469 
L 50.663497 263.571335 
L 50.672854 265.090201 
L 50.674585 266.609067 
L 50.674585 266.609067 
z
" clip-path="url(#p9540990f7f)" style="fill: none; stroke: #000000; stroke-opacity: 0.3"/>
   </g>
   <g id="FillBetweenPolyCollection_4">
    <path d="M 50.646215 242.382839 
L 50.153785 242.382839 
L 50.156082 241.093519 
L 50.165228 239.804199 
L 50.179479 238.514878 
L 50.196373 237.225558 
L 50.213035 235.936238 
L 50.226527 234.646917 
L 50.234179 233.357597 
L 50.233852 232.068277 
L 50.224089 230.778957 
L 50.204134 229.489636 
L 50.17383 228.200316 
L 50.133391 226.910996 
L 50.083104 225.621675 
L 50.02298 224.332355 
L 49.952429 223.043035 
L 49.869993 221.753714 
L 49.773198 220.464394 
L 49.658538 219.175074 
L 49.521607 217.885754 
L 49.357347 216.596433 
L 49.160389 215.307113 
L 48.925464 214.017793 
L 48.647844 212.728472 
L 48.323833 211.439152 
L 47.951292 210.149832 
L 47.530185 208.860512 
L 47.063087 207.571191 
L 46.555561 206.281871 
L 46.016248 204.992551 
L 45.45654 203.70323 
L 44.889723 202.41391 
L 44.329608 201.12459 
L 43.788772 199.83527 
L 43.276675 198.545949 
L 42.798005 197.256629 
L 42.351603 195.967309 
L 41.93026 194.677988 
L 41.52152 193.388668 
L 41.109445 192.099348 
L 40.677111 190.810028 
L 40.209474 189.520707 
L 39.696137 188.231387 
L 39.133587 186.942067 
L 38.526498 185.652746 
L 37.887858 184.363426 
L 37.237837 183.074106 
L 36.601484 181.784786 
L 36.00555 180.495465 
L 35.474832 179.206145 
L 35.028582 177.916825 
L 34.677514 176.627504 
L 34.421954 175.338184 
L 34.251527 174.048864 
L 34.146573 172.759544 
L 34.08124 171.470223 
L 34.027828 170.180903 
L 33.961699 168.891583 
L 33.86589 167.602262 
L 33.73451 166.312942 
L 33.574226 165.023622 
L 33.403507 163.734301 
L 33.249738 162.444981 
L 33.1448 161.155661 
L 33.12 159.866341 
L 33.201364 158.57702 
L 33.406146 157.2877 
L 33.741104 155.99838 
L 34.202664 154.709059 
L 34.778679 153.419739 
L 35.451194 152.130419 
L 36.199515 150.841099 
L 37.002911 149.551778 
L 37.842528 148.262458 
L 38.70232 146.973138 
L 39.569096 145.683817 
L 40.43197 144.394497 
L 41.281561 143.105177 
L 42.109267 141.815857 
L 42.906809 140.526536 
L 43.666124 139.237216 
L 44.379543 137.947896 
L 45.040163 136.658575 
L 45.642285 135.369255 
L 46.18184 134.079935 
L 46.656769 132.790615 
L 47.067303 131.501294 
L 47.416134 130.211974 
L 47.708405 128.922654 
L 47.951462 127.633333 
L 48.154345 126.344013 
L 48.327018 125.054693 
L 48.479431 123.765373 
L 48.620563 122.476052 
L 48.757618 121.186732 
L 48.895491 119.897412 
L 49.036613 118.608091 
L 49.181134 117.318771 
L 49.327393 116.029451 
L 49.472524 114.74013 
L 51.327476 114.74013 
L 51.327476 114.74013 
L 51.472607 116.029451 
L 51.618866 117.318771 
L 51.763387 118.608091 
L 51.904509 119.897412 
L 52.042382 121.186732 
L 52.179437 122.476052 
L 52.320569 123.765373 
L 52.472982 125.054693 
L 52.645655 126.344013 
L 52.848538 127.633333 
L 53.091595 128.922654 
L 53.383866 130.211974 
L 53.732697 131.501294 
L 54.143231 132.790615 
L 54.61816 134.079935 
L 55.157715 135.369255 
L 55.759837 136.658575 
L 56.420457 137.947896 
L 57.133876 139.237216 
L 57.893191 140.526536 
L 58.690733 141.815857 
L 59.518439 143.105177 
L 60.36803 144.394497 
L 61.230904 145.683817 
L 62.09768 146.973138 
L 62.957472 148.262458 
L 63.797089 149.551778 
L 64.600485 150.841099 
L 65.348806 152.130419 
L 66.021321 153.419739 
L 66.597336 154.709059 
L 67.058896 155.99838 
L 67.393854 157.2877 
L 67.598636 158.57702 
L 67.68 159.866341 
L 67.6552 161.155661 
L 67.550262 162.444981 
L 67.396493 163.734301 
L 67.225774 165.023622 
L 67.06549 166.312942 
L 66.93411 167.602262 
L 66.838301 168.891583 
L 66.772172 170.180903 
L 66.71876 171.470223 
L 66.653427 172.759544 
L 66.548473 174.048864 
L 66.378046 175.338184 
L 66.122486 176.627504 
L 65.771418 177.916825 
L 65.325168 179.206145 
L 64.79445 180.495465 
L 64.198516 181.784786 
L 63.562163 183.074106 
L 62.912142 184.363426 
L 62.273502 185.652746 
L 61.666413 186.942067 
L 61.103863 188.231387 
L 60.590526 189.520707 
L 60.122889 190.810028 
L 59.690555 192.099348 
L 59.27848 193.388668 
L 58.86974 194.677988 
L 58.448397 195.967309 
L 58.001995 197.256629 
L 57.523325 198.545949 
L 57.011228 199.83527 
L 56.470392 201.12459 
L 55.910277 202.41391 
L 55.34346 203.70323 
L 54.783752 204.992551 
L 54.244439 206.281871 
L 53.736913 207.571191 
L 53.269815 208.860512 
L 52.848708 210.149832 
L 52.476167 211.439152 
L 52.152156 212.728472 
L 51.874536 214.017793 
L 51.639611 215.307113 
L 51.442653 216.596433 
L 51.278393 217.885754 
L 51.141462 219.175074 
L 51.026802 220.464394 
L 50.930007 221.753714 
L 50.847571 223.043035 
L 50.77702 224.332355 
L 50.716896 225.621675 
L 50.666609 226.910996 
L 50.62617 228.200316 
L 50.595866 229.489636 
L 50.575911 230.778957 
L 50.566148 232.068277 
L 50.565821 233.357597 
L 50.573473 234.646917 
L 50.586965 235.936238 
L 50.603627 237.225558 
L 50.620521 238.514878 
L 50.634772 239.804199 
L 50.643918 241.093519 
L 50.646215 242.382839 
L 50.646215 242.382839 
z
" clip-path="url(#p9540990f7f)" style="fill: none; stroke: #000000; stroke-opacity: 0.3"/>
   </g>
   <g id="FillBetweenPolyCollection_5">
    <path d="M 51.861774 221.033567 
L 48.938226 221.033567 
L 48.747623 219.948978 
L 48.542825 218.864388 
L 48.324177 217.779799 
L 48.092524 216.69521 
L 47.849263 215.61062 
L 47.596318 214.526031 
L 47.336025 213.441442 
L 47.070914 212.356852 
L 46.80342 211.272263 
L 46.535556 210.187674 
L 46.268598 209.103085 
L 46.002828 208.018495 
L 45.737395 206.933906 
L 45.470328 205.849317 
L 45.198698 204.764727 
L 44.918939 203.680138 
L 44.627276 202.595549 
L 44.32021 201.510959 
L 43.994988 200.42637 
L 43.649992 199.341781 
L 43.284985 198.257191 
L 42.901169 197.172602 
L 42.50105 196.088013 
L 42.088107 195.003423 
L 41.666315 193.918834 
L 41.239587 192.834245 
L 40.811205 191.749655 
L 40.383337 190.665066 
L 39.956706 189.580477 
L 39.530479 188.495887 
L 39.102411 187.411298 
L 38.66924 186.326709 
L 38.227314 185.242119 
L 37.773367 184.15753 
L 37.305364 183.072941 
L 36.823309 181.988351 
L 36.329899 180.903762 
L 35.830937 179.819173 
L 35.335414 178.734583 
L 34.855248 177.649994 
L 34.404651 176.565405 
L 33.999189 175.480815 
L 33.65462 174.396226 
L 33.385606 173.311637 
L 33.204453 172.227047 
L 33.12 171.142458 
L 33.136782 170.057869 
L 33.254565 168.97328 
L 33.468308 167.88869 
L 33.768548 166.804101 
L 34.142185 165.719512 
L 34.573576 164.634922 
L 35.045817 163.550333 
L 35.542081 162.465744 
L 36.046878 161.381154 
L 36.547101 160.296565 
L 37.032771 159.211976 
L 37.497424 158.127386 
L 37.938117 157.042797 
L 38.355093 155.958208 
L 38.751174 154.873618 
L 39.130965 153.789029 
L 39.499989 152.70444 
L 39.863847 151.61985 
L 40.227516 150.535261 
L 40.594822 149.450672 
L 40.968158 148.366082 
L 41.348422 147.281493 
L 41.735174 146.196904 
L 42.126931 145.112314 
L 42.521565 144.027725 
L 42.916713 142.943136 
L 43.31014 141.858546 
L 43.700005 140.773957 
L 44.085006 139.689368 
L 44.464382 138.604778 
L 44.837805 137.520189 
L 45.205178 136.4356 
L 45.566406 135.35101 
L 45.921151 134.266421 
L 46.268661 133.181832 
L 46.607657 132.097242 
L 46.93634 131.012653 
L 47.252477 129.928064 
L 47.553587 128.843475 
L 47.837165 127.758885 
L 48.100943 126.674296 
L 48.343121 125.589707 
L 48.562561 124.505117 
L 48.758901 123.420528 
L 48.932595 122.335939 
L 49.084866 121.251349 
L 49.217588 120.16676 
L 49.333108 119.082171 
L 49.434051 117.997581 
L 49.523104 116.912992 
L 49.602821 115.828403 
L 49.675468 114.743813 
L 49.742902 113.659224 
L 51.057098 113.659224 
L 51.057098 113.659224 
L 51.124532 114.743813 
L 51.197179 115.828403 
L 51.276896 116.912992 
L 51.365949 117.997581 
L 51.466892 119.082171 
L 51.582412 120.16676 
L 51.715134 121.251349 
L 51.867405 122.335939 
L 52.041099 123.420528 
L 52.237439 124.505117 
L 52.456879 125.589707 
L 52.699057 126.674296 
L 52.962835 127.758885 
L 53.246413 128.843475 
L 53.547523 129.928064 
L 53.86366 131.012653 
L 54.192343 132.097242 
L 54.531339 133.181832 
L 54.878849 134.266421 
L 55.233594 135.35101 
L 55.594822 136.4356 
L 55.962195 137.520189 
L 56.335618 138.604778 
L 56.714994 139.689368 
L 57.099995 140.773957 
L 57.48986 141.858546 
L 57.883287 142.943136 
L 58.278435 144.027725 
L 58.673069 145.112314 
L 59.064826 146.196904 
L 59.451578 147.281493 
L 59.831842 148.366082 
L 60.205178 149.450672 
L 60.572484 150.535261 
L 60.936153 151.61985 
L 61.300011 152.70444 
L 61.669035 153.789029 
L 62.048826 154.873618 
L 62.444907 155.958208 
L 62.861883 157.042797 
L 63.302576 158.127386 
L 63.767229 159.211976 
L 64.252899 160.296565 
L 64.753122 161.381154 
L 65.257919 162.465744 
L 65.754183 163.550333 
L 66.226424 164.634922 
L 66.657815 165.719512 
L 67.031452 166.804101 
L 67.331692 167.88869 
L 67.545435 168.97328 
L 67.663218 170.057869 
L 67.68 171.142458 
L 67.595547 172.227047 
L 67.414394 173.311637 
L 67.14538 174.396226 
L 66.800811 175.480815 
L 66.395349 176.565405 
L 65.944752 177.649994 
L 65.464586 178.734583 
L 64.969063 179.819173 
L 64.470101 180.903762 
L 63.976691 181.988351 
L 63.494636 183.072941 
L 63.026633 184.15753 
L 62.572686 185.242119 
L 62.13076 186.326709 
L 61.697589 187.411298 
L 61.269521 188.495887 
L 60.843294 189.580477 
L 60.416663 190.665066 
L 59.988795 191.749655 
L 59.560413 192.834245 
L 59.133685 193.918834 
L 58.711893 195.003423 
L 58.29895 196.088013 
L 57.898831 197.172602 
L 57.515015 198.257191 
L 57.150008 199.341781 
L 56.805012 200.42637 
L 56.47979 201.510959 
L 56.172724 202.595549 
L 55.881061 203.680138 
L 55.601302 204.764727 
L 55.329672 205.849317 
L 55.062605 206.933906 
L 54.797172 208.018495 
L 54.531402 209.103085 
L 54.264444 210.187674 
L 53.99658 211.272263 
L 53.729086 212.356852 
L 53.463975 213.441442 
L 53.203682 214.526031 
L 52.950737 215.61062 
L 52.707476 216.69521 
L 52.475823 217.779799 
L 52.257175 218.864388 
L 52.052377 219.948978 
L 51.861774 221.033567 
L 51.861774 221.033567 
z
" clip-path="url(#p9540990f7f)" style="fill: none; stroke: #000000; stroke-opacity: 0.3"/>
   </g>
   <g id="FillBetweenPolyCollection_6">
    <path d="M 50.917405 240.03451 
L 49.882595 240.03451 
L 49.878629 238.795369 
L 49.879749 237.556229 
L 49.88441 236.317088 
L 49.890534 235.077947 
L 49.895588 233.838807 
L 49.896695 232.599666 
L 49.890758 231.360526 
L 49.8746 230.121385 
L 49.845095 228.882245 
L 49.799293 227.643104 
L 49.734517 226.403963 
L 49.648424 225.164823 
L 49.539038 223.925682 
L 49.404736 222.686542 
L 49.244193 221.447401 
L 49.056306 220.208261 
L 48.840085 218.96912 
L 48.594544 217.729979 
L 48.318609 216.490839 
L 48.011055 215.251698 
L 47.67049 214.012558 
L 47.295418 212.773417 
L 46.884355 211.534277 
L 46.436032 210.295136 
L 45.949633 209.055995 
L 45.425068 207.816855 
L 44.863245 206.577714 
L 44.266285 205.338574 
L 43.637671 204.099433 
L 42.982285 202.860292 
L 42.306315 201.621152 
L 41.617046 200.382011 
L 40.922528 199.142871 
L 40.231168 197.90373 
L 39.551272 196.66459 
L 38.890594 195.425449 
L 38.255934 194.186308 
L 37.652827 192.947168 
L 37.085351 191.708027 
L 36.556082 190.468887 
L 36.066187 189.229746 
L 35.615645 187.990606 
L 35.203576 186.751465 
L 34.828634 185.512324 
L 34.489432 184.273184 
L 34.184938 183.034043 
L 33.914824 181.794903 
L 33.6797 180.555762 
L 33.481245 179.316622 
L 33.32218 178.077481 
L 33.206111 176.83834 
L 33.137245 175.5992 
L 33.12 174.360059 
L 33.158556 173.120919 
L 33.256384 171.881778 
L 33.415805 170.642638 
L 33.63762 169.403497 
L 33.920847 168.164356 
L 34.262596 166.925216 
L 34.658089 165.686075 
L 35.100826 164.446935 
L 35.582874 163.207794 
L 36.095258 161.968654 
L 36.628416 160.729513 
L 37.172664 159.490372 
L 37.718663 158.251232 
L 38.25781 157.012091 
L 38.782569 155.772951 
L 39.286686 154.53381 
L 39.765312 153.29467 
L 40.215023 152.055529 
L 40.63375 150.816388 
L 41.020656 149.577248 
L 41.375968 148.338107 
L 41.700799 147.098967 
L 41.996986 145.859826 
L 42.266952 144.620686 
L 42.513601 143.381545 
L 42.74025 142.142404 
L 42.950579 140.903264 
L 43.14859 139.664123 
L 43.338556 138.424983 
L 43.524934 137.185842 
L 43.71225 135.946702 
L 43.904934 134.707561 
L 44.107117 133.46842 
L 44.322415 132.22928 
L 44.553707 130.990139 
L 44.802936 129.750999 
L 45.070962 128.511858 
L 45.357481 127.272717 
L 45.661023 126.033577 
L 45.979035 124.794436 
L 46.30804 123.555296 
L 46.643852 122.316155 
L 46.981837 121.077015 
L 47.317191 119.837874 
L 47.645204 118.598733 
L 47.9615 117.359593 
L 52.8385 117.359593 
L 52.8385 117.359593 
L 53.154796 118.598733 
L 53.482809 119.837874 
L 53.818163 121.077015 
L 54.156148 122.316155 
L 54.49196 123.555296 
L 54.820965 124.794436 
L 55.138977 126.033577 
L 55.442519 127.272717 
L 55.729038 128.511858 
L 55.997064 129.750999 
L 56.246293 130.990139 
L 56.477585 132.22928 
L 56.692883 133.46842 
L 56.895066 134.707561 
L 57.08775 135.946702 
L 57.275066 137.185842 
L 57.461444 138.424983 
L 57.65141 139.664123 
L 57.849421 140.903264 
L 58.05975 142.142404 
L 58.286399 143.381545 
L 58.533048 144.620686 
L 58.803014 145.859826 
L 59.099201 147.098967 
L 59.424032 148.338107 
L 59.779344 149.577248 
L 60.16625 150.816388 
L 60.584977 152.055529 
L 61.034688 153.29467 
L 61.513314 154.53381 
L 62.017431 155.772951 
L 62.54219 157.012091 
L 63.081337 158.251232 
L 63.627336 159.490372 
L 64.171584 160.729513 
L 64.704742 161.968654 
L 65.217126 163.207794 
L 65.699174 164.446935 
L 66.141911 165.686075 
L 66.537404 166.925216 
L 66.879153 168.164356 
L 67.16238 169.403497 
L 67.384195 170.642638 
L 67.543616 171.881778 
L 67.641444 173.120919 
L 67.68 174.360059 
L 67.662755 175.5992 
L 67.593889 176.83834 
L 67.47782 178.077481 
L 67.318755 179.316622 
L 67.1203 180.555762 
L 66.885176 181.794903 
L 66.615062 183.034043 
L 66.310568 184.273184 
L 65.971366 185.512324 
L 65.596424 186.751465 
L 65.184355 187.990606 
L 64.733813 189.229746 
L 64.243918 190.468887 
L 63.714649 191.708027 
L 63.147173 192.947168 
L 62.544066 194.186308 
L 61.909406 195.425449 
L 61.248728 196.66459 
L 60.568832 197.90373 
L 59.877472 199.142871 
L 59.182954 200.382011 
L 58.493685 201.621152 
L 57.817715 202.860292 
L 57.162329 204.099433 
L 56.533715 205.338574 
L 55.936755 206.577714 
L 55.374932 207.816855 
L 54.850367 209.055995 
L 54.363968 210.295136 
L 53.915645 211.534277 
L 53.504582 212.773417 
L 53.12951 214.012558 
L 52.788945 215.251698 
L 52.481391 216.490839 
L 52.205456 217.729979 
L 51.959915 218.96912 
L 51.743694 220.208261 
L 51.555807 221.447401 
L 51.395264 222.686542 
L 51.260962 223.925682 
L 51.151576 225.164823 
L 51.065483 226.403963 
L 51.000707 227.643104 
L 50.954905 228.882245 
L 50.9254 230.121385 
L 50.909242 231.360526 
L 50.903305 232.599666 
L 50.904412 233.838807 
L 50.909466 235.077947 
L 50.91559 236.317088 
L 50.920251 237.556229 
L 50.921371 238.795369 
L 50.917405 240.03451 
L 50.917405 240.03451 
z
" clip-path="url(#p9540990f7f)" style="fill: none; stroke: #000000; stroke-opacity: 0.3"/>
   </g>
   <g id="FillBetweenPolyCollection_7">
    <path d="M 54.061678 218.74762 
L 46.738322 218.74762 
L 46.443418 217.883603 
L 46.14715 217.019587 
L 45.850258 216.15557 
L 45.553025 215.291553 
L 45.25528 214.427537 
L 44.956427 213.56352 
L 44.6555 212.699504 
L 44.351243 211.835487 
L 44.042208 210.97147 
L 43.726845 210.107454 
L 43.403615 209.243437 
L 43.071073 208.37942 
L 42.727958 207.515404 
L 42.373253 206.651387 
L 42.006238 205.78737 
L 41.626522 204.923354 
L 41.234058 204.059337 
L 40.829155 203.19532 
L 40.412472 202.331304 
L 39.985015 201.467287 
L 39.548126 200.603271 
L 39.10348 199.739254 
L 38.653075 198.875237 
L 38.199229 198.011221 
L 37.74457 197.147204 
L 37.292031 196.283187 
L 36.844827 195.419171 
L 36.406432 194.555154 
L 35.980538 193.691137 
L 35.571 192.827121 
L 35.181761 191.963104 
L 34.816766 191.099088 
L 34.479852 190.235071 
L 34.174631 189.371054 
L 33.904357 188.507038 
L 33.671789 187.643021 
L 33.479054 186.779004 
L 33.327518 185.914988 
L 33.217665 185.050971 
L 33.149005 184.186954 
L 33.12 183.322938 
L 33.128036 182.458921 
L 33.169429 181.594904 
L 33.239478 180.730888 
L 33.332578 179.866871 
L 33.442371 179.002855 
L 33.561955 178.138838 
L 33.684142 177.274821 
L 33.801741 176.410805 
L 33.907877 175.546788 
L 33.996315 174.682771 
L 34.061778 173.818755 
L 34.100239 172.954738 
L 34.10917 172.090721 
L 34.087723 171.226705 
L 34.036847 170.362688 
L 33.959303 169.498671 
L 33.859597 168.634655 
L 33.743822 167.770638 
L 33.619408 166.906622 
L 33.494808 166.042605 
L 33.379126 165.178588 
L 33.281714 164.314572 
L 33.211755 163.450555 
L 33.177863 162.586538 
L 33.187716 161.722522 
L 33.24775 160.858505 
L 33.362911 159.994488 
L 33.536499 159.130472 
L 33.770091 158.266455 
L 34.063546 157.402439 
L 34.415089 156.538422 
L 34.821463 155.674405 
L 35.278133 154.810389 
L 35.779526 153.946372 
L 36.319296 153.082355 
L 36.890594 152.218339 
L 37.486325 151.354322 
L 38.099391 150.490305 
L 38.722897 149.626289 
L 39.350335 148.762272 
L 39.975715 147.898255 
L 40.593669 147.034239 
L 41.199516 146.170222 
L 41.789299 145.306206 
L 42.359787 144.442189 
L 42.908466 143.578172 
L 43.4335 142.714156 
L 43.933688 141.850139 
L 44.408407 140.986122 
L 44.857538 140.122106 
L 45.281401 139.258089 
L 45.68067 138.394072 
L 46.056296 137.530056 
L 46.409423 136.666039 
L 46.741305 135.802022 
L 47.053235 134.938006 
L 47.346474 134.073989 
L 47.622194 133.209973 
L 53.177806 133.209973 
L 53.177806 133.209973 
L 53.453526 134.073989 
L 53.746765 134.938006 
L 54.058695 135.802022 
L 54.390577 136.666039 
L 54.743704 137.530056 
L 55.11933 138.394072 
L 55.518599 139.258089 
L 55.942462 140.122106 
L 56.391593 140.986122 
L 56.866312 141.850139 
L 57.3665 142.714156 
L 57.891534 143.578172 
L 58.440213 144.442189 
L 59.010701 145.306206 
L 59.600484 146.170222 
L 60.206331 147.034239 
L 60.824285 147.898255 
L 61.449665 148.762272 
L 62.077103 149.626289 
L 62.700609 150.490305 
L 63.313675 151.354322 
L 63.909406 152.218339 
L 64.480704 153.082355 
L 65.020474 153.946372 
L 65.521867 154.810389 
L 65.978537 155.674405 
L 66.384911 156.538422 
L 66.736454 157.402439 
L 67.029909 158.266455 
L 67.263501 159.130472 
L 67.437089 159.994488 
L 67.55225 160.858505 
L 67.612284 161.722522 
L 67.622137 162.586538 
L 67.588245 163.450555 
L 67.518286 164.314572 
L 67.420874 165.178588 
L 67.305192 166.042605 
L 67.180592 166.906622 
L 67.056178 167.770638 
L 66.940403 168.634655 
L 66.840697 169.498671 
L 66.763153 170.362688 
L 66.712277 171.226705 
L 66.69083 172.090721 
L 66.699761 172.954738 
L 66.738222 173.818755 
L 66.803685 174.682771 
L 66.892123 175.546788 
L 66.998259 176.410805 
L 67.115858 177.274821 
L 67.238045 178.138838 
L 67.357629 179.002855 
L 67.467422 179.866871 
L 67.560522 180.730888 
L 67.630571 181.594904 
L 67.671964 182.458921 
L 67.68 183.322938 
L 67.650995 184.186954 
L 67.582335 185.050971 
L 67.472482 185.914988 
L 67.320946 186.779004 
L 67.128211 187.643021 
L 66.895643 188.507038 
L 66.625369 189.371054 
L 66.320148 190.235071 
L 65.983234 191.099088 
L 65.618239 191.963104 
L 65.229 192.827121 
L 64.819462 193.691137 
L 64.393568 194.555154 
L 63.955173 195.419171 
L 63.507969 196.283187 
L 63.05543 197.147204 
L 62.600771 198.011221 
L 62.146925 198.875237 
L 61.69652 199.739254 
L 61.251874 200.603271 
L 60.814985 201.467287 
L 60.387528 202.331304 
L 59.970845 203.19532 
L 59.565942 204.059337 
L 59.173478 204.923354 
L 58.793762 205.78737 
L 58.426747 206.651387 
L 58.072042 207.515404 
L 57.728927 208.37942 
L 57.396385 209.243437 
L 57.073155 210.107454 
L 56.757792 210.97147 
L 56.448757 211.835487 
L 56.1445 212.699504 
L 55.843573 213.56352 
L 55.54472 214.427537 
L 55.246975 215.291553 
L 54.949742 216.15557 
L 54.65285 217.019587 
L 54.356582 217.883603 
L 54.061678 218.74762 
L 54.061678 218.74762 
z
" clip-path="url(#p9540990f7f)" style="fill: none; stroke: #000000; stroke-opacity: 0.3"/>
   </g>
   <g id="FillBetweenPolyCollection_8">
    <path d="M 110.033439 191.82367 
L 105.966561 191.82367 
L 105.848717 190.876583 
L 105.729125 189.929497 
L 105.607267 188.98241 
L 105.482477 188.035323 
L 105.353948 187.088236 
L 105.220753 186.141149 
L 105.081869 185.194062 
L 104.936198 184.246975 
L 104.782597 183.299889 
L 104.619905 182.352802 
L 104.446974 181.405715 
L 104.26269 180.458628 
L 104.066005 179.511541 
L 103.855958 178.564454 
L 103.631696 177.617367 
L 103.392494 176.67028 
L 103.137774 175.723194 
L 102.86712 174.776107 
L 102.580294 173.82902 
L 102.277252 172.881933 
L 101.958159 171.934846 
L 101.6234 170.987759 
L 101.273601 170.040672 
L 100.909633 169.093586 
L 100.532631 168.146499 
L 100.143992 167.199412 
L 99.745384 166.252325 
L 99.338733 165.305238 
L 98.926214 164.358151 
L 98.510223 163.411064 
L 98.093338 162.463978 
L 97.678275 161.516891 
L 97.267827 160.569804 
L 96.864795 159.622717 
L 96.471908 158.67563 
L 96.091746 157.728543 
L 95.726651 156.781456 
L 95.378653 155.834369 
L 95.049394 154.887283 
L 94.74007 153.940196 
L 94.451385 152.993109 
L 94.183531 152.046022 
L 93.936182 151.098935 
L 93.708513 150.151848 
L 93.499248 149.204761 
L 93.306718 148.257675 
L 93.128946 147.310588 
L 92.963742 146.363501 
L 92.808811 145.416414 
L 92.661857 144.469327 
L 92.5207 143.52224 
L 92.383373 142.575153 
L 92.248217 141.628067 
L 92.11396 140.68098 
L 91.979777 139.733893 
L 91.845335 138.786806 
L 91.710812 137.839719 
L 91.576902 136.892632 
L 91.444801 135.945545 
L 91.316172 134.998458 
L 91.1931 134.051372 
L 91.078032 133.104285 
L 90.973709 132.157198 
L 90.883092 131.210111 
L 90.809277 130.263024 
L 90.755421 129.315937 
L 90.724653 128.36885 
L 90.72 127.421764 
L 90.744307 126.474677 
L 90.80017 125.52759 
L 90.889867 124.580503 
L 91.015307 123.633416 
L 91.177977 122.686329 
L 91.378905 121.739242 
L 91.618632 120.792155 
L 91.897191 119.845069 
L 92.2141 118.897982 
L 92.568366 117.950895 
L 92.958494 117.003808 
L 93.382514 116.056721 
L 93.838012 115.109634 
L 94.322173 114.162547 
L 94.831827 113.215461 
L 95.363513 112.268374 
L 95.913532 111.321287 
L 96.478023 110.3742 
L 97.053023 109.427113 
L 97.634542 108.480026 
L 98.21863 107.532939 
L 98.801444 106.585853 
L 99.379304 105.638766 
L 99.948756 104.691679 
L 100.50661 103.744592 
L 101.049986 102.797505 
L 101.576339 101.850418 
L 102.083479 100.903331 
L 102.56958 99.956244 
L 103.033183 99.009158 
L 103.473179 98.062071 
L 112.526821 98.062071 
L 112.526821 98.062071 
L 112.966817 99.009158 
L 113.43042 99.956244 
L 113.916521 100.903331 
L 114.423661 101.850418 
L 114.950014 102.797505 
L 115.49339 103.744592 
L 116.051244 104.691679 
L 116.620696 105.638766 
L 117.198556 106.585853 
L 117.78137 107.532939 
L 118.365458 108.480026 
L 118.946977 109.427113 
L 119.521977 110.3742 
L 120.086468 111.321287 
L 120.636487 112.268374 
L 121.168173 113.215461 
L 121.677827 114.162547 
L 122.161988 115.109634 
L 122.617486 116.056721 
L 123.041506 117.003808 
L 123.431634 117.950895 
L 123.7859 118.897982 
L 124.102809 119.845069 
L 124.381368 120.792155 
L 124.621095 121.739242 
L 124.822023 122.686329 
L 124.984693 123.633416 
L 125.110133 124.580503 
L 125.19983 125.52759 
L 125.255693 126.474677 
L 125.28 127.421764 
L 125.275347 128.36885 
L 125.244579 129.315937 
L 125.190723 130.263024 
L 125.116908 131.210111 
L 125.026291 132.157198 
L 124.921968 133.104285 
L 124.8069 134.051372 
L 124.683828 134.998458 
L 124.555199 135.945545 
L 124.423098 136.892632 
L 124.289188 137.839719 
L 124.154665 138.786806 
L 124.020223 139.733893 
L 123.88604 140.68098 
L 123.751783 141.628067 
L 123.616627 142.575153 
L 123.4793 143.52224 
L 123.338143 144.469327 
L 123.191189 145.416414 
L 123.036258 146.363501 
L 122.871054 147.310588 
L 122.693282 148.257675 
L 122.500752 149.204761 
L 122.291487 150.151848 
L 122.063818 151.098935 
L 121.816469 152.046022 
L 121.548615 152.993109 
L 121.25993 153.940196 
L 120.950606 154.887283 
L 120.621347 155.834369 
L 120.273349 156.781456 
L 119.908254 157.728543 
L 119.528092 158.67563 
L 119.135205 159.622717 
L 118.732173 160.569804 
L 118.321725 161.516891 
L 117.906662 162.463978 
L 117.489777 163.411064 
L 117.073786 164.358151 
L 116.661267 165.305238 
L 116.254616 166.252325 
L 115.856008 167.199412 
L 115.467369 168.146499 
L 115.090367 169.093586 
L 114.726399 170.040672 
L 114.3766 170.987759 
L 114.041841 171.934846 
L 113.722748 172.881933 
L 113.419706 173.82902 
L 113.13288 174.776107 
L 112.862226 175.723194 
L 112.607506 176.67028 
L 112.368304 177.617367 
L 112.144042 178.564454 
L 111.933995 179.511541 
L 111.73731 180.458628 
L 111.553026 181.405715 
L 111.380095 182.352802 
L 111.217403 183.299889 
L 111.063802 184.246975 
L 110.918131 185.194062 
L 110.779247 186.141149 
L 110.646052 187.088236 
L 110.517523 188.035323 
L 110.392733 188.98241 
L 110.270875 189.929497 
L 110.151283 190.876583 
L 110.033439 191.82367 
L 110.033439 191.82367 
z
" clip-path="url(#p9540990f7f)" style="fill: none; stroke: #000000; stroke-opacity: 0.3"/>
   </g>
   <g id="FillBetweenPolyCollection_9">
    <path d="M 111.564495 171.355896 
L 104.435505 171.355896 
L 104.222724 170.67414 
L 104.01478 169.992384 
L 103.812536 169.310627 
L 103.616553 168.628871 
L 103.427078 167.947115 
L 103.244032 167.265359 
L 103.067023 166.583602 
L 102.895369 165.901846 
L 102.728128 165.22009 
L 102.564143 164.538334 
L 102.402097 163.856577 
L 102.24056 163.174821 
L 102.078052 162.493065 
L 101.913097 161.811309 
L 101.744268 161.129552 
L 101.570237 160.447796 
L 101.389807 159.76604 
L 101.20194 159.084284 
L 101.005773 158.402527 
L 100.80063 157.720771 
L 100.586021 157.039015 
L 100.361636 156.357259 
L 100.127342 155.675502 
L 99.883165 154.993746 
L 99.629283 154.31199 
L 99.36601 153.630234 
L 99.093793 152.948477 
L 98.813194 152.266721 
L 98.524893 151.584965 
L 98.229675 150.903209 
L 97.928425 150.221452 
L 97.62212 149.539696 
L 97.311817 148.85794 
L 96.998636 148.176184 
L 96.683738 147.494427 
L 96.3683 146.812671 
L 96.05348 146.130915 
L 95.740388 145.449159 
L 95.43005 144.767402 
L 95.123377 144.085646 
L 94.821139 143.40389 
L 94.523955 142.722134 
L 94.232284 142.040377 
L 93.946447 141.358621 
L 93.666651 140.676865 
L 93.393043 139.995109 
L 93.125767 139.313352 
L 92.865045 138.631596 
L 92.611253 137.94984 
L 92.365015 137.268084 
L 92.127271 136.586327 
L 91.899356 135.904571 
L 91.683041 135.222815 
L 91.480561 134.541059 
L 91.294612 133.859302 
L 91.128316 133.177546 
L 90.985154 132.49579 
L 90.86887 131.814034 
L 90.783351 131.132277 
L 90.732483 130.450521 
L 90.72 129.768765 
L 90.749322 129.087009 
L 90.823403 128.405252 
L 90.944594 127.723496 
L 91.114518 127.04174 
L 91.333982 126.359983 
L 91.602914 125.678227 
L 91.920341 124.996471 
L 92.284394 124.314715 
L 92.692357 123.632958 
L 93.140741 122.951202 
L 93.625383 122.269446 
L 94.141568 121.58769 
L 94.684169 120.905933 
L 95.247787 120.224177 
L 95.826899 119.542421 
L 96.415995 118.860665 
L 97.009713 118.178908 
L 97.602949 117.497152 
L 98.190963 116.815396 
L 98.769453 116.13364 
L 99.334619 115.451883 
L 99.883198 114.770127 
L 100.412488 114.088371 
L 100.920349 113.406615 
L 101.40519 112.724858 
L 101.865939 112.043102 
L 102.302008 111.361346 
L 102.713246 110.67959 
L 103.099882 109.997833 
L 103.462472 109.316077 
L 103.801837 108.634321 
L 104.119005 107.952565 
L 104.415155 107.270808 
L 104.691558 106.589052 
L 104.949534 105.907296 
L 105.190402 105.22554 
L 105.415446 104.543783 
L 105.625882 103.862027 
L 110.374118 103.862027 
L 110.374118 103.862027 
L 110.584554 104.543783 
L 110.809598 105.22554 
L 111.050466 105.907296 
L 111.308442 106.589052 
L 111.584845 107.270808 
L 111.880995 107.952565 
L 112.198163 108.634321 
L 112.537528 109.316077 
L 112.900118 109.997833 
L 113.286754 110.67959 
L 113.697992 111.361346 
L 114.134061 112.043102 
L 114.59481 112.724858 
L 115.079651 113.406615 
L 115.587512 114.088371 
L 116.116802 114.770127 
L 116.665381 115.451883 
L 117.230547 116.13364 
L 117.809037 116.815396 
L 118.397051 117.497152 
L 118.990287 118.178908 
L 119.584005 118.860665 
L 120.173101 119.542421 
L 120.752213 120.224177 
L 121.315831 120.905933 
L 121.858432 121.58769 
L 122.374617 122.269446 
L 122.859259 122.951202 
L 123.307643 123.632958 
L 123.715606 124.314715 
L 124.079659 124.996471 
L 124.397086 125.678227 
L 124.666018 126.359983 
L 124.885482 127.04174 
L 125.055406 127.723496 
L 125.176597 128.405252 
L 125.250678 129.087009 
L 125.28 129.768765 
L 125.267517 130.450521 
L 125.216649 131.132277 
L 125.13113 131.814034 
L 125.014846 132.49579 
L 124.871684 133.177546 
L 124.705388 133.859302 
L 124.519439 134.541059 
L 124.316959 135.222815 
L 124.100644 135.904571 
L 123.872729 136.586327 
L 123.634985 137.268084 
L 123.388747 137.94984 
L 123.134955 138.631596 
L 122.874233 139.313352 
L 122.606957 139.995109 
L 122.333349 140.676865 
L 122.053553 141.358621 
L 121.767716 142.040377 
L 121.476045 142.722134 
L 121.178861 143.40389 
L 120.876623 144.085646 
L 120.56995 144.767402 
L 120.259612 145.449159 
L 119.94652 146.130915 
L 119.6317 146.812671 
L 119.316262 147.494427 
L 119.001364 148.176184 
L 118.688183 148.85794 
L 118.37788 149.539696 
L 118.071575 150.221452 
L 117.770325 150.903209 
L 117.475107 151.584965 
L 117.186806 152.266721 
L 116.906207 152.948477 
L 116.63399 153.630234 
L 116.370717 154.31199 
L 116.116835 154.993746 
L 115.872658 155.675502 
L 115.638364 156.357259 
L 115.413979 157.039015 
L 115.19937 157.720771 
L 114.994227 158.402527 
L 114.79806 159.084284 
L 114.610193 159.76604 
L 114.429763 160.447796 
L 114.255732 161.129552 
L 114.086903 161.811309 
L 113.921948 162.493065 
L 113.75944 163.174821 
L 113.597903 163.856577 
L 113.435857 164.538334 
L 113.271872 165.22009 
L 113.104631 165.901846 
L 112.932977 166.583602 
L 112.755968 167.265359 
L 112.572922 167.947115 
L 112.383447 168.628871 
L 112.187464 169.310627 
L 111.98522 169.992384 
L 111.777276 170.67414 
L 111.564495 171.355896 
L 111.564495 171.355896 
z
" clip-path="url(#p9540990f7f)" style="fill: none; stroke: #000000; stroke-opacity: 0.3"/>
   </g>
   <g id="FillBetweenPolyCollection_10">
    <path d="M 108.825762 209.640858 
L 107.174238 209.640858 
L 107.1385 208.53431 
L 107.112454 207.427763 
L 107.095759 206.321215 
L 107.08741 205.214668 
L 107.085829 204.10812 
L 107.089011 203.001573 
L 107.094716 201.895026 
L 107.100665 200.788478 
L 107.104737 199.681931 
L 107.10513 198.575383 
L 107.100497 197.468836 
L 107.090017 196.362288 
L 107.073425 195.255741 
L 107.05099 194.149194 
L 107.023456 193.042646 
L 106.991936 191.936099 
L 106.957793 190.829551 
L 106.922492 189.723004 
L 106.887442 188.616456 
L 106.853841 187.509909 
L 106.822529 186.403361 
L 106.793862 185.296814 
L 106.767621 184.190267 
L 106.742961 183.083719 
L 106.718413 181.977172 
L 106.691932 180.870624 
L 106.660984 179.764077 
L 106.622666 178.657529 
L 106.573834 177.550982 
L 106.511242 176.444435 
L 106.431642 175.337887 
L 106.331883 174.23134 
L 106.208964 173.124792 
L 106.060076 172.018245 
L 105.882619 170.911697 
L 105.67423 169.80515 
L 105.432801 168.698603 
L 105.156528 167.592055 
L 104.843962 166.485508 
L 104.494091 165.37896 
L 104.106416 164.272413 
L 103.681032 163.165865 
L 103.218703 162.059318 
L 102.720906 160.95277 
L 102.189849 159.846223 
L 101.628453 158.739676 
L 101.040291 157.633128 
L 100.429484 156.526581 
L 99.800568 155.420033 
L 99.158328 154.313486 
L 98.507617 153.206938 
L 97.853192 152.100391 
L 97.199576 150.993844 
L 96.550978 149.887296 
L 95.9113 148.780749 
L 95.284235 147.674201 
L 94.673452 146.567654 
L 94.082872 145.461106 
L 93.516972 144.354559 
L 92.981083 143.248011 
L 92.481607 142.141464 
L 92.02611 141.034917 
L 91.623216 139.928369 
L 91.282308 138.821822 
L 91.013008 137.715274 
L 90.824512 136.608727 
L 90.724823 135.502179 
L 90.72 134.395632 
L 90.81351 133.289085 
L 91.005787 132.182537 
L 91.294063 131.07599 
L 91.67249 129.969442 
L 92.132555 128.862895 
L 92.663717 127.756347 
L 93.254183 126.6498 
L 93.89172 125.543253 
L 94.564403 124.436705 
L 95.261209 123.330158 
L 95.97241 122.22361 
L 96.689744 121.117063 
L 97.406396 120.010515 
L 98.116808 118.903968 
L 98.816418 117.79742 
L 99.501361 116.690873 
L 100.168215 115.584326 
L 100.813813 114.477778 
L 101.435158 113.371231 
L 102.029426 112.264683 
L 102.594043 111.158136 
L 103.126804 110.051588 
L 103.626009 108.945041 
L 104.090567 107.838494 
L 104.520061 106.731946 
L 104.914753 105.625399 
L 105.275534 104.518851 
L 105.60382 103.412304 
L 105.901409 102.305756 
L 106.170335 101.199209 
L 106.412713 100.092662 
L 109.587287 100.092662 
L 109.587287 100.092662 
L 109.829665 101.199209 
L 110.098591 102.305756 
L 110.39618 103.412304 
L 110.724466 104.518851 
L 111.085247 105.625399 
L 111.479939 106.731946 
L 111.909433 107.838494 
L 112.373991 108.945041 
L 112.873196 110.051588 
L 113.405957 111.158136 
L 113.970574 112.264683 
L 114.564842 113.371231 
L 115.186187 114.477778 
L 115.831785 115.584326 
L 116.498639 116.690873 
L 117.183582 117.79742 
L 117.883192 118.903968 
L 118.593604 120.010515 
L 119.310256 121.117063 
L 120.02759 122.22361 
L 120.738791 123.330158 
L 121.435597 124.436705 
L 122.10828 125.543253 
L 122.745817 126.6498 
L 123.336283 127.756347 
L 123.867445 128.862895 
L 124.32751 129.969442 
L 124.705937 131.07599 
L 124.994213 132.182537 
L 125.18649 133.289085 
L 125.28 134.395632 
L 125.275177 135.502179 
L 125.175488 136.608727 
L 124.986992 137.715274 
L 124.717692 138.821822 
L 124.376784 139.928369 
L 123.97389 141.034917 
L 123.518393 142.141464 
L 123.018917 143.248011 
L 122.483028 144.354559 
L 121.917128 145.461106 
L 121.326548 146.567654 
L 120.715765 147.674201 
L 120.0887 148.780749 
L 119.449022 149.887296 
L 118.800424 150.993844 
L 118.146808 152.100391 
L 117.492383 153.206938 
L 116.841672 154.313486 
L 116.199432 155.420033 
L 115.570516 156.526581 
L 114.959709 157.633128 
L 114.371547 158.739676 
L 113.810151 159.846223 
L 113.279094 160.95277 
L 112.781297 162.059318 
L 112.318968 163.165865 
L 111.893584 164.272413 
L 111.505909 165.37896 
L 111.156038 166.485508 
L 110.843472 167.592055 
L 110.567199 168.698603 
L 110.32577 169.80515 
L 110.117381 170.911697 
L 109.939924 172.018245 
L 109.791036 173.124792 
L 109.668117 174.23134 
L 109.568358 175.337887 
L 109.488758 176.444435 
L 109.426166 177.550982 
L 109.377334 178.657529 
L 109.339016 179.764077 
L 109.308068 180.870624 
L 109.281587 181.977172 
L 109.257039 183.083719 
L 109.232379 184.190267 
L 109.206138 185.296814 
L 109.177471 186.403361 
L 109.146159 187.509909 
L 109.112558 188.616456 
L 109.077508 189.723004 
L 109.042207 190.829551 
L 109.008064 191.936099 
L 108.976544 193.042646 
L 108.94901 194.149194 
L 108.926575 195.255741 
L 108.909983 196.362288 
L 108.899503 197.468836 
L 108.89487 198.575383 
L 108.895263 199.681931 
L 108.899335 200.788478 
L 108.905284 201.895026 
L 108.910989 203.001573 
L 108.914171 204.10812 
L 108.91259 205.214668 
L 108.904241 206.321215 
L 108.887546 207.427763 
L 108.8615 208.53431 
L 108.825762 209.640858 
L 108.825762 209.640858 
z
" clip-path="url(#p9540990f7f)" style="fill: none; stroke: #000000; stroke-opacity: 0.3"/>
   </g>
   <g id="FillBetweenPolyCollection_11">
    <path d="M 109.266286 179.515958 
L 106.733714 179.515958 
L 106.590696 178.484976 
L 106.438211 177.453994 
L 106.275933 176.423012 
L 106.103598 175.39203 
L 105.92101 174.361048 
L 105.728016 173.330066 
L 105.524447 172.299084 
L 105.310033 171.268102 
L 105.084305 170.23712 
L 104.8465 169.206138 
L 104.59549 168.175156 
L 104.329756 167.144174 
L 104.047418 166.113192 
L 103.746332 165.082209 
L 103.424252 164.051227 
L 103.079029 163.020245 
L 102.708851 161.989263 
L 102.312455 160.958281 
L 101.889325 159.927299 
L 101.439817 158.896317 
L 100.965206 157.865335 
L 100.467651 156.834353 
L 99.950078 155.803371 
L 99.416008 154.772389 
L 98.869342 153.741407 
L 98.31415 152.710425 
L 97.754474 151.679443 
L 97.19419 150.64846 
L 96.636914 149.617478 
L 96.085987 148.586496 
L 95.544501 147.555514 
L 95.015375 146.524532 
L 94.501447 145.49355 
L 94.005569 144.462568 
L 93.530688 143.431586 
L 93.079905 142.400604 
L 92.65651 141.369622 
L 92.263996 140.33864 
L 91.906067 139.307658 
L 91.586639 138.276676 
L 91.30985 137.245694 
L 91.08007 136.214711 
L 90.901911 135.183729 
L 90.780215 134.152747 
L 90.72 133.121765 
L 90.726351 132.090783 
L 90.80423 131.059801 
L 90.958206 130.028819 
L 91.192114 128.997837 
L 91.508655 127.966855 
L 91.908993 126.935873 
L 92.392378 125.904891 
L 92.955849 124.873909 
L 93.594069 123.842927 
L 94.299326 122.811945 
L 95.061699 121.780962 
L 95.869412 120.74998 
L 96.709321 119.718998 
L 97.567517 118.688016 
L 98.429967 117.657034 
L 99.283146 116.626052 
L 100.114605 115.59507 
L 100.913417 114.564088 
L 101.670491 113.533106 
L 102.378726 112.502124 
L 103.03303 111.471142 
L 103.630203 110.44016 
L 104.168746 109.409178 
L 104.648602 108.378196 
L 105.070888 107.347213 
L 105.437637 106.316231 
L 105.751571 105.285249 
L 106.015917 104.254267 
L 106.234272 103.223285 
L 106.410503 102.192303 
L 106.548673 101.161321 
L 106.65299 100.130339 
L 106.727752 99.099357 
L 106.777285 98.068375 
L 106.80588 97.037393 
L 106.817715 96.006411 
L 106.816774 94.975429 
L 106.806763 93.944447 
L 106.791047 92.913465 
L 106.772599 91.882482 
L 106.753962 90.8515 
L 106.737254 89.820518 
L 106.724179 88.789536 
L 106.716062 87.758554 
L 106.713904 86.727572 
L 106.718425 85.69659 
L 106.730121 84.665608 
L 106.749299 83.634626 
L 106.776102 82.603644 
L 106.810526 81.572662 
L 106.852413 80.54168 
L 106.901444 79.510698 
L 106.957119 78.479716 
L 107.018748 77.448733 
L 108.981252 77.448733 
L 108.981252 77.448733 
L 109.042881 78.479716 
L 109.098556 79.510698 
L 109.147587 80.54168 
L 109.189474 81.572662 
L 109.223898 82.603644 
L 109.250701 83.634626 
L 109.269879 84.665608 
L 109.281575 85.69659 
L 109.286096 86.727572 
L 109.283938 87.758554 
L 109.275821 88.789536 
L 109.262746 89.820518 
L 109.246038 90.8515 
L 109.227401 91.882482 
L 109.208953 92.913465 
L 109.193237 93.944447 
L 109.183226 94.975429 
L 109.182285 96.006411 
L 109.19412 97.037393 
L 109.222715 98.068375 
L 109.272248 99.099357 
L 109.34701 100.130339 
L 109.451327 101.161321 
L 109.589497 102.192303 
L 109.765728 103.223285 
L 109.984083 104.254267 
L 110.248429 105.285249 
L 110.562363 106.316231 
L 110.929112 107.347213 
L 111.351398 108.378196 
L 111.831254 109.409178 
L 112.369797 110.44016 
L 112.96697 111.471142 
L 113.621274 112.502124 
L 114.329509 113.533106 
L 115.086583 114.564088 
L 115.885395 115.59507 
L 116.716854 116.626052 
L 117.570033 117.657034 
L 118.432483 118.688016 
L 119.290679 119.718998 
L 120.130588 120.74998 
L 120.938301 121.780962 
L 121.700674 122.811945 
L 122.405931 123.842927 
L 123.044151 124.873909 
L 123.607622 125.904891 
L 124.091007 126.935873 
L 124.491345 127.966855 
L 124.807886 128.997837 
L 125.041794 130.028819 
L 125.19577 131.059801 
L 125.273649 132.090783 
L 125.28 133.121765 
L 125.219785 134.152747 
L 125.098089 135.183729 
L 124.91993 136.214711 
L 124.69015 137.245694 
L 124.413361 138.276676 
L 124.093933 139.307658 
L 123.736004 140.33864 
L 123.34349 141.369622 
L 122.920095 142.400604 
L 122.469312 143.431586 
L 121.994431 144.462568 
L 121.498553 145.49355 
L 120.984625 146.524532 
L 120.455499 147.555514 
L 119.914013 148.586496 
L 119.363086 149.617478 
L 118.80581 150.64846 
L 118.245526 151.679443 
L 117.68585 152.710425 
L 117.130658 153.741407 
L 116.583992 154.772389 
L 116.049922 155.803371 
L 115.532349 156.834353 
L 115.034794 157.865335 
L 114.560183 158.896317 
L 114.110675 159.927299 
L 113.687545 160.958281 
L 113.291149 161.989263 
L 112.920971 163.020245 
L 112.575748 164.051227 
L 112.253668 165.082209 
L 111.952582 166.113192 
L 111.670244 167.144174 
L 111.40451 168.175156 
L 111.1535 169.206138 
L 110.915695 170.23712 
L 110.689967 171.268102 
L 110.475553 172.299084 
L 110.271984 173.330066 
L 110.07899 174.361048 
L 109.896402 175.39203 
L 109.724067 176.423012 
L 109.561789 177.453994 
L 109.409304 178.484976 
L 109.266286 179.515958 
L 109.266286 179.515958 
z
" clip-path="url(#p9540990f7f)" style="fill: none; stroke: #000000; stroke-opacity: 0.3"/>
   </g>
   <g id="FillBetweenPolyCollection_12">
    <path d="M 110.287681 211.979959 
L 105.712319 211.979959 
L 105.526863 210.404661 
L 105.339731 208.829363 
L 105.150994 207.254064 
L 104.960275 205.678766 
L 104.766717 204.103468 
L 104.568979 202.52817 
L 104.365264 200.952871 
L 104.153375 199.377573 
L 103.9308 197.802275 
L 103.694825 196.226977 
L 103.442662 194.651679 
L 103.171591 193.07638 
L 102.879102 191.501082 
L 102.563029 189.925784 
L 102.221671 188.350486 
L 101.853888 186.775187 
L 101.459165 185.199889 
L 101.037657 183.624591 
L 100.590188 182.049293 
L 100.118235 180.473995 
L 99.623884 178.898696 
L 99.109763 177.323398 
L 98.578977 175.7481 
L 98.035027 174.172802 
L 97.481738 172.597503 
L 96.923187 171.022205 
L 96.363644 169.446907 
L 95.807518 167.871609 
L 95.259312 166.296311 
L 94.723576 164.721012 
L 94.204871 163.145714 
L 93.707718 161.570416 
L 93.236549 159.995118 
L 92.795644 158.419819 
L 92.389058 156.844521 
L 92.020548 155.269223 
L 91.693479 153.693925 
L 91.410742 152.118627 
L 91.174666 150.543328 
L 90.986942 148.96803 
L 90.848557 147.392732 
L 90.759753 145.817434 
L 90.72 144.242135 
L 90.728003 142.666837 
L 90.78173 141.091539 
L 90.878473 139.516241 
L 91.014931 137.940943 
L 91.187329 136.365644 
L 91.391557 134.790346 
L 91.623324 133.215048 
L 91.878341 131.63975 
L 92.1525 130.064451 
L 92.442065 128.489153 
L 92.743844 126.913855 
L 93.055344 125.338557 
L 93.374892 123.763259 
L 93.701712 122.18796 
L 94.035935 120.612662 
L 94.378564 119.037364 
L 94.731355 117.462066 
L 95.096649 115.886768 
L 95.477144 114.311469 
L 95.875623 112.736171 
L 96.294674 111.160873 
L 96.736397 109.585575 
L 97.202147 108.010276 
L 97.692312 106.434978 
L 98.206168 104.85968 
L 98.741796 103.284382 
L 99.296093 101.709084 
L 99.86486 100.133785 
L 100.442955 98.558487 
L 101.024521 96.983189 
L 101.603236 95.407891 
L 102.172596 93.832592 
L 102.726194 92.257294 
L 103.257976 90.681996 
L 103.762472 89.106698 
L 104.234974 87.5314 
L 104.671671 85.956101 
L 105.069731 84.380803 
L 105.427332 82.805505 
L 105.743653 81.230207 
L 106.018831 79.654908 
L 106.253887 78.07961 
L 106.450633 76.504312 
L 106.611562 74.929014 
L 106.739741 73.353716 
L 106.83868 71.778417 
L 106.912218 70.203119 
L 106.964397 68.627821 
L 106.999337 67.052523 
L 107.021124 65.477224 
L 107.033687 63.901926 
L 107.040699 62.326628 
L 107.045477 60.75133 
L 107.0509 59.176032 
L 107.059348 57.600733 
L 107.072657 56.025435 
L 108.927343 56.025435 
L 108.927343 56.025435 
L 108.940652 57.600733 
L 108.9491 59.176032 
L 108.954523 60.75133 
L 108.959301 62.326628 
L 108.966313 63.901926 
L 108.978876 65.477224 
L 109.000663 67.052523 
L 109.035603 68.627821 
L 109.087782 70.203119 
L 109.16132 71.778417 
L 109.260259 73.353716 
L 109.388438 74.929014 
L 109.549367 76.504312 
L 109.746113 78.07961 
L 109.981169 79.654908 
L 110.256347 81.230207 
L 110.572668 82.805505 
L 110.930269 84.380803 
L 111.328329 85.956101 
L 111.765026 87.5314 
L 112.237528 89.106698 
L 112.742024 90.681996 
L 113.273806 92.257294 
L 113.827404 93.832592 
L 114.396764 95.407891 
L 114.975479 96.983189 
L 115.557045 98.558487 
L 116.13514 100.133785 
L 116.703907 101.709084 
L 117.258204 103.284382 
L 117.793832 104.85968 
L 118.307688 106.434978 
L 118.797853 108.010276 
L 119.263603 109.585575 
L 119.705326 111.160873 
L 120.124377 112.736171 
L 120.522856 114.311469 
L 120.903351 115.886768 
L 121.268645 117.462066 
L 121.621436 119.037364 
L 121.964065 120.612662 
L 122.298288 122.18796 
L 122.625108 123.763259 
L 122.944656 125.338557 
L 123.256156 126.913855 
L 123.557935 128.489153 
L 123.8475 130.064451 
L 124.121659 131.63975 
L 124.376676 133.215048 
L 124.608443 134.790346 
L 124.812671 136.365644 
L 124.985069 137.940943 
L 125.121527 139.516241 
L 125.21827 141.091539 
L 125.271997 142.666837 
L 125.28 144.242135 
L 125.240247 145.817434 
L 125.151443 147.392732 
L 125.013058 148.96803 
L 124.825334 150.543328 
L 124.589258 152.118627 
L 124.306521 153.693925 
L 123.979452 155.269223 
L 123.610942 156.844521 
L 123.204356 158.419819 
L 122.763451 159.995118 
L 122.292282 161.570416 
L 121.795129 163.145714 
L 121.276424 164.721012 
L 120.740688 166.296311 
L 120.192482 167.871609 
L 119.636356 169.446907 
L 119.076813 171.022205 
L 118.518262 172.597503 
L 117.964973 174.172802 
L 117.421023 175.7481 
L 116.890237 177.323398 
L 116.376116 178.898696 
L 115.881765 180.473995 
L 115.409812 182.049293 
L 114.962343 183.624591 
L 114.540835 185.199889 
L 114.146112 186.775187 
L 113.778329 188.350486 
L 113.436971 189.925784 
L 113.120898 191.501082 
L 112.828409 193.07638 
L 112.557338 194.651679 
L 112.305175 196.226977 
L 112.0692 197.802275 
L 111.846625 199.377573 
L 111.634736 200.952871 
L 111.431021 202.52817 
L 111.233283 204.103468 
L 111.039725 205.678766 
L 110.849006 207.254064 
L 110.660269 208.829363 
L 110.473137 210.404661 
L 110.287681 211.979959 
L 110.287681 211.979959 
z
" clip-path="url(#p9540990f7f)" style="fill: none; stroke: #000000; stroke-opacity: 0.3"/>
   </g>
   <g id="matplotlib.axis_1"/>
   <g id="matplotlib.axis_2">
    <g id="ytick_1">
     <g id="line2d_1">
      <defs>
       <path id="mb099ffa51b" d="M 0 0 
L -3.5 0 
" style="stroke: #000000; stroke-width: 0.8"/>
      </defs>
      <g>
       <use xlink:href="#mb099ffa51b" x="21.6" y="291.6" style="stroke: #000000; stroke-width: 0.8"/>
      </g>
     </g>
     <g id="text_1">
      <text style="font-size: 10px; font-family: 'DejaVu Sans', 'Bitstream Vera Sans', 'Computer Modern Sans Serif', 'Lucida Grande', 'Verdana', 'Geneva', 'Lucid', 'Arial', 'Helvetica', 'Avant Garde', sans-serif; text-anchor: end" x="14.6" y="295.399219" transform="rotate(-0 14.6 295.399219)">0.1</text>
     </g>
    </g>
    <g id="ytick_2">
     <g id="line2d_2">
      <g>
       <use xlink:href="#mb099ffa51b" x="21.6" y="199.8" style="stroke: #000000; stroke-width: 0.8"/>
      </g>
     </g>
     <g id="text_2">
      <text style="font-size: 10px; font-family: 'DejaVu Sans', 'Bitstream Vera Sans', 'Computer Modern Sans Serif', 'Lucida Grande', 'Verdana', 'Geneva', 'Lucid', 'Arial', 'Helvetica', 'Avant Garde', sans-serif; text-anchor: end" x="14.6" y="203.599219" transform="rotate(-0 14.6 203.599219)">0.2</text>
     </g>
    </g>
    <g id="ytick_3">
     <g id="line2d_3">
      <g>
       <use xlink:href="#mb099ffa51b" x="21.6" y="108" style="stroke: #000000; stroke-width: 0.8"/>
      </g>
     </g>
     <g id="text_3">
      <text style="font-size: 10px; font-family: 'DejaVu Sans', 'Bitstream Vera Sans', 'Computer Modern Sans Serif', 'Lucida Grande', 'Verdana', 'Geneva', 'Lucid', 'Arial', 'Helvetica', 'Avant Garde', sans-serif; text-anchor: end" x="14.6" y="111.799219" transform="rotate(-0 14.6 111.799219)">0.3</text>
     </g>
    </g>
    <g id="ytick_4">
     <g id="line2d_4">
      <g>
       <use xlink:href="#mb099ffa51b" x="21.6" y="16.2" style="stroke: #000000; stroke-width: 0.8"/>
      </g>
     </g>
     <g id="text_4">
      <text style="font-size: 10px; font-family: 'DejaVu Sans', 'Bitstream Vera Sans', 'Computer Modern Sans Serif', 'Lucida Grande', 'Verdana', 'Geneva', 'Lucid', 'Arial', 'Helvetica', 'Avant Garde', sans-serif; text-anchor: end" x="14.6" y="19.999219" transform="rotate(-0 14.6 19.999219)">0.4</text>
     </g>
    </g>
    <g id="text_5">
     <!-- $E_{f}$ -->
     <g transform="translate(16.384437 160.27) rotate(-90)">
      <text>
       <tspan x="0" y="-0.796875" style="font-style: oblique; font-size: 14px; font-family: 'DejaVu Sans'">E</tspan>
       <tspan x="8.845703" y="1.5" style="font-style: oblique; font-size: 9.8px; font-family: 'DejaVu Sans'">f</tspan>
      </text>
     </g>
    </g>
   </g>
   <g id="line2d_5">
    <path d="M 50.4 269.568 
L 50.4 264.06 
" clip-path="url(#p9540990f7f)" style="fill: none; stroke: #000000; stroke-linecap: square"/>
   </g>
   <g id="line2d_6">
    <path d="M 50.4 269.568 
L 108 269.568 
" clip-path="url(#p9540990f7f)" style="fill: none; stroke: #000000; stroke-linecap: square"/>
   </g>
   <g id="line2d_7">
    <path d="M 108 269.568 
L 108 264.06 
" clip-path="url(#p9540990f7f)" style="fill: none; stroke: #000000; stroke-linecap: square"/>
   </g>
   <g id="patch_3">
    <path d="M 21.6 291.6 
L 21.6 16.2 
" style="fill: none; stroke: #000000; stroke-width: 0.8; stroke-linejoin: miter; stroke-linecap: square"/>
   </g>
   <g id="patch_4">
    <path d="M 136.8 291.6 
L 136.8 16.2 
" style="fill: none; stroke: #000000; stroke-width: 0.8; stroke-linejoin: miter; stroke-linecap: square"/>
   </g>
   <g id="patch_5">
    <path d="M 21.6 291.6 
L 136.8 291.6 
" style="fill: none; stroke: #000000; stroke-width: 0.8; stroke-linejoin: miter; stroke-linecap: square"/>
   </g>
   <g id="patch_6">
    <path d="M 21.6 16.2 
L 136.8 16.2 
" style="fill: none; stroke: #000000; stroke-width: 0.8; stroke-linejoin: miter; stroke-linecap: square"/>
   </g>
   <g id="text_6">
    <text style="font-weight: 700; font-size: 12px; font-family: 'DejaVu Sans', 'Bitstream Vera Sans', 'Computer Modern Sans Serif', 'Lucida Grande', 'Verdana', 'Geneva', 'Lucid', 'Arial', 'Helvetica', 'Avant Garde', sans-serif; text-anchor: middle" x="50.4" y="289.104375" transform="rotate(-0 50.4 289.104375)">#5</text>
   </g>
   <g id="text_7">
    <text style="font-weight: 700; font-size: 12px; font-family: 'DejaVu Sans', 'Bitstream Vera Sans', 'Computer Modern Sans Serif', 'Lucida Grande', 'Verdana', 'Geneva', 'Lucid', 'Arial', 'Helvetica', 'Avant Garde', sans-serif; text-anchor: middle" x="108" y="289.104375" transform="rotate(-0 108 289.104375)">#11</text>
   </g>
   <g id="text_8">
    <text style="font-size: 12px; font-family: 'DejaVu Sans', 'Bitstream Vera Sans', 'Computer Modern Sans Serif', 'Lucida Grande', 'Verdana', 'Geneva', 'Lucid', 'Arial', 'Helvetica', 'Avant Garde', sans-serif; text-anchor: middle" x="79.2" y="268.449375" transform="rotate(-0 79.2 268.449375)">****</text>
   </g>
   <g id="line2d_8">
    <path d="M 21.6 171.919185 
L 136.8 171.919185 
" clip-path="url(#p9540990f7f)" style="fill: none; stroke-dasharray: 3.7,1.6; stroke-dashoffset: 0; stroke: #808080; stroke-opacity: 0.7"/>
   </g>
   <g id="line2d_9">
    <path d="M 21.6 136.723559 
L 136.8 136.723559 
" clip-path="url(#p9540990f7f)" style="fill: none; stroke-dasharray: 3.7,1.6; stroke-dashoffset: 0; stroke: #808080; stroke-opacity: 0.7"/>
   </g>
   <g id="LineCollection_1">
    <path d="M 50.4 175.755985 
L 50.4 168.082385 
" clip-path="url(#p9540990f7f)" style="fill: none; stroke: #000000; stroke-width: 2"/>
   </g>
   <g id="line2d_10">
    <defs>
     <path id="m8d28f36f8a" d="M 5 0 
L -5 -0 
" style="stroke: #000000; stroke-width: 2"/>
    </defs>
    <g clip-path="url(#p9540990f7f)">
     <use xlink:href="#m8d28f36f8a" x="50.4" y="175.755985" style="stroke: #000000; stroke-width: 2"/>
    </g>
   </g>
   <g id="line2d_11">
    <g clip-path="url(#p9540990f7f)">
     <use xlink:href="#m8d28f36f8a" x="50.4" y="168.082385" style="stroke: #000000; stroke-width: 2"/>
    </g>
   </g>
   <g id="LineCollection_2">
    <path d="M 108 139.875006 
L 108 133.572112 
" clip-path="url(#p9540990f7f)" style="fill: none; stroke: #000000; stroke-width: 2"/>
   </g>
   <g id="line2d_12">
    <g clip-path="url(#p9540990f7f)">
     <use xlink:href="#m8d28f36f8a" x="108" y="139.875006" style="stroke: #000000; stroke-width: 2"/>
    </g>
   </g>
   <g id="line2d_13">
    <g clip-path="url(#p9540990f7f)">
     <use xlink:href="#m8d28f36f8a" x="108" y="133.572112" style="stroke: #000000; stroke-width: 2"/>
    </g>
   </g>
   <g id="line2d_14">
    <defs>
     <path id="m173903b94b" d="M 0 4 
C 1.060812 4 2.078319 3.578535 2.828427 2.828427 
C 3.578535 2.078319 4 1.060812 4 0 
C 4 -1.060812 3.578535 -2.078319 2.828427 -2.828427 
C 2.078319 -3.578535 1.060812 -4 0 -4 
C -1.060812 -4 -2.078319 -3.578535 -2.828427 -2.828427 
C -3.578535 -2.078319 -4 -1.060812 -4 0 
C -4 1.060812 -3.578535 2.078319 -2.828427 2.828427 
C -2.078319 3.578535 -1.060812 4 0 4 
z
" style="stroke: #000000"/>
    </defs>
    <g clip-path="url(#p9540990f7f)">
     <use xlink:href="#m173903b94b" x="50.4" y="171.919185" style="stroke: #000000"/>
    </g>
   </g>
   <g id="line2d_15">
    <g clip-path="url(#p9540990f7f)">
     <use xlink:href="#m173903b94b" x="108" y="136.723559" style="stroke: #000000"/>
    </g>
   </g>
  </g>
 </g>
 <defs>
  <clipPath id="p9540990f7f">
   <rect x="21.6" y="16.2" width="115.2" height="275.4"/>
  </clipPath>
 </defs>
</svg>
