<?xml version="1.0" encoding="utf-8" standalone="no"?>
<!DOCTYPE svg PUBLIC "-//W3C//DTD SVG 1.1//EN"
  "http://www.w3.org/Graphics/SVG/1.1/DTD/svg11.dtd">
<svg xmlns:xlink="http://www.w3.org/1999/xlink" width="144pt" height="324pt" viewBox="0 0 144 324" xmlns="http://www.w3.org/2000/svg" version="1.1">
 <metadata>
  <rdf:RDF xmlns:dc="http://purl.org/dc/elements/1.1/" xmlns:cc="http://creativecommons.org/ns#" xmlns:rdf="http://www.w3.org/1999/02/22-rdf-syntax-ns#">
   <cc:Work>
    <dc:type rdf:resource="http://purl.org/dc/dcmitype/StillImage"/>
    <dc:date>2025-12-11T11:15:00.099283</dc:date>
    <dc:format>image/svg+xml</dc:format>
    <dc:creator>
     <cc:Agent>
      <dc:title>Matplotlib v3.10.3, https://matplotlib.org/</dc:title>
     </cc:Agent>
    </dc:creator>
   </cc:Work>
  </rdf:RDF>
 </metadata>
 <defs>
  <style type="text/css">*{stroke-linejoin: round; stroke-linecap: butt}</style>
 </defs>
 <g id="figure_1">
  <g id="patch_1">
   <path d="M 0 324 
L 144 324 
L 144 0 
L 0 0 
z
" style="fill: #ffffff"/>
  </g>
  <g id="axes_1">
   <g id="patch_2">
    <path d="M 21.6 291.6 
L 136.8 291.6 
L 136.8 16.2 
L 21.6 16.2 
z
" style="fill: #ffffff"/>
   </g>
   <g id="FillBetweenPolyCollection_1">
    <path d="M 52.017416 202.779525 
L 48.782584 202.779525 
L 48.664983 201.904975 
L 48.552363 201.030426 
L 48.444723 200.155877 
L 48.341414 199.281327 
L 48.241153 198.406778 
L 48.14208 197.532228 
L 48.041859 196.657679 
L 47.937823 195.78313 
L 47.827148 194.90858 
L 47.707027 194.034031 
L 47.574863 193.159482 
L 47.428422 192.284932 
L 47.265968 191.410383 
L 47.086349 190.535833 
L 46.889028 189.661284 
L 46.674063 188.786735 
L 46.442037 187.912185 
L 46.193934 187.037636 
L 45.930999 186.163087 
L 45.65457 185.288537 
L 45.365925 184.413988 
L 45.066141 183.539438 
L 44.756003 182.664889 
L 44.435954 181.79034 
L 44.106108 180.91579 
L 43.766321 180.041241 
L 43.416311 179.166692 
L 43.05582 178.292142 
L 42.684794 177.417593 
L 42.303562 176.543043 
L 41.912989 175.668494 
L 41.51458 174.793945 
L 41.110524 173.919395 
L 40.703657 173.044846 
L 40.297348 172.170296 
L 39.895308 171.295747 
L 39.501345 170.421198 
L 39.119088 169.546648 
L 38.751698 168.672099 
L 38.401612 167.79755 
L 38.07034 166.923 
L 37.75834 166.048451 
L 37.464992 165.173901 
L 37.188664 164.299352 
L 36.926872 163.424803 
L 36.676522 162.550253 
L 36.434192 161.675704 
L 36.196446 160.801155 
L 35.960138 159.926605 
L 35.722692 159.052056 
L 35.482328 158.177506 
L 35.238236 157.302957 
L 34.99068 156.428408 
L 34.741052 155.553858 
L 34.491865 154.679309 
L 34.24671 153.80476 
L 34.010169 152.93021 
L 33.787707 152.055661 
L 33.585536 151.181111 
L 33.410443 150.306562 
L 33.269606 149.432013 
L 33.17037 148.557463 
L 33.12 147.682914 
L 33.125406 146.808364 
L 33.192848 145.933815 
L 33.327638 145.059266 
L 33.533844 144.184716 
L 33.81402 143.310167 
L 34.168981 142.435618 
L 34.597634 141.561068 
L 35.096887 140.686519 
L 35.661653 139.811969 
L 36.284935 138.93742 
L 36.958021 138.062871 
L 37.67076 137.188321 
L 38.411914 136.313772 
L 39.169577 135.439223 
L 39.931622 134.564673 
L 40.686169 133.690124 
L 41.42203 132.815574 
L 42.129122 131.941025 
L 42.798819 131.066476 
L 43.424225 130.191926 
L 44.000357 129.317377 
L 44.524233 128.442828 
L 44.994861 127.568278 
L 45.413139 126.693729 
L 45.781667 125.819179 
L 46.104494 124.94463 
L 46.386809 124.070081 
L 46.634594 123.195531 
L 46.854259 122.320982 
L 47.052286 121.446433 
L 47.234879 120.571883 
L 47.407671 119.697334 
L 47.575471 118.822784 
L 47.742083 117.948235 
L 47.910196 117.073686 
L 48.081361 116.199136 
L 52.718639 116.199136 
L 52.718639 116.199136 
L 52.889804 117.073686 
L 53.057917 117.948235 
L 53.224529 118.822784 
L 53.392329 119.697334 
L 53.565121 120.571883 
L 53.747714 121.446433 
L 53.945741 122.320982 
L 54.165406 123.195531 
L 54.413191 124.070081 
L 54.695506 124.94463 
L 55.018333 125.819179 
L 55.386861 126.693729 
L 55.805139 127.568278 
L 56.275767 128.442828 
L 56.799643 129.317377 
L 57.375775 130.191926 
L 58.001181 131.066476 
L 58.670878 131.941025 
L 59.37797 132.815574 
L 60.113831 133.690124 
L 60.868378 134.564673 
L 61.630423 135.439223 
L 62.388086 136.313772 
L 63.12924 137.188321 
L 63.841979 138.062871 
L 64.515065 138.93742 
L 65.138347 139.811969 
L 65.703113 140.686519 
L 66.202366 141.561068 
L 66.631019 142.435618 
L 66.98598 143.310167 
L 67.266156 144.184716 
L 67.472362 145.059266 
L 67.607152 145.933815 
L 67.674594 146.808364 
L 67.68 147.682914 
L 67.62963 148.557463 
L 67.530394 149.432013 
L 67.389557 150.306562 
L 67.214464 151.181111 
L 67.012293 152.055661 
L 66.789831 152.93021 
L 66.55329 153.80476 
L 66.308135 154.679309 
L 66.058948 155.553858 
L 65.80932 156.428408 
L 65.561764 157.302957 
L 65.317672 158.177506 
L 65.077308 159.052056 
L 64.839862 159.926605 
L 64.603554 160.801155 
L 64.365808 161.675704 
L 64.123478 162.550253 
L 63.873128 163.424803 
L 63.611336 164.299352 
L 63.335008 165.173901 
L 63.04166 166.048451 
L 62.72966 166.923 
L 62.398388 167.79755 
L 62.048302 168.672099 
L 61.680912 169.546648 
L 61.298655 170.421198 
L 60.904692 171.295747 
L 60.502652 172.170296 
L 60.096343 173.044846 
L 59.689476 173.919395 
L 59.28542 174.793945 
L 58.887011 175.668494 
L 58.496438 176.543043 
L 58.115206 177.417593 
L 57.74418 178.292142 
L 57.383689 179.166692 
L 57.033679 180.041241 
L 56.693892 180.91579 
L 56.364046 181.79034 
L 56.043997 182.664889 
L 55.733859 183.539438 
L 55.434075 184.413988 
L 55.14543 185.288537 
L 54.869001 186.163087 
L 54.606066 187.037636 
L 54.357963 187.912185 
L 54.125937 188.786735 
L 53.910972 189.661284 
L 53.713651 190.535833 
L 53.534032 191.410383 
L 53.371578 192.284932 
L 53.225137 193.159482 
L 53.092973 194.034031 
L 52.972852 194.90858 
L 52.862177 195.78313 
L 52.758141 196.657679 
L 52.65792 197.532228 
L 52.558847 198.406778 
L 52.458586 199.281327 
L 52.355277 200.155877 
L 52.247637 201.030426 
L 52.135017 201.904975 
L 52.017416 202.779525 
L 52.017416 202.779525 
z
" clip-path="url(#p0b2dab5156)" style="fill: none; stroke: #000000; stroke-opacity: 0.3"/>
   </g>
   <g id="FillBetweenPolyCollection_2">
    <path d="M 51.753462 208.257211 
L 49.046538 208.257211 
L 48.900728 207.328969 
L 48.742822 206.400727 
L 48.572077 205.472485 
L 48.387877 204.544243 
L 48.189783 203.616001 
L 47.977581 202.687759 
L 47.751313 201.759517 
L 47.511291 200.831276 
L 47.258092 199.903034 
L 46.992531 198.974792 
L 46.715612 198.04655 
L 46.428469 197.118308 
L 46.13229 196.190066 
L 45.828248 195.261824 
L 45.517423 194.333582 
L 45.20075 193.40534 
L 44.878976 192.477098 
L 44.552647 191.548856 
L 44.22211 190.620614 
L 43.887543 189.692372 
L 43.549003 188.76413 
L 43.206477 187.835888 
L 42.859946 186.907646 
L 42.509438 185.979404 
L 42.155063 185.051162 
L 41.797043 184.12292 
L 41.435712 183.194678 
L 41.071499 182.266436 
L 40.704897 181.338195 
L 40.336429 180.409953 
L 39.966606 179.481711 
L 39.595906 178.553469 
L 39.22476 177.625227 
L 38.85357 176.696985 
L 38.482749 175.768743 
L 38.112779 174.840501 
L 37.744294 173.912259 
L 37.378159 172.984017 
L 37.01555 172.055775 
L 36.658005 171.127533 
L 36.307451 170.199291 
L 35.966182 169.271049 
L 35.636792 168.342807 
L 35.322064 167.414565 
L 35.024812 166.486323 
L 34.747705 165.558081 
L 34.493072 164.629839 
L 34.262722 163.701597 
L 34.057785 162.773355 
L 33.878614 161.845114 
L 33.724737 160.916872 
L 33.59489 159.98863 
L 33.487115 159.060388 
L 33.398935 158.132146 
L 33.327574 157.203904 
L 33.270216 156.275662 
L 33.224278 155.34742 
L 33.187663 154.419178 
L 33.158979 153.490936 
L 33.137699 152.562694 
L 33.124246 151.634452 
L 33.12 150.70621 
L 33.127218 149.777968 
L 33.148886 148.849726 
L 33.188506 147.921484 
L 33.249849 146.993242 
L 33.33668 146.065 
L 33.452497 145.136758 
L 33.600282 144.208516 
L 33.782299 143.280274 
L 33.999947 142.352033 
L 34.253661 141.423791 
L 34.542886 140.495549 
L 34.866097 139.567307 
L 35.220879 138.639065 
L 35.604041 137.710823 
L 36.011765 136.782581 
L 36.439778 135.854339 
L 36.883534 134.926097 
L 37.338401 133.997855 
L 37.799842 133.069613 
L 38.263589 132.141371 
L 38.725804 131.213129 
L 39.183206 130.284887 
L 39.633187 129.356645 
L 40.073876 128.428403 
L 40.504185 127.500161 
L 40.923796 126.571919 
L 41.33311 125.643677 
L 41.733164 124.715435 
L 42.125488 123.787193 
L 42.511951 122.858952 
L 42.894571 121.93071 
L 43.275321 121.002468 
L 43.655941 120.074226 
L 44.037763 119.145984 
L 44.421573 118.217742 
L 44.807512 117.2895 
L 45.195027 116.361258 
L 55.604973 116.361258 
L 55.604973 116.361258 
L 55.992488 117.2895 
L 56.378427 118.217742 
L 56.762237 119.145984 
L 57.144059 120.074226 
L 57.524679 121.002468 
L 57.905429 121.93071 
L 58.288049 122.858952 
L 58.674512 123.787193 
L 59.066836 124.715435 
L 59.46689 125.643677 
L 59.876204 126.571919 
L 60.295815 127.500161 
L 60.726124 128.428403 
L 61.166813 129.356645 
L 61.616794 130.284887 
L 62.074196 131.213129 
L 62.536411 132.141371 
L 63.000158 133.069613 
L 63.461599 133.997855 
L 63.916466 134.926097 
L 64.360222 135.854339 
L 64.788235 136.782581 
L 65.195959 137.710823 
L 65.579121 138.639065 
L 65.933903 139.567307 
L 66.257114 140.495549 
L 66.546339 141.423791 
L 66.800053 142.352033 
L 67.017701 143.280274 
L 67.199718 144.208516 
L 67.347503 145.136758 
L 67.46332 146.065 
L 67.550151 146.993242 
L 67.611494 147.921484 
L 67.651114 148.849726 
L 67.672782 149.777968 
L 67.68 150.70621 
L 67.675754 151.634452 
L 67.662301 152.562694 
L 67.641021 153.490936 
L 67.612337 154.419178 
L 67.575722 155.34742 
L 67.529784 156.275662 
L 67.472426 157.203904 
L 67.401065 158.132146 
L 67.312885 159.060388 
L 67.20511 159.98863 
L 67.075263 160.916872 
L 66.921386 161.845114 
L 66.742215 162.773355 
L 66.537278 163.701597 
L 66.306928 164.629839 
L 66.052295 165.558081 
L 65.775188 166.486323 
L 65.477936 167.414565 
L 65.163208 168.342807 
L 64.833818 169.271049 
L 64.492549 170.199291 
L 64.141995 171.127533 
L 63.78445 172.055775 
L 63.421841 172.984017 
L 63.055706 173.912259 
L 62.687221 174.840501 
L 62.317251 175.768743 
L 61.94643 176.696985 
L 61.57524 177.625227 
L 61.204094 178.553469 
L 60.833394 179.481711 
L 60.463571 180.409953 
L 60.095103 181.338195 
L 59.728501 182.266436 
L 59.364288 183.194678 
L 59.002957 184.12292 
L 58.644937 185.051162 
L 58.290562 185.979404 
L 57.940054 186.907646 
L 57.593523 187.835888 
L 57.250997 188.76413 
L 56.912457 189.692372 
L 56.57789 190.620614 
L 56.247353 191.548856 
L 55.921024 192.477098 
L 55.59925 193.40534 
L 55.282577 194.333582 
L 54.971752 195.261824 
L 54.66771 196.190066 
L 54.371531 197.118308 
L 54.084388 198.04655 
L 53.807469 198.974792 
L 53.541908 199.903034 
L 53.288709 200.831276 
L 53.048687 201.759517 
L 52.822419 202.687759 
L 52.610217 203.616001 
L 52.412123 204.544243 
L 52.227923 205.472485 
L 52.057178 206.400727 
L 51.899272 207.328969 
L 51.753462 208.257211 
L 51.753462 208.257211 
z
" clip-path="url(#p0b2dab5156)" style="fill: none; stroke: #000000; stroke-opacity: 0.3"/>
   </g>
   <g id="FillBetweenPolyCollection_3">
    <path d="M 50.761094 253.237157 
L 50.038906 253.237157 
L 50.035983 251.765379 
L 50.04025 250.293601 
L 50.04948 248.821823 
L 50.060845 247.350045 
L 50.071396 245.878267 
L 50.078573 244.406489 
L 50.080664 242.934711 
L 50.077096 241.462933 
L 50.068519 239.991155 
L 50.056649 238.519377 
L 50.043906 237.047599 
L 50.032914 235.57582 
L 50.025962 234.104042 
L 50.024531 232.632264 
L 50.028986 231.160486 
L 50.038483 229.688708 
L 50.051115 228.21693 
L 50.064253 226.745152 
L 50.075016 225.273374 
L 50.080754 223.801596 
L 50.079438 222.329818 
L 50.069875 220.85804 
L 50.051687 219.386261 
L 50.025046 217.914483 
L 49.990233 216.442705 
L 49.947093 214.970927 
L 49.894527 213.499149 
L 49.830138 212.027371 
L 49.750118 210.555593 
L 49.649429 209.083815 
L 49.522236 207.612037 
L 49.362504 206.140259 
L 49.164621 204.668481 
L 48.923913 203.196702 
L 48.636946 201.724924 
L 48.301605 200.253146 
L 47.916981 198.781368 
L 47.483207 197.30959 
L 47.001351 195.837812 
L 46.473475 194.366034 
L 45.902878 192.894256 
L 45.294444 191.422478 
L 44.654959 189.9507 
L 43.993234 188.478922 
L 43.319897 187.007144 
L 42.646831 185.535365 
L 41.986285 184.063587 
L 41.349805 182.591809 
L 40.747138 181.120031 
L 40.18526 179.648253 
L 39.667656 178.176475 
L 39.193902 176.704697 
L 38.759611 175.232919 
L 38.356764 173.761141 
L 37.974467 172.289363 
L 37.600137 170.817585 
L 37.221091 169.345806 
L 36.826405 167.874028 
L 36.408829 166.40225 
L 35.966463 164.930472 
L 35.503847 163.458694 
L 35.032214 161.986916 
L 34.568715 160.515138 
L 34.13468 159.04336 
L 33.75312 157.571582 
L 33.44589 156.099804 
L 33.231006 154.628026 
L 33.120615 153.156248 
L 33.12 151.684469 
L 33.227778 150.212691 
L 33.437214 148.740913 
L 33.73832 147.269135 
L 34.120252 145.797357 
L 34.57345 144.325579 
L 35.091068 142.853801 
L 35.669412 141.382023 
L 36.307357 139.910245 
L 37.004957 138.438467 
L 37.761648 136.966689 
L 38.5745 135.49491 
L 39.436945 134.023132 
L 40.338247 132.551354 
L 41.263804 131.079576 
L 42.196169 129.607798 
L 43.116541 128.13602 
L 44.006406 126.664242 
L 44.849058 125.192464 
L 45.630761 123.720686 
L 46.341468 122.248908 
L 46.975095 120.77713 
L 47.529409 119.305351 
L 48.005646 117.833573 
L 48.407957 116.361795 
L 48.74276 114.890017 
L 49.018045 113.418239 
L 49.242675 111.946461 
L 49.425705 110.474683 
L 49.575761 109.002905 
L 49.700523 107.531127 
L 51.099477 107.531127 
L 51.099477 107.531127 
L 51.224239 109.002905 
L 51.374295 110.474683 
L 51.557325 111.946461 
L 51.781955 113.418239 
L 52.05724 114.890017 
L 52.392043 116.361795 
L 52.794354 117.833573 
L 53.270591 119.305351 
L 53.824905 120.77713 
L 54.458532 122.248908 
L 55.169239 123.720686 
L 55.950942 125.192464 
L 56.793594 126.664242 
L 57.683459 128.13602 
L 58.603831 129.607798 
L 59.536196 131.079576 
L 60.461753 132.551354 
L 61.363055 134.023132 
L 62.2255 135.49491 
L 63.038352 136.966689 
L 63.795043 138.438467 
L 64.492643 139.910245 
L 65.130588 141.382023 
L 65.708932 142.853801 
L 66.22655 144.325579 
L 66.679748 145.797357 
L 67.06168 147.269135 
L 67.362786 148.740913 
L 67.572222 150.212691 
L 67.68 151.684469 
L 67.679385 153.156248 
L 67.568994 154.628026 
L 67.35411 156.099804 
L 67.04688 157.571582 
L 66.66532 159.04336 
L 66.231285 160.515138 
L 65.767786 161.986916 
L 65.296153 163.458694 
L 64.833537 164.930472 
L 64.391171 166.40225 
L 63.973595 167.874028 
L 63.578909 169.345806 
L 63.199863 170.817585 
L 62.825533 172.289363 
L 62.443236 173.761141 
L 62.040389 175.232919 
L 61.606098 176.704697 
L 61.132344 178.176475 
L 60.61474 179.648253 
L 60.052862 181.120031 
L 59.450195 182.591809 
L 58.813715 184.063587 
L 58.153169 185.535365 
L 57.480103 187.007144 
L 56.806766 188.478922 
L 56.145041 189.9507 
L 55.505556 191.422478 
L 54.897122 192.894256 
L 54.326525 194.366034 
L 53.798649 195.837812 
L 53.316793 197.30959 
L 52.883019 198.781368 
L 52.498395 200.253146 
L 52.163054 201.724924 
L 51.876087 203.196702 
L 51.635379 204.668481 
L 51.437496 206.140259 
L 51.277764 207.612037 
L 51.150571 209.083815 
L 51.049882 210.555593 
L 50.969862 212.027371 
L 50.905473 213.499149 
L 50.852907 214.970927 
L 50.809767 216.442705 
L 50.774954 217.914483 
L 50.748313 219.386261 
L 50.730125 220.85804 
L 50.720562 222.329818 
L 50.719246 223.801596 
L 50.724984 225.273374 
L 50.735747 226.745152 
L 50.748885 228.21693 
L 50.761517 229.688708 
L 50.771014 231.160486 
L 50.775469 232.632264 
L 50.774038 234.104042 
L 50.767086 235.57582 
L 50.756094 237.047599 
L 50.743351 238.519377 
L 50.731481 239.991155 
L 50.722904 241.462933 
L 50.719336 242.934711 
L 50.721427 244.406489 
L 50.728604 245.878267 
L 50.739155 247.350045 
L 50.75052 248.821823 
L 50.75975 250.293601 
L 50.764017 251.765379 
L 50.761094 253.237157 
L 50.761094 253.237157 
z
" clip-path="url(#p0b2dab5156)" style="fill: none; stroke: #000000; stroke-opacity: 0.3"/>
   </g>
   <g id="FillBetweenPolyCollection_4">
    <path d="M 51.658248 219.903733 
L 49.141752 219.903733 
L 49.013836 218.176036 
L 48.878218 216.448339 
L 48.726592 214.720643 
L 48.548998 212.992946 
L 48.335127 211.265249 
L 48.075825 209.537552 
L 47.764492 207.809856 
L 47.398074 206.082159 
L 46.977395 204.354462 
L 46.506747 202.626765 
L 45.992799 200.899069 
L 45.443095 199.171372 
L 44.864522 197.443675 
L 44.262151 195.715978 
L 43.638769 193.988282 
L 42.995246 192.260585 
L 42.331618 190.532888 
L 41.648571 188.805191 
L 40.948857 187.077495 
L 40.238192 185.349798 
L 39.525309 183.622101 
L 38.821109 181.894404 
L 38.137124 180.166708 
L 37.483724 178.439011 
L 36.868619 176.711314 
L 36.296087 174.983617 
L 35.767176 173.255921 
L 35.280808 171.528224 
L 34.835426 169.800527 
L 34.430681 168.07283 
L 34.06864 166.345134 
L 33.754163 164.617437 
L 33.494362 162.88974 
L 33.297356 161.162043 
L 33.170703 159.434347 
L 33.12 157.70665 
L 33.148036 155.978953 
L 33.254694 154.251256 
L 33.437589 152.52356 
L 33.693187 150.795863 
L 34.018074 149.068166 
L 34.40999 147.340469 
L 34.868357 145.612773 
L 35.39414 143.885076 
L 35.989082 142.157379 
L 36.654454 140.429682 
L 37.389592 138.701986 
L 38.190516 136.974289 
L 39.048922 135.246592 
L 39.951736 133.518895 
L 40.881361 131.791198 
L 41.816603 130.063502 
L 42.734183 128.335805 
L 43.610628 126.608108 
L 44.424331 124.880411 
L 45.157508 123.152715 
L 45.797825 121.425018 
L 46.339488 119.697321 
L 46.783659 117.969624 
L 47.138121 116.241928 
L 47.416212 114.514231 
L 47.635144 112.786534 
L 47.813916 111.058837 
L 47.971092 109.331141 
L 48.122767 107.603444 
L 48.280996 105.875747 
L 48.452899 104.14805 
L 48.640541 102.420354 
L 48.841526 100.692657 
L 49.050144 98.96496 
L 49.258819 97.237263 
L 49.459579 95.509567 
L 49.645311 93.78187 
L 49.810633 92.054173 
L 49.95233 90.326476 
L 50.069366 88.59878 
L 50.162578 86.871083 
L 50.234175 85.143386 
L 50.287174 83.415689 
L 50.324871 81.687993 
L 50.350419 79.960296 
L 50.366536 78.232599 
L 50.37534 76.504902 
L 50.3783 74.777206 
L 50.376266 73.049509 
L 50.369559 71.321812 
L 50.358118 69.594115 
L 50.341664 67.866419 
L 50.319901 66.138722 
L 50.292723 64.411025 
L 50.260406 62.683328 
L 50.223775 60.955632 
L 50.184286 59.227935 
L 50.144014 57.500238 
L 50.105523 55.772541 
L 50.071624 54.044845 
L 50.045045 52.317148 
L 50.028076 50.589451 
L 50.022241 48.861754 
L 50.777759 48.861754 
L 50.777759 48.861754 
L 50.771924 50.589451 
L 50.754955 52.317148 
L 50.728376 54.044845 
L 50.694477 55.772541 
L 50.655986 57.500238 
L 50.615714 59.227935 
L 50.576225 60.955632 
L 50.539594 62.683328 
L 50.507277 64.411025 
L 50.480099 66.138722 
L 50.458336 67.866419 
L 50.441882 69.594115 
L 50.430441 71.321812 
L 50.423734 73.049509 
L 50.4217 74.777206 
L 50.42466 76.504902 
L 50.433464 78.232599 
L 50.449581 79.960296 
L 50.475129 81.687993 
L 50.512826 83.415689 
L 50.565825 85.143386 
L 50.637422 86.871083 
L 50.730634 88.59878 
L 50.84767 90.326476 
L 50.989367 92.054173 
L 51.154689 93.78187 
L 51.340421 95.509567 
L 51.541181 97.237263 
L 51.749856 98.96496 
L 51.958474 100.692657 
L 52.159459 102.420354 
L 52.347101 104.14805 
L 52.519004 105.875747 
L 52.677233 107.603444 
L 52.828908 109.331141 
L 52.986084 111.058837 
L 53.164856 112.786534 
L 53.383788 114.514231 
L 53.661879 116.241928 
L 54.016341 117.969624 
L 54.460512 119.697321 
L 55.002175 121.425018 
L 55.642492 123.152715 
L 56.375669 124.880411 
L 57.189372 126.608108 
L 58.065817 128.335805 
L 58.983397 130.063502 
L 59.918639 131.791198 
L 60.848264 133.518895 
L 61.751078 135.246592 
L 62.609484 136.974289 
L 63.410408 138.701986 
L 64.145546 140.429682 
L 64.810918 142.157379 
L 65.40586 143.885076 
L 65.931643 145.612773 
L 66.39001 147.340469 
L 66.781926 149.068166 
L 67.106813 150.795863 
L 67.362411 152.52356 
L 67.545306 154.251256 
L 67.651964 155.978953 
L 67.68 157.70665 
L 67.629297 159.434347 
L 67.502644 161.162043 
L 67.305638 162.88974 
L 67.045837 164.617437 
L 66.73136 166.345134 
L 66.369319 168.07283 
L 65.964574 169.800527 
L 65.519192 171.528224 
L 65.032824 173.255921 
L 64.503913 174.983617 
L 63.931381 176.711314 
L 63.316276 178.439011 
L 62.662876 180.166708 
L 61.978891 181.894404 
L 61.274691 183.622101 
L 60.561808 185.349798 
L 59.851143 187.077495 
L 59.151429 188.805191 
L 58.468382 190.532888 
L 57.804754 192.260585 
L 57.161231 193.988282 
L 56.537849 195.715978 
L 55.935478 197.443675 
L 55.356905 199.171372 
L 54.807201 200.899069 
L 54.293253 202.626765 
L 53.822605 204.354462 
L 53.401926 206.082159 
L 53.035508 207.809856 
L 52.724175 209.537552 
L 52.464873 211.265249 
L 52.251002 212.992946 
L 52.073408 214.720643 
L 51.921782 216.448339 
L 51.786164 218.176036 
L 51.658248 219.903733 
L 51.658248 219.903733 
z
" clip-path="url(#p0b2dab5156)" style="fill: none; stroke: #000000; stroke-opacity: 0.3"/>
   </g>
   <g id="FillBetweenPolyCollection_5">
    <path d="M 55.195861 192.121581 
L 45.604139 192.121581 
L 44.797423 190.434248 
L 43.921957 188.746915 
L 42.986435 187.059582 
L 42.002859 185.372249 
L 40.986405 183.684916 
L 39.955058 181.997583 
L 38.929 180.31025 
L 37.929795 178.622917 
L 36.979402 176.935584 
L 36.099106 175.248251 
L 35.308439 173.560918 
L 34.624209 171.873585 
L 34.059706 170.186252 
L 33.624168 168.498919 
L 33.32254 166.811586 
L 33.15554 165.124253 
L 33.12 163.43692 
L 33.209438 161.749587 
L 33.414763 160.062254 
L 33.725056 158.374921 
L 34.12832 156.687588 
L 34.612146 155.000255 
L 35.164252 153.312922 
L 35.77286 151.625589 
L 36.426921 149.938256 
L 37.116214 148.250923 
L 37.831343 146.56359 
L 38.56368 144.876257 
L 39.305279 143.188924 
L 40.048808 141.501591 
L 40.787499 139.814258 
L 41.515134 138.126925 
L 42.226065 136.439592 
L 42.915243 134.752259 
L 43.578262 133.064926 
L 44.211382 131.377593 
L 44.811541 129.69026 
L 45.376328 128.002927 
L 45.903936 126.315594 
L 46.393097 124.628261 
L 46.843003 122.940928 
L 47.25323 121.253595 
L 47.623687 119.566262 
L 47.954574 117.878929 
L 48.246384 116.191596 
L 48.499914 114.504263 
L 48.716308 112.81693 
L 48.8971 111.129597 
L 49.04425 109.442264 
L 49.160166 107.754931 
L 49.247699 106.067598 
L 49.310099 104.380265 
L 49.350946 102.692932 
L 49.374049 101.005599 
L 49.383322 99.318266 
L 49.382651 97.630933 
L 49.37577 95.9436 
L 49.366135 94.256267 
L 49.356834 92.568934 
L 49.350503 90.881601 
L 49.349285 89.194268 
L 49.354803 87.506935 
L 49.368158 85.819602 
L 49.389942 84.132269 
L 49.42027 82.444936 
L 49.458809 80.757603 
L 49.504829 79.07027 
L 49.557249 77.382937 
L 49.614692 75.695604 
L 49.675547 74.008271 
L 49.738039 72.320938 
L 49.800293 70.633605 
L 49.860417 68.946272 
L 49.916575 67.258939 
L 49.96706 65.571606 
L 50.010367 63.884273 
L 50.045251 62.19694 
L 50.070778 60.509607 
L 50.086362 58.822274 
L 50.091792 57.134941 
L 50.087233 55.447608 
L 50.073225 53.760275 
L 50.050657 52.072942 
L 50.020733 50.385609 
L 49.98492 48.698276 
L 49.944889 47.010943 
L 49.902448 45.32361 
L 49.859464 43.636277 
L 49.817794 41.948944 
L 49.779206 40.261611 
L 49.745318 38.574278 
L 49.717539 36.886945 
L 49.697019 35.199612 
L 49.684617 33.512279 
L 49.680876 31.824946 
L 49.686014 30.137613 
L 49.699921 28.45028 
L 49.722177 26.762947 
L 49.752071 25.075614 
L 51.047929 25.075614 
L 51.047929 25.075614 
L 51.077823 26.762947 
L 51.100079 28.45028 
L 51.113986 30.137613 
L 51.119124 31.824946 
L 51.115383 33.512279 
L 51.102981 35.199612 
L 51.082461 36.886945 
L 51.054682 38.574278 
L 51.020794 40.261611 
L 50.982206 41.948944 
L 50.940536 43.636277 
L 50.897552 45.32361 
L 50.855111 47.010943 
L 50.81508 48.698276 
L 50.779267 50.385609 
L 50.749343 52.072942 
L 50.726775 53.760275 
L 50.712767 55.447608 
L 50.708208 57.134941 
L 50.713638 58.822274 
L 50.729222 60.509607 
L 50.754749 62.19694 
L 50.789633 63.884273 
L 50.83294 65.571606 
L 50.883425 67.258939 
L 50.939583 68.946272 
L 50.999707 70.633605 
L 51.061961 72.320938 
L 51.124453 74.008271 
L 51.185308 75.695604 
L 51.242751 77.382937 
L 51.295171 79.07027 
L 51.341191 80.757603 
L 51.37973 82.444936 
L 51.410058 84.132269 
L 51.431842 85.819602 
L 51.445197 87.506935 
L 51.450715 89.194268 
L 51.449497 90.881601 
L 51.443166 92.568934 
L 51.433865 94.256267 
L 51.42423 95.9436 
L 51.417349 97.630933 
L 51.416678 99.318266 
L 51.425951 101.005599 
L 51.449054 102.692932 
L 51.489901 104.380265 
L 51.552301 106.067598 
L 51.639834 107.754931 
L 51.75575 109.442264 
L 51.9029 111.129597 
L 52.083692 112.81693 
L 52.300086 114.504263 
L 52.553616 116.191596 
L 52.845426 117.878929 
L 53.176313 119.566262 
L 53.54677 121.253595 
L 53.956997 122.940928 
L 54.406903 124.628261 
L 54.896064 126.315594 
L 55.423672 128.002927 
L 55.988459 129.69026 
L 56.588618 131.377593 
L 57.221738 133.064926 
L 57.884757 134.752259 
L 58.573935 136.439592 
L 59.284866 138.126925 
L 60.012501 139.814258 
L 60.751192 141.501591 
L 61.494721 143.188924 
L 62.23632 144.876257 
L 62.968657 146.56359 
L 63.683786 148.250923 
L 64.373079 149.938256 
L 65.02714 151.625589 
L 65.635748 153.312922 
L 66.187854 155.000255 
L 66.67168 156.687588 
L 67.074944 158.374921 
L 67.385237 160.062254 
L 67.590562 161.749587 
L 67.68 163.43692 
L 67.64446 165.124253 
L 67.47746 166.811586 
L 67.175832 168.498919 
L 66.740294 170.186252 
L 66.175791 171.873585 
L 65.491561 173.560918 
L 64.700894 175.248251 
L 63.820598 176.935584 
L 62.870205 178.622917 
L 61.871 180.31025 
L 60.844942 181.997583 
L 59.813595 183.684916 
L 58.797141 185.372249 
L 57.813565 187.059582 
L 56.878043 188.746915 
L 56.002577 190.434248 
L 55.195861 192.121581 
L 55.195861 192.121581 
z
" clip-path="url(#p0b2dab5156)" style="fill: none; stroke: #000000; stroke-opacity: 0.3"/>
   </g>
   <g id="FillBetweenPolyCollection_6">
    <path d="M 51.612256 219.903969 
L 49.187744 219.903969 
L 49.185635 218.795576 
L 49.192013 217.687182 
L 49.205823 216.578788 
L 49.225617 215.470394 
L 49.249572 214.362 
L 49.275524 213.253607 
L 49.301013 212.145213 
L 49.323331 211.036819 
L 49.339578 209.928425 
L 49.346728 208.820032 
L 49.341686 207.711638 
L 49.321353 206.603244 
L 49.282684 205.49485 
L 49.222751 204.386456 
L 49.138789 203.278063 
L 49.028252 202.169669 
L 48.888851 201.061275 
L 48.718596 199.952881 
L 48.51582 198.844488 
L 48.279211 197.736094 
L 48.007824 196.6277 
L 47.701091 195.519306 
L 47.358826 194.410912 
L 46.981222 193.302519 
L 46.568841 192.194125 
L 46.122606 191.085731 
L 45.643785 189.977337 
L 45.133978 188.868943 
L 44.595107 187.76055 
L 44.02941 186.652156 
L 43.439434 185.543762 
L 42.828041 184.435368 
L 42.198419 183.326975 
L 41.554091 182.218581 
L 40.89893 181.110187 
L 40.237176 180.001793 
L 39.573438 178.893399 
L 38.912699 177.785006 
L 38.260292 176.676612 
L 37.621873 175.568218 
L 37.003357 174.459824 
L 36.410844 173.351431 
L 35.85051 172.243037 
L 35.328478 171.134643 
L 34.850669 170.026249 
L 34.422632 168.917855 
L 34.049374 167.809462 
L 33.735175 166.701068 
L 33.483415 165.592674 
L 33.296422 164.48428 
L 33.175334 163.375886 
L 33.12 162.267493 
L 33.128923 161.159099 
L 33.199247 160.050705 
L 33.326795 158.942311 
L 33.506167 157.833918 
L 33.73088 156.725524 
L 33.993565 155.61713 
L 34.286208 154.508736 
L 34.600419 153.400342 
L 34.927734 152.291949 
L 35.259924 151.183555 
L 35.589297 150.075161 
L 35.908996 148.966767 
L 36.213251 147.858374 
L 36.497597 146.74998 
L 36.759034 145.641586 
L 36.996117 144.533192 
L 37.208983 143.424798 
L 37.3993 142.316405 
L 37.570147 141.208011 
L 37.725828 140.099617 
L 37.871636 138.991223 
L 38.013559 137.882829 
L 38.157974 136.774436 
L 38.311321 135.666042 
L 38.479776 134.557648 
L 38.668957 133.449254 
L 38.883655 132.340861 
L 39.127623 131.232467 
L 39.403418 130.124073 
L 39.712306 129.015679 
L 40.054245 127.907285 
L 40.427917 126.798892 
L 40.830837 125.690498 
L 41.259498 124.582104 
L 41.70957 123.47371 
L 42.176117 122.365316 
L 42.653832 121.256923 
L 43.137269 120.148529 
L 43.621067 119.040135 
L 44.100144 117.931741 
L 44.569864 116.823348 
L 45.026161 115.714954 
L 45.465625 114.60656 
L 45.885545 113.498166 
L 46.283911 112.389772 
L 46.659386 111.281379 
L 47.011246 110.172985 
L 53.788754 110.172985 
L 53.788754 110.172985 
L 54.140614 111.281379 
L 54.516089 112.389772 
L 54.914455 113.498166 
L 55.334375 114.60656 
L 55.773839 115.714954 
L 56.230136 116.823348 
L 56.699856 117.931741 
L 57.178933 119.040135 
L 57.662731 120.148529 
L 58.146168 121.256923 
L 58.623883 122.365316 
L 59.09043 123.47371 
L 59.540502 124.582104 
L 59.969163 125.690498 
L 60.372083 126.798892 
L 60.745755 127.907285 
L 61.087694 129.015679 
L 61.396582 130.124073 
L 61.672377 131.232467 
L 61.916345 132.340861 
L 62.131043 133.449254 
L 62.320224 134.557648 
L 62.488679 135.666042 
L 62.642026 136.774436 
L 62.786441 137.882829 
L 62.928364 138.991223 
L 63.074172 140.099617 
L 63.229853 141.208011 
L 63.4007 142.316405 
L 63.591017 143.424798 
L 63.803883 144.533192 
L 64.040966 145.641586 
L 64.302403 146.74998 
L 64.586749 147.858374 
L 64.891004 148.966767 
L 65.210703 150.075161 
L 65.540076 151.183555 
L 65.872266 152.291949 
L 66.199581 153.400342 
L 66.513792 154.508736 
L 66.806435 155.61713 
L 67.06912 156.725524 
L 67.293833 157.833918 
L 67.473205 158.942311 
L 67.600753 160.050705 
L 67.671077 161.159099 
L 67.68 162.267493 
L 67.624666 163.375886 
L 67.503578 164.48428 
L 67.316585 165.592674 
L 67.064825 166.701068 
L 66.750626 167.809462 
L 66.377368 168.917855 
L 65.949331 170.026249 
L 65.471522 171.134643 
L 64.94949 172.243037 
L 64.389156 173.351431 
L 63.796643 174.459824 
L 63.178127 175.568218 
L 62.539708 176.676612 
L 61.887301 177.785006 
L 61.226562 178.893399 
L 60.562824 180.001793 
L 59.90107 181.110187 
L 59.245909 182.218581 
L 58.601581 183.326975 
L 57.971959 184.435368 
L 57.360566 185.543762 
L 56.77059 186.652156 
L 56.204893 187.76055 
L 55.666022 188.868943 
L 55.156215 189.977337 
L 54.677394 191.085731 
L 54.231159 192.194125 
L 53.818778 193.302519 
L 53.441174 194.410912 
L 53.098909 195.519306 
L 52.792176 196.6277 
L 52.520789 197.736094 
L 52.28418 198.844488 
L 52.081404 199.952881 
L 51.911149 201.061275 
L 51.771748 202.169669 
L 51.661211 203.278063 
L 51.577249 204.386456 
L 51.517316 205.49485 
L 51.478647 206.603244 
L 51.458314 207.711638 
L 51.453272 208.820032 
L 51.460422 209.928425 
L 51.476669 211.036819 
L 51.498987 212.145213 
L 51.524476 213.253607 
L 51.550428 214.362 
L 51.574383 215.470394 
L 51.594177 216.578788 
L 51.607987 217.687182 
L 51.614365 218.795576 
L 51.612256 219.903969 
L 51.612256 219.903969 
z
" clip-path="url(#p0b2dab5156)" style="fill: none; stroke: #000000; stroke-opacity: 0.3"/>
   </g>
   <g id="FillBetweenPolyCollection_7">
    <path d="M 51.283968 307.76523 
L 49.516032 307.76523 
L 49.522179 305.860725 
L 49.540363 303.956221 
L 49.569838 302.051717 
L 49.609411 300.147213 
L 49.657533 298.242708 
L 49.712388 296.338204 
L 49.772016 294.4337 
L 49.834421 292.529195 
L 49.897684 290.624691 
L 49.960053 288.720187 
L 50.020018 286.815683 
L 50.076358 284.911178 
L 50.128165 283.006674 
L 50.174842 281.10217 
L 50.216088 279.197665 
L 50.251858 277.293161 
L 50.282322 275.388657 
L 50.307812 273.484152 
L 50.328773 271.579648 
L 50.345716 269.675144 
L 50.359176 267.77064 
L 50.369682 265.866135 
L 50.377724 263.961631 
L 50.383744 262.057127 
L 50.388114 260.152622 
L 50.391135 258.248118 
L 50.393025 256.343614 
L 50.393924 254.43911 
L 50.393881 252.534605 
L 50.392851 250.630101 
L 50.390684 248.725597 
L 50.387111 246.821092 
L 50.381723 244.916588 
L 50.373948 243.012084 
L 50.363024 241.10758 
L 50.347963 239.203075 
L 50.327518 237.298571 
L 50.300151 235.394067 
L 50.263999 233.489562 
L 50.216854 231.585058 
L 50.156148 229.680554 
L 50.078961 227.776049 
L 49.98204 225.871545 
L 49.861854 223.967041 
L 49.714669 222.062537 
L 49.536655 220.158032 
L 49.324024 218.253528 
L 49.073193 216.349024 
L 48.780967 214.444519 
L 48.444732 212.540015 
L 48.062652 210.635511 
L 47.633845 208.731007 
L 47.158535 206.826502 
L 46.638153 204.921998 
L 46.075388 203.017494 
L 45.474162 201.112989 
L 44.839539 199.208485 
L 44.177558 197.303981 
L 43.495004 195.399476 
L 42.799129 193.494972 
L 42.097343 191.590468 
L 41.396899 189.685964 
L 40.704596 187.781459 
L 40.026524 185.876955 
L 39.367878 183.972451 
L 38.732847 182.067946 
L 38.124591 180.163442 
L 37.545303 178.258938 
L 36.996357 176.354434 
L 36.478507 174.449929 
L 35.992138 172.545425 
L 35.537533 170.640921 
L 35.115134 168.736416 
L 34.725778 166.831912 
L 34.370884 164.927408 
L 34.052582 163.022903 
L 33.773774 161.118399 
L 33.538118 159.213895 
L 33.349941 157.309391 
L 33.214087 155.404886 
L 33.135707 153.500382 
L 33.12 151.595878 
L 33.171929 149.691373 
L 33.295912 147.786869 
L 33.495526 145.882365 
L 33.773215 143.977861 
L 34.130051 142.073356 
L 34.56553 140.168852 
L 35.077444 138.264348 
L 35.661826 136.359843 
L 36.312966 134.455339 
L 37.023524 132.550835 
L 37.784708 130.646331 
L 38.586527 128.741826 
L 39.418097 126.837322 
L 40.267987 124.932818 
L 41.124587 123.028313 
L 41.976475 121.123809 
L 42.81277 119.219305 
L 57.98723 119.219305 
L 57.98723 119.219305 
L 58.823525 121.123809 
L 59.675413 123.028313 
L 60.532013 124.932818 
L 61.381903 126.837322 
L 62.213473 128.741826 
L 63.015292 130.646331 
L 63.776476 132.550835 
L 64.487034 134.455339 
L 65.138174 136.359843 
L 65.722556 138.264348 
L 66.23447 140.168852 
L 66.669949 142.073356 
L 67.026785 143.977861 
L 67.304474 145.882365 
L 67.504088 147.786869 
L 67.628071 149.691373 
L 67.68 151.595878 
L 67.664293 153.500382 
L 67.585913 155.404886 
L 67.450059 157.309391 
L 67.261882 159.213895 
L 67.026226 161.118399 
L 66.747418 163.022903 
L 66.429116 164.927408 
L 66.074222 166.831912 
L 65.684866 168.736416 
L 65.262467 170.640921 
L 64.807862 172.545425 
L 64.321493 174.449929 
L 63.803643 176.354434 
L 63.254697 178.258938 
L 62.675409 180.163442 
L 62.067153 182.067946 
L 61.432122 183.972451 
L 60.773476 185.876955 
L 60.095404 187.781459 
L 59.403101 189.685964 
L 58.702657 191.590468 
L 58.000871 193.494972 
L 57.304996 195.399476 
L 56.622442 197.303981 
L 55.960461 199.208485 
L 55.325838 201.112989 
L 54.724612 203.017494 
L 54.161847 204.921998 
L 53.641465 206.826502 
L 53.166155 208.731007 
L 52.737348 210.635511 
L 52.355268 212.540015 
L 52.019033 214.444519 
L 51.726807 216.349024 
L 51.475976 218.253528 
L 51.263345 220.158032 
L 51.085331 222.062537 
L 50.938146 223.967041 
L 50.81796 225.871545 
L 50.721039 227.776049 
L 50.643852 229.680554 
L 50.583146 231.585058 
L 50.536001 233.489562 
L 50.499849 235.394067 
L 50.472482 237.298571 
L 50.452037 239.203075 
L 50.436976 241.10758 
L 50.426052 243.012084 
L 50.418277 244.916588 
L 50.412889 246.821092 
L 50.409316 248.725597 
L 50.407149 250.630101 
L 50.406119 252.534605 
L 50.406076 254.43911 
L 50.406975 256.343614 
L 50.408865 258.248118 
L 50.411886 260.152622 
L 50.416256 262.057127 
L 50.422276 263.961631 
L 50.430318 265.866135 
L 50.440824 267.77064 
L 50.454284 269.675144 
L 50.471227 271.579648 
L 50.492188 273.484152 
L 50.517678 275.388657 
L 50.548142 277.293161 
L 50.583912 279.197665 
L 50.625158 281.10217 
L 50.671835 283.006674 
L 50.723642 284.911178 
L 50.779982 286.815683 
L 50.839947 288.720187 
L 50.902316 290.624691 
L 50.965579 292.529195 
L 51.027984 294.4337 
L 51.087612 296.338204 
L 51.142467 298.242708 
L 51.190589 300.147213 
L 51.230162 302.051717 
L 51.259637 303.956221 
L 51.277821 305.860725 
L 51.283968 307.76523 
L 51.283968 307.76523 
z
" clip-path="url(#p0b2dab5156)" style="fill: none; stroke: #000000; stroke-opacity: 0.3"/>
   </g>
   <g id="FillBetweenPolyCollection_8">
    <path d="M 108.5092 175.293226 
L 107.4908 175.293226 
L 107.495628 174.204244 
L 107.511451 173.115263 
L 107.536717 172.026282 
L 107.569116 170.9373 
L 107.605782 169.848319 
L 107.64355 168.759338 
L 107.679227 167.670356 
L 107.709849 166.581375 
L 107.732905 165.492394 
L 107.746508 164.403412 
L 107.749516 163.314431 
L 107.741583 162.22545 
L 107.723163 161.136468 
L 107.695446 160.047487 
L 107.660239 158.958506 
L 107.619775 157.869524 
L 107.576471 156.780543 
L 107.532633 155.691562 
L 107.490134 154.602581 
L 107.450094 153.513599 
L 107.412601 152.424618 
L 107.376514 151.335637 
L 107.339375 150.246655 
L 107.297453 149.157674 
L 107.245924 148.068693 
L 107.179163 146.979711 
L 107.091112 145.89073 
L 106.97568 144.801749 
L 106.827131 143.712767 
L 106.640404 142.623786 
L 106.411362 141.534805 
L 106.136949 140.445823 
L 105.815269 139.356842 
L 105.44561 138.267861 
L 105.028437 137.178879 
L 104.565366 136.089898 
L 104.059136 135.000917 
L 103.513553 133.911935 
L 102.933398 132.822954 
L 102.324266 131.733973 
L 101.692332 130.644991 
L 101.044026 129.55601 
L 100.385663 128.467029 
L 99.723059 127.378047 
L 99.061205 126.289066 
L 98.404047 125.200085 
L 97.754442 124.111104 
L 97.114297 123.022122 
L 96.484886 121.933141 
L 95.867295 120.84416 
L 95.262922 119.755178 
L 94.673931 118.666197 
L 94.103585 117.577216 
L 93.55638 116.488234 
L 93.03797 115.399253 
L 92.554898 114.310272 
L 92.114184 113.22129 
L 91.722886 112.132309 
L 91.387702 111.043328 
L 91.114717 109.954346 
L 90.909322 108.865365 
L 90.776295 107.776384 
L 90.72 106.687402 
L 90.744589 105.598421 
L 90.854115 104.50944 
L 91.052449 103.420458 
L 91.342966 102.331477 
L 91.727986 101.242496 
L 92.20806 100.153514 
L 92.78121 99.064533 
L 93.442281 97.975552 
L 94.18255 96.88657 
L 94.989718 95.797589 
L 95.848323 94.708608 
L 96.740572 93.619627 
L 97.647493 92.530645 
L 98.550239 91.441664 
L 99.431388 90.352683 
L 100.276027 89.263701 
L 101.072507 88.17472 
L 101.812756 87.085739 
L 102.492176 85.996757 
L 103.109167 84.907776 
L 103.664414 83.818795 
L 104.160085 82.729813 
L 104.5991 81.640832 
L 104.984571 80.551851 
L 105.319512 79.462869 
L 105.606797 78.373888 
L 105.849342 77.284907 
L 106.050409 76.195925 
L 106.213916 75.106944 
L 106.344664 74.017963 
L 106.448386 72.928981 
L 106.53158 71.84 
L 106.601149 70.751019 
L 106.663892 69.662037 
L 106.725935 68.573056 
L 106.792212 67.484075 
L 109.207788 67.484075 
L 109.207788 67.484075 
L 109.274065 68.573056 
L 109.336108 69.662037 
L 109.398851 70.751019 
L 109.46842 71.84 
L 109.551614 72.928981 
L 109.655336 74.017963 
L 109.786084 75.106944 
L 109.949591 76.195925 
L 110.150658 77.284907 
L 110.393203 78.373888 
L 110.680488 79.462869 
L 111.015429 80.551851 
L 111.4009 81.640832 
L 111.839915 82.729813 
L 112.335586 83.818795 
L 112.890833 84.907776 
L 113.507824 85.996757 
L 114.187244 87.085739 
L 114.927493 88.17472 
L 115.723973 89.263701 
L 116.568612 90.352683 
L 117.449761 91.441664 
L 118.352507 92.530645 
L 119.259428 93.619627 
L 120.151677 94.708608 
L 121.010282 95.797589 
L 121.81745 96.88657 
L 122.557719 97.975552 
L 123.21879 99.064533 
L 123.79194 100.153514 
L 124.272014 101.242496 
L 124.657034 102.331477 
L 124.947551 103.420458 
L 125.145885 104.50944 
L 125.255411 105.598421 
L 125.28 106.687402 
L 125.223705 107.776384 
L 125.090678 108.865365 
L 124.885283 109.954346 
L 124.612298 111.043328 
L 124.277114 112.132309 
L 123.885816 113.22129 
L 123.445102 114.310272 
L 122.96203 115.399253 
L 122.44362 116.488234 
L 121.896415 117.577216 
L 121.326069 118.666197 
L 120.737078 119.755178 
L 120.132705 120.84416 
L 119.515114 121.933141 
L 118.885703 123.022122 
L 118.245558 124.111104 
L 117.595953 125.200085 
L 116.938795 126.289066 
L 116.276941 127.378047 
L 115.614337 128.467029 
L 114.955974 129.55601 
L 114.307668 130.644991 
L 113.675734 131.733973 
L 113.066602 132.822954 
L 112.486447 133.911935 
L 111.940864 135.000917 
L 111.434634 136.089898 
L 110.971563 137.178879 
L 110.55439 138.267861 
L 110.184731 139.356842 
L 109.863051 140.445823 
L 109.588638 141.534805 
L 109.359596 142.623786 
L 109.172869 143.712767 
L 109.02432 144.801749 
L 108.908888 145.89073 
L 108.820837 146.979711 
L 108.754076 148.068693 
L 108.702547 149.157674 
L 108.660625 150.246655 
L 108.623486 151.335637 
L 108.587399 152.424618 
L 108.549906 153.513599 
L 108.509866 154.602581 
L 108.467367 155.691562 
L 108.423529 156.780543 
L 108.380225 157.869524 
L 108.339761 158.958506 
L 108.304554 160.047487 
L 108.276837 161.136468 
L 108.258417 162.22545 
L 108.250484 163.314431 
L 108.253492 164.403412 
L 108.267095 165.492394 
L 108.290151 166.581375 
L 108.320773 167.670356 
L 108.35645 168.759338 
L 108.394218 169.848319 
L 108.430884 170.9373 
L 108.463283 172.026282 
L 108.488549 173.115263 
L 108.504372 174.204244 
L 108.5092 175.293226 
L 108.5092 175.293226 
z
" clip-path="url(#p0b2dab5156)" style="fill: none; stroke: #000000; stroke-opacity: 0.3"/>
   </g>
   <g id="FillBetweenPolyCollection_9">
    <path d="M 108.620513 240.840262 
L 107.379487 240.840262 
L 107.384625 239.319275 
L 107.399789 237.798287 
L 107.424236 236.2773 
L 107.456795 234.756312 
L 107.495959 233.235325 
L 107.540002 231.714337 
L 107.587096 230.19335 
L 107.63544 228.672362 
L 107.68336 227.151375 
L 107.729398 225.630387 
L 107.772363 224.1094 
L 107.811357 222.588412 
L 107.845771 221.067425 
L 107.875255 219.546437 
L 107.899671 218.02545 
L 107.919034 216.504462 
L 107.933452 214.983475 
L 107.943068 213.462487 
L 107.948009 211.9415 
L 107.948349 210.420512 
L 107.944095 208.899525 
L 107.935181 207.378537 
L 107.921485 205.85755 
L 107.902864 204.336562 
L 107.879203 202.815575 
L 107.850466 201.294587 
L 107.816766 199.7736 
L 107.778416 198.252612 
L 107.735984 196.731625 
L 107.690321 195.210637 
L 107.642571 193.68965 
L 107.594148 192.168662 
L 107.546688 190.647675 
L 107.501963 189.126687 
L 107.461777 187.6057 
L 107.427839 186.084712 
L 107.401638 184.563725 
L 107.384312 183.042737 
L 107.376548 181.52175 
L 107.378498 180.000762 
L 107.389742 178.479775 
L 107.409277 176.958787 
L 107.435555 175.4378 
L 107.466543 173.916812 
L 107.499806 172.395825 
L 107.532606 170.874837 
L 107.561995 169.35385 
L 107.584899 167.832862 
L 107.598182 166.311875 
L 107.598691 164.790887 
L 107.583273 163.2699 
L 107.548771 161.748912 
L 107.492009 160.227925 
L 107.409757 158.706937 
L 107.298707 157.18595 
L 107.155441 155.664962 
L 106.976423 154.143975 
L 106.758009 152.622987 
L 106.496479 151.102 
L 106.188111 149.581012 
L 105.829284 148.060025 
L 105.41663 146.539037 
L 104.947217 145.01805 
L 104.41878 143.497062 
L 103.829974 141.976075 
L 103.180655 140.455087 
L 102.472156 138.9341 
L 101.707544 137.413112 
L 100.891838 135.892125 
L 100.03215 134.371137 
L 99.137733 132.85015 
L 98.219918 131.329162 
L 97.291914 129.808175 
L 96.368496 128.287187 
L 95.465559 126.7662 
L 94.599592 125.245212 
L 93.787081 123.724225 
L 93.043896 122.203237 
L 92.3847 120.68225 
L 91.822423 119.161262 
L 91.367833 117.640275 
L 91.029233 116.119287 
L 90.81229 114.5983 
L 90.72 113.077312 
L 90.752765 111.556325 
L 90.908564 110.035337 
L 91.183187 108.51435 
L 91.570501 106.993362 
L 92.062714 105.472375 
L 92.650634 103.951387 
L 93.323894 102.4304 
L 94.071151 100.909412 
L 94.880267 99.388425 
L 95.738485 97.867437 
L 96.632604 96.34645 
L 97.549184 94.825462 
L 98.474782 93.304475 
L 99.396216 91.783487 
L 100.30087 90.2625 
L 115.69913 90.2625 
L 115.69913 90.2625 
L 116.603784 91.783487 
L 117.525218 93.304475 
L 118.450816 94.825462 
L 119.367396 96.34645 
L 120.261515 97.867437 
L 121.119733 99.388425 
L 121.928849 100.909412 
L 122.676106 102.4304 
L 123.349366 103.951387 
L 123.937286 105.472375 
L 124.429499 106.993362 
L 124.816813 108.51435 
L 125.091436 110.035337 
L 125.247235 111.556325 
L 125.28 113.077312 
L 125.18771 114.5983 
L 124.970767 116.119287 
L 124.632167 117.640275 
L 124.177577 119.161262 
L 123.6153 120.68225 
L 122.956104 122.203237 
L 122.212919 123.724225 
L 121.400408 125.245212 
L 120.534441 126.7662 
L 119.631504 128.287187 
L 118.708086 129.808175 
L 117.780082 131.329162 
L 116.862267 132.85015 
L 115.96785 134.371137 
L 115.108162 135.892125 
L 114.292456 137.413112 
L 113.527844 138.9341 
L 112.819345 140.455087 
L 112.170026 141.976075 
L 111.58122 143.497062 
L 111.052783 145.01805 
L 110.58337 146.539037 
L 110.170716 148.060025 
L 109.811889 149.581012 
L 109.503521 151.102 
L 109.241991 152.622987 
L 109.023577 154.143975 
L 108.844559 155.664962 
L 108.701293 157.18595 
L 108.590243 158.706937 
L 108.507991 160.227925 
L 108.451229 161.748912 
L 108.416727 163.2699 
L 108.401309 164.790887 
L 108.401818 166.311875 
L 108.415101 167.832862 
L 108.438005 169.35385 
L 108.467394 170.874837 
L 108.500194 172.395825 
L 108.533457 173.916812 
L 108.564445 175.4378 
L 108.590723 176.958787 
L 108.610258 178.479775 
L 108.621502 180.000762 
L 108.623452 181.52175 
L 108.615688 183.042737 
L 108.598362 184.563725 
L 108.572161 186.084712 
L 108.538223 187.6057 
L 108.498037 189.126687 
L 108.453312 190.647675 
L 108.405852 192.168662 
L 108.357429 193.68965 
L 108.309679 195.210637 
L 108.264016 196.731625 
L 108.221584 198.252612 
L 108.183234 199.7736 
L 108.149534 201.294587 
L 108.120797 202.815575 
L 108.097136 204.336562 
L 108.078515 205.85755 
L 108.064819 207.378537 
L 108.055905 208.899525 
L 108.051651 210.420512 
L 108.051991 211.9415 
L 108.056932 213.462487 
L 108.066548 214.983475 
L 108.080966 216.504462 
L 108.100329 218.02545 
L 108.124745 219.546437 
L 108.154229 221.067425 
L 108.188643 222.588412 
L 108.227637 224.1094 
L 108.270602 225.630387 
L 108.31664 227.151375 
L 108.36456 228.672362 
L 108.412904 230.19335 
L 108.459998 231.714337 
L 108.504041 233.235325 
L 108.543205 234.756312 
L 108.575764 236.2773 
L 108.600211 237.798287 
L 108.615375 239.319275 
L 108.620513 240.840262 
L 108.620513 240.840262 
z
" clip-path="url(#p0b2dab5156)" style="fill: none; stroke: #000000; stroke-opacity: 0.3"/>
   </g>
   <g id="FillBetweenPolyCollection_10">
    <path d="M 108.514198 282.125277 
L 107.485802 282.125277 
L 107.495315 279.335228 
L 107.522811 276.545179 
L 107.565349 273.755129 
L 107.618608 270.96508 
L 107.67761 268.175031 
L 107.737474 265.384982 
L 107.794059 262.594932 
L 107.84437 259.804883 
L 107.886701 257.014834 
L 107.920542 254.224784 
L 107.946318 251.434735 
L 107.965062 248.644686 
L 107.978095 245.854637 
L 107.986769 243.064587 
L 107.992301 240.274538 
L 107.995683 237.484489 
L 107.997666 234.694439 
L 107.998777 231.90439 
L 107.999365 229.114341 
L 107.999643 226.324292 
L 107.999719 223.534242 
L 107.999622 220.744193 
L 107.999304 217.954144 
L 107.998624 215.164094 
L 107.997307 212.374045 
L 107.994881 209.583996 
L 107.990584 206.793947 
L 107.983246 204.003897 
L 107.97115 201.213848 
L 107.951896 198.423799 
L 107.922279 195.633749 
L 107.878226 192.8437 
L 107.814804 190.053651 
L 107.726344 187.263602 
L 107.606657 184.473552 
L 107.449348 181.683503 
L 107.248165 178.893454 
L 106.997325 176.103404 
L 106.691756 173.313355 
L 106.32719 170.523306 
L 105.900107 167.733257 
L 105.407527 164.943207 
L 104.846734 162.153158 
L 104.215014 159.363109 
L 103.50953 156.573059 
L 102.727455 153.78301 
L 101.866497 150.992961 
L 100.925874 148.202912 
L 99.907793 145.412862 
L 98.819299 142.622813 
L 97.674283 139.832764 
L 96.495193 137.042714 
L 95.313953 134.252665 
L 94.171526 131.462616 
L 93.1158 128.672567 
L 92.197791 125.882517 
L 91.466612 123.092468 
L 90.964079 120.302419 
L 90.72 117.512369 
L 90.74913 114.72232 
L 91.050327 111.932271 
L 91.607914 109.142222 
L 92.394665 106.352172 
L 93.375489 103.562123 
L 94.510914 100.772074 
L 95.759712 97.982024 
L 97.080525 95.191975 
L 98.432733 92.401926 
L 99.777098 89.611877 
L 101.076637 86.821827 
L 102.297984 84.031778 
L 103.41314 81.241729 
L 104.401247 78.451679 
L 105.2499 75.66163 
L 105.955612 72.871581 
L 106.523237 70.081532 
L 106.964462 67.291482 
L 107.295671 64.501433 
L 107.535595 61.711384 
L 107.703151 58.921334 
L 107.815763 56.131285 
L 107.888275 53.341236 
L 107.932456 50.551187 
L 107.956974 47.761137 
L 107.967696 44.971088 
L 107.968146 42.181039 
L 107.96005 39.390989 
L 107.94388 36.60094 
L 107.919397 33.810891 
L 107.886182 31.020842 
L 107.844143 28.230792 
L 107.793963 25.440743 
L 107.737435 22.650694 
L 107.677595 19.860644 
L 107.618603 17.070595 
L 107.565347 14.280546 
L 107.52281 11.490497 
L 107.495315 8.700447 
L 107.485802 5.910398 
L 108.514198 5.910398 
L 108.514198 5.910398 
L 108.504685 8.700447 
L 108.47719 11.490497 
L 108.434653 14.280546 
L 108.381397 17.070595 
L 108.322405 19.860644 
L 108.262565 22.650694 
L 108.206037 25.440743 
L 108.155857 28.230792 
L 108.113818 31.020842 
L 108.080603 33.810891 
L 108.05612 36.60094 
L 108.03995 39.390989 
L 108.031854 42.181039 
L 108.032304 44.971088 
L 108.043026 47.761137 
L 108.067544 50.551187 
L 108.111725 53.341236 
L 108.184237 56.131285 
L 108.296849 58.921334 
L 108.464405 61.711384 
L 108.704329 64.501433 
L 109.035538 67.291482 
L 109.476763 70.081532 
L 110.044388 72.871581 
L 110.7501 75.66163 
L 111.598753 78.451679 
L 112.58686 81.241729 
L 113.702016 84.031778 
L 114.923363 86.821827 
L 116.222902 89.611877 
L 117.567267 92.401926 
L 118.919475 95.191975 
L 120.240288 97.982024 
L 121.489086 100.772074 
L 122.624511 103.562123 
L 123.605335 106.352172 
L 124.392086 109.142222 
L 124.949673 111.932271 
L 125.25087 114.72232 
L 125.28 117.512369 
L 125.035921 120.302419 
L 124.533388 123.092468 
L 123.802209 125.882517 
L 122.8842 128.672567 
L 121.828474 131.462616 
L 120.686047 134.252665 
L 119.504807 137.042714 
L 118.325717 139.832764 
L 117.180701 142.622813 
L 116.092207 145.412862 
L 115.074126 148.202912 
L 114.133503 150.992961 
L 113.272545 153.78301 
L 112.49047 156.573059 
L 111.784986 159.363109 
L 111.153266 162.153158 
L 110.592473 164.943207 
L 110.099893 167.733257 
L 109.67281 170.523306 
L 109.308244 173.313355 
L 109.002675 176.103404 
L 108.751835 178.893454 
L 108.550652 181.683503 
L 108.393343 184.473552 
L 108.273656 187.263602 
L 108.185196 190.053651 
L 108.121774 192.8437 
L 108.077721 195.633749 
L 108.048104 198.423799 
L 108.02885 201.213848 
L 108.016754 204.003897 
L 108.009416 206.793947 
L 108.005119 209.583996 
L 108.002693 212.374045 
L 108.001376 215.164094 
L 108.000696 217.954144 
L 108.000378 220.744193 
L 108.000281 223.534242 
L 108.000357 226.324292 
L 108.000635 229.114341 
L 108.001223 231.90439 
L 108.002334 234.694439 
L 108.004317 237.484489 
L 108.007699 240.274538 
L 108.013231 243.064587 
L 108.021905 245.854637 
L 108.034938 248.644686 
L 108.053682 251.434735 
L 108.079458 254.224784 
L 108.113299 257.014834 
L 108.15563 259.804883 
L 108.205941 262.594932 
L 108.262526 265.384982 
L 108.32239 268.175031 
L 108.381392 270.96508 
L 108.434651 273.755129 
L 108.477189 276.545179 
L 108.504685 279.335228 
L 108.514198 282.125277 
L 108.514198 282.125277 
z
" clip-path="url(#p0b2dab5156)" style="fill: none; stroke: #000000; stroke-opacity: 0.3"/>
   </g>
   <g id="FillBetweenPolyCollection_11">
    <path d="M 108.394315 317.472414 
L 107.605685 317.472414 
L 107.610022 314.685899 
L 107.624185 311.899383 
L 107.646385 309.112867 
L 107.673968 306.326352 
L 107.703651 303.539836 
L 107.731812 300.753321 
L 107.754796 297.966805 
L 107.769205 295.180289 
L 107.77217 292.393774 
L 107.76158 289.607258 
L 107.736291 286.820742 
L 107.696291 284.034227 
L 107.642824 281.247711 
L 107.578431 278.461196 
L 107.506889 275.67468 
L 107.433004 272.888164 
L 107.362252 270.101649 
L 107.300286 267.315133 
L 107.252355 264.528618 
L 107.222707 261.742102 
L 107.214092 258.955586 
L 107.227435 256.169071 
L 107.26174 253.382555 
L 107.314262 250.596039 
L 107.3809 247.809524 
L 107.456741 245.023008 
L 107.53667 242.236493 
L 107.615932 239.449977 
L 107.690569 236.663461 
L 107.757693 233.876946 
L 107.815563 231.09043 
L 107.863511 228.303914 
L 107.901737 225.517399 
L 107.931053 222.730883 
L 107.952599 219.944368 
L 107.967588 217.157852 
L 107.977075 214.371336 
L 107.981778 211.584821 
L 107.981908 208.798305 
L 107.97703 206.011789 
L 107.965898 203.225274 
L 107.946293 200.438758 
L 107.914855 197.652243 
L 107.866919 194.865727 
L 107.796417 192.079211 
L 107.695868 189.292696 
L 107.556515 186.50618 
L 107.368649 183.719665 
L 107.122118 180.933149 
L 106.807016 178.146633 
L 106.414474 175.360118 
L 105.937465 172.573602 
L 105.3715 169.787086 
L 104.715109 167.000571 
L 103.97004 164.214055 
L 103.141164 161.42754 
L 102.236142 158.641024 
L 101.264996 155.854508 
L 100.239713 153.067993 
L 99.174033 150.281477 
L 98.083491 147.494961 
L 96.985683 144.708446 
L 95.900636 141.92193 
L 94.851097 139.135415 
L 93.862484 136.348899 
L 92.962353 133.562383 
L 92.179252 130.775868 
L 91.541037 127.989352 
L 91.072798 125.202837 
L 90.794692 122.416321 
L 90.72 119.629805 
L 90.853702 116.84329 
L 91.191801 114.056774 
L 91.721479 111.270258 
L 92.422065 108.483743 
L 93.266655 105.697227 
L 94.22417 102.910712 
L 95.26159 100.124196 
L 96.346109 97.33768 
L 97.447016 94.551165 
L 98.53713 91.764649 
L 99.593733 88.978133 
L 100.59897 86.191618 
L 101.539782 83.405102 
L 102.407467 80.618587 
L 103.197015 77.832071 
L 103.906349 75.045555 
L 104.535614 72.25904 
L 105.086609 69.472524 
L 105.562397 66.686009 
L 105.9671 63.899493 
L 106.305813 61.112977 
L 106.584562 58.326462 
L 106.810235 55.539946 
L 106.990409 52.75343 
L 107.133062 49.966915 
L 107.246173 47.180399 
L 107.33727 44.393884 
L 107.412992 41.607368 
L 108.587008 41.607368 
L 108.587008 41.607368 
L 108.66273 44.393884 
L 108.753827 47.180399 
L 108.866938 49.966915 
L 109.009591 52.75343 
L 109.189765 55.539946 
L 109.415438 58.326462 
L 109.694187 61.112977 
L 110.0329 63.899493 
L 110.437603 66.686009 
L 110.913391 69.472524 
L 111.464386 72.25904 
L 112.093651 75.045555 
L 112.802985 77.832071 
L 113.592533 80.618587 
L 114.460218 83.405102 
L 115.40103 86.191618 
L 116.406267 88.978133 
L 117.46287 91.764649 
L 118.552984 94.551165 
L 119.653891 97.33768 
L 120.73841 100.124196 
L 121.77583 102.910712 
L 122.733345 105.697227 
L 123.577935 108.483743 
L 124.278521 111.270258 
L 124.808199 114.056774 
L 125.146298 116.84329 
L 125.28 119.629805 
L 125.205308 122.416321 
L 124.927202 125.202837 
L 124.458963 127.989352 
L 123.820748 130.775868 
L 123.037647 133.562383 
L 122.137516 136.348899 
L 121.148903 139.135415 
L 120.099364 141.92193 
L 119.014317 144.708446 
L 117.916509 147.494961 
L 116.825967 150.281477 
L 115.760287 153.067993 
L 114.735004 155.854508 
L 113.763858 158.641024 
L 112.858836 161.42754 
L 112.02996 164.214055 
L 111.284891 167.000571 
L 110.6285 169.787086 
L 110.062535 172.573602 
L 109.585526 175.360118 
L 109.192984 178.146633 
L 108.877882 180.933149 
L 108.631351 183.719665 
L 108.443485 186.50618 
L 108.304132 189.292696 
L 108.203583 192.079211 
L 108.133081 194.865727 
L 108.085145 197.652243 
L 108.053707 200.438758 
L 108.034102 203.225274 
L 108.02297 206.011789 
L 108.018092 208.798305 
L 108.018222 211.584821 
L 108.022925 214.371336 
L 108.032412 217.157852 
L 108.047401 219.944368 
L 108.068947 222.730883 
L 108.098263 225.517399 
L 108.136489 228.303914 
L 108.184437 231.09043 
L 108.242307 233.876946 
L 108.309431 236.663461 
L 108.384068 239.449977 
L 108.46333 242.236493 
L 108.543259 245.023008 
L 108.6191 247.809524 
L 108.685738 250.596039 
L 108.73826 253.382555 
L 108.772565 256.169071 
L 108.785908 258.955586 
L 108.777293 261.742102 
L 108.747645 264.528618 
L 108.699714 267.315133 
L 108.637748 270.101649 
L 108.566996 272.888164 
L 108.493111 275.67468 
L 108.421569 278.461196 
L 108.357176 281.247711 
L 108.303709 284.034227 
L 108.263709 286.820742 
L 108.23842 289.607258 
L 108.22783 292.393774 
L 108.230795 295.180289 
L 108.245204 297.966805 
L 108.268188 300.753321 
L 108.296349 303.539836 
L 108.326032 306.326352 
L 108.353615 309.112867 
L 108.375815 311.899383 
L 108.389978 314.685899 
L 108.394315 317.472414 
L 108.394315 317.472414 
z
" clip-path="url(#p0b2dab5156)" style="fill: none; stroke: #000000; stroke-opacity: 0.3"/>
   </g>
   <g id="FillBetweenPolyCollection_12">
    <path d="M 108.420777 205.075162 
L 107.579223 205.075162 
L 107.58527 203.379714 
L 107.602944 201.684265 
L 107.630691 199.988817 
L 107.666154 198.293368 
L 107.706454 196.59792 
L 107.748501 194.902471 
L 107.789269 193.207022 
L 107.825996 191.511574 
L 107.85627 189.816125 
L 107.878006 188.120677 
L 107.889346 186.425228 
L 107.888506 184.72978 
L 107.873648 183.034331 
L 107.842808 181.338883 
L 107.793937 179.643434 
L 107.725053 177.947986 
L 107.634527 176.252537 
L 107.521423 174.557089 
L 107.38586 172.86164 
L 107.229278 171.166191 
L 107.054526 169.470743 
L 106.865703 167.775294 
L 106.667693 166.079846 
L 106.465446 164.384397 
L 106.263071 162.688949 
L 106.062913 160.9935 
L 105.864779 159.298052 
L 105.665501 157.602603 
L 105.458963 155.907155 
L 105.236635 154.211706 
L 104.988545 152.516257 
L 104.70455 150.820809 
L 104.375651 149.12536 
L 103.995142 147.429912 
L 103.559343 145.734463 
L 103.06782 144.039015 
L 102.523054 142.343566 
L 101.929644 140.648118 
L 101.293245 138.952669 
L 100.619484 137.257221 
L 99.913103 135.561772 
L 99.177557 133.866323 
L 98.41519 132.170875 
L 97.628019 130.475426 
L 96.818974 128.779978 
L 95.993393 127.084529 
L 95.160426 125.389081 
L 94.334035 123.693632 
L 93.533326 121.998184 
L 92.782054 120.302735 
L 92.107336 118.607287 
L 91.537742 116.911838 
L 91.101036 115.21639 
L 90.821914 113.520941 
L 90.72 111.825492 
L 90.80833 110.130044 
L 91.092383 108.434595 
L 91.569659 106.739147 
L 92.229735 105.043698 
L 93.05473 103.34825 
L 94.02011 101.652801 
L 95.095839 99.957353 
L 96.24784 98.261904 
L 97.439776 96.566456 
L 98.635043 94.871007 
L 99.798861 93.175558 
L 100.900257 91.48011 
L 101.913747 89.784661 
L 102.820506 88.089213 
L 103.608936 86.393764 
L 104.274578 84.698316 
L 104.81945 83.002867 
L 105.250949 81.307419 
L 105.580515 79.61197 
L 105.822242 77.916522 
L 105.991606 76.221073 
L 106.104408 74.525624 
L 106.175957 72.830176 
L 106.220493 71.134727 
L 106.250768 69.439279 
L 106.277721 67.74383 
L 106.310203 66.048382 
L 106.354733 64.352933 
L 106.415306 62.657485 
L 106.493305 60.962036 
L 106.587595 59.266588 
L 106.69483 57.571139 
L 106.809985 55.875691 
L 106.927081 54.180242 
L 107.040024 52.484793 
L 107.143419 50.789345 
L 107.233267 49.093896 
L 107.307421 47.398448 
L 107.365738 45.702999 
L 107.409932 44.007551 
L 107.443146 42.312102 
L 107.469353 40.616654 
L 107.492681 38.921205 
L 107.516793 37.225757 
L 108.483207 37.225757 
L 108.483207 37.225757 
L 108.507319 38.921205 
L 108.530647 40.616654 
L 108.556854 42.312102 
L 108.590068 44.007551 
L 108.634262 45.702999 
L 108.692579 47.398448 
L 108.766733 49.093896 
L 108.856581 50.789345 
L 108.959976 52.484793 
L 109.072919 54.180242 
L 109.190015 55.875691 
L 109.30517 57.571139 
L 109.412405 59.266588 
L 109.506695 60.962036 
L 109.584694 62.657485 
L 109.645267 64.352933 
L 109.689797 66.048382 
L 109.722279 67.74383 
L 109.749232 69.439279 
L 109.779507 71.134727 
L 109.824043 72.830176 
L 109.895592 74.525624 
L 110.008394 76.221073 
L 110.177758 77.916522 
L 110.419485 79.61197 
L 110.749051 81.307419 
L 111.18055 83.002867 
L 111.725422 84.698316 
L 112.391064 86.393764 
L 113.179494 88.089213 
L 114.086253 89.784661 
L 115.099743 91.48011 
L 116.201139 93.175558 
L 117.364957 94.871007 
L 118.560224 96.566456 
L 119.75216 98.261904 
L 120.904161 99.957353 
L 121.97989 101.652801 
L 122.94527 103.34825 
L 123.770265 105.043698 
L 124.430341 106.739147 
L 124.907617 108.434595 
L 125.19167 110.130044 
L 125.28 111.825492 
L 125.178086 113.520941 
L 124.898964 115.21639 
L 124.462258 116.911838 
L 123.892664 118.607287 
L 123.217946 120.302735 
L 122.466674 121.998184 
L 121.665965 123.693632 
L 120.839574 125.389081 
L 120.006607 127.084529 
L 119.181026 128.779978 
L 118.371981 130.475426 
L 117.58481 132.170875 
L 116.822443 133.866323 
L 116.086897 135.561772 
L 115.380516 137.257221 
L 114.706755 138.952669 
L 114.070356 140.648118 
L 113.476946 142.343566 
L 112.93218 144.039015 
L 112.440657 145.734463 
L 112.004858 147.429912 
L 111.624349 149.12536 
L 111.29545 150.820809 
L 111.011455 152.516257 
L 110.763365 154.211706 
L 110.541037 155.907155 
L 110.334499 157.602603 
L 110.135221 159.298052 
L 109.937087 160.9935 
L 109.736929 162.688949 
L 109.534554 164.384397 
L 109.332307 166.079846 
L 109.134297 167.775294 
L 108.945474 169.470743 
L 108.770722 171.166191 
L 108.61414 172.86164 
L 108.478577 174.557089 
L 108.365473 176.252537 
L 108.274947 177.947986 
L 108.206063 179.643434 
L 108.157192 181.338883 
L 108.126352 183.034331 
L 108.111494 184.72978 
L 108.110654 186.425228 
L 108.121994 188.120677 
L 108.14373 189.816125 
L 108.174004 191.511574 
L 108.210731 193.207022 
L 108.251499 194.902471 
L 108.293546 196.59792 
L 108.333846 198.293368 
L 108.369309 199.988817 
L 108.397056 201.684265 
L 108.41473 203.379714 
L 108.420777 205.075162 
L 108.420777 205.075162 
z
" clip-path="url(#p0b2dab5156)" style="fill: none; stroke: #000000; stroke-opacity: 0.3"/>
   </g>
   <g id="FillBetweenPolyCollection_13">
    <path d="M 108.525722 237.147868 
L 107.474278 237.147868 
L 107.479945 235.563483 
L 107.496584 233.979097 
L 107.52314 232.394711 
L 107.557982 230.810326 
L 107.599064 229.22594 
L 107.644127 227.641554 
L 107.690899 226.057168 
L 107.737281 224.472783 
L 107.781491 222.888397 
L 107.822158 221.304011 
L 107.858359 219.719625 
L 107.889606 218.13524 
L 107.915799 216.550854 
L 107.937142 214.966468 
L 107.954059 213.382083 
L 107.967099 211.797697 
L 107.976866 210.213311 
L 107.983943 208.628925 
L 107.988856 207.04454 
L 107.992031 205.460154 
L 107.993781 203.875768 
L 107.994289 202.291382 
L 107.993608 200.706997 
L 107.991652 199.122611 
L 107.988195 197.538225 
L 107.982874 195.95384 
L 107.975187 194.369454 
L 107.964508 192.785068 
L 107.9501 191.200682 
L 107.931146 189.616297 
L 107.906792 188.031911 
L 107.876189 186.447525 
L 107.838551 184.863139 
L 107.793202 183.278754 
L 107.739613 181.694368 
L 107.677414 180.109982 
L 107.606371 178.525597 
L 107.526335 176.941211 
L 107.43715 175.356825 
L 107.338539 173.772439 
L 107.229985 172.188054 
L 107.110626 170.603668 
L 106.979186 169.019282 
L 106.833974 167.434896 
L 106.672952 165.850511 
L 106.49388 164.266125 
L 106.294538 162.681739 
L 106.072984 161.097354 
L 105.827831 159.512968 
L 105.558491 157.928582 
L 105.265349 156.344196 
L 104.949835 154.759811 
L 104.614349 153.175425 
L 104.262053 151.591039 
L 103.896516 150.006653 
L 103.521247 148.422268 
L 103.139161 146.837882 
L 102.752036 145.253496 
L 102.360034 143.669111 
L 101.961365 142.084725 
L 101.552158 140.500339 
L 101.126593 138.915953 
L 100.677329 137.331568 
L 100.196215 135.747182 
L 99.675246 134.162796 
L 99.107675 132.578411 
L 98.489172 130.994025 
L 97.818895 129.409639 
L 97.100332 127.825253 
L 96.341786 126.240868 
L 95.556433 124.656482 
L 94.761895 123.072096 
L 93.979356 121.48771 
L 93.232311 119.903325 
L 92.545055 118.318939 
L 91.941078 116.734553 
L 91.441528 115.150168 
L 91.063873 113.565782 
L 90.820886 111.981396 
L 90.72 110.39701 
L 90.763067 108.812625 
L 90.946481 107.228239 
L 91.261634 105.643853 
L 91.695642 104.059467 
L 92.232285 102.475082 
L 92.853087 100.890696 
L 93.538507 99.30631 
L 94.269136 97.721925 
L 95.026853 96.137539 
L 95.79583 94.553153 
L 96.563297 92.968767 
L 97.319985 91.384382 
L 98.060177 89.799996 
L 98.781377 88.21561 
L 99.483615 86.631224 
L 100.168509 85.046839 
L 100.838215 83.462453 
L 101.494415 81.878067 
L 102.13752 80.293682 
L 113.86248 80.293682 
L 113.86248 80.293682 
L 114.505585 81.878067 
L 115.161785 83.462453 
L 115.831491 85.046839 
L 116.516385 86.631224 
L 117.218623 88.21561 
L 117.939823 89.799996 
L 118.680015 91.384382 
L 119.436703 92.968767 
L 120.20417 94.553153 
L 120.973147 96.137539 
L 121.730864 97.721925 
L 122.461493 99.30631 
L 123.146913 100.890696 
L 123.767715 102.475082 
L 124.304358 104.059467 
L 124.738366 105.643853 
L 125.053519 107.228239 
L 125.236933 108.812625 
L 125.28 110.39701 
L 125.179114 111.981396 
L 124.936127 113.565782 
L 124.558472 115.150168 
L 124.058922 116.734553 
L 123.454945 118.318939 
L 122.767689 119.903325 
L 122.020644 121.48771 
L 121.238105 123.072096 
L 120.443567 124.656482 
L 119.658214 126.240868 
L 118.899668 127.825253 
L 118.181105 129.409639 
L 117.510828 130.994025 
L 116.892325 132.578411 
L 116.324754 134.162796 
L 115.803785 135.747182 
L 115.322671 137.331568 
L 114.873407 138.915953 
L 114.447842 140.500339 
L 114.038635 142.084725 
L 113.639966 143.669111 
L 113.247964 145.253496 
L 112.860839 146.837882 
L 112.478753 148.422268 
L 112.103484 150.006653 
L 111.737947 151.591039 
L 111.385651 153.175425 
L 111.050165 154.759811 
L 110.734651 156.344196 
L 110.441509 157.928582 
L 110.172169 159.512968 
L 109.927016 161.097354 
L 109.705462 162.681739 
L 109.50612 164.266125 
L 109.327048 165.850511 
L 109.166026 167.434896 
L 109.020814 169.019282 
L 108.889374 170.603668 
L 108.770015 172.188054 
L 108.661461 173.772439 
L 108.56285 175.356825 
L 108.473665 176.941211 
L 108.393629 178.525597 
L 108.322586 180.109982 
L 108.260387 181.694368 
L 108.206798 183.278754 
L 108.161449 184.863139 
L 108.123811 186.447525 
L 108.093208 188.031911 
L 108.068854 189.616297 
L 108.0499 191.200682 
L 108.035492 192.785068 
L 108.024813 194.369454 
L 108.017126 195.95384 
L 108.011805 197.538225 
L 108.008348 199.122611 
L 108.006392 200.706997 
L 108.005711 202.291382 
L 108.006219 203.875768 
L 108.007969 205.460154 
L 108.011144 207.04454 
L 108.016057 208.628925 
L 108.023134 210.213311 
L 108.032901 211.797697 
L 108.045941 213.382083 
L 108.062858 214.966468 
L 108.084201 216.550854 
L 108.110394 218.13524 
L 108.141641 219.719625 
L 108.177842 221.304011 
L 108.218509 222.888397 
L 108.262719 224.472783 
L 108.309101 226.057168 
L 108.355873 227.641554 
L 108.400936 229.22594 
L 108.442018 230.810326 
L 108.47686 232.394711 
L 108.503416 233.979097 
L 108.520055 235.563483 
L 108.525722 237.147868 
L 108.525722 237.147868 
z
" clip-path="url(#p0b2dab5156)" style="fill: none; stroke: #000000; stroke-opacity: 0.3"/>
   </g>
   <g id="matplotlib.axis_1"/>
   <g id="matplotlib.axis_2">
    <g id="ytick_1">
     <g id="line2d_1">
      <defs>
       <path id="mb409f8d454" d="M 0 0 
L -3.5 0 
" style="stroke: #000000; stroke-width: 0.8"/>
      </defs>
      <g>
       <use xlink:href="#mb409f8d454" x="21.6" y="291.6" style="stroke: #000000; stroke-width: 0.8"/>
      </g>
     </g>
     <g id="text_1">
      <text style="font-size: 10px; font-family: 'DejaVu Sans', 'Bitstream Vera Sans', 'Computer Modern Sans Serif', 'Lucida Grande', 'Verdana', 'Geneva', 'Lucid', 'Arial', 'Helvetica', 'Avant Garde', sans-serif; text-anchor: end" x="14.6" y="295.399219" transform="rotate(-0 14.6 295.399219)">0.1</text>
     </g>
    </g>
    <g id="ytick_2">
     <g id="line2d_2">
      <g>
       <use xlink:href="#mb409f8d454" x="21.6" y="199.8" style="stroke: #000000; stroke-width: 0.8"/>
      </g>
     </g>
     <g id="text_2">
      <text style="font-size: 10px; font-family: 'DejaVu Sans', 'Bitstream Vera Sans', 'Computer Modern Sans Serif', 'Lucida Grande', 'Verdana', 'Geneva', 'Lucid', 'Arial', 'Helvetica', 'Avant Garde', sans-serif; text-anchor: end" x="14.6" y="203.599219" transform="rotate(-0 14.6 203.599219)">0.2</text>
     </g>
    </g>
    <g id="ytick_3">
     <g id="line2d_3">
      <g>
       <use xlink:href="#mb409f8d454" x="21.6" y="108" style="stroke: #000000; stroke-width: 0.8"/>
      </g>
     </g>
     <g id="text_3">
      <text style="font-size: 10px; font-family: 'DejaVu Sans', 'Bitstream Vera Sans', 'Computer Modern Sans Serif', 'Lucida Grande', 'Verdana', 'Geneva', 'Lucid', 'Arial', 'Helvetica', 'Avant Garde', sans-serif; text-anchor: end" x="14.6" y="111.799219" transform="rotate(-0 14.6 111.799219)">0.3</text>
     </g>
    </g>
    <g id="ytick_4">
     <g id="line2d_4">
      <g>
       <use xlink:href="#mb409f8d454" x="21.6" y="16.2" style="stroke: #000000; stroke-width: 0.8"/>
      </g>
     </g>
     <g id="text_4">
      <text style="font-size: 10px; font-family: 'DejaVu Sans', 'Bitstream Vera Sans', 'Computer Modern Sans Serif', 'Lucida Grande', 'Verdana', 'Geneva', 'Lucid', 'Arial', 'Helvetica', 'Avant Garde', sans-serif; text-anchor: end" x="14.6" y="19.999219" transform="rotate(-0 14.6 19.999219)">0.4</text>
     </g>
    </g>
    <g id="text_5">
     <!-- $E_{f}$ -->
     <g transform="translate(16.384437 160.27) rotate(-90)">
      <text>
       <tspan x="0" y="-0.796875" style="font-style: oblique; font-size: 14px; font-family: 'DejaVu Sans'">E</tspan>
       <tspan x="8.845703" y="1.5" style="font-style: oblique; font-size: 9.8px; font-family: 'DejaVu Sans'">f</tspan>
      </text>
     </g>
    </g>
   </g>
   <g id="line2d_5">
    <path d="M 50.4 269.568 
L 50.4 264.06 
" clip-path="url(#p0b2dab5156)" style="fill: none; stroke: #000000; stroke-linecap: square"/>
   </g>
   <g id="line2d_6">
    <path d="M 50.4 269.568 
L 108 269.568 
" clip-path="url(#p0b2dab5156)" style="fill: none; stroke: #000000; stroke-linecap: square"/>
   </g>
   <g id="line2d_7">
    <path d="M 108 269.568 
L 108 264.06 
" clip-path="url(#p0b2dab5156)" style="fill: none; stroke: #000000; stroke-linecap: square"/>
   </g>
   <g id="patch_3">
    <path d="M 21.6 291.6 
L 21.6 16.2 
" style="fill: none; stroke: #000000; stroke-width: 0.8; stroke-linejoin: miter; stroke-linecap: square"/>
   </g>
   <g id="patch_4">
    <path d="M 136.8 291.6 
L 136.8 16.2 
" style="fill: none; stroke: #000000; stroke-width: 0.8; stroke-linejoin: miter; stroke-linecap: square"/>
   </g>
   <g id="patch_5">
    <path d="M 21.6 291.6 
L 136.8 291.6 
" style="fill: none; stroke: #000000; stroke-width: 0.8; stroke-linejoin: miter; stroke-linecap: square"/>
   </g>
   <g id="patch_6">
    <path d="M 21.6 16.2 
L 136.8 16.2 
" style="fill: none; stroke: #000000; stroke-width: 0.8; stroke-linejoin: miter; stroke-linecap: square"/>
   </g>
   <g id="text_6">
    <text style="font-weight: 700; font-size: 12px; font-family: 'DejaVu Sans', 'Bitstream Vera Sans', 'Computer Modern Sans Serif', 'Lucida Grande', 'Verdana', 'Geneva', 'Lucid', 'Arial', 'Helvetica', 'Avant Garde', sans-serif; text-anchor: middle" x="50.4" y="289.104375" transform="rotate(-0 50.4 289.104375)">#6</text>
   </g>
   <g id="text_7">
    <text style="font-weight: 700; font-size: 12px; font-family: 'DejaVu Sans', 'Bitstream Vera Sans', 'Computer Modern Sans Serif', 'Lucida Grande', 'Verdana', 'Geneva', 'Lucid', 'Arial', 'Helvetica', 'Avant Garde', sans-serif; text-anchor: middle" x="108" y="289.104375" transform="rotate(-0 108 289.104375)">#12</text>
   </g>
   <g id="text_8">
    <text style="font-size: 12px; font-family: 'DejaVu Sans', 'Bitstream Vera Sans', 'Computer Modern Sans Serif', 'Lucida Grande', 'Verdana', 'Geneva', 'Lucid', 'Arial', 'Helvetica', 'Avant Garde', sans-serif; text-anchor: middle" x="79.2" y="268.449375" transform="rotate(-0 79.2 268.449375)">****</text>
   </g>
   <g id="line2d_8">
    <path d="M 21.6 156.394406 
L 136.8 156.394406 
" clip-path="url(#p0b2dab5156)" style="fill: none; stroke-dasharray: 3.7,1.6; stroke-dashoffset: 0; stroke: #808080; stroke-opacity: 0.7"/>
   </g>
   <g id="line2d_9">
    <path d="M 21.6 114.633632 
L 136.8 114.633632 
" clip-path="url(#p0b2dab5156)" style="fill: none; stroke-dasharray: 3.7,1.6; stroke-dashoffset: 0; stroke: #808080; stroke-opacity: 0.7"/>
   </g>
   <g id="LineCollection_1">
    <path d="M 50.4 158.639609 
L 50.4 154.149203 
" clip-path="url(#p0b2dab5156)" style="fill: none; stroke: #000000; stroke-width: 2"/>
   </g>
   <g id="line2d_10">
    <defs>
     <path id="m4da7c41eda" d="M 5 0 
L -5 -0 
" style="stroke: #000000; stroke-width: 2"/>
    </defs>
    <g clip-path="url(#p0b2dab5156)">
     <use xlink:href="#m4da7c41eda" x="50.4" y="158.639609" style="stroke: #000000; stroke-width: 2"/>
    </g>
   </g>
   <g id="line2d_11">
    <g clip-path="url(#p0b2dab5156)">
     <use xlink:href="#m4da7c41eda" x="50.4" y="154.149203" style="stroke: #000000; stroke-width: 2"/>
    </g>
   </g>
   <g id="LineCollection_2">
    <path d="M 108 118.288777 
L 108 110.978486 
" clip-path="url(#p0b2dab5156)" style="fill: none; stroke: #000000; stroke-width: 2"/>
   </g>
   <g id="line2d_12">
    <g clip-path="url(#p0b2dab5156)">
     <use xlink:href="#m4da7c41eda" x="108" y="118.288777" style="stroke: #000000; stroke-width: 2"/>
    </g>
   </g>
   <g id="line2d_13">
    <g clip-path="url(#p0b2dab5156)">
     <use xlink:href="#m4da7c41eda" x="108" y="110.978486" style="stroke: #000000; stroke-width: 2"/>
    </g>
   </g>
   <g id="line2d_14">
    <defs>
     <path id="m8e6ef1c6f1" d="M 0 4 
C 1.060812 4 2.078319 3.578535 2.828427 2.828427 
C 3.578535 2.078319 4 1.060812 4 0 
C 4 -1.060812 3.578535 -2.078319 2.828427 -2.828427 
C 2.078319 -3.578535 1.060812 -4 0 -4 
C -1.060812 -4 -2.078319 -3.578535 -2.828427 -2.828427 
C -3.578535 -2.078319 -4 -1.060812 -4 0 
C -4 1.060812 -3.578535 2.078319 -2.828427 2.828427 
C -2.078319 3.578535 -1.060812 4 0 4 
z
" style="stroke: #000000"/>
    </defs>
    <g clip-path="url(#p0b2dab5156)">
     <use xlink:href="#m8e6ef1c6f1" x="50.4" y="156.394406" style="stroke: #000000"/>
    </g>
   </g>
   <g id="line2d_15">
    <g clip-path="url(#p0b2dab5156)">
     <use xlink:href="#m8e6ef1c6f1" x="108" y="114.633632" style="stroke: #000000"/>
    </g>
   </g>
  </g>
 </g>
 <defs>
  <clipPath id="p0b2dab5156">
   <rect x="21.6" y="16.2" width="115.2" height="275.4"/>
  </clipPath>
 </defs>
</svg>
