<?xml version="1.0" encoding="utf-8" standalone="no"?>
<!DOCTYPE svg PUBLIC "-//W3C//DTD SVG 1.1//EN"
  "http://www.w3.org/Graphics/SVG/1.1/DTD/svg11.dtd">
<svg xmlns:xlink="http://www.w3.org/1999/xlink" width="144pt" height="324pt" viewBox="0 0 144 324" xmlns="http://www.w3.org/2000/svg" version="1.1">
 <metadata>
  <rdf:RDF xmlns:dc="http://purl.org/dc/elements/1.1/" xmlns:cc="http://creativecommons.org/ns#" xmlns:rdf="http://www.w3.org/1999/02/22-rdf-syntax-ns#">
   <cc:Work>
    <dc:type rdf:resource="http://purl.org/dc/dcmitype/StillImage"/>
    <dc:date>2025-12-11T09:10:03.473947</dc:date>
    <dc:format>image/svg+xml</dc:format>
    <dc:creator>
     <cc:Agent>
      <dc:title>Matplotlib v3.10.0, https://matplotlib.org/</dc:title>
     </cc:Agent>
    </dc:creator>
   </cc:Work>
  </rdf:RDF>
 </metadata>
 <defs>
  <style type="text/css">*{stroke-linejoin: round; stroke-linecap: butt}</style>
 </defs>
 <g id="figure_1">
  <g id="patch_1">
   <path d="M 0 324 
L 144 324 
L 144 0 
L 0 0 
z
" style="fill: #ffffff"/>
  </g>
  <g id="axes_1">
   <g id="patch_2">
    <path d="M 21.6 291.6 
L 136.8 291.6 
L 136.8 16.2 
L 21.6 16.2 
z
" style="fill: #ffffff"/>
   </g>
   <g id="FillBetweenPolyCollection_1">
    <path d="M 50.741796 215.777143 
L 50.058204 215.777143 
L 50.06406 214.319532 
L 50.08103 212.861922 
L 50.107431 211.404312 
L 50.140763 209.946701 
L 50.178099 208.489091 
L 50.21651 207.03148 
L 50.253425 205.57387 
L 50.286889 204.116259 
L 50.315674 202.658649 
L 50.339258 201.201038 
L 50.357708 199.743428 
L 50.371499 198.285818 
L 50.381325 196.828207 
L 50.387928 195.370597 
L 50.391955 193.912986 
L 50.393855 192.455376 
L 50.393795 190.997765 
L 50.391587 189.540155 
L 50.386615 188.082544 
L 50.377755 186.624934 
L 50.3633 185.167323 
L 50.340909 183.709713 
L 50.307607 182.252103 
L 50.259883 180.794492 
L 50.193895 179.336882 
L 50.105811 177.879271 
L 49.99225 176.421661 
L 49.850772 174.96405 
L 49.680316 173.50644 
L 49.48149 172.048829 
L 49.256608 170.591219 
L 49.009423 169.133609 
L 48.74457 167.675998 
L 48.466799 166.218388 
L 48.180144 164.760777 
L 47.887196 163.303167 
L 47.588626 161.845556 
L 47.283058 160.387946 
L 46.967307 158.930335 
L 46.636924 157.472725 
L 46.286922 156.015114 
L 45.912522 154.557504 
L 45.509763 153.099894 
L 45.075819 151.642283 
L 44.608954 150.184673 
L 44.108119 148.727062 
L 43.572275 147.269452 
L 42.999679 145.811841 
L 42.387387 144.354231 
L 41.7313 142.89662 
L 41.026951 141.43901 
L 40.271079 139.9814 
L 39.463819 138.523789 
L 38.611064 137.066179 
L 37.726433 135.608568 
L 36.832224 134.150958 
L 35.958882 132.693347 
L 35.142826 131.235737 
L 34.422845 129.778126 
L 33.835653 128.320516 
L 33.411425 126.862905 
L 33.170226 125.405295 
L 33.12 123.947685 
L 33.256498 122.490074 
L 33.565019 121.032464 
L 34.023472 119.574853 
L 34.60599 118.117243 
L 35.286299 116.659632 
L 36.040205 115.202022 
L 36.846872 113.744411 
L 37.688902 112.286801 
L 38.551542 110.829191 
L 39.421472 109.37158 
L 40.285663 107.91397 
L 41.130687 106.456359 
L 41.942689 104.998749 
L 42.708027 103.541138 
L 43.414424 102.083528 
L 44.052365 100.625917 
L 44.616405 99.168307 
L 45.106077 97.710696 
L 45.526152 96.253086 
L 45.886117 94.795476 
L 46.198927 93.337865 
L 46.479195 91.880255 
L 46.741144 90.422644 
L 46.996706 88.965034 
L 47.254096 87.507423 
L 47.517125 86.049813 
L 47.785329 84.592202 
L 48.054815 83.134592 
L 48.319596 81.676982 
L 48.573088 80.219371 
L 48.809466 78.761761 
L 49.024615 77.30415 
L 49.216578 75.84654 
L 49.385483 74.388929 
L 49.533085 72.931319 
L 49.662083 71.473708 
L 51.137917 71.473708 
L 51.137917 71.473708 
L 51.266915 72.931319 
L 51.414517 74.388929 
L 51.583422 75.84654 
L 51.775385 77.30415 
L 51.990534 78.761761 
L 52.226912 80.219371 
L 52.480404 81.676982 
L 52.745185 83.134592 
L 53.014671 84.592202 
L 53.282875 86.049813 
L 53.545904 87.507423 
L 53.803294 88.965034 
L 54.058856 90.422644 
L 54.320805 91.880255 
L 54.601073 93.337865 
L 54.913883 94.795476 
L 55.273848 96.253086 
L 55.693923 97.710696 
L 56.183595 99.168307 
L 56.747635 100.625917 
L 57.385576 102.083528 
L 58.091973 103.541138 
L 58.857311 104.998749 
L 59.669313 106.456359 
L 60.514337 107.91397 
L 61.378528 109.37158 
L 62.248458 110.829191 
L 63.111098 112.286801 
L 63.953128 113.744411 
L 64.759795 115.202022 
L 65.513701 116.659632 
L 66.19401 118.117243 
L 66.776528 119.574853 
L 67.234981 121.032464 
L 67.543502 122.490074 
L 67.68 123.947685 
L 67.629774 125.405295 
L 67.388575 126.862905 
L 66.964347 128.320516 
L 66.377155 129.778126 
L 65.657174 131.235737 
L 64.841118 132.693347 
L 63.967776 134.150958 
L 63.073567 135.608568 
L 62.188936 137.066179 
L 61.336181 138.523789 
L 60.528921 139.9814 
L 59.773049 141.43901 
L 59.0687 142.89662 
L 58.412613 144.354231 
L 57.800321 145.811841 
L 57.227725 147.269452 
L 56.691881 148.727062 
L 56.191046 150.184673 
L 55.724181 151.642283 
L 55.290237 153.099894 
L 54.887478 154.557504 
L 54.513078 156.015114 
L 54.163076 157.472725 
L 53.832693 158.930335 
L 53.516942 160.387946 
L 53.211374 161.845556 
L 52.912804 163.303167 
L 52.619856 164.760777 
L 52.333201 166.218388 
L 52.05543 167.675998 
L 51.790577 169.133609 
L 51.543392 170.591219 
L 51.31851 172.048829 
L 51.119684 173.50644 
L 50.949228 174.96405 
L 50.80775 176.421661 
L 50.694189 177.879271 
L 50.606105 179.336882 
L 50.540117 180.794492 
L 50.492393 182.252103 
L 50.459091 183.709713 
L 50.4367 185.167323 
L 50.422245 186.624934 
L 50.413385 188.082544 
L 50.408413 189.540155 
L 50.406205 190.997765 
L 50.406145 192.455376 
L 50.408045 193.912986 
L 50.412072 195.370597 
L 50.418675 196.828207 
L 50.428501 198.285818 
L 50.442292 199.743428 
L 50.460742 201.201038 
L 50.484326 202.658649 
L 50.513111 204.116259 
L 50.546575 205.57387 
L 50.58349 207.03148 
L 50.621901 208.489091 
L 50.659237 209.946701 
L 50.692569 211.404312 
L 50.71897 212.861922 
L 50.73594 214.319532 
L 50.741796 215.777143 
L 50.741796 215.777143 
z
" clip-path="url(#p901283f225)" style="fill: none; stroke: #000000; stroke-opacity: 0.3"/>
   </g>
   <g id="FillBetweenPolyCollection_2">
    <path d="M 50.71871 197.650543 
L 50.08129 197.650543 
L 50.07773 196.127146 
L 50.079873 194.603749 
L 50.084648 193.080353 
L 50.088099 191.556956 
L 50.085935 190.033559 
L 50.07414 188.510162 
L 50.049575 186.986765 
L 50.010418 185.463368 
L 49.956389 183.939971 
L 49.888685 182.416575 
L 49.809621 180.893178 
L 49.722031 179.369781 
L 49.62851 177.846384 
L 49.530645 176.322987 
L 49.428371 174.79959 
L 49.319598 173.276193 
L 49.200177 171.752796 
L 49.064239 170.2294 
L 48.904798 168.706003 
L 48.714486 167.182606 
L 48.486232 165.659209 
L 48.21372 164.135812 
L 47.89154 162.612415 
L 47.515073 161.089018 
L 47.080257 159.565622 
L 46.583439 158.042225 
L 46.021525 156.518828 
L 45.39254 154.995431 
L 44.696534 153.472034 
L 43.936657 151.948637 
L 43.120068 150.42524 
L 42.258394 148.901844 
L 41.367523 147.378447 
L 40.466688 145.85505 
L 39.577003 144.331653 
L 38.719685 142.808256 
L 37.914277 141.284859 
L 37.177063 139.761462 
L 36.519843 138.238065 
L 35.949084 136.714669 
L 35.465472 135.191272 
L 35.06392 133.667875 
L 34.734108 132.144478 
L 34.461694 130.621081 
L 34.230242 129.097684 
L 34.023783 127.574287 
L 33.829742 126.050891 
L 33.641735 124.527494 
L 33.461676 123.004097 
L 33.300653 121.4807 
L 33.178208 119.957303 
L 33.12 118.433906 
L 33.154147 116.910509 
L 33.306885 115.387113 
L 33.598355 113.863716 
L 34.039303 112.340319 
L 34.629315 110.816922 
L 35.356809 109.293525 
L 36.200665 107.770128 
L 37.132983 106.246731 
L 38.122329 104.723335 
L 39.136799 103.199938 
L 40.146483 101.676541 
L 41.125143 100.153144 
L 42.051205 98.629747 
L 42.90831 97.10635 
L 43.685632 95.582953 
L 44.378066 94.059556 
L 44.986207 92.53616 
L 45.515941 91.012763 
L 45.977486 89.489366 
L 46.383851 87.965969 
L 46.748874 86.442572 
L 47.085187 84.919175 
L 47.40251 83.395778 
L 47.706634 81.872382 
L 47.999263 80.348985 
L 48.278685 78.825588 
L 48.541001 77.302191 
L 48.781589 75.778794 
L 48.996409 74.255397 
L 49.182912 72.732 
L 49.340409 71.208604 
L 49.469941 69.685207 
L 49.573794 68.16181 
L 49.654853 66.638413 
L 49.71601 65.115016 
L 49.759784 63.591619 
L 49.788217 62.068222 
L 49.803044 60.544825 
L 49.806054 59.021429 
L 49.799493 57.498032 
L 49.786359 55.974635 
L 49.770467 54.451238 
L 49.756234 52.927841 
L 49.748197 51.404444 
L 49.750385 49.881047 
L 49.765686 48.357651 
L 49.795379 46.834254 
L 51.004621 46.834254 
L 51.004621 46.834254 
L 51.034314 48.357651 
L 51.049615 49.881047 
L 51.051803 51.404444 
L 51.043766 52.927841 
L 51.029533 54.451238 
L 51.013641 55.974635 
L 51.000507 57.498032 
L 50.993946 59.021429 
L 50.996956 60.544825 
L 51.011783 62.068222 
L 51.040216 63.591619 
L 51.08399 65.115016 
L 51.145147 66.638413 
L 51.226206 68.16181 
L 51.330059 69.685207 
L 51.459591 71.208604 
L 51.617088 72.732 
L 51.803591 74.255397 
L 52.018411 75.778794 
L 52.258999 77.302191 
L 52.521315 78.825588 
L 52.800737 80.348985 
L 53.093366 81.872382 
L 53.39749 83.395778 
L 53.714813 84.919175 
L 54.051126 86.442572 
L 54.416149 87.965969 
L 54.822514 89.489366 
L 55.284059 91.012763 
L 55.813793 92.53616 
L 56.421934 94.059556 
L 57.114368 95.582953 
L 57.89169 97.10635 
L 58.748795 98.629747 
L 59.674857 100.153144 
L 60.653517 101.676541 
L 61.663201 103.199938 
L 62.677671 104.723335 
L 63.667017 106.246731 
L 64.599335 107.770128 
L 65.443191 109.293525 
L 66.170685 110.816922 
L 66.760697 112.340319 
L 67.201645 113.863716 
L 67.493115 115.387113 
L 67.645853 116.910509 
L 67.68 118.433906 
L 67.621792 119.957303 
L 67.499347 121.4807 
L 67.338324 123.004097 
L 67.158265 124.527494 
L 66.970258 126.050891 
L 66.776217 127.574287 
L 66.569758 129.097684 
L 66.338306 130.621081 
L 66.065892 132.144478 
L 65.73608 133.667875 
L 65.334528 135.191272 
L 64.850916 136.714669 
L 64.280157 138.238065 
L 63.622937 139.761462 
L 62.885723 141.284859 
L 62.080315 142.808256 
L 61.222997 144.331653 
L 60.333312 145.85505 
L 59.432477 147.378447 
L 58.541606 148.901844 
L 57.679932 150.42524 
L 56.863343 151.948637 
L 56.103466 153.472034 
L 55.40746 154.995431 
L 54.778475 156.518828 
L 54.216561 158.042225 
L 53.719743 159.565622 
L 53.284927 161.089018 
L 52.90846 162.612415 
L 52.58628 164.135812 
L 52.313768 165.659209 
L 52.085514 167.182606 
L 51.895202 168.706003 
L 51.735761 170.2294 
L 51.599823 171.752796 
L 51.480402 173.276193 
L 51.371629 174.79959 
L 51.269355 176.322987 
L 51.17149 177.846384 
L 51.077969 179.369781 
L 50.990379 180.893178 
L 50.911315 182.416575 
L 50.843611 183.939971 
L 50.789582 185.463368 
L 50.750425 186.986765 
L 50.72586 188.510162 
L 50.714065 190.033559 
L 50.711901 191.556956 
L 50.715352 193.080353 
L 50.720127 194.603749 
L 50.72227 196.127146 
L 50.71871 197.650543 
L 50.71871 197.650543 
z
" clip-path="url(#p901283f225)" style="fill: none; stroke: #000000; stroke-opacity: 0.3"/>
   </g>
   <g id="FillBetweenPolyCollection_3">
    <path d="M 51.507365 178.049598 
L 49.292635 178.049598 
L 49.175165 177.002478 
L 49.055981 175.955358 
L 48.936069 174.908238 
L 48.816222 173.861117 
L 48.696948 172.813997 
L 48.578404 171.766877 
L 48.460336 170.719757 
L 48.342079 169.672636 
L 48.222597 168.625516 
L 48.100567 167.578396 
L 47.97452 166.531275 
L 47.842989 165.484155 
L 47.704672 164.437035 
L 47.558552 163.389915 
L 47.403968 162.342794 
L 47.240606 161.295674 
L 47.068402 160.248554 
L 46.887376 159.201434 
L 46.697416 158.154313 
L 46.498048 157.107193 
L 46.288244 156.060073 
L 46.06631 155.012953 
L 45.829882 153.965832 
L 45.576048 152.918712 
L 45.301585 151.871592 
L 45.003297 150.824472 
L 44.678383 149.777351 
L 44.324809 148.730231 
L 43.941611 147.683111 
L 43.52909 146.635991 
L 43.088879 145.58887 
L 42.623871 144.54175 
L 42.138029 143.49463 
L 41.636114 142.44751 
L 41.123369 141.400389 
L 40.605218 140.353269 
L 40.087005 139.306149 
L 39.573801 138.259029 
L 39.070287 137.211908 
L 38.580697 136.164788 
L 38.108799 135.117668 
L 37.657878 134.070548 
L 37.230698 133.023427 
L 36.829419 131.976307 
L 36.455471 130.929187 
L 36.109407 129.882067 
L 35.790757 128.834946 
L 35.49795 127.787826 
L 35.228336 126.740706 
L 34.978364 125.693586 
L 34.743928 124.646465 
L 34.520888 123.599345 
L 34.30572 122.552225 
L 34.096238 121.505104 
L 33.892286 120.457984 
L 33.696311 119.410864 
L 33.513703 118.363744 
L 33.352833 117.316623 
L 33.224738 116.269503 
L 33.142447 115.222383 
L 33.12 114.175263 
L 33.171254 113.128142 
L 33.308594 112.081022 
L 33.541698 111.033902 
L 33.876511 109.986782 
L 34.314534 108.939661 
L 34.852519 107.892541 
L 35.482607 106.845421 
L 36.192878 105.798301 
L 36.968245 104.75118 
L 37.791577 103.70406 
L 38.644909 102.65694 
L 39.51062 101.60982 
L 40.372439 100.562699 
L 41.216201 99.515579 
L 42.030311 98.468459 
L 42.805899 97.421339 
L 43.536723 96.374218 
L 44.218862 95.327098 
L 44.85029 94.279978 
L 45.43042 93.232858 
L 45.959665 92.185737 
L 46.439089 91.138617 
L 46.870166 90.091497 
L 47.25465 89.044377 
L 47.594543 87.997256 
L 47.892132 86.950136 
L 48.150053 85.903016 
L 48.371361 84.855896 
L 48.559556 83.808775 
L 48.71856 82.761655 
L 48.852643 81.714535 
L 48.966272 80.667415 
L 49.063938 79.620294 
L 49.149946 78.573174 
L 49.228215 77.526054 
L 49.302095 76.478933 
L 49.374233 75.431813 
L 49.446498 74.384693 
L 51.353502 74.384693 
L 51.353502 74.384693 
L 51.425767 75.431813 
L 51.497905 76.478933 
L 51.571785 77.526054 
L 51.650054 78.573174 
L 51.736062 79.620294 
L 51.833728 80.667415 
L 51.947357 81.714535 
L 52.08144 82.761655 
L 52.240444 83.808775 
L 52.428639 84.855896 
L 52.649947 85.903016 
L 52.907868 86.950136 
L 53.205457 87.997256 
L 53.54535 89.044377 
L 53.929834 90.091497 
L 54.360911 91.138617 
L 54.840335 92.185737 
L 55.36958 93.232858 
L 55.94971 94.279978 
L 56.581138 95.327098 
L 57.263277 96.374218 
L 57.994101 97.421339 
L 58.769689 98.468459 
L 59.583799 99.515579 
L 60.427561 100.562699 
L 61.28938 101.60982 
L 62.155091 102.65694 
L 63.008423 103.70406 
L 63.831755 104.75118 
L 64.607122 105.798301 
L 65.317393 106.845421 
L 65.947481 107.892541 
L 66.485466 108.939661 
L 66.923489 109.986782 
L 67.258302 111.033902 
L 67.491406 112.081022 
L 67.628746 113.128142 
L 67.68 114.175263 
L 67.657553 115.222383 
L 67.575262 116.269503 
L 67.447167 117.316623 
L 67.286297 118.363744 
L 67.103689 119.410864 
L 66.907714 120.457984 
L 66.703762 121.505104 
L 66.49428 122.552225 
L 66.279112 123.599345 
L 66.056072 124.646465 
L 65.821636 125.693586 
L 65.571664 126.740706 
L 65.30205 127.787826 
L 65.009243 128.834946 
L 64.690593 129.882067 
L 64.344529 130.929187 
L 63.970581 131.976307 
L 63.569302 133.023427 
L 63.142122 134.070548 
L 62.691201 135.117668 
L 62.219303 136.164788 
L 61.729713 137.211908 
L 61.226199 138.259029 
L 60.712995 139.306149 
L 60.194782 140.353269 
L 59.676631 141.400389 
L 59.163886 142.44751 
L 58.661971 143.49463 
L 58.176129 144.54175 
L 57.711121 145.58887 
L 57.27091 146.635991 
L 56.858389 147.683111 
L 56.475191 148.730231 
L 56.121617 149.777351 
L 55.796703 150.824472 
L 55.498415 151.871592 
L 55.223952 152.918712 
L 54.970118 153.965832 
L 54.73369 155.012953 
L 54.511756 156.060073 
L 54.301952 157.107193 
L 54.102584 158.154313 
L 53.912624 159.201434 
L 53.731598 160.248554 
L 53.559394 161.295674 
L 53.396032 162.342794 
L 53.241448 163.389915 
L 53.095328 164.437035 
L 52.957011 165.484155 
L 52.82548 166.531275 
L 52.699433 167.578396 
L 52.577403 168.625516 
L 52.457921 169.672636 
L 52.339664 170.719757 
L 52.221596 171.766877 
L 52.103052 172.813997 
L 51.983778 173.861117 
L 51.863931 174.908238 
L 51.744019 175.955358 
L 51.624835 177.002478 
L 51.507365 178.049598 
L 51.507365 178.049598 
z
" clip-path="url(#p901283f225)" style="fill: none; stroke: #000000; stroke-opacity: 0.3"/>
   </g>
   <g id="FillBetweenPolyCollection_4">
    <path d="M 51.18251 165.312278 
L 49.61749 165.312278 
L 49.485033 164.324255 
L 49.332562 163.336231 
L 49.157044 162.348208 
L 48.956005 161.360185 
L 48.728045 160.372161 
L 48.473282 159.384138 
L 48.193611 158.396115 
L 47.892688 157.408091 
L 47.575583 156.420068 
L 47.248114 155.432045 
L 46.915929 154.444021 
L 46.583461 153.455998 
L 46.252944 152.467974 
L 45.923638 151.479951 
L 45.591451 150.491928 
L 45.249049 149.503904 
L 44.886495 148.515881 
L 44.492379 147.527858 
L 44.055333 146.539834 
L 43.565731 145.551811 
L 43.01738 144.563788 
L 42.40896 143.575764 
L 41.744993 142.587741 
L 41.036174 141.599718 
L 40.298955 140.611694 
L 39.554373 139.623671 
L 38.826215 138.635648 
L 38.138726 137.647624 
L 37.51413 136.659601 
L 36.970307 135.671578 
L 36.518942 134.683554 
L 36.164417 133.695531 
L 35.903584 132.707508 
L 35.726441 131.719484 
L 35.617561 130.731461 
L 35.558036 129.743438 
L 35.527604 128.755414 
L 35.506655 127.767391 
L 35.477867 126.779368 
L 35.427317 125.791344 
L 35.345053 124.803321 
L 35.225219 123.815298 
L 35.065874 122.827274 
L 34.868691 121.839251 
L 34.63867 120.851228 
L 34.383922 119.863204 
L 34.115512 118.875181 
L 33.847279 117.887158 
L 33.595489 116.899134 
L 33.37823 115.911111 
L 33.214468 114.923088 
L 33.122802 113.935064 
L 33.12 112.947041 
L 33.219513 111.959018 
L 33.430175 110.970994 
L 33.755283 109.982971 
L 34.192218 108.994948 
L 34.732668 108.006924 
L 35.36342 107.018901 
L 36.067599 106.030877 
L 36.826163 105.042854 
L 37.619461 104.054831 
L 38.42862 103.066807 
L 39.236655 102.078784 
L 40.029181 101.090761 
L 40.794746 100.102737 
L 41.524809 99.114714 
L 42.213477 98.126691 
L 42.857084 97.138667 
L 43.453731 96.150644 
L 44.002838 95.162621 
L 44.504788 94.174597 
L 44.960663 93.186574 
L 45.372087 92.198551 
L 45.741146 91.210527 
L 46.070381 90.222504 
L 46.362787 89.234481 
L 46.621821 88.246457 
L 46.85136 87.258434 
L 47.05561 86.270411 
L 47.238964 85.282387 
L 47.405807 84.294364 
L 47.560318 83.306341 
L 47.706273 82.318317 
L 47.8469 81.330294 
L 47.984782 80.342271 
L 48.121829 79.354247 
L 48.25929 78.366224 
L 48.397815 77.378201 
L 48.537519 76.390177 
L 48.678068 75.402154 
L 48.818756 74.414131 
L 48.95859 73.426107 
L 49.096373 72.438084 
L 49.230803 71.450061 
L 49.360561 70.462037 
L 49.484408 69.474014 
L 49.601254 68.485991 
L 49.710214 67.497967 
L 51.089786 67.497967 
L 51.089786 67.497967 
L 51.198746 68.485991 
L 51.315592 69.474014 
L 51.439439 70.462037 
L 51.569197 71.450061 
L 51.703627 72.438084 
L 51.84141 73.426107 
L 51.981244 74.414131 
L 52.121932 75.402154 
L 52.262481 76.390177 
L 52.402185 77.378201 
L 52.54071 78.366224 
L 52.678171 79.354247 
L 52.815218 80.342271 
L 52.9531 81.330294 
L 53.093727 82.318317 
L 53.239682 83.306341 
L 53.394193 84.294364 
L 53.561036 85.282387 
L 53.74439 86.270411 
L 53.94864 87.258434 
L 54.178179 88.246457 
L 54.437213 89.234481 
L 54.729619 90.222504 
L 55.058854 91.210527 
L 55.427913 92.198551 
L 55.839337 93.186574 
L 56.295212 94.174597 
L 56.797162 95.162621 
L 57.346269 96.150644 
L 57.942916 97.138667 
L 58.586523 98.126691 
L 59.275191 99.114714 
L 60.005254 100.102737 
L 60.770819 101.090761 
L 61.563345 102.078784 
L 62.37138 103.066807 
L 63.180539 104.054831 
L 63.973837 105.042854 
L 64.732401 106.030877 
L 65.43658 107.018901 
L 66.067332 108.006924 
L 66.607782 108.994948 
L 67.044717 109.982971 
L 67.369825 110.970994 
L 67.580487 111.959018 
L 67.68 112.947041 
L 67.677198 113.935064 
L 67.585532 114.923088 
L 67.42177 115.911111 
L 67.204511 116.899134 
L 66.952721 117.887158 
L 66.684488 118.875181 
L 66.416078 119.863204 
L 66.16133 120.851228 
L 65.931309 121.839251 
L 65.734126 122.827274 
L 65.574781 123.815298 
L 65.454947 124.803321 
L 65.372683 125.791344 
L 65.322133 126.779368 
L 65.293345 127.767391 
L 65.272396 128.755414 
L 65.241964 129.743438 
L 65.182439 130.731461 
L 65.073559 131.719484 
L 64.896416 132.707508 
L 64.635583 133.695531 
L 64.281058 134.683554 
L 63.829693 135.671578 
L 63.28587 136.659601 
L 62.661274 137.647624 
L 61.973785 138.635648 
L 61.245627 139.623671 
L 60.501045 140.611694 
L 59.763826 141.599718 
L 59.055007 142.587741 
L 58.39104 143.575764 
L 57.78262 144.563788 
L 57.234269 145.551811 
L 56.744667 146.539834 
L 56.307621 147.527858 
L 55.913505 148.515881 
L 55.550951 149.503904 
L 55.208549 150.491928 
L 54.876362 151.479951 
L 54.547056 152.467974 
L 54.216539 153.455998 
L 53.884071 154.444021 
L 53.551886 155.432045 
L 53.224417 156.420068 
L 52.907312 157.408091 
L 52.606389 158.396115 
L 52.326718 159.384138 
L 52.071955 160.372161 
L 51.843995 161.360185 
L 51.642956 162.348208 
L 51.467438 163.336231 
L 51.314967 164.324255 
L 51.18251 165.312278 
L 51.18251 165.312278 
z
" clip-path="url(#p901283f225)" style="fill: none; stroke: #000000; stroke-opacity: 0.3"/>
   </g>
   <g id="FillBetweenPolyCollection_5">
    <path d="M 53.505889 169.806042 
L 47.294111 169.806042 
L 46.966432 168.721125 
L 46.638374 167.636208 
L 46.313069 166.551292 
L 45.992837 165.466375 
L 45.679051 164.381458 
L 45.372087 163.296541 
L 45.071409 162.211624 
L 44.775755 161.126707 
L 44.483428 160.041791 
L 44.192643 158.956874 
L 43.901897 157.871957 
L 43.610308 156.78704 
L 43.317866 155.702123 
L 43.02557 154.617207 
L 42.735403 153.53229 
L 42.450151 152.447373 
L 42.173079 151.362456 
L 41.907487 150.277539 
L 41.656212 149.192622 
L 41.42113 148.107706 
L 41.202722 147.022789 
L 40.99976 145.937872 
L 40.809165 144.852955 
L 40.626052 143.768038 
L 40.443972 142.683121 
L 40.255323 141.598205 
L 40.051901 140.513288 
L 39.825541 139.428371 
L 39.568779 138.343454 
L 39.275496 137.258537 
L 38.941476 136.173621 
L 38.564851 135.088704 
L 38.146394 134.003787 
L 37.68965 132.91887 
L 37.200903 131.833953 
L 36.688978 130.749036 
L 36.164906 129.66412 
L 35.641469 128.579203 
L 35.132643 127.494286 
L 34.652987 126.409369 
L 34.217005 125.324452 
L 33.838505 124.239535 
L 33.530002 123.154619 
L 33.302197 122.069702 
L 33.163555 120.984785 
L 33.12 119.899868 
L 33.174758 118.814951 
L 33.328328 117.730035 
L 33.578588 116.645118 
L 33.921017 115.560201 
L 34.348994 114.475284 
L 34.854162 113.390367 
L 35.426812 112.30545 
L 36.056265 111.220534 
L 36.731233 110.135617 
L 37.440151 109.0507 
L 38.171462 107.965783 
L 38.913877 106.880866 
L 39.656619 105.795949 
L 40.389635 104.711033 
L 41.103823 103.626116 
L 41.791232 102.541199 
L 42.445265 101.456282 
L 43.060842 100.371365 
L 43.634532 99.286449 
L 44.164606 98.201532 
L 44.651021 97.116615 
L 45.095305 96.031698 
L 45.50035 94.946781 
L 45.870121 93.861864 
L 46.209298 92.776948 
L 46.522878 91.692031 
L 46.81578 90.607114 
L 47.092475 89.522197 
L 47.356682 88.43728 
L 47.611149 87.352363 
L 47.85754 86.267447 
L 48.096427 85.18253 
L 48.327378 84.097613 
L 48.549138 83.012696 
L 48.759857 81.927779 
L 48.957357 80.842863 
L 49.1394 79.757946 
L 49.303943 78.673029 
L 49.449347 77.588112 
L 49.574538 76.503195 
L 49.67911 75.418278 
L 49.763364 74.333362 
L 49.828302 73.248445 
L 49.875559 72.163528 
L 49.907313 71.078611 
L 49.926147 69.993694 
L 49.934908 68.908777 
L 49.936552 67.823861 
L 49.933983 66.738944 
L 49.929914 65.654027 
L 49.926734 64.56911 
L 49.92641 63.484193 
L 49.930413 62.399277 
L 50.869587 62.399277 
L 50.869587 62.399277 
L 50.87359 63.484193 
L 50.873266 64.56911 
L 50.870086 65.654027 
L 50.866017 66.738944 
L 50.863448 67.823861 
L 50.865092 68.908777 
L 50.873853 69.993694 
L 50.892687 71.078611 
L 50.924441 72.163528 
L 50.971698 73.248445 
L 51.036636 74.333362 
L 51.12089 75.418278 
L 51.225462 76.503195 
L 51.350653 77.588112 
L 51.496057 78.673029 
L 51.6606 79.757946 
L 51.842643 80.842863 
L 52.040143 81.927779 
L 52.250862 83.012696 
L 52.472622 84.097613 
L 52.703573 85.18253 
L 52.94246 86.267447 
L 53.188851 87.352363 
L 53.443318 88.43728 
L 53.707525 89.522197 
L 53.98422 90.607114 
L 54.277122 91.692031 
L 54.590702 92.776948 
L 54.929879 93.861864 
L 55.29965 94.946781 
L 55.704695 96.031698 
L 56.148979 97.116615 
L 56.635394 98.201532 
L 57.165468 99.286449 
L 57.739158 100.371365 
L 58.354735 101.456282 
L 59.008768 102.541199 
L 59.696177 103.626116 
L 60.410365 104.711033 
L 61.143381 105.795949 
L 61.886123 106.880866 
L 62.628538 107.965783 
L 63.359849 109.0507 
L 64.068767 110.135617 
L 64.743735 111.220534 
L 65.373188 112.30545 
L 65.945838 113.390367 
L 66.451006 114.475284 
L 66.878983 115.560201 
L 67.221412 116.645118 
L 67.471672 117.730035 
L 67.625242 118.814951 
L 67.68 119.899868 
L 67.636445 120.984785 
L 67.497803 122.069702 
L 67.269998 123.154619 
L 66.961495 124.239535 
L 66.582995 125.324452 
L 66.147013 126.409369 
L 65.667357 127.494286 
L 65.158531 128.579203 
L 64.635094 129.66412 
L 64.111022 130.749036 
L 63.599097 131.833953 
L 63.11035 132.91887 
L 62.653606 134.003787 
L 62.235149 135.088704 
L 61.858524 136.173621 
L 61.524504 137.258537 
L 61.231221 138.343454 
L 60.974459 139.428371 
L 60.748099 140.513288 
L 60.544677 141.598205 
L 60.356028 142.683121 
L 60.173948 143.768038 
L 59.990835 144.852955 
L 59.80024 145.937872 
L 59.597278 147.022789 
L 59.37887 148.107706 
L 59.143788 149.192622 
L 58.892513 150.277539 
L 58.626921 151.362456 
L 58.349849 152.447373 
L 58.064597 153.53229 
L 57.77443 154.617207 
L 57.482134 155.702123 
L 57.189692 156.78704 
L 56.898103 157.871957 
L 56.607357 158.956874 
L 56.316572 160.041791 
L 56.024245 161.126707 
L 55.728591 162.211624 
L 55.427913 163.296541 
L 55.120949 164.381458 
L 54.807163 165.466375 
L 54.486931 166.551292 
L 54.161626 167.636208 
L 53.833568 168.721125 
L 53.505889 169.806042 
L 53.505889 169.806042 
z
" clip-path="url(#p901283f225)" style="fill: none; stroke: #000000; stroke-opacity: 0.3"/>
   </g>
   <g id="FillBetweenPolyCollection_6">
    <path d="M 51.30572 169.228413 
L 49.49428 169.228413 
L 49.398243 168.14716 
L 49.304565 167.065907 
L 49.213505 165.984654 
L 49.124557 164.903401 
L 49.036464 163.822149 
L 48.947331 162.740896 
L 48.854819 161.659643 
L 48.75639 160.57839 
L 48.649552 159.497138 
L 48.532053 158.415885 
L 48.401962 157.334632 
L 48.257607 156.253379 
L 48.097362 155.172126 
L 47.919323 154.090874 
L 47.720925 153.009621 
L 47.498607 151.928368 
L 47.247613 150.847115 
L 46.961992 149.765863 
L 46.634858 148.68461 
L 46.258897 147.603357 
L 45.827065 146.522104 
L 45.3334 145.440852 
L 44.77384 144.359599 
L 44.146935 143.278346 
L 43.454352 142.197093 
L 42.701127 141.11584 
L 41.895595 140.034588 
L 41.049052 138.953335 
L 40.17517 137.872082 
L 39.289266 136.790829 
L 38.407546 135.709577 
L 37.54641 134.628324 
L 36.721937 133.547071 
L 35.949567 132.465818 
L 35.243975 131.384565 
L 34.619062 130.303313 
L 34.087938 129.22206 
L 33.662766 128.140807 
L 33.354366 127.059554 
L 33.171518 125.978302 
L 33.12 124.897049 
L 33.201491 123.815796 
L 33.412535 122.734543 
L 33.743803 121.653291 
L 34.179907 120.572038 
L 34.699928 119.490785 
L 35.278747 118.409532 
L 35.889119 117.328279 
L 36.504264 116.247027 
L 37.10066 115.165774 
L 37.660609 114.084521 
L 38.174165 113.003268 
L 38.640068 111.922016 
L 39.065484 110.840763 
L 39.464536 109.75951 
L 39.85582 108.678257 
L 40.25929 107.597005 
L 40.693 106.515752 
L 41.170228 105.434499 
L 41.697439 104.353246 
L 42.273387 103.271993 
L 42.889441 102.190741 
L 43.531033 101.109488 
L 44.179897 100.028235 
L 44.816688 98.946982 
L 45.423527 97.86573 
L 45.986057 96.784477 
L 46.494757 95.703224 
L 46.945392 94.621971 
L 47.338656 93.540718 
L 47.679187 92.459466 
L 47.974228 91.378213 
L 48.232193 90.29696 
L 48.46138 89.215707 
L 48.669007 88.134455 
L 48.860621 87.053202 
L 49.039891 85.971949 
L 49.208716 84.890696 
L 49.367531 83.809444 
L 49.515727 82.728191 
L 49.652082 81.646938 
L 49.775139 80.565685 
L 49.883511 79.484432 
L 49.976075 78.40318 
L 50.052101 77.321927 
L 50.111306 76.240674 
L 50.153872 75.159421 
L 50.180443 74.078169 
L 50.192123 72.996916 
L 50.190468 71.915663 
L 50.177477 70.83441 
L 50.155569 69.753158 
L 50.127527 68.671905 
L 50.096396 67.590652 
L 50.065333 66.509399 
L 50.037405 65.428146 
L 50.015361 64.346894 
L 50.001407 63.265641 
L 49.997015 62.184388 
L 50.802985 62.184388 
L 50.802985 62.184388 
L 50.798593 63.265641 
L 50.784639 64.346894 
L 50.762595 65.428146 
L 50.734667 66.509399 
L 50.703604 67.590652 
L 50.672473 68.671905 
L 50.644431 69.753158 
L 50.622523 70.83441 
L 50.609532 71.915663 
L 50.607877 72.996916 
L 50.619557 74.078169 
L 50.646128 75.159421 
L 50.688694 76.240674 
L 50.747899 77.321927 
L 50.823925 78.40318 
L 50.916489 79.484432 
L 51.024861 80.565685 
L 51.147918 81.646938 
L 51.284273 82.728191 
L 51.432469 83.809444 
L 51.591284 84.890696 
L 51.760109 85.971949 
L 51.939379 87.053202 
L 52.130993 88.134455 
L 52.33862 89.215707 
L 52.567807 90.29696 
L 52.825772 91.378213 
L 53.120813 92.459466 
L 53.461344 93.540718 
L 53.854608 94.621971 
L 54.305243 95.703224 
L 54.813943 96.784477 
L 55.376473 97.86573 
L 55.983312 98.946982 
L 56.620103 100.028235 
L 57.268967 101.109488 
L 57.910559 102.190741 
L 58.526613 103.271993 
L 59.102561 104.353246 
L 59.629772 105.434499 
L 60.107 106.515752 
L 60.54071 107.597005 
L 60.94418 108.678257 
L 61.335464 109.75951 
L 61.734516 110.840763 
L 62.159932 111.922016 
L 62.625835 113.003268 
L 63.139391 114.084521 
L 63.69934 115.165774 
L 64.295736 116.247027 
L 64.910881 117.328279 
L 65.521253 118.409532 
L 66.100072 119.490785 
L 66.620093 120.572038 
L 67.056197 121.653291 
L 67.387465 122.734543 
L 67.598509 123.815796 
L 67.68 124.897049 
L 67.628482 125.978302 
L 67.445634 127.059554 
L 67.137234 128.140807 
L 66.712062 129.22206 
L 66.180938 130.303313 
L 65.556025 131.384565 
L 64.850433 132.465818 
L 64.078063 133.547071 
L 63.25359 134.628324 
L 62.392454 135.709577 
L 61.510734 136.790829 
L 60.62483 137.872082 
L 59.750948 138.953335 
L 58.904405 140.034588 
L 58.098873 141.11584 
L 57.345648 142.197093 
L 56.653065 143.278346 
L 56.02616 144.359599 
L 55.4666 145.440852 
L 54.972935 146.522104 
L 54.541103 147.603357 
L 54.165142 148.68461 
L 53.838008 149.765863 
L 53.552387 150.847115 
L 53.301393 151.928368 
L 53.079075 153.009621 
L 52.880677 154.090874 
L 52.702638 155.172126 
L 52.542393 156.253379 
L 52.398038 157.334632 
L 52.267947 158.415885 
L 52.150448 159.497138 
L 52.04361 160.57839 
L 51.945181 161.659643 
L 51.852669 162.740896 
L 51.763536 163.822149 
L 51.675443 164.903401 
L 51.586495 165.984654 
L 51.495435 167.065907 
L 51.401757 168.14716 
L 51.30572 169.228413 
L 51.30572 169.228413 
z
" clip-path="url(#p901283f225)" style="fill: none; stroke: #000000; stroke-opacity: 0.3"/>
   </g>
   <g id="FillBetweenPolyCollection_7">
    <path d="M 53.068752 160.043897 
L 47.731248 160.043897 
L 47.479868 159.267568 
L 47.219596 158.49124 
L 46.950817 157.714911 
L 46.673718 156.938583 
L 46.388276 156.162254 
L 46.09424 155.385926 
L 45.791152 154.609597 
L 45.47838 153.833269 
L 45.155169 153.05694 
L 44.820715 152.280612 
L 44.474256 151.504283 
L 44.115169 150.727954 
L 43.743069 149.951626 
L 43.357907 149.175297 
L 42.960052 148.398969 
L 42.550354 147.62264 
L 42.130177 146.846312 
L 41.701397 146.069983 
L 41.266373 145.293655 
L 40.827874 144.517326 
L 40.38898 143.740998 
L 39.95296 142.964669 
L 39.523132 142.188341 
L 39.102716 141.412012 
L 38.694695 140.635684 
L 38.301692 139.859355 
L 37.925863 139.083027 
L 37.568829 138.306698 
L 37.231632 137.53037 
L 36.914728 136.754041 
L 36.618015 135.977713 
L 36.34088 135.201384 
L 36.082272 134.425056 
L 35.840792 133.648727 
L 35.614788 132.872399 
L 35.402457 132.09607 
L 35.201943 131.319742 
L 35.01144 130.543413 
L 34.829277 129.767085 
L 34.654008 128.990756 
L 34.484494 128.214428 
L 34.31997 127.438099 
L 34.160117 126.661771 
L 34.00511 125.885442 
L 33.855663 125.109114 
L 33.713051 124.332785 
L 33.579115 123.556457 
L 33.456236 122.780128 
L 33.347285 122.0038 
L 33.255543 121.227471 
L 33.184589 120.451143 
L 33.13816 119.674814 
L 33.12 118.898486 
L 33.133684 118.122157 
L 33.182449 117.345829 
L 33.269033 116.5695 
L 33.395532 115.793172 
L 33.563285 115.016843 
L 33.772806 114.240515 
L 34.023748 113.464186 
L 34.314923 112.687858 
L 34.644353 111.911529 
L 35.009374 111.1352 
L 35.406754 110.358872 
L 35.83284 109.582543 
L 36.283714 108.806215 
L 36.755337 108.029886 
L 37.243693 107.253558 
L 37.744896 106.477229 
L 38.255282 105.700901 
L 38.771467 104.924572 
L 39.29037 104.148244 
L 39.809212 103.371915 
L 40.325495 102.595587 
L 40.836965 101.819258 
L 41.34156 101.04293 
L 41.837368 100.266601 
L 42.32259 99.490273 
L 42.795509 98.713944 
L 43.254487 97.937616 
L 43.697969 97.161287 
L 44.12451 96.384959 
L 44.532814 95.60863 
L 44.921782 94.832302 
L 45.290562 94.055973 
L 45.638595 93.279645 
L 45.965653 92.503316 
L 46.271862 91.726988 
L 46.557702 90.950659 
L 46.823995 90.174331 
L 47.071863 89.398002 
L 47.302672 88.621674 
L 47.517967 87.845345 
L 47.719387 87.069017 
L 47.908585 86.292688 
L 48.087148 85.51636 
L 48.256522 84.740031 
L 48.417957 83.963703 
L 48.572464 83.187374 
L 52.227536 83.187374 
L 52.227536 83.187374 
L 52.382043 83.963703 
L 52.543478 84.740031 
L 52.712852 85.51636 
L 52.891415 86.292688 
L 53.080613 87.069017 
L 53.282033 87.845345 
L 53.497328 88.621674 
L 53.728137 89.398002 
L 53.976005 90.174331 
L 54.242298 90.950659 
L 54.528138 91.726988 
L 54.834347 92.503316 
L 55.161405 93.279645 
L 55.509438 94.055973 
L 55.878218 94.832302 
L 56.267186 95.60863 
L 56.67549 96.384959 
L 57.102031 97.161287 
L 57.545513 97.937616 
L 58.004491 98.713944 
L 58.47741 99.490273 
L 58.962632 100.266601 
L 59.45844 101.04293 
L 59.963035 101.819258 
L 60.474505 102.595587 
L 60.990788 103.371915 
L 61.50963 104.148244 
L 62.028533 104.924572 
L 62.544718 105.700901 
L 63.055104 106.477229 
L 63.556307 107.253558 
L 64.044663 108.029886 
L 64.516286 108.806215 
L 64.96716 109.582543 
L 65.393246 110.358872 
L 65.790626 111.1352 
L 66.155647 111.911529 
L 66.485077 112.687858 
L 66.776252 113.464186 
L 67.027194 114.240515 
L 67.236715 115.016843 
L 67.404468 115.793172 
L 67.530967 116.5695 
L 67.617551 117.345829 
L 67.666316 118.122157 
L 67.68 118.898486 
L 67.66184 119.674814 
L 67.615411 120.451143 
L 67.544457 121.227471 
L 67.452715 122.0038 
L 67.343764 122.780128 
L 67.220885 123.556457 
L 67.086949 124.332785 
L 66.944337 125.109114 
L 66.79489 125.885442 
L 66.639883 126.661771 
L 66.48003 127.438099 
L 66.315506 128.214428 
L 66.145992 128.990756 
L 65.970723 129.767085 
L 65.78856 130.543413 
L 65.598057 131.319742 
L 65.397543 132.09607 
L 65.185212 132.872399 
L 64.959208 133.648727 
L 64.717728 134.425056 
L 64.45912 135.201384 
L 64.181985 135.977713 
L 63.885272 136.754041 
L 63.568368 137.53037 
L 63.231171 138.306698 
L 62.874137 139.083027 
L 62.498308 139.859355 
L 62.105305 140.635684 
L 61.697284 141.412012 
L 61.276868 142.188341 
L 60.84704 142.964669 
L 60.41102 143.740998 
L 59.972126 144.517326 
L 59.533627 145.293655 
L 59.098603 146.069983 
L 58.669823 146.846312 
L 58.249646 147.62264 
L 57.839948 148.398969 
L 57.442093 149.175297 
L 57.056931 149.951626 
L 56.684831 150.727954 
L 56.325744 151.504283 
L 55.979285 152.280612 
L 55.644831 153.05694 
L 55.32162 153.833269 
L 55.008848 154.609597 
L 54.70576 155.385926 
L 54.411724 156.162254 
L 54.126282 156.938583 
L 53.849183 157.714911 
L 53.580404 158.49124 
L 53.320132 159.267568 
L 53.068752 160.043897 
L 53.068752 160.043897 
z
" clip-path="url(#p901283f225)" style="fill: none; stroke: #000000; stroke-opacity: 0.3"/>
   </g>
   <g id="FillBetweenPolyCollection_8">
    <path d="M 109.276627 171.606523 
L 106.723373 171.606523 
L 106.690447 170.820773 
L 106.660954 170.035023 
L 106.634077 169.249273 
L 106.608789 168.463523 
L 106.583874 167.677773 
L 106.557955 166.892024 
L 106.529517 166.106274 
L 106.496937 165.320524 
L 106.458509 164.534774 
L 106.412465 163.749024 
L 106.356995 162.963274 
L 106.290263 162.177524 
L 106.21042 161.391775 
L 106.115619 160.606025 
L 106.004025 159.820275 
L 105.873833 159.034525 
L 105.723299 158.248775 
L 105.550761 157.463025 
L 105.354691 156.677275 
L 105.133744 155.891526 
L 104.886821 155.105776 
L 104.613145 154.320026 
L 104.312334 153.534276 
L 103.98448 152.748526 
L 103.630225 151.962776 
L 103.250821 151.177026 
L 102.848175 150.391277 
L 102.424872 149.605527 
L 101.984162 148.819777 
L 101.529923 148.034027 
L 101.066579 147.248277 
L 100.598986 146.462527 
L 100.132286 145.676777 
L 99.671727 144.891028 
L 99.222468 144.105278 
L 98.789367 143.319528 
L 98.37677 142.533778 
L 97.988311 141.748028 
L 97.626734 140.962278 
L 97.293751 140.176528 
L 96.989945 139.390779 
L 96.714725 138.605029 
L 96.466336 137.819279 
L 96.241932 137.033529 
L 96.03771 136.247779 
L 95.849086 135.462029 
L 95.670927 134.67628 
L 95.497812 133.89053 
L 95.324308 133.10478 
L 95.14526 132.31903 
L 94.956065 131.53328 
L 94.752922 130.74753 
L 94.533042 129.96178 
L 94.294816 129.176031 
L 94.037915 128.390281 
L 93.763334 127.604531 
L 93.473371 126.818781 
L 93.171545 126.033031 
L 92.862454 125.247281 
L 92.551595 124.461531 
L 92.245137 123.675782 
L 91.949677 122.890032 
L 91.671986 122.104282 
L 91.418755 121.318532 
L 91.19635 120.532782 
L 91.010604 119.747032 
L 90.866629 118.961282 
L 90.768669 118.175533 
L 90.72 117.389783 
L 90.722866 116.604033 
L 90.778458 115.818283 
L 90.886927 115.032533 
L 91.04744 114.246783 
L 91.258251 113.461033 
L 91.516806 112.675284 
L 91.81986 111.889534 
L 92.163603 111.103784 
L 92.543799 110.318034 
L 92.955918 109.532284 
L 93.395279 108.746534 
L 93.85717 107.960784 
L 94.336974 107.175035 
L 94.830274 106.389285 
L 95.332948 105.603535 
L 95.841239 104.817785 
L 96.351818 104.032035 
L 96.861815 103.246285 
L 97.368838 102.460535 
L 97.87096 101.674786 
L 98.366702 100.889036 
L 98.854981 100.103286 
L 99.335056 99.317536 
L 99.806458 98.531786 
L 100.268911 97.746036 
L 100.722256 96.960286 
L 101.166375 96.174537 
L 101.601126 95.388787 
L 102.026281 94.603037 
L 102.44149 93.817287 
L 113.55851 93.817287 
L 113.55851 93.817287 
L 113.973719 94.603037 
L 114.398874 95.388787 
L 114.833625 96.174537 
L 115.277744 96.960286 
L 115.731089 97.746036 
L 116.193542 98.531786 
L 116.664944 99.317536 
L 117.145019 100.103286 
L 117.633298 100.889036 
L 118.12904 101.674786 
L 118.631162 102.460535 
L 119.138185 103.246285 
L 119.648182 104.032035 
L 120.158761 104.817785 
L 120.667052 105.603535 
L 121.169726 106.389285 
L 121.663026 107.175035 
L 122.14283 107.960784 
L 122.604721 108.746534 
L 123.044082 109.532284 
L 123.456201 110.318034 
L 123.836397 111.103784 
L 124.18014 111.889534 
L 124.483194 112.675284 
L 124.741749 113.461033 
L 124.95256 114.246783 
L 125.113073 115.032533 
L 125.221542 115.818283 
L 125.277134 116.604033 
L 125.28 117.389783 
L 125.231331 118.175533 
L 125.133371 118.961282 
L 124.989396 119.747032 
L 124.80365 120.532782 
L 124.581245 121.318532 
L 124.328014 122.104282 
L 124.050323 122.890032 
L 123.754863 123.675782 
L 123.448405 124.461531 
L 123.137546 125.247281 
L 122.828455 126.033031 
L 122.526629 126.818781 
L 122.236666 127.604531 
L 121.962085 128.390281 
L 121.705184 129.176031 
L 121.466958 129.96178 
L 121.247078 130.74753 
L 121.043935 131.53328 
L 120.85474 132.31903 
L 120.675692 133.10478 
L 120.502188 133.89053 
L 120.329073 134.67628 
L 120.150914 135.462029 
L 119.96229 136.247779 
L 119.758068 137.033529 
L 119.533664 137.819279 
L 119.285275 138.605029 
L 119.010055 139.390779 
L 118.706249 140.176528 
L 118.373266 140.962278 
L 118.011689 141.748028 
L 117.62323 142.533778 
L 117.210633 143.319528 
L 116.777532 144.105278 
L 116.328273 144.891028 
L 115.867714 145.676777 
L 115.401014 146.462527 
L 114.933421 147.248277 
L 114.470077 148.034027 
L 114.015838 148.819777 
L 113.575128 149.605527 
L 113.151825 150.391277 
L 112.749179 151.177026 
L 112.369775 151.962776 
L 112.01552 152.748526 
L 111.687666 153.534276 
L 111.386855 154.320026 
L 111.113179 155.105776 
L 110.866256 155.891526 
L 110.645309 156.677275 
L 110.449239 157.463025 
L 110.276701 158.248775 
L 110.126167 159.034525 
L 109.995975 159.820275 
L 109.884381 160.606025 
L 109.78958 161.391775 
L 109.709737 162.177524 
L 109.643005 162.963274 
L 109.587535 163.749024 
L 109.541491 164.534774 
L 109.503063 165.320524 
L 109.470483 166.106274 
L 109.442045 166.892024 
L 109.416126 167.677773 
L 109.391211 168.463523 
L 109.365923 169.249273 
L 109.339046 170.035023 
L 109.309553 170.820773 
L 109.276627 171.606523 
L 109.276627 171.606523 
z
" clip-path="url(#p901283f225)" style="fill: none; stroke: #000000; stroke-opacity: 0.3"/>
   </g>
   <g id="FillBetweenPolyCollection_9">
    <path d="M 114.991103 144.793803 
L 101.008897 144.793803 
L 100.492823 144.051052 
L 99.979525 143.308302 
L 99.473153 142.565552 
L 98.977703 141.822801 
L 98.496915 141.080051 
L 98.034178 140.337301 
L 97.592442 139.59455 
L 97.17414 138.8518 
L 96.781129 138.10905 
L 96.414651 137.366299 
L 96.075308 136.623549 
L 95.763066 135.880799 
L 95.477281 135.138048 
L 95.216745 134.395298 
L 94.979752 133.652548 
L 94.764186 132.909797 
L 94.567619 132.167047 
L 94.387417 131.424297 
L 94.220857 130.681547 
L 94.065229 129.938796 
L 93.917943 129.196046 
L 93.776615 128.453296 
L 93.639141 127.710545 
L 93.503746 126.967795 
L 93.369017 126.225045 
L 93.233912 125.482294 
L 93.097748 124.739544 
L 92.96017 123.996794 
L 92.821114 123.254043 
L 92.680748 122.511293 
L 92.539427 121.768543 
L 92.397629 121.025792 
L 92.255917 120.283042 
L 92.1149 119.540292 
L 91.97521 118.797542 
L 91.837497 118.054791 
L 91.702438 117.312041 
L 91.57076 116.569291 
L 91.443279 115.82654 
L 91.320944 115.08379 
L 91.204883 114.34104 
L 91.09646 113.598289 
L 90.99731 112.855539 
L 90.909377 112.112789 
L 90.834933 111.370038 
L 90.776574 110.627288 
L 90.737206 109.884538 
L 90.72 109.141787 
L 90.728333 108.399037 
L 90.765706 107.656287 
L 90.835648 106.913537 
L 90.9416 106.170786 
L 91.086801 105.428036 
L 91.274158 104.685286 
L 91.506121 103.942535 
L 91.784571 103.199785 
L 92.110706 102.457035 
L 92.484958 101.714284 
L 92.906915 100.971534 
L 93.375283 100.228784 
L 93.887866 99.486033 
L 94.441572 98.743283 
L 95.032464 98.000533 
L 95.655819 97.257782 
L 96.306233 96.515032 
L 96.977736 95.772282 
L 97.663934 95.029531 
L 98.358161 94.286781 
L 99.053641 93.544031 
L 99.743652 92.801281 
L 100.421682 92.05853 
L 101.081578 91.31578 
L 101.71768 90.57303 
L 102.324928 89.830279 
L 102.898958 89.087529 
L 103.436164 88.344779 
L 103.933736 87.602028 
L 104.389677 86.859278 
L 104.8028 86.116528 
L 105.172691 85.373777 
L 105.499676 84.631027 
L 105.784754 83.888277 
L 106.029534 83.145526 
L 106.236154 82.402776 
L 106.407207 81.660026 
L 106.54565 80.917276 
L 106.654729 80.174525 
L 106.737886 79.431775 
L 106.798691 78.689025 
L 106.84075 77.946274 
L 106.867643 77.203524 
L 106.882845 76.460774 
L 106.889665 75.718023 
L 106.891183 74.975273 
L 106.890201 74.232523 
L 106.889197 73.489772 
L 106.890288 72.747022 
L 106.89521 72.004272 
L 106.9053 71.261521 
L 109.0947 71.261521 
L 109.0947 71.261521 
L 109.10479 72.004272 
L 109.109712 72.747022 
L 109.110803 73.489772 
L 109.109799 74.232523 
L 109.108817 74.975273 
L 109.110335 75.718023 
L 109.117155 76.460774 
L 109.132357 77.203524 
L 109.15925 77.946274 
L 109.201309 78.689025 
L 109.262114 79.431775 
L 109.345271 80.174525 
L 109.45435 80.917276 
L 109.592793 81.660026 
L 109.763846 82.402776 
L 109.970466 83.145526 
L 110.215246 83.888277 
L 110.500324 84.631027 
L 110.827309 85.373777 
L 111.1972 86.116528 
L 111.610323 86.859278 
L 112.066264 87.602028 
L 112.563836 88.344779 
L 113.101042 89.087529 
L 113.675072 89.830279 
L 114.28232 90.57303 
L 114.918422 91.31578 
L 115.578318 92.05853 
L 116.256348 92.801281 
L 116.946359 93.544031 
L 117.641839 94.286781 
L 118.336066 95.029531 
L 119.022264 95.772282 
L 119.693767 96.515032 
L 120.344181 97.257782 
L 120.967536 98.000533 
L 121.558428 98.743283 
L 122.112134 99.486033 
L 122.624717 100.228784 
L 123.093085 100.971534 
L 123.515042 101.714284 
L 123.889294 102.457035 
L 124.215429 103.199785 
L 124.493879 103.942535 
L 124.725842 104.685286 
L 124.913199 105.428036 
L 125.0584 106.170786 
L 125.164352 106.913537 
L 125.234294 107.656287 
L 125.271667 108.399037 
L 125.28 109.141787 
L 125.262794 109.884538 
L 125.223426 110.627288 
L 125.165067 111.370038 
L 125.090623 112.112789 
L 125.00269 112.855539 
L 124.90354 113.598289 
L 124.795117 114.34104 
L 124.679056 115.08379 
L 124.556721 115.82654 
L 124.42924 116.569291 
L 124.297562 117.312041 
L 124.162503 118.054791 
L 124.02479 118.797542 
L 123.8851 119.540292 
L 123.744083 120.283042 
L 123.602371 121.025792 
L 123.460573 121.768543 
L 123.319252 122.511293 
L 123.178886 123.254043 
L 123.03983 123.996794 
L 122.902252 124.739544 
L 122.766088 125.482294 
L 122.630983 126.225045 
L 122.496254 126.967795 
L 122.360859 127.710545 
L 122.223385 128.453296 
L 122.082057 129.196046 
L 121.934771 129.938796 
L 121.779143 130.681547 
L 121.612583 131.424297 
L 121.432381 132.167047 
L 121.235814 132.909797 
L 121.020248 133.652548 
L 120.783255 134.395298 
L 120.522719 135.138048 
L 120.236934 135.880799 
L 119.924692 136.623549 
L 119.585349 137.366299 
L 119.218871 138.10905 
L 118.82586 138.8518 
L 118.407558 139.59455 
L 117.965822 140.337301 
L 117.503085 141.080051 
L 117.022297 141.822801 
L 116.526847 142.565552 
L 116.020475 143.308302 
L 115.507177 144.051052 
L 114.991103 144.793803 
L 114.991103 144.793803 
z
" clip-path="url(#p901283f225)" style="fill: none; stroke: #000000; stroke-opacity: 0.3"/>
   </g>
   <g id="FillBetweenPolyCollection_10">
    <path d="M 111.672584 153.045395 
L 104.327416 153.045395 
L 104.04869 152.332858 
L 103.763992 151.620322 
L 103.474972 150.907786 
L 103.183428 150.19525 
L 102.891272 149.482714 
L 102.600492 148.770178 
L 102.313099 148.057641 
L 102.031077 147.345105 
L 101.756318 146.632569 
L 101.490561 145.920033 
L 101.235326 145.207497 
L 100.991853 144.49496 
L 100.761044 143.782424 
L 100.54341 143.069888 
L 100.339038 142.357352 
L 100.147555 141.644816 
L 99.968121 140.93228 
L 99.79943 140.219743 
L 99.639726 139.507207 
L 99.486845 138.794671 
L 99.338257 138.082135 
L 99.191141 137.369599 
L 99.042455 136.657063 
L 98.889033 135.944526 
L 98.727672 135.23199 
L 98.555243 134.519454 
L 98.368786 133.806918 
L 98.165614 133.094382 
L 97.94341 132.381845 
L 97.700317 131.669309 
L 97.435015 130.956773 
L 97.146789 130.244237 
L 96.835582 129.531701 
L 96.502027 128.819165 
L 96.147473 128.106628 
L 95.773976 127.394092 
L 95.384291 126.681556 
L 94.981825 125.96902 
L 94.570588 125.256484 
L 94.15512 124.543948 
L 93.740396 123.831411 
L 93.33173 123.118875 
L 92.934655 122.406339 
L 92.554798 121.693803 
L 92.197752 120.981267 
L 91.868938 120.26873 
L 91.573478 119.556194 
L 91.316061 118.843658 
L 91.100828 118.131122 
L 90.931269 117.418586 
L 90.810129 116.70605 
L 90.739346 115.993513 
L 90.72 115.280977 
L 90.752296 114.568441 
L 90.835567 113.855905 
L 90.968307 113.143369 
L 91.148226 112.430833 
L 91.372327 111.718296 
L 91.637008 111.00576 
L 91.938176 110.293224 
L 92.271373 109.580688 
L 92.631913 108.868152 
L 93.015011 108.155615 
L 93.415923 107.443079 
L 93.830059 106.730543 
L 94.253103 106.018007 
L 94.681097 105.305471 
L 95.110517 104.592935 
L 95.538327 103.880398 
L 95.962002 103.167862 
L 96.37954 102.455326 
L 96.789445 101.74279 
L 97.190697 101.030254 
L 97.582701 100.317718 
L 97.965234 99.605181 
L 98.338373 98.892645 
L 98.702427 98.180109 
L 99.057864 97.467573 
L 99.40525 96.755037 
L 99.745178 96.042501 
L 100.078228 95.329964 
L 100.404915 94.617428 
L 100.725666 93.904892 
L 101.040795 93.192356 
L 101.350499 92.47982 
L 101.654855 91.767283 
L 101.953829 91.054747 
L 102.247296 90.342211 
L 102.535051 89.629675 
L 102.816834 88.917139 
L 103.092355 88.204603 
L 103.361306 87.492066 
L 103.623387 86.77953 
L 103.878314 86.066994 
L 104.125833 85.354458 
L 104.365724 84.641922 
L 104.597808 83.929386 
L 104.821941 83.216849 
L 105.038012 82.504313 
L 110.961988 82.504313 
L 110.961988 82.504313 
L 111.178059 83.216849 
L 111.402192 83.929386 
L 111.634276 84.641922 
L 111.874167 85.354458 
L 112.121686 86.066994 
L 112.376613 86.77953 
L 112.638694 87.492066 
L 112.907645 88.204603 
L 113.183166 88.917139 
L 113.464949 89.629675 
L 113.752704 90.342211 
L 114.046171 91.054747 
L 114.345145 91.767283 
L 114.649501 92.47982 
L 114.959205 93.192356 
L 115.274334 93.904892 
L 115.595085 94.617428 
L 115.921772 95.329964 
L 116.254822 96.042501 
L 116.59475 96.755037 
L 116.942136 97.467573 
L 117.297573 98.180109 
L 117.661627 98.892645 
L 118.034766 99.605181 
L 118.417299 100.317718 
L 118.809303 101.030254 
L 119.210555 101.74279 
L 119.62046 102.455326 
L 120.037998 103.167862 
L 120.461673 103.880398 
L 120.889483 104.592935 
L 121.318903 105.305471 
L 121.746897 106.018007 
L 122.169941 106.730543 
L 122.584077 107.443079 
L 122.984989 108.155615 
L 123.368087 108.868152 
L 123.728627 109.580688 
L 124.061824 110.293224 
L 124.362992 111.00576 
L 124.627673 111.718296 
L 124.851774 112.430833 
L 125.031693 113.143369 
L 125.164433 113.855905 
L 125.247704 114.568441 
L 125.28 115.280977 
L 125.260654 115.993513 
L 125.189871 116.70605 
L 125.068731 117.418586 
L 124.899172 118.131122 
L 124.683939 118.843658 
L 124.426522 119.556194 
L 124.131062 120.26873 
L 123.802248 120.981267 
L 123.445202 121.693803 
L 123.065345 122.406339 
L 122.66827 123.118875 
L 122.259604 123.831411 
L 121.84488 124.543948 
L 121.429412 125.256484 
L 121.018175 125.96902 
L 120.615709 126.681556 
L 120.226024 127.394092 
L 119.852527 128.106628 
L 119.497973 128.819165 
L 119.164418 129.531701 
L 118.853211 130.244237 
L 118.564985 130.956773 
L 118.299683 131.669309 
L 118.05659 132.381845 
L 117.834386 133.094382 
L 117.631214 133.806918 
L 117.444757 134.519454 
L 117.272328 135.23199 
L 117.110967 135.944526 
L 116.957545 136.657063 
L 116.808859 137.369599 
L 116.661743 138.082135 
L 116.513155 138.794671 
L 116.360274 139.507207 
L 116.20057 140.219743 
L 116.031879 140.93228 
L 115.852445 141.644816 
L 115.660962 142.357352 
L 115.45659 143.069888 
L 115.238956 143.782424 
L 115.008147 144.49496 
L 114.764674 145.207497 
L 114.509439 145.920033 
L 114.243682 146.632569 
L 113.968923 147.345105 
L 113.686901 148.057641 
L 113.399508 148.770178 
L 113.108728 149.482714 
L 112.816572 150.19525 
L 112.525028 150.907786 
L 112.236008 151.620322 
L 111.95131 152.332858 
L 111.672584 153.045395 
L 111.672584 153.045395 
z
" clip-path="url(#p901283f225)" style="fill: none; stroke: #000000; stroke-opacity: 0.3"/>
   </g>
   <g id="FillBetweenPolyCollection_11">
    <path d="M 111.235155 168.467662 
L 104.764845 168.467662 
L 104.412386 167.247456 
L 104.067952 166.027251 
L 103.736594 164.807045 
L 103.421692 163.58684 
L 103.124561 162.366635 
L 102.844247 161.146429 
L 102.57757 159.926224 
L 102.319391 158.706018 
L 102.063114 157.485813 
L 101.801341 156.265608 
L 101.526612 155.045402 
L 101.232126 153.825197 
L 100.912354 152.604992 
L 100.563461 151.384786 
L 100.183498 150.164581 
L 99.772354 148.944375 
L 99.33151 147.72417 
L 98.863666 146.503965 
L 98.372316 145.283759 
L 97.861385 144.063554 
L 97.334978 142.843348 
L 96.797279 141.623143 
L 96.252613 140.402938 
L 95.705596 139.182732 
L 95.161326 137.962527 
L 94.625513 136.742322 
L 94.104478 135.522116 
L 93.604975 134.301911 
L 93.133835 133.081705 
L 92.697473 131.8615 
L 92.301346 130.641295 
L 91.949468 129.421089 
L 91.644087 128.200884 
L 91.385623 126.980678 
L 91.17289 125.760473 
L 91.003607 124.540268 
L 90.875132 123.320062 
L 90.785297 122.099857 
L 90.733229 120.879652 
L 90.72 119.659446 
L 90.749012 118.439241 
L 90.826016 117.219035 
L 90.958767 115.99883 
L 91.156324 114.778625 
L 91.428087 113.558419 
L 91.782681 112.338214 
L 92.226829 111.118008 
L 92.764333 109.897803 
L 93.395312 108.677598 
L 94.11575 107.457392 
L 94.917428 106.237187 
L 95.788232 105.016982 
L 96.712795 103.796776 
L 97.673402 102.576571 
L 98.651054 101.356365 
L 99.626582 100.13616 
L 100.581707 98.915955 
L 101.499944 97.695749 
L 102.367295 96.475544 
L 103.172691 95.255338 
L 103.908175 94.035133 
L 104.568858 92.814928 
L 105.152681 91.594722 
L 105.660048 90.374517 
L 106.093382 89.154312 
L 106.456665 87.934106 
L 106.754993 86.713901 
L 106.994202 85.493695 
L 107.180549 84.27349 
L 107.32048 83.053285 
L 107.420462 81.833079 
L 107.486865 80.612874 
L 107.525883 79.392668 
L 107.543468 78.172463 
L 107.545252 76.952258 
L 107.536467 75.732052 
L 107.52184 74.511847 
L 107.505476 73.291642 
L 107.490732 72.071436 
L 107.480116 70.851231 
L 107.475214 69.631025 
L 107.476662 68.41082 
L 107.484191 67.190615 
L 107.49674 65.970409 
L 107.51263 64.750204 
L 107.529795 63.529998 
L 107.546045 62.309793 
L 107.559333 61.089588 
L 107.568 59.869382 
L 107.570978 58.649177 
L 107.567913 57.428972 
L 107.559215 56.208766 
L 107.546016 54.988561 
L 107.53005 53.768355 
L 107.513462 52.54815 
L 107.498577 51.327945 
L 107.487654 50.107739 
L 107.482653 48.887534 
L 107.485034 47.667328 
L 108.514966 47.667328 
L 108.514966 47.667328 
L 108.517347 48.887534 
L 108.512346 50.107739 
L 108.501423 51.327945 
L 108.486538 52.54815 
L 108.46995 53.768355 
L 108.453984 54.988561 
L 108.440785 56.208766 
L 108.432087 57.428972 
L 108.429022 58.649177 
L 108.432 59.869382 
L 108.440667 61.089588 
L 108.453955 62.309793 
L 108.470205 63.529998 
L 108.48737 64.750204 
L 108.50326 65.970409 
L 108.515809 67.190615 
L 108.523338 68.41082 
L 108.524786 69.631025 
L 108.519884 70.851231 
L 108.509268 72.071436 
L 108.494524 73.291642 
L 108.47816 74.511847 
L 108.463533 75.732052 
L 108.454748 76.952258 
L 108.456532 78.172463 
L 108.474117 79.392668 
L 108.513135 80.612874 
L 108.579538 81.833079 
L 108.67952 83.053285 
L 108.819451 84.27349 
L 109.005798 85.493695 
L 109.245007 86.713901 
L 109.543335 87.934106 
L 109.906618 89.154312 
L 110.339952 90.374517 
L 110.847319 91.594722 
L 111.431142 92.814928 
L 112.091825 94.035133 
L 112.827309 95.255338 
L 113.632705 96.475544 
L 114.500056 97.695749 
L 115.418293 98.915955 
L 116.373418 100.13616 
L 117.348946 101.356365 
L 118.326598 102.576571 
L 119.287205 103.796776 
L 120.211768 105.016982 
L 121.082572 106.237187 
L 121.88425 107.457392 
L 122.604688 108.677598 
L 123.235667 109.897803 
L 123.773171 111.118008 
L 124.217319 112.338214 
L 124.571913 113.558419 
L 124.843676 114.778625 
L 125.041233 115.99883 
L 125.173984 117.219035 
L 125.250988 118.439241 
L 125.28 119.659446 
L 125.266771 120.879652 
L 125.214703 122.099857 
L 125.124868 123.320062 
L 124.996393 124.540268 
L 124.82711 125.760473 
L 124.614377 126.980678 
L 124.355913 128.200884 
L 124.050532 129.421089 
L 123.698654 130.641295 
L 123.302527 131.8615 
L 122.866165 133.081705 
L 122.395025 134.301911 
L 121.895522 135.522116 
L 121.374487 136.742322 
L 120.838674 137.962527 
L 120.294404 139.182732 
L 119.747387 140.402938 
L 119.202721 141.623143 
L 118.665022 142.843348 
L 118.138615 144.063554 
L 117.627684 145.283759 
L 117.136334 146.503965 
L 116.66849 147.72417 
L 116.227646 148.944375 
L 115.816502 150.164581 
L 115.436539 151.384786 
L 115.087646 152.604992 
L 114.767874 153.825197 
L 114.473388 155.045402 
L 114.198659 156.265608 
L 113.936886 157.485813 
L 113.680609 158.706018 
L 113.42243 159.926224 
L 113.155753 161.146429 
L 112.875439 162.366635 
L 112.578308 163.58684 
L 112.263406 164.807045 
L 111.932048 166.027251 
L 111.587614 167.247456 
L 111.235155 168.467662 
L 111.235155 168.467662 
z
" clip-path="url(#p901283f225)" style="fill: none; stroke: #000000; stroke-opacity: 0.3"/>
   </g>
   <g id="FillBetweenPolyCollection_12">
    <path d="M 110.409788 169.114915 
L 105.590212 169.114915 
L 105.406873 168.344318 
L 105.223401 167.573721 
L 105.04099 166.803124 
L 104.86069 166.032527 
L 104.683349 165.261929 
L 104.509567 164.491332 
L 104.339647 163.720735 
L 104.173567 162.950138 
L 104.010959 162.179541 
L 103.85111 161.408944 
L 103.692978 160.638347 
L 103.535233 159.86775 
L 103.376311 159.097153 
L 103.21449 158.326556 
L 103.047976 157.555959 
L 102.874999 156.785362 
L 102.693918 156.014765 
L 102.503307 155.244167 
L 102.302053 154.47357 
L 102.089419 153.702973 
L 101.865095 152.932376 
L 101.629219 152.161779 
L 101.382375 151.391182 
L 101.125556 150.620585 
L 100.860104 149.849988 
L 100.587624 149.079391 
L 100.309879 148.308794 
L 100.028681 147.538197 
L 99.745767 146.7676 
L 99.462687 145.997003 
L 99.180704 145.226406 
L 98.900707 144.455808 
L 98.623152 143.685211 
L 98.348036 142.914614 
L 98.074892 142.144017 
L 97.802824 141.37342 
L 97.530563 140.602823 
L 97.256553 139.832226 
L 96.979059 139.061629 
L 96.696287 138.291032 
L 96.40651 137.520435 
L 96.108206 136.749838 
L 95.80018 135.979241 
L 95.481686 135.208644 
L 95.152524 134.438046 
L 94.813129 133.667449 
L 94.464627 132.896852 
L 94.108868 132.126255 
L 93.748437 131.355658 
L 93.386629 130.585061 
L 93.02741 129.814464 
L 92.675333 129.043867 
L 92.335452 128.27327 
L 92.013197 127.502673 
L 91.714246 126.732076 
L 91.444369 125.961479 
L 91.209279 125.190882 
L 91.014467 124.420285 
L 90.865042 123.649687 
L 90.765584 122.87909 
L 90.72 122.108493 
L 90.731399 121.337896 
L 90.801995 120.567299 
L 90.933025 119.796702 
L 91.124702 119.026105 
L 91.376192 118.255508 
L 91.685628 117.484911 
L 92.050146 116.714314 
L 92.465953 115.943717 
L 92.928425 115.17312 
L 93.432222 114.402523 
L 93.971423 113.631925 
L 94.53968 112.861328 
L 95.130373 112.090731 
L 95.736779 111.320134 
L 96.352233 110.549537 
L 96.97028 109.77894 
L 97.584826 109.008343 
L 98.190263 108.237746 
L 98.78158 107.467149 
L 99.354447 106.696552 
L 99.905279 105.925955 
L 100.43127 105.155358 
L 100.930401 104.384761 
L 101.401424 103.614164 
L 101.843822 102.843566 
L 102.257743 102.072969 
L 102.643924 101.302372 
L 103.003595 100.531775 
L 103.338377 99.761178 
L 103.650169 98.990581 
L 103.941048 98.219984 
L 104.213158 97.449387 
L 104.468619 96.67879 
L 104.709442 95.908193 
L 104.93746 95.137596 
L 105.154276 94.366999 
L 105.361229 93.596402 
L 105.559374 92.825804 
L 110.440626 92.825804 
L 110.440626 92.825804 
L 110.638771 93.596402 
L 110.845724 94.366999 
L 111.06254 95.137596 
L 111.290558 95.908193 
L 111.531381 96.67879 
L 111.786842 97.449387 
L 112.058952 98.219984 
L 112.349831 98.990581 
L 112.661623 99.761178 
L 112.996405 100.531775 
L 113.356076 101.302372 
L 113.742257 102.072969 
L 114.156178 102.843566 
L 114.598576 103.614164 
L 115.069599 104.384761 
L 115.56873 105.155358 
L 116.094721 105.925955 
L 116.645553 106.696552 
L 117.21842 107.467149 
L 117.809737 108.237746 
L 118.415174 109.008343 
L 119.02972 109.77894 
L 119.647767 110.549537 
L 120.263221 111.320134 
L 120.869627 112.090731 
L 121.46032 112.861328 
L 122.028577 113.631925 
L 122.567778 114.402523 
L 123.071575 115.17312 
L 123.534047 115.943717 
L 123.949854 116.714314 
L 124.314372 117.484911 
L 124.623808 118.255508 
L 124.875298 119.026105 
L 125.066975 119.796702 
L 125.198005 120.567299 
L 125.268601 121.337896 
L 125.28 122.108493 
L 125.234416 122.87909 
L 125.134958 123.649687 
L 124.985533 124.420285 
L 124.790721 125.190882 
L 124.555631 125.961479 
L 124.285754 126.732076 
L 123.986803 127.502673 
L 123.664548 128.27327 
L 123.324667 129.043867 
L 122.97259 129.814464 
L 122.613371 130.585061 
L 122.251563 131.355658 
L 121.891132 132.126255 
L 121.535373 132.896852 
L 121.186871 133.667449 
L 120.847476 134.438046 
L 120.518314 135.208644 
L 120.19982 135.979241 
L 119.891794 136.749838 
L 119.59349 137.520435 
L 119.303713 138.291032 
L 119.020941 139.061629 
L 118.743447 139.832226 
L 118.469437 140.602823 
L 118.197176 141.37342 
L 117.925108 142.144017 
L 117.651964 142.914614 
L 117.376848 143.685211 
L 117.099293 144.455808 
L 116.819296 145.226406 
L 116.537313 145.997003 
L 116.254233 146.7676 
L 115.971319 147.538197 
L 115.690121 148.308794 
L 115.412376 149.079391 
L 115.139896 149.849988 
L 114.874444 150.620585 
L 114.617625 151.391182 
L 114.370781 152.161779 
L 114.134905 152.932376 
L 113.910581 153.702973 
L 113.697947 154.47357 
L 113.496693 155.244167 
L 113.306082 156.014765 
L 113.125001 156.785362 
L 112.952024 157.555959 
L 112.78551 158.326556 
L 112.623689 159.097153 
L 112.464767 159.86775 
L 112.307022 160.638347 
L 112.14889 161.408944 
L 111.989041 162.179541 
L 111.826433 162.950138 
L 111.660353 163.720735 
L 111.490433 164.491332 
L 111.316651 165.261929 
L 111.13931 166.032527 
L 110.95901 166.803124 
L 110.776599 167.573721 
L 110.593127 168.344318 
L 110.409788 169.114915 
L 110.409788 169.114915 
z
" clip-path="url(#p901283f225)" style="fill: none; stroke: #000000; stroke-opacity: 0.3"/>
   </g>
   <g id="FillBetweenPolyCollection_13">
    <path d="M 113.603041 159.353452 
L 102.396959 159.353452 
L 101.860776 158.541657 
L 101.319192 157.729862 
L 100.778304 156.918067 
L 100.244402 156.106272 
L 99.723791 155.294477 
L 99.222589 154.482682 
L 98.746518 153.670887 
L 98.300702 152.859092 
L 97.889468 152.047297 
L 97.516176 151.235502 
L 97.183068 150.423707 
L 96.891174 149.611912 
L 96.640257 148.800116 
L 96.428813 147.988321 
L 96.254139 147.176526 
L 96.112449 146.364731 
L 95.999043 145.552936 
L 95.908525 144.741141 
L 95.83504 143.929346 
L 95.772539 143.117551 
L 95.715026 142.305756 
L 95.656803 141.493961 
L 95.59267 140.682166 
L 95.51809 139.870371 
L 95.429298 139.058576 
L 95.323366 138.246781 
L 95.198208 137.434986 
L 95.05256 136.623191 
L 94.885911 135.811396 
L 94.698432 134.999601 
L 94.490893 134.187806 
L 94.264579 133.37601 
L 94.021237 132.564215 
L 93.763024 131.75242 
L 93.49249 130.940625 
L 93.212576 130.12883 
L 92.926618 129.317035 
L 92.638367 128.50524 
L 92.352 127.693445 
L 92.072119 126.88165 
L 91.803735 126.069855 
L 91.552219 125.25806 
L 91.323238 124.446265 
L 91.122644 123.63447 
L 90.956354 122.822675 
L 90.830187 122.01088 
L 90.749701 121.199085 
L 90.72 120.38729 
L 90.745547 119.575495 
L 90.829981 118.7637 
L 90.975942 117.951905 
L 91.184922 117.140109 
L 91.457156 116.328314 
L 91.791539 115.516519 
L 92.185608 114.704724 
L 92.635569 113.892929 
L 93.136388 113.081134 
L 93.681931 112.269339 
L 94.26516 111.457544 
L 94.878373 110.645749 
L 95.513471 109.833954 
L 96.162241 109.022159 
L 96.816637 108.210364 
L 97.469045 107.398569 
L 98.112508 106.586774 
L 98.740908 105.774979 
L 99.34909 104.963184 
L 99.932926 104.151389 
L 100.48932 103.339594 
L 101.016157 102.527799 
L 101.512214 101.716003 
L 101.977036 100.904208 
L 102.410791 100.092413 
L 102.814129 99.280618 
L 103.188042 98.468823 
L 103.533745 97.657028 
L 103.852577 96.845233 
L 104.145932 96.033438 
L 104.415211 95.221643 
L 104.661804 94.409848 
L 104.887083 93.598053 
L 105.092409 92.786258 
L 105.279146 91.974463 
L 105.448679 91.162668 
L 105.602423 90.350873 
L 105.74183 89.539078 
L 105.868384 88.727283 
L 105.983596 87.915488 
L 106.088982 87.103693 
L 106.186042 86.291897 
L 106.276235 85.480102 
L 106.360946 84.668307 
L 106.441459 83.856512 
L 106.518933 83.044717 
L 106.594373 82.232922 
L 106.668613 81.421127 
L 106.742302 80.609332 
L 106.815895 79.797537 
L 106.889654 78.985742 
L 109.110346 78.985742 
L 109.110346 78.985742 
L 109.184105 79.797537 
L 109.257698 80.609332 
L 109.331387 81.421127 
L 109.405627 82.232922 
L 109.481067 83.044717 
L 109.558541 83.856512 
L 109.639054 84.668307 
L 109.723765 85.480102 
L 109.813958 86.291897 
L 109.911018 87.103693 
L 110.016404 87.915488 
L 110.131616 88.727283 
L 110.25817 89.539078 
L 110.397577 90.350873 
L 110.551321 91.162668 
L 110.720854 91.974463 
L 110.907591 92.786258 
L 111.112917 93.598053 
L 111.338196 94.409848 
L 111.584789 95.221643 
L 111.854068 96.033438 
L 112.147423 96.845233 
L 112.466255 97.657028 
L 112.811958 98.468823 
L 113.185871 99.280618 
L 113.589209 100.092413 
L 114.022964 100.904208 
L 114.487786 101.716003 
L 114.983843 102.527799 
L 115.51068 103.339594 
L 116.067074 104.151389 
L 116.65091 104.963184 
L 117.259092 105.774979 
L 117.887492 106.586774 
L 118.530955 107.398569 
L 119.183363 108.210364 
L 119.837759 109.022159 
L 120.486529 109.833954 
L 121.121627 110.645749 
L 121.73484 111.457544 
L 122.318069 112.269339 
L 122.863612 113.081134 
L 123.364431 113.892929 
L 123.814392 114.704724 
L 124.208461 115.516519 
L 124.542844 116.328314 
L 124.815078 117.140109 
L 125.024058 117.951905 
L 125.170019 118.7637 
L 125.254453 119.575495 
L 125.28 120.38729 
L 125.250299 121.199085 
L 125.169813 122.01088 
L 125.043646 122.822675 
L 124.877356 123.63447 
L 124.676762 124.446265 
L 124.447781 125.25806 
L 124.196265 126.069855 
L 123.927881 126.88165 
L 123.648 127.693445 
L 123.361633 128.50524 
L 123.073382 129.317035 
L 122.787424 130.12883 
L 122.50751 130.940625 
L 122.236976 131.75242 
L 121.978763 132.564215 
L 121.735421 133.37601 
L 121.509107 134.187806 
L 121.301568 134.999601 
L 121.114089 135.811396 
L 120.94744 136.623191 
L 120.801792 137.434986 
L 120.676634 138.246781 
L 120.570702 139.058576 
L 120.48191 139.870371 
L 120.40733 140.682166 
L 120.343197 141.493961 
L 120.284974 142.305756 
L 120.227461 143.117551 
L 120.16496 143.929346 
L 120.091475 144.741141 
L 120.000957 145.552936 
L 119.887551 146.364731 
L 119.745861 147.176526 
L 119.571187 147.988321 
L 119.359743 148.800116 
L 119.108826 149.611912 
L 118.816932 150.423707 
L 118.483824 151.235502 
L 118.110532 152.047297 
L 117.699298 152.859092 
L 117.253482 153.670887 
L 116.777411 154.482682 
L 116.276209 155.294477 
L 115.755598 156.106272 
L 115.221696 156.918067 
L 114.680808 157.729862 
L 114.139224 158.541657 
L 113.603041 159.353452 
L 113.603041 159.353452 
z
" clip-path="url(#p901283f225)" style="fill: none; stroke: #000000; stroke-opacity: 0.3"/>
   </g>
   <g id="matplotlib.axis_1"/>
   <g id="matplotlib.axis_2">
    <g id="ytick_1">
     <g id="line2d_1">
      <defs>
       <path id="m895f5070b7" d="M 0 0 
L -3.5 0 
" style="stroke: #000000; stroke-width: 0.8"/>
      </defs>
      <g>
       <use xlink:href="#m895f5070b7" x="21.6" y="291.6" style="stroke: #000000; stroke-width: 0.8"/>
      </g>
     </g>
     <g id="text_1">
      <text style="font-size: 10px; font-family: 'DejaVu Sans', 'Bitstream Vera Sans', 'Computer Modern Sans Serif', 'Lucida Grande', 'Verdana', 'Geneva', 'Lucid', 'Arial', 'Helvetica', 'Avant Garde', sans-serif; text-anchor: end" x="14.6" y="295.399219" transform="rotate(-0 14.6 295.399219)">0.1</text>
     </g>
    </g>
    <g id="ytick_2">
     <g id="line2d_2">
      <g>
       <use xlink:href="#m895f5070b7" x="21.6" y="199.8" style="stroke: #000000; stroke-width: 0.8"/>
      </g>
     </g>
     <g id="text_2">
      <text style="font-size: 10px; font-family: 'DejaVu Sans', 'Bitstream Vera Sans', 'Computer Modern Sans Serif', 'Lucida Grande', 'Verdana', 'Geneva', 'Lucid', 'Arial', 'Helvetica', 'Avant Garde', sans-serif; text-anchor: end" x="14.6" y="203.599219" transform="rotate(-0 14.6 203.599219)">0.2</text>
     </g>
    </g>
    <g id="ytick_3">
     <g id="line2d_3">
      <g>
       <use xlink:href="#m895f5070b7" x="21.6" y="108" style="stroke: #000000; stroke-width: 0.8"/>
      </g>
     </g>
     <g id="text_3">
      <text style="font-size: 10px; font-family: 'DejaVu Sans', 'Bitstream Vera Sans', 'Computer Modern Sans Serif', 'Lucida Grande', 'Verdana', 'Geneva', 'Lucid', 'Arial', 'Helvetica', 'Avant Garde', sans-serif; text-anchor: end" x="14.6" y="111.799219" transform="rotate(-0 14.6 111.799219)">0.3</text>
     </g>
    </g>
    <g id="ytick_4">
     <g id="line2d_4">
      <g>
       <use xlink:href="#m895f5070b7" x="21.6" y="16.2" style="stroke: #000000; stroke-width: 0.8"/>
      </g>
     </g>
     <g id="text_4">
      <text style="font-size: 10px; font-family: 'DejaVu Sans', 'Bitstream Vera Sans', 'Computer Modern Sans Serif', 'Lucida Grande', 'Verdana', 'Geneva', 'Lucid', 'Arial', 'Helvetica', 'Avant Garde', sans-serif; text-anchor: end" x="14.6" y="19.999219" transform="rotate(-0 14.6 19.999219)">0.4</text>
     </g>
    </g>
    <g id="text_5">
     <!-- $E_{f}$ -->
     <g transform="translate(16.384437 160.27) rotate(-90)">
      <text>
       <tspan x="0" y="-0.796875" style="font-style: oblique; font-size: 14px; font-family: 'DejaVu Sans'">E</tspan>
       <tspan x="8.845703" y="1.5" style="font-style: oblique; font-size: 9.8px; font-family: 'DejaVu Sans'">f</tspan>
      </text>
     </g>
    </g>
   </g>
   <g id="line2d_5">
    <path d="M 50.4 269.568 
L 50.4 264.06 
" clip-path="url(#p901283f225)" style="fill: none; stroke: #000000; stroke-linecap: square"/>
   </g>
   <g id="line2d_6">
    <path d="M 50.4 269.568 
L 108 269.568 
" clip-path="url(#p901283f225)" style="fill: none; stroke: #000000; stroke-linecap: square"/>
   </g>
   <g id="line2d_7">
    <path d="M 108 269.568 
L 108 264.06 
" clip-path="url(#p901283f225)" style="fill: none; stroke: #000000; stroke-linecap: square"/>
   </g>
   <g id="patch_3">
    <path d="M 21.6 291.6 
L 21.6 16.2 
" style="fill: none; stroke: #000000; stroke-width: 0.8; stroke-linejoin: miter; stroke-linecap: square"/>
   </g>
   <g id="patch_4">
    <path d="M 136.8 291.6 
L 136.8 16.2 
" style="fill: none; stroke: #000000; stroke-width: 0.8; stroke-linejoin: miter; stroke-linecap: square"/>
   </g>
   <g id="patch_5">
    <path d="M 21.6 291.6 
L 136.8 291.6 
" style="fill: none; stroke: #000000; stroke-width: 0.8; stroke-linejoin: miter; stroke-linecap: square"/>
   </g>
   <g id="patch_6">
    <path d="M 21.6 16.2 
L 136.8 16.2 
" style="fill: none; stroke: #000000; stroke-width: 0.8; stroke-linejoin: miter; stroke-linecap: square"/>
   </g>
   <g id="text_6">
    <text style="font-weight: 700; font-size: 12px; font-family: 'DejaVu Sans', 'Bitstream Vera Sans', 'Computer Modern Sans Serif', 'Lucida Grande', 'Verdana', 'Geneva', 'Lucid', 'Arial', 'Helvetica', 'Avant Garde', sans-serif; text-anchor: middle" x="50.4" y="289.104375" transform="rotate(-0 50.4 289.104375)">#7</text>
   </g>
   <g id="text_7">
    <text style="font-weight: 700; font-size: 12px; font-family: 'DejaVu Sans', 'Bitstream Vera Sans', 'Computer Modern Sans Serif', 'Lucida Grande', 'Verdana', 'Geneva', 'Lucid', 'Arial', 'Helvetica', 'Avant Garde', sans-serif; text-anchor: middle" x="108" y="289.104375" transform="rotate(-0 108 289.104375)">#13</text>
   </g>
   <g id="text_8">
    <text style="font-size: 12px; font-family: 'DejaVu Sans', 'Bitstream Vera Sans', 'Computer Modern Sans Serif', 'Lucida Grande', 'Verdana', 'Geneva', 'Lucid', 'Arial', 'Helvetica', 'Avant Garde', sans-serif; text-anchor: middle" x="79.2" y="268.449375" transform="rotate(-0 79.2 268.449375)">ns</text>
   </g>
   <g id="line2d_8">
    <path d="M 21.6 122.254909 
L 136.8 122.254909 
" clip-path="url(#p901283f225)" style="fill: none; stroke-dasharray: 3.7,1.6; stroke-dashoffset: 0; stroke: #808080; stroke-opacity: 0.7"/>
   </g>
   <g id="line2d_9">
    <path d="M 21.6 121.368736 
L 136.8 121.368736 
" clip-path="url(#p901283f225)" style="fill: none; stroke-dasharray: 3.7,1.6; stroke-dashoffset: 0; stroke: #808080; stroke-opacity: 0.7"/>
   </g>
   <g id="LineCollection_1">
    <path d="M 50.4 124.07137 
L 50.4 120.438447 
" clip-path="url(#p901283f225)" style="fill: none; stroke: #000000; stroke-width: 2"/>
   </g>
   <g id="line2d_10">
    <defs>
     <path id="m2194c4ca3e" d="M 5 0 
L -5 -0 
" style="stroke: #000000; stroke-width: 2"/>
    </defs>
    <g clip-path="url(#p901283f225)">
     <use xlink:href="#m2194c4ca3e" x="50.4" y="124.07137" style="stroke: #000000; stroke-width: 2"/>
    </g>
   </g>
   <g id="line2d_11">
    <g clip-path="url(#p901283f225)">
     <use xlink:href="#m2194c4ca3e" x="50.4" y="120.438447" style="stroke: #000000; stroke-width: 2"/>
    </g>
   </g>
   <g id="LineCollection_2">
    <path d="M 108 125.870316 
L 108 116.867156 
" clip-path="url(#p901283f225)" style="fill: none; stroke: #000000; stroke-width: 2"/>
   </g>
   <g id="line2d_12">
    <g clip-path="url(#p901283f225)">
     <use xlink:href="#m2194c4ca3e" x="108" y="125.870316" style="stroke: #000000; stroke-width: 2"/>
    </g>
   </g>
   <g id="line2d_13">
    <g clip-path="url(#p901283f225)">
     <use xlink:href="#m2194c4ca3e" x="108" y="116.867156" style="stroke: #000000; stroke-width: 2"/>
    </g>
   </g>
   <g id="line2d_14">
    <defs>
     <path id="mb3adf7b0db" d="M 0 4 
C 1.060812 4 2.078319 3.578535 2.828427 2.828427 
C 3.578535 2.078319 4 1.060812 4 0 
C 4 -1.060812 3.578535 -2.078319 2.828427 -2.828427 
C 2.078319 -3.578535 1.060812 -4 0 -4 
C -1.060812 -4 -2.078319 -3.578535 -2.828427 -2.828427 
C -3.578535 -2.078319 -4 -1.060812 -4 0 
C -4 1.060812 -3.578535 2.078319 -2.828427 2.828427 
C -2.078319 3.578535 -1.060812 4 0 4 
z
" style="stroke: #000000"/>
    </defs>
    <g clip-path="url(#p901283f225)">
     <use xlink:href="#mb3adf7b0db" x="50.4" y="122.254909" style="stroke: #000000"/>
    </g>
   </g>
   <g id="line2d_15">
    <g clip-path="url(#p901283f225)">
     <use xlink:href="#mb3adf7b0db" x="108" y="121.368736" style="stroke: #000000"/>
    </g>
   </g>
  </g>
 </g>
 <defs>
  <clipPath id="p901283f225">
   <rect x="21.6" y="16.2" width="115.2" height="275.4"/>
  </clipPath>
 </defs>
</svg>
