<?xml version="1.0" encoding="utf-8" standalone="no"?>
<!DOCTYPE svg PUBLIC "-//W3C//DTD SVG 1.1//EN"
  "http://www.w3.org/Graphics/SVG/1.1/DTD/svg11.dtd">
<svg xmlns:xlink="http://www.w3.org/1999/xlink" width="144pt" height="324pt" viewBox="0 0 144 324" xmlns="http://www.w3.org/2000/svg" version="1.1">
 <metadata>
  <rdf:RDF xmlns:dc="http://purl.org/dc/elements/1.1/" xmlns:cc="http://creativecommons.org/ns#" xmlns:rdf="http://www.w3.org/1999/02/22-rdf-syntax-ns#">
   <cc:Work>
    <dc:type rdf:resource="http://purl.org/dc/dcmitype/StillImage"/>
    <dc:date>2025-12-11T11:15:01.023251</dc:date>
    <dc:format>image/svg+xml</dc:format>
    <dc:creator>
     <cc:Agent>
      <dc:title>Matplotlib v3.10.3, https://matplotlib.org/</dc:title>
     </cc:Agent>
    </dc:creator>
   </cc:Work>
  </rdf:RDF>
 </metadata>
 <defs>
  <style type="text/css">*{stroke-linejoin: round; stroke-linecap: butt}</style>
 </defs>
 <g id="figure_1">
  <g id="patch_1">
   <path d="M 0 324 
L 144 324 
L 144 0 
L 0 0 
z
" style="fill: #ffffff"/>
  </g>
  <g id="axes_1">
   <g id="patch_2">
    <path d="M 21.6 291.6 
L 136.8 291.6 
L 136.8 16.2 
L 21.6 16.2 
z
" style="fill: #ffffff"/>
   </g>
   <g id="FillBetweenPolyCollection_1">
    <path d="M 50.84902 182.46995 
L 49.95098 182.46995 
L 49.939003 181.478928 
L 49.928382 180.487905 
L 49.916593 179.496883 
L 49.900429 178.50586 
L 49.876129 177.514838 
L 49.839561 176.523816 
L 49.786456 175.532793 
L 49.71268 174.541771 
L 49.614518 173.550748 
L 49.48896 172.559726 
L 49.33396 171.568703 
L 49.148645 170.577681 
L 48.933445 169.586659 
L 48.690141 168.595636 
L 48.421788 167.604614 
L 48.132541 166.613591 
L 47.827367 165.622569 
L 47.511673 164.631546 
L 47.190886 163.640524 
L 46.870014 162.649502 
L 46.553247 161.658479 
L 46.243623 160.667457 
L 45.942816 159.676434 
L 45.651041 158.685412 
L 45.367099 157.694389 
L 45.088538 156.703367 
L 44.811902 155.712344 
L 44.533034 154.721322 
L 44.247392 153.7303 
L 43.950342 152.739277 
L 43.637408 151.748255 
L 43.304469 150.757232 
L 42.947921 149.76621 
L 42.564803 148.775187 
L 42.15293 147.784165 
L 41.711037 146.793143 
L 41.238953 145.80212 
L 40.737791 144.811098 
L 40.210131 143.820075 
L 39.660159 142.829053 
L 39.0937 141.83803 
L 38.518129 140.847008 
L 37.9421 139.855986 
L 37.375108 138.864963 
L 36.826897 137.873941 
L 36.306773 136.882918 
L 35.822902 135.891896 
L 35.381671 134.900873 
L 34.987217 133.909851 
L 34.641185 132.918829 
L 34.342766 131.927806 
L 34.089003 130.936784 
L 33.875356 129.945761 
L 33.696431 128.954739 
L 33.54679 127.963716 
L 33.421746 126.972694 
L 33.318032 125.981672 
L 33.23427 124.990649 
L 33.171191 123.999627 
L 33.131585 123.008604 
L 33.12 122.017582 
L 33.142223 121.026559 
L 33.204628 120.035537 
L 33.313442 119.044515 
L 33.474033 118.053492 
L 33.690284 117.06247 
L 33.964108 116.071447 
L 34.295166 115.080425 
L 34.680799 114.089402 
L 35.116176 113.09838 
L 35.59464 112.107357 
L 36.108204 111.116335 
L 36.64815 110.125313 
L 37.205651 109.13429 
L 37.772365 108.143268 
L 38.340925 107.152245 
L 38.905301 106.161223 
L 39.460981 105.1702 
L 40.004987 104.179178 
L 40.535746 103.188156 
L 41.052824 102.197133 
L 41.55661 101.206111 
L 42.047963 100.215088 
L 42.527897 99.224066 
L 42.997319 98.233043 
L 43.45686 97.242021 
L 43.906789 96.250999 
L 44.347004 95.259976 
L 44.777091 94.268954 
L 45.196405 93.277931 
L 45.604164 92.286909 
L 45.999527 91.295886 
L 46.381643 90.304864 
L 46.749675 89.313842 
L 47.102797 88.322819 
L 47.440174 87.331797 
L 47.76095 86.340774 
L 48.064241 85.349752 
L 48.34915 84.358729 
L 52.45085 84.358729 
L 52.45085 84.358729 
L 52.735759 85.349752 
L 53.03905 86.340774 
L 53.359826 87.331797 
L 53.697203 88.322819 
L 54.050325 89.313842 
L 54.418357 90.304864 
L 54.800473 91.295886 
L 55.195836 92.286909 
L 55.603595 93.277931 
L 56.022909 94.268954 
L 56.452996 95.259976 
L 56.893211 96.250999 
L 57.34314 97.242021 
L 57.802681 98.233043 
L 58.272103 99.224066 
L 58.752037 100.215088 
L 59.24339 101.206111 
L 59.747176 102.197133 
L 60.264254 103.188156 
L 60.795013 104.179178 
L 61.339019 105.1702 
L 61.894699 106.161223 
L 62.459075 107.152245 
L 63.027635 108.143268 
L 63.594349 109.13429 
L 64.15185 110.125313 
L 64.691796 111.116335 
L 65.20536 112.107357 
L 65.683824 113.09838 
L 66.119201 114.089402 
L 66.504834 115.080425 
L 66.835892 116.071447 
L 67.109716 117.06247 
L 67.325967 118.053492 
L 67.486558 119.044515 
L 67.595372 120.035537 
L 67.657777 121.026559 
L 67.68 122.017582 
L 67.668415 123.008604 
L 67.628809 123.999627 
L 67.56573 124.990649 
L 67.481968 125.981672 
L 67.378254 126.972694 
L 67.25321 127.963716 
L 67.103569 128.954739 
L 66.924644 129.945761 
L 66.710997 130.936784 
L 66.457234 131.927806 
L 66.158815 132.918829 
L 65.812783 133.909851 
L 65.418329 134.900873 
L 64.977098 135.891896 
L 64.493227 136.882918 
L 63.973103 137.873941 
L 63.424892 138.864963 
L 62.8579 139.855986 
L 62.281871 140.847008 
L 61.7063 141.83803 
L 61.139841 142.829053 
L 60.589869 143.820075 
L 60.062209 144.811098 
L 59.561047 145.80212 
L 59.088963 146.793143 
L 58.64707 147.784165 
L 58.235197 148.775187 
L 57.852079 149.76621 
L 57.495531 150.757232 
L 57.162592 151.748255 
L 56.849658 152.739277 
L 56.552608 153.7303 
L 56.266966 154.721322 
L 55.988098 155.712344 
L 55.711462 156.703367 
L 55.432901 157.694389 
L 55.148959 158.685412 
L 54.857184 159.676434 
L 54.556377 160.667457 
L 54.246753 161.658479 
L 53.929986 162.649502 
L 53.609114 163.640524 
L 53.288327 164.631546 
L 52.972633 165.622569 
L 52.667459 166.613591 
L 52.378212 167.604614 
L 52.109859 168.595636 
L 51.866555 169.586659 
L 51.651355 170.577681 
L 51.46604 171.568703 
L 51.31104 172.559726 
L 51.185482 173.550748 
L 51.08732 174.541771 
L 51.013544 175.532793 
L 50.960439 176.523816 
L 50.923871 177.514838 
L 50.899571 178.50586 
L 50.883407 179.496883 
L 50.871618 180.487905 
L 50.860997 181.478928 
L 50.84902 182.46995 
L 50.84902 182.46995 
z
" clip-path="url(#p016ec5111e)" style="fill: none; stroke: #000000; stroke-opacity: 0.3"/>
   </g>
   <g id="FillBetweenPolyCollection_2">
    <path d="M 50.845226 200.356849 
L 49.954774 200.356849 
L 49.955468 199.25767 
L 49.963275 198.158492 
L 49.976726 197.059313 
L 49.993724 195.960134 
L 50.011666 194.860955 
L 50.027581 193.761777 
L 50.038294 192.662598 
L 50.040582 191.563419 
L 50.031331 190.46424 
L 50.007656 189.365062 
L 49.967011 188.265883 
L 49.907277 187.166704 
L 49.826831 186.067526 
L 49.724617 184.968347 
L 49.600198 183.869168 
L 49.453817 182.769989 
L 49.286432 181.670811 
L 49.099727 180.571632 
L 48.896085 179.472453 
L 48.678484 178.373274 
L 48.450332 177.274096 
L 48.215206 176.174917 
L 47.976533 175.075738 
L 47.737217 173.976559 
L 47.49926 172.877381 
L 47.263432 171.778202 
L 47.02904 170.679023 
L 46.793841 169.579844 
L 46.554141 168.480666 
L 46.305074 167.381487 
L 46.041061 166.282308 
L 45.756382 165.18313 
L 45.445811 164.083951 
L 45.105234 162.984772 
L 44.73217 161.885593 
L 44.326136 160.786415 
L 43.888811 159.687236 
L 43.423983 158.588057 
L 42.937287 157.488878 
L 42.435769 156.3897 
L 41.927322 155.290521 
L 41.420055 154.191342 
L 40.92166 153.092163 
L 40.438825 151.992985 
L 39.97675 150.893806 
L 39.538798 149.794627 
L 39.126304 148.695448 
L 38.738543 147.59627 
L 38.372873 146.497091 
L 38.025021 145.397912 
L 37.689511 144.298734 
L 37.360206 143.199555 
L 37.030925 142.100376 
L 36.696118 141.001197 
L 36.351552 139.902019 
L 35.994941 138.80284 
L 35.626495 137.703661 
L 35.2493 136.604482 
L 34.86948 135.505304 
L 34.496106 134.406125 
L 34.140805 133.306946 
L 33.817091 132.207767 
L 33.539458 131.108589 
L 33.32231 130.00941 
L 33.178842 128.910231 
L 33.12 127.811053 
L 33.153634 126.711874 
L 33.283965 125.612695 
L 33.511408 124.513516 
L 33.832766 123.414338 
L 34.241754 122.315159 
L 34.729748 121.21598 
L 35.286643 120.116801 
L 35.901689 119.017623 
L 36.564184 117.918444 
L 37.263965 116.819265 
L 37.991638 115.720086 
L 38.7386 114.620908 
L 39.49689 113.521729 
L 40.258965 112.42255 
L 41.01748 111.323371 
L 41.765157 110.224193 
L 42.49478 109.125014 
L 43.199325 108.025835 
L 43.872218 106.926657 
L 44.507651 105.827478 
L 45.100913 104.728299 
L 45.648677 103.62912 
L 46.149177 102.529942 
L 46.602262 101.430763 
L 47.009314 100.331584 
L 47.373037 99.232405 
L 47.697152 98.133227 
L 47.986034 97.034048 
L 48.244329 95.934869 
L 48.476603 94.83569 
L 48.687034 93.736512 
L 48.879199 92.637333 
L 49.055935 91.538154 
L 51.744065 91.538154 
L 51.744065 91.538154 
L 51.920801 92.637333 
L 52.112966 93.736512 
L 52.323397 94.83569 
L 52.555671 95.934869 
L 52.813966 97.034048 
L 53.102848 98.133227 
L 53.426963 99.232405 
L 53.790686 100.331584 
L 54.197738 101.430763 
L 54.650823 102.529942 
L 55.151323 103.62912 
L 55.699087 104.728299 
L 56.292349 105.827478 
L 56.927782 106.926657 
L 57.600675 108.025835 
L 58.30522 109.125014 
L 59.034843 110.224193 
L 59.78252 111.323371 
L 60.541035 112.42255 
L 61.30311 113.521729 
L 62.0614 114.620908 
L 62.808362 115.720086 
L 63.536035 116.819265 
L 64.235816 117.918444 
L 64.898311 119.017623 
L 65.513357 120.116801 
L 66.070252 121.21598 
L 66.558246 122.315159 
L 66.967234 123.414338 
L 67.288592 124.513516 
L 67.516035 125.612695 
L 67.646366 126.711874 
L 67.68 127.811053 
L 67.621158 128.910231 
L 67.47769 130.00941 
L 67.260542 131.108589 
L 66.982909 132.207767 
L 66.659195 133.306946 
L 66.303894 134.406125 
L 65.93052 135.505304 
L 65.5507 136.604482 
L 65.173505 137.703661 
L 64.805059 138.80284 
L 64.448448 139.902019 
L 64.103882 141.001197 
L 63.769075 142.100376 
L 63.439794 143.199555 
L 63.110489 144.298734 
L 62.774979 145.397912 
L 62.427127 146.497091 
L 62.061457 147.59627 
L 61.673696 148.695448 
L 61.261202 149.794627 
L 60.82325 150.893806 
L 60.361175 151.992985 
L 59.87834 153.092163 
L 59.379945 154.191342 
L 58.872678 155.290521 
L 58.364231 156.3897 
L 57.862713 157.488878 
L 57.376017 158.588057 
L 56.911189 159.687236 
L 56.473864 160.786415 
L 56.06783 161.885593 
L 55.694766 162.984772 
L 55.354189 164.083951 
L 55.043618 165.18313 
L 54.758939 166.282308 
L 54.494926 167.381487 
L 54.245859 168.480666 
L 54.006159 169.579844 
L 53.77096 170.679023 
L 53.536568 171.778202 
L 53.30074 172.877381 
L 53.062783 173.976559 
L 52.823467 175.075738 
L 52.584794 176.174917 
L 52.349668 177.274096 
L 52.121516 178.373274 
L 51.903915 179.472453 
L 51.700273 180.571632 
L 51.513568 181.670811 
L 51.346183 182.769989 
L 51.199802 183.869168 
L 51.075383 184.968347 
L 50.973169 186.067526 
L 50.892723 187.166704 
L 50.832989 188.265883 
L 50.792344 189.365062 
L 50.768669 190.46424 
L 50.759418 191.563419 
L 50.761706 192.662598 
L 50.772419 193.761777 
L 50.788334 194.860955 
L 50.806276 195.960134 
L 50.823274 197.059313 
L 50.836725 198.158492 
L 50.844532 199.25767 
L 50.845226 200.356849 
L 50.845226 200.356849 
z
" clip-path="url(#p016ec5111e)" style="fill: none; stroke: #000000; stroke-opacity: 0.3"/>
   </g>
   <g id="FillBetweenPolyCollection_3">
    <path d="M 50.830912 319.710368 
L 49.969088 319.710368 
L 49.975256 317.45566 
L 49.993235 315.200952 
L 50.021526 312.946244 
L 50.057859 310.691536 
L 50.099495 308.436828 
L 50.143566 306.18212 
L 50.187393 303.927412 
L 50.22874 301.672704 
L 50.265967 299.417996 
L 50.298082 297.163288 
L 50.324702 294.90858 
L 50.345945 292.653872 
L 50.362286 290.399164 
L 50.37441 288.144456 
L 50.383079 285.889748 
L 50.38903 283.63504 
L 50.392901 281.380332 
L 50.395191 279.125625 
L 50.396235 276.870917 
L 50.396202 274.616209 
L 50.395085 272.361501 
L 50.392706 270.106793 
L 50.388719 267.852085 
L 50.382615 265.597377 
L 50.373748 263.342669 
L 50.361377 261.087961 
L 50.344739 258.833253 
L 50.323158 256.578545 
L 50.296171 254.323837 
L 50.263682 252.069129 
L 50.226095 249.814421 
L 50.184416 247.559713 
L 50.140282 245.305005 
L 50.095887 243.050297 
L 50.05381 240.795589 
L 50.016736 238.540882 
L 49.987102 236.286174 
L 49.966738 234.031466 
L 49.956534 231.776758 
L 49.956217 229.52205 
L 49.96427 227.267342 
L 49.978021 225.012634 
L 49.99388 222.757926 
L 50.007703 220.503218 
L 50.015213 218.24851 
L 50.012427 215.993802 
L 49.996006 213.739094 
L 49.963503 211.484386 
L 49.913463 209.229678 
L 49.845377 206.97497 
L 49.759504 204.720262 
L 49.6566 202.465554 
L 49.537592 200.210846 
L 49.403252 197.956139 
L 49.253903 195.701431 
L 49.089198 193.446723 
L 48.907956 191.192015 
L 48.708057 188.937307 
L 48.486354 186.682599 
L 48.238578 184.427891 
L 47.959222 182.173183 
L 47.64141 179.918475 
L 47.276833 177.663767 
L 46.855827 175.409059 
L 46.36774 173.154351 
L 45.801678 170.899643 
L 45.147703 168.644935 
L 44.398445 166.390227 
L 43.550969 164.135519 
L 42.608637 161.880811 
L 41.582592 159.626103 
L 40.492495 157.371396 
L 39.366209 155.116688 
L 38.238284 152.86198 
L 37.147322 150.607272 
L 36.132546 148.352564 
L 35.230095 146.097856 
L 34.469676 143.843148 
L 33.872138 141.58844 
L 33.448396 139.333732 
L 33.199833 137.079024 
L 33.12 134.824316 
L 33.197186 132.569608 
L 33.417258 130.3149 
L 33.766163 128.060192 
L 34.231633 125.805484 
L 34.803831 123.550776 
L 35.474971 121.296068 
L 36.238153 119.04136 
L 37.085829 116.786652 
L 38.008316 114.531945 
L 38.992761 112.277237 
L 40.022764 110.022529 
L 41.078757 107.767821 
L 42.139021 105.513113 
L 43.181143 103.258405 
L 44.183627 101.003697 
L 45.127419 98.748989 
L 45.997092 96.494281 
L 54.802908 96.494281 
L 54.802908 96.494281 
L 55.672581 98.748989 
L 56.616373 101.003697 
L 57.618857 103.258405 
L 58.660979 105.513113 
L 59.721243 107.767821 
L 60.777236 110.022529 
L 61.807239 112.277237 
L 62.791684 114.531945 
L 63.714171 116.786652 
L 64.561847 119.04136 
L 65.325029 121.296068 
L 65.996169 123.550776 
L 66.568367 125.805484 
L 67.033837 128.060192 
L 67.382742 130.3149 
L 67.602814 132.569608 
L 67.68 134.824316 
L 67.600167 137.079024 
L 67.351604 139.333732 
L 66.927862 141.58844 
L 66.330324 143.843148 
L 65.569905 146.097856 
L 64.667454 148.352564 
L 63.652678 150.607272 
L 62.561716 152.86198 
L 61.433791 155.116688 
L 60.307505 157.371396 
L 59.217408 159.626103 
L 58.191363 161.880811 
L 57.249031 164.135519 
L 56.401555 166.390227 
L 55.652297 168.644935 
L 54.998322 170.899643 
L 54.43226 173.154351 
L 53.944173 175.409059 
L 53.523167 177.663767 
L 53.15859 179.918475 
L 52.840778 182.173183 
L 52.561422 184.427891 
L 52.313646 186.682599 
L 52.091943 188.937307 
L 51.892044 191.192015 
L 51.710802 193.446723 
L 51.546097 195.701431 
L 51.396748 197.956139 
L 51.262408 200.210846 
L 51.1434 202.465554 
L 51.040496 204.720262 
L 50.954623 206.97497 
L 50.886537 209.229678 
L 50.836497 211.484386 
L 50.803994 213.739094 
L 50.787573 215.993802 
L 50.784787 218.24851 
L 50.792297 220.503218 
L 50.80612 222.757926 
L 50.821979 225.012634 
L 50.83573 227.267342 
L 50.843783 229.52205 
L 50.843466 231.776758 
L 50.833262 234.031466 
L 50.812898 236.286174 
L 50.783264 238.540882 
L 50.74619 240.795589 
L 50.704113 243.050297 
L 50.659718 245.305005 
L 50.615584 247.559713 
L 50.573905 249.814421 
L 50.536318 252.069129 
L 50.503829 254.323837 
L 50.476842 256.578545 
L 50.455261 258.833253 
L 50.438623 261.087961 
L 50.426252 263.342669 
L 50.417385 265.597377 
L 50.411281 267.852085 
L 50.407294 270.106793 
L 50.404915 272.361501 
L 50.403798 274.616209 
L 50.403765 276.870917 
L 50.404809 279.125625 
L 50.407099 281.380332 
L 50.41097 283.63504 
L 50.416921 285.889748 
L 50.42559 288.144456 
L 50.437714 290.399164 
L 50.454055 292.653872 
L 50.475298 294.90858 
L 50.501918 297.163288 
L 50.534033 299.417996 
L 50.57126 301.672704 
L 50.612607 303.927412 
L 50.656434 306.18212 
L 50.700505 308.436828 
L 50.742141 310.691536 
L 50.778474 312.946244 
L 50.806765 315.200952 
L 50.824744 317.45566 
L 50.830912 319.710368 
L 50.830912 319.710368 
z
" clip-path="url(#p016ec5111e)" style="fill: none; stroke: #000000; stroke-opacity: 0.3"/>
   </g>
   <g id="FillBetweenPolyCollection_4">
    <path d="M 50.741958 236.219274 
L 50.058042 236.219274 
L 50.064722 234.568632 
L 50.08399 232.917989 
L 50.113674 231.267347 
L 50.150606 229.616704 
L 50.191179 227.966062 
L 50.231915 226.315419 
L 50.26994 224.664777 
L 50.303255 223.014134 
L 50.330821 221.363492 
L 50.352446 219.71285 
L 50.368574 218.062207 
L 50.380032 216.411565 
L 50.387794 214.760922 
L 50.392803 213.11028 
L 50.395864 211.459637 
L 50.397586 209.808995 
L 50.398365 208.158352 
L 50.398381 206.50771 
L 50.397583 204.857067 
L 50.395651 203.206425 
L 50.391921 201.555782 
L 50.385279 199.90514 
L 50.374029 198.254498 
L 50.355763 196.603855 
L 50.327277 194.953213 
L 50.284591 193.30257 
L 50.223121 191.651928 
L 50.138055 190.001285 
L 50.024942 188.350643 
L 49.880431 186.7 
L 49.703059 185.049358 
L 49.493897 183.398715 
L 49.256857 181.748073 
L 48.998464 180.09743 
L 48.726984 178.446788 
L 48.450933 176.796146 
L 48.177141 175.145503 
L 47.908705 173.494861 
L 47.64328 171.844218 
L 47.372127 170.193576 
L 47.08029 168.542933 
L 46.748033 166.892291 
L 46.353431 165.241648 
L 45.875743 163.591006 
L 45.299026 161.940363 
L 44.615381 160.289721 
L 43.827281 158.639079 
L 42.948564 156.988436 
L 42.003881 155.337794 
L 41.026567 153.687151 
L 40.055074 152.036509 
L 39.128322 150.385866 
L 38.280531 148.735224 
L 37.536334 147.084581 
L 36.907098 145.433939 
L 36.389355 143.783296 
L 35.965949 142.132654 
L 35.60994 140.482011 
L 35.290638 138.831369 
L 34.980512 137.180727 
L 34.661412 135.530084 
L 34.328633 133.879442 
L 33.991902 132.228799 
L 33.673154 130.578157 
L 33.401766 128.927514 
L 33.208554 127.276872 
L 33.12 125.626229 
L 33.154018 123.975587 
L 33.318033 122.324944 
L 33.609502 120.674302 
L 34.018411 119.02366 
L 34.530858 117.373017 
L 35.132673 115.722375 
L 35.81216 114.071732 
L 36.561344 112.42109 
L 37.375565 110.770447 
L 38.25166 109.119805 
L 39.185339 107.469162 
L 40.168506 105.81852 
L 41.187272 104.167877 
L 42.221225 102.517235 
L 43.244223 100.866592 
L 44.226643 99.21595 
L 45.138697 97.565308 
L 45.954186 95.914665 
L 46.653968 94.264023 
L 47.22845 92.61338 
L 47.678621 90.962738 
L 48.015451 89.312095 
L 48.257795 87.661453 
L 48.429273 86.01081 
L 48.554738 84.360168 
L 48.656996 82.709525 
L 48.754336 81.058883 
L 48.85916 79.40824 
L 48.977775 77.757598 
L 49.111144 76.106956 
L 49.256252 74.456313 
L 49.407699 72.805671 
L 51.392301 72.805671 
L 51.392301 72.805671 
L 51.543748 74.456313 
L 51.688856 76.106956 
L 51.822225 77.757598 
L 51.94084 79.40824 
L 52.045664 81.058883 
L 52.143004 82.709525 
L 52.245262 84.360168 
L 52.370727 86.01081 
L 52.542205 87.661453 
L 52.784549 89.312095 
L 53.121379 90.962738 
L 53.57155 92.61338 
L 54.146032 94.264023 
L 54.845814 95.914665 
L 55.661303 97.565308 
L 56.573357 99.21595 
L 57.555777 100.866592 
L 58.578775 102.517235 
L 59.612728 104.167877 
L 60.631494 105.81852 
L 61.614661 107.469162 
L 62.54834 109.119805 
L 63.424435 110.770447 
L 64.238656 112.42109 
L 64.98784 114.071732 
L 65.667327 115.722375 
L 66.269142 117.373017 
L 66.781589 119.02366 
L 67.190498 120.674302 
L 67.481967 122.324944 
L 67.645982 123.975587 
L 67.68 125.626229 
L 67.591446 127.276872 
L 67.398234 128.927514 
L 67.126846 130.578157 
L 66.808098 132.228799 
L 66.471367 133.879442 
L 66.138588 135.530084 
L 65.819488 137.180727 
L 65.509362 138.831369 
L 65.19006 140.482011 
L 64.834051 142.132654 
L 64.410645 143.783296 
L 63.892902 145.433939 
L 63.263666 147.084581 
L 62.519469 148.735224 
L 61.671678 150.385866 
L 60.744926 152.036509 
L 59.773433 153.687151 
L 58.796119 155.337794 
L 57.851436 156.988436 
L 56.972719 158.639079 
L 56.184619 160.289721 
L 55.500974 161.940363 
L 54.924257 163.591006 
L 54.446569 165.241648 
L 54.051967 166.892291 
L 53.71971 168.542933 
L 53.427873 170.193576 
L 53.15672 171.844218 
L 52.891295 173.494861 
L 52.622859 175.145503 
L 52.349067 176.796146 
L 52.073016 178.446788 
L 51.801536 180.09743 
L 51.543143 181.748073 
L 51.306103 183.398715 
L 51.096941 185.049358 
L 50.919569 186.7 
L 50.775058 188.350643 
L 50.661945 190.001285 
L 50.576879 191.651928 
L 50.515409 193.30257 
L 50.472723 194.953213 
L 50.444237 196.603855 
L 50.425971 198.254498 
L 50.414721 199.90514 
L 50.408079 201.555782 
L 50.404349 203.206425 
L 50.402417 204.857067 
L 50.401619 206.50771 
L 50.401635 208.158352 
L 50.402414 209.808995 
L 50.404136 211.459637 
L 50.407197 213.11028 
L 50.412206 214.760922 
L 50.419968 216.411565 
L 50.431426 218.062207 
L 50.447554 219.71285 
L 50.469179 221.363492 
L 50.496745 223.014134 
L 50.53006 224.664777 
L 50.568085 226.315419 
L 50.608821 227.966062 
L 50.649394 229.616704 
L 50.686326 231.267347 
L 50.71601 232.917989 
L 50.735278 234.568632 
L 50.741958 236.219274 
L 50.741958 236.219274 
z
" clip-path="url(#p016ec5111e)" style="fill: none; stroke: #000000; stroke-opacity: 0.3"/>
   </g>
   <g id="FillBetweenPolyCollection_5">
    <path d="M 112.181533 173.319019 
L 103.818467 173.319019 
L 103.592514 172.674853 
L 103.371975 172.030687 
L 103.157932 171.386521 
L 102.951325 170.742355 
L 102.752947 170.098188 
L 102.563441 169.454022 
L 102.383302 168.809856 
L 102.212875 168.16569 
L 102.052356 167.521524 
L 101.901792 166.877357 
L 101.761072 166.233191 
L 101.629919 165.589025 
L 101.507878 164.944859 
L 101.394297 164.300693 
L 101.288307 163.656527 
L 101.1888 163.01236 
L 101.094415 162.368194 
L 101.003515 161.724028 
L 100.914183 161.079862 
L 100.824221 160.435696 
L 100.731163 159.791529 
L 100.632306 159.147363 
L 100.524745 158.503197 
L 100.405443 157.859031 
L 100.271298 157.214865 
L 100.119242 156.570698 
L 99.946334 155.926532 
L 99.74988 155.282366 
L 99.527539 154.6382 
L 99.277443 153.994034 
L 98.998298 153.349867 
L 98.689483 152.705701 
L 98.351119 152.061535 
L 97.984126 151.417369 
L 97.59025 150.773203 
L 97.172053 150.129037 
L 96.732886 149.48487 
L 96.276819 148.840704 
L 95.80855 148.196538 
L 95.33328 147.552372 
L 94.856579 146.908206 
L 94.384223 146.264039 
L 93.922033 145.619873 
L 93.475705 144.975707 
L 93.050653 144.331541 
L 92.651859 143.687375 
L 92.283743 143.043208 
L 91.95006 142.399042 
L 91.653826 141.754876 
L 91.397269 141.11071 
L 91.181819 140.466544 
L 91.008128 139.822378 
L 90.876114 139.178211 
L 90.785035 138.534045 
L 90.733586 137.889879 
L 90.72 137.245713 
L 90.742171 136.601547 
L 90.79777 135.95738 
L 90.88436 135.313214 
L 90.999507 134.669048 
L 91.140865 134.024882 
L 91.306259 133.380716 
L 91.493738 132.736549 
L 91.701614 132.092383 
L 91.928471 131.448217 
L 92.173171 130.804051 
L 92.434827 130.159885 
L 92.712771 129.515718 
L 93.006508 128.871552 
L 93.315668 128.227386 
L 93.639946 127.58322 
L 93.979047 126.939054 
L 94.33264 126.294888 
L 94.700301 125.650721 
L 95.081486 125.006555 
L 95.475492 124.362389 
L 95.881443 123.718223 
L 96.298276 123.074057 
L 96.724748 122.42989 
L 97.15944 121.785724 
L 97.600776 121.141558 
L 98.04705 120.497392 
L 98.496453 119.853226 
L 98.947108 119.209059 
L 99.397106 118.564893 
L 99.844543 117.920727 
L 100.287553 117.276561 
L 100.724343 116.632395 
L 101.153224 115.988229 
L 101.572633 115.344062 
L 101.981158 114.699896 
L 102.377551 114.05573 
L 102.760739 113.411564 
L 103.12983 112.767398 
L 103.484108 112.123231 
L 103.823034 111.479065 
L 104.146234 110.834899 
L 104.453485 110.190733 
L 104.744703 109.546567 
L 111.255297 109.546567 
L 111.255297 109.546567 
L 111.546515 110.190733 
L 111.853766 110.834899 
L 112.176966 111.479065 
L 112.515892 112.123231 
L 112.87017 112.767398 
L 113.239261 113.411564 
L 113.622449 114.05573 
L 114.018842 114.699896 
L 114.427367 115.344062 
L 114.846776 115.988229 
L 115.275657 116.632395 
L 115.712447 117.276561 
L 116.155457 117.920727 
L 116.602894 118.564893 
L 117.052892 119.209059 
L 117.503547 119.853226 
L 117.95295 120.497392 
L 118.399224 121.141558 
L 118.84056 121.785724 
L 119.275252 122.42989 
L 119.701724 123.074057 
L 120.118557 123.718223 
L 120.524508 124.362389 
L 120.918514 125.006555 
L 121.299699 125.650721 
L 121.66736 126.294888 
L 122.020953 126.939054 
L 122.360054 127.58322 
L 122.684332 128.227386 
L 122.993492 128.871552 
L 123.287229 129.515718 
L 123.565173 130.159885 
L 123.826829 130.804051 
L 124.071529 131.448217 
L 124.298386 132.092383 
L 124.506262 132.736549 
L 124.693741 133.380716 
L 124.859135 134.024882 
L 125.000493 134.669048 
L 125.11564 135.313214 
L 125.20223 135.95738 
L 125.257829 136.601547 
L 125.28 137.245713 
L 125.266414 137.889879 
L 125.214965 138.534045 
L 125.123886 139.178211 
L 124.991872 139.822378 
L 124.818181 140.466544 
L 124.602731 141.11071 
L 124.346174 141.754876 
L 124.04994 142.399042 
L 123.716257 143.043208 
L 123.348141 143.687375 
L 122.949347 144.331541 
L 122.524295 144.975707 
L 122.077967 145.619873 
L 121.615777 146.264039 
L 121.143421 146.908206 
L 120.66672 147.552372 
L 120.19145 148.196538 
L 119.723181 148.840704 
L 119.267114 149.48487 
L 118.827947 150.129037 
L 118.40975 150.773203 
L 118.015874 151.417369 
L 117.648881 152.061535 
L 117.310517 152.705701 
L 117.001702 153.349867 
L 116.722557 153.994034 
L 116.472461 154.6382 
L 116.25012 155.282366 
L 116.053666 155.926532 
L 115.880758 156.570698 
L 115.728702 157.214865 
L 115.594557 157.859031 
L 115.475255 158.503197 
L 115.367694 159.147363 
L 115.268837 159.791529 
L 115.175779 160.435696 
L 115.085817 161.079862 
L 114.996485 161.724028 
L 114.905585 162.368194 
L 114.8112 163.01236 
L 114.711693 163.656527 
L 114.605703 164.300693 
L 114.492122 164.944859 
L 114.370081 165.589025 
L 114.238928 166.233191 
L 114.098208 166.877357 
L 113.947644 167.521524 
L 113.787125 168.16569 
L 113.616698 168.809856 
L 113.436559 169.454022 
L 113.247053 170.098188 
L 113.048675 170.742355 
L 112.842068 171.386521 
L 112.628025 172.030687 
L 112.407486 172.674853 
L 112.181533 173.319019 
L 112.181533 173.319019 
z
" clip-path="url(#p016ec5111e)" style="fill: none; stroke: #000000; stroke-opacity: 0.3"/>
   </g>
   <g id="FillBetweenPolyCollection_6">
    <path d="M 111.026569 191.718602 
L 104.973431 191.718602 
L 104.84165 190.865086 
L 104.711366 190.011569 
L 104.582161 189.158052 
L 104.453454 188.304535 
L 104.324515 187.451018 
L 104.194485 186.597502 
L 104.062403 185.743985 
L 103.927231 184.890468 
L 103.787892 184.036951 
L 103.643295 183.183434 
L 103.492372 182.329918 
L 103.334105 181.476401 
L 103.167556 180.622884 
L 102.991885 179.769367 
L 102.80637 178.91585 
L 102.610422 178.062334 
L 102.403584 177.208817 
L 102.185541 176.3553 
L 101.956108 175.501783 
L 101.715226 174.648266 
L 101.462951 173.79475 
L 101.199444 172.941233 
L 100.924952 172.087716 
L 100.639801 171.234199 
L 100.344385 170.380682 
L 100.039159 169.527166 
L 99.724635 168.673649 
L 99.401381 167.820132 
L 99.07003 166.966615 
L 98.731281 166.113098 
L 98.385913 165.259582 
L 98.034793 164.406065 
L 97.678887 163.552548 
L 97.319272 162.699031 
L 96.957138 161.845514 
L 96.593789 160.991998 
L 96.230644 160.138481 
L 95.869223 159.284964 
L 95.511129 158.431447 
L 95.158028 157.57793 
L 94.811616 156.724414 
L 94.473585 155.870897 
L 94.145588 155.01738 
L 93.829193 154.163863 
L 93.525849 153.310346 
L 93.236842 152.45683 
L 92.963269 151.603313 
L 92.706006 150.749796 
L 92.465691 149.896279 
L 92.242715 149.042762 
L 92.037221 148.189246 
L 91.849119 147.335729 
L 91.678103 146.482212 
L 91.523683 145.628695 
L 91.385221 144.775178 
L 91.26198 143.921662 
L 91.153161 143.068145 
L 91.057963 142.214628 
L 90.975621 141.361111 
L 90.905451 140.507594 
L 90.846891 139.654078 
L 90.799529 138.800561 
L 90.763124 137.947044 
L 90.73762 137.093527 
L 90.723143 136.24001 
L 90.72 135.386494 
L 90.72866 134.532977 
L 90.74973 133.67946 
L 90.783925 132.825943 
L 90.832038 131.972426 
L 90.894902 131.11891 
L 90.973352 130.265393 
L 91.068198 129.411876 
L 91.180187 128.558359 
L 91.309983 127.704843 
L 91.458143 126.851326 
L 91.625101 125.997809 
L 91.811164 125.144292 
L 92.016504 124.290775 
L 92.241165 123.437259 
L 92.485064 122.583742 
L 92.748 121.730225 
L 93.029669 120.876708 
L 93.329669 120.023191 
L 93.647516 119.169675 
L 93.982643 118.316158 
L 94.334414 117.462641 
L 94.702124 116.609124 
L 95.084995 115.755607 
L 95.482177 114.902091 
L 95.892738 114.048574 
L 96.315661 113.195057 
L 96.749829 112.34154 
L 97.194023 111.488023 
L 97.646911 110.634507 
L 98.107045 109.78099 
L 98.572862 108.927473 
L 99.042682 108.073956 
L 99.514722 107.220439 
L 116.485278 107.220439 
L 116.485278 107.220439 
L 116.957318 108.073956 
L 117.427138 108.927473 
L 117.892955 109.78099 
L 118.353089 110.634507 
L 118.805977 111.488023 
L 119.250171 112.34154 
L 119.684339 113.195057 
L 120.107262 114.048574 
L 120.517823 114.902091 
L 120.915005 115.755607 
L 121.297876 116.609124 
L 121.665586 117.462641 
L 122.017357 118.316158 
L 122.352484 119.169675 
L 122.670331 120.023191 
L 122.970331 120.876708 
L 123.252 121.730225 
L 123.514936 122.583742 
L 123.758835 123.437259 
L 123.983496 124.290775 
L 124.188836 125.144292 
L 124.374899 125.997809 
L 124.541857 126.851326 
L 124.690017 127.704843 
L 124.819813 128.558359 
L 124.931802 129.411876 
L 125.026648 130.265393 
L 125.105098 131.11891 
L 125.167962 131.972426 
L 125.216075 132.825943 
L 125.25027 133.67946 
L 125.27134 134.532977 
L 125.28 135.386494 
L 125.276857 136.24001 
L 125.26238 137.093527 
L 125.236876 137.947044 
L 125.200471 138.800561 
L 125.153109 139.654078 
L 125.094549 140.507594 
L 125.024379 141.361111 
L 124.942037 142.214628 
L 124.846839 143.068145 
L 124.73802 143.921662 
L 124.614779 144.775178 
L 124.476317 145.628695 
L 124.321897 146.482212 
L 124.150881 147.335729 
L 123.962779 148.189246 
L 123.757285 149.042762 
L 123.534309 149.896279 
L 123.293994 150.749796 
L 123.036731 151.603313 
L 122.763158 152.45683 
L 122.474151 153.310346 
L 122.170807 154.163863 
L 121.854412 155.01738 
L 121.526415 155.870897 
L 121.188384 156.724414 
L 120.841972 157.57793 
L 120.488871 158.431447 
L 120.130777 159.284964 
L 119.769356 160.138481 
L 119.406211 160.991998 
L 119.042862 161.845514 
L 118.680728 162.699031 
L 118.321113 163.552548 
L 117.965207 164.406065 
L 117.614087 165.259582 
L 117.268719 166.113098 
L 116.92997 166.966615 
L 116.598619 167.820132 
L 116.275365 168.673649 
L 115.960841 169.527166 
L 115.655615 170.380682 
L 115.360199 171.234199 
L 115.075048 172.087716 
L 114.800556 172.941233 
L 114.537049 173.79475 
L 114.284774 174.648266 
L 114.043892 175.501783 
L 113.814459 176.3553 
L 113.596416 177.208817 
L 113.389578 178.062334 
L 113.19363 178.91585 
L 113.008115 179.769367 
L 112.832444 180.622884 
L 112.665895 181.476401 
L 112.507628 182.329918 
L 112.356705 183.183434 
L 112.212108 184.036951 
L 112.072769 184.890468 
L 111.937597 185.743985 
L 111.805515 186.597502 
L 111.675485 187.451018 
L 111.546546 188.304535 
L 111.417839 189.158052 
L 111.288634 190.011569 
L 111.15835 190.865086 
L 111.026569 191.718602 
L 111.026569 191.718602 
z
" clip-path="url(#p016ec5111e)" style="fill: none; stroke: #000000; stroke-opacity: 0.3"/>
   </g>
   <g id="FillBetweenPolyCollection_7">
    <path d="M 108.814118 202.835876 
L 107.185882 202.835876 
L 107.172016 201.793883 
L 107.161222 200.751889 
L 107.151606 199.709896 
L 107.140774 198.667903 
L 107.125883 197.625909 
L 107.103718 196.583916 
L 107.070789 195.541922 
L 107.023459 194.499929 
L 106.958077 193.457936 
L 106.871127 192.415942 
L 106.759383 191.373949 
L 106.620054 190.331955 
L 106.450924 189.289962 
L 106.250467 188.247969 
L 106.017936 187.205975 
L 105.753415 186.163982 
L 105.457833 185.121989 
L 105.132931 184.079995 
L 104.781182 183.038002 
L 104.405674 181.996008 
L 104.009956 180.954015 
L 103.597851 179.912022 
L 103.17326 178.870028 
L 102.739964 177.828035 
L 102.301434 176.786041 
L 101.860677 175.744048 
L 101.420103 174.702055 
L 100.981455 173.660061 
L 100.545776 172.618068 
L 100.113434 171.576075 
L 99.684181 170.534081 
L 99.257269 169.492088 
L 98.831575 168.450094 
L 98.405759 167.408101 
L 97.978422 166.366108 
L 97.548264 165.324114 
L 97.114233 164.282121 
L 96.675652 163.240127 
L 96.232335 162.198134 
L 95.784674 161.156141 
L 95.333705 160.114147 
L 94.881153 159.072154 
L 94.429454 158.030161 
L 93.98175 156.988167 
L 93.541867 155.946174 
L 93.11426 154.90418 
L 92.703944 153.862187 
L 92.316384 152.820194 
L 91.957371 151.7782 
L 91.63287 150.736207 
L 91.348842 149.694213 
L 91.111056 148.65222 
L 90.924895 147.610227 
L 90.795148 146.568233 
L 90.725829 145.52624 
L 90.72 144.484247 
L 90.779626 143.442253 
L 90.90547 142.40026 
L 91.097018 141.358266 
L 91.352465 140.316273 
L 91.668731 139.27428 
L 92.041541 138.232286 
L 92.465535 137.190293 
L 92.934425 136.1483 
L 93.441181 135.106306 
L 93.978241 134.064313 
L 94.537737 133.022319 
L 95.111722 131.980326 
L 95.692401 130.938333 
L 96.272343 129.896339 
L 96.844669 128.854346 
L 97.403222 127.812352 
L 97.942694 126.770359 
L 98.458723 125.728366 
L 98.947944 124.686372 
L 99.408003 123.644379 
L 99.837541 122.602386 
L 100.236131 121.560392 
L 100.604197 120.518399 
L 100.942903 119.476405 
L 101.254039 118.434412 
L 101.539883 117.392419 
L 101.803078 116.350425 
L 102.046503 115.308432 
L 102.273166 114.266438 
L 102.486097 113.224445 
L 102.688267 112.182452 
L 102.882517 111.140458 
L 103.0715 110.098465 
L 103.257632 109.056472 
L 103.443056 108.014478 
L 103.629602 106.972485 
L 103.818762 105.930491 
L 104.011662 104.888498 
L 104.209036 103.846505 
L 104.411217 102.804511 
L 104.618121 101.762518 
L 104.82926 100.720524 
L 105.043759 99.678531 
L 110.956241 99.678531 
L 110.956241 99.678531 
L 111.17074 100.720524 
L 111.381879 101.762518 
L 111.588783 102.804511 
L 111.790964 103.846505 
L 111.988338 104.888498 
L 112.181238 105.930491 
L 112.370398 106.972485 
L 112.556944 108.014478 
L 112.742368 109.056472 
L 112.9285 110.098465 
L 113.117483 111.140458 
L 113.311733 112.182452 
L 113.513903 113.224445 
L 113.726834 114.266438 
L 113.953497 115.308432 
L 114.196922 116.350425 
L 114.460117 117.392419 
L 114.745961 118.434412 
L 115.057097 119.476405 
L 115.395803 120.518399 
L 115.763869 121.560392 
L 116.162459 122.602386 
L 116.591997 123.644379 
L 117.052056 124.686372 
L 117.541277 125.728366 
L 118.057306 126.770359 
L 118.596778 127.812352 
L 119.155331 128.854346 
L 119.727657 129.896339 
L 120.307599 130.938333 
L 120.888278 131.980326 
L 121.462263 133.022319 
L 122.021759 134.064313 
L 122.558819 135.106306 
L 123.065575 136.1483 
L 123.534465 137.190293 
L 123.958459 138.232286 
L 124.331269 139.27428 
L 124.647535 140.316273 
L 124.902982 141.358266 
L 125.09453 142.40026 
L 125.220374 143.442253 
L 125.28 144.484247 
L 125.274171 145.52624 
L 125.204852 146.568233 
L 125.075105 147.610227 
L 124.888944 148.65222 
L 124.651158 149.694213 
L 124.36713 150.736207 
L 124.042629 151.7782 
L 123.683616 152.820194 
L 123.296056 153.862187 
L 122.88574 154.90418 
L 122.458133 155.946174 
L 122.01825 156.988167 
L 121.570546 158.030161 
L 121.118847 159.072154 
L 120.666295 160.114147 
L 120.215326 161.156141 
L 119.767665 162.198134 
L 119.324348 163.240127 
L 118.885767 164.282121 
L 118.451736 165.324114 
L 118.021578 166.366108 
L 117.594241 167.408101 
L 117.168425 168.450094 
L 116.742731 169.492088 
L 116.315819 170.534081 
L 115.886566 171.576075 
L 115.454224 172.618068 
L 115.018545 173.660061 
L 114.579897 174.702055 
L 114.139323 175.744048 
L 113.698566 176.786041 
L 113.260036 177.828035 
L 112.82674 178.870028 
L 112.402149 179.912022 
L 111.990044 180.954015 
L 111.594326 181.996008 
L 111.218818 183.038002 
L 110.867069 184.079995 
L 110.542167 185.121989 
L 110.246585 186.163982 
L 109.982064 187.205975 
L 109.749533 188.247969 
L 109.549076 189.289962 
L 109.379946 190.331955 
L 109.240617 191.373949 
L 109.128873 192.415942 
L 109.041923 193.457936 
L 108.976541 194.499929 
L 108.929211 195.541922 
L 108.896282 196.583916 
L 108.874117 197.625909 
L 108.859226 198.667903 
L 108.848394 199.709896 
L 108.838778 200.751889 
L 108.827984 201.793883 
L 108.814118 202.835876 
L 108.814118 202.835876 
z
" clip-path="url(#p016ec5111e)" style="fill: none; stroke: #000000; stroke-opacity: 0.3"/>
   </g>
   <g id="FillBetweenPolyCollection_8">
    <path d="M 107.667727 325 
L 107.696557 323.360004 
L 107.739165 321.085152 
L 107.781875 318.810301 
L 107.822541 316.53545 
L 107.859543 314.260598 
L 107.891846 311.985747 
L 107.91898 309.710896 
L 107.940954 307.436045 
L 107.958135 305.161193 
L 107.971123 302.886342 
L 107.980622 300.611491 
L 107.987349 298.336639 
L 107.991965 296.061788 
L 107.995035 293.786937 
L 107.997015 291.512085 
L 107.998255 289.237234 
L 107.999007 286.962383 
L 107.99945 284.687531 
L 107.999703 282.41268 
L 107.999844 280.137829 
L 107.999918 277.862978 
L 107.999954 275.588126 
L 107.999966 273.313275 
L 107.999959 271.038424 
L 107.999928 268.763572 
L 107.999859 266.488721 
L 107.999722 264.21387 
L 107.999461 261.939018 
L 107.998978 259.664167 
L 107.998112 257.389316 
L 107.9966 255.114464 
L 107.99403 252.839613 
L 107.989779 250.564762 
L 107.982937 248.289911 
L 107.972225 246.015059 
L 107.955905 243.740208 
L 107.931724 241.465357 
L 107.896879 239.190505 
L 107.848057 236.915654 
L 107.781564 234.640803 
L 107.693567 232.365951 
L 107.580447 230.0911 
L 107.439263 227.816249 
L 107.268279 225.541397 
L 107.067482 223.266546 
L 106.839019 220.991695 
L 106.587437 218.716844 
L 106.319648 216.441992 
L 106.044567 214.167141 
L 105.772388 211.89229 
L 105.51356 209.617438 
L 105.277559 207.342587 
L 105.071589 205.067736 
L 104.899397 202.792884 
L 104.760368 200.518033 
L 104.649044 198.243182 
L 104.555172 195.96833 
L 104.464318 193.693479 
L 104.359006 191.418628 
L 104.220299 189.143777 
L 104.029629 186.868925 
L 103.770672 184.594074 
L 103.431026 182.319223 
L 103.003445 180.044371 
L 102.486437 177.76952 
L 101.884146 175.494669 
L 101.20551 173.219817 
L 100.462866 170.944966 
L 99.670259 168.670115 
L 98.841811 166.395263 
L 97.990477 164.120412 
L 97.127483 161.845561 
L 96.262563 159.57071 
L 95.404939 157.295858 
L 94.56481 155.021007 
L 93.754958 152.746156 
L 92.992024 150.471304 
L 92.297055 148.196453 
L 91.695066 145.921602 
L 91.213564 143.64675 
L 90.880212 141.371899 
L 90.72 139.097048 
L 90.752403 136.822197 
L 90.988989 134.547345 
L 91.431848 132.272494 
L 92.073053 129.997643 
L 92.895145 127.722791 
L 93.872501 125.44794 
L 94.973307 123.173089 
L 96.161856 120.898237 
L 97.400884 118.623386 
L 98.653749 116.348535 
L 99.886324 114.073683 
L 101.068519 111.798832 
L 102.17541 109.523981 
L 113.82459 109.523981 
L 113.82459 109.523981 
L 114.931481 111.798832 
L 116.113676 114.073683 
L 117.346251 116.348535 
L 118.599116 118.623386 
L 119.838144 120.898237 
L 121.026693 123.173089 
L 122.127499 125.44794 
L 123.104855 127.722791 
L 123.926947 129.997643 
L 124.568152 132.272494 
L 125.011011 134.547345 
L 125.247597 136.822197 
L 125.28 139.097048 
L 125.119788 141.371899 
L 124.786436 143.64675 
L 124.304934 145.921602 
L 123.702945 148.196453 
L 123.007976 150.471304 
L 122.245042 152.746156 
L 121.43519 155.021007 
L 120.595061 157.295858 
L 119.737437 159.57071 
L 118.872517 161.845561 
L 118.009523 164.120412 
L 117.158189 166.395263 
L 116.329741 168.670115 
L 115.537134 170.944966 
L 114.79449 173.219817 
L 114.115854 175.494669 
L 113.513563 177.76952 
L 112.996555 180.044371 
L 112.568974 182.319223 
L 112.229328 184.594074 
L 111.970371 186.868925 
L 111.779701 189.143777 
L 111.640994 191.418628 
L 111.535682 193.693479 
L 111.444828 195.96833 
L 111.350956 198.243182 
L 111.239632 200.518033 
L 111.100603 202.792884 
L 110.928411 205.067736 
L 110.722441 207.342587 
L 110.48644 209.617438 
L 110.227612 211.89229 
L 109.955433 214.167141 
L 109.680352 216.441992 
L 109.412563 218.716844 
L 109.160981 220.991695 
L 108.932518 223.266546 
L 108.731721 225.541397 
L 108.560737 227.816249 
L 108.419553 230.0911 
L 108.306433 232.365951 
L 108.218436 234.640803 
L 108.151943 236.915654 
L 108.103121 239.190505 
L 108.068276 241.465357 
L 108.044095 243.740208 
L 108.027775 246.015059 
L 108.017063 248.289911 
L 108.010221 250.564762 
L 108.00597 252.839613 
L 108.0034 255.114464 
L 108.001888 257.389316 
L 108.001022 259.664167 
L 108.000539 261.939018 
L 108.000278 264.21387 
L 108.000141 266.488721 
L 108.000072 268.763572 
L 108.000041 271.038424 
L 108.000034 273.313275 
L 108.000046 275.588126 
L 108.000082 277.862978 
L 108.000156 280.137829 
L 108.000297 282.41268 
L 108.00055 284.687531 
L 108.000993 286.962383 
L 108.001745 289.237234 
L 108.002985 291.512085 
L 108.004965 293.786937 
L 108.008035 296.061788 
L 108.012651 298.336639 
L 108.019378 300.611491 
L 108.028877 302.886342 
L 108.041865 305.161193 
L 108.059046 307.436045 
L 108.08102 309.710896 
L 108.108154 311.985747 
L 108.140457 314.260598 
L 108.177459 316.53545 
L 108.218125 318.810301 
L 108.260835 321.085152 
L 108.303443 323.360004 
L 108.332273 325 
" clip-path="url(#p016ec5111e)" style="fill: none; stroke: #000000; stroke-opacity: 0.3"/>
   </g>
   <g id="FillBetweenPolyCollection_9">
    <path d="M 110.601524 188.342922 
L 105.398476 188.342922 
L 105.252997 187.656062 
L 105.109404 186.969202 
L 104.967944 186.282342 
L 104.828658 185.595482 
L 104.691371 184.908623 
L 104.55568 184.221763 
L 104.420958 183.534903 
L 104.286365 182.848043 
L 104.150862 182.161183 
L 104.013244 181.474323 
L 103.872176 180.787463 
L 103.726233 180.100604 
L 103.573955 179.413744 
L 103.413899 178.726884 
L 103.244693 178.040024 
L 103.065099 177.353164 
L 102.874065 176.666304 
L 102.670773 175.979444 
L 102.454691 175.292585 
L 102.225602 174.605725 
L 101.983632 173.918865 
L 101.729266 173.232005 
L 101.463346 172.545145 
L 101.187061 171.858285 
L 100.90192 171.171426 
L 100.609719 170.484566 
L 100.312486 169.797706 
L 100.012429 169.110846 
L 99.711863 168.423986 
L 99.413145 167.737126 
L 99.118593 167.050266 
L 98.830416 166.363407 
L 98.550642 165.676547 
L 98.281045 164.989687 
L 98.023094 164.302827 
L 97.777895 163.615967 
L 97.546156 162.929107 
L 97.328162 162.242247 
L 97.123762 161.555388 
L 96.932367 160.868528 
L 96.752973 160.181668 
L 96.584189 159.494808 
L 96.424277 158.807948 
L 96.271216 158.121088 
L 96.122762 157.434229 
L 95.976529 156.747369 
L 95.830067 156.060509 
L 95.680955 155.373649 
L 95.526884 154.686789 
L 95.365746 153.999929 
L 95.195717 153.313069 
L 95.015332 152.62621 
L 94.823553 151.93935 
L 94.619812 151.25249 
L 94.404059 150.56563 
L 94.176772 149.87877 
L 93.938963 149.19191 
L 93.692158 148.505051 
L 93.438357 147.818191 
L 93.179987 147.131331 
L 92.919821 146.444471 
L 92.660905 145.757611 
L 92.406457 145.070751 
L 92.159775 144.383891 
L 91.92413 143.697032 
L 91.702678 143.010172 
L 91.498364 142.323312 
L 91.313848 141.636452 
L 91.151443 140.949592 
L 91.01307 140.262732 
L 90.900232 139.575872 
L 90.814012 138.889013 
L 90.755086 138.202153 
L 90.723755 137.515293 
L 90.72 136.828433 
L 90.743538 136.141573 
L 90.793894 135.454713 
L 90.87048 134.767854 
L 90.97266 134.080994 
L 91.099827 133.394134 
L 91.251456 132.707274 
L 91.427154 132.020414 
L 91.626685 131.333554 
L 91.849985 130.646694 
L 92.097153 129.959835 
L 92.368428 129.272975 
L 92.664144 128.586115 
L 92.984672 127.899255 
L 93.330357 127.212395 
L 93.701438 126.525535 
L 94.097974 125.838675 
L 94.519769 125.151816 
L 94.966299 124.464956 
L 95.436664 123.778096 
L 95.929536 123.091236 
L 96.443143 122.404376 
L 96.975257 121.717516 
L 97.523212 121.030657 
L 98.083941 120.343797 
L 117.916059 120.343797 
L 117.916059 120.343797 
L 118.476788 121.030657 
L 119.024743 121.717516 
L 119.556857 122.404376 
L 120.070464 123.091236 
L 120.563336 123.778096 
L 121.033701 124.464956 
L 121.480231 125.151816 
L 121.902026 125.838675 
L 122.298562 126.525535 
L 122.669643 127.212395 
L 123.015328 127.899255 
L 123.335856 128.586115 
L 123.631572 129.272975 
L 123.902847 129.959835 
L 124.150015 130.646694 
L 124.373315 131.333554 
L 124.572846 132.020414 
L 124.748544 132.707274 
L 124.900173 133.394134 
L 125.02734 134.080994 
L 125.12952 134.767854 
L 125.206106 135.454713 
L 125.256462 136.141573 
L 125.28 136.828433 
L 125.276245 137.515293 
L 125.244914 138.202153 
L 125.185988 138.889013 
L 125.099768 139.575872 
L 124.98693 140.262732 
L 124.848557 140.949592 
L 124.686152 141.636452 
L 124.501636 142.323312 
L 124.297322 143.010172 
L 124.07587 143.697032 
L 123.840225 144.383891 
L 123.593543 145.070751 
L 123.339095 145.757611 
L 123.080179 146.444471 
L 122.820013 147.131331 
L 122.561643 147.818191 
L 122.307842 148.505051 
L 122.061037 149.19191 
L 121.823228 149.87877 
L 121.595941 150.56563 
L 121.380188 151.25249 
L 121.176447 151.93935 
L 120.984668 152.62621 
L 120.804283 153.313069 
L 120.634254 153.999929 
L 120.473116 154.686789 
L 120.319045 155.373649 
L 120.169933 156.060509 
L 120.023471 156.747369 
L 119.877238 157.434229 
L 119.728784 158.121088 
L 119.575723 158.807948 
L 119.415811 159.494808 
L 119.247027 160.181668 
L 119.067633 160.868528 
L 118.876238 161.555388 
L 118.671838 162.242247 
L 118.453844 162.929107 
L 118.222105 163.615967 
L 117.976906 164.302827 
L 117.718955 164.989687 
L 117.449358 165.676547 
L 117.169584 166.363407 
L 116.881407 167.050266 
L 116.586855 167.737126 
L 116.288137 168.423986 
L 115.987571 169.110846 
L 115.687514 169.797706 
L 115.390281 170.484566 
L 115.09808 171.171426 
L 114.812939 171.858285 
L 114.536654 172.545145 
L 114.270734 173.232005 
L 114.016368 173.918865 
L 113.774398 174.605725 
L 113.545309 175.292585 
L 113.329227 175.979444 
L 113.125935 176.666304 
L 112.934901 177.353164 
L 112.755307 178.040024 
L 112.586101 178.726884 
L 112.426045 179.413744 
L 112.273767 180.100604 
L 112.127824 180.787463 
L 111.986756 181.474323 
L 111.849138 182.161183 
L 111.713635 182.848043 
L 111.579042 183.534903 
L 111.44432 184.221763 
L 111.308629 184.908623 
L 111.171342 185.595482 
L 111.032056 186.282342 
L 110.890596 186.969202 
L 110.747003 187.656062 
L 110.601524 188.342922 
L 110.601524 188.342922 
z
" clip-path="url(#p016ec5111e)" style="fill: none; stroke: #000000; stroke-opacity: 0.3"/>
   </g>
   <g id="FillBetweenPolyCollection_10">
    <path d="M 109.302642 212.216401 
L 106.697358 212.216401 
L 106.634445 211.296885 
L 106.568164 210.377368 
L 106.497168 209.457852 
L 106.419993 208.538335 
L 106.335101 207.618819 
L 106.240942 206.699302 
L 106.13602 205.779786 
L 106.01896 204.860269 
L 105.888576 203.940753 
L 105.743934 203.021236 
L 105.584412 202.101719 
L 105.409743 201.182203 
L 105.220054 200.262686 
L 105.015881 199.34317 
L 104.798174 198.423653 
L 104.568282 197.504137 
L 104.327917 196.58462 
L 104.079108 195.665104 
L 103.824136 194.745587 
L 103.565454 193.826071 
L 103.305602 192.906554 
L 103.047117 191.987038 
L 102.792434 191.067521 
L 102.543794 190.148005 
L 102.303164 189.228488 
L 102.072151 188.308972 
L 101.851948 187.389455 
L 101.643277 186.469939 
L 101.446367 185.550422 
L 101.260935 184.630905 
L 101.086196 183.711389 
L 100.920886 182.791872 
L 100.7633 181.872356 
L 100.611354 180.952839 
L 100.462645 180.033323 
L 100.314533 179.113806 
L 100.164223 178.19429 
L 100.008851 177.274773 
L 99.845577 176.355257 
L 99.671667 175.43574 
L 99.484577 174.516224 
L 99.282032 173.596707 
L 99.062094 172.677191 
L 98.823221 171.757674 
L 98.56432 170.838158 
L 98.284783 169.918641 
L 97.984514 168.999125 
L 97.663949 168.079608 
L 97.324051 167.160091 
L 96.966306 166.240575 
L 96.592696 165.321058 
L 96.20567 164.401542 
L 95.80809 163.482025 
L 95.40318 162.562509 
L 94.99446 161.642992 
L 94.585665 160.723476 
L 94.180672 159.803959 
L 93.783412 158.884443 
L 93.397781 157.964926 
L 93.02756 157.04541 
L 92.676326 156.125893 
L 92.347382 155.206377 
L 92.043689 154.28686 
L 91.767808 153.367344 
L 91.521859 152.447827 
L 91.3075 151.528311 
L 91.125909 150.608794 
L 90.977801 149.689277 
L 90.863448 148.769761 
L 90.782723 147.850244 
L 90.735155 146.930728 
L 90.72 146.011211 
L 90.736314 145.091695 
L 90.783039 144.172178 
L 90.859079 143.252662 
L 90.963385 142.333145 
L 91.095017 141.413629 
L 91.253203 140.494112 
L 91.43738 139.574596 
L 91.647208 138.655079 
L 91.882574 137.735563 
L 92.143569 136.816046 
L 92.430444 135.89653 
L 92.743547 134.977013 
L 93.083253 134.057497 
L 93.449871 133.13798 
L 93.84356 132.218463 
L 94.264233 131.298947 
L 94.711477 130.37943 
L 95.184475 129.459914 
L 95.681958 128.540397 
L 96.202162 127.620881 
L 96.742818 126.701364 
L 97.301162 125.781848 
L 97.87397 124.862331 
L 98.457616 123.942815 
L 99.048146 123.023298 
L 99.641371 122.103782 
L 100.232973 121.184265 
L 115.767027 121.184265 
L 115.767027 121.184265 
L 116.358629 122.103782 
L 116.951854 123.023298 
L 117.542384 123.942815 
L 118.12603 124.862331 
L 118.698838 125.781848 
L 119.257182 126.701364 
L 119.797838 127.620881 
L 120.318042 128.540397 
L 120.815525 129.459914 
L 121.288523 130.37943 
L 121.735767 131.298947 
L 122.15644 132.218463 
L 122.550129 133.13798 
L 122.916747 134.057497 
L 123.256453 134.977013 
L 123.569556 135.89653 
L 123.856431 136.816046 
L 124.117426 137.735563 
L 124.352792 138.655079 
L 124.56262 139.574596 
L 124.746797 140.494112 
L 124.904983 141.413629 
L 125.036615 142.333145 
L 125.140921 143.252662 
L 125.216961 144.172178 
L 125.263686 145.091695 
L 125.28 146.011211 
L 125.264845 146.930728 
L 125.217277 147.850244 
L 125.136552 148.769761 
L 125.022199 149.689277 
L 124.874091 150.608794 
L 124.6925 151.528311 
L 124.478141 152.447827 
L 124.232192 153.367344 
L 123.956311 154.28686 
L 123.652618 155.206377 
L 123.323674 156.125893 
L 122.97244 157.04541 
L 122.602219 157.964926 
L 122.216588 158.884443 
L 121.819328 159.803959 
L 121.414335 160.723476 
L 121.00554 161.642992 
L 120.59682 162.562509 
L 120.19191 163.482025 
L 119.79433 164.401542 
L 119.407304 165.321058 
L 119.033694 166.240575 
L 118.675949 167.160091 
L 118.336051 168.079608 
L 118.015486 168.999125 
L 117.715217 169.918641 
L 117.43568 170.838158 
L 117.176779 171.757674 
L 116.937906 172.677191 
L 116.717968 173.596707 
L 116.515423 174.516224 
L 116.328333 175.43574 
L 116.154423 176.355257 
L 115.991149 177.274773 
L 115.835777 178.19429 
L 115.685467 179.113806 
L 115.537355 180.033323 
L 115.388646 180.952839 
L 115.2367 181.872356 
L 115.079114 182.791872 
L 114.913804 183.711389 
L 114.739065 184.630905 
L 114.553633 185.550422 
L 114.356723 186.469939 
L 114.148052 187.389455 
L 113.927849 188.308972 
L 113.696836 189.228488 
L 113.456206 190.148005 
L 113.207566 191.067521 
L 112.952883 191.987038 
L 112.694398 192.906554 
L 112.434546 193.826071 
L 112.175864 194.745587 
L 111.920892 195.665104 
L 111.672083 196.58462 
L 111.431718 197.504137 
L 111.201826 198.423653 
L 110.984119 199.34317 
L 110.779946 200.262686 
L 110.590257 201.182203 
L 110.415588 202.101719 
L 110.256066 203.021236 
L 110.111424 203.940753 
L 109.98104 204.860269 
L 109.86398 205.779786 
L 109.759058 206.699302 
L 109.664899 207.618819 
L 109.580007 208.538335 
L 109.502832 209.457852 
L 109.431836 210.377368 
L 109.365555 211.296885 
L 109.302642 212.216401 
L 109.302642 212.216401 
z
" clip-path="url(#p016ec5111e)" style="fill: none; stroke: #000000; stroke-opacity: 0.3"/>
   </g>
   <g id="matplotlib.axis_1"/>
   <g id="matplotlib.axis_2">
    <g id="ytick_1">
     <g id="line2d_1">
      <defs>
       <path id="mbc098758c2" d="M 0 0 
L -3.5 0 
" style="stroke: #000000; stroke-width: 0.8"/>
      </defs>
      <g>
       <use xlink:href="#mbc098758c2" x="21.6" y="291.6" style="stroke: #000000; stroke-width: 0.8"/>
      </g>
     </g>
    </g>
    <g id="ytick_2">
     <g id="line2d_2">
      <g>
       <use xlink:href="#mbc098758c2" x="21.6" y="199.8" style="stroke: #000000; stroke-width: 0.8"/>
      </g>
     </g>
    </g>
    <g id="ytick_3">
     <g id="line2d_3">
      <g>
       <use xlink:href="#mbc098758c2" x="21.6" y="108" style="stroke: #000000; stroke-width: 0.8"/>
      </g>
     </g>
    </g>
    <g id="ytick_4">
     <g id="line2d_4">
      <g>
       <use xlink:href="#mbc098758c2" x="21.6" y="16.2" style="stroke: #000000; stroke-width: 0.8"/>
      </g>
     </g>
    </g>
   </g>
   <g id="line2d_5">
    <path d="M 50.4 269.568 
L 50.4 264.06 
" clip-path="url(#p016ec5111e)" style="fill: none; stroke: #000000; stroke-linecap: square"/>
   </g>
   <g id="line2d_6">
    <path d="M 50.4 269.568 
L 108 269.568 
" clip-path="url(#p016ec5111e)" style="fill: none; stroke: #000000; stroke-linecap: square"/>
   </g>
   <g id="line2d_7">
    <path d="M 108 269.568 
L 108 264.06 
" clip-path="url(#p016ec5111e)" style="fill: none; stroke: #000000; stroke-linecap: square"/>
   </g>
   <g id="patch_3">
    <path d="M 21.6 291.6 
L 21.6 16.2 
" style="fill: none; stroke: #000000; stroke-width: 0.8; stroke-linejoin: miter; stroke-linecap: square"/>
   </g>
   <g id="patch_4">
    <path d="M 136.8 291.6 
L 136.8 16.2 
" style="fill: none; stroke: #000000; stroke-width: 0.8; stroke-linejoin: miter; stroke-linecap: square"/>
   </g>
   <g id="patch_5">
    <path d="M 21.6 291.6 
L 136.8 291.6 
" style="fill: none; stroke: #000000; stroke-width: 0.8; stroke-linejoin: miter; stroke-linecap: square"/>
   </g>
   <g id="patch_6">
    <path d="M 21.6 16.2 
L 136.8 16.2 
" style="fill: none; stroke: #000000; stroke-width: 0.8; stroke-linejoin: miter; stroke-linecap: square"/>
   </g>
   <g id="text_1">
    <text style="font-weight: 700; font-size: 12px; font-family: 'DejaVu Sans', 'Bitstream Vera Sans', 'Computer Modern Sans Serif', 'Lucida Grande', 'Verdana', 'Geneva', 'Lucid', 'Arial', 'Helvetica', 'Avant Garde', sans-serif; text-anchor: middle" x="50.4" y="289.104375" transform="rotate(-0 50.4 289.104375)">#8</text>
   </g>
   <g id="text_2">
    <text style="font-weight: 700; font-size: 12px; font-family: 'DejaVu Sans', 'Bitstream Vera Sans', 'Computer Modern Sans Serif', 'Lucida Grande', 'Verdana', 'Geneva', 'Lucid', 'Arial', 'Helvetica', 'Avant Garde', sans-serif; text-anchor: middle" x="108" y="289.104375" transform="rotate(-0 108 289.104375)">#14</text>
   </g>
   <g id="text_3">
    <text style="font-size: 12px; font-family: 'DejaVu Sans', 'Bitstream Vera Sans', 'Computer Modern Sans Serif', 'Lucida Grande', 'Verdana', 'Geneva', 'Lucid', 'Arial', 'Helvetica', 'Avant Garde', sans-serif; text-anchor: middle" x="79.2" y="268.449375" transform="rotate(-0 79.2 268.449375)">**</text>
   </g>
   <g id="line2d_8">
    <path d="M 21.6 129.76437 
L 136.8 129.76437 
" clip-path="url(#p016ec5111e)" style="fill: none; stroke-dasharray: 3.7,1.6; stroke-dashoffset: 0; stroke: #808080; stroke-opacity: 0.7"/>
   </g>
   <g id="line2d_9">
    <path d="M 21.6 129.76437 
L 136.8 129.76437 
" clip-path="url(#p016ec5111e)" style="fill: none; stroke-dasharray: 3.7,1.6; stroke-dashoffset: 0; stroke: #808080; stroke-opacity: 0.7"/>
   </g>
   <g id="line2d_10">
    <path d="M 21.6 142.689472 
L 136.8 142.689472 
" clip-path="url(#p016ec5111e)" style="fill: none; stroke-dasharray: 3.7,1.6; stroke-dashoffset: 0; stroke: #808080; stroke-opacity: 0.7"/>
   </g>
   <g id="LineCollection_1">
    <path d="M 50.4 135.153853 
L 50.4 124.374887 
" clip-path="url(#p016ec5111e)" style="fill: none; stroke: #000000; stroke-width: 2"/>
   </g>
   <g id="line2d_11">
    <defs>
     <path id="m7c2f4c9caa" d="M 5 0 
L -5 -0 
" style="stroke: #000000; stroke-width: 2"/>
    </defs>
    <g clip-path="url(#p016ec5111e)">
     <use xlink:href="#m7c2f4c9caa" x="50.4" y="135.153853" style="stroke: #000000; stroke-width: 2"/>
    </g>
   </g>
   <g id="line2d_12">
    <g clip-path="url(#p016ec5111e)">
     <use xlink:href="#m7c2f4c9caa" x="50.4" y="124.374887" style="stroke: #000000; stroke-width: 2"/>
    </g>
   </g>
   <g id="LineCollection_2">
    <path d="M 108 147.091871 
L 108 138.287073 
" clip-path="url(#p016ec5111e)" style="fill: none; stroke: #000000; stroke-width: 2"/>
   </g>
   <g id="line2d_13">
    <g clip-path="url(#p016ec5111e)">
     <use xlink:href="#m7c2f4c9caa" x="108" y="147.091871" style="stroke: #000000; stroke-width: 2"/>
    </g>
   </g>
   <g id="line2d_14">
    <g clip-path="url(#p016ec5111e)">
     <use xlink:href="#m7c2f4c9caa" x="108" y="138.287073" style="stroke: #000000; stroke-width: 2"/>
    </g>
   </g>
   <g id="line2d_15">
    <defs>
     <path id="m446e7ae9db" d="M 0 4 
C 1.060812 4 2.078319 3.578535 2.828427 2.828427 
C 3.578535 2.078319 4 1.060812 4 0 
C 4 -1.060812 3.578535 -2.078319 2.828427 -2.828427 
C 2.078319 -3.578535 1.060812 -4 0 -4 
C -1.060812 -4 -2.078319 -3.578535 -2.828427 -2.828427 
C -3.578535 -2.078319 -4 -1.060812 -4 0 
C -4 1.060812 -3.578535 2.078319 -2.828427 2.828427 
C -2.078319 3.578535 -1.060812 4 0 4 
z
" style="stroke: #000000"/>
    </defs>
    <g clip-path="url(#p016ec5111e)">
     <use xlink:href="#m446e7ae9db" x="50.4" y="129.76437" style="stroke: #000000"/>
    </g>
   </g>
   <g id="line2d_16">
    <g clip-path="url(#p016ec5111e)">
     <use xlink:href="#m446e7ae9db" x="108" y="142.689472" style="stroke: #000000"/>
    </g>
   </g>
  </g>
 </g>
 <defs>
  <clipPath id="p016ec5111e">
   <rect x="21.6" y="16.2" width="115.2" height="275.4"/>
  </clipPath>
 </defs>
</svg>
