<?xml version="1.0" encoding="utf-8" standalone="no"?>
<!DOCTYPE svg PUBLIC "-//W3C//DTD SVG 1.1//EN"
  "http://www.w3.org/Graphics/SVG/1.1/DTD/svg11.dtd">
<svg xmlns:xlink="http://www.w3.org/1999/xlink" width="144pt" height="324pt" viewBox="0 0 144 324" xmlns="http://www.w3.org/2000/svg" version="1.1">
 <metadata>
  <rdf:RDF xmlns:dc="http://purl.org/dc/elements/1.1/" xmlns:cc="http://creativecommons.org/ns#" xmlns:rdf="http://www.w3.org/1999/02/22-rdf-syntax-ns#">
   <cc:Work>
    <dc:type rdf:resource="http://purl.org/dc/dcmitype/StillImage"/>
    <dc:date>2025-12-11T11:15:00.637653</dc:date>
    <dc:format>image/svg+xml</dc:format>
    <dc:creator>
     <cc:Agent>
      <dc:title>Matplotlib v3.10.3, https://matplotlib.org/</dc:title>
     </cc:Agent>
    </dc:creator>
   </cc:Work>
  </rdf:RDF>
 </metadata>
 <defs>
  <style type="text/css">*{stroke-linejoin: round; stroke-linecap: butt}</style>
 </defs>
 <g id="figure_1">
  <g id="patch_1">
   <path d="M 0 324 
L 144 324 
L 144 0 
L 0 0 
z
" style="fill: #ffffff"/>
  </g>
  <g id="axes_1">
   <g id="patch_2">
    <path d="M 21.6 291.6 
L 136.8 291.6 
L 136.8 16.2 
L 21.6 16.2 
z
" style="fill: #ffffff"/>
   </g>
   <g id="FillBetweenPolyCollection_1">
    <path d="M 50.784591 247.994815 
L 50.015409 247.994815 
L 50.020469 246.091241 
L 50.035302 244.187667 
L 50.058716 242.284093 
L 50.08889 240.380519 
L 50.123587 238.476945 
L 50.160383 236.573371 
L 50.196902 234.669797 
L 50.230993 232.766223 
L 50.260849 230.86265 
L 50.285054 228.959076 
L 50.302564 227.055502 
L 50.312655 225.151928 
L 50.314842 223.248354 
L 50.308813 221.34478 
L 50.294378 219.441206 
L 50.27144 217.537632 
L 50.239988 215.634058 
L 50.200091 213.730485 
L 50.151875 211.826911 
L 50.095477 209.923337 
L 50.030968 208.019763 
L 49.958248 206.116189 
L 49.87696 204.212615 
L 49.786444 202.309041 
L 49.685768 200.405467 
L 49.57388 198.501893 
L 49.449866 196.59832 
L 49.313301 194.694746 
L 49.164618 192.791172 
L 49.005424 190.887598 
L 48.838651 188.984024 
L 48.668472 187.08045 
L 48.499936 185.176876 
L 48.338329 183.273302 
L 48.188343 181.369728 
L 48.053167 179.466154 
L 47.933674 177.562581 
L 47.827859 175.659007 
L 47.730646 173.755433 
L 47.634147 171.851859 
L 47.528332 169.948285 
L 47.402025 168.044711 
L 47.244046 166.141137 
L 47.044286 164.237563 
L 46.794537 162.333989 
L 46.48891 160.430416 
L 46.123787 158.526842 
L 45.697354 156.623268 
L 45.208862 154.719694 
L 44.657842 152.81612 
L 44.043524 150.912546 
L 43.36471 149.008972 
L 42.620218 147.105398 
L 41.80995 145.201824 
L 40.93642 143.29825 
L 40.006496 141.394677 
L 39.032996 139.491103 
L 38.035741 137.587529 
L 37.041745 135.683955 
L 36.08433 133.780381 
L 35.201134 131.876807 
L 34.4312 129.973233 
L 33.81148 128.069659 
L 33.373252 126.166085 
L 33.138966 124.262512 
L 33.12 122.358938 
L 33.315669 120.455364 
L 33.71362 118.55179 
L 34.291545 116.648216 
L 35.019892 114.744642 
L 35.865148 112.841068 
L 36.793155 110.937494 
L 37.771984 109.03392 
L 38.773988 107.130347 
L 39.776849 105.226773 
L 40.763619 103.323199 
L 41.721957 101.419625 
L 42.642869 99.516051 
L 43.519313 97.612477 
L 44.34501 95.708903 
L 45.11368 93.805329 
L 45.818825 91.901755 
L 46.454024 89.998181 
L 47.013597 88.094608 
L 47.493453 86.191034 
L 47.891901 84.28746 
L 48.210242 82.383886 
L 48.453036 80.480312 
L 48.627984 78.576738 
L 48.74546 76.673164 
L 48.817753 74.76959 
L 48.858135 72.866016 
L 48.879859 70.962443 
L 48.895199 69.058869 
L 48.91463 67.155295 
L 48.946207 65.251721 
L 48.995208 63.348147 
L 49.064046 61.444573 
L 49.152452 59.540999 
L 51.647548 59.540999 
L 51.647548 59.540999 
L 51.735954 61.444573 
L 51.804792 63.348147 
L 51.853793 65.251721 
L 51.88537 67.155295 
L 51.904801 69.058869 
L 51.920141 70.962443 
L 51.941865 72.866016 
L 51.982247 74.76959 
L 52.05454 76.673164 
L 52.172016 78.576738 
L 52.346964 80.480312 
L 52.589758 82.383886 
L 52.908099 84.28746 
L 53.306547 86.191034 
L 53.786403 88.094608 
L 54.345976 89.998181 
L 54.981175 91.901755 
L 55.68632 93.805329 
L 56.45499 95.708903 
L 57.280687 97.612477 
L 58.157131 99.516051 
L 59.078043 101.419625 
L 60.036381 103.323199 
L 61.023151 105.226773 
L 62.026012 107.130347 
L 63.028016 109.03392 
L 64.006845 110.937494 
L 64.934852 112.841068 
L 65.780108 114.744642 
L 66.508455 116.648216 
L 67.08638 118.55179 
L 67.484331 120.455364 
L 67.68 122.358938 
L 67.661034 124.262512 
L 67.426748 126.166085 
L 66.98852 128.069659 
L 66.3688 129.973233 
L 65.598866 131.876807 
L 64.71567 133.780381 
L 63.758255 135.683955 
L 62.764259 137.587529 
L 61.767004 139.491103 
L 60.793504 141.394677 
L 59.86358 143.29825 
L 58.99005 145.201824 
L 58.179782 147.105398 
L 57.43529 149.008972 
L 56.756476 150.912546 
L 56.142158 152.81612 
L 55.591138 154.719694 
L 55.102646 156.623268 
L 54.676213 158.526842 
L 54.31109 160.430416 
L 54.005463 162.333989 
L 53.755714 164.237563 
L 53.555954 166.141137 
L 53.397975 168.044711 
L 53.271668 169.948285 
L 53.165853 171.851859 
L 53.069354 173.755433 
L 52.972141 175.659007 
L 52.866326 177.562581 
L 52.746833 179.466154 
L 52.611657 181.369728 
L 52.461671 183.273302 
L 52.300064 185.176876 
L 52.131528 187.08045 
L 51.961349 188.984024 
L 51.794576 190.887598 
L 51.635382 192.791172 
L 51.486699 194.694746 
L 51.350134 196.59832 
L 51.22612 198.501893 
L 51.114232 200.405467 
L 51.013556 202.309041 
L 50.92304 204.212615 
L 50.841752 206.116189 
L 50.769032 208.019763 
L 50.704523 209.923337 
L 50.648125 211.826911 
L 50.599909 213.730485 
L 50.560012 215.634058 
L 50.52856 217.537632 
L 50.505622 219.441206 
L 50.491187 221.34478 
L 50.485158 223.248354 
L 50.487345 225.151928 
L 50.497436 227.055502 
L 50.514946 228.959076 
L 50.539151 230.86265 
L 50.569007 232.766223 
L 50.603098 234.669797 
L 50.639617 236.573371 
L 50.676413 238.476945 
L 50.71111 240.380519 
L 50.741284 242.284093 
L 50.764698 244.187667 
L 50.779531 246.091241 
L 50.784591 247.994815 
L 50.784591 247.994815 
z
" clip-path="url(#p9b2ea9fbe0)" style="fill: none; stroke: #000000; stroke-opacity: 0.3"/>
   </g>
   <g id="FillBetweenPolyCollection_2">
    <path d="M 52.903493 160.916263 
L 47.896507 160.916263 
L 47.614693 159.794116 
L 47.315897 158.671968 
L 46.998086 157.54982 
L 46.658617 156.427673 
L 46.294402 155.305525 
L 45.902171 154.183378 
L 45.478801 153.06123 
L 45.021707 151.939082 
L 44.529228 150.816935 
L 44.000993 149.694787 
L 43.438217 148.57264 
L 42.843869 147.450492 
L 42.222723 146.328344 
L 41.581238 145.206197 
L 40.927293 144.084049 
L 40.269788 142.961901 
L 39.618141 141.839754 
L 38.981724 140.717606 
L 38.369298 139.595459 
L 37.788479 138.473311 
L 37.245307 137.351163 
L 36.743934 136.229016 
L 36.286475 135.106868 
L 35.873025 133.98472 
L 35.501838 132.862573 
L 35.169666 131.740425 
L 34.872208 130.618278 
L 34.604645 129.49613 
L 34.362222 128.373982 
L 34.140803 127.251835 
L 33.937384 126.129687 
L 33.750496 125.007539 
L 33.580474 123.885392 
L 33.429563 122.763244 
L 33.301843 121.641097 
L 33.20299 120.518949 
L 33.139866 119.396801 
L 33.12 118.274654 
L 33.150969 117.152506 
L 33.239768 116.030359 
L 33.392196 114.908211 
L 33.612334 113.786063 
L 33.90214 112.663916 
L 34.261216 111.541768 
L 34.686752 110.41962 
L 35.173642 109.297473 
L 35.714771 108.175325 
L 36.301416 107.053178 
L 36.923748 105.93103 
L 37.571356 104.808882 
L 38.233782 103.686735 
L 38.900988 102.564587 
L 39.563761 101.442439 
L 40.214008 100.320292 
L 40.84495 99.198144 
L 41.451214 98.075997 
L 42.02883 96.953849 
L 42.575158 95.831701 
L 43.088763 94.709554 
L 43.569258 93.587406 
L 44.017132 92.465259 
L 44.43358 91.343111 
L 44.820342 90.220963 
L 45.179556 89.098816 
L 45.513622 87.976668 
L 45.825078 86.85452 
L 46.116489 85.732373 
L 46.390331 84.610225 
L 46.648887 83.488078 
L 46.894149 82.36593 
L 47.127721 81.243782 
L 47.350753 80.121635 
L 47.563891 78.999487 
L 47.767259 77.877339 
L 47.960487 76.755192 
L 48.142768 75.633044 
L 48.312961 74.510897 
L 48.469716 73.388749 
L 48.611629 72.266601 
L 48.737395 71.144454 
L 48.845965 70.022306 
L 48.936673 68.900159 
L 49.009349 67.778011 
L 49.064376 66.655863 
L 49.102724 65.533716 
L 49.125936 64.411568 
L 49.13607 63.28942 
L 49.135625 62.167273 
L 49.127427 61.045125 
L 49.114507 59.922978 
L 49.099966 58.80083 
L 49.086833 57.678682 
L 49.077936 56.556535 
L 49.075773 55.434387 
L 49.082408 54.312239 
L 49.099377 53.190092 
L 49.127633 52.067944 
L 49.167514 50.945797 
L 49.218746 49.823649 
L 51.581254 49.823649 
L 51.581254 49.823649 
L 51.632486 50.945797 
L 51.672367 52.067944 
L 51.700623 53.190092 
L 51.717592 54.312239 
L 51.724227 55.434387 
L 51.722064 56.556535 
L 51.713167 57.678682 
L 51.700034 58.80083 
L 51.685493 59.922978 
L 51.672573 61.045125 
L 51.664375 62.167273 
L 51.66393 63.28942 
L 51.674064 64.411568 
L 51.697276 65.533716 
L 51.735624 66.655863 
L 51.790651 67.778011 
L 51.863327 68.900159 
L 51.954035 70.022306 
L 52.062605 71.144454 
L 52.188371 72.266601 
L 52.330284 73.388749 
L 52.487039 74.510897 
L 52.657232 75.633044 
L 52.839513 76.755192 
L 53.032741 77.877339 
L 53.236109 78.999487 
L 53.449247 80.121635 
L 53.672279 81.243782 
L 53.905851 82.36593 
L 54.151113 83.488078 
L 54.409669 84.610225 
L 54.683511 85.732373 
L 54.974922 86.85452 
L 55.286378 87.976668 
L 55.620444 89.098816 
L 55.979658 90.220963 
L 56.36642 91.343111 
L 56.782868 92.465259 
L 57.230742 93.587406 
L 57.711237 94.709554 
L 58.224842 95.831701 
L 58.77117 96.953849 
L 59.348786 98.075997 
L 59.95505 99.198144 
L 60.585992 100.320292 
L 61.236239 101.442439 
L 61.899012 102.564587 
L 62.566218 103.686735 
L 63.228644 104.808882 
L 63.876252 105.93103 
L 64.498584 107.053178 
L 65.085229 108.175325 
L 65.626358 109.297473 
L 66.113248 110.41962 
L 66.538784 111.541768 
L 66.89786 112.663916 
L 67.187666 113.786063 
L 67.407804 114.908211 
L 67.560232 116.030359 
L 67.649031 117.152506 
L 67.68 118.274654 
L 67.660134 119.396801 
L 67.59701 120.518949 
L 67.498157 121.641097 
L 67.370437 122.763244 
L 67.219526 123.885392 
L 67.049504 125.007539 
L 66.862616 126.129687 
L 66.659197 127.251835 
L 66.437778 128.373982 
L 66.195355 129.49613 
L 65.927792 130.618278 
L 65.630334 131.740425 
L 65.298162 132.862573 
L 64.926975 133.98472 
L 64.513525 135.106868 
L 64.056066 136.229016 
L 63.554693 137.351163 
L 63.011521 138.473311 
L 62.430702 139.595459 
L 61.818276 140.717606 
L 61.181859 141.839754 
L 60.530212 142.961901 
L 59.872707 144.084049 
L 59.218762 145.206197 
L 58.577277 146.328344 
L 57.956131 147.450492 
L 57.361783 148.57264 
L 56.799007 149.694787 
L 56.270772 150.816935 
L 55.778293 151.939082 
L 55.321199 153.06123 
L 54.897829 154.183378 
L 54.505598 155.305525 
L 54.141383 156.427673 
L 53.801914 157.54982 
L 53.484103 158.671968 
L 53.185307 159.794116 
L 52.903493 160.916263 
L 52.903493 160.916263 
z
" clip-path="url(#p9b2ea9fbe0)" style="fill: none; stroke: #000000; stroke-opacity: 0.3"/>
   </g>
   <g id="FillBetweenPolyCollection_3">
    <path d="M 52.194168 175.407409 
L 48.605832 175.407409 
L 48.33061 173.392003 
L 48.037032 171.376597 
L 47.72377 169.361191 
L 47.388838 167.345786 
L 47.030053 165.33038 
L 46.645622 163.314974 
L 46.234748 161.299568 
L 45.798089 159.284162 
L 45.337949 157.268756 
L 44.858099 155.25335 
L 44.363197 153.237944 
L 43.857881 151.222538 
L 43.345688 149.207132 
L 42.828027 147.191726 
L 42.303484 145.17632 
L 41.767678 143.160914 
L 41.21382 141.145508 
L 40.633956 139.130102 
L 40.020734 137.114696 
L 39.369364 135.09929 
L 38.679426 133.083885 
L 37.95615 131.068479 
L 37.210955 129.053073 
L 36.461146 127.037667 
L 35.728864 125.022261 
L 35.039506 123.006855 
L 34.419847 120.991449 
L 33.896138 118.976043 
L 33.492332 116.960637 
L 33.228576 114.945231 
L 33.12 112.929825 
L 33.175821 110.914419 
L 33.398785 108.899013 
L 33.784949 106.883607 
L 34.323827 104.868201 
L 34.998903 102.852795 
L 35.788501 100.83739 
L 36.666983 98.821984 
L 37.606213 96.806578 
L 38.577198 94.791172 
L 39.551796 92.775766 
L 40.504355 90.76036 
L 41.41313 88.744954 
L 42.261327 86.729548 
L 43.037642 84.714142 
L 43.736264 82.698736 
L 44.356339 80.68333 
L 44.901025 78.667924 
L 45.376325 76.652518 
L 45.789889 74.637112 
L 46.149989 72.621706 
L 46.464766 70.6063 
L 46.741806 68.590894 
L 46.987981 66.575489 
L 47.20945 64.560083 
L 47.411725 62.544677 
L 47.599679 60.529271 
L 47.777475 58.513865 
L 47.948406 56.498459 
L 48.114724 54.483053 
L 48.277514 52.467647 
L 48.436694 50.452241 
L 48.59119 48.436835 
L 48.739268 46.421429 
L 48.878976 44.406023 
L 49.008613 42.390617 
L 49.127113 40.375211 
L 49.234272 38.359805 
L 49.330749 36.344399 
L 49.417867 34.328993 
L 49.497265 32.313588 
L 49.570496 30.298182 
L 49.638687 28.282776 
L 49.702354 26.26737 
L 49.761401 24.251964 
L 49.815315 22.236558 
L 49.863464 20.221152 
L 49.905437 18.205746 
L 49.941297 16.19034 
L 49.971695 14.174934 
L 49.997806 12.159528 
L 50.021112 10.144122 
L 50.043089 8.128716 
L 50.064877 6.11331 
L 50.08703 4.097904 
L 50.109385 2.082498 
L 50.131099 0.067093 
L 50.141545 -1 
M 50.658455 -1 
L 50.668901 0.067093 
L 50.690615 2.082498 
L 50.71297 4.097904 
L 50.735123 6.11331 
L 50.756911 8.128716 
L 50.778888 10.144122 
L 50.802194 12.159528 
L 50.828305 14.174934 
L 50.858703 16.19034 
L 50.894563 18.205746 
L 50.936536 20.221152 
L 50.984685 22.236558 
L 51.038599 24.251964 
L 51.097646 26.26737 
L 51.161313 28.282776 
L 51.229504 30.298182 
L 51.302735 32.313588 
L 51.382133 34.328993 
L 51.469251 36.344399 
L 51.565728 38.359805 
L 51.672887 40.375211 
L 51.791387 42.390617 
L 51.921024 44.406023 
L 52.060732 46.421429 
L 52.20881 48.436835 
L 52.363306 50.452241 
L 52.522486 52.467647 
L 52.685276 54.483053 
L 52.851594 56.498459 
L 53.022525 58.513865 
L 53.200321 60.529271 
L 53.388275 62.544677 
L 53.59055 64.560083 
L 53.812019 66.575489 
L 54.058194 68.590894 
L 54.335234 70.6063 
L 54.650011 72.621706 
L 55.010111 74.637112 
L 55.423675 76.652518 
L 55.898975 78.667924 
L 56.443661 80.68333 
L 57.063736 82.698736 
L 57.762358 84.714142 
L 58.538673 86.729548 
L 59.38687 88.744954 
L 60.295645 90.76036 
L 61.248204 92.775766 
L 62.222802 94.791172 
L 63.193787 96.806578 
L 64.133017 98.821984 
L 65.011499 100.83739 
L 65.801097 102.852795 
L 66.476173 104.868201 
L 67.015051 106.883607 
L 67.401215 108.899013 
L 67.624179 110.914419 
L 67.68 112.929825 
L 67.571424 114.945231 
L 67.307668 116.960637 
L 66.903862 118.976043 
L 66.380153 120.991449 
L 65.760494 123.006855 
L 65.071136 125.022261 
L 64.338854 127.037667 
L 63.589045 129.053073 
L 62.84385 131.068479 
L 62.120574 133.083885 
L 61.430636 135.09929 
L 60.779266 137.114696 
L 60.166044 139.130102 
L 59.58618 141.145508 
L 59.032322 143.160914 
L 58.496516 145.17632 
L 57.971973 147.191726 
L 57.454312 149.207132 
L 56.942119 151.222538 
L 56.436803 153.237944 
L 55.941901 155.25335 
L 55.462051 157.268756 
L 55.001911 159.284162 
L 54.565252 161.299568 
L 54.154378 163.314974 
L 53.769947 165.33038 
L 53.411162 167.345786 
L 53.07623 169.361191 
L 52.762968 171.376597 
L 52.46939 173.392003 
L 52.194168 175.407409 
L 52.194168 175.407409 
" clip-path="url(#p9b2ea9fbe0)" style="fill: none; stroke: #000000; stroke-opacity: 0.3"/>
   </g>
   <g id="FillBetweenPolyCollection_4">
    <path d="M 52.994108 174.636539 
L 47.805892 174.636539 
L 47.365776 172.898209 
L 46.888981 171.159878 
L 46.377252 169.421547 
L 45.832467 167.683217 
L 45.25653 165.944886 
L 44.6513 164.206556 
L 44.018604 162.468225 
L 43.360303 160.729894 
L 42.678447 158.991564 
L 41.975495 157.253233 
L 41.254567 155.514902 
L 40.519717 153.776572 
L 39.776158 152.038241 
L 39.030406 150.299911 
L 38.290298 148.56158 
L 37.564861 146.823249 
L 36.864025 145.084919 
L 36.198211 143.346588 
L 35.577826 141.608257 
L 35.012716 139.869927 
L 34.511655 138.131596 
L 34.081888 136.393266 
L 33.728809 134.654935 
L 33.455764 132.916604 
L 33.264022 131.178274 
L 33.152895 129.439943 
L 33.12 127.701613 
L 33.161636 125.963282 
L 33.273227 124.224951 
L 33.449779 122.486621 
L 33.686297 120.74829 
L 33.978082 119.009959 
L 34.320877 117.271629 
L 34.710841 115.533298 
L 35.144357 113.794968 
L 35.617726 112.056637 
L 36.126837 110.318306 
L 36.666872 108.579976 
L 37.232166 106.841645 
L 37.816223 105.103315 
L 38.411934 103.364984 
L 39.011944 101.626653 
L 39.609093 99.888323 
L 40.196869 98.149992 
L 40.769777 96.411661 
L 41.323588 94.673331 
L 41.855436 92.935 
L 42.363788 91.19667 
L 42.848306 89.458339 
L 43.309658 87.720008 
L 43.749284 85.981678 
L 44.169159 84.243347 
L 44.571546 82.505017 
L 44.958724 80.766686 
L 45.332719 79.028355 
L 45.695021 77.290025 
L 46.04633 75.551694 
L 46.386384 73.813363 
L 46.71389 72.075033 
L 47.026623 70.336702 
L 47.321682 68.598372 
L 47.595898 66.860041 
L 47.846333 65.12171 
L 48.070795 63.38338 
L 48.268272 61.645049 
L 48.439211 59.906719 
L 48.58558 58.168388 
L 48.710698 56.430057 
L 48.818861 54.691727 
L 48.914819 52.953396 
L 49.003205 51.215065 
L 49.087991 49.476735 
L 49.172069 47.738404 
L 49.25701 46.000074 
L 49.343018 44.261743 
L 49.429072 42.523412 
L 49.513216 40.785082 
L 49.592946 39.046751 
L 49.665614 37.30842 
L 49.728812 35.57009 
L 49.78067 33.831759 
L 49.820057 32.093429 
L 49.846664 30.355098 
L 49.860982 28.616767 
L 49.864201 26.878437 
L 49.858053 25.140106 
L 49.844635 23.401776 
L 49.826236 21.663445 
L 49.80519 19.925114 
L 49.783771 18.186784 
L 49.764104 16.448453 
L 49.748122 14.710122 
L 49.737511 12.971792 
L 49.733677 11.233461 
L 49.737684 9.495131 
L 49.75021 7.7568 
L 49.771483 6.018469 
L 49.801251 4.280139 
L 49.838775 2.541808 
L 50.961225 2.541808 
L 50.961225 2.541808 
L 50.998749 4.280139 
L 51.028517 6.018469 
L 51.04979 7.7568 
L 51.062316 9.495131 
L 51.066323 11.233461 
L 51.062489 12.971792 
L 51.051878 14.710122 
L 51.035896 16.448453 
L 51.016229 18.186784 
L 50.99481 19.925114 
L 50.973764 21.663445 
L 50.955365 23.401776 
L 50.941947 25.140106 
L 50.935799 26.878437 
L 50.939018 28.616767 
L 50.953336 30.355098 
L 50.979943 32.093429 
L 51.01933 33.831759 
L 51.071188 35.57009 
L 51.134386 37.30842 
L 51.207054 39.046751 
L 51.286784 40.785082 
L 51.370928 42.523412 
L 51.456982 44.261743 
L 51.54299 46.000074 
L 51.627931 47.738404 
L 51.712009 49.476735 
L 51.796795 51.215065 
L 51.885181 52.953396 
L 51.981139 54.691727 
L 52.089302 56.430057 
L 52.21442 58.168388 
L 52.360789 59.906719 
L 52.531728 61.645049 
L 52.729205 63.38338 
L 52.953667 65.12171 
L 53.204102 66.860041 
L 53.478318 68.598372 
L 53.773377 70.336702 
L 54.08611 72.075033 
L 54.413616 73.813363 
L 54.75367 75.551694 
L 55.104979 77.290025 
L 55.467281 79.028355 
L 55.841276 80.766686 
L 56.228454 82.505017 
L 56.630841 84.243347 
L 57.050716 85.981678 
L 57.490342 87.720008 
L 57.951694 89.458339 
L 58.436212 91.19667 
L 58.944564 92.935 
L 59.476412 94.673331 
L 60.030223 96.411661 
L 60.603131 98.149992 
L 61.190907 99.888323 
L 61.788056 101.626653 
L 62.388066 103.364984 
L 62.983777 105.103315 
L 63.567834 106.841645 
L 64.133128 108.579976 
L 64.673163 110.318306 
L 65.182274 112.056637 
L 65.655643 113.794968 
L 66.089159 115.533298 
L 66.479123 117.271629 
L 66.821918 119.009959 
L 67.113703 120.74829 
L 67.350221 122.486621 
L 67.526773 124.224951 
L 67.638364 125.963282 
L 67.68 127.701613 
L 67.647105 129.439943 
L 67.535978 131.178274 
L 67.344236 132.916604 
L 67.071191 134.654935 
L 66.718112 136.393266 
L 66.288345 138.131596 
L 65.787284 139.869927 
L 65.222174 141.608257 
L 64.601789 143.346588 
L 63.935975 145.084919 
L 63.235139 146.823249 
L 62.509702 148.56158 
L 61.769594 150.299911 
L 61.023842 152.038241 
L 60.280283 153.776572 
L 59.545433 155.514902 
L 58.824505 157.253233 
L 58.121553 158.991564 
L 57.439697 160.729894 
L 56.781396 162.468225 
L 56.1487 164.206556 
L 55.54347 165.944886 
L 54.967533 167.683217 
L 54.422748 169.421547 
L 53.911019 171.159878 
L 53.434224 172.898209 
L 52.994108 174.636539 
L 52.994108 174.636539 
z
" clip-path="url(#p9b2ea9fbe0)" style="fill: none; stroke: #000000; stroke-opacity: 0.3"/>
   </g>
   <g id="FillBetweenPolyCollection_5">
    <path d="M 53.249369 169.936707 
L 47.550631 169.936707 
L 47.250891 168.801476 
L 46.951491 167.666246 
L 46.656114 166.531015 
L 46.367735 165.395785 
L 46.08832 164.260554 
L 45.81857 163.125323 
L 45.557742 161.990093 
L 45.303567 160.854862 
L 45.052279 159.719632 
L 44.798765 158.584401 
L 44.536829 157.449171 
L 44.25955 156.31394 
L 43.959721 155.178709 
L 43.630337 154.043479 
L 43.26509 152.908248 
L 42.858846 151.773018 
L 42.408065 150.637787 
L 41.911141 149.502557 
L 41.368629 148.367326 
L 40.783364 147.232095 
L 40.160446 146.096865 
L 39.50711 144.961634 
L 38.832474 143.826404 
L 38.147206 142.691173 
L 37.463098 141.555943 
L 36.792602 140.420712 
L 36.148328 139.285481 
L 35.542547 138.150251 
L 34.986717 137.01502 
L 34.491045 135.87979 
L 34.064128 134.744559 
L 33.712656 133.609329 
L 33.441219 132.474098 
L 33.252201 131.338867 
L 33.145777 130.203637 
L 33.12 129.068406 
L 33.170975 127.933176 
L 33.293114 126.797945 
L 33.479441 125.662715 
L 33.721955 124.527484 
L 34.012013 123.392253 
L 34.340717 122.257023 
L 34.699305 121.121792 
L 35.079494 119.986562 
L 35.473794 118.851331 
L 35.875751 117.716101 
L 36.280122 116.58087 
L 36.682966 115.445639 
L 37.08166 114.310409 
L 37.474819 113.175178 
L 37.862164 112.039948 
L 38.244305 110.904717 
L 38.6225 109.769487 
L 38.998377 108.634256 
L 39.373662 107.499025 
L 39.74992 106.363795 
L 40.12834 105.228564 
L 40.509564 104.093334 
L 40.893591 102.958103 
L 41.279737 101.822873 
L 41.666664 100.687642 
L 42.05246 99.552411 
L 42.434768 98.417181 
L 42.810933 97.28195 
L 43.178167 96.14672 
L 43.533703 95.011489 
L 43.874937 93.876259 
L 44.199541 92.741028 
L 44.505548 91.605797 
L 44.791412 90.470567 
L 45.056039 89.335336 
L 45.298801 88.200106 
L 45.519542 87.064875 
L 45.718569 85.929645 
L 45.896646 84.794414 
L 46.054978 83.659184 
L 46.195194 82.523953 
L 46.319313 81.388722 
L 46.429699 80.253492 
L 46.529002 79.118261 
L 46.620063 77.983031 
L 46.705825 76.8478 
L 46.789206 75.71257 
L 46.872984 74.577339 
L 46.959674 73.442108 
L 47.051427 72.306878 
L 47.149941 71.171647 
L 47.256412 70.036417 
L 47.37151 68.901186 
L 47.495389 67.765956 
L 47.627726 66.630725 
L 47.767785 65.495494 
L 47.914494 64.360264 
L 48.066526 63.225033 
L 48.222385 62.089803 
L 48.380479 60.954572 
L 48.539189 59.819342 
L 48.696919 58.684111 
L 48.852136 57.54888 
L 51.947864 57.54888 
L 51.947864 57.54888 
L 52.103081 58.684111 
L 52.260811 59.819342 
L 52.419521 60.954572 
L 52.577615 62.089803 
L 52.733474 63.225033 
L 52.885506 64.360264 
L 53.032215 65.495494 
L 53.172274 66.630725 
L 53.304611 67.765956 
L 53.42849 68.901186 
L 53.543588 70.036417 
L 53.650059 71.171647 
L 53.748573 72.306878 
L 53.840326 73.442108 
L 53.927016 74.577339 
L 54.010794 75.71257 
L 54.094175 76.8478 
L 54.179937 77.983031 
L 54.270998 79.118261 
L 54.370301 80.253492 
L 54.480687 81.388722 
L 54.604806 82.523953 
L 54.745022 83.659184 
L 54.903354 84.794414 
L 55.081431 85.929645 
L 55.280458 87.064875 
L 55.501199 88.200106 
L 55.743961 89.335336 
L 56.008588 90.470567 
L 56.294452 91.605797 
L 56.600459 92.741028 
L 56.925063 93.876259 
L 57.266297 95.011489 
L 57.621833 96.14672 
L 57.989067 97.28195 
L 58.365232 98.417181 
L 58.74754 99.552411 
L 59.133336 100.687642 
L 59.520263 101.822873 
L 59.906409 102.958103 
L 60.290436 104.093334 
L 60.67166 105.228564 
L 61.05008 106.363795 
L 61.426338 107.499025 
L 61.801623 108.634256 
L 62.1775 109.769487 
L 62.555695 110.904717 
L 62.937836 112.039948 
L 63.325181 113.175178 
L 63.71834 114.310409 
L 64.117034 115.445639 
L 64.519878 116.58087 
L 64.924249 117.716101 
L 65.326206 118.851331 
L 65.720506 119.986562 
L 66.100695 121.121792 
L 66.459283 122.257023 
L 66.787987 123.392253 
L 67.078045 124.527484 
L 67.320559 125.662715 
L 67.506886 126.797945 
L 67.629025 127.933176 
L 67.68 129.068406 
L 67.654223 130.203637 
L 67.547799 131.338867 
L 67.358781 132.474098 
L 67.087344 133.609329 
L 66.735872 134.744559 
L 66.308955 135.87979 
L 65.813283 137.01502 
L 65.257453 138.150251 
L 64.651672 139.285481 
L 64.007398 140.420712 
L 63.336902 141.555943 
L 62.652794 142.691173 
L 61.967526 143.826404 
L 61.29289 144.961634 
L 60.639554 146.096865 
L 60.016636 147.232095 
L 59.431371 148.367326 
L 58.888859 149.502557 
L 58.391935 150.637787 
L 57.941154 151.773018 
L 57.53491 152.908248 
L 57.169663 154.043479 
L 56.840279 155.178709 
L 56.54045 156.31394 
L 56.263171 157.449171 
L 56.001235 158.584401 
L 55.747721 159.719632 
L 55.496433 160.854862 
L 55.242258 161.990093 
L 54.98143 163.125323 
L 54.71168 164.260554 
L 54.432265 165.395785 
L 54.143886 166.531015 
L 53.848509 167.666246 
L 53.549109 168.801476 
L 53.249369 169.936707 
L 53.249369 169.936707 
z
" clip-path="url(#p9b2ea9fbe0)" style="fill: none; stroke: #000000; stroke-opacity: 0.3"/>
   </g>
   <g id="FillBetweenPolyCollection_6">
    <path d="M 50.984095 194.695808 
L 49.815905 194.695808 
L 49.745742 193.068851 
L 49.660948 191.441894 
L 49.554512 189.814937 
L 49.418352 188.18798 
L 49.243818 186.561023 
L 49.022305 184.934066 
L 48.745903 183.307109 
L 48.408057 181.680152 
L 48.004136 180.053195 
L 47.531898 178.426238 
L 46.991802 176.799281 
L 46.38715 175.172324 
L 45.724061 173.545367 
L 45.011262 171.91841 
L 44.259717 170.291453 
L 43.482097 168.664496 
L 42.692101 167.037539 
L 41.903652 165.410582 
L 41.130002 163.783625 
L 40.382807 162.156668 
L 39.671254 160.529712 
L 39.001354 158.902755 
L 38.375523 157.275798 
L 37.792576 155.648841 
L 37.248193 154.021884 
L 36.735883 152.394927 
L 36.248373 150.76797 
L 35.779241 149.141013 
L 35.324588 147.514056 
L 34.884439 145.887099 
L 34.463653 144.260142 
L 34.072119 142.633185 
L 33.724169 141.006228 
L 33.43724 139.379271 
L 33.229971 137.752314 
L 33.12 136.125357 
L 33.121776 134.4984 
L 33.244703 132.871443 
L 33.491862 131.244486 
L 33.859442 129.617529 
L 34.336929 127.990572 
L 34.907956 126.363615 
L 35.551689 124.736658 
L 36.24454 123.109701 
L 36.962029 121.482744 
L 37.680624 119.855787 
L 38.379408 118.22883 
L 39.041467 116.601873 
L 39.654899 114.974916 
L 40.213382 113.347959 
L 40.716223 111.721003 
L 41.1679 110.094046 
L 41.577092 108.467089 
L 41.955302 106.840132 
L 42.315225 105.213175 
L 42.669045 103.586218 
L 43.026917 101.959261 
L 43.395822 100.332304 
L 43.778975 98.705347 
L 44.175847 97.07839 
L 44.582762 95.451433 
L 44.993927 93.824476 
L 45.402678 92.197519 
L 45.802696 90.570562 
L 46.18896 88.943605 
L 46.558302 87.316648 
L 46.909494 85.689691 
L 47.242925 84.062734 
L 47.559993 82.435777 
L 47.862382 80.80882 
L 48.151412 79.181863 
L 48.427575 77.554906 
L 48.690345 75.927949 
L 48.93826 74.300992 
L 49.169214 72.674035 
L 49.380874 71.047078 
L 49.571114 69.420121 
L 49.738381 67.793164 
L 49.881925 66.166207 
L 50.001878 64.539251 
L 50.099187 62.912294 
L 50.175438 61.285337 
L 50.232615 59.65838 
L 50.272854 58.031423 
L 50.298229 56.404466 
L 50.310604 54.777509 
L 50.311578 53.150552 
L 50.302502 51.523595 
L 50.284579 49.896638 
L 50.259006 48.269681 
L 50.227126 46.642724 
L 50.190566 45.015767 
L 50.151303 43.38881 
L 50.111666 41.761853 
L 50.074226 40.134896 
L 50.041613 38.507939 
L 50.016273 36.880982 
L 50.000201 35.254025 
L 49.994704 33.627068 
L 50.805296 33.627068 
L 50.805296 33.627068 
L 50.799799 35.254025 
L 50.783727 36.880982 
L 50.758387 38.507939 
L 50.725774 40.134896 
L 50.688334 41.761853 
L 50.648697 43.38881 
L 50.609434 45.015767 
L 50.572874 46.642724 
L 50.540994 48.269681 
L 50.515421 49.896638 
L 50.497498 51.523595 
L 50.488422 53.150552 
L 50.489396 54.777509 
L 50.501771 56.404466 
L 50.527146 58.031423 
L 50.567385 59.65838 
L 50.624562 61.285337 
L 50.700813 62.912294 
L 50.798122 64.539251 
L 50.918075 66.166207 
L 51.061619 67.793164 
L 51.228886 69.420121 
L 51.419126 71.047078 
L 51.630786 72.674035 
L 51.86174 74.300992 
L 52.109655 75.927949 
L 52.372425 77.554906 
L 52.648588 79.181863 
L 52.937618 80.80882 
L 53.240007 82.435777 
L 53.557075 84.062734 
L 53.890506 85.689691 
L 54.241698 87.316648 
L 54.61104 88.943605 
L 54.997304 90.570562 
L 55.397322 92.197519 
L 55.806073 93.824476 
L 56.217238 95.451433 
L 56.624153 97.07839 
L 57.021025 98.705347 
L 57.404178 100.332304 
L 57.773083 101.959261 
L 58.130955 103.586218 
L 58.484775 105.213175 
L 58.844698 106.840132 
L 59.222908 108.467089 
L 59.6321 110.094046 
L 60.083777 111.721003 
L 60.586618 113.347959 
L 61.145101 114.974916 
L 61.758533 116.601873 
L 62.420592 118.22883 
L 63.119376 119.855787 
L 63.837971 121.482744 
L 64.55546 123.109701 
L 65.248311 124.736658 
L 65.892044 126.363615 
L 66.463071 127.990572 
L 66.940558 129.617529 
L 67.308138 131.244486 
L 67.555297 132.871443 
L 67.678224 134.4984 
L 67.68 136.125357 
L 67.570029 137.752314 
L 67.36276 139.379271 
L 67.075831 141.006228 
L 66.727881 142.633185 
L 66.336347 144.260142 
L 65.915561 145.887099 
L 65.475412 147.514056 
L 65.020759 149.141013 
L 64.551627 150.76797 
L 64.064117 152.394927 
L 63.551807 154.021884 
L 63.007424 155.648841 
L 62.424477 157.275798 
L 61.798646 158.902755 
L 61.128746 160.529712 
L 60.417193 162.156668 
L 59.669998 163.783625 
L 58.896348 165.410582 
L 58.107899 167.037539 
L 57.317903 168.664496 
L 56.540283 170.291453 
L 55.788738 171.91841 
L 55.075939 173.545367 
L 54.41285 175.172324 
L 53.808198 176.799281 
L 53.268102 178.426238 
L 52.795864 180.053195 
L 52.391943 181.680152 
L 52.054097 183.307109 
L 51.777695 184.934066 
L 51.556182 186.561023 
L 51.381648 188.18798 
L 51.245488 189.814937 
L 51.139052 191.441894 
L 51.054258 193.068851 
L 50.984095 194.695808 
L 50.984095 194.695808 
z
" clip-path="url(#p9b2ea9fbe0)" style="fill: none; stroke: #000000; stroke-opacity: 0.3"/>
   </g>
   <g id="FillBetweenPolyCollection_7">
    <path d="M 51.134842 199.189054 
L 49.665158 199.189054 
L 49.588306 197.434322 
L 49.512347 195.67959 
L 49.437815 193.924858 
L 49.364848 192.170127 
L 49.293055 190.415395 
L 49.221397 188.660663 
L 49.148069 186.905931 
L 49.070448 185.151199 
L 48.98509 183.396468 
L 48.887818 181.641736 
L 48.773886 179.887004 
L 48.638184 178.132272 
L 48.475481 176.37754 
L 48.280636 174.622809 
L 48.048766 172.868077 
L 47.775335 171.113345 
L 47.456182 169.358613 
L 47.087502 167.603882 
L 46.665821 165.84915 
L 46.188019 164.094418 
L 45.651435 162.339686 
L 45.054084 160.584954 
L 44.394983 158.830223 
L 43.674577 157.075491 
L 42.895212 155.320759 
L 42.0616 153.566027 
L 41.181229 151.811295 
L 40.264649 150.056564 
L 39.325592 148.301832 
L 38.380882 146.5471 
L 37.450116 144.792368 
L 36.555093 143.037637 
L 35.718997 141.282905 
L 34.965351 139.528173 
L 34.316778 137.773441 
L 33.793664 136.018709 
L 33.412801 134.263978 
L 33.186173 132.509246 
L 33.12 130.754514 
L 33.214206 128.999782 
L 33.46238 127.24505 
L 33.852288 125.490319 
L 34.366899 123.735587 
L 34.985797 121.980855 
L 35.686819 120.226123 
L 36.447687 118.471391 
L 37.247443 116.71666 
L 38.067503 114.961928 
L 38.892238 113.207196 
L 39.709088 111.452464 
L 40.508255 109.697733 
L 41.282148 107.943001 
L 42.024714 106.188269 
L 42.730832 104.433537 
L 43.395891 102.678805 
L 44.015592 100.924074 
L 44.586004 99.169342 
L 45.103785 97.41461 
L 45.56651 95.659878 
L 45.972994 93.905146 
L 46.32353 92.150415 
L 46.619997 90.395683 
L 46.865803 88.640951 
L 47.065697 86.886219 
L 47.225473 85.131488 
L 47.351624 83.376756 
L 47.451002 81.622024 
L 47.530507 79.867292 
L 47.596842 78.11256 
L 47.656332 76.357829 
L 47.714787 74.603097 
L 47.777402 72.848365 
L 47.848647 71.093633 
L 47.932156 69.338901 
L 48.030589 67.58417 
L 48.145495 65.829438 
L 48.277186 64.074706 
L 48.424673 62.319974 
L 48.585676 60.565242 
L 48.75674 58.810511 
L 48.933465 57.055779 
L 49.110829 55.301047 
L 49.283572 53.546315 
L 49.446611 51.791584 
L 49.595415 50.036852 
L 49.726333 48.28212 
L 49.836813 46.527388 
L 49.925525 44.772656 
L 49.992374 43.017925 
L 50.038428 41.263193 
L 50.06577 39.508461 
L 50.077302 37.753729 
L 50.076506 35.998997 
L 50.067196 34.244266 
L 50.05325 32.489534 
L 50.03836 30.734802 
L 50.025785 28.98007 
L 50.018155 27.225339 
L 50.01732 25.470607 
L 50.78268 25.470607 
L 50.78268 25.470607 
L 50.781845 27.225339 
L 50.774215 28.98007 
L 50.76164 30.734802 
L 50.74675 32.489534 
L 50.732804 34.244266 
L 50.723494 35.998997 
L 50.722698 37.753729 
L 50.73423 39.508461 
L 50.761572 41.263193 
L 50.807626 43.017925 
L 50.874475 44.772656 
L 50.963187 46.527388 
L 51.073667 48.28212 
L 51.204585 50.036852 
L 51.353389 51.791584 
L 51.516428 53.546315 
L 51.689171 55.301047 
L 51.866535 57.055779 
L 52.04326 58.810511 
L 52.214324 60.565242 
L 52.375327 62.319974 
L 52.522814 64.074706 
L 52.654505 65.829438 
L 52.769411 67.58417 
L 52.867844 69.338901 
L 52.951353 71.093633 
L 53.022598 72.848365 
L 53.085213 74.603097 
L 53.143668 76.357829 
L 53.203158 78.11256 
L 53.269493 79.867292 
L 53.348998 81.622024 
L 53.448376 83.376756 
L 53.574527 85.131488 
L 53.734303 86.886219 
L 53.934197 88.640951 
L 54.180003 90.395683 
L 54.47647 92.150415 
L 54.827006 93.905146 
L 55.23349 95.659878 
L 55.696215 97.41461 
L 56.213996 99.169342 
L 56.784408 100.924074 
L 57.404109 102.678805 
L 58.069168 104.433537 
L 58.775286 106.188269 
L 59.517852 107.943001 
L 60.291745 109.697733 
L 61.090912 111.452464 
L 61.907762 113.207196 
L 62.732497 114.961928 
L 63.552557 116.71666 
L 64.352313 118.471391 
L 65.113181 120.226123 
L 65.814203 121.980855 
L 66.433101 123.735587 
L 66.947712 125.490319 
L 67.33762 127.24505 
L 67.585794 128.999782 
L 67.68 130.754514 
L 67.613827 132.509246 
L 67.387199 134.263978 
L 67.006336 136.018709 
L 66.483222 137.773441 
L 65.834649 139.528173 
L 65.081003 141.282905 
L 64.244907 143.037637 
L 63.349884 144.792368 
L 62.419118 146.5471 
L 61.474408 148.301832 
L 60.535351 150.056564 
L 59.618771 151.811295 
L 58.7384 153.566027 
L 57.904788 155.320759 
L 57.125423 157.075491 
L 56.405017 158.830223 
L 55.745916 160.584954 
L 55.148565 162.339686 
L 54.611981 164.094418 
L 54.134179 165.84915 
L 53.712498 167.603882 
L 53.343818 169.358613 
L 53.024665 171.113345 
L 52.751234 172.868077 
L 52.519364 174.622809 
L 52.324519 176.37754 
L 52.161816 178.132272 
L 52.026114 179.887004 
L 51.912182 181.641736 
L 51.81491 183.396468 
L 51.729552 185.151199 
L 51.651931 186.905931 
L 51.578603 188.660663 
L 51.506945 190.415395 
L 51.435152 192.170127 
L 51.362185 193.924858 
L 51.287653 195.67959 
L 51.211694 197.434322 
L 51.134842 199.189054 
L 51.134842 199.189054 
z
" clip-path="url(#p9b2ea9fbe0)" style="fill: none; stroke: #000000; stroke-opacity: 0.3"/>
   </g>
   <g id="FillBetweenPolyCollection_8">
    <path d="M 108.224704 256.702046 
L 107.775296 256.702046 
L 107.781955 254.036039 
L 107.800773 251.370033 
L 107.828597 248.704026 
L 107.861146 246.038019 
L 107.894082 243.372013 
L 107.923924 240.706006 
L 107.948549 238.039999 
L 107.967235 235.373993 
L 107.980353 232.707986 
L 107.988907 230.041979 
L 107.994103 227.375973 
L 107.997048 224.709966 
L 107.998608 222.043959 
L 107.999382 219.377953 
L 107.99974 216.711946 
L 107.999892 214.045939 
L 107.999942 211.379933 
L 107.999927 208.713926 
L 107.999828 206.047919 
L 107.999557 203.381913 
L 107.9989 200.715906 
L 107.997416 198.049899 
L 107.994255 195.383893 
L 107.987908 192.717886 
L 107.975873 190.051879 
L 107.954291 187.385872 
L 107.917614 184.719866 
L 107.858394 182.053859 
L 107.767268 179.387852 
L 107.633172 176.721846 
L 107.443767 174.055839 
L 107.1861 171.389832 
L 106.84754 168.723826 
L 106.417113 166.057819 
L 105.887259 163.391812 
L 105.255761 160.725806 
L 104.52716 158.059799 
L 103.712716 155.393792 
L 102.828193 152.727786 
L 101.889589 150.061779 
L 100.90817 147.395772 
L 99.887085 144.729766 
L 98.821837 142.063759 
L 97.705647 139.397752 
L 96.538681 136.731746 
L 95.338073 134.065739 
L 94.144622 131.399732 
L 93.022612 128.733725 
L 92.051258 126.067719 
L 91.309242 123.401712 
L 90.856643 120.735705 
L 90.72 118.069699 
L 90.885683 115.403692 
L 91.303948 112.737685 
L 91.902154 110.071679 
L 92.602242 107.405672 
L 93.336432 104.739665 
L 94.05666 102.073659 
L 94.736624 99.407652 
L 95.368552 96.741645 
L 95.958105 94.075639 
L 96.519964 91.409632 
L 97.074494 88.743625 
L 97.644309 86.077619 
L 98.249481 83.411612 
L 98.901575 80.745605 
L 99.598349 78.079599 
L 100.321729 75.413592 
L 101.040735 72.747585 
L 101.719078 70.081579 
L 102.325018 67.415572 
L 102.839988 64.749565 
L 103.262939 62.083558 
L 103.609129 59.417552 
L 103.904233 56.751545 
L 104.176292 54.085538 
L 104.448433 51.419532 
L 104.734482 48.753525 
L 105.038129 46.087518 
L 105.354914 43.421512 
L 105.675564 40.755505 
L 105.989273 38.089498 
L 106.286079 35.423492 
L 106.558166 32.757485 
L 106.800357 30.091478 
L 107.010153 27.425472 
L 107.187513 24.759465 
L 107.334395 22.093458 
L 107.454004 19.427452 
L 107.54988 16.761445 
L 107.625068 14.095438 
L 107.681718 11.429432 
L 107.721302 8.763425 
L 107.745338 6.097418 
L 107.756256 3.431412 
L 107.757915 0.765405 
L 107.756277 -1 
M 108.243723 -1 
L 108.242085 0.765405 
L 108.243744 3.431412 
L 108.254662 6.097418 
L 108.278698 8.763425 
L 108.318282 11.429432 
L 108.374932 14.095438 
L 108.45012 16.761445 
L 108.545996 19.427452 
L 108.665605 22.093458 
L 108.812487 24.759465 
L 108.989847 27.425472 
L 109.199643 30.091478 
L 109.441834 32.757485 
L 109.713921 35.423492 
L 110.010727 38.089498 
L 110.324436 40.755505 
L 110.645086 43.421512 
L 110.961871 46.087518 
L 111.265518 48.753525 
L 111.551567 51.419532 
L 111.823708 54.085538 
L 112.095767 56.751545 
L 112.390871 59.417552 
L 112.737061 62.083558 
L 113.160012 64.749565 
L 113.674982 67.415572 
L 114.280922 70.081579 
L 114.959265 72.747585 
L 115.678271 75.413592 
L 116.401651 78.079599 
L 117.098425 80.745605 
L 117.750519 83.411612 
L 118.355691 86.077619 
L 118.925506 88.743625 
L 119.480036 91.409632 
L 120.041895 94.075639 
L 120.631448 96.741645 
L 121.263376 99.407652 
L 121.94334 102.073659 
L 122.663568 104.739665 
L 123.397758 107.405672 
L 124.097846 110.071679 
L 124.696052 112.737685 
L 125.114317 115.403692 
L 125.28 118.069699 
L 125.143357 120.735705 
L 124.690758 123.401712 
L 123.948742 126.067719 
L 122.977388 128.733725 
L 121.855378 131.399732 
L 120.661927 134.065739 
L 119.461319 136.731746 
L 118.294353 139.397752 
L 117.178163 142.063759 
L 116.112915 144.729766 
L 115.09183 147.395772 
L 114.110411 150.061779 
L 113.171807 152.727786 
L 112.287284 155.393792 
L 111.47284 158.059799 
L 110.744239 160.725806 
L 110.112741 163.391812 
L 109.582887 166.057819 
L 109.15246 168.723826 
L 108.8139 171.389832 
L 108.556233 174.055839 
L 108.366828 176.721846 
L 108.232732 179.387852 
L 108.141606 182.053859 
L 108.082386 184.719866 
L 108.045709 187.385872 
L 108.024127 190.051879 
L 108.012092 192.717886 
L 108.005745 195.383893 
L 108.002584 198.049899 
L 108.0011 200.715906 
L 108.000443 203.381913 
L 108.000172 206.047919 
L 108.000073 208.713926 
L 108.000058 211.379933 
L 108.000108 214.045939 
L 108.00026 216.711946 
L 108.000618 219.377953 
L 108.001392 222.043959 
L 108.002952 224.709966 
L 108.005897 227.375973 
L 108.011093 230.041979 
L 108.019647 232.707986 
L 108.032765 235.373993 
L 108.051451 238.039999 
L 108.076076 240.706006 
L 108.105918 243.372013 
L 108.138854 246.038019 
L 108.171403 248.704026 
L 108.199227 251.370033 
L 108.218045 254.036039 
L 108.224704 256.702046 
L 108.224704 256.702046 
" clip-path="url(#p9b2ea9fbe0)" style="fill: none; stroke: #000000; stroke-opacity: 0.3"/>
   </g>
   <g id="FillBetweenPolyCollection_9">
    <path d="M 109.543583 159.012715 
L 106.456417 159.012715 
L 106.204088 157.708593 
L 105.927546 156.404471 
L 105.626897 155.100349 
L 105.302502 153.796228 
L 104.954952 152.492106 
L 104.585048 151.187984 
L 104.193766 149.883862 
L 103.782218 148.579741 
L 103.351622 147.275619 
L 102.903263 145.971497 
L 102.438475 144.667375 
L 101.958626 143.363254 
L 101.465119 142.059132 
L 100.959403 140.75501 
L 100.44299 139.450888 
L 99.91747 138.146767 
L 99.384516 136.842645 
L 98.845869 135.538523 
L 98.303308 134.234401 
L 97.75861 132.93028 
L 97.213499 131.626158 
L 96.669632 130.322036 
L 96.128605 129.017914 
L 95.592034 127.713793 
L 95.06169 126.409671 
L 94.539696 125.105549 
L 94.02876 123.801427 
L 93.532408 122.497306 
L 93.055158 121.193184 
L 92.602601 119.889062 
L 92.181342 118.58494 
L 91.798783 117.280819 
L 91.462747 115.976697 
L 91.180997 114.672575 
L 90.96068 113.368453 
L 90.807795 112.064332 
L 90.726737 110.76021 
L 90.72 109.456088 
L 90.788063 108.151966 
L 90.929475 106.847845 
L 91.141122 105.543723 
L 91.418604 104.239601 
L 91.756687 102.935479 
L 92.149717 101.631358 
L 92.591969 100.327236 
L 93.077859 99.023114 
L 93.602017 97.718992 
L 94.159224 96.41487 
L 94.744251 95.110749 
L 95.351651 93.806627 
L 95.975562 92.502505 
L 96.609575 91.198383 
L 97.246701 89.894262 
L 97.879469 88.59014 
L 98.500136 87.286018 
L 99.101004 85.981896 
L 99.674793 84.677775 
L 100.215035 83.373653 
L 100.71643 82.069531 
L 101.175129 80.765409 
L 101.588901 79.461288 
L 101.957175 78.157166 
L 102.280947 76.853044 
L 102.56256 75.548922 
L 102.805391 74.244801 
L 103.013478 72.940679 
L 103.191126 71.636557 
L 103.342538 70.332435 
L 103.471511 69.028314 
L 103.581225 67.724192 
L 103.67414 66.42007 
L 103.752012 65.115948 
L 103.816008 63.811827 
L 103.866909 62.507705 
L 103.905358 61.203583 
L 103.932127 59.899461 
L 103.948358 58.59534 
L 103.955763 57.291218 
L 103.956739 55.987096 
L 103.954393 54.682974 
L 103.952476 53.378853 
L 103.955219 52.074731 
L 103.967102 50.770609 
L 103.992566 49.466487 
L 104.0357 48.162366 
L 104.099936 46.858244 
L 104.187788 45.554122 
L 104.300645 44.25 
L 104.438662 42.945879 
L 104.600743 41.641757 
L 104.784617 40.337635 
L 104.987007 39.033513 
L 105.203868 37.729392 
L 105.430657 36.42527 
L 105.662629 35.121148 
L 105.895108 33.817026 
L 106.12373 32.512905 
L 106.344628 31.208783 
L 106.55456 29.904661 
L 109.44544 29.904661 
L 109.44544 29.904661 
L 109.655372 31.208783 
L 109.87627 32.512905 
L 110.104892 33.817026 
L 110.337371 35.121148 
L 110.569343 36.42527 
L 110.796132 37.729392 
L 111.012993 39.033513 
L 111.215383 40.337635 
L 111.399257 41.641757 
L 111.561338 42.945879 
L 111.699355 44.25 
L 111.812212 45.554122 
L 111.900064 46.858244 
L 111.9643 48.162366 
L 112.007434 49.466487 
L 112.032898 50.770609 
L 112.044781 52.074731 
L 112.047524 53.378853 
L 112.045607 54.682974 
L 112.043261 55.987096 
L 112.044237 57.291218 
L 112.051642 58.59534 
L 112.067873 59.899461 
L 112.094642 61.203583 
L 112.133091 62.507705 
L 112.183992 63.811827 
L 112.247988 65.115948 
L 112.32586 66.42007 
L 112.418775 67.724192 
L 112.528489 69.028314 
L 112.657462 70.332435 
L 112.808874 71.636557 
L 112.986522 72.940679 
L 113.194609 74.244801 
L 113.43744 75.548922 
L 113.719053 76.853044 
L 114.042825 78.157166 
L 114.411099 79.461288 
L 114.824871 80.765409 
L 115.28357 82.069531 
L 115.784965 83.373653 
L 116.325207 84.677775 
L 116.898996 85.981896 
L 117.499864 87.286018 
L 118.120531 88.59014 
L 118.753299 89.894262 
L 119.390425 91.198383 
L 120.024438 92.502505 
L 120.648349 93.806627 
L 121.255749 95.110749 
L 121.840776 96.41487 
L 122.397983 97.718992 
L 122.922141 99.023114 
L 123.408031 100.327236 
L 123.850283 101.631358 
L 124.243313 102.935479 
L 124.581396 104.239601 
L 124.858878 105.543723 
L 125.070525 106.847845 
L 125.211937 108.151966 
L 125.28 109.456088 
L 125.273263 110.76021 
L 125.192205 112.064332 
L 125.03932 113.368453 
L 124.819003 114.672575 
L 124.537253 115.976697 
L 124.201217 117.280819 
L 123.818658 118.58494 
L 123.397399 119.889062 
L 122.944842 121.193184 
L 122.467592 122.497306 
L 121.97124 123.801427 
L 121.460304 125.105549 
L 120.93831 126.409671 
L 120.407966 127.713793 
L 119.871395 129.017914 
L 119.330368 130.322036 
L 118.786501 131.626158 
L 118.24139 132.93028 
L 117.696692 134.234401 
L 117.154131 135.538523 
L 116.615484 136.842645 
L 116.08253 138.146767 
L 115.55701 139.450888 
L 115.040597 140.75501 
L 114.534881 142.059132 
L 114.041374 143.363254 
L 113.561525 144.667375 
L 113.096737 145.971497 
L 112.648378 147.275619 
L 112.217782 148.579741 
L 111.806234 149.883862 
L 111.414952 151.187984 
L 111.045048 152.492106 
L 110.697498 153.796228 
L 110.373103 155.100349 
L 110.072454 156.404471 
L 109.795912 157.708593 
L 109.543583 159.012715 
L 109.543583 159.012715 
z
" clip-path="url(#p9b2ea9fbe0)" style="fill: none; stroke: #000000; stroke-opacity: 0.3"/>
   </g>
   <g id="FillBetweenPolyCollection_10">
    <path d="M 109.305531 163.957149 
L 106.694469 163.957149 
L 106.464156 162.522085 
L 106.211733 161.087021 
L 105.937263 159.651957 
L 105.640899 158.216892 
L 105.322914 156.781828 
L 104.983741 155.346764 
L 104.624011 153.9117 
L 104.244548 152.476636 
L 103.846309 151.041572 
L 103.430242 149.606508 
L 102.99707 148.171443 
L 102.54704 146.736379 
L 102.079659 145.301315 
L 101.593506 143.866251 
L 101.086163 142.431187 
L 100.554341 140.996123 
L 99.994213 139.561058 
L 99.401982 138.125994 
L 98.774612 136.69093 
L 98.110689 135.255866 
L 97.411267 133.820802 
L 96.680616 132.385738 
L 95.926734 130.950674 
L 95.161521 129.515609 
L 94.40055 128.080545 
L 93.662406 126.645481 
L 92.967605 125.210417 
L 92.337183 123.775353 
L 91.791059 122.340289 
L 91.346356 120.905225 
L 91.015853 119.47016 
L 90.806762 118.035096 
L 90.72 116.600032 
L 90.750076 115.164968 
L 90.885641 113.729904 
L 91.110663 112.29484 
L 91.406091 110.859776 
L 91.751815 109.424711 
L 92.12865 107.989647 
L 92.520083 106.554583 
L 92.91354 105.119519 
L 93.301032 103.684455 
L 93.67911 102.249391 
L 94.048206 100.814327 
L 94.411519 99.379262 
L 94.773689 97.944198 
L 95.1395 96.509134 
L 95.51284 95.07407 
L 95.896053 93.639006 
L 96.289735 92.203942 
L 96.69291 90.768878 
L 97.103476 89.333813 
L 97.518738 87.898749 
L 97.9359 86.463685 
L 98.3524 85.028621 
L 98.766053 83.593557 
L 99.175032 82.158493 
L 99.577752 80.723428 
L 99.972761 79.288364 
L 100.358692 77.8533 
L 100.734328 76.418236 
L 101.098752 74.983172 
L 101.451539 73.548108 
L 101.792905 72.113044 
L 102.123747 70.677979 
L 102.445533 69.242915 
L 102.760043 67.807851 
L 103.069001 66.372787 
L 103.37369 64.937723 
L 103.674625 63.502659 
L 103.971367 62.067595 
L 104.262522 60.63253 
L 104.545905 59.197466 
L 104.81885 57.762402 
L 105.078573 56.327338 
L 105.322507 54.892274 
L 105.54857 53.45721 
L 105.755296 52.022146 
L 105.941855 50.587081 
L 106.107983 49.152017 
L 106.253872 47.716953 
L 106.380063 46.281889 
L 106.487388 44.846825 
L 106.576958 43.411761 
L 106.650199 41.976697 
L 106.708894 40.541632 
L 106.755214 39.106568 
L 106.791703 37.671504 
L 106.821195 36.23644 
L 106.846694 34.801376 
L 106.871199 33.366312 
L 106.89752 31.931248 
L 106.928102 30.496183 
L 106.964875 29.061119 
L 107.009139 27.626055 
L 107.061503 26.190991 
L 107.121864 24.755927 
L 107.189444 23.320863 
L 107.262872 21.885798 
L 108.737128 21.885798 
L 108.737128 21.885798 
L 108.810556 23.320863 
L 108.878136 24.755927 
L 108.938497 26.190991 
L 108.990861 27.626055 
L 109.035125 29.061119 
L 109.071898 30.496183 
L 109.10248 31.931248 
L 109.128801 33.366312 
L 109.153306 34.801376 
L 109.178805 36.23644 
L 109.208297 37.671504 
L 109.244786 39.106568 
L 109.291106 40.541632 
L 109.349801 41.976697 
L 109.423042 43.411761 
L 109.512612 44.846825 
L 109.619937 46.281889 
L 109.746128 47.716953 
L 109.892017 49.152017 
L 110.058145 50.587081 
L 110.244704 52.022146 
L 110.45143 53.45721 
L 110.677493 54.892274 
L 110.921427 56.327338 
L 111.18115 57.762402 
L 111.454095 59.197466 
L 111.737478 60.63253 
L 112.028633 62.067595 
L 112.325375 63.502659 
L 112.62631 64.937723 
L 112.930999 66.372787 
L 113.239957 67.807851 
L 113.554467 69.242915 
L 113.876253 70.677979 
L 114.207095 72.113044 
L 114.548461 73.548108 
L 114.901248 74.983172 
L 115.265672 76.418236 
L 115.641308 77.8533 
L 116.027239 79.288364 
L 116.422248 80.723428 
L 116.824968 82.158493 
L 117.233947 83.593557 
L 117.6476 85.028621 
L 118.0641 86.463685 
L 118.481262 87.898749 
L 118.896524 89.333813 
L 119.30709 90.768878 
L 119.710265 92.203942 
L 120.103947 93.639006 
L 120.48716 95.07407 
L 120.8605 96.509134 
L 121.226311 97.944198 
L 121.588481 99.379262 
L 121.951794 100.814327 
L 122.32089 102.249391 
L 122.698968 103.684455 
L 123.08646 105.119519 
L 123.479917 106.554583 
L 123.87135 107.989647 
L 124.248185 109.424711 
L 124.593909 110.859776 
L 124.889337 112.29484 
L 125.114359 113.729904 
L 125.249924 115.164968 
L 125.28 116.600032 
L 125.193238 118.035096 
L 124.984147 119.47016 
L 124.653644 120.905225 
L 124.208941 122.340289 
L 123.662817 123.775353 
L 123.032395 125.210417 
L 122.337594 126.645481 
L 121.59945 128.080545 
L 120.838479 129.515609 
L 120.073266 130.950674 
L 119.319384 132.385738 
L 118.588733 133.820802 
L 117.889311 135.255866 
L 117.225388 136.69093 
L 116.598018 138.125994 
L 116.005787 139.561058 
L 115.445659 140.996123 
L 114.913837 142.431187 
L 114.406494 143.866251 
L 113.920341 145.301315 
L 113.45296 146.736379 
L 113.00293 148.171443 
L 112.569758 149.606508 
L 112.153691 151.041572 
L 111.755452 152.476636 
L 111.375989 153.9117 
L 111.016259 155.346764 
L 110.677086 156.781828 
L 110.359101 158.216892 
L 110.062737 159.651957 
L 109.788267 161.087021 
L 109.535844 162.522085 
L 109.305531 163.957149 
L 109.305531 163.957149 
z
" clip-path="url(#p9b2ea9fbe0)" style="fill: none; stroke: #000000; stroke-opacity: 0.3"/>
   </g>
   <g id="FillBetweenPolyCollection_11">
    <path d="M 109.486705 161.73385 
L 106.513295 161.73385 
L 106.300022 160.301893 
L 106.069413 158.869936 
L 105.820503 157.437979 
L 105.552167 156.006023 
L 105.263247 154.574066 
L 104.952701 153.142109 
L 104.619778 151.710152 
L 104.264157 150.278195 
L 103.886053 148.846238 
L 103.486252 147.414281 
L 103.066079 145.982325 
L 102.627293 144.550368 
L 102.171951 143.118411 
L 101.702234 141.686454 
L 101.220294 140.254497 
L 100.728123 138.82254 
L 100.22747 137.390583 
L 99.719803 135.958627 
L 99.206313 134.52667 
L 98.687947 133.094713 
L 98.165458 131.662756 
L 97.639472 130.230799 
L 97.110556 128.798842 
L 96.579315 127.366885 
L 96.04652 125.934929 
L 95.513267 124.502972 
L 94.981186 123.071015 
L 94.452691 121.639058 
L 93.931221 120.207101 
L 93.421476 118.775144 
L 92.929564 117.343188 
L 92.463046 115.911231 
L 92.030815 114.479274 
L 91.642814 113.047317 
L 91.309574 111.61536 
L 91.041613 110.183403 
L 90.848755 108.751446 
L 90.739423 107.31949 
L 90.72 105.887533 
L 90.794324 104.455576 
L 90.963375 103.023619 
L 91.225185 101.591662 
L 91.574972 100.159705 
L 92.005451 98.727748 
L 92.507292 97.295792 
L 93.06963 95.863835 
L 93.680583 94.431878 
L 94.327719 92.999921 
L 94.998442 91.567964 
L 95.680307 90.136007 
L 96.361278 88.70405 
L 97.029966 87.272094 
L 97.675887 85.840137 
L 98.289755 84.40818 
L 98.863811 82.976223 
L 99.392168 81.544266 
L 99.871118 80.112309 
L 100.299338 78.680352 
L 100.677947 77.248396 
L 101.010372 75.816439 
L 101.301997 74.384482 
L 101.559647 72.952525 
L 101.790931 71.520568 
L 102.003546 70.088611 
L 102.20462 68.656655 
L 102.400175 67.224698 
L 102.594778 65.792741 
L 102.791395 64.360784 
L 102.991461 62.928827 
L 103.195123 61.49687 
L 103.401596 60.064913 
L 103.609571 58.632957 
L 103.81761 57.201 
L 104.024466 55.769043 
L 104.229286 54.337086 
L 104.431699 52.905129 
L 104.631766 51.473172 
L 104.829842 50.041215 
L 105.02636 48.609259 
L 105.221607 47.177302 
L 105.41551 45.745345 
L 105.607495 44.313388 
L 105.796426 42.881431 
L 105.980651 41.449474 
L 106.158139 40.017517 
L 106.326688 38.585561 
L 106.484182 37.153604 
L 106.628834 35.721647 
L 106.759409 34.28969 
L 106.875366 32.857733 
L 106.976917 31.425776 
L 107.064995 29.99382 
L 107.141142 28.561863 
L 107.20733 27.129906 
L 107.265751 25.697949 
L 107.318601 24.265992 
L 107.367883 22.834035 
L 107.415254 21.402078 
L 107.46192 19.970122 
L 108.53808 19.970122 
L 108.53808 19.970122 
L 108.584746 21.402078 
L 108.632117 22.834035 
L 108.681399 24.265992 
L 108.734249 25.697949 
L 108.79267 27.129906 
L 108.858858 28.561863 
L 108.935005 29.99382 
L 109.023083 31.425776 
L 109.124634 32.857733 
L 109.240591 34.28969 
L 109.371166 35.721647 
L 109.515818 37.153604 
L 109.673312 38.585561 
L 109.841861 40.017517 
L 110.019349 41.449474 
L 110.203574 42.881431 
L 110.392505 44.313388 
L 110.58449 45.745345 
L 110.778393 47.177302 
L 110.97364 48.609259 
L 111.170158 50.041215 
L 111.368234 51.473172 
L 111.568301 52.905129 
L 111.770714 54.337086 
L 111.975534 55.769043 
L 112.18239 57.201 
L 112.390429 58.632957 
L 112.598404 60.064913 
L 112.804877 61.49687 
L 113.008539 62.928827 
L 113.208605 64.360784 
L 113.405222 65.792741 
L 113.599825 67.224698 
L 113.79538 68.656655 
L 113.996454 70.088611 
L 114.209069 71.520568 
L 114.440353 72.952525 
L 114.698003 74.384482 
L 114.989628 75.816439 
L 115.322053 77.248396 
L 115.700662 78.680352 
L 116.128882 80.112309 
L 116.607832 81.544266 
L 117.136189 82.976223 
L 117.710245 84.40818 
L 118.324113 85.840137 
L 118.970034 87.272094 
L 119.638722 88.70405 
L 120.319693 90.136007 
L 121.001558 91.567964 
L 121.672281 92.999921 
L 122.319417 94.431878 
L 122.93037 95.863835 
L 123.492708 97.295792 
L 123.994549 98.727748 
L 124.425028 100.159705 
L 124.774815 101.591662 
L 125.036625 103.023619 
L 125.205676 104.455576 
L 125.28 105.887533 
L 125.260577 107.31949 
L 125.151245 108.751446 
L 124.958387 110.183403 
L 124.690426 111.61536 
L 124.357186 113.047317 
L 123.969185 114.479274 
L 123.536954 115.911231 
L 123.070436 117.343188 
L 122.578524 118.775144 
L 122.068779 120.207101 
L 121.547309 121.639058 
L 121.018814 123.071015 
L 120.486733 124.502972 
L 119.95348 125.934929 
L 119.420685 127.366885 
L 118.889444 128.798842 
L 118.360528 130.230799 
L 117.834542 131.662756 
L 117.312053 133.094713 
L 116.793687 134.52667 
L 116.280197 135.958627 
L 115.77253 137.390583 
L 115.271877 138.82254 
L 114.779706 140.254497 
L 114.297766 141.686454 
L 113.828049 143.118411 
L 113.372707 144.550368 
L 112.933921 145.982325 
L 112.513748 147.414281 
L 112.113947 148.846238 
L 111.735843 150.278195 
L 111.380222 151.710152 
L 111.047299 153.142109 
L 110.736753 154.574066 
L 110.447833 156.006023 
L 110.179497 157.437979 
L 109.930587 158.869936 
L 109.699978 160.301893 
L 109.486705 161.73385 
L 109.486705 161.73385 
z
" clip-path="url(#p9b2ea9fbe0)" style="fill: none; stroke: #000000; stroke-opacity: 0.3"/>
   </g>
   <g id="FillBetweenPolyCollection_12">
    <path d="M 109.831693 183.360937 
L 106.168307 183.360937 
L 106.061474 181.908407 
L 105.961379 180.455877 
L 105.869179 179.003347 
L 105.785829 177.550818 
L 105.712042 176.098288 
L 105.648252 174.645758 
L 105.594585 173.193228 
L 105.55083 171.740699 
L 105.516418 170.288169 
L 105.490406 168.835639 
L 105.471457 167.383109 
L 105.457837 165.93058 
L 105.447407 164.47805 
L 105.437624 163.02552 
L 105.42555 161.57299 
L 105.407865 160.120461 
L 105.380893 158.667931 
L 105.340639 157.215401 
L 105.282841 155.762871 
L 105.203037 154.310342 
L 105.096649 152.857812 
L 104.959088 151.405282 
L 104.785874 149.952752 
L 104.572776 148.500223 
L 104.315958 147.047693 
L 104.012148 145.595163 
L 103.658793 144.142633 
L 103.25422 142.690104 
L 102.797786 141.237574 
L 102.289998 139.785044 
L 101.73261 138.332514 
L 101.128683 136.879985 
L 100.482596 135.427455 
L 99.800015 133.974925 
L 99.087808 132.522395 
L 98.353914 131.069866 
L 97.607162 129.617336 
L 96.857051 128.164806 
L 96.113502 126.712276 
L 95.386582 125.259747 
L 94.686223 123.807217 
L 94.021937 122.354687 
L 93.402551 120.902157 
L 92.835958 119.449628 
L 92.328913 117.997098 
L 91.88686 116.544568 
L 91.513815 115.092038 
L 91.212295 113.639509 
L 90.983307 112.186979 
L 90.82638 110.734449 
L 90.739651 109.281919 
L 90.72 107.82939 
L 90.763208 106.37686 
L 90.864158 104.92433 
L 91.017052 103.4718 
L 91.215633 102.019271 
L 91.45342 100.566741 
L 91.723924 99.114211 
L 92.020854 97.661681 
L 92.338296 96.209151 
L 92.670857 94.756622 
L 93.013783 93.304092 
L 93.363029 91.851562 
L 93.715296 90.399032 
L 94.068032 88.946503 
L 94.419401 87.493973 
L 94.768219 86.041443 
L 95.113878 84.588913 
L 95.456252 83.136384 
L 95.7956 81.683854 
L 96.132462 80.231324 
L 96.467576 78.778794 
L 96.801785 77.326265 
L 97.135972 75.873735 
L 97.471001 74.421205 
L 97.807668 72.968675 
L 98.146667 71.516146 
L 98.488562 70.063616 
L 98.833765 68.611086 
L 99.182516 67.158556 
L 99.534872 65.706027 
L 99.89069 64.253497 
L 100.249624 62.800967 
L 100.611116 61.348437 
L 100.974398 59.895908 
L 101.3385 58.443378 
L 101.702271 56.990848 
L 102.064399 55.538318 
L 102.423451 54.085789 
L 102.777911 52.633259 
L 103.126231 51.180729 
L 103.466878 49.728199 
L 103.798385 48.27567 
L 104.119393 46.82314 
L 104.42869 45.37061 
L 104.72524 43.91808 
L 105.0082 42.465551 
L 105.276928 41.013021 
L 105.530978 39.560491 
L 110.469022 39.560491 
L 110.469022 39.560491 
L 110.723072 41.013021 
L 110.9918 42.465551 
L 111.27476 43.91808 
L 111.57131 45.37061 
L 111.880607 46.82314 
L 112.201615 48.27567 
L 112.533122 49.728199 
L 112.873769 51.180729 
L 113.222089 52.633259 
L 113.576549 54.085789 
L 113.935601 55.538318 
L 114.297729 56.990848 
L 114.6615 58.443378 
L 115.025602 59.895908 
L 115.388884 61.348437 
L 115.750376 62.800967 
L 116.10931 64.253497 
L 116.465128 65.706027 
L 116.817484 67.158556 
L 117.166235 68.611086 
L 117.511438 70.063616 
L 117.853333 71.516146 
L 118.192332 72.968675 
L 118.528999 74.421205 
L 118.864028 75.873735 
L 119.198215 77.326265 
L 119.532424 78.778794 
L 119.867538 80.231324 
L 120.2044 81.683854 
L 120.543748 83.136384 
L 120.886122 84.588913 
L 121.231781 86.041443 
L 121.580599 87.493973 
L 121.931968 88.946503 
L 122.284704 90.399032 
L 122.636971 91.851562 
L 122.986217 93.304092 
L 123.329143 94.756622 
L 123.661704 96.209151 
L 123.979146 97.661681 
L 124.276076 99.114211 
L 124.54658 100.566741 
L 124.784367 102.019271 
L 124.982948 103.4718 
L 125.135842 104.92433 
L 125.236792 106.37686 
L 125.28 107.82939 
L 125.260349 109.281919 
L 125.17362 110.734449 
L 125.016693 112.186979 
L 124.787705 113.639509 
L 124.486185 115.092038 
L 124.11314 116.544568 
L 123.671087 117.997098 
L 123.164042 119.449628 
L 122.597449 120.902157 
L 121.978063 122.354687 
L 121.313777 123.807217 
L 120.613418 125.259747 
L 119.886498 126.712276 
L 119.142949 128.164806 
L 118.392838 129.617336 
L 117.646086 131.069866 
L 116.912192 132.522395 
L 116.199985 133.974925 
L 115.517404 135.427455 
L 114.871317 136.879985 
L 114.26739 138.332514 
L 113.710002 139.785044 
L 113.202214 141.237574 
L 112.74578 142.690104 
L 112.341207 144.142633 
L 111.987852 145.595163 
L 111.684042 147.047693 
L 111.427224 148.500223 
L 111.214126 149.952752 
L 111.040912 151.405282 
L 110.903351 152.857812 
L 110.796963 154.310342 
L 110.717159 155.762871 
L 110.659361 157.215401 
L 110.619107 158.667931 
L 110.592135 160.120461 
L 110.57445 161.57299 
L 110.562376 163.02552 
L 110.552593 164.47805 
L 110.542163 165.93058 
L 110.528543 167.383109 
L 110.509594 168.835639 
L 110.483582 170.288169 
L 110.44917 171.740699 
L 110.405415 173.193228 
L 110.351748 174.645758 
L 110.287958 176.098288 
L 110.214171 177.550818 
L 110.130821 179.003347 
L 110.038621 180.455877 
L 109.938526 181.908407 
L 109.831693 183.360937 
L 109.831693 183.360937 
z
" clip-path="url(#p9b2ea9fbe0)" style="fill: none; stroke: #000000; stroke-opacity: 0.3"/>
   </g>
   <g id="FillBetweenPolyCollection_13">
    <path d="M 113.784696 156.334672 
L 102.215304 156.334672 
L 101.82113 155.0782 
L 101.42945 153.821728 
L 101.042398 152.565256 
L 100.661802 151.308785 
L 100.289133 150.052313 
L 99.92546 148.795841 
L 99.571422 147.539369 
L 99.227218 146.282897 
L 98.892613 145.026425 
L 98.566959 143.769953 
L 98.249236 142.513482 
L 97.938105 141.25701 
L 97.631974 140.000538 
L 97.329078 138.744066 
L 97.027565 137.487594 
L 96.725586 136.231122 
L 96.421396 134.97465 
L 96.113445 133.718179 
L 95.800472 132.461707 
L 95.481593 131.205235 
L 95.156375 129.948763 
L 94.824904 128.692291 
L 94.487833 127.435819 
L 94.146411 126.179347 
L 93.802495 124.922875 
L 93.458542 123.666404 
L 93.117568 122.409932 
L 92.783095 121.15346 
L 92.459069 119.896988 
L 92.149758 118.640516 
L 91.859632 117.384044 
L 91.593234 116.127572 
L 91.355029 114.871101 
L 91.149265 113.614629 
L 90.979823 112.358157 
L 90.850082 111.101685 
L 90.762797 109.845213 
L 90.72 108.588741 
L 90.722919 107.332269 
L 90.771932 106.075798 
L 90.866554 104.819326 
L 91.005449 103.562854 
L 91.186485 102.306382 
L 91.406807 101.04991 
L 91.662945 99.793438 
L 91.950941 98.536966 
L 92.266493 97.280495 
L 92.605102 96.024023 
L 92.962226 94.767551 
L 93.333428 93.511079 
L 93.714506 92.254607 
L 94.101613 90.998135 
L 94.491343 89.741663 
L 94.880802 88.485191 
L 95.26764 87.22872 
L 95.650055 85.972248 
L 96.02678 84.715776 
L 96.397027 83.459304 
L 96.760428 82.202832 
L 97.116949 80.94636 
L 97.466803 79.689888 
L 97.810351 78.433417 
L 98.148016 77.176945 
L 98.4802 75.920473 
L 98.80722 74.664001 
L 99.129251 73.407529 
L 99.446302 72.151057 
L 99.758204 70.894585 
L 100.064615 69.638114 
L 100.365048 68.381642 
L 100.658907 67.12517 
L 100.94554 65.868698 
L 101.224283 64.612226 
L 101.494519 63.355754 
L 101.755724 62.099282 
L 102.007507 60.84281 
L 102.249637 59.586339 
L 102.482066 58.329867 
L 102.704929 57.073395 
L 102.918537 55.816923 
L 103.123358 54.560451 
L 103.319991 53.303979 
L 103.509132 52.047507 
L 103.691534 50.791036 
L 103.867975 49.534564 
L 104.039219 48.278092 
L 104.205986 47.02162 
L 104.368929 45.765148 
L 104.528615 44.508676 
L 104.685509 43.252204 
L 104.839975 41.995733 
L 104.992271 40.739261 
L 105.142557 39.482789 
L 105.290899 38.226317 
L 105.437285 36.969845 
L 105.58163 35.713373 
L 105.723788 34.456901 
L 105.863567 33.20043 
L 106.000732 31.943958 
L 109.999268 31.943958 
L 109.999268 31.943958 
L 110.136433 33.20043 
L 110.276212 34.456901 
L 110.41837 35.713373 
L 110.562715 36.969845 
L 110.709101 38.226317 
L 110.857443 39.482789 
L 111.007729 40.739261 
L 111.160025 41.995733 
L 111.314491 43.252204 
L 111.471385 44.508676 
L 111.631071 45.765148 
L 111.794014 47.02162 
L 111.960781 48.278092 
L 112.132025 49.534564 
L 112.308466 50.791036 
L 112.490868 52.047507 
L 112.680009 53.303979 
L 112.876642 54.560451 
L 113.081463 55.816923 
L 113.295071 57.073395 
L 113.517934 58.329867 
L 113.750363 59.586339 
L 113.992493 60.84281 
L 114.244276 62.099282 
L 114.505481 63.355754 
L 114.775717 64.612226 
L 115.05446 65.868698 
L 115.341093 67.12517 
L 115.634952 68.381642 
L 115.935385 69.638114 
L 116.241796 70.894585 
L 116.553698 72.151057 
L 116.870749 73.407529 
L 117.19278 74.664001 
L 117.5198 75.920473 
L 117.851984 77.176945 
L 118.189649 78.433417 
L 118.533197 79.689888 
L 118.883051 80.94636 
L 119.239572 82.202832 
L 119.602973 83.459304 
L 119.97322 84.715776 
L 120.349945 85.972248 
L 120.73236 87.22872 
L 121.119198 88.485191 
L 121.508657 89.741663 
L 121.898387 90.998135 
L 122.285494 92.254607 
L 122.666572 93.511079 
L 123.037774 94.767551 
L 123.394898 96.024023 
L 123.733507 97.280495 
L 124.049059 98.536966 
L 124.337055 99.793438 
L 124.593193 101.04991 
L 124.813515 102.306382 
L 124.994551 103.562854 
L 125.133446 104.819326 
L 125.228068 106.075798 
L 125.277081 107.332269 
L 125.28 108.588741 
L 125.237203 109.845213 
L 125.149918 111.101685 
L 125.020177 112.358157 
L 124.850735 113.614629 
L 124.644971 114.871101 
L 124.406766 116.127572 
L 124.140368 117.384044 
L 123.850242 118.640516 
L 123.540931 119.896988 
L 123.216905 121.15346 
L 122.882432 122.409932 
L 122.541458 123.666404 
L 122.197505 124.922875 
L 121.853589 126.179347 
L 121.512167 127.435819 
L 121.175096 128.692291 
L 120.843625 129.948763 
L 120.518407 131.205235 
L 120.199528 132.461707 
L 119.886555 133.718179 
L 119.578604 134.97465 
L 119.274414 136.231122 
L 118.972435 137.487594 
L 118.670922 138.744066 
L 118.368026 140.000538 
L 118.061895 141.25701 
L 117.750764 142.513482 
L 117.433041 143.769953 
L 117.107387 145.026425 
L 116.772782 146.282897 
L 116.428578 147.539369 
L 116.07454 148.795841 
L 115.710867 150.052313 
L 115.338198 151.308785 
L 114.957602 152.565256 
L 114.57055 153.821728 
L 114.17887 155.0782 
L 113.784696 156.334672 
L 113.784696 156.334672 
z
" clip-path="url(#p9b2ea9fbe0)" style="fill: none; stroke: #000000; stroke-opacity: 0.3"/>
   </g>
   <g id="FillBetweenPolyCollection_14">
    <path d="M 109.080315 190.282228 
L 106.919685 190.282228 
L 106.838083 188.735478 
L 106.751347 187.188729 
L 106.657877 185.641979 
L 106.555914 184.09523 
L 106.443619 182.548481 
L 106.319169 181.001731 
L 106.180838 179.454982 
L 106.027075 177.908232 
L 105.856556 176.361483 
L 105.668214 174.814733 
L 105.461238 173.267984 
L 105.235048 171.721235 
L 104.989238 170.174485 
L 104.72351 168.627736 
L 104.437586 167.080986 
L 104.131128 165.534237 
L 103.803668 163.987487 
L 103.454549 162.440738 
L 103.082911 160.893989 
L 102.687702 159.347239 
L 102.267735 157.80049 
L 101.821783 156.25374 
L 101.348719 154.706991 
L 100.847673 153.160241 
L 100.318223 151.613492 
L 99.760579 150.066743 
L 99.175767 148.519993 
L 98.565789 146.973244 
L 97.93374 145.426494 
L 97.283885 143.879745 
L 96.62168 142.332995 
L 95.953732 140.786246 
L 95.287703 139.239496 
L 94.632163 137.692747 
L 93.996391 136.145998 
L 93.390146 134.599248 
L 92.823405 133.052499 
L 92.306096 131.505749 
L 91.847806 129.959 
L 91.457516 128.41225 
L 91.143324 126.865501 
L 90.912197 125.318752 
L 90.769741 123.772002 
L 90.72 122.225253 
L 90.765286 120.678503 
L 90.906052 119.131754 
L 91.14081 117.585004 
L 91.4661 116.038255 
L 91.876526 114.491506 
L 92.364848 112.944756 
L 92.922147 111.398007 
L 93.538058 109.851257 
L 94.201059 108.304508 
L 94.898818 106.757758 
L 95.618581 105.211009 
L 96.347576 103.66426 
L 97.073437 102.11751 
L 97.784594 100.570761 
L 98.470645 99.024011 
L 99.122663 97.477262 
L 99.733446 95.930512 
L 100.297675 94.383763 
L 100.812004 92.837014 
L 101.275044 91.290264 
L 101.687277 89.743515 
L 102.050882 88.196765 
L 102.369497 86.650016 
L 102.647932 85.103266 
L 102.891828 83.556517 
L 103.107313 82.009768 
L 103.300646 80.463018 
L 103.477877 78.916269 
L 103.644548 77.369519 
L 103.80544 75.82277 
L 103.964387 74.27602 
L 104.124163 72.729271 
L 104.286442 71.182522 
L 104.451841 69.635772 
L 104.620028 68.089023 
L 104.789879 66.542273 
L 104.959691 64.995524 
L 105.127405 63.448774 
L 105.290835 61.902025 
L 105.447883 60.355276 
L 105.596724 58.808526 
L 105.735948 57.261777 
L 105.864654 55.715027 
L 105.982489 54.168278 
L 106.089648 52.621528 
L 106.18682 51.074779 
L 106.275109 49.52803 
L 106.355928 47.98128 
L 106.430879 46.434531 
L 106.501634 44.887781 
L 106.569819 43.341032 
L 106.636913 41.794282 
L 106.704168 40.247533 
L 106.772542 38.700784 
L 106.842672 37.154034 
L 109.157328 37.154034 
L 109.157328 37.154034 
L 109.227458 38.700784 
L 109.295832 40.247533 
L 109.363087 41.794282 
L 109.430181 43.341032 
L 109.498366 44.887781 
L 109.569121 46.434531 
L 109.644072 47.98128 
L 109.724891 49.52803 
L 109.81318 51.074779 
L 109.910352 52.621528 
L 110.017511 54.168278 
L 110.135346 55.715027 
L 110.264052 57.261777 
L 110.403276 58.808526 
L 110.552117 60.355276 
L 110.709165 61.902025 
L 110.872595 63.448774 
L 111.040309 64.995524 
L 111.210121 66.542273 
L 111.379972 68.089023 
L 111.548159 69.635772 
L 111.713558 71.182522 
L 111.875837 72.729271 
L 112.035613 74.27602 
L 112.19456 75.82277 
L 112.355452 77.369519 
L 112.522123 78.916269 
L 112.699354 80.463018 
L 112.892687 82.009768 
L 113.108172 83.556517 
L 113.352068 85.103266 
L 113.630503 86.650016 
L 113.949118 88.196765 
L 114.312723 89.743515 
L 114.724956 91.290264 
L 115.187996 92.837014 
L 115.702325 94.383763 
L 116.266554 95.930512 
L 116.877337 97.477262 
L 117.529355 99.024011 
L 118.215406 100.570761 
L 118.926563 102.11751 
L 119.652424 103.66426 
L 120.381419 105.211009 
L 121.101182 106.757758 
L 121.798941 108.304508 
L 122.461942 109.851257 
L 123.077853 111.398007 
L 123.635152 112.944756 
L 124.123474 114.491506 
L 124.5339 116.038255 
L 124.85919 117.585004 
L 125.093948 119.131754 
L 125.234714 120.678503 
L 125.28 122.225253 
L 125.230259 123.772002 
L 125.087803 125.318752 
L 124.856676 126.865501 
L 124.542484 128.41225 
L 124.152194 129.959 
L 123.693904 131.505749 
L 123.176595 133.052499 
L 122.609854 134.599248 
L 122.003609 136.145998 
L 121.367837 137.692747 
L 120.712297 139.239496 
L 120.046268 140.786246 
L 119.37832 142.332995 
L 118.716115 143.879745 
L 118.06626 145.426494 
L 117.434211 146.973244 
L 116.824233 148.519993 
L 116.239421 150.066743 
L 115.681777 151.613492 
L 115.152327 153.160241 
L 114.651281 154.706991 
L 114.178217 156.25374 
L 113.732265 157.80049 
L 113.312298 159.347239 
L 112.917089 160.893989 
L 112.545451 162.440738 
L 112.196332 163.987487 
L 111.868872 165.534237 
L 111.562414 167.080986 
L 111.27649 168.627736 
L 111.010762 170.174485 
L 110.764952 171.721235 
L 110.538762 173.267984 
L 110.331786 174.814733 
L 110.143444 176.361483 
L 109.972925 177.908232 
L 109.819162 179.454982 
L 109.680831 181.001731 
L 109.556381 182.548481 
L 109.444086 184.09523 
L 109.342123 185.641979 
L 109.248653 187.188729 
L 109.161917 188.735478 
L 109.080315 190.282228 
L 109.080315 190.282228 
z
" clip-path="url(#p9b2ea9fbe0)" style="fill: none; stroke: #000000; stroke-opacity: 0.3"/>
   </g>
   <g id="matplotlib.axis_1"/>
   <g id="matplotlib.axis_2">
    <g id="ytick_1">
     <g id="line2d_1">
      <defs>
       <path id="mca9125f71e" d="M 0 0 
L -3.5 0 
" style="stroke: #000000; stroke-width: 0.8"/>
      </defs>
      <g>
       <use xlink:href="#mca9125f71e" x="21.6" y="291.6" style="stroke: #000000; stroke-width: 0.8"/>
      </g>
     </g>
    </g>
    <g id="ytick_2">
     <g id="line2d_2">
      <g>
       <use xlink:href="#mca9125f71e" x="21.6" y="199.8" style="stroke: #000000; stroke-width: 0.8"/>
      </g>
     </g>
    </g>
    <g id="ytick_3">
     <g id="line2d_3">
      <g>
       <use xlink:href="#mca9125f71e" x="21.6" y="108" style="stroke: #000000; stroke-width: 0.8"/>
      </g>
     </g>
    </g>
    <g id="ytick_4">
     <g id="line2d_4">
      <g>
       <use xlink:href="#mca9125f71e" x="21.6" y="16.2" style="stroke: #000000; stroke-width: 0.8"/>
      </g>
     </g>
    </g>
   </g>
   <g id="line2d_5">
    <path d="M 50.4 269.568 
L 50.4 264.06 
" clip-path="url(#p9b2ea9fbe0)" style="fill: none; stroke: #000000; stroke-linecap: square"/>
   </g>
   <g id="line2d_6">
    <path d="M 50.4 269.568 
L 108 269.568 
" clip-path="url(#p9b2ea9fbe0)" style="fill: none; stroke: #000000; stroke-linecap: square"/>
   </g>
   <g id="line2d_7">
    <path d="M 108 269.568 
L 108 264.06 
" clip-path="url(#p9b2ea9fbe0)" style="fill: none; stroke: #000000; stroke-linecap: square"/>
   </g>
   <g id="patch_3">
    <path d="M 21.6 291.6 
L 21.6 16.2 
" style="fill: none; stroke: #000000; stroke-width: 0.8; stroke-linejoin: miter; stroke-linecap: square"/>
   </g>
   <g id="patch_4">
    <path d="M 136.8 291.6 
L 136.8 16.2 
" style="fill: none; stroke: #000000; stroke-width: 0.8; stroke-linejoin: miter; stroke-linecap: square"/>
   </g>
   <g id="patch_5">
    <path d="M 21.6 291.6 
L 136.8 291.6 
" style="fill: none; stroke: #000000; stroke-width: 0.8; stroke-linejoin: miter; stroke-linecap: square"/>
   </g>
   <g id="patch_6">
    <path d="M 21.6 16.2 
L 136.8 16.2 
" style="fill: none; stroke: #000000; stroke-width: 0.8; stroke-linejoin: miter; stroke-linecap: square"/>
   </g>
   <g id="text_1">
    <text style="font-weight: 700; font-size: 12px; font-family: 'DejaVu Sans', 'Bitstream Vera Sans', 'Computer Modern Sans Serif', 'Lucida Grande', 'Verdana', 'Geneva', 'Lucid', 'Arial', 'Helvetica', 'Avant Garde', sans-serif; text-anchor: middle" x="50.4" y="289.104375" transform="rotate(-0 50.4 289.104375)">#9</text>
   </g>
   <g id="text_2">
    <text style="font-weight: 700; font-size: 12px; font-family: 'DejaVu Sans', 'Bitstream Vera Sans', 'Computer Modern Sans Serif', 'Lucida Grande', 'Verdana', 'Geneva', 'Lucid', 'Arial', 'Helvetica', 'Avant Garde', sans-serif; text-anchor: middle" x="108" y="289.104375" transform="rotate(-0 108 289.104375)">#17</text>
   </g>
   <g id="text_3">
    <text style="font-size: 12px; font-family: 'DejaVu Sans', 'Bitstream Vera Sans', 'Computer Modern Sans Serif', 'Lucida Grande', 'Verdana', 'Geneva', 'Lucid', 'Arial', 'Helvetica', 'Avant Garde', sans-serif; text-anchor: middle" x="79.2" y="268.449375" transform="rotate(-0 79.2 268.449375)">**</text>
   </g>
   <g id="line2d_8">
    <path d="M 21.6 124.142867 
L 136.8 124.142867 
" clip-path="url(#p9b2ea9fbe0)" style="fill: none; stroke-dasharray: 3.7,1.6; stroke-dashoffset: 0; stroke: #808080; stroke-opacity: 0.7"/>
   </g>
   <g id="line2d_9">
    <path d="M 21.6 109.784146 
L 136.8 109.784146 
" clip-path="url(#p9b2ea9fbe0)" style="fill: none; stroke-dasharray: 3.7,1.6; stroke-dashoffset: 0; stroke: #808080; stroke-opacity: 0.7"/>
   </g>
   <g id="LineCollection_1">
    <path d="M 50.4 131.270746 
L 50.4 117.014988 
" clip-path="url(#p9b2ea9fbe0)" style="fill: none; stroke: #000000; stroke-width: 2"/>
   </g>
   <g id="line2d_10">
    <defs>
     <path id="mb2913c48c2" d="M 5 0 
L -5 -0 
" style="stroke: #000000; stroke-width: 2"/>
    </defs>
    <g clip-path="url(#p9b2ea9fbe0)">
     <use xlink:href="#mb2913c48c2" x="50.4" y="131.270746" style="stroke: #000000; stroke-width: 2"/>
    </g>
   </g>
   <g id="line2d_11">
    <g clip-path="url(#p9b2ea9fbe0)">
     <use xlink:href="#mb2913c48c2" x="50.4" y="117.014988" style="stroke: #000000; stroke-width: 2"/>
    </g>
   </g>
   <g id="LineCollection_2">
    <path d="M 108 115.453804 
L 108 104.114488 
" clip-path="url(#p9b2ea9fbe0)" style="fill: none; stroke: #000000; stroke-width: 2"/>
   </g>
   <g id="line2d_12">
    <g clip-path="url(#p9b2ea9fbe0)">
     <use xlink:href="#mb2913c48c2" x="108" y="115.453804" style="stroke: #000000; stroke-width: 2"/>
    </g>
   </g>
   <g id="line2d_13">
    <g clip-path="url(#p9b2ea9fbe0)">
     <use xlink:href="#mb2913c48c2" x="108" y="104.114488" style="stroke: #000000; stroke-width: 2"/>
    </g>
   </g>
   <g id="line2d_14">
    <defs>
     <path id="m63f11e1f8c" d="M 0 4 
C 1.060812 4 2.078319 3.578535 2.828427 2.828427 
C 3.578535 2.078319 4 1.060812 4 0 
C 4 -1.060812 3.578535 -2.078319 2.828427 -2.828427 
C 2.078319 -3.578535 1.060812 -4 0 -4 
C -1.060812 -4 -2.078319 -3.578535 -2.828427 -2.828427 
C -3.578535 -2.078319 -4 -1.060812 -4 0 
C -4 1.060812 -3.578535 2.078319 -2.828427 2.828427 
C -2.078319 3.578535 -1.060812 4 0 4 
z
" style="stroke: #000000"/>
    </defs>
    <g clip-path="url(#p9b2ea9fbe0)">
     <use xlink:href="#m63f11e1f8c" x="50.4" y="124.142867" style="stroke: #000000"/>
    </g>
   </g>
   <g id="line2d_15">
    <g clip-path="url(#p9b2ea9fbe0)">
     <use xlink:href="#m63f11e1f8c" x="108" y="109.784146" style="stroke: #000000"/>
    </g>
   </g>
  </g>
 </g>
 <defs>
  <clipPath id="p9b2ea9fbe0">
   <rect x="21.6" y="16.2" width="115.2" height="275.4"/>
  </clipPath>
 </defs>
</svg>
