<?xml version="1.0" encoding="utf-8" standalone="no"?>
<!DOCTYPE svg PUBLIC "-//W3C//DTD SVG 1.1//EN"
  "http://www.w3.org/Graphics/SVG/1.1/DTD/svg11.dtd">
<svg xmlns:xlink="http://www.w3.org/1999/xlink" width="352.36875pt" height="277.591687pt" viewBox="0 0 352.36875 277.591687" xmlns="http://www.w3.org/2000/svg" version="1.1">
 <metadata>
  <rdf:RDF xmlns:dc="http://purl.org/dc/elements/1.1/" xmlns:cc="http://creativecommons.org/ns#" xmlns:rdf="http://www.w3.org/1999/02/22-rdf-syntax-ns#">
   <cc:Work>
    <dc:type rdf:resource="http://purl.org/dc/dcmitype/StillImage"/>
    <dc:date>2026-01-06T12:47:16.606466</dc:date>
    <dc:format>image/svg+xml</dc:format>
    <dc:creator>
     <cc:Agent>
      <dc:title>Matplotlib v3.10.7, https://matplotlib.org/</dc:title>
     </cc:Agent>
    </dc:creator>
   </cc:Work>
  </rdf:RDF>
 </metadata>
 <defs>
  <style type="text/css">*{stroke-linejoin: round; stroke-linecap: butt}</style>
 </defs>
 <g id="figure_1">
  <g id="patch_1">
   <path d="M 0 277.591687 
L 352.36875 277.591687 
L 352.36875 0 
L 0 0 
z
" style="fill: #ffffff"/>
  </g>
  <g id="axes_1">
   <g id="patch_2">
    <path d="M 77.149375 224.962 
L 275.219375 224.962 
L 275.219375 36.08925 
L 77.149375 36.08925 
z
" style="fill: #ffffff"/>
   </g>
   <g id="FillBetweenPolyCollection_1">
    <path d="M 86.152557 163.016374 
L 86.152557 184.70518 
L 87.971381 183.371395 
L 89.790206 182.089569 
L 91.609031 180.790781 
L 93.427855 179.367405 
L 95.24668 178.152783 
L 97.065504 176.838613 
L 98.884329 175.543209 
L 100.703154 174.15837 
L 102.521978 172.775558 
L 104.340803 171.482361 
L 106.159628 170.198501 
L 107.978452 168.900296 
L 109.797277 167.610674 
L 111.616101 166.409447 
L 113.434926 165.207827 
L 115.253751 164.003392 
L 117.072575 162.692435 
L 118.8914 161.337664 
L 120.710224 160.03783 
L 122.529049 158.681309 
L 124.347874 157.570409 
L 126.166698 156.328356 
L 127.985523 155.047241 
L 129.804347 153.744674 
L 131.623172 152.451901 
L 133.441997 151.247041 
L 135.260821 150.04391 
L 137.079646 148.767472 
L 138.898471 147.580138 
L 140.717295 146.367972 
L 142.53612 145.08904 
L 144.354944 143.939049 
L 146.173769 142.807124 
L 147.992594 141.641718 
L 149.811418 140.529435 
L 151.630243 139.347554 
L 153.449067 138.183618 
L 155.267892 136.987052 
L 157.086717 135.834474 
L 158.905541 134.663815 
L 160.724366 133.523737 
L 162.54319 132.374377 
L 164.362015 131.143813 
L 166.18084 130.026758 
L 167.999664 128.849403 
L 169.818489 127.772711 
L 171.637313 126.69602 
L 173.456138 125.583182 
L 175.274963 124.384543 
L 177.093787 123.216922 
L 178.912612 122.090238 
L 180.731437 120.96375 
L 182.550261 119.838524 
L 184.369086 118.714965 
L 186.18791 117.58837 
L 188.006735 116.493594 
L 189.82556 115.405596 
L 191.644384 114.243098 
L 193.463209 113.204694 
L 195.282033 112.103365 
L 197.100858 111.000844 
L 198.919683 109.823984 
L 200.738507 108.686812 
L 202.557332 107.669537 
L 204.376156 106.592537 
L 206.194981 105.592376 
L 208.013806 104.526795 
L 209.83263 103.438116 
L 211.651455 102.216349 
L 213.470279 101.115626 
L 215.289104 100.058208 
L 217.107929 99.003204 
L 218.926753 97.99784 
L 220.745578 96.910177 
L 222.564403 95.828998 
L 224.383227 94.748932 
L 226.202052 93.662153 
L 228.020876 92.631081 
L 229.839701 91.549465 
L 231.658526 90.504661 
L 233.47735 89.480867 
L 235.296175 88.466542 
L 237.114999 87.398178 
L 238.933824 86.32673 
L 240.752649 85.26286 
L 242.571473 84.206529 
L 244.390298 83.193451 
L 246.209122 82.150398 
L 248.027947 81.107344 
L 249.846772 80.062164 
L 251.665596 79.050312 
L 253.484421 77.990703 
L 255.303246 76.928526 
L 257.12207 75.884977 
L 258.940895 74.853924 
L 260.759719 73.857867 
L 262.578544 72.860731 
L 264.397369 71.842788 
L 266.216193 70.769253 
L 266.216193 44.674375 
L 266.216193 44.674375 
L 264.397369 46.01533 
L 262.578544 47.407764 
L 260.759719 48.746588 
L 258.940895 50.068091 
L 257.12207 51.408553 
L 255.303246 52.799411 
L 253.484421 54.190918 
L 251.665596 55.582538 
L 249.846772 56.848521 
L 248.027947 58.103389 
L 246.209122 59.358256 
L 244.390298 60.613123 
L 242.571473 61.928031 
L 240.752649 63.253398 
L 238.933824 64.581899 
L 237.114999 65.909846 
L 235.296175 67.238114 
L 233.47735 68.588126 
L 231.658526 69.890558 
L 229.839701 71.21626 
L 228.020876 72.545139 
L 226.202052 73.874017 
L 224.383227 75.256083 
L 222.564403 76.663112 
L 220.745578 78.03127 
L 218.926753 79.331838 
L 217.107929 80.549316 
L 215.289104 81.865333 
L 213.470279 83.164926 
L 211.651455 84.491212 
L 209.83263 85.817499 
L 208.013806 87.118666 
L 206.194981 88.384957 
L 204.376156 89.798102 
L 202.557332 91.038233 
L 200.738507 92.348544 
L 198.919683 93.600942 
L 197.100858 94.910755 
L 195.282033 96.11931 
L 193.463209 97.349816 
L 191.644384 98.63192 
L 189.82556 99.800537 
L 188.006735 101.12341 
L 186.18791 102.301778 
L 184.369086 103.534044 
L 182.550261 104.77873 
L 180.731437 106.120087 
L 178.912612 107.285734 
L 177.093787 108.483461 
L 175.274963 109.610524 
L 173.456138 110.77283 
L 171.637313 112.052798 
L 169.818489 113.258474 
L 167.999664 114.427699 
L 166.18084 115.609989 
L 164.362015 116.828688 
L 162.54319 117.966343 
L 160.724366 119.090697 
L 158.905541 120.299479 
L 157.086717 121.406957 
L 155.267892 122.511871 
L 153.449067 123.711881 
L 151.630243 124.727322 
L 149.811418 125.87948 
L 147.992594 127.022057 
L 146.173769 128.18331 
L 144.354944 129.237353 
L 142.53612 130.263454 
L 140.717295 131.367205 
L 138.898471 132.415574 
L 137.079646 133.503151 
L 135.260821 134.512437 
L 133.441997 135.611041 
L 131.623172 136.766358 
L 129.804347 137.886731 
L 127.985523 138.9547 
L 126.166698 139.991401 
L 124.347874 141.105308 
L 122.529049 142.068566 
L 120.710224 143.182862 
L 118.8914 144.36256 
L 117.072575 145.27882 
L 115.253751 146.448111 
L 113.434926 147.535449 
L 111.616101 148.473819 
L 109.797277 149.412491 
L 107.978452 150.351164 
L 106.159628 151.377354 
L 104.340803 152.454998 
L 102.521978 153.533456 
L 100.703154 154.611914 
L 98.884329 155.690372 
L 97.065504 156.782309 
L 95.24668 157.84398 
L 93.427855 158.919508 
L 91.609031 159.995035 
L 89.790206 161.063104 
L 87.971381 162.039739 
L 86.152557 163.016374 
z
" clip-path="url(#p7b7c09846f)" style="fill-opacity: 0.15"/>
   </g>
   <g id="matplotlib.axis_1">
    <g id="xtick_1">
     <g id="line2d_1">
      <path d="M 86.152557 224.962 
L 86.152557 36.08925 
" clip-path="url(#p7b7c09846f)" style="fill: none; stroke-dasharray: 2.96,1.28; stroke-dashoffset: 0; stroke: #b0b0b0; stroke-opacity: 0.5; stroke-width: 0.8"/>
     </g>
     <g id="line2d_2">
      <defs>
       <path id="m9ee7434745" d="M 0 0 
L 0 3.5 
" style="stroke: #000000; stroke-width: 0.8"/>
      </defs>
      <g>
       <use xlink:href="#m9ee7434745" x="86.152557" y="224.962" style="stroke: #000000; stroke-width: 0.8"/>
      </g>
     </g>
     <g id="text_1">
      <text style="font-size: 15px; font-family: 'DejaVu Sans', 'Bitstream Vera Sans', 'Computer Modern Sans Serif', 'Lucida Grande', 'Verdana', 'Geneva', 'Lucid', 'Arial', 'Helvetica', 'Avant Garde', sans-serif; text-anchor: middle" x="86.152557" y="243.359656" transform="rotate(-0 86.152557 243.359656)">0.0</text>
     </g>
    </g>
    <g id="xtick_2">
     <g id="line2d_3">
      <path d="M 128.713053 224.962 
L 128.713053 36.08925 
" clip-path="url(#p7b7c09846f)" style="fill: none; stroke-dasharray: 2.96,1.28; stroke-dashoffset: 0; stroke: #b0b0b0; stroke-opacity: 0.5; stroke-width: 0.8"/>
     </g>
     <g id="line2d_4">
      <g>
       <use xlink:href="#m9ee7434745" x="128.713053" y="224.962" style="stroke: #000000; stroke-width: 0.8"/>
      </g>
     </g>
     <g id="text_2">
      <text style="font-size: 15px; font-family: 'DejaVu Sans', 'Bitstream Vera Sans', 'Computer Modern Sans Serif', 'Lucida Grande', 'Verdana', 'Geneva', 'Lucid', 'Arial', 'Helvetica', 'Avant Garde', sans-serif; text-anchor: middle" x="128.713053" y="243.359656" transform="rotate(-0 128.713053 243.359656)">0.2</text>
     </g>
    </g>
    <g id="xtick_3">
     <g id="line2d_5">
      <path d="M 171.273549 224.962 
L 171.273549 36.08925 
" clip-path="url(#p7b7c09846f)" style="fill: none; stroke-dasharray: 2.96,1.28; stroke-dashoffset: 0; stroke: #b0b0b0; stroke-opacity: 0.5; stroke-width: 0.8"/>
     </g>
     <g id="line2d_6">
      <g>
       <use xlink:href="#m9ee7434745" x="171.273549" y="224.962" style="stroke: #000000; stroke-width: 0.8"/>
      </g>
     </g>
     <g id="text_3">
      <text style="font-size: 15px; font-family: 'DejaVu Sans', 'Bitstream Vera Sans', 'Computer Modern Sans Serif', 'Lucida Grande', 'Verdana', 'Geneva', 'Lucid', 'Arial', 'Helvetica', 'Avant Garde', sans-serif; text-anchor: middle" x="171.273549" y="243.359656" transform="rotate(-0 171.273549 243.359656)">0.4</text>
     </g>
    </g>
    <g id="xtick_4">
     <g id="line2d_7">
      <path d="M 213.834044 224.962 
L 213.834044 36.08925 
" clip-path="url(#p7b7c09846f)" style="fill: none; stroke-dasharray: 2.96,1.28; stroke-dashoffset: 0; stroke: #b0b0b0; stroke-opacity: 0.5; stroke-width: 0.8"/>
     </g>
     <g id="line2d_8">
      <g>
       <use xlink:href="#m9ee7434745" x="213.834044" y="224.962" style="stroke: #000000; stroke-width: 0.8"/>
      </g>
     </g>
     <g id="text_4">
      <text style="font-size: 15px; font-family: 'DejaVu Sans', 'Bitstream Vera Sans', 'Computer Modern Sans Serif', 'Lucida Grande', 'Verdana', 'Geneva', 'Lucid', 'Arial', 'Helvetica', 'Avant Garde', sans-serif; text-anchor: middle" x="213.834044" y="243.359656" transform="rotate(-0 213.834044 243.359656)">0.6</text>
     </g>
    </g>
    <g id="xtick_5">
     <g id="line2d_9">
      <path d="M 256.39454 224.962 
L 256.39454 36.08925 
" clip-path="url(#p7b7c09846f)" style="fill: none; stroke-dasharray: 2.96,1.28; stroke-dashoffset: 0; stroke: #b0b0b0; stroke-opacity: 0.5; stroke-width: 0.8"/>
     </g>
     <g id="line2d_10">
      <g>
       <use xlink:href="#m9ee7434745" x="256.39454" y="224.962" style="stroke: #000000; stroke-width: 0.8"/>
      </g>
     </g>
     <g id="text_5">
      <text style="font-size: 15px; font-family: 'DejaVu Sans', 'Bitstream Vera Sans', 'Computer Modern Sans Serif', 'Lucida Grande', 'Verdana', 'Geneva', 'Lucid', 'Arial', 'Helvetica', 'Avant Garde', sans-serif; text-anchor: middle" x="256.39454" y="243.359656" transform="rotate(-0 256.39454 243.359656)">0.8</text>
     </g>
    </g>
    <g id="text_6">
     <text style="font-size: 20px; font-family: 'DejaVu Sans', 'Bitstream Vera Sans', 'Computer Modern Sans Serif', 'Lucida Grande', 'Verdana', 'Geneva', 'Lucid', 'Arial', 'Helvetica', 'Avant Garde', sans-serif; text-anchor: middle" x="176.184375" y="265.676063" transform="rotate(-0 176.184375 265.676063)">nardini_A Patch_raw</text>
    </g>
   </g>
   <g id="matplotlib.axis_2">
    <g id="ytick_1">
     <g id="line2d_11">
      <path d="M 77.149375 222.075902 
L 275.219375 222.075902 
" clip-path="url(#p7b7c09846f)" style="fill: none; stroke-dasharray: 2.96,1.28; stroke-dashoffset: 0; stroke: #b0b0b0; stroke-opacity: 0.5; stroke-width: 0.8"/>
     </g>
     <g id="line2d_12">
      <defs>
       <path id="m96533b34ee" d="M 0 0 
L -3.5 0 
" style="stroke: #000000; stroke-width: 0.8"/>
      </defs>
      <g>
       <use xlink:href="#m96533b34ee" x="77.149375" y="222.075902" style="stroke: #000000; stroke-width: 0.8"/>
      </g>
     </g>
     <g id="text_7">
      <text style="font-size: 15px; font-family: 'DejaVu Sans', 'Bitstream Vera Sans', 'Computer Modern Sans Serif', 'Lucida Grande', 'Verdana', 'Geneva', 'Lucid', 'Arial', 'Helvetica', 'Avant Garde', sans-serif; text-anchor: end" x="70.149375" y="227.77473" transform="rotate(-0 70.149375 227.77473)">−1.0</text>
     </g>
    </g>
    <g id="ytick_2">
     <g id="line2d_13">
      <path d="M 77.149375 186.948572 
L 275.219375 186.948572 
" clip-path="url(#p7b7c09846f)" style="fill: none; stroke-dasharray: 2.96,1.28; stroke-dashoffset: 0; stroke: #b0b0b0; stroke-opacity: 0.5; stroke-width: 0.8"/>
     </g>
     <g id="line2d_14">
      <g>
       <use xlink:href="#m96533b34ee" x="77.149375" y="186.948572" style="stroke: #000000; stroke-width: 0.8"/>
      </g>
     </g>
     <g id="text_8">
      <text style="font-size: 15px; font-family: 'DejaVu Sans', 'Bitstream Vera Sans', 'Computer Modern Sans Serif', 'Lucida Grande', 'Verdana', 'Geneva', 'Lucid', 'Arial', 'Helvetica', 'Avant Garde', sans-serif; text-anchor: end" x="70.149375" y="192.647401" transform="rotate(-0 70.149375 192.647401)">−0.5</text>
     </g>
    </g>
    <g id="ytick_3">
     <g id="line2d_15">
      <path d="M 77.149375 151.821243 
L 275.219375 151.821243 
" clip-path="url(#p7b7c09846f)" style="fill: none; stroke-dasharray: 2.96,1.28; stroke-dashoffset: 0; stroke: #b0b0b0; stroke-opacity: 0.5; stroke-width: 0.8"/>
     </g>
     <g id="line2d_16">
      <g>
       <use xlink:href="#m96533b34ee" x="77.149375" y="151.821243" style="stroke: #000000; stroke-width: 0.8"/>
      </g>
     </g>
     <g id="text_9">
      <text style="font-size: 15px; font-family: 'DejaVu Sans', 'Bitstream Vera Sans', 'Computer Modern Sans Serif', 'Lucida Grande', 'Verdana', 'Geneva', 'Lucid', 'Arial', 'Helvetica', 'Avant Garde', sans-serif; text-anchor: end" x="70.149375" y="157.520071" transform="rotate(-0 70.149375 157.520071)">0.0</text>
     </g>
    </g>
    <g id="ytick_4">
     <g id="line2d_17">
      <path d="M 77.149375 116.693913 
L 275.219375 116.693913 
" clip-path="url(#p7b7c09846f)" style="fill: none; stroke-dasharray: 2.96,1.28; stroke-dashoffset: 0; stroke: #b0b0b0; stroke-opacity: 0.5; stroke-width: 0.8"/>
     </g>
     <g id="line2d_18">
      <g>
       <use xlink:href="#m96533b34ee" x="77.149375" y="116.693913" style="stroke: #000000; stroke-width: 0.8"/>
      </g>
     </g>
     <g id="text_10">
      <text style="font-size: 15px; font-family: 'DejaVu Sans', 'Bitstream Vera Sans', 'Computer Modern Sans Serif', 'Lucida Grande', 'Verdana', 'Geneva', 'Lucid', 'Arial', 'Helvetica', 'Avant Garde', sans-serif; text-anchor: end" x="70.149375" y="122.392742" transform="rotate(-0 70.149375 122.392742)">0.5</text>
     </g>
    </g>
    <g id="ytick_5">
     <g id="line2d_19">
      <path d="M 77.149375 81.566584 
L 275.219375 81.566584 
" clip-path="url(#p7b7c09846f)" style="fill: none; stroke-dasharray: 2.96,1.28; stroke-dashoffset: 0; stroke: #b0b0b0; stroke-opacity: 0.5; stroke-width: 0.8"/>
     </g>
     <g id="line2d_20">
      <g>
       <use xlink:href="#m96533b34ee" x="77.149375" y="81.566584" style="stroke: #000000; stroke-width: 0.8"/>
      </g>
     </g>
     <g id="text_11">
      <text style="font-size: 15px; font-family: 'DejaVu Sans', 'Bitstream Vera Sans', 'Computer Modern Sans Serif', 'Lucida Grande', 'Verdana', 'Geneva', 'Lucid', 'Arial', 'Helvetica', 'Avant Garde', sans-serif; text-anchor: end" x="70.149375" y="87.265412" transform="rotate(-0 70.149375 87.265412)">1.0</text>
     </g>
    </g>
    <g id="ytick_6">
     <g id="line2d_21">
      <path d="M 77.149375 46.439254 
L 275.219375 46.439254 
" clip-path="url(#p7b7c09846f)" style="fill: none; stroke-dasharray: 2.96,1.28; stroke-dashoffset: 0; stroke: #b0b0b0; stroke-opacity: 0.5; stroke-width: 0.8"/>
     </g>
     <g id="line2d_22">
      <g>
       <use xlink:href="#m96533b34ee" x="77.149375" y="46.439254" style="stroke: #000000; stroke-width: 0.8"/>
      </g>
     </g>
     <g id="text_12">
      <text style="font-size: 15px; font-family: 'DejaVu Sans', 'Bitstream Vera Sans', 'Computer Modern Sans Serif', 'Lucida Grande', 'Verdana', 'Geneva', 'Lucid', 'Arial', 'Helvetica', 'Avant Garde', sans-serif; text-anchor: end" x="70.149375" y="52.138083" transform="rotate(-0 70.149375 52.138083)">1.5</text>
     </g>
    </g>
    <g id="text_13">
     <text style="font-size: 20px; font-family: 'DejaVu Sans', 'Bitstream Vera Sans', 'Computer Modern Sans Serif', 'Lucida Grande', 'Verdana', 'Geneva', 'Lucid', 'Arial', 'Helvetica', 'Avant Garde', sans-serif; text-anchor: middle" x="25.009531" y="130.525625" transform="rotate(-90 25.009531 130.525625)">calculated_avg</text>
    </g>
   </g>
   <g id="LineCollection_1">
    <path d="M 111.875933 152.256123 
L 111.875933 140.489941 
" clip-path="url(#p7b7c09846f)" style="fill: none; stroke: #808080; stroke-opacity: 0.6"/>
    <path d="M 111.875933 180.662282 
L 111.875933 163.9828 
" clip-path="url(#p7b7c09846f)" style="fill: none; stroke: #808080; stroke-opacity: 0.6"/>
    <path d="M 111.875933 202.940319 
L 111.875933 163.978234 
" clip-path="url(#p7b7c09846f)" style="fill: none; stroke: #808080; stroke-opacity: 0.6"/>
    <path d="M 111.875933 214.625311 
L 111.875933 125.138634 
" clip-path="url(#p7b7c09846f)" style="fill: none; stroke: #808080; stroke-opacity: 0.6"/>
    <path d="M 266.216193 89.887371 
L 266.216193 61.486108 
" clip-path="url(#p7b7c09846f)" style="fill: none; stroke: #808080; stroke-opacity: 0.6"/>
    <path d="M 242.831305 132.307175 
L 242.831305 116.816679 
" clip-path="url(#p7b7c09846f)" style="fill: none; stroke: #808080; stroke-opacity: 0.6"/>
    <path d="M 235.815839 86.936466 
L 235.815839 82.791033 
" clip-path="url(#p7b7c09846f)" style="fill: none; stroke: #808080; stroke-opacity: 0.6"/>
    <path d="M 240.492817 81.774037 
L 240.492817 61.466645 
" clip-path="url(#p7b7c09846f)" style="fill: none; stroke: #808080; stroke-opacity: 0.6"/>
    <path d="M 252.18526 101.730472 
L 252.18526 88.942205 
" clip-path="url(#p7b7c09846f)" style="fill: none; stroke: #808080; stroke-opacity: 0.6"/>
    <path d="M 207.753974 116.582288 
L 207.753974 89.921883 
" clip-path="url(#p7b7c09846f)" style="fill: none; stroke: #808080; stroke-opacity: 0.6"/>
    <path d="M 238.154328 99.597989 
L 238.154328 80.191361 
" clip-path="url(#p7b7c09846f)" style="fill: none; stroke: #808080; stroke-opacity: 0.6"/>
    <path d="M 189.046063 81.446656 
L 189.046063 55.487925 
" clip-path="url(#p7b7c09846f)" style="fill: none; stroke: #808080; stroke-opacity: 0.6"/>
    <path d="M 217.107929 73.582586 
L 217.107929 47.081275 
" clip-path="url(#p7b7c09846f)" style="fill: none; stroke: #808080; stroke-opacity: 0.6"/>
    <path d="M 217.107929 99.356395 
L 217.107929 79.181832 
" clip-path="url(#p7b7c09846f)" style="fill: none; stroke: #808080; stroke-opacity: 0.6"/>
    <path d="M 242.831305 79.54006 
L 242.831305 56.695497 
" clip-path="url(#p7b7c09846f)" style="fill: none; stroke: #808080; stroke-opacity: 0.6"/>
    <path d="M 102.521978 154.80111 
L 102.521978 141.83183 
" clip-path="url(#p7b7c09846f)" style="fill: none; stroke: #808080; stroke-opacity: 0.6"/>
    <path d="M 224.123395 111.497045 
L 224.123395 61.026259 
" clip-path="url(#p7b7c09846f)" style="fill: none; stroke: #808080; stroke-opacity: 0.6"/>
    <path d="M 207.753974 90.748413 
L 207.753974 75.311773 
" clip-path="url(#p7b7c09846f)" style="fill: none; stroke: #808080; stroke-opacity: 0.6"/>
    <path d="M 249.846772 80.043744 
L 249.846772 55.666935 
" clip-path="url(#p7b7c09846f)" style="fill: none; stroke: #808080; stroke-opacity: 0.6"/>
    <path d="M 203.076996 78.480569 
L 203.076996 60.906594 
" clip-path="url(#p7b7c09846f)" style="fill: none; stroke: #808080; stroke-opacity: 0.6"/>
    <path d="M 247.508283 74.483448 
L 247.508283 50.894603 
" clip-path="url(#p7b7c09846f)" style="fill: none; stroke: #808080; stroke-opacity: 0.6"/>
    <path d="M 210.092462 83.448383 
L 210.092462 54.772254 
" clip-path="url(#p7b7c09846f)" style="fill: none; stroke: #808080; stroke-opacity: 0.6"/>
    <path d="M 158.645709 100.918694 
L 158.645709 87.446129 
" clip-path="url(#p7b7c09846f)" style="fill: none; stroke: #808080; stroke-opacity: 0.6"/>
    <path d="M 123.568377 168.517106 
L 123.568377 145.780505 
" clip-path="url(#p7b7c09846f)" style="fill: none; stroke: #808080; stroke-opacity: 0.6"/>
    <path d="M 104.860467 194.908893 
L 104.860467 157.279187 
" clip-path="url(#p7b7c09846f)" style="fill: none; stroke: #808080; stroke-opacity: 0.6"/>
    <path d="M 104.860467 182.039547 
L 104.860467 161.9211 
" clip-path="url(#p7b7c09846f)" style="fill: none; stroke: #808080; stroke-opacity: 0.6"/>
    <path d="M 104.860467 159.497468 
L 104.860467 125.610083 
" clip-path="url(#p7b7c09846f)" style="fill: none; stroke: #808080; stroke-opacity: 0.6"/>
    <path d="M 125.906866 170.504174 
L 125.906866 165.901428 
" clip-path="url(#p7b7c09846f)" style="fill: none; stroke: #808080; stroke-opacity: 0.6"/>
    <path d="M 100.18349 179.374599 
L 100.18349 162.776617 
" clip-path="url(#p7b7c09846f)" style="fill: none; stroke: #808080; stroke-opacity: 0.6"/>
    <path d="M 102.521978 216.376875 
L 102.521978 152.666875 
" clip-path="url(#p7b7c09846f)" style="fill: none; stroke: #808080; stroke-opacity: 0.6"/>
    <path d="M 86.152557 181.342618 
L 86.152557 148.66669 
" clip-path="url(#p7b7c09846f)" style="fill: none; stroke: #808080; stroke-opacity: 0.6"/>
   </g>
   <g id="line2d_23">
    <defs>
     <path id="mca4716f2ed" d="M 2 0 
L -2 -0 
" style="stroke: #808080; stroke-opacity: 0.6"/>
    </defs>
    <g clip-path="url(#p7b7c09846f)">
     <use xlink:href="#mca4716f2ed" x="111.875933" y="152.256123" style="fill: #5f89c3; fill-opacity: 0.6; stroke: #808080; stroke-opacity: 0.6"/>
     <use xlink:href="#mca4716f2ed" x="111.875933" y="180.662282" style="fill: #5f89c3; fill-opacity: 0.6; stroke: #808080; stroke-opacity: 0.6"/>
     <use xlink:href="#mca4716f2ed" x="111.875933" y="202.940319" style="fill: #5f89c3; fill-opacity: 0.6; stroke: #808080; stroke-opacity: 0.6"/>
     <use xlink:href="#mca4716f2ed" x="111.875933" y="214.625311" style="fill: #5f89c3; fill-opacity: 0.6; stroke: #808080; stroke-opacity: 0.6"/>
     <use xlink:href="#mca4716f2ed" x="266.216193" y="89.887371" style="fill: #5f89c3; fill-opacity: 0.6; stroke: #808080; stroke-opacity: 0.6"/>
     <use xlink:href="#mca4716f2ed" x="242.831305" y="132.307175" style="fill: #5f89c3; fill-opacity: 0.6; stroke: #808080; stroke-opacity: 0.6"/>
     <use xlink:href="#mca4716f2ed" x="235.815839" y="86.936466" style="fill: #5f89c3; fill-opacity: 0.6; stroke: #808080; stroke-opacity: 0.6"/>
     <use xlink:href="#mca4716f2ed" x="240.492817" y="81.774037" style="fill: #5f89c3; fill-opacity: 0.6; stroke: #808080; stroke-opacity: 0.6"/>
     <use xlink:href="#mca4716f2ed" x="252.18526" y="101.730472" style="fill: #5f89c3; fill-opacity: 0.6; stroke: #808080; stroke-opacity: 0.6"/>
     <use xlink:href="#mca4716f2ed" x="207.753974" y="116.582288" style="fill: #5f89c3; fill-opacity: 0.6; stroke: #808080; stroke-opacity: 0.6"/>
     <use xlink:href="#mca4716f2ed" x="238.154328" y="99.597989" style="fill: #5f89c3; fill-opacity: 0.6; stroke: #808080; stroke-opacity: 0.6"/>
     <use xlink:href="#mca4716f2ed" x="189.046063" y="81.446656" style="fill: #5f89c3; fill-opacity: 0.6; stroke: #808080; stroke-opacity: 0.6"/>
     <use xlink:href="#mca4716f2ed" x="217.107929" y="73.582586" style="fill: #5f89c3; fill-opacity: 0.6; stroke: #808080; stroke-opacity: 0.6"/>
     <use xlink:href="#mca4716f2ed" x="217.107929" y="99.356395" style="fill: #5f89c3; fill-opacity: 0.6; stroke: #808080; stroke-opacity: 0.6"/>
     <use xlink:href="#mca4716f2ed" x="242.831305" y="79.54006" style="fill: #5f89c3; fill-opacity: 0.6; stroke: #808080; stroke-opacity: 0.6"/>
     <use xlink:href="#mca4716f2ed" x="102.521978" y="154.80111" style="fill: #5f89c3; fill-opacity: 0.6; stroke: #808080; stroke-opacity: 0.6"/>
     <use xlink:href="#mca4716f2ed" x="224.123395" y="111.497045" style="fill: #5f89c3; fill-opacity: 0.6; stroke: #808080; stroke-opacity: 0.6"/>
     <use xlink:href="#mca4716f2ed" x="207.753974" y="90.748413" style="fill: #5f89c3; fill-opacity: 0.6; stroke: #808080; stroke-opacity: 0.6"/>
     <use xlink:href="#mca4716f2ed" x="249.846772" y="80.043744" style="fill: #5f89c3; fill-opacity: 0.6; stroke: #808080; stroke-opacity: 0.6"/>
     <use xlink:href="#mca4716f2ed" x="203.076996" y="78.480569" style="fill: #5f89c3; fill-opacity: 0.6; stroke: #808080; stroke-opacity: 0.6"/>
     <use xlink:href="#mca4716f2ed" x="247.508283" y="74.483448" style="fill: #5f89c3; fill-opacity: 0.6; stroke: #808080; stroke-opacity: 0.6"/>
     <use xlink:href="#mca4716f2ed" x="210.092462" y="83.448383" style="fill: #5f89c3; fill-opacity: 0.6; stroke: #808080; stroke-opacity: 0.6"/>
     <use xlink:href="#mca4716f2ed" x="158.645709" y="100.918694" style="fill: #5f89c3; fill-opacity: 0.6; stroke: #808080; stroke-opacity: 0.6"/>
     <use xlink:href="#mca4716f2ed" x="123.568377" y="168.517106" style="fill: #5f89c3; fill-opacity: 0.6; stroke: #808080; stroke-opacity: 0.6"/>
     <use xlink:href="#mca4716f2ed" x="104.860467" y="194.908893" style="fill: #5f89c3; fill-opacity: 0.6; stroke: #808080; stroke-opacity: 0.6"/>
     <use xlink:href="#mca4716f2ed" x="104.860467" y="182.039547" style="fill: #5f89c3; fill-opacity: 0.6; stroke: #808080; stroke-opacity: 0.6"/>
     <use xlink:href="#mca4716f2ed" x="104.860467" y="159.497468" style="fill: #5f89c3; fill-opacity: 0.6; stroke: #808080; stroke-opacity: 0.6"/>
     <use xlink:href="#mca4716f2ed" x="125.906866" y="170.504174" style="fill: #5f89c3; fill-opacity: 0.6; stroke: #808080; stroke-opacity: 0.6"/>
     <use xlink:href="#mca4716f2ed" x="100.18349" y="179.374599" style="fill: #5f89c3; fill-opacity: 0.6; stroke: #808080; stroke-opacity: 0.6"/>
     <use xlink:href="#mca4716f2ed" x="102.521978" y="216.376875" style="fill: #5f89c3; fill-opacity: 0.6; stroke: #808080; stroke-opacity: 0.6"/>
     <use xlink:href="#mca4716f2ed" x="86.152557" y="181.342618" style="fill: #5f89c3; fill-opacity: 0.6; stroke: #808080; stroke-opacity: 0.6"/>
    </g>
   </g>
   <g id="line2d_24">
    <g clip-path="url(#p7b7c09846f)">
     <use xlink:href="#mca4716f2ed" x="111.875933" y="140.489941" style="fill: #5f89c3; fill-opacity: 0.6; stroke: #808080; stroke-opacity: 0.6"/>
     <use xlink:href="#mca4716f2ed" x="111.875933" y="163.9828" style="fill: #5f89c3; fill-opacity: 0.6; stroke: #808080; stroke-opacity: 0.6"/>
     <use xlink:href="#mca4716f2ed" x="111.875933" y="163.978234" style="fill: #5f89c3; fill-opacity: 0.6; stroke: #808080; stroke-opacity: 0.6"/>
     <use xlink:href="#mca4716f2ed" x="111.875933" y="125.138634" style="fill: #5f89c3; fill-opacity: 0.6; stroke: #808080; stroke-opacity: 0.6"/>
     <use xlink:href="#mca4716f2ed" x="266.216193" y="61.486108" style="fill: #5f89c3; fill-opacity: 0.6; stroke: #808080; stroke-opacity: 0.6"/>
     <use xlink:href="#mca4716f2ed" x="242.831305" y="116.816679" style="fill: #5f89c3; fill-opacity: 0.6; stroke: #808080; stroke-opacity: 0.6"/>
     <use xlink:href="#mca4716f2ed" x="235.815839" y="82.791033" style="fill: #5f89c3; fill-opacity: 0.6; stroke: #808080; stroke-opacity: 0.6"/>
     <use xlink:href="#mca4716f2ed" x="240.492817" y="61.466645" style="fill: #5f89c3; fill-opacity: 0.6; stroke: #808080; stroke-opacity: 0.6"/>
     <use xlink:href="#mca4716f2ed" x="252.18526" y="88.942205" style="fill: #5f89c3; fill-opacity: 0.6; stroke: #808080; stroke-opacity: 0.6"/>
     <use xlink:href="#mca4716f2ed" x="207.753974" y="89.921883" style="fill: #5f89c3; fill-opacity: 0.6; stroke: #808080; stroke-opacity: 0.6"/>
     <use xlink:href="#mca4716f2ed" x="238.154328" y="80.191361" style="fill: #5f89c3; fill-opacity: 0.6; stroke: #808080; stroke-opacity: 0.6"/>
     <use xlink:href="#mca4716f2ed" x="189.046063" y="55.487925" style="fill: #5f89c3; fill-opacity: 0.6; stroke: #808080; stroke-opacity: 0.6"/>
     <use xlink:href="#mca4716f2ed" x="217.107929" y="47.081275" style="fill: #5f89c3; fill-opacity: 0.6; stroke: #808080; stroke-opacity: 0.6"/>
     <use xlink:href="#mca4716f2ed" x="217.107929" y="79.181832" style="fill: #5f89c3; fill-opacity: 0.6; stroke: #808080; stroke-opacity: 0.6"/>
     <use xlink:href="#mca4716f2ed" x="242.831305" y="56.695497" style="fill: #5f89c3; fill-opacity: 0.6; stroke: #808080; stroke-opacity: 0.6"/>
     <use xlink:href="#mca4716f2ed" x="102.521978" y="141.83183" style="fill: #5f89c3; fill-opacity: 0.6; stroke: #808080; stroke-opacity: 0.6"/>
     <use xlink:href="#mca4716f2ed" x="224.123395" y="61.026259" style="fill: #5f89c3; fill-opacity: 0.6; stroke: #808080; stroke-opacity: 0.6"/>
     <use xlink:href="#mca4716f2ed" x="207.753974" y="75.311773" style="fill: #5f89c3; fill-opacity: 0.6; stroke: #808080; stroke-opacity: 0.6"/>
     <use xlink:href="#mca4716f2ed" x="249.846772" y="55.666935" style="fill: #5f89c3; fill-opacity: 0.6; stroke: #808080; stroke-opacity: 0.6"/>
     <use xlink:href="#mca4716f2ed" x="203.076996" y="60.906594" style="fill: #5f89c3; fill-opacity: 0.6; stroke: #808080; stroke-opacity: 0.6"/>
     <use xlink:href="#mca4716f2ed" x="247.508283" y="50.894603" style="fill: #5f89c3; fill-opacity: 0.6; stroke: #808080; stroke-opacity: 0.6"/>
     <use xlink:href="#mca4716f2ed" x="210.092462" y="54.772254" style="fill: #5f89c3; fill-opacity: 0.6; stroke: #808080; stroke-opacity: 0.6"/>
     <use xlink:href="#mca4716f2ed" x="158.645709" y="87.446129" style="fill: #5f89c3; fill-opacity: 0.6; stroke: #808080; stroke-opacity: 0.6"/>
     <use xlink:href="#mca4716f2ed" x="123.568377" y="145.780505" style="fill: #5f89c3; fill-opacity: 0.6; stroke: #808080; stroke-opacity: 0.6"/>
     <use xlink:href="#mca4716f2ed" x="104.860467" y="157.279187" style="fill: #5f89c3; fill-opacity: 0.6; stroke: #808080; stroke-opacity: 0.6"/>
     <use xlink:href="#mca4716f2ed" x="104.860467" y="161.9211" style="fill: #5f89c3; fill-opacity: 0.6; stroke: #808080; stroke-opacity: 0.6"/>
     <use xlink:href="#mca4716f2ed" x="104.860467" y="125.610083" style="fill: #5f89c3; fill-opacity: 0.6; stroke: #808080; stroke-opacity: 0.6"/>
     <use xlink:href="#mca4716f2ed" x="125.906866" y="165.901428" style="fill: #5f89c3; fill-opacity: 0.6; stroke: #808080; stroke-opacity: 0.6"/>
     <use xlink:href="#mca4716f2ed" x="100.18349" y="162.776617" style="fill: #5f89c3; fill-opacity: 0.6; stroke: #808080; stroke-opacity: 0.6"/>
     <use xlink:href="#mca4716f2ed" x="102.521978" y="152.666875" style="fill: #5f89c3; fill-opacity: 0.6; stroke: #808080; stroke-opacity: 0.6"/>
     <use xlink:href="#mca4716f2ed" x="86.152557" y="148.66669" style="fill: #5f89c3; fill-opacity: 0.6; stroke: #808080; stroke-opacity: 0.6"/>
    </g>
   </g>
   <g id="line2d_25">
    <path d="M 86.152557 174.663285 
L 87.971381 173.491127 
L 89.790206 172.318969 
L 91.609031 171.14681 
L 93.427855 169.974652 
L 95.24668 168.802493 
L 97.065504 167.630335 
L 98.884329 166.458177 
L 100.703154 165.286018 
L 102.521978 164.11386 
L 104.340803 162.941702 
L 106.159628 161.769543 
L 107.978452 160.597385 
L 109.797277 159.425227 
L 111.616101 158.253068 
L 113.434926 157.08091 
L 115.253751 155.908752 
L 117.072575 154.736593 
L 118.8914 153.564435 
L 120.710224 152.392277 
L 122.529049 151.220118 
L 124.347874 150.04796 
L 126.166698 148.875802 
L 127.985523 147.703643 
L 129.804347 146.531485 
L 131.623172 145.359326 
L 133.441997 144.187168 
L 135.260821 143.01501 
L 137.079646 141.842851 
L 138.898471 140.670693 
L 140.717295 139.498535 
L 142.53612 138.326376 
L 144.354944 137.154218 
L 146.173769 135.98206 
L 147.992594 134.809901 
L 149.811418 133.637743 
L 151.630243 132.465585 
L 153.449067 131.293426 
L 155.267892 130.121268 
L 157.086717 128.94911 
L 158.905541 127.776951 
L 160.724366 126.604793 
L 162.54319 125.432635 
L 164.362015 124.260476 
L 166.18084 123.088318 
L 167.999664 121.916159 
L 169.818489 120.744001 
L 171.637313 119.571843 
L 173.456138 118.399684 
L 175.274963 117.227526 
L 177.093787 116.055368 
L 178.912612 114.883209 
L 180.731437 113.711051 
L 182.550261 112.538893 
L 184.369086 111.366734 
L 186.18791 110.194576 
L 188.006735 109.022418 
L 189.82556 107.850259 
L 191.644384 106.678101 
L 193.463209 105.505943 
L 195.282033 104.333784 
L 197.100858 103.161626 
L 198.919683 101.989468 
L 200.738507 100.817309 
L 202.557332 99.645151 
L 204.376156 98.472992 
L 206.194981 97.300834 
L 208.013806 96.128676 
L 209.83263 94.956517 
L 211.651455 93.784359 
L 213.470279 92.612201 
L 215.289104 91.440042 
L 217.107929 90.267884 
L 218.926753 89.095726 
L 220.745578 87.923567 
L 222.564403 86.751409 
L 224.383227 85.579251 
L 226.202052 84.407092 
L 228.020876 83.234934 
L 229.839701 82.062776 
L 231.658526 80.890617 
L 233.47735 79.718459 
L 235.296175 78.546301 
L 237.114999 77.374142 
L 238.933824 76.201984 
L 240.752649 75.029825 
L 242.571473 73.857667 
L 244.390298 72.685509 
L 246.209122 71.51335 
L 248.027947 70.341192 
L 249.846772 69.169034 
L 251.665596 67.996875 
L 253.484421 66.824717 
L 255.303246 65.652559 
L 257.12207 64.4804 
L 258.940895 63.308242 
L 260.759719 62.136084 
L 262.578544 60.963925 
L 264.397369 59.791767 
L 266.216193 58.619609 
" clip-path="url(#p7b7c09846f)" style="fill: none; stroke-dasharray: 8.325,3.6; stroke-dashoffset: 0; stroke: #000000; stroke-width: 2.25"/>
   </g>
   <g id="line2d_26">
    <defs>
     <path id="m20d1aaeaa6" d="M 0 3 
C 0.795609 3 1.55874 2.683901 2.12132 2.12132 
C 2.683901 1.55874 3 0.795609 3 0 
C 3 -0.795609 2.683901 -1.55874 2.12132 -2.12132 
C 1.55874 -2.683901 0.795609 -3 0 -3 
C -0.795609 -3 -1.55874 -2.683901 -2.12132 -2.12132 
C -2.683901 -1.55874 -3 -0.795609 -3 0 
C -3 0.795609 -2.683901 1.55874 -2.12132 2.12132 
C -1.55874 2.683901 -0.795609 3 0 3 
z
" style="stroke: #5f89c3; stroke-opacity: 0.6"/>
    </defs>
    <g clip-path="url(#p7b7c09846f)">
     <use xlink:href="#m20d1aaeaa6" x="111.875933" y="146.373032" style="fill: #5f89c3; fill-opacity: 0.6; stroke: #5f89c3; stroke-opacity: 0.6"/>
     <use xlink:href="#m20d1aaeaa6" x="111.875933" y="172.322541" style="fill: #5f89c3; fill-opacity: 0.6; stroke: #5f89c3; stroke-opacity: 0.6"/>
     <use xlink:href="#m20d1aaeaa6" x="111.875933" y="183.459277" style="fill: #5f89c3; fill-opacity: 0.6; stroke: #5f89c3; stroke-opacity: 0.6"/>
     <use xlink:href="#m20d1aaeaa6" x="111.875933" y="169.881972" style="fill: #5f89c3; fill-opacity: 0.6; stroke: #5f89c3; stroke-opacity: 0.6"/>
     <use xlink:href="#m20d1aaeaa6" x="266.216193" y="75.68674" style="fill: #5f89c3; fill-opacity: 0.6; stroke: #5f89c3; stroke-opacity: 0.6"/>
     <use xlink:href="#m20d1aaeaa6" x="242.831305" y="124.561927" style="fill: #5f89c3; fill-opacity: 0.6; stroke: #5f89c3; stroke-opacity: 0.6"/>
     <use xlink:href="#m20d1aaeaa6" x="235.815839" y="84.863749" style="fill: #5f89c3; fill-opacity: 0.6; stroke: #5f89c3; stroke-opacity: 0.6"/>
     <use xlink:href="#m20d1aaeaa6" x="240.492817" y="71.620341" style="fill: #5f89c3; fill-opacity: 0.6; stroke: #5f89c3; stroke-opacity: 0.6"/>
     <use xlink:href="#m20d1aaeaa6" x="252.18526" y="95.336339" style="fill: #5f89c3; fill-opacity: 0.6; stroke: #5f89c3; stroke-opacity: 0.6"/>
     <use xlink:href="#m20d1aaeaa6" x="207.753974" y="103.252086" style="fill: #5f89c3; fill-opacity: 0.6; stroke: #5f89c3; stroke-opacity: 0.6"/>
     <use xlink:href="#m20d1aaeaa6" x="238.154328" y="89.894675" style="fill: #5f89c3; fill-opacity: 0.6; stroke: #5f89c3; stroke-opacity: 0.6"/>
     <use xlink:href="#m20d1aaeaa6" x="189.046063" y="68.467291" style="fill: #5f89c3; fill-opacity: 0.6; stroke: #5f89c3; stroke-opacity: 0.6"/>
     <use xlink:href="#m20d1aaeaa6" x="217.107929" y="60.33193" style="fill: #5f89c3; fill-opacity: 0.6; stroke: #5f89c3; stroke-opacity: 0.6"/>
     <use xlink:href="#m20d1aaeaa6" x="217.107929" y="89.269114" style="fill: #5f89c3; fill-opacity: 0.6; stroke: #5f89c3; stroke-opacity: 0.6"/>
     <use xlink:href="#m20d1aaeaa6" x="242.831305" y="68.117779" style="fill: #5f89c3; fill-opacity: 0.6; stroke: #5f89c3; stroke-opacity: 0.6"/>
     <use xlink:href="#m20d1aaeaa6" x="102.521978" y="148.31647" style="fill: #5f89c3; fill-opacity: 0.6; stroke: #5f89c3; stroke-opacity: 0.6"/>
     <use xlink:href="#m20d1aaeaa6" x="224.123395" y="86.261652" style="fill: #5f89c3; fill-opacity: 0.6; stroke: #5f89c3; stroke-opacity: 0.6"/>
     <use xlink:href="#m20d1aaeaa6" x="207.753974" y="83.030093" style="fill: #5f89c3; fill-opacity: 0.6; stroke: #5f89c3; stroke-opacity: 0.6"/>
     <use xlink:href="#m20d1aaeaa6" x="249.846772" y="67.85534" style="fill: #5f89c3; fill-opacity: 0.6; stroke: #5f89c3; stroke-opacity: 0.6"/>
     <use xlink:href="#m20d1aaeaa6" x="203.076996" y="69.693582" style="fill: #5f89c3; fill-opacity: 0.6; stroke: #5f89c3; stroke-opacity: 0.6"/>
     <use xlink:href="#m20d1aaeaa6" x="247.508283" y="62.689026" style="fill: #5f89c3; fill-opacity: 0.6; stroke: #5f89c3; stroke-opacity: 0.6"/>
     <use xlink:href="#m20d1aaeaa6" x="210.092462" y="69.110319" style="fill: #5f89c3; fill-opacity: 0.6; stroke: #5f89c3; stroke-opacity: 0.6"/>
     <use xlink:href="#m20d1aaeaa6" x="158.645709" y="94.182411" style="fill: #5f89c3; fill-opacity: 0.6; stroke: #5f89c3; stroke-opacity: 0.6"/>
     <use xlink:href="#m20d1aaeaa6" x="123.568377" y="157.148805" style="fill: #5f89c3; fill-opacity: 0.6; stroke: #5f89c3; stroke-opacity: 0.6"/>
     <use xlink:href="#m20d1aaeaa6" x="104.860467" y="176.09404" style="fill: #5f89c3; fill-opacity: 0.6; stroke: #5f89c3; stroke-opacity: 0.6"/>
     <use xlink:href="#m20d1aaeaa6" x="104.860467" y="171.980324" style="fill: #5f89c3; fill-opacity: 0.6; stroke: #5f89c3; stroke-opacity: 0.6"/>
     <use xlink:href="#m20d1aaeaa6" x="104.860467" y="142.553775" style="fill: #5f89c3; fill-opacity: 0.6; stroke: #5f89c3; stroke-opacity: 0.6"/>
     <use xlink:href="#m20d1aaeaa6" x="125.906866" y="168.202801" style="fill: #5f89c3; fill-opacity: 0.6; stroke: #5f89c3; stroke-opacity: 0.6"/>
     <use xlink:href="#m20d1aaeaa6" x="100.18349" y="171.075608" style="fill: #5f89c3; fill-opacity: 0.6; stroke: #5f89c3; stroke-opacity: 0.6"/>
     <use xlink:href="#m20d1aaeaa6" x="102.521978" y="184.521875" style="fill: #5f89c3; fill-opacity: 0.6; stroke: #5f89c3; stroke-opacity: 0.6"/>
     <use xlink:href="#m20d1aaeaa6" x="86.152557" y="165.004654" style="fill: #5f89c3; fill-opacity: 0.6; stroke: #5f89c3; stroke-opacity: 0.6"/>
    </g>
   </g>
   <g id="patch_3">
    <path d="M 77.149375 224.962 
L 77.149375 36.08925 
" style="fill: none; stroke: #000000; stroke-width: 0.8; stroke-linejoin: miter; stroke-linecap: square"/>
   </g>
   <g id="patch_4">
    <path d="M 275.219375 224.962 
L 275.219375 36.08925 
" style="fill: none; stroke: #000000; stroke-width: 0.8; stroke-linejoin: miter; stroke-linecap: square"/>
   </g>
   <g id="patch_5">
    <path d="M 77.149375 224.962 
L 275.219375 224.962 
" style="fill: none; stroke: #000000; stroke-width: 0.8; stroke-linejoin: miter; stroke-linecap: square"/>
   </g>
   <g id="patch_6">
    <path d="M 77.149375 36.08925 
L 275.219375 36.08925 
" style="fill: none; stroke: #000000; stroke-width: 0.8; stroke-linejoin: miter; stroke-linecap: square"/>
   </g>
   <g id="text_14">
    <text style="font-size: 12px; font-family: 'DejaVu Sans', 'Bitstream Vera Sans', 'Computer Modern Sans Serif', 'Lucida Grande', 'Verdana', 'Geneva', 'Lucid', 'Arial', 'Helvetica', 'Avant Garde', sans-serif" transform="translate(7.2 16.318125)">At2g46140_tile7: nardini_A Patch_raw vs calculated_avg</text>
    <text style="font-size: 12px; font-family: 'DejaVu Sans', 'Bitstream Vera Sans', 'Computer Modern Sans Serif', 'Lucida Grande', 'Verdana', 'Geneva', 'Lucid', 'Arial', 'Helvetica', 'Avant Garde', sans-serif" transform="translate(130.369687 30.08925)">(r=0.73, n=31)</text>
   </g>
   <g id="LineCollection_2">
    <path d="M 86.152557 181.342618 
L 86.152557 148.66669 
" clip-path="url(#p7b7c09846f)" style="fill: none; stroke: #000000; stroke-width: 1.5"/>
    <path clip-path="url(#p7b7c09846f)" style="fill: none; stroke: #000000; stroke-width: 1.5"/>
   </g>
   <g id="legend_1">
    <g id="patch_7">
     <path d="M 84.149375 73.4455 
L 156.8275 73.4455 
Q 158.8275 73.4455 158.8275 71.4455 
L 158.8275 43.08925 
Q 158.8275 41.08925 156.8275 41.08925 
L 84.149375 41.08925 
Q 82.149375 41.08925 82.149375 43.08925 
L 82.149375 71.4455 
Q 82.149375 73.4455 84.149375 73.4455 
z
" style="fill: #ffffff; opacity: 0.8; stroke: #cccccc; stroke-linejoin: miter"/>
    </g>
    <g id="LineCollection_3">
     <path d="M 96.149375 54.187687 
L 96.149375 44.187687 
" style="fill: none; stroke: #808080; stroke-opacity: 0.6"/>
    </g>
    <g id="line2d_27">
     <g>
      <use xlink:href="#mca4716f2ed" x="96.149375" y="54.187687" style="fill: #5f89c3; fill-opacity: 0.6; stroke: #808080; stroke-opacity: 0.6"/>
     </g>
    </g>
    <g id="line2d_28">
     <g>
      <use xlink:href="#mca4716f2ed" x="96.149375" y="44.187687" style="fill: #5f89c3; fill-opacity: 0.6; stroke: #808080; stroke-opacity: 0.6"/>
     </g>
    </g>
    <g id="line2d_29"/>
    <g id="line2d_30">
     <g>
      <use xlink:href="#m20d1aaeaa6" x="96.149375" y="49.187687" style="fill: #5f89c3; fill-opacity: 0.6; stroke: #5f89c3; stroke-opacity: 0.6"/>
     </g>
    </g>
    <g id="text_15">
     <text style="font-size: 10px; font-family: 'DejaVu Sans', 'Bitstream Vera Sans', 'Computer Modern Sans Serif', 'Lucida Grande', 'Verdana', 'Geneva', 'Lucid', 'Arial', 'Helvetica', 'Avant Garde', sans-serif; text-anchor: start" x="114.149375" y="52.687687" transform="rotate(-0 114.149375 52.687687)">Variants</text>
    </g>
    <g id="LineCollection_4">
     <path d="M 96.149375 68.865812 
L 96.149375 58.865812 
" style="fill: none; stroke: #000000; stroke-width: 1.5"/>
    </g>
    <g id="line2d_31"/>
    <g id="line2d_32">
     <defs>
      <path id="m8040d91efb" d="M -5 5 
L 5 5 
L 5 -5 
L -5 -5 
z
" style="stroke: #ffffff; stroke-width: 1.5; stroke-linejoin: miter"/>
     </defs>
     <g>
      <use xlink:href="#m8040d91efb" x="96.149375" y="63.865812" style="stroke: #ffffff; stroke-width: 1.5; stroke-linejoin: miter"/>
     </g>
    </g>
    <g id="text_16">
     <text style="font-size: 10px; font-family: 'DejaVu Sans', 'Bitstream Vera Sans', 'Computer Modern Sans Serif', 'Lucida Grande', 'Verdana', 'Geneva', 'Lucid', 'Arial', 'Helvetica', 'Avant Garde', sans-serif; text-anchor: start" x="114.149375" y="67.365812" transform="rotate(-0 114.149375 67.365812)">WT</text>
    </g>
   </g>
   <g id="line2d_33">
    <g clip-path="url(#p7b7c09846f)">
     <use xlink:href="#m8040d91efb" x="86.152557" y="165.004654" style="stroke: #ffffff; stroke-width: 1.5; stroke-linejoin: miter"/>
    </g>
   </g>
  </g>
 </g>
 <defs>
  <clipPath id="p7b7c09846f">
   <rect x="77.149375" y="36.08925" width="198.07" height="188.87275"/>
  </clipPath>
 </defs>
</svg>
