<?xml version="1.0" encoding="utf-8" standalone="no"?>
<!DOCTYPE svg PUBLIC "-//W3C//DTD SVG 1.1//EN"
  "http://www.w3.org/Graphics/SVG/1.1/DTD/svg11.dtd">
<svg xmlns:xlink="http://www.w3.org/1999/xlink" width="144pt" height="324pt" viewBox="0 0 144 324" xmlns="http://www.w3.org/2000/svg" version="1.1">
 <metadata>
  <rdf:RDF xmlns:dc="http://purl.org/dc/elements/1.1/" xmlns:cc="http://creativecommons.org/ns#" xmlns:rdf="http://www.w3.org/1999/02/22-rdf-syntax-ns#">
   <cc:Work>
    <dc:type rdf:resource="http://purl.org/dc/dcmitype/StillImage"/>
    <dc:date>2025-12-05T14:51:44.085343</dc:date>
    <dc:format>image/svg+xml</dc:format>
    <dc:creator>
     <cc:Agent>
      <dc:title>Matplotlib v3.10.0, https://matplotlib.org/</dc:title>
     </cc:Agent>
    </dc:creator>
   </cc:Work>
  </rdf:RDF>
 </metadata>
 <defs>
  <style type="text/css">*{stroke-linejoin: round; stroke-linecap: butt}</style>
 </defs>
 <g id="figure_1">
  <g id="patch_1">
   <path d="M 0 324 
L 144 324 
L 144 0 
L 0 0 
z
" style="fill: #ffffff"/>
  </g>
  <g id="axes_1">
   <g id="patch_2">
    <path d="M 21.6 291.6 
L 136.8 291.6 
L 136.8 16.2 
L 21.6 16.2 
z
" style="fill: #ffffff"/>
   </g>
   <g id="FillBetweenPolyCollection_1">
    <path d="M 47.771488 204.781276 
L 45.173967 204.781276 
L 45.034759 203.392748 
L 44.906245 202.004219 
L 44.79038 200.61569 
L 44.687427 199.227161 
L 44.595854 197.838633 
L 44.512428 196.450104 
L 44.43248 195.061575 
L 44.350311 193.673046 
L 44.25967 192.284518 
L 44.154254 190.895989 
L 44.028198 189.50746 
L 43.876508 188.118931 
L 43.695432 186.730403 
L 43.482751 185.341874 
L 43.237985 183.953345 
L 42.962481 182.564816 
L 42.659353 181.176288 
L 42.333244 179.787759 
L 41.98987 178.39923 
L 41.635357 177.010701 
L 41.275414 175.622173 
L 40.914427 174.233644 
L 40.55462 172.845115 
L 40.195428 171.456586 
L 39.833225 170.068058 
L 39.461484 168.679529 
L 39.071374 167.291 
L 38.652721 165.902471 
L 38.195179 164.513943 
L 37.68944 163.125414 
L 37.128309 161.736885 
L 36.507541 160.348356 
L 35.82639 158.959828 
L 35.087891 157.571299 
L 34.298933 156.18277 
L 33.470179 154.794241 
L 32.615848 153.405712 
L 31.753347 152.017184 
L 30.902673 150.628655 
L 30.08552 149.240126 
L 29.324068 147.851597 
L 28.639479 146.463069 
L 28.05026 145.07454 
L 27.570689 143.686011 
L 27.209606 142.297482 
L 26.969783 140.908954 
L 26.848074 139.520425 
L 26.836364 138.131896 
L 26.923189 136.743367 
L 27.09578 135.354839 
L 27.342144 133.96631 
L 27.652808 132.577781 
L 28.021907 131.189252 
L 28.447431 129.800724 
L 28.930623 128.412195 
L 29.474674 127.023666 
L 30.083024 125.635137 
L 30.7576 124.246609 
L 31.497323 122.85808 
L 32.297134 121.469551 
L 33.147659 120.081022 
L 34.035532 118.692494 
L 34.944269 117.303965 
L 35.855544 115.915436 
L 36.750652 114.526907 
L 37.612005 113.138379 
L 38.424445 111.74985 
L 39.176282 110.361321 
L 39.859918 108.972792 
L 40.472048 107.584264 
L 41.013421 106.195735 
L 41.488232 104.807206 
L 41.903268 103.418677 
L 42.266935 102.030149 
L 42.588303 100.64162 
L 42.876313 99.253091 
L 43.139175 97.864562 
L 43.384003 96.476034 
L 43.616629 95.087505 
L 43.841543 93.698976 
L 44.061883 92.310447 
L 44.279455 90.921919 
L 44.494737 89.53339 
L 44.706934 88.144861 
L 44.914084 86.756332 
L 45.113279 85.367804 
L 45.301002 83.979275 
L 45.47356 82.590746 
L 45.627577 81.202217 
L 45.760455 79.813688 
L 45.870758 78.42516 
L 45.958428 77.036631 
L 46.024828 75.648102 
L 46.072586 74.259573 
L 46.105293 72.871045 
L 46.127079 71.482516 
L 46.14216 70.093987 
L 46.154394 68.705458 
L 46.166937 67.31693 
L 46.778518 67.31693 
L 46.778518 67.31693 
L 46.79106 68.705458 
L 46.803295 70.093987 
L 46.818375 71.482516 
L 46.840162 72.871045 
L 46.872868 74.259573 
L 46.920627 75.648102 
L 46.987026 77.036631 
L 47.074696 78.42516 
L 47.184999 79.813688 
L 47.317878 81.202217 
L 47.471894 82.590746 
L 47.644452 83.979275 
L 47.832175 85.367804 
L 48.031371 86.756332 
L 48.238521 88.144861 
L 48.450718 89.53339 
L 48.666 90.921919 
L 48.883571 92.310447 
L 49.103912 93.698976 
L 49.328825 95.087505 
L 49.561452 96.476034 
L 49.80628 97.864562 
L 50.069142 99.253091 
L 50.357151 100.64162 
L 50.67852 102.030149 
L 51.042186 103.418677 
L 51.457223 104.807206 
L 51.932034 106.195735 
L 52.473406 107.584264 
L 53.085537 108.972792 
L 53.769173 110.361321 
L 54.521009 111.74985 
L 55.33345 113.138379 
L 56.194802 114.526907 
L 57.089911 115.915436 
L 58.001185 117.303965 
L 58.909923 118.692494 
L 59.797796 120.081022 
L 60.64832 121.469551 
L 61.448131 122.85808 
L 62.187855 124.246609 
L 62.862431 125.635137 
L 63.470781 127.023666 
L 64.014831 128.412195 
L 64.498023 129.800724 
L 64.923548 131.189252 
L 65.292647 132.577781 
L 65.60331 133.96631 
L 65.849674 135.354839 
L 66.022266 136.743367 
L 66.109091 138.131896 
L 66.09738 139.520425 
L 65.975672 140.908954 
L 65.735849 142.297482 
L 65.374765 143.686011 
L 64.895195 145.07454 
L 64.305975 146.463069 
L 63.621387 147.851597 
L 62.859935 149.240126 
L 62.042782 150.628655 
L 61.192107 152.017184 
L 60.329606 153.405712 
L 59.475276 154.794241 
L 58.646521 156.18277 
L 57.857564 157.571299 
L 57.119065 158.959828 
L 56.437914 160.348356 
L 55.817146 161.736885 
L 55.256015 163.125414 
L 54.750276 164.513943 
L 54.292734 165.902471 
L 53.874081 167.291 
L 53.48397 168.679529 
L 53.112229 170.068058 
L 52.750027 171.456586 
L 52.390835 172.845115 
L 52.031027 174.233644 
L 51.67004 175.622173 
L 51.310097 177.010701 
L 50.955584 178.39923 
L 50.61221 179.787759 
L 50.286101 181.176288 
L 49.982974 182.564816 
L 49.707469 183.953345 
L 49.462704 185.341874 
L 49.250023 186.730403 
L 49.068946 188.118931 
L 48.917256 189.50746 
L 48.791201 190.895989 
L 48.685785 192.284518 
L 48.595143 193.673046 
L 48.512975 195.061575 
L 48.433027 196.450104 
L 48.3496 197.838633 
L 48.258028 199.227161 
L 48.155074 200.61569 
L 48.039209 202.004219 
L 47.910696 203.392748 
L 47.771488 204.781276 
L 47.771488 204.781276 
z
" clip-path="url(#pa221fe81ba)" style="fill: none; stroke: #000000; stroke-opacity: 0.3"/>
   </g>
   <g id="FillBetweenPolyCollection_2">
    <path d="M 46.84284 217.381334 
L 46.102614 217.381334 
L 46.106306 216.218694 
L 46.118883 215.056053 
L 46.138799 213.893413 
L 46.163787 212.730772 
L 46.191072 211.568131 
L 46.21764 210.405491 
L 46.240501 209.24285 
L 46.256932 208.080209 
L 46.264665 206.917569 
L 46.261998 205.754928 
L 46.247847 204.592287 
L 46.221715 203.429647 
L 46.183608 202.267006 
L 46.133897 201.104366 
L 46.073143 199.941725 
L 46.001897 198.779084 
L 45.920511 197.616444 
L 45.828954 196.453803 
L 45.726685 195.291162 
L 45.612572 194.128522 
L 45.484872 192.965881 
L 45.341277 191.80324 
L 45.178994 190.6406 
L 44.994876 189.477959 
L 44.78557 188.315319 
L 44.547695 187.152678 
L 44.278048 185.990037 
L 43.973843 184.827397 
L 43.632979 183.664756 
L 43.254313 182.502115 
L 42.837916 181.339475 
L 42.385234 180.176834 
L 41.899136 179.014193 
L 41.383773 177.851553 
L 40.84426 176.688912 
L 40.2862 175.526272 
L 39.715116 174.363631 
L 39.135888 173.20099 
L 38.552308 172.03835 
L 37.96685 170.875709 
L 37.380696 169.713068 
L 36.794034 168.550428 
L 36.206546 167.387787 
L 35.617976 166.225146 
L 35.028638 165.062506 
L 34.439734 163.899865 
L 33.853403 162.737225 
L 33.272498 161.574584 
L 32.70016 160.411943 
L 32.139333 159.249303 
L 31.592365 158.086662 
L 31.060849 156.924021 
L 30.545761 155.761381 
L 30.047888 154.59874 
L 29.568439 153.4361 
L 29.109668 152.273459 
L 28.675348 151.110818 
L 28.270917 149.948178 
L 27.903249 148.785537 
L 27.580031 147.622896 
L 27.308854 146.460256 
L 27.096157 145.297615 
L 26.946208 144.134974 
L 26.860309 142.972334 
L 26.836364 141.809693 
L 26.868906 140.647053 
L 26.949641 139.484412 
L 27.068426 138.321771 
L 27.214604 137.159131 
L 27.37848 135.99649 
L 27.552729 134.833849 
L 27.733488 133.671209 
L 27.92096 132.508568 
L 28.119405 131.345927 
L 28.336537 130.183287 
L 28.582441 129.020646 
L 28.86822 127.858006 
L 29.204617 126.695365 
L 29.600836 125.532724 
L 30.063703 124.370084 
L 30.597235 123.207443 
L 31.202551 122.044802 
L 31.878031 120.882162 
L 32.619568 119.719521 
L 33.420823 118.55688 
L 34.273417 117.39424 
L 35.167078 116.231599 
L 36.089808 115.068959 
L 37.028141 113.906318 
L 37.967567 112.743677 
L 38.893135 111.581037 
L 39.790211 110.418396 
L 40.645293 109.255755 
L 41.446791 108.093115 
L 42.185644 106.930474 
L 42.855702 105.767834 
L 43.453831 104.605193 
L 43.979738 103.442552 
L 44.435581 102.279912 
L 48.509873 102.279912 
L 48.509873 102.279912 
L 48.965716 103.442552 
L 49.491624 104.605193 
L 50.089753 105.767834 
L 50.759811 106.930474 
L 51.498663 108.093115 
L 52.300161 109.255755 
L 53.155244 110.418396 
L 54.052319 111.581037 
L 54.977888 112.743677 
L 55.917313 113.906318 
L 56.855646 115.068959 
L 57.778377 116.231599 
L 58.672038 117.39424 
L 59.524632 118.55688 
L 60.325886 119.719521 
L 61.067423 120.882162 
L 61.742903 122.044802 
L 62.34822 123.207443 
L 62.881752 124.370084 
L 63.344619 125.532724 
L 63.740837 126.695365 
L 64.077235 127.858006 
L 64.363014 129.020646 
L 64.608918 130.183287 
L 64.82605 131.345927 
L 65.024495 132.508568 
L 65.211967 133.671209 
L 65.392726 134.833849 
L 65.566974 135.99649 
L 65.730851 137.159131 
L 65.877028 138.321771 
L 65.995814 139.484412 
L 66.076548 140.647053 
L 66.109091 141.809693 
L 66.085145 142.972334 
L 65.999247 144.134974 
L 65.849298 145.297615 
L 65.6366 146.460256 
L 65.365423 147.622896 
L 65.042206 148.785537 
L 64.674537 149.948178 
L 64.270106 151.110818 
L 63.835786 152.273459 
L 63.377016 153.4361 
L 62.897566 154.59874 
L 62.399693 155.761381 
L 61.884605 156.924021 
L 61.353089 158.086662 
L 60.806121 159.249303 
L 60.245294 160.411943 
L 59.672957 161.574584 
L 59.092051 162.737225 
L 58.50572 163.899865 
L 57.916816 165.062506 
L 57.327478 166.225146 
L 56.738909 167.387787 
L 56.151421 168.550428 
L 55.564759 169.713068 
L 54.978605 170.875709 
L 54.393146 172.03835 
L 53.809566 173.20099 
L 53.230338 174.363631 
L 52.659254 175.526272 
L 52.101195 176.688912 
L 51.561682 177.851553 
L 51.046318 179.014193 
L 50.56022 180.176834 
L 50.107539 181.339475 
L 49.691141 182.502115 
L 49.312476 183.664756 
L 48.971611 184.827397 
L 48.667407 185.990037 
L 48.39776 187.152678 
L 48.159885 188.315319 
L 47.950579 189.477959 
L 47.766461 190.6406 
L 47.604178 191.80324 
L 47.460582 192.965881 
L 47.332883 194.128522 
L 47.21877 195.291162 
L 47.116501 196.453803 
L 47.024944 197.616444 
L 46.943557 198.779084 
L 46.872312 199.941725 
L 46.811557 201.104366 
L 46.761847 202.267006 
L 46.72374 203.429647 
L 46.697608 204.592287 
L 46.683456 205.754928 
L 46.68079 206.917569 
L 46.688522 208.080209 
L 46.704954 209.24285 
L 46.727815 210.405491 
L 46.754382 211.568131 
L 46.781668 212.730772 
L 46.806656 213.893413 
L 46.826572 215.056053 
L 46.839148 216.218694 
L 46.84284 217.381334 
L 46.84284 217.381334 
z
" clip-path="url(#pa221fe81ba)" style="fill: none; stroke: #000000; stroke-opacity: 0.3"/>
   </g>
   <g id="FillBetweenPolyCollection_3">
    <path d="M 46.979629 202.34918 
L 45.965826 202.34918 
L 45.89358 200.959275 
L 45.814483 199.569371 
L 45.725223 198.179467 
L 45.621681 196.789562 
L 45.499345 195.399658 
L 45.353802 194.009753 
L 45.181219 192.619849 
L 44.978728 191.229945 
L 44.744679 189.84004 
L 44.478765 188.450136 
L 44.182077 187.060231 
L 43.857128 185.670327 
L 43.507885 184.280423 
L 43.139744 182.890518 
L 42.759311 181.500614 
L 42.373849 180.110709 
L 41.990251 178.720805 
L 41.613578 177.330901 
L 41.245384 175.940996 
L 40.882231 174.551092 
L 40.514899 173.161187 
L 40.128747 171.771283 
L 39.705418 170.381379 
L 39.225798 168.991474 
L 38.673698 167.60157 
L 38.039538 166.211666 
L 37.323158 164.821761 
L 36.53505 163.431857 
L 35.695593 162.041952 
L 34.83231 160.652048 
L 33.975614 159.262144 
L 33.153841 157.872239 
L 32.388586 156.482335 
L 31.691345 155.09243 
L 31.062221 153.702526 
L 30.491118 152.312622 
L 29.96129 150.922717 
L 29.454618 149.532813 
L 28.957562 148.142908 
L 28.466453 146.753004 
L 27.990854 145.3631 
L 27.55401 143.973195 
L 27.190057 142.583291 
L 26.938392 141.193387 
L 26.836364 139.803482 
L 26.911959 138.413578 
L 27.178222 137.023673 
L 27.630761 135.633769 
L 28.248893 134.243865 
L 28.999968 132.85396 
L 29.845584 131.464056 
L 30.747983 130.074151 
L 31.675023 128.684247 
L 32.60275 127.294343 
L 33.515471 125.904438 
L 34.403991 124.514534 
L 35.263101 123.124629 
L 36.089409 121.734725 
L 36.880138 120.344821 
L 37.633003 118.954916 
L 38.346764 117.565012 
L 39.021852 116.175108 
L 39.660559 114.785203 
L 40.266551 113.395299 
L 40.843813 112.005394 
L 41.395381 110.61549 
L 41.922305 109.225586 
L 42.423176 107.835681 
L 42.894367 106.445777 
L 43.330928 105.055872 
L 43.727854 103.665968 
L 44.081389 102.276064 
L 44.390019 100.886159 
L 44.654916 99.496255 
L 44.879756 98.10635 
L 45.06999 96.716446 
L 45.231823 95.326542 
L 45.371163 93.936637 
L 45.49284 92.546733 
L 45.600233 91.156828 
L 45.69535 89.766924 
L 45.77924 88.37702 
L 45.852541 86.987115 
L 45.915954 85.597211 
L 45.970496 84.207307 
L 46.017465 82.817402 
L 46.058197 81.427498 
L 46.093734 80.037593 
L 46.124569 78.647689 
L 46.150583 77.257785 
L 46.171217 75.86788 
L 46.185837 74.477976 
L 46.194171 73.088071 
L 46.196684 71.698167 
L 46.194753 70.308263 
L 46.190591 68.918358 
L 46.18692 67.528454 
L 46.186488 66.138549 
L 46.191547 64.748645 
L 46.753908 64.748645 
L 46.753908 64.748645 
L 46.758967 66.138549 
L 46.758535 67.528454 
L 46.754864 68.918358 
L 46.750701 70.308263 
L 46.74877 71.698167 
L 46.751283 73.088071 
L 46.759618 74.477976 
L 46.774237 75.86788 
L 46.794871 77.257785 
L 46.820885 78.647689 
L 46.851721 80.037593 
L 46.887258 81.427498 
L 46.927989 82.817402 
L 46.974958 84.207307 
L 47.0295 85.597211 
L 47.092914 86.987115 
L 47.166214 88.37702 
L 47.250104 89.766924 
L 47.345222 91.156828 
L 47.452615 92.546733 
L 47.574292 93.936637 
L 47.713632 95.326542 
L 47.875464 96.716446 
L 48.065698 98.10635 
L 48.290538 99.496255 
L 48.555436 100.886159 
L 48.864066 102.276064 
L 49.2176 103.665968 
L 49.614526 105.055872 
L 50.051087 106.445777 
L 50.522279 107.835681 
L 51.023149 109.225586 
L 51.550074 110.61549 
L 52.101642 112.005394 
L 52.678903 113.395299 
L 53.284895 114.785203 
L 53.923603 116.175108 
L 54.598691 117.565012 
L 55.312451 118.954916 
L 56.065317 120.344821 
L 56.856046 121.734725 
L 57.682353 123.124629 
L 58.541464 124.514534 
L 59.429983 125.904438 
L 60.342705 127.294343 
L 61.270432 128.684247 
L 62.197471 130.074151 
L 63.099871 131.464056 
L 63.945487 132.85396 
L 64.696561 134.243865 
L 65.314694 135.633769 
L 65.767233 137.023673 
L 66.033495 138.413578 
L 66.109091 139.803482 
L 66.007063 141.193387 
L 65.755398 142.583291 
L 65.391445 143.973195 
L 64.954601 145.3631 
L 64.479001 146.753004 
L 63.987893 148.142908 
L 63.490836 149.532813 
L 62.984164 150.922717 
L 62.454336 152.312622 
L 61.883234 153.702526 
L 61.25411 155.09243 
L 60.556868 156.482335 
L 59.791614 157.872239 
L 58.96984 159.262144 
L 58.113144 160.652048 
L 57.249862 162.041952 
L 56.410404 163.431857 
L 55.622297 164.821761 
L 54.905917 166.211666 
L 54.271756 167.60157 
L 53.719656 168.991474 
L 53.240036 170.381379 
L 52.816708 171.771283 
L 52.430555 173.161187 
L 52.063224 174.551092 
L 51.700071 175.940996 
L 51.331877 177.330901 
L 50.955204 178.720805 
L 50.571605 180.110709 
L 50.186143 181.500614 
L 49.805711 182.890518 
L 49.437569 184.280423 
L 49.088327 185.670327 
L 48.763378 187.060231 
L 48.466689 188.450136 
L 48.200776 189.84004 
L 47.966727 191.229945 
L 47.764236 192.619849 
L 47.591653 194.009753 
L 47.446109 195.399658 
L 47.323773 196.789562 
L 47.220231 198.179467 
L 47.130971 199.569371 
L 47.051874 200.959275 
L 46.979629 202.34918 
L 46.979629 202.34918 
z
" clip-path="url(#pa221fe81ba)" style="fill: none; stroke: #000000; stroke-opacity: 0.3"/>
   </g>
   <g id="FillBetweenPolyCollection_4">
    <path d="M 46.788375 266.289904 
L 46.15708 266.289904 
L 46.167584 264.139326 
L 46.197043 261.988748 
L 46.23996 259.83817 
L 46.289057 257.687592 
L 46.337284 255.537013 
L 46.379384 253.386435 
L 46.412608 251.235857 
L 46.436541 249.085279 
L 46.452371 246.934701 
L 46.462025 244.784123 
L 46.467467 242.633545 
L 46.470302 240.482967 
L 46.471657 238.332389 
L 46.472211 236.18181 
L 46.472295 234.031232 
L 46.471962 231.880654 
L 46.471003 229.730076 
L 46.468891 227.579498 
L 46.464682 225.42892 
L 46.456922 223.278342 
L 46.443646 221.127764 
L 46.422558 218.977186 
L 46.391441 216.826607 
L 46.348705 214.676029 
L 46.293828 212.525451 
L 46.227347 210.374873 
L 46.150158 208.224295 
L 46.062223 206.073717 
L 45.96127 203.923139 
L 45.842331 201.772561 
L 45.698789 199.621983 
L 45.524856 197.471404 
L 45.318434 195.320826 
L 45.082694 193.170248 
L 44.824928 191.01967 
L 44.552384 188.869092 
L 44.266322 186.718514 
L 43.956743 184.567936 
L 43.600362 182.417358 
L 43.163319 180.26678 
L 42.608242 178.116201 
L 41.903529 175.965623 
L 41.031858 173.815045 
L 39.995333 171.664467 
L 38.815984 169.513889 
L 37.531886 167.363311 
L 36.190291 165.212733 
L 34.839758 163.062155 
L 33.523367 160.911577 
L 32.274686 158.760998 
L 31.117329 156.61042 
L 30.06766 154.459842 
L 29.139032 152.309264 
L 28.345442 150.158686 
L 27.70301 148.008108 
L 27.228749 145.85753 
L 26.937228 143.706952 
L 26.836364 141.556374 
L 26.923935 139.405795 
L 27.186491 137.255217 
L 27.601999 135.104639 
L 28.146346 132.954061 
L 28.801773 130.803483 
L 29.563517 128.652905 
L 30.44076 126.502327 
L 31.45023 124.351749 
L 32.604447 122.201171 
L 33.899615 120.050593 
L 35.308612 117.900014 
L 36.782162 115.749436 
L 38.257513 113.598858 
L 39.67092 111.44828 
L 40.969248 109.297702 
L 42.117186 107.147124 
L 43.098848 104.996546 
L 43.914756 102.845968 
L 44.576393 100.69539 
L 45.100654 98.544811 
L 45.505712 96.394233 
L 45.808778 94.243655 
L 46.025376 92.093077 
L 46.16946 89.942499 
L 46.253786 87.791921 
L 46.290317 85.641343 
L 46.29063 83.490765 
L 46.26625 81.340187 
L 46.228689 79.189608 
L 46.188891 77.03903 
L 46.156007 74.888452 
L 46.13584 72.737874 
L 46.129675 70.587296 
L 46.134274 68.436718 
L 46.143349 66.28614 
L 46.150188 64.135562 
L 46.150451 61.984984 
L 46.143994 59.834405 
L 46.134948 57.683827 
L 46.130034 55.533249 
L 46.135859 53.382671 
L 46.809595 53.382671 
L 46.809595 53.382671 
L 46.815421 55.533249 
L 46.810506 57.683827 
L 46.801461 59.834405 
L 46.795003 61.984984 
L 46.795266 64.135562 
L 46.802106 66.28614 
L 46.811181 68.436718 
L 46.815779 70.587296 
L 46.809615 72.737874 
L 46.789447 74.888452 
L 46.756564 77.03903 
L 46.716766 79.189608 
L 46.679204 81.340187 
L 46.654824 83.490765 
L 46.655137 85.641343 
L 46.691669 87.791921 
L 46.775995 89.942499 
L 46.920079 92.093077 
L 47.136677 94.243655 
L 47.439742 96.394233 
L 47.844801 98.544811 
L 48.369062 100.69539 
L 49.030699 102.845968 
L 49.846606 104.996546 
L 50.828269 107.147124 
L 51.976206 109.297702 
L 53.274535 111.44828 
L 54.687942 113.598858 
L 56.163293 115.749436 
L 57.636843 117.900014 
L 59.04584 120.050593 
L 60.341007 122.201171 
L 61.495224 124.351749 
L 62.504695 126.502327 
L 63.381938 128.652905 
L 64.143682 130.803483 
L 64.799108 132.954061 
L 65.343455 135.104639 
L 65.758964 137.255217 
L 66.02152 139.405795 
L 66.109091 141.556374 
L 66.008226 143.706952 
L 65.716705 145.85753 
L 65.242444 148.008108 
L 64.600012 150.158686 
L 63.806423 152.309264 
L 62.877794 154.459842 
L 61.828126 156.61042 
L 60.670768 158.760998 
L 59.422088 160.911577 
L 58.105697 163.062155 
L 56.755164 165.212733 
L 55.413568 167.363311 
L 54.129471 169.513889 
L 52.950122 171.664467 
L 51.913596 173.815045 
L 51.041926 175.965623 
L 50.337213 178.116201 
L 49.782135 180.26678 
L 49.345092 182.417358 
L 48.988712 184.567936 
L 48.679133 186.718514 
L 48.393071 188.869092 
L 48.120527 191.01967 
L 47.862761 193.170248 
L 47.62702 195.320826 
L 47.420599 197.471404 
L 47.246666 199.621983 
L 47.103124 201.772561 
L 46.984185 203.923139 
L 46.883232 206.073717 
L 46.795297 208.224295 
L 46.718107 210.374873 
L 46.651626 212.525451 
L 46.596749 214.676029 
L 46.554013 216.826607 
L 46.522897 218.977186 
L 46.501809 221.127764 
L 46.488532 223.278342 
L 46.480772 225.42892 
L 46.476564 227.579498 
L 46.474452 229.730076 
L 46.473493 231.880654 
L 46.47316 234.031232 
L 46.473243 236.18181 
L 46.473797 238.332389 
L 46.475152 240.482967 
L 46.477988 242.633545 
L 46.483429 244.784123 
L 46.493083 246.934701 
L 46.508914 249.085279 
L 46.532847 251.235857 
L 46.566071 253.386435 
L 46.608171 255.537013 
L 46.656397 257.687592 
L 46.705495 259.83817 
L 46.748411 261.988748 
L 46.777871 264.139326 
L 46.788375 266.289904 
L 46.788375 266.289904 
z
" clip-path="url(#pa221fe81ba)" style="fill: none; stroke: #000000; stroke-opacity: 0.3"/>
   </g>
   <g id="FillBetweenPolyCollection_5">
    <path d="M 47.145966 207.067237 
L 45.799488 207.067237 
L 45.710141 205.69922 
L 45.61815 204.331203 
L 45.523811 202.963187 
L 45.427191 201.59517 
L 45.328086 200.227153 
L 45.225937 198.859136 
L 45.119722 197.491119 
L 45.007839 196.123102 
L 44.888017 194.755085 
L 44.757295 193.387068 
L 44.612097 192.019051 
L 44.448426 190.651035 
L 44.262166 189.283018 
L 44.049482 187.915001 
L 43.807269 186.546984 
L 43.533612 185.178967 
L 43.228176 183.81095 
L 42.892457 182.442933 
L 42.529833 181.074916 
L 42.145346 179.706899 
L 41.745196 178.338883 
L 41.335981 176.970866 
L 40.923731 175.602849 
L 40.512878 174.234832 
L 40.10529 172.866815 
L 39.69952 171.498798 
L 39.290431 170.130781 
L 38.869272 168.762764 
L 38.424285 167.394747 
L 37.941816 166.026731 
L 37.407875 164.658714 
L 36.809985 163.290697 
L 36.13913 161.92268 
L 35.391565 160.554663 
L 34.570215 159.186646 
L 33.685453 157.818629 
L 32.755094 156.450612 
L 31.803531 155.082595 
L 30.86008 153.714579 
L 29.956698 152.346562 
L 29.125326 150.978545 
L 28.395174 149.610528 
L 27.790264 148.242511 
L 27.327508 146.874494 
L 27.015543 145.506477 
L 26.854449 144.13846 
L 26.836364 142.770444 
L 26.946923 141.402427 
L 27.167341 140.03441 
L 27.476871 138.666393 
L 27.855316 137.298376 
L 28.285244 135.930359 
L 28.75359 134.562342 
L 29.252406 133.194325 
L 29.778696 131.826308 
L 30.333404 130.458292 
L 30.91984 129.090275 
L 31.541889 127.722258 
L 32.20241 126.354241 
L 32.902128 124.986224 
L 33.63917 123.618207 
L 34.409216 122.25019 
L 35.206063 120.882173 
L 36.022337 119.514156 
L 36.850091 118.14614 
L 37.681121 116.778123 
L 38.506998 115.410106 
L 39.318909 114.042089 
L 40.107497 112.674072 
L 40.862881 111.306055 
L 41.574978 109.938038 
L 42.234137 108.570021 
L 42.831981 107.202004 
L 43.362298 105.833988 
L 43.821773 104.465971 
L 44.210398 103.097954 
L 44.531475 101.729937 
L 44.791176 100.36192 
L 44.997784 98.993903 
L 45.160724 97.625886 
L 45.28957 96.257869 
L 45.393184 94.889852 
L 45.479092 93.521836 
L 45.553149 92.153819 
L 45.619473 90.785802 
L 45.680588 89.417785 
L 45.737711 88.049768 
L 45.791084 86.681751 
L 45.840325 85.313734 
L 45.884756 83.945717 
L 45.923694 82.5777 
L 45.956705 81.209684 
L 45.983814 79.841667 
L 46.005621 78.47365 
L 46.02333 77.105633 
L 46.038647 75.737616 
L 46.05357 74.369599 
L 46.070097 73.001582 
L 46.089906 71.633565 
L 46.855548 71.633565 
L 46.855548 71.633565 
L 46.875357 73.001582 
L 46.891884 74.369599 
L 46.906808 75.737616 
L 46.922125 77.105633 
L 46.939833 78.47365 
L 46.96164 79.841667 
L 46.988749 81.209684 
L 47.021761 82.5777 
L 47.060698 83.945717 
L 47.105129 85.313734 
L 47.154371 86.681751 
L 47.207744 88.049768 
L 47.264866 89.417785 
L 47.325982 90.785802 
L 47.392305 92.153819 
L 47.466363 93.521836 
L 47.552271 94.889852 
L 47.655884 96.257869 
L 47.78473 97.625886 
L 47.94767 98.993903 
L 48.154279 100.36192 
L 48.41398 101.729937 
L 48.735056 103.097954 
L 49.123682 104.465971 
L 49.583156 105.833988 
L 50.113473 107.202004 
L 50.711318 108.570021 
L 51.370476 109.938038 
L 52.082574 111.306055 
L 52.837957 112.674072 
L 53.626545 114.042089 
L 54.438457 115.410106 
L 55.264334 116.778123 
L 56.095364 118.14614 
L 56.923117 119.514156 
L 57.739392 120.882173 
L 58.536239 122.25019 
L 59.306284 123.618207 
L 60.043327 124.986224 
L 60.743044 126.354241 
L 61.403565 127.722258 
L 62.025614 129.090275 
L 62.612051 130.458292 
L 63.166759 131.826308 
L 63.693049 133.194325 
L 64.191865 134.562342 
L 64.660211 135.930359 
L 65.090139 137.298376 
L 65.468584 138.666393 
L 65.778114 140.03441 
L 65.998532 141.402427 
L 66.109091 142.770444 
L 66.091006 144.13846 
L 65.929912 145.506477 
L 65.617947 146.874494 
L 65.15519 148.242511 
L 64.55028 149.610528 
L 63.820129 150.978545 
L 62.988756 152.346562 
L 62.085374 153.714579 
L 61.141923 155.082595 
L 60.19036 156.450612 
L 59.260001 157.818629 
L 58.37524 159.186646 
L 57.553889 160.554663 
L 56.806324 161.92268 
L 56.13547 163.290697 
L 55.537579 164.658714 
L 55.003638 166.026731 
L 54.52117 167.394747 
L 54.076183 168.762764 
L 53.655024 170.130781 
L 53.245934 171.498798 
L 52.840165 172.866815 
L 52.432576 174.234832 
L 52.021724 175.602849 
L 51.609474 176.970866 
L 51.200258 178.338883 
L 50.800109 179.706899 
L 50.415621 181.074916 
L 50.052998 182.442933 
L 49.717279 183.81095 
L 49.411842 185.178967 
L 49.138186 186.546984 
L 48.895973 187.915001 
L 48.683288 189.283018 
L 48.497029 190.651035 
L 48.333358 192.019051 
L 48.18816 193.387068 
L 48.057437 194.755085 
L 47.937615 196.123102 
L 47.825732 197.491119 
L 47.719518 198.859136 
L 47.617369 200.227153 
L 47.518263 201.59517 
L 47.421644 202.963187 
L 47.327304 204.331203 
L 47.235313 205.69922 
L 47.145966 207.067237 
L 47.145966 207.067237 
z
" clip-path="url(#pa221fe81ba)" style="fill: none; stroke: #000000; stroke-opacity: 0.3"/>
   </g>
   <g id="FillBetweenPolyCollection_6">
    <path d="M 48.327922 203.666714 
L 44.617533 203.666714 
L 44.404737 202.420024 
L 44.185173 201.173333 
L 43.959617 199.926642 
L 43.728556 198.679951 
L 43.492219 197.43326 
L 43.250648 196.186569 
L 43.00382 194.939878 
L 42.751771 193.693188 
L 42.494732 192.446497 
L 42.233234 191.199806 
L 41.968158 189.953115 
L 41.700725 188.706424 
L 41.432407 187.459733 
L 41.164754 186.213042 
L 40.899168 184.966352 
L 40.636615 183.719661 
L 40.377341 182.47297 
L 40.120604 181.226279 
L 39.864468 179.979588 
L 39.605701 178.732897 
L 39.339792 177.486206 
L 39.061112 176.239516 
L 38.763214 174.992825 
L 38.439256 173.746134 
L 38.082519 172.499443 
L 37.686978 171.252752 
L 37.247864 170.006061 
L 36.762178 168.75937 
L 36.229096 167.51268 
L 35.650226 166.265989 
L 35.029685 165.019298 
L 34.373986 163.772607 
L 33.691747 162.525916 
L 32.993235 161.279225 
L 32.289795 160.032534 
L 31.593223 158.785843 
L 30.915127 157.539153 
L 30.266364 156.292462 
L 29.656578 155.045771 
L 29.093918 153.79908 
L 28.584924 152.552389 
L 28.134619 151.305698 
L 27.746755 150.059007 
L 27.424194 148.812317 
L 27.16934 147.565626 
L 26.984562 146.318935 
L 26.872526 145.072244 
L 26.836364 143.825553 
L 26.879642 142.578862 
L 27.006106 141.332171 
L 27.219216 140.085481 
L 27.521533 138.83879 
L 27.914038 137.592099 
L 28.395476 136.345408 
L 28.961853 135.098717 
L 29.60616 133.852026 
L 30.318402 132.605335 
L 31.085958 131.358645 
L 31.894247 130.111954 
L 32.72763 128.865263 
L 33.570453 127.618572 
L 34.408098 126.371881 
L 35.22792 125.12519 
L 36.019946 123.878499 
L 36.777278 122.631809 
L 37.496144 121.385118 
L 38.175619 120.138427 
L 38.817072 118.891736 
L 39.423425 117.645045 
L 39.998334 116.398354 
L 40.545408 115.151663 
L 41.067554 113.904973 
L 41.566532 112.658282 
L 42.042749 111.411591 
L 42.495296 110.1649 
L 42.9222 108.918209 
L 43.320816 107.671518 
L 43.688307 106.424827 
L 44.022123 105.178137 
L 44.320401 103.931446 
L 44.582261 102.684755 
L 44.807948 101.438064 
L 44.998823 100.191373 
L 45.157236 98.944682 
L 45.286296 97.697991 
L 45.389601 96.4513 
L 45.470957 95.20461 
L 45.534137 93.957919 
L 45.582703 92.711228 
L 45.619889 91.464537 
L 45.648564 90.217846 
L 45.671239 88.971155 
L 45.690108 87.724464 
L 45.707102 86.477774 
L 45.723924 85.231083 
L 45.742069 83.984392 
L 45.762808 82.737701 
L 45.787153 81.49101 
L 45.815814 80.244319 
L 47.129641 80.244319 
L 47.129641 80.244319 
L 47.158301 81.49101 
L 47.182647 82.737701 
L 47.203385 83.984392 
L 47.22153 85.231083 
L 47.238353 86.477774 
L 47.255347 87.724464 
L 47.274216 88.971155 
L 47.29689 90.217846 
L 47.325565 91.464537 
L 47.362752 92.711228 
L 47.411317 93.957919 
L 47.474498 95.20461 
L 47.555853 96.4513 
L 47.659158 97.697991 
L 47.788219 98.944682 
L 47.946632 100.191373 
L 48.137507 101.438064 
L 48.363193 102.684755 
L 48.625054 103.931446 
L 48.923332 105.178137 
L 49.257147 106.424827 
L 49.624639 107.671518 
L 50.023255 108.918209 
L 50.450158 110.1649 
L 50.902706 111.411591 
L 51.378923 112.658282 
L 51.877901 113.904973 
L 52.400047 115.151663 
L 52.947121 116.398354 
L 53.52203 117.645045 
L 54.128383 118.891736 
L 54.769835 120.138427 
L 55.44931 121.385118 
L 56.168176 122.631809 
L 56.925509 123.878499 
L 57.717535 125.12519 
L 58.537356 126.371881 
L 59.375002 127.618572 
L 60.217825 128.865263 
L 61.051207 130.111954 
L 61.859496 131.358645 
L 62.627052 132.605335 
L 63.339294 133.852026 
L 63.983601 135.098717 
L 64.549978 136.345408 
L 65.031417 137.592099 
L 65.423921 138.83879 
L 65.726239 140.085481 
L 65.939348 141.332171 
L 66.065812 142.578862 
L 66.109091 143.825553 
L 66.072929 145.072244 
L 65.960893 146.318935 
L 65.776115 147.565626 
L 65.521261 148.812317 
L 65.1987 150.059007 
L 64.810836 151.305698 
L 64.36053 152.552389 
L 63.851537 153.79908 
L 63.288876 155.045771 
L 62.679091 156.292462 
L 62.030327 157.539153 
L 61.352232 158.785843 
L 60.655659 160.032534 
L 59.95222 161.279225 
L 59.253707 162.525916 
L 58.571469 163.772607 
L 57.91577 165.019298 
L 57.295229 166.265989 
L 56.716359 167.51268 
L 56.183277 168.75937 
L 55.697591 170.006061 
L 55.258476 171.252752 
L 54.862935 172.499443 
L 54.506199 173.746134 
L 54.182241 174.992825 
L 53.884342 176.239516 
L 53.605662 177.486206 
L 53.339753 178.732897 
L 53.080986 179.979588 
L 52.82485 181.226279 
L 52.568113 182.47297 
L 52.30884 183.719661 
L 52.046287 184.966352 
L 51.7807 186.213042 
L 51.513048 187.459733 
L 51.244729 188.706424 
L 50.977296 189.953115 
L 50.71222 191.199806 
L 50.450722 192.446497 
L 50.193684 193.693188 
L 49.941635 194.939878 
L 49.694806 196.186569 
L 49.453236 197.43326 
L 49.216898 198.679951 
L 48.985838 199.926642 
L 48.760282 201.173333 
L 48.540717 202.420024 
L 48.327922 203.666714 
L 48.327922 203.666714 
z
" clip-path="url(#pa221fe81ba)" style="fill: none; stroke: #000000; stroke-opacity: 0.3"/>
   </g>
   <g id="FillBetweenPolyCollection_7">
    <path d="M 47.121684 210.502208 
L 45.823771 210.502208 
L 45.813478 209.327037 
L 45.813282 208.151866 
L 45.820809 206.976694 
L 45.832629 205.801523 
L 45.844547 204.626352 
L 45.851962 203.451181 
L 45.850295 202.27601 
L 45.83539 201.100839 
L 45.803868 199.925667 
L 45.753385 198.750496 
L 45.682755 197.575325 
L 45.591945 196.400154 
L 45.481925 195.224983 
L 45.354414 194.049812 
L 45.211532 192.87464 
L 45.055413 191.699469 
L 44.88783 190.524298 
L 44.709865 189.349127 
L 44.521697 188.173956 
L 44.32253 186.998785 
L 44.110696 185.823613 
L 43.883935 184.648442 
L 43.639828 183.473271 
L 43.376344 182.2981 
L 43.092415 181.122929 
L 42.788444 179.947758 
L 42.466664 178.772586 
L 42.131253 177.597415 
L 41.788143 176.422244 
L 41.444522 175.247073 
L 41.108063 174.071902 
L 40.785949 172.896731 
L 40.483834 171.721559 
L 40.204857 170.546388 
L 39.948859 169.371217 
L 39.711906 168.196046 
L 39.486192 167.020875 
L 39.260351 165.845704 
L 39.020168 164.670533 
L 38.749618 163.495361 
L 38.432151 162.32019 
L 38.052121 161.145019 
L 37.596229 159.969848 
L 37.054858 158.794677 
L 36.423208 157.619506 
L 35.702102 156.444334 
L 34.898427 155.269163 
L 34.025145 154.093992 
L 33.100872 152.918821 
L 32.14907 151.74365 
L 31.196891 150.568479 
L 30.273759 149.393307 
L 29.409785 148.218136 
L 28.634103 147.042965 
L 27.973224 145.867794 
L 27.449499 144.692623 
L 27.079777 143.517452 
L 26.874363 142.34228 
L 26.836364 141.167109 
L 26.961493 139.991938 
L 27.238415 138.816767 
L 27.649613 137.641596 
L 28.172756 136.466425 
L 28.782441 135.291253 
L 29.45214 134.116082 
L 30.156156 132.940911 
L 30.871366 131.76574 
L 31.578569 130.590569 
L 32.263327 129.415398 
L 32.916246 128.240226 
L 33.532735 127.065055 
L 34.112357 125.889884 
L 34.657906 124.714713 
L 35.174367 123.539542 
L 35.667905 122.364371 
L 36.144971 121.189199 
L 36.611608 120.014028 
L 37.072949 118.838857 
L 37.532926 117.663686 
L 37.994143 116.488515 
L 38.457886 115.313344 
L 38.924244 114.138173 
L 39.39229 112.963001 
L 39.860304 111.78783 
L 40.326011 110.612659 
L 40.786804 109.437488 
L 41.239937 108.262317 
L 41.682674 107.087146 
L 42.112394 105.911974 
L 42.526658 104.736803 
L 42.923243 103.561632 
L 43.300172 102.386461 
L 43.655734 101.21129 
L 43.988521 100.036119 
L 44.297463 98.860947 
L 44.581865 97.685776 
L 44.841437 96.510605 
L 45.076301 95.335434 
L 45.286972 94.160263 
L 47.658482 94.160263 
L 47.658482 94.160263 
L 47.869153 95.335434 
L 48.104017 96.510605 
L 48.363589 97.685776 
L 48.647991 98.860947 
L 48.956933 100.036119 
L 49.28972 101.21129 
L 49.645283 102.386461 
L 50.022212 103.561632 
L 50.418797 104.736803 
L 50.83306 105.911974 
L 51.262781 107.087146 
L 51.705517 108.262317 
L 52.15865 109.437488 
L 52.619443 110.612659 
L 53.085151 111.78783 
L 53.553165 112.963001 
L 54.021211 114.138173 
L 54.487569 115.313344 
L 54.951312 116.488515 
L 55.412528 117.663686 
L 55.872505 118.838857 
L 56.333847 120.014028 
L 56.800483 121.189199 
L 57.27755 122.364371 
L 57.771087 123.539542 
L 58.287549 124.714713 
L 58.833098 125.889884 
L 59.41272 127.065055 
L 60.029209 128.240226 
L 60.682127 129.415398 
L 61.366886 130.590569 
L 62.074089 131.76574 
L 62.789298 132.940911 
L 63.493314 134.116082 
L 64.163013 135.291253 
L 64.772698 136.466425 
L 65.295842 137.641596 
L 65.70704 138.816767 
L 65.983961 139.991938 
L 66.109091 141.167109 
L 66.071091 142.34228 
L 65.865678 143.517452 
L 65.495955 144.692623 
L 64.97223 145.867794 
L 64.311352 147.042965 
L 63.535669 148.218136 
L 62.671695 149.393307 
L 61.748563 150.568479 
L 60.796384 151.74365 
L 59.844583 152.918821 
L 58.92031 154.093992 
L 58.047027 155.269163 
L 57.243353 156.444334 
L 56.522247 157.619506 
L 55.890596 158.794677 
L 55.349226 159.969848 
L 54.893333 161.145019 
L 54.513304 162.32019 
L 54.195837 163.495361 
L 53.925286 164.670533 
L 53.685104 165.845704 
L 53.459263 167.020875 
L 53.233548 168.196046 
L 52.996595 169.371217 
L 52.740598 170.546388 
L 52.46162 171.721559 
L 52.159505 172.896731 
L 51.837392 174.071902 
L 51.500933 175.247073 
L 51.157312 176.422244 
L 50.814201 177.597415 
L 50.47879 178.772586 
L 50.157011 179.947758 
L 49.853039 181.122929 
L 49.56911 182.2981 
L 49.305627 183.473271 
L 49.06152 184.648442 
L 48.834758 185.823613 
L 48.622924 186.998785 
L 48.423758 188.173956 
L 48.23559 189.349127 
L 48.057625 190.524298 
L 47.890041 191.699469 
L 47.733923 192.87464 
L 47.59104 194.049812 
L 47.463529 195.224983 
L 47.35351 196.400154 
L 47.262699 197.575325 
L 47.19207 198.750496 
L 47.141586 199.925667 
L 47.110065 201.100839 
L 47.095159 202.27601 
L 47.093492 203.451181 
L 47.100908 204.626352 
L 47.112825 205.801523 
L 47.124646 206.976694 
L 47.132172 208.151866 
L 47.131977 209.327037 
L 47.121684 210.502208 
L 47.121684 210.502208 
z
" clip-path="url(#pa221fe81ba)" style="fill: none; stroke: #000000; stroke-opacity: 0.3"/>
   </g>
   <g id="FillBetweenPolyCollection_8">
    <path d="M 115.341576 143.960294 
L 108.51297 143.960294 
L 108.338105 143.181527 
L 108.173916 142.40276 
L 108.020746 141.623993 
L 107.878366 140.845226 
L 107.745962 140.066458 
L 107.622142 139.287691 
L 107.504972 138.508924 
L 107.392021 137.730157 
L 107.280428 136.95139 
L 107.166978 136.172623 
L 107.048187 135.393856 
L 106.920388 134.615089 
L 106.779822 133.836322 
L 106.622716 133.057555 
L 106.44537 132.278787 
L 106.244231 131.50002 
L 106.015962 130.721253 
L 105.75751 129.942486 
L 105.466172 129.163719 
L 105.13966 128.384952 
L 104.776161 127.606185 
L 104.374408 126.827418 
L 103.933739 126.048651 
L 103.454174 125.269884 
L 102.936468 124.491116 
L 102.38218 123.712349 
L 101.793716 122.933582 
L 101.174369 122.154815 
L 100.528336 121.376048 
L 99.860712 120.597281 
L 99.177458 119.818514 
L 98.485338 119.039747 
L 97.791822 118.26098 
L 97.104962 117.482213 
L 96.433231 116.703445 
L 95.785346 115.924678 
L 95.170056 115.145911 
L 94.595933 114.367144 
L 94.071147 113.588377 
L 93.603252 112.80961 
L 93.198982 112.030843 
L 92.864077 111.252076 
L 92.603133 110.473309 
L 92.419495 109.694542 
L 92.315191 108.915775 
L 92.290909 108.137007 
L 92.346017 107.35824 
L 92.478628 106.579473 
L 92.685694 105.800706 
L 92.963139 105.021939 
L 93.306002 104.243172 
L 93.708599 103.464405 
L 94.164698 102.685638 
L 94.667672 101.906871 
L 95.210664 101.128104 
L 95.786723 100.349336 
L 96.388933 99.570569 
L 97.010515 98.791802 
L 97.644916 98.013035 
L 98.285876 97.234268 
L 98.927485 96.455501 
L 99.564224 95.676734 
L 100.190992 94.897967 
L 100.803139 94.1192 
L 101.396483 93.340433 
L 101.967329 92.561665 
L 102.512487 91.782898 
L 103.02929 91.004131 
L 103.515606 90.225364 
L 103.969848 89.446597 
L 104.390986 88.66783 
L 104.778537 87.889063 
L 105.132566 87.110296 
L 105.45366 86.331529 
L 105.742901 85.552762 
L 106.00183 84.773994 
L 106.232391 83.995227 
L 106.436879 83.21646 
L 106.617869 82.437693 
L 106.778151 81.658926 
L 106.920656 80.880159 
L 107.048383 80.101392 
L 107.164333 79.322625 
L 107.271446 78.543858 
L 107.372541 77.765091 
L 107.470269 76.986323 
L 107.56707 76.207556 
L 107.66514 75.428789 
L 107.766401 74.650022 
L 107.872484 73.871255 
L 107.984715 73.092488 
L 108.104101 72.313721 
L 108.231328 71.534954 
L 108.366759 70.756187 
L 108.510441 69.97742 
L 108.662111 69.198652 
L 108.821211 68.419885 
L 108.986914 67.641118 
L 109.158146 66.862351 
L 114.6964 66.862351 
L 114.6964 66.862351 
L 114.867631 67.641118 
L 115.033334 68.419885 
L 115.192435 69.198652 
L 115.344105 69.97742 
L 115.487786 70.756187 
L 115.623218 71.534954 
L 115.750444 72.313721 
L 115.86983 73.092488 
L 115.982061 73.871255 
L 116.088145 74.650022 
L 116.189406 75.428789 
L 116.287475 76.207556 
L 116.384276 76.986323 
L 116.482004 77.765091 
L 116.583099 78.543858 
L 116.690212 79.322625 
L 116.806162 80.101392 
L 116.933889 80.880159 
L 117.076394 81.658926 
L 117.236676 82.437693 
L 117.417667 83.21646 
L 117.622154 83.995227 
L 117.852716 84.773994 
L 118.111644 85.552762 
L 118.400886 86.331529 
L 118.721979 87.110296 
L 119.076008 87.889063 
L 119.46356 88.66783 
L 119.884697 89.446597 
L 120.33894 90.225364 
L 120.825255 91.004131 
L 121.342058 91.782898 
L 121.887216 92.561665 
L 122.458062 93.340433 
L 123.051406 94.1192 
L 123.663553 94.897967 
L 124.290322 95.676734 
L 124.92706 96.455501 
L 125.568669 97.234268 
L 126.209629 98.013035 
L 126.84403 98.791802 
L 127.465612 99.570569 
L 128.067822 100.349336 
L 128.643882 101.128104 
L 129.186874 101.906871 
L 129.689848 102.685638 
L 130.145946 103.464405 
L 130.548544 104.243172 
L 130.891406 105.021939 
L 131.168851 105.800706 
L 131.375918 106.579473 
L 131.508528 107.35824 
L 131.563636 108.137007 
L 131.539354 108.915775 
L 131.43505 109.694542 
L 131.251413 110.473309 
L 130.990469 111.252076 
L 130.655564 112.030843 
L 130.251294 112.80961 
L 129.783398 113.588377 
L 129.258613 114.367144 
L 128.68449 115.145911 
L 128.0692 115.924678 
L 127.421314 116.703445 
L 126.749584 117.482213 
L 126.062723 118.26098 
L 125.369208 119.039747 
L 124.677087 119.818514 
L 123.993834 120.597281 
L 123.32621 121.376048 
L 122.680177 122.154815 
L 122.06083 122.933582 
L 121.472366 123.712349 
L 120.918077 124.491116 
L 120.400372 125.269884 
L 119.920806 126.048651 
L 119.480138 126.827418 
L 119.078384 127.606185 
L 118.714885 128.384952 
L 118.388373 129.163719 
L 118.097036 129.942486 
L 117.838584 130.721253 
L 117.610314 131.50002 
L 117.409175 132.278787 
L 117.23183 133.057555 
L 117.074724 133.836322 
L 116.934157 134.615089 
L 116.806359 135.393856 
L 116.687568 136.172623 
L 116.574118 136.95139 
L 116.462524 137.730157 
L 116.349573 138.508924 
L 116.232403 139.287691 
L 116.108584 140.066458 
L 115.976179 140.845226 
L 115.833799 141.623993 
L 115.680629 142.40276 
L 115.51644 143.181527 
L 115.341576 143.960294 
L 115.341576 143.960294 
z
" clip-path="url(#pa221fe81ba)" style="fill: none; stroke: #000000; stroke-opacity: 0.3"/>
   </g>
   <g id="FillBetweenPolyCollection_9">
    <path d="M 114.91148 142.796106 
L 108.943066 142.796106 
L 108.768907 141.96147 
L 108.592717 141.126833 
L 108.413149 140.292196 
L 108.228398 139.457559 
L 108.036213 138.622922 
L 107.833936 137.788286 
L 107.618565 136.953649 
L 107.386837 136.119012 
L 107.135333 135.284375 
L 106.8606 134.449738 
L 106.559289 133.615101 
L 106.228301 132.780465 
L 105.864936 131.945828 
L 105.467042 131.111191 
L 105.033152 130.276554 
L 104.562606 129.441917 
L 104.05565 128.607281 
L 103.513504 127.772644 
L 102.938395 126.938007 
L 102.333557 126.10337 
L 101.703186 125.268733 
L 101.052353 124.434097 
L 100.38689 123.59946 
L 99.713225 122.764823 
L 99.038207 121.930186 
L 98.368895 121.095549 
L 97.712353 120.260912 
L 97.075427 119.426276 
L 96.464542 118.591639 
L 95.88552 117.757002 
L 95.343415 116.922365 
L 94.842394 116.087728 
L 94.385649 115.253092 
L 93.975362 114.418455 
L 93.6127 113.583818 
L 93.297863 112.749181 
L 93.030163 111.914544 
L 92.808134 111.079908 
L 92.629666 110.245271 
L 92.492154 109.410634 
L 92.392656 108.575997 
L 92.328045 107.74136 
L 92.295154 106.906723 
L 92.290909 106.072087 
L 92.312436 105.23745 
L 92.357145 104.402813 
L 92.422797 103.568176 
L 92.507532 102.733539 
L 92.609884 101.898903 
L 92.728767 101.064266 
L 92.863448 100.229629 
L 93.013501 99.394992 
L 93.178752 98.560355 
L 93.359217 97.725719 
L 93.55504 96.891082 
L 93.766431 96.056445 
L 93.993607 95.221808 
L 94.236749 94.387171 
L 94.495957 93.552534 
L 94.771219 92.717898 
L 95.062402 91.883261 
L 95.369231 91.048624 
L 95.691302 90.213987 
L 96.028082 89.37935 
L 96.378928 88.544714 
L 96.743103 87.710077 
L 97.119796 86.87544 
L 97.508138 86.040803 
L 97.907218 85.206166 
L 98.316094 84.37153 
L 98.733798 83.536893 
L 99.159337 82.702256 
L 99.591683 81.867619 
L 100.029774 81.032982 
L 100.472491 80.198345 
L 100.918657 79.363709 
L 101.367018 78.529072 
L 101.816241 77.694435 
L 102.264912 76.859798 
L 102.711543 76.025161 
L 103.154581 75.190525 
L 103.592435 74.355888 
L 104.023502 73.521251 
L 104.446199 72.686614 
L 104.859011 71.851977 
L 105.260522 71.017341 
L 105.649461 70.182704 
L 106.02474 69.348067 
L 106.38548 68.51343 
L 106.731036 67.678793 
L 107.061011 66.844156 
L 107.375253 66.00952 
L 107.673851 65.174883 
L 107.957106 64.340246 
L 108.22551 63.505609 
L 108.479704 62.670972 
L 108.720434 61.836336 
L 108.948511 61.001699 
L 109.164765 60.167062 
L 114.689781 60.167062 
L 114.689781 60.167062 
L 114.906034 61.001699 
L 115.134111 61.836336 
L 115.374842 62.670972 
L 115.629035 63.505609 
L 115.897439 64.340246 
L 116.180695 65.174883 
L 116.479292 66.00952 
L 116.793535 66.844156 
L 117.123509 67.678793 
L 117.469066 68.51343 
L 117.829805 69.348067 
L 118.205084 70.182704 
L 118.594024 71.017341 
L 118.995535 71.851977 
L 119.408346 72.686614 
L 119.831044 73.521251 
L 120.26211 74.355888 
L 120.699964 75.190525 
L 121.143002 76.025161 
L 121.589633 76.859798 
L 122.038305 77.694435 
L 122.487528 78.529072 
L 122.935888 79.363709 
L 123.382054 80.198345 
L 123.824772 81.032982 
L 124.262862 81.867619 
L 124.695209 82.702256 
L 125.120747 83.536893 
L 125.538451 84.37153 
L 125.947328 85.206166 
L 126.346408 86.040803 
L 126.734749 86.87544 
L 127.111442 87.710077 
L 127.475617 88.544714 
L 127.826463 89.37935 
L 128.163243 90.213987 
L 128.485314 91.048624 
L 128.792144 91.883261 
L 129.083326 92.717898 
L 129.358589 93.552534 
L 129.617796 94.387171 
L 129.860938 95.221808 
L 130.088115 96.056445 
L 130.299505 96.891082 
L 130.495328 97.725719 
L 130.675793 98.560355 
L 130.841044 99.394992 
L 130.991098 100.229629 
L 131.125779 101.064266 
L 131.244662 101.898903 
L 131.347013 102.733539 
L 131.431748 103.568176 
L 131.4974 104.402813 
L 131.54211 105.23745 
L 131.563636 106.072087 
L 131.559392 106.906723 
L 131.526501 107.74136 
L 131.461889 108.575997 
L 131.362391 109.410634 
L 131.224879 110.245271 
L 131.046411 111.079908 
L 130.824382 111.914544 
L 130.556682 112.749181 
L 130.241846 113.583818 
L 129.879184 114.418455 
L 129.468896 115.253092 
L 129.012152 116.087728 
L 128.51113 116.922365 
L 127.969025 117.757002 
L 127.390003 118.591639 
L 126.779119 119.426276 
L 126.142192 120.260912 
L 125.48565 121.095549 
L 124.816339 121.930186 
L 124.14132 122.764823 
L 123.467656 123.59946 
L 122.802192 124.434097 
L 122.15136 125.268733 
L 121.520988 126.10337 
L 120.91615 126.938007 
L 120.341042 127.772644 
L 119.798895 128.607281 
L 119.291939 129.441917 
L 118.821394 130.276554 
L 118.387504 131.111191 
L 117.98961 131.945828 
L 117.626244 132.780465 
L 117.295256 133.615101 
L 116.993945 134.449738 
L 116.719213 135.284375 
L 116.467709 136.119012 
L 116.235981 136.953649 
L 116.02061 137.788286 
L 115.818333 138.622922 
L 115.626147 139.457559 
L 115.441396 140.292196 
L 115.261829 141.126833 
L 115.085638 141.96147 
L 114.91148 142.796106 
L 114.91148 142.796106 
z
" clip-path="url(#pa221fe81ba)" style="fill: none; stroke: #000000; stroke-opacity: 0.3"/>
   </g>
   <g id="FillBetweenPolyCollection_10">
    <path d="M 115.15917 147.767796 
L 108.695375 147.767796 
L 108.391144 146.893126 
L 108.071423 146.018455 
L 107.736718 145.143785 
L 107.387663 144.269114 
L 107.02501 143.394444 
L 106.649611 142.519773 
L 106.262398 141.645103 
L 105.864352 140.770432 
L 105.456482 139.895762 
L 105.039795 139.021091 
L 104.615272 138.146421 
L 104.183852 137.27175 
L 103.746423 136.39708 
L 103.303815 135.522409 
L 102.85681 134.647739 
L 102.406156 133.773068 
L 101.952589 132.898398 
L 101.496858 132.023727 
L 101.039753 131.149057 
L 100.582128 130.274386 
L 100.124923 129.399716 
L 99.669172 128.525045 
L 99.21601 127.650375 
L 98.766658 126.775704 
L 98.32241 125.901034 
L 97.884598 125.026363 
L 97.454566 124.151693 
L 97.033632 123.277022 
L 96.623051 122.402352 
L 96.224 121.527681 
L 95.837551 120.653011 
L 95.46468 119.77834 
L 95.106276 118.90367 
L 94.763173 118.028999 
L 94.436194 117.154329 
L 94.126209 116.279658 
L 93.834196 115.404988 
L 93.561306 114.530317 
L 93.308924 113.655647 
L 93.078713 112.780976 
L 92.872654 111.906306 
L 92.693049 111.031635 
L 92.542509 110.156965 
L 92.423913 109.282294 
L 92.340335 108.407624 
L 92.294949 107.532953 
L 92.290909 106.658283 
L 92.331212 105.783612 
L 92.418546 104.908942 
L 92.555135 104.034271 
L 92.742586 103.159601 
L 92.981747 102.28493 
L 93.272578 101.41026 
L 93.614057 100.535589 
L 94.004109 99.660919 
L 94.439574 98.786248 
L 94.916224 97.911578 
L 95.428813 97.036907 
L 95.971179 96.162237 
L 96.536388 95.287566 
L 97.11691 94.412896 
L 97.704845 93.538225 
L 98.292156 92.663555 
L 98.870932 91.788884 
L 99.433652 90.914214 
L 99.97344 90.039543 
L 100.484312 89.164873 
L 100.961377 88.290202 
L 101.401013 87.415532 
L 101.800979 86.540861 
L 102.160479 85.666191 
L 102.480156 84.79152 
L 102.762032 83.91685 
L 103.009382 83.042179 
L 103.226555 82.167509 
L 103.41875 81.292838 
L 103.591757 80.418168 
L 103.751686 79.543497 
L 103.904679 78.668827 
L 104.05664 77.794156 
L 104.212986 76.919486 
L 104.378435 76.044815 
L 104.556837 75.170145 
L 104.751065 74.295474 
L 104.96295 73.420804 
L 105.193281 72.546133 
L 105.441854 71.671463 
L 105.707564 70.796792 
L 105.988537 69.922122 
L 106.282286 69.047451 
L 106.585878 68.172781 
L 106.896111 67.29811 
L 107.209679 66.42344 
L 107.523321 65.548769 
L 107.833955 64.674099 
L 108.138773 63.799428 
L 108.435319 62.924758 
L 108.721529 62.050087 
L 108.99575 61.175417 
L 114.858795 61.175417 
L 114.858795 61.175417 
L 115.133016 62.050087 
L 115.419226 62.924758 
L 115.715772 63.799428 
L 116.02059 64.674099 
L 116.331224 65.548769 
L 116.644867 66.42344 
L 116.958434 67.29811 
L 117.268667 68.172781 
L 117.572259 69.047451 
L 117.866008 69.922122 
L 118.146982 70.796792 
L 118.412692 71.671463 
L 118.661265 72.546133 
L 118.891595 73.420804 
L 119.10348 74.295474 
L 119.297708 75.170145 
L 119.476111 76.044815 
L 119.641559 76.919486 
L 119.797905 77.794156 
L 119.949866 78.668827 
L 120.102859 79.543497 
L 120.262788 80.418168 
L 120.435796 81.292838 
L 120.62799 82.167509 
L 120.845163 83.042179 
L 121.092513 83.91685 
L 121.37439 84.79152 
L 121.694067 85.666191 
L 122.053566 86.540861 
L 122.453532 87.415532 
L 122.893168 88.290202 
L 123.370234 89.164873 
L 123.881105 90.039543 
L 124.420894 90.914214 
L 124.983613 91.788884 
L 125.562389 92.663555 
L 126.1497 93.538225 
L 126.737635 94.412896 
L 127.318158 95.287566 
L 127.883366 96.162237 
L 128.425732 97.036907 
L 128.938321 97.911578 
L 129.414971 98.786248 
L 129.850437 99.660919 
L 130.240488 100.535589 
L 130.581967 101.41026 
L 130.872799 102.28493 
L 131.111959 103.159601 
L 131.299411 104.034271 
L 131.436 104.908942 
L 131.523333 105.783612 
L 131.563636 106.658283 
L 131.559597 107.532953 
L 131.514211 108.407624 
L 131.430632 109.282294 
L 131.312036 110.156965 
L 131.161497 111.031635 
L 130.981891 111.906306 
L 130.775832 112.780976 
L 130.545622 113.655647 
L 130.293239 114.530317 
L 130.020349 115.404988 
L 129.728336 116.279658 
L 129.418351 117.154329 
L 129.091372 118.028999 
L 128.748269 118.90367 
L 128.389865 119.77834 
L 128.016994 120.653011 
L 127.630546 121.527681 
L 127.231494 122.402352 
L 126.820914 123.277022 
L 126.399979 124.151693 
L 125.969947 125.026363 
L 125.532136 125.901034 
L 125.087887 126.775704 
L 124.638536 127.650375 
L 124.185373 128.525045 
L 123.729623 129.399716 
L 123.272417 130.274386 
L 122.814792 131.149057 
L 122.357687 132.023727 
L 121.901957 132.898398 
L 121.44839 133.773068 
L 120.997736 134.647739 
L 120.55073 135.522409 
L 120.108122 136.39708 
L 119.670693 137.27175 
L 119.239274 138.146421 
L 118.814751 139.021091 
L 118.398063 139.895762 
L 117.990193 140.770432 
L 117.592148 141.645103 
L 117.204934 142.519773 
L 116.829535 143.394444 
L 116.466882 144.269114 
L 116.117827 145.143785 
L 115.783122 146.018455 
L 115.463401 146.893126 
L 115.15917 147.767796 
L 115.15917 147.767796 
z
" clip-path="url(#pa221fe81ba)" style="fill: none; stroke: #000000; stroke-opacity: 0.3"/>
   </g>
   <g id="FillBetweenPolyCollection_11">
    <path d="M 112.873713 164.785641 
L 110.980833 164.785641 
L 110.961713 163.613432 
L 110.947258 162.441223 
L 110.934837 161.269014 
L 110.921141 160.096805 
L 110.902312 158.924596 
L 110.87412 157.752387 
L 110.832171 156.580178 
L 110.77213 155.407969 
L 110.689938 154.23576 
L 110.582015 153.063551 
L 110.445428 151.891342 
L 110.278004 150.719133 
L 110.078381 149.546924 
L 109.846003 148.374715 
L 109.581028 147.202506 
L 109.284195 146.030297 
L 108.956623 144.858088 
L 108.599593 143.685879 
L 108.21431 142.51367 
L 107.8017 141.341461 
L 107.362237 140.169252 
L 106.895858 138.997043 
L 106.401966 137.824834 
L 105.879534 136.652625 
L 105.327321 135.480416 
L 104.744172 134.308207 
L 104.12939 133.135998 
L 103.483124 131.963789 
L 102.806741 130.791579 
L 102.103126 129.61937 
L 101.37686 128.447161 
L 100.634243 127.274952 
L 99.883141 126.102743 
L 99.13265 124.930534 
L 98.392619 123.758325 
L 97.673044 122.586116 
L 96.983436 121.413907 
L 96.332197 120.241698 
L 95.726111 119.069489 
L 95.169992 117.89728 
L 94.666542 116.725071 
L 94.216453 115.552862 
L 93.81872 114.380653 
L 93.471146 113.208444 
L 93.170972 112.036235 
L 92.915544 110.864026 
L 92.702942 109.691817 
L 92.532487 108.519608 
L 92.405058 107.347399 
L 92.323187 106.17519 
L 92.290909 105.002981 
L 92.313401 103.830772 
L 92.396431 102.658563 
L 92.545704 101.486354 
L 92.766164 100.314145 
L 93.061329 99.141936 
L 93.432738 97.969727 
L 93.879556 96.797518 
L 94.398376 95.625309 
L 94.98323 94.4531 
L 95.625814 93.280891 
L 96.315878 92.108682 
L 97.041767 90.936473 
L 97.791042 89.764264 
L 98.551135 88.592055 
L 99.309978 87.419846 
L 100.05657 86.247637 
L 100.78143 85.075428 
L 101.476918 83.903219 
L 102.137406 82.73101 
L 102.759315 81.558801 
L 103.341008 80.386592 
L 103.882583 79.214383 
L 104.385582 78.042174 
L 104.852648 76.869965 
L 105.287167 75.697756 
L 105.692909 74.525547 
L 106.073713 73.353338 
L 106.433201 72.181129 
L 106.774562 71.00892 
L 107.100395 69.836711 
L 107.412617 68.664502 
L 107.712435 67.492293 
L 108.000374 66.320084 
L 108.276363 65.147875 
L 108.539856 63.975666 
L 108.789996 62.803457 
L 109.025784 61.631248 
L 109.246266 60.459039 
L 109.450694 59.28683 
L 109.638677 58.114621 
L 109.810274 56.942412 
L 109.966046 55.770203 
L 110.107058 54.597994 
L 110.234816 53.425785 
L 110.351166 52.253576 
L 110.458153 51.081367 
L 110.557868 49.909158 
L 110.652287 48.736949 
L 113.202259 48.736949 
L 113.202259 48.736949 
L 113.296678 49.909158 
L 113.396393 51.081367 
L 113.50338 52.253576 
L 113.619729 53.425785 
L 113.747487 54.597994 
L 113.888499 55.770203 
L 114.044272 56.942412 
L 114.215868 58.114621 
L 114.403851 59.28683 
L 114.60828 60.459039 
L 114.828761 61.631248 
L 115.064549 62.803457 
L 115.314689 63.975666 
L 115.578183 65.147875 
L 115.854171 66.320084 
L 116.14211 67.492293 
L 116.441928 68.664502 
L 116.754151 69.836711 
L 117.079984 71.00892 
L 117.421345 72.181129 
L 117.780832 73.353338 
L 118.161636 74.525547 
L 118.567379 75.697756 
L 119.001897 76.869965 
L 119.468964 78.042174 
L 119.971963 79.214383 
L 120.513538 80.386592 
L 121.095231 81.558801 
L 121.717139 82.73101 
L 122.377628 83.903219 
L 123.073115 85.075428 
L 123.797975 86.247637 
L 124.544568 87.419846 
L 125.303411 88.592055 
L 126.063503 89.764264 
L 126.812779 90.936473 
L 127.538668 92.108682 
L 128.228732 93.280891 
L 128.871315 94.4531 
L 129.45617 95.625309 
L 129.974989 96.797518 
L 130.421807 97.969727 
L 130.793217 99.141936 
L 131.088382 100.314145 
L 131.308841 101.486354 
L 131.458115 102.658563 
L 131.541145 103.830772 
L 131.563636 105.002981 
L 131.531359 106.17519 
L 131.449487 107.347399 
L 131.322058 108.519608 
L 131.151603 109.691817 
L 130.939001 110.864026 
L 130.683573 112.036235 
L 130.383399 113.208444 
L 130.035825 114.380653 
L 129.638092 115.552862 
L 129.188003 116.725071 
L 128.684554 117.89728 
L 128.128434 119.069489 
L 127.522349 120.241698 
L 126.87111 121.413907 
L 126.181501 122.586116 
L 125.461927 123.758325 
L 124.721895 124.930534 
L 123.971405 126.102743 
L 123.220302 127.274952 
L 122.477686 128.447161 
L 121.75142 129.61937 
L 121.047805 130.791579 
L 120.371422 131.963789 
L 119.725155 133.135998 
L 119.110373 134.308207 
L 118.527225 135.480416 
L 117.975011 136.652625 
L 117.452579 137.824834 
L 116.958687 138.997043 
L 116.492309 140.169252 
L 116.052846 141.341461 
L 115.640235 142.51367 
L 115.254953 143.685879 
L 114.897922 144.858088 
L 114.57035 146.030297 
L 114.273517 147.202506 
L 114.008543 148.374715 
L 113.776164 149.546924 
L 113.576542 150.719133 
L 113.409117 151.891342 
L 113.27253 153.063551 
L 113.164608 154.23576 
L 113.082415 155.407969 
L 113.022374 156.580178 
L 112.980426 157.752387 
L 112.952234 158.924596 
L 112.933404 160.096805 
L 112.919708 161.269014 
L 112.907288 162.441223 
L 112.892832 163.613432 
L 112.873713 164.785641 
L 112.873713 164.785641 
z
" clip-path="url(#pa221fe81ba)" style="fill: none; stroke: #000000; stroke-opacity: 0.3"/>
   </g>
   <g id="FillBetweenPolyCollection_12">
    <path d="M 113.787046 163.102063 
L 110.0675 163.102063 
L 109.895404 162.069555 
L 109.720995 161.037046 
L 109.545096 160.004538 
L 109.368323 158.97203 
L 109.19107 157.939521 
L 109.013526 156.907013 
L 108.835715 155.874505 
L 108.657558 154.841996 
L 108.478964 153.809488 
L 108.29992 152.77698 
L 108.120592 151.744471 
L 107.941418 150.711963 
L 107.763166 149.679455 
L 107.586968 148.646946 
L 107.41431 147.614438 
L 107.246959 146.581929 
L 107.086854 145.549421 
L 106.93593 144.516913 
L 106.795915 143.484404 
L 106.668096 142.451896 
L 106.55307 141.419388 
L 106.450514 140.386879 
L 106.358993 139.354371 
L 106.275808 138.321863 
L 106.196935 137.289354 
L 106.11704 136.256846 
L 106.029586 135.224338 
L 105.92704 134.191829 
L 105.801161 133.159321 
L 105.64336 132.126813 
L 105.445115 131.094304 
L 105.198409 130.061796 
L 104.896175 129.029288 
L 104.53271 127.996779 
L 104.104046 126.964271 
L 103.608245 125.931763 
L 103.045611 124.899254 
L 102.418804 123.866746 
L 101.732863 122.834237 
L 100.99512 121.801729 
L 100.215032 120.769221 
L 99.403942 119.736712 
L 98.574761 118.704204 
L 97.741612 117.671696 
L 96.91943 116.639187 
L 96.123534 115.606679 
L 95.369182 114.574171 
L 94.671123 113.541662 
L 94.043137 112.509154 
L 93.497596 111.476646 
L 93.045033 110.444137 
L 92.693758 109.411629 
L 92.449521 108.379121 
L 92.315254 107.346612 
L 92.290909 106.314104 
L 92.37342 105.281596 
L 92.55679 104.249087 
L 92.832336 103.216579 
L 93.189063 102.184071 
L 93.614182 101.151562 
L 94.093724 100.119054 
L 94.613231 99.086545 
L 95.158477 98.054037 
L 95.716163 97.021529 
L 96.274544 95.98902 
L 96.823949 94.956512 
L 97.357145 93.924004 
L 97.869527 92.891495 
L 98.359134 91.858987 
L 98.826475 90.826479 
L 99.274206 89.79397 
L 99.706676 88.761462 
L 100.129382 87.728954 
L 100.548393 86.696445 
L 100.969763 85.663937 
L 101.399002 84.631429 
L 101.84062 83.59892 
L 102.297789 82.566412 
L 102.772116 81.533904 
L 103.263561 80.501395 
L 103.77047 79.468887 
L 104.289727 78.436379 
L 104.816988 77.40387 
L 105.346998 76.371362 
L 105.873931 75.338853 
L 106.391753 74.306345 
L 106.894572 73.273837 
L 107.376954 72.241328 
L 107.834179 71.20882 
L 108.262448 70.176312 
L 108.659007 69.143803 
L 109.022199 68.111295 
L 109.351452 67.078787 
L 109.647199 66.046278 
L 109.910749 65.01377 
L 110.144118 63.981262 
L 110.349843 62.948753 
L 110.530782 61.916245 
L 110.689923 60.883737 
L 113.164622 60.883737 
L 113.164622 60.883737 
L 113.323764 61.916245 
L 113.504702 62.948753 
L 113.710427 63.981262 
L 113.943797 65.01377 
L 114.207347 66.046278 
L 114.503094 67.078787 
L 114.832346 68.111295 
L 115.195538 69.143803 
L 115.592097 70.176312 
L 116.020367 71.20882 
L 116.477592 72.241328 
L 116.959973 73.273837 
L 117.462793 74.306345 
L 117.980615 75.338853 
L 118.507547 76.371362 
L 119.037557 77.40387 
L 119.564819 78.436379 
L 120.084075 79.468887 
L 120.590985 80.501395 
L 121.08243 81.533904 
L 121.556757 82.566412 
L 122.013925 83.59892 
L 122.455544 84.631429 
L 122.884782 85.663937 
L 123.306152 86.696445 
L 123.725163 87.728954 
L 124.14787 88.761462 
L 124.580339 89.79397 
L 125.028071 90.826479 
L 125.495412 91.858987 
L 125.985018 92.891495 
L 126.497401 93.924004 
L 127.030596 94.956512 
L 127.580002 95.98902 
L 128.138383 97.021529 
L 128.696068 98.054037 
L 129.241314 99.086545 
L 129.760822 100.119054 
L 130.240363 101.151562 
L 130.665482 102.184071 
L 131.02221 103.216579 
L 131.297755 104.249087 
L 131.481126 105.281596 
L 131.563636 106.314104 
L 131.539292 107.346612 
L 131.405024 108.379121 
L 131.160787 109.411629 
L 130.809512 110.444137 
L 130.356949 111.476646 
L 129.811408 112.509154 
L 129.183423 113.541662 
L 128.485363 114.574171 
L 127.731012 115.606679 
L 126.935115 116.639187 
L 126.112933 117.671696 
L 125.279785 118.704204 
L 124.450604 119.736712 
L 123.639513 120.769221 
L 122.859426 121.801729 
L 122.121682 122.834237 
L 121.435741 123.866746 
L 120.808935 124.899254 
L 120.2463 125.931763 
L 119.750499 126.964271 
L 119.321835 127.996779 
L 118.95837 129.029288 
L 118.656136 130.061796 
L 118.40943 131.094304 
L 118.211185 132.126813 
L 118.053384 133.159321 
L 117.927505 134.191829 
L 117.824959 135.224338 
L 117.737505 136.256846 
L 117.65761 137.289354 
L 117.578738 138.321863 
L 117.495553 139.354371 
L 117.404031 140.386879 
L 117.301476 141.419388 
L 117.186449 142.451896 
L 117.05863 143.484404 
L 116.918616 144.516913 
L 116.767692 145.549421 
L 116.607586 146.581929 
L 116.440236 147.614438 
L 116.267577 148.646946 
L 116.09138 149.679455 
L 115.913127 150.711963 
L 115.733953 151.744471 
L 115.554626 152.77698 
L 115.375581 153.809488 
L 115.196987 154.841996 
L 115.018831 155.874505 
L 114.841019 156.907013 
L 114.663476 157.939521 
L 114.486223 158.97203 
L 114.30945 160.004538 
L 114.133551 161.037046 
L 113.959142 162.069555 
L 113.787046 163.102063 
L 113.787046 163.102063 
z
" clip-path="url(#pa221fe81ba)" style="fill: none; stroke: #000000; stroke-opacity: 0.3"/>
   </g>
   <g id="FillBetweenPolyCollection_13">
    <path d="M 112.492121 212.384627 
L 111.362424 212.384627 
L 111.369294 210.979569 
L 111.389559 209.574511 
L 111.421657 208.169454 
L 111.463192 206.764396 
L 111.511186 205.359338 
L 111.562369 203.95428 
L 111.613463 202.549223 
L 111.661423 201.144165 
L 111.703619 199.739107 
L 111.737922 198.334049 
L 111.762746 196.928992 
L 111.777021 195.523934 
L 111.780167 194.118876 
L 111.772056 192.713819 
L 111.753006 191.308761 
L 111.723799 189.903703 
L 111.685711 188.498645 
L 111.640537 187.093588 
L 111.590586 185.68853 
L 111.538603 184.283472 
L 111.487626 182.878415 
L 111.440752 181.473357 
L 111.400837 180.068299 
L 111.370157 178.663241 
L 111.350085 177.258184 
L 111.340805 175.853126 
L 111.341135 174.448068 
L 111.348471 173.04301 
L 111.358872 171.637953 
L 111.367268 170.232895 
L 111.367792 168.827837 
L 111.354175 167.42278 
L 111.320187 166.017722 
L 111.260069 164.612664 
L 111.168938 163.207606 
L 111.043111 161.802549 
L 110.880339 160.397491 
L 110.679914 158.992433 
L 110.442634 157.587376 
L 110.170612 156.182318 
L 109.866932 154.77726 
L 109.535176 153.372202 
L 109.178849 151.967145 
L 108.800793 150.562087 
L 108.402635 149.157029 
L 107.984385 147.751971 
L 107.544236 146.346914 
L 107.078642 144.941856 
L 106.58268 143.536798 
L 106.05069 142.131741 
L 105.477129 140.726683 
L 104.857539 139.321625 
L 104.189518 137.916567 
L 103.473532 136.51151 
L 102.713458 135.106452 
L 101.91674 133.701394 
L 101.094087 132.296337 
L 100.258735 130.891279 
L 99.425315 129.486221 
L 98.608505 128.081163 
L 97.821639 126.676106 
L 97.075507 125.271048 
L 96.37757 123.86599 
L 95.731733 122.460932 
L 95.138751 121.055875 
L 94.597214 119.650817 
L 94.104949 118.245759 
L 93.660605 116.840702 
L 93.265099 115.435644 
L 92.922678 114.030586 
L 92.641368 112.625528 
L 92.432706 111.220471 
L 92.31081 109.815413 
L 92.290909 108.410355 
L 92.387583 107.005298 
L 92.612984 105.60024 
L 92.975294 104.195182 
L 93.477606 102.790124 
L 94.117344 101.385067 
L 94.886218 99.980009 
L 95.770657 98.574951 
L 96.752599 97.169893 
L 97.810526 95.764836 
L 98.920614 94.359778 
L 100.05793 92.95472 
L 101.197617 91.549663 
L 102.316034 90.144605 
L 103.391805 88.739547 
L 104.406757 87.334489 
L 105.346666 85.929432 
L 106.201766 84.524374 
L 106.966941 83.119316 
L 107.641589 81.714259 
L 108.229133 80.309201 
L 108.736236 78.904143 
L 109.171813 77.499085 
L 109.545948 76.094028 
L 109.868851 74.68897 
L 110.149974 73.283912 
L 113.704571 73.283912 
L 113.704571 73.283912 
L 113.985695 74.68897 
L 114.308598 76.094028 
L 114.682733 77.499085 
L 115.11831 78.904143 
L 115.625413 80.309201 
L 116.212956 81.714259 
L 116.887605 83.119316 
L 117.65278 84.524374 
L 118.507879 85.929432 
L 119.447789 87.334489 
L 120.462741 88.739547 
L 121.538512 90.144605 
L 122.656928 91.549663 
L 123.796616 92.95472 
L 124.933931 94.359778 
L 126.044019 95.764836 
L 127.101946 97.169893 
L 128.083889 98.574951 
L 128.968327 99.980009 
L 129.737201 101.385067 
L 130.37694 102.790124 
L 130.879252 104.195182 
L 131.241561 105.60024 
L 131.466962 107.005298 
L 131.563636 108.410355 
L 131.543736 109.815413 
L 131.42184 111.220471 
L 131.213178 112.625528 
L 130.931867 114.030586 
L 130.589447 115.435644 
L 130.193941 116.840702 
L 129.749596 118.245759 
L 129.257332 119.650817 
L 128.715794 121.055875 
L 128.122812 122.460932 
L 127.476976 123.86599 
L 126.779039 125.271048 
L 126.032907 126.676106 
L 125.24604 128.081163 
L 124.429231 129.486221 
L 123.595811 130.891279 
L 122.760458 132.296337 
L 121.937806 133.701394 
L 121.141087 135.106452 
L 120.381013 136.51151 
L 119.665027 137.916567 
L 118.997006 139.321625 
L 118.377417 140.726683 
L 117.803855 142.131741 
L 117.271866 143.536798 
L 116.775904 144.941856 
L 116.31031 146.346914 
L 115.870161 147.751971 
L 115.45191 149.157029 
L 115.053752 150.562087 
L 114.675696 151.967145 
L 114.31937 153.372202 
L 113.987613 154.77726 
L 113.683934 156.182318 
L 113.411912 157.587376 
L 113.174631 158.992433 
L 112.974206 160.397491 
L 112.811434 161.802549 
L 112.685607 163.207606 
L 112.594476 164.612664 
L 112.534359 166.017722 
L 112.50037 167.42278 
L 112.486753 168.827837 
L 112.487277 170.232895 
L 112.495674 171.637953 
L 112.506074 173.04301 
L 112.513411 174.448068 
L 112.513741 175.853126 
L 112.50446 177.258184 
L 112.484388 178.663241 
L 112.453709 180.068299 
L 112.413793 181.473357 
L 112.366919 182.878415 
L 112.315943 184.283472 
L 112.26396 185.68853 
L 112.214008 187.093588 
L 112.168835 188.498645 
L 112.130747 189.903703 
L 112.101539 191.308761 
L 112.082489 192.713819 
L 112.074378 194.118876 
L 112.077524 195.523934 
L 112.0918 196.928992 
L 112.116623 198.334049 
L 112.150927 199.739107 
L 112.193122 201.144165 
L 112.241083 202.549223 
L 112.292176 203.95428 
L 112.343359 205.359338 
L 112.391354 206.764396 
L 112.432889 208.169454 
L 112.464986 209.574511 
L 112.485251 210.979569 
L 112.492121 212.384627 
L 112.492121 212.384627 
z
" clip-path="url(#pa221fe81ba)" style="fill: none; stroke: #000000; stroke-opacity: 0.3"/>
   </g>
   <g id="FillBetweenPolyCollection_14">
    <path d="M 114.926989 155.90288 
L 108.927557 155.90288 
L 108.624983 154.735869 
L 108.308544 153.568857 
L 107.979198 152.401846 
L 107.638237 151.234835 
L 107.287338 150.067823 
L 106.92859 148.900812 
L 106.564478 147.7338 
L 106.197831 146.566789 
L 105.831723 145.399778 
L 105.469339 144.232766 
L 105.113812 143.065755 
L 104.76804 141.898744 
L 104.434506 140.731732 
L 104.115111 139.564721 
L 103.811043 138.397709 
L 103.522684 137.230698 
L 103.249566 136.063687 
L 102.990383 134.896675 
L 102.743046 133.729664 
L 102.504778 132.562652 
L 102.272247 131.395641 
L 102.041704 130.22863 
L 101.809143 129.061618 
L 101.57045 127.894607 
L 101.321549 126.727595 
L 101.05854 125.560584 
L 100.777822 124.393573 
L 100.476214 123.226561 
L 100.15107 122.05955 
L 99.800389 120.892539 
L 99.422927 119.725527 
L 99.018303 118.558516 
L 98.587099 117.391504 
L 98.130947 116.224493 
L 97.652591 115.057482 
L 97.155915 113.89047 
L 96.64594 112.723459 
L 96.128764 111.556447 
L 95.61146 110.389436 
L 95.101922 109.222425 
L 94.608676 108.055413 
L 94.140649 106.888402 
L 93.706919 105.72139 
L 93.316468 104.554379 
L 92.977924 103.387368 
L 92.699331 102.220356 
L 92.487949 101.053345 
L 92.350075 99.886334 
L 92.290909 98.719322 
L 92.314443 97.552311 
L 92.423382 96.385299 
L 92.619091 95.218288 
L 92.901552 94.051277 
L 93.269345 92.884265 
L 93.71964 91.717254 
L 94.248206 90.550242 
L 94.849451 89.383231 
L 95.516482 88.21622 
L 96.24121 87.049208 
L 97.0145 85.882197 
L 97.826357 84.715185 
L 98.666166 83.548174 
L 99.522965 82.381163 
L 100.385752 81.214151 
L 101.243795 80.04714 
L 102.086947 78.880129 
L 102.90594 77.713117 
L 103.692632 76.546106 
L 104.440205 75.379094 
L 105.143301 74.212083 
L 105.798078 73.045072 
L 106.402204 71.87806 
L 106.954775 70.711049 
L 107.456175 69.544037 
L 107.907891 68.377026 
L 108.312291 67.210015 
L 108.672394 66.043003 
L 108.99163 64.875992 
L 109.273617 63.70898 
L 109.521976 62.541969 
L 109.740168 61.374958 
L 109.931383 60.207946 
L 110.098478 59.040935 
L 110.243949 57.873924 
L 110.369958 56.706912 
L 110.478373 55.539901 
L 110.570852 54.372889 
L 110.648917 53.205878 
L 110.714045 52.038867 
L 110.767732 50.871855 
L 110.811556 49.704844 
L 110.847194 48.537832 
L 110.87643 47.370821 
L 110.901119 46.20381 
L 110.923139 45.036798 
L 110.944316 43.869787 
L 110.966348 42.702775 
L 110.990719 41.535764 
L 111.01863 40.368753 
L 112.835915 40.368753 
L 112.835915 40.368753 
L 112.863826 41.535764 
L 112.888197 42.702775 
L 112.910229 43.869787 
L 112.931406 45.036798 
L 112.953426 46.20381 
L 112.978115 47.370821 
L 113.007351 48.537832 
L 113.04299 49.704844 
L 113.086813 50.871855 
L 113.140501 52.038867 
L 113.205628 53.205878 
L 113.283693 54.372889 
L 113.376172 55.539901 
L 113.484588 56.706912 
L 113.610596 57.873924 
L 113.756068 59.040935 
L 113.923162 60.207946 
L 114.114378 61.374958 
L 114.332569 62.541969 
L 114.580928 63.70898 
L 114.862916 64.875992 
L 115.182151 66.043003 
L 115.542254 67.210015 
L 115.946655 68.377026 
L 116.39837 69.544037 
L 116.89977 70.711049 
L 117.452341 71.87806 
L 118.056468 73.045072 
L 118.711245 74.212083 
L 119.41434 75.379094 
L 120.161913 76.546106 
L 120.948605 77.713117 
L 121.767598 78.880129 
L 122.610751 80.04714 
L 123.468793 81.214151 
L 124.33158 82.381163 
L 125.18838 83.548174 
L 126.028188 84.715185 
L 126.840045 85.882197 
L 127.613335 87.049208 
L 128.338064 88.21622 
L 129.005094 89.383231 
L 129.606339 90.550242 
L 130.134906 91.717254 
L 130.5852 92.884265 
L 130.952994 94.051277 
L 131.235455 95.218288 
L 131.431163 96.385299 
L 131.540103 97.552311 
L 131.563636 98.719322 
L 131.50447 99.886334 
L 131.366597 101.053345 
L 131.155215 102.220356 
L 130.876622 103.387368 
L 130.538077 104.554379 
L 130.147626 105.72139 
L 129.713897 106.888402 
L 129.245869 108.055413 
L 128.752623 109.222425 
L 128.243086 110.389436 
L 127.725781 111.556447 
L 127.208605 112.723459 
L 126.69863 113.89047 
L 126.201955 115.057482 
L 125.723598 116.224493 
L 125.267446 117.391504 
L 124.836243 118.558516 
L 124.431618 119.725527 
L 124.054156 120.892539 
L 123.703476 122.05955 
L 123.378332 123.226561 
L 123.076724 124.393573 
L 122.796006 125.560584 
L 122.532996 126.727595 
L 122.284096 127.894607 
L 122.045403 129.061618 
L 121.812842 130.22863 
L 121.582299 131.395641 
L 121.349767 132.562652 
L 121.1115 133.729664 
L 120.864162 134.896675 
L 120.604979 136.063687 
L 120.331862 137.230698 
L 120.043502 138.397709 
L 119.739435 139.564721 
L 119.42004 140.731732 
L 119.086505 141.898744 
L 118.740733 143.065755 
L 118.385207 144.232766 
L 118.022823 145.399778 
L 117.656714 146.566789 
L 117.290067 147.7338 
L 116.925955 148.900812 
L 116.567208 150.067823 
L 116.216309 151.234835 
L 115.875347 152.401846 
L 115.546001 153.568857 
L 115.229563 154.735869 
L 114.926989 155.90288 
L 114.926989 155.90288 
z
" clip-path="url(#pa221fe81ba)" style="fill: none; stroke: #000000; stroke-opacity: 0.3"/>
   </g>
   <g id="matplotlib.axis_1"/>
   <g id="matplotlib.axis_2">
    <g id="ytick_1">
     <g id="line2d_1">
      <defs>
       <path id="m715a9a9fd9" d="M 0 0 
L -3.5 0 
" style="stroke: #000000; stroke-width: 0.8"/>
      </defs>
      <g>
       <use xlink:href="#m715a9a9fd9" x="21.6" y="291.6" style="stroke: #000000; stroke-width: 0.8"/>
      </g>
     </g>
    </g>
    <g id="ytick_2">
     <g id="line2d_2">
      <g>
       <use xlink:href="#m715a9a9fd9" x="21.6" y="199.8" style="stroke: #000000; stroke-width: 0.8"/>
      </g>
     </g>
    </g>
    <g id="ytick_3">
     <g id="line2d_3">
      <g>
       <use xlink:href="#m715a9a9fd9" x="21.6" y="108" style="stroke: #000000; stroke-width: 0.8"/>
      </g>
     </g>
    </g>
    <g id="ytick_4">
     <g id="line2d_4">
      <g>
       <use xlink:href="#m715a9a9fd9" x="21.6" y="16.2" style="stroke: #000000; stroke-width: 0.8"/>
      </g>
     </g>
    </g>
   </g>
   <g id="line2d_5">
    <path d="M 46.472727 269.568 
L 46.472727 264.06 
" clip-path="url(#pa221fe81ba)" style="fill: none; stroke: #000000; stroke-linecap: square"/>
   </g>
   <g id="line2d_6">
    <path d="M 46.472727 269.568 
L 111.927273 269.568 
" clip-path="url(#pa221fe81ba)" style="fill: none; stroke: #000000; stroke-linecap: square"/>
   </g>
   <g id="line2d_7">
    <path d="M 111.927273 269.568 
L 111.927273 264.06 
" clip-path="url(#pa221fe81ba)" style="fill: none; stroke: #000000; stroke-linecap: square"/>
   </g>
   <g id="patch_3">
    <path d="M 21.6 291.6 
L 21.6 16.2 
" style="fill: none; stroke: #000000; stroke-width: 0.8; stroke-linejoin: miter; stroke-linecap: square"/>
   </g>
   <g id="patch_4">
    <path d="M 136.8 291.6 
L 136.8 16.2 
" style="fill: none; stroke: #000000; stroke-width: 0.8; stroke-linejoin: miter; stroke-linecap: square"/>
   </g>
   <g id="patch_5">
    <path d="M 21.6 291.6 
L 136.8 291.6 
" style="fill: none; stroke: #000000; stroke-width: 0.8; stroke-linejoin: miter; stroke-linecap: square"/>
   </g>
   <g id="patch_6">
    <path d="M 21.6 16.2 
L 136.8 16.2 
" style="fill: none; stroke: #000000; stroke-width: 0.8; stroke-linejoin: miter; stroke-linecap: square"/>
   </g>
   <g id="text_1">
    <text style="font-weight: 700; font-size: 12px; font-family: 'DejaVu Sans', 'Bitstream Vera Sans', 'Computer Modern Sans Serif', 'Lucida Grande', 'Verdana', 'Geneva', 'Lucid', 'Arial', 'Helvetica', 'Avant Garde', sans-serif; text-anchor: middle" x="46.472727" y="289.104375" transform="rotate(-0 46.472727 289.104375)">#1</text>
   </g>
   <g id="text_2">
    <text style="font-weight: 700; font-size: 12px; font-family: 'DejaVu Sans', 'Bitstream Vera Sans', 'Computer Modern Sans Serif', 'Lucida Grande', 'Verdana', 'Geneva', 'Lucid', 'Arial', 'Helvetica', 'Avant Garde', sans-serif; text-anchor: middle" x="111.927273" y="289.104375" transform="rotate(-0 111.927273 289.104375)">#2</text>
   </g>
   <g id="text_3">
    <text style="font-size: 12px; font-family: 'DejaVu Sans', 'Bitstream Vera Sans', 'Computer Modern Sans Serif', 'Lucida Grande', 'Verdana', 'Geneva', 'Lucid', 'Arial', 'Helvetica', 'Avant Garde', sans-serif; text-anchor: middle" x="79.2" y="268.449375" transform="rotate(-0 79.2 268.449375)">****</text>
   </g>
   <g id="line2d_8">
    <path d="M 21.6 141.966001 
L 136.8 141.966001 
" clip-path="url(#pa221fe81ba)" style="fill: none; stroke-dasharray: 3.7,1.6; stroke-dashoffset: 0; stroke: #808080; stroke-opacity: 0.7"/>
   </g>
   <g id="line2d_9">
    <path d="M 21.6 106.201702 
L 136.8 106.201702 
" clip-path="url(#pa221fe81ba)" style="fill: none; stroke-dasharray: 3.7,1.6; stroke-dashoffset: 0; stroke: #808080; stroke-opacity: 0.7"/>
   </g>
   <g id="LineCollection_1">
    <path d="M 46.472727 144.164357 
L 46.472727 139.767644 
" clip-path="url(#pa221fe81ba)" style="fill: none; stroke: #000000; stroke-width: 2"/>
   </g>
   <g id="line2d_10">
    <defs>
     <path id="mb5665718da" d="M 5 0 
L -5 -0 
" style="stroke: #000000; stroke-width: 2"/>
    </defs>
    <g clip-path="url(#pa221fe81ba)">
     <use xlink:href="#mb5665718da" x="46.472727" y="144.164357" style="stroke: #000000; stroke-width: 2"/>
    </g>
   </g>
   <g id="line2d_11">
    <g clip-path="url(#pa221fe81ba)">
     <use xlink:href="#mb5665718da" x="46.472727" y="139.767644" style="stroke: #000000; stroke-width: 2"/>
    </g>
   </g>
   <g id="LineCollection_2">
    <path d="M 111.927273 109.632054 
L 111.927273 102.771351 
" clip-path="url(#pa221fe81ba)" style="fill: none; stroke: #000000; stroke-width: 2"/>
   </g>
   <g id="line2d_12">
    <g clip-path="url(#pa221fe81ba)">
     <use xlink:href="#mb5665718da" x="111.927273" y="109.632054" style="stroke: #000000; stroke-width: 2"/>
    </g>
   </g>
   <g id="line2d_13">
    <g clip-path="url(#pa221fe81ba)">
     <use xlink:href="#mb5665718da" x="111.927273" y="102.771351" style="stroke: #000000; stroke-width: 2"/>
    </g>
   </g>
   <g id="line2d_14">
    <defs>
     <path id="m1761337398" d="M 0 4 
C 1.060812 4 2.078319 3.578535 2.828427 2.828427 
C 3.578535 2.078319 4 1.060812 4 0 
C 4 -1.060812 3.578535 -2.078319 2.828427 -2.828427 
C 2.078319 -3.578535 1.060812 -4 0 -4 
C -1.060812 -4 -2.078319 -3.578535 -2.828427 -2.828427 
C -3.578535 -2.078319 -4 -1.060812 -4 0 
C -4 1.060812 -3.578535 2.078319 -2.828427 2.828427 
C -2.078319 3.578535 -1.060812 4 0 4 
z
" style="stroke: #000000"/>
    </defs>
    <g clip-path="url(#pa221fe81ba)">
     <use xlink:href="#m1761337398" x="46.472727" y="141.966001" style="stroke: #000000"/>
    </g>
   </g>
   <g id="line2d_15">
    <g clip-path="url(#pa221fe81ba)">
     <use xlink:href="#m1761337398" x="111.927273" y="106.201702" style="stroke: #000000"/>
    </g>
   </g>
  </g>
 </g>
 <defs>
  <clipPath id="pa221fe81ba">
   <rect x="21.6" y="16.2" width="115.2" height="275.4"/>
  </clipPath>
 </defs>
</svg>
