<?xml version="1.0" encoding="utf-8" standalone="no"?>
<!DOCTYPE svg PUBLIC "-//W3C//DTD SVG 1.1//EN"
  "http://www.w3.org/Graphics/SVG/1.1/DTD/svg11.dtd">
<svg xmlns:xlink="http://www.w3.org/1999/xlink" width="144pt" height="324pt" viewBox="0 0 144 324" xmlns="http://www.w3.org/2000/svg" version="1.1">
 <metadata>
  <rdf:RDF xmlns:dc="http://purl.org/dc/elements/1.1/" xmlns:cc="http://creativecommons.org/ns#" xmlns:rdf="http://www.w3.org/1999/02/22-rdf-syntax-ns#">
   <cc:Work>
    <dc:type rdf:resource="http://purl.org/dc/dcmitype/StillImage"/>
    <dc:date>2025-12-05T14:51:42.231128</dc:date>
    <dc:format>image/svg+xml</dc:format>
    <dc:creator>
     <cc:Agent>
      <dc:title>Matplotlib v3.10.0, https://matplotlib.org/</dc:title>
     </cc:Agent>
    </dc:creator>
   </cc:Work>
  </rdf:RDF>
 </metadata>
 <defs>
  <style type="text/css">*{stroke-linejoin: round; stroke-linecap: butt}</style>
 </defs>
 <g id="figure_1">
  <g id="patch_1">
   <path d="M 0 324 
L 144 324 
L 144 0 
L 0 0 
z
" style="fill: #ffffff"/>
  </g>
  <g id="axes_1">
   <g id="patch_2">
    <path d="M 21.6 291.6 
L 136.8 291.6 
L 136.8 16.2 
L 21.6 16.2 
z
" style="fill: #ffffff"/>
   </g>
   <g id="FillBetweenPolyCollection_1">
    <path d="M 46.696801 209.587117 
L 46.248653 209.587117 
L 46.248491 207.728848 
L 46.255678 205.870579 
L 46.265915 204.01231 
L 46.273931 202.154041 
L 46.274792 200.295771 
L 46.265117 198.437502 
L 46.243884 196.579233 
L 46.212578 194.720964 
L 46.174691 192.862695 
L 46.134685 191.004426 
L 46.096699 189.146157 
L 46.063254 187.287887 
L 46.034262 185.429618 
L 46.00654 183.571349 
L 45.973988 181.71308 
L 45.928447 179.854811 
L 45.861115 177.996542 
L 45.764186 176.138272 
L 45.632236 174.280003 
L 45.462832 172.421734 
L 45.256035 170.563465 
L 45.012848 168.705196 
L 44.733103 166.846927 
L 44.413677 164.988658 
L 44.047939 163.130388 
L 43.627011 161.272119 
L 43.142675 159.41385 
L 42.591035 157.555581 
L 41.975456 155.697312 
L 41.307473 153.839043 
L 40.604996 151.980773 
L 39.888266 150.122504 
L 39.174884 148.264235 
L 38.475541 146.405966 
L 37.79168 144.547697 
L 37.115402 142.689428 
L 36.431231 140.831159 
L 35.718984 138.972889 
L 34.957279 137.11462 
L 34.12755 135.256351 
L 33.218642 133.398082 
L 32.231759 131.539813 
L 31.185023 129.681544 
L 30.116406 127.823274 
L 29.083707 125.965005 
L 28.160645 124.106736 
L 27.428868 122.248467 
L 26.966692 120.390198 
L 26.836364 118.531929 
L 27.072451 116.67366 
L 27.67422 114.81539 
L 28.604253 112.957121 
L 29.794134 111.098852 
L 31.155992 109.240583 
L 32.597018 107.382314 
L 34.033264 105.524045 
L 35.399584 103.665775 
L 36.654113 101.807506 
L 37.777511 99.949237 
L 38.768569 98.090968 
L 39.638301 96.232699 
L 40.40426 94.37443 
L 41.086073 92.516161 
L 41.702317 90.657891 
L 42.268415 88.799622 
L 42.795175 86.941353 
L 43.287859 85.083084 
L 43.746028 83.224815 
L 44.164478 81.366546 
L 44.535397 79.508276 
L 44.851367 77.650007 
L 45.108391 75.791738 
L 45.307943 73.933469 
L 45.457298 72.0752 
L 45.568021 70.216931 
L 45.653142 68.358662 
L 45.724018 66.500392 
L 45.78795 64.642123 
L 45.847294 62.783854 
L 45.900249 60.925585 
L 45.942934 59.067316 
L 45.971973 57.209047 
L 45.986665 55.350777 
L 45.990016 53.492508 
L 45.988291 51.634239 
L 45.989292 49.77597 
L 45.99999 47.917701 
L 46.024383 46.059432 
L 46.062309 44.201163 
L 46.109591 42.342893 
L 46.159392 40.484624 
L 46.204271 38.626355 
L 46.238246 36.768086 
L 46.258283 34.909817 
L 46.264861 33.051548 
L 46.26158 31.193278 
L 46.253997 29.335009 
L 46.248087 27.47674 
L 46.248741 25.618471 
L 46.696713 25.618471 
L 46.696713 25.618471 
L 46.697368 27.47674 
L 46.691458 29.335009 
L 46.683875 31.193278 
L 46.680593 33.051548 
L 46.687172 34.909817 
L 46.707208 36.768086 
L 46.741183 38.626355 
L 46.786062 40.484624 
L 46.835864 42.342893 
L 46.883145 44.201163 
L 46.921071 46.059432 
L 46.945465 47.917701 
L 46.956163 49.77597 
L 46.957163 51.634239 
L 46.955439 53.492508 
L 46.95879 55.350777 
L 46.973482 57.209047 
L 47.00252 59.067316 
L 47.045205 60.925585 
L 47.09816 62.783854 
L 47.157505 64.642123 
L 47.221437 66.500392 
L 47.292312 68.358662 
L 47.377433 70.216931 
L 47.488157 72.0752 
L 47.637512 73.933469 
L 47.837063 75.791738 
L 48.094088 77.650007 
L 48.410058 79.508276 
L 48.780976 81.366546 
L 49.199426 83.224815 
L 49.657596 85.083084 
L 50.15028 86.941353 
L 50.677039 88.799622 
L 51.243138 90.657891 
L 51.859382 92.516161 
L 52.541195 94.37443 
L 53.307154 96.232699 
L 54.176885 98.090968 
L 55.167944 99.949237 
L 56.291341 101.807506 
L 57.54587 103.665775 
L 58.91219 105.524045 
L 60.348436 107.382314 
L 61.789462 109.240583 
L 63.151321 111.098852 
L 64.341202 112.957121 
L 65.271235 114.81539 
L 65.873003 116.67366 
L 66.109091 118.531929 
L 65.978762 120.390198 
L 65.516586 122.248467 
L 64.784809 124.106736 
L 63.861747 125.965005 
L 62.829049 127.823274 
L 61.760431 129.681544 
L 60.713696 131.539813 
L 59.726813 133.398082 
L 58.817904 135.256351 
L 57.988176 137.11462 
L 57.226471 138.972889 
L 56.514224 140.831159 
L 55.830052 142.689428 
L 55.153775 144.547697 
L 54.469913 146.405966 
L 53.770571 148.264235 
L 53.057188 150.122504 
L 52.340459 151.980773 
L 51.637982 153.839043 
L 50.969998 155.697312 
L 50.35442 157.555581 
L 49.802779 159.41385 
L 49.318444 161.272119 
L 48.897515 163.130388 
L 48.531778 164.988658 
L 48.212352 166.846927 
L 47.932607 168.705196 
L 47.689419 170.563465 
L 47.482623 172.421734 
L 47.313218 174.280003 
L 47.181269 176.138272 
L 47.08434 177.996542 
L 47.017007 179.854811 
L 46.971466 181.71308 
L 46.938914 183.571349 
L 46.911193 185.429618 
L 46.8822 187.287887 
L 46.848755 189.146157 
L 46.810769 191.004426 
L 46.770764 192.862695 
L 46.732876 194.720964 
L 46.701571 196.579233 
L 46.680337 198.437502 
L 46.670663 200.295771 
L 46.671523 202.154041 
L 46.67954 204.01231 
L 46.689777 205.870579 
L 46.696964 207.728848 
L 46.696801 209.587117 
L 46.696801 209.587117 
z
" clip-path="url(#pabee9398c8)" style="fill: none; stroke: #000000; stroke-opacity: 0.3"/>
   </g>
   <g id="FillBetweenPolyCollection_2">
    <path d="M 47.090594 186.279834 
L 45.85486 186.279834 
L 45.803932 184.45325 
L 45.758855 182.626666 
L 45.716862 180.800082 
L 45.672762 178.973498 
L 45.61868 177.146914 
L 45.543947 175.32033 
L 45.435223 173.493746 
L 45.276916 171.667162 
L 45.052001 169.840578 
L 44.743228 168.013994 
L 44.334725 166.18741 
L 43.813868 164.360826 
L 43.173235 162.534242 
L 42.412372 160.707658 
L 41.539038 158.881074 
L 40.569582 157.05449 
L 39.528121 155.227906 
L 38.444402 153.401322 
L 37.350433 151.574738 
L 36.276355 149.748154 
L 35.2463 147.92157 
L 34.275187 146.094986 
L 33.36734 144.268402 
L 32.51747 142.441818 
L 31.714005 140.615234 
L 30.944098 138.78865 
L 30.199114 136.962066 
L 29.479183 135.135482 
L 28.795565 133.308898 
L 28.170157 131.482315 
L 27.632238 129.655731 
L 27.21331 127.829147 
L 26.941412 126.002563 
L 26.836364 124.175979 
L 26.907062 122.349395 
L 27.151305 120.522811 
L 27.557837 118.696227 
L 28.109748 116.869643 
L 28.788056 115.043059 
L 29.574433 113.216475 
L 30.45248 111.389891 
L 31.407479 109.563307 
L 32.425107 107.736723 
L 33.489825 105.910139 
L 34.583698 104.083555 
L 35.686145 102.256971 
L 36.774764 100.430387 
L 37.827008 98.603803 
L 38.82226 96.777219 
L 39.743771 94.950635 
L 40.580026 93.124051 
L 41.325289 91.297467 
L 41.979332 89.470883 
L 42.546503 87.644299 
L 43.034446 85.817715 
L 43.452726 83.991131 
L 43.811614 82.164547 
L 44.121112 80.337963 
L 44.390254 78.511379 
L 44.626622 76.684795 
L 44.836048 74.858211 
L 45.022455 73.031628 
L 45.187876 71.205044 
L 45.332673 69.37846 
L 45.455993 67.551876 
L 45.556431 65.725292 
L 45.632812 63.898708 
L 45.684967 62.072124 
L 45.714333 60.24554 
L 45.72424 58.418956 
L 45.719822 56.592372 
L 45.707548 54.765788 
L 45.694468 52.939204 
L 45.68732 51.11262 
L 45.691664 49.286036 
L 45.711219 47.459452 
L 45.747479 45.632868 
L 45.799691 43.806284 
L 45.86515 41.9797 
L 45.939738 40.153116 
L 46.018594 38.326532 
L 46.096782 36.499948 
L 46.169856 34.673364 
L 46.234228 32.84678 
L 46.287333 31.020196 
L 46.327604 29.193612 
L 46.354317 27.367028 
L 46.367398 25.540444 
L 46.367256 23.71386 
L 46.354709 21.887276 
L 46.331012 20.060692 
L 46.29796 18.234108 
L 46.257992 16.407525 
L 46.214239 14.580941 
L 46.170424 12.754357 
L 46.130594 10.927773 
L 46.098697 9.101189 
L 46.078076 7.274605 
L 46.070982 5.448021 
L 46.874473 5.448021 
L 46.874473 5.448021 
L 46.867378 7.274605 
L 46.846757 9.101189 
L 46.814861 10.927773 
L 46.775031 12.754357 
L 46.731215 14.580941 
L 46.687462 16.407525 
L 46.647494 18.234108 
L 46.614442 20.060692 
L 46.590746 21.887276 
L 46.578199 23.71386 
L 46.578056 25.540444 
L 46.591137 27.367028 
L 46.617851 29.193612 
L 46.658122 31.020196 
L 46.711227 32.84678 
L 46.775598 34.673364 
L 46.848672 36.499948 
L 46.926861 38.326532 
L 47.005717 40.153116 
L 47.080305 41.9797 
L 47.145764 43.806284 
L 47.197976 45.632868 
L 47.234236 47.459452 
L 47.25379 49.286036 
L 47.258135 51.11262 
L 47.250986 52.939204 
L 47.237907 54.765788 
L 47.225633 56.592372 
L 47.221215 58.418956 
L 47.231121 60.24554 
L 47.260487 62.072124 
L 47.312643 63.898708 
L 47.389024 65.725292 
L 47.489462 67.551876 
L 47.612782 69.37846 
L 47.757579 71.205044 
L 47.922999 73.031628 
L 48.109406 74.858211 
L 48.318832 76.684795 
L 48.555201 78.511379 
L 48.824342 80.337963 
L 49.133841 82.164547 
L 49.492729 83.991131 
L 49.911009 85.817715 
L 50.398951 87.644299 
L 50.966123 89.470883 
L 51.620165 91.297467 
L 52.365429 93.124051 
L 53.201684 94.950635 
L 54.123195 96.777219 
L 55.118447 98.603803 
L 56.170691 100.430387 
L 57.25931 102.256971 
L 58.361757 104.083555 
L 59.45563 105.910139 
L 60.520348 107.736723 
L 61.537976 109.563307 
L 62.492975 111.389891 
L 63.371021 113.216475 
L 64.157399 115.043059 
L 64.835706 116.869643 
L 65.387618 118.696227 
L 65.79415 120.522811 
L 66.038392 122.349395 
L 66.109091 124.175979 
L 66.004042 126.002563 
L 65.732145 127.829147 
L 65.313217 129.655731 
L 64.775297 131.482315 
L 64.149889 133.308898 
L 63.466271 135.135482 
L 62.746341 136.962066 
L 62.001357 138.78865 
L 61.231449 140.615234 
L 60.427984 142.441818 
L 59.578114 144.268402 
L 58.670268 146.094986 
L 57.699155 147.92157 
L 56.6691 149.748154 
L 55.595022 151.574738 
L 54.501053 153.401322 
L 53.417333 155.227906 
L 52.375873 157.05449 
L 51.406416 158.881074 
L 50.533083 160.707658 
L 49.772219 162.534242 
L 49.131586 164.360826 
L 48.61073 166.18741 
L 48.202227 168.013994 
L 47.893454 169.840578 
L 47.668538 171.667162 
L 47.510232 173.493746 
L 47.401507 175.32033 
L 47.326775 177.146914 
L 47.272693 178.973498 
L 47.228593 180.800082 
L 47.1866 182.626666 
L 47.141523 184.45325 
L 47.090594 186.279834 
L 47.090594 186.279834 
z
" clip-path="url(#pabee9398c8)" style="fill: none; stroke: #000000; stroke-opacity: 0.3"/>
   </g>
   <g id="FillBetweenPolyCollection_3">
    <path d="M 46.763756 236.647928 
L 46.181699 236.647928 
L 46.17537 234.800358 
L 46.17522 232.952788 
L 46.178745 231.105219 
L 46.183091 229.257649 
L 46.185824 227.410079 
L 46.185595 225.56251 
L 46.18251 223.71494 
L 46.178104 221.86737 
L 46.174911 220.019801 
L 46.175763 218.172231 
L 46.183026 216.324661 
L 46.197967 214.477092 
L 46.220429 212.629522 
L 46.248847 210.781952 
L 46.28056 208.934383 
L 46.312293 207.086813 
L 46.340634 205.239243 
L 46.362401 203.391674 
L 46.374808 201.544104 
L 46.375458 199.696534 
L 46.362198 197.848965 
L 46.332939 196.001395 
L 46.285472 194.153825 
L 46.217355 192.306256 
L 46.125875 190.458686 
L 46.008089 188.611116 
L 45.860986 186.763547 
L 45.681756 184.915977 
L 45.468188 183.068407 
L 45.219136 181.220838 
L 44.934948 179.373268 
L 44.61767 177.525698 
L 44.270887 175.678129 
L 43.899071 173.830559 
L 43.506507 171.982989 
L 43.096007 170.13542 
L 42.667757 168.28785 
L 42.218669 166.44028 
L 41.742497 164.592711 
L 41.230793 162.745141 
L 40.674519 160.897571 
L 40.065998 159.050002 
L 39.400738 157.202432 
L 38.678761 155.354862 
L 37.905119 153.507293 
L 37.089472 151.659723 
L 36.244777 149.812153 
L 35.385343 147.964584 
L 34.524665 146.117014 
L 33.673568 144.269444 
L 32.83921 142.421875 
L 32.025283 140.574305 
L 31.233478 138.726735 
L 30.465875 136.879166 
L 29.727602 135.031596 
L 29.02895 133.184026 
L 28.386286 131.336457 
L 27.821417 129.488887 
L 27.359575 127.641317 
L 27.026581 125.793748 
L 26.845915 123.946178 
L 26.836364 122.098608 
L 27.010538 120.251039 
L 27.374192 118.403469 
L 27.925994 116.555899 
L 28.657374 114.70833 
L 29.552294 112.86076 
L 30.587084 111.01319 
L 31.730732 109.165621 
L 32.946032 107.318051 
L 34.19177 105.470481 
L 35.425823 103.622912 
L 36.608742 101.775342 
L 37.707208 99.927772 
L 38.696821 98.080203 
L 39.563772 96.232633 
L 40.305213 94.385063 
L 40.928299 92.537494 
L 41.448087 90.689924 
L 41.884636 88.842354 
L 42.259756 86.994785 
L 42.593929 85.147215 
L 42.90389 83.299645 
L 43.201157 81.452076 
L 43.49163 79.604506 
L 43.776098 77.756936 
L 44.051382 75.909367 
L 44.311806 74.061797 
L 44.550719 72.214227 
L 44.761941 70.366658 
L 44.941026 68.519088 
L 45.086269 66.671518 
L 45.199318 64.823949 
L 45.285248 62.976379 
L 45.351975 61.12881 
L 45.409039 59.28124 
L 45.465963 57.43367 
L 45.530547 55.586101 
L 45.607531 53.738531 
L 47.337923 53.738531 
L 47.337923 53.738531 
L 47.414907 55.586101 
L 47.479492 57.43367 
L 47.536416 59.28124 
L 47.59348 61.12881 
L 47.660207 62.976379 
L 47.746137 64.823949 
L 47.859186 66.671518 
L 48.004429 68.519088 
L 48.183514 70.366658 
L 48.394736 72.214227 
L 48.633649 74.061797 
L 48.894072 75.909367 
L 49.169357 77.756936 
L 49.453824 79.604506 
L 49.744297 81.452076 
L 50.041565 83.299645 
L 50.351526 85.147215 
L 50.685699 86.994785 
L 51.060818 88.842354 
L 51.497368 90.689924 
L 52.017156 92.537494 
L 52.640241 94.385063 
L 53.381682 96.232633 
L 54.248633 98.080203 
L 55.238246 99.927772 
L 56.336713 101.775342 
L 57.519631 103.622912 
L 58.753685 105.470481 
L 59.999422 107.318051 
L 61.214722 109.165621 
L 62.358371 111.01319 
L 63.39316 112.86076 
L 64.28808 114.70833 
L 65.019461 116.555899 
L 65.571263 118.403469 
L 65.934917 120.251039 
L 66.109091 122.098608 
L 66.09954 123.946178 
L 65.918874 125.793748 
L 65.585879 127.641317 
L 65.124038 129.488887 
L 64.559168 131.336457 
L 63.916504 133.184026 
L 63.217853 135.031596 
L 62.47958 136.879166 
L 61.711977 138.726735 
L 60.920172 140.574305 
L 60.106245 142.421875 
L 59.271887 144.269444 
L 58.42079 146.117014 
L 57.560111 147.964584 
L 56.700678 149.812153 
L 55.855983 151.659723 
L 55.040335 153.507293 
L 54.266693 155.354862 
L 53.544717 157.202432 
L 52.879457 159.050002 
L 52.270935 160.897571 
L 51.714662 162.745141 
L 51.202957 164.592711 
L 50.726786 166.44028 
L 50.277697 168.28785 
L 49.849448 170.13542 
L 49.438948 171.982989 
L 49.046384 173.830559 
L 48.674568 175.678129 
L 48.327785 177.525698 
L 48.010507 179.373268 
L 47.726318 181.220838 
L 47.477267 183.068407 
L 47.263698 184.915977 
L 47.084468 186.763547 
L 46.937365 188.611116 
L 46.81958 190.458686 
L 46.728099 192.306256 
L 46.659983 194.153825 
L 46.612515 196.001395 
L 46.583256 197.848965 
L 46.569997 199.696534 
L 46.570646 201.544104 
L 46.583053 203.391674 
L 46.60482 205.239243 
L 46.633162 207.086813 
L 46.664894 208.934383 
L 46.696608 210.781952 
L 46.725026 212.629522 
L 46.747488 214.477092 
L 46.762429 216.324661 
L 46.769691 218.172231 
L 46.770544 220.019801 
L 46.767351 221.86737 
L 46.762945 223.71494 
L 46.75986 225.56251 
L 46.75963 227.410079 
L 46.762364 229.257649 
L 46.76671 231.105219 
L 46.770234 232.952788 
L 46.770085 234.800358 
L 46.763756 236.647928 
L 46.763756 236.647928 
z
" clip-path="url(#pabee9398c8)" style="fill: none; stroke: #000000; stroke-opacity: 0.3"/>
   </g>
   <g id="FillBetweenPolyCollection_4">
    <path d="M 51.276621 160.92195 
L 41.668834 160.92195 
L 41.076355 159.68102 
L 40.457316 158.440091 
L 39.815746 157.199162 
L 39.156457 155.958233 
L 38.485089 154.717304 
L 37.808049 153.476374 
L 37.132277 152.235445 
L 36.46486 150.994516 
L 35.812497 149.753587 
L 35.180895 148.512657 
L 34.574178 147.271728 
L 33.994403 146.030799 
L 33.441305 144.78987 
L 32.912323 143.548941 
L 32.402953 142.308011 
L 31.907414 141.067082 
L 31.419559 139.826153 
L 30.933936 138.585224 
L 30.446849 137.344294 
L 29.957295 136.103365 
L 29.467637 134.862436 
L 28.983918 133.621507 
L 28.515769 132.380578 
L 28.075907 131.139648 
L 27.679275 129.898719 
L 27.34192 128.65779 
L 27.079742 127.416861 
L 26.907235 126.175932 
L 26.836364 124.935002 
L 26.875671 123.694073 
L 27.029696 122.453144 
L 27.298727 121.212215 
L 27.678877 119.971285 
L 28.162448 118.730356 
L 28.738511 117.489427 
L 29.393625 116.248498 
L 30.112626 115.007569 
L 30.879424 113.766639 
L 31.677756 112.52571 
L 32.491866 111.284781 
L 33.307094 110.043852 
L 34.110359 108.802923 
L 34.890537 107.561993 
L 35.638713 106.321064 
L 36.348319 105.080135 
L 37.015139 103.839206 
L 37.637196 102.598276 
L 38.214523 101.357347 
L 38.748849 100.116418 
L 39.243221 98.875489 
L 39.701606 97.63456 
L 40.128502 96.39363 
L 40.528584 95.152701 
L 40.906416 93.911772 
L 41.266227 92.670843 
L 41.611742 91.429913 
L 41.946078 90.188984 
L 42.271679 88.948055 
L 42.590273 87.707126 
L 42.902862 86.466197 
L 43.209731 85.225267 
L 43.510481 83.984338 
L 43.804096 82.743409 
L 44.08904 81.50248 
L 44.363397 80.261551 
L 44.625024 79.020621 
L 44.871738 77.779692 
L 45.101495 76.538763 
L 45.312553 75.297834 
L 45.50361 74.056904 
L 45.673896 72.815975 
L 45.823206 71.575046 
L 45.951898 70.334117 
L 46.060824 69.093188 
L 46.151242 67.852258 
L 46.224691 66.611329 
L 46.282861 65.3704 
L 46.327466 64.129471 
L 46.36013 62.888542 
L 46.382294 61.647612 
L 46.395156 60.406683 
L 46.399644 59.165754 
L 46.396419 57.924825 
L 46.385916 56.683895 
L 46.368407 55.442966 
L 46.344091 54.202037 
L 46.313202 52.961108 
L 46.27611 51.720179 
L 46.233425 50.479249 
L 46.18608 49.23832 
L 46.135373 47.997391 
L 46.082975 46.756462 
L 46.030883 45.515532 
L 45.981329 44.274603 
L 45.936642 43.033674 
L 45.899076 41.792745 
L 45.870636 40.551816 
L 45.852897 39.310886 
L 45.846871 38.069957 
L 47.098584 38.069957 
L 47.098584 38.069957 
L 47.092557 39.310886 
L 47.074819 40.551816 
L 47.046378 41.792745 
L 47.008813 43.033674 
L 46.964125 44.274603 
L 46.914572 45.515532 
L 46.86248 46.756462 
L 46.810081 47.997391 
L 46.759374 49.23832 
L 46.712029 50.479249 
L 46.669345 51.720179 
L 46.632253 52.961108 
L 46.601363 54.202037 
L 46.577048 55.442966 
L 46.559538 56.683895 
L 46.549035 57.924825 
L 46.54581 59.165754 
L 46.550298 60.406683 
L 46.56316 61.647612 
L 46.585324 62.888542 
L 46.617988 64.129471 
L 46.662594 65.3704 
L 46.720764 66.611329 
L 46.794213 67.852258 
L 46.88463 69.093188 
L 46.993557 70.334117 
L 47.122248 71.575046 
L 47.271559 72.815975 
L 47.441844 74.056904 
L 47.632902 75.297834 
L 47.84396 76.538763 
L 48.073716 77.779692 
L 48.320431 79.020621 
L 48.582058 80.261551 
L 48.856414 81.50248 
L 49.141359 82.743409 
L 49.434973 83.984338 
L 49.735723 85.225267 
L 50.042592 86.466197 
L 50.355181 87.707126 
L 50.673775 88.948055 
L 50.999376 90.188984 
L 51.333713 91.429913 
L 51.679228 92.670843 
L 52.039038 93.911772 
L 52.416871 95.152701 
L 52.816953 96.39363 
L 53.243848 97.63456 
L 53.702234 98.875489 
L 54.196606 100.116418 
L 54.730932 101.357347 
L 55.308259 102.598276 
L 55.930315 103.839206 
L 56.597135 105.080135 
L 57.306741 106.321064 
L 58.054917 107.561993 
L 58.835095 108.802923 
L 59.638361 110.043852 
L 60.453589 111.284781 
L 61.267699 112.52571 
L 62.066031 113.766639 
L 62.832829 115.007569 
L 63.551829 116.248498 
L 64.206943 117.489427 
L 64.783006 118.730356 
L 65.266578 119.971285 
L 65.646728 121.212215 
L 65.915758 122.453144 
L 66.069784 123.694073 
L 66.109091 124.935002 
L 66.038219 126.175932 
L 65.865713 127.416861 
L 65.603534 128.65779 
L 65.26618 129.898719 
L 64.869547 131.139648 
L 64.429686 132.380578 
L 63.961537 133.621507 
L 63.477818 134.862436 
L 62.988159 136.103365 
L 62.498606 137.344294 
L 62.011519 138.585224 
L 61.525895 139.826153 
L 61.038041 141.067082 
L 60.542502 142.308011 
L 60.033132 143.548941 
L 59.50415 144.78987 
L 58.951052 146.030799 
L 58.371277 147.271728 
L 57.764559 148.512657 
L 57.132958 149.753587 
L 56.480595 150.994516 
L 55.813177 152.235445 
L 55.137406 153.476374 
L 54.460365 154.717304 
L 53.788998 155.958233 
L 53.129708 157.199162 
L 52.488139 158.440091 
L 51.8691 159.68102 
L 51.276621 160.92195 
L 51.276621 160.92195 
z
" clip-path="url(#pabee9398c8)" style="fill: none; stroke: #000000; stroke-opacity: 0.3"/>
   </g>
   <g id="FillBetweenPolyCollection_5">
    <path d="M 112.581998 213.228539 
L 111.272547 213.228539 
L 111.181563 211.508704 
L 111.091976 209.788868 
L 111.003306 208.069033 
L 110.91348 206.349197 
L 110.818998 204.629362 
L 110.715411 202.909526 
L 110.598017 201.18969 
L 110.462598 199.469855 
L 110.305971 197.750019 
L 110.126137 196.030184 
L 109.921945 194.310348 
L 109.692311 192.590513 
L 109.435259 190.870677 
L 109.147139 189.150842 
L 108.822394 187.431006 
L 108.454081 185.711171 
L 108.035104 183.991335 
L 107.559842 182.2715 
L 107.025682 180.551664 
L 106.434005 178.831829 
L 105.790327 177.111993 
L 105.103653 175.392158 
L 104.385313 173.672322 
L 103.647705 171.952487 
L 102.903274 170.232651 
L 102.163812 168.512816 
L 101.439959 166.79298 
L 100.740603 165.073144 
L 100.071995 163.353309 
L 99.436605 161.633473 
L 98.832081 159.913638 
L 98.25084 158.193802 
L 97.68083 156.473967 
L 97.107722 154.754131 
L 96.51834 153.034296 
L 95.904671 151.31446 
L 95.267537 149.594625 
L 94.618971 147.874789 
L 93.982641 146.154954 
L 93.392173 144.435118 
L 92.887665 142.715283 
L 92.511125 140.995447 
L 92.30162 139.275612 
L 92.290909 137.555776 
L 92.500046 135.835941 
L 92.937253 134.116105 
L 93.597108 132.39627 
L 94.46103 130.676434 
L 95.498902 128.956598 
L 96.671646 127.236763 
L 97.934453 125.516927 
L 99.240296 123.797092 
L 100.543349 122.077256 
L 101.801929 120.357421 
L 102.980748 118.637585 
L 104.052366 116.91775 
L 104.997882 115.197914 
L 105.807011 113.478079 
L 106.477689 111.758243 
L 107.015361 110.038408 
L 107.43204 108.318572 
L 107.745183 106.598737 
L 107.976352 104.878901 
L 108.14965 103.159066 
L 108.289902 101.43923 
L 108.420642 99.719395 
L 108.562042 97.999559 
L 108.729073 96.279724 
L 108.930182 94.559888 
L 109.166786 92.840052 
L 109.433739 91.120217 
L 109.720715 89.400381 
L 110.014278 87.680546 
L 110.300238 85.96071 
L 110.565865 84.240875 
L 110.801592 82.521039 
L 111.001975 80.801204 
L 111.165849 79.081368 
L 111.295763 77.361533 
L 111.396907 75.641697 
L 111.475797 73.921862 
L 111.538976 72.202026 
L 111.59198 70.482191 
L 111.638694 68.762355 
L 111.681143 67.04252 
L 111.719679 65.322684 
L 111.753427 63.602849 
L 111.780852 61.883013 
L 111.800322 60.163178 
L 111.810576 58.443342 
L 111.81106 56.723506 
L 111.80213 55.003671 
L 111.785125 53.283835 
L 111.762317 51.564 
L 111.736727 49.844164 
L 111.711807 48.124329 
L 111.691015 46.404493 
L 111.677329 44.684658 
L 111.672811 42.964822 
L 112.181734 42.964822 
L 112.181734 42.964822 
L 112.177216 44.684658 
L 112.163531 46.404493 
L 112.142738 48.124329 
L 112.117818 49.844164 
L 112.092228 51.564 
L 112.069421 53.283835 
L 112.052415 55.003671 
L 112.043485 56.723506 
L 112.043969 58.443342 
L 112.054223 60.163178 
L 112.073693 61.883013 
L 112.101118 63.602849 
L 112.134866 65.322684 
L 112.173403 67.04252 
L 112.215852 68.762355 
L 112.262565 70.482191 
L 112.31557 72.202026 
L 112.378749 73.921862 
L 112.457638 75.641697 
L 112.558783 77.361533 
L 112.688697 79.081368 
L 112.852571 80.801204 
L 113.052954 82.521039 
L 113.28868 84.240875 
L 113.554307 85.96071 
L 113.840267 87.680546 
L 114.133831 89.400381 
L 114.420806 91.120217 
L 114.687759 92.840052 
L 114.924363 94.559888 
L 115.125472 96.279724 
L 115.292503 97.999559 
L 115.433904 99.719395 
L 115.564643 101.43923 
L 115.704896 103.159066 
L 115.878194 104.878901 
L 116.109362 106.598737 
L 116.422505 108.318572 
L 116.839185 110.038408 
L 117.376856 111.758243 
L 118.047534 113.478079 
L 118.856664 115.197914 
L 119.80218 116.91775 
L 120.873797 118.637585 
L 122.052617 120.357421 
L 123.311196 122.077256 
L 124.614249 123.797092 
L 125.920093 125.516927 
L 127.182899 127.236763 
L 128.355643 128.956598 
L 129.393515 130.676434 
L 130.257438 132.39627 
L 130.917293 134.116105 
L 131.354499 135.835941 
L 131.563636 137.555776 
L 131.552925 139.275612 
L 131.343421 140.995447 
L 130.96688 142.715283 
L 130.462373 144.435118 
L 129.871904 146.154954 
L 129.235575 147.874789 
L 128.587008 149.594625 
L 127.949875 151.31446 
L 127.336206 153.034296 
L 126.746823 154.754131 
L 126.173715 156.473967 
L 125.603705 158.193802 
L 125.022464 159.913638 
L 124.417941 161.633473 
L 123.782551 163.353309 
L 123.113942 165.073144 
L 122.414586 166.79298 
L 121.690733 168.512816 
L 120.951272 170.232651 
L 120.20684 171.952487 
L 119.469233 173.672322 
L 118.750893 175.392158 
L 118.064219 177.111993 
L 117.420541 178.831829 
L 116.828863 180.551664 
L 116.294704 182.2715 
L 115.819441 183.991335 
L 115.400465 185.711171 
L 115.032152 187.431006 
L 114.707407 189.150842 
L 114.419286 190.870677 
L 114.162234 192.590513 
L 113.9326 194.310348 
L 113.728408 196.030184 
L 113.548575 197.750019 
L 113.391947 199.469855 
L 113.256529 201.18969 
L 113.139134 202.909526 
L 113.035547 204.629362 
L 112.941065 206.349197 
L 112.85124 208.069033 
L 112.76257 209.788868 
L 112.672982 211.508704 
L 112.581998 213.228539 
L 112.581998 213.228539 
z
" clip-path="url(#pabee9398c8)" style="fill: none; stroke: #000000; stroke-opacity: 0.3"/>
   </g>
   <g id="FillBetweenPolyCollection_6">
    <path d="M 115.703484 212.518326 
L 108.151061 212.518326 
L 107.910269 211.513336 
L 107.662394 210.508346 
L 107.40729 209.503356 
L 107.144831 208.498365 
L 106.874948 207.493375 
L 106.597659 206.488385 
L 106.313105 205.483395 
L 106.021577 204.478405 
L 105.723547 203.473414 
L 105.419679 202.468424 
L 105.110845 201.463434 
L 104.798119 200.458444 
L 104.482762 199.453454 
L 104.166202 198.448463 
L 103.849992 197.443473 
L 103.535767 196.438483 
L 103.225182 195.433493 
L 102.919855 194.428502 
L 102.621299 193.423512 
L 102.330855 192.418522 
L 102.049631 191.413532 
L 101.778444 190.408542 
L 101.517778 189.403551 
L 101.267745 188.398561 
L 101.028075 187.393571 
L 100.798108 186.388581 
L 100.576811 185.383591 
L 100.362814 184.3786 
L 100.154456 183.37361 
L 99.949847 182.36862 
L 99.746946 181.36363 
L 99.543636 180.358639 
L 99.337817 179.353649 
L 99.127487 178.348659 
L 98.910827 177.343669 
L 98.686275 176.338679 
L 98.452592 175.333688 
L 98.20891 174.328698 
L 97.954768 173.323708 
L 97.690133 172.318718 
L 97.415398 171.313728 
L 97.131368 170.308737 
L 96.839232 169.303747 
L 96.540517 168.298757 
L 96.237037 167.293767 
L 95.930829 166.288776 
L 95.624095 165.283786 
L 95.319133 164.278796 
L 95.018273 163.273806 
L 94.72383 162.268816 
L 94.438046 161.263825 
L 94.16306 160.258835 
L 93.900875 159.253845 
L 93.653345 158.248855 
L 93.422166 157.243865 
L 93.208882 156.238874 
L 93.014892 155.233884 
L 92.841469 154.228894 
L 92.689775 153.223904 
L 92.560878 152.218914 
L 92.455771 151.213923 
L 92.375384 150.208933 
L 92.320584 149.203943 
L 92.292179 148.198953 
L 92.290909 147.193962 
L 92.317429 146.188972 
L 92.372288 145.183982 
L 92.455907 144.178992 
L 92.568551 143.174002 
L 92.7103 142.169011 
L 92.881029 141.164021 
L 93.080386 140.159031 
L 93.307782 139.154041 
L 93.562388 138.149051 
L 93.843139 137.14406 
L 94.148754 136.13907 
L 94.477756 135.13408 
L 94.828511 134.12909 
L 95.199264 133.124099 
L 95.588183 132.119109 
L 95.993408 131.114119 
L 96.413096 130.109129 
L 96.845456 129.104139 
L 97.288791 128.099148 
L 97.741525 127.094158 
L 98.202215 126.089168 
L 98.669565 125.084178 
L 99.142421 124.079188 
L 99.619758 123.074197 
L 100.100662 122.069207 
L 100.584299 121.064217 
L 101.069883 120.059227 
L 101.556648 119.054236 
L 102.043805 118.049246 
L 102.530516 117.044256 
L 103.015867 116.039266 
L 103.498849 115.034276 
L 103.97834 114.029285 
L 104.453112 113.024295 
L 119.401434 113.024295 
L 119.401434 113.024295 
L 119.876205 114.029285 
L 120.355697 115.034276 
L 120.838678 116.039266 
L 121.32403 117.044256 
L 121.810741 118.049246 
L 122.297898 119.054236 
L 122.784662 120.059227 
L 123.270247 121.064217 
L 123.753883 122.069207 
L 124.234787 123.074197 
L 124.712125 124.079188 
L 125.184981 125.084178 
L 125.652331 126.089168 
L 126.113021 127.094158 
L 126.565754 128.099148 
L 127.00909 129.104139 
L 127.44145 130.109129 
L 127.861137 131.114119 
L 128.266363 132.119109 
L 128.655282 133.124099 
L 129.026034 134.12909 
L 129.376789 135.13408 
L 129.705791 136.13907 
L 130.011406 137.14406 
L 130.292158 138.149051 
L 130.546763 139.154041 
L 130.774159 140.159031 
L 130.973516 141.164021 
L 131.144245 142.169011 
L 131.285994 143.174002 
L 131.398638 144.178992 
L 131.482258 145.183982 
L 131.537117 146.188972 
L 131.563636 147.193962 
L 131.562366 148.198953 
L 131.533962 149.203943 
L 131.479162 150.208933 
L 131.398774 151.213923 
L 131.293668 152.218914 
L 131.164771 153.223904 
L 131.013076 154.228894 
L 130.839653 155.233884 
L 130.645664 156.238874 
L 130.432379 157.243865 
L 130.2012 158.248855 
L 129.95367 159.253845 
L 129.691485 160.258835 
L 129.416499 161.263825 
L 129.130715 162.268816 
L 128.836272 163.273806 
L 128.535413 164.278796 
L 128.23045 165.283786 
L 127.923716 166.288776 
L 127.617509 167.293767 
L 127.314028 168.298757 
L 127.015313 169.303747 
L 126.723177 170.308737 
L 126.439148 171.313728 
L 126.164412 172.318718 
L 125.899777 173.323708 
L 125.645636 174.328698 
L 125.401953 175.333688 
L 125.16827 176.338679 
L 124.943719 177.343669 
L 124.727059 178.348659 
L 124.516729 179.353649 
L 124.31091 180.358639 
L 124.1076 181.36363 
L 123.904698 182.36862 
L 123.70009 183.37361 
L 123.491731 184.3786 
L 123.277734 185.383591 
L 123.056438 186.388581 
L 122.82647 187.393571 
L 122.5868 188.398561 
L 122.336768 189.403551 
L 122.076101 190.408542 
L 121.804914 191.413532 
L 121.52369 192.418522 
L 121.233246 193.423512 
L 120.93469 194.428502 
L 120.629364 195.433493 
L 120.318779 196.438483 
L 120.004553 197.443473 
L 119.688344 198.448463 
L 119.371784 199.453454 
L 119.056427 200.458444 
L 118.7437 201.463434 
L 118.434866 202.468424 
L 118.130999 203.473414 
L 117.832968 204.478405 
L 117.541441 205.483395 
L 117.256886 206.488385 
L 116.979598 207.493375 
L 116.709714 208.498365 
L 116.447256 209.503356 
L 116.192151 210.508346 
L 115.944276 211.513336 
L 115.703484 212.518326 
L 115.703484 212.518326 
z
" clip-path="url(#pabee9398c8)" style="fill: none; stroke: #000000; stroke-opacity: 0.3"/>
   </g>
   <g id="FillBetweenPolyCollection_7">
    <path d="M 113.998754 192.851146 
L 109.855792 192.851146 
L 109.566629 191.438463 
L 109.265954 190.02578 
L 108.950395 188.613098 
L 108.613978 187.200415 
L 108.248653 185.787732 
L 107.845206 184.375049 
L 107.394417 182.962366 
L 106.888237 181.549683 
L 106.320774 180.137 
L 105.688949 178.724317 
L 104.992742 177.311634 
L 104.235094 175.898951 
L 103.421595 174.486268 
L 102.560136 173.073586 
L 101.660629 171.660903 
L 100.734849 170.24822 
L 99.796303 168.835537 
L 98.859994 167.422854 
L 97.941916 166.010171 
L 97.058242 164.597488 
L 96.224273 163.184805 
L 95.453365 161.772122 
L 94.756095 160.359439 
L 94.139919 158.946757 
L 93.609385 157.534074 
L 93.166814 156.121391 
L 92.813209 154.708708 
L 92.549063 153.296025 
L 92.374821 151.883342 
L 92.290909 150.470659 
L 92.29738 149.057976 
L 92.393412 147.645293 
L 92.576879 146.23261 
L 92.844154 144.819927 
L 93.190181 143.407245 
L 93.608716 141.994562 
L 94.092603 140.581879 
L 94.633988 139.169196 
L 95.224455 137.756513 
L 95.855201 136.34383 
L 96.517372 134.931147 
L 97.202648 133.518464 
L 97.904002 132.105781 
L 98.616453 130.693098 
L 99.337499 129.280415 
L 100.066979 127.867733 
L 100.806238 126.45505 
L 101.556725 125.042367 
L 102.318312 123.629684 
L 103.087822 122.217001 
L 103.858169 120.804318 
L 104.618407 119.391635 
L 105.354728 117.978952 
L 106.052182 116.566269 
L 106.696743 115.153586 
L 107.277266 113.740903 
L 107.78692 112.328221 
L 108.223867 110.915538 
L 108.591123 109.502855 
L 108.89571 108.090172 
L 109.147339 106.677489 
L 109.356903 105.264806 
L 109.535074 103.852123 
L 109.691201 102.43944 
L 109.832656 101.026757 
L 109.964645 99.614074 
L 110.090442 98.201391 
L 110.211889 96.788709 
L 110.330012 95.376026 
L 110.445561 93.963343 
L 110.55935 92.55066 
L 110.67234 91.137977 
L 110.785482 89.725294 
L 110.899421 88.312611 
L 111.014179 86.899928 
L 111.128957 85.487245 
L 111.242112 84.074562 
L 111.351347 82.66188 
L 111.454044 81.249197 
L 111.547663 79.836514 
L 111.630104 78.423831 
L 111.699943 77.011148 
L 111.756521 75.598465 
L 111.799873 74.185782 
L 111.830558 72.773099 
L 111.849438 71.360416 
L 111.857487 69.947733 
L 111.855661 68.53505 
L 111.844871 67.122368 
L 111.826049 65.709685 
L 111.800276 64.297002 
L 111.768935 62.884319 
L 111.73383 61.471636 
L 111.69722 60.058953 
L 111.661743 58.64627 
L 111.630222 57.233587 
L 111.605369 55.820904 
L 111.58945 54.408221 
L 111.583976 52.995538 
L 112.270569 52.995538 
L 112.270569 52.995538 
L 112.265095 54.408221 
L 112.249177 55.820904 
L 112.224323 57.233587 
L 112.192802 58.64627 
L 112.157326 60.058953 
L 112.120715 61.471636 
L 112.08561 62.884319 
L 112.054269 64.297002 
L 112.028496 65.709685 
L 112.009674 67.122368 
L 111.998884 68.53505 
L 111.997058 69.947733 
L 112.005107 71.360416 
L 112.023988 72.773099 
L 112.054673 74.185782 
L 112.098025 75.598465 
L 112.154603 77.011148 
L 112.224442 78.423831 
L 112.306882 79.836514 
L 112.400502 81.249197 
L 112.503198 82.66188 
L 112.612433 84.074562 
L 112.725588 85.487245 
L 112.840366 86.899928 
L 112.955125 88.312611 
L 113.069064 89.725294 
L 113.182206 91.137977 
L 113.295195 92.55066 
L 113.408984 93.963343 
L 113.524533 95.376026 
L 113.642656 96.788709 
L 113.764103 98.201391 
L 113.8899 99.614074 
L 114.021889 101.026757 
L 114.163344 102.43944 
L 114.319472 103.852123 
L 114.497643 105.264806 
L 114.707207 106.677489 
L 114.958835 108.090172 
L 115.263423 109.502855 
L 115.630679 110.915538 
L 116.067626 112.328221 
L 116.577279 113.740903 
L 117.157802 115.153586 
L 117.802364 116.566269 
L 118.499817 117.978952 
L 119.236138 119.391635 
L 119.996377 120.804318 
L 120.766723 122.217001 
L 121.536233 123.629684 
L 122.29782 125.042367 
L 123.048307 126.45505 
L 123.787567 127.867733 
L 124.517046 129.280415 
L 125.238092 130.693098 
L 125.950544 132.105781 
L 126.651898 133.518464 
L 127.337173 134.931147 
L 127.999345 136.34383 
L 128.63009 137.756513 
L 129.220558 139.169196 
L 129.761942 140.581879 
L 130.24583 141.994562 
L 130.664364 143.407245 
L 131.010391 144.819927 
L 131.277667 146.23261 
L 131.461134 147.645293 
L 131.557166 149.057976 
L 131.563636 150.470659 
L 131.479724 151.883342 
L 131.305483 153.296025 
L 131.041336 154.708708 
L 130.687731 156.121391 
L 130.245161 157.534074 
L 129.714626 158.946757 
L 129.098451 160.359439 
L 128.401181 161.772122 
L 127.630272 163.184805 
L 126.796304 164.597488 
L 125.91263 166.010171 
L 124.994551 167.422854 
L 124.058242 168.835537 
L 123.119697 170.24822 
L 122.193916 171.660903 
L 121.294409 173.073586 
L 120.43295 174.486268 
L 119.619452 175.898951 
L 118.861803 177.311634 
L 118.165596 178.724317 
L 117.533771 180.137 
L 116.966309 181.549683 
L 116.460128 182.962366 
L 116.00934 184.375049 
L 115.605893 185.787732 
L 115.240567 187.200415 
L 114.90415 188.613098 
L 114.588591 190.02578 
L 114.287917 191.438463 
L 113.998754 192.851146 
L 113.998754 192.851146 
z
" clip-path="url(#pabee9398c8)" style="fill: none; stroke: #000000; stroke-opacity: 0.3"/>
   </g>
   <g id="FillBetweenPolyCollection_8">
    <path d="M 113.000862 210.345257 
L 110.853684 210.345257 
L 110.729532 208.864224 
L 110.598565 207.383191 
L 110.460361 205.902158 
L 110.31454 204.421125 
L 110.160898 202.940092 
L 109.999542 201.459059 
L 109.830994 199.978026 
L 109.656238 198.496993 
L 109.476699 197.01596 
L 109.294122 195.534927 
L 109.110366 194.053894 
L 108.927112 192.572861 
L 108.745514 191.091828 
L 108.565831 189.610795 
L 108.387071 188.129762 
L 108.206718 186.648729 
L 108.020567 185.167696 
L 107.822704 183.686663 
L 107.605675 182.20563 
L 107.360821 180.724597 
L 107.078787 179.243564 
L 106.750164 177.762531 
L 106.366227 176.281498 
L 105.919698 174.800465 
L 105.405477 173.319432 
L 104.821277 171.838399 
L 104.168077 170.357366 
L 103.450358 168.876333 
L 102.676059 167.3953 
L 101.856259 165.914267 
L 101.004576 164.433234 
L 100.136336 162.952201 
L 99.267595 161.471168 
L 98.414104 159.990135 
L 97.590339 158.509102 
L 96.808705 157.028069 
L 96.079002 155.547036 
L 95.408225 154.066003 
L 94.80069 152.58497 
L 94.258458 151.103937 
L 93.781979 149.622904 
L 93.370837 148.141871 
L 93.024478 146.660838 
L 92.742806 145.179805 
L 92.526561 143.698772 
L 92.37743 142.217739 
L 92.297903 140.736706 
L 92.290909 139.255673 
L 92.359314 137.77464 
L 92.50537 136.293607 
L 92.730216 134.812574 
L 93.033488 133.331541 
L 93.4131 131.850508 
L 93.8652 130.369475 
L 94.384274 128.888442 
L 94.963387 127.407409 
L 95.594472 125.926376 
L 96.26866 124.445343 
L 96.976595 122.96431 
L 97.708723 121.483277 
L 98.45556 120.002244 
L 99.207947 118.521211 
L 99.957309 117.040178 
L 100.695924 115.559145 
L 101.417201 114.078112 
L 102.115929 112.597079 
L 102.788486 111.116046 
L 103.432934 109.635013 
L 104.048988 108.15398 
L 104.637819 106.672947 
L 105.201698 105.191914 
L 105.74351 103.710881 
L 106.266193 102.229848 
L 106.77218 100.748815 
L 107.262912 99.267782 
L 107.738503 97.786749 
L 108.197597 96.305716 
L 108.637435 94.824683 
L 109.054117 93.34365 
L 109.44302 91.862617 
L 109.799296 90.381584 
L 110.1184 88.900551 
L 110.396568 87.419518 
L 110.631207 85.938485 
L 110.821158 84.457452 
L 110.96683 82.976419 
L 111.070208 81.495386 
L 111.134751 80.014353 
L 111.165212 78.53332 
L 111.167378 77.052287 
L 111.147782 75.571254 
L 111.113361 74.090221 
L 111.071112 72.609188 
L 111.027731 71.128155 
L 110.98927 69.647122 
L 110.960825 68.166089 
L 110.946289 66.685056 
L 110.948177 65.204023 
L 110.967564 63.72299 
L 112.886981 63.72299 
L 112.886981 63.72299 
L 112.906368 65.204023 
L 112.908257 66.685056 
L 112.89372 68.166089 
L 112.865276 69.647122 
L 112.826814 71.128155 
L 112.783433 72.609188 
L 112.741184 74.090221 
L 112.706763 75.571254 
L 112.687167 77.052287 
L 112.689334 78.53332 
L 112.719794 80.014353 
L 112.784338 81.495386 
L 112.887715 82.976419 
L 113.033387 84.457452 
L 113.223338 85.938485 
L 113.457977 87.419518 
L 113.736146 88.900551 
L 114.055249 90.381584 
L 114.411525 91.862617 
L 114.800428 93.34365 
L 115.217111 94.824683 
L 115.656949 96.305716 
L 116.116043 97.786749 
L 116.591634 99.267782 
L 117.082366 100.748815 
L 117.588352 102.229848 
L 118.111036 103.710881 
L 118.652847 105.191914 
L 119.216726 106.672947 
L 119.805557 108.15398 
L 120.421612 109.635013 
L 121.06606 111.116046 
L 121.738616 112.597079 
L 122.437345 114.078112 
L 123.158621 115.559145 
L 123.897237 117.040178 
L 124.646598 118.521211 
L 125.398985 120.002244 
L 126.145822 121.483277 
L 126.87795 122.96431 
L 127.585886 124.445343 
L 128.260074 125.926376 
L 128.891159 127.407409 
L 129.470271 128.888442 
L 129.989346 130.369475 
L 130.441445 131.850508 
L 130.821058 133.331541 
L 131.12433 134.812574 
L 131.349175 136.293607 
L 131.495232 137.77464 
L 131.563636 139.255673 
L 131.556642 140.736706 
L 131.477115 142.217739 
L 131.327984 143.698772 
L 131.111739 145.179805 
L 130.830068 146.660838 
L 130.483709 148.141871 
L 130.072567 149.622904 
L 129.596087 151.103937 
L 129.053855 152.58497 
L 128.44632 154.066003 
L 127.775544 155.547036 
L 127.045841 157.028069 
L 126.264206 158.509102 
L 125.440441 159.990135 
L 124.586951 161.471168 
L 123.718209 162.952201 
L 122.849969 164.433234 
L 121.998286 165.914267 
L 121.178487 167.3953 
L 120.404188 168.876333 
L 119.686468 170.357366 
L 119.033269 171.838399 
L 118.449069 173.319432 
L 117.934848 174.800465 
L 117.488318 176.281498 
L 117.104381 177.762531 
L 116.775759 179.243564 
L 116.493725 180.724597 
L 116.24887 182.20563 
L 116.031841 183.686663 
L 115.833979 185.167696 
L 115.647827 186.648729 
L 115.467475 188.129762 
L 115.288715 189.610795 
L 115.109031 191.091828 
L 114.927434 192.572861 
L 114.74418 194.053894 
L 114.560424 195.534927 
L 114.377847 197.01596 
L 114.198308 198.496993 
L 114.023552 199.978026 
L 113.855003 201.459059 
L 113.693647 202.940092 
L 113.540005 204.421125 
L 113.394185 205.902158 
L 113.255981 207.383191 
L 113.125014 208.864224 
L 113.000862 210.345257 
L 113.000862 210.345257 
z
" clip-path="url(#pabee9398c8)" style="fill: none; stroke: #000000; stroke-opacity: 0.3"/>
   </g>
   <g id="FillBetweenPolyCollection_9">
    <path d="M 113.964743 225.584141 
L 109.889802 225.584141 
L 109.641946 223.715477 
L 109.370799 221.846813 
L 109.072125 219.978149 
L 108.741376 218.109485 
L 108.374145 216.240821 
L 107.966709 214.372157 
L 107.516601 212.503493 
L 107.02314 210.634829 
L 106.487855 208.766165 
L 105.914728 206.897501 
L 105.310197 205.028837 
L 104.682913 203.160173 
L 104.043235 201.291509 
L 103.402505 199.422845 
L 102.772189 197.554181 
L 102.162945 195.685517 
L 101.583749 193.816853 
L 101.041155 191.948189 
L 100.538794 190.079525 
L 100.077152 188.210861 
L 99.65366 186.342197 
L 99.26307 184.473533 
L 98.898082 182.604869 
L 98.550136 180.736205 
L 98.210271 178.867541 
L 97.869983 176.998877 
L 97.521965 175.130213 
L 97.160691 173.261549 
L 96.782798 171.392885 
L 96.387254 169.524221 
L 95.975338 167.655557 
L 95.550473 165.786893 
L 95.117948 163.918229 
L 94.68461 162.049565 
L 94.258544 160.180901 
L 93.848788 158.312237 
L 93.46509 156.443573 
L 93.117697 154.57491 
L 92.817155 152.706246 
L 92.574087 150.837582 
L 92.398921 148.968918 
L 92.301549 147.100254 
L 92.290909 145.23159 
L 92.374513 143.362926 
L 92.557956 141.494262 
L 92.844461 139.625598 
L 93.234513 137.756934 
L 93.725632 135.88827 
L 94.312329 134.019606 
L 94.986262 132.150942 
L 95.736579 130.282278 
L 96.550417 128.413614 
L 97.413518 126.54495 
L 98.31089 124.676286 
L 99.227468 122.807622 
L 100.148704 120.938958 
L 101.061067 119.070294 
L 101.952419 117.20163 
L 102.812265 115.332966 
L 103.631886 113.464302 
L 104.40438 111.595638 
L 105.124624 109.726974 
L 105.789188 107.85831 
L 106.396224 105.989646 
L 106.945326 104.120982 
L 107.437388 102.252318 
L 107.874445 100.383654 
L 108.259507 98.51499 
L 108.596376 96.646326 
L 108.889447 94.777662 
L 109.143499 92.908998 
L 109.363473 91.040334 
L 109.55426 89.17167 
L 109.720492 87.303006 
L 109.866372 85.434342 
L 109.995533 83.565678 
L 110.110954 81.697014 
L 110.214926 79.82835 
L 110.309074 77.959686 
L 110.394436 76.091022 
L 110.471575 74.222358 
L 110.540728 72.353694 
L 110.60196 70.48503 
L 110.655314 68.616366 
L 110.700943 66.747702 
L 110.739209 64.879038 
L 110.770742 63.010374 
L 110.796461 61.14171 
L 110.817556 59.273046 
L 110.835433 57.404382 
L 110.851648 55.535718 
L 110.867812 53.667054 
L 110.885506 51.79839 
L 110.906185 49.929726 
L 110.9311 48.061062 
L 110.961226 46.192398 
L 110.99721 44.323734 
L 111.039335 42.45507 
L 111.087501 40.586406 
L 112.767044 40.586406 
L 112.767044 40.586406 
L 112.815211 42.45507 
L 112.857335 44.323734 
L 112.893319 46.192398 
L 112.923446 48.061062 
L 112.948361 49.929726 
L 112.96904 51.79839 
L 112.986733 53.667054 
L 113.002898 55.535718 
L 113.019112 57.404382 
L 113.03699 59.273046 
L 113.058084 61.14171 
L 113.083803 63.010374 
L 113.115337 64.879038 
L 113.153602 66.747702 
L 113.199231 68.616366 
L 113.252585 70.48503 
L 113.313817 72.353694 
L 113.382971 74.222358 
L 113.46011 76.091022 
L 113.545471 77.959686 
L 113.639619 79.82835 
L 113.743591 81.697014 
L 113.859012 83.565678 
L 113.988174 85.434342 
L 114.134054 87.303006 
L 114.300286 89.17167 
L 114.491072 91.040334 
L 114.711047 92.908998 
L 114.965099 94.777662 
L 115.25817 96.646326 
L 115.595039 98.51499 
L 115.980101 100.383654 
L 116.417157 102.252318 
L 116.909219 104.120982 
L 117.458321 105.989646 
L 118.065357 107.85831 
L 118.729922 109.726974 
L 119.450165 111.595638 
L 120.222659 113.464302 
L 121.04228 115.332966 
L 121.902126 117.20163 
L 122.793479 119.070294 
L 123.705842 120.938958 
L 124.627078 122.807622 
L 125.543655 124.676286 
L 126.441028 126.54495 
L 127.304128 128.413614 
L 128.117966 130.282278 
L 128.868283 132.150942 
L 129.542217 134.019606 
L 130.128914 135.88827 
L 130.620032 137.756934 
L 131.010084 139.625598 
L 131.29659 141.494262 
L 131.480033 143.362926 
L 131.563636 145.23159 
L 131.552996 147.100254 
L 131.455625 148.968918 
L 131.280459 150.837582 
L 131.03739 152.706246 
L 130.736848 154.57491 
L 130.389455 156.443573 
L 130.005757 158.312237 
L 129.596002 160.180901 
L 129.169936 162.049565 
L 128.736598 163.918229 
L 128.304073 165.786893 
L 127.879207 167.655557 
L 127.467292 169.524221 
L 127.071747 171.392885 
L 126.693854 173.261549 
L 126.332581 175.130213 
L 125.984562 176.998877 
L 125.644274 178.867541 
L 125.30441 180.736205 
L 124.956463 182.604869 
L 124.591476 184.473533 
L 124.200886 186.342197 
L 123.777393 188.210861 
L 123.315752 190.079525 
L 122.813391 191.948189 
L 122.270797 193.816853 
L 121.6916 195.685517 
L 121.082356 197.554181 
L 120.45204 199.422845 
L 119.811311 201.291509 
L 119.171632 203.160173 
L 118.544349 205.028837 
L 117.939818 206.897501 
L 117.36669 208.766165 
L 116.831406 210.634829 
L 116.337945 212.503493 
L 115.887836 214.372157 
L 115.480401 216.240821 
L 115.11317 218.109485 
L 114.782421 219.978149 
L 114.483747 221.846813 
L 114.2126 223.715477 
L 113.964743 225.584141 
L 113.964743 225.584141 
z
" clip-path="url(#pabee9398c8)" style="fill: none; stroke: #000000; stroke-opacity: 0.3"/>
   </g>
   <g id="FillBetweenPolyCollection_10">
    <path d="M 112.626156 205.757641 
L 111.228389 205.757641 
L 111.121788 204.323 
L 111.002681 202.888358 
L 110.869223 201.453717 
L 110.71961 200.019075 
L 110.552297 198.584434 
L 110.366217 197.149792 
L 110.160935 195.715151 
L 109.936715 194.280509 
L 109.694468 192.845868 
L 109.435562 191.411226 
L 109.161537 189.976585 
L 108.873739 188.541943 
L 108.572954 187.107302 
L 108.259095 185.67266 
L 107.931015 184.238019 
L 107.586492 182.803377 
L 107.222401 181.368736 
L 106.835062 179.934094 
L 106.420705 178.499453 
L 105.975966 177.064811 
L 105.498335 175.63017 
L 104.986459 174.195529 
L 104.440252 172.760887 
L 103.860821 171.326246 
L 103.25023 169.891604 
L 102.611212 168.456963 
L 101.946908 167.022321 
L 101.260741 165.58768 
L 100.556446 164.153038 
L 99.838254 162.718397 
L 99.111165 161.283755 
L 98.381189 159.849114 
L 97.655459 158.414472 
L 96.942139 156.979831 
L 96.250126 155.545189 
L 95.588593 154.110548 
L 94.966495 152.675906 
L 94.392173 151.241265 
L 93.873168 149.806623 
L 93.416279 148.371982 
L 93.027861 146.93734 
L 92.714223 145.502699 
L 92.48201 144.068057 
L 92.338384 142.633416 
L 92.290909 141.198774 
L 92.347101 139.764133 
L 92.513682 138.329491 
L 92.795667 136.89485 
L 93.195428 135.460208 
L 93.71191 134.025567 
L 94.340119 132.590925 
L 95.070973 131.156284 
L 95.891535 129.721642 
L 96.785583 128.287001 
L 97.734481 126.852359 
L 98.718226 125.417718 
L 99.716577 123.983076 
L 100.71017 122.548435 
L 101.681498 121.113793 
L 102.615681 119.679152 
L 103.500956 118.24451 
L 104.328853 116.809869 
L 105.094059 115.375227 
L 105.794015 113.940586 
L 106.428326 112.505944 
L 106.998088 111.071303 
L 107.505234 109.636661 
L 107.952018 108.20202 
L 108.340678 106.767378 
L 108.673333 105.332737 
L 108.952075 103.898095 
L 109.179217 102.463454 
L 109.357603 101.028812 
L 109.490891 99.594171 
L 109.58373 98.159529 
L 109.641772 96.724888 
L 109.67151 95.290246 
L 109.679952 93.855605 
L 109.674188 92.420963 
L 109.660935 90.986322 
L 109.646109 89.55168 
L 109.634518 88.117039 
L 109.629699 86.682397 
L 109.63391 85.247756 
L 109.648281 83.813115 
L 109.673062 82.378473 
L 109.707932 80.943832 
L 109.752313 79.50919 
L 109.805639 78.074549 
L 109.867539 76.639907 
L 109.937918 75.205266 
L 110.016931 73.770624 
L 110.104869 72.335983 
L 110.201972 70.901341 
L 110.308223 69.4667 
L 110.423158 68.032058 
L 110.545731 66.597417 
L 110.674265 65.162775 
L 110.80649 63.728134 
L 113.048055 63.728134 
L 113.048055 63.728134 
L 113.180281 65.162775 
L 113.308814 66.597417 
L 113.431388 68.032058 
L 113.546323 69.4667 
L 113.652573 70.901341 
L 113.749676 72.335983 
L 113.837614 73.770624 
L 113.916628 75.205266 
L 113.987006 76.639907 
L 114.048906 78.074549 
L 114.102233 79.50919 
L 114.146614 80.943832 
L 114.181484 82.378473 
L 114.206264 83.813115 
L 114.220636 85.247756 
L 114.224847 86.682397 
L 114.220027 88.117039 
L 114.208437 89.55168 
L 114.193611 90.986322 
L 114.180357 92.420963 
L 114.174594 93.855605 
L 114.183035 95.290246 
L 114.212773 96.724888 
L 114.270815 98.159529 
L 114.363654 99.594171 
L 114.496942 101.028812 
L 114.675329 102.463454 
L 114.902471 103.898095 
L 115.181213 105.332737 
L 115.513867 106.767378 
L 115.902527 108.20202 
L 116.349311 109.636661 
L 116.856458 111.071303 
L 117.426219 112.505944 
L 118.060531 113.940586 
L 118.760487 115.375227 
L 119.525693 116.809869 
L 120.35359 118.24451 
L 121.238865 119.679152 
L 122.173048 121.113793 
L 123.144375 122.548435 
L 124.137968 123.983076 
L 125.13632 125.417718 
L 126.120064 126.852359 
L 127.068963 128.287001 
L 127.963011 129.721642 
L 128.783572 131.156284 
L 129.514427 132.590925 
L 130.142636 134.025567 
L 130.659117 135.460208 
L 131.058878 136.89485 
L 131.340863 138.329491 
L 131.507445 139.764133 
L 131.563636 141.198774 
L 131.516161 142.633416 
L 131.372535 144.068057 
L 131.140323 145.502699 
L 130.826685 146.93734 
L 130.438266 148.371982 
L 129.981378 149.806623 
L 129.462372 151.241265 
L 128.888051 152.675906 
L 128.265952 154.110548 
L 127.604419 155.545189 
L 126.912406 156.979831 
L 126.199087 158.414472 
L 125.473356 159.849114 
L 124.74338 161.283755 
L 124.016292 162.718397 
L 123.2981 164.153038 
L 122.593804 165.58768 
L 121.907637 167.022321 
L 121.243334 168.456963 
L 120.604315 169.891604 
L 119.993724 171.326246 
L 119.414293 172.760887 
L 118.868087 174.195529 
L 118.35621 175.63017 
L 117.878579 177.064811 
L 117.43384 178.499453 
L 117.019483 179.934094 
L 116.632145 181.368736 
L 116.268054 182.803377 
L 115.92353 184.238019 
L 115.59545 185.67266 
L 115.281591 187.107302 
L 114.980806 188.541943 
L 114.693009 189.976585 
L 114.418984 191.411226 
L 114.160078 192.845868 
L 113.91783 194.280509 
L 113.693611 195.715151 
L 113.488328 197.149792 
L 113.302248 198.584434 
L 113.134936 200.019075 
L 112.985322 201.453717 
L 112.851865 202.888358 
L 112.732757 204.323 
L 112.626156 205.757641 
L 112.626156 205.757641 
z
" clip-path="url(#pabee9398c8)" style="fill: none; stroke: #000000; stroke-opacity: 0.3"/>
   </g>
   <g id="FillBetweenPolyCollection_11">
    <path d="M 115.663005 184.972262 
L 108.19154 184.972262 
L 107.811464 183.799893 
L 107.420212 182.627525 
L 107.020262 181.455157 
L 106.614171 180.282789 
L 106.204488 179.110421 
L 105.793654 177.938053 
L 105.383882 176.765685 
L 104.977023 175.593317 
L 104.57444 174.420949 
L 104.176884 173.24858 
L 103.784409 172.076212 
L 103.396329 170.903844 
L 103.01123 169.731476 
L 102.627053 168.559108 
L 102.241235 167.38674 
L 101.850921 166.214372 
L 101.453205 165.042004 
L 101.045401 163.869636 
L 100.625305 162.697268 
L 100.191427 161.524899 
L 99.743164 160.352531 
L 99.280908 159.180163 
L 98.806061 158.007795 
L 98.32098 156.835427 
L 97.828844 155.663059 
L 97.333471 154.490691 
L 96.839102 153.318323 
L 96.350191 152.145955 
L 95.871204 150.973586 
L 95.406474 149.801218 
L 94.960095 148.62885 
L 94.535896 147.456482 
L 94.137458 146.284114 
L 93.768187 145.111746 
L 93.431418 143.939378 
L 93.130527 142.76701 
L 92.869035 141.594642 
L 92.650682 140.422273 
L 92.479451 139.249905 
L 92.359538 138.077537 
L 92.29526 136.905169 
L 92.290909 135.732801 
L 92.350555 134.560433 
L 92.477824 133.388065 
L 92.675657 132.215697 
L 92.946089 131.043329 
L 93.290045 129.870961 
L 93.707188 128.698592 
L 94.195825 127.526224 
L 94.75287 126.353856 
L 95.373881 125.181488 
L 96.05315 124.00912 
L 96.783849 122.836752 
L 97.558222 121.664384 
L 98.367794 120.492016 
L 99.203612 119.319648 
L 100.056478 118.147279 
L 100.917184 116.974911 
L 101.776729 115.802543 
L 102.626518 114.630175 
L 103.458535 113.457807 
L 104.265492 112.285439 
L 105.040939 111.113071 
L 105.779356 109.940703 
L 106.476203 108.768335 
L 107.127949 107.595966 
L 107.732063 106.423598 
L 108.286987 105.25123 
L 108.792079 104.078862 
L 109.247537 102.906494 
L 109.654302 101.734126 
L 110.013954 100.561758 
L 110.328594 99.38939 
L 110.600719 98.217022 
L 110.833108 97.044653 
L 111.028698 95.872285 
L 111.190486 94.699917 
L 111.321435 93.527549 
L 111.424398 92.355181 
L 111.502069 91.182813 
L 111.556947 90.010445 
L 111.591336 88.838077 
L 111.607351 87.665709 
L 111.606955 86.493341 
L 111.592006 85.320972 
L 111.564313 84.148604 
L 111.525693 82.976236 
L 111.478029 81.803868 
L 111.423306 80.6315 
L 111.363639 79.459132 
L 111.301271 78.286764 
L 111.238544 77.114396 
L 111.177854 75.942028 
L 111.121569 74.769659 
L 111.071943 73.597291 
L 111.031013 72.424923 
L 111.000495 71.252555 
L 110.981699 70.080187 
L 110.975452 68.907819 
L 112.879094 68.907819 
L 112.879094 68.907819 
L 112.872847 70.080187 
L 112.854051 71.252555 
L 112.823533 72.424923 
L 112.782602 73.597291 
L 112.732976 74.769659 
L 112.676692 75.942028 
L 112.616001 77.114396 
L 112.553275 78.286764 
L 112.490906 79.459132 
L 112.431239 80.6315 
L 112.376516 81.803868 
L 112.328852 82.976236 
L 112.290233 84.148604 
L 112.262539 85.320972 
L 112.247591 86.493341 
L 112.247195 87.665709 
L 112.26321 88.838077 
L 112.297598 90.010445 
L 112.352477 91.182813 
L 112.430147 92.355181 
L 112.53311 93.527549 
L 112.664059 94.699917 
L 112.825848 95.872285 
L 113.021438 97.044653 
L 113.253826 98.217022 
L 113.525952 99.38939 
L 113.840591 100.561758 
L 114.200244 101.734126 
L 114.607009 102.906494 
L 115.062466 104.078862 
L 115.567558 105.25123 
L 116.122482 106.423598 
L 116.726596 107.595966 
L 117.378342 108.768335 
L 118.07519 109.940703 
L 118.813607 111.113071 
L 119.589054 112.285439 
L 120.39601 113.457807 
L 121.228027 114.630175 
L 122.077816 115.802543 
L 122.937361 116.974911 
L 123.798067 118.147279 
L 124.650933 119.319648 
L 125.486752 120.492016 
L 126.296324 121.664384 
L 127.070696 122.836752 
L 127.801396 124.00912 
L 128.480665 125.181488 
L 129.101675 126.353856 
L 129.658721 127.526224 
L 130.147358 128.698592 
L 130.564501 129.870961 
L 130.908457 131.043329 
L 131.178888 132.215697 
L 131.376722 133.388065 
L 131.50399 134.560433 
L 131.563636 135.732801 
L 131.559285 136.905169 
L 131.495007 138.077537 
L 131.375094 139.249905 
L 131.203863 140.422273 
L 130.98551 141.594642 
L 130.724019 142.76701 
L 130.423128 143.939378 
L 130.086358 145.111746 
L 129.717087 146.284114 
L 129.318649 147.456482 
L 128.89445 148.62885 
L 128.448072 149.801218 
L 127.983341 150.973586 
L 127.504355 152.145955 
L 127.015444 153.318323 
L 126.521075 154.490691 
L 126.025701 155.663059 
L 125.533565 156.835427 
L 125.048484 158.007795 
L 124.573637 159.180163 
L 124.111381 160.352531 
L 123.663118 161.524899 
L 123.22924 162.697268 
L 122.809145 163.869636 
L 122.401341 165.042004 
L 122.003625 166.214372 
L 121.613311 167.38674 
L 121.227493 168.559108 
L 120.843315 169.731476 
L 120.458216 170.903844 
L 120.070136 172.076212 
L 119.677662 173.24858 
L 119.280106 174.420949 
L 118.877522 175.593317 
L 118.470664 176.765685 
L 118.060891 177.938053 
L 117.650058 179.110421 
L 117.240374 180.282789 
L 116.834283 181.455157 
L 116.434333 182.627525 
L 116.043081 183.799893 
L 115.663005 184.972262 
L 115.663005 184.972262 
z
" clip-path="url(#pabee9398c8)" style="fill: none; stroke: #000000; stroke-opacity: 0.3"/>
   </g>
   <g id="matplotlib.axis_1">
    <g id="xtick_1">
     <g id="line2d_1">
      <defs>
       <path id="m886453280d" d="M 0 0 
L 0 3.5 
" style="stroke: #000000; stroke-width: 0.8"/>
      </defs>
      <g>
       <use xlink:href="#m886453280d" x="46.472727" y="291.6" style="stroke: #000000; stroke-width: 0.8"/>
      </g>
     </g>
     <g id="text_1">
      <text style="font-size: 10px; font-family: 'DejaVu Sans', 'Bitstream Vera Sans', 'Computer Modern Sans Serif', 'Lucida Grande', 'Verdana', 'Geneva', 'Lucid', 'Arial', 'Helvetica', 'Avant Garde', sans-serif; text-anchor: middle" x="46.472727" y="306.198438" transform="rotate(-0 46.472727 306.198438)">0.3</text>
     </g>
    </g>
    <g id="xtick_2">
     <g id="line2d_2">
      <g>
       <use xlink:href="#m886453280d" x="111.927273" y="291.6" style="stroke: #000000; stroke-width: 0.8"/>
      </g>
     </g>
     <g id="text_2">
      <text style="font-size: 10px; font-family: 'DejaVu Sans', 'Bitstream Vera Sans', 'Computer Modern Sans Serif', 'Lucida Grande', 'Verdana', 'Geneva', 'Lucid', 'Arial', 'Helvetica', 'Avant Garde', sans-serif; text-anchor: middle" x="111.927273" y="306.198438" transform="rotate(-0 111.927273 306.198438)">0.6</text>
     </g>
    </g>
   </g>
   <g id="matplotlib.axis_2">
    <g id="ytick_1">
     <g id="line2d_3">
      <defs>
       <path id="mc5ad4c74de" d="M 0 0 
L -3.5 0 
" style="stroke: #000000; stroke-width: 0.8"/>
      </defs>
      <g>
       <use xlink:href="#mc5ad4c74de" x="21.6" y="291.6" style="stroke: #000000; stroke-width: 0.8"/>
      </g>
     </g>
    </g>
    <g id="ytick_2">
     <g id="line2d_4">
      <g>
       <use xlink:href="#mc5ad4c74de" x="21.6" y="199.8" style="stroke: #000000; stroke-width: 0.8"/>
      </g>
     </g>
    </g>
    <g id="ytick_3">
     <g id="line2d_5">
      <g>
       <use xlink:href="#mc5ad4c74de" x="21.6" y="108" style="stroke: #000000; stroke-width: 0.8"/>
      </g>
     </g>
    </g>
    <g id="ytick_4">
     <g id="line2d_6">
      <g>
       <use xlink:href="#mc5ad4c74de" x="21.6" y="16.2" style="stroke: #000000; stroke-width: 0.8"/>
      </g>
     </g>
    </g>
   </g>
   <g id="line2d_7">
    <path d="M 46.472727 269.568 
L 46.472727 264.06 
" clip-path="url(#pabee9398c8)" style="fill: none; stroke: #000000; stroke-linecap: square"/>
   </g>
   <g id="line2d_8">
    <path d="M 46.472727 269.568 
L 111.927273 269.568 
" clip-path="url(#pabee9398c8)" style="fill: none; stroke: #000000; stroke-linecap: square"/>
   </g>
   <g id="line2d_9">
    <path d="M 111.927273 269.568 
L 111.927273 264.06 
" clip-path="url(#pabee9398c8)" style="fill: none; stroke: #000000; stroke-linecap: square"/>
   </g>
   <g id="patch_3">
    <path d="M 21.6 291.6 
L 21.6 16.2 
" style="fill: none; stroke: #000000; stroke-width: 0.8; stroke-linejoin: miter; stroke-linecap: square"/>
   </g>
   <g id="patch_4">
    <path d="M 136.8 291.6 
L 136.8 16.2 
" style="fill: none; stroke: #000000; stroke-width: 0.8; stroke-linejoin: miter; stroke-linecap: square"/>
   </g>
   <g id="patch_5">
    <path d="M 21.6 291.6 
L 136.8 291.6 
" style="fill: none; stroke: #000000; stroke-width: 0.8; stroke-linejoin: miter; stroke-linecap: square"/>
   </g>
   <g id="patch_6">
    <path d="M 21.6 16.2 
L 136.8 16.2 
" style="fill: none; stroke: #000000; stroke-width: 0.8; stroke-linejoin: miter; stroke-linecap: square"/>
   </g>
   <g id="text_3">
    <text style="font-weight: 700; font-size: 12px; font-family: 'DejaVu Sans', 'Bitstream Vera Sans', 'Computer Modern Sans Serif', 'Lucida Grande', 'Verdana', 'Geneva', 'Lucid', 'Arial', 'Helvetica', 'Avant Garde', sans-serif; text-anchor: middle" x="46.472727" y="289.104375" transform="rotate(-0 46.472727 289.104375)">#10</text>
   </g>
   <g id="text_4">
    <text style="font-weight: 700; font-size: 12px; font-family: 'DejaVu Sans', 'Bitstream Vera Sans', 'Computer Modern Sans Serif', 'Lucida Grande', 'Verdana', 'Geneva', 'Lucid', 'Arial', 'Helvetica', 'Avant Garde', sans-serif; text-anchor: middle" x="111.927273" y="289.104375" transform="rotate(-0 111.927273 289.104375)">#24</text>
   </g>
   <g id="text_5">
    <text style="font-size: 12px; font-family: 'DejaVu Sans', 'Bitstream Vera Sans', 'Computer Modern Sans Serif', 'Lucida Grande', 'Verdana', 'Geneva', 'Lucid', 'Arial', 'Helvetica', 'Avant Garde', sans-serif; text-anchor: middle" x="79.2" y="268.449375" transform="rotate(-0 79.2 268.449375)">***</text>
   </g>
   <g id="line2d_10">
    <path d="M 21.6 123.792773 
L 136.8 123.792773 
" clip-path="url(#pabee9398c8)" style="fill: none; stroke-dasharray: 3.7,1.6; stroke-dashoffset: 0; stroke: #808080; stroke-opacity: 0.7"/>
   </g>
   <g id="line2d_11">
    <path d="M 21.6 145.516875 
L 136.8 145.516875 
" clip-path="url(#pabee9398c8)" style="fill: none; stroke-dasharray: 3.7,1.6; stroke-dashoffset: 0; stroke: #808080; stroke-opacity: 0.7"/>
   </g>
   <g id="LineCollection_1">
    <path d="M 46.472727 126.095257 
L 46.472727 121.49029 
" clip-path="url(#pabee9398c8)" style="fill: none; stroke: #000000; stroke-width: 2"/>
   </g>
   <g id="line2d_12">
    <defs>
     <path id="m5ad02da303" d="M 5 0 
L -5 -0 
" style="stroke: #000000; stroke-width: 2"/>
    </defs>
    <g clip-path="url(#pabee9398c8)">
     <use xlink:href="#m5ad02da303" x="46.472727" y="126.095257" style="stroke: #000000; stroke-width: 2"/>
    </g>
   </g>
   <g id="line2d_13">
    <g clip-path="url(#pabee9398c8)">
     <use xlink:href="#m5ad02da303" x="46.472727" y="121.49029" style="stroke: #000000; stroke-width: 2"/>
    </g>
   </g>
   <g id="LineCollection_2">
    <path d="M 111.927273 151.985913 
L 111.927273 139.047838 
" clip-path="url(#pabee9398c8)" style="fill: none; stroke: #000000; stroke-width: 2"/>
   </g>
   <g id="line2d_14">
    <g clip-path="url(#pabee9398c8)">
     <use xlink:href="#m5ad02da303" x="111.927273" y="151.985913" style="stroke: #000000; stroke-width: 2"/>
    </g>
   </g>
   <g id="line2d_15">
    <g clip-path="url(#pabee9398c8)">
     <use xlink:href="#m5ad02da303" x="111.927273" y="139.047838" style="stroke: #000000; stroke-width: 2"/>
    </g>
   </g>
   <g id="line2d_16">
    <defs>
     <path id="mdacbd1e6e0" d="M 0 4 
C 1.060812 4 2.078319 3.578535 2.828427 2.828427 
C 3.578535 2.078319 4 1.060812 4 0 
C 4 -1.060812 3.578535 -2.078319 2.828427 -2.828427 
C 2.078319 -3.578535 1.060812 -4 0 -4 
C -1.060812 -4 -2.078319 -3.578535 -2.828427 -2.828427 
C -3.578535 -2.078319 -4 -1.060812 -4 0 
C -4 1.060812 -3.578535 2.078319 -2.828427 2.828427 
C -2.078319 3.578535 -1.060812 4 0 4 
z
" style="stroke: #000000"/>
    </defs>
    <g clip-path="url(#pabee9398c8)">
     <use xlink:href="#mdacbd1e6e0" x="46.472727" y="123.792773" style="stroke: #000000"/>
    </g>
   </g>
   <g id="line2d_17">
    <g clip-path="url(#pabee9398c8)">
     <use xlink:href="#mdacbd1e6e0" x="111.927273" y="145.516875" style="stroke: #000000"/>
    </g>
   </g>
  </g>
 </g>
 <defs>
  <clipPath id="pabee9398c8">
   <rect x="21.6" y="16.2" width="115.2" height="275.4"/>
  </clipPath>
 </defs>
</svg>
