<?xml version="1.0" encoding="utf-8" standalone="no"?>
<!DOCTYPE svg PUBLIC "-//W3C//DTD SVG 1.1//EN"
  "http://www.w3.org/Graphics/SVG/1.1/DTD/svg11.dtd">
<svg xmlns:xlink="http://www.w3.org/1999/xlink" width="144pt" height="324pt" viewBox="0 0 144 324" xmlns="http://www.w3.org/2000/svg" version="1.1">
 <metadata>
  <rdf:RDF xmlns:dc="http://purl.org/dc/elements/1.1/" xmlns:cc="http://creativecommons.org/ns#" xmlns:rdf="http://www.w3.org/1999/02/22-rdf-syntax-ns#">
   <cc:Work>
    <dc:type rdf:resource="http://purl.org/dc/dcmitype/StillImage"/>
    <dc:date>2025-12-05T16:39:43.623061</dc:date>
    <dc:format>image/svg+xml</dc:format>
    <dc:creator>
     <cc:Agent>
      <dc:title>Matplotlib v3.10.0, https://matplotlib.org/</dc:title>
     </cc:Agent>
    </dc:creator>
   </cc:Work>
  </rdf:RDF>
 </metadata>
 <defs>
  <style type="text/css">*{stroke-linejoin: round; stroke-linecap: butt}</style>
 </defs>
 <g id="figure_1">
  <g id="patch_1">
   <path d="M 0 324 
L 144 324 
L 144 0 
L 0 0 
z
" style="fill: #ffffff"/>
  </g>
  <g id="axes_1">
   <g id="patch_2">
    <path d="M 21.6 291.6 
L 136.8 291.6 
L 136.8 16.2 
L 21.6 16.2 
z
" style="fill: #ffffff"/>
   </g>
   <g id="FillBetweenPolyCollection_1">
    <path d="M 47.411093 209.640858 
L 45.534362 209.640858 
L 45.49375 208.53431 
L 45.464152 207.427763 
L 45.445181 206.321215 
L 45.435694 205.214668 
L 45.433896 204.10812 
L 45.437512 203.001573 
L 45.443995 201.895026 
L 45.450756 200.788478 
L 45.455382 199.681931 
L 45.45583 198.575383 
L 45.450565 197.468836 
L 45.438656 196.362288 
L 45.419801 195.255741 
L 45.394307 194.149194 
L 45.363018 193.042646 
L 45.3272 191.936099 
L 45.288402 190.829551 
L 45.248287 189.723004 
L 45.208457 188.616456 
L 45.170274 187.509909 
L 45.134692 186.403361 
L 45.102116 185.296814 
L 45.072296 184.190267 
L 45.044273 183.083719 
L 45.016379 181.977172 
L 44.986287 180.870624 
L 44.951119 179.764077 
L 44.907574 178.657529 
L 44.852085 177.550982 
L 44.780956 176.444435 
L 44.690502 175.337887 
L 44.57714 174.23134 
L 44.437459 173.124792 
L 44.268268 172.018245 
L 44.066613 170.911697 
L 43.829806 169.80515 
L 43.555456 168.698603 
L 43.241509 167.592055 
L 42.886321 166.485508 
L 42.48874 165.37896 
L 42.048199 164.272413 
L 41.564809 163.165865 
L 41.039435 162.059318 
L 40.473757 160.95277 
L 39.870283 159.846223 
L 39.232333 158.739676 
L 38.563967 157.633128 
L 37.869868 156.526581 
L 37.155191 155.420033 
L 36.425373 154.313486 
L 35.685929 153.206938 
L 34.942264 152.100391 
L 34.199518 150.993844 
L 33.462475 149.887296 
L 32.735569 148.780749 
L 32.022994 147.674201 
L 31.328922 146.567654 
L 30.657809 145.461106 
L 30.014741 144.354559 
L 29.405776 143.248011 
L 28.83819 142.141464 
L 28.320579 141.034917 
L 27.862746 139.928369 
L 27.47535 138.821822 
L 27.169327 137.715274 
L 26.955127 136.608727 
L 26.841844 135.502179 
L 26.836364 134.395632 
L 26.942625 133.289085 
L 27.161122 132.182537 
L 27.488708 131.07599 
L 27.918738 129.969442 
L 28.44154 128.862895 
L 29.045133 127.756347 
L 29.716117 126.6498 
L 30.440591 125.543253 
L 31.205004 124.436705 
L 31.996829 123.330158 
L 32.805011 122.22361 
L 33.620164 121.117063 
L 34.434541 120.010515 
L 35.241827 118.903968 
L 36.036838 117.79742 
L 36.815183 116.690873 
L 37.572971 115.584326 
L 38.306605 114.477778 
L 39.01268 113.371231 
L 39.687984 112.264683 
L 40.329594 111.158136 
L 40.935005 110.051588 
L 41.502284 108.945041 
L 42.03019 107.838494 
L 42.518251 106.731946 
L 42.966765 105.625399 
L 43.376744 104.518851 
L 43.749795 103.412304 
L 44.087965 102.305756 
L 44.393562 101.199209 
L 44.668992 100.092662 
L 48.276463 100.092662 
L 48.276463 100.092662 
L 48.551892 101.199209 
L 48.857489 102.305756 
L 49.195659 103.412304 
L 49.568711 104.518851 
L 49.97869 105.625399 
L 50.427204 106.731946 
L 50.915264 107.838494 
L 51.443171 108.945041 
L 52.01045 110.051588 
L 52.615861 111.158136 
L 53.25747 112.264683 
L 53.932775 113.371231 
L 54.638849 114.477778 
L 55.372483 115.584326 
L 56.130272 116.690873 
L 56.908616 117.79742 
L 57.703627 118.903968 
L 58.510914 120.010515 
L 59.32529 121.117063 
L 60.140444 122.22361 
L 60.948626 123.330158 
L 61.740451 124.436705 
L 62.504863 125.543253 
L 63.229337 126.6498 
L 63.900321 127.756347 
L 64.503914 128.862895 
L 65.026716 129.969442 
L 65.456747 131.07599 
L 65.784333 132.182537 
L 66.00283 133.289085 
L 66.109091 134.395632 
L 66.10361 135.502179 
L 65.990328 136.608727 
L 65.776127 137.715274 
L 65.470105 138.821822 
L 65.082709 139.928369 
L 64.624875 141.034917 
L 64.107264 142.141464 
L 63.539679 143.248011 
L 62.930713 144.354559 
L 62.287646 145.461106 
L 61.616532 146.567654 
L 60.922461 147.674201 
L 60.209886 148.780749 
L 59.48298 149.887296 
L 58.745937 150.993844 
L 58.00319 152.100391 
L 57.259526 153.206938 
L 56.520082 154.313486 
L 55.790263 155.420033 
L 55.075587 156.526581 
L 54.381488 157.633128 
L 53.713121 158.739676 
L 53.075171 159.846223 
L 52.471698 160.95277 
L 51.90602 162.059318 
L 51.380646 163.165865 
L 50.897255 164.272413 
L 50.456714 165.37896 
L 50.059134 166.485508 
L 49.703946 167.592055 
L 49.389999 168.698603 
L 49.115648 169.80515 
L 48.878842 170.911697 
L 48.677187 172.018245 
L 48.507995 173.124792 
L 48.368315 174.23134 
L 48.254952 175.337887 
L 48.164498 176.444435 
L 48.09337 177.550982 
L 48.03788 178.657529 
L 47.994336 179.764077 
L 47.959168 180.870624 
L 47.929076 181.977172 
L 47.901181 183.083719 
L 47.873158 184.190267 
L 47.843339 185.296814 
L 47.810763 186.403361 
L 47.775181 187.509909 
L 47.736998 188.616456 
L 47.697168 189.723004 
L 47.657053 190.829551 
L 47.618255 191.936099 
L 47.582437 193.042646 
L 47.551148 194.149194 
L 47.525654 195.255741 
L 47.506799 196.362288 
L 47.494889 197.468836 
L 47.489625 198.575383 
L 47.490072 199.681931 
L 47.494698 200.788478 
L 47.501459 201.895026 
L 47.507942 203.001573 
L 47.511558 204.10812 
L 47.509761 205.214668 
L 47.500274 206.321215 
L 47.481303 207.427763 
L 47.451704 208.53431 
L 47.411093 209.640858 
L 47.411093 209.640858 
z
" clip-path="url(#pf43902dd9b)" style="fill: none; stroke: #000000; stroke-opacity: 0.3"/>
   </g>
   <g id="FillBetweenPolyCollection_2">
    <path d="M 50.523289 171.355896 
L 42.422165 171.355896 
L 42.180368 170.67414 
L 41.944069 169.992384 
L 41.714245 169.310627 
L 41.491538 168.628871 
L 41.276225 167.947115 
L 41.068218 167.265359 
L 40.867072 166.583602 
L 40.67201 165.901846 
L 40.481963 165.22009 
L 40.295617 164.538334 
L 40.111473 163.856577 
L 39.927909 163.174821 
L 39.743241 162.493065 
L 39.555792 161.811309 
L 39.363941 161.129552 
L 39.166179 160.447796 
L 38.961144 159.76604 
L 38.747659 159.084284 
L 38.524742 158.402527 
L 38.291625 157.720771 
L 38.047751 157.039015 
L 37.792768 156.357259 
L 37.526525 155.675502 
L 37.249051 154.993746 
L 36.960548 154.31199 
L 36.661375 153.630234 
L 36.352037 152.948477 
L 36.033175 152.266721 
L 35.705561 151.584965 
L 35.370085 150.903209 
L 35.027756 150.221452 
L 34.679682 149.539696 
L 34.327065 148.85794 
L 33.971178 148.176184 
L 33.613339 147.494427 
L 33.254886 146.812671 
L 32.897136 146.130915 
L 32.54135 145.449159 
L 32.188693 144.767402 
L 31.840201 144.085646 
L 31.496749 143.40389 
L 31.15904 142.722134 
L 30.827596 142.040377 
L 30.50278 141.358621 
L 30.184831 140.676865 
L 29.873912 139.995109 
L 29.57019 139.313352 
L 29.273914 138.631596 
L 28.985515 137.94984 
L 28.705698 137.268084 
L 28.435536 136.586327 
L 28.176541 135.904571 
L 27.930728 135.222815 
L 27.700637 134.541059 
L 27.489332 133.859302 
L 27.300359 133.177546 
L 27.137675 132.49579 
L 27.005534 131.814034 
L 26.908353 131.132277 
L 26.850549 130.450521 
L 26.836364 129.768765 
L 26.869684 129.087009 
L 26.953867 128.405252 
L 27.091584 127.723496 
L 27.28468 127.04174 
L 27.534071 126.359983 
L 27.839675 125.678227 
L 28.200387 124.996471 
L 28.614084 124.314715 
L 29.077679 123.632958 
L 29.587206 122.951202 
L 30.137935 122.269446 
L 30.724509 121.58769 
L 31.341101 120.905933 
L 31.981576 120.224177 
L 32.639658 119.542421 
L 33.309086 118.860665 
L 33.983765 118.178908 
L 34.657897 117.497152 
L 35.326094 116.815396 
L 35.98347 116.13364 
L 36.625703 115.451883 
L 37.249088 114.770127 
L 37.850554 114.088371 
L 38.427669 113.406615 
L 38.978625 112.724858 
L 39.502203 112.043102 
L 39.997737 111.361346 
L 40.465052 110.67959 
L 40.904411 109.997833 
L 41.316445 109.316077 
L 41.702087 108.634321 
L 42.062506 107.952565 
L 42.39904 107.270808 
L 42.713134 106.589052 
L 43.006289 105.907296 
L 43.280003 105.22554 
L 43.535735 104.543783 
L 43.774866 103.862027 
L 49.170589 103.862027 
L 49.170589 103.862027 
L 49.40972 104.543783 
L 49.665452 105.22554 
L 49.939166 105.907296 
L 50.23232 106.589052 
L 50.546415 107.270808 
L 50.882948 107.952565 
L 51.243367 108.634321 
L 51.629009 109.316077 
L 52.041043 109.997833 
L 52.480402 110.67959 
L 52.947718 111.361346 
L 53.443252 112.043102 
L 53.96683 112.724858 
L 54.517785 113.406615 
L 55.0949 114.088371 
L 55.696366 114.770127 
L 56.319751 115.451883 
L 56.961985 116.13364 
L 57.61936 116.815396 
L 58.287558 117.497152 
L 58.96169 118.178908 
L 59.636369 118.860665 
L 60.305797 119.542421 
L 60.963878 120.224177 
L 61.604354 120.905933 
L 62.220946 121.58769 
L 62.80752 122.269446 
L 63.358249 122.951202 
L 63.867776 123.632958 
L 64.331371 124.314715 
L 64.745068 124.996471 
L 65.105779 125.678227 
L 65.411384 126.359983 
L 65.660775 127.04174 
L 65.85387 127.723496 
L 65.991587 128.405252 
L 66.075771 129.087009 
L 66.109091 129.768765 
L 66.094905 130.450521 
L 66.037101 131.132277 
L 65.939921 131.814034 
L 65.80778 132.49579 
L 65.645095 133.177546 
L 65.456123 133.859302 
L 65.244817 134.541059 
L 65.014726 135.222815 
L 64.768913 135.904571 
L 64.509919 136.586327 
L 64.239756 137.268084 
L 63.959939 137.94984 
L 63.67154 138.631596 
L 63.375264 139.313352 
L 63.071542 139.995109 
L 62.760624 140.676865 
L 62.442674 141.358621 
L 62.117859 142.040377 
L 61.786415 142.722134 
L 61.448705 143.40389 
L 61.105253 144.085646 
L 60.756761 144.767402 
L 60.404105 145.449159 
L 60.048319 146.130915 
L 59.690569 146.812671 
L 59.332115 147.494427 
L 58.974277 148.176184 
L 58.61839 148.85794 
L 58.265773 149.539696 
L 57.917699 150.221452 
L 57.575369 150.903209 
L 57.239894 151.584965 
L 56.912279 152.266721 
L 56.593418 152.948477 
L 56.284079 153.630234 
L 55.984906 154.31199 
L 55.696403 154.993746 
L 55.418929 155.675502 
L 55.152686 156.357259 
L 54.897704 157.039015 
L 54.653829 157.720771 
L 54.420712 158.402527 
L 54.197796 159.084284 
L 53.98431 159.76604 
L 53.779276 160.447796 
L 53.581514 161.129552 
L 53.389663 161.811309 
L 53.202213 162.493065 
L 53.017546 163.174821 
L 52.833981 163.856577 
L 52.649837 164.538334 
L 52.463491 165.22009 
L 52.273444 165.901846 
L 52.078383 166.583602 
L 51.877237 167.265359 
L 51.66923 167.947115 
L 51.453917 168.628871 
L 51.231209 169.310627 
L 51.001386 169.992384 
L 50.765086 170.67414 
L 50.523289 171.355896 
L 50.523289 171.355896 
z
" clip-path="url(#pf43902dd9b)" style="fill: none; stroke: #000000; stroke-opacity: 0.3"/>
   </g>
   <g id="FillBetweenPolyCollection_3">
    <path d="M 58.5372 150.250079 
L 34.408255 150.250079 
L 33.705727 149.422612 
L 33.020544 148.595145 
L 32.357659 147.767678 
L 31.721637 146.940211 
L 31.116579 146.112743 
L 30.546052 145.285276 
L 30.01304 144.457809 
L 29.519916 143.630342 
L 29.068428 142.802874 
L 28.659711 141.975407 
L 28.29431 141.14794 
L 27.97223 140.320473 
L 27.692995 139.493006 
L 27.455725 138.665538 
L 27.259226 137.838071 
L 27.10208 137.010604 
L 26.982747 136.183137 
L 26.899659 135.35567 
L 26.851316 134.528202 
L 26.836364 133.700735 
L 26.853666 132.873268 
L 26.902353 132.045801 
L 26.981854 131.218333 
L 27.091907 130.390866 
L 27.232545 129.563399 
L 27.404061 128.735932 
L 27.606955 127.908465 
L 27.841862 127.080997 
L 28.10947 126.25353 
L 28.410424 125.426063 
L 28.745235 124.598596 
L 29.114186 123.771129 
L 29.517249 122.943661 
L 29.95401 122.116194 
L 30.423615 121.288727 
L 30.924735 120.46126 
L 31.455543 119.633792 
L 32.013724 118.806325 
L 32.596497 117.978858 
L 33.200659 117.151391 
L 33.82264 116.323924 
L 34.458579 115.496456 
L 35.104401 114.668989 
L 35.755903 113.841522 
L 36.408837 113.014055 
L 37.059 112.186588 
L 37.702304 111.35912 
L 38.334859 110.531653 
L 38.953026 109.704186 
L 39.553472 108.876719 
L 40.133214 108.049251 
L 40.689645 107.221784 
L 41.220558 106.394317 
L 41.72415 105.56685 
L 42.199028 104.739383 
L 42.644195 103.911915 
L 43.059039 103.084448 
L 43.443306 102.256981 
L 43.797076 101.429514 
L 44.120732 100.602047 
L 44.41492 99.774579 
L 44.680513 98.947112 
L 44.918575 98.119645 
L 45.130315 97.292178 
L 45.317054 96.46471 
L 45.48018 95.637243 
L 45.621118 94.809776 
L 45.741291 93.982309 
L 45.842098 93.154842 
L 45.924883 92.327374 
L 45.99092 91.499907 
L 46.041398 90.67244 
L 46.077413 89.844973 
L 46.099968 89.017506 
L 46.109975 88.190038 
L 46.108269 87.362571 
L 46.095615 86.535104 
L 46.072736 85.707637 
L 46.040325 84.880169 
L 45.999077 84.052702 
L 45.949705 83.225235 
L 45.89297 82.397768 
L 45.829697 81.570301 
L 45.760791 80.742833 
L 45.687254 79.915366 
L 45.610186 79.087899 
L 45.53079 78.260432 
L 45.450358 77.432965 
L 45.370258 76.605497 
L 45.291918 75.77803 
L 45.216788 74.950563 
L 45.146314 74.123096 
L 45.0819 73.295628 
L 45.024866 72.468161 
L 44.976414 71.640694 
L 44.937583 70.813227 
L 44.909226 69.98576 
L 44.891971 69.158292 
L 44.886208 68.330825 
L 48.059247 68.330825 
L 48.059247 68.330825 
L 48.053484 69.158292 
L 48.036229 69.98576 
L 48.007871 70.813227 
L 47.969041 71.640694 
L 47.920588 72.468161 
L 47.863555 73.295628 
L 47.799141 74.123096 
L 47.728667 74.950563 
L 47.653537 75.77803 
L 47.575196 76.605497 
L 47.495097 77.432965 
L 47.414664 78.260432 
L 47.335268 79.087899 
L 47.258201 79.915366 
L 47.184664 80.742833 
L 47.115758 81.570301 
L 47.052484 82.397768 
L 46.995749 83.225235 
L 46.946378 84.052702 
L 46.905129 84.880169 
L 46.872719 85.707637 
L 46.849839 86.535104 
L 46.837186 87.362571 
L 46.835479 88.190038 
L 46.845487 89.017506 
L 46.868042 89.844973 
L 46.904057 90.67244 
L 46.954534 91.499907 
L 47.020571 92.327374 
L 47.103356 93.154842 
L 47.204163 93.982309 
L 47.324337 94.809776 
L 47.465274 95.637243 
L 47.6284 96.46471 
L 47.815139 97.292178 
L 48.02688 98.119645 
L 48.264941 98.947112 
L 48.530535 99.774579 
L 48.824722 100.602047 
L 49.148378 101.429514 
L 49.502149 102.256981 
L 49.886416 103.084448 
L 50.301259 103.911915 
L 50.746426 104.739383 
L 51.221304 105.56685 
L 51.724897 106.394317 
L 52.255809 107.221784 
L 52.812241 108.049251 
L 53.391983 108.876719 
L 53.992429 109.704186 
L 54.610595 110.531653 
L 55.24315 111.35912 
L 55.886455 112.186588 
L 56.536617 113.014055 
L 57.189551 113.841522 
L 57.841053 114.668989 
L 58.486875 115.496456 
L 59.122815 116.323924 
L 59.744796 117.151391 
L 60.348957 117.978858 
L 60.93173 118.806325 
L 61.489911 119.633792 
L 62.02072 120.46126 
L 62.521839 121.288727 
L 62.991445 122.116194 
L 63.428206 122.943661 
L 63.831268 123.771129 
L 64.20022 124.598596 
L 64.535031 125.426063 
L 64.835985 126.25353 
L 65.103592 127.080997 
L 65.3385 127.908465 
L 65.541394 128.735932 
L 65.71291 129.563399 
L 65.853547 130.390866 
L 65.9636 131.218333 
L 66.043102 132.045801 
L 66.091789 132.873268 
L 66.109091 133.700735 
L 66.094139 134.528202 
L 66.045796 135.35567 
L 65.962708 136.183137 
L 65.843374 137.010604 
L 65.686228 137.838071 
L 65.489729 138.665538 
L 65.25246 139.493006 
L 64.973224 140.320473 
L 64.651144 141.14794 
L 64.285743 141.975407 
L 63.877026 142.802874 
L 63.425539 143.630342 
L 62.932415 144.457809 
L 62.399403 145.285276 
L 61.828875 146.112743 
L 61.223817 146.940211 
L 60.587796 147.767678 
L 59.924911 148.595145 
L 59.239728 149.422612 
L 58.5372 150.250079 
L 58.5372 150.250079 
z
" clip-path="url(#pf43902dd9b)" style="fill: none; stroke: #000000; stroke-opacity: 0.3"/>
   </g>
   <g id="FillBetweenPolyCollection_4">
    <path d="M 47.911689 179.515958 
L 45.033766 179.515958 
L 44.871245 178.484976 
L 44.697967 177.453994 
L 44.51356 176.423012 
L 44.317725 175.39203 
L 44.110239 174.361048 
L 43.890928 173.330066 
L 43.659599 172.299084 
L 43.415947 171.268102 
L 43.159438 170.23712 
L 42.889205 169.206138 
L 42.603966 168.175156 
L 42.301996 167.144174 
L 41.981157 166.113192 
L 41.639014 165.082209 
L 41.273013 164.051227 
L 40.880715 163.020245 
L 40.460058 161.989263 
L 40.009607 160.958281 
L 39.528778 159.927299 
L 39.017974 158.896317 
L 38.478643 157.865335 
L 37.91324 156.834353 
L 37.325089 155.803371 
L 36.718191 154.772389 
L 36.09698 153.741407 
L 35.466079 152.710425 
L 34.830085 151.679443 
L 34.193398 150.64846 
L 33.56013 149.617478 
L 32.934076 148.586496 
L 32.318751 147.555514 
L 31.717472 146.524532 
L 31.133463 145.49355 
L 30.569965 144.462568 
L 30.030328 143.431586 
L 29.518074 142.400604 
L 29.036943 141.369622 
L 28.590905 140.33864 
L 28.184167 139.307658 
L 27.821181 138.276676 
L 27.506648 137.245694 
L 27.245534 136.214711 
L 27.043081 135.183729 
L 26.90479 134.152747 
L 26.836364 133.121765 
L 26.843581 132.090783 
L 26.93208 131.059801 
L 27.107053 130.028819 
L 27.372856 128.997837 
L 27.732562 127.966855 
L 28.187492 126.935873 
L 28.736793 125.904891 
L 29.377101 124.873909 
L 30.102352 123.842927 
L 30.90378 122.811945 
L 31.770113 121.780962 
L 32.687968 120.74998 
L 33.64241 119.718998 
L 34.617633 118.688016 
L 35.59769 117.657034 
L 36.567212 116.626052 
L 37.512052 115.59507 
L 38.419792 114.564088 
L 39.280103 113.533106 
L 40.084916 112.502124 
L 40.828443 111.471142 
L 41.507049 110.44016 
L 42.11903 109.409178 
L 42.66432 108.378196 
L 43.144191 107.347213 
L 43.560951 106.316231 
L 43.917694 105.285249 
L 44.218087 104.254267 
L 44.466218 103.223285 
L 44.66648 102.192303 
L 44.823492 101.161321 
L 44.942035 100.130339 
L 45.026991 99.099357 
L 45.083278 98.068375 
L 45.115773 97.037393 
L 45.129222 96.006411 
L 45.128152 94.975429 
L 45.116776 93.944447 
L 45.098918 92.913465 
L 45.077953 91.882482 
L 45.056775 90.8515 
L 45.037789 89.820518 
L 45.02293 88.789536 
L 45.013707 87.758554 
L 45.011254 86.727572 
L 45.016393 85.69659 
L 45.029683 84.665608 
L 45.051476 83.634626 
L 45.081934 82.603644 
L 45.121052 81.572662 
L 45.168652 80.54168 
L 45.224369 79.510698 
L 45.287636 78.479716 
L 45.357668 77.448733 
L 47.587786 77.448733 
L 47.587786 77.448733 
L 47.657819 78.479716 
L 47.721086 79.510698 
L 47.776803 80.54168 
L 47.824403 81.572662 
L 47.863521 82.603644 
L 47.893979 83.634626 
L 47.915771 84.665608 
L 47.929062 85.69659 
L 47.9342 86.727572 
L 47.931747 87.758554 
L 47.922524 88.789536 
L 47.907665 89.820518 
L 47.888679 90.8515 
L 47.867501 91.882482 
L 47.846537 92.913465 
L 47.828679 93.944447 
L 47.817303 94.975429 
L 47.816232 96.006411 
L 47.829682 97.037393 
L 47.862177 98.068375 
L 47.918464 99.099357 
L 48.00342 100.130339 
L 48.121963 101.161321 
L 48.278974 102.192303 
L 48.479236 103.223285 
L 48.727367 104.254267 
L 49.027761 105.285249 
L 49.384504 106.316231 
L 49.801264 107.347213 
L 50.281134 108.378196 
L 50.826425 109.409178 
L 51.438405 110.44016 
L 52.117012 111.471142 
L 52.860538 112.502124 
L 53.665351 113.533106 
L 54.525662 114.564088 
L 55.433403 115.59507 
L 56.378243 116.626052 
L 57.347765 117.657034 
L 58.327822 118.688016 
L 59.303044 119.718998 
L 60.257487 120.74998 
L 61.175341 121.780962 
L 62.041675 122.811945 
L 62.843103 123.842927 
L 63.568354 124.873909 
L 64.208661 125.904891 
L 64.757962 126.935873 
L 65.212892 127.966855 
L 65.572598 128.997837 
L 65.838402 130.028819 
L 66.013375 131.059801 
L 66.101874 132.090783 
L 66.109091 133.121765 
L 66.040665 134.152747 
L 65.902374 135.183729 
L 65.699921 136.214711 
L 65.438807 137.245694 
L 65.124274 138.276676 
L 64.761287 139.307658 
L 64.35455 140.33864 
L 63.908512 141.369622 
L 63.42738 142.400604 
L 62.915127 143.431586 
L 62.375489 144.462568 
L 61.811992 145.49355 
L 61.227983 146.524532 
L 60.626703 147.555514 
L 60.011378 148.586496 
L 59.385325 149.617478 
L 58.752057 150.64846 
L 58.11537 151.679443 
L 57.479375 152.710425 
L 56.848475 153.741407 
L 56.227264 154.772389 
L 55.620366 155.803371 
L 55.032215 156.834353 
L 54.466811 157.865335 
L 53.92748 158.896317 
L 53.416676 159.927299 
L 52.935847 160.958281 
L 52.485397 161.989263 
L 52.064739 163.020245 
L 51.672441 164.051227 
L 51.306441 165.082209 
L 50.964298 166.113192 
L 50.643459 167.144174 
L 50.341488 168.175156 
L 50.05625 169.206138 
L 49.786017 170.23712 
L 49.529508 171.268102 
L 49.285855 172.299084 
L 49.054527 173.330066 
L 48.835216 174.361048 
L 48.62773 175.39203 
L 48.431894 176.423012 
L 48.247487 177.453994 
L 48.074209 178.484976 
L 47.911689 179.515958 
L 47.911689 179.515958 
z
" clip-path="url(#pf43902dd9b)" style="fill: none; stroke: #000000; stroke-opacity: 0.3"/>
   </g>
   <g id="FillBetweenPolyCollection_5">
    <path d="M 49.763685 181.860561 
L 43.181769 181.860561 
L 43.034816 181.128594 
L 42.884888 180.396626 
L 42.731646 179.664659 
L 42.574733 178.932691 
L 42.413796 178.200724 
L 42.248496 177.468757 
L 42.078524 176.736789 
L 41.903624 176.004822 
L 41.723599 175.272855 
L 41.538331 174.540887 
L 41.347792 173.80892 
L 41.152049 173.076953 
L 40.951274 172.344985 
L 40.745746 171.613018 
L 40.535848 170.88105 
L 40.322064 170.149083 
L 40.104971 169.417116 
L 39.885225 168.685148 
L 39.663549 167.953181 
L 39.440713 167.221214 
L 39.217512 166.489246 
L 38.99475 165.757279 
L 38.773212 165.025312 
L 38.55364 164.293344 
L 38.336713 163.561377 
L 38.123025 162.82941 
L 37.91306 162.097442 
L 37.70718 161.365475 
L 37.505604 160.633507 
L 37.308403 159.90154 
L 37.115483 159.169573 
L 36.926591 158.437605 
L 36.741305 157.705638 
L 36.559047 156.973671 
L 36.379087 156.241703 
L 36.200553 155.509736 
L 36.022455 154.777769 
L 35.843697 154.045801 
L 35.663103 153.313834 
L 35.479442 152.581867 
L 35.291454 151.849899 
L 35.097879 151.117932 
L 34.897487 150.385964 
L 34.689109 149.653997 
L 34.471664 148.92203 
L 34.244191 148.190062 
L 34.005877 147.458095 
L 33.75608 146.726128 
L 33.494361 145.99416 
L 33.220501 145.262193 
L 32.934521 144.530226 
L 32.636702 143.798258 
L 32.327596 143.066291 
L 32.008035 142.334324 
L 31.67914 141.602356 
L 31.34232 140.870389 
L 30.99927 140.138421 
L 30.651963 139.406454 
L 30.302639 138.674487 
L 29.953788 137.942519 
L 29.608125 137.210552 
L 29.268568 136.478585 
L 28.938202 135.746617 
L 28.620245 135.01465 
L 28.318006 134.282683 
L 28.034845 133.550715 
L 27.77412 132.818748 
L 27.539141 132.08678 
L 27.333119 131.354813 
L 27.159114 130.622846 
L 27.019983 129.890878 
L 26.918333 129.158911 
L 26.856471 128.426944 
L 26.836364 127.694976 
L 26.859599 126.963009 
L 26.927355 126.231042 
L 27.040373 125.499074 
L 27.198942 124.767107 
L 27.402888 124.03514 
L 27.651574 123.303172 
L 27.943909 122.571205 
L 28.27836 121.839237 
L 28.65298 121.10727 
L 29.065438 120.375303 
L 29.513057 119.643335 
L 29.992858 118.911368 
L 30.501608 118.179401 
L 31.035869 117.447433 
L 31.592055 116.715466 
L 32.166485 115.983499 
L 32.755435 115.251531 
L 33.355188 114.519564 
L 33.962087 113.787597 
L 34.572575 113.055629 
L 35.18324 112.323662 
L 35.790846 111.591694 
L 36.392362 110.859727 
L 36.984991 110.12776 
L 37.566183 109.395792 
L 55.379272 109.395792 
L 55.379272 109.395792 
L 55.960463 110.12776 
L 56.553092 110.859727 
L 57.154609 111.591694 
L 57.762214 112.323662 
L 58.372879 113.055629 
L 58.983368 113.787597 
L 59.590266 114.519564 
L 60.19002 115.251531 
L 60.778969 115.983499 
L 61.353399 116.715466 
L 61.909586 117.447433 
L 62.443847 118.179401 
L 62.952596 118.911368 
L 63.432397 119.643335 
L 63.880016 120.375303 
L 64.292475 121.10727 
L 64.667095 121.839237 
L 65.001546 122.571205 
L 65.29388 123.303172 
L 65.542567 124.03514 
L 65.746513 124.767107 
L 65.905081 125.499074 
L 66.018099 126.231042 
L 66.085855 126.963009 
L 66.109091 127.694976 
L 66.088984 128.426944 
L 66.027121 129.158911 
L 65.925471 129.890878 
L 65.78634 130.622846 
L 65.612335 131.354813 
L 65.406314 132.08678 
L 65.171335 132.818748 
L 64.910609 133.550715 
L 64.627448 134.282683 
L 64.32521 135.01465 
L 64.007253 135.746617 
L 63.676887 136.478585 
L 63.33733 137.210552 
L 62.991667 137.942519 
L 62.642816 138.674487 
L 62.293492 139.406454 
L 61.946185 140.138421 
L 61.603134 140.870389 
L 61.266314 141.602356 
L 60.937419 142.334324 
L 60.617858 143.066291 
L 60.308752 143.798258 
L 60.010933 144.530226 
L 59.724953 145.262193 
L 59.451093 145.99416 
L 59.189374 146.726128 
L 58.939578 147.458095 
L 58.701263 148.190062 
L 58.47379 148.92203 
L 58.256345 149.653997 
L 58.047967 150.385964 
L 57.847576 151.117932 
L 57.654001 151.849899 
L 57.466012 152.581867 
L 57.282351 153.313834 
L 57.101757 154.045801 
L 56.922999 154.777769 
L 56.744901 155.509736 
L 56.566368 156.241703 
L 56.386407 156.973671 
L 56.204149 157.705638 
L 56.018864 158.437605 
L 55.829971 159.169573 
L 55.637052 159.90154 
L 55.43985 160.633507 
L 55.238275 161.365475 
L 55.032395 162.097442 
L 54.82243 162.82941 
L 54.608741 163.561377 
L 54.391815 164.293344 
L 54.172243 165.025312 
L 53.950704 165.757279 
L 53.727942 166.489246 
L 53.504742 167.221214 
L 53.281905 167.953181 
L 53.060229 168.685148 
L 52.840483 169.417116 
L 52.62339 170.149083 
L 52.409606 170.88105 
L 52.199708 171.613018 
L 51.99418 172.344985 
L 51.793406 173.076953 
L 51.597663 173.80892 
L 51.407123 174.540887 
L 51.221856 175.272855 
L 51.041831 176.004822 
L 50.86693 176.736789 
L 50.696959 177.468757 
L 50.531658 178.200724 
L 50.370721 178.932691 
L 50.213809 179.664659 
L 50.060566 180.396626 
L 49.910638 181.128594 
L 49.763685 181.860561 
L 49.763685 181.860561 
z
" clip-path="url(#pf43902dd9b)" style="fill: none; stroke: #000000; stroke-opacity: 0.3"/>
   </g>
   <g id="FillBetweenPolyCollection_6">
    <path d="M 48.783453 191.82367 
L 44.162002 191.82367 
L 44.028088 190.876583 
L 43.892187 189.929497 
L 43.753713 188.98241 
L 43.611906 188.035323 
L 43.46585 187.088236 
L 43.314492 186.141149 
L 43.156669 185.194062 
L 42.991134 184.246975 
L 42.816587 183.299889 
L 42.631711 182.352802 
L 42.435198 181.405715 
L 42.225784 180.458628 
L 42.002279 179.511541 
L 41.763589 178.564454 
L 41.508746 177.617367 
L 41.236925 176.67028 
L 40.94747 175.723194 
L 40.639909 174.776107 
L 40.31397 173.82902 
L 39.969605 172.881933 
L 39.606998 171.934846 
L 39.226591 170.987759 
L 38.829092 170.040672 
L 38.415493 169.093586 
L 37.98708 168.146499 
L 37.545445 167.199412 
L 37.092481 166.252325 
L 36.630378 165.305238 
L 36.161607 164.358151 
L 35.68889 163.411064 
L 35.215157 162.463978 
L 34.743494 161.516891 
L 34.277077 160.569804 
L 33.819085 159.622717 
L 33.372623 158.67563 
L 32.94062 157.728543 
L 32.52574 156.781456 
L 32.130288 155.834369 
L 31.75613 154.887283 
L 31.404624 153.940196 
L 31.076574 152.993109 
L 30.772195 152.046022 
L 30.491116 151.098935 
L 30.232401 150.151848 
L 29.9946 149.204761 
L 29.775815 148.257675 
L 29.573802 147.310588 
L 29.386071 146.363501 
L 29.210012 145.416414 
L 29.04302 144.469327 
L 28.882614 143.52224 
L 28.72656 142.575153 
L 28.572974 141.628067 
L 28.420409 140.68098 
L 28.267929 139.733893 
L 28.115154 138.786806 
L 27.962286 137.839719 
L 27.810116 136.892632 
L 27.660001 135.945545 
L 27.513832 134.998458 
L 27.373977 134.051372 
L 27.243218 133.104285 
L 27.12467 132.157198 
L 27.021695 131.210111 
L 26.937815 130.263024 
L 26.876614 129.315937 
L 26.841651 128.36885 
L 26.836364 127.421764 
L 26.863986 126.474677 
L 26.927466 125.52759 
L 27.029395 124.580503 
L 27.17194 123.633416 
L 27.356792 122.686329 
L 27.58512 121.739242 
L 27.857536 120.792155 
L 28.174081 119.845069 
L 28.534205 118.897982 
L 28.93678 117.950895 
L 29.380107 117.003808 
L 29.861948 116.056721 
L 30.379559 115.109634 
L 30.929742 114.162547 
L 31.508895 113.215461 
L 32.113082 112.268374 
L 32.738105 111.321287 
L 33.379571 110.3742 
L 34.03298 109.427113 
L 34.693797 108.480026 
L 35.357534 107.532939 
L 36.019822 106.585853 
L 36.676482 105.638766 
L 37.323586 104.691679 
L 37.957511 103.744592 
L 38.574984 102.797505 
L 39.173112 101.850418 
L 39.749408 100.903331 
L 40.301796 99.956244 
L 40.828617 99.009158 
L 41.328613 98.062071 
L 51.616842 98.062071 
L 51.616842 98.062071 
L 52.116838 99.009158 
L 52.643659 99.956244 
L 53.196047 100.903331 
L 53.772343 101.850418 
L 54.370471 102.797505 
L 54.987944 103.744592 
L 55.621869 104.691679 
L 56.268972 105.638766 
L 56.925632 106.585853 
L 57.58792 107.532939 
L 58.251657 108.480026 
L 58.912474 109.427113 
L 59.565883 110.3742 
L 60.20735 111.321287 
L 60.832372 112.268374 
L 61.43656 113.215461 
L 62.015713 114.162547 
L 62.565895 115.109634 
L 63.083507 116.056721 
L 63.565348 117.003808 
L 64.008675 117.950895 
L 64.411249 118.897982 
L 64.771374 119.845069 
L 65.087918 120.792155 
L 65.360335 121.739242 
L 65.588662 122.686329 
L 65.773514 123.633416 
L 65.91606 124.580503 
L 66.017989 125.52759 
L 66.081469 126.474677 
L 66.109091 127.421764 
L 66.103803 128.36885 
L 66.06884 129.315937 
L 66.00764 130.263024 
L 65.92376 131.210111 
L 65.820785 132.157198 
L 65.702236 133.104285 
L 65.571477 134.051372 
L 65.431623 134.998458 
L 65.285453 135.945545 
L 65.135338 136.892632 
L 64.983168 137.839719 
L 64.830301 138.786806 
L 64.677526 139.733893 
L 64.525046 140.68098 
L 64.372481 141.628067 
L 64.218894 142.575153 
L 64.062841 143.52224 
L 63.902435 144.469327 
L 63.735442 145.416414 
L 63.559384 146.363501 
L 63.371653 147.310588 
L 63.169639 148.257675 
L 62.950855 149.204761 
L 62.713053 150.151848 
L 62.454339 151.098935 
L 62.17326 152.046022 
L 61.868881 152.993109 
L 61.54083 153.940196 
L 61.189325 154.887283 
L 60.815167 155.834369 
L 60.419715 156.781456 
L 60.004834 157.728543 
L 59.572831 158.67563 
L 59.126369 159.622717 
L 58.668378 160.569804 
L 58.20196 161.516891 
L 57.730298 162.463978 
L 57.256565 163.411064 
L 56.783847 164.358151 
L 56.315076 165.305238 
L 55.852973 166.252325 
L 55.400009 167.199412 
L 54.958374 168.146499 
L 54.529962 169.093586 
L 54.116363 170.040672 
L 53.718863 170.987759 
L 53.338456 171.934846 
L 52.97585 172.881933 
L 52.631484 173.82902 
L 52.305546 174.776107 
L 51.997984 175.723194 
L 51.70853 176.67028 
L 51.436709 177.617367 
L 51.181865 178.564454 
L 50.943176 179.511541 
L 50.71967 180.458628 
L 50.510257 181.405715 
L 50.313744 182.352802 
L 50.128867 183.299889 
L 49.954321 184.246975 
L 49.788785 185.194062 
L 49.630962 186.141149 
L 49.479605 187.088236 
L 49.333549 188.035323 
L 49.191742 188.98241 
L 49.053267 189.929497 
L 48.917367 190.876583 
L 48.783453 191.82367 
L 48.783453 191.82367 
z
" clip-path="url(#pf43902dd9b)" style="fill: none; stroke: #000000; stroke-opacity: 0.3"/>
   </g>
   <g id="FillBetweenPolyCollection_7">
    <path d="M 49.072364 211.979959 
L 43.87309 211.979959 
L 43.662344 210.404661 
L 43.449694 208.829363 
L 43.23522 207.254064 
L 43.018494 205.678766 
L 42.798542 204.103468 
L 42.57384 202.52817 
L 42.342346 200.952871 
L 42.101563 199.377573 
L 41.848637 197.802275 
L 41.580483 196.226977 
L 41.293934 194.651679 
L 40.985899 193.07638 
L 40.653525 191.501082 
L 40.294351 189.925784 
L 39.906445 188.350486 
L 39.488509 186.775187 
L 39.039961 185.199889 
L 38.560974 183.624591 
L 38.052486 182.049293 
L 37.516177 180.473995 
L 36.954413 178.898696 
L 36.370185 177.323398 
L 35.767019 175.7481 
L 35.148895 174.172802 
L 34.520157 172.597503 
L 33.88544 171.022205 
L 33.249595 169.446907 
L 32.617634 167.871609 
L 31.994673 166.296311 
L 31.385882 164.721012 
L 30.796445 163.145714 
L 30.231498 161.570416 
L 29.696079 159.995118 
L 29.19505 158.419819 
L 28.733021 156.844521 
L 28.314259 155.269223 
L 27.94259 153.693925 
L 27.621298 152.118627 
L 27.35303 150.543328 
L 27.139707 148.96803 
L 26.982451 147.392732 
L 26.881537 145.817434 
L 26.836364 144.242135 
L 26.845458 142.666837 
L 26.906512 141.091539 
L 27.016446 139.516241 
L 27.171512 137.940943 
L 27.36742 136.365644 
L 27.599497 134.790346 
L 27.862869 133.215048 
L 28.15266 131.63975 
L 28.464205 130.064451 
L 28.793256 128.489153 
L 29.136186 126.913855 
L 29.490163 125.338557 
L 29.853287 123.763259 
L 30.224672 122.18796 
L 30.604472 120.612662 
L 30.993822 119.037364 
L 31.394721 117.462066 
L 31.809829 115.886768 
L 32.242209 114.311469 
L 32.695026 112.736171 
L 33.171221 111.160873 
L 33.673179 109.585575 
L 34.20244 108.010276 
L 34.759446 106.434978 
L 35.343372 104.85968 
L 35.95204 103.284382 
L 36.581924 101.709084 
L 37.22825 100.133785 
L 37.885177 98.558487 
L 38.546047 96.983189 
L 39.203677 95.407891 
L 39.850677 93.832592 
L 40.479765 92.257294 
L 41.084063 90.681996 
L 41.657354 89.106698 
L 42.194288 87.5314 
L 42.690535 85.956101 
L 43.142876 84.380803 
L 43.549241 82.805505 
L 43.908696 81.230207 
L 44.221399 79.654908 
L 44.488508 78.07961 
L 44.712082 76.504312 
L 44.894957 74.929014 
L 45.040614 73.353716 
L 45.153045 71.778417 
L 45.236612 70.203119 
L 45.295905 68.627821 
L 45.335611 67.052523 
L 45.360368 65.477224 
L 45.374644 63.901926 
L 45.382613 62.326628 
L 45.388042 60.75133 
L 45.394204 59.176032 
L 45.403804 57.600733 
L 45.418929 56.025435 
L 47.526526 56.025435 
L 47.526526 56.025435 
L 47.54165 57.600733 
L 47.55125 59.176032 
L 47.557413 60.75133 
L 47.562842 62.326628 
L 47.57081 63.901926 
L 47.585087 65.477224 
L 47.609844 67.052523 
L 47.649549 68.627821 
L 47.708843 70.203119 
L 47.792409 71.778417 
L 47.90484 73.353716 
L 48.050497 74.929014 
L 48.233372 76.504312 
L 48.456946 78.07961 
L 48.724055 79.654908 
L 49.036758 81.230207 
L 49.396214 82.805505 
L 49.802578 84.380803 
L 50.254919 85.956101 
L 50.751166 87.5314 
L 51.2881 89.106698 
L 51.861391 90.681996 
L 52.465689 92.257294 
L 53.094777 93.832592 
L 53.741778 95.407891 
L 54.399408 96.983189 
L 55.060278 98.558487 
L 55.717205 100.133785 
L 56.36353 101.709084 
L 56.993414 103.284382 
L 57.602082 104.85968 
L 58.186009 106.434978 
L 58.743015 108.010276 
L 59.272276 109.585575 
L 59.774234 111.160873 
L 60.250428 112.736171 
L 60.703246 114.311469 
L 61.135626 115.886768 
L 61.550733 117.462066 
L 61.951632 119.037364 
L 62.340983 120.612662 
L 62.720782 122.18796 
L 63.092168 123.763259 
L 63.455291 125.338557 
L 63.809269 126.913855 
L 64.152199 128.489153 
L 64.48125 130.064451 
L 64.792794 131.63975 
L 65.082586 133.215048 
L 65.345958 134.790346 
L 65.578035 136.365644 
L 65.773943 137.940943 
L 65.929008 139.516241 
L 66.038943 141.091539 
L 66.099996 142.666837 
L 66.109091 144.242135 
L 66.063917 145.817434 
L 65.963003 147.392732 
L 65.805748 148.96803 
L 65.592425 150.543328 
L 65.324157 152.118627 
L 65.002865 153.693925 
L 64.631196 155.269223 
L 64.212434 156.844521 
L 63.750405 158.419819 
L 63.249376 159.995118 
L 62.713956 161.570416 
L 62.14901 163.145714 
L 61.559572 164.721012 
L 60.950782 166.296311 
L 60.32782 167.871609 
L 59.695859 169.446907 
L 59.060015 171.022205 
L 58.425298 172.597503 
L 57.79656 174.172802 
L 57.178435 175.7481 
L 56.57527 177.323398 
L 55.991041 178.898696 
L 55.429278 180.473995 
L 54.892968 182.049293 
L 54.384481 183.624591 
L 53.905494 185.199889 
L 53.456946 186.775187 
L 53.03901 188.350486 
L 52.651104 189.925784 
L 52.29193 191.501082 
L 51.959556 193.07638 
L 51.651521 194.651679 
L 51.364971 196.226977 
L 51.096818 197.802275 
L 50.843892 199.377573 
L 50.603109 200.952871 
L 50.371615 202.52817 
L 50.146913 204.103468 
L 49.92696 205.678766 
L 49.710234 207.254064 
L 49.495761 208.829363 
L 49.283111 210.404661 
L 49.072364 211.979959 
L 49.072364 211.979959 
z
" clip-path="url(#pf43902dd9b)" style="fill: none; stroke: #000000; stroke-opacity: 0.3"/>
   </g>
   <g id="FillBetweenPolyCollection_8">
    <path d="M 112.301764 183.146795 
L 111.552781 183.146795 
L 111.543564 182.005332 
L 111.537561 180.863869 
L 111.532575 179.722407 
L 111.525853 178.580944 
L 111.514327 177.439481 
L 111.494891 176.298018 
L 111.464663 175.156555 
L 111.421192 174.015093 
L 111.362573 172.87363 
L 111.28745 171.732167 
L 111.194913 170.590704 
L 111.084326 169.449242 
L 110.955126 168.307779 
L 110.806652 167.166316 
L 110.638076 166.024853 
L 110.448449 164.883391 
L 110.236888 163.741928 
L 110.002864 162.600465 
L 109.746526 161.459002 
L 109.468978 160.317539 
L 109.172421 159.176077 
L 108.860104 158.034614 
L 108.536058 156.893151 
L 108.20466 155.751688 
L 107.870089 154.610226 
L 107.535811 153.468763 
L 107.204177 152.3273 
L 106.876245 151.185837 
L 106.551851 150.044374 
L 106.229904 148.902912 
L 105.908841 147.761449 
L 105.587127 146.619986 
L 105.263684 145.478523 
L 104.938167 144.337061 
L 104.611013 143.195598 
L 104.283272 142.054135 
L 103.956253 140.912672 
L 103.631054 139.771209 
L 103.30806 138.629747 
L 102.986497 137.488284 
L 102.664101 136.346821 
L 102.33696 135.205358 
L 101.999549 134.063896 
L 101.644979 132.922433 
L 101.265449 131.78097 
L 100.852891 130.639507 
L 100.39978 129.498045 
L 99.900054 128.356582 
L 99.350076 127.215119 
L 98.749536 126.073656 
L 98.102169 124.932193 
L 97.416183 123.790731 
L 96.704279 122.649268 
L 95.983211 121.507805 
L 95.272876 120.366342 
L 94.595027 119.22488 
L 93.971739 118.083417 
L 93.423834 116.941954 
L 92.969481 115.800491 
L 92.623139 114.659028 
L 92.394998 113.517566 
L 92.290909 112.376103 
L 92.31277 111.23464 
L 92.459187 110.093177 
L 92.726243 108.951715 
L 93.108153 107.810252 
L 93.597685 106.668789 
L 94.186274 105.527326 
L 94.863876 104.385863 
L 95.618686 103.244401 
L 96.436903 102.102938 
L 97.302719 100.961475 
L 98.198661 99.820012 
L 99.106332 98.67855 
L 100.007502 97.537087 
L 100.885371 96.395624 
L 101.72583 95.254161 
L 102.518467 94.112699 
L 103.25717 92.971236 
L 103.940195 91.829773 
L 104.569717 90.68831 
L 105.150941 89.546847 
L 105.690928 88.405385 
L 106.19733 87.263922 
L 106.677237 86.122459 
L 107.136259 84.980996 
L 107.577977 83.839534 
L 108.003773 82.698071 
L 108.413008 81.556608 
L 108.803494 80.415145 
L 109.172126 79.273682 
L 109.515571 78.13222 
L 109.830902 76.990757 
L 110.116089 75.849294 
L 110.370299 74.707831 
L 110.593971 73.566369 
L 110.788714 72.424906 
L 110.957038 71.283443 
L 111.102012 70.14198 
L 112.752534 70.14198 
L 112.752534 70.14198 
L 112.897508 71.283443 
L 113.065832 72.424906 
L 113.260574 73.566369 
L 113.484247 74.707831 
L 113.738456 75.849294 
L 114.023644 76.990757 
L 114.338974 78.13222 
L 114.682419 79.273682 
L 115.051051 80.415145 
L 115.441538 81.556608 
L 115.850773 82.698071 
L 116.276568 83.839534 
L 116.718287 84.980996 
L 117.177309 86.122459 
L 117.657215 87.263922 
L 118.163618 88.405385 
L 118.703604 89.546847 
L 119.284828 90.68831 
L 119.91435 91.829773 
L 120.597375 92.971236 
L 121.336078 94.112699 
L 122.128716 95.254161 
L 122.969174 96.395624 
L 123.847044 97.537087 
L 124.748213 98.67855 
L 125.655885 99.820012 
L 126.551826 100.961475 
L 127.417642 102.102938 
L 128.23586 103.244401 
L 128.99067 104.385863 
L 129.668272 105.527326 
L 130.256861 106.668789 
L 130.746393 107.810252 
L 131.128303 108.951715 
L 131.395358 110.093177 
L 131.541776 111.23464 
L 131.563636 112.376103 
L 131.459548 113.517566 
L 131.231406 114.659028 
L 130.885065 115.800491 
L 130.430711 116.941954 
L 129.882807 118.083417 
L 129.259519 119.22488 
L 128.58167 120.366342 
L 127.871335 121.507805 
L 127.150266 122.649268 
L 126.438363 123.790731 
L 125.752377 124.932193 
L 125.10501 126.073656 
L 124.504469 127.215119 
L 123.954492 128.356582 
L 123.454766 129.498045 
L 123.001654 130.639507 
L 122.589096 131.78097 
L 122.209566 132.922433 
L 121.854996 134.063896 
L 121.517586 135.205358 
L 121.190445 136.346821 
L 120.868049 137.488284 
L 120.546485 138.629747 
L 120.223492 139.771209 
L 119.898292 140.912672 
L 119.571273 142.054135 
L 119.243532 143.195598 
L 118.916378 144.337061 
L 118.590861 145.478523 
L 118.267419 146.619986 
L 117.945704 147.761449 
L 117.624641 148.902912 
L 117.302694 150.044374 
L 116.9783 151.185837 
L 116.650369 152.3273 
L 116.318735 153.468763 
L 115.984456 154.610226 
L 115.649886 155.751688 
L 115.318487 156.893151 
L 114.994442 158.034614 
L 114.682124 159.176077 
L 114.385567 160.317539 
L 114.108019 161.459002 
L 113.851681 162.600465 
L 113.617658 163.741928 
L 113.406097 164.883391 
L 113.21647 166.024853 
L 113.047893 167.166316 
L 112.89942 168.307779 
L 112.770219 169.449242 
L 112.659633 170.590704 
L 112.567096 171.732167 
L 112.491972 172.87363 
L 112.433353 174.015093 
L 112.389883 175.156555 
L 112.359655 176.298018 
L 112.340219 177.439481 
L 112.328693 178.580944 
L 112.321971 179.722407 
L 112.316985 180.863869 
L 112.310981 182.005332 
L 112.301764 183.146795 
L 112.301764 183.146795 
z
" clip-path="url(#pf43902dd9b)" style="fill: none; stroke: #000000; stroke-opacity: 0.3"/>
   </g>
   <g id="FillBetweenPolyCollection_9">
    <path d="M 113.742014 175.594531 
L 110.112531 175.594531 
L 109.954043 174.693752 
L 109.797384 173.792974 
L 109.643655 172.892195 
L 109.493525 171.991417 
L 109.347164 171.090638 
L 109.204185 170.18986 
L 109.06363 169.289081 
L 108.923969 168.388303 
L 108.783146 167.487525 
L 108.638638 166.586746 
L 108.487546 165.685968 
L 108.326713 164.785189 
L 108.152851 163.884411 
L 107.962684 162.983632 
L 107.753107 162.082854 
L 107.521336 161.182075 
L 107.265064 160.281297 
L 106.982608 159.380518 
L 106.673031 158.47974 
L 106.336249 157.578961 
L 105.973089 156.678183 
L 105.58532 155.777405 
L 105.175618 154.876626 
L 104.747483 153.975848 
L 104.305105 153.075069 
L 103.853166 152.174291 
L 103.396618 151.273512 
L 102.940417 150.372734 
L 102.489265 149.471955 
L 102.04735 148.571177 
L 101.61813 147.670398 
L 101.204159 146.76962 
L 100.806985 145.868841 
L 100.427108 144.968063 
L 100.064022 144.067285 
L 99.716317 143.166506 
L 99.381829 142.265728 
L 99.057846 141.364949 
L 98.741317 140.464171 
L 98.42908 139.563392 
L 98.118075 138.662614 
L 97.805541 137.761835 
L 97.489184 136.861057 
L 97.167312 135.960278 
L 96.838937 135.0595 
L 96.503842 134.158721 
L 96.162614 133.257943 
L 95.816635 132.357165 
L 95.46805 131.456386 
L 95.119685 130.555608 
L 94.774945 129.654829 
L 94.437675 128.754051 
L 94.112002 127.853272 
L 93.802162 126.952494 
L 93.51233 126.051715 
L 93.24645 125.150937 
L 93.0081 124.250158 
L 92.80038 123.34938 
L 92.625842 122.448601 
L 92.486463 121.547823 
L 92.383657 120.647044 
L 92.318321 119.746266 
L 92.290909 118.845488 
L 92.301525 117.944709 
L 92.350017 117.043931 
L 92.436066 116.143152 
L 92.559268 115.242374 
L 92.719185 114.341595 
L 92.915379 113.440817 
L 93.147411 112.540038 
L 93.414818 111.63926 
L 93.717061 110.738481 
L 94.053455 109.837703 
L 94.42309 108.936924 
L 94.824743 108.036146 
L 95.256805 107.135368 
L 95.717227 106.234589 
L 96.203492 105.333811 
L 96.71263 104.433032 
L 97.241273 103.532254 
L 97.785755 102.631475 
L 98.342244 101.730697 
L 98.906908 100.829918 
L 99.476081 99.92914 
L 100.046435 99.028361 
L 100.615118 98.127583 
L 101.179853 97.226804 
L 101.738986 96.326026 
L 102.291472 95.425248 
L 102.836804 94.524469 
L 103.374879 93.623691 
L 103.905844 92.722912 
L 104.429898 91.822134 
L 104.947116 90.921355 
L 105.457275 90.020577 
L 105.959729 89.119798 
L 106.453334 88.21902 
L 106.936429 87.318241 
L 107.406878 86.417463 
L 116.447668 86.417463 
L 116.447668 86.417463 
L 116.918117 87.318241 
L 117.401211 88.21902 
L 117.894817 89.119798 
L 118.397271 90.020577 
L 118.90743 90.921355 
L 119.424647 91.822134 
L 119.948702 92.722912 
L 120.479666 93.623691 
L 121.017742 94.524469 
L 121.563073 95.425248 
L 122.11556 96.326026 
L 122.674693 97.226804 
L 123.239427 98.127583 
L 123.80811 99.028361 
L 124.378464 99.92914 
L 124.947638 100.829918 
L 125.512301 101.730697 
L 126.068791 102.631475 
L 126.613272 103.532254 
L 127.141915 104.433032 
L 127.651053 105.333811 
L 128.137318 106.234589 
L 128.59774 107.135368 
L 129.029803 108.036146 
L 129.431456 108.936924 
L 129.80109 109.837703 
L 130.137485 110.738481 
L 130.439728 111.63926 
L 130.707134 112.540038 
L 130.939166 113.440817 
L 131.13536 114.341595 
L 131.295277 115.242374 
L 131.418479 116.143152 
L 131.504528 117.043931 
L 131.55302 117.944709 
L 131.563636 118.845488 
L 131.536225 119.746266 
L 131.470888 120.647044 
L 131.368082 121.547823 
L 131.228704 122.448601 
L 131.054166 123.34938 
L 130.846446 124.250158 
L 130.608096 125.150937 
L 130.342216 126.051715 
L 130.052383 126.952494 
L 129.742544 127.853272 
L 129.416871 128.754051 
L 129.0796 129.654829 
L 128.734861 130.555608 
L 128.386496 131.456386 
L 128.03791 132.357165 
L 127.691932 133.257943 
L 127.350703 134.158721 
L 127.015609 135.0595 
L 126.687234 135.960278 
L 126.365362 136.861057 
L 126.049005 137.761835 
L 125.736471 138.662614 
L 125.425466 139.563392 
L 125.113228 140.464171 
L 124.796699 141.364949 
L 124.472716 142.265728 
L 124.138229 143.166506 
L 123.790523 144.067285 
L 123.427437 144.968063 
L 123.047561 145.868841 
L 122.650386 146.76962 
L 122.236416 147.670398 
L 121.807196 148.571177 
L 121.365281 149.471955 
L 120.914128 150.372734 
L 120.457928 151.273512 
L 120.001379 152.174291 
L 119.549441 153.075069 
L 119.107062 153.975848 
L 118.678928 154.876626 
L 118.269225 155.777405 
L 117.881456 156.678183 
L 117.518297 157.578961 
L 117.181514 158.47974 
L 116.871938 159.380518 
L 116.589481 160.281297 
L 116.33321 161.182075 
L 116.101438 162.082854 
L 115.891861 162.983632 
L 115.701695 163.884411 
L 115.527832 164.785189 
L 115.367 165.685968 
L 115.215908 166.586746 
L 115.071399 167.487525 
L 114.930576 168.388303 
L 114.790916 169.289081 
L 114.65036 170.18986 
L 114.507382 171.090638 
L 114.36102 171.991417 
L 114.210891 172.892195 
L 114.057161 173.792974 
L 113.900503 174.693752 
L 113.742014 175.594531 
L 113.742014 175.594531 
z
" clip-path="url(#pf43902dd9b)" style="fill: none; stroke: #000000; stroke-opacity: 0.3"/>
   </g>
   <g id="FillBetweenPolyCollection_10">
    <path d="M 112.287111 244.525458 
L 111.567434 244.525458 
L 111.574762 242.466401 
L 111.596125 240.407344 
L 111.628566 238.348287 
L 111.667792 236.289229 
L 111.708862 234.230172 
L 111.746893 232.171115 
L 111.777643 230.112058 
L 111.797885 228.053001 
L 111.8056 225.993944 
L 111.800041 223.934887 
L 111.781744 221.87583 
L 111.752522 219.816773 
L 111.715411 217.757716 
L 111.674501 215.698659 
L 111.634593 213.639602 
L 111.60064 211.580545 
L 111.577041 209.521488 
L 111.56691 207.462431 
L 111.571499 205.403373 
L 111.589916 203.344316 
L 111.619213 201.285259 
L 111.654795 199.226202 
L 111.69105 197.167145 
L 111.722014 195.108088 
L 111.741945 193.049031 
L 111.745747 190.989974 
L 111.729245 188.930917 
L 111.689386 186.87186 
L 111.624427 184.812803 
L 111.534095 182.753746 
L 111.419669 180.694689 
L 111.283832 178.635632 
L 111.130173 176.576575 
L 110.962309 174.517518 
L 110.782715 172.45846 
L 110.591537 170.399403 
L 110.385716 168.340346 
L 110.158738 166.281289 
L 109.90113 164.222232 
L 109.601595 162.163175 
L 109.24842 160.104118 
L 108.830719 158.045061 
L 108.339169 155.986004 
L 107.766151 153.926947 
L 107.105539 151.86789 
L 106.352569 149.808833 
L 105.5042 147.749776 
L 104.560106 145.690719 
L 103.524099 143.631662 
L 102.405479 141.572605 
L 101.219824 139.513547 
L 99.988926 137.45449 
L 98.739993 135.395433 
L 97.504513 133.336376 
L 96.317207 131.277319 
L 95.215244 129.218262 
L 94.237448 127.159205 
L 93.422927 125.100148 
L 92.808498 123.041091 
L 92.424711 120.982034 
L 92.290909 118.922977 
L 92.410463 116.86392 
L 92.767666 114.804863 
L 93.327682 112.745806 
L 94.040271 110.686749 
L 94.847007 108.627691 
L 95.690674 106.568634 
L 96.524761 104.509577 
L 97.320812 102.45052 
L 98.071795 100.391463 
L 98.790668 98.332406 
L 99.504492 96.273349 
L 100.245577 94.214292 
L 101.041873 92.155235 
L 101.908899 90.096178 
L 102.845045 88.037121 
L 103.831136 85.978064 
L 104.834065 83.919007 
L 105.813335 81.85995 
L 106.728763 79.800893 
L 107.547526 77.741836 
L 108.249068 75.682778 
L 108.827073 73.623721 
L 109.288484 71.564664 
L 109.6502 69.505607 
L 109.93449 67.44655 
L 110.164278 65.387493 
L 110.359257 63.328436 
L 110.533478 61.269379 
L 110.694608 59.210322 
L 110.844687 57.151265 
L 110.98194 55.092208 
L 111.103025 53.033151 
L 111.205136 50.974094 
L 111.287468 48.915037 
L 111.351801 46.85598 
L 111.402194 44.796922 
L 111.444013 42.737865 
L 111.482666 40.678808 
L 112.371879 40.678808 
L 112.371879 40.678808 
L 112.410533 42.737865 
L 112.452352 44.796922 
L 112.502744 46.85598 
L 112.567077 48.915037 
L 112.649409 50.974094 
L 112.75152 53.033151 
L 112.872606 55.092208 
L 113.009858 57.151265 
L 113.159937 59.210322 
L 113.321067 61.269379 
L 113.495289 63.328436 
L 113.690268 65.387493 
L 113.920055 67.44655 
L 114.204345 69.505607 
L 114.566061 71.564664 
L 115.027473 73.623721 
L 115.605478 75.682778 
L 116.30702 77.741836 
L 117.125783 79.800893 
L 118.041211 81.85995 
L 119.02048 83.919007 
L 120.02341 85.978064 
L 121.009501 88.037121 
L 121.945646 90.096178 
L 122.812672 92.155235 
L 123.608968 94.214292 
L 124.350054 96.273349 
L 125.063877 98.332406 
L 125.782751 100.391463 
L 126.533734 102.45052 
L 127.329784 104.509577 
L 128.163872 106.568634 
L 129.007538 108.627691 
L 129.814274 110.686749 
L 130.526863 112.745806 
L 131.086879 114.804863 
L 131.444082 116.86392 
L 131.563636 118.922977 
L 131.429835 120.982034 
L 131.046047 123.041091 
L 130.431618 125.100148 
L 129.617097 127.159205 
L 128.639302 129.218262 
L 127.537338 131.277319 
L 126.350032 133.336376 
L 125.114552 135.395433 
L 123.86562 137.45449 
L 122.634721 139.513547 
L 121.449066 141.572605 
L 120.330447 143.631662 
L 119.29444 145.690719 
L 118.350346 147.749776 
L 117.501976 149.808833 
L 116.749006 151.86789 
L 116.088394 153.926947 
L 115.515376 155.986004 
L 115.023827 158.045061 
L 114.606126 160.104118 
L 114.25295 162.163175 
L 113.953415 164.222232 
L 113.695808 166.281289 
L 113.46883 168.340346 
L 113.263009 170.399403 
L 113.071831 172.45846 
L 112.892237 174.517518 
L 112.724373 176.576575 
L 112.570714 178.635632 
L 112.434876 180.694689 
L 112.32045 182.753746 
L 112.230118 184.812803 
L 112.165159 186.87186 
L 112.125301 188.930917 
L 112.108799 190.989974 
L 112.112601 193.049031 
L 112.132532 195.108088 
L 112.163495 197.167145 
L 112.199751 199.226202 
L 112.235333 201.285259 
L 112.264629 203.344316 
L 112.283047 205.403373 
L 112.287636 207.462431 
L 112.277504 209.521488 
L 112.253905 211.580545 
L 112.219953 213.639602 
L 112.180045 215.698659 
L 112.139135 217.757716 
L 112.102023 219.816773 
L 112.072801 221.87583 
L 112.054505 223.934887 
L 112.048945 225.993944 
L 112.05666 228.053001 
L 112.076902 230.112058 
L 112.107652 232.171115 
L 112.145683 234.230172 
L 112.186753 236.289229 
L 112.225979 238.348287 
L 112.258421 240.407344 
L 112.279783 242.466401 
L 112.287111 244.525458 
L 112.287111 244.525458 
z
" clip-path="url(#pf43902dd9b)" style="fill: none; stroke: #000000; stroke-opacity: 0.3"/>
   </g>
   <g id="FillBetweenPolyCollection_11">
    <path d="M 113.011191 202.959737 
L 110.843354 202.959737 
L 110.770035 201.675325 
L 110.701532 200.390914 
L 110.637124 199.106502 
L 110.575616 197.822091 
L 110.515542 196.537679 
L 110.455419 195.253268 
L 110.394023 193.968857 
L 110.330655 192.684445 
L 110.265351 191.400034 
L 110.199005 190.115622 
L 110.133372 188.831211 
L 110.070954 187.546799 
L 110.014765 186.262388 
L 109.967999 184.977976 
L 109.933637 183.693565 
L 109.91404 182.409154 
L 109.910556 181.124742 
L 109.923205 179.840331 
L 109.950456 178.555919 
L 109.98912 177.271508 
L 110.034384 175.987096 
L 110.07996 174.702685 
L 110.118354 173.418274 
L 110.141229 172.133862 
L 110.13983 170.849451 
L 110.105448 169.565039 
L 110.029888 168.280628 
L 109.90589 166.996216 
L 109.727499 165.711805 
L 109.490319 164.427394 
L 109.191651 163.142982 
L 108.830488 161.858571 
L 108.407378 160.574159 
L 107.924167 159.289748 
L 107.383665 158.005336 
L 106.789287 156.720925 
L 106.144719 155.436513 
L 105.453691 154.152102 
L 104.719876 152.867691 
L 103.946965 151.583279 
L 103.1389 150.298868 
L 102.300235 149.014456 
L 101.436561 147.730045 
L 100.554907 146.445633 
L 99.664034 145.161222 
L 98.774527 143.876811 
L 97.898642 142.592399 
L 97.04988 141.307988 
L 96.2423 140.023576 
L 95.489651 138.739165 
L 94.804408 137.454753 
L 94.196826 136.170342 
L 93.674158 134.88593 
L 93.240122 133.601519 
L 92.894719 132.317108 
L 92.634438 131.032696 
L 92.452836 129.748285 
L 92.341447 128.463873 
L 92.290909 127.179462 
L 92.292188 125.89505 
L 92.33773 124.610639 
L 92.422414 123.326228 
L 92.544169 122.041816 
L 92.704163 120.757405 
L 92.906552 119.472993 
L 93.157787 118.188582 
L 93.465588 116.90417 
L 93.837699 115.619759 
L 94.280588 114.335348 
L 94.798278 113.050936 
L 95.391428 111.766525 
L 96.056821 110.482113 
L 96.787292 109.197702 
L 97.572103 107.91329 
L 98.397716 106.628879 
L 99.24884 105.344467 
L 100.109614 104.060056 
L 100.964783 102.775645 
L 101.800708 101.491233 
L 102.606123 100.206822 
L 103.37257 98.92241 
L 104.094488 97.637999 
L 104.76902 96.353587 
L 105.395577 95.069176 
L 105.975283 93.784765 
L 106.51038 92.500353 
L 107.003681 91.215942 
L 107.458142 89.93153 
L 107.876577 88.647119 
L 108.261523 87.362707 
L 108.615219 86.078296 
L 108.939684 84.793885 
L 109.23682 83.509473 
L 109.508515 82.225062 
L 109.756713 80.94065 
L 109.983424 79.656239 
L 110.190695 78.371827 
L 110.380525 77.087416 
L 110.554779 75.803004 
L 113.299767 75.803004 
L 113.299767 75.803004 
L 113.47402 77.087416 
L 113.663851 78.371827 
L 113.871121 79.656239 
L 114.097833 80.94065 
L 114.34603 82.225062 
L 114.617726 83.509473 
L 114.914862 84.793885 
L 115.239327 86.078296 
L 115.593023 87.362707 
L 115.977968 88.647119 
L 116.396404 89.93153 
L 116.850865 91.215942 
L 117.344165 92.500353 
L 117.879262 93.784765 
L 118.458969 95.069176 
L 119.085526 96.353587 
L 119.760057 97.637999 
L 120.481976 98.92241 
L 121.248422 100.206822 
L 122.053838 101.491233 
L 122.889762 102.775645 
L 123.744931 104.060056 
L 124.605706 105.344467 
L 125.456829 106.628879 
L 126.282443 107.91329 
L 127.067254 109.197702 
L 127.797724 110.482113 
L 128.463118 111.766525 
L 129.056268 113.050936 
L 129.573957 114.335348 
L 130.016847 115.619759 
L 130.388957 116.90417 
L 130.696758 118.188582 
L 130.947993 119.472993 
L 131.150382 120.757405 
L 131.310376 122.041816 
L 131.432131 123.326228 
L 131.516816 124.610639 
L 131.562358 125.89505 
L 131.563636 127.179462 
L 131.513099 128.463873 
L 131.401709 129.748285 
L 131.220107 131.032696 
L 130.959826 132.317108 
L 130.614424 133.601519 
L 130.180388 134.88593 
L 129.65772 136.170342 
L 129.050138 137.454753 
L 128.364894 138.739165 
L 127.612246 140.023576 
L 126.804666 141.307988 
L 125.955903 142.592399 
L 125.080019 143.876811 
L 124.190511 145.161222 
L 123.299638 146.445633 
L 122.417985 147.730045 
L 121.554311 149.014456 
L 120.715646 150.298868 
L 119.907581 151.583279 
L 119.13467 152.867691 
L 118.400855 154.152102 
L 117.709826 155.436513 
L 117.065259 156.720925 
L 116.47088 158.005336 
L 115.930379 159.289748 
L 115.447168 160.574159 
L 115.024057 161.858571 
L 114.662894 163.142982 
L 114.364226 164.427394 
L 114.127047 165.711805 
L 113.948656 166.996216 
L 113.824658 168.280628 
L 113.749097 169.565039 
L 113.714716 170.849451 
L 113.713316 172.133862 
L 113.736191 173.418274 
L 113.774585 174.702685 
L 113.820161 175.987096 
L 113.865425 177.271508 
L 113.90409 178.555919 
L 113.93134 179.840331 
L 113.94399 181.124742 
L 113.940506 182.409154 
L 113.920908 183.693565 
L 113.886546 184.977976 
L 113.83978 186.262388 
L 113.783591 187.546799 
L 113.721173 188.831211 
L 113.65554 190.115622 
L 113.589194 191.400034 
L 113.52389 192.684445 
L 113.460522 193.968857 
L 113.399126 195.253268 
L 113.339003 196.537679 
L 113.27893 197.822091 
L 113.217422 199.106502 
L 113.153013 200.390914 
L 113.084511 201.675325 
L 113.011191 202.959737 
L 113.011191 202.959737 
z
" clip-path="url(#pf43902dd9b)" style="fill: none; stroke: #000000; stroke-opacity: 0.3"/>
   </g>
   <g id="FillBetweenPolyCollection_12">
    <path d="M 112.395229 175.240314 
L 111.459316 175.240314 
L 111.465366 173.997857 
L 111.484995 172.755401 
L 111.515346 171.512945 
L 111.55223 170.270488 
L 111.590571 169.028032 
L 111.624918 167.785576 
L 111.649924 166.543119 
L 111.660727 165.300663 
L 111.65319 164.058207 
L 111.624005 162.815751 
L 111.570662 161.573294 
L 111.491326 160.330838 
L 111.384633 159.088382 
L 111.249454 157.845925 
L 111.084639 156.603469 
L 110.888815 155.361013 
L 110.66026 154.118556 
L 110.396929 152.8761 
L 110.096637 151.633644 
L 109.757397 150.391188 
L 109.377835 149.148731 
L 108.957553 147.906275 
L 108.497314 146.663819 
L 107.99891 145.421362 
L 107.464687 144.178906 
L 106.896783 142.93645 
L 106.296278 141.693994 
L 105.662532 140.451537 
L 104.993001 139.209081 
L 104.283724 137.966625 
L 103.530519 136.724168 
L 102.730697 135.481712 
L 101.884882 134.239256 
L 100.998466 132.996799 
L 100.082211 131.754343 
L 99.151756 130.511887 
L 98.226036 129.269431 
L 97.32497 128.026974 
L 96.467024 126.784518 
L 95.667283 125.542062 
L 94.93659 124.299605 
L 94.281963 123.057149 
L 93.70812 121.814693 
L 93.219609 120.572237 
L 92.822816 119.32978 
L 92.527167 118.087324 
L 92.345123 116.844868 
L 92.290909 115.602411 
L 92.378356 114.359955 
L 92.618472 113.117499 
L 93.017397 111.875042 
L 93.575196 110.632586 
L 94.285645 109.39013 
L 95.136818 108.147674 
L 96.11207 106.905217 
L 97.191034 105.662761 
L 98.350366 104.420305 
L 99.564247 103.177848 
L 100.804823 101.935392 
L 102.042865 100.692936 
L 103.248853 99.45048 
L 104.394511 98.208023 
L 105.454625 96.965567 
L 106.408829 95.723111 
L 107.243038 94.480654 
L 107.950247 93.238198 
L 108.530597 91.995742 
L 108.990742 90.753285 
L 109.342677 89.510829 
L 109.602244 88.268373 
L 109.787523 87.025917 
L 109.917309 85.78346 
L 110.009767 84.541004 
L 110.081354 83.298548 
L 110.146024 82.056091 
L 110.214706 80.813635 
L 110.29504 79.571179 
L 110.391348 78.328723 
L 110.504815 77.086266 
L 110.63386 75.84381 
L 110.774672 74.601354 
L 110.921862 73.358897 
L 111.069187 72.116441 
L 111.210264 70.873985 
L 111.339206 69.631528 
L 111.451116 68.389072 
L 111.542408 67.146616 
L 111.61096 65.90416 
L 111.656122 64.661703 
L 111.678636 63.419247 
L 111.680515 62.176791 
L 111.664899 60.934334 
L 111.635886 59.691878 
L 111.598324 58.449422 
L 111.55751 57.206966 
L 111.518808 55.964509 
L 111.48718 54.722053 
L 111.466693 53.479597 
L 111.460093 52.23714 
L 112.394453 52.23714 
L 112.394453 52.23714 
L 112.387852 53.479597 
L 112.367366 54.722053 
L 112.335737 55.964509 
L 112.297035 57.206966 
L 112.256222 58.449422 
L 112.218659 59.691878 
L 112.189647 60.934334 
L 112.17403 62.176791 
L 112.17591 63.419247 
L 112.198424 64.661703 
L 112.243585 65.90416 
L 112.312137 67.146616 
L 112.40343 68.389072 
L 112.515339 69.631528 
L 112.644281 70.873985 
L 112.785358 72.116441 
L 112.932683 73.358897 
L 113.079874 74.601354 
L 113.220685 75.84381 
L 113.349731 77.086266 
L 113.463197 78.328723 
L 113.559505 79.571179 
L 113.639839 80.813635 
L 113.708521 82.056091 
L 113.773191 83.298548 
L 113.844779 84.541004 
L 113.937236 85.78346 
L 114.067022 87.025917 
L 114.252302 88.268373 
L 114.511868 89.510829 
L 114.863804 90.753285 
L 115.323949 91.995742 
L 115.904298 93.238198 
L 116.611507 94.480654 
L 117.445716 95.723111 
L 118.399921 96.965567 
L 119.460034 98.208023 
L 120.605692 99.45048 
L 121.81168 100.692936 
L 123.049722 101.935392 
L 124.290298 103.177848 
L 125.50418 104.420305 
L 126.663512 105.662761 
L 127.742475 106.905217 
L 128.717727 108.147674 
L 129.5689 109.39013 
L 130.27935 110.632586 
L 130.837148 111.875042 
L 131.236073 113.117499 
L 131.47619 114.359955 
L 131.563636 115.602411 
L 131.509422 116.844868 
L 131.327378 118.087324 
L 131.03173 119.32978 
L 130.634936 120.572237 
L 130.146426 121.814693 
L 129.572583 123.057149 
L 128.917955 124.299605 
L 128.187263 125.542062 
L 127.387522 126.784518 
L 126.529576 128.026974 
L 125.62851 129.269431 
L 124.702789 130.511887 
L 123.772335 131.754343 
L 122.85608 132.996799 
L 121.969663 134.239256 
L 121.123849 135.481712 
L 120.324026 136.724168 
L 119.570822 137.966625 
L 118.861544 139.209081 
L 118.192013 140.451537 
L 117.558268 141.693994 
L 116.957763 142.93645 
L 116.389858 144.178906 
L 115.855635 145.421362 
L 115.357231 146.663819 
L 114.896992 147.906275 
L 114.47671 149.148731 
L 114.097148 150.391188 
L 113.757908 151.633644 
L 113.457616 152.8761 
L 113.194285 154.118556 
L 112.96573 155.361013 
L 112.769906 156.603469 
L 112.605092 157.845925 
L 112.469912 159.088382 
L 112.36322 160.330838 
L 112.283883 161.573294 
L 112.23054 162.815751 
L 112.201355 164.058207 
L 112.193819 165.300663 
L 112.204622 166.543119 
L 112.229628 167.785576 
L 112.263975 169.028032 
L 112.302315 170.270488 
L 112.339199 171.512945 
L 112.369551 172.755401 
L 112.38918 173.997857 
L 112.395229 175.240314 
L 112.395229 175.240314 
z
" clip-path="url(#pf43902dd9b)" style="fill: none; stroke: #000000; stroke-opacity: 0.3"/>
   </g>
   <g id="FillBetweenPolyCollection_13">
    <path d="M 119.3242 159.568867 
L 104.530345 159.568867 
L 104.032768 158.638846 
L 103.541466 157.708824 
L 103.060434 156.778803 
L 102.593466 155.848782 
L 102.144055 154.918761 
L 101.715293 153.988739 
L 101.309783 153.058718 
L 100.929558 152.128697 
L 100.576013 151.198676 
L 100.249864 150.268654 
L 99.95111 149.338633 
L 99.67903 148.408612 
L 99.432192 147.478591 
L 99.208491 146.548569 
L 99.005204 145.618548 
L 98.81907 144.688527 
L 98.64639 143.758506 
L 98.483138 142.828484 
L 98.325097 141.898463 
L 98.167998 140.968442 
L 98.007665 140.038421 
L 97.840166 139.108399 
L 97.661956 138.178378 
L 97.470014 137.248357 
L 97.261965 136.318336 
L 97.036177 135.388314 
L 96.791844 134.458293 
L 96.529028 133.528272 
L 96.248685 132.598251 
L 95.952639 131.668229 
L 95.643542 130.738208 
L 95.324788 129.808187 
L 95.000403 128.878166 
L 94.674907 127.948144 
L 94.353155 127.018123 
L 94.04017 126.088102 
L 93.740963 125.158081 
L 93.460354 124.228059 
L 93.202811 123.298038 
L 92.972297 122.368017 
L 92.772149 121.437996 
L 92.604981 120.507974 
L 92.47263 119.577953 
L 92.376126 118.647932 
L 92.315716 117.717911 
L 92.290909 116.787889 
L 92.300564 115.857868 
L 92.342997 114.927847 
L 92.416118 113.997826 
L 92.517569 113.067804 
L 92.64488 112.137783 
L 92.795606 111.207762 
L 92.967467 110.277741 
L 93.158459 109.347719 
L 93.366946 108.417698 
L 93.591719 107.487677 
L 93.832027 106.557656 
L 94.087576 105.627634 
L 94.358495 104.697613 
L 94.645278 103.767592 
L 94.9487 102.837571 
L 95.269717 101.907549 
L 95.609354 100.977528 
L 95.968583 100.047507 
L 96.348218 99.117486 
L 96.748795 98.187464 
L 97.17049 97.257443 
L 97.613037 96.327422 
L 98.075677 95.397401 
L 98.557133 94.467379 
L 99.0556 93.537358 
L 99.568775 92.607337 
L 100.0939 91.677316 
L 100.627826 90.747294 
L 101.167103 89.817273 
L 101.708075 88.887252 
L 102.246986 87.957231 
L 102.780089 87.027209 
L 103.303757 86.097188 
L 103.814584 85.167167 
L 104.309474 84.237146 
L 104.785725 83.307124 
L 105.241083 82.377103 
L 105.673791 81.447082 
L 106.082606 80.517061 
L 106.466812 79.587039 
L 106.826195 78.657018 
L 107.161019 77.726997 
L 107.471974 76.796976 
L 107.760123 75.866954 
L 108.026832 74.936933 
L 108.273697 74.006912 
L 108.502471 73.076891 
L 108.71499 72.146869 
L 108.913104 71.216848 
L 109.09861 70.286827 
L 109.273205 69.356806 
L 109.438432 68.426784 
L 109.595652 67.496763 
L 114.258893 67.496763 
L 114.258893 67.496763 
L 114.416113 68.426784 
L 114.581341 69.356806 
L 114.755935 70.286827 
L 114.941442 71.216848 
L 115.139555 72.146869 
L 115.352074 73.076891 
L 115.580848 74.006912 
L 115.827713 74.936933 
L 116.094422 75.866954 
L 116.382571 76.796976 
L 116.693527 77.726997 
L 117.02835 78.657018 
L 117.387733 79.587039 
L 117.771939 80.517061 
L 118.180755 81.447082 
L 118.613462 82.377103 
L 119.06882 83.307124 
L 119.545071 84.237146 
L 120.039962 85.167167 
L 120.550789 86.097188 
L 121.074457 87.027209 
L 121.60756 87.957231 
L 122.14647 88.887252 
L 122.687442 89.817273 
L 123.226719 90.747294 
L 123.760646 91.677316 
L 124.28577 92.607337 
L 124.798945 93.537358 
L 125.297413 94.467379 
L 125.778868 95.397401 
L 126.241509 96.327422 
L 126.684055 97.257443 
L 127.10575 98.187464 
L 127.506328 99.117486 
L 127.885962 100.047507 
L 128.245192 100.977528 
L 128.584828 101.907549 
L 128.905845 102.837571 
L 129.209268 103.767592 
L 129.496051 104.697613 
L 129.76697 105.627634 
L 130.022518 106.557656 
L 130.262826 107.487677 
L 130.487599 108.417698 
L 130.696086 109.347719 
L 130.887079 110.277741 
L 131.05894 111.207762 
L 131.209666 112.137783 
L 131.336976 113.067804 
L 131.438428 113.997826 
L 131.511548 114.927847 
L 131.553982 115.857868 
L 131.563636 116.787889 
L 131.53883 117.717911 
L 131.478419 118.647932 
L 131.381916 119.577953 
L 131.249564 120.507974 
L 131.082397 121.437996 
L 130.882249 122.368017 
L 130.651735 123.298038 
L 130.394191 124.228059 
L 130.113583 125.158081 
L 129.814375 126.088102 
L 129.501391 127.018123 
L 129.179639 127.948144 
L 128.854142 128.878166 
L 128.529757 129.808187 
L 128.211003 130.738208 
L 127.901907 131.668229 
L 127.605861 132.598251 
L 127.325517 133.528272 
L 127.062702 134.458293 
L 126.818368 135.388314 
L 126.592581 136.318336 
L 126.384531 137.248357 
L 126.19259 138.178378 
L 126.01438 139.108399 
L 125.84688 140.038421 
L 125.686547 140.968442 
L 125.529448 141.898463 
L 125.371408 142.828484 
L 125.208156 143.758506 
L 125.035475 144.688527 
L 124.849341 145.618548 
L 124.646054 146.548569 
L 124.422353 147.478591 
L 124.175515 148.408612 
L 123.903435 149.338633 
L 123.604681 150.268654 
L 123.278532 151.198676 
L 122.924988 152.128697 
L 122.544762 153.058718 
L 122.139252 153.988739 
L 121.710491 154.918761 
L 121.26108 155.848782 
L 120.794111 156.778803 
L 120.313079 157.708824 
L 119.821778 158.638846 
L 119.3242 159.568867 
L 119.3242 159.568867 
z
" clip-path="url(#pf43902dd9b)" style="fill: none; stroke: #000000; stroke-opacity: 0.3"/>
   </g>
   <g id="FillBetweenPolyCollection_14">
    <path d="M 113.181609 162.311183 
L 110.672936 162.311183 
L 110.504298 161.327314 
L 110.335779 160.343445 
L 110.171588 159.359577 
L 110.01576 158.375708 
L 109.871775 157.39184 
L 109.742179 156.407971 
L 109.628221 155.424102 
L 109.529555 154.440234 
L 109.444044 153.456365 
L 109.36768 152.472497 
L 109.294649 151.488628 
L 109.217547 150.504759 
L 109.127735 149.520891 
L 109.015834 148.537022 
L 108.872309 147.553154 
L 108.688135 146.569285 
L 108.455472 145.585416 
L 108.168325 144.601548 
L 107.823124 143.617679 
L 107.419179 142.63381 
L 106.958969 141.649942 
L 106.448226 140.666073 
L 105.895797 139.682205 
L 105.313267 138.698336 
L 104.714353 137.714467 
L 104.114087 136.730599 
L 103.527838 135.74673 
L 102.970229 134.762862 
L 102.454026 133.778993 
L 101.9891 132.795124 
L 101.581561 131.811256 
L 101.23315 130.827387 
L 100.940981 129.843519 
L 100.697663 128.85965 
L 100.491817 127.875781 
L 100.308952 126.891913 
L 100.132609 125.908044 
L 99.945657 124.924176 
L 99.731641 123.940307 
L 99.476019 122.956438 
L 99.167217 121.97257 
L 98.79743 120.988701 
L 98.363136 120.004833 
L 97.865349 119.020964 
L 97.309643 118.037095 
L 96.705995 117.053227 
L 96.068481 116.069358 
L 95.414845 115.08549 
L 94.765915 114.101621 
L 94.144849 113.117752 
L 93.576161 112.133884 
L 93.08452 111.150015 
L 92.693356 110.166146 
L 92.423343 109.182278 
L 92.290909 108.198409 
L 92.306945 107.214541 
L 92.475879 106.230672 
L 92.795285 105.246803 
L 93.256095 104.262935 
L 93.843406 103.279066 
L 94.53781 102.295198 
L 95.317045 101.311329 
L 96.157776 100.32746 
L 97.03728 99.343592 
L 97.934842 98.359723 
L 98.832765 97.375855 
L 99.716917 96.391986 
L 100.576862 95.408117 
L 101.405639 94.424249 
L 102.199282 93.44038 
L 102.956199 92.456512 
L 103.676491 91.472643 
L 104.361284 90.488774 
L 105.012128 89.504906 
L 105.630496 88.521037 
L 106.217422 87.537169 
L 106.773278 86.5533 
L 107.297717 85.569431 
L 107.789773 84.585563 
L 108.248085 83.601694 
L 108.671207 82.617825 
L 109.057941 81.633957 
L 109.407638 80.650088 
L 109.720397 79.66622 
L 109.99715 78.682351 
L 110.239613 77.698482 
L 110.45013 76.714614 
L 110.631468 75.730745 
L 110.786587 74.746877 
L 110.918459 73.763008 
L 111.029953 72.779139 
L 111.123778 71.795271 
L 111.202503 70.811402 
L 111.268591 69.827534 
L 111.324432 68.843665 
L 111.372346 67.859796 
L 111.414544 66.875928 
L 111.453046 65.892059 
L 111.489573 64.908191 
L 112.364972 64.908191 
L 112.364972 64.908191 
L 112.401499 65.892059 
L 112.440001 66.875928 
L 112.4822 67.859796 
L 112.530114 68.843665 
L 112.585954 69.827534 
L 112.652042 70.811402 
L 112.730768 71.795271 
L 112.824593 72.779139 
L 112.936086 73.763008 
L 113.067959 74.746877 
L 113.223078 75.730745 
L 113.404415 76.714614 
L 113.614933 77.698482 
L 113.857395 78.682351 
L 114.134149 79.66622 
L 114.446908 80.650088 
L 114.796604 81.633957 
L 115.183339 82.617825 
L 115.60646 83.601694 
L 116.064773 84.585563 
L 116.556829 85.569431 
L 117.081268 86.5533 
L 117.637123 87.537169 
L 118.224049 88.521037 
L 118.842418 89.504906 
L 119.493261 90.488774 
L 120.178054 91.472643 
L 120.898346 92.456512 
L 121.655264 93.44038 
L 122.448907 94.424249 
L 123.277683 95.408117 
L 124.137629 96.391986 
L 125.02178 97.375855 
L 125.919703 98.359723 
L 126.817266 99.343592 
L 127.696769 100.32746 
L 128.537501 101.311329 
L 129.316736 102.295198 
L 130.01114 103.279066 
L 130.598451 104.262935 
L 131.05926 105.246803 
L 131.378667 106.230672 
L 131.547601 107.214541 
L 131.563636 108.198409 
L 131.431203 109.182278 
L 131.161189 110.166146 
L 130.770025 111.150015 
L 130.278384 112.133884 
L 129.709696 113.117752 
L 129.088631 114.101621 
L 128.439701 115.08549 
L 127.786064 116.069358 
L 127.14855 117.053227 
L 126.544902 118.037095 
L 125.989196 119.020964 
L 125.49141 120.004833 
L 125.057116 120.988701 
L 124.687328 121.97257 
L 124.378527 122.956438 
L 124.122904 123.940307 
L 123.908888 124.924176 
L 123.721937 125.908044 
L 123.545593 126.891913 
L 123.362729 127.875781 
L 123.156883 128.85965 
L 122.913564 129.843519 
L 122.621395 130.827387 
L 122.272984 131.811256 
L 121.865445 132.795124 
L 121.40052 133.778993 
L 120.884316 134.762862 
L 120.326707 135.74673 
L 119.740459 136.730599 
L 119.140193 137.714467 
L 118.541278 138.698336 
L 117.958749 139.682205 
L 117.40632 140.666073 
L 116.895576 141.649942 
L 116.435366 142.63381 
L 116.031421 143.617679 
L 115.686221 144.601548 
L 115.399074 145.585416 
L 115.166411 146.569285 
L 114.982236 147.553154 
L 114.838712 148.537022 
L 114.72681 149.520891 
L 114.636999 150.504759 
L 114.559896 151.488628 
L 114.486866 152.472497 
L 114.410502 153.456365 
L 114.324991 154.440234 
L 114.226325 155.424102 
L 114.112366 156.407971 
L 113.98277 157.39184 
L 113.838786 158.375708 
L 113.682957 159.359577 
L 113.518767 160.343445 
L 113.350248 161.327314 
L 113.181609 162.311183 
L 113.181609 162.311183 
z
" clip-path="url(#pf43902dd9b)" style="fill: none; stroke: #000000; stroke-opacity: 0.3"/>
   </g>
   <g id="matplotlib.axis_1">
    <g id="xtick_1">
     <g id="line2d_1">
      <defs>
       <path id="mdd27e44e0b" d="M 0 0 
L 0 3.5 
" style="stroke: #000000; stroke-width: 0.8"/>
      </defs>
      <g>
       <use xlink:href="#mdd27e44e0b" x="46.472727" y="291.6" style="stroke: #000000; stroke-width: 0.8"/>
      </g>
     </g>
     <g id="text_1">
      <text style="font-size: 10px; font-family: 'DejaVu Sans', 'Bitstream Vera Sans', 'Computer Modern Sans Serif', 'Lucida Grande', 'Verdana', 'Geneva', 'Lucid', 'Arial', 'Helvetica', 'Avant Garde', sans-serif; text-anchor: middle" x="46.472727" y="306.198438" transform="rotate(-0 46.472727 306.198438)">0.3</text>
     </g>
    </g>
    <g id="xtick_2">
     <g id="line2d_2">
      <g>
       <use xlink:href="#mdd27e44e0b" x="111.927273" y="291.6" style="stroke: #000000; stroke-width: 0.8"/>
      </g>
     </g>
     <g id="text_2">
      <text style="font-size: 10px; font-family: 'DejaVu Sans', 'Bitstream Vera Sans', 'Computer Modern Sans Serif', 'Lucida Grande', 'Verdana', 'Geneva', 'Lucid', 'Arial', 'Helvetica', 'Avant Garde', sans-serif; text-anchor: middle" x="111.927273" y="306.198438" transform="rotate(-0 111.927273 306.198438)">0.6</text>
     </g>
    </g>
   </g>
   <g id="matplotlib.axis_2">
    <g id="ytick_1">
     <g id="line2d_3">
      <defs>
       <path id="m454ca8f518" d="M 0 0 
L -3.5 0 
" style="stroke: #000000; stroke-width: 0.8"/>
      </defs>
      <g>
       <use xlink:href="#m454ca8f518" x="21.6" y="291.6" style="stroke: #000000; stroke-width: 0.8"/>
      </g>
     </g>
    </g>
    <g id="ytick_2">
     <g id="line2d_4">
      <g>
       <use xlink:href="#m454ca8f518" x="21.6" y="199.8" style="stroke: #000000; stroke-width: 0.8"/>
      </g>
     </g>
    </g>
    <g id="ytick_3">
     <g id="line2d_5">
      <g>
       <use xlink:href="#m454ca8f518" x="21.6" y="108" style="stroke: #000000; stroke-width: 0.8"/>
      </g>
     </g>
    </g>
    <g id="ytick_4">
     <g id="line2d_6">
      <g>
       <use xlink:href="#m454ca8f518" x="21.6" y="16.2" style="stroke: #000000; stroke-width: 0.8"/>
      </g>
     </g>
    </g>
   </g>
   <g id="line2d_7">
    <path d="M 46.472727 269.568 
L 46.472727 264.06 
" clip-path="url(#pf43902dd9b)" style="fill: none; stroke: #000000; stroke-linecap: square"/>
   </g>
   <g id="line2d_8">
    <path d="M 46.472727 269.568 
L 111.927273 269.568 
" clip-path="url(#pf43902dd9b)" style="fill: none; stroke: #000000; stroke-linecap: square"/>
   </g>
   <g id="line2d_9">
    <path d="M 111.927273 269.568 
L 111.927273 264.06 
" clip-path="url(#pf43902dd9b)" style="fill: none; stroke: #000000; stroke-linecap: square"/>
   </g>
   <g id="patch_3">
    <path d="M 21.6 291.6 
L 21.6 16.2 
" style="fill: none; stroke: #000000; stroke-width: 0.8; stroke-linejoin: miter; stroke-linecap: square"/>
   </g>
   <g id="patch_4">
    <path d="M 136.8 291.6 
L 136.8 16.2 
" style="fill: none; stroke: #000000; stroke-width: 0.8; stroke-linejoin: miter; stroke-linecap: square"/>
   </g>
   <g id="patch_5">
    <path d="M 21.6 291.6 
L 136.8 291.6 
" style="fill: none; stroke: #000000; stroke-width: 0.8; stroke-linejoin: miter; stroke-linecap: square"/>
   </g>
   <g id="patch_6">
    <path d="M 21.6 16.2 
L 136.8 16.2 
" style="fill: none; stroke: #000000; stroke-width: 0.8; stroke-linejoin: miter; stroke-linecap: square"/>
   </g>
   <g id="text_3">
    <text style="font-weight: 700; font-size: 12px; font-family: 'DejaVu Sans', 'Bitstream Vera Sans', 'Computer Modern Sans Serif', 'Lucida Grande', 'Verdana', 'Geneva', 'Lucid', 'Arial', 'Helvetica', 'Avant Garde', sans-serif; text-anchor: middle" x="46.472727" y="289.104375" transform="rotate(-0 46.472727 289.104375)">#11</text>
   </g>
   <g id="text_4">
    <text style="font-weight: 700; font-size: 12px; font-family: 'DejaVu Sans', 'Bitstream Vera Sans', 'Computer Modern Sans Serif', 'Lucida Grande', 'Verdana', 'Geneva', 'Lucid', 'Arial', 'Helvetica', 'Avant Garde', sans-serif; text-anchor: middle" x="111.927273" y="289.104375" transform="rotate(-0 111.927273 289.104375)">#25</text>
   </g>
   <g id="text_5">
    <text style="font-size: 12px; font-family: 'DejaVu Sans', 'Bitstream Vera Sans', 'Computer Modern Sans Serif', 'Lucida Grande', 'Verdana', 'Geneva', 'Lucid', 'Arial', 'Helvetica', 'Avant Garde', sans-serif; text-anchor: middle" x="79.2" y="268.449375" transform="rotate(-0 79.2 268.449375)">****</text>
   </g>
   <g id="line2d_10">
    <path d="M 21.6 135.719845 
L 136.8 135.719845 
" clip-path="url(#pf43902dd9b)" style="fill: none; stroke-dasharray: 3.7,1.6; stroke-dashoffset: 0; stroke: #808080; stroke-opacity: 0.7"/>
   </g>
   <g id="line2d_11">
    <path d="M 21.6 118.238889 
L 136.8 118.238889 
" clip-path="url(#pf43902dd9b)" style="fill: none; stroke-dasharray: 3.7,1.6; stroke-dashoffset: 0; stroke: #808080; stroke-opacity: 0.7"/>
   </g>
   <g id="LineCollection_1">
    <path d="M 46.472727 138.814345 
L 46.472727 132.625345 
" clip-path="url(#pf43902dd9b)" style="fill: none; stroke: #000000; stroke-width: 2"/>
   </g>
   <g id="line2d_12">
    <defs>
     <path id="maad740cd12" d="M 5 0 
L -5 -0 
" style="stroke: #000000; stroke-width: 2"/>
    </defs>
    <g clip-path="url(#pf43902dd9b)">
     <use xlink:href="#maad740cd12" x="46.472727" y="138.814345" style="stroke: #000000; stroke-width: 2"/>
    </g>
   </g>
   <g id="line2d_13">
    <g clip-path="url(#pf43902dd9b)">
     <use xlink:href="#maad740cd12" x="46.472727" y="132.625345" style="stroke: #000000; stroke-width: 2"/>
    </g>
   </g>
   <g id="LineCollection_2">
    <path d="M 111.927273 123.417812 
L 111.927273 113.059965 
" clip-path="url(#pf43902dd9b)" style="fill: none; stroke: #000000; stroke-width: 2"/>
   </g>
   <g id="line2d_14">
    <g clip-path="url(#pf43902dd9b)">
     <use xlink:href="#maad740cd12" x="111.927273" y="123.417812" style="stroke: #000000; stroke-width: 2"/>
    </g>
   </g>
   <g id="line2d_15">
    <g clip-path="url(#pf43902dd9b)">
     <use xlink:href="#maad740cd12" x="111.927273" y="113.059965" style="stroke: #000000; stroke-width: 2"/>
    </g>
   </g>
   <g id="line2d_16">
    <defs>
     <path id="m32eac8e4f1" d="M 0 4 
C 1.060812 4 2.078319 3.578535 2.828427 2.828427 
C 3.578535 2.078319 4 1.060812 4 0 
C 4 -1.060812 3.578535 -2.078319 2.828427 -2.828427 
C 2.078319 -3.578535 1.060812 -4 0 -4 
C -1.060812 -4 -2.078319 -3.578535 -2.828427 -2.828427 
C -3.578535 -2.078319 -4 -1.060812 -4 0 
C -4 1.060812 -3.578535 2.078319 -2.828427 2.828427 
C -2.078319 3.578535 -1.060812 4 0 4 
z
" style="stroke: #000000"/>
    </defs>
    <g clip-path="url(#pf43902dd9b)">
     <use xlink:href="#m32eac8e4f1" x="46.472727" y="135.719845" style="stroke: #000000"/>
    </g>
   </g>
   <g id="line2d_17">
    <g clip-path="url(#pf43902dd9b)">
     <use xlink:href="#m32eac8e4f1" x="111.927273" y="118.238889" style="stroke: #000000"/>
    </g>
   </g>
  </g>
 </g>
 <defs>
  <clipPath id="pf43902dd9b">
   <rect x="21.6" y="16.2" width="115.2" height="275.4"/>
  </clipPath>
 </defs>
</svg>
