<?xml version="1.0" encoding="utf-8" standalone="no"?>
<!DOCTYPE svg PUBLIC "-//W3C//DTD SVG 1.1//EN"
  "http://www.w3.org/Graphics/SVG/1.1/DTD/svg11.dtd">
<svg xmlns:xlink="http://www.w3.org/1999/xlink" width="144pt" height="324pt" viewBox="0 0 144 324" xmlns="http://www.w3.org/2000/svg" version="1.1">
 <metadata>
  <rdf:RDF xmlns:dc="http://purl.org/dc/elements/1.1/" xmlns:cc="http://creativecommons.org/ns#" xmlns:rdf="http://www.w3.org/1999/02/22-rdf-syntax-ns#">
   <cc:Work>
    <dc:type rdf:resource="http://purl.org/dc/dcmitype/StillImage"/>
    <dc:date>2025-12-05T14:51:42.138650</dc:date>
    <dc:format>image/svg+xml</dc:format>
    <dc:creator>
     <cc:Agent>
      <dc:title>Matplotlib v3.10.0, https://matplotlib.org/</dc:title>
     </cc:Agent>
    </dc:creator>
   </cc:Work>
  </rdf:RDF>
 </metadata>
 <defs>
  <style type="text/css">*{stroke-linejoin: round; stroke-linecap: butt}</style>
 </defs>
 <g id="figure_1">
  <g id="patch_1">
   <path d="M 0 324 
L 144 324 
L 144 0 
L 0 0 
z
" style="fill: #ffffff"/>
  </g>
  <g id="axes_1">
   <g id="patch_2">
    <path d="M 21.6 291.6 
L 136.8 291.6 
L 136.8 16.2 
L 21.6 16.2 
z
" style="fill: #ffffff"/>
   </g>
   <g id="FillBetweenPolyCollection_1">
    <path d="M 47.177856 240.840262 
L 45.767598 240.840262 
L 45.773438 239.319275 
L 45.790669 237.798287 
L 45.81845 236.2773 
L 45.855448 234.756312 
L 45.899954 233.235325 
L 45.950002 231.714337 
L 46.003518 230.19335 
L 46.058454 228.672362 
L 46.112909 227.151375 
L 46.165225 225.630387 
L 46.214048 224.1094 
L 46.25836 222.588412 
L 46.297467 221.067425 
L 46.330972 219.546437 
L 46.358717 218.02545 
L 46.38072 216.504462 
L 46.397105 214.983475 
L 46.408032 213.462487 
L 46.413646 211.9415 
L 46.414033 210.420512 
L 46.409199 208.899525 
L 46.399069 207.378537 
L 46.383506 205.85755 
L 46.362346 204.336562 
L 46.335458 202.815575 
L 46.302803 201.294587 
L 46.264507 199.7736 
L 46.220928 198.252612 
L 46.172709 196.731625 
L 46.120819 195.210637 
L 46.066558 193.68965 
L 46.011532 192.168662 
L 45.9576 190.647675 
L 45.906777 189.126687 
L 45.86111 187.6057 
L 45.822545 186.084712 
L 45.79277 184.563725 
L 45.773082 183.042737 
L 45.764259 181.52175 
L 45.766475 180.000762 
L 45.779252 178.479775 
L 45.801451 176.958787 
L 45.831313 175.4378 
L 45.866526 173.916812 
L 45.904325 172.395825 
L 45.941597 170.874837 
L 45.974994 169.35385 
L 46.001021 167.832862 
L 46.016116 166.311875 
L 46.016695 164.790887 
L 45.999174 163.2699 
L 45.959967 161.748912 
L 45.895465 160.227925 
L 45.801997 158.706937 
L 45.675803 157.18595 
L 45.513001 155.664962 
L 45.309572 154.143975 
L 45.061374 152.622987 
L 44.764181 151.102 
L 44.413762 149.581012 
L 44.006005 148.060025 
L 43.537079 146.539037 
L 43.003656 145.01805 
L 42.403159 143.497062 
L 41.734061 141.976075 
L 40.996199 140.455087 
L 40.191086 138.9341 
L 39.322209 137.413112 
L 38.395271 135.892125 
L 37.418352 134.371137 
L 36.40197 132.85015 
L 35.358997 131.329162 
L 34.304448 129.808175 
L 33.255109 128.287187 
L 32.229044 126.7662 
L 31.244991 125.245212 
L 30.321683 123.724225 
L 29.477154 122.203237 
L 28.728068 120.68225 
L 28.089117 119.161262 
L 27.572537 117.640275 
L 27.187764 116.119287 
L 26.941239 114.5983 
L 26.836364 113.077312 
L 26.873596 111.556325 
L 27.050641 110.035337 
L 27.362713 108.51435 
L 27.802842 106.993362 
L 28.362175 105.472375 
L 29.030266 103.951387 
L 29.795334 102.4304 
L 30.644489 100.909412 
L 31.56394 99.388425 
L 32.539188 97.867437 
L 33.555232 96.34645 
L 34.5968 94.825462 
L 35.648615 93.304475 
L 36.6957 91.783487 
L 37.723716 90.2625 
L 55.221739 90.2625 
L 55.221739 90.2625 
L 56.249754 91.783487 
L 57.296839 93.304475 
L 58.348654 94.825462 
L 59.390223 96.34645 
L 60.406267 97.867437 
L 61.381514 99.388425 
L 62.300965 100.909412 
L 63.150121 102.4304 
L 63.915188 103.951387 
L 64.583279 105.472375 
L 65.142612 106.993362 
L 65.582742 108.51435 
L 65.894814 110.035337 
L 66.071858 111.556325 
L 66.109091 113.077312 
L 66.004216 114.5983 
L 65.75769 116.119287 
L 65.372917 117.640275 
L 64.856338 119.161262 
L 64.217387 120.68225 
L 63.4683 122.203237 
L 62.623772 123.724225 
L 61.700464 125.245212 
L 60.71641 126.7662 
L 59.690346 128.287187 
L 58.641007 129.808175 
L 57.586457 131.329162 
L 56.543485 132.85015 
L 55.527102 134.371137 
L 54.550184 135.892125 
L 53.623245 137.413112 
L 52.754368 138.9341 
L 51.949255 140.455087 
L 51.211393 141.976075 
L 50.542296 143.497062 
L 49.941799 145.01805 
L 49.408375 146.539037 
L 48.93945 148.060025 
L 48.531692 149.581012 
L 48.181274 151.102 
L 47.884081 152.622987 
L 47.635882 154.143975 
L 47.432453 155.664962 
L 47.269651 157.18595 
L 47.143458 158.706937 
L 47.04999 160.227925 
L 46.985487 161.748912 
L 46.946281 163.2699 
L 46.92876 164.790887 
L 46.929338 166.311875 
L 46.944433 167.832862 
L 46.97046 169.35385 
L 47.003857 170.874837 
L 47.04113 172.395825 
L 47.078929 173.916812 
L 47.114142 175.4378 
L 47.144003 176.958787 
L 47.166202 178.479775 
L 47.178979 180.000762 
L 47.181196 181.52175 
L 47.172373 183.042737 
L 47.152684 184.563725 
L 47.12291 186.084712 
L 47.084344 187.6057 
L 47.038678 189.126687 
L 46.987854 190.647675 
L 46.933923 192.168662 
L 46.878897 193.68965 
L 46.824635 195.210637 
L 46.772745 196.731625 
L 46.724527 198.252612 
L 46.680948 199.7736 
L 46.642652 201.294587 
L 46.609997 202.815575 
L 46.583109 204.336562 
L 46.561949 205.85755 
L 46.546385 207.378537 
L 46.536255 208.899525 
L 46.531421 210.420512 
L 46.531808 211.9415 
L 46.537422 213.462487 
L 46.54835 214.983475 
L 46.564735 216.504462 
L 46.586738 218.02545 
L 46.614483 219.546437 
L 46.647987 221.067425 
L 46.687094 222.588412 
L 46.731406 224.1094 
L 46.78023 225.630387 
L 46.832546 227.151375 
L 46.887 228.672362 
L 46.941936 230.19335 
L 46.995453 231.714337 
L 47.045501 233.235325 
L 47.090006 234.756312 
L 47.127005 236.2773 
L 47.154785 237.798287 
L 47.172017 239.319275 
L 47.177856 240.840262 
L 47.177856 240.840262 
z
" clip-path="url(#pf36a98849c)" style="fill: none; stroke: #000000; stroke-opacity: 0.3"/>
   </g>
   <g id="FillBetweenPolyCollection_2">
    <path d="M 47.070139 237.147868 
L 45.875315 237.147868 
L 45.881756 235.563483 
L 45.900663 233.979097 
L 45.930841 232.394711 
L 45.970434 230.810326 
L 46.017118 229.22594 
L 46.068326 227.641554 
L 46.121476 226.057168 
L 46.174182 224.472783 
L 46.224421 222.888397 
L 46.270634 221.304011 
L 46.311771 219.719625 
L 46.34728 218.13524 
L 46.377045 216.550854 
L 46.401298 214.966468 
L 46.420521 213.382083 
L 46.43534 211.797697 
L 46.446438 210.213311 
L 46.454481 208.628925 
L 46.460064 207.04454 
L 46.463672 205.460154 
L 46.46566 203.875768 
L 46.466238 202.291382 
L 46.465464 200.706997 
L 46.463241 199.122611 
L 46.459313 197.538225 
L 46.453266 195.95384 
L 46.444531 194.369454 
L 46.432395 192.785068 
L 46.416022 191.200682 
L 46.394485 189.616297 
L 46.366809 188.031911 
L 46.332033 186.447525 
L 46.289262 184.863139 
L 46.237729 183.278754 
L 46.176833 181.694368 
L 46.106152 180.109982 
L 46.025422 178.525597 
L 45.934472 176.941211 
L 45.833125 175.356825 
L 45.721067 173.772439 
L 45.597711 172.188054 
L 45.462074 170.603668 
L 45.312711 169.019282 
L 45.147698 167.434896 
L 44.964718 165.850511 
L 44.761227 164.266125 
L 44.534702 162.681739 
L 44.282936 161.097354 
L 44.004353 159.512968 
L 43.698285 157.928582 
L 43.36517 156.344196 
L 43.006631 154.759811 
L 42.625396 153.175425 
L 42.22506 151.591039 
L 41.809677 150.006653 
L 41.383235 148.422268 
L 40.949047 146.837882 
L 40.509131 145.253496 
L 40.063675 143.669111 
L 39.610643 142.084725 
L 39.145635 140.500339 
L 38.662038 138.915953 
L 38.15151 137.331568 
L 37.60479 135.747182 
L 37.01278 134.162796 
L 36.367812 132.578411 
L 35.664968 130.994025 
L 34.90329 129.409639 
L 34.08674 127.825253 
L 33.224757 126.240868 
L 32.332311 124.656482 
L 31.429426 123.072096 
L 30.540177 121.48771 
L 29.691262 119.903325 
L 28.910289 118.318939 
L 28.223952 116.734553 
L 27.656282 115.150168 
L 27.227129 113.565782 
L 26.951006 111.981396 
L 26.836364 110.39701 
L 26.885304 108.812625 
L 27.093728 107.228239 
L 27.451856 105.643853 
L 27.945048 104.059467 
L 28.554869 102.475082 
L 29.260327 100.890696 
L 30.039213 99.30631 
L 30.869473 97.721925 
L 31.730515 96.137539 
L 32.604352 94.553153 
L 33.476474 92.968767 
L 34.336346 91.384382 
L 35.177474 89.799996 
L 35.997019 88.21561 
L 36.795017 86.631224 
L 37.573306 85.046839 
L 38.334335 83.462453 
L 39.080017 81.878067 
L 39.810818 80.293682 
L 53.134636 80.293682 
L 53.134636 80.293682 
L 53.865437 81.878067 
L 54.61112 83.462453 
L 55.372149 85.046839 
L 56.150438 86.631224 
L 56.948436 88.21561 
L 57.76798 89.799996 
L 58.609108 91.384382 
L 59.46898 92.968767 
L 60.341103 94.553153 
L 61.21494 96.137539 
L 62.075982 97.721925 
L 62.906242 99.30631 
L 63.685128 100.890696 
L 64.390586 102.475082 
L 65.000406 104.059467 
L 65.493598 105.643853 
L 65.851726 107.228239 
L 66.060151 108.812625 
L 66.109091 110.39701 
L 65.994448 111.981396 
L 65.718326 113.565782 
L 65.289173 115.150168 
L 64.721502 116.734553 
L 64.035165 118.318939 
L 63.254192 119.903325 
L 62.405278 121.48771 
L 61.516029 123.072096 
L 60.613144 124.656482 
L 59.720698 126.240868 
L 58.858714 127.825253 
L 58.042165 129.409639 
L 57.280487 130.994025 
L 56.577642 132.578411 
L 55.932675 134.162796 
L 55.340665 135.747182 
L 54.793944 137.331568 
L 54.283417 138.915953 
L 53.79982 140.500339 
L 53.334812 142.084725 
L 52.88178 143.669111 
L 52.436323 145.253496 
L 51.996408 146.837882 
L 51.562219 148.422268 
L 51.135777 150.006653 
L 50.720394 151.591039 
L 50.320058 153.175425 
L 49.938824 154.759811 
L 49.580285 156.344196 
L 49.24717 157.928582 
L 48.941101 159.512968 
L 48.662518 161.097354 
L 48.410752 162.681739 
L 48.184227 164.266125 
L 47.980737 165.850511 
L 47.797757 167.434896 
L 47.632744 169.019282 
L 47.48338 170.603668 
L 47.347744 172.188054 
L 47.224387 173.772439 
L 47.112329 175.356825 
L 47.010982 176.941211 
L 46.920033 178.525597 
L 46.839303 180.109982 
L 46.768622 181.694368 
L 46.707725 183.278754 
L 46.656193 184.863139 
L 46.613422 186.447525 
L 46.578645 188.031911 
L 46.55097 189.616297 
L 46.529432 191.200682 
L 46.513059 192.785068 
L 46.500924 194.369454 
L 46.492189 195.95384 
L 46.486142 197.538225 
L 46.482214 199.122611 
L 46.479991 200.706997 
L 46.479217 202.291382 
L 46.479795 203.875768 
L 46.481783 205.460154 
L 46.485391 207.04454 
L 46.490973 208.628925 
L 46.499016 210.213311 
L 46.510114 211.797697 
L 46.524933 213.382083 
L 46.544156 214.966468 
L 46.56841 216.550854 
L 46.598174 218.13524 
L 46.633683 219.719625 
L 46.674821 221.304011 
L 46.721033 222.888397 
L 46.771272 224.472783 
L 46.823979 226.057168 
L 46.877128 227.641554 
L 46.928336 229.22594 
L 46.975021 230.810326 
L 47.014614 232.394711 
L 47.044791 233.979097 
L 47.063699 235.563483 
L 47.070139 237.147868 
L 47.070139 237.147868 
z
" clip-path="url(#pf36a98849c)" style="fill: none; stroke: #000000; stroke-opacity: 0.3"/>
   </g>
   <g id="FillBetweenPolyCollection_3">
    <path d="M 46.920813 317.472414 
L 46.024642 317.472414 
L 46.029571 314.685899 
L 46.045665 311.899383 
L 46.070892 309.112867 
L 46.102236 306.326352 
L 46.135967 303.539836 
L 46.167968 300.753321 
L 46.194086 297.966805 
L 46.210461 295.180289 
L 46.21383 292.393774 
L 46.201796 289.607258 
L 46.173058 286.820742 
L 46.127603 284.034227 
L 46.066845 281.247711 
L 45.993672 278.461196 
L 45.912374 275.67468 
L 45.828413 272.888164 
L 45.748013 270.101649 
L 45.677598 267.315133 
L 45.62313 264.528618 
L 45.589439 261.742102 
L 45.57965 258.955586 
L 45.594812 256.169071 
L 45.633795 253.382555 
L 45.693479 250.596039 
L 45.769204 247.809524 
L 45.855388 245.023008 
L 45.946216 242.236493 
L 46.036286 239.449977 
L 46.121101 236.663461 
L 46.197378 233.876946 
L 46.26314 231.09043 
L 46.317626 228.303914 
L 46.361065 225.517399 
L 46.394378 222.730883 
L 46.418863 219.944368 
L 46.435895 217.157852 
L 46.446677 214.371336 
L 46.45202 211.584821 
L 46.452169 208.798305 
L 46.446625 206.011789 
L 46.433974 203.225274 
L 46.411697 200.438758 
L 46.375972 197.652243 
L 46.321499 194.865727 
L 46.241383 192.079211 
L 46.127123 189.292696 
L 45.968767 186.50618 
L 45.755283 183.719665 
L 45.475134 180.933149 
L 45.117064 178.146633 
L 44.670993 175.360118 
L 44.128938 172.573602 
L 43.485795 169.787086 
L 42.739896 167.000571 
L 41.893228 164.214055 
L 40.951323 161.42754 
L 39.922889 158.641024 
L 38.819314 155.854508 
L 37.654219 153.067993 
L 36.443219 150.281477 
L 35.203967 147.494961 
L 33.956458 144.708446 
L 32.723451 141.92193 
L 31.530792 139.135415 
L 30.407369 136.348899 
L 29.384492 133.562383 
L 28.494605 130.775868 
L 27.769361 127.989352 
L 27.23727 125.202837 
L 26.921241 122.416321 
L 26.836364 119.629805 
L 26.988298 116.84329 
L 27.372501 114.056774 
L 27.974408 111.270258 
L 28.770528 108.483743 
L 29.730289 105.697227 
L 30.818375 102.910712 
L 31.997261 100.124196 
L 33.22967 97.33768 
L 34.4807 94.551165 
L 35.719466 91.764649 
L 36.920152 88.978133 
L 38.062466 86.191618 
L 39.13157 83.405102 
L 40.117577 80.618587 
L 41.01479 77.832071 
L 41.820851 75.045555 
L 42.535925 72.25904 
L 43.162055 69.472524 
L 43.702724 66.686009 
L 44.162614 63.899493 
L 44.547515 61.112977 
L 44.864275 58.326462 
L 45.120721 55.539946 
L 45.325465 52.75343 
L 45.487571 49.966915 
L 45.616106 47.180399 
L 45.719625 44.393884 
L 45.805673 41.607368 
L 47.139782 41.607368 
L 47.139782 41.607368 
L 47.22583 44.393884 
L 47.329349 47.180399 
L 47.457884 49.966915 
L 47.61999 52.75343 
L 47.824733 55.539946 
L 48.08118 58.326462 
L 48.39794 61.112977 
L 48.782841 63.899493 
L 49.242731 66.686009 
L 49.783399 69.472524 
L 50.40953 72.25904 
L 51.124603 75.045555 
L 51.930664 77.832071 
L 52.827878 80.618587 
L 53.813884 83.405102 
L 54.882988 86.191618 
L 56.025303 88.978133 
L 57.225988 91.764649 
L 58.464755 94.551165 
L 59.715785 97.33768 
L 60.948194 100.124196 
L 62.12708 102.910712 
L 63.215165 105.697227 
L 64.174926 108.483743 
L 64.971047 111.270258 
L 65.572954 114.056774 
L 65.957157 116.84329 
L 66.109091 119.629805 
L 66.024213 122.416321 
L 65.708184 125.202837 
L 65.176094 127.989352 
L 64.45085 130.775868 
L 63.560963 133.562383 
L 62.538086 136.348899 
L 61.414663 139.135415 
L 60.222004 141.92193 
L 58.988997 144.708446 
L 57.741487 147.494961 
L 56.502235 150.281477 
L 55.291236 153.067993 
L 54.126141 155.854508 
L 53.022565 158.641024 
L 51.994132 161.42754 
L 51.052227 164.214055 
L 50.205558 167.000571 
L 49.459659 169.787086 
L 48.816517 172.573602 
L 48.274461 175.360118 
L 47.828391 178.146633 
L 47.47032 180.933149 
L 47.190171 183.719665 
L 46.976687 186.50618 
L 46.818332 189.292696 
L 46.704071 192.079211 
L 46.623955 194.865727 
L 46.569483 197.652243 
L 46.533758 200.438758 
L 46.51148 203.225274 
L 46.49883 206.011789 
L 46.493286 208.798305 
L 46.493434 211.584821 
L 46.498778 214.371336 
L 46.509559 217.157852 
L 46.526592 219.944368 
L 46.551076 222.730883 
L 46.584389 225.517399 
L 46.627828 228.303914 
L 46.682314 231.09043 
L 46.748077 233.876946 
L 46.824354 236.663461 
L 46.909169 239.449977 
L 46.999238 242.236493 
L 47.090067 245.023008 
L 47.17625 247.809524 
L 47.251975 250.596039 
L 47.31166 253.382555 
L 47.350642 256.169071 
L 47.365804 258.955586 
L 47.356015 261.742102 
L 47.322324 264.528618 
L 47.267856 267.315133 
L 47.197441 270.101649 
L 47.117041 272.888164 
L 47.033081 275.67468 
L 46.951783 278.461196 
L 46.878609 281.247711 
L 46.817851 284.034227 
L 46.772397 286.820742 
L 46.743659 289.607258 
L 46.731625 292.393774 
L 46.734994 295.180289 
L 46.751368 297.966805 
L 46.777486 300.753321 
L 46.809488 303.539836 
L 46.843219 306.326352 
L 46.874563 309.112867 
L 46.899789 311.899383 
L 46.915884 314.685899 
L 46.920813 317.472414 
L 46.920813 317.472414 
z
" clip-path="url(#pf36a98849c)" style="fill: none; stroke: #000000; stroke-opacity: 0.3"/>
   </g>
   <g id="FillBetweenPolyCollection_4">
    <path d="M 46.950883 205.075162 
L 45.994572 205.075162 
L 46.001444 203.379714 
L 46.021527 201.684265 
L 46.053057 199.988817 
L 46.093356 198.293368 
L 46.139152 196.59792 
L 46.186933 194.902471 
L 46.23326 193.207022 
L 46.274996 191.511574 
L 46.309398 189.816125 
L 46.334098 188.120677 
L 46.346984 186.425228 
L 46.346029 184.72978 
L 46.329145 183.034331 
L 46.2941 181.338883 
L 46.238564 179.643434 
L 46.160288 177.947986 
L 46.057417 176.252537 
L 45.92889 174.557089 
L 45.774841 172.86164 
L 45.596906 171.166191 
L 45.398325 169.470743 
L 45.183753 167.775294 
L 44.958742 166.079846 
L 44.728916 164.384397 
L 44.498944 162.688949 
L 44.271493 160.9935 
L 44.04634 159.298052 
L 43.819888 157.602603 
L 43.585186 155.907155 
L 43.332539 154.211706 
L 43.050619 152.516257 
L 42.727897 150.820809 
L 42.354149 149.12536 
L 41.921752 147.429912 
L 41.426526 145.734463 
L 40.867978 144.039015 
L 40.248925 142.343566 
L 39.574595 140.648118 
L 38.851415 138.952669 
L 38.085778 137.257221 
L 37.283072 135.561772 
L 36.447223 133.866323 
L 35.580898 132.170875 
L 34.686385 130.475426 
L 33.767016 128.779978 
L 32.828856 127.084529 
L 31.882302 125.389081 
L 30.943222 123.693632 
L 30.033325 121.998184 
L 29.179606 120.302735 
L 28.412882 118.607287 
L 27.765615 116.911838 
L 27.269359 115.21639 
L 26.952175 113.520941 
L 26.836364 111.825492 
L 26.936739 110.130044 
L 27.259527 108.434595 
L 27.801885 106.739147 
L 28.551971 105.043698 
L 29.489465 103.34825 
L 30.586489 101.652801 
L 31.808908 99.957353 
L 33.118 98.261904 
L 34.472473 96.566456 
L 35.830731 94.871007 
L 37.153251 93.175558 
L 38.404838 91.48011 
L 39.55653 89.784661 
L 40.586938 88.089213 
L 41.482882 86.393764 
L 42.239293 84.698316 
L 42.858466 83.002867 
L 43.348806 81.307419 
L 43.723312 79.61197 
L 43.998002 77.916522 
L 44.190462 76.221073 
L 44.318645 74.525624 
L 44.399951 72.830176 
L 44.450561 71.134727 
L 44.484964 69.439279 
L 44.515592 67.74383 
L 44.552503 66.048382 
L 44.603106 64.352933 
L 44.671938 62.657485 
L 44.760573 60.962036 
L 44.867722 59.266588 
L 44.98958 57.571139 
L 45.120437 55.875691 
L 45.253501 54.180242 
L 45.381845 52.484793 
L 45.499339 50.789345 
L 45.60144 49.093896 
L 45.685705 47.398448 
L 45.751975 45.702999 
L 45.802196 44.007551 
L 45.839939 42.312102 
L 45.869719 40.616654 
L 45.896228 38.921205 
L 45.923628 37.225757 
L 47.021826 37.225757 
L 47.021826 37.225757 
L 47.049227 38.921205 
L 47.075735 40.616654 
L 47.105515 42.312102 
L 47.143259 44.007551 
L 47.193479 45.702999 
L 47.259749 47.398448 
L 47.344015 49.093896 
L 47.446115 50.789345 
L 47.56361 52.484793 
L 47.691953 54.180242 
L 47.825018 55.875691 
L 47.955874 57.571139 
L 48.077732 59.266588 
L 48.184881 60.962036 
L 48.273516 62.657485 
L 48.342348 64.352933 
L 48.392951 66.048382 
L 48.429863 67.74383 
L 48.460491 69.439279 
L 48.494894 71.134727 
L 48.545504 72.830176 
L 48.626809 74.525624 
L 48.754993 76.221073 
L 48.947453 77.916522 
L 49.222142 79.61197 
L 49.596649 81.307419 
L 50.086988 83.002867 
L 50.706161 84.698316 
L 51.462573 86.393764 
L 52.358516 88.089213 
L 53.388924 89.784661 
L 54.540617 91.48011 
L 55.792204 93.175558 
L 57.114724 94.871007 
L 58.472982 96.566456 
L 59.827455 98.261904 
L 61.136547 99.957353 
L 62.358965 101.652801 
L 63.455989 103.34825 
L 64.393483 105.043698 
L 65.14357 106.739147 
L 65.685928 108.434595 
L 66.008715 110.130044 
L 66.109091 111.825492 
L 65.99328 113.520941 
L 65.676095 115.21639 
L 65.179839 116.911838 
L 64.532573 118.607287 
L 63.765848 120.302735 
L 62.912129 121.998184 
L 62.002233 123.693632 
L 61.063153 125.389081 
L 60.116599 127.084529 
L 59.178439 128.779978 
L 58.25907 130.475426 
L 57.364556 132.170875 
L 56.498231 133.866323 
L 55.662382 135.561772 
L 54.859677 137.257221 
L 54.09404 138.952669 
L 53.370859 140.648118 
L 52.696529 142.343566 
L 52.077477 144.039015 
L 51.518929 145.734463 
L 51.023702 147.429912 
L 50.591305 149.12536 
L 50.217557 150.820809 
L 49.894835 152.516257 
L 49.612915 154.211706 
L 49.360269 155.907155 
L 49.125567 157.602603 
L 48.899115 159.298052 
L 48.673962 160.9935 
L 48.44651 162.688949 
L 48.216539 164.384397 
L 47.986712 166.079846 
L 47.761701 167.775294 
L 47.547129 169.470743 
L 47.348548 171.166191 
L 47.170613 172.86164 
L 47.016564 174.557089 
L 46.888038 176.252537 
L 46.785167 177.947986 
L 46.70689 179.643434 
L 46.651354 181.338883 
L 46.61631 183.034331 
L 46.599425 184.72978 
L 46.598471 186.425228 
L 46.611356 188.120677 
L 46.636057 189.816125 
L 46.670459 191.511574 
L 46.712194 193.207022 
L 46.758522 194.902471 
L 46.806302 196.59792 
L 46.852098 198.293368 
L 46.892397 199.988817 
L 46.923927 201.684265 
L 46.944011 203.379714 
L 46.950883 205.075162 
L 46.950883 205.075162 
z
" clip-path="url(#pf36a98849c)" style="fill: none; stroke: #000000; stroke-opacity: 0.3"/>
   </g>
   <g id="FillBetweenPolyCollection_5">
    <path d="M 47.051364 175.293226 
L 45.894091 175.293226 
L 45.899577 174.204244 
L 45.917557 173.115263 
L 45.946269 172.026282 
L 45.983086 170.9373 
L 46.024752 169.848319 
L 46.06767 168.759338 
L 46.108212 167.670356 
L 46.14301 166.581375 
L 46.16921 165.492394 
L 46.184668 164.403412 
L 46.188086 163.314431 
L 46.179071 162.22545 
L 46.158139 161.136468 
L 46.126644 160.047487 
L 46.086636 158.958506 
L 46.040654 157.869524 
L 45.991445 156.780543 
L 45.941629 155.691562 
L 45.893334 154.602581 
L 45.847834 153.513599 
L 45.805228 152.424618 
L 45.764221 151.335637 
L 45.722017 150.246655 
L 45.674378 149.157674 
L 45.615822 148.068693 
L 45.539958 146.979711 
L 45.439899 145.89073 
L 45.308728 144.801749 
L 45.139922 143.712767 
L 44.927732 142.623786 
L 44.667456 141.534805 
L 44.355623 140.445823 
L 43.990078 139.356842 
L 43.570012 138.267861 
L 43.095951 137.178879 
L 42.569734 136.089898 
L 41.994473 135.000917 
L 41.374492 133.911935 
L 40.715224 132.822954 
L 40.02303 131.733973 
L 39.304923 130.644991 
L 38.568211 129.55601 
L 37.820071 128.467029 
L 37.067113 127.378047 
L 36.315006 126.289066 
L 35.568235 125.200085 
L 34.830048 124.111104 
L 34.10261 123.022122 
L 33.38737 121.933141 
L 32.685562 120.84416 
L 31.998775 119.755178 
L 31.329467 118.666197 
L 30.681346 117.577216 
L 30.059522 116.488234 
L 29.470421 115.399253 
L 28.921475 114.310272 
L 28.420664 113.22129 
L 27.976007 112.132309 
L 27.595116 111.043328 
L 27.284906 109.954346 
L 27.051502 108.865365 
L 26.900335 107.776384 
L 26.836364 106.687402 
L 26.864306 105.598421 
L 26.988767 104.50944 
L 27.214147 103.420458 
L 27.544279 102.331477 
L 27.981802 101.242496 
L 28.527341 100.153514 
L 29.178647 99.064533 
L 29.929864 97.975552 
L 30.77108 96.88657 
L 31.688316 95.797589 
L 32.664003 94.708608 
L 33.677923 93.619627 
L 34.708515 92.530645 
L 35.734363 91.441664 
L 36.735668 90.352683 
L 37.695486 89.263701 
L 38.600576 88.17472 
L 39.441768 87.085739 
L 40.213836 85.996757 
L 40.914963 84.907776 
L 41.545925 83.818795 
L 42.109188 82.729813 
L 42.608068 81.640832 
L 43.046103 80.551851 
L 43.426718 79.462869 
L 43.753178 78.373888 
L 44.028798 77.284907 
L 44.257283 76.195925 
L 44.443086 75.106944 
L 44.591664 74.017963 
L 44.70953 72.928981 
L 44.804069 71.84 
L 44.883124 70.751019 
L 44.954422 69.662037 
L 45.024927 68.573056 
L 45.100241 67.484075 
L 47.845213 67.484075 
L 47.845213 67.484075 
L 47.920528 68.573056 
L 47.991032 69.662037 
L 48.06233 70.751019 
L 48.141386 71.84 
L 48.235925 72.928981 
L 48.353791 74.017963 
L 48.502369 75.106944 
L 48.688172 76.195925 
L 48.916656 77.284907 
L 49.192276 78.373888 
L 49.518737 79.462869 
L 49.899351 80.551851 
L 50.337387 81.640832 
L 50.836267 82.729813 
L 51.39953 83.818795 
L 52.030492 84.907776 
L 52.731618 85.996757 
L 53.503686 87.085739 
L 54.344879 88.17472 
L 55.249969 89.263701 
L 56.209787 90.352683 
L 57.211092 91.441664 
L 58.23694 92.530645 
L 59.267531 93.619627 
L 60.281451 94.708608 
L 61.257138 95.797589 
L 62.174375 96.88657 
L 63.01559 97.975552 
L 63.766807 99.064533 
L 64.418114 100.153514 
L 64.963653 101.242496 
L 65.401175 102.331477 
L 65.731308 103.420458 
L 65.956688 104.50944 
L 66.081149 105.598421 
L 66.109091 106.687402 
L 66.045119 107.776384 
L 65.893952 108.865365 
L 65.660548 109.954346 
L 65.350339 111.043328 
L 64.969448 112.132309 
L 64.524791 113.22129 
L 64.02398 114.310272 
L 63.475034 115.399253 
L 62.885932 116.488234 
L 62.264108 117.577216 
L 61.615987 118.666197 
L 60.94668 119.755178 
L 60.259892 120.84416 
L 59.558084 121.933141 
L 58.842844 123.022122 
L 58.115407 124.111104 
L 57.377219 125.200085 
L 56.630449 126.289066 
L 55.878342 127.378047 
L 55.125383 128.467029 
L 54.377243 129.55601 
L 53.640532 130.644991 
L 52.922425 131.733973 
L 52.23023 132.822954 
L 51.570963 133.911935 
L 50.950982 135.000917 
L 50.37572 136.089898 
L 49.849504 137.178879 
L 49.375443 138.267861 
L 48.955376 139.356842 
L 48.589831 140.445823 
L 48.277998 141.534805 
L 48.017723 142.623786 
L 47.805533 143.712767 
L 47.636727 144.801749 
L 47.505555 145.89073 
L 47.405497 146.979711 
L 47.329632 148.068693 
L 47.271077 149.157674 
L 47.223438 150.246655 
L 47.181234 151.335637 
L 47.140226 152.424618 
L 47.097621 153.513599 
L 47.05212 154.602581 
L 47.003826 155.691562 
L 46.95401 156.780543 
L 46.904801 157.869524 
L 46.858819 158.958506 
L 46.818811 160.047487 
L 46.787315 161.136468 
L 46.766383 162.22545 
L 46.757368 163.314431 
L 46.760786 164.403412 
L 46.776245 165.492394 
L 46.802445 166.581375 
L 46.837242 167.670356 
L 46.877784 168.759338 
L 46.920702 169.848319 
L 46.962368 170.9373 
L 46.999185 172.026282 
L 47.027897 173.115263 
L 47.045877 174.204244 
L 47.051364 175.293226 
L 47.051364 175.293226 
z
" clip-path="url(#pf36a98849c)" style="fill: none; stroke: #000000; stroke-opacity: 0.3"/>
   </g>
   <g id="FillBetweenPolyCollection_6">
    <path d="M 47.057043 282.125277 
L 45.888412 282.125277 
L 45.899222 279.335228 
L 45.930467 276.545179 
L 45.978806 273.755129 
L 46.039328 270.96508 
L 46.106375 268.175031 
L 46.174402 265.384982 
L 46.238703 262.594932 
L 46.295875 259.804883 
L 46.343979 257.014834 
L 46.382434 254.224784 
L 46.411725 251.434735 
L 46.433025 248.644686 
L 46.447835 245.854637 
L 46.457692 243.064587 
L 46.463978 240.274538 
L 46.467822 237.484489 
L 46.470074 234.694439 
L 46.471337 231.90439 
L 46.472006 229.114341 
L 46.472321 226.324292 
L 46.472408 223.534242 
L 46.472298 220.744193 
L 46.471937 217.954144 
L 46.471164 215.164094 
L 46.469667 212.374045 
L 46.466911 209.583996 
L 46.462028 206.793947 
L 46.453689 204.003897 
L 46.439943 201.213848 
L 46.418063 198.423799 
L 46.384408 195.633749 
L 46.334347 192.8437 
L 46.262278 190.053651 
L 46.161754 187.263602 
L 46.025746 184.473552 
L 45.846986 181.683503 
L 45.618369 178.893454 
L 45.333324 176.103404 
L 44.986086 173.313355 
L 44.571807 170.523306 
L 44.086485 167.733257 
L 43.526735 164.943207 
L 42.889471 162.153158 
L 42.171607 159.363109 
L 41.36992 156.573059 
L 40.481199 153.78301 
L 39.502837 150.992961 
L 38.433948 148.202912 
L 37.277037 145.412862 
L 36.040113 142.622813 
L 34.738957 139.832764 
L 33.399083 137.042714 
L 32.056765 134.252665 
L 30.758552 131.462616 
L 29.558864 128.672567 
L 28.515672 125.882517 
L 27.684787 123.092468 
L 27.113726 120.302419 
L 26.836364 117.512369 
L 26.869466 114.72232 
L 27.211735 111.932271 
L 27.845357 109.142222 
L 28.739392 106.352172 
L 29.853965 103.562123 
L 31.14422 100.772074 
L 32.563309 97.982024 
L 34.064232 95.191975 
L 35.600833 92.401926 
L 37.128521 89.611877 
L 38.60527 86.821827 
L 39.993163 84.031778 
L 41.260386 81.241729 
L 42.383235 78.451679 
L 43.347614 75.66163 
L 44.149559 72.871581 
L 44.794587 70.081532 
L 45.29598 67.291482 
L 45.672354 64.501433 
L 45.944994 61.711384 
L 46.135399 58.921334 
L 46.263367 56.131285 
L 46.345767 53.341236 
L 46.395972 50.551187 
L 46.423835 47.761137 
L 46.436018 44.971088 
L 46.43653 42.181039 
L 46.42733 39.390989 
L 46.408955 36.60094 
L 46.381133 33.810891 
L 46.343389 31.020842 
L 46.295617 28.230792 
L 46.238594 25.440743 
L 46.174358 22.650694 
L 46.106357 19.860644 
L 46.039321 17.070595 
L 45.978803 14.280546 
L 45.930466 11.490497 
L 45.899222 8.700447 
L 45.888412 5.910398 
L 47.057043 5.910398 
L 47.057043 5.910398 
L 47.046233 8.700447 
L 47.014988 11.490497 
L 46.966651 14.280546 
L 46.906133 17.070595 
L 46.839097 19.860644 
L 46.771097 22.650694 
L 46.70686 25.440743 
L 46.649838 28.230792 
L 46.602066 31.020842 
L 46.564321 33.810891 
L 46.5365 36.60094 
L 46.518125 39.390989 
L 46.508925 42.181039 
L 46.509437 44.971088 
L 46.52162 47.761137 
L 46.549482 50.551187 
L 46.599687 53.341236 
L 46.682087 56.131285 
L 46.810056 58.921334 
L 47.000461 61.711384 
L 47.273101 64.501433 
L 47.649475 67.291482 
L 48.150867 70.081532 
L 48.795895 72.871581 
L 49.59784 75.66163 
L 50.56222 78.451679 
L 51.685068 81.241729 
L 52.952291 84.031778 
L 54.340185 86.821827 
L 55.816934 89.611877 
L 57.344621 92.401926 
L 58.881222 95.191975 
L 60.382145 97.982024 
L 61.801234 100.772074 
L 63.09149 103.562123 
L 64.206063 106.352172 
L 65.100097 109.142222 
L 65.73372 111.932271 
L 66.075989 114.72232 
L 66.109091 117.512369 
L 65.831729 120.302419 
L 65.260668 123.092468 
L 64.429783 125.882517 
L 63.386591 128.672567 
L 62.186903 131.462616 
L 60.88869 134.252665 
L 59.546371 137.042714 
L 58.206497 139.832764 
L 56.905342 142.622813 
L 55.668417 145.412862 
L 54.511506 148.202912 
L 53.442617 150.992961 
L 52.464255 153.78301 
L 51.575534 156.573059 
L 50.773847 159.363109 
L 50.055984 162.153158 
L 49.418719 164.943207 
L 48.858969 167.733257 
L 48.373647 170.523306 
L 47.959368 173.313355 
L 47.61213 176.103404 
L 47.327086 178.893454 
L 47.098468 181.683503 
L 46.919708 184.473552 
L 46.7837 187.263602 
L 46.683177 190.053651 
L 46.611107 192.8437 
L 46.561047 195.633749 
L 46.527391 198.423799 
L 46.505511 201.213848 
L 46.491766 204.003897 
L 46.483427 206.793947 
L 46.478544 209.583996 
L 46.475787 212.374045 
L 46.474291 215.164094 
L 46.473518 217.954144 
L 46.473157 220.744193 
L 46.473047 223.534242 
L 46.473133 226.324292 
L 46.473448 229.114341 
L 46.474117 231.90439 
L 46.47538 234.694439 
L 46.477633 237.484489 
L 46.481476 240.274538 
L 46.487762 243.064587 
L 46.49762 245.854637 
L 46.51243 248.644686 
L 46.533729 251.434735 
L 46.56302 254.224784 
L 46.601476 257.014834 
L 46.64958 259.804883 
L 46.706751 262.594932 
L 46.771052 265.384982 
L 46.83908 268.175031 
L 46.906127 270.96508 
L 46.966649 273.755129 
L 47.014987 276.545179 
L 47.046232 279.335228 
L 47.057043 282.125277 
L 47.057043 282.125277 
z
" clip-path="url(#pf36a98849c)" style="fill: none; stroke: #000000; stroke-opacity: 0.3"/>
   </g>
   <g id="FillBetweenPolyCollection_7">
    <path d="M 49.005084 170.869388 
L 43.940371 170.869388 
L 43.84103 169.99463 
L 43.747277 169.119872 
L 43.65954 168.245114 
L 43.578138 167.370356 
L 43.503282 166.495597 
L 43.435064 165.620839 
L 43.373453 164.746081 
L 43.318293 163.871323 
L 43.269299 162.996565 
L 43.226052 162.121807 
L 43.187991 161.247049 
L 43.154414 160.372291 
L 43.124465 159.497533 
L 43.097131 158.622775 
L 43.071233 157.748017 
L 43.045423 156.873259 
L 43.018171 155.9985 
L 42.987773 155.123742 
L 42.952341 154.248984 
L 42.909814 153.374226 
L 42.857965 152.499468 
L 42.794419 151.62471 
L 42.716677 150.749952 
L 42.622144 149.875194 
L 42.508173 149.000436 
L 42.372111 148.125678 
L 42.211355 147.25092 
L 42.023414 146.376162 
L 41.805974 145.501404 
L 41.556974 144.626645 
L 41.274674 143.751887 
L 40.957728 142.877129 
L 40.605249 142.002371 
L 40.21687 141.127613 
L 39.792793 140.252855 
L 39.333828 139.378097 
L 38.841413 138.503339 
L 38.317622 137.628581 
L 37.765151 136.753823 
L 37.187292 135.879065 
L 36.587877 135.004307 
L 35.971219 134.129548 
L 35.342027 133.25479 
L 34.705315 132.380032 
L 34.066295 131.505274 
L 33.430269 130.630516 
L 32.802521 129.755758 
L 32.188203 128.881 
L 31.592234 128.006242 
L 31.019211 127.131484 
L 30.473324 126.256726 
L 29.958295 125.381968 
L 29.477334 124.50721 
L 29.033108 123.632451 
L 28.627733 122.757693 
L 28.262784 121.882935 
L 27.939315 121.008177 
L 27.657902 120.133419 
L 27.418682 119.258661 
L 27.221415 118.383903 
L 27.065535 117.509145 
L 26.950211 116.634387 
L 26.8744 115.759629 
L 26.836894 114.884871 
L 26.836364 114.010113 
L 26.871392 113.135355 
L 26.940495 112.260596 
L 27.042144 111.385838 
L 27.17477 110.51108 
L 27.33677 109.636322 
L 27.526509 108.761564 
L 27.742317 107.886806 
L 27.982492 107.012048 
L 28.245303 106.13729 
L 28.528999 105.262532 
L 28.831819 104.387774 
L 29.152014 103.513016 
L 29.487869 102.638258 
L 29.837727 101.763499 
L 30.200024 100.888741 
L 30.573312 100.013983 
L 30.956291 99.139225 
L 31.347828 98.264467 
L 31.746972 97.389709 
L 32.152964 96.514951 
L 32.565234 95.640193 
L 32.983383 94.765435 
L 33.407167 93.890677 
L 33.836455 93.015919 
L 34.271197 92.141161 
L 34.711372 91.266402 
L 35.156936 90.391644 
L 35.607778 89.516886 
L 36.063665 88.642128 
L 36.524206 87.76737 
L 36.988811 86.892612 
L 37.456671 86.017854 
L 37.926743 85.143096 
L 38.397749 84.268338 
L 54.547705 84.268338 
L 54.547705 84.268338 
L 55.018712 85.143096 
L 55.488784 86.017854 
L 55.956643 86.892612 
L 56.421248 87.76737 
L 56.881789 88.642128 
L 57.337677 89.516886 
L 57.788518 90.391644 
L 58.234083 91.266402 
L 58.674257 92.141161 
L 59.108999 93.015919 
L 59.538288 93.890677 
L 59.962071 94.765435 
L 60.380221 95.640193 
L 60.79249 96.514951 
L 61.198483 97.389709 
L 61.597627 98.264467 
L 61.989163 99.139225 
L 62.372142 100.013983 
L 62.745431 100.888741 
L 63.107727 101.763499 
L 63.457586 102.638258 
L 63.79344 103.513016 
L 64.113636 104.387774 
L 64.416456 105.262532 
L 64.700152 106.13729 
L 64.962963 107.012048 
L 65.203138 107.886806 
L 65.418945 108.761564 
L 65.608684 109.636322 
L 65.770684 110.51108 
L 65.90331 111.385838 
L 66.004959 112.260596 
L 66.074063 113.135355 
L 66.109091 114.010113 
L 66.108561 114.884871 
L 66.071055 115.759629 
L 65.995243 116.634387 
L 65.879919 117.509145 
L 65.72404 118.383903 
L 65.526772 119.258661 
L 65.287553 120.133419 
L 65.006139 121.008177 
L 64.682671 121.882935 
L 64.317722 122.757693 
L 63.912347 123.632451 
L 63.468121 124.50721 
L 62.98716 125.381968 
L 62.472131 126.256726 
L 61.926244 127.131484 
L 61.35322 128.006242 
L 60.757252 128.881 
L 60.142933 129.755758 
L 59.515185 130.630516 
L 58.87916 131.505274 
L 58.240139 132.380032 
L 57.603427 133.25479 
L 56.974236 134.129548 
L 56.357578 135.004307 
L 55.758163 135.879065 
L 55.180303 136.753823 
L 54.627833 137.628581 
L 54.104042 138.503339 
L 53.611626 139.378097 
L 53.152661 140.252855 
L 52.728584 141.127613 
L 52.340205 142.002371 
L 51.987726 142.877129 
L 51.67078 143.751887 
L 51.388481 144.626645 
L 51.139481 145.501404 
L 50.922041 146.376162 
L 50.734099 147.25092 
L 50.573343 148.125678 
L 50.437282 149.000436 
L 50.323311 149.875194 
L 50.228778 150.749952 
L 50.151035 151.62471 
L 50.08749 152.499468 
L 50.035641 153.374226 
L 49.993114 154.248984 
L 49.957681 155.123742 
L 49.927283 155.9985 
L 49.900032 156.873259 
L 49.874221 157.748017 
L 49.848324 158.622775 
L 49.82099 159.497533 
L 49.791041 160.372291 
L 49.757464 161.247049 
L 49.719403 162.121807 
L 49.676155 162.996565 
L 49.627161 163.871323 
L 49.572002 164.746081 
L 49.510391 165.620839 
L 49.442172 166.495597 
L 49.367316 167.370356 
L 49.285915 168.245114 
L 49.198177 169.119872 
L 49.104424 169.99463 
L 49.005084 170.869388 
L 49.005084 170.869388 
z
" clip-path="url(#pf36a98849c)" style="fill: none; stroke: #000000; stroke-opacity: 0.3"/>
   </g>
   <g id="FillBetweenPolyCollection_8">
    <path d="M 112.845422 226.185012 
L 111.009124 226.185012 
L 110.856741 224.997603 
L 110.690795 223.810195 
L 110.510929 222.622787 
L 110.31651 221.435379 
L 110.106589 220.247971 
L 109.879941 219.060562 
L 109.635188 217.873154 
L 109.371027 216.685746 
L 109.086526 215.498338 
L 108.781456 214.31093 
L 108.456575 213.123522 
L 108.113801 211.936113 
L 107.756188 210.748705 
L 107.387682 209.561297 
L 107.012644 208.373889 
L 106.635208 207.186481 
L 106.258543 205.999072 
L 105.884169 204.811664 
L 105.511423 203.624256 
L 105.137181 202.436848 
L 104.755886 201.24944 
L 104.359887 200.062031 
L 103.940036 198.874623 
L 103.486483 197.687215 
L 102.989578 196.499807 
L 102.440822 195.312399 
L 101.833806 194.124991 
L 101.165115 192.937582 
L 100.43514 191.750174 
L 99.648747 190.562766 
L 98.815704 189.375358 
L 97.95075 188.18795 
L 97.073201 187.000541 
L 96.206024 185.813133 
L 95.374393 184.625725 
L 94.603858 183.438317 
L 93.918337 182.250909 
L 93.338226 181.063501 
L 92.878905 179.876092 
L 92.549867 178.688684 
L 92.354559 177.501276 
L 92.290909 176.313868 
L 92.352343 175.12646 
L 92.529056 173.939051 
L 92.809259 172.751643 
L 93.180182 171.564235 
L 93.62873 170.376827 
L 94.141799 169.189419 
L 94.706358 168.00201 
L 95.309472 166.814602 
L 95.938405 165.627194 
L 96.580937 164.439786 
L 97.225869 163.252378 
L 97.863664 162.06497 
L 98.487048 160.877561 
L 99.091425 159.690153 
L 99.674953 158.502745 
L 100.238233 157.315337 
L 100.783644 156.127929 
L 101.314453 154.94052 
L 101.83387 153.753112 
L 102.344244 152.565704 
L 102.846564 151.378296 
L 103.340319 150.190888 
L 103.82375 149.00348 
L 104.29437 147.816071 
L 104.749636 146.628663 
L 105.187592 145.441255 
L 105.607346 144.253847 
L 106.009268 143.066439 
L 106.394892 141.87903 
L 106.766547 140.691622 
L 107.126828 139.504214 
L 107.478027 138.316806 
L 107.821641 137.129398 
L 108.158081 135.94199 
L 108.486596 134.754581 
L 108.805416 133.567173 
L 109.112057 132.379765 
L 109.403701 131.192357 
L 109.677567 130.004949 
L 109.931214 128.81754 
L 110.16274 127.630132 
L 110.370889 126.442724 
L 110.555076 125.255316 
L 110.71537 124.067908 
L 110.85246 122.880499 
L 110.96761 121.693091 
L 111.062617 120.505683 
L 111.139743 119.318275 
L 111.201634 118.130867 
L 111.251195 116.943459 
L 111.291454 115.75605 
L 111.32539 114.568642 
L 111.355774 113.381234 
L 111.385013 112.193826 
L 111.415025 111.006418 
L 111.447153 109.819009 
L 111.482127 108.631601 
L 112.372419 108.631601 
L 112.372419 108.631601 
L 112.407393 109.819009 
L 112.439521 111.006418 
L 112.469532 112.193826 
L 112.498771 113.381234 
L 112.529155 114.568642 
L 112.563092 115.75605 
L 112.60335 116.943459 
L 112.652912 118.130867 
L 112.714802 119.318275 
L 112.791929 120.505683 
L 112.886935 121.693091 
L 113.002086 122.880499 
L 113.139175 124.067908 
L 113.29947 125.255316 
L 113.483657 126.442724 
L 113.691806 127.630132 
L 113.923332 128.81754 
L 114.176978 130.004949 
L 114.450845 131.192357 
L 114.742489 132.379765 
L 115.04913 133.567173 
L 115.367949 134.754581 
L 115.696464 135.94199 
L 116.032905 137.129398 
L 116.376519 138.316806 
L 116.727717 139.504214 
L 117.087999 140.691622 
L 117.459654 141.87903 
L 117.845277 143.066439 
L 118.247199 144.253847 
L 118.666953 145.441255 
L 119.10491 146.628663 
L 119.560175 147.816071 
L 120.030795 149.00348 
L 120.514226 150.190888 
L 121.007982 151.378296 
L 121.510301 152.565704 
L 122.020676 153.753112 
L 122.540092 154.94052 
L 123.070901 156.127929 
L 123.616313 157.315337 
L 124.179592 158.502745 
L 124.76312 159.690153 
L 125.367497 160.877561 
L 125.990882 162.06497 
L 126.628676 163.252378 
L 127.273609 164.439786 
L 127.91614 165.627194 
L 128.545074 166.814602 
L 129.148187 168.00201 
L 129.712747 169.189419 
L 130.225816 170.376827 
L 130.674364 171.564235 
L 131.045286 172.751643 
L 131.325489 173.939051 
L 131.502203 175.12646 
L 131.563636 176.313868 
L 131.499986 177.501276 
L 131.304679 178.688684 
L 130.975641 179.876092 
L 130.51632 181.063501 
L 129.936208 182.250909 
L 129.250687 183.438317 
L 128.480152 184.625725 
L 127.648522 185.813133 
L 126.781345 187.000541 
L 125.903796 188.18795 
L 125.038841 189.375358 
L 124.205798 190.562766 
L 123.419405 191.750174 
L 122.68943 192.937582 
L 122.020739 194.124991 
L 121.413723 195.312399 
L 120.864967 196.499807 
L 120.368063 197.687215 
L 119.91451 198.874623 
L 119.494658 200.062031 
L 119.098659 201.24944 
L 118.717364 202.436848 
L 118.343122 203.624256 
L 117.970377 204.811664 
L 117.596003 205.999072 
L 117.219338 207.186481 
L 116.841901 208.373889 
L 116.466864 209.561297 
L 116.098357 210.748705 
L 115.740744 211.936113 
L 115.39797 213.123522 
L 115.07309 214.31093 
L 114.768019 215.498338 
L 114.483519 216.685746 
L 114.219357 217.873154 
L 113.974605 219.060562 
L 113.747957 220.247971 
L 113.538036 221.435379 
L 113.343616 222.622787 
L 113.16375 223.810195 
L 112.997805 224.997603 
L 112.845422 226.185012 
L 112.845422 226.185012 
z
" clip-path="url(#pf36a98849c)" style="fill: none; stroke: #000000; stroke-opacity: 0.3"/>
   </g>
   <g id="FillBetweenPolyCollection_9">
    <path d="M 112.300481 313.997067 
L 111.554065 313.997067 
L 111.556158 312.007655 
L 111.568601 310.018244 
L 111.588323 308.028833 
L 111.611197 306.039421 
L 111.632717 304.05001 
L 111.648763 302.060599 
L 111.656307 300.071188 
L 111.653931 298.081776 
L 111.642072 296.092365 
L 111.622936 294.102954 
L 111.600117 292.113543 
L 111.577958 290.124131 
L 111.560787 288.13472 
L 111.552152 286.145309 
L 111.554196 284.155897 
L 111.567293 282.166486 
L 111.589995 280.177075 
L 111.619294 278.187664 
L 111.651129 276.198252 
L 111.681041 274.208841 
L 111.704845 272.21943 
L 111.719231 270.230019 
L 111.722212 268.240607 
L 111.713387 266.251196 
L 111.693995 264.261785 
L 111.666768 262.272373 
L 111.635575 260.282962 
L 111.604908 258.293551 
L 111.579245 256.30414 
L 111.562378 254.314728 
L 111.556819 252.325317 
L 111.563374 250.335906 
L 111.580967 248.346494 
L 111.60672 246.357083 
L 111.636274 244.367672 
L 111.664241 242.378261 
L 111.684706 240.388849 
L 111.691689 238.399438 
L 111.679519 236.410027 
L 111.643109 234.420616 
L 111.578161 232.431204 
L 111.481301 230.441793 
L 111.350139 228.452382 
L 111.18322 226.46297 
L 110.979807 224.473559 
L 110.739461 222.484148 
L 110.461436 220.494737 
L 110.143978 218.505325 
L 109.783678 216.515914 
L 109.375063 214.526503 
L 108.910602 212.537092 
L 108.381201 210.54768 
L 107.777205 208.558269 
L 107.089782 206.568858 
L 106.312518 204.579446 
L 105.442977 202.590035 
L 104.484033 200.600624 
L 103.44472 198.611213 
L 102.340481 196.621801 
L 101.192654 194.63239 
L 100.02719 192.642979 
L 98.872686 190.653567 
L 97.757953 188.664156 
L 96.709507 186.674745 
L 95.749434 184.685334 
L 94.894057 182.695922 
L 94.153709 180.706511 
L 93.533636 178.7171 
L 93.035799 176.727689 
L 92.661096 174.738277 
L 92.411406 172.748866 
L 92.290909 170.759455 
L 92.306314 168.770043 
L 92.465914 166.780632 
L 92.777704 164.791221 
L 93.247002 162.80181 
L 93.874157 160.812398 
L 94.652876 158.822987 
L 95.569511 156.833576 
L 96.603442 154.844165 
L 97.728397 152.854753 
L 98.914389 150.865342 
L 100.129888 148.875931 
L 101.343883 146.886519 
L 102.527616 144.897108 
L 103.65591 142.907697 
L 104.708128 140.918286 
L 105.66883 138.928874 
L 106.528165 136.939463 
L 107.282006 134.950052 
L 107.931769 132.960641 
L 108.483861 130.971229 
L 108.948728 128.981818 
L 109.339547 126.992407 
L 109.670694 125.002995 
L 109.95618 123.013584 
L 110.208266 121.024173 
L 110.43647 119.034762 
L 110.647097 117.04535 
L 113.207449 117.04535 
L 113.207449 117.04535 
L 113.418075 119.034762 
L 113.64628 121.024173 
L 113.898365 123.013584 
L 114.183851 125.002995 
L 114.514999 126.992407 
L 114.905817 128.981818 
L 115.370684 130.971229 
L 115.922777 132.960641 
L 116.57254 134.950052 
L 117.32638 136.939463 
L 118.185715 138.928874 
L 119.146417 140.918286 
L 120.198636 142.907697 
L 121.326929 144.897108 
L 122.510662 146.886519 
L 123.724658 148.875931 
L 124.940157 150.865342 
L 126.126148 152.854753 
L 127.251103 154.844165 
L 128.285035 156.833576 
L 129.20167 158.822987 
L 129.980388 160.812398 
L 130.607544 162.80181 
L 131.076841 164.791221 
L 131.388631 166.780632 
L 131.548232 168.770043 
L 131.563636 170.759455 
L 131.44314 172.748866 
L 131.193449 174.738277 
L 130.818746 176.727689 
L 130.320909 178.7171 
L 129.700837 180.706511 
L 128.960489 182.695922 
L 128.105112 184.685334 
L 127.145038 186.674745 
L 126.096592 188.664156 
L 124.981859 190.653567 
L 123.827355 192.642979 
L 122.661892 194.63239 
L 121.514064 196.621801 
L 120.409825 198.611213 
L 119.370513 200.600624 
L 118.411568 202.590035 
L 117.542028 204.579446 
L 116.764763 206.568858 
L 116.077341 208.558269 
L 115.473344 210.54768 
L 114.943943 212.537092 
L 114.479482 214.526503 
L 114.070868 216.515914 
L 113.710567 218.505325 
L 113.393109 220.494737 
L 113.115084 222.484148 
L 112.874738 224.473559 
L 112.671325 226.46297 
L 112.504406 228.452382 
L 112.373244 230.441793 
L 112.276384 232.431204 
L 112.211437 234.420616 
L 112.175027 236.410027 
L 112.162856 238.399438 
L 112.16984 240.388849 
L 112.190305 242.378261 
L 112.218271 244.367672 
L 112.247825 246.357083 
L 112.273579 248.346494 
L 112.291171 250.335906 
L 112.297727 252.325317 
L 112.292168 254.314728 
L 112.275301 256.30414 
L 112.249637 258.293551 
L 112.218971 260.282962 
L 112.187778 262.272373 
L 112.16055 264.261785 
L 112.141158 266.251196 
L 112.132333 268.240607 
L 112.135314 270.230019 
L 112.1497 272.21943 
L 112.173505 274.208841 
L 112.203417 276.198252 
L 112.235252 278.187664 
L 112.26455 280.177075 
L 112.287252 282.166486 
L 112.300349 284.155897 
L 112.302394 286.145309 
L 112.293758 288.13472 
L 112.276587 290.124131 
L 112.254428 292.113543 
L 112.231609 294.102954 
L 112.212474 296.092365 
L 112.200614 298.081776 
L 112.198239 300.071188 
L 112.205782 302.060599 
L 112.221828 304.05001 
L 112.243348 306.039421 
L 112.266222 308.028833 
L 112.285944 310.018244 
L 112.298387 312.007655 
L 112.300481 313.997067 
L 112.300481 313.997067 
z
" clip-path="url(#pf36a98849c)" style="fill: none; stroke: #000000; stroke-opacity: 0.3"/>
   </g>
   <g id="FillBetweenPolyCollection_10">
    <path d="M 112.460865 276.015555 
L 111.393681 276.015555 
L 111.40153 274.362303 
L 111.424391 272.709051 
L 111.460306 271.055798 
L 111.506318 269.402546 
L 111.558876 267.749294 
L 111.614283 266.096042 
L 111.669113 264.442789 
L 111.720535 262.789537 
L 111.766505 261.136285 
L 111.805813 259.483032 
L 111.838007 257.82978 
L 111.863229 256.176528 
L 111.882001 254.523276 
L 111.894991 252.870023 
L 111.902807 251.216771 
L 111.905805 249.563519 
L 111.903937 247.910266 
L 111.896627 246.257014 
L 111.882683 244.603762 
L 111.860233 242.950509 
L 111.826714 241.297257 
L 111.778908 239.644005 
L 111.713053 237.990753 
L 111.625025 236.3375 
L 111.510611 234.684248 
L 111.365832 233.030996 
L 111.187301 231.377743 
L 110.972555 229.724491 
L 110.720309 228.071239 
L 110.430567 226.417987 
L 110.104547 224.764734 
L 109.744404 223.111482 
L 109.352733 221.45823 
L 108.931921 219.804977 
L 108.483403 218.151725 
L 108.006944 216.498473 
L 107.500071 214.845221 
L 106.957812 213.191968 
L 106.372857 211.538716 
L 105.736266 209.885464 
L 105.038713 208.232211 
L 104.2722 206.578959 
L 103.43202 204.925707 
L 102.51866 203.272455 
L 101.539257 201.619202 
L 100.508254 199.96595 
L 99.446989 198.312698 
L 98.38218 196.659445 
L 97.343452 195.006193 
L 96.360325 193.352941 
L 95.459168 191.699689 
L 94.660693 190.046436 
L 93.978411 188.393184 
L 93.418286 186.739932 
L 92.979545 185.086679 
L 92.656378 183.433427 
L 92.440074 181.780175 
L 92.321128 180.126923 
L 92.290909 178.47367 
L 92.342627 176.820418 
L 92.471548 175.167166 
L 92.674583 173.513913 
L 92.949502 171.860661 
L 93.294081 170.207409 
L 93.705437 168.554156 
L 94.179753 166.900904 
L 94.712406 165.247652 
L 95.298423 163.5944 
L 95.93306 161.941147 
L 96.612278 160.287895 
L 97.332924 158.634643 
L 98.092482 156.98139 
L 98.888451 155.328138 
L 99.717453 153.674886 
L 100.574318 152.021634 
L 101.451387 150.368381 
L 102.338237 148.715129 
L 103.221931 147.061877 
L 104.087789 145.408624 
L 104.920551 143.755372 
L 105.705728 142.10212 
L 106.430924 140.448868 
L 107.086913 138.795615 
L 107.668313 137.142363 
L 108.173813 135.489111 
L 108.605924 133.835858 
L 108.97036 132.182606 
L 109.275152 130.529354 
L 109.529646 128.876102 
L 109.743533 127.222849 
L 109.926025 125.569597 
L 110.085267 123.916345 
L 110.228005 122.263092 
L 110.359503 120.60984 
L 110.483643 118.956588 
L 110.603126 117.303336 
L 110.719696 115.650083 
L 110.834335 113.996831 
L 110.947389 112.343579 
L 112.907157 112.343579 
L 112.907157 112.343579 
L 113.020211 113.996831 
L 113.134849 115.650083 
L 113.251419 117.303336 
L 113.370902 118.956588 
L 113.495043 120.60984 
L 113.626541 122.263092 
L 113.769278 123.916345 
L 113.92852 125.569597 
L 114.111012 127.222849 
L 114.324899 128.876102 
L 114.579393 130.529354 
L 114.884185 132.182606 
L 115.248621 133.835858 
L 115.680733 135.489111 
L 116.186232 137.142363 
L 116.767633 138.795615 
L 117.423621 140.448868 
L 118.148818 142.10212 
L 118.933995 143.755372 
L 119.766756 145.408624 
L 120.632615 147.061877 
L 121.516309 148.715129 
L 122.403158 150.368381 
L 123.280228 152.021634 
L 124.137092 153.674886 
L 124.966094 155.328138 
L 125.762063 156.98139 
L 126.521622 158.634643 
L 127.242267 160.287895 
L 127.921486 161.941147 
L 128.556122 163.5944 
L 129.142139 165.247652 
L 129.674793 166.900904 
L 130.149109 168.554156 
L 130.560465 170.207409 
L 130.905043 171.860661 
L 131.179963 173.513913 
L 131.382998 175.167166 
L 131.511918 176.820418 
L 131.563636 178.47367 
L 131.533418 180.126923 
L 131.414472 181.780175 
L 131.198167 183.433427 
L 130.875 185.086679 
L 130.43626 186.739932 
L 129.876134 188.393184 
L 129.193852 190.046436 
L 128.395378 191.699689 
L 127.494221 193.352941 
L 126.511093 195.006193 
L 125.472366 196.659445 
L 124.407556 198.312698 
L 123.346292 199.96595 
L 122.315288 201.619202 
L 121.335885 203.272455 
L 120.422525 204.925707 
L 119.582345 206.578959 
L 118.815832 208.232211 
L 118.11828 209.885464 
L 117.481689 211.538716 
L 116.896734 213.191968 
L 116.354474 214.845221 
L 115.847602 216.498473 
L 115.371143 218.151725 
L 114.922625 219.804977 
L 114.501812 221.45823 
L 114.110141 223.111482 
L 113.749998 224.764734 
L 113.423979 226.417987 
L 113.134236 228.071239 
L 112.88199 229.724491 
L 112.667244 231.377743 
L 112.488714 233.030996 
L 112.343935 234.684248 
L 112.22952 236.3375 
L 112.141493 237.990753 
L 112.075637 239.644005 
L 112.027832 241.297257 
L 111.994313 242.950509 
L 111.971863 244.603762 
L 111.957918 246.257014 
L 111.950609 247.910266 
L 111.94874 249.563519 
L 111.951738 251.216771 
L 111.959555 252.870023 
L 111.972545 254.523276 
L 111.991316 256.176528 
L 112.016539 257.82978 
L 112.048733 259.483032 
L 112.08804 261.136285 
L 112.13401 262.789537 
L 112.185432 264.442789 
L 112.240262 266.096042 
L 112.295669 267.749294 
L 112.348228 269.402546 
L 112.39424 271.055798 
L 112.430154 272.709051 
L 112.453016 274.362303 
L 112.460865 276.015555 
L 112.460865 276.015555 
z
" clip-path="url(#pf36a98849c)" style="fill: none; stroke: #000000; stroke-opacity: 0.3"/>
   </g>
   <g id="FillBetweenPolyCollection_11">
    <path d="M 112.543745 264.482899 
L 111.3108 264.482899 
L 111.318592 262.945419 
L 111.341381 261.407938 
L 111.377483 259.870457 
L 111.424318 258.332977 
L 111.47872 256.795496 
L 111.537283 255.258016 
L 111.596712 253.720535 
L 111.65411 252.183055 
L 111.707187 250.645574 
L 111.754352 249.108094 
L 111.794719 247.570613 
L 111.828013 246.033132 
L 111.854428 244.495652 
L 111.874447 242.958171 
L 111.888654 241.420691 
L 111.897552 239.88321 
L 111.901387 238.34573 
L 111.900003 236.808249 
L 111.892695 235.270769 
L 111.878089 233.733288 
L 111.854034 232.195807 
L 111.817534 230.658327 
L 111.764725 229.120846 
L 111.690931 227.583366 
L 111.590819 226.045885 
L 111.458666 224.508405 
L 111.288741 222.970924 
L 111.075775 221.433444 
L 110.815469 219.895963 
L 110.504969 218.358482 
L 110.143213 216.821002 
L 109.731071 215.283521 
L 109.271219 213.746041 
L 108.767719 212.20856 
L 108.225355 210.67108 
L 107.64881 209.133599 
L 107.041848 207.596118 
L 106.406641 206.058638 
L 105.743407 204.521157 
L 105.050454 202.983677 
L 104.324665 201.446196 
L 103.56235 199.908716 
L 102.760354 198.371235 
L 101.917229 196.833755 
L 101.034287 195.296274 
L 100.116387 193.758793 
L 99.172344 192.221313 
L 98.214938 190.683832 
L 97.26057 189.146352 
L 96.328634 187.608871 
L 95.440718 186.071391 
L 94.619705 184.53391 
L 93.888844 182.99643 
L 93.270807 181.458949 
L 92.786715 179.921468 
L 92.455117 178.383988 
L 92.290909 176.846507 
L 92.304229 175.309027 
L 92.49939 173.771546 
L 92.873987 172.234066 
L 93.418325 170.696585 
L 94.115335 169.159105 
L 94.941107 167.621624 
L 95.866085 166.084143 
L 96.856899 164.546663 
L 97.878672 163.009182 
L 98.897568 161.471702 
L 99.883282 159.934221 
L 100.811167 158.396741 
L 101.663725 156.85926 
L 102.431303 155.32178 
L 103.111943 153.784299 
L 103.710459 152.246818 
L 104.236923 150.709338 
L 104.704819 149.171857 
L 105.129123 147.634377 
L 105.524553 146.096896 
L 105.904169 144.559416 
L 106.278398 143.021935 
L 106.654516 141.484455 
L 107.036513 139.946974 
L 107.425261 138.409493 
L 107.818897 136.872013 
L 108.213325 135.334532 
L 108.602794 133.797052 
L 108.980522 132.259571 
L 109.33934 130.722091 
L 109.672346 129.18461 
L 109.973545 127.647129 
L 110.238418 126.109649 
L 110.464367 124.572168 
L 110.650994 123.034688 
L 110.800141 121.497207 
L 110.9157 119.959727 
L 111.003196 118.422246 
L 111.06919 116.884766 
L 111.120595 115.347285 
L 111.163979 113.809804 
L 111.204967 112.272324 
L 112.649578 112.272324 
L 112.649578 112.272324 
L 112.690567 113.809804 
L 112.733951 115.347285 
L 112.785355 116.884766 
L 112.851349 118.422246 
L 112.938845 119.959727 
L 113.054405 121.497207 
L 113.203551 123.034688 
L 113.390178 124.572168 
L 113.616128 126.109649 
L 113.881 127.647129 
L 114.1822 129.18461 
L 114.515206 130.722091 
L 114.874023 132.259571 
L 115.251751 133.797052 
L 115.641221 135.334532 
L 116.035649 136.872013 
L 116.429285 138.409493 
L 116.818033 139.946974 
L 117.200029 141.484455 
L 117.576147 143.021935 
L 117.950377 144.559416 
L 118.329992 146.096896 
L 118.725423 147.634377 
L 119.149727 149.171857 
L 119.617622 150.709338 
L 120.144086 152.246818 
L 120.742602 153.784299 
L 121.423242 155.32178 
L 122.19082 156.85926 
L 123.043378 158.396741 
L 123.971263 159.934221 
L 124.956978 161.471702 
L 125.975873 163.009182 
L 126.997646 164.546663 
L 127.98846 166.084143 
L 128.913439 167.621624 
L 129.73921 169.159105 
L 130.436221 170.696585 
L 130.980558 172.234066 
L 131.355155 173.771546 
L 131.550316 175.309027 
L 131.563636 176.846507 
L 131.399428 178.383988 
L 131.06783 179.921468 
L 130.583738 181.458949 
L 129.965702 182.99643 
L 129.234841 184.53391 
L 128.413827 186.071391 
L 127.525911 187.608871 
L 126.593976 189.146352 
L 125.639608 190.683832 
L 124.682201 192.221313 
L 123.738158 193.758793 
L 122.820259 195.296274 
L 121.937317 196.833755 
L 121.094191 198.371235 
L 120.292195 199.908716 
L 119.52988 201.446196 
L 118.804091 202.983677 
L 118.111139 204.521157 
L 117.447904 206.058638 
L 116.812697 207.596118 
L 116.205736 209.133599 
L 115.629191 210.67108 
L 115.086826 212.20856 
L 114.583326 213.746041 
L 114.123474 215.283521 
L 113.711333 216.821002 
L 113.349576 218.358482 
L 113.039076 219.895963 
L 112.778771 221.433444 
L 112.565805 222.970924 
L 112.39588 224.508405 
L 112.263727 226.045885 
L 112.163615 227.583366 
L 112.089821 229.120846 
L 112.037011 230.658327 
L 112.000512 232.195807 
L 111.976457 233.733288 
L 111.96185 235.270769 
L 111.954543 236.808249 
L 111.953159 238.34573 
L 111.956994 239.88321 
L 111.965891 241.420691 
L 111.980099 242.958171 
L 112.000118 244.495652 
L 112.026533 246.033132 
L 112.059826 247.570613 
L 112.100193 249.108094 
L 112.147359 250.645574 
L 112.200435 252.183055 
L 112.257833 253.720535 
L 112.317262 255.258016 
L 112.375825 256.795496 
L 112.430227 258.332977 
L 112.477063 259.870457 
L 112.513164 261.407938 
L 112.535953 262.945419 
L 112.543745 264.482899 
L 112.543745 264.482899 
z
" clip-path="url(#pf36a98849c)" style="fill: none; stroke: #000000; stroke-opacity: 0.3"/>
   </g>
   <g id="FillBetweenPolyCollection_12">
    <path d="M 113.601045 220.676573 
L 110.253501 220.676573 
L 110.019978 219.726454 
L 109.763214 218.776335 
L 109.482178 217.826217 
L 109.176221 216.876098 
L 108.845234 215.925979 
L 108.489803 214.975861 
L 108.111344 214.025742 
L 107.712218 213.075623 
L 107.29578 212.125505 
L 106.866375 211.175386 
L 106.429241 210.225267 
L 105.990336 209.275149 
L 105.556069 208.32503 
L 105.132954 207.374911 
L 104.727197 206.424793 
L 104.344249 205.474674 
L 103.988352 204.524555 
L 103.662115 203.574437 
L 103.366165 202.624318 
L 103.098907 201.674199 
L 102.856432 200.724081 
L 102.632582 199.773962 
L 102.419202 198.823843 
L 102.206557 197.873725 
L 101.983904 196.923606 
L 101.740187 195.973488 
L 101.464789 195.023369 
L 101.148318 194.07325 
L 100.783335 193.123132 
L 100.36498 192.173013 
L 99.891454 191.222894 
L 99.364291 190.272776 
L 98.788423 189.322657 
L 98.172004 188.372538 
L 97.526028 187.42242 
L 96.863744 186.472301 
L 96.199935 185.522182 
L 95.550096 184.572064 
L 94.929586 183.621945 
L 94.35281 182.671826 
L 93.832495 181.721708 
L 93.379108 180.771589 
L 93.000455 179.82147 
L 92.701489 178.871352 
L 92.484316 177.921233 
L 92.348396 176.971114 
L 92.290909 176.020996 
L 92.307227 175.070877 
L 92.39145 174.120758 
L 92.536954 173.17064 
L 92.736878 172.220521 
L 92.984531 171.270402 
L 93.273671 170.320284 
L 93.598649 169.370165 
L 93.954422 168.420046 
L 94.336455 167.469928 
L 94.740541 166.519809 
L 95.162589 165.569691 
L 95.598415 164.619572 
L 96.043593 163.669453 
L 96.493381 162.719335 
L 96.942762 161.769216 
L 97.386596 160.819097 
L 97.819873 159.868979 
L 98.238048 158.91886 
L 98.63741 157.968741 
L 99.015448 157.018623 
L 99.37116 156.068504 
L 99.705259 155.118385 
L 100.020245 154.168267 
L 100.320315 153.218148 
L 100.611114 152.268029 
L 100.899339 151.317911 
L 101.192226 150.367792 
L 101.496975 149.417673 
L 101.820157 148.467555 
L 102.167167 147.517436 
L 102.541776 146.567317 
L 102.945818 145.617199 
L 103.379043 144.66708 
L 103.839147 143.716961 
L 104.321955 142.766843 
L 104.821754 141.816724 
L 105.331723 140.866605 
L 105.844417 139.916487 
L 106.352267 138.966368 
L 106.848042 138.01625 
L 107.325257 137.066131 
L 107.778468 136.116012 
L 108.203482 135.165894 
L 108.597445 134.215775 
L 108.958827 133.265656 
L 109.287328 132.315538 
L 109.583709 131.365419 
L 109.849578 130.4153 
L 110.087158 129.465182 
L 110.299047 128.515063 
L 110.488007 127.564944 
L 110.65677 126.614826 
L 113.197776 126.614826 
L 113.197776 126.614826 
L 113.366538 127.564944 
L 113.555498 128.515063 
L 113.767388 129.465182 
L 114.004967 130.4153 
L 114.270836 131.365419 
L 114.567217 132.315538 
L 114.895719 133.265656 
L 115.257101 134.215775 
L 115.651063 135.165894 
L 116.076078 136.116012 
L 116.529289 137.066131 
L 117.006503 138.01625 
L 117.502279 138.966368 
L 118.010128 139.916487 
L 118.522822 140.866605 
L 119.032791 141.816724 
L 119.532591 142.766843 
L 120.015398 143.716961 
L 120.475502 144.66708 
L 120.908728 145.617199 
L 121.31277 146.567317 
L 121.687379 147.517436 
L 122.034388 148.467555 
L 122.35757 149.417673 
L 122.662319 150.367792 
L 122.955207 151.317911 
L 123.243431 152.268029 
L 123.53423 153.218148 
L 123.8343 154.168267 
L 124.149287 155.118385 
L 124.483386 156.068504 
L 124.839098 157.018623 
L 125.217136 157.968741 
L 125.616497 158.91886 
L 126.034672 159.868979 
L 126.467949 160.819097 
L 126.911784 161.769216 
L 127.361165 162.719335 
L 127.810953 163.669453 
L 128.25613 164.619572 
L 128.691957 165.569691 
L 129.114004 166.519809 
L 129.51809 167.469928 
L 129.900123 168.420046 
L 130.255897 169.370165 
L 130.580875 170.320284 
L 130.870014 171.270402 
L 131.117667 172.220521 
L 131.317591 173.17064 
L 131.463095 174.120758 
L 131.547319 175.070877 
L 131.563636 176.020996 
L 131.506149 176.971114 
L 131.37023 177.921233 
L 131.153056 178.871352 
L 130.85409 179.82147 
L 130.475438 180.771589 
L 130.022051 181.721708 
L 129.501735 182.671826 
L 128.92496 183.621945 
L 128.30445 184.572064 
L 127.654611 185.522182 
L 126.990801 186.472301 
L 126.328517 187.42242 
L 125.682541 188.372538 
L 125.066123 189.322657 
L 124.490254 190.272776 
L 123.963092 191.222894 
L 123.489565 192.173013 
L 123.071211 193.123132 
L 122.706227 194.07325 
L 122.389757 195.023369 
L 122.114359 195.973488 
L 121.870641 196.923606 
L 121.647989 197.873725 
L 121.435344 198.823843 
L 121.221964 199.773962 
L 120.998114 200.724081 
L 120.755638 201.674199 
L 120.488381 202.624318 
L 120.19243 203.574437 
L 119.866193 204.524555 
L 119.510296 205.474674 
L 119.127349 206.424793 
L 118.721592 207.374911 
L 118.298477 208.32503 
L 117.86421 209.275149 
L 117.425305 210.225267 
L 116.988171 211.175386 
L 116.558765 212.125505 
L 116.142328 213.075623 
L 115.743201 214.025742 
L 115.364743 214.975861 
L 115.009311 215.925979 
L 114.678325 216.876098 
L 114.372368 217.826217 
L 114.091331 218.776335 
L 113.834567 219.726454 
L 113.601045 220.676573 
L 113.601045 220.676573 
z
" clip-path="url(#pf36a98849c)" style="fill: none; stroke: #000000; stroke-opacity: 0.3"/>
   </g>
   <g id="FillBetweenPolyCollection_13">
    <path d="M 112.331634 267.591446 
L 111.522911 267.591446 
L 111.52889 266.127833 
L 111.5463 264.66422 
L 111.57364 263.200607 
L 111.608646 261.736995 
L 111.648596 260.273382 
L 111.690654 258.809769 
L 111.732185 257.346156 
L 111.770998 255.882543 
L 111.80548 254.418931 
L 111.834618 252.955318 
L 111.857923 251.491705 
L 111.875281 250.028092 
L 111.886765 248.564479 
L 111.89244 247.100867 
L 111.892182 245.637254 
L 111.885528 244.173641 
L 111.871564 242.710028 
L 111.848852 241.246415 
L 111.815398 239.782803 
L 111.768651 238.31919 
L 111.705548 236.855577 
L 111.622595 235.391964 
L 111.516005 233.928351 
L 111.381895 232.464739 
L 111.216552 231.001126 
L 111.016763 229.537513 
L 110.780188 228.0739 
L 110.505715 226.610287 
L 110.193725 225.146675 
L 109.846169 223.683062 
L 109.466367 222.219449 
L 109.058479 220.755836 
L 108.626668 219.292223 
L 108.174066 217.82861 
L 107.701751 216.364998 
L 107.207982 214.901385 
L 106.687961 213.437772 
L 106.134283 211.974159 
L 105.538147 210.510546 
L 104.891166 209.046934 
L 104.187497 207.583321 
L 103.425887 206.119708 
L 102.611184 204.656095 
L 101.754985 203.192482 
L 100.875218 201.72887 
L 99.994678 200.265257 
L 99.13875 198.801644 
L 98.332687 197.338031 
L 97.598891 195.874418 
L 96.954616 194.410806 
L 96.410381 192.947193 
L 95.969268 191.48358 
L 95.627084 190.019967 
L 95.373248 188.556354 
L 95.192187 187.092742 
L 95.065017 185.629129 
L 94.971283 184.165516 
L 94.89063 182.701903 
L 94.804305 181.23829 
L 94.696464 179.774678 
L 94.555269 178.311065 
L 94.373751 176.847452 
L 94.150404 175.383839 
L 93.889453 173.920226 
L 93.600694 172.456614 
L 93.298877 170.993001 
L 93.002607 169.529388 
L 92.732847 168.065775 
L 92.51117 166.602162 
L 92.357976 165.13855 
L 92.290909 163.674937 
L 92.323658 162.211324 
L 92.465281 160.747711 
L 92.720054 159.284098 
L 93.087781 157.820486 
L 93.564418 156.356873 
L 94.142863 154.89326 
L 94.81376 153.429647 
L 95.566218 151.966034 
L 96.388391 150.502422 
L 97.267888 149.038809 
L 98.192038 147.575196 
L 99.148015 146.111583 
L 100.122877 144.64797 
L 101.10356 143.184358 
L 102.076905 141.720745 
L 103.029798 140.257132 
L 103.94947 138.793519 
L 104.823987 137.329906 
L 105.642905 135.866294 
L 106.397976 134.402681 
L 107.083789 132.939068 
L 107.698189 131.475455 
L 108.242354 130.011842 
L 108.720477 128.54823 
L 109.139083 127.084617 
L 109.506083 125.621004 
L 109.829733 124.157391 
L 110.117679 122.693778 
L 113.736867 122.693778 
L 113.736867 122.693778 
L 114.024812 124.157391 
L 114.348462 125.621004 
L 114.715462 127.084617 
L 115.134068 128.54823 
L 115.612192 130.011842 
L 116.156357 131.475455 
L 116.770757 132.939068 
L 117.45657 134.402681 
L 118.21164 135.866294 
L 119.030558 137.329906 
L 119.905076 138.793519 
L 120.824747 140.257132 
L 121.77764 141.720745 
L 122.750986 143.184358 
L 123.731668 144.64797 
L 124.70653 146.111583 
L 125.662508 147.575196 
L 126.586657 149.038809 
L 127.466154 150.502422 
L 128.288327 151.966034 
L 129.040786 153.429647 
L 129.711683 154.89326 
L 130.290128 156.356873 
L 130.766764 157.820486 
L 131.134491 159.284098 
L 131.389264 160.747711 
L 131.530887 162.211324 
L 131.563636 163.674937 
L 131.496569 165.13855 
L 131.343376 166.602162 
L 131.121699 168.065775 
L 130.851939 169.529388 
L 130.555669 170.993001 
L 130.253851 172.456614 
L 129.965092 173.920226 
L 129.704141 175.383839 
L 129.480795 176.847452 
L 129.299276 178.311065 
L 129.158081 179.774678 
L 129.050241 181.23829 
L 128.963916 182.701903 
L 128.883263 184.165516 
L 128.789529 185.629129 
L 128.662359 187.092742 
L 128.481298 188.556354 
L 128.227461 190.019967 
L 127.885278 191.48358 
L 127.444165 192.947193 
L 126.899929 194.410806 
L 126.255654 195.874418 
L 125.521859 197.338031 
L 124.715795 198.801644 
L 123.859867 200.265257 
L 122.979327 201.72887 
L 122.099561 203.192482 
L 121.243362 204.656095 
L 120.428658 206.119708 
L 119.667048 207.583321 
L 118.96338 209.046934 
L 118.316398 210.510546 
L 117.720262 211.974159 
L 117.166585 213.437772 
L 116.646563 214.901385 
L 116.152795 216.364998 
L 115.68048 217.82861 
L 115.227878 219.292223 
L 114.796066 220.755836 
L 114.388179 222.219449 
L 114.008377 223.683062 
L 113.660821 225.146675 
L 113.348831 226.610287 
L 113.074357 228.0739 
L 112.837783 229.537513 
L 112.637994 231.001126 
L 112.47265 232.464739 
L 112.33854 233.928351 
L 112.23195 235.391964 
L 112.148998 236.855577 
L 112.085894 238.31919 
L 112.039147 239.782803 
L 112.005693 241.246415 
L 111.982982 242.710028 
L 111.969017 244.173641 
L 111.962363 245.637254 
L 111.962106 247.100867 
L 111.967781 248.564479 
L 111.979264 250.028092 
L 111.996622 251.491705 
L 112.019927 252.955318 
L 112.049066 254.418931 
L 112.083548 255.882543 
L 112.122361 257.346156 
L 112.163892 258.809769 
L 112.205949 260.273382 
L 112.245899 261.736995 
L 112.280905 263.200607 
L 112.308246 264.66422 
L 112.325656 266.127833 
L 112.331634 267.591446 
L 112.331634 267.591446 
z
" clip-path="url(#pf36a98849c)" style="fill: none; stroke: #000000; stroke-opacity: 0.3"/>
   </g>
   <g id="FillBetweenPolyCollection_14">
    <path d="M 114.045264 237.51131 
L 109.809282 237.51131 
L 109.60286 236.268248 
L 109.378811 235.025187 
L 109.135449 233.782125 
L 108.871238 232.539064 
L 108.5849 231.296002 
L 108.275515 230.05294 
L 107.942607 228.809879 
L 107.586211 227.566817 
L 107.206904 226.323756 
L 106.805816 225.080694 
L 106.384602 223.837632 
L 105.945394 222.594571 
L 105.490718 221.351509 
L 105.023408 220.108448 
L 104.54649 218.865386 
L 104.063083 217.622324 
L 103.576283 216.379263 
L 103.089064 215.136201 
L 102.60419 213.89314 
L 102.12413 212.650078 
L 101.650999 211.407016 
L 101.1865 210.163955 
L 100.731885 208.920893 
L 100.28793 207.677832 
L 99.854926 206.43477 
L 99.432676 205.191708 
L 99.020528 203.948647 
L 98.617422 202.705585 
L 98.221962 201.462524 
L 97.832524 200.219462 
L 97.447388 198.976401 
L 97.064895 197.733339 
L 96.683622 196.490277 
L 96.30257 195.247216 
L 95.921346 194.004154 
L 95.540323 192.761093 
L 95.160772 191.518031 
L 94.784943 190.274969 
L 94.41609 189.031908 
L 94.058428 187.788846 
L 93.717025 186.545785 
L 93.397632 185.302723 
L 93.106465 184.059661 
L 92.849945 182.8166 
L 92.634427 181.573538 
L 92.465927 180.330477 
L 92.349876 179.087415 
L 92.290909 177.844353 
L 92.292704 176.601292 
L 92.357883 175.35823 
L 92.487963 174.115169 
L 92.683368 172.872107 
L 92.943476 171.629045 
L 93.266698 170.385984 
L 93.65058 169.142922 
L 94.091898 167.899861 
L 94.586755 166.656799 
L 95.13066 165.413738 
L 95.718598 164.170676 
L 96.345079 162.927614 
L 97.004193 161.684553 
L 97.689649 160.441491 
L 98.394845 159.19843 
L 99.112942 157.955368 
L 99.836965 156.712306 
L 100.559939 155.469245 
L 101.275038 154.226183 
L 101.975756 152.983122 
L 102.656089 151.74006 
L 103.310703 150.496998 
L 103.935089 149.253937 
L 104.525681 148.010875 
L 105.079929 146.767814 
L 105.596323 145.524752 
L 106.074358 144.28169 
L 106.514453 143.038629 
L 106.917815 141.795567 
L 107.28628 140.552506 
L 107.622129 139.309444 
L 107.927899 138.066382 
L 108.206208 136.823321 
L 108.459606 135.580259 
L 108.690461 134.337198 
L 108.900885 133.094136 
L 109.092703 131.851075 
L 109.267465 130.608013 
L 109.426486 129.364951 
L 109.570916 128.12189 
L 109.701812 126.878828 
L 109.820222 125.635767 
L 109.927247 124.392705 
L 110.024091 123.149643 
L 110.112085 121.906582 
L 110.192682 120.66352 
L 110.267427 119.420459 
L 110.337906 118.177397 
L 110.405679 116.934335 
L 110.472205 115.691274 
L 110.53877 114.448212 
L 113.315775 114.448212 
L 113.315775 114.448212 
L 113.38234 115.691274 
L 113.448867 116.934335 
L 113.516639 118.177397 
L 113.587118 119.420459 
L 113.661863 120.66352 
L 113.74246 121.906582 
L 113.830454 123.149643 
L 113.927299 124.392705 
L 114.034323 125.635767 
L 114.152733 126.878828 
L 114.283629 128.12189 
L 114.428059 129.364951 
L 114.587081 130.608013 
L 114.761843 131.851075 
L 114.953661 133.094136 
L 115.164085 134.337198 
L 115.39494 135.580259 
L 115.648338 136.823321 
L 115.926646 138.066382 
L 116.232416 139.309444 
L 116.568265 140.552506 
L 116.936731 141.795567 
L 117.340093 143.038629 
L 117.780187 144.28169 
L 118.258223 145.524752 
L 118.774616 146.767814 
L 119.328864 148.010875 
L 119.919456 149.253937 
L 120.543842 150.496998 
L 121.198457 151.74006 
L 121.878789 152.983122 
L 122.579508 154.226183 
L 123.294606 155.469245 
L 124.01758 156.712306 
L 124.741604 157.955368 
L 125.4597 159.19843 
L 126.164896 160.441491 
L 126.850353 161.684553 
L 127.509466 162.927614 
L 128.135948 164.170676 
L 128.723885 165.413738 
L 129.267791 166.656799 
L 129.762647 167.899861 
L 130.203965 169.142922 
L 130.587847 170.385984 
L 130.91107 171.629045 
L 131.171177 172.872107 
L 131.366582 174.115169 
L 131.496663 175.35823 
L 131.561841 176.601292 
L 131.563636 177.844353 
L 131.504669 179.087415 
L 131.388618 180.330477 
L 131.220119 181.573538 
L 131.0046 182.8166 
L 130.74808 184.059661 
L 130.456913 185.302723 
L 130.13752 186.545785 
L 129.796117 187.788846 
L 129.438455 189.031908 
L 129.069602 190.274969 
L 128.693774 191.518031 
L 128.314223 192.761093 
L 127.9332 194.004154 
L 127.551975 195.247216 
L 127.170924 196.490277 
L 126.789651 197.733339 
L 126.407157 198.976401 
L 126.022021 200.219462 
L 125.632584 201.462524 
L 125.237124 202.705585 
L 124.834017 203.948647 
L 124.42187 205.191708 
L 123.99962 206.43477 
L 123.566615 207.677832 
L 123.122661 208.920893 
L 122.668046 210.163955 
L 122.203546 211.407016 
L 121.730415 212.650078 
L 121.250356 213.89314 
L 120.765481 215.136201 
L 120.278263 216.379263 
L 119.791462 217.622324 
L 119.308055 218.865386 
L 118.831138 220.108448 
L 118.363827 221.351509 
L 117.909152 222.594571 
L 117.469943 223.837632 
L 117.04873 225.080694 
L 116.647642 226.323756 
L 116.268335 227.566817 
L 115.911938 228.809879 
L 115.579031 230.05294 
L 115.269645 231.296002 
L 114.983307 232.539064 
L 114.719096 233.782125 
L 114.475734 235.025187 
L 114.251686 236.268248 
L 114.045264 237.51131 
L 114.045264 237.51131 
z
" clip-path="url(#pf36a98849c)" style="fill: none; stroke: #000000; stroke-opacity: 0.3"/>
   </g>
   <g id="matplotlib.axis_1">
    <g id="xtick_1">
     <g id="line2d_1">
      <defs>
       <path id="m77df31d9c2" d="M 0 0 
L 0 3.5 
" style="stroke: #000000; stroke-width: 0.8"/>
      </defs>
      <g>
       <use xlink:href="#m77df31d9c2" x="46.472727" y="291.6" style="stroke: #000000; stroke-width: 0.8"/>
      </g>
     </g>
     <g id="text_1">
      <text style="font-size: 10px; font-family: 'DejaVu Sans', 'Bitstream Vera Sans', 'Computer Modern Sans Serif', 'Lucida Grande', 'Verdana', 'Geneva', 'Lucid', 'Arial', 'Helvetica', 'Avant Garde', sans-serif; text-anchor: middle" x="46.472727" y="306.198438" transform="rotate(-0 46.472727 306.198438)">0.3</text>
     </g>
    </g>
    <g id="xtick_2">
     <g id="line2d_2">
      <g>
       <use xlink:href="#m77df31d9c2" x="111.927273" y="291.6" style="stroke: #000000; stroke-width: 0.8"/>
      </g>
     </g>
     <g id="text_2">
      <text style="font-size: 10px; font-family: 'DejaVu Sans', 'Bitstream Vera Sans', 'Computer Modern Sans Serif', 'Lucida Grande', 'Verdana', 'Geneva', 'Lucid', 'Arial', 'Helvetica', 'Avant Garde', sans-serif; text-anchor: middle" x="111.927273" y="306.198438" transform="rotate(-0 111.927273 306.198438)">0.6</text>
     </g>
    </g>
   </g>
   <g id="matplotlib.axis_2">
    <g id="ytick_1">
     <g id="line2d_3">
      <defs>
       <path id="m280572badc" d="M 0 0 
L -3.5 0 
" style="stroke: #000000; stroke-width: 0.8"/>
      </defs>
      <g>
       <use xlink:href="#m280572badc" x="21.6" y="291.6" style="stroke: #000000; stroke-width: 0.8"/>
      </g>
     </g>
    </g>
    <g id="ytick_2">
     <g id="line2d_4">
      <g>
       <use xlink:href="#m280572badc" x="21.6" y="199.8" style="stroke: #000000; stroke-width: 0.8"/>
      </g>
     </g>
    </g>
    <g id="ytick_3">
     <g id="line2d_5">
      <g>
       <use xlink:href="#m280572badc" x="21.6" y="108" style="stroke: #000000; stroke-width: 0.8"/>
      </g>
     </g>
    </g>
    <g id="ytick_4">
     <g id="line2d_6">
      <g>
       <use xlink:href="#m280572badc" x="21.6" y="16.2" style="stroke: #000000; stroke-width: 0.8"/>
      </g>
     </g>
    </g>
   </g>
   <g id="line2d_7">
    <path d="M 46.472727 269.568 
L 46.472727 264.06 
" clip-path="url(#pf36a98849c)" style="fill: none; stroke: #000000; stroke-linecap: square"/>
   </g>
   <g id="line2d_8">
    <path d="M 46.472727 269.568 
L 111.927273 269.568 
" clip-path="url(#pf36a98849c)" style="fill: none; stroke: #000000; stroke-linecap: square"/>
   </g>
   <g id="line2d_9">
    <path d="M 111.927273 269.568 
L 111.927273 264.06 
" clip-path="url(#pf36a98849c)" style="fill: none; stroke: #000000; stroke-linecap: square"/>
   </g>
   <g id="patch_3">
    <path d="M 21.6 291.6 
L 21.6 16.2 
" style="fill: none; stroke: #000000; stroke-width: 0.8; stroke-linejoin: miter; stroke-linecap: square"/>
   </g>
   <g id="patch_4">
    <path d="M 136.8 291.6 
L 136.8 16.2 
" style="fill: none; stroke: #000000; stroke-width: 0.8; stroke-linejoin: miter; stroke-linecap: square"/>
   </g>
   <g id="patch_5">
    <path d="M 21.6 291.6 
L 136.8 291.6 
" style="fill: none; stroke: #000000; stroke-width: 0.8; stroke-linejoin: miter; stroke-linecap: square"/>
   </g>
   <g id="patch_6">
    <path d="M 21.6 16.2 
L 136.8 16.2 
" style="fill: none; stroke: #000000; stroke-width: 0.8; stroke-linejoin: miter; stroke-linecap: square"/>
   </g>
   <g id="text_3">
    <text style="font-weight: 700; font-size: 12px; font-family: 'DejaVu Sans', 'Bitstream Vera Sans', 'Computer Modern Sans Serif', 'Lucida Grande', 'Verdana', 'Geneva', 'Lucid', 'Arial', 'Helvetica', 'Avant Garde', sans-serif; text-anchor: middle" x="46.472727" y="289.104375" transform="rotate(-0 46.472727 289.104375)">#12</text>
   </g>
   <g id="text_4">
    <text style="font-weight: 700; font-size: 12px; font-family: 'DejaVu Sans', 'Bitstream Vera Sans', 'Computer Modern Sans Serif', 'Lucida Grande', 'Verdana', 'Geneva', 'Lucid', 'Arial', 'Helvetica', 'Avant Garde', sans-serif; text-anchor: middle" x="111.927273" y="289.104375" transform="rotate(-0 111.927273 289.104375)">#26</text>
   </g>
   <g id="text_5">
    <text style="font-size: 12px; font-family: 'DejaVu Sans', 'Bitstream Vera Sans', 'Computer Modern Sans Serif', 'Lucida Grande', 'Verdana', 'Geneva', 'Lucid', 'Arial', 'Helvetica', 'Avant Garde', sans-serif; text-anchor: middle" x="79.2" y="268.449375" transform="rotate(-0 79.2 268.449375)">****</text>
   </g>
   <g id="line2d_10">
    <path d="M 21.6 114.416486 
L 136.8 114.416486 
" clip-path="url(#pf36a98849c)" style="fill: none; stroke-dasharray: 3.7,1.6; stroke-dashoffset: 0; stroke: #808080; stroke-opacity: 0.7"/>
   </g>
   <g id="line2d_11">
    <path d="M 21.6 174.832136 
L 136.8 174.832136 
" clip-path="url(#pf36a98849c)" style="fill: none; stroke-dasharray: 3.7,1.6; stroke-dashoffset: 0; stroke: #808080; stroke-opacity: 0.7"/>
   </g>
   <g id="LineCollection_1">
    <path d="M 46.472727 117.802261 
L 46.472727 111.03071 
" clip-path="url(#pf36a98849c)" style="fill: none; stroke: #000000; stroke-width: 2"/>
   </g>
   <g id="line2d_12">
    <defs>
     <path id="m0a788cc5a2" d="M 5 0 
L -5 -0 
" style="stroke: #000000; stroke-width: 2"/>
    </defs>
    <g clip-path="url(#pf36a98849c)">
     <use xlink:href="#m0a788cc5a2" x="46.472727" y="117.802261" style="stroke: #000000; stroke-width: 2"/>
    </g>
   </g>
   <g id="line2d_13">
    <g clip-path="url(#pf36a98849c)">
     <use xlink:href="#m0a788cc5a2" x="46.472727" y="111.03071" style="stroke: #000000; stroke-width: 2"/>
    </g>
   </g>
   <g id="LineCollection_2">
    <path d="M 111.927273 177.885501 
L 111.927273 171.77877 
" clip-path="url(#pf36a98849c)" style="fill: none; stroke: #000000; stroke-width: 2"/>
   </g>
   <g id="line2d_14">
    <g clip-path="url(#pf36a98849c)">
     <use xlink:href="#m0a788cc5a2" x="111.927273" y="177.885501" style="stroke: #000000; stroke-width: 2"/>
    </g>
   </g>
   <g id="line2d_15">
    <g clip-path="url(#pf36a98849c)">
     <use xlink:href="#m0a788cc5a2" x="111.927273" y="171.77877" style="stroke: #000000; stroke-width: 2"/>
    </g>
   </g>
   <g id="line2d_16">
    <defs>
     <path id="m4c0a542966" d="M 0 4 
C 1.060812 4 2.078319 3.578535 2.828427 2.828427 
C 3.578535 2.078319 4 1.060812 4 0 
C 4 -1.060812 3.578535 -2.078319 2.828427 -2.828427 
C 2.078319 -3.578535 1.060812 -4 0 -4 
C -1.060812 -4 -2.078319 -3.578535 -2.828427 -2.828427 
C -3.578535 -2.078319 -4 -1.060812 -4 0 
C -4 1.060812 -3.578535 2.078319 -2.828427 2.828427 
C -2.078319 3.578535 -1.060812 4 0 4 
z
" style="stroke: #000000"/>
    </defs>
    <g clip-path="url(#pf36a98849c)">
     <use xlink:href="#m4c0a542966" x="46.472727" y="114.416486" style="stroke: #000000"/>
    </g>
   </g>
   <g id="line2d_17">
    <g clip-path="url(#pf36a98849c)">
     <use xlink:href="#m4c0a542966" x="111.927273" y="174.832136" style="stroke: #000000"/>
    </g>
   </g>
  </g>
 </g>
 <defs>
  <clipPath id="pf36a98849c">
   <rect x="21.6" y="16.2" width="115.2" height="275.4"/>
  </clipPath>
 </defs>
</svg>
