<?xml version="1.0" encoding="utf-8" standalone="no"?>
<!DOCTYPE svg PUBLIC "-//W3C//DTD SVG 1.1//EN"
  "http://www.w3.org/Graphics/SVG/1.1/DTD/svg11.dtd">
<svg xmlns:xlink="http://www.w3.org/1999/xlink" width="144pt" height="324pt" viewBox="0 0 144 324" xmlns="http://www.w3.org/2000/svg" version="1.1">
 <metadata>
  <rdf:RDF xmlns:dc="http://purl.org/dc/elements/1.1/" xmlns:cc="http://creativecommons.org/ns#" xmlns:rdf="http://www.w3.org/1999/02/22-rdf-syntax-ns#">
   <cc:Work>
    <dc:type rdf:resource="http://purl.org/dc/dcmitype/StillImage"/>
    <dc:date>2025-12-05T14:51:42.877511</dc:date>
    <dc:format>image/svg+xml</dc:format>
    <dc:creator>
     <cc:Agent>
      <dc:title>Matplotlib v3.10.0, https://matplotlib.org/</dc:title>
     </cc:Agent>
    </dc:creator>
   </cc:Work>
  </rdf:RDF>
 </metadata>
 <defs>
  <style type="text/css">*{stroke-linejoin: round; stroke-linecap: butt}</style>
 </defs>
 <g id="figure_1">
  <g id="patch_1">
   <path d="M 0 324 
L 144 324 
L 144 0 
L 0 0 
z
" style="fill: #ffffff"/>
  </g>
  <g id="axes_1">
   <g id="patch_2">
    <path d="M 21.6 291.6 
L 136.8 291.6 
L 136.8 16.2 
L 21.6 16.2 
z
" style="fill: #ffffff"/>
   </g>
   <g id="FillBetweenPolyCollection_1">
    <path d="M 46.095144 325 
L 46.127905 323.360004 
L 46.176324 321.085152 
L 46.224858 318.810301 
L 46.271069 316.53545 
L 46.313117 314.260598 
L 46.349825 311.985747 
L 46.380659 309.710896 
L 46.405629 307.436045 
L 46.425154 305.161193 
L 46.439912 302.886342 
L 46.450707 300.611491 
L 46.458351 298.336639 
L 46.463596 296.061788 
L 46.467085 293.786937 
L 46.469336 291.512085 
L 46.470744 289.237234 
L 46.471599 286.962383 
L 46.472102 284.687531 
L 46.47239 282.41268 
L 46.47255 280.137829 
L 46.472634 277.862978 
L 46.472675 275.588126 
L 46.472689 273.313275 
L 46.472681 271.038424 
L 46.472646 268.763572 
L 46.472567 266.488721 
L 46.472412 264.21387 
L 46.472114 261.939018 
L 46.471566 259.664167 
L 46.470582 257.389316 
L 46.468864 255.114464 
L 46.465943 252.839613 
L 46.461112 250.564762 
L 46.453338 248.289911 
L 46.441164 246.015059 
L 46.42262 243.740208 
L 46.395141 241.465357 
L 46.355544 239.190505 
L 46.300064 236.915654 
L 46.224505 234.640803 
L 46.124508 232.365951 
L 45.995962 230.0911 
L 45.835526 227.816249 
L 45.641226 225.541397 
L 45.413048 223.266546 
L 45.153431 220.991695 
L 44.867542 218.716844 
L 44.563237 216.441992 
L 44.250645 214.167141 
L 43.94135 211.89229 
L 43.647228 209.617438 
L 43.379045 207.342587 
L 43.144988 205.067736 
L 42.949315 202.792884 
L 42.791327 200.518033 
L 42.664822 198.243182 
L 42.55815 195.96833 
L 42.454906 193.693479 
L 42.335234 191.418628 
L 42.177613 189.143777 
L 41.960942 186.868925 
L 41.666672 184.594074 
L 41.280712 182.319223 
L 40.794823 180.044371 
L 40.207315 177.76952 
L 39.522893 175.494669 
L 38.751716 173.219817 
L 37.907802 170.944966 
L 37.007113 168.670115 
L 36.065694 166.395263 
L 35.098269 164.120412 
L 34.117595 161.845561 
L 33.134731 159.57071 
L 32.160158 157.295858 
L 31.205466 155.021007 
L 30.28518 152.746156 
L 29.418209 150.471304 
L 28.628471 148.196453 
L 27.944393 145.921602 
L 27.397232 143.64675 
L 27.018423 141.371899 
L 26.836364 139.097048 
L 26.873186 136.822197 
L 27.142033 134.547345 
L 27.645282 132.272494 
L 28.373924 129.997643 
L 29.308119 127.722791 
L 30.418751 125.44794 
L 31.669667 123.173089 
L 33.020291 120.898237 
L 34.428277 118.623386 
L 35.851988 116.348535 
L 37.252641 114.073683 
L 38.596044 111.798832 
L 39.853875 109.523981 
L 53.09158 109.523981 
L 53.09158 109.523981 
L 54.34941 111.798832 
L 55.692813 114.073683 
L 57.093467 116.348535 
L 58.517177 118.623386 
L 59.925163 120.898237 
L 61.275787 123.173089 
L 62.526704 125.44794 
L 63.637335 127.722791 
L 64.571531 129.997643 
L 65.300173 132.272494 
L 65.803421 134.547345 
L 66.072269 136.822197 
L 66.109091 139.097048 
L 65.927032 141.371899 
L 65.548223 143.64675 
L 65.001061 145.921602 
L 64.316983 148.196453 
L 63.527245 150.471304 
L 62.660275 152.746156 
L 61.739988 155.021007 
L 60.785297 157.295858 
L 59.810724 159.57071 
L 58.82786 161.845561 
L 57.847186 164.120412 
L 56.87976 166.395263 
L 55.938342 168.670115 
L 55.037652 170.944966 
L 54.193738 173.219817 
L 53.422561 175.494669 
L 52.73814 177.76952 
L 52.150631 180.044371 
L 51.664743 182.319223 
L 51.278782 184.594074 
L 50.984513 186.868925 
L 50.767842 189.143777 
L 50.61022 191.418628 
L 50.490548 193.693479 
L 50.387304 195.96833 
L 50.280632 198.243182 
L 50.154128 200.518033 
L 49.99614 202.792884 
L 49.800467 205.067736 
L 49.56641 207.342587 
L 49.298227 209.617438 
L 49.004105 211.89229 
L 48.69481 214.167141 
L 48.382218 216.441992 
L 48.077913 218.716844 
L 47.792023 220.991695 
L 47.532407 223.266546 
L 47.304229 225.541397 
L 47.109928 227.816249 
L 46.949492 230.0911 
L 46.820947 232.365951 
L 46.72095 234.640803 
L 46.64539 236.915654 
L 46.58991 239.190505 
L 46.550313 241.465357 
L 46.522835 243.740208 
L 46.50429 246.015059 
L 46.492117 248.289911 
L 46.484342 250.564762 
L 46.479512 252.839613 
L 46.476591 255.114464 
L 46.474872 257.389316 
L 46.473888 259.664167 
L 46.47334 261.939018 
L 46.473043 264.21387 
L 46.472887 266.488721 
L 46.472809 268.763572 
L 46.472774 271.038424 
L 46.472766 273.313275 
L 46.472779 275.588126 
L 46.47282 277.862978 
L 46.472905 280.137829 
L 46.473064 282.41268 
L 46.473352 284.687531 
L 46.473856 286.962383 
L 46.474711 289.237234 
L 46.476119 291.512085 
L 46.478369 293.786937 
L 46.481858 296.061788 
L 46.487103 298.336639 
L 46.494748 300.611491 
L 46.505542 302.886342 
L 46.520301 305.161193 
L 46.539825 307.436045 
L 46.564795 309.710896 
L 46.595629 311.985747 
L 46.632338 314.260598 
L 46.674386 316.53545 
L 46.720597 318.810301 
L 46.769131 321.085152 
L 46.817549 323.360004 
L 46.85031 325 
" clip-path="url(#pe4c3e7dc17)" style="fill: none; stroke: #000000; stroke-opacity: 0.3"/>
   </g>
   <g id="FillBetweenPolyCollection_2">
    <path d="M 51.728284 174.845658 
L 41.21717 174.845658 
L 40.861868 173.85986 
L 40.499933 172.874062 
L 40.132887 171.888264 
L 39.762369 170.902465 
L 39.390115 169.916667 
L 39.017926 168.930869 
L 38.647638 167.945071 
L 38.281074 166.959273 
L 37.919999 165.973475 
L 37.566068 164.987677 
L 37.220769 164.001879 
L 36.885367 163.016081 
L 36.560853 162.030283 
L 36.247891 161.044484 
L 35.946776 160.058686 
L 35.657402 159.072888 
L 35.379242 158.08709 
L 35.11134 157.101292 
L 34.852325 156.115494 
L 34.600434 155.129696 
L 34.353563 154.143898 
L 34.109325 153.1581 
L 33.865133 152.172302 
L 33.618291 151.186503 
L 33.3661 150.200705 
L 33.105969 149.214907 
L 32.835538 148.229109 
L 32.552788 147.243311 
L 32.256162 146.257513 
L 31.944663 145.271715 
L 31.617949 144.285917 
L 31.276407 143.300119 
L 30.921209 142.314321 
L 30.554336 141.328522 
L 30.178594 140.342724 
L 29.797585 139.356926 
L 29.415663 138.371128 
L 29.037867 137.38533 
L 28.669813 136.399532 
L 28.31759 135.413734 
L 27.987613 134.427936 
L 27.686477 133.442138 
L 27.420798 132.45634 
L 27.197043 131.470541 
L 27.021369 130.484743 
L 26.899458 129.498945 
L 26.836364 128.513147 
L 26.836378 127.527349 
L 26.902908 126.541551 
L 27.038376 125.555753 
L 27.244149 124.569955 
L 27.520485 123.584157 
L 27.866521 122.598359 
L 28.280273 121.61256 
L 28.758679 120.626762 
L 29.297654 119.640964 
L 29.892184 118.655166 
L 30.536429 117.669368 
L 31.22385 116.68357 
L 31.947351 115.697772 
L 32.699428 114.711974 
L 33.472323 113.726176 
L 34.258185 112.740378 
L 35.049214 111.754579 
L 35.837816 110.768781 
L 36.61673 109.782983 
L 37.379151 108.797185 
L 38.11883 107.811387 
L 38.830159 106.825589 
L 39.508238 105.839791 
L 40.148915 104.853993 
L 40.748816 103.868195 
L 41.305349 102.882396 
L 41.816696 101.896598 
L 42.281785 100.9108 
L 42.700254 99.925002 
L 43.072406 98.939204 
L 43.399148 97.953406 
L 43.681932 96.967608 
L 43.922687 95.98181 
L 44.123758 94.996012 
L 44.287832 94.010214 
L 44.417874 93.024415 
L 44.517067 92.038617 
L 44.588745 91.052819 
L 44.636337 90.067021 
L 44.663314 89.081223 
L 44.673133 88.095425 
L 44.669195 87.109627 
L 44.654794 86.123829 
L 44.633078 85.138031 
L 44.607013 84.152233 
L 44.579345 83.166434 
L 44.552576 82.180636 
L 44.528929 81.194838 
L 44.510337 80.20904 
L 44.498422 79.223242 
L 44.494485 78.237444 
L 44.499505 77.251646 
L 48.44595 77.251646 
L 48.44595 77.251646 
L 48.45097 78.237444 
L 48.447033 79.223242 
L 48.435117 80.20904 
L 48.416526 81.194838 
L 48.392879 82.180636 
L 48.366109 83.166434 
L 48.338442 84.152233 
L 48.312377 85.138031 
L 48.290661 86.123829 
L 48.276259 87.109627 
L 48.272321 88.095425 
L 48.282141 89.081223 
L 48.309118 90.067021 
L 48.35671 91.052819 
L 48.428387 92.038617 
L 48.52758 93.024415 
L 48.657623 94.010214 
L 48.821696 94.996012 
L 49.022767 95.98181 
L 49.263523 96.967608 
L 49.546306 97.953406 
L 49.873048 98.939204 
L 50.2452 99.925002 
L 50.66367 100.9108 
L 51.128759 101.896598 
L 51.640105 102.882396 
L 52.196639 103.868195 
L 52.79654 104.853993 
L 53.437217 105.839791 
L 54.115296 106.825589 
L 54.826625 107.811387 
L 55.566303 108.797185 
L 56.328724 109.782983 
L 57.107639 110.768781 
L 57.896241 111.754579 
L 58.68727 112.740378 
L 59.473131 113.726176 
L 60.246027 114.711974 
L 60.998103 115.697772 
L 61.721605 116.68357 
L 62.409026 117.669368 
L 63.05327 118.655166 
L 63.6478 119.640964 
L 64.186776 120.626762 
L 64.665181 121.61256 
L 65.078934 122.598359 
L 65.424969 123.584157 
L 65.701306 124.569955 
L 65.907078 125.555753 
L 66.042546 126.541551 
L 66.109076 127.527349 
L 66.109091 128.513147 
L 66.045997 129.498945 
L 65.924085 130.484743 
L 65.748411 131.470541 
L 65.524657 132.45634 
L 65.258977 133.442138 
L 64.957842 134.427936 
L 64.627864 135.413734 
L 64.275641 136.399532 
L 63.907588 137.38533 
L 63.529791 138.371128 
L 63.14787 139.356926 
L 62.76686 140.342724 
L 62.391118 141.328522 
L 62.024246 142.314321 
L 61.669047 143.300119 
L 61.327506 144.285917 
L 61.000792 145.271715 
L 60.689293 146.257513 
L 60.392666 147.243311 
L 60.109917 148.229109 
L 59.839485 149.214907 
L 59.579355 150.200705 
L 59.327164 151.186503 
L 59.080322 152.172302 
L 58.83613 153.1581 
L 58.591892 154.143898 
L 58.345021 155.129696 
L 58.09313 156.115494 
L 57.834114 157.101292 
L 57.566213 158.08709 
L 57.288052 159.072888 
L 56.998679 160.058686 
L 56.697564 161.044484 
L 56.384601 162.030283 
L 56.060088 163.016081 
L 55.724686 164.001879 
L 55.379387 164.987677 
L 55.025455 165.973475 
L 54.664381 166.959273 
L 54.297817 167.945071 
L 53.927528 168.930869 
L 53.55534 169.916667 
L 53.183085 170.902465 
L 52.812567 171.888264 
L 52.445521 172.874062 
L 52.083586 173.85986 
L 51.728284 174.845658 
L 51.728284 174.845658 
z
" clip-path="url(#pe4c3e7dc17)" style="fill: none; stroke: #000000; stroke-opacity: 0.3"/>
   </g>
   <g id="FillBetweenPolyCollection_3">
    <path d="M 49.91201 191.718602 
L 43.033444 191.718602 
L 42.883694 190.865086 
L 42.735643 190.011569 
L 42.588819 189.158052 
L 42.442561 188.304535 
L 42.29604 187.451018 
L 42.148278 186.597502 
L 41.998185 185.743985 
L 41.844581 184.890468 
L 41.686241 184.036951 
L 41.521926 183.183434 
L 41.350423 182.329918 
L 41.170574 181.476401 
L 40.981314 180.622884 
L 40.781687 179.769367 
L 40.570875 178.91585 
L 40.348206 178.062334 
L 40.113164 177.208817 
L 39.865388 176.3553 
L 39.604668 175.501783 
L 39.330938 174.648266 
L 39.044263 173.79475 
L 38.744823 172.941233 
L 38.4329 172.087716 
L 38.108865 171.234199 
L 37.773165 170.380682 
L 37.426317 169.527166 
L 37.068903 168.673649 
L 36.701569 167.820132 
L 36.325034 166.966615 
L 35.940092 166.113098 
L 35.547628 165.259582 
L 35.148628 164.406065 
L 34.74419 163.552548 
L 34.335537 162.699031 
L 33.92402 161.845514 
L 33.511124 160.991998 
L 33.09846 160.138481 
L 32.687754 159.284964 
L 32.280829 158.431447 
L 31.879577 157.57793 
L 31.485927 156.724414 
L 31.101801 155.870897 
L 30.729077 155.01738 
L 30.369538 154.163863 
L 30.024828 153.310346 
L 29.696411 152.45683 
L 29.385533 151.603313 
L 29.093189 150.749796 
L 28.820104 149.896279 
L 28.566721 149.042762 
L 28.333206 148.189246 
L 28.119454 147.335729 
L 27.925117 146.482212 
L 27.749639 145.628695 
L 27.592297 144.775178 
L 27.452249 143.921662 
L 27.328593 143.068145 
L 27.220413 142.214628 
L 27.126842 141.361111 
L 27.047103 140.507594 
L 26.980558 139.654078 
L 26.926737 138.800561 
L 26.885369 137.947044 
L 26.856386 137.093527 
L 26.839935 136.24001 
L 26.836364 135.386494 
L 26.846205 134.532977 
L 26.870147 133.67946 
L 26.909006 132.825943 
L 26.96368 131.972426 
L 27.035116 131.11891 
L 27.124264 130.265393 
L 27.232043 129.411876 
L 27.359304 128.558359 
L 27.506799 127.704843 
L 27.675162 126.851326 
L 27.864887 125.997809 
L 28.076322 125.144292 
L 28.309664 124.290775 
L 28.564961 123.437259 
L 28.842118 122.583742 
L 29.140909 121.730225 
L 29.460987 120.876708 
L 29.801897 120.023191 
L 30.163086 119.169675 
L 30.543912 118.316158 
L 30.943652 117.462641 
L 31.361504 116.609124 
L 31.796585 115.755607 
L 32.247928 114.902091 
L 32.714475 114.048574 
L 33.195069 113.195057 
L 33.688442 112.34154 
L 34.193208 111.488023 
L 34.707853 110.634507 
L 35.230734 109.78099 
L 35.76007 108.927473 
L 36.293957 108.073956 
L 36.830366 107.220439 
L 56.115088 107.220439 
L 56.115088 107.220439 
L 56.651498 108.073956 
L 57.185384 108.927473 
L 57.714721 109.78099 
L 58.237601 110.634507 
L 58.752247 111.488023 
L 59.257013 112.34154 
L 59.750386 113.195057 
L 60.230979 114.048574 
L 60.697527 114.902091 
L 61.14887 115.755607 
L 61.58395 116.609124 
L 62.001802 117.462641 
L 62.401543 118.316158 
L 62.782369 119.169675 
L 63.143557 120.023191 
L 63.484467 120.876708 
L 63.804546 121.730225 
L 64.103337 122.583742 
L 64.380494 123.437259 
L 64.63579 124.290775 
L 64.869132 125.144292 
L 65.080567 125.997809 
L 65.270292 126.851326 
L 65.438655 127.704843 
L 65.586151 128.558359 
L 65.713412 129.411876 
L 65.821191 130.265393 
L 65.910339 131.11891 
L 65.981775 131.972426 
L 66.036449 132.825943 
L 66.075307 133.67946 
L 66.09925 134.532977 
L 66.109091 135.386494 
L 66.10552 136.24001 
L 66.089069 137.093527 
L 66.060086 137.947044 
L 66.018717 138.800561 
L 65.964897 139.654078 
L 65.898352 140.507594 
L 65.818613 141.361111 
L 65.725042 142.214628 
L 65.616862 143.068145 
L 65.493205 143.921662 
L 65.353158 144.775178 
L 65.195815 145.628695 
L 65.020338 146.482212 
L 64.826001 147.335729 
L 64.612249 148.189246 
L 64.378733 149.042762 
L 64.125351 149.896279 
L 63.852266 150.749796 
L 63.559921 151.603313 
L 63.249043 152.45683 
L 62.920627 153.310346 
L 62.575917 154.163863 
L 62.216377 155.01738 
L 61.843653 155.870897 
L 61.459528 156.724414 
L 61.065877 157.57793 
L 60.664626 158.431447 
L 60.257701 159.284964 
L 59.846995 160.138481 
L 59.434331 160.991998 
L 59.021435 161.845514 
L 58.609918 162.699031 
L 58.201264 163.552548 
L 57.796827 164.406065 
L 57.397826 165.259582 
L 57.005362 166.113098 
L 56.620421 166.966615 
L 56.243885 167.820132 
L 55.876552 168.673649 
L 55.519137 169.527166 
L 55.172289 170.380682 
L 54.83659 171.234199 
L 54.512555 172.087716 
L 54.200632 172.941233 
L 53.901192 173.79475 
L 53.614516 174.648266 
L 53.340787 175.501783 
L 53.080067 176.3553 
L 52.83229 177.208817 
L 52.597248 178.062334 
L 52.374579 178.91585 
L 52.163768 179.769367 
L 51.964141 180.622884 
L 51.77488 181.476401 
L 51.595032 182.329918 
L 51.423528 183.183434 
L 51.259214 184.036951 
L 51.100874 184.890468 
L 50.94727 185.743985 
L 50.797176 186.597502 
L 50.649415 187.451018 
L 50.502893 188.304535 
L 50.356635 189.158052 
L 50.209811 190.011569 
L 50.061761 190.865086 
L 49.91201 191.718602 
L 49.91201 191.718602 
z
" clip-path="url(#pe4c3e7dc17)" style="fill: none; stroke: #000000; stroke-opacity: 0.3"/>
   </g>
   <g id="FillBetweenPolyCollection_4">
    <path d="M 49.429004 188.342922 
L 43.516451 188.342922 
L 43.351133 187.656062 
L 43.18796 186.969202 
L 43.027209 186.282342 
L 42.868929 185.595482 
L 42.712921 184.908623 
L 42.558727 184.221763 
L 42.405635 183.534903 
L 42.252687 182.848043 
L 42.098707 182.161183 
L 41.942323 181.474323 
L 41.782018 180.787463 
L 41.616174 180.100604 
L 41.443131 179.413744 
L 41.261249 178.726884 
L 41.068969 178.040024 
L 40.864886 177.353164 
L 40.647801 176.666304 
L 40.416788 175.979444 
L 40.17124 175.292585 
L 39.910911 174.605725 
L 39.635946 173.918865 
L 39.346893 173.232005 
L 39.044711 172.545145 
L 38.730751 171.858285 
L 38.406727 171.171426 
L 38.07468 170.484566 
L 37.736916 169.797706 
L 37.395942 169.110846 
L 37.05439 168.423986 
L 36.714937 167.737126 
L 36.380219 167.050266 
L 36.052746 166.363407 
L 35.73482 165.676547 
L 35.428461 164.989687 
L 35.135334 164.302827 
L 34.856698 163.615967 
L 34.593359 162.929107 
L 34.345639 162.242247 
L 34.113366 161.555388 
L 33.895872 160.868528 
L 33.692015 160.181668 
L 33.500214 159.494808 
L 33.318497 158.807948 
L 33.144563 158.121088 
L 32.975866 157.434229 
L 32.809692 156.747369 
L 32.643258 156.060509 
L 32.473813 155.373649 
L 32.298732 154.686789 
L 32.11562 153.999929 
L 31.922405 153.313069 
L 31.717423 152.62621 
L 31.499492 151.93935 
L 31.267968 151.25249 
L 31.022794 150.56563 
L 30.764514 149.87877 
L 30.494277 149.19191 
L 30.213816 148.505051 
L 29.925406 147.818191 
L 29.631803 147.131331 
L 29.33616 146.444471 
L 29.041937 145.757611 
L 28.752792 145.070751 
L 28.472471 144.383891 
L 28.204694 143.697032 
L 27.953043 143.010172 
L 27.720868 142.323312 
L 27.511191 141.636452 
L 27.32664 140.949592 
L 27.169398 140.262732 
L 27.041173 139.575872 
L 26.943196 138.889013 
L 26.876234 138.202153 
L 26.840631 137.515293 
L 26.836364 136.828433 
L 26.863111 136.141573 
L 26.920334 135.454713 
L 27.007363 134.767854 
L 27.123477 134.080994 
L 27.267985 133.394134 
L 27.440291 132.707274 
L 27.639948 132.020414 
L 27.866687 131.333554 
L 28.120437 130.646694 
L 28.401311 129.959835 
L 28.709578 129.272975 
L 29.045618 128.586115 
L 29.409855 127.899255 
L 29.802678 127.212395 
L 30.224362 126.525535 
L 30.674971 125.838675 
L 31.154283 125.151816 
L 31.661704 124.464956 
L 32.196209 123.778096 
L 32.756291 123.091236 
L 33.339935 122.404376 
L 33.94461 121.717516 
L 34.567287 121.030657 
L 35.204479 120.343797 
L 57.740976 120.343797 
L 57.740976 120.343797 
L 58.378168 121.030657 
L 59.000845 121.717516 
L 59.60552 122.404376 
L 60.189164 123.091236 
L 60.749246 123.778096 
L 61.283751 124.464956 
L 61.791172 125.151816 
L 62.270484 125.838675 
L 62.721093 126.525535 
L 63.142776 127.212395 
L 63.5356 127.899255 
L 63.899837 128.586115 
L 64.235877 129.272975 
L 64.544144 129.959835 
L 64.825017 130.646694 
L 65.078767 131.333554 
L 65.305507 132.020414 
L 65.505163 132.707274 
L 65.677469 133.394134 
L 65.821977 134.080994 
L 65.938091 134.767854 
L 66.02512 135.454713 
L 66.082344 136.141573 
L 66.109091 136.828433 
L 66.104824 137.515293 
L 66.069221 138.202153 
L 66.002259 138.889013 
L 65.904281 139.575872 
L 65.776057 140.262732 
L 65.618815 140.949592 
L 65.434264 141.636452 
L 65.224587 142.323312 
L 64.992411 143.010172 
L 64.740761 143.697032 
L 64.472983 144.383891 
L 64.192662 145.070751 
L 63.903517 145.757611 
L 63.609294 146.444471 
L 63.313652 147.131331 
L 63.020048 147.818191 
L 62.731639 148.505051 
L 62.451178 149.19191 
L 62.180941 149.87877 
L 61.92266 150.56563 
L 61.677486 151.25249 
L 61.445963 151.93935 
L 61.228031 152.62621 
L 61.023049 153.313069 
L 60.829835 153.999929 
L 60.646723 154.686789 
L 60.471642 155.373649 
L 60.302196 156.060509 
L 60.135763 156.747369 
L 59.969589 157.434229 
L 59.800891 158.121088 
L 59.626958 158.807948 
L 59.44524 159.494808 
L 59.253439 160.181668 
L 59.049583 160.868528 
L 58.832089 161.555388 
L 58.599815 162.242247 
L 58.352096 162.929107 
L 58.088756 163.615967 
L 57.81012 164.302827 
L 57.516994 164.989687 
L 57.210634 165.676547 
L 56.892709 166.363407 
L 56.565236 167.050266 
L 56.230517 167.737126 
L 55.891064 168.423986 
L 55.549513 169.110846 
L 55.208538 169.797706 
L 54.870774 170.484566 
L 54.538727 171.171426 
L 54.214704 171.858285 
L 53.900743 172.545145 
L 53.598561 173.232005 
L 53.309509 173.918865 
L 53.034543 174.605725 
L 52.774215 175.292585 
L 52.528667 175.979444 
L 52.297654 176.666304 
L 52.080569 177.353164 
L 51.876485 178.040024 
L 51.684206 178.726884 
L 51.502323 179.413744 
L 51.329281 180.100604 
L 51.163437 180.787463 
L 51.003132 181.474323 
L 50.846748 182.161183 
L 50.692767 182.848043 
L 50.53982 183.534903 
L 50.386728 184.221763 
L 50.232533 184.908623 
L 50.076525 185.595482 
L 49.918246 186.282342 
L 49.757495 186.969202 
L 49.594321 187.656062 
L 49.429004 188.342922 
L 49.429004 188.342922 
z
" clip-path="url(#pe4c3e7dc17)" style="fill: none; stroke: #000000; stroke-opacity: 0.3"/>
   </g>
   <g id="FillBetweenPolyCollection_5">
    <path d="M 47.397861 202.835876 
L 45.547593 202.835876 
L 45.531836 201.793883 
L 45.51957 200.751889 
L 45.508643 199.709896 
L 45.496334 198.667903 
L 45.479413 197.625909 
L 45.454225 196.583916 
L 45.416806 195.541922 
L 45.363022 194.499929 
L 45.288724 193.457936 
L 45.189917 192.415942 
L 45.062935 191.373949 
L 44.904607 190.331955 
L 44.712413 189.289962 
L 44.484621 188.247969 
L 44.220381 187.205975 
L 43.91979 186.163982 
L 43.583902 185.121989 
L 43.214694 184.079995 
L 42.814979 183.038002 
L 42.388266 181.996008 
L 41.938587 180.954015 
L 41.470285 179.912022 
L 40.987796 178.870028 
L 40.495413 177.828035 
L 39.997085 176.786041 
L 39.496224 175.744048 
L 38.995571 174.702055 
L 38.497108 173.660061 
L 38.002019 172.618068 
L 37.51072 171.576075 
L 37.022933 170.534081 
L 36.537805 169.492088 
L 36.054062 168.450094 
L 35.57018 167.408101 
L 35.08457 166.366108 
L 34.595755 165.324114 
L 34.102537 164.282121 
L 33.60415 163.240127 
L 33.100381 162.198134 
L 32.591675 161.156141 
L 32.07921 160.114147 
L 31.564947 159.072154 
L 31.051652 158.030161 
L 30.542898 156.988167 
L 30.04303 155.946174 
L 29.557114 154.90418 
L 29.090845 153.862187 
L 28.650436 152.820194 
L 28.242467 151.7782 
L 27.873716 150.736207 
L 27.550956 149.694213 
L 27.280746 148.65222 
L 27.069199 147.610227 
L 26.921759 146.568233 
L 26.842988 145.52624 
L 26.836364 144.484247 
L 26.904121 143.442253 
L 27.047125 142.40026 
L 27.264794 141.358266 
L 27.555074 140.316273 
L 27.914467 139.27428 
L 28.338115 138.232286 
L 28.819926 137.190293 
L 29.352756 136.1483 
L 29.928615 135.106306 
L 30.538911 134.064313 
L 31.174701 133.022319 
L 31.826957 131.980326 
L 32.48682 130.938333 
L 33.145844 129.896339 
L 33.796214 128.854346 
L 34.430934 127.812352 
L 35.043971 126.770359 
L 35.630367 125.728366 
L 36.186299 124.686372 
L 36.709095 123.644379 
L 37.197206 122.602386 
L 37.650149 121.560392 
L 38.068405 120.518399 
L 38.453299 119.476405 
L 38.806862 118.434412 
L 39.131685 117.392419 
L 39.43077 116.350425 
L 39.70739 115.308432 
L 39.964962 114.266438 
L 40.206928 113.224445 
L 40.436667 112.182452 
L 40.657406 111.140458 
L 40.872159 110.098465 
L 41.083673 109.056472 
L 41.294382 108.014478 
L 41.506366 106.972485 
L 41.721321 105.930491 
L 41.940525 104.888498 
L 42.164814 103.846505 
L 42.394564 102.804511 
L 42.629683 101.762518 
L 42.869614 100.720524 
L 43.113362 99.678531 
L 49.832092 99.678531 
L 49.832092 99.678531 
L 50.075841 100.720524 
L 50.315772 101.762518 
L 50.55089 102.804511 
L 50.78064 103.846505 
L 51.00493 104.888498 
L 51.224134 105.930491 
L 51.439089 106.972485 
L 51.651073 108.014478 
L 51.861781 109.056472 
L 52.073295 110.098465 
L 52.288049 111.140458 
L 52.508787 112.182452 
L 52.738526 113.224445 
L 52.980493 114.266438 
L 53.238064 115.308432 
L 53.514684 116.350425 
L 53.813769 117.392419 
L 54.138592 118.434412 
L 54.492155 119.476405 
L 54.877049 120.518399 
L 55.295305 121.560392 
L 55.748248 122.602386 
L 56.23636 123.644379 
L 56.759155 124.686372 
L 57.315087 125.728366 
L 57.901484 126.770359 
L 58.514521 127.812352 
L 59.14924 128.854346 
L 59.799611 129.896339 
L 60.458635 130.938333 
L 61.118498 131.980326 
L 61.770754 133.022319 
L 62.406544 134.064313 
L 63.016839 135.106306 
L 63.592699 136.1483 
L 64.125528 137.190293 
L 64.60734 138.232286 
L 65.030987 139.27428 
L 65.390381 140.316273 
L 65.680661 141.358266 
L 65.89833 142.40026 
L 66.041334 143.442253 
L 66.109091 144.484247 
L 66.102467 145.52624 
L 66.023695 146.568233 
L 65.876256 147.610227 
L 65.664709 148.65222 
L 65.394498 149.694213 
L 65.071739 150.736207 
L 64.702987 151.7782 
L 64.295019 152.820194 
L 63.854609 153.862187 
L 63.388341 154.90418 
L 62.902424 155.946174 
L 62.402556 156.988167 
L 61.893802 158.030161 
L 61.380508 159.072154 
L 60.866245 160.114147 
L 60.35378 161.156141 
L 59.845074 162.198134 
L 59.341305 163.240127 
L 58.842917 164.282121 
L 58.3497 165.324114 
L 57.860884 166.366108 
L 57.375274 167.408101 
L 56.891392 168.450094 
L 56.407649 169.492088 
L 55.922521 170.534081 
L 55.434735 171.576075 
L 54.943436 172.618068 
L 54.448347 173.660061 
L 53.949883 174.702055 
L 53.449231 175.744048 
L 52.94837 176.786041 
L 52.450041 177.828035 
L 51.957659 178.870028 
L 51.475169 179.912022 
L 51.006868 180.954015 
L 50.557188 181.996008 
L 50.130475 183.038002 
L 49.73076 184.079995 
L 49.361553 185.121989 
L 49.025665 186.163982 
L 48.725073 187.205975 
L 48.460833 188.247969 
L 48.233041 189.289962 
L 48.040848 190.331955 
L 47.882519 191.373949 
L 47.755537 192.415942 
L 47.65673 193.457936 
L 47.582432 194.499929 
L 47.528649 195.541922 
L 47.49123 196.583916 
L 47.466042 197.625909 
L 47.44912 198.667903 
L 47.436811 199.709896 
L 47.425884 200.751889 
L 47.413618 201.793883 
L 47.397861 202.835876 
L 47.397861 202.835876 
z
" clip-path="url(#pe4c3e7dc17)" style="fill: none; stroke: #000000; stroke-opacity: 0.3"/>
   </g>
   <g id="FillBetweenPolyCollection_6">
    <path d="M 47.953002 212.216401 
L 44.992452 212.216401 
L 44.920961 211.296885 
L 44.84564 210.377368 
L 44.764964 209.457852 
L 44.677265 208.538335 
L 44.580796 207.618819 
L 44.473797 206.699302 
L 44.354568 205.779786 
L 44.221545 204.860269 
L 44.073382 203.940753 
L 43.909016 203.021236 
L 43.727741 202.101719 
L 43.529254 201.182203 
L 43.313698 200.262686 
L 43.081683 199.34317 
L 42.834289 198.423653 
L 42.573048 197.504137 
L 42.299905 196.58462 
L 42.017168 195.665104 
L 41.727427 194.745587 
L 41.43347 193.826071 
L 41.138184 192.906554 
L 40.844451 191.987038 
L 40.555038 191.067521 
L 40.272493 190.148005 
L 39.99905 189.228488 
L 39.736535 188.308972 
L 39.486304 187.389455 
L 39.249179 186.469939 
L 39.025417 185.550422 
L 38.814699 184.630905 
L 38.616132 183.711389 
L 38.428279 182.791872 
L 38.249205 181.872356 
L 38.076539 180.952839 
L 37.907551 180.033323 
L 37.739242 179.113806 
L 37.568435 178.19429 
L 37.391876 177.274773 
L 37.206338 176.355257 
L 37.008712 175.43574 
L 36.79611 174.516224 
L 36.565945 173.596707 
L 36.316015 172.677191 
L 36.044569 171.757674 
L 35.750364 170.838158 
L 35.432707 169.918641 
L 35.091494 168.999125 
L 34.727215 168.079608 
L 34.340967 167.160091 
L 33.934438 166.240575 
L 33.509882 165.321058 
L 33.070079 164.401542 
L 32.618284 163.482025 
L 32.158159 162.562509 
L 31.693704 161.642992 
L 31.229165 160.723476 
L 30.768946 159.803959 
L 30.317514 158.884443 
L 29.879297 157.964926 
L 29.458591 157.04541 
L 29.059461 156.125893 
L 28.685662 155.206377 
L 28.340556 154.28686 
L 28.027054 153.367344 
L 27.747567 152.447827 
L 27.503977 151.528311 
L 27.297624 150.608794 
L 27.129319 149.689277 
L 26.999372 148.769761 
L 26.907639 147.850244 
L 26.853585 146.930728 
L 26.836364 146.011211 
L 26.854903 145.091695 
L 26.907999 144.172178 
L 26.994408 143.252662 
L 27.112937 142.333145 
L 27.262519 141.413629 
L 27.442277 140.494112 
L 27.651568 139.574596 
L 27.890009 138.655079 
L 28.157471 137.735563 
L 28.454056 136.816046 
L 28.78005 135.89653 
L 29.135849 134.977013 
L 29.521878 134.057497 
L 29.93849 133.13798 
L 30.385864 132.218463 
L 30.863902 131.298947 
L 31.372133 130.37943 
L 31.909631 129.459914 
L 32.474953 128.540397 
L 33.066093 127.620881 
L 33.680475 126.701364 
L 34.314957 125.781848 
L 34.965876 124.862331 
L 35.629109 123.942815 
L 36.300166 123.023298 
L 36.974286 122.103782 
L 37.646561 121.184265 
L 55.298894 121.184265 
L 55.298894 121.184265 
L 55.971169 122.103782 
L 56.645289 123.023298 
L 57.316345 123.942815 
L 57.979579 124.862331 
L 58.630498 125.781848 
L 59.264979 126.701364 
L 59.879361 127.620881 
L 60.470502 128.540397 
L 61.035824 129.459914 
L 61.573322 130.37943 
L 62.081553 131.298947 
L 62.559591 132.218463 
L 63.006964 133.13798 
L 63.423576 134.057497 
L 63.809605 134.977013 
L 64.165405 135.89653 
L 64.491398 136.816046 
L 64.787984 137.735563 
L 65.055446 138.655079 
L 65.293887 139.574596 
L 65.503178 140.494112 
L 65.682935 141.413629 
L 65.832517 142.333145 
L 65.951046 143.252662 
L 66.037456 144.172178 
L 66.090552 145.091695 
L 66.109091 146.011211 
L 66.091869 146.930728 
L 66.037815 147.850244 
L 65.946082 148.769761 
L 65.816135 149.689277 
L 65.647831 150.608794 
L 65.441478 151.528311 
L 65.197887 152.447827 
L 64.9184 153.367344 
L 64.604899 154.28686 
L 64.259793 155.206377 
L 63.885993 156.125893 
L 63.486864 157.04541 
L 63.066157 157.964926 
L 62.627941 158.884443 
L 62.176509 159.803959 
L 61.71629 160.723476 
L 61.25175 161.642992 
L 60.787295 162.562509 
L 60.327171 163.482025 
L 59.875375 164.401542 
L 59.435572 165.321058 
L 59.011016 166.240575 
L 58.604487 167.160091 
L 58.21824 168.079608 
L 57.853961 168.999125 
L 57.512747 169.918641 
L 57.195091 170.838158 
L 56.900885 171.757674 
L 56.629439 172.677191 
L 56.379509 173.596707 
L 56.149345 174.516224 
L 55.936742 175.43574 
L 55.739117 176.355257 
L 55.553578 177.274773 
L 55.37702 178.19429 
L 55.206213 179.113806 
L 55.037903 180.033323 
L 54.868916 180.952839 
L 54.69625 181.872356 
L 54.517175 182.791872 
L 54.329322 183.711389 
L 54.130755 184.630905 
L 53.920037 185.550422 
L 53.696276 186.469939 
L 53.45915 187.389455 
L 53.208919 188.308972 
L 52.946405 189.228488 
L 52.672961 190.148005 
L 52.390416 191.067521 
L 52.101003 191.987038 
L 51.80727 192.906554 
L 51.511985 193.826071 
L 51.218028 194.745587 
L 50.928286 195.665104 
L 50.645549 196.58462 
L 50.372407 197.504137 
L 50.111165 198.423653 
L 49.863771 199.34317 
L 49.631757 200.262686 
L 49.416201 201.182203 
L 49.217714 202.101719 
L 49.036438 203.021236 
L 48.872073 203.940753 
L 48.723909 204.860269 
L 48.590887 205.779786 
L 48.471657 206.699302 
L 48.364658 207.618819 
L 48.268189 208.538335 
L 48.180491 209.457852 
L 48.099814 210.377368 
L 48.024494 211.296885 
L 47.953002 212.216401 
L 47.953002 212.216401 
z
" clip-path="url(#pe4c3e7dc17)" style="fill: none; stroke: #000000; stroke-opacity: 0.3"/>
   </g>
   <g id="FillBetweenPolyCollection_7">
    <path d="M 51.224469 173.319019 
L 41.720986 173.319019 
L 41.46422 172.674853 
L 41.213608 172.030687 
L 40.970377 171.386521 
L 40.735597 170.742355 
L 40.510167 170.098188 
L 40.29482 169.454022 
L 40.090116 168.809856 
L 39.896448 168.16569 
L 39.714041 167.521524 
L 39.542945 166.877357 
L 39.383036 166.233191 
L 39.233999 165.589025 
L 39.095316 164.944859 
L 38.966247 164.300693 
L 38.845803 163.656527 
L 38.732727 163.01236 
L 38.625471 162.368194 
L 38.522176 161.724028 
L 38.420662 161.079862 
L 38.318432 160.435696 
L 38.212686 159.791529 
L 38.100347 159.147363 
L 37.978119 158.503197 
L 37.842548 157.859031 
L 37.690112 157.214865 
L 37.51732 156.570698 
L 37.320834 155.926532 
L 37.097591 155.282366 
L 36.84493 154.6382 
L 36.56073 153.994034 
L 36.243521 153.349867 
L 35.892594 152.705701 
L 35.50809 152.061535 
L 35.091053 151.417369 
L 34.643465 150.773203 
L 34.168242 150.129037 
L 33.669188 149.48487 
L 33.150931 148.840704 
L 32.618806 148.196538 
L 32.078728 147.552372 
L 31.537022 146.908206 
L 31.000254 146.264039 
L 30.475037 145.619873 
L 29.967847 144.975707 
L 29.484833 144.331541 
L 29.031658 143.687375 
L 28.613344 143.043208 
L 28.234159 142.399042 
L 27.897529 141.754876 
L 27.605987 141.11071 
L 27.361158 140.466544 
L 27.163782 139.822378 
L 27.013766 139.178211 
L 26.910268 138.534045 
L 26.851802 137.889879 
L 26.836364 137.245713 
L 26.861558 136.601547 
L 26.924738 135.95738 
L 27.023137 135.313214 
L 27.153985 134.669048 
L 27.314619 134.024882 
L 27.502567 133.380716 
L 27.715612 132.736549 
L 27.951834 132.092383 
L 28.209626 131.448217 
L 28.487695 130.804051 
L 28.785031 130.159885 
L 29.100876 129.515718 
L 29.434669 128.871552 
L 29.785987 128.227386 
L 30.154484 127.58322 
L 30.539827 126.939054 
L 30.941636 126.294888 
L 31.359433 125.650721 
L 31.792598 125.006555 
L 32.240332 124.362389 
L 32.701639 123.718223 
L 33.175314 123.074057 
L 33.659941 122.42989 
L 34.153909 121.785724 
L 34.655428 121.141558 
L 35.162557 120.497392 
L 35.673242 119.853226 
L 36.18535 119.209059 
L 36.696711 118.564893 
L 37.205162 117.920727 
L 37.708583 117.276561 
L 38.204935 116.632395 
L 38.6923 115.988229 
L 39.168901 115.344062 
L 39.633134 114.699896 
L 40.08358 114.05573 
L 40.519022 113.411564 
L 40.938443 112.767398 
L 41.341032 112.123231 
L 41.726175 111.479065 
L 42.093447 110.834899 
L 42.442596 110.190733 
L 42.773526 109.546567 
L 50.171928 109.546567 
L 50.171928 109.546567 
L 50.502859 110.190733 
L 50.852007 110.834899 
L 51.219279 111.479065 
L 51.604423 112.123231 
L 52.007012 112.767398 
L 52.426433 113.411564 
L 52.861874 114.05573 
L 53.312321 114.699896 
L 53.776554 115.344062 
L 54.253155 115.988229 
L 54.740519 116.632395 
L 55.236872 117.276561 
L 55.740292 117.920727 
L 56.248743 118.564893 
L 56.760105 119.209059 
L 57.272213 119.853226 
L 57.782898 120.497392 
L 58.290027 121.141558 
L 58.791545 121.785724 
L 59.285513 122.42989 
L 59.770141 123.074057 
L 60.243815 123.718223 
L 60.705122 124.362389 
L 61.152857 125.006555 
L 61.586021 125.650721 
L 62.003819 126.294888 
L 62.405628 126.939054 
L 62.790971 127.58322 
L 63.159468 128.227386 
L 63.510786 128.871552 
L 63.844579 129.515718 
L 64.160424 130.159885 
L 64.45776 130.804051 
L 64.735828 131.448217 
L 64.993621 132.092383 
L 65.229843 132.736549 
L 65.442888 133.380716 
L 65.630836 134.024882 
L 65.79147 134.669048 
L 65.922318 135.313214 
L 66.020716 135.95738 
L 66.083897 136.601547 
L 66.109091 137.245713 
L 66.093652 137.889879 
L 66.035187 138.534045 
L 65.931689 139.178211 
L 65.781673 139.822378 
L 65.584296 140.466544 
L 65.339467 141.11071 
L 65.047925 141.754876 
L 64.711295 142.399042 
L 64.33211 143.043208 
L 63.913797 143.687375 
L 63.460621 144.331541 
L 62.977608 144.975707 
L 62.470417 145.619873 
L 61.945201 146.264039 
L 61.408433 146.908206 
L 60.866727 147.552372 
L 60.326648 148.196538 
L 59.794524 148.840704 
L 59.276266 149.48487 
L 58.777213 150.129037 
L 58.301989 150.773203 
L 57.854402 151.417369 
L 57.437365 152.061535 
L 57.05286 152.705701 
L 56.701934 153.349867 
L 56.384724 153.994034 
L 56.100524 154.6382 
L 55.847864 155.282366 
L 55.62462 155.926532 
L 55.428134 156.570698 
L 55.255343 157.214865 
L 55.102906 157.859031 
L 54.967335 158.503197 
L 54.845107 159.147363 
L 54.732769 159.791529 
L 54.627022 160.435696 
L 54.524793 161.079862 
L 54.423279 161.724028 
L 54.319983 162.368194 
L 54.212727 163.01236 
L 54.099652 163.656527 
L 53.979208 164.300693 
L 53.850138 164.944859 
L 53.711456 165.589025 
L 53.562418 166.233191 
L 53.402509 166.877357 
L 53.231414 167.521524 
L 53.049006 168.16569 
L 52.855339 168.809856 
L 52.650635 169.454022 
L 52.435287 170.098188 
L 52.209858 170.742355 
L 51.975077 171.386521 
L 51.731847 172.030687 
L 51.481235 172.674853 
L 51.224469 173.319019 
L 51.224469 173.319019 
z
" clip-path="url(#pe4c3e7dc17)" style="fill: none; stroke: #000000; stroke-opacity: 0.3"/>
   </g>
   <g id="FillBetweenPolyCollection_8">
    <path d="M 113.145642 199.998568 
L 110.708903 199.998568 
L 110.621639 199.220729 
L 110.533122 198.442889 
L 110.441937 197.66505 
L 110.346398 196.887211 
L 110.244672 196.109372 
L 110.134916 195.331533 
L 110.015399 194.553694 
L 109.884599 193.775855 
L 109.741262 192.998016 
L 109.584408 192.220177 
L 109.413289 191.442337 
L 109.227303 190.664498 
L 109.025876 189.886659 
L 108.808336 189.10882 
L 108.573788 188.330981 
L 108.32103 187.553142 
L 108.048513 186.775303 
L 107.754362 185.997464 
L 107.436479 185.219624 
L 107.0927 184.441785 
L 106.721027 183.663946 
L 106.319885 182.886107 
L 105.888413 182.108268 
L 105.426726 181.330429 
L 104.936154 180.55259 
L 104.419404 179.774751 
L 103.880639 178.996912 
L 103.325451 178.219072 
L 102.76073 177.441233 
L 102.194415 176.663394 
L 101.635159 175.885555 
L 101.091911 175.107716 
L 100.573446 174.329877 
L 100.087878 173.552038 
L 99.64218 172.774199 
L 99.241751 171.996359 
L 98.890058 171.21852 
L 98.588376 170.440681 
L 98.335654 169.662842 
L 98.128512 168.885003 
L 97.961383 168.107164 
L 97.826777 167.329325 
L 97.715677 166.551486 
L 97.618019 165.773647 
L 97.523252 164.995807 
L 97.420919 164.217968 
L 97.301247 163.440129 
L 97.155694 162.66229 
L 96.977432 161.884451 
L 96.76173 161.106612 
L 96.506235 160.328773 
L 96.211116 159.550934 
L 95.879092 158.773094 
L 95.515322 157.995255 
L 95.12719 157.217416 
L 94.723977 156.439577 
L 94.316459 155.661738 
L 93.91643 154.883899 
L 93.536185 154.10606 
L 93.187988 153.328221 
L 92.883541 152.550382 
L 92.633475 151.772542 
L 92.446906 150.994703 
L 92.331045 150.216864 
L 92.290909 149.439025 
L 92.329132 148.661186 
L 92.445886 147.883347 
L 92.638924 147.105508 
L 92.903745 146.327669 
L 93.233867 145.54983 
L 93.621207 144.77199 
L 94.056543 143.994151 
L 94.530044 143.216312 
L 95.031819 142.438473 
L 95.552481 141.660634 
L 96.083654 140.882795 
L 96.618411 140.104956 
L 97.151605 139.327117 
L 97.680045 138.549277 
L 98.202527 137.771438 
L 98.719695 136.993599 
L 99.233745 136.21576 
L 99.748013 135.437921 
L 100.266455 134.660082 
L 100.793102 133.882243 
L 101.331517 133.104404 
L 101.88431 132.326565 
L 102.452767 131.548725 
L 103.036617 130.770886 
L 103.633942 129.993047 
L 104.241261 129.215208 
L 104.853736 128.437369 
L 105.465498 127.65953 
L 106.070039 126.881691 
L 106.660639 126.103852 
L 107.230776 125.326012 
L 107.77449 124.548173 
L 108.286682 123.770334 
L 108.763312 122.992495 
L 115.091233 122.992495 
L 115.091233 122.992495 
L 115.567864 123.770334 
L 116.080056 124.548173 
L 116.62377 125.326012 
L 117.193906 126.103852 
L 117.784506 126.881691 
L 118.389048 127.65953 
L 119.00081 128.437369 
L 119.613285 129.215208 
L 120.220604 129.993047 
L 120.817929 130.770886 
L 121.401778 131.548725 
L 121.970236 132.326565 
L 122.523028 133.104404 
L 123.061443 133.882243 
L 123.588091 134.660082 
L 124.106533 135.437921 
L 124.6208 136.21576 
L 125.134851 136.993599 
L 125.652018 137.771438 
L 126.1745 138.549277 
L 126.702941 139.327117 
L 127.236134 140.104956 
L 127.770892 140.882795 
L 128.302064 141.660634 
L 128.822726 142.438473 
L 129.324502 143.216312 
L 129.798002 143.994151 
L 130.233339 144.77199 
L 130.620678 145.54983 
L 130.9508 146.327669 
L 131.215621 147.105508 
L 131.40866 147.883347 
L 131.525413 148.661186 
L 131.563636 149.439025 
L 131.523501 150.216864 
L 131.40764 150.994703 
L 131.22107 151.772542 
L 130.971005 152.550382 
L 130.666557 153.328221 
L 130.318361 154.10606 
L 129.938116 154.883899 
L 129.538086 155.661738 
L 129.130569 156.439577 
L 128.727356 157.217416 
L 128.339223 157.995255 
L 127.975453 158.773094 
L 127.643429 159.550934 
L 127.348311 160.328773 
L 127.092815 161.106612 
L 126.877114 161.884451 
L 126.698851 162.66229 
L 126.553299 163.440129 
L 126.433627 164.217968 
L 126.331294 164.995807 
L 126.236526 165.773647 
L 126.138869 166.551486 
L 126.027768 167.329325 
L 125.893162 168.107164 
L 125.726033 168.885003 
L 125.518892 169.662842 
L 125.266169 170.440681 
L 124.964487 171.21852 
L 124.612794 171.996359 
L 124.212366 172.774199 
L 123.766668 173.552038 
L 123.2811 174.329877 
L 122.762634 175.107716 
L 122.219386 175.885555 
L 121.66013 176.663394 
L 121.093815 177.441233 
L 120.529094 178.219072 
L 119.973907 178.996912 
L 119.435141 179.774751 
L 118.918391 180.55259 
L 118.427819 181.330429 
L 117.966133 182.108268 
L 117.53466 182.886107 
L 117.133519 183.663946 
L 116.761845 184.441785 
L 116.418067 185.219624 
L 116.100183 185.997464 
L 115.806033 186.775303 
L 115.533515 187.553142 
L 115.280758 188.330981 
L 115.04621 189.10882 
L 114.828669 189.886659 
L 114.627243 190.664498 
L 114.441256 191.442337 
L 114.270137 192.220177 
L 114.113284 192.998016 
L 113.969947 193.775855 
L 113.839147 194.553694 
L 113.719629 195.331533 
L 113.609873 196.109372 
L 113.508148 196.887211 
L 113.412609 197.66505 
L 113.321423 198.442889 
L 113.232906 199.220729 
L 113.145642 199.998568 
L 113.145642 199.998568 
z
" clip-path="url(#pe4c3e7dc17)" style="fill: none; stroke: #000000; stroke-opacity: 0.3"/>
   </g>
   <g id="FillBetweenPolyCollection_9">
    <path d="M 112.426543 217.699998 
L 111.428003 217.699998 
L 111.414914 216.483798 
L 111.40612 215.267599 
L 111.398871 214.0514 
L 111.389779 212.835201 
L 111.375189 211.619002 
L 111.351612 210.402802 
L 111.316178 209.186603 
L 111.267031 207.970404 
L 111.203629 206.754205 
L 111.126886 205.538006 
L 111.039139 204.321806 
L 110.943928 203.105607 
L 110.845603 201.889408 
L 110.748784 200.673209 
L 110.657738 199.457009 
L 110.575747 198.24081 
L 110.50452 197.024611 
L 110.443756 195.808412 
L 110.390893 194.592213 
L 110.341108 193.376013 
L 110.287561 192.159814 
L 110.221865 190.943615 
L 110.134746 189.727416 
L 110.016783 188.511217 
L 109.859173 187.295017 
L 109.654412 186.078818 
L 109.396828 184.862619 
L 109.082906 183.64642 
L 108.711389 182.430221 
L 108.283143 181.214021 
L 107.800808 179.997822 
L 107.268276 178.781623 
L 106.690047 177.565424 
L 106.070545 176.349225 
L 105.413456 175.133025 
L 104.721225 173.916826 
L 103.994785 172.700627 
L 103.233637 171.484428 
L 102.43634 170.268229 
L 101.601414 169.052029 
L 100.728603 167.83583 
L 99.820325 166.619631 
L 98.883083 165.403432 
L 97.928554 164.187233 
L 96.974064 162.971033 
L 96.042239 161.754834 
L 95.15973 160.538635 
L 94.3551 159.322436 
L 93.656102 158.106237 
L 93.086762 156.890037 
L 92.664735 155.673838 
L 92.39938 154.457639 
L 92.290909 153.24144 
L 92.330734 152.025241 
L 92.502948 150.809041 
L 92.786633 149.592842 
L 93.158565 148.376643 
L 93.595837 147.160444 
L 94.077969 145.944245 
L 94.588248 144.728045 
L 95.114205 143.511846 
L 95.647347 142.295647 
L 96.182382 141.079448 
L 96.716256 139.863248 
L 97.247289 138.647049 
L 97.774599 137.43085 
L 98.297894 136.214651 
L 98.817562 134.998452 
L 99.334922 133.782252 
L 99.85244 132.566053 
L 100.373743 131.349854 
L 100.903328 130.133655 
L 101.445972 128.917456 
L 102.005924 127.701256 
L 102.58602 126.485057 
L 103.186927 125.268858 
L 103.806647 124.052659 
L 104.440398 122.83646 
L 105.080892 121.62026 
L 105.718966 120.404061 
L 106.344436 119.187862 
L 106.947053 117.971663 
L 107.517398 116.755464 
L 108.047603 115.539264 
L 108.531839 114.323065 
L 108.966528 113.106866 
L 109.350328 111.890667 
L 109.683911 110.674468 
L 109.969644 109.458268 
L 110.211198 108.242069 
L 110.413163 107.02587 
L 110.580701 105.809671 
L 110.719236 104.593472 
L 110.834205 103.377272 
L 110.930832 102.161073 
L 111.013944 100.944874 
L 111.087803 99.728675 
L 111.155958 98.512476 
L 111.221146 97.296276 
L 112.633399 97.296276 
L 112.633399 97.296276 
L 112.698587 98.512476 
L 112.766743 99.728675 
L 112.840601 100.944874 
L 112.923714 102.161073 
L 113.020341 103.377272 
L 113.135309 104.593472 
L 113.273844 105.809671 
L 113.441382 107.02587 
L 113.643347 108.242069 
L 113.884901 109.458268 
L 114.170634 110.674468 
L 114.504218 111.890667 
L 114.888017 113.106866 
L 115.322707 114.323065 
L 115.806942 115.539264 
L 116.337148 116.755464 
L 116.907492 117.971663 
L 117.51011 119.187862 
L 118.13558 120.404061 
L 118.773653 121.62026 
L 119.414148 122.83646 
L 120.047898 124.052659 
L 120.667618 125.268858 
L 121.268526 126.485057 
L 121.848622 127.701256 
L 122.408573 128.917456 
L 122.951218 130.133655 
L 123.480803 131.349854 
L 124.002105 132.566053 
L 124.519624 133.782252 
L 125.036984 134.998452 
L 125.556651 136.214651 
L 126.079946 137.43085 
L 126.607257 138.647049 
L 127.13829 139.863248 
L 127.672164 141.079448 
L 128.207198 142.295647 
L 128.74034 143.511846 
L 129.266298 144.728045 
L 129.776577 145.944245 
L 130.258709 147.160444 
L 130.69598 148.376643 
L 131.067912 149.592842 
L 131.351597 150.809041 
L 131.523811 152.025241 
L 131.563636 153.24144 
L 131.455165 154.457639 
L 131.189811 155.673838 
L 130.767783 156.890037 
L 130.198443 158.106237 
L 129.499445 159.322436 
L 128.694815 160.538635 
L 127.812307 161.754834 
L 126.880481 162.971033 
L 125.925991 164.187233 
L 124.971462 165.403432 
L 124.03422 166.619631 
L 123.125942 167.83583 
L 122.253132 169.052029 
L 121.418206 170.268229 
L 120.620909 171.484428 
L 119.859761 172.700627 
L 119.133321 173.916826 
L 118.44109 175.133025 
L 117.784001 176.349225 
L 117.164498 177.565424 
L 116.58627 178.781623 
L 116.053737 179.997822 
L 115.571402 181.214021 
L 115.143156 182.430221 
L 114.77164 183.64642 
L 114.457717 184.862619 
L 114.200133 186.078818 
L 113.995372 187.295017 
L 113.837762 188.511217 
L 113.719799 189.727416 
L 113.63268 190.943615 
L 113.566985 192.159814 
L 113.513437 193.376013 
L 113.463653 194.592213 
L 113.41079 195.808412 
L 113.350025 197.024611 
L 113.278799 198.24081 
L 113.196807 199.457009 
L 113.105762 200.673209 
L 113.008942 201.889408 
L 112.910617 203.105607 
L 112.815407 204.321806 
L 112.72766 205.538006 
L 112.650916 206.754205 
L 112.587514 207.970404 
L 112.538368 209.186603 
L 112.502934 210.402802 
L 112.479357 211.619002 
L 112.464766 212.835201 
L 112.455675 214.0514 
L 112.448426 215.267599 
L 112.439631 216.483798 
L 112.426543 217.699998 
L 112.426543 217.699998 
z
" clip-path="url(#pe4c3e7dc17)" style="fill: none; stroke: #000000; stroke-opacity: 0.3"/>
   </g>
   <g id="FillBetweenPolyCollection_10">
    <path d="M 113.265797 194.848564 
L 110.588748 194.848564 
L 110.387847 193.755878 
L 110.179118 192.663193 
L 109.961243 191.570508 
L 109.730767 190.477822 
L 109.482235 189.385137 
L 109.208759 188.292452 
L 108.903008 187.199767 
L 108.55848 186.107081 
L 108.170841 185.014396 
L 107.73903 183.921711 
L 107.265829 182.829025 
L 106.757649 181.73634 
L 106.223457 180.643655 
L 105.672955 179.550969 
L 105.114345 178.458284 
L 104.552179 177.365599 
L 103.985836 176.272913 
L 103.409067 175.180228 
L 102.810858 174.087543 
L 102.177519 172.994857 
L 101.495668 171.902172 
L 100.755529 170.809487 
L 99.953886 169.716801 
L 99.09612 168.624116 
L 98.196886 167.531431 
L 97.279284 166.438745 
L 96.372605 165.34606 
L 95.509 164.253375 
L 94.719569 163.160689 
L 94.030485 162.068004 
L 93.459746 160.975319 
L 93.015094 159.882633 
L 92.693433 158.789948 
L 92.481864 157.697263 
L 92.360182 156.604577 
L 92.30443 155.511892 
L 92.290909 154.419207 
L 92.299982 153.326521 
L 92.319018 152.233836 
L 92.344003 151.141151 
L 92.379573 150.048465 
L 92.437522 148.95578 
L 92.534102 147.863095 
L 92.686677 146.77041 
L 92.910382 145.677724 
L 93.215436 144.585039 
L 93.605603 143.492354 
L 94.078041 142.399668 
L 94.624465 141.306983 
L 95.233265 140.214298 
L 95.892017 139.121612 
L 96.589771 138.028927 
L 97.318584 136.936242 
L 98.074008 135.843556 
L 98.854503 134.750871 
L 99.660022 133.658186 
L 100.490191 132.5655 
L 101.342577 131.472815 
L 102.211464 130.38013 
L 103.087395 129.287444 
L 103.957553 128.194759 
L 104.806857 127.102074 
L 105.619509 126.009388 
L 106.380688 124.916703 
L 107.07809 123.824018 
L 107.703097 122.731332 
L 108.251446 121.638647 
L 108.723363 120.545962 
L 109.123217 119.453276 
L 109.458768 118.360591 
L 109.740129 117.267906 
L 109.978565 116.17522 
L 110.185272 115.082535 
L 110.370269 113.98985 
L 110.541533 112.897164 
L 110.704486 111.804479 
L 110.861875 110.711794 
L 111.014043 109.619108 
L 111.159503 108.526423 
L 111.295683 107.433738 
L 111.41969 106.341052 
L 111.528958 105.248367 
L 111.621679 104.155682 
L 111.69699 103.062997 
L 111.754937 101.970311 
L 111.796281 100.877626 
L 111.82225 99.784941 
L 111.834304 98.692255 
L 111.833981 97.59957 
L 111.822858 96.506885 
L 111.802606 95.414199 
L 111.775108 94.321514 
L 111.742567 93.228829 
L 111.707567 92.136143 
L 111.67301 91.043458 
L 111.641942 89.950773 
L 111.617264 88.858087 
L 111.601393 87.765402 
L 111.595944 86.672717 
L 112.258602 86.672717 
L 112.258602 86.672717 
L 112.253152 87.765402 
L 112.237282 88.858087 
L 112.212603 89.950773 
L 112.181535 91.043458 
L 112.146978 92.136143 
L 112.111978 93.228829 
L 112.079438 94.321514 
L 112.051939 95.414199 
L 112.031688 96.506885 
L 112.020564 97.59957 
L 112.020241 98.692255 
L 112.032295 99.784941 
L 112.058265 100.877626 
L 112.099609 101.970311 
L 112.157555 103.062997 
L 112.232866 104.155682 
L 112.325587 105.248367 
L 112.434855 106.341052 
L 112.558862 107.433738 
L 112.695042 108.526423 
L 112.840502 109.619108 
L 112.992671 110.711794 
L 113.150059 111.804479 
L 113.313012 112.897164 
L 113.484276 113.98985 
L 113.669273 115.082535 
L 113.87598 116.17522 
L 114.114416 117.267906 
L 114.395777 118.360591 
L 114.731328 119.453276 
L 115.131183 120.545962 
L 115.6031 121.638647 
L 116.151448 122.731332 
L 116.776456 123.824018 
L 117.473858 124.916703 
L 118.235037 126.009388 
L 119.047689 127.102074 
L 119.896993 128.194759 
L 120.767151 129.287444 
L 121.643081 130.38013 
L 122.511968 131.472815 
L 123.364355 132.5655 
L 124.194523 133.658186 
L 125.000042 134.750871 
L 125.780538 135.843556 
L 126.535962 136.936242 
L 127.264775 138.028927 
L 127.962528 139.121612 
L 128.621281 140.214298 
L 129.23008 141.306983 
L 129.776504 142.399668 
L 130.248942 143.492354 
L 130.63911 144.585039 
L 130.944164 145.677724 
L 131.167869 146.77041 
L 131.320444 147.863095 
L 131.417024 148.95578 
L 131.474972 150.048465 
L 131.510543 151.141151 
L 131.535528 152.233836 
L 131.554563 153.326521 
L 131.563636 154.419207 
L 131.550116 155.511892 
L 131.494363 156.604577 
L 131.372682 157.697263 
L 131.161112 158.789948 
L 130.839451 159.882633 
L 130.394799 160.975319 
L 129.824061 162.068004 
L 129.134976 163.160689 
L 128.345546 164.253375 
L 127.48194 165.34606 
L 126.575261 166.438745 
L 125.657659 167.531431 
L 124.758425 168.624116 
L 123.90066 169.716801 
L 123.099017 170.809487 
L 122.358877 171.902172 
L 121.677026 172.994857 
L 121.043687 174.087543 
L 120.445478 175.180228 
L 119.86871 176.272913 
L 119.302366 177.365599 
L 118.7402 178.458284 
L 118.18159 179.550969 
L 117.631088 180.643655 
L 117.096896 181.73634 
L 116.588716 182.829025 
L 116.115515 183.921711 
L 115.683705 185.014396 
L 115.296066 186.107081 
L 114.951538 187.199767 
L 114.645786 188.292452 
L 114.372311 189.385137 
L 114.123779 190.477822 
L 113.893303 191.570508 
L 113.675427 192.663193 
L 113.466698 193.755878 
L 113.265797 194.848564 
L 113.265797 194.848564 
z
" clip-path="url(#pe4c3e7dc17)" style="fill: none; stroke: #000000; stroke-opacity: 0.3"/>
   </g>
   <g id="FillBetweenPolyCollection_11">
    <path d="M 113.198278 223.534339 
L 110.656267 223.534339 
L 110.600957 222.519139 
L 110.551426 221.503939 
L 110.506745 220.488738 
L 110.46539 219.473538 
L 110.425258 218.458337 
L 110.383723 217.443137 
L 110.337731 216.427936 
L 110.283924 215.412736 
L 110.218803 214.397536 
L 110.138902 213.382335 
L 110.04098 212.367135 
L 109.922204 211.351934 
L 109.780325 210.336734 
L 109.613809 209.321534 
L 109.421948 208.306333 
L 109.204902 207.291133 
L 108.963693 206.275932 
L 108.700142 205.260732 
L 108.416745 204.245531 
L 108.116508 203.230331 
L 107.802743 202.215131 
L 107.478847 201.19993 
L 107.148082 200.18473 
L 106.813367 199.169529 
L 106.477113 198.154329 
L 106.141104 197.139129 
L 105.806431 196.123928 
L 105.473496 195.108728 
L 105.142073 194.093527 
L 104.811422 193.078327 
L 104.480437 192.063127 
L 104.147822 191.047926 
L 103.812265 190.032726 
L 103.472597 189.017525 
L 103.127924 188.002325 
L 102.777713 186.987124 
L 102.421822 185.971924 
L 102.060492 184.956724 
L 101.694284 183.941523 
L 101.323979 182.926323 
L 100.950468 181.911122 
L 100.574619 180.895922 
L 100.197171 179.880722 
L 99.818637 178.865521 
L 99.439252 177.850321 
L 99.058965 176.83512 
L 98.677466 175.81992 
L 98.294268 174.804719 
L 97.908815 173.789519 
L 97.520627 172.774319 
L 97.129442 171.759118 
L 96.735375 170.743918 
L 96.339051 169.728717 
L 95.941714 168.713517 
L 95.5453 167.698317 
L 95.152468 166.683116 
L 94.766581 165.667916 
L 94.391637 164.652715 
L 94.032166 163.637515 
L 93.693081 162.622315 
L 93.379508 161.607114 
L 93.096599 160.591914 
L 92.849345 159.576713 
L 92.642396 158.561513 
L 92.479905 157.546312 
L 92.365406 156.531112 
L 92.301719 155.515912 
L 92.290909 154.500711 
L 92.334266 153.485511 
L 92.43233 152.47031 
L 92.584931 151.45511 
L 92.791249 150.43991 
L 93.049875 149.424709 
L 93.358867 148.409509 
L 93.715796 147.394308 
L 94.117778 146.379108 
L 94.561494 145.363908 
L 95.043201 144.348707 
L 95.558749 143.333507 
L 96.103603 142.318306 
L 96.672894 141.303106 
L 97.261486 140.287905 
L 97.864091 139.272705 
L 98.475399 138.257505 
L 99.090244 137.242304 
L 99.703783 136.227104 
L 100.311666 135.211903 
L 100.910194 134.196703 
L 101.49644 133.181503 
L 102.068322 132.166302 
L 102.62461 131.151102 
L 103.164879 130.135901 
L 103.689391 129.120701 
L 104.198933 128.1055 
L 104.694618 127.0903 
L 105.177668 126.0751 
L 105.649203 125.059899 
L 106.110053 124.044699 
L 106.560614 123.029498 
L 117.293932 123.029498 
L 117.293932 123.029498 
L 117.744492 124.044699 
L 118.205342 125.059899 
L 118.676877 126.0751 
L 119.159928 127.0903 
L 119.655612 128.1055 
L 120.165154 129.120701 
L 120.689666 130.135901 
L 121.229935 131.151102 
L 121.786224 132.166302 
L 122.358106 133.181503 
L 122.944352 134.196703 
L 123.542879 135.211903 
L 124.150762 136.227104 
L 124.764301 137.242304 
L 125.379147 138.257505 
L 125.990454 139.272705 
L 126.593059 140.287905 
L 127.181652 141.303106 
L 127.750942 142.318306 
L 128.295797 143.333507 
L 128.811345 144.348707 
L 129.293051 145.363908 
L 129.736767 146.379108 
L 130.138749 147.394308 
L 130.495678 148.409509 
L 130.80467 149.424709 
L 131.063297 150.43991 
L 131.269615 151.45511 
L 131.422216 152.47031 
L 131.520279 153.485511 
L 131.563636 154.500711 
L 131.552826 155.515912 
L 131.48914 156.531112 
L 131.37464 157.546312 
L 131.212149 158.561513 
L 131.0052 159.576713 
L 130.757946 160.591914 
L 130.475038 161.607114 
L 130.161465 162.622315 
L 129.82238 163.637515 
L 129.462909 164.652715 
L 129.087965 165.667916 
L 128.702077 166.683116 
L 128.309245 167.698317 
L 127.912832 168.713517 
L 127.515495 169.728717 
L 127.11917 170.743918 
L 126.725104 171.759118 
L 126.333919 172.774319 
L 125.94573 173.789519 
L 125.560278 174.804719 
L 125.177079 175.81992 
L 124.79558 176.83512 
L 124.415293 177.850321 
L 124.035909 178.865521 
L 123.657374 179.880722 
L 123.279926 180.895922 
L 122.904078 181.911122 
L 122.530566 182.926323 
L 122.160262 183.941523 
L 121.794053 184.956724 
L 121.432723 185.971924 
L 121.076833 186.987124 
L 120.726621 188.002325 
L 120.381949 189.017525 
L 120.042281 190.032726 
L 119.706723 191.047926 
L 119.374108 192.063127 
L 119.043123 193.078327 
L 118.712472 194.093527 
L 118.38105 195.108728 
L 118.048115 196.123928 
L 117.713441 197.139129 
L 117.377432 198.154329 
L 117.041179 199.169529 
L 116.706464 200.18473 
L 116.375698 201.19993 
L 116.051802 202.215131 
L 115.738037 203.230331 
L 115.437801 204.245531 
L 115.154404 205.260732 
L 114.890853 206.275932 
L 114.649644 207.291133 
L 114.432597 208.306333 
L 114.240736 209.321534 
L 114.074221 210.336734 
L 113.932341 211.351934 
L 113.813566 212.367135 
L 113.715644 213.382335 
L 113.635743 214.397536 
L 113.570621 215.412736 
L 113.516815 216.427936 
L 113.470822 217.443137 
L 113.429287 218.458337 
L 113.389155 219.473538 
L 113.3478 220.488738 
L 113.303119 221.503939 
L 113.253588 222.519139 
L 113.198278 223.534339 
L 113.198278 223.534339 
z
" clip-path="url(#pe4c3e7dc17)" style="fill: none; stroke: #000000; stroke-opacity: 0.3"/>
   </g>
   <g id="FillBetweenPolyCollection_12">
    <path d="M 112.28767 241.791797 
L 111.566876 241.791797 
L 111.568246 239.845932 
L 111.580457 237.900067 
L 111.599451 235.954202 
L 111.619936 234.008336 
L 111.636388 232.062471 
L 111.64408 230.116606 
L 111.639885 228.170741 
L 111.622653 226.224876 
L 111.593056 224.279011 
L 111.55294 222.333145 
L 111.504339 220.38728 
L 111.448427 218.441415 
L 111.384692 216.49555 
L 111.310612 214.549685 
L 111.221961 212.603819 
L 111.113727 210.657954 
L 110.981405 208.712089 
L 110.822329 206.766224 
L 110.636654 204.820359 
L 110.427664 202.874494 
L 110.201245 200.928628 
L 109.964519 198.982763 
L 109.723835 197.036898 
L 109.482413 195.091033 
L 109.238051 193.145168 
L 108.981341 191.199302 
L 108.694857 189.253437 
L 108.353743 187.307572 
L 107.927963 185.361707 
L 107.386227 183.415842 
L 106.701195 181.469977 
L 105.855101 179.524111 
L 104.844618 177.578246 
L 103.683685 175.632381 
L 102.403304 173.686516 
L 101.048051 171.740651 
L 99.669925 169.794786 
L 98.321045 167.84892 
L 97.047159 165.903055 
L 95.88374 163.95719 
L 94.855606 162.011325 
L 93.979754 160.06546 
L 93.269884 158.119594 
L 92.740452 156.173729 
L 92.408295 154.227864 
L 92.290909 152.281999 
L 92.401927 150.336134 
L 92.745618 148.390269 
L 93.312728 146.444403 
L 94.079529 144.498538 
L 95.010643 142.552673 
L 96.064776 140.606808 
L 97.201345 138.660943 
L 98.385811 136.715077 
L 99.592163 134.769212 
L 100.802187 132.823347 
L 102.002377 130.877482 
L 103.180072 128.931617 
L 104.32046 126.985752 
L 105.405541 125.039886 
L 106.415284 123.094021 
L 107.330415 121.148156 
L 108.135771 119.202291 
L 108.823096 117.256426 
L 109.392431 115.310561 
L 109.851747 113.364695 
L 110.21502 111.41883 
L 110.49934 109.472965 
L 110.721863 107.5271 
L 110.897351 105.581235 
L 111.03681 103.635369 
L 111.147343 101.689504 
L 111.233001 99.743639 
L 111.296158 97.797774 
L 111.338869 95.851909 
L 111.363807 93.906044 
L 111.374592 91.960178 
L 111.375579 90.014313 
L 111.371345 88.068448 
L 111.36616 86.122583 
L 111.363621 84.176718 
L 111.366506 82.230853 
L 111.376771 80.284987 
L 111.395551 78.339122 
L 111.423075 76.393257 
L 111.458502 74.447392 
L 111.499786 72.501527 
L 111.543696 70.555661 
L 111.586109 68.609796 
L 111.622586 66.663931 
L 111.649149 64.718066 
L 111.663075 62.772201 
L 111.663541 60.826336 
L 111.651929 58.88047 
L 111.631714 56.934605 
L 111.607918 54.98874 
L 111.586233 53.042875 
L 111.571989 51.09701 
L 111.569181 49.151144 
L 112.285364 49.151144 
L 112.285364 49.151144 
L 112.282556 51.09701 
L 112.268312 53.042875 
L 112.246628 54.98874 
L 112.222832 56.934605 
L 112.202616 58.88047 
L 112.191004 60.826336 
L 112.19147 62.772201 
L 112.205396 64.718066 
L 112.231959 66.663931 
L 112.268437 68.609796 
L 112.310849 70.555661 
L 112.354759 72.501527 
L 112.396043 74.447392 
L 112.431471 76.393257 
L 112.458994 78.339122 
L 112.477774 80.284987 
L 112.48804 82.230853 
L 112.490925 84.176718 
L 112.488385 86.122583 
L 112.4832 88.068448 
L 112.478967 90.014313 
L 112.479953 91.960178 
L 112.490738 93.906044 
L 112.515676 95.851909 
L 112.558387 97.797774 
L 112.621544 99.743639 
L 112.707203 101.689504 
L 112.817736 103.635369 
L 112.957195 105.581235 
L 113.132683 107.5271 
L 113.355205 109.472965 
L 113.639525 111.41883 
L 114.002798 113.364695 
L 114.462114 115.310561 
L 115.031449 117.256426 
L 115.718774 119.202291 
L 116.52413 121.148156 
L 117.439261 123.094021 
L 118.449005 125.039886 
L 119.534086 126.985752 
L 120.674473 128.931617 
L 121.852168 130.877482 
L 123.052358 132.823347 
L 124.262383 134.769212 
L 125.468735 136.715077 
L 126.653201 138.660943 
L 127.789769 140.606808 
L 128.843902 142.552673 
L 129.775017 144.498538 
L 130.541817 146.444403 
L 131.108928 148.390269 
L 131.452619 150.336134 
L 131.563636 152.281999 
L 131.44625 154.227864 
L 131.114093 156.173729 
L 130.584662 158.119594 
L 129.874792 160.06546 
L 128.99894 162.011325 
L 127.970806 163.95719 
L 126.807386 165.903055 
L 125.5335 167.84892 
L 124.18462 169.794786 
L 122.806495 171.740651 
L 121.451242 173.686516 
L 120.170861 175.632381 
L 119.009927 177.578246 
L 117.999445 179.524111 
L 117.15335 181.469977 
L 116.468318 183.415842 
L 115.926583 185.361707 
L 115.500802 187.307572 
L 115.159688 189.253437 
L 114.873205 191.199302 
L 114.616494 193.145168 
L 114.372132 195.091033 
L 114.13071 197.036898 
L 113.890026 198.982763 
L 113.653301 200.928628 
L 113.426881 202.874494 
L 113.217892 204.820359 
L 113.032217 206.766224 
L 112.873141 208.712089 
L 112.740818 210.657954 
L 112.632585 212.603819 
L 112.543934 214.549685 
L 112.469853 216.49555 
L 112.406119 218.441415 
L 112.350207 220.38728 
L 112.301606 222.333145 
L 112.261489 224.279011 
L 112.231892 226.224876 
L 112.214661 228.170741 
L 112.210466 230.116606 
L 112.218157 232.062471 
L 112.23461 234.008336 
L 112.255095 235.954202 
L 112.274089 237.900067 
L 112.286299 239.845932 
L 112.28767 241.791797 
L 112.28767 241.791797 
z
" clip-path="url(#pe4c3e7dc17)" style="fill: none; stroke: #000000; stroke-opacity: 0.3"/>
   </g>
   <g id="FillBetweenPolyCollection_13">
    <path d="M 113.703943 215.993073 
L 110.150603 215.993073 
L 109.965727 214.82099 
L 109.764075 213.648908 
L 109.543849 212.476825 
L 109.30332 211.304743 
L 109.040923 210.13266 
L 108.755344 208.960578 
L 108.445588 207.788495 
L 108.111031 206.616413 
L 107.751443 205.44433 
L 107.366985 204.272248 
L 106.958186 203.100165 
L 106.525897 201.928082 
L 106.071236 200.756 
L 105.595527 199.583917 
L 105.100244 198.411835 
L 104.586965 197.239752 
L 104.057341 196.06767 
L 103.513084 194.895587 
L 102.955966 193.723505 
L 102.387837 192.551422 
L 101.81065 191.37934 
L 101.226484 190.207257 
L 100.637569 189.035175 
L 100.046299 187.863092 
L 99.455236 186.69101 
L 98.867102 185.518927 
L 98.28476 184.346845 
L 97.711188 183.174762 
L 97.149453 182.00268 
L 96.602687 180.830597 
L 96.074064 179.658515 
L 95.566792 178.486432 
L 95.084109 177.31435 
L 94.62928 176.142267 
L 94.205591 174.970185 
L 93.816341 173.798102 
L 93.464803 172.62602 
L 93.154168 171.453937 
L 92.887464 170.281855 
L 92.667434 169.109772 
L 92.4964 167.93769 
L 92.376109 166.765607 
L 92.307568 165.593525 
L 92.290909 164.421442 
L 92.325267 163.249359 
L 92.408718 162.077277 
L 92.53827 160.905194 
L 92.70993 159.733112 
L 92.91883 158.561029 
L 93.159429 157.388947 
L 93.425762 156.216864 
L 93.711731 155.044782 
L 94.011402 153.872699 
L 94.319302 152.700617 
L 94.630686 151.528534 
L 94.941748 150.356452 
L 95.249777 149.184369 
L 95.55323 148.012287 
L 95.851745 146.840204 
L 96.146068 145.668122 
L 96.437926 144.496039 
L 96.729854 143.323957 
L 97.024975 142.151874 
L 97.326781 140.979792 
L 97.63889 139.807709 
L 97.96483 138.635627 
L 98.307834 137.463544 
L 98.670666 136.291462 
L 99.05548 135.119379 
L 99.463712 133.947297 
L 99.896013 132.775214 
L 100.352207 131.603132 
L 100.831287 130.431049 
L 101.331436 129.258967 
L 101.850082 128.086884 
L 102.38396 126.914802 
L 102.929213 125.742719 
L 103.481496 124.570636 
L 104.036105 123.398554 
L 104.588114 122.226471 
L 105.132521 121.054389 
L 105.664397 119.882306 
L 106.179044 118.710224 
L 106.672135 117.538141 
L 107.139857 116.366059 
L 107.579026 115.193976 
L 107.987189 114.021894 
L 108.362692 112.849811 
L 108.704717 111.677729 
L 109.013288 110.505646 
L 109.289232 109.333564 
L 109.53411 108.161481 
L 109.750118 106.989399 
L 109.939952 105.817316 
L 110.106661 104.645234 
L 110.253485 103.473151 
L 110.3837 102.301069 
L 110.50046 101.128986 
L 110.606668 99.956904 
L 113.247878 99.956904 
L 113.247878 99.956904 
L 113.354085 101.128986 
L 113.470845 102.301069 
L 113.60106 103.473151 
L 113.747885 104.645234 
L 113.914593 105.817316 
L 114.104427 106.989399 
L 114.320435 108.161481 
L 114.565314 109.333564 
L 114.841258 110.505646 
L 115.149828 111.677729 
L 115.491854 112.849811 
L 115.867357 114.021894 
L 116.27552 115.193976 
L 116.714689 116.366059 
L 117.18241 117.538141 
L 117.675502 118.710224 
L 118.190148 119.882306 
L 118.722025 121.054389 
L 119.266431 122.226471 
L 119.81844 123.398554 
L 120.37305 124.570636 
L 120.925333 125.742719 
L 121.470585 126.914802 
L 122.004464 128.086884 
L 122.523109 129.258967 
L 123.023259 130.431049 
L 123.502338 131.603132 
L 123.958532 132.775214 
L 124.390833 133.947297 
L 124.799066 135.119379 
L 125.18388 136.291462 
L 125.546712 137.463544 
L 125.889716 138.635627 
L 126.215656 139.807709 
L 126.527765 140.979792 
L 126.82957 142.151874 
L 127.124692 143.323957 
L 127.416619 144.496039 
L 127.708478 145.668122 
L 128.0028 146.840204 
L 128.301315 148.012287 
L 128.604769 149.184369 
L 128.912797 150.356452 
L 129.223859 151.528534 
L 129.535243 152.700617 
L 129.843144 153.872699 
L 130.142815 155.044782 
L 130.428783 156.216864 
L 130.695117 157.388947 
L 130.935716 158.561029 
L 131.144615 159.733112 
L 131.316275 160.905194 
L 131.445828 162.077277 
L 131.529279 163.249359 
L 131.563636 164.421442 
L 131.546977 165.593525 
L 131.478437 166.765607 
L 131.358145 167.93769 
L 131.187112 169.109772 
L 130.967082 170.281855 
L 130.700377 171.453937 
L 130.389743 172.62602 
L 130.038204 173.798102 
L 129.648954 174.970185 
L 129.225266 176.142267 
L 128.770436 177.31435 
L 128.287754 178.486432 
L 127.780482 179.658515 
L 127.251859 180.830597 
L 126.705092 182.00268 
L 126.143358 183.174762 
L 125.569786 184.346845 
L 124.987444 185.518927 
L 124.39931 186.69101 
L 123.808247 187.863092 
L 123.216976 189.035175 
L 122.628061 190.207257 
L 122.043895 191.37934 
L 121.466708 192.551422 
L 120.898579 193.723505 
L 120.341461 194.895587 
L 119.797204 196.06767 
L 119.267581 197.239752 
L 118.754302 198.411835 
L 118.259019 199.583917 
L 117.78331 200.756 
L 117.328649 201.928082 
L 116.89636 203.100165 
L 116.487561 204.272248 
L 116.103103 205.44433 
L 115.743514 206.616413 
L 115.408957 207.788495 
L 115.099202 208.960578 
L 114.813623 210.13266 
L 114.551226 211.304743 
L 114.310696 212.476825 
L 114.09047 213.648908 
L 113.888818 214.82099 
L 113.703943 215.993073 
L 113.703943 215.993073 
z
" clip-path="url(#pe4c3e7dc17)" style="fill: none; stroke: #000000; stroke-opacity: 0.3"/>
   </g>
   <g id="FillBetweenPolyCollection_14">
    <path d="M 113.445432 218.055253 
L 110.409113 218.055253 
L 110.337134 217.096364 
L 110.262912 216.137474 
L 110.184898 215.178585 
L 110.101296 214.219696 
L 110.010104 213.260806 
L 109.909161 212.301917 
L 109.796214 211.343028 
L 109.668977 210.384138 
L 109.525207 209.425249 
L 109.362775 208.46636 
L 109.179738 207.50747 
L 108.974413 206.548581 
L 108.745435 205.589692 
L 108.491819 204.630802 
L 108.213005 203.671913 
L 107.908891 202.713024 
L 107.579854 201.754135 
L 107.226759 200.795245 
L 106.850942 199.836356 
L 106.454186 198.877467 
L 106.038678 197.918577 
L 105.606946 196.959688 
L 105.161789 196.000799 
L 104.706195 195.041909 
L 104.243246 194.08302 
L 103.776032 193.124131 
L 103.307551 192.165241 
L 102.840627 191.206352 
L 102.377832 190.247463 
L 101.921421 189.288574 
L 101.473283 188.329684 
L 101.034913 187.370795 
L 100.607396 186.411906 
L 100.191415 185.453016 
L 99.787268 184.494127 
L 99.394906 183.535238 
L 99.013977 182.576348 
L 98.64388 181.617459 
L 98.28382 180.65857 
L 97.932869 179.69968 
L 97.590027 178.740791 
L 97.254278 177.781902 
L 96.924648 176.823013 
L 96.600258 175.864123 
L 96.280378 174.905234 
L 95.964478 173.946345 
L 95.652277 172.987455 
L 95.343794 172.028566 
L 95.039388 171.069677 
L 94.739801 170.110787 
L 94.446187 169.151898 
L 94.160132 168.193009 
L 93.883656 167.234119 
L 93.619194 166.27523 
L 93.369554 165.316341 
L 93.137852 164.357451 
L 92.927416 163.398562 
L 92.741668 162.439673 
L 92.583982 161.480784 
L 92.457531 160.521894 
L 92.365124 159.563005 
L 92.309046 158.604116 
L 92.290909 157.645226 
L 92.311537 156.686337 
L 92.37087 155.727448 
L 92.467929 154.768558 
L 92.600815 153.809669 
L 92.766771 152.85078 
L 92.962292 151.89189 
L 93.183285 150.933001 
L 93.425267 149.974112 
L 93.683594 149.015223 
L 93.953703 148.056333 
L 94.231361 147.097444 
L 94.512891 146.138555 
L 94.795374 145.179665 
L 95.076803 144.220776 
L 95.35619 143.261887 
L 95.633603 142.302997 
L 95.910153 141.344108 
L 96.187902 140.385219 
L 96.46973 139.426329 
L 96.759142 138.46744 
L 97.060044 137.508551 
L 97.376495 136.549662 
L 97.712452 135.590772 
L 98.071523 134.631883 
L 98.456735 133.672994 
L 98.870346 132.714104 
L 99.313694 131.755215 
L 99.787093 130.796326 
L 100.289792 129.837436 
L 100.819981 128.878547 
L 101.374849 127.919658 
L 101.950687 126.960768 
L 102.543034 126.001879 
L 103.146842 125.04299 
L 103.756665 124.0841 
L 104.366859 123.125211 
L 119.487687 123.125211 
L 119.487687 123.125211 
L 120.09788 124.0841 
L 120.707704 125.04299 
L 121.311511 126.001879 
L 121.903858 126.960768 
L 122.479697 127.919658 
L 123.034565 128.878547 
L 123.564754 129.837436 
L 124.067453 130.796326 
L 124.540852 131.755215 
L 124.984199 132.714104 
L 125.39781 133.672994 
L 125.783023 134.631883 
L 126.142093 135.590772 
L 126.478051 136.549662 
L 126.794502 137.508551 
L 127.095403 138.46744 
L 127.384815 139.426329 
L 127.666643 140.385219 
L 127.944392 141.344108 
L 128.220942 142.302997 
L 128.498356 143.261887 
L 128.777742 144.220776 
L 129.059172 145.179665 
L 129.341655 146.138555 
L 129.623185 147.097444 
L 129.900843 148.056333 
L 130.170952 149.015223 
L 130.429278 149.974112 
L 130.67126 150.933001 
L 130.892253 151.89189 
L 131.087775 152.85078 
L 131.253731 153.809669 
L 131.386617 154.768558 
L 131.483675 155.727448 
L 131.543009 156.686337 
L 131.563636 157.645226 
L 131.5455 158.604116 
L 131.489421 159.563005 
L 131.397014 160.521894 
L 131.270564 161.480784 
L 131.112878 162.439673 
L 130.927129 163.398562 
L 130.716693 164.357451 
L 130.484992 165.316341 
L 130.235352 166.27523 
L 129.970889 167.234119 
L 129.694413 168.193009 
L 129.408358 169.151898 
L 129.114744 170.110787 
L 128.815157 171.069677 
L 128.510751 172.028566 
L 128.202268 172.987455 
L 127.890068 173.946345 
L 127.574168 174.905234 
L 127.254288 175.864123 
L 126.929898 176.823013 
L 126.600267 177.781902 
L 126.264518 178.740791 
L 125.921676 179.69968 
L 125.570726 180.65857 
L 125.210665 181.617459 
L 124.840568 182.576348 
L 124.45964 183.535238 
L 124.067278 184.494127 
L 123.663131 185.453016 
L 123.247149 186.411906 
L 122.819632 187.370795 
L 122.381262 188.329684 
L 121.933125 189.288574 
L 121.476714 190.247463 
L 121.013919 191.206352 
L 120.546995 192.165241 
L 120.078514 193.124131 
L 119.611299 194.08302 
L 119.148351 195.041909 
L 118.692756 196.000799 
L 118.2476 196.959688 
L 117.815867 197.918577 
L 117.400359 198.877467 
L 117.003604 199.836356 
L 116.627787 200.795245 
L 116.274691 201.754135 
L 115.945655 202.713024 
L 115.64154 203.671913 
L 115.362726 204.630802 
L 115.10911 205.589692 
L 114.880133 206.548581 
L 114.674807 207.50747 
L 114.491771 208.46636 
L 114.329339 209.425249 
L 114.185568 210.384138 
L 114.058331 211.343028 
L 113.945384 212.301917 
L 113.844442 213.260806 
L 113.753249 214.219696 
L 113.669648 215.178585 
L 113.591634 216.137474 
L 113.517412 217.096364 
L 113.445432 218.055253 
L 113.445432 218.055253 
z
" clip-path="url(#pe4c3e7dc17)" style="fill: none; stroke: #000000; stroke-opacity: 0.3"/>
   </g>
   <g id="matplotlib.axis_1">
    <g id="xtick_1">
     <g id="line2d_1">
      <defs>
       <path id="m2c1cc0e549" d="M 0 0 
L 0 3.5 
" style="stroke: #000000; stroke-width: 0.8"/>
      </defs>
      <g>
       <use xlink:href="#m2c1cc0e549" x="46.472727" y="291.6" style="stroke: #000000; stroke-width: 0.8"/>
      </g>
     </g>
     <g id="text_1">
      <text style="font-size: 10px; font-family: 'DejaVu Sans', 'Bitstream Vera Sans', 'Computer Modern Sans Serif', 'Lucida Grande', 'Verdana', 'Geneva', 'Lucid', 'Arial', 'Helvetica', 'Avant Garde', sans-serif; text-anchor: middle" x="46.472727" y="306.198438" transform="rotate(-0 46.472727 306.198438)">0.3</text>
     </g>
    </g>
    <g id="xtick_2">
     <g id="line2d_2">
      <g>
       <use xlink:href="#m2c1cc0e549" x="111.927273" y="291.6" style="stroke: #000000; stroke-width: 0.8"/>
      </g>
     </g>
     <g id="text_2">
      <text style="font-size: 10px; font-family: 'DejaVu Sans', 'Bitstream Vera Sans', 'Computer Modern Sans Serif', 'Lucida Grande', 'Verdana', 'Geneva', 'Lucid', 'Arial', 'Helvetica', 'Avant Garde', sans-serif; text-anchor: middle" x="111.927273" y="306.198438" transform="rotate(-0 111.927273 306.198438)">0.6</text>
     </g>
    </g>
   </g>
   <g id="matplotlib.axis_2">
    <g id="ytick_1">
     <g id="line2d_3">
      <defs>
       <path id="m1b3db4e893" d="M 0 0 
L -3.5 0 
" style="stroke: #000000; stroke-width: 0.8"/>
      </defs>
      <g>
       <use xlink:href="#m1b3db4e893" x="21.6" y="291.6" style="stroke: #000000; stroke-width: 0.8"/>
      </g>
     </g>
    </g>
    <g id="ytick_2">
     <g id="line2d_4">
      <g>
       <use xlink:href="#m1b3db4e893" x="21.6" y="199.8" style="stroke: #000000; stroke-width: 0.8"/>
      </g>
     </g>
    </g>
    <g id="ytick_3">
     <g id="line2d_5">
      <g>
       <use xlink:href="#m1b3db4e893" x="21.6" y="108" style="stroke: #000000; stroke-width: 0.8"/>
      </g>
     </g>
    </g>
    <g id="ytick_4">
     <g id="line2d_6">
      <g>
       <use xlink:href="#m1b3db4e893" x="21.6" y="16.2" style="stroke: #000000; stroke-width: 0.8"/>
      </g>
     </g>
    </g>
   </g>
   <g id="line2d_7">
    <path d="M 46.472727 269.568 
L 46.472727 264.06 
" clip-path="url(#pe4c3e7dc17)" style="fill: none; stroke: #000000; stroke-linecap: square"/>
   </g>
   <g id="line2d_8">
    <path d="M 46.472727 269.568 
L 111.927273 269.568 
" clip-path="url(#pe4c3e7dc17)" style="fill: none; stroke: #000000; stroke-linecap: square"/>
   </g>
   <g id="line2d_9">
    <path d="M 111.927273 269.568 
L 111.927273 264.06 
" clip-path="url(#pe4c3e7dc17)" style="fill: none; stroke: #000000; stroke-linecap: square"/>
   </g>
   <g id="patch_3">
    <path d="M 21.6 291.6 
L 21.6 16.2 
" style="fill: none; stroke: #000000; stroke-width: 0.8; stroke-linejoin: miter; stroke-linecap: square"/>
   </g>
   <g id="patch_4">
    <path d="M 136.8 291.6 
L 136.8 16.2 
" style="fill: none; stroke: #000000; stroke-width: 0.8; stroke-linejoin: miter; stroke-linecap: square"/>
   </g>
   <g id="patch_5">
    <path d="M 21.6 291.6 
L 136.8 291.6 
" style="fill: none; stroke: #000000; stroke-width: 0.8; stroke-linejoin: miter; stroke-linecap: square"/>
   </g>
   <g id="patch_6">
    <path d="M 21.6 16.2 
L 136.8 16.2 
" style="fill: none; stroke: #000000; stroke-width: 0.8; stroke-linejoin: miter; stroke-linecap: square"/>
   </g>
   <g id="text_3">
    <text style="font-weight: 700; font-size: 12px; font-family: 'DejaVu Sans', 'Bitstream Vera Sans', 'Computer Modern Sans Serif', 'Lucida Grande', 'Verdana', 'Geneva', 'Lucid', 'Arial', 'Helvetica', 'Avant Garde', sans-serif; text-anchor: middle" x="46.472727" y="289.104375" transform="rotate(-0 46.472727 289.104375)">#14</text>
   </g>
   <g id="text_4">
    <text style="font-weight: 700; font-size: 12px; font-family: 'DejaVu Sans', 'Bitstream Vera Sans', 'Computer Modern Sans Serif', 'Lucida Grande', 'Verdana', 'Geneva', 'Lucid', 'Arial', 'Helvetica', 'Avant Garde', sans-serif; text-anchor: middle" x="111.927273" y="289.104375" transform="rotate(-0 111.927273 289.104375)">#28</text>
   </g>
   <g id="text_5">
    <text style="font-size: 12px; font-family: 'DejaVu Sans', 'Bitstream Vera Sans', 'Computer Modern Sans Serif', 'Lucida Grande', 'Verdana', 'Geneva', 'Lucid', 'Arial', 'Helvetica', 'Avant Garde', sans-serif; text-anchor: middle" x="79.2" y="268.449375" transform="rotate(-0 79.2 268.449375)">***</text>
   </g>
   <g id="line2d_10">
    <path d="M 21.6 141.047116 
L 136.8 141.047116 
" clip-path="url(#pe4c3e7dc17)" style="fill: none; stroke-dasharray: 3.7,1.6; stroke-dashoffset: 0; stroke: #808080; stroke-opacity: 0.7"/>
   </g>
   <g id="line2d_11">
    <path d="M 21.6 155.291927 
L 136.8 155.291927 
" clip-path="url(#pe4c3e7dc17)" style="fill: none; stroke-dasharray: 3.7,1.6; stroke-dashoffset: 0; stroke: #808080; stroke-opacity: 0.7"/>
   </g>
   <g id="LineCollection_1">
    <path d="M 46.472727 146.965921 
L 46.472727 135.128311 
" clip-path="url(#pe4c3e7dc17)" style="fill: none; stroke: #000000; stroke-width: 2"/>
   </g>
   <g id="line2d_12">
    <defs>
     <path id="m957e7140b4" d="M 5 0 
L -5 -0 
" style="stroke: #000000; stroke-width: 2"/>
    </defs>
    <g clip-path="url(#pe4c3e7dc17)">
     <use xlink:href="#m957e7140b4" x="46.472727" y="146.965921" style="stroke: #000000; stroke-width: 2"/>
    </g>
   </g>
   <g id="line2d_13">
    <g clip-path="url(#pe4c3e7dc17)">
     <use xlink:href="#m957e7140b4" x="46.472727" y="135.128311" style="stroke: #000000; stroke-width: 2"/>
    </g>
   </g>
   <g id="LineCollection_2">
    <path d="M 111.927273 159.153528 
L 111.927273 151.430327 
" clip-path="url(#pe4c3e7dc17)" style="fill: none; stroke: #000000; stroke-width: 2"/>
   </g>
   <g id="line2d_14">
    <g clip-path="url(#pe4c3e7dc17)">
     <use xlink:href="#m957e7140b4" x="111.927273" y="159.153528" style="stroke: #000000; stroke-width: 2"/>
    </g>
   </g>
   <g id="line2d_15">
    <g clip-path="url(#pe4c3e7dc17)">
     <use xlink:href="#m957e7140b4" x="111.927273" y="151.430327" style="stroke: #000000; stroke-width: 2"/>
    </g>
   </g>
   <g id="line2d_16">
    <defs>
     <path id="me9b26fe179" d="M 0 4 
C 1.060812 4 2.078319 3.578535 2.828427 2.828427 
C 3.578535 2.078319 4 1.060812 4 0 
C 4 -1.060812 3.578535 -2.078319 2.828427 -2.828427 
C 2.078319 -3.578535 1.060812 -4 0 -4 
C -1.060812 -4 -2.078319 -3.578535 -2.828427 -2.828427 
C -3.578535 -2.078319 -4 -1.060812 -4 0 
C -4 1.060812 -3.578535 2.078319 -2.828427 2.828427 
C -2.078319 3.578535 -1.060812 4 0 4 
z
" style="stroke: #000000"/>
    </defs>
    <g clip-path="url(#pe4c3e7dc17)">
     <use xlink:href="#me9b26fe179" x="46.472727" y="141.047116" style="stroke: #000000"/>
    </g>
   </g>
   <g id="line2d_17">
    <g clip-path="url(#pe4c3e7dc17)">
     <use xlink:href="#me9b26fe179" x="111.927273" y="155.291927" style="stroke: #000000"/>
    </g>
   </g>
  </g>
 </g>
 <defs>
  <clipPath id="pe4c3e7dc17">
   <rect x="21.6" y="16.2" width="115.2" height="275.4"/>
  </clipPath>
 </defs>
</svg>
