<?xml version="1.0" encoding="utf-8" standalone="no"?>
<!DOCTYPE svg PUBLIC "-//W3C//DTD SVG 1.1//EN"
  "http://www.w3.org/Graphics/SVG/1.1/DTD/svg11.dtd">
<svg xmlns:xlink="http://www.w3.org/1999/xlink" width="144pt" height="324pt" viewBox="0 0 144 324" xmlns="http://www.w3.org/2000/svg" version="1.1">
 <metadata>
  <rdf:RDF xmlns:dc="http://purl.org/dc/elements/1.1/" xmlns:cc="http://creativecommons.org/ns#" xmlns:rdf="http://www.w3.org/1999/02/22-rdf-syntax-ns#">
   <cc:Work>
    <dc:type rdf:resource="http://purl.org/dc/dcmitype/StillImage"/>
    <dc:date>2025-12-05T14:51:42.359123</dc:date>
    <dc:format>image/svg+xml</dc:format>
    <dc:creator>
     <cc:Agent>
      <dc:title>Matplotlib v3.10.0, https://matplotlib.org/</dc:title>
     </cc:Agent>
    </dc:creator>
   </cc:Work>
  </rdf:RDF>
 </metadata>
 <defs>
  <style type="text/css">*{stroke-linejoin: round; stroke-linecap: butt}</style>
 </defs>
 <g id="figure_1">
  <g id="patch_1">
   <path d="M 0 324 
L 144 324 
L 144 0 
L 0 0 
z
" style="fill: #ffffff"/>
  </g>
  <g id="axes_1">
   <g id="patch_2">
    <path d="M 21.6 291.6 
L 136.8 291.6 
L 136.8 16.2 
L 21.6 16.2 
z
" style="fill: #ffffff"/>
   </g>
   <g id="FillBetweenPolyCollection_1">
    <path d="M 46.878305 181.973954 
L 46.067149 181.973954 
L 46.064191 180.743904 
L 46.066943 179.513854 
L 46.07274 178.283804 
L 46.077951 177.053754 
L 46.078197 175.823704 
L 46.068633 174.593654 
L 46.044273 173.363604 
L 46.000326 172.133554 
L 45.932516 170.903504 
L 45.83734 169.673454 
L 45.712259 168.443405 
L 45.555791 167.213355 
L 45.367498 165.983305 
L 45.147858 164.753255 
L 44.898051 163.523205 
L 44.619648 162.293155 
L 44.314277 161.063105 
L 43.983278 159.833055 
L 43.627427 158.603005 
L 43.24675 157.372955 
L 42.840477 156.142905 
L 42.407148 154.912855 
L 41.944866 153.682805 
L 41.451666 152.452755 
L 40.925945 151.222705 
L 40.366893 149.992656 
L 39.774839 148.762606 
L 39.15146 147.532556 
L 38.499787 146.302506 
L 37.824008 145.072456 
L 37.129085 143.842406 
L 36.420244 142.612356 
L 35.702448 141.382306 
L 34.979956 140.152256 
L 34.256081 138.922206 
L 33.533222 137.692156 
L 32.813196 136.462106 
L 32.097834 135.232056 
L 31.389754 134.002006 
L 30.693187 132.771956 
L 30.014686 131.541907 
L 29.363608 130.311857 
L 28.752245 129.081807 
L 28.195565 127.851757 
L 27.71055 126.621707 
L 27.315212 125.391657 
L 27.027358 124.161607 
L 26.863262 122.931557 
L 26.836364 121.701507 
L 26.956155 120.471457 
L 27.227352 119.241407 
L 27.649454 118.011357 
L 28.216716 116.781307 
L 28.918502 115.551257 
L 29.739958 114.321207 
L 30.662882 113.091157 
L 31.666663 111.861108 
L 32.729186 110.631058 
L 33.827628 109.401008 
L 34.939124 108.170958 
L 36.041348 106.940908 
L 37.113053 105.710858 
L 38.134634 104.480808 
L 39.088748 103.250758 
L 39.960961 102.020708 
L 40.740369 100.790658 
L 41.420092 99.560608 
L 41.997539 98.330558 
L 42.47438 97.100508 
L 42.856199 95.870458 
L 43.151861 94.640408 
L 43.372681 93.410359 
L 43.531495 92.180309 
L 43.641753 90.950259 
L 43.716722 89.720209 
L 43.768833 88.490159 
L 43.809216 87.260109 
L 43.847377 86.030059 
L 43.890996 84.800009 
L 43.945818 83.569959 
L 44.0156 82.339909 
L 44.102115 81.109859 
L 44.205222 79.879809 
L 44.323021 78.649759 
L 44.452096 77.419709 
L 44.587881 76.189659 
L 44.725117 74.95961 
L 44.858393 73.72956 
L 44.982712 72.49951 
L 45.094038 71.26946 
L 45.189743 70.03941 
L 45.268898 68.80936 
L 45.332354 67.57931 
L 45.382605 66.34926 
L 45.423425 65.11921 
L 45.459342 63.88916 
L 45.49502 62.65911 
L 45.534638 61.42906 
L 45.581365 60.19901 
L 47.36409 60.19901 
L 47.36409 60.19901 
L 47.410817 61.42906 
L 47.450434 62.65911 
L 47.486112 63.88916 
L 47.52203 65.11921 
L 47.56285 66.34926 
L 47.613101 67.57931 
L 47.676557 68.80936 
L 47.755711 70.03941 
L 47.851417 71.26946 
L 47.962743 72.49951 
L 48.087062 73.72956 
L 48.220337 74.95961 
L 48.357573 76.189659 
L 48.493359 77.419709 
L 48.622434 78.649759 
L 48.740232 79.879809 
L 48.84334 81.109859 
L 48.929855 82.339909 
L 48.999636 83.569959 
L 49.054459 84.800009 
L 49.098078 86.030059 
L 49.136238 87.260109 
L 49.176622 88.490159 
L 49.228733 89.720209 
L 49.303701 90.950259 
L 49.41396 92.180309 
L 49.572774 93.410359 
L 49.793594 94.640408 
L 50.089256 95.870458 
L 50.471075 97.100508 
L 50.947916 98.330558 
L 51.525362 99.560608 
L 52.205085 100.790658 
L 52.984494 102.020708 
L 53.856707 103.250758 
L 54.810821 104.480808 
L 55.832402 105.710858 
L 56.904107 106.940908 
L 58.006331 108.170958 
L 59.117827 109.401008 
L 60.216269 110.631058 
L 61.278792 111.861108 
L 62.282573 113.091157 
L 63.205496 114.321207 
L 64.026952 115.551257 
L 64.728738 116.781307 
L 65.296 118.011357 
L 65.718103 119.241407 
L 65.9893 120.471457 
L 66.109091 121.701507 
L 66.082193 122.931557 
L 65.918096 124.161607 
L 65.630242 125.391657 
L 65.234904 126.621707 
L 64.74989 127.851757 
L 64.19321 129.081807 
L 63.581847 130.311857 
L 62.930769 131.541907 
L 62.252268 132.771956 
L 61.5557 134.002006 
L 60.847621 135.232056 
L 60.132258 136.462106 
L 59.412232 137.692156 
L 58.689374 138.922206 
L 57.965499 140.152256 
L 57.243006 141.382306 
L 56.52521 142.612356 
L 55.81637 143.842406 
L 55.121447 145.072456 
L 54.445668 146.302506 
L 53.793995 147.532556 
L 53.170615 148.762606 
L 52.578562 149.992656 
L 52.01951 151.222705 
L 51.493789 152.452755 
L 51.000589 153.682805 
L 50.538307 154.912855 
L 50.104977 156.142905 
L 49.698704 157.372955 
L 49.318027 158.603005 
L 48.962177 159.833055 
L 48.631178 161.063105 
L 48.325806 162.293155 
L 48.047403 163.523205 
L 47.797596 164.753255 
L 47.577957 165.983305 
L 47.389663 167.213355 
L 47.233195 168.443405 
L 47.108115 169.673454 
L 47.012939 170.903504 
L 46.945129 172.133554 
L 46.901182 173.363604 
L 46.876821 174.593654 
L 46.867257 175.823704 
L 46.867504 177.053754 
L 46.872715 178.283804 
L 46.878511 179.513854 
L 46.881264 180.743904 
L 46.878305 181.973954 
L 46.878305 181.973954 
z
" clip-path="url(#p0852a387e9)" style="fill: none; stroke: #000000; stroke-opacity: 0.3"/>
   </g>
   <g id="FillBetweenPolyCollection_2">
    <path d="M 53.69491 163.323273 
L 39.250545 163.323273 
L 38.593453 161.874809 
L 37.915271 160.426344 
L 37.219624 158.97788 
L 36.51047 157.529415 
L 35.792059 156.080951 
L 35.068892 154.632486 
L 34.345674 153.184022 
L 33.627281 151.735558 
L 32.918717 150.287093 
L 32.225086 148.838629 
L 31.551559 147.390164 
L 30.903339 145.9417 
L 30.285637 144.493235 
L 29.703629 143.044771 
L 29.162414 141.596306 
L 28.666968 140.147842 
L 28.222072 138.699378 
L 27.832242 137.250913 
L 27.501636 135.802449 
L 27.233958 134.353984 
L 27.032345 132.90552 
L 26.899258 131.457055 
L 26.836364 130.008591 
L 26.844438 128.560127 
L 26.923271 127.111662 
L 27.071609 125.663198 
L 27.28711 124.214733 
L 27.566352 122.766269 
L 27.904871 121.317804 
L 28.297242 119.86934 
L 28.737207 118.420876 
L 29.217834 116.972411 
L 29.731713 115.523947 
L 30.271176 114.075482 
L 30.828523 112.627018 
L 31.396261 111.178553 
L 31.967323 109.730089 
L 32.535266 108.281624 
L 33.09444 106.83316 
L 33.64011 105.384696 
L 34.168531 103.936231 
L 34.676974 102.487767 
L 35.163697 101.039302 
L 35.627874 99.590838 
L 36.069478 98.142373 
L 36.489132 96.693909 
L 36.887946 95.245445 
L 37.267336 93.79698 
L 37.628854 92.348516 
L 37.974022 90.900051 
L 38.304202 89.451587 
L 38.620485 88.003122 
L 38.923626 86.554658 
L 39.214015 85.106194 
L 39.491678 83.657729 
L 39.756327 82.209265 
L 40.007424 80.7608 
L 40.24428 79.312336 
L 40.466153 77.863871 
L 40.672366 76.415407 
L 40.862405 74.966942 
L 41.036018 73.518478 
L 41.193286 72.070014 
L 41.334673 70.621549 
L 41.461051 69.173085 
L 41.573697 67.72462 
L 41.674258 66.276156 
L 41.764698 64.827691 
L 41.847222 63.379227 
L 41.924187 61.930763 
L 41.997998 60.482298 
L 42.071011 59.033834 
L 42.145429 57.585369 
L 42.223215 56.136905 
L 42.306017 54.68844 
L 42.395103 53.239976 
L 42.49133 51.791512 
L 42.595123 50.343047 
L 42.706481 48.894583 
L 42.825003 47.446118 
L 42.949933 45.997654 
L 43.080215 44.549189 
L 43.214572 43.100725 
L 43.351575 41.65226 
L 43.489729 40.203796 
L 43.627551 38.755332 
L 43.76364 37.306867 
L 43.896742 35.858403 
L 44.0258 34.409938 
L 44.149988 32.961474 
L 44.268736 31.513009 
L 44.381728 30.064545 
L 44.488896 28.616081 
L 44.590399 27.167616 
L 44.686581 25.719152 
L 44.777938 24.270687 
L 44.865063 22.822223 
L 44.948603 21.373758 
L 45.02921 19.925294 
L 47.916245 19.925294 
L 47.916245 19.925294 
L 47.996852 21.373758 
L 48.080392 22.822223 
L 48.167517 24.270687 
L 48.258873 25.719152 
L 48.355056 27.167616 
L 48.456558 28.616081 
L 48.563727 30.064545 
L 48.676719 31.513009 
L 48.795466 32.961474 
L 48.919655 34.409938 
L 49.048712 35.858403 
L 49.181814 37.306867 
L 49.317903 38.755332 
L 49.455725 40.203796 
L 49.593879 41.65226 
L 49.730883 43.100725 
L 49.865239 44.549189 
L 49.995522 45.997654 
L 50.120451 47.446118 
L 50.238974 48.894583 
L 50.350332 50.343047 
L 50.454125 51.791512 
L 50.550352 53.239976 
L 50.639438 54.68844 
L 50.722239 56.136905 
L 50.800026 57.585369 
L 50.874444 59.033834 
L 50.947456 60.482298 
L 51.021268 61.930763 
L 51.098232 63.379227 
L 51.180757 64.827691 
L 51.271197 66.276156 
L 51.371758 67.72462 
L 51.484403 69.173085 
L 51.610782 70.621549 
L 51.752169 72.070014 
L 51.909436 73.518478 
L 52.08305 74.966942 
L 52.273089 76.415407 
L 52.479302 77.863871 
L 52.701175 79.312336 
L 52.93803 80.7608 
L 53.189128 82.209265 
L 53.453777 83.657729 
L 53.73144 85.106194 
L 54.021828 86.554658 
L 54.32497 88.003122 
L 54.641253 89.451587 
L 54.971432 90.900051 
L 55.316601 92.348516 
L 55.678118 93.79698 
L 56.057509 95.245445 
L 56.456323 96.693909 
L 56.875977 98.142373 
L 57.31758 99.590838 
L 57.781757 101.039302 
L 58.268481 102.487767 
L 58.776924 103.936231 
L 59.305345 105.384696 
L 59.851014 106.83316 
L 60.410189 108.281624 
L 60.978132 109.730089 
L 61.549193 111.178553 
L 62.116932 112.627018 
L 62.674279 114.075482 
L 63.213741 115.523947 
L 63.727621 116.972411 
L 64.208248 118.420876 
L 64.648213 119.86934 
L 65.040584 121.317804 
L 65.379103 122.766269 
L 65.658345 124.214733 
L 65.873846 125.663198 
L 66.022183 127.111662 
L 66.101017 128.560127 
L 66.109091 130.008591 
L 66.046197 131.457055 
L 65.913109 132.90552 
L 65.711497 134.353984 
L 65.443819 135.802449 
L 65.113213 137.250913 
L 64.723382 138.699378 
L 64.278486 140.147842 
L 63.78304 141.596306 
L 63.241826 143.044771 
L 62.659817 144.493235 
L 62.042115 145.9417 
L 61.393896 147.390164 
L 60.720368 148.838629 
L 60.026738 150.287093 
L 59.318174 151.735558 
L 58.59978 153.184022 
L 57.876562 154.632486 
L 57.153395 156.080951 
L 56.434985 157.529415 
L 55.725831 158.97788 
L 55.030184 160.426344 
L 54.352002 161.874809 
L 53.69491 163.323273 
L 53.69491 163.323273 
z
" clip-path="url(#p0852a387e9)" style="fill: none; stroke: #000000; stroke-opacity: 0.3"/>
   </g>
   <g id="FillBetweenPolyCollection_3">
    <path d="M 47.15759 205.273671 
L 45.787865 205.273671 
L 45.795108 203.28808 
L 45.817968 201.302489 
L 45.854 199.316898 
L 45.899478 197.331307 
L 45.94961 195.345716 
L 45.998787 193.360125 
L 46.040799 191.374534 
L 46.068978 189.388943 
L 46.076252 187.403351 
L 46.055114 185.41776 
L 45.997536 183.432169 
L 45.894908 181.446578 
L 45.738048 179.460987 
L 45.517366 177.475396 
L 45.223223 175.489805 
L 44.846495 173.504214 
L 44.379322 171.518623 
L 43.815948 169.533032 
L 43.15355 167.547441 
L 42.392917 165.56185 
L 41.538836 163.576259 
L 40.600096 161.590668 
L 39.589072 159.605077 
L 38.520934 157.619486 
L 37.412618 155.633895 
L 36.281741 153.648303 
L 35.14568 151.662712 
L 34.020982 149.677121 
L 32.923216 147.69153 
L 31.867247 145.705939 
L 30.867809 143.720348 
L 29.94016 141.734757 
L 29.100581 139.749166 
L 28.366479 137.763575 
L 27.755992 135.777984 
L 27.287058 133.792393 
L 26.976075 131.806802 
L 26.836364 129.821211 
L 26.876676 127.83562 
L 27.100022 125.850029 
L 27.502977 123.864438 
L 28.075592 121.878846 
L 28.801887 119.893255 
L 29.660845 117.907664 
L 30.627764 115.922073 
L 31.675777 113.936482 
L 32.77738 111.950891 
L 33.905821 109.9653 
L 35.036258 107.979709 
L 36.146614 105.994118 
L 37.21815 104.008527 
L 38.235739 102.022936 
L 39.187915 100.037345 
L 40.066724 98.051754 
L 40.867431 96.066163 
L 41.588136 94.080572 
L 42.229316 92.094981 
L 42.793357 90.10939 
L 43.284079 88.123798 
L 43.70631 86.138207 
L 44.065529 84.152616 
L 44.367592 82.167025 
L 44.618565 80.181434 
L 44.824628 78.195843 
L 44.992053 76.210252 
L 45.127182 74.224661 
L 45.236381 72.23907 
L 45.32594 70.253479 
L 45.401884 68.267888 
L 45.469722 66.282297 
L 45.534166 64.296706 
L 45.598872 62.311115 
L 45.666247 60.325524 
L 45.737379 58.339933 
L 45.812108 56.354342 
L 45.889215 54.36875 
L 45.966724 52.383159 
L 46.042234 50.397568 
L 46.113259 48.411977 
L 46.177499 46.426386 
L 46.233024 44.440795 
L 46.278362 42.455204 
L 46.312497 40.469613 
L 46.334802 38.484022 
L 46.344962 36.498431 
L 46.342893 34.51284 
L 46.328721 32.527249 
L 46.302803 30.541658 
L 46.265813 28.556067 
L 46.218859 26.570476 
L 46.1636 24.584885 
L 46.102331 22.599293 
L 46.037993 20.613702 
L 45.974078 18.628111 
L 45.914431 16.64252 
L 45.862945 14.656929 
L 45.823205 12.671338 
L 45.798108 10.685747 
L 45.789545 8.700156 
L 47.155909 8.700156 
L 47.155909 8.700156 
L 47.147347 10.685747 
L 47.12225 12.671338 
L 47.082509 14.656929 
L 47.031024 16.64252 
L 46.971377 18.628111 
L 46.907462 20.613702 
L 46.843123 22.599293 
L 46.781854 24.584885 
L 46.726595 26.570476 
L 46.679641 28.556067 
L 46.642652 30.541658 
L 46.616734 32.527249 
L 46.602561 34.51284 
L 46.600493 36.498431 
L 46.610652 38.484022 
L 46.632958 40.469613 
L 46.667092 42.455204 
L 46.71243 44.440795 
L 46.767955 46.426386 
L 46.832195 48.411977 
L 46.90322 50.397568 
L 46.978731 52.383159 
L 47.056239 54.36875 
L 47.133347 56.354342 
L 47.208075 58.339933 
L 47.279208 60.325524 
L 47.346582 62.311115 
L 47.411288 64.296706 
L 47.475733 66.282297 
L 47.54357 68.267888 
L 47.619514 70.253479 
L 47.709074 72.23907 
L 47.818273 74.224661 
L 47.953401 76.210252 
L 48.120826 78.195843 
L 48.32689 80.181434 
L 48.577862 82.167025 
L 48.879926 84.152616 
L 49.239144 86.138207 
L 49.661376 88.123798 
L 50.152097 90.10939 
L 50.716138 92.094981 
L 51.357319 94.080572 
L 52.078023 96.066163 
L 52.878731 98.051754 
L 53.757539 100.037345 
L 54.709715 102.022936 
L 55.727304 104.008527 
L 56.79884 105.994118 
L 57.909197 107.979709 
L 59.039633 109.9653 
L 60.168075 111.950891 
L 61.269678 113.936482 
L 62.31769 115.922073 
L 63.28461 117.907664 
L 64.143568 119.893255 
L 64.869862 121.878846 
L 65.442477 123.864438 
L 65.845432 125.850029 
L 66.068778 127.83562 
L 66.109091 129.821211 
L 65.969379 131.806802 
L 65.658397 133.792393 
L 65.189463 135.777984 
L 64.578976 137.763575 
L 63.844874 139.749166 
L 63.005294 141.734757 
L 62.077646 143.720348 
L 61.078208 145.705939 
L 60.022239 147.69153 
L 58.924473 149.677121 
L 57.799775 151.662712 
L 56.663713 153.648303 
L 55.532837 155.633895 
L 54.42452 157.619486 
L 53.356382 159.605077 
L 52.345358 161.590668 
L 51.406619 163.576259 
L 50.552538 165.56185 
L 49.791905 167.547441 
L 49.129507 169.533032 
L 48.566132 171.518623 
L 48.098959 173.504214 
L 47.722232 175.489805 
L 47.428088 177.475396 
L 47.207406 179.460987 
L 47.050546 181.446578 
L 46.947918 183.432169 
L 46.890341 185.41776 
L 46.869202 187.403351 
L 46.876477 189.388943 
L 46.904656 191.374534 
L 46.946667 193.360125 
L 46.995844 195.345716 
L 47.045977 197.331307 
L 47.091454 199.316898 
L 47.127487 201.302489 
L 47.150346 203.28808 
L 47.15759 205.273671 
L 47.15759 205.273671 
z
" clip-path="url(#p0852a387e9)" style="fill: none; stroke: #000000; stroke-opacity: 0.3"/>
   </g>
   <g id="FillBetweenPolyCollection_4">
    <path d="M 47.750706 169.79796 
L 45.194749 169.79796 
L 45.078095 168.748095 
L 44.955552 167.698231 
L 44.825192 166.648366 
L 44.68464 165.598501 
L 44.531205 164.548636 
L 44.36206 163.498771 
L 44.174444 162.448907 
L 43.965872 161.399042 
L 43.734337 160.349177 
L 43.478459 159.299312 
L 43.197576 158.249447 
L 42.891761 157.199583 
L 42.561738 156.149718 
L 42.208729 155.099853 
L 41.834225 154.049988 
L 41.439718 153.000123 
L 41.026424 151.950259 
L 40.595043 150.900394 
L 40.145585 149.850529 
L 39.677299 148.800664 
L 39.188728 147.7508 
L 38.677893 146.700935 
L 38.142604 145.65107 
L 37.580857 144.601205 
L 36.991296 143.55134 
L 36.373672 142.501476 
L 35.72925 141.451611 
L 35.06111 140.401746 
L 34.374301 139.351881 
L 33.675804 138.302016 
L 32.974309 137.252152 
L 32.2798 136.202287 
L 31.602984 135.152422 
L 30.954618 134.102557 
L 30.344782 133.052692 
L 29.782184 132.002828 
L 29.273557 130.952963 
L 28.823214 129.903098 
L 28.432817 128.853233 
L 28.101375 127.803368 
L 27.825485 126.753504 
L 27.599791 125.703639 
L 27.417609 124.653774 
L 27.271668 123.603909 
L 27.154866 122.554044 
L 27.060983 121.50418 
L 26.985266 120.454315 
L 26.924821 119.40445 
L 26.8788 118.354585 
L 26.848352 117.30472 
L 26.836364 116.254856 
L 26.847052 115.204991 
L 26.885442 114.155126 
L 26.956821 113.105261 
L 27.066224 112.055396 
L 27.218016 111.005532 
L 27.415602 109.955667 
L 27.661277 108.905802 
L 27.956213 107.855937 
L 28.300557 106.806073 
L 28.693586 105.756208 
L 29.133895 104.706343 
L 29.619548 103.656478 
L 30.148197 102.606613 
L 30.717109 101.556749 
L 31.323149 100.506884 
L 31.962696 99.457019 
L 32.631545 98.407154 
L 33.324822 97.357289 
L 34.036937 96.307425 
L 34.761611 95.25756 
L 35.491983 94.207695 
L 36.220798 93.15783 
L 36.940655 92.107965 
L 37.644308 91.058101 
L 38.324959 90.008236 
L 38.976541 88.958371 
L 39.593943 87.908506 
L 40.173158 86.858641 
L 40.711358 85.808777 
L 41.206886 84.758912 
L 41.659175 83.709047 
L 42.068627 82.659182 
L 42.43646 81.609317 
L 42.764557 80.559453 
L 43.05532 79.509588 
L 43.311554 78.459723 
L 43.536379 77.409858 
L 43.73316 76.359993 
L 43.905455 75.310129 
L 44.056961 74.260264 
L 44.191455 73.210399 
L 44.312709 72.160534 
L 44.424389 71.11067 
L 44.529931 70.060805 
L 44.632407 69.01094 
L 44.734394 67.961075 
L 44.837864 66.91121 
L 44.944106 65.861346 
L 48.001349 65.861346 
L 48.001349 65.861346 
L 48.10759 66.91121 
L 48.211061 67.961075 
L 48.313048 69.01094 
L 48.415523 70.060805 
L 48.521065 71.11067 
L 48.632746 72.160534 
L 48.754 73.210399 
L 48.888494 74.260264 
L 49.04 75.310129 
L 49.212294 76.359993 
L 49.409075 77.409858 
L 49.633901 78.459723 
L 49.890135 79.509588 
L 50.180898 80.559453 
L 50.508994 81.609317 
L 50.876828 82.659182 
L 51.286279 83.709047 
L 51.738568 84.758912 
L 52.234096 85.808777 
L 52.772297 86.858641 
L 53.351512 87.908506 
L 53.968913 88.958371 
L 54.620496 90.008236 
L 55.301147 91.058101 
L 56.004799 92.107965 
L 56.724657 93.15783 
L 57.453471 94.207695 
L 58.183844 95.25756 
L 58.908518 96.307425 
L 59.620632 97.357289 
L 60.313909 98.407154 
L 60.982759 99.457019 
L 61.622305 100.506884 
L 62.228345 101.556749 
L 62.797258 102.606613 
L 63.325906 103.656478 
L 63.81156 104.706343 
L 64.251868 105.756208 
L 64.644898 106.806073 
L 64.989241 107.855937 
L 65.284177 108.905802 
L 65.529852 109.955667 
L 65.727438 111.005532 
L 65.879231 112.055396 
L 65.988634 113.105261 
L 66.060012 114.155126 
L 66.098402 115.204991 
L 66.109091 116.254856 
L 66.097103 117.30472 
L 66.066654 118.354585 
L 66.020634 119.40445 
L 65.960189 120.454315 
L 65.884471 121.50418 
L 65.790589 122.554044 
L 65.673787 123.603909 
L 65.527846 124.653774 
L 65.345664 125.703639 
L 65.119969 126.753504 
L 64.84408 127.803368 
L 64.512638 128.853233 
L 64.122241 129.903098 
L 63.671898 130.952963 
L 63.16327 132.002828 
L 62.600672 133.052692 
L 61.990836 134.102557 
L 61.34247 135.152422 
L 60.665655 136.202287 
L 59.971145 137.252152 
L 59.269651 138.302016 
L 58.571154 139.351881 
L 57.884344 140.401746 
L 57.216204 141.451611 
L 56.571782 142.501476 
L 55.954158 143.55134 
L 55.364598 144.601205 
L 54.802851 145.65107 
L 54.267561 146.700935 
L 53.756727 147.7508 
L 53.268155 148.800664 
L 52.799869 149.850529 
L 52.350411 150.900394 
L 51.919031 151.950259 
L 51.505737 153.000123 
L 51.111229 154.049988 
L 50.736725 155.099853 
L 50.383717 156.149718 
L 50.053694 157.199583 
L 49.747878 158.249447 
L 49.466996 159.299312 
L 49.211117 160.349177 
L 48.979582 161.399042 
L 48.771011 162.448907 
L 48.583394 163.498771 
L 48.41425 164.548636 
L 48.260815 165.598501 
L 48.120262 166.648366 
L 47.989902 167.698231 
L 47.86736 168.748095 
L 47.750706 169.79796 
L 47.750706 169.79796 
z
" clip-path="url(#p0852a387e9)" style="fill: none; stroke: #000000; stroke-opacity: 0.3"/>
   </g>
   <g id="FillBetweenPolyCollection_5">
    <path d="M 49.193883 166.175002 
L 43.751572 166.175002 
L 43.458666 165.187568 
L 43.149392 164.200135 
L 42.824605 163.212701 
L 42.485277 162.225267 
L 42.132423 161.237834 
L 41.766995 160.2504 
L 41.389772 159.262966 
L 41.001242 158.275533 
L 40.601492 157.288099 
L 40.190128 156.300665 
L 39.76622 155.313232 
L 39.328305 154.325798 
L 38.874446 153.338365 
L 38.40235 152.350931 
L 37.909556 151.363497 
L 37.393668 150.376064 
L 36.852635 149.38863 
L 36.285053 148.401196 
L 35.69046 147.413763 
L 35.069611 146.426329 
L 34.424698 145.438895 
L 33.759496 144.451462 
L 33.079411 143.464028 
L 32.39143 142.476595 
L 31.703957 141.489161 
L 31.026539 140.501727 
L 30.369507 139.514294 
L 29.743536 138.52686 
L 29.159154 137.539426 
L 28.626246 136.551993 
L 28.153556 135.564559 
L 27.748253 134.577125 
L 27.415561 133.589692 
L 27.158505 132.602258 
L 26.977766 131.614825 
L 26.87168 130.627391 
L 26.836364 129.639957 
L 26.865968 128.652524 
L 26.953042 127.66509 
L 27.088987 126.677656 
L 27.264557 125.690223 
L 27.470393 124.702789 
L 27.697537 123.715355 
L 27.937909 122.727922 
L 28.184702 121.740488 
L 28.432686 120.753055 
L 28.678395 119.765621 
L 28.920193 118.778187 
L 29.158224 117.790754 
L 29.394244 116.80332 
L 29.631366 115.815886 
L 29.873731 114.828453 
L 30.12613 113.841019 
L 30.393609 112.853585 
L 30.681077 111.866152 
L 30.99295 110.878718 
L 31.332842 109.891284 
L 31.70332 108.903851 
L 32.105739 107.916417 
L 32.540152 106.928984 
L 33.005303 105.94155 
L 33.498687 104.954116 
L 34.016683 103.966683 
L 34.554725 102.979249 
L 35.107528 101.991815 
L 35.669324 101.004382 
L 36.234115 100.016948 
L 36.795923 99.029514 
L 37.349018 98.042081 
L 37.888122 97.054647 
L 38.408586 96.067214 
L 38.906513 95.07978 
L 39.378846 94.092346 
L 39.823406 93.104913 
L 40.238893 92.117479 
L 40.624834 91.130045 
L 40.981512 90.142612 
L 41.309857 89.155178 
L 41.611323 88.167744 
L 41.887761 87.180311 
L 42.141279 86.192877 
L 42.374127 85.205444 
L 42.588582 84.21801 
L 42.78686 83.230576 
L 42.971053 82.243143 
L 43.14308 81.255709 
L 43.304668 80.268275 
L 43.457349 79.280842 
L 43.602466 78.293408 
L 43.741197 77.305974 
L 43.874573 76.318541 
L 44.003502 75.331107 
L 44.128785 74.343674 
L 44.251129 73.35624 
L 44.371143 72.368806 
L 44.48934 71.381373 
L 44.606124 70.393939 
L 44.721777 69.406505 
L 44.836444 68.419072 
L 48.109011 68.419072 
L 48.109011 68.419072 
L 48.223678 69.406505 
L 48.33933 70.393939 
L 48.456114 71.381373 
L 48.574312 72.368806 
L 48.694326 73.35624 
L 48.816669 74.343674 
L 48.941953 75.331107 
L 49.070882 76.318541 
L 49.204258 77.305974 
L 49.342988 78.293408 
L 49.488106 79.280842 
L 49.640786 80.268275 
L 49.802375 81.255709 
L 49.974402 82.243143 
L 50.158594 83.230576 
L 50.356873 84.21801 
L 50.571327 85.205444 
L 50.804175 86.192877 
L 51.057694 87.180311 
L 51.334131 88.167744 
L 51.635598 89.155178 
L 51.963943 90.142612 
L 52.32062 91.130045 
L 52.706562 92.117479 
L 53.122048 93.104913 
L 53.566609 94.092346 
L 54.038942 95.07978 
L 54.536869 96.067214 
L 55.057333 97.054647 
L 55.596437 98.042081 
L 56.149531 99.029514 
L 56.711339 100.016948 
L 57.276131 101.004382 
L 57.837927 101.991815 
L 58.39073 102.979249 
L 58.928772 103.966683 
L 59.446767 104.954116 
L 59.940152 105.94155 
L 60.405303 106.928984 
L 60.839716 107.916417 
L 61.242135 108.903851 
L 61.612613 109.891284 
L 61.952504 110.878718 
L 62.264378 111.866152 
L 62.551846 112.853585 
L 62.819324 113.841019 
L 63.071723 114.828453 
L 63.314089 115.815886 
L 63.551211 116.80332 
L 63.78723 117.790754 
L 64.025261 118.778187 
L 64.26706 119.765621 
L 64.512768 120.753055 
L 64.760752 121.740488 
L 65.007545 122.727922 
L 65.247917 123.715355 
L 65.475062 124.702789 
L 65.680897 125.690223 
L 65.856468 126.677656 
L 65.992412 127.66509 
L 66.079487 128.652524 
L 66.109091 129.639957 
L 66.073774 130.627391 
L 65.967688 131.614825 
L 65.78695 132.602258 
L 65.529893 133.589692 
L 65.197202 134.577125 
L 64.791898 135.564559 
L 64.319209 136.551993 
L 63.7863 137.539426 
L 63.201919 138.52686 
L 62.575947 139.514294 
L 61.918916 140.501727 
L 61.241498 141.489161 
L 60.554024 142.476595 
L 59.866044 143.464028 
L 59.185958 144.451462 
L 58.520756 145.438895 
L 57.875844 146.426329 
L 57.254995 147.413763 
L 56.660402 148.401196 
L 56.092819 149.38863 
L 55.551786 150.376064 
L 55.035898 151.363497 
L 54.543104 152.350931 
L 54.071009 153.338365 
L 53.617149 154.325798 
L 53.179234 155.313232 
L 52.755326 156.300665 
L 52.343962 157.288099 
L 51.944213 158.275533 
L 51.555682 159.262966 
L 51.178459 160.2504 
L 50.813032 161.237834 
L 50.460178 162.225267 
L 50.12085 163.212701 
L 49.796062 164.200135 
L 49.486788 165.187568 
L 49.193883 166.175002 
L 49.193883 166.175002 
z
" clip-path="url(#p0852a387e9)" style="fill: none; stroke: #000000; stroke-opacity: 0.3"/>
   </g>
   <g id="FillBetweenPolyCollection_6">
    <path d="M 48.206782 172.758922 
L 44.738672 172.758922 
L 44.608831 171.895707 
L 44.466403 171.032492 
L 44.308862 170.169278 
L 44.133553 169.306063 
L 43.937779 168.442849 
L 43.718908 167.579634 
L 43.474482 166.716419 
L 43.202325 165.853205 
L 42.900652 164.98999 
L 42.568151 164.126776 
L 42.204062 163.263561 
L 41.80823 162.400346 
L 41.381121 161.537132 
L 40.92383 160.673917 
L 40.438045 159.810703 
L 39.925994 158.947488 
L 39.390371 158.084273 
L 38.834236 157.221059 
L 38.260915 156.357844 
L 37.67389 155.49463 
L 37.076694 154.631415 
L 36.472817 153.7682 
L 35.865623 152.904986 
L 35.2583 152.041771 
L 34.653819 151.178557 
L 34.054934 150.315342 
L 33.46419 149.452127 
L 32.883965 148.588913 
L 32.316522 147.725698 
L 31.764066 146.862484 
L 31.228808 145.999269 
L 30.71302 145.136054 
L 30.219071 144.27284 
L 29.749451 143.409625 
L 29.306753 142.546411 
L 28.893644 141.683196 
L 28.512794 140.819981 
L 28.166779 139.956767 
L 27.857972 139.093552 
L 27.588411 138.230338 
L 27.359666 137.367123 
L 27.172714 136.503908 
L 27.02783 135.640694 
L 26.924507 134.777479 
L 26.861407 133.914265 
L 26.836364 133.05105 
L 26.846422 132.187835 
L 26.88793 131.324621 
L 26.956674 130.461406 
L 27.048046 129.598192 
L 27.157251 128.734977 
L 27.27952 127.871762 
L 27.410338 127.008548 
L 27.545655 126.145333 
L 27.682089 125.282119 
L 27.817079 124.418904 
L 27.949013 123.55569 
L 28.077294 122.692475 
L 28.202354 121.82926 
L 28.325615 120.966046 
L 28.449387 120.102831 
L 28.576732 119.239617 
L 28.711268 118.376402 
L 28.856954 117.513187 
L 29.017855 116.649973 
L 29.197898 115.786758 
L 29.400635 114.923544 
L 29.629035 114.060329 
L 29.885297 113.197114 
L 30.170721 112.3339 
L 30.485617 111.470685 
L 30.829277 110.607471 
L 31.2 109.744256 
L 31.595176 108.881041 
L 32.011415 108.017827 
L 32.444719 107.154612 
L 32.890685 106.291398 
L 33.344724 105.428183 
L 33.802286 104.564968 
L 34.259075 103.701754 
L 34.711245 102.838539 
L 35.155558 101.975325 
L 35.589506 101.11211 
L 36.011382 100.248895 
L 36.420302 99.385681 
L 36.816182 98.522466 
L 37.199656 97.659252 
L 37.571973 96.796037 
L 37.934849 95.932822 
L 38.290305 95.069608 
L 38.640494 94.206393 
L 38.987533 93.343179 
L 39.333342 92.479964 
L 39.679512 91.616749 
L 40.027195 90.753535 
L 40.377029 89.89032 
L 40.729103 89.027106 
L 41.082953 88.163891 
L 41.437593 87.300676 
L 51.507862 87.300676 
L 51.507862 87.300676 
L 51.862502 88.163891 
L 52.216352 89.027106 
L 52.568426 89.89032 
L 52.91826 90.753535 
L 53.265942 91.616749 
L 53.612112 92.479964 
L 53.957922 93.343179 
L 54.30496 94.206393 
L 54.655149 95.069608 
L 55.010605 95.932822 
L 55.373481 96.796037 
L 55.745799 97.659252 
L 56.129273 98.522466 
L 56.525152 99.385681 
L 56.934073 100.248895 
L 57.355949 101.11211 
L 57.789897 101.975325 
L 58.23421 102.838539 
L 58.68638 103.701754 
L 59.143169 104.564968 
L 59.600731 105.428183 
L 60.054769 106.291398 
L 60.500735 107.154612 
L 60.93404 108.017827 
L 61.350279 108.881041 
L 61.745455 109.744256 
L 62.116178 110.607471 
L 62.459837 111.470685 
L 62.774733 112.3339 
L 63.060157 113.197114 
L 63.31642 114.060329 
L 63.544819 114.923544 
L 63.747556 115.786758 
L 63.927599 116.649973 
L 64.0885 117.513187 
L 64.234187 118.376402 
L 64.368722 119.239617 
L 64.496067 120.102831 
L 64.61984 120.966046 
L 64.7431 121.82926 
L 64.868161 122.692475 
L 64.996442 123.55569 
L 65.128376 124.418904 
L 65.263366 125.282119 
L 65.399799 126.145333 
L 65.535117 127.008548 
L 65.665934 127.871762 
L 65.788203 128.734977 
L 65.897408 129.598192 
L 65.988781 130.461406 
L 66.057524 131.324621 
L 66.099032 132.187835 
L 66.109091 133.05105 
L 66.084048 133.914265 
L 66.020948 134.777479 
L 65.917624 135.640694 
L 65.772741 136.503908 
L 65.585788 137.367123 
L 65.357043 138.230338 
L 65.087482 139.093552 
L 64.778675 139.956767 
L 64.432661 140.819981 
L 64.05181 141.683196 
L 63.638702 142.546411 
L 63.196004 143.409625 
L 62.726383 144.27284 
L 62.232435 145.136054 
L 61.716646 145.999269 
L 61.181388 146.862484 
L 60.628932 147.725698 
L 60.061489 148.588913 
L 59.481265 149.452127 
L 58.890521 150.315342 
L 58.291635 151.178557 
L 57.687155 152.041771 
L 57.079831 152.904986 
L 56.472638 153.7682 
L 55.86876 154.631415 
L 55.271565 155.49463 
L 54.68454 156.357844 
L 54.111219 157.221059 
L 53.555084 158.084273 
L 53.01946 158.947488 
L 52.50741 159.810703 
L 52.021625 160.673917 
L 51.564334 161.537132 
L 51.137225 162.400346 
L 50.741392 163.263561 
L 50.377304 164.126776 
L 50.044803 164.98999 
L 49.743129 165.853205 
L 49.470973 166.716419 
L 49.226546 167.579634 
L 49.007675 168.442849 
L 48.811901 169.306063 
L 48.636592 170.169278 
L 48.479052 171.032492 
L 48.336623 171.895707 
L 48.206782 172.758922 
L 48.206782 172.758922 
z
" clip-path="url(#p0852a387e9)" style="fill: none; stroke: #000000; stroke-opacity: 0.3"/>
   </g>
   <g id="FillBetweenPolyCollection_7">
    <path d="M 50.318631 169.900429 
L 42.626823 169.900429 
L 42.152852 168.117099 
L 41.635054 166.33377 
L 41.070515 164.550441 
L 40.456851 162.767111 
L 39.79255 160.983782 
L 39.077338 159.200453 
L 38.312526 157.417123 
L 37.501309 155.633794 
L 36.648984 153.850465 
L 35.763059 152.067135 
L 34.853226 150.283806 
L 33.931187 148.500477 
L 33.010334 146.717147 
L 32.105295 144.933818 
L 31.231378 143.150489 
L 30.40393 141.367159 
L 29.637678 139.58383 
L 28.946083 137.800501 
L 28.340757 136.017171 
L 27.830978 134.233842 
L 27.423351 132.450513 
L 27.121609 130.667183 
L 26.926591 128.883854 
L 26.836364 127.100525 
L 26.846493 125.317195 
L 26.950422 123.533866 
L 27.139931 121.750537 
L 27.405648 119.967207 
L 27.737552 118.183878 
L 28.125471 116.400549 
L 28.55951 114.617219 
L 29.030415 112.83389 
L 29.529838 111.050561 
L 30.050525 109.267231 
L 30.586386 107.483902 
L 31.132503 105.700573 
L 31.68504 103.917243 
L 32.241108 102.133914 
L 32.798582 100.350585 
L 33.355889 98.567255 
L 33.911795 96.783926 
L 34.4652 95.000597 
L 35.014964 93.217267 
L 35.559761 91.433938 
L 36.097995 89.650608 
L 36.627761 87.867279 
L 37.146857 86.08395 
L 37.652857 84.30062 
L 38.143218 82.517291 
L 38.615419 80.733962 
L 39.067119 78.950632 
L 39.496316 77.167303 
L 39.901488 75.383974 
L 40.281711 73.600644 
L 40.636728 71.817315 
L 40.966985 70.033986 
L 41.273605 68.250656 
L 41.558321 66.467327 
L 41.823368 64.683998 
L 42.071342 62.900668 
L 42.305043 61.117339 
L 42.527306 59.33401 
L 42.740843 57.55068 
L 42.948101 55.767351 
L 43.151142 53.984022 
L 43.35156 52.200692 
L 43.550424 50.417363 
L 43.748265 48.634034 
L 43.945084 46.850704 
L 44.1404 45.067375 
L 44.333304 43.284046 
L 44.52255 41.500716 
L 44.706634 39.717387 
L 44.883893 37.934058 
L 45.052599 36.150728 
L 45.21104 34.367399 
L 45.357601 32.58407 
L 45.490834 30.80074 
L 45.609508 29.017411 
L 45.712655 27.234082 
L 45.799602 25.450752 
L 45.869991 23.667423 
L 45.923796 21.884094 
L 45.961329 20.100764 
L 45.98324 18.317435 
L 45.990514 16.534106 
L 45.98446 14.750776 
L 45.966689 12.967447 
L 45.939092 11.184118 
L 45.903795 9.400788 
L 45.86311 7.617459 
L 45.81947 5.83413 
L 45.775352 4.0508 
L 45.733185 2.267471 
L 45.695264 0.484142 
L 45.668954 -1 
M 47.276501 -1 
L 47.25019 0.484142 
L 47.212269 2.267471 
L 47.170103 4.0508 
L 47.125984 5.83413 
L 47.082345 7.617459 
L 47.04166 9.400788 
L 47.006363 11.184118 
L 46.978766 12.967447 
L 46.960995 14.750776 
L 46.95494 16.534106 
L 46.962215 18.317435 
L 46.984126 20.100764 
L 47.021659 21.884094 
L 47.075464 23.667423 
L 47.145853 25.450752 
L 47.232799 27.234082 
L 47.335946 29.017411 
L 47.45462 30.80074 
L 47.587853 32.58407 
L 47.734415 34.367399 
L 47.892856 36.150728 
L 48.061561 37.934058 
L 48.238821 39.717387 
L 48.422905 41.500716 
L 48.61215 43.284046 
L 48.805055 45.067375 
L 49.00037 46.850704 
L 49.19719 48.634034 
L 49.39503 50.417363 
L 49.593895 52.200692 
L 49.794312 53.984022 
L 49.997354 55.767351 
L 50.204612 57.55068 
L 50.418149 59.33401 
L 50.640411 61.117339 
L 50.874112 62.900668 
L 51.122087 64.683998 
L 51.387134 66.467327 
L 51.671849 68.250656 
L 51.978469 70.033986 
L 52.308727 71.817315 
L 52.663744 73.600644 
L 53.043966 75.383974 
L 53.449139 77.167303 
L 53.878336 78.950632 
L 54.330036 80.733962 
L 54.802236 82.517291 
L 55.292597 84.30062 
L 55.798597 86.08395 
L 56.317694 87.867279 
L 56.847459 89.650608 
L 57.385694 91.433938 
L 57.930491 93.217267 
L 58.480254 95.000597 
L 59.03366 96.783926 
L 59.589565 98.567255 
L 60.146872 100.350585 
L 60.704346 102.133914 
L 61.260415 103.917243 
L 61.812952 105.700573 
L 62.359068 107.483902 
L 62.89493 109.267231 
L 63.415616 111.050561 
L 63.91504 112.83389 
L 64.385944 114.617219 
L 64.819983 116.400549 
L 65.207903 118.183878 
L 65.539807 119.967207 
L 65.805523 121.750537 
L 65.995033 123.533866 
L 66.098962 125.317195 
L 66.109091 127.100525 
L 66.018864 128.883854 
L 65.823846 130.667183 
L 65.522104 132.450513 
L 65.114476 134.233842 
L 64.604698 136.017171 
L 63.999371 137.800501 
L 63.307777 139.58383 
L 62.541525 141.367159 
L 61.714077 143.150489 
L 60.840159 144.933818 
L 59.935121 146.717147 
L 59.014267 148.500477 
L 58.092228 150.283806 
L 57.182395 152.067135 
L 56.296471 153.850465 
L 55.444146 155.633794 
L 54.632928 157.417123 
L 53.868116 159.200453 
L 53.152905 160.983782 
L 52.488604 162.767111 
L 51.874939 164.550441 
L 51.310401 166.33377 
L 50.792602 168.117099 
L 50.318631 169.900429 
L 50.318631 169.900429 
" clip-path="url(#p0852a387e9)" style="fill: none; stroke: #000000; stroke-opacity: 0.3"/>
   </g>
   <g id="FillBetweenPolyCollection_8">
    <path d="M 113.269244 247.453468 
L 110.585302 247.453468 
L 110.58485 245.919996 
L 110.593377 244.386524 
L 110.609989 242.853053 
L 110.633443 241.319581 
L 110.662158 239.78611 
L 110.694248 238.252638 
L 110.727548 236.719166 
L 110.759659 235.185695 
L 110.787995 233.652223 
L 110.809836 232.118752 
L 110.822386 230.58528 
L 110.822833 229.051808 
L 110.808409 227.518337 
L 110.776458 225.984865 
L 110.724497 224.451394 
L 110.650282 222.917922 
L 110.55187 221.38445 
L 110.427683 219.850979 
L 110.276553 218.317507 
L 110.097781 216.784036 
L 109.891166 215.250564 
L 109.657035 213.717092 
L 109.39625 212.183621 
L 109.110198 210.650149 
L 108.800762 209.116678 
L 108.470271 207.583206 
L 108.121423 206.049734 
L 107.757196 204.516263 
L 107.380735 202.982791 
L 106.995225 201.449319 
L 106.603766 199.915848 
L 106.209234 198.382376 
L 105.81416 196.848905 
L 105.42062 195.315433 
L 105.030147 193.781961 
L 104.64367 192.24849 
L 104.261494 190.715018 
L 103.883305 189.181547 
L 103.508225 187.648075 
L 103.134891 186.114603 
L 102.761569 184.581132 
L 102.386294 183.04766 
L 102.007017 181.514189 
L 101.621767 179.980717 
L 101.228802 178.447245 
L 100.826748 176.913774 
L 100.414709 175.380302 
L 99.992359 173.846831 
L 99.559987 172.313359 
L 99.118514 170.779887 
L 98.669471 169.246416 
L 98.214941 167.712944 
L 97.757484 166.179473 
L 97.30003 164.646001 
L 96.84577 163.112529 
L 96.398035 161.579058 
L 95.960191 160.045586 
L 95.535532 158.512114 
L 95.127198 156.978643 
L 94.738114 155.445171 
L 94.370947 153.9117 
L 94.028087 152.378228 
L 93.711645 150.844756 
L 93.423466 149.311285 
L 93.165158 147.777813 
L 92.938117 146.244342 
L 92.743561 144.71087 
L 92.582557 143.177398 
L 92.456039 141.643927 
L 92.364819 140.110455 
L 92.309588 138.576984 
L 92.290909 137.043512 
L 92.309198 135.51004 
L 92.364705 133.976569 
L 92.457495 132.443097 
L 92.587427 130.909626 
L 92.754141 129.376154 
L 92.957054 127.842682 
L 93.195362 126.309211 
L 93.468058 124.775739 
L 93.773953 123.242268 
L 94.111708 121.708796 
L 94.479871 120.175324 
L 94.876908 118.641853 
L 95.301245 117.108381 
L 95.751288 115.574909 
L 96.225443 114.041438 
L 96.722126 112.507966 
L 97.239753 110.974495 
L 97.776725 109.441023 
L 98.331398 107.907551 
L 98.902048 106.37408 
L 99.486832 104.840608 
L 100.083745 103.307137 
L 100.690588 101.773665 
L 101.304943 100.240193 
L 101.924155 98.706722 
L 102.545339 97.17325 
L 103.165401 95.639779 
L 120.689145 95.639779 
L 120.689145 95.639779 
L 121.309206 97.17325 
L 121.930391 98.706722 
L 122.549603 100.240193 
L 123.163957 101.773665 
L 123.770801 103.307137 
L 124.367714 104.840608 
L 124.952498 106.37408 
L 125.523148 107.907551 
L 126.077821 109.441023 
L 126.614793 110.974495 
L 127.13242 112.507966 
L 127.629102 114.041438 
L 128.103258 115.574909 
L 128.5533 117.108381 
L 128.977637 118.641853 
L 129.374675 120.175324 
L 129.742837 121.708796 
L 130.080593 123.242268 
L 130.386488 124.775739 
L 130.659184 126.309211 
L 130.897492 127.842682 
L 131.100404 129.376154 
L 131.267118 130.909626 
L 131.39705 132.443097 
L 131.489841 133.976569 
L 131.545348 135.51004 
L 131.563636 137.043512 
L 131.544957 138.576984 
L 131.489727 140.110455 
L 131.398507 141.643927 
L 131.271988 143.177398 
L 131.110984 144.71087 
L 130.916429 146.244342 
L 130.689387 147.777813 
L 130.431079 149.311285 
L 130.1429 150.844756 
L 129.826458 152.378228 
L 129.483598 153.9117 
L 129.116432 155.445171 
L 128.727348 156.978643 
L 128.319014 158.512114 
L 127.894354 160.045586 
L 127.45651 161.579058 
L 127.008776 163.112529 
L 126.554515 164.646001 
L 126.097061 166.179473 
L 125.639604 167.712944 
L 125.185075 169.246416 
L 124.736031 170.779887 
L 124.294559 172.313359 
L 123.862187 173.846831 
L 123.439837 175.380302 
L 123.027798 176.913774 
L 122.625743 178.447245 
L 122.232779 179.980717 
L 121.847529 181.514189 
L 121.468252 183.04766 
L 121.092976 184.581132 
L 120.719654 186.114603 
L 120.34632 187.648075 
L 119.97124 189.181547 
L 119.593052 190.715018 
L 119.210875 192.24849 
L 118.824399 193.781961 
L 118.433925 195.315433 
L 118.040386 196.848905 
L 117.645312 198.382376 
L 117.25078 199.915848 
L 116.85932 201.449319 
L 116.473811 202.982791 
L 116.097349 204.516263 
L 115.733123 206.049734 
L 115.384275 207.583206 
L 115.053783 209.116678 
L 114.744347 210.650149 
L 114.458295 212.183621 
L 114.19751 213.717092 
L 113.963379 215.250564 
L 113.756765 216.784036 
L 113.577993 218.317507 
L 113.426863 219.850979 
L 113.302675 221.38445 
L 113.204264 222.917922 
L 113.130049 224.451394 
L 113.078088 225.984865 
L 113.046136 227.518337 
L 113.031712 229.051808 
L 113.032159 230.58528 
L 113.04471 232.118752 
L 113.066551 233.652223 
L 113.094887 235.185695 
L 113.126997 236.719166 
L 113.160297 238.252638 
L 113.192387 239.78611 
L 113.221103 241.319581 
L 113.244556 242.853053 
L 113.261168 244.386524 
L 113.269695 245.919996 
L 113.269244 247.453468 
L 113.269244 247.453468 
z
" clip-path="url(#p0852a387e9)" style="fill: none; stroke: #000000; stroke-opacity: 0.3"/>
   </g>
   <g id="FillBetweenPolyCollection_9">
    <path d="M 112.7646 258.189909 
L 111.089945 258.189909 
L 111.097099 256.454142 
L 111.118204 254.718374 
L 111.152191 252.982607 
L 111.197374 251.246839 
L 111.25159 249.511072 
L 111.312364 247.775305 
L 111.377084 246.039537 
L 111.443181 244.30377 
L 111.508274 242.568003 
L 111.570281 240.832235 
L 111.62749 239.096468 
L 111.67858 237.360701 
L 111.722598 235.624933 
L 111.758899 233.889166 
L 111.78707 232.153398 
L 111.806822 230.417631 
L 111.817894 228.681864 
L 111.819956 226.946096 
L 111.812527 225.210329 
L 111.794914 223.474562 
L 111.76617 221.738794 
L 111.725083 220.003027 
L 111.670178 218.267259 
L 111.599739 216.531492 
L 111.511857 214.795725 
L 111.404471 213.059957 
L 111.275427 211.32419 
L 111.12253 209.588423 
L 110.943601 207.852655 
L 110.736518 206.116888 
L 110.499253 204.381121 
L 110.229911 202.645353 
L 109.926741 200.909586 
L 109.588161 199.173818 
L 109.212767 197.438051 
L 108.799341 195.702284 
L 108.346861 193.966516 
L 107.854515 192.230749 
L 107.321728 190.494982 
L 106.748196 188.759214 
L 106.133952 187.023447 
L 105.479456 185.28768 
L 104.785716 183.551912 
L 104.054454 181.816145 
L 103.288281 180.080377 
L 102.490904 178.34461 
L 101.667306 176.608843 
L 100.8239 174.873075 
L 99.968608 173.137308 
L 99.110826 171.401541 
L 98.261275 169.665773 
L 97.431691 167.930006 
L 96.63438 166.194239 
L 95.881642 164.458471 
L 95.185115 162.722704 
L 94.55507 160.986936 
L 93.999753 159.251169 
L 93.52481 157.515402 
L 93.13287 155.779634 
L 92.823345 154.043867 
L 92.592459 152.3081 
L 92.433543 150.572332 
L 92.337557 148.836565 
L 92.293824 147.100797 
L 92.290909 145.36503 
L 92.317577 143.629263 
L 92.363737 141.893495 
L 92.421304 140.157728 
L 92.484883 138.421961 
L 92.552217 136.686193 
L 92.624351 134.950426 
L 92.705488 133.214659 
L 92.802555 131.478891 
L 92.924502 129.743124 
L 93.081427 128.007356 
L 93.283584 126.271589 
L 93.540403 124.535822 
L 93.859596 122.800054 
L 94.246448 121.064287 
L 94.703345 119.32852 
L 95.229581 117.592752 
L 95.821435 115.856985 
L 96.472491 114.121218 
L 97.174151 112.38545 
L 97.91626 110.649683 
L 98.687794 108.913915 
L 99.477517 107.178148 
L 100.274577 105.442381 
L 101.068984 103.706613 
L 101.851962 101.970846 
L 102.61617 100.235079 
L 103.355789 98.499311 
L 104.0665 96.763544 
L 104.745372 95.027777 
L 105.39068 93.292009 
L 106.001679 91.556242 
L 106.578351 89.820474 
L 107.121156 88.084707 
L 107.630801 86.34894 
L 116.223744 86.34894 
L 116.223744 86.34894 
L 116.73339 88.084707 
L 117.276195 89.820474 
L 117.852867 91.556242 
L 118.463865 93.292009 
L 119.109174 95.027777 
L 119.788046 96.763544 
L 120.498757 98.499311 
L 121.238375 100.235079 
L 122.002584 101.970846 
L 122.785562 103.706613 
L 123.579968 105.442381 
L 124.377028 107.178148 
L 125.166752 108.913915 
L 125.938286 110.649683 
L 126.680395 112.38545 
L 127.382054 114.121218 
L 128.033111 115.856985 
L 128.624965 117.592752 
L 129.151201 119.32852 
L 129.608098 121.064287 
L 129.99495 122.800054 
L 130.314143 124.535822 
L 130.570962 126.271589 
L 130.773119 128.007356 
L 130.930043 129.743124 
L 131.051991 131.478891 
L 131.149057 133.214659 
L 131.230195 134.950426 
L 131.302328 136.686193 
L 131.369662 138.421961 
L 131.433241 140.157728 
L 131.490808 141.893495 
L 131.536969 143.629263 
L 131.563636 145.36503 
L 131.560722 147.100797 
L 131.516988 148.836565 
L 131.421002 150.572332 
L 131.262086 152.3081 
L 131.031201 154.043867 
L 130.721675 155.779634 
L 130.329736 157.515402 
L 129.854792 159.251169 
L 129.299476 160.986936 
L 128.669431 162.722704 
L 127.972903 164.458471 
L 127.220166 166.194239 
L 126.422855 167.930006 
L 125.593271 169.665773 
L 124.74372 171.401541 
L 123.885938 173.137308 
L 123.030645 174.873075 
L 122.18724 176.608843 
L 121.363642 178.34461 
L 120.566264 180.080377 
L 119.800092 181.816145 
L 119.068829 183.551912 
L 118.37509 185.28768 
L 117.720593 187.023447 
L 117.106349 188.759214 
L 116.532817 190.494982 
L 116.00003 192.230749 
L 115.507685 193.966516 
L 115.055204 195.702284 
L 114.641778 197.438051 
L 114.266384 199.173818 
L 113.927805 200.909586 
L 113.624635 202.645353 
L 113.355292 204.381121 
L 113.118028 206.116888 
L 112.910944 207.852655 
L 112.732015 209.588423 
L 112.579119 211.32419 
L 112.450074 213.059957 
L 112.342688 214.795725 
L 112.254806 216.531492 
L 112.184368 218.267259 
L 112.129462 220.003027 
L 112.088375 221.738794 
L 112.059632 223.474562 
L 112.042018 225.210329 
L 112.034589 226.946096 
L 112.036651 228.681864 
L 112.047723 230.417631 
L 112.067475 232.153398 
L 112.095646 233.889166 
L 112.131948 235.624933 
L 112.175965 237.360701 
L 112.227055 239.096468 
L 112.284264 240.832235 
L 112.346272 242.568003 
L 112.411364 244.30377 
L 112.477462 246.039537 
L 112.542182 247.775305 
L 112.602955 249.511072 
L 112.657171 251.246839 
L 112.702355 252.982607 
L 112.736342 254.718374 
L 112.757447 256.454142 
L 112.7646 258.189909 
L 112.7646 258.189909 
z
" clip-path="url(#p0852a387e9)" style="fill: none; stroke: #000000; stroke-opacity: 0.3"/>
   </g>
   <g id="FillBetweenPolyCollection_10">
    <path d="M 112.522517 298.392513 
L 111.332028 298.392513 
L 111.34061 295.868874 
L 111.365622 293.345235 
L 111.404959 290.821595 
L 111.455442 288.297956 
L 111.513232 285.774317 
L 111.574315 283.250678 
L 111.634936 280.727039 
L 111.691951 278.2034 
L 111.743027 275.67976 
L 111.786701 273.156121 
L 111.822293 270.632482 
L 111.849728 268.108843 
L 111.869308 265.585204 
L 111.881466 263.061565 
L 111.886563 260.537925 
L 111.884728 258.014286 
L 111.875779 255.490647 
L 111.859215 252.967008 
L 111.834284 250.443369 
L 111.800113 247.919729 
L 111.755886 245.39609 
L 111.701038 242.872451 
L 111.635427 240.348812 
L 111.559467 237.825173 
L 111.474157 235.301534 
L 111.381028 232.777894 
L 111.281972 230.254255 
L 111.178998 227.730616 
L 111.073957 225.206977 
L 110.968287 222.683338 
L 110.86282 220.159699 
L 110.757702 217.636059 
L 110.652401 215.11242 
L 110.54578 212.588781 
L 110.436151 210.065142 
L 110.32125 207.541503 
L 110.19805 205.017864 
L 110.062379 202.494224 
L 109.908395 199.970585 
L 109.727987 197.446946 
L 109.510293 194.923307 
L 109.241502 192.399668 
L 108.905157 189.876028 
L 108.483071 187.352389 
L 107.956901 184.82875 
L 107.310265 182.305111 
L 106.531168 179.781472 
L 105.614382 177.257833 
L 104.563398 174.734193 
L 103.391568 172.210554 
L 102.122204 169.686915 
L 100.787548 167.163276 
L 99.426718 164.639637 
L 98.082918 162.115998 
L 96.800296 159.592358 
L 95.62087 157.068719 
L 94.581912 154.54508 
L 93.714021 152.021441 
L 93.040031 149.497802 
L 92.574689 146.974163 
L 92.324987 144.450523 
L 92.290909 141.926884 
L 92.46638 139.403245 
L 92.840217 136.879606 
L 93.396957 134.355967 
L 94.117533 131.832327 
L 94.97982 129.308688 
L 95.959169 126.785049 
L 97.029016 124.26141 
L 98.161693 121.737771 
L 99.329445 119.214132 
L 100.505623 116.690492 
L 101.665922 114.166853 
L 102.789492 111.643214 
L 103.859724 109.119575 
L 104.864602 106.595936 
L 105.796539 104.072297 
L 106.651766 101.548657 
L 107.429425 99.025018 
L 108.13055 96.501379 
L 108.757146 93.97774 
L 109.311521 91.454101 
L 109.795932 88.930462 
L 110.212542 86.406822 
L 110.56359 83.883183 
L 110.851679 81.359544 
L 111.080052 78.835905 
L 111.252792 76.312266 
L 111.374914 73.788626 
L 111.452335 71.264987 
L 111.491771 68.741348 
L 111.500556 66.217709 
L 111.486428 63.69407 
L 111.457259 61.170431 
L 111.420743 58.646791 
L 111.384028 56.123152 
L 111.35334 53.599513 
L 111.333601 51.075874 
L 111.328138 48.552235 
L 112.526407 48.552235 
L 112.526407 48.552235 
L 112.520945 51.075874 
L 112.501206 53.599513 
L 112.470517 56.123152 
L 112.433803 58.646791 
L 112.397286 61.170431 
L 112.368117 63.69407 
L 112.35399 66.217709 
L 112.362775 68.741348 
L 112.40221 71.264987 
L 112.479632 73.788626 
L 112.601753 76.312266 
L 112.774493 78.835905 
L 113.002866 81.359544 
L 113.290955 83.883183 
L 113.642004 86.406822 
L 114.058613 88.930462 
L 114.543025 91.454101 
L 115.097399 93.97774 
L 115.723995 96.501379 
L 116.42512 99.025018 
L 117.202779 101.548657 
L 118.058007 104.072297 
L 118.989943 106.595936 
L 119.994822 109.119575 
L 121.065054 111.643214 
L 122.188623 114.166853 
L 123.348923 116.690492 
L 124.525101 119.214132 
L 125.692853 121.737771 
L 126.82553 124.26141 
L 127.895377 126.785049 
L 128.874725 129.308688 
L 129.737013 131.832327 
L 130.457589 134.355967 
L 131.014329 136.879606 
L 131.388165 139.403245 
L 131.563636 141.926884 
L 131.529559 144.450523 
L 131.279857 146.974163 
L 130.814515 149.497802 
L 130.140524 152.021441 
L 129.272634 154.54508 
L 128.233675 157.068719 
L 127.05425 159.592358 
L 125.771627 162.115998 
L 124.427828 164.639637 
L 123.066998 167.163276 
L 121.732342 169.686915 
L 120.462977 172.210554 
L 119.291147 174.734193 
L 118.240163 177.257833 
L 117.323378 179.781472 
L 116.54428 182.305111 
L 115.897644 184.82875 
L 115.371475 187.352389 
L 114.949389 189.876028 
L 114.613044 192.399668 
L 114.344253 194.923307 
L 114.126558 197.446946 
L 113.946151 199.970585 
L 113.792167 202.494224 
L 113.656496 205.017864 
L 113.533295 207.541503 
L 113.418395 210.065142 
L 113.308766 212.588781 
L 113.202144 215.11242 
L 113.096844 217.636059 
L 112.991726 220.159699 
L 112.886259 222.683338 
L 112.780588 225.206977 
L 112.675548 227.730616 
L 112.572573 230.254255 
L 112.473517 232.777894 
L 112.380388 235.301534 
L 112.295079 237.825173 
L 112.219118 240.348812 
L 112.153508 242.872451 
L 112.098659 245.39609 
L 112.054433 247.919729 
L 112.020262 250.443369 
L 111.99533 252.967008 
L 111.978766 255.490647 
L 111.969818 258.014286 
L 111.967983 260.537925 
L 111.973079 263.061565 
L 111.985238 265.585204 
L 112.004817 268.108843 
L 112.032253 270.632482 
L 112.067844 273.156121 
L 112.111518 275.67976 
L 112.162595 278.2034 
L 112.219609 280.727039 
L 112.28023 283.250678 
L 112.341313 285.774317 
L 112.399104 288.297956 
L 112.449586 290.821595 
L 112.488923 293.345235 
L 112.513935 295.868874 
L 112.522517 298.392513 
L 112.522517 298.392513 
z
" clip-path="url(#p0852a387e9)" style="fill: none; stroke: #000000; stroke-opacity: 0.3"/>
   </g>
   <g id="FillBetweenPolyCollection_11">
    <path d="M 112.737303 258.025137 
L 111.117242 258.025137 
L 111.12593 256.076757 
L 111.151454 254.128376 
L 111.192189 252.179995 
L 111.24562 250.231614 
L 111.30858 248.283233 
L 111.377554 246.334852 
L 111.448975 244.386471 
L 111.51949 242.43809 
L 111.586163 240.48971 
L 111.646585 238.541329 
L 111.698902 236.592948 
L 111.741753 234.644567 
L 111.774134 232.696186 
L 111.795231 230.747805 
L 111.804212 228.799424 
L 111.80004 226.851043 
L 111.781295 224.902663 
L 111.746041 222.954282 
L 111.691738 221.005901 
L 111.615215 219.05752 
L 111.512698 217.109139 
L 111.379889 215.160758 
L 111.212113 213.212377 
L 111.004489 211.263996 
L 110.752154 209.315616 
L 110.450494 207.367235 
L 110.095384 205.418854 
L 109.68341 203.470473 
L 109.212057 201.522092 
L 108.679846 199.573711 
L 108.086403 197.62533 
L 107.432468 195.676949 
L 106.719838 193.728569 
L 105.95127 191.780188 
L 105.130383 189.831807 
L 104.26158 187.883426 
L 103.350048 185.935045 
L 102.401856 183.986664 
L 101.424159 182.038283 
L 100.425511 180.089902 
L 99.416211 178.141522 
L 98.408645 176.193141 
L 97.417495 174.24476 
L 96.459743 172.296379 
L 95.554386 170.347998 
L 94.721806 168.399617 
L 93.982818 166.451236 
L 93.357455 164.502855 
L 92.863602 162.554475 
L 92.515651 160.606094 
L 92.323337 158.657713 
L 92.290909 156.709332 
L 92.416772 154.760951 
L 92.693624 152.81257 
L 93.109095 150.864189 
L 93.646778 148.915808 
L 94.287536 146.967428 
L 95.010897 145.019047 
L 95.796381 143.070666 
L 96.624625 141.122285 
L 97.47821 139.173904 
L 98.342161 137.225523 
L 99.204128 135.277142 
L 100.054332 133.328762 
L 100.885331 131.380381 
L 101.691705 129.432 
L 102.469729 127.483619 
L 103.217064 125.535238 
L 103.932495 123.586857 
L 104.615694 121.638476 
L 105.266993 119.690095 
L 105.887151 117.741715 
L 106.477102 115.793334 
L 107.037697 113.844953 
L 107.569459 111.896572 
L 108.072393 109.948191 
L 108.545873 107.99981 
L 108.988639 106.051429 
L 109.398901 104.103048 
L 109.77454 102.154668 
L 110.113369 100.206287 
L 110.413424 98.257906 
L 110.67323 96.309525 
L 110.892016 94.361144 
L 111.069868 92.412763 
L 111.207798 90.464382 
L 111.307752 88.516001 
L 111.372563 86.567621 
L 111.405874 84.61924 
L 111.412036 82.670859 
L 111.395982 80.722478 
L 111.363091 78.774097 
L 111.319015 76.825716 
L 111.269473 74.877335 
L 111.220018 72.928954 
L 111.175766 70.980574 
L 111.141131 69.032193 
L 111.119573 67.083812 
L 111.113407 65.135431 
L 112.741138 65.135431 
L 112.741138 65.135431 
L 112.734972 67.083812 
L 112.713415 69.032193 
L 112.678779 70.980574 
L 112.634528 72.928954 
L 112.585072 74.877335 
L 112.535531 76.825716 
L 112.491455 78.774097 
L 112.458564 80.722478 
L 112.44251 82.670859 
L 112.448671 84.61924 
L 112.481982 86.567621 
L 112.546794 88.516001 
L 112.646747 90.464382 
L 112.784678 92.412763 
L 112.96253 94.361144 
L 113.181316 96.309525 
L 113.441121 98.257906 
L 113.741176 100.206287 
L 114.080006 102.154668 
L 114.455644 104.103048 
L 114.865906 106.051429 
L 115.308672 107.99981 
L 115.782153 109.948191 
L 116.285087 111.896572 
L 116.816849 113.844953 
L 117.377444 115.793334 
L 117.967395 117.741715 
L 118.587552 119.690095 
L 119.238851 121.638476 
L 119.92205 123.586857 
L 120.637482 125.535238 
L 121.384817 127.483619 
L 122.16284 129.432 
L 122.969214 131.380381 
L 123.800213 133.328762 
L 124.650417 135.277142 
L 125.512385 137.225523 
L 126.376335 139.173904 
L 127.229921 141.122285 
L 128.058165 143.070666 
L 128.843649 145.019047 
L 129.567009 146.967428 
L 130.207768 148.915808 
L 130.745451 150.864189 
L 131.160921 152.81257 
L 131.437773 154.760951 
L 131.563636 156.709332 
L 131.531209 158.657713 
L 131.338894 160.606094 
L 130.990944 162.554475 
L 130.497091 164.502855 
L 129.871728 166.451236 
L 129.13274 168.399617 
L 128.30016 170.347998 
L 127.394803 172.296379 
L 126.437051 174.24476 
L 125.4459 176.193141 
L 124.438334 178.141522 
L 123.429035 180.089902 
L 122.430386 182.038283 
L 121.45269 183.986664 
L 120.504497 185.935045 
L 119.592966 187.883426 
L 118.724162 189.831807 
L 117.903275 191.780188 
L 117.134708 193.728569 
L 116.422077 195.676949 
L 115.768143 197.62533 
L 115.1747 199.573711 
L 114.642488 201.522092 
L 114.171135 203.470473 
L 113.759161 205.418854 
L 113.404051 207.367235 
L 113.102391 209.315616 
L 112.850056 211.263996 
L 112.642432 213.212377 
L 112.474656 215.160758 
L 112.341848 217.109139 
L 112.23933 219.05752 
L 112.162808 221.005901 
L 112.108505 222.954282 
L 112.07325 224.902663 
L 112.054505 226.851043 
L 112.050333 228.799424 
L 112.059315 230.747805 
L 112.080411 232.696186 
L 112.112793 234.644567 
L 112.155643 236.592948 
L 112.20796 238.541329 
L 112.268383 240.48971 
L 112.335055 242.43809 
L 112.40557 244.386471 
L 112.476991 246.334852 
L 112.545966 248.283233 
L 112.608926 250.231614 
L 112.662356 252.179995 
L 112.703092 254.128376 
L 112.728615 256.076757 
L 112.737303 258.025137 
L 112.737303 258.025137 
z
" clip-path="url(#p0852a387e9)" style="fill: none; stroke: #000000; stroke-opacity: 0.3"/>
   </g>
   <g id="FillBetweenPolyCollection_12">
    <path d="M 114.622613 203.154792 
L 109.231933 203.154792 
L 108.966751 201.821406 
L 108.688646 200.48802 
L 108.396887 199.154634 
L 108.09052 197.821248 
L 107.768429 196.487861 
L 107.429431 195.154475 
L 107.072389 193.821089 
L 106.696333 192.487703 
L 106.300594 191.154317 
L 105.884921 189.820931 
L 105.449591 188.487544 
L 104.995479 187.154158 
L 104.52411 185.820772 
L 104.037655 184.487386 
L 103.538897 183.154 
L 103.03115 181.820613 
L 102.518143 180.487227 
L 102.003858 179.153841 
L 101.49236 177.820455 
L 100.987588 176.487069 
L 100.493156 175.153683 
L 100.012142 173.820296 
L 99.546909 172.48691 
L 99.098947 171.153524 
L 98.668768 169.820138 
L 98.255856 168.486752 
L 97.858693 167.153365 
L 97.474873 165.819979 
L 97.101285 164.486593 
L 96.734401 163.153207 
L 96.370619 161.819821 
L 96.006666 160.486435 
L 95.640034 159.153048 
L 95.269392 157.819662 
L 94.89497 156.486276 
L 94.518853 155.15289 
L 94.145154 153.819504 
L 93.78005 152.486117 
L 93.431657 151.152731 
L 93.109739 149.819345 
L 92.825276 148.485959 
L 92.589904 147.152573 
L 92.415276 145.819187 
L 92.312387 144.4858 
L 92.290909 143.152414 
L 92.358606 141.819028 
L 92.520846 140.485642 
L 92.780263 139.152256 
L 93.13659 137.81887 
L 93.586658 136.485483 
L 94.124567 135.152097 
L 94.742005 133.818711 
L 95.428672 132.485325 
L 96.172795 131.151939 
L 96.961674 129.818552 
L 97.782224 128.485166 
L 98.621489 127.15178 
L 99.467084 125.818394 
L 100.307552 124.485008 
L 101.132633 123.151622 
L 101.933432 121.818235 
L 102.702496 120.484849 
L 103.433822 119.151463 
L 104.122797 117.818077 
L 104.766103 116.484691 
L 105.361596 115.151304 
L 105.908177 113.817918 
L 106.405673 112.484532 
L 106.854721 111.151146 
L 107.256678 109.81776 
L 107.613535 108.484374 
L 107.927849 107.150987 
L 108.20267 105.817601 
L 108.441467 104.484215 
L 108.648046 103.150829 
L 108.826448 101.817443 
L 108.980834 100.484056 
L 109.115354 99.15067 
L 109.234017 97.817284 
L 109.340547 96.483898 
L 109.438268 95.150512 
L 109.529994 93.817126 
L 109.617968 92.483739 
L 109.703824 91.150353 
L 109.788601 89.816967 
L 109.872799 88.483581 
L 109.956461 87.150195 
L 110.039296 85.816808 
L 110.120806 84.483422 
L 110.200423 83.150036 
L 110.277629 81.81665 
L 110.352057 80.483264 
L 110.423556 79.149878 
L 110.492227 77.816491 
L 110.558411 76.483105 
L 110.622657 75.149719 
L 110.685651 73.816333 
L 110.748135 72.482947 
L 110.810823 71.14956 
L 113.043723 71.14956 
L 113.043723 71.14956 
L 113.106411 72.482947 
L 113.168895 73.816333 
L 113.231888 75.149719 
L 113.296134 76.483105 
L 113.362319 77.816491 
L 113.430989 79.149878 
L 113.502489 80.483264 
L 113.576916 81.81665 
L 113.654122 83.150036 
L 113.73374 84.483422 
L 113.81525 85.816808 
L 113.898085 87.150195 
L 113.981747 88.483581 
L 114.065944 89.816967 
L 114.150722 91.150353 
L 114.236577 92.483739 
L 114.324551 93.817126 
L 114.416278 95.150512 
L 114.513998 96.483898 
L 114.620529 97.817284 
L 114.739191 99.15067 
L 114.873712 100.484056 
L 115.028097 101.817443 
L 115.206499 103.150829 
L 115.413078 104.484215 
L 115.651876 105.817601 
L 115.926696 107.150987 
L 116.24101 108.484374 
L 116.597868 109.81776 
L 116.999825 111.151146 
L 117.448873 112.484532 
L 117.946368 113.817918 
L 118.49295 115.151304 
L 119.088442 116.484691 
L 119.731748 117.818077 
L 120.420724 119.151463 
L 121.15205 120.484849 
L 121.921114 121.818235 
L 122.721913 123.151622 
L 123.546994 124.485008 
L 124.387462 125.818394 
L 125.233056 127.15178 
L 126.072322 128.485166 
L 126.892872 129.818552 
L 127.68175 131.151939 
L 128.425873 132.485325 
L 129.112541 133.818711 
L 129.729978 135.152097 
L 130.267888 136.485483 
L 130.717955 137.81887 
L 131.074282 139.152256 
L 131.333699 140.485642 
L 131.495939 141.819028 
L 131.563636 143.152414 
L 131.542159 144.4858 
L 131.439269 145.819187 
L 131.264642 147.152573 
L 131.02927 148.485959 
L 130.744807 149.819345 
L 130.422889 151.152731 
L 130.074495 152.486117 
L 129.709392 153.819504 
L 129.335692 155.15289 
L 128.959575 156.486276 
L 128.585154 157.819662 
L 128.214512 159.153048 
L 127.847879 160.486435 
L 127.483927 161.819821 
L 127.120144 163.153207 
L 126.75326 164.486593 
L 126.379673 165.819979 
L 125.995852 167.153365 
L 125.59869 168.486752 
L 125.185777 169.820138 
L 124.755598 171.153524 
L 124.307637 172.48691 
L 123.842404 173.820296 
L 123.36139 175.153683 
L 122.866957 176.487069 
L 122.362185 177.820455 
L 121.850687 179.153841 
L 121.336403 180.487227 
L 120.823395 181.820613 
L 120.315649 183.154 
L 119.816891 184.487386 
L 119.330435 185.820772 
L 118.859066 187.154158 
L 118.404955 188.487544 
L 117.969624 189.820931 
L 117.553952 191.154317 
L 117.158212 192.487703 
L 116.782156 193.821089 
L 116.425114 195.154475 
L 116.086117 196.487861 
L 115.764026 197.821248 
L 115.457659 199.154634 
L 115.1659 200.48802 
L 114.887795 201.821406 
L 114.622613 203.154792 
L 114.622613 203.154792 
z
" clip-path="url(#p0852a387e9)" style="fill: none; stroke: #000000; stroke-opacity: 0.3"/>
   </g>
   <g id="FillBetweenPolyCollection_13">
    <path d="M 113.394586 207.600682 
L 110.45996 207.600682 
L 110.327548 206.611542 
L 110.185504 205.622402 
L 110.032689 204.633262 
L 109.867909 203.644122 
L 109.689949 202.654982 
L 109.497629 201.665842 
L 109.289845 200.676702 
L 109.065627 199.687562 
L 108.824175 198.698422 
L 108.564914 197.709282 
L 108.287527 196.720142 
L 107.991987 195.731002 
L 107.67859 194.741862 
L 107.347973 193.752722 
L 107.001128 192.763583 
L 106.639402 191.774443 
L 106.264497 190.785303 
L 105.878449 189.796163 
L 105.4836 188.807023 
L 105.082557 187.817883 
L 104.678134 186.828743 
L 104.273282 185.839603 
L 103.871014 184.850463 
L 103.474311 183.861323 
L 103.086027 182.872183 
L 102.708795 181.883043 
L 102.344926 180.893903 
L 101.996328 179.904763 
L 101.664424 178.915623 
L 101.350097 177.926483 
L 101.053649 176.937343 
L 100.774781 175.948203 
L 100.512601 174.959063 
L 100.265648 173.969924 
L 100.031945 172.980784 
L 99.809068 171.991644 
L 99.594228 171.002504 
L 99.384371 170.013364 
L 99.176286 169.024224 
L 98.966715 168.035084 
L 98.752464 167.045944 
L 98.530517 166.056804 
L 98.298141 165.067664 
L 98.052982 164.078524 
L 97.79316 163.089384 
L 97.517341 162.100244 
L 97.224818 161.111104 
L 96.915557 160.121964 
L 96.590251 159.132824 
L 96.250345 158.143684 
L 95.898058 157.154544 
L 95.536376 156.165404 
L 95.169032 155.176264 
L 94.800464 154.187125 
L 94.435737 153.197985 
L 94.080453 152.208845 
L 93.740616 151.219705 
L 93.422481 150.230565 
L 93.132371 149.241425 
L 92.876478 148.252285 
L 92.660646 147.263145 
L 92.490156 146.274005 
L 92.369519 145.284865 
L 92.302288 144.295725 
L 92.290909 143.306585 
L 92.336611 142.317445 
L 92.439352 141.328305 
L 92.597832 140.339165 
L 92.809553 139.350025 
L 93.070952 138.360885 
L 93.377571 137.371745 
L 93.724282 136.382605 
L 94.105526 135.393466 
L 94.515567 134.404326 
L 94.948743 133.415186 
L 95.399695 132.426046 
L 95.863563 131.436906 
L 96.336139 130.447766 
L 96.813972 129.458626 
L 97.294424 128.469486 
L 97.775668 127.480346 
L 98.256652 126.491206 
L 98.737009 125.502066 
L 99.216947 124.512926 
L 99.697109 123.523786 
L 100.178423 122.534646 
L 100.661946 121.545506 
L 101.148717 120.556366 
L 101.63961 119.567226 
L 102.135217 118.578086 
L 102.635745 117.588946 
L 103.140944 116.599807 
L 103.650062 115.610667 
L 104.16183 114.621527 
L 104.674476 113.632387 
L 105.185772 112.643247 
L 105.693103 111.654107 
L 106.193554 110.664967 
L 106.684026 109.675827 
L 117.17052 109.675827 
L 117.17052 109.675827 
L 117.660991 110.664967 
L 118.161443 111.654107 
L 118.668773 112.643247 
L 119.18007 113.632387 
L 119.692716 114.621527 
L 120.204483 115.610667 
L 120.713601 116.599807 
L 121.218801 117.588946 
L 121.719329 118.578086 
L 122.214935 119.567226 
L 122.705828 120.556366 
L 123.192599 121.545506 
L 123.676123 122.534646 
L 124.157437 123.523786 
L 124.637598 124.512926 
L 125.117536 125.502066 
L 125.597893 126.491206 
L 126.078877 127.480346 
L 126.560122 128.469486 
L 127.040573 129.458626 
L 127.518406 130.447766 
L 127.990982 131.436906 
L 128.45485 132.426046 
L 128.905803 133.415186 
L 129.338979 134.404326 
L 129.74902 135.393466 
L 130.130264 136.382605 
L 130.476975 137.371745 
L 130.783594 138.360885 
L 131.044992 139.350025 
L 131.256713 140.339165 
L 131.415193 141.328305 
L 131.517935 142.317445 
L 131.563636 143.306585 
L 131.552257 144.295725 
L 131.485027 145.284865 
L 131.36439 146.274005 
L 131.193899 147.263145 
L 130.978067 148.252285 
L 130.722174 149.241425 
L 130.432065 150.230565 
L 130.11393 151.219705 
L 129.774093 152.208845 
L 129.418808 153.197985 
L 129.054082 154.187125 
L 128.685513 155.176264 
L 128.31817 156.165404 
L 127.956488 157.154544 
L 127.6042 158.143684 
L 127.264295 159.132824 
L 126.938988 160.121964 
L 126.629727 161.111104 
L 126.337204 162.100244 
L 126.061386 163.089384 
L 125.801563 164.078524 
L 125.556404 165.067664 
L 125.324028 166.056804 
L 125.102082 167.045944 
L 124.887831 168.035084 
L 124.678259 169.024224 
L 124.470174 170.013364 
L 124.260318 171.002504 
L 124.045477 171.991644 
L 123.8226 172.980784 
L 123.588898 173.969924 
L 123.341945 174.959063 
L 123.079764 175.948203 
L 122.800897 176.937343 
L 122.504448 177.926483 
L 122.190122 178.915623 
L 121.858218 179.904763 
L 121.509619 180.893903 
L 121.145751 181.883043 
L 120.768518 182.872183 
L 120.380235 183.861323 
L 119.983532 184.850463 
L 119.581264 185.839603 
L 119.176412 186.828743 
L 118.771988 187.817883 
L 118.370945 188.807023 
L 117.976097 189.796163 
L 117.590049 190.785303 
L 117.215144 191.774443 
L 116.853418 192.763583 
L 116.506572 193.752722 
L 116.175956 194.741862 
L 115.862559 195.731002 
L 115.567019 196.720142 
L 115.289631 197.709282 
L 115.03037 198.698422 
L 114.788919 199.687562 
L 114.5647 200.676702 
L 114.356917 201.665842 
L 114.164596 202.654982 
L 113.986637 203.644122 
L 113.821856 204.633262 
L 113.669042 205.622402 
L 113.526997 206.611542 
L 113.394586 207.600682 
L 113.394586 207.600682 
z
" clip-path="url(#p0852a387e9)" style="fill: none; stroke: #000000; stroke-opacity: 0.3"/>
   </g>
   <g id="matplotlib.axis_1">
    <g id="xtick_1">
     <g id="line2d_1">
      <defs>
       <path id="m430fb5c396" d="M 0 0 
L 0 3.5 
" style="stroke: #000000; stroke-width: 0.8"/>
      </defs>
      <g>
       <use xlink:href="#m430fb5c396" x="46.472727" y="291.6" style="stroke: #000000; stroke-width: 0.8"/>
      </g>
     </g>
     <g id="text_1">
      <text style="font-size: 10px; font-family: 'DejaVu Sans', 'Bitstream Vera Sans', 'Computer Modern Sans Serif', 'Lucida Grande', 'Verdana', 'Geneva', 'Lucid', 'Arial', 'Helvetica', 'Avant Garde', sans-serif; text-anchor: middle" x="46.472727" y="306.198438" transform="rotate(-0 46.472727 306.198438)">0.3</text>
     </g>
    </g>
    <g id="xtick_2">
     <g id="line2d_2">
      <g>
       <use xlink:href="#m430fb5c396" x="111.927273" y="291.6" style="stroke: #000000; stroke-width: 0.8"/>
      </g>
     </g>
     <g id="text_2">
      <text style="font-size: 10px; font-family: 'DejaVu Sans', 'Bitstream Vera Sans', 'Computer Modern Sans Serif', 'Lucida Grande', 'Verdana', 'Geneva', 'Lucid', 'Arial', 'Helvetica', 'Avant Garde', sans-serif; text-anchor: middle" x="111.927273" y="306.198438" transform="rotate(-0 111.927273 306.198438)">0.6</text>
     </g>
    </g>
   </g>
   <g id="matplotlib.axis_2">
    <g id="ytick_1">
     <g id="line2d_3">
      <defs>
       <path id="me50a2a218c" d="M 0 0 
L -3.5 0 
" style="stroke: #000000; stroke-width: 0.8"/>
      </defs>
      <g>
       <use xlink:href="#me50a2a218c" x="21.6" y="291.6" style="stroke: #000000; stroke-width: 0.8"/>
      </g>
     </g>
    </g>
    <g id="ytick_2">
     <g id="line2d_4">
      <g>
       <use xlink:href="#me50a2a218c" x="21.6" y="199.8" style="stroke: #000000; stroke-width: 0.8"/>
      </g>
     </g>
    </g>
    <g id="ytick_3">
     <g id="line2d_5">
      <g>
       <use xlink:href="#me50a2a218c" x="21.6" y="108" style="stroke: #000000; stroke-width: 0.8"/>
      </g>
     </g>
    </g>
    <g id="ytick_4">
     <g id="line2d_6">
      <g>
       <use xlink:href="#me50a2a218c" x="21.6" y="16.2" style="stroke: #000000; stroke-width: 0.8"/>
      </g>
     </g>
    </g>
   </g>
   <g id="line2d_7">
    <path d="M 46.472727 269.568 
L 46.472727 264.06 
" clip-path="url(#p0852a387e9)" style="fill: none; stroke: #000000; stroke-linecap: square"/>
   </g>
   <g id="line2d_8">
    <path d="M 46.472727 269.568 
L 111.927273 269.568 
" clip-path="url(#p0852a387e9)" style="fill: none; stroke: #000000; stroke-linecap: square"/>
   </g>
   <g id="line2d_9">
    <path d="M 111.927273 269.568 
L 111.927273 264.06 
" clip-path="url(#p0852a387e9)" style="fill: none; stroke: #000000; stroke-linecap: square"/>
   </g>
   <g id="patch_3">
    <path d="M 21.6 291.6 
L 21.6 16.2 
" style="fill: none; stroke: #000000; stroke-width: 0.8; stroke-linejoin: miter; stroke-linecap: square"/>
   </g>
   <g id="patch_4">
    <path d="M 136.8 291.6 
L 136.8 16.2 
" style="fill: none; stroke: #000000; stroke-width: 0.8; stroke-linejoin: miter; stroke-linecap: square"/>
   </g>
   <g id="patch_5">
    <path d="M 21.6 291.6 
L 136.8 291.6 
" style="fill: none; stroke: #000000; stroke-width: 0.8; stroke-linejoin: miter; stroke-linecap: square"/>
   </g>
   <g id="patch_6">
    <path d="M 21.6 16.2 
L 136.8 16.2 
" style="fill: none; stroke: #000000; stroke-width: 0.8; stroke-linejoin: miter; stroke-linecap: square"/>
   </g>
   <g id="text_3">
    <text style="font-weight: 700; font-size: 12px; font-family: 'DejaVu Sans', 'Bitstream Vera Sans', 'Computer Modern Sans Serif', 'Lucida Grande', 'Verdana', 'Geneva', 'Lucid', 'Arial', 'Helvetica', 'Avant Garde', sans-serif; text-anchor: middle" x="46.472727" y="289.104375" transform="rotate(-0 46.472727 289.104375)">#18</text>
   </g>
   <g id="text_4">
    <text style="font-weight: 700; font-size: 12px; font-family: 'DejaVu Sans', 'Bitstream Vera Sans', 'Computer Modern Sans Serif', 'Lucida Grande', 'Verdana', 'Geneva', 'Lucid', 'Arial', 'Helvetica', 'Avant Garde', sans-serif; text-anchor: middle" x="111.927273" y="289.104375" transform="rotate(-0 111.927273 289.104375)">#32</text>
   </g>
   <g id="text_5">
    <text style="font-size: 12px; font-family: 'DejaVu Sans', 'Bitstream Vera Sans', 'Computer Modern Sans Serif', 'Lucida Grande', 'Verdana', 'Geneva', 'Lucid', 'Arial', 'Helvetica', 'Avant Garde', sans-serif; text-anchor: middle" x="79.2" y="268.449375" transform="rotate(-0 79.2 268.449375)">****</text>
   </g>
   <g id="line2d_10">
    <path d="M 21.6 123.803 
L 136.8 123.803 
" clip-path="url(#p0852a387e9)" style="fill: none; stroke-dasharray: 3.7,1.6; stroke-dashoffset: 0; stroke: #808080; stroke-opacity: 0.7"/>
   </g>
   <g id="line2d_11">
    <path d="M 21.6 145.56737 
L 136.8 145.56737 
" clip-path="url(#p0852a387e9)" style="fill: none; stroke-dasharray: 3.7,1.6; stroke-dashoffset: 0; stroke: #808080; stroke-opacity: 0.7"/>
   </g>
   <g id="LineCollection_1">
    <path d="M 46.472727 127.884457 
L 46.472727 119.721543 
" clip-path="url(#p0852a387e9)" style="fill: none; stroke: #000000; stroke-width: 2"/>
   </g>
   <g id="line2d_12">
    <defs>
     <path id="m21f30c4da5" d="M 5 0 
L -5 -0 
" style="stroke: #000000; stroke-width: 2"/>
    </defs>
    <g clip-path="url(#p0852a387e9)">
     <use xlink:href="#m21f30c4da5" x="46.472727" y="127.884457" style="stroke: #000000; stroke-width: 2"/>
    </g>
   </g>
   <g id="line2d_13">
    <g clip-path="url(#p0852a387e9)">
     <use xlink:href="#m21f30c4da5" x="46.472727" y="119.721543" style="stroke: #000000; stroke-width: 2"/>
    </g>
   </g>
   <g id="LineCollection_2">
    <path d="M 111.927273 151.768923 
L 111.927273 139.365817 
" clip-path="url(#p0852a387e9)" style="fill: none; stroke: #000000; stroke-width: 2"/>
   </g>
   <g id="line2d_14">
    <g clip-path="url(#p0852a387e9)">
     <use xlink:href="#m21f30c4da5" x="111.927273" y="151.768923" style="stroke: #000000; stroke-width: 2"/>
    </g>
   </g>
   <g id="line2d_15">
    <g clip-path="url(#p0852a387e9)">
     <use xlink:href="#m21f30c4da5" x="111.927273" y="139.365817" style="stroke: #000000; stroke-width: 2"/>
    </g>
   </g>
   <g id="line2d_16">
    <defs>
     <path id="mb8e44c18b6" d="M 0 4 
C 1.060812 4 2.078319 3.578535 2.828427 2.828427 
C 3.578535 2.078319 4 1.060812 4 0 
C 4 -1.060812 3.578535 -2.078319 2.828427 -2.828427 
C 2.078319 -3.578535 1.060812 -4 0 -4 
C -1.060812 -4 -2.078319 -3.578535 -2.828427 -2.828427 
C -3.578535 -2.078319 -4 -1.060812 -4 0 
C -4 1.060812 -3.578535 2.078319 -2.828427 2.828427 
C -2.078319 3.578535 -1.060812 4 0 4 
z
" style="stroke: #000000"/>
    </defs>
    <g clip-path="url(#p0852a387e9)">
     <use xlink:href="#mb8e44c18b6" x="46.472727" y="123.803" style="stroke: #000000"/>
    </g>
   </g>
   <g id="line2d_17">
    <g clip-path="url(#p0852a387e9)">
     <use xlink:href="#mb8e44c18b6" x="111.927273" y="145.56737" style="stroke: #000000"/>
    </g>
   </g>
  </g>
 </g>
 <defs>
  <clipPath id="p0852a387e9">
   <rect x="21.6" y="16.2" width="115.2" height="275.4"/>
  </clipPath>
 </defs>
</svg>
