<?xml version="1.0" encoding="utf-8" standalone="no"?>
<!DOCTYPE svg PUBLIC "-//W3C//DTD SVG 1.1//EN"
  "http://www.w3.org/Graphics/SVG/1.1/DTD/svg11.dtd">
<svg xmlns:xlink="http://www.w3.org/1999/xlink" width="144pt" height="324pt" viewBox="0 0 144 324" xmlns="http://www.w3.org/2000/svg" version="1.1">
 <metadata>
  <rdf:RDF xmlns:dc="http://purl.org/dc/elements/1.1/" xmlns:cc="http://creativecommons.org/ns#" xmlns:rdf="http://www.w3.org/1999/02/22-rdf-syntax-ns#">
   <cc:Work>
    <dc:type rdf:resource="http://purl.org/dc/dcmitype/StillImage"/>
    <dc:date>2025-12-05T14:51:43.961523</dc:date>
    <dc:format>image/svg+xml</dc:format>
    <dc:creator>
     <cc:Agent>
      <dc:title>Matplotlib v3.10.0, https://matplotlib.org/</dc:title>
     </cc:Agent>
    </dc:creator>
   </cc:Work>
  </rdf:RDF>
 </metadata>
 <defs>
  <style type="text/css">*{stroke-linejoin: round; stroke-linecap: butt}</style>
 </defs>
 <g id="figure_1">
  <g id="patch_1">
   <path d="M 0 324 
L 144 324 
L 144 0 
L 0 0 
z
" style="fill: #ffffff"/>
  </g>
  <g id="axes_1">
   <g id="patch_2">
    <path d="M 21.6 291.6 
L 136.8 291.6 
L 136.8 16.2 
L 21.6 16.2 
z
" style="fill: #ffffff"/>
   </g>
   <g id="FillBetweenPolyCollection_1">
    <path d="M 46.677663 189.425042 
L 46.267791 189.425042 
L 46.274345 187.986003 
L 46.292776 186.546965 
L 46.319762 185.107926 
L 46.350863 183.668888 
L 46.38169 182.229849 
L 46.408837 180.79081 
L 46.430316 179.351772 
L 46.44545 177.912733 
L 46.454401 176.473695 
L 46.457585 175.034656 
L 46.455214 173.595618 
L 46.447101 172.156579 
L 46.432778 170.71754 
L 46.411889 169.278502 
L 46.384705 167.839463 
L 46.352533 166.400425 
L 46.31776 164.961386 
L 46.283379 163.522347 
L 46.252012 162.083309 
L 46.224784 160.64427 
L 46.200505 159.205232 
L 46.175601 157.766193 
L 46.144897 156.327154 
L 46.10293 154.888116 
L 46.045157 153.449077 
L 45.968483 152.010039 
L 45.870899 150.571 
L 45.750547 149.131962 
L 45.604873 147.692923 
L 45.430431 146.253884 
L 45.22348 144.814846 
L 44.98103 143.375807 
L 44.701685 141.936769 
L 44.385857 140.49773 
L 44.035269 139.058691 
L 43.65209 137.619653 
L 43.238058 136.180614 
L 42.793741 134.741576 
L 42.317811 133.302537 
L 41.806181 131.863499 
L 41.251113 130.42446 
L 40.640828 128.985421 
L 39.960312 127.546383 
L 39.1938 126.107344 
L 38.328681 124.668306 
L 37.359784 123.229267 
L 36.292541 121.790228 
L 35.143794 120.35119 
L 33.939986 118.912151 
L 32.713715 117.473113 
L 31.500475 116.034074 
L 30.337265 114.595035 
L 29.263667 113.155997 
L 28.324333 111.716958 
L 27.570421 110.27792 
L 27.057223 108.838881 
L 26.836364 107.399843 
L 26.943494 105.960804 
L 27.385169 104.521765 
L 28.130369 103.082727 
L 29.111451 101.643688 
L 30.236117 100.20465 
L 31.407423 98.765611 
L 32.545112 97.326572 
L 33.600616 95.887534 
L 34.560607 94.448495 
L 35.438784 93.009457 
L 36.260455 91.570418 
L 37.047029 90.131379 
L 37.806785 88.692341 
L 38.534658 87.253302 
L 39.219286 85.814264 
L 39.852374 84.375225 
L 40.435042 82.936187 
L 40.978136 81.497148 
L 41.497065 80.058109 
L 42.004552 78.619071 
L 42.505262 77.180032 
L 42.994725 75.740994 
L 43.462354 74.301955 
L 43.896369 72.862916 
L 44.288013 71.423878 
L 44.633487 69.984839 
L 44.933548 68.545801 
L 45.191838 67.106762 
L 45.413124 65.667723 
L 45.602126 64.228685 
L 45.762952 62.789646 
L 45.898837 61.350608 
L 46.011983 59.911569 
L 46.103526 58.472531 
L 46.173823 57.033492 
L 46.223156 55.594453 
L 46.252678 54.155415 
L 46.265249 52.716376 
L 46.265722 51.277338 
L 46.260441 49.838299 
L 46.256053 48.39926 
L 46.258028 46.960222 
L 46.687426 46.960222 
L 46.687426 46.960222 
L 46.689401 48.39926 
L 46.685014 49.838299 
L 46.679733 51.277338 
L 46.680205 52.716376 
L 46.692777 54.155415 
L 46.722299 55.594453 
L 46.771631 57.033492 
L 46.841929 58.472531 
L 46.933471 59.911569 
L 47.046617 61.350608 
L 47.182503 62.789646 
L 47.343328 64.228685 
L 47.532331 65.667723 
L 47.753617 67.106762 
L 48.011907 68.545801 
L 48.311968 69.984839 
L 48.657441 71.423878 
L 49.049086 72.862916 
L 49.483101 74.301955 
L 49.95073 75.740994 
L 50.440193 77.180032 
L 50.940903 78.619071 
L 51.44839 80.058109 
L 51.967319 81.497148 
L 52.510412 82.936187 
L 53.093081 84.375225 
L 53.726169 85.814264 
L 54.410796 87.253302 
L 55.13867 88.692341 
L 55.898426 90.131379 
L 56.685 91.570418 
L 57.50667 93.009457 
L 58.384848 94.448495 
L 59.344839 95.887534 
L 60.400343 97.326572 
L 61.538031 98.765611 
L 62.709338 100.20465 
L 63.834004 101.643688 
L 64.815086 103.082727 
L 65.560286 104.521765 
L 66.001961 105.960804 
L 66.109091 107.399843 
L 65.888232 108.838881 
L 65.375033 110.27792 
L 64.621122 111.716958 
L 63.681787 113.155997 
L 62.60819 114.595035 
L 61.44498 116.034074 
L 60.23174 117.473113 
L 59.005469 118.912151 
L 57.80166 120.35119 
L 56.652914 121.790228 
L 55.585671 123.229267 
L 54.616774 124.668306 
L 53.751655 126.107344 
L 52.985143 127.546383 
L 52.304627 128.985421 
L 51.694341 130.42446 
L 51.139274 131.863499 
L 50.627643 133.302537 
L 50.151713 134.741576 
L 49.707396 136.180614 
L 49.293365 137.619653 
L 48.910186 139.058691 
L 48.559598 140.49773 
L 48.243769 141.936769 
L 47.964425 143.375807 
L 47.721974 144.814846 
L 47.515024 146.253884 
L 47.340581 147.692923 
L 47.194908 149.131962 
L 47.074556 150.571 
L 46.976971 152.010039 
L 46.900297 153.449077 
L 46.842525 154.888116 
L 46.800557 156.327154 
L 46.769854 157.766193 
L 46.744949 159.205232 
L 46.72067 160.64427 
L 46.693443 162.083309 
L 46.662076 163.522347 
L 46.627694 164.961386 
L 46.592922 166.400425 
L 46.560749 167.839463 
L 46.533566 169.278502 
L 46.512677 170.71754 
L 46.498354 172.156579 
L 46.490241 173.595618 
L 46.48787 175.034656 
L 46.491054 176.473695 
L 46.500004 177.912733 
L 46.515138 179.351772 
L 46.536618 180.79081 
L 46.563765 182.229849 
L 46.594591 183.668888 
L 46.625693 185.107926 
L 46.652678 186.546965 
L 46.671109 187.986003 
L 46.677663 189.425042 
L 46.677663 189.425042 
z
" clip-path="url(#pbe58947273)" style="fill: none; stroke: #000000; stroke-opacity: 0.3"/>
   </g>
   <g id="FillBetweenPolyCollection_2">
    <path d="M 46.748911 184.393577 
L 46.196544 184.393577 
L 46.191044 182.966529 
L 46.192367 181.539481 
L 46.197293 180.112432 
L 46.202243 178.685384 
L 46.204341 177.258335 
L 46.202267 175.831287 
L 46.196589 174.404239 
L 46.189439 172.97719 
L 46.183636 171.550142 
L 46.181532 170.123094 
L 46.183949 168.696045 
L 46.189555 167.268997 
L 46.194845 165.841948 
L 46.194717 164.4149 
L 46.183401 162.987852 
L 46.155428 161.560803 
L 46.106331 160.133755 
L 46.032868 158.706706 
L 45.932812 157.279658 
L 45.804476 155.85261 
L 45.646332 154.425561 
L 45.457023 152.998513 
L 45.235915 151.571464 
L 44.984052 150.144416 
L 44.705094 148.717368 
L 44.405675 147.290319 
L 44.09474 145.863271 
L 43.781777 144.436222 
L 43.474315 143.009174 
L 43.175467 141.582126 
L 42.882337 140.155077 
L 42.585856 138.728029 
L 42.272099 137.300981 
L 41.92461 135.873932 
L 41.526958 134.446884 
L 41.06478 133.019835 
L 40.526872 131.592787 
L 39.905313 130.165739 
L 39.195016 128.73869 
L 38.393275 127.311642 
L 37.499877 125.884593 
L 36.518097 124.457545 
L 35.456493 123.030497 
L 34.330999 121.603448 
L 33.166472 120.1764 
L 31.99677 118.749351 
L 30.862778 117.322303 
L 29.808391 115.895255 
L 28.875248 114.468206 
L 28.097575 113.041158 
L 27.498591 111.614109 
L 27.089457 110.187061 
L 26.870853 108.760013 
L 26.836364 107.332964 
L 26.976283 105.905916 
L 27.280467 104.478868 
L 27.739454 103.051819 
L 28.343882 101.624771 
L 29.082931 100.197722 
L 29.942789 98.770674 
L 30.905949 97.343626 
L 31.951576 95.916577 
L 33.056658 94.489529 
L 34.19736 93.06248 
L 35.350076 91.635432 
L 36.492017 90.208384 
L 37.60159 88.781335 
L 38.658934 87.354287 
L 39.646902 85.927238 
L 40.552344 84.50019 
L 41.367267 83.073142 
L 42.089306 81.646093 
L 42.721187 80.219045 
L 43.269281 78.791996 
L 43.741762 77.364948 
L 44.147037 75.9379 
L 44.492911 74.510851 
L 44.786571 73.083803 
L 45.03505 71.656755 
L 45.245644 70.229706 
L 45.425846 68.802658 
L 45.582717 67.375609 
L 45.721912 65.948561 
L 45.846825 64.521513 
L 45.958229 63.094464 
L 46.054586 61.667416 
L 46.132922 60.240367 
L 46.189991 58.813319 
L 46.223407 57.386271 
L 46.232517 55.959222 
L 46.218899 54.532174 
L 46.186485 53.105125 
L 46.141305 51.678077 
L 46.090897 50.251029 
L 46.043415 48.82398 
L 46.006538 47.396932 
L 45.986351 45.969883 
L 45.986424 44.542835 
L 46.007318 43.115787 
L 46.938136 43.115787 
L 46.938136 43.115787 
L 46.959031 44.542835 
L 46.959103 45.969883 
L 46.938916 47.396932 
L 46.90204 48.82398 
L 46.854558 50.251029 
L 46.804149 51.678077 
L 46.758969 53.105125 
L 46.726556 54.532174 
L 46.712938 55.959222 
L 46.722047 57.386271 
L 46.755464 58.813319 
L 46.812533 60.240367 
L 46.890869 61.667416 
L 46.987225 63.094464 
L 47.09863 64.521513 
L 47.223543 65.948561 
L 47.362738 67.375609 
L 47.519609 68.802658 
L 47.699811 70.229706 
L 47.910404 71.656755 
L 48.158883 73.083803 
L 48.452543 74.510851 
L 48.798417 75.9379 
L 49.203693 77.364948 
L 49.676174 78.791996 
L 50.224267 80.219045 
L 50.856148 81.646093 
L 51.578188 83.073142 
L 52.393111 84.50019 
L 53.298553 85.927238 
L 54.286521 87.354287 
L 55.343865 88.781335 
L 56.453437 90.208384 
L 57.595379 91.635432 
L 58.748094 93.06248 
L 59.888796 94.489529 
L 60.993878 95.916577 
L 62.039505 97.343626 
L 63.002666 98.770674 
L 63.862524 100.197722 
L 64.601572 101.624771 
L 65.206 103.051819 
L 65.664988 104.478868 
L 65.969172 105.905916 
L 66.109091 107.332964 
L 66.074602 108.760013 
L 65.855997 110.187061 
L 65.446863 111.614109 
L 64.84788 113.041158 
L 64.070207 114.468206 
L 63.137063 115.895255 
L 62.082676 117.322303 
L 60.948685 118.749351 
L 59.778982 120.1764 
L 58.614455 121.603448 
L 57.488962 123.030497 
L 56.427358 124.457545 
L 55.445578 125.884593 
L 54.55218 127.311642 
L 53.750439 128.73869 
L 53.040141 130.165739 
L 52.418582 131.592787 
L 51.880674 133.019835 
L 51.418497 134.446884 
L 51.020844 135.873932 
L 50.673355 137.300981 
L 50.359598 138.728029 
L 50.063117 140.155077 
L 49.769987 141.582126 
L 49.47114 143.009174 
L 49.163678 144.436222 
L 48.850714 145.863271 
L 48.53978 147.290319 
L 48.24036 148.717368 
L 47.961402 150.144416 
L 47.70954 151.571464 
L 47.488432 152.998513 
L 47.299123 154.425561 
L 47.140979 155.85261 
L 47.012643 157.279658 
L 46.912586 158.706706 
L 46.839124 160.133755 
L 46.790026 161.560803 
L 46.762054 162.987852 
L 46.750737 164.4149 
L 46.750609 165.841948 
L 46.7559 167.268997 
L 46.761505 168.696045 
L 46.763923 170.123094 
L 46.761819 171.550142 
L 46.756016 172.97719 
L 46.748865 174.404239 
L 46.743187 175.831287 
L 46.741114 177.258335 
L 46.743212 178.685384 
L 46.748162 180.112432 
L 46.753088 181.539481 
L 46.75441 182.966529 
L 46.748911 184.393577 
L 46.748911 184.393577 
z
" clip-path="url(#pbe58947273)" style="fill: none; stroke: #000000; stroke-opacity: 0.3"/>
   </g>
   <g id="FillBetweenPolyCollection_3">
    <path d="M 46.760291 160.18644 
L 46.185163 160.18644 
L 46.188661 159.117291 
L 46.20138 158.048142 
L 46.220803 156.978993 
L 46.24341 155.909845 
L 46.265208 154.840696 
L 46.282319 153.771547 
L 46.291501 152.702398 
L 46.290515 151.63325 
L 46.278266 150.564101 
L 46.254677 149.494952 
L 46.220326 148.425803 
L 46.175869 147.356655 
L 46.121387 146.287506 
L 46.055759 145.218357 
L 45.976262 144.149208 
L 45.878524 143.08006 
L 45.756921 142.010911 
L 45.605373 140.941762 
L 45.418407 139.872613 
L 45.192217 138.803465 
L 44.92548 137.734316 
L 44.619701 136.665167 
L 44.279012 135.596018 
L 43.909473 134.52687 
L 43.518023 133.457721 
L 43.111279 132.388572 
L 42.694334 131.319424 
L 42.26967 130.250275 
L 41.83628 129.181126 
L 41.389104 128.111977 
L 40.918955 127.042829 
L 40.413127 125.97368 
L 39.856851 124.904531 
L 39.235577 123.835382 
L 38.537839 122.766234 
L 37.758189 121.697085 
L 36.899536 120.627936 
L 35.974247 119.558787 
L 35.003589 118.489639 
L 34.015453 117.42049 
L 33.040737 116.351341 
L 32.10909 115.282192 
L 31.2449 114.213044 
L 30.464368 113.143895 
L 29.774256 112.074746 
L 29.172539 111.005597 
L 28.650782 109.936449 
L 28.197748 108.8673 
L 27.803513 107.798151 
L 27.463276 106.729002 
L 27.180162 105.659854 
L 26.966438 104.590705 
L 26.842891 103.521556 
L 26.836364 102.452407 
L 26.975826 101.383259 
L 27.287555 100.31411 
L 27.790212 99.244961 
L 28.490594 98.175812 
L 29.380799 97.106664 
L 30.437319 96.037515 
L 31.622319 94.968366 
L 32.887045 93.899218 
L 34.176955 92.830069 
L 35.437847 91.76092 
L 36.622008 90.691771 
L 37.693367 89.622623 
L 38.630734 88.553474 
L 39.428597 87.484325 
L 40.095449 86.415176 
L 40.650103 85.346028 
L 41.116903 84.276879 
L 41.52085 83.20773 
L 41.883585 82.138581 
L 42.220858 81.069433 
L 42.541687 80.000284 
L 42.849022 78.931135 
L 43.141446 77.861986 
L 43.415318 76.792838 
L 43.666816 75.723689 
L 43.893462 74.65454 
L 44.094946 73.585391 
L 44.273236 72.516243 
L 44.432135 71.447094 
L 44.576514 70.377945 
L 44.711447 69.308796 
L 44.841425 68.239648 
L 44.969751 67.170499 
L 45.098173 66.10135 
L 45.226757 65.032201 
L 45.354013 63.963053 
L 45.477274 62.893904 
L 45.593284 61.824755 
L 45.698915 60.755606 
L 45.791873 59.686458 
L 45.871233 58.617309 
L 45.937656 57.54816 
L 45.993226 56.479011 
L 46.040954 55.409863 
L 46.084078 54.340714 
L 46.861377 54.340714 
L 46.861377 54.340714 
L 46.904501 55.409863 
L 46.952228 56.479011 
L 47.007799 57.54816 
L 47.074222 58.617309 
L 47.153582 59.686458 
L 47.24654 60.755606 
L 47.35217 61.824755 
L 47.468181 62.893904 
L 47.591442 63.963053 
L 47.718698 65.032201 
L 47.847281 66.10135 
L 47.975703 67.170499 
L 48.10403 68.239648 
L 48.234007 69.308796 
L 48.368941 70.377945 
L 48.51332 71.447094 
L 48.672219 72.516243 
L 48.850509 73.585391 
L 49.051993 74.65454 
L 49.278639 75.723689 
L 49.530136 76.792838 
L 49.804009 77.861986 
L 50.096433 78.931135 
L 50.403768 80.000284 
L 50.724597 81.069433 
L 51.06187 82.138581 
L 51.424604 83.20773 
L 51.828551 84.276879 
L 52.295352 85.346028 
L 52.850006 86.415176 
L 53.516857 87.484325 
L 54.314721 88.553474 
L 55.252087 89.622623 
L 56.323446 90.691771 
L 57.507607 91.76092 
L 58.768499 92.830069 
L 60.05841 93.899218 
L 61.323135 94.968366 
L 62.508135 96.037515 
L 63.564655 97.106664 
L 64.454861 98.175812 
L 65.155243 99.244961 
L 65.657899 100.31411 
L 65.969629 101.383259 
L 66.109091 102.452407 
L 66.102564 103.521556 
L 65.979016 104.590705 
L 65.765293 105.659854 
L 65.482178 106.729002 
L 65.141942 107.798151 
L 64.747706 108.8673 
L 64.294673 109.936449 
L 63.772915 111.005597 
L 63.171198 112.074746 
L 62.481087 113.143895 
L 61.700555 114.213044 
L 60.836365 115.282192 
L 59.904717 116.351341 
L 58.930002 117.42049 
L 57.941866 118.489639 
L 56.971207 119.558787 
L 56.045918 120.627936 
L 55.187265 121.697085 
L 54.407616 122.766234 
L 53.709878 123.835382 
L 53.088604 124.904531 
L 52.532328 125.97368 
L 52.0265 127.042829 
L 51.556351 128.111977 
L 51.109175 129.181126 
L 50.675785 130.250275 
L 50.251121 131.319424 
L 49.834176 132.388572 
L 49.427432 133.457721 
L 49.035982 134.52687 
L 48.666442 135.596018 
L 48.325754 136.665167 
L 48.019975 137.734316 
L 47.753238 138.803465 
L 47.527048 139.872613 
L 47.340081 140.941762 
L 47.188534 142.010911 
L 47.06693 143.08006 
L 46.969193 144.149208 
L 46.889696 145.218357 
L 46.824068 146.287506 
L 46.769585 147.356655 
L 46.725129 148.425803 
L 46.690777 149.494952 
L 46.667189 150.564101 
L 46.65494 151.63325 
L 46.653954 152.702398 
L 46.663136 153.771547 
L 46.680246 154.840696 
L 46.702045 155.909845 
L 46.724651 156.978993 
L 46.744074 158.048142 
L 46.756794 159.117291 
L 46.760291 160.18644 
L 46.760291 160.18644 
z
" clip-path="url(#pbe58947273)" style="fill: none; stroke: #000000; stroke-opacity: 0.3"/>
   </g>
   <g id="FillBetweenPolyCollection_4">
    <path d="M 48.851411 145.900087 
L 44.094043 145.900087 
L 43.701753 144.749627 
L 43.309309 143.599167 
L 42.923695 142.448707 
L 42.547673 141.298246 
L 42.179113 140.147786 
L 41.811216 138.997326 
L 41.433562 137.846865 
L 41.03377 136.696405 
L 40.599418 135.545945 
L 40.119865 134.395484 
L 39.587708 133.245024 
L 38.999727 132.094564 
L 38.357257 130.944104 
L 37.666084 129.793643 
L 36.935914 128.643183 
L 36.179544 127.492723 
L 35.41182 126.342262 
L 34.648448 125.191802 
L 33.904768 124.041342 
L 33.194555 122.890882 
L 32.528955 121.740421 
L 31.915634 120.589961 
L 31.358249 119.439501 
L 30.856308 118.28904 
L 30.405493 117.13858 
L 29.998452 115.98812 
L 29.625982 114.837659 
L 29.278451 113.687199 
L 28.947232 112.536739 
L 28.625936 111.386279 
L 28.311282 110.235818 
L 28.00362 109.085358 
L 27.707201 107.934898 
L 27.430362 106.784437 
L 27.185737 105.633977 
L 26.990399 104.483517 
L 26.865687 103.333057 
L 26.836364 102.182596 
L 26.928785 101.032136 
L 27.16806 99.881676 
L 27.574493 98.731215 
L 28.159943 97.580755 
L 28.924909 96.430295 
L 29.857044 95.279834 
L 30.931534 94.129374 
L 32.113293 92.978914 
L 33.360544 91.828454 
L 34.629068 90.677993 
L 35.876348 89.527533 
L 37.064995 88.377073 
L 38.165096 87.226612 
L 39.155435 86.076152 
L 40.023723 84.925692 
L 40.766101 83.775231 
L 41.386145 82.624771 
L 41.893537 81.474311 
L 42.302503 80.323851 
L 42.630087 79.17339 
L 42.894355 78.02293 
L 43.112688 76.87247 
L 43.300342 75.722009 
L 43.469482 74.571549 
L 43.628784 73.421089 
L 43.783638 72.270629 
L 43.936799 71.120168 
L 44.089288 69.969708 
L 44.241285 68.819248 
L 44.392787 67.668787 
L 44.543927 66.518327 
L 44.694939 65.367867 
L 44.845887 64.217406 
L 44.996316 63.066946 
L 45.14502 61.916486 
L 45.290033 60.766026 
L 45.428879 59.615565 
L 45.559022 58.465105 
L 45.678366 57.314645 
L 45.785662 56.164184 
L 45.88069 55.013724 
L 45.964176 53.863264 
L 46.03749 52.712803 
L 46.102211 51.562343 
L 46.159713 50.411883 
L 46.210861 49.261423 
L 46.255893 48.110962 
L 46.294478 46.960502 
L 46.325906 45.810042 
L 46.349345 44.659581 
L 46.364103 43.509121 
L 46.369849 42.358661 
L 46.366787 41.208201 
L 46.355757 40.05774 
L 46.338271 38.90728 
L 46.316468 37.75682 
L 46.292976 36.606359 
L 46.270669 35.455899 
L 46.25235 34.305439 
L 46.240398 33.154978 
L 46.236435 32.004518 
L 46.709019 32.004518 
L 46.709019 32.004518 
L 46.705057 33.154978 
L 46.693104 34.305439 
L 46.674786 35.455899 
L 46.652478 36.606359 
L 46.628986 37.75682 
L 46.607184 38.90728 
L 46.589697 40.05774 
L 46.578667 41.208201 
L 46.575605 42.358661 
L 46.581352 43.509121 
L 46.596109 44.659581 
L 46.619549 45.810042 
L 46.650977 46.960502 
L 46.689562 48.110962 
L 46.734594 49.261423 
L 46.785741 50.411883 
L 46.843243 51.562343 
L 46.907964 52.712803 
L 46.981278 53.863264 
L 47.064765 55.013724 
L 47.159792 56.164184 
L 47.267088 57.314645 
L 47.386433 58.465105 
L 47.516576 59.615565 
L 47.655422 60.766026 
L 47.800434 61.916486 
L 47.949138 63.066946 
L 48.099568 64.217406 
L 48.250515 65.367867 
L 48.401527 66.518327 
L 48.552667 67.668787 
L 48.704169 68.819248 
L 48.856166 69.969708 
L 49.008656 71.120168 
L 49.161817 72.270629 
L 49.31667 73.421089 
L 49.475973 74.571549 
L 49.645112 75.722009 
L 49.832767 76.87247 
L 50.051099 78.02293 
L 50.315368 79.17339 
L 50.642951 80.323851 
L 51.051917 81.474311 
L 51.55931 82.624771 
L 52.179354 83.775231 
L 52.921732 84.925692 
L 53.790019 86.076152 
L 54.780358 87.226612 
L 55.88046 88.377073 
L 57.069107 89.527533 
L 58.316387 90.677993 
L 59.58491 91.828454 
L 60.832161 92.978914 
L 62.01392 94.129374 
L 63.088411 95.279834 
L 64.020546 96.430295 
L 64.785511 97.580755 
L 65.370962 98.731215 
L 65.777395 99.881676 
L 66.01667 101.032136 
L 66.109091 102.182596 
L 66.079767 103.333057 
L 65.955056 104.483517 
L 65.759717 105.633977 
L 65.515092 106.784437 
L 65.238254 107.934898 
L 64.941834 109.085358 
L 64.634173 110.235818 
L 64.319519 111.386279 
L 63.998222 112.536739 
L 63.667004 113.687199 
L 63.319472 114.837659 
L 62.947002 115.98812 
L 62.539962 117.13858 
L 62.089147 118.28904 
L 61.587205 119.439501 
L 61.02982 120.589961 
L 60.416499 121.740421 
L 59.750899 122.890882 
L 59.040687 124.041342 
L 58.297007 125.191802 
L 57.533635 126.342262 
L 56.76591 127.492723 
L 56.009541 128.643183 
L 55.27937 129.793643 
L 54.588197 130.944104 
L 53.945728 132.094564 
L 53.357746 133.245024 
L 52.82559 134.395484 
L 52.346036 135.545945 
L 51.911684 136.696405 
L 51.511893 137.846865 
L 51.134239 138.997326 
L 50.766341 140.147786 
L 50.397782 141.298246 
L 50.02176 142.448707 
L 49.636146 143.599167 
L 49.243702 144.749627 
L 48.851411 145.900087 
L 48.851411 145.900087 
z
" clip-path="url(#pbe58947273)" style="fill: none; stroke: #000000; stroke-opacity: 0.3"/>
   </g>
   <g id="FillBetweenPolyCollection_5">
    <path d="M 112.287111 244.525458 
L 111.567434 244.525458 
L 111.574762 242.466401 
L 111.596125 240.407344 
L 111.628566 238.348287 
L 111.667792 236.289229 
L 111.708862 234.230172 
L 111.746893 232.171115 
L 111.777643 230.112058 
L 111.797885 228.053001 
L 111.8056 225.993944 
L 111.800041 223.934887 
L 111.781744 221.87583 
L 111.752522 219.816773 
L 111.715411 217.757716 
L 111.674501 215.698659 
L 111.634593 213.639602 
L 111.60064 211.580545 
L 111.577041 209.521488 
L 111.56691 207.462431 
L 111.571499 205.403373 
L 111.589916 203.344316 
L 111.619213 201.285259 
L 111.654795 199.226202 
L 111.69105 197.167145 
L 111.722014 195.108088 
L 111.741945 193.049031 
L 111.745747 190.989974 
L 111.729245 188.930917 
L 111.689386 186.87186 
L 111.624427 184.812803 
L 111.534095 182.753746 
L 111.419669 180.694689 
L 111.283832 178.635632 
L 111.130173 176.576575 
L 110.962309 174.517518 
L 110.782715 172.45846 
L 110.591537 170.399403 
L 110.385716 168.340346 
L 110.158738 166.281289 
L 109.90113 164.222232 
L 109.601595 162.163175 
L 109.24842 160.104118 
L 108.830719 158.045061 
L 108.339169 155.986004 
L 107.766151 153.926947 
L 107.105539 151.86789 
L 106.352569 149.808833 
L 105.5042 147.749776 
L 104.560106 145.690719 
L 103.524099 143.631662 
L 102.405479 141.572605 
L 101.219824 139.513547 
L 99.988926 137.45449 
L 98.739993 135.395433 
L 97.504513 133.336376 
L 96.317207 131.277319 
L 95.215244 129.218262 
L 94.237448 127.159205 
L 93.422927 125.100148 
L 92.808498 123.041091 
L 92.424711 120.982034 
L 92.290909 118.922977 
L 92.410463 116.86392 
L 92.767666 114.804863 
L 93.327682 112.745806 
L 94.040271 110.686749 
L 94.847007 108.627691 
L 95.690674 106.568634 
L 96.524761 104.509577 
L 97.320812 102.45052 
L 98.071795 100.391463 
L 98.790668 98.332406 
L 99.504492 96.273349 
L 100.245577 94.214292 
L 101.041873 92.155235 
L 101.908899 90.096178 
L 102.845045 88.037121 
L 103.831136 85.978064 
L 104.834065 83.919007 
L 105.813335 81.85995 
L 106.728763 79.800893 
L 107.547526 77.741836 
L 108.249068 75.682778 
L 108.827073 73.623721 
L 109.288484 71.564664 
L 109.6502 69.505607 
L 109.93449 67.44655 
L 110.164278 65.387493 
L 110.359257 63.328436 
L 110.533478 61.269379 
L 110.694608 59.210322 
L 110.844687 57.151265 
L 110.98194 55.092208 
L 111.103025 53.033151 
L 111.205136 50.974094 
L 111.287468 48.915037 
L 111.351801 46.85598 
L 111.402194 44.796922 
L 111.444013 42.737865 
L 111.482666 40.678808 
L 112.371879 40.678808 
L 112.371879 40.678808 
L 112.410533 42.737865 
L 112.452352 44.796922 
L 112.502744 46.85598 
L 112.567077 48.915037 
L 112.649409 50.974094 
L 112.75152 53.033151 
L 112.872606 55.092208 
L 113.009858 57.151265 
L 113.159937 59.210322 
L 113.321067 61.269379 
L 113.495289 63.328436 
L 113.690268 65.387493 
L 113.920055 67.44655 
L 114.204345 69.505607 
L 114.566061 71.564664 
L 115.027473 73.623721 
L 115.605478 75.682778 
L 116.30702 77.741836 
L 117.125783 79.800893 
L 118.041211 81.85995 
L 119.02048 83.919007 
L 120.02341 85.978064 
L 121.009501 88.037121 
L 121.945646 90.096178 
L 122.812672 92.155235 
L 123.608968 94.214292 
L 124.350054 96.273349 
L 125.063877 98.332406 
L 125.782751 100.391463 
L 126.533734 102.45052 
L 127.329784 104.509577 
L 128.163872 106.568634 
L 129.007538 108.627691 
L 129.814274 110.686749 
L 130.526863 112.745806 
L 131.086879 114.804863 
L 131.444082 116.86392 
L 131.563636 118.922977 
L 131.429835 120.982034 
L 131.046047 123.041091 
L 130.431618 125.100148 
L 129.617097 127.159205 
L 128.639302 129.218262 
L 127.537338 131.277319 
L 126.350032 133.336376 
L 125.114552 135.395433 
L 123.86562 137.45449 
L 122.634721 139.513547 
L 121.449066 141.572605 
L 120.330447 143.631662 
L 119.29444 145.690719 
L 118.350346 147.749776 
L 117.501976 149.808833 
L 116.749006 151.86789 
L 116.088394 153.926947 
L 115.515376 155.986004 
L 115.023827 158.045061 
L 114.606126 160.104118 
L 114.25295 162.163175 
L 113.953415 164.222232 
L 113.695808 166.281289 
L 113.46883 168.340346 
L 113.263009 170.399403 
L 113.071831 172.45846 
L 112.892237 174.517518 
L 112.724373 176.576575 
L 112.570714 178.635632 
L 112.434876 180.694689 
L 112.32045 182.753746 
L 112.230118 184.812803 
L 112.165159 186.87186 
L 112.125301 188.930917 
L 112.108799 190.989974 
L 112.112601 193.049031 
L 112.132532 195.108088 
L 112.163495 197.167145 
L 112.199751 199.226202 
L 112.235333 201.285259 
L 112.264629 203.344316 
L 112.283047 205.403373 
L 112.287636 207.462431 
L 112.277504 209.521488 
L 112.253905 211.580545 
L 112.219953 213.639602 
L 112.180045 215.698659 
L 112.139135 217.757716 
L 112.102023 219.816773 
L 112.072801 221.87583 
L 112.054505 223.934887 
L 112.048945 225.993944 
L 112.05666 228.053001 
L 112.076902 230.112058 
L 112.107652 232.171115 
L 112.145683 234.230172 
L 112.186753 236.289229 
L 112.225979 238.348287 
L 112.258421 240.407344 
L 112.279783 242.466401 
L 112.287111 244.525458 
L 112.287111 244.525458 
z
" clip-path="url(#pbe58947273)" style="fill: none; stroke: #000000; stroke-opacity: 0.3"/>
   </g>
   <g id="FillBetweenPolyCollection_6">
    <path d="M 112.301764 183.146795 
L 111.552781 183.146795 
L 111.543564 182.005332 
L 111.537561 180.863869 
L 111.532575 179.722407 
L 111.525853 178.580944 
L 111.514327 177.439481 
L 111.494891 176.298018 
L 111.464663 175.156555 
L 111.421192 174.015093 
L 111.362573 172.87363 
L 111.28745 171.732167 
L 111.194913 170.590704 
L 111.084326 169.449242 
L 110.955126 168.307779 
L 110.806652 167.166316 
L 110.638076 166.024853 
L 110.448449 164.883391 
L 110.236888 163.741928 
L 110.002864 162.600465 
L 109.746526 161.459002 
L 109.468978 160.317539 
L 109.172421 159.176077 
L 108.860104 158.034614 
L 108.536058 156.893151 
L 108.20466 155.751688 
L 107.870089 154.610226 
L 107.535811 153.468763 
L 107.204177 152.3273 
L 106.876245 151.185837 
L 106.551851 150.044374 
L 106.229904 148.902912 
L 105.908841 147.761449 
L 105.587127 146.619986 
L 105.263684 145.478523 
L 104.938167 144.337061 
L 104.611013 143.195598 
L 104.283272 142.054135 
L 103.956253 140.912672 
L 103.631054 139.771209 
L 103.30806 138.629747 
L 102.986497 137.488284 
L 102.664101 136.346821 
L 102.33696 135.205358 
L 101.999549 134.063896 
L 101.644979 132.922433 
L 101.265449 131.78097 
L 100.852891 130.639507 
L 100.39978 129.498045 
L 99.900054 128.356582 
L 99.350076 127.215119 
L 98.749536 126.073656 
L 98.102169 124.932193 
L 97.416183 123.790731 
L 96.704279 122.649268 
L 95.983211 121.507805 
L 95.272876 120.366342 
L 94.595027 119.22488 
L 93.971739 118.083417 
L 93.423834 116.941954 
L 92.969481 115.800491 
L 92.623139 114.659028 
L 92.394998 113.517566 
L 92.290909 112.376103 
L 92.31277 111.23464 
L 92.459187 110.093177 
L 92.726243 108.951715 
L 93.108153 107.810252 
L 93.597685 106.668789 
L 94.186274 105.527326 
L 94.863876 104.385863 
L 95.618686 103.244401 
L 96.436903 102.102938 
L 97.302719 100.961475 
L 98.198661 99.820012 
L 99.106332 98.67855 
L 100.007502 97.537087 
L 100.885371 96.395624 
L 101.72583 95.254161 
L 102.518467 94.112699 
L 103.25717 92.971236 
L 103.940195 91.829773 
L 104.569717 90.68831 
L 105.150941 89.546847 
L 105.690928 88.405385 
L 106.19733 87.263922 
L 106.677237 86.122459 
L 107.136259 84.980996 
L 107.577977 83.839534 
L 108.003773 82.698071 
L 108.413008 81.556608 
L 108.803494 80.415145 
L 109.172126 79.273682 
L 109.515571 78.13222 
L 109.830902 76.990757 
L 110.116089 75.849294 
L 110.370299 74.707831 
L 110.593971 73.566369 
L 110.788714 72.424906 
L 110.957038 71.283443 
L 111.102012 70.14198 
L 112.752534 70.14198 
L 112.752534 70.14198 
L 112.897508 71.283443 
L 113.065832 72.424906 
L 113.260574 73.566369 
L 113.484247 74.707831 
L 113.738456 75.849294 
L 114.023644 76.990757 
L 114.338974 78.13222 
L 114.682419 79.273682 
L 115.051051 80.415145 
L 115.441538 81.556608 
L 115.850773 82.698071 
L 116.276568 83.839534 
L 116.718287 84.980996 
L 117.177309 86.122459 
L 117.657215 87.263922 
L 118.163618 88.405385 
L 118.703604 89.546847 
L 119.284828 90.68831 
L 119.91435 91.829773 
L 120.597375 92.971236 
L 121.336078 94.112699 
L 122.128716 95.254161 
L 122.969174 96.395624 
L 123.847044 97.537087 
L 124.748213 98.67855 
L 125.655885 99.820012 
L 126.551826 100.961475 
L 127.417642 102.102938 
L 128.23586 103.244401 
L 128.99067 104.385863 
L 129.668272 105.527326 
L 130.256861 106.668789 
L 130.746393 107.810252 
L 131.128303 108.951715 
L 131.395358 110.093177 
L 131.541776 111.23464 
L 131.563636 112.376103 
L 131.459548 113.517566 
L 131.231406 114.659028 
L 130.885065 115.800491 
L 130.430711 116.941954 
L 129.882807 118.083417 
L 129.259519 119.22488 
L 128.58167 120.366342 
L 127.871335 121.507805 
L 127.150266 122.649268 
L 126.438363 123.790731 
L 125.752377 124.932193 
L 125.10501 126.073656 
L 124.504469 127.215119 
L 123.954492 128.356582 
L 123.454766 129.498045 
L 123.001654 130.639507 
L 122.589096 131.78097 
L 122.209566 132.922433 
L 121.854996 134.063896 
L 121.517586 135.205358 
L 121.190445 136.346821 
L 120.868049 137.488284 
L 120.546485 138.629747 
L 120.223492 139.771209 
L 119.898292 140.912672 
L 119.571273 142.054135 
L 119.243532 143.195598 
L 118.916378 144.337061 
L 118.590861 145.478523 
L 118.267419 146.619986 
L 117.945704 147.761449 
L 117.624641 148.902912 
L 117.302694 150.044374 
L 116.9783 151.185837 
L 116.650369 152.3273 
L 116.318735 153.468763 
L 115.984456 154.610226 
L 115.649886 155.751688 
L 115.318487 156.893151 
L 114.994442 158.034614 
L 114.682124 159.176077 
L 114.385567 160.317539 
L 114.108019 161.459002 
L 113.851681 162.600465 
L 113.617658 163.741928 
L 113.406097 164.883391 
L 113.21647 166.024853 
L 113.047893 167.166316 
L 112.89942 168.307779 
L 112.770219 169.449242 
L 112.659633 170.590704 
L 112.567096 171.732167 
L 112.491972 172.87363 
L 112.433353 174.015093 
L 112.389883 175.156555 
L 112.359655 176.298018 
L 112.340219 177.439481 
L 112.328693 178.580944 
L 112.321971 179.722407 
L 112.316985 180.863869 
L 112.310981 182.005332 
L 112.301764 183.146795 
L 112.301764 183.146795 
z
" clip-path="url(#pbe58947273)" style="fill: none; stroke: #000000; stroke-opacity: 0.3"/>
   </g>
   <g id="FillBetweenPolyCollection_7">
    <path d="M 119.3242 159.568867 
L 104.530345 159.568867 
L 104.032768 158.638846 
L 103.541466 157.708824 
L 103.060434 156.778803 
L 102.593466 155.848782 
L 102.144055 154.918761 
L 101.715293 153.988739 
L 101.309783 153.058718 
L 100.929558 152.128697 
L 100.576013 151.198676 
L 100.249864 150.268654 
L 99.95111 149.338633 
L 99.67903 148.408612 
L 99.432192 147.478591 
L 99.208491 146.548569 
L 99.005204 145.618548 
L 98.81907 144.688527 
L 98.64639 143.758506 
L 98.483138 142.828484 
L 98.325097 141.898463 
L 98.167998 140.968442 
L 98.007665 140.038421 
L 97.840166 139.108399 
L 97.661956 138.178378 
L 97.470014 137.248357 
L 97.261965 136.318336 
L 97.036177 135.388314 
L 96.791844 134.458293 
L 96.529028 133.528272 
L 96.248685 132.598251 
L 95.952639 131.668229 
L 95.643542 130.738208 
L 95.324788 129.808187 
L 95.000403 128.878166 
L 94.674907 127.948144 
L 94.353155 127.018123 
L 94.04017 126.088102 
L 93.740963 125.158081 
L 93.460354 124.228059 
L 93.202811 123.298038 
L 92.972297 122.368017 
L 92.772149 121.437996 
L 92.604981 120.507974 
L 92.47263 119.577953 
L 92.376126 118.647932 
L 92.315716 117.717911 
L 92.290909 116.787889 
L 92.300564 115.857868 
L 92.342997 114.927847 
L 92.416118 113.997826 
L 92.517569 113.067804 
L 92.64488 112.137783 
L 92.795606 111.207762 
L 92.967467 110.277741 
L 93.158459 109.347719 
L 93.366946 108.417698 
L 93.591719 107.487677 
L 93.832027 106.557656 
L 94.087576 105.627634 
L 94.358495 104.697613 
L 94.645278 103.767592 
L 94.9487 102.837571 
L 95.269717 101.907549 
L 95.609354 100.977528 
L 95.968583 100.047507 
L 96.348218 99.117486 
L 96.748795 98.187464 
L 97.17049 97.257443 
L 97.613037 96.327422 
L 98.075677 95.397401 
L 98.557133 94.467379 
L 99.0556 93.537358 
L 99.568775 92.607337 
L 100.0939 91.677316 
L 100.627826 90.747294 
L 101.167103 89.817273 
L 101.708075 88.887252 
L 102.246986 87.957231 
L 102.780089 87.027209 
L 103.303757 86.097188 
L 103.814584 85.167167 
L 104.309474 84.237146 
L 104.785725 83.307124 
L 105.241083 82.377103 
L 105.673791 81.447082 
L 106.082606 80.517061 
L 106.466812 79.587039 
L 106.826195 78.657018 
L 107.161019 77.726997 
L 107.471974 76.796976 
L 107.760123 75.866954 
L 108.026832 74.936933 
L 108.273697 74.006912 
L 108.502471 73.076891 
L 108.71499 72.146869 
L 108.913104 71.216848 
L 109.09861 70.286827 
L 109.273205 69.356806 
L 109.438432 68.426784 
L 109.595652 67.496763 
L 114.258893 67.496763 
L 114.258893 67.496763 
L 114.416113 68.426784 
L 114.581341 69.356806 
L 114.755935 70.286827 
L 114.941442 71.216848 
L 115.139555 72.146869 
L 115.352074 73.076891 
L 115.580848 74.006912 
L 115.827713 74.936933 
L 116.094422 75.866954 
L 116.382571 76.796976 
L 116.693527 77.726997 
L 117.02835 78.657018 
L 117.387733 79.587039 
L 117.771939 80.517061 
L 118.180755 81.447082 
L 118.613462 82.377103 
L 119.06882 83.307124 
L 119.545071 84.237146 
L 120.039962 85.167167 
L 120.550789 86.097188 
L 121.074457 87.027209 
L 121.60756 87.957231 
L 122.14647 88.887252 
L 122.687442 89.817273 
L 123.226719 90.747294 
L 123.760646 91.677316 
L 124.28577 92.607337 
L 124.798945 93.537358 
L 125.297413 94.467379 
L 125.778868 95.397401 
L 126.241509 96.327422 
L 126.684055 97.257443 
L 127.10575 98.187464 
L 127.506328 99.117486 
L 127.885962 100.047507 
L 128.245192 100.977528 
L 128.584828 101.907549 
L 128.905845 102.837571 
L 129.209268 103.767592 
L 129.496051 104.697613 
L 129.76697 105.627634 
L 130.022518 106.557656 
L 130.262826 107.487677 
L 130.487599 108.417698 
L 130.696086 109.347719 
L 130.887079 110.277741 
L 131.05894 111.207762 
L 131.209666 112.137783 
L 131.336976 113.067804 
L 131.438428 113.997826 
L 131.511548 114.927847 
L 131.553982 115.857868 
L 131.563636 116.787889 
L 131.53883 117.717911 
L 131.478419 118.647932 
L 131.381916 119.577953 
L 131.249564 120.507974 
L 131.082397 121.437996 
L 130.882249 122.368017 
L 130.651735 123.298038 
L 130.394191 124.228059 
L 130.113583 125.158081 
L 129.814375 126.088102 
L 129.501391 127.018123 
L 129.179639 127.948144 
L 128.854142 128.878166 
L 128.529757 129.808187 
L 128.211003 130.738208 
L 127.901907 131.668229 
L 127.605861 132.598251 
L 127.325517 133.528272 
L 127.062702 134.458293 
L 126.818368 135.388314 
L 126.592581 136.318336 
L 126.384531 137.248357 
L 126.19259 138.178378 
L 126.01438 139.108399 
L 125.84688 140.038421 
L 125.686547 140.968442 
L 125.529448 141.898463 
L 125.371408 142.828484 
L 125.208156 143.758506 
L 125.035475 144.688527 
L 124.849341 145.618548 
L 124.646054 146.548569 
L 124.422353 147.478591 
L 124.175515 148.408612 
L 123.903435 149.338633 
L 123.604681 150.268654 
L 123.278532 151.198676 
L 122.924988 152.128697 
L 122.544762 153.058718 
L 122.139252 153.988739 
L 121.710491 154.918761 
L 121.26108 155.848782 
L 120.794111 156.778803 
L 120.313079 157.708824 
L 119.821778 158.638846 
L 119.3242 159.568867 
L 119.3242 159.568867 
z
" clip-path="url(#pbe58947273)" style="fill: none; stroke: #000000; stroke-opacity: 0.3"/>
   </g>
   <g id="FillBetweenPolyCollection_8">
    <path d="M 113.011191 202.959737 
L 110.843354 202.959737 
L 110.770035 201.675325 
L 110.701532 200.390914 
L 110.637124 199.106502 
L 110.575616 197.822091 
L 110.515542 196.537679 
L 110.455419 195.253268 
L 110.394023 193.968857 
L 110.330655 192.684445 
L 110.265351 191.400034 
L 110.199005 190.115622 
L 110.133372 188.831211 
L 110.070954 187.546799 
L 110.014765 186.262388 
L 109.967999 184.977976 
L 109.933637 183.693565 
L 109.91404 182.409154 
L 109.910556 181.124742 
L 109.923205 179.840331 
L 109.950456 178.555919 
L 109.98912 177.271508 
L 110.034384 175.987096 
L 110.07996 174.702685 
L 110.118354 173.418274 
L 110.141229 172.133862 
L 110.13983 170.849451 
L 110.105448 169.565039 
L 110.029888 168.280628 
L 109.90589 166.996216 
L 109.727499 165.711805 
L 109.490319 164.427394 
L 109.191651 163.142982 
L 108.830488 161.858571 
L 108.407378 160.574159 
L 107.924167 159.289748 
L 107.383665 158.005336 
L 106.789287 156.720925 
L 106.144719 155.436513 
L 105.453691 154.152102 
L 104.719876 152.867691 
L 103.946965 151.583279 
L 103.1389 150.298868 
L 102.300235 149.014456 
L 101.436561 147.730045 
L 100.554907 146.445633 
L 99.664034 145.161222 
L 98.774527 143.876811 
L 97.898642 142.592399 
L 97.04988 141.307988 
L 96.2423 140.023576 
L 95.489651 138.739165 
L 94.804408 137.454753 
L 94.196826 136.170342 
L 93.674158 134.88593 
L 93.240122 133.601519 
L 92.894719 132.317108 
L 92.634438 131.032696 
L 92.452836 129.748285 
L 92.341447 128.463873 
L 92.290909 127.179462 
L 92.292188 125.89505 
L 92.33773 124.610639 
L 92.422414 123.326228 
L 92.544169 122.041816 
L 92.704163 120.757405 
L 92.906552 119.472993 
L 93.157787 118.188582 
L 93.465588 116.90417 
L 93.837699 115.619759 
L 94.280588 114.335348 
L 94.798278 113.050936 
L 95.391428 111.766525 
L 96.056821 110.482113 
L 96.787292 109.197702 
L 97.572103 107.91329 
L 98.397716 106.628879 
L 99.24884 105.344467 
L 100.109614 104.060056 
L 100.964783 102.775645 
L 101.800708 101.491233 
L 102.606123 100.206822 
L 103.37257 98.92241 
L 104.094488 97.637999 
L 104.76902 96.353587 
L 105.395577 95.069176 
L 105.975283 93.784765 
L 106.51038 92.500353 
L 107.003681 91.215942 
L 107.458142 89.93153 
L 107.876577 88.647119 
L 108.261523 87.362707 
L 108.615219 86.078296 
L 108.939684 84.793885 
L 109.23682 83.509473 
L 109.508515 82.225062 
L 109.756713 80.94065 
L 109.983424 79.656239 
L 110.190695 78.371827 
L 110.380525 77.087416 
L 110.554779 75.803004 
L 113.299767 75.803004 
L 113.299767 75.803004 
L 113.47402 77.087416 
L 113.663851 78.371827 
L 113.871121 79.656239 
L 114.097833 80.94065 
L 114.34603 82.225062 
L 114.617726 83.509473 
L 114.914862 84.793885 
L 115.239327 86.078296 
L 115.593023 87.362707 
L 115.977968 88.647119 
L 116.396404 89.93153 
L 116.850865 91.215942 
L 117.344165 92.500353 
L 117.879262 93.784765 
L 118.458969 95.069176 
L 119.085526 96.353587 
L 119.760057 97.637999 
L 120.481976 98.92241 
L 121.248422 100.206822 
L 122.053838 101.491233 
L 122.889762 102.775645 
L 123.744931 104.060056 
L 124.605706 105.344467 
L 125.456829 106.628879 
L 126.282443 107.91329 
L 127.067254 109.197702 
L 127.797724 110.482113 
L 128.463118 111.766525 
L 129.056268 113.050936 
L 129.573957 114.335348 
L 130.016847 115.619759 
L 130.388957 116.90417 
L 130.696758 118.188582 
L 130.947993 119.472993 
L 131.150382 120.757405 
L 131.310376 122.041816 
L 131.432131 123.326228 
L 131.516816 124.610639 
L 131.562358 125.89505 
L 131.563636 127.179462 
L 131.513099 128.463873 
L 131.401709 129.748285 
L 131.220107 131.032696 
L 130.959826 132.317108 
L 130.614424 133.601519 
L 130.180388 134.88593 
L 129.65772 136.170342 
L 129.050138 137.454753 
L 128.364894 138.739165 
L 127.612246 140.023576 
L 126.804666 141.307988 
L 125.955903 142.592399 
L 125.080019 143.876811 
L 124.190511 145.161222 
L 123.299638 146.445633 
L 122.417985 147.730045 
L 121.554311 149.014456 
L 120.715646 150.298868 
L 119.907581 151.583279 
L 119.13467 152.867691 
L 118.400855 154.152102 
L 117.709826 155.436513 
L 117.065259 156.720925 
L 116.47088 158.005336 
L 115.930379 159.289748 
L 115.447168 160.574159 
L 115.024057 161.858571 
L 114.662894 163.142982 
L 114.364226 164.427394 
L 114.127047 165.711805 
L 113.948656 166.996216 
L 113.824658 168.280628 
L 113.749097 169.565039 
L 113.714716 170.849451 
L 113.713316 172.133862 
L 113.736191 173.418274 
L 113.774585 174.702685 
L 113.820161 175.987096 
L 113.865425 177.271508 
L 113.90409 178.555919 
L 113.93134 179.840331 
L 113.94399 181.124742 
L 113.940506 182.409154 
L 113.920908 183.693565 
L 113.886546 184.977976 
L 113.83978 186.262388 
L 113.783591 187.546799 
L 113.721173 188.831211 
L 113.65554 190.115622 
L 113.589194 191.400034 
L 113.52389 192.684445 
L 113.460522 193.968857 
L 113.399126 195.253268 
L 113.339003 196.537679 
L 113.27893 197.822091 
L 113.217422 199.106502 
L 113.153013 200.390914 
L 113.084511 201.675325 
L 113.011191 202.959737 
L 113.011191 202.959737 
z
" clip-path="url(#pbe58947273)" style="fill: none; stroke: #000000; stroke-opacity: 0.3"/>
   </g>
   <g id="FillBetweenPolyCollection_9">
    <path d="M 113.181609 162.311183 
L 110.672936 162.311183 
L 110.504298 161.327314 
L 110.335779 160.343445 
L 110.171588 159.359577 
L 110.01576 158.375708 
L 109.871775 157.39184 
L 109.742179 156.407971 
L 109.628221 155.424102 
L 109.529555 154.440234 
L 109.444044 153.456365 
L 109.36768 152.472497 
L 109.294649 151.488628 
L 109.217547 150.504759 
L 109.127735 149.520891 
L 109.015834 148.537022 
L 108.872309 147.553154 
L 108.688135 146.569285 
L 108.455472 145.585416 
L 108.168325 144.601548 
L 107.823124 143.617679 
L 107.419179 142.63381 
L 106.958969 141.649942 
L 106.448226 140.666073 
L 105.895797 139.682205 
L 105.313267 138.698336 
L 104.714353 137.714467 
L 104.114087 136.730599 
L 103.527838 135.74673 
L 102.970229 134.762862 
L 102.454026 133.778993 
L 101.9891 132.795124 
L 101.581561 131.811256 
L 101.23315 130.827387 
L 100.940981 129.843519 
L 100.697663 128.85965 
L 100.491817 127.875781 
L 100.308952 126.891913 
L 100.132609 125.908044 
L 99.945657 124.924176 
L 99.731641 123.940307 
L 99.476019 122.956438 
L 99.167217 121.97257 
L 98.79743 120.988701 
L 98.363136 120.004833 
L 97.865349 119.020964 
L 97.309643 118.037095 
L 96.705995 117.053227 
L 96.068481 116.069358 
L 95.414845 115.08549 
L 94.765915 114.101621 
L 94.144849 113.117752 
L 93.576161 112.133884 
L 93.08452 111.150015 
L 92.693356 110.166146 
L 92.423343 109.182278 
L 92.290909 108.198409 
L 92.306945 107.214541 
L 92.475879 106.230672 
L 92.795285 105.246803 
L 93.256095 104.262935 
L 93.843406 103.279066 
L 94.53781 102.295198 
L 95.317045 101.311329 
L 96.157776 100.32746 
L 97.03728 99.343592 
L 97.934842 98.359723 
L 98.832765 97.375855 
L 99.716917 96.391986 
L 100.576862 95.408117 
L 101.405639 94.424249 
L 102.199282 93.44038 
L 102.956199 92.456512 
L 103.676491 91.472643 
L 104.361284 90.488774 
L 105.012128 89.504906 
L 105.630496 88.521037 
L 106.217422 87.537169 
L 106.773278 86.5533 
L 107.297717 85.569431 
L 107.789773 84.585563 
L 108.248085 83.601694 
L 108.671207 82.617825 
L 109.057941 81.633957 
L 109.407638 80.650088 
L 109.720397 79.66622 
L 109.99715 78.682351 
L 110.239613 77.698482 
L 110.45013 76.714614 
L 110.631468 75.730745 
L 110.786587 74.746877 
L 110.918459 73.763008 
L 111.029953 72.779139 
L 111.123778 71.795271 
L 111.202503 70.811402 
L 111.268591 69.827534 
L 111.324432 68.843665 
L 111.372346 67.859796 
L 111.414544 66.875928 
L 111.453046 65.892059 
L 111.489573 64.908191 
L 112.364972 64.908191 
L 112.364972 64.908191 
L 112.401499 65.892059 
L 112.440001 66.875928 
L 112.4822 67.859796 
L 112.530114 68.843665 
L 112.585954 69.827534 
L 112.652042 70.811402 
L 112.730768 71.795271 
L 112.824593 72.779139 
L 112.936086 73.763008 
L 113.067959 74.746877 
L 113.223078 75.730745 
L 113.404415 76.714614 
L 113.614933 77.698482 
L 113.857395 78.682351 
L 114.134149 79.66622 
L 114.446908 80.650088 
L 114.796604 81.633957 
L 115.183339 82.617825 
L 115.60646 83.601694 
L 116.064773 84.585563 
L 116.556829 85.569431 
L 117.081268 86.5533 
L 117.637123 87.537169 
L 118.224049 88.521037 
L 118.842418 89.504906 
L 119.493261 90.488774 
L 120.178054 91.472643 
L 120.898346 92.456512 
L 121.655264 93.44038 
L 122.448907 94.424249 
L 123.277683 95.408117 
L 124.137629 96.391986 
L 125.02178 97.375855 
L 125.919703 98.359723 
L 126.817266 99.343592 
L 127.696769 100.32746 
L 128.537501 101.311329 
L 129.316736 102.295198 
L 130.01114 103.279066 
L 130.598451 104.262935 
L 131.05926 105.246803 
L 131.378667 106.230672 
L 131.547601 107.214541 
L 131.563636 108.198409 
L 131.431203 109.182278 
L 131.161189 110.166146 
L 130.770025 111.150015 
L 130.278384 112.133884 
L 129.709696 113.117752 
L 129.088631 114.101621 
L 128.439701 115.08549 
L 127.786064 116.069358 
L 127.14855 117.053227 
L 126.544902 118.037095 
L 125.989196 119.020964 
L 125.49141 120.004833 
L 125.057116 120.988701 
L 124.687328 121.97257 
L 124.378527 122.956438 
L 124.122904 123.940307 
L 123.908888 124.924176 
L 123.721937 125.908044 
L 123.545593 126.891913 
L 123.362729 127.875781 
L 123.156883 128.85965 
L 122.913564 129.843519 
L 122.621395 130.827387 
L 122.272984 131.811256 
L 121.865445 132.795124 
L 121.40052 133.778993 
L 120.884316 134.762862 
L 120.326707 135.74673 
L 119.740459 136.730599 
L 119.140193 137.714467 
L 118.541278 138.698336 
L 117.958749 139.682205 
L 117.40632 140.666073 
L 116.895576 141.649942 
L 116.435366 142.63381 
L 116.031421 143.617679 
L 115.686221 144.601548 
L 115.399074 145.585416 
L 115.166411 146.569285 
L 114.982236 147.553154 
L 114.838712 148.537022 
L 114.72681 149.520891 
L 114.636999 150.504759 
L 114.559896 151.488628 
L 114.486866 152.472497 
L 114.410502 153.456365 
L 114.324991 154.440234 
L 114.226325 155.424102 
L 114.112366 156.407971 
L 113.98277 157.39184 
L 113.838786 158.375708 
L 113.682957 159.359577 
L 113.518767 160.343445 
L 113.350248 161.327314 
L 113.181609 162.311183 
L 113.181609 162.311183 
z
" clip-path="url(#pbe58947273)" style="fill: none; stroke: #000000; stroke-opacity: 0.3"/>
   </g>
   <g id="FillBetweenPolyCollection_10">
    <path d="M 112.395229 175.240314 
L 111.459316 175.240314 
L 111.465366 173.997857 
L 111.484995 172.755401 
L 111.515346 171.512945 
L 111.55223 170.270488 
L 111.590571 169.028032 
L 111.624918 167.785576 
L 111.649924 166.543119 
L 111.660727 165.300663 
L 111.65319 164.058207 
L 111.624005 162.815751 
L 111.570662 161.573294 
L 111.491326 160.330838 
L 111.384633 159.088382 
L 111.249454 157.845925 
L 111.084639 156.603469 
L 110.888815 155.361013 
L 110.66026 154.118556 
L 110.396929 152.8761 
L 110.096637 151.633644 
L 109.757397 150.391188 
L 109.377835 149.148731 
L 108.957553 147.906275 
L 108.497314 146.663819 
L 107.99891 145.421362 
L 107.464687 144.178906 
L 106.896783 142.93645 
L 106.296278 141.693994 
L 105.662532 140.451537 
L 104.993001 139.209081 
L 104.283724 137.966625 
L 103.530519 136.724168 
L 102.730697 135.481712 
L 101.884882 134.239256 
L 100.998466 132.996799 
L 100.082211 131.754343 
L 99.151756 130.511887 
L 98.226036 129.269431 
L 97.32497 128.026974 
L 96.467024 126.784518 
L 95.667283 125.542062 
L 94.93659 124.299605 
L 94.281963 123.057149 
L 93.70812 121.814693 
L 93.219609 120.572237 
L 92.822816 119.32978 
L 92.527167 118.087324 
L 92.345123 116.844868 
L 92.290909 115.602411 
L 92.378356 114.359955 
L 92.618472 113.117499 
L 93.017397 111.875042 
L 93.575196 110.632586 
L 94.285645 109.39013 
L 95.136818 108.147674 
L 96.11207 106.905217 
L 97.191034 105.662761 
L 98.350366 104.420305 
L 99.564247 103.177848 
L 100.804823 101.935392 
L 102.042865 100.692936 
L 103.248853 99.45048 
L 104.394511 98.208023 
L 105.454625 96.965567 
L 106.408829 95.723111 
L 107.243038 94.480654 
L 107.950247 93.238198 
L 108.530597 91.995742 
L 108.990742 90.753285 
L 109.342677 89.510829 
L 109.602244 88.268373 
L 109.787523 87.025917 
L 109.917309 85.78346 
L 110.009767 84.541004 
L 110.081354 83.298548 
L 110.146024 82.056091 
L 110.214706 80.813635 
L 110.29504 79.571179 
L 110.391348 78.328723 
L 110.504815 77.086266 
L 110.63386 75.84381 
L 110.774672 74.601354 
L 110.921862 73.358897 
L 111.069187 72.116441 
L 111.210264 70.873985 
L 111.339206 69.631528 
L 111.451116 68.389072 
L 111.542408 67.146616 
L 111.61096 65.90416 
L 111.656122 64.661703 
L 111.678636 63.419247 
L 111.680515 62.176791 
L 111.664899 60.934334 
L 111.635886 59.691878 
L 111.598324 58.449422 
L 111.55751 57.206966 
L 111.518808 55.964509 
L 111.48718 54.722053 
L 111.466693 53.479597 
L 111.460093 52.23714 
L 112.394453 52.23714 
L 112.394453 52.23714 
L 112.387852 53.479597 
L 112.367366 54.722053 
L 112.335737 55.964509 
L 112.297035 57.206966 
L 112.256222 58.449422 
L 112.218659 59.691878 
L 112.189647 60.934334 
L 112.17403 62.176791 
L 112.17591 63.419247 
L 112.198424 64.661703 
L 112.243585 65.90416 
L 112.312137 67.146616 
L 112.40343 68.389072 
L 112.515339 69.631528 
L 112.644281 70.873985 
L 112.785358 72.116441 
L 112.932683 73.358897 
L 113.079874 74.601354 
L 113.220685 75.84381 
L 113.349731 77.086266 
L 113.463197 78.328723 
L 113.559505 79.571179 
L 113.639839 80.813635 
L 113.708521 82.056091 
L 113.773191 83.298548 
L 113.844779 84.541004 
L 113.937236 85.78346 
L 114.067022 87.025917 
L 114.252302 88.268373 
L 114.511868 89.510829 
L 114.863804 90.753285 
L 115.323949 91.995742 
L 115.904298 93.238198 
L 116.611507 94.480654 
L 117.445716 95.723111 
L 118.399921 96.965567 
L 119.460034 98.208023 
L 120.605692 99.45048 
L 121.81168 100.692936 
L 123.049722 101.935392 
L 124.290298 103.177848 
L 125.50418 104.420305 
L 126.663512 105.662761 
L 127.742475 106.905217 
L 128.717727 108.147674 
L 129.5689 109.39013 
L 130.27935 110.632586 
L 130.837148 111.875042 
L 131.236073 113.117499 
L 131.47619 114.359955 
L 131.563636 115.602411 
L 131.509422 116.844868 
L 131.327378 118.087324 
L 131.03173 119.32978 
L 130.634936 120.572237 
L 130.146426 121.814693 
L 129.572583 123.057149 
L 128.917955 124.299605 
L 128.187263 125.542062 
L 127.387522 126.784518 
L 126.529576 128.026974 
L 125.62851 129.269431 
L 124.702789 130.511887 
L 123.772335 131.754343 
L 122.85608 132.996799 
L 121.969663 134.239256 
L 121.123849 135.481712 
L 120.324026 136.724168 
L 119.570822 137.966625 
L 118.861544 139.209081 
L 118.192013 140.451537 
L 117.558268 141.693994 
L 116.957763 142.93645 
L 116.389858 144.178906 
L 115.855635 145.421362 
L 115.357231 146.663819 
L 114.896992 147.906275 
L 114.47671 149.148731 
L 114.097148 150.391188 
L 113.757908 151.633644 
L 113.457616 152.8761 
L 113.194285 154.118556 
L 112.96573 155.361013 
L 112.769906 156.603469 
L 112.605092 157.845925 
L 112.469912 159.088382 
L 112.36322 160.330838 
L 112.283883 161.573294 
L 112.23054 162.815751 
L 112.201355 164.058207 
L 112.193819 165.300663 
L 112.204622 166.543119 
L 112.229628 167.785576 
L 112.263975 169.028032 
L 112.302315 170.270488 
L 112.339199 171.512945 
L 112.369551 172.755401 
L 112.38918 173.997857 
L 112.395229 175.240314 
L 112.395229 175.240314 
z
" clip-path="url(#pbe58947273)" style="fill: none; stroke: #000000; stroke-opacity: 0.3"/>
   </g>
   <g id="FillBetweenPolyCollection_11">
    <path d="M 113.742014 175.594531 
L 110.112531 175.594531 
L 109.954043 174.693752 
L 109.797384 173.792974 
L 109.643655 172.892195 
L 109.493525 171.991417 
L 109.347164 171.090638 
L 109.204185 170.18986 
L 109.06363 169.289081 
L 108.923969 168.388303 
L 108.783146 167.487525 
L 108.638638 166.586746 
L 108.487546 165.685968 
L 108.326713 164.785189 
L 108.152851 163.884411 
L 107.962684 162.983632 
L 107.753107 162.082854 
L 107.521336 161.182075 
L 107.265064 160.281297 
L 106.982608 159.380518 
L 106.673031 158.47974 
L 106.336249 157.578961 
L 105.973089 156.678183 
L 105.58532 155.777405 
L 105.175618 154.876626 
L 104.747483 153.975848 
L 104.305105 153.075069 
L 103.853166 152.174291 
L 103.396618 151.273512 
L 102.940417 150.372734 
L 102.489265 149.471955 
L 102.04735 148.571177 
L 101.61813 147.670398 
L 101.204159 146.76962 
L 100.806985 145.868841 
L 100.427108 144.968063 
L 100.064022 144.067285 
L 99.716317 143.166506 
L 99.381829 142.265728 
L 99.057846 141.364949 
L 98.741317 140.464171 
L 98.42908 139.563392 
L 98.118075 138.662614 
L 97.805541 137.761835 
L 97.489184 136.861057 
L 97.167312 135.960278 
L 96.838937 135.0595 
L 96.503842 134.158721 
L 96.162614 133.257943 
L 95.816635 132.357165 
L 95.46805 131.456386 
L 95.119685 130.555608 
L 94.774945 129.654829 
L 94.437675 128.754051 
L 94.112002 127.853272 
L 93.802162 126.952494 
L 93.51233 126.051715 
L 93.24645 125.150937 
L 93.0081 124.250158 
L 92.80038 123.34938 
L 92.625842 122.448601 
L 92.486463 121.547823 
L 92.383657 120.647044 
L 92.318321 119.746266 
L 92.290909 118.845488 
L 92.301525 117.944709 
L 92.350017 117.043931 
L 92.436066 116.143152 
L 92.559268 115.242374 
L 92.719185 114.341595 
L 92.915379 113.440817 
L 93.147411 112.540038 
L 93.414818 111.63926 
L 93.717061 110.738481 
L 94.053455 109.837703 
L 94.42309 108.936924 
L 94.824743 108.036146 
L 95.256805 107.135368 
L 95.717227 106.234589 
L 96.203492 105.333811 
L 96.71263 104.433032 
L 97.241273 103.532254 
L 97.785755 102.631475 
L 98.342244 101.730697 
L 98.906908 100.829918 
L 99.476081 99.92914 
L 100.046435 99.028361 
L 100.615118 98.127583 
L 101.179853 97.226804 
L 101.738986 96.326026 
L 102.291472 95.425248 
L 102.836804 94.524469 
L 103.374879 93.623691 
L 103.905844 92.722912 
L 104.429898 91.822134 
L 104.947116 90.921355 
L 105.457275 90.020577 
L 105.959729 89.119798 
L 106.453334 88.21902 
L 106.936429 87.318241 
L 107.406878 86.417463 
L 116.447668 86.417463 
L 116.447668 86.417463 
L 116.918117 87.318241 
L 117.401211 88.21902 
L 117.894817 89.119798 
L 118.397271 90.020577 
L 118.90743 90.921355 
L 119.424647 91.822134 
L 119.948702 92.722912 
L 120.479666 93.623691 
L 121.017742 94.524469 
L 121.563073 95.425248 
L 122.11556 96.326026 
L 122.674693 97.226804 
L 123.239427 98.127583 
L 123.80811 99.028361 
L 124.378464 99.92914 
L 124.947638 100.829918 
L 125.512301 101.730697 
L 126.068791 102.631475 
L 126.613272 103.532254 
L 127.141915 104.433032 
L 127.651053 105.333811 
L 128.137318 106.234589 
L 128.59774 107.135368 
L 129.029803 108.036146 
L 129.431456 108.936924 
L 129.80109 109.837703 
L 130.137485 110.738481 
L 130.439728 111.63926 
L 130.707134 112.540038 
L 130.939166 113.440817 
L 131.13536 114.341595 
L 131.295277 115.242374 
L 131.418479 116.143152 
L 131.504528 117.043931 
L 131.55302 117.944709 
L 131.563636 118.845488 
L 131.536225 119.746266 
L 131.470888 120.647044 
L 131.368082 121.547823 
L 131.228704 122.448601 
L 131.054166 123.34938 
L 130.846446 124.250158 
L 130.608096 125.150937 
L 130.342216 126.051715 
L 130.052383 126.952494 
L 129.742544 127.853272 
L 129.416871 128.754051 
L 129.0796 129.654829 
L 128.734861 130.555608 
L 128.386496 131.456386 
L 128.03791 132.357165 
L 127.691932 133.257943 
L 127.350703 134.158721 
L 127.015609 135.0595 
L 126.687234 135.960278 
L 126.365362 136.861057 
L 126.049005 137.761835 
L 125.736471 138.662614 
L 125.425466 139.563392 
L 125.113228 140.464171 
L 124.796699 141.364949 
L 124.472716 142.265728 
L 124.138229 143.166506 
L 123.790523 144.067285 
L 123.427437 144.968063 
L 123.047561 145.868841 
L 122.650386 146.76962 
L 122.236416 147.670398 
L 121.807196 148.571177 
L 121.365281 149.471955 
L 120.914128 150.372734 
L 120.457928 151.273512 
L 120.001379 152.174291 
L 119.549441 153.075069 
L 119.107062 153.975848 
L 118.678928 154.876626 
L 118.269225 155.777405 
L 117.881456 156.678183 
L 117.518297 157.578961 
L 117.181514 158.47974 
L 116.871938 159.380518 
L 116.589481 160.281297 
L 116.33321 161.182075 
L 116.101438 162.082854 
L 115.891861 162.983632 
L 115.701695 163.884411 
L 115.527832 164.785189 
L 115.367 165.685968 
L 115.215908 166.586746 
L 115.071399 167.487525 
L 114.930576 168.388303 
L 114.790916 169.289081 
L 114.65036 170.18986 
L 114.507382 171.090638 
L 114.36102 171.991417 
L 114.210891 172.892195 
L 114.057161 173.792974 
L 113.900503 174.693752 
L 113.742014 175.594531 
L 113.742014 175.594531 
z
" clip-path="url(#pbe58947273)" style="fill: none; stroke: #000000; stroke-opacity: 0.3"/>
   </g>
   <g id="matplotlib.axis_1"/>
   <g id="matplotlib.axis_2">
    <g id="ytick_1">
     <g id="line2d_1">
      <defs>
       <path id="m98092f53d3" d="M 0 0 
L -3.5 0 
" style="stroke: #000000; stroke-width: 0.8"/>
      </defs>
      <g>
       <use xlink:href="#m98092f53d3" x="21.6" y="291.6" style="stroke: #000000; stroke-width: 0.8"/>
      </g>
     </g>
    </g>
    <g id="ytick_2">
     <g id="line2d_2">
      <g>
       <use xlink:href="#m98092f53d3" x="21.6" y="199.8" style="stroke: #000000; stroke-width: 0.8"/>
      </g>
     </g>
    </g>
    <g id="ytick_3">
     <g id="line2d_3">
      <g>
       <use xlink:href="#m98092f53d3" x="21.6" y="108" style="stroke: #000000; stroke-width: 0.8"/>
      </g>
     </g>
    </g>
    <g id="ytick_4">
     <g id="line2d_4">
      <g>
       <use xlink:href="#m98092f53d3" x="21.6" y="16.2" style="stroke: #000000; stroke-width: 0.8"/>
      </g>
     </g>
    </g>
   </g>
   <g id="line2d_5">
    <path d="M 46.472727 269.568 
L 46.472727 264.06 
" clip-path="url(#pbe58947273)" style="fill: none; stroke: #000000; stroke-linecap: square"/>
   </g>
   <g id="line2d_6">
    <path d="M 46.472727 269.568 
L 111.927273 269.568 
" clip-path="url(#pbe58947273)" style="fill: none; stroke: #000000; stroke-linecap: square"/>
   </g>
   <g id="line2d_7">
    <path d="M 111.927273 269.568 
L 111.927273 264.06 
" clip-path="url(#pbe58947273)" style="fill: none; stroke: #000000; stroke-linecap: square"/>
   </g>
   <g id="patch_3">
    <path d="M 21.6 291.6 
L 21.6 16.2 
" style="fill: none; stroke: #000000; stroke-width: 0.8; stroke-linejoin: miter; stroke-linecap: square"/>
   </g>
   <g id="patch_4">
    <path d="M 136.8 291.6 
L 136.8 16.2 
" style="fill: none; stroke: #000000; stroke-width: 0.8; stroke-linejoin: miter; stroke-linecap: square"/>
   </g>
   <g id="patch_5">
    <path d="M 21.6 291.6 
L 136.8 291.6 
" style="fill: none; stroke: #000000; stroke-width: 0.8; stroke-linejoin: miter; stroke-linecap: square"/>
   </g>
   <g id="patch_6">
    <path d="M 21.6 16.2 
L 136.8 16.2 
" style="fill: none; stroke: #000000; stroke-width: 0.8; stroke-linejoin: miter; stroke-linecap: square"/>
   </g>
   <g id="text_1">
    <text style="font-weight: 700; font-size: 12px; font-family: 'DejaVu Sans', 'Bitstream Vera Sans', 'Computer Modern Sans Serif', 'Lucida Grande', 'Verdana', 'Geneva', 'Lucid', 'Arial', 'Helvetica', 'Avant Garde', sans-serif; text-anchor: middle" x="46.472727" y="289.104375" transform="rotate(-0 46.472727 289.104375)">#19</text>
   </g>
   <g id="text_2">
    <text style="font-weight: 700; font-size: 12px; font-family: 'DejaVu Sans', 'Bitstream Vera Sans', 'Computer Modern Sans Serif', 'Lucida Grande', 'Verdana', 'Geneva', 'Lucid', 'Arial', 'Helvetica', 'Avant Garde', sans-serif; text-anchor: middle" x="111.927273" y="289.104375" transform="rotate(-0 111.927273 289.104375)">#25</text>
   </g>
   <g id="text_3">
    <text style="font-size: 12px; font-family: 'DejaVu Sans', 'Bitstream Vera Sans', 'Computer Modern Sans Serif', 'Lucida Grande', 'Verdana', 'Geneva', 'Lucid', 'Arial', 'Helvetica', 'Avant Garde', sans-serif; text-anchor: middle" x="79.2" y="268.449375" transform="rotate(-0 79.2 268.449375)">**</text>
   </g>
   <g id="line2d_8">
    <path d="M 21.6 106.498598 
L 136.8 106.498598 
" clip-path="url(#pbe58947273)" style="fill: none; stroke-dasharray: 3.7,1.6; stroke-dashoffset: 0; stroke: #808080; stroke-opacity: 0.7"/>
   </g>
   <g id="line2d_9">
    <path d="M 21.6 118.238889 
L 136.8 118.238889 
" clip-path="url(#pbe58947273)" style="fill: none; stroke-dasharray: 3.7,1.6; stroke-dashoffset: 0; stroke: #808080; stroke-opacity: 0.7"/>
   </g>
   <g id="LineCollection_1">
    <path d="M 46.472727 108.075843 
L 46.472727 104.921353 
" clip-path="url(#pbe58947273)" style="fill: none; stroke: #000000; stroke-width: 2"/>
   </g>
   <g id="line2d_10">
    <defs>
     <path id="m616a5d39ca" d="M 5 0 
L -5 -0 
" style="stroke: #000000; stroke-width: 2"/>
    </defs>
    <g clip-path="url(#pbe58947273)">
     <use xlink:href="#m616a5d39ca" x="46.472727" y="108.075843" style="stroke: #000000; stroke-width: 2"/>
    </g>
   </g>
   <g id="line2d_11">
    <g clip-path="url(#pbe58947273)">
     <use xlink:href="#m616a5d39ca" x="46.472727" y="104.921353" style="stroke: #000000; stroke-width: 2"/>
    </g>
   </g>
   <g id="LineCollection_2">
    <path d="M 111.927273 123.417812 
L 111.927273 113.059965 
" clip-path="url(#pbe58947273)" style="fill: none; stroke: #000000; stroke-width: 2"/>
   </g>
   <g id="line2d_12">
    <g clip-path="url(#pbe58947273)">
     <use xlink:href="#m616a5d39ca" x="111.927273" y="123.417812" style="stroke: #000000; stroke-width: 2"/>
    </g>
   </g>
   <g id="line2d_13">
    <g clip-path="url(#pbe58947273)">
     <use xlink:href="#m616a5d39ca" x="111.927273" y="113.059965" style="stroke: #000000; stroke-width: 2"/>
    </g>
   </g>
   <g id="line2d_14">
    <defs>
     <path id="m163d781d71" d="M 0 4 
C 1.060812 4 2.078319 3.578535 2.828427 2.828427 
C 3.578535 2.078319 4 1.060812 4 0 
C 4 -1.060812 3.578535 -2.078319 2.828427 -2.828427 
C 2.078319 -3.578535 1.060812 -4 0 -4 
C -1.060812 -4 -2.078319 -3.578535 -2.828427 -2.828427 
C -3.578535 -2.078319 -4 -1.060812 -4 0 
C -4 1.060812 -3.578535 2.078319 -2.828427 2.828427 
C -2.078319 3.578535 -1.060812 4 0 4 
z
" style="stroke: #000000"/>
    </defs>
    <g clip-path="url(#pbe58947273)">
     <use xlink:href="#m163d781d71" x="46.472727" y="106.498598" style="stroke: #000000"/>
    </g>
   </g>
   <g id="line2d_15">
    <g clip-path="url(#pbe58947273)">
     <use xlink:href="#m163d781d71" x="111.927273" y="118.238889" style="stroke: #000000"/>
    </g>
   </g>
  </g>
 </g>
 <defs>
  <clipPath id="pbe58947273">
   <rect x="21.6" y="16.2" width="115.2" height="275.4"/>
  </clipPath>
 </defs>
</svg>
