<?xml version="1.0" encoding="utf-8" standalone="no"?>
<!DOCTYPE svg PUBLIC "-//W3C//DTD SVG 1.1//EN"
  "http://www.w3.org/Graphics/SVG/1.1/DTD/svg11.dtd">
<svg xmlns:xlink="http://www.w3.org/1999/xlink" width="144pt" height="324pt" viewBox="0 0 144 324" xmlns="http://www.w3.org/2000/svg" version="1.1">
 <metadata>
  <rdf:RDF xmlns:dc="http://purl.org/dc/elements/1.1/" xmlns:cc="http://creativecommons.org/ns#" xmlns:rdf="http://www.w3.org/1999/02/22-rdf-syntax-ns#">
   <cc:Work>
    <dc:type rdf:resource="http://purl.org/dc/dcmitype/StillImage"/>
    <dc:date>2025-12-05T14:51:44.476198</dc:date>
    <dc:format>image/svg+xml</dc:format>
    <dc:creator>
     <cc:Agent>
      <dc:title>Matplotlib v3.10.0, https://matplotlib.org/</dc:title>
     </cc:Agent>
    </dc:creator>
   </cc:Work>
  </rdf:RDF>
 </metadata>
 <defs>
  <style type="text/css">*{stroke-linejoin: round; stroke-linecap: butt}</style>
 </defs>
 <g id="figure_1">
  <g id="patch_1">
   <path d="M 0 324 
L 144 324 
L 144 0 
L 0 0 
z
" style="fill: #ffffff"/>
  </g>
  <g id="axes_1">
   <g id="patch_2">
    <path d="M 21.6 291.6 
L 136.8 291.6 
L 136.8 16.2 
L 21.6 16.2 
z
" style="fill: #ffffff"/>
   </g>
   <g id="FillBetweenPolyCollection_1">
    <path d="M 48.039729 223.760572 
L 44.905726 223.760572 
L 44.703116 222.654742 
L 44.488109 221.548913 
L 44.259568 220.443083 
L 44.01601 219.337254 
L 43.755851 218.231424 
L 43.477735 217.125595 
L 43.180889 216.019765 
L 42.865443 214.913936 
L 42.532654 213.808106 
L 42.184977 212.702277 
L 41.825947 211.596447 
L 41.45987 210.490618 
L 41.091339 209.384788 
L 40.724653 208.278959 
L 40.363193 207.173129 
L 40.008878 206.0673 
L 39.661756 204.96147 
L 39.319833 203.855641 
L 38.979145 202.749811 
L 38.634083 201.643982 
L 38.277933 200.538152 
L 37.903535 199.432323 
L 37.503996 198.326493 
L 37.073336 197.220664 
L 36.607015 196.114834 
L 36.102278 195.009005 
L 35.55832 193.903175 
L 34.976291 192.797346 
L 34.359191 191.691516 
L 33.711716 190.585687 
L 33.04011 189.479857 
L 32.352046 188.374028 
L 31.656544 187.268198 
L 30.963906 186.162369 
L 30.285606 185.056539 
L 29.634098 183.95071 
L 29.022495 182.84488 
L 28.464094 181.739051 
L 27.971773 180.633221 
L 27.557294 179.527392 
L 27.230585 178.421562 
L 26.999096 177.315733 
L 26.867292 176.209903 
L 26.836364 175.104074 
L 26.90418 173.998244 
L 27.065485 172.892415 
L 27.312308 171.786585 
L 27.634531 170.680756 
L 28.020539 169.574926 
L 28.457886 168.469097 
L 28.933913 167.363267 
L 29.436295 166.257438 
L 29.953481 165.151609 
L 30.475064 164.045779 
L 30.99207 162.93995 
L 31.497213 161.83412 
L 31.985114 160.728291 
L 32.452475 159.622461 
L 32.8982 158.516632 
L 33.323394 157.410802 
L 33.731222 156.304973 
L 34.126574 155.199143 
L 34.515542 154.093314 
L 34.904725 152.987484 
L 35.30043 151.881655 
L 35.707864 150.775825 
L 36.130432 149.669996 
L 36.569241 148.564166 
L 37.022901 147.458337 
L 37.487662 146.352507 
L 37.957863 145.246678 
L 38.426654 144.140848 
L 38.886862 143.035019 
L 39.331875 141.929189 
L 39.756431 140.82336 
L 40.15717 139.71753 
L 40.532903 138.611701 
L 40.884559 137.505871 
L 41.214844 136.400042 
L 41.527673 135.294212 
L 41.827482 134.188383 
L 42.118533 133.082553 
L 42.404298 131.976724 
L 42.687029 130.870894 
L 42.967539 129.765065 
L 43.245217 128.659235 
L 43.518244 127.553406 
L 43.783965 126.447576 
L 44.039331 125.341747 
L 44.281362 124.235917 
L 44.507537 123.130088 
L 44.716087 122.024258 
L 44.906143 120.918429 
L 45.077758 119.812599 
L 45.231792 118.70677 
L 45.369727 117.60094 
L 45.493417 116.495111 
L 45.604844 115.389281 
L 45.705891 114.283452 
L 47.239564 114.283452 
L 47.239564 114.283452 
L 47.34061 115.389281 
L 47.452037 116.495111 
L 47.575728 117.60094 
L 47.713663 118.70677 
L 47.867697 119.812599 
L 48.039311 120.918429 
L 48.229368 122.024258 
L 48.437918 123.130088 
L 48.664093 124.235917 
L 48.906124 125.341747 
L 49.16149 126.447576 
L 49.42721 127.553406 
L 49.700238 128.659235 
L 49.977916 129.765065 
L 50.258426 130.870894 
L 50.541157 131.976724 
L 50.826922 133.082553 
L 51.117972 134.188383 
L 51.417782 135.294212 
L 51.730611 136.400042 
L 52.060896 137.505871 
L 52.412552 138.611701 
L 52.788285 139.71753 
L 53.189023 140.82336 
L 53.613579 141.929189 
L 54.058593 143.035019 
L 54.5188 144.140848 
L 54.987592 145.246678 
L 55.457793 146.352507 
L 55.922553 147.458337 
L 56.376214 148.564166 
L 56.815023 149.669996 
L 57.237591 150.775825 
L 57.645024 151.881655 
L 58.040729 152.987484 
L 58.429912 154.093314 
L 58.818881 155.199143 
L 59.214233 156.304973 
L 59.622061 157.410802 
L 60.047255 158.516632 
L 60.49298 159.622461 
L 60.960341 160.728291 
L 61.448241 161.83412 
L 61.953384 162.93995 
L 62.47039 164.045779 
L 62.991973 165.151609 
L 63.50916 166.257438 
L 64.011541 167.363267 
L 64.487569 168.469097 
L 64.924915 169.574926 
L 65.310924 170.680756 
L 65.633147 171.786585 
L 65.87997 172.892415 
L 66.041275 173.998244 
L 66.109091 175.104074 
L 66.078163 176.209903 
L 65.946358 177.315733 
L 65.714869 178.421562 
L 65.38816 179.527392 
L 64.973681 180.633221 
L 64.481361 181.739051 
L 63.92296 182.84488 
L 63.311356 183.95071 
L 62.659848 185.056539 
L 61.981548 186.162369 
L 61.28891 187.268198 
L 60.593409 188.374028 
L 59.905344 189.479857 
L 59.233739 190.585687 
L 58.586264 191.691516 
L 57.969164 192.797346 
L 57.387134 193.903175 
L 56.843176 195.009005 
L 56.338439 196.114834 
L 55.872118 197.220664 
L 55.441458 198.326493 
L 55.041919 199.432323 
L 54.667522 200.538152 
L 54.311371 201.643982 
L 53.96631 202.749811 
L 53.625621 203.855641 
L 53.283699 204.96147 
L 52.936577 206.0673 
L 52.582261 207.173129 
L 52.220802 208.278959 
L 51.854116 209.384788 
L 51.485585 210.490618 
L 51.119507 211.596447 
L 50.760478 212.702277 
L 50.412801 213.808106 
L 50.080012 214.913936 
L 49.764566 216.019765 
L 49.46772 217.125595 
L 49.189604 218.231424 
L 48.929445 219.337254 
L 48.685886 220.443083 
L 48.457345 221.548913 
L 48.242338 222.654742 
L 48.039729 223.760572 
L 48.039729 223.760572 
z
" clip-path="url(#p9d177647f8)" style="fill: none; stroke: #000000; stroke-opacity: 0.3"/>
   </g>
   <g id="FillBetweenPolyCollection_2">
    <path d="M 46.863138 294.231824 
L 46.082316 294.231824 
L 46.091111 291.996309 
L 46.116326 289.760794 
L 46.154703 287.525279 
L 46.20159 285.289765 
L 46.251863 283.05425 
L 46.300829 280.818735 
L 46.344899 278.58322 
L 46.381906 276.347705 
L 46.411074 274.112191 
L 46.432738 271.876676 
L 46.447945 269.641161 
L 46.458052 267.405646 
L 46.464421 265.170131 
L 46.468225 262.934617 
L 46.470369 260.699102 
L 46.471482 258.463587 
L 46.471946 256.228072 
L 46.471936 253.992557 
L 46.47143 251.757043 
L 46.4702 249.521528 
L 46.46775 247.286013 
L 46.463221 245.050498 
L 46.455262 242.814983 
L 46.441887 240.579469 
L 46.420353 238.343954 
L 46.38708 236.108439 
L 46.337643 233.872924 
L 46.266834 231.637409 
L 46.168725 229.401894 
L 46.036666 227.16638 
L 45.863082 224.930865 
L 45.63903 222.69535 
L 45.353557 220.459835 
L 44.993102 218.22432 
L 44.541355 215.988806 
L 43.980037 213.753291 
L 43.290977 211.517776 
L 42.459471 209.282261 
L 41.478448 207.046746 
L 40.35245 204.811232 
L 39.100233 202.575717 
L 37.754921 200.340202 
L 36.361258 198.104687 
L 34.970274 195.869172 
L 33.632487 193.633658 
L 32.39116 191.398143 
L 31.277136 189.162628 
L 30.30633 186.927113 
L 29.480252 184.691598 
L 28.789274 182.456084 
L 28.217775 180.220569 
L 27.749974 177.985054 
L 27.375181 175.749539 
L 27.091365 173.514024 
L 26.906328 171.278509 
L 26.836364 169.042995 
L 26.902874 166.80748 
L 27.127855 164.571965 
L 27.529316 162.33645 
L 28.117503 160.100935 
L 28.892418 157.865421 
L 29.842746 155.629906 
L 30.946022 153.394391 
L 32.169856 151.158876 
L 33.474071 148.923361 
L 34.813657 146.687847 
L 36.142378 144.452332 
L 37.416724 142.216817 
L 38.599683 139.981302 
L 39.663799 137.745787 
L 40.592976 135.510273 
L 41.382799 133.274758 
L 42.039351 131.039243 
L 42.576858 128.803728 
L 43.014593 126.568213 
L 43.373613 124.332699 
L 43.673792 122.097184 
L 43.931572 119.861669 
L 44.15865 117.626154 
L 44.361725 115.390639 
L 44.543205 113.155125 
L 44.702668 110.91961 
L 44.838694 108.684095 
L 44.950649 106.44858 
L 45.039983 104.213065 
L 45.110742 101.97755 
L 45.16918 99.742036 
L 45.222594 97.506521 
L 45.277754 95.271006 
L 45.339395 93.035491 
L 45.409264 90.799976 
L 45.486023 88.564462 
L 45.566035 86.328947 
L 45.644784 84.093432 
L 45.718419 81.857917 
L 45.784936 79.622402 
L 45.844605 77.386888 
L 45.899583 75.151373 
L 45.952923 72.915858 
L 46.992532 72.915858 
L 46.992532 72.915858 
L 47.045872 75.151373 
L 47.10085 77.386888 
L 47.160518 79.622402 
L 47.227035 81.857917 
L 47.300671 84.093432 
L 47.379419 86.328947 
L 47.459432 88.564462 
L 47.53619 90.799976 
L 47.60606 93.035491 
L 47.667701 95.271006 
L 47.72286 97.506521 
L 47.776275 99.742036 
L 47.834712 101.97755 
L 47.905472 104.213065 
L 47.994806 106.44858 
L 48.10676 108.684095 
L 48.242786 110.91961 
L 48.402249 113.155125 
L 48.58373 115.390639 
L 48.786805 117.626154 
L 49.013883 119.861669 
L 49.271662 122.097184 
L 49.571842 124.332699 
L 49.930861 126.568213 
L 50.368597 128.803728 
L 50.906103 131.039243 
L 51.562656 133.274758 
L 52.352478 135.510273 
L 53.281656 137.745787 
L 54.345771 139.981302 
L 55.528731 142.216817 
L 56.803076 144.452332 
L 58.131798 146.687847 
L 59.471383 148.923361 
L 60.775599 151.158876 
L 61.999433 153.394391 
L 63.102708 155.629906 
L 64.053036 157.865421 
L 64.827952 160.100935 
L 65.416138 162.33645 
L 65.8176 164.571965 
L 66.042581 166.80748 
L 66.109091 169.042995 
L 66.039126 171.278509 
L 65.854089 173.514024 
L 65.570274 175.749539 
L 65.195481 177.985054 
L 64.727679 180.220569 
L 64.15618 182.456084 
L 63.465203 184.691598 
L 62.639125 186.927113 
L 61.668318 189.162628 
L 60.554295 191.398143 
L 59.312967 193.633658 
L 57.975181 195.869172 
L 56.584197 198.104687 
L 55.190533 200.340202 
L 53.845221 202.575717 
L 52.593004 204.811232 
L 51.467007 207.046746 
L 50.485984 209.282261 
L 49.654478 211.517776 
L 48.965418 213.753291 
L 48.4041 215.988806 
L 47.952352 218.22432 
L 47.591898 220.459835 
L 47.306425 222.69535 
L 47.082373 224.930865 
L 46.908789 227.16638 
L 46.776729 229.401894 
L 46.678621 231.637409 
L 46.607811 233.872924 
L 46.558375 236.108439 
L 46.525101 238.343954 
L 46.503568 240.579469 
L 46.490193 242.814983 
L 46.482234 245.050498 
L 46.477705 247.286013 
L 46.475255 249.521528 
L 46.474025 251.757043 
L 46.473519 253.992557 
L 46.473508 256.228072 
L 46.473973 258.463587 
L 46.475086 260.699102 
L 46.47723 262.934617 
L 46.481034 265.170131 
L 46.487402 267.405646 
L 46.497509 269.641161 
L 46.512716 271.876676 
L 46.534381 274.112191 
L 46.563549 276.347705 
L 46.600555 278.58322 
L 46.644626 280.818735 
L 46.693592 283.05425 
L 46.743864 285.289765 
L 46.790751 287.525279 
L 46.829128 289.760794 
L 46.854343 291.996309 
L 46.863138 294.231824 
L 46.863138 294.231824 
z
" clip-path="url(#p9d177647f8)" style="fill: none; stroke: #000000; stroke-opacity: 0.3"/>
   </g>
   <g id="FillBetweenPolyCollection_3">
    <path d="M 46.784755 266.609067 
L 46.160699 266.609067 
L 46.162665 265.090201 
L 46.173299 263.571335 
L 46.190103 262.052469 
L 46.209696 260.533603 
L 46.228351 259.014738 
L 46.242606 257.495872 
L 46.24983 255.977006 
L 46.248647 254.45814 
L 46.239143 252.939275 
L 46.222812 251.420409 
L 46.202253 249.901543 
L 46.180668 248.382677 
L 46.161229 246.863812 
L 46.146445 245.344946 
L 46.137642 243.82608 
L 46.134663 242.307214 
L 46.135846 240.788348 
L 46.138291 239.269483 
L 46.138349 237.750617 
L 46.132208 236.231751 
L 46.116452 234.712885 
L 46.088461 233.19402 
L 46.04657 231.675154 
L 45.989973 230.156288 
L 45.918431 228.637422 
L 45.831857 227.118557 
L 45.729886 225.599691 
L 45.611508 224.080825 
L 45.47481 222.561959 
L 45.316797 221.043093 
L 45.13329 219.524228 
L 44.91886 218.005362 
L 44.666814 216.486496 
L 44.369266 214.96763 
L 44.017371 213.448765 
L 43.601772 211.929899 
L 43.113261 210.411033 
L 42.543594 208.892167 
L 41.886334 207.373302 
L 41.137589 205.854436 
L 40.296545 204.33557 
L 39.365794 202.816704 
L 38.351519 201.297838 
L 37.26366 199.778973 
L 36.116141 198.260107 
L 34.927134 196.741241 
L 33.719242 195.222375 
L 32.519386 193.70351 
L 31.358176 192.184644 
L 30.268651 190.665778 
L 29.284379 189.146912 
L 28.437048 187.628047 
L 27.753771 186.109181 
L 27.254382 184.590315 
L 26.949015 183.071449 
L 26.836364 181.552584 
L 26.903002 180.033718 
L 27.124193 178.514852 
L 27.466438 176.995986 
L 27.891722 175.47712 
L 28.362921 173.958255 
L 28.849404 172.439389 
L 29.331559 170.920523 
L 29.803031 169.401657 
L 30.269943 167.882792 
L 30.747155 166.363926 
L 31.252454 164.84506 
L 31.800232 163.326194 
L 32.396406 161.807329 
L 33.03596 160.288463 
L 33.703765 158.769597 
L 34.378318 157.250731 
L 35.037239 155.731865 
L 35.662875 154.213 
L 36.246432 152.694134 
L 36.789575 151.175268 
L 37.303192 149.656402 
L 37.803857 148.137537 
L 38.309081 146.618671 
L 38.832664 145.099805 
L 39.381303 143.580939 
L 39.953149 142.062074 
L 40.538425 140.543208 
L 41.121717 139.024342 
L 41.685207 137.505476 
L 42.212011 135.98661 
L 42.688931 134.467745 
L 43.108159 132.948879 
L 43.467802 131.430013 
L 43.771359 129.911147 
L 44.026439 128.392282 
L 44.243097 126.873416 
L 44.432147 125.35455 
L 44.603692 123.835684 
L 44.76605 122.316819 
L 44.92513 120.797953 
L 45.084221 119.279087 
L 45.244151 117.760221 
L 45.403707 116.241355 
L 47.541747 116.241355 
L 47.541747 116.241355 
L 47.701303 117.760221 
L 47.861234 119.279087 
L 48.020325 120.797953 
L 48.179404 122.316819 
L 48.341763 123.835684 
L 48.513307 125.35455 
L 48.702357 126.873416 
L 48.919016 128.392282 
L 49.174095 129.911147 
L 49.477652 131.430013 
L 49.837296 132.948879 
L 50.256523 134.467745 
L 50.733444 135.98661 
L 51.260248 137.505476 
L 51.823737 139.024342 
L 52.407029 140.543208 
L 52.992305 142.062074 
L 53.564151 143.580939 
L 54.112791 145.099805 
L 54.636373 146.618671 
L 55.141597 148.137537 
L 55.642263 149.656402 
L 56.15588 151.175268 
L 56.699022 152.694134 
L 57.28258 154.213 
L 57.908215 155.731865 
L 58.567137 157.250731 
L 59.24169 158.769597 
L 59.909494 160.288463 
L 60.549048 161.807329 
L 61.145222 163.326194 
L 61.693001 164.84506 
L 62.198299 166.363926 
L 62.675511 167.882792 
L 63.142423 169.401657 
L 63.613895 170.920523 
L 64.096051 172.439389 
L 64.582534 173.958255 
L 65.053732 175.47712 
L 65.479016 176.995986 
L 65.821262 178.514852 
L 66.042453 180.033718 
L 66.109091 181.552584 
L 65.99644 183.071449 
L 65.691073 184.590315 
L 65.191683 186.109181 
L 64.508407 187.628047 
L 63.661075 189.146912 
L 62.676803 190.665778 
L 61.587278 192.184644 
L 60.426068 193.70351 
L 59.226212 195.222375 
L 58.018321 196.741241 
L 56.829313 198.260107 
L 55.681794 199.778973 
L 54.593936 201.297838 
L 53.579661 202.816704 
L 52.648909 204.33557 
L 51.807866 205.854436 
L 51.05912 207.373302 
L 50.40186 208.892167 
L 49.832193 210.411033 
L 49.343682 211.929899 
L 48.928083 213.448765 
L 48.576188 214.96763 
L 48.27864 216.486496 
L 48.026594 218.005362 
L 47.812165 219.524228 
L 47.628657 221.043093 
L 47.470644 222.561959 
L 47.333946 224.080825 
L 47.215569 225.599691 
L 47.113597 227.118557 
L 47.027023 228.637422 
L 46.955482 230.156288 
L 46.898885 231.675154 
L 46.856993 233.19402 
L 46.829002 234.712885 
L 46.813247 236.231751 
L 46.807105 237.750617 
L 46.807163 239.269483 
L 46.809609 240.788348 
L 46.810792 242.307214 
L 46.807813 243.82608 
L 46.79901 245.344946 
L 46.784226 246.863812 
L 46.764786 248.382677 
L 46.743201 249.901543 
L 46.722643 251.420409 
L 46.706311 252.939275 
L 46.696807 254.45814 
L 46.695625 255.977006 
L 46.702849 257.495872 
L 46.717104 259.014738 
L 46.735759 260.533603 
L 46.755352 262.052469 
L 46.772156 263.571335 
L 46.782789 265.090201 
L 46.784755 266.609067 
L 46.784755 266.609067 
z
" clip-path="url(#p9d177647f8)" style="fill: none; stroke: #000000; stroke-opacity: 0.3"/>
   </g>
   <g id="FillBetweenPolyCollection_4">
    <path d="M 46.752517 242.382839 
L 46.192937 242.382839 
L 46.195548 241.093519 
L 46.205941 239.804199 
L 46.222135 238.514878 
L 46.241332 237.225558 
L 46.260267 235.936238 
L 46.275599 234.646917 
L 46.284294 233.357597 
L 46.283923 232.068277 
L 46.272828 230.778957 
L 46.250152 229.489636 
L 46.215715 228.200316 
L 46.169763 226.910996 
L 46.112618 225.621675 
L 46.044296 224.332355 
L 45.964124 223.043035 
L 45.870447 221.753714 
L 45.760452 220.464394 
L 45.630157 219.175074 
L 45.474554 217.885754 
L 45.287894 216.596433 
L 45.064079 215.307113 
L 44.797118 214.017793 
L 44.481641 212.728472 
L 44.113446 211.439152 
L 43.690105 210.149832 
L 43.211574 208.860512 
L 42.680781 207.571191 
L 42.104046 206.281871 
L 41.491191 204.992551 
L 40.855159 203.70323 
L 40.211048 202.41391 
L 39.574554 201.12459 
L 38.959968 199.83527 
L 38.37804 198.545949 
L 37.834097 197.256629 
L 37.326822 195.967309 
L 36.848023 194.677988 
L 36.383546 193.388668 
L 35.915278 192.099348 
L 35.42399 190.810028 
L 34.892584 189.520707 
L 34.309246 188.231387 
L 33.669985 186.942067 
L 32.980111 185.652746 
L 32.254385 184.363426 
L 31.515724 183.074106 
L 30.792596 181.784786 
L 30.115398 180.495465 
L 29.51231 179.206145 
L 29.005207 177.916825 
L 28.606265 176.627504 
L 28.315857 175.338184 
L 28.122189 174.048864 
L 28.002924 172.759544 
L 27.928682 171.470223 
L 27.867986 170.180903 
L 27.79284 168.891583 
L 27.683966 167.602262 
L 27.53467 166.312942 
L 27.352529 165.023622 
L 27.15853 163.734301 
L 26.983793 162.444981 
L 26.864545 161.155661 
L 26.836364 159.866341 
L 26.928823 158.57702 
L 27.16153 157.2877 
L 27.542163 155.99838 
L 28.066663 154.709059 
L 28.721226 153.419739 
L 29.485448 152.130419 
L 30.335812 150.841099 
L 31.248762 149.551778 
L 32.202873 148.262458 
L 33.179909 146.973138 
L 34.164882 145.683817 
L 35.14542 144.394497 
L 36.110865 143.105177 
L 37.05144 141.815857 
L 37.957738 140.526536 
L 38.820595 139.237216 
L 39.631299 137.947896 
L 40.382004 136.658575 
L 41.066233 135.369255 
L 41.679364 134.079935 
L 42.219056 132.790615 
L 42.685572 131.501294 
L 43.081971 130.211974 
L 43.414096 128.922654 
L 43.690297 127.633333 
L 43.920847 126.344013 
L 44.117066 125.054693 
L 44.290262 123.765373 
L 44.45064 122.476052 
L 44.606384 121.186732 
L 44.763058 119.897412 
L 44.923423 118.608091 
L 45.087653 117.318771 
L 45.253855 116.029451 
L 45.418777 114.74013 
L 47.526677 114.74013 
L 47.526677 114.74013 
L 47.691599 116.029451 
L 47.857802 117.318771 
L 48.022031 118.608091 
L 48.182397 119.897412 
L 48.339071 121.186732 
L 48.494814 122.476052 
L 48.655192 123.765373 
L 48.828388 125.054693 
L 49.024608 126.344013 
L 49.255157 127.633333 
L 49.531358 128.922654 
L 49.863484 130.211974 
L 50.259883 131.501294 
L 50.726399 132.790615 
L 51.266091 134.079935 
L 51.879222 135.369255 
L 52.563451 136.658575 
L 53.314156 137.947896 
L 54.12486 139.237216 
L 54.987717 140.526536 
L 55.894015 141.815857 
L 56.83459 143.105177 
L 57.800034 144.394497 
L 58.780573 145.683817 
L 59.765545 146.973138 
L 60.742581 148.262458 
L 61.696692 149.551778 
L 62.609642 150.841099 
L 63.460006 152.130419 
L 64.224229 153.419739 
L 64.878791 154.709059 
L 65.403291 155.99838 
L 65.783925 157.2877 
L 66.016631 158.57702 
L 66.109091 159.866341 
L 66.08091 161.155661 
L 65.961662 162.444981 
L 65.786924 163.734301 
L 65.592925 165.023622 
L 65.410785 166.312942 
L 65.261488 167.602262 
L 65.152615 168.891583 
L 65.077469 170.180903 
L 65.016772 171.470223 
L 64.942531 172.759544 
L 64.823265 174.048864 
L 64.629597 175.338184 
L 64.339189 176.627504 
L 63.940248 177.916825 
L 63.433145 179.206145 
L 62.830057 180.495465 
L 62.152859 181.784786 
L 61.429731 183.074106 
L 60.69107 184.363426 
L 59.965343 185.652746 
L 59.275469 186.942067 
L 58.636208 188.231387 
L 58.052871 189.520707 
L 57.521465 190.810028 
L 57.030176 192.099348 
L 56.561909 193.388668 
L 56.097432 194.677988 
L 55.618633 195.967309 
L 55.111358 197.256629 
L 54.567414 198.545949 
L 53.985486 199.83527 
L 53.3709 201.12459 
L 52.734406 202.41391 
L 52.090296 203.70323 
L 51.454263 204.992551 
L 50.841408 206.281871 
L 50.264674 207.571191 
L 49.733881 208.860512 
L 49.25535 210.149832 
L 48.832008 211.439152 
L 48.463814 212.728472 
L 48.148336 214.017793 
L 47.881376 215.307113 
L 47.657561 216.596433 
L 47.470901 217.885754 
L 47.315297 219.175074 
L 47.185002 220.464394 
L 47.075008 221.753714 
L 46.98133 223.043035 
L 46.901159 224.332355 
L 46.832836 225.621675 
L 46.775692 226.910996 
L 46.729739 228.200316 
L 46.695302 229.489636 
L 46.672626 230.778957 
L 46.661531 232.068277 
L 46.66116 233.357597 
L 46.669856 234.646917 
L 46.685188 235.936238 
L 46.704122 237.225558 
L 46.72332 238.514878 
L 46.739513 239.804199 
L 46.749906 241.093519 
L 46.752517 242.382839 
L 46.752517 242.382839 
z
" clip-path="url(#p9d177647f8)" style="fill: none; stroke: #000000; stroke-opacity: 0.3"/>
   </g>
   <g id="FillBetweenPolyCollection_5">
    <path d="M 48.133834 221.033567 
L 44.811621 221.033567 
L 44.595027 219.948978 
L 44.362301 218.864388 
L 44.113838 217.779799 
L 43.850596 216.69521 
L 43.574162 215.61062 
L 43.286725 214.526031 
L 42.990938 213.441442 
L 42.689675 212.356852 
L 42.385704 211.272263 
L 42.081314 210.187674 
L 41.777953 209.103085 
L 41.47594 208.018495 
L 41.174313 206.933906 
L 40.870827 205.849317 
L 40.562157 204.764727 
L 40.244249 203.680138 
L 39.912814 202.595549 
L 39.563875 201.510959 
L 39.194305 200.42637 
L 38.802264 199.341781 
L 38.387483 198.257191 
L 37.951328 197.172602 
L 37.496648 196.088013 
L 37.027394 195.003423 
L 36.548085 193.918834 
L 36.063167 192.834245 
L 35.576369 191.749655 
L 35.090156 190.665066 
L 34.605348 189.580477 
L 34.120999 188.495887 
L 33.634557 187.411298 
L 33.142318 186.326709 
L 32.640129 185.242119 
L 32.12428 184.15753 
L 31.592459 183.072941 
L 31.044669 181.988351 
L 30.483977 180.903762 
L 29.916973 179.819173 
L 29.35388 178.734583 
L 28.808237 177.649994 
L 28.296194 176.565405 
L 27.835443 175.480815 
L 27.443887 174.396226 
L 27.138189 173.311637 
L 26.932333 172.227047 
L 26.836364 171.142458 
L 26.855434 170.057869 
L 26.989279 168.97328 
L 27.232169 167.88869 
L 27.57335 166.804101 
L 27.997937 165.719512 
L 28.488154 164.634922 
L 29.024792 163.550333 
L 29.588728 162.465744 
L 30.162361 161.381154 
L 30.730796 160.296565 
L 31.282695 159.211976 
L 31.810709 158.127386 
L 32.311496 157.042797 
L 32.785332 155.958208 
L 33.235425 154.873618 
L 33.667006 153.789029 
L 34.086351 152.70444 
L 34.499827 151.61985 
L 34.913086 150.535261 
L 35.33048 149.450672 
L 35.754724 148.366082 
L 36.186844 147.281493 
L 36.626334 146.196904 
L 37.071512 145.112314 
L 37.51996 144.027725 
L 37.968992 142.943136 
L 38.416068 141.858546 
L 38.859097 140.773957 
L 39.296598 139.689368 
L 39.727707 138.604778 
L 40.152051 137.520189 
L 40.569521 136.4356 
L 40.980007 135.35101 
L 41.383127 134.266421 
L 41.778023 133.181832 
L 42.163247 132.097242 
L 42.53675 131.012653 
L 42.895997 129.928064 
L 43.238167 128.843475 
L 43.560415 127.758885 
L 43.860162 126.674296 
L 44.135365 125.589707 
L 44.384728 124.505117 
L 44.607842 123.420528 
L 44.805222 122.335939 
L 44.978257 121.251349 
L 45.129077 120.16676 
L 45.26035 119.082171 
L 45.375058 117.997581 
L 45.476254 116.912992 
L 45.566842 115.828403 
L 45.649396 114.743813 
L 45.726026 113.659224 
L 47.219429 113.659224 
L 47.219429 113.659224 
L 47.296059 114.743813 
L 47.378612 115.828403 
L 47.4692 116.912992 
L 47.570396 117.997581 
L 47.685105 119.082171 
L 47.816378 120.16676 
L 47.967197 121.251349 
L 48.140233 122.335939 
L 48.337613 123.420528 
L 48.560726 124.505117 
L 48.81009 125.589707 
L 49.085292 126.674296 
L 49.38504 127.758885 
L 49.707288 128.843475 
L 50.049458 129.928064 
L 50.408705 131.012653 
L 50.782208 132.097242 
L 51.167431 133.181832 
L 51.562328 134.266421 
L 51.965448 135.35101 
L 52.375934 136.4356 
L 52.793404 137.520189 
L 53.217747 138.604778 
L 53.648857 139.689368 
L 54.086358 140.773957 
L 54.529387 141.858546 
L 54.976463 142.943136 
L 55.425494 144.027725 
L 55.873942 145.112314 
L 56.31912 146.196904 
L 56.758611 147.281493 
L 57.19073 148.366082 
L 57.614975 149.450672 
L 58.032368 150.535261 
L 58.445628 151.61985 
L 58.859104 152.70444 
L 59.278449 153.789029 
L 59.71003 154.873618 
L 60.160122 155.958208 
L 60.633959 157.042797 
L 61.134745 158.127386 
L 61.66276 159.211976 
L 62.214658 160.296565 
L 62.783093 161.381154 
L 63.356726 162.465744 
L 63.920663 163.550333 
L 64.4573 164.634922 
L 64.947517 165.719512 
L 65.372105 166.804101 
L 65.713286 167.88869 
L 65.956176 168.97328 
L 66.090021 170.057869 
L 66.109091 171.142458 
L 66.013121 172.227047 
L 65.807266 173.311637 
L 65.501568 174.396226 
L 65.110012 175.480815 
L 64.64926 176.565405 
L 64.137218 177.649994 
L 63.591575 178.734583 
L 63.028481 179.819173 
L 62.461478 180.903762 
L 61.900785 181.988351 
L 61.352996 183.072941 
L 60.821174 184.15753 
L 60.305325 185.242119 
L 59.803137 186.326709 
L 59.310897 187.411298 
L 58.824455 188.495887 
L 58.340106 189.580477 
L 57.855299 190.665066 
L 57.369086 191.749655 
L 56.882288 192.834245 
L 56.397369 193.918834 
L 55.91806 195.003423 
L 55.448807 196.088013 
L 54.994126 197.172602 
L 54.557972 198.257191 
L 54.14319 199.341781 
L 53.75115 200.42637 
L 53.381579 201.510959 
L 53.032641 202.595549 
L 52.701206 203.680138 
L 52.383298 204.764727 
L 52.074627 205.849317 
L 51.771142 206.933906 
L 51.469514 208.018495 
L 51.167502 209.103085 
L 50.86414 210.187674 
L 50.55975 211.272263 
L 50.25578 212.356852 
L 49.954517 213.441442 
L 49.65873 214.526031 
L 49.371293 215.61062 
L 49.094859 216.69521 
L 48.831617 217.779799 
L 48.583153 218.864388 
L 48.350428 219.948978 
L 48.133834 221.033567 
L 48.133834 221.033567 
z
" clip-path="url(#p9d177647f8)" style="fill: none; stroke: #000000; stroke-opacity: 0.3"/>
   </g>
   <g id="FillBetweenPolyCollection_6">
    <path d="M 47.060688 240.03451 
L 45.884767 240.03451 
L 45.88026 238.795369 
L 45.881533 237.556229 
L 45.88683 236.317088 
L 45.893788 235.077947 
L 45.899531 233.838807 
L 45.900789 232.599666 
L 45.894043 231.360526 
L 45.875681 230.121385 
L 45.842153 228.882245 
L 45.790106 227.643104 
L 45.716496 226.403963 
L 45.618663 225.164823 
L 45.494362 223.925682 
L 45.341745 222.686542 
L 45.159311 221.447401 
L 44.945803 220.208261 
L 44.700096 218.96912 
L 44.421072 217.729979 
L 44.107511 216.490839 
L 43.758017 215.251698 
L 43.371012 214.012558 
L 42.944793 212.773417 
L 42.477676 211.534277 
L 41.968218 210.295136 
L 41.415492 209.055995 
L 40.819396 207.816855 
L 40.18096 206.577714 
L 39.502596 205.338574 
L 38.788263 204.099433 
L 38.043506 202.860292 
L 37.275358 201.621152 
L 36.492098 200.382011 
L 35.702873 199.142871 
L 34.917237 197.90373 
L 34.144627 196.66459 
L 33.393857 195.425449 
L 32.672652 194.186308 
L 31.987303 192.947168 
L 31.342444 191.708027 
L 30.741003 190.468887 
L 30.184304 189.229746 
L 29.672324 187.990606 
L 29.204063 186.751465 
L 28.777993 185.512324 
L 28.392536 184.273184 
L 28.046521 183.034043 
L 27.739572 181.794903 
L 27.472387 180.555762 
L 27.24687 179.316622 
L 27.066114 178.077481 
L 26.934217 176.83834 
L 26.85596 175.5992 
L 26.836364 174.360059 
L 26.880177 173.120919 
L 26.991345 171.881778 
L 27.172506 170.642638 
L 27.424569 169.403497 
L 27.746417 168.164356 
L 28.134768 166.925216 
L 28.584192 165.686075 
L 29.087302 164.446935 
L 29.635084 163.207794 
L 30.217339 161.968654 
L 30.8232 160.729513 
L 31.441664 159.490372 
L 32.062117 158.251232 
L 32.674784 157.012091 
L 33.271101 155.772951 
L 33.843961 154.53381 
L 34.387855 153.29467 
L 34.898889 152.055529 
L 35.374716 150.816388 
L 35.814382 149.577248 
L 36.218145 148.338107 
L 36.587271 147.098967 
L 36.923848 145.859826 
L 37.230627 144.620686 
L 37.51091 143.381545 
L 37.768466 142.142404 
L 38.007476 140.903264 
L 38.232489 139.664123 
L 38.448359 138.424983 
L 38.660152 137.185842 
L 38.873012 135.946702 
L 39.09197 134.707561 
L 39.321723 133.46842 
L 39.566381 132.22928 
L 39.829213 130.990139 
L 40.112427 129.750999 
L 40.417002 128.511858 
L 40.742592 127.272717 
L 41.087526 126.033577 
L 41.448904 124.794436 
L 41.822773 123.555296 
L 42.204377 122.316155 
L 42.588452 121.077015 
L 42.969535 119.837874 
L 43.342277 118.598733 
L 43.701705 117.359593 
L 49.243749 117.359593 
L 49.243749 117.359593 
L 49.603178 118.598733 
L 49.975919 119.837874 
L 50.357003 121.077015 
L 50.741077 122.316155 
L 51.122681 123.555296 
L 51.496551 124.794436 
L 51.857929 126.033577 
L 52.202863 127.272717 
L 52.528452 128.511858 
L 52.833027 129.750999 
L 53.116242 130.990139 
L 53.379074 132.22928 
L 53.623731 133.46842 
L 53.853484 134.707561 
L 54.072443 135.946702 
L 54.285302 137.185842 
L 54.497096 138.424983 
L 54.712966 139.664123 
L 54.937979 140.903264 
L 55.176989 142.142404 
L 55.434544 143.381545 
L 55.714827 144.620686 
L 56.021607 145.859826 
L 56.358183 147.098967 
L 56.727309 148.338107 
L 57.131072 149.577248 
L 57.570739 150.816388 
L 58.046565 152.055529 
L 58.5576 153.29467 
L 59.101493 154.53381 
L 59.674353 155.772951 
L 60.27067 157.012091 
L 60.883338 158.251232 
L 61.503791 159.490372 
L 62.122255 160.729513 
L 62.728115 161.968654 
L 63.310371 163.207794 
L 63.858152 164.446935 
L 64.361262 165.686075 
L 64.810686 166.925216 
L 65.199037 168.164356 
L 65.520886 169.403497 
L 65.772949 170.642638 
L 65.954109 171.881778 
L 66.065278 173.120919 
L 66.109091 174.360059 
L 66.089494 175.5992 
L 66.011237 176.83834 
L 65.879341 178.077481 
L 65.698585 179.316622 
L 65.473068 180.555762 
L 65.205882 181.794903 
L 64.898934 183.034043 
L 64.552919 184.273184 
L 64.167461 185.512324 
L 63.741391 186.751465 
L 63.273131 187.990606 
L 62.761151 189.229746 
L 62.204452 190.468887 
L 61.603011 191.708027 
L 60.958152 192.947168 
L 60.272802 194.186308 
L 59.551598 195.425449 
L 58.800828 196.66459 
L 58.028218 197.90373 
L 57.242581 199.142871 
L 56.453357 200.382011 
L 55.670096 201.621152 
L 54.901949 202.860292 
L 54.157192 204.099433 
L 53.442858 205.338574 
L 52.764495 206.577714 
L 52.126059 207.816855 
L 51.529963 209.055995 
L 50.977236 210.295136 
L 50.467778 211.534277 
L 50.000662 212.773417 
L 49.574443 214.012558 
L 49.187438 215.251698 
L 48.837944 216.490839 
L 48.524382 217.729979 
L 48.245359 218.96912 
L 47.999652 220.208261 
L 47.786144 221.447401 
L 47.603709 222.686542 
L 47.451093 223.925682 
L 47.326791 225.164823 
L 47.228958 226.403963 
L 47.155348 227.643104 
L 47.103301 228.882245 
L 47.069773 230.121385 
L 47.051411 231.360526 
L 47.044665 232.599666 
L 47.045923 233.838807 
L 47.051666 235.077947 
L 47.058625 236.317088 
L 47.063921 237.556229 
L 47.065195 238.795369 
L 47.060688 240.03451 
L 47.060688 240.03451 
z
" clip-path="url(#p9d177647f8)" style="fill: none; stroke: #000000; stroke-opacity: 0.3"/>
   </g>
   <g id="FillBetweenPolyCollection_7">
    <path d="M 50.633725 218.74762 
L 42.31173 218.74762 
L 41.976611 217.883603 
L 41.639943 217.019587 
L 41.302566 216.15557 
L 40.964801 215.291553 
L 40.626455 214.427537 
L 40.286849 213.56352 
L 39.944886 212.699504 
L 39.59914 211.835487 
L 39.247963 210.97147 
L 38.889597 210.107454 
L 38.522289 209.243437 
L 38.144401 208.37942 
L 37.754497 207.515404 
L 37.351424 206.651387 
L 36.934362 205.78737 
L 36.502865 204.923354 
L 36.056884 204.059337 
L 35.596767 203.19532 
L 35.123264 202.331304 
L 34.637517 201.467287 
L 34.141052 200.603271 
L 33.635773 199.739254 
L 33.123949 198.875237 
L 32.608215 198.011221 
L 32.091557 197.147204 
L 31.577308 196.283187 
L 31.069122 195.419171 
L 30.570946 194.555154 
L 30.086976 193.691137 
L 29.621591 192.827121 
L 29.179274 191.963104 
L 28.764506 191.099088 
L 28.38165 190.235071 
L 28.034808 189.371054 
L 27.727678 188.507038 
L 27.463396 187.643021 
L 27.244379 186.779004 
L 27.072179 185.914988 
L 26.947347 185.050971 
L 26.869323 184.186954 
L 26.836364 183.322938 
L 26.845496 182.458921 
L 26.892533 181.594904 
L 26.972135 180.730888 
L 27.07793 179.866871 
L 27.202694 179.002855 
L 27.338586 178.138838 
L 27.477434 177.274821 
L 27.611069 176.410805 
L 27.731678 175.546788 
L 27.832176 174.682771 
L 27.906566 173.818755 
L 27.950272 172.954738 
L 27.96042 172.090721 
L 27.936049 171.226705 
L 27.878235 170.362688 
L 27.790117 169.498671 
L 27.676815 168.634655 
L 27.545252 167.770638 
L 27.403872 166.906622 
L 27.262281 166.042605 
L 27.130825 165.178588 
L 27.02013 164.314572 
L 26.940631 163.450555 
L 26.902117 162.586538 
L 26.913314 161.722522 
L 26.981534 160.858505 
L 27.112398 159.994488 
L 27.309658 159.130472 
L 27.575104 158.266455 
L 27.908575 157.402439 
L 28.308056 156.538422 
L 28.769845 155.674405 
L 29.288787 154.810389 
L 29.858552 153.946372 
L 30.471928 153.082355 
L 31.12113 152.218339 
L 31.798097 151.354322 
L 32.494762 150.490305 
L 33.203292 149.626289 
L 33.91629 148.762272 
L 34.626949 147.898255 
L 35.329169 147.034239 
L 36.017632 146.170222 
L 36.68784 145.306206 
L 37.336122 144.442189 
L 37.95962 143.578172 
L 38.55625 142.714156 
L 39.124646 141.850139 
L 39.664098 140.986122 
L 40.174475 140.122106 
L 40.656137 139.258089 
L 41.109852 138.394072 
L 41.5367 137.530056 
L 41.93798 136.666039 
L 42.31512 135.802022 
L 42.669586 134.938006 
L 43.002812 134.073989 
L 43.31613 133.209973 
L 49.629325 133.209973 
L 49.629325 133.209973 
L 49.942643 134.073989 
L 50.275869 134.938006 
L 50.630335 135.802022 
L 51.007474 136.666039 
L 51.408754 137.530056 
L 51.835602 138.394072 
L 52.289318 139.258089 
L 52.77098 140.122106 
L 53.281356 140.986122 
L 53.820809 141.850139 
L 54.389205 142.714156 
L 54.985834 143.578172 
L 55.609333 144.442189 
L 56.257615 145.306206 
L 56.927823 146.170222 
L 57.616286 147.034239 
L 58.318506 147.898255 
L 59.029165 148.762272 
L 59.742162 149.626289 
L 60.450693 150.490305 
L 61.147357 151.354322 
L 61.824325 152.218339 
L 62.473527 153.082355 
L 63.086903 153.946372 
L 63.656667 154.810389 
L 64.17561 155.674405 
L 64.637399 156.538422 
L 65.036879 157.402439 
L 65.370351 158.266455 
L 65.635797 159.130472 
L 65.833056 159.994488 
L 65.963921 160.858505 
L 66.032141 161.722522 
L 66.043338 162.586538 
L 66.004824 163.450555 
L 65.925325 164.314572 
L 65.814629 165.178588 
L 65.683173 166.042605 
L 65.541582 166.906622 
L 65.400202 167.770638 
L 65.26864 168.634655 
L 65.155338 169.498671 
L 65.067219 170.362688 
L 65.009405 171.226705 
L 64.985035 172.090721 
L 64.995183 172.954738 
L 65.038889 173.818755 
L 65.113279 174.682771 
L 65.213776 175.546788 
L 65.334385 176.410805 
L 65.46802 177.274821 
L 65.606869 178.138838 
L 65.742761 179.002855 
L 65.867525 179.866871 
L 65.97332 180.730888 
L 66.052922 181.594904 
L 66.099959 182.458921 
L 66.109091 183.322938 
L 66.076131 184.186954 
L 65.998108 185.050971 
L 65.873276 185.914988 
L 65.701075 186.779004 
L 65.482058 187.643021 
L 65.217776 188.507038 
L 64.910647 189.371054 
L 64.563805 190.235071 
L 64.180948 191.099088 
L 63.766181 191.963104 
L 63.323864 192.827121 
L 62.858479 193.691137 
L 62.374509 194.555154 
L 61.876333 195.419171 
L 61.368146 196.283187 
L 60.853897 197.147204 
L 60.33724 198.011221 
L 59.821505 198.875237 
L 59.309682 199.739254 
L 58.804402 200.603271 
L 58.307938 201.467287 
L 57.822191 202.331304 
L 57.348688 203.19532 
L 56.88857 204.059337 
L 56.442589 204.923354 
L 56.011093 205.78737 
L 55.594031 206.651387 
L 55.190957 207.515404 
L 54.801053 208.37942 
L 54.423165 209.243437 
L 54.055858 210.107454 
L 53.697491 210.97147 
L 53.346314 211.835487 
L 53.000569 212.699504 
L 52.658606 213.56352 
L 52.319 214.427537 
L 51.980653 215.291553 
L 51.642889 216.15557 
L 51.305511 217.019587 
L 50.968843 217.883603 
L 50.633725 218.74762 
L 50.633725 218.74762 
z
" clip-path="url(#p9d177647f8)" style="fill: none; stroke: #000000; stroke-opacity: 0.3"/>
   </g>
   <g id="FillBetweenPolyCollection_8">
    <path d="M 115.218231 181.860561 
L 108.636315 181.860561 
L 108.489362 181.128594 
L 108.339434 180.396626 
L 108.186191 179.664659 
L 108.029279 178.932691 
L 107.868342 178.200724 
L 107.703041 177.468757 
L 107.53307 176.736789 
L 107.358169 176.004822 
L 107.178144 175.272855 
L 106.992877 174.540887 
L 106.802337 173.80892 
L 106.606594 173.076953 
L 106.40582 172.344985 
L 106.200292 171.613018 
L 105.990394 170.88105 
L 105.77661 170.149083 
L 105.559517 169.417116 
L 105.339771 168.685148 
L 105.118095 167.953181 
L 104.895258 167.221214 
L 104.672058 166.489246 
L 104.449296 165.757279 
L 104.227757 165.025312 
L 104.008185 164.293344 
L 103.791259 163.561377 
L 103.57757 162.82941 
L 103.367605 162.097442 
L 103.161725 161.365475 
L 102.96015 160.633507 
L 102.762948 159.90154 
L 102.570029 159.169573 
L 102.381136 158.437605 
L 102.195851 157.705638 
L 102.013593 156.973671 
L 101.833632 156.241703 
L 101.655099 155.509736 
L 101.477001 154.777769 
L 101.298243 154.045801 
L 101.117649 153.313834 
L 100.933988 152.581867 
L 100.745999 151.849899 
L 100.552424 151.117932 
L 100.352033 150.385964 
L 100.143655 149.653997 
L 99.92621 148.92203 
L 99.698737 148.190062 
L 99.460422 147.458095 
L 99.210626 146.726128 
L 98.948907 145.99416 
L 98.675047 145.262193 
L 98.389067 144.530226 
L 98.091248 143.798258 
L 97.782142 143.066291 
L 97.462581 142.334324 
L 97.133686 141.602356 
L 96.796866 140.870389 
L 96.453815 140.138421 
L 96.106508 139.406454 
L 95.757184 138.674487 
L 95.408333 137.942519 
L 95.06267 137.210552 
L 94.723113 136.478585 
L 94.392747 135.746617 
L 94.07479 135.01465 
L 93.772552 134.282683 
L 93.489391 133.550715 
L 93.228665 132.818748 
L 92.993686 132.08678 
L 92.787665 131.354813 
L 92.61366 130.622846 
L 92.474529 129.890878 
L 92.372879 129.158911 
L 92.311016 128.426944 
L 92.290909 127.694976 
L 92.314145 126.963009 
L 92.381901 126.231042 
L 92.494919 125.499074 
L 92.653487 124.767107 
L 92.857433 124.03514 
L 93.10612 123.303172 
L 93.398454 122.571205 
L 93.732905 121.839237 
L 94.107525 121.10727 
L 94.519984 120.375303 
L 94.967603 119.643335 
L 95.447404 118.911368 
L 95.956153 118.179401 
L 96.490414 117.447433 
L 97.046601 116.715466 
L 97.621031 115.983499 
L 98.20998 115.251531 
L 98.809734 114.519564 
L 99.416632 113.787597 
L 100.027121 113.055629 
L 100.637786 112.323662 
L 101.245391 111.591694 
L 101.846908 110.859727 
L 102.439537 110.12776 
L 103.020728 109.395792 
L 120.833817 109.395792 
L 120.833817 109.395792 
L 121.415009 110.12776 
L 122.007638 110.859727 
L 122.609154 111.591694 
L 123.21676 112.323662 
L 123.827425 113.055629 
L 124.437913 113.787597 
L 125.044812 114.519564 
L 125.644565 115.251531 
L 126.233515 115.983499 
L 126.807945 116.715466 
L 127.364131 117.447433 
L 127.898392 118.179401 
L 128.407142 118.911368 
L 128.886943 119.643335 
L 129.334562 120.375303 
L 129.74702 121.10727 
L 130.12164 121.839237 
L 130.456091 122.571205 
L 130.748426 123.303172 
L 130.997112 124.03514 
L 131.201058 124.767107 
L 131.359627 125.499074 
L 131.472645 126.231042 
L 131.540401 126.963009 
L 131.563636 127.694976 
L 131.543529 128.426944 
L 131.481667 129.158911 
L 131.380017 129.890878 
L 131.240886 130.622846 
L 131.066881 131.354813 
L 130.860859 132.08678 
L 130.62588 132.818748 
L 130.365155 133.550715 
L 130.081994 134.282683 
L 129.779755 135.01465 
L 129.461798 135.746617 
L 129.131432 136.478585 
L 128.791875 137.210552 
L 128.446212 137.942519 
L 128.097361 138.674487 
L 127.748037 139.406454 
L 127.40073 140.138421 
L 127.05768 140.870389 
L 126.72086 141.602356 
L 126.391965 142.334324 
L 126.072404 143.066291 
L 125.763298 143.798258 
L 125.465479 144.530226 
L 125.179499 145.262193 
L 124.905639 145.99416 
L 124.64392 146.726128 
L 124.394123 147.458095 
L 124.155809 148.190062 
L 123.928336 148.92203 
L 123.710891 149.653997 
L 123.502513 150.385964 
L 123.302121 151.117932 
L 123.108546 151.849899 
L 122.920558 152.581867 
L 122.736897 153.313834 
L 122.556303 154.045801 
L 122.377545 154.777769 
L 122.199447 155.509736 
L 122.020913 156.241703 
L 121.840953 156.973671 
L 121.658695 157.705638 
L 121.473409 158.437605 
L 121.284517 159.169573 
L 121.091597 159.90154 
L 120.894396 160.633507 
L 120.69282 161.365475 
L 120.48694 162.097442 
L 120.276975 162.82941 
L 120.063287 163.561377 
L 119.84636 164.293344 
L 119.626788 165.025312 
L 119.40525 165.757279 
L 119.182488 166.489246 
L 118.959287 167.221214 
L 118.736451 167.953181 
L 118.514775 168.685148 
L 118.295029 169.417116 
L 118.077936 170.149083 
L 117.864152 170.88105 
L 117.654254 171.613018 
L 117.448726 172.344985 
L 117.247951 173.076953 
L 117.052208 173.80892 
L 116.861669 174.540887 
L 116.676401 175.272855 
L 116.496376 176.004822 
L 116.321476 176.736789 
L 116.151504 177.468757 
L 115.986204 178.200724 
L 115.825267 178.932691 
L 115.668354 179.664659 
L 115.515112 180.396626 
L 115.365184 181.128594 
L 115.218231 181.860561 
L 115.218231 181.860561 
z
" clip-path="url(#p9d177647f8)" style="fill: none; stroke: #000000; stroke-opacity: 0.3"/>
   </g>
   <g id="FillBetweenPolyCollection_9">
    <path d="M 114.237998 191.82367 
L 109.616547 191.82367 
L 109.482633 190.876583 
L 109.346733 189.929497 
L 109.208258 188.98241 
L 109.066451 188.035323 
L 108.920395 187.088236 
L 108.769038 186.141149 
L 108.611215 185.194062 
L 108.445679 184.246975 
L 108.271133 183.299889 
L 108.086256 182.352802 
L 107.889743 181.405715 
L 107.68033 180.458628 
L 107.456824 179.511541 
L 107.218135 178.564454 
L 106.963291 177.617367 
L 106.69147 176.67028 
L 106.402016 175.723194 
L 106.094454 174.776107 
L 105.768516 173.82902 
L 105.42415 172.881933 
L 105.061544 171.934846 
L 104.681137 170.987759 
L 104.283637 170.040672 
L 103.870038 169.093586 
L 103.441626 168.146499 
L 102.999991 167.199412 
L 102.547027 166.252325 
L 102.084924 165.305238 
L 101.616153 164.358151 
L 101.143435 163.411064 
L 100.669702 162.463978 
L 100.19804 161.516891 
L 99.731622 160.569804 
L 99.273631 159.622717 
L 98.827169 158.67563 
L 98.395166 157.728543 
L 97.980285 156.781456 
L 97.584833 155.834369 
L 97.210675 154.887283 
L 96.85917 153.940196 
L 96.531119 152.993109 
L 96.22674 152.046022 
L 95.945661 151.098935 
L 95.686947 150.151848 
L 95.449145 149.204761 
L 95.230361 148.257675 
L 95.028347 147.310588 
L 94.840616 146.363501 
L 94.664558 145.416414 
L 94.497565 144.469327 
L 94.337159 143.52224 
L 94.181106 142.575153 
L 94.027519 141.628067 
L 93.874954 140.68098 
L 93.722474 139.733893 
L 93.569699 138.786806 
L 93.416832 137.839719 
L 93.264662 136.892632 
L 93.114547 135.945545 
L 92.968377 134.998458 
L 92.828523 134.051372 
L 92.697764 133.104285 
L 92.579215 132.157198 
L 92.47624 131.210111 
L 92.39236 130.263024 
L 92.33116 129.315937 
L 92.296197 128.36885 
L 92.290909 127.421764 
L 92.318531 126.474677 
L 92.382011 125.52759 
L 92.48394 124.580503 
L 92.626486 123.633416 
L 92.811338 122.686329 
L 93.039665 121.739242 
L 93.312082 120.792155 
L 93.628626 119.845069 
L 93.988751 118.897982 
L 94.391325 117.950895 
L 94.834652 117.003808 
L 95.316493 116.056721 
L 95.834105 115.109634 
L 96.384287 114.162547 
L 96.96344 113.215461 
L 97.567628 112.268374 
L 98.19265 111.321287 
L 98.834117 110.3742 
L 99.487526 109.427113 
L 100.148343 108.480026 
L 100.81208 107.532939 
L 101.474368 106.585853 
L 102.131028 105.638766 
L 102.778131 104.691679 
L 103.412056 103.744592 
L 104.029529 102.797505 
L 104.627657 101.850418 
L 105.203953 100.903331 
L 105.756341 99.956244 
L 106.283162 99.009158 
L 106.783158 98.062071 
L 117.071387 98.062071 
L 117.071387 98.062071 
L 117.571383 99.009158 
L 118.098204 99.956244 
L 118.650592 100.903331 
L 119.226888 101.850418 
L 119.825016 102.797505 
L 120.442489 103.744592 
L 121.076414 104.691679 
L 121.723518 105.638766 
L 122.380178 106.585853 
L 123.042466 107.532939 
L 123.706203 108.480026 
L 124.36702 109.427113 
L 125.020429 110.3742 
L 125.661895 111.321287 
L 126.286918 112.268374 
L 126.891105 113.215461 
L 127.470258 114.162547 
L 128.020441 115.109634 
L 128.538052 116.056721 
L 129.019893 117.003808 
L 129.46322 117.950895 
L 129.865795 118.897982 
L 130.225919 119.845069 
L 130.542464 120.792155 
L 130.81488 121.739242 
L 131.043208 122.686329 
L 131.22806 123.633416 
L 131.370605 124.580503 
L 131.472534 125.52759 
L 131.536014 126.474677 
L 131.563636 127.421764 
L 131.558349 128.36885 
L 131.523386 129.315937 
L 131.462185 130.263024 
L 131.378305 131.210111 
L 131.27533 132.157198 
L 131.156782 133.104285 
L 131.026023 134.051372 
L 130.886168 134.998458 
L 130.739999 135.945545 
L 130.589884 136.892632 
L 130.437714 137.839719 
L 130.284846 138.786806 
L 130.132071 139.733893 
L 129.979591 140.68098 
L 129.827026 141.628067 
L 129.67344 142.575153 
L 129.517386 143.52224 
L 129.35698 144.469327 
L 129.189988 145.416414 
L 129.013929 146.363501 
L 128.826198 147.310588 
L 128.624185 148.257675 
L 128.4054 149.204761 
L 128.167599 150.151848 
L 127.908884 151.098935 
L 127.627805 152.046022 
L 127.323426 152.993109 
L 126.995376 153.940196 
L 126.64387 154.887283 
L 126.269712 155.834369 
L 125.87426 156.781456 
L 125.45938 157.728543 
L 125.027377 158.67563 
L 124.580915 159.622717 
L 124.122923 160.569804 
L 123.656506 161.516891 
L 123.184843 162.463978 
L 122.71111 163.411064 
L 122.238393 164.358151 
L 121.769622 165.305238 
L 121.307519 166.252325 
L 120.854555 167.199412 
L 120.41292 168.146499 
L 119.984507 169.093586 
L 119.570908 170.040672 
L 119.173409 170.987759 
L 118.793002 171.934846 
L 118.430395 172.881933 
L 118.08603 173.82902 
L 117.760091 174.776107 
L 117.45253 175.723194 
L 117.163075 176.67028 
L 116.891254 177.617367 
L 116.636411 178.564454 
L 116.397721 179.511541 
L 116.174216 180.458628 
L 115.964802 181.405715 
L 115.768289 182.352802 
L 115.583413 183.299889 
L 115.408866 184.246975 
L 115.243331 185.194062 
L 115.085508 186.141149 
L 114.93415 187.088236 
L 114.788094 188.035323 
L 114.646287 188.98241 
L 114.507813 189.929497 
L 114.371912 190.876583 
L 114.237998 191.82367 
L 114.237998 191.82367 
z
" clip-path="url(#p9d177647f8)" style="fill: none; stroke: #000000; stroke-opacity: 0.3"/>
   </g>
   <g id="FillBetweenPolyCollection_10">
    <path d="M 123.991745 150.250079 
L 99.8628 150.250079 
L 99.160272 149.422612 
L 98.475089 148.595145 
L 97.812204 147.767678 
L 97.176183 146.940211 
L 96.571125 146.112743 
L 96.000597 145.285276 
L 95.467585 144.457809 
L 94.974461 143.630342 
L 94.522974 142.802874 
L 94.114257 141.975407 
L 93.748856 141.14794 
L 93.426776 140.320473 
L 93.14754 139.493006 
L 92.910271 138.665538 
L 92.713772 137.838071 
L 92.556626 137.010604 
L 92.437292 136.183137 
L 92.354204 135.35567 
L 92.305861 134.528202 
L 92.290909 133.700735 
L 92.308211 132.873268 
L 92.356898 132.045801 
L 92.4364 131.218333 
L 92.546453 130.390866 
L 92.68709 129.563399 
L 92.858606 128.735932 
L 93.0615 127.908465 
L 93.296408 127.080997 
L 93.564015 126.25353 
L 93.864969 125.426063 
L 94.19978 124.598596 
L 94.568732 123.771129 
L 94.971794 122.943661 
L 95.408555 122.116194 
L 95.878161 121.288727 
L 96.37928 120.46126 
L 96.910089 119.633792 
L 97.46827 118.806325 
L 98.051043 117.978858 
L 98.655204 117.151391 
L 99.277185 116.323924 
L 99.913125 115.496456 
L 100.558947 114.668989 
L 101.210449 113.841522 
L 101.863383 113.014055 
L 102.513545 112.186588 
L 103.15685 111.35912 
L 103.789405 110.531653 
L 104.407571 109.704186 
L 105.008017 108.876719 
L 105.587759 108.049251 
L 106.144191 107.221784 
L 106.675103 106.394317 
L 107.178696 105.56685 
L 107.653574 104.739383 
L 108.098741 103.911915 
L 108.513584 103.084448 
L 108.897851 102.256981 
L 109.251622 101.429514 
L 109.575278 100.602047 
L 109.869465 99.774579 
L 110.135059 98.947112 
L 110.37312 98.119645 
L 110.584861 97.292178 
L 110.7716 96.46471 
L 110.934726 95.637243 
L 111.075663 94.809776 
L 111.195837 93.982309 
L 111.296644 93.154842 
L 111.379429 92.327374 
L 111.445466 91.499907 
L 111.495943 90.67244 
L 111.531958 89.844973 
L 111.554513 89.017506 
L 111.564521 88.190038 
L 111.562814 87.362571 
L 111.550161 86.535104 
L 111.527281 85.707637 
L 111.494871 84.880169 
L 111.453622 84.052702 
L 111.404251 83.225235 
L 111.347516 82.397768 
L 111.284242 81.570301 
L 111.215336 80.742833 
L 111.141799 79.915366 
L 111.064732 79.087899 
L 110.985336 78.260432 
L 110.904903 77.432965 
L 110.824804 76.605497 
L 110.746463 75.77803 
L 110.671333 74.950563 
L 110.600859 74.123096 
L 110.536445 73.295628 
L 110.479412 72.468161 
L 110.430959 71.640694 
L 110.392129 70.813227 
L 110.363771 69.98576 
L 110.346516 69.158292 
L 110.340753 68.330825 
L 113.513792 68.330825 
L 113.513792 68.330825 
L 113.508029 69.158292 
L 113.490774 69.98576 
L 113.462417 70.813227 
L 113.423586 71.640694 
L 113.375134 72.468161 
L 113.3181 73.295628 
L 113.253686 74.123096 
L 113.183212 74.950563 
L 113.108082 75.77803 
L 113.029742 76.605497 
L 112.949642 77.432965 
L 112.86921 78.260432 
L 112.789814 79.087899 
L 112.712746 79.915366 
L 112.639209 80.742833 
L 112.570303 81.570301 
L 112.50703 82.397768 
L 112.450295 83.225235 
L 112.400923 84.052702 
L 112.359675 84.880169 
L 112.327264 85.707637 
L 112.304385 86.535104 
L 112.291731 87.362571 
L 112.290025 88.190038 
L 112.300032 89.017506 
L 112.322587 89.844973 
L 112.358602 90.67244 
L 112.40908 91.499907 
L 112.475117 92.327374 
L 112.557902 93.154842 
L 112.658709 93.982309 
L 112.778882 94.809776 
L 112.91982 95.637243 
L 113.082946 96.46471 
L 113.269685 97.292178 
L 113.481425 98.119645 
L 113.719487 98.947112 
L 113.98508 99.774579 
L 114.279268 100.602047 
L 114.602924 101.429514 
L 114.956694 102.256981 
L 115.340961 103.084448 
L 115.755805 103.911915 
L 116.200972 104.739383 
L 116.67585 105.56685 
L 117.179442 106.394317 
L 117.710355 107.221784 
L 118.266786 108.049251 
L 118.846528 108.876719 
L 119.446974 109.704186 
L 120.065141 110.531653 
L 120.697696 111.35912 
L 121.341 112.186588 
L 121.991163 113.014055 
L 122.644097 113.841522 
L 123.295599 114.668989 
L 123.941421 115.496456 
L 124.57736 116.323924 
L 125.199341 117.151391 
L 125.803503 117.978858 
L 126.386276 118.806325 
L 126.944457 119.633792 
L 127.475265 120.46126 
L 127.976385 121.288727 
L 128.44599 122.116194 
L 128.882751 122.943661 
L 129.285814 123.771129 
L 129.654765 124.598596 
L 129.989576 125.426063 
L 130.29053 126.25353 
L 130.558138 127.080997 
L 130.793045 127.908465 
L 130.995939 128.735932 
L 131.167455 129.563399 
L 131.308093 130.390866 
L 131.418146 131.218333 
L 131.497647 132.045801 
L 131.546334 132.873268 
L 131.563636 133.700735 
L 131.548684 134.528202 
L 131.500341 135.35567 
L 131.417253 136.183137 
L 131.29792 137.010604 
L 131.140774 137.838071 
L 130.944275 138.665538 
L 130.707005 139.493006 
L 130.42777 140.320473 
L 130.10569 141.14794 
L 129.740289 141.975407 
L 129.331572 142.802874 
L 128.880084 143.630342 
L 128.38696 144.457809 
L 127.853948 145.285276 
L 127.283421 146.112743 
L 126.678363 146.940211 
L 126.042341 147.767678 
L 125.379456 148.595145 
L 124.694273 149.422612 
L 123.991745 150.250079 
L 123.991745 150.250079 
z
" clip-path="url(#p9d177647f8)" style="fill: none; stroke: #000000; stroke-opacity: 0.3"/>
   </g>
   <g id="FillBetweenPolyCollection_11">
    <path d="M 115.977835 171.355896 
L 107.876711 171.355896 
L 107.634914 170.67414 
L 107.398614 169.992384 
L 107.168791 169.310627 
L 106.946083 168.628871 
L 106.73077 167.947115 
L 106.522763 167.265359 
L 106.321617 166.583602 
L 106.126556 165.901846 
L 105.936509 165.22009 
L 105.750163 164.538334 
L 105.566019 163.856577 
L 105.382454 163.174821 
L 105.197787 162.493065 
L 105.010337 161.811309 
L 104.818486 161.129552 
L 104.620724 160.447796 
L 104.41569 159.76604 
L 104.202204 159.084284 
L 103.979288 158.402527 
L 103.746171 157.720771 
L 103.502296 157.039015 
L 103.247314 156.357259 
L 102.981071 155.675502 
L 102.703597 154.993746 
L 102.415094 154.31199 
L 102.115921 153.630234 
L 101.806582 152.948477 
L 101.487721 152.266721 
L 101.160106 151.584965 
L 100.824631 150.903209 
L 100.482301 150.221452 
L 100.134227 149.539696 
L 99.78161 148.85794 
L 99.425723 148.176184 
L 99.067885 147.494427 
L 98.709431 146.812671 
L 98.351681 146.130915 
L 97.995895 145.449159 
L 97.643239 144.767402 
L 97.294747 144.085646 
L 96.951295 143.40389 
L 96.613585 142.722134 
L 96.282141 142.040377 
L 95.957326 141.358621 
L 95.639376 140.676865 
L 95.328458 139.995109 
L 95.024736 139.313352 
L 94.72846 138.631596 
L 94.440061 137.94984 
L 94.160244 137.268084 
L 93.890081 136.586327 
L 93.631087 135.904571 
L 93.385274 135.222815 
L 93.155183 134.541059 
L 92.943877 133.859302 
L 92.754905 133.177546 
L 92.59222 132.49579 
L 92.460079 131.814034 
L 92.362899 131.132277 
L 92.305095 130.450521 
L 92.290909 129.768765 
L 92.324229 129.087009 
L 92.408413 128.405252 
L 92.54613 127.723496 
L 92.739225 127.04174 
L 92.988616 126.359983 
L 93.294221 125.678227 
L 93.654932 124.996471 
L 94.068629 124.314715 
L 94.532224 123.632958 
L 95.041751 122.951202 
L 95.59248 122.269446 
L 96.179054 121.58769 
L 96.795646 120.905933 
L 97.436122 120.224177 
L 98.094203 119.542421 
L 98.763631 118.860665 
L 99.43831 118.178908 
L 100.112442 117.497152 
L 100.78064 116.815396 
L 101.438015 116.13364 
L 102.080249 115.451883 
L 102.703634 114.770127 
L 103.3051 114.088371 
L 103.882215 113.406615 
L 104.43317 112.724858 
L 104.956748 112.043102 
L 105.452282 111.361346 
L 105.919598 110.67959 
L 106.358957 109.997833 
L 106.770991 109.316077 
L 107.156633 108.634321 
L 107.517052 107.952565 
L 107.853585 107.270808 
L 108.16768 106.589052 
L 108.460834 105.907296 
L 108.734548 105.22554 
L 108.99028 104.543783 
L 109.229411 103.862027 
L 114.625134 103.862027 
L 114.625134 103.862027 
L 114.864265 104.543783 
L 115.119997 105.22554 
L 115.393711 105.907296 
L 115.686866 106.589052 
L 116.00096 107.270808 
L 116.337494 107.952565 
L 116.697913 108.634321 
L 117.083555 109.316077 
L 117.495589 109.997833 
L 117.934948 110.67959 
L 118.402263 111.361346 
L 118.897797 112.043102 
L 119.421375 112.724858 
L 119.972331 113.406615 
L 120.549446 114.088371 
L 121.150912 114.770127 
L 121.774297 115.451883 
L 122.41653 116.13364 
L 123.073906 116.815396 
L 123.742103 117.497152 
L 124.416235 118.178908 
L 125.090914 118.860665 
L 125.760342 119.542421 
L 126.418424 120.224177 
L 127.058899 120.905933 
L 127.675491 121.58769 
L 128.262065 122.269446 
L 128.812794 122.951202 
L 129.322321 123.632958 
L 129.785916 124.314715 
L 130.199613 124.996471 
L 130.560325 125.678227 
L 130.865929 126.359983 
L 131.11532 127.04174 
L 131.308416 127.723496 
L 131.446133 128.405252 
L 131.530316 129.087009 
L 131.563636 129.768765 
L 131.549451 130.450521 
L 131.491647 131.132277 
L 131.394466 131.814034 
L 131.262325 132.49579 
L 131.099641 133.177546 
L 130.910668 133.859302 
L 130.699363 134.541059 
L 130.469272 135.222815 
L 130.223459 135.904571 
L 129.964464 136.586327 
L 129.694302 137.268084 
L 129.414485 137.94984 
L 129.126086 138.631596 
L 128.82981 139.313352 
L 128.526088 139.995109 
L 128.215169 140.676865 
L 127.89722 141.358621 
L 127.572404 142.040377 
L 127.24096 142.722134 
L 126.903251 143.40389 
L 126.559799 144.085646 
L 126.211307 144.767402 
L 125.85865 145.449159 
L 125.502864 146.130915 
L 125.145114 146.812671 
L 124.786661 147.494427 
L 124.428822 148.176184 
L 124.072935 148.85794 
L 123.720318 149.539696 
L 123.372244 150.221452 
L 123.029915 150.903209 
L 122.694439 151.584965 
L 122.366825 152.266721 
L 122.047963 152.948477 
L 121.738625 153.630234 
L 121.439452 154.31199 
L 121.150949 154.993746 
L 120.873475 155.675502 
L 120.607232 156.357259 
L 120.352249 157.039015 
L 120.108375 157.720771 
L 119.875258 158.402527 
L 119.652341 159.084284 
L 119.438856 159.76604 
L 119.233821 160.447796 
L 119.036059 161.129552 
L 118.844208 161.811309 
L 118.656759 162.493065 
L 118.472091 163.174821 
L 118.288527 163.856577 
L 118.104383 164.538334 
L 117.918037 165.22009 
L 117.72799 165.901846 
L 117.532928 166.583602 
L 117.331782 167.265359 
L 117.123775 167.947115 
L 116.908462 168.628871 
L 116.685755 169.310627 
L 116.455931 169.992384 
L 116.219632 170.67414 
L 115.977835 171.355896 
L 115.977835 171.355896 
z
" clip-path="url(#p9d177647f8)" style="fill: none; stroke: #000000; stroke-opacity: 0.3"/>
   </g>
   <g id="FillBetweenPolyCollection_12">
    <path d="M 112.865638 209.640858 
L 110.988907 209.640858 
L 110.948296 208.53431 
L 110.918697 207.427763 
L 110.899726 206.321215 
L 110.890239 205.214668 
L 110.888442 204.10812 
L 110.892058 203.001573 
L 110.898541 201.895026 
L 110.905302 200.788478 
L 110.909928 199.681931 
L 110.910375 198.575383 
L 110.905111 197.468836 
L 110.893201 196.362288 
L 110.874346 195.255741 
L 110.848852 194.149194 
L 110.817563 193.042646 
L 110.781745 191.936099 
L 110.742947 190.829551 
L 110.702832 189.723004 
L 110.663002 188.616456 
L 110.624819 187.509909 
L 110.589237 186.403361 
L 110.556661 185.296814 
L 110.526842 184.190267 
L 110.498819 183.083719 
L 110.470924 181.977172 
L 110.440832 180.870624 
L 110.405664 179.764077 
L 110.36212 178.657529 
L 110.30663 177.550982 
L 110.235502 176.444435 
L 110.145048 175.337887 
L 110.031685 174.23134 
L 109.892005 173.124792 
L 109.722813 172.018245 
L 109.521158 170.911697 
L 109.284352 169.80515 
L 109.010001 168.698603 
L 108.696054 167.592055 
L 108.340866 166.485508 
L 107.943286 165.37896 
L 107.502745 164.272413 
L 107.019354 163.165865 
L 106.49398 162.059318 
L 105.928302 160.95277 
L 105.324829 159.846223 
L 104.686879 158.739676 
L 104.018512 157.633128 
L 103.324413 156.526581 
L 102.609737 155.420033 
L 101.879918 154.313486 
L 101.140474 153.206938 
L 100.39681 152.100391 
L 99.654063 150.993844 
L 98.91702 149.887296 
L 98.190114 148.780749 
L 97.477539 147.674201 
L 96.783468 146.567654 
L 96.112354 145.461106 
L 95.469287 144.354559 
L 94.860321 143.248011 
L 94.292736 142.141464 
L 93.775125 141.034917 
L 93.317291 139.928369 
L 92.929895 138.821822 
L 92.623873 137.715274 
L 92.409672 136.608727 
L 92.29639 135.502179 
L 92.290909 134.395632 
L 92.39717 133.289085 
L 92.615667 132.182537 
L 92.943253 131.07599 
L 93.373284 129.969442 
L 93.896086 128.862895 
L 94.499679 127.756347 
L 95.170663 126.6498 
L 95.895137 125.543253 
L 96.659549 124.436705 
L 97.451374 123.330158 
L 98.259556 122.22361 
L 99.07471 121.117063 
L 99.889086 120.010515 
L 100.696373 118.903968 
L 101.491384 117.79742 
L 102.269728 116.690873 
L 103.027517 115.584326 
L 103.761151 114.477778 
L 104.467225 113.371231 
L 105.14253 112.264683 
L 105.784139 111.158136 
L 106.38955 110.051588 
L 106.956829 108.945041 
L 107.484736 107.838494 
L 107.972796 106.731946 
L 108.42131 105.625399 
L 108.831289 104.518851 
L 109.204341 103.412304 
L 109.542511 102.305756 
L 109.848108 101.199209 
L 110.123537 100.092662 
L 113.731008 100.092662 
L 113.731008 100.092662 
L 114.006438 101.199209 
L 114.312035 102.305756 
L 114.650205 103.412304 
L 115.023256 104.518851 
L 115.433235 105.625399 
L 115.881749 106.731946 
L 116.36981 107.838494 
L 116.897716 108.945041 
L 117.464995 110.051588 
L 118.070406 111.158136 
L 118.712016 112.264683 
L 119.38732 113.371231 
L 120.093395 114.477778 
L 120.827029 115.584326 
L 121.584817 116.690873 
L 122.363162 117.79742 
L 123.158173 118.903968 
L 123.965459 120.010515 
L 124.779836 121.117063 
L 125.594989 122.22361 
L 126.403171 123.330158 
L 127.194996 124.436705 
L 127.959409 125.543253 
L 128.683883 126.6498 
L 129.354867 127.756347 
L 129.95846 128.862895 
L 130.481262 129.969442 
L 130.911292 131.07599 
L 131.238878 132.182537 
L 131.457375 133.289085 
L 131.563636 134.395632 
L 131.558156 135.502179 
L 131.444873 136.608727 
L 131.230673 137.715274 
L 130.92465 138.821822 
L 130.537254 139.928369 
L 130.079421 141.034917 
L 129.56181 142.141464 
L 128.994224 143.248011 
L 128.385259 144.354559 
L 127.742191 145.461106 
L 127.071078 146.567654 
L 126.377006 147.674201 
L 125.664431 148.780749 
L 124.937525 149.887296 
L 124.200482 150.993844 
L 123.457736 152.100391 
L 122.714071 153.206938 
L 121.974627 154.313486 
L 121.244809 155.420033 
L 120.530132 156.526581 
L 119.836033 157.633128 
L 119.167667 158.739676 
L 118.529717 159.846223 
L 117.926243 160.95277 
L 117.360565 162.059318 
L 116.835191 163.165865 
L 116.351801 164.272413 
L 115.91126 165.37896 
L 115.513679 166.485508 
L 115.158491 167.592055 
L 114.844544 168.698603 
L 114.570194 169.80515 
L 114.333387 170.911697 
L 114.131732 172.018245 
L 113.962541 173.124792 
L 113.82286 174.23134 
L 113.709498 175.337887 
L 113.619044 176.444435 
L 113.547915 177.550982 
L 113.492426 178.657529 
L 113.448881 179.764077 
L 113.413713 180.870624 
L 113.383621 181.977172 
L 113.355727 183.083719 
L 113.327704 184.190267 
L 113.297884 185.296814 
L 113.265308 186.403361 
L 113.229726 187.509909 
L 113.191543 188.616456 
L 113.151713 189.723004 
L 113.111598 190.829551 
L 113.0728 191.936099 
L 113.036982 193.042646 
L 113.005693 194.149194 
L 112.980199 195.255741 
L 112.961344 196.362288 
L 112.949435 197.468836 
L 112.94417 198.575383 
L 112.944618 199.681931 
L 112.949244 200.788478 
L 112.956005 201.895026 
L 112.962488 203.001573 
L 112.966104 204.10812 
L 112.964306 205.214668 
L 112.954819 206.321215 
L 112.935848 207.427763 
L 112.90625 208.53431 
L 112.865638 209.640858 
L 112.865638 209.640858 
z
" clip-path="url(#p9d177647f8)" style="fill: none; stroke: #000000; stroke-opacity: 0.3"/>
   </g>
   <g id="FillBetweenPolyCollection_13">
    <path d="M 113.366234 179.515958 
L 110.488311 179.515958 
L 110.325791 178.484976 
L 110.152513 177.453994 
L 109.968106 176.423012 
L 109.77227 175.39203 
L 109.564784 174.361048 
L 109.345473 173.330066 
L 109.114145 172.299084 
L 108.870492 171.268102 
L 108.613983 170.23712 
L 108.34375 169.206138 
L 108.058512 168.175156 
L 107.756541 167.144174 
L 107.435702 166.113192 
L 107.093559 165.082209 
L 106.727559 164.051227 
L 106.335261 163.020245 
L 105.914603 161.989263 
L 105.464153 160.958281 
L 104.983324 159.927299 
L 104.47252 158.896317 
L 103.933189 157.865335 
L 103.367785 156.834353 
L 102.779634 155.803371 
L 102.172736 154.772389 
L 101.551525 153.741407 
L 100.920625 152.710425 
L 100.28463 151.679443 
L 99.647943 150.64846 
L 99.014675 149.617478 
L 98.388622 148.586496 
L 97.773297 147.555514 
L 97.172017 146.524532 
L 96.588008 145.49355 
L 96.024511 144.462568 
L 95.484873 143.431586 
L 94.97262 142.400604 
L 94.491488 141.369622 
L 94.04545 140.33864 
L 93.638713 139.307658 
L 93.275726 138.276676 
L 92.961193 137.245694 
L 92.700079 136.214711 
L 92.497626 135.183729 
L 92.359335 134.152747 
L 92.290909 133.121765 
L 92.298126 132.090783 
L 92.386625 131.059801 
L 92.561598 130.028819 
L 92.827402 128.997837 
L 93.187108 127.966855 
L 93.642038 126.935873 
L 94.191339 125.904891 
L 94.831646 124.873909 
L 95.556897 123.842927 
L 96.358325 122.811945 
L 97.224659 121.780962 
L 98.142513 120.74998 
L 99.096956 119.718998 
L 100.072178 118.688016 
L 101.052235 117.657034 
L 102.021757 116.626052 
L 102.966597 115.59507 
L 103.874338 114.564088 
L 104.734649 113.533106 
L 105.539462 112.502124 
L 106.282988 111.471142 
L 106.961595 110.44016 
L 107.573575 109.409178 
L 108.118866 108.378196 
L 108.598736 107.347213 
L 109.015496 106.316231 
L 109.372239 105.285249 
L 109.672633 104.254267 
L 109.920764 103.223285 
L 110.121026 102.192303 
L 110.278037 101.161321 
L 110.39658 100.130339 
L 110.481536 99.099357 
L 110.537823 98.068375 
L 110.570318 97.037393 
L 110.583768 96.006411 
L 110.582697 94.975429 
L 110.571321 93.944447 
L 110.553463 92.913465 
L 110.532499 91.882482 
L 110.511321 90.8515 
L 110.492335 89.820518 
L 110.477476 88.789536 
L 110.468253 87.758554 
L 110.4658 86.727572 
L 110.470938 85.69659 
L 110.484229 84.665608 
L 110.506021 83.634626 
L 110.536479 82.603644 
L 110.575597 81.572662 
L 110.623197 80.54168 
L 110.678914 79.510698 
L 110.742181 78.479716 
L 110.812214 77.448733 
L 113.042332 77.448733 
L 113.042332 77.448733 
L 113.112364 78.479716 
L 113.175631 79.510698 
L 113.231348 80.54168 
L 113.278948 81.572662 
L 113.318066 82.603644 
L 113.348524 83.634626 
L 113.370317 84.665608 
L 113.383607 85.69659 
L 113.388746 86.727572 
L 113.386293 87.758554 
L 113.37707 88.789536 
L 113.362211 89.820518 
L 113.343225 90.8515 
L 113.322047 91.882482 
L 113.301082 92.913465 
L 113.283224 93.944447 
L 113.271848 94.975429 
L 113.270778 96.006411 
L 113.284227 97.037393 
L 113.316722 98.068375 
L 113.373009 99.099357 
L 113.457965 100.130339 
L 113.576508 101.161321 
L 113.73352 102.192303 
L 113.933782 103.223285 
L 114.181913 104.254267 
L 114.482306 105.285249 
L 114.839049 106.316231 
L 115.255809 107.347213 
L 115.73568 108.378196 
L 116.28097 109.409178 
L 116.892951 110.44016 
L 117.571557 111.471142 
L 118.315084 112.502124 
L 119.119897 113.533106 
L 119.980208 114.564088 
L 120.887948 115.59507 
L 121.832788 116.626052 
L 122.80231 117.657034 
L 123.782367 118.688016 
L 124.75759 119.718998 
L 125.712032 120.74998 
L 126.629887 121.780962 
L 127.49622 122.811945 
L 128.297648 123.842927 
L 129.022899 124.873909 
L 129.663207 125.904891 
L 130.212508 126.935873 
L 130.667438 127.966855 
L 131.027144 128.997837 
L 131.292947 130.028819 
L 131.46792 131.059801 
L 131.556419 132.090783 
L 131.563636 133.121765 
L 131.49521 134.152747 
L 131.356919 135.183729 
L 131.154466 136.214711 
L 130.893352 137.245694 
L 130.578819 138.276676 
L 130.215833 139.307658 
L 129.809095 140.33864 
L 129.363057 141.369622 
L 128.881926 142.400604 
L 128.369672 143.431586 
L 127.830035 144.462568 
L 127.266537 145.49355 
L 126.682528 146.524532 
L 126.081249 147.555514 
L 125.465924 148.586496 
L 124.83987 149.617478 
L 124.206602 150.64846 
L 123.569915 151.679443 
L 122.933921 152.710425 
L 122.30302 153.741407 
L 121.681809 154.772389 
L 121.074911 155.803371 
L 120.48676 156.834353 
L 119.921357 157.865335 
L 119.382026 158.896317 
L 118.871222 159.927299 
L 118.390393 160.958281 
L 117.939942 161.989263 
L 117.519285 163.020245 
L 117.126987 164.051227 
L 116.760986 165.082209 
L 116.418843 166.113192 
L 116.098004 167.144174 
L 115.796034 168.175156 
L 115.510795 169.206138 
L 115.240562 170.23712 
L 114.984053 171.268102 
L 114.740401 172.299084 
L 114.509072 173.330066 
L 114.289761 174.361048 
L 114.082275 175.39203 
L 113.88644 176.423012 
L 113.702033 177.453994 
L 113.528755 178.484976 
L 113.366234 179.515958 
L 113.366234 179.515958 
z
" clip-path="url(#p9d177647f8)" style="fill: none; stroke: #000000; stroke-opacity: 0.3"/>
   </g>
   <g id="FillBetweenPolyCollection_14">
    <path d="M 114.52691 211.979959 
L 109.327636 211.979959 
L 109.116889 210.404661 
L 108.904239 208.829363 
L 108.689766 207.254064 
L 108.47304 205.678766 
L 108.253087 204.103468 
L 108.028385 202.52817 
L 107.796891 200.952871 
L 107.556108 199.377573 
L 107.303182 197.802275 
L 107.035029 196.226977 
L 106.748479 194.651679 
L 106.440444 193.07638 
L 106.10807 191.501082 
L 105.748896 189.925784 
L 105.36099 188.350486 
L 104.943054 186.775187 
L 104.494506 185.199889 
L 104.015519 183.624591 
L 103.507032 182.049293 
L 102.970722 180.473995 
L 102.408959 178.898696 
L 101.82473 177.323398 
L 101.221565 175.7481 
L 100.60344 174.172802 
L 99.974702 172.597503 
L 99.339985 171.022205 
L 98.704141 169.446907 
L 98.07218 167.871609 
L 97.449218 166.296311 
L 96.840428 164.721012 
L 96.25099 163.145714 
L 95.686044 161.570416 
L 95.150624 159.995118 
L 94.649595 158.419819 
L 94.187566 156.844521 
L 93.768804 155.269223 
L 93.397135 153.693925 
L 93.075843 152.118627 
L 92.807575 150.543328 
L 92.594252 148.96803 
L 92.436997 147.392732 
L 92.336083 145.817434 
L 92.290909 144.242135 
L 92.300004 142.666837 
L 92.361057 141.091539 
L 92.470992 139.516241 
L 92.626057 137.940943 
L 92.821965 136.365644 
L 93.054042 134.790346 
L 93.317414 133.215048 
L 93.607206 131.63975 
L 93.91875 130.064451 
L 94.247801 128.489153 
L 94.590731 126.913855 
L 94.944709 125.338557 
L 95.307832 123.763259 
L 95.679218 122.18796 
L 96.059017 120.612662 
L 96.448368 119.037364 
L 96.849267 117.462066 
L 97.264374 115.886768 
L 97.696754 114.311469 
L 98.149572 112.736171 
L 98.625766 111.160873 
L 99.127724 109.585575 
L 99.656985 108.010276 
L 100.213991 106.434978 
L 100.797918 104.85968 
L 101.406586 103.284382 
L 102.03647 101.709084 
L 102.682795 100.133785 
L 103.339722 98.558487 
L 104.000592 96.983189 
L 104.658222 95.407891 
L 105.305223 93.832592 
L 105.934311 92.257294 
L 106.538609 90.681996 
L 107.1119 89.106698 
L 107.648834 87.5314 
L 108.145081 85.956101 
L 108.597422 84.380803 
L 109.003786 82.805505 
L 109.363242 81.230207 
L 109.675945 79.654908 
L 109.943054 78.07961 
L 110.166628 76.504312 
L 110.349503 74.929014 
L 110.49516 73.353716 
L 110.607591 71.778417 
L 110.691157 70.203119 
L 110.750451 68.627821 
L 110.790156 67.052523 
L 110.814913 65.477224 
L 110.82919 63.901926 
L 110.837158 62.326628 
L 110.842587 60.75133 
L 110.84875 59.176032 
L 110.85835 57.600733 
L 110.873474 56.025435 
L 112.981071 56.025435 
L 112.981071 56.025435 
L 112.996196 57.600733 
L 113.005796 59.176032 
L 113.011958 60.75133 
L 113.017387 62.326628 
L 113.025356 63.901926 
L 113.039632 65.477224 
L 113.064389 67.052523 
L 113.104095 68.627821 
L 113.163388 70.203119 
L 113.246955 71.778417 
L 113.359386 73.353716 
L 113.505043 74.929014 
L 113.687918 76.504312 
L 113.911492 78.07961 
L 114.178601 79.654908 
L 114.491304 81.230207 
L 114.850759 82.805505 
L 115.257124 84.380803 
L 115.709465 85.956101 
L 116.205712 87.5314 
L 116.742646 89.106698 
L 117.315937 90.681996 
L 117.920235 92.257294 
L 118.549323 93.832592 
L 119.196323 95.407891 
L 119.853953 96.983189 
L 120.514823 98.558487 
L 121.17175 100.133785 
L 121.818076 101.709084 
L 122.44796 103.284382 
L 123.056628 104.85968 
L 123.640554 106.434978 
L 124.19756 108.010276 
L 124.726821 109.585575 
L 125.228779 111.160873 
L 125.704974 112.736171 
L 126.157791 114.311469 
L 126.590171 115.886768 
L 127.005279 117.462066 
L 127.406178 119.037364 
L 127.795528 120.612662 
L 128.175328 122.18796 
L 128.546713 123.763259 
L 128.909837 125.338557 
L 129.263814 126.913855 
L 129.606744 128.489153 
L 129.935795 130.064451 
L 130.24734 131.63975 
L 130.537131 133.215048 
L 130.800503 134.790346 
L 131.03258 136.365644 
L 131.228488 137.940943 
L 131.383554 139.516241 
L 131.493488 141.091539 
L 131.554542 142.666837 
L 131.563636 144.242135 
L 131.518463 145.817434 
L 131.417549 147.392732 
L 131.260293 148.96803 
L 131.04697 150.543328 
L 130.778702 152.118627 
L 130.45741 153.693925 
L 130.085741 155.269223 
L 129.666979 156.844521 
L 129.20495 158.419819 
L 128.703921 159.995118 
L 128.168502 161.570416 
L 127.603555 163.145714 
L 127.014118 164.721012 
L 126.405327 166.296311 
L 125.782366 167.871609 
L 125.150405 169.446907 
L 124.51456 171.022205 
L 123.879843 172.597503 
L 123.251105 174.172802 
L 122.632981 175.7481 
L 122.029815 177.323398 
L 121.445587 178.898696 
L 120.883823 180.473995 
L 120.347514 182.049293 
L 119.839026 183.624591 
L 119.360039 185.199889 
L 118.911491 186.775187 
L 118.493555 188.350486 
L 118.105649 189.925784 
L 117.746475 191.501082 
L 117.414101 193.07638 
L 117.106066 194.651679 
L 116.819517 196.226977 
L 116.551363 197.802275 
L 116.298437 199.377573 
L 116.057654 200.952871 
L 115.82616 202.52817 
L 115.601458 204.103468 
L 115.381506 205.678766 
L 115.16478 207.254064 
L 114.950306 208.829363 
L 114.737656 210.404661 
L 114.52691 211.979959 
L 114.52691 211.979959 
z
" clip-path="url(#p9d177647f8)" style="fill: none; stroke: #000000; stroke-opacity: 0.3"/>
   </g>
   <g id="matplotlib.axis_1"/>
   <g id="matplotlib.axis_2">
    <g id="ytick_1">
     <g id="line2d_1">
      <defs>
       <path id="m08ee07a401" d="M 0 0 
L -3.5 0 
" style="stroke: #000000; stroke-width: 0.8"/>
      </defs>
      <g>
       <use xlink:href="#m08ee07a401" x="21.6" y="291.6" style="stroke: #000000; stroke-width: 0.8"/>
      </g>
     </g>
     <g id="text_1">
      <text style="font-size: 10px; font-family: 'DejaVu Sans', 'Bitstream Vera Sans', 'Computer Modern Sans Serif', 'Lucida Grande', 'Verdana', 'Geneva', 'Lucid', 'Arial', 'Helvetica', 'Avant Garde', sans-serif; text-anchor: end" x="14.6" y="295.399219" transform="rotate(-0 14.6 295.399219)">0.1</text>
     </g>
    </g>
    <g id="ytick_2">
     <g id="line2d_2">
      <g>
       <use xlink:href="#m08ee07a401" x="21.6" y="199.8" style="stroke: #000000; stroke-width: 0.8"/>
      </g>
     </g>
     <g id="text_2">
      <text style="font-size: 10px; font-family: 'DejaVu Sans', 'Bitstream Vera Sans', 'Computer Modern Sans Serif', 'Lucida Grande', 'Verdana', 'Geneva', 'Lucid', 'Arial', 'Helvetica', 'Avant Garde', sans-serif; text-anchor: end" x="14.6" y="203.599219" transform="rotate(-0 14.6 203.599219)">0.2</text>
     </g>
    </g>
    <g id="ytick_3">
     <g id="line2d_3">
      <g>
       <use xlink:href="#m08ee07a401" x="21.6" y="108" style="stroke: #000000; stroke-width: 0.8"/>
      </g>
     </g>
     <g id="text_3">
      <text style="font-size: 10px; font-family: 'DejaVu Sans', 'Bitstream Vera Sans', 'Computer Modern Sans Serif', 'Lucida Grande', 'Verdana', 'Geneva', 'Lucid', 'Arial', 'Helvetica', 'Avant Garde', sans-serif; text-anchor: end" x="14.6" y="111.799219" transform="rotate(-0 14.6 111.799219)">0.3</text>
     </g>
    </g>
    <g id="ytick_4">
     <g id="line2d_4">
      <g>
       <use xlink:href="#m08ee07a401" x="21.6" y="16.2" style="stroke: #000000; stroke-width: 0.8"/>
      </g>
     </g>
     <g id="text_4">
      <text style="font-size: 10px; font-family: 'DejaVu Sans', 'Bitstream Vera Sans', 'Computer Modern Sans Serif', 'Lucida Grande', 'Verdana', 'Geneva', 'Lucid', 'Arial', 'Helvetica', 'Avant Garde', sans-serif; text-anchor: end" x="14.6" y="19.999219" transform="rotate(-0 14.6 19.999219)">0.4</text>
     </g>
    </g>
    <g id="text_5">
     <text style="font-size: 14px; font-family: 'DejaVu Sans', 'Bitstream Vera Sans', 'Computer Modern Sans Serif', 'Lucida Grande', 'Verdana', 'Geneva', 'Lucid', 'Arial', 'Helvetica', 'Avant Garde', sans-serif; text-anchor: middle" x="12.928437" y="153.9" transform="rotate(-90 12.928437 153.9)">Ef</text>
    </g>
   </g>
   <g id="line2d_5">
    <path d="M 46.472727 269.568 
L 46.472727 264.06 
" clip-path="url(#p9d177647f8)" style="fill: none; stroke: #000000; stroke-linecap: square"/>
   </g>
   <g id="line2d_6">
    <path d="M 46.472727 269.568 
L 111.927273 269.568 
" clip-path="url(#p9d177647f8)" style="fill: none; stroke: #000000; stroke-linecap: square"/>
   </g>
   <g id="line2d_7">
    <path d="M 111.927273 269.568 
L 111.927273 264.06 
" clip-path="url(#p9d177647f8)" style="fill: none; stroke: #000000; stroke-linecap: square"/>
   </g>
   <g id="patch_3">
    <path d="M 21.6 291.6 
L 21.6 16.2 
" style="fill: none; stroke: #000000; stroke-width: 0.8; stroke-linejoin: miter; stroke-linecap: square"/>
   </g>
   <g id="patch_4">
    <path d="M 136.8 291.6 
L 136.8 16.2 
" style="fill: none; stroke: #000000; stroke-width: 0.8; stroke-linejoin: miter; stroke-linecap: square"/>
   </g>
   <g id="patch_5">
    <path d="M 21.6 291.6 
L 136.8 291.6 
" style="fill: none; stroke: #000000; stroke-width: 0.8; stroke-linejoin: miter; stroke-linecap: square"/>
   </g>
   <g id="patch_6">
    <path d="M 21.6 16.2 
L 136.8 16.2 
" style="fill: none; stroke: #000000; stroke-width: 0.8; stroke-linejoin: miter; stroke-linecap: square"/>
   </g>
   <g id="text_6">
    <text style="font-weight: 700; font-size: 12px; font-family: 'DejaVu Sans', 'Bitstream Vera Sans', 'Computer Modern Sans Serif', 'Lucida Grande', 'Verdana', 'Geneva', 'Lucid', 'Arial', 'Helvetica', 'Avant Garde', sans-serif; text-anchor: middle" x="46.472727" y="289.104375" transform="rotate(-0 46.472727 289.104375)">#5</text>
   </g>
   <g id="text_7">
    <text style="font-weight: 700; font-size: 12px; font-family: 'DejaVu Sans', 'Bitstream Vera Sans', 'Computer Modern Sans Serif', 'Lucida Grande', 'Verdana', 'Geneva', 'Lucid', 'Arial', 'Helvetica', 'Avant Garde', sans-serif; text-anchor: middle" x="111.927273" y="289.104375" transform="rotate(-0 111.927273 289.104375)">#11</text>
   </g>
   <g id="text_8">
    <text style="font-size: 12px; font-family: 'DejaVu Sans', 'Bitstream Vera Sans', 'Computer Modern Sans Serif', 'Lucida Grande', 'Verdana', 'Geneva', 'Lucid', 'Arial', 'Helvetica', 'Avant Garde', sans-serif; text-anchor: middle" x="79.2" y="268.449375" transform="rotate(-0 79.2 268.449375)">****</text>
   </g>
   <g id="line2d_8">
    <path d="M 21.6 171.919185 
L 136.8 171.919185 
" clip-path="url(#p9d177647f8)" style="fill: none; stroke-dasharray: 3.7,1.6; stroke-dashoffset: 0; stroke: #808080; stroke-opacity: 0.7"/>
   </g>
   <g id="line2d_9">
    <path d="M 21.6 135.719845 
L 136.8 135.719845 
" clip-path="url(#p9d177647f8)" style="fill: none; stroke-dasharray: 3.7,1.6; stroke-dashoffset: 0; stroke: #808080; stroke-opacity: 0.7"/>
   </g>
   <g id="LineCollection_1">
    <path d="M 46.472727 175.755985 
L 46.472727 168.082385 
" clip-path="url(#p9d177647f8)" style="fill: none; stroke: #000000; stroke-width: 2"/>
   </g>
   <g id="line2d_10">
    <defs>
     <path id="mce66147e88" d="M 5 0 
L -5 -0 
" style="stroke: #000000; stroke-width: 2"/>
    </defs>
    <g clip-path="url(#p9d177647f8)">
     <use xlink:href="#mce66147e88" x="46.472727" y="175.755985" style="stroke: #000000; stroke-width: 2"/>
    </g>
   </g>
   <g id="line2d_11">
    <g clip-path="url(#p9d177647f8)">
     <use xlink:href="#mce66147e88" x="46.472727" y="168.082385" style="stroke: #000000; stroke-width: 2"/>
    </g>
   </g>
   <g id="LineCollection_2">
    <path d="M 111.927273 138.814345 
L 111.927273 132.625345 
" clip-path="url(#p9d177647f8)" style="fill: none; stroke: #000000; stroke-width: 2"/>
   </g>
   <g id="line2d_12">
    <g clip-path="url(#p9d177647f8)">
     <use xlink:href="#mce66147e88" x="111.927273" y="138.814345" style="stroke: #000000; stroke-width: 2"/>
    </g>
   </g>
   <g id="line2d_13">
    <g clip-path="url(#p9d177647f8)">
     <use xlink:href="#mce66147e88" x="111.927273" y="132.625345" style="stroke: #000000; stroke-width: 2"/>
    </g>
   </g>
   <g id="line2d_14">
    <defs>
     <path id="m652022f08e" d="M 0 4 
C 1.060812 4 2.078319 3.578535 2.828427 2.828427 
C 3.578535 2.078319 4 1.060812 4 0 
C 4 -1.060812 3.578535 -2.078319 2.828427 -2.828427 
C 2.078319 -3.578535 1.060812 -4 0 -4 
C -1.060812 -4 -2.078319 -3.578535 -2.828427 -2.828427 
C -3.578535 -2.078319 -4 -1.060812 -4 0 
C -4 1.060812 -3.578535 2.078319 -2.828427 2.828427 
C -2.078319 3.578535 -1.060812 4 0 4 
z
" style="stroke: #000000"/>
    </defs>
    <g clip-path="url(#p9d177647f8)">
     <use xlink:href="#m652022f08e" x="46.472727" y="171.919185" style="stroke: #000000"/>
    </g>
   </g>
   <g id="line2d_15">
    <g clip-path="url(#p9d177647f8)">
     <use xlink:href="#m652022f08e" x="111.927273" y="135.719845" style="stroke: #000000"/>
    </g>
   </g>
  </g>
 </g>
 <defs>
  <clipPath id="p9d177647f8">
   <rect x="21.6" y="16.2" width="115.2" height="275.4"/>
  </clipPath>
 </defs>
</svg>
