<?xml version="1.0" encoding="utf-8" standalone="no"?>
<!DOCTYPE svg PUBLIC "-//W3C//DTD SVG 1.1//EN"
  "http://www.w3.org/Graphics/SVG/1.1/DTD/svg11.dtd">
<svg xmlns:xlink="http://www.w3.org/1999/xlink" width="144pt" height="324pt" viewBox="0 0 144 324" xmlns="http://www.w3.org/2000/svg" version="1.1">
 <metadata>
  <rdf:RDF xmlns:dc="http://purl.org/dc/elements/1.1/" xmlns:cc="http://creativecommons.org/ns#" xmlns:rdf="http://www.w3.org/1999/02/22-rdf-syntax-ns#">
   <cc:Work>
    <dc:type rdf:resource="http://purl.org/dc/dcmitype/StillImage"/>
    <dc:date>2025-12-05T14:51:42.441192</dc:date>
    <dc:format>image/svg+xml</dc:format>
    <dc:creator>
     <cc:Agent>
      <dc:title>Matplotlib v3.10.0, https://matplotlib.org/</dc:title>
     </cc:Agent>
    </dc:creator>
   </cc:Work>
  </rdf:RDF>
 </metadata>
 <defs>
  <style type="text/css">*{stroke-linejoin: round; stroke-linecap: butt}</style>
 </defs>
 <g id="figure_1">
  <g id="patch_1">
   <path d="M 0 324 
L 144 324 
L 144 0 
L 0 0 
z
" style="fill: #ffffff"/>
  </g>
  <g id="axes_1">
   <g id="patch_2">
    <path d="M 21.6 291.6 
L 136.8 291.6 
L 136.8 16.2 
L 21.6 16.2 
z
" style="fill: #ffffff"/>
   </g>
   <g id="FillBetweenPolyCollection_1">
    <path d="M 48.133834 221.033567 
L 44.811621 221.033567 
L 44.595027 219.948978 
L 44.362301 218.864388 
L 44.113838 217.779799 
L 43.850596 216.69521 
L 43.574162 215.61062 
L 43.286725 214.526031 
L 42.990938 213.441442 
L 42.689675 212.356852 
L 42.385704 211.272263 
L 42.081314 210.187674 
L 41.777953 209.103085 
L 41.47594 208.018495 
L 41.174313 206.933906 
L 40.870827 205.849317 
L 40.562157 204.764727 
L 40.244249 203.680138 
L 39.912814 202.595549 
L 39.563875 201.510959 
L 39.194305 200.42637 
L 38.802264 199.341781 
L 38.387483 198.257191 
L 37.951328 197.172602 
L 37.496648 196.088013 
L 37.027394 195.003423 
L 36.548085 193.918834 
L 36.063167 192.834245 
L 35.576369 191.749655 
L 35.090156 190.665066 
L 34.605348 189.580477 
L 34.120999 188.495887 
L 33.634557 187.411298 
L 33.142318 186.326709 
L 32.640129 185.242119 
L 32.12428 184.15753 
L 31.592459 183.072941 
L 31.044669 181.988351 
L 30.483977 180.903762 
L 29.916973 179.819173 
L 29.35388 178.734583 
L 28.808237 177.649994 
L 28.296194 176.565405 
L 27.835443 175.480815 
L 27.443887 174.396226 
L 27.138189 173.311637 
L 26.932333 172.227047 
L 26.836364 171.142458 
L 26.855434 170.057869 
L 26.989279 168.97328 
L 27.232169 167.88869 
L 27.57335 166.804101 
L 27.997937 165.719512 
L 28.488154 164.634922 
L 29.024792 163.550333 
L 29.588728 162.465744 
L 30.162361 161.381154 
L 30.730796 160.296565 
L 31.282695 159.211976 
L 31.810709 158.127386 
L 32.311496 157.042797 
L 32.785332 155.958208 
L 33.235425 154.873618 
L 33.667006 153.789029 
L 34.086351 152.70444 
L 34.499827 151.61985 
L 34.913086 150.535261 
L 35.33048 149.450672 
L 35.754724 148.366082 
L 36.186844 147.281493 
L 36.626334 146.196904 
L 37.071512 145.112314 
L 37.51996 144.027725 
L 37.968992 142.943136 
L 38.416068 141.858546 
L 38.859097 140.773957 
L 39.296598 139.689368 
L 39.727707 138.604778 
L 40.152051 137.520189 
L 40.569521 136.4356 
L 40.980007 135.35101 
L 41.383127 134.266421 
L 41.778023 133.181832 
L 42.163247 132.097242 
L 42.53675 131.012653 
L 42.895997 129.928064 
L 43.238167 128.843475 
L 43.560415 127.758885 
L 43.860162 126.674296 
L 44.135365 125.589707 
L 44.384728 124.505117 
L 44.607842 123.420528 
L 44.805222 122.335939 
L 44.978257 121.251349 
L 45.129077 120.16676 
L 45.26035 119.082171 
L 45.375058 117.997581 
L 45.476254 116.912992 
L 45.566842 115.828403 
L 45.649396 114.743813 
L 45.726026 113.659224 
L 47.219429 113.659224 
L 47.219429 113.659224 
L 47.296059 114.743813 
L 47.378612 115.828403 
L 47.4692 116.912992 
L 47.570396 117.997581 
L 47.685105 119.082171 
L 47.816378 120.16676 
L 47.967197 121.251349 
L 48.140233 122.335939 
L 48.337613 123.420528 
L 48.560726 124.505117 
L 48.81009 125.589707 
L 49.085292 126.674296 
L 49.38504 127.758885 
L 49.707288 128.843475 
L 50.049458 129.928064 
L 50.408705 131.012653 
L 50.782208 132.097242 
L 51.167431 133.181832 
L 51.562328 134.266421 
L 51.965448 135.35101 
L 52.375934 136.4356 
L 52.793404 137.520189 
L 53.217747 138.604778 
L 53.648857 139.689368 
L 54.086358 140.773957 
L 54.529387 141.858546 
L 54.976463 142.943136 
L 55.425494 144.027725 
L 55.873942 145.112314 
L 56.31912 146.196904 
L 56.758611 147.281493 
L 57.19073 148.366082 
L 57.614975 149.450672 
L 58.032368 150.535261 
L 58.445628 151.61985 
L 58.859104 152.70444 
L 59.278449 153.789029 
L 59.71003 154.873618 
L 60.160122 155.958208 
L 60.633959 157.042797 
L 61.134745 158.127386 
L 61.66276 159.211976 
L 62.214658 160.296565 
L 62.783093 161.381154 
L 63.356726 162.465744 
L 63.920663 163.550333 
L 64.4573 164.634922 
L 64.947517 165.719512 
L 65.372105 166.804101 
L 65.713286 167.88869 
L 65.956176 168.97328 
L 66.090021 170.057869 
L 66.109091 171.142458 
L 66.013121 172.227047 
L 65.807266 173.311637 
L 65.501568 174.396226 
L 65.110012 175.480815 
L 64.64926 176.565405 
L 64.137218 177.649994 
L 63.591575 178.734583 
L 63.028481 179.819173 
L 62.461478 180.903762 
L 61.900785 181.988351 
L 61.352996 183.072941 
L 60.821174 184.15753 
L 60.305325 185.242119 
L 59.803137 186.326709 
L 59.310897 187.411298 
L 58.824455 188.495887 
L 58.340106 189.580477 
L 57.855299 190.665066 
L 57.369086 191.749655 
L 56.882288 192.834245 
L 56.397369 193.918834 
L 55.91806 195.003423 
L 55.448807 196.088013 
L 54.994126 197.172602 
L 54.557972 198.257191 
L 54.14319 199.341781 
L 53.75115 200.42637 
L 53.381579 201.510959 
L 53.032641 202.595549 
L 52.701206 203.680138 
L 52.383298 204.764727 
L 52.074627 205.849317 
L 51.771142 206.933906 
L 51.469514 208.018495 
L 51.167502 209.103085 
L 50.86414 210.187674 
L 50.55975 211.272263 
L 50.25578 212.356852 
L 49.954517 213.441442 
L 49.65873 214.526031 
L 49.371293 215.61062 
L 49.094859 216.69521 
L 48.831617 217.779799 
L 48.583153 218.864388 
L 48.350428 219.948978 
L 48.133834 221.033567 
L 48.133834 221.033567 
z
" clip-path="url(#pb2518f274c)" style="fill: none; stroke: #000000; stroke-opacity: 0.3"/>
   </g>
   <g id="FillBetweenPolyCollection_2">
    <path d="M 46.784755 266.609067 
L 46.160699 266.609067 
L 46.162665 265.090201 
L 46.173299 263.571335 
L 46.190103 262.052469 
L 46.209696 260.533603 
L 46.228351 259.014738 
L 46.242606 257.495872 
L 46.24983 255.977006 
L 46.248647 254.45814 
L 46.239143 252.939275 
L 46.222812 251.420409 
L 46.202253 249.901543 
L 46.180668 248.382677 
L 46.161229 246.863812 
L 46.146445 245.344946 
L 46.137642 243.82608 
L 46.134663 242.307214 
L 46.135846 240.788348 
L 46.138291 239.269483 
L 46.138349 237.750617 
L 46.132208 236.231751 
L 46.116452 234.712885 
L 46.088461 233.19402 
L 46.04657 231.675154 
L 45.989973 230.156288 
L 45.918431 228.637422 
L 45.831857 227.118557 
L 45.729886 225.599691 
L 45.611508 224.080825 
L 45.47481 222.561959 
L 45.316797 221.043093 
L 45.13329 219.524228 
L 44.91886 218.005362 
L 44.666814 216.486496 
L 44.369266 214.96763 
L 44.017371 213.448765 
L 43.601772 211.929899 
L 43.113261 210.411033 
L 42.543594 208.892167 
L 41.886334 207.373302 
L 41.137589 205.854436 
L 40.296545 204.33557 
L 39.365794 202.816704 
L 38.351519 201.297838 
L 37.26366 199.778973 
L 36.116141 198.260107 
L 34.927134 196.741241 
L 33.719242 195.222375 
L 32.519386 193.70351 
L 31.358176 192.184644 
L 30.268651 190.665778 
L 29.284379 189.146912 
L 28.437048 187.628047 
L 27.753771 186.109181 
L 27.254382 184.590315 
L 26.949015 183.071449 
L 26.836364 181.552584 
L 26.903002 180.033718 
L 27.124193 178.514852 
L 27.466438 176.995986 
L 27.891722 175.47712 
L 28.362921 173.958255 
L 28.849404 172.439389 
L 29.331559 170.920523 
L 29.803031 169.401657 
L 30.269943 167.882792 
L 30.747155 166.363926 
L 31.252454 164.84506 
L 31.800232 163.326194 
L 32.396406 161.807329 
L 33.03596 160.288463 
L 33.703765 158.769597 
L 34.378318 157.250731 
L 35.037239 155.731865 
L 35.662875 154.213 
L 36.246432 152.694134 
L 36.789575 151.175268 
L 37.303192 149.656402 
L 37.803857 148.137537 
L 38.309081 146.618671 
L 38.832664 145.099805 
L 39.381303 143.580939 
L 39.953149 142.062074 
L 40.538425 140.543208 
L 41.121717 139.024342 
L 41.685207 137.505476 
L 42.212011 135.98661 
L 42.688931 134.467745 
L 43.108159 132.948879 
L 43.467802 131.430013 
L 43.771359 129.911147 
L 44.026439 128.392282 
L 44.243097 126.873416 
L 44.432147 125.35455 
L 44.603692 123.835684 
L 44.76605 122.316819 
L 44.92513 120.797953 
L 45.084221 119.279087 
L 45.244151 117.760221 
L 45.403707 116.241355 
L 47.541747 116.241355 
L 47.541747 116.241355 
L 47.701303 117.760221 
L 47.861234 119.279087 
L 48.020325 120.797953 
L 48.179404 122.316819 
L 48.341763 123.835684 
L 48.513307 125.35455 
L 48.702357 126.873416 
L 48.919016 128.392282 
L 49.174095 129.911147 
L 49.477652 131.430013 
L 49.837296 132.948879 
L 50.256523 134.467745 
L 50.733444 135.98661 
L 51.260248 137.505476 
L 51.823737 139.024342 
L 52.407029 140.543208 
L 52.992305 142.062074 
L 53.564151 143.580939 
L 54.112791 145.099805 
L 54.636373 146.618671 
L 55.141597 148.137537 
L 55.642263 149.656402 
L 56.15588 151.175268 
L 56.699022 152.694134 
L 57.28258 154.213 
L 57.908215 155.731865 
L 58.567137 157.250731 
L 59.24169 158.769597 
L 59.909494 160.288463 
L 60.549048 161.807329 
L 61.145222 163.326194 
L 61.693001 164.84506 
L 62.198299 166.363926 
L 62.675511 167.882792 
L 63.142423 169.401657 
L 63.613895 170.920523 
L 64.096051 172.439389 
L 64.582534 173.958255 
L 65.053732 175.47712 
L 65.479016 176.995986 
L 65.821262 178.514852 
L 66.042453 180.033718 
L 66.109091 181.552584 
L 65.99644 183.071449 
L 65.691073 184.590315 
L 65.191683 186.109181 
L 64.508407 187.628047 
L 63.661075 189.146912 
L 62.676803 190.665778 
L 61.587278 192.184644 
L 60.426068 193.70351 
L 59.226212 195.222375 
L 58.018321 196.741241 
L 56.829313 198.260107 
L 55.681794 199.778973 
L 54.593936 201.297838 
L 53.579661 202.816704 
L 52.648909 204.33557 
L 51.807866 205.854436 
L 51.05912 207.373302 
L 50.40186 208.892167 
L 49.832193 210.411033 
L 49.343682 211.929899 
L 48.928083 213.448765 
L 48.576188 214.96763 
L 48.27864 216.486496 
L 48.026594 218.005362 
L 47.812165 219.524228 
L 47.628657 221.043093 
L 47.470644 222.561959 
L 47.333946 224.080825 
L 47.215569 225.599691 
L 47.113597 227.118557 
L 47.027023 228.637422 
L 46.955482 230.156288 
L 46.898885 231.675154 
L 46.856993 233.19402 
L 46.829002 234.712885 
L 46.813247 236.231751 
L 46.807105 237.750617 
L 46.807163 239.269483 
L 46.809609 240.788348 
L 46.810792 242.307214 
L 46.807813 243.82608 
L 46.79901 245.344946 
L 46.784226 246.863812 
L 46.764786 248.382677 
L 46.743201 249.901543 
L 46.722643 251.420409 
L 46.706311 252.939275 
L 46.696807 254.45814 
L 46.695625 255.977006 
L 46.702849 257.495872 
L 46.717104 259.014738 
L 46.735759 260.533603 
L 46.755352 262.052469 
L 46.772156 263.571335 
L 46.782789 265.090201 
L 46.784755 266.609067 
L 46.784755 266.609067 
z
" clip-path="url(#pb2518f274c)" style="fill: none; stroke: #000000; stroke-opacity: 0.3"/>
   </g>
   <g id="FillBetweenPolyCollection_3">
    <path d="M 46.863138 294.231824 
L 46.082316 294.231824 
L 46.091111 291.996309 
L 46.116326 289.760794 
L 46.154703 287.525279 
L 46.20159 285.289765 
L 46.251863 283.05425 
L 46.300829 280.818735 
L 46.344899 278.58322 
L 46.381906 276.347705 
L 46.411074 274.112191 
L 46.432738 271.876676 
L 46.447945 269.641161 
L 46.458052 267.405646 
L 46.464421 265.170131 
L 46.468225 262.934617 
L 46.470369 260.699102 
L 46.471482 258.463587 
L 46.471946 256.228072 
L 46.471936 253.992557 
L 46.47143 251.757043 
L 46.4702 249.521528 
L 46.46775 247.286013 
L 46.463221 245.050498 
L 46.455262 242.814983 
L 46.441887 240.579469 
L 46.420353 238.343954 
L 46.38708 236.108439 
L 46.337643 233.872924 
L 46.266834 231.637409 
L 46.168725 229.401894 
L 46.036666 227.16638 
L 45.863082 224.930865 
L 45.63903 222.69535 
L 45.353557 220.459835 
L 44.993102 218.22432 
L 44.541355 215.988806 
L 43.980037 213.753291 
L 43.290977 211.517776 
L 42.459471 209.282261 
L 41.478448 207.046746 
L 40.35245 204.811232 
L 39.100233 202.575717 
L 37.754921 200.340202 
L 36.361258 198.104687 
L 34.970274 195.869172 
L 33.632487 193.633658 
L 32.39116 191.398143 
L 31.277136 189.162628 
L 30.30633 186.927113 
L 29.480252 184.691598 
L 28.789274 182.456084 
L 28.217775 180.220569 
L 27.749974 177.985054 
L 27.375181 175.749539 
L 27.091365 173.514024 
L 26.906328 171.278509 
L 26.836364 169.042995 
L 26.902874 166.80748 
L 27.127855 164.571965 
L 27.529316 162.33645 
L 28.117503 160.100935 
L 28.892418 157.865421 
L 29.842746 155.629906 
L 30.946022 153.394391 
L 32.169856 151.158876 
L 33.474071 148.923361 
L 34.813657 146.687847 
L 36.142378 144.452332 
L 37.416724 142.216817 
L 38.599683 139.981302 
L 39.663799 137.745787 
L 40.592976 135.510273 
L 41.382799 133.274758 
L 42.039351 131.039243 
L 42.576858 128.803728 
L 43.014593 126.568213 
L 43.373613 124.332699 
L 43.673792 122.097184 
L 43.931572 119.861669 
L 44.15865 117.626154 
L 44.361725 115.390639 
L 44.543205 113.155125 
L 44.702668 110.91961 
L 44.838694 108.684095 
L 44.950649 106.44858 
L 45.039983 104.213065 
L 45.110742 101.97755 
L 45.16918 99.742036 
L 45.222594 97.506521 
L 45.277754 95.271006 
L 45.339395 93.035491 
L 45.409264 90.799976 
L 45.486023 88.564462 
L 45.566035 86.328947 
L 45.644784 84.093432 
L 45.718419 81.857917 
L 45.784936 79.622402 
L 45.844605 77.386888 
L 45.899583 75.151373 
L 45.952923 72.915858 
L 46.992532 72.915858 
L 46.992532 72.915858 
L 47.045872 75.151373 
L 47.10085 77.386888 
L 47.160518 79.622402 
L 47.227035 81.857917 
L 47.300671 84.093432 
L 47.379419 86.328947 
L 47.459432 88.564462 
L 47.53619 90.799976 
L 47.60606 93.035491 
L 47.667701 95.271006 
L 47.72286 97.506521 
L 47.776275 99.742036 
L 47.834712 101.97755 
L 47.905472 104.213065 
L 47.994806 106.44858 
L 48.10676 108.684095 
L 48.242786 110.91961 
L 48.402249 113.155125 
L 48.58373 115.390639 
L 48.786805 117.626154 
L 49.013883 119.861669 
L 49.271662 122.097184 
L 49.571842 124.332699 
L 49.930861 126.568213 
L 50.368597 128.803728 
L 50.906103 131.039243 
L 51.562656 133.274758 
L 52.352478 135.510273 
L 53.281656 137.745787 
L 54.345771 139.981302 
L 55.528731 142.216817 
L 56.803076 144.452332 
L 58.131798 146.687847 
L 59.471383 148.923361 
L 60.775599 151.158876 
L 61.999433 153.394391 
L 63.102708 155.629906 
L 64.053036 157.865421 
L 64.827952 160.100935 
L 65.416138 162.33645 
L 65.8176 164.571965 
L 66.042581 166.80748 
L 66.109091 169.042995 
L 66.039126 171.278509 
L 65.854089 173.514024 
L 65.570274 175.749539 
L 65.195481 177.985054 
L 64.727679 180.220569 
L 64.15618 182.456084 
L 63.465203 184.691598 
L 62.639125 186.927113 
L 61.668318 189.162628 
L 60.554295 191.398143 
L 59.312967 193.633658 
L 57.975181 195.869172 
L 56.584197 198.104687 
L 55.190533 200.340202 
L 53.845221 202.575717 
L 52.593004 204.811232 
L 51.467007 207.046746 
L 50.485984 209.282261 
L 49.654478 211.517776 
L 48.965418 213.753291 
L 48.4041 215.988806 
L 47.952352 218.22432 
L 47.591898 220.459835 
L 47.306425 222.69535 
L 47.082373 224.930865 
L 46.908789 227.16638 
L 46.776729 229.401894 
L 46.678621 231.637409 
L 46.607811 233.872924 
L 46.558375 236.108439 
L 46.525101 238.343954 
L 46.503568 240.579469 
L 46.490193 242.814983 
L 46.482234 245.050498 
L 46.477705 247.286013 
L 46.475255 249.521528 
L 46.474025 251.757043 
L 46.473519 253.992557 
L 46.473508 256.228072 
L 46.473973 258.463587 
L 46.475086 260.699102 
L 46.47723 262.934617 
L 46.481034 265.170131 
L 46.487402 267.405646 
L 46.497509 269.641161 
L 46.512716 271.876676 
L 46.534381 274.112191 
L 46.563549 276.347705 
L 46.600555 278.58322 
L 46.644626 280.818735 
L 46.693592 283.05425 
L 46.743864 285.289765 
L 46.790751 287.525279 
L 46.829128 289.760794 
L 46.854343 291.996309 
L 46.863138 294.231824 
L 46.863138 294.231824 
z
" clip-path="url(#pb2518f274c)" style="fill: none; stroke: #000000; stroke-opacity: 0.3"/>
   </g>
   <g id="FillBetweenPolyCollection_4">
    <path d="M 46.752517 242.382839 
L 46.192937 242.382839 
L 46.195548 241.093519 
L 46.205941 239.804199 
L 46.222135 238.514878 
L 46.241332 237.225558 
L 46.260267 235.936238 
L 46.275599 234.646917 
L 46.284294 233.357597 
L 46.283923 232.068277 
L 46.272828 230.778957 
L 46.250152 229.489636 
L 46.215715 228.200316 
L 46.169763 226.910996 
L 46.112618 225.621675 
L 46.044296 224.332355 
L 45.964124 223.043035 
L 45.870447 221.753714 
L 45.760452 220.464394 
L 45.630157 219.175074 
L 45.474554 217.885754 
L 45.287894 216.596433 
L 45.064079 215.307113 
L 44.797118 214.017793 
L 44.481641 212.728472 
L 44.113446 211.439152 
L 43.690105 210.149832 
L 43.211574 208.860512 
L 42.680781 207.571191 
L 42.104046 206.281871 
L 41.491191 204.992551 
L 40.855159 203.70323 
L 40.211048 202.41391 
L 39.574554 201.12459 
L 38.959968 199.83527 
L 38.37804 198.545949 
L 37.834097 197.256629 
L 37.326822 195.967309 
L 36.848023 194.677988 
L 36.383546 193.388668 
L 35.915278 192.099348 
L 35.42399 190.810028 
L 34.892584 189.520707 
L 34.309246 188.231387 
L 33.669985 186.942067 
L 32.980111 185.652746 
L 32.254385 184.363426 
L 31.515724 183.074106 
L 30.792596 181.784786 
L 30.115398 180.495465 
L 29.51231 179.206145 
L 29.005207 177.916825 
L 28.606265 176.627504 
L 28.315857 175.338184 
L 28.122189 174.048864 
L 28.002924 172.759544 
L 27.928682 171.470223 
L 27.867986 170.180903 
L 27.79284 168.891583 
L 27.683966 167.602262 
L 27.53467 166.312942 
L 27.352529 165.023622 
L 27.15853 163.734301 
L 26.983793 162.444981 
L 26.864545 161.155661 
L 26.836364 159.866341 
L 26.928823 158.57702 
L 27.16153 157.2877 
L 27.542163 155.99838 
L 28.066663 154.709059 
L 28.721226 153.419739 
L 29.485448 152.130419 
L 30.335812 150.841099 
L 31.248762 149.551778 
L 32.202873 148.262458 
L 33.179909 146.973138 
L 34.164882 145.683817 
L 35.14542 144.394497 
L 36.110865 143.105177 
L 37.05144 141.815857 
L 37.957738 140.526536 
L 38.820595 139.237216 
L 39.631299 137.947896 
L 40.382004 136.658575 
L 41.066233 135.369255 
L 41.679364 134.079935 
L 42.219056 132.790615 
L 42.685572 131.501294 
L 43.081971 130.211974 
L 43.414096 128.922654 
L 43.690297 127.633333 
L 43.920847 126.344013 
L 44.117066 125.054693 
L 44.290262 123.765373 
L 44.45064 122.476052 
L 44.606384 121.186732 
L 44.763058 119.897412 
L 44.923423 118.608091 
L 45.087653 117.318771 
L 45.253855 116.029451 
L 45.418777 114.74013 
L 47.526677 114.74013 
L 47.526677 114.74013 
L 47.691599 116.029451 
L 47.857802 117.318771 
L 48.022031 118.608091 
L 48.182397 119.897412 
L 48.339071 121.186732 
L 48.494814 122.476052 
L 48.655192 123.765373 
L 48.828388 125.054693 
L 49.024608 126.344013 
L 49.255157 127.633333 
L 49.531358 128.922654 
L 49.863484 130.211974 
L 50.259883 131.501294 
L 50.726399 132.790615 
L 51.266091 134.079935 
L 51.879222 135.369255 
L 52.563451 136.658575 
L 53.314156 137.947896 
L 54.12486 139.237216 
L 54.987717 140.526536 
L 55.894015 141.815857 
L 56.83459 143.105177 
L 57.800034 144.394497 
L 58.780573 145.683817 
L 59.765545 146.973138 
L 60.742581 148.262458 
L 61.696692 149.551778 
L 62.609642 150.841099 
L 63.460006 152.130419 
L 64.224229 153.419739 
L 64.878791 154.709059 
L 65.403291 155.99838 
L 65.783925 157.2877 
L 66.016631 158.57702 
L 66.109091 159.866341 
L 66.08091 161.155661 
L 65.961662 162.444981 
L 65.786924 163.734301 
L 65.592925 165.023622 
L 65.410785 166.312942 
L 65.261488 167.602262 
L 65.152615 168.891583 
L 65.077469 170.180903 
L 65.016772 171.470223 
L 64.942531 172.759544 
L 64.823265 174.048864 
L 64.629597 175.338184 
L 64.339189 176.627504 
L 63.940248 177.916825 
L 63.433145 179.206145 
L 62.830057 180.495465 
L 62.152859 181.784786 
L 61.429731 183.074106 
L 60.69107 184.363426 
L 59.965343 185.652746 
L 59.275469 186.942067 
L 58.636208 188.231387 
L 58.052871 189.520707 
L 57.521465 190.810028 
L 57.030176 192.099348 
L 56.561909 193.388668 
L 56.097432 194.677988 
L 55.618633 195.967309 
L 55.111358 197.256629 
L 54.567414 198.545949 
L 53.985486 199.83527 
L 53.3709 201.12459 
L 52.734406 202.41391 
L 52.090296 203.70323 
L 51.454263 204.992551 
L 50.841408 206.281871 
L 50.264674 207.571191 
L 49.733881 208.860512 
L 49.25535 210.149832 
L 48.832008 211.439152 
L 48.463814 212.728472 
L 48.148336 214.017793 
L 47.881376 215.307113 
L 47.657561 216.596433 
L 47.470901 217.885754 
L 47.315297 219.175074 
L 47.185002 220.464394 
L 47.075008 221.753714 
L 46.98133 223.043035 
L 46.901159 224.332355 
L 46.832836 225.621675 
L 46.775692 226.910996 
L 46.729739 228.200316 
L 46.695302 229.489636 
L 46.672626 230.778957 
L 46.661531 232.068277 
L 46.66116 233.357597 
L 46.669856 234.646917 
L 46.685188 235.936238 
L 46.704122 237.225558 
L 46.72332 238.514878 
L 46.739513 239.804199 
L 46.749906 241.093519 
L 46.752517 242.382839 
L 46.752517 242.382839 
z
" clip-path="url(#pb2518f274c)" style="fill: none; stroke: #000000; stroke-opacity: 0.3"/>
   </g>
   <g id="FillBetweenPolyCollection_5">
    <path d="M 48.039729 223.760572 
L 44.905726 223.760572 
L 44.703116 222.654742 
L 44.488109 221.548913 
L 44.259568 220.443083 
L 44.01601 219.337254 
L 43.755851 218.231424 
L 43.477735 217.125595 
L 43.180889 216.019765 
L 42.865443 214.913936 
L 42.532654 213.808106 
L 42.184977 212.702277 
L 41.825947 211.596447 
L 41.45987 210.490618 
L 41.091339 209.384788 
L 40.724653 208.278959 
L 40.363193 207.173129 
L 40.008878 206.0673 
L 39.661756 204.96147 
L 39.319833 203.855641 
L 38.979145 202.749811 
L 38.634083 201.643982 
L 38.277933 200.538152 
L 37.903535 199.432323 
L 37.503996 198.326493 
L 37.073336 197.220664 
L 36.607015 196.114834 
L 36.102278 195.009005 
L 35.55832 193.903175 
L 34.976291 192.797346 
L 34.359191 191.691516 
L 33.711716 190.585687 
L 33.04011 189.479857 
L 32.352046 188.374028 
L 31.656544 187.268198 
L 30.963906 186.162369 
L 30.285606 185.056539 
L 29.634098 183.95071 
L 29.022495 182.84488 
L 28.464094 181.739051 
L 27.971773 180.633221 
L 27.557294 179.527392 
L 27.230585 178.421562 
L 26.999096 177.315733 
L 26.867292 176.209903 
L 26.836364 175.104074 
L 26.90418 173.998244 
L 27.065485 172.892415 
L 27.312308 171.786585 
L 27.634531 170.680756 
L 28.020539 169.574926 
L 28.457886 168.469097 
L 28.933913 167.363267 
L 29.436295 166.257438 
L 29.953481 165.151609 
L 30.475064 164.045779 
L 30.99207 162.93995 
L 31.497213 161.83412 
L 31.985114 160.728291 
L 32.452475 159.622461 
L 32.8982 158.516632 
L 33.323394 157.410802 
L 33.731222 156.304973 
L 34.126574 155.199143 
L 34.515542 154.093314 
L 34.904725 152.987484 
L 35.30043 151.881655 
L 35.707864 150.775825 
L 36.130432 149.669996 
L 36.569241 148.564166 
L 37.022901 147.458337 
L 37.487662 146.352507 
L 37.957863 145.246678 
L 38.426654 144.140848 
L 38.886862 143.035019 
L 39.331875 141.929189 
L 39.756431 140.82336 
L 40.15717 139.71753 
L 40.532903 138.611701 
L 40.884559 137.505871 
L 41.214844 136.400042 
L 41.527673 135.294212 
L 41.827482 134.188383 
L 42.118533 133.082553 
L 42.404298 131.976724 
L 42.687029 130.870894 
L 42.967539 129.765065 
L 43.245217 128.659235 
L 43.518244 127.553406 
L 43.783965 126.447576 
L 44.039331 125.341747 
L 44.281362 124.235917 
L 44.507537 123.130088 
L 44.716087 122.024258 
L 44.906143 120.918429 
L 45.077758 119.812599 
L 45.231792 118.70677 
L 45.369727 117.60094 
L 45.493417 116.495111 
L 45.604844 115.389281 
L 45.705891 114.283452 
L 47.239564 114.283452 
L 47.239564 114.283452 
L 47.34061 115.389281 
L 47.452037 116.495111 
L 47.575728 117.60094 
L 47.713663 118.70677 
L 47.867697 119.812599 
L 48.039311 120.918429 
L 48.229368 122.024258 
L 48.437918 123.130088 
L 48.664093 124.235917 
L 48.906124 125.341747 
L 49.16149 126.447576 
L 49.42721 127.553406 
L 49.700238 128.659235 
L 49.977916 129.765065 
L 50.258426 130.870894 
L 50.541157 131.976724 
L 50.826922 133.082553 
L 51.117972 134.188383 
L 51.417782 135.294212 
L 51.730611 136.400042 
L 52.060896 137.505871 
L 52.412552 138.611701 
L 52.788285 139.71753 
L 53.189023 140.82336 
L 53.613579 141.929189 
L 54.058593 143.035019 
L 54.5188 144.140848 
L 54.987592 145.246678 
L 55.457793 146.352507 
L 55.922553 147.458337 
L 56.376214 148.564166 
L 56.815023 149.669996 
L 57.237591 150.775825 
L 57.645024 151.881655 
L 58.040729 152.987484 
L 58.429912 154.093314 
L 58.818881 155.199143 
L 59.214233 156.304973 
L 59.622061 157.410802 
L 60.047255 158.516632 
L 60.49298 159.622461 
L 60.960341 160.728291 
L 61.448241 161.83412 
L 61.953384 162.93995 
L 62.47039 164.045779 
L 62.991973 165.151609 
L 63.50916 166.257438 
L 64.011541 167.363267 
L 64.487569 168.469097 
L 64.924915 169.574926 
L 65.310924 170.680756 
L 65.633147 171.786585 
L 65.87997 172.892415 
L 66.041275 173.998244 
L 66.109091 175.104074 
L 66.078163 176.209903 
L 65.946358 177.315733 
L 65.714869 178.421562 
L 65.38816 179.527392 
L 64.973681 180.633221 
L 64.481361 181.739051 
L 63.92296 182.84488 
L 63.311356 183.95071 
L 62.659848 185.056539 
L 61.981548 186.162369 
L 61.28891 187.268198 
L 60.593409 188.374028 
L 59.905344 189.479857 
L 59.233739 190.585687 
L 58.586264 191.691516 
L 57.969164 192.797346 
L 57.387134 193.903175 
L 56.843176 195.009005 
L 56.338439 196.114834 
L 55.872118 197.220664 
L 55.441458 198.326493 
L 55.041919 199.432323 
L 54.667522 200.538152 
L 54.311371 201.643982 
L 53.96631 202.749811 
L 53.625621 203.855641 
L 53.283699 204.96147 
L 52.936577 206.0673 
L 52.582261 207.173129 
L 52.220802 208.278959 
L 51.854116 209.384788 
L 51.485585 210.490618 
L 51.119507 211.596447 
L 50.760478 212.702277 
L 50.412801 213.808106 
L 50.080012 214.913936 
L 49.764566 216.019765 
L 49.46772 217.125595 
L 49.189604 218.231424 
L 48.929445 219.337254 
L 48.685886 220.443083 
L 48.457345 221.548913 
L 48.242338 222.654742 
L 48.039729 223.760572 
L 48.039729 223.760572 
z
" clip-path="url(#pb2518f274c)" style="fill: none; stroke: #000000; stroke-opacity: 0.3"/>
   </g>
   <g id="FillBetweenPolyCollection_6">
    <path d="M 50.633725 218.74762 
L 42.31173 218.74762 
L 41.976611 217.883603 
L 41.639943 217.019587 
L 41.302566 216.15557 
L 40.964801 215.291553 
L 40.626455 214.427537 
L 40.286849 213.56352 
L 39.944886 212.699504 
L 39.59914 211.835487 
L 39.247963 210.97147 
L 38.889597 210.107454 
L 38.522289 209.243437 
L 38.144401 208.37942 
L 37.754497 207.515404 
L 37.351424 206.651387 
L 36.934362 205.78737 
L 36.502865 204.923354 
L 36.056884 204.059337 
L 35.596767 203.19532 
L 35.123264 202.331304 
L 34.637517 201.467287 
L 34.141052 200.603271 
L 33.635773 199.739254 
L 33.123949 198.875237 
L 32.608215 198.011221 
L 32.091557 197.147204 
L 31.577308 196.283187 
L 31.069122 195.419171 
L 30.570946 194.555154 
L 30.086976 193.691137 
L 29.621591 192.827121 
L 29.179274 191.963104 
L 28.764506 191.099088 
L 28.38165 190.235071 
L 28.034808 189.371054 
L 27.727678 188.507038 
L 27.463396 187.643021 
L 27.244379 186.779004 
L 27.072179 185.914988 
L 26.947347 185.050971 
L 26.869323 184.186954 
L 26.836364 183.322938 
L 26.845496 182.458921 
L 26.892533 181.594904 
L 26.972135 180.730888 
L 27.07793 179.866871 
L 27.202694 179.002855 
L 27.338586 178.138838 
L 27.477434 177.274821 
L 27.611069 176.410805 
L 27.731678 175.546788 
L 27.832176 174.682771 
L 27.906566 173.818755 
L 27.950272 172.954738 
L 27.96042 172.090721 
L 27.936049 171.226705 
L 27.878235 170.362688 
L 27.790117 169.498671 
L 27.676815 168.634655 
L 27.545252 167.770638 
L 27.403872 166.906622 
L 27.262281 166.042605 
L 27.130825 165.178588 
L 27.02013 164.314572 
L 26.940631 163.450555 
L 26.902117 162.586538 
L 26.913314 161.722522 
L 26.981534 160.858505 
L 27.112398 159.994488 
L 27.309658 159.130472 
L 27.575104 158.266455 
L 27.908575 157.402439 
L 28.308056 156.538422 
L 28.769845 155.674405 
L 29.288787 154.810389 
L 29.858552 153.946372 
L 30.471928 153.082355 
L 31.12113 152.218339 
L 31.798097 151.354322 
L 32.494762 150.490305 
L 33.203292 149.626289 
L 33.91629 148.762272 
L 34.626949 147.898255 
L 35.329169 147.034239 
L 36.017632 146.170222 
L 36.68784 145.306206 
L 37.336122 144.442189 
L 37.95962 143.578172 
L 38.55625 142.714156 
L 39.124646 141.850139 
L 39.664098 140.986122 
L 40.174475 140.122106 
L 40.656137 139.258089 
L 41.109852 138.394072 
L 41.5367 137.530056 
L 41.93798 136.666039 
L 42.31512 135.802022 
L 42.669586 134.938006 
L 43.002812 134.073989 
L 43.31613 133.209973 
L 49.629325 133.209973 
L 49.629325 133.209973 
L 49.942643 134.073989 
L 50.275869 134.938006 
L 50.630335 135.802022 
L 51.007474 136.666039 
L 51.408754 137.530056 
L 51.835602 138.394072 
L 52.289318 139.258089 
L 52.77098 140.122106 
L 53.281356 140.986122 
L 53.820809 141.850139 
L 54.389205 142.714156 
L 54.985834 143.578172 
L 55.609333 144.442189 
L 56.257615 145.306206 
L 56.927823 146.170222 
L 57.616286 147.034239 
L 58.318506 147.898255 
L 59.029165 148.762272 
L 59.742162 149.626289 
L 60.450693 150.490305 
L 61.147357 151.354322 
L 61.824325 152.218339 
L 62.473527 153.082355 
L 63.086903 153.946372 
L 63.656667 154.810389 
L 64.17561 155.674405 
L 64.637399 156.538422 
L 65.036879 157.402439 
L 65.370351 158.266455 
L 65.635797 159.130472 
L 65.833056 159.994488 
L 65.963921 160.858505 
L 66.032141 161.722522 
L 66.043338 162.586538 
L 66.004824 163.450555 
L 65.925325 164.314572 
L 65.814629 165.178588 
L 65.683173 166.042605 
L 65.541582 166.906622 
L 65.400202 167.770638 
L 65.26864 168.634655 
L 65.155338 169.498671 
L 65.067219 170.362688 
L 65.009405 171.226705 
L 64.985035 172.090721 
L 64.995183 172.954738 
L 65.038889 173.818755 
L 65.113279 174.682771 
L 65.213776 175.546788 
L 65.334385 176.410805 
L 65.46802 177.274821 
L 65.606869 178.138838 
L 65.742761 179.002855 
L 65.867525 179.866871 
L 65.97332 180.730888 
L 66.052922 181.594904 
L 66.099959 182.458921 
L 66.109091 183.322938 
L 66.076131 184.186954 
L 65.998108 185.050971 
L 65.873276 185.914988 
L 65.701075 186.779004 
L 65.482058 187.643021 
L 65.217776 188.507038 
L 64.910647 189.371054 
L 64.563805 190.235071 
L 64.180948 191.099088 
L 63.766181 191.963104 
L 63.323864 192.827121 
L 62.858479 193.691137 
L 62.374509 194.555154 
L 61.876333 195.419171 
L 61.368146 196.283187 
L 60.853897 197.147204 
L 60.33724 198.011221 
L 59.821505 198.875237 
L 59.309682 199.739254 
L 58.804402 200.603271 
L 58.307938 201.467287 
L 57.822191 202.331304 
L 57.348688 203.19532 
L 56.88857 204.059337 
L 56.442589 204.923354 
L 56.011093 205.78737 
L 55.594031 206.651387 
L 55.190957 207.515404 
L 54.801053 208.37942 
L 54.423165 209.243437 
L 54.055858 210.107454 
L 53.697491 210.97147 
L 53.346314 211.835487 
L 53.000569 212.699504 
L 52.658606 213.56352 
L 52.319 214.427537 
L 51.980653 215.291553 
L 51.642889 216.15557 
L 51.305511 217.019587 
L 50.968843 217.883603 
L 50.633725 218.74762 
L 50.633725 218.74762 
z
" clip-path="url(#pb2518f274c)" style="fill: none; stroke: #000000; stroke-opacity: 0.3"/>
   </g>
   <g id="FillBetweenPolyCollection_7">
    <path d="M 47.060688 240.03451 
L 45.884767 240.03451 
L 45.88026 238.795369 
L 45.881533 237.556229 
L 45.88683 236.317088 
L 45.893788 235.077947 
L 45.899531 233.838807 
L 45.900789 232.599666 
L 45.894043 231.360526 
L 45.875681 230.121385 
L 45.842153 228.882245 
L 45.790106 227.643104 
L 45.716496 226.403963 
L 45.618663 225.164823 
L 45.494362 223.925682 
L 45.341745 222.686542 
L 45.159311 221.447401 
L 44.945803 220.208261 
L 44.700096 218.96912 
L 44.421072 217.729979 
L 44.107511 216.490839 
L 43.758017 215.251698 
L 43.371012 214.012558 
L 42.944793 212.773417 
L 42.477676 211.534277 
L 41.968218 210.295136 
L 41.415492 209.055995 
L 40.819396 207.816855 
L 40.18096 206.577714 
L 39.502596 205.338574 
L 38.788263 204.099433 
L 38.043506 202.860292 
L 37.275358 201.621152 
L 36.492098 200.382011 
L 35.702873 199.142871 
L 34.917237 197.90373 
L 34.144627 196.66459 
L 33.393857 195.425449 
L 32.672652 194.186308 
L 31.987303 192.947168 
L 31.342444 191.708027 
L 30.741003 190.468887 
L 30.184304 189.229746 
L 29.672324 187.990606 
L 29.204063 186.751465 
L 28.777993 185.512324 
L 28.392536 184.273184 
L 28.046521 183.034043 
L 27.739572 181.794903 
L 27.472387 180.555762 
L 27.24687 179.316622 
L 27.066114 178.077481 
L 26.934217 176.83834 
L 26.85596 175.5992 
L 26.836364 174.360059 
L 26.880177 173.120919 
L 26.991345 171.881778 
L 27.172506 170.642638 
L 27.424569 169.403497 
L 27.746417 168.164356 
L 28.134768 166.925216 
L 28.584192 165.686075 
L 29.087302 164.446935 
L 29.635084 163.207794 
L 30.217339 161.968654 
L 30.8232 160.729513 
L 31.441664 159.490372 
L 32.062117 158.251232 
L 32.674784 157.012091 
L 33.271101 155.772951 
L 33.843961 154.53381 
L 34.387855 153.29467 
L 34.898889 152.055529 
L 35.374716 150.816388 
L 35.814382 149.577248 
L 36.218145 148.338107 
L 36.587271 147.098967 
L 36.923848 145.859826 
L 37.230627 144.620686 
L 37.51091 143.381545 
L 37.768466 142.142404 
L 38.007476 140.903264 
L 38.232489 139.664123 
L 38.448359 138.424983 
L 38.660152 137.185842 
L 38.873012 135.946702 
L 39.09197 134.707561 
L 39.321723 133.46842 
L 39.566381 132.22928 
L 39.829213 130.990139 
L 40.112427 129.750999 
L 40.417002 128.511858 
L 40.742592 127.272717 
L 41.087526 126.033577 
L 41.448904 124.794436 
L 41.822773 123.555296 
L 42.204377 122.316155 
L 42.588452 121.077015 
L 42.969535 119.837874 
L 43.342277 118.598733 
L 43.701705 117.359593 
L 49.243749 117.359593 
L 49.243749 117.359593 
L 49.603178 118.598733 
L 49.975919 119.837874 
L 50.357003 121.077015 
L 50.741077 122.316155 
L 51.122681 123.555296 
L 51.496551 124.794436 
L 51.857929 126.033577 
L 52.202863 127.272717 
L 52.528452 128.511858 
L 52.833027 129.750999 
L 53.116242 130.990139 
L 53.379074 132.22928 
L 53.623731 133.46842 
L 53.853484 134.707561 
L 54.072443 135.946702 
L 54.285302 137.185842 
L 54.497096 138.424983 
L 54.712966 139.664123 
L 54.937979 140.903264 
L 55.176989 142.142404 
L 55.434544 143.381545 
L 55.714827 144.620686 
L 56.021607 145.859826 
L 56.358183 147.098967 
L 56.727309 148.338107 
L 57.131072 149.577248 
L 57.570739 150.816388 
L 58.046565 152.055529 
L 58.5576 153.29467 
L 59.101493 154.53381 
L 59.674353 155.772951 
L 60.27067 157.012091 
L 60.883338 158.251232 
L 61.503791 159.490372 
L 62.122255 160.729513 
L 62.728115 161.968654 
L 63.310371 163.207794 
L 63.858152 164.446935 
L 64.361262 165.686075 
L 64.810686 166.925216 
L 65.199037 168.164356 
L 65.520886 169.403497 
L 65.772949 170.642638 
L 65.954109 171.881778 
L 66.065278 173.120919 
L 66.109091 174.360059 
L 66.089494 175.5992 
L 66.011237 176.83834 
L 65.879341 178.077481 
L 65.698585 179.316622 
L 65.473068 180.555762 
L 65.205882 181.794903 
L 64.898934 183.034043 
L 64.552919 184.273184 
L 64.167461 185.512324 
L 63.741391 186.751465 
L 63.273131 187.990606 
L 62.761151 189.229746 
L 62.204452 190.468887 
L 61.603011 191.708027 
L 60.958152 192.947168 
L 60.272802 194.186308 
L 59.551598 195.425449 
L 58.800828 196.66459 
L 58.028218 197.90373 
L 57.242581 199.142871 
L 56.453357 200.382011 
L 55.670096 201.621152 
L 54.901949 202.860292 
L 54.157192 204.099433 
L 53.442858 205.338574 
L 52.764495 206.577714 
L 52.126059 207.816855 
L 51.529963 209.055995 
L 50.977236 210.295136 
L 50.467778 211.534277 
L 50.000662 212.773417 
L 49.574443 214.012558 
L 49.187438 215.251698 
L 48.837944 216.490839 
L 48.524382 217.729979 
L 48.245359 218.96912 
L 47.999652 220.208261 
L 47.786144 221.447401 
L 47.603709 222.686542 
L 47.451093 223.925682 
L 47.326791 225.164823 
L 47.228958 226.403963 
L 47.155348 227.643104 
L 47.103301 228.882245 
L 47.069773 230.121385 
L 47.051411 231.360526 
L 47.044665 232.599666 
L 47.045923 233.838807 
L 47.051666 235.077947 
L 47.058625 236.317088 
L 47.063921 237.556229 
L 47.065195 238.795369 
L 47.060688 240.03451 
L 47.060688 240.03451 
z
" clip-path="url(#pb2518f274c)" style="fill: none; stroke: #000000; stroke-opacity: 0.3"/>
   </g>
   <g id="FillBetweenPolyCollection_8">
    <path d="M 112.132209 189.425042 
L 111.722337 189.425042 
L 111.728891 187.986003 
L 111.747322 186.546965 
L 111.774307 185.107926 
L 111.805409 183.668888 
L 111.836235 182.229849 
L 111.863382 180.79081 
L 111.884862 179.351772 
L 111.899996 177.912733 
L 111.908946 176.473695 
L 111.91213 175.034656 
L 111.909759 173.595618 
L 111.901646 172.156579 
L 111.887323 170.71754 
L 111.866434 169.278502 
L 111.839251 167.839463 
L 111.807078 166.400425 
L 111.772306 164.961386 
L 111.737924 163.522347 
L 111.706557 162.083309 
L 111.67933 160.64427 
L 111.655051 159.205232 
L 111.630146 157.766193 
L 111.599443 156.327154 
L 111.557475 154.888116 
L 111.499703 153.449077 
L 111.423029 152.010039 
L 111.325444 150.571 
L 111.205092 149.131962 
L 111.059419 147.692923 
L 110.884976 146.253884 
L 110.678026 144.814846 
L 110.435575 143.375807 
L 110.156231 141.936769 
L 109.840402 140.49773 
L 109.489814 139.058691 
L 109.106635 137.619653 
L 108.692604 136.180614 
L 108.248287 134.741576 
L 107.772357 133.302537 
L 107.260726 131.863499 
L 106.705659 130.42446 
L 106.095373 128.985421 
L 105.414857 127.546383 
L 104.648345 126.107344 
L 103.783226 124.668306 
L 102.814329 123.229267 
L 101.747086 121.790228 
L 100.59834 120.35119 
L 99.394531 118.912151 
L 98.16826 117.473113 
L 96.95502 116.034074 
L 95.79181 114.595035 
L 94.718213 113.155997 
L 93.778878 111.716958 
L 93.024967 110.27792 
L 92.511768 108.838881 
L 92.290909 107.399843 
L 92.398039 105.960804 
L 92.839714 104.521765 
L 93.584914 103.082727 
L 94.565996 101.643688 
L 95.690662 100.20465 
L 96.861969 98.765611 
L 97.999657 97.326572 
L 99.055161 95.887534 
L 100.015152 94.448495 
L 100.89333 93.009457 
L 101.715 91.570418 
L 102.501574 90.131379 
L 103.26133 88.692341 
L 103.989204 87.253302 
L 104.673831 85.814264 
L 105.306919 84.375225 
L 105.889588 82.936187 
L 106.432681 81.497148 
L 106.95161 80.058109 
L 107.459097 78.619071 
L 107.959807 77.180032 
L 108.44927 75.740994 
L 108.916899 74.301955 
L 109.350914 72.862916 
L 109.742559 71.423878 
L 110.088032 69.984839 
L 110.388093 68.545801 
L 110.646383 67.106762 
L 110.867669 65.667723 
L 111.056672 64.228685 
L 111.217497 62.789646 
L 111.353383 61.350608 
L 111.466529 59.911569 
L 111.558071 58.472531 
L 111.628369 57.033492 
L 111.677701 55.594453 
L 111.707223 54.155415 
L 111.719795 52.716376 
L 111.720267 51.277338 
L 111.714986 49.838299 
L 111.710599 48.39926 
L 111.712574 46.960222 
L 112.141972 46.960222 
L 112.141972 46.960222 
L 112.143947 48.39926 
L 112.139559 49.838299 
L 112.134278 51.277338 
L 112.134751 52.716376 
L 112.147322 54.155415 
L 112.176844 55.594453 
L 112.226177 57.033492 
L 112.296474 58.472531 
L 112.388017 59.911569 
L 112.501163 61.350608 
L 112.637048 62.789646 
L 112.797874 64.228685 
L 112.986876 65.667723 
L 113.208162 67.106762 
L 113.466452 68.545801 
L 113.766513 69.984839 
L 114.111987 71.423878 
L 114.503631 72.862916 
L 114.937646 74.301955 
L 115.405275 75.740994 
L 115.894738 77.180032 
L 116.395448 78.619071 
L 116.902935 80.058109 
L 117.421864 81.497148 
L 117.964958 82.936187 
L 118.547626 84.375225 
L 119.180714 85.814264 
L 119.865342 87.253302 
L 120.593215 88.692341 
L 121.352971 90.131379 
L 122.139545 91.570418 
L 122.961216 93.009457 
L 123.839393 94.448495 
L 124.799384 95.887534 
L 125.854888 97.326572 
L 126.992577 98.765611 
L 128.163883 100.20465 
L 129.288549 101.643688 
L 130.269631 103.082727 
L 131.014831 104.521765 
L 131.456506 105.960804 
L 131.563636 107.399843 
L 131.342777 108.838881 
L 130.829579 110.27792 
L 130.075667 111.716958 
L 129.136333 113.155997 
L 128.062735 114.595035 
L 126.899525 116.034074 
L 125.686285 117.473113 
L 124.460014 118.912151 
L 123.256206 120.35119 
L 122.107459 121.790228 
L 121.040216 123.229267 
L 120.071319 124.668306 
L 119.2062 126.107344 
L 118.439688 127.546383 
L 117.759172 128.985421 
L 117.148887 130.42446 
L 116.593819 131.863499 
L 116.082189 133.302537 
L 115.606259 134.741576 
L 115.161942 136.180614 
L 114.74791 137.619653 
L 114.364731 139.058691 
L 114.014143 140.49773 
L 113.698315 141.936769 
L 113.41897 143.375807 
L 113.17652 144.814846 
L 112.969569 146.253884 
L 112.795127 147.692923 
L 112.649453 149.131962 
L 112.529101 150.571 
L 112.431517 152.010039 
L 112.354843 153.449077 
L 112.29707 154.888116 
L 112.255103 156.327154 
L 112.224399 157.766193 
L 112.199495 159.205232 
L 112.175216 160.64427 
L 112.147988 162.083309 
L 112.116621 163.522347 
L 112.08224 164.961386 
L 112.047467 166.400425 
L 112.015295 167.839463 
L 111.988111 169.278502 
L 111.967222 170.71754 
L 111.952899 172.156579 
L 111.944786 173.595618 
L 111.942415 175.034656 
L 111.945599 176.473695 
L 111.95455 177.912733 
L 111.969684 179.351772 
L 111.991163 180.79081 
L 112.01831 182.229849 
L 112.049137 183.668888 
L 112.080238 185.107926 
L 112.107224 186.546965 
L 112.125655 187.986003 
L 112.132209 189.425042 
L 112.132209 189.425042 
z
" clip-path="url(#pb2518f274c)" style="fill: none; stroke: #000000; stroke-opacity: 0.3"/>
   </g>
   <g id="FillBetweenPolyCollection_9">
    <path d="M 114.305957 145.900087 
L 109.548589 145.900087 
L 109.156298 144.749627 
L 108.763854 143.599167 
L 108.37824 142.448707 
L 108.002218 141.298246 
L 107.633659 140.147786 
L 107.265761 138.997326 
L 106.888107 137.846865 
L 106.488316 136.696405 
L 106.053964 135.545945 
L 105.57441 134.395484 
L 105.042254 133.245024 
L 104.454272 132.094564 
L 103.811803 130.944104 
L 103.12063 129.793643 
L 102.390459 128.643183 
L 101.63409 127.492723 
L 100.866365 126.342262 
L 100.102993 125.191802 
L 99.359313 124.041342 
L 98.649101 122.890882 
L 97.983501 121.740421 
L 97.37018 120.589961 
L 96.812795 119.439501 
L 96.310853 118.28904 
L 95.860038 117.13858 
L 95.452998 115.98812 
L 95.080528 114.837659 
L 94.732996 113.687199 
L 94.401778 112.536739 
L 94.080481 111.386279 
L 93.765827 110.235818 
L 93.458166 109.085358 
L 93.161746 107.934898 
L 92.884908 106.784437 
L 92.640283 105.633977 
L 92.444944 104.483517 
L 92.320233 103.333057 
L 92.290909 102.182596 
L 92.38333 101.032136 
L 92.622605 99.881676 
L 93.029038 98.731215 
L 93.614489 97.580755 
L 94.379454 96.430295 
L 95.311589 95.279834 
L 96.38608 94.129374 
L 97.567839 92.978914 
L 98.81509 91.828454 
L 100.083613 90.677993 
L 101.330893 89.527533 
L 102.51954 88.377073 
L 103.619642 87.226612 
L 104.609981 86.076152 
L 105.478268 84.925692 
L 106.220646 83.775231 
L 106.84069 82.624771 
L 107.348083 81.474311 
L 107.757049 80.323851 
L 108.084632 79.17339 
L 108.348901 78.02293 
L 108.567233 76.87247 
L 108.754888 75.722009 
L 108.924027 74.571549 
L 109.08333 73.421089 
L 109.238183 72.270629 
L 109.391344 71.120168 
L 109.543834 69.969708 
L 109.695831 68.819248 
L 109.847333 67.668787 
L 109.998473 66.518327 
L 110.149485 65.367867 
L 110.300432 64.217406 
L 110.450862 63.066946 
L 110.599566 61.916486 
L 110.744578 60.766026 
L 110.883424 59.615565 
L 111.013567 58.465105 
L 111.132912 57.314645 
L 111.240208 56.164184 
L 111.335235 55.013724 
L 111.418722 53.863264 
L 111.492036 52.712803 
L 111.556757 51.562343 
L 111.614259 50.411883 
L 111.665406 49.261423 
L 111.710438 48.110962 
L 111.749023 46.960502 
L 111.780451 45.810042 
L 111.803891 44.659581 
L 111.818648 43.509121 
L 111.824395 42.358661 
L 111.821333 41.208201 
L 111.810303 40.05774 
L 111.792816 38.90728 
L 111.771014 37.75682 
L 111.747522 36.606359 
L 111.725214 35.455899 
L 111.706896 34.305439 
L 111.694943 33.154978 
L 111.690981 32.004518 
L 112.163565 32.004518 
L 112.163565 32.004518 
L 112.159602 33.154978 
L 112.14765 34.305439 
L 112.129331 35.455899 
L 112.107024 36.606359 
L 112.083532 37.75682 
L 112.061729 38.90728 
L 112.044243 40.05774 
L 112.033213 41.208201 
L 112.030151 42.358661 
L 112.035897 43.509121 
L 112.050655 44.659581 
L 112.074094 45.810042 
L 112.105522 46.960502 
L 112.144107 48.110962 
L 112.189139 49.261423 
L 112.240287 50.411883 
L 112.297789 51.562343 
L 112.36251 52.712803 
L 112.435824 53.863264 
L 112.51931 55.013724 
L 112.614338 56.164184 
L 112.721634 57.314645 
L 112.840978 58.465105 
L 112.971121 59.615565 
L 113.109967 60.766026 
L 113.25498 61.916486 
L 113.403684 63.066946 
L 113.554113 64.217406 
L 113.705061 65.367867 
L 113.856073 66.518327 
L 114.007213 67.668787 
L 114.158715 68.819248 
L 114.310712 69.969708 
L 114.463201 71.120168 
L 114.616362 72.270629 
L 114.771216 73.421089 
L 114.930518 74.571549 
L 115.099658 75.722009 
L 115.287312 76.87247 
L 115.505645 78.02293 
L 115.769913 79.17339 
L 116.097497 80.323851 
L 116.506463 81.474311 
L 117.013855 82.624771 
L 117.633899 83.775231 
L 118.376277 84.925692 
L 119.244565 86.076152 
L 120.234904 87.226612 
L 121.335005 88.377073 
L 122.523652 89.527533 
L 123.770932 90.677993 
L 125.039456 91.828454 
L 126.286707 92.978914 
L 127.468466 94.129374 
L 128.542956 95.279834 
L 129.475091 96.430295 
L 130.240057 97.580755 
L 130.825507 98.731215 
L 131.23194 99.881676 
L 131.471215 101.032136 
L 131.563636 102.182596 
L 131.534313 103.333057 
L 131.409601 104.483517 
L 131.214263 105.633977 
L 130.969638 106.784437 
L 130.692799 107.934898 
L 130.39638 109.085358 
L 130.088718 110.235818 
L 129.774064 111.386279 
L 129.452768 112.536739 
L 129.121549 113.687199 
L 128.774018 114.837659 
L 128.401548 115.98812 
L 127.994507 117.13858 
L 127.543692 118.28904 
L 127.041751 119.439501 
L 126.484366 120.589961 
L 125.871045 121.740421 
L 125.205445 122.890882 
L 124.495232 124.041342 
L 123.751552 125.191802 
L 122.98818 126.342262 
L 122.220456 127.492723 
L 121.464086 128.643183 
L 120.733916 129.793643 
L 120.042743 130.944104 
L 119.400273 132.094564 
L 118.812292 133.245024 
L 118.280135 134.395484 
L 117.800582 135.545945 
L 117.36623 136.696405 
L 116.966438 137.846865 
L 116.588784 138.997326 
L 116.220887 140.147786 
L 115.852327 141.298246 
L 115.476305 142.448707 
L 115.090691 143.599167 
L 114.698247 144.749627 
L 114.305957 145.900087 
L 114.305957 145.900087 
z
" clip-path="url(#pb2518f274c)" style="fill: none; stroke: #000000; stroke-opacity: 0.3"/>
   </g>
   <g id="FillBetweenPolyCollection_10">
    <path d="M 112.214837 160.18644 
L 111.639709 160.18644 
L 111.643206 159.117291 
L 111.655926 158.048142 
L 111.675349 156.978993 
L 111.697955 155.909845 
L 111.719754 154.840696 
L 111.736864 153.771547 
L 111.746046 152.702398 
L 111.74506 151.63325 
L 111.732811 150.564101 
L 111.709223 149.494952 
L 111.674871 148.425803 
L 111.630415 147.356655 
L 111.575932 146.287506 
L 111.510304 145.218357 
L 111.430807 144.149208 
L 111.33307 143.08006 
L 111.211466 142.010911 
L 111.059919 140.941762 
L 110.872952 139.872613 
L 110.646762 138.803465 
L 110.380025 137.734316 
L 110.074246 136.665167 
L 109.733558 135.596018 
L 109.364018 134.52687 
L 108.972568 133.457721 
L 108.565824 132.388572 
L 108.148879 131.319424 
L 107.724215 130.250275 
L 107.290825 129.181126 
L 106.843649 128.111977 
L 106.3735 127.042829 
L 105.867672 125.97368 
L 105.311396 124.904531 
L 104.690122 123.835382 
L 103.992384 122.766234 
L 103.212735 121.697085 
L 102.354082 120.627936 
L 101.428793 119.558787 
L 100.458134 118.489639 
L 99.469998 117.42049 
L 98.495283 116.351341 
L 97.563635 115.282192 
L 96.699445 114.213044 
L 95.918913 113.143895 
L 95.228802 112.074746 
L 94.627085 111.005597 
L 94.105327 109.936449 
L 93.652294 108.8673 
L 93.258058 107.798151 
L 92.917822 106.729002 
L 92.634707 105.659854 
L 92.420984 104.590705 
L 92.297436 103.521556 
L 92.290909 102.452407 
L 92.430371 101.383259 
L 92.742101 100.31411 
L 93.244757 99.244961 
L 93.945139 98.175812 
L 94.835345 97.106664 
L 95.891865 96.037515 
L 97.076865 94.968366 
L 98.34159 93.899218 
L 99.631501 92.830069 
L 100.892393 91.76092 
L 102.076554 90.691771 
L 103.147913 89.622623 
L 104.085279 88.553474 
L 104.883143 87.484325 
L 105.549994 86.415176 
L 106.104648 85.346028 
L 106.571449 84.276879 
L 106.975396 83.20773 
L 107.33813 82.138581 
L 107.675403 81.069433 
L 107.996232 80.000284 
L 108.303567 78.931135 
L 108.595991 77.861986 
L 108.869864 76.792838 
L 109.121361 75.723689 
L 109.348007 74.65454 
L 109.549491 73.585391 
L 109.727781 72.516243 
L 109.88668 71.447094 
L 110.031059 70.377945 
L 110.165993 69.308796 
L 110.29597 68.239648 
L 110.424297 67.170499 
L 110.552719 66.10135 
L 110.681302 65.032201 
L 110.808558 63.963053 
L 110.931819 62.893904 
L 111.04783 61.824755 
L 111.15346 60.755606 
L 111.246418 59.686458 
L 111.325778 58.617309 
L 111.392201 57.54816 
L 111.447772 56.479011 
L 111.495499 55.409863 
L 111.538623 54.340714 
L 112.315922 54.340714 
L 112.315922 54.340714 
L 112.359046 55.409863 
L 112.406774 56.479011 
L 112.462344 57.54816 
L 112.528767 58.617309 
L 112.608127 59.686458 
L 112.701085 60.755606 
L 112.806716 61.824755 
L 112.922726 62.893904 
L 113.045987 63.963053 
L 113.173243 65.032201 
L 113.301827 66.10135 
L 113.430249 67.170499 
L 113.558575 68.239648 
L 113.688553 69.308796 
L 113.823486 70.377945 
L 113.967865 71.447094 
L 114.126764 72.516243 
L 114.305054 73.585391 
L 114.506538 74.65454 
L 114.733184 75.723689 
L 114.984682 76.792838 
L 115.258554 77.861986 
L 115.550978 78.931135 
L 115.858313 80.000284 
L 116.179142 81.069433 
L 116.516415 82.138581 
L 116.87915 83.20773 
L 117.283097 84.276879 
L 117.749897 85.346028 
L 118.304551 86.415176 
L 118.971403 87.484325 
L 119.769266 88.553474 
L 120.706633 89.622623 
L 121.777992 90.691771 
L 122.962153 91.76092 
L 124.223045 92.830069 
L 125.512955 93.899218 
L 126.777681 94.968366 
L 127.962681 96.037515 
L 129.019201 97.106664 
L 129.909406 98.175812 
L 130.609788 99.244961 
L 131.112445 100.31411 
L 131.424174 101.383259 
L 131.563636 102.452407 
L 131.557109 103.521556 
L 131.433562 104.590705 
L 131.219838 105.659854 
L 130.936724 106.729002 
L 130.596487 107.798151 
L 130.202252 108.8673 
L 129.749218 109.936449 
L 129.227461 111.005597 
L 128.625744 112.074746 
L 127.935632 113.143895 
L 127.1551 114.213044 
L 126.29091 115.282192 
L 125.359263 116.351341 
L 124.384547 117.42049 
L 123.396411 118.489639 
L 122.425753 119.558787 
L 121.500464 120.627936 
L 120.641811 121.697085 
L 119.862161 122.766234 
L 119.164423 123.835382 
L 118.543149 124.904531 
L 117.986873 125.97368 
L 117.481045 127.042829 
L 117.010896 128.111977 
L 116.56372 129.181126 
L 116.13033 130.250275 
L 115.705666 131.319424 
L 115.288721 132.388572 
L 114.881977 133.457721 
L 114.490527 134.52687 
L 114.120988 135.596018 
L 113.780299 136.665167 
L 113.47452 137.734316 
L 113.207783 138.803465 
L 112.981593 139.872613 
L 112.794627 140.941762 
L 112.643079 142.010911 
L 112.521476 143.08006 
L 112.423738 144.149208 
L 112.344241 145.218357 
L 112.278613 146.287506 
L 112.224131 147.356655 
L 112.179674 148.425803 
L 112.145323 149.494952 
L 112.121734 150.564101 
L 112.109485 151.63325 
L 112.108499 152.702398 
L 112.117681 153.771547 
L 112.134792 154.840696 
L 112.15659 155.909845 
L 112.179197 156.978993 
L 112.19862 158.048142 
L 112.211339 159.117291 
L 112.214837 160.18644 
L 112.214837 160.18644 
z
" clip-path="url(#pb2518f274c)" style="fill: none; stroke: #000000; stroke-opacity: 0.3"/>
   </g>
   <g id="FillBetweenPolyCollection_11">
    <path d="M 112.203456 184.393577 
L 111.651089 184.393577 
L 111.64559 182.966529 
L 111.646912 181.539481 
L 111.651838 180.112432 
L 111.656788 178.685384 
L 111.658886 177.258335 
L 111.656813 175.831287 
L 111.651135 174.404239 
L 111.643984 172.97719 
L 111.638181 171.550142 
L 111.636077 170.123094 
L 111.638495 168.696045 
L 111.6441 167.268997 
L 111.649391 165.841948 
L 111.649263 164.4149 
L 111.637946 162.987852 
L 111.609974 161.560803 
L 111.560876 160.133755 
L 111.487414 158.706706 
L 111.387357 157.279658 
L 111.259021 155.85261 
L 111.100877 154.425561 
L 110.911568 152.998513 
L 110.69046 151.571464 
L 110.438598 150.144416 
L 110.15964 148.717368 
L 109.86022 147.290319 
L 109.549286 145.863271 
L 109.236322 144.436222 
L 108.92886 143.009174 
L 108.630013 141.582126 
L 108.336883 140.155077 
L 108.040402 138.728029 
L 107.726645 137.300981 
L 107.379156 135.873932 
L 106.981503 134.446884 
L 106.519326 133.019835 
L 105.981418 131.592787 
L 105.359859 130.165739 
L 104.649561 128.73869 
L 103.84782 127.311642 
L 102.954422 125.884593 
L 101.972642 124.457545 
L 100.911038 123.030497 
L 99.785545 121.603448 
L 98.621018 120.1764 
L 97.451315 118.749351 
L 96.317324 117.322303 
L 95.262937 115.895255 
L 94.329793 114.468206 
L 93.55212 113.041158 
L 92.953137 111.614109 
L 92.544003 110.187061 
L 92.325398 108.760013 
L 92.290909 107.332964 
L 92.430828 105.905916 
L 92.735012 104.478868 
L 93.194 103.051819 
L 93.798428 101.624771 
L 94.537476 100.197722 
L 95.397334 98.770674 
L 96.360495 97.343626 
L 97.406122 95.916577 
L 98.511204 94.489529 
L 99.651906 93.06248 
L 100.804621 91.635432 
L 101.946563 90.208384 
L 103.056135 88.781335 
L 104.113479 87.354287 
L 105.101447 85.927238 
L 106.006889 84.50019 
L 106.821812 83.073142 
L 107.543852 81.646093 
L 108.175733 80.219045 
L 108.723826 78.791996 
L 109.196307 77.364948 
L 109.601583 75.9379 
L 109.947457 74.510851 
L 110.241117 73.083803 
L 110.489596 71.656755 
L 110.700189 70.229706 
L 110.880391 68.802658 
L 111.037262 67.375609 
L 111.176457 65.948561 
L 111.30137 64.521513 
L 111.412775 63.094464 
L 111.509131 61.667416 
L 111.587467 60.240367 
L 111.644536 58.813319 
L 111.677953 57.386271 
L 111.687062 55.959222 
L 111.673444 54.532174 
L 111.641031 53.105125 
L 111.595851 51.678077 
L 111.545442 50.251029 
L 111.49796 48.82398 
L 111.461084 47.396932 
L 111.440897 45.969883 
L 111.440969 44.542835 
L 111.461864 43.115787 
L 112.392682 43.115787 
L 112.392682 43.115787 
L 112.413576 44.542835 
L 112.413649 45.969883 
L 112.393462 47.396932 
L 112.356585 48.82398 
L 112.309103 50.251029 
L 112.258695 51.678077 
L 112.213515 53.105125 
L 112.181101 54.532174 
L 112.167483 55.959222 
L 112.176593 57.386271 
L 112.210009 58.813319 
L 112.267078 60.240367 
L 112.345414 61.667416 
L 112.441771 63.094464 
L 112.553175 64.521513 
L 112.678088 65.948561 
L 112.817283 67.375609 
L 112.974154 68.802658 
L 113.154356 70.229706 
L 113.36495 71.656755 
L 113.613429 73.083803 
L 113.907089 74.510851 
L 114.252963 75.9379 
L 114.658238 77.364948 
L 115.130719 78.791996 
L 115.678813 80.219045 
L 116.310694 81.646093 
L 117.032733 83.073142 
L 117.847656 84.50019 
L 118.753098 85.927238 
L 119.741066 87.354287 
L 120.79841 88.781335 
L 121.907983 90.208384 
L 123.049924 91.635432 
L 124.20264 93.06248 
L 125.343342 94.489529 
L 126.448424 95.916577 
L 127.494051 97.343626 
L 128.457211 98.770674 
L 129.317069 100.197722 
L 130.056118 101.624771 
L 130.660546 103.051819 
L 131.119533 104.478868 
L 131.423717 105.905916 
L 131.563636 107.332964 
L 131.529147 108.760013 
L 131.310543 110.187061 
L 130.901409 111.614109 
L 130.302425 113.041158 
L 129.524752 114.468206 
L 128.591609 115.895255 
L 127.537222 117.322303 
L 126.40323 118.749351 
L 125.233528 120.1764 
L 124.069001 121.603448 
L 122.943507 123.030497 
L 121.881903 124.457545 
L 120.900123 125.884593 
L 120.006725 127.311642 
L 119.204984 128.73869 
L 118.494687 130.165739 
L 117.873128 131.592787 
L 117.33522 133.019835 
L 116.873042 134.446884 
L 116.47539 135.873932 
L 116.127901 137.300981 
L 115.814144 138.728029 
L 115.517663 140.155077 
L 115.224533 141.582126 
L 114.925685 143.009174 
L 114.618223 144.436222 
L 114.30526 145.863271 
L 113.994325 147.290319 
L 113.694906 148.717368 
L 113.415948 150.144416 
L 113.164085 151.571464 
L 112.942977 152.998513 
L 112.753668 154.425561 
L 112.595524 155.85261 
L 112.467188 157.279658 
L 112.367132 158.706706 
L 112.293669 160.133755 
L 112.244572 161.560803 
L 112.216599 162.987852 
L 112.205283 164.4149 
L 112.205155 165.841948 
L 112.210445 167.268997 
L 112.216051 168.696045 
L 112.218468 170.123094 
L 112.216364 171.550142 
L 112.210561 172.97719 
L 112.203411 174.404239 
L 112.197733 175.831287 
L 112.195659 177.258335 
L 112.197757 178.685384 
L 112.202707 180.112432 
L 112.207633 181.539481 
L 112.208956 182.966529 
L 112.203456 184.393577 
L 112.203456 184.393577 
z
" clip-path="url(#pb2518f274c)" style="fill: none; stroke: #000000; stroke-opacity: 0.3"/>
   </g>
   <g id="matplotlib.axis_1">
    <g id="xtick_1">
     <g id="line2d_1">
      <defs>
       <path id="m526a081328" d="M 0 0 
L 0 3.5 
" style="stroke: #000000; stroke-width: 0.8"/>
      </defs>
      <g>
       <use xlink:href="#m526a081328" x="46.472727" y="291.6" style="stroke: #000000; stroke-width: 0.8"/>
      </g>
     </g>
     <g id="text_1">
      <text style="font-size: 10px; font-family: 'DejaVu Sans', 'Bitstream Vera Sans', 'Computer Modern Sans Serif', 'Lucida Grande', 'Verdana', 'Geneva', 'Lucid', 'Arial', 'Helvetica', 'Avant Garde', sans-serif; text-anchor: middle" x="46.472727" y="306.198438" transform="rotate(-0 46.472727 306.198438)">0.3</text>
     </g>
    </g>
    <g id="xtick_2">
     <g id="line2d_2">
      <g>
       <use xlink:href="#m526a081328" x="111.927273" y="291.6" style="stroke: #000000; stroke-width: 0.8"/>
      </g>
     </g>
     <g id="text_2">
      <text style="font-size: 10px; font-family: 'DejaVu Sans', 'Bitstream Vera Sans', 'Computer Modern Sans Serif', 'Lucida Grande', 'Verdana', 'Geneva', 'Lucid', 'Arial', 'Helvetica', 'Avant Garde', sans-serif; text-anchor: middle" x="111.927273" y="306.198438" transform="rotate(-0 111.927273 306.198438)">0.6</text>
     </g>
    </g>
   </g>
   <g id="matplotlib.axis_2">
    <g id="ytick_1">
     <g id="line2d_3">
      <defs>
       <path id="mf1ab9d3f02" d="M 0 0 
L -3.5 0 
" style="stroke: #000000; stroke-width: 0.8"/>
      </defs>
      <g>
       <use xlink:href="#mf1ab9d3f02" x="21.6" y="291.6" style="stroke: #000000; stroke-width: 0.8"/>
      </g>
     </g>
    </g>
    <g id="ytick_2">
     <g id="line2d_4">
      <g>
       <use xlink:href="#mf1ab9d3f02" x="21.6" y="199.8" style="stroke: #000000; stroke-width: 0.8"/>
      </g>
     </g>
    </g>
    <g id="ytick_3">
     <g id="line2d_5">
      <g>
       <use xlink:href="#mf1ab9d3f02" x="21.6" y="108" style="stroke: #000000; stroke-width: 0.8"/>
      </g>
     </g>
    </g>
    <g id="ytick_4">
     <g id="line2d_6">
      <g>
       <use xlink:href="#mf1ab9d3f02" x="21.6" y="16.2" style="stroke: #000000; stroke-width: 0.8"/>
      </g>
     </g>
    </g>
   </g>
   <g id="line2d_7">
    <path d="M 46.472727 269.568 
L 46.472727 264.06 
" clip-path="url(#pb2518f274c)" style="fill: none; stroke: #000000; stroke-linecap: square"/>
   </g>
   <g id="line2d_8">
    <path d="M 46.472727 269.568 
L 111.927273 269.568 
" clip-path="url(#pb2518f274c)" style="fill: none; stroke: #000000; stroke-linecap: square"/>
   </g>
   <g id="line2d_9">
    <path d="M 111.927273 269.568 
L 111.927273 264.06 
" clip-path="url(#pb2518f274c)" style="fill: none; stroke: #000000; stroke-linecap: square"/>
   </g>
   <g id="patch_3">
    <path d="M 21.6 291.6 
L 21.6 16.2 
" style="fill: none; stroke: #000000; stroke-width: 0.8; stroke-linejoin: miter; stroke-linecap: square"/>
   </g>
   <g id="patch_4">
    <path d="M 136.8 291.6 
L 136.8 16.2 
" style="fill: none; stroke: #000000; stroke-width: 0.8; stroke-linejoin: miter; stroke-linecap: square"/>
   </g>
   <g id="patch_5">
    <path d="M 21.6 291.6 
L 136.8 291.6 
" style="fill: none; stroke: #000000; stroke-width: 0.8; stroke-linejoin: miter; stroke-linecap: square"/>
   </g>
   <g id="patch_6">
    <path d="M 21.6 16.2 
L 136.8 16.2 
" style="fill: none; stroke: #000000; stroke-width: 0.8; stroke-linejoin: miter; stroke-linecap: square"/>
   </g>
   <g id="text_3">
    <text style="font-weight: 700; font-size: 12px; font-family: 'DejaVu Sans', 'Bitstream Vera Sans', 'Computer Modern Sans Serif', 'Lucida Grande', 'Verdana', 'Geneva', 'Lucid', 'Arial', 'Helvetica', 'Avant Garde', sans-serif; text-anchor: middle" x="46.472727" y="289.104375" transform="rotate(-0 46.472727 289.104375)">#5</text>
   </g>
   <g id="text_4">
    <text style="font-weight: 700; font-size: 12px; font-family: 'DejaVu Sans', 'Bitstream Vera Sans', 'Computer Modern Sans Serif', 'Lucida Grande', 'Verdana', 'Geneva', 'Lucid', 'Arial', 'Helvetica', 'Avant Garde', sans-serif; text-anchor: middle" x="111.927273" y="289.104375" transform="rotate(-0 111.927273 289.104375)">#19</text>
   </g>
   <g id="text_5">
    <text style="font-size: 12px; font-family: 'DejaVu Sans', 'Bitstream Vera Sans', 'Computer Modern Sans Serif', 'Lucida Grande', 'Verdana', 'Geneva', 'Lucid', 'Arial', 'Helvetica', 'Avant Garde', sans-serif; text-anchor: middle" x="79.2" y="268.449375" transform="rotate(-0 79.2 268.449375)">****</text>
   </g>
   <g id="line2d_10">
    <path d="M 21.6 171.919185 
L 136.8 171.919185 
" clip-path="url(#pb2518f274c)" style="fill: none; stroke-dasharray: 3.7,1.6; stroke-dashoffset: 0; stroke: #808080; stroke-opacity: 0.7"/>
   </g>
   <g id="line2d_11">
    <path d="M 21.6 106.498598 
L 136.8 106.498598 
" clip-path="url(#pb2518f274c)" style="fill: none; stroke-dasharray: 3.7,1.6; stroke-dashoffset: 0; stroke: #808080; stroke-opacity: 0.7"/>
   </g>
   <g id="LineCollection_1">
    <path d="M 46.472727 175.755985 
L 46.472727 168.082385 
" clip-path="url(#pb2518f274c)" style="fill: none; stroke: #000000; stroke-width: 2"/>
   </g>
   <g id="line2d_12">
    <defs>
     <path id="m5c2914a300" d="M 5 0 
L -5 -0 
" style="stroke: #000000; stroke-width: 2"/>
    </defs>
    <g clip-path="url(#pb2518f274c)">
     <use xlink:href="#m5c2914a300" x="46.472727" y="175.755985" style="stroke: #000000; stroke-width: 2"/>
    </g>
   </g>
   <g id="line2d_13">
    <g clip-path="url(#pb2518f274c)">
     <use xlink:href="#m5c2914a300" x="46.472727" y="168.082385" style="stroke: #000000; stroke-width: 2"/>
    </g>
   </g>
   <g id="LineCollection_2">
    <path d="M 111.927273 108.075843 
L 111.927273 104.921353 
" clip-path="url(#pb2518f274c)" style="fill: none; stroke: #000000; stroke-width: 2"/>
   </g>
   <g id="line2d_14">
    <g clip-path="url(#pb2518f274c)">
     <use xlink:href="#m5c2914a300" x="111.927273" y="108.075843" style="stroke: #000000; stroke-width: 2"/>
    </g>
   </g>
   <g id="line2d_15">
    <g clip-path="url(#pb2518f274c)">
     <use xlink:href="#m5c2914a300" x="111.927273" y="104.921353" style="stroke: #000000; stroke-width: 2"/>
    </g>
   </g>
   <g id="line2d_16">
    <defs>
     <path id="m1f5a2489f1" d="M 0 4 
C 1.060812 4 2.078319 3.578535 2.828427 2.828427 
C 3.578535 2.078319 4 1.060812 4 0 
C 4 -1.060812 3.578535 -2.078319 2.828427 -2.828427 
C 2.078319 -3.578535 1.060812 -4 0 -4 
C -1.060812 -4 -2.078319 -3.578535 -2.828427 -2.828427 
C -3.578535 -2.078319 -4 -1.060812 -4 0 
C -4 1.060812 -3.578535 2.078319 -2.828427 2.828427 
C -2.078319 3.578535 -1.060812 4 0 4 
z
" style="stroke: #000000"/>
    </defs>
    <g clip-path="url(#pb2518f274c)">
     <use xlink:href="#m1f5a2489f1" x="46.472727" y="171.919185" style="stroke: #000000"/>
    </g>
   </g>
   <g id="line2d_17">
    <g clip-path="url(#pb2518f274c)">
     <use xlink:href="#m1f5a2489f1" x="111.927273" y="106.498598" style="stroke: #000000"/>
    </g>
   </g>
  </g>
 </g>
 <defs>
  <clipPath id="pb2518f274c">
   <rect x="21.6" y="16.2" width="115.2" height="275.4"/>
  </clipPath>
 </defs>
</svg>
