<?xml version="1.0" encoding="utf-8" standalone="no"?>
<!DOCTYPE svg PUBLIC "-//W3C//DTD SVG 1.1//EN"
  "http://www.w3.org/Graphics/SVG/1.1/DTD/svg11.dtd">
<svg xmlns:xlink="http://www.w3.org/1999/xlink" width="144pt" height="324pt" viewBox="0 0 144 324" xmlns="http://www.w3.org/2000/svg" version="1.1">
 <metadata>
  <rdf:RDF xmlns:dc="http://purl.org/dc/elements/1.1/" xmlns:cc="http://creativecommons.org/ns#" xmlns:rdf="http://www.w3.org/1999/02/22-rdf-syntax-ns#">
   <cc:Work>
    <dc:type rdf:resource="http://purl.org/dc/dcmitype/StillImage"/>
    <dc:date>2025-12-05T14:51:43.826015</dc:date>
    <dc:format>image/svg+xml</dc:format>
    <dc:creator>
     <cc:Agent>
      <dc:title>Matplotlib v3.10.0, https://matplotlib.org/</dc:title>
     </cc:Agent>
    </dc:creator>
   </cc:Work>
  </rdf:RDF>
 </metadata>
 <defs>
  <style type="text/css">*{stroke-linejoin: round; stroke-linecap: butt}</style>
 </defs>
 <g id="figure_1">
  <g id="patch_1">
   <path d="M 0 324 
L 144 324 
L 144 0 
L 0 0 
z
" style="fill: #ffffff"/>
  </g>
  <g id="axes_1">
   <g id="patch_2">
    <path d="M 21.6 291.6 
L 136.8 291.6 
L 136.8 16.2 
L 21.6 16.2 
z
" style="fill: #ffffff"/>
   </g>
   <g id="FillBetweenPolyCollection_1">
    <path d="M 48.3107 202.779525 
L 44.634754 202.779525 
L 44.501117 201.904975 
L 44.37314 201.030426 
L 44.250821 200.155877 
L 44.133425 199.281327 
L 44.019492 198.406778 
L 43.906909 197.532228 
L 43.793021 196.657679 
L 43.674799 195.78313 
L 43.549031 194.90858 
L 43.412531 194.034031 
L 43.262344 193.159482 
L 43.095934 192.284932 
L 42.911327 191.410383 
L 42.707214 190.535833 
L 42.482986 189.661284 
L 42.238708 188.786735 
L 41.975042 187.912185 
L 41.693107 187.037636 
L 41.394317 186.163087 
L 41.080193 185.288537 
L 40.752187 184.413988 
L 40.411524 183.539438 
L 40.059095 182.664889 
L 39.695403 181.79034 
L 39.320578 180.91579 
L 38.934456 180.041241 
L 38.536717 179.166692 
L 38.127068 178.292142 
L 37.705448 177.417593 
L 37.27223 176.543043 
L 36.828396 175.668494 
L 36.375659 174.793945 
L 35.916504 173.919395 
L 35.454156 173.044846 
L 34.992441 172.170296 
L 34.535577 171.295747 
L 34.087892 170.421198 
L 33.653509 169.546648 
L 33.23602 168.672099 
L 32.838195 167.79755 
L 32.46175 166.923 
L 32.107205 166.048451 
L 31.773855 165.173901 
L 31.459845 164.299352 
L 31.162355 163.424803 
L 30.877866 162.550253 
L 30.602491 161.675704 
L 30.332325 160.801155 
L 30.063793 159.926605 
L 29.793968 159.052056 
L 29.520828 158.177506 
L 29.24345 157.302957 
L 28.962137 156.428408 
L 28.678468 155.553858 
L 28.395301 154.679309 
L 28.116716 153.80476 
L 27.847919 152.93021 
L 27.595122 152.055661 
L 27.365382 151.181111 
L 27.166412 150.306562 
L 27.00637 149.432013 
L 26.893602 148.557463 
L 26.836364 147.682914 
L 26.842506 146.808364 
L 26.919145 145.933815 
L 27.072315 145.059266 
L 27.30664 144.184716 
L 27.625023 143.310167 
L 28.028388 142.435618 
L 28.515493 141.561068 
L 29.082826 140.686519 
L 29.724605 139.811969 
L 30.43288 138.93742 
L 31.197751 138.062871 
L 32.007681 137.188321 
L 32.849902 136.313772 
L 33.710883 135.439223 
L 34.576844 134.564673 
L 35.434283 133.690124 
L 36.270488 132.815574 
L 37.074002 131.941025 
L 37.835021 131.066476 
L 38.54571 130.191926 
L 39.200406 129.317377 
L 39.795719 128.442828 
L 40.330524 127.568278 
L 40.80584 126.693729 
L 41.224621 125.819179 
L 41.59147 124.94463 
L 41.912283 124.070081 
L 42.193856 123.195531 
L 42.443477 122.320982 
L 42.668506 121.446433 
L 42.875999 120.571883 
L 43.072354 119.697334 
L 43.263036 118.822784 
L 43.452366 117.948235 
L 43.643405 117.073686 
L 43.83791 116.199136 
L 49.107544 116.199136 
L 49.107544 116.199136 
L 49.30205 117.073686 
L 49.493088 117.948235 
L 49.682419 118.822784 
L 49.873101 119.697334 
L 50.069456 120.571883 
L 50.276948 121.446433 
L 50.501978 122.320982 
L 50.751598 123.195531 
L 51.033172 124.070081 
L 51.353984 124.94463 
L 51.720833 125.819179 
L 52.139615 126.693729 
L 52.61493 127.568278 
L 53.149735 128.442828 
L 53.745049 129.317377 
L 54.399745 130.191926 
L 55.110433 131.066476 
L 55.871453 131.941025 
L 56.674966 132.815574 
L 57.511171 133.690124 
L 58.368611 134.564673 
L 59.234572 135.439223 
L 60.095553 136.313772 
L 60.937773 137.188321 
L 61.747703 138.062871 
L 62.512574 138.93742 
L 63.220849 139.811969 
L 63.862628 140.686519 
L 64.429962 141.561068 
L 64.917067 142.435618 
L 65.320432 143.310167 
L 65.638814 144.184716 
L 65.873139 145.059266 
L 66.02631 145.933815 
L 66.102948 146.808364 
L 66.109091 147.682914 
L 66.051853 148.557463 
L 65.939085 149.432013 
L 65.779042 150.306562 
L 65.580073 151.181111 
L 65.350332 152.055661 
L 65.097536 152.93021 
L 64.828739 153.80476 
L 64.550153 154.679309 
L 64.266986 155.553858 
L 63.983318 156.428408 
L 63.702005 157.302957 
L 63.424627 158.177506 
L 63.151487 159.052056 
L 62.881662 159.926605 
L 62.61313 160.801155 
L 62.342964 161.675704 
L 62.067589 162.550253 
L 61.7831 163.424803 
L 61.48561 164.299352 
L 61.1716 165.173901 
L 60.83825 166.048451 
L 60.483705 166.923 
L 60.107259 167.79755 
L 59.709434 168.672099 
L 59.291946 169.546648 
L 58.857563 170.421198 
L 58.409878 171.295747 
L 57.953013 172.170296 
L 57.491298 173.044846 
L 57.02895 173.919395 
L 56.569796 174.793945 
L 56.117058 175.668494 
L 55.673225 176.543043 
L 55.240007 177.417593 
L 54.818387 178.292142 
L 54.408738 179.166692 
L 54.010999 180.041241 
L 53.624877 180.91579 
L 53.250052 181.79034 
L 52.88636 182.664889 
L 52.533931 183.539438 
L 52.193267 184.413988 
L 51.865261 185.288537 
L 51.551138 186.163087 
L 51.252347 187.037636 
L 50.970413 187.912185 
L 50.706746 188.786735 
L 50.462469 189.661284 
L 50.23824 190.535833 
L 50.034127 191.410383 
L 49.849521 192.284932 
L 49.68311 193.159482 
L 49.532923 194.034031 
L 49.396423 194.90858 
L 49.270655 195.78313 
L 49.152433 196.657679 
L 49.038545 197.532228 
L 48.925962 198.406778 
L 48.81203 199.281327 
L 48.694633 200.155877 
L 48.572315 201.030426 
L 48.444338 201.904975 
L 48.3107 202.779525 
L 48.3107 202.779525 
z
" clip-path="url(#pb14bae9baf)" style="fill: none; stroke: #000000; stroke-opacity: 0.3"/>
   </g>
   <g id="FillBetweenPolyCollection_2">
    <path d="M 48.010752 208.257211 
L 44.934702 208.257211 
L 44.769009 207.328969 
L 44.58957 206.400727 
L 44.395543 205.472485 
L 44.186224 204.544243 
L 43.961117 203.616001 
L 43.719978 202.687759 
L 43.462856 201.759517 
L 43.190103 200.831276 
L 42.902378 199.903034 
L 42.600603 198.974792 
L 42.285923 198.04655 
L 41.959623 197.118308 
L 41.623057 196.190066 
L 41.277555 195.261824 
L 40.924344 194.333582 
L 40.564488 193.40534 
L 40.198837 192.477098 
L 39.828008 191.548856 
L 39.452398 190.620614 
L 39.072208 189.692372 
L 38.687503 188.76413 
L 38.298269 187.835888 
L 37.904485 186.907646 
L 37.506179 185.979404 
L 37.103481 185.051162 
L 36.69664 184.12292 
L 36.286037 183.194678 
L 35.872158 182.266436 
L 35.455565 181.338195 
L 35.036851 180.409953 
L 34.616598 179.481711 
L 34.195348 178.553469 
L 33.773591 177.625227 
L 33.351784 176.696985 
L 32.930396 175.768743 
L 32.509976 174.840501 
L 32.091243 173.912259 
L 31.675181 172.984017 
L 31.263125 172.055775 
L 30.856824 171.127533 
L 30.458467 170.199291 
L 30.070661 169.271049 
L 29.696355 168.342807 
L 29.338709 167.414565 
L 29.000922 166.486323 
L 28.686028 165.558081 
L 28.396673 164.629839 
L 28.134911 163.701597 
L 27.902028 162.773355 
L 27.698425 161.845114 
L 27.523565 160.916872 
L 27.376011 159.98863 
L 27.25354 159.060388 
L 27.153335 158.132146 
L 27.072243 157.203904 
L 27.007064 156.275662 
L 26.954861 155.34742 
L 26.913253 154.419178 
L 26.880658 153.490936 
L 26.856476 152.562694 
L 26.841189 151.634452 
L 26.836364 150.70621 
L 26.844566 149.777968 
L 26.869188 148.849726 
L 26.914211 147.921484 
L 26.983919 146.993242 
L 27.082591 146.065 
L 27.214202 145.136758 
L 27.382139 144.208516 
L 27.588977 143.280274 
L 27.836303 142.352033 
L 28.124615 141.423791 
L 28.453279 140.495549 
L 28.820565 139.567307 
L 29.223726 138.639065 
L 29.659137 137.710823 
L 30.12246 136.782581 
L 30.608839 135.854339 
L 31.113107 134.926097 
L 31.630001 133.997855 
L 32.154365 133.069613 
L 32.681351 132.141371 
L 33.206595 131.213129 
L 33.726371 130.284887 
L 34.237712 129.356645 
L 34.738496 128.428403 
L 35.227483 127.500161 
L 35.704313 126.571919 
L 36.169444 125.643677 
L 36.62405 124.715435 
L 37.069873 123.787193 
L 37.509035 122.858952 
L 37.943831 121.93071 
L 38.376501 121.002468 
L 38.809024 120.074226 
L 39.242913 119.145984 
L 39.679061 118.217742 
L 40.117628 117.2895 
L 40.557985 116.361258 
L 52.387469 116.361258 
L 52.387469 116.361258 
L 52.827827 117.2895 
L 53.266394 118.217742 
L 53.702542 119.145984 
L 54.136431 120.074226 
L 54.568953 121.002468 
L 55.001624 121.93071 
L 55.436419 122.858952 
L 55.875582 123.787193 
L 56.321405 124.715435 
L 56.776011 125.643677 
L 57.241141 126.571919 
L 57.717971 127.500161 
L 58.206959 128.428403 
L 58.707743 129.356645 
L 59.219084 130.284887 
L 59.738859 131.213129 
L 60.264103 132.141371 
L 60.791089 133.069613 
L 61.315453 133.997855 
L 61.832347 134.926097 
L 62.336616 135.854339 
L 62.822995 136.782581 
L 63.286317 137.710823 
L 63.721728 138.639065 
L 64.12489 139.567307 
L 64.492175 140.495549 
L 64.82084 141.423791 
L 65.109151 142.352033 
L 65.356478 143.280274 
L 65.563316 144.208516 
L 65.731253 145.136758 
L 65.862863 146.065 
L 65.961536 146.993242 
L 66.031243 147.921484 
L 66.076266 148.849726 
L 66.100889 149.777968 
L 66.109091 150.70621 
L 66.104266 151.634452 
L 66.088979 152.562694 
L 66.064797 153.490936 
L 66.032201 154.419178 
L 65.990593 155.34742 
L 65.938391 156.275662 
L 65.873212 157.203904 
L 65.792119 158.132146 
L 65.691914 159.060388 
L 65.569443 159.98863 
L 65.421889 160.916872 
L 65.24703 161.845114 
L 65.043426 162.773355 
L 64.810544 163.701597 
L 64.548781 164.629839 
L 64.259426 165.558081 
L 63.944532 166.486323 
L 63.606746 167.414565 
L 63.2491 168.342807 
L 62.874793 169.271049 
L 62.486988 170.199291 
L 62.088631 171.127533 
L 61.68233 172.055775 
L 61.270274 172.984017 
L 60.854212 173.912259 
L 60.435479 174.840501 
L 60.015058 175.768743 
L 59.59367 176.696985 
L 59.171864 177.625227 
L 58.750107 178.553469 
L 58.328857 179.481711 
L 57.908604 180.409953 
L 57.48989 181.338195 
L 57.073297 182.266436 
L 56.659418 183.194678 
L 56.248814 184.12292 
L 55.841974 185.051162 
L 55.439275 185.979404 
L 55.04097 186.907646 
L 54.647185 187.835888 
L 54.257951 188.76413 
L 53.873246 189.692372 
L 53.493057 190.620614 
L 53.117446 191.548856 
L 52.746618 192.477098 
L 52.380966 193.40534 
L 52.02111 194.333582 
L 51.6679 195.261824 
L 51.322397 196.190066 
L 50.985831 197.118308 
L 50.659532 198.04655 
L 50.344851 198.974792 
L 50.043077 199.903034 
L 49.755351 200.831276 
L 49.482599 201.759517 
L 49.225476 202.687759 
L 48.984337 203.616001 
L 48.75923 204.544243 
L 48.549912 205.472485 
L 48.355884 206.400727 
L 48.176446 207.328969 
L 48.010752 208.257211 
L 48.010752 208.257211 
z
" clip-path="url(#pb14bae9baf)" style="fill: none; stroke: #000000; stroke-opacity: 0.3"/>
   </g>
   <g id="FillBetweenPolyCollection_3">
    <path d="M 46.883062 253.237157 
L 46.062393 253.237157 
L 46.059072 251.765379 
L 46.06392 250.293601 
L 46.074409 248.821823 
L 46.087324 247.350045 
L 46.099313 245.878267 
L 46.107469 244.406489 
L 46.109845 242.934711 
L 46.105791 241.462933 
L 46.096044 239.991155 
L 46.082556 238.519377 
L 46.068075 237.047599 
L 46.055584 235.57582 
L 46.047684 234.104042 
L 46.046058 232.632264 
L 46.051121 231.160486 
L 46.061913 229.688708 
L 46.076267 228.21693 
L 46.091196 226.745152 
L 46.103428 225.273374 
L 46.109948 223.801596 
L 46.108452 222.329818 
L 46.097586 220.85804 
L 46.076917 219.386261 
L 46.046643 217.914483 
L 46.007083 216.442705 
L 45.95806 214.970927 
L 45.898326 213.499149 
L 45.825157 212.027371 
L 45.734225 210.555593 
L 45.619806 209.083815 
L 45.475268 207.612037 
L 45.293755 206.140259 
L 45.068888 204.668481 
L 44.795355 203.196702 
L 44.469257 201.724924 
L 44.088187 200.253146 
L 43.651115 198.781368 
L 43.15819 197.30959 
L 42.610626 195.837812 
L 42.010767 194.366034 
L 41.362361 192.894256 
L 40.670959 191.422478 
L 39.944272 189.9507 
L 39.192311 188.478922 
L 38.427156 187.007144 
L 37.662308 185.535365 
L 36.911688 184.063587 
L 36.188415 182.591809 
L 35.503566 181.120031 
L 34.865068 179.648253 
L 34.276882 178.176475 
L 33.738525 176.704697 
L 33.245013 175.232919 
L 32.787232 173.761141 
L 32.352803 172.289363 
L 31.927428 170.817585 
L 31.496694 169.345806 
L 31.048187 167.874028 
L 30.57367 166.40225 
L 30.07098 164.930472 
L 29.545281 163.458694 
L 29.009334 161.986916 
L 28.482631 160.515138 
L 27.989409 159.04336 
L 27.555818 157.571582 
L 27.206693 156.099804 
L 26.962506 154.628026 
L 26.837062 153.156248 
L 26.836364 151.684469 
L 26.958839 150.212691 
L 27.196834 148.740913 
L 27.539 147.269135 
L 27.973014 145.797357 
L 28.488011 144.325579 
L 29.076213 142.853801 
L 29.733423 141.382023 
L 30.45836 139.910245 
L 31.251088 138.438467 
L 32.110964 136.966689 
L 33.03466 135.49491 
L 34.014711 134.023132 
L 35.038917 132.551354 
L 36.090686 131.079576 
L 37.150193 129.607798 
L 38.196069 128.13602 
L 39.20728 126.664242 
L 40.164839 125.192464 
L 41.053137 123.720686 
L 41.860759 122.248908 
L 42.58079 120.77713 
L 43.210692 119.305351 
L 43.75187 117.833573 
L 44.209042 116.361795 
L 44.5895 114.890017 
L 44.902324 113.418239 
L 45.157585 111.946461 
L 45.365574 110.474683 
L 45.536092 109.002905 
L 45.677867 107.531127 
L 47.267588 107.531127 
L 47.267588 107.531127 
L 47.409362 109.002905 
L 47.579881 110.474683 
L 47.787869 111.946461 
L 48.04313 113.418239 
L 48.355954 114.890017 
L 48.736412 116.361795 
L 49.193585 117.833573 
L 49.734763 119.305351 
L 50.364664 120.77713 
L 51.084695 122.248908 
L 51.892317 123.720686 
L 52.780615 125.192464 
L 53.738174 126.664242 
L 54.749385 128.13602 
L 55.795262 129.607798 
L 56.854768 131.079576 
L 57.906538 132.551354 
L 58.930744 134.023132 
L 59.910795 135.49491 
L 60.834491 136.966689 
L 61.694367 138.438467 
L 62.487094 139.910245 
L 63.212032 141.382023 
L 63.869241 142.853801 
L 64.457443 144.325579 
L 64.972441 145.797357 
L 65.406454 147.269135 
L 65.748621 148.740913 
L 65.986616 150.212691 
L 66.109091 151.684469 
L 66.108392 153.156248 
L 65.982948 154.628026 
L 65.738761 156.099804 
L 65.389636 157.571582 
L 64.956045 159.04336 
L 64.462824 160.515138 
L 63.936121 161.986916 
L 63.400173 163.458694 
L 62.874474 164.930472 
L 62.371785 166.40225 
L 61.897267 167.874028 
L 61.44876 169.345806 
L 61.018026 170.817585 
L 60.592651 172.289363 
L 60.158223 173.761141 
L 59.700442 175.232919 
L 59.206929 176.704697 
L 58.668573 178.176475 
L 58.080386 179.648253 
L 57.441889 181.120031 
L 56.757039 182.591809 
L 56.033767 184.063587 
L 55.283146 185.535365 
L 54.518299 187.007144 
L 53.753143 188.478922 
L 53.001182 189.9507 
L 52.274496 191.422478 
L 51.583093 192.894256 
L 50.934688 194.366034 
L 50.334828 195.837812 
L 49.787264 197.30959 
L 49.29434 198.781368 
L 48.857267 200.253146 
L 48.476198 201.724924 
L 48.150099 203.196702 
L 47.876567 204.668481 
L 47.6517 206.140259 
L 47.470186 207.612037 
L 47.325649 209.083815 
L 47.21123 210.555593 
L 47.120298 212.027371 
L 47.047128 213.499149 
L 46.987395 214.970927 
L 46.938372 216.442705 
L 46.898811 217.914483 
L 46.868538 219.386261 
L 46.847869 220.85804 
L 46.837002 222.329818 
L 46.835507 223.801596 
L 46.842027 225.273374 
L 46.854258 226.745152 
L 46.869188 228.21693 
L 46.883542 229.688708 
L 46.894334 231.160486 
L 46.899397 232.632264 
L 46.897771 234.104042 
L 46.889871 235.57582 
L 46.877379 237.047599 
L 46.862899 238.519377 
L 46.84941 239.991155 
L 46.839664 241.462933 
L 46.835609 242.934711 
L 46.837985 244.406489 
L 46.846141 245.878267 
L 46.85813 247.350045 
L 46.871046 248.821823 
L 46.881534 250.293601 
L 46.886383 251.765379 
L 46.883062 253.237157 
L 46.883062 253.237157 
z
" clip-path="url(#pb14bae9baf)" style="fill: none; stroke: #000000; stroke-opacity: 0.3"/>
   </g>
   <g id="FillBetweenPolyCollection_4">
    <path d="M 47.902554 219.903733 
L 45.0429 219.903733 
L 44.897541 218.176036 
L 44.74343 216.448339 
L 44.571127 214.720643 
L 44.369316 212.992946 
L 44.126281 211.265249 
L 43.831619 209.537552 
L 43.477832 207.809856 
L 43.061447 206.082159 
L 42.583403 204.354462 
L 42.048576 202.626765 
L 41.464544 200.899069 
L 40.839881 199.171372 
L 40.182412 197.443675 
L 39.497899 195.715978 
L 38.78951 193.988282 
L 38.058234 192.260585 
L 37.304111 190.532888 
L 36.527922 188.805191 
L 35.732792 187.077495 
L 34.925219 185.349798 
L 34.115124 183.622101 
L 33.314897 181.894404 
L 32.537641 180.166708 
L 31.795141 178.439011 
L 31.096158 176.711314 
L 30.445553 174.983617 
L 29.844518 173.255921 
L 29.291828 171.528224 
L 28.785711 169.800527 
L 28.325774 168.07283 
L 27.914364 166.345134 
L 27.557003 164.617437 
L 27.261775 162.88974 
L 27.037905 161.162043 
L 26.89398 159.434347 
L 26.836364 157.70665 
L 26.868222 155.978953 
L 26.989425 154.251256 
L 27.19726 152.52356 
L 27.487713 150.795863 
L 27.856902 149.068166 
L 28.302262 147.340469 
L 28.823132 145.612773 
L 29.420613 143.885076 
L 30.096684 142.157379 
L 30.852789 140.429682 
L 31.688172 138.701986 
L 32.598314 136.974289 
L 33.573775 135.246592 
L 34.5997 133.518895 
L 35.656092 131.791198 
L 36.718867 130.063502 
L 37.761571 128.335805 
L 38.757532 126.608108 
L 39.682194 124.880411 
L 40.51535 123.152715 
L 41.242983 121.425018 
L 41.858509 119.697321 
L 42.363249 117.969624 
L 42.766047 116.241928 
L 43.082059 114.514231 
L 43.330846 112.786534 
L 43.533995 111.058837 
L 43.712604 109.331141 
L 43.884963 107.603444 
L 44.064768 105.875747 
L 44.260113 104.14805 
L 44.473342 102.420354 
L 44.701734 100.692657 
L 44.9388 98.96496 
L 45.175931 97.237263 
L 45.404067 95.509567 
L 45.615126 93.78187 
L 45.802992 92.054173 
L 45.964011 90.326476 
L 46.097006 88.59878 
L 46.202929 86.871083 
L 46.28429 85.143386 
L 46.344516 83.415689 
L 46.387353 81.687993 
L 46.416385 79.960296 
L 46.4347 78.232599 
L 46.444705 76.504902 
L 46.448069 74.777206 
L 46.445756 73.049509 
L 46.438135 71.321812 
L 46.425134 69.594115 
L 46.406437 67.866419 
L 46.381706 66.138722 
L 46.350821 64.411025 
L 46.314098 62.683328 
L 46.272472 60.955632 
L 46.227598 59.227935 
L 46.181834 57.500238 
L 46.138095 55.772541 
L 46.099573 54.044845 
L 46.06937 52.317148 
L 46.050087 50.589451 
L 46.043456 48.861754 
L 46.901998 48.861754 
L 46.901998 48.861754 
L 46.895368 50.589451 
L 46.876085 52.317148 
L 46.845882 54.044845 
L 46.80736 55.772541 
L 46.76362 57.500238 
L 46.717856 59.227935 
L 46.672982 60.955632 
L 46.631357 62.683328 
L 46.594633 64.411025 
L 46.563748 66.138722 
L 46.539018 67.866419 
L 46.52032 69.594115 
L 46.507319 71.321812 
L 46.499698 73.049509 
L 46.497386 74.777206 
L 46.50075 76.504902 
L 46.510755 78.232599 
L 46.529069 79.960296 
L 46.558101 81.687993 
L 46.600939 83.415689 
L 46.661165 85.143386 
L 46.742525 86.871083 
L 46.848448 88.59878 
L 46.981444 90.326476 
L 47.142463 92.054173 
L 47.330329 93.78187 
L 47.541387 95.509567 
L 47.769524 97.237263 
L 48.006655 98.96496 
L 48.243721 100.692657 
L 48.472112 102.420354 
L 48.685342 104.14805 
L 48.880686 105.875747 
L 49.060492 107.603444 
L 49.23285 109.331141 
L 49.41146 111.058837 
L 49.614609 112.786534 
L 49.863395 114.514231 
L 50.179408 116.241928 
L 50.582205 117.969624 
L 51.086946 119.697321 
L 51.702472 121.425018 
L 52.430104 123.152715 
L 53.26326 124.880411 
L 54.187923 126.608108 
L 55.183883 128.335805 
L 56.226587 130.063502 
L 57.289363 131.791198 
L 58.345754 133.518895 
L 59.371679 135.246592 
L 60.347141 136.974289 
L 61.257282 138.701986 
L 62.092665 140.429682 
L 62.84877 142.157379 
L 63.524841 143.885076 
L 64.122322 145.612773 
L 64.643193 147.340469 
L 65.088552 149.068166 
L 65.457742 150.795863 
L 65.748194 152.52356 
L 65.956029 154.251256 
L 66.077232 155.978953 
L 66.109091 157.70665 
L 66.051474 159.434347 
L 65.90755 161.162043 
L 65.683679 162.88974 
L 65.388451 164.617437 
L 65.031091 166.345134 
L 64.619681 168.07283 
L 64.159743 169.800527 
L 63.653627 171.528224 
L 63.100936 173.255921 
L 62.499901 174.983617 
L 61.849297 176.711314 
L 61.150314 178.439011 
L 60.407814 180.166708 
L 59.630557 181.894404 
L 58.83033 183.622101 
L 58.020236 185.349798 
L 57.212662 187.077495 
L 56.417533 188.805191 
L 55.641343 190.532888 
L 54.887221 192.260585 
L 54.155945 193.988282 
L 53.447556 195.715978 
L 52.763043 197.443675 
L 52.105574 199.171372 
L 51.48091 200.899069 
L 50.896878 202.626765 
L 50.362051 204.354462 
L 49.884007 206.082159 
L 49.467622 207.809856 
L 49.113835 209.537552 
L 48.819174 211.265249 
L 48.576139 212.992946 
L 48.374327 214.720643 
L 48.202025 216.448339 
L 48.047914 218.176036 
L 47.902554 219.903733 
L 47.902554 219.903733 
z
" clip-path="url(#pb14bae9baf)" style="fill: none; stroke: #000000; stroke-opacity: 0.3"/>
   </g>
   <g id="FillBetweenPolyCollection_5">
    <path d="M 51.922569 192.121581 
L 41.022885 192.121581 
L 40.106162 190.434248 
L 39.111314 188.746915 
L 38.048221 187.059582 
L 36.930521 185.372249 
L 35.775461 183.684916 
L 34.603475 181.997583 
L 33.4375 180.31025 
L 32.30204 178.622917 
L 31.222048 176.935584 
L 30.221711 175.248251 
L 29.323226 173.560918 
L 28.545692 171.873585 
L 27.904211 170.186252 
L 27.409282 168.498919 
L 27.066523 166.811586 
L 26.87675 165.124253 
L 26.836364 163.43692 
L 26.937997 161.749587 
L 27.171322 160.062254 
L 27.523928 158.374921 
L 27.982182 156.687588 
L 28.531984 155.000255 
L 29.159378 153.312922 
L 29.850977 151.625589 
L 30.594228 149.938256 
L 31.377516 148.250923 
L 32.190163 146.56359 
L 33.022364 144.876257 
L 33.86509 143.188924 
L 34.710009 141.501591 
L 35.54943 139.814258 
L 36.376289 138.126925 
L 37.184164 136.439592 
L 37.967321 134.752259 
L 38.720752 133.064926 
L 39.440207 131.377593 
L 40.122206 129.69026 
L 40.764009 128.002927 
L 41.363564 126.315594 
L 41.919429 124.628261 
L 42.430685 122.940928 
L 42.896853 121.253595 
L 43.317826 119.566262 
L 43.693834 117.878929 
L 44.025436 116.191596 
L 44.313538 114.504263 
L 44.559441 112.81693 
L 44.764886 111.129597 
L 44.932102 109.442264 
L 45.063825 107.754931 
L 45.163294 106.067598 
L 45.234203 104.380265 
L 45.280621 102.692932 
L 45.306874 101.005599 
L 45.317411 99.318266 
L 45.316649 97.630933 
L 45.308829 95.9436 
L 45.297881 94.256267 
L 45.287311 92.568934 
L 45.280117 90.881601 
L 45.278733 89.194268 
L 45.285004 87.506935 
L 45.300179 85.819602 
L 45.324935 84.132269 
L 45.359397 82.444936 
L 45.403192 80.757603 
L 45.455487 79.07027 
L 45.515055 77.382937 
L 45.580331 75.695604 
L 45.649486 74.008271 
L 45.720499 72.320938 
L 45.791242 70.633605 
L 45.859565 68.946272 
L 45.923381 67.258939 
L 45.98075 65.571606 
L 46.029963 63.884273 
L 46.069603 62.19694 
L 46.098611 60.509607 
L 46.116321 58.822274 
L 46.122491 57.134941 
L 46.117311 55.447608 
L 46.101392 53.760275 
L 46.075747 52.072942 
L 46.041742 50.385609 
L 46.001045 48.698276 
L 45.955556 47.010943 
L 45.907327 45.32361 
L 45.858482 43.636277 
L 45.811129 41.948944 
L 45.76728 40.261611 
L 45.728771 38.574278 
L 45.697204 36.886945 
L 45.673885 35.199612 
L 45.659792 33.512279 
L 45.655541 31.824946 
L 45.661379 30.137613 
L 45.677183 28.45028 
L 45.702473 26.762947 
L 45.736444 25.075614 
L 47.209011 25.075614 
L 47.209011 25.075614 
L 47.242981 26.762947 
L 47.268272 28.45028 
L 47.284075 30.137613 
L 47.289914 31.824946 
L 47.285663 33.512279 
L 47.271569 35.199612 
L 47.248251 36.886945 
L 47.216684 38.574278 
L 47.178175 40.261611 
L 47.134325 41.948944 
L 47.086972 43.636277 
L 47.038127 45.32361 
L 46.989899 47.010943 
L 46.944409 48.698276 
L 46.903712 50.385609 
L 46.869708 52.072942 
L 46.844062 53.760275 
L 46.828144 55.447608 
L 46.822964 57.134941 
L 46.829134 58.822274 
L 46.846844 60.509607 
L 46.875851 62.19694 
L 46.915492 63.884273 
L 46.964704 65.571606 
L 47.022074 67.258939 
L 47.085889 68.946272 
L 47.154212 70.633605 
L 47.224956 72.320938 
L 47.295969 74.008271 
L 47.365123 75.695604 
L 47.430399 77.382937 
L 47.489967 79.07027 
L 47.542263 80.757603 
L 47.586057 82.444936 
L 47.62052 84.132269 
L 47.645275 85.819602 
L 47.660451 87.506935 
L 47.666721 89.194268 
L 47.665337 90.881601 
L 47.658143 92.568934 
L 47.647573 94.256267 
L 47.636626 95.9436 
L 47.628806 97.630933 
L 47.628044 99.318266 
L 47.63858 101.005599 
L 47.664834 102.692932 
L 47.711251 104.380265 
L 47.78216 106.067598 
L 47.881629 107.754931 
L 48.013352 109.442264 
L 48.180568 111.129597 
L 48.386014 112.81693 
L 48.631916 114.504263 
L 48.920019 116.191596 
L 49.25162 117.878929 
L 49.627629 119.566262 
L 50.048602 121.253595 
L 50.514769 122.940928 
L 51.026026 124.628261 
L 51.581891 126.315594 
L 52.181446 128.002927 
L 52.823248 129.69026 
L 53.505247 131.377593 
L 54.224703 133.064926 
L 54.978133 134.752259 
L 55.76129 136.439592 
L 56.569166 138.126925 
L 57.396024 139.814258 
L 58.235445 141.501591 
L 59.080364 143.188924 
L 59.923091 144.876257 
L 60.755292 146.56359 
L 61.567939 148.250923 
L 62.351226 149.938256 
L 63.094477 151.625589 
L 63.786077 153.312922 
L 64.41347 155.000255 
L 64.963273 156.687588 
L 65.421527 158.374921 
L 65.774133 160.062254 
L 66.007457 161.749587 
L 66.109091 163.43692 
L 66.068705 165.124253 
L 65.878931 166.811586 
L 65.536172 168.498919 
L 65.041243 170.186252 
L 64.399763 171.873585 
L 63.622229 173.560918 
L 62.723743 175.248251 
L 61.723406 176.935584 
L 60.643415 178.622917 
L 59.507955 180.31025 
L 58.341979 181.997583 
L 57.169994 183.684916 
L 56.014933 185.372249 
L 54.897233 187.059582 
L 53.83414 188.746915 
L 52.839292 190.434248 
L 51.922569 192.121581 
L 51.922569 192.121581 
z
" clip-path="url(#pb14bae9baf)" style="fill: none; stroke: #000000; stroke-opacity: 0.3"/>
   </g>
   <g id="FillBetweenPolyCollection_6">
    <path d="M 47.850291 219.903969 
L 45.095163 219.903969 
L 45.092767 218.795576 
L 45.100015 217.687182 
L 45.115708 216.578788 
L 45.138201 215.470394 
L 45.165422 214.362 
L 45.194914 213.253607 
L 45.223879 212.145213 
L 45.249239 211.036819 
L 45.267702 209.928425 
L 45.275827 208.820032 
L 45.270098 207.711638 
L 45.246992 206.603244 
L 45.20305 205.49485 
L 45.134944 204.386456 
L 45.039533 203.278063 
L 44.913923 202.169669 
L 44.755513 201.061275 
L 44.562041 199.952881 
L 44.331614 198.844488 
L 44.06274 197.736094 
L 43.754346 196.6277 
L 43.405785 195.519306 
L 43.016848 194.410912 
L 42.587752 193.302519 
L 42.119138 192.194125 
L 41.612052 191.085731 
L 41.067937 189.977337 
L 40.488611 188.868943 
L 39.876259 187.76055 
L 39.233421 186.652156 
L 38.562993 185.543762 
L 37.868229 184.435368 
L 37.152749 183.326975 
L 36.420558 182.218581 
L 35.676057 181.110187 
L 34.924063 180.001793 
L 34.169816 178.893399 
L 33.418976 177.785006 
L 32.677605 176.676612 
L 31.952128 175.568218 
L 31.249269 174.459824 
L 30.575959 173.351431 
L 29.939216 172.243037 
L 29.345998 171.134643 
L 28.803033 170.026249 
L 28.316628 168.917855 
L 27.892471 167.809462 
L 27.535426 166.701068 
L 27.249335 165.592674 
L 27.036843 164.48428 
L 26.899243 163.375886 
L 26.836364 162.267493 
L 26.846503 161.159099 
L 26.926416 160.050705 
L 27.071358 158.942311 
L 27.27519 157.833918 
L 27.530545 156.725524 
L 27.829051 155.61713 
L 28.1616 154.508736 
L 28.518658 153.400342 
L 28.890607 152.291949 
L 29.268095 151.183555 
L 29.642383 150.075161 
L 30.005677 148.966767 
L 30.351421 147.858374 
L 30.674542 146.74998 
L 30.971629 145.641586 
L 31.241042 144.533192 
L 31.482935 143.424798 
L 31.699204 142.316405 
L 31.893348 141.208011 
L 32.07026 140.099617 
L 32.23595 138.991223 
L 32.397226 137.882829 
L 32.561335 136.774436 
L 32.735592 135.666042 
L 32.927019 134.557648 
L 33.141996 133.449254 
L 33.385972 132.340861 
L 33.663208 131.232467 
L 33.976611 130.124073 
L 34.327621 129.015679 
L 34.716187 127.907285 
L 35.140815 126.798892 
L 35.598678 125.690498 
L 36.085793 124.582104 
L 36.597239 123.47371 
L 37.127406 122.365316 
L 37.670263 121.256923 
L 38.219624 120.148529 
L 38.769394 119.040135 
L 39.3138 117.931741 
L 39.847572 116.823348 
L 40.366092 115.714954 
L 40.865483 114.60656 
L 41.342665 113.498166 
L 41.795354 112.389772 
L 42.222029 111.281379 
L 42.62187 110.172985 
L 50.323585 110.172985 
L 50.323585 110.172985 
L 50.723425 111.281379 
L 51.150101 112.389772 
L 51.602789 113.498166 
L 52.079971 114.60656 
L 52.579363 115.714954 
L 53.097882 116.823348 
L 53.631655 117.931741 
L 54.176061 119.040135 
L 54.725831 120.148529 
L 55.275191 121.256923 
L 55.818049 122.365316 
L 56.348216 123.47371 
L 56.859662 124.582104 
L 57.346776 125.690498 
L 57.804639 126.798892 
L 58.229267 127.907285 
L 58.617834 129.015679 
L 58.968844 130.124073 
L 59.282246 131.232467 
L 59.559483 132.340861 
L 59.803458 133.449254 
L 60.018436 134.557648 
L 60.209862 135.666042 
L 60.38412 136.774436 
L 60.548229 137.882829 
L 60.709505 138.991223 
L 60.875195 140.099617 
L 61.052106 141.208011 
L 61.24625 142.316405 
L 61.462519 143.424798 
L 61.704412 144.533192 
L 61.973825 145.641586 
L 62.270912 146.74998 
L 62.594033 147.858374 
L 62.939777 148.966767 
L 63.303071 150.075161 
L 63.677359 151.183555 
L 64.054847 152.291949 
L 64.426797 153.400342 
L 64.783855 154.508736 
L 65.116403 155.61713 
L 65.414909 156.725524 
L 65.670265 157.833918 
L 65.874096 158.942311 
L 66.019038 160.050705 
L 66.098951 161.159099 
L 66.109091 162.267493 
L 66.046211 163.375886 
L 65.908611 164.48428 
L 65.696119 165.592674 
L 65.410029 166.701068 
L 65.052984 167.809462 
L 64.628827 168.917855 
L 64.142422 170.026249 
L 63.599456 171.134643 
L 63.006238 172.243037 
L 62.369495 173.351431 
L 61.696185 174.459824 
L 60.993327 175.568218 
L 60.26785 176.676612 
L 59.526478 177.785006 
L 58.775638 178.893399 
L 58.021391 180.001793 
L 57.269397 181.110187 
L 56.524897 182.218581 
L 55.792705 183.326975 
L 55.077226 184.435368 
L 54.382462 185.543762 
L 53.712034 186.652156 
L 53.069196 187.76055 
L 52.456843 188.868943 
L 51.877517 189.977337 
L 51.333402 191.085731 
L 50.826317 192.194125 
L 50.357702 193.302519 
L 49.928606 194.410912 
L 49.539669 195.519306 
L 49.191109 196.6277 
L 48.882714 197.736094 
L 48.613841 198.844488 
L 48.383414 199.952881 
L 48.189942 201.061275 
L 48.031532 202.169669 
L 47.905922 203.278063 
L 47.810511 204.386456 
L 47.742404 205.49485 
L 47.698463 206.603244 
L 47.675357 207.711638 
L 47.669627 208.820032 
L 47.677752 209.928425 
L 47.696215 211.036819 
L 47.721576 212.145213 
L 47.750541 213.253607 
L 47.780032 214.362 
L 47.807253 215.470394 
L 47.829746 216.578788 
L 47.84544 217.687182 
L 47.852688 218.795576 
L 47.850291 219.903969 
L 47.850291 219.903969 
z
" clip-path="url(#pb14bae9baf)" style="fill: none; stroke: #000000; stroke-opacity: 0.3"/>
   </g>
   <g id="FillBetweenPolyCollection_7">
    <path d="M 47.477236 307.76523 
L 45.468219 307.76523 
L 45.475203 305.860725 
L 45.495867 303.956221 
L 45.529361 302.051717 
L 45.574331 300.147213 
L 45.629015 298.242708 
L 45.69135 296.338204 
L 45.759109 294.4337 
L 45.830024 292.529195 
L 45.901914 290.624691 
L 45.972788 288.720187 
L 46.04093 286.815683 
L 46.104953 284.911178 
L 46.163823 283.006674 
L 46.216866 281.10217 
L 46.263736 279.197665 
L 46.304384 277.293161 
L 46.339003 275.388657 
L 46.367968 273.484152 
L 46.391788 271.579648 
L 46.411041 269.675144 
L 46.426337 267.77064 
L 46.438274 265.866135 
L 46.447414 263.961631 
L 46.454255 262.057127 
L 46.459221 260.152622 
L 46.462653 258.248118 
L 46.464801 256.343614 
L 46.465823 254.43911 
L 46.465774 252.534605 
L 46.464603 250.630101 
L 46.462141 248.725597 
L 46.45808 246.821092 
L 46.451957 244.916588 
L 46.443123 243.012084 
L 46.43071 241.10758 
L 46.413595 239.203075 
L 46.390362 237.298571 
L 46.359262 235.394067 
L 46.318181 233.489562 
L 46.264607 231.585058 
L 46.195623 229.680554 
L 46.10791 227.776049 
L 45.997773 225.871545 
L 45.861198 223.967041 
L 45.693942 222.062537 
L 45.491653 220.158032 
L 45.250027 218.253528 
L 44.964992 216.349024 
L 44.632917 214.444519 
L 44.250832 212.540015 
L 43.81665 210.635511 
L 43.32937 208.731007 
L 42.789244 206.826502 
L 42.197901 204.921998 
L 41.558395 203.017494 
L 40.875184 201.112989 
L 40.154021 199.208485 
L 39.40177 197.303981 
L 38.626141 195.399476 
L 37.835374 193.494972 
L 37.03789 191.590468 
L 36.241931 189.685964 
L 35.455223 187.781459 
L 34.684686 185.876955 
L 33.936225 183.972451 
L 33.214599 182.067946 
L 32.523398 180.163442 
L 31.865117 178.258938 
L 31.241314 176.354434 
L 30.652848 174.449929 
L 30.100157 172.545425 
L 29.58356 170.640921 
L 29.103562 168.736416 
L 28.661112 166.831912 
L 28.257822 164.927408 
L 27.896116 163.022903 
L 27.579289 161.118399 
L 27.311498 159.213895 
L 27.09766 157.309391 
L 26.943281 155.404886 
L 26.854212 153.500382 
L 26.836364 151.595878 
L 26.895374 149.691373 
L 27.036264 147.786869 
L 27.263097 145.882365 
L 27.578653 143.977861 
L 27.984148 142.073356 
L 28.479011 140.168852 
L 29.060732 138.264348 
L 29.724802 136.359843 
L 30.464734 134.455339 
L 31.272186 132.550835 
L 32.137168 130.646331 
L 33.048326 128.741826 
L 33.993292 126.837322 
L 34.959076 124.932818 
L 35.932485 123.028313 
L 36.90054 121.123809 
L 37.850875 119.219305 
L 55.094579 119.219305 
L 55.094579 119.219305 
L 56.044915 121.123809 
L 57.012969 123.028313 
L 57.986378 124.932818 
L 58.952162 126.837322 
L 59.897128 128.741826 
L 60.808286 130.646331 
L 61.673268 132.550835 
L 62.48072 134.455339 
L 63.220652 136.359843 
L 63.884722 138.264348 
L 64.466444 140.168852 
L 64.961306 142.073356 
L 65.366801 143.977861 
L 65.682357 145.882365 
L 65.90919 147.786869 
L 66.050081 149.691373 
L 66.109091 151.595878 
L 66.091243 153.500382 
L 66.002174 155.404886 
L 65.847794 157.309391 
L 65.633957 159.213895 
L 65.366165 161.118399 
L 65.049339 163.022903 
L 64.687632 164.927408 
L 64.284343 166.831912 
L 63.841893 168.736416 
L 63.361894 170.640921 
L 62.845298 172.545425 
L 62.292606 174.449929 
L 61.70414 176.354434 
L 61.080338 178.258938 
L 60.422056 180.163442 
L 59.730856 182.067946 
L 59.009229 183.972451 
L 58.260768 185.876955 
L 57.490232 187.781459 
L 56.703523 189.685964 
L 55.907564 191.590468 
L 55.110081 193.494972 
L 54.319314 195.399476 
L 53.543684 197.303981 
L 52.791433 199.208485 
L 52.070271 201.112989 
L 51.387059 203.017494 
L 50.747553 204.921998 
L 50.15621 206.826502 
L 49.616085 208.731007 
L 49.128804 210.635511 
L 48.694623 212.540015 
L 48.312538 214.444519 
L 47.980463 216.349024 
L 47.695427 218.253528 
L 47.453801 220.158032 
L 47.251512 222.062537 
L 47.084256 223.967041 
L 46.947681 225.871545 
L 46.837544 227.776049 
L 46.749831 229.680554 
L 46.680848 231.585058 
L 46.627274 233.489562 
L 46.586192 235.394067 
L 46.555093 237.298571 
L 46.53186 239.203075 
L 46.514745 241.10758 
L 46.502331 243.012084 
L 46.493497 244.916588 
L 46.487374 246.821092 
L 46.483314 248.725597 
L 46.480851 250.630101 
L 46.479681 252.534605 
L 46.479632 254.43911 
L 46.480653 256.343614 
L 46.482802 258.248118 
L 46.486234 260.152622 
L 46.4912 262.057127 
L 46.49804 263.961631 
L 46.50718 265.866135 
L 46.519118 267.77064 
L 46.534414 269.675144 
L 46.553667 271.579648 
L 46.577486 273.484152 
L 46.606452 275.388657 
L 46.64107 277.293161 
L 46.681719 279.197665 
L 46.728589 281.10217 
L 46.781631 283.006674 
L 46.840502 284.911178 
L 46.904525 286.815683 
L 46.972667 288.720187 
L 47.043541 290.624691 
L 47.11543 292.529195 
L 47.186345 294.4337 
L 47.254104 296.338204 
L 47.31644 298.242708 
L 47.371123 300.147213 
L 47.416094 302.051717 
L 47.449587 303.956221 
L 47.470251 305.860725 
L 47.477236 307.76523 
L 47.477236 307.76523 
z
" clip-path="url(#pb14bae9baf)" style="fill: none; stroke: #000000; stroke-opacity: 0.3"/>
   </g>
   <g id="FillBetweenPolyCollection_8">
    <path d="M 112.505909 175.293226 
L 111.348636 175.293226 
L 111.354123 174.204244 
L 111.372103 173.115263 
L 111.400815 172.026282 
L 111.437632 170.9373 
L 111.479298 169.848319 
L 111.522216 168.759338 
L 111.562758 167.670356 
L 111.597555 166.581375 
L 111.623755 165.492394 
L 111.639214 164.403412 
L 111.642632 163.314431 
L 111.633617 162.22545 
L 111.612685 161.136468 
L 111.581189 160.047487 
L 111.541181 158.958506 
L 111.495199 157.869524 
L 111.44599 156.780543 
L 111.396174 155.691562 
L 111.34788 154.602581 
L 111.302379 153.513599 
L 111.259774 152.424618 
L 111.218766 151.335637 
L 111.176562 150.246655 
L 111.128923 149.157674 
L 111.070368 148.068693 
L 110.994503 146.979711 
L 110.894445 145.89073 
L 110.763273 144.801749 
L 110.594467 143.712767 
L 110.382277 142.623786 
L 110.122002 141.534805 
L 109.810169 140.445823 
L 109.444624 139.356842 
L 109.024557 138.267861 
L 108.550496 137.178879 
L 108.02428 136.089898 
L 107.449018 135.000917 
L 106.829037 133.911935 
L 106.16977 132.822954 
L 105.477575 131.733973 
L 104.759468 130.644991 
L 104.022757 129.55601 
L 103.274617 128.467029 
L 102.521658 127.378047 
L 101.769551 126.289066 
L 101.022781 125.200085 
L 100.284593 124.111104 
L 99.557156 123.022122 
L 98.841916 121.933141 
L 98.140108 120.84416 
L 97.45332 119.755178 
L 96.784013 118.666197 
L 96.135892 117.577216 
L 95.514068 116.488234 
L 94.924966 115.399253 
L 94.37602 114.310272 
L 93.875209 113.22129 
L 93.430552 112.132309 
L 93.049661 111.043328 
L 92.739452 109.954346 
L 92.506048 108.865365 
L 92.354881 107.776384 
L 92.290909 106.687402 
L 92.318851 105.598421 
L 92.443312 104.50944 
L 92.668692 103.420458 
L 92.998825 102.331477 
L 93.436347 101.242496 
L 93.981886 100.153514 
L 94.633193 99.064533 
L 95.38441 97.975552 
L 96.225625 96.88657 
L 97.142862 95.797589 
L 98.118549 94.708608 
L 99.132469 93.619627 
L 100.16306 92.530645 
L 101.188908 91.441664 
L 102.190213 90.352683 
L 103.150031 89.263701 
L 104.055121 88.17472 
L 104.896314 87.085739 
L 105.668382 85.996757 
L 106.369508 84.907776 
L 107.00047 83.818795 
L 107.563733 82.729813 
L 108.062613 81.640832 
L 108.500649 80.551851 
L 108.881263 79.462869 
L 109.207724 78.373888 
L 109.483344 77.284907 
L 109.711828 76.195925 
L 109.897631 75.106944 
L 110.046209 74.017963 
L 110.164075 72.928981 
L 110.258614 71.84 
L 110.33767 70.751019 
L 110.408968 69.662037 
L 110.479472 68.573056 
L 110.554787 67.484075 
L 113.299759 67.484075 
L 113.299759 67.484075 
L 113.375073 68.573056 
L 113.445578 69.662037 
L 113.516876 70.751019 
L 113.595931 71.84 
L 113.69047 72.928981 
L 113.808336 74.017963 
L 113.956914 75.106944 
L 114.142717 76.195925 
L 114.371202 77.284907 
L 114.646822 78.373888 
L 114.973282 79.462869 
L 115.353897 80.551851 
L 115.791932 81.640832 
L 116.290812 82.729813 
L 116.854075 83.818795 
L 117.485037 84.907776 
L 118.186164 85.996757 
L 118.958232 87.085739 
L 119.799424 88.17472 
L 120.704514 89.263701 
L 121.664332 90.352683 
L 122.665637 91.441664 
L 123.691485 92.530645 
L 124.722077 93.619627 
L 125.735997 94.708608 
L 126.711684 95.797589 
L 127.62892 96.88657 
L 128.470136 97.975552 
L 129.221353 99.064533 
L 129.872659 100.153514 
L 130.418198 101.242496 
L 130.855721 102.331477 
L 131.185853 103.420458 
L 131.411233 104.50944 
L 131.535694 105.598421 
L 131.563636 106.687402 
L 131.499665 107.776384 
L 131.348498 108.865365 
L 131.115094 109.954346 
L 130.804884 111.043328 
L 130.423993 112.132309 
L 129.979336 113.22129 
L 129.478525 114.310272 
L 128.929579 115.399253 
L 128.340478 116.488234 
L 127.718654 117.577216 
L 127.070533 118.666197 
L 126.401225 119.755178 
L 125.714438 120.84416 
L 125.01263 121.933141 
L 124.29739 123.022122 
L 123.569952 124.111104 
L 122.831765 125.200085 
L 122.084994 126.289066 
L 121.332887 127.378047 
L 120.579929 128.467029 
L 119.831789 129.55601 
L 119.095077 130.644991 
L 118.37697 131.733973 
L 117.684776 132.822954 
L 117.025508 133.911935 
L 116.405527 135.000917 
L 115.830266 136.089898 
L 115.304049 137.178879 
L 114.829988 138.267861 
L 114.409922 139.356842 
L 114.044377 140.445823 
L 113.732544 141.534805 
L 113.472268 142.623786 
L 113.260078 143.712767 
L 113.091272 144.801749 
L 112.960101 145.89073 
L 112.860042 146.979711 
L 112.784178 148.068693 
L 112.725622 149.157674 
L 112.677983 150.246655 
L 112.635779 151.335637 
L 112.594772 152.424618 
L 112.552166 153.513599 
L 112.506666 154.602581 
L 112.458371 155.691562 
L 112.408555 156.780543 
L 112.359346 157.869524 
L 112.313364 158.958506 
L 112.273356 160.047487 
L 112.241861 161.136468 
L 112.220929 162.22545 
L 112.211914 163.314431 
L 112.215332 164.403412 
L 112.23079 165.492394 
L 112.25699 166.581375 
L 112.291788 167.670356 
L 112.33233 168.759338 
L 112.375248 169.848319 
L 112.416914 170.9373 
L 112.453731 172.026282 
L 112.482443 173.115263 
L 112.500423 174.204244 
L 112.505909 175.293226 
L 112.505909 175.293226 
z
" clip-path="url(#pb14bae9baf)" style="fill: none; stroke: #000000; stroke-opacity: 0.3"/>
   </g>
   <g id="FillBetweenPolyCollection_9">
    <path d="M 112.632402 240.840262 
L 111.222144 240.840262 
L 111.227983 239.319275 
L 111.245215 237.798287 
L 111.272995 236.2773 
L 111.309994 234.756312 
L 111.354499 233.235325 
L 111.404547 231.714337 
L 111.458064 230.19335 
L 111.513 228.672362 
L 111.567454 227.151375 
L 111.61977 225.630387 
L 111.668594 224.1094 
L 111.712906 222.588412 
L 111.752013 221.067425 
L 111.785517 219.546437 
L 111.813262 218.02545 
L 111.835265 216.504462 
L 111.85165 214.983475 
L 111.862578 213.462487 
L 111.868192 211.9415 
L 111.868579 210.420512 
L 111.863745 208.899525 
L 111.853615 207.378537 
L 111.838051 205.85755 
L 111.816891 204.336562 
L 111.790003 202.815575 
L 111.757348 201.294587 
L 111.719052 199.7736 
L 111.675473 198.252612 
L 111.627255 196.731625 
L 111.575365 195.210637 
L 111.521103 193.68965 
L 111.466077 192.168662 
L 111.412146 190.647675 
L 111.361322 189.126687 
L 111.315656 187.6057 
L 111.27709 186.084712 
L 111.247316 184.563725 
L 111.227627 183.042737 
L 111.218804 181.52175 
L 111.221021 180.000762 
L 111.233798 178.479775 
L 111.255997 176.958787 
L 111.285858 175.4378 
L 111.321071 173.916812 
L 111.35887 172.395825 
L 111.396143 170.874837 
L 111.42954 169.35385 
L 111.455567 167.832862 
L 111.470662 166.311875 
L 111.47124 164.790887 
L 111.453719 163.2699 
L 111.414513 161.748912 
L 111.35001 160.227925 
L 111.256542 158.706937 
L 111.130349 157.18595 
L 110.967547 155.664962 
L 110.764118 154.143975 
L 110.515919 152.622987 
L 110.218726 151.102 
L 109.868308 149.581012 
L 109.46055 148.060025 
L 108.991625 146.539037 
L 108.458201 145.01805 
L 107.857704 143.497062 
L 107.188607 141.976075 
L 106.450745 140.455087 
L 105.645632 138.9341 
L 104.776755 137.413112 
L 103.849816 135.892125 
L 102.872898 134.371137 
L 101.856515 132.85015 
L 100.813543 131.329162 
L 99.758993 129.808175 
L 98.709654 128.287187 
L 97.68359 126.7662 
L 96.699536 125.245212 
L 95.776228 123.724225 
L 94.9317 122.203237 
L 94.182613 120.68225 
L 93.543662 119.161262 
L 93.027083 117.640275 
L 92.64231 116.119287 
L 92.395784 114.5983 
L 92.290909 113.077312 
L 92.328142 111.556325 
L 92.505186 110.035337 
L 92.817258 108.51435 
L 93.257388 106.993362 
L 93.816721 105.472375 
L 94.484812 103.951387 
L 95.249879 102.4304 
L 96.099035 100.909412 
L 97.018486 99.388425 
L 97.993733 97.867437 
L 99.009777 96.34645 
L 100.051346 94.825462 
L 101.103161 93.304475 
L 102.150246 91.783487 
L 103.178261 90.2625 
L 120.676284 90.2625 
L 120.676284 90.2625 
L 121.7043 91.783487 
L 122.751385 93.304475 
L 123.8032 94.825462 
L 124.844768 96.34645 
L 125.860812 97.867437 
L 126.83606 99.388425 
L 127.755511 100.909412 
L 128.604666 102.4304 
L 129.369734 103.951387 
L 130.037825 105.472375 
L 130.597158 106.993362 
L 131.037287 108.51435 
L 131.349359 110.035337 
L 131.526404 111.556325 
L 131.563636 113.077312 
L 131.458761 114.5983 
L 131.212236 116.119287 
L 130.827463 117.640275 
L 130.310883 119.161262 
L 129.671932 120.68225 
L 128.922846 122.203237 
L 128.078317 123.724225 
L 127.155009 125.245212 
L 126.170956 126.7662 
L 125.144891 128.287187 
L 124.095552 129.808175 
L 123.041003 131.329162 
L 121.99803 132.85015 
L 120.981648 134.371137 
L 120.004729 135.892125 
L 119.077791 137.413112 
L 118.208914 138.9341 
L 117.403801 140.455087 
L 116.665939 141.976075 
L 115.996841 143.497062 
L 115.396344 145.01805 
L 114.862921 146.539037 
L 114.393995 148.060025 
L 113.986238 149.581012 
L 113.635819 151.102 
L 113.338626 152.622987 
L 113.090428 154.143975 
L 112.886999 155.664962 
L 112.724197 157.18595 
L 112.598003 158.706937 
L 112.504535 160.227925 
L 112.440033 161.748912 
L 112.400826 163.2699 
L 112.383305 164.790887 
L 112.383884 166.311875 
L 112.398979 167.832862 
L 112.425006 169.35385 
L 112.458403 170.874837 
L 112.495675 172.395825 
L 112.533474 173.916812 
L 112.568687 175.4378 
L 112.598549 176.958787 
L 112.620748 178.479775 
L 112.633525 180.000762 
L 112.635741 181.52175 
L 112.626918 183.042737 
L 112.60723 184.563725 
L 112.577455 186.084712 
L 112.53889 187.6057 
L 112.493223 189.126687 
L 112.4424 190.647675 
L 112.388468 192.168662 
L 112.333442 193.68965 
L 112.279181 195.210637 
L 112.227291 196.731625 
L 112.179072 198.252612 
L 112.135493 199.7736 
L 112.097197 201.294587 
L 112.064542 202.815575 
L 112.037654 204.336562 
L 112.016494 205.85755 
L 112.000931 207.378537 
L 111.990801 208.899525 
L 111.985967 210.420512 
L 111.986354 211.9415 
L 111.991968 213.462487 
L 112.002895 214.983475 
L 112.01928 216.504462 
L 112.041283 218.02545 
L 112.069028 219.546437 
L 112.102533 221.067425 
L 112.14164 222.588412 
L 112.185952 224.1094 
L 112.234775 225.630387 
L 112.287091 227.151375 
L 112.341546 228.672362 
L 112.396482 230.19335 
L 112.449998 231.714337 
L 112.500046 233.235325 
L 112.544552 234.756312 
L 112.58155 236.2773 
L 112.609331 237.798287 
L 112.626562 239.319275 
L 112.632402 240.840262 
L 112.632402 240.840262 
z
" clip-path="url(#pb14bae9baf)" style="fill: none; stroke: #000000; stroke-opacity: 0.3"/>
   </g>
   <g id="FillBetweenPolyCollection_10">
    <path d="M 112.511588 282.125277 
L 111.342957 282.125277 
L 111.353768 279.335228 
L 111.385013 276.545179 
L 111.433351 273.755129 
L 111.493873 270.96508 
L 111.56092 268.175031 
L 111.628948 265.384982 
L 111.693249 262.594932 
L 111.75042 259.804883 
L 111.798524 257.014834 
L 111.83698 254.224784 
L 111.866271 251.434735 
L 111.88757 248.644686 
L 111.90238 245.854637 
L 111.912238 243.064587 
L 111.918524 240.274538 
L 111.922367 237.484489 
L 111.92462 234.694439 
L 111.925883 231.90439 
L 111.926552 229.114341 
L 111.926867 226.324292 
L 111.926953 223.534242 
L 111.926843 220.744193 
L 111.926482 217.954144 
L 111.925709 215.164094 
L 111.924213 212.374045 
L 111.921456 209.583996 
L 111.916573 206.793947 
L 111.908234 204.003897 
L 111.894489 201.213848 
L 111.872609 198.423799 
L 111.838953 195.633749 
L 111.788893 192.8437 
L 111.716823 190.053651 
L 111.6163 187.263602 
L 111.480292 184.473552 
L 111.301532 181.683503 
L 111.072914 178.893454 
L 110.78787 176.103404 
L 110.440632 173.313355 
L 110.026353 170.523306 
L 109.541031 167.733257 
L 108.981281 164.943207 
L 108.344016 162.153158 
L 107.626153 159.363109 
L 106.824466 156.573059 
L 105.935745 153.78301 
L 104.957383 150.992961 
L 103.888494 148.202912 
L 102.731583 145.412862 
L 101.494658 142.622813 
L 100.193503 139.832764 
L 98.853629 137.042714 
L 97.51131 134.252665 
L 96.213097 131.462616 
L 95.013409 128.672567 
L 93.970217 125.882517 
L 93.139332 123.092468 
L 92.568271 120.302419 
L 92.290909 117.512369 
L 92.324011 114.72232 
L 92.66628 111.932271 
L 93.299903 109.142222 
L 94.193937 106.352172 
L 95.30851 103.562123 
L 96.598766 100.772074 
L 98.017855 97.982024 
L 99.518778 95.191975 
L 101.055379 92.401926 
L 102.583066 89.611877 
L 104.059815 86.821827 
L 105.447709 84.031778 
L 106.714932 81.241729 
L 107.83778 78.451679 
L 108.80216 75.66163 
L 109.604105 72.871581 
L 110.249133 70.081532 
L 110.750525 67.291482 
L 111.126899 64.501433 
L 111.399539 61.711384 
L 111.589944 58.921334 
L 111.717913 56.131285 
L 111.800313 53.341236 
L 111.850518 50.551187 
L 111.87838 47.761137 
L 111.890563 44.971088 
L 111.891075 42.181039 
L 111.881875 39.390989 
L 111.8635 36.60094 
L 111.835679 33.810891 
L 111.797934 31.020842 
L 111.750162 28.230792 
L 111.69314 25.440743 
L 111.628903 22.650694 
L 111.560903 19.860644 
L 111.493867 17.070595 
L 111.433349 14.280546 
L 111.385012 11.490497 
L 111.353767 8.700447 
L 111.342957 5.910398 
L 112.511588 5.910398 
L 112.511588 5.910398 
L 112.500778 8.700447 
L 112.469534 11.490497 
L 112.421197 14.280546 
L 112.360679 17.070595 
L 112.293643 19.860644 
L 112.225642 22.650694 
L 112.161406 25.440743 
L 112.104383 28.230792 
L 112.056611 31.020842 
L 112.018867 33.810891 
L 111.991045 36.60094 
L 111.97267 39.390989 
L 111.96347 42.181039 
L 111.963982 44.971088 
L 111.976165 47.761137 
L 112.004028 50.551187 
L 112.054233 53.341236 
L 112.136633 56.131285 
L 112.264601 58.921334 
L 112.455006 61.711384 
L 112.727646 64.501433 
L 113.10402 67.291482 
L 113.605413 70.081532 
L 114.250441 72.871581 
L 115.052386 75.66163 
L 116.016765 78.451679 
L 117.139614 81.241729 
L 118.406837 84.031778 
L 119.79473 86.821827 
L 121.271479 89.611877 
L 122.799167 92.401926 
L 124.335768 95.191975 
L 125.836691 97.982024 
L 127.25578 100.772074 
L 128.546035 103.562123 
L 129.660608 106.352172 
L 130.554643 109.142222 
L 131.188265 111.932271 
L 131.530534 114.72232 
L 131.563636 117.512369 
L 131.286274 120.302419 
L 130.715213 123.092468 
L 129.884328 125.882517 
L 128.841136 128.672567 
L 127.641448 131.462616 
L 126.343235 134.252665 
L 125.000917 137.042714 
L 123.661043 139.832764 
L 122.359887 142.622813 
L 121.122963 145.412862 
L 119.966052 148.202912 
L 118.897163 150.992961 
L 117.918801 153.78301 
L 117.03008 156.573059 
L 116.228393 159.363109 
L 115.510529 162.153158 
L 114.873265 164.943207 
L 114.313515 167.733257 
L 113.828193 170.523306 
L 113.413914 173.313355 
L 113.066676 176.103404 
L 112.781631 178.893454 
L 112.553014 181.683503 
L 112.374254 184.473552 
L 112.238246 187.263602 
L 112.137722 190.053651 
L 112.065653 192.8437 
L 112.015592 195.633749 
L 111.981937 198.423799 
L 111.960057 201.213848 
L 111.946311 204.003897 
L 111.937972 206.793947 
L 111.933089 209.583996 
L 111.930333 212.374045 
L 111.928836 215.164094 
L 111.928063 217.954144 
L 111.927702 220.744193 
L 111.927592 223.534242 
L 111.927679 226.324292 
L 111.927994 229.114341 
L 111.928663 231.90439 
L 111.929926 234.694439 
L 111.932178 237.484489 
L 111.936022 240.274538 
L 111.942308 243.064587 
L 111.952165 245.854637 
L 111.966975 248.644686 
L 111.988275 251.434735 
L 112.017566 254.224784 
L 112.056021 257.014834 
L 112.104125 259.804883 
L 112.161297 262.594932 
L 112.225598 265.384982 
L 112.293625 268.175031 
L 112.360672 270.96508 
L 112.421194 273.755129 
L 112.469533 276.545179 
L 112.500778 279.335228 
L 112.511588 282.125277 
L 112.511588 282.125277 
z
" clip-path="url(#pb14bae9baf)" style="fill: none; stroke: #000000; stroke-opacity: 0.3"/>
   </g>
   <g id="FillBetweenPolyCollection_11">
    <path d="M 114.459629 170.869388 
L 109.394916 170.869388 
L 109.295576 169.99463 
L 109.201823 169.119872 
L 109.114085 168.245114 
L 109.032684 167.370356 
L 108.957828 166.495597 
L 108.889609 165.620839 
L 108.827998 164.746081 
L 108.772839 163.871323 
L 108.723845 162.996565 
L 108.680597 162.121807 
L 108.642536 161.247049 
L 108.608959 160.372291 
L 108.57901 159.497533 
L 108.551676 158.622775 
L 108.525779 157.748017 
L 108.499968 156.873259 
L 108.472717 155.9985 
L 108.442319 155.123742 
L 108.406886 154.248984 
L 108.364359 153.374226 
L 108.31251 152.499468 
L 108.248965 151.62471 
L 108.171222 150.749952 
L 108.076689 149.875194 
L 107.962718 149.000436 
L 107.826657 148.125678 
L 107.665901 147.25092 
L 107.477959 146.376162 
L 107.260519 145.501404 
L 107.011519 144.626645 
L 106.72922 143.751887 
L 106.412274 142.877129 
L 106.059795 142.002371 
L 105.671416 141.127613 
L 105.247339 140.252855 
L 104.788374 139.378097 
L 104.295958 138.503339 
L 103.772167 137.628581 
L 103.219697 136.753823 
L 102.641837 135.879065 
L 102.042422 135.004307 
L 101.425764 134.129548 
L 100.796573 133.25479 
L 100.159861 132.380032 
L 99.52084 131.505274 
L 98.884815 130.630516 
L 98.257067 129.755758 
L 97.642748 128.881 
L 97.04678 128.006242 
L 96.473756 127.131484 
L 95.927869 126.256726 
L 95.41284 125.381968 
L 94.931879 124.50721 
L 94.487653 123.632451 
L 94.082278 122.757693 
L 93.717329 121.882935 
L 93.393861 121.008177 
L 93.112447 120.133419 
L 92.873228 119.258661 
L 92.67596 118.383903 
L 92.520081 117.509145 
L 92.404757 116.634387 
L 92.328945 115.759629 
L 92.291439 114.884871 
L 92.290909 114.010113 
L 92.325937 113.135355 
L 92.395041 112.260596 
L 92.49669 111.385838 
L 92.629316 110.51108 
L 92.791316 109.636322 
L 92.981055 108.761564 
L 93.196862 107.886806 
L 93.437037 107.012048 
L 93.699848 106.13729 
L 93.983544 105.262532 
L 94.286364 104.387774 
L 94.60656 103.513016 
L 94.942414 102.638258 
L 95.292273 101.763499 
L 95.654569 100.888741 
L 96.027858 100.013983 
L 96.410837 99.139225 
L 96.802373 98.264467 
L 97.201517 97.389709 
L 97.60751 96.514951 
L 98.019779 95.640193 
L 98.437929 94.765435 
L 98.861712 93.890677 
L 99.291001 93.015919 
L 99.725743 92.141161 
L 100.165917 91.266402 
L 100.611482 90.391644 
L 101.062323 89.516886 
L 101.518211 88.642128 
L 101.978752 87.76737 
L 102.443357 86.892612 
L 102.911216 86.017854 
L 103.381288 85.143096 
L 103.852295 84.268338 
L 120.002251 84.268338 
L 120.002251 84.268338 
L 120.473257 85.143096 
L 120.943329 86.017854 
L 121.411189 86.892612 
L 121.875794 87.76737 
L 122.336335 88.642128 
L 122.792222 89.516886 
L 123.243064 90.391644 
L 123.688628 91.266402 
L 124.128803 92.141161 
L 124.563545 93.015919 
L 124.992833 93.890677 
L 125.416617 94.765435 
L 125.834766 95.640193 
L 126.247036 96.514951 
L 126.653028 97.389709 
L 127.052172 98.264467 
L 127.443709 99.139225 
L 127.826688 100.013983 
L 128.199976 100.888741 
L 128.562273 101.763499 
L 128.912131 102.638258 
L 129.247986 103.513016 
L 129.568181 104.387774 
L 129.871001 105.262532 
L 130.154697 106.13729 
L 130.417508 107.012048 
L 130.657683 107.886806 
L 130.873491 108.761564 
L 131.06323 109.636322 
L 131.22523 110.51108 
L 131.357856 111.385838 
L 131.459505 112.260596 
L 131.528608 113.135355 
L 131.563636 114.010113 
L 131.563106 114.884871 
L 131.5256 115.759629 
L 131.449789 116.634387 
L 131.334465 117.509145 
L 131.178585 118.383903 
L 130.981318 119.258661 
L 130.742098 120.133419 
L 130.460685 121.008177 
L 130.137216 121.882935 
L 129.772267 122.757693 
L 129.366892 123.632451 
L 128.922666 124.50721 
L 128.441705 125.381968 
L 127.926676 126.256726 
L 127.380789 127.131484 
L 126.807766 128.006242 
L 126.211797 128.881 
L 125.597479 129.755758 
L 124.969731 130.630516 
L 124.333705 131.505274 
L 123.694685 132.380032 
L 123.057973 133.25479 
L 122.428781 134.129548 
L 121.812123 135.004307 
L 121.212708 135.879065 
L 120.634849 136.753823 
L 120.082378 137.628581 
L 119.558587 138.503339 
L 119.066172 139.378097 
L 118.607207 140.252855 
L 118.18313 141.127613 
L 117.794751 142.002371 
L 117.442272 142.877129 
L 117.125326 143.751887 
L 116.843026 144.626645 
L 116.594026 145.501404 
L 116.376586 146.376162 
L 116.188645 147.25092 
L 116.027889 148.125678 
L 115.891827 149.000436 
L 115.777856 149.875194 
L 115.683323 150.749952 
L 115.605581 151.62471 
L 115.542035 152.499468 
L 115.490186 153.374226 
L 115.447659 154.248984 
L 115.412227 155.123742 
L 115.381829 155.9985 
L 115.354577 156.873259 
L 115.328767 157.748017 
L 115.302869 158.622775 
L 115.275535 159.497533 
L 115.245586 160.372291 
L 115.212009 161.247049 
L 115.173948 162.121807 
L 115.130701 162.996565 
L 115.081707 163.871323 
L 115.026547 164.746081 
L 114.964936 165.620839 
L 114.896718 166.495597 
L 114.821862 167.370356 
L 114.74046 168.245114 
L 114.652723 169.119872 
L 114.55897 169.99463 
L 114.459629 170.869388 
L 114.459629 170.869388 
z
" clip-path="url(#pb14bae9baf)" style="fill: none; stroke: #000000; stroke-opacity: 0.3"/>
   </g>
   <g id="FillBetweenPolyCollection_12">
    <path d="M 112.375358 317.472414 
L 111.479187 317.472414 
L 111.484116 314.685899 
L 111.500211 311.899383 
L 111.525437 309.112867 
L 111.556781 306.326352 
L 111.590512 303.539836 
L 111.622514 300.753321 
L 111.648632 297.966805 
L 111.665006 295.180289 
L 111.668375 292.393774 
L 111.656341 289.607258 
L 111.627603 286.820742 
L 111.582149 284.034227 
L 111.521391 281.247711 
L 111.448217 278.461196 
L 111.366919 275.67468 
L 111.282959 272.888164 
L 111.202559 270.101649 
L 111.132144 267.315133 
L 111.077676 264.528618 
L 111.043985 261.742102 
L 111.034196 258.955586 
L 111.049358 256.169071 
L 111.08834 253.382555 
L 111.148025 250.596039 
L 111.22375 247.809524 
L 111.309933 245.023008 
L 111.400762 242.236493 
L 111.490831 239.449977 
L 111.575646 236.663461 
L 111.651923 233.876946 
L 111.717686 231.09043 
L 111.772172 228.303914 
L 111.815611 225.517399 
L 111.848924 222.730883 
L 111.873408 219.944368 
L 111.890441 217.157852 
L 111.901222 214.371336 
L 111.906566 211.584821 
L 111.906714 208.798305 
L 111.90117 206.011789 
L 111.88852 203.225274 
L 111.866242 200.438758 
L 111.830517 197.652243 
L 111.776045 194.865727 
L 111.695929 192.079211 
L 111.581668 189.292696 
L 111.423313 186.50618 
L 111.209829 183.719665 
L 110.92968 180.933149 
L 110.571609 178.146633 
L 110.125539 175.360118 
L 109.583483 172.573602 
L 108.940341 169.787086 
L 108.194442 167.000571 
L 107.347773 164.214055 
L 106.405868 161.42754 
L 105.377435 158.641024 
L 104.273859 155.854508 
L 103.108764 153.067993 
L 101.897765 150.281477 
L 100.658513 147.494961 
L 99.411003 144.708446 
L 98.177996 141.92193 
L 96.985337 139.135415 
L 95.861914 136.348899 
L 94.839037 133.562383 
L 93.94915 130.775868 
L 93.223906 127.989352 
L 92.691816 125.202837 
L 92.375787 122.416321 
L 92.290909 119.629805 
L 92.442843 116.84329 
L 92.827046 114.056774 
L 93.428953 111.270258 
L 94.225074 108.483743 
L 95.184835 105.697227 
L 96.27292 102.910712 
L 97.451806 100.124196 
L 98.684215 97.33768 
L 99.935245 94.551165 
L 101.174012 91.764649 
L 102.374697 88.978133 
L 103.517012 86.191618 
L 104.586116 83.405102 
L 105.572122 80.618587 
L 106.469336 77.832071 
L 107.275397 75.045555 
L 107.99047 72.25904 
L 108.616601 69.472524 
L 109.157269 66.686009 
L 109.617159 63.899493 
L 110.00206 61.112977 
L 110.31882 58.326462 
L 110.575267 55.539946 
L 110.78001 52.75343 
L 110.942116 49.966915 
L 111.070651 47.180399 
L 111.17417 44.393884 
L 111.260218 41.607368 
L 112.594327 41.607368 
L 112.594327 41.607368 
L 112.680375 44.393884 
L 112.783894 47.180399 
L 112.912429 49.966915 
L 113.074535 52.75343 
L 113.279279 55.539946 
L 113.535725 58.326462 
L 113.852485 61.112977 
L 114.237386 63.899493 
L 114.697276 66.686009 
L 115.237945 69.472524 
L 115.864075 72.25904 
L 116.579149 75.045555 
L 117.38521 77.832071 
L 118.282423 80.618587 
L 119.26843 83.405102 
L 120.337534 86.191618 
L 121.479848 88.978133 
L 122.680534 91.764649 
L 123.9193 94.551165 
L 125.17033 97.33768 
L 126.402739 100.124196 
L 127.581625 102.910712 
L 128.669711 105.697227 
L 129.629472 108.483743 
L 130.425592 111.270258 
L 131.027499 114.056774 
L 131.411702 116.84329 
L 131.563636 119.629805 
L 131.478759 122.416321 
L 131.16273 125.202837 
L 130.630639 127.989352 
L 129.905395 130.775868 
L 129.015508 133.562383 
L 127.992631 136.348899 
L 126.869208 139.135415 
L 125.676549 141.92193 
L 124.443542 144.708446 
L 123.196033 147.494961 
L 121.956781 150.281477 
L 120.745781 153.067993 
L 119.580686 155.854508 
L 118.477111 158.641024 
L 117.448677 161.42754 
L 116.506772 164.214055 
L 115.660104 167.000571 
L 114.914205 169.787086 
L 114.271062 172.573602 
L 113.729007 175.360118 
L 113.282936 178.146633 
L 112.924866 180.933149 
L 112.644717 183.719665 
L 112.431233 186.50618 
L 112.272877 189.292696 
L 112.158617 192.079211 
L 112.078501 194.865727 
L 112.024028 197.652243 
L 111.988303 200.438758 
L 111.966026 203.225274 
L 111.953375 206.011789 
L 111.947831 208.798305 
L 111.94798 211.584821 
L 111.953323 214.371336 
L 111.964105 217.157852 
L 111.981137 219.944368 
L 112.005622 222.730883 
L 112.038935 225.517399 
L 112.082374 228.303914 
L 112.13686 231.09043 
L 112.202622 233.876946 
L 112.278899 236.663461 
L 112.363714 239.449977 
L 112.453784 242.236493 
L 112.544612 245.023008 
L 112.630796 247.809524 
L 112.706521 250.596039 
L 112.766205 253.382555 
L 112.805188 256.169071 
L 112.82035 258.955586 
L 112.810561 261.742102 
L 112.77687 264.528618 
L 112.722402 267.315133 
L 112.651987 270.101649 
L 112.571587 272.888164 
L 112.487626 275.67468 
L 112.406328 278.461196 
L 112.333155 281.247711 
L 112.272397 284.034227 
L 112.226942 286.820742 
L 112.198204 289.607258 
L 112.18617 292.393774 
L 112.189539 295.180289 
L 112.205914 297.966805 
L 112.232032 300.753321 
L 112.264033 303.539836 
L 112.297764 306.326352 
L 112.329108 309.112867 
L 112.354335 311.899383 
L 112.370429 314.685899 
L 112.375358 317.472414 
L 112.375358 317.472414 
z
" clip-path="url(#pb14bae9baf)" style="fill: none; stroke: #000000; stroke-opacity: 0.3"/>
   </g>
   <g id="FillBetweenPolyCollection_13">
    <path d="M 112.405428 205.075162 
L 111.449117 205.075162 
L 111.455989 203.379714 
L 111.476073 201.684265 
L 111.507603 199.988817 
L 111.547902 198.293368 
L 111.593698 196.59792 
L 111.641478 194.902471 
L 111.687806 193.207022 
L 111.729541 191.511574 
L 111.763943 189.816125 
L 111.788644 188.120677 
L 111.801529 186.425228 
L 111.800575 184.72978 
L 111.78369 183.034331 
L 111.748646 181.338883 
L 111.69311 179.643434 
L 111.614833 177.947986 
L 111.511962 176.252537 
L 111.383436 174.557089 
L 111.229387 172.86164 
L 111.051452 171.166191 
L 110.852871 169.470743 
L 110.638299 167.775294 
L 110.413288 166.079846 
L 110.183461 164.384397 
L 109.95349 162.688949 
L 109.726038 160.9935 
L 109.500885 159.298052 
L 109.274433 157.602603 
L 109.039731 155.907155 
L 108.787085 154.211706 
L 108.505165 152.516257 
L 108.182443 150.820809 
L 107.808695 149.12536 
L 107.376298 147.429912 
L 106.881071 145.734463 
L 106.322523 144.039015 
L 105.703471 142.343566 
L 105.029141 140.648118 
L 104.30596 138.952669 
L 103.540323 137.257221 
L 102.737618 135.561772 
L 101.901769 133.866323 
L 101.035444 132.170875 
L 100.14093 130.475426 
L 99.221561 128.779978 
L 98.283401 127.084529 
L 97.336847 125.389081 
L 96.397767 123.693632 
L 95.487871 121.998184 
L 94.634152 120.302735 
L 93.867427 118.607287 
L 93.220161 116.911838 
L 92.723905 115.21639 
L 92.40672 113.520941 
L 92.290909 111.825492 
L 92.391285 110.130044 
L 92.714072 108.434595 
L 93.25643 106.739147 
L 94.006517 105.043698 
L 94.944011 103.34825 
L 96.041035 101.652801 
L 97.263453 99.957353 
L 98.572545 98.261904 
L 99.927018 96.566456 
L 101.285276 94.871007 
L 102.607796 93.175558 
L 103.859383 91.48011 
L 105.011076 89.784661 
L 106.041484 88.089213 
L 106.937427 86.393764 
L 107.693839 84.698316 
L 108.313012 83.002867 
L 108.803351 81.307419 
L 109.177858 79.61197 
L 109.452547 77.916522 
L 109.645007 76.221073 
L 109.773191 74.525624 
L 109.854496 72.830176 
L 109.905106 71.134727 
L 109.939509 69.439279 
L 109.970137 67.74383 
L 110.007049 66.048382 
L 110.057652 64.352933 
L 110.126484 62.657485 
L 110.215119 60.962036 
L 110.322268 59.266588 
L 110.444126 57.571139 
L 110.574982 55.875691 
L 110.708047 54.180242 
L 110.83639 52.484793 
L 110.953885 50.789345 
L 111.055985 49.093896 
L 111.140251 47.398448 
L 111.206521 45.702999 
L 111.256741 44.007551 
L 111.294485 42.312102 
L 111.324265 40.616654 
L 111.350773 38.921205 
L 111.378174 37.225757 
L 112.476372 37.225757 
L 112.476372 37.225757 
L 112.503772 38.921205 
L 112.530281 40.616654 
L 112.560061 42.312102 
L 112.597804 44.007551 
L 112.648025 45.702999 
L 112.714295 47.398448 
L 112.79856 49.093896 
L 112.900661 50.789345 
L 113.018155 52.484793 
L 113.146499 54.180242 
L 113.279563 55.875691 
L 113.41042 57.571139 
L 113.532278 59.266588 
L 113.639427 60.962036 
L 113.728062 62.657485 
L 113.796894 64.352933 
L 113.847497 66.048382 
L 113.884408 67.74383 
L 113.915036 69.439279 
L 113.949439 71.134727 
L 114.000049 72.830176 
L 114.081355 74.525624 
L 114.209538 76.221073 
L 114.401998 77.916522 
L 114.676688 79.61197 
L 115.051194 81.307419 
L 115.541534 83.002867 
L 116.160707 84.698316 
L 116.917118 86.393764 
L 117.813062 88.089213 
L 118.84347 89.784661 
L 119.995162 91.48011 
L 121.246749 93.175558 
L 122.569269 94.871007 
L 123.927527 96.566456 
L 125.282 98.261904 
L 126.591092 99.957353 
L 127.813511 101.652801 
L 128.910535 103.34825 
L 129.848029 105.043698 
L 130.598115 106.739147 
L 131.140473 108.434595 
L 131.463261 110.130044 
L 131.563636 111.825492 
L 131.447825 113.520941 
L 131.130641 115.21639 
L 130.634385 116.911838 
L 129.987118 118.607287 
L 129.220394 120.302735 
L 128.366675 121.998184 
L 127.456778 123.693632 
L 126.517698 125.389081 
L 125.571144 127.084529 
L 124.632984 128.779978 
L 123.713615 130.475426 
L 122.819102 132.170875 
L 121.952777 133.866323 
L 121.116928 135.561772 
L 120.314222 137.257221 
L 119.548585 138.952669 
L 118.825405 140.648118 
L 118.151075 142.343566 
L 117.532022 144.039015 
L 116.973474 145.734463 
L 116.478248 147.429912 
L 116.045851 149.12536 
L 115.672103 150.820809 
L 115.349381 152.516257 
L 115.067461 154.211706 
L 114.814814 155.907155 
L 114.580112 157.602603 
L 114.35366 159.298052 
L 114.128507 160.9935 
L 113.901056 162.688949 
L 113.671084 164.384397 
L 113.441258 166.079846 
L 113.216247 167.775294 
L 113.001675 169.470743 
L 112.803094 171.166191 
L 112.625159 172.86164 
L 112.47111 174.557089 
L 112.342583 176.252537 
L 112.239712 177.947986 
L 112.161436 179.643434 
L 112.1059 181.338883 
L 112.070855 183.034331 
L 112.053971 184.72978 
L 112.053016 186.425228 
L 112.065902 188.120677 
L 112.090602 189.816125 
L 112.125004 191.511574 
L 112.16674 193.207022 
L 112.213067 194.902471 
L 112.260848 196.59792 
L 112.306644 198.293368 
L 112.346943 199.988817 
L 112.378473 201.684265 
L 112.398556 203.379714 
L 112.405428 205.075162 
L 112.405428 205.075162 
z
" clip-path="url(#pb14bae9baf)" style="fill: none; stroke: #000000; stroke-opacity: 0.3"/>
   </g>
   <g id="FillBetweenPolyCollection_14">
    <path d="M 112.524685 237.147868 
L 111.329861 237.147868 
L 111.336301 235.563483 
L 111.355209 233.979097 
L 111.385386 232.394711 
L 111.424979 230.810326 
L 111.471664 229.22594 
L 111.522872 227.641554 
L 111.576021 226.057168 
L 111.628728 224.472783 
L 111.678967 222.888397 
L 111.725179 221.304011 
L 111.766317 219.719625 
L 111.801826 218.13524 
L 111.83159 216.550854 
L 111.855844 214.966468 
L 111.875067 213.382083 
L 111.889886 211.797697 
L 111.900984 210.213311 
L 111.909027 208.628925 
L 111.914609 207.04454 
L 111.918217 205.460154 
L 111.920205 203.875768 
L 111.920783 202.291382 
L 111.920009 200.706997 
L 111.917786 199.122611 
L 111.913858 197.538225 
L 111.907811 195.95384 
L 111.899076 194.369454 
L 111.886941 192.785068 
L 111.870568 191.200682 
L 111.84903 189.616297 
L 111.821355 188.031911 
L 111.786578 186.447525 
L 111.743807 184.863139 
L 111.692275 183.278754 
L 111.631378 181.694368 
L 111.560697 180.109982 
L 111.479967 178.525597 
L 111.389018 176.941211 
L 111.287671 175.356825 
L 111.175613 173.772439 
L 111.052256 172.188054 
L 110.91662 170.603668 
L 110.767256 169.019282 
L 110.602243 167.434896 
L 110.419263 165.850511 
L 110.215773 164.266125 
L 109.989248 162.681739 
L 109.737482 161.097354 
L 109.458899 159.512968 
L 109.15283 157.928582 
L 108.819715 156.344196 
L 108.461176 154.759811 
L 108.079942 153.175425 
L 107.679606 151.591039 
L 107.264223 150.006653 
L 106.837781 148.422268 
L 106.403592 146.837882 
L 105.963677 145.253496 
L 105.51822 143.669111 
L 105.065188 142.084725 
L 104.60018 140.500339 
L 104.116583 138.915953 
L 103.606056 137.331568 
L 103.059335 135.747182 
L 102.467325 134.162796 
L 101.822358 132.578411 
L 101.119513 130.994025 
L 100.357835 129.409639 
L 99.541286 127.825253 
L 98.679302 126.240868 
L 97.786856 124.656482 
L 96.883971 123.072096 
L 95.994722 121.48771 
L 95.145808 119.903325 
L 94.364835 118.318939 
L 93.678498 116.734553 
L 93.110827 115.150168 
L 92.681674 113.565782 
L 92.405552 111.981396 
L 92.290909 110.39701 
L 92.339849 108.812625 
L 92.548274 107.228239 
L 92.906402 105.643853 
L 93.399594 104.059467 
L 94.009414 102.475082 
L 94.714872 100.890696 
L 95.493758 99.30631 
L 96.324018 97.721925 
L 97.18506 96.137539 
L 98.058897 94.553153 
L 98.93102 92.968767 
L 99.790892 91.384382 
L 100.63202 89.799996 
L 101.451564 88.21561 
L 102.249562 86.631224 
L 103.027851 85.046839 
L 103.78888 83.462453 
L 104.534563 81.878067 
L 105.265364 80.293682 
L 118.589182 80.293682 
L 118.589182 80.293682 
L 119.319983 81.878067 
L 120.065665 83.462453 
L 120.826694 85.046839 
L 121.604983 86.631224 
L 122.402981 88.21561 
L 123.222526 89.799996 
L 124.063654 91.384382 
L 124.923526 92.968767 
L 125.795648 94.553153 
L 126.669485 96.137539 
L 127.530527 97.721925 
L 128.360787 99.30631 
L 129.139673 100.890696 
L 129.845131 102.475082 
L 130.454952 104.059467 
L 130.948144 105.643853 
L 131.306272 107.228239 
L 131.514696 108.812625 
L 131.563636 110.39701 
L 131.448994 111.981396 
L 131.172871 113.565782 
L 130.743718 115.150168 
L 130.176048 116.734553 
L 129.489711 118.318939 
L 128.708738 119.903325 
L 127.859823 121.48771 
L 126.970574 123.072096 
L 126.067689 124.656482 
L 125.175243 126.240868 
L 124.31326 127.825253 
L 123.49671 129.409639 
L 122.735032 130.994025 
L 122.032188 132.578411 
L 121.38722 134.162796 
L 120.79521 135.747182 
L 120.24849 137.331568 
L 119.737962 138.915953 
L 119.254365 140.500339 
L 118.789357 142.084725 
L 118.336325 143.669111 
L 117.890869 145.253496 
L 117.450953 146.837882 
L 117.016765 148.422268 
L 116.590323 150.006653 
L 116.17494 151.591039 
L 115.774604 153.175425 
L 115.393369 154.759811 
L 115.03483 156.344196 
L 114.701715 157.928582 
L 114.395647 159.512968 
L 114.117064 161.097354 
L 113.865298 162.681739 
L 113.638773 164.266125 
L 113.435282 165.850511 
L 113.252302 167.434896 
L 113.087289 169.019282 
L 112.937926 170.603668 
L 112.802289 172.188054 
L 112.678933 173.772439 
L 112.566875 175.356825 
L 112.465528 176.941211 
L 112.374578 178.525597 
L 112.293848 180.109982 
L 112.223167 181.694368 
L 112.162271 183.278754 
L 112.110738 184.863139 
L 112.067967 186.447525 
L 112.033191 188.031911 
L 112.005515 189.616297 
L 111.983978 191.200682 
L 111.967605 192.785068 
L 111.955469 194.369454 
L 111.946734 195.95384 
L 111.940687 197.538225 
L 111.936759 199.122611 
L 111.934536 200.706997 
L 111.933762 202.291382 
L 111.93434 203.875768 
L 111.936328 205.460154 
L 111.939936 207.04454 
L 111.945519 208.628925 
L 111.953562 210.213311 
L 111.96466 211.797697 
L 111.979479 213.382083 
L 111.998702 214.966468 
L 112.022955 216.550854 
L 112.05272 218.13524 
L 112.088229 219.719625 
L 112.129366 221.304011 
L 112.175579 222.888397 
L 112.225818 224.472783 
L 112.278524 226.057168 
L 112.331674 227.641554 
L 112.382882 229.22594 
L 112.429566 230.810326 
L 112.469159 232.394711 
L 112.499337 233.979097 
L 112.518244 235.563483 
L 112.524685 237.147868 
L 112.524685 237.147868 
z
" clip-path="url(#pb14bae9baf)" style="fill: none; stroke: #000000; stroke-opacity: 0.3"/>
   </g>
   <g id="matplotlib.axis_1"/>
   <g id="matplotlib.axis_2">
    <g id="ytick_1">
     <g id="line2d_1">
      <defs>
       <path id="ma9d0966457" d="M 0 0 
L -3.5 0 
" style="stroke: #000000; stroke-width: 0.8"/>
      </defs>
      <g>
       <use xlink:href="#ma9d0966457" x="21.6" y="291.6" style="stroke: #000000; stroke-width: 0.8"/>
      </g>
     </g>
     <g id="text_1">
      <text style="font-size: 10px; font-family: 'DejaVu Sans', 'Bitstream Vera Sans', 'Computer Modern Sans Serif', 'Lucida Grande', 'Verdana', 'Geneva', 'Lucid', 'Arial', 'Helvetica', 'Avant Garde', sans-serif; text-anchor: end" x="14.6" y="295.399219" transform="rotate(-0 14.6 295.399219)">0.1</text>
     </g>
    </g>
    <g id="ytick_2">
     <g id="line2d_2">
      <g>
       <use xlink:href="#ma9d0966457" x="21.6" y="199.8" style="stroke: #000000; stroke-width: 0.8"/>
      </g>
     </g>
     <g id="text_2">
      <text style="font-size: 10px; font-family: 'DejaVu Sans', 'Bitstream Vera Sans', 'Computer Modern Sans Serif', 'Lucida Grande', 'Verdana', 'Geneva', 'Lucid', 'Arial', 'Helvetica', 'Avant Garde', sans-serif; text-anchor: end" x="14.6" y="203.599219" transform="rotate(-0 14.6 203.599219)">0.2</text>
     </g>
    </g>
    <g id="ytick_3">
     <g id="line2d_3">
      <g>
       <use xlink:href="#ma9d0966457" x="21.6" y="108" style="stroke: #000000; stroke-width: 0.8"/>
      </g>
     </g>
     <g id="text_3">
      <text style="font-size: 10px; font-family: 'DejaVu Sans', 'Bitstream Vera Sans', 'Computer Modern Sans Serif', 'Lucida Grande', 'Verdana', 'Geneva', 'Lucid', 'Arial', 'Helvetica', 'Avant Garde', sans-serif; text-anchor: end" x="14.6" y="111.799219" transform="rotate(-0 14.6 111.799219)">0.3</text>
     </g>
    </g>
    <g id="ytick_4">
     <g id="line2d_4">
      <g>
       <use xlink:href="#ma9d0966457" x="21.6" y="16.2" style="stroke: #000000; stroke-width: 0.8"/>
      </g>
     </g>
     <g id="text_4">
      <text style="font-size: 10px; font-family: 'DejaVu Sans', 'Bitstream Vera Sans', 'Computer Modern Sans Serif', 'Lucida Grande', 'Verdana', 'Geneva', 'Lucid', 'Arial', 'Helvetica', 'Avant Garde', sans-serif; text-anchor: end" x="14.6" y="19.999219" transform="rotate(-0 14.6 19.999219)">0.4</text>
     </g>
    </g>
    <g id="text_5">
     <text style="font-size: 14px; font-family: 'DejaVu Sans', 'Bitstream Vera Sans', 'Computer Modern Sans Serif', 'Lucida Grande', 'Verdana', 'Geneva', 'Lucid', 'Arial', 'Helvetica', 'Avant Garde', sans-serif; text-anchor: middle" x="12.928437" y="153.9" transform="rotate(-90 12.928437 153.9)">Ef</text>
    </g>
   </g>
   <g id="line2d_5">
    <path d="M 46.472727 269.568 
L 46.472727 264.06 
" clip-path="url(#pb14bae9baf)" style="fill: none; stroke: #000000; stroke-linecap: square"/>
   </g>
   <g id="line2d_6">
    <path d="M 46.472727 269.568 
L 111.927273 269.568 
" clip-path="url(#pb14bae9baf)" style="fill: none; stroke: #000000; stroke-linecap: square"/>
   </g>
   <g id="line2d_7">
    <path d="M 111.927273 269.568 
L 111.927273 264.06 
" clip-path="url(#pb14bae9baf)" style="fill: none; stroke: #000000; stroke-linecap: square"/>
   </g>
   <g id="patch_3">
    <path d="M 21.6 291.6 
L 21.6 16.2 
" style="fill: none; stroke: #000000; stroke-width: 0.8; stroke-linejoin: miter; stroke-linecap: square"/>
   </g>
   <g id="patch_4">
    <path d="M 136.8 291.6 
L 136.8 16.2 
" style="fill: none; stroke: #000000; stroke-width: 0.8; stroke-linejoin: miter; stroke-linecap: square"/>
   </g>
   <g id="patch_5">
    <path d="M 21.6 291.6 
L 136.8 291.6 
" style="fill: none; stroke: #000000; stroke-width: 0.8; stroke-linejoin: miter; stroke-linecap: square"/>
   </g>
   <g id="patch_6">
    <path d="M 21.6 16.2 
L 136.8 16.2 
" style="fill: none; stroke: #000000; stroke-width: 0.8; stroke-linejoin: miter; stroke-linecap: square"/>
   </g>
   <g id="text_6">
    <text style="font-weight: 700; font-size: 12px; font-family: 'DejaVu Sans', 'Bitstream Vera Sans', 'Computer Modern Sans Serif', 'Lucida Grande', 'Verdana', 'Geneva', 'Lucid', 'Arial', 'Helvetica', 'Avant Garde', sans-serif; text-anchor: middle" x="46.472727" y="289.104375" transform="rotate(-0 46.472727 289.104375)">#6</text>
   </g>
   <g id="text_7">
    <text style="font-weight: 700; font-size: 12px; font-family: 'DejaVu Sans', 'Bitstream Vera Sans', 'Computer Modern Sans Serif', 'Lucida Grande', 'Verdana', 'Geneva', 'Lucid', 'Arial', 'Helvetica', 'Avant Garde', sans-serif; text-anchor: middle" x="111.927273" y="289.104375" transform="rotate(-0 111.927273 289.104375)">#12</text>
   </g>
   <g id="text_8">
    <text style="font-size: 12px; font-family: 'DejaVu Sans', 'Bitstream Vera Sans', 'Computer Modern Sans Serif', 'Lucida Grande', 'Verdana', 'Geneva', 'Lucid', 'Arial', 'Helvetica', 'Avant Garde', sans-serif; text-anchor: middle" x="79.2" y="268.449375" transform="rotate(-0 79.2 268.449375)">****</text>
   </g>
   <g id="line2d_8">
    <path d="M 21.6 156.394406 
L 136.8 156.394406 
" clip-path="url(#pb14bae9baf)" style="fill: none; stroke-dasharray: 3.7,1.6; stroke-dashoffset: 0; stroke: #808080; stroke-opacity: 0.7"/>
   </g>
   <g id="line2d_9">
    <path d="M 21.6 114.416486 
L 136.8 114.416486 
" clip-path="url(#pb14bae9baf)" style="fill: none; stroke-dasharray: 3.7,1.6; stroke-dashoffset: 0; stroke: #808080; stroke-opacity: 0.7"/>
   </g>
   <g id="LineCollection_1">
    <path d="M 46.472727 158.639609 
L 46.472727 154.149203 
" clip-path="url(#pb14bae9baf)" style="fill: none; stroke: #000000; stroke-width: 2"/>
   </g>
   <g id="line2d_10">
    <defs>
     <path id="mdf124bd49f" d="M 5 0 
L -5 -0 
" style="stroke: #000000; stroke-width: 2"/>
    </defs>
    <g clip-path="url(#pb14bae9baf)">
     <use xlink:href="#mdf124bd49f" x="46.472727" y="158.639609" style="stroke: #000000; stroke-width: 2"/>
    </g>
   </g>
   <g id="line2d_11">
    <g clip-path="url(#pb14bae9baf)">
     <use xlink:href="#mdf124bd49f" x="46.472727" y="154.149203" style="stroke: #000000; stroke-width: 2"/>
    </g>
   </g>
   <g id="LineCollection_2">
    <path d="M 111.927273 117.802261 
L 111.927273 111.03071 
" clip-path="url(#pb14bae9baf)" style="fill: none; stroke: #000000; stroke-width: 2"/>
   </g>
   <g id="line2d_12">
    <g clip-path="url(#pb14bae9baf)">
     <use xlink:href="#mdf124bd49f" x="111.927273" y="117.802261" style="stroke: #000000; stroke-width: 2"/>
    </g>
   </g>
   <g id="line2d_13">
    <g clip-path="url(#pb14bae9baf)">
     <use xlink:href="#mdf124bd49f" x="111.927273" y="111.03071" style="stroke: #000000; stroke-width: 2"/>
    </g>
   </g>
   <g id="line2d_14">
    <defs>
     <path id="m5f400718f8" d="M 0 4 
C 1.060812 4 2.078319 3.578535 2.828427 2.828427 
C 3.578535 2.078319 4 1.060812 4 0 
C 4 -1.060812 3.578535 -2.078319 2.828427 -2.828427 
C 2.078319 -3.578535 1.060812 -4 0 -4 
C -1.060812 -4 -2.078319 -3.578535 -2.828427 -2.828427 
C -3.578535 -2.078319 -4 -1.060812 -4 0 
C -4 1.060812 -3.578535 2.078319 -2.828427 2.828427 
C -2.078319 3.578535 -1.060812 4 0 4 
z
" style="stroke: #000000"/>
    </defs>
    <g clip-path="url(#pb14bae9baf)">
     <use xlink:href="#m5f400718f8" x="46.472727" y="156.394406" style="stroke: #000000"/>
    </g>
   </g>
   <g id="line2d_15">
    <g clip-path="url(#pb14bae9baf)">
     <use xlink:href="#m5f400718f8" x="111.927273" y="114.416486" style="stroke: #000000"/>
    </g>
   </g>
  </g>
 </g>
 <defs>
  <clipPath id="pb14bae9baf">
   <rect x="21.6" y="16.2" width="115.2" height="275.4"/>
  </clipPath>
 </defs>
</svg>
