<?xml version="1.0" encoding="utf-8" standalone="no"?>
<!DOCTYPE svg PUBLIC "-//W3C//DTD SVG 1.1//EN"
  "http://www.w3.org/Graphics/SVG/1.1/DTD/svg11.dtd">
<svg xmlns:xlink="http://www.w3.org/1999/xlink" width="144pt" height="324pt" viewBox="0 0 144 324" xmlns="http://www.w3.org/2000/svg" version="1.1">
 <metadata>
  <rdf:RDF xmlns:dc="http://purl.org/dc/elements/1.1/" xmlns:cc="http://creativecommons.org/ns#" xmlns:rdf="http://www.w3.org/1999/02/22-rdf-syntax-ns#">
   <cc:Work>
    <dc:type rdf:resource="http://purl.org/dc/dcmitype/StillImage"/>
    <dc:date>2025-12-05T16:39:43.154756</dc:date>
    <dc:format>image/svg+xml</dc:format>
    <dc:creator>
     <cc:Agent>
      <dc:title>Matplotlib v3.10.0, https://matplotlib.org/</dc:title>
     </cc:Agent>
    </dc:creator>
   </cc:Work>
  </rdf:RDF>
 </metadata>
 <defs>
  <style type="text/css">*{stroke-linejoin: round; stroke-linecap: butt}</style>
 </defs>
 <g id="figure_1">
  <g id="patch_1">
   <path d="M 0 324 
L 144 324 
L 144 0 
L 0 0 
z
" style="fill: #ffffff"/>
  </g>
  <g id="axes_1">
   <g id="patch_2">
    <path d="M 21.6 291.6 
L 136.8 291.6 
L 136.8 16.2 
L 21.6 16.2 
z
" style="fill: #ffffff"/>
   </g>
   <g id="FillBetweenPolyCollection_1">
    <path d="M 48.3107 202.779525 
L 44.634754 202.779525 
L 44.501117 201.904975 
L 44.37314 201.030426 
L 44.250821 200.155877 
L 44.133425 199.281327 
L 44.019492 198.406778 
L 43.906909 197.532228 
L 43.793021 196.657679 
L 43.674799 195.78313 
L 43.549031 194.90858 
L 43.412531 194.034031 
L 43.262344 193.159482 
L 43.095934 192.284932 
L 42.911327 191.410383 
L 42.707214 190.535833 
L 42.482986 189.661284 
L 42.238708 188.786735 
L 41.975042 187.912185 
L 41.693107 187.037636 
L 41.394317 186.163087 
L 41.080193 185.288537 
L 40.752187 184.413988 
L 40.411524 183.539438 
L 40.059095 182.664889 
L 39.695403 181.79034 
L 39.320578 180.91579 
L 38.934456 180.041241 
L 38.536717 179.166692 
L 38.127068 178.292142 
L 37.705448 177.417593 
L 37.27223 176.543043 
L 36.828396 175.668494 
L 36.375659 174.793945 
L 35.916504 173.919395 
L 35.454156 173.044846 
L 34.992441 172.170296 
L 34.535577 171.295747 
L 34.087892 170.421198 
L 33.653509 169.546648 
L 33.23602 168.672099 
L 32.838195 167.79755 
L 32.46175 166.923 
L 32.107205 166.048451 
L 31.773855 165.173901 
L 31.459845 164.299352 
L 31.162355 163.424803 
L 30.877866 162.550253 
L 30.602491 161.675704 
L 30.332325 160.801155 
L 30.063793 159.926605 
L 29.793968 159.052056 
L 29.520828 158.177506 
L 29.24345 157.302957 
L 28.962137 156.428408 
L 28.678468 155.553858 
L 28.395301 154.679309 
L 28.116716 153.80476 
L 27.847919 152.93021 
L 27.595122 152.055661 
L 27.365382 151.181111 
L 27.166412 150.306562 
L 27.00637 149.432013 
L 26.893602 148.557463 
L 26.836364 147.682914 
L 26.842506 146.808364 
L 26.919145 145.933815 
L 27.072315 145.059266 
L 27.30664 144.184716 
L 27.625023 143.310167 
L 28.028388 142.435618 
L 28.515493 141.561068 
L 29.082826 140.686519 
L 29.724605 139.811969 
L 30.43288 138.93742 
L 31.197751 138.062871 
L 32.007681 137.188321 
L 32.849902 136.313772 
L 33.710883 135.439223 
L 34.576844 134.564673 
L 35.434283 133.690124 
L 36.270488 132.815574 
L 37.074002 131.941025 
L 37.835021 131.066476 
L 38.54571 130.191926 
L 39.200406 129.317377 
L 39.795719 128.442828 
L 40.330524 127.568278 
L 40.80584 126.693729 
L 41.224621 125.819179 
L 41.59147 124.94463 
L 41.912283 124.070081 
L 42.193856 123.195531 
L 42.443477 122.320982 
L 42.668506 121.446433 
L 42.875999 120.571883 
L 43.072354 119.697334 
L 43.263036 118.822784 
L 43.452366 117.948235 
L 43.643405 117.073686 
L 43.83791 116.199136 
L 49.107544 116.199136 
L 49.107544 116.199136 
L 49.30205 117.073686 
L 49.493088 117.948235 
L 49.682419 118.822784 
L 49.873101 119.697334 
L 50.069456 120.571883 
L 50.276948 121.446433 
L 50.501978 122.320982 
L 50.751598 123.195531 
L 51.033172 124.070081 
L 51.353984 124.94463 
L 51.720833 125.819179 
L 52.139615 126.693729 
L 52.61493 127.568278 
L 53.149735 128.442828 
L 53.745049 129.317377 
L 54.399745 130.191926 
L 55.110433 131.066476 
L 55.871453 131.941025 
L 56.674966 132.815574 
L 57.511171 133.690124 
L 58.368611 134.564673 
L 59.234572 135.439223 
L 60.095553 136.313772 
L 60.937773 137.188321 
L 61.747703 138.062871 
L 62.512574 138.93742 
L 63.220849 139.811969 
L 63.862628 140.686519 
L 64.429962 141.561068 
L 64.917067 142.435618 
L 65.320432 143.310167 
L 65.638814 144.184716 
L 65.873139 145.059266 
L 66.02631 145.933815 
L 66.102948 146.808364 
L 66.109091 147.682914 
L 66.051853 148.557463 
L 65.939085 149.432013 
L 65.779042 150.306562 
L 65.580073 151.181111 
L 65.350332 152.055661 
L 65.097536 152.93021 
L 64.828739 153.80476 
L 64.550153 154.679309 
L 64.266986 155.553858 
L 63.983318 156.428408 
L 63.702005 157.302957 
L 63.424627 158.177506 
L 63.151487 159.052056 
L 62.881662 159.926605 
L 62.61313 160.801155 
L 62.342964 161.675704 
L 62.067589 162.550253 
L 61.7831 163.424803 
L 61.48561 164.299352 
L 61.1716 165.173901 
L 60.83825 166.048451 
L 60.483705 166.923 
L 60.107259 167.79755 
L 59.709434 168.672099 
L 59.291946 169.546648 
L 58.857563 170.421198 
L 58.409878 171.295747 
L 57.953013 172.170296 
L 57.491298 173.044846 
L 57.02895 173.919395 
L 56.569796 174.793945 
L 56.117058 175.668494 
L 55.673225 176.543043 
L 55.240007 177.417593 
L 54.818387 178.292142 
L 54.408738 179.166692 
L 54.010999 180.041241 
L 53.624877 180.91579 
L 53.250052 181.79034 
L 52.88636 182.664889 
L 52.533931 183.539438 
L 52.193267 184.413988 
L 51.865261 185.288537 
L 51.551138 186.163087 
L 51.252347 187.037636 
L 50.970413 187.912185 
L 50.706746 188.786735 
L 50.462469 189.661284 
L 50.23824 190.535833 
L 50.034127 191.410383 
L 49.849521 192.284932 
L 49.68311 193.159482 
L 49.532923 194.034031 
L 49.396423 194.90858 
L 49.270655 195.78313 
L 49.152433 196.657679 
L 49.038545 197.532228 
L 48.925962 198.406778 
L 48.81203 199.281327 
L 48.694633 200.155877 
L 48.572315 201.030426 
L 48.444338 201.904975 
L 48.3107 202.779525 
L 48.3107 202.779525 
z
" clip-path="url(#p441b14b18b)" style="fill: none; stroke: #000000; stroke-opacity: 0.3"/>
   </g>
   <g id="FillBetweenPolyCollection_2">
    <path d="M 47.902554 219.903733 
L 45.0429 219.903733 
L 44.897541 218.176036 
L 44.74343 216.448339 
L 44.571127 214.720643 
L 44.369316 212.992946 
L 44.126281 211.265249 
L 43.831619 209.537552 
L 43.477832 207.809856 
L 43.061447 206.082159 
L 42.583403 204.354462 
L 42.048576 202.626765 
L 41.464544 200.899069 
L 40.839881 199.171372 
L 40.182412 197.443675 
L 39.497899 195.715978 
L 38.78951 193.988282 
L 38.058234 192.260585 
L 37.304111 190.532888 
L 36.527922 188.805191 
L 35.732792 187.077495 
L 34.925219 185.349798 
L 34.115124 183.622101 
L 33.314897 181.894404 
L 32.537641 180.166708 
L 31.795141 178.439011 
L 31.096158 176.711314 
L 30.445553 174.983617 
L 29.844518 173.255921 
L 29.291828 171.528224 
L 28.785711 169.800527 
L 28.325774 168.07283 
L 27.914364 166.345134 
L 27.557003 164.617437 
L 27.261775 162.88974 
L 27.037905 161.162043 
L 26.89398 159.434347 
L 26.836364 157.70665 
L 26.868222 155.978953 
L 26.989425 154.251256 
L 27.19726 152.52356 
L 27.487713 150.795863 
L 27.856902 149.068166 
L 28.302262 147.340469 
L 28.823132 145.612773 
L 29.420613 143.885076 
L 30.096684 142.157379 
L 30.852789 140.429682 
L 31.688172 138.701986 
L 32.598314 136.974289 
L 33.573775 135.246592 
L 34.5997 133.518895 
L 35.656092 131.791198 
L 36.718867 130.063502 
L 37.761571 128.335805 
L 38.757532 126.608108 
L 39.682194 124.880411 
L 40.51535 123.152715 
L 41.242983 121.425018 
L 41.858509 119.697321 
L 42.363249 117.969624 
L 42.766047 116.241928 
L 43.082059 114.514231 
L 43.330846 112.786534 
L 43.533995 111.058837 
L 43.712604 109.331141 
L 43.884963 107.603444 
L 44.064768 105.875747 
L 44.260113 104.14805 
L 44.473342 102.420354 
L 44.701734 100.692657 
L 44.9388 98.96496 
L 45.175931 97.237263 
L 45.404067 95.509567 
L 45.615126 93.78187 
L 45.802992 92.054173 
L 45.964011 90.326476 
L 46.097006 88.59878 
L 46.202929 86.871083 
L 46.28429 85.143386 
L 46.344516 83.415689 
L 46.387353 81.687993 
L 46.416385 79.960296 
L 46.4347 78.232599 
L 46.444705 76.504902 
L 46.448069 74.777206 
L 46.445756 73.049509 
L 46.438135 71.321812 
L 46.425134 69.594115 
L 46.406437 67.866419 
L 46.381706 66.138722 
L 46.350821 64.411025 
L 46.314098 62.683328 
L 46.272472 60.955632 
L 46.227598 59.227935 
L 46.181834 57.500238 
L 46.138095 55.772541 
L 46.099573 54.044845 
L 46.06937 52.317148 
L 46.050087 50.589451 
L 46.043456 48.861754 
L 46.901998 48.861754 
L 46.901998 48.861754 
L 46.895368 50.589451 
L 46.876085 52.317148 
L 46.845882 54.044845 
L 46.80736 55.772541 
L 46.76362 57.500238 
L 46.717856 59.227935 
L 46.672982 60.955632 
L 46.631357 62.683328 
L 46.594633 64.411025 
L 46.563748 66.138722 
L 46.539018 67.866419 
L 46.52032 69.594115 
L 46.507319 71.321812 
L 46.499698 73.049509 
L 46.497386 74.777206 
L 46.50075 76.504902 
L 46.510755 78.232599 
L 46.529069 79.960296 
L 46.558101 81.687993 
L 46.600939 83.415689 
L 46.661165 85.143386 
L 46.742525 86.871083 
L 46.848448 88.59878 
L 46.981444 90.326476 
L 47.142463 92.054173 
L 47.330329 93.78187 
L 47.541387 95.509567 
L 47.769524 97.237263 
L 48.006655 98.96496 
L 48.243721 100.692657 
L 48.472112 102.420354 
L 48.685342 104.14805 
L 48.880686 105.875747 
L 49.060492 107.603444 
L 49.23285 109.331141 
L 49.41146 111.058837 
L 49.614609 112.786534 
L 49.863395 114.514231 
L 50.179408 116.241928 
L 50.582205 117.969624 
L 51.086946 119.697321 
L 51.702472 121.425018 
L 52.430104 123.152715 
L 53.26326 124.880411 
L 54.187923 126.608108 
L 55.183883 128.335805 
L 56.226587 130.063502 
L 57.289363 131.791198 
L 58.345754 133.518895 
L 59.371679 135.246592 
L 60.347141 136.974289 
L 61.257282 138.701986 
L 62.092665 140.429682 
L 62.84877 142.157379 
L 63.524841 143.885076 
L 64.122322 145.612773 
L 64.643193 147.340469 
L 65.088552 149.068166 
L 65.457742 150.795863 
L 65.748194 152.52356 
L 65.956029 154.251256 
L 66.077232 155.978953 
L 66.109091 157.70665 
L 66.051474 159.434347 
L 65.90755 161.162043 
L 65.683679 162.88974 
L 65.388451 164.617437 
L 65.031091 166.345134 
L 64.619681 168.07283 
L 64.159743 169.800527 
L 63.653627 171.528224 
L 63.100936 173.255921 
L 62.499901 174.983617 
L 61.849297 176.711314 
L 61.150314 178.439011 
L 60.407814 180.166708 
L 59.630557 181.894404 
L 58.83033 183.622101 
L 58.020236 185.349798 
L 57.212662 187.077495 
L 56.417533 188.805191 
L 55.641343 190.532888 
L 54.887221 192.260585 
L 54.155945 193.988282 
L 53.447556 195.715978 
L 52.763043 197.443675 
L 52.105574 199.171372 
L 51.48091 200.899069 
L 50.896878 202.626765 
L 50.362051 204.354462 
L 49.884007 206.082159 
L 49.467622 207.809856 
L 49.113835 209.537552 
L 48.819174 211.265249 
L 48.576139 212.992946 
L 48.374327 214.720643 
L 48.202025 216.448339 
L 48.047914 218.176036 
L 47.902554 219.903733 
L 47.902554 219.903733 
z
" clip-path="url(#p441b14b18b)" style="fill: none; stroke: #000000; stroke-opacity: 0.3"/>
   </g>
   <g id="FillBetweenPolyCollection_3">
    <path d="M 48.010752 208.257211 
L 44.934702 208.257211 
L 44.769009 207.328969 
L 44.58957 206.400727 
L 44.395543 205.472485 
L 44.186224 204.544243 
L 43.961117 203.616001 
L 43.719978 202.687759 
L 43.462856 201.759517 
L 43.190103 200.831276 
L 42.902378 199.903034 
L 42.600603 198.974792 
L 42.285923 198.04655 
L 41.959623 197.118308 
L 41.623057 196.190066 
L 41.277555 195.261824 
L 40.924344 194.333582 
L 40.564488 193.40534 
L 40.198837 192.477098 
L 39.828008 191.548856 
L 39.452398 190.620614 
L 39.072208 189.692372 
L 38.687503 188.76413 
L 38.298269 187.835888 
L 37.904485 186.907646 
L 37.506179 185.979404 
L 37.103481 185.051162 
L 36.69664 184.12292 
L 36.286037 183.194678 
L 35.872158 182.266436 
L 35.455565 181.338195 
L 35.036851 180.409953 
L 34.616598 179.481711 
L 34.195348 178.553469 
L 33.773591 177.625227 
L 33.351784 176.696985 
L 32.930396 175.768743 
L 32.509976 174.840501 
L 32.091243 173.912259 
L 31.675181 172.984017 
L 31.263125 172.055775 
L 30.856824 171.127533 
L 30.458467 170.199291 
L 30.070661 169.271049 
L 29.696355 168.342807 
L 29.338709 167.414565 
L 29.000922 166.486323 
L 28.686028 165.558081 
L 28.396673 164.629839 
L 28.134911 163.701597 
L 27.902028 162.773355 
L 27.698425 161.845114 
L 27.523565 160.916872 
L 27.376011 159.98863 
L 27.25354 159.060388 
L 27.153335 158.132146 
L 27.072243 157.203904 
L 27.007064 156.275662 
L 26.954861 155.34742 
L 26.913253 154.419178 
L 26.880658 153.490936 
L 26.856476 152.562694 
L 26.841189 151.634452 
L 26.836364 150.70621 
L 26.844566 149.777968 
L 26.869188 148.849726 
L 26.914211 147.921484 
L 26.983919 146.993242 
L 27.082591 146.065 
L 27.214202 145.136758 
L 27.382139 144.208516 
L 27.588977 143.280274 
L 27.836303 142.352033 
L 28.124615 141.423791 
L 28.453279 140.495549 
L 28.820565 139.567307 
L 29.223726 138.639065 
L 29.659137 137.710823 
L 30.12246 136.782581 
L 30.608839 135.854339 
L 31.113107 134.926097 
L 31.630001 133.997855 
L 32.154365 133.069613 
L 32.681351 132.141371 
L 33.206595 131.213129 
L 33.726371 130.284887 
L 34.237712 129.356645 
L 34.738496 128.428403 
L 35.227483 127.500161 
L 35.704313 126.571919 
L 36.169444 125.643677 
L 36.62405 124.715435 
L 37.069873 123.787193 
L 37.509035 122.858952 
L 37.943831 121.93071 
L 38.376501 121.002468 
L 38.809024 120.074226 
L 39.242913 119.145984 
L 39.679061 118.217742 
L 40.117628 117.2895 
L 40.557985 116.361258 
L 52.387469 116.361258 
L 52.387469 116.361258 
L 52.827827 117.2895 
L 53.266394 118.217742 
L 53.702542 119.145984 
L 54.136431 120.074226 
L 54.568953 121.002468 
L 55.001624 121.93071 
L 55.436419 122.858952 
L 55.875582 123.787193 
L 56.321405 124.715435 
L 56.776011 125.643677 
L 57.241141 126.571919 
L 57.717971 127.500161 
L 58.206959 128.428403 
L 58.707743 129.356645 
L 59.219084 130.284887 
L 59.738859 131.213129 
L 60.264103 132.141371 
L 60.791089 133.069613 
L 61.315453 133.997855 
L 61.832347 134.926097 
L 62.336616 135.854339 
L 62.822995 136.782581 
L 63.286317 137.710823 
L 63.721728 138.639065 
L 64.12489 139.567307 
L 64.492175 140.495549 
L 64.82084 141.423791 
L 65.109151 142.352033 
L 65.356478 143.280274 
L 65.563316 144.208516 
L 65.731253 145.136758 
L 65.862863 146.065 
L 65.961536 146.993242 
L 66.031243 147.921484 
L 66.076266 148.849726 
L 66.100889 149.777968 
L 66.109091 150.70621 
L 66.104266 151.634452 
L 66.088979 152.562694 
L 66.064797 153.490936 
L 66.032201 154.419178 
L 65.990593 155.34742 
L 65.938391 156.275662 
L 65.873212 157.203904 
L 65.792119 158.132146 
L 65.691914 159.060388 
L 65.569443 159.98863 
L 65.421889 160.916872 
L 65.24703 161.845114 
L 65.043426 162.773355 
L 64.810544 163.701597 
L 64.548781 164.629839 
L 64.259426 165.558081 
L 63.944532 166.486323 
L 63.606746 167.414565 
L 63.2491 168.342807 
L 62.874793 169.271049 
L 62.486988 170.199291 
L 62.088631 171.127533 
L 61.68233 172.055775 
L 61.270274 172.984017 
L 60.854212 173.912259 
L 60.435479 174.840501 
L 60.015058 175.768743 
L 59.59367 176.696985 
L 59.171864 177.625227 
L 58.750107 178.553469 
L 58.328857 179.481711 
L 57.908604 180.409953 
L 57.48989 181.338195 
L 57.073297 182.266436 
L 56.659418 183.194678 
L 56.248814 184.12292 
L 55.841974 185.051162 
L 55.439275 185.979404 
L 55.04097 186.907646 
L 54.647185 187.835888 
L 54.257951 188.76413 
L 53.873246 189.692372 
L 53.493057 190.620614 
L 53.117446 191.548856 
L 52.746618 192.477098 
L 52.380966 193.40534 
L 52.02111 194.333582 
L 51.6679 195.261824 
L 51.322397 196.190066 
L 50.985831 197.118308 
L 50.659532 198.04655 
L 50.344851 198.974792 
L 50.043077 199.903034 
L 49.755351 200.831276 
L 49.482599 201.759517 
L 49.225476 202.687759 
L 48.984337 203.616001 
L 48.75923 204.544243 
L 48.549912 205.472485 
L 48.355884 206.400727 
L 48.176446 207.328969 
L 48.010752 208.257211 
L 48.010752 208.257211 
z
" clip-path="url(#p441b14b18b)" style="fill: none; stroke: #000000; stroke-opacity: 0.3"/>
   </g>
   <g id="FillBetweenPolyCollection_4">
    <path d="M 46.883062 253.237157 
L 46.062393 253.237157 
L 46.059072 251.765379 
L 46.06392 250.293601 
L 46.074409 248.821823 
L 46.087324 247.350045 
L 46.099313 245.878267 
L 46.107469 244.406489 
L 46.109845 242.934711 
L 46.105791 241.462933 
L 46.096044 239.991155 
L 46.082556 238.519377 
L 46.068075 237.047599 
L 46.055584 235.57582 
L 46.047684 234.104042 
L 46.046058 232.632264 
L 46.051121 231.160486 
L 46.061913 229.688708 
L 46.076267 228.21693 
L 46.091196 226.745152 
L 46.103428 225.273374 
L 46.109948 223.801596 
L 46.108452 222.329818 
L 46.097586 220.85804 
L 46.076917 219.386261 
L 46.046643 217.914483 
L 46.007083 216.442705 
L 45.95806 214.970927 
L 45.898326 213.499149 
L 45.825157 212.027371 
L 45.734225 210.555593 
L 45.619806 209.083815 
L 45.475268 207.612037 
L 45.293755 206.140259 
L 45.068888 204.668481 
L 44.795355 203.196702 
L 44.469257 201.724924 
L 44.088187 200.253146 
L 43.651115 198.781368 
L 43.15819 197.30959 
L 42.610626 195.837812 
L 42.010767 194.366034 
L 41.362361 192.894256 
L 40.670959 191.422478 
L 39.944272 189.9507 
L 39.192311 188.478922 
L 38.427156 187.007144 
L 37.662308 185.535365 
L 36.911688 184.063587 
L 36.188415 182.591809 
L 35.503566 181.120031 
L 34.865068 179.648253 
L 34.276882 178.176475 
L 33.738525 176.704697 
L 33.245013 175.232919 
L 32.787232 173.761141 
L 32.352803 172.289363 
L 31.927428 170.817585 
L 31.496694 169.345806 
L 31.048187 167.874028 
L 30.57367 166.40225 
L 30.07098 164.930472 
L 29.545281 163.458694 
L 29.009334 161.986916 
L 28.482631 160.515138 
L 27.989409 159.04336 
L 27.555818 157.571582 
L 27.206693 156.099804 
L 26.962506 154.628026 
L 26.837062 153.156248 
L 26.836364 151.684469 
L 26.958839 150.212691 
L 27.196834 148.740913 
L 27.539 147.269135 
L 27.973014 145.797357 
L 28.488011 144.325579 
L 29.076213 142.853801 
L 29.733423 141.382023 
L 30.45836 139.910245 
L 31.251088 138.438467 
L 32.110964 136.966689 
L 33.03466 135.49491 
L 34.014711 134.023132 
L 35.038917 132.551354 
L 36.090686 131.079576 
L 37.150193 129.607798 
L 38.196069 128.13602 
L 39.20728 126.664242 
L 40.164839 125.192464 
L 41.053137 123.720686 
L 41.860759 122.248908 
L 42.58079 120.77713 
L 43.210692 119.305351 
L 43.75187 117.833573 
L 44.209042 116.361795 
L 44.5895 114.890017 
L 44.902324 113.418239 
L 45.157585 111.946461 
L 45.365574 110.474683 
L 45.536092 109.002905 
L 45.677867 107.531127 
L 47.267588 107.531127 
L 47.267588 107.531127 
L 47.409362 109.002905 
L 47.579881 110.474683 
L 47.787869 111.946461 
L 48.04313 113.418239 
L 48.355954 114.890017 
L 48.736412 116.361795 
L 49.193585 117.833573 
L 49.734763 119.305351 
L 50.364664 120.77713 
L 51.084695 122.248908 
L 51.892317 123.720686 
L 52.780615 125.192464 
L 53.738174 126.664242 
L 54.749385 128.13602 
L 55.795262 129.607798 
L 56.854768 131.079576 
L 57.906538 132.551354 
L 58.930744 134.023132 
L 59.910795 135.49491 
L 60.834491 136.966689 
L 61.694367 138.438467 
L 62.487094 139.910245 
L 63.212032 141.382023 
L 63.869241 142.853801 
L 64.457443 144.325579 
L 64.972441 145.797357 
L 65.406454 147.269135 
L 65.748621 148.740913 
L 65.986616 150.212691 
L 66.109091 151.684469 
L 66.108392 153.156248 
L 65.982948 154.628026 
L 65.738761 156.099804 
L 65.389636 157.571582 
L 64.956045 159.04336 
L 64.462824 160.515138 
L 63.936121 161.986916 
L 63.400173 163.458694 
L 62.874474 164.930472 
L 62.371785 166.40225 
L 61.897267 167.874028 
L 61.44876 169.345806 
L 61.018026 170.817585 
L 60.592651 172.289363 
L 60.158223 173.761141 
L 59.700442 175.232919 
L 59.206929 176.704697 
L 58.668573 178.176475 
L 58.080386 179.648253 
L 57.441889 181.120031 
L 56.757039 182.591809 
L 56.033767 184.063587 
L 55.283146 185.535365 
L 54.518299 187.007144 
L 53.753143 188.478922 
L 53.001182 189.9507 
L 52.274496 191.422478 
L 51.583093 192.894256 
L 50.934688 194.366034 
L 50.334828 195.837812 
L 49.787264 197.30959 
L 49.29434 198.781368 
L 48.857267 200.253146 
L 48.476198 201.724924 
L 48.150099 203.196702 
L 47.876567 204.668481 
L 47.6517 206.140259 
L 47.470186 207.612037 
L 47.325649 209.083815 
L 47.21123 210.555593 
L 47.120298 212.027371 
L 47.047128 213.499149 
L 46.987395 214.970927 
L 46.938372 216.442705 
L 46.898811 217.914483 
L 46.868538 219.386261 
L 46.847869 220.85804 
L 46.837002 222.329818 
L 46.835507 223.801596 
L 46.842027 225.273374 
L 46.854258 226.745152 
L 46.869188 228.21693 
L 46.883542 229.688708 
L 46.894334 231.160486 
L 46.899397 232.632264 
L 46.897771 234.104042 
L 46.889871 235.57582 
L 46.877379 237.047599 
L 46.862899 238.519377 
L 46.84941 239.991155 
L 46.839664 241.462933 
L 46.835609 242.934711 
L 46.837985 244.406489 
L 46.846141 245.878267 
L 46.85813 247.350045 
L 46.871046 248.821823 
L 46.881534 250.293601 
L 46.886383 251.765379 
L 46.883062 253.237157 
L 46.883062 253.237157 
z
" clip-path="url(#p441b14b18b)" style="fill: none; stroke: #000000; stroke-opacity: 0.3"/>
   </g>
   <g id="FillBetweenPolyCollection_5">
    <path d="M 51.922569 192.121581 
L 41.022885 192.121581 
L 40.106162 190.434248 
L 39.111314 188.746915 
L 38.048221 187.059582 
L 36.930521 185.372249 
L 35.775461 183.684916 
L 34.603475 181.997583 
L 33.4375 180.31025 
L 32.30204 178.622917 
L 31.222048 176.935584 
L 30.221711 175.248251 
L 29.323226 173.560918 
L 28.545692 171.873585 
L 27.904211 170.186252 
L 27.409282 168.498919 
L 27.066523 166.811586 
L 26.87675 165.124253 
L 26.836364 163.43692 
L 26.937997 161.749587 
L 27.171322 160.062254 
L 27.523928 158.374921 
L 27.982182 156.687588 
L 28.531984 155.000255 
L 29.159378 153.312922 
L 29.850977 151.625589 
L 30.594228 149.938256 
L 31.377516 148.250923 
L 32.190163 146.56359 
L 33.022364 144.876257 
L 33.86509 143.188924 
L 34.710009 141.501591 
L 35.54943 139.814258 
L 36.376289 138.126925 
L 37.184164 136.439592 
L 37.967321 134.752259 
L 38.720752 133.064926 
L 39.440207 131.377593 
L 40.122206 129.69026 
L 40.764009 128.002927 
L 41.363564 126.315594 
L 41.919429 124.628261 
L 42.430685 122.940928 
L 42.896853 121.253595 
L 43.317826 119.566262 
L 43.693834 117.878929 
L 44.025436 116.191596 
L 44.313538 114.504263 
L 44.559441 112.81693 
L 44.764886 111.129597 
L 44.932102 109.442264 
L 45.063825 107.754931 
L 45.163294 106.067598 
L 45.234203 104.380265 
L 45.280621 102.692932 
L 45.306874 101.005599 
L 45.317411 99.318266 
L 45.316649 97.630933 
L 45.308829 95.9436 
L 45.297881 94.256267 
L 45.287311 92.568934 
L 45.280117 90.881601 
L 45.278733 89.194268 
L 45.285004 87.506935 
L 45.300179 85.819602 
L 45.324935 84.132269 
L 45.359397 82.444936 
L 45.403192 80.757603 
L 45.455487 79.07027 
L 45.515055 77.382937 
L 45.580331 75.695604 
L 45.649486 74.008271 
L 45.720499 72.320938 
L 45.791242 70.633605 
L 45.859565 68.946272 
L 45.923381 67.258939 
L 45.98075 65.571606 
L 46.029963 63.884273 
L 46.069603 62.19694 
L 46.098611 60.509607 
L 46.116321 58.822274 
L 46.122491 57.134941 
L 46.117311 55.447608 
L 46.101392 53.760275 
L 46.075747 52.072942 
L 46.041742 50.385609 
L 46.001045 48.698276 
L 45.955556 47.010943 
L 45.907327 45.32361 
L 45.858482 43.636277 
L 45.811129 41.948944 
L 45.76728 40.261611 
L 45.728771 38.574278 
L 45.697204 36.886945 
L 45.673885 35.199612 
L 45.659792 33.512279 
L 45.655541 31.824946 
L 45.661379 30.137613 
L 45.677183 28.45028 
L 45.702473 26.762947 
L 45.736444 25.075614 
L 47.209011 25.075614 
L 47.209011 25.075614 
L 47.242981 26.762947 
L 47.268272 28.45028 
L 47.284075 30.137613 
L 47.289914 31.824946 
L 47.285663 33.512279 
L 47.271569 35.199612 
L 47.248251 36.886945 
L 47.216684 38.574278 
L 47.178175 40.261611 
L 47.134325 41.948944 
L 47.086972 43.636277 
L 47.038127 45.32361 
L 46.989899 47.010943 
L 46.944409 48.698276 
L 46.903712 50.385609 
L 46.869708 52.072942 
L 46.844062 53.760275 
L 46.828144 55.447608 
L 46.822964 57.134941 
L 46.829134 58.822274 
L 46.846844 60.509607 
L 46.875851 62.19694 
L 46.915492 63.884273 
L 46.964704 65.571606 
L 47.022074 67.258939 
L 47.085889 68.946272 
L 47.154212 70.633605 
L 47.224956 72.320938 
L 47.295969 74.008271 
L 47.365123 75.695604 
L 47.430399 77.382937 
L 47.489967 79.07027 
L 47.542263 80.757603 
L 47.586057 82.444936 
L 47.62052 84.132269 
L 47.645275 85.819602 
L 47.660451 87.506935 
L 47.666721 89.194268 
L 47.665337 90.881601 
L 47.658143 92.568934 
L 47.647573 94.256267 
L 47.636626 95.9436 
L 47.628806 97.630933 
L 47.628044 99.318266 
L 47.63858 101.005599 
L 47.664834 102.692932 
L 47.711251 104.380265 
L 47.78216 106.067598 
L 47.881629 107.754931 
L 48.013352 109.442264 
L 48.180568 111.129597 
L 48.386014 112.81693 
L 48.631916 114.504263 
L 48.920019 116.191596 
L 49.25162 117.878929 
L 49.627629 119.566262 
L 50.048602 121.253595 
L 50.514769 122.940928 
L 51.026026 124.628261 
L 51.581891 126.315594 
L 52.181446 128.002927 
L 52.823248 129.69026 
L 53.505247 131.377593 
L 54.224703 133.064926 
L 54.978133 134.752259 
L 55.76129 136.439592 
L 56.569166 138.126925 
L 57.396024 139.814258 
L 58.235445 141.501591 
L 59.080364 143.188924 
L 59.923091 144.876257 
L 60.755292 146.56359 
L 61.567939 148.250923 
L 62.351226 149.938256 
L 63.094477 151.625589 
L 63.786077 153.312922 
L 64.41347 155.000255 
L 64.963273 156.687588 
L 65.421527 158.374921 
L 65.774133 160.062254 
L 66.007457 161.749587 
L 66.109091 163.43692 
L 66.068705 165.124253 
L 65.878931 166.811586 
L 65.536172 168.498919 
L 65.041243 170.186252 
L 64.399763 171.873585 
L 63.622229 173.560918 
L 62.723743 175.248251 
L 61.723406 176.935584 
L 60.643415 178.622917 
L 59.507955 180.31025 
L 58.341979 181.997583 
L 57.169994 183.684916 
L 56.014933 185.372249 
L 54.897233 187.059582 
L 53.83414 188.746915 
L 52.839292 190.434248 
L 51.922569 192.121581 
L 51.922569 192.121581 
z
" clip-path="url(#p441b14b18b)" style="fill: none; stroke: #000000; stroke-opacity: 0.3"/>
   </g>
   <g id="FillBetweenPolyCollection_6">
    <path d="M 47.850291 219.903969 
L 45.095163 219.903969 
L 45.092767 218.795576 
L 45.100015 217.687182 
L 45.115708 216.578788 
L 45.138201 215.470394 
L 45.165422 214.362 
L 45.194914 213.253607 
L 45.223879 212.145213 
L 45.249239 211.036819 
L 45.267702 209.928425 
L 45.275827 208.820032 
L 45.270098 207.711638 
L 45.246992 206.603244 
L 45.20305 205.49485 
L 45.134944 204.386456 
L 45.039533 203.278063 
L 44.913923 202.169669 
L 44.755513 201.061275 
L 44.562041 199.952881 
L 44.331614 198.844488 
L 44.06274 197.736094 
L 43.754346 196.6277 
L 43.405785 195.519306 
L 43.016848 194.410912 
L 42.587752 193.302519 
L 42.119138 192.194125 
L 41.612052 191.085731 
L 41.067937 189.977337 
L 40.488611 188.868943 
L 39.876259 187.76055 
L 39.233421 186.652156 
L 38.562993 185.543762 
L 37.868229 184.435368 
L 37.152749 183.326975 
L 36.420558 182.218581 
L 35.676057 181.110187 
L 34.924063 180.001793 
L 34.169816 178.893399 
L 33.418976 177.785006 
L 32.677605 176.676612 
L 31.952128 175.568218 
L 31.249269 174.459824 
L 30.575959 173.351431 
L 29.939216 172.243037 
L 29.345998 171.134643 
L 28.803033 170.026249 
L 28.316628 168.917855 
L 27.892471 167.809462 
L 27.535426 166.701068 
L 27.249335 165.592674 
L 27.036843 164.48428 
L 26.899243 163.375886 
L 26.836364 162.267493 
L 26.846503 161.159099 
L 26.926416 160.050705 
L 27.071358 158.942311 
L 27.27519 157.833918 
L 27.530545 156.725524 
L 27.829051 155.61713 
L 28.1616 154.508736 
L 28.518658 153.400342 
L 28.890607 152.291949 
L 29.268095 151.183555 
L 29.642383 150.075161 
L 30.005677 148.966767 
L 30.351421 147.858374 
L 30.674542 146.74998 
L 30.971629 145.641586 
L 31.241042 144.533192 
L 31.482935 143.424798 
L 31.699204 142.316405 
L 31.893348 141.208011 
L 32.07026 140.099617 
L 32.23595 138.991223 
L 32.397226 137.882829 
L 32.561335 136.774436 
L 32.735592 135.666042 
L 32.927019 134.557648 
L 33.141996 133.449254 
L 33.385972 132.340861 
L 33.663208 131.232467 
L 33.976611 130.124073 
L 34.327621 129.015679 
L 34.716187 127.907285 
L 35.140815 126.798892 
L 35.598678 125.690498 
L 36.085793 124.582104 
L 36.597239 123.47371 
L 37.127406 122.365316 
L 37.670263 121.256923 
L 38.219624 120.148529 
L 38.769394 119.040135 
L 39.3138 117.931741 
L 39.847572 116.823348 
L 40.366092 115.714954 
L 40.865483 114.60656 
L 41.342665 113.498166 
L 41.795354 112.389772 
L 42.222029 111.281379 
L 42.62187 110.172985 
L 50.323585 110.172985 
L 50.323585 110.172985 
L 50.723425 111.281379 
L 51.150101 112.389772 
L 51.602789 113.498166 
L 52.079971 114.60656 
L 52.579363 115.714954 
L 53.097882 116.823348 
L 53.631655 117.931741 
L 54.176061 119.040135 
L 54.725831 120.148529 
L 55.275191 121.256923 
L 55.818049 122.365316 
L 56.348216 123.47371 
L 56.859662 124.582104 
L 57.346776 125.690498 
L 57.804639 126.798892 
L 58.229267 127.907285 
L 58.617834 129.015679 
L 58.968844 130.124073 
L 59.282246 131.232467 
L 59.559483 132.340861 
L 59.803458 133.449254 
L 60.018436 134.557648 
L 60.209862 135.666042 
L 60.38412 136.774436 
L 60.548229 137.882829 
L 60.709505 138.991223 
L 60.875195 140.099617 
L 61.052106 141.208011 
L 61.24625 142.316405 
L 61.462519 143.424798 
L 61.704412 144.533192 
L 61.973825 145.641586 
L 62.270912 146.74998 
L 62.594033 147.858374 
L 62.939777 148.966767 
L 63.303071 150.075161 
L 63.677359 151.183555 
L 64.054847 152.291949 
L 64.426797 153.400342 
L 64.783855 154.508736 
L 65.116403 155.61713 
L 65.414909 156.725524 
L 65.670265 157.833918 
L 65.874096 158.942311 
L 66.019038 160.050705 
L 66.098951 161.159099 
L 66.109091 162.267493 
L 66.046211 163.375886 
L 65.908611 164.48428 
L 65.696119 165.592674 
L 65.410029 166.701068 
L 65.052984 167.809462 
L 64.628827 168.917855 
L 64.142422 170.026249 
L 63.599456 171.134643 
L 63.006238 172.243037 
L 62.369495 173.351431 
L 61.696185 174.459824 
L 60.993327 175.568218 
L 60.26785 176.676612 
L 59.526478 177.785006 
L 58.775638 178.893399 
L 58.021391 180.001793 
L 57.269397 181.110187 
L 56.524897 182.218581 
L 55.792705 183.326975 
L 55.077226 184.435368 
L 54.382462 185.543762 
L 53.712034 186.652156 
L 53.069196 187.76055 
L 52.456843 188.868943 
L 51.877517 189.977337 
L 51.333402 191.085731 
L 50.826317 192.194125 
L 50.357702 193.302519 
L 49.928606 194.410912 
L 49.539669 195.519306 
L 49.191109 196.6277 
L 48.882714 197.736094 
L 48.613841 198.844488 
L 48.383414 199.952881 
L 48.189942 201.061275 
L 48.031532 202.169669 
L 47.905922 203.278063 
L 47.810511 204.386456 
L 47.742404 205.49485 
L 47.698463 206.603244 
L 47.675357 207.711638 
L 47.669627 208.820032 
L 47.677752 209.928425 
L 47.696215 211.036819 
L 47.721576 212.145213 
L 47.750541 213.253607 
L 47.780032 214.362 
L 47.807253 215.470394 
L 47.829746 216.578788 
L 47.84544 217.687182 
L 47.852688 218.795576 
L 47.850291 219.903969 
L 47.850291 219.903969 
z
" clip-path="url(#p441b14b18b)" style="fill: none; stroke: #000000; stroke-opacity: 0.3"/>
   </g>
   <g id="FillBetweenPolyCollection_7">
    <path d="M 47.477236 307.76523 
L 45.468219 307.76523 
L 45.475203 305.860725 
L 45.495867 303.956221 
L 45.529361 302.051717 
L 45.574331 300.147213 
L 45.629015 298.242708 
L 45.69135 296.338204 
L 45.759109 294.4337 
L 45.830024 292.529195 
L 45.901914 290.624691 
L 45.972788 288.720187 
L 46.04093 286.815683 
L 46.104953 284.911178 
L 46.163823 283.006674 
L 46.216866 281.10217 
L 46.263736 279.197665 
L 46.304384 277.293161 
L 46.339003 275.388657 
L 46.367968 273.484152 
L 46.391788 271.579648 
L 46.411041 269.675144 
L 46.426337 267.77064 
L 46.438274 265.866135 
L 46.447414 263.961631 
L 46.454255 262.057127 
L 46.459221 260.152622 
L 46.462653 258.248118 
L 46.464801 256.343614 
L 46.465823 254.43911 
L 46.465774 252.534605 
L 46.464603 250.630101 
L 46.462141 248.725597 
L 46.45808 246.821092 
L 46.451957 244.916588 
L 46.443123 243.012084 
L 46.43071 241.10758 
L 46.413595 239.203075 
L 46.390362 237.298571 
L 46.359262 235.394067 
L 46.318181 233.489562 
L 46.264607 231.585058 
L 46.195623 229.680554 
L 46.10791 227.776049 
L 45.997773 225.871545 
L 45.861198 223.967041 
L 45.693942 222.062537 
L 45.491653 220.158032 
L 45.250027 218.253528 
L 44.964992 216.349024 
L 44.632917 214.444519 
L 44.250832 212.540015 
L 43.81665 210.635511 
L 43.32937 208.731007 
L 42.789244 206.826502 
L 42.197901 204.921998 
L 41.558395 203.017494 
L 40.875184 201.112989 
L 40.154021 199.208485 
L 39.40177 197.303981 
L 38.626141 195.399476 
L 37.835374 193.494972 
L 37.03789 191.590468 
L 36.241931 189.685964 
L 35.455223 187.781459 
L 34.684686 185.876955 
L 33.936225 183.972451 
L 33.214599 182.067946 
L 32.523398 180.163442 
L 31.865117 178.258938 
L 31.241314 176.354434 
L 30.652848 174.449929 
L 30.100157 172.545425 
L 29.58356 170.640921 
L 29.103562 168.736416 
L 28.661112 166.831912 
L 28.257822 164.927408 
L 27.896116 163.022903 
L 27.579289 161.118399 
L 27.311498 159.213895 
L 27.09766 157.309391 
L 26.943281 155.404886 
L 26.854212 153.500382 
L 26.836364 151.595878 
L 26.895374 149.691373 
L 27.036264 147.786869 
L 27.263097 145.882365 
L 27.578653 143.977861 
L 27.984148 142.073356 
L 28.479011 140.168852 
L 29.060732 138.264348 
L 29.724802 136.359843 
L 30.464734 134.455339 
L 31.272186 132.550835 
L 32.137168 130.646331 
L 33.048326 128.741826 
L 33.993292 126.837322 
L 34.959076 124.932818 
L 35.932485 123.028313 
L 36.90054 121.123809 
L 37.850875 119.219305 
L 55.094579 119.219305 
L 55.094579 119.219305 
L 56.044915 121.123809 
L 57.012969 123.028313 
L 57.986378 124.932818 
L 58.952162 126.837322 
L 59.897128 128.741826 
L 60.808286 130.646331 
L 61.673268 132.550835 
L 62.48072 134.455339 
L 63.220652 136.359843 
L 63.884722 138.264348 
L 64.466444 140.168852 
L 64.961306 142.073356 
L 65.366801 143.977861 
L 65.682357 145.882365 
L 65.90919 147.786869 
L 66.050081 149.691373 
L 66.109091 151.595878 
L 66.091243 153.500382 
L 66.002174 155.404886 
L 65.847794 157.309391 
L 65.633957 159.213895 
L 65.366165 161.118399 
L 65.049339 163.022903 
L 64.687632 164.927408 
L 64.284343 166.831912 
L 63.841893 168.736416 
L 63.361894 170.640921 
L 62.845298 172.545425 
L 62.292606 174.449929 
L 61.70414 176.354434 
L 61.080338 178.258938 
L 60.422056 180.163442 
L 59.730856 182.067946 
L 59.009229 183.972451 
L 58.260768 185.876955 
L 57.490232 187.781459 
L 56.703523 189.685964 
L 55.907564 191.590468 
L 55.110081 193.494972 
L 54.319314 195.399476 
L 53.543684 197.303981 
L 52.791433 199.208485 
L 52.070271 201.112989 
L 51.387059 203.017494 
L 50.747553 204.921998 
L 50.15621 206.826502 
L 49.616085 208.731007 
L 49.128804 210.635511 
L 48.694623 212.540015 
L 48.312538 214.444519 
L 47.980463 216.349024 
L 47.695427 218.253528 
L 47.453801 220.158032 
L 47.251512 222.062537 
L 47.084256 223.967041 
L 46.947681 225.871545 
L 46.837544 227.776049 
L 46.749831 229.680554 
L 46.680848 231.585058 
L 46.627274 233.489562 
L 46.586192 235.394067 
L 46.555093 237.298571 
L 46.53186 239.203075 
L 46.514745 241.10758 
L 46.502331 243.012084 
L 46.493497 244.916588 
L 46.487374 246.821092 
L 46.483314 248.725597 
L 46.480851 250.630101 
L 46.479681 252.534605 
L 46.479632 254.43911 
L 46.480653 256.343614 
L 46.482802 258.248118 
L 46.486234 260.152622 
L 46.4912 262.057127 
L 46.49804 263.961631 
L 46.50718 265.866135 
L 46.519118 267.77064 
L 46.534414 269.675144 
L 46.553667 271.579648 
L 46.577486 273.484152 
L 46.606452 275.388657 
L 46.64107 277.293161 
L 46.681719 279.197665 
L 46.728589 281.10217 
L 46.781631 283.006674 
L 46.840502 284.911178 
L 46.904525 286.815683 
L 46.972667 288.720187 
L 47.043541 290.624691 
L 47.11543 292.529195 
L 47.186345 294.4337 
L 47.254104 296.338204 
L 47.31644 298.242708 
L 47.371123 300.147213 
L 47.416094 302.051717 
L 47.449587 303.956221 
L 47.470251 305.860725 
L 47.477236 307.76523 
L 47.477236 307.76523 
z
" clip-path="url(#p441b14b18b)" style="fill: none; stroke: #000000; stroke-opacity: 0.3"/>
   </g>
   <g id="FillBetweenPolyCollection_8">
    <path d="M 123.038195 183.30937 
L 100.81635 183.30937 
L 100.380801 182.822027 
L 99.958482 182.334683 
L 99.551489 181.84734 
L 99.161779 181.359996 
L 98.791138 180.872653 
L 98.441155 180.38531 
L 98.113197 179.897966 
L 97.808395 179.410623 
L 97.527617 178.923279 
L 97.271462 178.435936 
L 97.040248 177.948592 
L 96.834009 177.461249 
L 96.652495 176.973905 
L 96.495175 176.486562 
L 96.361245 175.999219 
L 96.249648 175.511875 
L 96.159083 175.024532 
L 96.088031 174.537188 
L 96.034779 174.049845 
L 95.997445 173.562501 
L 95.97401 173.075158 
L 95.962348 172.587814 
L 95.960257 172.100471 
L 95.965492 171.613128 
L 95.975801 171.125784 
L 95.988951 170.638441 
L 96.002762 170.151097 
L 96.015138 169.663754 
L 96.02409 169.17641 
L 96.027762 168.689067 
L 96.024456 168.201723 
L 96.012644 167.71438 
L 95.990994 167.227036 
L 95.958373 166.739693 
L 95.913865 166.25235 
L 95.856774 165.765006 
L 95.78663 165.277663 
L 95.703189 164.790319 
L 95.606434 164.302976 
L 95.49657 163.815632 
L 95.374023 163.328289 
L 95.239425 162.840945 
L 95.093612 162.353602 
L 94.937613 161.866259 
L 94.772633 161.378915 
L 94.600045 160.891572 
L 94.421374 160.404228 
L 94.238279 159.916885 
L 94.05254 159.429541 
L 93.866041 158.942198 
L 93.680745 158.454854 
L 93.498683 157.967511 
L 93.321927 157.480168 
L 93.152574 156.992824 
L 92.992722 156.505481 
L 92.844448 156.018137 
L 92.709788 155.530794 
L 92.590712 155.04345 
L 92.489106 154.556107 
L 92.406747 154.068763 
L 92.345286 153.58142 
L 92.306226 153.094077 
L 92.290909 152.606733 
L 92.300495 152.11939 
L 92.335952 151.632046 
L 92.398044 151.144703 
L 92.487324 150.657359 
L 92.604128 150.170016 
L 92.74857 149.682672 
L 92.920547 149.195329 
L 93.119741 148.707986 
L 93.345623 148.220642 
L 93.597467 147.733299 
L 93.874361 147.245955 
L 94.175216 146.758612 
L 94.498792 146.271268 
L 94.843707 145.783925 
L 95.208463 145.296581 
L 95.591461 144.809238 
L 95.991025 144.321895 
L 96.405422 143.834551 
L 96.83288 143.347208 
L 97.271612 142.859864 
L 97.719827 142.372521 
L 98.175757 141.885177 
L 98.637664 141.397834 
L 99.103858 140.91049 
L 99.572706 140.423147 
L 100.042648 139.935804 
L 100.512197 139.44846 
L 100.979952 138.961117 
L 101.444598 138.473773 
L 101.904912 137.98643 
L 102.359763 137.499086 
L 102.80811 137.011743 
L 103.249004 136.524399 
L 103.681584 136.037056 
L 104.105073 135.549713 
L 104.51878 135.062369 
L 119.335766 135.062369 
L 119.335766 135.062369 
L 119.749472 135.549713 
L 120.172962 136.037056 
L 120.605542 136.524399 
L 121.046435 137.011743 
L 121.494783 137.499086 
L 121.949633 137.98643 
L 122.409947 138.473773 
L 122.874594 138.961117 
L 123.342348 139.44846 
L 123.811898 139.935804 
L 124.281839 140.423147 
L 124.750688 140.91049 
L 125.216881 141.397834 
L 125.678788 141.885177 
L 126.134718 142.372521 
L 126.582934 142.859864 
L 127.021665 143.347208 
L 127.449124 143.834551 
L 127.86352 144.321895 
L 128.263084 144.809238 
L 128.646082 145.296581 
L 129.010838 145.783925 
L 129.355753 146.271268 
L 129.679329 146.758612 
L 129.980185 147.245955 
L 130.257078 147.733299 
L 130.508923 148.220642 
L 130.734805 148.707986 
L 130.933998 149.195329 
L 131.105976 149.682672 
L 131.250418 150.170016 
L 131.367221 150.657359 
L 131.456501 151.144703 
L 131.518594 151.632046 
L 131.554051 152.11939 
L 131.563636 152.606733 
L 131.548319 153.094077 
L 131.50926 153.58142 
L 131.447799 154.068763 
L 131.36544 154.556107 
L 131.263833 155.04345 
L 131.144758 155.530794 
L 131.010097 156.018137 
L 130.861824 156.505481 
L 130.701971 156.992824 
L 130.532619 157.480168 
L 130.355863 157.967511 
L 130.1738 158.454854 
L 129.988505 158.942198 
L 129.802005 159.429541 
L 129.616267 159.916885 
L 129.433172 160.404228 
L 129.2545 160.891572 
L 129.081912 161.378915 
L 128.916933 161.866259 
L 128.760933 162.353602 
L 128.615121 162.840945 
L 128.480523 163.328289 
L 128.357975 163.815632 
L 128.248112 164.302976 
L 128.151357 164.790319 
L 128.067916 165.277663 
L 127.997771 165.765006 
L 127.940681 166.25235 
L 127.896173 166.739693 
L 127.863552 167.227036 
L 127.841901 167.71438 
L 127.83009 168.201723 
L 127.826783 168.689067 
L 127.830455 169.17641 
L 127.839407 169.663754 
L 127.851783 170.151097 
L 127.865595 170.638441 
L 127.878745 171.125784 
L 127.889053 171.613128 
L 127.894289 172.100471 
L 127.892197 172.587814 
L 127.880535 173.075158 
L 127.857101 173.562501 
L 127.819767 174.049845 
L 127.766515 174.537188 
L 127.695463 175.024532 
L 127.604897 175.511875 
L 127.4933 175.999219 
L 127.359371 176.486562 
L 127.20205 176.973905 
L 127.020536 177.461249 
L 126.814298 177.948592 
L 126.583084 178.435936 
L 126.326929 178.923279 
L 126.046151 179.410623 
L 125.741348 179.897966 
L 125.413391 180.38531 
L 125.063407 180.872653 
L 124.692766 181.359996 
L 124.303056 181.84734 
L 123.896064 182.334683 
L 123.473745 182.822027 
L 123.038195 183.30937 
L 123.038195 183.30937 
z
" clip-path="url(#p441b14b18b)" style="fill: none; stroke: #000000; stroke-opacity: 0.3"/>
   </g>
   <g id="FillBetweenPolyCollection_9">
    <path d="M 118.665715 219.540021 
L 105.18883 219.540021 
L 104.830766 218.575805 
L 104.474861 217.611589 
L 104.122018 216.647373 
L 103.773032 215.683157 
L 103.428606 214.718942 
L 103.089369 213.754726 
L 102.755906 212.79051 
L 102.428782 211.826294 
L 102.108565 210.862079 
L 101.795855 209.897863 
L 101.491303 208.933647 
L 101.19562 207.969431 
L 100.909586 207.005216 
L 100.63405 206.041 
L 100.369911 205.076784 
L 100.118099 204.112568 
L 99.879546 203.148352 
L 99.655147 202.184137 
L 99.44571 201.219921 
L 99.251915 200.255705 
L 99.074254 199.291489 
L 98.912989 198.327274 
L 98.768098 197.363058 
L 98.639239 196.398842 
L 98.525711 195.434626 
L 98.426441 194.470411 
L 98.339966 193.506195 
L 98.264441 192.541979 
L 98.197659 191.577763 
L 98.137083 190.613548 
L 98.079898 189.649332 
L 98.023069 188.685116 
L 97.963417 187.7209 
L 97.897708 186.756684 
L 97.822737 185.792469 
L 97.735436 184.828253 
L 97.632961 183.864037 
L 97.5128 182.899821 
L 97.372858 181.935606 
L 97.211545 180.97139 
L 97.027849 180.007174 
L 96.821392 179.042958 
L 96.592476 178.078743 
L 96.342102 177.114527 
L 96.071981 176.150311 
L 95.784512 175.186095 
L 95.482747 174.221879 
L 95.170338 173.257664 
L 94.851457 172.293448 
L 94.530709 171.329232 
L 94.213029 170.365016 
L 93.903563 169.400801 
L 93.607554 168.436585 
L 93.330215 167.472369 
L 93.076608 166.508153 
L 92.85153 165.543938 
L 92.659401 164.579722 
L 92.504177 163.615506 
L 92.389264 162.65129 
L 92.31746 161.687075 
L 92.290909 160.722859 
L 92.311077 159.758643 
L 92.378745 158.794427 
L 92.494026 157.830211 
L 92.656385 156.865996 
L 92.864689 155.90178 
L 93.117256 154.937564 
L 93.411919 153.973348 
L 93.746091 153.009133 
L 94.116842 152.044917 
L 94.520961 151.080701 
L 94.955036 150.116485 
L 95.415512 149.15227 
L 95.898756 148.188054 
L 96.40111 147.223838 
L 96.918945 146.259622 
L 97.448701 145.295407 
L 97.986926 144.331191 
L 98.530309 143.366975 
L 99.075711 142.402759 
L 99.620186 141.438543 
L 100.161004 140.474328 
L 100.695671 139.510112 
L 101.22194 138.545896 
L 101.737826 137.58168 
L 102.241615 136.617465 
L 102.731869 135.653249 
L 103.207426 134.689033 
L 103.667397 133.724817 
L 104.111162 132.760602 
L 104.538352 131.796386 
L 104.948834 130.83217 
L 105.342687 129.867954 
L 105.720176 128.903738 
L 106.08172 127.939523 
L 106.42786 126.975307 
L 106.759225 126.011091 
L 107.076497 125.046875 
L 107.380377 124.08266 
L 116.474168 124.08266 
L 116.474168 124.08266 
L 116.778049 125.046875 
L 117.095321 126.011091 
L 117.426686 126.975307 
L 117.772826 127.939523 
L 118.13437 128.903738 
L 118.511858 129.867954 
L 118.905711 130.83217 
L 119.316193 131.796386 
L 119.743383 132.760602 
L 120.187148 133.724817 
L 120.64712 134.689033 
L 121.122676 135.653249 
L 121.61293 136.617465 
L 122.116719 137.58168 
L 122.632606 138.545896 
L 123.158875 139.510112 
L 123.693541 140.474328 
L 124.23436 141.438543 
L 124.778835 142.402759 
L 125.324237 143.366975 
L 125.86762 144.331191 
L 126.405844 145.295407 
L 126.9356 146.259622 
L 127.453435 147.223838 
L 127.95579 148.188054 
L 128.439033 149.15227 
L 128.899509 150.116485 
L 129.333584 151.080701 
L 129.737704 152.044917 
L 130.108454 153.009133 
L 130.442626 153.973348 
L 130.737289 154.937564 
L 130.989856 155.90178 
L 131.19816 156.865996 
L 131.36052 157.830211 
L 131.4758 158.794427 
L 131.543469 159.758643 
L 131.563636 160.722859 
L 131.537085 161.687075 
L 131.465281 162.65129 
L 131.350369 163.615506 
L 131.195145 164.579722 
L 131.003016 165.543938 
L 130.777937 166.508153 
L 130.52433 167.472369 
L 130.246991 168.436585 
L 129.950982 169.400801 
L 129.641517 170.365016 
L 129.323836 171.329232 
L 129.003088 172.293448 
L 128.684207 173.257664 
L 128.371798 174.221879 
L 128.070034 175.186095 
L 127.782565 176.150311 
L 127.512444 177.114527 
L 127.26207 178.078743 
L 127.033153 179.042958 
L 126.826696 180.007174 
L 126.643 180.97139 
L 126.481688 181.935606 
L 126.341746 182.899821 
L 126.221585 183.864037 
L 126.11911 184.828253 
L 126.031808 185.792469 
L 125.956838 186.756684 
L 125.891128 187.7209 
L 125.831477 188.685116 
L 125.774647 189.649332 
L 125.717462 190.613548 
L 125.656887 191.577763 
L 125.590105 192.541979 
L 125.51458 193.506195 
L 125.428104 194.470411 
L 125.328834 195.434626 
L 125.215307 196.398842 
L 125.086447 197.363058 
L 124.941556 198.327274 
L 124.780291 199.291489 
L 124.602631 200.255705 
L 124.408835 201.219921 
L 124.199399 202.184137 
L 123.974999 203.148352 
L 123.736447 204.112568 
L 123.484635 205.076784 
L 123.220495 206.041 
L 122.944959 207.005216 
L 122.658926 207.969431 
L 122.363243 208.933647 
L 122.05869 209.897863 
L 121.745981 210.862079 
L 121.425764 211.826294 
L 121.098639 212.79051 
L 120.765177 213.754726 
L 120.42594 214.718942 
L 120.081513 215.683157 
L 119.732527 216.647373 
L 119.379684 217.611589 
L 119.02378 218.575805 
L 118.665715 219.540021 
L 118.665715 219.540021 
z
" clip-path="url(#p441b14b18b)" style="fill: none; stroke: #000000; stroke-opacity: 0.3"/>
   </g>
   <g id="FillBetweenPolyCollection_10">
    <path d="M 113.631096 244.063909 
L 110.22345 244.063909 
L 110.144401 242.865038 
L 110.064034 241.666167 
L 109.981129 240.467296 
L 109.894333 239.268425 
L 109.802216 238.069554 
L 109.703336 236.870683 
L 109.596292 235.671811 
L 109.479783 234.47294 
L 109.352645 233.274069 
L 109.213883 232.075198 
L 109.062684 230.876327 
L 108.898402 229.677456 
L 108.720543 228.478585 
L 108.528711 227.279714 
L 108.32256 226.080843 
L 108.101722 224.881971 
L 107.865745 223.6831 
L 107.614022 222.484229 
L 107.345742 221.285358 
L 107.05985 220.086487 
L 106.755033 218.887616 
L 106.429736 217.688745 
L 106.082203 216.489874 
L 105.710556 215.291003 
L 105.312894 214.092132 
L 104.887428 212.89326 
L 104.432628 211.694389 
L 103.947386 210.495518 
L 103.431174 209.296647 
L 102.884204 208.097776 
L 102.307559 206.898905 
L 101.703295 205.700034 
L 101.074509 204.501163 
L 100.425354 203.302292 
L 99.761003 202.103421 
L 99.087558 200.904549 
L 98.411906 199.705678 
L 97.741522 198.506807 
L 97.084232 197.307936 
L 96.447945 196.109065 
L 95.840364 194.910194 
L 95.268695 193.711323 
L 94.739366 192.512452 
L 94.25778 191.313581 
L 93.8281 190.11471 
L 93.453102 188.915838 
L 93.134082 187.716967 
L 92.870842 186.518096 
L 92.661744 185.319225 
L 92.503836 184.120354 
L 92.393038 182.921483 
L 92.324386 181.722612 
L 92.292304 180.523741 
L 92.290909 179.32487 
L 92.314306 178.125999 
L 92.356882 176.927127 
L 92.413557 175.728256 
L 92.480001 174.529385 
L 92.552789 173.330514 
L 92.629501 172.131643 
L 92.70875 170.932772 
L 92.790155 169.733901 
L 92.874261 168.53503 
L 92.962403 167.336159 
L 93.056552 166.137288 
L 93.159127 164.938416 
L 93.272808 163.739545 
L 93.400358 162.540674 
L 93.544454 161.341803 
L 93.707554 160.142932 
L 93.891793 158.944061 
L 94.098911 157.74519 
L 94.330217 156.546319 
L 94.586586 155.347448 
L 94.868478 154.148576 
L 95.175976 152.949705 
L 95.508839 151.750834 
L 95.866551 150.551963 
L 96.248377 149.353092 
L 96.653402 148.154221 
L 97.08057 146.95535 
L 97.528695 145.756479 
L 97.996476 144.557608 
L 98.482492 143.358737 
L 98.985188 142.159865 
L 99.502864 140.960994 
L 100.033656 139.762123 
L 100.575528 138.563252 
L 101.126266 137.364381 
L 101.68348 136.16551 
L 102.244622 134.966639 
L 102.807007 133.767768 
L 103.367855 132.568897 
L 103.924327 131.370026 
L 104.473581 130.171154 
L 105.012823 128.972283 
L 105.539361 127.773412 
L 106.050657 126.574541 
L 106.544377 125.37567 
L 117.310169 125.37567 
L 117.310169 125.37567 
L 117.803888 126.574541 
L 118.315185 127.773412 
L 118.841722 128.972283 
L 119.380964 130.171154 
L 119.930219 131.370026 
L 120.486691 132.568897 
L 121.047538 133.767768 
L 121.609924 134.966639 
L 122.171065 136.16551 
L 122.728279 137.364381 
L 123.279017 138.563252 
L 123.82089 139.762123 
L 124.351682 140.960994 
L 124.869357 142.159865 
L 125.372053 143.358737 
L 125.858069 144.557608 
L 126.325851 145.756479 
L 126.773976 146.95535 
L 127.201143 148.154221 
L 127.606169 149.353092 
L 127.987994 150.551963 
L 128.345707 151.750834 
L 128.678569 152.949705 
L 128.986067 154.148576 
L 129.267959 155.347448 
L 129.524328 156.546319 
L 129.755635 157.74519 
L 129.962752 158.944061 
L 130.146991 160.142932 
L 130.310092 161.341803 
L 130.454188 162.540674 
L 130.581737 163.739545 
L 130.695418 164.938416 
L 130.797993 166.137288 
L 130.892142 167.336159 
L 130.980285 168.53503 
L 131.06439 169.733901 
L 131.145795 170.932772 
L 131.225044 172.131643 
L 131.301756 173.330514 
L 131.374545 174.529385 
L 131.440989 175.728256 
L 131.497664 176.927127 
L 131.540239 178.125999 
L 131.563636 179.32487 
L 131.562241 180.523741 
L 131.53016 181.722612 
L 131.461507 182.921483 
L 131.350709 184.120354 
L 131.192801 185.319225 
L 130.983703 186.518096 
L 130.720464 187.716967 
L 130.401444 188.915838 
L 130.026445 190.11471 
L 129.596766 191.313581 
L 129.115179 192.512452 
L 128.585851 193.711323 
L 128.014181 194.910194 
L 127.406601 196.109065 
L 126.770314 197.307936 
L 126.113024 198.506807 
L 125.442639 199.705678 
L 124.766987 200.904549 
L 124.093543 202.103421 
L 123.429192 203.302292 
L 122.780037 204.501163 
L 122.151251 205.700034 
L 121.546987 206.898905 
L 120.970341 208.097776 
L 120.423371 209.296647 
L 119.90716 210.495518 
L 119.421917 211.694389 
L 118.967117 212.89326 
L 118.541652 214.092132 
L 118.14399 215.291003 
L 117.772342 216.489874 
L 117.42481 217.688745 
L 117.099512 218.887616 
L 116.794695 220.086487 
L 116.508803 221.285358 
L 116.240523 222.484229 
L 115.9888 223.6831 
L 115.752823 224.881971 
L 115.531986 226.080843 
L 115.325834 227.279714 
L 115.134002 228.478585 
L 114.956143 229.677456 
L 114.791862 230.876327 
L 114.640662 232.075198 
L 114.501901 233.274069 
L 114.374763 234.47294 
L 114.258253 235.671811 
L 114.15121 236.870683 
L 114.052329 238.069554 
L 113.960213 239.268425 
L 113.873416 240.467296 
L 113.790511 241.666167 
L 113.710145 242.865038 
L 113.631096 244.063909 
L 113.631096 244.063909 
z
" clip-path="url(#p441b14b18b)" style="fill: none; stroke: #000000; stroke-opacity: 0.3"/>
   </g>
   <g id="FillBetweenPolyCollection_11">
    <path d="M 115.410507 238.897301 
L 108.444039 238.897301 
L 108.263434 237.706841 
L 108.080373 236.51638 
L 107.894646 235.32592 
L 107.705971 234.135459 
L 107.513998 232.944999 
L 107.318333 231.754538 
L 107.118551 230.564078 
L 106.914216 229.373617 
L 106.704909 228.183157 
L 106.490241 226.992696 
L 106.269881 225.802236 
L 106.043573 224.611775 
L 105.811152 223.421315 
L 105.572553 222.230854 
L 105.327826 221.040393 
L 105.077133 219.849933 
L 104.82075 218.659472 
L 104.559055 217.469012 
L 104.292519 216.278551 
L 104.021688 215.088091 
L 103.747158 213.89763 
L 103.469558 212.70717 
L 103.189518 211.516709 
L 102.907645 210.326249 
L 102.624495 209.135788 
L 102.340556 207.945328 
L 102.056219 206.754867 
L 101.771768 205.564407 
L 101.487372 204.373946 
L 101.203073 203.183485 
L 100.918798 201.993025 
L 100.634361 200.802564 
L 100.349486 199.612104 
L 100.063821 198.421643 
L 99.776973 197.231183 
L 99.488536 196.040722 
L 99.198123 194.850262 
L 98.905406 193.659801 
L 98.610147 192.469341 
L 98.312232 191.27888 
L 98.011702 190.08842 
L 97.708773 188.897959 
L 97.40386 187.707499 
L 97.097579 186.517038 
L 96.790755 185.326577 
L 96.484412 184.136117 
L 96.179757 182.945656 
L 95.878156 181.755196 
L 95.581103 180.564735 
L 95.290177 179.374275 
L 95.007005 178.183814 
L 94.733206 176.993354 
L 94.470351 175.802893 
L 94.219906 174.612433 
L 93.983195 173.421972 
L 93.761353 172.231512 
L 93.555293 171.041051 
L 93.365685 169.850591 
L 93.192936 168.66013 
L 93.037187 167.469669 
L 92.898319 166.279209 
L 92.775973 165.088748 
L 92.669576 163.898288 
L 92.578384 162.707827 
L 92.501523 161.517367 
L 92.438052 160.326906 
L 92.387012 159.136446 
L 92.347493 157.945985 
L 92.318693 156.755525 
L 92.299973 155.565064 
L 92.290909 154.374604 
L 92.291336 153.184143 
L 92.301382 151.993683 
L 92.321488 150.803222 
L 92.352417 149.612762 
L 92.395255 148.422301 
L 92.451386 147.23184 
L 92.522467 146.04138 
L 92.610382 144.850919 
L 92.717189 143.660459 
L 92.845059 142.469998 
L 92.996204 141.279538 
L 93.172805 140.089077 
L 93.376933 138.898617 
L 93.610476 137.708156 
L 93.875068 136.517696 
L 94.172018 135.327235 
L 94.502252 134.136775 
L 94.866269 132.946314 
L 95.264094 131.755854 
L 95.695262 130.565393 
L 96.158799 129.374932 
L 96.653224 128.184472 
L 97.176569 126.994011 
L 97.726399 125.803551 
L 98.299858 124.61309 
L 98.893715 123.42263 
L 99.504427 122.232169 
L 100.128201 121.041709 
L 123.726345 121.041709 
L 123.726345 121.041709 
L 124.350118 122.232169 
L 124.96083 123.42263 
L 125.554688 124.61309 
L 126.128147 125.803551 
L 126.677977 126.994011 
L 127.201321 128.184472 
L 127.695747 129.374932 
L 128.159283 130.565393 
L 128.590451 131.755854 
L 128.988277 132.946314 
L 129.352293 134.136775 
L 129.682528 135.327235 
L 129.979477 136.517696 
L 130.244069 137.708156 
L 130.477613 138.898617 
L 130.681741 140.089077 
L 130.858341 141.279538 
L 131.009487 142.469998 
L 131.137357 143.660459 
L 131.244164 144.850919 
L 131.332079 146.04138 
L 131.403159 147.23184 
L 131.45929 148.422301 
L 131.502128 149.612762 
L 131.533058 150.803222 
L 131.553163 151.993683 
L 131.563209 153.184143 
L 131.563636 154.374604 
L 131.554572 155.565064 
L 131.535852 156.755525 
L 131.507052 157.945985 
L 131.467534 159.136446 
L 131.416494 160.326906 
L 131.353022 161.517367 
L 131.276162 162.707827 
L 131.184969 163.898288 
L 131.078572 165.088748 
L 130.956226 166.279209 
L 130.817359 167.469669 
L 130.66161 168.66013 
L 130.48886 169.850591 
L 130.299253 171.041051 
L 130.093193 172.231512 
L 129.87135 173.421972 
L 129.634639 174.612433 
L 129.384195 175.802893 
L 129.121339 176.993354 
L 128.847541 178.183814 
L 128.564368 179.374275 
L 128.273443 180.564735 
L 127.976389 181.755196 
L 127.674789 182.945656 
L 127.370133 184.136117 
L 127.06379 185.326577 
L 126.756966 186.517038 
L 126.450685 187.707499 
L 126.145772 188.897959 
L 125.842844 190.08842 
L 125.542313 191.27888 
L 125.244399 192.469341 
L 124.949139 193.659801 
L 124.656422 194.850262 
L 124.36601 196.040722 
L 124.077572 197.231183 
L 123.790725 198.421643 
L 123.50506 199.612104 
L 123.220184 200.802564 
L 122.935747 201.993025 
L 122.651472 203.183485 
L 122.367174 204.373946 
L 122.082777 205.564407 
L 121.798327 206.754867 
L 121.51399 207.945328 
L 121.23005 209.135788 
L 120.946901 210.326249 
L 120.665027 211.516709 
L 120.384987 212.70717 
L 120.107387 213.89763 
L 119.832858 215.088091 
L 119.562026 216.278551 
L 119.29549 217.469012 
L 119.033795 218.659472 
L 118.777412 219.849933 
L 118.52672 221.040393 
L 118.281993 222.230854 
L 118.043394 223.421315 
L 117.810972 224.611775 
L 117.584664 225.802236 
L 117.364305 226.992696 
L 117.149637 228.183157 
L 116.940329 229.373617 
L 116.735995 230.564078 
L 116.536212 231.754538 
L 116.340547 232.944999 
L 116.148575 234.135459 
L 115.959899 235.32592 
L 115.774173 236.51638 
L 115.591111 237.706841 
L 115.410507 238.897301 
L 115.410507 238.897301 
z
" clip-path="url(#p441b14b18b)" style="fill: none; stroke: #000000; stroke-opacity: 0.3"/>
   </g>
   <g id="matplotlib.axis_1">
    <g id="xtick_1">
     <g id="line2d_1">
      <defs>
       <path id="m781ae3827a" d="M 0 0 
L 0 3.5 
" style="stroke: #000000; stroke-width: 0.8"/>
      </defs>
      <g>
       <use xlink:href="#m781ae3827a" x="46.472727" y="291.6" style="stroke: #000000; stroke-width: 0.8"/>
      </g>
     </g>
     <g id="text_1">
      <text style="font-size: 10px; font-family: 'DejaVu Sans', 'Bitstream Vera Sans', 'Computer Modern Sans Serif', 'Lucida Grande', 'Verdana', 'Geneva', 'Lucid', 'Arial', 'Helvetica', 'Avant Garde', sans-serif; text-anchor: middle" x="46.472727" y="306.198438" transform="rotate(-0 46.472727 306.198438)">0.3</text>
     </g>
    </g>
    <g id="xtick_2">
     <g id="line2d_2">
      <g>
       <use xlink:href="#m781ae3827a" x="111.927273" y="291.6" style="stroke: #000000; stroke-width: 0.8"/>
      </g>
     </g>
     <g id="text_2">
      <text style="font-size: 10px; font-family: 'DejaVu Sans', 'Bitstream Vera Sans', 'Computer Modern Sans Serif', 'Lucida Grande', 'Verdana', 'Geneva', 'Lucid', 'Arial', 'Helvetica', 'Avant Garde', sans-serif; text-anchor: middle" x="111.927273" y="306.198438" transform="rotate(-0 111.927273 306.198438)">0.6</text>
     </g>
    </g>
   </g>
   <g id="matplotlib.axis_2">
    <g id="ytick_1">
     <g id="line2d_3">
      <defs>
       <path id="me1327116fd" d="M 0 0 
L -3.5 0 
" style="stroke: #000000; stroke-width: 0.8"/>
      </defs>
      <g>
       <use xlink:href="#me1327116fd" x="21.6" y="291.6" style="stroke: #000000; stroke-width: 0.8"/>
      </g>
     </g>
     <g id="text_3">
      <text style="font-size: 10px; font-family: 'DejaVu Sans', 'Bitstream Vera Sans', 'Computer Modern Sans Serif', 'Lucida Grande', 'Verdana', 'Geneva', 'Lucid', 'Arial', 'Helvetica', 'Avant Garde', sans-serif; text-anchor: end" x="14.6" y="295.399219" transform="rotate(-0 14.6 295.399219)">0.1</text>
     </g>
    </g>
    <g id="ytick_2">
     <g id="line2d_4">
      <g>
       <use xlink:href="#me1327116fd" x="21.6" y="199.8" style="stroke: #000000; stroke-width: 0.8"/>
      </g>
     </g>
     <g id="text_4">
      <text style="font-size: 10px; font-family: 'DejaVu Sans', 'Bitstream Vera Sans', 'Computer Modern Sans Serif', 'Lucida Grande', 'Verdana', 'Geneva', 'Lucid', 'Arial', 'Helvetica', 'Avant Garde', sans-serif; text-anchor: end" x="14.6" y="203.599219" transform="rotate(-0 14.6 203.599219)">0.2</text>
     </g>
    </g>
    <g id="ytick_3">
     <g id="line2d_5">
      <g>
       <use xlink:href="#me1327116fd" x="21.6" y="108" style="stroke: #000000; stroke-width: 0.8"/>
      </g>
     </g>
     <g id="text_5">
      <text style="font-size: 10px; font-family: 'DejaVu Sans', 'Bitstream Vera Sans', 'Computer Modern Sans Serif', 'Lucida Grande', 'Verdana', 'Geneva', 'Lucid', 'Arial', 'Helvetica', 'Avant Garde', sans-serif; text-anchor: end" x="14.6" y="111.799219" transform="rotate(-0 14.6 111.799219)">0.3</text>
     </g>
    </g>
    <g id="ytick_4">
     <g id="line2d_6">
      <g>
       <use xlink:href="#me1327116fd" x="21.6" y="16.2" style="stroke: #000000; stroke-width: 0.8"/>
      </g>
     </g>
     <g id="text_6">
      <text style="font-size: 10px; font-family: 'DejaVu Sans', 'Bitstream Vera Sans', 'Computer Modern Sans Serif', 'Lucida Grande', 'Verdana', 'Geneva', 'Lucid', 'Arial', 'Helvetica', 'Avant Garde', sans-serif; text-anchor: end" x="14.6" y="19.999219" transform="rotate(-0 14.6 19.999219)">0.4</text>
     </g>
    </g>
    <g id="text_7">
     <text style="font-size: 14px; font-family: 'DejaVu Sans', 'Bitstream Vera Sans', 'Computer Modern Sans Serif', 'Lucida Grande', 'Verdana', 'Geneva', 'Lucid', 'Arial', 'Helvetica', 'Avant Garde', sans-serif; text-anchor: middle" x="12.928437" y="153.9" transform="rotate(-90 12.928437 153.9)">Ef</text>
    </g>
   </g>
   <g id="line2d_7">
    <path d="M 46.472727 269.568 
L 46.472727 264.06 
" clip-path="url(#p441b14b18b)" style="fill: none; stroke: #000000; stroke-linecap: square"/>
   </g>
   <g id="line2d_8">
    <path d="M 46.472727 269.568 
L 111.927273 269.568 
" clip-path="url(#p441b14b18b)" style="fill: none; stroke: #000000; stroke-linecap: square"/>
   </g>
   <g id="line2d_9">
    <path d="M 111.927273 269.568 
L 111.927273 264.06 
" clip-path="url(#p441b14b18b)" style="fill: none; stroke: #000000; stroke-linecap: square"/>
   </g>
   <g id="patch_3">
    <path d="M 21.6 291.6 
L 21.6 16.2 
" style="fill: none; stroke: #000000; stroke-width: 0.8; stroke-linejoin: miter; stroke-linecap: square"/>
   </g>
   <g id="patch_4">
    <path d="M 136.8 291.6 
L 136.8 16.2 
" style="fill: none; stroke: #000000; stroke-width: 0.8; stroke-linejoin: miter; stroke-linecap: square"/>
   </g>
   <g id="patch_5">
    <path d="M 21.6 291.6 
L 136.8 291.6 
" style="fill: none; stroke: #000000; stroke-width: 0.8; stroke-linejoin: miter; stroke-linecap: square"/>
   </g>
   <g id="patch_6">
    <path d="M 21.6 16.2 
L 136.8 16.2 
" style="fill: none; stroke: #000000; stroke-width: 0.8; stroke-linejoin: miter; stroke-linecap: square"/>
   </g>
   <g id="text_8">
    <text style="font-weight: 700; font-size: 12px; font-family: 'DejaVu Sans', 'Bitstream Vera Sans', 'Computer Modern Sans Serif', 'Lucida Grande', 'Verdana', 'Geneva', 'Lucid', 'Arial', 'Helvetica', 'Avant Garde', sans-serif; text-anchor: middle" x="46.472727" y="289.104375" transform="rotate(-0 46.472727 289.104375)">#6</text>
   </g>
   <g id="text_9">
    <text style="font-weight: 700; font-size: 12px; font-family: 'DejaVu Sans', 'Bitstream Vera Sans', 'Computer Modern Sans Serif', 'Lucida Grande', 'Verdana', 'Geneva', 'Lucid', 'Arial', 'Helvetica', 'Avant Garde', sans-serif; text-anchor: middle" x="111.927273" y="289.104375" transform="rotate(-0 111.927273 289.104375)">#20</text>
   </g>
   <g id="text_10">
    <text style="font-size: 12px; font-family: 'DejaVu Sans', 'Bitstream Vera Sans', 'Computer Modern Sans Serif', 'Lucida Grande', 'Verdana', 'Geneva', 'Lucid', 'Arial', 'Helvetica', 'Avant Garde', sans-serif; text-anchor: middle" x="79.2" y="268.449375" transform="rotate(-0 79.2 268.449375)">**</text>
   </g>
   <g id="line2d_10">
    <path d="M 21.6 156.394406 
L 136.8 156.394406 
" clip-path="url(#p441b14b18b)" style="fill: none; stroke-dasharray: 3.7,1.6; stroke-dashoffset: 0; stroke: #808080; stroke-opacity: 0.7"/>
   </g>
   <g id="line2d_11">
    <path d="M 21.6 166.21886 
L 136.8 166.21886 
" clip-path="url(#p441b14b18b)" style="fill: none; stroke-dasharray: 3.7,1.6; stroke-dashoffset: 0; stroke: #808080; stroke-opacity: 0.7"/>
   </g>
   <g id="LineCollection_1">
    <path d="M 46.472727 158.639609 
L 46.472727 154.149203 
" clip-path="url(#p441b14b18b)" style="fill: none; stroke: #000000; stroke-width: 2"/>
   </g>
   <g id="line2d_12">
    <defs>
     <path id="md29ed4c864" d="M 5 0 
L -5 -0 
" style="stroke: #000000; stroke-width: 2"/>
    </defs>
    <g clip-path="url(#p441b14b18b)">
     <use xlink:href="#md29ed4c864" x="46.472727" y="158.639609" style="stroke: #000000; stroke-width: 2"/>
    </g>
   </g>
   <g id="line2d_13">
    <g clip-path="url(#p441b14b18b)">
     <use xlink:href="#md29ed4c864" x="46.472727" y="154.149203" style="stroke: #000000; stroke-width: 2"/>
    </g>
   </g>
   <g id="LineCollection_2">
    <path d="M 111.927273 172.059422 
L 111.927273 160.378298 
" clip-path="url(#p441b14b18b)" style="fill: none; stroke: #000000; stroke-width: 2"/>
   </g>
   <g id="line2d_14">
    <g clip-path="url(#p441b14b18b)">
     <use xlink:href="#md29ed4c864" x="111.927273" y="172.059422" style="stroke: #000000; stroke-width: 2"/>
    </g>
   </g>
   <g id="line2d_15">
    <g clip-path="url(#p441b14b18b)">
     <use xlink:href="#md29ed4c864" x="111.927273" y="160.378298" style="stroke: #000000; stroke-width: 2"/>
    </g>
   </g>
   <g id="line2d_16">
    <defs>
     <path id="mc6052c3ac1" d="M 0 4 
C 1.060812 4 2.078319 3.578535 2.828427 2.828427 
C 3.578535 2.078319 4 1.060812 4 0 
C 4 -1.060812 3.578535 -2.078319 2.828427 -2.828427 
C 2.078319 -3.578535 1.060812 -4 0 -4 
C -1.060812 -4 -2.078319 -3.578535 -2.828427 -2.828427 
C -3.578535 -2.078319 -4 -1.060812 -4 0 
C -4 1.060812 -3.578535 2.078319 -2.828427 2.828427 
C -2.078319 3.578535 -1.060812 4 0 4 
z
" style="stroke: #000000"/>
    </defs>
    <g clip-path="url(#p441b14b18b)">
     <use xlink:href="#mc6052c3ac1" x="46.472727" y="156.394406" style="stroke: #000000"/>
    </g>
   </g>
   <g id="line2d_17">
    <g clip-path="url(#p441b14b18b)">
     <use xlink:href="#mc6052c3ac1" x="111.927273" y="166.21886" style="stroke: #000000"/>
    </g>
   </g>
  </g>
 </g>
 <defs>
  <clipPath id="p441b14b18b">
   <rect x="21.6" y="16.2" width="115.2" height="275.4"/>
  </clipPath>
 </defs>
</svg>
