<?xml version="1.0" encoding="utf-8" standalone="no"?>
<!DOCTYPE svg PUBLIC "-//W3C//DTD SVG 1.1//EN"
  "http://www.w3.org/Graphics/SVG/1.1/DTD/svg11.dtd">
<svg xmlns:xlink="http://www.w3.org/1999/xlink" width="216pt" height="324pt" viewBox="0 0 216 324" xmlns="http://www.w3.org/2000/svg" version="1.1">
 <metadata>
  <rdf:RDF xmlns:dc="http://purl.org/dc/elements/1.1/" xmlns:cc="http://creativecommons.org/ns#" xmlns:rdf="http://www.w3.org/1999/02/22-rdf-syntax-ns#">
   <cc:Work>
    <dc:type rdf:resource="http://purl.org/dc/dcmitype/StillImage"/>
    <dc:date>2025-12-05T14:51:43.140406</dc:date>
    <dc:format>image/svg+xml</dc:format>
    <dc:creator>
     <cc:Agent>
      <dc:title>Matplotlib v3.10.0, https://matplotlib.org/</dc:title>
     </cc:Agent>
    </dc:creator>
   </cc:Work>
  </rdf:RDF>
 </metadata>
 <defs>
  <style type="text/css">*{stroke-linejoin: round; stroke-linecap: butt}</style>
 </defs>
 <g id="figure_1">
  <g id="patch_1">
   <path d="M 0 324 
L 216 324 
L 216 0 
L 0 0 
z
" style="fill: #ffffff"/>
  </g>
  <g id="axes_1">
   <g id="patch_2">
    <path d="M 32.4 291.6 
L 205.2 291.6 
L 205.2 16.2 
L 32.4 16.2 
z
" style="fill: #ffffff"/>
   </g>
   <g id="FillBetweenPolyCollection_1">
    <path d="M 59.652017 219.903969 
L 57.108822 219.903969 
L 57.10661 218.795576 
L 57.1133 217.687182 
L 57.127787 216.578788 
L 57.148549 215.470394 
L 57.173677 214.362 
L 57.2009 213.253607 
L 57.227636 212.145213 
L 57.251046 211.036819 
L 57.268089 209.928425 
L 57.275589 208.820032 
L 57.2703 207.711638 
L 57.248971 206.603244 
L 57.20841 205.49485 
L 57.145543 204.386456 
L 57.057471 203.278063 
L 56.941523 202.169669 
L 56.795299 201.061275 
L 56.616709 199.952881 
L 56.404007 198.844488 
L 56.155816 197.736094 
L 55.871144 196.6277 
L 55.549396 195.519306 
L 55.190377 194.410912 
L 54.794289 193.302519 
L 54.361722 192.194125 
L 53.893643 191.085731 
L 53.391383 189.977337 
L 52.85662 188.868943 
L 52.291371 187.76055 
L 51.697983 186.652156 
L 51.079126 185.543762 
L 50.437806 184.435368 
L 49.777363 183.326975 
L 49.101494 182.218581 
L 48.414262 181.110187 
L 47.720115 180.001793 
L 47.023887 178.893399 
L 46.330803 177.785006 
L 45.64646 176.676612 
L 44.976789 175.568218 
L 44.327997 174.459824 
L 43.70648 173.351431 
L 43.118717 172.243037 
L 42.571131 171.134643 
L 42.069932 170.026249 
L 41.620943 168.917855 
L 41.229414 167.809462 
L 40.899834 166.701068 
L 40.63575 165.592674 
L 40.439604 164.48428 
L 40.312588 163.375886 
L 40.254545 162.267493 
L 40.263905 161.159099 
L 40.337671 160.050705 
L 40.471464 158.942311 
L 40.659616 157.833918 
L 40.895329 156.725524 
L 41.170872 155.61713 
L 41.47784 154.508736 
L 41.807432 153.400342 
L 42.15077 152.291949 
L 42.499221 151.183555 
L 42.844717 150.075161 
L 43.180066 148.966767 
L 43.499214 147.858374 
L 43.797479 146.74998 
L 44.071714 145.641586 
L 44.320402 144.533192 
L 44.543689 143.424798 
L 44.743322 142.316405 
L 44.922531 141.208011 
L 45.085834 140.099617 
L 45.238779 138.991223 
L 45.387649 137.882829 
L 45.539134 136.774436 
L 45.699987 135.666042 
L 45.876688 134.557648 
L 46.07513 133.449254 
L 46.300337 132.340861 
L 46.556248 131.232467 
L 46.845543 130.124073 
L 47.169552 129.015679 
L 47.528229 127.907285 
L 47.920193 126.798892 
L 48.342836 125.690498 
L 48.79248 124.582104 
L 49.264584 123.47371 
L 49.753969 122.365316 
L 50.255068 121.256923 
L 50.76217 120.148529 
L 51.26965 119.040135 
L 51.772179 117.931741 
L 52.264892 116.823348 
L 52.743525 115.714954 
L 53.204502 114.60656 
L 53.644978 113.498166 
L 54.062844 112.389772 
L 54.456698 111.281379 
L 54.825782 110.172985 
L 61.935057 110.172985 
L 61.935057 110.172985 
L 62.304141 111.281379 
L 62.697995 112.389772 
L 63.115862 113.498166 
L 63.556337 114.60656 
L 64.017314 115.714954 
L 64.495947 116.823348 
L 64.988661 117.931741 
L 65.491189 119.040135 
L 65.998669 120.148529 
L 66.505771 121.256923 
L 67.00687 122.365316 
L 67.496255 123.47371 
L 67.968359 124.582104 
L 68.418003 125.690498 
L 68.840646 126.798892 
L 69.23261 127.907285 
L 69.591287 129.015679 
L 69.915296 130.124073 
L 70.204591 131.232467 
L 70.460502 132.340861 
L 70.68571 133.449254 
L 70.884151 134.557648 
L 71.060852 135.666042 
L 71.221705 136.774436 
L 71.37319 137.882829 
L 71.522061 138.991223 
L 71.675005 140.099617 
L 71.838308 141.208011 
L 72.017518 142.316405 
L 72.217151 143.424798 
L 72.440437 144.533192 
L 72.689125 145.641586 
L 72.96336 146.74998 
L 73.261625 147.858374 
L 73.580774 148.966767 
L 73.916122 150.075161 
L 74.261618 151.183555 
L 74.610069 152.291949 
L 74.953407 153.400342 
L 75.282999 154.508736 
L 75.589967 155.61713 
L 75.865511 156.725524 
L 76.101223 157.833918 
L 76.289376 158.942311 
L 76.423168 160.050705 
L 76.496934 161.159099 
L 76.506294 162.267493 
L 76.448251 163.375886 
L 76.321235 164.48428 
L 76.125089 165.592674 
L 75.861006 166.701068 
L 75.531425 167.809462 
L 75.139896 168.917855 
L 74.690907 170.026249 
L 74.189708 171.134643 
L 73.642122 172.243037 
L 73.054359 173.351431 
L 72.432842 174.459824 
L 71.78405 175.568218 
L 71.114379 176.676612 
L 70.430036 177.785006 
L 69.736953 178.893399 
L 69.040725 180.001793 
L 68.346577 181.110187 
L 67.659345 182.218581 
L 66.983476 183.326975 
L 66.323034 184.435368 
L 65.681713 185.543762 
L 65.062856 186.652156 
L 64.469468 187.76055 
L 63.904219 188.868943 
L 63.369457 189.977337 
L 62.867196 191.085731 
L 62.399118 192.194125 
L 61.96655 193.302519 
L 61.570462 194.410912 
L 61.211443 195.519306 
L 60.889695 196.6277 
L 60.605023 197.736094 
L 60.356832 198.844488 
L 60.14413 199.952881 
L 59.96554 201.061275 
L 59.819316 202.169669 
L 59.703368 203.278063 
L 59.615296 204.386456 
L 59.552429 205.49485 
L 59.511868 206.603244 
L 59.490539 207.711638 
L 59.48525 208.820032 
L 59.49275 209.928425 
L 59.509793 211.036819 
L 59.533203 212.145213 
L 59.55994 213.253607 
L 59.587162 214.362 
L 59.61229 215.470394 
L 59.633052 216.578788 
L 59.647539 217.687182 
L 59.65423 218.795576 
L 59.652017 219.903969 
L 59.652017 219.903969 
z
" clip-path="url(#pf5f418550c)" style="fill: none; stroke: #000000; stroke-opacity: 0.3"/>
   </g>
   <g id="FillBetweenPolyCollection_2">
    <path d="M 60.07701 202.779525 
L 56.683829 202.779525 
L 56.560471 201.904975 
L 56.442339 201.030426 
L 56.329429 200.155877 
L 56.221063 199.281327 
L 56.115895 198.406778 
L 56.011972 197.532228 
L 55.906845 196.657679 
L 55.797717 195.78313 
L 55.681623 194.90858 
L 55.555623 194.034031 
L 55.416989 193.159482 
L 55.263379 192.284932 
L 55.092973 191.410383 
L 54.904561 190.535833 
L 54.697581 189.661284 
L 54.472094 188.786735 
L 54.22871 187.912185 
L 53.968463 187.037636 
L 53.692656 186.163087 
L 53.402696 185.288537 
L 53.099921 184.413988 
L 52.785463 183.539438 
L 52.460143 182.664889 
L 52.124428 181.79034 
L 51.778435 180.91579 
L 51.422015 180.041241 
L 51.054871 179.166692 
L 50.676734 178.292142 
L 50.287546 177.417593 
L 49.887653 176.543043 
L 49.47796 175.668494 
L 49.060049 174.793945 
L 48.636214 173.919395 
L 48.209431 173.044846 
L 47.783232 172.170296 
L 47.361511 171.295747 
L 46.948264 170.421198 
L 46.547295 169.546648 
L 46.161921 168.672099 
L 45.794698 167.79755 
L 45.447209 166.923 
L 45.119937 166.048451 
L 44.81223 165.173901 
L 44.522374 164.299352 
L 44.247768 163.424803 
L 43.985163 162.550253 
L 43.730971 161.675704 
L 43.481586 160.801155 
L 43.233711 159.926605 
L 42.984642 159.052056 
L 42.732512 158.177506 
L 42.476471 157.302957 
L 42.216797 156.428408 
L 41.95495 155.553858 
L 41.693565 154.679309 
L 41.436409 153.80476 
L 41.188289 152.93021 
L 40.954938 152.055661 
L 40.74287 151.181111 
L 40.559206 150.306562 
L 40.411474 149.432013 
L 40.307381 148.557463 
L 40.254545 147.682914 
L 40.260216 146.808364 
L 40.330959 145.933815 
L 40.472347 145.059266 
L 40.688647 144.184716 
L 40.982539 143.310167 
L 41.354875 142.435618 
L 41.804511 141.561068 
L 42.328203 140.686519 
L 42.920615 139.811969 
L 43.574407 138.93742 
L 44.280442 138.062871 
L 45.02807 137.188321 
L 45.805504 136.313772 
L 46.600255 135.439223 
L 47.399604 134.564673 
L 48.191087 133.690124 
L 48.962968 132.815574 
L 49.704673 131.941025 
L 50.407152 131.066476 
L 51.063173 130.191926 
L 51.667507 129.317377 
L 52.217028 128.442828 
L 52.710694 127.568278 
L 53.149446 126.693729 
L 53.536014 125.819179 
L 53.874644 124.94463 
L 54.170779 124.070081 
L 54.430693 123.195531 
L 54.661111 122.320982 
L 54.868831 121.446433 
L 55.060363 120.571883 
L 55.241613 119.697334 
L 55.417627 118.822784 
L 55.592394 117.948235 
L 55.768737 117.073686 
L 55.948281 116.199136 
L 60.812558 116.199136 
L 60.812558 116.199136 
L 60.992102 117.073686 
L 61.168445 117.948235 
L 61.343212 118.822784 
L 61.519226 119.697334 
L 61.700477 120.571883 
L 61.892008 121.446433 
L 62.099728 122.320982 
L 62.330146 123.195531 
L 62.590061 124.070081 
L 62.886195 124.94463 
L 63.224825 125.819179 
L 63.611393 126.693729 
L 64.050145 127.568278 
L 64.543811 128.442828 
L 65.093332 129.317377 
L 65.697666 130.191926 
L 66.353687 131.066476 
L 67.056166 131.941025 
L 67.797871 132.815574 
L 68.569753 133.690124 
L 69.361235 134.564673 
L 70.160584 135.439223 
L 70.955335 136.313772 
L 71.73277 137.188321 
L 72.480397 138.062871 
L 73.186432 138.93742 
L 73.840224 139.811969 
L 74.432636 140.686519 
L 74.956328 141.561068 
L 75.405964 142.435618 
L 75.778301 143.310167 
L 76.072192 144.184716 
L 76.288492 145.059266 
L 76.42988 145.933815 
L 76.500623 146.808364 
L 76.506294 147.682914 
L 76.453458 148.557463 
L 76.349365 149.432013 
L 76.201634 150.306562 
L 76.017969 151.181111 
L 75.805901 152.055661 
L 75.572551 152.93021 
L 75.32443 153.80476 
L 75.067274 154.679309 
L 74.805889 155.553858 
L 74.544042 156.428408 
L 74.284368 157.302957 
L 74.028327 158.177506 
L 73.776197 159.052056 
L 73.527128 159.926605 
L 73.279253 160.801155 
L 73.029869 161.675704 
L 72.775676 162.550253 
L 72.513071 163.424803 
L 72.238465 164.299352 
L 71.94861 165.173901 
L 71.640902 166.048451 
L 71.31363 166.923 
L 70.966141 167.79755 
L 70.598918 168.672099 
L 70.213544 169.546648 
L 69.812575 170.421198 
L 69.399328 171.295747 
L 68.977607 172.170296 
L 68.551408 173.044846 
L 68.124625 173.919395 
L 67.700791 174.793945 
L 67.282879 175.668494 
L 66.873187 176.543043 
L 66.473293 177.417593 
L 66.084105 178.292142 
L 65.705968 179.166692 
L 65.338824 180.041241 
L 64.982404 180.91579 
L 64.636412 181.79034 
L 64.300696 182.664889 
L 63.975376 183.539438 
L 63.660918 184.413988 
L 63.358143 185.288537 
L 63.068183 186.163087 
L 62.792377 187.037636 
L 62.532129 187.912185 
L 62.288745 188.786735 
L 62.063258 189.661284 
L 61.856278 190.535833 
L 61.667866 191.410383 
L 61.49746 192.284932 
L 61.34385 193.159482 
L 61.205216 194.034031 
L 61.079216 194.90858 
L 60.963122 195.78313 
L 60.853994 196.657679 
L 60.748867 197.532228 
L 60.644944 198.406778 
L 60.539776 199.281327 
L 60.43141 200.155877 
L 60.3185 201.030426 
L 60.200368 201.904975 
L 60.07701 202.779525 
L 60.07701 202.779525 
z
" clip-path="url(#pf5f418550c)" style="fill: none; stroke: #000000; stroke-opacity: 0.3"/>
   </g>
   <g id="FillBetweenPolyCollection_3">
    <path d="M 58.75919 253.237157 
L 58.001649 253.237157 
L 57.998584 251.765379 
L 58.003059 250.293601 
L 58.012741 248.821823 
L 58.024663 247.350045 
L 58.03573 245.878267 
L 58.043258 244.406489 
L 58.045451 242.934711 
L 58.041709 241.462933 
L 58.032712 239.991155 
L 58.020261 238.519377 
L 58.006894 237.047599 
L 57.995364 235.57582 
L 57.988072 234.104042 
L 57.986571 232.632264 
L 57.991244 231.160486 
L 58.001206 229.688708 
L 58.014456 228.21693 
L 58.028237 226.745152 
L 58.039528 225.273374 
L 58.045546 223.801596 
L 58.044166 222.329818 
L 58.034135 220.85804 
L 58.015056 219.386261 
L 57.987111 217.914483 
L 57.950594 216.442705 
L 57.905342 214.970927 
L 57.850203 213.499149 
L 57.782662 212.027371 
L 57.698725 210.555593 
L 57.593107 209.083815 
L 57.459688 207.612037 
L 57.292137 206.140259 
L 57.084568 204.668481 
L 56.832076 203.196702 
L 56.531062 201.724924 
L 56.179306 200.253146 
L 55.775854 198.781368 
L 55.320847 197.30959 
L 54.815403 195.837812 
L 54.261687 194.366034 
L 53.663158 192.894256 
L 53.024941 191.422478 
L 52.354153 189.9507 
L 51.660036 188.478922 
L 50.953738 187.007144 
L 50.247725 185.535365 
L 49.554845 184.063587 
L 48.887208 182.591809 
L 48.25504 181.120031 
L 47.665657 179.648253 
L 47.122716 178.176475 
L 46.625772 176.704697 
L 46.170221 175.232919 
L 45.747655 173.761141 
L 45.346643 172.289363 
L 44.95399 170.817585 
L 44.556389 169.345806 
L 44.142383 167.874028 
L 43.704366 166.40225 
L 43.240345 164.930472 
L 42.755085 163.458694 
L 42.260364 161.986916 
L 41.774177 160.515138 
L 41.318895 159.04336 
L 40.918658 157.571582 
L 40.596388 156.099804 
L 40.370985 154.628026 
L 40.25519 153.156248 
L 40.254545 151.684469 
L 40.367599 150.212691 
L 40.587287 148.740913 
L 40.903133 147.269135 
L 41.303761 145.797357 
L 41.779143 144.325579 
L 42.322099 142.853801 
L 42.928754 141.382023 
L 43.597927 139.910245 
L 44.329675 138.438467 
L 45.123407 136.966689 
L 45.976049 135.49491 
L 46.880712 134.023132 
L 47.826133 132.551354 
L 48.796997 131.079576 
L 49.775003 129.607798 
L 50.740428 128.13602 
L 51.673853 126.664242 
L 52.557754 125.192464 
L 53.377721 123.720686 
L 54.123218 122.248908 
L 54.787862 120.77713 
L 55.36931 119.305351 
L 55.868859 117.833573 
L 56.290864 116.361795 
L 56.642056 114.890017 
L 56.930817 113.418239 
L 57.166442 111.946461 
L 57.358432 110.474683 
L 57.515834 109.002905 
L 57.646702 107.531127 
L 59.114137 107.531127 
L 59.114137 107.531127 
L 59.245006 109.002905 
L 59.402408 110.474683 
L 59.594397 111.946461 
L 59.830022 113.418239 
L 60.118783 114.890017 
L 60.469975 116.361795 
L 60.89198 117.833573 
L 61.391529 119.305351 
L 61.972977 120.77713 
L 62.637621 122.248908 
L 63.383118 123.720686 
L 64.203086 125.192464 
L 65.086986 126.664242 
L 66.020412 128.13602 
L 66.985836 129.607798 
L 67.963842 131.079576 
L 68.934706 132.551354 
L 69.880127 134.023132 
L 70.78479 135.49491 
L 71.637432 136.966689 
L 72.431164 138.438467 
L 73.162912 139.910245 
L 73.832085 141.382023 
L 74.43874 142.853801 
L 74.981696 144.325579 
L 75.457078 145.797357 
L 75.857706 147.269135 
L 76.173552 148.740913 
L 76.39324 150.212691 
L 76.506294 151.684469 
L 76.505649 153.156248 
L 76.389854 154.628026 
L 76.164451 156.099804 
L 75.842182 157.571582 
L 75.441944 159.04336 
L 74.986663 160.515138 
L 74.500475 161.986916 
L 74.005755 163.458694 
L 73.520494 164.930472 
L 73.056473 166.40225 
L 72.618456 167.874028 
L 72.20445 169.345806 
L 71.806849 170.817585 
L 71.414196 172.289363 
L 71.013184 173.761141 
L 70.590618 175.232919 
L 70.135068 176.704697 
L 69.638123 178.176475 
L 69.095182 179.648253 
L 68.5058 181.120031 
L 67.873631 182.591809 
L 67.205995 184.063587 
L 66.513114 185.535365 
L 65.807101 187.007144 
L 65.100803 188.478922 
L 64.406686 189.9507 
L 63.735898 191.422478 
L 63.097681 192.894256 
L 62.499152 194.366034 
L 61.945436 195.837812 
L 61.439992 197.30959 
L 60.984985 198.781368 
L 60.581534 200.253146 
L 60.229777 201.724924 
L 59.928763 203.196702 
L 59.676271 204.668481 
L 59.468702 206.140259 
L 59.301151 207.612037 
L 59.167732 209.083815 
L 59.062114 210.555593 
L 58.978177 212.027371 
L 58.910636 213.499149 
L 58.855497 214.970927 
L 58.810245 216.442705 
L 58.773728 217.914483 
L 58.745783 219.386261 
L 58.726704 220.85804 
L 58.716673 222.329818 
L 58.715293 223.801596 
L 58.721312 225.273374 
L 58.732602 226.745152 
L 58.746383 228.21693 
L 58.759633 229.688708 
L 58.769595 231.160486 
L 58.774268 232.632264 
L 58.772768 234.104042 
L 58.765475 235.57582 
L 58.753945 237.047599 
L 58.740578 238.519377 
L 58.728127 239.991155 
L 58.71913 241.462933 
L 58.715388 242.934711 
L 58.717581 244.406489 
L 58.725109 245.878267 
L 58.736176 247.350045 
L 58.748098 248.821823 
L 58.75778 250.293601 
L 58.762255 251.765379 
L 58.75919 253.237157 
L 58.75919 253.237157 
z
" clip-path="url(#pf5f418550c)" style="fill: none; stroke: #000000; stroke-opacity: 0.3"/>
   </g>
   <g id="FillBetweenPolyCollection_4">
    <path d="M 59.70026 219.903733 
L 57.060579 219.903733 
L 56.926401 218.176036 
L 56.784145 216.448339 
L 56.625097 214.720643 
L 56.438809 212.992946 
L 56.214469 211.265249 
L 55.942474 209.537552 
L 55.615901 207.809856 
L 55.231546 206.082159 
L 54.790274 204.354462 
L 54.296588 202.626765 
L 53.757481 200.899069 
L 53.180869 199.171372 
L 52.573975 197.443675 
L 51.942116 195.715978 
L 51.288219 193.988282 
L 50.613195 192.260585 
L 49.917082 190.532888 
L 49.200599 188.805191 
L 48.466634 187.077495 
L 47.721181 185.349798 
L 46.973401 183.622101 
L 46.23473 181.894404 
L 45.517263 180.166708 
L 44.831878 178.439011 
L 44.186663 176.711314 
L 43.586105 174.983617 
L 43.031304 173.255921 
L 42.521128 171.528224 
L 42.053943 169.800527 
L 41.629386 168.07283 
L 41.249623 166.345134 
L 40.919751 164.617437 
L 40.647233 162.88974 
L 40.440583 161.162043 
L 40.30773 159.434347 
L 40.254545 157.70665 
L 40.283953 155.978953 
L 40.395833 154.251256 
L 40.587681 152.52356 
L 40.855791 150.795863 
L 41.196581 149.068166 
L 41.607682 147.340469 
L 42.088486 145.612773 
L 42.640007 143.885076 
L 43.264072 142.157379 
L 43.962015 140.429682 
L 44.733138 138.701986 
L 45.573269 136.974289 
L 46.473695 135.246592 
L 47.420702 133.518895 
L 48.395833 131.791198 
L 49.376856 130.063502 
L 50.339352 128.335805 
L 51.258701 126.608108 
L 52.112235 124.880411 
L 52.881302 123.152715 
L 53.552963 121.425018 
L 54.121141 119.697321 
L 54.587055 117.969624 
L 54.958869 116.241928 
L 55.250572 114.514231 
L 55.480221 112.786534 
L 55.667744 111.058837 
L 55.832614 109.331141 
L 55.991714 107.603444 
L 56.157688 105.875747 
L 56.338006 104.14805 
L 56.534833 102.420354 
L 56.745656 100.692657 
L 56.964486 98.96496 
L 57.183377 97.237263 
L 57.393964 95.509567 
L 57.588787 93.78187 
L 57.762202 92.054173 
L 57.910835 90.326476 
L 58.0336 88.59878 
L 58.131375 86.871083 
L 58.206477 85.143386 
L 58.26207 83.415689 
L 58.301613 81.687993 
L 58.328412 79.960296 
L 58.345317 78.232599 
L 58.354553 76.504902 
L 58.357658 74.777206 
L 58.355523 73.049509 
L 58.348489 71.321812 
L 58.336487 69.594115 
L 58.319228 67.866419 
L 58.2964 66.138722 
L 58.267891 64.411025 
L 58.233992 62.683328 
L 58.195569 60.955632 
L 58.154146 59.227935 
L 58.111903 57.500238 
L 58.071528 55.772541 
L 58.035969 54.044845 
L 58.00809 52.317148 
L 57.99029 50.589451 
L 57.984169 48.861754 
L 58.77667 48.861754 
L 58.77667 48.861754 
L 58.770549 50.589451 
L 58.75275 52.317148 
L 58.72487 54.044845 
L 58.689311 55.772541 
L 58.648936 57.500238 
L 58.606693 59.227935 
L 58.565271 60.955632 
L 58.526847 62.683328 
L 58.492948 64.411025 
L 58.464439 66.138722 
L 58.441611 67.866419 
L 58.424352 69.594115 
L 58.41235 71.321812 
L 58.405316 73.049509 
L 58.403181 74.777206 
L 58.406286 76.504902 
L 58.415522 78.232599 
L 58.432428 79.960296 
L 58.459226 81.687993 
L 58.498769 83.415689 
L 58.554362 85.143386 
L 58.629464 86.871083 
L 58.727239 88.59878 
L 58.850004 90.326476 
L 58.998637 92.054173 
L 59.172052 93.78187 
L 59.366875 95.509567 
L 59.577463 97.237263 
L 59.796353 98.96496 
L 60.015183 100.692657 
L 60.226006 102.420354 
L 60.422833 104.14805 
L 60.603151 105.875747 
L 60.769125 107.603444 
L 60.928226 109.331141 
L 61.093095 111.058837 
L 61.280618 112.786534 
L 61.510267 114.514231 
L 61.801971 116.241928 
L 62.173784 117.969624 
L 62.639698 119.697321 
L 63.207876 121.425018 
L 63.879537 123.152715 
L 64.648604 124.880411 
L 65.502139 126.608108 
L 66.421487 128.335805 
L 67.383983 130.063502 
L 68.365006 131.791198 
L 69.340137 133.518895 
L 70.287144 135.246592 
L 71.18757 136.974289 
L 72.027701 138.701986 
L 72.798824 140.429682 
L 73.496767 142.157379 
L 74.120832 143.885076 
L 74.672353 145.612773 
L 75.153157 147.340469 
L 75.564258 149.068166 
L 75.905048 150.795863 
L 76.173158 152.52356 
L 76.365006 154.251256 
L 76.476886 155.978953 
L 76.506294 157.70665 
L 76.453109 159.434347 
L 76.320256 161.162043 
L 76.113606 162.88974 
L 75.841088 164.617437 
L 75.511216 166.345134 
L 75.131453 168.07283 
L 74.706896 169.800527 
L 74.239712 171.528224 
L 73.729535 173.255921 
L 73.174734 174.983617 
L 72.574176 176.711314 
L 71.928961 178.439011 
L 71.243577 180.166708 
L 70.526109 181.894404 
L 69.787438 183.622101 
L 69.039658 185.349798 
L 68.294206 187.077495 
L 67.56024 188.805191 
L 66.843757 190.532888 
L 66.147644 192.260585 
L 65.47262 193.988282 
L 64.818723 195.715978 
L 64.186865 197.443675 
L 63.57997 199.171372 
L 63.003358 200.899069 
L 62.464251 202.626765 
L 61.970565 204.354462 
L 61.529293 206.082159 
L 61.144938 207.809856 
L 60.818365 209.537552 
L 60.54637 211.265249 
L 60.32203 212.992946 
L 60.135742 214.720643 
L 59.976694 216.448339 
L 59.834438 218.176036 
L 59.70026 219.903733 
L 59.70026 219.903733 
z
" clip-path="url(#pf5f418550c)" style="fill: none; stroke: #000000; stroke-opacity: 0.3"/>
   </g>
   <g id="FillBetweenPolyCollection_5">
    <path d="M 59.800135 208.257211 
L 56.960704 208.257211 
L 56.807756 207.328969 
L 56.642121 206.400727 
L 56.463018 205.472485 
L 56.269801 204.544243 
L 56.06201 203.616001 
L 55.839421 202.687759 
L 55.602076 201.759517 
L 55.350305 200.831276 
L 55.084712 199.903034 
L 54.806151 198.974792 
L 54.515677 198.04655 
L 54.214478 197.118308 
L 53.903801 196.190066 
L 53.584876 195.261824 
L 53.258835 194.333582 
L 52.926661 193.40534 
L 52.589136 192.477098 
L 52.246833 191.548856 
L 51.900115 190.620614 
L 51.549171 189.692372 
L 51.194059 188.76413 
L 50.834766 187.835888 
L 50.471273 186.907646 
L 50.103606 185.979404 
L 49.731884 185.051162 
L 49.356339 184.12292 
L 48.977321 183.194678 
L 48.595278 182.266436 
L 48.210731 181.338195 
L 47.824226 180.409953 
L 47.4363 179.481711 
L 47.047454 178.553469 
L 46.65814 177.625227 
L 46.26878 176.696985 
L 45.879806 175.768743 
L 45.491726 174.840501 
L 45.105203 173.912259 
L 44.721146 172.984017 
L 44.340786 172.055775 
L 43.965739 171.127533 
L 43.598025 170.199291 
L 43.240051 169.271049 
L 42.894537 168.342807 
L 42.564402 167.414565 
L 42.2526 166.486323 
L 41.961928 165.558081 
L 41.694831 164.629839 
L 41.453205 163.701597 
L 41.238236 162.773355 
L 41.050294 161.845114 
L 40.888885 160.916872 
L 40.752682 159.98863 
L 40.639632 159.060388 
L 40.547135 158.132146 
L 40.47228 157.203904 
L 40.412115 156.275662 
L 40.363928 155.34742 
L 40.325521 154.419178 
L 40.295432 153.490936 
L 40.27311 152.562694 
L 40.258999 151.634452 
L 40.254545 150.70621 
L 40.262117 149.777968 
L 40.284845 148.849726 
L 40.326405 147.921484 
L 40.39075 146.993242 
L 40.481833 146.065 
L 40.603319 145.136758 
L 40.758338 144.208516 
L 40.949265 143.280274 
L 41.177567 142.352033 
L 41.4437 141.423791 
L 41.747083 140.495549 
L 42.086116 139.567307 
L 42.458265 138.639065 
L 42.860182 137.710823 
L 43.287865 136.782581 
L 43.73683 135.854339 
L 44.202309 134.926097 
L 44.679442 133.997855 
L 45.16347 133.069613 
L 45.649919 132.141371 
L 46.134759 131.213129 
L 46.614552 130.284887 
L 47.086559 129.356645 
L 47.548821 128.428403 
L 48.000195 127.500161 
L 48.440345 126.571919 
L 48.869696 125.643677 
L 49.289333 124.715435 
L 49.700862 123.787193 
L 50.106243 122.858952 
L 50.507592 121.93071 
L 50.90698 121.002468 
L 51.306232 120.074226 
L 51.706745 119.145984 
L 52.109343 118.217742 
L 52.514174 117.2895 
L 52.920658 116.361258 
L 63.840181 116.361258 
L 63.840181 116.361258 
L 64.246665 117.2895 
L 64.651497 118.217742 
L 65.054095 119.145984 
L 65.454607 120.074226 
L 65.853859 121.002468 
L 66.253247 121.93071 
L 66.654597 122.858952 
L 67.059977 123.787193 
L 67.471506 124.715435 
L 67.891143 125.643677 
L 68.320494 126.571919 
L 68.760645 127.500161 
L 69.212018 128.428403 
L 69.67428 129.356645 
L 70.146287 130.284887 
L 70.62608 131.213129 
L 71.11092 132.141371 
L 71.597369 133.069613 
L 72.081397 133.997855 
L 72.55853 134.926097 
L 73.024009 135.854339 
L 73.472974 136.782581 
L 73.900657 137.710823 
L 74.302574 138.639065 
L 74.674723 139.567307 
L 75.013756 140.495549 
L 75.317139 141.423791 
L 75.583272 142.352033 
L 75.811574 143.280274 
L 76.002501 144.208516 
L 76.15752 145.136758 
L 76.279006 146.065 
L 76.370089 146.993242 
L 76.434434 147.921484 
L 76.475994 148.849726 
L 76.498722 149.777968 
L 76.506294 150.70621 
L 76.50184 151.634452 
L 76.487729 152.562694 
L 76.465407 153.490936 
L 76.435319 154.419178 
L 76.396911 155.34742 
L 76.348725 156.275662 
L 76.288559 157.203904 
L 76.213704 158.132146 
L 76.121208 159.060388 
L 76.008157 159.98863 
L 75.871954 160.916872 
L 75.710545 161.845114 
L 75.522603 162.773355 
L 75.307635 163.701597 
L 75.066008 164.629839 
L 74.798911 165.558081 
L 74.508239 166.486323 
L 74.196437 167.414565 
L 73.866302 168.342807 
L 73.520788 169.271049 
L 73.162814 170.199291 
L 72.7951 171.127533 
L 72.420053 172.055775 
L 72.039693 172.984017 
L 71.655636 173.912259 
L 71.269113 174.840501 
L 70.881033 175.768743 
L 70.492059 176.696985 
L 70.102699 177.625227 
L 69.713385 178.553469 
L 69.324539 179.481711 
L 68.936613 180.409953 
L 68.550108 181.338195 
L 68.165561 182.266436 
L 67.783518 183.194678 
L 67.4045 184.12292 
L 67.028955 185.051162 
L 66.657233 185.979404 
L 66.289567 186.907646 
L 65.926073 187.835888 
L 65.56678 188.76413 
L 65.211668 189.692372 
L 64.860724 190.620614 
L 64.514006 191.548856 
L 64.171703 192.477098 
L 63.834179 193.40534 
L 63.502004 194.333582 
L 63.175963 195.261824 
L 62.857038 196.190066 
L 62.546362 197.118308 
L 62.245162 198.04655 
L 61.954688 198.974792 
L 61.676127 199.903034 
L 61.410534 200.831276 
L 61.158763 201.759517 
L 60.921418 202.687759 
L 60.698829 203.616001 
L 60.491038 204.544243 
L 60.297821 205.472485 
L 60.118718 206.400727 
L 59.953083 207.328969 
L 59.800135 208.257211 
L 59.800135 208.257211 
z
" clip-path="url(#pf5f418550c)" style="fill: none; stroke: #000000; stroke-opacity: 0.3"/>
   </g>
   <g id="FillBetweenPolyCollection_6">
    <path d="M 59.307658 307.76523 
L 57.453181 307.76523 
L 57.459628 305.860725 
L 57.478703 303.956221 
L 57.50962 302.051717 
L 57.551131 300.147213 
L 57.601608 298.242708 
L 57.659149 296.338204 
L 57.721695 294.4337 
L 57.787155 292.529195 
L 57.853515 290.624691 
L 57.918937 288.720187 
L 57.981837 286.815683 
L 58.040935 284.911178 
L 58.095277 283.006674 
L 58.14424 281.10217 
L 58.187504 279.197665 
L 58.225026 277.293161 
L 58.256981 275.388657 
L 58.283719 273.484152 
L 58.305706 271.579648 
L 58.323478 269.675144 
L 58.337597 267.77064 
L 58.348617 265.866135 
L 58.357054 263.961631 
L 58.363368 262.057127 
L 58.367952 260.152622 
L 58.37112 258.248118 
L 58.373103 256.343614 
L 58.374046 254.43911 
L 58.374001 252.534605 
L 58.372921 250.630101 
L 58.370648 248.725597 
L 58.366899 246.821092 
L 58.361247 244.916588 
L 58.353093 243.012084 
L 58.341634 241.10758 
L 58.325836 239.203075 
L 58.30439 237.298571 
L 58.275683 235.394067 
L 58.237761 233.489562 
L 58.188308 231.585058 
L 58.124631 229.680554 
L 58.043665 227.776049 
L 57.942 225.871545 
L 57.815931 223.967041 
L 57.661541 222.062537 
L 57.474813 220.158032 
L 57.251773 218.253528 
L 56.988664 216.349024 
L 56.682133 214.444519 
L 56.329439 212.540015 
L 55.928656 210.635511 
L 55.478859 208.731007 
L 54.980282 206.826502 
L 54.434426 204.921998 
L 53.844113 203.017494 
L 53.213457 201.112989 
L 52.547768 199.208485 
L 51.853382 197.303981 
L 51.137416 195.399476 
L 50.407478 193.494972 
L 49.671339 191.590468 
L 48.936608 189.685964 
L 48.210415 187.781459 
L 47.499151 185.876955 
L 46.808264 183.972451 
L 46.142147 182.067946 
L 45.504116 180.163442 
L 44.896472 178.258938 
L 44.320654 176.354434 
L 43.777454 174.449929 
L 43.267277 172.545425 
L 42.790419 170.640921 
L 42.347344 168.736416 
L 41.938928 166.831912 
L 41.566661 164.927408 
L 41.232778 163.022903 
L 40.940323 161.118399 
L 40.693131 159.213895 
L 40.495742 157.309391 
L 40.353238 155.404886 
L 40.271021 153.500382 
L 40.254545 151.595878 
L 40.309016 149.691373 
L 40.439069 147.786869 
L 40.648453 145.882365 
L 40.939736 143.977861 
L 41.314039 142.073356 
L 41.770835 140.168852 
L 42.307809 138.264348 
L 42.920796 136.359843 
L 43.60381 134.455339 
L 44.349151 132.550835 
L 45.147596 130.646331 
L 45.988665 128.741826 
L 46.860941 126.837322 
L 47.752434 124.932818 
L 48.650966 123.028313 
L 49.544554 121.123809 
L 50.421787 119.219305 
L 66.339052 119.219305 
L 66.339052 119.219305 
L 67.216285 121.123809 
L 68.109874 123.028313 
L 69.008405 124.932818 
L 69.899898 126.837322 
L 70.772174 128.741826 
L 71.613243 130.646331 
L 72.411688 132.550835 
L 73.157029 134.455339 
L 73.840043 136.359843 
L 74.45303 138.264348 
L 74.990004 140.168852 
L 75.4468 142.073356 
L 75.821103 143.977861 
L 76.112386 145.882365 
L 76.32177 147.786869 
L 76.451823 149.691373 
L 76.506294 151.595878 
L 76.489818 153.500382 
L 76.407601 155.404886 
L 76.265097 157.309391 
L 76.067708 159.213895 
L 75.820516 161.118399 
L 75.528061 163.022903 
L 75.194178 164.927408 
L 74.821911 166.831912 
L 74.413495 168.736416 
L 73.97042 170.640921 
L 73.493562 172.545425 
L 72.983385 174.449929 
L 72.440185 176.354434 
L 71.864367 178.258938 
L 71.256723 180.163442 
L 70.618692 182.067946 
L 69.952575 183.972451 
L 69.261688 185.876955 
L 68.550424 187.781459 
L 67.824231 189.685964 
L 67.0895 191.590468 
L 66.353361 193.494972 
L 65.623423 195.399476 
L 64.907457 197.303981 
L 64.213071 199.208485 
L 63.547383 201.112989 
L 62.916726 203.017494 
L 62.326413 204.921998 
L 61.780558 206.826502 
L 61.28198 208.731007 
L 60.832183 210.635511 
L 60.4314 212.540015 
L 60.078706 214.444519 
L 59.772175 216.349024 
L 59.509066 218.253528 
L 59.286026 220.158032 
L 59.099298 222.062537 
L 58.944908 223.967041 
L 58.818839 225.871545 
L 58.717174 227.776049 
L 58.636208 229.680554 
L 58.572531 231.585058 
L 58.523078 233.489562 
L 58.485156 235.394067 
L 58.456449 237.298571 
L 58.435004 239.203075 
L 58.419205 241.10758 
L 58.407747 243.012084 
L 58.399592 244.916588 
L 58.39394 246.821092 
L 58.390192 248.725597 
L 58.387919 250.630101 
L 58.386838 252.534605 
L 58.386793 254.43911 
L 58.387736 256.343614 
L 58.389719 258.248118 
L 58.392887 260.152622 
L 58.397471 262.057127 
L 58.403786 263.961631 
L 58.412222 265.866135 
L 58.423242 267.77064 
L 58.437361 269.675144 
L 58.455133 271.579648 
L 58.47712 273.484152 
L 58.503858 275.388657 
L 58.535813 277.293161 
L 58.573335 279.197665 
L 58.6166 281.10217 
L 58.665562 283.006674 
L 58.719904 284.911178 
L 58.779002 286.815683 
L 58.841902 288.720187 
L 58.907324 290.624691 
L 58.973684 292.529195 
L 59.039144 294.4337 
L 59.101691 296.338204 
L 59.159231 298.242708 
L 59.209708 300.147213 
L 59.251219 302.051717 
L 59.282136 303.956221 
L 59.301211 305.860725 
L 59.307658 307.76523 
L 59.307658 307.76523 
z
" clip-path="url(#pf5f418550c)" style="fill: none; stroke: #000000; stroke-opacity: 0.3"/>
   </g>
   <g id="FillBetweenPolyCollection_7">
    <path d="M 63.411043 192.121581 
L 53.349796 192.121581 
L 52.50359 190.434248 
L 51.585269 188.746915 
L 50.603952 187.059582 
L 49.572229 185.372249 
L 48.50602 183.684916 
L 47.424187 181.997583 
L 46.347902 180.31025 
L 45.299785 178.622917 
L 44.30287 176.935584 
L 43.379482 175.248251 
L 42.550111 173.560918 
L 41.832387 171.873585 
L 41.240251 170.186252 
L 40.783393 168.498919 
L 40.467 166.811586 
L 40.291825 165.124253 
L 40.254545 163.43692 
L 40.348361 161.749587 
L 40.563738 160.062254 
L 40.88922 158.374921 
L 41.312224 156.687588 
L 41.819734 155.000255 
L 42.398866 153.312922 
L 43.037266 151.625589 
L 43.723344 149.938256 
L 44.446378 148.250923 
L 45.196514 146.56359 
L 45.964699 144.876257 
L 46.742601 143.188924 
L 47.522526 141.501591 
L 48.297376 139.814258 
L 49.06063 138.126925 
L 49.806361 136.439592 
L 50.529276 134.752259 
L 51.22475 133.064926 
L 51.888863 131.377593 
L 52.5184 129.69026 
L 53.110833 128.002927 
L 53.664269 126.315594 
L 54.177375 124.628261 
L 54.649304 122.940928 
L 55.079612 121.253595 
L 55.468203 119.566262 
L 55.815288 117.878929 
L 56.121381 116.191596 
L 56.387322 114.504263 
L 56.614309 112.81693 
L 56.803951 111.129597 
L 56.958304 109.442264 
L 57.079895 107.754931 
L 57.171712 106.067598 
L 57.237167 104.380265 
L 57.280014 102.692932 
L 57.304248 101.005599 
L 57.313974 99.318266 
L 57.31327 97.630933 
L 57.306052 95.9436 
L 57.295946 94.256267 
L 57.286189 92.568934 
L 57.279549 90.881601 
L 57.278271 89.194268 
L 57.284059 87.506935 
L 57.298068 85.819602 
L 57.320919 84.132269 
L 57.35273 82.444936 
L 57.393156 80.757603 
L 57.441429 79.07027 
L 57.496415 77.382937 
L 57.556669 75.695604 
L 57.620504 74.008271 
L 57.686055 72.320938 
L 57.751356 70.633605 
L 57.814424 68.946272 
L 57.87333 67.258939 
L 57.926287 65.571606 
L 57.971714 63.884273 
L 58.008305 62.19694 
L 58.035081 60.509607 
L 58.051429 58.822274 
L 58.057125 57.134941 
L 58.052343 55.447608 
L 58.037649 53.760275 
L 58.013976 52.072942 
L 57.982587 50.385609 
L 57.945021 48.698276 
L 57.903031 47.010943 
L 57.858512 45.32361 
L 57.813424 43.636277 
L 57.769714 41.948944 
L 57.729237 40.261611 
L 57.693691 38.574278 
L 57.664551 36.886945 
L 57.643027 35.199612 
L 57.630018 33.512279 
L 57.626094 31.824946 
L 57.631483 30.137613 
L 57.646071 28.45028 
L 57.669416 26.762947 
L 57.700773 25.075614 
L 59.060066 25.075614 
L 59.060066 25.075614 
L 59.091423 26.762947 
L 59.114768 28.45028 
L 59.129356 30.137613 
L 59.134745 31.824946 
L 59.130822 33.512279 
L 59.117812 35.199612 
L 59.096288 36.886945 
L 59.067148 38.574278 
L 59.031602 40.261611 
L 58.991125 41.948944 
L 58.947415 43.636277 
L 58.902327 45.32361 
L 58.857809 47.010943 
L 58.815818 48.698276 
L 58.778252 50.385609 
L 58.746863 52.072942 
L 58.72319 53.760275 
L 58.708496 55.447608 
L 58.703715 57.134941 
L 58.70941 58.822274 
L 58.725758 60.509607 
L 58.752534 62.19694 
L 58.789125 63.884273 
L 58.834552 65.571606 
L 58.887509 67.258939 
L 58.946415 68.946272 
L 59.009483 70.633605 
L 59.074784 72.320938 
L 59.140335 74.008271 
L 59.20417 75.695604 
L 59.264425 77.382937 
L 59.31941 79.07027 
L 59.367683 80.757603 
L 59.408109 82.444936 
L 59.43992 84.132269 
L 59.462771 85.819602 
L 59.47678 87.506935 
L 59.482568 89.194268 
L 59.48129 90.881601 
L 59.47465 92.568934 
L 59.464893 94.256267 
L 59.454787 95.9436 
L 59.447569 97.630933 
L 59.446865 99.318266 
L 59.456591 101.005599 
L 59.480825 102.692932 
L 59.523673 104.380265 
L 59.589127 106.067598 
L 59.680944 107.754931 
L 59.802535 109.442264 
L 59.956888 111.129597 
L 60.14653 112.81693 
L 60.373517 114.504263 
L 60.639458 116.191596 
L 60.945551 117.878929 
L 61.292636 119.566262 
L 61.681227 121.253595 
L 62.111535 122.940928 
L 62.583464 124.628261 
L 63.096571 126.315594 
L 63.650006 128.002927 
L 64.242439 129.69026 
L 64.871977 131.377593 
L 65.536089 133.064926 
L 66.231564 134.752259 
L 66.954478 136.439592 
L 67.700209 138.126925 
L 68.463463 139.814258 
L 69.238313 141.501591 
L 70.018238 143.188924 
L 70.79614 144.876257 
L 71.564325 146.56359 
L 72.314461 148.250923 
L 73.037496 149.938256 
L 73.723573 151.625589 
L 74.361973 153.312922 
L 74.941106 155.000255 
L 75.448616 156.687588 
L 75.871619 158.374921 
L 76.197102 160.062254 
L 76.412478 161.749587 
L 76.506294 163.43692 
L 76.469014 165.124253 
L 76.293839 166.811586 
L 75.977446 168.498919 
L 75.520588 170.186252 
L 74.928452 171.873585 
L 74.210728 173.560918 
L 73.381357 175.248251 
L 72.457969 176.935584 
L 71.461054 178.622917 
L 70.412937 180.31025 
L 69.336652 181.997583 
L 68.254819 183.684916 
L 67.18861 185.372249 
L 66.156887 187.059582 
L 65.17557 188.746915 
L 64.257249 190.434248 
L 63.411043 192.121581 
L 63.411043 192.121581 
z
" clip-path="url(#pf5f418550c)" style="fill: none; stroke: #000000; stroke-opacity: 0.3"/>
   </g>
   <g id="FillBetweenPolyCollection_8">
    <path d="M 119.26702 200.356849 
L 118.33298 200.356849 
L 118.333707 199.25767 
L 118.341897 198.158492 
L 118.356006 197.059313 
L 118.373836 195.960134 
L 118.392657 194.860955 
L 118.409351 193.761777 
L 118.420588 192.662598 
L 118.422989 191.563419 
L 118.413284 190.46424 
L 118.38845 189.365062 
L 118.345816 188.265883 
L 118.283157 187.166704 
L 118.198774 186.067526 
L 118.091556 184.968347 
L 117.961047 183.869168 
L 117.807501 182.769989 
L 117.631921 181.670811 
L 117.436078 180.571632 
L 117.222467 179.472453 
L 116.994214 178.373274 
L 116.754893 177.274096 
L 116.508258 176.174917 
L 116.257902 175.075738 
L 116.006871 173.976559 
L 115.757266 172.877381 
L 115.509894 171.778202 
L 115.264028 170.679023 
L 115.017316 169.579844 
L 114.765882 168.480666 
L 114.504623 167.381487 
L 114.227687 166.282308 
L 113.929072 165.18313 
L 113.603298 164.083951 
L 113.24605 162.984772 
L 112.854724 161.885593 
L 112.428814 160.786415 
L 111.970081 159.687236 
L 111.482499 158.588057 
L 110.971979 157.488878 
L 110.445911 156.3897 
L 109.912575 155.290521 
L 109.380477 154.191342 
L 108.857686 153.092163 
L 108.351215 151.992985 
L 107.866521 150.893806 
L 107.407131 149.794627 
L 106.974444 148.695448 
L 106.567702 147.59627 
L 106.184132 146.497091 
L 105.819252 145.397912 
L 105.46732 144.298734 
L 105.121895 143.199555 
L 104.776494 142.100376 
L 104.425299 141.001197 
L 104.063866 139.902019 
L 103.689798 138.80284 
L 103.303317 137.703661 
L 102.907657 136.604482 
L 102.509245 135.505304 
L 102.117594 134.406125 
L 101.7449 133.306946 
L 101.40534 132.207767 
L 101.114117 131.108589 
L 100.886339 130.00941 
L 100.735849 128.910231 
L 100.674126 127.811053 
L 100.709406 126.711874 
L 100.846118 125.612695 
L 101.084694 124.513516 
L 101.421783 123.414338 
L 101.850791 122.315159 
L 102.362673 121.21598 
L 102.946829 120.116801 
L 103.591981 119.017623 
L 104.286907 117.918444 
L 105.020942 116.819265 
L 105.784236 115.720086 
L 106.567762 114.620908 
L 107.363171 113.521729 
L 108.16255 112.42255 
L 108.958196 111.323371 
L 109.742473 110.224193 
L 110.507811 109.125014 
L 111.246845 108.025835 
L 111.952677 106.926657 
L 112.619214 105.827478 
L 113.241517 104.728299 
L 113.816095 103.62912 
L 114.341095 102.529942 
L 114.816359 101.430763 
L 115.243336 100.331584 
L 115.624864 99.232405 
L 115.964845 98.133227 
L 116.267867 97.034048 
L 116.538807 95.934869 
L 116.78245 94.83569 
L 117.003183 93.736512 
L 117.204754 92.637333 
L 117.390142 91.538154 
L 120.209858 91.538154 
L 120.209858 91.538154 
L 120.395246 92.637333 
L 120.596817 93.736512 
L 120.81755 94.83569 
L 121.061193 95.934869 
L 121.332133 97.034048 
L 121.635155 98.133227 
L 121.975136 99.232405 
L 122.356664 100.331584 
L 122.783641 101.430763 
L 123.258905 102.529942 
L 123.783905 103.62912 
L 124.358483 104.728299 
L 124.980786 105.827478 
L 125.647323 106.926657 
L 126.353155 108.025835 
L 127.092189 109.125014 
L 127.857527 110.224193 
L 128.641804 111.323371 
L 129.43745 112.42255 
L 130.236829 113.521729 
L 131.032238 114.620908 
L 131.815764 115.720086 
L 132.579058 116.819265 
L 133.313093 117.918444 
L 134.008019 119.017623 
L 134.653171 120.116801 
L 135.237327 121.21598 
L 135.749209 122.315159 
L 136.178217 123.414338 
L 136.515306 124.513516 
L 136.753882 125.612695 
L 136.890594 126.711874 
L 136.925874 127.811053 
L 136.864151 128.910231 
L 136.713661 130.00941 
L 136.485883 131.108589 
L 136.19466 132.207767 
L 135.8551 133.306946 
L 135.482406 134.406125 
L 135.090755 135.505304 
L 134.692343 136.604482 
L 134.296683 137.703661 
L 133.910202 138.80284 
L 133.536134 139.902019 
L 133.174701 141.001197 
L 132.823506 142.100376 
L 132.478105 143.199555 
L 132.13268 144.298734 
L 131.780748 145.397912 
L 131.415868 146.497091 
L 131.032298 147.59627 
L 130.625556 148.695448 
L 130.192869 149.794627 
L 129.733479 150.893806 
L 129.248785 151.992985 
L 128.742314 153.092163 
L 128.219523 154.191342 
L 127.687425 155.290521 
L 127.154089 156.3897 
L 126.628021 157.488878 
L 126.117501 158.588057 
L 125.629919 159.687236 
L 125.171186 160.786415 
L 124.745276 161.885593 
L 124.35395 162.984772 
L 123.996702 164.083951 
L 123.670928 165.18313 
L 123.372313 166.282308 
L 123.095377 167.381487 
L 122.834118 168.480666 
L 122.582684 169.579844 
L 122.335972 170.679023 
L 122.090106 171.778202 
L 121.842734 172.877381 
L 121.593129 173.976559 
L 121.342098 175.075738 
L 121.091742 176.174917 
L 120.845107 177.274096 
L 120.605786 178.373274 
L 120.377533 179.472453 
L 120.163922 180.571632 
L 119.968079 181.670811 
L 119.792499 182.769989 
L 119.638953 183.869168 
L 119.508444 184.968347 
L 119.401226 186.067526 
L 119.316843 187.166704 
L 119.254184 188.265883 
L 119.21155 189.365062 
L 119.186716 190.46424 
L 119.177011 191.563419 
L 119.179412 192.662598 
L 119.190649 193.761777 
L 119.207343 194.860955 
L 119.226164 195.960134 
L 119.243994 197.059313 
L 119.258103 198.158492 
L 119.266293 199.25767 
L 119.26702 200.356849 
L 119.26702 200.356849 
z
" clip-path="url(#pf5f418550c)" style="fill: none; stroke: #000000; stroke-opacity: 0.3"/>
   </g>
   <g id="FillBetweenPolyCollection_9">
    <path d="M 119.158697 236.219274 
L 118.441303 236.219274 
L 118.44831 234.568632 
L 118.468521 232.917989 
L 118.499658 231.267347 
L 118.538398 229.616704 
L 118.580957 227.966062 
L 118.623688 226.315419 
L 118.663573 224.664777 
L 118.69852 223.014134 
L 118.727435 221.363492 
L 118.750118 219.71285 
L 118.767036 218.062207 
L 118.779055 216.411565 
L 118.787196 214.760922 
L 118.792451 213.11028 
L 118.795662 211.459637 
L 118.797468 209.808995 
L 118.798285 208.158352 
L 118.798302 206.50771 
L 118.797465 204.857067 
L 118.795438 203.206425 
L 118.791525 201.555782 
L 118.784558 199.90514 
L 118.772758 198.254498 
L 118.753597 196.603855 
L 118.723717 194.953213 
L 118.678942 193.30257 
L 118.614463 191.651928 
L 118.525233 190.001285 
L 118.406583 188.350643 
L 118.254997 186.7 
L 118.068943 185.049358 
L 117.849542 183.398715 
L 117.600899 181.748073 
L 117.329857 180.09743 
L 117.045088 178.446788 
L 116.755524 176.796146 
L 116.468329 175.145503 
L 116.186754 173.494861 
L 115.908336 171.844218 
L 115.623909 170.193576 
L 115.317786 168.542933 
L 114.969265 166.892291 
L 114.555348 165.241648 
L 114.054276 163.591006 
L 113.449328 161.940363 
L 112.732218 160.289721 
L 111.90554 158.639079 
L 110.983808 156.988436 
L 109.992882 155.337794 
L 108.967728 153.687151 
L 107.948679 152.036509 
L 106.976561 150.385866 
L 106.08727 148.735224 
L 105.306644 147.084581 
L 104.646606 145.433939 
L 104.103519 143.783296 
L 103.659387 142.132654 
L 103.285951 140.482011 
L 102.951019 138.831369 
L 102.625712 137.180727 
L 102.290992 135.530084 
L 101.941922 133.879442 
L 101.588709 132.228799 
L 101.254358 130.578157 
L 100.969685 128.927514 
L 100.767015 127.276872 
L 100.674126 125.626229 
L 100.70981 123.975587 
L 100.881853 122.324944 
L 101.18759 120.674302 
L 101.616515 119.02366 
L 102.154047 117.373017 
L 102.785321 115.722375 
L 103.49807 114.071732 
L 104.283927 112.42109 
L 105.138006 110.770447 
L 106.056986 109.119805 
L 107.03637 107.469162 
L 108.067663 105.81852 
L 109.136299 104.167877 
L 110.220866 102.517235 
L 111.293941 100.866592 
L 112.324451 99.21595 
L 113.28115 97.565308 
L 114.136558 95.914665 
L 114.870596 94.264023 
L 115.473199 92.61338 
L 115.945407 90.962738 
L 116.298724 89.312095 
L 116.552931 87.661453 
L 116.732804 86.01081 
L 116.86441 84.360168 
L 116.971674 82.709525 
L 117.073779 81.058883 
L 117.183734 79.40824 
L 117.308155 77.757598 
L 117.448053 76.106956 
L 117.600265 74.456313 
L 117.759125 72.805671 
L 119.840875 72.805671 
L 119.840875 72.805671 
L 119.999735 74.456313 
L 120.151947 76.106956 
L 120.291845 77.757598 
L 120.416266 79.40824 
L 120.526221 81.058883 
L 120.628326 82.709525 
L 120.73559 84.360168 
L 120.867196 86.01081 
L 121.047069 87.661453 
L 121.301276 89.312095 
L 121.654593 90.962738 
L 122.126801 92.61338 
L 122.729404 94.264023 
L 123.463442 95.914665 
L 124.31885 97.565308 
L 125.275549 99.21595 
L 126.306059 100.866592 
L 127.379134 102.517235 
L 128.463701 104.167877 
L 129.532337 105.81852 
L 130.56363 107.469162 
L 131.543014 109.119805 
L 132.461994 110.770447 
L 133.316073 112.42109 
L 134.10193 114.071732 
L 134.814679 115.722375 
L 135.445953 117.373017 
L 135.983485 119.02366 
L 136.41241 120.674302 
L 136.718147 122.324944 
L 136.89019 123.975587 
L 136.925874 125.626229 
L 136.832985 127.276872 
L 136.630315 128.927514 
L 136.345642 130.578157 
L 136.011291 132.228799 
L 135.658078 133.879442 
L 135.309008 135.530084 
L 134.974288 137.180727 
L 134.648981 138.831369 
L 134.314049 140.482011 
L 133.940613 142.132654 
L 133.496481 143.783296 
L 132.953394 145.433939 
L 132.293356 147.084581 
L 131.51273 148.735224 
L 130.623439 150.385866 
L 129.651321 152.036509 
L 128.632272 153.687151 
L 127.607118 155.337794 
L 126.616192 156.988436 
L 125.69446 158.639079 
L 124.867782 160.289721 
L 124.150672 161.940363 
L 123.545724 163.591006 
L 123.044652 165.241648 
L 122.630735 166.892291 
L 122.282214 168.542933 
L 121.976091 170.193576 
L 121.691664 171.844218 
L 121.413246 173.494861 
L 121.131671 175.145503 
L 120.844476 176.796146 
L 120.554912 178.446788 
L 120.270143 180.09743 
L 119.999101 181.748073 
L 119.750458 183.398715 
L 119.531057 185.049358 
L 119.345003 186.7 
L 119.193417 188.350643 
L 119.074767 190.001285 
L 118.985537 191.651928 
L 118.921058 193.30257 
L 118.876283 194.953213 
L 118.846403 196.603855 
L 118.827242 198.254498 
L 118.815442 199.90514 
L 118.808475 201.555782 
L 118.804562 203.206425 
L 118.802535 204.857067 
L 118.801698 206.50771 
L 118.801715 208.158352 
L 118.802532 209.808995 
L 118.804338 211.459637 
L 118.807549 213.11028 
L 118.812804 214.760922 
L 118.820945 216.411565 
L 118.832964 218.062207 
L 118.849882 219.71285 
L 118.872565 221.363492 
L 118.90148 223.014134 
L 118.936427 224.664777 
L 118.976312 226.315419 
L 119.019043 227.966062 
L 119.061602 229.616704 
L 119.100342 231.267347 
L 119.131479 232.917989 
L 119.15169 234.568632 
L 119.158697 236.219274 
L 119.158697 236.219274 
z
" clip-path="url(#pf5f418550c)" style="fill: none; stroke: #000000; stroke-opacity: 0.3"/>
   </g>
   <g id="FillBetweenPolyCollection_10">
    <path d="M 119.271 182.46995 
L 118.329 182.46995 
L 118.316436 181.478928 
L 118.305296 180.487905 
L 118.29293 179.496883 
L 118.275975 178.50586 
L 118.250485 177.514838 
L 118.212127 176.523816 
L 118.156422 175.532793 
L 118.079035 174.541771 
L 117.976067 173.550748 
L 117.844363 172.559726 
L 117.681776 171.568703 
L 117.487389 170.577681 
L 117.261656 169.586659 
L 117.006442 168.595636 
L 116.724953 167.604614 
L 116.421547 166.613591 
L 116.101434 165.622569 
L 115.770286 164.631546 
L 115.433796 163.640524 
L 115.097218 162.649502 
L 114.764944 161.658479 
L 114.440164 160.667457 
L 114.124632 159.676434 
L 113.818575 158.685412 
L 113.520733 157.694389 
L 113.228536 156.703367 
L 112.938358 155.712344 
L 112.64584 154.721322 
L 112.346216 153.7303 
L 112.034625 152.739277 
L 111.706372 151.748255 
L 111.357135 150.757232 
L 110.983134 149.76621 
L 110.581262 148.775187 
L 110.149228 147.784165 
L 109.685703 146.793143 
L 109.19051 145.80212 
L 108.664816 144.811098 
L 108.111327 143.820075 
L 107.534432 142.829053 
L 106.940245 141.83803 
L 106.336499 140.847008 
L 105.732273 139.855986 
L 105.137526 138.864963 
L 104.562479 137.873941 
L 104.016895 136.882918 
L 103.509338 135.891896 
L 103.046508 134.900873 
L 102.632745 133.909851 
L 102.269775 132.918829 
L 101.956747 131.927806 
L 101.690563 130.936784 
L 101.466458 129.945761 
L 101.278774 128.954739 
L 101.121807 127.963716 
L 100.990642 126.972694 
L 100.881852 125.981672 
L 100.793989 124.990649 
L 100.727823 123.999627 
L 100.686278 123.008604 
L 100.674126 122.017582 
L 100.697437 121.026559 
L 100.762896 120.035537 
L 100.877037 119.044515 
L 101.045489 118.053492 
L 101.272326 117.06247 
L 101.559553 116.071447 
L 101.906817 115.080425 
L 102.311327 114.089402 
L 102.768017 113.09838 
L 103.269902 112.107357 
L 103.808606 111.116335 
L 104.374983 110.125313 
L 104.959774 109.13429 
L 105.554229 108.143268 
L 106.150621 107.152245 
L 106.742624 106.161223 
L 107.325504 105.1702 
L 107.896141 104.179178 
L 108.45288 103.188156 
L 108.99527 102.197133 
L 109.523716 101.206111 
L 110.039122 100.215088 
L 110.542549 99.224066 
L 111.03495 98.233043 
L 111.516987 97.242021 
L 111.988939 96.250999 
L 112.450703 95.259976 
L 112.901843 94.268954 
L 113.341683 93.277931 
L 113.769403 92.286909 
L 114.184119 91.295886 
L 114.58494 90.304864 
L 114.970988 89.313842 
L 115.341395 88.322819 
L 115.695287 87.331797 
L 116.031766 86.340774 
L 116.349903 85.349752 
L 116.648758 84.358729 
L 120.951242 84.358729 
L 120.951242 84.358729 
L 121.250097 85.349752 
L 121.568234 86.340774 
L 121.904713 87.331797 
L 122.258605 88.322819 
L 122.629012 89.313842 
L 123.01506 90.304864 
L 123.415881 91.295886 
L 123.830597 92.286909 
L 124.258317 93.277931 
L 124.698157 94.268954 
L 125.149297 95.259976 
L 125.611061 96.250999 
L 126.083013 97.242021 
L 126.56505 98.233043 
L 127.057451 99.224066 
L 127.560878 100.215088 
L 128.076284 101.206111 
L 128.60473 102.197133 
L 129.14712 103.188156 
L 129.703859 104.179178 
L 130.274496 105.1702 
L 130.857376 106.161223 
L 131.449379 107.152245 
L 132.045771 108.143268 
L 132.640226 109.13429 
L 133.225017 110.125313 
L 133.791394 111.116335 
L 134.330098 112.107357 
L 134.831983 113.09838 
L 135.288673 114.089402 
L 135.693183 115.080425 
L 136.040447 116.071447 
L 136.327674 117.06247 
L 136.554511 118.053492 
L 136.722963 119.044515 
L 136.837104 120.035537 
L 136.902563 121.026559 
L 136.925874 122.017582 
L 136.913722 123.008604 
L 136.872177 123.999627 
L 136.806011 124.990649 
L 136.718148 125.981672 
L 136.609358 126.972694 
L 136.478193 127.963716 
L 136.321226 128.954739 
L 136.133542 129.945761 
L 135.909437 130.936784 
L 135.643253 131.927806 
L 135.330225 132.918829 
L 134.967255 133.909851 
L 134.553492 134.900873 
L 134.090662 135.891896 
L 133.583105 136.882918 
L 133.037521 137.873941 
L 132.462474 138.864963 
L 131.867727 139.855986 
L 131.263501 140.847008 
L 130.659755 141.83803 
L 130.065568 142.829053 
L 129.488673 143.820075 
L 128.935184 144.811098 
L 128.40949 145.80212 
L 127.914297 146.793143 
L 127.450772 147.784165 
L 127.018738 148.775187 
L 126.616866 149.76621 
L 126.242865 150.757232 
L 125.893628 151.748255 
L 125.565375 152.739277 
L 125.253784 153.7303 
L 124.95416 154.721322 
L 124.661642 155.712344 
L 124.371464 156.703367 
L 124.079267 157.694389 
L 123.781425 158.685412 
L 123.475368 159.676434 
L 123.159836 160.667457 
L 122.835056 161.658479 
L 122.502782 162.649502 
L 122.166204 163.640524 
L 121.829714 164.631546 
L 121.498566 165.622569 
L 121.178453 166.613591 
L 120.875047 167.604614 
L 120.593558 168.595636 
L 120.338344 169.586659 
L 120.112611 170.577681 
L 119.918224 171.568703 
L 119.755637 172.559726 
L 119.623933 173.550748 
L 119.520965 174.541771 
L 119.443578 175.532793 
L 119.387873 176.523816 
L 119.349515 177.514838 
L 119.324025 178.50586 
L 119.30707 179.496883 
L 119.294704 180.487905 
L 119.283564 181.478928 
L 119.271 182.46995 
L 119.271 182.46995 
z
" clip-path="url(#pf5f418550c)" style="fill: none; stroke: #000000; stroke-opacity: 0.3"/>
   </g>
   <g id="FillBetweenPolyCollection_11">
    <path d="M 119.252006 319.710368 
L 118.347994 319.710368 
L 118.354464 317.45566 
L 118.373324 315.200952 
L 118.403 312.946244 
L 118.441111 310.691536 
L 118.484785 308.436828 
L 118.531013 306.18212 
L 118.576986 303.927412 
L 118.620357 301.672704 
L 118.659405 299.417996 
L 118.693093 297.163288 
L 118.721016 294.90858 
L 118.743299 292.653872 
L 118.76044 290.399164 
L 118.773157 288.144456 
L 118.782251 285.889748 
L 118.788493 283.63504 
L 118.792554 281.380332 
L 118.794955 279.125625 
L 118.796051 276.870917 
L 118.796016 274.616209 
L 118.794844 272.361501 
L 118.792349 270.106793 
L 118.788167 267.852085 
L 118.781764 265.597377 
L 118.772463 263.342669 
L 118.759486 261.087961 
L 118.742034 258.833253 
L 118.719396 256.578545 
L 118.691089 254.323837 
L 118.657009 252.069129 
L 118.617582 249.814421 
L 118.573863 247.559713 
L 118.527568 245.305005 
L 118.481 243.050297 
L 118.436864 240.795589 
L 118.397974 238.540882 
L 118.366891 236.286174 
L 118.34553 234.031466 
L 118.334826 231.776758 
L 118.334493 229.52205 
L 118.342941 227.267342 
L 118.357365 225.012634 
L 118.374 222.757926 
L 118.388499 220.503218 
L 118.396377 218.24851 
L 118.393455 215.993802 
L 118.37623 213.739094 
L 118.342136 211.484386 
L 118.289647 209.229678 
L 118.218228 206.97497 
L 118.128151 204.720262 
L 118.02021 202.465554 
L 117.895377 200.210846 
L 117.75446 197.956139 
L 117.5978 195.701431 
L 117.425032 193.446723 
L 117.234919 191.192015 
L 117.025235 188.937307 
L 116.792679 186.682599 
L 116.532775 184.427891 
L 116.239743 182.173183 
L 115.906374 179.918475 
L 115.52395 177.663767 
L 115.082336 175.409059 
L 114.570356 173.154351 
L 113.976585 170.899643 
L 113.290598 168.644935 
L 112.504662 166.390227 
L 111.615702 164.135519 
L 110.627242 161.880811 
L 109.550971 159.626103 
L 108.407512 157.371396 
L 107.226093 155.116688 
L 106.042956 152.86198 
L 104.89859 150.607272 
L 103.834139 148.352564 
L 102.887513 146.097856 
L 102.08987 143.843148 
L 101.463082 141.58844 
L 101.018597 139.333732 
L 100.757867 137.079024 
L 100.674126 134.824316 
L 100.75509 132.569608 
L 100.985935 130.3149 
L 101.351919 128.060192 
L 101.840174 125.805484 
L 102.440382 123.550776 
L 103.144375 121.296068 
L 103.944916 119.04136 
L 104.834086 116.786652 
L 105.801731 114.531945 
L 106.834365 112.277237 
L 107.914787 110.022529 
L 109.022472 107.767821 
L 110.134638 105.513113 
L 111.227772 103.258405 
L 112.279329 101.003697 
L 113.26932 98.748989 
L 114.181565 96.494281 
L 123.418435 96.494281 
L 123.418435 96.494281 
L 124.33068 98.748989 
L 125.320671 101.003697 
L 126.372228 103.258405 
L 127.465362 105.513113 
L 128.577528 107.767821 
L 129.685213 110.022529 
L 130.765635 112.277237 
L 131.798269 114.531945 
L 132.765914 116.786652 
L 133.655084 119.04136 
L 134.455625 121.296068 
L 135.159618 123.550776 
L 135.759826 125.805484 
L 136.248081 128.060192 
L 136.614065 130.3149 
L 136.84491 132.569608 
L 136.925874 134.824316 
L 136.842133 137.079024 
L 136.581403 139.333732 
L 136.136918 141.58844 
L 135.51013 143.843148 
L 134.712487 146.097856 
L 133.765861 148.352564 
L 132.70141 150.607272 
L 131.557044 152.86198 
L 130.373907 155.116688 
L 129.192488 157.371396 
L 128.049029 159.626103 
L 126.972758 161.880811 
L 125.984298 164.135519 
L 125.095338 166.390227 
L 124.309402 168.644935 
L 123.623415 170.899643 
L 123.029644 173.154351 
L 122.517664 175.409059 
L 122.07605 177.663767 
L 121.693626 179.918475 
L 121.360257 182.173183 
L 121.067225 184.427891 
L 120.807321 186.682599 
L 120.574765 188.937307 
L 120.365081 191.192015 
L 120.174968 193.446723 
L 120.0022 195.701431 
L 119.84554 197.956139 
L 119.704623 200.210846 
L 119.57979 202.465554 
L 119.471849 204.720262 
L 119.381772 206.97497 
L 119.310353 209.229678 
L 119.257864 211.484386 
L 119.22377 213.739094 
L 119.206545 215.993802 
L 119.203623 218.24851 
L 119.211501 220.503218 
L 119.226 222.757926 
L 119.242635 225.012634 
L 119.257059 227.267342 
L 119.265507 229.52205 
L 119.265174 231.776758 
L 119.25447 234.031466 
L 119.233109 236.286174 
L 119.202026 238.540882 
L 119.163136 240.795589 
L 119.119 243.050297 
L 119.072432 245.305005 
L 119.026137 247.559713 
L 118.982418 249.814421 
L 118.942991 252.069129 
L 118.908911 254.323837 
L 118.880604 256.578545 
L 118.857966 258.833253 
L 118.840514 261.087961 
L 118.827537 263.342669 
L 118.818236 265.597377 
L 118.811833 267.852085 
L 118.807651 270.106793 
L 118.805156 272.361501 
L 118.803984 274.616209 
L 118.803949 276.870917 
L 118.805045 279.125625 
L 118.807446 281.380332 
L 118.811507 283.63504 
L 118.817749 285.889748 
L 118.826843 288.144456 
L 118.83956 290.399164 
L 118.856701 292.653872 
L 118.878984 294.90858 
L 118.906907 297.163288 
L 118.940595 299.417996 
L 118.979643 301.672704 
L 119.023014 303.927412 
L 119.068987 306.18212 
L 119.115215 308.436828 
L 119.158889 310.691536 
L 119.197 312.946244 
L 119.226676 315.200952 
L 119.245536 317.45566 
L 119.252006 319.710368 
L 119.252006 319.710368 
z
" clip-path="url(#pf5f418550c)" style="fill: none; stroke: #000000; stroke-opacity: 0.3"/>
   </g>
   <g id="FillBetweenPolyCollection_12">
    <path d="M 179.789919 186.279834 
L 178.649242 186.279834 
L 178.602231 184.45325 
L 178.560621 182.626666 
L 178.521858 180.800082 
L 178.481151 178.973498 
L 178.431229 177.146914 
L 178.362245 175.32033 
L 178.261884 173.493746 
L 178.115755 171.667162 
L 177.908141 169.840578 
L 177.623119 168.013994 
L 177.24604 166.18741 
L 176.765249 164.360826 
L 176.173896 162.534242 
L 175.47156 160.707658 
L 174.665406 158.881074 
L 173.770523 157.05449 
L 172.809175 155.227906 
L 171.808819 153.401322 
L 170.799001 151.574738 
L 169.807544 149.748154 
L 168.856724 147.92157 
L 167.960312 146.094986 
L 167.1223 144.268402 
L 166.337805 142.441818 
L 165.596145 140.615234 
L 164.885461 138.78865 
L 164.197784 136.962066 
L 163.533232 135.135482 
L 162.9022 133.308898 
L 162.3249 131.482315 
L 161.828359 129.655731 
L 161.441657 127.829147 
L 161.190674 126.002563 
L 161.093706 124.175979 
L 161.158967 122.349395 
L 161.384421 120.522811 
L 161.759682 118.696227 
L 162.269138 116.869643 
L 162.895268 115.043059 
L 163.621155 113.216475 
L 164.431659 111.389891 
L 165.313197 109.563307 
L 166.252546 107.736723 
L 167.235363 105.910139 
L 168.245092 104.083555 
L 169.262735 102.256971 
L 170.267614 100.430387 
L 171.238916 98.603803 
L 172.15761 96.777219 
L 173.008236 94.950635 
L 173.780163 93.124051 
L 174.468099 91.297467 
L 175.071831 89.470883 
L 175.595374 87.644299 
L 176.045782 85.817715 
L 176.431887 83.991131 
L 176.763168 82.164547 
L 177.048859 80.337963 
L 177.297297 78.511379 
L 177.515484 76.684795 
L 177.7088 74.858211 
L 177.880868 73.031628 
L 178.033564 71.205044 
L 178.167222 69.37846 
L 178.281056 67.551876 
L 178.373768 65.725292 
L 178.444274 63.898708 
L 178.492417 62.072124 
L 178.519524 60.24554 
L 178.528669 58.418956 
L 178.524591 56.592372 
L 178.513261 54.765788 
L 178.501188 52.939204 
L 178.494589 51.11262 
L 178.498599 49.286036 
L 178.51665 47.459452 
L 178.55012 45.632868 
L 178.598316 43.806284 
L 178.65874 41.9797 
L 178.72759 40.153116 
L 178.80038 38.326532 
L 178.872554 36.499948 
L 178.940007 34.673364 
L 178.999427 32.84678 
L 179.048447 31.020196 
L 179.08562 29.193612 
L 179.110279 27.367028 
L 179.122354 25.540444 
L 179.122222 23.71386 
L 179.11064 21.887276 
L 179.088767 20.060692 
L 179.058257 18.234108 
L 179.021364 16.407525 
L 178.980976 14.580941 
L 178.940531 12.754357 
L 178.903765 10.927773 
L 178.874322 9.101189 
L 178.855287 7.274605 
L 178.848738 5.448021 
L 179.590422 5.448021 
L 179.590422 5.448021 
L 179.583873 7.274605 
L 179.564839 9.101189 
L 179.535396 10.927773 
L 179.49863 12.754357 
L 179.458185 14.580941 
L 179.417797 16.407525 
L 179.380904 18.234108 
L 179.350394 20.060692 
L 179.328521 21.887276 
L 179.316939 23.71386 
L 179.316807 25.540444 
L 179.328882 27.367028 
L 179.353541 29.193612 
L 179.390714 31.020196 
L 179.439734 32.84678 
L 179.499154 34.673364 
L 179.566606 36.499948 
L 179.638781 38.326532 
L 179.711571 40.153116 
L 179.780421 41.9797 
L 179.840845 43.806284 
L 179.889041 45.632868 
L 179.922511 47.459452 
L 179.940561 49.286036 
L 179.944572 51.11262 
L 179.937973 52.939204 
L 179.9259 54.765788 
L 179.91457 56.592372 
L 179.910492 58.418956 
L 179.919637 60.24554 
L 179.946743 62.072124 
L 179.994887 63.898708 
L 180.065393 65.725292 
L 180.158104 67.551876 
L 180.271939 69.37846 
L 180.405597 71.205044 
L 180.558293 73.031628 
L 180.730361 74.858211 
L 180.923677 76.684795 
L 181.141863 78.511379 
L 181.390302 80.337963 
L 181.675993 82.164547 
L 182.007274 83.991131 
L 182.393379 85.817715 
L 182.843787 87.644299 
L 183.36733 89.470883 
L 183.971062 91.297467 
L 184.658997 93.124051 
L 185.430925 94.950635 
L 186.28155 96.777219 
L 187.200245 98.603803 
L 188.171547 100.430387 
L 189.176426 102.256971 
L 190.194069 104.083555 
L 191.203798 105.910139 
L 192.186615 107.736723 
L 193.125964 109.563307 
L 194.007501 111.389891 
L 194.818006 113.216475 
L 195.543893 115.043059 
L 196.170023 116.869643 
L 196.679479 118.696227 
L 197.05474 120.522811 
L 197.280194 122.349395 
L 197.345455 124.175979 
L 197.248487 126.002563 
L 196.997504 127.829147 
L 196.610802 129.655731 
L 196.114261 131.482315 
L 195.536961 133.308898 
L 194.905929 135.135482 
L 194.241377 136.962066 
L 193.5537 138.78865 
L 192.843016 140.615234 
L 192.101356 142.441818 
L 191.316861 144.268402 
L 190.478848 146.094986 
L 189.582437 147.92157 
L 188.631617 149.748154 
L 187.64016 151.574738 
L 186.630342 153.401322 
L 185.629986 155.227906 
L 184.668638 157.05449 
L 183.773755 158.881074 
L 182.967601 160.707658 
L 182.265265 162.534242 
L 181.673912 164.360826 
L 181.193121 166.18741 
L 180.816042 168.013994 
L 180.53102 169.840578 
L 180.323406 171.667162 
L 180.177277 173.493746 
L 180.076916 175.32033 
L 180.007932 177.146914 
L 179.95801 178.973498 
L 179.917302 180.800082 
L 179.87854 182.626666 
L 179.83693 184.45325 
L 179.789919 186.279834 
L 179.789919 186.279834 
z
" clip-path="url(#pf5f418550c)" style="fill: none; stroke: #000000; stroke-opacity: 0.3"/>
   </g>
   <g id="FillBetweenPolyCollection_13">
    <path d="M 179.488222 236.647928 
L 178.950939 236.647928 
L 178.945097 234.800358 
L 178.944958 232.952788 
L 178.948212 231.105219 
L 178.952224 229.257649 
L 178.954747 227.410079 
L 178.954535 225.56251 
L 178.951687 223.71494 
L 178.94762 221.86737 
L 178.944673 220.019801 
L 178.94546 218.172231 
L 178.952164 216.324661 
L 178.965955 214.477092 
L 178.98669 212.629522 
L 179.012922 210.781952 
L 179.042196 208.934383 
L 179.071487 207.086813 
L 179.097649 205.239243 
L 179.117741 203.391674 
L 179.129194 201.544104 
L 179.129793 199.696534 
L 179.117554 197.848965 
L 179.090545 196.001395 
L 179.046729 194.153825 
L 178.983852 192.306256 
L 178.899409 190.458686 
L 178.790684 188.611116 
L 178.654896 186.763547 
L 178.489453 184.915977 
L 178.292313 183.068407 
L 178.06242 181.220838 
L 177.800091 179.373268 
L 177.50722 177.525698 
L 177.187112 175.678129 
L 176.843898 173.830559 
L 176.481531 171.982989 
L 176.102608 170.13542 
L 175.7073 168.28785 
L 175.292757 166.44028 
L 174.853214 164.592711 
L 174.380871 162.745141 
L 173.867389 160.897571 
L 173.305677 159.050002 
L 172.69159 157.202432 
L 172.02515 155.354862 
L 171.311019 153.507293 
L 170.558114 151.659723 
L 169.778395 149.812153 
L 168.985072 147.964584 
L 168.190599 146.117014 
L 167.404972 144.269444 
L 166.634795 142.421875 
L 165.883478 140.574305 
L 165.152581 138.726735 
L 164.444025 136.879166 
L 163.762541 135.031596 
L 163.117633 133.184026 
L 162.524404 131.336457 
L 162.002986 129.488887 
L 161.576671 127.641317 
L 161.269291 125.793748 
L 161.102523 123.946178 
L 161.093706 122.098608 
L 161.254482 120.251039 
L 161.590163 118.403469 
L 162.099519 116.555899 
L 162.774639 114.70833 
L 163.600719 112.86076 
L 164.555909 111.01319 
L 165.611585 109.165621 
L 166.733401 107.318051 
L 167.883312 105.470481 
L 169.022438 103.622912 
L 170.114363 101.775342 
L 171.128332 99.927772 
L 172.041821 98.080203 
L 172.842084 96.232633 
L 173.526491 94.385063 
L 174.101646 92.537494 
L 174.581451 90.689924 
L 174.984419 88.842354 
L 175.330683 86.994785 
L 175.639151 85.147215 
L 175.925269 83.299645 
L 176.19967 81.452076 
L 176.467799 79.604506 
L 176.730384 77.756936 
L 176.984493 75.909367 
L 177.224884 74.061797 
L 177.445419 72.214227 
L 177.640393 70.366658 
L 177.805702 68.519088 
L 177.939773 66.671518 
L 178.044126 64.823949 
L 178.123446 62.976379 
L 178.18504 61.12881 
L 178.237714 59.28124 
L 178.290259 57.43367 
L 178.349876 55.586101 
L 178.420938 53.738531 
L 180.018223 53.738531 
L 180.018223 53.738531 
L 180.089285 55.586101 
L 180.148901 57.43367 
L 180.201447 59.28124 
L 180.254121 61.12881 
L 180.315715 62.976379 
L 180.395035 64.823949 
L 180.499388 66.671518 
L 180.633459 68.519088 
L 180.798768 70.366658 
L 180.993742 72.214227 
L 181.214277 74.061797 
L 181.454668 75.909367 
L 181.708777 77.756936 
L 181.971362 79.604506 
L 182.239491 81.452076 
L 182.513892 83.299645 
L 182.80001 85.147215 
L 183.108477 86.994785 
L 183.454741 88.842354 
L 183.85771 90.689924 
L 184.337515 92.537494 
L 184.91267 94.385063 
L 185.597077 96.232633 
L 186.39734 98.080203 
L 187.310829 99.927772 
L 188.324798 101.775342 
L 189.416723 103.622912 
L 190.555849 105.470481 
L 191.70576 107.318051 
L 192.827576 109.165621 
L 193.883251 111.01319 
L 194.838442 112.86076 
L 195.664522 114.70833 
L 196.339642 116.555899 
L 196.848998 118.403469 
L 197.184678 120.251039 
L 197.345455 122.098608 
L 197.336638 123.946178 
L 197.169869 125.793748 
L 196.86249 127.641317 
L 196.436175 129.488887 
L 195.914757 131.336457 
L 195.321528 133.184026 
L 194.676619 135.031596 
L 193.995136 136.879166 
L 193.28658 138.726735 
L 192.555683 140.574305 
L 191.804366 142.421875 
L 191.034189 144.269444 
L 190.248561 146.117014 
L 189.454089 147.964584 
L 188.660766 149.812153 
L 187.881047 151.659723 
L 187.128142 153.507293 
L 186.414011 155.354862 
L 185.747571 157.202432 
L 185.133484 159.050002 
L 184.571772 160.897571 
L 184.058289 162.745141 
L 183.585947 164.592711 
L 183.146404 166.44028 
L 182.731861 168.28785 
L 182.336553 170.13542 
L 181.95763 171.982989 
L 181.595263 173.830559 
L 181.252048 175.678129 
L 180.931941 177.525698 
L 180.639069 179.373268 
L 180.376741 181.220838 
L 180.146848 183.068407 
L 179.949708 184.915977 
L 179.784264 186.763547 
L 179.648477 188.611116 
L 179.539752 190.458686 
L 179.455308 192.306256 
L 179.392432 194.153825 
L 179.348616 196.001395 
L 179.321607 197.848965 
L 179.309368 199.696534 
L 179.309967 201.544104 
L 179.32142 203.391674 
L 179.341512 205.239243 
L 179.367674 207.086813 
L 179.396965 208.934383 
L 179.426239 210.781952 
L 179.452471 212.629522 
L 179.473206 214.477092 
L 179.486997 216.324661 
L 179.493701 218.172231 
L 179.494488 220.019801 
L 179.491541 221.86737 
L 179.487474 223.71494 
L 179.484626 225.56251 
L 179.484414 227.410079 
L 179.486937 229.257649 
L 179.490949 231.105219 
L 179.494202 232.952788 
L 179.494064 234.800358 
L 179.488222 236.647928 
L 179.488222 236.647928 
z
" clip-path="url(#pf5f418550c)" style="fill: none; stroke: #000000; stroke-opacity: 0.3"/>
   </g>
   <g id="FillBetweenPolyCollection_14">
    <path d="M 179.426418 209.587117 
L 179.012743 209.587117 
L 179.012593 207.728848 
L 179.019227 205.870579 
L 179.028676 204.01231 
L 179.036076 202.154041 
L 179.036871 200.295771 
L 179.02794 198.437502 
L 179.00834 196.579233 
L 178.979443 194.720964 
L 178.94447 192.862695 
L 178.907542 191.004426 
L 178.872478 189.146157 
L 178.841605 187.287887 
L 178.814843 185.429618 
L 178.789254 183.571349 
L 178.759206 181.71308 
L 178.717168 179.854811 
L 178.655015 177.996542 
L 178.565542 176.138272 
L 178.443742 174.280003 
L 178.287369 172.421734 
L 178.09648 170.563465 
L 177.871999 168.705196 
L 177.613773 166.846927 
L 177.318918 164.988658 
L 176.981315 163.130388 
L 176.592765 161.272119 
L 176.145686 159.41385 
L 175.63648 157.555581 
L 175.068253 155.697312 
L 174.451653 153.839043 
L 173.803213 151.980773 
L 173.141616 150.122504 
L 172.483109 148.264235 
L 171.837563 146.405966 
L 171.206306 144.547697 
L 170.58205 142.689428 
L 169.950507 140.831159 
L 169.293048 138.972889 
L 168.589936 137.11462 
L 167.824032 135.256351 
L 166.98504 133.398082 
L 166.074071 131.539813 
L 165.107854 129.681544 
L 164.121438 127.823274 
L 163.168177 125.965005 
L 162.31612 124.106736 
L 161.640634 122.248467 
L 161.21401 120.390198 
L 161.093706 118.531929 
L 161.311633 116.67366 
L 161.867112 114.81539 
L 162.725604 112.957121 
L 163.823956 111.098852 
L 165.081056 109.240583 
L 166.411234 107.382314 
L 167.736999 105.524045 
L 168.998218 103.665775 
L 170.156244 101.807506 
L 171.193227 99.949237 
L 172.10805 98.090968 
L 172.910879 96.232699 
L 173.617918 94.37443 
L 174.247284 92.516161 
L 174.816124 90.657891 
L 175.338677 88.799622 
L 175.824916 86.941353 
L 176.279702 85.083084 
L 176.702627 83.224815 
L 177.088889 81.366546 
L 177.431275 79.508276 
L 177.72294 77.650007 
L 177.960193 75.791738 
L 178.144395 73.933469 
L 178.282261 72.0752 
L 178.384467 70.216931 
L 178.463041 68.358662 
L 178.528464 66.500392 
L 178.587478 64.642123 
L 178.642257 62.783854 
L 178.691139 60.925585 
L 178.730541 59.067316 
L 178.757345 57.209047 
L 178.770907 55.350777 
L 178.774 53.492508 
L 178.772409 51.634239 
L 178.773332 49.77597 
L 178.783208 47.917701 
L 178.805724 46.059432 
L 178.840733 44.201163 
L 178.884377 42.342893 
L 178.930348 40.484624 
L 178.971775 38.626355 
L 179.003137 36.768086 
L 179.021632 34.909817 
L 179.027704 33.051548 
L 179.024675 31.193278 
L 179.017675 29.335009 
L 179.01222 27.47674 
L 179.012824 25.618471 
L 179.426337 25.618471 
L 179.426337 25.618471 
L 179.426941 27.47674 
L 179.421486 29.335009 
L 179.414486 31.193278 
L 179.411457 33.051548 
L 179.417529 34.909817 
L 179.436024 36.768086 
L 179.467386 38.626355 
L 179.508813 40.484624 
L 179.554783 42.342893 
L 179.598428 44.201163 
L 179.633436 46.059432 
L 179.655953 47.917701 
L 179.665828 49.77597 
L 179.666752 51.634239 
L 179.66516 53.492508 
L 179.668254 55.350777 
L 179.681816 57.209047 
L 179.70862 59.067316 
L 179.748022 60.925585 
L 179.796903 62.783854 
L 179.851683 64.642123 
L 179.910697 66.500392 
L 179.97612 68.358662 
L 180.054694 70.216931 
L 180.1569 72.0752 
L 180.294766 73.933469 
L 180.478968 75.791738 
L 180.716221 77.650007 
L 181.007886 79.508276 
L 181.350272 81.366546 
L 181.736533 83.224815 
L 182.159459 85.083084 
L 182.614244 86.941353 
L 183.100484 88.799622 
L 183.623036 90.657891 
L 184.191877 92.516161 
L 184.821243 94.37443 
L 185.528282 96.232699 
L 186.331111 98.090968 
L 187.245934 99.949237 
L 188.282916 101.807506 
L 189.440943 103.665775 
L 190.702162 105.524045 
L 192.027927 107.382314 
L 193.358105 109.240583 
L 194.615205 111.098852 
L 195.713557 112.957121 
L 196.572049 114.81539 
L 197.127527 116.67366 
L 197.345455 118.531929 
L 197.225151 120.390198 
L 196.798527 122.248467 
L 196.123041 124.106736 
L 195.270983 125.965005 
L 194.317723 127.823274 
L 193.331307 129.681544 
L 192.36509 131.539813 
L 191.454121 133.398082 
L 190.615128 135.256351 
L 189.849225 137.11462 
L 189.146113 138.972889 
L 188.488654 140.831159 
L 187.857111 142.689428 
L 187.232855 144.547697 
L 186.601598 146.405966 
L 185.956052 148.264235 
L 185.297544 150.122504 
L 184.635948 151.980773 
L 183.987508 153.839043 
L 183.370907 155.697312 
L 182.802681 157.555581 
L 182.293474 159.41385 
L 181.846396 161.272119 
L 181.457846 163.130388 
L 181.120243 164.988658 
L 180.825387 166.846927 
L 180.567161 168.705196 
L 180.342681 170.563465 
L 180.151792 172.421734 
L 179.995418 174.280003 
L 179.873619 176.138272 
L 179.784146 177.996542 
L 179.721993 179.854811 
L 179.679955 181.71308 
L 179.649907 183.571349 
L 179.624318 185.429618 
L 179.597555 187.287887 
L 179.566683 189.146157 
L 179.531619 191.004426 
L 179.494691 192.862695 
L 179.459718 194.720964 
L 179.43082 196.579233 
L 179.41122 198.437502 
L 179.40229 200.295771 
L 179.403084 202.154041 
L 179.410484 204.01231 
L 179.419934 205.870579 
L 179.426568 207.728848 
L 179.426418 209.587117 
L 179.426418 209.587117 
z
" clip-path="url(#pf5f418550c)" style="fill: none; stroke: #000000; stroke-opacity: 0.3"/>
   </g>
   <g id="FillBetweenPolyCollection_15">
    <path d="M 183.653944 160.92195 
L 174.785217 160.92195 
L 174.238314 159.68102 
L 173.666893 158.440091 
L 173.074675 157.199162 
L 172.4661 155.958233 
L 171.846376 154.717304 
L 171.221416 153.476374 
L 170.597626 152.235445 
L 169.981549 150.994516 
L 169.379367 149.753587 
L 168.796351 148.512657 
L 168.236304 147.271728 
L 167.701127 146.030799 
L 167.190575 144.78987 
L 166.702284 143.548941 
L 166.232097 142.308011 
L 165.774676 141.067082 
L 165.324348 139.826153 
L 164.876081 138.585224 
L 164.426462 137.344294 
L 163.974566 136.103365 
L 163.522574 134.862436 
L 163.076064 133.621507 
L 162.643927 132.380578 
L 162.237901 131.139648 
L 161.871778 129.898719 
L 161.560374 128.65779 
L 161.318363 127.416861 
L 161.159126 126.175932 
L 161.093706 124.935002 
L 161.12999 123.694073 
L 161.272167 122.453144 
L 161.520503 121.212215 
L 161.871411 119.971285 
L 162.317784 118.730356 
L 162.849535 117.489427 
L 163.454255 116.248498 
L 164.117948 115.007569 
L 164.825762 113.766639 
L 165.562684 112.52571 
L 166.31417 111.284781 
L 167.066688 110.043852 
L 167.808164 108.802923 
L 168.528328 107.561993 
L 169.218952 106.321064 
L 169.873973 105.080135 
L 170.489499 103.839206 
L 171.063705 102.598276 
L 171.596623 101.357347 
L 172.089846 100.116418 
L 172.54619 98.875489 
L 172.969315 97.63456 
L 173.363372 96.39363 
L 173.732679 95.152701 
L 174.081447 93.911772 
L 174.41358 92.670843 
L 174.732517 91.429913 
L 175.041135 90.188984 
L 175.34169 88.948055 
L 175.635777 87.707126 
L 175.924321 86.466197 
L 176.207584 85.225267 
L 176.485199 83.984338 
L 176.756228 82.743409 
L 177.019254 81.50248 
L 177.272506 80.261551 
L 177.514008 79.020621 
L 177.741745 77.779692 
L 177.953827 76.538763 
L 178.14865 75.297834 
L 178.325011 74.056904 
L 178.482197 72.815975 
L 178.620023 71.575046 
L 178.738815 70.334117 
L 178.839362 69.093188 
L 178.922825 67.852258 
L 178.990623 66.611329 
L 179.044319 65.3704 
L 179.085493 64.129471 
L 179.115645 62.888542 
L 179.136104 61.647612 
L 179.147976 60.406683 
L 179.152119 59.165754 
L 179.149142 57.924825 
L 179.139447 56.683895 
L 179.123284 55.442966 
L 179.10084 54.202037 
L 179.072326 52.961108 
L 179.038087 51.720179 
L 178.998686 50.479249 
L 178.954983 49.23832 
L 178.908177 47.997391 
L 178.859809 46.756462 
L 178.811724 45.515532 
L 178.765982 44.274603 
L 178.724732 43.033674 
L 178.690057 41.792745 
L 178.663804 40.551816 
L 178.64743 39.310886 
L 178.641867 38.069957 
L 179.797294 38.069957 
L 179.797294 38.069957 
L 179.791731 39.310886 
L 179.775357 40.551816 
L 179.749104 41.792745 
L 179.714429 43.033674 
L 179.673179 44.274603 
L 179.627437 45.515532 
L 179.579352 46.756462 
L 179.530984 47.997391 
L 179.484178 49.23832 
L 179.440475 50.479249 
L 179.401074 51.720179 
L 179.366835 52.961108 
L 179.338321 54.202037 
L 179.315876 55.442966 
L 179.299714 56.683895 
L 179.290018 57.924825 
L 179.287042 59.165754 
L 179.291184 60.406683 
L 179.303057 61.647612 
L 179.323516 62.888542 
L 179.353667 64.129471 
L 179.394842 65.3704 
L 179.448537 66.611329 
L 179.516336 67.852258 
L 179.599799 69.093188 
L 179.700346 70.334117 
L 179.819138 71.575046 
L 179.956964 72.815975 
L 180.11415 74.056904 
L 180.290511 75.297834 
L 180.485334 76.538763 
L 180.697416 77.779692 
L 180.925153 79.020621 
L 181.166655 80.261551 
L 181.419907 81.50248 
L 181.682933 82.743409 
L 181.953962 83.984338 
L 182.231577 85.225267 
L 182.51484 86.466197 
L 182.803384 87.707126 
L 183.097471 88.948055 
L 183.398026 90.188984 
L 183.706644 91.429913 
L 184.025581 92.670843 
L 184.357713 93.911772 
L 184.706482 95.152701 
L 185.075789 96.39363 
L 185.469846 97.63456 
L 185.892971 98.875489 
L 186.349315 100.116418 
L 186.842538 101.357347 
L 187.375455 102.598276 
L 187.949662 103.839206 
L 188.565188 105.080135 
L 189.220209 106.321064 
L 189.910833 107.561993 
L 190.630997 108.802923 
L 191.372473 110.043852 
L 192.124991 111.284781 
L 192.876477 112.52571 
L 193.613399 113.766639 
L 194.321212 115.007569 
L 194.984905 116.248498 
L 195.589626 117.489427 
L 196.121376 118.730356 
L 196.56775 119.971285 
L 196.918658 121.212215 
L 197.166994 122.453144 
L 197.309171 123.694073 
L 197.345455 124.935002 
L 197.280035 126.175932 
L 197.120798 127.416861 
L 196.878787 128.65779 
L 196.567383 129.898719 
L 196.20126 131.139648 
L 195.795234 132.380578 
L 195.363097 133.621507 
L 194.916587 134.862436 
L 194.464595 136.103365 
L 194.012699 137.344294 
L 193.56308 138.585224 
L 193.114813 139.826153 
L 192.664485 141.067082 
L 192.207064 142.308011 
L 191.736877 143.548941 
L 191.248586 144.78987 
L 190.738034 146.030799 
L 190.202857 147.271728 
L 189.64281 148.512657 
L 189.059793 149.753587 
L 188.457612 150.994516 
L 187.841534 152.235445 
L 187.217745 153.476374 
L 186.592785 154.717304 
L 185.973061 155.958233 
L 185.364486 157.199162 
L 184.772268 158.440091 
L 184.200847 159.68102 
L 183.653944 160.92195 
L 183.653944 160.92195 
z
" clip-path="url(#pf5f418550c)" style="fill: none; stroke: #000000; stroke-opacity: 0.3"/>
   </g>
   <g id="matplotlib.axis_1">
    <g id="xtick_1">
     <g id="line2d_1">
      <defs>
       <path id="me04c34fb94" d="M 0 0 
L 0 3.5 
" style="stroke: #000000; stroke-width: 0.8"/>
      </defs>
      <g>
       <use xlink:href="#me04c34fb94" x="58.38042" y="291.6" style="stroke: #000000; stroke-width: 0.8"/>
      </g>
     </g>
     <g id="text_1">
      <text style="font-size: 10px; font-family: 'DejaVu Sans', 'Bitstream Vera Sans', 'Computer Modern Sans Serif', 'Lucida Grande', 'Verdana', 'Geneva', 'Lucid', 'Arial', 'Helvetica', 'Avant Garde', sans-serif; text-anchor: middle" x="58.38042" y="306.198438" transform="rotate(-0 58.38042 306.198438)">-0.3</text>
     </g>
    </g>
    <g id="xtick_2">
     <g id="line2d_2">
      <g>
       <use xlink:href="#me04c34fb94" x="118.8" y="291.6" style="stroke: #000000; stroke-width: 0.8"/>
      </g>
     </g>
     <g id="text_2">
      <text style="font-size: 10px; font-family: 'DejaVu Sans', 'Bitstream Vera Sans', 'Computer Modern Sans Serif', 'Lucida Grande', 'Verdana', 'Geneva', 'Lucid', 'Arial', 'Helvetica', 'Avant Garde', sans-serif; text-anchor: middle" x="118.8" y="306.198438" transform="rotate(-0 118.8 306.198438)">0</text>
     </g>
    </g>
    <g id="xtick_3">
     <g id="line2d_3">
      <g>
       <use xlink:href="#me04c34fb94" x="179.21958" y="291.6" style="stroke: #000000; stroke-width: 0.8"/>
      </g>
     </g>
     <g id="text_3">
      <text style="font-size: 10px; font-family: 'DejaVu Sans', 'Bitstream Vera Sans', 'Computer Modern Sans Serif', 'Lucida Grande', 'Verdana', 'Geneva', 'Lucid', 'Arial', 'Helvetica', 'Avant Garde', sans-serif; text-anchor: middle" x="179.21958" y="306.198438" transform="rotate(-0 179.21958 306.198438)">+0.3</text>
     </g>
    </g>
   </g>
   <g id="matplotlib.axis_2">
    <g id="ytick_1">
     <g id="line2d_4">
      <defs>
       <path id="m55a89f7865" d="M 0 0 
L -3.5 0 
" style="stroke: #000000; stroke-width: 0.8"/>
      </defs>
      <g>
       <use xlink:href="#m55a89f7865" x="32.4" y="291.6" style="stroke: #000000; stroke-width: 0.8"/>
      </g>
     </g>
     <g id="text_4">
      <text style="font-size: 10px; font-family: 'DejaVu Sans', 'Bitstream Vera Sans', 'Computer Modern Sans Serif', 'Lucida Grande', 'Verdana', 'Geneva', 'Lucid', 'Arial', 'Helvetica', 'Avant Garde', sans-serif; text-anchor: end" x="25.4" y="295.399219" transform="rotate(-0 25.4 295.399219)">0.1</text>
     </g>
    </g>
    <g id="ytick_2">
     <g id="line2d_5">
      <g>
       <use xlink:href="#m55a89f7865" x="32.4" y="199.8" style="stroke: #000000; stroke-width: 0.8"/>
      </g>
     </g>
     <g id="text_5">
      <text style="font-size: 10px; font-family: 'DejaVu Sans', 'Bitstream Vera Sans', 'Computer Modern Sans Serif', 'Lucida Grande', 'Verdana', 'Geneva', 'Lucid', 'Arial', 'Helvetica', 'Avant Garde', sans-serif; text-anchor: end" x="25.4" y="203.599219" transform="rotate(-0 25.4 203.599219)">0.2</text>
     </g>
    </g>
    <g id="ytick_3">
     <g id="line2d_6">
      <g>
       <use xlink:href="#m55a89f7865" x="32.4" y="108" style="stroke: #000000; stroke-width: 0.8"/>
      </g>
     </g>
     <g id="text_6">
      <text style="font-size: 10px; font-family: 'DejaVu Sans', 'Bitstream Vera Sans', 'Computer Modern Sans Serif', 'Lucida Grande', 'Verdana', 'Geneva', 'Lucid', 'Arial', 'Helvetica', 'Avant Garde', sans-serif; text-anchor: end" x="25.4" y="111.799219" transform="rotate(-0 25.4 111.799219)">0.3</text>
     </g>
    </g>
    <g id="ytick_4">
     <g id="line2d_7">
      <g>
       <use xlink:href="#m55a89f7865" x="32.4" y="16.2" style="stroke: #000000; stroke-width: 0.8"/>
      </g>
     </g>
     <g id="text_7">
      <text style="font-size: 10px; font-family: 'DejaVu Sans', 'Bitstream Vera Sans', 'Computer Modern Sans Serif', 'Lucida Grande', 'Verdana', 'Geneva', 'Lucid', 'Arial', 'Helvetica', 'Avant Garde', sans-serif; text-anchor: end" x="25.4" y="19.999219" transform="rotate(-0 25.4 19.999219)">0.4</text>
     </g>
    </g>
    <g id="text_8">
     <text style="font-size: 14px; font-family: 'DejaVu Sans', 'Bitstream Vera Sans', 'Computer Modern Sans Serif', 'Lucida Grande', 'Verdana', 'Geneva', 'Lucid', 'Arial', 'Helvetica', 'Avant Garde', sans-serif; text-anchor: middle" x="20.848437" y="153.9" transform="rotate(-90 20.848437 153.9)">Ef</text>
    </g>
   </g>
   <g id="line2d_8">
    <path d="M 58.38042 269.568 
L 58.38042 264.06 
" clip-path="url(#pf5f418550c)" style="fill: none; stroke: #000000; stroke-linecap: square"/>
   </g>
   <g id="line2d_9">
    <path d="M 58.38042 269.568 
L 118.8 269.568 
" clip-path="url(#pf5f418550c)" style="fill: none; stroke: #000000; stroke-linecap: square"/>
   </g>
   <g id="line2d_10">
    <path d="M 118.8 269.568 
L 118.8 264.06 
" clip-path="url(#pf5f418550c)" style="fill: none; stroke: #000000; stroke-linecap: square"/>
   </g>
   <g id="line2d_11">
    <path d="M 58.38042 255.798 
L 58.38042 250.29 
" clip-path="url(#pf5f418550c)" style="fill: none; stroke: #000000; stroke-linecap: square"/>
   </g>
   <g id="line2d_12">
    <path d="M 58.38042 255.798 
L 179.21958 255.798 
" clip-path="url(#pf5f418550c)" style="fill: none; stroke: #000000; stroke-linecap: square"/>
   </g>
   <g id="line2d_13">
    <path d="M 179.21958 255.798 
L 179.21958 250.29 
" clip-path="url(#pf5f418550c)" style="fill: none; stroke: #000000; stroke-linecap: square"/>
   </g>
   <g id="line2d_14">
    <path d="M 118.8 242.028 
L 118.8 236.52 
" clip-path="url(#pf5f418550c)" style="fill: none; stroke: #000000; stroke-linecap: square"/>
   </g>
   <g id="line2d_15">
    <path d="M 118.8 242.028 
L 179.21958 242.028 
" clip-path="url(#pf5f418550c)" style="fill: none; stroke: #000000; stroke-linecap: square"/>
   </g>
   <g id="line2d_16">
    <path d="M 179.21958 242.028 
L 179.21958 236.52 
" clip-path="url(#pf5f418550c)" style="fill: none; stroke: #000000; stroke-linecap: square"/>
   </g>
   <g id="patch_3">
    <path d="M 32.4 291.6 
L 32.4 16.2 
" style="fill: none; stroke: #000000; stroke-width: 0.8; stroke-linejoin: miter; stroke-linecap: square"/>
   </g>
   <g id="patch_4">
    <path d="M 205.2 291.6 
L 205.2 16.2 
" style="fill: none; stroke: #000000; stroke-width: 0.8; stroke-linejoin: miter; stroke-linecap: square"/>
   </g>
   <g id="patch_5">
    <path d="M 32.4 291.6 
L 205.2 291.6 
" style="fill: none; stroke: #000000; stroke-width: 0.8; stroke-linejoin: miter; stroke-linecap: square"/>
   </g>
   <g id="patch_6">
    <path d="M 32.4 16.2 
L 205.2 16.2 
" style="fill: none; stroke: #000000; stroke-width: 0.8; stroke-linejoin: miter; stroke-linecap: square"/>
   </g>
   <g id="text_9">
    <text style="font-weight: 700; font-size: 12px; font-family: 'DejaVu Sans', 'Bitstream Vera Sans', 'Computer Modern Sans Serif', 'Lucida Grande', 'Verdana', 'Geneva', 'Lucid', 'Arial', 'Helvetica', 'Avant Garde', sans-serif; text-anchor: middle" x="58.38042" y="289.104375" transform="rotate(-0 58.38042 289.104375)">#6</text>
   </g>
   <g id="text_10">
    <text style="font-weight: 700; font-size: 12px; font-family: 'DejaVu Sans', 'Bitstream Vera Sans', 'Computer Modern Sans Serif', 'Lucida Grande', 'Verdana', 'Geneva', 'Lucid', 'Arial', 'Helvetica', 'Avant Garde', sans-serif; text-anchor: middle" x="118.8" y="289.104375" transform="rotate(-0 118.8 289.104375)">#8</text>
   </g>
   <g id="text_11">
    <text style="font-weight: 700; font-size: 12px; font-family: 'DejaVu Sans', 'Bitstream Vera Sans', 'Computer Modern Sans Serif', 'Lucida Grande', 'Verdana', 'Geneva', 'Lucid', 'Arial', 'Helvetica', 'Avant Garde', sans-serif; text-anchor: middle" x="179.21958" y="289.104375" transform="rotate(-0 179.21958 289.104375)">#10</text>
   </g>
   <g id="text_12">
    <text style="font-size: 12px; font-family: 'DejaVu Sans', 'Bitstream Vera Sans', 'Computer Modern Sans Serif', 'Lucida Grande', 'Verdana', 'Geneva', 'Lucid', 'Arial', 'Helvetica', 'Avant Garde', sans-serif; text-anchor: middle" x="88.59021" y="268.449375" transform="rotate(-0 88.59021 268.449375)">****</text>
   </g>
   <g id="text_13">
    <text style="font-size: 12px; font-family: 'DejaVu Sans', 'Bitstream Vera Sans', 'Computer Modern Sans Serif', 'Lucida Grande', 'Verdana', 'Geneva', 'Lucid', 'Arial', 'Helvetica', 'Avant Garde', sans-serif; text-anchor: middle" x="118.8" y="254.679375" transform="rotate(-0 118.8 254.679375)">****</text>
   </g>
   <g id="text_14">
    <text style="font-size: 12px; font-family: 'DejaVu Sans', 'Bitstream Vera Sans', 'Computer Modern Sans Serif', 'Lucida Grande', 'Verdana', 'Geneva', 'Lucid', 'Arial', 'Helvetica', 'Avant Garde', sans-serif; text-anchor: middle" x="149.00979" y="240.909375" transform="rotate(-0 149.00979 240.909375)">ns</text>
   </g>
   <g id="line2d_17">
    <path d="M 32.4 156.394406 
L 205.2 156.394406 
" clip-path="url(#pf5f418550c)" style="fill: none; stroke-dasharray: 3.7,1.6; stroke-dashoffset: 0; stroke: #808080; stroke-opacity: 0.7"/>
   </g>
   <g id="line2d_18">
    <path d="M 32.4 129.76437 
L 205.2 129.76437 
" clip-path="url(#pf5f418550c)" style="fill: none; stroke-dasharray: 3.7,1.6; stroke-dashoffset: 0; stroke: #808080; stroke-opacity: 0.7"/>
   </g>
   <g id="line2d_19">
    <path d="M 32.4 123.792773 
L 205.2 123.792773 
" clip-path="url(#pf5f418550c)" style="fill: none; stroke-dasharray: 3.7,1.6; stroke-dashoffset: 0; stroke: #808080; stroke-opacity: 0.7"/>
   </g>
   <g id="LineCollection_1">
    <path d="M 58.38042 158.639609 
L 58.38042 154.149203 
" clip-path="url(#pf5f418550c)" style="fill: none; stroke: #000000; stroke-width: 2"/>
   </g>
   <g id="line2d_20">
    <defs>
     <path id="m2a3dd23074" d="M 5 0 
L -5 -0 
" style="stroke: #000000; stroke-width: 2"/>
    </defs>
    <g clip-path="url(#pf5f418550c)">
     <use xlink:href="#m2a3dd23074" x="58.38042" y="158.639609" style="stroke: #000000; stroke-width: 2"/>
    </g>
   </g>
   <g id="line2d_21">
    <g clip-path="url(#pf5f418550c)">
     <use xlink:href="#m2a3dd23074" x="58.38042" y="154.149203" style="stroke: #000000; stroke-width: 2"/>
    </g>
   </g>
   <g id="LineCollection_2">
    <path d="M 118.8 135.153853 
L 118.8 124.374887 
" clip-path="url(#pf5f418550c)" style="fill: none; stroke: #000000; stroke-width: 2"/>
   </g>
   <g id="line2d_22">
    <g clip-path="url(#pf5f418550c)">
     <use xlink:href="#m2a3dd23074" x="118.8" y="135.153853" style="stroke: #000000; stroke-width: 2"/>
    </g>
   </g>
   <g id="line2d_23">
    <g clip-path="url(#pf5f418550c)">
     <use xlink:href="#m2a3dd23074" x="118.8" y="124.374887" style="stroke: #000000; stroke-width: 2"/>
    </g>
   </g>
   <g id="LineCollection_3">
    <path d="M 179.21958 126.095257 
L 179.21958 121.49029 
" clip-path="url(#pf5f418550c)" style="fill: none; stroke: #000000; stroke-width: 2"/>
   </g>
   <g id="line2d_24">
    <g clip-path="url(#pf5f418550c)">
     <use xlink:href="#m2a3dd23074" x="179.21958" y="126.095257" style="stroke: #000000; stroke-width: 2"/>
    </g>
   </g>
   <g id="line2d_25">
    <g clip-path="url(#pf5f418550c)">
     <use xlink:href="#m2a3dd23074" x="179.21958" y="121.49029" style="stroke: #000000; stroke-width: 2"/>
    </g>
   </g>
   <g id="line2d_26">
    <defs>
     <path id="m59baf8af54" d="M 0 4 
C 1.060812 4 2.078319 3.578535 2.828427 2.828427 
C 3.578535 2.078319 4 1.060812 4 0 
C 4 -1.060812 3.578535 -2.078319 2.828427 -2.828427 
C 2.078319 -3.578535 1.060812 -4 0 -4 
C -1.060812 -4 -2.078319 -3.578535 -2.828427 -2.828427 
C -3.578535 -2.078319 -4 -1.060812 -4 0 
C -4 1.060812 -3.578535 2.078319 -2.828427 2.828427 
C -2.078319 3.578535 -1.060812 4 0 4 
z
" style="stroke: #000000"/>
    </defs>
    <g clip-path="url(#pf5f418550c)">
     <use xlink:href="#m59baf8af54" x="58.38042" y="156.394406" style="stroke: #000000"/>
    </g>
   </g>
   <g id="line2d_27">
    <g clip-path="url(#pf5f418550c)">
     <use xlink:href="#m59baf8af54" x="118.8" y="129.76437" style="stroke: #000000"/>
    </g>
   </g>
   <g id="line2d_28">
    <g clip-path="url(#pf5f418550c)">
     <use xlink:href="#m59baf8af54" x="179.21958" y="123.792773" style="stroke: #000000"/>
    </g>
   </g>
  </g>
 </g>
 <defs>
  <clipPath id="pf5f418550c">
   <rect x="32.4" y="16.2" width="172.8" height="275.4"/>
  </clipPath>
 </defs>
</svg>
