<?xml version="1.0" encoding="utf-8" standalone="no"?>
<!DOCTYPE svg PUBLIC "-//W3C//DTD SVG 1.1//EN"
  "http://www.w3.org/Graphics/SVG/1.1/DTD/svg11.dtd">
<svg xmlns:xlink="http://www.w3.org/1999/xlink" width="144pt" height="324pt" viewBox="0 0 144 324" xmlns="http://www.w3.org/2000/svg" version="1.1">
 <metadata>
  <rdf:RDF xmlns:dc="http://purl.org/dc/elements/1.1/" xmlns:cc="http://creativecommons.org/ns#" xmlns:rdf="http://www.w3.org/1999/02/22-rdf-syntax-ns#">
   <cc:Work>
    <dc:type rdf:resource="http://purl.org/dc/dcmitype/StillImage"/>
    <dc:date>2025-12-05T16:39:45.255489</dc:date>
    <dc:format>image/svg+xml</dc:format>
    <dc:creator>
     <cc:Agent>
      <dc:title>Matplotlib v3.10.0, https://matplotlib.org/</dc:title>
     </cc:Agent>
    </dc:creator>
   </cc:Work>
  </rdf:RDF>
 </metadata>
 <defs>
  <style type="text/css">*{stroke-linejoin: round; stroke-linecap: butt}</style>
 </defs>
 <g id="figure_1">
  <g id="patch_1">
   <path d="M 0 324 
L 144 324 
L 144 0 
L 0 0 
z
" style="fill: #ffffff"/>
  </g>
  <g id="axes_1">
   <g id="patch_2">
    <path d="M 21.6 291.6 
L 136.8 291.6 
L 136.8 16.2 
L 21.6 16.2 
z
" style="fill: #ffffff"/>
   </g>
   <g id="FillBetweenPolyCollection_1">
    <path d="M 46.861131 215.777143 
L 46.084323 215.777143 
L 46.090977 214.319532 
L 46.110262 212.861922 
L 46.140263 211.404312 
L 46.178139 209.946701 
L 46.220567 208.489091 
L 46.264216 207.03148 
L 46.306165 205.57387 
L 46.344192 204.116259 
L 46.376902 202.658649 
L 46.403702 201.201038 
L 46.424668 199.743428 
L 46.440339 198.285818 
L 46.451506 196.828207 
L 46.459009 195.370597 
L 46.463585 193.912986 
L 46.465744 192.455376 
L 46.465676 190.997765 
L 46.463167 189.540155 
L 46.457517 188.082544 
L 46.447449 186.624934 
L 46.431023 185.167323 
L 46.405578 183.709713 
L 46.367736 182.252103 
L 46.313504 180.794492 
L 46.238517 179.336882 
L 46.138422 177.879271 
L 46.009376 176.421661 
L 45.848605 174.96405 
L 45.654905 173.50644 
L 45.428966 172.048829 
L 45.173418 170.591219 
L 44.892526 169.133609 
L 44.591557 167.675998 
L 44.275908 166.218388 
L 43.950164 164.760777 
L 43.617268 163.303167 
L 43.277984 161.845556 
L 42.930748 160.387946 
L 42.57194 158.930335 
L 42.196505 157.472725 
L 41.798775 156.015114 
L 41.373321 154.557504 
L 40.91564 153.099894 
L 40.422521 151.642283 
L 39.891993 150.184673 
L 39.322862 148.727062 
L 38.713949 147.269452 
L 38.063271 145.811841 
L 37.367485 144.354231 
L 36.621932 142.89662 
L 35.821535 141.43901 
L 34.96259 139.9814 
L 34.045249 138.523789 
L 33.076209 137.066179 
L 32.070947 135.608568 
L 31.0548 134.150958 
L 30.062366 132.693347 
L 29.135029 131.235737 
L 28.31687 129.778126 
L 27.649605 128.320516 
L 27.167529 126.862905 
L 26.893438 125.405295 
L 26.836364 123.947685 
L 26.991475 122.490074 
L 27.342067 121.032464 
L 27.863037 119.574853 
L 28.524988 118.117243 
L 29.298067 116.659632 
L 30.154779 115.202022 
L 31.071445 113.744411 
L 32.028297 112.286801 
L 33.00857 110.829191 
L 33.997128 109.37158 
L 34.979162 107.91397 
L 35.939417 106.456359 
L 36.862147 104.998749 
L 37.731849 103.541138 
L 38.534573 102.083528 
L 39.259506 100.625917 
L 39.90046 99.168307 
L 40.456906 97.710696 
L 40.934263 96.253086 
L 41.343315 94.795476 
L 41.698781 93.337865 
L 42.017267 91.880255 
L 42.314937 90.422644 
L 42.605348 88.965034 
L 42.897836 87.507423 
L 43.196733 86.049813 
L 43.50151 84.592202 
L 43.807744 83.134592 
L 44.108631 81.676982 
L 44.396691 80.219371 
L 44.665302 78.761761 
L 44.90979 77.30415 
L 45.12793 75.84654 
L 45.319868 74.388929 
L 45.487596 72.931319 
L 45.634185 71.473708 
L 47.31127 71.473708 
L 47.31127 71.473708 
L 47.457858 72.931319 
L 47.625587 74.388929 
L 47.817525 75.84654 
L 48.035664 77.30415 
L 48.280152 78.761761 
L 48.548763 80.219371 
L 48.836823 81.676982 
L 49.13771 83.134592 
L 49.443944 84.592202 
L 49.748722 86.049813 
L 50.047618 87.507423 
L 50.340106 88.965034 
L 50.630518 90.422644 
L 50.928188 91.880255 
L 51.246673 93.337865 
L 51.60214 94.795476 
L 52.011191 96.253086 
L 52.488548 97.710696 
L 53.044995 99.168307 
L 53.685949 100.625917 
L 54.410881 102.083528 
L 55.213605 103.541138 
L 56.083308 104.998749 
L 57.006038 106.456359 
L 57.966292 107.91397 
L 58.948327 109.37158 
L 59.936884 110.829191 
L 60.917157 112.286801 
L 61.874009 113.744411 
L 62.790676 115.202022 
L 63.647388 116.659632 
L 64.420466 118.117243 
L 65.082418 119.574853 
L 65.603387 121.032464 
L 65.953979 122.490074 
L 66.109091 123.947685 
L 66.052016 125.405295 
L 65.777926 126.862905 
L 65.295849 128.320516 
L 64.628585 129.778126 
L 63.810425 131.235737 
L 62.883089 132.693347 
L 61.890654 134.150958 
L 60.874508 135.608568 
L 59.869246 137.066179 
L 58.900206 138.523789 
L 57.982864 139.9814 
L 57.123919 141.43901 
L 56.323522 142.89662 
L 55.57797 144.354231 
L 54.882183 145.811841 
L 54.231505 147.269452 
L 53.622593 148.727062 
L 53.053462 150.184673 
L 52.522933 151.642283 
L 52.029814 153.099894 
L 51.572134 154.557504 
L 51.14668 156.015114 
L 50.74895 157.472725 
L 50.373515 158.930335 
L 50.014707 160.387946 
L 49.66747 161.845556 
L 49.328186 163.303167 
L 48.995291 164.760777 
L 48.669547 166.218388 
L 48.353898 167.675998 
L 48.052928 169.133609 
L 47.772036 170.591219 
L 47.516488 172.048829 
L 47.29055 173.50644 
L 47.09685 174.96405 
L 46.936079 176.421661 
L 46.807033 177.879271 
L 46.706938 179.336882 
L 46.631951 180.794492 
L 46.577719 182.252103 
L 46.539876 183.709713 
L 46.514432 185.167323 
L 46.498006 186.624934 
L 46.487938 188.082544 
L 46.482288 189.540155 
L 46.479779 190.997765 
L 46.47971 192.455376 
L 46.48187 193.912986 
L 46.486446 195.370597 
L 46.493949 196.828207 
L 46.505115 198.285818 
L 46.520787 199.743428 
L 46.541752 201.201038 
L 46.568553 202.658649 
L 46.601262 204.116259 
L 46.639289 205.57387 
L 46.681239 207.03148 
L 46.724887 208.489091 
L 46.767315 209.946701 
L 46.805192 211.404312 
L 46.835193 212.861922 
L 46.854478 214.319532 
L 46.861131 215.777143 
L 46.861131 215.777143 
z
" clip-path="url(#p8ed6918bb2)" style="fill: none; stroke: #000000; stroke-opacity: 0.3"/>
   </g>
   <g id="FillBetweenPolyCollection_2">
    <path d="M 46.834898 197.650543 
L 46.110557 197.650543 
L 46.106511 196.127146 
L 46.108947 194.603749 
L 46.114373 193.080353 
L 46.118295 191.556956 
L 46.115835 190.033559 
L 46.102432 188.510162 
L 46.074517 186.986765 
L 46.03002 185.463368 
L 45.968624 183.939971 
L 45.891687 182.416575 
L 45.801842 180.893178 
L 45.702308 179.369781 
L 45.596034 177.846384 
L 45.484824 176.322987 
L 45.368604 174.79959 
L 45.244997 173.276193 
L 45.109292 171.752796 
L 44.954817 170.2294 
L 44.773634 168.706003 
L 44.55737 167.182606 
L 44.297991 165.659209 
L 43.988318 164.135812 
L 43.622204 162.612415 
L 43.194401 161.089018 
L 42.700292 159.565622 
L 42.135726 158.042225 
L 41.497188 156.518828 
L 40.782431 154.995431 
L 39.991516 153.472034 
L 39.128019 151.948637 
L 38.200077 150.42524 
L 37.220903 148.901844 
L 36.208549 147.378447 
L 35.184873 145.85505 
L 34.173867 144.331653 
L 33.199642 142.808256 
L 32.284405 141.284859 
L 31.446662 139.761462 
L 30.699822 138.238065 
L 30.051231 136.714669 
L 29.501673 135.191272 
L 29.045364 133.667875 
L 28.670577 132.144478 
L 28.361016 130.621081 
L 28.098002 129.097684 
L 27.86339 127.574287 
L 27.642889 126.050891 
L 27.429244 124.527494 
L 27.224632 123.004097 
L 27.041651 121.4807 
L 26.902509 119.957303 
L 26.836364 118.433906 
L 26.875167 116.910509 
L 27.048733 115.387113 
L 27.379949 113.863716 
L 27.881027 112.340319 
L 28.551494 110.816922 
L 29.378192 109.293525 
L 30.337119 107.770128 
L 31.396572 106.246731 
L 32.520828 104.723335 
L 33.673635 103.199938 
L 34.821003 101.676541 
L 35.933117 100.153144 
L 36.98546 98.629747 
L 37.959443 97.10635 
L 38.842764 95.582953 
L 39.629621 94.059556 
L 40.32069 92.53616 
L 40.92266 91.012763 
L 41.447143 89.489366 
L 41.908921 87.965969 
L 42.323721 86.442572 
L 42.705895 84.919175 
L 43.066489 83.395778 
L 43.412084 81.872382 
L 43.744617 80.348985 
L 44.062142 78.825588 
L 44.360229 77.302191 
L 44.633624 75.778794 
L 44.877737 74.255397 
L 45.089672 72.732 
L 45.268646 71.208604 
L 45.415843 69.685207 
L 45.533857 68.16181 
L 45.625969 66.638413 
L 45.695466 65.115016 
L 45.74521 63.591619 
L 45.777519 62.068222 
L 45.794368 60.544825 
L 45.797788 59.021429 
L 45.790333 57.498032 
L 45.775407 55.974635 
L 45.757349 54.451238 
L 45.741175 52.927841 
L 45.732042 51.404444 
L 45.734528 49.881047 
L 45.751916 48.357651 
L 45.785658 46.834254 
L 47.159797 46.834254 
L 47.159797 46.834254 
L 47.193539 48.357651 
L 47.210927 49.881047 
L 47.213412 51.404444 
L 47.204279 52.927841 
L 47.188105 54.451238 
L 47.170047 55.974635 
L 47.155122 57.498032 
L 47.147666 59.021429 
L 47.151087 60.544825 
L 47.167935 62.068222 
L 47.200245 63.591619 
L 47.249989 65.115016 
L 47.319486 66.638413 
L 47.411597 68.16181 
L 47.529612 69.685207 
L 47.676808 71.208604 
L 47.855782 72.732 
L 48.067717 74.255397 
L 48.311831 75.778794 
L 48.585226 77.302191 
L 48.883313 78.825588 
L 49.200837 80.348985 
L 49.533371 81.872382 
L 49.878965 83.395778 
L 50.23956 84.919175 
L 50.621734 86.442572 
L 51.036533 87.965969 
L 51.498311 89.489366 
L 52.022794 91.012763 
L 52.624764 92.53616 
L 53.315834 94.059556 
L 54.102691 95.582953 
L 54.986012 97.10635 
L 55.959995 98.629747 
L 57.012338 100.153144 
L 58.124451 101.676541 
L 59.27182 103.199938 
L 60.424626 104.723335 
L 61.548883 106.246731 
L 62.608335 107.770128 
L 63.567262 109.293525 
L 64.39396 110.816922 
L 65.064428 112.340319 
L 65.565506 113.863716 
L 65.896721 115.387113 
L 66.070288 116.910509 
L 66.109091 118.433906 
L 66.042946 119.957303 
L 65.903804 121.4807 
L 65.720822 123.004097 
L 65.51621 124.527494 
L 65.302566 126.050891 
L 65.082065 127.574287 
L 64.847453 129.097684 
L 64.584438 130.621081 
L 64.274877 132.144478 
L 63.900091 133.667875 
L 63.443782 135.191272 
L 62.894223 136.714669 
L 62.245633 138.238065 
L 61.498792 139.761462 
L 60.661049 141.284859 
L 59.745812 142.808256 
L 58.771588 144.331653 
L 57.760581 145.85505 
L 56.736906 147.378447 
L 55.724552 148.901844 
L 54.745378 150.42524 
L 53.817436 151.948637 
L 52.953939 153.472034 
L 52.163023 154.995431 
L 51.448267 156.518828 
L 50.809728 158.042225 
L 50.245162 159.565622 
L 49.751053 161.089018 
L 49.32325 162.612415 
L 48.957136 164.135812 
L 48.647464 165.659209 
L 48.388085 167.182606 
L 48.171821 168.706003 
L 47.990637 170.2294 
L 47.836162 171.752796 
L 47.700457 173.276193 
L 47.576851 174.79959 
L 47.460631 176.322987 
L 47.349421 177.846384 
L 47.243147 179.369781 
L 47.143612 180.893178 
L 47.053767 182.416575 
L 46.976831 183.939971 
L 46.915435 185.463368 
L 46.870938 186.986765 
L 46.843022 188.510162 
L 46.82962 190.033559 
L 46.82716 191.556956 
L 46.831082 193.080353 
L 46.836507 194.603749 
L 46.838944 196.127146 
L 46.834898 197.650543 
L 46.834898 197.650543 
z
" clip-path="url(#p8ed6918bb2)" style="fill: none; stroke: #000000; stroke-opacity: 0.3"/>
   </g>
   <g id="FillBetweenPolyCollection_3">
    <path d="M 47.731097 178.049598 
L 45.214358 178.049598 
L 45.080869 177.002478 
L 44.945433 175.955358 
L 44.80917 174.908238 
L 44.672979 173.861117 
L 44.537441 172.813997 
L 44.402731 171.766877 
L 44.268563 170.719757 
L 44.134181 169.672636 
L 43.998405 168.625516 
L 43.859736 167.578396 
L 43.7165 166.531275 
L 43.567033 165.484155 
L 43.409854 164.437035 
L 43.243809 163.389915 
L 43.068145 162.342794 
L 42.882506 161.295674 
L 42.68682 160.248554 
L 42.481109 159.201434 
L 42.265246 158.154313 
L 42.03869 157.107193 
L 41.800277 156.060073 
L 41.54808 155.012953 
L 41.279412 153.965832 
L 40.990964 152.918712 
L 40.679074 151.871592 
L 40.34011 150.824472 
L 39.97089 149.777351 
L 39.569101 148.730231 
L 39.133649 147.683111 
L 38.664875 146.635991 
L 38.164635 145.58887 
L 37.636217 144.54175 
L 37.084124 143.49463 
L 36.513765 142.44751 
L 35.931101 141.400389 
L 35.342294 140.353269 
L 34.753415 139.306149 
L 34.170229 138.259029 
L 33.598053 137.211908 
L 33.041701 136.164788 
L 32.505453 135.117668 
L 31.993044 134.070548 
L 31.507612 133.023427 
L 31.051613 131.976307 
L 30.626672 130.929187 
L 30.233417 129.882067 
L 29.871315 128.834946 
L 29.538579 127.787826 
L 29.2322 126.740706 
L 28.948141 125.693586 
L 28.681737 124.646465 
L 28.428282 123.599345 
L 28.183773 122.552225 
L 27.945725 121.505104 
L 27.713961 120.457984 
L 27.491262 119.410864 
L 27.283753 118.363744 
L 27.100947 117.316623 
L 26.955384 116.269503 
L 26.861871 115.222383 
L 26.836364 114.175263 
L 26.894607 113.128142 
L 27.050675 112.081022 
L 27.315566 111.033902 
L 27.696036 109.986782 
L 28.193789 108.939661 
L 28.805135 107.892541 
L 29.521144 106.845421 
L 30.32827 105.798301 
L 31.20937 104.75118 
L 32.144973 103.70406 
L 33.114669 102.65694 
L 34.098432 101.60982 
L 35.077772 100.562699 
L 36.036592 99.515579 
L 36.961717 98.468459 
L 37.843067 97.421339 
L 38.673549 96.374218 
L 39.448707 95.327098 
L 40.166239 94.279978 
L 40.825478 93.232858 
L 41.426892 92.185737 
L 41.971692 91.138617 
L 42.461552 90.091497 
L 42.898466 89.044377 
L 43.284708 87.997256 
L 43.622877 86.950136 
L 43.91597 85.903016 
L 44.167456 84.855896 
L 44.381313 83.808775 
L 44.562 82.761655 
L 44.714367 81.714535 
L 44.84349 80.667415 
L 44.954474 79.620294 
L 45.052212 78.573174 
L 45.141154 77.526054 
L 45.225108 76.478933 
L 45.307083 75.431813 
L 45.389203 74.384693 
L 47.556252 74.384693 
L 47.556252 74.384693 
L 47.638371 75.431813 
L 47.720347 76.478933 
L 47.804301 77.526054 
L 47.893243 78.573174 
L 47.99098 79.620294 
L 48.101964 80.667415 
L 48.231088 81.714535 
L 48.383454 82.761655 
L 48.564141 83.808775 
L 48.777998 84.855896 
L 49.029485 85.903016 
L 49.322577 86.950136 
L 49.660746 87.997256 
L 50.046989 89.044377 
L 50.483903 90.091497 
L 50.973763 91.138617 
L 51.518562 92.185737 
L 52.119977 93.232858 
L 52.779215 94.279978 
L 53.496748 95.327098 
L 54.271905 96.374218 
L 55.102387 97.421339 
L 55.983738 98.468459 
L 56.908862 99.515579 
L 57.867683 100.562699 
L 58.847023 101.60982 
L 59.830785 102.65694 
L 60.800481 103.70406 
L 61.736085 104.75118 
L 62.617184 105.798301 
L 63.42431 106.845421 
L 64.140319 107.892541 
L 64.751666 108.939661 
L 65.249419 109.986782 
L 65.629889 111.033902 
L 65.89478 112.081022 
L 66.050847 113.128142 
L 66.109091 114.175263 
L 66.083583 115.222383 
L 65.99007 116.269503 
L 65.844508 117.316623 
L 65.661702 118.363744 
L 65.454192 119.410864 
L 65.231493 120.457984 
L 64.99973 121.505104 
L 64.761682 122.552225 
L 64.517173 123.599345 
L 64.263718 124.646465 
L 63.997313 125.693586 
L 63.713254 126.740706 
L 63.406875 127.787826 
L 63.07414 128.834946 
L 62.712038 129.882067 
L 62.318782 130.929187 
L 61.893842 131.976307 
L 61.437843 133.023427 
L 60.952411 134.070548 
L 60.440001 135.117668 
L 59.903754 136.164788 
L 59.347401 137.211908 
L 58.775226 138.259029 
L 58.192039 139.306149 
L 57.603161 140.353269 
L 57.014354 141.400389 
L 56.431689 142.44751 
L 55.861331 143.49463 
L 55.309238 144.54175 
L 54.78082 145.58887 
L 54.28058 146.635991 
L 53.811806 147.683111 
L 53.376353 148.730231 
L 52.974565 149.777351 
L 52.605344 150.824472 
L 52.26638 151.871592 
L 51.954491 152.918712 
L 51.666043 153.965832 
L 51.397375 155.012953 
L 51.145178 156.060073 
L 50.906764 157.107193 
L 50.680209 158.154313 
L 50.464345 159.201434 
L 50.258635 160.248554 
L 50.062948 161.295674 
L 49.877309 162.342794 
L 49.701646 163.389915 
L 49.5356 164.437035 
L 49.378421 165.484155 
L 49.228955 166.531275 
L 49.085719 167.578396 
L 48.947049 168.625516 
L 48.811274 169.672636 
L 48.676891 170.719757 
L 48.542723 171.766877 
L 48.408013 172.813997 
L 48.272475 173.861117 
L 48.136285 174.908238 
L 48.000021 175.955358 
L 47.864585 177.002478 
L 47.731097 178.049598 
L 47.731097 178.049598 
z
" clip-path="url(#p8ed6918bb2)" style="fill: none; stroke: #000000; stroke-opacity: 0.3"/>
   </g>
   <g id="FillBetweenPolyCollection_4">
    <path d="M 47.361943 165.312278 
L 45.583511 165.312278 
L 45.432992 164.324255 
L 45.259729 163.336231 
L 45.060277 162.348208 
L 44.831824 161.360185 
L 44.572779 160.372161 
L 44.283275 159.384138 
L 43.965468 158.396115 
L 43.623509 157.408091 
L 43.263163 156.420068 
L 42.891039 155.432045 
L 42.513555 154.444021 
L 42.135751 153.455998 
L 41.760163 152.467974 
L 41.385952 151.479951 
L 41.008467 150.491928 
L 40.619374 149.503904 
L 40.20738 148.515881 
L 39.759522 147.527858 
L 39.262878 146.539834 
L 38.706512 145.551811 
L 38.083386 144.563788 
L 37.392 143.575764 
L 36.637492 142.587741 
L 35.832016 141.599718 
L 34.994268 140.611694 
L 34.148151 139.623671 
L 33.320699 138.635648 
L 32.539462 137.647624 
L 31.829694 136.659601 
L 31.211712 135.671578 
L 30.698798 134.683554 
L 30.295928 133.695531 
L 29.999527 132.707508 
L 29.798228 131.719484 
L 29.674501 130.731461 
L 29.606859 129.743438 
L 29.572277 128.755414 
L 29.548471 127.767391 
L 29.515758 126.779368 
L 29.458314 125.791344 
L 29.364833 124.803321 
L 29.228658 123.815298 
L 29.047584 122.827274 
L 28.823512 121.839251 
L 28.562125 120.851228 
L 28.272638 119.863204 
L 27.967628 118.875181 
L 27.662818 117.887158 
L 27.376692 116.899134 
L 27.129806 115.911111 
L 26.943714 114.923088 
L 26.839548 113.935064 
L 26.836364 112.947041 
L 26.949447 111.959018 
L 27.188835 110.970994 
L 27.558276 109.982971 
L 28.054793 108.994948 
L 28.668941 108.006924 
L 29.385705 107.018901 
L 30.185907 106.030877 
L 31.047913 105.042854 
L 31.949387 104.054831 
L 32.868886 103.066807 
L 33.787107 102.078784 
L 34.687706 101.090761 
L 35.557666 100.102737 
L 36.387283 99.114714 
L 37.16986 98.126691 
L 37.901232 97.138667 
L 38.579239 96.150644 
L 39.203225 95.162621 
L 39.773622 94.174597 
L 40.291663 93.186574 
L 40.759189 92.198551 
L 41.178575 91.210527 
L 41.552705 90.222504 
L 41.884985 89.234481 
L 42.179342 88.246457 
L 42.440182 87.258434 
L 42.672284 86.270411 
L 42.880641 85.282387 
L 43.070235 84.294364 
L 43.245815 83.306341 
L 43.411674 82.318317 
L 43.571477 81.330294 
L 43.728162 80.342271 
L 43.883896 79.354247 
L 44.040103 78.366224 
L 44.197517 77.378201 
L 44.356271 76.390177 
L 44.515986 75.402154 
L 44.67586 74.414131 
L 44.834761 73.426107 
L 44.991333 72.438084 
L 45.144094 71.450061 
L 45.291547 70.462037 
L 45.432282 69.474014 
L 45.565061 68.485991 
L 45.68888 67.497967 
L 47.256575 67.497967 
L 47.256575 67.497967 
L 47.380393 68.485991 
L 47.513173 69.474014 
L 47.653908 70.462037 
L 47.801361 71.450061 
L 47.954121 72.438084 
L 48.110693 73.426107 
L 48.269595 74.414131 
L 48.429468 75.402154 
L 48.589183 76.390177 
L 48.747938 77.378201 
L 48.905352 78.366224 
L 49.061558 79.354247 
L 49.217293 80.342271 
L 49.373978 81.330294 
L 49.533781 82.318317 
L 49.699639 83.306341 
L 49.875219 84.294364 
L 50.064814 85.282387 
L 50.27317 86.270411 
L 50.505273 87.258434 
L 50.766112 88.246457 
L 51.060469 89.234481 
L 51.392749 90.222504 
L 51.766879 91.210527 
L 52.186265 92.198551 
L 52.653792 93.186574 
L 53.171832 94.174597 
L 53.74223 95.162621 
L 54.366215 96.150644 
L 55.044222 97.138667 
L 55.775595 98.126691 
L 56.558171 99.114714 
L 57.387788 100.102737 
L 58.257748 101.090761 
L 59.158347 102.078784 
L 60.076569 103.066807 
L 60.996068 104.054831 
L 61.897542 105.042854 
L 62.759547 106.030877 
L 63.55975 107.018901 
L 64.276514 108.006924 
L 64.890662 108.994948 
L 65.387179 109.982971 
L 65.756619 110.970994 
L 65.996008 111.959018 
L 66.109091 112.947041 
L 66.105906 113.935064 
L 66.001741 114.923088 
L 65.815648 115.911111 
L 65.568762 116.899134 
L 65.282637 117.887158 
L 64.977827 118.875181 
L 64.672816 119.863204 
L 64.38333 120.851228 
L 64.121942 121.839251 
L 63.897871 122.827274 
L 63.716796 123.815298 
L 63.580621 124.803321 
L 63.48714 125.791344 
L 63.429697 126.779368 
L 63.396983 127.767391 
L 63.373178 128.755414 
L 63.338595 129.743438 
L 63.270953 130.731461 
L 63.147227 131.719484 
L 62.945927 132.707508 
L 62.649526 133.695531 
L 62.246657 134.683554 
L 61.733742 135.671578 
L 61.115761 136.659601 
L 60.405993 137.647624 
L 59.624755 138.635648 
L 58.797303 139.623671 
L 57.951187 140.611694 
L 57.113438 141.599718 
L 56.307962 142.587741 
L 55.553455 143.575764 
L 54.862068 144.563788 
L 54.238942 145.551811 
L 53.682576 146.539834 
L 53.185933 147.527858 
L 52.738074 148.515881 
L 52.32608 149.503904 
L 51.936987 150.491928 
L 51.559503 151.479951 
L 51.185291 152.467974 
L 50.809703 153.455998 
L 50.431899 154.444021 
L 50.054415 155.432045 
L 49.682292 156.420068 
L 49.321945 157.408091 
L 48.979987 158.396115 
L 48.662179 159.384138 
L 48.372676 160.372161 
L 48.113631 161.360185 
L 47.885178 162.348208 
L 47.685726 163.336231 
L 47.512462 164.324255 
L 47.361943 165.312278 
L 47.361943 165.312278 
z
" clip-path="url(#p8ed6918bb2)" style="fill: none; stroke: #000000; stroke-opacity: 0.3"/>
   </g>
   <g id="FillBetweenPolyCollection_5">
    <path d="M 50.002146 169.806042 
L 42.943308 169.806042 
L 42.570945 168.721125 
L 42.198152 167.636208 
L 41.828487 166.551292 
L 41.464588 165.466375 
L 41.108012 164.381458 
L 40.75919 163.296541 
L 40.41751 162.211624 
L 40.08154 161.126707 
L 39.74935 160.041791 
L 39.418913 158.956874 
L 39.08852 157.871957 
L 38.757168 156.78704 
L 38.424848 155.702123 
L 38.092693 154.617207 
L 37.762958 153.53229 
L 37.438808 152.447373 
L 37.123953 151.362456 
L 36.822144 150.277539 
L 36.536604 149.192622 
L 36.269466 148.107706 
L 36.021275 147.022789 
L 35.790636 145.937872 
L 35.574051 144.852955 
L 35.365968 143.768038 
L 35.159059 142.683121 
L 34.944685 141.598205 
L 34.713524 140.513288 
L 34.456297 139.428371 
L 34.164522 138.343454 
L 33.831246 137.258537 
L 33.451678 136.173621 
L 33.023695 135.088704 
L 32.548175 134.003787 
L 32.029148 132.91887 
L 31.473753 131.833953 
L 30.89202 130.749036 
L 30.296485 129.66412 
L 29.70167 128.579203 
L 29.123458 127.494286 
L 28.578395 126.409369 
L 28.082961 125.324452 
L 27.652846 124.239535 
L 27.302274 123.154619 
L 27.043406 122.069702 
L 26.885858 120.984785 
L 26.836364 119.899868 
L 26.898589 118.814951 
L 27.0731 117.730035 
L 27.357487 116.645118 
L 27.746611 115.560201 
L 28.232948 114.475284 
L 28.807003 113.390367 
L 29.457741 112.30545 
L 30.173028 111.220534 
L 30.940038 110.135617 
L 31.745627 109.0507 
L 32.576661 107.965783 
L 33.420315 106.880866 
L 34.264339 105.795949 
L 35.097313 104.711033 
L 35.90889 103.626116 
L 36.690036 102.541199 
L 37.433255 101.456282 
L 38.132775 100.371365 
L 38.784695 99.286449 
L 39.387052 98.201532 
L 39.939796 97.116615 
L 40.444664 96.031698 
L 40.904943 94.946781 
L 41.325138 93.861864 
L 41.710566 92.776948 
L 42.066906 91.692031 
L 42.39975 90.607114 
L 42.714176 89.522197 
L 43.014412 88.43728 
L 43.303579 87.352363 
L 43.583569 86.267447 
L 43.85503 85.18253 
L 44.117475 84.097613 
L 44.369476 83.012696 
L 44.608929 81.927779 
L 44.83336 80.842863 
L 45.040227 79.757946 
L 45.227208 78.673029 
L 45.39244 77.588112 
L 45.534702 76.503195 
L 45.653534 75.418278 
L 45.749277 74.333362 
L 45.82307 73.248445 
L 45.876772 72.163528 
L 45.912856 71.078611 
L 45.934258 69.993694 
L 45.944214 68.908777 
L 45.946082 67.823861 
L 45.943163 66.738944 
L 45.938539 65.654027 
L 45.934925 64.56911 
L 45.934557 63.484193 
L 45.939106 62.399277 
L 47.006349 62.399277 
L 47.006349 62.399277 
L 47.010898 63.484193 
L 47.010529 64.56911 
L 47.006916 65.654027 
L 47.002292 66.738944 
L 46.999373 67.823861 
L 47.00124 68.908777 
L 47.011197 69.993694 
L 47.032599 71.078611 
L 47.068682 72.163528 
L 47.122385 73.248445 
L 47.196177 74.333362 
L 47.291921 75.418278 
L 47.410752 76.503195 
L 47.553015 77.588112 
L 47.718247 78.673029 
L 47.905228 79.757946 
L 48.112095 80.842863 
L 48.336526 81.927779 
L 48.575979 83.012696 
L 48.827979 84.097613 
L 49.090424 85.18253 
L 49.361886 86.267447 
L 49.641876 87.352363 
L 49.931043 88.43728 
L 50.231278 89.522197 
L 50.545705 90.607114 
L 50.878548 91.692031 
L 51.234889 92.776948 
L 51.620317 93.861864 
L 52.040511 94.946781 
L 52.50079 96.031698 
L 53.005658 97.116615 
L 53.558402 98.201532 
L 54.160759 99.286449 
L 54.812679 100.371365 
L 55.512199 101.456282 
L 56.255418 102.541199 
L 57.036565 103.626116 
L 57.848142 104.711033 
L 58.681115 105.795949 
L 59.525139 106.880866 
L 60.368793 107.965783 
L 61.199828 109.0507 
L 62.005416 110.135617 
L 62.772427 111.220534 
L 63.487714 112.30545 
L 64.138452 113.390367 
L 64.712506 114.475284 
L 65.198844 115.560201 
L 65.587968 116.645118 
L 65.872355 117.730035 
L 66.046866 118.814951 
L 66.109091 119.899868 
L 66.059597 120.984785 
L 65.902049 122.069702 
L 65.64318 123.154619 
L 65.292608 124.239535 
L 64.862494 125.324452 
L 64.36706 126.409369 
L 63.821997 127.494286 
L 63.243785 128.579203 
L 62.64897 129.66412 
L 62.053435 130.749036 
L 61.471702 131.833953 
L 60.916307 132.91887 
L 60.39728 134.003787 
L 59.92176 135.088704 
L 59.493777 136.173621 
L 59.114209 137.258537 
L 58.780933 138.343454 
L 58.489158 139.428371 
L 58.231931 140.513288 
L 58.00077 141.598205 
L 57.786395 142.683121 
L 57.579486 143.768038 
L 57.371404 144.852955 
L 57.154818 145.937872 
L 56.924179 147.022789 
L 56.675988 148.107706 
L 56.40885 149.192622 
L 56.123311 150.277539 
L 55.821501 151.362456 
L 55.506646 152.447373 
L 55.182497 153.53229 
L 54.852761 154.617207 
L 54.520607 155.702123 
L 54.188287 156.78704 
L 53.856935 157.871957 
L 53.526542 158.956874 
L 53.196104 160.041791 
L 52.863915 161.126707 
L 52.527945 162.211624 
L 52.186265 163.296541 
L 51.837442 164.381458 
L 51.480867 165.466375 
L 51.116968 166.551292 
L 50.747302 167.636208 
L 50.374509 168.721125 
L 50.002146 169.806042 
L 50.002146 169.806042 
z
" clip-path="url(#p8ed6918bb2)" style="fill: none; stroke: #000000; stroke-opacity: 0.3"/>
   </g>
   <g id="FillBetweenPolyCollection_6">
    <path d="M 47.501954 169.228413 
L 45.4435 169.228413 
L 45.334368 168.14716 
L 45.227915 167.065907 
L 45.124438 165.984654 
L 45.02336 164.903401 
L 44.923254 163.822149 
L 44.821967 162.740896 
L 44.71684 161.659643 
L 44.604988 160.57839 
L 44.483582 159.497138 
L 44.35006 158.415885 
L 44.202229 157.334632 
L 44.03819 156.253379 
L 43.856094 155.172126 
L 43.653776 154.090874 
L 43.428323 153.009621 
L 43.17569 151.928368 
L 42.89047 150.847115 
L 42.5659 149.765863 
L 42.194157 148.68461 
L 41.766928 147.603357 
L 41.27621 146.522104 
L 40.715227 145.440852 
L 40.079364 144.359599 
L 39.366971 143.278346 
L 38.579946 142.197093 
L 37.724008 141.11584 
L 36.80863 140.034588 
L 35.84665 138.953335 
L 34.853602 137.872082 
L 33.846894 136.790829 
L 32.844938 135.709577 
L 31.866375 134.628324 
L 30.929474 133.547071 
L 30.05178 132.465818 
L 29.249972 131.384565 
L 28.539843 130.303313 
L 27.936293 129.22206 
L 27.453143 128.140807 
L 27.102689 127.059554 
L 26.894907 125.978302 
L 26.836364 124.897049 
L 26.928967 123.815796 
L 27.168789 122.734543 
L 27.545231 121.653291 
L 28.040803 120.572038 
L 28.631736 119.490785 
L 29.289485 118.409532 
L 29.98309 117.328279 
L 30.682119 116.247027 
L 31.359841 115.165774 
L 31.996147 114.084521 
L 32.579733 113.003268 
L 33.109168 111.922016 
L 33.592595 110.840763 
L 34.046064 109.75951 
L 34.490705 108.678257 
L 34.949194 107.597005 
L 35.442045 106.515752 
L 35.98435 105.434499 
L 36.583454 104.353246 
L 37.23794 103.271993 
L 37.938002 102.190741 
L 38.667083 101.109488 
L 39.404428 100.028235 
L 40.128055 98.946982 
L 40.817644 97.86573 
L 41.456883 96.784477 
L 42.034951 95.703224 
L 42.547037 94.621971 
L 42.993927 93.540718 
L 43.380894 92.459466 
L 43.716168 91.378213 
L 44.00931 90.29696 
L 44.26975 89.215707 
L 44.50569 88.134455 
L 44.723433 87.053202 
L 44.927149 85.971949 
L 45.118996 84.890696 
L 45.299467 83.809444 
L 45.467872 82.728191 
L 45.62282 81.646938 
L 45.762659 80.565685 
L 45.885808 79.484432 
L 45.990994 78.40318 
L 46.077388 77.321927 
L 46.144666 76.240674 
L 46.193036 75.159421 
L 46.223231 74.078169 
L 46.236504 72.996916 
L 46.234623 71.915663 
L 46.21986 70.83441 
L 46.194964 69.753158 
L 46.163099 68.671905 
L 46.127723 67.590652 
L 46.092424 66.509399 
L 46.060687 65.428146 
L 46.035637 64.346894 
L 46.019781 63.265641 
L 46.01479 62.184388 
L 46.930665 62.184388 
L 46.930665 62.184388 
L 46.925673 63.265641 
L 46.909817 64.346894 
L 46.884767 65.428146 
L 46.85303 66.509399 
L 46.817731 67.590652 
L 46.782356 68.671905 
L 46.75049 69.753158 
L 46.725595 70.83441 
L 46.710832 71.915663 
L 46.708951 72.996916 
L 46.722223 74.078169 
L 46.752418 75.159421 
L 46.800788 76.240674 
L 46.868067 77.321927 
L 46.954461 78.40318 
L 47.059647 79.484432 
L 47.182796 80.565685 
L 47.322634 81.646938 
L 47.477583 82.728191 
L 47.645987 83.809444 
L 47.826459 84.890696 
L 48.018305 85.971949 
L 48.222022 87.053202 
L 48.439764 88.134455 
L 48.675704 89.215707 
L 48.936145 90.29696 
L 49.229286 91.378213 
L 49.564561 92.459466 
L 49.951528 93.540718 
L 50.398418 94.621971 
L 50.910503 95.703224 
L 51.488572 96.784477 
L 52.12781 97.86573 
L 52.8174 98.946982 
L 53.541027 100.028235 
L 54.278371 101.109488 
L 55.007453 102.190741 
L 55.707515 103.271993 
L 56.362001 104.353246 
L 56.961105 105.434499 
L 57.503409 106.515752 
L 57.996261 107.597005 
L 58.45475 108.678257 
L 58.899391 109.75951 
L 59.352859 110.840763 
L 59.836287 111.922016 
L 60.365722 113.003268 
L 60.949308 114.084521 
L 61.585613 115.165774 
L 62.263336 116.247027 
L 62.962365 117.328279 
L 63.655969 118.409532 
L 64.313719 119.490785 
L 64.904651 120.572038 
L 65.400224 121.653291 
L 65.776665 122.734543 
L 66.016487 123.815796 
L 66.109091 124.897049 
L 66.050547 125.978302 
L 65.842766 127.059554 
L 65.492312 128.140807 
L 65.009162 129.22206 
L 64.405611 130.303313 
L 63.695483 131.384565 
L 62.893674 132.465818 
L 62.015981 133.547071 
L 61.07908 134.628324 
L 60.100516 135.709577 
L 59.098561 136.790829 
L 58.091852 137.872082 
L 57.098804 138.953335 
L 56.136824 140.034588 
L 55.221447 141.11584 
L 54.365509 142.197093 
L 53.578483 143.278346 
L 52.866091 144.359599 
L 52.230228 145.440852 
L 51.669245 146.522104 
L 51.178526 147.603357 
L 50.751298 148.68461 
L 50.379555 149.765863 
L 50.054985 150.847115 
L 49.769764 151.928368 
L 49.517131 153.009621 
L 49.291678 154.090874 
L 49.089361 155.172126 
L 48.907265 156.253379 
L 48.743225 157.334632 
L 48.595395 158.415885 
L 48.461873 159.497138 
L 48.340466 160.57839 
L 48.228614 161.659643 
L 48.123487 162.740896 
L 48.0222 163.822149 
L 47.922095 164.903401 
L 47.821017 165.984654 
L 47.717539 167.065907 
L 47.611087 168.14716 
L 47.501954 169.228413 
L 47.501954 169.228413 
z
" clip-path="url(#p8ed6918bb2)" style="fill: none; stroke: #000000; stroke-opacity: 0.3"/>
   </g>
   <g id="FillBetweenPolyCollection_7">
    <path d="M 49.5054 160.043897 
L 43.440054 160.043897 
L 43.154395 159.267568 
L 42.858632 158.49124 
L 42.553201 157.714911 
L 42.238316 156.938583 
L 41.91395 156.162254 
L 41.579818 155.385926 
L 41.2354 154.609597 
L 40.879977 153.833269 
L 40.512692 153.05694 
L 40.13263 152.280612 
L 39.738928 151.504283 
L 39.330874 150.727954 
L 38.908033 149.951626 
L 38.470349 149.175297 
L 38.018241 148.398969 
L 37.552675 147.62264 
L 37.075201 146.846312 
L 36.587951 146.069983 
L 36.093606 145.293655 
L 35.595311 144.517326 
L 35.096568 143.740998 
L 34.601091 142.964669 
L 34.11265 142.188341 
L 33.634904 141.412012 
L 33.171244 140.635684 
L 32.72465 139.859355 
L 32.297572 139.083027 
L 31.891851 138.306698 
L 31.508672 137.53037 
L 31.148555 136.754041 
L 30.811381 135.977713 
L 30.496454 135.201384 
L 30.202582 134.425056 
L 29.928173 133.648727 
L 29.67135 132.872399 
L 29.430064 132.09607 
L 29.202208 131.319742 
L 28.985728 130.543413 
L 28.778724 129.767085 
L 28.579555 128.990756 
L 28.386925 128.214428 
L 28.199966 127.438099 
L 28.018315 126.661771 
L 27.842171 125.885442 
L 27.672344 125.109114 
L 27.510285 124.332785 
L 27.358085 123.556457 
L 27.21845 122.780128 
L 27.094642 122.0038 
L 26.99039 121.227471 
L 26.90976 120.451143 
L 26.857 119.674814 
L 26.836364 118.898486 
L 26.851913 118.122157 
L 26.907328 117.345829 
L 27.00572 116.5695 
L 27.149468 115.793172 
L 27.340097 115.016843 
L 27.578189 114.240515 
L 27.863351 113.464186 
L 28.19423 112.687858 
L 28.568583 111.911529 
L 28.98338 111.1352 
L 29.434947 110.358872 
L 29.919136 109.582543 
L 30.431493 108.806215 
L 30.967429 108.029886 
L 31.522378 107.253558 
L 32.091927 106.477229 
L 32.671912 105.700901 
L 33.258486 104.924572 
L 33.848147 104.148244 
L 34.43774 103.371915 
L 35.024427 102.595587 
L 35.605642 101.819258 
L 36.179045 101.04293 
L 36.742464 100.266601 
L 37.293852 99.490273 
L 37.83126 98.713944 
L 38.352826 97.937616 
L 38.856783 97.161287 
L 39.341489 96.384959 
L 39.805471 95.60863 
L 40.24748 94.832302 
L 40.666548 94.055973 
L 41.062039 93.279645 
L 41.433696 92.503316 
L 41.781661 91.726988 
L 42.10648 90.950659 
L 42.409086 90.174331 
L 42.690753 89.398002 
L 42.953036 88.621674 
L 43.19769 87.845345 
L 43.426576 87.069017 
L 43.641574 86.292688 
L 43.844486 85.51636 
L 44.036956 84.740031 
L 44.220406 83.963703 
L 44.395981 83.187374 
L 48.549473 83.187374 
L 48.549473 83.187374 
L 48.725049 83.963703 
L 48.908498 84.740031 
L 49.100969 85.51636 
L 49.303881 86.292688 
L 49.518878 87.069017 
L 49.747765 87.845345 
L 49.992418 88.621674 
L 50.254702 89.398002 
L 50.536369 90.174331 
L 50.838975 90.950659 
L 51.163794 91.726988 
L 51.511758 92.503316 
L 51.883415 93.279645 
L 52.278907 94.055973 
L 52.697975 94.832302 
L 53.139984 95.60863 
L 53.603966 96.384959 
L 54.088671 97.161287 
L 54.592628 97.937616 
L 55.114194 98.713944 
L 55.651603 99.490273 
L 56.202991 100.266601 
L 56.76641 101.04293 
L 57.339813 101.819258 
L 57.921028 102.595587 
L 58.507714 103.371915 
L 59.097307 104.148244 
L 59.686969 104.924572 
L 60.273543 105.700901 
L 60.853528 106.477229 
L 61.423076 107.253558 
L 61.978026 108.029886 
L 62.513962 108.806215 
L 63.026318 109.582543 
L 63.510507 110.358872 
L 63.962075 111.1352 
L 64.376871 111.911529 
L 64.751224 112.687858 
L 65.082104 113.464186 
L 65.367266 114.240515 
L 65.605358 115.016843 
L 65.795987 115.793172 
L 65.939735 116.5695 
L 66.038126 117.345829 
L 66.093541 118.122157 
L 66.109091 118.898486 
L 66.088454 119.674814 
L 66.035695 120.451143 
L 65.955065 121.227471 
L 65.850813 122.0038 
L 65.727005 122.780128 
L 65.587369 123.556457 
L 65.435169 124.332785 
L 65.27311 125.109114 
L 65.103284 125.885442 
L 64.92714 126.661771 
L 64.745488 127.438099 
L 64.55853 128.214428 
L 64.3659 128.990756 
L 64.166731 129.767085 
L 63.959727 130.543413 
L 63.743246 131.319742 
L 63.51539 132.09607 
L 63.274105 132.872399 
L 63.017282 133.648727 
L 62.742873 134.425056 
L 62.449 135.201384 
L 62.134074 135.977713 
L 61.7969 136.754041 
L 61.436782 137.53037 
L 61.053603 138.306698 
L 60.647882 139.083027 
L 60.220805 139.859355 
L 59.77421 140.635684 
L 59.31055 141.412012 
L 58.832805 142.188341 
L 58.344364 142.964669 
L 57.848887 143.740998 
L 57.350144 144.517326 
L 56.851849 145.293655 
L 56.357503 146.069983 
L 55.870254 146.846312 
L 55.392779 147.62264 
L 54.927214 148.398969 
L 54.475106 149.175297 
L 54.037422 149.951626 
L 53.61458 150.727954 
L 53.206527 151.504283 
L 52.812824 152.280612 
L 52.432763 153.05694 
L 52.065477 153.833269 
L 51.710054 154.609597 
L 51.365637 155.385926 
L 51.031505 156.162254 
L 50.707138 156.938583 
L 50.392254 157.714911 
L 50.086822 158.49124 
L 49.791059 159.267568 
L 49.5054 160.043897 
L 49.5054 160.043897 
z
" clip-path="url(#p8ed6918bb2)" style="fill: none; stroke: #000000; stroke-opacity: 0.3"/>
   </g>
   <g id="FillBetweenPolyCollection_8">
    <path d="M 113.377985 171.606523 
L 110.476561 171.606523 
L 110.439144 170.820773 
L 110.40563 170.035023 
L 110.375088 169.249273 
L 110.346351 168.463523 
L 110.318039 167.677773 
L 110.288585 166.892024 
L 110.256269 166.106274 
L 110.219247 165.320524 
L 110.175579 164.534774 
L 110.123256 163.749024 
L 110.060222 162.963274 
L 109.98439 162.177524 
L 109.89366 161.391775 
L 109.785931 160.606025 
L 109.659119 159.820275 
L 109.511174 159.034525 
L 109.340112 158.248775 
L 109.144046 157.463025 
L 108.92124 156.677275 
L 108.670163 155.891526 
L 108.38957 155.105776 
L 108.078574 154.320026 
L 107.736743 153.534276 
L 107.364182 152.748526 
L 106.961619 151.962776 
L 106.530478 151.177026 
L 106.072926 150.391277 
L 105.5919 149.605527 
L 105.091094 148.819777 
L 104.574913 148.034027 
L 104.048386 147.248277 
L 103.51703 146.462527 
L 102.986689 145.676777 
L 102.463326 144.891028 
L 101.952805 144.105278 
L 101.460645 143.319528 
L 100.991785 142.533778 
L 100.550353 141.748028 
L 100.13947 140.962278 
L 99.76108 140.176528 
L 99.415847 139.390779 
L 99.103096 138.605029 
L 98.820836 137.819279 
L 98.565832 137.033529 
L 98.333761 136.247779 
L 98.119416 135.462029 
L 97.916963 134.67628 
L 97.72024 133.89053 
L 97.523077 133.10478 
L 97.319614 132.31903 
L 97.10462 131.53328 
L 96.873775 130.74753 
L 96.623912 129.96178 
L 96.3532 129.176031 
L 96.061267 128.390281 
L 95.749243 127.604531 
L 95.41974 126.818781 
L 95.076755 126.033031 
L 94.725516 125.247281 
L 94.372268 124.461531 
L 94.024019 123.675782 
L 93.688269 122.890032 
L 93.372712 122.104282 
L 93.084948 121.318532 
L 92.832216 120.532782 
L 92.621141 119.747032 
L 92.457533 118.961282 
L 92.346214 118.175533 
L 92.290909 117.389783 
L 92.294166 116.604033 
L 92.357338 115.818283 
L 92.480599 115.032533 
L 92.663 114.246783 
L 92.902557 113.461033 
L 93.196371 112.675284 
L 93.54075 111.889534 
L 93.931368 111.103784 
L 94.363408 110.318034 
L 94.831726 109.532284 
L 95.330999 108.746534 
L 95.855875 107.960784 
L 96.401107 107.175035 
L 96.961675 106.389285 
L 97.532895 105.603535 
L 98.110499 104.817785 
L 98.690702 104.032035 
L 99.270245 103.246285 
L 99.846407 102.460535 
L 100.417 101.674786 
L 100.980343 100.889036 
L 101.535206 100.103286 
L 102.080746 99.317536 
L 102.61643 98.531786 
L 103.141944 97.746036 
L 103.657109 96.960286 
L 104.16179 96.174537 
L 104.655825 95.388787 
L 105.138956 94.603037 
L 105.610784 93.817287 
L 118.243761 93.817287 
L 118.243761 93.817287 
L 118.71559 94.603037 
L 119.198721 95.388787 
L 119.692755 96.174537 
L 120.197437 96.960286 
L 120.712601 97.746036 
L 121.238116 98.531786 
L 121.773799 99.317536 
L 122.31934 100.103286 
L 122.874202 100.889036 
L 123.437545 101.674786 
L 124.008139 102.460535 
L 124.584301 103.246285 
L 125.163843 104.032035 
L 125.744047 104.817785 
L 126.32165 105.603535 
L 126.89287 106.389285 
L 127.453439 107.175035 
L 127.998671 107.960784 
L 128.523547 108.746534 
L 129.02282 109.532284 
L 129.491138 110.318034 
L 129.923178 111.103784 
L 130.313795 111.889534 
L 130.658175 112.675284 
L 130.951988 113.461033 
L 131.191546 114.246783 
L 131.373947 115.032533 
L 131.497207 115.818283 
L 131.560379 116.604033 
L 131.563636 117.389783 
L 131.508331 118.175533 
L 131.397013 118.961282 
L 131.233404 119.747032 
L 131.022329 120.532782 
L 130.769597 121.318532 
L 130.481834 122.104282 
L 130.166276 122.890032 
L 129.830526 123.675782 
L 129.482278 124.461531 
L 129.129029 125.247281 
L 128.77779 126.033031 
L 128.434806 126.818781 
L 128.105303 127.604531 
L 127.793279 128.390281 
L 127.501345 129.176031 
L 127.230634 129.96178 
L 126.980771 130.74753 
L 126.749926 131.53328 
L 126.534932 132.31903 
L 126.331469 133.10478 
L 126.134305 133.89053 
L 125.937583 134.67628 
L 125.73513 135.462029 
L 125.520784 136.247779 
L 125.288713 137.033529 
L 125.03371 137.819279 
L 124.751449 138.605029 
L 124.438699 139.390779 
L 124.093465 140.176528 
L 123.715076 140.962278 
L 123.304192 141.748028 
L 122.862761 142.533778 
L 122.393901 143.319528 
L 121.901741 144.105278 
L 121.391219 144.891028 
L 120.867857 145.676777 
L 120.337515 146.462527 
L 119.80616 147.248277 
L 119.279632 148.034027 
L 118.763452 148.819777 
L 118.262646 149.605527 
L 117.781619 150.391277 
L 117.324067 151.177026 
L 116.892926 151.962776 
L 116.490363 152.748526 
L 116.117802 153.534276 
L 115.775971 154.320026 
L 115.464976 155.105776 
L 115.184382 155.891526 
L 114.933306 156.677275 
L 114.710499 157.463025 
L 114.514433 158.248775 
L 114.343371 159.034525 
L 114.195427 159.820275 
L 114.068615 160.606025 
L 113.960886 161.391775 
L 113.870156 162.177524 
L 113.794324 162.963274 
L 113.73129 163.749024 
L 113.678967 164.534774 
L 113.635299 165.320524 
L 113.598276 166.106274 
L 113.56596 166.892024 
L 113.536507 167.677773 
L 113.508194 168.463523 
L 113.479457 169.249273 
L 113.448915 170.035023 
L 113.415401 170.820773 
L 113.377985 171.606523 
L 113.377985 171.606523 
z
" clip-path="url(#p8ed6918bb2)" style="fill: none; stroke: #000000; stroke-opacity: 0.3"/>
   </g>
   <g id="FillBetweenPolyCollection_9">
    <path d="M 119.871708 144.793803 
L 103.982838 144.793803 
L 103.396389 144.051052 
L 102.813097 143.308302 
L 102.237674 142.565552 
L 101.674662 141.822801 
L 101.128312 141.080051 
L 100.602475 140.337301 
L 100.100502 139.59455 
L 99.625159 138.8518 
L 99.178556 138.10905 
L 98.762103 137.366299 
L 98.376486 136.623549 
L 98.021666 135.880799 
L 97.696911 135.138048 
L 97.400847 134.395298 
L 97.131536 133.652548 
L 96.886575 132.909797 
L 96.663203 132.167047 
L 96.458429 131.424297 
L 96.269156 130.681547 
L 96.092306 129.938796 
L 95.924936 129.196046 
L 95.764336 128.453296 
L 95.608115 127.710545 
L 95.454256 126.967795 
L 95.301155 126.225045 
L 95.147627 125.482294 
L 94.992895 124.739544 
L 94.836557 123.996794 
L 94.678538 123.254043 
L 94.519032 122.511293 
L 94.358439 121.768543 
L 94.197305 121.025792 
L 94.036269 120.283042 
L 93.876022 119.540292 
L 93.717284 118.797542 
L 93.560792 118.054791 
L 93.407315 117.312041 
L 93.257682 116.569291 
L 93.112817 115.82654 
L 92.9738 115.08379 
L 92.841913 114.34104 
L 92.718704 113.598289 
L 92.606034 112.855539 
L 92.506111 112.112789 
L 92.421515 111.370038 
L 92.355198 110.627288 
L 92.310462 109.884538 
L 92.290909 109.141787 
L 92.300378 108.399037 
L 92.342848 107.656287 
L 92.422327 106.913537 
L 92.542728 106.170786 
L 92.707729 105.428036 
L 92.920634 104.685286 
L 93.184228 103.942535 
L 93.500648 103.199785 
L 93.871257 102.457035 
L 94.296543 101.714284 
L 94.77604 100.971534 
L 95.308277 100.228784 
L 95.890756 99.486033 
L 96.519969 98.743283 
L 97.191436 98.000533 
L 97.899795 97.257782 
L 98.638902 96.515032 
L 99.401973 95.772282 
L 100.181743 95.029531 
L 100.970637 94.286781 
L 101.760956 93.544031 
L 102.545059 92.801281 
L 103.315548 92.05853 
L 104.06543 91.31578 
L 104.788272 90.57303 
L 105.478327 89.830279 
L 106.130634 89.087529 
L 106.741095 88.344779 
L 107.306518 87.602028 
L 107.824633 86.859278 
L 108.29409 86.116528 
L 108.714422 85.373777 
L 109.085996 84.631027 
L 109.409948 83.888277 
L 109.688107 83.145526 
L 109.922903 82.402776 
L 110.117281 81.660026 
L 110.274603 80.917276 
L 110.398555 80.174525 
L 110.493053 79.431775 
L 110.562148 78.689025 
L 110.609943 77.946274 
L 110.640504 77.203524 
L 110.657779 76.460774 
L 110.665528 75.718023 
L 110.667253 74.975273 
L 110.666137 74.232523 
L 110.664996 73.489772 
L 110.666237 72.747022 
L 110.67183 72.004272 
L 110.683295 71.261521 
L 113.17125 71.261521 
L 113.17125 71.261521 
L 113.182716 72.004272 
L 113.188309 72.747022 
L 113.189549 73.489772 
L 113.188408 74.232523 
L 113.187293 74.975273 
L 113.189017 75.718023 
L 113.196767 76.460774 
L 113.214042 77.203524 
L 113.244602 77.946274 
L 113.292397 78.689025 
L 113.361493 79.431775 
L 113.45599 80.174525 
L 113.579943 80.917276 
L 113.737265 81.660026 
L 113.931643 82.402776 
L 114.166439 83.145526 
L 114.444597 83.888277 
L 114.76855 84.631027 
L 115.140124 85.373777 
L 115.560455 86.116528 
L 116.029912 86.859278 
L 116.548028 87.602028 
L 117.11345 88.344779 
L 117.723911 89.087529 
L 118.376218 89.830279 
L 119.066273 90.57303 
L 119.789115 91.31578 
L 120.538998 92.05853 
L 121.309486 92.801281 
L 122.093589 93.544031 
L 122.883908 94.286781 
L 123.672802 95.029531 
L 124.452572 95.772282 
L 125.215644 96.515032 
L 125.954751 97.257782 
L 126.663109 98.000533 
L 127.334577 98.743283 
L 127.963789 99.486033 
L 128.546269 100.228784 
L 129.078506 100.971534 
L 129.558003 101.714284 
L 129.983288 102.457035 
L 130.353897 103.199785 
L 130.670317 103.942535 
L 130.933912 104.685286 
L 131.146817 105.428036 
L 131.311818 106.170786 
L 131.432219 106.913537 
L 131.511698 107.656287 
L 131.554167 108.399037 
L 131.563636 109.141787 
L 131.544084 109.884538 
L 131.499347 110.627288 
L 131.433031 111.370038 
L 131.348435 112.112789 
L 131.248512 112.855539 
L 131.135841 113.598289 
L 131.012633 114.34104 
L 130.880746 115.08379 
L 130.741728 115.82654 
L 130.596864 116.569291 
L 130.44723 117.312041 
L 130.293754 118.054791 
L 130.137262 118.797542 
L 129.978523 119.540292 
L 129.818276 120.283042 
L 129.65724 121.025792 
L 129.496106 121.768543 
L 129.335513 122.511293 
L 129.176007 123.254043 
L 129.017988 123.996794 
L 128.86165 124.739544 
L 128.706918 125.482294 
L 128.55339 126.225045 
L 128.400289 126.967795 
L 128.246431 127.710545 
L 128.09021 128.453296 
L 127.92961 129.196046 
L 127.762239 129.938796 
L 127.58539 130.681547 
L 127.396117 131.424297 
L 127.191343 132.167047 
L 126.967971 132.909797 
L 126.723009 133.652548 
L 126.453699 134.395298 
L 126.157635 135.138048 
L 125.83288 135.880799 
L 125.478059 136.623549 
L 125.092442 137.366299 
L 124.675989 138.10905 
L 124.229387 138.8518 
L 123.754043 139.59455 
L 123.252071 140.337301 
L 122.726233 141.080051 
L 122.179883 141.822801 
L 121.616872 142.565552 
L 121.041449 143.308302 
L 120.458156 144.051052 
L 119.871708 144.793803 
L 119.871708 144.793803 
z
" clip-path="url(#p8ed6918bb2)" style="fill: none; stroke: #000000; stroke-opacity: 0.3"/>
   </g>
   <g id="FillBetweenPolyCollection_10">
    <path d="M 116.100664 153.045395 
L 107.753882 153.045395 
L 107.437148 152.332858 
L 107.113628 151.620322 
L 106.785196 150.907786 
L 106.453896 150.19525 
L 106.1219 149.482714 
L 105.791468 148.770178 
L 105.464885 148.057641 
L 105.144405 147.345105 
L 104.832179 146.632569 
L 104.530183 145.920033 
L 104.240143 145.207497 
L 103.963469 144.49496 
L 103.701186 143.782424 
L 103.453876 143.069888 
L 103.221634 142.357352 
L 103.00404 141.644816 
L 102.800138 140.93228 
L 102.608443 140.219743 
L 102.426962 139.507207 
L 102.253233 138.794671 
L 102.084383 138.082135 
L 101.917205 137.369599 
L 101.748245 136.657063 
L 101.573901 135.944526 
L 101.390537 135.23199 
L 101.194595 134.519454 
L 100.982711 133.806918 
L 100.751834 133.094382 
L 100.499329 132.381845 
L 100.223087 131.669309 
L 99.921608 130.956773 
L 99.594079 130.244237 
L 99.240434 129.531701 
L 98.861395 128.819165 
L 98.458492 128.106628 
L 98.034064 127.394092 
L 97.591239 126.681556 
L 97.133892 125.96902 
L 96.666578 125.256484 
L 96.194454 124.543948 
L 95.723177 123.831411 
L 95.258784 123.118875 
L 94.807562 122.406339 
L 94.375907 121.693803 
L 93.970172 120.981267 
L 93.596521 120.26873 
L 93.260771 119.556194 
L 92.968251 118.843658 
L 92.723669 118.131122 
L 92.530988 117.418586 
L 92.393329 116.70605 
L 92.312893 115.993513 
L 92.290909 115.280977 
L 92.327609 114.568441 
L 92.422235 113.855905 
L 92.573076 113.143369 
L 92.777529 112.430833 
L 93.032189 111.718296 
L 93.332963 111.00576 
L 93.6752 110.293224 
L 94.053833 109.580688 
L 94.463537 108.868152 
L 94.898877 108.155615 
L 95.354458 107.443079 
L 95.825068 106.730543 
L 96.305799 106.018007 
L 96.792156 105.305471 
L 97.280133 104.592935 
L 97.766281 103.880398 
L 98.24773 103.167862 
L 98.722205 102.455326 
L 99.188006 101.74279 
L 99.643974 101.030254 
L 100.089433 100.317718 
L 100.52413 99.605181 
L 100.948151 98.892645 
L 101.361849 98.180109 
L 101.765755 97.467573 
L 102.160511 96.755037 
L 102.546793 96.042501 
L 102.925259 95.329964 
L 103.296495 94.617428 
L 103.660984 93.904892 
L 104.019086 93.192356 
L 104.371022 92.47982 
L 104.71688 91.767283 
L 105.056624 91.054747 
L 105.390109 90.342211 
L 105.717103 89.629675 
L 106.037312 88.917139 
L 106.350403 88.204603 
L 106.65603 87.492066 
L 106.953849 86.77953 
L 107.243539 86.066994 
L 107.52481 85.354458 
L 107.797414 84.641922 
L 108.061146 83.929386 
L 108.315842 83.216849 
L 108.561378 82.504313 
L 115.293168 82.504313 
L 115.293168 82.504313 
L 115.538704 83.216849 
L 115.7934 83.929386 
L 116.057132 84.641922 
L 116.329736 85.354458 
L 116.611007 86.066994 
L 116.900696 86.77953 
L 117.198515 87.492066 
L 117.504142 88.204603 
L 117.817234 88.917139 
L 118.137442 89.629675 
L 118.464436 90.342211 
L 118.797921 91.054747 
L 119.137665 91.767283 
L 119.483524 92.47982 
L 119.83546 93.192356 
L 120.193561 93.904892 
L 120.558051 94.617428 
L 120.929286 95.329964 
L 121.307752 96.042501 
L 121.694035 96.755037 
L 122.08879 97.467573 
L 122.492697 98.180109 
L 122.906394 98.892645 
L 123.330416 99.605181 
L 123.765112 100.317718 
L 124.210572 101.030254 
L 124.666539 101.74279 
L 125.13234 102.455326 
L 125.606815 103.167862 
L 126.088265 103.880398 
L 126.574412 104.592935 
L 127.06239 105.305471 
L 127.548746 106.018007 
L 128.029478 106.730543 
L 128.500088 107.443079 
L 128.955669 108.155615 
L 129.391008 108.868152 
L 129.800712 109.580688 
L 130.179346 110.293224 
L 130.521582 111.00576 
L 130.822356 111.718296 
L 131.077016 112.430833 
L 131.281469 113.143369 
L 131.43231 113.855905 
L 131.526937 114.568441 
L 131.563636 115.280977 
L 131.541652 115.993513 
L 131.461216 116.70605 
L 131.323558 117.418586 
L 131.130877 118.131122 
L 130.886295 118.843658 
L 130.593775 119.556194 
L 130.258024 120.26873 
L 129.884373 120.981267 
L 129.478639 121.693803 
L 129.046983 122.406339 
L 128.595761 123.118875 
L 128.131368 123.831411 
L 127.660091 124.543948 
L 127.187968 125.256484 
L 126.720654 125.96902 
L 126.263306 126.681556 
L 125.820482 127.394092 
L 125.396054 128.106628 
L 124.993151 128.819165 
L 124.614112 129.531701 
L 124.260467 130.244237 
L 123.932938 130.956773 
L 123.631458 131.669309 
L 123.355216 132.381845 
L 123.102712 133.094382 
L 122.871834 133.806918 
L 122.659951 134.519454 
L 122.464009 135.23199 
L 122.280645 135.944526 
L 122.106301 136.657063 
L 121.93734 137.369599 
L 121.770163 138.082135 
L 121.601313 138.794671 
L 121.427584 139.507207 
L 121.246103 140.219743 
L 121.054408 140.93228 
L 120.850506 141.644816 
L 120.632911 142.357352 
L 120.40067 143.069888 
L 120.153359 143.782424 
L 119.891076 144.49496 
L 119.614402 145.207497 
L 119.324363 145.920033 
L 119.022366 146.632569 
L 118.71014 147.345105 
L 118.38966 148.057641 
L 118.063078 148.770178 
L 117.732645 149.482714 
L 117.40065 150.19525 
L 117.069349 150.907786 
L 116.740918 151.620322 
L 116.417397 152.332858 
L 116.100664 153.045395 
L 116.100664 153.045395 
z
" clip-path="url(#p8ed6918bb2)" style="fill: none; stroke: #000000; stroke-opacity: 0.3"/>
   </g>
   <g id="FillBetweenPolyCollection_11">
    <path d="M 115.634342 152.073449 
L 108.220204 152.073449 
L 107.872186 151.211532 
L 107.496464 150.349614 
L 107.091284 149.487697 
L 106.655088 148.62578 
L 106.186623 147.763863 
L 105.685041 146.901945 
L 105.150012 146.040028 
L 104.581822 145.178111 
L 103.981465 144.316193 
L 103.350717 143.454276 
L 102.692183 142.592359 
L 102.009327 141.730441 
L 101.306458 140.868524 
L 100.588692 140.006607 
L 99.861881 139.144689 
L 99.132501 138.282772 
L 98.40752 137.420855 
L 97.694233 136.558938 
L 97.000085 135.69702 
L 96.332475 134.835103 
L 95.698565 133.973186 
L 95.105081 133.111268 
L 94.558144 132.249351 
L 94.063107 131.387434 
L 93.624427 130.525516 
L 93.24557 129.663599 
L 92.928949 128.801682 
L 92.675908 127.939764 
L 92.486737 127.077847 
L 92.360725 126.21593 
L 92.296255 125.354013 
L 92.290909 124.492095 
L 92.341613 123.630178 
L 92.44478 122.768261 
L 92.596474 121.906343 
L 92.792555 121.044426 
L 93.028835 120.182509 
L 93.301202 119.320591 
L 93.605734 118.458674 
L 93.93879 117.596757 
L 94.297065 116.73484 
L 94.677627 115.872922 
L 95.077927 115.011005 
L 95.495778 114.149088 
L 95.929321 113.28717 
L 96.376966 112.425253 
L 96.83733 111.563336 
L 97.309158 110.701418 
L 97.791253 109.839501 
L 98.2824 108.977584 
L 98.781301 108.115666 
L 99.286528 107.253749 
L 99.796478 106.391832 
L 100.309356 105.529915 
L 100.823168 104.667997 
L 101.335731 103.80608 
L 101.844702 102.944163 
L 102.347617 102.082245 
L 102.841936 101.220328 
L 103.325107 100.358411 
L 103.794621 99.496493 
L 104.248075 98.634576 
L 104.683229 97.772659 
L 105.098058 96.910741 
L 105.490799 96.048824 
L 105.859983 95.186907 
L 106.204463 94.32499 
L 106.523427 93.463072 
L 106.816404 92.601155 
L 107.083256 91.739238 
L 107.324169 90.87732 
L 107.539627 90.015403 
L 107.730392 89.153486 
L 107.897475 88.291568 
L 108.042102 87.429651 
L 108.165687 86.567734 
L 108.2698 85.705817 
L 108.35614 84.843899 
L 108.42651 83.981982 
L 108.482787 83.120065 
L 108.526909 82.258147 
L 108.56085 81.39623 
L 108.586598 80.534313 
L 108.606146 79.672395 
L 108.621463 78.810478 
L 108.634483 77.948561 
L 108.647079 77.086643 
L 108.661043 76.224726 
L 108.678065 75.362809 
L 108.699702 74.500892 
L 108.727359 73.638974 
L 108.762264 72.777057 
L 108.805438 71.91514 
L 108.857685 71.053222 
L 108.919565 70.191305 
L 108.991388 69.329388 
L 109.073208 68.46747 
L 109.164818 67.605553 
L 109.265766 66.743636 
L 114.588779 66.743636 
L 114.588779 66.743636 
L 114.689727 67.605553 
L 114.781338 68.46747 
L 114.863157 69.329388 
L 114.93498 70.191305 
L 114.99686 71.053222 
L 115.049107 71.91514 
L 115.092282 72.777057 
L 115.127186 73.638974 
L 115.154844 74.500892 
L 115.176481 75.362809 
L 115.193502 76.224726 
L 115.207467 77.086643 
L 115.220063 77.948561 
L 115.233082 78.810478 
L 115.2484 79.672395 
L 115.267947 80.534313 
L 115.293696 81.39623 
L 115.327636 82.258147 
L 115.371758 83.120065 
L 115.428036 83.981982 
L 115.498405 84.843899 
L 115.584746 85.705817 
L 115.688859 86.567734 
L 115.812444 87.429651 
L 115.95707 88.291568 
L 116.124153 89.153486 
L 116.314919 90.015403 
L 116.530377 90.87732 
L 116.771289 91.739238 
L 117.038142 92.601155 
L 117.331119 93.463072 
L 117.650083 94.32499 
L 117.994563 95.186907 
L 118.363747 96.048824 
L 118.756487 96.910741 
L 119.171317 97.772659 
L 119.60647 98.634576 
L 120.059924 99.496493 
L 120.529438 100.358411 
L 121.012609 101.220328 
L 121.506929 102.082245 
L 122.009843 102.944163 
L 122.518814 103.80608 
L 123.031378 104.667997 
L 123.54519 105.529915 
L 124.058068 106.391832 
L 124.568018 107.253749 
L 125.073244 108.115666 
L 125.572146 108.977584 
L 126.063292 109.839501 
L 126.545387 110.701418 
L 127.017216 111.563336 
L 127.477579 112.425253 
L 127.925225 113.28717 
L 128.358767 114.149088 
L 128.776618 115.011005 
L 129.176918 115.872922 
L 129.55748 116.73484 
L 129.915755 117.596757 
L 130.248811 118.458674 
L 130.553344 119.320591 
L 130.825711 120.182509 
L 131.06199 121.044426 
L 131.258072 121.906343 
L 131.409765 122.768261 
L 131.512933 123.630178 
L 131.563636 124.492095 
L 131.558291 125.354013 
L 131.49382 126.21593 
L 131.367809 127.077847 
L 131.178637 127.939764 
L 130.925596 128.801682 
L 130.608976 129.663599 
L 130.230118 130.525516 
L 129.791438 131.387434 
L 129.296401 132.249351 
L 128.749464 133.111268 
L 128.155981 133.973186 
L 127.52207 134.835103 
L 126.85446 135.69702 
L 126.160312 136.558938 
L 125.447025 137.420855 
L 124.722044 138.282772 
L 123.992664 139.144689 
L 123.265853 140.006607 
L 122.548088 140.868524 
L 121.845218 141.730441 
L 121.162362 142.592359 
L 120.503829 143.454276 
L 119.87308 144.316193 
L 119.272723 145.178111 
L 118.704533 146.040028 
L 118.169504 146.901945 
L 117.667922 147.763863 
L 117.199457 148.62578 
L 116.763262 149.487697 
L 116.358081 150.349614 
L 115.982359 151.211532 
L 115.634342 152.073449 
L 115.634342 152.073449 
z
" clip-path="url(#p8ed6918bb2)" style="fill: none; stroke: #000000; stroke-opacity: 0.3"/>
   </g>
   <g id="FillBetweenPolyCollection_12">
    <path d="M 115.603585 168.467662 
L 108.25096 168.467662 
L 107.850439 167.247456 
L 107.459036 166.027251 
L 107.082493 164.807045 
L 106.72465 163.58684 
L 106.387001 162.366635 
L 106.068463 161.146429 
L 105.76542 159.926224 
L 105.472035 158.706018 
L 105.180811 157.485813 
L 104.883342 156.265608 
L 104.57115 155.045402 
L 104.236507 153.825197 
L 103.87313 152.604992 
L 103.47666 151.384786 
L 103.044884 150.164581 
L 102.577675 148.944375 
L 102.076716 147.72417 
L 101.545075 146.503965 
L 100.986723 145.283759 
L 100.40612 144.063554 
L 99.807929 142.843348 
L 99.196908 141.623143 
L 98.57797 140.402938 
L 97.956359 139.182732 
L 97.337871 137.962527 
L 96.728992 136.742322 
L 96.136906 135.522116 
L 95.569289 134.301911 
L 95.033903 133.081705 
L 94.538038 131.8615 
L 94.087894 130.641295 
L 93.688032 129.421089 
L 93.341008 128.200884 
L 93.047299 126.980678 
L 92.805557 125.760473 
L 92.61319 124.540268 
L 92.467196 123.320062 
L 92.36511 122.099857 
L 92.305942 120.879652 
L 92.290909 119.659446 
L 92.323877 118.439241 
L 92.411382 117.219035 
L 92.562235 115.99883 
L 92.786732 114.778625 
L 93.095553 113.558419 
L 93.498501 112.338214 
L 94.003214 111.118008 
L 94.614015 109.897803 
L 95.331037 108.677598 
L 96.149716 107.457392 
L 97.060713 106.237187 
L 98.050263 105.016982 
L 99.100903 103.796776 
L 100.192502 102.576571 
L 101.30347 101.356365 
L 102.412025 100.13616 
L 103.497395 98.915955 
L 104.540846 97.695749 
L 105.526472 96.475544 
L 106.441694 95.255338 
L 107.277472 94.035133 
L 108.028247 92.814928 
L 108.691683 91.594722 
L 109.268236 90.374517 
L 109.760662 89.154312 
L 110.173482 87.934106 
L 110.512492 86.713901 
L 110.784321 85.493695 
L 110.996079 84.27349 
L 111.155091 83.053285 
L 111.268707 81.833079 
L 111.344164 80.612874 
L 111.388504 79.392668 
L 111.408486 78.172463 
L 111.410513 76.952258 
L 111.400531 75.732052 
L 111.38391 74.511847 
L 111.365313 73.291642 
L 111.348559 72.071436 
L 111.336496 70.851231 
L 111.330925 69.631025 
L 111.33257 68.41082 
L 111.341126 67.190615 
L 111.355387 65.970409 
L 111.373443 64.750204 
L 111.392949 63.529998 
L 111.411415 62.309793 
L 111.426515 61.089588 
L 111.436364 59.869382 
L 111.439747 58.649177 
L 111.436264 57.428972 
L 111.42638 56.208766 
L 111.411382 54.988561 
L 111.393239 53.768355 
L 111.374388 52.54815 
L 111.357474 51.327945 
L 111.345062 50.107739 
L 111.339378 48.887534 
L 111.342084 47.667328 
L 112.512462 47.667328 
L 112.512462 47.667328 
L 112.515168 48.887534 
L 112.509484 50.107739 
L 112.497072 51.327945 
L 112.480157 52.54815 
L 112.461307 53.768355 
L 112.443164 54.988561 
L 112.428165 56.208766 
L 112.418281 57.428972 
L 112.414798 58.649177 
L 112.418182 59.869382 
L 112.428031 61.089588 
L 112.44313 62.309793 
L 112.461596 63.529998 
L 112.481102 64.750204 
L 112.499159 65.970409 
L 112.513419 67.190615 
L 112.521975 68.41082 
L 112.52362 69.631025 
L 112.518049 70.851231 
L 112.505987 72.071436 
L 112.489232 73.291642 
L 112.470636 74.511847 
L 112.454015 75.732052 
L 112.444032 76.952258 
L 112.446059 78.172463 
L 112.466042 79.392668 
L 112.510381 80.612874 
L 112.585839 81.833079 
L 112.699454 83.053285 
L 112.858467 84.27349 
L 113.070225 85.493695 
L 113.342053 86.713901 
L 113.681063 87.934106 
L 114.093884 89.154312 
L 114.586309 90.374517 
L 115.162863 91.594722 
L 115.826298 92.814928 
L 116.577074 94.035133 
L 117.412851 95.255338 
L 118.328073 96.475544 
L 119.3137 97.695749 
L 120.357151 98.915955 
L 121.44252 100.13616 
L 122.551075 101.356365 
L 123.662043 102.576571 
L 124.753642 103.796776 
L 125.804282 105.016982 
L 126.793832 106.237187 
L 127.70483 107.457392 
L 128.523509 108.677598 
L 129.24053 109.897803 
L 129.851331 111.118008 
L 130.356044 112.338214 
L 130.758992 113.558419 
L 131.067814 114.778625 
L 131.29231 115.99883 
L 131.443164 117.219035 
L 131.530669 118.439241 
L 131.563636 119.659446 
L 131.548604 120.879652 
L 131.489435 122.099857 
L 131.38735 123.320062 
L 131.241355 124.540268 
L 131.048989 125.760473 
L 130.807246 126.980678 
L 130.513537 128.200884 
L 130.166514 129.421089 
L 129.766652 130.641295 
L 129.316508 131.8615 
L 128.820642 133.081705 
L 128.285256 134.301911 
L 127.717639 135.522116 
L 127.125553 136.742322 
L 126.516675 137.962527 
L 125.898186 139.182732 
L 125.276576 140.402938 
L 124.657637 141.623143 
L 124.046616 142.843348 
L 123.448426 144.063554 
L 122.867823 145.283759 
L 122.30947 146.503965 
L 121.777829 147.72417 
L 121.276871 148.944375 
L 120.809662 150.164581 
L 120.377885 151.384786 
L 119.981416 152.604992 
L 119.618038 153.825197 
L 119.283395 155.045402 
L 118.971203 156.265608 
L 118.673734 157.485813 
L 118.38251 158.706018 
L 118.089125 159.926224 
L 117.786083 161.146429 
L 117.467545 162.366635 
L 117.129895 163.58684 
L 116.772052 164.807045 
L 116.395509 166.027251 
L 116.004107 167.247456 
L 115.603585 168.467662 
L 115.603585 168.467662 
z
" clip-path="url(#p8ed6918bb2)" style="fill: none; stroke: #000000; stroke-opacity: 0.3"/>
   </g>
   <g id="FillBetweenPolyCollection_13">
    <path d="M 114.665668 169.114915 
L 109.188877 169.114915 
L 108.980537 168.344318 
L 108.772047 167.573721 
L 108.564762 166.803124 
L 108.359875 166.032527 
L 108.158351 165.261929 
L 107.960871 164.491332 
L 107.767781 163.720735 
L 107.579054 162.950138 
L 107.394272 162.179541 
L 107.212625 161.408944 
L 107.032929 160.638347 
L 106.853673 159.86775 
L 106.673081 159.097153 
L 106.489193 158.326556 
L 106.299972 157.555959 
L 106.103409 156.785362 
L 105.897634 156.014765 
L 105.681031 155.244167 
L 105.452333 154.47357 
L 105.210704 153.702973 
L 104.955789 152.932376 
L 104.687749 152.161779 
L 104.407244 151.391182 
L 104.115405 150.620585 
L 103.813755 149.849988 
L 103.504118 149.079391 
L 103.188499 148.308794 
L 102.868955 147.538197 
L 102.547462 146.7676 
L 102.225781 145.997003 
L 101.905346 145.226406 
L 101.587167 144.455808 
L 101.271764 143.685211 
L 100.959132 142.914614 
L 100.648741 142.144017 
L 100.339573 141.37342 
L 100.030185 140.602823 
L 99.71881 139.832226 
L 99.403476 139.061629 
L 99.082144 138.291032 
L 98.752853 137.520435 
L 98.413871 136.749838 
L 98.063841 135.979241 
L 97.701916 135.208644 
L 97.327868 134.438046 
L 96.942193 133.667449 
L 96.546167 132.896852 
L 96.141896 132.126255 
L 95.732314 131.355658 
L 95.32117 130.585061 
L 94.912965 129.814464 
L 94.512878 129.043867 
L 94.12665 128.27327 
L 93.760451 127.502673 
L 93.420734 126.732076 
L 93.114056 125.961479 
L 92.846908 125.190882 
L 92.62553 124.420285 
L 92.45573 123.649687 
L 92.34271 122.87909 
L 92.290909 122.108493 
L 92.303863 121.337896 
L 92.384086 120.567299 
L 92.532983 119.796702 
L 92.750798 119.026105 
L 93.036582 118.255508 
L 93.388214 117.484911 
L 93.802438 116.714314 
L 94.274946 115.943717 
L 94.800483 115.17312 
L 95.372979 114.402523 
L 95.985708 113.631925 
L 96.631454 112.861328 
L 97.302697 112.090731 
L 97.991795 111.320134 
L 98.691174 110.549537 
L 99.3935 109.77894 
L 100.091848 109.008343 
L 100.779845 108.237746 
L 101.451796 107.467149 
L 102.102781 106.696552 
L 102.728727 105.925955 
L 103.326443 105.155358 
L 103.893638 104.384761 
L 104.428891 103.614164 
L 104.931616 102.843566 
L 105.40198 102.072969 
L 105.840823 101.302372 
L 106.24954 100.531775 
L 106.629974 99.761178 
L 106.984283 98.990581 
L 107.314827 98.219984 
L 107.624043 97.449387 
L 107.91434 96.67879 
L 108.188002 95.908193 
L 108.447113 95.137596 
L 108.693496 94.366999 
L 108.928669 93.596402 
L 109.153834 92.825804 
L 114.700712 92.825804 
L 114.700712 92.825804 
L 114.925876 93.596402 
L 115.16105 94.366999 
L 115.407432 95.137596 
L 115.666543 95.908193 
L 115.940205 96.67879 
L 116.230502 97.449387 
L 116.539718 98.219984 
L 116.870262 98.990581 
L 117.224572 99.761178 
L 117.605005 100.531775 
L 118.013723 101.302372 
L 118.452565 102.072969 
L 118.92293 102.843566 
L 119.425654 103.614164 
L 119.960908 104.384761 
L 120.528102 105.155358 
L 121.125819 105.925955 
L 121.751764 106.696552 
L 122.40275 107.467149 
L 123.074701 108.237746 
L 123.762698 109.008343 
L 124.461046 109.77894 
L 125.163372 110.549537 
L 125.862751 111.320134 
L 126.551849 112.090731 
L 127.223091 112.861328 
L 127.868837 113.631925 
L 128.481566 114.402523 
L 129.054062 115.17312 
L 129.579599 115.943717 
L 130.052107 116.714314 
L 130.466331 117.484911 
L 130.817963 118.255508 
L 131.103748 119.026105 
L 131.321562 119.796702 
L 131.47046 120.567299 
L 131.550683 121.337896 
L 131.563636 122.108493 
L 131.511836 122.87909 
L 131.398816 123.649687 
L 131.229015 124.420285 
L 131.007637 125.190882 
L 130.74049 125.961479 
L 130.433812 126.732076 
L 130.094094 127.502673 
L 129.727896 128.27327 
L 129.341667 129.043867 
L 128.94158 129.814464 
L 128.533376 130.585061 
L 128.122231 131.355658 
L 127.71265 132.126255 
L 127.308378 132.896852 
L 126.912353 133.667449 
L 126.526677 134.438046 
L 126.15263 135.208644 
L 125.790704 135.979241 
L 125.440675 136.749838 
L 125.101693 137.520435 
L 124.772401 138.291032 
L 124.451069 139.061629 
L 124.135735 139.832226 
L 123.824361 140.602823 
L 123.514973 141.37342 
L 123.205804 142.144017 
L 122.895414 142.914614 
L 122.582782 143.685211 
L 122.267379 144.455808 
L 121.949199 145.226406 
L 121.628764 145.997003 
L 121.307083 146.7676 
L 120.98559 147.538197 
L 120.666047 148.308794 
L 120.350428 149.079391 
L 120.04079 149.849988 
L 119.73914 150.620585 
L 119.447301 151.391182 
L 119.166797 152.161779 
L 118.898756 152.932376 
L 118.643842 153.702973 
L 118.402212 154.47357 
L 118.173515 155.244167 
L 117.956912 156.014765 
L 117.751137 156.785362 
L 117.554573 157.555959 
L 117.365352 158.326556 
L 117.181465 159.097153 
L 117.000872 159.86775 
L 116.821616 160.638347 
L 116.641921 161.408944 
L 116.460274 162.179541 
L 116.275492 162.950138 
L 116.086765 163.720735 
L 115.893674 164.491332 
L 115.696194 165.261929 
L 115.494671 166.032527 
L 115.289784 166.803124 
L 115.082499 167.573721 
L 114.874008 168.344318 
L 114.665668 169.114915 
L 114.665668 169.114915 
z
" clip-path="url(#p8ed6918bb2)" style="fill: none; stroke: #000000; stroke-opacity: 0.3"/>
   </g>
   <g id="FillBetweenPolyCollection_14">
    <path d="M 118.294365 159.353452 
L 105.56018 159.353452 
L 104.950882 158.541657 
L 104.335446 157.729862 
L 103.7208 156.918067 
L 103.114093 156.106272 
L 102.52249 155.294477 
L 101.952942 154.482682 
L 101.411952 153.670887 
L 100.905343 152.859092 
L 100.438032 152.047297 
L 100.013836 151.235502 
L 99.635305 150.423707 
L 99.303607 149.611912 
L 99.018474 148.800116 
L 98.778197 147.988321 
L 98.579704 147.176526 
L 98.418692 146.364731 
L 98.289822 145.552936 
L 98.18696 144.741141 
L 98.103455 143.929346 
L 98.03243 143.117551 
L 97.967075 142.305756 
L 97.900912 141.493961 
L 97.828034 140.682166 
L 97.743284 139.870371 
L 97.642384 139.058576 
L 97.522006 138.246781 
L 97.379782 137.434986 
L 97.214272 136.623191 
L 97.024898 135.811396 
L 96.811855 134.999601 
L 96.576014 134.187806 
L 96.31884 133.37601 
L 96.042315 132.564215 
L 95.748891 131.75242 
L 95.441466 130.940625 
L 95.123382 130.12883 
L 94.79843 129.317035 
L 94.470872 128.50524 
L 94.145454 127.693445 
L 93.827408 126.88165 
L 93.522426 126.069855 
L 93.236613 125.25806 
L 92.976407 124.446265 
L 92.74846 123.63447 
L 92.559493 122.822675 
L 92.416122 122.01088 
L 92.324661 121.199085 
L 92.290909 120.38729 
L 92.31994 119.575495 
L 92.415888 118.7637 
L 92.581752 117.951905 
L 92.81923 117.140109 
L 93.128586 116.328314 
L 93.508567 115.516519 
L 93.956372 114.704724 
L 94.467692 113.892929 
L 95.036805 113.081134 
L 95.65674 112.269339 
L 96.3195 111.457544 
L 97.016333 110.645749 
L 97.738035 109.833954 
L 98.475274 109.022159 
L 99.218906 108.210364 
L 99.960278 107.398569 
L 100.691486 106.586774 
L 101.405577 105.774979 
L 102.096693 104.963184 
L 102.760144 104.151389 
L 103.392409 103.339594 
L 103.991087 102.527799 
L 104.554789 101.716003 
L 105.082995 100.904208 
L 105.575898 100.092413 
L 106.034237 99.280618 
L 106.459139 98.468823 
L 106.851983 97.657028 
L 107.214292 96.845233 
L 107.54765 96.033438 
L 107.853649 95.221643 
L 108.133869 94.409848 
L 108.389867 93.598053 
L 108.623192 92.786258 
L 108.835393 91.974463 
L 109.028044 91.162668 
L 109.202753 90.350873 
L 109.36117 89.539078 
L 109.504982 88.727283 
L 109.635904 87.915488 
L 109.755661 87.103693 
L 109.865957 86.291897 
L 109.968449 85.480102 
L 110.064711 84.668307 
L 110.156204 83.856512 
L 110.244242 83.044717 
L 110.329969 82.232922 
L 110.414333 81.421127 
L 110.498071 80.609332 
L 110.581699 79.797537 
L 110.665516 78.985742 
L 113.189029 78.985742 
L 113.189029 78.985742 
L 113.272846 79.797537 
L 113.356475 80.609332 
L 113.440212 81.421127 
L 113.524576 82.232922 
L 113.610303 83.044717 
L 113.698342 83.856512 
L 113.789834 84.668307 
L 113.886096 85.480102 
L 113.988588 86.291897 
L 114.098884 87.103693 
L 114.218641 87.915488 
L 114.349564 88.727283 
L 114.493376 89.539078 
L 114.651792 90.350873 
L 114.826501 91.162668 
L 115.019153 91.974463 
L 115.231354 92.786258 
L 115.464678 93.598053 
L 115.720677 94.409848 
L 116.000896 95.221643 
L 116.306896 96.033438 
L 116.640253 96.845233 
L 117.002562 97.657028 
L 117.395406 98.468823 
L 117.820308 99.280618 
L 118.278647 100.092413 
L 118.771551 100.904208 
L 119.299757 101.716003 
L 119.863458 102.527799 
L 120.462137 103.339594 
L 121.094402 104.151389 
L 121.757852 104.963184 
L 122.448968 105.774979 
L 123.163059 106.586774 
L 123.894267 107.398569 
L 124.63564 108.210364 
L 125.379272 109.022159 
L 126.11651 109.833954 
L 126.838212 110.645749 
L 127.535045 111.457544 
L 128.197805 112.269339 
L 128.81774 113.081134 
L 129.386853 113.892929 
L 129.898173 114.704724 
L 130.345979 115.516519 
L 130.725959 116.328314 
L 131.035315 117.140109 
L 131.272794 117.951905 
L 131.438658 118.7637 
L 131.534605 119.575495 
L 131.563636 120.38729 
L 131.529885 121.199085 
L 131.438423 122.01088 
L 131.295053 122.822675 
L 131.106086 123.63447 
L 130.878139 124.446265 
L 130.617933 125.25806 
L 130.33212 126.069855 
L 130.027137 126.88165 
L 129.709091 127.693445 
L 129.383674 128.50524 
L 129.056116 129.317035 
L 128.731164 130.12883 
L 128.413079 130.940625 
L 128.105655 131.75242 
L 127.812231 132.564215 
L 127.535705 133.37601 
L 127.278531 134.187806 
L 127.042691 134.999601 
L 126.829647 135.811396 
L 126.640273 136.623191 
L 126.474763 137.434986 
L 126.332539 138.246781 
L 126.212161 139.058576 
L 126.111262 139.870371 
L 126.026512 140.682166 
L 125.953633 141.493961 
L 125.887471 142.305756 
L 125.822115 143.117551 
L 125.751091 143.929346 
L 125.667585 144.741141 
L 125.564723 145.552936 
L 125.435853 146.364731 
L 125.274842 147.176526 
L 125.076349 147.988321 
L 124.836072 148.800116 
L 124.550938 149.611912 
L 124.219241 150.423707 
L 123.840709 151.235502 
L 123.416513 152.047297 
L 122.949203 152.859092 
L 122.442593 153.670887 
L 121.901604 154.482682 
L 121.332055 155.294477 
L 120.740452 156.106272 
L 120.133746 156.918067 
L 119.5191 157.729862 
L 118.903664 158.541657 
L 118.294365 159.353452 
L 118.294365 159.353452 
z
" clip-path="url(#p8ed6918bb2)" style="fill: none; stroke: #000000; stroke-opacity: 0.3"/>
   </g>
   <g id="matplotlib.axis_1"/>
   <g id="matplotlib.axis_2">
    <g id="ytick_1">
     <g id="line2d_1">
      <defs>
       <path id="m5d9cb3bfdf" d="M 0 0 
L -3.5 0 
" style="stroke: #000000; stroke-width: 0.8"/>
      </defs>
      <g>
       <use xlink:href="#m5d9cb3bfdf" x="21.6" y="291.6" style="stroke: #000000; stroke-width: 0.8"/>
      </g>
     </g>
     <g id="text_1">
      <text style="font-size: 10px; font-family: 'DejaVu Sans', 'Bitstream Vera Sans', 'Computer Modern Sans Serif', 'Lucida Grande', 'Verdana', 'Geneva', 'Lucid', 'Arial', 'Helvetica', 'Avant Garde', sans-serif; text-anchor: end" x="14.6" y="295.399219" transform="rotate(-0 14.6 295.399219)">0.1</text>
     </g>
    </g>
    <g id="ytick_2">
     <g id="line2d_2">
      <g>
       <use xlink:href="#m5d9cb3bfdf" x="21.6" y="199.8" style="stroke: #000000; stroke-width: 0.8"/>
      </g>
     </g>
     <g id="text_2">
      <text style="font-size: 10px; font-family: 'DejaVu Sans', 'Bitstream Vera Sans', 'Computer Modern Sans Serif', 'Lucida Grande', 'Verdana', 'Geneva', 'Lucid', 'Arial', 'Helvetica', 'Avant Garde', sans-serif; text-anchor: end" x="14.6" y="203.599219" transform="rotate(-0 14.6 203.599219)">0.2</text>
     </g>
    </g>
    <g id="ytick_3">
     <g id="line2d_3">
      <g>
       <use xlink:href="#m5d9cb3bfdf" x="21.6" y="108" style="stroke: #000000; stroke-width: 0.8"/>
      </g>
     </g>
     <g id="text_3">
      <text style="font-size: 10px; font-family: 'DejaVu Sans', 'Bitstream Vera Sans', 'Computer Modern Sans Serif', 'Lucida Grande', 'Verdana', 'Geneva', 'Lucid', 'Arial', 'Helvetica', 'Avant Garde', sans-serif; text-anchor: end" x="14.6" y="111.799219" transform="rotate(-0 14.6 111.799219)">0.3</text>
     </g>
    </g>
    <g id="ytick_4">
     <g id="line2d_4">
      <g>
       <use xlink:href="#m5d9cb3bfdf" x="21.6" y="16.2" style="stroke: #000000; stroke-width: 0.8"/>
      </g>
     </g>
     <g id="text_4">
      <text style="font-size: 10px; font-family: 'DejaVu Sans', 'Bitstream Vera Sans', 'Computer Modern Sans Serif', 'Lucida Grande', 'Verdana', 'Geneva', 'Lucid', 'Arial', 'Helvetica', 'Avant Garde', sans-serif; text-anchor: end" x="14.6" y="19.999219" transform="rotate(-0 14.6 19.999219)">0.4</text>
     </g>
    </g>
    <g id="text_5">
     <text style="font-size: 14px; font-family: 'DejaVu Sans', 'Bitstream Vera Sans', 'Computer Modern Sans Serif', 'Lucida Grande', 'Verdana', 'Geneva', 'Lucid', 'Arial', 'Helvetica', 'Avant Garde', sans-serif; text-anchor: middle" x="12.928437" y="153.9" transform="rotate(-90 12.928437 153.9)">Ef</text>
    </g>
   </g>
   <g id="line2d_5">
    <path d="M 46.472727 269.568 
L 46.472727 264.06 
" clip-path="url(#p8ed6918bb2)" style="fill: none; stroke: #000000; stroke-linecap: square"/>
   </g>
   <g id="line2d_6">
    <path d="M 46.472727 269.568 
L 111.927273 269.568 
" clip-path="url(#p8ed6918bb2)" style="fill: none; stroke: #000000; stroke-linecap: square"/>
   </g>
   <g id="line2d_7">
    <path d="M 111.927273 269.568 
L 111.927273 264.06 
" clip-path="url(#p8ed6918bb2)" style="fill: none; stroke: #000000; stroke-linecap: square"/>
   </g>
   <g id="patch_3">
    <path d="M 21.6 291.6 
L 21.6 16.2 
" style="fill: none; stroke: #000000; stroke-width: 0.8; stroke-linejoin: miter; stroke-linecap: square"/>
   </g>
   <g id="patch_4">
    <path d="M 136.8 291.6 
L 136.8 16.2 
" style="fill: none; stroke: #000000; stroke-width: 0.8; stroke-linejoin: miter; stroke-linecap: square"/>
   </g>
   <g id="patch_5">
    <path d="M 21.6 291.6 
L 136.8 291.6 
" style="fill: none; stroke: #000000; stroke-width: 0.8; stroke-linejoin: miter; stroke-linecap: square"/>
   </g>
   <g id="patch_6">
    <path d="M 21.6 16.2 
L 136.8 16.2 
" style="fill: none; stroke: #000000; stroke-width: 0.8; stroke-linejoin: miter; stroke-linecap: square"/>
   </g>
   <g id="text_6">
    <text style="font-weight: 700; font-size: 12px; font-family: 'DejaVu Sans', 'Bitstream Vera Sans', 'Computer Modern Sans Serif', 'Lucida Grande', 'Verdana', 'Geneva', 'Lucid', 'Arial', 'Helvetica', 'Avant Garde', sans-serif; text-anchor: middle" x="46.472727" y="289.104375" transform="rotate(-0 46.472727 289.104375)">#7</text>
   </g>
   <g id="text_7">
    <text style="font-weight: 700; font-size: 12px; font-family: 'DejaVu Sans', 'Bitstream Vera Sans', 'Computer Modern Sans Serif', 'Lucida Grande', 'Verdana', 'Geneva', 'Lucid', 'Arial', 'Helvetica', 'Avant Garde', sans-serif; text-anchor: middle" x="111.927273" y="289.104375" transform="rotate(-0 111.927273 289.104375)">#13</text>
   </g>
   <g id="text_8">
    <text style="font-size: 12px; font-family: 'DejaVu Sans', 'Bitstream Vera Sans', 'Computer Modern Sans Serif', 'Lucida Grande', 'Verdana', 'Geneva', 'Lucid', 'Arial', 'Helvetica', 'Avant Garde', sans-serif; text-anchor: middle" x="79.2" y="268.449375" transform="rotate(-0 79.2 268.449375)">ns</text>
   </g>
   <g id="line2d_8">
    <path d="M 21.6 122.254909 
L 136.8 122.254909 
" clip-path="url(#p8ed6918bb2)" style="fill: none; stroke-dasharray: 3.7,1.6; stroke-dashoffset: 0; stroke: #808080; stroke-opacity: 0.7"/>
   </g>
   <g id="line2d_9">
    <path d="M 21.6 121.308249 
L 136.8 121.308249 
" clip-path="url(#p8ed6918bb2)" style="fill: none; stroke-dasharray: 3.7,1.6; stroke-dashoffset: 0; stroke: #808080; stroke-opacity: 0.7"/>
   </g>
   <g id="LineCollection_1">
    <path d="M 46.472727 124.07137 
L 46.472727 120.438447 
" clip-path="url(#p8ed6918bb2)" style="fill: none; stroke: #000000; stroke-width: 2"/>
   </g>
   <g id="line2d_10">
    <defs>
     <path id="md33f439933" d="M 5 0 
L -5 -0 
" style="stroke: #000000; stroke-width: 2"/>
    </defs>
    <g clip-path="url(#p8ed6918bb2)">
     <use xlink:href="#md33f439933" x="46.472727" y="124.07137" style="stroke: #000000; stroke-width: 2"/>
    </g>
   </g>
   <g id="line2d_11">
    <g clip-path="url(#p8ed6918bb2)">
     <use xlink:href="#md33f439933" x="46.472727" y="120.438447" style="stroke: #000000; stroke-width: 2"/>
    </g>
   </g>
   <g id="LineCollection_2">
    <path d="M 111.927273 125.420726 
L 111.927273 117.195773 
" clip-path="url(#p8ed6918bb2)" style="fill: none; stroke: #000000; stroke-width: 2"/>
   </g>
   <g id="line2d_12">
    <g clip-path="url(#p8ed6918bb2)">
     <use xlink:href="#md33f439933" x="111.927273" y="125.420726" style="stroke: #000000; stroke-width: 2"/>
    </g>
   </g>
   <g id="line2d_13">
    <g clip-path="url(#p8ed6918bb2)">
     <use xlink:href="#md33f439933" x="111.927273" y="117.195773" style="stroke: #000000; stroke-width: 2"/>
    </g>
   </g>
   <g id="line2d_14">
    <defs>
     <path id="m0cb8ae3c7c" d="M 0 4 
C 1.060812 4 2.078319 3.578535 2.828427 2.828427 
C 3.578535 2.078319 4 1.060812 4 0 
C 4 -1.060812 3.578535 -2.078319 2.828427 -2.828427 
C 2.078319 -3.578535 1.060812 -4 0 -4 
C -1.060812 -4 -2.078319 -3.578535 -2.828427 -2.828427 
C -3.578535 -2.078319 -4 -1.060812 -4 0 
C -4 1.060812 -3.578535 2.078319 -2.828427 2.828427 
C -2.078319 3.578535 -1.060812 4 0 4 
z
" style="stroke: #000000"/>
    </defs>
    <g clip-path="url(#p8ed6918bb2)">
     <use xlink:href="#m0cb8ae3c7c" x="46.472727" y="122.254909" style="stroke: #000000"/>
    </g>
   </g>
   <g id="line2d_15">
    <g clip-path="url(#p8ed6918bb2)">
     <use xlink:href="#m0cb8ae3c7c" x="111.927273" y="121.308249" style="stroke: #000000"/>
    </g>
   </g>
  </g>
 </g>
 <defs>
  <clipPath id="p8ed6918bb2">
   <rect x="21.6" y="16.2" width="115.2" height="275.4"/>
  </clipPath>
 </defs>
</svg>
