<?xml version="1.0" encoding="utf-8" standalone="no"?>
<!DOCTYPE svg PUBLIC "-//W3C//DTD SVG 1.1//EN"
  "http://www.w3.org/Graphics/SVG/1.1/DTD/svg11.dtd">
<svg xmlns:xlink="http://www.w3.org/1999/xlink" width="144pt" height="324pt" viewBox="0 0 144 324" xmlns="http://www.w3.org/2000/svg" version="1.1">
 <metadata>
  <rdf:RDF xmlns:dc="http://purl.org/dc/elements/1.1/" xmlns:cc="http://creativecommons.org/ns#" xmlns:rdf="http://www.w3.org/1999/02/22-rdf-syntax-ns#">
   <cc:Work>
    <dc:type rdf:resource="http://purl.org/dc/dcmitype/StillImage"/>
    <dc:date>2025-12-05T14:51:42.954586</dc:date>
    <dc:format>image/svg+xml</dc:format>
    <dc:creator>
     <cc:Agent>
      <dc:title>Matplotlib v3.10.0, https://matplotlib.org/</dc:title>
     </cc:Agent>
    </dc:creator>
   </cc:Work>
  </rdf:RDF>
 </metadata>
 <defs>
  <style type="text/css">*{stroke-linejoin: round; stroke-linecap: butt}</style>
 </defs>
 <g id="figure_1">
  <g id="patch_1">
   <path d="M 0 324 
L 144 324 
L 144 0 
L 0 0 
z
" style="fill: #ffffff"/>
  </g>
  <g id="axes_1">
   <g id="patch_2">
    <path d="M 21.6 291.6 
L 136.8 291.6 
L 136.8 16.2 
L 21.6 16.2 
z
" style="fill: #ffffff"/>
   </g>
   <g id="FillBetweenPolyCollection_1">
    <path d="M 47.731097 178.049598 
L 45.214358 178.049598 
L 45.080869 177.002478 
L 44.945433 175.955358 
L 44.80917 174.908238 
L 44.672979 173.861117 
L 44.537441 172.813997 
L 44.402731 171.766877 
L 44.268563 170.719757 
L 44.134181 169.672636 
L 43.998405 168.625516 
L 43.859736 167.578396 
L 43.7165 166.531275 
L 43.567033 165.484155 
L 43.409854 164.437035 
L 43.243809 163.389915 
L 43.068145 162.342794 
L 42.882506 161.295674 
L 42.68682 160.248554 
L 42.481109 159.201434 
L 42.265246 158.154313 
L 42.03869 157.107193 
L 41.800277 156.060073 
L 41.54808 155.012953 
L 41.279412 153.965832 
L 40.990964 152.918712 
L 40.679074 151.871592 
L 40.34011 150.824472 
L 39.97089 149.777351 
L 39.569101 148.730231 
L 39.133649 147.683111 
L 38.664875 146.635991 
L 38.164635 145.58887 
L 37.636217 144.54175 
L 37.084124 143.49463 
L 36.513765 142.44751 
L 35.931101 141.400389 
L 35.342294 140.353269 
L 34.753415 139.306149 
L 34.170229 138.259029 
L 33.598053 137.211908 
L 33.041701 136.164788 
L 32.505453 135.117668 
L 31.993044 134.070548 
L 31.507612 133.023427 
L 31.051613 131.976307 
L 30.626672 130.929187 
L 30.233417 129.882067 
L 29.871315 128.834946 
L 29.538579 127.787826 
L 29.2322 126.740706 
L 28.948141 125.693586 
L 28.681737 124.646465 
L 28.428282 123.599345 
L 28.183773 122.552225 
L 27.945725 121.505104 
L 27.713961 120.457984 
L 27.491262 119.410864 
L 27.283753 118.363744 
L 27.100947 117.316623 
L 26.955384 116.269503 
L 26.861871 115.222383 
L 26.836364 114.175263 
L 26.894607 113.128142 
L 27.050675 112.081022 
L 27.315566 111.033902 
L 27.696036 109.986782 
L 28.193789 108.939661 
L 28.805135 107.892541 
L 29.521144 106.845421 
L 30.32827 105.798301 
L 31.20937 104.75118 
L 32.144973 103.70406 
L 33.114669 102.65694 
L 34.098432 101.60982 
L 35.077772 100.562699 
L 36.036592 99.515579 
L 36.961717 98.468459 
L 37.843067 97.421339 
L 38.673549 96.374218 
L 39.448707 95.327098 
L 40.166239 94.279978 
L 40.825478 93.232858 
L 41.426892 92.185737 
L 41.971692 91.138617 
L 42.461552 90.091497 
L 42.898466 89.044377 
L 43.284708 87.997256 
L 43.622877 86.950136 
L 43.91597 85.903016 
L 44.167456 84.855896 
L 44.381313 83.808775 
L 44.562 82.761655 
L 44.714367 81.714535 
L 44.84349 80.667415 
L 44.954474 79.620294 
L 45.052212 78.573174 
L 45.141154 77.526054 
L 45.225108 76.478933 
L 45.307083 75.431813 
L 45.389203 74.384693 
L 47.556252 74.384693 
L 47.556252 74.384693 
L 47.638371 75.431813 
L 47.720347 76.478933 
L 47.804301 77.526054 
L 47.893243 78.573174 
L 47.99098 79.620294 
L 48.101964 80.667415 
L 48.231088 81.714535 
L 48.383454 82.761655 
L 48.564141 83.808775 
L 48.777998 84.855896 
L 49.029485 85.903016 
L 49.322577 86.950136 
L 49.660746 87.997256 
L 50.046989 89.044377 
L 50.483903 90.091497 
L 50.973763 91.138617 
L 51.518562 92.185737 
L 52.119977 93.232858 
L 52.779215 94.279978 
L 53.496748 95.327098 
L 54.271905 96.374218 
L 55.102387 97.421339 
L 55.983738 98.468459 
L 56.908862 99.515579 
L 57.867683 100.562699 
L 58.847023 101.60982 
L 59.830785 102.65694 
L 60.800481 103.70406 
L 61.736085 104.75118 
L 62.617184 105.798301 
L 63.42431 106.845421 
L 64.140319 107.892541 
L 64.751666 108.939661 
L 65.249419 109.986782 
L 65.629889 111.033902 
L 65.89478 112.081022 
L 66.050847 113.128142 
L 66.109091 114.175263 
L 66.083583 115.222383 
L 65.99007 116.269503 
L 65.844508 117.316623 
L 65.661702 118.363744 
L 65.454192 119.410864 
L 65.231493 120.457984 
L 64.99973 121.505104 
L 64.761682 122.552225 
L 64.517173 123.599345 
L 64.263718 124.646465 
L 63.997313 125.693586 
L 63.713254 126.740706 
L 63.406875 127.787826 
L 63.07414 128.834946 
L 62.712038 129.882067 
L 62.318782 130.929187 
L 61.893842 131.976307 
L 61.437843 133.023427 
L 60.952411 134.070548 
L 60.440001 135.117668 
L 59.903754 136.164788 
L 59.347401 137.211908 
L 58.775226 138.259029 
L 58.192039 139.306149 
L 57.603161 140.353269 
L 57.014354 141.400389 
L 56.431689 142.44751 
L 55.861331 143.49463 
L 55.309238 144.54175 
L 54.78082 145.58887 
L 54.28058 146.635991 
L 53.811806 147.683111 
L 53.376353 148.730231 
L 52.974565 149.777351 
L 52.605344 150.824472 
L 52.26638 151.871592 
L 51.954491 152.918712 
L 51.666043 153.965832 
L 51.397375 155.012953 
L 51.145178 156.060073 
L 50.906764 157.107193 
L 50.680209 158.154313 
L 50.464345 159.201434 
L 50.258635 160.248554 
L 50.062948 161.295674 
L 49.877309 162.342794 
L 49.701646 163.389915 
L 49.5356 164.437035 
L 49.378421 165.484155 
L 49.228955 166.531275 
L 49.085719 167.578396 
L 48.947049 168.625516 
L 48.811274 169.672636 
L 48.676891 170.719757 
L 48.542723 171.766877 
L 48.408013 172.813997 
L 48.272475 173.861117 
L 48.136285 174.908238 
L 48.000021 175.955358 
L 47.864585 177.002478 
L 47.731097 178.049598 
L 47.731097 178.049598 
z
" clip-path="url(#p2fe4097235)" style="fill: none; stroke: #000000; stroke-opacity: 0.3"/>
   </g>
   <g id="FillBetweenPolyCollection_2">
    <path d="M 46.861131 215.777143 
L 46.084323 215.777143 
L 46.090977 214.319532 
L 46.110262 212.861922 
L 46.140263 211.404312 
L 46.178139 209.946701 
L 46.220567 208.489091 
L 46.264216 207.03148 
L 46.306165 205.57387 
L 46.344192 204.116259 
L 46.376902 202.658649 
L 46.403702 201.201038 
L 46.424668 199.743428 
L 46.440339 198.285818 
L 46.451506 196.828207 
L 46.459009 195.370597 
L 46.463585 193.912986 
L 46.465744 192.455376 
L 46.465676 190.997765 
L 46.463167 189.540155 
L 46.457517 188.082544 
L 46.447449 186.624934 
L 46.431023 185.167323 
L 46.405578 183.709713 
L 46.367736 182.252103 
L 46.313504 180.794492 
L 46.238517 179.336882 
L 46.138422 177.879271 
L 46.009376 176.421661 
L 45.848605 174.96405 
L 45.654905 173.50644 
L 45.428966 172.048829 
L 45.173418 170.591219 
L 44.892526 169.133609 
L 44.591557 167.675998 
L 44.275908 166.218388 
L 43.950164 164.760777 
L 43.617268 163.303167 
L 43.277984 161.845556 
L 42.930748 160.387946 
L 42.57194 158.930335 
L 42.196505 157.472725 
L 41.798775 156.015114 
L 41.373321 154.557504 
L 40.91564 153.099894 
L 40.422521 151.642283 
L 39.891993 150.184673 
L 39.322862 148.727062 
L 38.713949 147.269452 
L 38.063271 145.811841 
L 37.367485 144.354231 
L 36.621932 142.89662 
L 35.821535 141.43901 
L 34.96259 139.9814 
L 34.045249 138.523789 
L 33.076209 137.066179 
L 32.070947 135.608568 
L 31.0548 134.150958 
L 30.062366 132.693347 
L 29.135029 131.235737 
L 28.31687 129.778126 
L 27.649605 128.320516 
L 27.167529 126.862905 
L 26.893438 125.405295 
L 26.836364 123.947685 
L 26.991475 122.490074 
L 27.342067 121.032464 
L 27.863037 119.574853 
L 28.524988 118.117243 
L 29.298067 116.659632 
L 30.154779 115.202022 
L 31.071445 113.744411 
L 32.028297 112.286801 
L 33.00857 110.829191 
L 33.997128 109.37158 
L 34.979162 107.91397 
L 35.939417 106.456359 
L 36.862147 104.998749 
L 37.731849 103.541138 
L 38.534573 102.083528 
L 39.259506 100.625917 
L 39.90046 99.168307 
L 40.456906 97.710696 
L 40.934263 96.253086 
L 41.343315 94.795476 
L 41.698781 93.337865 
L 42.017267 91.880255 
L 42.314937 90.422644 
L 42.605348 88.965034 
L 42.897836 87.507423 
L 43.196733 86.049813 
L 43.50151 84.592202 
L 43.807744 83.134592 
L 44.108631 81.676982 
L 44.396691 80.219371 
L 44.665302 78.761761 
L 44.90979 77.30415 
L 45.12793 75.84654 
L 45.319868 74.388929 
L 45.487596 72.931319 
L 45.634185 71.473708 
L 47.31127 71.473708 
L 47.31127 71.473708 
L 47.457858 72.931319 
L 47.625587 74.388929 
L 47.817525 75.84654 
L 48.035664 77.30415 
L 48.280152 78.761761 
L 48.548763 80.219371 
L 48.836823 81.676982 
L 49.13771 83.134592 
L 49.443944 84.592202 
L 49.748722 86.049813 
L 50.047618 87.507423 
L 50.340106 88.965034 
L 50.630518 90.422644 
L 50.928188 91.880255 
L 51.246673 93.337865 
L 51.60214 94.795476 
L 52.011191 96.253086 
L 52.488548 97.710696 
L 53.044995 99.168307 
L 53.685949 100.625917 
L 54.410881 102.083528 
L 55.213605 103.541138 
L 56.083308 104.998749 
L 57.006038 106.456359 
L 57.966292 107.91397 
L 58.948327 109.37158 
L 59.936884 110.829191 
L 60.917157 112.286801 
L 61.874009 113.744411 
L 62.790676 115.202022 
L 63.647388 116.659632 
L 64.420466 118.117243 
L 65.082418 119.574853 
L 65.603387 121.032464 
L 65.953979 122.490074 
L 66.109091 123.947685 
L 66.052016 125.405295 
L 65.777926 126.862905 
L 65.295849 128.320516 
L 64.628585 129.778126 
L 63.810425 131.235737 
L 62.883089 132.693347 
L 61.890654 134.150958 
L 60.874508 135.608568 
L 59.869246 137.066179 
L 58.900206 138.523789 
L 57.982864 139.9814 
L 57.123919 141.43901 
L 56.323522 142.89662 
L 55.57797 144.354231 
L 54.882183 145.811841 
L 54.231505 147.269452 
L 53.622593 148.727062 
L 53.053462 150.184673 
L 52.522933 151.642283 
L 52.029814 153.099894 
L 51.572134 154.557504 
L 51.14668 156.015114 
L 50.74895 157.472725 
L 50.373515 158.930335 
L 50.014707 160.387946 
L 49.66747 161.845556 
L 49.328186 163.303167 
L 48.995291 164.760777 
L 48.669547 166.218388 
L 48.353898 167.675998 
L 48.052928 169.133609 
L 47.772036 170.591219 
L 47.516488 172.048829 
L 47.29055 173.50644 
L 47.09685 174.96405 
L 46.936079 176.421661 
L 46.807033 177.879271 
L 46.706938 179.336882 
L 46.631951 180.794492 
L 46.577719 182.252103 
L 46.539876 183.709713 
L 46.514432 185.167323 
L 46.498006 186.624934 
L 46.487938 188.082544 
L 46.482288 189.540155 
L 46.479779 190.997765 
L 46.47971 192.455376 
L 46.48187 193.912986 
L 46.486446 195.370597 
L 46.493949 196.828207 
L 46.505115 198.285818 
L 46.520787 199.743428 
L 46.541752 201.201038 
L 46.568553 202.658649 
L 46.601262 204.116259 
L 46.639289 205.57387 
L 46.681239 207.03148 
L 46.724887 208.489091 
L 46.767315 209.946701 
L 46.805192 211.404312 
L 46.835193 212.861922 
L 46.854478 214.319532 
L 46.861131 215.777143 
L 46.861131 215.777143 
z
" clip-path="url(#p2fe4097235)" style="fill: none; stroke: #000000; stroke-opacity: 0.3"/>
   </g>
   <g id="FillBetweenPolyCollection_3">
    <path d="M 46.834898 197.650543 
L 46.110557 197.650543 
L 46.106511 196.127146 
L 46.108947 194.603749 
L 46.114373 193.080353 
L 46.118295 191.556956 
L 46.115835 190.033559 
L 46.102432 188.510162 
L 46.074517 186.986765 
L 46.03002 185.463368 
L 45.968624 183.939971 
L 45.891687 182.416575 
L 45.801842 180.893178 
L 45.702308 179.369781 
L 45.596034 177.846384 
L 45.484824 176.322987 
L 45.368604 174.79959 
L 45.244997 173.276193 
L 45.109292 171.752796 
L 44.954817 170.2294 
L 44.773634 168.706003 
L 44.55737 167.182606 
L 44.297991 165.659209 
L 43.988318 164.135812 
L 43.622204 162.612415 
L 43.194401 161.089018 
L 42.700292 159.565622 
L 42.135726 158.042225 
L 41.497188 156.518828 
L 40.782431 154.995431 
L 39.991516 153.472034 
L 39.128019 151.948637 
L 38.200077 150.42524 
L 37.220903 148.901844 
L 36.208549 147.378447 
L 35.184873 145.85505 
L 34.173867 144.331653 
L 33.199642 142.808256 
L 32.284405 141.284859 
L 31.446662 139.761462 
L 30.699822 138.238065 
L 30.051231 136.714669 
L 29.501673 135.191272 
L 29.045364 133.667875 
L 28.670577 132.144478 
L 28.361016 130.621081 
L 28.098002 129.097684 
L 27.86339 127.574287 
L 27.642889 126.050891 
L 27.429244 124.527494 
L 27.224632 123.004097 
L 27.041651 121.4807 
L 26.902509 119.957303 
L 26.836364 118.433906 
L 26.875167 116.910509 
L 27.048733 115.387113 
L 27.379949 113.863716 
L 27.881027 112.340319 
L 28.551494 110.816922 
L 29.378192 109.293525 
L 30.337119 107.770128 
L 31.396572 106.246731 
L 32.520828 104.723335 
L 33.673635 103.199938 
L 34.821003 101.676541 
L 35.933117 100.153144 
L 36.98546 98.629747 
L 37.959443 97.10635 
L 38.842764 95.582953 
L 39.629621 94.059556 
L 40.32069 92.53616 
L 40.92266 91.012763 
L 41.447143 89.489366 
L 41.908921 87.965969 
L 42.323721 86.442572 
L 42.705895 84.919175 
L 43.066489 83.395778 
L 43.412084 81.872382 
L 43.744617 80.348985 
L 44.062142 78.825588 
L 44.360229 77.302191 
L 44.633624 75.778794 
L 44.877737 74.255397 
L 45.089672 72.732 
L 45.268646 71.208604 
L 45.415843 69.685207 
L 45.533857 68.16181 
L 45.625969 66.638413 
L 45.695466 65.115016 
L 45.74521 63.591619 
L 45.777519 62.068222 
L 45.794368 60.544825 
L 45.797788 59.021429 
L 45.790333 57.498032 
L 45.775407 55.974635 
L 45.757349 54.451238 
L 45.741175 52.927841 
L 45.732042 51.404444 
L 45.734528 49.881047 
L 45.751916 48.357651 
L 45.785658 46.834254 
L 47.159797 46.834254 
L 47.159797 46.834254 
L 47.193539 48.357651 
L 47.210927 49.881047 
L 47.213412 51.404444 
L 47.204279 52.927841 
L 47.188105 54.451238 
L 47.170047 55.974635 
L 47.155122 57.498032 
L 47.147666 59.021429 
L 47.151087 60.544825 
L 47.167935 62.068222 
L 47.200245 63.591619 
L 47.249989 65.115016 
L 47.319486 66.638413 
L 47.411597 68.16181 
L 47.529612 69.685207 
L 47.676808 71.208604 
L 47.855782 72.732 
L 48.067717 74.255397 
L 48.311831 75.778794 
L 48.585226 77.302191 
L 48.883313 78.825588 
L 49.200837 80.348985 
L 49.533371 81.872382 
L 49.878965 83.395778 
L 50.23956 84.919175 
L 50.621734 86.442572 
L 51.036533 87.965969 
L 51.498311 89.489366 
L 52.022794 91.012763 
L 52.624764 92.53616 
L 53.315834 94.059556 
L 54.102691 95.582953 
L 54.986012 97.10635 
L 55.959995 98.629747 
L 57.012338 100.153144 
L 58.124451 101.676541 
L 59.27182 103.199938 
L 60.424626 104.723335 
L 61.548883 106.246731 
L 62.608335 107.770128 
L 63.567262 109.293525 
L 64.39396 110.816922 
L 65.064428 112.340319 
L 65.565506 113.863716 
L 65.896721 115.387113 
L 66.070288 116.910509 
L 66.109091 118.433906 
L 66.042946 119.957303 
L 65.903804 121.4807 
L 65.720822 123.004097 
L 65.51621 124.527494 
L 65.302566 126.050891 
L 65.082065 127.574287 
L 64.847453 129.097684 
L 64.584438 130.621081 
L 64.274877 132.144478 
L 63.900091 133.667875 
L 63.443782 135.191272 
L 62.894223 136.714669 
L 62.245633 138.238065 
L 61.498792 139.761462 
L 60.661049 141.284859 
L 59.745812 142.808256 
L 58.771588 144.331653 
L 57.760581 145.85505 
L 56.736906 147.378447 
L 55.724552 148.901844 
L 54.745378 150.42524 
L 53.817436 151.948637 
L 52.953939 153.472034 
L 52.163023 154.995431 
L 51.448267 156.518828 
L 50.809728 158.042225 
L 50.245162 159.565622 
L 49.751053 161.089018 
L 49.32325 162.612415 
L 48.957136 164.135812 
L 48.647464 165.659209 
L 48.388085 167.182606 
L 48.171821 168.706003 
L 47.990637 170.2294 
L 47.836162 171.752796 
L 47.700457 173.276193 
L 47.576851 174.79959 
L 47.460631 176.322987 
L 47.349421 177.846384 
L 47.243147 179.369781 
L 47.143612 180.893178 
L 47.053767 182.416575 
L 46.976831 183.939971 
L 46.915435 185.463368 
L 46.870938 186.986765 
L 46.843022 188.510162 
L 46.82962 190.033559 
L 46.82716 191.556956 
L 46.831082 193.080353 
L 46.836507 194.603749 
L 46.838944 196.127146 
L 46.834898 197.650543 
L 46.834898 197.650543 
z
" clip-path="url(#p2fe4097235)" style="fill: none; stroke: #000000; stroke-opacity: 0.3"/>
   </g>
   <g id="FillBetweenPolyCollection_4">
    <path d="M 47.361943 165.312278 
L 45.583511 165.312278 
L 45.432992 164.324255 
L 45.259729 163.336231 
L 45.060277 162.348208 
L 44.831824 161.360185 
L 44.572779 160.372161 
L 44.283275 159.384138 
L 43.965468 158.396115 
L 43.623509 157.408091 
L 43.263163 156.420068 
L 42.891039 155.432045 
L 42.513555 154.444021 
L 42.135751 153.455998 
L 41.760163 152.467974 
L 41.385952 151.479951 
L 41.008467 150.491928 
L 40.619374 149.503904 
L 40.20738 148.515881 
L 39.759522 147.527858 
L 39.262878 146.539834 
L 38.706512 145.551811 
L 38.083386 144.563788 
L 37.392 143.575764 
L 36.637492 142.587741 
L 35.832016 141.599718 
L 34.994268 140.611694 
L 34.148151 139.623671 
L 33.320699 138.635648 
L 32.539462 137.647624 
L 31.829694 136.659601 
L 31.211712 135.671578 
L 30.698798 134.683554 
L 30.295928 133.695531 
L 29.999527 132.707508 
L 29.798228 131.719484 
L 29.674501 130.731461 
L 29.606859 129.743438 
L 29.572277 128.755414 
L 29.548471 127.767391 
L 29.515758 126.779368 
L 29.458314 125.791344 
L 29.364833 124.803321 
L 29.228658 123.815298 
L 29.047584 122.827274 
L 28.823512 121.839251 
L 28.562125 120.851228 
L 28.272638 119.863204 
L 27.967628 118.875181 
L 27.662818 117.887158 
L 27.376692 116.899134 
L 27.129806 115.911111 
L 26.943714 114.923088 
L 26.839548 113.935064 
L 26.836364 112.947041 
L 26.949447 111.959018 
L 27.188835 110.970994 
L 27.558276 109.982971 
L 28.054793 108.994948 
L 28.668941 108.006924 
L 29.385705 107.018901 
L 30.185907 106.030877 
L 31.047913 105.042854 
L 31.949387 104.054831 
L 32.868886 103.066807 
L 33.787107 102.078784 
L 34.687706 101.090761 
L 35.557666 100.102737 
L 36.387283 99.114714 
L 37.16986 98.126691 
L 37.901232 97.138667 
L 38.579239 96.150644 
L 39.203225 95.162621 
L 39.773622 94.174597 
L 40.291663 93.186574 
L 40.759189 92.198551 
L 41.178575 91.210527 
L 41.552705 90.222504 
L 41.884985 89.234481 
L 42.179342 88.246457 
L 42.440182 87.258434 
L 42.672284 86.270411 
L 42.880641 85.282387 
L 43.070235 84.294364 
L 43.245815 83.306341 
L 43.411674 82.318317 
L 43.571477 81.330294 
L 43.728162 80.342271 
L 43.883896 79.354247 
L 44.040103 78.366224 
L 44.197517 77.378201 
L 44.356271 76.390177 
L 44.515986 75.402154 
L 44.67586 74.414131 
L 44.834761 73.426107 
L 44.991333 72.438084 
L 45.144094 71.450061 
L 45.291547 70.462037 
L 45.432282 69.474014 
L 45.565061 68.485991 
L 45.68888 67.497967 
L 47.256575 67.497967 
L 47.256575 67.497967 
L 47.380393 68.485991 
L 47.513173 69.474014 
L 47.653908 70.462037 
L 47.801361 71.450061 
L 47.954121 72.438084 
L 48.110693 73.426107 
L 48.269595 74.414131 
L 48.429468 75.402154 
L 48.589183 76.390177 
L 48.747938 77.378201 
L 48.905352 78.366224 
L 49.061558 79.354247 
L 49.217293 80.342271 
L 49.373978 81.330294 
L 49.533781 82.318317 
L 49.699639 83.306341 
L 49.875219 84.294364 
L 50.064814 85.282387 
L 50.27317 86.270411 
L 50.505273 87.258434 
L 50.766112 88.246457 
L 51.060469 89.234481 
L 51.392749 90.222504 
L 51.766879 91.210527 
L 52.186265 92.198551 
L 52.653792 93.186574 
L 53.171832 94.174597 
L 53.74223 95.162621 
L 54.366215 96.150644 
L 55.044222 97.138667 
L 55.775595 98.126691 
L 56.558171 99.114714 
L 57.387788 100.102737 
L 58.257748 101.090761 
L 59.158347 102.078784 
L 60.076569 103.066807 
L 60.996068 104.054831 
L 61.897542 105.042854 
L 62.759547 106.030877 
L 63.55975 107.018901 
L 64.276514 108.006924 
L 64.890662 108.994948 
L 65.387179 109.982971 
L 65.756619 110.970994 
L 65.996008 111.959018 
L 66.109091 112.947041 
L 66.105906 113.935064 
L 66.001741 114.923088 
L 65.815648 115.911111 
L 65.568762 116.899134 
L 65.282637 117.887158 
L 64.977827 118.875181 
L 64.672816 119.863204 
L 64.38333 120.851228 
L 64.121942 121.839251 
L 63.897871 122.827274 
L 63.716796 123.815298 
L 63.580621 124.803321 
L 63.48714 125.791344 
L 63.429697 126.779368 
L 63.396983 127.767391 
L 63.373178 128.755414 
L 63.338595 129.743438 
L 63.270953 130.731461 
L 63.147227 131.719484 
L 62.945927 132.707508 
L 62.649526 133.695531 
L 62.246657 134.683554 
L 61.733742 135.671578 
L 61.115761 136.659601 
L 60.405993 137.647624 
L 59.624755 138.635648 
L 58.797303 139.623671 
L 57.951187 140.611694 
L 57.113438 141.599718 
L 56.307962 142.587741 
L 55.553455 143.575764 
L 54.862068 144.563788 
L 54.238942 145.551811 
L 53.682576 146.539834 
L 53.185933 147.527858 
L 52.738074 148.515881 
L 52.32608 149.503904 
L 51.936987 150.491928 
L 51.559503 151.479951 
L 51.185291 152.467974 
L 50.809703 153.455998 
L 50.431899 154.444021 
L 50.054415 155.432045 
L 49.682292 156.420068 
L 49.321945 157.408091 
L 48.979987 158.396115 
L 48.662179 159.384138 
L 48.372676 160.372161 
L 48.113631 161.360185 
L 47.885178 162.348208 
L 47.685726 163.336231 
L 47.512462 164.324255 
L 47.361943 165.312278 
L 47.361943 165.312278 
z
" clip-path="url(#p2fe4097235)" style="fill: none; stroke: #000000; stroke-opacity: 0.3"/>
   </g>
   <g id="FillBetweenPolyCollection_5">
    <path d="M 47.501954 169.228413 
L 45.4435 169.228413 
L 45.334368 168.14716 
L 45.227915 167.065907 
L 45.124438 165.984654 
L 45.02336 164.903401 
L 44.923254 163.822149 
L 44.821967 162.740896 
L 44.71684 161.659643 
L 44.604988 160.57839 
L 44.483582 159.497138 
L 44.35006 158.415885 
L 44.202229 157.334632 
L 44.03819 156.253379 
L 43.856094 155.172126 
L 43.653776 154.090874 
L 43.428323 153.009621 
L 43.17569 151.928368 
L 42.89047 150.847115 
L 42.5659 149.765863 
L 42.194157 148.68461 
L 41.766928 147.603357 
L 41.27621 146.522104 
L 40.715227 145.440852 
L 40.079364 144.359599 
L 39.366971 143.278346 
L 38.579946 142.197093 
L 37.724008 141.11584 
L 36.80863 140.034588 
L 35.84665 138.953335 
L 34.853602 137.872082 
L 33.846894 136.790829 
L 32.844938 135.709577 
L 31.866375 134.628324 
L 30.929474 133.547071 
L 30.05178 132.465818 
L 29.249972 131.384565 
L 28.539843 130.303313 
L 27.936293 129.22206 
L 27.453143 128.140807 
L 27.102689 127.059554 
L 26.894907 125.978302 
L 26.836364 124.897049 
L 26.928967 123.815796 
L 27.168789 122.734543 
L 27.545231 121.653291 
L 28.040803 120.572038 
L 28.631736 119.490785 
L 29.289485 118.409532 
L 29.98309 117.328279 
L 30.682119 116.247027 
L 31.359841 115.165774 
L 31.996147 114.084521 
L 32.579733 113.003268 
L 33.109168 111.922016 
L 33.592595 110.840763 
L 34.046064 109.75951 
L 34.490705 108.678257 
L 34.949194 107.597005 
L 35.442045 106.515752 
L 35.98435 105.434499 
L 36.583454 104.353246 
L 37.23794 103.271993 
L 37.938002 102.190741 
L 38.667083 101.109488 
L 39.404428 100.028235 
L 40.128055 98.946982 
L 40.817644 97.86573 
L 41.456883 96.784477 
L 42.034951 95.703224 
L 42.547037 94.621971 
L 42.993927 93.540718 
L 43.380894 92.459466 
L 43.716168 91.378213 
L 44.00931 90.29696 
L 44.26975 89.215707 
L 44.50569 88.134455 
L 44.723433 87.053202 
L 44.927149 85.971949 
L 45.118996 84.890696 
L 45.299467 83.809444 
L 45.467872 82.728191 
L 45.62282 81.646938 
L 45.762659 80.565685 
L 45.885808 79.484432 
L 45.990994 78.40318 
L 46.077388 77.321927 
L 46.144666 76.240674 
L 46.193036 75.159421 
L 46.223231 74.078169 
L 46.236504 72.996916 
L 46.234623 71.915663 
L 46.21986 70.83441 
L 46.194964 69.753158 
L 46.163099 68.671905 
L 46.127723 67.590652 
L 46.092424 66.509399 
L 46.060687 65.428146 
L 46.035637 64.346894 
L 46.019781 63.265641 
L 46.01479 62.184388 
L 46.930665 62.184388 
L 46.930665 62.184388 
L 46.925673 63.265641 
L 46.909817 64.346894 
L 46.884767 65.428146 
L 46.85303 66.509399 
L 46.817731 67.590652 
L 46.782356 68.671905 
L 46.75049 69.753158 
L 46.725595 70.83441 
L 46.710832 71.915663 
L 46.708951 72.996916 
L 46.722223 74.078169 
L 46.752418 75.159421 
L 46.800788 76.240674 
L 46.868067 77.321927 
L 46.954461 78.40318 
L 47.059647 79.484432 
L 47.182796 80.565685 
L 47.322634 81.646938 
L 47.477583 82.728191 
L 47.645987 83.809444 
L 47.826459 84.890696 
L 48.018305 85.971949 
L 48.222022 87.053202 
L 48.439764 88.134455 
L 48.675704 89.215707 
L 48.936145 90.29696 
L 49.229286 91.378213 
L 49.564561 92.459466 
L 49.951528 93.540718 
L 50.398418 94.621971 
L 50.910503 95.703224 
L 51.488572 96.784477 
L 52.12781 97.86573 
L 52.8174 98.946982 
L 53.541027 100.028235 
L 54.278371 101.109488 
L 55.007453 102.190741 
L 55.707515 103.271993 
L 56.362001 104.353246 
L 56.961105 105.434499 
L 57.503409 106.515752 
L 57.996261 107.597005 
L 58.45475 108.678257 
L 58.899391 109.75951 
L 59.352859 110.840763 
L 59.836287 111.922016 
L 60.365722 113.003268 
L 60.949308 114.084521 
L 61.585613 115.165774 
L 62.263336 116.247027 
L 62.962365 117.328279 
L 63.655969 118.409532 
L 64.313719 119.490785 
L 64.904651 120.572038 
L 65.400224 121.653291 
L 65.776665 122.734543 
L 66.016487 123.815796 
L 66.109091 124.897049 
L 66.050547 125.978302 
L 65.842766 127.059554 
L 65.492312 128.140807 
L 65.009162 129.22206 
L 64.405611 130.303313 
L 63.695483 131.384565 
L 62.893674 132.465818 
L 62.015981 133.547071 
L 61.07908 134.628324 
L 60.100516 135.709577 
L 59.098561 136.790829 
L 58.091852 137.872082 
L 57.098804 138.953335 
L 56.136824 140.034588 
L 55.221447 141.11584 
L 54.365509 142.197093 
L 53.578483 143.278346 
L 52.866091 144.359599 
L 52.230228 145.440852 
L 51.669245 146.522104 
L 51.178526 147.603357 
L 50.751298 148.68461 
L 50.379555 149.765863 
L 50.054985 150.847115 
L 49.769764 151.928368 
L 49.517131 153.009621 
L 49.291678 154.090874 
L 49.089361 155.172126 
L 48.907265 156.253379 
L 48.743225 157.334632 
L 48.595395 158.415885 
L 48.461873 159.497138 
L 48.340466 160.57839 
L 48.228614 161.659643 
L 48.123487 162.740896 
L 48.0222 163.822149 
L 47.922095 164.903401 
L 47.821017 165.984654 
L 47.717539 167.065907 
L 47.611087 168.14716 
L 47.501954 169.228413 
L 47.501954 169.228413 
z
" clip-path="url(#p2fe4097235)" style="fill: none; stroke: #000000; stroke-opacity: 0.3"/>
   </g>
   <g id="FillBetweenPolyCollection_6">
    <path d="M 50.002146 169.806042 
L 42.943308 169.806042 
L 42.570945 168.721125 
L 42.198152 167.636208 
L 41.828487 166.551292 
L 41.464588 165.466375 
L 41.108012 164.381458 
L 40.75919 163.296541 
L 40.41751 162.211624 
L 40.08154 161.126707 
L 39.74935 160.041791 
L 39.418913 158.956874 
L 39.08852 157.871957 
L 38.757168 156.78704 
L 38.424848 155.702123 
L 38.092693 154.617207 
L 37.762958 153.53229 
L 37.438808 152.447373 
L 37.123953 151.362456 
L 36.822144 150.277539 
L 36.536604 149.192622 
L 36.269466 148.107706 
L 36.021275 147.022789 
L 35.790636 145.937872 
L 35.574051 144.852955 
L 35.365968 143.768038 
L 35.159059 142.683121 
L 34.944685 141.598205 
L 34.713524 140.513288 
L 34.456297 139.428371 
L 34.164522 138.343454 
L 33.831246 137.258537 
L 33.451678 136.173621 
L 33.023695 135.088704 
L 32.548175 134.003787 
L 32.029148 132.91887 
L 31.473753 131.833953 
L 30.89202 130.749036 
L 30.296485 129.66412 
L 29.70167 128.579203 
L 29.123458 127.494286 
L 28.578395 126.409369 
L 28.082961 125.324452 
L 27.652846 124.239535 
L 27.302274 123.154619 
L 27.043406 122.069702 
L 26.885858 120.984785 
L 26.836364 119.899868 
L 26.898589 118.814951 
L 27.0731 117.730035 
L 27.357487 116.645118 
L 27.746611 115.560201 
L 28.232948 114.475284 
L 28.807003 113.390367 
L 29.457741 112.30545 
L 30.173028 111.220534 
L 30.940038 110.135617 
L 31.745627 109.0507 
L 32.576661 107.965783 
L 33.420315 106.880866 
L 34.264339 105.795949 
L 35.097313 104.711033 
L 35.90889 103.626116 
L 36.690036 102.541199 
L 37.433255 101.456282 
L 38.132775 100.371365 
L 38.784695 99.286449 
L 39.387052 98.201532 
L 39.939796 97.116615 
L 40.444664 96.031698 
L 40.904943 94.946781 
L 41.325138 93.861864 
L 41.710566 92.776948 
L 42.066906 91.692031 
L 42.39975 90.607114 
L 42.714176 89.522197 
L 43.014412 88.43728 
L 43.303579 87.352363 
L 43.583569 86.267447 
L 43.85503 85.18253 
L 44.117475 84.097613 
L 44.369476 83.012696 
L 44.608929 81.927779 
L 44.83336 80.842863 
L 45.040227 79.757946 
L 45.227208 78.673029 
L 45.39244 77.588112 
L 45.534702 76.503195 
L 45.653534 75.418278 
L 45.749277 74.333362 
L 45.82307 73.248445 
L 45.876772 72.163528 
L 45.912856 71.078611 
L 45.934258 69.993694 
L 45.944214 68.908777 
L 45.946082 67.823861 
L 45.943163 66.738944 
L 45.938539 65.654027 
L 45.934925 64.56911 
L 45.934557 63.484193 
L 45.939106 62.399277 
L 47.006349 62.399277 
L 47.006349 62.399277 
L 47.010898 63.484193 
L 47.010529 64.56911 
L 47.006916 65.654027 
L 47.002292 66.738944 
L 46.999373 67.823861 
L 47.00124 68.908777 
L 47.011197 69.993694 
L 47.032599 71.078611 
L 47.068682 72.163528 
L 47.122385 73.248445 
L 47.196177 74.333362 
L 47.291921 75.418278 
L 47.410752 76.503195 
L 47.553015 77.588112 
L 47.718247 78.673029 
L 47.905228 79.757946 
L 48.112095 80.842863 
L 48.336526 81.927779 
L 48.575979 83.012696 
L 48.827979 84.097613 
L 49.090424 85.18253 
L 49.361886 86.267447 
L 49.641876 87.352363 
L 49.931043 88.43728 
L 50.231278 89.522197 
L 50.545705 90.607114 
L 50.878548 91.692031 
L 51.234889 92.776948 
L 51.620317 93.861864 
L 52.040511 94.946781 
L 52.50079 96.031698 
L 53.005658 97.116615 
L 53.558402 98.201532 
L 54.160759 99.286449 
L 54.812679 100.371365 
L 55.512199 101.456282 
L 56.255418 102.541199 
L 57.036565 103.626116 
L 57.848142 104.711033 
L 58.681115 105.795949 
L 59.525139 106.880866 
L 60.368793 107.965783 
L 61.199828 109.0507 
L 62.005416 110.135617 
L 62.772427 111.220534 
L 63.487714 112.30545 
L 64.138452 113.390367 
L 64.712506 114.475284 
L 65.198844 115.560201 
L 65.587968 116.645118 
L 65.872355 117.730035 
L 66.046866 118.814951 
L 66.109091 119.899868 
L 66.059597 120.984785 
L 65.902049 122.069702 
L 65.64318 123.154619 
L 65.292608 124.239535 
L 64.862494 125.324452 
L 64.36706 126.409369 
L 63.821997 127.494286 
L 63.243785 128.579203 
L 62.64897 129.66412 
L 62.053435 130.749036 
L 61.471702 131.833953 
L 60.916307 132.91887 
L 60.39728 134.003787 
L 59.92176 135.088704 
L 59.493777 136.173621 
L 59.114209 137.258537 
L 58.780933 138.343454 
L 58.489158 139.428371 
L 58.231931 140.513288 
L 58.00077 141.598205 
L 57.786395 142.683121 
L 57.579486 143.768038 
L 57.371404 144.852955 
L 57.154818 145.937872 
L 56.924179 147.022789 
L 56.675988 148.107706 
L 56.40885 149.192622 
L 56.123311 150.277539 
L 55.821501 151.362456 
L 55.506646 152.447373 
L 55.182497 153.53229 
L 54.852761 154.617207 
L 54.520607 155.702123 
L 54.188287 156.78704 
L 53.856935 157.871957 
L 53.526542 158.956874 
L 53.196104 160.041791 
L 52.863915 161.126707 
L 52.527945 162.211624 
L 52.186265 163.296541 
L 51.837442 164.381458 
L 51.480867 165.466375 
L 51.116968 166.551292 
L 50.747302 167.636208 
L 50.374509 168.721125 
L 50.002146 169.806042 
L 50.002146 169.806042 
z
" clip-path="url(#p2fe4097235)" style="fill: none; stroke: #000000; stroke-opacity: 0.3"/>
   </g>
   <g id="FillBetweenPolyCollection_7">
    <path d="M 49.5054 160.043897 
L 43.440054 160.043897 
L 43.154395 159.267568 
L 42.858632 158.49124 
L 42.553201 157.714911 
L 42.238316 156.938583 
L 41.91395 156.162254 
L 41.579818 155.385926 
L 41.2354 154.609597 
L 40.879977 153.833269 
L 40.512692 153.05694 
L 40.13263 152.280612 
L 39.738928 151.504283 
L 39.330874 150.727954 
L 38.908033 149.951626 
L 38.470349 149.175297 
L 38.018241 148.398969 
L 37.552675 147.62264 
L 37.075201 146.846312 
L 36.587951 146.069983 
L 36.093606 145.293655 
L 35.595311 144.517326 
L 35.096568 143.740998 
L 34.601091 142.964669 
L 34.11265 142.188341 
L 33.634904 141.412012 
L 33.171244 140.635684 
L 32.72465 139.859355 
L 32.297572 139.083027 
L 31.891851 138.306698 
L 31.508672 137.53037 
L 31.148555 136.754041 
L 30.811381 135.977713 
L 30.496454 135.201384 
L 30.202582 134.425056 
L 29.928173 133.648727 
L 29.67135 132.872399 
L 29.430064 132.09607 
L 29.202208 131.319742 
L 28.985728 130.543413 
L 28.778724 129.767085 
L 28.579555 128.990756 
L 28.386925 128.214428 
L 28.199966 127.438099 
L 28.018315 126.661771 
L 27.842171 125.885442 
L 27.672344 125.109114 
L 27.510285 124.332785 
L 27.358085 123.556457 
L 27.21845 122.780128 
L 27.094642 122.0038 
L 26.99039 121.227471 
L 26.90976 120.451143 
L 26.857 119.674814 
L 26.836364 118.898486 
L 26.851913 118.122157 
L 26.907328 117.345829 
L 27.00572 116.5695 
L 27.149468 115.793172 
L 27.340097 115.016843 
L 27.578189 114.240515 
L 27.863351 113.464186 
L 28.19423 112.687858 
L 28.568583 111.911529 
L 28.98338 111.1352 
L 29.434947 110.358872 
L 29.919136 109.582543 
L 30.431493 108.806215 
L 30.967429 108.029886 
L 31.522378 107.253558 
L 32.091927 106.477229 
L 32.671912 105.700901 
L 33.258486 104.924572 
L 33.848147 104.148244 
L 34.43774 103.371915 
L 35.024427 102.595587 
L 35.605642 101.819258 
L 36.179045 101.04293 
L 36.742464 100.266601 
L 37.293852 99.490273 
L 37.83126 98.713944 
L 38.352826 97.937616 
L 38.856783 97.161287 
L 39.341489 96.384959 
L 39.805471 95.60863 
L 40.24748 94.832302 
L 40.666548 94.055973 
L 41.062039 93.279645 
L 41.433696 92.503316 
L 41.781661 91.726988 
L 42.10648 90.950659 
L 42.409086 90.174331 
L 42.690753 89.398002 
L 42.953036 88.621674 
L 43.19769 87.845345 
L 43.426576 87.069017 
L 43.641574 86.292688 
L 43.844486 85.51636 
L 44.036956 84.740031 
L 44.220406 83.963703 
L 44.395981 83.187374 
L 48.549473 83.187374 
L 48.549473 83.187374 
L 48.725049 83.963703 
L 48.908498 84.740031 
L 49.100969 85.51636 
L 49.303881 86.292688 
L 49.518878 87.069017 
L 49.747765 87.845345 
L 49.992418 88.621674 
L 50.254702 89.398002 
L 50.536369 90.174331 
L 50.838975 90.950659 
L 51.163794 91.726988 
L 51.511758 92.503316 
L 51.883415 93.279645 
L 52.278907 94.055973 
L 52.697975 94.832302 
L 53.139984 95.60863 
L 53.603966 96.384959 
L 54.088671 97.161287 
L 54.592628 97.937616 
L 55.114194 98.713944 
L 55.651603 99.490273 
L 56.202991 100.266601 
L 56.76641 101.04293 
L 57.339813 101.819258 
L 57.921028 102.595587 
L 58.507714 103.371915 
L 59.097307 104.148244 
L 59.686969 104.924572 
L 60.273543 105.700901 
L 60.853528 106.477229 
L 61.423076 107.253558 
L 61.978026 108.029886 
L 62.513962 108.806215 
L 63.026318 109.582543 
L 63.510507 110.358872 
L 63.962075 111.1352 
L 64.376871 111.911529 
L 64.751224 112.687858 
L 65.082104 113.464186 
L 65.367266 114.240515 
L 65.605358 115.016843 
L 65.795987 115.793172 
L 65.939735 116.5695 
L 66.038126 117.345829 
L 66.093541 118.122157 
L 66.109091 118.898486 
L 66.088454 119.674814 
L 66.035695 120.451143 
L 65.955065 121.227471 
L 65.850813 122.0038 
L 65.727005 122.780128 
L 65.587369 123.556457 
L 65.435169 124.332785 
L 65.27311 125.109114 
L 65.103284 125.885442 
L 64.92714 126.661771 
L 64.745488 127.438099 
L 64.55853 128.214428 
L 64.3659 128.990756 
L 64.166731 129.767085 
L 63.959727 130.543413 
L 63.743246 131.319742 
L 63.51539 132.09607 
L 63.274105 132.872399 
L 63.017282 133.648727 
L 62.742873 134.425056 
L 62.449 135.201384 
L 62.134074 135.977713 
L 61.7969 136.754041 
L 61.436782 137.53037 
L 61.053603 138.306698 
L 60.647882 139.083027 
L 60.220805 139.859355 
L 59.77421 140.635684 
L 59.31055 141.412012 
L 58.832805 142.188341 
L 58.344364 142.964669 
L 57.848887 143.740998 
L 57.350144 144.517326 
L 56.851849 145.293655 
L 56.357503 146.069983 
L 55.870254 146.846312 
L 55.392779 147.62264 
L 54.927214 148.398969 
L 54.475106 149.175297 
L 54.037422 149.951626 
L 53.61458 150.727954 
L 53.206527 151.504283 
L 52.812824 152.280612 
L 52.432763 153.05694 
L 52.065477 153.833269 
L 51.710054 154.609597 
L 51.365637 155.385926 
L 51.031505 156.162254 
L 50.707138 156.938583 
L 50.392254 157.714911 
L 50.086822 158.49124 
L 49.791059 159.267568 
L 49.5054 160.043897 
L 49.5054 160.043897 
z
" clip-path="url(#p2fe4097235)" style="fill: none; stroke: #000000; stroke-opacity: 0.3"/>
   </g>
   <g id="FillBetweenPolyCollection_8">
    <path d="M 112.810327 208.206686 
L 111.044218 208.206686 
L 110.89394 206.714874 
L 110.716262 205.223062 
L 110.506149 203.73125 
L 110.259133 202.239438 
L 109.971909 200.747626 
L 109.642874 199.255814 
L 109.272463 197.764002 
L 108.863216 196.27219 
L 108.419504 194.780378 
L 107.946904 193.288566 
L 107.451304 191.796754 
L 106.937832 190.304942 
L 106.409809 188.81313 
L 105.867912 187.321318 
L 105.309743 185.829505 
L 104.72995 184.337693 
L 104.120941 182.845881 
L 103.474162 181.354069 
L 102.781747 179.862257 
L 102.038311 178.370445 
L 101.242556 176.878633 
L 100.398419 175.386821 
L 99.515519 173.895009 
L 98.608823 172.403197 
L 97.697544 170.911385 
L 96.803481 169.419573 
L 95.949051 167.927761 
L 95.155361 166.435949 
L 94.440583 164.944137 
L 93.818858 163.452325 
L 93.299782 161.960513 
L 92.888433 160.468701 
L 92.58579 158.976889 
L 92.389327 157.485077 
L 92.293631 155.993265 
L 92.290909 154.501453 
L 92.37138 153.00964 
L 92.523631 151.517828 
L 92.735042 150.026016 
L 92.992426 148.534204 
L 93.282925 147.042392 
L 93.595145 145.55058 
L 93.920387 144.058768 
L 94.253752 142.566956 
L 94.594887 141.075144 
L 94.948134 139.583332 
L 95.321979 138.09152 
L 95.727791 136.599708 
L 96.17801 135.107896 
L 96.684033 133.616084 
L 97.254161 132.124272 
L 97.891919 130.63246 
L 98.595055 129.140648 
L 99.355379 127.648836 
L 100.159462 126.157024 
L 100.99008 124.665212 
L 101.828151 123.1734 
L 102.65484 121.681588 
L 103.453521 120.189776 
L 104.21128 118.697963 
L 104.919784 117.206151 
L 105.575454 115.714339 
L 106.17896 114.222527 
L 106.734222 112.730715 
L 107.247121 111.238903 
L 107.724143 109.747091 
L 108.171191 108.255279 
L 108.592692 106.763467 
L 108.991103 105.271655 
L 109.36681 103.779843 
L 109.718368 102.288031 
L 110.042984 100.796219 
L 110.33713 99.304407 
L 110.597178 97.812595 
L 110.819971 96.320783 
L 111.00327 94.828971 
L 111.146066 93.337159 
L 111.248741 91.845347 
L 111.313116 90.353535 
L 111.34239 88.861723 
L 111.341001 87.369911 
L 111.314417 85.878098 
L 111.268855 84.386286 
L 111.210948 82.894474 
L 111.147354 81.402662 
L 111.084347 79.91085 
L 111.027417 78.419038 
L 110.980929 76.927226 
L 110.947893 75.435414 
L 110.929881 73.943602 
L 110.927104 72.45179 
L 110.938638 70.959978 
L 110.962757 69.468166 
L 110.997313 67.976354 
L 111.040089 66.484542 
L 111.08908 64.99273 
L 111.142644 63.500918 
L 111.199541 62.009106 
L 111.258852 60.517294 
L 112.595694 60.517294 
L 112.595694 60.517294 
L 112.655004 62.009106 
L 112.711901 63.500918 
L 112.765466 64.99273 
L 112.814456 66.484542 
L 112.857233 67.976354 
L 112.891788 69.468166 
L 112.915907 70.959978 
L 112.927441 72.45179 
L 112.924665 73.943602 
L 112.906653 75.435414 
L 112.873617 76.927226 
L 112.827129 78.419038 
L 112.770199 79.91085 
L 112.707192 81.402662 
L 112.643598 82.894474 
L 112.58569 84.386286 
L 112.540128 85.878098 
L 112.513544 87.369911 
L 112.512156 88.861723 
L 112.54143 90.353535 
L 112.605805 91.845347 
L 112.70848 93.337159 
L 112.851275 94.828971 
L 113.034575 96.320783 
L 113.257367 97.812595 
L 113.517416 99.304407 
L 113.811561 100.796219 
L 114.136177 102.288031 
L 114.487736 103.779843 
L 114.863443 105.271655 
L 115.261854 106.763467 
L 115.683354 108.255279 
L 116.130402 109.747091 
L 116.607425 111.238903 
L 117.120323 112.730715 
L 117.675585 114.222527 
L 118.279091 115.714339 
L 118.934761 117.206151 
L 119.643266 118.697963 
L 120.401024 120.189776 
L 121.199705 121.681588 
L 122.026395 123.1734 
L 122.864465 124.665212 
L 123.695084 126.157024 
L 124.499167 127.648836 
L 125.25949 129.140648 
L 125.962626 130.63246 
L 126.600384 132.124272 
L 127.170512 133.616084 
L 127.676536 135.107896 
L 128.126754 136.599708 
L 128.532567 138.09152 
L 128.906412 139.583332 
L 129.259659 141.075144 
L 129.600793 142.566956 
L 129.934159 144.058768 
L 130.2594 145.55058 
L 130.571621 147.042392 
L 130.86212 148.534204 
L 131.119504 150.026016 
L 131.330915 151.517828 
L 131.483165 153.00964 
L 131.563636 154.501453 
L 131.560914 155.993265 
L 131.465218 157.485077 
L 131.268756 158.976889 
L 130.966112 160.468701 
L 130.554764 161.960513 
L 130.035687 163.452325 
L 129.413962 164.944137 
L 128.699184 166.435949 
L 127.905494 167.927761 
L 127.051065 169.419573 
L 126.157001 170.911385 
L 125.245723 172.403197 
L 124.339026 173.895009 
L 123.456127 175.386821 
L 122.611989 176.878633 
L 121.816234 178.370445 
L 121.072798 179.862257 
L 120.380384 181.354069 
L 119.733604 182.845881 
L 119.124595 184.337693 
L 118.544802 185.829505 
L 117.986634 187.321318 
L 117.444737 188.81313 
L 116.916713 190.304942 
L 116.403241 191.796754 
L 115.907641 193.288566 
L 115.435042 194.780378 
L 114.991329 196.27219 
L 114.582083 197.764002 
L 114.211672 199.255814 
L 113.882637 200.747626 
L 113.595413 202.239438 
L 113.348396 203.73125 
L 113.138284 205.223062 
L 112.960605 206.714874 
L 112.810327 208.206686 
L 112.810327 208.206686 
z
" clip-path="url(#p2fe4097235)" style="fill: none; stroke: #000000; stroke-opacity: 0.3"/>
   </g>
   <g id="FillBetweenPolyCollection_9">
    <path d="M 112.808822 197.54922 
L 111.045723 197.54922 
L 110.92068 196.331569 
L 110.769337 195.113918 
L 110.583355 193.896267 
L 110.35359 192.678616 
L 110.070701 191.460965 
L 109.725908 190.243314 
L 109.311824 189.025663 
L 108.823301 187.808012 
L 108.258185 186.590361 
L 107.617893 185.37271 
L 106.907717 184.155059 
L 106.136811 182.937407 
L 105.317815 181.719756 
L 104.46615 180.502105 
L 103.599043 179.284454 
L 102.734381 178.066803 
L 101.889538 176.849152 
L 101.08029 175.631501 
L 100.319948 174.41385 
L 99.618777 173.196199 
L 98.983737 171.978548 
L 98.418515 170.760897 
L 97.923786 169.543246 
L 97.497608 168.325595 
L 97.135855 167.107943 
L 96.83262 165.890292 
L 96.580533 164.672641 
L 96.371014 163.45499 
L 96.194476 162.237339 
L 96.040549 161.019688 
L 95.898384 159.802037 
L 95.757075 158.584386 
L 95.606219 157.366735 
L 95.436591 156.149084 
L 95.240864 154.931433 
L 95.01432 153.713782 
L 94.75543 152.496131 
L 94.466249 151.27848 
L 94.152531 150.060828 
L 93.823563 148.843177 
L 93.491676 147.625526 
L 93.171498 146.407875 
L 92.878986 145.190224 
L 92.630342 143.972573 
L 92.440907 142.754922 
L 92.324158 141.537271 
L 92.290909 140.31962 
L 92.348789 139.101969 
L 92.502053 137.884318 
L 92.751707 136.666667 
L 93.095898 135.449016 
L 93.530463 134.231364 
L 94.049531 133.013713 
L 94.646057 131.796062 
L 95.312207 130.578411 
L 96.039559 129.36076 
L 96.819133 128.143109 
L 97.641317 126.925458 
L 98.495778 125.707807 
L 99.371458 124.490156 
L 100.256713 123.272505 
L 101.13964 122.054854 
L 102.00856 120.837203 
L 102.852593 119.619552 
L 103.662242 118.4019 
L 104.429868 117.184249 
L 105.14999 115.966598 
L 105.819361 114.748947 
L 106.436811 113.531296 
L 107.002908 112.313645 
L 107.519503 111.095994 
L 107.989242 109.878343 
L 108.415134 108.660692 
L 108.800222 107.443041 
L 109.147397 106.22539 
L 109.45933 105.007739 
L 109.738514 103.790088 
L 109.987344 102.572437 
L 110.208198 101.354785 
L 110.40348 100.137134 
L 110.575595 98.919483 
L 110.726871 97.701832 
L 110.859439 96.484181 
L 110.975115 95.26653 
L 111.075306 94.048879 
L 111.160995 92.831228 
L 111.23279 91.613577 
L 111.291059 90.395926 
L 111.336123 89.178275 
L 111.368466 87.960624 
L 111.388937 86.742973 
L 111.398894 85.525321 
L 111.400258 84.30767 
L 111.395481 83.090019 
L 111.387403 81.872368 
L 111.379034 80.654717 
L 111.373295 79.437066 
L 111.372741 78.219415 
L 111.379325 77.001764 
L 112.475221 77.001764 
L 112.475221 77.001764 
L 112.481804 78.219415 
L 112.48125 79.437066 
L 112.475511 80.654717 
L 112.467143 81.872368 
L 112.459064 83.090019 
L 112.454287 84.30767 
L 112.455652 85.525321 
L 112.465608 86.742973 
L 112.48608 87.960624 
L 112.518423 89.178275 
L 112.563486 90.395926 
L 112.621755 91.613577 
L 112.69355 92.831228 
L 112.779239 94.048879 
L 112.879431 95.26653 
L 112.995106 96.484181 
L 113.127675 97.701832 
L 113.278951 98.919483 
L 113.451066 100.137134 
L 113.646348 101.354785 
L 113.867202 102.572437 
L 114.116032 103.790088 
L 114.395216 105.007739 
L 114.707149 106.22539 
L 115.054323 107.443041 
L 115.439411 108.660692 
L 115.865303 109.878343 
L 116.335042 111.095994 
L 116.851637 112.313645 
L 117.417735 113.531296 
L 118.035185 114.748947 
L 118.704555 115.966598 
L 119.424677 117.184249 
L 120.192303 118.4019 
L 121.001952 119.619552 
L 121.845986 120.837203 
L 122.714905 122.054854 
L 123.597832 123.272505 
L 124.483087 124.490156 
L 125.358767 125.707807 
L 126.213229 126.925458 
L 127.035412 128.143109 
L 127.814986 129.36076 
L 128.542339 130.578411 
L 129.208489 131.796062 
L 129.805015 133.013713 
L 130.324083 134.231364 
L 130.758648 135.449016 
L 131.102839 136.666667 
L 131.352493 137.884318 
L 131.505757 139.101969 
L 131.563636 140.31962 
L 131.530387 141.537271 
L 131.413639 142.754922 
L 131.224204 143.972573 
L 130.975559 145.190224 
L 130.683048 146.407875 
L 130.36287 147.625526 
L 130.030983 148.843177 
L 129.702014 150.060828 
L 129.388297 151.27848 
L 129.099115 152.496131 
L 128.840226 153.713782 
L 128.613681 154.931433 
L 128.417955 156.149084 
L 128.248326 157.366735 
L 128.097471 158.584386 
L 127.956162 159.802037 
L 127.813997 161.019688 
L 127.660069 162.237339 
L 127.483531 163.45499 
L 127.274012 164.672641 
L 127.021926 165.890292 
L 126.71869 167.107943 
L 126.356938 168.325595 
L 125.93076 169.543246 
L 125.436031 170.760897 
L 124.870809 171.978548 
L 124.235769 173.196199 
L 123.534597 174.41385 
L 122.774255 175.631501 
L 121.965008 176.849152 
L 121.120165 178.066803 
L 120.255503 179.284454 
L 119.388395 180.502105 
L 118.536731 181.719756 
L 117.717735 182.937407 
L 116.946829 184.155059 
L 116.236653 185.37271 
L 115.59636 186.590361 
L 115.031244 187.808012 
L 114.542721 189.025663 
L 114.128637 190.243314 
L 113.783844 191.460965 
L 113.500956 192.678616 
L 113.27119 193.896267 
L 113.085208 195.113918 
L 112.933865 196.331569 
L 112.808822 197.54922 
L 112.808822 197.54922 
z
" clip-path="url(#p2fe4097235)" style="fill: none; stroke: #000000; stroke-opacity: 0.3"/>
   </g>
   <g id="FillBetweenPolyCollection_10">
    <path d="M 113.28734 220.600096 
L 110.567206 220.600096 
L 110.491977 219.356002 
L 110.429083 218.111907 
L 110.378546 216.867813 
L 110.339377 215.623719 
L 110.309591 214.379625 
L 110.286301 213.13553 
L 110.265895 211.891436 
L 110.244276 210.647342 
L 110.217134 209.403248 
L 110.18024 208.159153 
L 110.129713 206.915059 
L 110.062243 205.670965 
L 109.975236 204.42687 
L 109.866875 203.182776 
L 109.73608 201.938682 
L 109.582382 200.694588 
L 109.405717 199.450493 
L 109.206184 198.206399 
L 108.983777 196.962305 
L 108.738157 195.718211 
L 108.468472 194.474116 
L 108.173272 193.230022 
L 107.850541 191.985928 
L 107.497831 190.741834 
L 107.112522 189.497739 
L 106.692158 188.253645 
L 106.234842 187.009551 
L 105.739641 185.765456 
L 105.206952 184.521362 
L 104.638781 183.277268 
L 104.038896 182.033174 
L 103.412813 180.789079 
L 102.767612 179.544985 
L 102.111577 178.300891 
L 101.453686 177.056797 
L 100.802997 175.812702 
L 100.167989 174.568608 
L 99.555925 173.324514 
L 98.972317 172.080419 
L 98.420554 170.836325 
L 97.901746 169.592231 
L 97.41481 168.348137 
L 96.9568 167.104042 
L 96.52344 165.859948 
L 96.109806 164.615854 
L 95.711082 163.37176 
L 95.323286 162.127665 
L 94.943891 160.883571 
L 94.572261 159.639477 
L 94.209859 158.395383 
L 93.860203 157.151288 
L 93.528596 155.907194 
L 93.221664 154.6631 
L 92.946777 153.419005 
L 92.711434 152.174911 
L 92.522681 150.930817 
L 92.386646 149.686723 
L 92.308219 148.442628 
L 92.290909 147.198534 
L 92.336875 145.95444 
L 92.447089 144.710346 
L 92.621589 143.466251 
L 92.859766 142.222157 
L 93.160622 140.978063 
L 93.522956 139.733968 
L 93.945439 138.489874 
L 94.426575 137.24578 
L 94.964541 136.001686 
L 95.556961 134.757591 
L 96.200621 133.513497 
L 96.891212 132.269403 
L 97.623117 131.025309 
L 98.389304 129.781214 
L 99.181352 128.53712 
L 99.989611 127.293026 
L 100.80351 126.048932 
L 101.611973 124.804837 
L 102.403918 123.560743 
L 103.168795 122.316649 
L 103.897118 121.072554 
L 104.580931 119.82846 
L 105.214185 118.584366 
L 105.792986 117.340272 
L 106.315694 116.096177 
L 106.782876 114.852083 
L 107.197108 113.607989 
L 107.562666 112.363895 
L 107.885116 111.1198 
L 108.170854 109.875706 
L 108.426628 108.631612 
L 108.659083 107.387518 
L 108.874367 106.143423 
L 109.077808 104.899329 
L 109.273699 103.655235 
L 109.465185 102.41114 
L 109.654243 101.167046 
L 109.841754 99.922952 
L 110.027649 98.678858 
L 110.211095 97.434763 
L 113.64345 97.434763 
L 113.64345 97.434763 
L 113.826897 98.678858 
L 114.012792 99.922952 
L 114.200303 101.167046 
L 114.38936 102.41114 
L 114.580846 103.655235 
L 114.776738 104.899329 
L 114.980179 106.143423 
L 115.195462 107.387518 
L 115.427918 108.631612 
L 115.683691 109.875706 
L 115.969429 111.1198 
L 116.291879 112.363895 
L 116.657438 113.607989 
L 117.07167 114.852083 
L 117.538851 116.096177 
L 118.06156 117.340272 
L 118.640361 118.584366 
L 119.273615 119.82846 
L 119.957428 121.072554 
L 120.68575 122.316649 
L 121.450628 123.560743 
L 122.242572 124.804837 
L 123.051035 126.048932 
L 123.864935 127.293026 
L 124.673194 128.53712 
L 125.465241 129.781214 
L 126.231428 131.025309 
L 126.963333 132.269403 
L 127.653924 133.513497 
L 128.297585 134.757591 
L 128.890004 136.001686 
L 129.427971 137.24578 
L 129.909106 138.489874 
L 130.33159 139.733968 
L 130.693924 140.978063 
L 130.99478 142.222157 
L 131.232956 143.466251 
L 131.407456 144.710346 
L 131.51767 145.95444 
L 131.563636 147.198534 
L 131.546327 148.442628 
L 131.467899 149.686723 
L 131.331864 150.930817 
L 131.143112 152.174911 
L 130.907768 153.419005 
L 130.632882 154.6631 
L 130.325949 155.907194 
L 129.994343 157.151288 
L 129.644687 158.395383 
L 129.282284 159.639477 
L 128.910654 160.883571 
L 128.531259 162.127665 
L 128.143463 163.37176 
L 127.74474 164.615854 
L 127.331106 165.859948 
L 126.897745 167.104042 
L 126.439735 168.348137 
L 125.9528 169.592231 
L 125.433991 170.836325 
L 124.882228 172.080419 
L 124.29862 173.324514 
L 123.686556 174.568608 
L 123.051549 175.812702 
L 122.40086 177.056797 
L 121.742969 178.300891 
L 121.086933 179.544985 
L 120.441732 180.789079 
L 119.815649 182.033174 
L 119.215764 183.277268 
L 118.647594 184.521362 
L 118.114904 185.765456 
L 117.619703 187.009551 
L 117.162387 188.253645 
L 116.742023 189.497739 
L 116.356714 190.741834 
L 116.004005 191.985928 
L 115.681273 193.230022 
L 115.386074 194.474116 
L 115.116388 195.718211 
L 114.870768 196.962305 
L 114.648362 198.206399 
L 114.448828 199.450493 
L 114.272164 200.694588 
L 114.118465 201.938682 
L 113.987671 203.182776 
L 113.879309 204.42687 
L 113.792302 205.670965 
L 113.724832 206.915059 
L 113.674305 208.159153 
L 113.637412 209.403248 
L 113.61027 210.647342 
L 113.58865 211.891436 
L 113.568245 213.13553 
L 113.544954 214.379625 
L 113.515168 215.623719 
L 113.475999 216.867813 
L 113.425462 218.111907 
L 113.362568 219.356002 
L 113.28734 220.600096 
L 113.28734 220.600096 
z
" clip-path="url(#p2fe4097235)" style="fill: none; stroke: #000000; stroke-opacity: 0.3"/>
   </g>
   <g id="matplotlib.axis_1">
    <g id="xtick_1">
     <g id="line2d_1">
      <defs>
       <path id="m3feacd7e75" d="M 0 0 
L 0 3.5 
" style="stroke: #000000; stroke-width: 0.8"/>
      </defs>
      <g>
       <use xlink:href="#m3feacd7e75" x="46.472727" y="291.6" style="stroke: #000000; stroke-width: 0.8"/>
      </g>
     </g>
     <g id="text_1">
      <text style="font-size: 10px; font-family: 'DejaVu Sans', 'Bitstream Vera Sans', 'Computer Modern Sans Serif', 'Lucida Grande', 'Verdana', 'Geneva', 'Lucid', 'Arial', 'Helvetica', 'Avant Garde', sans-serif; text-anchor: middle" x="46.472727" y="306.198438" transform="rotate(-0 46.472727 306.198438)">0.3</text>
     </g>
    </g>
    <g id="xtick_2">
     <g id="line2d_2">
      <g>
       <use xlink:href="#m3feacd7e75" x="111.927273" y="291.6" style="stroke: #000000; stroke-width: 0.8"/>
      </g>
     </g>
     <g id="text_2">
      <text style="font-size: 10px; font-family: 'DejaVu Sans', 'Bitstream Vera Sans', 'Computer Modern Sans Serif', 'Lucida Grande', 'Verdana', 'Geneva', 'Lucid', 'Arial', 'Helvetica', 'Avant Garde', sans-serif; text-anchor: middle" x="111.927273" y="306.198438" transform="rotate(-0 111.927273 306.198438)">0.6</text>
     </g>
    </g>
   </g>
   <g id="matplotlib.axis_2">
    <g id="ytick_1">
     <g id="line2d_3">
      <defs>
       <path id="m1a6960704d" d="M 0 0 
L -3.5 0 
" style="stroke: #000000; stroke-width: 0.8"/>
      </defs>
      <g>
       <use xlink:href="#m1a6960704d" x="21.6" y="291.6" style="stroke: #000000; stroke-width: 0.8"/>
      </g>
     </g>
    </g>
    <g id="ytick_2">
     <g id="line2d_4">
      <g>
       <use xlink:href="#m1a6960704d" x="21.6" y="199.8" style="stroke: #000000; stroke-width: 0.8"/>
      </g>
     </g>
    </g>
    <g id="ytick_3">
     <g id="line2d_5">
      <g>
       <use xlink:href="#m1a6960704d" x="21.6" y="108" style="stroke: #000000; stroke-width: 0.8"/>
      </g>
     </g>
    </g>
    <g id="ytick_4">
     <g id="line2d_6">
      <g>
       <use xlink:href="#m1a6960704d" x="21.6" y="16.2" style="stroke: #000000; stroke-width: 0.8"/>
      </g>
     </g>
    </g>
   </g>
   <g id="line2d_7">
    <path d="M 46.472727 269.568 
L 46.472727 264.06 
" clip-path="url(#p2fe4097235)" style="fill: none; stroke: #000000; stroke-linecap: square"/>
   </g>
   <g id="line2d_8">
    <path d="M 46.472727 269.568 
L 111.927273 269.568 
" clip-path="url(#p2fe4097235)" style="fill: none; stroke: #000000; stroke-linecap: square"/>
   </g>
   <g id="line2d_9">
    <path d="M 111.927273 269.568 
L 111.927273 264.06 
" clip-path="url(#p2fe4097235)" style="fill: none; stroke: #000000; stroke-linecap: square"/>
   </g>
   <g id="patch_3">
    <path d="M 21.6 291.6 
L 21.6 16.2 
" style="fill: none; stroke: #000000; stroke-width: 0.8; stroke-linejoin: miter; stroke-linecap: square"/>
   </g>
   <g id="patch_4">
    <path d="M 136.8 291.6 
L 136.8 16.2 
" style="fill: none; stroke: #000000; stroke-width: 0.8; stroke-linejoin: miter; stroke-linecap: square"/>
   </g>
   <g id="patch_5">
    <path d="M 21.6 291.6 
L 136.8 291.6 
" style="fill: none; stroke: #000000; stroke-width: 0.8; stroke-linejoin: miter; stroke-linecap: square"/>
   </g>
   <g id="patch_6">
    <path d="M 21.6 16.2 
L 136.8 16.2 
" style="fill: none; stroke: #000000; stroke-width: 0.8; stroke-linejoin: miter; stroke-linecap: square"/>
   </g>
   <g id="text_3">
    <text style="font-weight: 700; font-size: 12px; font-family: 'DejaVu Sans', 'Bitstream Vera Sans', 'Computer Modern Sans Serif', 'Lucida Grande', 'Verdana', 'Geneva', 'Lucid', 'Arial', 'Helvetica', 'Avant Garde', sans-serif; text-anchor: middle" x="46.472727" y="289.104375" transform="rotate(-0 46.472727 289.104375)">#7</text>
   </g>
   <g id="text_4">
    <text style="font-weight: 700; font-size: 12px; font-family: 'DejaVu Sans', 'Bitstream Vera Sans', 'Computer Modern Sans Serif', 'Lucida Grande', 'Verdana', 'Geneva', 'Lucid', 'Arial', 'Helvetica', 'Avant Garde', sans-serif; text-anchor: middle" x="111.927273" y="289.104375" transform="rotate(-0 111.927273 289.104375)">#21</text>
   </g>
   <g id="text_5">
    <text style="font-size: 12px; font-family: 'DejaVu Sans', 'Bitstream Vera Sans', 'Computer Modern Sans Serif', 'Lucida Grande', 'Verdana', 'Geneva', 'Lucid', 'Arial', 'Helvetica', 'Avant Garde', sans-serif; text-anchor: middle" x="79.2" y="268.449375" transform="rotate(-0 79.2 268.449375)">****</text>
   </g>
   <g id="line2d_10">
    <path d="M 21.6 122.254909 
L 136.8 122.254909 
" clip-path="url(#p2fe4097235)" style="fill: none; stroke-dasharray: 3.7,1.6; stroke-dashoffset: 0; stroke: #808080; stroke-opacity: 0.7"/>
   </g>
   <g id="line2d_11">
    <path d="M 21.6 149.228793 
L 136.8 149.228793 
" clip-path="url(#p2fe4097235)" style="fill: none; stroke-dasharray: 3.7,1.6; stroke-dashoffset: 0; stroke: #808080; stroke-opacity: 0.7"/>
   </g>
   <g id="LineCollection_1">
    <path d="M 46.472727 124.07137 
L 46.472727 120.438447 
" clip-path="url(#p2fe4097235)" style="fill: none; stroke: #000000; stroke-width: 2"/>
   </g>
   <g id="line2d_12">
    <defs>
     <path id="mcf581b9f27" d="M 5 0 
L -5 -0 
" style="stroke: #000000; stroke-width: 2"/>
    </defs>
    <g clip-path="url(#p2fe4097235)">
     <use xlink:href="#mcf581b9f27" x="46.472727" y="124.07137" style="stroke: #000000; stroke-width: 2"/>
    </g>
   </g>
   <g id="line2d_13">
    <g clip-path="url(#p2fe4097235)">
     <use xlink:href="#mcf581b9f27" x="46.472727" y="120.438447" style="stroke: #000000; stroke-width: 2"/>
    </g>
   </g>
   <g id="LineCollection_2">
    <path d="M 111.927273 152.312907 
L 111.927273 146.144679 
" clip-path="url(#p2fe4097235)" style="fill: none; stroke: #000000; stroke-width: 2"/>
   </g>
   <g id="line2d_14">
    <g clip-path="url(#p2fe4097235)">
     <use xlink:href="#mcf581b9f27" x="111.927273" y="152.312907" style="stroke: #000000; stroke-width: 2"/>
    </g>
   </g>
   <g id="line2d_15">
    <g clip-path="url(#p2fe4097235)">
     <use xlink:href="#mcf581b9f27" x="111.927273" y="146.144679" style="stroke: #000000; stroke-width: 2"/>
    </g>
   </g>
   <g id="line2d_16">
    <defs>
     <path id="mcd29c8fea5" d="M 0 4 
C 1.060812 4 2.078319 3.578535 2.828427 2.828427 
C 3.578535 2.078319 4 1.060812 4 0 
C 4 -1.060812 3.578535 -2.078319 2.828427 -2.828427 
C 2.078319 -3.578535 1.060812 -4 0 -4 
C -1.060812 -4 -2.078319 -3.578535 -2.828427 -2.828427 
C -3.578535 -2.078319 -4 -1.060812 -4 0 
C -4 1.060812 -3.578535 2.078319 -2.828427 2.828427 
C -2.078319 3.578535 -1.060812 4 0 4 
z
" style="stroke: #000000"/>
    </defs>
    <g clip-path="url(#p2fe4097235)">
     <use xlink:href="#mcd29c8fea5" x="46.472727" y="122.254909" style="stroke: #000000"/>
    </g>
   </g>
   <g id="line2d_17">
    <g clip-path="url(#p2fe4097235)">
     <use xlink:href="#mcd29c8fea5" x="111.927273" y="149.228793" style="stroke: #000000"/>
    </g>
   </g>
  </g>
 </g>
 <defs>
  <clipPath id="p2fe4097235">
   <rect x="21.6" y="16.2" width="115.2" height="275.4"/>
  </clipPath>
 </defs>
</svg>
