<?xml version="1.0" encoding="utf-8" standalone="no"?>
<!DOCTYPE svg PUBLIC "-//W3C//DTD SVG 1.1//EN"
  "http://www.w3.org/Graphics/SVG/1.1/DTD/svg11.dtd">
<svg xmlns:xlink="http://www.w3.org/1999/xlink" width="144pt" height="324pt" viewBox="0 0 144 324" xmlns="http://www.w3.org/2000/svg" version="1.1">
 <metadata>
  <rdf:RDF xmlns:dc="http://purl.org/dc/elements/1.1/" xmlns:cc="http://creativecommons.org/ns#" xmlns:rdf="http://www.w3.org/1999/02/22-rdf-syntax-ns#">
   <cc:Work>
    <dc:type rdf:resource="http://purl.org/dc/dcmitype/StillImage"/>
    <dc:date>2025-12-05T16:39:46.329177</dc:date>
    <dc:format>image/svg+xml</dc:format>
    <dc:creator>
     <cc:Agent>
      <dc:title>Matplotlib v3.10.0, https://matplotlib.org/</dc:title>
     </cc:Agent>
    </dc:creator>
   </cc:Work>
  </rdf:RDF>
 </metadata>
 <defs>
  <style type="text/css">*{stroke-linejoin: round; stroke-linecap: butt}</style>
 </defs>
 <g id="figure_1">
  <g id="patch_1">
   <path d="M 0 324 
L 144 324 
L 144 0 
L 0 0 
z
" style="fill: #ffffff"/>
  </g>
  <g id="axes_1">
   <g id="patch_2">
    <path d="M 21.6 291.6 
L 136.8 291.6 
L 136.8 16.2 
L 21.6 16.2 
z
" style="fill: #ffffff"/>
   </g>
   <g id="FillBetweenPolyCollection_1">
    <path d="M 46.982977 182.46995 
L 45.962477 182.46995 
L 45.948867 181.478928 
L 45.936798 180.487905 
L 45.923401 179.496883 
L 45.905033 178.50586 
L 45.87742 177.514838 
L 45.835864 176.523816 
L 45.775518 175.532793 
L 45.691681 174.541771 
L 45.580134 173.550748 
L 45.437454 172.559726 
L 45.261318 171.568703 
L 45.050732 170.577681 
L 44.806188 169.586659 
L 44.529706 168.595636 
L 44.224759 167.604614 
L 43.89607 166.613591 
L 43.549281 165.622569 
L 43.190538 164.631546 
L 42.826007 163.640524 
L 42.46138 162.649502 
L 42.101417 161.658479 
L 41.749572 160.667457 
L 41.407746 159.676434 
L 41.076183 158.685412 
L 40.753522 157.694389 
L 40.436975 156.703367 
L 40.122616 155.712344 
L 39.80572 154.721322 
L 39.481128 153.7303 
L 39.143571 152.739277 
L 38.787963 151.748255 
L 38.409624 150.757232 
L 38.004455 149.76621 
L 37.569095 148.775187 
L 37.101057 147.784165 
L 36.598906 146.793143 
L 36.062447 145.80212 
L 35.492944 144.811098 
L 34.893331 143.820075 
L 34.268362 142.829053 
L 33.624659 141.83803 
L 32.970601 140.847008 
L 32.316023 139.855986 
L 31.671714 138.864963 
L 31.048746 137.873941 
L 30.457697 136.882918 
L 29.907844 135.891896 
L 29.406444 134.900873 
L 28.958201 133.909851 
L 28.564983 132.918829 
L 28.22587 131.927806 
L 27.937503 130.936784 
L 27.694723 129.945761 
L 27.491399 128.954739 
L 27.321352 127.963716 
L 27.179257 126.972694 
L 27.0614 125.981672 
L 26.966216 124.990649 
L 26.894535 123.999627 
L 26.849529 123.008604 
L 26.836364 122.017582 
L 26.861618 121.026559 
L 26.932532 120.035537 
L 27.056184 119.044515 
L 27.238674 118.053492 
L 27.484414 117.06247 
L 27.795577 116.071447 
L 28.171779 115.080425 
L 28.609998 114.089402 
L 29.104745 113.09838 
L 29.648454 112.107357 
L 30.23205 111.116335 
L 30.845625 110.125313 
L 31.479149 109.13429 
L 32.123142 108.143268 
L 32.769233 107.152245 
L 33.41057 106.161223 
L 34.042023 105.1702 
L 34.660213 104.179178 
L 35.263347 103.188156 
L 35.850936 102.197133 
L 36.42342 101.206111 
L 36.981776 100.215088 
L 37.527155 99.224066 
L 38.06059 98.233043 
L 38.582796 97.242021 
L 39.094078 96.250999 
L 39.594323 95.259976 
L 40.083058 94.268954 
L 40.559551 93.277931 
L 41.022913 92.286909 
L 41.472189 91.295886 
L 41.906412 90.304864 
L 42.324631 89.313842 
L 42.725905 88.322819 
L 43.109289 87.331797 
L 43.473807 86.340774 
L 43.818456 85.349752 
L 44.142216 84.358729 
L 48.803239 84.358729 
L 48.803239 84.358729 
L 49.126999 85.349752 
L 49.471648 86.340774 
L 49.836166 87.331797 
L 50.219549 88.322819 
L 50.620824 89.313842 
L 51.039042 90.304864 
L 51.473265 91.295886 
L 51.922541 92.286909 
L 52.385904 93.277931 
L 52.862397 94.268954 
L 53.351132 95.259976 
L 53.851376 96.250999 
L 54.362659 97.242021 
L 54.884865 98.233043 
L 55.418299 99.224066 
L 55.963679 100.215088 
L 56.522035 101.206111 
L 57.094518 102.197133 
L 57.682107 103.188156 
L 58.285242 104.179178 
L 58.903431 105.1702 
L 59.534885 106.161223 
L 60.176221 107.152245 
L 60.822313 108.143268 
L 61.466305 109.13429 
L 62.099829 110.125313 
L 62.713404 111.116335 
L 63.297 112.107357 
L 63.840709 113.09838 
L 64.335456 114.089402 
L 64.773675 115.080425 
L 65.149878 116.071447 
L 65.461041 117.06247 
L 65.70678 118.053492 
L 65.889271 119.044515 
L 66.012923 120.035537 
L 66.083837 121.026559 
L 66.109091 122.017582 
L 66.095926 123.008604 
L 66.050919 123.999627 
L 65.979239 124.990649 
L 65.884055 125.981672 
L 65.766198 126.972694 
L 65.624103 127.963716 
L 65.454056 128.954739 
L 65.250731 129.945761 
L 65.007951 130.936784 
L 64.719585 131.927806 
L 64.380471 132.918829 
L 63.987254 133.909851 
L 63.53901 134.900873 
L 63.037611 135.891896 
L 62.487758 136.882918 
L 61.896708 137.873941 
L 61.273741 138.864963 
L 60.629431 139.855986 
L 59.974853 140.847008 
L 59.320796 141.83803 
L 58.677092 142.829053 
L 58.052123 143.820075 
L 57.45251 144.811098 
L 56.883008 145.80212 
L 56.346548 146.793143 
L 55.844397 147.784165 
L 55.37636 148.775187 
L 54.940999 149.76621 
L 54.535831 150.757232 
L 54.157491 151.748255 
L 53.801884 152.739277 
L 53.464327 153.7303 
L 53.139734 154.721322 
L 52.822839 155.712344 
L 52.50848 156.703367 
L 52.191933 157.694389 
L 51.869271 158.685412 
L 51.537709 159.676434 
L 51.195883 160.667457 
L 50.844038 161.658479 
L 50.484075 162.649502 
L 50.119448 163.640524 
L 49.754917 164.631546 
L 49.396174 165.622569 
L 49.049385 166.613591 
L 48.720695 167.604614 
L 48.415749 168.595636 
L 48.139267 169.586659 
L 47.894722 170.577681 
L 47.684136 171.568703 
L 47.508 172.559726 
L 47.365321 173.550748 
L 47.253773 174.541771 
L 47.169937 175.532793 
L 47.10959 176.523816 
L 47.068035 177.514838 
L 47.040421 178.50586 
L 47.022053 179.496883 
L 47.008657 180.487905 
L 46.996588 181.478928 
L 46.982977 182.46995 
L 46.982977 182.46995 
z
" clip-path="url(#p3fe09fdf82)" style="fill: none; stroke: #000000; stroke-opacity: 0.3"/>
   </g>
   <g id="FillBetweenPolyCollection_2">
    <path d="M 46.978666 200.356849 
L 45.966789 200.356849 
L 45.967577 199.25767 
L 45.976449 198.158492 
L 45.991734 197.059313 
L 46.01105 195.960134 
L 46.031439 194.860955 
L 46.049524 193.761777 
L 46.061697 192.662598 
L 46.064298 191.563419 
L 46.053785 190.46424 
L 46.026881 189.365062 
L 45.980694 188.265883 
L 45.912814 187.166704 
L 45.821399 186.067526 
L 45.705246 184.968347 
L 45.563862 183.869168 
L 45.39752 182.769989 
L 45.207309 181.670811 
L 44.995145 180.571632 
L 44.763733 179.472453 
L 44.516459 178.373274 
L 44.257195 177.274096 
L 43.990006 176.174917 
L 43.718788 175.075738 
L 43.446838 173.976559 
L 43.176432 172.877381 
L 42.908446 171.778202 
L 42.642091 170.679023 
L 42.37482 169.579844 
L 42.102433 168.480666 
L 41.819403 167.381487 
L 41.519388 166.282308 
L 41.195889 165.18313 
L 40.842967 164.083951 
L 40.455948 162.984772 
L 40.032011 161.885593 
L 39.570609 160.786415 
L 39.073649 159.687236 
L 38.545435 158.588057 
L 37.992371 157.488878 
L 37.422464 156.3897 
L 36.844684 155.290521 
L 36.268244 154.191342 
L 35.701887 153.092163 
L 35.15321 151.992985 
L 34.628125 150.893806 
L 34.130452 149.794627 
L 33.661709 148.695448 
L 33.221072 147.59627 
L 32.805537 146.497091 
L 32.410251 145.397912 
L 32.02899 144.298734 
L 31.65478 143.199555 
L 31.280596 142.100376 
L 30.900135 141.001197 
L 30.508582 139.902019 
L 30.103342 138.80284 
L 29.684654 137.703661 
L 29.256022 136.604482 
L 28.824409 135.505304 
L 28.400121 134.406125 
L 27.996369 133.306946 
L 27.628512 132.207767 
L 27.31302 131.108589 
L 27.066261 130.00941 
L 26.90323 128.910231 
L 26.836364 127.811053 
L 26.874584 126.711874 
L 27.022688 125.612695 
L 27.281146 124.513516 
L 27.646325 123.414338 
L 28.111085 122.315159 
L 28.665623 121.21598 
L 29.298458 120.116801 
L 29.997373 119.017623 
L 30.75021 117.918444 
L 31.545415 116.819265 
L 32.372316 115.720086 
L 33.221136 114.620908 
L 34.08283 113.521729 
L 34.948824 112.42255 
L 35.810773 111.323371 
L 36.660406 110.224193 
L 37.489522 109.125014 
L 38.290142 108.025835 
L 39.054794 106.926657 
L 39.776876 105.827478 
L 40.451038 104.728299 
L 41.073497 103.62912 
L 41.642247 102.529942 
L 42.157116 101.430763 
L 42.619675 100.331584 
L 43.032996 99.232405 
L 43.401309 98.133227 
L 43.729584 97.034048 
L 44.023101 95.934869 
L 44.287049 94.83569 
L 44.526175 93.736512 
L 44.744544 92.637333 
L 44.945381 91.538154 
L 48.000074 91.538154 
L 48.000074 91.538154 
L 48.200911 92.637333 
L 48.419279 93.736512 
L 48.658406 94.83569 
L 48.922353 95.934869 
L 49.215871 97.034048 
L 49.544146 98.133227 
L 49.912458 99.232405 
L 50.32578 100.331584 
L 50.788339 101.430763 
L 51.303208 102.529942 
L 51.871957 103.62912 
L 52.494417 104.728299 
L 53.168579 105.827478 
L 53.890661 106.926657 
L 54.655312 108.025835 
L 55.455932 109.125014 
L 56.285049 110.224193 
L 57.134682 111.323371 
L 57.996631 112.42255 
L 58.862625 113.521729 
L 59.724319 114.620908 
L 60.573139 115.720086 
L 61.40004 116.819265 
L 62.195245 117.918444 
L 62.948081 119.017623 
L 63.646996 120.116801 
L 64.279832 121.21598 
L 64.83437 122.315159 
L 65.299129 123.414338 
L 65.664309 124.513516 
L 65.922767 125.612695 
L 66.07087 126.711874 
L 66.109091 127.811053 
L 66.042224 128.910231 
L 65.879193 130.00941 
L 65.632434 131.108589 
L 65.316942 132.207767 
L 64.949085 133.306946 
L 64.545334 134.406125 
L 64.121045 135.505304 
L 63.689432 136.604482 
L 63.260801 137.703661 
L 62.842112 138.80284 
L 62.436873 139.902019 
L 62.04532 141.001197 
L 61.664858 142.100376 
L 61.290675 143.199555 
L 60.916464 144.298734 
L 60.535204 145.397912 
L 60.139917 146.497091 
L 59.724383 147.59627 
L 59.283746 148.695448 
L 58.815002 149.794627 
L 58.31733 150.893806 
L 57.792244 151.992985 
L 57.243568 153.092163 
L 56.67721 154.191342 
L 56.100771 155.290521 
L 55.52299 156.3897 
L 54.953084 157.488878 
L 54.40002 158.588057 
L 53.871806 159.687236 
L 53.374845 160.786415 
L 52.913443 161.885593 
L 52.489507 162.984772 
L 52.102487 164.083951 
L 51.749566 165.18313 
L 51.426067 166.282308 
L 51.126052 167.381487 
L 50.843022 168.480666 
L 50.570635 169.579844 
L 50.303363 170.679023 
L 50.037009 171.778202 
L 49.769023 172.877381 
L 49.498617 173.976559 
L 49.226667 175.075738 
L 48.955448 176.174917 
L 48.68826 177.274096 
L 48.428995 178.373274 
L 48.181722 179.472453 
L 47.95031 180.571632 
L 47.738146 181.670811 
L 47.547935 182.769989 
L 47.381593 183.869168 
L 47.240208 184.968347 
L 47.124055 186.067526 
L 47.03264 187.166704 
L 46.96476 188.265883 
L 46.918573 189.365062 
L 46.891669 190.46424 
L 46.881156 191.563419 
L 46.883757 192.662598 
L 46.89593 193.761777 
L 46.914016 194.860955 
L 46.934405 195.960134 
L 46.953721 197.059313 
L 46.969005 198.158492 
L 46.977878 199.25767 
L 46.978666 200.356849 
L 46.978666 200.356849 
z
" clip-path="url(#p3fe09fdf82)" style="fill: none; stroke: #000000; stroke-opacity: 0.3"/>
   </g>
   <g id="FillBetweenPolyCollection_3">
    <path d="M 46.962401 319.710368 
L 45.983054 319.710368 
L 45.990063 317.45566 
L 46.010495 315.200952 
L 46.042643 312.946244 
L 46.08393 310.691536 
L 46.131244 308.436828 
L 46.181325 306.18212 
L 46.231129 303.927412 
L 46.278114 301.672704 
L 46.320417 299.417996 
L 46.356911 297.163288 
L 46.387161 294.90858 
L 46.411301 292.653872 
L 46.42987 290.399164 
L 46.443647 288.144456 
L 46.453499 285.889748 
L 46.460261 283.63504 
L 46.46466 281.380332 
L 46.467262 279.125625 
L 46.468449 276.870917 
L 46.468411 274.616209 
L 46.467142 272.361501 
L 46.464439 270.106793 
L 46.459908 267.852085 
L 46.452972 265.597377 
L 46.442895 263.342669 
L 46.428837 261.087961 
L 46.409931 258.833253 
L 46.385407 256.578545 
L 46.35474 254.323837 
L 46.31782 252.069129 
L 46.275108 249.814421 
L 46.227746 247.559713 
L 46.177593 245.305005 
L 46.127144 243.050297 
L 46.07933 240.795589 
L 46.0372 238.540882 
L 46.003525 236.286174 
L 45.980384 234.031466 
L 45.968789 231.776758 
L 45.968428 229.52205 
L 45.97758 227.267342 
L 45.993206 225.012634 
L 46.011228 222.757926 
L 46.026935 220.503218 
L 46.035469 218.24851 
L 46.032303 215.993802 
L 46.013643 213.739094 
L 45.976708 211.484386 
L 45.919845 209.229678 
L 45.842474 206.97497 
L 45.744891 204.720262 
L 45.627955 202.465554 
L 45.492719 200.210846 
L 45.340059 197.956139 
L 45.170344 195.701431 
L 44.983179 193.446723 
L 44.777223 191.192015 
L 44.550065 188.937307 
L 44.298129 186.682599 
L 44.016566 184.427891 
L 43.699116 182.173183 
L 43.337966 179.918475 
L 42.923673 177.663767 
L 42.445258 175.409059 
L 41.890613 173.154351 
L 41.247361 170.899643 
L 40.504208 168.644935 
L 39.652778 166.390227 
L 38.689737 164.135519 
L 37.618906 161.880811 
L 36.452946 159.626103 
L 35.214199 157.371396 
L 33.934328 155.116688 
L 32.652596 152.86198 
L 31.412866 150.607272 
L 30.259711 148.352564 
L 29.234199 146.097856 
L 28.370087 143.843148 
L 27.691066 141.58844 
L 27.209541 139.333732 
L 26.927083 137.079024 
L 26.836364 134.824316 
L 26.924075 132.569608 
L 27.174156 130.3149 
L 27.570639 128.060192 
L 28.099583 125.805484 
L 28.749808 123.550776 
L 29.512467 121.296068 
L 30.37972 119.04136 
L 31.342987 116.786652 
L 32.391269 114.531945 
L 33.509956 112.277237 
L 34.680414 110.022529 
L 35.880406 107.767821 
L 37.085252 105.513113 
L 38.26948 103.258405 
L 39.408667 101.003697 
L 40.481158 98.748989 
L 41.469423 96.494281 
L 51.476032 96.494281 
L 51.476032 96.494281 
L 52.464297 98.748989 
L 53.536787 101.003697 
L 54.675974 103.258405 
L 55.860203 105.513113 
L 57.065049 107.767821 
L 58.265041 110.022529 
L 59.435499 112.277237 
L 60.554186 114.531945 
L 61.602467 116.786652 
L 62.565735 119.04136 
L 63.432988 121.296068 
L 64.195646 123.550776 
L 64.845872 125.805484 
L 65.374815 128.060192 
L 65.771298 130.3149 
L 66.021379 132.569608 
L 66.109091 134.824316 
L 66.018372 137.079024 
L 65.735913 139.333732 
L 65.254389 141.58844 
L 64.575368 143.843148 
L 63.711255 146.097856 
L 62.685743 148.352564 
L 61.532588 150.607272 
L 60.292859 152.86198 
L 59.011126 155.116688 
L 57.731256 157.371396 
L 56.492509 159.626103 
L 55.326549 161.880811 
L 54.255717 164.135519 
L 53.292677 166.390227 
L 52.441246 168.644935 
L 51.698093 170.899643 
L 51.054841 173.154351 
L 50.500197 175.409059 
L 50.021781 177.663767 
L 49.607488 179.918475 
L 49.246339 182.173183 
L 48.928888 184.427891 
L 48.647325 186.682599 
L 48.39539 188.937307 
L 48.168232 191.192015 
L 47.962275 193.446723 
L 47.775111 195.701431 
L 47.605396 197.956139 
L 47.452736 200.210846 
L 47.3175 202.465554 
L 47.200563 204.720262 
L 47.10298 206.97497 
L 47.02561 209.229678 
L 46.968746 211.484386 
L 46.931812 213.739094 
L 46.913151 215.993802 
L 46.909985 218.24851 
L 46.91852 220.503218 
L 46.934227 222.757926 
L 46.952248 225.012634 
L 46.967875 227.267342 
L 46.977027 229.52205 
L 46.976666 231.776758 
L 46.96507 234.031466 
L 46.941929 236.286174 
L 46.908255 238.540882 
L 46.866125 240.795589 
L 46.818311 243.050297 
L 46.767862 245.305005 
L 46.717709 247.559713 
L 46.670347 249.814421 
L 46.627634 252.069129 
L 46.590715 254.323837 
L 46.560048 256.578545 
L 46.535524 258.833253 
L 46.516618 261.087961 
L 46.502559 263.342669 
L 46.492483 265.597377 
L 46.485547 267.852085 
L 46.481016 270.106793 
L 46.478313 272.361501 
L 46.477043 274.616209 
L 46.477005 276.870917 
L 46.478192 279.125625 
L 46.480794 281.380332 
L 46.485193 283.63504 
L 46.491956 285.889748 
L 46.501807 288.144456 
L 46.515584 290.399164 
L 46.534153 292.653872 
L 46.558293 294.90858 
L 46.588544 297.163288 
L 46.625038 299.417996 
L 46.667341 301.672704 
L 46.714326 303.927412 
L 46.76413 306.18212 
L 46.814211 308.436828 
L 46.861524 310.691536 
L 46.902811 312.946244 
L 46.93496 315.200952 
L 46.955391 317.45566 
L 46.962401 319.710368 
L 46.962401 319.710368 
z
" clip-path="url(#p3fe09fdf82)" style="fill: none; stroke: #000000; stroke-opacity: 0.3"/>
   </g>
   <g id="FillBetweenPolyCollection_4">
    <path d="M 46.861316 236.219274 
L 46.084139 236.219274 
L 46.09173 234.568632 
L 46.113625 232.917989 
L 46.147356 231.267347 
L 46.189325 229.616704 
L 46.23543 227.966062 
L 46.281722 226.315419 
L 46.324931 224.664777 
L 46.36279 223.014134 
L 46.394115 221.363492 
L 46.418688 219.71285 
L 46.437016 218.062207 
L 46.450036 216.411565 
L 46.458856 214.760922 
L 46.464549 213.11028 
L 46.468028 211.459637 
L 46.469984 209.808995 
L 46.47087 208.158352 
L 46.470888 206.50771 
L 46.469981 204.857067 
L 46.467785 203.206425 
L 46.463546 201.555782 
L 46.455999 199.90514 
L 46.443215 198.254498 
L 46.422458 196.603855 
L 46.390088 194.953213 
L 46.341581 193.30257 
L 46.271728 191.651928 
L 46.175063 190.001285 
L 46.046525 188.350643 
L 45.882308 186.7 
L 45.680749 185.049358 
L 45.443065 183.398715 
L 45.173701 181.748073 
L 44.880073 180.09743 
L 44.571573 178.446788 
L 44.257879 176.796146 
L 43.946751 175.145503 
L 43.641711 173.494861 
L 43.340091 171.844218 
L 43.031963 170.193576 
L 42.700329 168.542933 
L 42.322765 166.892291 
L 41.874354 165.241648 
L 41.331526 163.591006 
L 40.676166 161.940363 
L 39.899297 160.289721 
L 39.003729 158.639079 
L 38.005186 156.988436 
L 36.931683 155.337794 
L 35.821099 153.687151 
L 34.71713 152.036509 
L 33.664002 150.385866 
L 32.700603 148.735224 
L 31.854925 147.084581 
L 31.139884 145.433939 
L 30.55154 143.783296 
L 30.070396 142.132654 
L 29.66584 140.482011 
L 29.302997 138.831369 
L 28.950582 137.180727 
L 28.587969 135.530084 
L 28.20981 133.879442 
L 27.827162 132.228799 
L 27.464948 130.578157 
L 27.156553 128.927514 
L 26.936993 127.276872 
L 26.836364 125.626229 
L 26.875021 123.975587 
L 27.061402 122.324944 
L 27.392616 120.674302 
L 27.857285 119.02366 
L 28.439611 117.373017 
L 29.123492 115.722375 
L 29.895636 114.071732 
L 30.746982 112.42109 
L 31.672233 110.770447 
L 32.667796 109.119805 
L 33.728795 107.469162 
L 34.846029 105.81852 
L 36.003718 104.167877 
L 37.178665 102.517235 
L 38.341163 100.866592 
L 39.457549 99.21595 
L 40.493973 97.565308 
L 41.420665 95.914665 
L 42.215873 94.264023 
L 42.868693 92.61338 
L 43.380252 90.962738 
L 43.763012 89.312095 
L 44.038403 87.661453 
L 44.233265 86.01081 
L 44.375838 84.360168 
L 44.492041 82.709525 
L 44.602654 81.058883 
L 44.721772 79.40824 
L 44.856562 77.757598 
L 45.008118 76.106956 
L 45.173014 74.456313 
L 45.345113 72.805671 
L 47.600342 72.805671 
L 47.600342 72.805671 
L 47.77244 74.456313 
L 47.937337 76.106956 
L 48.088892 77.757598 
L 48.223682 79.40824 
L 48.3428 81.058883 
L 48.453414 82.709525 
L 48.569616 84.360168 
L 48.71219 86.01081 
L 48.907052 87.661453 
L 49.182443 89.312095 
L 49.565203 90.962738 
L 50.076761 92.61338 
L 50.729582 94.264023 
L 51.524789 95.914665 
L 52.451481 97.565308 
L 53.487905 99.21595 
L 54.604292 100.866592 
L 55.766789 102.517235 
L 56.941736 104.167877 
L 58.099425 105.81852 
L 59.21666 107.469162 
L 60.277659 109.119805 
L 61.273221 110.770447 
L 62.198473 112.42109 
L 63.049819 114.071732 
L 63.821962 115.722375 
L 64.505843 117.373017 
L 65.088169 119.02366 
L 65.552839 120.674302 
L 65.884053 122.324944 
L 66.070434 123.975587 
L 66.109091 125.626229 
L 66.008461 127.276872 
L 65.788902 128.927514 
L 65.480507 130.578157 
L 65.118293 132.228799 
L 64.735645 133.879442 
L 64.357486 135.530084 
L 63.994872 137.180727 
L 63.642457 138.831369 
L 63.279614 140.482011 
L 62.875058 142.132654 
L 62.393915 143.783296 
L 61.805571 145.433939 
L 61.09053 147.084581 
L 60.244852 148.735224 
L 59.281453 150.385866 
L 58.228325 152.036509 
L 57.124356 153.687151 
L 56.013772 155.337794 
L 54.940269 156.988436 
L 53.941726 158.639079 
L 53.046158 160.289721 
L 52.269289 161.940363 
L 51.613928 163.591006 
L 51.071101 165.241648 
L 50.62269 166.892291 
L 50.245125 168.542933 
L 49.913492 170.193576 
L 49.605363 171.844218 
L 49.303744 173.494861 
L 48.998704 175.145503 
L 48.687576 176.796146 
L 48.373882 178.446788 
L 48.065382 180.09743 
L 47.771753 181.748073 
L 47.50239 183.398715 
L 47.264706 185.049358 
L 47.063147 186.7 
L 46.89893 188.350643 
L 46.770392 190.001285 
L 46.673726 191.651928 
L 46.603873 193.30257 
L 46.555367 194.953213 
L 46.522997 196.603855 
L 46.50224 198.254498 
L 46.489456 199.90514 
L 46.481908 201.555782 
L 46.477669 203.206425 
L 46.475473 204.857067 
L 46.474567 206.50771 
L 46.474585 208.158352 
L 46.47547 209.808995 
L 46.477427 211.459637 
L 46.480905 213.11028 
L 46.486598 214.760922 
L 46.495418 216.411565 
L 46.508439 218.062207 
L 46.526766 219.71285 
L 46.55134 221.363492 
L 46.582664 223.014134 
L 46.620523 224.664777 
L 46.663732 226.315419 
L 46.710024 227.966062 
L 46.75613 229.616704 
L 46.798098 231.267347 
L 46.83183 232.917989 
L 46.853725 234.568632 
L 46.861316 236.219274 
L 46.861316 236.219274 
z
" clip-path="url(#p3fe09fdf82)" style="fill: none; stroke: #000000; stroke-opacity: 0.3"/>
   </g>
   <g id="FillBetweenPolyCollection_5">
    <path d="M 116.679014 173.319019 
L 107.175531 173.319019 
L 106.918765 172.674853 
L 106.668153 172.030687 
L 106.424923 171.386521 
L 106.190142 170.742355 
L 105.964713 170.098188 
L 105.749365 169.454022 
L 105.544661 168.809856 
L 105.350994 168.16569 
L 105.168586 167.521524 
L 104.997491 166.877357 
L 104.837582 166.233191 
L 104.688544 165.589025 
L 104.549862 164.944859 
L 104.420792 164.300693 
L 104.300348 163.656527 
L 104.187273 163.01236 
L 104.080017 162.368194 
L 103.976721 161.724028 
L 103.875207 161.079862 
L 103.772978 160.435696 
L 103.667231 159.791529 
L 103.554893 159.147363 
L 103.432665 158.503197 
L 103.297094 157.859031 
L 103.144657 157.214865 
L 102.971866 156.570698 
L 102.77538 155.926532 
L 102.552136 155.282366 
L 102.299476 154.6382 
L 102.015276 153.994034 
L 101.698066 153.349867 
L 101.34714 152.705701 
L 100.962635 152.061535 
L 100.545598 151.417369 
L 100.098011 150.773203 
L 99.622787 150.129037 
L 99.123734 149.48487 
L 98.605476 148.840704 
L 98.073352 148.196538 
L 97.533273 147.552372 
L 96.991567 146.908206 
L 96.454799 146.264039 
L 95.929583 145.619873 
L 95.422392 144.975707 
L 94.939379 144.331541 
L 94.486203 143.687375 
L 94.06789 143.043208 
L 93.688705 142.399042 
L 93.352075 141.754876 
L 93.060533 141.11071 
L 92.815704 140.466544 
L 92.618327 139.822378 
L 92.468311 139.178211 
L 92.364813 138.534045 
L 92.306348 137.889879 
L 92.290909 137.245713 
L 92.316103 136.601547 
L 92.379284 135.95738 
L 92.477682 135.313214 
L 92.60853 134.669048 
L 92.769164 134.024882 
L 92.957112 133.380716 
L 93.170157 132.736549 
L 93.406379 132.092383 
L 93.664172 131.448217 
L 93.94224 130.804051 
L 94.239576 130.159885 
L 94.555421 129.515718 
L 94.889214 128.871552 
L 95.240532 128.227386 
L 95.609029 127.58322 
L 95.994372 126.939054 
L 96.396181 126.294888 
L 96.813979 125.650721 
L 97.247143 125.006555 
L 97.694878 124.362389 
L 98.156185 123.718223 
L 98.629859 123.074057 
L 99.114487 122.42989 
L 99.608455 121.785724 
L 100.109973 121.141558 
L 100.617102 120.497392 
L 101.127787 119.853226 
L 101.639895 119.209059 
L 102.151257 118.564893 
L 102.659708 117.920727 
L 103.163128 117.276561 
L 103.659481 116.632395 
L 104.146845 115.988229 
L 104.623446 115.344062 
L 105.087679 114.699896 
L 105.538126 114.05573 
L 105.973567 113.411564 
L 106.392988 112.767398 
L 106.795577 112.123231 
L 107.180721 111.479065 
L 107.547993 110.834899 
L 107.897141 110.190733 
L 108.228072 109.546567 
L 115.626474 109.546567 
L 115.626474 109.546567 
L 115.957404 110.190733 
L 116.306553 110.834899 
L 116.673825 111.479065 
L 117.058968 112.123231 
L 117.461557 112.767398 
L 117.880978 113.411564 
L 118.31642 114.05573 
L 118.766866 114.699896 
L 119.231099 115.344062 
L 119.7077 115.988229 
L 120.195065 116.632395 
L 120.691417 117.276561 
L 121.194838 117.920727 
L 121.703289 118.564893 
L 122.21465 119.209059 
L 122.726758 119.853226 
L 123.237443 120.497392 
L 123.744572 121.141558 
L 124.246091 121.785724 
L 124.740059 122.42989 
L 125.224686 123.074057 
L 125.698361 123.718223 
L 126.159668 124.362389 
L 126.607402 125.006555 
L 127.040567 125.650721 
L 127.458364 126.294888 
L 127.860173 126.939054 
L 128.245516 127.58322 
L 128.614013 128.227386 
L 128.965331 128.871552 
L 129.299124 129.515718 
L 129.614969 130.159885 
L 129.912305 130.804051 
L 130.190374 131.448217 
L 130.448166 132.092383 
L 130.684388 132.736549 
L 130.897433 133.380716 
L 131.085381 134.024882 
L 131.246015 134.669048 
L 131.376863 135.313214 
L 131.475262 135.95738 
L 131.538442 136.601547 
L 131.563636 137.245713 
L 131.548198 137.889879 
L 131.489732 138.534045 
L 131.386234 139.178211 
L 131.236218 139.822378 
L 131.038842 140.466544 
L 130.794013 141.11071 
L 130.502471 141.754876 
L 130.165841 142.399042 
L 129.786656 143.043208 
L 129.368342 143.687375 
L 128.915167 144.331541 
L 128.432153 144.975707 
L 127.924963 145.619873 
L 127.399746 146.264039 
L 126.862978 146.908206 
L 126.321272 147.552372 
L 125.781194 148.196538 
L 125.249069 148.840704 
L 124.730812 149.48487 
L 124.231758 150.129037 
L 123.756535 150.773203 
L 123.308947 151.417369 
L 122.89191 152.061535 
L 122.507406 152.705701 
L 122.156479 153.349867 
L 121.83927 153.994034 
L 121.55507 154.6382 
L 121.302409 155.282366 
L 121.079166 155.926532 
L 120.88268 156.570698 
L 120.709888 157.214865 
L 120.557452 157.859031 
L 120.421881 158.503197 
L 120.299653 159.147363 
L 120.187314 159.791529 
L 120.081568 160.435696 
L 119.979338 161.079862 
L 119.877824 161.724028 
L 119.774529 162.368194 
L 119.667273 163.01236 
L 119.554197 163.656527 
L 119.433753 164.300693 
L 119.304684 164.944859 
L 119.166001 165.589025 
L 119.016964 166.233191 
L 118.857055 166.877357 
L 118.685959 167.521524 
L 118.503552 168.16569 
L 118.309884 168.809856 
L 118.10518 169.454022 
L 117.889833 170.098188 
L 117.664403 170.742355 
L 117.429623 171.386521 
L 117.186392 172.030687 
L 116.93578 172.674853 
L 116.679014 173.319019 
L 116.679014 173.319019 
z
" clip-path="url(#p3fe09fdf82)" style="fill: none; stroke: #000000; stroke-opacity: 0.3"/>
   </g>
   <g id="FillBetweenPolyCollection_6">
    <path d="M 115.366556 191.718602 
L 108.48799 191.718602 
L 108.338239 190.865086 
L 108.190189 190.011569 
L 108.043365 189.158052 
L 107.897107 188.304535 
L 107.750585 187.451018 
L 107.602824 186.597502 
L 107.45273 185.743985 
L 107.299126 184.890468 
L 107.140786 184.036951 
L 106.976472 183.183434 
L 106.804968 182.329918 
L 106.62512 181.476401 
L 106.435859 180.622884 
L 106.236232 179.769367 
L 106.025421 178.91585 
L 105.802752 178.062334 
L 105.56771 177.208817 
L 105.319933 176.3553 
L 105.059213 175.501783 
L 104.785484 174.648266 
L 104.498808 173.79475 
L 104.199368 172.941233 
L 103.887445 172.087716 
L 103.56341 171.234199 
L 103.227711 170.380682 
L 102.880863 169.527166 
L 102.523448 168.673649 
L 102.156115 167.820132 
L 101.779579 166.966615 
L 101.394638 166.113098 
L 101.002174 165.259582 
L 100.603173 164.406065 
L 100.198736 163.552548 
L 99.790082 162.699031 
L 99.378565 161.845514 
L 98.965669 160.991998 
L 98.553005 160.138481 
L 98.142299 159.284964 
L 97.735374 158.431447 
L 97.334123 157.57793 
L 96.940472 156.724414 
L 96.556347 155.870897 
L 96.183623 155.01738 
L 95.824083 154.163863 
L 95.479373 153.310346 
L 95.150957 152.45683 
L 94.840079 151.603313 
L 94.547734 150.749796 
L 94.274649 149.896279 
L 94.021267 149.042762 
L 93.787751 148.189246 
L 93.573999 147.335729 
L 93.379662 146.482212 
L 93.204185 145.628695 
L 93.046842 144.775178 
L 92.906795 143.921662 
L 92.783138 143.068145 
L 92.674958 142.214628 
L 92.581387 141.361111 
L 92.501648 140.507594 
L 92.435103 139.654078 
L 92.381283 138.800561 
L 92.339914 137.947044 
L 92.310931 137.093527 
L 92.29448 136.24001 
L 92.290909 135.386494 
L 92.30075 134.532977 
L 92.324693 133.67946 
L 92.363551 132.825943 
L 92.418225 131.972426 
L 92.489661 131.11891 
L 92.578809 130.265393 
L 92.686588 129.411876 
L 92.813849 128.558359 
L 92.961345 127.704843 
L 93.129708 126.851326 
L 93.319433 125.997809 
L 93.530868 125.144292 
L 93.76421 124.290775 
L 94.019506 123.437259 
L 94.296663 122.583742 
L 94.595454 121.730225 
L 94.915533 120.876708 
L 95.256443 120.023191 
L 95.617631 119.169675 
L 95.998457 118.316158 
L 96.398198 117.462641 
L 96.81605 116.609124 
L 97.25113 115.755607 
L 97.702473 114.902091 
L 98.169021 114.048574 
L 98.649614 113.195057 
L 99.142987 112.34154 
L 99.647753 111.488023 
L 100.162399 110.634507 
L 100.685279 109.78099 
L 101.214616 108.927473 
L 101.748502 108.073956 
L 102.284912 107.220439 
L 121.569634 107.220439 
L 121.569634 107.220439 
L 122.106043 108.073956 
L 122.63993 108.927473 
L 123.169266 109.78099 
L 123.692147 110.634507 
L 124.206792 111.488023 
L 124.711558 112.34154 
L 125.204931 113.195057 
L 125.685525 114.048574 
L 126.152072 114.902091 
L 126.603415 115.755607 
L 127.038496 116.609124 
L 127.456348 117.462641 
L 127.856088 118.316158 
L 128.236914 119.169675 
L 128.598103 120.023191 
L 128.939013 120.876708 
L 129.259091 121.730225 
L 129.557882 122.583742 
L 129.835039 123.437259 
L 130.090336 124.290775 
L 130.323678 125.144292 
L 130.535113 125.997809 
L 130.724838 126.851326 
L 130.893201 127.704843 
L 131.040696 128.558359 
L 131.167957 129.411876 
L 131.275736 130.265393 
L 131.364884 131.11891 
L 131.43632 131.972426 
L 131.490994 132.825943 
L 131.529853 133.67946 
L 131.553795 134.532977 
L 131.563636 135.386494 
L 131.560065 136.24001 
L 131.543614 137.093527 
L 131.514631 137.947044 
L 131.473263 138.800561 
L 131.419442 139.654078 
L 131.352897 140.507594 
L 131.273158 141.361111 
L 131.179587 142.214628 
L 131.071407 143.068145 
L 130.947751 143.921662 
L 130.807703 144.775178 
L 130.650361 145.628695 
L 130.474883 146.482212 
L 130.280546 147.335729 
L 130.066794 148.189246 
L 129.833279 149.042762 
L 129.579896 149.896279 
L 129.306811 150.749796 
L 129.014467 151.603313 
L 128.703589 152.45683 
L 128.375172 153.310346 
L 128.030462 154.163863 
L 127.670923 155.01738 
L 127.298199 155.870897 
L 126.914073 156.724414 
L 126.520423 157.57793 
L 126.119171 158.431447 
L 125.712246 159.284964 
L 125.30154 160.138481 
L 124.888876 160.991998 
L 124.47598 161.845514 
L 124.064463 162.699031 
L 123.65581 163.552548 
L 123.251372 164.406065 
L 122.852372 165.259582 
L 122.459908 166.113098 
L 122.074966 166.966615 
L 121.698431 167.820132 
L 121.331097 168.673649 
L 120.973683 169.527166 
L 120.626835 170.380682 
L 120.291135 171.234199 
L 119.9671 172.087716 
L 119.655177 172.941233 
L 119.355737 173.79475 
L 119.069062 174.648266 
L 118.795332 175.501783 
L 118.534612 176.3553 
L 118.286836 177.208817 
L 118.051794 178.062334 
L 117.829125 178.91585 
L 117.618313 179.769367 
L 117.418686 180.622884 
L 117.229426 181.476401 
L 117.049577 182.329918 
L 116.878074 183.183434 
L 116.713759 184.036951 
L 116.555419 184.890468 
L 116.401815 185.743985 
L 116.251722 186.597502 
L 116.10396 187.451018 
L 115.957439 188.304535 
L 115.811181 189.158052 
L 115.664357 190.011569 
L 115.516306 190.865086 
L 115.366556 191.718602 
L 115.366556 191.718602 
z
" clip-path="url(#p3fe09fdf82)" style="fill: none; stroke: #000000; stroke-opacity: 0.3"/>
   </g>
   <g id="FillBetweenPolyCollection_7">
    <path d="M 112.852407 202.835876 
L 111.002139 202.835876 
L 110.986382 201.793883 
L 110.974116 200.751889 
L 110.963189 199.709896 
L 110.95088 198.667903 
L 110.933958 197.625909 
L 110.90877 196.583916 
L 110.871351 195.541922 
L 110.817568 194.499929 
L 110.74327 193.457936 
L 110.644463 192.415942 
L 110.517481 191.373949 
L 110.359152 190.331955 
L 110.166959 189.289962 
L 109.939167 188.247969 
L 109.674927 187.205975 
L 109.374335 186.163982 
L 109.038447 185.121989 
L 108.66924 184.079995 
L 108.269525 183.038002 
L 107.842812 181.996008 
L 107.393132 180.954015 
L 106.924831 179.912022 
L 106.442341 178.870028 
L 105.949959 177.828035 
L 105.45163 176.786041 
L 104.950769 175.744048 
L 104.450117 174.702055 
L 103.951653 173.660061 
L 103.456564 172.618068 
L 102.965265 171.576075 
L 102.477479 170.534081 
L 101.992351 169.492088 
L 101.508608 168.450094 
L 101.024726 167.408101 
L 100.539116 166.366108 
L 100.0503 165.324114 
L 99.557083 164.282121 
L 99.058695 163.240127 
L 98.554926 162.198134 
L 98.04622 161.156141 
L 97.533755 160.114147 
L 97.019492 159.072154 
L 96.506198 158.030161 
L 95.997444 156.988167 
L 95.497576 155.946174 
L 95.011659 154.90418 
L 94.545391 153.862187 
L 94.104981 152.820194 
L 93.697013 151.7782 
L 93.328261 150.736207 
L 93.005502 149.694213 
L 92.735291 148.65222 
L 92.523744 147.610227 
L 92.376305 146.568233 
L 92.297533 145.52624 
L 92.290909 144.484247 
L 92.358666 143.442253 
L 92.50167 142.40026 
L 92.719339 141.358266 
L 93.009619 140.316273 
L 93.369013 139.27428 
L 93.79266 138.232286 
L 94.274472 137.190293 
L 94.807301 136.1483 
L 95.383161 135.106306 
L 95.993456 134.064313 
L 96.629246 133.022319 
L 97.281502 131.980326 
L 97.941365 130.938333 
L 98.600389 129.896339 
L 99.25076 128.854346 
L 99.885479 127.812352 
L 100.498516 126.770359 
L 101.084913 125.728366 
L 101.640845 124.686372 
L 102.16364 123.644379 
L 102.651752 122.602386 
L 103.104695 121.560392 
L 103.522951 120.518399 
L 103.907845 119.476405 
L 104.261408 118.434412 
L 104.586231 117.392419 
L 104.885316 116.350425 
L 105.161936 115.308432 
L 105.419507 114.266438 
L 105.661474 113.224445 
L 105.891213 112.182452 
L 106.111951 111.140458 
L 106.326705 110.098465 
L 106.538219 109.056472 
L 106.748927 108.014478 
L 106.960911 106.972485 
L 107.175866 105.930491 
L 107.39507 104.888498 
L 107.61936 103.846505 
L 107.84911 102.804511 
L 108.084228 101.762518 
L 108.324159 100.720524 
L 108.567908 99.678531 
L 115.286638 99.678531 
L 115.286638 99.678531 
L 115.530386 100.720524 
L 115.770317 101.762518 
L 116.005436 102.804511 
L 116.235186 103.846505 
L 116.459475 104.888498 
L 116.678679 105.930491 
L 116.893634 106.972485 
L 117.105618 108.014478 
L 117.316327 109.056472 
L 117.527841 110.098465 
L 117.742594 111.140458 
L 117.963333 112.182452 
L 118.193072 113.224445 
L 118.435038 114.266438 
L 118.69261 115.308432 
L 118.96923 116.350425 
L 119.268315 117.392419 
L 119.593138 118.434412 
L 119.946701 119.476405 
L 120.331595 120.518399 
L 120.749851 121.560392 
L 121.202794 122.602386 
L 121.690905 123.644379 
L 122.213701 124.686372 
L 122.769633 125.728366 
L 123.356029 126.770359 
L 123.969066 127.812352 
L 124.603786 128.854346 
L 125.254156 129.896339 
L 125.91318 130.938333 
L 126.573043 131.980326 
L 127.225299 133.022319 
L 127.861089 134.064313 
L 128.471385 135.106306 
L 129.047244 136.1483 
L 129.580074 137.190293 
L 130.061885 138.232286 
L 130.485533 139.27428 
L 130.844926 140.316273 
L 131.135206 141.358266 
L 131.352875 142.40026 
L 131.495879 143.442253 
L 131.563636 144.484247 
L 131.557012 145.52624 
L 131.478241 146.568233 
L 131.330801 147.610227 
L 131.119254 148.65222 
L 130.849044 149.694213 
L 130.526284 150.736207 
L 130.157533 151.7782 
L 129.749564 152.820194 
L 129.309155 153.862187 
L 128.842886 154.90418 
L 128.35697 155.946174 
L 127.857102 156.988167 
L 127.348348 158.030161 
L 126.835053 159.072154 
L 126.32079 160.114147 
L 125.808325 161.156141 
L 125.299619 162.198134 
L 124.79585 163.240127 
L 124.297463 164.282121 
L 123.804245 165.324114 
L 123.31543 166.366108 
L 122.82982 167.408101 
L 122.345938 168.450094 
L 121.862195 169.492088 
L 121.377067 170.534081 
L 120.88928 171.576075 
L 120.397981 172.618068 
L 119.902892 173.660061 
L 119.404429 174.702055 
L 118.903776 175.744048 
L 118.402915 176.786041 
L 117.904587 177.828035 
L 117.412204 178.870028 
L 116.929715 179.912022 
L 116.461413 180.954015 
L 116.011734 181.996008 
L 115.585021 183.038002 
L 115.185306 184.079995 
L 114.816098 185.121989 
L 114.48021 186.163982 
L 114.179619 187.205975 
L 113.915379 188.247969 
L 113.687587 189.289962 
L 113.495393 190.331955 
L 113.337065 191.373949 
L 113.210083 192.415942 
L 113.111276 193.457936 
L 113.036978 194.499929 
L 112.983194 195.541922 
L 112.945775 196.583916 
L 112.920587 197.625909 
L 112.903666 198.667903 
L 112.891357 199.709896 
L 112.88043 200.751889 
L 112.868164 201.793883 
L 112.852407 202.835876 
L 112.852407 202.835876 
z
" clip-path="url(#p3fe09fdf82)" style="fill: none; stroke: #000000; stroke-opacity: 0.3"/>
   </g>
   <g id="FillBetweenPolyCollection_8">
    <path d="M 117.18283 174.845658 
L 106.671716 174.845658 
L 106.316414 173.85986 
L 105.954479 172.874062 
L 105.587433 171.888264 
L 105.216915 170.902465 
L 104.84466 169.916667 
L 104.472472 168.930869 
L 104.102183 167.945071 
L 103.735619 166.959273 
L 103.374545 165.973475 
L 103.020613 164.987677 
L 102.675314 164.001879 
L 102.339912 163.016081 
L 102.015399 162.030283 
L 101.702436 161.044484 
L 101.401321 160.058686 
L 101.111948 159.072888 
L 100.833787 158.08709 
L 100.565886 157.101292 
L 100.30687 156.115494 
L 100.054979 155.129696 
L 99.808108 154.143898 
L 99.56387 153.1581 
L 99.319678 152.172302 
L 99.072836 151.186503 
L 98.820645 150.200705 
L 98.560515 149.214907 
L 98.290083 148.229109 
L 98.007334 147.243311 
L 97.710707 146.257513 
L 97.399208 145.271715 
L 97.072494 144.285917 
L 96.730953 143.300119 
L 96.375754 142.314321 
L 96.008882 141.328522 
L 95.63314 140.342724 
L 95.25213 139.356926 
L 94.870209 138.371128 
L 94.492412 137.38533 
L 94.124359 136.399532 
L 93.772136 135.413734 
L 93.442158 134.427936 
L 93.141023 133.442138 
L 92.875343 132.45634 
L 92.651589 131.470541 
L 92.475915 130.484743 
L 92.354003 129.498945 
L 92.290909 128.513147 
L 92.290924 127.527349 
L 92.357454 126.541551 
L 92.492922 125.555753 
L 92.698694 124.569955 
L 92.975031 123.584157 
L 93.321066 122.598359 
L 93.734819 121.61256 
L 94.213224 120.626762 
L 94.7522 119.640964 
L 95.34673 118.655166 
L 95.990974 117.669368 
L 96.678395 116.68357 
L 97.401897 115.697772 
L 98.153973 114.711974 
L 98.926869 113.726176 
L 99.71273 112.740378 
L 100.503759 111.754579 
L 101.292361 110.768781 
L 102.071276 109.782983 
L 102.833697 108.797185 
L 103.573375 107.811387 
L 104.284704 106.825589 
L 104.962783 105.839791 
L 105.60346 104.853993 
L 106.203361 103.868195 
L 106.759895 102.882396 
L 107.271241 101.896598 
L 107.73633 100.9108 
L 108.1548 99.925002 
L 108.526952 98.939204 
L 108.853694 97.953406 
L 109.136477 96.967608 
L 109.377233 95.98181 
L 109.578304 94.996012 
L 109.742377 94.010214 
L 109.87242 93.024415 
L 109.971613 92.038617 
L 110.04329 91.052819 
L 110.090882 90.067021 
L 110.117859 89.081223 
L 110.127679 88.095425 
L 110.123741 87.109627 
L 110.109339 86.123829 
L 110.087623 85.138031 
L 110.061558 84.152233 
L 110.033891 83.166434 
L 110.007121 82.180636 
L 109.983474 81.194838 
L 109.964883 80.20904 
L 109.952967 79.223242 
L 109.94903 78.237444 
L 109.95405 77.251646 
L 113.900495 77.251646 
L 113.900495 77.251646 
L 113.905515 78.237444 
L 113.901578 79.223242 
L 113.889663 80.20904 
L 113.871071 81.194838 
L 113.847424 82.180636 
L 113.820655 83.166434 
L 113.792987 84.152233 
L 113.766922 85.138031 
L 113.745206 86.123829 
L 113.730805 87.109627 
L 113.726867 88.095425 
L 113.736686 89.081223 
L 113.763663 90.067021 
L 113.811255 91.052819 
L 113.882933 92.038617 
L 113.982126 93.024415 
L 114.112168 94.010214 
L 114.276242 94.996012 
L 114.477313 95.98181 
L 114.718068 96.967608 
L 115.000852 97.953406 
L 115.327594 98.939204 
L 115.699746 99.925002 
L 116.118215 100.9108 
L 116.583304 101.896598 
L 117.094651 102.882396 
L 117.651184 103.868195 
L 118.251085 104.853993 
L 118.891762 105.839791 
L 119.569841 106.825589 
L 120.28117 107.811387 
L 121.020849 108.797185 
L 121.78327 109.782983 
L 122.562184 110.768781 
L 123.350786 111.754579 
L 124.141815 112.740378 
L 124.927677 113.726176 
L 125.700572 114.711974 
L 126.452649 115.697772 
L 127.17615 116.68357 
L 127.863571 117.669368 
L 128.507816 118.655166 
L 129.102346 119.640964 
L 129.641321 120.626762 
L 130.119727 121.61256 
L 130.533479 122.598359 
L 130.879515 123.584157 
L 131.155851 124.569955 
L 131.361624 125.555753 
L 131.497092 126.541551 
L 131.563622 127.527349 
L 131.563636 128.513147 
L 131.500542 129.498945 
L 131.378631 130.484743 
L 131.202957 131.470541 
L 130.979202 132.45634 
L 130.713523 133.442138 
L 130.412387 134.427936 
L 130.08241 135.413734 
L 129.730187 136.399532 
L 129.362133 137.38533 
L 128.984337 138.371128 
L 128.602415 139.356926 
L 128.221406 140.342724 
L 127.845664 141.328522 
L 127.478791 142.314321 
L 127.123593 143.300119 
L 126.782051 144.285917 
L 126.455337 145.271715 
L 126.143838 146.257513 
L 125.847212 147.243311 
L 125.564462 148.229109 
L 125.294031 149.214907 
L 125.0339 150.200705 
L 124.781709 151.186503 
L 124.534867 152.172302 
L 124.290675 153.1581 
L 124.046437 154.143898 
L 123.799566 155.129696 
L 123.547675 156.115494 
L 123.28866 157.101292 
L 123.020758 158.08709 
L 122.742598 159.072888 
L 122.453224 160.058686 
L 122.152109 161.044484 
L 121.839147 162.030283 
L 121.514633 163.016081 
L 121.179231 164.001879 
L 120.833932 164.987677 
L 120.480001 165.973475 
L 120.118926 166.959273 
L 119.752362 167.945071 
L 119.382074 168.930869 
L 119.009885 169.916667 
L 118.637631 170.902465 
L 118.267113 171.888264 
L 117.900067 172.874062 
L 117.538132 173.85986 
L 117.18283 174.845658 
L 117.18283 174.845658 
z
" clip-path="url(#p3fe09fdf82)" style="fill: none; stroke: #000000; stroke-opacity: 0.3"/>
   </g>
   <g id="FillBetweenPolyCollection_9">
    <path d="M 111.54969 325 
L 111.582451 323.360004 
L 111.630869 321.085152 
L 111.679403 318.810301 
L 111.725614 316.53545 
L 111.767662 314.260598 
L 111.804371 311.985747 
L 111.835205 309.710896 
L 111.860175 307.436045 
L 111.879699 305.161193 
L 111.894458 302.886342 
L 111.905252 300.611491 
L 111.912897 298.336639 
L 111.918142 296.061788 
L 111.921631 293.786937 
L 111.923881 291.512085 
L 111.925289 289.237234 
L 111.926144 286.962383 
L 111.926648 284.687531 
L 111.926936 282.41268 
L 111.927095 280.137829 
L 111.92718 277.862978 
L 111.927221 275.588126 
L 111.927234 273.313275 
L 111.927226 271.038424 
L 111.927191 268.763572 
L 111.927113 266.488721 
L 111.926957 264.21387 
L 111.92666 261.939018 
L 111.926112 259.664167 
L 111.925128 257.389316 
L 111.923409 255.114464 
L 111.920488 252.839613 
L 111.915658 250.564762 
L 111.907883 248.289911 
L 111.89571 246.015059 
L 111.877165 243.740208 
L 111.849687 241.465357 
L 111.81009 239.190505 
L 111.75461 236.915654 
L 111.67905 234.640803 
L 111.579053 232.365951 
L 111.450508 230.0911 
L 111.290072 227.816249 
L 111.095771 225.541397 
L 110.867593 223.266546 
L 110.607977 220.991695 
L 110.322087 218.716844 
L 110.017782 216.441992 
L 109.70519 214.167141 
L 109.395895 211.89229 
L 109.101773 209.617438 
L 108.83359 207.342587 
L 108.599533 205.067736 
L 108.40386 202.792884 
L 108.245872 200.518033 
L 108.119368 198.243182 
L 108.012696 195.96833 
L 107.909452 193.693479 
L 107.78978 191.418628 
L 107.632158 189.143777 
L 107.415487 186.868925 
L 107.121218 184.594074 
L 106.735257 182.319223 
L 106.249369 180.044371 
L 105.66186 177.76952 
L 104.977439 175.494669 
L 104.206262 173.219817 
L 103.362348 170.944966 
L 102.461658 168.670115 
L 101.52024 166.395263 
L 100.552814 164.120412 
L 99.57214 161.845561 
L 98.589276 159.57071 
L 97.614703 157.295858 
L 96.660012 155.021007 
L 95.739725 152.746156 
L 94.872755 150.471304 
L 94.083017 148.196453 
L 93.398939 145.921602 
L 92.851777 143.64675 
L 92.472968 141.371899 
L 92.290909 139.097048 
L 92.327731 136.822197 
L 92.596579 134.547345 
L 93.099827 132.272494 
L 93.828469 129.997643 
L 94.762665 127.722791 
L 95.873296 125.44794 
L 97.124213 123.173089 
L 98.474837 120.898237 
L 99.882823 118.623386 
L 101.306533 116.348535 
L 102.707187 114.073683 
L 104.05059 111.798832 
L 105.30842 109.523981 
L 118.546125 109.523981 
L 118.546125 109.523981 
L 119.803956 111.798832 
L 121.147359 114.073683 
L 122.548012 116.348535 
L 123.971723 118.623386 
L 125.379709 120.898237 
L 126.730333 123.173089 
L 127.981249 125.44794 
L 129.091881 127.722791 
L 130.026076 129.997643 
L 130.754718 132.272494 
L 131.257967 134.547345 
L 131.526814 136.822197 
L 131.563636 139.097048 
L 131.381577 141.371899 
L 131.002768 143.64675 
L 130.455607 145.921602 
L 129.771529 148.196453 
L 128.981791 150.471304 
L 128.11482 152.746156 
L 127.194534 155.021007 
L 126.239842 157.295858 
L 125.265269 159.57071 
L 124.282405 161.845561 
L 123.301731 164.120412 
L 122.334306 166.395263 
L 121.392887 168.670115 
L 120.492198 170.944966 
L 119.648284 173.219817 
L 118.877107 175.494669 
L 118.192685 177.76952 
L 117.605177 180.044371 
L 117.119288 182.319223 
L 116.733328 184.594074 
L 116.439058 186.868925 
L 116.222387 189.143777 
L 116.064766 191.418628 
L 115.945094 193.693479 
L 115.84185 195.96833 
L 115.735178 198.243182 
L 115.608673 200.518033 
L 115.450685 202.792884 
L 115.255012 205.067736 
L 115.020955 207.342587 
L 114.752772 209.617438 
L 114.45865 211.89229 
L 114.149355 214.167141 
L 113.836763 216.441992 
L 113.532458 218.716844 
L 113.246569 220.991695 
L 112.986952 223.266546 
L 112.758774 225.541397 
L 112.564474 227.816249 
L 112.404038 230.0911 
L 112.275492 232.365951 
L 112.175495 234.640803 
L 112.099936 236.915654 
L 112.044456 239.190505 
L 112.004859 241.465357 
L 111.97738 243.740208 
L 111.958836 246.015059 
L 111.946662 248.289911 
L 111.938888 250.564762 
L 111.934057 252.839613 
L 111.931136 255.114464 
L 111.929418 257.389316 
L 111.928434 259.664167 
L 111.927886 261.939018 
L 111.927588 264.21387 
L 111.927433 266.488721 
L 111.927354 268.763572 
L 111.927319 271.038424 
L 111.927311 273.313275 
L 111.927325 275.588126 
L 111.927366 277.862978 
L 111.92745 280.137829 
L 111.92761 282.41268 
L 111.927898 284.687531 
L 111.928401 286.962383 
L 111.929256 289.237234 
L 111.930664 291.512085 
L 111.932915 293.786937 
L 111.936404 296.061788 
L 111.941649 298.336639 
L 111.949293 300.611491 
L 111.960088 302.886342 
L 111.974846 305.161193 
L 111.994371 307.436045 
L 112.019341 309.710896 
L 112.050175 311.985747 
L 112.086883 314.260598 
L 112.128931 316.53545 
L 112.175142 318.810301 
L 112.223676 321.085152 
L 112.272095 323.360004 
L 112.304856 325 
" clip-path="url(#p3fe09fdf82)" style="fill: none; stroke: #000000; stroke-opacity: 0.3"/>
   </g>
   <g id="FillBetweenPolyCollection_10">
    <path d="M 114.883549 188.342922 
L 108.970996 188.342922 
L 108.805679 187.656062 
L 108.642505 186.969202 
L 108.481754 186.282342 
L 108.323475 185.595482 
L 108.167467 184.908623 
L 108.013272 184.221763 
L 107.86018 183.534903 
L 107.707233 182.848043 
L 107.553252 182.161183 
L 107.396868 181.474323 
L 107.236563 180.787463 
L 107.070719 180.100604 
L 106.897677 179.413744 
L 106.715794 178.726884 
L 106.523515 178.040024 
L 106.319431 177.353164 
L 106.102346 176.666304 
L 105.871333 175.979444 
L 105.625785 175.292585 
L 105.365457 174.605725 
L 105.090491 173.918865 
L 104.801439 173.232005 
L 104.499257 172.545145 
L 104.185296 171.858285 
L 103.861273 171.171426 
L 103.529226 170.484566 
L 103.191462 169.797706 
L 102.850487 169.110846 
L 102.508936 168.423986 
L 102.169483 167.737126 
L 101.834764 167.050266 
L 101.507291 166.363407 
L 101.189366 165.676547 
L 100.883006 164.989687 
L 100.58988 164.302827 
L 100.311244 163.615967 
L 100.047904 162.929107 
L 99.800185 162.242247 
L 99.567911 161.555388 
L 99.350417 160.868528 
L 99.146561 160.181668 
L 98.95476 159.494808 
L 98.773042 158.807948 
L 98.599109 158.121088 
L 98.430411 157.434229 
L 98.264237 156.747369 
L 98.097804 156.060509 
L 97.928358 155.373649 
L 97.753277 154.686789 
L 97.570165 153.999929 
L 97.376951 153.313069 
L 97.171969 152.62621 
L 96.954037 151.93935 
L 96.722514 151.25249 
L 96.47734 150.56563 
L 96.219059 149.87877 
L 95.948822 149.19191 
L 95.668361 148.505051 
L 95.379952 147.818191 
L 95.086348 147.131331 
L 94.790706 146.444471 
L 94.496483 145.757611 
L 94.207338 145.070751 
L 93.927017 144.383891 
L 93.659239 143.697032 
L 93.407589 143.010172 
L 93.175413 142.323312 
L 92.965736 141.636452 
L 92.781185 140.949592 
L 92.623943 140.262732 
L 92.495719 139.575872 
L 92.397741 138.889013 
L 92.330779 138.202153 
L 92.295176 137.515293 
L 92.290909 136.828433 
L 92.317656 136.141573 
L 92.37488 135.454713 
L 92.461909 134.767854 
L 92.578023 134.080994 
L 92.722531 133.394134 
L 92.894837 132.707274 
L 93.094493 132.020414 
L 93.321233 131.333554 
L 93.574983 130.646694 
L 93.855856 129.959835 
L 94.164123 129.272975 
L 94.500163 128.586115 
L 94.8644 127.899255 
L 95.257224 127.212395 
L 95.678907 126.525535 
L 96.129516 125.838675 
L 96.608828 125.151816 
L 97.116249 124.464956 
L 97.650754 123.778096 
L 98.210836 123.091236 
L 98.79448 122.404376 
L 99.399155 121.717516 
L 100.021832 121.030657 
L 100.659024 120.343797 
L 123.195521 120.343797 
L 123.195521 120.343797 
L 123.832713 121.030657 
L 124.45539 121.717516 
L 125.060065 122.404376 
L 125.643709 123.091236 
L 126.203791 123.778096 
L 126.738296 124.464956 
L 127.245717 125.151816 
L 127.725029 125.838675 
L 128.175638 126.525535 
L 128.597322 127.212395 
L 128.990145 127.899255 
L 129.354382 128.586115 
L 129.690422 129.272975 
L 129.998689 129.959835 
L 130.279563 130.646694 
L 130.533313 131.333554 
L 130.760052 132.020414 
L 130.959709 132.707274 
L 131.132015 133.394134 
L 131.276523 134.080994 
L 131.392637 134.767854 
L 131.479666 135.454713 
L 131.536889 136.141573 
L 131.563636 136.828433 
L 131.559369 137.515293 
L 131.523766 138.202153 
L 131.456804 138.889013 
L 131.358827 139.575872 
L 131.230602 140.262732 
L 131.07336 140.949592 
L 130.888809 141.636452 
L 130.679132 142.323312 
L 130.446957 143.010172 
L 130.195306 143.697032 
L 129.927529 144.383891 
L 129.647208 145.070751 
L 129.358063 145.757611 
L 129.06384 146.444471 
L 128.768197 147.131331 
L 128.474594 147.818191 
L 128.186184 148.505051 
L 127.905723 149.19191 
L 127.635486 149.87877 
L 127.377206 150.56563 
L 127.132032 151.25249 
L 126.900508 151.93935 
L 126.682577 152.62621 
L 126.477595 153.313069 
L 126.28438 153.999929 
L 126.101268 154.686789 
L 125.926187 155.373649 
L 125.756742 156.060509 
L 125.590308 156.747369 
L 125.424134 157.434229 
L 125.255437 158.121088 
L 125.081503 158.807948 
L 124.899786 159.494808 
L 124.707985 160.181668 
L 124.504128 160.868528 
L 124.286634 161.555388 
L 124.054361 162.242247 
L 123.806641 162.929107 
L 123.543302 163.615967 
L 123.264666 164.302827 
L 122.971539 164.989687 
L 122.66518 165.676547 
L 122.347254 166.363407 
L 122.019781 167.050266 
L 121.685063 167.737126 
L 121.34561 168.423986 
L 121.004058 169.110846 
L 120.663084 169.797706 
L 120.32532 170.484566 
L 119.993273 171.171426 
L 119.669249 171.858285 
L 119.355289 172.545145 
L 119.053107 173.232005 
L 118.764054 173.918865 
L 118.489089 174.605725 
L 118.22876 175.292585 
L 117.983212 175.979444 
L 117.752199 176.666304 
L 117.535114 177.353164 
L 117.331031 178.040024 
L 117.138751 178.726884 
L 116.956869 179.413744 
L 116.783826 180.100604 
L 116.617982 180.787463 
L 116.457677 181.474323 
L 116.301293 182.161183 
L 116.147313 182.848043 
L 115.994365 183.534903 
L 115.841273 184.221763 
L 115.687079 184.908623 
L 115.531071 185.595482 
L 115.372791 186.282342 
L 115.21204 186.969202 
L 115.048867 187.656062 
L 114.883549 188.342922 
L 114.883549 188.342922 
z
" clip-path="url(#p3fe09fdf82)" style="fill: none; stroke: #000000; stroke-opacity: 0.3"/>
   </g>
   <g id="FillBetweenPolyCollection_11">
    <path d="M 113.407548 212.216401 
L 110.446998 212.216401 
L 110.375506 211.296885 
L 110.300186 210.377368 
L 110.219509 209.457852 
L 110.131811 208.538335 
L 110.035342 207.618819 
L 109.928343 206.699302 
L 109.809113 205.779786 
L 109.676091 204.860269 
L 109.527927 203.940753 
L 109.363562 203.021236 
L 109.182286 202.101719 
L 108.983799 201.182203 
L 108.768243 200.262686 
L 108.536229 199.34317 
L 108.288835 198.423653 
L 108.027593 197.504137 
L 107.754451 196.58462 
L 107.471714 195.665104 
L 107.181972 194.745587 
L 106.888015 193.826071 
L 106.59273 192.906554 
L 106.298997 191.987038 
L 106.009584 191.067521 
L 105.727039 190.148005 
L 105.453595 189.228488 
L 105.191081 188.308972 
L 104.94085 187.389455 
L 104.703724 186.469939 
L 104.479963 185.550422 
L 104.269245 184.630905 
L 104.070678 183.711389 
L 103.882825 182.791872 
L 103.70375 181.872356 
L 103.531084 180.952839 
L 103.362097 180.033323 
L 103.193787 179.113806 
L 103.02298 178.19429 
L 102.846422 177.274773 
L 102.660883 176.355257 
L 102.463258 175.43574 
L 102.250655 174.516224 
L 102.020491 173.596707 
L 101.770561 172.677191 
L 101.499115 171.757674 
L 101.204909 170.838158 
L 100.887253 169.918641 
L 100.546039 168.999125 
L 100.18176 168.079608 
L 99.795513 167.160091 
L 99.388984 166.240575 
L 98.964428 165.321058 
L 98.524625 164.401542 
L 98.072829 163.482025 
L 97.612705 162.562509 
L 97.14825 161.642992 
L 96.68371 160.723476 
L 96.223491 159.803959 
L 95.772059 158.884443 
L 95.333843 157.964926 
L 94.913136 157.04541 
L 94.514007 156.125893 
L 94.140207 155.206377 
L 93.795101 154.28686 
L 93.4816 153.367344 
L 93.202113 152.447827 
L 92.958522 151.528311 
L 92.752169 150.608794 
L 92.583865 149.689277 
L 92.453918 148.769761 
L 92.362185 147.850244 
L 92.308131 146.930728 
L 92.290909 146.011211 
L 92.309448 145.091695 
L 92.362544 144.172178 
L 92.448954 143.252662 
L 92.567483 142.333145 
L 92.717065 141.413629 
L 92.896822 140.494112 
L 93.106113 139.574596 
L 93.344554 138.655079 
L 93.612016 137.735563 
L 93.908602 136.816046 
L 94.234595 135.89653 
L 94.590395 134.977013 
L 94.976424 134.057497 
L 95.393036 133.13798 
L 95.840409 132.218463 
L 96.318447 131.298947 
L 96.826678 130.37943 
L 97.364176 129.459914 
L 97.929498 128.540397 
L 98.520639 127.620881 
L 99.135021 126.701364 
L 99.769502 125.781848 
L 100.420421 124.862331 
L 101.083655 123.942815 
L 101.754711 123.023298 
L 102.428831 122.103782 
L 103.101106 121.184265 
L 120.753439 121.184265 
L 120.753439 121.184265 
L 121.425714 122.103782 
L 122.099834 123.023298 
L 122.770891 123.942815 
L 123.434124 124.862331 
L 124.085043 125.781848 
L 124.719525 126.701364 
L 125.333907 127.620881 
L 125.925047 128.540397 
L 126.490369 129.459914 
L 127.027867 130.37943 
L 127.536098 131.298947 
L 128.014136 132.218463 
L 128.46151 133.13798 
L 128.878122 134.057497 
L 129.264151 134.977013 
L 129.61995 135.89653 
L 129.945944 136.816046 
L 130.242529 137.735563 
L 130.509991 138.655079 
L 130.748432 139.574596 
L 130.957723 140.494112 
L 131.137481 141.413629 
L 131.287063 142.333145 
L 131.405592 143.252662 
L 131.492001 144.172178 
L 131.545097 145.091695 
L 131.563636 146.011211 
L 131.546415 146.930728 
L 131.492361 147.850244 
L 131.400628 148.769761 
L 131.270681 149.689277 
L 131.102376 150.608794 
L 130.896023 151.528311 
L 130.652433 152.447827 
L 130.372946 153.367344 
L 130.059444 154.28686 
L 129.714338 155.206377 
L 129.340539 156.125893 
L 128.941409 157.04541 
L 128.520703 157.964926 
L 128.082486 158.884443 
L 127.631054 159.803959 
L 127.170835 160.723476 
L 126.706296 161.642992 
L 126.241841 162.562509 
L 125.781716 163.482025 
L 125.329921 164.401542 
L 124.890118 165.321058 
L 124.465562 166.240575 
L 124.059033 167.160091 
L 123.672785 168.079608 
L 123.308506 168.999125 
L 122.967293 169.918641 
L 122.649636 170.838158 
L 122.355431 171.757674 
L 122.083985 172.677191 
L 121.834055 173.596707 
L 121.60389 174.516224 
L 121.391288 175.43574 
L 121.193662 176.355257 
L 121.008124 177.274773 
L 120.831565 178.19429 
L 120.660758 179.113806 
L 120.492449 180.033323 
L 120.323461 180.952839 
L 120.150795 181.872356 
L 119.971721 182.791872 
L 119.783868 183.711389 
L 119.585301 184.630905 
L 119.374583 185.550422 
L 119.150821 186.469939 
L 118.913696 187.389455 
L 118.663465 188.308972 
L 118.40095 189.228488 
L 118.127507 190.148005 
L 117.844962 191.067521 
L 117.555549 191.987038 
L 117.261816 192.906554 
L 116.96653 193.826071 
L 116.672573 194.745587 
L 116.382832 195.665104 
L 116.100095 196.58462 
L 115.826952 197.504137 
L 115.565711 198.423653 
L 115.318317 199.34317 
L 115.086302 200.262686 
L 114.870746 201.182203 
L 114.672259 202.101719 
L 114.490984 203.021236 
L 114.326618 203.940753 
L 114.178455 204.860269 
L 114.045432 205.779786 
L 113.926203 206.699302 
L 113.819204 207.618819 
L 113.722735 208.538335 
L 113.635036 209.457852 
L 113.55436 210.377368 
L 113.479039 211.296885 
L 113.407548 212.216401 
L 113.407548 212.216401 
z
" clip-path="url(#p3fe09fdf82)" style="fill: none; stroke: #000000; stroke-opacity: 0.3"/>
   </g>
   <g id="matplotlib.axis_1"/>
   <g id="matplotlib.axis_2">
    <g id="ytick_1">
     <g id="line2d_1">
      <defs>
       <path id="m4354b50e78" d="M 0 0 
L -3.5 0 
" style="stroke: #000000; stroke-width: 0.8"/>
      </defs>
      <g>
       <use xlink:href="#m4354b50e78" x="21.6" y="291.6" style="stroke: #000000; stroke-width: 0.8"/>
      </g>
     </g>
    </g>
    <g id="ytick_2">
     <g id="line2d_2">
      <g>
       <use xlink:href="#m4354b50e78" x="21.6" y="199.8" style="stroke: #000000; stroke-width: 0.8"/>
      </g>
     </g>
    </g>
    <g id="ytick_3">
     <g id="line2d_3">
      <g>
       <use xlink:href="#m4354b50e78" x="21.6" y="108" style="stroke: #000000; stroke-width: 0.8"/>
      </g>
     </g>
    </g>
    <g id="ytick_4">
     <g id="line2d_4">
      <g>
       <use xlink:href="#m4354b50e78" x="21.6" y="16.2" style="stroke: #000000; stroke-width: 0.8"/>
      </g>
     </g>
    </g>
   </g>
   <g id="line2d_5">
    <path d="M 46.472727 269.568 
L 46.472727 264.06 
" clip-path="url(#p3fe09fdf82)" style="fill: none; stroke: #000000; stroke-linecap: square"/>
   </g>
   <g id="line2d_6">
    <path d="M 46.472727 269.568 
L 111.927273 269.568 
" clip-path="url(#p3fe09fdf82)" style="fill: none; stroke: #000000; stroke-linecap: square"/>
   </g>
   <g id="line2d_7">
    <path d="M 111.927273 269.568 
L 111.927273 264.06 
" clip-path="url(#p3fe09fdf82)" style="fill: none; stroke: #000000; stroke-linecap: square"/>
   </g>
   <g id="patch_3">
    <path d="M 21.6 291.6 
L 21.6 16.2 
" style="fill: none; stroke: #000000; stroke-width: 0.8; stroke-linejoin: miter; stroke-linecap: square"/>
   </g>
   <g id="patch_4">
    <path d="M 136.8 291.6 
L 136.8 16.2 
" style="fill: none; stroke: #000000; stroke-width: 0.8; stroke-linejoin: miter; stroke-linecap: square"/>
   </g>
   <g id="patch_5">
    <path d="M 21.6 291.6 
L 136.8 291.6 
" style="fill: none; stroke: #000000; stroke-width: 0.8; stroke-linejoin: miter; stroke-linecap: square"/>
   </g>
   <g id="patch_6">
    <path d="M 21.6 16.2 
L 136.8 16.2 
" style="fill: none; stroke: #000000; stroke-width: 0.8; stroke-linejoin: miter; stroke-linecap: square"/>
   </g>
   <g id="text_1">
    <text style="font-weight: 700; font-size: 12px; font-family: 'DejaVu Sans', 'Bitstream Vera Sans', 'Computer Modern Sans Serif', 'Lucida Grande', 'Verdana', 'Geneva', 'Lucid', 'Arial', 'Helvetica', 'Avant Garde', sans-serif; text-anchor: middle" x="46.472727" y="289.104375" transform="rotate(-0 46.472727 289.104375)">#8</text>
   </g>
   <g id="text_2">
    <text style="font-weight: 700; font-size: 12px; font-family: 'DejaVu Sans', 'Bitstream Vera Sans', 'Computer Modern Sans Serif', 'Lucida Grande', 'Verdana', 'Geneva', 'Lucid', 'Arial', 'Helvetica', 'Avant Garde', sans-serif; text-anchor: middle" x="111.927273" y="289.104375" transform="rotate(-0 111.927273 289.104375)">#14</text>
   </g>
   <g id="text_3">
    <text style="font-size: 12px; font-family: 'DejaVu Sans', 'Bitstream Vera Sans', 'Computer Modern Sans Serif', 'Lucida Grande', 'Verdana', 'Geneva', 'Lucid', 'Arial', 'Helvetica', 'Avant Garde', sans-serif; text-anchor: middle" x="79.2" y="268.449375" transform="rotate(-0 79.2 268.449375)">*</text>
   </g>
   <g id="line2d_8">
    <path d="M 21.6 129.76437 
L 136.8 129.76437 
" clip-path="url(#p3fe09fdf82)" style="fill: none; stroke-dasharray: 3.7,1.6; stroke-dashoffset: 0; stroke: #808080; stroke-opacity: 0.7"/>
   </g>
   <g id="line2d_9">
    <path d="M 21.6 141.047116 
L 136.8 141.047116 
" clip-path="url(#p3fe09fdf82)" style="fill: none; stroke-dasharray: 3.7,1.6; stroke-dashoffset: 0; stroke: #808080; stroke-opacity: 0.7"/>
   </g>
   <g id="LineCollection_1">
    <path d="M 46.472727 135.153853 
L 46.472727 124.374887 
" clip-path="url(#p3fe09fdf82)" style="fill: none; stroke: #000000; stroke-width: 2"/>
   </g>
   <g id="line2d_10">
    <defs>
     <path id="m5666dada16" d="M 5 0 
L -5 -0 
" style="stroke: #000000; stroke-width: 2"/>
    </defs>
    <g clip-path="url(#p3fe09fdf82)">
     <use xlink:href="#m5666dada16" x="46.472727" y="135.153853" style="stroke: #000000; stroke-width: 2"/>
    </g>
   </g>
   <g id="line2d_11">
    <g clip-path="url(#p3fe09fdf82)">
     <use xlink:href="#m5666dada16" x="46.472727" y="124.374887" style="stroke: #000000; stroke-width: 2"/>
    </g>
   </g>
   <g id="LineCollection_2">
    <path d="M 111.927273 146.965921 
L 111.927273 135.128311 
" clip-path="url(#p3fe09fdf82)" style="fill: none; stroke: #000000; stroke-width: 2"/>
   </g>
   <g id="line2d_12">
    <g clip-path="url(#p3fe09fdf82)">
     <use xlink:href="#m5666dada16" x="111.927273" y="146.965921" style="stroke: #000000; stroke-width: 2"/>
    </g>
   </g>
   <g id="line2d_13">
    <g clip-path="url(#p3fe09fdf82)">
     <use xlink:href="#m5666dada16" x="111.927273" y="135.128311" style="stroke: #000000; stroke-width: 2"/>
    </g>
   </g>
   <g id="line2d_14">
    <defs>
     <path id="m1c39f626bd" d="M 0 4 
C 1.060812 4 2.078319 3.578535 2.828427 2.828427 
C 3.578535 2.078319 4 1.060812 4 0 
C 4 -1.060812 3.578535 -2.078319 2.828427 -2.828427 
C 2.078319 -3.578535 1.060812 -4 0 -4 
C -1.060812 -4 -2.078319 -3.578535 -2.828427 -2.828427 
C -3.578535 -2.078319 -4 -1.060812 -4 0 
C -4 1.060812 -3.578535 2.078319 -2.828427 2.828427 
C -2.078319 3.578535 -1.060812 4 0 4 
z
" style="stroke: #000000"/>
    </defs>
    <g clip-path="url(#p3fe09fdf82)">
     <use xlink:href="#m1c39f626bd" x="46.472727" y="129.76437" style="stroke: #000000"/>
    </g>
   </g>
   <g id="line2d_15">
    <g clip-path="url(#p3fe09fdf82)">
     <use xlink:href="#m1c39f626bd" x="111.927273" y="141.047116" style="stroke: #000000"/>
    </g>
   </g>
  </g>
 </g>
 <defs>
  <clipPath id="p3fe09fdf82">
   <rect x="21.6" y="16.2" width="115.2" height="275.4"/>
  </clipPath>
 </defs>
</svg>
