<?xml version="1.0" encoding="utf-8" standalone="no"?>
<!DOCTYPE svg PUBLIC "-//W3C//DTD SVG 1.1//EN"
  "http://www.w3.org/Graphics/SVG/1.1/DTD/svg11.dtd">
<svg xmlns:xlink="http://www.w3.org/1999/xlink" width="144pt" height="324pt" viewBox="0 0 144 324" xmlns="http://www.w3.org/2000/svg" version="1.1">
 <metadata>
  <rdf:RDF xmlns:dc="http://purl.org/dc/elements/1.1/" xmlns:cc="http://creativecommons.org/ns#" xmlns:rdf="http://www.w3.org/1999/02/22-rdf-syntax-ns#">
   <cc:Work>
    <dc:type rdf:resource="http://purl.org/dc/dcmitype/StillImage"/>
    <dc:date>2025-12-05T14:51:42.808004</dc:date>
    <dc:format>image/svg+xml</dc:format>
    <dc:creator>
     <cc:Agent>
      <dc:title>Matplotlib v3.10.0, https://matplotlib.org/</dc:title>
     </cc:Agent>
    </dc:creator>
   </cc:Work>
  </rdf:RDF>
 </metadata>
 <defs>
  <style type="text/css">*{stroke-linejoin: round; stroke-linecap: butt}</style>
 </defs>
 <g id="figure_1">
  <g id="patch_1">
   <path d="M 0 324 
L 144 324 
L 144 0 
L 0 0 
z
" style="fill: #ffffff"/>
  </g>
  <g id="axes_1">
   <g id="patch_2">
    <path d="M 21.6 291.6 
L 136.8 291.6 
L 136.8 16.2 
L 21.6 16.2 
z
" style="fill: #ffffff"/>
   </g>
   <g id="FillBetweenPolyCollection_1">
    <path d="M 46.861316 236.219274 
L 46.084139 236.219274 
L 46.09173 234.568632 
L 46.113625 232.917989 
L 46.147356 231.267347 
L 46.189325 229.616704 
L 46.23543 227.966062 
L 46.281722 226.315419 
L 46.324931 224.664777 
L 46.36279 223.014134 
L 46.394115 221.363492 
L 46.418688 219.71285 
L 46.437016 218.062207 
L 46.450036 216.411565 
L 46.458856 214.760922 
L 46.464549 213.11028 
L 46.468028 211.459637 
L 46.469984 209.808995 
L 46.47087 208.158352 
L 46.470888 206.50771 
L 46.469981 204.857067 
L 46.467785 203.206425 
L 46.463546 201.555782 
L 46.455999 199.90514 
L 46.443215 198.254498 
L 46.422458 196.603855 
L 46.390088 194.953213 
L 46.341581 193.30257 
L 46.271728 191.651928 
L 46.175063 190.001285 
L 46.046525 188.350643 
L 45.882308 186.7 
L 45.680749 185.049358 
L 45.443065 183.398715 
L 45.173701 181.748073 
L 44.880073 180.09743 
L 44.571573 178.446788 
L 44.257879 176.796146 
L 43.946751 175.145503 
L 43.641711 173.494861 
L 43.340091 171.844218 
L 43.031963 170.193576 
L 42.700329 168.542933 
L 42.322765 166.892291 
L 41.874354 165.241648 
L 41.331526 163.591006 
L 40.676166 161.940363 
L 39.899297 160.289721 
L 39.003729 158.639079 
L 38.005186 156.988436 
L 36.931683 155.337794 
L 35.821099 153.687151 
L 34.71713 152.036509 
L 33.664002 150.385866 
L 32.700603 148.735224 
L 31.854925 147.084581 
L 31.139884 145.433939 
L 30.55154 143.783296 
L 30.070396 142.132654 
L 29.66584 140.482011 
L 29.302997 138.831369 
L 28.950582 137.180727 
L 28.587969 135.530084 
L 28.20981 133.879442 
L 27.827162 132.228799 
L 27.464948 130.578157 
L 27.156553 128.927514 
L 26.936993 127.276872 
L 26.836364 125.626229 
L 26.875021 123.975587 
L 27.061402 122.324944 
L 27.392616 120.674302 
L 27.857285 119.02366 
L 28.439611 117.373017 
L 29.123492 115.722375 
L 29.895636 114.071732 
L 30.746982 112.42109 
L 31.672233 110.770447 
L 32.667796 109.119805 
L 33.728795 107.469162 
L 34.846029 105.81852 
L 36.003718 104.167877 
L 37.178665 102.517235 
L 38.341163 100.866592 
L 39.457549 99.21595 
L 40.493973 97.565308 
L 41.420665 95.914665 
L 42.215873 94.264023 
L 42.868693 92.61338 
L 43.380252 90.962738 
L 43.763012 89.312095 
L 44.038403 87.661453 
L 44.233265 86.01081 
L 44.375838 84.360168 
L 44.492041 82.709525 
L 44.602654 81.058883 
L 44.721772 79.40824 
L 44.856562 77.757598 
L 45.008118 76.106956 
L 45.173014 74.456313 
L 45.345113 72.805671 
L 47.600342 72.805671 
L 47.600342 72.805671 
L 47.77244 74.456313 
L 47.937337 76.106956 
L 48.088892 77.757598 
L 48.223682 79.40824 
L 48.3428 81.058883 
L 48.453414 82.709525 
L 48.569616 84.360168 
L 48.71219 86.01081 
L 48.907052 87.661453 
L 49.182443 89.312095 
L 49.565203 90.962738 
L 50.076761 92.61338 
L 50.729582 94.264023 
L 51.524789 95.914665 
L 52.451481 97.565308 
L 53.487905 99.21595 
L 54.604292 100.866592 
L 55.766789 102.517235 
L 56.941736 104.167877 
L 58.099425 105.81852 
L 59.21666 107.469162 
L 60.277659 109.119805 
L 61.273221 110.770447 
L 62.198473 112.42109 
L 63.049819 114.071732 
L 63.821962 115.722375 
L 64.505843 117.373017 
L 65.088169 119.02366 
L 65.552839 120.674302 
L 65.884053 122.324944 
L 66.070434 123.975587 
L 66.109091 125.626229 
L 66.008461 127.276872 
L 65.788902 128.927514 
L 65.480507 130.578157 
L 65.118293 132.228799 
L 64.735645 133.879442 
L 64.357486 135.530084 
L 63.994872 137.180727 
L 63.642457 138.831369 
L 63.279614 140.482011 
L 62.875058 142.132654 
L 62.393915 143.783296 
L 61.805571 145.433939 
L 61.09053 147.084581 
L 60.244852 148.735224 
L 59.281453 150.385866 
L 58.228325 152.036509 
L 57.124356 153.687151 
L 56.013772 155.337794 
L 54.940269 156.988436 
L 53.941726 158.639079 
L 53.046158 160.289721 
L 52.269289 161.940363 
L 51.613928 163.591006 
L 51.071101 165.241648 
L 50.62269 166.892291 
L 50.245125 168.542933 
L 49.913492 170.193576 
L 49.605363 171.844218 
L 49.303744 173.494861 
L 48.998704 175.145503 
L 48.687576 176.796146 
L 48.373882 178.446788 
L 48.065382 180.09743 
L 47.771753 181.748073 
L 47.50239 183.398715 
L 47.264706 185.049358 
L 47.063147 186.7 
L 46.89893 188.350643 
L 46.770392 190.001285 
L 46.673726 191.651928 
L 46.603873 193.30257 
L 46.555367 194.953213 
L 46.522997 196.603855 
L 46.50224 198.254498 
L 46.489456 199.90514 
L 46.481908 201.555782 
L 46.477669 203.206425 
L 46.475473 204.857067 
L 46.474567 206.50771 
L 46.474585 208.158352 
L 46.47547 209.808995 
L 46.477427 211.459637 
L 46.480905 213.11028 
L 46.486598 214.760922 
L 46.495418 216.411565 
L 46.508439 218.062207 
L 46.526766 219.71285 
L 46.55134 221.363492 
L 46.582664 223.014134 
L 46.620523 224.664777 
L 46.663732 226.315419 
L 46.710024 227.966062 
L 46.75613 229.616704 
L 46.798098 231.267347 
L 46.83183 232.917989 
L 46.853725 234.568632 
L 46.861316 236.219274 
L 46.861316 236.219274 
z
" clip-path="url(#pd13c18b43a)" style="fill: none; stroke: #000000; stroke-opacity: 0.3"/>
   </g>
   <g id="FillBetweenPolyCollection_2">
    <path d="M 46.962401 319.710368 
L 45.983054 319.710368 
L 45.990063 317.45566 
L 46.010495 315.200952 
L 46.042643 312.946244 
L 46.08393 310.691536 
L 46.131244 308.436828 
L 46.181325 306.18212 
L 46.231129 303.927412 
L 46.278114 301.672704 
L 46.320417 299.417996 
L 46.356911 297.163288 
L 46.387161 294.90858 
L 46.411301 292.653872 
L 46.42987 290.399164 
L 46.443647 288.144456 
L 46.453499 285.889748 
L 46.460261 283.63504 
L 46.46466 281.380332 
L 46.467262 279.125625 
L 46.468449 276.870917 
L 46.468411 274.616209 
L 46.467142 272.361501 
L 46.464439 270.106793 
L 46.459908 267.852085 
L 46.452972 265.597377 
L 46.442895 263.342669 
L 46.428837 261.087961 
L 46.409931 258.833253 
L 46.385407 256.578545 
L 46.35474 254.323837 
L 46.31782 252.069129 
L 46.275108 249.814421 
L 46.227746 247.559713 
L 46.177593 245.305005 
L 46.127144 243.050297 
L 46.07933 240.795589 
L 46.0372 238.540882 
L 46.003525 236.286174 
L 45.980384 234.031466 
L 45.968789 231.776758 
L 45.968428 229.52205 
L 45.97758 227.267342 
L 45.993206 225.012634 
L 46.011228 222.757926 
L 46.026935 220.503218 
L 46.035469 218.24851 
L 46.032303 215.993802 
L 46.013643 213.739094 
L 45.976708 211.484386 
L 45.919845 209.229678 
L 45.842474 206.97497 
L 45.744891 204.720262 
L 45.627955 202.465554 
L 45.492719 200.210846 
L 45.340059 197.956139 
L 45.170344 195.701431 
L 44.983179 193.446723 
L 44.777223 191.192015 
L 44.550065 188.937307 
L 44.298129 186.682599 
L 44.016566 184.427891 
L 43.699116 182.173183 
L 43.337966 179.918475 
L 42.923673 177.663767 
L 42.445258 175.409059 
L 41.890613 173.154351 
L 41.247361 170.899643 
L 40.504208 168.644935 
L 39.652778 166.390227 
L 38.689737 164.135519 
L 37.618906 161.880811 
L 36.452946 159.626103 
L 35.214199 157.371396 
L 33.934328 155.116688 
L 32.652596 152.86198 
L 31.412866 150.607272 
L 30.259711 148.352564 
L 29.234199 146.097856 
L 28.370087 143.843148 
L 27.691066 141.58844 
L 27.209541 139.333732 
L 26.927083 137.079024 
L 26.836364 134.824316 
L 26.924075 132.569608 
L 27.174156 130.3149 
L 27.570639 128.060192 
L 28.099583 125.805484 
L 28.749808 123.550776 
L 29.512467 121.296068 
L 30.37972 119.04136 
L 31.342987 116.786652 
L 32.391269 114.531945 
L 33.509956 112.277237 
L 34.680414 110.022529 
L 35.880406 107.767821 
L 37.085252 105.513113 
L 38.26948 103.258405 
L 39.408667 101.003697 
L 40.481158 98.748989 
L 41.469423 96.494281 
L 51.476032 96.494281 
L 51.476032 96.494281 
L 52.464297 98.748989 
L 53.536787 101.003697 
L 54.675974 103.258405 
L 55.860203 105.513113 
L 57.065049 107.767821 
L 58.265041 110.022529 
L 59.435499 112.277237 
L 60.554186 114.531945 
L 61.602467 116.786652 
L 62.565735 119.04136 
L 63.432988 121.296068 
L 64.195646 123.550776 
L 64.845872 125.805484 
L 65.374815 128.060192 
L 65.771298 130.3149 
L 66.021379 132.569608 
L 66.109091 134.824316 
L 66.018372 137.079024 
L 65.735913 139.333732 
L 65.254389 141.58844 
L 64.575368 143.843148 
L 63.711255 146.097856 
L 62.685743 148.352564 
L 61.532588 150.607272 
L 60.292859 152.86198 
L 59.011126 155.116688 
L 57.731256 157.371396 
L 56.492509 159.626103 
L 55.326549 161.880811 
L 54.255717 164.135519 
L 53.292677 166.390227 
L 52.441246 168.644935 
L 51.698093 170.899643 
L 51.054841 173.154351 
L 50.500197 175.409059 
L 50.021781 177.663767 
L 49.607488 179.918475 
L 49.246339 182.173183 
L 48.928888 184.427891 
L 48.647325 186.682599 
L 48.39539 188.937307 
L 48.168232 191.192015 
L 47.962275 193.446723 
L 47.775111 195.701431 
L 47.605396 197.956139 
L 47.452736 200.210846 
L 47.3175 202.465554 
L 47.200563 204.720262 
L 47.10298 206.97497 
L 47.02561 209.229678 
L 46.968746 211.484386 
L 46.931812 213.739094 
L 46.913151 215.993802 
L 46.909985 218.24851 
L 46.91852 220.503218 
L 46.934227 222.757926 
L 46.952248 225.012634 
L 46.967875 227.267342 
L 46.977027 229.52205 
L 46.976666 231.776758 
L 46.96507 234.031466 
L 46.941929 236.286174 
L 46.908255 238.540882 
L 46.866125 240.795589 
L 46.818311 243.050297 
L 46.767862 245.305005 
L 46.717709 247.559713 
L 46.670347 249.814421 
L 46.627634 252.069129 
L 46.590715 254.323837 
L 46.560048 256.578545 
L 46.535524 258.833253 
L 46.516618 261.087961 
L 46.502559 263.342669 
L 46.492483 265.597377 
L 46.485547 267.852085 
L 46.481016 270.106793 
L 46.478313 272.361501 
L 46.477043 274.616209 
L 46.477005 276.870917 
L 46.478192 279.125625 
L 46.480794 281.380332 
L 46.485193 283.63504 
L 46.491956 285.889748 
L 46.501807 288.144456 
L 46.515584 290.399164 
L 46.534153 292.653872 
L 46.558293 294.90858 
L 46.588544 297.163288 
L 46.625038 299.417996 
L 46.667341 301.672704 
L 46.714326 303.927412 
L 46.76413 306.18212 
L 46.814211 308.436828 
L 46.861524 310.691536 
L 46.902811 312.946244 
L 46.93496 315.200952 
L 46.955391 317.45566 
L 46.962401 319.710368 
L 46.962401 319.710368 
z
" clip-path="url(#pd13c18b43a)" style="fill: none; stroke: #000000; stroke-opacity: 0.3"/>
   </g>
   <g id="FillBetweenPolyCollection_3">
    <path d="M 46.978666 200.356849 
L 45.966789 200.356849 
L 45.967577 199.25767 
L 45.976449 198.158492 
L 45.991734 197.059313 
L 46.01105 195.960134 
L 46.031439 194.860955 
L 46.049524 193.761777 
L 46.061697 192.662598 
L 46.064298 191.563419 
L 46.053785 190.46424 
L 46.026881 189.365062 
L 45.980694 188.265883 
L 45.912814 187.166704 
L 45.821399 186.067526 
L 45.705246 184.968347 
L 45.563862 183.869168 
L 45.39752 182.769989 
L 45.207309 181.670811 
L 44.995145 180.571632 
L 44.763733 179.472453 
L 44.516459 178.373274 
L 44.257195 177.274096 
L 43.990006 176.174917 
L 43.718788 175.075738 
L 43.446838 173.976559 
L 43.176432 172.877381 
L 42.908446 171.778202 
L 42.642091 170.679023 
L 42.37482 169.579844 
L 42.102433 168.480666 
L 41.819403 167.381487 
L 41.519388 166.282308 
L 41.195889 165.18313 
L 40.842967 164.083951 
L 40.455948 162.984772 
L 40.032011 161.885593 
L 39.570609 160.786415 
L 39.073649 159.687236 
L 38.545435 158.588057 
L 37.992371 157.488878 
L 37.422464 156.3897 
L 36.844684 155.290521 
L 36.268244 154.191342 
L 35.701887 153.092163 
L 35.15321 151.992985 
L 34.628125 150.893806 
L 34.130452 149.794627 
L 33.661709 148.695448 
L 33.221072 147.59627 
L 32.805537 146.497091 
L 32.410251 145.397912 
L 32.02899 144.298734 
L 31.65478 143.199555 
L 31.280596 142.100376 
L 30.900135 141.001197 
L 30.508582 139.902019 
L 30.103342 138.80284 
L 29.684654 137.703661 
L 29.256022 136.604482 
L 28.824409 135.505304 
L 28.400121 134.406125 
L 27.996369 133.306946 
L 27.628512 132.207767 
L 27.31302 131.108589 
L 27.066261 130.00941 
L 26.90323 128.910231 
L 26.836364 127.811053 
L 26.874584 126.711874 
L 27.022688 125.612695 
L 27.281146 124.513516 
L 27.646325 123.414338 
L 28.111085 122.315159 
L 28.665623 121.21598 
L 29.298458 120.116801 
L 29.997373 119.017623 
L 30.75021 117.918444 
L 31.545415 116.819265 
L 32.372316 115.720086 
L 33.221136 114.620908 
L 34.08283 113.521729 
L 34.948824 112.42255 
L 35.810773 111.323371 
L 36.660406 110.224193 
L 37.489522 109.125014 
L 38.290142 108.025835 
L 39.054794 106.926657 
L 39.776876 105.827478 
L 40.451038 104.728299 
L 41.073497 103.62912 
L 41.642247 102.529942 
L 42.157116 101.430763 
L 42.619675 100.331584 
L 43.032996 99.232405 
L 43.401309 98.133227 
L 43.729584 97.034048 
L 44.023101 95.934869 
L 44.287049 94.83569 
L 44.526175 93.736512 
L 44.744544 92.637333 
L 44.945381 91.538154 
L 48.000074 91.538154 
L 48.000074 91.538154 
L 48.200911 92.637333 
L 48.419279 93.736512 
L 48.658406 94.83569 
L 48.922353 95.934869 
L 49.215871 97.034048 
L 49.544146 98.133227 
L 49.912458 99.232405 
L 50.32578 100.331584 
L 50.788339 101.430763 
L 51.303208 102.529942 
L 51.871957 103.62912 
L 52.494417 104.728299 
L 53.168579 105.827478 
L 53.890661 106.926657 
L 54.655312 108.025835 
L 55.455932 109.125014 
L 56.285049 110.224193 
L 57.134682 111.323371 
L 57.996631 112.42255 
L 58.862625 113.521729 
L 59.724319 114.620908 
L 60.573139 115.720086 
L 61.40004 116.819265 
L 62.195245 117.918444 
L 62.948081 119.017623 
L 63.646996 120.116801 
L 64.279832 121.21598 
L 64.83437 122.315159 
L 65.299129 123.414338 
L 65.664309 124.513516 
L 65.922767 125.612695 
L 66.07087 126.711874 
L 66.109091 127.811053 
L 66.042224 128.910231 
L 65.879193 130.00941 
L 65.632434 131.108589 
L 65.316942 132.207767 
L 64.949085 133.306946 
L 64.545334 134.406125 
L 64.121045 135.505304 
L 63.689432 136.604482 
L 63.260801 137.703661 
L 62.842112 138.80284 
L 62.436873 139.902019 
L 62.04532 141.001197 
L 61.664858 142.100376 
L 61.290675 143.199555 
L 60.916464 144.298734 
L 60.535204 145.397912 
L 60.139917 146.497091 
L 59.724383 147.59627 
L 59.283746 148.695448 
L 58.815002 149.794627 
L 58.31733 150.893806 
L 57.792244 151.992985 
L 57.243568 153.092163 
L 56.67721 154.191342 
L 56.100771 155.290521 
L 55.52299 156.3897 
L 54.953084 157.488878 
L 54.40002 158.588057 
L 53.871806 159.687236 
L 53.374845 160.786415 
L 52.913443 161.885593 
L 52.489507 162.984772 
L 52.102487 164.083951 
L 51.749566 165.18313 
L 51.426067 166.282308 
L 51.126052 167.381487 
L 50.843022 168.480666 
L 50.570635 169.579844 
L 50.303363 170.679023 
L 50.037009 171.778202 
L 49.769023 172.877381 
L 49.498617 173.976559 
L 49.226667 175.075738 
L 48.955448 176.174917 
L 48.68826 177.274096 
L 48.428995 178.373274 
L 48.181722 179.472453 
L 47.95031 180.571632 
L 47.738146 181.670811 
L 47.547935 182.769989 
L 47.381593 183.869168 
L 47.240208 184.968347 
L 47.124055 186.067526 
L 47.03264 187.166704 
L 46.96476 188.265883 
L 46.918573 189.365062 
L 46.891669 190.46424 
L 46.881156 191.563419 
L 46.883757 192.662598 
L 46.89593 193.761777 
L 46.914016 194.860955 
L 46.934405 195.960134 
L 46.953721 197.059313 
L 46.969005 198.158492 
L 46.977878 199.25767 
L 46.978666 200.356849 
L 46.978666 200.356849 
z
" clip-path="url(#pd13c18b43a)" style="fill: none; stroke: #000000; stroke-opacity: 0.3"/>
   </g>
   <g id="FillBetweenPolyCollection_4">
    <path d="M 46.982977 182.46995 
L 45.962477 182.46995 
L 45.948867 181.478928 
L 45.936798 180.487905 
L 45.923401 179.496883 
L 45.905033 178.50586 
L 45.87742 177.514838 
L 45.835864 176.523816 
L 45.775518 175.532793 
L 45.691681 174.541771 
L 45.580134 173.550748 
L 45.437454 172.559726 
L 45.261318 171.568703 
L 45.050732 170.577681 
L 44.806188 169.586659 
L 44.529706 168.595636 
L 44.224759 167.604614 
L 43.89607 166.613591 
L 43.549281 165.622569 
L 43.190538 164.631546 
L 42.826007 163.640524 
L 42.46138 162.649502 
L 42.101417 161.658479 
L 41.749572 160.667457 
L 41.407746 159.676434 
L 41.076183 158.685412 
L 40.753522 157.694389 
L 40.436975 156.703367 
L 40.122616 155.712344 
L 39.80572 154.721322 
L 39.481128 153.7303 
L 39.143571 152.739277 
L 38.787963 151.748255 
L 38.409624 150.757232 
L 38.004455 149.76621 
L 37.569095 148.775187 
L 37.101057 147.784165 
L 36.598906 146.793143 
L 36.062447 145.80212 
L 35.492944 144.811098 
L 34.893331 143.820075 
L 34.268362 142.829053 
L 33.624659 141.83803 
L 32.970601 140.847008 
L 32.316023 139.855986 
L 31.671714 138.864963 
L 31.048746 137.873941 
L 30.457697 136.882918 
L 29.907844 135.891896 
L 29.406444 134.900873 
L 28.958201 133.909851 
L 28.564983 132.918829 
L 28.22587 131.927806 
L 27.937503 130.936784 
L 27.694723 129.945761 
L 27.491399 128.954739 
L 27.321352 127.963716 
L 27.179257 126.972694 
L 27.0614 125.981672 
L 26.966216 124.990649 
L 26.894535 123.999627 
L 26.849529 123.008604 
L 26.836364 122.017582 
L 26.861618 121.026559 
L 26.932532 120.035537 
L 27.056184 119.044515 
L 27.238674 118.053492 
L 27.484414 117.06247 
L 27.795577 116.071447 
L 28.171779 115.080425 
L 28.609998 114.089402 
L 29.104745 113.09838 
L 29.648454 112.107357 
L 30.23205 111.116335 
L 30.845625 110.125313 
L 31.479149 109.13429 
L 32.123142 108.143268 
L 32.769233 107.152245 
L 33.41057 106.161223 
L 34.042023 105.1702 
L 34.660213 104.179178 
L 35.263347 103.188156 
L 35.850936 102.197133 
L 36.42342 101.206111 
L 36.981776 100.215088 
L 37.527155 99.224066 
L 38.06059 98.233043 
L 38.582796 97.242021 
L 39.094078 96.250999 
L 39.594323 95.259976 
L 40.083058 94.268954 
L 40.559551 93.277931 
L 41.022913 92.286909 
L 41.472189 91.295886 
L 41.906412 90.304864 
L 42.324631 89.313842 
L 42.725905 88.322819 
L 43.109289 87.331797 
L 43.473807 86.340774 
L 43.818456 85.349752 
L 44.142216 84.358729 
L 48.803239 84.358729 
L 48.803239 84.358729 
L 49.126999 85.349752 
L 49.471648 86.340774 
L 49.836166 87.331797 
L 50.219549 88.322819 
L 50.620824 89.313842 
L 51.039042 90.304864 
L 51.473265 91.295886 
L 51.922541 92.286909 
L 52.385904 93.277931 
L 52.862397 94.268954 
L 53.351132 95.259976 
L 53.851376 96.250999 
L 54.362659 97.242021 
L 54.884865 98.233043 
L 55.418299 99.224066 
L 55.963679 100.215088 
L 56.522035 101.206111 
L 57.094518 102.197133 
L 57.682107 103.188156 
L 58.285242 104.179178 
L 58.903431 105.1702 
L 59.534885 106.161223 
L 60.176221 107.152245 
L 60.822313 108.143268 
L 61.466305 109.13429 
L 62.099829 110.125313 
L 62.713404 111.116335 
L 63.297 112.107357 
L 63.840709 113.09838 
L 64.335456 114.089402 
L 64.773675 115.080425 
L 65.149878 116.071447 
L 65.461041 117.06247 
L 65.70678 118.053492 
L 65.889271 119.044515 
L 66.012923 120.035537 
L 66.083837 121.026559 
L 66.109091 122.017582 
L 66.095926 123.008604 
L 66.050919 123.999627 
L 65.979239 124.990649 
L 65.884055 125.981672 
L 65.766198 126.972694 
L 65.624103 127.963716 
L 65.454056 128.954739 
L 65.250731 129.945761 
L 65.007951 130.936784 
L 64.719585 131.927806 
L 64.380471 132.918829 
L 63.987254 133.909851 
L 63.53901 134.900873 
L 63.037611 135.891896 
L 62.487758 136.882918 
L 61.896708 137.873941 
L 61.273741 138.864963 
L 60.629431 139.855986 
L 59.974853 140.847008 
L 59.320796 141.83803 
L 58.677092 142.829053 
L 58.052123 143.820075 
L 57.45251 144.811098 
L 56.883008 145.80212 
L 56.346548 146.793143 
L 55.844397 147.784165 
L 55.37636 148.775187 
L 54.940999 149.76621 
L 54.535831 150.757232 
L 54.157491 151.748255 
L 53.801884 152.739277 
L 53.464327 153.7303 
L 53.139734 154.721322 
L 52.822839 155.712344 
L 52.50848 156.703367 
L 52.191933 157.694389 
L 51.869271 158.685412 
L 51.537709 159.676434 
L 51.195883 160.667457 
L 50.844038 161.658479 
L 50.484075 162.649502 
L 50.119448 163.640524 
L 49.754917 164.631546 
L 49.396174 165.622569 
L 49.049385 166.613591 
L 48.720695 167.604614 
L 48.415749 168.595636 
L 48.139267 169.586659 
L 47.894722 170.577681 
L 47.684136 171.568703 
L 47.508 172.559726 
L 47.365321 173.550748 
L 47.253773 174.541771 
L 47.169937 175.532793 
L 47.10959 176.523816 
L 47.068035 177.514838 
L 47.040421 178.50586 
L 47.022053 179.496883 
L 47.008657 180.487905 
L 46.996588 181.478928 
L 46.982977 182.46995 
L 46.982977 182.46995 
z
" clip-path="url(#pd13c18b43a)" style="fill: none; stroke: #000000; stroke-opacity: 0.3"/>
   </g>
   <g id="FillBetweenPolyCollection_5">
    <path d="M 113.314727 201.033239 
L 110.539819 201.033239 
L 110.395524 199.999545 
L 110.24681 198.965852 
L 110.093878 197.932159 
L 109.936717 196.898465 
L 109.775104 195.864772 
L 109.608614 194.831078 
L 109.436635 193.797385 
L 109.258388 192.763692 
L 109.072946 191.729998 
L 108.879258 190.696305 
L 108.676158 189.662612 
L 108.462379 188.628918 
L 108.236555 187.595225 
L 107.997225 186.561531 
L 107.742833 185.527838 
L 107.471722 184.494145 
L 107.182138 183.460451 
L 106.872232 182.426758 
L 106.540078 181.393065 
L 106.183702 180.359371 
L 105.801139 179.325678 
L 105.39051 178.291984 
L 104.950129 177.258291 
L 104.478643 176.224598 
L 103.975182 175.190904 
L 103.439526 174.157211 
L 102.872262 173.123518 
L 102.274916 172.089824 
L 101.650048 171.056131 
L 101.001282 170.022437 
L 100.333278 168.988744 
L 99.651638 167.955051 
L 98.962756 166.921357 
L 98.273618 165.887664 
L 97.591588 164.853971 
L 96.924189 163.820277 
L 96.278891 162.786584 
L 95.662938 161.75289 
L 95.083198 160.719197 
L 94.546041 159.685504 
L 94.057243 158.65181 
L 93.621875 157.618117 
L 93.244201 156.584424 
L 92.927543 155.55073 
L 92.674132 154.517037 
L 92.484946 153.483343 
L 92.359562 152.44965 
L 92.296044 151.415957 
L 92.290909 150.382263 
L 92.339196 149.34857 
L 92.434661 148.314877 
L 92.57012 147.281183 
L 92.737912 146.24749 
L 92.930468 145.213796 
L 93.140933 144.180103 
L 93.363774 143.14641 
L 93.595308 142.112716 
L 93.834079 141.079023 
L 94.08103 140.04533 
L 94.339435 139.011636 
L 94.614588 137.977943 
L 94.913264 136.944249 
L 95.24301 135.910556 
L 95.611331 134.876863 
L 96.024869 133.843169 
L 96.488638 132.809476 
L 97.005415 131.775783 
L 97.575327 130.742089 
L 98.195672 129.708396 
L 98.860979 128.674702 
L 99.563288 127.641009 
L 100.292606 126.607316 
L 101.03749 125.573622 
L 101.785697 124.539929 
L 102.52485 123.506236 
L 103.243058 122.472542 
L 103.929475 121.438849 
L 104.574753 120.405155 
L 105.171381 119.371462 
L 105.713917 118.337769 
L 106.199099 117.304075 
L 106.625854 116.270382 
L 106.995209 115.236689 
L 107.310118 114.202995 
L 107.575214 113.169302 
L 107.796509 112.135608 
L 107.981033 111.101915 
L 108.136463 110.068222 
L 108.270719 109.034528 
L 108.391583 108.000835 
L 108.506326 106.967142 
L 108.621391 105.933448 
L 108.742126 104.899755 
L 108.87259 103.866061 
L 109.015443 102.832368 
L 109.17192 101.798675 
L 109.341892 100.764981 
L 109.524002 99.731288 
L 109.71587 98.697595 
L 114.138675 98.697595 
L 114.138675 98.697595 
L 114.330543 99.731288 
L 114.512654 100.764981 
L 114.682626 101.798675 
L 114.839103 102.832368 
L 114.981955 103.866061 
L 115.112419 104.899755 
L 115.233154 105.933448 
L 115.34822 106.967142 
L 115.462963 108.000835 
L 115.583826 109.034528 
L 115.718083 110.068222 
L 115.873512 111.101915 
L 116.058037 112.135608 
L 116.279331 113.169302 
L 116.544428 114.202995 
L 116.859336 115.236689 
L 117.228691 116.270382 
L 117.655446 117.304075 
L 118.140629 118.337769 
L 118.683165 119.371462 
L 119.279793 120.405155 
L 119.92507 121.438849 
L 120.611488 122.472542 
L 121.329696 123.506236 
L 122.068848 124.539929 
L 122.817056 125.573622 
L 123.561939 126.607316 
L 124.291257 127.641009 
L 124.993566 128.674702 
L 125.658873 129.708396 
L 126.279218 130.742089 
L 126.84913 131.775783 
L 127.365907 132.809476 
L 127.829676 133.843169 
L 128.243214 134.876863 
L 128.611536 135.910556 
L 128.941281 136.944249 
L 129.239958 137.977943 
L 129.515111 139.011636 
L 129.773516 140.04533 
L 130.020466 141.079023 
L 130.259237 142.112716 
L 130.490771 143.14641 
L 130.713613 144.180103 
L 130.924078 145.213796 
L 131.116634 146.24749 
L 131.284425 147.281183 
L 131.419884 148.314877 
L 131.51535 149.34857 
L 131.563636 150.382263 
L 131.558502 151.415957 
L 131.494984 152.44965 
L 131.369599 153.483343 
L 131.180414 154.517037 
L 130.927003 155.55073 
L 130.610345 156.584424 
L 130.232671 157.618117 
L 129.797303 158.65181 
L 129.308504 159.685504 
L 128.771348 160.719197 
L 128.191607 161.75289 
L 127.575654 162.786584 
L 126.930356 163.820277 
L 126.262957 164.853971 
L 125.580928 165.887664 
L 124.89179 166.921357 
L 124.202907 167.955051 
L 123.521268 168.988744 
L 122.853264 170.022437 
L 122.204497 171.056131 
L 121.579629 172.089824 
L 120.982284 173.123518 
L 120.41502 174.157211 
L 119.879364 175.190904 
L 119.375902 176.224598 
L 118.904416 177.258291 
L 118.464036 178.291984 
L 118.053406 179.325678 
L 117.670843 180.359371 
L 117.314468 181.393065 
L 116.982313 182.426758 
L 116.672407 183.460451 
L 116.382823 184.494145 
L 116.111713 185.527838 
L 115.85732 186.561531 
L 115.617991 187.595225 
L 115.392166 188.628918 
L 115.178387 189.662612 
L 114.975287 190.696305 
L 114.781599 191.729998 
L 114.596158 192.763692 
L 114.41791 193.797385 
L 114.245931 194.831078 
L 114.079442 195.864772 
L 113.917829 196.898465 
L 113.760668 197.932159 
L 113.607735 198.965852 
L 113.459022 199.999545 
L 113.314727 201.033239 
L 113.314727 201.033239 
z
" clip-path="url(#pd13c18b43a)" style="fill: none; stroke: #000000; stroke-opacity: 0.3"/>
   </g>
   <g id="FillBetweenPolyCollection_6">
    <path d="M 117.389449 183.904124 
L 106.465097 183.904124 
L 106.1637 183.108973 
L 105.875638 182.313823 
L 105.603655 181.518672 
L 105.350237 180.723521 
L 105.117561 179.928371 
L 104.907445 179.13322 
L 104.72131 178.33807 
L 104.560148 177.542919 
L 104.424498 176.747769 
L 104.314426 175.952618 
L 104.229518 175.157467 
L 104.16887 174.362317 
L 104.131087 173.567166 
L 104.11429 172.772016 
L 104.116122 171.976865 
L 104.133757 171.181714 
L 104.163927 170.386564 
L 104.20294 169.591413 
L 104.246719 168.796263 
L 104.290844 168.001112 
L 104.330609 167.205962 
L 104.361088 166.410811 
L 104.377216 165.61566 
L 104.373886 164.82051 
L 104.346051 164.025359 
L 104.288842 163.230209 
L 104.197696 162.435058 
L 104.06848 161.639907 
L 103.897627 160.844757 
L 103.682255 160.049606 
L 103.420288 159.254456 
L 103.110557 158.459305 
L 102.752878 157.664155 
L 102.348111 156.869004 
L 101.898192 156.073853 
L 101.406126 155.278703 
L 100.875957 154.483552 
L 100.312702 153.688402 
L 99.722253 152.893251 
L 99.111249 152.0981 
L 98.486935 151.30295 
L 97.856984 150.507799 
L 97.229322 149.712649 
L 96.61194 148.917498 
L 96.012703 148.122348 
L 95.439171 147.327197 
L 94.898432 146.532046 
L 94.39695 145.736896 
L 93.940439 144.941745 
L 93.533763 144.146595 
L 93.180858 143.351444 
L 92.884692 142.556293 
L 92.647244 141.761143 
L 92.469517 140.965992 
L 92.351573 140.170842 
L 92.292583 139.375691 
L 92.290909 138.580541 
L 92.344184 137.78539 
L 92.449417 136.990239 
L 92.603094 136.195089 
L 92.801291 135.399938 
L 93.039783 134.604788 
L 93.314155 133.809637 
L 93.619904 133.014486 
L 93.952544 132.219336 
L 94.307698 131.424185 
L 94.681182 130.629035 
L 95.069079 129.833884 
L 95.467809 129.038734 
L 95.874178 128.243583 
L 96.285419 127.448432 
L 96.699219 126.653282 
L 97.113735 125.858131 
L 97.527588 125.062981 
L 97.93985 124.26783 
L 98.350014 123.472679 
L 98.757951 122.677529 
L 99.163856 121.882378 
L 99.568189 121.087228 
L 99.971596 120.292077 
L 100.374846 119.496927 
L 100.778747 118.701776 
L 101.184076 117.906625 
L 101.591511 117.111475 
L 102.001572 116.316324 
L 102.414566 115.521174 
L 102.830554 114.726023 
L 103.249323 113.930872 
L 103.670377 113.135722 
L 104.092937 112.340571 
L 104.515963 111.545421 
L 104.938174 110.75027 
L 105.358092 109.95512 
L 105.774082 109.159969 
L 106.184407 108.364818 
L 106.587276 107.569668 
L 106.980902 106.774517 
L 107.363548 105.979367 
L 107.733577 105.184216 
L 116.120969 105.184216 
L 116.120969 105.184216 
L 116.490997 105.979367 
L 116.873644 106.774517 
L 117.267269 107.569668 
L 117.670139 108.364818 
L 118.080464 109.159969 
L 118.496454 109.95512 
L 118.916371 110.75027 
L 119.338582 111.545421 
L 119.761608 112.340571 
L 120.184169 113.135722 
L 120.605222 113.930872 
L 121.023991 114.726023 
L 121.439979 115.521174 
L 121.852973 116.316324 
L 122.263034 117.111475 
L 122.67047 117.906625 
L 123.075799 118.701776 
L 123.479699 119.496927 
L 123.882949 120.292077 
L 124.286357 121.087228 
L 124.690689 121.882378 
L 125.096595 122.677529 
L 125.504532 123.472679 
L 125.914696 124.26783 
L 126.326958 125.062981 
L 126.74081 125.858131 
L 127.155326 126.653282 
L 127.569127 127.448432 
L 127.980367 128.243583 
L 128.386736 129.038734 
L 128.785466 129.833884 
L 129.173364 130.629035 
L 129.546847 131.424185 
L 129.902001 132.219336 
L 130.234642 133.014486 
L 130.540391 133.809637 
L 130.814762 134.604788 
L 131.053254 135.399938 
L 131.251451 136.195089 
L 131.405128 136.990239 
L 131.510361 137.78539 
L 131.563636 138.580541 
L 131.561962 139.375691 
L 131.502973 140.170842 
L 131.385028 140.965992 
L 131.207302 141.761143 
L 130.969854 142.556293 
L 130.673687 143.351444 
L 130.320782 144.146595 
L 129.914106 144.941745 
L 129.457596 145.736896 
L 128.956114 146.532046 
L 128.415375 147.327197 
L 127.841843 148.122348 
L 127.242605 148.917498 
L 126.625223 149.712649 
L 125.997562 150.507799 
L 125.367611 151.30295 
L 124.743296 152.0981 
L 124.132293 152.893251 
L 123.541843 153.688402 
L 122.978588 154.483552 
L 122.44842 155.278703 
L 121.956354 156.073853 
L 121.506434 156.869004 
L 121.101668 157.664155 
L 120.743989 158.459305 
L 120.434257 159.254456 
L 120.172291 160.049606 
L 119.956919 160.844757 
L 119.786065 161.639907 
L 119.65685 162.435058 
L 119.565703 163.230209 
L 119.508495 164.025359 
L 119.480659 164.82051 
L 119.477329 165.61566 
L 119.493458 166.410811 
L 119.523937 167.205962 
L 119.563702 168.001112 
L 119.607827 168.796263 
L 119.651606 169.591413 
L 119.690619 170.386564 
L 119.720788 171.181714 
L 119.738424 171.976865 
L 119.740255 172.772016 
L 119.723459 173.567166 
L 119.685676 174.362317 
L 119.625027 175.157467 
L 119.540119 175.952618 
L 119.430048 176.747769 
L 119.294397 177.542919 
L 119.133236 178.33807 
L 118.947101 179.13322 
L 118.736985 179.928371 
L 118.504308 180.723521 
L 118.25089 181.518672 
L 117.978907 182.313823 
L 117.690845 183.108973 
L 117.389449 183.904124 
L 117.389449 183.904124 
z
" clip-path="url(#pd13c18b43a)" style="fill: none; stroke: #000000; stroke-opacity: 0.3"/>
   </g>
   <g id="FillBetweenPolyCollection_7">
    <path d="M 112.466264 209.527573 
L 111.388281 209.527573 
L 111.365832 208.463402 
L 111.342837 207.399231 
L 111.316331 206.335059 
L 111.282702 205.270888 
L 111.237875 204.206717 
L 111.177551 203.142545 
L 111.097488 202.078374 
L 110.993811 201.014202 
L 110.863316 199.950031 
L 110.703747 198.88586 
L 110.514021 197.821688 
L 110.294372 196.757517 
L 110.046397 195.693346 
L 109.772992 194.629174 
L 109.478172 193.565003 
L 109.166779 192.500832 
L 108.844105 191.43666 
L 108.51545 190.372489 
L 108.185666 189.308318 
L 107.858713 188.244146 
L 107.537286 187.179975 
L 107.222548 186.115803 
L 106.913983 185.051632 
L 106.6094 183.987461 
L 106.305073 182.923289 
L 105.996009 181.859118 
L 105.676322 180.794947 
L 105.339667 179.730775 
L 104.979721 178.666604 
L 104.59067 177.602433 
L 104.167677 176.538261 
L 103.707309 175.47409 
L 103.207903 174.409918 
L 102.669843 173.345747 
L 102.09573 172.281576 
L 101.490413 171.217404 
L 100.860863 170.153233 
L 100.215874 169.089062 
L 99.565587 168.02489 
L 98.920863 166.960719 
L 98.292544 165.896548 
L 97.690682 164.832376 
L 97.123799 163.768205 
L 96.598288 162.704034 
L 96.118013 161.639862 
L 95.684175 160.575691 
L 95.295465 159.511519 
L 94.948471 158.447348 
L 94.63829 157.383177 
L 94.359253 156.319005 
L 94.105664 155.254834 
L 93.87244 154.190663 
L 93.655593 153.126491 
L 93.452489 152.06232 
L 93.261893 150.998149 
L 93.083813 149.933977 
L 92.919221 148.869806 
L 92.769711 147.805634 
L 92.637168 146.741463 
L 92.523511 145.677292 
L 92.430531 144.61312 
L 92.35983 143.548949 
L 92.312846 142.484778 
L 92.290909 141.420606 
L 92.295307 140.356435 
L 92.327311 139.292264 
L 92.38816 138.228092 
L 92.478992 137.163921 
L 92.600773 136.09975 
L 92.754232 135.035578 
L 92.939855 133.971407 
L 93.157969 132.907235 
L 93.408899 131.843064 
L 93.693196 130.778893 
L 94.011883 129.714721 
L 94.366657 128.65055 
L 94.759982 127.586379 
L 95.195013 126.522207 
L 95.675335 125.458036 
L 96.204509 124.393865 
L 96.785472 123.329693 
L 97.419869 122.265522 
L 98.107416 121.20135 
L 98.845396 120.137179 
L 99.628381 119.073008 
L 100.448227 118.008836 
L 101.294391 116.944665 
L 102.154503 115.880494 
L 103.015165 114.816322 
L 103.862844 113.752151 
L 104.684778 112.68798 
L 105.469761 111.623808 
L 106.208747 110.559637 
L 106.895196 109.495466 
L 107.525166 108.431294 
L 108.097168 107.367123 
L 108.611818 106.302951 
L 109.071386 105.23878 
L 109.479288 104.174609 
L 114.375257 104.174609 
L 114.375257 104.174609 
L 114.783159 105.23878 
L 115.242728 106.302951 
L 115.757378 107.367123 
L 116.329379 108.431294 
L 116.95935 109.495466 
L 117.645799 110.559637 
L 118.384784 111.623808 
L 119.169768 112.68798 
L 119.991702 113.752151 
L 120.839381 114.816322 
L 121.700043 115.880494 
L 122.560155 116.944665 
L 123.406318 118.008836 
L 124.226165 119.073008 
L 125.009149 120.137179 
L 125.74713 121.20135 
L 126.434677 122.265522 
L 127.069073 123.329693 
L 127.650036 124.393865 
L 128.17921 125.458036 
L 128.659533 126.522207 
L 129.094564 127.586379 
L 129.487888 128.65055 
L 129.842663 129.714721 
L 130.16135 130.778893 
L 130.445647 131.843064 
L 130.696576 132.907235 
L 130.91469 133.971407 
L 131.100314 135.035578 
L 131.253772 136.09975 
L 131.375553 137.163921 
L 131.466386 138.228092 
L 131.527234 139.292264 
L 131.559239 140.356435 
L 131.563636 141.420606 
L 131.5417 142.484778 
L 131.494715 143.548949 
L 131.424015 144.61312 
L 131.331034 145.677292 
L 131.217377 146.741463 
L 131.084834 147.805634 
L 130.935324 148.869806 
L 130.770732 149.933977 
L 130.592652 150.998149 
L 130.402056 152.06232 
L 130.198953 153.126491 
L 129.982106 154.190663 
L 129.748881 155.254834 
L 129.495292 156.319005 
L 129.216256 157.383177 
L 128.906075 158.447348 
L 128.55908 159.511519 
L 128.170371 160.575691 
L 127.736533 161.639862 
L 127.256257 162.704034 
L 126.730746 163.768205 
L 126.163864 164.832376 
L 125.562002 165.896548 
L 124.933683 166.960719 
L 124.288958 168.02489 
L 123.638671 169.089062 
L 122.993683 170.153233 
L 122.364133 171.217404 
L 121.758815 172.281576 
L 121.184702 173.345747 
L 120.646642 174.409918 
L 120.147236 175.47409 
L 119.686869 176.538261 
L 119.263876 177.602433 
L 118.874825 178.666604 
L 118.514879 179.730775 
L 118.178223 180.794947 
L 117.858536 181.859118 
L 117.549473 182.923289 
L 117.245145 183.987461 
L 116.940562 185.051632 
L 116.631997 186.115803 
L 116.317259 187.179975 
L 115.995833 188.244146 
L 115.668879 189.308318 
L 115.339095 190.372489 
L 115.010441 191.43666 
L 114.687766 192.500832 
L 114.376374 193.565003 
L 114.081553 194.629174 
L 113.808149 195.693346 
L 113.560173 196.757517 
L 113.340524 197.821688 
L 113.150798 198.88586 
L 112.99123 199.950031 
L 112.860735 201.014202 
L 112.757058 202.078374 
L 112.676995 203.142545 
L 112.61667 204.206717 
L 112.571844 205.270888 
L 112.538215 206.335059 
L 112.511708 207.399231 
L 112.488714 208.463402 
L 112.466264 209.527573 
L 112.466264 209.527573 
z
" clip-path="url(#pd13c18b43a)" style="fill: none; stroke: #000000; stroke-opacity: 0.3"/>
   </g>
   <g id="FillBetweenPolyCollection_8">
    <path d="M 112.492032 209.563201 
L 111.362513 209.563201 
L 111.330247 208.53046 
L 111.296083 207.497718 
L 111.257559 206.464977 
L 111.211866 205.432236 
L 111.156045 204.399494 
L 111.087222 203.366753 
L 111.002843 202.334011 
L 110.900891 201.30127 
L 110.780051 200.268528 
L 110.639805 199.235787 
L 110.480447 198.203045 
L 110.303013 197.170304 
L 110.109132 196.137562 
L 109.900808 195.104821 
L 109.680169 194.072079 
L 109.449193 193.039338 
L 109.209459 192.006597 
L 108.961921 190.973855 
L 108.706761 189.941114 
L 108.443306 188.908372 
L 108.170032 187.875631 
L 107.884653 186.842889 
L 107.584288 185.810148 
L 107.265693 184.777406 
L 106.925546 183.744665 
L 106.560762 182.711923 
L 106.168817 181.679182 
L 105.748052 180.64644 
L 105.297941 179.613699 
L 104.819289 178.580958 
L 104.314333 177.548216 
L 103.786748 176.515475 
L 103.241515 175.482733 
L 102.684677 174.449992 
L 102.122981 173.41725 
L 101.563427 172.384509 
L 101.012764 171.351767 
L 100.476977 170.319026 
L 99.960814 169.286284 
L 99.467409 168.253543 
L 98.998044 167.220801 
L 98.552087 166.18806 
L 98.127133 165.155319 
L 97.719328 164.122577 
L 97.323871 163.089836 
L 96.935625 162.057094 
L 96.549797 161.024353 
L 96.162589 159.991611 
L 95.771756 158.95887 
L 95.377014 157.926128 
L 94.980231 156.893387 
L 94.585401 155.860645 
L 94.198391 154.827904 
L 93.826507 153.795162 
L 93.477924 152.762421 
L 93.161057 151.72968 
L 92.883934 150.696938 
L 92.653651 149.664197 
L 92.475948 148.631455 
L 92.354941 147.598714 
L 92.29302 146.565972 
L 92.290909 145.533231 
L 92.347846 144.500489 
L 92.461856 143.467748 
L 92.630076 142.435006 
L 92.849075 141.402265 
L 93.115157 140.369523 
L 93.424599 139.336782 
L 93.77382 138.304041 
L 94.159475 137.271299 
L 94.578473 136.238558 
L 95.027944 135.205816 
L 95.50515 134.173075 
L 96.007396 133.140333 
L 96.531922 132.107592 
L 97.075835 131.07485 
L 97.636073 130.042109 
L 98.209423 129.009367 
L 98.792584 127.976626 
L 99.382287 126.943884 
L 99.975431 125.911143 
L 100.569234 124.878402 
L 101.16136 123.84566 
L 101.749993 122.812919 
L 102.333857 121.780177 
L 102.912148 120.747436 
L 103.484404 119.714694 
L 104.050312 118.681953 
L 104.609492 117.649211 
L 105.161286 116.61647 
L 105.704585 115.583728 
L 106.237723 114.550987 
L 106.758455 113.518245 
L 107.264032 112.485504 
L 107.751337 111.452763 
L 108.217098 110.420021 
L 108.658111 109.38728 
L 109.071473 108.354538 
L 109.454777 107.321797 
L 114.399768 107.321797 
L 114.399768 107.321797 
L 114.783073 108.354538 
L 115.196434 109.38728 
L 115.637447 110.420021 
L 116.103208 111.452763 
L 116.590514 112.485504 
L 117.09609 113.518245 
L 117.616823 114.550987 
L 118.14996 115.583728 
L 118.693259 116.61647 
L 119.245054 117.649211 
L 119.804234 118.681953 
L 120.370142 119.714694 
L 120.942397 120.747436 
L 121.520689 121.780177 
L 122.104552 122.812919 
L 122.693186 123.84566 
L 123.285311 124.878402 
L 123.879115 125.911143 
L 124.472259 126.943884 
L 125.061961 127.976626 
L 125.645122 129.009367 
L 126.218472 130.042109 
L 126.778711 131.07485 
L 127.322624 132.107592 
L 127.84715 133.140333 
L 128.349395 134.173075 
L 128.826602 135.205816 
L 129.276072 136.238558 
L 129.695071 137.271299 
L 130.080725 138.304041 
L 130.429946 139.336782 
L 130.739388 140.369523 
L 131.005471 141.402265 
L 131.22447 142.435006 
L 131.392689 143.467748 
L 131.5067 144.500489 
L 131.563636 145.533231 
L 131.561526 146.565972 
L 131.499605 147.598714 
L 131.378597 148.631455 
L 131.200894 149.664197 
L 130.970612 150.696938 
L 130.693489 151.72968 
L 130.376621 152.762421 
L 130.028039 153.795162 
L 129.656155 154.827904 
L 129.269145 155.860645 
L 128.874315 156.893387 
L 128.477532 157.926128 
L 128.082789 158.95887 
L 127.691957 159.991611 
L 127.304748 161.024353 
L 126.91892 162.057094 
L 126.530675 163.089836 
L 126.135217 164.122577 
L 125.727412 165.155319 
L 125.302458 166.18806 
L 124.856502 167.220801 
L 124.387136 168.253543 
L 123.893731 169.286284 
L 123.377569 170.319026 
L 122.841781 171.351767 
L 122.291118 172.384509 
L 121.731564 173.41725 
L 121.169868 174.449992 
L 120.61303 175.482733 
L 120.067797 176.515475 
L 119.540212 177.548216 
L 119.035257 178.580958 
L 118.556604 179.613699 
L 118.106493 180.64644 
L 117.685728 181.679182 
L 117.293783 182.711923 
L 116.929 183.744665 
L 116.588853 184.777406 
L 116.270258 185.810148 
L 115.969892 186.842889 
L 115.684513 187.875631 
L 115.411239 188.908372 
L 115.147784 189.941114 
L 114.892624 190.973855 
L 114.645087 192.006597 
L 114.405352 193.039338 
L 114.174377 194.072079 
L 113.953738 195.104821 
L 113.745413 196.137562 
L 113.551532 197.170304 
L 113.374098 198.203045 
L 113.21474 199.235787 
L 113.074494 200.268528 
L 112.953654 201.30127 
L 112.851703 202.334011 
L 112.767324 203.366753 
L 112.6985 204.399494 
L 112.642679 205.432236 
L 112.596986 206.464977 
L 112.558463 207.497718 
L 112.524298 208.53046 
L 112.492032 209.563201 
L 112.492032 209.563201 
z
" clip-path="url(#pd13c18b43a)" style="fill: none; stroke: #000000; stroke-opacity: 0.3"/>
   </g>
   <g id="matplotlib.axis_1">
    <g id="xtick_1">
     <g id="line2d_1">
      <defs>
       <path id="mb1784e4502" d="M 0 0 
L 0 3.5 
" style="stroke: #000000; stroke-width: 0.8"/>
      </defs>
      <g>
       <use xlink:href="#mb1784e4502" x="46.472727" y="291.6" style="stroke: #000000; stroke-width: 0.8"/>
      </g>
     </g>
     <g id="text_1">
      <text style="font-size: 10px; font-family: 'DejaVu Sans', 'Bitstream Vera Sans', 'Computer Modern Sans Serif', 'Lucida Grande', 'Verdana', 'Geneva', 'Lucid', 'Arial', 'Helvetica', 'Avant Garde', sans-serif; text-anchor: middle" x="46.472727" y="306.198438" transform="rotate(-0 46.472727 306.198438)">0.3</text>
     </g>
    </g>
    <g id="xtick_2">
     <g id="line2d_2">
      <g>
       <use xlink:href="#mb1784e4502" x="111.927273" y="291.6" style="stroke: #000000; stroke-width: 0.8"/>
      </g>
     </g>
     <g id="text_2">
      <text style="font-size: 10px; font-family: 'DejaVu Sans', 'Bitstream Vera Sans', 'Computer Modern Sans Serif', 'Lucida Grande', 'Verdana', 'Geneva', 'Lucid', 'Arial', 'Helvetica', 'Avant Garde', sans-serif; text-anchor: middle" x="111.927273" y="306.198438" transform="rotate(-0 111.927273 306.198438)">0.6</text>
     </g>
    </g>
   </g>
   <g id="matplotlib.axis_2">
    <g id="ytick_1">
     <g id="line2d_3">
      <defs>
       <path id="m4192d89166" d="M 0 0 
L -3.5 0 
" style="stroke: #000000; stroke-width: 0.8"/>
      </defs>
      <g>
       <use xlink:href="#m4192d89166" x="21.6" y="291.6" style="stroke: #000000; stroke-width: 0.8"/>
      </g>
     </g>
    </g>
    <g id="ytick_2">
     <g id="line2d_4">
      <g>
       <use xlink:href="#m4192d89166" x="21.6" y="199.8" style="stroke: #000000; stroke-width: 0.8"/>
      </g>
     </g>
    </g>
    <g id="ytick_3">
     <g id="line2d_5">
      <g>
       <use xlink:href="#m4192d89166" x="21.6" y="108" style="stroke: #000000; stroke-width: 0.8"/>
      </g>
     </g>
    </g>
    <g id="ytick_4">
     <g id="line2d_6">
      <g>
       <use xlink:href="#m4192d89166" x="21.6" y="16.2" style="stroke: #000000; stroke-width: 0.8"/>
      </g>
     </g>
    </g>
   </g>
   <g id="line2d_7">
    <path d="M 46.472727 269.568 
L 46.472727 264.06 
" clip-path="url(#pd13c18b43a)" style="fill: none; stroke: #000000; stroke-linecap: square"/>
   </g>
   <g id="line2d_8">
    <path d="M 46.472727 269.568 
L 111.927273 269.568 
" clip-path="url(#pd13c18b43a)" style="fill: none; stroke: #000000; stroke-linecap: square"/>
   </g>
   <g id="line2d_9">
    <path d="M 111.927273 269.568 
L 111.927273 264.06 
" clip-path="url(#pd13c18b43a)" style="fill: none; stroke: #000000; stroke-linecap: square"/>
   </g>
   <g id="patch_3">
    <path d="M 21.6 291.6 
L 21.6 16.2 
" style="fill: none; stroke: #000000; stroke-width: 0.8; stroke-linejoin: miter; stroke-linecap: square"/>
   </g>
   <g id="patch_4">
    <path d="M 136.8 291.6 
L 136.8 16.2 
" style="fill: none; stroke: #000000; stroke-width: 0.8; stroke-linejoin: miter; stroke-linecap: square"/>
   </g>
   <g id="patch_5">
    <path d="M 21.6 291.6 
L 136.8 291.6 
" style="fill: none; stroke: #000000; stroke-width: 0.8; stroke-linejoin: miter; stroke-linecap: square"/>
   </g>
   <g id="patch_6">
    <path d="M 21.6 16.2 
L 136.8 16.2 
" style="fill: none; stroke: #000000; stroke-width: 0.8; stroke-linejoin: miter; stroke-linecap: square"/>
   </g>
   <g id="text_3">
    <text style="font-weight: 700; font-size: 12px; font-family: 'DejaVu Sans', 'Bitstream Vera Sans', 'Computer Modern Sans Serif', 'Lucida Grande', 'Verdana', 'Geneva', 'Lucid', 'Arial', 'Helvetica', 'Avant Garde', sans-serif; text-anchor: middle" x="46.472727" y="289.104375" transform="rotate(-0 46.472727 289.104375)">#8</text>
   </g>
   <g id="text_4">
    <text style="font-weight: 700; font-size: 12px; font-family: 'DejaVu Sans', 'Bitstream Vera Sans', 'Computer Modern Sans Serif', 'Lucida Grande', 'Verdana', 'Geneva', 'Lucid', 'Arial', 'Helvetica', 'Avant Garde', sans-serif; text-anchor: middle" x="111.927273" y="289.104375" transform="rotate(-0 111.927273 289.104375)">#22</text>
   </g>
   <g id="text_5">
    <text style="font-size: 12px; font-family: 'DejaVu Sans', 'Bitstream Vera Sans', 'Computer Modern Sans Serif', 'Lucida Grande', 'Verdana', 'Geneva', 'Lucid', 'Arial', 'Helvetica', 'Avant Garde', sans-serif; text-anchor: middle" x="79.2" y="268.449375" transform="rotate(-0 79.2 268.449375)">**</text>
   </g>
   <g id="line2d_10">
    <path d="M 21.6 129.76437 
L 136.8 129.76437 
" clip-path="url(#pd13c18b43a)" style="fill: none; stroke-dasharray: 3.7,1.6; stroke-dashoffset: 0; stroke: #808080; stroke-opacity: 0.7"/>
   </g>
   <g id="line2d_11">
    <path d="M 21.6 145.832862 
L 136.8 145.832862 
" clip-path="url(#pd13c18b43a)" style="fill: none; stroke-dasharray: 3.7,1.6; stroke-dashoffset: 0; stroke: #808080; stroke-opacity: 0.7"/>
   </g>
   <g id="LineCollection_1">
    <path d="M 46.472727 135.153853 
L 46.472727 124.374887 
" clip-path="url(#pd13c18b43a)" style="fill: none; stroke: #000000; stroke-width: 2"/>
   </g>
   <g id="line2d_12">
    <defs>
     <path id="m301a6adf8e" d="M 5 0 
L -5 -0 
" style="stroke: #000000; stroke-width: 2"/>
    </defs>
    <g clip-path="url(#pd13c18b43a)">
     <use xlink:href="#m301a6adf8e" x="46.472727" y="135.153853" style="stroke: #000000; stroke-width: 2"/>
    </g>
   </g>
   <g id="line2d_13">
    <g clip-path="url(#pd13c18b43a)">
     <use xlink:href="#m301a6adf8e" x="46.472727" y="124.374887" style="stroke: #000000; stroke-width: 2"/>
    </g>
   </g>
   <g id="LineCollection_2">
    <path d="M 111.927273 148.916626 
L 111.927273 142.749098 
" clip-path="url(#pd13c18b43a)" style="fill: none; stroke: #000000; stroke-width: 2"/>
   </g>
   <g id="line2d_14">
    <g clip-path="url(#pd13c18b43a)">
     <use xlink:href="#m301a6adf8e" x="111.927273" y="148.916626" style="stroke: #000000; stroke-width: 2"/>
    </g>
   </g>
   <g id="line2d_15">
    <g clip-path="url(#pd13c18b43a)">
     <use xlink:href="#m301a6adf8e" x="111.927273" y="142.749098" style="stroke: #000000; stroke-width: 2"/>
    </g>
   </g>
   <g id="line2d_16">
    <defs>
     <path id="mdb948f24ce" d="M 0 4 
C 1.060812 4 2.078319 3.578535 2.828427 2.828427 
C 3.578535 2.078319 4 1.060812 4 0 
C 4 -1.060812 3.578535 -2.078319 2.828427 -2.828427 
C 2.078319 -3.578535 1.060812 -4 0 -4 
C -1.060812 -4 -2.078319 -3.578535 -2.828427 -2.828427 
C -3.578535 -2.078319 -4 -1.060812 -4 0 
C -4 1.060812 -3.578535 2.078319 -2.828427 2.828427 
C -2.078319 3.578535 -1.060812 4 0 4 
z
" style="stroke: #000000"/>
    </defs>
    <g clip-path="url(#pd13c18b43a)">
     <use xlink:href="#mdb948f24ce" x="46.472727" y="129.76437" style="stroke: #000000"/>
    </g>
   </g>
   <g id="line2d_17">
    <g clip-path="url(#pd13c18b43a)">
     <use xlink:href="#mdb948f24ce" x="111.927273" y="145.832862" style="stroke: #000000"/>
    </g>
   </g>
  </g>
 </g>
 <defs>
  <clipPath id="pd13c18b43a">
   <rect x="21.6" y="16.2" width="115.2" height="275.4"/>
  </clipPath>
 </defs>
</svg>
