<?xml version="1.0" encoding="utf-8" standalone="no"?>
<!DOCTYPE svg PUBLIC "-//W3C//DTD SVG 1.1//EN"
  "http://www.w3.org/Graphics/SVG/1.1/DTD/svg11.dtd">
<svg xmlns:xlink="http://www.w3.org/1999/xlink" width="144pt" height="324pt" viewBox="0 0 144 324" xmlns="http://www.w3.org/2000/svg" version="1.1">
 <metadata>
  <rdf:RDF xmlns:dc="http://purl.org/dc/elements/1.1/" xmlns:cc="http://creativecommons.org/ns#" xmlns:rdf="http://www.w3.org/1999/02/22-rdf-syntax-ns#">
   <cc:Work>
    <dc:type rdf:resource="http://purl.org/dc/dcmitype/StillImage"/>
    <dc:date>2025-12-05T14:51:44.341661</dc:date>
    <dc:format>image/svg+xml</dc:format>
    <dc:creator>
     <cc:Agent>
      <dc:title>Matplotlib v3.10.0, https://matplotlib.org/</dc:title>
     </cc:Agent>
    </dc:creator>
   </cc:Work>
  </rdf:RDF>
 </metadata>
 <defs>
  <style type="text/css">*{stroke-linejoin: round; stroke-linecap: butt}</style>
 </defs>
 <g id="figure_1">
  <g id="patch_1">
   <path d="M 0 324 
L 144 324 
L 144 0 
L 0 0 
z
" style="fill: #ffffff"/>
  </g>
  <g id="axes_1">
   <g id="patch_2">
    <path d="M 21.6 291.6 
L 136.8 291.6 
L 136.8 16.2 
L 21.6 16.2 
z
" style="fill: #ffffff"/>
   </g>
   <g id="FillBetweenPolyCollection_1">
    <path d="M 46.909762 247.994815 
L 46.035692 247.994815 
L 46.041442 246.091241 
L 46.058297 244.187667 
L 46.084904 242.284093 
L 46.119194 240.380519 
L 46.158621 238.476945 
L 46.200435 236.573371 
L 46.241934 234.669797 
L 46.280673 232.766223 
L 46.314601 230.86265 
L 46.342107 228.959076 
L 46.362005 227.055502 
L 46.373472 225.151928 
L 46.375957 223.248354 
L 46.369106 221.34478 
L 46.352702 219.441206 
L 46.326636 217.537632 
L 46.290895 215.634058 
L 46.245557 213.730485 
L 46.190767 211.826911 
L 46.126679 209.923337 
L 46.053373 208.019763 
L 45.970736 206.116189 
L 45.878364 204.212615 
L 45.775504 202.309041 
L 45.6611 200.405467 
L 45.533954 198.501893 
L 45.39303 196.59832 
L 45.237842 194.694746 
L 45.068884 192.791172 
L 44.887982 190.887598 
L 44.698467 188.984024 
L 44.505082 187.08045 
L 44.313564 185.176876 
L 44.12992 183.273302 
L 43.959481 181.369728 
L 43.805871 179.466154 
L 43.670085 177.562581 
L 43.54984 175.659007 
L 43.439371 173.755433 
L 43.329712 171.851859 
L 43.209468 169.948285 
L 43.065938 168.044711 
L 42.886416 166.141137 
L 42.659416 164.237563 
L 42.37561 162.333989 
L 42.028307 160.430416 
L 41.613394 158.526842 
L 41.128811 156.623268 
L 40.573707 154.719694 
L 39.947548 152.81612 
L 39.24946 150.912546 
L 38.478079 149.008972 
L 37.632066 147.105398 
L 36.711307 145.201824 
L 35.718659 143.29825 
L 34.661927 141.394677 
L 33.555677 139.491103 
L 32.422432 137.587529 
L 31.292892 135.683955 
L 30.20492 133.780381 
L 29.201289 131.876807 
L 28.326364 129.973233 
L 27.622136 128.069659 
L 27.12415 126.166085 
L 26.857915 124.262512 
L 26.836364 122.358938 
L 27.058714 120.455364 
L 27.510932 118.55179 
L 28.167664 116.648216 
L 28.995332 114.744642 
L 29.95585 112.841068 
L 31.010403 110.937494 
L 32.122709 109.03392 
L 33.26135 107.130347 
L 34.400965 105.226773 
L 35.522295 103.323199 
L 36.611315 101.419625 
L 37.657806 99.516051 
L 38.653765 97.612477 
L 39.592057 95.708903 
L 40.465545 93.805329 
L 41.266847 91.901755 
L 41.988663 89.998181 
L 42.624542 88.094608 
L 43.169833 86.191034 
L 43.622615 84.28746 
L 43.984366 82.383886 
L 44.260268 80.480312 
L 44.459073 78.576738 
L 44.592568 76.673164 
L 44.674719 74.76959 
L 44.720607 72.866016 
L 44.745294 70.962443 
L 44.762726 69.058869 
L 44.784807 67.155295 
L 44.82069 65.251721 
L 44.876373 63.348147 
L 44.954598 61.444573 
L 45.055059 59.540999 
L 47.890396 59.540999 
L 47.890396 59.540999 
L 47.990857 61.444573 
L 48.069082 63.348147 
L 48.124764 65.251721 
L 48.160647 67.155295 
L 48.182728 69.058869 
L 48.200161 70.962443 
L 48.224847 72.866016 
L 48.270736 74.76959 
L 48.352887 76.673164 
L 48.486382 78.576738 
L 48.685187 80.480312 
L 48.961089 82.383886 
L 49.32284 84.28746 
L 49.775622 86.191034 
L 50.320913 88.094608 
L 50.956791 89.998181 
L 51.678608 91.901755 
L 52.479909 93.805329 
L 53.353398 95.708903 
L 54.291689 97.612477 
L 55.287649 99.516051 
L 56.334139 101.419625 
L 57.42316 103.323199 
L 58.54449 105.226773 
L 59.684104 107.130347 
L 60.822746 109.03392 
L 61.935051 110.937494 
L 62.989605 112.841068 
L 63.950123 114.744642 
L 64.77779 116.648216 
L 65.434523 118.55179 
L 65.88674 120.455364 
L 66.109091 122.358938 
L 66.087539 124.262512 
L 65.821305 126.166085 
L 65.323318 128.069659 
L 64.619091 129.973233 
L 63.744166 131.876807 
L 62.740534 133.780381 
L 61.652562 135.683955 
L 60.523022 137.587529 
L 59.389778 139.491103 
L 58.283527 141.394677 
L 57.226795 143.29825 
L 56.234147 145.201824 
L 55.313388 147.105398 
L 54.467376 149.008972 
L 53.695995 150.912546 
L 52.997907 152.81612 
L 52.371747 154.719694 
L 51.816644 156.623268 
L 51.332061 158.526842 
L 50.917148 160.430416 
L 50.569844 162.333989 
L 50.286039 164.237563 
L 50.059039 166.141137 
L 49.879517 168.044711 
L 49.735987 169.948285 
L 49.615742 171.851859 
L 49.506084 173.755433 
L 49.395615 175.659007 
L 49.27537 177.562581 
L 49.139583 179.466154 
L 48.985974 181.369728 
L 48.815535 183.273302 
L 48.631891 185.176876 
L 48.440372 187.08045 
L 48.246987 188.984024 
L 48.057472 190.887598 
L 47.87657 192.791172 
L 47.707613 194.694746 
L 47.552425 196.59832 
L 47.4115 198.501893 
L 47.284355 200.405467 
L 47.16995 202.309041 
L 47.067091 204.212615 
L 46.974719 206.116189 
L 46.892082 208.019763 
L 46.818776 209.923337 
L 46.754688 211.826911 
L 46.699897 213.730485 
L 46.654559 215.634058 
L 46.618819 217.537632 
L 46.592753 219.441206 
L 46.576349 221.34478 
L 46.569498 223.248354 
L 46.571983 225.151928 
L 46.58345 227.055502 
L 46.603348 228.959076 
L 46.630853 230.86265 
L 46.664781 232.766223 
L 46.703521 234.669797 
L 46.74502 236.573371 
L 46.786833 238.476945 
L 46.826261 240.380519 
L 46.860551 242.284093 
L 46.887157 244.187667 
L 46.904013 246.091241 
L 46.909762 247.994815 
L 46.909762 247.994815 
z
" clip-path="url(#p06bec602f9)" style="fill: none; stroke: #000000; stroke-opacity: 0.3"/>
   </g>
   <g id="FillBetweenPolyCollection_2">
    <path d="M 49.317606 160.916263 
L 43.627849 160.916263 
L 43.307605 159.794116 
L 42.968065 158.671968 
L 42.606916 157.54982 
L 42.221156 156.427673 
L 41.807275 155.305525 
L 41.361557 154.183378 
L 40.880456 153.06123 
L 40.361031 151.939082 
L 39.801395 150.816935 
L 39.201129 149.694787 
L 38.56161 148.57264 
L 37.886215 147.450492 
L 37.180367 146.328344 
L 36.451407 145.206197 
L 35.708287 144.084049 
L 34.961123 142.961901 
L 34.220614 141.839754 
L 33.497414 140.717606 
L 32.801475 139.595459 
L 32.141453 138.473311 
L 31.524212 137.351163 
L 30.95447 136.229016 
L 30.434631 135.106868 
L 29.964801 133.98472 
L 29.542998 132.862573 
L 29.16553 131.740425 
L 28.827509 130.618278 
L 28.523461 129.49613 
L 28.247979 128.373982 
L 27.996367 127.251835 
L 27.765209 126.129687 
L 27.552836 125.007539 
L 27.35963 123.885392 
L 27.188139 122.763244 
L 27.043003 121.641097 
L 26.93067 120.518949 
L 26.858939 119.396801 
L 26.836364 118.274654 
L 26.871556 117.152506 
L 26.972463 116.030359 
L 27.145678 114.908211 
L 27.395834 113.786063 
L 27.725159 112.663916 
L 28.1332 111.541768 
L 28.616763 110.41962 
L 29.170048 109.297473 
L 29.784967 108.175325 
L 30.451609 107.053178 
L 31.158804 105.93103 
L 31.894723 104.808882 
L 32.64748 103.686735 
L 33.405668 102.564587 
L 34.158819 101.442439 
L 34.897736 100.320292 
L 35.614716 99.198144 
L 36.303652 98.075997 
L 36.960034 96.953849 
L 37.580861 95.831701 
L 38.164503 94.709554 
L 38.710521 93.587406 
L 39.219468 92.465259 
L 39.692705 91.343111 
L 40.132207 90.220963 
L 40.540405 89.098816 
L 40.920025 87.976668 
L 41.273952 86.85452 
L 41.605101 85.732373 
L 41.916285 84.610225 
L 42.210099 83.488078 
L 42.488806 82.36593 
L 42.754229 81.243782 
L 43.007674 80.121635 
L 43.249876 78.999487 
L 43.480976 77.877339 
L 43.700553 76.755192 
L 43.907691 75.633044 
L 44.101092 74.510897 
L 44.279223 73.388749 
L 44.440488 72.266601 
L 44.583404 71.144454 
L 44.706778 70.022306 
L 44.809856 68.900159 
L 44.892442 67.778011 
L 44.954972 66.655863 
L 44.99855 65.533716 
L 45.024927 64.411568 
L 45.036443 63.28942 
L 45.035937 62.167273 
L 45.026621 61.045125 
L 45.01194 59.922978 
L 44.995416 58.80083 
L 44.980492 57.678682 
L 44.970381 56.556535 
L 44.967924 55.434387 
L 44.975463 54.312239 
L 44.994746 53.190092 
L 45.026856 52.067944 
L 45.072175 50.945797 
L 45.130393 49.823649 
L 47.815062 49.823649 
L 47.815062 49.823649 
L 47.873279 50.945797 
L 47.918599 52.067944 
L 47.950708 53.190092 
L 47.969991 54.312239 
L 47.977531 55.434387 
L 47.975073 56.556535 
L 47.964963 57.678682 
L 47.950039 58.80083 
L 47.933514 59.922978 
L 47.918833 61.045125 
L 47.909517 62.167273 
L 47.909012 63.28942 
L 47.920528 64.411568 
L 47.946904 65.533716 
L 47.990482 66.655863 
L 48.053013 67.778011 
L 48.135599 68.900159 
L 48.238677 70.022306 
L 48.362051 71.144454 
L 48.504967 72.266601 
L 48.666231 73.388749 
L 48.844362 74.510897 
L 49.037763 75.633044 
L 49.244901 76.755192 
L 49.464479 77.877339 
L 49.695579 78.999487 
L 49.93778 80.121635 
L 50.191226 81.243782 
L 50.456649 82.36593 
L 50.735355 83.488078 
L 51.02917 84.610225 
L 51.340354 85.732373 
L 51.671502 86.85452 
L 52.02543 87.976668 
L 52.40505 89.098816 
L 52.813247 90.220963 
L 53.25275 91.343111 
L 53.725986 92.465259 
L 54.234934 93.587406 
L 54.780951 94.709554 
L 55.364594 95.831701 
L 55.985421 96.953849 
L 56.641803 98.075997 
L 57.330739 99.198144 
L 58.047719 100.320292 
L 58.786635 101.442439 
L 59.539786 102.564587 
L 60.297975 103.686735 
L 61.050731 104.808882 
L 61.78665 105.93103 
L 62.493845 107.053178 
L 63.160488 108.175325 
L 63.775406 109.297473 
L 64.328691 110.41962 
L 64.812255 111.541768 
L 65.220296 112.663916 
L 65.54962 113.786063 
L 65.799777 114.908211 
L 65.972991 116.030359 
L 66.073899 117.152506 
L 66.109091 118.274654 
L 66.086515 119.396801 
L 66.014785 120.518949 
L 65.902451 121.641097 
L 65.757315 122.763244 
L 65.585825 123.885392 
L 65.392618 125.007539 
L 65.180246 126.129687 
L 64.949088 127.251835 
L 64.697475 128.373982 
L 64.421994 129.49613 
L 64.117946 130.618278 
L 63.779924 131.740425 
L 63.402456 132.862573 
L 62.980654 133.98472 
L 62.510824 135.106868 
L 61.990984 136.229016 
L 61.421242 137.351163 
L 60.804001 138.473311 
L 60.14398 139.595459 
L 59.448041 140.717606 
L 58.72484 141.839754 
L 57.984332 142.961901 
L 57.237167 144.084049 
L 56.494048 145.206197 
L 55.765087 146.328344 
L 55.05924 147.450492 
L 54.383845 148.57264 
L 53.744326 149.694787 
L 53.14406 150.816935 
L 52.584424 151.939082 
L 52.064998 153.06123 
L 51.583897 154.183378 
L 51.138179 155.305525 
L 50.724299 156.427673 
L 50.338538 157.54982 
L 49.97739 158.671968 
L 49.637849 159.794116 
L 49.317606 160.916263 
L 49.317606 160.916263 
z
" clip-path="url(#p06bec602f9)" style="fill: none; stroke: #000000; stroke-opacity: 0.3"/>
   </g>
   <g id="FillBetweenPolyCollection_3">
    <path d="M 48.511555 175.407409 
L 44.433899 175.407409 
L 44.121148 173.392003 
L 43.787536 171.376597 
L 43.431556 169.361191 
L 43.050953 167.345786 
L 42.643242 165.33038 
L 42.206389 163.314974 
L 41.739486 161.299568 
L 41.243283 159.284162 
L 40.720397 157.268756 
L 40.175112 155.25335 
L 39.612723 153.237944 
L 39.038501 151.222538 
L 38.456463 149.207132 
L 37.868213 147.191726 
L 37.272141 145.17632 
L 36.66327 143.160914 
L 36.033886 141.145508 
L 35.37495 139.130102 
L 34.678107 137.114696 
L 33.937914 135.09929 
L 33.153893 133.083885 
L 32.331989 131.068479 
L 31.485177 129.053073 
L 30.63312 127.037667 
L 29.800982 125.022261 
L 29.01762 123.006855 
L 28.313463 120.991449 
L 27.718338 118.976043 
L 27.259468 116.960637 
L 26.959746 114.945231 
L 26.836364 112.929825 
L 26.899796 110.914419 
L 27.153164 108.899013 
L 27.591987 106.883607 
L 28.204349 104.868201 
L 28.971481 102.852795 
L 29.868751 100.83739 
L 30.867026 98.821984 
L 31.934333 96.806578 
L 33.037725 94.791172 
L 34.145222 92.775766 
L 35.227676 90.76036 
L 36.260375 88.744954 
L 37.224235 86.729548 
L 38.106412 84.714142 
L 38.900301 82.698736 
L 39.60493 80.68333 
L 40.223892 78.667924 
L 40.764005 76.652518 
L 41.233965 74.637112 
L 41.643169 72.621706 
L 42.00087 70.6063 
L 42.315689 68.590894 
L 42.595433 66.575489 
L 42.847102 64.560083 
L 43.07696 62.544677 
L 43.290545 60.529271 
L 43.492585 58.513865 
L 43.686825 56.498459 
L 43.875823 54.483053 
L 44.060811 52.467647 
L 44.241698 50.452241 
L 44.417262 48.436835 
L 44.585532 46.421429 
L 44.744291 44.406023 
L 44.891605 42.390617 
L 45.026265 40.375211 
L 45.148036 38.359805 
L 45.257669 36.344399 
L 45.356667 34.328993 
L 45.446893 32.313588 
L 45.530109 30.298182 
L 45.607599 28.282776 
L 45.679948 26.26737 
L 45.747047 24.251964 
L 45.808312 22.236558 
L 45.863027 20.221152 
L 45.910724 18.205746 
L 45.951474 16.19034 
L 45.986017 14.174934 
L 46.015688 12.159528 
L 46.042173 10.144122 
L 46.067146 8.128716 
L 46.091906 6.11331 
L 46.117079 4.097904 
L 46.142483 2.082498 
L 46.167158 0.067093 
L 46.179029 -1 
M 46.766426 -1 
L 46.778297 0.067093 
L 46.802972 2.082498 
L 46.828375 4.097904 
L 46.853549 6.11331 
L 46.878308 8.128716 
L 46.903282 10.144122 
L 46.929766 12.159528 
L 46.959438 14.174934 
L 46.993981 16.19034 
L 47.03473 18.205746 
L 47.082427 20.221152 
L 47.137142 22.236558 
L 47.198407 24.251964 
L 47.265507 26.26737 
L 47.337855 28.282776 
L 47.415345 30.298182 
L 47.498562 32.313588 
L 47.588787 34.328993 
L 47.687786 36.344399 
L 47.797419 38.359805 
L 47.91919 40.375211 
L 48.053849 42.390617 
L 48.201163 44.406023 
L 48.359922 46.421429 
L 48.528193 48.436835 
L 48.703757 50.452241 
L 48.884643 52.467647 
L 49.069632 54.483053 
L 49.25863 56.498459 
L 49.45287 58.513865 
L 49.65491 60.529271 
L 49.868494 62.544677 
L 50.098352 64.560083 
L 50.350022 66.575489 
L 50.629765 68.590894 
L 50.944584 70.6063 
L 51.302285 72.621706 
L 51.711489 74.637112 
L 52.181449 76.652518 
L 52.721563 78.667924 
L 53.340524 80.68333 
L 54.045154 82.698736 
L 54.839043 84.714142 
L 55.72122 86.729548 
L 56.685079 88.744954 
L 57.717779 90.76036 
L 58.800232 92.775766 
L 59.907729 94.791172 
L 61.011121 96.806578 
L 62.078429 98.821984 
L 63.076704 100.83739 
L 63.973973 102.852795 
L 64.741105 104.868201 
L 65.353467 106.883607 
L 65.79229 108.899013 
L 66.045658 110.914419 
L 66.109091 112.929825 
L 65.985709 114.945231 
L 65.685987 116.960637 
L 65.227116 118.976043 
L 64.631991 120.991449 
L 63.927834 123.006855 
L 63.144473 125.022261 
L 62.312335 127.037667 
L 61.460278 129.053073 
L 60.613466 131.068479 
L 59.791562 133.083885 
L 59.00754 135.09929 
L 58.267347 137.114696 
L 57.570504 139.130102 
L 56.911569 141.145508 
L 56.282184 143.160914 
L 55.673314 145.17632 
L 55.077242 147.191726 
L 54.488991 149.207132 
L 53.906954 151.222538 
L 53.332731 153.237944 
L 52.770342 155.25335 
L 52.225058 157.268756 
L 51.702172 159.284162 
L 51.205968 161.299568 
L 50.739066 163.314974 
L 50.302212 165.33038 
L 49.894502 167.345786 
L 49.513898 169.361191 
L 49.157919 171.376597 
L 48.824307 173.392003 
L 48.511555 175.407409 
L 48.511555 175.407409 
" clip-path="url(#p06bec602f9)" style="fill: none; stroke: #000000; stroke-opacity: 0.3"/>
   </g>
   <g id="FillBetweenPolyCollection_4">
    <path d="M 49.420577 174.636539 
L 43.524877 174.636539 
L 43.024746 172.898209 
L 42.482933 171.159878 
L 41.901423 169.421547 
L 41.282349 167.683217 
L 40.627875 165.944886 
L 39.940114 164.206556 
L 39.221141 162.468225 
L 38.473071 160.729894 
L 37.698236 158.991564 
L 36.899426 157.253233 
L 36.08019 155.514902 
L 35.245133 153.776572 
L 34.40018 152.038241 
L 33.552734 150.299911 
L 32.711703 148.56158 
L 31.887342 146.823249 
L 31.090937 145.084919 
L 30.334331 143.346588 
L 29.629347 141.608257 
L 28.987178 139.869927 
L 28.417789 138.131596 
L 27.929419 136.393266 
L 27.528192 134.654935 
L 27.217914 132.916604 
L 27.000025 131.178274 
L 26.873744 129.439943 
L 26.836364 127.701613 
L 26.883677 125.963282 
L 27.010485 124.224951 
L 27.211113 122.486621 
L 27.479883 120.74829 
L 27.811457 119.009959 
L 28.200996 117.271629 
L 28.644137 115.533298 
L 29.136769 113.794968 
L 29.674689 112.056637 
L 30.253223 110.318306 
L 30.866901 108.579976 
L 31.50928 106.841645 
L 32.17298 105.103315 
L 32.849925 103.364984 
L 33.531754 101.626653 
L 34.210333 99.888323 
L 34.87826 98.149992 
L 35.529292 96.411661 
L 36.158623 94.673331 
L 36.762996 92.935 
L 37.340668 91.19667 
L 37.891257 89.458339 
L 38.415521 87.720008 
L 38.915095 85.981678 
L 39.392227 84.243347 
L 39.849484 82.505017 
L 40.289459 80.766686 
L 40.714454 79.028355 
L 41.12616 77.290025 
L 41.525375 75.551694 
L 41.9118 73.813363 
L 42.283966 72.075033 
L 42.639345 70.336702 
L 42.974639 68.598372 
L 43.286247 66.860041 
L 43.570833 65.12171 
L 43.825903 63.38338 
L 44.050309 61.645049 
L 44.244558 59.906719 
L 44.410886 58.168388 
L 44.553066 56.430057 
L 44.675978 54.691727 
L 44.785022 52.953396 
L 44.885461 51.215065 
L 44.981808 49.476735 
L 45.077351 47.738404 
L 45.173875 46.000074 
L 45.271612 44.261743 
L 45.3694 42.523412 
L 45.465018 40.785082 
L 45.55562 39.046751 
L 45.638198 37.30842 
L 45.710014 35.57009 
L 45.768943 33.831759 
L 45.813702 32.093429 
L 45.843936 30.355098 
L 45.860207 28.616767 
L 45.863865 26.878437 
L 45.856879 25.140106 
L 45.841631 23.401776 
L 45.820722 21.663445 
L 45.796807 19.925114 
L 45.772467 18.186784 
L 45.750119 16.448453 
L 45.731957 14.710122 
L 45.719899 12.971792 
L 45.715541 11.233461 
L 45.720096 9.495131 
L 45.734329 7.7568 
L 45.758503 6.018469 
L 45.792331 4.280139 
L 45.834972 2.541808 
L 47.110483 2.541808 
L 47.110483 2.541808 
L 47.153123 4.280139 
L 47.186951 6.018469 
L 47.211125 7.7568 
L 47.225359 9.495131 
L 47.229913 11.233461 
L 47.225555 12.971792 
L 47.213498 14.710122 
L 47.195336 16.448453 
L 47.172988 18.186784 
L 47.148647 19.925114 
L 47.124732 21.663445 
L 47.103824 23.401776 
L 47.088576 25.140106 
L 47.08159 26.878437 
L 47.085248 28.616767 
L 47.101518 30.355098 
L 47.131753 32.093429 
L 47.176511 33.831759 
L 47.235441 35.57009 
L 47.307257 37.30842 
L 47.389834 39.046751 
L 47.480436 40.785082 
L 47.576055 42.523412 
L 47.673843 44.261743 
L 47.771579 46.000074 
L 47.868103 47.738404 
L 47.963647 49.476735 
L 48.059994 51.215065 
L 48.160433 52.953396 
L 48.269477 54.691727 
L 48.392389 56.430057 
L 48.534568 58.168388 
L 48.700896 59.906719 
L 48.895145 61.645049 
L 49.119551 63.38338 
L 49.374622 65.12171 
L 49.659207 66.860041 
L 49.970816 68.598372 
L 50.30611 70.336702 
L 50.661488 72.075033 
L 51.033654 73.813363 
L 51.420079 75.551694 
L 51.819295 77.290025 
L 52.231001 79.028355 
L 52.655996 80.766686 
L 53.095971 82.505017 
L 53.553228 84.243347 
L 54.030359 85.981678 
L 54.529934 87.720008 
L 55.054197 89.458339 
L 55.604787 91.19667 
L 56.182459 92.935 
L 56.786832 94.673331 
L 57.416162 96.411661 
L 58.067195 98.149992 
L 58.735122 99.888323 
L 59.4137 101.626653 
L 60.095529 103.364984 
L 60.772474 105.103315 
L 61.436175 106.841645 
L 62.078554 108.579976 
L 62.692231 110.318306 
L 63.270765 112.056637 
L 63.808686 113.794968 
L 64.301317 115.533298 
L 64.744458 117.271629 
L 65.133998 119.009959 
L 65.465571 120.74829 
L 65.734342 122.486621 
L 65.93497 124.224951 
L 66.061777 125.963282 
L 66.109091 127.701613 
L 66.071711 129.439943 
L 65.94543 131.178274 
L 65.727541 132.916604 
L 65.417262 134.654935 
L 65.016036 136.393266 
L 64.527665 138.131596 
L 63.958277 139.869927 
L 63.316107 141.608257 
L 62.611123 143.346588 
L 61.854517 145.084919 
L 61.058113 146.823249 
L 60.233752 148.56158 
L 59.39272 150.299911 
L 58.545275 152.038241 
L 57.700321 153.776572 
L 56.865265 155.514902 
L 56.046028 157.253233 
L 55.247219 158.991564 
L 54.472383 160.729894 
L 53.724313 162.468225 
L 53.00534 164.206556 
L 52.31758 165.944886 
L 51.663105 167.683217 
L 51.044032 169.421547 
L 50.462521 171.159878 
L 49.920709 172.898209 
L 49.420577 174.636539 
L 49.420577 174.636539 
z
" clip-path="url(#p06bec602f9)" style="fill: none; stroke: #000000; stroke-opacity: 0.3"/>
   </g>
   <g id="FillBetweenPolyCollection_5">
    <path d="M 49.710646 169.936707 
L 43.234809 169.936707 
L 42.894195 168.801476 
L 42.553967 167.666246 
L 42.218311 166.531015 
L 41.890608 165.395785 
L 41.573091 164.260554 
L 41.266557 163.125323 
L 40.970162 161.990093 
L 40.681326 160.854862 
L 40.395771 159.719632 
L 40.107688 158.584401 
L 39.810033 157.449171 
L 39.494943 156.31394 
L 39.154229 155.178709 
L 38.779928 154.043479 
L 38.364875 152.908248 
L 37.903234 151.773018 
L 37.390983 150.637787 
L 36.826296 149.502557 
L 36.209805 148.367326 
L 35.544732 147.232095 
L 34.836871 146.096865 
L 34.094443 144.961634 
L 33.327811 143.826404 
L 32.549097 142.691173 
L 31.771702 141.555943 
L 31.009775 140.420712 
L 30.277645 139.285481 
L 29.589258 138.150251 
L 28.957632 137.01502 
L 28.39437 135.87979 
L 27.909236 134.744559 
L 27.509837 133.609329 
L 27.201385 132.474098 
L 26.986592 131.338867 
L 26.865656 130.203637 
L 26.836364 129.068406 
L 26.89429 127.933176 
L 27.033084 126.797945 
L 27.244819 125.662715 
L 27.520404 124.527484 
L 27.850014 123.392253 
L 28.223542 122.257023 
L 28.631028 121.121792 
L 29.063061 119.986562 
L 29.511129 118.851331 
L 29.967899 117.716101 
L 30.427411 116.58087 
L 30.885189 115.445639 
L 31.338249 114.310409 
L 31.785022 113.175178 
L 32.225186 112.039948 
L 32.659438 110.904717 
L 33.089204 109.769487 
L 33.516337 108.634256 
L 33.942797 107.499025 
L 34.370364 106.363795 
L 34.800386 105.228564 
L 35.233595 104.093334 
L 35.66999 102.958103 
L 36.108792 101.822873 
L 36.548482 100.687642 
L 36.986887 99.552411 
L 37.421327 98.417181 
L 37.848788 97.28195 
L 38.266099 96.14672 
L 38.670117 95.011489 
L 39.057883 93.876259 
L 39.426751 92.741028 
L 39.774486 91.605797 
L 40.099332 90.470567 
L 40.400044 89.335336 
L 40.675911 88.200106 
L 40.926752 87.064875 
L 41.152919 85.929645 
L 41.355279 84.794414 
L 41.535202 83.659184 
L 41.694538 82.523953 
L 41.835582 81.388722 
L 41.961022 80.253492 
L 42.073865 79.118261 
L 42.177345 77.983031 
L 42.274801 76.8478 
L 42.369553 75.71257 
L 42.464755 74.577339 
L 42.563266 73.442108 
L 42.66753 72.306878 
L 42.779478 71.171647 
L 42.900468 70.036417 
L 43.031262 68.901186 
L 43.172033 67.765956 
L 43.322416 66.630725 
L 43.481574 65.495494 
L 43.648289 64.360264 
L 43.821052 63.225033 
L 43.998164 62.089803 
L 44.177817 60.954572 
L 44.35817 59.819342 
L 44.537408 58.684111 
L 44.713791 57.54888 
L 48.231664 57.54888 
L 48.231664 57.54888 
L 48.408047 58.684111 
L 48.587285 59.819342 
L 48.767637 60.954572 
L 48.94729 62.089803 
L 49.124402 63.225033 
L 49.297166 64.360264 
L 49.46388 65.495494 
L 49.623039 66.630725 
L 49.773422 67.765956 
L 49.914193 68.901186 
L 50.044986 70.036417 
L 50.165976 71.171647 
L 50.277924 72.306878 
L 50.382188 73.442108 
L 50.4807 74.577339 
L 50.575902 75.71257 
L 50.670653 76.8478 
L 50.76811 77.983031 
L 50.871589 79.118261 
L 50.984432 80.253492 
L 51.109872 81.388722 
L 51.250916 82.523953 
L 51.410252 83.659184 
L 51.590175 84.794414 
L 51.792535 85.929645 
L 52.018702 87.064875 
L 52.269544 88.200106 
L 52.54541 89.335336 
L 52.846122 90.470567 
L 53.170968 91.605797 
L 53.518704 92.741028 
L 53.887572 93.876259 
L 54.275338 95.011489 
L 54.679356 96.14672 
L 55.096667 97.28195 
L 55.524127 98.417181 
L 55.958568 99.552411 
L 56.396973 100.687642 
L 56.836662 101.822873 
L 57.275465 102.958103 
L 57.711859 104.093334 
L 58.145069 105.228564 
L 58.575091 106.363795 
L 59.002657 107.499025 
L 59.429117 108.634256 
L 59.85625 109.769487 
L 60.286017 110.904717 
L 60.720268 112.039948 
L 61.160432 113.175178 
L 61.607205 114.310409 
L 62.060265 115.445639 
L 62.518043 116.58087 
L 62.977556 117.716101 
L 63.434325 118.851331 
L 63.882394 119.986562 
L 64.314427 121.121792 
L 64.721912 122.257023 
L 65.09544 123.392253 
L 65.425051 124.527484 
L 65.700635 125.662715 
L 65.912371 126.797945 
L 66.051164 127.933176 
L 66.109091 129.068406 
L 66.079799 130.203637 
L 65.958862 131.338867 
L 65.744069 132.474098 
L 65.435618 133.609329 
L 65.036218 134.744559 
L 64.551085 135.87979 
L 63.987822 137.01502 
L 63.356196 138.150251 
L 62.667809 139.285481 
L 61.93568 140.420712 
L 61.173752 141.555943 
L 60.396357 142.691173 
L 59.617643 143.826404 
L 58.851012 144.961634 
L 58.108584 146.096865 
L 57.400723 147.232095 
L 56.735649 148.367326 
L 56.119158 149.502557 
L 55.554471 150.637787 
L 55.042221 151.773018 
L 54.58058 152.908248 
L 54.165526 154.043479 
L 53.791226 155.178709 
L 53.450511 156.31394 
L 53.135421 157.449171 
L 52.837767 158.584401 
L 52.549683 159.719632 
L 52.264129 160.854862 
L 51.975293 161.990093 
L 51.678897 163.125323 
L 51.372363 164.260554 
L 51.054847 165.395785 
L 50.727143 166.531015 
L 50.391487 167.666246 
L 50.05126 168.801476 
L 49.710646 169.936707 
L 49.710646 169.936707 
z
" clip-path="url(#p06bec602f9)" style="fill: none; stroke: #000000; stroke-opacity: 0.3"/>
   </g>
   <g id="FillBetweenPolyCollection_6">
    <path d="M 47.136472 194.695808 
L 45.808983 194.695808 
L 45.729252 193.068851 
L 45.632896 191.441894 
L 45.511945 189.814937 
L 45.357218 188.18798 
L 45.158885 186.561023 
L 44.907164 184.934066 
L 44.593072 183.307109 
L 44.209156 181.680152 
L 43.750155 180.053195 
L 43.213521 178.426238 
L 42.599775 176.799281 
L 41.91267 175.172324 
L 41.15916 173.545367 
L 40.349161 171.91841 
L 39.495133 170.291453 
L 38.611474 168.664496 
L 37.713751 167.037539 
L 36.817786 165.410582 
L 35.938639 163.783625 
L 35.089554 162.156668 
L 34.280971 160.529712 
L 33.51972 158.902755 
L 32.808549 157.275798 
L 32.146109 155.648841 
L 31.527492 154.021884 
L 30.945322 152.394927 
L 30.391332 150.76797 
L 29.858229 149.141013 
L 29.341577 147.514056 
L 28.841408 145.887099 
L 28.363242 144.260142 
L 27.918317 142.633185 
L 27.522919 141.006228 
L 27.196863 139.379271 
L 26.961331 137.752314 
L 26.836364 136.125357 
L 26.838381 134.4984 
L 26.978072 132.871443 
L 27.258934 131.244486 
L 27.676639 129.617529 
L 28.219237 127.990572 
L 28.868132 126.363615 
L 29.599647 124.736658 
L 30.386977 123.109701 
L 31.202305 121.482744 
L 32.018891 119.855787 
L 32.812964 118.22883 
L 33.565303 116.601873 
L 34.262386 114.974916 
L 34.897025 113.347959 
L 35.468436 111.721003 
L 35.981705 110.094046 
L 36.446695 108.467089 
L 36.87648 106.840132 
L 37.285482 105.213175 
L 37.687551 103.586218 
L 38.094224 101.959261 
L 38.513434 100.332304 
L 38.948835 98.705347 
L 39.399826 97.07839 
L 39.862229 95.451433 
L 40.329462 93.824476 
L 40.793952 92.197519 
L 41.248518 90.570562 
L 41.687454 88.943605 
L 42.107161 87.316648 
L 42.506243 85.689691 
L 42.885142 84.062734 
L 43.245446 82.435777 
L 43.589071 80.80882 
L 43.917514 79.181863 
L 44.231335 77.554906 
L 44.529938 75.927949 
L 44.811659 74.300992 
L 45.074107 72.674035 
L 45.314629 71.047078 
L 45.530812 69.420121 
L 45.720888 67.793164 
L 45.884006 66.166207 
L 46.020316 64.539251 
L 46.130894 62.912294 
L 46.217543 61.285337 
L 46.282518 59.65838 
L 46.328244 58.031423 
L 46.357078 56.404466 
L 46.371141 54.777509 
L 46.372248 53.150552 
L 46.361934 51.523595 
L 46.341567 49.896638 
L 46.312507 48.269681 
L 46.27628 46.642724 
L 46.234734 45.015767 
L 46.190118 43.38881 
L 46.145075 41.761853 
L 46.102529 40.134896 
L 46.065469 38.507939 
L 46.036674 36.880982 
L 46.01841 35.254025 
L 46.012163 33.627068 
L 46.933291 33.627068 
L 46.933291 33.627068 
L 46.927044 35.254025 
L 46.90878 36.880982 
L 46.879985 38.507939 
L 46.842925 40.134896 
L 46.800379 41.761853 
L 46.755337 43.38881 
L 46.710721 45.015767 
L 46.669175 46.642724 
L 46.632948 48.269681 
L 46.603887 49.896638 
L 46.58352 51.523595 
L 46.573207 53.150552 
L 46.574313 54.777509 
L 46.588376 56.404466 
L 46.617211 58.031423 
L 46.662937 59.65838 
L 46.727911 61.285337 
L 46.81456 62.912294 
L 46.925139 64.539251 
L 47.061449 66.166207 
L 47.224567 67.793164 
L 47.414643 69.420121 
L 47.630825 71.047078 
L 47.871348 72.674035 
L 48.133795 74.300992 
L 48.415517 75.927949 
L 48.714119 77.554906 
L 49.027941 79.181863 
L 49.356384 80.80882 
L 49.700008 82.435777 
L 50.060312 84.062734 
L 50.439211 85.689691 
L 50.838294 87.316648 
L 51.258 88.943605 
L 51.696937 90.570562 
L 52.151502 92.197519 
L 52.615993 93.824476 
L 53.083225 95.451433 
L 53.545628 97.07839 
L 53.996619 98.705347 
L 54.43202 100.332304 
L 54.85123 101.959261 
L 55.257903 103.586218 
L 55.659972 105.213175 
L 56.068975 106.840132 
L 56.498759 108.467089 
L 56.96375 110.094046 
L 57.477019 111.721003 
L 58.04843 113.347959 
L 58.683069 114.974916 
L 59.380152 116.601873 
L 60.132491 118.22883 
L 60.926564 119.855787 
L 61.743149 121.482744 
L 62.558478 123.109701 
L 63.345808 124.736658 
L 64.077323 126.363615 
L 64.726217 127.990572 
L 65.268816 129.617529 
L 65.686521 131.244486 
L 65.967383 132.871443 
L 66.107073 134.4984 
L 66.109091 136.125357 
L 65.984124 137.752314 
L 65.748591 139.379271 
L 65.422535 141.006228 
L 65.027137 142.633185 
L 64.582213 144.260142 
L 64.104047 145.887099 
L 63.603877 147.514056 
L 63.087226 149.141013 
L 62.554122 150.76797 
L 62.000133 152.394927 
L 61.417963 154.021884 
L 60.799345 155.648841 
L 60.136906 157.275798 
L 59.425734 158.902755 
L 58.664484 160.529712 
L 57.855901 162.156668 
L 57.006816 163.783625 
L 56.127668 165.410582 
L 55.231703 167.037539 
L 54.333981 168.664496 
L 53.450322 170.291453 
L 52.596293 171.91841 
L 51.786294 173.545367 
L 51.032784 175.172324 
L 50.34568 176.799281 
L 49.731934 178.426238 
L 49.1953 180.053195 
L 48.736299 181.680152 
L 48.352383 183.307109 
L 48.03829 184.934066 
L 47.78657 186.561023 
L 47.588237 188.18798 
L 47.433509 189.814937 
L 47.312559 191.441894 
L 47.216203 193.068851 
L 47.136472 194.695808 
L 47.136472 194.695808 
z
" clip-path="url(#p06bec602f9)" style="fill: none; stroke: #000000; stroke-opacity: 0.3"/>
   </g>
   <g id="FillBetweenPolyCollection_7">
    <path d="M 47.307775 199.189054 
L 45.63768 199.189054 
L 45.550347 197.434322 
L 45.464031 195.67959 
L 45.379336 193.924858 
L 45.296418 192.170127 
L 45.214836 190.415395 
L 45.133406 188.660663 
L 45.050079 186.905931 
L 44.961873 185.151199 
L 44.864874 183.396468 
L 44.754339 181.641736 
L 44.62487 179.887004 
L 44.470664 178.132272 
L 44.285774 176.37754 
L 44.064359 174.622809 
L 43.80087 172.868077 
L 43.490153 171.113345 
L 43.127479 169.358613 
L 42.708525 167.603882 
L 42.229342 165.84915 
L 41.686385 164.094418 
L 41.076631 162.339686 
L 40.397822 160.584954 
L 39.648844 158.830223 
L 38.830202 157.075491 
L 37.944559 155.320759 
L 36.997273 153.566027 
L 35.996851 151.811295 
L 34.955283 150.056564 
L 33.888173 148.301832 
L 32.814639 146.5471 
L 31.75695 144.792368 
L 30.739878 143.037637 
L 29.78977 141.282905 
L 28.933353 139.528173 
L 28.196339 137.773441 
L 27.601891 136.018709 
L 27.169093 134.263978 
L 26.91156 132.509246 
L 26.836364 130.754514 
L 26.943416 128.999782 
L 27.225431 127.24505 
L 27.668509 125.490319 
L 28.253294 123.735587 
L 28.956588 121.980855 
L 29.753203 120.226123 
L 30.617826 118.471391 
L 31.52664 116.71666 
L 32.458526 114.961928 
L 33.395725 113.207196 
L 34.323963 111.452464 
L 35.232108 109.697733 
L 36.111532 107.943001 
L 36.955357 106.188269 
L 37.757764 104.433537 
L 38.513512 102.678805 
L 39.217719 100.924074 
L 39.865914 99.169342 
L 40.454301 97.41461 
L 40.980125 95.659878 
L 41.442038 93.905146 
L 41.840375 92.150415 
L 42.17727 90.395683 
L 42.456595 88.640951 
L 42.683747 86.886219 
L 42.86531 85.131488 
L 43.008664 83.376756 
L 43.121594 81.622024 
L 43.21194 79.867292 
L 43.287321 78.11256 
L 43.354922 76.357829 
L 43.421349 74.603097 
L 43.492502 72.848365 
L 43.573462 71.093633 
L 43.668359 69.338901 
L 43.780215 67.58417 
L 43.910789 65.829438 
L 44.060439 64.074706 
L 44.228038 62.319974 
L 44.410996 60.565242 
L 44.605386 58.810511 
L 44.80621 57.055779 
L 45.00776 55.301047 
L 45.204059 53.546315 
L 45.38933 51.791584 
L 45.558426 50.036852 
L 45.707197 48.28212 
L 45.832743 46.527388 
L 45.933551 44.772656 
L 46.009516 43.017925 
L 46.06185 41.263193 
L 46.092921 39.508461 
L 46.106025 37.753729 
L 46.105121 35.998997 
L 46.09454 34.244266 
L 46.078694 32.489534 
L 46.061773 30.734802 
L 46.047483 28.98007 
L 46.038812 27.225339 
L 46.037864 25.470607 
L 46.907591 25.470607 
L 46.907591 25.470607 
L 46.906642 27.225339 
L 46.897971 28.98007 
L 46.883682 30.734802 
L 46.866761 32.489534 
L 46.850914 34.244266 
L 46.840334 35.998997 
L 46.839429 37.753729 
L 46.852534 39.508461 
L 46.883605 41.263193 
L 46.935939 43.017925 
L 47.011903 44.772656 
L 47.112712 46.527388 
L 47.238258 48.28212 
L 47.387028 50.036852 
L 47.556124 51.791584 
L 47.741395 53.546315 
L 47.937695 55.301047 
L 48.139244 57.055779 
L 48.340068 58.810511 
L 48.534459 60.565242 
L 48.717417 62.319974 
L 48.885016 64.074706 
L 49.034665 65.829438 
L 49.16524 67.58417 
L 49.277096 69.338901 
L 49.371992 71.093633 
L 49.452953 72.848365 
L 49.524106 74.603097 
L 49.590532 76.357829 
L 49.658134 78.11256 
L 49.733514 79.867292 
L 49.823861 81.622024 
L 49.936791 83.376756 
L 50.080145 85.131488 
L 50.261708 86.886219 
L 50.48886 88.640951 
L 50.768185 90.395683 
L 51.105079 92.150415 
L 51.503416 93.905146 
L 51.965329 95.659878 
L 52.491153 97.41461 
L 53.079541 99.169342 
L 53.727736 100.924074 
L 54.431942 102.678805 
L 55.187691 104.433537 
L 55.990098 106.188269 
L 56.833922 107.943001 
L 57.713346 109.697733 
L 58.621491 111.452464 
L 59.549729 113.207196 
L 60.486929 114.961928 
L 61.418814 116.71666 
L 62.327629 118.471391 
L 63.192252 120.226123 
L 63.988867 121.980855 
L 64.692161 123.735587 
L 65.276945 125.490319 
L 65.720023 127.24505 
L 66.002038 128.999782 
L 66.109091 130.754514 
L 66.033895 132.509246 
L 65.776362 134.263978 
L 65.343563 136.018709 
L 64.749115 137.773441 
L 64.012101 139.528173 
L 63.155685 141.282905 
L 62.205576 143.037637 
L 61.188504 144.792368 
L 60.130815 146.5471 
L 59.057281 148.301832 
L 57.990171 150.056564 
L 56.948604 151.811295 
L 55.948182 153.566027 
L 55.000895 155.320759 
L 54.115253 157.075491 
L 53.29661 158.830223 
L 52.547632 160.584954 
L 51.868824 162.339686 
L 51.259069 164.094418 
L 50.716113 165.84915 
L 50.23693 167.603882 
L 49.817975 169.358613 
L 49.455302 171.113345 
L 49.144584 172.868077 
L 48.881095 174.622809 
L 48.659681 176.37754 
L 48.474791 178.132272 
L 48.320584 179.887004 
L 48.191115 181.641736 
L 48.08058 183.396468 
L 47.983582 185.151199 
L 47.895376 186.905931 
L 47.812049 188.660663 
L 47.730619 190.415395 
L 47.649037 192.170127 
L 47.566119 193.924858 
L 47.481424 195.67959 
L 47.395107 197.434322 
L 47.307775 199.189054 
L 47.307775 199.189054 
z
" clip-path="url(#p06bec602f9)" style="fill: none; stroke: #000000; stroke-opacity: 0.3"/>
   </g>
   <g id="FillBetweenPolyCollection_8">
    <path d="M 112.182618 256.702046 
L 111.671927 256.702046 
L 111.679495 254.036039 
L 111.700878 251.370033 
L 111.732496 248.704026 
L 111.769484 246.038019 
L 111.806912 243.372013 
L 111.840823 240.706006 
L 111.868806 238.039999 
L 111.89004 235.373993 
L 111.904947 232.707986 
L 111.914667 230.041979 
L 111.920571 227.375973 
L 111.923918 224.709966 
L 111.925691 222.043959 
L 111.92657 219.377953 
L 111.926977 216.711946 
L 111.92715 214.045939 
L 111.927207 211.379933 
L 111.92719 208.713926 
L 111.927077 206.047919 
L 111.926769 203.381913 
L 111.926023 200.715906 
L 111.924336 198.049899 
L 111.920744 195.383893 
L 111.913531 192.717886 
L 111.899856 190.051879 
L 111.875331 187.385872 
L 111.833653 184.719866 
L 111.766357 182.053859 
L 111.662805 179.387852 
L 111.510422 176.721846 
L 111.295189 174.055839 
L 111.002386 171.389832 
L 110.617659 168.723826 
L 110.128537 166.057819 
L 109.526431 163.391812 
L 108.808819 160.725806 
L 107.980863 158.059799 
L 107.055359 155.393792 
L 106.050219 152.727786 
L 104.983624 150.061779 
L 103.868375 147.395772 
L 102.708051 144.729766 
L 101.497542 142.063759 
L 100.229144 139.397752 
L 98.903047 136.731746 
L 97.538719 134.065739 
L 96.182525 131.399732 
L 94.907514 128.733725 
L 93.803702 126.067719 
L 92.960503 123.401712 
L 92.446186 120.735705 
L 92.290909 118.069699 
L 92.479185 115.403692 
L 92.954487 112.737685 
L 93.634266 110.071679 
L 94.42982 107.405672 
L 95.264127 104.739665 
L 96.082568 102.073659 
L 96.855255 99.407652 
L 97.573354 96.741645 
L 98.243301 94.075639 
L 98.881777 91.409632 
L 99.511925 88.743625 
L 100.159441 86.077619 
L 100.847138 83.411612 
L 101.588153 80.745605 
L 102.379942 78.079599 
L 103.201965 75.413592 
L 104.019017 72.747585 
L 104.789861 70.081579 
L 105.47843 67.415572 
L 106.063623 64.749565 
L 106.544249 62.083558 
L 106.937647 59.417552 
L 107.272993 56.751545 
L 107.582151 54.085538 
L 107.891401 51.419532 
L 108.216456 48.753525 
L 108.56151 46.087518 
L 108.921494 43.421512 
L 109.285868 40.755505 
L 109.642355 38.089498 
L 109.979635 35.423492 
L 110.288826 32.757485 
L 110.564042 30.091478 
L 110.802446 27.425472 
L 111.003992 24.759465 
L 111.170903 22.093458 
L 111.306822 19.427452 
L 111.415772 16.761445 
L 111.501213 14.095438 
L 111.565589 11.429432 
L 111.610571 8.763425 
L 111.637884 6.097418 
L 111.650291 3.431412 
L 111.652176 0.765405 
L 111.650314 -1 
M 112.204231 -1 
L 112.202369 0.765405 
L 112.204254 3.431412 
L 112.216661 6.097418 
L 112.243975 8.763425 
L 112.288956 11.429432 
L 112.353332 14.095438 
L 112.438773 16.761445 
L 112.547723 19.427452 
L 112.683642 22.093458 
L 112.850553 24.759465 
L 113.052099 27.425472 
L 113.290503 30.091478 
L 113.56572 32.757485 
L 113.87491 35.423492 
L 114.21219 38.089498 
L 114.568678 40.755505 
L 114.933052 43.421512 
L 115.293035 46.087518 
L 115.638089 48.753525 
L 115.963144 51.419532 
L 116.272395 54.085538 
L 116.581553 56.751545 
L 116.916899 59.417552 
L 117.310297 62.083558 
L 117.790923 64.749565 
L 118.376115 67.415572 
L 119.064684 70.081579 
L 119.835529 72.747585 
L 120.65258 75.413592 
L 121.474603 78.079599 
L 122.266392 80.745605 
L 123.007407 83.411612 
L 123.695104 86.077619 
L 124.342621 88.743625 
L 124.972768 91.409632 
L 125.611244 94.075639 
L 126.281191 96.741645 
L 126.999291 99.407652 
L 127.771978 102.073659 
L 128.590418 104.739665 
L 129.424725 107.405672 
L 130.220279 110.071679 
L 130.900059 112.737685 
L 131.375361 115.403692 
L 131.563636 118.069699 
L 131.40836 120.735705 
L 130.894043 123.401712 
L 130.050843 126.067719 
L 128.947031 128.733725 
L 127.672021 131.399732 
L 126.315826 134.065739 
L 124.951499 136.731746 
L 123.625402 139.397752 
L 122.357003 142.063759 
L 121.146494 144.729766 
L 119.98617 147.395772 
L 118.870922 150.061779 
L 117.804326 152.727786 
L 116.799186 155.393792 
L 115.873682 158.059799 
L 115.045726 160.725806 
L 114.328115 163.391812 
L 113.726008 166.057819 
L 113.236886 168.723826 
L 112.852159 171.389832 
L 112.559356 174.055839 
L 112.344123 176.721846 
L 112.191741 179.387852 
L 112.088189 182.053859 
L 112.020893 184.719866 
L 111.979214 187.385872 
L 111.95469 190.051879 
L 111.941014 192.717886 
L 111.933801 195.383893 
L 111.930209 198.049899 
L 111.928522 200.715906 
L 111.927776 203.381913 
L 111.927468 206.047919 
L 111.927356 208.713926 
L 111.927339 211.379933 
L 111.927396 214.045939 
L 111.927568 216.711946 
L 111.927975 219.377953 
L 111.928854 222.043959 
L 111.930628 224.709966 
L 111.933974 227.375973 
L 111.939878 230.041979 
L 111.949599 232.707986 
L 111.964505 235.373993 
L 111.985739 238.039999 
L 112.013722 240.706006 
L 112.047634 243.372013 
L 112.085062 246.038019 
L 112.122049 248.704026 
L 112.153667 251.370033 
L 112.175051 254.036039 
L 112.182618 256.702046 
L 112.182618 256.702046 
" clip-path="url(#p06bec602f9)" style="fill: none; stroke: #000000; stroke-opacity: 0.3"/>
   </g>
   <g id="FillBetweenPolyCollection_9">
    <path d="M 113.681344 159.012715 
L 110.173201 159.012715 
L 109.886463 157.708593 
L 109.572211 156.404471 
L 109.230565 155.100349 
L 108.861934 153.796228 
L 108.466991 152.492106 
L 108.046646 151.187984 
L 107.602007 149.883862 
L 107.134339 148.579741 
L 106.645025 147.275619 
L 106.135526 145.971497 
L 105.607358 144.667375 
L 105.062075 143.363254 
L 104.501271 142.059132 
L 103.926594 140.75501 
L 103.339761 139.450888 
L 102.74258 138.146767 
L 102.13695 136.842645 
L 101.524851 135.538523 
L 100.908305 134.234401 
L 100.289329 132.93028 
L 99.669885 131.626158 
L 99.051854 130.322036 
L 98.437051 129.017914 
L 97.827311 127.713793 
L 97.224648 126.409671 
L 96.631472 125.105549 
L 96.050864 123.801427 
L 95.486828 122.497306 
L 94.944498 121.193184 
L 94.430229 119.889062 
L 93.951526 118.58494 
L 93.516798 117.280819 
L 93.13494 115.976697 
L 92.814769 114.672575 
L 92.564409 113.368453 
L 92.390676 112.064332 
L 92.298565 110.76021 
L 92.290909 109.456088 
L 92.368253 108.151966 
L 92.528949 106.847845 
L 92.769456 105.543723 
L 93.084778 104.239601 
L 93.468963 102.935479 
L 93.915588 101.631358 
L 94.418147 100.327236 
L 94.970294 99.023114 
L 95.565929 97.718992 
L 96.199119 96.41487 
L 96.863922 95.110749 
L 97.554149 93.806627 
L 98.263139 92.502505 
L 98.983608 91.198383 
L 99.707615 89.894262 
L 100.426669 88.59014 
L 101.131973 87.286018 
L 101.814777 85.981896 
L 102.46681 84.677775 
L 103.080721 83.373653 
L 103.650489 82.069531 
L 104.171737 80.765409 
L 104.641933 79.461288 
L 105.060426 78.157166 
L 105.428349 76.853044 
L 105.748363 75.548922 
L 106.024308 74.244801 
L 106.260771 72.940679 
L 106.462643 71.636557 
L 106.634702 70.332435 
L 106.781263 69.028314 
L 106.905938 67.724192 
L 107.011523 66.42007 
L 107.100013 65.115948 
L 107.172736 63.811827 
L 107.230579 62.507705 
L 107.274271 61.203583 
L 107.304689 59.899461 
L 107.323134 58.59534 
L 107.331549 57.291218 
L 107.332658 55.987096 
L 107.329992 54.682974 
L 107.327813 53.378853 
L 107.33093 52.074731 
L 107.344434 50.770609 
L 107.373371 49.466487 
L 107.422386 48.162366 
L 107.495382 46.858244 
L 107.595213 45.554122 
L 107.72346 44.25 
L 107.880298 42.945879 
L 108.064481 41.641757 
L 108.273428 40.337635 
L 108.503418 39.033513 
L 108.74985 37.729392 
L 109.007565 36.42527 
L 109.27117 35.121148 
L 109.53535 33.817026 
L 109.795148 32.512905 
L 110.046168 31.208783 
L 110.284727 29.904661 
L 113.569818 29.904661 
L 113.569818 29.904661 
L 113.808378 31.208783 
L 114.059398 32.512905 
L 114.319195 33.817026 
L 114.583376 35.121148 
L 114.84698 36.42527 
L 115.104695 37.729392 
L 115.351128 39.033513 
L 115.581117 40.337635 
L 115.790064 41.641757 
L 115.974247 42.945879 
L 116.131085 44.25 
L 116.259332 45.554122 
L 116.359163 46.858244 
L 116.432159 48.162366 
L 116.481175 49.466487 
L 116.510111 50.770609 
L 116.523615 52.074731 
L 116.526732 53.378853 
L 116.524553 54.682974 
L 116.521887 55.987096 
L 116.522996 57.291218 
L 116.531412 58.59534 
L 116.549856 59.899461 
L 116.580274 61.203583 
L 116.623967 62.507705 
L 116.681809 63.811827 
L 116.754532 65.115948 
L 116.843023 66.42007 
L 116.948608 67.724192 
L 117.073282 69.028314 
L 117.219843 70.332435 
L 117.391902 71.636557 
L 117.593775 72.940679 
L 117.830238 74.244801 
L 118.106182 75.548922 
L 118.426197 76.853044 
L 118.794119 78.157166 
L 119.212613 79.461288 
L 119.682808 80.765409 
L 120.204057 82.069531 
L 120.773824 83.373653 
L 121.387736 84.677775 
L 122.039769 85.981896 
L 122.722573 87.286018 
L 123.427876 88.59014 
L 124.14693 89.894262 
L 124.870938 91.198383 
L 125.591406 92.502505 
L 126.300396 93.806627 
L 126.990623 95.110749 
L 127.655427 96.41487 
L 128.288617 97.718992 
L 128.884251 99.023114 
L 129.436399 100.327236 
L 129.938958 101.631358 
L 130.385583 102.935479 
L 130.769768 104.239601 
L 131.085089 105.543723 
L 131.325596 106.847845 
L 131.486293 108.151966 
L 131.563636 109.456088 
L 131.555981 110.76021 
L 131.463869 112.064332 
L 131.290136 113.368453 
L 131.039777 114.672575 
L 130.719606 115.976697 
L 130.337747 117.280819 
L 129.90302 118.58494 
L 129.424317 119.889062 
L 128.910048 121.193184 
L 128.367718 122.497306 
L 127.803681 123.801427 
L 127.223073 125.105549 
L 126.629898 126.409671 
L 126.027234 127.713793 
L 125.417494 129.017914 
L 124.802691 130.322036 
L 124.18466 131.626158 
L 123.565216 132.93028 
L 122.946241 134.234401 
L 122.329694 135.538523 
L 121.717595 136.842645 
L 121.111966 138.146767 
L 120.514785 139.450888 
L 119.927952 140.75501 
L 119.353274 142.059132 
L 118.792471 143.363254 
L 118.247188 144.667375 
L 117.71902 145.971497 
L 117.209521 147.275619 
L 116.720207 148.579741 
L 116.252539 149.883862 
L 115.8079 151.187984 
L 115.387555 152.492106 
L 114.992612 153.796228 
L 114.62398 155.100349 
L 114.282334 156.404471 
L 113.968082 157.708593 
L 113.681344 159.012715 
L 113.681344 159.012715 
z
" clip-path="url(#p06bec602f9)" style="fill: none; stroke: #000000; stroke-opacity: 0.3"/>
   </g>
   <g id="FillBetweenPolyCollection_10">
    <path d="M 113.41083 163.957149 
L 110.443715 163.957149 
L 110.181995 162.522085 
L 109.895151 161.087021 
L 109.583253 159.651957 
L 109.246476 158.216892 
L 108.885129 156.781828 
L 108.499706 155.346764 
L 108.090921 153.9117 
L 107.659714 152.476636 
L 107.20717 151.041572 
L 106.734365 149.606508 
L 106.242125 148.171443 
L 105.730727 146.736379 
L 105.199612 145.301315 
L 104.647166 143.866251 
L 104.07064 142.431187 
L 103.466296 140.996123 
L 102.829788 139.561058 
L 102.156797 138.125994 
L 101.443878 136.69093 
L 100.689419 135.255866 
L 99.894622 133.820802 
L 99.064337 132.385738 
L 98.207653 130.950674 
L 97.338092 129.515609 
L 96.473352 128.080545 
L 95.634552 126.645481 
L 94.845006 125.210417 
L 94.128617 123.775353 
L 93.508021 122.340289 
L 93.002677 120.905225 
L 92.627106 119.47016 
L 92.389503 118.035096 
L 92.290909 116.600032 
L 92.325086 115.164968 
L 92.479138 113.729904 
L 92.734844 112.29484 
L 93.070557 110.859776 
L 93.463426 109.424711 
L 93.891648 107.989647 
L 94.336457 106.554583 
L 94.783568 105.119519 
L 95.2239 103.684455 
L 95.653534 102.249391 
L 96.072961 100.814327 
L 96.485817 99.379262 
L 96.897374 97.944198 
L 97.313068 96.509134 
L 97.737318 95.07407 
L 98.172788 93.639006 
L 98.620153 92.203942 
L 99.078307 90.768878 
L 99.544859 89.333813 
L 100.016748 87.898749 
L 100.490795 86.463685 
L 100.96409 85.028621 
L 101.434151 83.593557 
L 101.898899 82.158493 
L 102.356536 80.723428 
L 102.80541 79.288364 
L 103.243968 77.8533 
L 103.670827 76.418236 
L 104.084945 74.983172 
L 104.48584 73.548108 
L 104.873756 72.113044 
L 105.249712 70.677979 
L 105.615379 69.242915 
L 105.972776 67.807851 
L 106.323865 66.372787 
L 106.670102 64.937723 
L 107.012074 63.502659 
L 107.349281 62.067595 
L 107.680138 60.63253 
L 108.002164 59.197466 
L 108.31233 57.762402 
L 108.607469 56.327338 
L 108.884667 54.892274 
L 109.141557 53.45721 
L 109.376473 52.022146 
L 109.588472 50.587081 
L 109.777254 49.152017 
L 109.943036 47.716953 
L 110.086435 46.281889 
L 110.208396 44.846825 
L 110.31018 43.411761 
L 110.393408 41.976697 
L 110.460107 40.541632 
L 110.512744 39.106568 
L 110.554207 37.671504 
L 110.587722 36.23644 
L 110.616698 34.801376 
L 110.644544 33.366312 
L 110.674454 31.931248 
L 110.709207 30.496183 
L 110.750994 29.061119 
L 110.801295 27.626055 
L 110.860799 26.190991 
L 110.92939 24.755927 
L 111.006186 23.320863 
L 111.089627 21.885798 
L 112.764918 21.885798 
L 112.764918 21.885798 
L 112.848359 23.320863 
L 112.925155 24.755927 
L 112.993747 26.190991 
L 113.053251 27.626055 
L 113.103551 29.061119 
L 113.145338 30.496183 
L 113.180091 31.931248 
L 113.210001 33.366312 
L 113.237847 34.801376 
L 113.266824 36.23644 
L 113.300338 37.671504 
L 113.341802 39.106568 
L 113.394439 40.541632 
L 113.461138 41.976697 
L 113.544365 43.411761 
L 113.64615 44.846825 
L 113.76811 46.281889 
L 113.911509 47.716953 
L 114.077292 49.152017 
L 114.266074 50.587081 
L 114.478073 52.022146 
L 114.712988 53.45721 
L 114.969878 54.892274 
L 115.247077 56.327338 
L 115.542216 57.762402 
L 115.852381 59.197466 
L 116.174407 60.63253 
L 116.505264 62.067595 
L 116.842472 63.502659 
L 117.184443 64.937723 
L 117.530681 66.372787 
L 117.88177 67.807851 
L 118.239167 69.242915 
L 118.604833 70.677979 
L 118.98079 72.113044 
L 119.368705 73.548108 
L 119.7696 74.983172 
L 120.183719 76.418236 
L 120.610578 77.8533 
L 121.049136 79.288364 
L 121.498009 80.723428 
L 121.955646 82.158493 
L 122.420394 83.593557 
L 122.890455 85.028621 
L 123.36375 86.463685 
L 123.837798 87.898749 
L 124.309686 89.333813 
L 124.776238 90.768878 
L 125.234392 92.203942 
L 125.681758 93.639006 
L 126.117227 95.07407 
L 126.541477 96.509134 
L 126.957172 97.944198 
L 127.368729 99.379262 
L 127.781584 100.814327 
L 128.201011 102.249391 
L 128.630646 103.684455 
L 129.070978 105.119519 
L 129.518088 106.554583 
L 129.962898 107.989647 
L 130.39112 109.424711 
L 130.783988 110.859776 
L 131.119701 112.29484 
L 131.375407 113.729904 
L 131.529459 115.164968 
L 131.563636 116.600032 
L 131.465043 118.035096 
L 131.227439 119.47016 
L 130.851868 120.905225 
L 130.346524 122.340289 
L 129.725928 123.775353 
L 129.009539 125.210417 
L 128.219993 126.645481 
L 127.381193 128.080545 
L 126.516454 129.515609 
L 125.646893 130.950674 
L 124.790209 132.385738 
L 123.959924 133.820802 
L 123.165126 135.255866 
L 122.410668 136.69093 
L 121.697748 138.125994 
L 121.024758 139.561058 
L 120.388249 140.996123 
L 119.783905 142.431187 
L 119.20738 143.866251 
L 118.654933 145.301315 
L 118.123819 146.736379 
L 117.612421 148.171443 
L 117.12018 149.606508 
L 116.647376 151.041572 
L 116.194832 152.476636 
L 115.763624 153.9117 
L 115.35484 155.346764 
L 114.969416 156.781828 
L 114.608069 158.216892 
L 114.271292 159.651957 
L 113.959395 161.087021 
L 113.67255 162.522085 
L 113.41083 163.957149 
L 113.41083 163.957149 
z
" clip-path="url(#p06bec602f9)" style="fill: none; stroke: #000000; stroke-opacity: 0.3"/>
   </g>
   <g id="FillBetweenPolyCollection_11">
    <path d="M 113.61671 161.73385 
L 110.237836 161.73385 
L 109.995479 160.301893 
L 109.733423 158.869936 
L 109.450571 157.437979 
L 109.145645 156.006023 
L 108.817326 154.574066 
L 108.464433 153.142109 
L 108.086111 151.710152 
L 107.681996 150.278195 
L 107.252333 148.846238 
L 106.798014 147.414281 
L 106.320544 145.982325 
L 105.821924 144.550368 
L 105.30449 143.118411 
L 104.77072 141.686454 
L 104.223061 140.254497 
L 103.663776 138.82254 
L 103.094852 137.390583 
L 102.517958 135.958627 
L 101.934446 134.52667 
L 101.345394 133.094713 
L 100.751657 131.662756 
L 100.153945 130.230799 
L 99.552904 128.798842 
L 98.949222 127.366885 
L 98.343773 125.934929 
L 97.737803 124.502972 
L 97.133166 123.071015 
L 96.532603 121.639058 
L 95.940024 120.207101 
L 95.360768 118.775144 
L 94.801777 117.343188 
L 94.271643 115.911231 
L 93.780472 114.479274 
L 93.339562 113.047317 
L 92.960879 111.61536 
L 92.656378 110.183403 
L 92.437221 108.751446 
L 92.31298 107.31949 
L 92.290909 105.887533 
L 92.375368 104.455576 
L 92.567471 103.023619 
L 92.864983 101.591662 
L 93.262468 100.159705 
L 93.751649 98.727748 
L 94.321923 97.295792 
L 94.960943 95.863835 
L 95.655208 94.431878 
L 96.390589 92.999921 
L 97.152775 91.567964 
L 97.927621 90.136007 
L 98.701452 88.70405 
L 99.461325 87.272094 
L 100.195326 85.840137 
L 100.892903 84.40818 
L 101.545239 82.976223 
L 102.145646 81.544266 
L 102.689907 80.112309 
L 103.17652 78.680352 
L 103.606758 77.248396 
L 103.984513 75.816439 
L 104.315906 74.384482 
L 104.60869 72.952525 
L 104.871512 71.520568 
L 105.11312 70.088611 
L 105.341613 68.656655 
L 105.563836 67.224698 
L 105.784975 65.792741 
L 106.008403 64.360784 
L 106.235752 62.928827 
L 106.467186 61.49687 
L 106.701813 60.064913 
L 106.938148 58.632957 
L 107.174557 57.201 
L 107.40962 55.769043 
L 107.642371 54.337086 
L 107.872385 52.905129 
L 108.099734 51.473172 
L 108.32482 50.041215 
L 108.548137 48.609259 
L 108.770008 47.177302 
L 108.990353 45.745345 
L 109.208517 44.313388 
L 109.423212 42.881431 
L 109.632558 41.449474 
L 109.834249 40.017517 
L 110.025782 38.585561 
L 110.204752 37.153604 
L 110.369129 35.721647 
L 110.517511 34.28969 
L 110.64928 32.857733 
L 110.764678 31.425776 
L 110.864767 29.99382 
L 110.951297 28.561863 
L 111.026511 27.129906 
L 111.092899 25.697949 
L 111.152956 24.265992 
L 111.208958 22.834035 
L 111.262788 21.402078 
L 111.315818 19.970122 
L 112.538727 19.970122 
L 112.538727 19.970122 
L 112.591757 21.402078 
L 112.645587 22.834035 
L 112.70159 24.265992 
L 112.761647 25.697949 
L 112.828035 27.129906 
L 112.903248 28.561863 
L 112.989779 29.99382 
L 113.089867 31.425776 
L 113.205266 32.857733 
L 113.337035 34.28969 
L 113.485416 35.721647 
L 113.649794 37.153604 
L 113.828763 38.585561 
L 114.020297 40.017517 
L 114.221987 41.449474 
L 114.431334 42.881431 
L 114.646028 44.313388 
L 114.864193 45.745345 
L 115.084537 47.177302 
L 115.306409 48.609259 
L 115.529725 50.041215 
L 115.754811 51.473172 
L 115.98216 52.905129 
L 116.212175 54.337086 
L 116.444925 55.769043 
L 116.679988 57.201 
L 116.916397 58.632957 
L 117.152732 60.064913 
L 117.38736 61.49687 
L 117.618794 62.928827 
L 117.846142 64.360784 
L 118.06957 65.792741 
L 118.29071 67.224698 
L 118.512932 68.656655 
L 118.741425 70.088611 
L 118.983033 71.520568 
L 119.245856 72.952525 
L 119.53864 74.384482 
L 119.870032 75.816439 
L 120.247787 77.248396 
L 120.678025 78.680352 
L 121.164639 80.112309 
L 121.7089 81.544266 
L 122.309306 82.976223 
L 122.961642 84.40818 
L 123.659219 85.840137 
L 124.393221 87.272094 
L 125.153094 88.70405 
L 125.926924 90.136007 
L 126.701771 91.567964 
L 127.463956 92.999921 
L 128.199338 94.431878 
L 128.893603 95.863835 
L 129.532623 97.295792 
L 130.102896 98.727748 
L 130.592077 100.159705 
L 130.989562 101.591662 
L 131.287074 103.023619 
L 131.479177 104.455576 
L 131.563636 105.887533 
L 131.541565 107.31949 
L 131.417324 108.751446 
L 131.198168 110.183403 
L 130.893666 111.61536 
L 130.514984 113.047317 
L 130.074073 114.479274 
L 129.582903 115.911231 
L 129.052768 117.343188 
L 128.493777 118.775144 
L 127.914521 120.207101 
L 127.321942 121.639058 
L 126.721379 123.071015 
L 126.116743 124.502972 
L 125.510772 125.934929 
L 124.905323 127.366885 
L 124.301641 128.798842 
L 123.7006 130.230799 
L 123.102888 131.662756 
L 122.509152 133.094713 
L 121.920099 134.52667 
L 121.336588 135.958627 
L 120.759694 137.390583 
L 120.19077 138.82254 
L 119.631485 140.254497 
L 119.083825 141.686454 
L 118.550056 143.118411 
L 118.032621 144.550368 
L 117.534002 145.982325 
L 117.056532 147.414281 
L 116.602213 148.846238 
L 116.172549 150.278195 
L 115.768435 151.710152 
L 115.390112 153.142109 
L 115.03722 154.574066 
L 114.708901 156.006023 
L 114.403974 157.437979 
L 114.121122 158.869936 
L 113.859066 160.301893 
L 113.61671 161.73385 
L 113.61671 161.73385 
z
" clip-path="url(#p06bec602f9)" style="fill: none; stroke: #000000; stroke-opacity: 0.3"/>
   </g>
   <g id="FillBetweenPolyCollection_12">
    <path d="M 114.008742 183.360937 
L 109.845803 183.360937 
L 109.724402 181.908407 
L 109.610658 180.455877 
L 109.505885 179.003347 
L 109.41117 177.550818 
L 109.327321 176.098288 
L 109.254832 174.645758 
L 109.193846 173.193228 
L 109.144125 171.740699 
L 109.105021 170.288169 
L 109.075461 168.835639 
L 109.053928 167.383109 
L 109.038451 165.93058 
L 109.026598 164.47805 
L 109.015482 163.02552 
L 109.001762 161.57299 
L 108.981665 160.120461 
L 108.951015 158.667931 
L 108.905271 157.215401 
L 108.839592 155.762871 
L 108.748905 154.310342 
L 108.62801 152.857812 
L 108.471691 151.405282 
L 108.274857 149.952752 
L 108.032699 148.500223 
L 107.740862 147.047693 
L 107.395623 145.595163 
L 106.994082 144.142633 
L 106.534341 142.690104 
L 106.015666 141.237574 
L 105.438634 139.785044 
L 104.805239 138.332514 
L 104.118958 136.879985 
L 103.384768 135.427455 
L 102.609108 133.974925 
L 101.799782 132.522395 
L 100.965811 131.069866 
L 100.117229 129.617336 
L 99.264831 128.164806 
L 98.419889 126.712276 
L 97.593844 125.259747 
L 96.797981 123.807217 
L 96.043111 122.354687 
L 95.339262 120.902157 
L 94.695407 119.449628 
L 94.119219 117.997098 
L 93.616887 116.544568 
L 93.192972 115.092038 
L 92.850336 113.639509 
L 92.590122 112.186979 
L 92.411795 110.734449 
L 92.31324 109.281919 
L 92.290909 107.82939 
L 92.340009 106.37686 
L 92.454725 104.92433 
L 92.628468 103.4718 
L 92.854128 102.019271 
L 93.12434 100.566741 
L 93.431732 99.114211 
L 93.769153 97.661681 
L 94.129882 96.209151 
L 94.507793 94.756622 
L 94.897481 93.304092 
L 95.294351 91.851562 
L 95.694654 90.399032 
L 96.095491 88.946503 
L 96.494774 87.493973 
L 96.891158 86.041443 
L 97.283952 84.588913 
L 97.673014 83.136384 
L 98.058636 81.683854 
L 98.441435 80.231324 
L 98.822245 78.778794 
L 99.202028 77.326265 
L 99.581786 75.873735 
L 99.962501 74.421205 
L 100.345077 72.968675 
L 100.730303 71.516146 
L 101.118821 70.063616 
L 101.511097 68.611086 
L 101.907405 67.158556 
L 102.307809 65.706027 
L 102.712148 64.253497 
L 103.120028 62.800967 
L 103.530814 61.348437 
L 103.943634 59.895908 
L 104.357387 58.443378 
L 104.770762 56.990848 
L 105.182272 55.538318 
L 105.590285 54.085789 
L 105.99308 52.633259 
L 106.388899 51.180729 
L 106.775998 49.728199 
L 107.15271 48.27567 
L 107.517492 46.82314 
L 107.868966 45.37061 
L 108.205955 43.91808 
L 108.5275 42.465551 
L 108.832872 41.013021 
L 109.121566 39.560491 
L 114.732979 39.560491 
L 114.732979 39.560491 
L 115.021673 41.013021 
L 115.327046 42.465551 
L 115.648591 43.91808 
L 115.98558 45.37061 
L 116.337053 46.82314 
L 116.701835 48.27567 
L 117.078547 49.728199 
L 117.465647 51.180729 
L 117.861465 52.633259 
L 118.264261 54.085789 
L 118.672274 55.538318 
L 119.083783 56.990848 
L 119.497159 58.443378 
L 119.910912 59.895908 
L 120.323732 61.348437 
L 120.734518 62.800967 
L 121.142398 64.253497 
L 121.546737 65.706027 
L 121.947141 67.158556 
L 122.343449 68.611086 
L 122.735724 70.063616 
L 123.124242 71.516146 
L 123.509468 72.968675 
L 123.892045 74.421205 
L 124.272759 75.873735 
L 124.652517 77.326265 
L 125.0323 78.778794 
L 125.413111 80.231324 
L 125.79591 81.683854 
L 126.181532 83.136384 
L 126.570593 84.588913 
L 126.963388 86.041443 
L 127.359772 87.493973 
L 127.759054 88.946503 
L 128.159891 90.399032 
L 128.560195 91.851562 
L 128.957064 93.304092 
L 129.346753 94.756622 
L 129.724663 96.209151 
L 130.085393 97.661681 
L 130.422814 99.114211 
L 130.730205 100.566741 
L 131.000417 102.019271 
L 131.226078 103.4718 
L 131.39982 104.92433 
L 131.514537 106.37686 
L 131.563636 107.82939 
L 131.541305 109.281919 
L 131.442751 110.734449 
L 131.264424 112.186979 
L 131.00421 113.639509 
L 130.661574 115.092038 
L 130.237659 116.544568 
L 129.735326 117.997098 
L 129.159139 119.449628 
L 128.515283 120.902157 
L 127.811435 122.354687 
L 127.056565 123.807217 
L 126.260702 125.259747 
L 125.434657 126.712276 
L 124.589715 128.164806 
L 123.737316 129.617336 
L 122.888734 131.069866 
L 122.054764 132.522395 
L 121.245438 133.974925 
L 120.469777 135.427455 
L 119.735587 136.879985 
L 119.049306 138.332514 
L 118.415911 139.785044 
L 117.83888 141.237574 
L 117.320205 142.690104 
L 116.860463 144.142633 
L 116.458923 145.595163 
L 116.113684 147.047693 
L 115.821846 148.500223 
L 115.579688 149.952752 
L 115.382855 151.405282 
L 115.226536 152.857812 
L 115.10564 154.310342 
L 115.014954 155.762871 
L 114.949274 157.215401 
L 114.903531 158.667931 
L 114.87288 160.120461 
L 114.852784 161.57299 
L 114.839063 163.02552 
L 114.827947 164.47805 
L 114.816095 165.93058 
L 114.800618 167.383109 
L 114.779085 168.835639 
L 114.749525 170.288169 
L 114.710421 171.740699 
L 114.660699 173.193228 
L 114.599713 174.645758 
L 114.527225 176.098288 
L 114.443376 177.550818 
L 114.34866 179.003347 
L 114.243888 180.455877 
L 114.130143 181.908407 
L 114.008742 183.360937 
L 114.008742 183.360937 
z
" clip-path="url(#p06bec602f9)" style="fill: none; stroke: #000000; stroke-opacity: 0.3"/>
   </g>
   <g id="FillBetweenPolyCollection_13">
    <path d="M 118.500791 156.334672 
L 105.353755 156.334672 
L 104.905829 155.0782 
L 104.460739 153.821728 
L 104.020906 152.565256 
L 103.588411 151.308785 
L 103.164924 150.052313 
L 102.751659 148.795841 
L 102.349343 147.539369 
L 101.958202 146.282897 
L 101.577969 145.026425 
L 101.207908 143.769953 
L 100.846859 142.513482 
L 100.493301 141.25701 
L 100.145425 140.000538 
L 99.801225 138.744066 
L 99.458596 137.487594 
L 99.115439 136.231122 
L 98.769769 134.97465 
L 98.419824 133.718179 
L 98.064173 132.461707 
L 97.70181 131.205235 
L 97.332244 129.948763 
L 96.955573 128.692291 
L 96.572538 127.435819 
L 96.184558 126.179347 
L 95.793745 124.922875 
L 95.402889 123.666404 
L 95.015418 122.409932 
L 94.635336 121.15346 
L 94.267124 119.896988 
L 93.915634 118.640516 
L 93.585946 117.384044 
L 93.28322 116.127572 
L 93.012533 114.871101 
L 92.778711 113.614629 
L 92.586162 112.358157 
L 92.438729 111.101685 
L 92.339542 109.845213 
L 92.290909 108.588741 
L 92.294226 107.332269 
L 92.349922 106.075798 
L 92.457447 104.819326 
L 92.615283 103.562854 
L 92.821006 102.306382 
L 93.071371 101.04991 
L 93.362437 99.793438 
L 93.689706 98.536966 
L 94.048288 97.280495 
L 94.433071 96.024023 
L 94.838894 94.767551 
L 95.260714 93.511079 
L 95.693757 92.254607 
L 96.133651 90.998135 
L 96.576526 89.741663 
L 97.019094 88.485191 
L 97.458682 87.22872 
L 97.893245 85.972248 
L 98.321341 84.715776 
L 98.742076 83.459304 
L 99.155031 82.202832 
L 99.56017 80.94636 
L 99.957731 79.689888 
L 100.348126 78.433417 
L 100.731836 77.176945 
L 101.109319 75.920473 
L 101.480931 74.664001 
L 101.846876 73.407529 
L 102.207162 72.151057 
L 102.561596 70.894585 
L 102.90979 69.638114 
L 103.251191 68.381642 
L 103.585122 67.12517 
L 103.910841 65.868698 
L 104.227594 64.612226 
L 104.534681 63.355754 
L 104.831505 62.099282 
L 105.117621 60.84281 
L 105.392769 59.586339 
L 105.656893 58.329867 
L 105.910147 57.073395 
L 106.152883 55.816923 
L 106.385634 54.560451 
L 106.609081 53.303979 
L 106.824014 52.047507 
L 107.031289 50.791036 
L 107.23179 49.534564 
L 107.426385 48.278092 
L 107.615893 47.02162 
L 107.801056 45.765148 
L 107.982517 44.508676 
L 108.160806 43.252204 
L 108.336335 41.995733 
L 108.509399 40.739261 
L 108.680178 39.482789 
L 108.848749 38.226317 
L 109.015097 36.969845 
L 109.179125 35.713373 
L 109.340669 34.456901 
L 109.499508 33.20043 
L 109.655377 31.943958 
L 114.199168 31.943958 
L 114.199168 31.943958 
L 114.355037 33.20043 
L 114.513877 34.456901 
L 114.675421 35.713373 
L 114.839449 36.969845 
L 115.005796 38.226317 
L 115.174367 39.482789 
L 115.345146 40.739261 
L 115.51821 41.995733 
L 115.693739 43.252204 
L 115.872028 44.508676 
L 116.053489 45.765148 
L 116.238652 47.02162 
L 116.428161 48.278092 
L 116.622756 49.534564 
L 116.823256 50.791036 
L 117.030532 52.047507 
L 117.245464 53.303979 
L 117.468911 54.560451 
L 117.701663 55.816923 
L 117.944399 57.073395 
L 118.197652 58.329867 
L 118.461776 59.586339 
L 118.736924 60.84281 
L 119.023041 62.099282 
L 119.319865 63.355754 
L 119.626951 64.612226 
L 119.943705 65.868698 
L 120.269423 67.12517 
L 120.603355 68.381642 
L 120.944756 69.638114 
L 121.29295 70.894585 
L 121.647384 72.151057 
L 122.00767 73.407529 
L 122.373614 74.664001 
L 122.745227 75.920473 
L 123.122709 77.176945 
L 123.50642 78.433417 
L 123.896815 79.689888 
L 124.294376 80.94636 
L 124.699514 82.202832 
L 125.11247 83.459304 
L 125.533205 84.715776 
L 125.961301 85.972248 
L 126.395864 87.22872 
L 126.835452 88.485191 
L 127.278019 89.741663 
L 127.720895 90.998135 
L 128.160788 92.254607 
L 128.593832 93.511079 
L 129.015652 94.767551 
L 129.421475 96.024023 
L 129.806258 97.280495 
L 130.16484 98.536966 
L 130.492108 99.793438 
L 130.783174 101.04991 
L 131.03354 102.306382 
L 131.239262 103.562854 
L 131.397098 104.819326 
L 131.504623 106.075798 
L 131.56032 107.332269 
L 131.563636 108.588741 
L 131.515003 109.845213 
L 131.415816 111.101685 
L 131.268383 112.358157 
L 131.075835 113.614629 
L 130.842012 114.871101 
L 130.571325 116.127572 
L 130.268599 117.384044 
L 129.938912 118.640516 
L 129.587422 119.896988 
L 129.21921 121.15346 
L 128.839127 122.409932 
L 128.451657 123.666404 
L 128.060801 124.922875 
L 127.669988 126.179347 
L 127.282008 127.435819 
L 126.898972 128.692291 
L 126.522301 129.948763 
L 126.152736 131.205235 
L 125.790373 132.461707 
L 125.434722 133.718179 
L 125.084777 134.97465 
L 124.739106 136.231122 
L 124.395949 137.487594 
L 124.05332 138.744066 
L 123.709121 140.000538 
L 123.361245 141.25701 
L 123.007687 142.513482 
L 122.646638 143.769953 
L 122.276577 145.026425 
L 121.896343 146.282897 
L 121.505203 147.539369 
L 121.102887 148.795841 
L 120.689622 150.052313 
L 120.266135 151.308785 
L 119.833639 152.565256 
L 119.393807 153.821728 
L 118.948716 155.0782 
L 118.500791 156.334672 
L 118.500791 156.334672 
z
" clip-path="url(#p06bec602f9)" style="fill: none; stroke: #000000; stroke-opacity: 0.3"/>
   </g>
   <g id="FillBetweenPolyCollection_14">
    <path d="M 113.154904 190.282228 
L 110.699642 190.282228 
L 110.606913 188.735478 
L 110.508349 187.188729 
L 110.402133 185.641979 
L 110.286266 184.09523 
L 110.158658 182.548481 
L 110.017237 181.001731 
L 109.860043 179.454982 
L 109.685312 177.908232 
L 109.491541 176.361483 
L 109.277515 174.814733 
L 109.042316 173.267984 
L 108.785281 171.721235 
L 108.505952 170.174485 
L 108.203988 168.627736 
L 107.879075 167.080986 
L 107.530828 165.534237 
L 107.158713 163.987487 
L 106.761988 162.440738 
L 106.339672 160.893989 
L 105.890571 159.347239 
L 105.413335 157.80049 
L 104.906572 156.25374 
L 104.368998 154.706991 
L 103.799628 153.160241 
L 103.19798 151.613492 
L 102.564294 150.066743 
L 101.899736 148.519993 
L 101.206579 146.973244 
L 100.488341 145.426494 
L 99.749869 143.879745 
L 98.997363 142.332995 
L 98.238331 140.786246 
L 97.481481 139.239496 
L 96.736549 137.692747 
L 96.014081 136.145998 
L 95.325165 134.599248 
L 94.681143 133.052499 
L 94.09329 131.505749 
L 93.572507 129.959 
L 93.128996 128.41225 
L 92.77196 126.865501 
L 92.509315 125.318752 
L 92.347433 123.772002 
L 92.290909 122.225253 
L 92.34237 120.678503 
L 92.502332 119.131754 
L 92.769102 117.585004 
L 93.13875 116.038255 
L 93.605143 114.491506 
L 94.160054 112.944756 
L 94.793349 111.398007 
L 95.493248 109.851257 
L 96.246658 108.304508 
L 97.039566 106.757758 
L 97.857478 105.211009 
L 98.685882 103.66426 
L 99.510724 102.11751 
L 100.318857 100.570761 
L 101.09846 99.024011 
L 101.83939 97.477262 
L 102.533461 95.930512 
L 103.174631 94.383763 
L 103.759096 92.837014 
L 104.285278 91.290264 
L 104.753724 89.743515 
L 105.166911 88.196765 
L 105.528974 86.650016 
L 105.845377 85.103266 
L 106.122531 83.556517 
L 106.367401 82.009768 
L 106.587098 80.463018 
L 106.788497 78.916269 
L 106.977895 77.369519 
L 107.160727 75.82277 
L 107.341349 74.27602 
L 107.522912 72.729271 
L 107.70732 71.182522 
L 107.895274 69.635772 
L 108.086395 68.089023 
L 108.279408 66.542273 
L 108.472376 64.995524 
L 108.662961 63.448774 
L 108.848676 61.902025 
L 109.02714 60.355276 
L 109.196277 58.808526 
L 109.354487 57.261777 
L 109.500743 55.715027 
L 109.634646 54.168278 
L 109.756418 52.621528 
L 109.866841 51.074779 
L 109.967169 49.52803 
L 110.059009 47.98128 
L 110.14418 46.434531 
L 110.224584 44.887781 
L 110.302067 43.341032 
L 110.37831 41.794282 
L 110.454736 40.247533 
L 110.532434 38.700784 
L 110.612127 37.154034 
L 113.242418 37.154034 
L 113.242418 37.154034 
L 113.322111 38.700784 
L 113.39981 40.247533 
L 113.476235 41.794282 
L 113.552479 43.341032 
L 113.629962 44.887781 
L 113.710365 46.434531 
L 113.795537 47.98128 
L 113.887376 49.52803 
L 113.987705 51.074779 
L 114.098128 52.621528 
L 114.219899 54.168278 
L 114.353803 55.715027 
L 114.500059 57.261777 
L 114.658268 58.808526 
L 114.827406 60.355276 
L 115.005869 61.902025 
L 115.191585 63.448774 
L 115.382169 64.995524 
L 115.575138 66.542273 
L 115.768151 68.089023 
L 115.959271 69.635772 
L 116.147225 71.182522 
L 116.331633 72.729271 
L 116.513196 74.27602 
L 116.693818 75.82277 
L 116.87665 77.369519 
L 117.066049 78.916269 
L 117.267448 80.463018 
L 117.487144 82.009768 
L 117.732014 83.556517 
L 118.009169 85.103266 
L 118.325571 86.650016 
L 118.687635 88.196765 
L 119.100821 89.743515 
L 119.569268 91.290264 
L 120.09545 92.837014 
L 120.679914 94.383763 
L 121.321085 95.930512 
L 122.015155 97.477262 
L 122.756085 99.024011 
L 123.535688 100.570761 
L 124.343822 102.11751 
L 125.168663 103.66426 
L 125.997068 105.211009 
L 126.814979 106.757758 
L 127.607887 108.304508 
L 128.361297 109.851257 
L 129.061196 111.398007 
L 129.694491 112.944756 
L 130.249403 114.491506 
L 130.715796 116.038255 
L 131.085444 117.585004 
L 131.352214 119.131754 
L 131.512175 120.678503 
L 131.563636 122.225253 
L 131.507112 123.772002 
L 131.34523 125.318752 
L 131.082586 126.865501 
L 130.725549 128.41225 
L 130.282038 129.959 
L 129.761255 131.505749 
L 129.173403 133.052499 
L 128.52938 134.599248 
L 127.840465 136.145998 
L 127.117996 137.692747 
L 126.373065 139.239496 
L 125.616214 140.786246 
L 124.857182 142.332995 
L 124.104677 143.879745 
L 123.366205 145.426494 
L 122.647967 146.973244 
L 121.95481 148.519993 
L 121.290252 150.066743 
L 120.656565 151.613492 
L 120.054917 153.160241 
L 119.485547 154.706991 
L 118.947974 156.25374 
L 118.44121 157.80049 
L 117.963975 159.347239 
L 117.514873 160.893989 
L 117.092558 162.440738 
L 116.695832 163.987487 
L 116.323718 165.534237 
L 115.975471 167.080986 
L 115.650557 168.627736 
L 115.348593 170.174485 
L 115.069264 171.721235 
L 114.81223 173.267984 
L 114.57703 174.814733 
L 114.363005 176.361483 
L 114.169233 177.908232 
L 113.994503 179.454982 
L 113.837308 181.001731 
L 113.695887 182.548481 
L 113.56828 184.09523 
L 113.452412 185.641979 
L 113.346197 187.188729 
L 113.247633 188.735478 
L 113.154904 190.282228 
L 113.154904 190.282228 
z
" clip-path="url(#p06bec602f9)" style="fill: none; stroke: #000000; stroke-opacity: 0.3"/>
   </g>
   <g id="matplotlib.axis_1"/>
   <g id="matplotlib.axis_2">
    <g id="ytick_1">
     <g id="line2d_1">
      <defs>
       <path id="mceddcf9c92" d="M 0 0 
L -3.5 0 
" style="stroke: #000000; stroke-width: 0.8"/>
      </defs>
      <g>
       <use xlink:href="#mceddcf9c92" x="21.6" y="291.6" style="stroke: #000000; stroke-width: 0.8"/>
      </g>
     </g>
    </g>
    <g id="ytick_2">
     <g id="line2d_2">
      <g>
       <use xlink:href="#mceddcf9c92" x="21.6" y="199.8" style="stroke: #000000; stroke-width: 0.8"/>
      </g>
     </g>
    </g>
    <g id="ytick_3">
     <g id="line2d_3">
      <g>
       <use xlink:href="#mceddcf9c92" x="21.6" y="108" style="stroke: #000000; stroke-width: 0.8"/>
      </g>
     </g>
    </g>
    <g id="ytick_4">
     <g id="line2d_4">
      <g>
       <use xlink:href="#mceddcf9c92" x="21.6" y="16.2" style="stroke: #000000; stroke-width: 0.8"/>
      </g>
     </g>
    </g>
   </g>
   <g id="line2d_5">
    <path d="M 46.472727 269.568 
L 46.472727 264.06 
" clip-path="url(#p06bec602f9)" style="fill: none; stroke: #000000; stroke-linecap: square"/>
   </g>
   <g id="line2d_6">
    <path d="M 46.472727 269.568 
L 111.927273 269.568 
" clip-path="url(#p06bec602f9)" style="fill: none; stroke: #000000; stroke-linecap: square"/>
   </g>
   <g id="line2d_7">
    <path d="M 111.927273 269.568 
L 111.927273 264.06 
" clip-path="url(#p06bec602f9)" style="fill: none; stroke: #000000; stroke-linecap: square"/>
   </g>
   <g id="patch_3">
    <path d="M 21.6 291.6 
L 21.6 16.2 
" style="fill: none; stroke: #000000; stroke-width: 0.8; stroke-linejoin: miter; stroke-linecap: square"/>
   </g>
   <g id="patch_4">
    <path d="M 136.8 291.6 
L 136.8 16.2 
" style="fill: none; stroke: #000000; stroke-width: 0.8; stroke-linejoin: miter; stroke-linecap: square"/>
   </g>
   <g id="patch_5">
    <path d="M 21.6 291.6 
L 136.8 291.6 
" style="fill: none; stroke: #000000; stroke-width: 0.8; stroke-linejoin: miter; stroke-linecap: square"/>
   </g>
   <g id="patch_6">
    <path d="M 21.6 16.2 
L 136.8 16.2 
" style="fill: none; stroke: #000000; stroke-width: 0.8; stroke-linejoin: miter; stroke-linecap: square"/>
   </g>
   <g id="text_1">
    <text style="font-weight: 700; font-size: 12px; font-family: 'DejaVu Sans', 'Bitstream Vera Sans', 'Computer Modern Sans Serif', 'Lucida Grande', 'Verdana', 'Geneva', 'Lucid', 'Arial', 'Helvetica', 'Avant Garde', sans-serif; text-anchor: middle" x="46.472727" y="289.104375" transform="rotate(-0 46.472727 289.104375)">#9</text>
   </g>
   <g id="text_2">
    <text style="font-weight: 700; font-size: 12px; font-family: 'DejaVu Sans', 'Bitstream Vera Sans', 'Computer Modern Sans Serif', 'Lucida Grande', 'Verdana', 'Geneva', 'Lucid', 'Arial', 'Helvetica', 'Avant Garde', sans-serif; text-anchor: middle" x="111.927273" y="289.104375" transform="rotate(-0 111.927273 289.104375)">#17</text>
   </g>
   <g id="text_3">
    <text style="font-size: 12px; font-family: 'DejaVu Sans', 'Bitstream Vera Sans', 'Computer Modern Sans Serif', 'Lucida Grande', 'Verdana', 'Geneva', 'Lucid', 'Arial', 'Helvetica', 'Avant Garde', sans-serif; text-anchor: middle" x="79.2" y="268.449375" transform="rotate(-0 79.2 268.449375)">**</text>
   </g>
   <g id="line2d_8">
    <path d="M 21.6 124.142867 
L 136.8 124.142867 
" clip-path="url(#p06bec602f9)" style="fill: none; stroke-dasharray: 3.7,1.6; stroke-dashoffset: 0; stroke: #808080; stroke-opacity: 0.7"/>
   </g>
   <g id="line2d_9">
    <path d="M 21.6 109.784146 
L 136.8 109.784146 
" clip-path="url(#p06bec602f9)" style="fill: none; stroke-dasharray: 3.7,1.6; stroke-dashoffset: 0; stroke: #808080; stroke-opacity: 0.7"/>
   </g>
   <g id="LineCollection_1">
    <path d="M 46.472727 131.270746 
L 46.472727 117.014988 
" clip-path="url(#p06bec602f9)" style="fill: none; stroke: #000000; stroke-width: 2"/>
   </g>
   <g id="line2d_10">
    <defs>
     <path id="m2b7e2e5689" d="M 5 0 
L -5 -0 
" style="stroke: #000000; stroke-width: 2"/>
    </defs>
    <g clip-path="url(#p06bec602f9)">
     <use xlink:href="#m2b7e2e5689" x="46.472727" y="131.270746" style="stroke: #000000; stroke-width: 2"/>
    </g>
   </g>
   <g id="line2d_11">
    <g clip-path="url(#p06bec602f9)">
     <use xlink:href="#m2b7e2e5689" x="46.472727" y="117.014988" style="stroke: #000000; stroke-width: 2"/>
    </g>
   </g>
   <g id="LineCollection_2">
    <path d="M 111.927273 115.453804 
L 111.927273 104.114488 
" clip-path="url(#p06bec602f9)" style="fill: none; stroke: #000000; stroke-width: 2"/>
   </g>
   <g id="line2d_12">
    <g clip-path="url(#p06bec602f9)">
     <use xlink:href="#m2b7e2e5689" x="111.927273" y="115.453804" style="stroke: #000000; stroke-width: 2"/>
    </g>
   </g>
   <g id="line2d_13">
    <g clip-path="url(#p06bec602f9)">
     <use xlink:href="#m2b7e2e5689" x="111.927273" y="104.114488" style="stroke: #000000; stroke-width: 2"/>
    </g>
   </g>
   <g id="line2d_14">
    <defs>
     <path id="m0828c2c75e" d="M 0 4 
C 1.060812 4 2.078319 3.578535 2.828427 2.828427 
C 3.578535 2.078319 4 1.060812 4 0 
C 4 -1.060812 3.578535 -2.078319 2.828427 -2.828427 
C 2.078319 -3.578535 1.060812 -4 0 -4 
C -1.060812 -4 -2.078319 -3.578535 -2.828427 -2.828427 
C -3.578535 -2.078319 -4 -1.060812 -4 0 
C -4 1.060812 -3.578535 2.078319 -2.828427 2.828427 
C -2.078319 3.578535 -1.060812 4 0 4 
z
" style="stroke: #000000"/>
    </defs>
    <g clip-path="url(#p06bec602f9)">
     <use xlink:href="#m0828c2c75e" x="46.472727" y="124.142867" style="stroke: #000000"/>
    </g>
   </g>
   <g id="line2d_15">
    <g clip-path="url(#p06bec602f9)">
     <use xlink:href="#m0828c2c75e" x="111.927273" y="109.784146" style="stroke: #000000"/>
    </g>
   </g>
  </g>
 </g>
 <defs>
  <clipPath id="p06bec602f9">
   <rect x="21.6" y="16.2" width="115.2" height="275.4"/>
  </clipPath>
 </defs>
</svg>
