<?xml version="1.0" encoding="utf-8" standalone="no"?>
<!DOCTYPE svg PUBLIC "-//W3C//DTD SVG 1.1//EN"
  "http://www.w3.org/Graphics/SVG/1.1/DTD/svg11.dtd">
<svg xmlns:xlink="http://www.w3.org/1999/xlink" width="144pt" height="324pt" viewBox="0 0 144 324" xmlns="http://www.w3.org/2000/svg" version="1.1">
 <metadata>
  <rdf:RDF xmlns:dc="http://purl.org/dc/elements/1.1/" xmlns:cc="http://creativecommons.org/ns#" xmlns:rdf="http://www.w3.org/1999/02/22-rdf-syntax-ns#">
   <cc:Work>
    <dc:type rdf:resource="http://purl.org/dc/dcmitype/StillImage"/>
    <dc:date>2025-12-05T14:51:43.019984</dc:date>
    <dc:format>image/svg+xml</dc:format>
    <dc:creator>
     <cc:Agent>
      <dc:title>Matplotlib v3.10.0, https://matplotlib.org/</dc:title>
     </cc:Agent>
    </dc:creator>
   </cc:Work>
  </rdf:RDF>
 </metadata>
 <defs>
  <style type="text/css">*{stroke-linejoin: round; stroke-linecap: butt}</style>
 </defs>
 <g id="figure_1">
  <g id="patch_1">
   <path d="M 0 324 
L 144 324 
L 144 0 
L 0 0 
z
" style="fill: #ffffff"/>
  </g>
  <g id="axes_1">
   <g id="patch_2">
    <path d="M 21.6 291.6 
L 136.8 291.6 
L 136.8 16.2 
L 21.6 16.2 
z
" style="fill: #ffffff"/>
   </g>
   <g id="FillBetweenPolyCollection_1">
    <path d="M 46.909762 247.994815 
L 46.035692 247.994815 
L 46.041442 246.091241 
L 46.058297 244.187667 
L 46.084904 242.284093 
L 46.119194 240.380519 
L 46.158621 238.476945 
L 46.200435 236.573371 
L 46.241934 234.669797 
L 46.280673 232.766223 
L 46.314601 230.86265 
L 46.342107 228.959076 
L 46.362005 227.055502 
L 46.373472 225.151928 
L 46.375957 223.248354 
L 46.369106 221.34478 
L 46.352702 219.441206 
L 46.326636 217.537632 
L 46.290895 215.634058 
L 46.245557 213.730485 
L 46.190767 211.826911 
L 46.126679 209.923337 
L 46.053373 208.019763 
L 45.970736 206.116189 
L 45.878364 204.212615 
L 45.775504 202.309041 
L 45.6611 200.405467 
L 45.533954 198.501893 
L 45.39303 196.59832 
L 45.237842 194.694746 
L 45.068884 192.791172 
L 44.887982 190.887598 
L 44.698467 188.984024 
L 44.505082 187.08045 
L 44.313564 185.176876 
L 44.12992 183.273302 
L 43.959481 181.369728 
L 43.805871 179.466154 
L 43.670085 177.562581 
L 43.54984 175.659007 
L 43.439371 173.755433 
L 43.329712 171.851859 
L 43.209468 169.948285 
L 43.065938 168.044711 
L 42.886416 166.141137 
L 42.659416 164.237563 
L 42.37561 162.333989 
L 42.028307 160.430416 
L 41.613394 158.526842 
L 41.128811 156.623268 
L 40.573707 154.719694 
L 39.947548 152.81612 
L 39.24946 150.912546 
L 38.478079 149.008972 
L 37.632066 147.105398 
L 36.711307 145.201824 
L 35.718659 143.29825 
L 34.661927 141.394677 
L 33.555677 139.491103 
L 32.422432 137.587529 
L 31.292892 135.683955 
L 30.20492 133.780381 
L 29.201289 131.876807 
L 28.326364 129.973233 
L 27.622136 128.069659 
L 27.12415 126.166085 
L 26.857915 124.262512 
L 26.836364 122.358938 
L 27.058714 120.455364 
L 27.510932 118.55179 
L 28.167664 116.648216 
L 28.995332 114.744642 
L 29.95585 112.841068 
L 31.010403 110.937494 
L 32.122709 109.03392 
L 33.26135 107.130347 
L 34.400965 105.226773 
L 35.522295 103.323199 
L 36.611315 101.419625 
L 37.657806 99.516051 
L 38.653765 97.612477 
L 39.592057 95.708903 
L 40.465545 93.805329 
L 41.266847 91.901755 
L 41.988663 89.998181 
L 42.624542 88.094608 
L 43.169833 86.191034 
L 43.622615 84.28746 
L 43.984366 82.383886 
L 44.260268 80.480312 
L 44.459073 78.576738 
L 44.592568 76.673164 
L 44.674719 74.76959 
L 44.720607 72.866016 
L 44.745294 70.962443 
L 44.762726 69.058869 
L 44.784807 67.155295 
L 44.82069 65.251721 
L 44.876373 63.348147 
L 44.954598 61.444573 
L 45.055059 59.540999 
L 47.890396 59.540999 
L 47.890396 59.540999 
L 47.990857 61.444573 
L 48.069082 63.348147 
L 48.124764 65.251721 
L 48.160647 67.155295 
L 48.182728 69.058869 
L 48.200161 70.962443 
L 48.224847 72.866016 
L 48.270736 74.76959 
L 48.352887 76.673164 
L 48.486382 78.576738 
L 48.685187 80.480312 
L 48.961089 82.383886 
L 49.32284 84.28746 
L 49.775622 86.191034 
L 50.320913 88.094608 
L 50.956791 89.998181 
L 51.678608 91.901755 
L 52.479909 93.805329 
L 53.353398 95.708903 
L 54.291689 97.612477 
L 55.287649 99.516051 
L 56.334139 101.419625 
L 57.42316 103.323199 
L 58.54449 105.226773 
L 59.684104 107.130347 
L 60.822746 109.03392 
L 61.935051 110.937494 
L 62.989605 112.841068 
L 63.950123 114.744642 
L 64.77779 116.648216 
L 65.434523 118.55179 
L 65.88674 120.455364 
L 66.109091 122.358938 
L 66.087539 124.262512 
L 65.821305 126.166085 
L 65.323318 128.069659 
L 64.619091 129.973233 
L 63.744166 131.876807 
L 62.740534 133.780381 
L 61.652562 135.683955 
L 60.523022 137.587529 
L 59.389778 139.491103 
L 58.283527 141.394677 
L 57.226795 143.29825 
L 56.234147 145.201824 
L 55.313388 147.105398 
L 54.467376 149.008972 
L 53.695995 150.912546 
L 52.997907 152.81612 
L 52.371747 154.719694 
L 51.816644 156.623268 
L 51.332061 158.526842 
L 50.917148 160.430416 
L 50.569844 162.333989 
L 50.286039 164.237563 
L 50.059039 166.141137 
L 49.879517 168.044711 
L 49.735987 169.948285 
L 49.615742 171.851859 
L 49.506084 173.755433 
L 49.395615 175.659007 
L 49.27537 177.562581 
L 49.139583 179.466154 
L 48.985974 181.369728 
L 48.815535 183.273302 
L 48.631891 185.176876 
L 48.440372 187.08045 
L 48.246987 188.984024 
L 48.057472 190.887598 
L 47.87657 192.791172 
L 47.707613 194.694746 
L 47.552425 196.59832 
L 47.4115 198.501893 
L 47.284355 200.405467 
L 47.16995 202.309041 
L 47.067091 204.212615 
L 46.974719 206.116189 
L 46.892082 208.019763 
L 46.818776 209.923337 
L 46.754688 211.826911 
L 46.699897 213.730485 
L 46.654559 215.634058 
L 46.618819 217.537632 
L 46.592753 219.441206 
L 46.576349 221.34478 
L 46.569498 223.248354 
L 46.571983 225.151928 
L 46.58345 227.055502 
L 46.603348 228.959076 
L 46.630853 230.86265 
L 46.664781 232.766223 
L 46.703521 234.669797 
L 46.74502 236.573371 
L 46.786833 238.476945 
L 46.826261 240.380519 
L 46.860551 242.284093 
L 46.887157 244.187667 
L 46.904013 246.091241 
L 46.909762 247.994815 
L 46.909762 247.994815 
z
" clip-path="url(#p8419286028)" style="fill: none; stroke: #000000; stroke-opacity: 0.3"/>
   </g>
   <g id="FillBetweenPolyCollection_2">
    <path d="M 49.710646 169.936707 
L 43.234809 169.936707 
L 42.894195 168.801476 
L 42.553967 167.666246 
L 42.218311 166.531015 
L 41.890608 165.395785 
L 41.573091 164.260554 
L 41.266557 163.125323 
L 40.970162 161.990093 
L 40.681326 160.854862 
L 40.395771 159.719632 
L 40.107688 158.584401 
L 39.810033 157.449171 
L 39.494943 156.31394 
L 39.154229 155.178709 
L 38.779928 154.043479 
L 38.364875 152.908248 
L 37.903234 151.773018 
L 37.390983 150.637787 
L 36.826296 149.502557 
L 36.209805 148.367326 
L 35.544732 147.232095 
L 34.836871 146.096865 
L 34.094443 144.961634 
L 33.327811 143.826404 
L 32.549097 142.691173 
L 31.771702 141.555943 
L 31.009775 140.420712 
L 30.277645 139.285481 
L 29.589258 138.150251 
L 28.957632 137.01502 
L 28.39437 135.87979 
L 27.909236 134.744559 
L 27.509837 133.609329 
L 27.201385 132.474098 
L 26.986592 131.338867 
L 26.865656 130.203637 
L 26.836364 129.068406 
L 26.89429 127.933176 
L 27.033084 126.797945 
L 27.244819 125.662715 
L 27.520404 124.527484 
L 27.850014 123.392253 
L 28.223542 122.257023 
L 28.631028 121.121792 
L 29.063061 119.986562 
L 29.511129 118.851331 
L 29.967899 117.716101 
L 30.427411 116.58087 
L 30.885189 115.445639 
L 31.338249 114.310409 
L 31.785022 113.175178 
L 32.225186 112.039948 
L 32.659438 110.904717 
L 33.089204 109.769487 
L 33.516337 108.634256 
L 33.942797 107.499025 
L 34.370364 106.363795 
L 34.800386 105.228564 
L 35.233595 104.093334 
L 35.66999 102.958103 
L 36.108792 101.822873 
L 36.548482 100.687642 
L 36.986887 99.552411 
L 37.421327 98.417181 
L 37.848788 97.28195 
L 38.266099 96.14672 
L 38.670117 95.011489 
L 39.057883 93.876259 
L 39.426751 92.741028 
L 39.774486 91.605797 
L 40.099332 90.470567 
L 40.400044 89.335336 
L 40.675911 88.200106 
L 40.926752 87.064875 
L 41.152919 85.929645 
L 41.355279 84.794414 
L 41.535202 83.659184 
L 41.694538 82.523953 
L 41.835582 81.388722 
L 41.961022 80.253492 
L 42.073865 79.118261 
L 42.177345 77.983031 
L 42.274801 76.8478 
L 42.369553 75.71257 
L 42.464755 74.577339 
L 42.563266 73.442108 
L 42.66753 72.306878 
L 42.779478 71.171647 
L 42.900468 70.036417 
L 43.031262 68.901186 
L 43.172033 67.765956 
L 43.322416 66.630725 
L 43.481574 65.495494 
L 43.648289 64.360264 
L 43.821052 63.225033 
L 43.998164 62.089803 
L 44.177817 60.954572 
L 44.35817 59.819342 
L 44.537408 58.684111 
L 44.713791 57.54888 
L 48.231664 57.54888 
L 48.231664 57.54888 
L 48.408047 58.684111 
L 48.587285 59.819342 
L 48.767637 60.954572 
L 48.94729 62.089803 
L 49.124402 63.225033 
L 49.297166 64.360264 
L 49.46388 65.495494 
L 49.623039 66.630725 
L 49.773422 67.765956 
L 49.914193 68.901186 
L 50.044986 70.036417 
L 50.165976 71.171647 
L 50.277924 72.306878 
L 50.382188 73.442108 
L 50.4807 74.577339 
L 50.575902 75.71257 
L 50.670653 76.8478 
L 50.76811 77.983031 
L 50.871589 79.118261 
L 50.984432 80.253492 
L 51.109872 81.388722 
L 51.250916 82.523953 
L 51.410252 83.659184 
L 51.590175 84.794414 
L 51.792535 85.929645 
L 52.018702 87.064875 
L 52.269544 88.200106 
L 52.54541 89.335336 
L 52.846122 90.470567 
L 53.170968 91.605797 
L 53.518704 92.741028 
L 53.887572 93.876259 
L 54.275338 95.011489 
L 54.679356 96.14672 
L 55.096667 97.28195 
L 55.524127 98.417181 
L 55.958568 99.552411 
L 56.396973 100.687642 
L 56.836662 101.822873 
L 57.275465 102.958103 
L 57.711859 104.093334 
L 58.145069 105.228564 
L 58.575091 106.363795 
L 59.002657 107.499025 
L 59.429117 108.634256 
L 59.85625 109.769487 
L 60.286017 110.904717 
L 60.720268 112.039948 
L 61.160432 113.175178 
L 61.607205 114.310409 
L 62.060265 115.445639 
L 62.518043 116.58087 
L 62.977556 117.716101 
L 63.434325 118.851331 
L 63.882394 119.986562 
L 64.314427 121.121792 
L 64.721912 122.257023 
L 65.09544 123.392253 
L 65.425051 124.527484 
L 65.700635 125.662715 
L 65.912371 126.797945 
L 66.051164 127.933176 
L 66.109091 129.068406 
L 66.079799 130.203637 
L 65.958862 131.338867 
L 65.744069 132.474098 
L 65.435618 133.609329 
L 65.036218 134.744559 
L 64.551085 135.87979 
L 63.987822 137.01502 
L 63.356196 138.150251 
L 62.667809 139.285481 
L 61.93568 140.420712 
L 61.173752 141.555943 
L 60.396357 142.691173 
L 59.617643 143.826404 
L 58.851012 144.961634 
L 58.108584 146.096865 
L 57.400723 147.232095 
L 56.735649 148.367326 
L 56.119158 149.502557 
L 55.554471 150.637787 
L 55.042221 151.773018 
L 54.58058 152.908248 
L 54.165526 154.043479 
L 53.791226 155.178709 
L 53.450511 156.31394 
L 53.135421 157.449171 
L 52.837767 158.584401 
L 52.549683 159.719632 
L 52.264129 160.854862 
L 51.975293 161.990093 
L 51.678897 163.125323 
L 51.372363 164.260554 
L 51.054847 165.395785 
L 50.727143 166.531015 
L 50.391487 167.666246 
L 50.05126 168.801476 
L 49.710646 169.936707 
L 49.710646 169.936707 
z
" clip-path="url(#p8419286028)" style="fill: none; stroke: #000000; stroke-opacity: 0.3"/>
   </g>
   <g id="FillBetweenPolyCollection_3">
    <path d="M 49.420577 174.636539 
L 43.524877 174.636539 
L 43.024746 172.898209 
L 42.482933 171.159878 
L 41.901423 169.421547 
L 41.282349 167.683217 
L 40.627875 165.944886 
L 39.940114 164.206556 
L 39.221141 162.468225 
L 38.473071 160.729894 
L 37.698236 158.991564 
L 36.899426 157.253233 
L 36.08019 155.514902 
L 35.245133 153.776572 
L 34.40018 152.038241 
L 33.552734 150.299911 
L 32.711703 148.56158 
L 31.887342 146.823249 
L 31.090937 145.084919 
L 30.334331 143.346588 
L 29.629347 141.608257 
L 28.987178 139.869927 
L 28.417789 138.131596 
L 27.929419 136.393266 
L 27.528192 134.654935 
L 27.217914 132.916604 
L 27.000025 131.178274 
L 26.873744 129.439943 
L 26.836364 127.701613 
L 26.883677 125.963282 
L 27.010485 124.224951 
L 27.211113 122.486621 
L 27.479883 120.74829 
L 27.811457 119.009959 
L 28.200996 117.271629 
L 28.644137 115.533298 
L 29.136769 113.794968 
L 29.674689 112.056637 
L 30.253223 110.318306 
L 30.866901 108.579976 
L 31.50928 106.841645 
L 32.17298 105.103315 
L 32.849925 103.364984 
L 33.531754 101.626653 
L 34.210333 99.888323 
L 34.87826 98.149992 
L 35.529292 96.411661 
L 36.158623 94.673331 
L 36.762996 92.935 
L 37.340668 91.19667 
L 37.891257 89.458339 
L 38.415521 87.720008 
L 38.915095 85.981678 
L 39.392227 84.243347 
L 39.849484 82.505017 
L 40.289459 80.766686 
L 40.714454 79.028355 
L 41.12616 77.290025 
L 41.525375 75.551694 
L 41.9118 73.813363 
L 42.283966 72.075033 
L 42.639345 70.336702 
L 42.974639 68.598372 
L 43.286247 66.860041 
L 43.570833 65.12171 
L 43.825903 63.38338 
L 44.050309 61.645049 
L 44.244558 59.906719 
L 44.410886 58.168388 
L 44.553066 56.430057 
L 44.675978 54.691727 
L 44.785022 52.953396 
L 44.885461 51.215065 
L 44.981808 49.476735 
L 45.077351 47.738404 
L 45.173875 46.000074 
L 45.271612 44.261743 
L 45.3694 42.523412 
L 45.465018 40.785082 
L 45.55562 39.046751 
L 45.638198 37.30842 
L 45.710014 35.57009 
L 45.768943 33.831759 
L 45.813702 32.093429 
L 45.843936 30.355098 
L 45.860207 28.616767 
L 45.863865 26.878437 
L 45.856879 25.140106 
L 45.841631 23.401776 
L 45.820722 21.663445 
L 45.796807 19.925114 
L 45.772467 18.186784 
L 45.750119 16.448453 
L 45.731957 14.710122 
L 45.719899 12.971792 
L 45.715541 11.233461 
L 45.720096 9.495131 
L 45.734329 7.7568 
L 45.758503 6.018469 
L 45.792331 4.280139 
L 45.834972 2.541808 
L 47.110483 2.541808 
L 47.110483 2.541808 
L 47.153123 4.280139 
L 47.186951 6.018469 
L 47.211125 7.7568 
L 47.225359 9.495131 
L 47.229913 11.233461 
L 47.225555 12.971792 
L 47.213498 14.710122 
L 47.195336 16.448453 
L 47.172988 18.186784 
L 47.148647 19.925114 
L 47.124732 21.663445 
L 47.103824 23.401776 
L 47.088576 25.140106 
L 47.08159 26.878437 
L 47.085248 28.616767 
L 47.101518 30.355098 
L 47.131753 32.093429 
L 47.176511 33.831759 
L 47.235441 35.57009 
L 47.307257 37.30842 
L 47.389834 39.046751 
L 47.480436 40.785082 
L 47.576055 42.523412 
L 47.673843 44.261743 
L 47.771579 46.000074 
L 47.868103 47.738404 
L 47.963647 49.476735 
L 48.059994 51.215065 
L 48.160433 52.953396 
L 48.269477 54.691727 
L 48.392389 56.430057 
L 48.534568 58.168388 
L 48.700896 59.906719 
L 48.895145 61.645049 
L 49.119551 63.38338 
L 49.374622 65.12171 
L 49.659207 66.860041 
L 49.970816 68.598372 
L 50.30611 70.336702 
L 50.661488 72.075033 
L 51.033654 73.813363 
L 51.420079 75.551694 
L 51.819295 77.290025 
L 52.231001 79.028355 
L 52.655996 80.766686 
L 53.095971 82.505017 
L 53.553228 84.243347 
L 54.030359 85.981678 
L 54.529934 87.720008 
L 55.054197 89.458339 
L 55.604787 91.19667 
L 56.182459 92.935 
L 56.786832 94.673331 
L 57.416162 96.411661 
L 58.067195 98.149992 
L 58.735122 99.888323 
L 59.4137 101.626653 
L 60.095529 103.364984 
L 60.772474 105.103315 
L 61.436175 106.841645 
L 62.078554 108.579976 
L 62.692231 110.318306 
L 63.270765 112.056637 
L 63.808686 113.794968 
L 64.301317 115.533298 
L 64.744458 117.271629 
L 65.133998 119.009959 
L 65.465571 120.74829 
L 65.734342 122.486621 
L 65.93497 124.224951 
L 66.061777 125.963282 
L 66.109091 127.701613 
L 66.071711 129.439943 
L 65.94543 131.178274 
L 65.727541 132.916604 
L 65.417262 134.654935 
L 65.016036 136.393266 
L 64.527665 138.131596 
L 63.958277 139.869927 
L 63.316107 141.608257 
L 62.611123 143.346588 
L 61.854517 145.084919 
L 61.058113 146.823249 
L 60.233752 148.56158 
L 59.39272 150.299911 
L 58.545275 152.038241 
L 57.700321 153.776572 
L 56.865265 155.514902 
L 56.046028 157.253233 
L 55.247219 158.991564 
L 54.472383 160.729894 
L 53.724313 162.468225 
L 53.00534 164.206556 
L 52.31758 165.944886 
L 51.663105 167.683217 
L 51.044032 169.421547 
L 50.462521 171.159878 
L 49.920709 172.898209 
L 49.420577 174.636539 
L 49.420577 174.636539 
z
" clip-path="url(#p8419286028)" style="fill: none; stroke: #000000; stroke-opacity: 0.3"/>
   </g>
   <g id="FillBetweenPolyCollection_4">
    <path d="M 48.511555 175.407409 
L 44.433899 175.407409 
L 44.121148 173.392003 
L 43.787536 171.376597 
L 43.431556 169.361191 
L 43.050953 167.345786 
L 42.643242 165.33038 
L 42.206389 163.314974 
L 41.739486 161.299568 
L 41.243283 159.284162 
L 40.720397 157.268756 
L 40.175112 155.25335 
L 39.612723 153.237944 
L 39.038501 151.222538 
L 38.456463 149.207132 
L 37.868213 147.191726 
L 37.272141 145.17632 
L 36.66327 143.160914 
L 36.033886 141.145508 
L 35.37495 139.130102 
L 34.678107 137.114696 
L 33.937914 135.09929 
L 33.153893 133.083885 
L 32.331989 131.068479 
L 31.485177 129.053073 
L 30.63312 127.037667 
L 29.800982 125.022261 
L 29.01762 123.006855 
L 28.313463 120.991449 
L 27.718338 118.976043 
L 27.259468 116.960637 
L 26.959746 114.945231 
L 26.836364 112.929825 
L 26.899796 110.914419 
L 27.153164 108.899013 
L 27.591987 106.883607 
L 28.204349 104.868201 
L 28.971481 102.852795 
L 29.868751 100.83739 
L 30.867026 98.821984 
L 31.934333 96.806578 
L 33.037725 94.791172 
L 34.145222 92.775766 
L 35.227676 90.76036 
L 36.260375 88.744954 
L 37.224235 86.729548 
L 38.106412 84.714142 
L 38.900301 82.698736 
L 39.60493 80.68333 
L 40.223892 78.667924 
L 40.764005 76.652518 
L 41.233965 74.637112 
L 41.643169 72.621706 
L 42.00087 70.6063 
L 42.315689 68.590894 
L 42.595433 66.575489 
L 42.847102 64.560083 
L 43.07696 62.544677 
L 43.290545 60.529271 
L 43.492585 58.513865 
L 43.686825 56.498459 
L 43.875823 54.483053 
L 44.060811 52.467647 
L 44.241698 50.452241 
L 44.417262 48.436835 
L 44.585532 46.421429 
L 44.744291 44.406023 
L 44.891605 42.390617 
L 45.026265 40.375211 
L 45.148036 38.359805 
L 45.257669 36.344399 
L 45.356667 34.328993 
L 45.446893 32.313588 
L 45.530109 30.298182 
L 45.607599 28.282776 
L 45.679948 26.26737 
L 45.747047 24.251964 
L 45.808312 22.236558 
L 45.863027 20.221152 
L 45.910724 18.205746 
L 45.951474 16.19034 
L 45.986017 14.174934 
L 46.015688 12.159528 
L 46.042173 10.144122 
L 46.067146 8.128716 
L 46.091906 6.11331 
L 46.117079 4.097904 
L 46.142483 2.082498 
L 46.167158 0.067093 
L 46.179029 -1 
M 46.766426 -1 
L 46.778297 0.067093 
L 46.802972 2.082498 
L 46.828375 4.097904 
L 46.853549 6.11331 
L 46.878308 8.128716 
L 46.903282 10.144122 
L 46.929766 12.159528 
L 46.959438 14.174934 
L 46.993981 16.19034 
L 47.03473 18.205746 
L 47.082427 20.221152 
L 47.137142 22.236558 
L 47.198407 24.251964 
L 47.265507 26.26737 
L 47.337855 28.282776 
L 47.415345 30.298182 
L 47.498562 32.313588 
L 47.588787 34.328993 
L 47.687786 36.344399 
L 47.797419 38.359805 
L 47.91919 40.375211 
L 48.053849 42.390617 
L 48.201163 44.406023 
L 48.359922 46.421429 
L 48.528193 48.436835 
L 48.703757 50.452241 
L 48.884643 52.467647 
L 49.069632 54.483053 
L 49.25863 56.498459 
L 49.45287 58.513865 
L 49.65491 60.529271 
L 49.868494 62.544677 
L 50.098352 64.560083 
L 50.350022 66.575489 
L 50.629765 68.590894 
L 50.944584 70.6063 
L 51.302285 72.621706 
L 51.711489 74.637112 
L 52.181449 76.652518 
L 52.721563 78.667924 
L 53.340524 80.68333 
L 54.045154 82.698736 
L 54.839043 84.714142 
L 55.72122 86.729548 
L 56.685079 88.744954 
L 57.717779 90.76036 
L 58.800232 92.775766 
L 59.907729 94.791172 
L 61.011121 96.806578 
L 62.078429 98.821984 
L 63.076704 100.83739 
L 63.973973 102.852795 
L 64.741105 104.868201 
L 65.353467 106.883607 
L 65.79229 108.899013 
L 66.045658 110.914419 
L 66.109091 112.929825 
L 65.985709 114.945231 
L 65.685987 116.960637 
L 65.227116 118.976043 
L 64.631991 120.991449 
L 63.927834 123.006855 
L 63.144473 125.022261 
L 62.312335 127.037667 
L 61.460278 129.053073 
L 60.613466 131.068479 
L 59.791562 133.083885 
L 59.00754 135.09929 
L 58.267347 137.114696 
L 57.570504 139.130102 
L 56.911569 141.145508 
L 56.282184 143.160914 
L 55.673314 145.17632 
L 55.077242 147.191726 
L 54.488991 149.207132 
L 53.906954 151.222538 
L 53.332731 153.237944 
L 52.770342 155.25335 
L 52.225058 157.268756 
L 51.702172 159.284162 
L 51.205968 161.299568 
L 50.739066 163.314974 
L 50.302212 165.33038 
L 49.894502 167.345786 
L 49.513898 169.361191 
L 49.157919 171.376597 
L 48.824307 173.392003 
L 48.511555 175.407409 
L 48.511555 175.407409 
" clip-path="url(#p8419286028)" style="fill: none; stroke: #000000; stroke-opacity: 0.3"/>
   </g>
   <g id="FillBetweenPolyCollection_5">
    <path d="M 49.317606 160.916263 
L 43.627849 160.916263 
L 43.307605 159.794116 
L 42.968065 158.671968 
L 42.606916 157.54982 
L 42.221156 156.427673 
L 41.807275 155.305525 
L 41.361557 154.183378 
L 40.880456 153.06123 
L 40.361031 151.939082 
L 39.801395 150.816935 
L 39.201129 149.694787 
L 38.56161 148.57264 
L 37.886215 147.450492 
L 37.180367 146.328344 
L 36.451407 145.206197 
L 35.708287 144.084049 
L 34.961123 142.961901 
L 34.220614 141.839754 
L 33.497414 140.717606 
L 32.801475 139.595459 
L 32.141453 138.473311 
L 31.524212 137.351163 
L 30.95447 136.229016 
L 30.434631 135.106868 
L 29.964801 133.98472 
L 29.542998 132.862573 
L 29.16553 131.740425 
L 28.827509 130.618278 
L 28.523461 129.49613 
L 28.247979 128.373982 
L 27.996367 127.251835 
L 27.765209 126.129687 
L 27.552836 125.007539 
L 27.35963 123.885392 
L 27.188139 122.763244 
L 27.043003 121.641097 
L 26.93067 120.518949 
L 26.858939 119.396801 
L 26.836364 118.274654 
L 26.871556 117.152506 
L 26.972463 116.030359 
L 27.145678 114.908211 
L 27.395834 113.786063 
L 27.725159 112.663916 
L 28.1332 111.541768 
L 28.616763 110.41962 
L 29.170048 109.297473 
L 29.784967 108.175325 
L 30.451609 107.053178 
L 31.158804 105.93103 
L 31.894723 104.808882 
L 32.64748 103.686735 
L 33.405668 102.564587 
L 34.158819 101.442439 
L 34.897736 100.320292 
L 35.614716 99.198144 
L 36.303652 98.075997 
L 36.960034 96.953849 
L 37.580861 95.831701 
L 38.164503 94.709554 
L 38.710521 93.587406 
L 39.219468 92.465259 
L 39.692705 91.343111 
L 40.132207 90.220963 
L 40.540405 89.098816 
L 40.920025 87.976668 
L 41.273952 86.85452 
L 41.605101 85.732373 
L 41.916285 84.610225 
L 42.210099 83.488078 
L 42.488806 82.36593 
L 42.754229 81.243782 
L 43.007674 80.121635 
L 43.249876 78.999487 
L 43.480976 77.877339 
L 43.700553 76.755192 
L 43.907691 75.633044 
L 44.101092 74.510897 
L 44.279223 73.388749 
L 44.440488 72.266601 
L 44.583404 71.144454 
L 44.706778 70.022306 
L 44.809856 68.900159 
L 44.892442 67.778011 
L 44.954972 66.655863 
L 44.99855 65.533716 
L 45.024927 64.411568 
L 45.036443 63.28942 
L 45.035937 62.167273 
L 45.026621 61.045125 
L 45.01194 59.922978 
L 44.995416 58.80083 
L 44.980492 57.678682 
L 44.970381 56.556535 
L 44.967924 55.434387 
L 44.975463 54.312239 
L 44.994746 53.190092 
L 45.026856 52.067944 
L 45.072175 50.945797 
L 45.130393 49.823649 
L 47.815062 49.823649 
L 47.815062 49.823649 
L 47.873279 50.945797 
L 47.918599 52.067944 
L 47.950708 53.190092 
L 47.969991 54.312239 
L 47.977531 55.434387 
L 47.975073 56.556535 
L 47.964963 57.678682 
L 47.950039 58.80083 
L 47.933514 59.922978 
L 47.918833 61.045125 
L 47.909517 62.167273 
L 47.909012 63.28942 
L 47.920528 64.411568 
L 47.946904 65.533716 
L 47.990482 66.655863 
L 48.053013 67.778011 
L 48.135599 68.900159 
L 48.238677 70.022306 
L 48.362051 71.144454 
L 48.504967 72.266601 
L 48.666231 73.388749 
L 48.844362 74.510897 
L 49.037763 75.633044 
L 49.244901 76.755192 
L 49.464479 77.877339 
L 49.695579 78.999487 
L 49.93778 80.121635 
L 50.191226 81.243782 
L 50.456649 82.36593 
L 50.735355 83.488078 
L 51.02917 84.610225 
L 51.340354 85.732373 
L 51.671502 86.85452 
L 52.02543 87.976668 
L 52.40505 89.098816 
L 52.813247 90.220963 
L 53.25275 91.343111 
L 53.725986 92.465259 
L 54.234934 93.587406 
L 54.780951 94.709554 
L 55.364594 95.831701 
L 55.985421 96.953849 
L 56.641803 98.075997 
L 57.330739 99.198144 
L 58.047719 100.320292 
L 58.786635 101.442439 
L 59.539786 102.564587 
L 60.297975 103.686735 
L 61.050731 104.808882 
L 61.78665 105.93103 
L 62.493845 107.053178 
L 63.160488 108.175325 
L 63.775406 109.297473 
L 64.328691 110.41962 
L 64.812255 111.541768 
L 65.220296 112.663916 
L 65.54962 113.786063 
L 65.799777 114.908211 
L 65.972991 116.030359 
L 66.073899 117.152506 
L 66.109091 118.274654 
L 66.086515 119.396801 
L 66.014785 120.518949 
L 65.902451 121.641097 
L 65.757315 122.763244 
L 65.585825 123.885392 
L 65.392618 125.007539 
L 65.180246 126.129687 
L 64.949088 127.251835 
L 64.697475 128.373982 
L 64.421994 129.49613 
L 64.117946 130.618278 
L 63.779924 131.740425 
L 63.402456 132.862573 
L 62.980654 133.98472 
L 62.510824 135.106868 
L 61.990984 136.229016 
L 61.421242 137.351163 
L 60.804001 138.473311 
L 60.14398 139.595459 
L 59.448041 140.717606 
L 58.72484 141.839754 
L 57.984332 142.961901 
L 57.237167 144.084049 
L 56.494048 145.206197 
L 55.765087 146.328344 
L 55.05924 147.450492 
L 54.383845 148.57264 
L 53.744326 149.694787 
L 53.14406 150.816935 
L 52.584424 151.939082 
L 52.064998 153.06123 
L 51.583897 154.183378 
L 51.138179 155.305525 
L 50.724299 156.427673 
L 50.338538 157.54982 
L 49.97739 158.671968 
L 49.637849 159.794116 
L 49.317606 160.916263 
L 49.317606 160.916263 
z
" clip-path="url(#p8419286028)" style="fill: none; stroke: #000000; stroke-opacity: 0.3"/>
   </g>
   <g id="FillBetweenPolyCollection_6">
    <path d="M 47.136472 194.695808 
L 45.808983 194.695808 
L 45.729252 193.068851 
L 45.632896 191.441894 
L 45.511945 189.814937 
L 45.357218 188.18798 
L 45.158885 186.561023 
L 44.907164 184.934066 
L 44.593072 183.307109 
L 44.209156 181.680152 
L 43.750155 180.053195 
L 43.213521 178.426238 
L 42.599775 176.799281 
L 41.91267 175.172324 
L 41.15916 173.545367 
L 40.349161 171.91841 
L 39.495133 170.291453 
L 38.611474 168.664496 
L 37.713751 167.037539 
L 36.817786 165.410582 
L 35.938639 163.783625 
L 35.089554 162.156668 
L 34.280971 160.529712 
L 33.51972 158.902755 
L 32.808549 157.275798 
L 32.146109 155.648841 
L 31.527492 154.021884 
L 30.945322 152.394927 
L 30.391332 150.76797 
L 29.858229 149.141013 
L 29.341577 147.514056 
L 28.841408 145.887099 
L 28.363242 144.260142 
L 27.918317 142.633185 
L 27.522919 141.006228 
L 27.196863 139.379271 
L 26.961331 137.752314 
L 26.836364 136.125357 
L 26.838381 134.4984 
L 26.978072 132.871443 
L 27.258934 131.244486 
L 27.676639 129.617529 
L 28.219237 127.990572 
L 28.868132 126.363615 
L 29.599647 124.736658 
L 30.386977 123.109701 
L 31.202305 121.482744 
L 32.018891 119.855787 
L 32.812964 118.22883 
L 33.565303 116.601873 
L 34.262386 114.974916 
L 34.897025 113.347959 
L 35.468436 111.721003 
L 35.981705 110.094046 
L 36.446695 108.467089 
L 36.87648 106.840132 
L 37.285482 105.213175 
L 37.687551 103.586218 
L 38.094224 101.959261 
L 38.513434 100.332304 
L 38.948835 98.705347 
L 39.399826 97.07839 
L 39.862229 95.451433 
L 40.329462 93.824476 
L 40.793952 92.197519 
L 41.248518 90.570562 
L 41.687454 88.943605 
L 42.107161 87.316648 
L 42.506243 85.689691 
L 42.885142 84.062734 
L 43.245446 82.435777 
L 43.589071 80.80882 
L 43.917514 79.181863 
L 44.231335 77.554906 
L 44.529938 75.927949 
L 44.811659 74.300992 
L 45.074107 72.674035 
L 45.314629 71.047078 
L 45.530812 69.420121 
L 45.720888 67.793164 
L 45.884006 66.166207 
L 46.020316 64.539251 
L 46.130894 62.912294 
L 46.217543 61.285337 
L 46.282518 59.65838 
L 46.328244 58.031423 
L 46.357078 56.404466 
L 46.371141 54.777509 
L 46.372248 53.150552 
L 46.361934 51.523595 
L 46.341567 49.896638 
L 46.312507 48.269681 
L 46.27628 46.642724 
L 46.234734 45.015767 
L 46.190118 43.38881 
L 46.145075 41.761853 
L 46.102529 40.134896 
L 46.065469 38.507939 
L 46.036674 36.880982 
L 46.01841 35.254025 
L 46.012163 33.627068 
L 46.933291 33.627068 
L 46.933291 33.627068 
L 46.927044 35.254025 
L 46.90878 36.880982 
L 46.879985 38.507939 
L 46.842925 40.134896 
L 46.800379 41.761853 
L 46.755337 43.38881 
L 46.710721 45.015767 
L 46.669175 46.642724 
L 46.632948 48.269681 
L 46.603887 49.896638 
L 46.58352 51.523595 
L 46.573207 53.150552 
L 46.574313 54.777509 
L 46.588376 56.404466 
L 46.617211 58.031423 
L 46.662937 59.65838 
L 46.727911 61.285337 
L 46.81456 62.912294 
L 46.925139 64.539251 
L 47.061449 66.166207 
L 47.224567 67.793164 
L 47.414643 69.420121 
L 47.630825 71.047078 
L 47.871348 72.674035 
L 48.133795 74.300992 
L 48.415517 75.927949 
L 48.714119 77.554906 
L 49.027941 79.181863 
L 49.356384 80.80882 
L 49.700008 82.435777 
L 50.060312 84.062734 
L 50.439211 85.689691 
L 50.838294 87.316648 
L 51.258 88.943605 
L 51.696937 90.570562 
L 52.151502 92.197519 
L 52.615993 93.824476 
L 53.083225 95.451433 
L 53.545628 97.07839 
L 53.996619 98.705347 
L 54.43202 100.332304 
L 54.85123 101.959261 
L 55.257903 103.586218 
L 55.659972 105.213175 
L 56.068975 106.840132 
L 56.498759 108.467089 
L 56.96375 110.094046 
L 57.477019 111.721003 
L 58.04843 113.347959 
L 58.683069 114.974916 
L 59.380152 116.601873 
L 60.132491 118.22883 
L 60.926564 119.855787 
L 61.743149 121.482744 
L 62.558478 123.109701 
L 63.345808 124.736658 
L 64.077323 126.363615 
L 64.726217 127.990572 
L 65.268816 129.617529 
L 65.686521 131.244486 
L 65.967383 132.871443 
L 66.107073 134.4984 
L 66.109091 136.125357 
L 65.984124 137.752314 
L 65.748591 139.379271 
L 65.422535 141.006228 
L 65.027137 142.633185 
L 64.582213 144.260142 
L 64.104047 145.887099 
L 63.603877 147.514056 
L 63.087226 149.141013 
L 62.554122 150.76797 
L 62.000133 152.394927 
L 61.417963 154.021884 
L 60.799345 155.648841 
L 60.136906 157.275798 
L 59.425734 158.902755 
L 58.664484 160.529712 
L 57.855901 162.156668 
L 57.006816 163.783625 
L 56.127668 165.410582 
L 55.231703 167.037539 
L 54.333981 168.664496 
L 53.450322 170.291453 
L 52.596293 171.91841 
L 51.786294 173.545367 
L 51.032784 175.172324 
L 50.34568 176.799281 
L 49.731934 178.426238 
L 49.1953 180.053195 
L 48.736299 181.680152 
L 48.352383 183.307109 
L 48.03829 184.934066 
L 47.78657 186.561023 
L 47.588237 188.18798 
L 47.433509 189.814937 
L 47.312559 191.441894 
L 47.216203 193.068851 
L 47.136472 194.695808 
L 47.136472 194.695808 
z
" clip-path="url(#p8419286028)" style="fill: none; stroke: #000000; stroke-opacity: 0.3"/>
   </g>
   <g id="FillBetweenPolyCollection_7">
    <path d="M 47.307775 199.189054 
L 45.63768 199.189054 
L 45.550347 197.434322 
L 45.464031 195.67959 
L 45.379336 193.924858 
L 45.296418 192.170127 
L 45.214836 190.415395 
L 45.133406 188.660663 
L 45.050079 186.905931 
L 44.961873 185.151199 
L 44.864874 183.396468 
L 44.754339 181.641736 
L 44.62487 179.887004 
L 44.470664 178.132272 
L 44.285774 176.37754 
L 44.064359 174.622809 
L 43.80087 172.868077 
L 43.490153 171.113345 
L 43.127479 169.358613 
L 42.708525 167.603882 
L 42.229342 165.84915 
L 41.686385 164.094418 
L 41.076631 162.339686 
L 40.397822 160.584954 
L 39.648844 158.830223 
L 38.830202 157.075491 
L 37.944559 155.320759 
L 36.997273 153.566027 
L 35.996851 151.811295 
L 34.955283 150.056564 
L 33.888173 148.301832 
L 32.814639 146.5471 
L 31.75695 144.792368 
L 30.739878 143.037637 
L 29.78977 141.282905 
L 28.933353 139.528173 
L 28.196339 137.773441 
L 27.601891 136.018709 
L 27.169093 134.263978 
L 26.91156 132.509246 
L 26.836364 130.754514 
L 26.943416 128.999782 
L 27.225431 127.24505 
L 27.668509 125.490319 
L 28.253294 123.735587 
L 28.956588 121.980855 
L 29.753203 120.226123 
L 30.617826 118.471391 
L 31.52664 116.71666 
L 32.458526 114.961928 
L 33.395725 113.207196 
L 34.323963 111.452464 
L 35.232108 109.697733 
L 36.111532 107.943001 
L 36.955357 106.188269 
L 37.757764 104.433537 
L 38.513512 102.678805 
L 39.217719 100.924074 
L 39.865914 99.169342 
L 40.454301 97.41461 
L 40.980125 95.659878 
L 41.442038 93.905146 
L 41.840375 92.150415 
L 42.17727 90.395683 
L 42.456595 88.640951 
L 42.683747 86.886219 
L 42.86531 85.131488 
L 43.008664 83.376756 
L 43.121594 81.622024 
L 43.21194 79.867292 
L 43.287321 78.11256 
L 43.354922 76.357829 
L 43.421349 74.603097 
L 43.492502 72.848365 
L 43.573462 71.093633 
L 43.668359 69.338901 
L 43.780215 67.58417 
L 43.910789 65.829438 
L 44.060439 64.074706 
L 44.228038 62.319974 
L 44.410996 60.565242 
L 44.605386 58.810511 
L 44.80621 57.055779 
L 45.00776 55.301047 
L 45.204059 53.546315 
L 45.38933 51.791584 
L 45.558426 50.036852 
L 45.707197 48.28212 
L 45.832743 46.527388 
L 45.933551 44.772656 
L 46.009516 43.017925 
L 46.06185 41.263193 
L 46.092921 39.508461 
L 46.106025 37.753729 
L 46.105121 35.998997 
L 46.09454 34.244266 
L 46.078694 32.489534 
L 46.061773 30.734802 
L 46.047483 28.98007 
L 46.038812 27.225339 
L 46.037864 25.470607 
L 46.907591 25.470607 
L 46.907591 25.470607 
L 46.906642 27.225339 
L 46.897971 28.98007 
L 46.883682 30.734802 
L 46.866761 32.489534 
L 46.850914 34.244266 
L 46.840334 35.998997 
L 46.839429 37.753729 
L 46.852534 39.508461 
L 46.883605 41.263193 
L 46.935939 43.017925 
L 47.011903 44.772656 
L 47.112712 46.527388 
L 47.238258 48.28212 
L 47.387028 50.036852 
L 47.556124 51.791584 
L 47.741395 53.546315 
L 47.937695 55.301047 
L 48.139244 57.055779 
L 48.340068 58.810511 
L 48.534459 60.565242 
L 48.717417 62.319974 
L 48.885016 64.074706 
L 49.034665 65.829438 
L 49.16524 67.58417 
L 49.277096 69.338901 
L 49.371992 71.093633 
L 49.452953 72.848365 
L 49.524106 74.603097 
L 49.590532 76.357829 
L 49.658134 78.11256 
L 49.733514 79.867292 
L 49.823861 81.622024 
L 49.936791 83.376756 
L 50.080145 85.131488 
L 50.261708 86.886219 
L 50.48886 88.640951 
L 50.768185 90.395683 
L 51.105079 92.150415 
L 51.503416 93.905146 
L 51.965329 95.659878 
L 52.491153 97.41461 
L 53.079541 99.169342 
L 53.727736 100.924074 
L 54.431942 102.678805 
L 55.187691 104.433537 
L 55.990098 106.188269 
L 56.833922 107.943001 
L 57.713346 109.697733 
L 58.621491 111.452464 
L 59.549729 113.207196 
L 60.486929 114.961928 
L 61.418814 116.71666 
L 62.327629 118.471391 
L 63.192252 120.226123 
L 63.988867 121.980855 
L 64.692161 123.735587 
L 65.276945 125.490319 
L 65.720023 127.24505 
L 66.002038 128.999782 
L 66.109091 130.754514 
L 66.033895 132.509246 
L 65.776362 134.263978 
L 65.343563 136.018709 
L 64.749115 137.773441 
L 64.012101 139.528173 
L 63.155685 141.282905 
L 62.205576 143.037637 
L 61.188504 144.792368 
L 60.130815 146.5471 
L 59.057281 148.301832 
L 57.990171 150.056564 
L 56.948604 151.811295 
L 55.948182 153.566027 
L 55.000895 155.320759 
L 54.115253 157.075491 
L 53.29661 158.830223 
L 52.547632 160.584954 
L 51.868824 162.339686 
L 51.259069 164.094418 
L 50.716113 165.84915 
L 50.23693 167.603882 
L 49.817975 169.358613 
L 49.455302 171.113345 
L 49.144584 172.868077 
L 48.881095 174.622809 
L 48.659681 176.37754 
L 48.474791 178.132272 
L 48.320584 179.887004 
L 48.191115 181.641736 
L 48.08058 183.396468 
L 47.983582 185.151199 
L 47.895376 186.905931 
L 47.812049 188.660663 
L 47.730619 190.415395 
L 47.649037 192.170127 
L 47.566119 193.924858 
L 47.481424 195.67959 
L 47.395107 197.434322 
L 47.307775 199.189054 
L 47.307775 199.189054 
z
" clip-path="url(#p8419286028)" style="fill: none; stroke: #000000; stroke-opacity: 0.3"/>
   </g>
   <g id="FillBetweenPolyCollection_8">
    <path d="M 112.189764 193.684205 
L 111.664781 193.684205 
L 111.655945 192.202954 
L 111.649451 190.721703 
L 111.643184 189.240452 
L 111.634573 187.759202 
L 111.620902 186.277951 
L 111.599626 184.7967 
L 111.568619 183.315449 
L 111.526285 181.834199 
L 111.471502 180.352948 
L 111.403404 178.871697 
L 111.321055 177.390446 
L 111.22308 175.909196 
L 111.10736 174.427945 
L 110.970875 172.946694 
L 110.80974 171.465443 
L 110.61947 169.984193 
L 110.395416 168.502942 
L 110.133315 167.021691 
L 109.829839 165.54044 
L 109.483064 164.059189 
L 109.092756 162.577939 
L 108.660435 161.096688 
L 108.189195 159.615437 
L 107.683276 158.134186 
L 107.147442 156.652936 
L 106.586201 155.171685 
L 106.002964 153.690434 
L 105.399252 152.209183 
L 104.774078 150.727933 
L 104.123681 149.246682 
L 103.441735 147.765431 
L 102.720136 146.28418 
L 101.950397 144.80293 
L 101.125536 143.321679 
L 100.242263 141.840428 
L 99.303134 140.359177 
L 98.318315 138.877927 
L 97.306576 137.396676 
L 96.295237 135.915425 
L 95.318906 134.434174 
L 94.417052 132.952924 
L 93.630616 131.471673 
L 92.99806 129.990422 
L 92.55136 128.509171 
L 92.312491 127.027921 
L 92.290909 125.54667 
L 92.482413 124.065419 
L 92.869567 122.584168 
L 93.423623 121.102918 
L 94.107676 119.621667 
L 94.880554 118.140416 
L 95.700896 116.659165 
L 96.530854 115.177914 
L 97.33895 113.696664 
L 98.101849 112.215413 
L 98.804968 110.734162 
L 99.442077 109.252911 
L 100.014137 107.771661 
L 100.52771 106.29041 
L 100.993222 104.809159 
L 101.423313 103.327908 
L 101.831397 101.846658 
L 102.230483 100.365407 
L 102.632236 98.884156 
L 103.046239 97.402905 
L 103.479395 95.921655 
L 103.935483 94.440404 
L 104.414852 92.959153 
L 104.914336 91.477902 
L 105.42745 89.996652 
L 105.944924 88.515401 
L 106.455595 87.03415 
L 106.947587 85.552899 
L 107.409638 84.071649 
L 107.832362 82.590398 
L 108.209235 81.109147 
L 108.537131 79.627896 
L 108.816322 78.146646 
L 109.049989 76.665395 
L 109.243383 75.184144 
L 109.402863 73.702893 
L 109.534992 72.221642 
L 109.645884 70.740392 
L 109.740831 69.259141 
L 109.824214 67.77789 
L 109.899588 66.296639 
L 109.969844 64.815389 
L 110.037358 63.334138 
L 110.10408 61.852887 
L 110.171583 60.371636 
L 110.24109 58.890386 
L 110.313526 57.409135 
L 110.389598 55.927884 
L 110.469886 54.446633 
L 110.554907 52.965383 
L 110.645101 51.484132 
L 110.740734 50.002881 
L 110.841725 48.52163 
L 110.947458 47.04038 
L 112.907088 47.04038 
L 112.907088 47.04038 
L 113.012821 48.52163 
L 113.113811 50.002881 
L 113.209444 51.484132 
L 113.299639 52.965383 
L 113.38466 54.446633 
L 113.464948 55.927884 
L 113.541019 57.409135 
L 113.613455 58.890386 
L 113.682963 60.371636 
L 113.750466 61.852887 
L 113.817188 63.334138 
L 113.884701 64.815389 
L 113.954957 66.296639 
L 114.030331 67.77789 
L 114.113714 69.259141 
L 114.208662 70.740392 
L 114.319553 72.221642 
L 114.451683 73.702893 
L 114.611162 75.184144 
L 114.804557 76.665395 
L 115.038223 78.146646 
L 115.317415 79.627896 
L 115.645311 81.109147 
L 116.022184 82.590398 
L 116.444907 84.071649 
L 116.906958 85.552899 
L 117.398951 87.03415 
L 117.909622 88.515401 
L 118.427095 89.996652 
L 118.940209 91.477902 
L 119.439693 92.959153 
L 119.919062 94.440404 
L 120.37515 95.921655 
L 120.808307 97.402905 
L 121.222309 98.884156 
L 121.624063 100.365407 
L 122.023149 101.846658 
L 122.431232 103.327908 
L 122.861323 104.809159 
L 123.326835 106.29041 
L 123.840408 107.771661 
L 124.412468 109.252911 
L 125.049577 110.734162 
L 125.752696 112.215413 
L 126.515595 113.696664 
L 127.323691 115.177914 
L 128.153649 116.659165 
L 128.973992 118.140416 
L 129.746869 119.621667 
L 130.430922 121.102918 
L 130.984979 122.584168 
L 131.372132 124.065419 
L 131.563636 125.54667 
L 131.542054 127.027921 
L 131.303185 128.509171 
L 130.856485 129.990422 
L 130.223929 131.471673 
L 129.437493 132.952924 
L 128.53564 134.434174 
L 127.559309 135.915425 
L 126.547969 137.396676 
L 125.53623 138.877927 
L 124.551411 140.359177 
L 123.612283 141.840428 
L 122.72901 143.321679 
L 121.904149 144.80293 
L 121.134409 146.28418 
L 120.41281 147.765431 
L 119.730864 149.246682 
L 119.080468 150.727933 
L 118.455294 152.209183 
L 117.851581 153.690434 
L 117.268345 155.171685 
L 116.707104 156.652936 
L 116.17127 158.134186 
L 115.665351 159.615437 
L 115.19411 161.096688 
L 114.761789 162.577939 
L 114.371481 164.059189 
L 114.024706 165.54044 
L 113.721231 167.021691 
L 113.459129 168.502942 
L 113.235076 169.984193 
L 113.044806 171.465443 
L 112.883671 172.946694 
L 112.747185 174.427945 
L 112.631466 175.909196 
L 112.53349 177.390446 
L 112.451141 178.871697 
L 112.383044 180.352948 
L 112.32826 181.834199 
L 112.285926 183.315449 
L 112.25492 184.7967 
L 112.233643 186.277951 
L 112.219972 187.759202 
L 112.211361 189.240452 
L 112.205095 190.721703 
L 112.1986 192.202954 
L 112.189764 193.684205 
L 112.189764 193.684205 
z
" clip-path="url(#p8419286028)" style="fill: none; stroke: #000000; stroke-opacity: 0.3"/>
   </g>
   <g id="FillBetweenPolyCollection_9">
    <path d="M 113.154341 173.010073 
L 110.700204 173.010073 
L 110.524337 171.755939 
L 110.327506 170.501804 
L 110.105761 169.24767 
L 109.854519 167.993536 
L 109.568681 166.739402 
L 109.242795 165.485268 
L 108.871263 164.231134 
L 108.448604 162.976999 
L 107.96977 161.722865 
L 107.430521 160.468731 
L 106.827851 159.214597 
L 106.160438 157.960463 
L 105.429089 156.706328 
L 104.637114 155.452194 
L 103.790579 154.19806 
L 102.898358 152.943926 
L 101.971964 151.689792 
L 101.025102 150.435658 
L 100.072995 149.181523 
L 99.131514 147.927389 
L 98.216223 146.673255 
L 97.341435 145.419121 
L 96.51943 144.164987 
L 95.75992 142.910853 
L 95.069849 141.656718 
L 94.453536 140.402584 
L 93.913147 139.14845 
L 93.449377 137.894316 
L 93.06224 136.640182 
L 92.751793 135.386047 
L 92.518673 134.131913 
L 92.364329 132.877779 
L 92.290909 131.623645 
L 92.300798 130.369511 
L 92.395913 129.115377 
L 92.576861 127.861242 
L 92.842135 126.607108 
L 93.187497 125.352974 
L 93.605688 124.09884 
L 94.086532 122.844706 
L 94.617445 121.590571 
L 95.184289 120.336437 
L 95.772456 119.082303 
L 96.368015 117.828169 
L 96.958759 116.574035 
L 97.535021 115.319901 
L 98.090127 114.065766 
L 98.620476 112.811632 
L 99.125241 111.557498 
L 99.605783 110.303364 
L 100.064887 109.04923 
L 100.505935 107.795095 
L 100.932169 106.540961 
L 101.346113 105.286827 
L 101.749227 104.032693 
L 102.141811 102.778559 
L 102.523133 101.524425 
L 102.89172 100.27029 
L 103.245756 99.016156 
L 103.583493 97.762022 
L 103.90362 96.507888 
L 104.205521 95.253754 
L 104.489413 93.999619 
L 104.75634 92.745485 
L 105.00806 91.491351 
L 105.246846 90.237217 
L 105.475254 88.983083 
L 105.695901 87.728949 
L 105.911284 86.474814 
L 106.123672 85.22068 
L 106.335049 83.966546 
L 106.547125 82.712412 
L 106.761355 81.458278 
L 106.978956 80.204143 
L 107.200895 78.950009 
L 107.427817 77.695875 
L 107.659948 76.441741 
L 107.896958 75.187607 
L 108.137844 73.933473 
L 108.380861 72.679338 
L 108.623522 71.425204 
L 108.862712 70.17107 
L 109.094897 68.916936 
L 109.31642 67.662802 
L 109.523854 66.408668 
L 109.714356 65.154533 
L 109.88598 63.900399 
L 110.037895 62.646265 
L 110.170488 61.392131 
L 110.285319 60.137997 
L 110.384953 58.883862 
L 110.472674 57.629728 
L 110.552131 56.375594 
L 110.626966 55.12146 
L 110.700456 53.867326 
L 110.775227 52.613192 
L 110.853057 51.359057 
L 110.934796 50.104923 
L 111.020378 48.850789 
L 112.834167 48.850789 
L 112.834167 48.850789 
L 112.91975 50.104923 
L 113.001488 51.359057 
L 113.079319 52.613192 
L 113.15409 53.867326 
L 113.22758 55.12146 
L 113.302415 56.375594 
L 113.381872 57.629728 
L 113.469592 58.883862 
L 113.569226 60.137997 
L 113.684058 61.392131 
L 113.816651 62.646265 
L 113.968566 63.900399 
L 114.140189 65.154533 
L 114.330692 66.408668 
L 114.538126 67.662802 
L 114.759649 68.916936 
L 114.991833 70.17107 
L 115.231024 71.425204 
L 115.473685 72.679338 
L 115.716701 73.933473 
L 115.957588 75.187607 
L 116.194598 76.441741 
L 116.426728 77.695875 
L 116.653651 78.950009 
L 116.875589 80.204143 
L 117.093191 81.458278 
L 117.30742 82.712412 
L 117.519496 83.966546 
L 117.730874 85.22068 
L 117.943261 86.474814 
L 118.158645 87.728949 
L 118.379291 88.983083 
L 118.607699 90.237217 
L 118.846486 91.491351 
L 119.098206 92.745485 
L 119.365133 93.999619 
L 119.649024 95.253754 
L 119.950925 96.507888 
L 120.271052 97.762022 
L 120.60879 99.016156 
L 120.962826 100.27029 
L 121.331413 101.524425 
L 121.712734 102.778559 
L 122.105319 104.032693 
L 122.508433 105.286827 
L 122.922376 106.540961 
L 123.34861 107.795095 
L 123.789659 109.04923 
L 124.248762 110.303364 
L 124.729305 111.557498 
L 125.23407 112.811632 
L 125.764418 114.065766 
L 126.319524 115.319901 
L 126.895786 116.574035 
L 127.486531 117.828169 
L 128.082089 119.082303 
L 128.670257 120.336437 
L 129.237101 121.590571 
L 129.768013 122.844706 
L 130.248857 124.09884 
L 130.667049 125.352974 
L 131.012411 126.607108 
L 131.277684 127.861242 
L 131.458632 129.115377 
L 131.553747 130.369511 
L 131.563636 131.623645 
L 131.490216 132.877779 
L 131.335873 134.131913 
L 131.102753 135.386047 
L 130.792305 136.640182 
L 130.405168 137.894316 
L 129.941398 139.14845 
L 129.401009 140.402584 
L 128.784696 141.656718 
L 128.094625 142.910853 
L 127.335116 144.164987 
L 126.513111 145.419121 
L 125.638323 146.673255 
L 124.723031 147.927389 
L 123.781551 149.181523 
L 122.829444 150.435658 
L 121.882582 151.689792 
L 120.956187 152.943926 
L 120.063967 154.19806 
L 119.217431 155.452194 
L 118.425456 156.706328 
L 117.694107 157.960463 
L 117.026695 159.214597 
L 116.424024 160.468731 
L 115.884776 161.722865 
L 115.405942 162.976999 
L 114.983283 164.231134 
L 114.611751 165.485268 
L 114.285865 166.739402 
L 114.000027 167.993536 
L 113.748785 169.24767 
L 113.52704 170.501804 
L 113.330209 171.755939 
L 113.154341 173.010073 
L 113.154341 173.010073 
z
" clip-path="url(#p8419286028)" style="fill: none; stroke: #000000; stroke-opacity: 0.3"/>
   </g>
   <g id="FillBetweenPolyCollection_10">
    <path d="M 112.228492 190.090688 
L 111.626053 190.090688 
L 111.616945 188.720018 
L 111.608564 187.349348 
L 111.598636 185.978677 
L 111.584243 184.608007 
L 111.561943 183.237337 
L 111.527929 181.866666 
L 111.478229 180.495996 
L 111.408911 179.125326 
L 111.31629 177.754655 
L 111.1971 176.383985 
L 111.048617 175.013315 
L 110.868731 173.642644 
L 110.655942 172.271974 
L 110.409297 170.901304 
L 110.128286 169.530633 
L 109.812713 168.159963 
L 109.462566 166.789293 
L 109.077936 165.418622 
L 108.658974 164.047952 
L 108.205922 162.677282 
L 107.719182 161.306612 
L 107.199416 159.935941 
L 106.647627 158.565271 
L 106.065184 157.194601 
L 105.453778 155.82393 
L 104.815273 154.45326 
L 104.151507 153.08259 
L 103.464065 151.711919 
L 102.754104 150.341249 
L 102.022306 148.970579 
L 101.269015 147.599908 
L 100.494605 146.229238 
L 99.700068 144.858568 
L 98.887769 143.487897 
L 98.062271 142.117227 
L 97.23111 140.746557 
L 96.405366 139.375886 
L 95.599912 138.005216 
L 94.833239 136.634546 
L 94.126807 135.263875 
L 93.503943 133.893205 
L 92.988353 132.522535 
L 92.60238 131.151864 
L 92.365164 129.781194 
L 92.290909 128.410524 
L 92.387414 127.039853 
L 92.655056 125.669183 
L 93.086326 124.298513 
L 93.666002 122.927842 
L 94.371958 121.557172 
L 95.17656 120.186502 
L 96.048517 118.815831 
L 96.955034 117.445161 
L 97.864055 116.074491 
L 98.746381 114.70382 
L 99.577472 113.33315 
L 100.33876 111.96248 
L 101.018374 110.591809 
L 101.611251 109.221139 
L 102.118648 107.850469 
L 102.547188 106.479798 
L 102.907551 105.109128 
L 103.212994 103.738458 
L 103.477865 102.367787 
L 103.716228 100.997117 
L 103.940733 99.626447 
L 104.161761 98.255776 
L 104.386888 96.885106 
L 104.620654 95.514436 
L 104.864601 94.143765 
L 105.117563 92.773095 
L 105.376137 91.402425 
L 105.635316 90.031755 
L 105.889206 88.661084 
L 106.131788 87.290414 
L 106.357642 85.919744 
L 106.562576 84.549073 
L 106.74409 83.178403 
L 106.901624 81.807733 
L 107.036578 80.437062 
L 107.152096 79.066392 
L 107.252676 77.695722 
L 107.343655 76.325051 
L 107.430668 74.954381 
L 107.519143 73.583711 
L 107.613908 72.21304 
L 107.718939 70.84237 
L 107.837242 69.4717 
L 107.970866 68.101029 
L 108.120978 66.730359 
L 108.287973 65.359689 
L 108.471565 63.989018 
L 108.670846 62.618348 
L 108.884302 61.247678 
L 109.109809 59.877007 
L 109.34464 58.506337 
L 109.585497 57.135667 
L 109.828606 55.764996 
L 110.069875 54.394326 
L 113.78467 54.394326 
L 113.78467 54.394326 
L 114.02594 55.764996 
L 114.269049 57.135667 
L 114.509905 58.506337 
L 114.744736 59.877007 
L 114.970244 61.247678 
L 115.183699 62.618348 
L 115.38298 63.989018 
L 115.566573 65.359689 
L 115.733568 66.730359 
L 115.88368 68.101029 
L 116.017304 69.4717 
L 116.135607 70.84237 
L 116.240637 72.21304 
L 116.335403 73.583711 
L 116.423878 74.954381 
L 116.51089 76.325051 
L 116.601869 77.695722 
L 116.702449 79.066392 
L 116.817967 80.437062 
L 116.952921 81.807733 
L 117.110456 83.178403 
L 117.29197 84.549073 
L 117.496904 85.919744 
L 117.722757 87.290414 
L 117.965339 88.661084 
L 118.219229 90.031755 
L 118.478408 91.402425 
L 118.736983 92.773095 
L 118.989944 94.143765 
L 119.233892 95.514436 
L 119.467657 96.885106 
L 119.692784 98.255776 
L 119.913812 99.626447 
L 120.138317 100.997117 
L 120.376681 102.367787 
L 120.641551 103.738458 
L 120.946995 105.109128 
L 121.307357 106.479798 
L 121.735898 107.850469 
L 122.243295 109.221139 
L 122.836171 110.591809 
L 123.515786 111.96248 
L 124.277073 113.33315 
L 125.108164 114.70382 
L 125.99049 116.074491 
L 126.899511 117.445161 
L 127.806028 118.815831 
L 128.677985 120.186502 
L 129.482587 121.557172 
L 130.188544 122.927842 
L 130.768219 124.298513 
L 131.199489 125.669183 
L 131.467131 127.039853 
L 131.563636 128.410524 
L 131.489381 129.781194 
L 131.252165 131.151864 
L 130.866192 132.522535 
L 130.350603 133.893205 
L 129.727738 135.263875 
L 129.021306 136.634546 
L 128.254633 138.005216 
L 127.449179 139.375886 
L 126.623436 140.746557 
L 125.792275 142.117227 
L 124.966777 143.487897 
L 124.154477 144.858568 
L 123.359941 146.229238 
L 122.585531 147.599908 
L 121.832239 148.970579 
L 121.100441 150.341249 
L 120.390481 151.711919 
L 119.703039 153.08259 
L 119.039273 154.45326 
L 118.400768 155.82393 
L 117.789361 157.194601 
L 117.206919 158.565271 
L 116.655129 159.935941 
L 116.135364 161.306612 
L 115.648624 162.677282 
L 115.195572 164.047952 
L 114.77661 165.418622 
L 114.391979 166.789293 
L 114.041833 168.159963 
L 113.726259 169.530633 
L 113.445249 170.901304 
L 113.198604 172.271974 
L 112.985814 173.642644 
L 112.805928 175.013315 
L 112.657446 176.383985 
L 112.538255 177.754655 
L 112.445634 179.125326 
L 112.376317 180.495996 
L 112.326616 181.866666 
L 112.292603 183.237337 
L 112.270302 184.608007 
L 112.25591 185.978677 
L 112.245981 187.349348 
L 112.237601 188.720018 
L 112.228492 190.090688 
L 112.228492 190.090688 
z
" clip-path="url(#p8419286028)" style="fill: none; stroke: #000000; stroke-opacity: 0.3"/>
   </g>
   <g id="FillBetweenPolyCollection_11">
    <path d="M 112.698536 170.602541 
L 111.156009 170.602541 
L 111.031644 169.182751 
L 110.890265 167.762962 
L 110.726257 166.343172 
L 110.532173 164.923382 
L 110.298708 163.503593 
L 110.01482 162.083803 
L 109.668023 160.664013 
L 109.244869 159.244223 
L 108.731666 157.824434 
L 108.115428 156.404644 
L 107.38507 154.984854 
L 106.532824 153.565064 
L 105.555807 152.145275 
L 104.457613 150.725485 
L 103.249718 149.305695 
L 101.952449 147.885905 
L 100.595188 146.466116 
L 99.215569 145.046326 
L 97.85749 143.626536 
L 96.567993 142.206747 
L 95.393285 140.786957 
L 94.374425 139.367167 
L 93.543326 137.947377 
L 92.91976 136.527588 
L 92.509875 135.107798 
L 92.306469 133.688008 
L 92.290909 132.268218 
L 92.436278 130.848429 
L 92.711129 129.428639 
L 93.08319 128.008849 
L 93.522483 126.58906 
L 94.003529 125.16927 
L 94.506583 123.74948 
L 95.017987 122.32969 
L 95.529897 120.909901 
L 96.039587 119.490111 
L 96.548503 118.070321 
L 97.06115 116.650531 
L 97.583852 115.230742 
L 98.12343 113.810952 
L 98.685862 112.391162 
L 99.275097 110.971373 
L 99.892158 109.551583 
L 100.534698 108.131793 
L 101.197063 106.712003 
L 101.870815 105.292214 
L 102.545574 103.872424 
L 103.209986 102.452634 
L 103.852646 101.032844 
L 104.462868 99.613055 
L 105.031298 98.193265 
L 105.550429 96.773475 
L 106.015087 95.353685 
L 106.422915 93.933896 
L 106.774792 92.514106 
L 107.075042 91.094316 
L 107.331262 89.674527 
L 107.553645 88.254737 
L 107.753788 86.834947 
L 107.943153 85.415157 
L 108.131454 83.995368 
L 108.325335 82.575578 
L 108.527656 81.155788 
L 108.737539 79.735998 
L 108.951188 78.316209 
L 109.163233 76.896419 
L 109.368275 75.476629 
L 109.562236 74.05684 
L 109.743221 72.63705 
L 109.911724 71.21726 
L 110.070216 69.79747 
L 110.222283 68.377681 
L 110.371588 66.957891 
L 110.520925 65.538101 
L 110.671576 64.118311 
L 110.823091 62.698522 
L 110.973448 61.278732 
L 111.11953 59.858942 
L 111.257743 58.439152 
L 111.384636 57.019363 
L 111.497388 55.599573 
L 111.594108 54.179783 
L 111.673912 52.759994 
L 111.736837 51.340204 
L 111.783616 49.920414 
L 111.815426 48.500624 
L 111.83365 47.080835 
L 111.83971 45.661045 
L 111.834996 44.241255 
L 111.820897 42.821465 
L 111.798895 41.401676 
L 111.770688 39.981886 
L 111.738298 38.562096 
L 111.7041 37.142307 
L 111.670756 35.722517 
L 111.641042 34.302727 
L 111.617583 32.882937 
L 111.602556 31.463148 
L 111.597405 30.043358 
L 112.257141 30.043358 
L 112.257141 30.043358 
L 112.251989 31.463148 
L 112.236962 32.882937 
L 112.213504 34.302727 
L 112.18379 35.722517 
L 112.150446 37.142307 
L 112.116248 38.562096 
L 112.083857 39.981886 
L 112.055651 41.401676 
L 112.033648 42.821465 
L 112.019549 44.241255 
L 112.014835 45.661045 
L 112.020895 47.080835 
L 112.039119 48.500624 
L 112.07093 49.920414 
L 112.117709 51.340204 
L 112.180633 52.759994 
L 112.260438 54.179783 
L 112.357157 55.599573 
L 112.469909 57.019363 
L 112.596802 58.439152 
L 112.735016 59.858942 
L 112.881098 61.278732 
L 113.031455 62.698522 
L 113.182969 64.118311 
L 113.333621 65.538101 
L 113.482957 66.957891 
L 113.632262 68.377681 
L 113.78433 69.79747 
L 113.942822 71.21726 
L 114.111325 72.63705 
L 114.292309 74.05684 
L 114.486271 75.476629 
L 114.691313 76.896419 
L 114.903358 78.316209 
L 115.117007 79.735998 
L 115.32689 81.155788 
L 115.52921 82.575578 
L 115.723092 83.995368 
L 115.911392 85.415157 
L 116.100757 86.834947 
L 116.3009 88.254737 
L 116.523283 89.674527 
L 116.779504 91.094316 
L 117.079754 92.514106 
L 117.431631 93.933896 
L 117.839458 95.353685 
L 118.304116 96.773475 
L 118.823247 98.193265 
L 119.391677 99.613055 
L 120.001899 101.032844 
L 120.64456 102.452634 
L 121.308972 103.872424 
L 121.98373 105.292214 
L 122.657482 106.712003 
L 123.319847 108.131793 
L 123.962388 109.551583 
L 124.579449 110.971373 
L 125.168684 112.391162 
L 125.731116 113.810952 
L 126.270693 115.230742 
L 126.793396 116.650531 
L 127.306042 118.070321 
L 127.814958 119.490111 
L 128.324649 120.909901 
L 128.836559 122.32969 
L 129.347963 123.74948 
L 129.851016 125.16927 
L 130.332063 126.58906 
L 130.771355 128.008849 
L 131.143416 129.428639 
L 131.418267 130.848429 
L 131.563636 132.268218 
L 131.548077 133.688008 
L 131.344671 135.107798 
L 130.934786 136.527588 
L 130.31122 137.947377 
L 129.480121 139.367167 
L 128.461261 140.786957 
L 127.286553 142.206747 
L 125.997056 143.626536 
L 124.638977 145.046326 
L 123.259357 146.466116 
L 121.902096 147.885905 
L 120.604827 149.305695 
L 119.396933 150.725485 
L 118.298738 152.145275 
L 117.321722 153.565064 
L 116.469475 154.984854 
L 115.739117 156.404644 
L 115.122879 157.824434 
L 114.609677 159.244223 
L 114.186523 160.664013 
L 113.839725 162.083803 
L 113.555838 163.503593 
L 113.322373 164.923382 
L 113.128289 166.343172 
L 112.964281 167.762962 
L 112.822901 169.182751 
L 112.698536 170.602541 
L 112.698536 170.602541 
z
" clip-path="url(#p8419286028)" style="fill: none; stroke: #000000; stroke-opacity: 0.3"/>
   </g>
   <g id="matplotlib.axis_1">
    <g id="xtick_1">
     <g id="line2d_1">
      <defs>
       <path id="m52cefa7a9d" d="M 0 0 
L 0 3.5 
" style="stroke: #000000; stroke-width: 0.8"/>
      </defs>
      <g>
       <use xlink:href="#m52cefa7a9d" x="46.472727" y="291.6" style="stroke: #000000; stroke-width: 0.8"/>
      </g>
     </g>
     <g id="text_1">
      <text style="font-size: 10px; font-family: 'DejaVu Sans', 'Bitstream Vera Sans', 'Computer Modern Sans Serif', 'Lucida Grande', 'Verdana', 'Geneva', 'Lucid', 'Arial', 'Helvetica', 'Avant Garde', sans-serif; text-anchor: middle" x="46.472727" y="306.198438" transform="rotate(-0 46.472727 306.198438)">0.3</text>
     </g>
    </g>
    <g id="xtick_2">
     <g id="line2d_2">
      <g>
       <use xlink:href="#m52cefa7a9d" x="111.927273" y="291.6" style="stroke: #000000; stroke-width: 0.8"/>
      </g>
     </g>
     <g id="text_2">
      <text style="font-size: 10px; font-family: 'DejaVu Sans', 'Bitstream Vera Sans', 'Computer Modern Sans Serif', 'Lucida Grande', 'Verdana', 'Geneva', 'Lucid', 'Arial', 'Helvetica', 'Avant Garde', sans-serif; text-anchor: middle" x="111.927273" y="306.198438" transform="rotate(-0 111.927273 306.198438)">0.6</text>
     </g>
    </g>
   </g>
   <g id="matplotlib.axis_2">
    <g id="ytick_1">
     <g id="line2d_3">
      <defs>
       <path id="mb02963cf42" d="M 0 0 
L -3.5 0 
" style="stroke: #000000; stroke-width: 0.8"/>
      </defs>
      <g>
       <use xlink:href="#mb02963cf42" x="21.6" y="291.6" style="stroke: #000000; stroke-width: 0.8"/>
      </g>
     </g>
    </g>
    <g id="ytick_2">
     <g id="line2d_4">
      <g>
       <use xlink:href="#mb02963cf42" x="21.6" y="199.8" style="stroke: #000000; stroke-width: 0.8"/>
      </g>
     </g>
    </g>
    <g id="ytick_3">
     <g id="line2d_5">
      <g>
       <use xlink:href="#mb02963cf42" x="21.6" y="108" style="stroke: #000000; stroke-width: 0.8"/>
      </g>
     </g>
    </g>
    <g id="ytick_4">
     <g id="line2d_6">
      <g>
       <use xlink:href="#mb02963cf42" x="21.6" y="16.2" style="stroke: #000000; stroke-width: 0.8"/>
      </g>
     </g>
    </g>
   </g>
   <g id="line2d_7">
    <path d="M 46.472727 269.568 
L 46.472727 264.06 
" clip-path="url(#p8419286028)" style="fill: none; stroke: #000000; stroke-linecap: square"/>
   </g>
   <g id="line2d_8">
    <path d="M 46.472727 269.568 
L 111.927273 269.568 
" clip-path="url(#p8419286028)" style="fill: none; stroke: #000000; stroke-linecap: square"/>
   </g>
   <g id="line2d_9">
    <path d="M 111.927273 269.568 
L 111.927273 264.06 
" clip-path="url(#p8419286028)" style="fill: none; stroke: #000000; stroke-linecap: square"/>
   </g>
   <g id="patch_3">
    <path d="M 21.6 291.6 
L 21.6 16.2 
" style="fill: none; stroke: #000000; stroke-width: 0.8; stroke-linejoin: miter; stroke-linecap: square"/>
   </g>
   <g id="patch_4">
    <path d="M 136.8 291.6 
L 136.8 16.2 
" style="fill: none; stroke: #000000; stroke-width: 0.8; stroke-linejoin: miter; stroke-linecap: square"/>
   </g>
   <g id="patch_5">
    <path d="M 21.6 291.6 
L 136.8 291.6 
" style="fill: none; stroke: #000000; stroke-width: 0.8; stroke-linejoin: miter; stroke-linecap: square"/>
   </g>
   <g id="patch_6">
    <path d="M 21.6 16.2 
L 136.8 16.2 
" style="fill: none; stroke: #000000; stroke-width: 0.8; stroke-linejoin: miter; stroke-linecap: square"/>
   </g>
   <g id="text_3">
    <text style="font-weight: 700; font-size: 12px; font-family: 'DejaVu Sans', 'Bitstream Vera Sans', 'Computer Modern Sans Serif', 'Lucida Grande', 'Verdana', 'Geneva', 'Lucid', 'Arial', 'Helvetica', 'Avant Garde', sans-serif; text-anchor: middle" x="46.472727" y="289.104375" transform="rotate(-0 46.472727 289.104375)">#9</text>
   </g>
   <g id="text_4">
    <text style="font-weight: 700; font-size: 12px; font-family: 'DejaVu Sans', 'Bitstream Vera Sans', 'Computer Modern Sans Serif', 'Lucida Grande', 'Verdana', 'Geneva', 'Lucid', 'Arial', 'Helvetica', 'Avant Garde', sans-serif; text-anchor: middle" x="111.927273" y="289.104375" transform="rotate(-0 111.927273 289.104375)">#23</text>
   </g>
   <g id="text_5">
    <text style="font-size: 12px; font-family: 'DejaVu Sans', 'Bitstream Vera Sans', 'Computer Modern Sans Serif', 'Lucida Grande', 'Verdana', 'Geneva', 'Lucid', 'Arial', 'Helvetica', 'Avant Garde', sans-serif; text-anchor: middle" x="79.2" y="268.449375" transform="rotate(-0 79.2 268.449375)">ns</text>
   </g>
   <g id="line2d_10">
    <path d="M 21.6 124.142867 
L 136.8 124.142867 
" clip-path="url(#p8419286028)" style="fill: none; stroke-dasharray: 3.7,1.6; stroke-dashoffset: 0; stroke: #808080; stroke-opacity: 0.7"/>
   </g>
   <g id="line2d_11">
    <path d="M 21.6 124.791502 
L 136.8 124.791502 
" clip-path="url(#p8419286028)" style="fill: none; stroke-dasharray: 3.7,1.6; stroke-dashoffset: 0; stroke: #808080; stroke-opacity: 0.7"/>
   </g>
   <g id="LineCollection_1">
    <path d="M 46.472727 131.270746 
L 46.472727 117.014988 
" clip-path="url(#p8419286028)" style="fill: none; stroke: #000000; stroke-width: 2"/>
   </g>
   <g id="line2d_12">
    <defs>
     <path id="mc3582e7c5c" d="M 5 0 
L -5 -0 
" style="stroke: #000000; stroke-width: 2"/>
    </defs>
    <g clip-path="url(#p8419286028)">
     <use xlink:href="#mc3582e7c5c" x="46.472727" y="131.270746" style="stroke: #000000; stroke-width: 2"/>
    </g>
   </g>
   <g id="line2d_13">
    <g clip-path="url(#p8419286028)">
     <use xlink:href="#mc3582e7c5c" x="46.472727" y="117.014988" style="stroke: #000000; stroke-width: 2"/>
    </g>
   </g>
   <g id="LineCollection_2">
    <path d="M 111.927273 125.978932 
L 111.927273 123.604073 
" clip-path="url(#p8419286028)" style="fill: none; stroke: #000000; stroke-width: 2"/>
   </g>
   <g id="line2d_14">
    <g clip-path="url(#p8419286028)">
     <use xlink:href="#mc3582e7c5c" x="111.927273" y="125.978932" style="stroke: #000000; stroke-width: 2"/>
    </g>
   </g>
   <g id="line2d_15">
    <g clip-path="url(#p8419286028)">
     <use xlink:href="#mc3582e7c5c" x="111.927273" y="123.604073" style="stroke: #000000; stroke-width: 2"/>
    </g>
   </g>
   <g id="line2d_16">
    <defs>
     <path id="m6b964ff0e1" d="M 0 4 
C 1.060812 4 2.078319 3.578535 2.828427 2.828427 
C 3.578535 2.078319 4 1.060812 4 0 
C 4 -1.060812 3.578535 -2.078319 2.828427 -2.828427 
C 2.078319 -3.578535 1.060812 -4 0 -4 
C -1.060812 -4 -2.078319 -3.578535 -2.828427 -2.828427 
C -3.578535 -2.078319 -4 -1.060812 -4 0 
C -4 1.060812 -3.578535 2.078319 -2.828427 2.828427 
C -2.078319 3.578535 -1.060812 4 0 4 
z
" style="stroke: #000000"/>
    </defs>
    <g clip-path="url(#p8419286028)">
     <use xlink:href="#m6b964ff0e1" x="46.472727" y="124.142867" style="stroke: #000000"/>
    </g>
   </g>
   <g id="line2d_17">
    <g clip-path="url(#p8419286028)">
     <use xlink:href="#m6b964ff0e1" x="111.927273" y="124.791502" style="stroke: #000000"/>
    </g>
   </g>
  </g>
 </g>
 <defs>
  <clipPath id="p8419286028">
   <rect x="21.6" y="16.2" width="115.2" height="275.4"/>
  </clipPath>
 </defs>
</svg>
