<?xml version="1.0" encoding="utf-8" standalone="no"?>
<!DOCTYPE svg PUBLIC "-//W3C//DTD SVG 1.1//EN"
  "http://www.w3.org/Graphics/SVG/1.1/DTD/svg11.dtd">
<svg xmlns:xlink="http://www.w3.org/1999/xlink" width="144pt" height="324pt" viewBox="0 0 144 324" xmlns="http://www.w3.org/2000/svg" version="1.1">
 <metadata>
  <rdf:RDF xmlns:dc="http://purl.org/dc/elements/1.1/" xmlns:cc="http://creativecommons.org/ns#" xmlns:rdf="http://www.w3.org/1999/02/22-rdf-syntax-ns#">
   <cc:Work>
    <dc:type rdf:resource="http://purl.org/dc/dcmitype/StillImage"/>
    <dc:date>2025-12-11T09:10:01.575145</dc:date>
    <dc:format>image/svg+xml</dc:format>
    <dc:creator>
     <cc:Agent>
      <dc:title>Matplotlib v3.10.0, https://matplotlib.org/</dc:title>
     </cc:Agent>
    </dc:creator>
   </cc:Work>
  </rdf:RDF>
 </metadata>
 <defs>
  <style type="text/css">*{stroke-linejoin: round; stroke-linecap: butt}</style>
 </defs>
 <g id="figure_1">
  <g id="patch_1">
   <path d="M 0 324 
L 144 324 
L 144 0 
L 0 0 
z
" style="fill: #ffffff"/>
  </g>
  <g id="axes_1">
   <g id="patch_2">
    <path d="M 21.6 291.6 
L 136.8 291.6 
L 136.8 16.2 
L 21.6 16.2 
z
" style="fill: #ffffff"/>
   </g>
   <g id="FillBetweenPolyCollection_1">
    <path d="M 50.597185 209.587117 
L 50.202815 209.587117 
L 50.202672 207.728848 
L 50.208997 205.870579 
L 50.218005 204.01231 
L 50.22506 202.154041 
L 50.225817 200.295771 
L 50.217303 198.437502 
L 50.198618 196.579233 
L 50.171069 194.720964 
L 50.137728 192.862695 
L 50.102523 191.004426 
L 50.069095 189.146157 
L 50.039664 187.287887 
L 50.014151 185.429618 
L 49.989756 183.571349 
L 49.96111 181.71308 
L 49.921034 179.854811 
L 49.861781 177.996542 
L 49.776484 176.138272 
L 49.660368 174.280003 
L 49.511292 172.421734 
L 49.329311 170.563465 
L 49.115306 168.705196 
L 48.869131 166.846927 
L 48.588035 164.988658 
L 48.266187 163.130388 
L 47.895769 161.272119 
L 47.469554 159.41385 
L 46.984111 157.555581 
L 46.442402 155.697312 
L 45.854576 153.839043 
L 45.236396 151.980773 
L 44.605674 150.122504 
L 43.977898 148.264235 
L 43.362476 146.405966 
L 42.760678 144.547697 
L 42.165554 142.689428 
L 41.563483 140.831159 
L 40.936706 138.972889 
L 40.266405 137.11462 
L 39.536244 135.256351 
L 38.736405 133.398082 
L 37.867948 131.539813 
L 36.94682 129.681544 
L 36.006437 127.823274 
L 35.097662 125.965005 
L 34.285368 124.106736 
L 33.641404 122.248467 
L 33.234689 120.390198 
L 33.12 118.531929 
L 33.327757 116.67366 
L 33.857313 114.81539 
L 34.675743 112.957121 
L 35.722838 111.098852 
L 36.921273 109.240583 
L 38.189376 107.382314 
L 39.453273 105.524045 
L 40.655634 103.665775 
L 41.75962 101.807506 
L 42.748209 99.949237 
L 43.620341 98.090968 
L 44.385704 96.232699 
L 45.059748 94.37443 
L 45.659744 92.516161 
L 46.202039 90.657891 
L 46.700205 88.799622 
L 47.163754 86.941353 
L 47.597316 85.083084 
L 48.000505 83.224815 
L 48.368741 81.366546 
L 48.695149 79.508276 
L 48.973203 77.650007 
L 49.199384 75.791738 
L 49.37499 73.933469 
L 49.506422 72.0752 
L 49.603859 70.216931 
L 49.678765 68.358662 
L 49.741136 66.500392 
L 49.797396 64.642123 
L 49.849619 62.783854 
L 49.896219 60.925585 
L 49.933782 59.067316 
L 49.959336 57.209047 
L 49.972265 55.350777 
L 49.975214 53.492508 
L 49.973696 51.634239 
L 49.974577 49.77597 
L 49.983991 47.917701 
L 50.005457 46.059432 
L 50.038832 44.201163 
L 50.08044 42.342893 
L 50.124265 40.484624 
L 50.163759 38.626355 
L 50.193657 36.768086 
L 50.211289 34.909817 
L 50.217078 33.051548 
L 50.21419 31.193278 
L 50.207517 29.335009 
L 50.202316 27.47674 
L 50.202892 25.618471 
L 50.597108 25.618471 
L 50.597108 25.618471 
L 50.597684 27.47674 
L 50.592483 29.335009 
L 50.58581 31.193278 
L 50.582922 33.051548 
L 50.588711 34.909817 
L 50.606343 36.768086 
L 50.636241 38.626355 
L 50.675735 40.484624 
L 50.71956 42.342893 
L 50.761168 44.201163 
L 50.794543 46.059432 
L 50.816009 47.917701 
L 50.825423 49.77597 
L 50.826304 51.634239 
L 50.824786 53.492508 
L 50.827735 55.350777 
L 50.840664 57.209047 
L 50.866218 59.067316 
L 50.903781 60.925585 
L 50.950381 62.783854 
L 51.002604 64.642123 
L 51.058864 66.500392 
L 51.121235 68.358662 
L 51.196141 70.216931 
L 51.293578 72.0752 
L 51.42501 73.933469 
L 51.600616 75.791738 
L 51.826797 77.650007 
L 52.104851 79.508276 
L 52.431259 81.366546 
L 52.799495 83.224815 
L 53.202684 85.083084 
L 53.636246 86.941353 
L 54.099795 88.799622 
L 54.597961 90.657891 
L 55.140256 92.516161 
L 55.740252 94.37443 
L 56.414296 96.232699 
L 57.179659 98.090968 
L 58.051791 99.949237 
L 59.04038 101.807506 
L 60.144366 103.665775 
L 61.346727 105.524045 
L 62.610624 107.382314 
L 63.878727 109.240583 
L 65.077162 111.098852 
L 66.124257 112.957121 
L 66.942687 114.81539 
L 67.472243 116.67366 
L 67.68 118.531929 
L 67.565311 120.390198 
L 67.158596 122.248467 
L 66.514632 124.106736 
L 65.702338 125.965005 
L 64.793563 127.823274 
L 63.85318 129.681544 
L 62.932052 131.539813 
L 62.063595 133.398082 
L 61.263756 135.256351 
L 60.533595 137.11462 
L 59.863294 138.972889 
L 59.236517 140.831159 
L 58.634446 142.689428 
L 58.039322 144.547697 
L 57.437524 146.405966 
L 56.822102 148.264235 
L 56.194326 150.122504 
L 55.563604 151.980773 
L 54.945424 153.839043 
L 54.357598 155.697312 
L 53.815889 157.555581 
L 53.330446 159.41385 
L 52.904231 161.272119 
L 52.533813 163.130388 
L 52.211965 164.988658 
L 51.930869 166.846927 
L 51.684694 168.705196 
L 51.470689 170.563465 
L 51.288708 172.421734 
L 51.139632 174.280003 
L 51.023516 176.138272 
L 50.938219 177.996542 
L 50.878966 179.854811 
L 50.83889 181.71308 
L 50.810244 183.571349 
L 50.785849 185.429618 
L 50.760336 187.287887 
L 50.730905 189.146157 
L 50.697477 191.004426 
L 50.662272 192.862695 
L 50.628931 194.720964 
L 50.601382 196.579233 
L 50.582697 198.437502 
L 50.574183 200.295771 
L 50.57494 202.154041 
L 50.581995 204.01231 
L 50.591003 205.870579 
L 50.597328 207.728848 
L 50.597185 209.587117 
L 50.597185 209.587117 
z
" clip-path="url(#pb5004b5de1)" style="fill: none; stroke: #000000; stroke-opacity: 0.3"/>
   </g>
   <g id="FillBetweenPolyCollection_2">
    <path d="M 50.943723 186.279834 
L 49.856277 186.279834 
L 49.81146 184.45325 
L 49.771792 182.626666 
L 49.734838 180.800082 
L 49.69603 178.973498 
L 49.648438 177.146914 
L 49.582674 175.32033 
L 49.486996 173.493746 
L 49.347686 171.667162 
L 49.149761 169.840578 
L 48.87804 168.013994 
L 48.518558 166.18741 
L 48.060204 164.360826 
L 47.496447 162.534242 
L 46.826887 160.707658 
L 46.058354 158.881074 
L 45.205232 157.05449 
L 44.288747 155.227906 
L 43.335074 153.401322 
L 42.372381 151.574738 
L 41.427192 149.748154 
L 40.520744 147.92157 
L 39.666165 146.094986 
L 38.867259 144.268402 
L 38.119374 142.441818 
L 37.412325 140.615234 
L 36.734806 138.78865 
L 36.07922 136.962066 
L 35.445681 135.135482 
L 34.844098 133.308898 
L 34.293738 131.482315 
L 33.820369 129.655731 
L 33.451713 127.829147 
L 33.212443 126.002563 
L 33.12 124.175979 
L 33.182215 122.349395 
L 33.397148 120.522811 
L 33.754896 118.696227 
L 34.240579 116.869643 
L 34.837489 115.043059 
L 35.529501 113.216475 
L 36.302182 111.389891 
L 37.142581 109.563307 
L 38.038094 107.736723 
L 38.975046 105.910139 
L 39.937654 104.083555 
L 40.907807 102.256971 
L 41.865792 100.430387 
L 42.791767 98.603803 
L 43.667589 96.777219 
L 44.478519 94.950635 
L 45.214423 93.124051 
L 45.870254 91.297467 
L 46.445812 89.470883 
L 46.944923 87.644299 
L 47.374312 85.817715 
L 47.742399 83.991131 
L 48.05822 82.164547 
L 48.330579 80.337963 
L 48.567423 78.511379 
L 48.775428 76.684795 
L 48.959722 74.858211 
L 49.123761 73.031628 
L 49.269331 71.205044 
L 49.396752 69.37846 
L 49.505274 67.551876 
L 49.593659 65.725292 
L 49.660874 63.898708 
L 49.706771 62.072124 
L 49.732613 60.24554 
L 49.741331 58.418956 
L 49.737443 56.592372 
L 49.726642 54.765788 
L 49.715132 52.939204 
L 49.708841 51.11262 
L 49.712665 49.286036 
L 49.729873 47.459452 
L 49.761781 45.632868 
L 49.807728 43.806284 
L 49.865332 41.9797 
L 49.930969 40.153116 
L 50.000362 38.326532 
L 50.069169 36.499948 
L 50.133473 34.673364 
L 50.19012 32.84678 
L 50.236853 31.020196 
L 50.272291 29.193612 
L 50.295799 27.367028 
L 50.307311 25.540444 
L 50.307185 23.71386 
L 50.296144 21.887276 
L 50.275291 20.060692 
L 50.246205 18.234108 
L 50.211033 16.407525 
L 50.17253 14.580941 
L 50.133973 12.754357 
L 50.098923 10.927773 
L 50.070854 9.101189 
L 50.052707 7.274605 
L 50.046464 5.448021 
L 50.753536 5.448021 
L 50.753536 5.448021 
L 50.747293 7.274605 
L 50.729146 9.101189 
L 50.701077 10.927773 
L 50.666027 12.754357 
L 50.62747 14.580941 
L 50.588967 16.407525 
L 50.553795 18.234108 
L 50.524709 20.060692 
L 50.503856 21.887276 
L 50.492815 23.71386 
L 50.492689 25.540444 
L 50.504201 27.367028 
L 50.527709 29.193612 
L 50.563147 31.020196 
L 50.60988 32.84678 
L 50.666527 34.673364 
L 50.730831 36.499948 
L 50.799638 38.326532 
L 50.869031 40.153116 
L 50.934668 41.9797 
L 50.992272 43.806284 
L 51.038219 45.632868 
L 51.070127 47.459452 
L 51.087335 49.286036 
L 51.091159 51.11262 
L 51.084868 52.939204 
L 51.073358 54.765788 
L 51.062557 56.592372 
L 51.058669 58.418956 
L 51.067387 60.24554 
L 51.093229 62.072124 
L 51.139126 63.898708 
L 51.206341 65.725292 
L 51.294726 67.551876 
L 51.403248 69.37846 
L 51.530669 71.205044 
L 51.676239 73.031628 
L 51.840278 74.858211 
L 52.024572 76.684795 
L 52.232577 78.511379 
L 52.469421 80.337963 
L 52.74178 82.164547 
L 53.057601 83.991131 
L 53.425688 85.817715 
L 53.855077 87.644299 
L 54.354188 89.470883 
L 54.929746 91.297467 
L 55.585577 93.124051 
L 56.321481 94.950635 
L 57.132411 96.777219 
L 58.008233 98.603803 
L 58.934208 100.430387 
L 59.892193 102.256971 
L 60.862346 104.083555 
L 61.824954 105.910139 
L 62.761906 107.736723 
L 63.657419 109.563307 
L 64.497818 111.389891 
L 65.270499 113.216475 
L 65.962511 115.043059 
L 66.559421 116.869643 
L 67.045104 118.696227 
L 67.402852 120.522811 
L 67.617785 122.349395 
L 67.68 124.175979 
L 67.587557 126.002563 
L 67.348287 127.829147 
L 66.979631 129.655731 
L 66.506262 131.482315 
L 65.955902 133.308898 
L 65.354319 135.135482 
L 64.72078 136.962066 
L 64.065194 138.78865 
L 63.387675 140.615234 
L 62.680626 142.441818 
L 61.932741 144.268402 
L 61.133835 146.094986 
L 60.279256 147.92157 
L 59.372808 149.748154 
L 58.427619 151.574738 
L 57.464926 153.401322 
L 56.511253 155.227906 
L 55.594768 157.05449 
L 54.741646 158.881074 
L 53.973113 160.707658 
L 53.303553 162.534242 
L 52.739796 164.360826 
L 52.281442 166.18741 
L 51.92196 168.013994 
L 51.650239 169.840578 
L 51.452314 171.667162 
L 51.313004 173.493746 
L 51.217326 175.32033 
L 51.151562 177.146914 
L 51.10397 178.973498 
L 51.065162 180.800082 
L 51.028208 182.626666 
L 50.98854 184.45325 
L 50.943723 186.279834 
L 50.943723 186.279834 
z
" clip-path="url(#pb5004b5de1)" style="fill: none; stroke: #000000; stroke-opacity: 0.3"/>
   </g>
   <g id="FillBetweenPolyCollection_3">
    <path d="M 50.656105 236.647928 
L 50.143895 236.647928 
L 50.138325 234.800358 
L 50.138194 232.952788 
L 50.141295 231.105219 
L 50.14512 229.257649 
L 50.147525 227.410079 
L 50.147323 225.56251 
L 50.144608 223.71494 
L 50.140731 221.86737 
L 50.137921 220.019801 
L 50.138672 218.172231 
L 50.145063 216.324661 
L 50.158211 214.477092 
L 50.177977 212.629522 
L 50.202985 210.781952 
L 50.230893 208.934383 
L 50.258818 207.086813 
L 50.283758 205.239243 
L 50.302913 203.391674 
L 50.313831 201.544104 
L 50.314403 199.696534 
L 50.302735 197.848965 
L 50.276986 196.001395 
L 50.235215 194.153825 
L 50.175273 192.306256 
L 50.09477 190.458686 
L 49.991118 188.611116 
L 49.861668 186.763547 
L 49.703945 184.915977 
L 49.516005 183.068407 
L 49.29684 181.220838 
L 49.046754 179.373268 
L 48.76755 177.525698 
L 48.462381 175.678129 
L 48.135182 173.830559 
L 47.789726 171.982989 
L 47.428486 170.13542 
L 47.051626 168.28785 
L 46.656429 166.44028 
L 46.237398 164.592711 
L 45.787097 162.745141 
L 45.297577 160.897571 
L 44.762078 159.050002 
L 44.176649 157.202432 
L 43.54131 155.354862 
L 42.860505 153.507293 
L 42.142735 151.659723 
L 41.399404 149.812153 
L 40.643102 147.964584 
L 39.885705 146.117014 
L 39.13674 144.269444 
L 38.402505 142.421875 
L 37.686249 140.574305 
L 36.98946 138.726735 
L 36.31397 136.879166 
L 35.66429 135.031596 
L 35.049476 133.184026 
L 34.483932 131.336457 
L 33.986847 129.488887 
L 33.580426 127.641317 
L 33.287391 125.793748 
L 33.128405 123.946178 
L 33.12 122.098608 
L 33.273273 120.251039 
L 33.593289 118.403469 
L 34.078874 116.555899 
L 34.722489 114.70833 
L 35.510019 112.86076 
L 36.420634 111.01319 
L 37.427044 109.165621 
L 38.496509 107.318051 
L 39.592757 105.470481 
L 40.678724 103.622912 
L 41.719693 101.775342 
L 42.686343 99.927772 
L 43.557203 98.080203 
L 44.32012 96.232633 
L 44.972588 94.385063 
L 45.520903 92.537494 
L 45.978316 90.689924 
L 46.36248 88.842354 
L 46.692585 86.994785 
L 46.986658 85.147215 
L 47.259423 83.299645 
L 47.521018 81.452076 
L 47.776635 79.604506 
L 48.026966 77.756936 
L 48.269216 75.909367 
L 48.498389 74.061797 
L 48.708633 72.214227 
L 48.894508 70.366658 
L 49.052103 68.519088 
L 49.179917 66.671518 
L 49.2794 64.823949 
L 49.355018 62.976379 
L 49.413738 61.12881 
L 49.463954 59.28124 
L 49.514047 57.43367 
L 49.570882 55.586101 
L 49.638628 53.738531 
L 51.161372 53.738531 
L 51.161372 53.738531 
L 51.229118 55.586101 
L 51.285953 57.43367 
L 51.336046 59.28124 
L 51.386262 61.12881 
L 51.444982 62.976379 
L 51.5206 64.823949 
L 51.620083 66.671518 
L 51.747897 68.519088 
L 51.905492 70.366658 
L 52.091367 72.214227 
L 52.301611 74.061797 
L 52.530784 75.909367 
L 52.773034 77.756936 
L 53.023365 79.604506 
L 53.278982 81.452076 
L 53.540577 83.299645 
L 53.813342 85.147215 
L 54.107415 86.994785 
L 54.43752 88.842354 
L 54.821684 90.689924 
L 55.279097 92.537494 
L 55.827412 94.385063 
L 56.47988 96.232633 
L 57.242797 98.080203 
L 58.113657 99.927772 
L 59.080307 101.775342 
L 60.121276 103.622912 
L 61.207243 105.470481 
L 62.303491 107.318051 
L 63.372956 109.165621 
L 64.379366 111.01319 
L 65.289981 112.86076 
L 66.077511 114.70833 
L 66.721126 116.555899 
L 67.206711 118.403469 
L 67.526727 120.251039 
L 67.68 122.098608 
L 67.671595 123.946178 
L 67.512609 125.793748 
L 67.219574 127.641317 
L 66.813153 129.488887 
L 66.316068 131.336457 
L 65.750524 133.184026 
L 65.13571 135.031596 
L 64.48603 136.879166 
L 63.81054 138.726735 
L 63.113751 140.574305 
L 62.397495 142.421875 
L 61.66326 144.269444 
L 60.914295 146.117014 
L 60.156898 147.964584 
L 59.400596 149.812153 
L 58.657265 151.659723 
L 57.939495 153.507293 
L 57.25869 155.354862 
L 56.623351 157.202432 
L 56.037922 159.050002 
L 55.502423 160.897571 
L 55.012903 162.745141 
L 54.562602 164.592711 
L 54.143571 166.44028 
L 53.748374 168.28785 
L 53.371514 170.13542 
L 53.010274 171.982989 
L 52.664818 173.830559 
L 52.337619 175.678129 
L 52.03245 177.525698 
L 51.753246 179.373268 
L 51.50316 181.220838 
L 51.283995 183.068407 
L 51.096055 184.915977 
L 50.938332 186.763547 
L 50.808882 188.611116 
L 50.70523 190.458686 
L 50.624727 192.306256 
L 50.564785 194.153825 
L 50.523014 196.001395 
L 50.497265 197.848965 
L 50.485597 199.696534 
L 50.486169 201.544104 
L 50.497087 203.391674 
L 50.516242 205.239243 
L 50.541182 207.086813 
L 50.569107 208.934383 
L 50.597015 210.781952 
L 50.622023 212.629522 
L 50.641789 214.477092 
L 50.654937 216.324661 
L 50.661328 218.172231 
L 50.662079 220.019801 
L 50.659269 221.86737 
L 50.655392 223.71494 
L 50.652677 225.56251 
L 50.652475 227.410079 
L 50.65488 229.257649 
L 50.658705 231.105219 
L 50.661806 232.952788 
L 50.661675 234.800358 
L 50.656105 236.647928 
L 50.656105 236.647928 
z
" clip-path="url(#pb5004b5de1)" style="fill: none; stroke: #000000; stroke-opacity: 0.3"/>
   </g>
   <g id="FillBetweenPolyCollection_4">
    <path d="M 54.627426 160.92195 
L 46.172574 160.92195 
L 45.651192 159.68102 
L 45.106438 158.440091 
L 44.541857 157.199162 
L 43.961682 155.958233 
L 43.370878 154.717304 
L 42.775083 153.476374 
L 42.180404 152.235445 
L 41.593076 150.994516 
L 41.018997 149.753587 
L 40.463188 148.512657 
L 39.929276 147.271728 
L 39.419074 146.030799 
L 38.932348 144.78987 
L 38.466844 143.548941 
L 38.018599 142.308011 
L 37.582524 141.067082 
L 37.153212 139.826153 
L 36.725864 138.585224 
L 36.297227 137.344294 
L 35.86642 136.103365 
L 35.43552 134.862436 
L 35.009847 133.621507 
L 34.597877 132.380578 
L 34.210799 131.139648 
L 33.861762 129.898719 
L 33.56489 128.65779 
L 33.334173 127.416861 
L 33.182367 126.175932 
L 33.12 124.935002 
L 33.15459 123.694073 
L 33.290133 122.453144 
L 33.52688 121.212215 
L 33.861411 119.971285 
L 34.286954 118.730356 
L 34.79389 117.489427 
L 35.37039 116.248498 
L 36.003111 115.007569 
L 36.677893 113.766639 
L 37.380425 112.52571 
L 38.096842 111.284781 
L 38.814242 110.043852 
L 39.521116 108.802923 
L 40.207673 107.561993 
L 40.866068 106.321064 
L 41.490521 105.080135 
L 42.077323 103.839206 
L 42.624733 102.598276 
L 43.13278 101.357347 
L 43.602987 100.116418 
L 44.038034 98.875489 
L 44.441413 97.63456 
L 44.817081 96.39363 
L 45.169154 95.152701 
L 45.501646 93.911772 
L 45.81828 92.670843 
L 46.122333 91.429913 
L 46.416549 90.188984 
L 46.703078 88.948055 
L 46.983441 87.707126 
L 47.258519 86.466197 
L 47.528564 85.225267 
L 47.793223 83.984338 
L 48.051604 82.743409 
L 48.302356 81.50248 
L 48.543789 80.261551 
L 48.774021 79.020621 
L 48.99113 77.779692 
L 49.193315 76.538763 
L 49.379046 75.297834 
L 49.547177 74.056904 
L 49.697028 72.815975 
L 49.828422 71.575046 
L 49.94167 70.334117 
L 50.037525 69.093188 
L 50.117093 67.852258 
L 50.181728 66.611329 
L 50.232917 65.3704 
L 50.27217 64.129471 
L 50.300915 62.888542 
L 50.320419 61.647612 
L 50.331738 60.406683 
L 50.335687 59.165754 
L 50.332849 57.924825 
L 50.323606 56.683895 
L 50.308198 55.442966 
L 50.2868 54.202037 
L 50.259618 52.961108 
L 50.226976 51.720179 
L 50.189414 50.479249 
L 50.147751 49.23832 
L 50.103128 47.997391 
L 50.057018 46.756462 
L 50.011177 45.515532 
L 49.96757 44.274603 
L 49.928245 43.033674 
L 49.895187 41.792745 
L 49.87016 40.551816 
L 49.85455 39.310886 
L 49.849246 38.069957 
L 50.950754 38.069957 
L 50.950754 38.069957 
L 50.94545 39.310886 
L 50.92984 40.551816 
L 50.904813 41.792745 
L 50.871755 43.033674 
L 50.83243 44.274603 
L 50.788823 45.515532 
L 50.742982 46.756462 
L 50.696872 47.997391 
L 50.652249 49.23832 
L 50.610586 50.479249 
L 50.573024 51.720179 
L 50.540382 52.961108 
L 50.5132 54.202037 
L 50.491802 55.442966 
L 50.476394 56.683895 
L 50.467151 57.924825 
L 50.464313 59.165754 
L 50.468262 60.406683 
L 50.479581 61.647612 
L 50.499085 62.888542 
L 50.52783 64.129471 
L 50.567083 65.3704 
L 50.618272 66.611329 
L 50.682907 67.852258 
L 50.762475 69.093188 
L 50.85833 70.334117 
L 50.971578 71.575046 
L 51.102972 72.815975 
L 51.252823 74.056904 
L 51.420954 75.297834 
L 51.606685 76.538763 
L 51.80887 77.779692 
L 52.025979 79.020621 
L 52.256211 80.261551 
L 52.497644 81.50248 
L 52.748396 82.743409 
L 53.006777 83.984338 
L 53.271436 85.225267 
L 53.541481 86.466197 
L 53.816559 87.707126 
L 54.096922 88.948055 
L 54.383451 90.188984 
L 54.677667 91.429913 
L 54.98172 92.670843 
L 55.298354 93.911772 
L 55.630846 95.152701 
L 55.982919 96.39363 
L 56.358587 97.63456 
L 56.761966 98.875489 
L 57.197013 100.116418 
L 57.66722 101.357347 
L 58.175267 102.598276 
L 58.722677 103.839206 
L 59.309479 105.080135 
L 59.933932 106.321064 
L 60.592327 107.561993 
L 61.278884 108.802923 
L 61.985758 110.043852 
L 62.703158 111.284781 
L 63.419575 112.52571 
L 64.122107 113.766639 
L 64.796889 115.007569 
L 65.42961 116.248498 
L 66.00611 117.489427 
L 66.513046 118.730356 
L 66.938589 119.971285 
L 67.27312 121.212215 
L 67.509867 122.453144 
L 67.64541 123.694073 
L 67.68 124.935002 
L 67.617633 126.175932 
L 67.465827 127.416861 
L 67.23511 128.65779 
L 66.938238 129.898719 
L 66.589201 131.139648 
L 66.202123 132.380578 
L 65.790153 133.621507 
L 65.36448 134.862436 
L 64.93358 136.103365 
L 64.502773 137.344294 
L 64.074136 138.585224 
L 63.646788 139.826153 
L 63.217476 141.067082 
L 62.781401 142.308011 
L 62.333156 143.548941 
L 61.867652 144.78987 
L 61.380926 146.030799 
L 60.870724 147.271728 
L 60.336812 148.512657 
L 59.781003 149.753587 
L 59.206924 150.994516 
L 58.619596 152.235445 
L 58.024917 153.476374 
L 57.429122 154.717304 
L 56.838318 155.958233 
L 56.258143 157.199162 
L 55.693562 158.440091 
L 55.148808 159.68102 
L 54.627426 160.92195 
L 54.627426 160.92195 
z
" clip-path="url(#pb5004b5de1)" style="fill: none; stroke: #000000; stroke-opacity: 0.3"/>
   </g>
   <g id="FillBetweenPolyCollection_5">
    <path d="M 108.576158 213.228539 
L 107.423842 213.228539 
L 107.343775 211.508704 
L 107.264938 209.788868 
L 107.186909 208.069033 
L 107.107863 206.349197 
L 107.024719 204.629362 
L 106.933562 202.909526 
L 106.830255 201.18969 
L 106.711086 199.469855 
L 106.573254 197.750019 
L 106.415001 196.030184 
L 106.235312 194.310348 
L 106.033234 192.590513 
L 105.807028 190.870677 
L 105.553482 189.150842 
L 105.267706 187.431006 
L 104.943591 185.711171 
L 104.574892 183.991335 
L 104.156661 182.2715 
L 103.6866 180.551664 
L 103.165924 178.831829 
L 102.599488 177.111993 
L 101.995215 175.392158 
L 101.363075 173.672322 
L 100.713981 171.952487 
L 100.058881 170.232651 
L 99.408155 168.512816 
L 98.771164 166.79298 
L 98.155731 165.073144 
L 97.567355 163.353309 
L 97.008212 161.633473 
L 96.476232 159.913638 
L 95.96474 158.193802 
L 95.46313 156.473967 
L 94.958796 154.754131 
L 94.440139 153.034296 
L 93.90011 151.31446 
L 93.339433 149.594625 
L 92.768694 147.874789 
L 92.208724 146.154954 
L 91.689112 144.435118 
L 91.245145 142.715283 
L 90.91379 140.995447 
L 90.729426 139.275612 
L 90.72 137.555776 
L 90.904041 135.835941 
L 91.288782 134.116105 
L 91.869455 132.39627 
L 92.629706 130.676434 
L 93.543034 128.956598 
L 94.575049 127.236763 
L 95.686318 125.516927 
L 96.835461 123.797092 
L 97.982147 122.077256 
L 99.089697 120.357421 
L 100.127058 118.637585 
L 101.070082 116.91775 
L 101.902136 115.197914 
L 102.61417 113.478079 
L 103.204366 111.758243 
L 103.677517 110.038408 
L 104.044196 108.318572 
L 104.319761 106.598737 
L 104.52319 104.878901 
L 104.675692 103.159066 
L 104.799114 101.43923 
L 104.914165 99.719395 
L 105.038597 97.999559 
L 105.185585 96.279724 
L 105.36256 94.559888 
L 105.570772 92.840052 
L 105.80569 91.120217 
L 106.058229 89.400381 
L 106.316565 87.680546 
L 106.56821 85.96071 
L 106.801961 84.240875 
L 107.009401 82.521039 
L 107.185738 80.801204 
L 107.329947 79.081368 
L 107.444271 77.361533 
L 107.533279 75.641697 
L 107.602701 73.921862 
L 107.658299 72.202026 
L 107.704943 70.482191 
L 107.74605 68.762355 
L 107.783406 67.04252 
L 107.817318 65.322684 
L 107.847016 63.602849 
L 107.87115 61.883013 
L 107.888284 60.163178 
L 107.897307 58.443342 
L 107.897733 56.723506 
L 107.889874 55.003671 
L 107.87491 53.283835 
L 107.854839 51.564 
L 107.83232 49.844164 
L 107.810391 48.124329 
L 107.792093 46.404493 
L 107.78005 44.684658 
L 107.776074 42.964822 
L 108.223926 42.964822 
L 108.223926 42.964822 
L 108.21995 44.684658 
L 108.207907 46.404493 
L 108.189609 48.124329 
L 108.16768 49.844164 
L 108.145161 51.564 
L 108.12509 53.283835 
L 108.110126 55.003671 
L 108.102267 56.723506 
L 108.102693 58.443342 
L 108.111716 60.163178 
L 108.12885 61.883013 
L 108.152984 63.602849 
L 108.182682 65.322684 
L 108.216594 67.04252 
L 108.25395 68.762355 
L 108.295057 70.482191 
L 108.341701 72.202026 
L 108.397299 73.921862 
L 108.466721 75.641697 
L 108.555729 77.361533 
L 108.670053 79.081368 
L 108.814262 80.801204 
L 108.990599 82.521039 
L 109.198039 84.240875 
L 109.43179 85.96071 
L 109.683435 87.680546 
L 109.941771 89.400381 
L 110.19431 91.120217 
L 110.429228 92.840052 
L 110.63744 94.559888 
L 110.814415 96.279724 
L 110.961403 97.999559 
L 111.085835 99.719395 
L 111.200886 101.43923 
L 111.324308 103.159066 
L 111.47681 104.878901 
L 111.680239 106.598737 
L 111.955804 108.318572 
L 112.322483 110.038408 
L 112.795634 111.758243 
L 113.38583 113.478079 
L 114.097864 115.197914 
L 114.929918 116.91775 
L 115.872942 118.637585 
L 116.910303 120.357421 
L 118.017853 122.077256 
L 119.164539 123.797092 
L 120.313682 125.516927 
L 121.424951 127.236763 
L 122.456966 128.956598 
L 123.370294 130.676434 
L 124.130545 132.39627 
L 124.711218 134.116105 
L 125.095959 135.835941 
L 125.28 137.555776 
L 125.270574 139.275612 
L 125.08621 140.995447 
L 124.754855 142.715283 
L 124.310888 144.435118 
L 123.791276 146.154954 
L 123.231306 147.874789 
L 122.660567 149.594625 
L 122.09989 151.31446 
L 121.559861 153.034296 
L 121.041204 154.754131 
L 120.53687 156.473967 
L 120.03526 158.193802 
L 119.523768 159.913638 
L 118.991788 161.633473 
L 118.432645 163.353309 
L 117.844269 165.073144 
L 117.228836 166.79298 
L 116.591845 168.512816 
L 115.941119 170.232651 
L 115.286019 171.952487 
L 114.636925 173.672322 
L 114.004785 175.392158 
L 113.400512 177.111993 
L 112.834076 178.831829 
L 112.3134 180.551664 
L 111.843339 182.2715 
L 111.425108 183.991335 
L 111.056409 185.711171 
L 110.732294 187.431006 
L 110.446518 189.150842 
L 110.192972 190.870677 
L 109.966766 192.590513 
L 109.764688 194.310348 
L 109.584999 196.030184 
L 109.426746 197.750019 
L 109.288914 199.469855 
L 109.169745 201.18969 
L 109.066438 202.909526 
L 108.975281 204.629362 
L 108.892137 206.349197 
L 108.813091 208.069033 
L 108.735062 209.788868 
L 108.656225 211.508704 
L 108.576158 213.228539 
L 108.576158 213.228539 
z
" clip-path="url(#pb5004b5de1)" style="fill: none; stroke: #000000; stroke-opacity: 0.3"/>
   </g>
   <g id="FillBetweenPolyCollection_6">
    <path d="M 111.323066 212.518326 
L 104.676934 212.518326 
L 104.465037 211.513336 
L 104.246907 210.508346 
L 104.022415 209.503356 
L 103.791451 208.498365 
L 103.553954 207.493375 
L 103.30994 206.488385 
L 103.059532 205.483395 
L 102.802988 204.478405 
L 102.540721 203.473414 
L 102.273318 202.468424 
L 102.001544 201.463434 
L 101.726344 200.458444 
L 101.44883 199.453454 
L 101.170257 198.448463 
L 100.891993 197.443473 
L 100.615475 196.438483 
L 100.34216 195.433493 
L 100.073473 194.428502 
L 99.810743 193.423512 
L 99.555153 192.418522 
L 99.307675 191.413532 
L 99.069031 190.408542 
L 98.839644 189.403551 
L 98.619616 188.398561 
L 98.408706 187.393571 
L 98.206335 186.388581 
L 98.011594 185.383591 
L 97.823276 184.3786 
L 97.639921 183.37361 
L 97.459866 182.36862 
L 97.281312 181.36363 
L 97.1024 180.358639 
L 96.921279 179.353649 
L 96.736188 178.348659 
L 96.545528 177.343669 
L 96.347922 176.338679 
L 96.142281 175.333688 
L 95.927841 174.328698 
L 95.704196 173.323708 
L 95.471317 172.318718 
L 95.22955 171.313728 
L 94.979604 170.308737 
L 94.722524 169.303747 
L 94.459655 168.298757 
L 94.192592 167.293767 
L 93.92313 166.288776 
L 93.653204 165.283786 
L 93.384837 164.278796 
L 93.12008 163.273806 
L 92.86097 162.268816 
L 92.609481 161.263825 
L 92.367493 160.258835 
L 92.13677 159.253845 
L 91.918944 158.248855 
L 91.715506 157.243865 
L 91.527816 156.238874 
L 91.357105 155.233884 
L 91.204493 154.228894 
L 91.071002 153.223904 
L 90.957572 152.218914 
L 90.865079 151.213923 
L 90.794338 150.208933 
L 90.746114 149.203943 
L 90.721118 148.198953 
L 90.72 147.193962 
L 90.743337 146.188972 
L 90.791613 145.183982 
L 90.865198 144.178992 
L 90.964325 143.174002 
L 91.089064 142.169011 
L 91.239306 141.164021 
L 91.41474 140.159031 
L 91.614848 139.154041 
L 91.838901 138.149051 
L 92.085963 137.14406 
L 92.354904 136.13907 
L 92.644426 135.13408 
L 92.95309 134.12909 
L 93.279352 133.124099 
L 93.621601 132.119109 
L 93.978199 131.114119 
L 94.347524 130.109129 
L 94.728001 129.104139 
L 95.118136 128.099148 
L 95.516542 127.094158 
L 95.921949 126.089168 
L 96.333217 125.084178 
L 96.74933 124.079188 
L 97.169387 123.074197 
L 97.592583 122.069207 
L 98.018183 121.064217 
L 98.445497 120.059227 
L 98.87385 119.054236 
L 99.302548 118.049246 
L 99.730854 117.044256 
L 100.157963 116.039266 
L 100.582987 115.034276 
L 101.004939 114.029285 
L 101.422738 113.024295 
L 114.577262 113.024295 
L 114.577262 113.024295 
L 114.995061 114.029285 
L 115.417013 115.034276 
L 115.842037 116.039266 
L 116.269146 117.044256 
L 116.697452 118.049246 
L 117.12615 119.054236 
L 117.554503 120.059227 
L 117.981817 121.064217 
L 118.407417 122.069207 
L 118.830613 123.074197 
L 119.25067 124.079188 
L 119.666783 125.084178 
L 120.078051 126.089168 
L 120.483458 127.094158 
L 120.881864 128.099148 
L 121.271999 129.104139 
L 121.652476 130.109129 
L 122.021801 131.114119 
L 122.378399 132.119109 
L 122.720648 133.124099 
L 123.04691 134.12909 
L 123.355574 135.13408 
L 123.645096 136.13907 
L 123.914037 137.14406 
L 124.161099 138.149051 
L 124.385152 139.154041 
L 124.58526 140.159031 
L 124.760694 141.164021 
L 124.910936 142.169011 
L 125.035675 143.174002 
L 125.134802 144.178992 
L 125.208387 145.183982 
L 125.256663 146.188972 
L 125.28 147.193962 
L 125.278882 148.198953 
L 125.253886 149.203943 
L 125.205662 150.208933 
L 125.134921 151.213923 
L 125.042428 152.218914 
L 124.928998 153.223904 
L 124.795507 154.228894 
L 124.642895 155.233884 
L 124.472184 156.238874 
L 124.284494 157.243865 
L 124.081056 158.248855 
L 123.86323 159.253845 
L 123.632507 160.258835 
L 123.390519 161.263825 
L 123.13903 162.268816 
L 122.87992 163.273806 
L 122.615163 164.278796 
L 122.346796 165.283786 
L 122.07687 166.288776 
L 121.807408 167.293767 
L 121.540345 168.298757 
L 121.277476 169.303747 
L 121.020396 170.308737 
L 120.77045 171.313728 
L 120.528683 172.318718 
L 120.295804 173.323708 
L 120.072159 174.328698 
L 119.857719 175.333688 
L 119.652078 176.338679 
L 119.454472 177.343669 
L 119.263812 178.348659 
L 119.078721 179.353649 
L 118.8976 180.358639 
L 118.718688 181.36363 
L 118.540134 182.36862 
L 118.360079 183.37361 
L 118.176724 184.3786 
L 117.988406 185.383591 
L 117.793665 186.388581 
L 117.591294 187.393571 
L 117.380384 188.398561 
L 117.160356 189.403551 
L 116.930969 190.408542 
L 116.692325 191.413532 
L 116.444847 192.418522 
L 116.189257 193.423512 
L 115.926527 194.428502 
L 115.65784 195.433493 
L 115.384525 196.438483 
L 115.108007 197.443473 
L 114.829743 198.448463 
L 114.55117 199.453454 
L 114.273656 200.458444 
L 113.998456 201.463434 
L 113.726682 202.468424 
L 113.459279 203.473414 
L 113.197012 204.478405 
L 112.940468 205.483395 
L 112.69006 206.488385 
L 112.446046 207.493375 
L 112.208549 208.498365 
L 111.977585 209.503356 
L 111.753093 210.508346 
L 111.534963 211.513336 
L 111.323066 212.518326 
L 111.323066 212.518326 
z
" clip-path="url(#pb5004b5de1)" style="fill: none; stroke: #000000; stroke-opacity: 0.3"/>
   </g>
   <g id="FillBetweenPolyCollection_7">
    <path d="M 109.822903 192.851146 
L 106.177097 192.851146 
L 105.922633 191.438463 
L 105.658039 190.02578 
L 105.380348 188.613098 
L 105.084301 187.200415 
L 104.762814 185.787732 
L 104.407781 184.375049 
L 104.011087 182.962366 
L 103.565648 181.549683 
L 103.066281 180.137 
L 102.510276 178.724317 
L 101.897613 177.311634 
L 101.230882 175.898951 
L 100.515004 174.486268 
L 99.75692 173.073586 
L 98.965354 171.660903 
L 98.150667 170.24822 
L 97.324747 168.835537 
L 96.500795 167.422854 
L 95.692886 166.010171 
L 94.915253 164.597488 
L 94.181361 163.184805 
L 93.502961 161.772122 
L 92.889363 160.359439 
L 92.347129 158.946757 
L 91.880259 157.534074 
L 91.490796 156.121391 
L 91.179624 154.708708 
L 90.947175 153.296025 
L 90.793843 151.883342 
L 90.72 150.470659 
L 90.725694 149.057976 
L 90.810202 147.645293 
L 90.971653 146.23261 
L 91.206856 144.819927 
L 91.51136 143.407245 
L 91.87967 141.994562 
L 92.305491 140.581879 
L 92.781909 139.169196 
L 93.30152 137.756513 
L 93.856577 136.34383 
L 94.439288 134.931147 
L 95.04233 133.518464 
L 95.659522 132.105781 
L 96.286479 130.693098 
L 96.920999 129.280415 
L 97.562941 127.867733 
L 98.21349 126.45505 
L 98.873918 125.042367 
L 99.544115 123.629684 
L 100.221283 122.217001 
L 100.899188 120.804318 
L 101.568198 119.391635 
L 102.216161 117.978952 
L 102.82992 116.566269 
L 103.397134 115.153586 
L 103.907994 113.740903 
L 104.356489 112.328221 
L 104.741003 110.915538 
L 105.064188 109.502855 
L 105.332225 108.090172 
L 105.553658 106.677489 
L 105.738074 105.264806 
L 105.894865 103.852123 
L 106.032257 102.43944 
L 106.156737 101.026757 
L 106.272888 99.614074 
L 106.383589 98.201391 
L 106.490462 96.788709 
L 106.594411 95.376026 
L 106.696094 93.963343 
L 106.796228 92.55066 
L 106.895659 91.137977 
L 106.995224 89.725294 
L 107.09549 88.312611 
L 107.196478 86.899928 
L 107.297482 85.487245 
L 107.397059 84.074562 
L 107.493186 82.66188 
L 107.583559 81.249197 
L 107.665944 79.836514 
L 107.738491 78.423831 
L 107.79995 77.011148 
L 107.849738 75.598465 
L 107.887888 74.185782 
L 107.914891 72.773099 
L 107.931506 71.360416 
L 107.938589 69.947733 
L 107.936982 68.53505 
L 107.927487 67.122368 
L 107.910923 65.709685 
L 107.888243 64.297002 
L 107.860663 62.884319 
L 107.82977 61.471636 
L 107.797553 60.058953 
L 107.766334 58.64627 
L 107.738595 57.233587 
L 107.716725 55.820904 
L 107.702716 54.408221 
L 107.697899 52.995538 
L 108.302101 52.995538 
L 108.302101 52.995538 
L 108.297284 54.408221 
L 108.283275 55.820904 
L 108.261405 57.233587 
L 108.233666 58.64627 
L 108.202447 60.058953 
L 108.17023 61.471636 
L 108.139337 62.884319 
L 108.111757 64.297002 
L 108.089077 65.709685 
L 108.072513 67.122368 
L 108.063018 68.53505 
L 108.061411 69.947733 
L 108.068494 71.360416 
L 108.085109 72.773099 
L 108.112112 74.185782 
L 108.150262 75.598465 
L 108.20005 77.011148 
L 108.261509 78.423831 
L 108.334056 79.836514 
L 108.416441 81.249197 
L 108.506814 82.66188 
L 108.602941 84.074562 
L 108.702518 85.487245 
L 108.803522 86.899928 
L 108.90451 88.312611 
L 109.004776 89.725294 
L 109.104341 91.137977 
L 109.203772 92.55066 
L 109.303906 93.963343 
L 109.405589 95.376026 
L 109.509538 96.788709 
L 109.616411 98.201391 
L 109.727112 99.614074 
L 109.843263 101.026757 
L 109.967743 102.43944 
L 110.105135 103.852123 
L 110.261926 105.264806 
L 110.446342 106.677489 
L 110.667775 108.090172 
L 110.935812 109.502855 
L 111.258997 110.915538 
L 111.643511 112.328221 
L 112.092006 113.740903 
L 112.602866 115.153586 
L 113.17008 116.566269 
L 113.783839 117.978952 
L 114.431802 119.391635 
L 115.100812 120.804318 
L 115.778717 122.217001 
L 116.455885 123.629684 
L 117.126082 125.042367 
L 117.78651 126.45505 
L 118.437059 127.867733 
L 119.079001 129.280415 
L 119.713521 130.693098 
L 120.340478 132.105781 
L 120.95767 133.518464 
L 121.560712 134.931147 
L 122.143423 136.34383 
L 122.69848 137.756513 
L 123.218091 139.169196 
L 123.694509 140.581879 
L 124.12033 141.994562 
L 124.48864 143.407245 
L 124.793144 144.819927 
L 125.028347 146.23261 
L 125.189798 147.645293 
L 125.274306 149.057976 
L 125.28 150.470659 
L 125.206157 151.883342 
L 125.052825 153.296025 
L 124.820376 154.708708 
L 124.509204 156.121391 
L 124.119741 157.534074 
L 123.652871 158.946757 
L 123.110637 160.359439 
L 122.497039 161.772122 
L 121.818639 163.184805 
L 121.084747 164.597488 
L 120.307114 166.010171 
L 119.499205 167.422854 
L 118.675253 168.835537 
L 117.849333 170.24822 
L 117.034646 171.660903 
L 116.24308 173.073586 
L 115.484996 174.486268 
L 114.769118 175.898951 
L 114.102387 177.311634 
L 113.489724 178.724317 
L 112.933719 180.137 
L 112.434352 181.549683 
L 111.988913 182.962366 
L 111.592219 184.375049 
L 111.237186 185.787732 
L 110.915699 187.200415 
L 110.619652 188.613098 
L 110.341961 190.02578 
L 110.077367 191.438463 
L 109.822903 192.851146 
L 109.822903 192.851146 
z
" clip-path="url(#pb5004b5de1)" style="fill: none; stroke: #000000; stroke-opacity: 0.3"/>
   </g>
   <g id="FillBetweenPolyCollection_8">
    <path d="M 108.944759 210.345257 
L 107.055241 210.345257 
L 106.945988 208.864224 
L 106.830737 207.383191 
L 106.709118 205.902158 
L 106.580795 204.421125 
L 106.44559 202.940092 
L 106.303597 201.459059 
L 106.155274 199.978026 
L 106.001489 198.496993 
L 105.843495 197.01596 
L 105.682827 195.534927 
L 105.521122 194.053894 
L 105.359858 192.572861 
L 105.200053 191.091828 
L 105.041931 189.610795 
L 104.884622 188.129762 
L 104.725912 186.648729 
L 104.562099 185.167696 
L 104.387979 183.686663 
L 104.196994 182.20563 
L 103.981522 180.724597 
L 103.733332 179.243564 
L 103.444145 177.762531 
L 103.10628 176.281498 
L 102.713334 174.800465 
L 102.26082 173.319432 
L 101.746724 171.838399 
L 101.171908 170.357366 
L 100.540315 168.876333 
L 99.858932 167.3953 
L 99.137508 165.914267 
L 98.388027 164.433234 
L 97.623976 162.952201 
L 96.859484 161.471168 
L 96.108412 159.990135 
L 95.383499 158.509102 
L 94.69566 157.028069 
L 94.053521 155.547036 
L 93.463238 154.066003 
L 92.928607 152.58497 
L 92.451443 151.103937 
L 92.032141 149.622904 
L 91.670336 148.141871 
L 91.365541 146.660838 
L 91.11767 145.179805 
L 90.927374 143.698772 
L 90.796138 142.217739 
L 90.726155 140.736706 
L 90.72 139.255673 
L 90.780196 137.77464 
L 90.908726 136.293607 
L 91.10659 134.812574 
L 91.373469 133.331541 
L 91.707528 131.850508 
L 92.105376 130.369475 
L 92.562161 128.888442 
L 93.07178 127.407409 
L 93.627135 125.926376 
L 94.220421 124.445343 
L 94.843404 122.96431 
L 95.487677 121.483277 
L 96.144893 120.002244 
L 96.806993 118.521211 
L 97.466432 117.040178 
L 98.116413 115.559145 
L 98.751137 114.078112 
L 99.366018 112.597079 
L 99.957868 111.116046 
L 100.524982 109.635013 
L 101.06711 108.15398 
L 101.585281 106.672947 
L 102.081494 105.191914 
L 102.558289 103.710881 
L 103.01825 102.229848 
L 103.463518 100.748815 
L 103.895362 99.267782 
L 104.313882 97.786749 
L 104.717885 96.305716 
L 105.104943 94.824683 
L 105.471623 93.34365 
L 105.813858 91.862617 
L 106.12738 90.381584 
L 106.408192 88.900551 
L 106.65298 87.419518 
L 106.859462 85.938485 
L 107.026619 84.457452 
L 107.154811 82.976419 
L 107.245783 81.495386 
L 107.302581 80.014353 
L 107.329386 78.53332 
L 107.331293 77.052287 
L 107.314048 75.571254 
L 107.283758 74.090221 
L 107.246579 72.609188 
L 107.208403 71.128155 
L 107.174557 69.647122 
L 107.149526 68.166089 
L 107.136734 66.685056 
L 107.138396 65.204023 
L 107.155456 63.72299 
L 108.844544 63.72299 
L 108.844544 63.72299 
L 108.861604 65.204023 
L 108.863266 66.685056 
L 108.850474 68.166089 
L 108.825443 69.647122 
L 108.791597 71.128155 
L 108.753421 72.609188 
L 108.716242 74.090221 
L 108.685952 75.571254 
L 108.668707 77.052287 
L 108.670614 78.53332 
L 108.697419 80.014353 
L 108.754217 81.495386 
L 108.845189 82.976419 
L 108.973381 84.457452 
L 109.140538 85.938485 
L 109.34702 87.419518 
L 109.591808 88.900551 
L 109.87262 90.381584 
L 110.186142 91.862617 
L 110.528377 93.34365 
L 110.895057 94.824683 
L 111.282115 96.305716 
L 111.686118 97.786749 
L 112.104638 99.267782 
L 112.536482 100.748815 
L 112.98175 102.229848 
L 113.441711 103.710881 
L 113.918506 105.191914 
L 114.414719 106.672947 
L 114.93289 108.15398 
L 115.475018 109.635013 
L 116.042132 111.116046 
L 116.633982 112.597079 
L 117.248863 114.078112 
L 117.883587 115.559145 
L 118.533568 117.040178 
L 119.193007 118.521211 
L 119.855107 120.002244 
L 120.512323 121.483277 
L 121.156596 122.96431 
L 121.779579 124.445343 
L 122.372865 125.926376 
L 122.92822 127.407409 
L 123.437839 128.888442 
L 123.894624 130.369475 
L 124.292472 131.850508 
L 124.626531 133.331541 
L 124.89341 134.812574 
L 125.091274 136.293607 
L 125.219804 137.77464 
L 125.28 139.255673 
L 125.273845 140.736706 
L 125.203862 142.217739 
L 125.072626 143.698772 
L 124.88233 145.179805 
L 124.634459 146.660838 
L 124.329664 148.141871 
L 123.967859 149.622904 
L 123.548557 151.103937 
L 123.071393 152.58497 
L 122.536762 154.066003 
L 121.946479 155.547036 
L 121.30434 157.028069 
L 120.616501 158.509102 
L 119.891588 159.990135 
L 119.140516 161.471168 
L 118.376024 162.952201 
L 117.611973 164.433234 
L 116.862492 165.914267 
L 116.141068 167.3953 
L 115.459685 168.876333 
L 114.828092 170.357366 
L 114.253276 171.838399 
L 113.73918 173.319432 
L 113.286666 174.800465 
L 112.89372 176.281498 
L 112.555855 177.762531 
L 112.266668 179.243564 
L 112.018478 180.724597 
L 111.803006 182.20563 
L 111.612021 183.686663 
L 111.437901 185.167696 
L 111.274088 186.648729 
L 111.115378 188.129762 
L 110.958069 189.610795 
L 110.799947 191.091828 
L 110.640142 192.572861 
L 110.478878 194.053894 
L 110.317173 195.534927 
L 110.156505 197.01596 
L 109.998511 198.496993 
L 109.844726 199.978026 
L 109.696403 201.459059 
L 109.55441 202.940092 
L 109.419205 204.421125 
L 109.290882 205.902158 
L 109.169263 207.383191 
L 109.054012 208.864224 
L 108.944759 210.345257 
L 108.944759 210.345257 
z
" clip-path="url(#pb5004b5de1)" style="fill: none; stroke: #000000; stroke-opacity: 0.3"/>
   </g>
   <g id="FillBetweenPolyCollection_9">
    <path d="M 109.792974 225.584141 
L 106.207026 225.584141 
L 105.988912 223.715477 
L 105.750303 221.846813 
L 105.48747 219.978149 
L 105.196411 218.109485 
L 104.873247 216.240821 
L 104.514704 214.372157 
L 104.118609 212.503493 
L 103.684363 210.634829 
L 103.213313 208.766165 
L 102.70896 206.897501 
L 102.176973 205.028837 
L 101.624964 203.160173 
L 101.062047 201.291509 
L 100.498205 199.422845 
L 99.943526 197.554181 
L 99.407392 195.685517 
L 98.897699 193.816853 
L 98.420216 191.948189 
L 97.978138 190.079525 
L 97.571894 188.210861 
L 97.199221 186.342197 
L 96.855501 184.473533 
L 96.534312 182.604869 
L 96.228119 180.736205 
L 95.929039 178.867541 
L 95.629585 176.998877 
L 95.323329 175.130213 
L 95.005408 173.261549 
L 94.672862 171.392885 
L 94.324783 169.524221 
L 93.962298 167.655557 
L 93.588416 165.786893 
L 93.207794 163.918229 
L 92.826456 162.049565 
L 92.451518 160.180901 
L 92.090933 158.312237 
L 91.753279 156.443573 
L 91.447574 154.57491 
L 91.183096 152.706246 
L 90.969196 150.837582 
L 90.81505 148.968918 
L 90.729363 147.100254 
L 90.72 145.23159 
L 90.793571 143.362926 
L 90.955001 141.494262 
L 91.207126 139.625598 
L 91.550372 137.756934 
L 91.982556 135.88827 
L 92.498849 134.019606 
L 93.091911 132.150942 
L 93.752189 130.282278 
L 94.468367 128.413614 
L 95.227895 126.54495 
L 96.017583 124.676286 
L 96.824172 122.807622 
L 97.634859 120.938958 
L 98.437739 119.070294 
L 99.222129 117.20163 
L 99.978793 115.332966 
L 100.70006 113.464302 
L 101.379855 111.595638 
L 102.013669 109.726974 
L 102.598486 107.85831 
L 103.132677 105.989646 
L 103.615887 104.120982 
L 104.048901 102.252318 
L 104.433511 100.383654 
L 104.772366 98.51499 
L 105.06881 96.646326 
L 105.326713 94.777662 
L 105.550279 92.908998 
L 105.743856 91.040334 
L 105.911749 89.17167 
L 106.058033 87.303006 
L 106.186407 85.434342 
L 106.300069 83.565678 
L 106.40164 81.697014 
L 106.493135 79.82835 
L 106.575985 77.959686 
L 106.651103 76.091022 
L 106.718986 74.222358 
L 106.779841 72.353694 
L 106.833725 70.48503 
L 106.880677 68.616366 
L 106.92083 66.747702 
L 106.954504 64.879038 
L 106.982253 63.010374 
L 107.004886 61.14171 
L 107.023449 59.273046 
L 107.039181 57.404382 
L 107.05345 55.535718 
L 107.067675 53.667054 
L 107.083245 51.79839 
L 107.101443 49.929726 
L 107.123368 48.061062 
L 107.149879 46.192398 
L 107.181545 44.323734 
L 107.218614 42.45507 
L 107.261001 40.586406 
L 108.738999 40.586406 
L 108.738999 40.586406 
L 108.781386 42.45507 
L 108.818455 44.323734 
L 108.850121 46.192398 
L 108.876632 48.061062 
L 108.898557 49.929726 
L 108.916755 51.79839 
L 108.932325 53.667054 
L 108.94655 55.535718 
L 108.960819 57.404382 
L 108.976551 59.273046 
L 108.995114 61.14171 
L 109.017747 63.010374 
L 109.045496 64.879038 
L 109.07917 66.747702 
L 109.119323 68.616366 
L 109.166275 70.48503 
L 109.220159 72.353694 
L 109.281014 74.222358 
L 109.348897 76.091022 
L 109.424015 77.959686 
L 109.506865 79.82835 
L 109.59836 81.697014 
L 109.699931 83.565678 
L 109.813593 85.434342 
L 109.941967 87.303006 
L 110.088251 89.17167 
L 110.256144 91.040334 
L 110.449721 92.908998 
L 110.673287 94.777662 
L 110.93119 96.646326 
L 111.227634 98.51499 
L 111.566489 100.383654 
L 111.951099 102.252318 
L 112.384113 104.120982 
L 112.867323 105.989646 
L 113.401514 107.85831 
L 113.986331 109.726974 
L 114.620145 111.595638 
L 115.29994 113.464302 
L 116.021207 115.332966 
L 116.777871 117.20163 
L 117.562261 119.070294 
L 118.365141 120.938958 
L 119.175828 122.807622 
L 119.982417 124.676286 
L 120.772105 126.54495 
L 121.531633 128.413614 
L 122.247811 130.282278 
L 122.908089 132.150942 
L 123.501151 134.019606 
L 124.017444 135.88827 
L 124.449628 137.756934 
L 124.792874 139.625598 
L 125.044999 141.494262 
L 125.206429 143.362926 
L 125.28 145.23159 
L 125.270637 147.100254 
L 125.18495 148.968918 
L 125.030804 150.837582 
L 124.816904 152.706246 
L 124.552426 154.57491 
L 124.246721 156.443573 
L 123.909067 158.312237 
L 123.548482 160.180901 
L 123.173544 162.049565 
L 122.792206 163.918229 
L 122.411584 165.786893 
L 122.037702 167.655557 
L 121.675217 169.524221 
L 121.327138 171.392885 
L 120.994592 173.261549 
L 120.676671 175.130213 
L 120.370415 176.998877 
L 120.070961 178.867541 
L 119.771881 180.736205 
L 119.465688 182.604869 
L 119.144499 184.473533 
L 118.800779 186.342197 
L 118.428106 188.210861 
L 118.021862 190.079525 
L 117.579784 191.948189 
L 117.102301 193.816853 
L 116.592608 195.685517 
L 116.056474 197.554181 
L 115.501795 199.422845 
L 114.937953 201.291509 
L 114.375036 203.160173 
L 113.823027 205.028837 
L 113.29104 206.897501 
L 112.786687 208.766165 
L 112.315637 210.634829 
L 111.881391 212.503493 
L 111.485296 214.372157 
L 111.126753 216.240821 
L 110.803589 218.109485 
L 110.51253 219.978149 
L 110.249697 221.846813 
L 110.011088 223.715477 
L 109.792974 225.584141 
L 109.792974 225.584141 
z
" clip-path="url(#pb5004b5de1)" style="fill: none; stroke: #000000; stroke-opacity: 0.3"/>
   </g>
   <g id="FillBetweenPolyCollection_10">
    <path d="M 108.615018 205.757641 
L 107.384982 205.757641 
L 107.291174 204.323 
L 107.186359 202.888358 
L 107.068916 201.453717 
L 106.937257 200.019075 
L 106.790022 198.584434 
L 106.626271 197.149792 
L 106.445622 195.715151 
L 106.248309 194.280509 
L 106.035132 192.845868 
L 105.807295 191.411226 
L 105.566152 189.976585 
L 105.31289 188.541943 
L 105.0482 187.107302 
L 104.772004 185.67266 
L 104.483293 184.238019 
L 104.180113 182.803377 
L 103.859713 181.368736 
L 103.518855 179.934094 
L 103.15422 178.499453 
L 102.76285 177.064811 
L 102.342535 175.63017 
L 101.892084 174.195529 
L 101.411422 172.760887 
L 100.901523 171.326246 
L 100.364203 169.891604 
L 99.801866 168.456963 
L 99.217279 167.022321 
L 98.613452 165.58768 
L 97.993672 164.153038 
L 97.361663 162.718397 
L 96.721825 161.283755 
L 96.079447 159.849114 
L 95.440804 158.414472 
L 94.813082 156.979831 
L 94.204111 155.545189 
L 93.621962 154.110548 
L 93.074515 152.675906 
L 92.569112 151.241265 
L 92.112388 149.806623 
L 91.710326 148.371982 
L 91.368517 146.93734 
L 91.092516 145.502699 
L 90.888169 144.068057 
L 90.761778 142.633416 
L 90.72 141.198774 
L 90.769449 139.764133 
L 90.91604 138.329491 
L 91.164187 136.89485 
L 91.515977 135.460208 
L 91.970481 134.025567 
L 92.523304 132.590925 
L 93.166457 131.156284 
L 93.88855 129.721642 
L 94.675313 128.287001 
L 95.510344 126.852359 
L 96.376039 125.417718 
L 97.254588 123.983076 
L 98.12895 122.548435 
L 98.983718 121.113793 
L 99.805799 119.679152 
L 100.584841 118.24451 
L 101.313391 116.809869 
L 101.986772 115.375227 
L 102.602733 113.940586 
L 103.160927 112.505944 
L 103.662317 111.071303 
L 104.108606 109.636661 
L 104.501776 108.20202 
L 104.843797 106.767378 
L 105.136533 105.332737 
L 105.381826 103.898095 
L 105.581711 102.463454 
L 105.738691 101.028812 
L 105.855984 99.594171 
L 105.937682 98.159529 
L 105.98876 96.724888 
L 106.014929 95.290246 
L 106.022357 93.855605 
L 106.017286 92.420963 
L 106.005623 90.986322 
L 105.992576 89.55168 
L 105.982376 88.117039 
L 105.978135 86.682397 
L 105.981841 85.247756 
L 105.994487 83.813115 
L 106.016294 82.378473 
L 106.04698 80.943832 
L 106.086035 79.50919 
L 106.132962 78.074549 
L 106.187434 76.639907 
L 106.249367 75.205266 
L 106.3189 73.770624 
L 106.396285 72.335983 
L 106.481735 70.901341 
L 106.575236 69.4667 
L 106.676379 68.032058 
L 106.784244 66.597417 
L 106.897353 65.162775 
L 107.013712 63.728134 
L 108.986288 63.728134 
L 108.986288 63.728134 
L 109.102647 65.162775 
L 109.215756 66.597417 
L 109.323621 68.032058 
L 109.424764 69.4667 
L 109.518265 70.901341 
L 109.603715 72.335983 
L 109.6811 73.770624 
L 109.750633 75.205266 
L 109.812566 76.639907 
L 109.867038 78.074549 
L 109.913965 79.50919 
L 109.95302 80.943832 
L 109.983706 82.378473 
L 110.005513 83.813115 
L 110.018159 85.247756 
L 110.021865 86.682397 
L 110.017624 88.117039 
L 110.007424 89.55168 
L 109.994377 90.986322 
L 109.982714 92.420963 
L 109.977643 93.855605 
L 109.985071 95.290246 
L 110.01124 96.724888 
L 110.062318 98.159529 
L 110.144016 99.594171 
L 110.261309 101.028812 
L 110.418289 102.463454 
L 110.618174 103.898095 
L 110.863467 105.332737 
L 111.156203 106.767378 
L 111.498224 108.20202 
L 111.891394 109.636661 
L 112.337683 111.071303 
L 112.839073 112.505944 
L 113.397267 113.940586 
L 114.013228 115.375227 
L 114.686609 116.809869 
L 115.415159 118.24451 
L 116.194201 119.679152 
L 117.016282 121.113793 
L 117.87105 122.548435 
L 118.745412 123.983076 
L 119.623961 125.417718 
L 120.489656 126.852359 
L 121.324687 128.287001 
L 122.11145 129.721642 
L 122.833543 131.156284 
L 123.476696 132.590925 
L 124.029519 134.025567 
L 124.484023 135.460208 
L 124.835813 136.89485 
L 125.08396 138.329491 
L 125.230551 139.764133 
L 125.28 141.198774 
L 125.238222 142.633416 
L 125.111831 144.068057 
L 124.907484 145.502699 
L 124.631483 146.93734 
L 124.289674 148.371982 
L 123.887612 149.806623 
L 123.430888 151.241265 
L 122.925485 152.675906 
L 122.378038 154.110548 
L 121.795889 155.545189 
L 121.186918 156.979831 
L 120.559196 158.414472 
L 119.920553 159.849114 
L 119.278175 161.283755 
L 118.638337 162.718397 
L 118.006328 164.153038 
L 117.386548 165.58768 
L 116.782721 167.022321 
L 116.198134 168.456963 
L 115.635797 169.891604 
L 115.098477 171.326246 
L 114.588578 172.760887 
L 114.107916 174.195529 
L 113.657465 175.63017 
L 113.23715 177.064811 
L 112.84578 178.499453 
L 112.481145 179.934094 
L 112.140287 181.368736 
L 111.819887 182.803377 
L 111.516707 184.238019 
L 111.227996 185.67266 
L 110.9518 187.107302 
L 110.68711 188.541943 
L 110.433848 189.976585 
L 110.192705 191.411226 
L 109.964868 192.845868 
L 109.751691 194.280509 
L 109.554378 195.715151 
L 109.373729 197.149792 
L 109.209978 198.584434 
L 109.062743 200.019075 
L 108.931084 201.453717 
L 108.813641 202.888358 
L 108.708826 204.323 
L 108.615018 205.757641 
L 108.615018 205.757641 
z
" clip-path="url(#pb5004b5de1)" style="fill: none; stroke: #000000; stroke-opacity: 0.3"/>
   </g>
   <g id="FillBetweenPolyCollection_11">
    <path d="M 111.287445 184.972262 
L 104.712555 184.972262 
L 104.378089 183.799893 
L 104.033787 182.627525 
L 103.681831 181.455157 
L 103.324471 180.282789 
L 102.963949 179.110421 
L 102.602416 177.938053 
L 102.241816 176.765685 
L 101.88378 175.593317 
L 101.529507 174.420949 
L 101.179658 173.24858 
L 100.83428 172.076212 
L 100.49277 170.903844 
L 100.153883 169.731476 
L 99.815806 168.559108 
L 99.476287 167.38674 
L 99.13281 166.214372 
L 98.78282 165.042004 
L 98.423953 163.869636 
L 98.054269 162.697268 
L 97.672456 161.524899 
L 97.277985 160.352531 
L 96.871199 159.180163 
L 96.453334 158.007795 
L 96.026463 156.835427 
L 95.593383 155.663059 
L 95.157454 154.490691 
L 94.72241 153.318323 
L 94.292168 152.145955 
L 93.87066 150.973586 
L 93.461697 149.801218 
L 93.068884 148.62885 
L 92.695589 147.456482 
L 92.344963 146.284114 
L 92.020005 145.111746 
L 91.723648 143.939378 
L 91.458863 142.76701 
L 91.228751 141.594642 
L 91.0366 140.422273 
L 90.885917 139.249905 
L 90.780393 138.077537 
L 90.723829 136.905169 
L 90.72 135.732801 
L 90.772489 134.560433 
L 90.884485 133.388065 
L 91.058578 132.215697 
L 91.296558 131.043329 
L 91.599239 129.870961 
L 91.966325 128.698592 
L 92.396326 127.526224 
L 92.886526 126.353856 
L 93.433015 125.181488 
L 94.030772 124.00912 
L 94.673787 122.836752 
L 95.355235 121.664384 
L 96.067659 120.492016 
L 96.803179 119.319648 
L 97.553701 118.147279 
L 98.311122 116.974911 
L 99.067522 115.802543 
L 99.815336 114.630175 
L 100.547511 113.457807 
L 101.257633 112.285439 
L 101.940026 111.113071 
L 102.589833 109.940703 
L 103.203059 108.768335 
L 103.776595 107.595966 
L 104.308216 106.423598 
L 104.796549 105.25123 
L 105.24103 104.078862 
L 105.641832 102.906494 
L 105.999786 101.734126 
L 106.31628 100.561758 
L 106.593163 99.38939 
L 106.832633 98.217022 
L 107.037135 97.044653 
L 107.209254 95.872285 
L 107.351628 94.699917 
L 107.466863 93.527549 
L 107.557471 92.355181 
L 107.62582 91.182813 
L 107.674113 90.010445 
L 107.704375 88.838077 
L 107.718469 87.665709 
L 107.71812 86.493341 
L 107.704965 85.320972 
L 107.680595 84.148604 
L 107.64661 82.976236 
L 107.604666 81.803868 
L 107.55651 80.6315 
L 107.504003 79.459132 
L 107.449118 78.286764 
L 107.393919 77.114396 
L 107.340511 75.942028 
L 107.290981 74.769659 
L 107.24731 73.597291 
L 107.211291 72.424923 
L 107.184435 71.252555 
L 107.167895 70.080187 
L 107.162398 68.907819 
L 108.837602 68.907819 
L 108.837602 68.907819 
L 108.832105 70.080187 
L 108.815565 71.252555 
L 108.788709 72.424923 
L 108.75269 73.597291 
L 108.709019 74.769659 
L 108.659489 75.942028 
L 108.606081 77.114396 
L 108.550882 78.286764 
L 108.495997 79.459132 
L 108.44349 80.6315 
L 108.395334 81.803868 
L 108.35339 82.976236 
L 108.319405 84.148604 
L 108.295035 85.320972 
L 108.28188 86.493341 
L 108.281531 87.665709 
L 108.295625 88.838077 
L 108.325887 90.010445 
L 108.37418 91.182813 
L 108.442529 92.355181 
L 108.533137 93.527549 
L 108.648372 94.699917 
L 108.790746 95.872285 
L 108.962865 97.044653 
L 109.167367 98.217022 
L 109.406837 99.38939 
L 109.68372 100.561758 
L 110.000214 101.734126 
L 110.358168 102.906494 
L 110.75897 104.078862 
L 111.203451 105.25123 
L 111.691784 106.423598 
L 112.223405 107.595966 
L 112.796941 108.768335 
L 113.410167 109.940703 
L 114.059974 111.113071 
L 114.742367 112.285439 
L 115.452489 113.457807 
L 116.184664 114.630175 
L 116.932478 115.802543 
L 117.688878 116.974911 
L 118.446299 118.147279 
L 119.196821 119.319648 
L 119.932341 120.492016 
L 120.644765 121.664384 
L 121.326213 122.836752 
L 121.969228 124.00912 
L 122.566985 125.181488 
L 123.113474 126.353856 
L 123.603674 127.526224 
L 124.033675 128.698592 
L 124.400761 129.870961 
L 124.703442 131.043329 
L 124.941422 132.215697 
L 125.115515 133.388065 
L 125.227511 134.560433 
L 125.28 135.732801 
L 125.276171 136.905169 
L 125.219607 138.077537 
L 125.114083 139.249905 
L 124.9634 140.422273 
L 124.771249 141.594642 
L 124.541137 142.76701 
L 124.276352 143.939378 
L 123.979995 145.111746 
L 123.655037 146.284114 
L 123.304411 147.456482 
L 122.931116 148.62885 
L 122.538303 149.801218 
L 122.12934 150.973586 
L 121.707832 152.145955 
L 121.27759 153.318323 
L 120.842546 154.490691 
L 120.406617 155.663059 
L 119.973537 156.835427 
L 119.546666 158.007795 
L 119.128801 159.180163 
L 118.722015 160.352531 
L 118.327544 161.524899 
L 117.945731 162.697268 
L 117.576047 163.869636 
L 117.21718 165.042004 
L 116.86719 166.214372 
L 116.523713 167.38674 
L 116.184194 168.559108 
L 115.846117 169.731476 
L 115.50723 170.903844 
L 115.16572 172.076212 
L 114.820342 173.24858 
L 114.470493 174.420949 
L 114.11622 175.593317 
L 113.758184 176.765685 
L 113.397584 177.938053 
L 113.036051 179.110421 
L 112.675529 180.282789 
L 112.318169 181.455157 
L 111.966213 182.627525 
L 111.621911 183.799893 
L 111.287445 184.972262 
L 111.287445 184.972262 
z
" clip-path="url(#pb5004b5de1)" style="fill: none; stroke: #000000; stroke-opacity: 0.3"/>
   </g>
   <g id="matplotlib.axis_1">
    <g id="xtick_1">
     <g id="line2d_1">
      <defs>
       <path id="m93b19b728b" d="M 0 0 
L 0 3.5 
" style="stroke: #000000; stroke-width: 0.8"/>
      </defs>
      <g>
       <use xlink:href="#m93b19b728b" x="50.4" y="291.6" style="stroke: #000000; stroke-width: 0.8"/>
      </g>
     </g>
     <g id="text_1">
      <text style="font-size: 10px; font-family: 'DejaVu Sans', 'Bitstream Vera Sans', 'Computer Modern Sans Serif', 'Lucida Grande', 'Verdana', 'Geneva', 'Lucid', 'Arial', 'Helvetica', 'Avant Garde', sans-serif; text-anchor: middle" x="50.4" y="306.198438" transform="rotate(-0 50.4 306.198438)">0.3</text>
     </g>
    </g>
    <g id="xtick_2">
     <g id="line2d_2">
      <g>
       <use xlink:href="#m93b19b728b" x="108" y="291.6" style="stroke: #000000; stroke-width: 0.8"/>
      </g>
     </g>
     <g id="text_2">
      <text style="font-size: 10px; font-family: 'DejaVu Sans', 'Bitstream Vera Sans', 'Computer Modern Sans Serif', 'Lucida Grande', 'Verdana', 'Geneva', 'Lucid', 'Arial', 'Helvetica', 'Avant Garde', sans-serif; text-anchor: middle" x="108" y="306.198438" transform="rotate(-0 108 306.198438)">0.6</text>
     </g>
    </g>
   </g>
   <g id="matplotlib.axis_2">
    <g id="ytick_1">
     <g id="line2d_3">
      <defs>
       <path id="mab08f167ac" d="M 0 0 
L -3.5 0 
" style="stroke: #000000; stroke-width: 0.8"/>
      </defs>
      <g>
       <use xlink:href="#mab08f167ac" x="21.6" y="291.6" style="stroke: #000000; stroke-width: 0.8"/>
      </g>
     </g>
    </g>
    <g id="ytick_2">
     <g id="line2d_4">
      <g>
       <use xlink:href="#mab08f167ac" x="21.6" y="199.8" style="stroke: #000000; stroke-width: 0.8"/>
      </g>
     </g>
    </g>
    <g id="ytick_3">
     <g id="line2d_5">
      <g>
       <use xlink:href="#mab08f167ac" x="21.6" y="108" style="stroke: #000000; stroke-width: 0.8"/>
      </g>
     </g>
    </g>
    <g id="ytick_4">
     <g id="line2d_6">
      <g>
       <use xlink:href="#mab08f167ac" x="21.6" y="16.2" style="stroke: #000000; stroke-width: 0.8"/>
      </g>
     </g>
    </g>
   </g>
   <g id="line2d_7">
    <path d="M 50.4 269.568 
L 50.4 264.06 
" clip-path="url(#pb5004b5de1)" style="fill: none; stroke: #000000; stroke-linecap: square"/>
   </g>
   <g id="line2d_8">
    <path d="M 50.4 269.568 
L 108 269.568 
" clip-path="url(#pb5004b5de1)" style="fill: none; stroke: #000000; stroke-linecap: square"/>
   </g>
   <g id="line2d_9">
    <path d="M 108 269.568 
L 108 264.06 
" clip-path="url(#pb5004b5de1)" style="fill: none; stroke: #000000; stroke-linecap: square"/>
   </g>
   <g id="patch_3">
    <path d="M 21.6 291.6 
L 21.6 16.2 
" style="fill: none; stroke: #000000; stroke-width: 0.8; stroke-linejoin: miter; stroke-linecap: square"/>
   </g>
   <g id="patch_4">
    <path d="M 136.8 291.6 
L 136.8 16.2 
" style="fill: none; stroke: #000000; stroke-width: 0.8; stroke-linejoin: miter; stroke-linecap: square"/>
   </g>
   <g id="patch_5">
    <path d="M 21.6 291.6 
L 136.8 291.6 
" style="fill: none; stroke: #000000; stroke-width: 0.8; stroke-linejoin: miter; stroke-linecap: square"/>
   </g>
   <g id="patch_6">
    <path d="M 21.6 16.2 
L 136.8 16.2 
" style="fill: none; stroke: #000000; stroke-width: 0.8; stroke-linejoin: miter; stroke-linecap: square"/>
   </g>
   <g id="text_3">
    <text style="font-weight: 700; font-size: 12px; font-family: 'DejaVu Sans', 'Bitstream Vera Sans', 'Computer Modern Sans Serif', 'Lucida Grande', 'Verdana', 'Geneva', 'Lucid', 'Arial', 'Helvetica', 'Avant Garde', sans-serif; text-anchor: middle" x="50.4" y="289.104375" transform="rotate(-0 50.4 289.104375)">#10</text>
   </g>
   <g id="text_4">
    <text style="font-weight: 700; font-size: 12px; font-family: 'DejaVu Sans', 'Bitstream Vera Sans', 'Computer Modern Sans Serif', 'Lucida Grande', 'Verdana', 'Geneva', 'Lucid', 'Arial', 'Helvetica', 'Avant Garde', sans-serif; text-anchor: middle" x="108" y="289.104375" transform="rotate(-0 108 289.104375)">#24</text>
   </g>
   <g id="text_5">
    <text style="font-size: 12px; font-family: 'DejaVu Sans', 'Bitstream Vera Sans', 'Computer Modern Sans Serif', 'Lucida Grande', 'Verdana', 'Geneva', 'Lucid', 'Arial', 'Helvetica', 'Avant Garde', sans-serif; text-anchor: middle" x="79.2" y="268.449375" transform="rotate(-0 79.2 268.449375)">***</text>
   </g>
   <g id="line2d_10">
    <path d="M 21.6 123.792773 
L 136.8 123.792773 
" clip-path="url(#pb5004b5de1)" style="fill: none; stroke-dasharray: 3.7,1.6; stroke-dashoffset: 0; stroke: #808080; stroke-opacity: 0.7"/>
   </g>
   <g id="line2d_11">
    <path d="M 21.6 145.516875 
L 136.8 145.516875 
" clip-path="url(#pb5004b5de1)" style="fill: none; stroke-dasharray: 3.7,1.6; stroke-dashoffset: 0; stroke: #808080; stroke-opacity: 0.7"/>
   </g>
   <g id="LineCollection_1">
    <path d="M 50.4 126.095257 
L 50.4 121.49029 
" clip-path="url(#pb5004b5de1)" style="fill: none; stroke: #000000; stroke-width: 2"/>
   </g>
   <g id="line2d_12">
    <defs>
     <path id="m182c545d6a" d="M 5 0 
L -5 -0 
" style="stroke: #000000; stroke-width: 2"/>
    </defs>
    <g clip-path="url(#pb5004b5de1)">
     <use xlink:href="#m182c545d6a" x="50.4" y="126.095257" style="stroke: #000000; stroke-width: 2"/>
    </g>
   </g>
   <g id="line2d_13">
    <g clip-path="url(#pb5004b5de1)">
     <use xlink:href="#m182c545d6a" x="50.4" y="121.49029" style="stroke: #000000; stroke-width: 2"/>
    </g>
   </g>
   <g id="LineCollection_2">
    <path d="M 108 151.985913 
L 108 139.047838 
" clip-path="url(#pb5004b5de1)" style="fill: none; stroke: #000000; stroke-width: 2"/>
   </g>
   <g id="line2d_14">
    <g clip-path="url(#pb5004b5de1)">
     <use xlink:href="#m182c545d6a" x="108" y="151.985913" style="stroke: #000000; stroke-width: 2"/>
    </g>
   </g>
   <g id="line2d_15">
    <g clip-path="url(#pb5004b5de1)">
     <use xlink:href="#m182c545d6a" x="108" y="139.047838" style="stroke: #000000; stroke-width: 2"/>
    </g>
   </g>
   <g id="line2d_16">
    <defs>
     <path id="m04134e5a44" d="M 0 4 
C 1.060812 4 2.078319 3.578535 2.828427 2.828427 
C 3.578535 2.078319 4 1.060812 4 0 
C 4 -1.060812 3.578535 -2.078319 2.828427 -2.828427 
C 2.078319 -3.578535 1.060812 -4 0 -4 
C -1.060812 -4 -2.078319 -3.578535 -2.828427 -2.828427 
C -3.578535 -2.078319 -4 -1.060812 -4 0 
C -4 1.060812 -3.578535 2.078319 -2.828427 2.828427 
C -2.078319 3.578535 -1.060812 4 0 4 
z
" style="stroke: #000000"/>
    </defs>
    <g clip-path="url(#pb5004b5de1)">
     <use xlink:href="#m04134e5a44" x="50.4" y="123.792773" style="stroke: #000000"/>
    </g>
   </g>
   <g id="line2d_17">
    <g clip-path="url(#pb5004b5de1)">
     <use xlink:href="#m04134e5a44" x="108" y="145.516875" style="stroke: #000000"/>
    </g>
   </g>
  </g>
 </g>
 <defs>
  <clipPath id="pb5004b5de1">
   <rect x="21.6" y="16.2" width="115.2" height="275.4"/>
  </clipPath>
 </defs>
</svg>
