<?xml version="1.0" encoding="utf-8" standalone="no"?>
<!DOCTYPE svg PUBLIC "-//W3C//DTD SVG 1.1//EN"
  "http://www.w3.org/Graphics/SVG/1.1/DTD/svg11.dtd">
<svg xmlns:xlink="http://www.w3.org/1999/xlink" width="144pt" height="324pt" viewBox="0 0 144 324" xmlns="http://www.w3.org/2000/svg" version="1.1">
 <metadata>
  <rdf:RDF xmlns:dc="http://purl.org/dc/elements/1.1/" xmlns:cc="http://creativecommons.org/ns#" xmlns:rdf="http://www.w3.org/1999/02/22-rdf-syntax-ns#">
   <cc:Work>
    <dc:type rdf:resource="http://purl.org/dc/dcmitype/StillImage"/>
    <dc:date>2025-12-11T09:10:01.803073</dc:date>
    <dc:format>image/svg+xml</dc:format>
    <dc:creator>
     <cc:Agent>
      <dc:title>Matplotlib v3.10.0, https://matplotlib.org/</dc:title>
     </cc:Agent>
    </dc:creator>
   </cc:Work>
  </rdf:RDF>
 </metadata>
 <defs>
  <style type="text/css">*{stroke-linejoin: round; stroke-linecap: butt}</style>
 </defs>
 <g id="figure_1">
  <g id="patch_1">
   <path d="M 0 324 
L 144 324 
L 144 0 
L 0 0 
z
" style="fill: #ffffff"/>
  </g>
  <g id="axes_1">
   <g id="patch_2">
    <path d="M 21.6 291.6 
L 136.8 291.6 
L 136.8 16.2 
L 21.6 16.2 
z
" style="fill: #ffffff"/>
   </g>
   <g id="FillBetweenPolyCollection_1">
    <path d="M 51.225762 209.640858 
L 49.574238 209.640858 
L 49.5385 208.53431 
L 49.512454 207.427763 
L 49.495759 206.321215 
L 49.48741 205.214668 
L 49.485829 204.10812 
L 49.489011 203.001573 
L 49.494716 201.895026 
L 49.500665 200.788478 
L 49.504737 199.681931 
L 49.50513 198.575383 
L 49.500497 197.468836 
L 49.490017 196.362288 
L 49.473425 195.255741 
L 49.45099 194.149194 
L 49.423456 193.042646 
L 49.391936 191.936099 
L 49.357793 190.829551 
L 49.322492 189.723004 
L 49.287442 188.616456 
L 49.253841 187.509909 
L 49.222529 186.403361 
L 49.193862 185.296814 
L 49.167621 184.190267 
L 49.142961 183.083719 
L 49.118413 181.977172 
L 49.091932 180.870624 
L 49.060984 179.764077 
L 49.022666 178.657529 
L 48.973834 177.550982 
L 48.911242 176.444435 
L 48.831642 175.337887 
L 48.731883 174.23134 
L 48.608964 173.124792 
L 48.460076 172.018245 
L 48.282619 170.911697 
L 48.07423 169.80515 
L 47.832801 168.698603 
L 47.556528 167.592055 
L 47.243962 166.485508 
L 46.894091 165.37896 
L 46.506416 164.272413 
L 46.081032 163.165865 
L 45.618703 162.059318 
L 45.120906 160.95277 
L 44.589849 159.846223 
L 44.028453 158.739676 
L 43.440291 157.633128 
L 42.829484 156.526581 
L 42.200568 155.420033 
L 41.558328 154.313486 
L 40.907617 153.206938 
L 40.253192 152.100391 
L 39.599576 150.993844 
L 38.950978 149.887296 
L 38.3113 148.780749 
L 37.684235 147.674201 
L 37.073452 146.567654 
L 36.482872 145.461106 
L 35.916972 144.354559 
L 35.381083 143.248011 
L 34.881607 142.141464 
L 34.42611 141.034917 
L 34.023216 139.928369 
L 33.682308 138.821822 
L 33.413008 137.715274 
L 33.224512 136.608727 
L 33.124823 135.502179 
L 33.12 134.395632 
L 33.21351 133.289085 
L 33.405787 132.182537 
L 33.694063 131.07599 
L 34.07249 129.969442 
L 34.532555 128.862895 
L 35.063717 127.756347 
L 35.654183 126.6498 
L 36.29172 125.543253 
L 36.964403 124.436705 
L 37.661209 123.330158 
L 38.37241 122.22361 
L 39.089744 121.117063 
L 39.806396 120.010515 
L 40.516808 118.903968 
L 41.216418 117.79742 
L 41.901361 116.690873 
L 42.568215 115.584326 
L 43.213813 114.477778 
L 43.835158 113.371231 
L 44.429426 112.264683 
L 44.994043 111.158136 
L 45.526804 110.051588 
L 46.026009 108.945041 
L 46.490567 107.838494 
L 46.920061 106.731946 
L 47.314753 105.625399 
L 47.675534 104.518851 
L 48.00382 103.412304 
L 48.301409 102.305756 
L 48.570335 101.199209 
L 48.812713 100.092662 
L 51.987287 100.092662 
L 51.987287 100.092662 
L 52.229665 101.199209 
L 52.498591 102.305756 
L 52.79618 103.412304 
L 53.124466 104.518851 
L 53.485247 105.625399 
L 53.879939 106.731946 
L 54.309433 107.838494 
L 54.773991 108.945041 
L 55.273196 110.051588 
L 55.805957 111.158136 
L 56.370574 112.264683 
L 56.964842 113.371231 
L 57.586187 114.477778 
L 58.231785 115.584326 
L 58.898639 116.690873 
L 59.583582 117.79742 
L 60.283192 118.903968 
L 60.993604 120.010515 
L 61.710256 121.117063 
L 62.42759 122.22361 
L 63.138791 123.330158 
L 63.835597 124.436705 
L 64.50828 125.543253 
L 65.145817 126.6498 
L 65.736283 127.756347 
L 66.267445 128.862895 
L 66.72751 129.969442 
L 67.105937 131.07599 
L 67.394213 132.182537 
L 67.58649 133.289085 
L 67.68 134.395632 
L 67.675177 135.502179 
L 67.575488 136.608727 
L 67.386992 137.715274 
L 67.117692 138.821822 
L 66.776784 139.928369 
L 66.37389 141.034917 
L 65.918393 142.141464 
L 65.418917 143.248011 
L 64.883028 144.354559 
L 64.317128 145.461106 
L 63.726548 146.567654 
L 63.115765 147.674201 
L 62.4887 148.780749 
L 61.849022 149.887296 
L 61.200424 150.993844 
L 60.546808 152.100391 
L 59.892383 153.206938 
L 59.241672 154.313486 
L 58.599432 155.420033 
L 57.970516 156.526581 
L 57.359709 157.633128 
L 56.771547 158.739676 
L 56.210151 159.846223 
L 55.679094 160.95277 
L 55.181297 162.059318 
L 54.718968 163.165865 
L 54.293584 164.272413 
L 53.905909 165.37896 
L 53.556038 166.485508 
L 53.243472 167.592055 
L 52.967199 168.698603 
L 52.72577 169.80515 
L 52.517381 170.911697 
L 52.339924 172.018245 
L 52.191036 173.124792 
L 52.068117 174.23134 
L 51.968358 175.337887 
L 51.888758 176.444435 
L 51.826166 177.550982 
L 51.777334 178.657529 
L 51.739016 179.764077 
L 51.708068 180.870624 
L 51.681587 181.977172 
L 51.657039 183.083719 
L 51.632379 184.190267 
L 51.606138 185.296814 
L 51.577471 186.403361 
L 51.546159 187.509909 
L 51.512558 188.616456 
L 51.477508 189.723004 
L 51.442207 190.829551 
L 51.408064 191.936099 
L 51.376544 193.042646 
L 51.34901 194.149194 
L 51.326575 195.255741 
L 51.309983 196.362288 
L 51.299503 197.468836 
L 51.29487 198.575383 
L 51.295263 199.681931 
L 51.299335 200.788478 
L 51.305284 201.895026 
L 51.310989 203.001573 
L 51.314171 204.10812 
L 51.31259 205.214668 
L 51.304241 206.321215 
L 51.287546 207.427763 
L 51.2615 208.53431 
L 51.225762 209.640858 
L 51.225762 209.640858 
z
" clip-path="url(#p8d7cfb35bb)" style="fill: none; stroke: #000000; stroke-opacity: 0.3"/>
   </g>
   <g id="FillBetweenPolyCollection_2">
    <path d="M 53.964495 171.355896 
L 46.835505 171.355896 
L 46.622724 170.67414 
L 46.41478 169.992384 
L 46.212536 169.310627 
L 46.016553 168.628871 
L 45.827078 167.947115 
L 45.644032 167.265359 
L 45.467023 166.583602 
L 45.295369 165.901846 
L 45.128128 165.22009 
L 44.964143 164.538334 
L 44.802097 163.856577 
L 44.64056 163.174821 
L 44.478052 162.493065 
L 44.313097 161.811309 
L 44.144268 161.129552 
L 43.970237 160.447796 
L 43.789807 159.76604 
L 43.60194 159.084284 
L 43.405773 158.402527 
L 43.20063 157.720771 
L 42.986021 157.039015 
L 42.761636 156.357259 
L 42.527342 155.675502 
L 42.283165 154.993746 
L 42.029283 154.31199 
L 41.76601 153.630234 
L 41.493793 152.948477 
L 41.213194 152.266721 
L 40.924893 151.584965 
L 40.629675 150.903209 
L 40.328425 150.221452 
L 40.02212 149.539696 
L 39.711817 148.85794 
L 39.398636 148.176184 
L 39.083738 147.494427 
L 38.7683 146.812671 
L 38.45348 146.130915 
L 38.140388 145.449159 
L 37.83005 144.767402 
L 37.523377 144.085646 
L 37.221139 143.40389 
L 36.923955 142.722134 
L 36.632284 142.040377 
L 36.346447 141.358621 
L 36.066651 140.676865 
L 35.793043 139.995109 
L 35.525767 139.313352 
L 35.265045 138.631596 
L 35.011253 137.94984 
L 34.765015 137.268084 
L 34.527271 136.586327 
L 34.299356 135.904571 
L 34.083041 135.222815 
L 33.880561 134.541059 
L 33.694612 133.859302 
L 33.528316 133.177546 
L 33.385154 132.49579 
L 33.26887 131.814034 
L 33.183351 131.132277 
L 33.132483 130.450521 
L 33.12 129.768765 
L 33.149322 129.087009 
L 33.223403 128.405252 
L 33.344594 127.723496 
L 33.514518 127.04174 
L 33.733982 126.359983 
L 34.002914 125.678227 
L 34.320341 124.996471 
L 34.684394 124.314715 
L 35.092357 123.632958 
L 35.540741 122.951202 
L 36.025383 122.269446 
L 36.541568 121.58769 
L 37.084169 120.905933 
L 37.647787 120.224177 
L 38.226899 119.542421 
L 38.815995 118.860665 
L 39.409713 118.178908 
L 40.002949 117.497152 
L 40.590963 116.815396 
L 41.169453 116.13364 
L 41.734619 115.451883 
L 42.283198 114.770127 
L 42.812488 114.088371 
L 43.320349 113.406615 
L 43.80519 112.724858 
L 44.265939 112.043102 
L 44.702008 111.361346 
L 45.113246 110.67959 
L 45.499882 109.997833 
L 45.862472 109.316077 
L 46.201837 108.634321 
L 46.519005 107.952565 
L 46.815155 107.270808 
L 47.091558 106.589052 
L 47.349534 105.907296 
L 47.590402 105.22554 
L 47.815446 104.543783 
L 48.025882 103.862027 
L 52.774118 103.862027 
L 52.774118 103.862027 
L 52.984554 104.543783 
L 53.209598 105.22554 
L 53.450466 105.907296 
L 53.708442 106.589052 
L 53.984845 107.270808 
L 54.280995 107.952565 
L 54.598163 108.634321 
L 54.937528 109.316077 
L 55.300118 109.997833 
L 55.686754 110.67959 
L 56.097992 111.361346 
L 56.534061 112.043102 
L 56.99481 112.724858 
L 57.479651 113.406615 
L 57.987512 114.088371 
L 58.516802 114.770127 
L 59.065381 115.451883 
L 59.630547 116.13364 
L 60.209037 116.815396 
L 60.797051 117.497152 
L 61.390287 118.178908 
L 61.984005 118.860665 
L 62.573101 119.542421 
L 63.152213 120.224177 
L 63.715831 120.905933 
L 64.258432 121.58769 
L 64.774617 122.269446 
L 65.259259 122.951202 
L 65.707643 123.632958 
L 66.115606 124.314715 
L 66.479659 124.996471 
L 66.797086 125.678227 
L 67.066018 126.359983 
L 67.285482 127.04174 
L 67.455406 127.723496 
L 67.576597 128.405252 
L 67.650678 129.087009 
L 67.68 129.768765 
L 67.667517 130.450521 
L 67.616649 131.132277 
L 67.53113 131.814034 
L 67.414846 132.49579 
L 67.271684 133.177546 
L 67.105388 133.859302 
L 66.919439 134.541059 
L 66.716959 135.222815 
L 66.500644 135.904571 
L 66.272729 136.586327 
L 66.034985 137.268084 
L 65.788747 137.94984 
L 65.534955 138.631596 
L 65.274233 139.313352 
L 65.006957 139.995109 
L 64.733349 140.676865 
L 64.453553 141.358621 
L 64.167716 142.040377 
L 63.876045 142.722134 
L 63.578861 143.40389 
L 63.276623 144.085646 
L 62.96995 144.767402 
L 62.659612 145.449159 
L 62.34652 146.130915 
L 62.0317 146.812671 
L 61.716262 147.494427 
L 61.401364 148.176184 
L 61.088183 148.85794 
L 60.77788 149.539696 
L 60.471575 150.221452 
L 60.170325 150.903209 
L 59.875107 151.584965 
L 59.586806 152.266721 
L 59.306207 152.948477 
L 59.03399 153.630234 
L 58.770717 154.31199 
L 58.516835 154.993746 
L 58.272658 155.675502 
L 58.038364 156.357259 
L 57.813979 157.039015 
L 57.59937 157.720771 
L 57.394227 158.402527 
L 57.19806 159.084284 
L 57.010193 159.76604 
L 56.829763 160.447796 
L 56.655732 161.129552 
L 56.486903 161.811309 
L 56.321948 162.493065 
L 56.15944 163.174821 
L 55.997903 163.856577 
L 55.835857 164.538334 
L 55.671872 165.22009 
L 55.504631 165.901846 
L 55.332977 166.583602 
L 55.155968 167.265359 
L 54.972922 167.947115 
L 54.783447 168.628871 
L 54.587464 169.310627 
L 54.38522 169.992384 
L 54.177276 170.67414 
L 53.964495 171.355896 
L 53.964495 171.355896 
z
" clip-path="url(#p8d7cfb35bb)" style="fill: none; stroke: #000000; stroke-opacity: 0.3"/>
   </g>
   <g id="FillBetweenPolyCollection_3">
    <path d="M 51.666286 179.515958 
L 49.133714 179.515958 
L 48.990696 178.484976 
L 48.838211 177.453994 
L 48.675933 176.423012 
L 48.503598 175.39203 
L 48.32101 174.361048 
L 48.128016 173.330066 
L 47.924447 172.299084 
L 47.710033 171.268102 
L 47.484305 170.23712 
L 47.2465 169.206138 
L 46.99549 168.175156 
L 46.729756 167.144174 
L 46.447418 166.113192 
L 46.146332 165.082209 
L 45.824252 164.051227 
L 45.479029 163.020245 
L 45.108851 161.989263 
L 44.712455 160.958281 
L 44.289325 159.927299 
L 43.839817 158.896317 
L 43.365206 157.865335 
L 42.867651 156.834353 
L 42.350078 155.803371 
L 41.816008 154.772389 
L 41.269342 153.741407 
L 40.71415 152.710425 
L 40.154474 151.679443 
L 39.59419 150.64846 
L 39.036914 149.617478 
L 38.485987 148.586496 
L 37.944501 147.555514 
L 37.415375 146.524532 
L 36.901447 145.49355 
L 36.405569 144.462568 
L 35.930688 143.431586 
L 35.479905 142.400604 
L 35.05651 141.369622 
L 34.663996 140.33864 
L 34.306067 139.307658 
L 33.986639 138.276676 
L 33.70985 137.245694 
L 33.48007 136.214711 
L 33.301911 135.183729 
L 33.180215 134.152747 
L 33.12 133.121765 
L 33.126351 132.090783 
L 33.20423 131.059801 
L 33.358206 130.028819 
L 33.592114 128.997837 
L 33.908655 127.966855 
L 34.308993 126.935873 
L 34.792378 125.904891 
L 35.355849 124.873909 
L 35.994069 123.842927 
L 36.699326 122.811945 
L 37.461699 121.780962 
L 38.269412 120.74998 
L 39.109321 119.718998 
L 39.967517 118.688016 
L 40.829967 117.657034 
L 41.683146 116.626052 
L 42.514605 115.59507 
L 43.313417 114.564088 
L 44.070491 113.533106 
L 44.778726 112.502124 
L 45.43303 111.471142 
L 46.030203 110.44016 
L 46.568746 109.409178 
L 47.048602 108.378196 
L 47.470888 107.347213 
L 47.837637 106.316231 
L 48.151571 105.285249 
L 48.415917 104.254267 
L 48.634272 103.223285 
L 48.810503 102.192303 
L 48.948673 101.161321 
L 49.05299 100.130339 
L 49.127752 99.099357 
L 49.177285 98.068375 
L 49.20588 97.037393 
L 49.217715 96.006411 
L 49.216774 94.975429 
L 49.206763 93.944447 
L 49.191047 92.913465 
L 49.172599 91.882482 
L 49.153962 90.8515 
L 49.137254 89.820518 
L 49.124179 88.789536 
L 49.116062 87.758554 
L 49.113904 86.727572 
L 49.118425 85.69659 
L 49.130121 84.665608 
L 49.149299 83.634626 
L 49.176102 82.603644 
L 49.210526 81.572662 
L 49.252413 80.54168 
L 49.301444 79.510698 
L 49.357119 78.479716 
L 49.418748 77.448733 
L 51.381252 77.448733 
L 51.381252 77.448733 
L 51.442881 78.479716 
L 51.498556 79.510698 
L 51.547587 80.54168 
L 51.589474 81.572662 
L 51.623898 82.603644 
L 51.650701 83.634626 
L 51.669879 84.665608 
L 51.681575 85.69659 
L 51.686096 86.727572 
L 51.683938 87.758554 
L 51.675821 88.789536 
L 51.662746 89.820518 
L 51.646038 90.8515 
L 51.627401 91.882482 
L 51.608953 92.913465 
L 51.593237 93.944447 
L 51.583226 94.975429 
L 51.582285 96.006411 
L 51.59412 97.037393 
L 51.622715 98.068375 
L 51.672248 99.099357 
L 51.74701 100.130339 
L 51.851327 101.161321 
L 51.989497 102.192303 
L 52.165728 103.223285 
L 52.384083 104.254267 
L 52.648429 105.285249 
L 52.962363 106.316231 
L 53.329112 107.347213 
L 53.751398 108.378196 
L 54.231254 109.409178 
L 54.769797 110.44016 
L 55.36697 111.471142 
L 56.021274 112.502124 
L 56.729509 113.533106 
L 57.486583 114.564088 
L 58.285395 115.59507 
L 59.116854 116.626052 
L 59.970033 117.657034 
L 60.832483 118.688016 
L 61.690679 119.718998 
L 62.530588 120.74998 
L 63.338301 121.780962 
L 64.100674 122.811945 
L 64.805931 123.842927 
L 65.444151 124.873909 
L 66.007622 125.904891 
L 66.491007 126.935873 
L 66.891345 127.966855 
L 67.207886 128.997837 
L 67.441794 130.028819 
L 67.59577 131.059801 
L 67.673649 132.090783 
L 67.68 133.121765 
L 67.619785 134.152747 
L 67.498089 135.183729 
L 67.31993 136.214711 
L 67.09015 137.245694 
L 66.813361 138.276676 
L 66.493933 139.307658 
L 66.136004 140.33864 
L 65.74349 141.369622 
L 65.320095 142.400604 
L 64.869312 143.431586 
L 64.394431 144.462568 
L 63.898553 145.49355 
L 63.384625 146.524532 
L 62.855499 147.555514 
L 62.314013 148.586496 
L 61.763086 149.617478 
L 61.20581 150.64846 
L 60.645526 151.679443 
L 60.08585 152.710425 
L 59.530658 153.741407 
L 58.983992 154.772389 
L 58.449922 155.803371 
L 57.932349 156.834353 
L 57.434794 157.865335 
L 56.960183 158.896317 
L 56.510675 159.927299 
L 56.087545 160.958281 
L 55.691149 161.989263 
L 55.320971 163.020245 
L 54.975748 164.051227 
L 54.653668 165.082209 
L 54.352582 166.113192 
L 54.070244 167.144174 
L 53.80451 168.175156 
L 53.5535 169.206138 
L 53.315695 170.23712 
L 53.089967 171.268102 
L 52.875553 172.299084 
L 52.671984 173.330066 
L 52.47899 174.361048 
L 52.296402 175.39203 
L 52.124067 176.423012 
L 51.961789 177.453994 
L 51.809304 178.484976 
L 51.666286 179.515958 
L 51.666286 179.515958 
z
" clip-path="url(#p8d7cfb35bb)" style="fill: none; stroke: #000000; stroke-opacity: 0.3"/>
   </g>
   <g id="FillBetweenPolyCollection_4">
    <path d="M 52.433439 191.82367 
L 48.366561 191.82367 
L 48.248717 190.876583 
L 48.129125 189.929497 
L 48.007267 188.98241 
L 47.882477 188.035323 
L 47.753948 187.088236 
L 47.620753 186.141149 
L 47.481869 185.194062 
L 47.336198 184.246975 
L 47.182597 183.299889 
L 47.019905 182.352802 
L 46.846974 181.405715 
L 46.66269 180.458628 
L 46.466005 179.511541 
L 46.255958 178.564454 
L 46.031696 177.617367 
L 45.792494 176.67028 
L 45.537774 175.723194 
L 45.26712 174.776107 
L 44.980294 173.82902 
L 44.677252 172.881933 
L 44.358159 171.934846 
L 44.0234 170.987759 
L 43.673601 170.040672 
L 43.309633 169.093586 
L 42.932631 168.146499 
L 42.543992 167.199412 
L 42.145384 166.252325 
L 41.738733 165.305238 
L 41.326214 164.358151 
L 40.910223 163.411064 
L 40.493338 162.463978 
L 40.078275 161.516891 
L 39.667827 160.569804 
L 39.264795 159.622717 
L 38.871908 158.67563 
L 38.491746 157.728543 
L 38.126651 156.781456 
L 37.778653 155.834369 
L 37.449394 154.887283 
L 37.14007 153.940196 
L 36.851385 152.993109 
L 36.583531 152.046022 
L 36.336182 151.098935 
L 36.108513 150.151848 
L 35.899248 149.204761 
L 35.706718 148.257675 
L 35.528946 147.310588 
L 35.363742 146.363501 
L 35.208811 145.416414 
L 35.061857 144.469327 
L 34.9207 143.52224 
L 34.783373 142.575153 
L 34.648217 141.628067 
L 34.51396 140.68098 
L 34.379777 139.733893 
L 34.245335 138.786806 
L 34.110812 137.839719 
L 33.976902 136.892632 
L 33.844801 135.945545 
L 33.716172 134.998458 
L 33.5931 134.051372 
L 33.478032 133.104285 
L 33.373709 132.157198 
L 33.283092 131.210111 
L 33.209277 130.263024 
L 33.155421 129.315937 
L 33.124653 128.36885 
L 33.12 127.421764 
L 33.144307 126.474677 
L 33.20017 125.52759 
L 33.289867 124.580503 
L 33.415307 123.633416 
L 33.577977 122.686329 
L 33.778905 121.739242 
L 34.018632 120.792155 
L 34.297191 119.845069 
L 34.6141 118.897982 
L 34.968366 117.950895 
L 35.358494 117.003808 
L 35.782514 116.056721 
L 36.238012 115.109634 
L 36.722173 114.162547 
L 37.231827 113.215461 
L 37.763513 112.268374 
L 38.313532 111.321287 
L 38.878023 110.3742 
L 39.453023 109.427113 
L 40.034542 108.480026 
L 40.61863 107.532939 
L 41.201444 106.585853 
L 41.779304 105.638766 
L 42.348756 104.691679 
L 42.90661 103.744592 
L 43.449986 102.797505 
L 43.976339 101.850418 
L 44.483479 100.903331 
L 44.96958 99.956244 
L 45.433183 99.009158 
L 45.873179 98.062071 
L 54.926821 98.062071 
L 54.926821 98.062071 
L 55.366817 99.009158 
L 55.83042 99.956244 
L 56.316521 100.903331 
L 56.823661 101.850418 
L 57.350014 102.797505 
L 57.89339 103.744592 
L 58.451244 104.691679 
L 59.020696 105.638766 
L 59.598556 106.585853 
L 60.18137 107.532939 
L 60.765458 108.480026 
L 61.346977 109.427113 
L 61.921977 110.3742 
L 62.486468 111.321287 
L 63.036487 112.268374 
L 63.568173 113.215461 
L 64.077827 114.162547 
L 64.561988 115.109634 
L 65.017486 116.056721 
L 65.441506 117.003808 
L 65.831634 117.950895 
L 66.1859 118.897982 
L 66.502809 119.845069 
L 66.781368 120.792155 
L 67.021095 121.739242 
L 67.222023 122.686329 
L 67.384693 123.633416 
L 67.510133 124.580503 
L 67.59983 125.52759 
L 67.655693 126.474677 
L 67.68 127.421764 
L 67.675347 128.36885 
L 67.644579 129.315937 
L 67.590723 130.263024 
L 67.516908 131.210111 
L 67.426291 132.157198 
L 67.321968 133.104285 
L 67.2069 134.051372 
L 67.083828 134.998458 
L 66.955199 135.945545 
L 66.823098 136.892632 
L 66.689188 137.839719 
L 66.554665 138.786806 
L 66.420223 139.733893 
L 66.28604 140.68098 
L 66.151783 141.628067 
L 66.016627 142.575153 
L 65.8793 143.52224 
L 65.738143 144.469327 
L 65.591189 145.416414 
L 65.436258 146.363501 
L 65.271054 147.310588 
L 65.093282 148.257675 
L 64.900752 149.204761 
L 64.691487 150.151848 
L 64.463818 151.098935 
L 64.216469 152.046022 
L 63.948615 152.993109 
L 63.65993 153.940196 
L 63.350606 154.887283 
L 63.021347 155.834369 
L 62.673349 156.781456 
L 62.308254 157.728543 
L 61.928092 158.67563 
L 61.535205 159.622717 
L 61.132173 160.569804 
L 60.721725 161.516891 
L 60.306662 162.463978 
L 59.889777 163.411064 
L 59.473786 164.358151 
L 59.061267 165.305238 
L 58.654616 166.252325 
L 58.256008 167.199412 
L 57.867369 168.146499 
L 57.490367 169.093586 
L 57.126399 170.040672 
L 56.7766 170.987759 
L 56.441841 171.934846 
L 56.122748 172.881933 
L 55.819706 173.82902 
L 55.53288 174.776107 
L 55.262226 175.723194 
L 55.007506 176.67028 
L 54.768304 177.617367 
L 54.544042 178.564454 
L 54.333995 179.511541 
L 54.13731 180.458628 
L 53.953026 181.405715 
L 53.780095 182.352802 
L 53.617403 183.299889 
L 53.463802 184.246975 
L 53.318131 185.194062 
L 53.179247 186.141149 
L 53.046052 187.088236 
L 52.917523 188.035323 
L 52.792733 188.98241 
L 52.670875 189.929497 
L 52.551283 190.876583 
L 52.433439 191.82367 
L 52.433439 191.82367 
z
" clip-path="url(#p8d7cfb35bb)" style="fill: none; stroke: #000000; stroke-opacity: 0.3"/>
   </g>
   <g id="FillBetweenPolyCollection_5">
    <path d="M 52.687681 211.979959 
L 48.112319 211.979959 
L 47.926863 210.404661 
L 47.739731 208.829363 
L 47.550994 207.254064 
L 47.360275 205.678766 
L 47.166717 204.103468 
L 46.968979 202.52817 
L 46.765264 200.952871 
L 46.553375 199.377573 
L 46.3308 197.802275 
L 46.094825 196.226977 
L 45.842662 194.651679 
L 45.571591 193.07638 
L 45.279102 191.501082 
L 44.963029 189.925784 
L 44.621671 188.350486 
L 44.253888 186.775187 
L 43.859165 185.199889 
L 43.437657 183.624591 
L 42.990188 182.049293 
L 42.518235 180.473995 
L 42.023884 178.898696 
L 41.509763 177.323398 
L 40.978977 175.7481 
L 40.435027 174.172802 
L 39.881738 172.597503 
L 39.323187 171.022205 
L 38.763644 169.446907 
L 38.207518 167.871609 
L 37.659312 166.296311 
L 37.123576 164.721012 
L 36.604871 163.145714 
L 36.107718 161.570416 
L 35.636549 159.995118 
L 35.195644 158.419819 
L 34.789058 156.844521 
L 34.420548 155.269223 
L 34.093479 153.693925 
L 33.810742 152.118627 
L 33.574666 150.543328 
L 33.386942 148.96803 
L 33.248557 147.392732 
L 33.159753 145.817434 
L 33.12 144.242135 
L 33.128003 142.666837 
L 33.18173 141.091539 
L 33.278473 139.516241 
L 33.414931 137.940943 
L 33.587329 136.365644 
L 33.791557 134.790346 
L 34.023324 133.215048 
L 34.278341 131.63975 
L 34.5525 130.064451 
L 34.842065 128.489153 
L 35.143844 126.913855 
L 35.455344 125.338557 
L 35.774892 123.763259 
L 36.101712 122.18796 
L 36.435935 120.612662 
L 36.778564 119.037364 
L 37.131355 117.462066 
L 37.496649 115.886768 
L 37.877144 114.311469 
L 38.275623 112.736171 
L 38.694674 111.160873 
L 39.136397 109.585575 
L 39.602147 108.010276 
L 40.092312 106.434978 
L 40.606168 104.85968 
L 41.141796 103.284382 
L 41.696093 101.709084 
L 42.26486 100.133785 
L 42.842955 98.558487 
L 43.424521 96.983189 
L 44.003236 95.407891 
L 44.572596 93.832592 
L 45.126194 92.257294 
L 45.657976 90.681996 
L 46.162472 89.106698 
L 46.634974 87.5314 
L 47.071671 85.956101 
L 47.469731 84.380803 
L 47.827332 82.805505 
L 48.143653 81.230207 
L 48.418831 79.654908 
L 48.653887 78.07961 
L 48.850633 76.504312 
L 49.011562 74.929014 
L 49.139741 73.353716 
L 49.23868 71.778417 
L 49.312218 70.203119 
L 49.364397 68.627821 
L 49.399337 67.052523 
L 49.421124 65.477224 
L 49.433687 63.901926 
L 49.440699 62.326628 
L 49.445477 60.75133 
L 49.4509 59.176032 
L 49.459348 57.600733 
L 49.472657 56.025435 
L 51.327343 56.025435 
L 51.327343 56.025435 
L 51.340652 57.600733 
L 51.3491 59.176032 
L 51.354523 60.75133 
L 51.359301 62.326628 
L 51.366313 63.901926 
L 51.378876 65.477224 
L 51.400663 67.052523 
L 51.435603 68.627821 
L 51.487782 70.203119 
L 51.56132 71.778417 
L 51.660259 73.353716 
L 51.788438 74.929014 
L 51.949367 76.504312 
L 52.146113 78.07961 
L 52.381169 79.654908 
L 52.656347 81.230207 
L 52.972668 82.805505 
L 53.330269 84.380803 
L 53.728329 85.956101 
L 54.165026 87.5314 
L 54.637528 89.106698 
L 55.142024 90.681996 
L 55.673806 92.257294 
L 56.227404 93.832592 
L 56.796764 95.407891 
L 57.375479 96.983189 
L 57.957045 98.558487 
L 58.53514 100.133785 
L 59.103907 101.709084 
L 59.658204 103.284382 
L 60.193832 104.85968 
L 60.707688 106.434978 
L 61.197853 108.010276 
L 61.663603 109.585575 
L 62.105326 111.160873 
L 62.524377 112.736171 
L 62.922856 114.311469 
L 63.303351 115.886768 
L 63.668645 117.462066 
L 64.021436 119.037364 
L 64.364065 120.612662 
L 64.698288 122.18796 
L 65.025108 123.763259 
L 65.344656 125.338557 
L 65.656156 126.913855 
L 65.957935 128.489153 
L 66.2475 130.064451 
L 66.521659 131.63975 
L 66.776676 133.215048 
L 67.008443 134.790346 
L 67.212671 136.365644 
L 67.385069 137.940943 
L 67.521527 139.516241 
L 67.61827 141.091539 
L 67.671997 142.666837 
L 67.68 144.242135 
L 67.640247 145.817434 
L 67.551443 147.392732 
L 67.413058 148.96803 
L 67.225334 150.543328 
L 66.989258 152.118627 
L 66.706521 153.693925 
L 66.379452 155.269223 
L 66.010942 156.844521 
L 65.604356 158.419819 
L 65.163451 159.995118 
L 64.692282 161.570416 
L 64.195129 163.145714 
L 63.676424 164.721012 
L 63.140688 166.296311 
L 62.592482 167.871609 
L 62.036356 169.446907 
L 61.476813 171.022205 
L 60.918262 172.597503 
L 60.364973 174.172802 
L 59.821023 175.7481 
L 59.290237 177.323398 
L 58.776116 178.898696 
L 58.281765 180.473995 
L 57.809812 182.049293 
L 57.362343 183.624591 
L 56.940835 185.199889 
L 56.546112 186.775187 
L 56.178329 188.350486 
L 55.836971 189.925784 
L 55.520898 191.501082 
L 55.228409 193.07638 
L 54.957338 194.651679 
L 54.705175 196.226977 
L 54.4692 197.802275 
L 54.246625 199.377573 
L 54.034736 200.952871 
L 53.831021 202.52817 
L 53.633283 204.103468 
L 53.439725 205.678766 
L 53.249006 207.254064 
L 53.060269 208.829363 
L 52.873137 210.404661 
L 52.687681 211.979959 
L 52.687681 211.979959 
z
" clip-path="url(#p8d7cfb35bb)" style="fill: none; stroke: #000000; stroke-opacity: 0.3"/>
   </g>
   <g id="FillBetweenPolyCollection_6">
    <path d="M 108.329553 183.146795 
L 107.670447 183.146795 
L 107.662336 182.005332 
L 107.657054 180.863869 
L 107.652666 179.722407 
L 107.64675 178.580944 
L 107.636608 177.439481 
L 107.619504 176.298018 
L 107.592903 175.156555 
L 107.554649 174.015093 
L 107.503065 172.87363 
L 107.436956 171.732167 
L 107.355523 170.590704 
L 107.258207 169.449242 
L 107.14451 168.307779 
L 107.013854 167.166316 
L 106.865507 166.024853 
L 106.698635 164.883391 
L 106.512461 163.741928 
L 106.30652 162.600465 
L 106.080943 161.459002 
L 105.836701 160.317539 
L 105.575731 159.176077 
L 105.300891 158.034614 
L 105.015731 156.893151 
L 104.7241 155.751688 
L 104.429678 154.610226 
L 104.135514 153.468763 
L 103.843675 152.3273 
L 103.555096 151.185837 
L 103.269629 150.044374 
L 102.986316 148.902912 
L 102.703781 147.761449 
L 102.420672 146.619986 
L 102.136042 145.478523 
L 101.849587 144.337061 
L 101.561692 143.195598 
L 101.27328 142.054135 
L 100.985503 140.912672 
L 100.699327 139.771209 
L 100.415093 138.629747 
L 100.132117 137.488284 
L 99.848409 136.346821 
L 99.560524 135.205358 
L 99.263603 134.063896 
L 98.951582 132.922433 
L 98.617595 131.78097 
L 98.254544 130.639507 
L 97.855806 129.498045 
L 97.416047 128.356582 
L 96.932067 127.215119 
L 96.403592 126.073656 
L 95.833908 124.932193 
L 95.230241 123.790731 
L 94.603766 122.649268 
L 93.969225 121.507805 
L 93.34413 120.366342 
L 92.747623 119.22488 
L 92.19913 118.083417 
L 91.716974 116.941954 
L 91.317143 115.800491 
L 91.012362 114.659028 
L 90.811598 113.517566 
L 90.72 112.376103 
L 90.739237 111.23464 
L 90.868085 110.093177 
L 91.103094 108.951715 
L 91.439174 107.810252 
L 91.869963 106.668789 
L 92.387921 105.527326 
L 92.984211 104.385863 
L 93.648443 103.244401 
L 94.368475 102.102938 
L 95.130393 100.961475 
L 95.918821 99.820012 
L 96.717572 98.67855 
L 97.510602 97.537087 
L 98.283127 96.395624 
L 99.02273 95.254161 
L 99.720251 94.112699 
L 100.37031 92.971236 
L 100.971372 91.829773 
L 101.525351 90.68831 
L 102.036828 89.546847 
L 102.512016 88.405385 
L 102.957651 87.263922 
L 103.379968 86.122459 
L 103.783908 84.980996 
L 104.17262 83.839534 
L 104.54732 82.698071 
L 104.907447 81.556608 
L 105.251075 80.415145 
L 105.575471 79.273682 
L 105.877703 78.13222 
L 106.155194 76.990757 
L 106.406159 75.849294 
L 106.629863 74.707831 
L 106.826695 73.566369 
L 106.998068 72.424906 
L 107.146193 71.283443 
L 107.27377 70.14198 
L 108.72623 70.14198 
L 108.72623 70.14198 
L 108.853807 71.283443 
L 109.001932 72.424906 
L 109.173305 73.566369 
L 109.370137 74.707831 
L 109.593841 75.849294 
L 109.844806 76.990757 
L 110.122297 78.13222 
L 110.424529 79.273682 
L 110.748925 80.415145 
L 111.092553 81.556608 
L 111.45268 82.698071 
L 111.82738 83.839534 
L 112.216092 84.980996 
L 112.620032 86.122459 
L 113.042349 87.263922 
L 113.487984 88.405385 
L 113.963172 89.546847 
L 114.474649 90.68831 
L 115.028628 91.829773 
L 115.62969 92.971236 
L 116.279749 94.112699 
L 116.97727 95.254161 
L 117.716873 96.395624 
L 118.489398 97.537087 
L 119.282428 98.67855 
L 120.081179 99.820012 
L 120.869607 100.961475 
L 121.631525 102.102938 
L 122.351557 103.244401 
L 123.015789 104.385863 
L 123.612079 105.527326 
L 124.130037 106.668789 
L 124.560826 107.810252 
L 124.896906 108.951715 
L 125.131915 110.093177 
L 125.260763 111.23464 
L 125.28 112.376103 
L 125.188402 113.517566 
L 124.987638 114.659028 
L 124.682857 115.800491 
L 124.283026 116.941954 
L 123.80087 118.083417 
L 123.252377 119.22488 
L 122.65587 120.366342 
L 122.030775 121.507805 
L 121.396234 122.649268 
L 120.769759 123.790731 
L 120.166092 124.932193 
L 119.596408 126.073656 
L 119.067933 127.215119 
L 118.583953 128.356582 
L 118.144194 129.498045 
L 117.745456 130.639507 
L 117.382405 131.78097 
L 117.048418 132.922433 
L 116.736397 134.063896 
L 116.439476 135.205358 
L 116.151591 136.346821 
L 115.867883 137.488284 
L 115.584907 138.629747 
L 115.300673 139.771209 
L 115.014497 140.912672 
L 114.72672 142.054135 
L 114.438308 143.195598 
L 114.150413 144.337061 
L 113.863958 145.478523 
L 113.579328 146.619986 
L 113.296219 147.761449 
L 113.013684 148.902912 
L 112.730371 150.044374 
L 112.444904 151.185837 
L 112.156325 152.3273 
L 111.864486 153.468763 
L 111.570322 154.610226 
L 111.2759 155.751688 
L 110.984269 156.893151 
L 110.699109 158.034614 
L 110.424269 159.176077 
L 110.163299 160.317539 
L 109.919057 161.459002 
L 109.69348 162.600465 
L 109.487539 163.741928 
L 109.301365 164.883391 
L 109.134493 166.024853 
L 108.986146 167.166316 
L 108.85549 168.307779 
L 108.741793 169.449242 
L 108.644477 170.590704 
L 108.563044 171.732167 
L 108.496935 172.87363 
L 108.445351 174.015093 
L 108.407097 175.156555 
L 108.380496 176.298018 
L 108.363392 177.439481 
L 108.35325 178.580944 
L 108.347334 179.722407 
L 108.342946 180.863869 
L 108.337664 182.005332 
L 108.329553 183.146795 
L 108.329553 183.146795 
z
" clip-path="url(#p8d7cfb35bb)" style="fill: none; stroke: #000000; stroke-opacity: 0.3"/>
   </g>
   <g id="FillBetweenPolyCollection_7">
    <path d="M 109.596973 175.594531 
L 106.403027 175.594531 
L 106.263558 174.693752 
L 106.125698 173.792974 
L 105.990416 172.892195 
L 105.858302 171.991417 
L 105.729504 171.090638 
L 105.603683 170.18986 
L 105.479994 169.289081 
L 105.357093 168.388303 
L 105.233169 167.487525 
L 105.106001 166.586746 
L 104.97304 165.685968 
L 104.831508 164.785189 
L 104.678509 163.884411 
L 104.511162 162.983632 
L 104.326734 162.082854 
L 104.122775 161.182075 
L 103.897256 160.281297 
L 103.648695 159.380518 
L 103.376268 158.47974 
L 103.079899 157.578961 
L 102.760318 156.678183 
L 102.419082 155.777405 
L 102.058544 154.876626 
L 101.681785 153.975848 
L 101.292492 153.075069 
L 100.894786 152.174291 
L 100.493023 151.273512 
L 100.091567 150.372734 
L 99.694553 149.471955 
L 99.305668 148.571177 
L 98.927954 147.670398 
L 98.56366 146.76962 
L 98.214147 145.868841 
L 97.879855 144.968063 
L 97.56034 144.067285 
L 97.254359 143.166506 
L 96.96001 142.265728 
L 96.674905 141.364949 
L 96.396359 140.464171 
L 96.12159 139.563392 
L 95.847906 138.662614 
L 95.572876 137.761835 
L 95.294482 136.861057 
L 95.011234 135.960278 
L 94.722264 135.0595 
L 94.427381 134.158721 
L 94.1271 133.257943 
L 93.822639 132.357165 
L 93.515884 131.456386 
L 93.209323 130.555608 
L 92.905952 129.654829 
L 92.609154 128.754051 
L 92.322562 127.853272 
L 92.049903 126.952494 
L 91.79485 126.051715 
L 91.560876 125.150937 
L 91.351128 124.250158 
L 91.168334 123.34938 
L 91.014741 122.448601 
L 90.892088 121.547823 
L 90.801618 120.647044 
L 90.744122 119.746266 
L 90.72 118.845488 
L 90.729342 117.944709 
L 90.772015 117.043931 
L 90.847738 116.143152 
L 90.956156 115.242374 
L 91.096883 114.341595 
L 91.269534 113.440817 
L 91.473722 112.540038 
L 91.70904 111.63926 
L 91.975013 110.738481 
L 92.27104 109.837703 
L 92.596319 108.936924 
L 92.949774 108.036146 
L 93.329989 107.135368 
L 93.73516 106.234589 
L 94.163073 105.333811 
L 94.611114 104.433032 
L 95.07632 103.532254 
L 95.555464 102.631475 
L 96.045175 101.730697 
L 96.542079 100.829918 
L 97.042951 99.92914 
L 97.544863 99.028361 
L 98.045304 98.127583 
L 98.54227 97.226804 
L 99.034307 96.326026 
L 99.520496 95.425248 
L 100.000387 94.524469 
L 100.473894 93.623691 
L 100.941142 92.722912 
L 101.40231 91.822134 
L 101.857462 90.921355 
L 102.306402 90.020577 
L 102.748561 89.119798 
L 103.182934 88.21902 
L 103.608057 87.318241 
L 104.022052 86.417463 
L 111.977948 86.417463 
L 111.977948 86.417463 
L 112.391943 87.318241 
L 112.817066 88.21902 
L 113.251439 89.119798 
L 113.693598 90.020577 
L 114.142538 90.921355 
L 114.59769 91.822134 
L 115.058858 92.722912 
L 115.526106 93.623691 
L 115.999613 94.524469 
L 116.479504 95.425248 
L 116.965693 96.326026 
L 117.45773 97.226804 
L 117.954696 98.127583 
L 118.455137 99.028361 
L 118.957049 99.92914 
L 119.457921 100.829918 
L 119.954825 101.730697 
L 120.444536 102.631475 
L 120.92368 103.532254 
L 121.388886 104.433032 
L 121.836927 105.333811 
L 122.26484 106.234589 
L 122.670011 107.135368 
L 123.050226 108.036146 
L 123.403681 108.936924 
L 123.72896 109.837703 
L 124.024987 110.738481 
L 124.29096 111.63926 
L 124.526278 112.540038 
L 124.730466 113.440817 
L 124.903117 114.341595 
L 125.043844 115.242374 
L 125.152262 116.143152 
L 125.227985 117.043931 
L 125.270658 117.944709 
L 125.28 118.845488 
L 125.255878 119.746266 
L 125.198382 120.647044 
L 125.107912 121.547823 
L 124.985259 122.448601 
L 124.831666 123.34938 
L 124.648872 124.250158 
L 124.439124 125.150937 
L 124.20515 126.051715 
L 123.950097 126.952494 
L 123.677438 127.853272 
L 123.390846 128.754051 
L 123.094048 129.654829 
L 122.790677 130.555608 
L 122.484116 131.456386 
L 122.177361 132.357165 
L 121.8729 133.257943 
L 121.572619 134.158721 
L 121.277736 135.0595 
L 120.988766 135.960278 
L 120.705518 136.861057 
L 120.427124 137.761835 
L 120.152094 138.662614 
L 119.87841 139.563392 
L 119.603641 140.464171 
L 119.325095 141.364949 
L 119.03999 142.265728 
L 118.745641 143.166506 
L 118.43966 144.067285 
L 118.120145 144.968063 
L 117.785853 145.868841 
L 117.43634 146.76962 
L 117.072046 147.670398 
L 116.694332 148.571177 
L 116.305447 149.471955 
L 115.908433 150.372734 
L 115.506977 151.273512 
L 115.105214 152.174291 
L 114.707508 153.075069 
L 114.318215 153.975848 
L 113.941456 154.876626 
L 113.580918 155.777405 
L 113.239682 156.678183 
L 112.920101 157.578961 
L 112.623732 158.47974 
L 112.351305 159.380518 
L 112.102744 160.281297 
L 111.877225 161.182075 
L 111.673266 162.082854 
L 111.488838 162.983632 
L 111.321491 163.884411 
L 111.168492 164.785189 
L 111.02696 165.685968 
L 110.893999 166.586746 
L 110.766831 167.487525 
L 110.642907 168.388303 
L 110.520006 169.289081 
L 110.396317 170.18986 
L 110.270496 171.090638 
L 110.141698 171.991417 
L 110.009584 172.892195 
L 109.874302 173.792974 
L 109.736442 174.693752 
L 109.596973 175.594531 
L 109.596973 175.594531 
z
" clip-path="url(#p8d7cfb35bb)" style="fill: none; stroke: #000000; stroke-opacity: 0.3"/>
   </g>
   <g id="FillBetweenPolyCollection_8">
    <path d="M 108.316658 244.525458 
L 107.683342 244.525458 
L 107.689791 242.466401 
L 107.70859 240.407344 
L 107.737138 238.348287 
L 107.771657 236.289229 
L 107.807799 234.230172 
L 107.841266 232.171115 
L 107.868326 230.112058 
L 107.886139 228.053001 
L 107.892928 225.993944 
L 107.888036 223.934887 
L 107.871935 221.87583 
L 107.84622 219.816773 
L 107.813561 217.757716 
L 107.777561 215.698659 
L 107.742442 213.639602 
L 107.712564 211.580545 
L 107.691796 209.521488 
L 107.682881 207.462431 
L 107.686919 205.403373 
L 107.703126 203.344316 
L 107.728907 201.285259 
L 107.760219 199.226202 
L 107.792124 197.167145 
L 107.819372 195.108088 
L 107.836912 193.049031 
L 107.840257 190.989974 
L 107.825735 188.930917 
L 107.79066 186.87186 
L 107.733496 184.812803 
L 107.654004 182.753746 
L 107.553309 180.694689 
L 107.433772 178.635632 
L 107.298552 176.576575 
L 107.150832 174.517518 
L 106.992789 172.45846 
L 106.824552 170.399403 
L 106.64343 168.340346 
L 106.443689 166.281289 
L 106.216994 164.222232 
L 105.953404 162.163175 
L 105.642609 160.104118 
L 105.275032 158.045061 
L 104.842469 155.986004 
L 104.338213 153.926947 
L 103.756875 151.86789 
L 103.094261 149.808833 
L 102.347696 147.749776 
L 101.516893 145.690719 
L 100.605207 143.631662 
L 99.620822 141.572605 
L 98.577445 139.513547 
L 97.494255 137.45449 
L 96.395194 135.395433 
L 95.307971 133.336376 
L 94.263142 131.277319 
L 93.293414 129.218262 
L 92.432954 127.159205 
L 91.716176 125.100148 
L 91.175479 123.041091 
L 90.837745 120.982034 
L 90.72 118.922977 
L 90.825208 116.86392 
L 91.139546 114.804863 
L 91.632361 112.745806 
L 92.259439 110.686749 
L 92.969366 108.627691 
L 93.711793 106.568634 
L 94.44579 104.509577 
L 95.146314 102.45052 
L 95.807179 100.391463 
L 96.439788 98.332406 
L 97.067953 96.273349 
L 97.720108 94.214292 
L 98.420848 92.155235 
L 99.183831 90.096178 
L 100.007639 88.037121 
L 100.875399 85.978064 
L 101.757977 83.919007 
L 102.619735 81.85995 
L 103.425311 79.800893 
L 104.145823 77.741836 
L 104.76318 75.682778 
L 105.271824 73.623721 
L 105.677866 71.564664 
L 105.996176 69.505607 
L 106.246351 67.44655 
L 106.448564 65.387493 
L 106.620146 63.328436 
L 106.773461 61.269379 
L 106.915255 59.210322 
L 107.047325 57.151265 
L 107.168107 55.092208 
L 107.274662 53.033151 
L 107.36452 50.974094 
L 107.436972 48.915037 
L 107.493585 46.85598 
L 107.537931 44.796922 
L 107.574731 42.737865 
L 107.608746 40.678808 
L 108.391254 40.678808 
L 108.391254 40.678808 
L 108.425269 42.737865 
L 108.462069 44.796922 
L 108.506415 46.85598 
L 108.563028 48.915037 
L 108.63548 50.974094 
L 108.725338 53.033151 
L 108.831893 55.092208 
L 108.952675 57.151265 
L 109.084745 59.210322 
L 109.226539 61.269379 
L 109.379854 63.328436 
L 109.551436 65.387493 
L 109.753649 67.44655 
L 110.003824 69.505607 
L 110.322134 71.564664 
L 110.728176 73.623721 
L 111.23682 75.682778 
L 111.854177 77.741836 
L 112.574689 79.800893 
L 113.380265 81.85995 
L 114.242023 83.919007 
L 115.124601 85.978064 
L 115.992361 88.037121 
L 116.816169 90.096178 
L 117.579152 92.155235 
L 118.279892 94.214292 
L 118.932047 96.273349 
L 119.560212 98.332406 
L 120.192821 100.391463 
L 120.853686 102.45052 
L 121.55421 104.509577 
L 122.288207 106.568634 
L 123.030634 108.627691 
L 123.740561 110.686749 
L 124.367639 112.745806 
L 124.860454 114.804863 
L 125.174792 116.86392 
L 125.28 118.922977 
L 125.162255 120.982034 
L 124.824521 123.041091 
L 124.283824 125.100148 
L 123.567046 127.159205 
L 122.706586 129.218262 
L 121.736858 131.277319 
L 120.692029 133.336376 
L 119.604806 135.395433 
L 118.505745 137.45449 
L 117.422555 139.513547 
L 116.379178 141.572605 
L 115.394793 143.631662 
L 114.483107 145.690719 
L 113.652304 147.749776 
L 112.905739 149.808833 
L 112.243125 151.86789 
L 111.661787 153.926947 
L 111.157531 155.986004 
L 110.724968 158.045061 
L 110.357391 160.104118 
L 110.046596 162.163175 
L 109.783006 164.222232 
L 109.556311 166.281289 
L 109.35657 168.340346 
L 109.175448 170.399403 
L 109.007211 172.45846 
L 108.849168 174.517518 
L 108.701448 176.576575 
L 108.566228 178.635632 
L 108.446691 180.694689 
L 108.345996 182.753746 
L 108.266504 184.812803 
L 108.20934 186.87186 
L 108.174265 188.930917 
L 108.159743 190.989974 
L 108.163088 193.049031 
L 108.180628 195.108088 
L 108.207876 197.167145 
L 108.239781 199.226202 
L 108.271093 201.285259 
L 108.296874 203.344316 
L 108.313081 205.403373 
L 108.317119 207.462431 
L 108.308204 209.521488 
L 108.287436 211.580545 
L 108.257558 213.639602 
L 108.222439 215.698659 
L 108.186439 217.757716 
L 108.15378 219.816773 
L 108.128065 221.87583 
L 108.111964 223.934887 
L 108.107072 225.993944 
L 108.113861 228.053001 
L 108.131674 230.112058 
L 108.158734 232.171115 
L 108.192201 234.230172 
L 108.228343 236.289229 
L 108.262862 238.348287 
L 108.29141 240.407344 
L 108.310209 242.466401 
L 108.316658 244.525458 
L 108.316658 244.525458 
z
" clip-path="url(#p8d7cfb35bb)" style="fill: none; stroke: #000000; stroke-opacity: 0.3"/>
   </g>
   <g id="FillBetweenPolyCollection_9">
    <path d="M 108.953848 202.959737 
L 107.046152 202.959737 
L 106.98163 201.675325 
L 106.921348 200.390914 
L 106.864669 199.106502 
L 106.810542 197.822091 
L 106.757677 196.537679 
L 106.704769 195.253268 
L 106.65074 193.968857 
L 106.594976 192.684445 
L 106.537509 191.400034 
L 106.479125 190.115622 
L 106.421367 188.831211 
L 106.36644 187.546799 
L 106.316994 186.262388 
L 106.275839 184.977976 
L 106.245601 183.693565 
L 106.228355 182.409154 
L 106.225289 181.124742 
L 106.236421 179.840331 
L 106.260401 178.555919 
L 106.294426 177.271508 
L 106.334258 175.987096 
L 106.374365 174.702685 
L 106.408152 173.418274 
L 106.428282 172.133862 
L 106.42705 170.849451 
L 106.396795 169.565039 
L 106.330301 168.280628 
L 106.221183 166.996216 
L 106.064199 165.711805 
L 105.855481 164.427394 
L 105.592653 163.142982 
L 105.274829 161.858571 
L 104.902493 160.574159 
L 104.477267 159.289748 
L 104.001626 158.005336 
L 103.478572 156.720925 
L 102.911353 155.436513 
L 102.303248 154.152102 
L 101.657491 152.867691 
L 100.977329 151.583279 
L 100.266232 150.298868 
L 99.528207 149.014456 
L 98.768174 147.730045 
L 97.992319 146.445633 
L 97.20835 145.161222 
L 96.425584 143.876811 
L 95.654805 142.592399 
L 94.907894 141.307988 
L 94.197224 140.023576 
L 93.534893 138.739165 
L 92.931879 137.454753 
L 92.397207 136.170342 
L 91.937259 134.88593 
L 91.555307 133.601519 
L 91.251353 132.317108 
L 91.022306 131.032696 
L 90.862496 129.748285 
L 90.764473 128.463873 
L 90.72 127.179462 
L 90.721125 125.89505 
L 90.761202 124.610639 
L 90.835725 123.326228 
L 90.942869 122.041816 
L 91.083664 120.757405 
L 91.261766 119.472993 
L 91.482853 118.188582 
L 91.753718 116.90417 
L 92.081175 115.619759 
L 92.470918 114.335348 
L 92.926484 113.050936 
L 93.448456 111.766525 
L 94.034003 110.482113 
L 94.676817 109.197702 
L 95.367451 107.91329 
L 96.09399 106.628879 
L 96.842979 105.344467 
L 97.600461 104.060056 
L 98.353009 102.775645 
L 99.088623 101.491233 
L 99.797389 100.206822 
L 100.471862 98.92241 
L 101.10715 97.637999 
L 101.700737 96.353587 
L 102.252107 95.069176 
L 102.762249 93.784765 
L 103.233134 92.500353 
L 103.667239 91.215942 
L 104.067165 89.93153 
L 104.435388 88.647119 
L 104.77414 87.362707 
L 105.085392 86.078296 
L 105.370922 84.793885 
L 105.632401 83.509473 
L 105.871494 82.225062 
L 106.089907 80.94065 
L 106.289413 79.656239 
L 106.471811 78.371827 
L 106.638862 77.087416 
L 106.792205 75.803004 
L 109.207795 75.803004 
L 109.207795 75.803004 
L 109.361138 77.087416 
L 109.528189 78.371827 
L 109.710587 79.656239 
L 109.910093 80.94065 
L 110.128506 82.225062 
L 110.367599 83.509473 
L 110.629078 84.793885 
L 110.914608 86.078296 
L 111.22586 87.362707 
L 111.564612 88.647119 
L 111.932835 89.93153 
L 112.332761 91.215942 
L 112.766866 92.500353 
L 113.237751 93.784765 
L 113.747893 95.069176 
L 114.299263 96.353587 
L 114.89285 97.637999 
L 115.528138 98.92241 
L 116.202611 100.206822 
L 116.911377 101.491233 
L 117.646991 102.775645 
L 118.399539 104.060056 
L 119.157021 105.344467 
L 119.90601 106.628879 
L 120.632549 107.91329 
L 121.323183 109.197702 
L 121.965997 110.482113 
L 122.551544 111.766525 
L 123.073516 113.050936 
L 123.529082 114.335348 
L 123.918825 115.619759 
L 124.246282 116.90417 
L 124.517147 118.188582 
L 124.738234 119.472993 
L 124.916336 120.757405 
L 125.057131 122.041816 
L 125.164275 123.326228 
L 125.238798 124.610639 
L 125.278875 125.89505 
L 125.28 127.179462 
L 125.235527 128.463873 
L 125.137504 129.748285 
L 124.977694 131.032696 
L 124.748647 132.317108 
L 124.444693 133.601519 
L 124.062741 134.88593 
L 123.602793 136.170342 
L 123.068121 137.454753 
L 122.465107 138.739165 
L 121.802776 140.023576 
L 121.092106 141.307988 
L 120.345195 142.592399 
L 119.574416 143.876811 
L 118.79165 145.161222 
L 118.007681 146.445633 
L 117.231826 147.730045 
L 116.471793 149.014456 
L 115.733768 150.298868 
L 115.022671 151.583279 
L 114.342509 152.867691 
L 113.696752 154.152102 
L 113.088647 155.436513 
L 112.521428 156.720925 
L 111.998374 158.005336 
L 111.522733 159.289748 
L 111.097507 160.574159 
L 110.725171 161.858571 
L 110.407347 163.142982 
L 110.144519 164.427394 
L 109.935801 165.711805 
L 109.778817 166.996216 
L 109.669699 168.280628 
L 109.603205 169.565039 
L 109.57295 170.849451 
L 109.571718 172.133862 
L 109.591848 173.418274 
L 109.625635 174.702685 
L 109.665742 175.987096 
L 109.705574 177.271508 
L 109.739599 178.555919 
L 109.763579 179.840331 
L 109.774711 181.124742 
L 109.771645 182.409154 
L 109.754399 183.693565 
L 109.724161 184.977976 
L 109.683006 186.262388 
L 109.63356 187.546799 
L 109.578633 188.831211 
L 109.520875 190.115622 
L 109.462491 191.400034 
L 109.405024 192.684445 
L 109.34926 193.968857 
L 109.295231 195.253268 
L 109.242323 196.537679 
L 109.189458 197.822091 
L 109.135331 199.106502 
L 109.078652 200.390914 
L 109.01837 201.675325 
L 108.953848 202.959737 
L 108.953848 202.959737 
z
" clip-path="url(#p8d7cfb35bb)" style="fill: none; stroke: #000000; stroke-opacity: 0.3"/>
   </g>
   <g id="FillBetweenPolyCollection_10">
    <path d="M 108.411802 175.240314 
L 107.588198 175.240314 
L 107.593522 173.997857 
L 107.610796 172.755401 
L 107.637505 171.512945 
L 107.669963 170.270488 
L 107.703702 169.028032 
L 107.733928 167.785576 
L 107.755933 166.543119 
L 107.76544 165.300663 
L 107.758807 164.058207 
L 107.733124 162.815751 
L 107.686183 161.573294 
L 107.616367 160.330838 
L 107.522477 159.088382 
L 107.403519 157.845925 
L 107.258482 156.603469 
L 107.086157 155.361013 
L 106.885029 154.118556 
L 106.653298 152.8761 
L 106.389041 151.633644 
L 106.09051 150.391188 
L 105.756495 149.148731 
L 105.386647 147.906275 
L 104.981636 146.663819 
L 104.543041 145.421362 
L 104.072925 144.178906 
L 103.573169 142.93645 
L 103.044724 141.693994 
L 102.487029 140.451537 
L 101.897841 139.209081 
L 101.273677 137.966625 
L 100.610857 136.724168 
L 99.907013 135.481712 
L 99.162696 134.239256 
L 98.38265 132.996799 
L 97.576346 131.754343 
L 96.757546 130.511887 
L 95.942911 129.269431 
L 95.149973 128.026974 
L 94.394981 126.784518 
L 93.691209 125.542062 
L 93.0482 124.299605 
L 92.472127 123.057149 
L 91.967145 121.814693 
L 91.537256 120.572237 
L 91.188078 119.32978 
L 90.927907 118.087324 
L 90.767709 116.844868 
L 90.72 115.602411 
L 90.796953 114.359955 
L 91.008256 113.117499 
L 91.359309 111.875042 
L 91.850172 110.632586 
L 92.475368 109.39013 
L 93.2244 108.147674 
L 94.082622 106.905217 
L 95.03211 105.662761 
L 96.052322 104.420305 
L 97.120538 103.177848 
L 98.212245 101.935392 
L 99.301722 100.692936 
L 100.362991 99.45048 
L 101.37117 98.208023 
L 102.30407 96.965567 
L 103.14377 95.723111 
L 103.877874 94.480654 
L 104.500218 93.238198 
L 105.010925 91.995742 
L 105.415853 90.753285 
L 105.725556 89.510829 
L 105.953974 88.268373 
L 106.11702 87.025917 
L 106.231232 85.78346 
L 106.312595 84.541004 
L 106.375591 83.298548 
L 106.432501 82.056091 
L 106.492942 80.813635 
L 106.563636 79.571179 
L 106.648386 78.328723 
L 106.748237 77.086266 
L 106.861797 75.84381 
L 106.985711 74.601354 
L 107.115239 73.358897 
L 107.244885 72.116441 
L 107.369033 70.873985 
L 107.482501 69.631528 
L 107.580982 68.389072 
L 107.661319 67.146616 
L 107.721645 65.90416 
L 107.761387 64.661703 
L 107.7812 63.419247 
L 107.782853 62.176791 
L 107.769111 60.934334 
L 107.74358 59.691878 
L 107.710525 58.449422 
L 107.674609 57.206966 
L 107.640551 55.964509 
L 107.612718 54.722053 
L 107.59469 53.479597 
L 107.588882 52.23714 
L 108.411118 52.23714 
L 108.411118 52.23714 
L 108.40531 53.479597 
L 108.387282 54.722053 
L 108.359449 55.964509 
L 108.325391 57.206966 
L 108.289475 58.449422 
L 108.25642 59.691878 
L 108.230889 60.934334 
L 108.217147 62.176791 
L 108.2188 63.419247 
L 108.238613 64.661703 
L 108.278355 65.90416 
L 108.338681 67.146616 
L 108.419018 68.389072 
L 108.517499 69.631528 
L 108.630967 70.873985 
L 108.755115 72.116441 
L 108.884761 73.358897 
L 109.014289 74.601354 
L 109.138203 75.84381 
L 109.251763 77.086266 
L 109.351614 78.328723 
L 109.436364 79.571179 
L 109.507058 80.813635 
L 109.567499 82.056091 
L 109.624409 83.298548 
L 109.687405 84.541004 
L 109.768768 85.78346 
L 109.88298 87.025917 
L 110.046026 88.268373 
L 110.274444 89.510829 
L 110.584147 90.753285 
L 110.989075 91.995742 
L 111.499782 93.238198 
L 112.122126 94.480654 
L 112.85623 95.723111 
L 113.69593 96.965567 
L 114.62883 98.208023 
L 115.637009 99.45048 
L 116.698278 100.692936 
L 117.787755 101.935392 
L 118.879462 103.177848 
L 119.947678 104.420305 
L 120.96789 105.662761 
L 121.917378 106.905217 
L 122.7756 108.147674 
L 123.524632 109.39013 
L 124.149828 110.632586 
L 124.640691 111.875042 
L 124.991744 113.117499 
L 125.203047 114.359955 
L 125.28 115.602411 
L 125.232291 116.844868 
L 125.072093 118.087324 
L 124.811922 119.32978 
L 124.462744 120.572237 
L 124.032855 121.814693 
L 123.527873 123.057149 
L 122.9518 124.299605 
L 122.308791 125.542062 
L 121.605019 126.784518 
L 120.850027 128.026974 
L 120.057089 129.269431 
L 119.242454 130.511887 
L 118.423654 131.754343 
L 117.61735 132.996799 
L 116.837304 134.239256 
L 116.092987 135.481712 
L 115.389143 136.724168 
L 114.726323 137.966625 
L 114.102159 139.209081 
L 113.512971 140.451537 
L 112.955276 141.693994 
L 112.426831 142.93645 
L 111.927075 144.178906 
L 111.456959 145.421362 
L 111.018364 146.663819 
L 110.613353 147.906275 
L 110.243505 149.148731 
L 109.90949 150.391188 
L 109.610959 151.633644 
L 109.346702 152.8761 
L 109.114971 154.118556 
L 108.913843 155.361013 
L 108.741518 156.603469 
L 108.596481 157.845925 
L 108.477523 159.088382 
L 108.383633 160.330838 
L 108.313817 161.573294 
L 108.266876 162.815751 
L 108.241193 164.058207 
L 108.23456 165.300663 
L 108.244067 166.543119 
L 108.266072 167.785576 
L 108.296298 169.028032 
L 108.330037 170.270488 
L 108.362495 171.512945 
L 108.389204 172.755401 
L 108.406478 173.997857 
L 108.411802 175.240314 
L 108.411802 175.240314 
z
" clip-path="url(#p8d7cfb35bb)" style="fill: none; stroke: #000000; stroke-opacity: 0.3"/>
   </g>
   <g id="FillBetweenPolyCollection_11">
    <path d="M 114.509296 159.568867 
L 101.490704 159.568867 
L 101.052836 158.638846 
L 100.62049 157.708824 
L 100.197182 156.778803 
L 99.78625 155.848782 
L 99.390768 154.918761 
L 99.013458 153.988739 
L 98.656609 153.058718 
L 98.322011 152.128697 
L 98.010892 151.198676 
L 97.72388 150.268654 
L 97.460977 149.338633 
L 97.221547 148.408612 
L 97.004329 147.478591 
L 96.807472 146.548569 
L 96.62858 145.618548 
L 96.464782 144.688527 
L 96.312823 143.758506 
L 96.169161 142.828484 
L 96.030086 141.898463 
L 95.891839 140.968442 
L 95.750745 140.038421 
L 95.603346 139.108399 
L 95.446521 138.178378 
L 95.277613 137.248357 
L 95.094529 136.318336 
L 94.895836 135.388314 
L 94.680822 134.458293 
L 94.449545 133.528272 
L 94.202842 132.598251 
L 93.942322 131.668229 
L 93.670317 130.738208 
L 93.389814 129.808187 
L 93.104355 128.878166 
L 92.817918 127.948144 
L 92.534776 127.018123 
L 92.25935 126.088102 
L 91.996047 125.158081 
L 91.749112 124.228059 
L 91.522474 123.298038 
L 91.319621 122.368017 
L 91.143491 121.437996 
L 90.996383 120.507974 
L 90.879914 119.577953 
L 90.794991 118.647932 
L 90.74183 117.717911 
L 90.72 116.787889 
L 90.728496 115.857868 
L 90.765838 114.927847 
L 90.830184 113.997826 
L 90.919461 113.067804 
L 91.031494 112.137783 
L 91.164133 111.207762 
L 91.315371 110.277741 
L 91.483444 109.347719 
L 91.666913 108.417698 
L 91.864713 107.487677 
L 92.076184 106.557656 
L 92.301067 105.627634 
L 92.539475 104.697613 
L 92.791844 103.767592 
L 93.058856 102.837571 
L 93.341351 101.907549 
L 93.640231 100.977528 
L 93.956353 100.047507 
L 94.290431 99.117486 
L 94.64294 98.187464 
L 95.014031 97.257443 
L 95.403472 96.327422 
L 95.810596 95.397401 
L 96.234277 94.467379 
L 96.672928 93.537358 
L 97.124522 92.607337 
L 97.586632 91.677316 
L 98.056487 90.747294 
L 98.531051 89.817273 
L 99.007106 88.887252 
L 99.481347 87.957231 
L 99.950478 87.027209 
L 100.411306 86.097188 
L 100.860834 85.167167 
L 101.296337 84.237146 
L 101.715438 83.307124 
L 102.116153 82.377103 
L 102.496936 81.447082 
L 102.856694 80.517061 
L 103.194795 79.587039 
L 103.511052 78.657018 
L 103.805696 77.726997 
L 104.079337 76.796976 
L 104.332909 75.866954 
L 104.567612 74.936933 
L 104.784854 74.006912 
L 104.986175 73.076891 
L 105.173192 72.146869 
L 105.347531 71.216848 
L 105.510777 70.286827 
L 105.66442 69.356806 
L 105.80982 68.426784 
L 105.948174 67.496763 
L 110.051826 67.496763 
L 110.051826 67.496763 
L 110.19018 68.426784 
L 110.33558 69.356806 
L 110.489223 70.286827 
L 110.652469 71.216848 
L 110.826808 72.146869 
L 111.013825 73.076891 
L 111.215146 74.006912 
L 111.432388 74.936933 
L 111.667091 75.866954 
L 111.920663 76.796976 
L 112.194304 77.726997 
L 112.488948 78.657018 
L 112.805205 79.587039 
L 113.143306 80.517061 
L 113.503064 81.447082 
L 113.883847 82.377103 
L 114.284562 83.307124 
L 114.703663 84.237146 
L 115.139166 85.167167 
L 115.588694 86.097188 
L 116.049522 87.027209 
L 116.518653 87.957231 
L 116.992894 88.887252 
L 117.468949 89.817273 
L 117.943513 90.747294 
L 118.413368 91.677316 
L 118.875478 92.607337 
L 119.327072 93.537358 
L 119.765723 94.467379 
L 120.189404 95.397401 
L 120.596528 96.327422 
L 120.985969 97.257443 
L 121.35706 98.187464 
L 121.709569 99.117486 
L 122.043647 100.047507 
L 122.359769 100.977528 
L 122.658649 101.907549 
L 122.941144 102.837571 
L 123.208156 103.767592 
L 123.460525 104.697613 
L 123.698933 105.627634 
L 123.923816 106.557656 
L 124.135287 107.487677 
L 124.333087 108.417698 
L 124.516556 109.347719 
L 124.684629 110.277741 
L 124.835867 111.207762 
L 124.968506 112.137783 
L 125.080539 113.067804 
L 125.169816 113.997826 
L 125.234162 114.927847 
L 125.271504 115.857868 
L 125.28 116.787889 
L 125.25817 117.717911 
L 125.205009 118.647932 
L 125.120086 119.577953 
L 125.003617 120.507974 
L 124.856509 121.437996 
L 124.680379 122.368017 
L 124.477526 123.298038 
L 124.250888 124.228059 
L 124.003953 125.158081 
L 123.74065 126.088102 
L 123.465224 127.018123 
L 123.182082 127.948144 
L 122.895645 128.878166 
L 122.610186 129.808187 
L 122.329683 130.738208 
L 122.057678 131.668229 
L 121.797158 132.598251 
L 121.550455 133.528272 
L 121.319178 134.458293 
L 121.104164 135.388314 
L 120.905471 136.318336 
L 120.722387 137.248357 
L 120.553479 138.178378 
L 120.396654 139.108399 
L 120.249255 140.038421 
L 120.108161 140.968442 
L 119.969914 141.898463 
L 119.830839 142.828484 
L 119.687177 143.758506 
L 119.535218 144.688527 
L 119.37142 145.618548 
L 119.192528 146.548569 
L 118.995671 147.478591 
L 118.778453 148.408612 
L 118.539023 149.338633 
L 118.27612 150.268654 
L 117.989108 151.198676 
L 117.677989 152.128697 
L 117.343391 153.058718 
L 116.986542 153.988739 
L 116.609232 154.918761 
L 116.21375 155.848782 
L 115.802818 156.778803 
L 115.37951 157.708824 
L 114.947164 158.638846 
L 114.509296 159.568867 
L 114.509296 159.568867 
z
" clip-path="url(#p8d7cfb35bb)" style="fill: none; stroke: #000000; stroke-opacity: 0.3"/>
   </g>
   <g id="FillBetweenPolyCollection_12">
    <path d="M 109.103816 162.311183 
L 106.896184 162.311183 
L 106.747782 161.327314 
L 106.599485 160.343445 
L 106.454998 159.359577 
L 106.317869 158.375708 
L 106.191162 157.39184 
L 106.077118 156.407971 
L 105.976834 155.424102 
L 105.890008 154.440234 
L 105.814759 153.456365 
L 105.747558 152.472497 
L 105.683291 151.488628 
L 105.615441 150.504759 
L 105.536407 149.520891 
L 105.437934 148.537022 
L 105.311632 147.553154 
L 105.149559 146.569285 
L 104.944815 145.585416 
L 104.692126 144.601548 
L 104.388349 143.617679 
L 104.032878 142.63381 
L 103.627893 141.649942 
L 103.178439 140.666073 
L 102.692301 139.682205 
L 102.179675 138.698336 
L 101.65263 137.714467 
L 101.124396 136.730599 
L 100.608498 135.74673 
L 100.117802 134.762862 
L 99.663543 133.778993 
L 99.254408 132.795124 
L 98.895774 131.811256 
L 98.589172 130.827387 
L 98.332064 129.843519 
L 98.117943 128.85965 
L 97.936799 127.875781 
L 97.775878 126.891913 
L 97.620695 125.908044 
L 97.456178 124.924176 
L 97.267844 123.940307 
L 97.042897 122.956438 
L 96.771151 121.97257 
L 96.445738 120.988701 
L 96.06356 120.004833 
L 95.625507 119.020964 
L 95.136486 118.037095 
L 94.605276 117.053227 
L 94.044264 116.069358 
L 93.469063 115.08549 
L 92.898005 114.101621 
L 92.351467 113.117752 
L 91.851022 112.133884 
L 91.418378 111.150015 
L 91.074153 110.166146 
L 90.836541 109.182278 
L 90.72 108.198409 
L 90.734111 107.214541 
L 90.882773 106.230672 
L 91.163851 105.246803 
L 91.569363 104.262935 
L 92.086197 103.279066 
L 92.697272 102.295198 
L 93.382999 101.311329 
L 94.122843 100.32746 
L 94.896806 99.343592 
L 95.686661 98.359723 
L 96.476833 97.375855 
L 97.254887 96.391986 
L 98.011639 95.408117 
L 98.740962 94.424249 
L 99.439368 93.44038 
L 100.105455 92.456512 
L 100.739312 91.472643 
L 101.34193 90.488774 
L 101.914672 89.504906 
L 102.458837 88.521037 
L 102.975332 87.537169 
L 103.464484 86.5533 
L 103.925991 85.569431 
L 104.359 84.585563 
L 104.762315 83.601694 
L 105.134662 82.617825 
L 105.474988 81.633957 
L 105.782721 80.650088 
L 106.057949 79.66622 
L 106.301492 78.682351 
L 106.514859 77.698482 
L 106.700115 76.714614 
L 106.859692 75.730745 
L 106.996196 74.746877 
L 107.112244 73.763008 
L 107.210358 72.779139 
L 107.292925 71.795271 
L 107.362203 70.811402 
L 107.42036 69.827534 
L 107.4695 68.843665 
L 107.511664 67.859796 
L 107.548799 66.875928 
L 107.582681 65.892059 
L 107.614825 64.908191 
L 108.385175 64.908191 
L 108.385175 64.908191 
L 108.417319 65.892059 
L 108.451201 66.875928 
L 108.488336 67.859796 
L 108.5305 68.843665 
L 108.57964 69.827534 
L 108.637797 70.811402 
L 108.707075 71.795271 
L 108.789642 72.779139 
L 108.887756 73.763008 
L 109.003804 74.746877 
L 109.140308 75.730745 
L 109.299885 76.714614 
L 109.485141 77.698482 
L 109.698508 78.682351 
L 109.942051 79.66622 
L 110.217279 80.650088 
L 110.525012 81.633957 
L 110.865338 82.617825 
L 111.237685 83.601694 
L 111.641 84.585563 
L 112.074009 85.569431 
L 112.535516 86.5533 
L 113.024668 87.537169 
L 113.541163 88.521037 
L 114.085328 89.504906 
L 114.65807 90.488774 
L 115.260688 91.472643 
L 115.894545 92.456512 
L 116.560632 93.44038 
L 117.259038 94.424249 
L 117.988361 95.408117 
L 118.745113 96.391986 
L 119.523167 97.375855 
L 120.313339 98.359723 
L 121.103194 99.343592 
L 121.877157 100.32746 
L 122.617001 101.311329 
L 123.302728 102.295198 
L 123.913803 103.279066 
L 124.430637 104.262935 
L 124.836149 105.246803 
L 125.117227 106.230672 
L 125.265889 107.214541 
L 125.28 108.198409 
L 125.163459 109.182278 
L 124.925847 110.166146 
L 124.581622 111.150015 
L 124.148978 112.133884 
L 123.648533 113.117752 
L 123.101995 114.101621 
L 122.530937 115.08549 
L 121.955736 116.069358 
L 121.394724 117.053227 
L 120.863514 118.037095 
L 120.374493 119.020964 
L 119.93644 120.004833 
L 119.554262 120.988701 
L 119.228849 121.97257 
L 118.957103 122.956438 
L 118.732156 123.940307 
L 118.543822 124.924176 
L 118.379305 125.908044 
L 118.224122 126.891913 
L 118.063201 127.875781 
L 117.882057 128.85965 
L 117.667936 129.843519 
L 117.410828 130.827387 
L 117.104226 131.811256 
L 116.745592 132.795124 
L 116.336457 133.778993 
L 115.882198 134.762862 
L 115.391502 135.74673 
L 114.875604 136.730599 
L 114.34737 137.714467 
L 113.820325 138.698336 
L 113.307699 139.682205 
L 112.821561 140.666073 
L 112.372107 141.649942 
L 111.967122 142.63381 
L 111.611651 143.617679 
L 111.307874 144.601548 
L 111.055185 145.585416 
L 110.850441 146.569285 
L 110.688368 147.553154 
L 110.562066 148.537022 
L 110.463593 149.520891 
L 110.384559 150.504759 
L 110.316709 151.488628 
L 110.252442 152.472497 
L 110.185241 153.456365 
L 110.109992 154.440234 
L 110.023166 155.424102 
L 109.922882 156.407971 
L 109.808838 157.39184 
L 109.682131 158.375708 
L 109.545002 159.359577 
L 109.400515 160.343445 
L 109.252218 161.327314 
L 109.103816 162.311183 
L 109.103816 162.311183 
z
" clip-path="url(#p8d7cfb35bb)" style="fill: none; stroke: #000000; stroke-opacity: 0.3"/>
   </g>
   <g id="matplotlib.axis_1">
    <g id="xtick_1">
     <g id="line2d_1">
      <defs>
       <path id="me4da5ee1c8" d="M 0 0 
L 0 3.5 
" style="stroke: #000000; stroke-width: 0.8"/>
      </defs>
      <g>
       <use xlink:href="#me4da5ee1c8" x="50.4" y="291.6" style="stroke: #000000; stroke-width: 0.8"/>
      </g>
     </g>
     <g id="text_1">
      <text style="font-size: 10px; font-family: 'DejaVu Sans', 'Bitstream Vera Sans', 'Computer Modern Sans Serif', 'Lucida Grande', 'Verdana', 'Geneva', 'Lucid', 'Arial', 'Helvetica', 'Avant Garde', sans-serif; text-anchor: middle" x="50.4" y="306.198438" transform="rotate(-0 50.4 306.198438)">0.3</text>
     </g>
    </g>
    <g id="xtick_2">
     <g id="line2d_2">
      <g>
       <use xlink:href="#me4da5ee1c8" x="108" y="291.6" style="stroke: #000000; stroke-width: 0.8"/>
      </g>
     </g>
     <g id="text_2">
      <text style="font-size: 10px; font-family: 'DejaVu Sans', 'Bitstream Vera Sans', 'Computer Modern Sans Serif', 'Lucida Grande', 'Verdana', 'Geneva', 'Lucid', 'Arial', 'Helvetica', 'Avant Garde', sans-serif; text-anchor: middle" x="108" y="306.198438" transform="rotate(-0 108 306.198438)">0.6</text>
     </g>
    </g>
   </g>
   <g id="matplotlib.axis_2">
    <g id="ytick_1">
     <g id="line2d_3">
      <defs>
       <path id="mf18e3a7a02" d="M 0 0 
L -3.5 0 
" style="stroke: #000000; stroke-width: 0.8"/>
      </defs>
      <g>
       <use xlink:href="#mf18e3a7a02" x="21.6" y="291.6" style="stroke: #000000; stroke-width: 0.8"/>
      </g>
     </g>
    </g>
    <g id="ytick_2">
     <g id="line2d_4">
      <g>
       <use xlink:href="#mf18e3a7a02" x="21.6" y="199.8" style="stroke: #000000; stroke-width: 0.8"/>
      </g>
     </g>
    </g>
    <g id="ytick_3">
     <g id="line2d_5">
      <g>
       <use xlink:href="#mf18e3a7a02" x="21.6" y="108" style="stroke: #000000; stroke-width: 0.8"/>
      </g>
     </g>
    </g>
    <g id="ytick_4">
     <g id="line2d_6">
      <g>
       <use xlink:href="#mf18e3a7a02" x="21.6" y="16.2" style="stroke: #000000; stroke-width: 0.8"/>
      </g>
     </g>
    </g>
   </g>
   <g id="line2d_7">
    <path d="M 50.4 269.568 
L 50.4 264.06 
" clip-path="url(#p8d7cfb35bb)" style="fill: none; stroke: #000000; stroke-linecap: square"/>
   </g>
   <g id="line2d_8">
    <path d="M 50.4 269.568 
L 108 269.568 
" clip-path="url(#p8d7cfb35bb)" style="fill: none; stroke: #000000; stroke-linecap: square"/>
   </g>
   <g id="line2d_9">
    <path d="M 108 269.568 
L 108 264.06 
" clip-path="url(#p8d7cfb35bb)" style="fill: none; stroke: #000000; stroke-linecap: square"/>
   </g>
   <g id="patch_3">
    <path d="M 21.6 291.6 
L 21.6 16.2 
" style="fill: none; stroke: #000000; stroke-width: 0.8; stroke-linejoin: miter; stroke-linecap: square"/>
   </g>
   <g id="patch_4">
    <path d="M 136.8 291.6 
L 136.8 16.2 
" style="fill: none; stroke: #000000; stroke-width: 0.8; stroke-linejoin: miter; stroke-linecap: square"/>
   </g>
   <g id="patch_5">
    <path d="M 21.6 291.6 
L 136.8 291.6 
" style="fill: none; stroke: #000000; stroke-width: 0.8; stroke-linejoin: miter; stroke-linecap: square"/>
   </g>
   <g id="patch_6">
    <path d="M 21.6 16.2 
L 136.8 16.2 
" style="fill: none; stroke: #000000; stroke-width: 0.8; stroke-linejoin: miter; stroke-linecap: square"/>
   </g>
   <g id="text_3">
    <text style="font-weight: 700; font-size: 12px; font-family: 'DejaVu Sans', 'Bitstream Vera Sans', 'Computer Modern Sans Serif', 'Lucida Grande', 'Verdana', 'Geneva', 'Lucid', 'Arial', 'Helvetica', 'Avant Garde', sans-serif; text-anchor: middle" x="50.4" y="289.104375" transform="rotate(-0 50.4 289.104375)">#11</text>
   </g>
   <g id="text_4">
    <text style="font-weight: 700; font-size: 12px; font-family: 'DejaVu Sans', 'Bitstream Vera Sans', 'Computer Modern Sans Serif', 'Lucida Grande', 'Verdana', 'Geneva', 'Lucid', 'Arial', 'Helvetica', 'Avant Garde', sans-serif; text-anchor: middle" x="108" y="289.104375" transform="rotate(-0 108 289.104375)">#25</text>
   </g>
   <g id="text_5">
    <text style="font-size: 12px; font-family: 'DejaVu Sans', 'Bitstream Vera Sans', 'Computer Modern Sans Serif', 'Lucida Grande', 'Verdana', 'Geneva', 'Lucid', 'Arial', 'Helvetica', 'Avant Garde', sans-serif; text-anchor: middle" x="79.2" y="268.449375" transform="rotate(-0 79.2 268.449375)">****</text>
   </g>
   <g id="line2d_10">
    <path d="M 21.6 136.723559 
L 136.8 136.723559 
" clip-path="url(#p8d7cfb35bb)" style="fill: none; stroke-dasharray: 3.7,1.6; stroke-dashoffset: 0; stroke: #808080; stroke-opacity: 0.7"/>
   </g>
   <g id="line2d_11">
    <path d="M 21.6 118.238889 
L 136.8 118.238889 
" clip-path="url(#p8d7cfb35bb)" style="fill: none; stroke-dasharray: 3.7,1.6; stroke-dashoffset: 0; stroke: #808080; stroke-opacity: 0.7"/>
   </g>
   <g id="LineCollection_1">
    <path d="M 50.4 139.875006 
L 50.4 133.572112 
" clip-path="url(#p8d7cfb35bb)" style="fill: none; stroke: #000000; stroke-width: 2"/>
   </g>
   <g id="line2d_12">
    <defs>
     <path id="m6169e0d521" d="M 5 0 
L -5 -0 
" style="stroke: #000000; stroke-width: 2"/>
    </defs>
    <g clip-path="url(#p8d7cfb35bb)">
     <use xlink:href="#m6169e0d521" x="50.4" y="139.875006" style="stroke: #000000; stroke-width: 2"/>
    </g>
   </g>
   <g id="line2d_13">
    <g clip-path="url(#p8d7cfb35bb)">
     <use xlink:href="#m6169e0d521" x="50.4" y="133.572112" style="stroke: #000000; stroke-width: 2"/>
    </g>
   </g>
   <g id="LineCollection_2">
    <path d="M 108 123.417812 
L 108 113.059965 
" clip-path="url(#p8d7cfb35bb)" style="fill: none; stroke: #000000; stroke-width: 2"/>
   </g>
   <g id="line2d_14">
    <g clip-path="url(#p8d7cfb35bb)">
     <use xlink:href="#m6169e0d521" x="108" y="123.417812" style="stroke: #000000; stroke-width: 2"/>
    </g>
   </g>
   <g id="line2d_15">
    <g clip-path="url(#p8d7cfb35bb)">
     <use xlink:href="#m6169e0d521" x="108" y="113.059965" style="stroke: #000000; stroke-width: 2"/>
    </g>
   </g>
   <g id="line2d_16">
    <defs>
     <path id="m7e299d9e06" d="M 0 4 
C 1.060812 4 2.078319 3.578535 2.828427 2.828427 
C 3.578535 2.078319 4 1.060812 4 0 
C 4 -1.060812 3.578535 -2.078319 2.828427 -2.828427 
C 2.078319 -3.578535 1.060812 -4 0 -4 
C -1.060812 -4 -2.078319 -3.578535 -2.828427 -2.828427 
C -3.578535 -2.078319 -4 -1.060812 -4 0 
C -4 1.060812 -3.578535 2.078319 -2.828427 2.828427 
C -2.078319 3.578535 -1.060812 4 0 4 
z
" style="stroke: #000000"/>
    </defs>
    <g clip-path="url(#p8d7cfb35bb)">
     <use xlink:href="#m7e299d9e06" x="50.4" y="136.723559" style="stroke: #000000"/>
    </g>
   </g>
   <g id="line2d_17">
    <g clip-path="url(#p8d7cfb35bb)">
     <use xlink:href="#m7e299d9e06" x="108" y="118.238889" style="stroke: #000000"/>
    </g>
   </g>
  </g>
 </g>
 <defs>
  <clipPath id="p8d7cfb35bb">
   <rect x="21.6" y="16.2" width="115.2" height="275.4"/>
  </clipPath>
 </defs>
</svg>
