<?xml version="1.0" encoding="utf-8" standalone="no"?>
<!DOCTYPE svg PUBLIC "-//W3C//DTD SVG 1.1//EN"
  "http://www.w3.org/Graphics/SVG/1.1/DTD/svg11.dtd">
<svg xmlns:xlink="http://www.w3.org/1999/xlink" width="144pt" height="324pt" viewBox="0 0 144 324" xmlns="http://www.w3.org/2000/svg" version="1.1">
 <metadata>
  <rdf:RDF xmlns:dc="http://purl.org/dc/elements/1.1/" xmlns:cc="http://creativecommons.org/ns#" xmlns:rdf="http://www.w3.org/1999/02/22-rdf-syntax-ns#">
   <cc:Work>
    <dc:type rdf:resource="http://purl.org/dc/dcmitype/StillImage"/>
    <dc:date>2025-12-11T09:10:01.510514</dc:date>
    <dc:format>image/svg+xml</dc:format>
    <dc:creator>
     <cc:Agent>
      <dc:title>Matplotlib v3.10.0, https://matplotlib.org/</dc:title>
     </cc:Agent>
    </dc:creator>
   </cc:Work>
  </rdf:RDF>
 </metadata>
 <defs>
  <style type="text/css">*{stroke-linejoin: round; stroke-linecap: butt}</style>
 </defs>
 <g id="figure_1">
  <g id="patch_1">
   <path d="M 0 324 
L 144 324 
L 144 0 
L 0 0 
z
" style="fill: #ffffff"/>
  </g>
  <g id="axes_1">
   <g id="patch_2">
    <path d="M 21.6 291.6 
L 136.8 291.6 
L 136.8 16.2 
L 21.6 16.2 
z
" style="fill: #ffffff"/>
   </g>
   <g id="FillBetweenPolyCollection_1">
    <path d="M 51.020513 240.840262 
L 49.779487 240.840262 
L 49.784625 239.319275 
L 49.799789 237.798287 
L 49.824236 236.2773 
L 49.856795 234.756312 
L 49.895959 233.235325 
L 49.940002 231.714337 
L 49.987096 230.19335 
L 50.03544 228.672362 
L 50.08336 227.151375 
L 50.129398 225.630387 
L 50.172363 224.1094 
L 50.211357 222.588412 
L 50.245771 221.067425 
L 50.275255 219.546437 
L 50.299671 218.02545 
L 50.319034 216.504462 
L 50.333452 214.983475 
L 50.343068 213.462487 
L 50.348009 211.9415 
L 50.348349 210.420512 
L 50.344095 208.899525 
L 50.335181 207.378537 
L 50.321485 205.85755 
L 50.302864 204.336562 
L 50.279203 202.815575 
L 50.250466 201.294587 
L 50.216766 199.7736 
L 50.178416 198.252612 
L 50.135984 196.731625 
L 50.090321 195.210637 
L 50.042571 193.68965 
L 49.994148 192.168662 
L 49.946688 190.647675 
L 49.901963 189.126687 
L 49.861777 187.6057 
L 49.827839 186.084712 
L 49.801638 184.563725 
L 49.784312 183.042737 
L 49.776548 181.52175 
L 49.778498 180.000762 
L 49.789742 178.479775 
L 49.809277 176.958787 
L 49.835555 175.4378 
L 49.866543 173.916812 
L 49.899806 172.395825 
L 49.932606 170.874837 
L 49.961995 169.35385 
L 49.984899 167.832862 
L 49.998182 166.311875 
L 49.998691 164.790887 
L 49.983273 163.2699 
L 49.948771 161.748912 
L 49.892009 160.227925 
L 49.809757 158.706937 
L 49.698707 157.18595 
L 49.555441 155.664962 
L 49.376423 154.143975 
L 49.158009 152.622987 
L 48.896479 151.102 
L 48.588111 149.581012 
L 48.229284 148.060025 
L 47.81663 146.539037 
L 47.347217 145.01805 
L 46.81878 143.497062 
L 46.229974 141.976075 
L 45.580655 140.455087 
L 44.872156 138.9341 
L 44.107544 137.413112 
L 43.291838 135.892125 
L 42.43215 134.371137 
L 41.537733 132.85015 
L 40.619918 131.329162 
L 39.691914 129.808175 
L 38.768496 128.287187 
L 37.865559 126.7662 
L 36.999592 125.245212 
L 36.187081 123.724225 
L 35.443896 122.203237 
L 34.7847 120.68225 
L 34.222423 119.161262 
L 33.767833 117.640275 
L 33.429233 116.119287 
L 33.21229 114.5983 
L 33.12 113.077312 
L 33.152765 111.556325 
L 33.308564 110.035337 
L 33.583187 108.51435 
L 33.970501 106.993362 
L 34.462714 105.472375 
L 35.050634 103.951387 
L 35.723894 102.4304 
L 36.471151 100.909412 
L 37.280267 99.388425 
L 38.138485 97.867437 
L 39.032604 96.34645 
L 39.949184 94.825462 
L 40.874782 93.304475 
L 41.796216 91.783487 
L 42.70087 90.2625 
L 58.09913 90.2625 
L 58.09913 90.2625 
L 59.003784 91.783487 
L 59.925218 93.304475 
L 60.850816 94.825462 
L 61.767396 96.34645 
L 62.661515 97.867437 
L 63.519733 99.388425 
L 64.328849 100.909412 
L 65.076106 102.4304 
L 65.749366 103.951387 
L 66.337286 105.472375 
L 66.829499 106.993362 
L 67.216813 108.51435 
L 67.491436 110.035337 
L 67.647235 111.556325 
L 67.68 113.077312 
L 67.58771 114.5983 
L 67.370767 116.119287 
L 67.032167 117.640275 
L 66.577577 119.161262 
L 66.0153 120.68225 
L 65.356104 122.203237 
L 64.612919 123.724225 
L 63.800408 125.245212 
L 62.934441 126.7662 
L 62.031504 128.287187 
L 61.108086 129.808175 
L 60.180082 131.329162 
L 59.262267 132.85015 
L 58.36785 134.371137 
L 57.508162 135.892125 
L 56.692456 137.413112 
L 55.927844 138.9341 
L 55.219345 140.455087 
L 54.570026 141.976075 
L 53.98122 143.497062 
L 53.452783 145.01805 
L 52.98337 146.539037 
L 52.570716 148.060025 
L 52.211889 149.581012 
L 51.903521 151.102 
L 51.641991 152.622987 
L 51.423577 154.143975 
L 51.244559 155.664962 
L 51.101293 157.18595 
L 50.990243 158.706937 
L 50.907991 160.227925 
L 50.851229 161.748912 
L 50.816727 163.2699 
L 50.801309 164.790887 
L 50.801818 166.311875 
L 50.815101 167.832862 
L 50.838005 169.35385 
L 50.867394 170.874837 
L 50.900194 172.395825 
L 50.933457 173.916812 
L 50.964445 175.4378 
L 50.990723 176.958787 
L 51.010258 178.479775 
L 51.021502 180.000762 
L 51.023452 181.52175 
L 51.015688 183.042737 
L 50.998362 184.563725 
L 50.972161 186.084712 
L 50.938223 187.6057 
L 50.898037 189.126687 
L 50.853312 190.647675 
L 50.805852 192.168662 
L 50.757429 193.68965 
L 50.709679 195.210637 
L 50.664016 196.731625 
L 50.621584 198.252612 
L 50.583234 199.7736 
L 50.549534 201.294587 
L 50.520797 202.815575 
L 50.497136 204.336562 
L 50.478515 205.85755 
L 50.464819 207.378537 
L 50.455905 208.899525 
L 50.451651 210.420512 
L 50.451991 211.9415 
L 50.456932 213.462487 
L 50.466548 214.983475 
L 50.480966 216.504462 
L 50.500329 218.02545 
L 50.524745 219.546437 
L 50.554229 221.067425 
L 50.588643 222.588412 
L 50.627637 224.1094 
L 50.670602 225.630387 
L 50.71664 227.151375 
L 50.76456 228.672362 
L 50.812904 230.19335 
L 50.859998 231.714337 
L 50.904041 233.235325 
L 50.943205 234.756312 
L 50.975764 236.2773 
L 51.000211 237.798287 
L 51.015375 239.319275 
L 51.020513 240.840262 
L 51.020513 240.840262 
z
" clip-path="url(#p6cc6326b00)" style="fill: none; stroke: #000000; stroke-opacity: 0.3"/>
   </g>
   <g id="FillBetweenPolyCollection_2">
    <path d="M 50.925722 237.147868 
L 49.874278 237.147868 
L 49.879945 235.563483 
L 49.896584 233.979097 
L 49.92314 232.394711 
L 49.957982 230.810326 
L 49.999064 229.22594 
L 50.044127 227.641554 
L 50.090899 226.057168 
L 50.137281 224.472783 
L 50.181491 222.888397 
L 50.222158 221.304011 
L 50.258359 219.719625 
L 50.289606 218.13524 
L 50.315799 216.550854 
L 50.337142 214.966468 
L 50.354059 213.382083 
L 50.367099 211.797697 
L 50.376866 210.213311 
L 50.383943 208.628925 
L 50.388856 207.04454 
L 50.392031 205.460154 
L 50.393781 203.875768 
L 50.394289 202.291382 
L 50.393608 200.706997 
L 50.391652 199.122611 
L 50.388195 197.538225 
L 50.382874 195.95384 
L 50.375187 194.369454 
L 50.364508 192.785068 
L 50.3501 191.200682 
L 50.331146 189.616297 
L 50.306792 188.031911 
L 50.276189 186.447525 
L 50.238551 184.863139 
L 50.193202 183.278754 
L 50.139613 181.694368 
L 50.077414 180.109982 
L 50.006371 178.525597 
L 49.926335 176.941211 
L 49.83715 175.356825 
L 49.738539 173.772439 
L 49.629985 172.188054 
L 49.510626 170.603668 
L 49.379186 169.019282 
L 49.233974 167.434896 
L 49.072952 165.850511 
L 48.89388 164.266125 
L 48.694538 162.681739 
L 48.472984 161.097354 
L 48.227831 159.512968 
L 47.958491 157.928582 
L 47.665349 156.344196 
L 47.349835 154.759811 
L 47.014349 153.175425 
L 46.662053 151.591039 
L 46.296516 150.006653 
L 45.921247 148.422268 
L 45.539161 146.837882 
L 45.152036 145.253496 
L 44.760034 143.669111 
L 44.361365 142.084725 
L 43.952158 140.500339 
L 43.526593 138.915953 
L 43.077329 137.331568 
L 42.596215 135.747182 
L 42.075246 134.162796 
L 41.507675 132.578411 
L 40.889172 130.994025 
L 40.218895 129.409639 
L 39.500332 127.825253 
L 38.741786 126.240868 
L 37.956433 124.656482 
L 37.161895 123.072096 
L 36.379356 121.48771 
L 35.632311 119.903325 
L 34.945055 118.318939 
L 34.341078 116.734553 
L 33.841528 115.150168 
L 33.463873 113.565782 
L 33.220886 111.981396 
L 33.12 110.39701 
L 33.163067 108.812625 
L 33.346481 107.228239 
L 33.661634 105.643853 
L 34.095642 104.059467 
L 34.632285 102.475082 
L 35.253087 100.890696 
L 35.938507 99.30631 
L 36.669136 97.721925 
L 37.426853 96.137539 
L 38.19583 94.553153 
L 38.963297 92.968767 
L 39.719985 91.384382 
L 40.460177 89.799996 
L 41.181377 88.21561 
L 41.883615 86.631224 
L 42.568509 85.046839 
L 43.238215 83.462453 
L 43.894415 81.878067 
L 44.53752 80.293682 
L 56.26248 80.293682 
L 56.26248 80.293682 
L 56.905585 81.878067 
L 57.561785 83.462453 
L 58.231491 85.046839 
L 58.916385 86.631224 
L 59.618623 88.21561 
L 60.339823 89.799996 
L 61.080015 91.384382 
L 61.836703 92.968767 
L 62.60417 94.553153 
L 63.373147 96.137539 
L 64.130864 97.721925 
L 64.861493 99.30631 
L 65.546913 100.890696 
L 66.167715 102.475082 
L 66.704358 104.059467 
L 67.138366 105.643853 
L 67.453519 107.228239 
L 67.636933 108.812625 
L 67.68 110.39701 
L 67.579114 111.981396 
L 67.336127 113.565782 
L 66.958472 115.150168 
L 66.458922 116.734553 
L 65.854945 118.318939 
L 65.167689 119.903325 
L 64.420644 121.48771 
L 63.638105 123.072096 
L 62.843567 124.656482 
L 62.058214 126.240868 
L 61.299668 127.825253 
L 60.581105 129.409639 
L 59.910828 130.994025 
L 59.292325 132.578411 
L 58.724754 134.162796 
L 58.203785 135.747182 
L 57.722671 137.331568 
L 57.273407 138.915953 
L 56.847842 140.500339 
L 56.438635 142.084725 
L 56.039966 143.669111 
L 55.647964 145.253496 
L 55.260839 146.837882 
L 54.878753 148.422268 
L 54.503484 150.006653 
L 54.137947 151.591039 
L 53.785651 153.175425 
L 53.450165 154.759811 
L 53.134651 156.344196 
L 52.841509 157.928582 
L 52.572169 159.512968 
L 52.327016 161.097354 
L 52.105462 162.681739 
L 51.90612 164.266125 
L 51.727048 165.850511 
L 51.566026 167.434896 
L 51.420814 169.019282 
L 51.289374 170.603668 
L 51.170015 172.188054 
L 51.061461 173.772439 
L 50.96285 175.356825 
L 50.873665 176.941211 
L 50.793629 178.525597 
L 50.722586 180.109982 
L 50.660387 181.694368 
L 50.606798 183.278754 
L 50.561449 184.863139 
L 50.523811 186.447525 
L 50.493208 188.031911 
L 50.468854 189.616297 
L 50.4499 191.200682 
L 50.435492 192.785068 
L 50.424813 194.369454 
L 50.417126 195.95384 
L 50.411805 197.538225 
L 50.408348 199.122611 
L 50.406392 200.706997 
L 50.405711 202.291382 
L 50.406219 203.875768 
L 50.407969 205.460154 
L 50.411144 207.04454 
L 50.416057 208.628925 
L 50.423134 210.213311 
L 50.432901 211.797697 
L 50.445941 213.382083 
L 50.462858 214.966468 
L 50.484201 216.550854 
L 50.510394 218.13524 
L 50.541641 219.719625 
L 50.577842 221.304011 
L 50.618509 222.888397 
L 50.662719 224.472783 
L 50.709101 226.057168 
L 50.755873 227.641554 
L 50.800936 229.22594 
L 50.842018 230.810326 
L 50.87686 232.394711 
L 50.903416 233.979097 
L 50.920055 235.563483 
L 50.925722 237.147868 
L 50.925722 237.147868 
z
" clip-path="url(#p6cc6326b00)" style="fill: none; stroke: #000000; stroke-opacity: 0.3"/>
   </g>
   <g id="FillBetweenPolyCollection_3">
    <path d="M 50.794315 317.472414 
L 50.005685 317.472414 
L 50.010022 314.685899 
L 50.024185 311.899383 
L 50.046385 309.112867 
L 50.073968 306.326352 
L 50.103651 303.539836 
L 50.131812 300.753321 
L 50.154796 297.966805 
L 50.169205 295.180289 
L 50.17217 292.393774 
L 50.16158 289.607258 
L 50.136291 286.820742 
L 50.096291 284.034227 
L 50.042824 281.247711 
L 49.978431 278.461196 
L 49.906889 275.67468 
L 49.833004 272.888164 
L 49.762252 270.101649 
L 49.700286 267.315133 
L 49.652355 264.528618 
L 49.622707 261.742102 
L 49.614092 258.955586 
L 49.627435 256.169071 
L 49.66174 253.382555 
L 49.714262 250.596039 
L 49.7809 247.809524 
L 49.856741 245.023008 
L 49.93667 242.236493 
L 50.015932 239.449977 
L 50.090569 236.663461 
L 50.157693 233.876946 
L 50.215563 231.09043 
L 50.263511 228.303914 
L 50.301737 225.517399 
L 50.331053 222.730883 
L 50.352599 219.944368 
L 50.367588 217.157852 
L 50.377075 214.371336 
L 50.381778 211.584821 
L 50.381908 208.798305 
L 50.37703 206.011789 
L 50.365898 203.225274 
L 50.346293 200.438758 
L 50.314855 197.652243 
L 50.266919 194.865727 
L 50.196417 192.079211 
L 50.095868 189.292696 
L 49.956515 186.50618 
L 49.768649 183.719665 
L 49.522118 180.933149 
L 49.207016 178.146633 
L 48.814474 175.360118 
L 48.337465 172.573602 
L 47.7715 169.787086 
L 47.115109 167.000571 
L 46.37004 164.214055 
L 45.541164 161.42754 
L 44.636142 158.641024 
L 43.664996 155.854508 
L 42.639713 153.067993 
L 41.574033 150.281477 
L 40.483491 147.494961 
L 39.385683 144.708446 
L 38.300636 141.92193 
L 37.251097 139.135415 
L 36.262484 136.348899 
L 35.362353 133.562383 
L 34.579252 130.775868 
L 33.941037 127.989352 
L 33.472798 125.202837 
L 33.194692 122.416321 
L 33.12 119.629805 
L 33.253702 116.84329 
L 33.591801 114.056774 
L 34.121479 111.270258 
L 34.822065 108.483743 
L 35.666655 105.697227 
L 36.62417 102.910712 
L 37.66159 100.124196 
L 38.746109 97.33768 
L 39.847016 94.551165 
L 40.93713 91.764649 
L 41.993733 88.978133 
L 42.99897 86.191618 
L 43.939782 83.405102 
L 44.807467 80.618587 
L 45.597015 77.832071 
L 46.306349 75.045555 
L 46.935614 72.25904 
L 47.486609 69.472524 
L 47.962397 66.686009 
L 48.3671 63.899493 
L 48.705813 61.112977 
L 48.984562 58.326462 
L 49.210235 55.539946 
L 49.390409 52.75343 
L 49.533062 49.966915 
L 49.646173 47.180399 
L 49.73727 44.393884 
L 49.812992 41.607368 
L 50.987008 41.607368 
L 50.987008 41.607368 
L 51.06273 44.393884 
L 51.153827 47.180399 
L 51.266938 49.966915 
L 51.409591 52.75343 
L 51.589765 55.539946 
L 51.815438 58.326462 
L 52.094187 61.112977 
L 52.4329 63.899493 
L 52.837603 66.686009 
L 53.313391 69.472524 
L 53.864386 72.25904 
L 54.493651 75.045555 
L 55.202985 77.832071 
L 55.992533 80.618587 
L 56.860218 83.405102 
L 57.80103 86.191618 
L 58.806267 88.978133 
L 59.86287 91.764649 
L 60.952984 94.551165 
L 62.053891 97.33768 
L 63.13841 100.124196 
L 64.17583 102.910712 
L 65.133345 105.697227 
L 65.977935 108.483743 
L 66.678521 111.270258 
L 67.208199 114.056774 
L 67.546298 116.84329 
L 67.68 119.629805 
L 67.605308 122.416321 
L 67.327202 125.202837 
L 66.858963 127.989352 
L 66.220748 130.775868 
L 65.437647 133.562383 
L 64.537516 136.348899 
L 63.548903 139.135415 
L 62.499364 141.92193 
L 61.414317 144.708446 
L 60.316509 147.494961 
L 59.225967 150.281477 
L 58.160287 153.067993 
L 57.135004 155.854508 
L 56.163858 158.641024 
L 55.258836 161.42754 
L 54.42996 164.214055 
L 53.684891 167.000571 
L 53.0285 169.787086 
L 52.462535 172.573602 
L 51.985526 175.360118 
L 51.592984 178.146633 
L 51.277882 180.933149 
L 51.031351 183.719665 
L 50.843485 186.50618 
L 50.704132 189.292696 
L 50.603583 192.079211 
L 50.533081 194.865727 
L 50.485145 197.652243 
L 50.453707 200.438758 
L 50.434102 203.225274 
L 50.42297 206.011789 
L 50.418092 208.798305 
L 50.418222 211.584821 
L 50.422925 214.371336 
L 50.432412 217.157852 
L 50.447401 219.944368 
L 50.468947 222.730883 
L 50.498263 225.517399 
L 50.536489 228.303914 
L 50.584437 231.09043 
L 50.642307 233.876946 
L 50.709431 236.663461 
L 50.784068 239.449977 
L 50.86333 242.236493 
L 50.943259 245.023008 
L 51.0191 247.809524 
L 51.085738 250.596039 
L 51.13826 253.382555 
L 51.172565 256.169071 
L 51.185908 258.955586 
L 51.177293 261.742102 
L 51.147645 264.528618 
L 51.099714 267.315133 
L 51.037748 270.101649 
L 50.966996 272.888164 
L 50.893111 275.67468 
L 50.821569 278.461196 
L 50.757176 281.247711 
L 50.703709 284.034227 
L 50.663709 286.820742 
L 50.63842 289.607258 
L 50.62783 292.393774 
L 50.630795 295.180289 
L 50.645204 297.966805 
L 50.668188 300.753321 
L 50.696349 303.539836 
L 50.726032 306.326352 
L 50.753615 309.112867 
L 50.775815 311.899383 
L 50.789978 314.685899 
L 50.794315 317.472414 
L 50.794315 317.472414 
z
" clip-path="url(#p6cc6326b00)" style="fill: none; stroke: #000000; stroke-opacity: 0.3"/>
   </g>
   <g id="FillBetweenPolyCollection_4">
    <path d="M 50.820777 205.075162 
L 49.979223 205.075162 
L 49.98527 203.379714 
L 50.002944 201.684265 
L 50.030691 199.988817 
L 50.066154 198.293368 
L 50.106454 196.59792 
L 50.148501 194.902471 
L 50.189269 193.207022 
L 50.225996 191.511574 
L 50.25627 189.816125 
L 50.278006 188.120677 
L 50.289346 186.425228 
L 50.288506 184.72978 
L 50.273648 183.034331 
L 50.242808 181.338883 
L 50.193937 179.643434 
L 50.125053 177.947986 
L 50.034527 176.252537 
L 49.921423 174.557089 
L 49.78586 172.86164 
L 49.629278 171.166191 
L 49.454526 169.470743 
L 49.265703 167.775294 
L 49.067693 166.079846 
L 48.865446 164.384397 
L 48.663071 162.688949 
L 48.462913 160.9935 
L 48.264779 159.298052 
L 48.065501 157.602603 
L 47.858963 155.907155 
L 47.636635 154.211706 
L 47.388545 152.516257 
L 47.10455 150.820809 
L 46.775651 149.12536 
L 46.395142 147.429912 
L 45.959343 145.734463 
L 45.46782 144.039015 
L 44.923054 142.343566 
L 44.329644 140.648118 
L 43.693245 138.952669 
L 43.019484 137.257221 
L 42.313103 135.561772 
L 41.577557 133.866323 
L 40.81519 132.170875 
L 40.028019 130.475426 
L 39.218974 128.779978 
L 38.393393 127.084529 
L 37.560426 125.389081 
L 36.734035 123.693632 
L 35.933326 121.998184 
L 35.182054 120.302735 
L 34.507336 118.607287 
L 33.937742 116.911838 
L 33.501036 115.21639 
L 33.221914 113.520941 
L 33.12 111.825492 
L 33.20833 110.130044 
L 33.492383 108.434595 
L 33.969659 106.739147 
L 34.629735 105.043698 
L 35.45473 103.34825 
L 36.42011 101.652801 
L 37.495839 99.957353 
L 38.64784 98.261904 
L 39.839776 96.566456 
L 41.035043 94.871007 
L 42.198861 93.175558 
L 43.300257 91.48011 
L 44.313747 89.784661 
L 45.220506 88.089213 
L 46.008936 86.393764 
L 46.674578 84.698316 
L 47.21945 83.002867 
L 47.650949 81.307419 
L 47.980515 79.61197 
L 48.222242 77.916522 
L 48.391606 76.221073 
L 48.504408 74.525624 
L 48.575957 72.830176 
L 48.620493 71.134727 
L 48.650768 69.439279 
L 48.677721 67.74383 
L 48.710203 66.048382 
L 48.754733 64.352933 
L 48.815306 62.657485 
L 48.893305 60.962036 
L 48.987595 59.266588 
L 49.09483 57.571139 
L 49.209985 55.875691 
L 49.327081 54.180242 
L 49.440024 52.484793 
L 49.543419 50.789345 
L 49.633267 49.093896 
L 49.707421 47.398448 
L 49.765738 45.702999 
L 49.809932 44.007551 
L 49.843146 42.312102 
L 49.869353 40.616654 
L 49.892681 38.921205 
L 49.916793 37.225757 
L 50.883207 37.225757 
L 50.883207 37.225757 
L 50.907319 38.921205 
L 50.930647 40.616654 
L 50.956854 42.312102 
L 50.990068 44.007551 
L 51.034262 45.702999 
L 51.092579 47.398448 
L 51.166733 49.093896 
L 51.256581 50.789345 
L 51.359976 52.484793 
L 51.472919 54.180242 
L 51.590015 55.875691 
L 51.70517 57.571139 
L 51.812405 59.266588 
L 51.906695 60.962036 
L 51.984694 62.657485 
L 52.045267 64.352933 
L 52.089797 66.048382 
L 52.122279 67.74383 
L 52.149232 69.439279 
L 52.179507 71.134727 
L 52.224043 72.830176 
L 52.295592 74.525624 
L 52.408394 76.221073 
L 52.577758 77.916522 
L 52.819485 79.61197 
L 53.149051 81.307419 
L 53.58055 83.002867 
L 54.125422 84.698316 
L 54.791064 86.393764 
L 55.579494 88.089213 
L 56.486253 89.784661 
L 57.499743 91.48011 
L 58.601139 93.175558 
L 59.764957 94.871007 
L 60.960224 96.566456 
L 62.15216 98.261904 
L 63.304161 99.957353 
L 64.37989 101.652801 
L 65.34527 103.34825 
L 66.170265 105.043698 
L 66.830341 106.739147 
L 67.307617 108.434595 
L 67.59167 110.130044 
L 67.68 111.825492 
L 67.578086 113.520941 
L 67.298964 115.21639 
L 66.862258 116.911838 
L 66.292664 118.607287 
L 65.617946 120.302735 
L 64.866674 121.998184 
L 64.065965 123.693632 
L 63.239574 125.389081 
L 62.406607 127.084529 
L 61.581026 128.779978 
L 60.771981 130.475426 
L 59.98481 132.170875 
L 59.222443 133.866323 
L 58.486897 135.561772 
L 57.780516 137.257221 
L 57.106755 138.952669 
L 56.470356 140.648118 
L 55.876946 142.343566 
L 55.33218 144.039015 
L 54.840657 145.734463 
L 54.404858 147.429912 
L 54.024349 149.12536 
L 53.69545 150.820809 
L 53.411455 152.516257 
L 53.163365 154.211706 
L 52.941037 155.907155 
L 52.734499 157.602603 
L 52.535221 159.298052 
L 52.337087 160.9935 
L 52.136929 162.688949 
L 51.934554 164.384397 
L 51.732307 166.079846 
L 51.534297 167.775294 
L 51.345474 169.470743 
L 51.170722 171.166191 
L 51.01414 172.86164 
L 50.878577 174.557089 
L 50.765473 176.252537 
L 50.674947 177.947986 
L 50.606063 179.643434 
L 50.557192 181.338883 
L 50.526352 183.034331 
L 50.511494 184.72978 
L 50.510654 186.425228 
L 50.521994 188.120677 
L 50.54373 189.816125 
L 50.574004 191.511574 
L 50.610731 193.207022 
L 50.651499 194.902471 
L 50.693546 196.59792 
L 50.733846 198.293368 
L 50.769309 199.988817 
L 50.797056 201.684265 
L 50.81473 203.379714 
L 50.820777 205.075162 
L 50.820777 205.075162 
z
" clip-path="url(#p6cc6326b00)" style="fill: none; stroke: #000000; stroke-opacity: 0.3"/>
   </g>
   <g id="FillBetweenPolyCollection_5">
    <path d="M 50.9092 175.293226 
L 49.8908 175.293226 
L 49.895628 174.204244 
L 49.911451 173.115263 
L 49.936717 172.026282 
L 49.969116 170.9373 
L 50.005782 169.848319 
L 50.04355 168.759338 
L 50.079227 167.670356 
L 50.109849 166.581375 
L 50.132905 165.492394 
L 50.146508 164.403412 
L 50.149516 163.314431 
L 50.141583 162.22545 
L 50.123163 161.136468 
L 50.095446 160.047487 
L 50.060239 158.958506 
L 50.019775 157.869524 
L 49.976471 156.780543 
L 49.932633 155.691562 
L 49.890134 154.602581 
L 49.850094 153.513599 
L 49.812601 152.424618 
L 49.776514 151.335637 
L 49.739375 150.246655 
L 49.697453 149.157674 
L 49.645924 148.068693 
L 49.579163 146.979711 
L 49.491112 145.89073 
L 49.37568 144.801749 
L 49.227131 143.712767 
L 49.040404 142.623786 
L 48.811362 141.534805 
L 48.536949 140.445823 
L 48.215269 139.356842 
L 47.84561 138.267861 
L 47.428437 137.178879 
L 46.965366 136.089898 
L 46.459136 135.000917 
L 45.913553 133.911935 
L 45.333398 132.822954 
L 44.724266 131.733973 
L 44.092332 130.644991 
L 43.444026 129.55601 
L 42.785663 128.467029 
L 42.123059 127.378047 
L 41.461205 126.289066 
L 40.804047 125.200085 
L 40.154442 124.111104 
L 39.514297 123.022122 
L 38.884886 121.933141 
L 38.267295 120.84416 
L 37.662922 119.755178 
L 37.073931 118.666197 
L 36.503585 117.577216 
L 35.95638 116.488234 
L 35.43797 115.399253 
L 34.954898 114.310272 
L 34.514184 113.22129 
L 34.122886 112.132309 
L 33.787702 111.043328 
L 33.514717 109.954346 
L 33.309322 108.865365 
L 33.176295 107.776384 
L 33.12 106.687402 
L 33.144589 105.598421 
L 33.254115 104.50944 
L 33.452449 103.420458 
L 33.742966 102.331477 
L 34.127986 101.242496 
L 34.60806 100.153514 
L 35.18121 99.064533 
L 35.842281 97.975552 
L 36.58255 96.88657 
L 37.389718 95.797589 
L 38.248323 94.708608 
L 39.140572 93.619627 
L 40.047493 92.530645 
L 40.950239 91.441664 
L 41.831388 90.352683 
L 42.676027 89.263701 
L 43.472507 88.17472 
L 44.212756 87.085739 
L 44.892176 85.996757 
L 45.509167 84.907776 
L 46.064414 83.818795 
L 46.560085 82.729813 
L 46.9991 81.640832 
L 47.384571 80.551851 
L 47.719512 79.462869 
L 48.006797 78.373888 
L 48.249342 77.284907 
L 48.450409 76.195925 
L 48.613916 75.106944 
L 48.744664 74.017963 
L 48.848386 72.928981 
L 48.93158 71.84 
L 49.001149 70.751019 
L 49.063892 69.662037 
L 49.125935 68.573056 
L 49.192212 67.484075 
L 51.607788 67.484075 
L 51.607788 67.484075 
L 51.674065 68.573056 
L 51.736108 69.662037 
L 51.798851 70.751019 
L 51.86842 71.84 
L 51.951614 72.928981 
L 52.055336 74.017963 
L 52.186084 75.106944 
L 52.349591 76.195925 
L 52.550658 77.284907 
L 52.793203 78.373888 
L 53.080488 79.462869 
L 53.415429 80.551851 
L 53.8009 81.640832 
L 54.239915 82.729813 
L 54.735586 83.818795 
L 55.290833 84.907776 
L 55.907824 85.996757 
L 56.587244 87.085739 
L 57.327493 88.17472 
L 58.123973 89.263701 
L 58.968612 90.352683 
L 59.849761 91.441664 
L 60.752507 92.530645 
L 61.659428 93.619627 
L 62.551677 94.708608 
L 63.410282 95.797589 
L 64.21745 96.88657 
L 64.957719 97.975552 
L 65.61879 99.064533 
L 66.19194 100.153514 
L 66.672014 101.242496 
L 67.057034 102.331477 
L 67.347551 103.420458 
L 67.545885 104.50944 
L 67.655411 105.598421 
L 67.68 106.687402 
L 67.623705 107.776384 
L 67.490678 108.865365 
L 67.285283 109.954346 
L 67.012298 111.043328 
L 66.677114 112.132309 
L 66.285816 113.22129 
L 65.845102 114.310272 
L 65.36203 115.399253 
L 64.84362 116.488234 
L 64.296415 117.577216 
L 63.726069 118.666197 
L 63.137078 119.755178 
L 62.532705 120.84416 
L 61.915114 121.933141 
L 61.285703 123.022122 
L 60.645558 124.111104 
L 59.995953 125.200085 
L 59.338795 126.289066 
L 58.676941 127.378047 
L 58.014337 128.467029 
L 57.355974 129.55601 
L 56.707668 130.644991 
L 56.075734 131.733973 
L 55.466602 132.822954 
L 54.886447 133.911935 
L 54.340864 135.000917 
L 53.834634 136.089898 
L 53.371563 137.178879 
L 52.95439 138.267861 
L 52.584731 139.356842 
L 52.263051 140.445823 
L 51.988638 141.534805 
L 51.759596 142.623786 
L 51.572869 143.712767 
L 51.42432 144.801749 
L 51.308888 145.89073 
L 51.220837 146.979711 
L 51.154076 148.068693 
L 51.102547 149.157674 
L 51.060625 150.246655 
L 51.023486 151.335637 
L 50.987399 152.424618 
L 50.949906 153.513599 
L 50.909866 154.602581 
L 50.867367 155.691562 
L 50.823529 156.780543 
L 50.780225 157.869524 
L 50.739761 158.958506 
L 50.704554 160.047487 
L 50.676837 161.136468 
L 50.658417 162.22545 
L 50.650484 163.314431 
L 50.653492 164.403412 
L 50.667095 165.492394 
L 50.690151 166.581375 
L 50.720773 167.670356 
L 50.75645 168.759338 
L 50.794218 169.848319 
L 50.830884 170.9373 
L 50.863283 172.026282 
L 50.888549 173.115263 
L 50.904372 174.204244 
L 50.9092 175.293226 
L 50.9092 175.293226 
z
" clip-path="url(#p6cc6326b00)" style="fill: none; stroke: #000000; stroke-opacity: 0.3"/>
   </g>
   <g id="FillBetweenPolyCollection_6">
    <path d="M 50.914198 282.125277 
L 49.885802 282.125277 
L 49.895315 279.335228 
L 49.922811 276.545179 
L 49.965349 273.755129 
L 50.018608 270.96508 
L 50.07761 268.175031 
L 50.137474 265.384982 
L 50.194059 262.594932 
L 50.24437 259.804883 
L 50.286701 257.014834 
L 50.320542 254.224784 
L 50.346318 251.434735 
L 50.365062 248.644686 
L 50.378095 245.854637 
L 50.386769 243.064587 
L 50.392301 240.274538 
L 50.395683 237.484489 
L 50.397666 234.694439 
L 50.398777 231.90439 
L 50.399365 229.114341 
L 50.399643 226.324292 
L 50.399719 223.534242 
L 50.399622 220.744193 
L 50.399304 217.954144 
L 50.398624 215.164094 
L 50.397307 212.374045 
L 50.394881 209.583996 
L 50.390584 206.793947 
L 50.383246 204.003897 
L 50.37115 201.213848 
L 50.351896 198.423799 
L 50.322279 195.633749 
L 50.278226 192.8437 
L 50.214804 190.053651 
L 50.126344 187.263602 
L 50.006657 184.473552 
L 49.849348 181.683503 
L 49.648165 178.893454 
L 49.397325 176.103404 
L 49.091756 173.313355 
L 48.72719 170.523306 
L 48.300107 167.733257 
L 47.807527 164.943207 
L 47.246734 162.153158 
L 46.615014 159.363109 
L 45.90953 156.573059 
L 45.127455 153.78301 
L 44.266497 150.992961 
L 43.325874 148.202912 
L 42.307793 145.412862 
L 41.219299 142.622813 
L 40.074283 139.832764 
L 38.895193 137.042714 
L 37.713953 134.252665 
L 36.571526 131.462616 
L 35.5158 128.672567 
L 34.597791 125.882517 
L 33.866612 123.092468 
L 33.364079 120.302419 
L 33.12 117.512369 
L 33.14913 114.72232 
L 33.450327 111.932271 
L 34.007914 109.142222 
L 34.794665 106.352172 
L 35.775489 103.562123 
L 36.910914 100.772074 
L 38.159712 97.982024 
L 39.480525 95.191975 
L 40.832733 92.401926 
L 42.177098 89.611877 
L 43.476637 86.821827 
L 44.697984 84.031778 
L 45.81314 81.241729 
L 46.801247 78.451679 
L 47.6499 75.66163 
L 48.355612 72.871581 
L 48.923237 70.081532 
L 49.364462 67.291482 
L 49.695671 64.501433 
L 49.935595 61.711384 
L 50.103151 58.921334 
L 50.215763 56.131285 
L 50.288275 53.341236 
L 50.332456 50.551187 
L 50.356974 47.761137 
L 50.367696 44.971088 
L 50.368146 42.181039 
L 50.36005 39.390989 
L 50.34388 36.60094 
L 50.319397 33.810891 
L 50.286182 31.020842 
L 50.244143 28.230792 
L 50.193963 25.440743 
L 50.137435 22.650694 
L 50.077595 19.860644 
L 50.018603 17.070595 
L 49.965347 14.280546 
L 49.92281 11.490497 
L 49.895315 8.700447 
L 49.885802 5.910398 
L 50.914198 5.910398 
L 50.914198 5.910398 
L 50.904685 8.700447 
L 50.87719 11.490497 
L 50.834653 14.280546 
L 50.781397 17.070595 
L 50.722405 19.860644 
L 50.662565 22.650694 
L 50.606037 25.440743 
L 50.555857 28.230792 
L 50.513818 31.020842 
L 50.480603 33.810891 
L 50.45612 36.60094 
L 50.43995 39.390989 
L 50.431854 42.181039 
L 50.432304 44.971088 
L 50.443026 47.761137 
L 50.467544 50.551187 
L 50.511725 53.341236 
L 50.584237 56.131285 
L 50.696849 58.921334 
L 50.864405 61.711384 
L 51.104329 64.501433 
L 51.435538 67.291482 
L 51.876763 70.081532 
L 52.444388 72.871581 
L 53.1501 75.66163 
L 53.998753 78.451679 
L 54.98686 81.241729 
L 56.102016 84.031778 
L 57.323363 86.821827 
L 58.622902 89.611877 
L 59.967267 92.401926 
L 61.319475 95.191975 
L 62.640288 97.982024 
L 63.889086 100.772074 
L 65.024511 103.562123 
L 66.005335 106.352172 
L 66.792086 109.142222 
L 67.349673 111.932271 
L 67.65087 114.72232 
L 67.68 117.512369 
L 67.435921 120.302419 
L 66.933388 123.092468 
L 66.202209 125.882517 
L 65.2842 128.672567 
L 64.228474 131.462616 
L 63.086047 134.252665 
L 61.904807 137.042714 
L 60.725717 139.832764 
L 59.580701 142.622813 
L 58.492207 145.412862 
L 57.474126 148.202912 
L 56.533503 150.992961 
L 55.672545 153.78301 
L 54.89047 156.573059 
L 54.184986 159.363109 
L 53.553266 162.153158 
L 52.992473 164.943207 
L 52.499893 167.733257 
L 52.07281 170.523306 
L 51.708244 173.313355 
L 51.402675 176.103404 
L 51.151835 178.893454 
L 50.950652 181.683503 
L 50.793343 184.473552 
L 50.673656 187.263602 
L 50.585196 190.053651 
L 50.521774 192.8437 
L 50.477721 195.633749 
L 50.448104 198.423799 
L 50.42885 201.213848 
L 50.416754 204.003897 
L 50.409416 206.793947 
L 50.405119 209.583996 
L 50.402693 212.374045 
L 50.401376 215.164094 
L 50.400696 217.954144 
L 50.400378 220.744193 
L 50.400281 223.534242 
L 50.400357 226.324292 
L 50.400635 229.114341 
L 50.401223 231.90439 
L 50.402334 234.694439 
L 50.404317 237.484489 
L 50.407699 240.274538 
L 50.413231 243.064587 
L 50.421905 245.854637 
L 50.434938 248.644686 
L 50.453682 251.434735 
L 50.479458 254.224784 
L 50.513299 257.014834 
L 50.55563 259.804883 
L 50.605941 262.594932 
L 50.662526 265.384982 
L 50.72239 268.175031 
L 50.781392 270.96508 
L 50.834651 273.755129 
L 50.877189 276.545179 
L 50.904685 279.335228 
L 50.914198 282.125277 
L 50.914198 282.125277 
z
" clip-path="url(#p6cc6326b00)" style="fill: none; stroke: #000000; stroke-opacity: 0.3"/>
   </g>
   <g id="FillBetweenPolyCollection_7">
    <path d="M 108.807971 226.185012 
L 107.192029 226.185012 
L 107.057932 224.997603 
L 106.9119 223.810195 
L 106.753618 222.622787 
L 106.582528 221.435379 
L 106.397798 220.247971 
L 106.198348 219.060562 
L 105.982966 217.873154 
L 105.750504 216.685746 
L 105.500143 215.498338 
L 105.231681 214.31093 
L 104.945786 213.123522 
L 104.644145 211.936113 
L 104.329446 210.748705 
L 104.00516 209.561297 
L 103.675127 208.373889 
L 103.342983 207.186481 
L 103.011518 205.999072 
L 102.682069 204.811664 
L 102.354052 203.624256 
L 102.024719 202.436848 
L 101.68918 201.24944 
L 101.340701 200.062031 
L 100.971232 198.874623 
L 100.572105 197.687215 
L 100.134829 196.499807 
L 99.651923 195.312399 
L 99.11775 194.124991 
L 98.529301 192.937582 
L 97.886923 191.750174 
L 97.194898 190.562766 
L 96.46182 189.375358 
L 95.70066 188.18795 
L 94.928417 187.000541 
L 94.165301 185.813133 
L 93.433466 184.625725 
L 92.755395 183.438317 
L 92.152137 182.250909 
L 91.641639 181.063501 
L 91.237436 179.876092 
L 90.947883 178.688684 
L 90.776012 177.501276 
L 90.72 176.313868 
L 90.774062 175.12646 
L 90.929569 173.939051 
L 91.176148 172.751643 
L 91.50256 171.564235 
L 91.897282 170.376827 
L 92.348783 169.189419 
L 92.845595 168.00201 
L 93.376335 166.814602 
L 93.929797 165.627194 
L 94.495224 164.439786 
L 95.062765 163.252378 
L 95.624024 162.06497 
L 96.172602 160.877561 
L 96.704454 159.690153 
L 97.217959 158.502745 
L 97.713645 157.315337 
L 98.193607 156.127929 
L 98.660719 154.94052 
L 99.117805 153.753112 
L 99.566935 152.565704 
L 100.008976 151.378296 
L 100.443481 150.190888 
L 100.8689 149.00348 
L 101.283046 147.816071 
L 101.68368 146.628663 
L 102.069081 145.441255 
L 102.438465 144.253847 
L 102.792156 143.066439 
L 103.131505 141.87903 
L 103.458561 140.691622 
L 103.775609 139.504214 
L 104.084663 138.316806 
L 104.387044 137.129398 
L 104.683112 135.94199 
L 104.972205 134.754581 
L 105.252766 133.567173 
L 105.52261 132.379765 
L 105.779257 131.192357 
L 106.020259 130.004949 
L 106.243468 128.81754 
L 106.447211 127.630132 
L 106.630382 126.442724 
L 106.792467 125.255316 
L 106.933526 124.067908 
L 107.054165 122.880499 
L 107.155497 121.693091 
L 107.239103 120.505683 
L 107.306974 119.318275 
L 107.361437 118.130867 
L 107.405052 116.943459 
L 107.440479 115.75605 
L 107.470343 114.568642 
L 107.497081 113.381234 
L 107.522811 112.193826 
L 107.549222 111.006418 
L 107.577494 109.819009 
L 107.608272 108.631601 
L 108.391728 108.631601 
L 108.391728 108.631601 
L 108.422506 109.819009 
L 108.450778 111.006418 
L 108.477189 112.193826 
L 108.502919 113.381234 
L 108.529657 114.568642 
L 108.559521 115.75605 
L 108.594948 116.943459 
L 108.638563 118.130867 
L 108.693026 119.318275 
L 108.760897 120.505683 
L 108.844503 121.693091 
L 108.945835 122.880499 
L 109.066474 124.067908 
L 109.207533 125.255316 
L 109.369618 126.442724 
L 109.552789 127.630132 
L 109.756532 128.81754 
L 109.979741 130.004949 
L 110.220743 131.192357 
L 110.47739 132.379765 
L 110.747234 133.567173 
L 111.027795 134.754581 
L 111.316888 135.94199 
L 111.612956 137.129398 
L 111.915337 138.316806 
L 112.224391 139.504214 
L 112.541439 140.691622 
L 112.868495 141.87903 
L 113.207844 143.066439 
L 113.561535 144.253847 
L 113.930919 145.441255 
L 114.31632 146.628663 
L 114.716954 147.816071 
L 115.1311 149.00348 
L 115.556519 150.190888 
L 115.991024 151.378296 
L 116.433065 152.565704 
L 116.882195 153.753112 
L 117.339281 154.94052 
L 117.806393 156.127929 
L 118.286355 157.315337 
L 118.782041 158.502745 
L 119.295546 159.690153 
L 119.827398 160.877561 
L 120.375976 162.06497 
L 120.937235 163.252378 
L 121.504776 164.439786 
L 122.070203 165.627194 
L 122.623665 166.814602 
L 123.154405 168.00201 
L 123.651217 169.189419 
L 124.102718 170.376827 
L 124.49744 171.564235 
L 124.823852 172.751643 
L 125.070431 173.939051 
L 125.225938 175.12646 
L 125.28 176.313868 
L 125.223988 177.501276 
L 125.052117 178.688684 
L 124.762564 179.876092 
L 124.358361 181.063501 
L 123.847863 182.250909 
L 123.244605 183.438317 
L 122.566534 184.625725 
L 121.834699 185.813133 
L 121.071583 187.000541 
L 120.29934 188.18795 
L 119.53818 189.375358 
L 118.805102 190.562766 
L 118.113077 191.750174 
L 117.470699 192.937582 
L 116.88225 194.124991 
L 116.348077 195.312399 
L 115.865171 196.499807 
L 115.427895 197.687215 
L 115.028768 198.874623 
L 114.659299 200.062031 
L 114.31082 201.24944 
L 113.975281 202.436848 
L 113.645948 203.624256 
L 113.317931 204.811664 
L 112.988482 205.999072 
L 112.657017 207.186481 
L 112.324873 208.373889 
L 111.99484 209.561297 
L 111.670554 210.748705 
L 111.355855 211.936113 
L 111.054214 213.123522 
L 110.768319 214.31093 
L 110.499857 215.498338 
L 110.249496 216.685746 
L 110.017034 217.873154 
L 109.801652 219.060562 
L 109.602202 220.247971 
L 109.417472 221.435379 
L 109.246382 222.622787 
L 109.0881 223.810195 
L 108.942068 224.997603 
L 108.807971 226.185012 
L 108.807971 226.185012 
z
" clip-path="url(#p6cc6326b00)" style="fill: none; stroke: #000000; stroke-opacity: 0.3"/>
   </g>
   <g id="FillBetweenPolyCollection_8">
    <path d="M 108.328423 313.997067 
L 107.671577 313.997067 
L 107.673419 312.007655 
L 107.684369 310.018244 
L 107.701724 308.028833 
L 107.721853 306.039421 
L 107.740791 304.05001 
L 107.754912 302.060599 
L 107.76155 300.071188 
L 107.75946 298.081776 
L 107.749023 296.092365 
L 107.732184 294.102954 
L 107.712103 292.113543 
L 107.692603 290.124131 
L 107.677493 288.13472 
L 107.669894 286.145309 
L 107.671693 284.155897 
L 107.683218 282.166486 
L 107.703196 280.177075 
L 107.728978 278.187664 
L 107.756993 276.198252 
L 107.783316 274.208841 
L 107.804264 272.21943 
L 107.816924 270.230019 
L 107.819547 268.240607 
L 107.811781 266.251196 
L 107.794716 264.261785 
L 107.770756 262.272373 
L 107.743306 260.282962 
L 107.716319 258.293551 
L 107.693735 256.30414 
L 107.678892 254.314728 
L 107.674 252.325317 
L 107.679769 250.335906 
L 107.695251 248.346494 
L 107.717914 246.357083 
L 107.743921 244.367672 
L 107.768532 242.378261 
L 107.786541 240.388849 
L 107.792686 238.399438 
L 107.781976 236.410027 
L 107.749936 234.420616 
L 107.692782 232.431204 
L 107.607545 230.441793 
L 107.492122 228.452382 
L 107.345234 226.46297 
L 107.16623 224.473559 
L 106.954726 222.484148 
L 106.710064 220.494737 
L 106.430701 218.505325 
L 106.113636 216.515914 
L 105.754056 214.526503 
L 105.34533 212.537092 
L 104.879457 210.54768 
L 104.34794 208.558269 
L 103.743008 206.568858 
L 103.059015 204.579446 
L 102.29382 202.590035 
L 101.449949 200.600624 
L 100.535354 198.611213 
L 99.563624 196.621801 
L 98.553535 194.63239 
L 97.527927 192.642979 
L 96.511964 190.653567 
L 95.530999 188.664156 
L 94.608367 186.674745 
L 93.763502 184.685334 
L 93.01077 182.695922 
L 92.359264 180.706511 
L 91.8136 178.7171 
L 91.375503 176.727689 
L 91.045764 174.738277 
L 90.826037 172.748866 
L 90.72 170.759455 
L 90.733556 168.770043 
L 90.874005 166.780632 
L 91.14838 164.791221 
L 91.561362 162.80181 
L 92.113258 160.812398 
L 92.798531 158.822987 
L 93.605169 156.833576 
L 94.515029 154.844165 
L 95.50499 152.854753 
L 96.548662 150.865342 
L 97.618301 148.875931 
L 98.686617 146.886519 
L 99.728302 144.897108 
L 100.7212 142.907697 
L 101.647153 140.918286 
L 102.492571 138.928874 
L 103.248785 136.939463 
L 103.912165 134.950052 
L 104.483957 132.960641 
L 104.969798 130.971229 
L 105.378881 128.981818 
L 105.722801 126.992407 
L 106.014211 125.002995 
L 106.265439 123.013584 
L 106.487274 121.024173 
L 106.688094 119.034762 
L 106.873445 117.04535 
L 109.126555 117.04535 
L 109.126555 117.04535 
L 109.311906 119.034762 
L 109.512726 121.024173 
L 109.734561 123.013584 
L 109.985789 125.002995 
L 110.277199 126.992407 
L 110.621119 128.981818 
L 111.030202 130.971229 
L 111.516043 132.960641 
L 112.087835 134.950052 
L 112.751215 136.939463 
L 113.507429 138.928874 
L 114.352847 140.918286 
L 115.2788 142.907697 
L 116.271698 144.897108 
L 117.313383 146.886519 
L 118.381699 148.875931 
L 119.451338 150.865342 
L 120.49501 152.854753 
L 121.484971 154.844165 
L 122.394831 156.833576 
L 123.201469 158.822987 
L 123.886742 160.812398 
L 124.438638 162.80181 
L 124.85162 164.791221 
L 125.125995 166.780632 
L 125.266444 168.770043 
L 125.28 170.759455 
L 125.173963 172.748866 
L 124.954236 174.738277 
L 124.624497 176.727689 
L 124.1864 178.7171 
L 123.640736 180.706511 
L 122.98923 182.695922 
L 122.236498 184.685334 
L 121.391633 186.674745 
L 120.469001 188.664156 
L 119.488036 190.653567 
L 118.472073 192.642979 
L 117.446465 194.63239 
L 116.436376 196.621801 
L 115.464646 198.611213 
L 114.550051 200.600624 
L 113.70618 202.590035 
L 112.940985 204.579446 
L 112.256992 206.568858 
L 111.65206 208.558269 
L 111.120543 210.54768 
L 110.65467 212.537092 
L 110.245944 214.526503 
L 109.886364 216.515914 
L 109.569299 218.505325 
L 109.289936 220.494737 
L 109.045274 222.484148 
L 108.83377 224.473559 
L 108.654766 226.46297 
L 108.507878 228.452382 
L 108.392455 230.441793 
L 108.307218 232.431204 
L 108.250064 234.420616 
L 108.218024 236.410027 
L 108.207314 238.399438 
L 108.213459 240.388849 
L 108.231468 242.378261 
L 108.256079 244.367672 
L 108.282086 246.357083 
L 108.304749 248.346494 
L 108.320231 250.335906 
L 108.326 252.325317 
L 108.321108 254.314728 
L 108.306265 256.30414 
L 108.283681 258.293551 
L 108.256694 260.282962 
L 108.229244 262.272373 
L 108.205284 264.261785 
L 108.188219 266.251196 
L 108.180453 268.240607 
L 108.183076 270.230019 
L 108.195736 272.21943 
L 108.216684 274.208841 
L 108.243007 276.198252 
L 108.271022 278.187664 
L 108.296804 280.177075 
L 108.316782 282.166486 
L 108.328307 284.155897 
L 108.330106 286.145309 
L 108.322507 288.13472 
L 108.307397 290.124131 
L 108.287897 292.113543 
L 108.267816 294.102954 
L 108.250977 296.092365 
L 108.24054 298.081776 
L 108.23845 300.071188 
L 108.245088 302.060599 
L 108.259209 304.05001 
L 108.278147 306.039421 
L 108.298276 308.028833 
L 108.315631 310.018244 
L 108.326581 312.007655 
L 108.328423 313.997067 
L 108.328423 313.997067 
z
" clip-path="url(#p6cc6326b00)" style="fill: none; stroke: #000000; stroke-opacity: 0.3"/>
   </g>
   <g id="FillBetweenPolyCollection_9">
    <path d="M 108.469561 276.015555 
L 107.530439 276.015555 
L 107.537346 274.362303 
L 107.557464 272.709051 
L 107.589069 271.055798 
L 107.629559 269.402546 
L 107.675811 267.749294 
L 107.724569 266.096042 
L 107.77282 264.442789 
L 107.818071 262.789537 
L 107.858525 261.136285 
L 107.893115 259.483032 
L 107.921446 257.82978 
L 107.943642 256.176528 
L 107.96016 254.523276 
L 107.971592 252.870023 
L 107.97847 251.216771 
L 107.981109 249.563519 
L 107.979464 247.910266 
L 107.973032 246.257014 
L 107.960761 244.603762 
L 107.941005 242.950509 
L 107.911508 241.297257 
L 107.869439 239.644005 
L 107.811486 237.990753 
L 107.734022 236.3375 
L 107.633338 234.684248 
L 107.505932 233.030996 
L 107.348825 231.377743 
L 107.159849 229.724491 
L 106.937872 228.071239 
L 106.682899 226.417987 
L 106.396002 224.764734 
L 106.079076 223.111482 
L 105.734405 221.45823 
L 105.36409 219.804977 
L 104.969394 218.151725 
L 104.55011 216.498473 
L 104.104063 214.845221 
L 103.626874 213.191968 
L 103.112114 211.538716 
L 102.551914 209.885464 
L 101.938068 208.232211 
L 101.263536 206.578959 
L 100.524178 204.925707 
L 99.720421 203.272455 
L 98.858547 201.619202 
L 97.951263 199.96595 
L 97.017351 198.312698 
L 96.080318 196.659445 
L 95.166238 195.006193 
L 94.301086 193.352941 
L 93.508068 191.699689 
L 92.80541 190.046436 
L 92.205002 188.393184 
L 91.712091 186.739932 
L 91.326 185.086679 
L 91.041613 183.433427 
L 90.851265 181.780175 
L 90.746592 180.126923 
L 90.72 178.47367 
L 90.765512 176.820418 
L 90.878962 175.167166 
L 91.057633 173.513913 
L 91.299562 171.860661 
L 91.602791 170.207409 
L 91.964784 168.554156 
L 92.382182 166.900904 
L 92.850917 165.247652 
L 93.366612 163.5944 
L 93.925092 161.941147 
L 94.522805 160.287895 
L 95.156973 158.634643 
L 95.825384 156.98139 
L 96.525837 155.328138 
L 97.255359 153.674886 
L 98.0094 152.021634 
L 98.781221 150.368381 
L 99.561648 148.715129 
L 100.339299 147.061877 
L 101.101254 145.408624 
L 101.834085 143.755372 
L 102.52504 142.10212 
L 103.163214 140.448868 
L 103.740483 138.795615 
L 104.252116 137.142363 
L 104.696955 135.489111 
L 105.077213 133.835858 
L 105.397917 132.182606 
L 105.666134 130.529354 
L 105.890089 128.876102 
L 106.078309 127.222849 
L 106.238902 125.569597 
L 106.379035 123.916345 
L 106.504644 122.263092 
L 106.620363 120.60984 
L 106.729606 118.956588 
L 106.834751 117.303336 
L 106.937333 115.650083 
L 107.038214 113.996831 
L 107.137702 112.343579 
L 108.862298 112.343579 
L 108.862298 112.343579 
L 108.961786 113.996831 
L 109.062667 115.650083 
L 109.165249 117.303336 
L 109.270394 118.956588 
L 109.379637 120.60984 
L 109.495356 122.263092 
L 109.620965 123.916345 
L 109.761098 125.569597 
L 109.921691 127.222849 
L 110.109911 128.876102 
L 110.333866 130.529354 
L 110.602083 132.182606 
L 110.922787 133.835858 
L 111.303045 135.489111 
L 111.747884 137.142363 
L 112.259517 138.795615 
L 112.836786 140.448868 
L 113.47496 142.10212 
L 114.165915 143.755372 
L 114.898746 145.408624 
L 115.660701 147.061877 
L 116.438352 148.715129 
L 117.218779 150.368381 
L 117.9906 152.021634 
L 118.744641 153.674886 
L 119.474163 155.328138 
L 120.174616 156.98139 
L 120.843027 158.634643 
L 121.477195 160.287895 
L 122.074908 161.941147 
L 122.633388 163.5944 
L 123.149083 165.247652 
L 123.617818 166.900904 
L 124.035216 168.554156 
L 124.397209 170.207409 
L 124.700438 171.860661 
L 124.942367 173.513913 
L 125.121038 175.167166 
L 125.234488 176.820418 
L 125.28 178.47367 
L 125.253408 180.126923 
L 125.148735 181.780175 
L 124.958387 183.433427 
L 124.674 185.086679 
L 124.287909 186.739932 
L 123.794998 188.393184 
L 123.19459 190.046436 
L 122.491932 191.699689 
L 121.698914 193.352941 
L 120.833762 195.006193 
L 119.919682 196.659445 
L 118.982649 198.312698 
L 118.048737 199.96595 
L 117.141453 201.619202 
L 116.279579 203.272455 
L 115.475822 204.925707 
L 114.736464 206.578959 
L 114.061932 208.232211 
L 113.448086 209.885464 
L 112.887886 211.538716 
L 112.373126 213.191968 
L 111.895937 214.845221 
L 111.44989 216.498473 
L 111.030606 218.151725 
L 110.63591 219.804977 
L 110.265595 221.45823 
L 109.920924 223.111482 
L 109.603998 224.764734 
L 109.317101 226.417987 
L 109.062128 228.071239 
L 108.840151 229.724491 
L 108.651175 231.377743 
L 108.494068 233.030996 
L 108.366662 234.684248 
L 108.265978 236.3375 
L 108.188514 237.990753 
L 108.130561 239.644005 
L 108.088492 241.297257 
L 108.058995 242.950509 
L 108.039239 244.603762 
L 108.026968 246.257014 
L 108.020536 247.910266 
L 108.018891 249.563519 
L 108.02153 251.216771 
L 108.028408 252.870023 
L 108.03984 254.523276 
L 108.056358 256.176528 
L 108.078554 257.82978 
L 108.106885 259.483032 
L 108.141475 261.136285 
L 108.181929 262.789537 
L 108.22718 264.442789 
L 108.275431 266.096042 
L 108.324189 267.749294 
L 108.370441 269.402546 
L 108.410931 271.055798 
L 108.442536 272.709051 
L 108.462654 274.362303 
L 108.469561 276.015555 
L 108.469561 276.015555 
z
" clip-path="url(#p6cc6326b00)" style="fill: none; stroke: #000000; stroke-opacity: 0.3"/>
   </g>
   <g id="FillBetweenPolyCollection_10">
    <path d="M 108.542496 264.482899 
L 107.457504 264.482899 
L 107.464361 262.945419 
L 107.484415 261.407938 
L 107.516185 259.870457 
L 107.5574 258.332977 
L 107.605274 256.795496 
L 107.656809 255.258016 
L 107.709107 253.720535 
L 107.759617 252.183055 
L 107.806324 250.645574 
L 107.84783 249.108094 
L 107.883353 247.570613 
L 107.912651 246.033132 
L 107.935896 244.495652 
L 107.953513 242.958171 
L 107.966016 241.420691 
L 107.973845 239.88321 
L 107.977221 238.34573 
L 107.976002 236.808249 
L 107.969572 235.270769 
L 107.956718 233.733288 
L 107.93555 232.195807 
L 107.90343 230.658327 
L 107.856958 229.120846 
L 107.792019 227.583366 
L 107.703921 226.045885 
L 107.587626 224.508405 
L 107.438092 222.970924 
L 107.250682 221.433444 
L 107.021613 219.895963 
L 106.748373 218.358482 
L 106.430027 216.821002 
L 106.067343 215.283521 
L 105.662673 213.746041 
L 105.219593 212.20856 
L 104.742312 210.67108 
L 104.234953 209.133599 
L 103.700827 207.596118 
L 103.141845 206.058638 
L 102.558198 204.521157 
L 101.9484 202.983677 
L 101.309705 201.446196 
L 100.638868 199.908716 
L 99.933112 198.371235 
L 99.191161 196.833755 
L 98.414172 195.296274 
L 97.606421 193.758793 
L 96.775663 192.221313 
L 95.933145 190.683832 
L 95.093301 189.146352 
L 94.273198 187.608871 
L 93.491832 186.071391 
L 92.76934 184.53391 
L 92.126183 182.99643 
L 91.58231 181.458949 
L 91.15631 179.921468 
L 90.864503 178.383988 
L 90.72 176.846507 
L 90.731722 175.309027 
L 90.903464 173.771546 
L 91.233109 172.234066 
L 91.712126 170.696585 
L 92.325495 169.159105 
L 93.052174 167.621624 
L 93.866155 166.084143 
L 94.738072 164.546663 
L 95.637232 163.009182 
L 96.53386 161.471702 
L 97.401288 159.934221 
L 98.217827 158.396741 
L 98.968078 156.85926 
L 99.643547 155.32178 
L 100.24251 153.784299 
L 100.769204 152.246818 
L 101.232492 150.709338 
L 101.644241 149.171857 
L 102.017628 147.634377 
L 102.365607 146.096896 
L 102.699669 144.559416 
L 103.02899 143.021935 
L 103.359974 141.484455 
L 103.696131 139.946974 
L 104.038229 138.409493 
L 104.384629 136.872013 
L 104.731726 135.334532 
L 105.074459 133.797052 
L 105.40686 132.259571 
L 105.722619 130.722091 
L 106.015664 129.18461 
L 106.28072 127.647129 
L 106.513807 126.109649 
L 106.712643 124.572168 
L 106.876875 123.034688 
L 107.008124 121.497207 
L 107.109816 119.959727 
L 107.186813 118.422246 
L 107.244888 116.884766 
L 107.290124 115.347285 
L 107.328301 113.809804 
L 107.364371 112.272324 
L 108.635629 112.272324 
L 108.635629 112.272324 
L 108.671699 113.809804 
L 108.709876 115.347285 
L 108.755112 116.884766 
L 108.813187 118.422246 
L 108.890184 119.959727 
L 108.991876 121.497207 
L 109.123125 123.034688 
L 109.287357 124.572168 
L 109.486193 126.109649 
L 109.71928 127.647129 
L 109.984336 129.18461 
L 110.277381 130.722091 
L 110.59314 132.259571 
L 110.925541 133.797052 
L 111.268274 135.334532 
L 111.615371 136.872013 
L 111.961771 138.409493 
L 112.303869 139.946974 
L 112.640026 141.484455 
L 112.97101 143.021935 
L 113.300331 144.559416 
L 113.634393 146.096896 
L 113.982372 147.634377 
L 114.355759 149.171857 
L 114.767508 150.709338 
L 115.230796 152.246818 
L 115.75749 153.784299 
L 116.356453 155.32178 
L 117.031922 156.85926 
L 117.782173 158.396741 
L 118.598712 159.934221 
L 119.46614 161.471702 
L 120.362768 163.009182 
L 121.261928 164.546663 
L 122.133845 166.084143 
L 122.947826 167.621624 
L 123.674505 169.159105 
L 124.287874 170.696585 
L 124.766891 172.234066 
L 125.096536 173.771546 
L 125.268278 175.309027 
L 125.28 176.846507 
L 125.135497 178.383988 
L 124.84369 179.921468 
L 124.41769 181.458949 
L 123.873817 182.99643 
L 123.23066 184.53391 
L 122.508168 186.071391 
L 121.726802 187.608871 
L 120.906699 189.146352 
L 120.066855 190.683832 
L 119.224337 192.221313 
L 118.393579 193.758793 
L 117.585828 195.296274 
L 116.808839 196.833755 
L 116.066888 198.371235 
L 115.361132 199.908716 
L 114.690295 201.446196 
L 114.0516 202.983677 
L 113.441802 204.521157 
L 112.858155 206.058638 
L 112.299173 207.596118 
L 111.765047 209.133599 
L 111.257688 210.67108 
L 110.780407 212.20856 
L 110.337327 213.746041 
L 109.932657 215.283521 
L 109.569973 216.821002 
L 109.251627 218.358482 
L 108.978387 219.895963 
L 108.749318 221.433444 
L 108.561908 222.970924 
L 108.412374 224.508405 
L 108.296079 226.045885 
L 108.207981 227.583366 
L 108.143042 229.120846 
L 108.09657 230.658327 
L 108.06445 232.195807 
L 108.043282 233.733288 
L 108.030428 235.270769 
L 108.023998 236.808249 
L 108.022779 238.34573 
L 108.026155 239.88321 
L 108.033984 241.420691 
L 108.046487 242.958171 
L 108.064104 244.495652 
L 108.087349 246.033132 
L 108.116647 247.570613 
L 108.15217 249.108094 
L 108.193676 250.645574 
L 108.240383 252.183055 
L 108.290893 253.720535 
L 108.343191 255.258016 
L 108.394726 256.795496 
L 108.4426 258.332977 
L 108.483815 259.870457 
L 108.515585 261.407938 
L 108.535639 262.945419 
L 108.542496 264.482899 
L 108.542496 264.482899 
z
" clip-path="url(#p6cc6326b00)" style="fill: none; stroke: #000000; stroke-opacity: 0.3"/>
   </g>
   <g id="FillBetweenPolyCollection_11">
    <path d="M 109.472919 220.676573 
L 106.527081 220.676573 
L 106.321581 219.726454 
L 106.095629 218.776335 
L 105.848316 217.826217 
L 105.579074 216.876098 
L 105.287806 215.925979 
L 104.975026 214.975861 
L 104.641983 214.025742 
L 104.290752 213.075623 
L 103.924287 212.125505 
L 103.54641 211.175386 
L 103.161732 210.225267 
L 102.775495 209.275149 
L 102.393341 208.32503 
L 102.020999 207.374911 
L 101.663933 206.424793 
L 101.326939 205.474674 
L 101.01375 204.524555 
L 100.726661 203.574437 
L 100.466225 202.624318 
L 100.231038 201.674199 
L 100.01766 200.724081 
L 99.820672 199.773962 
L 99.632898 198.823843 
L 99.44577 197.873725 
L 99.249836 196.923606 
L 99.035364 195.973488 
L 98.793014 195.023369 
L 98.51452 194.07325 
L 98.193334 193.123132 
L 97.825182 192.173013 
L 97.408479 191.222894 
L 96.944576 190.272776 
L 96.437812 189.322657 
L 95.895364 188.372538 
L 95.326905 187.42242 
L 94.744095 186.472301 
L 94.159943 185.522182 
L 93.588084 184.572064 
L 93.042035 183.621945 
L 92.534473 182.671826 
L 92.076596 181.721708 
L 91.677615 180.771589 
L 91.3444 179.82147 
L 91.08131 178.871352 
L 90.890198 177.921233 
L 90.770588 176.971114 
L 90.72 176.020996 
L 90.734359 175.070877 
L 90.808476 174.120758 
L 90.93652 173.17064 
L 91.112453 172.220521 
L 91.330387 171.270402 
L 91.58483 170.320284 
L 91.870811 169.370165 
L 92.183891 168.420046 
L 92.520081 167.469928 
L 92.875676 166.519809 
L 93.247078 165.569691 
L 93.630605 164.619572 
L 94.022362 163.669453 
L 94.418175 162.719335 
L 94.81363 161.769216 
L 95.204204 160.819097 
L 95.585489 159.868979 
L 95.953482 158.91886 
L 96.304921 157.968741 
L 96.637594 157.018623 
L 96.95062 156.068504 
L 97.244628 155.118385 
L 97.521816 154.168267 
L 97.785877 153.218148 
L 98.041781 152.268029 
L 98.295418 151.317911 
L 98.553159 150.367792 
L 98.821338 149.417673 
L 99.105738 148.467555 
L 99.411107 147.517436 
L 99.740763 146.567317 
L 100.096319 145.617199 
L 100.477558 144.66708 
L 100.882449 143.716961 
L 101.30732 142.766843 
L 101.747144 141.816724 
L 102.195917 140.866605 
L 102.647087 139.916487 
L 103.093995 138.966368 
L 103.530277 138.01625 
L 103.950226 137.066131 
L 104.349052 136.116012 
L 104.723064 135.165894 
L 105.069751 134.215775 
L 105.387768 133.265656 
L 105.676849 132.315538 
L 105.937664 131.365419 
L 106.171629 130.4153 
L 106.380699 129.465182 
L 106.567162 128.515063 
L 106.733446 127.564944 
L 106.881957 126.614826 
L 109.118043 126.614826 
L 109.118043 126.614826 
L 109.266554 127.564944 
L 109.432838 128.515063 
L 109.619301 129.465182 
L 109.828371 130.4153 
L 110.062336 131.365419 
L 110.323151 132.315538 
L 110.612232 133.265656 
L 110.930249 134.215775 
L 111.276936 135.165894 
L 111.650948 136.116012 
L 112.049774 137.066131 
L 112.469723 138.01625 
L 112.906005 138.966368 
L 113.352913 139.916487 
L 113.804083 140.866605 
L 114.252856 141.816724 
L 114.69268 142.766843 
L 115.117551 143.716961 
L 115.522442 144.66708 
L 115.903681 145.617199 
L 116.259237 146.567317 
L 116.588893 147.517436 
L 116.894262 148.467555 
L 117.178662 149.417673 
L 117.446841 150.367792 
L 117.704582 151.317911 
L 117.958219 152.268029 
L 118.214123 153.218148 
L 118.478184 154.168267 
L 118.755372 155.118385 
L 119.04938 156.068504 
L 119.362406 157.018623 
L 119.695079 157.968741 
L 120.046518 158.91886 
L 120.414511 159.868979 
L 120.795796 160.819097 
L 121.18637 161.769216 
L 121.581825 162.719335 
L 121.977638 163.669453 
L 122.369395 164.619572 
L 122.752922 165.569691 
L 123.124324 166.519809 
L 123.479919 167.469928 
L 123.816109 168.420046 
L 124.129189 169.370165 
L 124.41517 170.320284 
L 124.669613 171.270402 
L 124.887547 172.220521 
L 125.06348 173.17064 
L 125.191524 174.120758 
L 125.265641 175.070877 
L 125.28 176.020996 
L 125.229412 176.971114 
L 125.109802 177.921233 
L 124.91869 178.871352 
L 124.6556 179.82147 
L 124.322385 180.771589 
L 123.923404 181.721708 
L 123.465527 182.671826 
L 122.957965 183.621945 
L 122.411916 184.572064 
L 121.840057 185.522182 
L 121.255905 186.472301 
L 120.673095 187.42242 
L 120.104636 188.372538 
L 119.562188 189.322657 
L 119.055424 190.272776 
L 118.591521 191.222894 
L 118.174818 192.173013 
L 117.806666 193.123132 
L 117.48548 194.07325 
L 117.206986 195.023369 
L 116.964636 195.973488 
L 116.750164 196.923606 
L 116.55423 197.873725 
L 116.367102 198.823843 
L 116.179328 199.773962 
L 115.98234 200.724081 
L 115.768962 201.674199 
L 115.533775 202.624318 
L 115.273339 203.574437 
L 114.98625 204.524555 
L 114.673061 205.474674 
L 114.336067 206.424793 
L 113.979001 207.374911 
L 113.606659 208.32503 
L 113.224505 209.275149 
L 112.838268 210.225267 
L 112.45359 211.175386 
L 112.075713 212.125505 
L 111.709248 213.075623 
L 111.358017 214.025742 
L 111.024974 214.975861 
L 110.712194 215.925979 
L 110.420926 216.876098 
L 110.151684 217.826217 
L 109.904371 218.776335 
L 109.678419 219.726454 
L 109.472919 220.676573 
L 109.472919 220.676573 
z
" clip-path="url(#p6cc6326b00)" style="fill: none; stroke: #000000; stroke-opacity: 0.3"/>
   </g>
   <g id="FillBetweenPolyCollection_12">
    <path d="M 108.355838 267.591446 
L 107.644162 267.591446 
L 107.649423 266.127833 
L 107.664744 264.66422 
L 107.688804 263.200607 
L 107.719609 261.736995 
L 107.754765 260.273382 
L 107.791775 258.809769 
L 107.828323 257.346156 
L 107.862478 255.882543 
L 107.892822 254.418931 
L 107.918464 252.955318 
L 107.938972 251.491705 
L 107.954247 250.028092 
L 107.964353 248.564479 
L 107.969347 247.100867 
L 107.96912 245.637254 
L 107.963265 244.173641 
L 107.950976 242.710028 
L 107.93099 241.246415 
L 107.90155 239.782803 
L 107.860413 238.31919 
L 107.804882 236.855577 
L 107.731884 235.391964 
L 107.638085 233.928351 
L 107.520068 232.464739 
L 107.374565 231.001126 
L 107.198751 229.537513 
L 106.990565 228.0739 
L 106.749029 226.610287 
L 106.474478 225.146675 
L 106.168628 223.683062 
L 105.834403 222.219449 
L 105.475462 220.755836 
L 105.095468 219.292223 
L 104.697178 217.82861 
L 104.281541 216.364998 
L 103.847025 214.901385 
L 103.389405 213.437772 
L 102.902169 211.974159 
L 102.37757 210.510546 
L 101.808226 209.046934 
L 101.188998 207.583321 
L 100.518781 206.119708 
L 99.801842 204.656095 
L 99.048387 203.192482 
L 98.274192 201.72887 
L 97.499317 200.265257 
L 96.7461 198.801644 
L 96.036764 197.338031 
L 95.391024 195.874418 
L 94.824062 194.410806 
L 94.345135 192.947193 
L 93.956956 191.48358 
L 93.655834 190.019967 
L 93.432458 188.556354 
L 93.273124 187.092742 
L 93.161215 185.629129 
L 93.078729 184.165516 
L 93.007754 182.701903 
L 92.931788 181.23829 
L 92.836889 179.774678 
L 92.712637 178.311065 
L 92.552901 176.847452 
L 92.356356 175.383839 
L 92.126719 173.920226 
L 91.872611 172.456614 
L 91.607012 170.993001 
L 91.346294 169.529388 
L 91.108905 168.065775 
L 90.913829 166.602162 
L 90.779019 165.13855 
L 90.72 163.674937 
L 90.748819 162.211324 
L 90.873447 160.747711 
L 91.097648 159.284098 
L 91.421247 157.820486 
L 91.840688 156.356873 
L 92.349719 154.89326 
L 92.940108 153.429647 
L 93.602272 151.966034 
L 94.325784 150.502422 
L 95.099742 149.038809 
L 95.912993 147.575196 
L 96.754253 146.111583 
L 97.612132 144.64797 
L 98.475133 143.184358 
L 99.331676 141.720745 
L 100.170222 140.257132 
L 100.979533 138.793519 
L 101.749109 137.329906 
L 102.469757 135.866294 
L 103.134219 134.402681 
L 103.737734 132.939068 
L 104.278406 131.475455 
L 104.757271 130.011842 
L 105.17802 128.54823 
L 105.546393 127.084617 
L 105.869353 125.621004 
L 106.154165 124.157391 
L 106.407557 122.693778 
L 109.592443 122.693778 
L 109.592443 122.693778 
L 109.845835 124.157391 
L 110.130647 125.621004 
L 110.453607 127.084617 
L 110.82198 128.54823 
L 111.242729 130.011842 
L 111.721594 131.475455 
L 112.262266 132.939068 
L 112.865781 134.402681 
L 113.530243 135.866294 
L 114.250891 137.329906 
L 115.020467 138.793519 
L 115.829778 140.257132 
L 116.668324 141.720745 
L 117.524867 143.184358 
L 118.387868 144.64797 
L 119.245747 146.111583 
L 120.087007 147.575196 
L 120.900258 149.038809 
L 121.674216 150.502422 
L 122.397728 151.966034 
L 123.059892 153.429647 
L 123.650281 154.89326 
L 124.159312 156.356873 
L 124.578753 157.820486 
L 124.902352 159.284098 
L 125.126553 160.747711 
L 125.251181 162.211324 
L 125.28 163.674937 
L 125.220981 165.13855 
L 125.086171 166.602162 
L 124.891095 168.065775 
L 124.653706 169.529388 
L 124.392988 170.993001 
L 124.127389 172.456614 
L 123.873281 173.920226 
L 123.643644 175.383839 
L 123.447099 176.847452 
L 123.287363 178.311065 
L 123.163111 179.774678 
L 123.068212 181.23829 
L 122.992246 182.701903 
L 122.921271 184.165516 
L 122.838785 185.629129 
L 122.726876 187.092742 
L 122.567542 188.556354 
L 122.344166 190.019967 
L 122.043044 191.48358 
L 121.654865 192.947193 
L 121.175938 194.410806 
L 120.608976 195.874418 
L 119.963236 197.338031 
L 119.2539 198.801644 
L 118.500683 200.265257 
L 117.725808 201.72887 
L 116.951613 203.192482 
L 116.198158 204.656095 
L 115.481219 206.119708 
L 114.811002 207.583321 
L 114.191774 209.046934 
L 113.62243 210.510546 
L 113.097831 211.974159 
L 112.610595 213.437772 
L 112.152975 214.901385 
L 111.718459 216.364998 
L 111.302822 217.82861 
L 110.904532 219.292223 
L 110.524538 220.755836 
L 110.165597 222.219449 
L 109.831372 223.683062 
L 109.525522 225.146675 
L 109.250971 226.610287 
L 109.009435 228.0739 
L 108.801249 229.537513 
L 108.625435 231.001126 
L 108.479932 232.464739 
L 108.361915 233.928351 
L 108.268116 235.391964 
L 108.195118 236.855577 
L 108.139587 238.31919 
L 108.09845 239.782803 
L 108.06901 241.246415 
L 108.049024 242.710028 
L 108.036735 244.173641 
L 108.03088 245.637254 
L 108.030653 247.100867 
L 108.035647 248.564479 
L 108.045753 250.028092 
L 108.061028 251.491705 
L 108.081536 252.955318 
L 108.107178 254.418931 
L 108.137522 255.882543 
L 108.171677 257.346156 
L 108.208225 258.809769 
L 108.245235 260.273382 
L 108.280391 261.736995 
L 108.311196 263.200607 
L 108.335256 264.66422 
L 108.350577 266.127833 
L 108.355838 267.591446 
L 108.355838 267.591446 
z
" clip-path="url(#p6cc6326b00)" style="fill: none; stroke: #000000; stroke-opacity: 0.3"/>
   </g>
   <g id="FillBetweenPolyCollection_13">
    <path d="M 109.863832 237.51131 
L 106.136168 237.51131 
L 105.954517 236.268248 
L 105.757354 235.025187 
L 105.543195 233.782125 
L 105.31069 232.539064 
L 105.058712 231.296002 
L 104.786453 230.05294 
L 104.493494 228.809879 
L 104.179866 227.566817 
L 103.846075 226.323756 
L 103.493118 225.080694 
L 103.12245 223.837632 
L 102.735946 222.594571 
L 102.335832 221.351509 
L 101.924599 220.108448 
L 101.504911 218.865386 
L 101.079513 217.622324 
L 100.651129 216.379263 
L 100.222377 215.136201 
L 99.795687 213.89314 
L 99.373235 212.650078 
L 98.956879 211.407016 
L 98.54812 210.163955 
L 98.148058 208.920893 
L 97.757379 207.677832 
L 97.376335 206.43477 
L 97.004755 205.191708 
L 96.642065 203.948647 
L 96.287331 202.705585 
L 95.939326 201.462524 
L 95.596621 200.219462 
L 95.257702 198.976401 
L 94.921108 197.733339 
L 94.585587 196.490277 
L 94.250262 195.247216 
L 93.914784 194.004154 
L 93.579484 192.761093 
L 93.245479 191.518031 
L 92.91475 190.274969 
L 92.590159 189.031908 
L 92.275417 187.788846 
L 91.974982 186.545785 
L 91.693916 185.302723 
L 91.437689 184.059661 
L 91.211952 182.8166 
L 91.022296 181.573538 
L 90.874016 180.330477 
L 90.771891 179.087415 
L 90.72 177.844353 
L 90.72158 176.601292 
L 90.778937 175.35823 
L 90.893408 174.115169 
L 91.065364 172.872107 
L 91.294259 171.629045 
L 91.578694 170.385984 
L 91.91651 169.142922 
L 92.30487 167.899861 
L 92.740344 166.656799 
L 93.218981 165.413738 
L 93.736366 164.170676 
L 94.28767 162.927614 
L 94.86769 161.684553 
L 95.470891 160.441491 
L 96.091464 159.19843 
L 96.723389 157.955368 
L 97.360529 156.712306 
L 97.996747 155.469245 
L 98.626033 154.226183 
L 99.242665 152.983122 
L 99.841358 151.74006 
L 100.417419 150.496998 
L 100.966879 149.253937 
L 101.4866 148.010875 
L 101.974338 146.767814 
L 102.428764 145.524752 
L 102.849435 144.28169 
L 103.236718 143.038629 
L 103.591677 141.795567 
L 103.915927 140.552506 
L 104.211474 139.309444 
L 104.480551 138.066382 
L 104.725463 136.823321 
L 104.948453 135.580259 
L 105.151605 134.337198 
L 105.336778 133.094136 
L 105.505578 131.851075 
L 105.659369 130.608013 
L 105.799308 129.364951 
L 105.926406 128.12189 
L 106.041595 126.878828 
L 106.145796 125.635767 
L 106.239977 124.392705 
L 106.3252 123.149643 
L 106.402635 121.906582 
L 106.47356 120.66352 
L 106.539336 119.420459 
L 106.601357 118.177397 
L 106.660997 116.934335 
L 106.719541 115.691274 
L 106.778118 114.448212 
L 109.221882 114.448212 
L 109.221882 114.448212 
L 109.280459 115.691274 
L 109.339003 116.934335 
L 109.398643 118.177397 
L 109.460664 119.420459 
L 109.52644 120.66352 
L 109.597365 121.906582 
L 109.6748 123.149643 
L 109.760023 124.392705 
L 109.854204 125.635767 
L 109.958405 126.878828 
L 110.073594 128.12189 
L 110.200692 129.364951 
L 110.340631 130.608013 
L 110.494422 131.851075 
L 110.663222 133.094136 
L 110.848395 134.337198 
L 111.051547 135.580259 
L 111.274537 136.823321 
L 111.519449 138.066382 
L 111.788526 139.309444 
L 112.084073 140.552506 
L 112.408323 141.795567 
L 112.763282 143.038629 
L 113.150565 144.28169 
L 113.571236 145.524752 
L 114.025662 146.767814 
L 114.5134 148.010875 
L 115.033121 149.253937 
L 115.582581 150.496998 
L 116.158642 151.74006 
L 116.757335 152.983122 
L 117.373967 154.226183 
L 118.003253 155.469245 
L 118.639471 156.712306 
L 119.276611 157.955368 
L 119.908536 159.19843 
L 120.529109 160.441491 
L 121.13231 161.684553 
L 121.71233 162.927614 
L 122.263634 164.170676 
L 122.781019 165.413738 
L 123.259656 166.656799 
L 123.69513 167.899861 
L 124.08349 169.142922 
L 124.421306 170.385984 
L 124.705741 171.629045 
L 124.934636 172.872107 
L 125.106592 174.115169 
L 125.221063 175.35823 
L 125.27842 176.601292 
L 125.28 177.844353 
L 125.228109 179.087415 
L 125.125984 180.330477 
L 124.977704 181.573538 
L 124.788048 182.8166 
L 124.562311 184.059661 
L 124.306084 185.302723 
L 124.025018 186.545785 
L 123.724583 187.788846 
L 123.409841 189.031908 
L 123.08525 190.274969 
L 122.754521 191.518031 
L 122.420516 192.761093 
L 122.085216 194.004154 
L 121.749738 195.247216 
L 121.414413 196.490277 
L 121.078892 197.733339 
L 120.742298 198.976401 
L 120.403379 200.219462 
L 120.060674 201.462524 
L 119.712669 202.705585 
L 119.357935 203.948647 
L 118.995245 205.191708 
L 118.623665 206.43477 
L 118.242621 207.677832 
L 117.851942 208.920893 
L 117.45188 210.163955 
L 117.043121 211.407016 
L 116.626765 212.650078 
L 116.204313 213.89314 
L 115.777623 215.136201 
L 115.348871 216.379263 
L 114.920487 217.622324 
L 114.495089 218.865386 
L 114.075401 220.108448 
L 113.664168 221.351509 
L 113.264054 222.594571 
L 112.87755 223.837632 
L 112.506882 225.080694 
L 112.153925 226.323756 
L 111.820134 227.566817 
L 111.506506 228.809879 
L 111.213547 230.05294 
L 110.941288 231.296002 
L 110.68931 232.539064 
L 110.456805 233.782125 
L 110.242646 235.025187 
L 110.045483 236.268248 
L 109.863832 237.51131 
L 109.863832 237.51131 
z
" clip-path="url(#p6cc6326b00)" style="fill: none; stroke: #000000; stroke-opacity: 0.3"/>
   </g>
   <g id="matplotlib.axis_1">
    <g id="xtick_1">
     <g id="line2d_1">
      <defs>
       <path id="mba2b6d7dd9" d="M 0 0 
L 0 3.5 
" style="stroke: #000000; stroke-width: 0.8"/>
      </defs>
      <g>
       <use xlink:href="#mba2b6d7dd9" x="50.4" y="291.6" style="stroke: #000000; stroke-width: 0.8"/>
      </g>
     </g>
     <g id="text_1">
      <text style="font-size: 10px; font-family: 'DejaVu Sans', 'Bitstream Vera Sans', 'Computer Modern Sans Serif', 'Lucida Grande', 'Verdana', 'Geneva', 'Lucid', 'Arial', 'Helvetica', 'Avant Garde', sans-serif; text-anchor: middle" x="50.4" y="306.198438" transform="rotate(-0 50.4 306.198438)">0.3</text>
     </g>
    </g>
    <g id="xtick_2">
     <g id="line2d_2">
      <g>
       <use xlink:href="#mba2b6d7dd9" x="108" y="291.6" style="stroke: #000000; stroke-width: 0.8"/>
      </g>
     </g>
     <g id="text_2">
      <text style="font-size: 10px; font-family: 'DejaVu Sans', 'Bitstream Vera Sans', 'Computer Modern Sans Serif', 'Lucida Grande', 'Verdana', 'Geneva', 'Lucid', 'Arial', 'Helvetica', 'Avant Garde', sans-serif; text-anchor: middle" x="108" y="306.198438" transform="rotate(-0 108 306.198438)">0.6</text>
     </g>
    </g>
   </g>
   <g id="matplotlib.axis_2">
    <g id="ytick_1">
     <g id="line2d_3">
      <defs>
       <path id="m57a4a82ac4" d="M 0 0 
L -3.5 0 
" style="stroke: #000000; stroke-width: 0.8"/>
      </defs>
      <g>
       <use xlink:href="#m57a4a82ac4" x="21.6" y="291.6" style="stroke: #000000; stroke-width: 0.8"/>
      </g>
     </g>
    </g>
    <g id="ytick_2">
     <g id="line2d_4">
      <g>
       <use xlink:href="#m57a4a82ac4" x="21.6" y="199.8" style="stroke: #000000; stroke-width: 0.8"/>
      </g>
     </g>
    </g>
    <g id="ytick_3">
     <g id="line2d_5">
      <g>
       <use xlink:href="#m57a4a82ac4" x="21.6" y="108" style="stroke: #000000; stroke-width: 0.8"/>
      </g>
     </g>
    </g>
    <g id="ytick_4">
     <g id="line2d_6">
      <g>
       <use xlink:href="#m57a4a82ac4" x="21.6" y="16.2" style="stroke: #000000; stroke-width: 0.8"/>
      </g>
     </g>
    </g>
   </g>
   <g id="line2d_7">
    <path d="M 50.4 269.568 
L 50.4 264.06 
" clip-path="url(#p6cc6326b00)" style="fill: none; stroke: #000000; stroke-linecap: square"/>
   </g>
   <g id="line2d_8">
    <path d="M 50.4 269.568 
L 108 269.568 
" clip-path="url(#p6cc6326b00)" style="fill: none; stroke: #000000; stroke-linecap: square"/>
   </g>
   <g id="line2d_9">
    <path d="M 108 269.568 
L 108 264.06 
" clip-path="url(#p6cc6326b00)" style="fill: none; stroke: #000000; stroke-linecap: square"/>
   </g>
   <g id="patch_3">
    <path d="M 21.6 291.6 
L 21.6 16.2 
" style="fill: none; stroke: #000000; stroke-width: 0.8; stroke-linejoin: miter; stroke-linecap: square"/>
   </g>
   <g id="patch_4">
    <path d="M 136.8 291.6 
L 136.8 16.2 
" style="fill: none; stroke: #000000; stroke-width: 0.8; stroke-linejoin: miter; stroke-linecap: square"/>
   </g>
   <g id="patch_5">
    <path d="M 21.6 291.6 
L 136.8 291.6 
" style="fill: none; stroke: #000000; stroke-width: 0.8; stroke-linejoin: miter; stroke-linecap: square"/>
   </g>
   <g id="patch_6">
    <path d="M 21.6 16.2 
L 136.8 16.2 
" style="fill: none; stroke: #000000; stroke-width: 0.8; stroke-linejoin: miter; stroke-linecap: square"/>
   </g>
   <g id="text_3">
    <text style="font-weight: 700; font-size: 12px; font-family: 'DejaVu Sans', 'Bitstream Vera Sans', 'Computer Modern Sans Serif', 'Lucida Grande', 'Verdana', 'Geneva', 'Lucid', 'Arial', 'Helvetica', 'Avant Garde', sans-serif; text-anchor: middle" x="50.4" y="289.104375" transform="rotate(-0 50.4 289.104375)">#12</text>
   </g>
   <g id="text_4">
    <text style="font-weight: 700; font-size: 12px; font-family: 'DejaVu Sans', 'Bitstream Vera Sans', 'Computer Modern Sans Serif', 'Lucida Grande', 'Verdana', 'Geneva', 'Lucid', 'Arial', 'Helvetica', 'Avant Garde', sans-serif; text-anchor: middle" x="108" y="289.104375" transform="rotate(-0 108 289.104375)">#26</text>
   </g>
   <g id="text_5">
    <text style="font-size: 12px; font-family: 'DejaVu Sans', 'Bitstream Vera Sans', 'Computer Modern Sans Serif', 'Lucida Grande', 'Verdana', 'Geneva', 'Lucid', 'Arial', 'Helvetica', 'Avant Garde', sans-serif; text-anchor: middle" x="79.2" y="268.449375" transform="rotate(-0 79.2 268.449375)">****</text>
   </g>
   <g id="line2d_10">
    <path d="M 21.6 114.633632 
L 136.8 114.633632 
" clip-path="url(#p6cc6326b00)" style="fill: none; stroke-dasharray: 3.7,1.6; stroke-dashoffset: 0; stroke: #808080; stroke-opacity: 0.7"/>
   </g>
   <g id="line2d_11">
    <path d="M 21.6 174.832136 
L 136.8 174.832136 
" clip-path="url(#p6cc6326b00)" style="fill: none; stroke-dasharray: 3.7,1.6; stroke-dashoffset: 0; stroke: #808080; stroke-opacity: 0.7"/>
   </g>
   <g id="LineCollection_1">
    <path d="M 50.4 118.288777 
L 50.4 110.978486 
" clip-path="url(#p6cc6326b00)" style="fill: none; stroke: #000000; stroke-width: 2"/>
   </g>
   <g id="line2d_12">
    <defs>
     <path id="m7d4ab6da48" d="M 5 0 
L -5 -0 
" style="stroke: #000000; stroke-width: 2"/>
    </defs>
    <g clip-path="url(#p6cc6326b00)">
     <use xlink:href="#m7d4ab6da48" x="50.4" y="118.288777" style="stroke: #000000; stroke-width: 2"/>
    </g>
   </g>
   <g id="line2d_13">
    <g clip-path="url(#p6cc6326b00)">
     <use xlink:href="#m7d4ab6da48" x="50.4" y="110.978486" style="stroke: #000000; stroke-width: 2"/>
    </g>
   </g>
   <g id="LineCollection_2">
    <path d="M 108 177.885501 
L 108 171.77877 
" clip-path="url(#p6cc6326b00)" style="fill: none; stroke: #000000; stroke-width: 2"/>
   </g>
   <g id="line2d_14">
    <g clip-path="url(#p6cc6326b00)">
     <use xlink:href="#m7d4ab6da48" x="108" y="177.885501" style="stroke: #000000; stroke-width: 2"/>
    </g>
   </g>
   <g id="line2d_15">
    <g clip-path="url(#p6cc6326b00)">
     <use xlink:href="#m7d4ab6da48" x="108" y="171.77877" style="stroke: #000000; stroke-width: 2"/>
    </g>
   </g>
   <g id="line2d_16">
    <defs>
     <path id="m84d7b943b5" d="M 0 4 
C 1.060812 4 2.078319 3.578535 2.828427 2.828427 
C 3.578535 2.078319 4 1.060812 4 0 
C 4 -1.060812 3.578535 -2.078319 2.828427 -2.828427 
C 2.078319 -3.578535 1.060812 -4 0 -4 
C -1.060812 -4 -2.078319 -3.578535 -2.828427 -2.828427 
C -3.578535 -2.078319 -4 -1.060812 -4 0 
C -4 1.060812 -3.578535 2.078319 -2.828427 2.828427 
C -2.078319 3.578535 -1.060812 4 0 4 
z
" style="stroke: #000000"/>
    </defs>
    <g clip-path="url(#p6cc6326b00)">
     <use xlink:href="#m84d7b943b5" x="50.4" y="114.633632" style="stroke: #000000"/>
    </g>
   </g>
   <g id="line2d_17">
    <g clip-path="url(#p6cc6326b00)">
     <use xlink:href="#m84d7b943b5" x="108" y="174.832136" style="stroke: #000000"/>
    </g>
   </g>
  </g>
 </g>
 <defs>
  <clipPath id="p6cc6326b00">
   <rect x="21.6" y="16.2" width="115.2" height="275.4"/>
  </clipPath>
 </defs>
</svg>
