<?xml version="1.0" encoding="utf-8" standalone="no"?>
<!DOCTYPE svg PUBLIC "-//W3C//DTD SVG 1.1//EN"
  "http://www.w3.org/Graphics/SVG/1.1/DTD/svg11.dtd">
<svg xmlns:xlink="http://www.w3.org/1999/xlink" width="144pt" height="324pt" viewBox="0 0 144 324" xmlns="http://www.w3.org/2000/svg" version="1.1">
 <metadata>
  <rdf:RDF xmlns:dc="http://purl.org/dc/elements/1.1/" xmlns:cc="http://creativecommons.org/ns#" xmlns:rdf="http://www.w3.org/1999/02/22-rdf-syntax-ns#">
   <cc:Work>
    <dc:type rdf:resource="http://purl.org/dc/dcmitype/StillImage"/>
    <dc:date>2025-12-11T11:14:58.956968</dc:date>
    <dc:format>image/svg+xml</dc:format>
    <dc:creator>
     <cc:Agent>
      <dc:title>Matplotlib v3.10.3, https://matplotlib.org/</dc:title>
     </cc:Agent>
    </dc:creator>
   </cc:Work>
  </rdf:RDF>
 </metadata>
 <defs>
  <style type="text/css">*{stroke-linejoin: round; stroke-linecap: butt}</style>
 </defs>
 <g id="figure_1">
  <g id="patch_1">
   <path d="M 0 324 
L 144 324 
L 144 0 
L 0 0 
z
" style="fill: #ffffff"/>
  </g>
  <g id="axes_1">
   <g id="patch_2">
    <path d="M 21.6 291.6 
L 136.8 291.6 
L 136.8 16.2 
L 21.6 16.2 
z
" style="fill: #ffffff"/>
   </g>
   <g id="FillBetweenPolyCollection_1">
    <path d="M 50.067727 325 
L 50.096557 323.360004 
L 50.139165 321.085152 
L 50.181875 318.810301 
L 50.222541 316.53545 
L 50.259543 314.260598 
L 50.291846 311.985747 
L 50.31898 309.710896 
L 50.340954 307.436045 
L 50.358135 305.161193 
L 50.371123 302.886342 
L 50.380622 300.611491 
L 50.387349 298.336639 
L 50.391965 296.061788 
L 50.395035 293.786937 
L 50.397015 291.512085 
L 50.398255 289.237234 
L 50.399007 286.962383 
L 50.39945 284.687531 
L 50.399703 282.41268 
L 50.399844 280.137829 
L 50.399918 277.862978 
L 50.399954 275.588126 
L 50.399966 273.313275 
L 50.399959 271.038424 
L 50.399928 268.763572 
L 50.399859 266.488721 
L 50.399722 264.21387 
L 50.399461 261.939018 
L 50.398978 259.664167 
L 50.398112 257.389316 
L 50.3966 255.114464 
L 50.39403 252.839613 
L 50.389779 250.564762 
L 50.382937 248.289911 
L 50.372225 246.015059 
L 50.355905 243.740208 
L 50.331724 241.465357 
L 50.296879 239.190505 
L 50.248057 236.915654 
L 50.181564 234.640803 
L 50.093567 232.365951 
L 49.980447 230.0911 
L 49.839263 227.816249 
L 49.668279 225.541397 
L 49.467482 223.266546 
L 49.239019 220.991695 
L 48.987437 218.716844 
L 48.719648 216.441992 
L 48.444567 214.167141 
L 48.172388 211.89229 
L 47.91356 209.617438 
L 47.677559 207.342587 
L 47.471589 205.067736 
L 47.299397 202.792884 
L 47.160368 200.518033 
L 47.049044 198.243182 
L 46.955172 195.96833 
L 46.864318 193.693479 
L 46.759006 191.418628 
L 46.620299 189.143777 
L 46.429629 186.868925 
L 46.170672 184.594074 
L 45.831026 182.319223 
L 45.403445 180.044371 
L 44.886437 177.76952 
L 44.284146 175.494669 
L 43.60551 173.219817 
L 42.862866 170.944966 
L 42.070259 168.670115 
L 41.241811 166.395263 
L 40.390477 164.120412 
L 39.527483 161.845561 
L 38.662563 159.57071 
L 37.804939 157.295858 
L 36.96481 155.021007 
L 36.154958 152.746156 
L 35.392024 150.471304 
L 34.697055 148.196453 
L 34.095066 145.921602 
L 33.613564 143.64675 
L 33.280212 141.371899 
L 33.12 139.097048 
L 33.152403 136.822197 
L 33.388989 134.547345 
L 33.831848 132.272494 
L 34.473053 129.997643 
L 35.295145 127.722791 
L 36.272501 125.44794 
L 37.373307 123.173089 
L 38.561856 120.898237 
L 39.800884 118.623386 
L 41.053749 116.348535 
L 42.286324 114.073683 
L 43.468519 111.798832 
L 44.57541 109.523981 
L 56.22459 109.523981 
L 56.22459 109.523981 
L 57.331481 111.798832 
L 58.513676 114.073683 
L 59.746251 116.348535 
L 60.999116 118.623386 
L 62.238144 120.898237 
L 63.426693 123.173089 
L 64.527499 125.44794 
L 65.504855 127.722791 
L 66.326947 129.997643 
L 66.968152 132.272494 
L 67.411011 134.547345 
L 67.647597 136.822197 
L 67.68 139.097048 
L 67.519788 141.371899 
L 67.186436 143.64675 
L 66.704934 145.921602 
L 66.102945 148.196453 
L 65.407976 150.471304 
L 64.645042 152.746156 
L 63.83519 155.021007 
L 62.995061 157.295858 
L 62.137437 159.57071 
L 61.272517 161.845561 
L 60.409523 164.120412 
L 59.558189 166.395263 
L 58.729741 168.670115 
L 57.937134 170.944966 
L 57.19449 173.219817 
L 56.515854 175.494669 
L 55.913563 177.76952 
L 55.396555 180.044371 
L 54.968974 182.319223 
L 54.629328 184.594074 
L 54.370371 186.868925 
L 54.179701 189.143777 
L 54.040994 191.418628 
L 53.935682 193.693479 
L 53.844828 195.96833 
L 53.750956 198.243182 
L 53.639632 200.518033 
L 53.500603 202.792884 
L 53.328411 205.067736 
L 53.122441 207.342587 
L 52.88644 209.617438 
L 52.627612 211.89229 
L 52.355433 214.167141 
L 52.080352 216.441992 
L 51.812563 218.716844 
L 51.560981 220.991695 
L 51.332518 223.266546 
L 51.131721 225.541397 
L 50.960737 227.816249 
L 50.819553 230.0911 
L 50.706433 232.365951 
L 50.618436 234.640803 
L 50.551943 236.915654 
L 50.503121 239.190505 
L 50.468276 241.465357 
L 50.444095 243.740208 
L 50.427775 246.015059 
L 50.417063 248.289911 
L 50.410221 250.564762 
L 50.40597 252.839613 
L 50.4034 255.114464 
L 50.401888 257.389316 
L 50.401022 259.664167 
L 50.400539 261.939018 
L 50.400278 264.21387 
L 50.400141 266.488721 
L 50.400072 268.763572 
L 50.400041 271.038424 
L 50.400034 273.313275 
L 50.400046 275.588126 
L 50.400082 277.862978 
L 50.400156 280.137829 
L 50.400297 282.41268 
L 50.40055 284.687531 
L 50.400993 286.962383 
L 50.401745 289.237234 
L 50.402985 291.512085 
L 50.404965 293.786937 
L 50.408035 296.061788 
L 50.412651 298.336639 
L 50.419378 300.611491 
L 50.428877 302.886342 
L 50.441865 305.161193 
L 50.459046 307.436045 
L 50.48102 309.710896 
L 50.508154 311.985747 
L 50.540457 314.260598 
L 50.577459 316.53545 
L 50.618125 318.810301 
L 50.660835 321.085152 
L 50.703443 323.360004 
L 50.732273 325 
" clip-path="url(#pb8ca69671e)" style="fill: none; stroke: #000000; stroke-opacity: 0.3"/>
   </g>
   <g id="FillBetweenPolyCollection_2">
    <path d="M 53.426569 191.718602 
L 47.373431 191.718602 
L 47.24165 190.865086 
L 47.111366 190.011569 
L 46.982161 189.158052 
L 46.853454 188.304535 
L 46.724515 187.451018 
L 46.594485 186.597502 
L 46.462403 185.743985 
L 46.327231 184.890468 
L 46.187892 184.036951 
L 46.043295 183.183434 
L 45.892372 182.329918 
L 45.734105 181.476401 
L 45.567556 180.622884 
L 45.391885 179.769367 
L 45.20637 178.91585 
L 45.010422 178.062334 
L 44.803584 177.208817 
L 44.585541 176.3553 
L 44.356108 175.501783 
L 44.115226 174.648266 
L 43.862951 173.79475 
L 43.599444 172.941233 
L 43.324952 172.087716 
L 43.039801 171.234199 
L 42.744385 170.380682 
L 42.439159 169.527166 
L 42.124635 168.673649 
L 41.801381 167.820132 
L 41.47003 166.966615 
L 41.131281 166.113098 
L 40.785913 165.259582 
L 40.434793 164.406065 
L 40.078887 163.552548 
L 39.719272 162.699031 
L 39.357138 161.845514 
L 38.993789 160.991998 
L 38.630644 160.138481 
L 38.269223 159.284964 
L 37.911129 158.431447 
L 37.558028 157.57793 
L 37.211616 156.724414 
L 36.873585 155.870897 
L 36.545588 155.01738 
L 36.229193 154.163863 
L 35.925849 153.310346 
L 35.636842 152.45683 
L 35.363269 151.603313 
L 35.106006 150.749796 
L 34.865691 149.896279 
L 34.642715 149.042762 
L 34.437221 148.189246 
L 34.249119 147.335729 
L 34.078103 146.482212 
L 33.923683 145.628695 
L 33.785221 144.775178 
L 33.66198 143.921662 
L 33.553161 143.068145 
L 33.457963 142.214628 
L 33.375621 141.361111 
L 33.305451 140.507594 
L 33.246891 139.654078 
L 33.199529 138.800561 
L 33.163124 137.947044 
L 33.13762 137.093527 
L 33.123143 136.24001 
L 33.12 135.386494 
L 33.12866 134.532977 
L 33.14973 133.67946 
L 33.183925 132.825943 
L 33.232038 131.972426 
L 33.294902 131.11891 
L 33.373352 130.265393 
L 33.468198 129.411876 
L 33.580187 128.558359 
L 33.709983 127.704843 
L 33.858143 126.851326 
L 34.025101 125.997809 
L 34.211164 125.144292 
L 34.416504 124.290775 
L 34.641165 123.437259 
L 34.885064 122.583742 
L 35.148 121.730225 
L 35.429669 120.876708 
L 35.729669 120.023191 
L 36.047516 119.169675 
L 36.382643 118.316158 
L 36.734414 117.462641 
L 37.102124 116.609124 
L 37.484995 115.755607 
L 37.882177 114.902091 
L 38.292738 114.048574 
L 38.715661 113.195057 
L 39.149829 112.34154 
L 39.594023 111.488023 
L 40.046911 110.634507 
L 40.507045 109.78099 
L 40.972862 108.927473 
L 41.442682 108.073956 
L 41.914722 107.220439 
L 58.885278 107.220439 
L 58.885278 107.220439 
L 59.357318 108.073956 
L 59.827138 108.927473 
L 60.292955 109.78099 
L 60.753089 110.634507 
L 61.205977 111.488023 
L 61.650171 112.34154 
L 62.084339 113.195057 
L 62.507262 114.048574 
L 62.917823 114.902091 
L 63.315005 115.755607 
L 63.697876 116.609124 
L 64.065586 117.462641 
L 64.417357 118.316158 
L 64.752484 119.169675 
L 65.070331 120.023191 
L 65.370331 120.876708 
L 65.652 121.730225 
L 65.914936 122.583742 
L 66.158835 123.437259 
L 66.383496 124.290775 
L 66.588836 125.144292 
L 66.774899 125.997809 
L 66.941857 126.851326 
L 67.090017 127.704843 
L 67.219813 128.558359 
L 67.331802 129.411876 
L 67.426648 130.265393 
L 67.505098 131.11891 
L 67.567962 131.972426 
L 67.616075 132.825943 
L 67.65027 133.67946 
L 67.67134 134.532977 
L 67.68 135.386494 
L 67.676857 136.24001 
L 67.66238 137.093527 
L 67.636876 137.947044 
L 67.600471 138.800561 
L 67.553109 139.654078 
L 67.494549 140.507594 
L 67.424379 141.361111 
L 67.342037 142.214628 
L 67.246839 143.068145 
L 67.13802 143.921662 
L 67.014779 144.775178 
L 66.876317 145.628695 
L 66.721897 146.482212 
L 66.550881 147.335729 
L 66.362779 148.189246 
L 66.157285 149.042762 
L 65.934309 149.896279 
L 65.693994 150.749796 
L 65.436731 151.603313 
L 65.163158 152.45683 
L 64.874151 153.310346 
L 64.570807 154.163863 
L 64.254412 155.01738 
L 63.926415 155.870897 
L 63.588384 156.724414 
L 63.241972 157.57793 
L 62.888871 158.431447 
L 62.530777 159.284964 
L 62.169356 160.138481 
L 61.806211 160.991998 
L 61.442862 161.845514 
L 61.080728 162.699031 
L 60.721113 163.552548 
L 60.365207 164.406065 
L 60.014087 165.259582 
L 59.668719 166.113098 
L 59.32997 166.966615 
L 58.998619 167.820132 
L 58.675365 168.673649 
L 58.360841 169.527166 
L 58.055615 170.380682 
L 57.760199 171.234199 
L 57.475048 172.087716 
L 57.200556 172.941233 
L 56.937049 173.79475 
L 56.684774 174.648266 
L 56.443892 175.501783 
L 56.214459 176.3553 
L 55.996416 177.208817 
L 55.789578 178.062334 
L 55.59363 178.91585 
L 55.408115 179.769367 
L 55.232444 180.622884 
L 55.065895 181.476401 
L 54.907628 182.329918 
L 54.756705 183.183434 
L 54.612108 184.036951 
L 54.472769 184.890468 
L 54.337597 185.743985 
L 54.205515 186.597502 
L 54.075485 187.451018 
L 53.946546 188.304535 
L 53.817839 189.158052 
L 53.688634 190.011569 
L 53.55835 190.865086 
L 53.426569 191.718602 
L 53.426569 191.718602 
z
" clip-path="url(#pb8ca69671e)" style="fill: none; stroke: #000000; stroke-opacity: 0.3"/>
   </g>
   <g id="FillBetweenPolyCollection_3">
    <path d="M 53.001524 188.342922 
L 47.798476 188.342922 
L 47.652997 187.656062 
L 47.509404 186.969202 
L 47.367944 186.282342 
L 47.228658 185.595482 
L 47.091371 184.908623 
L 46.95568 184.221763 
L 46.820958 183.534903 
L 46.686365 182.848043 
L 46.550862 182.161183 
L 46.413244 181.474323 
L 46.272176 180.787463 
L 46.126233 180.100604 
L 45.973955 179.413744 
L 45.813899 178.726884 
L 45.644693 178.040024 
L 45.465099 177.353164 
L 45.274065 176.666304 
L 45.070773 175.979444 
L 44.854691 175.292585 
L 44.625602 174.605725 
L 44.383632 173.918865 
L 44.129266 173.232005 
L 43.863346 172.545145 
L 43.587061 171.858285 
L 43.30192 171.171426 
L 43.009719 170.484566 
L 42.712486 169.797706 
L 42.412429 169.110846 
L 42.111863 168.423986 
L 41.813145 167.737126 
L 41.518593 167.050266 
L 41.230416 166.363407 
L 40.950642 165.676547 
L 40.681045 164.989687 
L 40.423094 164.302827 
L 40.177895 163.615967 
L 39.946156 162.929107 
L 39.728162 162.242247 
L 39.523762 161.555388 
L 39.332367 160.868528 
L 39.152973 160.181668 
L 38.984189 159.494808 
L 38.824277 158.807948 
L 38.671216 158.121088 
L 38.522762 157.434229 
L 38.376529 156.747369 
L 38.230067 156.060509 
L 38.080955 155.373649 
L 37.926884 154.686789 
L 37.765746 153.999929 
L 37.595717 153.313069 
L 37.415332 152.62621 
L 37.223553 151.93935 
L 37.019812 151.25249 
L 36.804059 150.56563 
L 36.576772 149.87877 
L 36.338963 149.19191 
L 36.092158 148.505051 
L 35.838357 147.818191 
L 35.579987 147.131331 
L 35.319821 146.444471 
L 35.060905 145.757611 
L 34.806457 145.070751 
L 34.559775 144.383891 
L 34.32413 143.697032 
L 34.102678 143.010172 
L 33.898364 142.323312 
L 33.713848 141.636452 
L 33.551443 140.949592 
L 33.41307 140.262732 
L 33.300232 139.575872 
L 33.214012 138.889013 
L 33.155086 138.202153 
L 33.123755 137.515293 
L 33.12 136.828433 
L 33.143538 136.141573 
L 33.193894 135.454713 
L 33.27048 134.767854 
L 33.37266 134.080994 
L 33.499827 133.394134 
L 33.651456 132.707274 
L 33.827154 132.020414 
L 34.026685 131.333554 
L 34.249985 130.646694 
L 34.497153 129.959835 
L 34.768428 129.272975 
L 35.064144 128.586115 
L 35.384672 127.899255 
L 35.730357 127.212395 
L 36.101438 126.525535 
L 36.497974 125.838675 
L 36.919769 125.151816 
L 37.366299 124.464956 
L 37.836664 123.778096 
L 38.329536 123.091236 
L 38.843143 122.404376 
L 39.375257 121.717516 
L 39.923212 121.030657 
L 40.483941 120.343797 
L 60.316059 120.343797 
L 60.316059 120.343797 
L 60.876788 121.030657 
L 61.424743 121.717516 
L 61.956857 122.404376 
L 62.470464 123.091236 
L 62.963336 123.778096 
L 63.433701 124.464956 
L 63.880231 125.151816 
L 64.302026 125.838675 
L 64.698562 126.525535 
L 65.069643 127.212395 
L 65.415328 127.899255 
L 65.735856 128.586115 
L 66.031572 129.272975 
L 66.302847 129.959835 
L 66.550015 130.646694 
L 66.773315 131.333554 
L 66.972846 132.020414 
L 67.148544 132.707274 
L 67.300173 133.394134 
L 67.42734 134.080994 
L 67.52952 134.767854 
L 67.606106 135.454713 
L 67.656462 136.141573 
L 67.68 136.828433 
L 67.676245 137.515293 
L 67.644914 138.202153 
L 67.585988 138.889013 
L 67.499768 139.575872 
L 67.38693 140.262732 
L 67.248557 140.949592 
L 67.086152 141.636452 
L 66.901636 142.323312 
L 66.697322 143.010172 
L 66.47587 143.697032 
L 66.240225 144.383891 
L 65.993543 145.070751 
L 65.739095 145.757611 
L 65.480179 146.444471 
L 65.220013 147.131331 
L 64.961643 147.818191 
L 64.707842 148.505051 
L 64.461037 149.19191 
L 64.223228 149.87877 
L 63.995941 150.56563 
L 63.780188 151.25249 
L 63.576447 151.93935 
L 63.384668 152.62621 
L 63.204283 153.313069 
L 63.034254 153.999929 
L 62.873116 154.686789 
L 62.719045 155.373649 
L 62.569933 156.060509 
L 62.423471 156.747369 
L 62.277238 157.434229 
L 62.128784 158.121088 
L 61.975723 158.807948 
L 61.815811 159.494808 
L 61.647027 160.181668 
L 61.467633 160.868528 
L 61.276238 161.555388 
L 61.071838 162.242247 
L 60.853844 162.929107 
L 60.622105 163.615967 
L 60.376906 164.302827 
L 60.118955 164.989687 
L 59.849358 165.676547 
L 59.569584 166.363407 
L 59.281407 167.050266 
L 58.986855 167.737126 
L 58.688137 168.423986 
L 58.387571 169.110846 
L 58.087514 169.797706 
L 57.790281 170.484566 
L 57.49808 171.171426 
L 57.212939 171.858285 
L 56.936654 172.545145 
L 56.670734 173.232005 
L 56.416368 173.918865 
L 56.174398 174.605725 
L 55.945309 175.292585 
L 55.729227 175.979444 
L 55.525935 176.666304 
L 55.334901 177.353164 
L 55.155307 178.040024 
L 54.986101 178.726884 
L 54.826045 179.413744 
L 54.673767 180.100604 
L 54.527824 180.787463 
L 54.386756 181.474323 
L 54.249138 182.161183 
L 54.113635 182.848043 
L 53.979042 183.534903 
L 53.84432 184.221763 
L 53.708629 184.908623 
L 53.571342 185.595482 
L 53.432056 186.282342 
L 53.290596 186.969202 
L 53.147003 187.656062 
L 53.001524 188.342922 
L 53.001524 188.342922 
z
" clip-path="url(#pb8ca69671e)" style="fill: none; stroke: #000000; stroke-opacity: 0.3"/>
   </g>
   <g id="FillBetweenPolyCollection_4">
    <path d="M 51.214118 202.835876 
L 49.585882 202.835876 
L 49.572016 201.793883 
L 49.561222 200.751889 
L 49.551606 199.709896 
L 49.540774 198.667903 
L 49.525883 197.625909 
L 49.503718 196.583916 
L 49.470789 195.541922 
L 49.423459 194.499929 
L 49.358077 193.457936 
L 49.271127 192.415942 
L 49.159383 191.373949 
L 49.020054 190.331955 
L 48.850924 189.289962 
L 48.650467 188.247969 
L 48.417936 187.205975 
L 48.153415 186.163982 
L 47.857833 185.121989 
L 47.532931 184.079995 
L 47.181182 183.038002 
L 46.805674 181.996008 
L 46.409956 180.954015 
L 45.997851 179.912022 
L 45.57326 178.870028 
L 45.139964 177.828035 
L 44.701434 176.786041 
L 44.260677 175.744048 
L 43.820103 174.702055 
L 43.381455 173.660061 
L 42.945776 172.618068 
L 42.513434 171.576075 
L 42.084181 170.534081 
L 41.657269 169.492088 
L 41.231575 168.450094 
L 40.805759 167.408101 
L 40.378422 166.366108 
L 39.948264 165.324114 
L 39.514233 164.282121 
L 39.075652 163.240127 
L 38.632335 162.198134 
L 38.184674 161.156141 
L 37.733705 160.114147 
L 37.281153 159.072154 
L 36.829454 158.030161 
L 36.38175 156.988167 
L 35.941867 155.946174 
L 35.51426 154.90418 
L 35.103944 153.862187 
L 34.716384 152.820194 
L 34.357371 151.7782 
L 34.03287 150.736207 
L 33.748842 149.694213 
L 33.511056 148.65222 
L 33.324895 147.610227 
L 33.195148 146.568233 
L 33.125829 145.52624 
L 33.12 144.484247 
L 33.179626 143.442253 
L 33.30547 142.40026 
L 33.497018 141.358266 
L 33.752465 140.316273 
L 34.068731 139.27428 
L 34.441541 138.232286 
L 34.865535 137.190293 
L 35.334425 136.1483 
L 35.841181 135.106306 
L 36.378241 134.064313 
L 36.937737 133.022319 
L 37.511722 131.980326 
L 38.092401 130.938333 
L 38.672343 129.896339 
L 39.244669 128.854346 
L 39.803222 127.812352 
L 40.342694 126.770359 
L 40.858723 125.728366 
L 41.347944 124.686372 
L 41.808003 123.644379 
L 42.237541 122.602386 
L 42.636131 121.560392 
L 43.004197 120.518399 
L 43.342903 119.476405 
L 43.654039 118.434412 
L 43.939883 117.392419 
L 44.203078 116.350425 
L 44.446503 115.308432 
L 44.673166 114.266438 
L 44.886097 113.224445 
L 45.088267 112.182452 
L 45.282517 111.140458 
L 45.4715 110.098465 
L 45.657632 109.056472 
L 45.843056 108.014478 
L 46.029602 106.972485 
L 46.218762 105.930491 
L 46.411662 104.888498 
L 46.609036 103.846505 
L 46.811217 102.804511 
L 47.018121 101.762518 
L 47.22926 100.720524 
L 47.443759 99.678531 
L 53.356241 99.678531 
L 53.356241 99.678531 
L 53.57074 100.720524 
L 53.781879 101.762518 
L 53.988783 102.804511 
L 54.190964 103.846505 
L 54.388338 104.888498 
L 54.581238 105.930491 
L 54.770398 106.972485 
L 54.956944 108.014478 
L 55.142368 109.056472 
L 55.3285 110.098465 
L 55.517483 111.140458 
L 55.711733 112.182452 
L 55.913903 113.224445 
L 56.126834 114.266438 
L 56.353497 115.308432 
L 56.596922 116.350425 
L 56.860117 117.392419 
L 57.145961 118.434412 
L 57.457097 119.476405 
L 57.795803 120.518399 
L 58.163869 121.560392 
L 58.562459 122.602386 
L 58.991997 123.644379 
L 59.452056 124.686372 
L 59.941277 125.728366 
L 60.457306 126.770359 
L 60.996778 127.812352 
L 61.555331 128.854346 
L 62.127657 129.896339 
L 62.707599 130.938333 
L 63.288278 131.980326 
L 63.862263 133.022319 
L 64.421759 134.064313 
L 64.958819 135.106306 
L 65.465575 136.1483 
L 65.934465 137.190293 
L 66.358459 138.232286 
L 66.731269 139.27428 
L 67.047535 140.316273 
L 67.302982 141.358266 
L 67.49453 142.40026 
L 67.620374 143.442253 
L 67.68 144.484247 
L 67.674171 145.52624 
L 67.604852 146.568233 
L 67.475105 147.610227 
L 67.288944 148.65222 
L 67.051158 149.694213 
L 66.76713 150.736207 
L 66.442629 151.7782 
L 66.083616 152.820194 
L 65.696056 153.862187 
L 65.28574 154.90418 
L 64.858133 155.946174 
L 64.41825 156.988167 
L 63.970546 158.030161 
L 63.518847 159.072154 
L 63.066295 160.114147 
L 62.615326 161.156141 
L 62.167665 162.198134 
L 61.724348 163.240127 
L 61.285767 164.282121 
L 60.851736 165.324114 
L 60.421578 166.366108 
L 59.994241 167.408101 
L 59.568425 168.450094 
L 59.142731 169.492088 
L 58.715819 170.534081 
L 58.286566 171.576075 
L 57.854224 172.618068 
L 57.418545 173.660061 
L 56.979897 174.702055 
L 56.539323 175.744048 
L 56.098566 176.786041 
L 55.660036 177.828035 
L 55.22674 178.870028 
L 54.802149 179.912022 
L 54.390044 180.954015 
L 53.994326 181.996008 
L 53.618818 183.038002 
L 53.267069 184.079995 
L 52.942167 185.121989 
L 52.646585 186.163982 
L 52.382064 187.205975 
L 52.149533 188.247969 
L 51.949076 189.289962 
L 51.779946 190.331955 
L 51.640617 191.373949 
L 51.528873 192.415942 
L 51.441923 193.457936 
L 51.376541 194.499929 
L 51.329211 195.541922 
L 51.296282 196.583916 
L 51.274117 197.625909 
L 51.259226 198.667903 
L 51.248394 199.709896 
L 51.238778 200.751889 
L 51.227984 201.793883 
L 51.214118 202.835876 
L 51.214118 202.835876 
z
" clip-path="url(#pb8ca69671e)" style="fill: none; stroke: #000000; stroke-opacity: 0.3"/>
   </g>
   <g id="FillBetweenPolyCollection_5">
    <path d="M 51.702642 212.216401 
L 49.097358 212.216401 
L 49.034445 211.296885 
L 48.968164 210.377368 
L 48.897168 209.457852 
L 48.819993 208.538335 
L 48.735101 207.618819 
L 48.640942 206.699302 
L 48.53602 205.779786 
L 48.41896 204.860269 
L 48.288576 203.940753 
L 48.143934 203.021236 
L 47.984412 202.101719 
L 47.809743 201.182203 
L 47.620054 200.262686 
L 47.415881 199.34317 
L 47.198174 198.423653 
L 46.968282 197.504137 
L 46.727917 196.58462 
L 46.479108 195.665104 
L 46.224136 194.745587 
L 45.965454 193.826071 
L 45.705602 192.906554 
L 45.447117 191.987038 
L 45.192434 191.067521 
L 44.943794 190.148005 
L 44.703164 189.228488 
L 44.472151 188.308972 
L 44.251948 187.389455 
L 44.043277 186.469939 
L 43.846367 185.550422 
L 43.660935 184.630905 
L 43.486196 183.711389 
L 43.320886 182.791872 
L 43.1633 181.872356 
L 43.011354 180.952839 
L 42.862645 180.033323 
L 42.714533 179.113806 
L 42.564223 178.19429 
L 42.408851 177.274773 
L 42.245577 176.355257 
L 42.071667 175.43574 
L 41.884577 174.516224 
L 41.682032 173.596707 
L 41.462094 172.677191 
L 41.223221 171.757674 
L 40.96432 170.838158 
L 40.684783 169.918641 
L 40.384514 168.999125 
L 40.063949 168.079608 
L 39.724051 167.160091 
L 39.366306 166.240575 
L 38.992696 165.321058 
L 38.60567 164.401542 
L 38.20809 163.482025 
L 37.80318 162.562509 
L 37.39446 161.642992 
L 36.985665 160.723476 
L 36.580672 159.803959 
L 36.183412 158.884443 
L 35.797781 157.964926 
L 35.42756 157.04541 
L 35.076326 156.125893 
L 34.747382 155.206377 
L 34.443689 154.28686 
L 34.167808 153.367344 
L 33.921859 152.447827 
L 33.7075 151.528311 
L 33.525909 150.608794 
L 33.377801 149.689277 
L 33.263448 148.769761 
L 33.182723 147.850244 
L 33.135155 146.930728 
L 33.12 146.011211 
L 33.136314 145.091695 
L 33.183039 144.172178 
L 33.259079 143.252662 
L 33.363385 142.333145 
L 33.495017 141.413629 
L 33.653203 140.494112 
L 33.83738 139.574596 
L 34.047208 138.655079 
L 34.282574 137.735563 
L 34.543569 136.816046 
L 34.830444 135.89653 
L 35.143547 134.977013 
L 35.483253 134.057497 
L 35.849871 133.13798 
L 36.24356 132.218463 
L 36.664233 131.298947 
L 37.111477 130.37943 
L 37.584475 129.459914 
L 38.081958 128.540397 
L 38.602162 127.620881 
L 39.142818 126.701364 
L 39.701162 125.781848 
L 40.27397 124.862331 
L 40.857616 123.942815 
L 41.448146 123.023298 
L 42.041371 122.103782 
L 42.632973 121.184265 
L 58.167027 121.184265 
L 58.167027 121.184265 
L 58.758629 122.103782 
L 59.351854 123.023298 
L 59.942384 123.942815 
L 60.52603 124.862331 
L 61.098838 125.781848 
L 61.657182 126.701364 
L 62.197838 127.620881 
L 62.718042 128.540397 
L 63.215525 129.459914 
L 63.688523 130.37943 
L 64.135767 131.298947 
L 64.55644 132.218463 
L 64.950129 133.13798 
L 65.316747 134.057497 
L 65.656453 134.977013 
L 65.969556 135.89653 
L 66.256431 136.816046 
L 66.517426 137.735563 
L 66.752792 138.655079 
L 66.96262 139.574596 
L 67.146797 140.494112 
L 67.304983 141.413629 
L 67.436615 142.333145 
L 67.540921 143.252662 
L 67.616961 144.172178 
L 67.663686 145.091695 
L 67.68 146.011211 
L 67.664845 146.930728 
L 67.617277 147.850244 
L 67.536552 148.769761 
L 67.422199 149.689277 
L 67.274091 150.608794 
L 67.0925 151.528311 
L 66.878141 152.447827 
L 66.632192 153.367344 
L 66.356311 154.28686 
L 66.052618 155.206377 
L 65.723674 156.125893 
L 65.37244 157.04541 
L 65.002219 157.964926 
L 64.616588 158.884443 
L 64.219328 159.803959 
L 63.814335 160.723476 
L 63.40554 161.642992 
L 62.99682 162.562509 
L 62.59191 163.482025 
L 62.19433 164.401542 
L 61.807304 165.321058 
L 61.433694 166.240575 
L 61.075949 167.160091 
L 60.736051 168.079608 
L 60.415486 168.999125 
L 60.115217 169.918641 
L 59.83568 170.838158 
L 59.576779 171.757674 
L 59.337906 172.677191 
L 59.117968 173.596707 
L 58.915423 174.516224 
L 58.728333 175.43574 
L 58.554423 176.355257 
L 58.391149 177.274773 
L 58.235777 178.19429 
L 58.085467 179.113806 
L 57.937355 180.033323 
L 57.788646 180.952839 
L 57.6367 181.872356 
L 57.479114 182.791872 
L 57.313804 183.711389 
L 57.139065 184.630905 
L 56.953633 185.550422 
L 56.756723 186.469939 
L 56.548052 187.389455 
L 56.327849 188.308972 
L 56.096836 189.228488 
L 55.856206 190.148005 
L 55.607566 191.067521 
L 55.352883 191.987038 
L 55.094398 192.906554 
L 54.834546 193.826071 
L 54.575864 194.745587 
L 54.320892 195.665104 
L 54.072083 196.58462 
L 53.831718 197.504137 
L 53.601826 198.423653 
L 53.384119 199.34317 
L 53.179946 200.262686 
L 52.990257 201.182203 
L 52.815588 202.101719 
L 52.656066 203.021236 
L 52.511424 203.940753 
L 52.38104 204.860269 
L 52.26398 205.779786 
L 52.159058 206.699302 
L 52.064899 207.618819 
L 51.980007 208.538335 
L 51.902832 209.457852 
L 51.831836 210.377368 
L 51.765555 211.296885 
L 51.702642 212.216401 
L 51.702642 212.216401 
z
" clip-path="url(#pb8ca69671e)" style="fill: none; stroke: #000000; stroke-opacity: 0.3"/>
   </g>
   <g id="FillBetweenPolyCollection_6">
    <path d="M 54.581533 173.319019 
L 46.218467 173.319019 
L 45.992514 172.674853 
L 45.771975 172.030687 
L 45.557932 171.386521 
L 45.351325 170.742355 
L 45.152947 170.098188 
L 44.963441 169.454022 
L 44.783302 168.809856 
L 44.612875 168.16569 
L 44.452356 167.521524 
L 44.301792 166.877357 
L 44.161072 166.233191 
L 44.029919 165.589025 
L 43.907878 164.944859 
L 43.794297 164.300693 
L 43.688307 163.656527 
L 43.5888 163.01236 
L 43.494415 162.368194 
L 43.403515 161.724028 
L 43.314183 161.079862 
L 43.224221 160.435696 
L 43.131163 159.791529 
L 43.032306 159.147363 
L 42.924745 158.503197 
L 42.805443 157.859031 
L 42.671298 157.214865 
L 42.519242 156.570698 
L 42.346334 155.926532 
L 42.14988 155.282366 
L 41.927539 154.6382 
L 41.677443 153.994034 
L 41.398298 153.349867 
L 41.089483 152.705701 
L 40.751119 152.061535 
L 40.384126 151.417369 
L 39.99025 150.773203 
L 39.572053 150.129037 
L 39.132886 149.48487 
L 38.676819 148.840704 
L 38.20855 148.196538 
L 37.73328 147.552372 
L 37.256579 146.908206 
L 36.784223 146.264039 
L 36.322033 145.619873 
L 35.875705 144.975707 
L 35.450653 144.331541 
L 35.051859 143.687375 
L 34.683743 143.043208 
L 34.35006 142.399042 
L 34.053826 141.754876 
L 33.797269 141.11071 
L 33.581819 140.466544 
L 33.408128 139.822378 
L 33.276114 139.178211 
L 33.185035 138.534045 
L 33.133586 137.889879 
L 33.12 137.245713 
L 33.142171 136.601547 
L 33.19777 135.95738 
L 33.28436 135.313214 
L 33.399507 134.669048 
L 33.540865 134.024882 
L 33.706259 133.380716 
L 33.893738 132.736549 
L 34.101614 132.092383 
L 34.328471 131.448217 
L 34.573171 130.804051 
L 34.834827 130.159885 
L 35.112771 129.515718 
L 35.406508 128.871552 
L 35.715668 128.227386 
L 36.039946 127.58322 
L 36.379047 126.939054 
L 36.73264 126.294888 
L 37.100301 125.650721 
L 37.481486 125.006555 
L 37.875492 124.362389 
L 38.281443 123.718223 
L 38.698276 123.074057 
L 39.124748 122.42989 
L 39.55944 121.785724 
L 40.000776 121.141558 
L 40.44705 120.497392 
L 40.896453 119.853226 
L 41.347108 119.209059 
L 41.797106 118.564893 
L 42.244543 117.920727 
L 42.687553 117.276561 
L 43.124343 116.632395 
L 43.553224 115.988229 
L 43.972633 115.344062 
L 44.381158 114.699896 
L 44.777551 114.05573 
L 45.160739 113.411564 
L 45.52983 112.767398 
L 45.884108 112.123231 
L 46.223034 111.479065 
L 46.546234 110.834899 
L 46.853485 110.190733 
L 47.144703 109.546567 
L 53.655297 109.546567 
L 53.655297 109.546567 
L 53.946515 110.190733 
L 54.253766 110.834899 
L 54.576966 111.479065 
L 54.915892 112.123231 
L 55.27017 112.767398 
L 55.639261 113.411564 
L 56.022449 114.05573 
L 56.418842 114.699896 
L 56.827367 115.344062 
L 57.246776 115.988229 
L 57.675657 116.632395 
L 58.112447 117.276561 
L 58.555457 117.920727 
L 59.002894 118.564893 
L 59.452892 119.209059 
L 59.903547 119.853226 
L 60.35295 120.497392 
L 60.799224 121.141558 
L 61.24056 121.785724 
L 61.675252 122.42989 
L 62.101724 123.074057 
L 62.518557 123.718223 
L 62.924508 124.362389 
L 63.318514 125.006555 
L 63.699699 125.650721 
L 64.06736 126.294888 
L 64.420953 126.939054 
L 64.760054 127.58322 
L 65.084332 128.227386 
L 65.393492 128.871552 
L 65.687229 129.515718 
L 65.965173 130.159885 
L 66.226829 130.804051 
L 66.471529 131.448217 
L 66.698386 132.092383 
L 66.906262 132.736549 
L 67.093741 133.380716 
L 67.259135 134.024882 
L 67.400493 134.669048 
L 67.51564 135.313214 
L 67.60223 135.95738 
L 67.657829 136.601547 
L 67.68 137.245713 
L 67.666414 137.889879 
L 67.614965 138.534045 
L 67.523886 139.178211 
L 67.391872 139.822378 
L 67.218181 140.466544 
L 67.002731 141.11071 
L 66.746174 141.754876 
L 66.44994 142.399042 
L 66.116257 143.043208 
L 65.748141 143.687375 
L 65.349347 144.331541 
L 64.924295 144.975707 
L 64.477967 145.619873 
L 64.015777 146.264039 
L 63.543421 146.908206 
L 63.06672 147.552372 
L 62.59145 148.196538 
L 62.123181 148.840704 
L 61.667114 149.48487 
L 61.227947 150.129037 
L 60.80975 150.773203 
L 60.415874 151.417369 
L 60.048881 152.061535 
L 59.710517 152.705701 
L 59.401702 153.349867 
L 59.122557 153.994034 
L 58.872461 154.6382 
L 58.65012 155.282366 
L 58.453666 155.926532 
L 58.280758 156.570698 
L 58.128702 157.214865 
L 57.994557 157.859031 
L 57.875255 158.503197 
L 57.767694 159.147363 
L 57.668837 159.791529 
L 57.575779 160.435696 
L 57.485817 161.079862 
L 57.396485 161.724028 
L 57.305585 162.368194 
L 57.2112 163.01236 
L 57.111693 163.656527 
L 57.005703 164.300693 
L 56.892122 164.944859 
L 56.770081 165.589025 
L 56.638928 166.233191 
L 56.498208 166.877357 
L 56.347644 167.521524 
L 56.187125 168.16569 
L 56.016698 168.809856 
L 55.836559 169.454022 
L 55.647053 170.098188 
L 55.448675 170.742355 
L 55.242068 171.386521 
L 55.028025 172.030687 
L 54.807486 172.674853 
L 54.581533 173.319019 
L 54.581533 173.319019 
z
" clip-path="url(#pb8ca69671e)" style="fill: none; stroke: #000000; stroke-opacity: 0.3"/>
   </g>
   <g id="FillBetweenPolyCollection_7">
    <path d="M 109.072165 199.998568 
L 106.927835 199.998568 
L 106.851043 199.220729 
L 106.773147 198.442889 
L 106.692904 197.66505 
L 106.60883 196.887211 
L 106.519311 196.109372 
L 106.422726 195.331533 
L 106.317551 194.553694 
L 106.202447 193.775855 
L 106.07631 192.998016 
L 105.938279 192.220177 
L 105.787694 191.442337 
L 105.624027 190.664498 
L 105.446771 189.886659 
L 105.255335 189.10882 
L 105.048933 188.330981 
L 104.826507 187.553142 
L 104.586691 186.775303 
L 104.327839 185.997464 
L 104.048101 185.219624 
L 103.745576 184.441785 
L 103.418503 183.663946 
L 103.065499 182.886107 
L 102.685803 182.108268 
L 102.279519 181.330429 
L 101.847816 180.55259 
L 101.393076 179.774751 
L 100.918962 178.996912 
L 100.430397 178.219072 
L 99.933443 177.441233 
L 99.435085 176.663394 
L 98.94294 175.885555 
L 98.464882 175.107716 
L 98.008632 174.329877 
L 97.581332 173.552038 
L 97.189118 172.774199 
L 96.836741 171.996359 
L 96.527251 171.21852 
L 96.261771 170.440681 
L 96.039375 169.662842 
L 95.857091 168.885003 
L 95.710017 168.107164 
L 95.591564 167.329325 
L 95.493796 166.551486 
L 95.407857 165.773647 
L 95.324461 164.995807 
L 95.234408 164.217968 
L 95.129097 163.440129 
L 95.001011 162.66229 
L 94.84414 161.884451 
L 94.654322 161.106612 
L 94.429487 160.328773 
L 94.169783 159.550934 
L 93.877601 158.773094 
L 93.557484 157.995255 
L 93.215927 157.217416 
L 92.8611 156.439577 
L 92.502484 155.661738 
L 92.150458 154.883899 
L 91.815843 154.10606 
L 91.50943 153.328221 
L 91.241516 152.550382 
L 91.021458 151.772542 
L 90.857277 150.994703 
L 90.755319 150.216864 
L 90.72 149.439025 
L 90.753636 148.661186 
L 90.856379 147.883347 
L 91.026253 147.105508 
L 91.259296 146.327669 
L 91.549803 145.54983 
L 91.890662 144.77199 
L 92.273758 143.994151 
L 92.690438 143.216312 
L 93.132001 142.438473 
L 93.590184 141.660634 
L 94.057615 140.882795 
L 94.528202 140.104956 
L 94.997412 139.327117 
L 95.46244 138.549277 
L 95.922224 137.771438 
L 96.377331 136.993599 
L 96.829696 136.21576 
L 97.282251 135.437921 
L 97.73848 134.660082 
L 98.20193 133.882243 
L 98.675735 133.104404 
L 99.162193 132.326565 
L 99.662435 131.548725 
L 100.176223 130.770886 
L 100.701869 129.993047 
L 101.236309 129.215208 
L 101.775287 128.437369 
L 102.313638 127.65953 
L 102.845634 126.881691 
L 103.365363 126.103852 
L 103.867082 125.326012 
L 104.345551 124.548173 
L 104.79628 123.770334 
L 105.215715 122.992495 
L 110.784285 122.992495 
L 110.784285 122.992495 
L 111.20372 123.770334 
L 111.654449 124.548173 
L 112.132918 125.326012 
L 112.634637 126.103852 
L 113.154366 126.881691 
L 113.686362 127.65953 
L 114.224713 128.437369 
L 114.763691 129.215208 
L 115.298131 129.993047 
L 115.823777 130.770886 
L 116.337565 131.548725 
L 116.837807 132.326565 
L 117.324265 133.104404 
L 117.79807 133.882243 
L 118.26152 134.660082 
L 118.717749 135.437921 
L 119.170304 136.21576 
L 119.622669 136.993599 
L 120.077776 137.771438 
L 120.53756 138.549277 
L 121.002588 139.327117 
L 121.471798 140.104956 
L 121.942385 140.882795 
L 122.409816 141.660634 
L 122.867999 142.438473 
L 123.309562 143.216312 
L 123.726242 143.994151 
L 124.109338 144.77199 
L 124.450197 145.54983 
L 124.740704 146.327669 
L 124.973747 147.105508 
L 125.143621 147.883347 
L 125.246364 148.661186 
L 125.28 149.439025 
L 125.244681 150.216864 
L 125.142723 150.994703 
L 124.978542 151.772542 
L 124.758484 152.550382 
L 124.49057 153.328221 
L 124.184157 154.10606 
L 123.849542 154.883899 
L 123.497516 155.661738 
L 123.1389 156.439577 
L 122.784073 157.217416 
L 122.442516 157.995255 
L 122.122399 158.773094 
L 121.830217 159.550934 
L 121.570513 160.328773 
L 121.345678 161.106612 
L 121.15586 161.884451 
L 120.998989 162.66229 
L 120.870903 163.440129 
L 120.765592 164.217968 
L 120.675539 164.995807 
L 120.592143 165.773647 
L 120.506204 166.551486 
L 120.408436 167.329325 
L 120.289983 168.107164 
L 120.142909 168.885003 
L 119.960625 169.662842 
L 119.738229 170.440681 
L 119.472749 171.21852 
L 119.163259 171.996359 
L 118.810882 172.774199 
L 118.418668 173.552038 
L 117.991368 174.329877 
L 117.535118 175.107716 
L 117.05706 175.885555 
L 116.564915 176.663394 
L 116.066557 177.441233 
L 115.569603 178.219072 
L 115.081038 178.996912 
L 114.606924 179.774751 
L 114.152184 180.55259 
L 113.720481 181.330429 
L 113.314197 182.108268 
L 112.934501 182.886107 
L 112.581497 183.663946 
L 112.254424 184.441785 
L 111.951899 185.219624 
L 111.672161 185.997464 
L 111.413309 186.775303 
L 111.173493 187.553142 
L 110.951067 188.330981 
L 110.744665 189.10882 
L 110.553229 189.886659 
L 110.375973 190.664498 
L 110.212306 191.442337 
L 110.061721 192.220177 
L 109.92369 192.998016 
L 109.797553 193.775855 
L 109.682449 194.553694 
L 109.577274 195.331533 
L 109.480689 196.109372 
L 109.39117 196.887211 
L 109.307096 197.66505 
L 109.226853 198.442889 
L 109.148957 199.220729 
L 109.072165 199.998568 
L 109.072165 199.998568 
z
" clip-path="url(#pb8ca69671e)" style="fill: none; stroke: #000000; stroke-opacity: 0.3"/>
   </g>
   <g id="FillBetweenPolyCollection_8">
    <path d="M 108.439358 217.699998 
L 107.560642 217.699998 
L 107.549124 216.483798 
L 107.541385 215.267599 
L 107.535006 214.0514 
L 107.527006 212.835201 
L 107.514166 211.619002 
L 107.493418 210.402802 
L 107.462236 209.186603 
L 107.418987 207.970404 
L 107.363194 206.754205 
L 107.29566 205.538006 
L 107.218442 204.321806 
L 107.134657 203.105607 
L 107.048131 201.889408 
L 106.96293 200.673209 
L 106.88281 199.457009 
L 106.810657 198.24081 
L 106.747978 197.024611 
L 106.694505 195.808412 
L 106.647986 194.592213 
L 106.604175 193.376013 
L 106.557053 192.159814 
L 106.499242 190.943615 
L 106.422577 189.727416 
L 106.318769 188.511217 
L 106.180072 187.295017 
L 105.999883 186.078818 
L 105.773209 184.862619 
L 105.496957 183.64642 
L 105.170023 182.430221 
L 104.793166 181.214021 
L 104.368711 179.997822 
L 103.900083 178.781623 
L 103.391242 177.565424 
L 102.846079 176.349225 
L 102.267841 175.133025 
L 101.658678 173.916826 
L 101.01941 172.700627 
L 100.3496 171.484428 
L 99.647979 170.268229 
L 98.913244 169.052029 
L 98.145171 167.83583 
L 97.345886 166.619631 
L 96.521113 165.403432 
L 95.681128 164.187233 
L 94.841177 162.971033 
L 94.02117 161.754834 
L 93.244562 160.538635 
L 92.536488 159.322436 
L 91.92137 158.106237 
L 91.420351 156.890037 
L 91.048967 155.673838 
L 90.815455 154.457639 
L 90.72 153.24144 
L 90.755046 152.025241 
L 90.906595 150.809041 
L 91.156237 149.592842 
L 91.483538 148.376643 
L 91.868336 147.160444 
L 92.292612 145.944245 
L 92.741658 144.728045 
L 93.204501 143.511846 
L 93.673666 142.295647 
L 94.144496 141.079448 
L 94.614305 139.863248 
L 95.081614 138.647049 
L 95.545647 137.43085 
L 96.006147 136.214651 
L 96.463454 134.998452 
L 96.918731 133.782252 
L 97.374147 132.566053 
L 97.832894 131.349854 
L 98.298928 130.133655 
L 98.776456 128.917456 
L 99.269213 127.701256 
L 99.779697 126.485057 
L 100.308496 125.268858 
L 100.85385 124.052659 
L 101.41155 122.83646 
L 101.975185 121.62026 
L 102.53669 120.404061 
L 103.087103 119.187862 
L 103.617407 117.971663 
L 104.11931 116.755464 
L 104.585891 115.539264 
L 105.012018 114.323065 
L 105.394545 113.106866 
L 105.732288 111.890667 
L 106.025842 110.674468 
L 106.277287 109.458268 
L 106.489854 108.242069 
L 106.667584 107.02587 
L 106.815017 105.809671 
L 106.936928 104.593472 
L 107.0381 103.377272 
L 107.123132 102.161073 
L 107.196271 100.944874 
L 107.261266 99.728675 
L 107.321243 98.512476 
L 107.378609 97.296276 
L 108.621391 97.296276 
L 108.621391 97.296276 
L 108.678757 98.512476 
L 108.738734 99.728675 
L 108.803729 100.944874 
L 108.876868 102.161073 
L 108.9619 103.377272 
L 109.063072 104.593472 
L 109.184983 105.809671 
L 109.332416 107.02587 
L 109.510146 108.242069 
L 109.722713 109.458268 
L 109.974158 110.674468 
L 110.267712 111.890667 
L 110.605455 113.106866 
L 110.987982 114.323065 
L 111.414109 115.539264 
L 111.88069 116.755464 
L 112.382593 117.971663 
L 112.912897 119.187862 
L 113.46331 120.404061 
L 114.024815 121.62026 
L 114.58845 122.83646 
L 115.14615 124.052659 
L 115.691504 125.268858 
L 116.220303 126.485057 
L 116.730787 127.701256 
L 117.223544 128.917456 
L 117.701072 130.133655 
L 118.167106 131.349854 
L 118.625853 132.566053 
L 119.081269 133.782252 
L 119.536546 134.998452 
L 119.993853 136.214651 
L 120.454353 137.43085 
L 120.918386 138.647049 
L 121.385695 139.863248 
L 121.855504 141.079448 
L 122.326334 142.295647 
L 122.795499 143.511846 
L 123.258342 144.728045 
L 123.707388 145.944245 
L 124.131664 147.160444 
L 124.516462 148.376643 
L 124.843763 149.592842 
L 125.093405 150.809041 
L 125.244954 152.025241 
L 125.28 153.24144 
L 125.184545 154.457639 
L 124.951033 155.673838 
L 124.579649 156.890037 
L 124.07863 158.106237 
L 123.463512 159.322436 
L 122.755438 160.538635 
L 121.97883 161.754834 
L 121.158823 162.971033 
L 120.318872 164.187233 
L 119.478887 165.403432 
L 118.654114 166.619631 
L 117.854829 167.83583 
L 117.086756 169.052029 
L 116.352021 170.268229 
L 115.6504 171.484428 
L 114.98059 172.700627 
L 114.341322 173.916826 
L 113.732159 175.133025 
L 113.153921 176.349225 
L 112.608758 177.565424 
L 112.099917 178.781623 
L 111.631289 179.997822 
L 111.206834 181.214021 
L 110.829977 182.430221 
L 110.503043 183.64642 
L 110.226791 184.862619 
L 110.000117 186.078818 
L 109.819928 187.295017 
L 109.681231 188.511217 
L 109.577423 189.727416 
L 109.500758 190.943615 
L 109.442947 192.159814 
L 109.395825 193.376013 
L 109.352014 194.592213 
L 109.305495 195.808412 
L 109.252022 197.024611 
L 109.189343 198.24081 
L 109.11719 199.457009 
L 109.03707 200.673209 
L 108.951869 201.889408 
L 108.865343 203.105607 
L 108.781558 204.321806 
L 108.70434 205.538006 
L 108.636806 206.754205 
L 108.581013 207.970404 
L 108.537764 209.186603 
L 108.506582 210.402802 
L 108.485834 211.619002 
L 108.472994 212.835201 
L 108.464994 214.0514 
L 108.458615 215.267599 
L 108.450876 216.483798 
L 108.439358 217.699998 
L 108.439358 217.699998 
z
" clip-path="url(#pb8ca69671e)" style="fill: none; stroke: #000000; stroke-opacity: 0.3"/>
   </g>
   <g id="FillBetweenPolyCollection_9">
    <path d="M 109.177902 194.848564 
L 106.822098 194.848564 
L 106.645306 193.755878 
L 106.461624 192.663193 
L 106.269894 191.570508 
L 106.067075 190.477822 
L 105.848367 189.385137 
L 105.607708 188.292452 
L 105.338647 187.199767 
L 105.035462 186.107081 
L 104.69434 185.014396 
L 104.314347 183.921711 
L 103.89793 182.829025 
L 103.450731 181.73634 
L 102.980642 180.643655 
L 102.496201 179.550969 
L 102.004624 178.458284 
L 101.509918 177.365599 
L 101.011535 176.272913 
L 100.503979 175.180228 
L 99.977555 174.087543 
L 99.420217 172.994857 
L 98.820188 171.902172 
L 98.168865 170.809487 
L 97.46342 169.716801 
L 96.708586 168.624116 
L 95.91726 167.531431 
L 95.10977 166.438745 
L 94.311892 165.34606 
L 93.55192 164.253375 
L 92.857221 163.160689 
L 92.250827 162.068004 
L 91.748577 160.975319 
L 91.357283 159.882633 
L 91.074221 158.789948 
L 90.88804 157.697263 
L 90.78096 156.604577 
L 90.731898 155.511892 
L 90.72 154.419207 
L 90.727984 153.326521 
L 90.744736 152.233836 
L 90.766722 151.141151 
L 90.798024 150.048465 
L 90.849019 148.95578 
L 90.934009 147.863095 
L 91.068275 146.77041 
L 91.265136 145.677724 
L 91.533584 144.585039 
L 91.876931 143.492354 
L 92.292676 142.399668 
L 92.773529 141.306983 
L 93.309273 140.214298 
L 93.888975 139.121612 
L 94.502998 138.028927 
L 95.144354 136.936242 
L 95.809127 135.843556 
L 96.495963 134.750871 
L 97.204819 133.658186 
L 97.935368 132.5655 
L 98.685468 131.472815 
L 99.450089 130.38013 
L 100.220907 129.287444 
L 100.986646 128.194759 
L 101.734034 127.102074 
L 102.449168 126.009388 
L 103.119005 124.916703 
L 103.732719 123.824018 
L 104.282726 122.731332 
L 104.765272 121.638647 
L 105.180559 120.545962 
L 105.532431 119.453276 
L 105.827716 118.360591 
L 106.075314 117.267906 
L 106.285137 116.17522 
L 106.467039 115.082535 
L 106.629837 113.98985 
L 106.780549 112.897164 
L 106.923948 111.804479 
L 107.06245 110.711794 
L 107.196358 109.619108 
L 107.324363 108.526423 
L 107.444201 107.433738 
L 107.553327 106.341052 
L 107.649483 105.248367 
L 107.731078 104.155682 
L 107.797352 103.062997 
L 107.848344 101.970311 
L 107.884727 100.877626 
L 107.90758 99.784941 
L 107.918188 98.692255 
L 107.917903 97.59957 
L 107.908115 96.506885 
L 107.890293 95.414199 
L 107.866095 94.321514 
L 107.837459 93.228829 
L 107.806659 92.136143 
L 107.776249 91.043458 
L 107.748909 89.950773 
L 107.727192 88.858087 
L 107.713226 87.765402 
L 107.708431 86.672717 
L 108.291569 86.672717 
L 108.291569 86.672717 
L 108.286774 87.765402 
L 108.272808 88.858087 
L 108.251091 89.950773 
L 108.223751 91.043458 
L 108.193341 92.136143 
L 108.162541 93.228829 
L 108.133905 94.321514 
L 108.109707 95.414199 
L 108.091885 96.506885 
L 108.082097 97.59957 
L 108.081812 98.692255 
L 108.09242 99.784941 
L 108.115273 100.877626 
L 108.151656 101.970311 
L 108.202648 103.062997 
L 108.268922 104.155682 
L 108.350517 105.248367 
L 108.446673 106.341052 
L 108.555799 107.433738 
L 108.675637 108.526423 
L 108.803642 109.619108 
L 108.93755 110.711794 
L 109.076052 111.804479 
L 109.219451 112.897164 
L 109.370163 113.98985 
L 109.532961 115.082535 
L 109.714863 116.17522 
L 109.924686 117.267906 
L 110.172284 118.360591 
L 110.467569 119.453276 
L 110.819441 120.545962 
L 111.234728 121.638647 
L 111.717274 122.731332 
L 112.267281 123.824018 
L 112.880995 124.916703 
L 113.550832 126.009388 
L 114.265966 127.102074 
L 115.013354 128.194759 
L 115.779093 129.287444 
L 116.549911 130.38013 
L 117.314532 131.472815 
L 118.064632 132.5655 
L 118.795181 133.658186 
L 119.504037 134.750871 
L 120.190873 135.843556 
L 120.855646 136.936242 
L 121.497002 138.028927 
L 122.111025 139.121612 
L 122.690727 140.214298 
L 123.226471 141.306983 
L 123.707324 142.399668 
L 124.123069 143.492354 
L 124.466416 144.585039 
L 124.734864 145.677724 
L 124.931725 146.77041 
L 125.065991 147.863095 
L 125.150981 148.95578 
L 125.201976 150.048465 
L 125.233278 151.141151 
L 125.255264 152.233836 
L 125.272016 153.326521 
L 125.28 154.419207 
L 125.268102 155.511892 
L 125.21904 156.604577 
L 125.11196 157.697263 
L 124.925779 158.789948 
L 124.642717 159.882633 
L 124.251423 160.975319 
L 123.749173 162.068004 
L 123.142779 163.160689 
L 122.44808 164.253375 
L 121.688108 165.34606 
L 120.89023 166.438745 
L 120.08274 167.531431 
L 119.291414 168.624116 
L 118.53658 169.716801 
L 117.831135 170.809487 
L 117.179812 171.902172 
L 116.579783 172.994857 
L 116.022445 174.087543 
L 115.496021 175.180228 
L 114.988465 176.272913 
L 114.490082 177.365599 
L 113.995376 178.458284 
L 113.503799 179.550969 
L 113.019358 180.643655 
L 112.549269 181.73634 
L 112.10207 182.829025 
L 111.685653 183.921711 
L 111.30566 185.014396 
L 110.964538 186.107081 
L 110.661353 187.199767 
L 110.392292 188.292452 
L 110.151633 189.385137 
L 109.932925 190.477822 
L 109.730106 191.570508 
L 109.538376 192.663193 
L 109.354694 193.755878 
L 109.177902 194.848564 
L 109.177902 194.848564 
z
" clip-path="url(#pb8ca69671e)" style="fill: none; stroke: #000000; stroke-opacity: 0.3"/>
   </g>
   <g id="FillBetweenPolyCollection_10">
    <path d="M 109.118485 223.534339 
L 106.881515 223.534339 
L 106.832842 222.519139 
L 106.789255 221.503939 
L 106.749936 220.488738 
L 106.713543 219.473538 
L 106.678227 218.458337 
L 106.641676 217.443137 
L 106.601203 216.427936 
L 106.553853 215.412736 
L 106.496546 214.397536 
L 106.426234 213.382335 
L 106.340062 212.367135 
L 106.23554 211.351934 
L 106.110686 210.336734 
L 105.964152 209.321534 
L 105.795314 208.306333 
L 105.604314 207.291133 
L 105.39205 206.275932 
L 105.160125 205.260732 
L 104.910736 204.245531 
L 104.646527 203.230331 
L 104.370414 202.215131 
L 104.085386 201.19993 
L 103.794312 200.18473 
L 103.499763 199.169529 
L 103.20386 198.154329 
L 102.908172 197.139129 
L 102.613659 196.123928 
L 102.320676 195.108728 
L 102.029024 194.093527 
L 101.738051 193.078327 
L 101.446785 192.063127 
L 101.154084 191.047926 
L 100.858793 190.032726 
L 100.559885 189.017525 
L 100.256573 188.002325 
L 99.948387 186.987124 
L 99.635203 185.971924 
L 99.317233 184.956724 
L 98.99497 183.941523 
L 98.669102 182.926323 
L 98.340412 181.911122 
L 98.009665 180.895922 
L 97.677511 179.880722 
L 97.3444 178.865521 
L 97.010542 177.850321 
L 96.675889 176.83512 
L 96.34017 175.81992 
L 96.002956 174.804719 
L 95.663758 173.789519 
L 95.322151 172.774319 
L 94.977909 171.759118 
L 94.63113 170.743918 
L 94.282365 169.728717 
L 93.932708 168.713517 
L 93.583864 167.698317 
L 93.238172 166.683116 
L 92.898591 165.667916 
L 92.56864 164.652715 
L 92.252306 163.637515 
L 91.953911 162.622315 
L 91.677967 161.607114 
L 91.429007 160.591914 
L 91.211424 159.576713 
L 91.029309 158.561513 
L 90.886317 157.546312 
L 90.785557 156.531112 
L 90.729513 155.515912 
L 90.72 154.500711 
L 90.758154 153.485511 
L 90.84445 152.47031 
L 90.978739 151.45511 
L 91.160299 150.43991 
L 91.38789 149.424709 
L 91.659803 148.409509 
L 91.973901 147.394308 
L 92.327645 146.379108 
L 92.718115 145.363908 
L 93.142017 144.348707 
L 93.595699 143.333507 
L 94.075171 142.318306 
L 94.576146 141.303106 
L 95.094108 140.287905 
L 95.6244 139.272705 
L 96.162351 138.257505 
L 96.703415 137.242304 
L 97.243329 136.227104 
L 97.778266 135.211903 
L 98.30497 134.196703 
L 98.820867 133.181503 
L 99.324123 132.166302 
L 99.813657 131.151102 
L 100.289094 130.135901 
L 100.750664 129.120701 
L 101.199061 128.1055 
L 101.635264 127.0903 
L 102.060348 126.0751 
L 102.475299 125.059899 
L 102.880847 124.044699 
L 103.27734 123.029498 
L 112.72266 123.029498 
L 112.72266 123.029498 
L 113.119153 124.044699 
L 113.524701 125.059899 
L 113.939652 126.0751 
L 114.364736 127.0903 
L 114.800939 128.1055 
L 115.249336 129.120701 
L 115.710906 130.135901 
L 116.186343 131.151102 
L 116.675877 132.166302 
L 117.179133 133.181503 
L 117.69503 134.196703 
L 118.221734 135.211903 
L 118.756671 136.227104 
L 119.296585 137.242304 
L 119.837649 138.257505 
L 120.3756 139.272705 
L 120.905892 140.287905 
L 121.423854 141.303106 
L 121.924829 142.318306 
L 122.404301 143.333507 
L 122.857983 144.348707 
L 123.281885 145.363908 
L 123.672355 146.379108 
L 124.026099 147.394308 
L 124.340197 148.409509 
L 124.61211 149.424709 
L 124.839701 150.43991 
L 125.021261 151.45511 
L 125.15555 152.47031 
L 125.241846 153.485511 
L 125.28 154.500711 
L 125.270487 155.515912 
L 125.214443 156.531112 
L 125.113683 157.546312 
L 124.970691 158.561513 
L 124.788576 159.576713 
L 124.570993 160.591914 
L 124.322033 161.607114 
L 124.046089 162.622315 
L 123.747694 163.637515 
L 123.43136 164.652715 
L 123.101409 165.667916 
L 122.761828 166.683116 
L 122.416136 167.698317 
L 122.067292 168.713517 
L 121.717635 169.728717 
L 121.36887 170.743918 
L 121.022091 171.759118 
L 120.677849 172.774319 
L 120.336242 173.789519 
L 119.997044 174.804719 
L 119.65983 175.81992 
L 119.324111 176.83512 
L 118.989458 177.850321 
L 118.6556 178.865521 
L 118.322489 179.880722 
L 117.990335 180.895922 
L 117.659588 181.911122 
L 117.330898 182.926323 
L 117.00503 183.941523 
L 116.682767 184.956724 
L 116.364797 185.971924 
L 116.051613 186.987124 
L 115.743427 188.002325 
L 115.440115 189.017525 
L 115.141207 190.032726 
L 114.845916 191.047926 
L 114.553215 192.063127 
L 114.261949 193.078327 
L 113.970976 194.093527 
L 113.679324 195.108728 
L 113.386341 196.123928 
L 113.091828 197.139129 
L 112.79614 198.154329 
L 112.500237 199.169529 
L 112.205688 200.18473 
L 111.914614 201.19993 
L 111.629586 202.215131 
L 111.353473 203.230331 
L 111.089264 204.245531 
L 110.839875 205.260732 
L 110.60795 206.275932 
L 110.395686 207.291133 
L 110.204686 208.306333 
L 110.035848 209.321534 
L 109.889314 210.336734 
L 109.76446 211.351934 
L 109.659938 212.367135 
L 109.573766 213.382335 
L 109.503454 214.397536 
L 109.446147 215.412736 
L 109.398797 216.427936 
L 109.358324 217.443137 
L 109.321773 218.458337 
L 109.286457 219.473538 
L 109.250064 220.488738 
L 109.210745 221.503939 
L 109.167158 222.519139 
L 109.118485 223.534339 
L 109.118485 223.534339 
z
" clip-path="url(#pb8ca69671e)" style="fill: none; stroke: #000000; stroke-opacity: 0.3"/>
   </g>
   <g id="FillBetweenPolyCollection_11">
    <path d="M 108.317149 241.791797 
L 107.682851 241.791797 
L 107.684057 239.845932 
L 107.694802 237.900067 
L 107.711517 235.954202 
L 107.729544 234.008336 
L 107.744021 232.062471 
L 107.75079 230.116606 
L 107.747099 228.170741 
L 107.731935 226.224876 
L 107.70589 224.279011 
L 107.670587 222.333145 
L 107.627818 220.38728 
L 107.578616 218.441415 
L 107.522529 216.49555 
L 107.457338 214.549685 
L 107.379326 212.603819 
L 107.28408 210.657954 
L 107.167636 208.712089 
L 107.027649 206.766224 
L 106.864255 204.820359 
L 106.680344 202.874494 
L 106.481096 200.928628 
L 106.272777 198.982763 
L 106.060975 197.036898 
L 105.848524 195.091033 
L 105.633485 193.145168 
L 105.40758 191.199302 
L 105.155475 189.253437 
L 104.855294 187.307572 
L 104.480607 185.361707 
L 104.00388 183.415842 
L 103.401052 181.469977 
L 102.656489 179.524111 
L 101.767264 177.578246 
L 100.745642 175.632381 
L 99.618907 173.686516 
L 98.426285 171.740651 
L 97.213534 169.794786 
L 96.02652 167.84892 
L 94.9055 165.903055 
L 93.881691 163.95719 
L 92.976933 162.011325 
L 92.206183 160.06546 
L 91.581498 158.119594 
L 91.115598 156.173729 
L 90.8233 154.227864 
L 90.72 152.281999 
L 90.817696 150.336134 
L 91.120144 148.390269 
L 91.619201 146.444403 
L 92.293985 144.498538 
L 93.113366 142.552673 
L 94.041003 140.606808 
L 95.041183 138.660943 
L 96.083513 136.715077 
L 97.145103 134.769212 
L 98.209925 132.823347 
L 99.266092 130.877482 
L 100.302464 128.931617 
L 101.306005 126.985752 
L 102.260876 125.039886 
L 103.14945 123.094021 
L 103.954765 121.148156 
L 104.663479 119.202291 
L 105.268325 117.256426 
L 105.769339 115.310561 
L 106.173538 113.364695 
L 106.493218 111.41883 
L 106.743419 109.472965 
L 106.939239 107.5271 
L 107.093669 105.581235 
L 107.216393 103.635369 
L 107.313662 101.689504 
L 107.389041 99.743639 
L 107.444619 97.797774 
L 107.482205 95.851909 
L 107.50415 93.906044 
L 107.513641 91.960178 
L 107.514509 90.014313 
L 107.510784 88.068448 
L 107.506221 86.122583 
L 107.503986 84.176718 
L 107.506525 82.230853 
L 107.515559 80.284987 
L 107.532085 78.339122 
L 107.556306 76.393257 
L 107.587482 74.447392 
L 107.623812 72.501527 
L 107.662453 70.555661 
L 107.699776 68.609796 
L 107.731876 66.663931 
L 107.755251 64.718066 
L 107.767506 62.772201 
L 107.767916 60.826336 
L 107.757698 58.88047 
L 107.739908 56.934605 
L 107.718968 54.98874 
L 107.699885 53.042875 
L 107.687351 51.09701 
L 107.68488 49.151144 
L 108.31512 49.151144 
L 108.31512 49.151144 
L 108.312649 51.09701 
L 108.300115 53.042875 
L 108.281032 54.98874 
L 108.260092 56.934605 
L 108.242302 58.88047 
L 108.232084 60.826336 
L 108.232494 62.772201 
L 108.244749 64.718066 
L 108.268124 66.663931 
L 108.300224 68.609796 
L 108.337547 70.555661 
L 108.376188 72.501527 
L 108.412518 74.447392 
L 108.443694 76.393257 
L 108.467915 78.339122 
L 108.484441 80.284987 
L 108.493475 82.230853 
L 108.496014 84.176718 
L 108.493779 86.122583 
L 108.489216 88.068448 
L 108.485491 90.014313 
L 108.486359 91.960178 
L 108.49585 93.906044 
L 108.517795 95.851909 
L 108.555381 97.797774 
L 108.610959 99.743639 
L 108.686338 101.689504 
L 108.783607 103.635369 
L 108.906331 105.581235 
L 109.060761 107.5271 
L 109.256581 109.472965 
L 109.506782 111.41883 
L 109.826462 113.364695 
L 110.230661 115.310561 
L 110.731675 117.256426 
L 111.336521 119.202291 
L 112.045235 121.148156 
L 112.85055 123.094021 
L 113.739124 125.039886 
L 114.693995 126.985752 
L 115.697536 128.931617 
L 116.733908 130.877482 
L 117.790075 132.823347 
L 118.854897 134.769212 
L 119.916487 136.715077 
L 120.958817 138.660943 
L 121.958997 140.606808 
L 122.886634 142.552673 
L 123.706015 144.498538 
L 124.380799 146.444403 
L 124.879856 148.390269 
L 125.182304 150.336134 
L 125.28 152.281999 
L 125.1767 154.227864 
L 124.884402 156.173729 
L 124.418502 158.119594 
L 123.793817 160.06546 
L 123.023067 162.011325 
L 122.118309 163.95719 
L 121.0945 165.903055 
L 119.97348 167.84892 
L 118.786466 169.794786 
L 117.573715 171.740651 
L 116.381093 173.686516 
L 115.254358 175.632381 
L 114.232736 177.578246 
L 113.343511 179.524111 
L 112.598948 181.469977 
L 111.99612 183.415842 
L 111.519393 185.361707 
L 111.144706 187.307572 
L 110.844525 189.253437 
L 110.59242 191.199302 
L 110.366515 193.145168 
L 110.151476 195.091033 
L 109.939025 197.036898 
L 109.727223 198.982763 
L 109.518904 200.928628 
L 109.319656 202.874494 
L 109.135745 204.820359 
L 108.972351 206.766224 
L 108.832364 208.712089 
L 108.71592 210.657954 
L 108.620674 212.603819 
L 108.542662 214.549685 
L 108.477471 216.49555 
L 108.421384 218.441415 
L 108.372182 220.38728 
L 108.329413 222.333145 
L 108.29411 224.279011 
L 108.268065 226.224876 
L 108.252901 228.170741 
L 108.24921 230.116606 
L 108.255979 232.062471 
L 108.270456 234.008336 
L 108.288483 235.954202 
L 108.305198 237.900067 
L 108.315943 239.845932 
L 108.317149 241.791797 
L 108.317149 241.791797 
z
" clip-path="url(#pb8ca69671e)" style="fill: none; stroke: #000000; stroke-opacity: 0.3"/>
   </g>
   <g id="FillBetweenPolyCollection_12">
    <path d="M 109.56347 215.993073 
L 106.43653 215.993073 
L 106.27384 214.82099 
L 106.096386 213.648908 
L 105.902587 212.476825 
L 105.690921 211.304743 
L 105.460012 210.13266 
L 105.208703 208.960578 
L 104.936117 207.788495 
L 104.641707 206.616413 
L 104.32527 205.44433 
L 103.986947 204.272248 
L 103.627203 203.100165 
L 103.246789 201.928082 
L 102.846688 200.756 
L 102.428064 199.583917 
L 101.992214 198.411835 
L 101.540529 197.239752 
L 101.07446 196.06767 
L 100.595514 194.895587 
L 100.10525 193.723505 
L 99.605297 192.551422 
L 99.097372 191.37934 
L 98.583306 190.207257 
L 98.065061 189.035175 
L 97.544743 187.863092 
L 97.024607 186.69101 
L 96.50705 185.518927 
L 95.994588 184.346845 
L 95.489845 183.174762 
L 94.995519 182.00268 
L 94.514364 180.830597 
L 94.049176 179.658515 
L 93.602777 178.486432 
L 93.178016 177.31435 
L 92.777766 176.142267 
L 92.40492 174.970185 
L 92.06238 173.798102 
L 91.753026 172.62602 
L 91.479668 171.453937 
L 91.244968 170.281855 
L 91.051342 169.109772 
L 90.900832 167.93769 
L 90.794976 166.765607 
L 90.73466 165.593525 
L 90.72 164.421442 
L 90.750235 163.249359 
L 90.823671 162.077277 
L 90.937678 160.905194 
L 91.088738 159.733112 
L 91.27257 158.561029 
L 91.484297 157.388947 
L 91.718671 156.216864 
L 91.970323 155.044782 
L 92.234033 153.872699 
L 92.504986 152.700617 
L 92.779004 151.528534 
L 93.052739 150.356452 
L 93.323803 149.184369 
L 93.590843 148.012287 
L 93.853536 146.840204 
L 94.11254 145.668122 
L 94.369375 144.496039 
L 94.626271 143.323957 
L 94.885978 142.151874 
L 95.151567 140.979792 
L 95.426223 139.807709 
L 95.71305 138.635627 
L 96.014894 137.463544 
L 96.334186 136.291462 
L 96.672822 135.119379 
L 97.032067 133.947297 
L 97.412492 132.775214 
L 97.813942 131.603132 
L 98.235532 130.431049 
L 98.675664 129.258967 
L 99.132072 128.086884 
L 99.601885 126.914802 
L 100.081707 125.742719 
L 100.567716 124.570636 
L 101.055772 123.398554 
L 101.541541 122.226471 
L 102.020618 121.054389 
L 102.48867 119.882306 
L 102.941559 118.710224 
L 103.375479 117.538141 
L 103.787074 116.366059 
L 104.173543 115.193976 
L 104.532726 114.021894 
L 104.863169 112.849811 
L 105.164151 111.677729 
L 105.435693 110.505646 
L 105.678524 109.333564 
L 105.894017 108.161481 
L 106.084104 106.989399 
L 106.251158 105.817316 
L 106.397861 104.645234 
L 106.527067 103.473151 
L 106.641656 102.301069 
L 106.744405 101.128986 
L 106.837868 99.956904 
L 109.162132 99.956904 
L 109.162132 99.956904 
L 109.255595 101.128986 
L 109.358344 102.301069 
L 109.472933 103.473151 
L 109.602139 104.645234 
L 109.748842 105.817316 
L 109.915896 106.989399 
L 110.105983 108.161481 
L 110.321476 109.333564 
L 110.564307 110.505646 
L 110.835849 111.677729 
L 111.136831 112.849811 
L 111.467274 114.021894 
L 111.826457 115.193976 
L 112.212926 116.366059 
L 112.624521 117.538141 
L 113.058441 118.710224 
L 113.51133 119.882306 
L 113.979382 121.054389 
L 114.458459 122.226471 
L 114.944228 123.398554 
L 115.432284 124.570636 
L 115.918293 125.742719 
L 116.398115 126.914802 
L 116.867928 128.086884 
L 117.324336 129.258967 
L 117.764468 130.431049 
L 118.186058 131.603132 
L 118.587508 132.775214 
L 118.967933 133.947297 
L 119.327178 135.119379 
L 119.665814 136.291462 
L 119.985106 137.463544 
L 120.28695 138.635627 
L 120.573777 139.807709 
L 120.848433 140.979792 
L 121.114022 142.151874 
L 121.373729 143.323957 
L 121.630625 144.496039 
L 121.88746 145.668122 
L 122.146464 146.840204 
L 122.409157 148.012287 
L 122.676197 149.184369 
L 122.947261 150.356452 
L 123.220996 151.528534 
L 123.495014 152.700617 
L 123.765967 153.872699 
L 124.029677 155.044782 
L 124.281329 156.216864 
L 124.515703 157.388947 
L 124.72743 158.561029 
L 124.911262 159.733112 
L 125.062322 160.905194 
L 125.176329 162.077277 
L 125.249765 163.249359 
L 125.28 164.421442 
L 125.26534 165.593525 
L 125.205024 166.765607 
L 125.099168 167.93769 
L 124.948658 169.109772 
L 124.755032 170.281855 
L 124.520332 171.453937 
L 124.246974 172.62602 
L 123.93762 173.798102 
L 123.59508 174.970185 
L 123.222234 176.142267 
L 122.821984 177.31435 
L 122.397223 178.486432 
L 121.950824 179.658515 
L 121.485636 180.830597 
L 121.004481 182.00268 
L 120.510155 183.174762 
L 120.005412 184.346845 
L 119.49295 185.518927 
L 118.975393 186.69101 
L 118.455257 187.863092 
L 117.934939 189.035175 
L 117.416694 190.207257 
L 116.902628 191.37934 
L 116.394703 192.551422 
L 115.89475 193.723505 
L 115.404486 194.895587 
L 114.92554 196.06767 
L 114.459471 197.239752 
L 114.007786 198.411835 
L 113.571936 199.583917 
L 113.153312 200.756 
L 112.753211 201.928082 
L 112.372797 203.100165 
L 112.013053 204.272248 
L 111.67473 205.44433 
L 111.358293 206.616413 
L 111.063883 207.788495 
L 110.791297 208.960578 
L 110.539988 210.13266 
L 110.309079 211.304743 
L 110.097413 212.476825 
L 109.903614 213.648908 
L 109.72616 214.82099 
L 109.56347 215.993073 
L 109.56347 215.993073 
z
" clip-path="url(#pb8ca69671e)" style="fill: none; stroke: #000000; stroke-opacity: 0.3"/>
   </g>
   <g id="FillBetweenPolyCollection_13">
    <path d="M 109.33598 218.055253 
L 106.66402 218.055253 
L 106.600678 217.096364 
L 106.535362 216.137474 
L 106.46671 215.178585 
L 106.393141 214.219696 
L 106.312891 213.260806 
L 106.224062 212.301917 
L 106.124668 211.343028 
L 106.0127 210.384138 
L 105.886182 209.425249 
L 105.743242 208.46636 
L 105.58217 207.50747 
L 105.401483 206.548581 
L 105.199983 205.589692 
L 104.976801 204.630802 
L 104.731445 203.671913 
L 104.463824 202.713024 
L 104.174272 201.754135 
L 103.863548 200.795245 
L 103.532829 199.836356 
L 103.183684 198.877467 
L 102.818037 197.918577 
L 102.438112 196.959688 
L 102.046375 196.000799 
L 101.645451 195.041909 
L 101.238057 194.08302 
L 100.826908 193.124131 
L 100.414645 192.165241 
L 100.003752 191.206352 
L 99.596492 190.247463 
L 99.19485 189.288574 
L 98.800489 188.329684 
L 98.414724 187.370795 
L 98.038509 186.411906 
L 97.672445 185.453016 
L 97.316795 184.494127 
L 96.971517 183.535238 
L 96.6363 182.576348 
L 96.310614 181.617459 
L 95.993761 180.65857 
L 95.684925 179.69968 
L 95.383224 178.740791 
L 95.087765 177.781902 
L 94.79769 176.823013 
L 94.512227 175.864123 
L 94.230732 174.905234 
L 93.95274 173.946345 
L 93.678004 172.987455 
L 93.406539 172.028566 
L 93.138662 171.069677 
L 92.875025 170.110787 
L 92.616645 169.151898 
L 92.364917 168.193009 
L 92.121618 167.234119 
L 91.888891 166.27523 
L 91.669207 165.316341 
L 91.46531 164.357451 
L 91.280126 163.398562 
L 91.116668 162.439673 
L 90.977904 161.480784 
L 90.866627 160.521894 
L 90.785309 159.563005 
L 90.73596 158.604116 
L 90.72 157.645226 
L 90.738152 156.686337 
L 90.790366 155.727448 
L 90.875777 154.768558 
L 90.992717 153.809669 
L 91.138758 152.85078 
L 91.310817 151.89189 
L 91.505291 150.933001 
L 91.718235 149.974112 
L 91.945562 149.015223 
L 92.183258 148.056333 
L 92.427597 147.097444 
L 92.675344 146.138555 
L 92.923929 145.179665 
L 93.171587 144.220776 
L 93.417447 143.261887 
L 93.661571 142.302997 
L 93.904935 141.344108 
L 94.149354 140.385219 
L 94.397363 139.426329 
L 94.652045 138.46744 
L 94.916838 137.508551 
L 95.195315 136.549662 
L 95.490958 135.590772 
L 95.80694 134.631883 
L 96.145927 133.672994 
L 96.509905 132.714104 
L 96.90005 131.755215 
L 97.316641 130.796326 
L 97.759017 129.837436 
L 98.225583 128.878547 
L 98.713867 127.919658 
L 99.220605 126.960768 
L 99.74187 126.001879 
L 100.273221 125.04299 
L 100.809866 124.0841 
L 101.346836 123.125211 
L 114.653164 123.125211 
L 114.653164 123.125211 
L 115.190134 124.0841 
L 115.726779 125.04299 
L 116.25813 126.001879 
L 116.779395 126.960768 
L 117.286133 127.919658 
L 117.774417 128.878547 
L 118.240983 129.837436 
L 118.683359 130.796326 
L 119.09995 131.755215 
L 119.490095 132.714104 
L 119.854073 133.672994 
L 120.19306 134.631883 
L 120.509042 135.590772 
L 120.804685 136.549662 
L 121.083162 137.508551 
L 121.347955 138.46744 
L 121.602637 139.426329 
L 121.850646 140.385219 
L 122.095065 141.344108 
L 122.338429 142.302997 
L 122.582553 143.261887 
L 122.828413 144.220776 
L 123.076071 145.179665 
L 123.324656 146.138555 
L 123.572403 147.097444 
L 123.816742 148.056333 
L 124.054438 149.015223 
L 124.281765 149.974112 
L 124.494709 150.933001 
L 124.689183 151.89189 
L 124.861242 152.85078 
L 125.007283 153.809669 
L 125.124223 154.768558 
L 125.209634 155.727448 
L 125.261848 156.686337 
L 125.28 157.645226 
L 125.26404 158.604116 
L 125.214691 159.563005 
L 125.133373 160.521894 
L 125.022096 161.480784 
L 124.883332 162.439673 
L 124.719874 163.398562 
L 124.53469 164.357451 
L 124.330793 165.316341 
L 124.111109 166.27523 
L 123.878382 167.234119 
L 123.635083 168.193009 
L 123.383355 169.151898 
L 123.124975 170.110787 
L 122.861338 171.069677 
L 122.593461 172.028566 
L 122.321996 172.987455 
L 122.04726 173.946345 
L 121.769268 174.905234 
L 121.487773 175.864123 
L 121.20231 176.823013 
L 120.912235 177.781902 
L 120.616776 178.740791 
L 120.315075 179.69968 
L 120.006239 180.65857 
L 119.689386 181.617459 
L 119.3637 182.576348 
L 119.028483 183.535238 
L 118.683205 184.494127 
L 118.327555 185.453016 
L 117.961491 186.411906 
L 117.585276 187.370795 
L 117.199511 188.329684 
L 116.80515 189.288574 
L 116.403508 190.247463 
L 115.996248 191.206352 
L 115.585355 192.165241 
L 115.173092 193.124131 
L 114.761943 194.08302 
L 114.354549 195.041909 
L 113.953625 196.000799 
L 113.561888 196.959688 
L 113.181963 197.918577 
L 112.816316 198.877467 
L 112.467171 199.836356 
L 112.136452 200.795245 
L 111.825728 201.754135 
L 111.536176 202.713024 
L 111.268555 203.671913 
L 111.023199 204.630802 
L 110.800017 205.589692 
L 110.598517 206.548581 
L 110.41783 207.50747 
L 110.256758 208.46636 
L 110.113818 209.425249 
L 109.9873 210.384138 
L 109.875332 211.343028 
L 109.775938 212.301917 
L 109.687109 213.260806 
L 109.606859 214.219696 
L 109.53329 215.178585 
L 109.464638 216.137474 
L 109.399322 217.096364 
L 109.33598 218.055253 
L 109.33598 218.055253 
z
" clip-path="url(#pb8ca69671e)" style="fill: none; stroke: #000000; stroke-opacity: 0.3"/>
   </g>
   <g id="matplotlib.axis_1">
    <g id="xtick_1">
     <g id="line2d_1">
      <defs>
       <path id="m4ba6dac1df" d="M 0 0 
L 0 3.5 
" style="stroke: #000000; stroke-width: 0.8"/>
      </defs>
      <g>
       <use xlink:href="#m4ba6dac1df" x="50.4" y="291.6" style="stroke: #000000; stroke-width: 0.8"/>
      </g>
     </g>
     <g id="text_1">
      <text style="font-size: 10px; font-family: 'DejaVu Sans', 'Bitstream Vera Sans', 'Computer Modern Sans Serif', 'Lucida Grande', 'Verdana', 'Geneva', 'Lucid', 'Arial', 'Helvetica', 'Avant Garde', sans-serif; text-anchor: middle" x="50.4" y="306.198438" transform="rotate(-0 50.4 306.198438)">0.3</text>
     </g>
    </g>
    <g id="xtick_2">
     <g id="line2d_2">
      <g>
       <use xlink:href="#m4ba6dac1df" x="108" y="291.6" style="stroke: #000000; stroke-width: 0.8"/>
      </g>
     </g>
     <g id="text_2">
      <text style="font-size: 10px; font-family: 'DejaVu Sans', 'Bitstream Vera Sans', 'Computer Modern Sans Serif', 'Lucida Grande', 'Verdana', 'Geneva', 'Lucid', 'Arial', 'Helvetica', 'Avant Garde', sans-serif; text-anchor: middle" x="108" y="306.198438" transform="rotate(-0 108 306.198438)">0.6</text>
     </g>
    </g>
   </g>
   <g id="matplotlib.axis_2">
    <g id="ytick_1">
     <g id="line2d_3">
      <defs>
       <path id="m4f4454c35d" d="M 0 0 
L -3.5 0 
" style="stroke: #000000; stroke-width: 0.8"/>
      </defs>
      <g>
       <use xlink:href="#m4f4454c35d" x="21.6" y="291.6" style="stroke: #000000; stroke-width: 0.8"/>
      </g>
     </g>
    </g>
    <g id="ytick_2">
     <g id="line2d_4">
      <g>
       <use xlink:href="#m4f4454c35d" x="21.6" y="199.8" style="stroke: #000000; stroke-width: 0.8"/>
      </g>
     </g>
    </g>
    <g id="ytick_3">
     <g id="line2d_5">
      <g>
       <use xlink:href="#m4f4454c35d" x="21.6" y="108" style="stroke: #000000; stroke-width: 0.8"/>
      </g>
     </g>
    </g>
    <g id="ytick_4">
     <g id="line2d_6">
      <g>
       <use xlink:href="#m4f4454c35d" x="21.6" y="16.2" style="stroke: #000000; stroke-width: 0.8"/>
      </g>
     </g>
    </g>
   </g>
   <g id="line2d_7">
    <path d="M 50.4 269.568 
L 50.4 264.06 
" clip-path="url(#pb8ca69671e)" style="fill: none; stroke: #000000; stroke-linecap: square"/>
   </g>
   <g id="line2d_8">
    <path d="M 50.4 269.568 
L 108 269.568 
" clip-path="url(#pb8ca69671e)" style="fill: none; stroke: #000000; stroke-linecap: square"/>
   </g>
   <g id="line2d_9">
    <path d="M 108 269.568 
L 108 264.06 
" clip-path="url(#pb8ca69671e)" style="fill: none; stroke: #000000; stroke-linecap: square"/>
   </g>
   <g id="patch_3">
    <path d="M 21.6 291.6 
L 21.6 16.2 
" style="fill: none; stroke: #000000; stroke-width: 0.8; stroke-linejoin: miter; stroke-linecap: square"/>
   </g>
   <g id="patch_4">
    <path d="M 136.8 291.6 
L 136.8 16.2 
" style="fill: none; stroke: #000000; stroke-width: 0.8; stroke-linejoin: miter; stroke-linecap: square"/>
   </g>
   <g id="patch_5">
    <path d="M 21.6 291.6 
L 136.8 291.6 
" style="fill: none; stroke: #000000; stroke-width: 0.8; stroke-linejoin: miter; stroke-linecap: square"/>
   </g>
   <g id="patch_6">
    <path d="M 21.6 16.2 
L 136.8 16.2 
" style="fill: none; stroke: #000000; stroke-width: 0.8; stroke-linejoin: miter; stroke-linecap: square"/>
   </g>
   <g id="text_3">
    <text style="font-weight: 700; font-size: 12px; font-family: 'DejaVu Sans', 'Bitstream Vera Sans', 'Computer Modern Sans Serif', 'Lucida Grande', 'Verdana', 'Geneva', 'Lucid', 'Arial', 'Helvetica', 'Avant Garde', sans-serif; text-anchor: middle" x="50.4" y="289.104375" transform="rotate(-0 50.4 289.104375)">#14</text>
   </g>
   <g id="text_4">
    <text style="font-weight: 700; font-size: 12px; font-family: 'DejaVu Sans', 'Bitstream Vera Sans', 'Computer Modern Sans Serif', 'Lucida Grande', 'Verdana', 'Geneva', 'Lucid', 'Arial', 'Helvetica', 'Avant Garde', sans-serif; text-anchor: middle" x="108" y="289.104375" transform="rotate(-0 108 289.104375)">#28</text>
   </g>
   <g id="text_5">
    <text style="font-size: 12px; font-family: 'DejaVu Sans', 'Bitstream Vera Sans', 'Computer Modern Sans Serif', 'Lucida Grande', 'Verdana', 'Geneva', 'Lucid', 'Arial', 'Helvetica', 'Avant Garde', sans-serif; text-anchor: middle" x="79.2" y="268.449375" transform="rotate(-0 79.2 268.449375)">***</text>
   </g>
   <g id="line2d_10">
    <path d="M 21.6 142.689472 
L 136.8 142.689472 
" clip-path="url(#pb8ca69671e)" style="fill: none; stroke-dasharray: 3.7,1.6; stroke-dashoffset: 0; stroke: #808080; stroke-opacity: 0.7"/>
   </g>
   <g id="line2d_11">
    <path d="M 21.6 155.291927 
L 136.8 155.291927 
" clip-path="url(#pb8ca69671e)" style="fill: none; stroke-dasharray: 3.7,1.6; stroke-dashoffset: 0; stroke: #808080; stroke-opacity: 0.7"/>
   </g>
   <g id="LineCollection_1">
    <path d="M 50.4 147.091871 
L 50.4 138.287073 
" clip-path="url(#pb8ca69671e)" style="fill: none; stroke: #000000; stroke-width: 2"/>
   </g>
   <g id="line2d_12">
    <defs>
     <path id="mb177e0a6fe" d="M 5 0 
L -5 -0 
" style="stroke: #000000; stroke-width: 2"/>
    </defs>
    <g clip-path="url(#pb8ca69671e)">
     <use xlink:href="#mb177e0a6fe" x="50.4" y="147.091871" style="stroke: #000000; stroke-width: 2"/>
    </g>
   </g>
   <g id="line2d_13">
    <g clip-path="url(#pb8ca69671e)">
     <use xlink:href="#mb177e0a6fe" x="50.4" y="138.287073" style="stroke: #000000; stroke-width: 2"/>
    </g>
   </g>
   <g id="LineCollection_2">
    <path d="M 108 159.153528 
L 108 151.430327 
" clip-path="url(#pb8ca69671e)" style="fill: none; stroke: #000000; stroke-width: 2"/>
   </g>
   <g id="line2d_14">
    <g clip-path="url(#pb8ca69671e)">
     <use xlink:href="#mb177e0a6fe" x="108" y="159.153528" style="stroke: #000000; stroke-width: 2"/>
    </g>
   </g>
   <g id="line2d_15">
    <g clip-path="url(#pb8ca69671e)">
     <use xlink:href="#mb177e0a6fe" x="108" y="151.430327" style="stroke: #000000; stroke-width: 2"/>
    </g>
   </g>
   <g id="line2d_16">
    <defs>
     <path id="m48eccdcf76" d="M 0 4 
C 1.060812 4 2.078319 3.578535 2.828427 2.828427 
C 3.578535 2.078319 4 1.060812 4 0 
C 4 -1.060812 3.578535 -2.078319 2.828427 -2.828427 
C 2.078319 -3.578535 1.060812 -4 0 -4 
C -1.060812 -4 -2.078319 -3.578535 -2.828427 -2.828427 
C -3.578535 -2.078319 -4 -1.060812 -4 0 
C -4 1.060812 -3.578535 2.078319 -2.828427 2.828427 
C -2.078319 3.578535 -1.060812 4 0 4 
z
" style="stroke: #000000"/>
    </defs>
    <g clip-path="url(#pb8ca69671e)">
     <use xlink:href="#m48eccdcf76" x="50.4" y="142.689472" style="stroke: #000000"/>
    </g>
   </g>
   <g id="line2d_17">
    <g clip-path="url(#pb8ca69671e)">
     <use xlink:href="#m48eccdcf76" x="108" y="155.291927" style="stroke: #000000"/>
    </g>
   </g>
  </g>
 </g>
 <defs>
  <clipPath id="pb8ca69671e">
   <rect x="21.6" y="16.2" width="115.2" height="275.4"/>
  </clipPath>
 </defs>
</svg>
