<?xml version="1.0" encoding="utf-8" standalone="no"?>
<!DOCTYPE svg PUBLIC "-//W3C//DTD SVG 1.1//EN"
  "http://www.w3.org/Graphics/SVG/1.1/DTD/svg11.dtd">
<svg xmlns:xlink="http://www.w3.org/1999/xlink" width="144pt" height="324pt" viewBox="0 0 144 324" xmlns="http://www.w3.org/2000/svg" version="1.1">
 <metadata>
  <rdf:RDF xmlns:dc="http://purl.org/dc/elements/1.1/" xmlns:cc="http://creativecommons.org/ns#" xmlns:rdf="http://www.w3.org/1999/02/22-rdf-syntax-ns#">
   <cc:Work>
    <dc:type rdf:resource="http://purl.org/dc/dcmitype/StillImage"/>
    <dc:date>2025-12-11T11:14:58.771672</dc:date>
    <dc:format>image/svg+xml</dc:format>
    <dc:creator>
     <cc:Agent>
      <dc:title>Matplotlib v3.10.3, https://matplotlib.org/</dc:title>
     </cc:Agent>
    </dc:creator>
   </cc:Work>
  </rdf:RDF>
 </metadata>
 <defs>
  <style type="text/css">*{stroke-linejoin: round; stroke-linecap: butt}</style>
 </defs>
 <g id="figure_1">
  <g id="patch_1">
   <path d="M 0 324 
L 144 324 
L 144 0 
L 0 0 
z
" style="fill: #ffffff"/>
  </g>
  <g id="axes_1">
   <g id="patch_2">
    <path d="M 21.6 291.6 
L 136.8 291.6 
L 136.8 16.2 
L 21.6 16.2 
z
" style="fill: #ffffff"/>
   </g>
   <g id="FillBetweenPolyCollection_1">
    <path d="M 51.943583 159.012715 
L 48.856417 159.012715 
L 48.604088 157.708593 
L 48.327546 156.404471 
L 48.026897 155.100349 
L 47.702502 153.796228 
L 47.354952 152.492106 
L 46.985048 151.187984 
L 46.593766 149.883862 
L 46.182218 148.579741 
L 45.751622 147.275619 
L 45.303263 145.971497 
L 44.838475 144.667375 
L 44.358626 143.363254 
L 43.865119 142.059132 
L 43.359403 140.75501 
L 42.84299 139.450888 
L 42.31747 138.146767 
L 41.784516 136.842645 
L 41.245869 135.538523 
L 40.703308 134.234401 
L 40.15861 132.93028 
L 39.613499 131.626158 
L 39.069632 130.322036 
L 38.528605 129.017914 
L 37.992034 127.713793 
L 37.46169 126.409671 
L 36.939696 125.105549 
L 36.42876 123.801427 
L 35.932408 122.497306 
L 35.455158 121.193184 
L 35.002601 119.889062 
L 34.581342 118.58494 
L 34.198783 117.280819 
L 33.862747 115.976697 
L 33.580997 114.672575 
L 33.36068 113.368453 
L 33.207795 112.064332 
L 33.126737 110.76021 
L 33.12 109.456088 
L 33.188063 108.151966 
L 33.329475 106.847845 
L 33.541122 105.543723 
L 33.818604 104.239601 
L 34.156687 102.935479 
L 34.549717 101.631358 
L 34.991969 100.327236 
L 35.477859 99.023114 
L 36.002017 97.718992 
L 36.559224 96.41487 
L 37.144251 95.110749 
L 37.751651 93.806627 
L 38.375562 92.502505 
L 39.009575 91.198383 
L 39.646701 89.894262 
L 40.279469 88.59014 
L 40.900136 87.286018 
L 41.501004 85.981896 
L 42.074793 84.677775 
L 42.615035 83.373653 
L 43.11643 82.069531 
L 43.575129 80.765409 
L 43.988901 79.461288 
L 44.357175 78.157166 
L 44.680947 76.853044 
L 44.96256 75.548922 
L 45.205391 74.244801 
L 45.413478 72.940679 
L 45.591126 71.636557 
L 45.742538 70.332435 
L 45.871511 69.028314 
L 45.981225 67.724192 
L 46.07414 66.42007 
L 46.152012 65.115948 
L 46.216008 63.811827 
L 46.266909 62.507705 
L 46.305358 61.203583 
L 46.332127 59.899461 
L 46.348358 58.59534 
L 46.355763 57.291218 
L 46.356739 55.987096 
L 46.354393 54.682974 
L 46.352476 53.378853 
L 46.355219 52.074731 
L 46.367102 50.770609 
L 46.392566 49.466487 
L 46.4357 48.162366 
L 46.499936 46.858244 
L 46.587788 45.554122 
L 46.700645 44.25 
L 46.838662 42.945879 
L 47.000743 41.641757 
L 47.184617 40.337635 
L 47.387007 39.033513 
L 47.603868 37.729392 
L 47.830657 36.42527 
L 48.062629 35.121148 
L 48.295108 33.817026 
L 48.52373 32.512905 
L 48.744628 31.208783 
L 48.95456 29.904661 
L 51.84544 29.904661 
L 51.84544 29.904661 
L 52.055372 31.208783 
L 52.27627 32.512905 
L 52.504892 33.817026 
L 52.737371 35.121148 
L 52.969343 36.42527 
L 53.196132 37.729392 
L 53.412993 39.033513 
L 53.615383 40.337635 
L 53.799257 41.641757 
L 53.961338 42.945879 
L 54.099355 44.25 
L 54.212212 45.554122 
L 54.300064 46.858244 
L 54.3643 48.162366 
L 54.407434 49.466487 
L 54.432898 50.770609 
L 54.444781 52.074731 
L 54.447524 53.378853 
L 54.445607 54.682974 
L 54.443261 55.987096 
L 54.444237 57.291218 
L 54.451642 58.59534 
L 54.467873 59.899461 
L 54.494642 61.203583 
L 54.533091 62.507705 
L 54.583992 63.811827 
L 54.647988 65.115948 
L 54.72586 66.42007 
L 54.818775 67.724192 
L 54.928489 69.028314 
L 55.057462 70.332435 
L 55.208874 71.636557 
L 55.386522 72.940679 
L 55.594609 74.244801 
L 55.83744 75.548922 
L 56.119053 76.853044 
L 56.442825 78.157166 
L 56.811099 79.461288 
L 57.224871 80.765409 
L 57.68357 82.069531 
L 58.184965 83.373653 
L 58.725207 84.677775 
L 59.298996 85.981896 
L 59.899864 87.286018 
L 60.520531 88.59014 
L 61.153299 89.894262 
L 61.790425 91.198383 
L 62.424438 92.502505 
L 63.048349 93.806627 
L 63.655749 95.110749 
L 64.240776 96.41487 
L 64.797983 97.718992 
L 65.322141 99.023114 
L 65.808031 100.327236 
L 66.250283 101.631358 
L 66.643313 102.935479 
L 66.981396 104.239601 
L 67.258878 105.543723 
L 67.470525 106.847845 
L 67.611937 108.151966 
L 67.68 109.456088 
L 67.673263 110.76021 
L 67.592205 112.064332 
L 67.43932 113.368453 
L 67.219003 114.672575 
L 66.937253 115.976697 
L 66.601217 117.280819 
L 66.218658 118.58494 
L 65.797399 119.889062 
L 65.344842 121.193184 
L 64.867592 122.497306 
L 64.37124 123.801427 
L 63.860304 125.105549 
L 63.33831 126.409671 
L 62.807966 127.713793 
L 62.271395 129.017914 
L 61.730368 130.322036 
L 61.186501 131.626158 
L 60.64139 132.93028 
L 60.096692 134.234401 
L 59.554131 135.538523 
L 59.015484 136.842645 
L 58.48253 138.146767 
L 57.95701 139.450888 
L 57.440597 140.75501 
L 56.934881 142.059132 
L 56.441374 143.363254 
L 55.961525 144.667375 
L 55.496737 145.971497 
L 55.048378 147.275619 
L 54.617782 148.579741 
L 54.206234 149.883862 
L 53.814952 151.187984 
L 53.445048 152.492106 
L 53.097498 153.796228 
L 52.773103 155.100349 
L 52.472454 156.404471 
L 52.195912 157.708593 
L 51.943583 159.012715 
L 51.943583 159.012715 
z
" clip-path="url(#p2c86dd1d17)" style="fill: none; stroke: #000000; stroke-opacity: 0.3"/>
   </g>
   <g id="FillBetweenPolyCollection_2">
    <path d="M 51.705531 163.957149 
L 49.094469 163.957149 
L 48.864156 162.522085 
L 48.611733 161.087021 
L 48.337263 159.651957 
L 48.040899 158.216892 
L 47.722914 156.781828 
L 47.383741 155.346764 
L 47.024011 153.9117 
L 46.644548 152.476636 
L 46.246309 151.041572 
L 45.830242 149.606508 
L 45.39707 148.171443 
L 44.94704 146.736379 
L 44.479659 145.301315 
L 43.993506 143.866251 
L 43.486163 142.431187 
L 42.954341 140.996123 
L 42.394213 139.561058 
L 41.801982 138.125994 
L 41.174612 136.69093 
L 40.510689 135.255866 
L 39.811267 133.820802 
L 39.080616 132.385738 
L 38.326734 130.950674 
L 37.561521 129.515609 
L 36.80055 128.080545 
L 36.062406 126.645481 
L 35.367605 125.210417 
L 34.737183 123.775353 
L 34.191059 122.340289 
L 33.746356 120.905225 
L 33.415853 119.47016 
L 33.206762 118.035096 
L 33.12 116.600032 
L 33.150076 115.164968 
L 33.285641 113.729904 
L 33.510663 112.29484 
L 33.806091 110.859776 
L 34.151815 109.424711 
L 34.52865 107.989647 
L 34.920083 106.554583 
L 35.31354 105.119519 
L 35.701032 103.684455 
L 36.07911 102.249391 
L 36.448206 100.814327 
L 36.811519 99.379262 
L 37.173689 97.944198 
L 37.5395 96.509134 
L 37.91284 95.07407 
L 38.296053 93.639006 
L 38.689735 92.203942 
L 39.09291 90.768878 
L 39.503476 89.333813 
L 39.918738 87.898749 
L 40.3359 86.463685 
L 40.7524 85.028621 
L 41.166053 83.593557 
L 41.575032 82.158493 
L 41.977752 80.723428 
L 42.372761 79.288364 
L 42.758692 77.8533 
L 43.134328 76.418236 
L 43.498752 74.983172 
L 43.851539 73.548108 
L 44.192905 72.113044 
L 44.523747 70.677979 
L 44.845533 69.242915 
L 45.160043 67.807851 
L 45.469001 66.372787 
L 45.77369 64.937723 
L 46.074625 63.502659 
L 46.371367 62.067595 
L 46.662522 60.63253 
L 46.945905 59.197466 
L 47.21885 57.762402 
L 47.478573 56.327338 
L 47.722507 54.892274 
L 47.94857 53.45721 
L 48.155296 52.022146 
L 48.341855 50.587081 
L 48.507983 49.152017 
L 48.653872 47.716953 
L 48.780063 46.281889 
L 48.887388 44.846825 
L 48.976958 43.411761 
L 49.050199 41.976697 
L 49.108894 40.541632 
L 49.155214 39.106568 
L 49.191703 37.671504 
L 49.221195 36.23644 
L 49.246694 34.801376 
L 49.271199 33.366312 
L 49.29752 31.931248 
L 49.328102 30.496183 
L 49.364875 29.061119 
L 49.409139 27.626055 
L 49.461503 26.190991 
L 49.521864 24.755927 
L 49.589444 23.320863 
L 49.662872 21.885798 
L 51.137128 21.885798 
L 51.137128 21.885798 
L 51.210556 23.320863 
L 51.278136 24.755927 
L 51.338497 26.190991 
L 51.390861 27.626055 
L 51.435125 29.061119 
L 51.471898 30.496183 
L 51.50248 31.931248 
L 51.528801 33.366312 
L 51.553306 34.801376 
L 51.578805 36.23644 
L 51.608297 37.671504 
L 51.644786 39.106568 
L 51.691106 40.541632 
L 51.749801 41.976697 
L 51.823042 43.411761 
L 51.912612 44.846825 
L 52.019937 46.281889 
L 52.146128 47.716953 
L 52.292017 49.152017 
L 52.458145 50.587081 
L 52.644704 52.022146 
L 52.85143 53.45721 
L 53.077493 54.892274 
L 53.321427 56.327338 
L 53.58115 57.762402 
L 53.854095 59.197466 
L 54.137478 60.63253 
L 54.428633 62.067595 
L 54.725375 63.502659 
L 55.02631 64.937723 
L 55.330999 66.372787 
L 55.639957 67.807851 
L 55.954467 69.242915 
L 56.276253 70.677979 
L 56.607095 72.113044 
L 56.948461 73.548108 
L 57.301248 74.983172 
L 57.665672 76.418236 
L 58.041308 77.8533 
L 58.427239 79.288364 
L 58.822248 80.723428 
L 59.224968 82.158493 
L 59.633947 83.593557 
L 60.0476 85.028621 
L 60.4641 86.463685 
L 60.881262 87.898749 
L 61.296524 89.333813 
L 61.70709 90.768878 
L 62.110265 92.203942 
L 62.503947 93.639006 
L 62.88716 95.07407 
L 63.2605 96.509134 
L 63.626311 97.944198 
L 63.988481 99.379262 
L 64.351794 100.814327 
L 64.72089 102.249391 
L 65.098968 103.684455 
L 65.48646 105.119519 
L 65.879917 106.554583 
L 66.27135 107.989647 
L 66.648185 109.424711 
L 66.993909 110.859776 
L 67.289337 112.29484 
L 67.514359 113.729904 
L 67.649924 115.164968 
L 67.68 116.600032 
L 67.593238 118.035096 
L 67.384147 119.47016 
L 67.053644 120.905225 
L 66.608941 122.340289 
L 66.062817 123.775353 
L 65.432395 125.210417 
L 64.737594 126.645481 
L 63.99945 128.080545 
L 63.238479 129.515609 
L 62.473266 130.950674 
L 61.719384 132.385738 
L 60.988733 133.820802 
L 60.289311 135.255866 
L 59.625388 136.69093 
L 58.998018 138.125994 
L 58.405787 139.561058 
L 57.845659 140.996123 
L 57.313837 142.431187 
L 56.806494 143.866251 
L 56.320341 145.301315 
L 55.85296 146.736379 
L 55.40293 148.171443 
L 54.969758 149.606508 
L 54.553691 151.041572 
L 54.155452 152.476636 
L 53.775989 153.9117 
L 53.416259 155.346764 
L 53.077086 156.781828 
L 52.759101 158.216892 
L 52.462737 159.651957 
L 52.188267 161.087021 
L 51.935844 162.522085 
L 51.705531 163.957149 
L 51.705531 163.957149 
z
" clip-path="url(#p2c86dd1d17)" style="fill: none; stroke: #000000; stroke-opacity: 0.3"/>
   </g>
   <g id="FillBetweenPolyCollection_3">
    <path d="M 50.624704 256.702046 
L 50.175296 256.702046 
L 50.181955 254.036039 
L 50.200773 251.370033 
L 50.228597 248.704026 
L 50.261146 246.038019 
L 50.294082 243.372013 
L 50.323924 240.706006 
L 50.348549 238.039999 
L 50.367235 235.373993 
L 50.380353 232.707986 
L 50.388907 230.041979 
L 50.394103 227.375973 
L 50.397048 224.709966 
L 50.398608 222.043959 
L 50.399382 219.377953 
L 50.39974 216.711946 
L 50.399892 214.045939 
L 50.399942 211.379933 
L 50.399927 208.713926 
L 50.399828 206.047919 
L 50.399557 203.381913 
L 50.3989 200.715906 
L 50.397416 198.049899 
L 50.394255 195.383893 
L 50.387908 192.717886 
L 50.375873 190.051879 
L 50.354291 187.385872 
L 50.317614 184.719866 
L 50.258394 182.053859 
L 50.167268 179.387852 
L 50.033172 176.721846 
L 49.843767 174.055839 
L 49.5861 171.389832 
L 49.24754 168.723826 
L 48.817113 166.057819 
L 48.287259 163.391812 
L 47.655761 160.725806 
L 46.92716 158.059799 
L 46.112716 155.393792 
L 45.228193 152.727786 
L 44.289589 150.061779 
L 43.30817 147.395772 
L 42.287085 144.729766 
L 41.221837 142.063759 
L 40.105647 139.397752 
L 38.938681 136.731746 
L 37.738073 134.065739 
L 36.544622 131.399732 
L 35.422612 128.733725 
L 34.451258 126.067719 
L 33.709242 123.401712 
L 33.256643 120.735705 
L 33.12 118.069699 
L 33.285683 115.403692 
L 33.703948 112.737685 
L 34.302154 110.071679 
L 35.002242 107.405672 
L 35.736432 104.739665 
L 36.45666 102.073659 
L 37.136624 99.407652 
L 37.768552 96.741645 
L 38.358105 94.075639 
L 38.919964 91.409632 
L 39.474494 88.743625 
L 40.044309 86.077619 
L 40.649481 83.411612 
L 41.301575 80.745605 
L 41.998349 78.079599 
L 42.721729 75.413592 
L 43.440735 72.747585 
L 44.119078 70.081579 
L 44.725018 67.415572 
L 45.239988 64.749565 
L 45.662939 62.083558 
L 46.009129 59.417552 
L 46.304233 56.751545 
L 46.576292 54.085538 
L 46.848433 51.419532 
L 47.134482 48.753525 
L 47.438129 46.087518 
L 47.754914 43.421512 
L 48.075564 40.755505 
L 48.389273 38.089498 
L 48.686079 35.423492 
L 48.958166 32.757485 
L 49.200357 30.091478 
L 49.410153 27.425472 
L 49.587513 24.759465 
L 49.734395 22.093458 
L 49.854004 19.427452 
L 49.94988 16.761445 
L 50.025068 14.095438 
L 50.081718 11.429432 
L 50.121302 8.763425 
L 50.145338 6.097418 
L 50.156256 3.431412 
L 50.157915 0.765405 
L 50.156277 -1 
M 50.643723 -1 
L 50.642085 0.765405 
L 50.643744 3.431412 
L 50.654662 6.097418 
L 50.678698 8.763425 
L 50.718282 11.429432 
L 50.774932 14.095438 
L 50.85012 16.761445 
L 50.945996 19.427452 
L 51.065605 22.093458 
L 51.212487 24.759465 
L 51.389847 27.425472 
L 51.599643 30.091478 
L 51.841834 32.757485 
L 52.113921 35.423492 
L 52.410727 38.089498 
L 52.724436 40.755505 
L 53.045086 43.421512 
L 53.361871 46.087518 
L 53.665518 48.753525 
L 53.951567 51.419532 
L 54.223708 54.085538 
L 54.495767 56.751545 
L 54.790871 59.417552 
L 55.137061 62.083558 
L 55.560012 64.749565 
L 56.074982 67.415572 
L 56.680922 70.081579 
L 57.359265 72.747585 
L 58.078271 75.413592 
L 58.801651 78.079599 
L 59.498425 80.745605 
L 60.150519 83.411612 
L 60.755691 86.077619 
L 61.325506 88.743625 
L 61.880036 91.409632 
L 62.441895 94.075639 
L 63.031448 96.741645 
L 63.663376 99.407652 
L 64.34334 102.073659 
L 65.063568 104.739665 
L 65.797758 107.405672 
L 66.497846 110.071679 
L 67.096052 112.737685 
L 67.514317 115.403692 
L 67.68 118.069699 
L 67.543357 120.735705 
L 67.090758 123.401712 
L 66.348742 126.067719 
L 65.377388 128.733725 
L 64.255378 131.399732 
L 63.061927 134.065739 
L 61.861319 136.731746 
L 60.694353 139.397752 
L 59.578163 142.063759 
L 58.512915 144.729766 
L 57.49183 147.395772 
L 56.510411 150.061779 
L 55.571807 152.727786 
L 54.687284 155.393792 
L 53.87284 158.059799 
L 53.144239 160.725806 
L 52.512741 163.391812 
L 51.982887 166.057819 
L 51.55246 168.723826 
L 51.2139 171.389832 
L 50.956233 174.055839 
L 50.766828 176.721846 
L 50.632732 179.387852 
L 50.541606 182.053859 
L 50.482386 184.719866 
L 50.445709 187.385872 
L 50.424127 190.051879 
L 50.412092 192.717886 
L 50.405745 195.383893 
L 50.402584 198.049899 
L 50.4011 200.715906 
L 50.400443 203.381913 
L 50.400172 206.047919 
L 50.400073 208.713926 
L 50.400058 211.379933 
L 50.400108 214.045939 
L 50.40026 216.711946 
L 50.400618 219.377953 
L 50.401392 222.043959 
L 50.402952 224.709966 
L 50.405897 227.375973 
L 50.411093 230.041979 
L 50.419647 232.707986 
L 50.432765 235.373993 
L 50.451451 238.039999 
L 50.476076 240.706006 
L 50.505918 243.372013 
L 50.538854 246.038019 
L 50.571403 248.704026 
L 50.599227 251.370033 
L 50.618045 254.036039 
L 50.624704 256.702046 
L 50.624704 256.702046 
" clip-path="url(#p2c86dd1d17)" style="fill: none; stroke: #000000; stroke-opacity: 0.3"/>
   </g>
   <g id="FillBetweenPolyCollection_4">
    <path d="M 52.231693 183.360937 
L 48.568307 183.360937 
L 48.461474 181.908407 
L 48.361379 180.455877 
L 48.269179 179.003347 
L 48.185829 177.550818 
L 48.112042 176.098288 
L 48.048252 174.645758 
L 47.994585 173.193228 
L 47.95083 171.740699 
L 47.916418 170.288169 
L 47.890406 168.835639 
L 47.871457 167.383109 
L 47.857837 165.93058 
L 47.847407 164.47805 
L 47.837624 163.02552 
L 47.82555 161.57299 
L 47.807865 160.120461 
L 47.780893 158.667931 
L 47.740639 157.215401 
L 47.682841 155.762871 
L 47.603037 154.310342 
L 47.496649 152.857812 
L 47.359088 151.405282 
L 47.185874 149.952752 
L 46.972776 148.500223 
L 46.715958 147.047693 
L 46.412148 145.595163 
L 46.058793 144.142633 
L 45.65422 142.690104 
L 45.197786 141.237574 
L 44.689998 139.785044 
L 44.13261 138.332514 
L 43.528683 136.879985 
L 42.882596 135.427455 
L 42.200015 133.974925 
L 41.487808 132.522395 
L 40.753914 131.069866 
L 40.007162 129.617336 
L 39.257051 128.164806 
L 38.513502 126.712276 
L 37.786582 125.259747 
L 37.086223 123.807217 
L 36.421937 122.354687 
L 35.802551 120.902157 
L 35.235958 119.449628 
L 34.728913 117.997098 
L 34.28686 116.544568 
L 33.913815 115.092038 
L 33.612295 113.639509 
L 33.383307 112.186979 
L 33.22638 110.734449 
L 33.139651 109.281919 
L 33.12 107.82939 
L 33.163208 106.37686 
L 33.264158 104.92433 
L 33.417052 103.4718 
L 33.615633 102.019271 
L 33.85342 100.566741 
L 34.123924 99.114211 
L 34.420854 97.661681 
L 34.738296 96.209151 
L 35.070857 94.756622 
L 35.413783 93.304092 
L 35.763029 91.851562 
L 36.115296 90.399032 
L 36.468032 88.946503 
L 36.819401 87.493973 
L 37.168219 86.041443 
L 37.513878 84.588913 
L 37.856252 83.136384 
L 38.1956 81.683854 
L 38.532462 80.231324 
L 38.867576 78.778794 
L 39.201785 77.326265 
L 39.535972 75.873735 
L 39.871001 74.421205 
L 40.207668 72.968675 
L 40.546667 71.516146 
L 40.888562 70.063616 
L 41.233765 68.611086 
L 41.582516 67.158556 
L 41.934872 65.706027 
L 42.29069 64.253497 
L 42.649624 62.800967 
L 43.011116 61.348437 
L 43.374398 59.895908 
L 43.7385 58.443378 
L 44.102271 56.990848 
L 44.464399 55.538318 
L 44.823451 54.085789 
L 45.177911 52.633259 
L 45.526231 51.180729 
L 45.866878 49.728199 
L 46.198385 48.27567 
L 46.519393 46.82314 
L 46.82869 45.37061 
L 47.12524 43.91808 
L 47.4082 42.465551 
L 47.676928 41.013021 
L 47.930978 39.560491 
L 52.869022 39.560491 
L 52.869022 39.560491 
L 53.123072 41.013021 
L 53.3918 42.465551 
L 53.67476 43.91808 
L 53.97131 45.37061 
L 54.280607 46.82314 
L 54.601615 48.27567 
L 54.933122 49.728199 
L 55.273769 51.180729 
L 55.622089 52.633259 
L 55.976549 54.085789 
L 56.335601 55.538318 
L 56.697729 56.990848 
L 57.0615 58.443378 
L 57.425602 59.895908 
L 57.788884 61.348437 
L 58.150376 62.800967 
L 58.50931 64.253497 
L 58.865128 65.706027 
L 59.217484 67.158556 
L 59.566235 68.611086 
L 59.911438 70.063616 
L 60.253333 71.516146 
L 60.592332 72.968675 
L 60.928999 74.421205 
L 61.264028 75.873735 
L 61.598215 77.326265 
L 61.932424 78.778794 
L 62.267538 80.231324 
L 62.6044 81.683854 
L 62.943748 83.136384 
L 63.286122 84.588913 
L 63.631781 86.041443 
L 63.980599 87.493973 
L 64.331968 88.946503 
L 64.684704 90.399032 
L 65.036971 91.851562 
L 65.386217 93.304092 
L 65.729143 94.756622 
L 66.061704 96.209151 
L 66.379146 97.661681 
L 66.676076 99.114211 
L 66.94658 100.566741 
L 67.184367 102.019271 
L 67.382948 103.4718 
L 67.535842 104.92433 
L 67.636792 106.37686 
L 67.68 107.82939 
L 67.660349 109.281919 
L 67.57362 110.734449 
L 67.416693 112.186979 
L 67.187705 113.639509 
L 66.886185 115.092038 
L 66.51314 116.544568 
L 66.071087 117.997098 
L 65.564042 119.449628 
L 64.997449 120.902157 
L 64.378063 122.354687 
L 63.713777 123.807217 
L 63.013418 125.259747 
L 62.286498 126.712276 
L 61.542949 128.164806 
L 60.792838 129.617336 
L 60.046086 131.069866 
L 59.312192 132.522395 
L 58.599985 133.974925 
L 57.917404 135.427455 
L 57.271317 136.879985 
L 56.66739 138.332514 
L 56.110002 139.785044 
L 55.602214 141.237574 
L 55.14578 142.690104 
L 54.741207 144.142633 
L 54.387852 145.595163 
L 54.084042 147.047693 
L 53.827224 148.500223 
L 53.614126 149.952752 
L 53.440912 151.405282 
L 53.303351 152.857812 
L 53.196963 154.310342 
L 53.117159 155.762871 
L 53.059361 157.215401 
L 53.019107 158.667931 
L 52.992135 160.120461 
L 52.97445 161.57299 
L 52.962376 163.02552 
L 52.952593 164.47805 
L 52.942163 165.93058 
L 52.928543 167.383109 
L 52.909594 168.835639 
L 52.883582 170.288169 
L 52.84917 171.740699 
L 52.805415 173.193228 
L 52.751748 174.645758 
L 52.687958 176.098288 
L 52.614171 177.550818 
L 52.530821 179.003347 
L 52.438621 180.455877 
L 52.338526 181.908407 
L 52.231693 183.360937 
L 52.231693 183.360937 
z
" clip-path="url(#p2c86dd1d17)" style="fill: none; stroke: #000000; stroke-opacity: 0.3"/>
   </g>
   <g id="FillBetweenPolyCollection_5">
    <path d="M 51.886705 161.73385 
L 48.913295 161.73385 
L 48.700022 160.301893 
L 48.469413 158.869936 
L 48.220503 157.437979 
L 47.952167 156.006023 
L 47.663247 154.574066 
L 47.352701 153.142109 
L 47.019778 151.710152 
L 46.664157 150.278195 
L 46.286053 148.846238 
L 45.886252 147.414281 
L 45.466079 145.982325 
L 45.027293 144.550368 
L 44.571951 143.118411 
L 44.102234 141.686454 
L 43.620294 140.254497 
L 43.128123 138.82254 
L 42.62747 137.390583 
L 42.119803 135.958627 
L 41.606313 134.52667 
L 41.087947 133.094713 
L 40.565458 131.662756 
L 40.039472 130.230799 
L 39.510556 128.798842 
L 38.979315 127.366885 
L 38.44652 125.934929 
L 37.913267 124.502972 
L 37.381186 123.071015 
L 36.852691 121.639058 
L 36.331221 120.207101 
L 35.821476 118.775144 
L 35.329564 117.343188 
L 34.863046 115.911231 
L 34.430815 114.479274 
L 34.042814 113.047317 
L 33.709574 111.61536 
L 33.441613 110.183403 
L 33.248755 108.751446 
L 33.139423 107.31949 
L 33.12 105.887533 
L 33.194324 104.455576 
L 33.363375 103.023619 
L 33.625185 101.591662 
L 33.974972 100.159705 
L 34.405451 98.727748 
L 34.907292 97.295792 
L 35.46963 95.863835 
L 36.080583 94.431878 
L 36.727719 92.999921 
L 37.398442 91.567964 
L 38.080307 90.136007 
L 38.761278 88.70405 
L 39.429966 87.272094 
L 40.075887 85.840137 
L 40.689755 84.40818 
L 41.263811 82.976223 
L 41.792168 81.544266 
L 42.271118 80.112309 
L 42.699338 78.680352 
L 43.077947 77.248396 
L 43.410372 75.816439 
L 43.701997 74.384482 
L 43.959647 72.952525 
L 44.190931 71.520568 
L 44.403546 70.088611 
L 44.60462 68.656655 
L 44.800175 67.224698 
L 44.994778 65.792741 
L 45.191395 64.360784 
L 45.391461 62.928827 
L 45.595123 61.49687 
L 45.801596 60.064913 
L 46.009571 58.632957 
L 46.21761 57.201 
L 46.424466 55.769043 
L 46.629286 54.337086 
L 46.831699 52.905129 
L 47.031766 51.473172 
L 47.229842 50.041215 
L 47.42636 48.609259 
L 47.621607 47.177302 
L 47.81551 45.745345 
L 48.007495 44.313388 
L 48.196426 42.881431 
L 48.380651 41.449474 
L 48.558139 40.017517 
L 48.726688 38.585561 
L 48.884182 37.153604 
L 49.028834 35.721647 
L 49.159409 34.28969 
L 49.275366 32.857733 
L 49.376917 31.425776 
L 49.464995 29.99382 
L 49.541142 28.561863 
L 49.60733 27.129906 
L 49.665751 25.697949 
L 49.718601 24.265992 
L 49.767883 22.834035 
L 49.815254 21.402078 
L 49.86192 19.970122 
L 50.93808 19.970122 
L 50.93808 19.970122 
L 50.984746 21.402078 
L 51.032117 22.834035 
L 51.081399 24.265992 
L 51.134249 25.697949 
L 51.19267 27.129906 
L 51.258858 28.561863 
L 51.335005 29.99382 
L 51.423083 31.425776 
L 51.524634 32.857733 
L 51.640591 34.28969 
L 51.771166 35.721647 
L 51.915818 37.153604 
L 52.073312 38.585561 
L 52.241861 40.017517 
L 52.419349 41.449474 
L 52.603574 42.881431 
L 52.792505 44.313388 
L 52.98449 45.745345 
L 53.178393 47.177302 
L 53.37364 48.609259 
L 53.570158 50.041215 
L 53.768234 51.473172 
L 53.968301 52.905129 
L 54.170714 54.337086 
L 54.375534 55.769043 
L 54.58239 57.201 
L 54.790429 58.632957 
L 54.998404 60.064913 
L 55.204877 61.49687 
L 55.408539 62.928827 
L 55.608605 64.360784 
L 55.805222 65.792741 
L 55.999825 67.224698 
L 56.19538 68.656655 
L 56.396454 70.088611 
L 56.609069 71.520568 
L 56.840353 72.952525 
L 57.098003 74.384482 
L 57.389628 75.816439 
L 57.722053 77.248396 
L 58.100662 78.680352 
L 58.528882 80.112309 
L 59.007832 81.544266 
L 59.536189 82.976223 
L 60.110245 84.40818 
L 60.724113 85.840137 
L 61.370034 87.272094 
L 62.038722 88.70405 
L 62.719693 90.136007 
L 63.401558 91.567964 
L 64.072281 92.999921 
L 64.719417 94.431878 
L 65.33037 95.863835 
L 65.892708 97.295792 
L 66.394549 98.727748 
L 66.825028 100.159705 
L 67.174815 101.591662 
L 67.436625 103.023619 
L 67.605676 104.455576 
L 67.68 105.887533 
L 67.660577 107.31949 
L 67.551245 108.751446 
L 67.358387 110.183403 
L 67.090426 111.61536 
L 66.757186 113.047317 
L 66.369185 114.479274 
L 65.936954 115.911231 
L 65.470436 117.343188 
L 64.978524 118.775144 
L 64.468779 120.207101 
L 63.947309 121.639058 
L 63.418814 123.071015 
L 62.886733 124.502972 
L 62.35348 125.934929 
L 61.820685 127.366885 
L 61.289444 128.798842 
L 60.760528 130.230799 
L 60.234542 131.662756 
L 59.712053 133.094713 
L 59.193687 134.52667 
L 58.680197 135.958627 
L 58.17253 137.390583 
L 57.671877 138.82254 
L 57.179706 140.254497 
L 56.697766 141.686454 
L 56.228049 143.118411 
L 55.772707 144.550368 
L 55.333921 145.982325 
L 54.913748 147.414281 
L 54.513947 148.846238 
L 54.135843 150.278195 
L 53.780222 151.710152 
L 53.447299 153.142109 
L 53.136753 154.574066 
L 52.847833 156.006023 
L 52.579497 157.437979 
L 52.330587 158.869936 
L 52.099978 160.301893 
L 51.886705 161.73385 
L 51.886705 161.73385 
z
" clip-path="url(#p2c86dd1d17)" style="fill: none; stroke: #000000; stroke-opacity: 0.3"/>
   </g>
   <g id="FillBetweenPolyCollection_6">
    <path d="M 56.184696 156.334672 
L 44.615304 156.334672 
L 44.22113 155.0782 
L 43.82945 153.821728 
L 43.442398 152.565256 
L 43.061802 151.308785 
L 42.689133 150.052313 
L 42.32546 148.795841 
L 41.971422 147.539369 
L 41.627218 146.282897 
L 41.292613 145.026425 
L 40.966959 143.769953 
L 40.649236 142.513482 
L 40.338105 141.25701 
L 40.031974 140.000538 
L 39.729078 138.744066 
L 39.427565 137.487594 
L 39.125586 136.231122 
L 38.821396 134.97465 
L 38.513445 133.718179 
L 38.200472 132.461707 
L 37.881593 131.205235 
L 37.556375 129.948763 
L 37.224904 128.692291 
L 36.887833 127.435819 
L 36.546411 126.179347 
L 36.202495 124.922875 
L 35.858542 123.666404 
L 35.517568 122.409932 
L 35.183095 121.15346 
L 34.859069 119.896988 
L 34.549758 118.640516 
L 34.259632 117.384044 
L 33.993234 116.127572 
L 33.755029 114.871101 
L 33.549265 113.614629 
L 33.379823 112.358157 
L 33.250082 111.101685 
L 33.162797 109.845213 
L 33.12 108.588741 
L 33.122919 107.332269 
L 33.171932 106.075798 
L 33.266554 104.819326 
L 33.405449 103.562854 
L 33.586485 102.306382 
L 33.806807 101.04991 
L 34.062945 99.793438 
L 34.350941 98.536966 
L 34.666493 97.280495 
L 35.005102 96.024023 
L 35.362226 94.767551 
L 35.733428 93.511079 
L 36.114506 92.254607 
L 36.501613 90.998135 
L 36.891343 89.741663 
L 37.280802 88.485191 
L 37.66764 87.22872 
L 38.050055 85.972248 
L 38.42678 84.715776 
L 38.797027 83.459304 
L 39.160428 82.202832 
L 39.516949 80.94636 
L 39.866803 79.689888 
L 40.210351 78.433417 
L 40.548016 77.176945 
L 40.8802 75.920473 
L 41.20722 74.664001 
L 41.529251 73.407529 
L 41.846302 72.151057 
L 42.158204 70.894585 
L 42.464615 69.638114 
L 42.765048 68.381642 
L 43.058907 67.12517 
L 43.34554 65.868698 
L 43.624283 64.612226 
L 43.894519 63.355754 
L 44.155724 62.099282 
L 44.407507 60.84281 
L 44.649637 59.586339 
L 44.882066 58.329867 
L 45.104929 57.073395 
L 45.318537 55.816923 
L 45.523358 54.560451 
L 45.719991 53.303979 
L 45.909132 52.047507 
L 46.091534 50.791036 
L 46.267975 49.534564 
L 46.439219 48.278092 
L 46.605986 47.02162 
L 46.768929 45.765148 
L 46.928615 44.508676 
L 47.085509 43.252204 
L 47.239975 41.995733 
L 47.392271 40.739261 
L 47.542557 39.482789 
L 47.690899 38.226317 
L 47.837285 36.969845 
L 47.98163 35.713373 
L 48.123788 34.456901 
L 48.263567 33.20043 
L 48.400732 31.943958 
L 52.399268 31.943958 
L 52.399268 31.943958 
L 52.536433 33.20043 
L 52.676212 34.456901 
L 52.81837 35.713373 
L 52.962715 36.969845 
L 53.109101 38.226317 
L 53.257443 39.482789 
L 53.407729 40.739261 
L 53.560025 41.995733 
L 53.714491 43.252204 
L 53.871385 44.508676 
L 54.031071 45.765148 
L 54.194014 47.02162 
L 54.360781 48.278092 
L 54.532025 49.534564 
L 54.708466 50.791036 
L 54.890868 52.047507 
L 55.080009 53.303979 
L 55.276642 54.560451 
L 55.481463 55.816923 
L 55.695071 57.073395 
L 55.917934 58.329867 
L 56.150363 59.586339 
L 56.392493 60.84281 
L 56.644276 62.099282 
L 56.905481 63.355754 
L 57.175717 64.612226 
L 57.45446 65.868698 
L 57.741093 67.12517 
L 58.034952 68.381642 
L 58.335385 69.638114 
L 58.641796 70.894585 
L 58.953698 72.151057 
L 59.270749 73.407529 
L 59.59278 74.664001 
L 59.9198 75.920473 
L 60.251984 77.176945 
L 60.589649 78.433417 
L 60.933197 79.689888 
L 61.283051 80.94636 
L 61.639572 82.202832 
L 62.002973 83.459304 
L 62.37322 84.715776 
L 62.749945 85.972248 
L 63.13236 87.22872 
L 63.519198 88.485191 
L 63.908657 89.741663 
L 64.298387 90.998135 
L 64.685494 92.254607 
L 65.066572 93.511079 
L 65.437774 94.767551 
L 65.794898 96.024023 
L 66.133507 97.280495 
L 66.449059 98.536966 
L 66.737055 99.793438 
L 66.993193 101.04991 
L 67.213515 102.306382 
L 67.394551 103.562854 
L 67.533446 104.819326 
L 67.628068 106.075798 
L 67.677081 107.332269 
L 67.68 108.588741 
L 67.637203 109.845213 
L 67.549918 111.101685 
L 67.420177 112.358157 
L 67.250735 113.614629 
L 67.044971 114.871101 
L 66.806766 116.127572 
L 66.540368 117.384044 
L 66.250242 118.640516 
L 65.940931 119.896988 
L 65.616905 121.15346 
L 65.282432 122.409932 
L 64.941458 123.666404 
L 64.597505 124.922875 
L 64.253589 126.179347 
L 63.912167 127.435819 
L 63.575096 128.692291 
L 63.243625 129.948763 
L 62.918407 131.205235 
L 62.599528 132.461707 
L 62.286555 133.718179 
L 61.978604 134.97465 
L 61.674414 136.231122 
L 61.372435 137.487594 
L 61.070922 138.744066 
L 60.768026 140.000538 
L 60.461895 141.25701 
L 60.150764 142.513482 
L 59.833041 143.769953 
L 59.507387 145.026425 
L 59.172782 146.282897 
L 58.828578 147.539369 
L 58.47454 148.795841 
L 58.110867 150.052313 
L 57.738198 151.308785 
L 57.357602 152.565256 
L 56.97055 153.821728 
L 56.57887 155.0782 
L 56.184696 156.334672 
L 56.184696 156.334672 
z
" clip-path="url(#p2c86dd1d17)" style="fill: none; stroke: #000000; stroke-opacity: 0.3"/>
   </g>
   <g id="FillBetweenPolyCollection_7">
    <path d="M 51.480315 190.282228 
L 49.319685 190.282228 
L 49.238083 188.735478 
L 49.151347 187.188729 
L 49.057877 185.641979 
L 48.955914 184.09523 
L 48.843619 182.548481 
L 48.719169 181.001731 
L 48.580838 179.454982 
L 48.427075 177.908232 
L 48.256556 176.361483 
L 48.068214 174.814733 
L 47.861238 173.267984 
L 47.635048 171.721235 
L 47.389238 170.174485 
L 47.12351 168.627736 
L 46.837586 167.080986 
L 46.531128 165.534237 
L 46.203668 163.987487 
L 45.854549 162.440738 
L 45.482911 160.893989 
L 45.087702 159.347239 
L 44.667735 157.80049 
L 44.221783 156.25374 
L 43.748719 154.706991 
L 43.247673 153.160241 
L 42.718223 151.613492 
L 42.160579 150.066743 
L 41.575767 148.519993 
L 40.965789 146.973244 
L 40.33374 145.426494 
L 39.683885 143.879745 
L 39.02168 142.332995 
L 38.353732 140.786246 
L 37.687703 139.239496 
L 37.032163 137.692747 
L 36.396391 136.145998 
L 35.790146 134.599248 
L 35.223405 133.052499 
L 34.706096 131.505749 
L 34.247806 129.959 
L 33.857516 128.41225 
L 33.543324 126.865501 
L 33.312197 125.318752 
L 33.169741 123.772002 
L 33.12 122.225253 
L 33.165286 120.678503 
L 33.306052 119.131754 
L 33.54081 117.585004 
L 33.8661 116.038255 
L 34.276526 114.491506 
L 34.764848 112.944756 
L 35.322147 111.398007 
L 35.938058 109.851257 
L 36.601059 108.304508 
L 37.298818 106.757758 
L 38.018581 105.211009 
L 38.747576 103.66426 
L 39.473437 102.11751 
L 40.184594 100.570761 
L 40.870645 99.024011 
L 41.522663 97.477262 
L 42.133446 95.930512 
L 42.697675 94.383763 
L 43.212004 92.837014 
L 43.675044 91.290264 
L 44.087277 89.743515 
L 44.450882 88.196765 
L 44.769497 86.650016 
L 45.047932 85.103266 
L 45.291828 83.556517 
L 45.507313 82.009768 
L 45.700646 80.463018 
L 45.877877 78.916269 
L 46.044548 77.369519 
L 46.20544 75.82277 
L 46.364387 74.27602 
L 46.524163 72.729271 
L 46.686442 71.182522 
L 46.851841 69.635772 
L 47.020028 68.089023 
L 47.189879 66.542273 
L 47.359691 64.995524 
L 47.527405 63.448774 
L 47.690835 61.902025 
L 47.847883 60.355276 
L 47.996724 58.808526 
L 48.135948 57.261777 
L 48.264654 55.715027 
L 48.382489 54.168278 
L 48.489648 52.621528 
L 48.58682 51.074779 
L 48.675109 49.52803 
L 48.755928 47.98128 
L 48.830879 46.434531 
L 48.901634 44.887781 
L 48.969819 43.341032 
L 49.036913 41.794282 
L 49.104168 40.247533 
L 49.172542 38.700784 
L 49.242672 37.154034 
L 51.557328 37.154034 
L 51.557328 37.154034 
L 51.627458 38.700784 
L 51.695832 40.247533 
L 51.763087 41.794282 
L 51.830181 43.341032 
L 51.898366 44.887781 
L 51.969121 46.434531 
L 52.044072 47.98128 
L 52.124891 49.52803 
L 52.21318 51.074779 
L 52.310352 52.621528 
L 52.417511 54.168278 
L 52.535346 55.715027 
L 52.664052 57.261777 
L 52.803276 58.808526 
L 52.952117 60.355276 
L 53.109165 61.902025 
L 53.272595 63.448774 
L 53.440309 64.995524 
L 53.610121 66.542273 
L 53.779972 68.089023 
L 53.948159 69.635772 
L 54.113558 71.182522 
L 54.275837 72.729271 
L 54.435613 74.27602 
L 54.59456 75.82277 
L 54.755452 77.369519 
L 54.922123 78.916269 
L 55.099354 80.463018 
L 55.292687 82.009768 
L 55.508172 83.556517 
L 55.752068 85.103266 
L 56.030503 86.650016 
L 56.349118 88.196765 
L 56.712723 89.743515 
L 57.124956 91.290264 
L 57.587996 92.837014 
L 58.102325 94.383763 
L 58.666554 95.930512 
L 59.277337 97.477262 
L 59.929355 99.024011 
L 60.615406 100.570761 
L 61.326563 102.11751 
L 62.052424 103.66426 
L 62.781419 105.211009 
L 63.501182 106.757758 
L 64.198941 108.304508 
L 64.861942 109.851257 
L 65.477853 111.398007 
L 66.035152 112.944756 
L 66.523474 114.491506 
L 66.9339 116.038255 
L 67.25919 117.585004 
L 67.493948 119.131754 
L 67.634714 120.678503 
L 67.68 122.225253 
L 67.630259 123.772002 
L 67.487803 125.318752 
L 67.256676 126.865501 
L 66.942484 128.41225 
L 66.552194 129.959 
L 66.093904 131.505749 
L 65.576595 133.052499 
L 65.009854 134.599248 
L 64.403609 136.145998 
L 63.767837 137.692747 
L 63.112297 139.239496 
L 62.446268 140.786246 
L 61.77832 142.332995 
L 61.116115 143.879745 
L 60.46626 145.426494 
L 59.834211 146.973244 
L 59.224233 148.519993 
L 58.639421 150.066743 
L 58.081777 151.613492 
L 57.552327 153.160241 
L 57.051281 154.706991 
L 56.578217 156.25374 
L 56.132265 157.80049 
L 55.712298 159.347239 
L 55.317089 160.893989 
L 54.945451 162.440738 
L 54.596332 163.987487 
L 54.268872 165.534237 
L 53.962414 167.080986 
L 53.67649 168.627736 
L 53.410762 170.174485 
L 53.164952 171.721235 
L 52.938762 173.267984 
L 52.731786 174.814733 
L 52.543444 176.361483 
L 52.372925 177.908232 
L 52.219162 179.454982 
L 52.080831 181.001731 
L 51.956381 182.548481 
L 51.844086 184.09523 
L 51.742123 185.641979 
L 51.648653 187.188729 
L 51.561917 188.735478 
L 51.480315 190.282228 
L 51.480315 190.282228 
z
" clip-path="url(#p2c86dd1d17)" style="fill: none; stroke: #000000; stroke-opacity: 0.3"/>
   </g>
   <g id="FillBetweenPolyCollection_8">
    <path d="M 108.616485 268.059902 
L 107.383515 268.059902 
L 107.388163 266.247748 
L 107.403326 264.435594 
L 107.427886 262.62344 
L 107.46015 260.811286 
L 107.497965 258.999132 
L 107.538864 257.186978 
L 107.580233 255.374824 
L 107.619468 253.562671 
L 107.654135 251.750517 
L 107.682091 249.938363 
L 107.701588 248.126209 
L 107.711346 246.314055 
L 107.710589 244.501901 
L 107.69907 242.689747 
L 107.677054 240.877593 
L 107.64529 239.065439 
L 107.604956 237.253285 
L 107.55758 235.441131 
L 107.504944 233.628977 
L 107.448963 231.816823 
L 107.39156 230.004669 
L 107.334525 228.192515 
L 107.279385 226.380361 
L 107.227286 224.568207 
L 107.178901 222.756053 
L 107.134356 220.9439 
L 107.093189 219.131746 
L 107.054333 217.319592 
L 107.016102 215.507438 
L 106.976191 213.695284 
L 106.931661 211.88313 
L 106.878918 210.070976 
L 106.813692 208.258822 
L 106.731016 206.446668 
L 106.625235 204.634514 
L 106.490067 202.82236 
L 106.318742 201.010206 
L 106.104226 199.198052 
L 105.839552 197.385898 
L 105.518241 195.573744 
L 105.13479 193.76159 
L 104.685185 191.949436 
L 104.167393 190.137282 
L 103.581765 188.325128 
L 102.931308 186.512975 
L 102.221766 184.700821 
L 101.461498 182.888667 
L 100.661145 181.076513 
L 99.833103 179.264359 
L 98.990852 177.452205 
L 98.148206 175.640051 
L 97.318555 173.827897 
L 96.514179 172.015743 
L 95.745684 170.203589 
L 95.021635 168.391435 
L 94.348396 166.579281 
L 93.730176 164.767127 
L 93.169282 162.954973 
L 92.666514 161.142819 
L 92.221657 159.330665 
L 91.834026 157.518511 
L 91.502969 155.706357 
L 91.228304 153.894204 
L 91.010641 152.08205 
L 90.851545 150.269896 
L 90.753549 148.457742 
L 90.72 146.645588 
L 90.754765 144.833434 
L 90.86182 143.02128 
L 91.044754 141.209126 
L 91.306237 139.396972 
L 91.647499 137.584818 
L 92.067856 135.772664 
L 92.564351 133.96051 
L 93.131533 132.148356 
L 93.761412 130.336202 
L 94.443617 128.524048 
L 95.165746 126.711894 
L 95.913906 124.89974 
L 96.673402 123.087586 
L 97.429514 121.275432 
L 98.168316 119.463279 
L 98.877445 117.651125 
L 99.546769 115.838971 
L 100.168878 114.026817 
L 100.739368 112.214663 
L 101.256894 110.402509 
L 101.722986 108.590355 
L 102.141673 106.778201 
L 102.518928 104.966047 
L 102.86202 103.153893 
L 103.17881 101.341739 
L 103.47707 99.529585 
L 103.763869 97.717431 
L 104.045079 95.905277 
L 104.325026 94.093123 
L 104.606311 92.280969 
L 104.889793 90.468815 
L 105.174723 88.656661 
L 110.825277 88.656661 
L 110.825277 88.656661 
L 111.110207 90.468815 
L 111.393689 92.280969 
L 111.674974 94.093123 
L 111.954921 95.905277 
L 112.236131 97.717431 
L 112.52293 99.529585 
L 112.82119 101.341739 
L 113.13798 103.153893 
L 113.481072 104.966047 
L 113.858327 106.778201 
L 114.277014 108.590355 
L 114.743106 110.402509 
L 115.260632 112.214663 
L 115.831122 114.026817 
L 116.453231 115.838971 
L 117.122555 117.651125 
L 117.831684 119.463279 
L 118.570486 121.275432 
L 119.326598 123.087586 
L 120.086094 124.89974 
L 120.834254 126.711894 
L 121.556383 128.524048 
L 122.238588 130.336202 
L 122.868467 132.148356 
L 123.435649 133.96051 
L 123.932144 135.772664 
L 124.352501 137.584818 
L 124.693763 139.396972 
L 124.955246 141.209126 
L 125.13818 143.02128 
L 125.245235 144.833434 
L 125.28 146.645588 
L 125.246451 148.457742 
L 125.148455 150.269896 
L 124.989359 152.08205 
L 124.771696 153.894204 
L 124.497031 155.706357 
L 124.165974 157.518511 
L 123.778343 159.330665 
L 123.333486 161.142819 
L 122.830718 162.954973 
L 122.269824 164.767127 
L 121.651604 166.579281 
L 120.978365 168.391435 
L 120.254316 170.203589 
L 119.485821 172.015743 
L 118.681445 173.827897 
L 117.851794 175.640051 
L 117.009148 177.452205 
L 116.166897 179.264359 
L 115.338855 181.076513 
L 114.538502 182.888667 
L 113.778234 184.700821 
L 113.068692 186.512975 
L 112.418235 188.325128 
L 111.832607 190.137282 
L 111.314815 191.949436 
L 110.86521 193.76159 
L 110.481759 195.573744 
L 110.160448 197.385898 
L 109.895774 199.198052 
L 109.681258 201.010206 
L 109.509933 202.82236 
L 109.374765 204.634514 
L 109.268984 206.446668 
L 109.186308 208.258822 
L 109.121082 210.070976 
L 109.068339 211.88313 
L 109.023809 213.695284 
L 108.983898 215.507438 
L 108.945667 217.319592 
L 108.906811 219.131746 
L 108.865644 220.9439 
L 108.821099 222.756053 
L 108.772714 224.568207 
L 108.720615 226.380361 
L 108.665475 228.192515 
L 108.60844 230.004669 
L 108.551037 231.816823 
L 108.495056 233.628977 
L 108.44242 235.441131 
L 108.395044 237.253285 
L 108.35471 239.065439 
L 108.322946 240.877593 
L 108.30093 242.689747 
L 108.289411 244.501901 
L 108.288654 246.314055 
L 108.298412 248.126209 
L 108.317909 249.938363 
L 108.345865 251.750517 
L 108.380532 253.562671 
L 108.419767 255.374824 
L 108.461136 257.186978 
L 108.502035 258.999132 
L 108.53985 260.811286 
L 108.572114 262.62344 
L 108.596674 264.435594 
L 108.611837 266.247748 
L 108.616485 268.059902 
L 108.616485 268.059902 
z
" clip-path="url(#p2c86dd1d17)" style="fill: none; stroke: #000000; stroke-opacity: 0.3"/>
   </g>
   <g id="FillBetweenPolyCollection_9">
    <path d="M 108.349368 311.247302 
L 107.650632 311.247302 
L 107.659471 308.88391 
L 107.68467 306.520518 
L 107.722593 304.157125 
L 107.768148 301.793733 
L 107.815903 299.430341 
L 107.861126 297.066948 
L 107.900474 294.703556 
L 107.932237 292.340164 
L 107.956168 289.976771 
L 107.973064 287.613379 
L 107.984274 285.249987 
L 107.991278 282.886595 
L 107.995404 280.523202 
L 107.997699 278.15981 
L 107.998906 275.796418 
L 107.999506 273.433025 
L 107.999788 271.069633 
L 107.999913 268.706241 
L 107.999966 266.342849 
L 107.999988 263.979456 
L 107.999996 261.616064 
L 107.999999 259.252672 
L 108 256.889279 
L 108 254.525887 
L 108 252.162495 
L 108 249.799103 
L 107.999999 247.43571 
L 107.999997 245.072318 
L 107.999991 242.708926 
L 107.999973 240.345533 
L 107.999925 237.982141 
L 107.999803 235.618749 
L 107.999507 233.255357 
L 107.998825 230.891964 
L 107.99733 228.528572 
L 107.994222 226.16518 
L 107.988084 223.801787 
L 107.976569 221.438395 
L 107.956045 219.075003 
L 107.92127 216.711611 
L 107.865229 214.348218 
L 107.77925 211.984826 
L 107.653512 209.621434 
L 107.477928 207.258041 
L 107.243251 204.894649 
L 106.942118 202.531257 
L 106.5697 200.167865 
L 106.123719 197.804472 
L 105.603848 195.44108 
L 105.010737 193.077688 
L 104.345106 190.714295 
L 103.607319 188.350903 
L 102.797649 185.987511 
L 101.9172 183.624119 
L 100.969231 181.260726 
L 99.960551 178.897334 
L 98.902647 176.533942 
L 97.81229 174.170549 
L 96.711374 171.807157 
L 95.625904 169.443765 
L 94.58425 167.080373 
L 93.615123 164.71698 
L 92.745923 162.353588 
L 92.001965 159.990196 
L 91.406631 157.626803 
L 90.981791 155.263411 
L 90.747489 152.900019 
L 90.72 150.536626 
L 90.908186 148.173234 
L 91.30909 145.809842 
L 91.904495 143.44645 
L 92.660225 141.083057 
L 93.529194 138.719665 
L 94.457984 136.356273 
L 95.395443 133.99288 
L 96.301049 131.629488 
L 97.150823 129.266096 
L 97.939285 126.902704 
L 98.677151 124.539311 
L 99.385642 122.175919 
L 100.089067 119.812527 
L 100.807629 117.449134 
L 101.55206 115.085742 
L 102.320996 112.72235 
L 103.101263 110.358958 
L 103.870542 107.995565 
L 104.601581 105.632173 
L 105.266964 103.268781 
L 105.843565 100.905388 
L 106.316009 98.541996 
L 106.678687 96.178604 
L 106.936148 93.815212 
L 107.101918 91.451819 
L 107.196066 89.088427 
L 107.241963 86.725035 
L 107.26283 84.361642 
L 107.278644 81.99825 
L 107.303908 79.634858 
L 107.346586 77.271466 
L 108.653414 77.271466 
L 108.653414 77.271466 
L 108.696092 79.634858 
L 108.721356 81.99825 
L 108.73717 84.361642 
L 108.758037 86.725035 
L 108.803934 89.088427 
L 108.898082 91.451819 
L 109.063852 93.815212 
L 109.321313 96.178604 
L 109.683991 98.541996 
L 110.156435 100.905388 
L 110.733036 103.268781 
L 111.398419 105.632173 
L 112.129458 107.995565 
L 112.898737 110.358958 
L 113.679004 112.72235 
L 114.44794 115.085742 
L 115.192371 117.449134 
L 115.910933 119.812527 
L 116.614358 122.175919 
L 117.322849 124.539311 
L 118.060715 126.902704 
L 118.849177 129.266096 
L 119.698951 131.629488 
L 120.604557 133.99288 
L 121.542016 136.356273 
L 122.470806 138.719665 
L 123.339775 141.083057 
L 124.095505 143.44645 
L 124.69091 145.809842 
L 125.091814 148.173234 
L 125.28 150.536626 
L 125.252511 152.900019 
L 125.018209 155.263411 
L 124.593369 157.626803 
L 123.998035 159.990196 
L 123.254077 162.353588 
L 122.384877 164.71698 
L 121.41575 167.080373 
L 120.374096 169.443765 
L 119.288626 171.807157 
L 118.18771 174.170549 
L 117.097353 176.533942 
L 116.039449 178.897334 
L 115.030769 181.260726 
L 114.0828 183.624119 
L 113.202351 185.987511 
L 112.392681 188.350903 
L 111.654894 190.714295 
L 110.989263 193.077688 
L 110.396152 195.44108 
L 109.876281 197.804472 
L 109.4303 200.167865 
L 109.057882 202.531257 
L 108.756749 204.894649 
L 108.522072 207.258041 
L 108.346488 209.621434 
L 108.22075 211.984826 
L 108.134771 214.348218 
L 108.07873 216.711611 
L 108.043955 219.075003 
L 108.023431 221.438395 
L 108.011916 223.801787 
L 108.005778 226.16518 
L 108.00267 228.528572 
L 108.001175 230.891964 
L 108.000493 233.255357 
L 108.000197 235.618749 
L 108.000075 237.982141 
L 108.000027 240.345533 
L 108.000009 242.708926 
L 108.000003 245.072318 
L 108.000001 247.43571 
L 108 249.799103 
L 108 252.162495 
L 108 254.525887 
L 108 256.889279 
L 108.000001 259.252672 
L 108.000004 261.616064 
L 108.000012 263.979456 
L 108.000034 266.342849 
L 108.000087 268.706241 
L 108.000212 271.069633 
L 108.000494 273.433025 
L 108.001094 275.796418 
L 108.002301 278.15981 
L 108.004596 280.523202 
L 108.008722 282.886595 
L 108.015726 285.249987 
L 108.026936 287.613379 
L 108.043832 289.976771 
L 108.067763 292.340164 
L 108.099526 294.703556 
L 108.138874 297.066948 
L 108.184097 299.430341 
L 108.231852 301.793733 
L 108.277407 304.157125 
L 108.31533 306.520518 
L 108.340529 308.88391 
L 108.349368 311.247302 
L 108.349368 311.247302 
z
" clip-path="url(#p2c86dd1d17)" style="fill: none; stroke: #000000; stroke-opacity: 0.3"/>
   </g>
   <g id="FillBetweenPolyCollection_10">
    <path d="M 109.626846 208.462135 
L 106.373154 208.462135 
L 106.198266 207.193304 
L 106.011319 205.924473 
L 105.811908 204.655643 
L 105.599778 203.386812 
L 105.374878 202.117981 
L 105.137386 200.84915 
L 104.887716 199.580319 
L 104.626481 198.311488 
L 104.354418 197.042658 
L 104.07227 195.773827 
L 103.780643 194.504996 
L 103.479839 193.236165 
L 103.169687 191.967334 
L 102.849402 190.698503 
L 102.517486 189.429673 
L 102.1717 188.160842 
L 101.809118 186.892011 
L 101.426284 185.62318 
L 101.019452 184.354349 
L 100.584925 183.085518 
L 100.119442 181.816688 
L 99.620599 180.547857 
L 99.087261 179.279026 
L 98.519918 178.010195 
L 97.92095 176.741364 
L 97.294773 175.472534 
L 96.647823 174.203703 
L 95.988403 172.934872 
L 95.326363 171.666041 
L 94.672665 170.39721 
L 94.038848 169.128379 
L 93.436445 167.859549 
L 92.876402 166.590718 
L 92.368542 165.321887 
L 91.921123 164.053056 
L 91.540512 162.784225 
L 91.231012 161.515394 
L 90.994831 160.246564 
L 90.832193 158.977733 
L 90.74157 157.708902 
L 90.72 156.440071 
L 90.763454 155.17124 
L 90.867226 153.90241 
L 91.026289 152.633579 
L 91.235611 151.364748 
L 91.490393 150.095917 
L 91.786221 148.827086 
L 92.119138 147.558255 
L 92.485638 146.289425 
L 92.882588 145.020594 
L 93.307114 143.751763 
L 93.756461 142.482932 
L 94.227845 141.214101 
L 94.718328 139.94527 
L 95.224717 138.67644 
L 95.743509 137.407609 
L 96.270876 136.138778 
L 96.802698 134.869947 
L 97.334635 133.601116 
L 97.86224 132.332285 
L 98.381087 131.063455 
L 98.886922 129.794624 
L 99.375814 128.525793 
L 99.844305 127.256962 
L 100.289535 125.988131 
L 100.709354 124.719301 
L 101.102392 123.45047 
L 101.4681 122.181639 
L 101.806744 120.912808 
L 102.119358 119.643977 
L 102.407658 118.375146 
L 102.673916 117.106316 
L 102.920802 115.837485 
L 103.151212 114.568654 
L 103.368079 113.299823 
L 103.574195 112.030992 
L 103.772051 110.762161 
L 103.963702 109.493331 
L 104.15068 108.2245 
L 104.333948 106.955669 
L 104.51391 105.686838 
L 104.69046 104.418007 
L 104.863083 103.149176 
L 105.030969 101.880346 
L 105.193163 100.611515 
L 105.348703 99.342684 
L 105.496752 98.073853 
L 105.636711 96.805022 
L 105.768291 95.536192 
L 105.891555 94.267361 
L 106.006917 92.99853 
L 106.115109 91.729699 
L 106.217113 90.460868 
L 106.314075 89.192037 
L 106.407206 87.923207 
L 106.497683 86.654376 
L 106.586553 85.385545 
L 106.674661 84.116714 
L 106.762594 82.847883 
L 109.237406 82.847883 
L 109.237406 82.847883 
L 109.325339 84.116714 
L 109.413447 85.385545 
L 109.502317 86.654376 
L 109.592794 87.923207 
L 109.685925 89.192037 
L 109.782887 90.460868 
L 109.884891 91.729699 
L 109.993083 92.99853 
L 110.108445 94.267361 
L 110.231709 95.536192 
L 110.363289 96.805022 
L 110.503248 98.073853 
L 110.651297 99.342684 
L 110.806837 100.611515 
L 110.969031 101.880346 
L 111.136917 103.149176 
L 111.30954 104.418007 
L 111.48609 105.686838 
L 111.666052 106.955669 
L 111.84932 108.2245 
L 112.036298 109.493331 
L 112.227949 110.762161 
L 112.425805 112.030992 
L 112.631921 113.299823 
L 112.848788 114.568654 
L 113.079198 115.837485 
L 113.326084 117.106316 
L 113.592342 118.375146 
L 113.880642 119.643977 
L 114.193256 120.912808 
L 114.5319 122.181639 
L 114.897608 123.45047 
L 115.290646 124.719301 
L 115.710465 125.988131 
L 116.155695 127.256962 
L 116.624186 128.525793 
L 117.113078 129.794624 
L 117.618913 131.063455 
L 118.13776 132.332285 
L 118.665365 133.601116 
L 119.197302 134.869947 
L 119.729124 136.138778 
L 120.256491 137.407609 
L 120.775283 138.67644 
L 121.281672 139.94527 
L 121.772155 141.214101 
L 122.243539 142.482932 
L 122.692886 143.751763 
L 123.117412 145.020594 
L 123.514362 146.289425 
L 123.880862 147.558255 
L 124.213779 148.827086 
L 124.509607 150.095917 
L 124.764389 151.364748 
L 124.973711 152.633579 
L 125.132774 153.90241 
L 125.236546 155.17124 
L 125.28 156.440071 
L 125.25843 157.708902 
L 125.167807 158.977733 
L 125.005169 160.246564 
L 124.768988 161.515394 
L 124.459488 162.784225 
L 124.078877 164.053056 
L 123.631458 165.321887 
L 123.123598 166.590718 
L 122.563555 167.859549 
L 121.961152 169.128379 
L 121.327335 170.39721 
L 120.673637 171.666041 
L 120.011597 172.934872 
L 119.352177 174.203703 
L 118.705227 175.472534 
L 118.07905 176.741364 
L 117.480082 178.010195 
L 116.912739 179.279026 
L 116.379401 180.547857 
L 115.880558 181.816688 
L 115.415075 183.085518 
L 114.980548 184.354349 
L 114.573716 185.62318 
L 114.190882 186.892011 
L 113.8283 188.160842 
L 113.482514 189.429673 
L 113.150598 190.698503 
L 112.830313 191.967334 
L 112.520161 193.236165 
L 112.219357 194.504996 
L 111.92773 195.773827 
L 111.645582 197.042658 
L 111.373519 198.311488 
L 111.112284 199.580319 
L 110.862614 200.84915 
L 110.625122 202.117981 
L 110.400222 203.386812 
L 110.188092 204.655643 
L 109.988681 205.924473 
L 109.801734 207.193304 
L 109.626846 208.462135 
L 109.626846 208.462135 
z
" clip-path="url(#p2c86dd1d17)" style="fill: none; stroke: #000000; stroke-opacity: 0.3"/>
   </g>
   <g id="FillBetweenPolyCollection_11">
    <path d="M 109.476061 243.986364 
L 106.523939 243.986364 
L 106.50245 242.143165 
L 106.497338 240.299965 
L 106.506742 238.456766 
L 106.527783 236.613567 
L 106.556702 234.770368 
L 106.589075 232.927169 
L 106.620067 231.08397 
L 106.644721 229.240771 
L 106.658239 227.397572 
L 106.656258 225.554373 
L 106.635072 223.711173 
L 106.591808 221.867974 
L 106.524533 220.024775 
L 106.432287 218.181576 
L 106.31505 216.338377 
L 106.173641 214.495178 
L 106.009561 212.651979 
L 105.824802 210.80878 
L 105.621616 208.965581 
L 105.40228 207.122381 
L 105.168865 205.279182 
L 104.923011 203.435983 
L 104.665744 201.592784 
L 104.397322 199.749585 
L 104.117135 197.906386 
L 103.823651 196.063187 
L 103.514427 194.219988 
L 103.186179 192.376789 
L 102.834909 190.533589 
L 102.456102 188.69039 
L 102.044981 186.847191 
L 101.596819 185.003992 
L 101.107305 183.160793 
L 100.57295 181.317594 
L 99.99152 179.474395 
L 99.362472 177.631196 
L 98.687367 175.787997 
L 97.970222 173.944797 
L 97.217768 172.101598 
L 96.439571 170.258399 
L 95.64799 168.4152 
L 94.857941 166.572001 
L 94.086458 164.728802 
L 93.352062 162.885603 
L 92.673968 161.042404 
L 92.071176 159.199205 
L 91.561503 157.356005 
L 91.160652 155.512806 
L 90.881374 153.669607 
L 90.732798 151.826408 
L 90.72 149.983209 
L 90.843819 148.14001 
L 91.100947 146.296811 
L 91.484266 144.453612 
L 91.983392 142.610413 
L 92.585356 140.767213 
L 93.275373 138.924014 
L 94.037613 137.080815 
L 94.855914 135.237616 
L 95.714401 133.394417 
L 96.597971 131.551218 
L 97.492639 129.708019 
L 98.385754 127.86482 
L 99.26609 126.021621 
L 100.123872 124.178421 
L 100.950725 122.335222 
L 101.739616 120.492023 
L 102.48477 118.648824 
L 103.181615 116.805625 
L 103.826716 114.962426 
L 104.417741 113.119227 
L 104.953413 111.276028 
L 105.433465 109.432829 
L 105.858578 107.589629 
L 106.230289 105.74643 
L 106.550888 103.903231 
L 106.823277 102.060032 
L 107.050827 100.216833 
L 107.237215 98.373634 
L 107.386272 96.530435 
L 107.501847 94.687236 
L 107.587687 92.844037 
L 107.647359 91.000837 
L 107.684197 89.157638 
L 107.701291 87.314439 
L 107.701499 85.47124 
L 107.687492 83.628041 
L 107.661799 81.784842 
L 107.626864 79.941643 
L 107.585095 78.098444 
L 107.53889 76.255245 
L 107.490647 74.412045 
L 107.44274 72.568846 
L 107.397476 70.725647 
L 107.357025 68.882448 
L 107.323338 67.039249 
L 107.298056 65.19605 
L 107.282432 63.352851 
L 107.277262 61.509652 
L 108.722738 61.509652 
L 108.722738 61.509652 
L 108.717568 63.352851 
L 108.701944 65.19605 
L 108.676662 67.039249 
L 108.642975 68.882448 
L 108.602524 70.725647 
L 108.55726 72.568846 
L 108.509353 74.412045 
L 108.46111 76.255245 
L 108.414905 78.098444 
L 108.373136 79.941643 
L 108.338201 81.784842 
L 108.312508 83.628041 
L 108.298501 85.47124 
L 108.298709 87.314439 
L 108.315803 89.157638 
L 108.352641 91.000837 
L 108.412313 92.844037 
L 108.498153 94.687236 
L 108.613728 96.530435 
L 108.762785 98.373634 
L 108.949173 100.216833 
L 109.176723 102.060032 
L 109.449112 103.903231 
L 109.769711 105.74643 
L 110.141422 107.589629 
L 110.566535 109.432829 
L 111.046587 111.276028 
L 111.582259 113.119227 
L 112.173284 114.962426 
L 112.818385 116.805625 
L 113.51523 118.648824 
L 114.260384 120.492023 
L 115.049275 122.335222 
L 115.876128 124.178421 
L 116.73391 126.021621 
L 117.614246 127.86482 
L 118.507361 129.708019 
L 119.402029 131.551218 
L 120.285599 133.394417 
L 121.144086 135.237616 
L 121.962387 137.080815 
L 122.724627 138.924014 
L 123.414644 140.767213 
L 124.016608 142.610413 
L 124.515734 144.453612 
L 124.899053 146.296811 
L 125.156181 148.14001 
L 125.28 149.983209 
L 125.267202 151.826408 
L 125.118626 153.669607 
L 124.839348 155.512806 
L 124.438497 157.356005 
L 123.928824 159.199205 
L 123.326032 161.042404 
L 122.647938 162.885603 
L 121.913542 164.728802 
L 121.142059 166.572001 
L 120.35201 168.4152 
L 119.560429 170.258399 
L 118.782232 172.101598 
L 118.029778 173.944797 
L 117.312633 175.787997 
L 116.637528 177.631196 
L 116.00848 179.474395 
L 115.42705 181.317594 
L 114.892695 183.160793 
L 114.403181 185.003992 
L 113.955019 186.847191 
L 113.543898 188.69039 
L 113.165091 190.533589 
L 112.813821 192.376789 
L 112.485573 194.219988 
L 112.176349 196.063187 
L 111.882865 197.906386 
L 111.602678 199.749585 
L 111.334256 201.592784 
L 111.076989 203.435983 
L 110.831135 205.279182 
L 110.59772 207.122381 
L 110.378384 208.965581 
L 110.175198 210.80878 
L 109.990439 212.651979 
L 109.826359 214.495178 
L 109.68495 216.338377 
L 109.567713 218.181576 
L 109.475467 220.024775 
L 109.408192 221.867974 
L 109.364928 223.711173 
L 109.343742 225.554373 
L 109.341761 227.397572 
L 109.355279 229.240771 
L 109.379933 231.08397 
L 109.410925 232.927169 
L 109.443298 234.770368 
L 109.472217 236.613567 
L 109.493258 238.456766 
L 109.502662 240.299965 
L 109.49755 242.143165 
L 109.476061 243.986364 
L 109.476061 243.986364 
z
" clip-path="url(#p2c86dd1d17)" style="fill: none; stroke: #000000; stroke-opacity: 0.3"/>
   </g>
   <g id="FillBetweenPolyCollection_12">
    <path d="M 109.793516 222.832478 
L 106.206484 222.832478 
L 106.111716 221.499831 
L 106.01915 220.167183 
L 105.92762 218.834536 
L 105.83543 217.501888 
L 105.740371 216.169241 
L 105.639764 214.836593 
L 105.53053 213.503946 
L 105.4093 212.171298 
L 105.272538 210.838651 
L 105.116697 209.506003 
L 104.938386 208.173356 
L 104.734544 206.840708 
L 104.502609 205.508061 
L 104.240676 204.175413 
L 103.947628 202.842766 
L 103.623235 201.510118 
L 103.268204 200.177471 
L 102.884189 198.844823 
L 102.473741 197.512176 
L 102.040209 196.179528 
L 101.587595 194.846881 
L 101.120367 193.514233 
L 100.643242 192.181586 
L 100.160961 190.848938 
L 99.678055 189.516291 
L 99.198633 188.183643 
L 98.7262 186.850996 
L 98.263516 185.518348 
L 97.812517 184.185701 
L 97.374281 182.853053 
L 96.949073 181.520406 
L 96.536431 180.187758 
L 96.135318 178.855111 
L 95.744299 177.522463 
L 95.361754 176.189816 
L 94.986095 174.857168 
L 94.615983 173.524521 
L 94.25052 172.191873 
L 93.889411 170.859226 
L 93.53308 169.526578 
L 93.182746 168.193931 
L 92.840437 166.861283 
L 92.508966 165.528636 
L 92.191854 164.195988 
L 91.893218 162.863341 
L 91.617632 161.530693 
L 91.369964 160.198046 
L 91.155206 158.865398 
L 90.978302 157.532751 
L 90.843979 156.200103 
L 90.756595 154.867456 
L 90.72 153.534808 
L 90.737417 152.202161 
L 90.811341 150.869513 
L 90.943464 149.536866 
L 91.134619 148.204218 
L 91.384739 146.871571 
L 91.692846 145.538923 
L 92.057051 144.206276 
L 92.474578 142.873628 
L 92.941809 141.540981 
L 93.454342 140.208333 
L 94.007072 138.875686 
L 94.594289 137.543038 
L 95.209793 136.210391 
L 95.847016 134.877743 
L 96.499162 133.545096 
L 97.159351 132.212448 
L 97.820758 130.879801 
L 98.47676 129.547153 
L 99.121066 128.214506 
L 99.747841 126.881858 
L 100.351813 125.549211 
L 100.928361 124.216563 
L 101.473583 122.883916 
L 101.984346 121.551268 
L 102.458309 120.218621 
L 102.893931 118.885973 
L 103.290456 117.553326 
L 103.647884 116.220678 
L 103.966924 114.888031 
L 104.248938 113.555383 
L 104.495867 112.222736 
L 104.710157 110.890088 
L 104.894671 109.557441 
L 105.052601 108.224793 
L 105.187371 106.892146 
L 105.302544 105.559498 
L 105.401726 104.226851 
L 105.48847 102.894204 
L 105.566193 101.561556 
L 105.638083 100.228909 
L 105.707038 98.896261 
L 105.77559 97.563614 
L 105.845866 96.230966 
L 105.919547 94.898319 
L 105.997853 93.565671 
L 106.081541 92.233024 
L 106.170919 90.900376 
L 109.829081 90.900376 
L 109.829081 90.900376 
L 109.918459 92.233024 
L 110.002147 93.565671 
L 110.080453 94.898319 
L 110.154134 96.230966 
L 110.22441 97.563614 
L 110.292962 98.896261 
L 110.361917 100.228909 
L 110.433807 101.561556 
L 110.51153 102.894204 
L 110.598274 104.226851 
L 110.697456 105.559498 
L 110.812629 106.892146 
L 110.947399 108.224793 
L 111.105329 109.557441 
L 111.289843 110.890088 
L 111.504133 112.222736 
L 111.751062 113.555383 
L 112.033076 114.888031 
L 112.352116 116.220678 
L 112.709544 117.553326 
L 113.106069 118.885973 
L 113.541691 120.218621 
L 114.015654 121.551268 
L 114.526417 122.883916 
L 115.071639 124.216563 
L 115.648187 125.549211 
L 116.252159 126.881858 
L 116.878934 128.214506 
L 117.52324 129.547153 
L 118.179242 130.879801 
L 118.840649 132.212448 
L 119.500838 133.545096 
L 120.152984 134.877743 
L 120.790207 136.210391 
L 121.405711 137.543038 
L 121.992928 138.875686 
L 122.545658 140.208333 
L 123.058191 141.540981 
L 123.525422 142.873628 
L 123.942949 144.206276 
L 124.307154 145.538923 
L 124.615261 146.871571 
L 124.865381 148.204218 
L 125.056536 149.536866 
L 125.188659 150.869513 
L 125.262583 152.202161 
L 125.28 153.534808 
L 125.243405 154.867456 
L 125.156021 156.200103 
L 125.021698 157.532751 
L 124.844794 158.865398 
L 124.630036 160.198046 
L 124.382368 161.530693 
L 124.106782 162.863341 
L 123.808146 164.195988 
L 123.491034 165.528636 
L 123.159563 166.861283 
L 122.817254 168.193931 
L 122.46692 169.526578 
L 122.110589 170.859226 
L 121.74948 172.191873 
L 121.384017 173.524521 
L 121.013905 174.857168 
L 120.638246 176.189816 
L 120.255701 177.522463 
L 119.864682 178.855111 
L 119.463569 180.187758 
L 119.050927 181.520406 
L 118.625719 182.853053 
L 118.187483 184.185701 
L 117.736484 185.518348 
L 117.2738 186.850996 
L 116.801367 188.183643 
L 116.321945 189.516291 
L 115.839039 190.848938 
L 115.356758 192.181586 
L 114.879633 193.514233 
L 114.412405 194.846881 
L 113.959791 196.179528 
L 113.526259 197.512176 
L 113.115811 198.844823 
L 112.731796 200.177471 
L 112.376765 201.510118 
L 112.052372 202.842766 
L 111.759324 204.175413 
L 111.497391 205.508061 
L 111.265456 206.840708 
L 111.061614 208.173356 
L 110.883303 209.506003 
L 110.727462 210.838651 
L 110.5907 212.171298 
L 110.46947 213.503946 
L 110.360236 214.836593 
L 110.259629 216.169241 
L 110.16457 217.501888 
L 110.07238 218.834536 
L 109.98085 220.167183 
L 109.888284 221.499831 
L 109.793516 222.832478 
L 109.793516 222.832478 
z
" clip-path="url(#p2c86dd1d17)" style="fill: none; stroke: #000000; stroke-opacity: 0.3"/>
   </g>
   <g id="FillBetweenPolyCollection_13">
    <path d="M 108.561156 319.690865 
L 107.438844 319.690865 
L 107.446393 317.26471 
L 107.468439 314.838555 
L 107.503248 312.412399 
L 107.548185 309.986244 
L 107.60004 307.560089 
L 107.655407 305.133933 
L 107.711043 302.707778 
L 107.764173 300.281623 
L 107.812675 297.855467 
L 107.855175 295.429312 
L 107.891017 293.003156 
L 107.920163 290.577001 
L 107.943041 288.150846 
L 107.960379 285.72469 
L 107.973041 283.298535 
L 107.981896 280.87238 
L 107.987715 278.446224 
L 107.991106 276.020069 
L 107.992468 273.593913 
L 107.991971 271.167758 
L 107.989549 268.741603 
L 107.984894 266.315447 
L 107.977475 263.889292 
L 107.966557 261.463137 
L 107.951249 259.036981 
L 107.930573 256.610826 
L 107.90356 254.18467 
L 107.869368 251.758515 
L 107.827409 249.33236 
L 107.777451 246.906204 
L 107.71968 244.480049 
L 107.654677 242.053894 
L 107.583287 239.627738 
L 107.506377 237.201583 
L 107.424478 234.775428 
L 107.33736 232.349272 
L 107.243603 229.923117 
L 107.140229 227.496961 
L 107.022494 225.070806 
L 106.883904 222.644651 
L 106.716491 220.218495 
L 106.511375 217.79234 
L 106.259539 215.366185 
L 105.952761 212.940029 
L 105.584547 210.513874 
L 105.15095 208.087718 
L 104.651107 205.661563 
L 104.087409 203.235408 
L 103.465235 200.809252 
L 102.792285 198.383097 
L 102.077614 195.956942 
L 101.330536 193.530786 
L 100.559617 191.104631 
L 99.771943 188.678475 
L 98.972839 186.25232 
L 98.166073 183.826165 
L 97.35452 181.400009 
L 96.541157 178.973854 
L 95.730192 176.547699 
L 94.928162 174.121543 
L 94.144791 171.695388 
L 93.393541 169.269233 
L 92.691733 166.843077 
L 92.060235 164.416922 
L 91.522661 161.990766 
L 91.104063 159.564611 
L 90.829137 157.138456 
L 90.72 154.7123 
L 90.793728 152.286145 
L 91.059943 149.85999 
L 91.518833 147.433834 
L 92.160019 145.007679 
L 92.96259 142.581523 
L 93.89647 140.155368 
L 94.925016 137.729213 
L 96.008504 135.303057 
L 97.107967 132.876902 
L 98.188749 130.450747 
L 99.223218 128.024591 
L 100.192243 125.598436 
L 101.0853 123.17228 
L 101.899369 120.746125 
L 102.636968 118.31997 
L 103.303815 115.893814 
L 103.906602 113.467659 
L 104.451275 111.041504 
L 104.94204 108.615348 
L 105.38113 106.189193 
L 105.769219 103.763038 
L 106.106245 101.336882 
L 106.392379 98.910727 
L 106.628883 96.484571 
L 106.818686 94.058416 
L 106.966568 91.632261 
L 107.078958 89.206105 
L 107.163419 86.77995 
L 107.227932 84.353795 
L 107.280131 81.927639 
L 107.326615 79.501484 
L 108.673385 79.501484 
L 108.673385 79.501484 
L 108.719869 81.927639 
L 108.772068 84.353795 
L 108.836581 86.77995 
L 108.921042 89.206105 
L 109.033432 91.632261 
L 109.181314 94.058416 
L 109.371117 96.484571 
L 109.607621 98.910727 
L 109.893755 101.336882 
L 110.230781 103.763038 
L 110.61887 106.189193 
L 111.05796 108.615348 
L 111.548725 111.041504 
L 112.093398 113.467659 
L 112.696185 115.893814 
L 113.363032 118.31997 
L 114.100631 120.746125 
L 114.9147 123.17228 
L 115.807757 125.598436 
L 116.776782 128.024591 
L 117.811251 130.450747 
L 118.892033 132.876902 
L 119.991496 135.303057 
L 121.074984 137.729213 
L 122.10353 140.155368 
L 123.03741 142.581523 
L 123.839981 145.007679 
L 124.481167 147.433834 
L 124.940057 149.85999 
L 125.206272 152.286145 
L 125.28 154.7123 
L 125.170863 157.138456 
L 124.895937 159.564611 
L 124.477339 161.990766 
L 123.939765 164.416922 
L 123.308267 166.843077 
L 122.606459 169.269233 
L 121.855209 171.695388 
L 121.071838 174.121543 
L 120.269808 176.547699 
L 119.458843 178.973854 
L 118.64548 181.400009 
L 117.833927 183.826165 
L 117.027161 186.25232 
L 116.228057 188.678475 
L 115.440383 191.104631 
L 114.669464 193.530786 
L 113.922386 195.956942 
L 113.207715 198.383097 
L 112.534765 200.809252 
L 111.912591 203.235408 
L 111.348893 205.661563 
L 110.84905 208.087718 
L 110.415453 210.513874 
L 110.047239 212.940029 
L 109.740461 215.366185 
L 109.488625 217.79234 
L 109.283509 220.218495 
L 109.116096 222.644651 
L 108.977506 225.070806 
L 108.859771 227.496961 
L 108.756397 229.923117 
L 108.66264 232.349272 
L 108.575522 234.775428 
L 108.493623 237.201583 
L 108.416713 239.627738 
L 108.345323 242.053894 
L 108.28032 244.480049 
L 108.222549 246.906204 
L 108.172591 249.33236 
L 108.130632 251.758515 
L 108.09644 254.18467 
L 108.069427 256.610826 
L 108.048751 259.036981 
L 108.033443 261.463137 
L 108.022525 263.889292 
L 108.015106 266.315447 
L 108.010451 268.741603 
L 108.008029 271.167758 
L 108.007532 273.593913 
L 108.008894 276.020069 
L 108.012285 278.446224 
L 108.018104 280.87238 
L 108.026959 283.298535 
L 108.039621 285.72469 
L 108.056959 288.150846 
L 108.079837 290.577001 
L 108.108983 293.003156 
L 108.144825 295.429312 
L 108.187325 297.855467 
L 108.235827 300.281623 
L 108.288957 302.707778 
L 108.344593 305.133933 
L 108.39996 307.560089 
L 108.451815 309.986244 
L 108.496752 312.412399 
L 108.531561 314.838555 
L 108.553607 317.26471 
L 108.561156 319.690865 
L 108.561156 319.690865 
z
" clip-path="url(#p2c86dd1d17)" style="fill: none; stroke: #000000; stroke-opacity: 0.3"/>
   </g>
   <g id="FillBetweenPolyCollection_14">
    <path d="M 109.421043 228.248826 
L 106.578957 228.248826 
L 106.493667 226.908759 
L 106.411908 225.568693 
L 106.333214 224.228626 
L 106.256687 222.88856 
L 106.181012 221.548494 
L 106.104497 220.208427 
L 106.025124 218.868361 
L 105.940632 217.528294 
L 105.848598 216.188228 
L 105.746537 214.848161 
L 105.631996 213.508095 
L 105.502662 212.168028 
L 105.356459 210.827962 
L 105.191644 209.487895 
L 105.0069 208.147829 
L 104.801409 206.807762 
L 104.574917 205.467696 
L 104.327783 204.127629 
L 104.06099 202.787563 
L 103.776137 201.447496 
L 103.475386 200.10743 
L 103.161382 198.767363 
L 102.837117 197.427297 
L 102.505779 196.08723 
L 102.170556 194.747164 
L 101.834437 193.407098 
L 101.500003 192.067031 
L 101.169239 190.726965 
L 100.84338 189.386898 
L 100.522798 188.046832 
L 100.206958 186.706765 
L 99.894439 185.366699 
L 99.583027 184.026632 
L 99.269869 182.686566 
L 98.951687 181.346499 
L 98.62503 180.006433 
L 98.286539 178.666366 
L 97.933225 177.3263 
L 97.562719 175.986233 
L 97.173483 174.646167 
L 96.76498 173.3061 
L 96.337779 171.966034 
L 95.893598 170.625967 
L 95.435294 169.285901 
L 94.966793 167.945834 
L 94.492975 166.605768 
L 94.019526 165.265702 
L 93.552764 163.925635 
L 93.099451 162.585569 
L 92.666601 161.245502 
L 92.261285 159.905436 
L 91.890445 158.565369 
L 91.56072 157.225303 
L 91.278277 155.885236 
L 91.048658 154.54517 
L 90.876643 153.205103 
L 90.766124 151.865037 
L 90.72 150.52497 
L 90.740089 149.184904 
L 90.827067 147.844837 
L 90.980435 146.504771 
L 91.198515 145.164704 
L 91.478484 143.824638 
L 91.816447 142.484571 
L 92.207542 141.144505 
L 92.646086 139.804439 
L 93.125751 138.464372 
L 93.63976 137.124306 
L 94.181105 135.784239 
L 94.742763 134.444173 
L 95.317907 133.104106 
L 95.900097 131.76404 
L 96.483447 130.423973 
L 97.062746 129.083907 
L 97.633545 127.74384 
L 98.192192 126.403774 
L 98.73583 125.063707 
L 99.262358 123.723641 
L 99.770351 122.383574 
L 100.258966 121.043508 
L 100.72784 119.703441 
L 101.176973 118.363375 
L 101.606626 117.023308 
L 102.017229 115.683242 
L 102.409306 114.343175 
L 102.783421 113.003109 
L 103.140137 111.663043 
L 103.479997 110.322976 
L 103.80352 108.98291 
L 104.111199 107.642843 
L 104.40351 106.302777 
L 104.680924 104.96271 
L 104.94391 103.622644 
L 105.192941 102.282577 
L 105.428493 100.942511 
L 105.651041 99.602444 
L 105.861046 98.262378 
L 106.058949 96.922311 
L 106.245156 95.582245 
L 109.754844 95.582245 
L 109.754844 95.582245 
L 109.941051 96.922311 
L 110.138954 98.262378 
L 110.348959 99.602444 
L 110.571507 100.942511 
L 110.807059 102.282577 
L 111.05609 103.622644 
L 111.319076 104.96271 
L 111.59649 106.302777 
L 111.888801 107.642843 
L 112.19648 108.98291 
L 112.520003 110.322976 
L 112.859863 111.663043 
L 113.216579 113.003109 
L 113.590694 114.343175 
L 113.982771 115.683242 
L 114.393374 117.023308 
L 114.823027 118.363375 
L 115.27216 119.703441 
L 115.741034 121.043508 
L 116.229649 122.383574 
L 116.737642 123.723641 
L 117.26417 125.063707 
L 117.807808 126.403774 
L 118.366455 127.74384 
L 118.937254 129.083907 
L 119.516553 130.423973 
L 120.099903 131.76404 
L 120.682093 133.104106 
L 121.257237 134.444173 
L 121.818895 135.784239 
L 122.36024 137.124306 
L 122.874249 138.464372 
L 123.353914 139.804439 
L 123.792458 141.144505 
L 124.183553 142.484571 
L 124.521516 143.824638 
L 124.801485 145.164704 
L 125.019565 146.504771 
L 125.172933 147.844837 
L 125.259911 149.184904 
L 125.28 150.52497 
L 125.233876 151.865037 
L 125.123357 153.205103 
L 124.951342 154.54517 
L 124.721723 155.885236 
L 124.43928 157.225303 
L 124.109555 158.565369 
L 123.738715 159.905436 
L 123.333399 161.245502 
L 122.900549 162.585569 
L 122.447236 163.925635 
L 121.980474 165.265702 
L 121.507025 166.605768 
L 121.033207 167.945834 
L 120.564706 169.285901 
L 120.106402 170.625967 
L 119.662221 171.966034 
L 119.23502 173.3061 
L 118.826517 174.646167 
L 118.437281 175.986233 
L 118.066775 177.3263 
L 117.713461 178.666366 
L 117.37497 180.006433 
L 117.048313 181.346499 
L 116.730131 182.686566 
L 116.416973 184.026632 
L 116.105561 185.366699 
L 115.793042 186.706765 
L 115.477202 188.046832 
L 115.15662 189.386898 
L 114.830761 190.726965 
L 114.499997 192.067031 
L 114.165563 193.407098 
L 113.829444 194.747164 
L 113.494221 196.08723 
L 113.162883 197.427297 
L 112.838618 198.767363 
L 112.524614 200.10743 
L 112.223863 201.447496 
L 111.93901 202.787563 
L 111.672217 204.127629 
L 111.425083 205.467696 
L 111.198591 206.807762 
L 110.9931 208.147829 
L 110.808356 209.487895 
L 110.643541 210.827962 
L 110.497338 212.168028 
L 110.368004 213.508095 
L 110.253463 214.848161 
L 110.151402 216.188228 
L 110.059368 217.528294 
L 109.974876 218.868361 
L 109.895503 220.208427 
L 109.818988 221.548494 
L 109.743313 222.88856 
L 109.666786 224.228626 
L 109.588092 225.568693 
L 109.506333 226.908759 
L 109.421043 228.248826 
L 109.421043 228.248826 
z
" clip-path="url(#p2c86dd1d17)" style="fill: none; stroke: #000000; stroke-opacity: 0.3"/>
   </g>
   <g id="matplotlib.axis_1">
    <g id="xtick_1">
     <g id="line2d_1">
      <defs>
       <path id="m7f8331761b" d="M 0 0 
L 0 3.5 
" style="stroke: #000000; stroke-width: 0.8"/>
      </defs>
      <g>
       <use xlink:href="#m7f8331761b" x="50.4" y="291.6" style="stroke: #000000; stroke-width: 0.8"/>
      </g>
     </g>
     <g id="text_1">
      <text style="font-size: 10px; font-family: 'DejaVu Sans', 'Bitstream Vera Sans', 'Computer Modern Sans Serif', 'Lucida Grande', 'Verdana', 'Geneva', 'Lucid', 'Arial', 'Helvetica', 'Avant Garde', sans-serif; text-anchor: middle" x="50.4" y="306.198438" transform="rotate(-0 50.4 306.198438)">0.3</text>
     </g>
    </g>
    <g id="xtick_2">
     <g id="line2d_2">
      <g>
       <use xlink:href="#m7f8331761b" x="108" y="291.6" style="stroke: #000000; stroke-width: 0.8"/>
      </g>
     </g>
     <g id="text_2">
      <text style="font-size: 10px; font-family: 'DejaVu Sans', 'Bitstream Vera Sans', 'Computer Modern Sans Serif', 'Lucida Grande', 'Verdana', 'Geneva', 'Lucid', 'Arial', 'Helvetica', 'Avant Garde', sans-serif; text-anchor: middle" x="108" y="306.198438" transform="rotate(-0 108 306.198438)">0.6</text>
     </g>
    </g>
   </g>
   <g id="matplotlib.axis_2">
    <g id="ytick_1">
     <g id="line2d_3">
      <defs>
       <path id="m324b81a135" d="M 0 0 
L -3.5 0 
" style="stroke: #000000; stroke-width: 0.8"/>
      </defs>
      <g>
       <use xlink:href="#m324b81a135" x="21.6" y="291.6" style="stroke: #000000; stroke-width: 0.8"/>
      </g>
     </g>
    </g>
    <g id="ytick_2">
     <g id="line2d_4">
      <g>
       <use xlink:href="#m324b81a135" x="21.6" y="199.8" style="stroke: #000000; stroke-width: 0.8"/>
      </g>
     </g>
    </g>
    <g id="ytick_3">
     <g id="line2d_5">
      <g>
       <use xlink:href="#m324b81a135" x="21.6" y="108" style="stroke: #000000; stroke-width: 0.8"/>
      </g>
     </g>
    </g>
    <g id="ytick_4">
     <g id="line2d_6">
      <g>
       <use xlink:href="#m324b81a135" x="21.6" y="16.2" style="stroke: #000000; stroke-width: 0.8"/>
      </g>
     </g>
    </g>
   </g>
   <g id="line2d_7">
    <path d="M 50.4 269.568 
L 50.4 264.06 
" clip-path="url(#p2c86dd1d17)" style="fill: none; stroke: #000000; stroke-linecap: square"/>
   </g>
   <g id="line2d_8">
    <path d="M 50.4 269.568 
L 108 269.568 
" clip-path="url(#p2c86dd1d17)" style="fill: none; stroke: #000000; stroke-linecap: square"/>
   </g>
   <g id="line2d_9">
    <path d="M 108 269.568 
L 108 264.06 
" clip-path="url(#p2c86dd1d17)" style="fill: none; stroke: #000000; stroke-linecap: square"/>
   </g>
   <g id="patch_3">
    <path d="M 21.6 291.6 
L 21.6 16.2 
" style="fill: none; stroke: #000000; stroke-width: 0.8; stroke-linejoin: miter; stroke-linecap: square"/>
   </g>
   <g id="patch_4">
    <path d="M 136.8 291.6 
L 136.8 16.2 
" style="fill: none; stroke: #000000; stroke-width: 0.8; stroke-linejoin: miter; stroke-linecap: square"/>
   </g>
   <g id="patch_5">
    <path d="M 21.6 291.6 
L 136.8 291.6 
" style="fill: none; stroke: #000000; stroke-width: 0.8; stroke-linejoin: miter; stroke-linecap: square"/>
   </g>
   <g id="patch_6">
    <path d="M 21.6 16.2 
L 136.8 16.2 
" style="fill: none; stroke: #000000; stroke-width: 0.8; stroke-linejoin: miter; stroke-linecap: square"/>
   </g>
   <g id="text_3">
    <text style="font-weight: 700; font-size: 12px; font-family: 'DejaVu Sans', 'Bitstream Vera Sans', 'Computer Modern Sans Serif', 'Lucida Grande', 'Verdana', 'Geneva', 'Lucid', 'Arial', 'Helvetica', 'Avant Garde', sans-serif; text-anchor: middle" x="50.4" y="289.104375" transform="rotate(-0 50.4 289.104375)">#17</text>
   </g>
   <g id="text_4">
    <text style="font-weight: 700; font-size: 12px; font-family: 'DejaVu Sans', 'Bitstream Vera Sans', 'Computer Modern Sans Serif', 'Lucida Grande', 'Verdana', 'Geneva', 'Lucid', 'Arial', 'Helvetica', 'Avant Garde', sans-serif; text-anchor: middle" x="108" y="289.104375" transform="rotate(-0 108 289.104375)">#31</text>
   </g>
   <g id="text_5">
    <text style="font-size: 12px; font-family: 'DejaVu Sans', 'Bitstream Vera Sans', 'Computer Modern Sans Serif', 'Lucida Grande', 'Verdana', 'Geneva', 'Lucid', 'Arial', 'Helvetica', 'Avant Garde', sans-serif; text-anchor: middle" x="79.2" y="268.449375" transform="rotate(-0 79.2 268.449375)">****</text>
   </g>
   <g id="line2d_10">
    <path d="M 21.6 109.784146 
L 136.8 109.784146 
" clip-path="url(#p2c86dd1d17)" style="fill: none; stroke-dasharray: 3.7,1.6; stroke-dashoffset: 0; stroke: #808080; stroke-opacity: 0.7"/>
   </g>
   <g id="line2d_11">
    <path d="M 21.6 152.194513 
L 136.8 152.194513 
" clip-path="url(#p2c86dd1d17)" style="fill: none; stroke-dasharray: 3.7,1.6; stroke-dashoffset: 0; stroke: #808080; stroke-opacity: 0.7"/>
   </g>
   <g id="LineCollection_1">
    <path d="M 50.4 115.453804 
L 50.4 104.114488 
" clip-path="url(#p2c86dd1d17)" style="fill: none; stroke: #000000; stroke-width: 2"/>
   </g>
   <g id="line2d_12">
    <defs>
     <path id="mf47f76c2d0" d="M 5 0 
L -5 -0 
" style="stroke: #000000; stroke-width: 2"/>
    </defs>
    <g clip-path="url(#p2c86dd1d17)">
     <use xlink:href="#mf47f76c2d0" x="50.4" y="115.453804" style="stroke: #000000; stroke-width: 2"/>
    </g>
   </g>
   <g id="line2d_13">
    <g clip-path="url(#p2c86dd1d17)">
     <use xlink:href="#mf47f76c2d0" x="50.4" y="104.114488" style="stroke: #000000; stroke-width: 2"/>
    </g>
   </g>
   <g id="LineCollection_2">
    <path d="M 108 155.796894 
L 108 148.592133 
" clip-path="url(#p2c86dd1d17)" style="fill: none; stroke: #000000; stroke-width: 2"/>
   </g>
   <g id="line2d_14">
    <g clip-path="url(#p2c86dd1d17)">
     <use xlink:href="#mf47f76c2d0" x="108" y="155.796894" style="stroke: #000000; stroke-width: 2"/>
    </g>
   </g>
   <g id="line2d_15">
    <g clip-path="url(#p2c86dd1d17)">
     <use xlink:href="#mf47f76c2d0" x="108" y="148.592133" style="stroke: #000000; stroke-width: 2"/>
    </g>
   </g>
   <g id="line2d_16">
    <defs>
     <path id="m446a041f3c" d="M 0 4 
C 1.060812 4 2.078319 3.578535 2.828427 2.828427 
C 3.578535 2.078319 4 1.060812 4 0 
C 4 -1.060812 3.578535 -2.078319 2.828427 -2.828427 
C 2.078319 -3.578535 1.060812 -4 0 -4 
C -1.060812 -4 -2.078319 -3.578535 -2.828427 -2.828427 
C -3.578535 -2.078319 -4 -1.060812 -4 0 
C -4 1.060812 -3.578535 2.078319 -2.828427 2.828427 
C -2.078319 3.578535 -1.060812 4 0 4 
z
" style="stroke: #000000"/>
    </defs>
    <g clip-path="url(#p2c86dd1d17)">
     <use xlink:href="#m446a041f3c" x="50.4" y="109.784146" style="stroke: #000000"/>
    </g>
   </g>
   <g id="line2d_17">
    <g clip-path="url(#p2c86dd1d17)">
     <use xlink:href="#m446a041f3c" x="108" y="152.194513" style="stroke: #000000"/>
    </g>
   </g>
  </g>
 </g>
 <defs>
  <clipPath id="p2c86dd1d17">
   <rect x="21.6" y="16.2" width="115.2" height="275.4"/>
  </clipPath>
 </defs>
</svg>
