<?xml version="1.0" encoding="utf-8" standalone="no"?>
<!DOCTYPE svg PUBLIC "-//W3C//DTD SVG 1.1//EN"
  "http://www.w3.org/Graphics/SVG/1.1/DTD/svg11.dtd">
<svg xmlns:xlink="http://www.w3.org/1999/xlink" width="144pt" height="324pt" viewBox="0 0 144 324" xmlns="http://www.w3.org/2000/svg" version="1.1">
 <metadata>
  <rdf:RDF xmlns:dc="http://purl.org/dc/elements/1.1/" xmlns:cc="http://creativecommons.org/ns#" xmlns:rdf="http://www.w3.org/1999/02/22-rdf-syntax-ns#">
   <cc:Work>
    <dc:type rdf:resource="http://purl.org/dc/dcmitype/StillImage"/>
    <dc:date>2025-12-08T20:09:08.991205</dc:date>
    <dc:format>image/svg+xml</dc:format>
    <dc:creator>
     <cc:Agent>
      <dc:title>Matplotlib v3.10.0, https://matplotlib.org/</dc:title>
     </cc:Agent>
    </dc:creator>
   </cc:Work>
  </rdf:RDF>
 </metadata>
 <defs>
  <style type="text/css">*{stroke-linejoin: round; stroke-linecap: butt}</style>
 </defs>
 <g id="figure_1">
  <g id="patch_1">
   <path d="M 0 324 
L 144 324 
L 144 0 
L 0 0 
z
" style="fill: #ffffff"/>
  </g>
  <g id="axes_1">
   <g id="patch_2">
    <path d="M 21.6 291.6 
L 136.8 291.6 
L 136.8 16.2 
L 21.6 16.2 
z
" style="fill: #ffffff"/>
   </g>
   <g id="FillBetweenPolyCollection_1">
    <path d="M 48.226799 159.012715 
L 44.718656 159.012715 
L 44.431918 157.708593 
L 44.117666 156.404471 
L 43.77602 155.100349 
L 43.407388 153.796228 
L 43.012445 152.492106 
L 42.5921 151.187984 
L 42.147461 149.883862 
L 41.679793 148.579741 
L 41.190479 147.275619 
L 40.68098 145.971497 
L 40.152812 144.667375 
L 39.607529 143.363254 
L 39.046726 142.059132 
L 38.472048 140.75501 
L 37.885215 139.450888 
L 37.288034 138.146767 
L 36.682405 136.842645 
L 36.070306 135.538523 
L 35.453759 134.234401 
L 34.834784 132.93028 
L 34.21534 131.626158 
L 33.597309 130.322036 
L 32.982506 129.017914 
L 32.372766 127.713793 
L 31.770102 126.409671 
L 31.176927 125.105549 
L 30.596319 123.801427 
L 30.032282 122.497306 
L 29.489952 121.193184 
L 28.975683 119.889062 
L 28.49698 118.58494 
L 28.062253 117.280819 
L 27.680394 115.976697 
L 27.360223 114.672575 
L 27.109864 113.368453 
L 26.936131 112.064332 
L 26.844019 110.76021 
L 26.836364 109.456088 
L 26.913707 108.151966 
L 27.074404 106.847845 
L 27.314911 105.543723 
L 27.630232 104.239601 
L 28.014417 102.935479 
L 28.461042 101.631358 
L 28.963601 100.327236 
L 29.515749 99.023114 
L 30.111383 97.718992 
L 30.744573 96.41487 
L 31.409377 95.110749 
L 32.099604 93.806627 
L 32.808594 92.502505 
L 33.529062 91.198383 
L 34.25307 89.894262 
L 34.972124 88.59014 
L 35.677427 87.286018 
L 36.360231 85.981896 
L 37.012264 84.677775 
L 37.626176 83.373653 
L 38.195943 82.069531 
L 38.717192 80.765409 
L 39.187387 79.461288 
L 39.605881 78.157166 
L 39.973803 76.853044 
L 40.293818 75.548922 
L 40.569762 74.244801 
L 40.806225 72.940679 
L 41.008098 71.636557 
L 41.180157 70.332435 
L 41.326718 69.028314 
L 41.451392 67.724192 
L 41.556977 66.42007 
L 41.645468 65.115948 
L 41.718191 63.811827 
L 41.776033 62.507705 
L 41.819726 61.203583 
L 41.850144 59.899461 
L 41.868588 58.59534 
L 41.877004 57.291218 
L 41.878113 55.987096 
L 41.875447 54.682974 
L 41.873268 53.378853 
L 41.876385 52.074731 
L 41.889889 50.770609 
L 41.918825 49.466487 
L 41.967841 48.162366 
L 42.040837 46.858244 
L 42.140668 45.554122 
L 42.268915 44.25 
L 42.425753 42.945879 
L 42.609936 41.641757 
L 42.818883 40.337635 
L 43.048872 39.033513 
L 43.295305 37.729392 
L 43.55302 36.42527 
L 43.816624 35.121148 
L 44.080805 33.817026 
L 44.340602 32.512905 
L 44.591622 31.208783 
L 44.830182 29.904661 
L 48.115273 29.904661 
L 48.115273 29.904661 
L 48.353832 31.208783 
L 48.604852 32.512905 
L 48.86465 33.817026 
L 49.12883 35.121148 
L 49.392435 36.42527 
L 49.65015 37.729392 
L 49.896582 39.033513 
L 50.126572 40.337635 
L 50.335519 41.641757 
L 50.519702 42.945879 
L 50.67654 44.25 
L 50.804787 45.554122 
L 50.904618 46.858244 
L 50.977614 48.162366 
L 51.026629 49.466487 
L 51.055566 50.770609 
L 51.06907 52.074731 
L 51.072187 53.378853 
L 51.070008 54.682974 
L 51.067342 55.987096 
L 51.068451 57.291218 
L 51.076866 58.59534 
L 51.095311 59.899461 
L 51.125729 61.203583 
L 51.169421 62.507705 
L 51.227264 63.811827 
L 51.299987 65.115948 
L 51.388477 66.42007 
L 51.494062 67.724192 
L 51.618737 69.028314 
L 51.765298 70.332435 
L 51.937357 71.636557 
L 52.139229 72.940679 
L 52.375692 74.244801 
L 52.651637 75.548922 
L 52.971651 76.853044 
L 53.339574 78.157166 
L 53.758067 79.461288 
L 54.228263 80.765409 
L 54.749511 82.069531 
L 55.319279 83.373653 
L 55.93319 84.677775 
L 56.585223 85.981896 
L 57.268027 87.286018 
L 57.973331 88.59014 
L 58.692385 89.894262 
L 59.416392 91.198383 
L 60.136861 92.502505 
L 60.845851 93.806627 
L 61.536078 95.110749 
L 62.200881 96.41487 
L 62.834071 97.718992 
L 63.429706 99.023114 
L 63.981853 100.327236 
L 64.484412 101.631358 
L 64.931037 102.935479 
L 65.315222 104.239601 
L 65.630544 105.543723 
L 65.871051 106.847845 
L 66.031747 108.151966 
L 66.109091 109.456088 
L 66.101435 110.76021 
L 66.009324 112.064332 
L 65.835591 113.368453 
L 65.585231 114.672575 
L 65.26506 115.976697 
L 64.883202 117.280819 
L 64.448474 118.58494 
L 63.969771 119.889062 
L 63.455502 121.193184 
L 62.913172 122.497306 
L 62.349136 123.801427 
L 61.768528 125.105549 
L 61.175352 126.409671 
L 60.572689 127.713793 
L 59.962949 129.017914 
L 59.348146 130.322036 
L 58.730115 131.626158 
L 58.110671 132.93028 
L 57.491695 134.234401 
L 56.875149 135.538523 
L 56.26305 136.842645 
L 55.65742 138.146767 
L 55.060239 139.450888 
L 54.473406 140.75501 
L 53.898729 142.059132 
L 53.337925 143.363254 
L 52.792642 144.667375 
L 52.264474 145.971497 
L 51.754975 147.275619 
L 51.265661 148.579741 
L 50.797993 149.883862 
L 50.353354 151.187984 
L 49.933009 152.492106 
L 49.538066 153.796228 
L 49.169435 155.100349 
L 48.827789 156.404471 
L 48.513537 157.708593 
L 48.226799 159.012715 
L 48.226799 159.012715 
z
" clip-path="url(#pc1905f4b1c)" style="fill: none; stroke: #000000; stroke-opacity: 0.3"/>
   </g>
   <g id="FillBetweenPolyCollection_2">
    <path d="M 47.956285 163.957149 
L 44.98917 163.957149 
L 44.72745 162.522085 
L 44.440605 161.087021 
L 44.128708 159.651957 
L 43.791931 158.216892 
L 43.430584 156.781828 
L 43.04516 155.346764 
L 42.636376 153.9117 
L 42.205168 152.476636 
L 41.752624 151.041572 
L 41.27982 149.606508 
L 40.787579 148.171443 
L 40.276181 146.736379 
L 39.745067 145.301315 
L 39.19262 143.866251 
L 38.616095 142.431187 
L 38.011751 140.996123 
L 37.375242 139.561058 
L 36.702252 138.125994 
L 35.989332 136.69093 
L 35.234874 135.255866 
L 34.440076 133.820802 
L 33.609791 132.385738 
L 32.753107 130.950674 
L 31.883546 129.515609 
L 31.018807 128.080545 
L 30.180007 126.645481 
L 29.390461 125.210417 
L 28.674072 123.775353 
L 28.053476 122.340289 
L 27.548132 120.905225 
L 27.172561 119.47016 
L 26.934957 118.035096 
L 26.836364 116.600032 
L 26.870541 115.164968 
L 27.024593 113.729904 
L 27.280299 112.29484 
L 27.616012 110.859776 
L 28.00888 109.424711 
L 28.437102 107.989647 
L 28.881912 106.554583 
L 29.329022 105.119519 
L 29.769354 103.684455 
L 30.198989 102.249391 
L 30.618416 100.814327 
L 31.031271 99.379262 
L 31.442828 97.944198 
L 31.858523 96.509134 
L 32.282773 95.07407 
L 32.718242 93.639006 
L 33.165608 92.203942 
L 33.623762 90.768878 
L 34.090314 89.333813 
L 34.562202 87.898749 
L 35.03625 86.463685 
L 35.509545 85.028621 
L 35.979606 83.593557 
L 36.444354 82.158493 
L 36.901991 80.723428 
L 37.350864 79.288364 
L 37.789422 77.8533 
L 38.216281 76.418236 
L 38.6304 74.983172 
L 39.031295 73.548108 
L 39.41921 72.113044 
L 39.795167 70.677979 
L 40.160833 69.242915 
L 40.51823 67.807851 
L 40.869319 66.372787 
L 41.215557 64.937723 
L 41.557528 63.502659 
L 41.894736 62.067595 
L 42.225593 60.63253 
L 42.547619 59.197466 
L 42.857784 57.762402 
L 43.152923 56.327338 
L 43.430122 54.892274 
L 43.687012 53.45721 
L 43.921927 52.022146 
L 44.133926 50.587081 
L 44.322708 49.152017 
L 44.488491 47.716953 
L 44.63189 46.281889 
L 44.75385 44.846825 
L 44.855635 43.411761 
L 44.938862 41.976697 
L 45.005561 40.541632 
L 45.058198 39.106568 
L 45.099662 37.671504 
L 45.133176 36.23644 
L 45.162153 34.801376 
L 45.189999 33.366312 
L 45.219909 31.931248 
L 45.254662 30.496183 
L 45.296449 29.061119 
L 45.346749 27.626055 
L 45.406253 26.190991 
L 45.474845 24.755927 
L 45.551641 23.320863 
L 45.635082 21.885798 
L 47.310373 21.885798 
L 47.310373 21.885798 
L 47.393814 23.320863 
L 47.47061 24.755927 
L 47.539201 26.190991 
L 47.598705 27.626055 
L 47.649006 29.061119 
L 47.690793 30.496183 
L 47.725546 31.931248 
L 47.755456 33.366312 
L 47.783302 34.801376 
L 47.812278 36.23644 
L 47.845793 37.671504 
L 47.887256 39.106568 
L 47.939893 40.541632 
L 48.006592 41.976697 
L 48.08982 43.411761 
L 48.191604 44.846825 
L 48.313565 46.281889 
L 48.456964 47.716953 
L 48.622746 49.152017 
L 48.811528 50.587081 
L 49.023527 52.022146 
L 49.258443 53.45721 
L 49.515333 54.892274 
L 49.792531 56.327338 
L 50.08767 57.762402 
L 50.397836 59.197466 
L 50.719862 60.63253 
L 51.050719 62.067595 
L 51.387926 63.502659 
L 51.729898 64.937723 
L 52.076135 66.372787 
L 52.427224 67.807851 
L 52.784621 69.242915 
L 53.150288 70.677979 
L 53.526244 72.113044 
L 53.91416 73.548108 
L 54.315055 74.983172 
L 54.729173 76.418236 
L 55.156032 77.8533 
L 55.59459 79.288364 
L 56.043464 80.723428 
L 56.501101 82.158493 
L 56.965849 83.593557 
L 57.43591 85.028621 
L 57.909205 86.463685 
L 58.383252 87.898749 
L 58.855141 89.333813 
L 59.321693 90.768878 
L 59.779847 92.203942 
L 60.227212 93.639006 
L 60.662682 95.07407 
L 61.086932 96.509134 
L 61.502626 97.944198 
L 61.914183 99.379262 
L 62.327039 100.814327 
L 62.746466 102.249391 
L 63.1761 103.684455 
L 63.616432 105.119519 
L 64.063543 106.554583 
L 64.508352 107.989647 
L 64.936574 109.424711 
L 65.329443 110.859776 
L 65.665156 112.29484 
L 65.920862 113.729904 
L 66.074914 115.164968 
L 66.109091 116.600032 
L 66.010497 118.035096 
L 65.772894 119.47016 
L 65.397323 120.905225 
L 64.891979 122.340289 
L 64.271383 123.775353 
L 63.554994 125.210417 
L 62.765448 126.645481 
L 61.926648 128.080545 
L 61.061908 129.515609 
L 60.192347 130.950674 
L 59.335663 132.385738 
L 58.505378 133.820802 
L 57.710581 135.255866 
L 56.956122 136.69093 
L 56.243203 138.125994 
L 55.570212 139.561058 
L 54.933704 140.996123 
L 54.32936 142.431187 
L 53.752834 143.866251 
L 53.200388 145.301315 
L 52.669273 146.736379 
L 52.157875 148.171443 
L 51.665635 149.606508 
L 51.19283 151.041572 
L 50.740286 152.476636 
L 50.309079 153.9117 
L 49.900294 155.346764 
L 49.514871 156.781828 
L 49.153524 158.216892 
L 48.816747 159.651957 
L 48.504849 161.087021 
L 48.218005 162.522085 
L 47.956285 163.957149 
L 47.956285 163.957149 
z
" clip-path="url(#pc1905f4b1c)" style="fill: none; stroke: #000000; stroke-opacity: 0.3"/>
   </g>
   <g id="FillBetweenPolyCollection_3">
    <path d="M 46.728073 256.702046 
L 46.217382 256.702046 
L 46.224949 254.036039 
L 46.246333 251.370033 
L 46.277951 248.704026 
L 46.314938 246.038019 
L 46.352366 243.372013 
L 46.386278 240.706006 
L 46.414261 238.039999 
L 46.435495 235.373993 
L 46.450401 232.707986 
L 46.460122 230.041979 
L 46.466026 227.375973 
L 46.469372 224.709966 
L 46.471146 222.043959 
L 46.472025 219.377953 
L 46.472432 216.711946 
L 46.472604 214.045939 
L 46.472661 211.379933 
L 46.472644 208.713926 
L 46.472532 206.047919 
L 46.472224 203.381913 
L 46.471478 200.715906 
L 46.469791 198.049899 
L 46.466199 195.383893 
L 46.458986 192.717886 
L 46.44531 190.051879 
L 46.420786 187.385872 
L 46.379107 184.719866 
L 46.311811 182.053859 
L 46.208259 179.387852 
L 46.055877 176.721846 
L 45.840644 174.055839 
L 45.547841 171.389832 
L 45.163114 168.723826 
L 44.673992 166.057819 
L 44.071885 163.391812 
L 43.354274 160.725806 
L 42.526318 158.059799 
L 41.600814 155.393792 
L 40.595674 152.727786 
L 39.529078 150.061779 
L 38.41383 147.395772 
L 37.253506 144.729766 
L 36.042997 142.063759 
L 34.774598 139.397752 
L 33.448501 136.731746 
L 32.084174 134.065739 
L 30.727979 131.399732 
L 29.452969 128.733725 
L 28.349157 126.067719 
L 27.505957 123.401712 
L 26.99164 120.735705 
L 26.836364 118.069699 
L 27.024639 115.403692 
L 27.499941 112.737685 
L 28.179721 110.071679 
L 28.975275 107.405672 
L 29.809582 104.739665 
L 30.628022 102.073659 
L 31.400709 99.407652 
L 32.118809 96.741645 
L 32.788756 94.075639 
L 33.427232 91.409632 
L 34.057379 88.743625 
L 34.704896 86.077619 
L 35.392593 83.411612 
L 36.133608 80.745605 
L 36.925397 78.079599 
L 37.74742 75.413592 
L 38.564471 72.747585 
L 39.335316 70.081579 
L 40.023885 67.415572 
L 40.609077 64.749565 
L 41.089703 62.083558 
L 41.483101 59.417552 
L 41.818447 56.751545 
L 42.127605 54.085538 
L 42.436856 51.419532 
L 42.761911 48.753525 
L 43.106965 46.087518 
L 43.466948 43.421512 
L 43.831322 40.755505 
L 44.18781 38.089498 
L 44.52509 35.423492 
L 44.83428 32.757485 
L 45.109497 30.091478 
L 45.347901 27.425472 
L 45.549447 24.759465 
L 45.716358 22.093458 
L 45.852277 19.427452 
L 45.961227 16.761445 
L 46.046668 14.095438 
L 46.111044 11.429432 
L 46.156025 8.763425 
L 46.183339 6.097418 
L 46.195746 3.431412 
L 46.197631 0.765405 
L 46.195769 -1 
M 46.749686 -1 
L 46.747824 0.765405 
L 46.749709 3.431412 
L 46.762116 6.097418 
L 46.789429 8.763425 
L 46.834411 11.429432 
L 46.898787 14.095438 
L 46.984228 16.761445 
L 47.093178 19.427452 
L 47.229097 22.093458 
L 47.396008 24.759465 
L 47.597554 27.425472 
L 47.835958 30.091478 
L 48.111174 32.757485 
L 48.420365 35.423492 
L 48.757645 38.089498 
L 49.114132 40.755505 
L 49.478506 43.421512 
L 49.83849 46.087518 
L 50.183544 48.753525 
L 50.508599 51.419532 
L 50.817849 54.085538 
L 51.127007 56.751545 
L 51.462353 59.417552 
L 51.855751 62.083558 
L 52.336377 64.749565 
L 52.92157 67.415572 
L 53.610139 70.081579 
L 54.380983 72.747585 
L 55.198035 75.413592 
L 56.020058 78.079599 
L 56.811847 80.745605 
L 57.552862 83.411612 
L 58.240559 86.077619 
L 58.888075 88.743625 
L 59.518223 91.409632 
L 60.156699 94.075639 
L 60.826646 96.741645 
L 61.544745 99.407652 
L 62.317432 102.073659 
L 63.135873 104.739665 
L 63.97018 107.405672 
L 64.765734 110.071679 
L 65.445513 112.737685 
L 65.920815 115.403692 
L 66.109091 118.069699 
L 65.953814 120.735705 
L 65.439497 123.401712 
L 64.596298 126.067719 
L 63.492486 128.733725 
L 62.217475 131.399732 
L 60.861281 134.065739 
L 59.496953 136.731746 
L 58.170856 139.397752 
L 56.902458 142.063759 
L 55.691949 144.729766 
L 54.531625 147.395772 
L 53.416376 150.061779 
L 52.349781 152.727786 
L 51.344641 155.393792 
L 50.419137 158.059799 
L 49.591181 160.725806 
L 48.873569 163.391812 
L 48.271463 166.057819 
L 47.782341 168.723826 
L 47.397614 171.389832 
L 47.104811 174.055839 
L 46.889578 176.721846 
L 46.737195 179.387852 
L 46.633643 182.053859 
L 46.566347 184.719866 
L 46.524669 187.385872 
L 46.500144 190.051879 
L 46.486469 192.717886 
L 46.479256 195.383893 
L 46.475664 198.049899 
L 46.473977 200.715906 
L 46.473231 203.381913 
L 46.472923 206.047919 
L 46.47281 208.713926 
L 46.472793 211.379933 
L 46.47285 214.045939 
L 46.473023 216.711946 
L 46.47343 219.377953 
L 46.474309 222.043959 
L 46.476082 224.709966 
L 46.479429 227.375973 
L 46.485333 230.041979 
L 46.495053 232.707986 
L 46.50996 235.373993 
L 46.531194 238.039999 
L 46.559177 240.706006 
L 46.593088 243.372013 
L 46.630516 246.038019 
L 46.667504 248.704026 
L 46.699122 251.370033 
L 46.720505 254.036039 
L 46.728073 256.702046 
L 46.728073 256.702046 
" clip-path="url(#pc1905f4b1c)" style="fill: none; stroke: #000000; stroke-opacity: 0.3"/>
   </g>
   <g id="FillBetweenPolyCollection_4">
    <path d="M 48.554197 183.360937 
L 44.391258 183.360937 
L 44.269857 181.908407 
L 44.156112 180.455877 
L 44.05134 179.003347 
L 43.956624 177.550818 
L 43.872775 176.098288 
L 43.800287 174.645758 
L 43.739301 173.193228 
L 43.689579 171.740699 
L 43.650475 170.288169 
L 43.620915 168.835639 
L 43.599382 167.383109 
L 43.583905 165.93058 
L 43.572053 164.47805 
L 43.560937 163.02552 
L 43.547216 161.57299 
L 43.52712 160.120461 
L 43.496469 158.667931 
L 43.450726 157.215401 
L 43.385046 155.762871 
L 43.29436 154.310342 
L 43.173464 152.857812 
L 43.017145 151.405282 
L 42.820312 149.952752 
L 42.578154 148.500223 
L 42.286316 147.047693 
L 41.941077 145.595163 
L 41.539537 144.142633 
L 41.079795 142.690104 
L 40.56112 141.237574 
L 39.984089 139.785044 
L 39.350694 138.332514 
L 38.664413 136.879985 
L 37.930223 135.427455 
L 37.154562 133.974925 
L 36.345236 132.522395 
L 35.511266 131.069866 
L 34.662684 129.617336 
L 33.810285 128.164806 
L 32.965343 126.712276 
L 32.139298 125.259747 
L 31.343435 123.807217 
L 30.588565 122.354687 
L 29.884717 120.902157 
L 29.240861 119.449628 
L 28.664674 117.997098 
L 28.162341 116.544568 
L 27.738426 115.092038 
L 27.39579 113.639509 
L 27.135576 112.186979 
L 26.957249 110.734449 
L 26.858695 109.281919 
L 26.836364 107.82939 
L 26.885463 106.37686 
L 27.00018 104.92433 
L 27.173922 103.4718 
L 27.399583 102.019271 
L 27.669795 100.566741 
L 27.977186 99.114211 
L 28.314607 97.661681 
L 28.675337 96.209151 
L 29.053247 94.756622 
L 29.442936 93.304092 
L 29.839805 91.851562 
L 30.240109 90.399032 
L 30.640946 88.946503 
L 31.040228 87.493973 
L 31.436612 86.041443 
L 31.829407 84.588913 
L 32.218468 83.136384 
L 32.60409 81.683854 
L 32.986889 80.231324 
L 33.3677 78.778794 
L 33.747483 77.326265 
L 34.127241 75.873735 
L 34.507955 74.421205 
L 34.890532 72.968675 
L 35.275758 71.516146 
L 35.664276 70.063616 
L 36.056551 68.611086 
L 36.452859 67.158556 
L 36.853263 65.706027 
L 37.257602 64.253497 
L 37.665482 62.800967 
L 38.076268 61.348437 
L 38.489088 59.895908 
L 38.902841 58.443378 
L 39.316217 56.990848 
L 39.727726 55.538318 
L 40.135739 54.085789 
L 40.538535 52.633259 
L 40.934353 51.180729 
L 41.321453 49.728199 
L 41.698165 48.27567 
L 42.062947 46.82314 
L 42.41442 45.37061 
L 42.751409 43.91808 
L 43.072954 42.465551 
L 43.378327 41.013021 
L 43.667021 39.560491 
L 49.278434 39.560491 
L 49.278434 39.560491 
L 49.567128 41.013021 
L 49.8725 42.465551 
L 50.194045 43.91808 
L 50.531034 45.37061 
L 50.882508 46.82314 
L 51.24729 48.27567 
L 51.624002 49.728199 
L 52.011101 51.180729 
L 52.40692 52.633259 
L 52.809715 54.085789 
L 53.217728 55.538318 
L 53.629238 56.990848 
L 54.042613 58.443378 
L 54.456366 59.895908 
L 54.869186 61.348437 
L 55.279972 62.800967 
L 55.687852 64.253497 
L 56.092191 65.706027 
L 56.492595 67.158556 
L 56.888903 68.611086 
L 57.281179 70.063616 
L 57.669697 71.516146 
L 58.054923 72.968675 
L 58.437499 74.421205 
L 58.818214 75.873735 
L 59.197972 77.326265 
L 59.577755 78.778794 
L 59.958565 80.231324 
L 60.341364 81.683854 
L 60.726986 83.136384 
L 61.116048 84.588913 
L 61.508842 86.041443 
L 61.905226 87.493973 
L 62.304509 88.946503 
L 62.705346 90.399032 
L 63.105649 91.851562 
L 63.502519 93.304092 
L 63.892207 94.756622 
L 64.270118 96.209151 
L 64.630847 97.661681 
L 64.968268 99.114211 
L 65.27566 100.566741 
L 65.545872 102.019271 
L 65.771532 103.4718 
L 65.945275 104.92433 
L 66.059991 106.37686 
L 66.109091 107.82939 
L 66.08676 109.281919 
L 65.988205 110.734449 
L 65.809878 112.186979 
L 65.549664 113.639509 
L 65.207028 115.092038 
L 64.783113 116.544568 
L 64.280781 117.997098 
L 63.704593 119.449628 
L 63.060738 120.902157 
L 62.356889 122.354687 
L 61.602019 123.807217 
L 60.806156 125.259747 
L 59.980111 126.712276 
L 59.135169 128.164806 
L 58.282771 129.617336 
L 57.434189 131.069866 
L 56.600218 132.522395 
L 55.790892 133.974925 
L 55.015232 135.427455 
L 54.281042 136.879985 
L 53.594761 138.332514 
L 52.961366 139.785044 
L 52.384334 141.237574 
L 51.865659 142.690104 
L 51.405918 144.142633 
L 51.004377 145.595163 
L 50.659138 147.047693 
L 50.367301 148.500223 
L 50.125143 149.952752 
L 49.928309 151.405282 
L 49.77199 152.857812 
L 49.651095 154.310342 
L 49.560408 155.762871 
L 49.494729 157.215401 
L 49.448985 158.667931 
L 49.418335 160.120461 
L 49.398238 161.57299 
L 49.384518 163.02552 
L 49.373402 164.47805 
L 49.361549 165.93058 
L 49.346072 167.383109 
L 49.324539 168.835639 
L 49.294979 170.288169 
L 49.255875 171.740699 
L 49.206154 173.193228 
L 49.145168 174.645758 
L 49.072679 176.098288 
L 48.98883 177.550818 
L 48.894115 179.003347 
L 48.789342 180.455877 
L 48.675598 181.908407 
L 48.554197 183.360937 
L 48.554197 183.360937 
z
" clip-path="url(#pc1905f4b1c)" style="fill: none; stroke: #000000; stroke-opacity: 0.3"/>
   </g>
   <g id="FillBetweenPolyCollection_5">
    <path d="M 48.162164 161.73385 
L 44.78329 161.73385 
L 44.540934 160.301893 
L 44.278878 158.869936 
L 43.996026 157.437979 
L 43.691099 156.006023 
L 43.36278 154.574066 
L 43.009888 153.142109 
L 42.631565 151.710152 
L 42.227451 150.278195 
L 41.797787 148.846238 
L 41.343468 147.414281 
L 40.865998 145.982325 
L 40.367379 144.550368 
L 39.849944 143.118411 
L 39.316175 141.686454 
L 38.768515 140.254497 
L 38.20923 138.82254 
L 37.640306 137.390583 
L 37.063412 135.958627 
L 36.479901 134.52667 
L 35.890848 133.094713 
L 35.297112 131.662756 
L 34.6994 130.230799 
L 34.098359 128.798842 
L 33.494677 127.366885 
L 32.889228 125.934929 
L 32.283257 124.502972 
L 31.678621 123.071015 
L 31.078058 121.639058 
L 30.485479 120.207101 
L 29.906223 118.775144 
L 29.347232 117.343188 
L 28.817097 115.911231 
L 28.325927 114.479274 
L 27.885016 113.047317 
L 27.506334 111.61536 
L 27.201832 110.183403 
L 26.982676 108.751446 
L 26.858435 107.31949 
L 26.836364 105.887533 
L 26.920823 104.455576 
L 27.112926 103.023619 
L 27.410438 101.591662 
L 27.807923 100.159705 
L 28.297104 98.727748 
L 28.867377 97.295792 
L 29.506397 95.863835 
L 30.200662 94.431878 
L 30.936044 92.999921 
L 31.698229 91.567964 
L 32.473076 90.136007 
L 33.246906 88.70405 
L 34.006779 87.272094 
L 34.740781 85.840137 
L 35.438358 84.40818 
L 36.090694 82.976223 
L 36.6911 81.544266 
L 37.235361 80.112309 
L 37.721975 78.680352 
L 38.152213 77.248396 
L 38.529968 75.816439 
L 38.86136 74.384482 
L 39.154144 72.952525 
L 39.416967 71.520568 
L 39.658575 70.088611 
L 39.887068 68.656655 
L 40.10929 67.224698 
L 40.33043 65.792741 
L 40.553858 64.360784 
L 40.781206 62.928827 
L 41.01264 61.49687 
L 41.247268 60.064913 
L 41.483603 58.632957 
L 41.720012 57.201 
L 41.955075 55.769043 
L 42.187825 54.337086 
L 42.41784 52.905129 
L 42.645189 51.473172 
L 42.870275 50.041215 
L 43.093591 48.609259 
L 43.315463 47.177302 
L 43.535807 45.745345 
L 43.753972 44.313388 
L 43.968666 42.881431 
L 44.178013 41.449474 
L 44.379703 40.017517 
L 44.571237 38.585561 
L 44.750206 37.153604 
L 44.914584 35.721647 
L 45.062965 34.28969 
L 45.194734 32.857733 
L 45.310133 31.425776 
L 45.410221 29.99382 
L 45.496752 28.561863 
L 45.571965 27.129906 
L 45.638353 25.697949 
L 45.69841 24.265992 
L 45.754413 22.834035 
L 45.808243 21.402078 
L 45.861273 19.970122 
L 47.084182 19.970122 
L 47.084182 19.970122 
L 47.137212 21.402078 
L 47.191042 22.834035 
L 47.247044 24.265992 
L 47.307101 25.697949 
L 47.373489 27.129906 
L 47.448703 28.561863 
L 47.535233 29.99382 
L 47.635322 31.425776 
L 47.75072 32.857733 
L 47.882489 34.28969 
L 48.030871 35.721647 
L 48.195248 37.153604 
L 48.374218 38.585561 
L 48.565751 40.017517 
L 48.767442 41.449474 
L 48.976788 42.881431 
L 49.191483 44.313388 
L 49.409647 45.745345 
L 49.629992 47.177302 
L 49.851863 48.609259 
L 50.07518 50.041215 
L 50.300266 51.473172 
L 50.527615 52.905129 
L 50.757629 54.337086 
L 50.99038 55.769043 
L 51.225443 57.201 
L 51.461852 58.632957 
L 51.698187 60.064913 
L 51.932814 61.49687 
L 52.164248 62.928827 
L 52.391597 64.360784 
L 52.615025 65.792741 
L 52.836164 67.224698 
L 53.058387 68.656655 
L 53.28688 70.088611 
L 53.528488 71.520568 
L 53.79131 72.952525 
L 54.084094 74.384482 
L 54.415487 75.816439 
L 54.793242 77.248396 
L 55.22348 78.680352 
L 55.710093 80.112309 
L 56.254354 81.544266 
L 56.854761 82.976223 
L 57.507097 84.40818 
L 58.204674 85.840137 
L 58.938675 87.272094 
L 59.698548 88.70405 
L 60.472379 90.136007 
L 61.247225 91.567964 
L 62.009411 92.999921 
L 62.744792 94.431878 
L 63.439057 95.863835 
L 64.078077 97.295792 
L 64.648351 98.727748 
L 65.137532 100.159705 
L 65.535017 101.591662 
L 65.832529 103.023619 
L 66.024632 104.455576 
L 66.109091 105.887533 
L 66.08702 107.31949 
L 65.962779 108.751446 
L 65.743622 110.183403 
L 65.439121 111.61536 
L 65.060438 113.047317 
L 64.619528 114.479274 
L 64.128357 115.911231 
L 63.598223 117.343188 
L 63.039232 118.775144 
L 62.459976 120.207101 
L 61.867397 121.639058 
L 61.266834 123.071015 
L 60.662197 124.502972 
L 60.056227 125.934929 
L 59.450778 127.366885 
L 58.847096 128.798842 
L 58.246055 130.230799 
L 57.648343 131.662756 
L 57.054606 133.094713 
L 56.465554 134.52667 
L 55.882042 135.958627 
L 55.305148 137.390583 
L 54.736224 138.82254 
L 54.176939 140.254497 
L 53.62928 141.686454 
L 53.09551 143.118411 
L 52.578076 144.550368 
L 52.079456 145.982325 
L 51.601986 147.414281 
L 51.147667 148.846238 
L 50.718004 150.278195 
L 50.313889 151.710152 
L 49.935567 153.142109 
L 49.582674 154.574066 
L 49.254355 156.006023 
L 48.949429 157.437979 
L 48.666577 158.869936 
L 48.404521 160.301893 
L 48.162164 161.73385 
L 48.162164 161.73385 
z
" clip-path="url(#pc1905f4b1c)" style="fill: none; stroke: #000000; stroke-opacity: 0.3"/>
   </g>
   <g id="FillBetweenPolyCollection_6">
    <path d="M 53.046245 156.334672 
L 39.899209 156.334672 
L 39.451284 155.0782 
L 39.006193 153.821728 
L 38.566361 152.565256 
L 38.133865 151.308785 
L 37.710378 150.052313 
L 37.297113 148.795841 
L 36.894797 147.539369 
L 36.503657 146.282897 
L 36.123423 145.026425 
L 35.753362 143.769953 
L 35.392313 142.513482 
L 35.038755 141.25701 
L 34.690879 140.000538 
L 34.34668 138.744066 
L 34.004051 137.487594 
L 33.660894 136.231122 
L 33.315223 134.97465 
L 32.965278 133.718179 
L 32.609627 132.461707 
L 32.247264 131.205235 
L 31.877699 129.948763 
L 31.501028 128.692291 
L 31.117992 127.435819 
L 30.730012 126.179347 
L 30.339199 124.922875 
L 29.948343 123.666404 
L 29.560873 122.409932 
L 29.18079 121.15346 
L 28.812578 119.896988 
L 28.461088 118.640516 
L 28.131401 117.384044 
L 27.828675 116.127572 
L 27.557988 114.871101 
L 27.324165 113.614629 
L 27.131617 112.358157 
L 26.984184 111.101685 
L 26.884997 109.845213 
L 26.836364 108.588741 
L 26.83968 107.332269 
L 26.895377 106.075798 
L 27.002902 104.819326 
L 27.160738 103.562854 
L 27.36646 102.306382 
L 27.616826 101.04991 
L 27.907892 99.793438 
L 28.23516 98.536966 
L 28.593742 97.280495 
L 28.978525 96.024023 
L 29.384348 94.767551 
L 29.806168 93.511079 
L 30.239212 92.254607 
L 30.679105 90.998135 
L 31.121981 89.741663 
L 31.564548 88.485191 
L 32.004136 87.22872 
L 32.438699 85.972248 
L 32.866795 84.715776 
L 33.28753 83.459304 
L 33.700486 82.202832 
L 34.105624 80.94636 
L 34.503185 79.689888 
L 34.89358 78.433417 
L 35.277291 77.176945 
L 35.654773 75.920473 
L 36.026386 74.664001 
L 36.39233 73.407529 
L 36.752616 72.151057 
L 37.10705 70.894585 
L 37.455244 69.638114 
L 37.796645 68.381642 
L 38.130577 67.12517 
L 38.456295 65.868698 
L 38.773049 64.612226 
L 39.080135 63.355754 
L 39.376959 62.099282 
L 39.663076 60.84281 
L 39.938224 59.586339 
L 40.202348 58.329867 
L 40.455601 57.073395 
L 40.698337 55.816923 
L 40.931089 54.560451 
L 41.154536 53.303979 
L 41.369468 52.047507 
L 41.576744 50.791036 
L 41.777244 49.534564 
L 41.971839 48.278092 
L 42.161348 47.02162 
L 42.346511 45.765148 
L 42.527972 44.508676 
L 42.706261 43.252204 
L 42.88179 41.995733 
L 43.054854 40.739261 
L 43.225633 39.482789 
L 43.394204 38.226317 
L 43.560551 36.969845 
L 43.724579 35.713373 
L 43.886123 34.456901 
L 44.044963 33.20043 
L 44.200832 31.943958 
L 48.744623 31.943958 
L 48.744623 31.943958 
L 48.900492 33.20043 
L 49.059331 34.456901 
L 49.220875 35.713373 
L 49.384903 36.969845 
L 49.551251 38.226317 
L 49.719822 39.482789 
L 49.890601 40.739261 
L 50.063665 41.995733 
L 50.239194 43.252204 
L 50.417483 44.508676 
L 50.598944 45.765148 
L 50.784107 47.02162 
L 50.973615 48.278092 
L 51.16821 49.534564 
L 51.368711 50.791036 
L 51.575986 52.047507 
L 51.790919 53.303979 
L 52.014366 54.560451 
L 52.247117 55.816923 
L 52.489853 57.073395 
L 52.743107 58.329867 
L 53.007231 59.586339 
L 53.282379 60.84281 
L 53.568495 62.099282 
L 53.865319 63.355754 
L 54.172406 64.612226 
L 54.489159 65.868698 
L 54.814878 67.12517 
L 55.148809 68.381642 
L 55.49021 69.638114 
L 55.838404 70.894585 
L 56.192838 72.151057 
L 56.553124 73.407529 
L 56.919069 74.664001 
L 57.290681 75.920473 
L 57.668164 77.176945 
L 58.051874 78.433417 
L 58.442269 79.689888 
L 58.83983 80.94636 
L 59.244969 82.202832 
L 59.657924 83.459304 
L 60.078659 84.715776 
L 60.506755 85.972248 
L 60.941318 87.22872 
L 61.380906 88.485191 
L 61.823474 89.741663 
L 62.266349 90.998135 
L 62.706243 92.254607 
L 63.139286 93.511079 
L 63.561106 94.767551 
L 63.966929 96.024023 
L 64.351712 97.280495 
L 64.710294 98.536966 
L 65.037563 99.793438 
L 65.328629 101.04991 
L 65.578994 102.306382 
L 65.784717 103.562854 
L 65.942553 104.819326 
L 66.050078 106.075798 
L 66.105774 107.332269 
L 66.109091 108.588741 
L 66.060458 109.845213 
L 65.961271 111.101685 
L 65.813838 112.358157 
L 65.621289 113.614629 
L 65.387467 114.871101 
L 65.11678 116.127572 
L 64.814054 117.384044 
L 64.484366 118.640516 
L 64.132876 119.896988 
L 63.764664 121.15346 
L 63.384582 122.409932 
L 62.997111 123.666404 
L 62.606255 124.922875 
L 62.215442 126.179347 
L 61.827462 127.435819 
L 61.444427 128.692291 
L 61.067756 129.948763 
L 60.69819 131.205235 
L 60.335827 132.461707 
L 59.980176 133.718179 
L 59.630231 134.97465 
L 59.284561 136.231122 
L 58.941404 137.487594 
L 58.598775 138.744066 
L 58.254575 140.000538 
L 57.906699 141.25701 
L 57.553141 142.513482 
L 57.192092 143.769953 
L 56.822031 145.026425 
L 56.441798 146.282897 
L 56.050657 147.539369 
L 55.648341 148.795841 
L 55.235076 150.052313 
L 54.811589 151.308785 
L 54.379094 152.565256 
L 53.939261 153.821728 
L 53.494171 155.0782 
L 53.046245 156.334672 
L 53.046245 156.334672 
z
" clip-path="url(#pc1905f4b1c)" style="fill: none; stroke: #000000; stroke-opacity: 0.3"/>
   </g>
   <g id="FillBetweenPolyCollection_7">
    <path d="M 47.700358 190.282228 
L 45.245096 190.282228 
L 45.152367 188.735478 
L 45.053803 187.188729 
L 44.947588 185.641979 
L 44.83172 184.09523 
L 44.704113 182.548481 
L 44.562692 181.001731 
L 44.405497 179.454982 
L 44.230767 177.908232 
L 44.036995 176.361483 
L 43.82297 174.814733 
L 43.58777 173.267984 
L 43.330736 171.721235 
L 43.051407 170.174485 
L 42.749443 168.627736 
L 42.424529 167.080986 
L 42.076282 165.534237 
L 41.704168 163.987487 
L 41.307442 162.440738 
L 40.885127 160.893989 
L 40.436025 159.347239 
L 39.95879 157.80049 
L 39.452026 156.25374 
L 38.914453 154.706991 
L 38.345083 153.160241 
L 37.743435 151.613492 
L 37.109748 150.066743 
L 36.44519 148.519993 
L 35.752033 146.973244 
L 35.033795 145.426494 
L 34.295323 143.879745 
L 33.542818 142.332995 
L 32.783786 140.786246 
L 32.026935 139.239496 
L 31.282004 137.692747 
L 30.559535 136.145998 
L 29.87062 134.599248 
L 29.226597 133.052499 
L 28.638745 131.505749 
L 28.117962 129.959 
L 27.674451 128.41225 
L 27.317414 126.865501 
L 27.05477 125.318752 
L 26.892888 123.772002 
L 26.836364 122.225253 
L 26.887825 120.678503 
L 27.047786 119.131754 
L 27.314556 117.585004 
L 27.684204 116.038255 
L 28.150597 114.491506 
L 28.705509 112.944756 
L 29.338804 111.398007 
L 30.038703 109.851257 
L 30.792113 108.304508 
L 31.585021 106.757758 
L 32.402932 105.211009 
L 33.231337 103.66426 
L 34.056178 102.11751 
L 34.864312 100.570761 
L 35.643915 99.024011 
L 36.384845 97.477262 
L 37.078915 95.930512 
L 37.720086 94.383763 
L 38.30455 92.837014 
L 38.830732 91.290264 
L 39.299179 89.743515 
L 39.712365 88.196765 
L 40.074429 86.650016 
L 40.390831 85.103266 
L 40.667986 83.556517 
L 40.912856 82.009768 
L 41.132552 80.463018 
L 41.333951 78.916269 
L 41.52335 77.369519 
L 41.706182 75.82277 
L 41.886804 74.27602 
L 42.068367 72.729271 
L 42.252775 71.182522 
L 42.440729 69.635772 
L 42.631849 68.089023 
L 42.824862 66.542273 
L 43.017831 64.995524 
L 43.208415 63.448774 
L 43.394131 61.902025 
L 43.572594 60.355276 
L 43.741732 58.808526 
L 43.899941 57.261777 
L 44.046197 55.715027 
L 44.180101 54.168278 
L 44.301872 52.621528 
L 44.412295 51.074779 
L 44.512624 49.52803 
L 44.604463 47.98128 
L 44.689635 46.434531 
L 44.770038 44.887781 
L 44.847521 43.341032 
L 44.923765 41.794282 
L 45.00019 40.247533 
L 45.077889 38.700784 
L 45.157582 37.154034 
L 47.787873 37.154034 
L 47.787873 37.154034 
L 47.867566 38.700784 
L 47.945264 40.247533 
L 48.02169 41.794282 
L 48.097933 43.341032 
L 48.175416 44.887781 
L 48.25582 46.434531 
L 48.340991 47.98128 
L 48.432831 49.52803 
L 48.533159 51.074779 
L 48.643582 52.621528 
L 48.765354 54.168278 
L 48.899257 55.715027 
L 49.045513 57.261777 
L 49.203723 58.808526 
L 49.37286 60.355276 
L 49.551324 61.902025 
L 49.737039 63.448774 
L 49.927624 64.995524 
L 50.120592 66.542273 
L 50.313605 68.089023 
L 50.504726 69.635772 
L 50.69268 71.182522 
L 50.877088 72.729271 
L 51.058651 74.27602 
L 51.239273 75.82277 
L 51.422105 77.369519 
L 51.611503 78.916269 
L 51.812902 80.463018 
L 52.032599 82.009768 
L 52.277469 83.556517 
L 52.554623 85.103266 
L 52.871026 86.650016 
L 53.233089 88.196765 
L 53.646276 89.743515 
L 54.114722 91.290264 
L 54.640904 92.837014 
L 55.225369 94.383763 
L 55.866539 95.930512 
L 56.56061 97.477262 
L 57.30154 99.024011 
L 58.081143 100.570761 
L 58.889276 102.11751 
L 59.714118 103.66426 
L 60.542522 105.211009 
L 61.360434 106.757758 
L 62.153342 108.304508 
L 62.906752 109.851257 
L 63.606651 111.398007 
L 64.239946 112.944756 
L 64.794857 114.491506 
L 65.26125 116.038255 
L 65.630898 117.585004 
L 65.897668 119.131754 
L 66.05763 120.678503 
L 66.109091 122.225253 
L 66.052567 123.772002 
L 65.890685 125.318752 
L 65.62804 126.865501 
L 65.271004 128.41225 
L 64.827493 129.959 
L 64.30671 131.505749 
L 63.718857 133.052499 
L 63.074835 134.599248 
L 62.385919 136.145998 
L 61.663451 137.692747 
L 60.918519 139.239496 
L 60.161669 140.786246 
L 59.402637 142.332995 
L 58.650131 143.879745 
L 57.911659 145.426494 
L 57.193421 146.973244 
L 56.500264 148.519993 
L 55.835706 150.066743 
L 55.20202 151.613492 
L 54.600372 153.160241 
L 54.031002 154.706991 
L 53.493428 156.25374 
L 52.986665 157.80049 
L 52.509429 159.347239 
L 52.060328 160.893989 
L 51.638012 162.440738 
L 51.241287 163.987487 
L 50.869172 165.534237 
L 50.520925 167.080986 
L 50.196012 168.627736 
L 49.894048 170.174485 
L 49.614719 171.721235 
L 49.357684 173.267984 
L 49.122485 174.814733 
L 48.908459 176.361483 
L 48.714688 177.908232 
L 48.539957 179.454982 
L 48.382763 181.001731 
L 48.241342 182.548481 
L 48.113734 184.09523 
L 47.997867 185.641979 
L 47.891651 187.188729 
L 47.793087 188.735478 
L 47.700358 190.282228 
L 47.700358 190.282228 
z
" clip-path="url(#pc1905f4b1c)" style="fill: none; stroke: #000000; stroke-opacity: 0.3"/>
   </g>
   <g id="FillBetweenPolyCollection_8">
    <path d="M 112.627824 268.059902 
L 111.226722 268.059902 
L 111.232004 266.247748 
L 111.249234 264.435594 
L 111.277143 262.62344 
L 111.313807 260.811286 
L 111.356778 258.999132 
L 111.403255 257.186978 
L 111.450264 255.374824 
L 111.49485 253.562671 
L 111.534244 251.750517 
L 111.566012 249.938363 
L 111.588169 248.126209 
L 111.599256 246.314055 
L 111.598397 244.501901 
L 111.585307 242.689747 
L 111.560289 240.877593 
L 111.524193 239.065439 
L 111.478359 237.253285 
L 111.424523 235.441131 
L 111.364709 233.628977 
L 111.301095 231.816823 
L 111.235864 230.004669 
L 111.171051 228.192515 
L 111.108392 226.380361 
L 111.049189 224.568207 
L 110.994206 222.756053 
L 110.943586 220.9439 
L 110.896806 219.131746 
L 110.852651 217.319592 
L 110.809207 215.507438 
L 110.763854 213.695284 
L 110.713251 211.88313 
L 110.653316 210.070976 
L 110.579196 208.258822 
L 110.485246 206.446668 
L 110.36504 204.634514 
L 110.21144 202.82236 
L 110.016753 201.010206 
L 109.772984 199.198052 
L 109.472218 197.385898 
L 109.107092 195.573744 
L 108.671352 193.76159 
L 108.160437 191.949436 
L 107.572037 190.137282 
L 106.906551 188.325128 
L 106.167395 186.512975 
L 105.361097 184.700821 
L 104.497157 182.888667 
L 103.587665 181.076513 
L 102.646708 179.264359 
L 101.689604 177.452205 
L 100.732052 175.640051 
L 99.789268 173.827897 
L 98.875203 172.015743 
L 98.001913 170.203589 
L 97.179131 168.391435 
L 96.414086 166.579281 
L 95.711564 164.767127 
L 95.074185 162.954973 
L 94.502856 161.142819 
L 93.997338 159.330665 
L 93.556848 157.518511 
L 93.180646 155.706357 
L 92.868527 153.894204 
L 92.621183 152.08205 
L 92.440392 150.269896 
L 92.329033 148.457742 
L 92.290909 146.645588 
L 92.330415 144.833434 
L 92.452068 143.02128 
L 92.659947 141.209126 
L 92.957088 139.396972 
L 93.344885 137.584818 
L 93.822563 135.772664 
L 94.386763 133.96051 
L 95.031288 132.148356 
L 95.74706 130.336202 
L 96.522292 128.524048 
L 97.342893 126.711894 
L 98.193075 124.89974 
L 99.056139 123.087586 
L 99.915357 121.275432 
L 100.754904 119.463279 
L 101.560733 117.651125 
L 102.321329 115.838971 
L 103.028271 114.026817 
L 103.676555 112.214663 
L 104.264652 110.402509 
L 104.794302 108.590355 
L 105.270083 106.778201 
L 105.698782 104.966047 
L 106.088659 103.153893 
L 106.448648 101.341739 
L 106.78758 99.529585 
L 107.113488 97.717431 
L 107.433044 95.905277 
L 107.751166 94.093123 
L 108.070808 92.280969 
L 108.392946 90.468815 
L 108.716731 88.656661 
L 115.137815 88.656661 
L 115.137815 88.656661 
L 115.461599 90.468815 
L 115.783737 92.280969 
L 116.103379 94.093123 
L 116.421501 95.905277 
L 116.741058 97.717431 
L 117.066966 99.529585 
L 117.405897 101.341739 
L 117.765886 103.153893 
L 118.155763 104.966047 
L 118.584462 106.778201 
L 119.060243 108.590355 
L 119.589894 110.402509 
L 120.177991 112.214663 
L 120.826275 114.026817 
L 121.533217 115.838971 
L 122.293812 117.651125 
L 123.099641 119.463279 
L 123.939188 121.275432 
L 124.798407 123.087586 
L 125.66147 124.89974 
L 126.511653 126.711894 
L 127.332254 128.524048 
L 128.107486 130.336202 
L 128.823258 132.148356 
L 129.467783 133.96051 
L 130.031982 135.772664 
L 130.50966 137.584818 
L 130.897458 139.396972 
L 131.194598 141.209126 
L 131.402477 143.02128 
L 131.52413 144.833434 
L 131.563636 146.645588 
L 131.525512 148.457742 
L 131.414153 150.269896 
L 131.233363 152.08205 
L 130.986018 153.894204 
L 130.673899 155.706357 
L 130.297697 157.518511 
L 129.857207 159.330665 
L 129.351689 161.142819 
L 128.780361 162.954973 
L 128.142982 164.767127 
L 127.44046 166.579281 
L 126.675415 168.391435 
L 125.852632 170.203589 
L 124.979342 172.015743 
L 124.065278 173.827897 
L 123.122494 175.640051 
L 122.164941 177.452205 
L 121.207837 179.264359 
L 120.26688 181.076513 
L 119.357389 182.888667 
L 118.493448 184.700821 
L 117.68715 186.512975 
L 116.947994 188.325128 
L 116.282508 190.137282 
L 115.694108 191.949436 
L 115.183193 193.76159 
L 114.747453 195.573744 
L 114.382327 197.385898 
L 114.081561 199.198052 
L 113.837793 201.010206 
L 113.643105 202.82236 
L 113.489506 204.634514 
L 113.3693 206.446668 
L 113.27535 208.258822 
L 113.20123 210.070976 
L 113.141295 211.88313 
L 113.090692 213.695284 
L 113.045338 215.507438 
L 113.001894 217.319592 
L 112.957739 219.131746 
L 112.910959 220.9439 
L 112.860339 222.756053 
L 112.805356 224.568207 
L 112.746154 226.380361 
L 112.683494 228.192515 
L 112.618681 230.004669 
L 112.553451 231.816823 
L 112.489837 233.628977 
L 112.430023 235.441131 
L 112.376186 237.253285 
L 112.330352 239.065439 
L 112.294257 240.877593 
L 112.269238 242.689747 
L 112.256148 244.501901 
L 112.255289 246.314055 
L 112.266377 248.126209 
L 112.288533 249.938363 
L 112.320301 251.750517 
L 112.359695 253.562671 
L 112.404281 255.374824 
L 112.45129 257.186978 
L 112.497767 258.999132 
L 112.540739 260.811286 
L 112.577402 262.62344 
L 112.605312 264.435594 
L 112.622542 266.247748 
L 112.627824 268.059902 
L 112.627824 268.059902 
z
" clip-path="url(#pc1905f4b1c)" style="fill: none; stroke: #000000; stroke-opacity: 0.3"/>
   </g>
   <g id="FillBetweenPolyCollection_9">
    <path d="M 112.324282 311.247302 
L 111.530263 311.247302 
L 111.540308 308.88391 
L 111.568943 306.520518 
L 111.612037 304.157125 
L 111.663804 301.793733 
L 111.718072 299.430341 
L 111.769461 297.066948 
L 111.814175 294.703556 
L 111.850269 292.340164 
L 111.877463 289.976771 
L 111.896664 287.613379 
L 111.909403 285.249987 
L 111.917361 282.886595 
L 111.92205 280.523202 
L 111.924658 278.15981 
L 111.926029 275.796418 
L 111.926711 273.433025 
L 111.927032 271.069633 
L 111.927174 268.706241 
L 111.927235 266.342849 
L 111.927259 263.979456 
L 111.927268 261.616064 
L 111.927271 259.252672 
L 111.927272 256.889279 
L 111.927273 254.525887 
L 111.927273 252.162495 
L 111.927272 249.799103 
L 111.927272 247.43571 
L 111.927269 245.072318 
L 111.927262 242.708926 
L 111.927242 240.345533 
L 111.927188 237.982141 
L 111.927049 235.618749 
L 111.926713 233.255357 
L 111.925937 230.891964 
L 111.924239 228.528572 
L 111.920707 226.16518 
L 111.913731 223.801787 
L 111.900647 221.438395 
L 111.877323 219.075003 
L 111.837807 216.711611 
L 111.774124 214.348218 
L 111.67642 211.984826 
L 111.533536 209.621434 
L 111.334009 207.258041 
L 111.06733 204.894649 
L 110.725134 202.531257 
L 110.301932 200.167865 
L 109.795135 197.804472 
L 109.204373 195.44108 
L 108.530383 193.077688 
L 107.773984 190.714295 
L 106.93559 188.350903 
L 106.01551 185.987511 
L 105.015 183.624119 
L 103.937763 181.260726 
L 102.791536 178.897334 
L 101.589372 176.533942 
L 100.350329 174.170549 
L 99.099289 171.807157 
L 97.8658 169.443765 
L 96.682102 167.080373 
L 95.580822 164.71698 
L 94.593094 162.353588 
L 93.747688 159.990196 
L 93.071172 157.626803 
L 92.588399 155.263411 
L 92.322146 152.900019 
L 92.290909 150.536626 
L 92.504757 148.173234 
L 92.960329 145.809842 
L 93.636926 143.44645 
L 94.49571 141.083057 
L 95.483175 138.719665 
L 96.538618 136.356273 
L 97.603912 133.99288 
L 98.63301 131.629488 
L 99.598663 129.266096 
L 100.494642 126.902704 
L 101.333126 124.539311 
L 102.13823 122.175919 
L 102.937576 119.812527 
L 103.754124 117.449134 
L 104.600068 115.085742 
L 105.473859 112.72235 
L 106.360526 110.358958 
L 107.234707 107.995565 
L 108.065434 105.632173 
L 108.821551 103.268781 
L 109.476779 100.905388 
L 110.013647 98.541996 
L 110.425781 96.178604 
L 110.718349 93.815212 
L 110.906725 91.451819 
L 111.013711 89.088427 
L 111.065867 86.725035 
L 111.089579 84.361642 
L 111.10755 81.99825 
L 111.136259 79.634858 
L 111.184757 77.271466 
L 112.669789 77.271466 
L 112.669789 77.271466 
L 112.718286 79.634858 
L 112.746995 81.99825 
L 112.764966 84.361642 
L 112.788678 86.725035 
L 112.840834 89.088427 
L 112.947821 91.451819 
L 113.136196 93.815212 
L 113.428764 96.178604 
L 113.840899 98.541996 
L 114.377767 100.905388 
L 115.032995 103.268781 
L 115.789112 105.632173 
L 116.619839 107.995565 
L 117.494019 110.358958 
L 118.380686 112.72235 
L 119.254478 115.085742 
L 120.100421 117.449134 
L 120.91697 119.812527 
L 121.716316 122.175919 
L 122.521419 124.539311 
L 123.359904 126.902704 
L 124.255883 129.266096 
L 125.221535 131.629488 
L 126.250633 133.99288 
L 127.315927 136.356273 
L 128.371371 138.719665 
L 129.358835 141.083057 
L 130.217619 143.44645 
L 130.894216 145.809842 
L 131.349789 148.173234 
L 131.563636 150.536626 
L 131.532399 152.900019 
L 131.266147 155.263411 
L 130.783374 157.626803 
L 130.106857 159.990196 
L 129.261452 162.353588 
L 128.273724 164.71698 
L 127.172443 167.080373 
L 125.988745 169.443765 
L 124.755257 171.807157 
L 123.504216 174.170549 
L 122.265174 176.533942 
L 121.06301 178.897334 
L 119.916782 181.260726 
L 118.839546 183.624119 
L 117.839035 185.987511 
L 116.918955 188.350903 
L 116.080561 190.714295 
L 115.324163 193.077688 
L 114.650173 195.44108 
L 114.05941 197.804472 
L 113.552614 200.167865 
L 113.129411 202.531257 
L 112.787215 204.894649 
L 112.520537 207.258041 
L 112.321009 209.621434 
L 112.178125 211.984826 
L 112.080422 214.348218 
L 112.016739 216.711611 
L 111.977222 219.075003 
L 111.953899 221.438395 
L 111.940814 223.801787 
L 111.933839 226.16518 
L 111.930307 228.528572 
L 111.928608 230.891964 
L 111.927832 233.255357 
L 111.927496 235.618749 
L 111.927358 237.982141 
L 111.927303 240.345533 
L 111.927283 242.708926 
L 111.927276 245.072318 
L 111.927274 247.43571 
L 111.927273 249.799103 
L 111.927273 252.162495 
L 111.927273 254.525887 
L 111.927273 256.889279 
L 111.927274 259.252672 
L 111.927278 261.616064 
L 111.927287 263.979456 
L 111.927311 266.342849 
L 111.927371 268.706241 
L 111.927514 271.069633 
L 111.927835 273.433025 
L 111.928516 275.796418 
L 111.929887 278.15981 
L 111.932496 280.523202 
L 111.937184 282.886595 
L 111.945143 285.249987 
L 111.957882 287.613379 
L 111.977082 289.976771 
L 112.004276 292.340164 
L 112.040371 294.703556 
L 112.085084 297.066948 
L 112.136473 299.430341 
L 112.190741 301.793733 
L 112.242508 304.157125 
L 112.285603 306.520518 
L 112.314238 308.88391 
L 112.324282 311.247302 
L 112.324282 311.247302 
z
" clip-path="url(#pc1905f4b1c)" style="fill: none; stroke: #000000; stroke-opacity: 0.3"/>
   </g>
   <g id="FillBetweenPolyCollection_10">
    <path d="M 113.775962 208.462135 
L 110.078584 208.462135 
L 109.879848 207.193304 
L 109.667408 205.924473 
L 109.440804 204.655643 
L 109.199748 203.386812 
L 108.944179 202.117981 
L 108.674302 200.84915 
L 108.390587 199.580319 
L 108.093729 198.311488 
L 107.784566 197.042658 
L 107.463943 195.773827 
L 107.132549 194.504996 
L 106.790726 193.236165 
L 106.438281 191.967334 
L 106.074321 190.698503 
L 105.697144 189.429673 
L 105.304205 188.160842 
L 104.89218 186.892011 
L 104.45714 185.62318 
L 103.994832 184.354349 
L 103.501051 183.085518 
L 102.972093 181.816688 
L 102.405226 180.547857 
L 101.79916 179.279026 
L 101.154452 178.010195 
L 100.473807 176.741364 
L 99.762242 175.472534 
L 99.027072 174.203703 
L 98.27773 172.934872 
L 97.525412 171.666041 
L 96.782574 170.39721 
L 96.062327 169.128379 
L 95.377778 167.859549 
L 94.741366 166.590718 
L 94.164253 165.321887 
L 93.655821 164.053056 
L 93.223309 162.784225 
L 92.871604 161.515394 
L 92.603216 160.246564 
L 92.418401 158.977733 
L 92.315421 157.708902 
L 92.290909 156.440071 
L 92.340289 155.17124 
L 92.458211 153.90241 
L 92.638965 152.633579 
L 92.876831 151.364748 
L 93.166356 150.095917 
L 93.502523 148.827086 
L 93.880839 147.558255 
L 94.297316 146.289425 
L 94.748395 145.020594 
L 95.230811 143.751763 
L 95.741433 142.482932 
L 96.277097 141.214101 
L 96.834464 139.94527 
L 97.409906 138.67644 
L 97.999443 137.407609 
L 98.598723 136.138778 
L 99.203066 134.869947 
L 99.80754 133.601116 
L 100.407091 132.332285 
L 100.99669 131.063455 
L 101.571502 129.794624 
L 102.127062 128.525793 
L 102.659437 127.256962 
L 103.165381 125.988131 
L 103.642447 124.719301 
L 104.089082 123.45047 
L 104.504659 122.181639 
L 104.889482 120.912808 
L 105.244725 119.643977 
L 105.572339 118.375146 
L 105.874905 117.106316 
L 106.155457 115.837485 
L 106.417286 114.568654 
L 106.663726 113.299823 
L 106.897949 112.030992 
L 107.122786 110.762161 
L 107.340571 109.493331 
L 107.553046 108.2245 
L 107.761305 106.955669 
L 107.965806 105.686838 
L 108.166432 104.418007 
L 108.362594 103.149176 
L 108.553374 101.880346 
L 108.737685 100.611515 
L 108.914435 99.342684 
L 109.082673 98.073853 
L 109.241717 96.805022 
L 109.39124 95.536192 
L 109.531312 94.267361 
L 109.662405 92.99853 
L 109.785351 91.729699 
L 109.901265 90.460868 
L 110.011449 89.192037 
L 110.11728 87.923207 
L 110.220094 86.654376 
L 110.321083 85.385545 
L 110.421206 84.116714 
L 110.521129 82.847883 
L 113.333416 82.847883 
L 113.333416 82.847883 
L 113.43334 84.116714 
L 113.533463 85.385545 
L 113.634451 86.654376 
L 113.737265 87.923207 
L 113.843096 89.192037 
L 113.953281 90.460868 
L 114.069195 91.729699 
L 114.19214 92.99853 
L 114.323233 94.267361 
L 114.463306 95.536192 
L 114.612828 96.805022 
L 114.771872 98.073853 
L 114.940111 99.342684 
L 115.11686 100.611515 
L 115.301172 101.880346 
L 115.491952 103.149176 
L 115.688113 104.418007 
L 115.888739 105.686838 
L 116.093241 106.955669 
L 116.3015 108.2245 
L 116.513975 109.493331 
L 116.73176 110.762161 
L 116.956596 112.030992 
L 117.19082 113.299823 
L 117.437259 114.568654 
L 117.699088 115.837485 
L 117.979641 117.106316 
L 118.282206 118.375146 
L 118.60982 119.643977 
L 118.965064 120.912808 
L 119.349886 122.181639 
L 119.765464 123.45047 
L 120.212098 124.719301 
L 120.689165 125.988131 
L 121.195108 127.256962 
L 121.727484 128.525793 
L 122.283043 129.794624 
L 122.857856 131.063455 
L 123.447454 132.332285 
L 124.047005 133.601116 
L 124.65148 134.869947 
L 125.255822 136.138778 
L 125.855103 137.407609 
L 126.444639 138.67644 
L 127.020082 139.94527 
L 127.577449 141.214101 
L 128.113113 142.482932 
L 128.623734 143.751763 
L 129.10615 145.020594 
L 129.55723 146.289425 
L 129.973707 147.558255 
L 130.352022 148.827086 
L 130.68819 150.095917 
L 130.977714 151.364748 
L 131.215581 152.633579 
L 131.396334 153.90241 
L 131.514256 155.17124 
L 131.563636 156.440071 
L 131.539125 157.708902 
L 131.436144 158.977733 
L 131.251329 160.246564 
L 130.982941 161.515394 
L 130.631237 162.784225 
L 130.198724 164.053056 
L 129.690293 165.321887 
L 129.11318 166.590718 
L 128.476768 167.859549 
L 127.792219 169.128379 
L 127.071972 170.39721 
L 126.329133 171.666041 
L 125.576815 172.934872 
L 124.827474 174.203703 
L 124.092304 175.472534 
L 123.380738 176.741364 
L 122.700094 178.010195 
L 122.055385 179.279026 
L 121.44932 180.547857 
L 120.882453 181.816688 
L 120.353495 183.085518 
L 119.859714 184.354349 
L 119.397405 185.62318 
L 118.962365 186.892011 
L 118.550341 188.160842 
L 118.157402 189.429673 
L 117.780225 190.698503 
L 117.416265 191.967334 
L 117.063819 193.236165 
L 116.721996 194.504996 
L 116.390603 195.773827 
L 116.06998 197.042658 
L 115.760817 198.311488 
L 115.463959 199.580319 
L 115.180243 200.84915 
L 114.910366 202.117981 
L 114.654798 203.386812 
L 114.413741 204.655643 
L 114.187138 205.924473 
L 113.974698 207.193304 
L 113.775962 208.462135 
L 113.775962 208.462135 
z
" clip-path="url(#pc1905f4b1c)" style="fill: none; stroke: #000000; stroke-opacity: 0.3"/>
   </g>
   <g id="FillBetweenPolyCollection_11">
    <path d="M 113.604615 243.986364 
L 110.24993 243.986364 
L 110.225511 242.143165 
L 110.219702 240.299965 
L 110.230389 238.456766 
L 110.254299 236.613567 
L 110.287162 234.770368 
L 110.323949 232.927169 
L 110.359167 231.08397 
L 110.387183 229.240771 
L 110.402545 227.397572 
L 110.400293 225.554373 
L 110.376218 223.711173 
L 110.327055 221.867974 
L 110.250606 220.024775 
L 110.145781 218.181576 
L 110.012557 216.338377 
L 109.851864 214.495178 
L 109.66541 212.651979 
L 109.455457 210.80878 
L 109.224563 208.965581 
L 108.975319 207.122381 
L 108.710074 205.279182 
L 108.430694 203.435983 
L 108.138345 201.592784 
L 107.83332 199.749585 
L 107.514926 197.906386 
L 107.181421 196.063187 
L 106.830031 194.219988 
L 106.457021 192.376789 
L 106.057851 190.533589 
L 105.627389 188.69039 
L 105.160206 186.847191 
L 104.650931 185.003992 
L 104.094665 183.160793 
L 103.487443 181.317594 
L 102.826727 179.474395 
L 102.1119 177.631196 
L 101.344735 175.787997 
L 100.529798 173.944797 
L 99.674736 172.101598 
L 98.790421 170.258399 
L 97.890898 168.4152 
L 96.993115 166.572001 
L 96.116429 164.728802 
L 95.281889 162.885603 
L 94.511328 161.042404 
L 93.826336 159.199205 
L 93.247162 157.356005 
L 92.79165 155.512806 
L 92.474288 153.669607 
L 92.305452 151.826408 
L 92.290909 149.983209 
L 92.431612 148.14001 
L 92.723803 146.296811 
L 93.159394 144.453612 
L 93.726582 142.610413 
L 94.410632 140.767213 
L 95.194743 138.924014 
L 96.060924 137.080815 
L 96.990811 135.237616 
L 97.966364 133.394417 
L 98.970421 131.551218 
L 99.98709 129.708019 
L 101.001993 127.86482 
L 102.002375 126.021621 
L 102.977127 124.178421 
L 103.916733 122.335222 
L 104.8132 120.492023 
L 105.659966 118.648824 
L 106.451835 116.805625 
L 107.184904 114.962426 
L 107.856523 113.119227 
L 108.465242 111.276028 
L 109.010756 109.432829 
L 109.493838 107.589629 
L 109.916238 105.74643 
L 110.280554 103.903231 
L 110.590088 102.060032 
L 110.848667 100.216833 
L 111.060471 98.373634 
L 111.229855 96.530435 
L 111.36119 94.687236 
L 111.458736 92.844037 
L 111.526544 91.000837 
L 111.568406 89.157638 
L 111.58783 87.314439 
L 111.588067 85.47124 
L 111.57215 83.628041 
L 111.542953 81.784842 
L 111.503255 79.941643 
L 111.45579 78.098444 
L 111.403284 76.255245 
L 111.348462 74.412045 
L 111.294022 72.568846 
L 111.242586 70.725647 
L 111.19662 68.882448 
L 111.158338 67.039249 
L 111.129609 65.19605 
L 111.111854 63.352851 
L 111.105979 61.509652 
L 112.748566 61.509652 
L 112.748566 61.509652 
L 112.742691 63.352851 
L 112.724936 65.19605 
L 112.696207 67.039249 
L 112.657926 68.882448 
L 112.611959 70.725647 
L 112.560523 72.568846 
L 112.506083 74.412045 
L 112.451261 76.255245 
L 112.398756 78.098444 
L 112.351291 79.941643 
L 112.311592 81.784842 
L 112.282395 83.628041 
L 112.266478 85.47124 
L 112.266715 87.314439 
L 112.28614 89.157638 
L 112.328001 91.000837 
L 112.39581 92.844037 
L 112.493356 94.687236 
L 112.624691 96.530435 
L 112.794074 98.373634 
L 113.005878 100.216833 
L 113.264458 102.060032 
L 113.573991 103.903231 
L 113.938308 105.74643 
L 114.360707 107.589629 
L 114.84379 109.432829 
L 115.389304 111.276028 
L 115.998022 113.119227 
L 116.669641 114.962426 
L 117.402711 116.805625 
L 118.194579 118.648824 
L 119.041346 120.492023 
L 119.937812 122.335222 
L 120.877419 124.178421 
L 121.85217 126.021621 
L 122.852553 127.86482 
L 123.867455 129.708019 
L 124.884124 131.551218 
L 125.888181 133.394417 
L 126.863734 135.237616 
L 127.793621 137.080815 
L 128.659803 138.924014 
L 129.443914 140.767213 
L 130.127964 142.610413 
L 130.695152 144.453612 
L 131.130743 146.296811 
L 131.422933 148.14001 
L 131.563636 149.983209 
L 131.549093 151.826408 
L 131.380257 153.669607 
L 131.062895 155.512806 
L 130.607383 157.356005 
L 130.02821 159.199205 
L 129.343218 161.042404 
L 128.572657 162.885603 
L 127.738116 164.728802 
L 126.86143 166.572001 
L 125.963648 168.4152 
L 125.064124 170.258399 
L 124.179809 172.101598 
L 123.324748 173.944797 
L 122.50981 175.787997 
L 121.742646 177.631196 
L 121.027819 179.474395 
L 120.367102 181.317594 
L 119.759881 183.160793 
L 119.203614 185.003992 
L 118.694339 186.847191 
L 118.227157 188.69039 
L 117.796695 190.533589 
L 117.397524 192.376789 
L 117.024515 194.219988 
L 116.673124 196.063187 
L 116.33962 197.906386 
L 116.021225 199.749585 
L 115.716201 201.592784 
L 115.423852 203.435983 
L 115.144472 205.279182 
L 114.879227 207.122381 
L 114.629982 208.965581 
L 114.399089 210.80878 
L 114.189135 212.651979 
L 114.002681 214.495178 
L 113.841988 216.338377 
L 113.708764 218.181576 
L 113.603939 220.024775 
L 113.527491 221.867974 
L 113.478327 223.711173 
L 113.454252 225.554373 
L 113.452001 227.397572 
L 113.467363 229.240771 
L 113.495378 231.08397 
L 113.530597 232.927169 
L 113.567384 234.770368 
L 113.600246 236.613567 
L 113.624156 238.456766 
L 113.634843 240.299965 
L 113.629034 242.143165 
L 113.604615 243.986364 
L 113.604615 243.986364 
z
" clip-path="url(#pc1905f4b1c)" style="fill: none; stroke: #000000; stroke-opacity: 0.3"/>
   </g>
   <g id="FillBetweenPolyCollection_12">
    <path d="M 113.965359 222.832478 
L 109.889187 222.832478 
L 109.781495 221.499831 
L 109.676307 220.167183 
L 109.572295 218.834536 
L 109.467534 217.501888 
L 109.359513 216.169241 
L 109.245186 214.836593 
L 109.121057 213.503946 
L 108.983296 212.171298 
L 108.827884 210.838651 
L 108.650792 209.506003 
L 108.448166 208.173356 
L 108.216527 206.840708 
L 107.952965 205.508061 
L 107.655314 204.175413 
L 107.322305 202.842766 
L 106.953676 201.510118 
L 106.550232 200.177471 
L 106.113851 198.844823 
L 105.647433 197.512176 
L 105.154783 196.179528 
L 104.640449 194.846881 
L 104.109507 193.514233 
L 103.567321 192.181586 
L 103.019274 190.848938 
L 102.470517 189.516291 
L 101.92572 188.183643 
L 101.388863 186.850996 
L 100.863087 185.518348 
L 100.350587 184.185701 
L 99.852592 182.853053 
L 99.369401 181.520406 
L 98.90049 180.187758 
L 98.44468 178.855111 
L 98.00034 177.522463 
L 97.565629 176.189816 
L 97.138744 174.857168 
L 96.718162 173.524521 
L 96.302864 172.191873 
L 95.892513 170.859226 
L 95.487591 169.526578 
L 95.089484 168.193931 
L 94.700497 166.861283 
L 94.323825 165.528636 
L 93.96347 164.195988 
L 93.624111 162.863341 
L 93.310946 161.530693 
L 93.029505 160.198046 
L 92.785462 158.865398 
L 92.584434 157.532751 
L 92.431794 156.200103 
L 92.332494 154.867456 
L 92.290909 153.534808 
L 92.310701 152.202161 
L 92.394705 150.869513 
L 92.544846 149.536866 
L 92.762067 148.204218 
L 93.046295 146.871571 
L 93.396416 145.538923 
L 93.810285 144.206276 
L 94.284748 142.873628 
L 94.815693 141.540981 
L 95.398116 140.208333 
L 96.026218 138.875686 
L 96.693511 137.543038 
L 97.392946 136.210391 
L 98.117063 134.877743 
L 98.858139 133.545096 
L 99.608353 132.212448 
L 100.359953 130.879801 
L 101.105409 129.547153 
L 101.837575 128.214506 
L 102.54982 126.881858 
L 103.236151 125.549211 
L 103.891319 124.216563 
L 104.51089 122.883916 
L 105.091303 121.551268 
L 105.629897 120.218621 
L 106.124922 118.885973 
L 106.575518 117.553326 
L 106.981686 116.220678 
L 107.344232 114.888031 
L 107.664702 113.555383 
L 107.945304 112.222736 
L 108.188815 110.890088 
L 108.39849 109.557441 
L 108.577956 108.224793 
L 108.731103 106.892146 
L 108.861982 105.559498 
L 108.974688 104.226851 
L 109.073262 102.894204 
L 109.161582 101.561556 
L 109.243277 100.228909 
L 109.321634 98.896261 
L 109.399534 97.563614 
L 109.479393 96.230966 
L 109.563121 94.898319 
L 109.652106 93.565671 
L 109.747206 92.233024 
L 109.848771 90.900376 
L 114.005774 90.900376 
L 114.005774 90.900376 
L 114.10734 92.233024 
L 114.202439 93.565671 
L 114.291424 94.898319 
L 114.375153 96.230966 
L 114.455012 97.563614 
L 114.532912 98.896261 
L 114.611269 100.228909 
L 114.692963 101.561556 
L 114.781284 102.894204 
L 114.879857 104.226851 
L 114.992564 105.559498 
L 115.123442 106.892146 
L 115.27659 108.224793 
L 115.456055 109.557441 
L 115.665731 110.890088 
L 115.909242 112.222736 
L 116.189843 113.555383 
L 116.510313 114.888031 
L 116.872859 116.220678 
L 117.279027 117.553326 
L 117.729624 118.885973 
L 118.224648 120.218621 
L 118.763243 121.551268 
L 119.343655 122.883916 
L 119.963226 124.216563 
L 120.618394 125.549211 
L 121.304726 126.881858 
L 122.01697 128.214506 
L 122.749136 129.547153 
L 123.494593 130.879801 
L 124.246192 132.212448 
L 124.996407 133.545096 
L 125.737482 134.877743 
L 126.461599 136.210391 
L 127.161035 137.543038 
L 127.828327 138.875686 
L 128.456429 140.208333 
L 129.038853 141.540981 
L 129.569797 142.873628 
L 130.044261 144.206276 
L 130.45813 145.538923 
L 130.808251 146.871571 
L 131.092478 148.204218 
L 131.309699 149.536866 
L 131.45984 150.869513 
L 131.543845 152.202161 
L 131.563636 153.534808 
L 131.522051 154.867456 
L 131.422751 156.200103 
L 131.270111 157.532751 
L 131.069084 158.865398 
L 130.825041 160.198046 
L 130.5436 161.530693 
L 130.230434 162.863341 
L 129.891075 164.195988 
L 129.53072 165.528636 
L 129.154049 166.861283 
L 128.765061 168.193931 
L 128.366954 169.526578 
L 127.962033 170.859226 
L 127.551681 172.191873 
L 127.136383 173.524521 
L 126.715802 174.857168 
L 126.288916 176.189816 
L 125.854205 177.522463 
L 125.409865 178.855111 
L 124.954055 180.187758 
L 124.485145 181.520406 
L 124.001953 182.853053 
L 123.503958 184.185701 
L 122.991459 185.518348 
L 122.465682 186.850996 
L 121.928826 188.183643 
L 121.384028 189.516291 
L 120.835271 190.848938 
L 120.287225 192.181586 
L 119.745038 193.514233 
L 119.214097 194.846881 
L 118.699763 196.179528 
L 118.207113 197.512176 
L 117.740695 198.844823 
L 117.304314 200.177471 
L 116.90087 201.510118 
L 116.532241 202.842766 
L 116.199232 204.175413 
L 115.901581 205.508061 
L 115.638018 206.840708 
L 115.40638 208.173356 
L 115.203754 209.506003 
L 115.026662 210.838651 
L 114.87125 212.171298 
L 114.733488 213.503946 
L 114.60936 214.836593 
L 114.495033 216.169241 
L 114.387012 217.501888 
L 114.28225 218.834536 
L 114.178238 220.167183 
L 114.07305 221.499831 
L 113.965359 222.832478 
L 113.965359 222.832478 
z
" clip-path="url(#pc1905f4b1c)" style="fill: none; stroke: #000000; stroke-opacity: 0.3"/>
   </g>
   <g id="FillBetweenPolyCollection_13">
    <path d="M 112.56495 319.690865 
L 111.289595 319.690865 
L 111.298174 317.26471 
L 111.323226 314.838555 
L 111.362782 312.412399 
L 111.413847 309.986244 
L 111.472773 307.560089 
L 111.535689 305.133933 
L 111.598913 302.707778 
L 111.659287 300.281623 
L 111.714404 297.855467 
L 111.762699 295.429312 
L 111.803429 293.003156 
L 111.836549 290.577001 
L 111.862547 288.150846 
L 111.882249 285.72469 
L 111.896637 283.298535 
L 111.9067 280.87238 
L 111.913313 278.446224 
L 111.917166 276.020069 
L 111.918714 273.593913 
L 111.918149 271.167758 
L 111.915396 268.741603 
L 111.910107 266.315447 
L 111.901676 263.889292 
L 111.88927 261.463137 
L 111.871874 259.036981 
L 111.848378 256.610826 
L 111.817681 254.18467 
L 111.778828 251.758515 
L 111.731147 249.33236 
L 111.674377 246.906204 
L 111.608728 244.480049 
L 111.53486 242.053894 
L 111.453735 239.627738 
L 111.366338 237.201583 
L 111.27327 234.775428 
L 111.174273 232.349272 
L 111.067731 229.923117 
L 110.95026 227.496961 
L 110.816471 225.070806 
L 110.658981 222.644651 
L 110.46874 220.218495 
L 110.235653 217.79234 
L 109.949476 215.366185 
L 109.600864 212.940029 
L 109.18244 210.513874 
L 108.689716 208.087718 
L 108.121713 205.661563 
L 107.481147 203.235408 
L 106.77413 200.809252 
L 106.009414 198.383097 
L 105.197288 195.956942 
L 104.348337 193.530786 
L 103.472292 191.104631 
L 102.577207 188.678475 
L 101.669135 186.25232 
L 100.752355 183.826165 
L 99.830137 181.400009 
L 98.90586 178.973854 
L 97.98431 176.547699 
L 97.072911 174.121543 
L 96.182717 171.695388 
L 95.329023 169.269233 
L 94.531514 166.843077 
L 93.813904 164.416922 
L 93.203023 161.990766 
L 92.727344 159.564611 
L 92.414928 157.138456 
L 92.290909 154.7123 
L 92.374691 152.286145 
L 92.677208 149.85999 
L 93.198674 147.433834 
L 93.927294 145.007679 
L 94.839307 142.581523 
L 95.900534 140.155368 
L 97.069337 137.729213 
L 98.300573 135.303057 
L 99.549962 132.876902 
L 100.778123 130.450747 
L 101.953657 128.024591 
L 103.054821 125.598436 
L 104.069659 123.17228 
L 104.994737 120.746125 
L 105.832919 118.31997 
L 106.590699 115.893814 
L 107.275684 113.467659 
L 107.894631 111.041504 
L 108.452318 108.615348 
L 108.951285 106.189193 
L 109.392295 103.763038 
L 109.775279 101.336882 
L 110.10043 98.910727 
L 110.369185 96.484571 
L 110.584871 94.058416 
L 110.752918 91.632261 
L 110.880635 89.206105 
L 110.976613 86.77995 
L 111.049923 84.353795 
L 111.109239 81.927639 
L 111.162062 79.501484 
L 112.692483 79.501484 
L 112.692483 79.501484 
L 112.745306 81.927639 
L 112.804623 84.353795 
L 112.877933 86.77995 
L 112.973911 89.206105 
L 113.101627 91.632261 
L 113.269675 94.058416 
L 113.48536 96.484571 
L 113.754115 98.910727 
L 114.079267 101.336882 
L 114.462251 103.763038 
L 114.903261 106.189193 
L 115.402227 108.615348 
L 115.959915 111.041504 
L 116.578861 113.467659 
L 117.263846 115.893814 
L 118.021627 118.31997 
L 118.859808 120.746125 
L 119.784887 123.17228 
L 120.799724 125.598436 
L 121.900888 128.024591 
L 123.076422 130.450747 
L 124.304583 132.876902 
L 125.553972 135.303057 
L 126.785209 137.729213 
L 127.954011 140.155368 
L 129.015239 142.581523 
L 129.927252 145.007679 
L 130.655871 147.433834 
L 131.177337 149.85999 
L 131.479854 152.286145 
L 131.563636 154.7123 
L 131.439617 157.138456 
L 131.127201 159.564611 
L 130.651522 161.990766 
L 130.040642 164.416922 
L 129.323031 166.843077 
L 128.525522 169.269233 
L 127.671828 171.695388 
L 126.781635 174.121543 
L 125.870236 176.547699 
L 124.948686 178.973854 
L 124.024409 181.400009 
L 123.10219 183.826165 
L 122.18541 186.25232 
L 121.277338 188.678475 
L 120.382254 191.104631 
L 119.506209 193.530786 
L 118.657257 195.956942 
L 117.845131 198.383097 
L 117.080415 200.809252 
L 116.373399 203.235408 
L 115.732833 205.661563 
L 115.164829 208.087718 
L 114.672105 210.513874 
L 114.253681 212.940029 
L 113.905069 215.366185 
L 113.618893 217.79234 
L 113.385806 220.218495 
L 113.195564 222.644651 
L 113.038075 225.070806 
L 112.904285 227.496961 
L 112.786815 229.923117 
L 112.680272 232.349272 
L 112.581275 234.775428 
L 112.488208 237.201583 
L 112.40081 239.627738 
L 112.319686 242.053894 
L 112.245818 244.480049 
L 112.180169 246.906204 
L 112.123399 249.33236 
L 112.075718 251.758515 
L 112.036864 254.18467 
L 112.006167 256.610826 
L 111.982671 259.036981 
L 111.965276 261.463137 
L 111.952869 263.889292 
L 111.944439 266.315447 
L 111.939149 268.741603 
L 111.936396 271.167758 
L 111.935832 273.593913 
L 111.93738 276.020069 
L 111.941233 278.446224 
L 111.947846 280.87238 
L 111.957908 283.298535 
L 111.972297 285.72469 
L 111.991999 288.150846 
L 112.017997 290.577001 
L 112.051117 293.003156 
L 112.091846 295.429312 
L 112.140142 297.855467 
L 112.195258 300.281623 
L 112.255633 302.707778 
L 112.318856 305.133933 
L 112.381773 307.560089 
L 112.440699 309.986244 
L 112.491764 312.412399 
L 112.531319 314.838555 
L 112.556371 317.26471 
L 112.56495 319.690865 
L 112.56495 319.690865 
z
" clip-path="url(#pc1905f4b1c)" style="fill: none; stroke: #000000; stroke-opacity: 0.3"/>
   </g>
   <g id="FillBetweenPolyCollection_14">
    <path d="M 113.542095 228.248826 
L 110.312451 228.248826 
L 110.215531 226.908759 
L 110.122623 225.568693 
L 110.033197 224.228626 
L 109.946235 222.88856 
L 109.860241 221.548494 
L 109.773292 220.208427 
L 109.683095 218.868361 
L 109.587082 217.528294 
L 109.482498 216.188228 
L 109.366519 214.848161 
L 109.236359 213.508095 
L 109.089388 212.168028 
L 108.923248 210.827962 
L 108.73596 209.487895 
L 108.526023 208.147829 
L 108.29251 206.807762 
L 108.035133 205.467696 
L 107.754299 204.127629 
L 107.451125 202.787563 
L 107.127428 201.447496 
L 106.785666 200.10743 
L 106.428843 198.767363 
L 106.06036 197.427297 
L 105.68384 196.08723 
L 105.302905 194.747164 
L 104.920951 193.407098 
L 104.540912 192.067031 
L 104.165045 190.726965 
L 103.79475 189.386898 
L 103.430452 188.046832 
L 103.071543 186.706765 
L 102.716408 185.366699 
L 102.36253 184.026632 
L 102.006669 182.686566 
L 101.645099 181.346499 
L 101.273897 180.006433 
L 100.889248 178.666366 
L 100.487756 177.3263 
L 100.066726 175.986233 
L 99.624413 174.646167 
L 99.160205 173.3061 
L 98.674748 171.966034 
L 98.169997 170.625967 
L 97.649198 169.285901 
L 97.11681 167.945834 
L 96.578381 166.605768 
L 96.040371 165.265702 
L 95.509959 163.925635 
L 94.994831 162.585569 
L 94.502956 161.245502 
L 94.042369 159.905436 
L 93.620961 158.565369 
L 93.246273 157.225303 
L 92.925315 155.885236 
L 92.664384 154.54517 
L 92.468912 153.205103 
L 92.343323 151.865037 
L 92.290909 150.52497 
L 92.313737 149.184904 
L 92.412576 147.844837 
L 92.586858 146.504771 
L 92.834676 145.164704 
L 93.152823 143.824638 
L 93.536872 142.484571 
L 93.981298 141.144505 
L 94.479644 139.804439 
L 95.024717 138.464372 
L 95.608818 137.124306 
L 96.223983 135.784239 
L 96.862231 134.444173 
L 97.515803 133.104106 
L 98.177383 131.76404 
L 98.840281 130.423973 
L 99.498576 129.083907 
L 100.14721 127.74384 
L 100.782036 126.403774 
L 101.399807 125.063707 
L 101.998134 123.723641 
L 102.575398 122.383574 
L 103.130644 121.043508 
L 103.663455 119.703441 
L 104.173833 118.363375 
L 104.662075 117.023308 
L 105.128669 115.683242 
L 105.574212 114.343175 
L 105.999342 113.003109 
L 106.404701 111.663043 
L 106.790906 110.322976 
L 107.158546 108.98291 
L 107.50818 107.642843 
L 107.840352 106.302777 
L 108.155595 104.96271 
L 108.454443 103.622644 
L 108.737433 102.282577 
L 109.005106 100.942511 
L 109.258001 99.602444 
L 109.496644 98.262378 
L 109.721533 96.922311 
L 109.933131 95.582245 
L 113.921414 95.582245 
L 113.921414 95.582245 
L 114.133012 96.922311 
L 114.357902 98.262378 
L 114.596544 99.602444 
L 114.849439 100.942511 
L 115.117113 102.282577 
L 115.400103 103.622644 
L 115.69895 104.96271 
L 116.014193 106.302777 
L 116.346365 107.642843 
L 116.696 108.98291 
L 117.063639 110.322976 
L 117.449844 111.663043 
L 117.855203 113.003109 
L 118.280334 114.343175 
L 118.725876 115.683242 
L 119.192471 117.023308 
L 119.680712 118.363375 
L 120.19109 119.703441 
L 120.723902 121.043508 
L 121.279147 122.383574 
L 121.856411 123.723641 
L 122.454738 125.063707 
L 123.07251 126.403774 
L 123.707335 127.74384 
L 124.35597 129.083907 
L 125.014265 130.423973 
L 125.677162 131.76404 
L 126.338742 133.104106 
L 126.992315 134.444173 
L 127.630562 135.784239 
L 128.245727 137.124306 
L 128.829828 138.464372 
L 129.374902 139.804439 
L 129.873248 141.144505 
L 130.317674 142.484571 
L 130.701722 143.824638 
L 131.019869 145.164704 
L 131.267687 146.504771 
L 131.441969 147.844837 
L 131.540808 149.184904 
L 131.563636 150.52497 
L 131.511223 151.865037 
L 131.385633 153.205103 
L 131.190161 154.54517 
L 130.929231 155.885236 
L 130.608272 157.225303 
L 130.233585 158.565369 
L 129.812176 159.905436 
L 129.351589 161.245502 
L 128.859714 162.585569 
L 128.344586 163.925635 
L 127.814175 165.265702 
L 127.276164 166.605768 
L 126.737735 167.945834 
L 126.205348 169.285901 
L 125.684548 170.625967 
L 125.179797 171.966034 
L 124.694341 173.3061 
L 124.230133 174.646167 
L 123.78782 175.986233 
L 123.36679 177.3263 
L 122.965297 178.666366 
L 122.580648 180.006433 
L 122.209446 181.346499 
L 121.847876 182.686566 
L 121.492015 184.026632 
L 121.138138 185.366699 
L 120.783003 186.706765 
L 120.424093 188.046832 
L 120.059795 189.386898 
L 119.689501 190.726965 
L 119.313633 192.067031 
L 118.933594 193.407098 
L 118.551641 194.747164 
L 118.170706 196.08723 
L 117.794185 197.427297 
L 117.425703 198.767363 
L 117.068879 200.10743 
L 116.727117 201.447496 
L 116.40342 202.787563 
L 116.100246 204.127629 
L 115.819412 205.467696 
L 115.562036 206.807762 
L 115.328522 208.147829 
L 115.118586 209.487895 
L 114.931297 210.827962 
L 114.765157 212.168028 
L 114.618187 213.508095 
L 114.488026 214.848161 
L 114.372047 216.188228 
L 114.267464 217.528294 
L 114.17145 218.868361 
L 114.081254 220.208427 
L 113.994304 221.548494 
L 113.90831 222.88856 
L 113.821348 224.228626 
L 113.731923 225.568693 
L 113.639015 226.908759 
L 113.542095 228.248826 
L 113.542095 228.248826 
z
" clip-path="url(#pc1905f4b1c)" style="fill: none; stroke: #000000; stroke-opacity: 0.3"/>
   </g>
   <g id="matplotlib.axis_1">
    <g id="xtick_1">
     <g id="line2d_1">
      <defs>
       <path id="md570f8653b" d="M 0 0 
L 0 3.5 
" style="stroke: #000000; stroke-width: 0.8"/>
      </defs>
      <g>
       <use xlink:href="#md570f8653b" x="46.472727" y="291.6" style="stroke: #000000; stroke-width: 0.8"/>
      </g>
     </g>
     <g id="text_1">
      <text style="font-size: 10px; font-family: 'DejaVu Sans', 'Bitstream Vera Sans', 'Computer Modern Sans Serif', 'Lucida Grande', 'Verdana', 'Geneva', 'Lucid', 'Arial', 'Helvetica', 'Avant Garde', sans-serif; text-anchor: middle" x="46.472727" y="306.198438" transform="rotate(-0 46.472727 306.198438)">0.3</text>
     </g>
    </g>
    <g id="xtick_2">
     <g id="line2d_2">
      <g>
       <use xlink:href="#md570f8653b" x="111.927273" y="291.6" style="stroke: #000000; stroke-width: 0.8"/>
      </g>
     </g>
     <g id="text_2">
      <text style="font-size: 10px; font-family: 'DejaVu Sans', 'Bitstream Vera Sans', 'Computer Modern Sans Serif', 'Lucida Grande', 'Verdana', 'Geneva', 'Lucid', 'Arial', 'Helvetica', 'Avant Garde', sans-serif; text-anchor: middle" x="111.927273" y="306.198438" transform="rotate(-0 111.927273 306.198438)">0.6</text>
     </g>
    </g>
   </g>
   <g id="matplotlib.axis_2">
    <g id="ytick_1">
     <g id="line2d_3">
      <defs>
       <path id="ma741b473b9" d="M 0 0 
L -3.5 0 
" style="stroke: #000000; stroke-width: 0.8"/>
      </defs>
      <g>
       <use xlink:href="#ma741b473b9" x="21.6" y="291.6" style="stroke: #000000; stroke-width: 0.8"/>
      </g>
     </g>
    </g>
    <g id="ytick_2">
     <g id="line2d_4">
      <g>
       <use xlink:href="#ma741b473b9" x="21.6" y="199.8" style="stroke: #000000; stroke-width: 0.8"/>
      </g>
     </g>
    </g>
    <g id="ytick_3">
     <g id="line2d_5">
      <g>
       <use xlink:href="#ma741b473b9" x="21.6" y="108" style="stroke: #000000; stroke-width: 0.8"/>
      </g>
     </g>
    </g>
    <g id="ytick_4">
     <g id="line2d_6">
      <g>
       <use xlink:href="#ma741b473b9" x="21.6" y="16.2" style="stroke: #000000; stroke-width: 0.8"/>
      </g>
     </g>
    </g>
   </g>
   <g id="line2d_7">
    <path d="M 46.472727 269.568 
L 46.472727 264.06 
" clip-path="url(#pc1905f4b1c)" style="fill: none; stroke: #000000; stroke-linecap: square"/>
   </g>
   <g id="line2d_8">
    <path d="M 46.472727 269.568 
L 111.927273 269.568 
" clip-path="url(#pc1905f4b1c)" style="fill: none; stroke: #000000; stroke-linecap: square"/>
   </g>
   <g id="line2d_9">
    <path d="M 111.927273 269.568 
L 111.927273 264.06 
" clip-path="url(#pc1905f4b1c)" style="fill: none; stroke: #000000; stroke-linecap: square"/>
   </g>
   <g id="patch_3">
    <path d="M 21.6 291.6 
L 21.6 16.2 
" style="fill: none; stroke: #000000; stroke-width: 0.8; stroke-linejoin: miter; stroke-linecap: square"/>
   </g>
   <g id="patch_4">
    <path d="M 136.8 291.6 
L 136.8 16.2 
" style="fill: none; stroke: #000000; stroke-width: 0.8; stroke-linejoin: miter; stroke-linecap: square"/>
   </g>
   <g id="patch_5">
    <path d="M 21.6 291.6 
L 136.8 291.6 
" style="fill: none; stroke: #000000; stroke-width: 0.8; stroke-linejoin: miter; stroke-linecap: square"/>
   </g>
   <g id="patch_6">
    <path d="M 21.6 16.2 
L 136.8 16.2 
" style="fill: none; stroke: #000000; stroke-width: 0.8; stroke-linejoin: miter; stroke-linecap: square"/>
   </g>
   <g id="text_3">
    <text style="font-weight: 700; font-size: 12px; font-family: 'DejaVu Sans', 'Bitstream Vera Sans', 'Computer Modern Sans Serif', 'Lucida Grande', 'Verdana', 'Geneva', 'Lucid', 'Arial', 'Helvetica', 'Avant Garde', sans-serif; text-anchor: middle" x="46.472727" y="289.104375" transform="rotate(-0 46.472727 289.104375)">#17</text>
   </g>
   <g id="text_4">
    <text style="font-weight: 700; font-size: 12px; font-family: 'DejaVu Sans', 'Bitstream Vera Sans', 'Computer Modern Sans Serif', 'Lucida Grande', 'Verdana', 'Geneva', 'Lucid', 'Arial', 'Helvetica', 'Avant Garde', sans-serif; text-anchor: middle" x="111.927273" y="289.104375" transform="rotate(-0 111.927273 289.104375)">#31</text>
   </g>
   <g id="text_5">
    <text style="font-size: 12px; font-family: 'DejaVu Sans', 'Bitstream Vera Sans', 'Computer Modern Sans Serif', 'Lucida Grande', 'Verdana', 'Geneva', 'Lucid', 'Arial', 'Helvetica', 'Avant Garde', sans-serif; text-anchor: middle" x="79.2" y="268.449375" transform="rotate(-0 79.2 268.449375)">****</text>
   </g>
   <g id="line2d_10">
    <path d="M 21.6 109.784146 
L 136.8 109.784146 
" clip-path="url(#pc1905f4b1c)" style="fill: none; stroke-dasharray: 3.7,1.6; stroke-dashoffset: 0; stroke: #808080; stroke-opacity: 0.7"/>
   </g>
   <g id="line2d_11">
    <path d="M 21.6 152.194513 
L 136.8 152.194513 
" clip-path="url(#pc1905f4b1c)" style="fill: none; stroke-dasharray: 3.7,1.6; stroke-dashoffset: 0; stroke: #808080; stroke-opacity: 0.7"/>
   </g>
   <g id="LineCollection_1">
    <path d="M 46.472727 115.453804 
L 46.472727 104.114488 
" clip-path="url(#pc1905f4b1c)" style="fill: none; stroke: #000000; stroke-width: 2"/>
   </g>
   <g id="line2d_12">
    <defs>
     <path id="m1a1c98b5f8" d="M 5 0 
L -5 -0 
" style="stroke: #000000; stroke-width: 2"/>
    </defs>
    <g clip-path="url(#pc1905f4b1c)">
     <use xlink:href="#m1a1c98b5f8" x="46.472727" y="115.453804" style="stroke: #000000; stroke-width: 2"/>
    </g>
   </g>
   <g id="line2d_13">
    <g clip-path="url(#pc1905f4b1c)">
     <use xlink:href="#m1a1c98b5f8" x="46.472727" y="104.114488" style="stroke: #000000; stroke-width: 2"/>
    </g>
   </g>
   <g id="LineCollection_2">
    <path d="M 111.927273 155.796894 
L 111.927273 148.592133 
" clip-path="url(#pc1905f4b1c)" style="fill: none; stroke: #000000; stroke-width: 2"/>
   </g>
   <g id="line2d_14">
    <g clip-path="url(#pc1905f4b1c)">
     <use xlink:href="#m1a1c98b5f8" x="111.927273" y="155.796894" style="stroke: #000000; stroke-width: 2"/>
    </g>
   </g>
   <g id="line2d_15">
    <g clip-path="url(#pc1905f4b1c)">
     <use xlink:href="#m1a1c98b5f8" x="111.927273" y="148.592133" style="stroke: #000000; stroke-width: 2"/>
    </g>
   </g>
   <g id="line2d_16">
    <defs>
     <path id="mbf583d5198" d="M 0 4 
C 1.060812 4 2.078319 3.578535 2.828427 2.828427 
C 3.578535 2.078319 4 1.060812 4 0 
C 4 -1.060812 3.578535 -2.078319 2.828427 -2.828427 
C 2.078319 -3.578535 1.060812 -4 0 -4 
C -1.060812 -4 -2.078319 -3.578535 -2.828427 -2.828427 
C -3.578535 -2.078319 -4 -1.060812 -4 0 
C -4 1.060812 -3.578535 2.078319 -2.828427 2.828427 
C -2.078319 3.578535 -1.060812 4 0 4 
z
" style="stroke: #000000"/>
    </defs>
    <g clip-path="url(#pc1905f4b1c)">
     <use xlink:href="#mbf583d5198" x="46.472727" y="109.784146" style="stroke: #000000"/>
    </g>
   </g>
   <g id="line2d_17">
    <g clip-path="url(#pc1905f4b1c)">
     <use xlink:href="#mbf583d5198" x="111.927273" y="152.194513" style="stroke: #000000"/>
    </g>
   </g>
  </g>
 </g>
 <defs>
  <clipPath id="pc1905f4b1c">
   <rect x="21.6" y="16.2" width="115.2" height="275.4"/>
  </clipPath>
 </defs>
</svg>
