<?xml version="1.0" encoding="utf-8" standalone="no"?>
<!DOCTYPE svg PUBLIC "-//W3C//DTD SVG 1.1//EN"
  "http://www.w3.org/Graphics/SVG/1.1/DTD/svg11.dtd">
<svg xmlns:xlink="http://www.w3.org/1999/xlink" width="144pt" height="324pt" viewBox="0 0 144 324" xmlns="http://www.w3.org/2000/svg" version="1.1">
 <metadata>
  <rdf:RDF xmlns:dc="http://purl.org/dc/elements/1.1/" xmlns:cc="http://creativecommons.org/ns#" xmlns:rdf="http://www.w3.org/1999/02/22-rdf-syntax-ns#">
   <cc:Work>
    <dc:type rdf:resource="http://purl.org/dc/dcmitype/StillImage"/>
    <dc:date>2025-12-11T09:10:01.638737</dc:date>
    <dc:format>image/svg+xml</dc:format>
    <dc:creator>
     <cc:Agent>
      <dc:title>Matplotlib v3.10.0, https://matplotlib.org/</dc:title>
     </cc:Agent>
    </dc:creator>
   </cc:Work>
  </rdf:RDF>
 </metadata>
 <defs>
  <style type="text/css">*{stroke-linejoin: round; stroke-linecap: butt}</style>
 </defs>
 <g id="figure_1">
  <g id="patch_1">
   <path d="M 0 324 
L 144 324 
L 144 0 
L 0 0 
z
" style="fill: #ffffff"/>
  </g>
  <g id="axes_1">
   <g id="patch_2">
    <path d="M 21.6 291.6 
L 136.8 291.6 
L 136.8 16.2 
L 21.6 16.2 
z
" style="fill: #ffffff"/>
   </g>
   <g id="FillBetweenPolyCollection_1">
    <path d="M 50.756909 181.973954 
L 50.043091 181.973954 
L 50.040488 180.743904 
L 50.04291 179.513854 
L 50.048011 178.283804 
L 50.052597 177.053754 
L 50.052814 175.823704 
L 50.044397 174.593654 
L 50.02296 173.363604 
L 49.984287 172.133554 
L 49.924614 170.903504 
L 49.840859 169.673454 
L 49.730788 168.443405 
L 49.593096 167.213355 
L 49.427398 165.983305 
L 49.234115 164.753255 
L 49.014285 163.523205 
L 48.769291 162.293155 
L 48.500563 161.063105 
L 48.209285 159.833055 
L 47.896136 158.603005 
L 47.56114 157.372955 
L 47.20362 156.142905 
L 46.82229 154.912855 
L 46.415482 153.682805 
L 45.981466 152.452755 
L 45.518832 151.222705 
L 45.026866 149.992656 
L 44.505859 148.762606 
L 43.957285 147.532556 
L 43.383812 146.302506 
L 42.789127 145.072456 
L 42.177595 143.842406 
L 41.553815 142.612356 
L 40.922154 141.382306 
L 40.286361 140.152256 
L 39.649351 138.922206 
L 39.013236 137.692156 
L 38.379613 136.462106 
L 37.750093 135.232056 
L 37.126984 134.002006 
L 36.514005 132.771956 
L 35.916924 131.541907 
L 35.343975 130.311857 
L 34.805976 129.081807 
L 34.316097 127.851757 
L 33.889284 126.621707 
L 33.541387 125.391657 
L 33.288075 124.161607 
L 33.14367 122.931557 
L 33.12 121.701507 
L 33.225416 120.471457 
L 33.464069 119.241407 
L 33.83552 118.011357 
L 34.33471 116.781307 
L 34.952282 115.551257 
L 35.675163 114.321207 
L 36.487336 113.091157 
L 37.370663 111.861108 
L 38.305684 110.631058 
L 39.272312 109.401008 
L 40.250429 108.170958 
L 41.220386 106.940908 
L 42.163486 105.710858 
L 43.062478 104.480808 
L 43.902098 103.250758 
L 44.669645 102.020708 
L 45.355525 100.790658 
L 45.953681 99.560608 
L 46.461834 98.330558 
L 46.881454 97.100508 
L 47.217455 95.870458 
L 47.477638 94.640408 
L 47.671959 93.410359 
L 47.811715 92.180309 
L 47.908743 90.950259 
L 47.974715 89.720209 
L 48.020573 88.490159 
L 48.05611 87.260109 
L 48.089691 86.030059 
L 48.128076 84.800009 
L 48.17632 83.569959 
L 48.237728 82.339909 
L 48.313861 81.109859 
L 48.404596 79.879809 
L 48.508258 78.649759 
L 48.621845 77.419709 
L 48.741335 76.189659 
L 48.862103 74.95961 
L 48.979386 73.72956 
L 49.088786 72.49951 
L 49.186753 71.26946 
L 49.270974 70.03941 
L 49.34063 68.80936 
L 49.396471 67.57931 
L 49.440692 66.34926 
L 49.476614 65.11921 
L 49.508221 63.88916 
L 49.539618 62.65911 
L 49.574481 61.42906 
L 49.615601 60.19901 
L 51.184399 60.19901 
L 51.184399 60.19901 
L 51.225519 61.42906 
L 51.260382 62.65911 
L 51.291779 63.88916 
L 51.323386 65.11921 
L 51.359308 66.34926 
L 51.403529 67.57931 
L 51.45937 68.80936 
L 51.529026 70.03941 
L 51.613247 71.26946 
L 51.711214 72.49951 
L 51.820614 73.72956 
L 51.937897 74.95961 
L 52.058665 76.189659 
L 52.178155 77.419709 
L 52.291742 78.649759 
L 52.395404 79.879809 
L 52.486139 81.109859 
L 52.562272 82.339909 
L 52.62368 83.569959 
L 52.671924 84.800009 
L 52.710309 86.030059 
L 52.74389 87.260109 
L 52.779427 88.490159 
L 52.825285 89.720209 
L 52.891257 90.950259 
L 52.988285 92.180309 
L 53.128041 93.410359 
L 53.322362 94.640408 
L 53.582545 95.870458 
L 53.918546 97.100508 
L 54.338166 98.330558 
L 54.846319 99.560608 
L 55.444475 100.790658 
L 56.130355 102.020708 
L 56.897902 103.250758 
L 57.737522 104.480808 
L 58.636514 105.710858 
L 59.579614 106.940908 
L 60.549571 108.170958 
L 61.527688 109.401008 
L 62.494316 110.631058 
L 63.429337 111.861108 
L 64.312664 113.091157 
L 65.124837 114.321207 
L 65.847718 115.551257 
L 66.46529 116.781307 
L 66.96448 118.011357 
L 67.335931 119.241407 
L 67.574584 120.471457 
L 67.68 121.701507 
L 67.65633 122.931557 
L 67.511925 124.161607 
L 67.258613 125.391657 
L 66.910716 126.621707 
L 66.483903 127.851757 
L 65.994024 129.081807 
L 65.456025 130.311857 
L 64.883076 131.541907 
L 64.285995 132.771956 
L 63.673016 134.002006 
L 63.049907 135.232056 
L 62.420387 136.462106 
L 61.786764 137.692156 
L 61.150649 138.922206 
L 60.513639 140.152256 
L 59.877846 141.382306 
L 59.246185 142.612356 
L 58.622405 143.842406 
L 58.010873 145.072456 
L 57.416188 146.302506 
L 56.842715 147.532556 
L 56.294141 148.762606 
L 55.773134 149.992656 
L 55.281168 151.222705 
L 54.818534 152.452755 
L 54.384518 153.682805 
L 53.97771 154.912855 
L 53.59638 156.142905 
L 53.23886 157.372955 
L 52.903864 158.603005 
L 52.590715 159.833055 
L 52.299437 161.063105 
L 52.030709 162.293155 
L 51.785715 163.523205 
L 51.565885 164.753255 
L 51.372602 165.983305 
L 51.206904 167.213355 
L 51.069212 168.443405 
L 50.959141 169.673454 
L 50.875386 170.903504 
L 50.815713 172.133554 
L 50.77704 173.363604 
L 50.755603 174.593654 
L 50.747186 175.823704 
L 50.747403 177.053754 
L 50.751989 178.283804 
L 50.75709 179.513854 
L 50.759512 180.743904 
L 50.756909 181.973954 
L 50.756909 181.973954 
z
" clip-path="url(#p49edefed2e)" style="fill: none; stroke: #000000; stroke-opacity: 0.3"/>
   </g>
   <g id="FillBetweenPolyCollection_2">
    <path d="M 56.75552 163.323273 
L 44.04448 163.323273 
L 43.466238 161.874809 
L 42.869438 160.426344 
L 42.257269 158.97788 
L 41.633213 157.529415 
L 41.001012 156.080951 
L 40.364625 154.632486 
L 39.728193 153.184022 
L 39.096007 151.735558 
L 38.472471 150.287093 
L 37.862076 148.838629 
L 37.269372 147.390164 
L 36.698939 145.9417 
L 36.155361 144.493235 
L 35.643193 143.044771 
L 35.166925 141.596306 
L 34.730932 140.147842 
L 34.339424 138.699378 
L 33.996373 137.250913 
L 33.70544 135.802449 
L 33.469883 134.353984 
L 33.292464 132.90552 
L 33.175347 131.457055 
L 33.12 130.008591 
L 33.127105 128.560127 
L 33.196479 127.111662 
L 33.327016 125.663198 
L 33.516657 124.214733 
L 33.76239 122.766269 
L 34.060286 121.317804 
L 34.405573 119.86934 
L 34.792742 118.420876 
L 35.215694 116.972411 
L 35.667908 115.523947 
L 36.142634 114.075482 
L 36.6331 112.627018 
L 37.13271 111.178553 
L 37.635244 109.730089 
L 38.135034 108.281624 
L 38.627107 106.83316 
L 39.107297 105.384696 
L 39.572307 103.936231 
L 40.019737 102.487767 
L 40.448053 101.039302 
L 40.856529 99.590838 
L 41.24514 98.142373 
L 41.614436 96.693909 
L 41.965392 95.245445 
L 42.299256 93.79698 
L 42.617391 92.348516 
L 42.92114 90.900051 
L 43.211698 89.451587 
L 43.490027 88.003122 
L 43.756791 86.554658 
L 44.012333 85.106194 
L 44.256677 83.657729 
L 44.489567 82.209265 
L 44.710533 80.7608 
L 44.918966 79.312336 
L 45.114215 77.863871 
L 45.295682 76.415407 
L 45.462916 74.966942 
L 45.615696 73.518478 
L 45.754091 72.070014 
L 45.878512 70.621549 
L 45.989725 69.173085 
L 46.088853 67.72462 
L 46.177347 66.276156 
L 46.256934 64.827691 
L 46.329556 63.379227 
L 46.397285 61.930763 
L 46.462239 60.482298 
L 46.52649 59.033834 
L 46.591977 57.585369 
L 46.66043 56.136905 
L 46.733295 54.68844 
L 46.81169 53.239976 
L 46.89637 51.791512 
L 46.987708 50.343047 
L 47.085703 48.894583 
L 47.190003 47.446118 
L 47.299941 45.997654 
L 47.41459 44.549189 
L 47.532823 43.100725 
L 47.653386 41.65226 
L 47.774962 40.203796 
L 47.896245 38.755332 
L 48.016004 37.306867 
L 48.133133 35.858403 
L 48.246704 34.409938 
L 48.35599 32.961474 
L 48.460488 31.513009 
L 48.55992 30.064545 
L 48.654229 28.616081 
L 48.743551 27.167616 
L 48.828192 25.719152 
L 48.908585 24.270687 
L 48.985255 22.822223 
L 49.05877 21.373758 
L 49.129705 19.925294 
L 51.670295 19.925294 
L 51.670295 19.925294 
L 51.74123 21.373758 
L 51.814745 22.822223 
L 51.891415 24.270687 
L 51.971808 25.719152 
L 52.056449 27.167616 
L 52.145771 28.616081 
L 52.24008 30.064545 
L 52.339512 31.513009 
L 52.44401 32.961474 
L 52.553296 34.409938 
L 52.666867 35.858403 
L 52.783996 37.306867 
L 52.903755 38.755332 
L 53.025038 40.203796 
L 53.146614 41.65226 
L 53.267177 43.100725 
L 53.38541 44.549189 
L 53.500059 45.997654 
L 53.609997 47.446118 
L 53.714297 48.894583 
L 53.812292 50.343047 
L 53.90363 51.791512 
L 53.98831 53.239976 
L 54.066705 54.68844 
L 54.13957 56.136905 
L 54.208023 57.585369 
L 54.27351 59.033834 
L 54.337761 60.482298 
L 54.402715 61.930763 
L 54.470444 63.379227 
L 54.543066 64.827691 
L 54.622653 66.276156 
L 54.711147 67.72462 
L 54.810275 69.173085 
L 54.921488 70.621549 
L 55.045909 72.070014 
L 55.184304 73.518478 
L 55.337084 74.966942 
L 55.504318 76.415407 
L 55.685785 77.863871 
L 55.881034 79.312336 
L 56.089467 80.7608 
L 56.310433 82.209265 
L 56.543323 83.657729 
L 56.787667 85.106194 
L 57.043209 86.554658 
L 57.309973 88.003122 
L 57.588302 89.451587 
L 57.87886 90.900051 
L 58.182609 92.348516 
L 58.500744 93.79698 
L 58.834608 95.245445 
L 59.185564 96.693909 
L 59.55486 98.142373 
L 59.943471 99.590838 
L 60.351947 101.039302 
L 60.780263 102.487767 
L 61.227693 103.936231 
L 61.692703 105.384696 
L 62.172893 106.83316 
L 62.664966 108.281624 
L 63.164756 109.730089 
L 63.66729 111.178553 
L 64.1669 112.627018 
L 64.657366 114.075482 
L 65.132092 115.523947 
L 65.584306 116.972411 
L 66.007258 118.420876 
L 66.394427 119.86934 
L 66.739714 121.317804 
L 67.03761 122.766269 
L 67.283343 124.214733 
L 67.472984 125.663198 
L 67.603521 127.111662 
L 67.672895 128.560127 
L 67.68 130.008591 
L 67.624653 131.457055 
L 67.507536 132.90552 
L 67.330117 134.353984 
L 67.09456 135.802449 
L 66.803627 137.250913 
L 66.460576 138.699378 
L 66.069068 140.147842 
L 65.633075 141.596306 
L 65.156807 143.044771 
L 64.644639 144.493235 
L 64.101061 145.9417 
L 63.530628 147.390164 
L 62.937924 148.838629 
L 62.327529 150.287093 
L 61.703993 151.735558 
L 61.071807 153.184022 
L 60.435375 154.632486 
L 59.798988 156.080951 
L 59.166787 157.529415 
L 58.542731 158.97788 
L 57.930562 160.426344 
L 57.333762 161.874809 
L 56.75552 163.323273 
L 56.75552 163.323273 
z
" clip-path="url(#p49edefed2e)" style="fill: none; stroke: #000000; stroke-opacity: 0.3"/>
   </g>
   <g id="FillBetweenPolyCollection_3">
    <path d="M 51.002679 205.273671 
L 49.797321 205.273671 
L 49.803695 203.28808 
L 49.823812 201.302489 
L 49.85552 199.316898 
L 49.895541 197.331307 
L 49.939657 195.345716 
L 49.982933 193.360125 
L 50.019903 191.374534 
L 50.0447 189.388943 
L 50.051102 187.403351 
L 50.0325 185.41776 
L 49.981832 183.432169 
L 49.891519 181.446578 
L 49.753483 179.460987 
L 49.559282 177.475396 
L 49.300436 175.489805 
L 48.968916 173.504214 
L 48.557804 171.518623 
L 48.062034 169.533032 
L 47.479124 167.547441 
L 46.809767 165.56185 
L 46.058176 163.576259 
L 45.232085 161.590668 
L 44.342384 159.605077 
L 43.402422 157.619486 
L 42.427104 155.633895 
L 41.431932 153.648303 
L 40.432198 151.662712 
L 39.442464 149.677121 
L 38.47643 147.69153 
L 37.547177 145.705939 
L 36.667671 143.720348 
L 35.851341 141.734757 
L 35.112511 139.749166 
L 34.466501 137.763575 
L 33.929273 135.777984 
L 33.516611 133.792393 
L 33.242946 131.806802 
L 33.12 129.821211 
L 33.155475 127.83562 
L 33.352019 125.850029 
L 33.70662 123.864438 
L 34.210521 121.878846 
L 34.84966 119.893255 
L 35.605544 117.907664 
L 36.456432 115.922073 
L 37.378684 113.936482 
L 38.348094 111.950891 
L 39.341123 109.9653 
L 40.335907 107.979709 
L 41.313021 105.994118 
L 42.255972 104.008527 
L 43.151451 102.022936 
L 43.989366 100.037345 
L 44.762717 98.051754 
L 45.467339 96.066163 
L 46.101559 94.080572 
L 46.665798 92.094981 
L 47.162154 90.10939 
L 47.593989 88.123798 
L 47.965553 86.138207 
L 48.281665 84.152616 
L 48.547481 82.167025 
L 48.768337 80.181434 
L 48.949673 78.195843 
L 49.097007 76.210252 
L 49.21592 74.224661 
L 49.312015 72.23907 
L 49.390827 70.253479 
L 49.457658 68.267888 
L 49.517355 66.282297 
L 49.574066 64.296706 
L 49.631008 62.311115 
L 49.690297 60.325524 
L 49.752894 58.339933 
L 49.818655 56.354342 
L 49.88651 54.36875 
L 49.954717 52.383159 
L 50.021166 50.397568 
L 50.083668 48.411977 
L 50.140199 46.426386 
L 50.189061 44.440795 
L 50.228959 42.455204 
L 50.258997 40.469613 
L 50.278626 38.484022 
L 50.287566 36.498431 
L 50.285746 34.51284 
L 50.273274 32.527249 
L 50.250466 30.541658 
L 50.217916 28.556067 
L 50.176596 26.570476 
L 50.127968 24.584885 
L 50.074052 22.599293 
L 50.017434 20.613702 
L 49.961189 18.628111 
L 49.908699 16.64252 
L 49.863392 14.656929 
L 49.82842 12.671338 
L 49.806335 10.685747 
L 49.7988 8.700156 
L 51.0012 8.700156 
L 51.0012 8.700156 
L 50.993665 10.685747 
L 50.97158 12.671338 
L 50.936608 14.656929 
L 50.891301 16.64252 
L 50.838811 18.628111 
L 50.782566 20.613702 
L 50.725948 22.599293 
L 50.672032 24.584885 
L 50.623404 26.570476 
L 50.582084 28.556067 
L 50.549534 30.541658 
L 50.526726 32.527249 
L 50.514254 34.51284 
L 50.512434 36.498431 
L 50.521374 38.484022 
L 50.541003 40.469613 
L 50.571041 42.455204 
L 50.610939 44.440795 
L 50.659801 46.426386 
L 50.716332 48.411977 
L 50.778834 50.397568 
L 50.845283 52.383159 
L 50.91349 54.36875 
L 50.981345 56.354342 
L 51.047106 58.339933 
L 51.109703 60.325524 
L 51.168992 62.311115 
L 51.225934 64.296706 
L 51.282645 66.282297 
L 51.342342 68.267888 
L 51.409173 70.253479 
L 51.487985 72.23907 
L 51.58408 74.224661 
L 51.702993 76.210252 
L 51.850327 78.195843 
L 52.031663 80.181434 
L 52.252519 82.167025 
L 52.518335 84.152616 
L 52.834447 86.138207 
L 53.206011 88.123798 
L 53.637846 90.10939 
L 54.134202 92.094981 
L 54.698441 94.080572 
L 55.332661 96.066163 
L 56.037283 98.051754 
L 56.810634 100.037345 
L 57.648549 102.022936 
L 58.544028 104.008527 
L 59.486979 105.994118 
L 60.464093 107.979709 
L 61.458877 109.9653 
L 62.451906 111.950891 
L 63.421316 113.936482 
L 64.343568 115.922073 
L 65.194456 117.907664 
L 65.95034 119.893255 
L 66.589479 121.878846 
L 67.09338 123.864438 
L 67.447981 125.850029 
L 67.644525 127.83562 
L 67.68 129.821211 
L 67.557054 131.806802 
L 67.283389 133.792393 
L 66.870727 135.777984 
L 66.333499 137.763575 
L 65.687489 139.749166 
L 64.948659 141.734757 
L 64.132329 143.720348 
L 63.252823 145.705939 
L 62.32357 147.69153 
L 61.357536 149.677121 
L 60.367802 151.662712 
L 59.368068 153.648303 
L 58.372896 155.633895 
L 57.397578 157.619486 
L 56.457616 159.605077 
L 55.567915 161.590668 
L 54.741824 163.576259 
L 53.990233 165.56185 
L 53.320876 167.547441 
L 52.737966 169.533032 
L 52.242196 171.518623 
L 51.831084 173.504214 
L 51.499564 175.489805 
L 51.240718 177.475396 
L 51.046517 179.460987 
L 50.908481 181.446578 
L 50.818168 183.432169 
L 50.7675 185.41776 
L 50.748898 187.403351 
L 50.7553 189.388943 
L 50.780097 191.374534 
L 50.817067 193.360125 
L 50.860343 195.345716 
L 50.904459 197.331307 
L 50.94448 199.316898 
L 50.976188 201.302489 
L 50.996305 203.28808 
L 51.002679 205.273671 
L 51.002679 205.273671 
z
" clip-path="url(#p49edefed2e)" style="fill: none; stroke: #000000; stroke-opacity: 0.3"/>
   </g>
   <g id="FillBetweenPolyCollection_4">
    <path d="M 51.524621 169.79796 
L 49.275379 169.79796 
L 49.172723 168.748095 
L 49.064886 167.698231 
L 48.950169 166.648366 
L 48.826483 165.598501 
L 48.69146 164.548636 
L 48.542613 163.498771 
L 48.37751 162.448907 
L 48.193968 161.399042 
L 47.990217 160.349177 
L 47.765044 159.299312 
L 47.517867 158.249447 
L 47.248749 157.199583 
L 46.958329 156.149718 
L 46.647682 155.099853 
L 46.318118 154.049988 
L 45.970952 153.000123 
L 45.607253 151.950259 
L 45.227638 150.900394 
L 44.832115 149.850529 
L 44.420023 148.800664 
L 43.990081 147.7508 
L 43.540546 146.700935 
L 43.069491 145.65107 
L 42.575154 144.601205 
L 42.056341 143.55134 
L 41.512832 142.501476 
L 40.94574 141.451611 
L 40.357777 140.401746 
L 39.753385 139.351881 
L 39.138708 138.302016 
L 38.521392 137.252152 
L 37.910224 136.202287 
L 37.314626 135.152422 
L 36.744064 134.102557 
L 36.207409 133.052692 
L 35.712322 132.002828 
L 35.26473 130.952963 
L 34.868428 129.903098 
L 34.524879 128.853233 
L 34.23321 127.803368 
L 33.990427 126.753504 
L 33.791816 125.703639 
L 33.631496 124.653774 
L 33.503068 123.603909 
L 33.400282 122.554044 
L 33.317665 121.50418 
L 33.251034 120.454315 
L 33.197842 119.40445 
L 33.157344 118.354585 
L 33.130549 117.30472 
L 33.12 116.254856 
L 33.129406 115.204991 
L 33.163189 114.155126 
L 33.226002 113.105261 
L 33.322277 112.055396 
L 33.455854 111.005532 
L 33.62973 109.955667 
L 33.845924 108.905802 
L 34.105468 107.855937 
L 34.40849 106.806073 
L 34.754356 105.756208 
L 35.141827 104.706343 
L 35.569203 103.656478 
L 36.034413 102.606613 
L 36.535056 101.556749 
L 37.068371 100.506884 
L 37.631173 99.457019 
L 38.21976 98.407154 
L 38.829844 97.357289 
L 39.456504 96.307425 
L 40.094218 95.25756 
L 40.736945 94.207695 
L 41.378302 93.15783 
L 42.011777 92.107965 
L 42.630991 91.058101 
L 43.229964 90.008236 
L 43.803356 88.958371 
L 44.34667 87.908506 
L 44.856379 86.858641 
L 45.329995 85.808777 
L 45.76606 84.758912 
L 46.164074 83.709047 
L 46.524391 82.659182 
L 46.848085 81.609317 
L 47.13681 80.559453 
L 47.392681 79.509588 
L 47.618167 78.459723 
L 47.816014 77.409858 
L 47.989181 76.359993 
L 48.1408 75.310129 
L 48.274126 74.260264 
L 48.39248 73.210399 
L 48.499184 72.160534 
L 48.597462 71.11067 
L 48.690339 70.060805 
L 48.780518 69.01094 
L 48.870267 67.961075 
L 48.961321 66.91121 
L 49.054813 65.861346 
L 51.745187 65.861346 
L 51.745187 65.861346 
L 51.838679 66.91121 
L 51.929733 67.961075 
L 52.019482 69.01094 
L 52.109661 70.060805 
L 52.202538 71.11067 
L 52.300816 72.160534 
L 52.40752 73.210399 
L 52.525874 74.260264 
L 52.6592 75.310129 
L 52.810819 76.359993 
L 52.983986 77.409858 
L 53.181833 78.459723 
L 53.407319 79.509588 
L 53.66319 80.559453 
L 53.951915 81.609317 
L 54.275609 82.659182 
L 54.635926 83.709047 
L 55.03394 84.758912 
L 55.470005 85.808777 
L 55.943621 86.858641 
L 56.45333 87.908506 
L 56.996644 88.958371 
L 57.570036 90.008236 
L 58.169009 91.058101 
L 58.788223 92.107965 
L 59.421698 93.15783 
L 60.063055 94.207695 
L 60.705782 95.25756 
L 61.343496 96.307425 
L 61.970156 97.357289 
L 62.58024 98.407154 
L 63.168827 99.457019 
L 63.731629 100.506884 
L 64.264944 101.556749 
L 64.765587 102.606613 
L 65.230797 103.656478 
L 65.658173 104.706343 
L 66.045644 105.756208 
L 66.39151 106.806073 
L 66.694532 107.855937 
L 66.954076 108.905802 
L 67.17027 109.955667 
L 67.344146 111.005532 
L 67.477723 112.055396 
L 67.573998 113.105261 
L 67.636811 114.155126 
L 67.670594 115.204991 
L 67.68 116.254856 
L 67.669451 117.30472 
L 67.642656 118.354585 
L 67.602158 119.40445 
L 67.548966 120.454315 
L 67.482335 121.50418 
L 67.399718 122.554044 
L 67.296932 123.603909 
L 67.168504 124.653774 
L 67.008184 125.703639 
L 66.809573 126.753504 
L 66.56679 127.803368 
L 66.275121 128.853233 
L 65.931572 129.903098 
L 65.53527 130.952963 
L 65.087678 132.002828 
L 64.592591 133.052692 
L 64.055936 134.102557 
L 63.485374 135.152422 
L 62.889776 136.202287 
L 62.278608 137.252152 
L 61.661292 138.302016 
L 61.046615 139.351881 
L 60.442223 140.401746 
L 59.85426 141.451611 
L 59.287168 142.501476 
L 58.743659 143.55134 
L 58.224846 144.601205 
L 57.730509 145.65107 
L 57.259454 146.700935 
L 56.809919 147.7508 
L 56.379977 148.800664 
L 55.967885 149.850529 
L 55.572362 150.900394 
L 55.192747 151.950259 
L 54.829048 153.000123 
L 54.481882 154.049988 
L 54.152318 155.099853 
L 53.841671 156.149718 
L 53.551251 157.199583 
L 53.282133 158.249447 
L 53.034956 159.299312 
L 52.809783 160.349177 
L 52.606032 161.399042 
L 52.42249 162.448907 
L 52.257387 163.498771 
L 52.10854 164.548636 
L 51.973517 165.598501 
L 51.849831 166.648366 
L 51.735114 167.698231 
L 51.627277 168.748095 
L 51.524621 169.79796 
L 51.524621 169.79796 
z
" clip-path="url(#p49edefed2e)" style="fill: none; stroke: #000000; stroke-opacity: 0.3"/>
   </g>
   <g id="FillBetweenPolyCollection_5">
    <path d="M 52.794617 166.175002 
L 48.005383 166.175002 
L 47.747626 165.187568 
L 47.475465 164.200135 
L 47.189652 163.212701 
L 46.891044 162.225267 
L 46.580532 161.237834 
L 46.258956 160.2504 
L 45.927 159.262966 
L 45.585093 158.275533 
L 45.233313 157.288099 
L 44.871313 156.300665 
L 44.498274 155.313232 
L 44.112909 154.325798 
L 43.713512 153.338365 
L 43.298068 152.350931 
L 42.86441 151.363497 
L 42.410428 150.376064 
L 41.934319 149.38863 
L 41.434847 148.401196 
L 40.911604 147.413763 
L 40.365258 146.426329 
L 39.797735 145.438895 
L 39.212357 144.451462 
L 38.613882 143.464028 
L 38.008459 142.476595 
L 37.403482 141.489161 
L 36.807354 140.501727 
L 36.229166 139.514294 
L 35.678311 138.52686 
L 35.164056 137.539426 
L 34.695096 136.551993 
L 34.279129 135.564559 
L 33.922462 134.577125 
L 33.629694 133.589692 
L 33.403484 132.602258 
L 33.244434 131.614825 
L 33.151079 130.627391 
L 33.12 129.639957 
L 33.146051 128.652524 
L 33.222677 127.66509 
L 33.342309 126.677656 
L 33.49681 125.690223 
L 33.677946 124.702789 
L 33.877833 123.715355 
L 34.08936 122.727922 
L 34.306538 121.740488 
L 34.524764 120.753055 
L 34.740988 119.765621 
L 34.95377 118.778187 
L 35.163237 117.790754 
L 35.370935 116.80332 
L 35.579602 115.815886 
L 35.792884 114.828453 
L 36.014995 113.841019 
L 36.250376 112.853585 
L 36.503348 111.866152 
L 36.777796 110.878718 
L 37.076901 109.891284 
L 37.402922 108.903851 
L 37.75705 107.916417 
L 38.139334 106.928984 
L 38.548666 105.94155 
L 38.982845 104.954116 
L 39.438681 103.966683 
L 39.912158 102.979249 
L 40.398624 101.991815 
L 40.893005 101.004382 
L 41.390022 100.016948 
L 41.884413 99.029514 
L 42.371135 98.042081 
L 42.845547 97.054647 
L 43.303556 96.067214 
L 43.741731 95.07978 
L 44.157384 94.092346 
L 44.548598 93.104913 
L 44.914226 92.117479 
L 45.253854 91.130045 
L 45.567731 90.142612 
L 45.856674 89.155178 
L 46.121964 88.167744 
L 46.365229 87.180311 
L 46.588326 86.192877 
L 46.793232 85.205444 
L 46.981952 84.21801 
L 47.156437 83.230576 
L 47.318527 82.243143 
L 47.46991 81.255709 
L 47.612108 80.268275 
L 47.746467 79.280842 
L 47.87417 78.293408 
L 47.996253 77.305974 
L 48.113624 76.318541 
L 48.227081 75.331107 
L 48.337331 74.343674 
L 48.444993 73.35624 
L 48.550606 72.368806 
L 48.654619 71.381373 
L 48.757389 70.393939 
L 48.859164 69.406505 
L 48.960071 68.419072 
L 51.839929 68.419072 
L 51.839929 68.419072 
L 51.940836 69.406505 
L 52.042611 70.393939 
L 52.145381 71.381373 
L 52.249394 72.368806 
L 52.355007 73.35624 
L 52.462669 74.343674 
L 52.572919 75.331107 
L 52.686376 76.318541 
L 52.803747 77.305974 
L 52.92583 78.293408 
L 53.053533 79.280842 
L 53.187892 80.268275 
L 53.33009 81.255709 
L 53.481473 82.243143 
L 53.643563 83.230576 
L 53.818048 84.21801 
L 54.006768 85.205444 
L 54.211674 86.192877 
L 54.434771 87.180311 
L 54.678036 88.167744 
L 54.943326 89.155178 
L 55.232269 90.142612 
L 55.546146 91.130045 
L 55.885774 92.117479 
L 56.251402 93.104913 
L 56.642616 94.092346 
L 57.058269 95.07978 
L 57.496444 96.067214 
L 57.954453 97.054647 
L 58.428865 98.042081 
L 58.915587 99.029514 
L 59.409978 100.016948 
L 59.906995 101.004382 
L 60.401376 101.991815 
L 60.887842 102.979249 
L 61.361319 103.966683 
L 61.817155 104.954116 
L 62.251334 105.94155 
L 62.660666 106.928984 
L 63.04295 107.916417 
L 63.397078 108.903851 
L 63.723099 109.891284 
L 64.022204 110.878718 
L 64.296652 111.866152 
L 64.549624 112.853585 
L 64.785005 113.841019 
L 65.007116 114.828453 
L 65.220398 115.815886 
L 65.429065 116.80332 
L 65.636763 117.790754 
L 65.84623 118.778187 
L 66.059012 119.765621 
L 66.275236 120.753055 
L 66.493462 121.740488 
L 66.71064 122.727922 
L 66.922167 123.715355 
L 67.122054 124.702789 
L 67.30319 125.690223 
L 67.457691 126.677656 
L 67.577323 127.66509 
L 67.653949 128.652524 
L 67.68 129.639957 
L 67.648921 130.627391 
L 67.555566 131.614825 
L 67.396516 132.602258 
L 67.170306 133.589692 
L 66.877538 134.577125 
L 66.520871 135.564559 
L 66.104904 136.551993 
L 65.635944 137.539426 
L 65.121689 138.52686 
L 64.570834 139.514294 
L 63.992646 140.501727 
L 63.396518 141.489161 
L 62.791541 142.476595 
L 62.186118 143.464028 
L 61.587643 144.451462 
L 61.002265 145.438895 
L 60.434742 146.426329 
L 59.888396 147.413763 
L 59.365153 148.401196 
L 58.865681 149.38863 
L 58.389572 150.376064 
L 57.93559 151.363497 
L 57.501932 152.350931 
L 57.086488 153.338365 
L 56.687091 154.325798 
L 56.301726 155.313232 
L 55.928687 156.300665 
L 55.566687 157.288099 
L 55.214907 158.275533 
L 54.873 159.262966 
L 54.541044 160.2504 
L 54.219468 161.237834 
L 53.908956 162.225267 
L 53.610348 163.212701 
L 53.324535 164.200135 
L 53.052374 165.187568 
L 52.794617 166.175002 
L 52.794617 166.175002 
z
" clip-path="url(#p49edefed2e)" style="fill: none; stroke: #000000; stroke-opacity: 0.3"/>
   </g>
   <g id="FillBetweenPolyCollection_6">
    <path d="M 51.925968 172.758922 
L 48.874032 172.758922 
L 48.759772 171.895707 
L 48.634434 171.032492 
L 48.495799 170.169278 
L 48.341527 169.306063 
L 48.169246 168.442849 
L 47.976639 167.579634 
L 47.761544 166.716419 
L 47.522046 165.853205 
L 47.256574 164.98999 
L 46.963972 164.126776 
L 46.643575 163.263561 
L 46.295242 162.400346 
L 45.919386 161.537132 
L 45.51697 160.673917 
L 45.089479 159.810703 
L 44.638875 158.947488 
L 44.167526 158.084273 
L 43.678127 157.221059 
L 43.173605 156.357844 
L 42.657023 155.49463 
L 42.131491 154.631415 
L 41.600079 153.7682 
L 41.065748 152.904986 
L 40.531304 152.041771 
L 39.999361 151.178557 
L 39.472342 150.315342 
L 38.952487 149.452127 
L 38.44189 148.588913 
L 37.94254 147.725698 
L 37.456378 146.862484 
L 36.985351 145.999269 
L 36.531458 145.136054 
L 36.096783 144.27284 
L 35.683516 143.409625 
L 35.293942 142.546411 
L 34.930407 141.683196 
L 34.595258 140.819981 
L 34.290766 139.956767 
L 34.019016 139.093552 
L 33.781802 138.230338 
L 33.580506 137.367123 
L 33.415988 136.503908 
L 33.28849 135.640694 
L 33.197566 134.777479 
L 33.142038 133.914265 
L 33.12 133.05105 
L 33.128851 132.187835 
L 33.165379 131.324621 
L 33.225873 130.461406 
L 33.306281 129.598192 
L 33.402381 128.734977 
L 33.509978 127.871762 
L 33.625097 127.008548 
L 33.744177 126.145333 
L 33.864238 125.282119 
L 33.983029 124.418904 
L 34.099131 123.55569 
L 34.212019 122.692475 
L 34.322072 121.82926 
L 34.430541 120.966046 
L 34.539461 120.102831 
L 34.651524 119.239617 
L 34.769916 118.376402 
L 34.89812 117.513187 
L 35.039713 116.649973 
L 35.19815 115.786758 
L 35.376559 114.923544 
L 35.577551 114.060329 
L 35.803062 113.197114 
L 36.054235 112.3339 
L 36.331343 111.470685 
L 36.633764 110.607471 
L 36.96 109.744256 
L 37.307755 108.881041 
L 37.674045 108.017827 
L 38.055353 107.154612 
L 38.447803 106.291398 
L 38.847357 105.428183 
L 39.250011 104.564968 
L 39.651986 103.701754 
L 40.049896 102.838539 
L 40.440891 101.975325 
L 40.822765 101.11211 
L 41.194016 100.248895 
L 41.553866 99.385681 
L 41.90224 98.522466 
L 42.239697 97.659252 
L 42.567336 96.796037 
L 42.886667 95.932822 
L 43.199469 95.069608 
L 43.507635 94.206393 
L 43.813029 93.343179 
L 44.117341 92.479964 
L 44.421971 91.616749 
L 44.727931 90.753535 
L 45.035785 89.89032 
L 45.34561 89.027106 
L 45.656998 88.163891 
L 45.969081 87.300676 
L 54.830919 87.300676 
L 54.830919 87.300676 
L 55.143002 88.163891 
L 55.45439 89.027106 
L 55.764215 89.89032 
L 56.072069 90.753535 
L 56.378029 91.616749 
L 56.682659 92.479964 
L 56.986971 93.343179 
L 57.292365 94.206393 
L 57.600531 95.069608 
L 57.913333 95.932822 
L 58.232664 96.796037 
L 58.560303 97.659252 
L 58.89776 98.522466 
L 59.246134 99.385681 
L 59.605984 100.248895 
L 59.977235 101.11211 
L 60.359109 101.975325 
L 60.750104 102.838539 
L 61.148014 103.701754 
L 61.549989 104.564968 
L 61.952643 105.428183 
L 62.352197 106.291398 
L 62.744647 107.154612 
L 63.125955 108.017827 
L 63.492245 108.881041 
L 63.84 109.744256 
L 64.166236 110.607471 
L 64.468657 111.470685 
L 64.745765 112.3339 
L 64.996938 113.197114 
L 65.222449 114.060329 
L 65.423441 114.923544 
L 65.60185 115.786758 
L 65.760287 116.649973 
L 65.90188 117.513187 
L 66.030084 118.376402 
L 66.148476 119.239617 
L 66.260539 120.102831 
L 66.369459 120.966046 
L 66.477928 121.82926 
L 66.587981 122.692475 
L 66.700869 123.55569 
L 66.816971 124.418904 
L 66.935762 125.282119 
L 67.055823 126.145333 
L 67.174903 127.008548 
L 67.290022 127.871762 
L 67.397619 128.734977 
L 67.493719 129.598192 
L 67.574127 130.461406 
L 67.634621 131.324621 
L 67.671149 132.187835 
L 67.68 133.05105 
L 67.657962 133.914265 
L 67.602434 134.777479 
L 67.51151 135.640694 
L 67.384012 136.503908 
L 67.219494 137.367123 
L 67.018198 138.230338 
L 66.780984 139.093552 
L 66.509234 139.956767 
L 66.204742 140.819981 
L 65.869593 141.683196 
L 65.506058 142.546411 
L 65.116484 143.409625 
L 64.703217 144.27284 
L 64.268542 145.136054 
L 63.814649 145.999269 
L 63.343622 146.862484 
L 62.85746 147.725698 
L 62.35811 148.588913 
L 61.847513 149.452127 
L 61.327658 150.315342 
L 60.800639 151.178557 
L 60.268696 152.041771 
L 59.734252 152.904986 
L 59.199921 153.7682 
L 58.668509 154.631415 
L 58.142977 155.49463 
L 57.626395 156.357844 
L 57.121873 157.221059 
L 56.632474 158.084273 
L 56.161125 158.947488 
L 55.710521 159.810703 
L 55.28303 160.673917 
L 54.880614 161.537132 
L 54.504758 162.400346 
L 54.156425 163.263561 
L 53.836028 164.126776 
L 53.543426 164.98999 
L 53.277954 165.853205 
L 53.038456 166.716419 
L 52.823361 167.579634 
L 52.630754 168.442849 
L 52.458473 169.306063 
L 52.304201 170.169278 
L 52.165566 171.032492 
L 52.040228 171.895707 
L 51.925968 172.758922 
L 51.925968 172.758922 
z
" clip-path="url(#p49edefed2e)" style="fill: none; stroke: #000000; stroke-opacity: 0.3"/>
   </g>
   <g id="FillBetweenPolyCollection_7">
    <path d="M 53.784395 169.900429 
L 47.015605 169.900429 
L 46.59851 168.117099 
L 46.142847 166.33377 
L 45.646053 164.550441 
L 45.106029 162.767111 
L 44.521444 160.983782 
L 43.892058 159.200453 
L 43.219023 157.417123 
L 42.505152 155.633794 
L 41.755106 153.850465 
L 40.975492 152.067135 
L 40.174839 150.283806 
L 39.363445 148.500477 
L 38.553094 146.717147 
L 37.75666 144.933818 
L 36.987613 143.150489 
L 36.259458 141.367159 
L 35.585157 139.58383 
L 34.976553 137.800501 
L 34.443866 136.017171 
L 33.995261 134.233842 
L 33.636549 132.450513 
L 33.371016 130.667183 
L 33.1994 128.883854 
L 33.12 127.100525 
L 33.128914 125.317195 
L 33.220371 123.533866 
L 33.38714 121.750537 
L 33.62097 119.967207 
L 33.913046 118.183878 
L 34.254415 116.400549 
L 34.636369 114.617219 
L 35.050765 112.83389 
L 35.490258 111.050561 
L 35.948462 109.267231 
L 36.42002 107.483902 
L 36.900603 105.700573 
L 37.386835 103.917243 
L 37.876175 102.133914 
L 38.366753 100.350585 
L 38.857182 98.567255 
L 39.346379 96.783926 
L 39.833376 95.000597 
L 40.317168 93.217267 
L 40.796589 91.433938 
L 41.270236 89.650608 
L 41.73643 87.867279 
L 42.193234 86.08395 
L 42.638515 84.30062 
L 43.070032 82.517291 
L 43.485569 80.733962 
L 43.883065 78.950632 
L 44.260758 77.167303 
L 44.61731 75.383974 
L 44.951905 73.600644 
L 45.264321 71.817315 
L 45.554947 70.033986 
L 45.824772 68.250656 
L 46.075322 66.467327 
L 46.308564 64.683998 
L 46.526781 62.900668 
L 46.732438 61.117339 
L 46.928029 59.33401 
L 47.115942 57.55068 
L 47.298329 55.767351 
L 47.477005 53.984022 
L 47.653373 52.200692 
L 47.828373 50.417363 
L 48.002473 48.634034 
L 48.175674 46.850704 
L 48.347552 45.067375 
L 48.517308 43.284046 
L 48.683844 41.500716 
L 48.845838 39.717387 
L 49.001826 37.934058 
L 49.150287 36.150728 
L 49.289715 34.367399 
L 49.418689 32.58407 
L 49.535934 30.80074 
L 49.640367 29.017411 
L 49.731137 27.234082 
L 49.80765 25.450752 
L 49.869592 23.667423 
L 49.91694 21.884094 
L 49.949969 20.100764 
L 49.969251 18.317435 
L 49.975653 16.534106 
L 49.970324 14.750776 
L 49.954686 12.967447 
L 49.930401 11.184118 
L 49.899339 9.400788 
L 49.863537 7.617459 
L 49.825134 5.83413 
L 49.786309 4.0508 
L 49.749203 2.267471 
L 49.715832 0.484142 
L 49.69268 -1 
M 51.10732 -1 
L 51.084168 0.484142 
L 51.050797 2.267471 
L 51.013691 4.0508 
L 50.974866 5.83413 
L 50.936463 7.617459 
L 50.900661 9.400788 
L 50.869599 11.184118 
L 50.845314 12.967447 
L 50.829676 14.750776 
L 50.824347 16.534106 
L 50.830749 18.317435 
L 50.850031 20.100764 
L 50.88306 21.884094 
L 50.930408 23.667423 
L 50.99235 25.450752 
L 51.068863 27.234082 
L 51.159633 29.017411 
L 51.264066 30.80074 
L 51.381311 32.58407 
L 51.510285 34.367399 
L 51.649713 36.150728 
L 51.798174 37.934058 
L 51.954162 39.717387 
L 52.116156 41.500716 
L 52.282692 43.284046 
L 52.452448 45.067375 
L 52.624326 46.850704 
L 52.797527 48.634034 
L 52.971627 50.417363 
L 53.146627 52.200692 
L 53.322995 53.984022 
L 53.501671 55.767351 
L 53.684058 57.55068 
L 53.871971 59.33401 
L 54.067562 61.117339 
L 54.273219 62.900668 
L 54.491436 64.683998 
L 54.724678 66.467327 
L 54.975228 68.250656 
L 55.245053 70.033986 
L 55.535679 71.817315 
L 55.848095 73.600644 
L 56.18269 75.383974 
L 56.539242 77.167303 
L 56.916935 78.950632 
L 57.314431 80.733962 
L 57.729968 82.517291 
L 58.161485 84.30062 
L 58.606766 86.08395 
L 59.06357 87.867279 
L 59.529764 89.650608 
L 60.003411 91.433938 
L 60.482832 93.217267 
L 60.966624 95.000597 
L 61.453621 96.783926 
L 61.942818 98.567255 
L 62.433247 100.350585 
L 62.923825 102.133914 
L 63.413165 103.917243 
L 63.899397 105.700573 
L 64.37998 107.483902 
L 64.851538 109.267231 
L 65.309742 111.050561 
L 65.749235 112.83389 
L 66.163631 114.617219 
L 66.545585 116.400549 
L 66.886954 118.183878 
L 67.17903 119.967207 
L 67.41286 121.750537 
L 67.579629 123.533866 
L 67.671086 125.317195 
L 67.68 127.100525 
L 67.6006 128.883854 
L 67.428984 130.667183 
L 67.163451 132.450513 
L 66.804739 134.233842 
L 66.356134 136.017171 
L 65.823447 137.800501 
L 65.214843 139.58383 
L 64.540542 141.367159 
L 63.812387 143.150489 
L 63.04334 144.933818 
L 62.246906 146.717147 
L 61.436555 148.500477 
L 60.625161 150.283806 
L 59.824508 152.067135 
L 59.044894 153.850465 
L 58.294848 155.633794 
L 57.580977 157.417123 
L 56.907942 159.200453 
L 56.278556 160.983782 
L 55.693971 162.767111 
L 55.153947 164.550441 
L 54.657153 166.33377 
L 54.20149 168.117099 
L 53.784395 169.900429 
L 53.784395 169.900429 
" clip-path="url(#p49edefed2e)" style="fill: none; stroke: #000000; stroke-opacity: 0.3"/>
   </g>
   <g id="FillBetweenPolyCollection_8">
    <path d="M 109.180935 247.453468 
L 106.819065 247.453468 
L 106.818668 245.919996 
L 106.826172 244.386524 
L 106.840791 242.853053 
L 106.861429 241.319581 
L 106.886699 239.78611 
L 106.914938 238.252638 
L 106.944242 236.719166 
L 106.9725 235.185695 
L 106.997435 233.652223 
L 107.016656 232.118752 
L 107.0277 230.58528 
L 107.028093 229.051808 
L 107.0154 227.518337 
L 106.987283 225.984865 
L 106.941557 224.451394 
L 106.876248 222.917922 
L 106.789646 221.38445 
L 106.680361 219.850979 
L 106.547367 218.317507 
L 106.390047 216.784036 
L 106.208226 215.250564 
L 106.002191 213.717092 
L 105.7727 212.183621 
L 105.520974 210.650149 
L 105.248671 209.116678 
L 104.957838 207.583206 
L 104.650852 206.049734 
L 104.330333 204.516263 
L 103.999046 202.982791 
L 103.659798 201.449319 
L 103.315314 199.915848 
L 102.968126 198.382376 
L 102.620461 196.848905 
L 102.274146 195.315433 
L 101.930529 193.781961 
L 101.59043 192.24849 
L 101.254114 190.715018 
L 100.921309 189.181547 
L 100.591238 187.648075 
L 100.262704 186.114603 
L 99.934181 184.581132 
L 99.603938 183.04766 
L 99.270175 181.514189 
L 98.931155 179.980717 
L 98.585346 178.447245 
L 98.231538 176.913774 
L 97.868944 175.380302 
L 97.497276 173.846831 
L 97.116788 172.313359 
L 96.728293 170.779887 
L 96.333134 169.246416 
L 95.933148 167.712944 
L 95.530586 166.179473 
L 95.128027 164.646001 
L 94.728277 163.112529 
L 94.334271 161.579058 
L 93.948968 160.045586 
L 93.575268 158.512114 
L 93.215934 156.978643 
L 92.87354 155.445171 
L 92.550434 153.9117 
L 92.248717 152.378228 
L 91.970248 150.844756 
L 91.716651 149.311285 
L 91.489339 147.777813 
L 91.289543 146.244342 
L 91.118334 144.71087 
L 90.97665 143.177398 
L 90.865314 141.643927 
L 90.78504 140.110455 
L 90.736438 138.576984 
L 90.72 137.043512 
L 90.736094 135.51004 
L 90.78494 133.976569 
L 90.866596 132.443097 
L 90.980936 130.909626 
L 91.127644 129.376154 
L 91.306207 127.842682 
L 91.515918 126.309211 
L 91.755891 124.775739 
L 92.025078 123.242268 
L 92.322303 121.708796 
L 92.646286 120.175324 
L 92.995679 118.641853 
L 93.369096 117.108381 
L 93.765133 115.574909 
L 94.18239 114.041438 
L 94.619471 112.507966 
L 95.074983 110.974495 
L 95.547518 109.441023 
L 96.03563 107.907551 
L 96.537802 106.37408 
L 97.052412 104.840608 
L 97.577695 103.307137 
L 98.111718 101.773665 
L 98.65235 100.240193 
L 99.197256 98.706722 
L 99.743898 97.17325 
L 100.289553 95.639779 
L 115.710447 95.639779 
L 115.710447 95.639779 
L 116.256102 97.17325 
L 116.802744 98.706722 
L 117.34765 100.240193 
L 117.888282 101.773665 
L 118.422305 103.307137 
L 118.947588 104.840608 
L 119.462198 106.37408 
L 119.96437 107.907551 
L 120.452482 109.441023 
L 120.925017 110.974495 
L 121.380529 112.507966 
L 121.81761 114.041438 
L 122.234867 115.574909 
L 122.630904 117.108381 
L 123.004321 118.641853 
L 123.353714 120.175324 
L 123.677697 121.708796 
L 123.974922 123.242268 
L 124.244109 124.775739 
L 124.484082 126.309211 
L 124.693793 127.842682 
L 124.872356 129.376154 
L 125.019064 130.909626 
L 125.133404 132.443097 
L 125.21506 133.976569 
L 125.263906 135.51004 
L 125.28 137.043512 
L 125.263562 138.576984 
L 125.21496 140.110455 
L 125.134686 141.643927 
L 125.02335 143.177398 
L 124.881666 144.71087 
L 124.710457 146.244342 
L 124.510661 147.777813 
L 124.283349 149.311285 
L 124.029752 150.844756 
L 123.751283 152.378228 
L 123.449566 153.9117 
L 123.12646 155.445171 
L 122.784066 156.978643 
L 122.424732 158.512114 
L 122.051032 160.045586 
L 121.665729 161.579058 
L 121.271723 163.112529 
L 120.871973 164.646001 
L 120.469414 166.179473 
L 120.066852 167.712944 
L 119.666866 169.246416 
L 119.271707 170.779887 
L 118.883212 172.313359 
L 118.502724 173.846831 
L 118.131056 175.380302 
L 117.768462 176.913774 
L 117.414654 178.447245 
L 117.068845 179.980717 
L 116.729825 181.514189 
L 116.396062 183.04766 
L 116.065819 184.581132 
L 115.737296 186.114603 
L 115.408762 187.648075 
L 115.078691 189.181547 
L 114.745886 190.715018 
L 114.40957 192.24849 
L 114.069471 193.781961 
L 113.725854 195.315433 
L 113.379539 196.848905 
L 113.031874 198.382376 
L 112.684686 199.915848 
L 112.340202 201.449319 
L 112.000954 202.982791 
L 111.669667 204.516263 
L 111.349148 206.049734 
L 111.042162 207.583206 
L 110.751329 209.116678 
L 110.479026 210.650149 
L 110.2273 212.183621 
L 109.997809 213.717092 
L 109.791774 215.250564 
L 109.609953 216.784036 
L 109.452633 218.317507 
L 109.319639 219.850979 
L 109.210354 221.38445 
L 109.123752 222.917922 
L 109.058443 224.451394 
L 109.012717 225.984865 
L 108.9846 227.518337 
L 108.971907 229.051808 
L 108.9723 230.58528 
L 108.983344 232.118752 
L 109.002565 233.652223 
L 109.0275 235.185695 
L 109.055758 236.719166 
L 109.085062 238.252638 
L 109.113301 239.78611 
L 109.138571 241.319581 
L 109.159209 242.853053 
L 109.173828 244.386524 
L 109.181332 245.919996 
L 109.180935 247.453468 
L 109.180935 247.453468 
z
" clip-path="url(#p49edefed2e)" style="fill: none; stroke: #000000; stroke-opacity: 0.3"/>
   </g>
   <g id="FillBetweenPolyCollection_9">
    <path d="M 108.736848 258.189909 
L 107.263152 258.189909 
L 107.269447 256.454142 
L 107.288019 254.718374 
L 107.317928 252.982607 
L 107.357689 251.246839 
L 107.4054 249.511072 
L 107.45888 247.775305 
L 107.515834 246.039537 
L 107.573999 244.30377 
L 107.631281 242.568003 
L 107.685847 240.832235 
L 107.736192 239.096468 
L 107.781151 237.360701 
L 107.819886 235.624933 
L 107.851832 233.889166 
L 107.876622 232.153398 
L 107.894003 230.417631 
L 107.903747 228.681864 
L 107.905561 226.946096 
L 107.899024 225.210329 
L 107.883524 223.474562 
L 107.85823 221.738794 
L 107.822073 220.003027 
L 107.773756 218.267259 
L 107.71177 216.531492 
L 107.634434 214.795725 
L 107.539935 213.059957 
L 107.426376 211.32419 
L 107.291827 209.588423 
L 107.134369 207.852655 
L 106.952135 206.116888 
L 106.743343 204.381121 
L 106.506321 202.645353 
L 106.239532 200.909586 
L 105.941582 199.173818 
L 105.611235 197.438051 
L 105.24742 195.702284 
L 104.849237 193.966516 
L 104.415973 192.230749 
L 103.947121 190.494982 
L 103.442413 188.759214 
L 102.901878 187.023447 
L 102.325921 185.28768 
L 101.71543 183.551912 
L 101.071919 181.816145 
L 100.397688 180.080377 
L 99.695995 178.34461 
L 98.971229 176.608843 
L 98.229032 174.873075 
L 97.476375 173.137308 
L 96.721527 171.401541 
L 95.973922 169.665773 
L 95.243888 167.930006 
L 94.542254 166.194239 
L 93.879845 164.458471 
L 93.266901 162.722704 
L 92.712461 160.986936 
L 92.223783 159.251169 
L 91.805833 157.515402 
L 91.460926 155.779634 
L 91.188543 154.043867 
L 90.985364 152.3081 
L 90.845518 150.572332 
L 90.76105 148.836565 
L 90.722565 147.100797 
L 90.72 145.36503 
L 90.743468 143.629263 
L 90.784089 141.893495 
L 90.834748 140.157728 
L 90.890697 138.421961 
L 90.949951 136.686193 
L 91.013429 134.950426 
L 91.08483 133.214659 
L 91.170248 131.478891 
L 91.277562 129.743124 
L 91.415655 128.007356 
L 91.593553 126.271589 
L 91.819554 124.535822 
L 92.100444 122.800054 
L 92.440874 121.064287 
L 92.842943 119.32852 
L 93.306031 117.592752 
L 93.826863 115.856985 
L 94.399792 114.121218 
L 95.017253 112.38545 
L 95.670309 110.649683 
L 96.349258 108.913915 
L 97.044215 107.178148 
L 97.745628 105.442381 
L 98.444706 103.706613 
L 99.133727 101.970846 
L 99.80623 100.235079 
L 100.457094 98.499311 
L 101.08252 96.763544 
L 101.679927 95.027777 
L 102.247798 93.292009 
L 102.785477 91.556242 
L 103.292949 89.820474 
L 103.770617 88.084707 
L 104.219105 86.34894 
L 111.780895 86.34894 
L 111.780895 86.34894 
L 112.229383 88.084707 
L 112.707051 89.820474 
L 113.214523 91.556242 
L 113.752202 93.292009 
L 114.320073 95.027777 
L 114.91748 96.763544 
L 115.542906 98.499311 
L 116.19377 100.235079 
L 116.866273 101.970846 
L 117.555294 103.706613 
L 118.254372 105.442381 
L 118.955785 107.178148 
L 119.650742 108.913915 
L 120.329691 110.649683 
L 120.982747 112.38545 
L 121.600208 114.121218 
L 122.173137 115.856985 
L 122.693969 117.592752 
L 123.157057 119.32852 
L 123.559126 121.064287 
L 123.899556 122.800054 
L 124.180446 124.535822 
L 124.406447 126.271589 
L 124.584345 128.007356 
L 124.722438 129.743124 
L 124.829752 131.478891 
L 124.91517 133.214659 
L 124.986571 134.950426 
L 125.050049 136.686193 
L 125.109303 138.421961 
L 125.165252 140.157728 
L 125.215911 141.893495 
L 125.256532 143.629263 
L 125.28 145.36503 
L 125.277435 147.100797 
L 125.23895 148.836565 
L 125.154482 150.572332 
L 125.014636 152.3081 
L 124.811457 154.043867 
L 124.539074 155.779634 
L 124.194167 157.515402 
L 123.776217 159.251169 
L 123.287539 160.986936 
L 122.733099 162.722704 
L 122.120155 164.458471 
L 121.457746 166.194239 
L 120.756112 167.930006 
L 120.026078 169.665773 
L 119.278473 171.401541 
L 118.523625 173.137308 
L 117.770968 174.873075 
L 117.028771 176.608843 
L 116.304005 178.34461 
L 115.602312 180.080377 
L 114.928081 181.816145 
L 114.28457 183.551912 
L 113.674079 185.28768 
L 113.098122 187.023447 
L 112.557587 188.759214 
L 112.052879 190.494982 
L 111.584027 192.230749 
L 111.150763 193.966516 
L 110.75258 195.702284 
L 110.388765 197.438051 
L 110.058418 199.173818 
L 109.760468 200.909586 
L 109.493679 202.645353 
L 109.256657 204.381121 
L 109.047865 206.116888 
L 108.865631 207.852655 
L 108.708173 209.588423 
L 108.573624 211.32419 
L 108.460065 213.059957 
L 108.365566 214.795725 
L 108.28823 216.531492 
L 108.226244 218.267259 
L 108.177927 220.003027 
L 108.14177 221.738794 
L 108.116476 223.474562 
L 108.100976 225.210329 
L 108.094439 226.946096 
L 108.096253 228.681864 
L 108.105997 230.417631 
L 108.123378 232.153398 
L 108.148168 233.889166 
L 108.180114 235.624933 
L 108.218849 237.360701 
L 108.263808 239.096468 
L 108.314153 240.832235 
L 108.368719 242.568003 
L 108.426001 244.30377 
L 108.484166 246.039537 
L 108.54112 247.775305 
L 108.5946 249.511072 
L 108.642311 251.246839 
L 108.682072 252.982607 
L 108.711981 254.718374 
L 108.730553 256.454142 
L 108.736848 258.189909 
L 108.736848 258.189909 
z
" clip-path="url(#p49edefed2e)" style="fill: none; stroke: #000000; stroke-opacity: 0.3"/>
   </g>
   <g id="FillBetweenPolyCollection_10">
    <path d="M 108.523815 298.392513 
L 107.476185 298.392513 
L 107.483737 295.868874 
L 107.505747 293.345235 
L 107.540364 290.821595 
L 107.584789 288.297956 
L 107.635645 285.774317 
L 107.689397 283.250678 
L 107.742744 280.727039 
L 107.792917 278.2034 
L 107.837864 275.67976 
L 107.876297 273.156121 
L 107.907618 270.632482 
L 107.931761 268.108843 
L 107.948991 265.585204 
L 107.95969 263.061565 
L 107.964175 260.537925 
L 107.962561 258.014286 
L 107.954686 255.490647 
L 107.940109 252.967008 
L 107.91817 250.443369 
L 107.888099 247.919729 
L 107.84918 245.39609 
L 107.800913 242.872451 
L 107.743176 240.348812 
L 107.676331 237.825173 
L 107.601258 235.301534 
L 107.519305 232.777894 
L 107.432135 230.254255 
L 107.341518 227.730616 
L 107.249083 225.206977 
L 107.156092 222.683338 
L 107.063281 220.159699 
L 106.970778 217.636059 
L 106.878113 215.11242 
L 106.784286 212.588781 
L 106.687813 210.065142 
L 106.5867 207.541503 
L 106.478284 205.017864 
L 106.358893 202.494224 
L 106.223387 199.970585 
L 106.064629 197.446946 
L 105.873058 194.923307 
L 105.636522 192.399668 
L 105.340538 189.876028 
L 104.969102 187.352389 
L 104.506073 184.82875 
L 103.937033 182.305111 
L 103.251427 179.781472 
L 102.444656 177.257833 
L 101.51979 174.734193 
L 100.48858 172.210554 
L 99.371539 169.686915 
L 98.197042 167.163276 
L 96.999512 164.639637 
L 95.816968 162.115998 
L 94.68826 159.592358 
L 93.650366 157.068719 
L 92.736082 154.54508 
L 91.972339 152.021441 
L 91.379227 149.497802 
L 90.969726 146.974163 
L 90.749988 144.450523 
L 90.72 141.926884 
L 90.874415 139.403245 
L 91.203391 136.879606 
L 91.693322 134.355967 
L 92.327429 131.832327 
L 93.086242 129.308688 
L 93.948068 126.785049 
L 94.889534 124.26141 
L 95.886289 121.737771 
L 96.913911 119.214132 
L 97.948948 116.690492 
L 98.970012 114.166853 
L 99.958753 111.643214 
L 100.900557 109.119575 
L 101.78485 106.595936 
L 102.604954 104.072297 
L 103.357554 101.548657 
L 104.041894 99.025018 
L 104.658884 96.501379 
L 105.210289 93.97774 
L 105.698138 91.454101 
L 106.12442 88.930462 
L 106.491037 86.406822 
L 106.799959 83.883183 
L 107.053478 81.359544 
L 107.254446 78.835905 
L 107.406457 76.312266 
L 107.513924 73.788626 
L 107.582055 71.264987 
L 107.616758 68.741348 
L 107.624489 66.217709 
L 107.612057 63.69407 
L 107.586388 61.170431 
L 107.554254 58.646791 
L 107.521945 56.123152 
L 107.494939 53.599513 
L 107.477569 51.075874 
L 107.472762 48.552235 
L 108.527238 48.552235 
L 108.527238 48.552235 
L 108.522431 51.075874 
L 108.505061 53.599513 
L 108.478055 56.123152 
L 108.445746 58.646791 
L 108.413612 61.170431 
L 108.387943 63.69407 
L 108.375511 66.217709 
L 108.383242 68.741348 
L 108.417945 71.264987 
L 108.486076 73.788626 
L 108.593543 76.312266 
L 108.745554 78.835905 
L 108.946522 81.359544 
L 109.200041 83.883183 
L 109.508963 86.406822 
L 109.87558 88.930462 
L 110.301862 91.454101 
L 110.789711 93.97774 
L 111.341116 96.501379 
L 111.958106 99.025018 
L 112.642446 101.548657 
L 113.395046 104.072297 
L 114.21515 106.595936 
L 115.099443 109.119575 
L 116.041247 111.643214 
L 117.029988 114.166853 
L 118.051052 116.690492 
L 119.086089 119.214132 
L 120.113711 121.737771 
L 121.110466 124.26141 
L 122.051932 126.785049 
L 122.913758 129.308688 
L 123.672571 131.832327 
L 124.306678 134.355967 
L 124.796609 136.879606 
L 125.125585 139.403245 
L 125.28 141.926884 
L 125.250012 144.450523 
L 125.030274 146.974163 
L 124.620773 149.497802 
L 124.027661 152.021441 
L 123.263918 154.54508 
L 122.349634 157.068719 
L 121.31174 159.592358 
L 120.183032 162.115998 
L 119.000488 164.639637 
L 117.802958 167.163276 
L 116.628461 169.686915 
L 115.51142 172.210554 
L 114.48021 174.734193 
L 113.555344 177.257833 
L 112.748573 179.781472 
L 112.062967 182.305111 
L 111.493927 184.82875 
L 111.030898 187.352389 
L 110.659462 189.876028 
L 110.363478 192.399668 
L 110.126942 194.923307 
L 109.935371 197.446946 
L 109.776613 199.970585 
L 109.641107 202.494224 
L 109.521716 205.017864 
L 109.4133 207.541503 
L 109.312187 210.065142 
L 109.215714 212.588781 
L 109.121887 215.11242 
L 109.029222 217.636059 
L 108.936719 220.159699 
L 108.843908 222.683338 
L 108.750917 225.206977 
L 108.658482 227.730616 
L 108.567865 230.254255 
L 108.480695 232.777894 
L 108.398742 235.301534 
L 108.323669 237.825173 
L 108.256824 240.348812 
L 108.199087 242.872451 
L 108.15082 245.39609 
L 108.111901 247.919729 
L 108.08183 250.443369 
L 108.059891 252.967008 
L 108.045314 255.490647 
L 108.037439 258.014286 
L 108.035825 260.537925 
L 108.04031 263.061565 
L 108.051009 265.585204 
L 108.068239 268.108843 
L 108.092382 270.632482 
L 108.123703 273.156121 
L 108.162136 275.67976 
L 108.207083 278.2034 
L 108.257256 280.727039 
L 108.310603 283.250678 
L 108.364355 285.774317 
L 108.415211 288.297956 
L 108.459636 290.821595 
L 108.494253 293.345235 
L 108.516263 295.868874 
L 108.523815 298.392513 
L 108.523815 298.392513 
z
" clip-path="url(#p49edefed2e)" style="fill: none; stroke: #000000; stroke-opacity: 0.3"/>
   </g>
   <g id="FillBetweenPolyCollection_11">
    <path d="M 108.712827 258.025137 
L 107.287173 258.025137 
L 107.294819 256.076757 
L 107.317279 254.128376 
L 107.353127 252.179995 
L 107.400145 250.231614 
L 107.45555 248.283233 
L 107.516248 246.334852 
L 107.579098 244.386471 
L 107.641152 242.43809 
L 107.699823 240.48971 
L 107.752995 238.541329 
L 107.799034 236.592948 
L 107.836742 234.644567 
L 107.865238 232.696186 
L 107.883803 230.747805 
L 107.891707 228.799424 
L 107.888035 226.851043 
L 107.87154 224.902663 
L 107.840516 222.954282 
L 107.792729 221.005901 
L 107.725389 219.05752 
L 107.635174 217.109139 
L 107.518303 215.160758 
L 107.370659 213.212377 
L 107.187951 211.263996 
L 106.965896 209.315616 
L 106.700435 207.367235 
L 106.387938 205.418854 
L 106.025401 203.470473 
L 105.61061 201.522092 
L 105.142264 199.573711 
L 104.620034 197.62533 
L 104.044572 195.676949 
L 103.417457 193.728569 
L 102.741118 191.780188 
L 102.018737 189.831807 
L 101.25419 187.883426 
L 100.452042 185.935045 
L 99.617633 183.986664 
L 98.75726 182.038283 
L 97.878449 180.089902 
L 96.990266 178.141522 
L 96.103608 176.193141 
L 95.231395 174.24476 
L 94.388574 172.296379 
L 93.591859 170.347998 
L 92.859189 168.399617 
L 92.20888 166.451236 
L 91.65856 164.502855 
L 91.22397 162.554475 
L 90.917773 160.606094 
L 90.748536 158.657713 
L 90.72 156.709332 
L 90.830759 154.760951 
L 91.074389 152.81257 
L 91.440003 150.864189 
L 91.913164 148.915808 
L 92.477032 146.967428 
L 93.113589 145.019047 
L 93.804815 143.070666 
L 94.53367 141.122285 
L 95.284825 139.173904 
L 96.045101 137.225523 
L 96.803633 135.277142 
L 97.551812 133.328762 
L 98.283091 131.380381 
L 98.9927 129.432 
L 99.677361 127.483619 
L 100.335016 125.535238 
L 100.964596 123.586857 
L 101.565811 121.638476 
L 102.138954 119.690095 
L 102.684693 117.741715 
L 103.20385 115.793334 
L 103.697173 113.844953 
L 104.165124 111.896572 
L 104.607706 109.948191 
L 105.024368 107.99981 
L 105.414002 106.051429 
L 105.775033 104.103048 
L 106.105595 102.154668 
L 106.403765 100.206287 
L 106.667813 98.257906 
L 106.896442 96.309525 
L 107.088974 94.361144 
L 107.245484 92.412763 
L 107.366862 90.464382 
L 107.454822 88.516001 
L 107.511855 86.567621 
L 107.54117 84.61924 
L 107.546592 82.670859 
L 107.532464 80.722478 
L 107.50352 78.774097 
L 107.464733 76.825716 
L 107.421136 74.877335 
L 107.377616 72.928954 
L 107.338674 70.980574 
L 107.308195 69.032193 
L 107.289225 67.083812 
L 107.283799 65.135431 
L 108.716201 65.135431 
L 108.716201 65.135431 
L 108.710775 67.083812 
L 108.691805 69.032193 
L 108.661326 70.980574 
L 108.622384 72.928954 
L 108.578864 74.877335 
L 108.535267 76.825716 
L 108.49648 78.774097 
L 108.467536 80.722478 
L 108.453408 82.670859 
L 108.45883 84.61924 
L 108.488145 86.567621 
L 108.545178 88.516001 
L 108.633138 90.464382 
L 108.754516 92.412763 
L 108.911026 94.361144 
L 109.103558 96.309525 
L 109.332187 98.257906 
L 109.596235 100.206287 
L 109.894405 102.154668 
L 110.224967 104.103048 
L 110.585998 106.051429 
L 110.975632 107.99981 
L 111.392294 109.948191 
L 111.834876 111.896572 
L 112.302827 113.844953 
L 112.79615 115.793334 
L 113.315307 117.741715 
L 113.861046 119.690095 
L 114.434189 121.638476 
L 115.035404 123.586857 
L 115.664984 125.535238 
L 116.322639 127.483619 
L 117.0073 129.432 
L 117.716909 131.380381 
L 118.448188 133.328762 
L 119.196367 135.277142 
L 119.954899 137.225523 
L 120.715175 139.173904 
L 121.46633 141.122285 
L 122.195185 143.070666 
L 122.886411 145.019047 
L 123.522968 146.967428 
L 124.086836 148.915808 
L 124.559997 150.864189 
L 124.925611 152.81257 
L 125.169241 154.760951 
L 125.28 156.709332 
L 125.251464 158.657713 
L 125.082227 160.606094 
L 124.77603 162.554475 
L 124.34144 164.502855 
L 123.79112 166.451236 
L 123.140811 168.399617 
L 122.408141 170.347998 
L 121.611426 172.296379 
L 120.768605 174.24476 
L 119.896392 176.193141 
L 119.009734 178.141522 
L 118.121551 180.089902 
L 117.24274 182.038283 
L 116.382367 183.986664 
L 115.547958 185.935045 
L 114.74581 187.883426 
L 113.981263 189.831807 
L 113.258882 191.780188 
L 112.582543 193.728569 
L 111.955428 195.676949 
L 111.379966 197.62533 
L 110.857736 199.573711 
L 110.38939 201.522092 
L 109.974599 203.470473 
L 109.612062 205.418854 
L 109.299565 207.367235 
L 109.034104 209.315616 
L 108.812049 211.263996 
L 108.629341 213.212377 
L 108.481697 215.160758 
L 108.364826 217.109139 
L 108.274611 219.05752 
L 108.207271 221.005901 
L 108.159484 222.954282 
L 108.12846 224.902663 
L 108.111965 226.851043 
L 108.108293 228.799424 
L 108.116197 230.747805 
L 108.134762 232.696186 
L 108.163258 234.644567 
L 108.200966 236.592948 
L 108.247005 238.541329 
L 108.300177 240.48971 
L 108.358848 242.43809 
L 108.420902 244.386471 
L 108.483752 246.334852 
L 108.54445 248.283233 
L 108.599855 250.231614 
L 108.646873 252.179995 
L 108.682721 254.128376 
L 108.705181 256.076757 
L 108.712827 258.025137 
L 108.712827 258.025137 
z
" clip-path="url(#p49edefed2e)" style="fill: none; stroke: #000000; stroke-opacity: 0.3"/>
   </g>
   <g id="FillBetweenPolyCollection_12">
    <path d="M 110.371899 203.154792 
L 105.628101 203.154792 
L 105.394741 201.821406 
L 105.150008 200.48802 
L 104.89326 199.154634 
L 104.623657 197.821248 
L 104.340217 196.487861 
L 104.0419 195.154475 
L 103.727702 193.821089 
L 103.396773 192.487703 
L 103.048522 191.154317 
L 102.682731 189.820931 
L 102.29964 188.487544 
L 101.900022 187.154158 
L 101.485217 185.820772 
L 101.057136 184.487386 
L 100.618229 183.154 
L 100.171412 181.820613 
L 99.719966 180.487227 
L 99.267395 179.153841 
L 98.817277 177.820455 
L 98.373078 176.487069 
L 97.937977 175.153683 
L 97.514685 173.820296 
L 97.10528 172.48691 
L 96.711074 171.153524 
L 96.332516 169.820138 
L 95.969153 168.486752 
L 95.61965 167.153365 
L 95.281888 165.819979 
L 94.953131 164.486593 
L 94.630273 163.153207 
L 94.310144 161.819821 
L 93.989866 160.486435 
L 93.66723 159.153048 
L 93.341065 157.819662 
L 93.011574 156.486276 
L 92.680591 155.15289 
L 92.351735 153.819504 
L 92.030444 152.486117 
L 91.723858 151.152731 
L 91.44057 149.819345 
L 91.190242 148.485959 
L 90.983115 147.152573 
L 90.829443 145.819187 
L 90.7389 144.4858 
L 90.72 143.152414 
L 90.779574 141.819028 
L 90.922345 140.485642 
L 91.150632 139.152256 
L 91.464199 137.81887 
L 91.860259 136.485483 
L 92.333619 135.152097 
L 92.876964 133.818711 
L 93.481231 132.485325 
L 94.13606 131.151939 
L 94.830273 129.818552 
L 95.552357 128.485166 
L 96.290911 127.15178 
L 97.035034 125.818394 
L 97.774645 124.485008 
L 98.500717 123.151622 
L 99.20542 121.818235 
L 99.882196 120.484849 
L 100.525763 119.151463 
L 101.132061 117.818077 
L 101.698171 116.484691 
L 102.222204 115.151304 
L 102.703196 113.817918 
L 103.140992 112.484532 
L 103.536154 111.151146 
L 103.889876 109.81776 
L 104.203911 108.484374 
L 104.480507 107.150987 
L 104.72235 105.817601 
L 104.932491 104.484215 
L 105.114281 103.150829 
L 105.271274 101.817443 
L 105.407134 100.484056 
L 105.525512 99.15067 
L 105.629935 97.817284 
L 105.723682 96.483898 
L 105.809676 95.150512 
L 105.890395 93.817126 
L 105.967812 92.483739 
L 106.043365 91.150353 
L 106.117969 89.816967 
L 106.192063 88.483581 
L 106.265686 87.150195 
L 106.33858 85.816808 
L 106.410309 84.483422 
L 106.480372 83.150036 
L 106.548314 81.81665 
L 106.61381 80.483264 
L 106.676729 79.149878 
L 106.737159 77.816491 
L 106.795402 76.483105 
L 106.851938 75.149719 
L 106.907373 73.816333 
L 106.962359 72.482947 
L 107.017524 71.14956 
L 108.982476 71.14956 
L 108.982476 71.14956 
L 109.037641 72.482947 
L 109.092627 73.816333 
L 109.148062 75.149719 
L 109.204598 76.483105 
L 109.262841 77.816491 
L 109.323271 79.149878 
L 109.38619 80.483264 
L 109.451686 81.81665 
L 109.519628 83.150036 
L 109.589691 84.483422 
L 109.66142 85.816808 
L 109.734314 87.150195 
L 109.807937 88.483581 
L 109.882031 89.816967 
L 109.956635 91.150353 
L 110.032188 92.483739 
L 110.109605 93.817126 
L 110.190324 95.150512 
L 110.276318 96.483898 
L 110.370065 97.817284 
L 110.474488 99.15067 
L 110.592866 100.484056 
L 110.728726 101.817443 
L 110.885719 103.150829 
L 111.067509 104.484215 
L 111.27765 105.817601 
L 111.519493 107.150987 
L 111.796089 108.484374 
L 112.110124 109.81776 
L 112.463846 111.151146 
L 112.859008 112.484532 
L 113.296804 113.817918 
L 113.777796 115.151304 
L 114.301829 116.484691 
L 114.867939 117.818077 
L 115.474237 119.151463 
L 116.117804 120.484849 
L 116.79458 121.818235 
L 117.499283 123.151622 
L 118.225355 124.485008 
L 118.964966 125.818394 
L 119.709089 127.15178 
L 120.447643 128.485166 
L 121.169727 129.818552 
L 121.86394 131.151939 
L 122.518769 132.485325 
L 123.123036 133.818711 
L 123.666381 135.152097 
L 124.139741 136.485483 
L 124.535801 137.81887 
L 124.849368 139.152256 
L 125.077655 140.485642 
L 125.220426 141.819028 
L 125.28 143.152414 
L 125.2611 144.4858 
L 125.170557 145.819187 
L 125.016885 147.152573 
L 124.809758 148.485959 
L 124.55943 149.819345 
L 124.276142 151.152731 
L 123.969556 152.486117 
L 123.648265 153.819504 
L 123.319409 155.15289 
L 122.988426 156.486276 
L 122.658935 157.819662 
L 122.33277 159.153048 
L 122.010134 160.486435 
L 121.689856 161.819821 
L 121.369727 163.153207 
L 121.046869 164.486593 
L 120.718112 165.819979 
L 120.38035 167.153365 
L 120.030847 168.486752 
L 119.667484 169.820138 
L 119.288926 171.153524 
L 118.89472 172.48691 
L 118.485315 173.820296 
L 118.062023 175.153683 
L 117.626922 176.487069 
L 117.182723 177.820455 
L 116.732605 179.153841 
L 116.280034 180.487227 
L 115.828588 181.820613 
L 115.381771 183.154 
L 114.942864 184.487386 
L 114.514783 185.820772 
L 114.099978 187.154158 
L 113.70036 188.487544 
L 113.317269 189.820931 
L 112.951478 191.154317 
L 112.603227 192.487703 
L 112.272298 193.821089 
L 111.9581 195.154475 
L 111.659783 196.487861 
L 111.376343 197.821248 
L 111.10674 199.154634 
L 110.849992 200.48802 
L 110.605259 201.821406 
L 110.371899 203.154792 
L 110.371899 203.154792 
z
" clip-path="url(#p49edefed2e)" style="fill: none; stroke: #000000; stroke-opacity: 0.3"/>
   </g>
   <g id="FillBetweenPolyCollection_13">
    <path d="M 109.291235 207.600682 
L 106.708765 207.600682 
L 106.592242 206.611542 
L 106.467243 205.622402 
L 106.332766 204.633262 
L 106.18776 203.644122 
L 106.031155 202.654982 
L 105.861913 201.665842 
L 105.679064 200.676702 
L 105.481751 199.687562 
L 105.269274 198.698422 
L 105.041125 197.709282 
L 104.797023 196.720142 
L 104.536948 195.731002 
L 104.261159 194.741862 
L 103.970217 193.752722 
L 103.664992 192.763583 
L 103.346674 191.774443 
L 103.016757 190.785303 
L 102.677035 189.796163 
L 102.329568 188.807023 
L 101.976651 187.817883 
L 101.620758 186.828743 
L 101.264488 185.839603 
L 100.910492 184.850463 
L 100.561393 183.861323 
L 100.219704 182.872183 
L 99.887739 181.883043 
L 99.567535 180.893903 
L 99.260768 179.904763 
L 98.968693 178.915623 
L 98.692085 177.926483 
L 98.431211 176.937343 
L 98.185807 175.948203 
L 97.955089 174.959063 
L 97.73777 173.969924 
L 97.532112 172.980784 
L 97.33598 171.991644 
L 97.146921 171.002504 
L 96.962247 170.013364 
L 96.779132 169.024224 
L 96.594709 168.035084 
L 96.406168 167.045944 
L 96.210855 166.056804 
L 96.006364 165.067664 
L 95.790625 164.078524 
L 95.56198 163.089384 
L 95.31926 162.100244 
L 95.06184 161.111104 
L 94.78969 160.121964 
L 94.503421 159.132824 
L 94.204304 158.143684 
L 93.894291 157.154544 
L 93.576011 156.165404 
L 93.252748 155.176264 
L 92.928408 154.187125 
L 92.607449 153.197985 
L 92.294798 152.208845 
L 91.995742 151.219705 
L 91.715783 150.230565 
L 91.460487 149.241425 
L 91.235301 148.252285 
L 91.045368 147.263145 
L 90.895337 146.274005 
L 90.789176 145.284865 
L 90.730013 144.295725 
L 90.72 143.306585 
L 90.760217 142.317445 
L 90.85063 141.328305 
L 90.990092 140.339165 
L 91.176407 139.350025 
L 91.406437 138.360885 
L 91.676262 137.371745 
L 91.981368 136.382605 
L 92.316863 135.393466 
L 92.677699 134.404326 
L 93.058894 133.415186 
L 93.455732 132.426046 
L 93.863936 131.436906 
L 94.279802 130.447766 
L 94.700296 129.458626 
L 95.123093 128.469486 
L 95.546588 127.480346 
L 95.969854 126.491206 
L 96.392568 125.502066 
L 96.814914 124.512926 
L 97.237456 123.523786 
L 97.661012 122.534646 
L 98.086513 121.545506 
L 98.514871 120.556366 
L 98.946857 119.567226 
L 99.382991 118.578086 
L 99.823456 117.588946 
L 100.268031 116.599807 
L 100.716055 115.610667 
L 101.16641 114.621527 
L 101.617539 113.632387 
L 102.067479 112.643247 
L 102.51393 111.654107 
L 102.954328 110.664967 
L 103.385942 109.675827 
L 112.614058 109.675827 
L 112.614058 109.675827 
L 113.045672 110.664967 
L 113.48607 111.654107 
L 113.932521 112.643247 
L 114.382461 113.632387 
L 114.83359 114.621527 
L 115.283945 115.610667 
L 115.731969 116.599807 
L 116.176544 117.588946 
L 116.617009 118.578086 
L 117.053143 119.567226 
L 117.485129 120.556366 
L 117.913487 121.545506 
L 118.338988 122.534646 
L 118.762544 123.523786 
L 119.185086 124.512926 
L 119.607432 125.502066 
L 120.030146 126.491206 
L 120.453412 127.480346 
L 120.876907 128.469486 
L 121.299704 129.458626 
L 121.720198 130.447766 
L 122.136064 131.436906 
L 122.544268 132.426046 
L 122.941106 133.415186 
L 123.322301 134.404326 
L 123.683137 135.393466 
L 124.018632 136.382605 
L 124.323738 137.371745 
L 124.593563 138.360885 
L 124.823593 139.350025 
L 125.009908 140.339165 
L 125.14937 141.328305 
L 125.239783 142.317445 
L 125.28 143.306585 
L 125.269987 144.295725 
L 125.210824 145.284865 
L 125.104663 146.274005 
L 124.954632 147.263145 
L 124.764699 148.252285 
L 124.539513 149.241425 
L 124.284217 150.230565 
L 124.004258 151.219705 
L 123.705202 152.208845 
L 123.392551 153.197985 
L 123.071592 154.187125 
L 122.747252 155.176264 
L 122.423989 156.165404 
L 122.105709 157.154544 
L 121.795696 158.143684 
L 121.496579 159.132824 
L 121.21031 160.121964 
L 120.93816 161.111104 
L 120.68074 162.100244 
L 120.43802 163.089384 
L 120.209375 164.078524 
L 119.993636 165.067664 
L 119.789145 166.056804 
L 119.593832 167.045944 
L 119.405291 168.035084 
L 119.220868 169.024224 
L 119.037753 170.013364 
L 118.853079 171.002504 
L 118.66402 171.991644 
L 118.467888 172.980784 
L 118.26223 173.969924 
L 118.044911 174.959063 
L 117.814193 175.948203 
L 117.568789 176.937343 
L 117.307915 177.926483 
L 117.031307 178.915623 
L 116.739232 179.904763 
L 116.432465 180.893903 
L 116.112261 181.883043 
L 115.780296 182.872183 
L 115.438607 183.861323 
L 115.089508 184.850463 
L 114.735512 185.839603 
L 114.379242 186.828743 
L 114.023349 187.817883 
L 113.670432 188.807023 
L 113.322965 189.796163 
L 112.983243 190.785303 
L 112.653326 191.774443 
L 112.335008 192.763583 
L 112.029783 193.752722 
L 111.738841 194.741862 
L 111.463052 195.731002 
L 111.202977 196.720142 
L 110.958875 197.709282 
L 110.730726 198.698422 
L 110.518249 199.687562 
L 110.320936 200.676702 
L 110.138087 201.665842 
L 109.968845 202.654982 
L 109.81224 203.644122 
L 109.667234 204.633262 
L 109.532757 205.622402 
L 109.407758 206.611542 
L 109.291235 207.600682 
L 109.291235 207.600682 
z
" clip-path="url(#p49edefed2e)" style="fill: none; stroke: #000000; stroke-opacity: 0.3"/>
   </g>
   <g id="matplotlib.axis_1">
    <g id="xtick_1">
     <g id="line2d_1">
      <defs>
       <path id="m7647726d8f" d="M 0 0 
L 0 3.5 
" style="stroke: #000000; stroke-width: 0.8"/>
      </defs>
      <g>
       <use xlink:href="#m7647726d8f" x="50.4" y="291.6" style="stroke: #000000; stroke-width: 0.8"/>
      </g>
     </g>
     <g id="text_1">
      <text style="font-size: 10px; font-family: 'DejaVu Sans', 'Bitstream Vera Sans', 'Computer Modern Sans Serif', 'Lucida Grande', 'Verdana', 'Geneva', 'Lucid', 'Arial', 'Helvetica', 'Avant Garde', sans-serif; text-anchor: middle" x="50.4" y="306.198438" transform="rotate(-0 50.4 306.198438)">0.3</text>
     </g>
    </g>
    <g id="xtick_2">
     <g id="line2d_2">
      <g>
       <use xlink:href="#m7647726d8f" x="108" y="291.6" style="stroke: #000000; stroke-width: 0.8"/>
      </g>
     </g>
     <g id="text_2">
      <text style="font-size: 10px; font-family: 'DejaVu Sans', 'Bitstream Vera Sans', 'Computer Modern Sans Serif', 'Lucida Grande', 'Verdana', 'Geneva', 'Lucid', 'Arial', 'Helvetica', 'Avant Garde', sans-serif; text-anchor: middle" x="108" y="306.198438" transform="rotate(-0 108 306.198438)">0.6</text>
     </g>
    </g>
   </g>
   <g id="matplotlib.axis_2">
    <g id="ytick_1">
     <g id="line2d_3">
      <defs>
       <path id="m2fe5afee6f" d="M 0 0 
L -3.5 0 
" style="stroke: #000000; stroke-width: 0.8"/>
      </defs>
      <g>
       <use xlink:href="#m2fe5afee6f" x="21.6" y="291.6" style="stroke: #000000; stroke-width: 0.8"/>
      </g>
     </g>
    </g>
    <g id="ytick_2">
     <g id="line2d_4">
      <g>
       <use xlink:href="#m2fe5afee6f" x="21.6" y="199.8" style="stroke: #000000; stroke-width: 0.8"/>
      </g>
     </g>
    </g>
    <g id="ytick_3">
     <g id="line2d_5">
      <g>
       <use xlink:href="#m2fe5afee6f" x="21.6" y="108" style="stroke: #000000; stroke-width: 0.8"/>
      </g>
     </g>
    </g>
    <g id="ytick_4">
     <g id="line2d_6">
      <g>
       <use xlink:href="#m2fe5afee6f" x="21.6" y="16.2" style="stroke: #000000; stroke-width: 0.8"/>
      </g>
     </g>
    </g>
   </g>
   <g id="line2d_7">
    <path d="M 50.4 269.568 
L 50.4 264.06 
" clip-path="url(#p49edefed2e)" style="fill: none; stroke: #000000; stroke-linecap: square"/>
   </g>
   <g id="line2d_8">
    <path d="M 50.4 269.568 
L 108 269.568 
" clip-path="url(#p49edefed2e)" style="fill: none; stroke: #000000; stroke-linecap: square"/>
   </g>
   <g id="line2d_9">
    <path d="M 108 269.568 
L 108 264.06 
" clip-path="url(#p49edefed2e)" style="fill: none; stroke: #000000; stroke-linecap: square"/>
   </g>
   <g id="patch_3">
    <path d="M 21.6 291.6 
L 21.6 16.2 
" style="fill: none; stroke: #000000; stroke-width: 0.8; stroke-linejoin: miter; stroke-linecap: square"/>
   </g>
   <g id="patch_4">
    <path d="M 136.8 291.6 
L 136.8 16.2 
" style="fill: none; stroke: #000000; stroke-width: 0.8; stroke-linejoin: miter; stroke-linecap: square"/>
   </g>
   <g id="patch_5">
    <path d="M 21.6 291.6 
L 136.8 291.6 
" style="fill: none; stroke: #000000; stroke-width: 0.8; stroke-linejoin: miter; stroke-linecap: square"/>
   </g>
   <g id="patch_6">
    <path d="M 21.6 16.2 
L 136.8 16.2 
" style="fill: none; stroke: #000000; stroke-width: 0.8; stroke-linejoin: miter; stroke-linecap: square"/>
   </g>
   <g id="text_3">
    <text style="font-weight: 700; font-size: 12px; font-family: 'DejaVu Sans', 'Bitstream Vera Sans', 'Computer Modern Sans Serif', 'Lucida Grande', 'Verdana', 'Geneva', 'Lucid', 'Arial', 'Helvetica', 'Avant Garde', sans-serif; text-anchor: middle" x="50.4" y="289.104375" transform="rotate(-0 50.4 289.104375)">#18</text>
   </g>
   <g id="text_4">
    <text style="font-weight: 700; font-size: 12px; font-family: 'DejaVu Sans', 'Bitstream Vera Sans', 'Computer Modern Sans Serif', 'Lucida Grande', 'Verdana', 'Geneva', 'Lucid', 'Arial', 'Helvetica', 'Avant Garde', sans-serif; text-anchor: middle" x="108" y="289.104375" transform="rotate(-0 108 289.104375)">#32</text>
   </g>
   <g id="text_5">
    <text style="font-size: 12px; font-family: 'DejaVu Sans', 'Bitstream Vera Sans', 'Computer Modern Sans Serif', 'Lucida Grande', 'Verdana', 'Geneva', 'Lucid', 'Arial', 'Helvetica', 'Avant Garde', sans-serif; text-anchor: middle" x="79.2" y="268.449375" transform="rotate(-0 79.2 268.449375)">****</text>
   </g>
   <g id="line2d_10">
    <path d="M 21.6 123.803 
L 136.8 123.803 
" clip-path="url(#p49edefed2e)" style="fill: none; stroke-dasharray: 3.7,1.6; stroke-dashoffset: 0; stroke: #808080; stroke-opacity: 0.7"/>
   </g>
   <g id="line2d_11">
    <path d="M 21.6 145.56737 
L 136.8 145.56737 
" clip-path="url(#p49edefed2e)" style="fill: none; stroke-dasharray: 3.7,1.6; stroke-dashoffset: 0; stroke: #808080; stroke-opacity: 0.7"/>
   </g>
   <g id="LineCollection_1">
    <path d="M 50.4 127.884457 
L 50.4 119.721543 
" clip-path="url(#p49edefed2e)" style="fill: none; stroke: #000000; stroke-width: 2"/>
   </g>
   <g id="line2d_12">
    <defs>
     <path id="mcfd4abfcfc" d="M 5 0 
L -5 -0 
" style="stroke: #000000; stroke-width: 2"/>
    </defs>
    <g clip-path="url(#p49edefed2e)">
     <use xlink:href="#mcfd4abfcfc" x="50.4" y="127.884457" style="stroke: #000000; stroke-width: 2"/>
    </g>
   </g>
   <g id="line2d_13">
    <g clip-path="url(#p49edefed2e)">
     <use xlink:href="#mcfd4abfcfc" x="50.4" y="119.721543" style="stroke: #000000; stroke-width: 2"/>
    </g>
   </g>
   <g id="LineCollection_2">
    <path d="M 108 151.768923 
L 108 139.365817 
" clip-path="url(#p49edefed2e)" style="fill: none; stroke: #000000; stroke-width: 2"/>
   </g>
   <g id="line2d_14">
    <g clip-path="url(#p49edefed2e)">
     <use xlink:href="#mcfd4abfcfc" x="108" y="151.768923" style="stroke: #000000; stroke-width: 2"/>
    </g>
   </g>
   <g id="line2d_15">
    <g clip-path="url(#p49edefed2e)">
     <use xlink:href="#mcfd4abfcfc" x="108" y="139.365817" style="stroke: #000000; stroke-width: 2"/>
    </g>
   </g>
   <g id="line2d_16">
    <defs>
     <path id="m6eb6bc722f" d="M 0 4 
C 1.060812 4 2.078319 3.578535 2.828427 2.828427 
C 3.578535 2.078319 4 1.060812 4 0 
C 4 -1.060812 3.578535 -2.078319 2.828427 -2.828427 
C 2.078319 -3.578535 1.060812 -4 0 -4 
C -1.060812 -4 -2.078319 -3.578535 -2.828427 -2.828427 
C -3.578535 -2.078319 -4 -1.060812 -4 0 
C -4 1.060812 -3.578535 2.078319 -2.828427 2.828427 
C -2.078319 3.578535 -1.060812 4 0 4 
z
" style="stroke: #000000"/>
    </defs>
    <g clip-path="url(#p49edefed2e)">
     <use xlink:href="#m6eb6bc722f" x="50.4" y="123.803" style="stroke: #000000"/>
    </g>
   </g>
   <g id="line2d_17">
    <g clip-path="url(#p49edefed2e)">
     <use xlink:href="#m6eb6bc722f" x="108" y="145.56737" style="stroke: #000000"/>
    </g>
   </g>
  </g>
 </g>
 <defs>
  <clipPath id="p49edefed2e">
   <rect x="21.6" y="16.2" width="115.2" height="275.4"/>
  </clipPath>
 </defs>
</svg>
