<?xml version="1.0" encoding="utf-8" standalone="no"?>
<!DOCTYPE svg PUBLIC "-//W3C//DTD SVG 1.1//EN"
  "http://www.w3.org/Graphics/SVG/1.1/DTD/svg11.dtd">
<svg xmlns:xlink="http://www.w3.org/1999/xlink" width="216pt" height="324pt" viewBox="0 0 216 324" xmlns="http://www.w3.org/2000/svg" version="1.1">
 <metadata>
  <rdf:RDF xmlns:dc="http://purl.org/dc/elements/1.1/" xmlns:cc="http://creativecommons.org/ns#" xmlns:rdf="http://www.w3.org/1999/02/22-rdf-syntax-ns#">
   <cc:Work>
    <dc:type rdf:resource="http://purl.org/dc/dcmitype/StillImage"/>
    <dc:date>2025-12-11T11:14:59.839627</dc:date>
    <dc:format>image/svg+xml</dc:format>
    <dc:creator>
     <cc:Agent>
      <dc:title>Matplotlib v3.10.3, https://matplotlib.org/</dc:title>
     </cc:Agent>
    </dc:creator>
   </cc:Work>
  </rdf:RDF>
 </metadata>
 <defs>
  <style type="text/css">*{stroke-linejoin: round; stroke-linecap: butt}</style>
 </defs>
 <g id="figure_1">
  <g id="patch_1">
   <path d="M 0 324 
L 216 324 
L 216 0 
L 0 0 
z
" style="fill: #ffffff"/>
  </g>
  <g id="axes_1">
   <g id="patch_2">
    <path d="M 32.4 291.6 
L 205.2 291.6 
L 205.2 16.2 
L 32.4 16.2 
z
" style="fill: #ffffff"/>
   </g>
   <g id="FillBetweenPolyCollection_1">
    <path d="M 67.12983 219.540021 
L 55.27017 219.540021 
L 54.955074 218.575805 
L 54.641878 217.611589 
L 54.331376 216.647373 
L 54.024269 215.683157 
L 53.721173 214.718942 
L 53.422645 213.754726 
L 53.129197 212.79051 
L 52.841328 211.826294 
L 52.559537 210.862079 
L 52.284353 209.897863 
L 52.016347 208.933647 
L 51.756145 207.969431 
L 51.504436 207.005216 
L 51.261964 206.041 
L 51.029521 205.076784 
L 50.807927 204.112568 
L 50.598001 203.148352 
L 50.400529 202.184137 
L 50.216225 201.219921 
L 50.045685 200.255705 
L 49.889344 199.291489 
L 49.747431 198.327274 
L 49.619927 197.363058 
L 49.50653 196.398842 
L 49.406626 195.434626 
L 49.319268 194.470411 
L 49.24317 193.506195 
L 49.176708 192.541979 
L 49.11794 191.577763 
L 49.064633 190.613548 
L 49.014311 189.649332 
L 48.964301 188.685116 
L 48.911807 187.7209 
L 48.853983 186.756684 
L 48.788009 185.792469 
L 48.711183 184.828253 
L 48.621006 183.864037 
L 48.515264 182.899821 
L 48.392115 181.935606 
L 48.25016 180.97139 
L 48.088507 180.007174 
L 47.906825 179.042958 
L 47.705378 178.078743 
L 47.48505 177.114527 
L 47.247343 176.150311 
L 46.99437 175.186095 
L 46.728818 174.221879 
L 46.453898 173.257664 
L 46.173282 172.293448 
L 45.891024 171.329232 
L 45.611465 170.365016 
L 45.339135 169.400801 
L 45.078648 168.436585 
L 44.834589 167.472369 
L 44.611415 166.508153 
L 44.413346 165.543938 
L 44.244273 164.579722 
L 44.107676 163.615506 
L 44.006553 162.65129 
L 43.943365 161.687075 
L 43.92 160.722859 
L 43.937747 159.758643 
L 43.997296 158.794427 
L 44.098743 157.830211 
L 44.241619 156.865996 
L 44.424927 155.90178 
L 44.647186 154.937564 
L 44.906489 153.973348 
L 45.20056 153.009133 
L 45.526821 152.044917 
L 45.882446 151.080701 
L 46.264432 150.116485 
L 46.669651 149.15227 
L 47.094905 148.188054 
L 47.536977 147.223838 
L 47.992672 146.259622 
L 48.458857 145.295407 
L 48.932495 144.331191 
L 49.410672 143.366975 
L 49.890625 142.402759 
L 50.369763 141.438543 
L 50.845684 140.474328 
L 51.31619 139.510112 
L 51.779307 138.545896 
L 52.233287 137.58168 
L 52.676622 136.617465 
L 53.108045 135.653249 
L 53.526534 134.689033 
L 53.931309 133.724817 
L 54.321823 132.760602 
L 54.69775 131.796386 
L 55.058974 130.83217 
L 55.405565 129.867954 
L 55.737755 128.903738 
L 56.055913 127.939523 
L 56.360516 126.975307 
L 56.652118 126.011091 
L 56.931317 125.046875 
L 57.198732 124.08266 
L 65.201268 124.08266 
L 65.201268 124.08266 
L 65.468683 125.046875 
L 65.747882 126.011091 
L 66.039484 126.975307 
L 66.344087 127.939523 
L 66.662245 128.903738 
L 66.994435 129.867954 
L 67.341026 130.83217 
L 67.70225 131.796386 
L 68.078177 132.760602 
L 68.468691 133.724817 
L 68.873466 134.689033 
L 69.291955 135.653249 
L 69.723378 136.617465 
L 70.166713 137.58168 
L 70.620693 138.545896 
L 71.08381 139.510112 
L 71.554316 140.474328 
L 72.030237 141.438543 
L 72.509375 142.402759 
L 72.989328 143.366975 
L 73.467505 144.331191 
L 73.941143 145.295407 
L 74.407328 146.259622 
L 74.863023 147.223838 
L 75.305095 148.188054 
L 75.730349 149.15227 
L 76.135568 150.116485 
L 76.517554 151.080701 
L 76.873179 152.044917 
L 77.19944 153.009133 
L 77.493511 153.973348 
L 77.752814 154.937564 
L 77.975073 155.90178 
L 78.158381 156.865996 
L 78.301257 157.830211 
L 78.402704 158.794427 
L 78.462253 159.758643 
L 78.48 160.722859 
L 78.456635 161.687075 
L 78.393447 162.65129 
L 78.292324 163.615506 
L 78.155727 164.579722 
L 77.986654 165.543938 
L 77.788585 166.508153 
L 77.565411 167.472369 
L 77.321352 168.436585 
L 77.060865 169.400801 
L 76.788535 170.365016 
L 76.508976 171.329232 
L 76.226718 172.293448 
L 75.946102 173.257664 
L 75.671182 174.221879 
L 75.40563 175.186095 
L 75.152657 176.150311 
L 74.91495 177.114527 
L 74.694622 178.078743 
L 74.493175 179.042958 
L 74.311493 180.007174 
L 74.14984 180.97139 
L 74.007885 181.935606 
L 73.884736 182.899821 
L 73.778994 183.864037 
L 73.688817 184.828253 
L 73.611991 185.792469 
L 73.546017 186.756684 
L 73.488193 187.7209 
L 73.435699 188.685116 
L 73.385689 189.649332 
L 73.335367 190.613548 
L 73.28206 191.577763 
L 73.223292 192.541979 
L 73.15683 193.506195 
L 73.080732 194.470411 
L 72.993374 195.434626 
L 72.89347 196.398842 
L 72.780073 197.363058 
L 72.652569 198.327274 
L 72.510656 199.291489 
L 72.354315 200.255705 
L 72.183775 201.219921 
L 71.999471 202.184137 
L 71.801999 203.148352 
L 71.592073 204.112568 
L 71.370479 205.076784 
L 71.138036 206.041 
L 70.895564 207.005216 
L 70.643855 207.969431 
L 70.383653 208.933647 
L 70.115647 209.897863 
L 69.840463 210.862079 
L 69.558672 211.826294 
L 69.270803 212.79051 
L 68.977355 213.754726 
L 68.678827 214.718942 
L 68.375731 215.683157 
L 68.068624 216.647373 
L 67.758122 217.611589 
L 67.444926 218.575805 
L 67.12983 219.540021 
L 67.12983 219.540021 
z
" clip-path="url(#pda70744584)" style="fill: none; stroke: #000000; stroke-opacity: 0.3"/>
   </g>
   <g id="FillBetweenPolyCollection_2">
    <path d="M 62.699364 244.063909 
L 59.700636 244.063909 
L 59.631073 242.865038 
L 59.56035 241.666167 
L 59.487394 240.467296 
L 59.411013 239.268425 
L 59.32995 238.069554 
L 59.242936 236.870683 
L 59.148737 235.671811 
L 59.046209 234.47294 
L 58.934327 233.274069 
L 58.812217 232.075198 
L 58.679162 230.876327 
L 58.534594 229.677456 
L 58.378078 228.478585 
L 58.209266 227.279714 
L 58.027853 226.080843 
L 57.833516 224.881971 
L 57.625856 223.6831 
L 57.40434 222.484229 
L 57.168253 221.285358 
L 56.916668 220.086487 
L 56.648429 218.887616 
L 56.362168 217.688745 
L 56.056339 216.489874 
L 55.729289 215.291003 
L 55.379347 214.092132 
L 55.004937 212.89326 
L 54.604713 211.694389 
L 54.1777 210.495518 
L 53.723433 209.296647 
L 53.2421 208.097776 
L 52.734652 206.898905 
L 52.202899 205.700034 
L 51.649568 204.501163 
L 51.078311 203.302292 
L 50.493682 202.103421 
L 49.901051 200.904549 
L 49.306477 199.705678 
L 48.716539 198.506807 
L 48.138124 197.307936 
L 47.578192 196.109065 
L 47.04352 194.910194 
L 46.540451 193.711323 
L 46.074642 192.512452 
L 45.650846 191.313581 
L 45.272728 190.11471 
L 44.942729 188.915838 
L 44.661992 187.716967 
L 44.430341 186.518096 
L 44.246335 185.319225 
L 44.107376 184.120354 
L 44.009874 182.921483 
L 43.94946 181.722612 
L 43.921228 180.523741 
L 43.92 179.32487 
L 43.94059 178.125999 
L 43.978056 176.927127 
L 44.02793 175.728256 
L 44.0864 174.529385 
L 44.150455 173.330514 
L 44.217961 172.131643 
L 44.2877 170.932772 
L 44.359337 169.733901 
L 44.433349 168.53503 
L 44.510915 167.336159 
L 44.593766 166.137288 
L 44.684032 164.938416 
L 44.784071 163.739545 
L 44.896315 162.540674 
L 45.023119 161.341803 
L 45.166648 160.142932 
L 45.328778 158.944061 
L 45.511042 157.74519 
L 45.714591 156.546319 
L 45.940196 155.347448 
L 46.188261 154.148576 
L 46.458859 152.949705 
L 46.751778 151.750834 
L 47.066565 150.551963 
L 47.402571 149.353092 
L 47.758994 148.154221 
L 48.134901 146.95535 
L 48.529251 145.756479 
L 48.940899 144.557608 
L 49.368593 143.358737 
L 49.810966 142.159865 
L 50.26652 140.960994 
L 50.733617 139.762123 
L 51.210465 138.563252 
L 51.695114 137.364381 
L 52.185463 136.16551 
L 52.679267 134.966639 
L 53.174166 133.767768 
L 53.667712 132.568897 
L 54.157408 131.370026 
L 54.640751 130.171154 
L 55.115284 128.972283 
L 55.578638 127.773412 
L 56.028578 126.574541 
L 56.463052 125.37567 
L 65.936948 125.37567 
L 65.936948 125.37567 
L 66.371422 126.574541 
L 66.821362 127.773412 
L 67.284716 128.972283 
L 67.759249 130.171154 
L 68.242592 131.370026 
L 68.732288 132.568897 
L 69.225834 133.767768 
L 69.720733 134.966639 
L 70.214537 136.16551 
L 70.704886 137.364381 
L 71.189535 138.563252 
L 71.666383 139.762123 
L 72.13348 140.960994 
L 72.589034 142.159865 
L 73.031407 143.358737 
L 73.459101 144.557608 
L 73.870749 145.756479 
L 74.265099 146.95535 
L 74.641006 148.154221 
L 74.997429 149.353092 
L 75.333435 150.551963 
L 75.648222 151.750834 
L 75.941141 152.949705 
L 76.211739 154.148576 
L 76.459804 155.347448 
L 76.685409 156.546319 
L 76.888958 157.74519 
L 77.071222 158.944061 
L 77.233352 160.142932 
L 77.376881 161.341803 
L 77.503685 162.540674 
L 77.615929 163.739545 
L 77.715968 164.938416 
L 77.806234 166.137288 
L 77.889085 167.336159 
L 77.966651 168.53503 
L 78.040663 169.733901 
L 78.1123 170.932772 
L 78.182039 172.131643 
L 78.249545 173.330514 
L 78.3136 174.529385 
L 78.37207 175.728256 
L 78.421944 176.927127 
L 78.45941 178.125999 
L 78.48 179.32487 
L 78.478772 180.523741 
L 78.45054 181.722612 
L 78.390126 182.921483 
L 78.292624 184.120354 
L 78.153665 185.319225 
L 77.969659 186.518096 
L 77.738008 187.716967 
L 77.457271 188.915838 
L 77.127272 190.11471 
L 76.749154 191.313581 
L 76.325358 192.512452 
L 75.859549 193.711323 
L 75.35648 194.910194 
L 74.821808 196.109065 
L 74.261876 197.307936 
L 73.683461 198.506807 
L 73.093523 199.705678 
L 72.498949 200.904549 
L 71.906318 202.103421 
L 71.321689 203.302292 
L 70.750432 204.501163 
L 70.197101 205.700034 
L 69.665348 206.898905 
L 69.1579 208.097776 
L 68.676567 209.296647 
L 68.2223 210.495518 
L 67.795287 211.694389 
L 67.395063 212.89326 
L 67.020653 214.092132 
L 66.670711 215.291003 
L 66.343661 216.489874 
L 66.037832 217.688745 
L 65.751571 218.887616 
L 65.483332 220.086487 
L 65.231747 221.285358 
L 64.99566 222.484229 
L 64.774144 223.6831 
L 64.566484 224.881971 
L 64.372147 226.080843 
L 64.190734 227.279714 
L 64.021922 228.478585 
L 63.865406 229.677456 
L 63.720838 230.876327 
L 63.587783 232.075198 
L 63.465673 233.274069 
L 63.353791 234.47294 
L 63.251263 235.671811 
L 63.157064 236.870683 
L 63.07005 238.069554 
L 62.988987 239.268425 
L 62.912606 240.467296 
L 62.83965 241.666167 
L 62.768927 242.865038 
L 62.699364 244.063909 
L 62.699364 244.063909 
z
" clip-path="url(#pda70744584)" style="fill: none; stroke: #000000; stroke-opacity: 0.3"/>
   </g>
   <g id="FillBetweenPolyCollection_3">
    <path d="M 119.274313 209.527573 
L 118.325687 209.527573 
L 118.305932 208.463402 
L 118.285697 207.399231 
L 118.262371 206.335059 
L 118.232778 205.270888 
L 118.19333 204.206717 
L 118.140244 203.142545 
L 118.069789 202.078374 
L 117.978553 201.014202 
L 117.863718 199.950031 
L 117.723298 198.88586 
L 117.556339 197.821688 
L 117.363047 196.757517 
L 117.144829 195.693346 
L 116.904233 194.629174 
L 116.644791 193.565003 
L 116.370765 192.500832 
L 116.086812 191.43666 
L 115.797596 190.372489 
L 115.507386 189.308318 
L 115.219667 188.244146 
L 114.936812 187.179975 
L 114.659842 186.115803 
L 114.388305 185.051632 
L 114.120272 183.987461 
L 113.852464 182.923289 
L 113.580488 181.859118 
L 113.299164 180.794947 
L 113.002907 179.730775 
L 112.686154 178.666604 
L 112.343789 177.602433 
L 111.971556 176.538261 
L 111.566432 175.47409 
L 111.126955 174.409918 
L 110.653462 173.345747 
L 110.148243 172.281576 
L 109.615563 171.217404 
L 109.061559 170.153233 
L 108.493969 169.089062 
L 107.921717 168.02489 
L 107.354359 166.960719 
L 106.801439 165.896548 
L 106.2718 164.832376 
L 105.772943 163.768205 
L 105.310494 162.704034 
L 104.887851 161.639862 
L 104.506074 160.575691 
L 104.164009 159.511519 
L 103.858654 158.447348 
L 103.585695 157.383177 
L 103.340143 156.319005 
L 103.116984 155.254834 
L 102.911747 154.190663 
L 102.720921 153.126491 
L 102.542191 152.06232 
L 102.374466 150.998149 
L 102.217756 149.933977 
L 102.072915 148.869806 
L 101.941346 147.805634 
L 101.824708 146.741463 
L 101.72469 145.677292 
L 101.642867 144.61312 
L 101.58065 143.548949 
L 101.539304 142.484778 
L 101.52 141.420606 
L 101.52387 140.356435 
L 101.552034 139.292264 
L 101.60558 138.228092 
L 101.685513 137.163921 
L 101.79268 136.09975 
L 101.927724 135.035578 
L 102.091072 133.971407 
L 102.283013 132.907235 
L 102.503831 131.843064 
L 102.754012 130.778893 
L 103.034457 129.714721 
L 103.346658 128.65055 
L 103.692784 127.586379 
L 104.075611 126.522207 
L 104.498295 125.458036 
L 104.963968 124.393865 
L 105.475215 123.329693 
L 106.033484 122.265522 
L 106.638526 121.20135 
L 107.287949 120.137179 
L 107.976975 119.073008 
L 108.69844 118.008836 
L 109.443064 116.944665 
L 110.199963 115.880494 
L 110.957345 114.816322 
L 111.703303 113.752151 
L 112.426604 112.68798 
L 113.11739 111.623808 
L 113.767697 110.559637 
L 114.371772 109.495466 
L 114.926146 108.431294 
L 115.429507 107.367123 
L 115.8824 106.302951 
L 116.28682 105.23878 
L 116.645774 104.174609 
L 120.954226 104.174609 
L 120.954226 104.174609 
L 121.31318 105.23878 
L 121.7176 106.302951 
L 122.170493 107.367123 
L 122.673854 108.431294 
L 123.228228 109.495466 
L 123.832303 110.559637 
L 124.48261 111.623808 
L 125.173396 112.68798 
L 125.896697 113.752151 
L 126.642655 114.816322 
L 127.400037 115.880494 
L 128.156936 116.944665 
L 128.90156 118.008836 
L 129.623025 119.073008 
L 130.312051 120.137179 
L 130.961474 121.20135 
L 131.566516 122.265522 
L 132.124785 123.329693 
L 132.636032 124.393865 
L 133.101705 125.458036 
L 133.524389 126.522207 
L 133.907216 127.586379 
L 134.253342 128.65055 
L 134.565543 129.714721 
L 134.845988 130.778893 
L 135.096169 131.843064 
L 135.316987 132.907235 
L 135.508928 133.971407 
L 135.672276 135.035578 
L 135.80732 136.09975 
L 135.914487 137.163921 
L 135.99442 138.228092 
L 136.047966 139.292264 
L 136.07613 140.356435 
L 136.08 141.420606 
L 136.060696 142.484778 
L 136.01935 143.548949 
L 135.957133 144.61312 
L 135.87531 145.677292 
L 135.775292 146.741463 
L 135.658654 147.805634 
L 135.527085 148.869806 
L 135.382244 149.933977 
L 135.225534 150.998149 
L 135.057809 152.06232 
L 134.879079 153.126491 
L 134.688253 154.190663 
L 134.483016 155.254834 
L 134.259857 156.319005 
L 134.014305 157.383177 
L 133.741346 158.447348 
L 133.435991 159.511519 
L 133.093926 160.575691 
L 132.712149 161.639862 
L 132.289506 162.704034 
L 131.827057 163.768205 
L 131.3282 164.832376 
L 130.798561 165.896548 
L 130.245641 166.960719 
L 129.678283 168.02489 
L 129.106031 169.089062 
L 128.538441 170.153233 
L 127.984437 171.217404 
L 127.451757 172.281576 
L 126.946538 173.345747 
L 126.473045 174.409918 
L 126.033568 175.47409 
L 125.628444 176.538261 
L 125.256211 177.602433 
L 124.913846 178.666604 
L 124.597093 179.730775 
L 124.300836 180.794947 
L 124.019512 181.859118 
L 123.747536 182.923289 
L 123.479728 183.987461 
L 123.211695 185.051632 
L 122.940158 186.115803 
L 122.663188 187.179975 
L 122.380333 188.244146 
L 122.092614 189.308318 
L 121.802404 190.372489 
L 121.513188 191.43666 
L 121.229235 192.500832 
L 120.955209 193.565003 
L 120.695767 194.629174 
L 120.455171 195.693346 
L 120.236953 196.757517 
L 120.043661 197.821688 
L 119.876702 198.88586 
L 119.736282 199.950031 
L 119.621447 201.014202 
L 119.530211 202.078374 
L 119.459756 203.142545 
L 119.40667 204.206717 
L 119.367222 205.270888 
L 119.337629 206.335059 
L 119.314303 207.399231 
L 119.294068 208.463402 
L 119.274313 209.527573 
L 119.274313 209.527573 
z
" clip-path="url(#pda70744584)" style="fill: none; stroke: #000000; stroke-opacity: 0.3"/>
   </g>
   <g id="FillBetweenPolyCollection_4">
    <path d="M 120.02096 201.033239 
L 117.57904 201.033239 
L 117.452061 199.999545 
L 117.321193 198.965852 
L 117.186613 197.932159 
L 117.048311 196.898465 
L 116.906091 195.864772 
L 116.759581 194.831078 
L 116.608239 193.797385 
L 116.451381 192.763692 
L 116.288193 191.729998 
L 116.117747 190.696305 
L 115.939019 189.662612 
L 115.750894 188.628918 
L 115.552168 187.595225 
L 115.341558 186.561531 
L 115.117693 185.527838 
L 114.879115 184.494145 
L 114.624282 183.460451 
L 114.351564 182.426758 
L 114.059268 181.393065 
L 113.745658 180.359371 
L 113.409002 179.325678 
L 113.047648 178.291984 
L 112.660114 177.258291 
L 112.245206 176.224598 
L 111.80216 175.190904 
L 111.330783 174.157211 
L 110.83159 173.123518 
L 110.305926 172.089824 
L 109.756043 171.056131 
L 109.185128 170.022437 
L 108.597284 168.988744 
L 107.997442 167.955051 
L 107.391225 166.921357 
L 106.784783 165.887664 
L 106.184598 164.853971 
L 105.597286 163.820277 
L 105.029424 162.786584 
L 104.487386 161.75289 
L 103.977214 160.719197 
L 103.504516 159.685504 
L 103.074373 158.65181 
L 102.69125 157.618117 
L 102.358897 156.584424 
L 102.080238 155.55073 
L 101.857236 154.517037 
L 101.690752 153.483343 
L 101.580414 152.44965 
L 101.524518 151.415957 
L 101.52 150.382263 
L 101.562492 149.34857 
L 101.646502 148.314877 
L 101.765706 147.281183 
L 101.913363 146.24749 
L 102.082812 145.213796 
L 102.268021 144.180103 
L 102.464121 143.14641 
L 102.667871 142.112716 
L 102.87799 141.079023 
L 103.095306 140.04533 
L 103.322702 139.011636 
L 103.564837 137.977943 
L 103.827672 136.944249 
L 104.117849 135.910556 
L 104.441972 134.876863 
L 104.805885 133.843169 
L 105.214002 132.809476 
L 105.668766 131.775783 
L 106.170288 130.742089 
L 106.716191 129.708396 
L 107.301662 128.674702 
L 107.919694 127.641009 
L 108.561493 126.607316 
L 109.216991 125.573622 
L 109.875414 124.539929 
L 110.525868 123.506236 
L 111.157891 122.472542 
L 111.761938 121.438849 
L 112.329782 120.405155 
L 112.854815 119.371462 
L 113.332247 118.337769 
L 113.759207 117.304075 
L 114.134752 116.270382 
L 114.459784 115.236689 
L 114.736904 114.202995 
L 114.970189 113.169302 
L 115.164928 112.135608 
L 115.327309 111.101915 
L 115.464087 110.068222 
L 115.582233 109.034528 
L 115.688593 108.000835 
L 115.789567 106.967142 
L 115.890824 105.933448 
L 115.997071 104.899755 
L 116.111879 103.866061 
L 116.23759 102.832368 
L 116.375289 101.798675 
L 116.524865 100.764981 
L 116.685122 99.731288 
L 116.853966 98.697595 
L 120.746034 98.697595 
L 120.746034 98.697595 
L 120.914878 99.731288 
L 121.075135 100.764981 
L 121.224711 101.798675 
L 121.36241 102.832368 
L 121.488121 103.866061 
L 121.602929 104.899755 
L 121.709176 105.933448 
L 121.810433 106.967142 
L 121.911407 108.000835 
L 122.017767 109.034528 
L 122.135913 110.068222 
L 122.272691 111.101915 
L 122.435072 112.135608 
L 122.629811 113.169302 
L 122.863096 114.202995 
L 123.140216 115.236689 
L 123.465248 116.270382 
L 123.840793 117.304075 
L 124.267753 118.337769 
L 124.745185 119.371462 
L 125.270218 120.405155 
L 125.838062 121.438849 
L 126.442109 122.472542 
L 127.074132 123.506236 
L 127.724586 124.539929 
L 128.383009 125.573622 
L 129.038507 126.607316 
L 129.680306 127.641009 
L 130.298338 128.674702 
L 130.883809 129.708396 
L 131.429712 130.742089 
L 131.931234 131.775783 
L 132.385998 132.809476 
L 132.794115 133.843169 
L 133.158028 134.876863 
L 133.482151 135.910556 
L 133.772328 136.944249 
L 134.035163 137.977943 
L 134.277298 139.011636 
L 134.504694 140.04533 
L 134.72201 141.079023 
L 134.932129 142.112716 
L 135.135879 143.14641 
L 135.331979 144.180103 
L 135.517188 145.213796 
L 135.686637 146.24749 
L 135.834294 147.281183 
L 135.953498 148.314877 
L 136.037508 149.34857 
L 136.08 150.382263 
L 136.075482 151.415957 
L 136.019586 152.44965 
L 135.909248 153.483343 
L 135.742764 154.517037 
L 135.519762 155.55073 
L 135.241103 156.584424 
L 134.90875 157.618117 
L 134.525627 158.65181 
L 134.095484 159.685504 
L 133.622786 160.719197 
L 133.112614 161.75289 
L 132.570576 162.786584 
L 132.002714 163.820277 
L 131.415402 164.853971 
L 130.815217 165.887664 
L 130.208775 166.921357 
L 129.602558 167.955051 
L 129.002716 168.988744 
L 128.414872 170.022437 
L 127.843957 171.056131 
L 127.294074 172.089824 
L 126.76841 173.123518 
L 126.269217 174.157211 
L 125.79784 175.190904 
L 125.354794 176.224598 
L 124.939886 177.258291 
L 124.552352 178.291984 
L 124.190998 179.325678 
L 123.854342 180.359371 
L 123.540732 181.393065 
L 123.248436 182.426758 
L 122.975718 183.460451 
L 122.720885 184.494145 
L 122.482307 185.527838 
L 122.258442 186.561531 
L 122.047832 187.595225 
L 121.849106 188.628918 
L 121.660981 189.662612 
L 121.482253 190.696305 
L 121.311807 191.729998 
L 121.148619 192.763692 
L 120.991761 193.797385 
L 120.840419 194.831078 
L 120.693909 195.864772 
L 120.551689 196.898465 
L 120.413387 197.932159 
L 120.278807 198.965852 
L 120.147939 199.999545 
L 120.02096 201.033239 
L 120.02096 201.033239 
z
" clip-path="url(#pda70744584)" style="fill: none; stroke: #000000; stroke-opacity: 0.3"/>
   </g>
   <g id="FillBetweenPolyCollection_5">
    <path d="M 123.606715 183.904124 
L 113.993285 183.904124 
L 113.728056 183.108973 
L 113.474562 182.313823 
L 113.235216 181.518672 
L 113.012209 180.723521 
L 112.807453 179.928371 
L 112.622551 179.13322 
L 112.458753 178.33807 
L 112.31693 177.542919 
L 112.197558 176.747769 
L 112.100695 175.952618 
L 112.025976 175.157467 
L 111.972605 174.362317 
L 111.939356 173.567166 
L 111.924575 172.772016 
L 111.926187 171.976865 
L 111.941706 171.181714 
L 111.968255 170.386564 
L 112.002587 169.591413 
L 112.041112 168.796263 
L 112.079943 168.001112 
L 112.114936 167.205962 
L 112.141757 166.410811 
L 112.15595 165.61566 
L 112.15302 164.82051 
L 112.128525 164.025359 
L 112.078181 163.230209 
L 111.997972 162.435058 
L 111.884263 161.639907 
L 111.733911 160.844757 
L 111.544384 160.049606 
L 111.313854 159.254456 
L 111.04129 158.459305 
L 110.726532 157.664155 
L 110.370338 156.869004 
L 109.974409 156.073853 
L 109.54139 155.278703 
L 109.074842 154.483552 
L 108.579178 153.688402 
L 108.059582 152.893251 
L 107.521899 152.0981 
L 106.972503 151.30295 
L 106.418146 150.507799 
L 105.865804 149.712649 
L 105.322507 148.917498 
L 104.795179 148.122348 
L 104.29047 147.327197 
L 103.81462 146.532046 
L 103.373316 145.736896 
L 102.971587 144.941745 
L 102.613712 144.146595 
L 102.303155 143.351444 
L 102.042529 142.556293 
L 101.833575 141.761143 
L 101.677175 140.965992 
L 101.573384 140.170842 
L 101.521473 139.375691 
L 101.52 138.580541 
L 101.566882 137.78539 
L 101.659487 136.990239 
L 101.794723 136.195089 
L 101.969136 135.399938 
L 102.179009 134.604788 
L 102.420456 133.809637 
L 102.689515 133.014486 
L 102.982239 132.219336 
L 103.294775 131.424185 
L 103.62344 130.629035 
L 103.96479 129.833884 
L 104.315672 129.038734 
L 104.673277 128.243583 
L 105.035168 127.448432 
L 105.399313 126.653282 
L 105.764087 125.858131 
L 106.128277 125.062981 
L 106.491068 124.26783 
L 106.852012 123.472679 
L 107.210996 122.677529 
L 107.568194 121.882378 
L 107.924006 121.087228 
L 108.279005 120.292077 
L 108.633865 119.496927 
L 108.989297 118.701776 
L 109.345987 117.906625 
L 109.70453 117.111475 
L 110.065383 116.316324 
L 110.428818 115.521174 
L 110.794888 114.726023 
L 111.163404 113.930872 
L 111.533931 113.135722 
L 111.905785 112.340571 
L 112.278048 111.545421 
L 112.649593 110.75027 
L 113.019121 109.95512 
L 113.385192 109.159969 
L 113.746278 108.364818 
L 114.100803 107.569668 
L 114.447194 106.774517 
L 114.783922 105.979367 
L 115.109547 105.184216 
L 122.490453 105.184216 
L 122.490453 105.184216 
L 122.816078 105.979367 
L 123.152806 106.774517 
L 123.499197 107.569668 
L 123.853722 108.364818 
L 124.214808 109.159969 
L 124.580879 109.95512 
L 124.950407 110.75027 
L 125.321952 111.545421 
L 125.694215 112.340571 
L 126.066069 113.135722 
L 126.436596 113.930872 
L 126.805112 114.726023 
L 127.171182 115.521174 
L 127.534617 116.316324 
L 127.89547 117.111475 
L 128.254013 117.906625 
L 128.610703 118.701776 
L 128.966135 119.496927 
L 129.320995 120.292077 
L 129.675994 121.087228 
L 130.031806 121.882378 
L 130.389004 122.677529 
L 130.747988 123.472679 
L 131.108932 124.26783 
L 131.471723 125.062981 
L 131.835913 125.858131 
L 132.200687 126.653282 
L 132.564832 127.448432 
L 132.926723 128.243583 
L 133.284328 129.038734 
L 133.63521 129.833884 
L 133.97656 130.629035 
L 134.305225 131.424185 
L 134.617761 132.219336 
L 134.910485 133.014486 
L 135.179544 133.809637 
L 135.420991 134.604788 
L 135.630864 135.399938 
L 135.805277 136.195089 
L 135.940513 136.990239 
L 136.033118 137.78539 
L 136.08 138.580541 
L 136.078527 139.375691 
L 136.026616 140.170842 
L 135.922825 140.965992 
L 135.766425 141.761143 
L 135.557471 142.556293 
L 135.296845 143.351444 
L 134.986288 144.146595 
L 134.628413 144.941745 
L 134.226684 145.736896 
L 133.78538 146.532046 
L 133.30953 147.327197 
L 132.804821 148.122348 
L 132.277493 148.917498 
L 131.734196 149.712649 
L 131.181854 150.507799 
L 130.627497 151.30295 
L 130.078101 152.0981 
L 129.540418 152.893251 
L 129.020822 153.688402 
L 128.525158 154.483552 
L 128.05861 155.278703 
L 127.625591 156.073853 
L 127.229662 156.869004 
L 126.873468 157.664155 
L 126.55871 158.459305 
L 126.286146 159.254456 
L 126.055616 160.049606 
L 125.866089 160.844757 
L 125.715737 161.639907 
L 125.602028 162.435058 
L 125.521819 163.230209 
L 125.471475 164.025359 
L 125.44698 164.82051 
L 125.44405 165.61566 
L 125.458243 166.410811 
L 125.485064 167.205962 
L 125.520057 168.001112 
L 125.558888 168.796263 
L 125.597413 169.591413 
L 125.631745 170.386564 
L 125.658294 171.181714 
L 125.673813 171.976865 
L 125.675425 172.772016 
L 125.660644 173.567166 
L 125.627395 174.362317 
L 125.574024 175.157467 
L 125.499305 175.952618 
L 125.402442 176.747769 
L 125.28307 177.542919 
L 125.141247 178.33807 
L 124.977449 179.13322 
L 124.792547 179.928371 
L 124.587791 180.723521 
L 124.364784 181.518672 
L 124.125438 182.313823 
L 123.871944 183.108973 
L 123.606715 183.904124 
L 123.606715 183.904124 
z
" clip-path="url(#pda70744584)" style="fill: none; stroke: #000000; stroke-opacity: 0.3"/>
   </g>
   <g id="FillBetweenPolyCollection_6">
    <path d="M 119.296988 209.563201 
L 118.303012 209.563201 
L 118.274618 208.53046 
L 118.244553 207.497718 
L 118.210652 206.464977 
L 118.170443 205.432236 
L 118.12132 204.399494 
L 118.060755 203.366753 
L 117.986501 202.334011 
L 117.896784 201.30127 
L 117.790445 200.268528 
L 117.667029 199.235787 
L 117.526793 198.203045 
L 117.370652 197.170304 
L 117.200036 196.137562 
L 117.016711 195.104821 
L 116.822548 194.072079 
L 116.61929 193.039338 
L 116.408324 192.006597 
L 116.190491 190.973855 
L 115.96595 189.941114 
L 115.73411 188.908372 
L 115.493629 187.875631 
L 115.242495 186.842889 
L 114.978173 185.810148 
L 114.697809 184.777406 
L 114.39848 183.744665 
L 114.077471 182.711923 
L 113.732559 181.679182 
L 113.362286 180.64644 
L 112.966188 179.613699 
L 112.544974 178.580958 
L 112.100613 177.548216 
L 111.636339 176.515475 
L 111.156533 175.482733 
L 110.666516 174.449992 
L 110.172224 173.41725 
L 109.679816 172.384509 
L 109.195232 171.351767 
L 108.72374 170.319026 
L 108.269516 169.286284 
L 107.83532 168.253543 
L 107.422279 167.220801 
L 107.029837 166.18806 
L 106.655877 165.155319 
L 106.297009 164.122577 
L 105.949006 163.089836 
L 105.60735 162.057094 
L 105.267822 161.024353 
L 104.927078 159.991611 
L 104.583145 158.95887 
L 104.235772 157.926128 
L 103.886603 156.893387 
L 103.539153 155.860645 
L 103.198584 154.827904 
L 102.871326 153.795162 
L 102.564573 152.762421 
L 102.28573 151.72968 
L 102.041862 150.696938 
L 101.839213 149.664197 
L 101.682834 148.631455 
L 101.576348 147.598714 
L 101.521858 146.565972 
L 101.52 145.533231 
L 101.570104 144.500489 
L 101.670434 143.467748 
L 101.818467 142.435006 
L 102.011186 141.402265 
L 102.245338 140.369523 
L 102.517647 139.336782 
L 102.824962 138.304041 
L 103.164338 137.271299 
L 103.533057 136.238558 
L 103.92859 135.205816 
L 104.348532 134.173075 
L 104.790508 133.140333 
L 105.252091 132.107592 
L 105.730735 131.07485 
L 106.223745 130.042109 
L 106.728292 129.009367 
L 107.241474 127.976626 
L 107.760412 126.943884 
L 108.282379 125.911143 
L 108.804926 124.878402 
L 109.325997 123.84566 
L 109.843994 122.812919 
L 110.357794 121.780177 
L 110.86669 120.747436 
L 111.370275 119.714694 
L 111.868274 118.681953 
L 112.360353 117.649211 
L 112.845932 116.61647 
L 113.324035 115.583728 
L 113.793196 114.550987 
L 114.251441 113.518245 
L 114.696348 112.485504 
L 115.125177 111.452763 
L 115.535047 110.420021 
L 115.923138 109.38728 
L 116.286896 108.354538 
L 116.624204 107.321797 
L 120.975796 107.321797 
L 120.975796 107.321797 
L 121.313104 108.354538 
L 121.676862 109.38728 
L 122.064953 110.420021 
L 122.474823 111.452763 
L 122.903652 112.485504 
L 123.348559 113.518245 
L 123.806804 114.550987 
L 124.275965 115.583728 
L 124.754068 116.61647 
L 125.239647 117.649211 
L 125.731726 118.681953 
L 126.229725 119.714694 
L 126.73331 120.747436 
L 127.242206 121.780177 
L 127.756006 122.812919 
L 128.274003 123.84566 
L 128.795074 124.878402 
L 129.317621 125.911143 
L 129.839588 126.943884 
L 130.358526 127.976626 
L 130.871708 129.009367 
L 131.376255 130.042109 
L 131.869265 131.07485 
L 132.347909 132.107592 
L 132.809492 133.140333 
L 133.251468 134.173075 
L 133.67141 135.205816 
L 134.066943 136.238558 
L 134.435662 137.271299 
L 134.775038 138.304041 
L 135.082353 139.336782 
L 135.354662 140.369523 
L 135.588814 141.402265 
L 135.781533 142.435006 
L 135.929566 143.467748 
L 136.029896 144.500489 
L 136.08 145.533231 
L 136.078142 146.565972 
L 136.023652 147.598714 
L 135.917166 148.631455 
L 135.760787 149.664197 
L 135.558138 150.696938 
L 135.31427 151.72968 
L 135.035427 152.762421 
L 134.728674 153.795162 
L 134.401416 154.827904 
L 134.060847 155.860645 
L 133.713397 156.893387 
L 133.364228 157.926128 
L 133.016855 158.95887 
L 132.672922 159.991611 
L 132.332178 161.024353 
L 131.99265 162.057094 
L 131.650994 163.089836 
L 131.302991 164.122577 
L 130.944123 165.155319 
L 130.570163 166.18806 
L 130.177721 167.220801 
L 129.76468 168.253543 
L 129.330484 169.286284 
L 128.87626 170.319026 
L 128.404768 171.351767 
L 127.920184 172.384509 
L 127.427776 173.41725 
L 126.933484 174.449992 
L 126.443467 175.482733 
L 125.963661 176.515475 
L 125.499387 177.548216 
L 125.055026 178.580958 
L 124.633812 179.613699 
L 124.237714 180.64644 
L 123.867441 181.679182 
L 123.522529 182.711923 
L 123.20152 183.744665 
L 122.902191 184.777406 
L 122.621827 185.810148 
L 122.357505 186.842889 
L 122.106371 187.875631 
L 121.86589 188.908372 
L 121.63405 189.941114 
L 121.409509 190.973855 
L 121.191676 192.006597 
L 120.98071 193.039338 
L 120.777452 194.072079 
L 120.583289 195.104821 
L 120.399964 196.137562 
L 120.229348 197.170304 
L 120.073207 198.203045 
L 119.932971 199.235787 
L 119.809555 200.268528 
L 119.703216 201.30127 
L 119.613499 202.334011 
L 119.539245 203.366753 
L 119.47868 204.399494 
L 119.429557 205.432236 
L 119.389348 206.464977 
L 119.355447 207.497718 
L 119.325382 208.53046 
L 119.296988 209.563201 
L 119.296988 209.563201 
z
" clip-path="url(#pda70744584)" style="fill: none; stroke: #000000; stroke-opacity: 0.3"/>
   </g>
   <g id="FillBetweenPolyCollection_7">
    <path d="M 178.222903 192.851146 
L 174.577097 192.851146 
L 174.322633 191.438463 
L 174.058039 190.02578 
L 173.780348 188.613098 
L 173.484301 187.200415 
L 173.162814 185.787732 
L 172.807781 184.375049 
L 172.411087 182.962366 
L 171.965648 181.549683 
L 171.466281 180.137 
L 170.910276 178.724317 
L 170.297613 177.311634 
L 169.630882 175.898951 
L 168.915004 174.486268 
L 168.15692 173.073586 
L 167.365354 171.660903 
L 166.550667 170.24822 
L 165.724747 168.835537 
L 164.900795 167.422854 
L 164.092886 166.010171 
L 163.315253 164.597488 
L 162.581361 163.184805 
L 161.902961 161.772122 
L 161.289363 160.359439 
L 160.747129 158.946757 
L 160.280259 157.534074 
L 159.890796 156.121391 
L 159.579624 154.708708 
L 159.347175 153.296025 
L 159.193843 151.883342 
L 159.12 150.470659 
L 159.125694 149.057976 
L 159.210202 147.645293 
L 159.371653 146.23261 
L 159.606856 144.819927 
L 159.91136 143.407245 
L 160.27967 141.994562 
L 160.705491 140.581879 
L 161.181909 139.169196 
L 161.70152 137.756513 
L 162.256577 136.34383 
L 162.839288 134.931147 
L 163.44233 133.518464 
L 164.059522 132.105781 
L 164.686479 130.693098 
L 165.320999 129.280415 
L 165.962941 127.867733 
L 166.61349 126.45505 
L 167.273918 125.042367 
L 167.944115 123.629684 
L 168.621283 122.217001 
L 169.299188 120.804318 
L 169.968198 119.391635 
L 170.616161 117.978952 
L 171.22992 116.566269 
L 171.797134 115.153586 
L 172.307994 113.740903 
L 172.756489 112.328221 
L 173.141003 110.915538 
L 173.464188 109.502855 
L 173.732225 108.090172 
L 173.953658 106.677489 
L 174.138074 105.264806 
L 174.294865 103.852123 
L 174.432257 102.43944 
L 174.556737 101.026757 
L 174.672888 99.614074 
L 174.783589 98.201391 
L 174.890462 96.788709 
L 174.994411 95.376026 
L 175.096094 93.963343 
L 175.196228 92.55066 
L 175.295659 91.137977 
L 175.395224 89.725294 
L 175.49549 88.312611 
L 175.596478 86.899928 
L 175.697482 85.487245 
L 175.797059 84.074562 
L 175.893186 82.66188 
L 175.983559 81.249197 
L 176.065944 79.836514 
L 176.138491 78.423831 
L 176.19995 77.011148 
L 176.249738 75.598465 
L 176.287888 74.185782 
L 176.314891 72.773099 
L 176.331506 71.360416 
L 176.338589 69.947733 
L 176.336982 68.53505 
L 176.327487 67.122368 
L 176.310923 65.709685 
L 176.288243 64.297002 
L 176.260663 62.884319 
L 176.22977 61.471636 
L 176.197553 60.058953 
L 176.166334 58.64627 
L 176.138595 57.233587 
L 176.116725 55.820904 
L 176.102716 54.408221 
L 176.097899 52.995538 
L 176.702101 52.995538 
L 176.702101 52.995538 
L 176.697284 54.408221 
L 176.683275 55.820904 
L 176.661405 57.233587 
L 176.633666 58.64627 
L 176.602447 60.058953 
L 176.57023 61.471636 
L 176.539337 62.884319 
L 176.511757 64.297002 
L 176.489077 65.709685 
L 176.472513 67.122368 
L 176.463018 68.53505 
L 176.461411 69.947733 
L 176.468494 71.360416 
L 176.485109 72.773099 
L 176.512112 74.185782 
L 176.550262 75.598465 
L 176.60005 77.011148 
L 176.661509 78.423831 
L 176.734056 79.836514 
L 176.816441 81.249197 
L 176.906814 82.66188 
L 177.002941 84.074562 
L 177.102518 85.487245 
L 177.203522 86.899928 
L 177.30451 88.312611 
L 177.404776 89.725294 
L 177.504341 91.137977 
L 177.603772 92.55066 
L 177.703906 93.963343 
L 177.805589 95.376026 
L 177.909538 96.788709 
L 178.016411 98.201391 
L 178.127112 99.614074 
L 178.243263 101.026757 
L 178.367743 102.43944 
L 178.505135 103.852123 
L 178.661926 105.264806 
L 178.846342 106.677489 
L 179.067775 108.090172 
L 179.335812 109.502855 
L 179.658997 110.915538 
L 180.043511 112.328221 
L 180.492006 113.740903 
L 181.002866 115.153586 
L 181.57008 116.566269 
L 182.183839 117.978952 
L 182.831802 119.391635 
L 183.500812 120.804318 
L 184.178717 122.217001 
L 184.855885 123.629684 
L 185.526082 125.042367 
L 186.18651 126.45505 
L 186.837059 127.867733 
L 187.479001 129.280415 
L 188.113521 130.693098 
L 188.740478 132.105781 
L 189.35767 133.518464 
L 189.960712 134.931147 
L 190.543423 136.34383 
L 191.09848 137.756513 
L 191.618091 139.169196 
L 192.094509 140.581879 
L 192.52033 141.994562 
L 192.88864 143.407245 
L 193.193144 144.819927 
L 193.428347 146.23261 
L 193.589798 147.645293 
L 193.674306 149.057976 
L 193.68 150.470659 
L 193.606157 151.883342 
L 193.452825 153.296025 
L 193.220376 154.708708 
L 192.909204 156.121391 
L 192.519741 157.534074 
L 192.052871 158.946757 
L 191.510637 160.359439 
L 190.897039 161.772122 
L 190.218639 163.184805 
L 189.484747 164.597488 
L 188.707114 166.010171 
L 187.899205 167.422854 
L 187.075253 168.835537 
L 186.249333 170.24822 
L 185.434646 171.660903 
L 184.64308 173.073586 
L 183.884996 174.486268 
L 183.169118 175.898951 
L 182.502387 177.311634 
L 181.889724 178.724317 
L 181.333719 180.137 
L 180.834352 181.549683 
L 180.388913 182.962366 
L 179.992219 184.375049 
L 179.637186 185.787732 
L 179.315699 187.200415 
L 179.019652 188.613098 
L 178.741961 190.02578 
L 178.477367 191.438463 
L 178.222903 192.851146 
L 178.222903 192.851146 
z
" clip-path="url(#pda70744584)" style="fill: none; stroke: #000000; stroke-opacity: 0.3"/>
   </g>
   <g id="FillBetweenPolyCollection_8">
    <path d="M 176.976158 213.228539 
L 175.823842 213.228539 
L 175.743775 211.508704 
L 175.664938 209.788868 
L 175.586909 208.069033 
L 175.507863 206.349197 
L 175.424719 204.629362 
L 175.333562 202.909526 
L 175.230255 201.18969 
L 175.111086 199.469855 
L 174.973254 197.750019 
L 174.815001 196.030184 
L 174.635312 194.310348 
L 174.433234 192.590513 
L 174.207028 190.870677 
L 173.953482 189.150842 
L 173.667706 187.431006 
L 173.343591 185.711171 
L 172.974892 183.991335 
L 172.556661 182.2715 
L 172.0866 180.551664 
L 171.565924 178.831829 
L 170.999488 177.111993 
L 170.395215 175.392158 
L 169.763075 173.672322 
L 169.113981 171.952487 
L 168.458881 170.232651 
L 167.808155 168.512816 
L 167.171164 166.79298 
L 166.555731 165.073144 
L 165.967355 163.353309 
L 165.408212 161.633473 
L 164.876232 159.913638 
L 164.36474 158.193802 
L 163.86313 156.473967 
L 163.358796 154.754131 
L 162.840139 153.034296 
L 162.30011 151.31446 
L 161.739433 149.594625 
L 161.168694 147.874789 
L 160.608724 146.154954 
L 160.089112 144.435118 
L 159.645145 142.715283 
L 159.31379 140.995447 
L 159.129426 139.275612 
L 159.12 137.555776 
L 159.304041 135.835941 
L 159.688782 134.116105 
L 160.269455 132.39627 
L 161.029706 130.676434 
L 161.943034 128.956598 
L 162.975049 127.236763 
L 164.086318 125.516927 
L 165.235461 123.797092 
L 166.382147 122.077256 
L 167.489697 120.357421 
L 168.527058 118.637585 
L 169.470082 116.91775 
L 170.302136 115.197914 
L 171.01417 113.478079 
L 171.604366 111.758243 
L 172.077517 110.038408 
L 172.444196 108.318572 
L 172.719761 106.598737 
L 172.92319 104.878901 
L 173.075692 103.159066 
L 173.199114 101.43923 
L 173.314165 99.719395 
L 173.438597 97.999559 
L 173.585585 96.279724 
L 173.76256 94.559888 
L 173.970772 92.840052 
L 174.20569 91.120217 
L 174.458229 89.400381 
L 174.716565 87.680546 
L 174.96821 85.96071 
L 175.201961 84.240875 
L 175.409401 82.521039 
L 175.585738 80.801204 
L 175.729947 79.081368 
L 175.844271 77.361533 
L 175.933279 75.641697 
L 176.002701 73.921862 
L 176.058299 72.202026 
L 176.104943 70.482191 
L 176.14605 68.762355 
L 176.183406 67.04252 
L 176.217318 65.322684 
L 176.247016 63.602849 
L 176.27115 61.883013 
L 176.288284 60.163178 
L 176.297307 58.443342 
L 176.297733 56.723506 
L 176.289874 55.003671 
L 176.27491 53.283835 
L 176.254839 51.564 
L 176.23232 49.844164 
L 176.210391 48.124329 
L 176.192093 46.404493 
L 176.18005 44.684658 
L 176.176074 42.964822 
L 176.623926 42.964822 
L 176.623926 42.964822 
L 176.61995 44.684658 
L 176.607907 46.404493 
L 176.589609 48.124329 
L 176.56768 49.844164 
L 176.545161 51.564 
L 176.52509 53.283835 
L 176.510126 55.003671 
L 176.502267 56.723506 
L 176.502693 58.443342 
L 176.511716 60.163178 
L 176.52885 61.883013 
L 176.552984 63.602849 
L 176.582682 65.322684 
L 176.616594 67.04252 
L 176.65395 68.762355 
L 176.695057 70.482191 
L 176.741701 72.202026 
L 176.797299 73.921862 
L 176.866721 75.641697 
L 176.955729 77.361533 
L 177.070053 79.081368 
L 177.214262 80.801204 
L 177.390599 82.521039 
L 177.598039 84.240875 
L 177.83179 85.96071 
L 178.083435 87.680546 
L 178.341771 89.400381 
L 178.59431 91.120217 
L 178.829228 92.840052 
L 179.03744 94.559888 
L 179.214415 96.279724 
L 179.361403 97.999559 
L 179.485835 99.719395 
L 179.600886 101.43923 
L 179.724308 103.159066 
L 179.87681 104.878901 
L 180.080239 106.598737 
L 180.355804 108.318572 
L 180.722483 110.038408 
L 181.195634 111.758243 
L 181.78583 113.478079 
L 182.497864 115.197914 
L 183.329918 116.91775 
L 184.272942 118.637585 
L 185.310303 120.357421 
L 186.417853 122.077256 
L 187.564539 123.797092 
L 188.713682 125.516927 
L 189.824951 127.236763 
L 190.856966 128.956598 
L 191.770294 130.676434 
L 192.530545 132.39627 
L 193.111218 134.116105 
L 193.495959 135.835941 
L 193.68 137.555776 
L 193.670574 139.275612 
L 193.48621 140.995447 
L 193.154855 142.715283 
L 192.710888 144.435118 
L 192.191276 146.154954 
L 191.631306 147.874789 
L 191.060567 149.594625 
L 190.49989 151.31446 
L 189.959861 153.034296 
L 189.441204 154.754131 
L 188.93687 156.473967 
L 188.43526 158.193802 
L 187.923768 159.913638 
L 187.391788 161.633473 
L 186.832645 163.353309 
L 186.244269 165.073144 
L 185.628836 166.79298 
L 184.991845 168.512816 
L 184.341119 170.232651 
L 183.686019 171.952487 
L 183.036925 173.672322 
L 182.404785 175.392158 
L 181.800512 177.111993 
L 181.234076 178.831829 
L 180.7134 180.551664 
L 180.243339 182.2715 
L 179.825108 183.991335 
L 179.456409 185.711171 
L 179.132294 187.431006 
L 178.846518 189.150842 
L 178.592972 190.870677 
L 178.366766 192.590513 
L 178.164688 194.310348 
L 177.984999 196.030184 
L 177.826746 197.750019 
L 177.688914 199.469855 
L 177.569745 201.18969 
L 177.466438 202.909526 
L 177.375281 204.629362 
L 177.292137 206.349197 
L 177.213091 208.069033 
L 177.135062 209.788868 
L 177.056225 211.508704 
L 176.976158 213.228539 
L 176.976158 213.228539 
z
" clip-path="url(#pda70744584)" style="fill: none; stroke: #000000; stroke-opacity: 0.3"/>
   </g>
   <g id="FillBetweenPolyCollection_9">
    <path d="M 177.015018 205.757641 
L 175.784982 205.757641 
L 175.691174 204.323 
L 175.586359 202.888358 
L 175.468916 201.453717 
L 175.337257 200.019075 
L 175.190022 198.584434 
L 175.026271 197.149792 
L 174.845622 195.715151 
L 174.648309 194.280509 
L 174.435132 192.845868 
L 174.207295 191.411226 
L 173.966152 189.976585 
L 173.71289 188.541943 
L 173.4482 187.107302 
L 173.172004 185.67266 
L 172.883293 184.238019 
L 172.580113 182.803377 
L 172.259713 181.368736 
L 171.918855 179.934094 
L 171.55422 178.499453 
L 171.16285 177.064811 
L 170.742535 175.63017 
L 170.292084 174.195529 
L 169.811422 172.760887 
L 169.301523 171.326246 
L 168.764203 169.891604 
L 168.201866 168.456963 
L 167.617279 167.022321 
L 167.013452 165.58768 
L 166.393672 164.153038 
L 165.761663 162.718397 
L 165.121825 161.283755 
L 164.479447 159.849114 
L 163.840804 158.414472 
L 163.213082 156.979831 
L 162.604111 155.545189 
L 162.021962 154.110548 
L 161.474515 152.675906 
L 160.969112 151.241265 
L 160.512388 149.806623 
L 160.110326 148.371982 
L 159.768517 146.93734 
L 159.492516 145.502699 
L 159.288169 144.068057 
L 159.161778 142.633416 
L 159.12 141.198774 
L 159.169449 139.764133 
L 159.31604 138.329491 
L 159.564187 136.89485 
L 159.915977 135.460208 
L 160.370481 134.025567 
L 160.923304 132.590925 
L 161.566457 131.156284 
L 162.28855 129.721642 
L 163.075313 128.287001 
L 163.910344 126.852359 
L 164.776039 125.417718 
L 165.654588 123.983076 
L 166.52895 122.548435 
L 167.383718 121.113793 
L 168.205799 119.679152 
L 168.984841 118.24451 
L 169.713391 116.809869 
L 170.386772 115.375227 
L 171.002733 113.940586 
L 171.560927 112.505944 
L 172.062317 111.071303 
L 172.508606 109.636661 
L 172.901776 108.20202 
L 173.243797 106.767378 
L 173.536533 105.332737 
L 173.781826 103.898095 
L 173.981711 102.463454 
L 174.138691 101.028812 
L 174.255984 99.594171 
L 174.337682 98.159529 
L 174.38876 96.724888 
L 174.414929 95.290246 
L 174.422357 93.855605 
L 174.417286 92.420963 
L 174.405623 90.986322 
L 174.392576 89.55168 
L 174.382376 88.117039 
L 174.378135 86.682397 
L 174.381841 85.247756 
L 174.394487 83.813115 
L 174.416294 82.378473 
L 174.44698 80.943832 
L 174.486035 79.50919 
L 174.532962 78.074549 
L 174.587434 76.639907 
L 174.649367 75.205266 
L 174.7189 73.770624 
L 174.796285 72.335983 
L 174.881735 70.901341 
L 174.975236 69.4667 
L 175.076379 68.032058 
L 175.184244 66.597417 
L 175.297353 65.162775 
L 175.413712 63.728134 
L 177.386288 63.728134 
L 177.386288 63.728134 
L 177.502647 65.162775 
L 177.615756 66.597417 
L 177.723621 68.032058 
L 177.824764 69.4667 
L 177.918265 70.901341 
L 178.003715 72.335983 
L 178.0811 73.770624 
L 178.150633 75.205266 
L 178.212566 76.639907 
L 178.267038 78.074549 
L 178.313965 79.50919 
L 178.35302 80.943832 
L 178.383706 82.378473 
L 178.405513 83.813115 
L 178.418159 85.247756 
L 178.421865 86.682397 
L 178.417624 88.117039 
L 178.407424 89.55168 
L 178.394377 90.986322 
L 178.382714 92.420963 
L 178.377643 93.855605 
L 178.385071 95.290246 
L 178.41124 96.724888 
L 178.462318 98.159529 
L 178.544016 99.594171 
L 178.661309 101.028812 
L 178.818289 102.463454 
L 179.018174 103.898095 
L 179.263467 105.332737 
L 179.556203 106.767378 
L 179.898224 108.20202 
L 180.291394 109.636661 
L 180.737683 111.071303 
L 181.239073 112.505944 
L 181.797267 113.940586 
L 182.413228 115.375227 
L 183.086609 116.809869 
L 183.815159 118.24451 
L 184.594201 119.679152 
L 185.416282 121.113793 
L 186.27105 122.548435 
L 187.145412 123.983076 
L 188.023961 125.417718 
L 188.889656 126.852359 
L 189.724687 128.287001 
L 190.51145 129.721642 
L 191.233543 131.156284 
L 191.876696 132.590925 
L 192.429519 134.025567 
L 192.884023 135.460208 
L 193.235813 136.89485 
L 193.48396 138.329491 
L 193.630551 139.764133 
L 193.68 141.198774 
L 193.638222 142.633416 
L 193.511831 144.068057 
L 193.307484 145.502699 
L 193.031483 146.93734 
L 192.689674 148.371982 
L 192.287612 149.806623 
L 191.830888 151.241265 
L 191.325485 152.675906 
L 190.778038 154.110548 
L 190.195889 155.545189 
L 189.586918 156.979831 
L 188.959196 158.414472 
L 188.320553 159.849114 
L 187.678175 161.283755 
L 187.038337 162.718397 
L 186.406328 164.153038 
L 185.786548 165.58768 
L 185.182721 167.022321 
L 184.598134 168.456963 
L 184.035797 169.891604 
L 183.498477 171.326246 
L 182.988578 172.760887 
L 182.507916 174.195529 
L 182.057465 175.63017 
L 181.63715 177.064811 
L 181.24578 178.499453 
L 180.881145 179.934094 
L 180.540287 181.368736 
L 180.219887 182.803377 
L 179.916707 184.238019 
L 179.627996 185.67266 
L 179.3518 187.107302 
L 179.08711 188.541943 
L 178.833848 189.976585 
L 178.592705 191.411226 
L 178.364868 192.845868 
L 178.151691 194.280509 
L 177.954378 195.715151 
L 177.773729 197.149792 
L 177.609978 198.584434 
L 177.462743 200.019075 
L 177.331084 201.453717 
L 177.213641 202.888358 
L 177.108826 204.323 
L 177.015018 205.757641 
L 177.015018 205.757641 
z
" clip-path="url(#pda70744584)" style="fill: none; stroke: #000000; stroke-opacity: 0.3"/>
   </g>
   <g id="FillBetweenPolyCollection_10">
    <path d="M 179.687445 184.972262 
L 173.112555 184.972262 
L 172.778089 183.799893 
L 172.433787 182.627525 
L 172.081831 181.455157 
L 171.724471 180.282789 
L 171.363949 179.110421 
L 171.002416 177.938053 
L 170.641816 176.765685 
L 170.28378 175.593317 
L 169.929507 174.420949 
L 169.579658 173.24858 
L 169.23428 172.076212 
L 168.89277 170.903844 
L 168.553883 169.731476 
L 168.215806 168.559108 
L 167.876287 167.38674 
L 167.53281 166.214372 
L 167.18282 165.042004 
L 166.823953 163.869636 
L 166.454269 162.697268 
L 166.072456 161.524899 
L 165.677985 160.352531 
L 165.271199 159.180163 
L 164.853334 158.007795 
L 164.426463 156.835427 
L 163.993383 155.663059 
L 163.557454 154.490691 
L 163.12241 153.318323 
L 162.692168 152.145955 
L 162.27066 150.973586 
L 161.861697 149.801218 
L 161.468884 148.62885 
L 161.095589 147.456482 
L 160.744963 146.284114 
L 160.420005 145.111746 
L 160.123648 143.939378 
L 159.858863 142.76701 
L 159.628751 141.594642 
L 159.4366 140.422273 
L 159.285917 139.249905 
L 159.180393 138.077537 
L 159.123829 136.905169 
L 159.12 135.732801 
L 159.172489 134.560433 
L 159.284485 133.388065 
L 159.458578 132.215697 
L 159.696558 131.043329 
L 159.999239 129.870961 
L 160.366325 128.698592 
L 160.796326 127.526224 
L 161.286526 126.353856 
L 161.833015 125.181488 
L 162.430772 124.00912 
L 163.073787 122.836752 
L 163.755235 121.664384 
L 164.467659 120.492016 
L 165.203179 119.319648 
L 165.953701 118.147279 
L 166.711122 116.974911 
L 167.467522 115.802543 
L 168.215336 114.630175 
L 168.947511 113.457807 
L 169.657633 112.285439 
L 170.340026 111.113071 
L 170.989833 109.940703 
L 171.603059 108.768335 
L 172.176595 107.595966 
L 172.708216 106.423598 
L 173.196549 105.25123 
L 173.64103 104.078862 
L 174.041832 102.906494 
L 174.399786 101.734126 
L 174.71628 100.561758 
L 174.993163 99.38939 
L 175.232633 98.217022 
L 175.437135 97.044653 
L 175.609254 95.872285 
L 175.751628 94.699917 
L 175.866863 93.527549 
L 175.957471 92.355181 
L 176.02582 91.182813 
L 176.074113 90.010445 
L 176.104375 88.838077 
L 176.118469 87.665709 
L 176.11812 86.493341 
L 176.104965 85.320972 
L 176.080595 84.148604 
L 176.04661 82.976236 
L 176.004666 81.803868 
L 175.95651 80.6315 
L 175.904003 79.459132 
L 175.849118 78.286764 
L 175.793919 77.114396 
L 175.740511 75.942028 
L 175.690981 74.769659 
L 175.64731 73.597291 
L 175.611291 72.424923 
L 175.584435 71.252555 
L 175.567895 70.080187 
L 175.562398 68.907819 
L 177.237602 68.907819 
L 177.237602 68.907819 
L 177.232105 70.080187 
L 177.215565 71.252555 
L 177.188709 72.424923 
L 177.15269 73.597291 
L 177.109019 74.769659 
L 177.059489 75.942028 
L 177.006081 77.114396 
L 176.950882 78.286764 
L 176.895997 79.459132 
L 176.84349 80.6315 
L 176.795334 81.803868 
L 176.75339 82.976236 
L 176.719405 84.148604 
L 176.695035 85.320972 
L 176.68188 86.493341 
L 176.681531 87.665709 
L 176.695625 88.838077 
L 176.725887 90.010445 
L 176.77418 91.182813 
L 176.842529 92.355181 
L 176.933137 93.527549 
L 177.048372 94.699917 
L 177.190746 95.872285 
L 177.362865 97.044653 
L 177.567367 98.217022 
L 177.806837 99.38939 
L 178.08372 100.561758 
L 178.400214 101.734126 
L 178.758168 102.906494 
L 179.15897 104.078862 
L 179.603451 105.25123 
L 180.091784 106.423598 
L 180.623405 107.595966 
L 181.196941 108.768335 
L 181.810167 109.940703 
L 182.459974 111.113071 
L 183.142367 112.285439 
L 183.852489 113.457807 
L 184.584664 114.630175 
L 185.332478 115.802543 
L 186.088878 116.974911 
L 186.846299 118.147279 
L 187.596821 119.319648 
L 188.332341 120.492016 
L 189.044765 121.664384 
L 189.726213 122.836752 
L 190.369228 124.00912 
L 190.966985 125.181488 
L 191.513474 126.353856 
L 192.003674 127.526224 
L 192.433675 128.698592 
L 192.800761 129.870961 
L 193.103442 131.043329 
L 193.341422 132.215697 
L 193.515515 133.388065 
L 193.627511 134.560433 
L 193.68 135.732801 
L 193.676171 136.905169 
L 193.619607 138.077537 
L 193.514083 139.249905 
L 193.3634 140.422273 
L 193.171249 141.594642 
L 192.941137 142.76701 
L 192.676352 143.939378 
L 192.379995 145.111746 
L 192.055037 146.284114 
L 191.704411 147.456482 
L 191.331116 148.62885 
L 190.938303 149.801218 
L 190.52934 150.973586 
L 190.107832 152.145955 
L 189.67759 153.318323 
L 189.242546 154.490691 
L 188.806617 155.663059 
L 188.373537 156.835427 
L 187.946666 158.007795 
L 187.528801 159.180163 
L 187.122015 160.352531 
L 186.727544 161.524899 
L 186.345731 162.697268 
L 185.976047 163.869636 
L 185.61718 165.042004 
L 185.26719 166.214372 
L 184.923713 167.38674 
L 184.584194 168.559108 
L 184.246117 169.731476 
L 183.90723 170.903844 
L 183.56572 172.076212 
L 183.220342 173.24858 
L 182.870493 174.420949 
L 182.51622 175.593317 
L 182.158184 176.765685 
L 181.797584 177.938053 
L 181.436051 179.110421 
L 181.075529 180.282789 
L 180.718169 181.455157 
L 180.366213 182.627525 
L 180.021911 183.799893 
L 179.687445 184.972262 
L 179.687445 184.972262 
z
" clip-path="url(#pda70744584)" style="fill: none; stroke: #000000; stroke-opacity: 0.3"/>
   </g>
   <g id="FillBetweenPolyCollection_11">
    <path d="M 178.192974 225.584141 
L 174.607026 225.584141 
L 174.388912 223.715477 
L 174.150303 221.846813 
L 173.88747 219.978149 
L 173.596411 218.109485 
L 173.273247 216.240821 
L 172.914704 214.372157 
L 172.518609 212.503493 
L 172.084363 210.634829 
L 171.613313 208.766165 
L 171.10896 206.897501 
L 170.576973 205.028837 
L 170.024964 203.160173 
L 169.462047 201.291509 
L 168.898205 199.422845 
L 168.343526 197.554181 
L 167.807392 195.685517 
L 167.297699 193.816853 
L 166.820216 191.948189 
L 166.378138 190.079525 
L 165.971894 188.210861 
L 165.599221 186.342197 
L 165.255501 184.473533 
L 164.934312 182.604869 
L 164.628119 180.736205 
L 164.329039 178.867541 
L 164.029585 176.998877 
L 163.723329 175.130213 
L 163.405408 173.261549 
L 163.072862 171.392885 
L 162.724783 169.524221 
L 162.362298 167.655557 
L 161.988416 165.786893 
L 161.607794 163.918229 
L 161.226456 162.049565 
L 160.851518 160.180901 
L 160.490933 158.312237 
L 160.153279 156.443573 
L 159.847574 154.57491 
L 159.583096 152.706246 
L 159.369196 150.837582 
L 159.21505 148.968918 
L 159.129363 147.100254 
L 159.12 145.23159 
L 159.193571 143.362926 
L 159.355001 141.494262 
L 159.607126 139.625598 
L 159.950372 137.756934 
L 160.382556 135.88827 
L 160.898849 134.019606 
L 161.491911 132.150942 
L 162.152189 130.282278 
L 162.868367 128.413614 
L 163.627895 126.54495 
L 164.417583 124.676286 
L 165.224172 122.807622 
L 166.034859 120.938958 
L 166.837739 119.070294 
L 167.622129 117.20163 
L 168.378793 115.332966 
L 169.10006 113.464302 
L 169.779855 111.595638 
L 170.413669 109.726974 
L 170.998486 107.85831 
L 171.532677 105.989646 
L 172.015887 104.120982 
L 172.448901 102.252318 
L 172.833511 100.383654 
L 173.172366 98.51499 
L 173.46881 96.646326 
L 173.726713 94.777662 
L 173.950279 92.908998 
L 174.143856 91.040334 
L 174.311749 89.17167 
L 174.458033 87.303006 
L 174.586407 85.434342 
L 174.700069 83.565678 
L 174.80164 81.697014 
L 174.893135 79.82835 
L 174.975985 77.959686 
L 175.051103 76.091022 
L 175.118986 74.222358 
L 175.179841 72.353694 
L 175.233725 70.48503 
L 175.280677 68.616366 
L 175.32083 66.747702 
L 175.354504 64.879038 
L 175.382253 63.010374 
L 175.404886 61.14171 
L 175.423449 59.273046 
L 175.439181 57.404382 
L 175.45345 55.535718 
L 175.467675 53.667054 
L 175.483245 51.79839 
L 175.501443 49.929726 
L 175.523368 48.061062 
L 175.549879 46.192398 
L 175.581545 44.323734 
L 175.618614 42.45507 
L 175.661001 40.586406 
L 177.138999 40.586406 
L 177.138999 40.586406 
L 177.181386 42.45507 
L 177.218455 44.323734 
L 177.250121 46.192398 
L 177.276632 48.061062 
L 177.298557 49.929726 
L 177.316755 51.79839 
L 177.332325 53.667054 
L 177.34655 55.535718 
L 177.360819 57.404382 
L 177.376551 59.273046 
L 177.395114 61.14171 
L 177.417747 63.010374 
L 177.445496 64.879038 
L 177.47917 66.747702 
L 177.519323 68.616366 
L 177.566275 70.48503 
L 177.620159 72.353694 
L 177.681014 74.222358 
L 177.748897 76.091022 
L 177.824015 77.959686 
L 177.906865 79.82835 
L 177.99836 81.697014 
L 178.099931 83.565678 
L 178.213593 85.434342 
L 178.341967 87.303006 
L 178.488251 89.17167 
L 178.656144 91.040334 
L 178.849721 92.908998 
L 179.073287 94.777662 
L 179.33119 96.646326 
L 179.627634 98.51499 
L 179.966489 100.383654 
L 180.351099 102.252318 
L 180.784113 104.120982 
L 181.267323 105.989646 
L 181.801514 107.85831 
L 182.386331 109.726974 
L 183.020145 111.595638 
L 183.69994 113.464302 
L 184.421207 115.332966 
L 185.177871 117.20163 
L 185.962261 119.070294 
L 186.765141 120.938958 
L 187.575828 122.807622 
L 188.382417 124.676286 
L 189.172105 126.54495 
L 189.931633 128.413614 
L 190.647811 130.282278 
L 191.308089 132.150942 
L 191.901151 134.019606 
L 192.417444 135.88827 
L 192.849628 137.756934 
L 193.192874 139.625598 
L 193.444999 141.494262 
L 193.606429 143.362926 
L 193.68 145.23159 
L 193.670637 147.100254 
L 193.58495 148.968918 
L 193.430804 150.837582 
L 193.216904 152.706246 
L 192.952426 154.57491 
L 192.646721 156.443573 
L 192.309067 158.312237 
L 191.948482 160.180901 
L 191.573544 162.049565 
L 191.192206 163.918229 
L 190.811584 165.786893 
L 190.437702 167.655557 
L 190.075217 169.524221 
L 189.727138 171.392885 
L 189.394592 173.261549 
L 189.076671 175.130213 
L 188.770415 176.998877 
L 188.470961 178.867541 
L 188.171881 180.736205 
L 187.865688 182.604869 
L 187.544499 184.473533 
L 187.200779 186.342197 
L 186.828106 188.210861 
L 186.421862 190.079525 
L 185.979784 191.948189 
L 185.502301 193.816853 
L 184.992608 195.685517 
L 184.456474 197.554181 
L 183.901795 199.422845 
L 183.337953 201.291509 
L 182.775036 203.160173 
L 182.223027 205.028837 
L 181.69104 206.897501 
L 181.186687 208.766165 
L 180.715637 210.634829 
L 180.281391 212.503493 
L 179.885296 214.372157 
L 179.526753 216.240821 
L 179.203589 218.109485 
L 178.91253 219.978149 
L 178.649697 221.846813 
L 178.411088 223.715477 
L 178.192974 225.584141 
L 178.192974 225.584141 
z
" clip-path="url(#pda70744584)" style="fill: none; stroke: #000000; stroke-opacity: 0.3"/>
   </g>
   <g id="FillBetweenPolyCollection_12">
    <path d="M 179.723066 212.518326 
L 173.076934 212.518326 
L 172.865037 211.513336 
L 172.646907 210.508346 
L 172.422415 209.503356 
L 172.191451 208.498365 
L 171.953954 207.493375 
L 171.70994 206.488385 
L 171.459532 205.483395 
L 171.202988 204.478405 
L 170.940721 203.473414 
L 170.673318 202.468424 
L 170.401544 201.463434 
L 170.126344 200.458444 
L 169.84883 199.453454 
L 169.570257 198.448463 
L 169.291993 197.443473 
L 169.015475 196.438483 
L 168.74216 195.433493 
L 168.473473 194.428502 
L 168.210743 193.423512 
L 167.955153 192.418522 
L 167.707675 191.413532 
L 167.469031 190.408542 
L 167.239644 189.403551 
L 167.019616 188.398561 
L 166.808706 187.393571 
L 166.606335 186.388581 
L 166.411594 185.383591 
L 166.223276 184.3786 
L 166.039921 183.37361 
L 165.859866 182.36862 
L 165.681312 181.36363 
L 165.5024 180.358639 
L 165.321279 179.353649 
L 165.136188 178.348659 
L 164.945528 177.343669 
L 164.747922 176.338679 
L 164.542281 175.333688 
L 164.327841 174.328698 
L 164.104196 173.323708 
L 163.871317 172.318718 
L 163.62955 171.313728 
L 163.379604 170.308737 
L 163.122524 169.303747 
L 162.859655 168.298757 
L 162.592592 167.293767 
L 162.32313 166.288776 
L 162.053204 165.283786 
L 161.784837 164.278796 
L 161.52008 163.273806 
L 161.26097 162.268816 
L 161.009481 161.263825 
L 160.767493 160.258835 
L 160.53677 159.253845 
L 160.318944 158.248855 
L 160.115506 157.243865 
L 159.927816 156.238874 
L 159.757105 155.233884 
L 159.604493 154.228894 
L 159.471002 153.223904 
L 159.357572 152.218914 
L 159.265079 151.213923 
L 159.194338 150.208933 
L 159.146114 149.203943 
L 159.121118 148.198953 
L 159.12 147.193962 
L 159.143337 146.188972 
L 159.191613 145.183982 
L 159.265198 144.178992 
L 159.364325 143.174002 
L 159.489064 142.169011 
L 159.639306 141.164021 
L 159.81474 140.159031 
L 160.014848 139.154041 
L 160.238901 138.149051 
L 160.485963 137.14406 
L 160.754904 136.13907 
L 161.044426 135.13408 
L 161.35309 134.12909 
L 161.679352 133.124099 
L 162.021601 132.119109 
L 162.378199 131.114119 
L 162.747524 130.109129 
L 163.128001 129.104139 
L 163.518136 128.099148 
L 163.916542 127.094158 
L 164.321949 126.089168 
L 164.733217 125.084178 
L 165.14933 124.079188 
L 165.569387 123.074197 
L 165.992583 122.069207 
L 166.418183 121.064217 
L 166.845497 120.059227 
L 167.27385 119.054236 
L 167.702548 118.049246 
L 168.130854 117.044256 
L 168.557963 116.039266 
L 168.982987 115.034276 
L 169.404939 114.029285 
L 169.822738 113.024295 
L 182.977262 113.024295 
L 182.977262 113.024295 
L 183.395061 114.029285 
L 183.817013 115.034276 
L 184.242037 116.039266 
L 184.669146 117.044256 
L 185.097452 118.049246 
L 185.52615 119.054236 
L 185.954503 120.059227 
L 186.381817 121.064217 
L 186.807417 122.069207 
L 187.230613 123.074197 
L 187.65067 124.079188 
L 188.066783 125.084178 
L 188.478051 126.089168 
L 188.883458 127.094158 
L 189.281864 128.099148 
L 189.671999 129.104139 
L 190.052476 130.109129 
L 190.421801 131.114119 
L 190.778399 132.119109 
L 191.120648 133.124099 
L 191.44691 134.12909 
L 191.755574 135.13408 
L 192.045096 136.13907 
L 192.314037 137.14406 
L 192.561099 138.149051 
L 192.785152 139.154041 
L 192.98526 140.159031 
L 193.160694 141.164021 
L 193.310936 142.169011 
L 193.435675 143.174002 
L 193.534802 144.178992 
L 193.608387 145.183982 
L 193.656663 146.188972 
L 193.68 147.193962 
L 193.678882 148.198953 
L 193.653886 149.203943 
L 193.605662 150.208933 
L 193.534921 151.213923 
L 193.442428 152.218914 
L 193.328998 153.223904 
L 193.195507 154.228894 
L 193.042895 155.233884 
L 192.872184 156.238874 
L 192.684494 157.243865 
L 192.481056 158.248855 
L 192.26323 159.253845 
L 192.032507 160.258835 
L 191.790519 161.263825 
L 191.53903 162.268816 
L 191.27992 163.273806 
L 191.015163 164.278796 
L 190.746796 165.283786 
L 190.47687 166.288776 
L 190.207408 167.293767 
L 189.940345 168.298757 
L 189.677476 169.303747 
L 189.420396 170.308737 
L 189.17045 171.313728 
L 188.928683 172.318718 
L 188.695804 173.323708 
L 188.472159 174.328698 
L 188.257719 175.333688 
L 188.052078 176.338679 
L 187.854472 177.343669 
L 187.663812 178.348659 
L 187.478721 179.353649 
L 187.2976 180.358639 
L 187.118688 181.36363 
L 186.940134 182.36862 
L 186.760079 183.37361 
L 186.576724 184.3786 
L 186.388406 185.383591 
L 186.193665 186.388581 
L 185.991294 187.393571 
L 185.780384 188.398561 
L 185.560356 189.403551 
L 185.330969 190.408542 
L 185.092325 191.413532 
L 184.844847 192.418522 
L 184.589257 193.423512 
L 184.326527 194.428502 
L 184.05784 195.433493 
L 183.784525 196.438483 
L 183.508007 197.443473 
L 183.229743 198.448463 
L 182.95117 199.453454 
L 182.673656 200.458444 
L 182.398456 201.463434 
L 182.126682 202.468424 
L 181.859279 203.473414 
L 181.597012 204.478405 
L 181.340468 205.483395 
L 181.09006 206.488385 
L 180.846046 207.493375 
L 180.608549 208.498365 
L 180.377585 209.503356 
L 180.153093 210.508346 
L 179.934963 211.513336 
L 179.723066 212.518326 
L 179.723066 212.518326 
z
" clip-path="url(#pda70744584)" style="fill: none; stroke: #000000; stroke-opacity: 0.3"/>
   </g>
   <g id="FillBetweenPolyCollection_13">
    <path d="M 177.344759 210.345257 
L 175.455241 210.345257 
L 175.345988 208.864224 
L 175.230737 207.383191 
L 175.109118 205.902158 
L 174.980795 204.421125 
L 174.84559 202.940092 
L 174.703597 201.459059 
L 174.555274 199.978026 
L 174.401489 198.496993 
L 174.243495 197.01596 
L 174.082827 195.534927 
L 173.921122 194.053894 
L 173.759858 192.572861 
L 173.600053 191.091828 
L 173.441931 189.610795 
L 173.284622 188.129762 
L 173.125912 186.648729 
L 172.962099 185.167696 
L 172.787979 183.686663 
L 172.596994 182.20563 
L 172.381522 180.724597 
L 172.133332 179.243564 
L 171.844145 177.762531 
L 171.50628 176.281498 
L 171.113334 174.800465 
L 170.66082 173.319432 
L 170.146724 171.838399 
L 169.571908 170.357366 
L 168.940315 168.876333 
L 168.258932 167.3953 
L 167.537508 165.914267 
L 166.788027 164.433234 
L 166.023976 162.952201 
L 165.259484 161.471168 
L 164.508412 159.990135 
L 163.783499 158.509102 
L 163.09566 157.028069 
L 162.453521 155.547036 
L 161.863238 154.066003 
L 161.328607 152.58497 
L 160.851443 151.103937 
L 160.432141 149.622904 
L 160.070336 148.141871 
L 159.765541 146.660838 
L 159.51767 145.179805 
L 159.327374 143.698772 
L 159.196138 142.217739 
L 159.126155 140.736706 
L 159.12 139.255673 
L 159.180196 137.77464 
L 159.308726 136.293607 
L 159.50659 134.812574 
L 159.773469 133.331541 
L 160.107528 131.850508 
L 160.505376 130.369475 
L 160.962161 128.888442 
L 161.47178 127.407409 
L 162.027135 125.926376 
L 162.620421 124.445343 
L 163.243404 122.96431 
L 163.887677 121.483277 
L 164.544893 120.002244 
L 165.206993 118.521211 
L 165.866432 117.040178 
L 166.516413 115.559145 
L 167.151137 114.078112 
L 167.766018 112.597079 
L 168.357868 111.116046 
L 168.924982 109.635013 
L 169.46711 108.15398 
L 169.985281 106.672947 
L 170.481494 105.191914 
L 170.958289 103.710881 
L 171.41825 102.229848 
L 171.863518 100.748815 
L 172.295362 99.267782 
L 172.713882 97.786749 
L 173.117885 96.305716 
L 173.504943 94.824683 
L 173.871623 93.34365 
L 174.213858 91.862617 
L 174.52738 90.381584 
L 174.808192 88.900551 
L 175.05298 87.419518 
L 175.259462 85.938485 
L 175.426619 84.457452 
L 175.554811 82.976419 
L 175.645783 81.495386 
L 175.702581 80.014353 
L 175.729386 78.53332 
L 175.731293 77.052287 
L 175.714048 75.571254 
L 175.683758 74.090221 
L 175.646579 72.609188 
L 175.608403 71.128155 
L 175.574557 69.647122 
L 175.549526 68.166089 
L 175.536734 66.685056 
L 175.538396 65.204023 
L 175.555456 63.72299 
L 177.244544 63.72299 
L 177.244544 63.72299 
L 177.261604 65.204023 
L 177.263266 66.685056 
L 177.250474 68.166089 
L 177.225443 69.647122 
L 177.191597 71.128155 
L 177.153421 72.609188 
L 177.116242 74.090221 
L 177.085952 75.571254 
L 177.068707 77.052287 
L 177.070614 78.53332 
L 177.097419 80.014353 
L 177.154217 81.495386 
L 177.245189 82.976419 
L 177.373381 84.457452 
L 177.540538 85.938485 
L 177.74702 87.419518 
L 177.991808 88.900551 
L 178.27262 90.381584 
L 178.586142 91.862617 
L 178.928377 93.34365 
L 179.295057 94.824683 
L 179.682115 96.305716 
L 180.086118 97.786749 
L 180.504638 99.267782 
L 180.936482 100.748815 
L 181.38175 102.229848 
L 181.841711 103.710881 
L 182.318506 105.191914 
L 182.814719 106.672947 
L 183.33289 108.15398 
L 183.875018 109.635013 
L 184.442132 111.116046 
L 185.033982 112.597079 
L 185.648863 114.078112 
L 186.283587 115.559145 
L 186.933568 117.040178 
L 187.593007 118.521211 
L 188.255107 120.002244 
L 188.912323 121.483277 
L 189.556596 122.96431 
L 190.179579 124.445343 
L 190.772865 125.926376 
L 191.32822 127.407409 
L 191.837839 128.888442 
L 192.294624 130.369475 
L 192.692472 131.850508 
L 193.026531 133.331541 
L 193.29341 134.812574 
L 193.491274 136.293607 
L 193.619804 137.77464 
L 193.68 139.255673 
L 193.673845 140.736706 
L 193.603862 142.217739 
L 193.472626 143.698772 
L 193.28233 145.179805 
L 193.034459 146.660838 
L 192.729664 148.141871 
L 192.367859 149.622904 
L 191.948557 151.103937 
L 191.471393 152.58497 
L 190.936762 154.066003 
L 190.346479 155.547036 
L 189.70434 157.028069 
L 189.016501 158.509102 
L 188.291588 159.990135 
L 187.540516 161.471168 
L 186.776024 162.952201 
L 186.011973 164.433234 
L 185.262492 165.914267 
L 184.541068 167.3953 
L 183.859685 168.876333 
L 183.228092 170.357366 
L 182.653276 171.838399 
L 182.13918 173.319432 
L 181.686666 174.800465 
L 181.29372 176.281498 
L 180.955855 177.762531 
L 180.666668 179.243564 
L 180.418478 180.724597 
L 180.203006 182.20563 
L 180.012021 183.686663 
L 179.837901 185.167696 
L 179.674088 186.648729 
L 179.515378 188.129762 
L 179.358069 189.610795 
L 179.199947 191.091828 
L 179.040142 192.572861 
L 178.878878 194.053894 
L 178.717173 195.534927 
L 178.556505 197.01596 
L 178.398511 198.496993 
L 178.244726 199.978026 
L 178.096403 201.459059 
L 177.95441 202.940092 
L 177.819205 204.421125 
L 177.690882 205.902158 
L 177.569263 207.383191 
L 177.454012 208.864224 
L 177.344759 210.345257 
L 177.344759 210.345257 
z
" clip-path="url(#pda70744584)" style="fill: none; stroke: #000000; stroke-opacity: 0.3"/>
   </g>
   <g id="matplotlib.axis_1">
    <g id="xtick_1">
     <g id="line2d_1">
      <defs>
       <path id="m0420844caa" d="M 0 0 
L 0 3.5 
" style="stroke: #000000; stroke-width: 0.8"/>
      </defs>
      <g>
       <use xlink:href="#m0420844caa" x="61.2" y="291.6" style="stroke: #000000; stroke-width: 0.8"/>
      </g>
     </g>
     <g id="text_1">
      <text style="font-size: 10px; font-family: 'DejaVu Sans', 'Bitstream Vera Sans', 'Computer Modern Sans Serif', 'Lucida Grande', 'Verdana', 'Geneva', 'Lucid', 'Arial', 'Helvetica', 'Avant Garde', sans-serif; text-anchor: middle" x="61.2" y="306.198438" transform="rotate(-0 61.2 306.198438)">-0.3</text>
     </g>
    </g>
    <g id="xtick_2">
     <g id="line2d_2">
      <g>
       <use xlink:href="#m0420844caa" x="118.8" y="291.6" style="stroke: #000000; stroke-width: 0.8"/>
      </g>
     </g>
     <g id="text_2">
      <text style="font-size: 10px; font-family: 'DejaVu Sans', 'Bitstream Vera Sans', 'Computer Modern Sans Serif', 'Lucida Grande', 'Verdana', 'Geneva', 'Lucid', 'Arial', 'Helvetica', 'Avant Garde', sans-serif; text-anchor: middle" x="118.8" y="306.198438" transform="rotate(-0 118.8 306.198438)">0</text>
     </g>
    </g>
    <g id="xtick_3">
     <g id="line2d_3">
      <g>
       <use xlink:href="#m0420844caa" x="176.4" y="291.6" style="stroke: #000000; stroke-width: 0.8"/>
      </g>
     </g>
     <g id="text_3">
      <text style="font-size: 10px; font-family: 'DejaVu Sans', 'Bitstream Vera Sans', 'Computer Modern Sans Serif', 'Lucida Grande', 'Verdana', 'Geneva', 'Lucid', 'Arial', 'Helvetica', 'Avant Garde', sans-serif; text-anchor: middle" x="176.4" y="306.198438" transform="rotate(-0 176.4 306.198438)">+0.3</text>
     </g>
    </g>
   </g>
   <g id="matplotlib.axis_2">
    <g id="ytick_1">
     <g id="line2d_4">
      <defs>
       <path id="m40f67098bb" d="M 0 0 
L -3.5 0 
" style="stroke: #000000; stroke-width: 0.8"/>
      </defs>
      <g>
       <use xlink:href="#m40f67098bb" x="32.4" y="291.6" style="stroke: #000000; stroke-width: 0.8"/>
      </g>
     </g>
     <g id="text_4">
      <text style="font-size: 10px; font-family: 'DejaVu Sans', 'Bitstream Vera Sans', 'Computer Modern Sans Serif', 'Lucida Grande', 'Verdana', 'Geneva', 'Lucid', 'Arial', 'Helvetica', 'Avant Garde', sans-serif; text-anchor: end" x="25.4" y="295.399219" transform="rotate(-0 25.4 295.399219)">0.1</text>
     </g>
    </g>
    <g id="ytick_2">
     <g id="line2d_5">
      <g>
       <use xlink:href="#m40f67098bb" x="32.4" y="199.8" style="stroke: #000000; stroke-width: 0.8"/>
      </g>
     </g>
     <g id="text_5">
      <text style="font-size: 10px; font-family: 'DejaVu Sans', 'Bitstream Vera Sans', 'Computer Modern Sans Serif', 'Lucida Grande', 'Verdana', 'Geneva', 'Lucid', 'Arial', 'Helvetica', 'Avant Garde', sans-serif; text-anchor: end" x="25.4" y="203.599219" transform="rotate(-0 25.4 203.599219)">0.2</text>
     </g>
    </g>
    <g id="ytick_3">
     <g id="line2d_6">
      <g>
       <use xlink:href="#m40f67098bb" x="32.4" y="108" style="stroke: #000000; stroke-width: 0.8"/>
      </g>
     </g>
     <g id="text_6">
      <text style="font-size: 10px; font-family: 'DejaVu Sans', 'Bitstream Vera Sans', 'Computer Modern Sans Serif', 'Lucida Grande', 'Verdana', 'Geneva', 'Lucid', 'Arial', 'Helvetica', 'Avant Garde', sans-serif; text-anchor: end" x="25.4" y="111.799219" transform="rotate(-0 25.4 111.799219)">0.3</text>
     </g>
    </g>
    <g id="ytick_4">
     <g id="line2d_7">
      <g>
       <use xlink:href="#m40f67098bb" x="32.4" y="16.2" style="stroke: #000000; stroke-width: 0.8"/>
      </g>
     </g>
     <g id="text_7">
      <text style="font-size: 10px; font-family: 'DejaVu Sans', 'Bitstream Vera Sans', 'Computer Modern Sans Serif', 'Lucida Grande', 'Verdana', 'Geneva', 'Lucid', 'Arial', 'Helvetica', 'Avant Garde', sans-serif; text-anchor: end" x="25.4" y="19.999219" transform="rotate(-0 25.4 19.999219)">0.4</text>
     </g>
    </g>
    <g id="text_8">
     <!-- $E_{f}$ -->
     <g transform="translate(26.032438 160.27) rotate(-90)">
      <text>
       <tspan x="0" y="-0.796875" style="font-style: oblique; font-size: 14px; font-family: 'DejaVu Sans'">E</tspan>
       <tspan x="8.845703" y="1.5" style="font-style: oblique; font-size: 9.8px; font-family: 'DejaVu Sans'">f</tspan>
      </text>
     </g>
    </g>
   </g>
   <g id="line2d_8">
    <path d="M 61.2 269.568 
L 61.2 264.06 
" clip-path="url(#pda70744584)" style="fill: none; stroke: #000000; stroke-linecap: square"/>
   </g>
   <g id="line2d_9">
    <path d="M 61.2 269.568 
L 118.8 269.568 
" clip-path="url(#pda70744584)" style="fill: none; stroke: #000000; stroke-linecap: square"/>
   </g>
   <g id="line2d_10">
    <path d="M 118.8 269.568 
L 118.8 264.06 
" clip-path="url(#pda70744584)" style="fill: none; stroke: #000000; stroke-linecap: square"/>
   </g>
   <g id="line2d_11">
    <path d="M 61.2 255.798 
L 61.2 250.29 
" clip-path="url(#pda70744584)" style="fill: none; stroke: #000000; stroke-linecap: square"/>
   </g>
   <g id="line2d_12">
    <path d="M 61.2 255.798 
L 176.4 255.798 
" clip-path="url(#pda70744584)" style="fill: none; stroke: #000000; stroke-linecap: square"/>
   </g>
   <g id="line2d_13">
    <path d="M 176.4 255.798 
L 176.4 250.29 
" clip-path="url(#pda70744584)" style="fill: none; stroke: #000000; stroke-linecap: square"/>
   </g>
   <g id="line2d_14">
    <path d="M 118.8 242.028 
L 118.8 236.52 
" clip-path="url(#pda70744584)" style="fill: none; stroke: #000000; stroke-linecap: square"/>
   </g>
   <g id="line2d_15">
    <path d="M 118.8 242.028 
L 176.4 242.028 
" clip-path="url(#pda70744584)" style="fill: none; stroke: #000000; stroke-linecap: square"/>
   </g>
   <g id="line2d_16">
    <path d="M 176.4 242.028 
L 176.4 236.52 
" clip-path="url(#pda70744584)" style="fill: none; stroke: #000000; stroke-linecap: square"/>
   </g>
   <g id="patch_3">
    <path d="M 32.4 291.6 
L 32.4 16.2 
" style="fill: none; stroke: #000000; stroke-width: 0.8; stroke-linejoin: miter; stroke-linecap: square"/>
   </g>
   <g id="patch_4">
    <path d="M 205.2 291.6 
L 205.2 16.2 
" style="fill: none; stroke: #000000; stroke-width: 0.8; stroke-linejoin: miter; stroke-linecap: square"/>
   </g>
   <g id="patch_5">
    <path d="M 32.4 291.6 
L 205.2 291.6 
" style="fill: none; stroke: #000000; stroke-width: 0.8; stroke-linejoin: miter; stroke-linecap: square"/>
   </g>
   <g id="patch_6">
    <path d="M 32.4 16.2 
L 205.2 16.2 
" style="fill: none; stroke: #000000; stroke-width: 0.8; stroke-linejoin: miter; stroke-linecap: square"/>
   </g>
   <g id="text_9">
    <text style="font-weight: 700; font-size: 12px; font-family: 'DejaVu Sans', 'Bitstream Vera Sans', 'Computer Modern Sans Serif', 'Lucida Grande', 'Verdana', 'Geneva', 'Lucid', 'Arial', 'Helvetica', 'Avant Garde', sans-serif; text-anchor: middle" x="61.2" y="289.104375" transform="rotate(-0 61.2 289.104375)">#20</text>
   </g>
   <g id="text_10">
    <text style="font-weight: 700; font-size: 12px; font-family: 'DejaVu Sans', 'Bitstream Vera Sans', 'Computer Modern Sans Serif', 'Lucida Grande', 'Verdana', 'Geneva', 'Lucid', 'Arial', 'Helvetica', 'Avant Garde', sans-serif; text-anchor: middle" x="118.8" y="289.104375" transform="rotate(-0 118.8 289.104375)">#22</text>
   </g>
   <g id="text_11">
    <text style="font-weight: 700; font-size: 12px; font-family: 'DejaVu Sans', 'Bitstream Vera Sans', 'Computer Modern Sans Serif', 'Lucida Grande', 'Verdana', 'Geneva', 'Lucid', 'Arial', 'Helvetica', 'Avant Garde', sans-serif; text-anchor: middle" x="176.4" y="289.104375" transform="rotate(-0 176.4 289.104375)">#24</text>
   </g>
   <g id="text_12">
    <text style="font-size: 12px; font-family: 'DejaVu Sans', 'Bitstream Vera Sans', 'Computer Modern Sans Serif', 'Lucida Grande', 'Verdana', 'Geneva', 'Lucid', 'Arial', 'Helvetica', 'Avant Garde', sans-serif; text-anchor: middle" x="90" y="268.449375" transform="rotate(-0 90 268.449375)">**</text>
   </g>
   <g id="text_13">
    <text style="font-size: 12px; font-family: 'DejaVu Sans', 'Bitstream Vera Sans', 'Computer Modern Sans Serif', 'Lucida Grande', 'Verdana', 'Geneva', 'Lucid', 'Arial', 'Helvetica', 'Avant Garde', sans-serif; text-anchor: middle" x="118.8" y="254.679375" transform="rotate(-0 118.8 254.679375)">**</text>
   </g>
   <g id="text_14">
    <text style="font-size: 12px; font-family: 'DejaVu Sans', 'Bitstream Vera Sans', 'Computer Modern Sans Serif', 'Lucida Grande', 'Verdana', 'Geneva', 'Lucid', 'Arial', 'Helvetica', 'Avant Garde', sans-serif; text-anchor: middle" x="147.6" y="240.909375" transform="rotate(-0 147.6 240.909375)">ns</text>
   </g>
   <g id="line2d_17">
    <path d="M 32.4 169.77183 
L 205.2 169.77183 
" clip-path="url(#pda70744584)" style="fill: none; stroke-dasharray: 3.7,1.6; stroke-dashoffset: 0; stroke: #808080; stroke-opacity: 0.7"/>
   </g>
   <g id="line2d_18">
    <path d="M 32.4 169.77183 
L 205.2 169.77183 
" clip-path="url(#pda70744584)" style="fill: none; stroke-dasharray: 3.7,1.6; stroke-dashoffset: 0; stroke: #808080; stroke-opacity: 0.7"/>
   </g>
   <g id="line2d_19">
    <path d="M 32.4 145.832862 
L 205.2 145.832862 
" clip-path="url(#pda70744584)" style="fill: none; stroke-dasharray: 3.7,1.6; stroke-dashoffset: 0; stroke: #808080; stroke-opacity: 0.7"/>
   </g>
   <g id="line2d_20">
    <path d="M 32.4 145.832862 
L 205.2 145.832862 
" clip-path="url(#pda70744584)" style="fill: none; stroke-dasharray: 3.7,1.6; stroke-dashoffset: 0; stroke: #808080; stroke-opacity: 0.7"/>
   </g>
   <g id="line2d_21">
    <path d="M 32.4 145.516875 
L 205.2 145.516875 
" clip-path="url(#pda70744584)" style="fill: none; stroke-dasharray: 3.7,1.6; stroke-dashoffset: 0; stroke: #808080; stroke-opacity: 0.7"/>
   </g>
   <g id="LineCollection_1">
    <path d="M 61.2 176.5898 
L 61.2 162.95386 
" clip-path="url(#pda70744584)" style="fill: none; stroke: #000000; stroke-width: 2"/>
   </g>
   <g id="line2d_22">
    <defs>
     <path id="m1d0f0cae03" d="M 5 0 
L -5 -0 
" style="stroke: #000000; stroke-width: 2"/>
    </defs>
    <g clip-path="url(#pda70744584)">
     <use xlink:href="#m1d0f0cae03" x="61.2" y="176.5898" style="stroke: #000000; stroke-width: 2"/>
    </g>
   </g>
   <g id="line2d_23">
    <g clip-path="url(#pda70744584)">
     <use xlink:href="#m1d0f0cae03" x="61.2" y="162.95386" style="stroke: #000000; stroke-width: 2"/>
    </g>
   </g>
   <g id="LineCollection_2">
    <path d="M 118.8 148.916626 
L 118.8 142.749098 
" clip-path="url(#pda70744584)" style="fill: none; stroke: #000000; stroke-width: 2"/>
   </g>
   <g id="line2d_24">
    <g clip-path="url(#pda70744584)">
     <use xlink:href="#m1d0f0cae03" x="118.8" y="148.916626" style="stroke: #000000; stroke-width: 2"/>
    </g>
   </g>
   <g id="line2d_25">
    <g clip-path="url(#pda70744584)">
     <use xlink:href="#m1d0f0cae03" x="118.8" y="142.749098" style="stroke: #000000; stroke-width: 2"/>
    </g>
   </g>
   <g id="LineCollection_3">
    <path d="M 176.4 151.985913 
L 176.4 139.047838 
" clip-path="url(#pda70744584)" style="fill: none; stroke: #000000; stroke-width: 2"/>
   </g>
   <g id="line2d_26">
    <g clip-path="url(#pda70744584)">
     <use xlink:href="#m1d0f0cae03" x="176.4" y="151.985913" style="stroke: #000000; stroke-width: 2"/>
    </g>
   </g>
   <g id="line2d_27">
    <g clip-path="url(#pda70744584)">
     <use xlink:href="#m1d0f0cae03" x="176.4" y="139.047838" style="stroke: #000000; stroke-width: 2"/>
    </g>
   </g>
   <g id="line2d_28">
    <defs>
     <path id="m2c6181ec4f" d="M 0 4 
C 1.060812 4 2.078319 3.578535 2.828427 2.828427 
C 3.578535 2.078319 4 1.060812 4 0 
C 4 -1.060812 3.578535 -2.078319 2.828427 -2.828427 
C 2.078319 -3.578535 1.060812 -4 0 -4 
C -1.060812 -4 -2.078319 -3.578535 -2.828427 -2.828427 
C -3.578535 -2.078319 -4 -1.060812 -4 0 
C -4 1.060812 -3.578535 2.078319 -2.828427 2.828427 
C -2.078319 3.578535 -1.060812 4 0 4 
z
" style="stroke: #000000"/>
    </defs>
    <g clip-path="url(#pda70744584)">
     <use xlink:href="#m2c6181ec4f" x="61.2" y="169.77183" style="stroke: #000000"/>
    </g>
   </g>
   <g id="line2d_29">
    <g clip-path="url(#pda70744584)">
     <use xlink:href="#m2c6181ec4f" x="118.8" y="145.832862" style="stroke: #000000"/>
    </g>
   </g>
   <g id="line2d_30">
    <g clip-path="url(#pda70744584)">
     <use xlink:href="#m2c6181ec4f" x="176.4" y="145.516875" style="stroke: #000000"/>
    </g>
   </g>
  </g>
 </g>
 <defs>
  <clipPath id="pda70744584">
   <rect x="32.4" y="16.2" width="172.8" height="275.4"/>
  </clipPath>
 </defs>
</svg>
