<?xml version="1.0" encoding="utf-8" standalone="no"?>
<!DOCTYPE svg PUBLIC "-//W3C//DTD SVG 1.1//EN"
  "http://www.w3.org/Graphics/SVG/1.1/DTD/svg11.dtd">
<svg xmlns:xlink="http://www.w3.org/1999/xlink" width="216pt" height="324pt" viewBox="0 0 216 324" xmlns="http://www.w3.org/2000/svg" version="1.1">
 <metadata>
  <rdf:RDF xmlns:dc="http://purl.org/dc/elements/1.1/" xmlns:cc="http://creativecommons.org/ns#" xmlns:rdf="http://www.w3.org/1999/02/22-rdf-syntax-ns#">
   <cc:Work>
    <dc:type rdf:resource="http://purl.org/dc/dcmitype/StillImage"/>
    <dc:date>2025-12-08T20:10:02.048619</dc:date>
    <dc:format>image/svg+xml</dc:format>
    <dc:creator>
     <cc:Agent>
      <dc:title>Matplotlib v3.10.0, https://matplotlib.org/</dc:title>
     </cc:Agent>
    </dc:creator>
   </cc:Work>
  </rdf:RDF>
 </metadata>
 <defs>
  <style type="text/css">*{stroke-linejoin: round; stroke-linecap: butt}</style>
 </defs>
 <g id="figure_1">
  <g id="patch_1">
   <path d="M 0 324 
L 216 324 
L 216 0 
L 0 0 
z
" style="fill: #ffffff"/>
  </g>
  <g id="axes_1">
   <g id="patch_2">
    <path d="M 32.4 291.6 
L 205.2 291.6 
L 205.2 16.2 
L 32.4 16.2 
z
" style="fill: #ffffff"/>
   </g>
   <g id="FillBetweenPolyCollection_1">
    <path d="M 61.595713 238.897301 
L 55.165127 238.897301 
L 54.998415 237.706841 
L 54.829435 236.51638 
L 54.657995 235.32592 
L 54.483833 234.135459 
L 54.306628 232.944999 
L 54.126014 231.754538 
L 53.941599 230.564078 
L 53.752983 229.373617 
L 53.559776 228.183157 
L 53.361621 226.992696 
L 53.158212 225.802236 
L 52.949313 224.611775 
L 52.734769 223.421315 
L 52.514524 222.230854 
L 52.288622 221.040393 
L 52.057214 219.849933 
L 51.820553 218.659472 
L 51.578988 217.469012 
L 51.332955 216.278551 
L 51.082956 215.088091 
L 50.829545 213.89763 
L 50.573299 212.70717 
L 50.3148 211.516709 
L 50.054609 210.326249 
L 49.79324 209.135788 
L 49.531142 207.945328 
L 49.268677 206.754867 
L 49.006108 205.564407 
L 48.743588 204.373946 
L 48.481159 203.183485 
L 48.218751 201.993025 
L 47.956194 200.802564 
L 47.693231 199.612104 
L 47.429541 198.421643 
L 47.164758 197.231183 
L 46.898509 196.040722 
L 46.630435 194.850262 
L 46.360235 193.659801 
L 46.087688 192.469341 
L 45.81269 191.27888 
L 45.535277 190.08842 
L 45.255651 188.897959 
L 44.974192 187.707499 
L 44.691472 186.517038 
L 44.40825 185.326577 
L 44.125471 184.136117 
L 43.844251 182.945656 
L 43.56585 181.755196 
L 43.291647 180.564735 
L 43.023101 179.374275 
L 42.761711 178.183814 
L 42.508974 176.993354 
L 42.266338 175.802893 
L 42.035158 174.612433 
L 41.816656 173.421972 
L 41.611878 172.231512 
L 41.421669 171.041051 
L 41.246646 169.850591 
L 41.087186 168.66013 
L 40.943417 167.469669 
L 40.815232 166.279209 
L 40.702297 165.088748 
L 40.604085 163.898288 
L 40.519907 162.707827 
L 40.448959 161.517367 
L 40.390369 160.326906 
L 40.343255 159.136446 
L 40.306777 157.945985 
L 40.280192 156.755525 
L 40.262912 155.565064 
L 40.254545 154.374604 
L 40.25494 153.184143 
L 40.264213 151.993683 
L 40.282772 150.803222 
L 40.311322 149.612762 
L 40.350865 148.422301 
L 40.402678 147.23184 
L 40.468291 146.04138 
L 40.549443 144.850919 
L 40.648034 143.660459 
L 40.766068 142.469998 
L 40.905587 141.279538 
L 41.068603 140.089077 
L 41.257029 138.898617 
L 41.472607 137.708156 
L 41.716846 136.517696 
L 41.990953 135.327235 
L 42.295785 134.136775 
L 42.6318 132.946314 
L 42.999024 131.755854 
L 43.397026 130.565393 
L 43.824905 129.374932 
L 44.281298 128.184472 
L 44.764385 126.994011 
L 45.271921 125.803551 
L 45.801267 124.61309 
L 46.349444 123.42263 
L 46.913178 122.232169 
L 47.488969 121.041709 
L 69.271871 121.041709 
L 69.271871 121.041709 
L 69.847662 122.232169 
L 70.411396 123.42263 
L 70.959572 124.61309 
L 71.488919 125.803551 
L 71.996454 126.994011 
L 72.479541 128.184472 
L 72.935934 129.374932 
L 73.363814 130.565393 
L 73.761815 131.755854 
L 74.129039 132.946314 
L 74.465054 134.136775 
L 74.769886 135.327235 
L 75.043993 136.517696 
L 75.288232 137.708156 
L 75.503811 138.898617 
L 75.692236 140.089077 
L 75.855252 141.279538 
L 75.994771 142.469998 
L 76.112805 143.660459 
L 76.211396 144.850919 
L 76.292548 146.04138 
L 76.358161 147.23184 
L 76.409974 148.422301 
L 76.449517 149.612762 
L 76.478067 150.803222 
L 76.496626 151.993683 
L 76.505899 153.184143 
L 76.506294 154.374604 
L 76.497927 155.565064 
L 76.480647 156.755525 
L 76.454062 157.945985 
L 76.417584 159.136446 
L 76.37047 160.326906 
L 76.31188 161.517367 
L 76.240932 162.707827 
L 76.156755 163.898288 
L 76.058542 165.088748 
L 75.945608 166.279209 
L 75.817422 167.469669 
L 75.673654 168.66013 
L 75.514193 169.850591 
L 75.33917 171.041051 
L 75.148961 172.231512 
L 74.944183 173.421972 
L 74.725681 174.612433 
L 74.494501 175.802893 
L 74.251865 176.993354 
L 73.999128 178.183814 
L 73.737738 179.374275 
L 73.469192 180.564735 
L 73.194989 181.755196 
L 72.916588 182.945656 
L 72.635368 184.136117 
L 72.35259 185.326577 
L 72.069368 186.517038 
L 71.786647 187.707499 
L 71.505188 188.897959 
L 71.225562 190.08842 
L 70.948149 191.27888 
L 70.673151 192.469341 
L 70.400604 193.659801 
L 70.130404 194.850262 
L 69.862331 196.040722 
L 69.596081 197.231183 
L 69.331298 198.421643 
L 69.067608 199.612104 
L 68.804645 200.802564 
L 68.542089 201.993025 
L 68.279681 203.183485 
L 68.017251 204.373946 
L 67.754731 205.564407 
L 67.492162 206.754867 
L 67.229697 207.945328 
L 66.967599 209.135788 
L 66.70623 210.326249 
L 66.446039 211.516709 
L 66.18754 212.70717 
L 65.931294 213.89763 
L 65.677883 215.088091 
L 65.427884 216.278551 
L 65.181851 217.469012 
L 64.940287 218.659472 
L 64.703625 219.849933 
L 64.472217 221.040393 
L 64.246315 222.230854 
L 64.02607 223.421315 
L 63.811527 224.611775 
L 63.602627 225.802236 
L 63.399219 226.992696 
L 63.201063 228.183157 
L 63.007856 229.373617 
L 62.81924 230.564078 
L 62.634825 231.754538 
L 62.454211 232.944999 
L 62.277006 234.135459 
L 62.102844 235.32592 
L 61.931404 236.51638 
L 61.762424 237.706841 
L 61.595713 238.897301 
L 61.595713 238.897301 
z
" clip-path="url(#p28c71a3658)" style="fill: none; stroke: #000000; stroke-opacity: 0.3"/>
   </g>
   <g id="FillBetweenPolyCollection_2">
    <path d="M 64.600521 219.540021 
L 52.160319 219.540021 
L 51.829798 218.575805 
L 51.50127 217.611589 
L 51.175569 216.647373 
L 50.853428 215.683157 
L 50.535496 214.718942 
L 50.222354 213.754726 
L 49.914543 212.79051 
L 49.612582 211.826294 
L 49.316997 210.862079 
L 49.028342 209.897863 
L 48.747217 208.933647 
L 48.474278 207.969431 
L 48.210248 207.005216 
L 47.955906 206.041 
L 47.712085 205.076784 
L 47.479644 204.112568 
L 47.259441 203.148352 
L 47.052303 202.184137 
L 46.858978 201.219921 
L 46.680089 200.255705 
L 46.516095 199.291489 
L 46.367235 198.327274 
L 46.23349 197.363058 
L 46.114542 196.398842 
L 46.009748 195.434626 
L 45.918114 194.470411 
L 45.83829 193.506195 
L 45.768575 192.541979 
L 45.70693 191.577763 
L 45.651014 190.613548 
L 45.598228 189.649332 
L 45.54577 188.685116 
L 45.490707 187.7209 
L 45.430052 186.756684 
L 45.360849 185.792469 
L 45.280262 184.828253 
L 45.18567 183.864037 
L 45.074752 182.899821 
L 44.945575 181.935606 
L 44.796671 180.97139 
L 44.627106 180.007174 
L 44.43653 179.042958 
L 44.225222 178.078743 
L 43.994108 177.114527 
L 43.744766 176.150311 
L 43.479409 175.186095 
L 43.200858 174.221879 
L 42.91248 173.257664 
L 42.618128 172.293448 
L 42.322053 171.329232 
L 42.02881 170.365016 
L 41.743149 169.400801 
L 41.46991 168.436585 
L 41.213905 167.472369 
L 40.979806 166.508153 
L 40.772041 165.543938 
L 40.594692 164.579722 
L 40.451408 163.615506 
L 40.345335 162.65129 
L 40.279054 161.687075 
L 40.254545 160.722859 
L 40.273162 159.758643 
L 40.335625 158.794427 
L 40.442038 157.830211 
L 40.591908 156.865996 
L 40.784189 155.90178 
L 41.017328 154.937564 
L 41.289324 153.973348 
L 41.597791 153.009133 
L 41.940022 152.044917 
L 42.313055 151.080701 
L 42.71374 150.116485 
L 43.138794 149.15227 
L 43.584865 148.188054 
L 44.048577 147.223838 
L 44.526579 146.259622 
L 45.015584 145.295407 
L 45.512407 144.331191 
L 46.013991 143.366975 
L 46.517439 142.402759 
L 47.020031 141.438543 
L 47.519249 140.474328 
L 48.012787 139.510112 
L 48.498574 138.545896 
L 48.974777 137.58168 
L 49.439813 136.617465 
L 49.892355 135.653249 
L 50.33133 134.689033 
L 50.755919 133.724817 
L 51.165548 132.760602 
L 51.559878 131.796386 
L 51.938784 130.83217 
L 52.302341 129.867954 
L 52.650792 128.903738 
L 52.984524 127.939523 
L 53.304038 126.975307 
L 53.609914 126.011091 
L 53.90278 125.046875 
L 54.183285 124.08266 
L 62.577554 124.08266 
L 62.577554 124.08266 
L 62.858059 125.046875 
L 63.150925 126.011091 
L 63.456801 126.975307 
L 63.776315 127.939523 
L 64.110047 128.903738 
L 64.458498 129.867954 
L 64.822055 130.83217 
L 65.200961 131.796386 
L 65.595291 132.760602 
L 66.00492 133.724817 
L 66.429509 134.689033 
L 66.868484 135.653249 
L 67.321026 136.617465 
L 67.786063 137.58168 
L 68.262265 138.545896 
L 68.748052 139.510112 
L 69.241591 140.474328 
L 69.740808 141.438543 
L 70.2434 142.402759 
L 70.746848 143.366975 
L 71.248432 144.331191 
L 71.745255 145.295407 
L 72.23426 146.259622 
L 72.712262 147.223838 
L 73.175974 148.188054 
L 73.622045 149.15227 
L 74.047099 150.116485 
L 74.447784 151.080701 
L 74.820818 152.044917 
L 75.163048 153.009133 
L 75.471515 153.973348 
L 75.743512 154.937564 
L 75.97665 155.90178 
L 76.168931 156.865996 
L 76.318802 157.830211 
L 76.425214 158.794427 
L 76.487678 159.758643 
L 76.506294 160.722859 
L 76.481785 161.687075 
L 76.415504 162.65129 
L 76.309431 163.615506 
L 76.166147 164.579722 
L 75.988798 165.543938 
L 75.781033 166.508153 
L 75.546934 167.472369 
L 75.290929 168.436585 
L 75.01769 169.400801 
L 74.732029 170.365016 
L 74.438786 171.329232 
L 74.142711 172.293448 
L 73.848359 173.257664 
L 73.559982 174.221879 
L 73.28143 175.186095 
L 73.016074 176.150311 
L 72.766731 177.114527 
L 72.535617 178.078743 
L 72.324309 179.042958 
L 72.133734 180.007174 
L 71.964168 180.97139 
L 71.815264 181.935606 
L 71.686087 182.899821 
L 71.575169 183.864037 
L 71.480577 184.828253 
L 71.399991 185.792469 
L 71.330787 186.756684 
L 71.270132 187.7209 
L 71.215069 188.685116 
L 71.162611 189.649332 
L 71.109825 190.613548 
L 71.053909 191.577763 
L 70.992265 192.541979 
L 70.922549 193.506195 
L 70.842726 194.470411 
L 70.751092 195.434626 
L 70.646297 196.398842 
L 70.52735 197.363058 
L 70.393604 198.327274 
L 70.244744 199.291489 
L 70.08075 200.255705 
L 69.901862 201.219921 
L 69.708536 202.184137 
L 69.501398 203.148352 
L 69.281196 204.112568 
L 69.048754 205.076784 
L 68.804933 206.041 
L 68.550592 207.005216 
L 68.286561 207.969431 
L 68.013622 208.933647 
L 67.732497 209.897863 
L 67.443842 210.862079 
L 67.148258 211.826294 
L 66.846296 212.79051 
L 66.538485 213.754726 
L 66.225343 214.718942 
L 65.907411 215.683157 
L 65.58527 216.647373 
L 65.259569 217.611589 
L 64.931041 218.575805 
L 64.600521 219.540021 
L 64.600521 219.540021 
z
" clip-path="url(#p28c71a3658)" style="fill: none; stroke: #000000; stroke-opacity: 0.3"/>
   </g>
   <g id="FillBetweenPolyCollection_3">
    <path d="M 59.953179 244.063909 
L 56.80766 244.063909 
L 56.734692 242.865038 
L 56.660507 241.666167 
L 56.583979 240.467296 
L 56.503859 239.268425 
L 56.418829 238.069554 
L 56.327555 236.870683 
L 56.228745 235.671811 
L 56.121198 234.47294 
L 56.00384 233.274069 
L 55.875752 232.075198 
L 55.736183 230.876327 
L 55.584539 229.677456 
L 55.420361 228.478585 
L 55.243286 227.279714 
L 55.052992 226.080843 
L 54.849142 224.881971 
L 54.631317 223.6831 
L 54.398958 222.484229 
L 54.151315 221.285358 
L 53.887414 220.086487 
L 53.606044 218.887616 
L 53.30577 217.688745 
L 52.984971 216.489874 
L 52.641912 215.291003 
L 52.274839 214.092132 
L 51.882101 212.89326 
L 51.462286 211.694389 
L 51.01437 210.495518 
L 50.537867 209.296647 
L 50.032972 208.097776 
L 49.500684 206.898905 
L 48.942901 205.700034 
L 48.362483 204.501163 
L 47.763263 203.302292 
L 47.150017 202.103421 
L 46.528375 200.904549 
L 45.904697 199.705678 
L 45.28588 198.506807 
L 44.679151 197.307936 
L 44.091809 196.109065 
L 43.530965 194.910194 
L 43.003271 193.711323 
L 42.51466 192.512452 
L 42.070118 191.313581 
L 41.673491 190.11471 
L 41.327339 188.915838 
L 41.032859 187.716967 
L 40.789868 186.518096 
L 40.596855 185.319225 
L 40.451093 184.120354 
L 40.348819 182.921483 
L 40.285447 181.722612 
L 40.255833 180.523741 
L 40.254545 179.32487 
L 40.276143 178.125999 
L 40.315443 176.927127 
L 40.367759 175.728256 
L 40.429091 174.529385 
L 40.496281 173.330514 
L 40.567092 172.131643 
L 40.640245 170.932772 
L 40.715388 169.733901 
L 40.793024 168.53503 
L 40.874386 167.336159 
L 40.961293 166.137288 
L 41.055977 164.938416 
L 41.160914 163.739545 
L 41.278652 162.540674 
L 41.411663 161.341803 
L 41.562218 160.142932 
L 41.732285 158.944061 
L 41.92347 157.74519 
L 42.136984 156.546319 
L 42.373632 155.347448 
L 42.63384 154.148576 
L 42.917684 152.949705 
L 43.224942 151.750834 
L 43.555138 150.551963 
L 43.907592 149.353092 
L 44.281462 148.154221 
L 44.675771 146.95535 
L 45.089425 145.756479 
L 45.521223 144.557608 
L 45.969853 143.358737 
L 46.43388 142.159865 
L 46.911734 140.960994 
L 47.401696 139.762123 
L 47.901886 138.563252 
L 48.41026 137.364381 
L 48.924611 136.16551 
L 49.442588 134.966639 
L 49.961713 133.767768 
L 50.479418 132.568897 
L 50.993085 131.370026 
L 51.500089 130.171154 
L 51.997851 128.972283 
L 52.483886 127.773412 
L 52.955851 126.574541 
L 53.411593 125.37567 
L 63.349247 125.37567 
L 63.349247 125.37567 
L 63.804988 126.574541 
L 64.276954 127.773412 
L 64.762989 128.972283 
L 65.26075 130.171154 
L 65.767754 131.370026 
L 66.281421 132.568897 
L 66.799126 133.767768 
L 67.318251 134.966639 
L 67.836228 136.16551 
L 68.35058 137.364381 
L 68.858953 138.563252 
L 69.359143 139.762123 
L 69.849105 140.960994 
L 70.326959 142.159865 
L 70.790986 143.358737 
L 71.239616 144.557608 
L 71.671415 145.756479 
L 72.085069 146.95535 
L 72.479377 148.154221 
L 72.853247 149.353092 
L 73.205701 150.551963 
L 73.535897 151.750834 
L 73.843155 152.949705 
L 74.126999 154.148576 
L 74.387207 155.347448 
L 74.623856 156.546319 
L 74.837369 157.74519 
L 75.028555 158.944061 
L 75.198621 160.142932 
L 75.349176 161.341803 
L 75.482187 162.540674 
L 75.599925 163.739545 
L 75.704862 164.938416 
L 75.799546 166.137288 
L 75.886453 167.336159 
L 75.967815 168.53503 
L 76.045451 169.733901 
L 76.120594 170.932772 
L 76.193747 172.131643 
L 76.264558 173.330514 
L 76.331748 174.529385 
L 76.393081 175.728256 
L 76.445396 176.927127 
L 76.484696 178.125999 
L 76.506294 179.32487 
L 76.505006 180.523741 
L 76.475392 181.722612 
L 76.412021 182.921483 
L 76.309746 184.120354 
L 76.163984 185.319225 
L 75.970971 186.518096 
L 75.72798 187.716967 
L 75.433501 188.915838 
L 75.087348 190.11471 
L 74.690721 191.313581 
L 74.246179 192.512452 
L 73.757569 193.711323 
L 73.229874 194.910194 
L 72.66903 196.109065 
L 72.081688 197.307936 
L 71.474959 198.506807 
L 70.856143 199.705678 
L 70.232464 200.904549 
L 69.610823 202.103421 
L 68.997576 203.302292 
L 68.398356 204.501163 
L 67.817938 205.700034 
L 67.260156 206.898905 
L 66.727867 208.097776 
L 66.222972 209.296647 
L 65.746469 210.495518 
L 65.298553 211.694389 
L 64.878738 212.89326 
L 64.486 214.092132 
L 64.118927 215.291003 
L 63.775868 216.489874 
L 63.455069 217.688745 
L 63.154795 218.887616 
L 62.873425 220.086487 
L 62.609525 221.285358 
L 62.361881 222.484229 
L 62.129522 223.6831 
L 61.911697 224.881971 
L 61.707847 226.080843 
L 61.517553 227.279714 
L 61.340478 228.478585 
L 61.1763 229.677456 
L 61.024656 230.876327 
L 60.885087 232.075198 
L 60.756999 233.274069 
L 60.639641 234.47294 
L 60.532094 235.671811 
L 60.433284 236.870683 
L 60.34201 238.069554 
L 60.25698 239.268425 
L 60.17686 240.467296 
L 60.100332 241.666167 
L 60.026148 242.865038 
L 59.953179 244.063909 
L 59.953179 244.063909 
z
" clip-path="url(#p28c71a3658)" style="fill: none; stroke: #000000; stroke-opacity: 0.3"/>
   </g>
   <g id="FillBetweenPolyCollection_4">
    <path d="M 68.636656 183.30937 
L 48.124183 183.30937 
L 47.722138 182.822027 
L 47.332305 182.334683 
L 46.956619 181.84734 
L 46.596887 181.359996 
L 46.254757 180.872653 
L 45.931695 180.38531 
L 45.628965 179.897966 
L 45.347609 179.410623 
L 45.088429 178.923279 
L 44.851978 178.435936 
L 44.63855 177.948592 
L 44.448177 177.461249 
L 44.280625 176.973905 
L 44.135406 176.486562 
L 44.011779 175.999219 
L 43.908766 175.511875 
L 43.825167 175.024532 
L 43.759581 174.537188 
L 43.710425 174.049845 
L 43.675963 173.562501 
L 43.654331 173.075158 
L 43.643566 172.587814 
L 43.641636 172.100471 
L 43.646468 171.613128 
L 43.655984 171.125784 
L 43.668122 170.638441 
L 43.680871 170.151097 
L 43.692295 169.663754 
L 43.700559 169.17641 
L 43.703949 168.689067 
L 43.700896 168.201723 
L 43.689993 167.71438 
L 43.670008 167.227036 
L 43.639896 166.739693 
L 43.598812 166.25235 
L 43.546113 165.765006 
L 43.481365 165.277663 
L 43.404342 164.790319 
L 43.31503 164.302976 
L 43.213617 163.815632 
L 43.100496 163.328289 
L 42.976252 162.840945 
L 42.841656 162.353602 
L 42.697657 161.866259 
L 42.545368 161.378915 
L 42.386056 160.891572 
L 42.221128 160.404228 
L 42.052117 159.916885 
L 41.880667 159.429541 
L 41.708513 158.942198 
L 41.537471 158.454854 
L 41.369413 157.967511 
L 41.206254 157.480168 
L 41.049928 156.992824 
L 40.902373 156.505481 
L 40.765505 156.018137 
L 40.641203 155.530794 
L 40.531287 155.04345 
L 40.437496 154.556107 
L 40.361473 154.068763 
L 40.304739 153.58142 
L 40.268684 153.094077 
L 40.254545 152.606733 
L 40.263394 152.11939 
L 40.296123 151.632046 
L 40.353439 151.144703 
L 40.435852 150.657359 
L 40.54367 150.170016 
L 40.677002 149.682672 
L 40.83575 149.195329 
L 41.019621 148.707986 
L 41.228127 148.220642 
L 41.460599 147.733299 
L 41.716193 147.245955 
L 41.993906 146.758612 
L 42.292591 146.271268 
L 42.610975 145.783925 
L 42.947672 145.296581 
L 43.301209 144.809238 
L 43.670037 144.321895 
L 44.052557 143.834551 
L 44.447134 143.347208 
L 44.852117 142.859864 
L 45.265855 142.372521 
L 45.686713 141.885177 
L 46.113089 141.397834 
L 46.543421 140.91049 
L 46.976205 140.423147 
L 47.409997 139.935804 
L 47.843427 139.44846 
L 48.2752 138.961117 
L 48.704104 138.473773 
L 49.12901 137.98643 
L 49.548872 137.499086 
L 49.962731 137.011743 
L 50.36971 136.524399 
L 50.769014 136.037056 
L 51.159928 135.549713 
L 51.541811 135.062369 
L 65.219029 135.062369 
L 65.219029 135.062369 
L 65.600911 135.549713 
L 65.991825 136.037056 
L 66.391129 136.524399 
L 66.798108 137.011743 
L 67.211967 137.499086 
L 67.631829 137.98643 
L 68.056735 138.473773 
L 68.485639 138.961117 
L 68.917413 139.44846 
L 69.350842 139.935804 
L 69.784635 140.423147 
L 70.217418 140.91049 
L 70.64775 141.397834 
L 71.074126 141.885177 
L 71.494984 142.372521 
L 71.908722 142.859864 
L 72.313705 143.347208 
L 72.708282 143.834551 
L 73.090802 144.321895 
L 73.45963 144.809238 
L 73.813167 145.296581 
L 74.149865 145.783925 
L 74.468248 146.271268 
L 74.766933 146.758612 
L 75.044646 147.245955 
L 75.30024 147.733299 
L 75.532712 148.220642 
L 75.741218 148.707986 
L 75.925089 149.195329 
L 76.083838 149.682672 
L 76.217169 150.170016 
L 76.324987 150.657359 
L 76.4074 151.144703 
L 76.464716 151.632046 
L 76.497445 152.11939 
L 76.506294 152.606733 
L 76.492155 153.094077 
L 76.4561 153.58142 
L 76.399366 154.068763 
L 76.323343 154.556107 
L 76.229552 155.04345 
L 76.119636 155.530794 
L 75.995335 156.018137 
L 75.858466 156.505481 
L 75.710911 156.992824 
L 75.554585 157.480168 
L 75.391426 157.967511 
L 75.223368 158.454854 
L 75.052326 158.942198 
L 74.880173 159.429541 
L 74.708722 159.916885 
L 74.539711 160.404228 
L 74.374784 160.891572 
L 74.215472 161.378915 
L 74.063182 161.866259 
L 73.919183 162.353602 
L 73.784587 162.840945 
L 73.660343 163.328289 
L 73.547222 163.815632 
L 73.44581 164.302976 
L 73.356497 164.790319 
L 73.279475 165.277663 
L 73.214726 165.765006 
L 73.162027 166.25235 
L 73.120943 166.739693 
L 73.090831 167.227036 
L 73.070846 167.71438 
L 73.059943 168.201723 
L 73.056891 168.689067 
L 73.060281 169.17641 
L 73.068544 169.663754 
L 73.079968 170.151097 
L 73.092717 170.638441 
L 73.104855 171.125784 
L 73.114371 171.613128 
L 73.119204 172.100471 
L 73.117273 172.587814 
L 73.106508 173.075158 
L 73.084876 173.562501 
L 73.050414 174.049845 
L 73.001258 174.537188 
L 72.935672 175.024532 
L 72.852073 175.511875 
L 72.74906 175.999219 
L 72.625433 176.486562 
L 72.480214 176.973905 
L 72.312663 177.461249 
L 72.122289 177.948592 
L 71.908861 178.435936 
L 71.67241 178.923279 
L 71.41323 179.410623 
L 71.131874 179.897966 
L 70.829144 180.38531 
L 70.506082 180.872653 
L 70.163952 181.359996 
L 69.80422 181.84734 
L 69.428535 182.334683 
L 69.038701 182.822027 
L 68.636656 183.30937 
L 68.636656 183.30937 
z
" clip-path="url(#p28c71a3658)" style="fill: none; stroke: #000000; stroke-opacity: 0.3"/>
   </g>
   <g id="FillBetweenPolyCollection_5">
    <path d="M 119.297531 209.527573 
L 118.302469 209.527573 
L 118.281747 208.463402 
L 118.260521 207.399231 
L 118.236054 206.335059 
L 118.205012 205.270888 
L 118.163633 204.206717 
L 118.107949 203.142545 
L 118.034044 202.078374 
L 117.938343 201.014202 
L 117.817886 199.950031 
L 117.670592 198.88586 
L 117.49546 197.821688 
L 117.292707 196.757517 
L 117.063807 195.693346 
L 116.811433 194.629174 
L 116.539292 193.565003 
L 116.251852 192.500832 
L 115.953999 191.43666 
L 115.650626 190.372489 
L 115.346209 189.308318 
L 115.044406 188.244146 
L 114.747705 187.179975 
L 114.457177 186.115803 
L 114.172348 185.051632 
L 113.891195 183.987461 
L 113.610277 182.923289 
L 113.324988 181.859118 
L 113.029892 180.794947 
L 112.719133 179.730775 
L 112.386875 178.666604 
L 112.027751 177.602433 
L 111.637296 176.538261 
L 111.212341 175.47409 
L 110.751351 174.409918 
L 110.254681 173.345747 
L 109.72473 172.281576 
L 109.165975 171.217404 
L 108.584852 170.153233 
L 107.989478 169.089062 
L 107.389214 168.02489 
L 106.794083 166.960719 
L 106.214096 165.896548 
L 105.658531 164.832376 
L 105.135255 163.768205 
L 104.650168 162.704034 
L 104.206837 161.639862 
L 103.806371 160.575691 
L 103.447562 159.511519 
L 103.12726 158.447348 
L 102.840939 157.383177 
L 102.583367 156.319005 
L 102.349284 155.254834 
L 102.134 154.190663 
L 101.933834 153.126491 
L 101.746354 152.06232 
L 101.570419 150.998149 
L 101.406037 149.933977 
L 101.254107 148.869806 
L 101.116097 147.805634 
L 100.993749 146.741463 
L 100.888835 145.677292 
L 100.803007 144.61312 
L 100.737745 143.548949 
L 100.694375 142.484778 
L 100.674126 141.420606 
L 100.678185 140.356435 
L 100.707728 139.292264 
L 100.763896 138.228092 
L 100.847741 137.163921 
L 100.960154 136.09975 
L 101.101808 135.035578 
L 101.273153 133.971407 
L 101.474489 132.907235 
L 101.706116 131.843064 
L 101.968544 130.778893 
L 102.262717 129.714721 
L 102.590201 128.65055 
L 102.95327 127.586379 
L 103.354837 126.522207 
L 103.798211 125.458036 
L 104.28668 124.393865 
L 104.822953 123.329693 
L 105.40855 122.265522 
L 106.043209 121.20135 
L 106.724422 120.137179 
L 107.447177 119.073008 
L 108.203958 118.008836 
L 108.985032 116.944665 
L 109.778982 115.880494 
L 110.573439 114.816322 
L 111.355912 113.752151 
L 112.11462 112.68798 
L 112.83922 111.623808 
L 113.521361 110.559637 
L 114.155006 109.495466 
L 114.736517 108.431294 
L 115.264518 107.367123 
L 115.73958 106.302951 
L 116.163797 105.23878 
L 116.540322 104.174609 
L 121.059678 104.174609 
L 121.059678 104.174609 
L 121.436203 105.23878 
L 121.86042 106.302951 
L 122.335482 107.367123 
L 122.863483 108.431294 
L 123.444994 109.495466 
L 124.078639 110.559637 
L 124.76078 111.623808 
L 125.48538 112.68798 
L 126.244088 113.752151 
L 127.026561 114.816322 
L 127.821018 115.880494 
L 128.614968 116.944665 
L 129.396042 118.008836 
L 130.152823 119.073008 
L 130.875578 120.137179 
L 131.556791 121.20135 
L 132.19145 122.265522 
L 132.777047 123.329693 
L 133.31332 124.393865 
L 133.801789 125.458036 
L 134.245163 126.522207 
L 134.64673 127.586379 
L 135.009799 128.65055 
L 135.337283 129.714721 
L 135.631456 130.778893 
L 135.893884 131.843064 
L 136.125511 132.907235 
L 136.326847 133.971407 
L 136.498192 135.035578 
L 136.639846 136.09975 
L 136.752259 137.163921 
L 136.836104 138.228092 
L 136.892272 139.292264 
L 136.921815 140.356435 
L 136.925874 141.420606 
L 136.905625 142.484778 
L 136.862255 143.548949 
L 136.796993 144.61312 
L 136.711165 145.677292 
L 136.606251 146.741463 
L 136.483903 147.805634 
L 136.345893 148.869806 
L 136.193963 149.933977 
L 136.029581 150.998149 
L 135.853646 152.06232 
L 135.666166 153.126491 
L 135.466 154.190663 
L 135.250716 155.254834 
L 135.016633 156.319005 
L 134.759061 157.383177 
L 134.47274 158.447348 
L 134.152438 159.511519 
L 133.793629 160.575691 
L 133.393163 161.639862 
L 132.949832 162.704034 
L 132.464745 163.768205 
L 131.941469 164.832376 
L 131.385904 165.896548 
L 130.805917 166.960719 
L 130.210786 168.02489 
L 129.610522 169.089062 
L 129.015148 170.153233 
L 128.434025 171.217404 
L 127.87527 172.281576 
L 127.345319 173.345747 
L 126.848649 174.409918 
L 126.387659 175.47409 
L 125.962704 176.538261 
L 125.572249 177.602433 
L 125.213125 178.666604 
L 124.880867 179.730775 
L 124.570108 180.794947 
L 124.275012 181.859118 
L 123.989723 182.923289 
L 123.708805 183.987461 
L 123.427652 185.051632 
L 123.142823 186.115803 
L 122.852295 187.179975 
L 122.555594 188.244146 
L 122.253791 189.308318 
L 121.949374 190.372489 
L 121.646001 191.43666 
L 121.348148 192.500832 
L 121.060708 193.565003 
L 120.788567 194.629174 
L 120.536193 195.693346 
L 120.307293 196.757517 
L 120.10454 197.821688 
L 119.929408 198.88586 
L 119.782114 199.950031 
L 119.661657 201.014202 
L 119.565956 202.078374 
L 119.492051 203.142545 
L 119.436367 204.206717 
L 119.394988 205.270888 
L 119.363946 206.335059 
L 119.339479 207.399231 
L 119.318253 208.463402 
L 119.297531 209.527573 
L 119.297531 209.527573 
z
" clip-path="url(#p28c71a3658)" style="fill: none; stroke: #000000; stroke-opacity: 0.3"/>
   </g>
   <g id="FillBetweenPolyCollection_6">
    <path d="M 120.080727 201.033239 
L 117.519273 201.033239 
L 117.386078 199.999545 
L 117.248804 198.965852 
L 117.107636 197.932159 
L 116.962564 196.898465 
L 116.813383 195.864772 
L 116.6597 194.831078 
L 116.50095 193.797385 
L 116.336414 192.763692 
L 116.165237 191.729998 
L 115.986448 190.696305 
L 115.798971 189.662612 
L 115.601637 188.628918 
L 115.393183 187.595225 
L 115.172264 186.561531 
L 114.93744 185.527838 
L 114.687184 184.494145 
L 114.419876 183.460451 
L 114.133809 182.426758 
L 113.827205 181.393065 
L 113.498242 180.359371 
L 113.145107 179.325678 
L 112.766065 178.291984 
L 112.35956 177.258291 
L 111.924342 176.224598 
L 111.459609 175.190904 
L 110.965157 174.157211 
L 110.441528 173.123518 
L 109.890133 172.089824 
L 109.313331 171.056131 
L 108.71447 170.022437 
L 108.097851 168.988744 
L 107.468645 167.955051 
L 106.832753 166.921357 
L 106.196626 165.887664 
L 105.567061 164.853971 
L 104.951 163.820277 
L 104.35534 162.786584 
L 103.786768 161.75289 
L 103.251623 160.719197 
L 102.755787 159.685504 
L 102.304588 158.65181 
L 101.902709 157.618117 
L 101.554087 156.584424 
L 101.261788 155.55073 
L 101.02787 154.517037 
L 100.853237 153.483343 
L 100.737497 152.44965 
L 100.678866 151.415957 
L 100.674126 150.382263 
L 100.718698 149.34857 
L 100.80682 148.314877 
L 100.931859 147.281183 
L 101.086744 146.24749 
L 101.264488 145.213796 
L 101.458763 144.180103 
L 101.664463 143.14641 
L 101.878187 142.112716 
L 102.098591 141.079023 
L 102.326545 140.04533 
L 102.565072 139.011636 
L 102.81906 137.977943 
L 103.094761 136.944249 
L 103.399142 135.910556 
L 103.739131 134.876863 
L 104.120858 133.843169 
L 104.548953 132.809476 
L 105.025978 131.775783 
L 105.55205 130.742089 
L 106.124676 129.708396 
L 106.738806 128.674702 
L 107.387091 127.641009 
L 108.060308 126.607316 
L 108.747893 125.573622 
L 109.438546 124.539929 
L 110.12084 123.506236 
L 110.783802 122.472542 
L 111.417418 121.438849 
L 112.013058 120.405155 
L 112.563792 119.371462 
L 113.064594 118.337769 
L 113.512455 117.304075 
L 113.906383 116.270382 
L 114.247326 115.236689 
L 114.538011 114.202995 
L 114.782715 113.169302 
L 114.986987 112.135608 
L 115.157317 111.101915 
L 115.300791 110.068222 
L 115.42472 109.034528 
L 115.536286 108.000835 
L 115.642203 106.967142 
L 115.748417 105.933448 
L 115.859865 104.899755 
L 115.980293 103.866061 
L 116.112157 102.832368 
L 116.256597 101.798675 
L 116.413495 100.764981 
L 116.581597 99.731288 
L 116.758705 98.697595 
L 120.841295 98.697595 
L 120.841295 98.697595 
L 121.018403 99.731288 
L 121.186505 100.764981 
L 121.343403 101.798675 
L 121.487843 102.832368 
L 121.619707 103.866061 
L 121.740135 104.899755 
L 121.851583 105.933448 
L 121.957797 106.967142 
L 122.063714 108.000835 
L 122.17528 109.034528 
L 122.299209 110.068222 
L 122.442683 111.101915 
L 122.613013 112.135608 
L 122.817285 113.169302 
L 123.061989 114.202995 
L 123.352674 115.236689 
L 123.693617 116.270382 
L 124.087545 117.304075 
L 124.535406 118.337769 
L 125.036208 119.371462 
L 125.586942 120.405155 
L 126.182582 121.438849 
L 126.816198 122.472542 
L 127.47916 123.506236 
L 128.161454 124.539929 
L 128.852107 125.573622 
L 129.539692 126.607316 
L 130.212909 127.641009 
L 130.861194 128.674702 
L 131.475324 129.708396 
L 132.04795 130.742089 
L 132.574022 131.775783 
L 133.051047 132.809476 
L 133.479142 133.843169 
L 133.860869 134.876863 
L 134.200858 135.910556 
L 134.505239 136.944249 
L 134.78094 137.977943 
L 135.034928 139.011636 
L 135.273455 140.04533 
L 135.501409 141.079023 
L 135.721813 142.112716 
L 135.935537 143.14641 
L 136.141237 144.180103 
L 136.335512 145.213796 
L 136.513256 146.24749 
L 136.668141 147.281183 
L 136.79318 148.314877 
L 136.881302 149.34857 
L 136.925874 150.382263 
L 136.921134 151.415957 
L 136.862503 152.44965 
L 136.746763 153.483343 
L 136.57213 154.517037 
L 136.338212 155.55073 
L 136.045913 156.584424 
L 135.697291 157.618117 
L 135.295412 158.65181 
L 134.844213 159.685504 
L 134.348377 160.719197 
L 133.813232 161.75289 
L 133.24466 162.786584 
L 132.649 163.820277 
L 132.032939 164.853971 
L 131.403374 165.887664 
L 130.767247 166.921357 
L 130.131355 167.955051 
L 129.502149 168.988744 
L 128.88553 170.022437 
L 128.286669 171.056131 
L 127.709867 172.089824 
L 127.158472 173.123518 
L 126.634843 174.157211 
L 126.140391 175.190904 
L 125.675658 176.224598 
L 125.24044 177.258291 
L 124.833935 178.291984 
L 124.454893 179.325678 
L 124.101758 180.359371 
L 123.772795 181.393065 
L 123.466191 182.426758 
L 123.180124 183.460451 
L 122.912816 184.494145 
L 122.66256 185.527838 
L 122.427736 186.561531 
L 122.206817 187.595225 
L 121.998363 188.628918 
L 121.801029 189.662612 
L 121.613552 190.696305 
L 121.434763 191.729998 
L 121.263586 192.763692 
L 121.09905 193.797385 
L 120.9403 194.831078 
L 120.786617 195.864772 
L 120.637436 196.898465 
L 120.492364 197.932159 
L 120.351196 198.965852 
L 120.213922 199.999545 
L 120.080727 201.033239 
L 120.080727 201.033239 
z
" clip-path="url(#p28c71a3658)" style="fill: none; stroke: #000000; stroke-opacity: 0.3"/>
   </g>
   <g id="FillBetweenPolyCollection_7">
    <path d="M 123.842009 183.904124 
L 113.757991 183.904124 
L 113.479779 183.108973 
L 113.213876 182.313823 
L 112.962814 181.518672 
L 112.72889 180.723521 
L 112.514112 179.928371 
L 112.320159 179.13322 
L 112.148342 178.33807 
L 111.999577 177.542919 
L 111.874362 176.747769 
L 111.772757 175.952618 
L 111.69438 175.157467 
L 111.638397 174.362317 
L 111.603521 173.567166 
L 111.588016 172.772016 
L 111.589707 171.976865 
L 111.605986 171.181714 
L 111.633834 170.386564 
L 111.669846 169.591413 
L 111.710258 168.796263 
L 111.750989 168.001112 
L 111.787695 167.205962 
L 111.815829 166.410811 
L 111.830717 165.61566 
L 111.827643 164.82051 
L 111.801949 164.025359 
L 111.749141 163.230209 
L 111.665006 162.435058 
L 111.54573 161.639907 
L 111.388019 160.844757 
L 111.189214 160.049606 
L 110.947399 159.254456 
L 110.661493 158.459305 
L 110.331328 157.664155 
L 109.957697 156.869004 
L 109.542387 156.073853 
L 109.088172 155.278703 
L 108.598785 154.483552 
L 108.078858 153.688402 
L 107.533828 152.893251 
L 106.969825 152.0981 
L 106.393534 151.30295 
L 105.812041 150.507799 
L 105.232661 149.712649 
L 104.66277 148.917498 
L 104.109628 148.122348 
L 103.580214 147.327197 
L 103.08107 146.532046 
L 102.618163 145.736896 
L 102.196769 144.941745 
L 101.821376 144.146595 
L 101.495617 143.351444 
L 101.222233 142.556293 
L 101.00305 141.761143 
L 100.838995 140.965992 
L 100.730123 140.170842 
L 100.675671 139.375691 
L 100.674126 138.580541 
L 100.723303 137.78539 
L 100.820441 136.990239 
L 100.962297 136.195089 
L 101.145248 135.399938 
L 101.365394 134.604788 
L 101.61866 133.809637 
L 101.90089 133.014486 
L 102.207943 132.219336 
L 102.535778 131.424185 
L 102.880531 130.629035 
L 103.238591 129.833884 
L 103.606649 129.038734 
L 103.981759 128.243583 
L 104.361365 127.448432 
L 104.743335 126.653282 
L 105.125965 125.858131 
L 105.507983 125.062981 
L 105.888533 124.26783 
L 106.267145 123.472679 
L 106.643703 122.677529 
L 107.018385 121.882378 
L 107.391615 121.087228 
L 107.763991 120.292077 
L 108.136222 119.496927 
L 108.509053 118.701776 
L 108.883203 117.906625 
L 109.259297 117.111475 
L 109.637815 116.316324 
L 110.01904 115.521174 
L 110.403029 114.726023 
L 110.789585 113.930872 
L 111.17825 113.135722 
L 111.568306 112.340571 
L 111.958791 111.545421 
L 112.348524 110.75027 
L 112.736141 109.95512 
L 113.120132 109.159969 
L 113.498893 108.364818 
L 113.870772 107.569668 
L 114.234119 106.774517 
L 114.587331 105.979367 
L 114.928896 105.184216 
L 122.671104 105.184216 
L 122.671104 105.184216 
L 123.012669 105.979367 
L 123.365881 106.774517 
L 123.729228 107.569668 
L 124.101107 108.364818 
L 124.479868 109.159969 
L 124.863859 109.95512 
L 125.251476 110.75027 
L 125.641209 111.545421 
L 126.031694 112.340571 
L 126.42175 113.135722 
L 126.810415 113.930872 
L 127.196971 114.726023 
L 127.58096 115.521174 
L 127.962185 116.316324 
L 128.340703 117.111475 
L 128.716797 117.906625 
L 129.090947 118.701776 
L 129.463778 119.496927 
L 129.836009 120.292077 
L 130.208385 121.087228 
L 130.581615 121.882378 
L 130.956297 122.677529 
L 131.332855 123.472679 
L 131.711467 124.26783 
L 132.092017 125.062981 
L 132.474035 125.858131 
L 132.856665 126.653282 
L 133.238635 127.448432 
L 133.618241 128.243583 
L 133.993351 129.038734 
L 134.361409 129.833884 
L 134.719469 130.629035 
L 135.064222 131.424185 
L 135.392057 132.219336 
L 135.69911 133.014486 
L 135.98134 133.809637 
L 136.234606 134.604788 
L 136.454752 135.399938 
L 136.637703 136.195089 
L 136.779559 136.990239 
L 136.876697 137.78539 
L 136.925874 138.580541 
L 136.924329 139.375691 
L 136.869877 140.170842 
L 136.761005 140.965992 
L 136.59695 141.761143 
L 136.377767 142.556293 
L 136.104383 143.351444 
L 135.778624 144.146595 
L 135.403231 144.941745 
L 134.981837 145.736896 
L 134.51893 146.532046 
L 134.019786 147.327197 
L 133.490372 148.122348 
L 132.93723 148.917498 
L 132.367339 149.712649 
L 131.787959 150.507799 
L 131.206466 151.30295 
L 130.630175 152.0981 
L 130.066172 152.893251 
L 129.521142 153.688402 
L 129.001215 154.483552 
L 128.511828 155.278703 
L 128.057613 156.073853 
L 127.642303 156.869004 
L 127.268672 157.664155 
L 126.938507 158.459305 
L 126.652601 159.254456 
L 126.410786 160.049606 
L 126.211981 160.844757 
L 126.05427 161.639907 
L 125.934994 162.435058 
L 125.850859 163.230209 
L 125.798051 164.025359 
L 125.772357 164.82051 
L 125.769283 165.61566 
L 125.784171 166.410811 
L 125.812305 167.205962 
L 125.849011 168.001112 
L 125.889742 168.796263 
L 125.930154 169.591413 
L 125.966166 170.386564 
L 125.994014 171.181714 
L 126.010293 171.976865 
L 126.011984 172.772016 
L 125.996479 173.567166 
L 125.961603 174.362317 
L 125.90562 175.157467 
L 125.827243 175.952618 
L 125.725638 176.747769 
L 125.600423 177.542919 
L 125.451658 178.33807 
L 125.279841 179.13322 
L 125.085888 179.928371 
L 124.87111 180.723521 
L 124.637186 181.518672 
L 124.386124 182.313823 
L 124.120221 183.108973 
L 123.842009 183.904124 
L 123.842009 183.904124 
z
" clip-path="url(#p28c71a3658)" style="fill: none; stroke: #000000; stroke-opacity: 0.3"/>
   </g>
   <g id="FillBetweenPolyCollection_8">
    <path d="M 119.321316 209.563201 
L 118.278684 209.563201 
L 118.2489 208.53046 
L 118.217363 207.497718 
L 118.181803 206.464977 
L 118.139625 205.432236 
L 118.088098 204.399494 
L 118.024568 203.366753 
L 117.94668 202.334011 
L 117.852571 201.30127 
L 117.741026 200.268528 
L 117.611568 199.235787 
L 117.464469 198.203045 
L 117.300684 197.170304 
L 117.121716 196.137562 
L 116.929417 195.104821 
L 116.72575 194.072079 
L 116.512542 193.039338 
L 116.291249 192.006597 
L 116.062752 190.973855 
L 115.82722 189.941114 
L 115.584031 188.908372 
L 115.331778 187.875631 
L 115.068351 186.842889 
L 114.791091 185.810148 
L 114.497003 184.777406 
L 114.183021 183.744665 
L 113.846298 182.711923 
L 113.484502 181.679182 
L 113.096104 180.64644 
L 112.680617 179.613699 
L 112.238784 178.580958 
L 111.772671 177.548216 
L 111.28567 176.515475 
L 110.782378 175.482733 
L 110.268373 174.449992 
L 109.749885 173.41725 
L 109.233373 172.384509 
L 108.725069 171.351767 
L 108.230496 170.319026 
L 107.754038 169.286284 
L 107.298588 168.253543 
L 106.865327 167.220801 
L 106.453675 166.18806 
L 106.06141 165.155319 
L 105.684974 164.122577 
L 105.319937 163.089836 
L 104.961556 162.057094 
L 104.605407 161.024353 
L 104.247984 159.991611 
L 103.887215 158.95887 
L 103.522838 157.926128 
L 103.156577 156.893387 
L 102.792118 155.860645 
L 102.434878 154.827904 
L 102.091601 153.795162 
L 101.769832 152.762421 
L 101.477339 151.72968 
L 101.221533 150.696938 
L 101.008965 149.664197 
L 100.844931 148.631455 
L 100.733232 147.598714 
L 100.676074 146.565972 
L 100.674126 145.533231 
L 100.726683 144.500489 
L 100.831923 143.467748 
L 100.987203 142.435006 
L 101.189356 141.402265 
L 101.43497 140.369523 
L 101.720609 139.336782 
L 102.042967 138.304041 
L 102.398956 137.271299 
L 102.785724 136.238558 
L 103.200619 135.205816 
L 103.641118 134.173075 
L 104.104729 133.140333 
L 104.588907 132.107592 
L 105.09098 131.07485 
L 105.608124 130.042109 
L 106.137369 129.009367 
L 106.675672 127.976626 
L 107.220013 126.943884 
L 107.76753 125.911143 
L 108.315657 124.878402 
L 108.862234 123.84566 
L 109.405588 122.812919 
L 109.944539 121.780177 
L 110.478346 120.747436 
L 111.006582 119.714694 
L 111.528959 118.681953 
L 112.045125 117.649211 
L 112.554474 116.61647 
L 113.055981 115.583728 
L 113.548108 114.550987 
L 114.028784 113.518245 
L 114.49547 112.485504 
L 114.94529 111.452763 
L 115.375224 110.420021 
L 115.782312 109.38728 
L 116.163877 108.354538 
L 116.517697 107.321797 
L 121.082303 107.321797 
L 121.082303 107.321797 
L 121.436123 108.354538 
L 121.817688 109.38728 
L 122.224776 110.420021 
L 122.65471 111.452763 
L 123.10453 112.485504 
L 123.571216 113.518245 
L 124.051892 114.550987 
L 124.544019 115.583728 
L 125.045526 116.61647 
L 125.554875 117.649211 
L 126.071041 118.681953 
L 126.593418 119.714694 
L 127.121654 120.747436 
L 127.655461 121.780177 
L 128.194412 122.812919 
L 128.737766 123.84566 
L 129.284343 124.878402 
L 129.83247 125.911143 
L 130.379987 126.943884 
L 130.924328 127.976626 
L 131.462631 129.009367 
L 131.991876 130.042109 
L 132.50902 131.07485 
L 133.011093 132.107592 
L 133.495271 133.140333 
L 133.958882 134.173075 
L 134.399381 135.205816 
L 134.814276 136.238558 
L 135.201044 137.271299 
L 135.557033 138.304041 
L 135.879391 139.336782 
L 136.16503 140.369523 
L 136.410644 141.402265 
L 136.612797 142.435006 
L 136.768077 143.467748 
L 136.873317 144.500489 
L 136.925874 145.533231 
L 136.923926 146.565972 
L 136.866768 147.598714 
L 136.755069 148.631455 
L 136.591035 149.664197 
L 136.378467 150.696938 
L 136.122661 151.72968 
L 135.830168 152.762421 
L 135.508399 153.795162 
L 135.165122 154.827904 
L 134.807882 155.860645 
L 134.443423 156.893387 
L 134.077162 157.926128 
L 133.712785 158.95887 
L 133.352016 159.991611 
L 132.994593 161.024353 
L 132.638444 162.057094 
L 132.280063 163.089836 
L 131.915026 164.122577 
L 131.53859 165.155319 
L 131.146325 166.18806 
L 130.734673 167.220801 
L 130.301412 168.253543 
L 129.845962 169.286284 
L 129.369504 170.319026 
L 128.874931 171.351767 
L 128.366627 172.384509 
L 127.850115 173.41725 
L 127.331627 174.449992 
L 126.817622 175.482733 
L 126.31433 176.515475 
L 125.827329 177.548216 
L 125.361216 178.580958 
L 124.919383 179.613699 
L 124.503896 180.64644 
L 124.115498 181.679182 
L 123.753702 182.711923 
L 123.416979 183.744665 
L 123.102997 184.777406 
L 122.808909 185.810148 
L 122.531649 186.842889 
L 122.268222 187.875631 
L 122.015969 188.908372 
L 121.77278 189.941114 
L 121.537248 190.973855 
L 121.308751 192.006597 
L 121.087458 193.039338 
L 120.87425 194.072079 
L 120.670583 195.104821 
L 120.478284 196.137562 
L 120.299316 197.170304 
L 120.135531 198.203045 
L 119.988432 199.235787 
L 119.858974 200.268528 
L 119.747429 201.30127 
L 119.65332 202.334011 
L 119.575432 203.366753 
L 119.511902 204.399494 
L 119.460375 205.432236 
L 119.418197 206.464977 
L 119.382637 207.497718 
L 119.3511 208.53046 
L 119.321316 209.563201 
L 119.321316 209.563201 
z
" clip-path="url(#p28c71a3658)" style="fill: none; stroke: #000000; stroke-opacity: 0.3"/>
   </g>
   <g id="FillBetweenPolyCollection_9">
    <path d="M 181.131717 192.851146 
L 177.307444 192.851146 
L 177.040525 191.438463 
L 176.762978 190.02578 
L 176.471693 188.613098 
L 176.161155 187.200415 
L 175.823931 185.787732 
L 175.451519 184.375049 
L 175.035406 182.962366 
L 174.568163 181.549683 
L 174.044351 180.137 
L 173.461128 178.724317 
L 172.818476 177.311634 
L 172.119107 175.898951 
L 171.368186 174.486268 
L 170.572993 173.073586 
L 169.742679 171.660903 
L 168.888112 170.24822 
L 168.021762 168.835537 
L 167.157477 167.422854 
L 166.31002 166.010171 
L 165.494321 164.597488 
L 164.724504 163.184805 
L 164.012896 161.772122 
L 163.369262 160.359439 
L 162.800485 158.946757 
L 162.310761 157.534074 
L 161.902234 156.121391 
L 161.575829 154.708708 
L 161.332002 153.296025 
L 161.171164 151.883342 
L 161.093706 150.470659 
L 161.099679 149.057976 
L 161.188324 147.645293 
L 161.357678 146.23261 
L 161.604394 144.819927 
L 161.923804 143.407245 
L 162.310143 141.994562 
L 162.756808 140.581879 
L 163.256548 139.169196 
L 163.801595 137.756513 
L 164.383822 136.34383 
L 164.995057 134.931147 
L 165.627619 133.518464 
L 166.275023 132.105781 
L 166.93267 130.693098 
L 167.598251 129.280415 
L 168.271617 127.867733 
L 168.95401 126.45505 
L 169.646767 125.042367 
L 170.349771 123.629684 
L 171.060088 122.217001 
L 171.771177 120.804318 
L 172.472935 119.391635 
L 173.152616 117.978952 
L 173.796419 116.566269 
L 174.391399 115.153586 
L 174.927267 113.740903 
L 175.397716 112.328221 
L 175.801052 110.915538 
L 176.140057 109.502855 
L 176.421215 108.090172 
L 176.653488 106.677489 
L 176.846931 105.264806 
L 177.011397 103.852123 
L 177.155515 102.43944 
L 177.286088 101.026757 
L 177.407924 99.614074 
L 177.524044 98.201391 
L 177.636149 96.788709 
L 177.745186 95.376026 
L 177.851847 93.963343 
L 177.956883 92.55066 
L 178.061181 91.137977 
L 178.16562 89.725294 
L 178.270794 88.312611 
L 178.376725 86.899928 
L 178.482674 85.487245 
L 178.587125 84.074562 
L 178.687957 82.66188 
L 178.782754 81.249197 
L 178.869172 79.836514 
L 178.94527 78.423831 
L 179.009737 77.011148 
L 179.061963 75.598465 
L 179.10198 74.185782 
L 179.130305 72.773099 
L 179.147733 71.360416 
L 179.155163 69.947733 
L 179.153477 68.53505 
L 179.143517 67.122368 
L 179.126143 65.709685 
L 179.102353 64.297002 
L 179.073423 62.884319 
L 179.041018 61.471636 
L 179.007224 60.058953 
L 178.974476 58.64627 
L 178.94538 57.233587 
L 178.922438 55.820904 
L 178.907744 54.408221 
L 178.902691 52.995538 
L 179.536469 52.995538 
L 179.536469 52.995538 
L 179.531417 54.408221 
L 179.516723 55.820904 
L 179.493781 57.233587 
L 179.464685 58.64627 
L 179.431937 60.058953 
L 179.398143 61.471636 
L 179.365738 62.884319 
L 179.336808 64.297002 
L 179.313018 65.709685 
L 179.295643 67.122368 
L 179.285684 68.53505 
L 179.283998 69.947733 
L 179.291428 71.360416 
L 179.308856 72.773099 
L 179.33718 74.185782 
L 179.377198 75.598465 
L 179.429423 77.011148 
L 179.49389 78.423831 
L 179.569989 79.836514 
L 179.656407 81.249197 
L 179.751204 82.66188 
L 179.852036 84.074562 
L 179.956487 85.487245 
L 180.062436 86.899928 
L 180.168367 88.312611 
L 180.273541 89.725294 
L 180.37798 91.137977 
L 180.482278 92.55066 
L 180.587314 93.963343 
L 180.693975 95.376026 
L 180.803011 96.788709 
L 180.915117 98.201391 
L 181.031236 99.614074 
L 181.153073 101.026757 
L 181.283646 102.43944 
L 181.427764 103.852123 
L 181.59223 105.264806 
L 181.785673 106.677489 
L 182.017946 108.090172 
L 182.299103 109.502855 
L 182.638109 110.915538 
L 183.041445 112.328221 
L 183.511894 113.740903 
L 184.047762 115.153586 
L 184.642741 116.566269 
L 185.286545 117.978952 
L 185.966226 119.391635 
L 186.667984 120.804318 
L 187.379073 122.217001 
L 188.08939 123.629684 
L 188.792394 125.042367 
L 189.48515 126.45505 
L 190.167544 127.867733 
L 190.84091 129.280415 
L 191.506491 130.693098 
L 192.164138 132.105781 
L 192.811542 133.518464 
L 193.444104 134.931147 
L 194.055339 136.34383 
L 194.637566 137.756513 
L 195.182613 139.169196 
L 195.682352 140.581879 
L 196.129018 141.994562 
L 196.515357 143.407245 
L 196.834766 144.819927 
L 197.081482 146.23261 
L 197.250837 147.645293 
L 197.339482 149.057976 
L 197.345455 150.470659 
L 197.267997 151.883342 
L 197.107159 153.296025 
L 196.863331 154.708708 
L 196.536927 156.121391 
L 196.1284 157.534074 
L 195.638676 158.946757 
L 195.069898 160.359439 
L 194.426265 161.772122 
L 193.714657 163.184805 
L 192.94484 164.597488 
L 192.129141 166.010171 
L 191.281684 167.422854 
L 190.417398 168.835537 
L 189.551049 170.24822 
L 188.696482 171.660903 
L 187.866168 173.073586 
L 187.070975 174.486268 
L 186.320053 175.898951 
L 185.620685 177.311634 
L 184.978033 178.724317 
L 184.39481 180.137 
L 183.870998 181.549683 
L 183.403755 182.962366 
L 182.987642 184.375049 
L 182.61523 185.787732 
L 182.278006 187.200415 
L 181.967468 188.613098 
L 181.676182 190.02578 
L 181.398636 191.438463 
L 181.131717 192.851146 
L 181.131717 192.851146 
z
" clip-path="url(#p28c71a3658)" style="fill: none; stroke: #000000; stroke-opacity: 0.3"/>
   </g>
   <g id="FillBetweenPolyCollection_10">
    <path d="M 179.823942 213.228539 
L 178.615219 213.228539 
L 178.531233 211.508704 
L 178.448537 209.788868 
L 178.366688 208.069033 
L 178.283772 206.349197 
L 178.196558 204.629362 
L 178.100939 202.909526 
L 177.992575 201.18969 
L 177.867573 199.469855 
L 177.722994 197.750019 
L 177.556994 196.030184 
L 177.368509 194.310348 
L 177.156539 192.590513 
L 176.91926 190.870677 
L 176.653303 189.150842 
L 176.353538 187.431006 
L 176.013557 185.711171 
L 175.62681 183.991335 
L 175.188106 182.2715 
L 174.695035 180.551664 
L 174.148871 178.831829 
L 173.554707 177.111993 
L 172.920854 175.392158 
L 172.257771 173.672322 
L 171.576903 171.952487 
L 170.889735 170.232651 
L 170.207155 168.512816 
L 169.538983 166.79298 
L 168.893424 165.073144 
L 168.276247 163.353309 
L 167.689733 161.633473 
L 167.131712 159.913638 
L 166.595181 158.193802 
L 166.069018 156.473967 
L 165.539995 154.754131 
L 164.99595 153.034296 
L 164.429486 151.31446 
L 163.841363 149.594625 
L 163.242686 147.874789 
L 162.655305 146.154954 
L 162.110257 144.435118 
L 161.644558 142.715283 
L 161.296982 140.995447 
L 161.103594 139.275612 
L 161.093706 137.555776 
L 161.286756 135.835941 
L 161.690331 134.116105 
L 162.299428 132.39627 
L 163.096895 130.676434 
L 164.054931 128.956598 
L 165.137464 127.236763 
L 166.303131 125.516927 
L 167.508525 123.797092 
L 168.711343 122.077256 
L 169.873109 120.357421 
L 170.96125 118.637585 
L 171.950435 116.91775 
L 172.82322 115.197914 
L 173.570108 113.478079 
L 174.189195 111.758243 
L 174.685508 110.038408 
L 175.070135 108.318572 
L 175.35919 106.598737 
L 175.572577 104.878901 
L 175.732544 103.159066 
L 175.862008 101.43923 
L 175.98269 99.719395 
L 176.113214 97.999559 
L 176.267396 96.279724 
L 176.453035 94.559888 
L 176.671439 92.840052 
L 176.917857 91.120217 
L 177.182758 89.400381 
L 177.453739 87.680546 
L 177.717702 85.96071 
L 177.962896 84.240875 
L 178.18049 82.521039 
L 178.365459 80.801204 
L 178.516728 79.081368 
L 178.636648 77.361533 
L 178.730012 75.641697 
L 178.802833 73.921862 
L 178.861152 72.202026 
L 178.91008 70.482191 
L 178.9532 68.762355 
L 178.992384 67.04252 
L 179.027956 65.322684 
L 179.059108 63.602849 
L 179.084423 61.883013 
L 179.102395 60.163178 
L 179.111861 58.443342 
L 179.112307 56.723506 
L 179.104064 55.003671 
L 179.088367 53.283835 
L 179.067314 51.564 
L 179.043692 49.844164 
L 179.020689 48.124329 
L 179.001496 46.404493 
L 178.988863 44.684658 
L 178.984693 42.964822 
L 179.454468 42.964822 
L 179.454468 42.964822 
L 179.450298 44.684658 
L 179.437665 46.404493 
L 179.418471 48.124329 
L 179.395469 49.844164 
L 179.371847 51.564 
L 179.350794 53.283835 
L 179.335097 55.003671 
L 179.326853 56.723506 
L 179.3273 58.443342 
L 179.336765 60.163178 
L 179.354738 61.883013 
L 179.380053 63.602849 
L 179.411205 65.322684 
L 179.446777 67.04252 
L 179.485961 68.762355 
L 179.529081 70.482191 
L 179.578008 72.202026 
L 179.636327 73.921862 
L 179.709148 75.641697 
L 179.802513 77.361533 
L 179.922433 79.081368 
L 180.073702 80.801204 
L 180.258671 82.521039 
L 180.476264 84.240875 
L 180.721458 85.96071 
L 180.985422 87.680546 
L 181.256403 89.400381 
L 181.521304 91.120217 
L 181.767722 92.840052 
L 181.986126 94.559888 
L 182.171764 96.279724 
L 182.325947 97.999559 
L 182.456471 99.719395 
L 182.577153 101.43923 
L 182.706617 103.159066 
L 182.866584 104.878901 
L 183.079971 106.598737 
L 183.369026 108.318572 
L 183.753653 110.038408 
L 184.249965 111.758243 
L 184.869053 113.478079 
L 185.615941 115.197914 
L 186.488725 116.91775 
L 187.477911 118.637585 
L 188.566052 120.357421 
L 189.727818 122.077256 
L 190.930636 123.797092 
L 192.13603 125.516927 
L 193.301697 127.236763 
L 194.38423 128.956598 
L 195.342266 130.676434 
L 196.139733 132.39627 
L 196.74883 134.116105 
L 197.152405 135.835941 
L 197.345455 137.555776 
L 197.335567 139.275612 
L 197.142178 140.995447 
L 196.794603 142.715283 
L 196.328904 144.435118 
L 195.783856 146.154954 
L 195.196475 147.874789 
L 194.597798 149.594625 
L 194.009675 151.31446 
L 193.443211 153.034296 
L 192.899165 154.754131 
L 192.370143 156.473967 
L 191.843979 158.193802 
L 191.307449 159.913638 
L 190.749428 161.633473 
L 190.162914 163.353309 
L 189.545737 165.073144 
L 188.900177 166.79298 
L 188.232006 168.512816 
L 187.549426 170.232651 
L 186.862258 171.952487 
L 186.18139 173.672322 
L 185.518306 175.392158 
L 184.884454 177.111993 
L 184.290289 178.831829 
L 183.744125 180.551664 
L 183.251055 182.2715 
L 182.812351 183.991335 
L 182.425604 185.711171 
L 182.085623 187.431006 
L 181.785858 189.150842 
L 181.519901 190.870677 
L 181.282622 192.590513 
L 181.070652 194.310348 
L 180.882167 196.030184 
L 180.716167 197.750019 
L 180.571588 199.469855 
L 180.446586 201.18969 
L 180.338222 202.909526 
L 180.242603 204.629362 
L 180.155389 206.349197 
L 180.072473 208.069033 
L 179.990624 209.788868 
L 179.907928 211.508704 
L 179.823942 213.228539 
L 179.823942 213.228539 
z
" clip-path="url(#p28c71a3658)" style="fill: none; stroke: #000000; stroke-opacity: 0.3"/>
   </g>
   <g id="FillBetweenPolyCollection_11">
    <path d="M 179.864704 205.757641 
L 178.574457 205.757641 
L 178.476056 204.323 
L 178.366111 202.888358 
L 178.242919 201.453717 
L 178.104815 200.019075 
L 177.950372 198.584434 
L 177.778606 197.149792 
L 177.589114 195.715151 
L 177.382143 194.280509 
L 177.15853 192.845868 
L 176.91954 191.411226 
L 176.666593 189.976585 
L 176.400934 188.541943 
L 176.123286 187.107302 
L 175.83357 185.67266 
L 175.530727 184.238019 
L 175.212706 182.803377 
L 174.876622 181.368736 
L 174.519079 179.934094 
L 174.136595 178.499453 
L 173.726067 177.064811 
L 173.285177 175.63017 
L 172.812675 174.195529 
L 172.308485 172.760887 
L 171.773625 171.326246 
L 171.210003 169.891604 
L 170.62014 168.456963 
L 170.006936 167.022321 
L 169.373551 165.58768 
L 168.723432 164.153038 
L 168.060486 162.718397 
L 167.389327 161.283755 
L 166.715503 159.849114 
L 166.045598 158.414472 
L 165.387149 156.979831 
L 164.748368 155.545189 
L 164.137722 154.110548 
L 163.563477 152.675906 
L 163.033335 151.241265 
L 162.554253 149.806623 
L 162.13251 148.371982 
L 161.773969 146.93734 
L 161.484458 145.502699 
L 161.270107 144.068057 
L 161.137529 142.633416 
L 161.093706 141.198774 
L 161.145575 139.764133 
L 161.299343 138.329491 
L 161.559637 136.89485 
L 161.928647 135.460208 
L 162.405399 134.025567 
L 162.985284 132.590925 
L 163.65992 131.156284 
L 164.417361 129.721642 
L 165.242636 128.287001 
L 166.118542 126.852359 
L 167.026614 125.417718 
L 167.948169 123.983076 
L 168.865332 122.548435 
L 169.761942 121.113793 
L 170.624265 119.679152 
L 171.441442 118.24451 
L 172.205654 116.809869 
L 172.911998 115.375227 
L 173.558112 113.940586 
L 174.14363 112.505944 
L 174.669564 111.071303 
L 175.137699 109.636661 
L 175.550115 108.20202 
L 175.908878 106.767378 
L 176.215944 105.332737 
L 176.473244 103.898095 
L 176.682913 102.463454 
L 176.847578 101.028812 
L 176.970613 99.594171 
L 177.05631 98.159529 
L 177.109888 96.724888 
L 177.137338 95.290246 
L 177.14513 93.855605 
L 177.13981 92.420963 
L 177.127576 90.986322 
L 177.113891 89.55168 
L 177.103192 88.117039 
L 177.098743 86.682397 
L 177.10263 85.247756 
L 177.115896 83.813115 
L 177.13877 82.378473 
L 177.170958 80.943832 
L 177.211925 79.50919 
L 177.261149 78.074549 
L 177.318288 76.639907 
L 177.383253 75.205266 
L 177.456188 73.770624 
L 177.537362 72.335983 
L 177.626995 70.901341 
L 177.725073 69.4667 
L 177.831167 68.032058 
L 177.944311 66.597417 
L 178.062958 65.162775 
L 178.185012 63.728134 
L 180.254149 63.728134 
L 180.254149 63.728134 
L 180.376203 65.162775 
L 180.494849 66.597417 
L 180.607994 68.032058 
L 180.714088 69.4667 
L 180.812166 70.901341 
L 180.901799 72.335983 
L 180.982972 73.770624 
L 181.055908 75.205266 
L 181.120873 76.639907 
L 181.178011 78.074549 
L 181.227236 79.50919 
L 181.268203 80.943832 
L 181.30039 82.378473 
L 181.323265 83.813115 
L 181.336531 85.247756 
L 181.340418 86.682397 
L 181.335969 88.117039 
L 181.32527 89.55168 
L 181.311585 90.986322 
L 181.299351 92.420963 
L 181.294031 93.855605 
L 181.301823 95.290246 
L 181.329273 96.724888 
L 181.382851 98.159529 
L 181.468548 99.594171 
L 181.591583 101.028812 
L 181.756247 102.463454 
L 181.965917 103.898095 
L 182.223217 105.332737 
L 182.530283 106.767378 
L 182.889046 108.20202 
L 183.301462 109.636661 
L 183.769597 111.071303 
L 184.295531 112.505944 
L 184.881049 113.940586 
L 185.527162 115.375227 
L 186.233506 116.809869 
L 186.997719 118.24451 
L 187.814896 119.679152 
L 188.677219 121.113793 
L 189.573829 122.548435 
L 190.490992 123.983076 
L 191.412547 125.417718 
L 192.320619 126.852359 
L 193.196525 128.287001 
L 194.0218 129.721642 
L 194.779241 131.156284 
L 195.453877 132.590925 
L 196.033762 134.025567 
L 196.510514 135.460208 
L 196.879524 136.89485 
L 197.139818 138.329491 
L 197.293585 139.764133 
L 197.345455 141.198774 
L 197.301631 142.633416 
L 197.169053 144.068057 
L 196.954703 145.502699 
L 196.665192 146.93734 
L 196.306651 148.371982 
L 195.884908 149.806623 
L 195.405826 151.241265 
L 194.875683 152.675906 
L 194.301439 154.110548 
L 193.690792 155.545189 
L 193.052012 156.979831 
L 192.393563 158.414472 
L 191.723657 159.849114 
L 191.049834 161.283755 
L 190.378675 162.718397 
L 189.715728 164.153038 
L 189.065609 165.58768 
L 188.432225 167.022321 
L 187.819021 168.456963 
L 187.229158 169.891604 
L 186.665536 171.326246 
L 186.130676 172.760887 
L 185.626486 174.195529 
L 185.153984 175.63017 
L 184.713094 177.064811 
L 184.302566 178.499453 
L 183.920082 179.934094 
L 183.562539 181.368736 
L 183.226455 182.803377 
L 182.908433 184.238019 
L 182.60559 185.67266 
L 182.315874 187.107302 
L 182.038227 188.541943 
L 181.772567 189.976585 
L 181.519621 191.411226 
L 181.280631 192.845868 
L 181.057018 194.280509 
L 180.850046 195.715151 
L 180.660555 197.149792 
L 180.488788 198.584434 
L 180.334346 200.019075 
L 180.196242 201.453717 
L 180.07305 202.888358 
L 179.963104 204.323 
L 179.864704 205.757641 
L 179.864704 205.757641 
z
" clip-path="url(#p28c71a3658)" style="fill: none; stroke: #000000; stroke-opacity: 0.3"/>
   </g>
   <g id="FillBetweenPolyCollection_12">
    <path d="M 182.667949 184.972262 
L 175.771212 184.972262 
L 175.420373 183.799893 
L 175.059217 182.627525 
L 174.690032 181.455157 
L 174.315179 180.282789 
L 173.93701 179.110421 
L 173.557779 177.938053 
L 173.179527 176.765685 
L 172.803965 175.593317 
L 172.43235 174.420949 
L 172.065375 173.24858 
L 171.703091 172.076212 
L 171.344863 170.903844 
L 170.989388 169.731476 
L 170.634762 168.559108 
L 170.278622 167.38674 
L 169.918332 166.214372 
L 169.55121 165.042004 
L 169.174776 163.869636 
L 168.786995 162.697268 
L 168.386492 161.524899 
L 167.972711 160.352531 
L 167.546013 159.180163 
L 167.107693 158.007795 
L 166.659926 156.835427 
L 166.205647 155.663059 
L 165.748379 154.490691 
L 165.292038 153.318323 
L 164.840735 152.145955 
L 164.398594 150.973586 
L 163.969612 149.801218 
L 163.557571 148.62885 
L 163.166002 147.456482 
L 162.798213 146.284114 
L 162.457348 145.111746 
L 162.146484 143.939378 
L 161.868738 142.76701 
L 161.627361 141.594642 
L 161.425805 140.422273 
L 161.267745 139.249905 
L 161.157056 138.077537 
L 161.097723 136.905169 
L 161.093706 135.732801 
L 161.148764 134.560433 
L 161.266243 133.388065 
L 161.448858 132.215697 
L 161.698488 131.043329 
L 162.015985 129.870961 
L 162.401041 128.698592 
L 162.85209 127.526224 
L 163.366286 126.353856 
L 163.939526 125.181488 
L 164.566544 124.00912 
L 165.241036 122.836752 
L 165.955841 121.664384 
L 166.703138 120.492016 
L 167.474663 119.319648 
L 168.261924 118.147279 
L 169.056422 116.974911 
L 169.849848 115.802543 
L 170.634268 114.630175 
L 171.402284 113.457807 
L 172.147167 112.285439 
L 172.862965 111.113071 
L 173.54458 109.940703 
L 174.187824 108.768335 
L 174.789436 107.595966 
L 175.347079 106.423598 
L 175.859317 105.25123 
L 176.325556 104.078862 
L 176.745978 102.906494 
L 177.121453 101.734126 
L 177.45344 100.561758 
L 177.743877 99.38939 
L 177.99507 98.217022 
L 178.209582 97.044653 
L 178.390127 95.872285 
L 178.53947 94.699917 
L 178.660346 93.527549 
L 178.755389 92.355181 
L 178.827084 91.182813 
L 178.877741 90.010445 
L 178.909485 88.838077 
L 178.924268 87.665709 
L 178.923902 86.493341 
L 178.910104 85.320972 
L 178.884541 84.148604 
L 178.848892 82.976236 
L 178.804894 81.803868 
L 178.754381 80.6315 
L 178.699304 79.459132 
L 178.641732 78.286764 
L 178.583831 77.114396 
L 178.527809 75.942028 
L 178.475854 74.769659 
L 178.430046 73.597291 
L 178.392263 72.424923 
L 178.364093 71.252555 
L 178.346743 70.080187 
L 178.340977 68.907819 
L 180.098184 68.907819 
L 180.098184 68.907819 
L 180.092418 70.080187 
L 180.075068 71.252555 
L 180.046897 72.424923 
L 180.009115 73.597291 
L 179.963307 74.769659 
L 179.911352 75.942028 
L 179.85533 77.114396 
L 179.797428 78.286764 
L 179.739857 79.459132 
L 179.68478 80.6315 
L 179.634267 81.803868 
L 179.590269 82.976236 
L 179.55462 84.148604 
L 179.529057 85.320972 
L 179.515258 86.493341 
L 179.514893 87.665709 
L 179.529676 88.838077 
L 179.561419 90.010445 
L 179.612077 91.182813 
L 179.683772 92.355181 
L 179.778815 93.527549 
L 179.899691 94.699917 
L 180.049034 95.872285 
L 180.229579 97.044653 
L 180.444091 98.217022 
L 180.695284 99.38939 
L 180.985721 100.561758 
L 181.317707 101.734126 
L 181.693183 102.906494 
L 182.113605 104.078862 
L 182.579844 105.25123 
L 183.092082 106.423598 
L 183.649725 107.595966 
L 184.251337 108.768335 
L 184.894581 109.940703 
L 185.576196 111.113071 
L 186.291994 112.285439 
L 187.036876 113.457807 
L 187.804893 114.630175 
L 188.589313 115.802543 
L 189.382739 116.974911 
L 190.177237 118.147279 
L 190.964498 119.319648 
L 191.736022 120.492016 
L 192.48332 121.664384 
L 193.198125 122.836752 
L 193.872617 124.00912 
L 194.499634 125.181488 
L 195.072875 126.353856 
L 195.587071 127.526224 
L 196.03812 128.698592 
L 196.423176 129.870961 
L 196.740673 131.043329 
L 196.990303 132.215697 
L 197.172918 133.388065 
L 197.290397 134.560433 
L 197.345455 135.732801 
L 197.341438 136.905169 
L 197.282105 138.077537 
L 197.171416 139.249905 
L 197.013356 140.422273 
L 196.8118 141.594642 
L 196.570423 142.76701 
L 196.292677 143.939378 
L 195.981813 145.111746 
L 195.640948 146.284114 
L 195.273159 147.456482 
L 194.88159 148.62885 
L 194.469549 149.801218 
L 194.040567 150.973586 
L 193.598426 152.145955 
L 193.147123 153.318323 
L 192.690782 154.490691 
L 192.233514 155.663059 
L 191.779235 156.835427 
L 191.331468 158.007795 
L 190.893148 159.180163 
L 190.46645 160.352531 
L 190.052669 161.524899 
L 189.652166 162.697268 
L 189.264385 163.869636 
L 188.887951 165.042004 
L 188.520828 166.214372 
L 188.160539 167.38674 
L 187.804399 168.559108 
L 187.449773 169.731476 
L 187.094297 170.903844 
L 186.73607 172.076212 
L 186.373786 173.24858 
L 186.006811 174.420949 
L 185.635195 175.593317 
L 185.259634 176.765685 
L 184.881382 177.938053 
L 184.502151 179.110421 
L 184.123982 180.282789 
L 183.749128 181.455157 
L 183.379944 182.627525 
L 183.018788 183.799893 
L 182.667949 184.972262 
L 182.667949 184.972262 
z
" clip-path="url(#p28c71a3658)" style="fill: none; stroke: #000000; stroke-opacity: 0.3"/>
   </g>
   <g id="FillBetweenPolyCollection_13">
    <path d="M 181.100322 225.584141 
L 177.338838 225.584141 
L 177.110048 223.715477 
L 176.859758 221.846813 
L 176.584059 219.978149 
L 176.278752 218.109485 
L 175.93977 216.240821 
L 175.563676 214.372157 
L 175.148191 212.503493 
L 174.692688 210.634829 
L 174.19858 208.766165 
L 173.669539 206.897501 
L 173.11151 205.028837 
L 172.53248 203.160173 
L 171.942007 201.291509 
L 171.350564 199.422845 
L 170.768734 197.554181 
L 170.206355 195.685517 
L 169.671712 193.816853 
L 169.170856 191.948189 
L 168.707138 190.079525 
L 168.281008 188.210861 
L 167.890091 186.342197 
L 167.529547 184.473533 
L 167.192635 182.604869 
L 166.871454 180.736205 
L 166.557733 178.867541 
L 166.243621 176.998877 
L 165.922373 175.130213 
L 165.58889 173.261549 
L 165.240065 171.392885 
L 164.874948 169.524221 
L 164.494718 167.655557 
L 164.102534 165.786893 
L 163.70328 163.918229 
L 163.303276 162.049565 
L 162.909984 160.180901 
L 162.531748 158.312237 
L 162.177566 156.443573 
L 161.856896 154.57491 
L 161.579472 152.706246 
L 161.355101 150.837582 
L 161.193409 148.968918 
L 161.103528 147.100254 
L 161.093706 145.23159 
L 161.170879 143.362926 
L 161.340211 141.494262 
L 161.604678 139.625598 
L 161.964726 137.756934 
L 162.418066 135.88827 
L 162.959632 134.019606 
L 163.581724 132.150942 
L 164.274325 130.282278 
L 165.02556 128.413614 
L 165.822268 126.54495 
L 166.650612 124.676286 
L 167.496684 122.807622 
L 168.347055 120.938958 
L 169.189236 119.070294 
L 170.012023 117.20163 
L 170.805727 115.332966 
L 171.562301 113.464302 
L 172.275372 111.595638 
L 172.940212 109.726974 
L 173.553656 107.85831 
L 174.113997 105.989646 
L 174.620861 104.120982 
L 175.075071 102.252318 
L 175.478508 100.383654 
L 175.83395 98.51499 
L 176.144906 96.646326 
L 176.415433 94.777662 
L 176.649943 92.908998 
L 176.852996 91.040334 
L 177.029107 89.17167 
L 177.182552 87.303006 
L 177.31721 85.434342 
L 177.436436 83.565678 
L 177.542979 81.697014 
L 177.638953 79.82835 
L 177.725859 77.959686 
L 177.804654 76.091022 
L 177.875859 74.222358 
L 177.939693 72.353694 
L 177.996215 70.48503 
L 178.045465 68.616366 
L 178.087584 66.747702 
L 178.122906 64.879038 
L 178.152014 63.010374 
L 178.175755 61.14171 
L 178.195226 59.273046 
L 178.211729 57.404382 
L 178.226696 55.535718 
L 178.241617 53.667054 
L 178.257949 51.79839 
L 178.277038 49.929726 
L 178.300036 48.061062 
L 178.327845 46.192398 
L 178.361061 44.323734 
L 178.399945 42.45507 
L 178.444407 40.586406 
L 179.994754 40.586406 
L 179.994754 40.586406 
L 180.039216 42.45507 
L 180.0781 44.323734 
L 180.111316 46.192398 
L 180.139125 48.061062 
L 180.162123 49.929726 
L 180.181211 51.79839 
L 180.197544 53.667054 
L 180.212465 55.535718 
L 180.227432 57.404382 
L 180.243934 59.273046 
L 180.263406 61.14171 
L 180.287147 63.010374 
L 180.316255 64.879038 
L 180.351577 66.747702 
L 180.393696 68.616366 
L 180.442946 70.48503 
L 180.499468 72.353694 
L 180.563302 74.222358 
L 180.634507 76.091022 
L 180.713302 77.959686 
L 180.800208 79.82835 
L 180.896182 81.697014 
L 181.002725 83.565678 
L 181.121951 85.434342 
L 181.256609 87.303006 
L 181.410054 89.17167 
L 181.586165 91.040334 
L 181.789218 92.908998 
L 182.023727 94.777662 
L 182.294255 96.646326 
L 182.605211 98.51499 
L 182.960652 100.383654 
L 183.364089 102.252318 
L 183.8183 104.120982 
L 184.325164 105.989646 
L 184.885505 107.85831 
L 185.498949 109.726974 
L 186.163789 111.595638 
L 186.87686 113.464302 
L 187.633434 115.332966 
L 188.427138 117.20163 
L 189.249924 119.070294 
L 190.092106 120.938958 
L 190.942477 122.807622 
L 191.788549 124.676286 
L 192.616893 126.54495 
L 193.413601 128.413614 
L 194.164836 130.282278 
L 194.857436 132.150942 
L 195.479529 134.019606 
L 196.021095 135.88827 
L 196.474435 137.756934 
L 196.834483 139.625598 
L 197.09895 141.494262 
L 197.268282 143.362926 
L 197.345455 145.23159 
L 197.335633 147.100254 
L 197.245751 148.968918 
L 197.08406 150.837582 
L 196.859689 152.706246 
L 196.582265 154.57491 
L 196.261595 156.443573 
L 195.907413 158.312237 
L 195.529177 160.180901 
L 195.135885 162.049565 
L 194.735881 163.918229 
L 194.336627 165.786893 
L 193.944443 167.655557 
L 193.564213 169.524221 
L 193.199096 171.392885 
L 192.850271 173.261549 
L 192.516788 175.130213 
L 192.19554 176.998877 
L 191.881428 178.867541 
L 191.567707 180.736205 
L 191.246525 182.604869 
L 190.909614 184.473533 
L 190.549069 186.342197 
L 190.158153 188.210861 
L 189.732023 190.079525 
L 189.268305 191.948189 
L 188.767449 193.816853 
L 188.232806 195.685517 
L 187.670427 197.554181 
L 187.088597 199.422845 
L 186.497154 201.291509 
L 185.906681 203.160173 
L 185.32765 205.028837 
L 184.769622 206.897501 
L 184.240581 208.766165 
L 183.746472 210.634829 
L 183.29097 212.503493 
L 182.875485 214.372157 
L 182.499391 216.240821 
L 182.160409 218.109485 
L 181.855102 219.978149 
L 181.579402 221.846813 
L 181.329113 223.715477 
L 181.100322 225.584141 
L 181.100322 225.584141 
z
" clip-path="url(#p28c71a3658)" style="fill: none; stroke: #000000; stroke-opacity: 0.3"/>
   </g>
   <g id="FillBetweenPolyCollection_14">
    <path d="M 182.705314 212.518326 
L 175.733847 212.518326 
L 175.511577 211.513336 
L 175.28277 210.508346 
L 175.047288 209.503356 
L 174.805019 208.498365 
L 174.555896 207.493375 
L 174.299937 206.488385 
L 174.037271 205.483395 
L 173.768169 204.478405 
L 173.493064 203.473414 
L 173.212571 202.468424 
L 172.927494 201.463434 
L 172.638823 200.458444 
L 172.347724 199.453454 
L 172.055515 198.448463 
L 171.763629 197.443473 
L 171.473575 196.438483 
L 171.186881 195.433493 
L 170.905041 194.428502 
L 170.629451 193.423512 
L 170.361349 192.418522 
L 170.101757 191.413532 
L 169.851431 190.408542 
L 169.610816 189.403551 
L 169.380017 188.398561 
L 169.158783 187.393571 
L 168.946505 186.388581 
L 168.742231 185.383591 
L 168.544695 184.3786 
L 168.352365 183.37361 
L 168.163495 182.36862 
L 167.976202 181.36363 
L 167.788531 180.358639 
L 167.598544 179.353649 
L 167.404393 178.348659 
L 167.2044 177.343669 
L 166.997121 176.338679 
L 166.781414 175.333688 
L 166.556476 174.328698 
L 166.321884 173.323708 
L 166.077605 172.318718 
L 165.824004 171.313728 
L 165.561822 170.308737 
L 165.292158 169.303747 
L 165.016422 168.298757 
L 164.736286 167.293767 
L 164.453633 166.288776 
L 164.170494 165.283786 
L 163.888989 164.278796 
L 163.611273 163.273806 
L 163.339479 162.268816 
L 163.075679 161.263825 
L 162.821846 160.258835 
L 162.579829 159.253845 
L 162.351339 158.248855 
L 162.137944 157.243865 
L 161.941066 156.238874 
L 161.761999 155.233884 
L 161.601916 154.228894 
L 161.46189 153.223904 
L 161.342908 152.218914 
L 161.245887 151.213923 
L 161.171683 150.208933 
L 161.121098 149.203943 
L 161.094879 148.198953 
L 161.093706 147.193962 
L 161.118186 146.188972 
L 161.168825 145.183982 
L 161.246012 144.178992 
L 161.349991 143.174002 
L 161.480837 142.169011 
L 161.638433 141.164021 
L 161.822454 140.159031 
L 162.032358 139.154041 
L 162.267379 138.149051 
L 162.526534 137.14406 
L 162.80864 136.13907 
L 163.112335 135.13408 
L 163.436108 134.12909 
L 163.778341 133.124099 
L 164.137343 132.119109 
L 164.511398 131.114119 
L 164.898802 130.109129 
L 165.297903 129.104139 
L 165.707136 128.099148 
L 166.125044 127.094158 
L 166.550296 126.089168 
L 166.981696 125.084178 
L 167.418179 124.079188 
L 167.858798 123.074197 
L 168.302709 122.069207 
L 168.749143 121.064217 
L 169.197375 120.059227 
L 169.646696 119.054236 
L 170.096379 118.049246 
L 170.545651 117.044256 
L 170.993668 116.039266 
L 171.439497 115.034276 
L 171.882104 114.029285 
L 172.320355 113.024295 
L 186.118806 113.024295 
L 186.118806 113.024295 
L 186.557057 114.029285 
L 186.999664 115.034276 
L 187.445493 116.039266 
L 187.89351 117.044256 
L 188.342782 118.049246 
L 188.792465 119.054236 
L 189.241786 120.059227 
L 189.690018 121.064217 
L 190.136452 122.069207 
L 190.580363 123.074197 
L 191.020982 124.079188 
L 191.457465 125.084178 
L 191.888865 126.089168 
L 192.314117 127.094158 
L 192.732025 128.099148 
L 193.141258 129.104139 
L 193.540359 130.109129 
L 193.927763 131.114119 
L 194.301817 132.119109 
L 194.66082 133.124099 
L 195.003053 134.12909 
L 195.326826 135.13408 
L 195.630521 136.13907 
L 195.912627 137.14406 
L 196.171782 138.149051 
L 196.406802 139.154041 
L 196.616707 140.159031 
L 196.800728 141.164021 
L 196.958324 142.169011 
L 197.08917 143.174002 
L 197.193148 144.178992 
L 197.270336 145.183982 
L 197.320975 146.188972 
L 197.345455 147.193962 
L 197.344282 148.198953 
L 197.318063 149.203943 
L 197.267478 150.208933 
L 197.193274 151.213923 
L 197.096253 152.218914 
L 196.977271 153.223904 
L 196.837245 154.228894 
L 196.677162 155.233884 
L 196.498095 156.238874 
L 196.301217 157.243865 
L 196.087821 158.248855 
L 195.859332 159.253845 
L 195.617315 160.258835 
L 195.363482 161.263825 
L 195.099681 162.268816 
L 194.827888 163.273806 
L 194.550171 164.278796 
L 194.268667 165.283786 
L 193.985528 166.288776 
L 193.702875 167.293767 
L 193.422739 168.298757 
L 193.147002 169.303747 
L 192.877338 170.308737 
L 192.615157 171.313728 
L 192.361555 172.318718 
L 192.117277 173.323708 
L 191.882685 174.328698 
L 191.657747 175.333688 
L 191.44204 176.338679 
L 191.234761 177.343669 
L 191.034768 178.348659 
L 190.840617 179.353649 
L 190.65063 180.358639 
L 190.462959 181.36363 
L 190.275666 182.36862 
L 190.086796 183.37361 
L 189.894465 184.3786 
L 189.69693 185.383591 
L 189.492656 186.388581 
L 189.280378 187.393571 
L 189.059144 188.398561 
L 188.828345 189.403551 
L 188.58773 190.408542 
L 188.337404 191.413532 
L 188.077812 192.418522 
L 187.80971 193.423512 
L 187.53412 194.428502 
L 187.25228 195.433493 
L 186.965586 196.438483 
L 186.675532 197.443473 
L 186.383646 198.448463 
L 186.091437 199.453454 
L 185.800338 200.458444 
L 185.511667 201.463434 
L 185.22659 202.468424 
L 184.946097 203.473414 
L 184.670992 204.478405 
L 184.401889 205.483395 
L 184.139224 206.488385 
L 183.883265 207.493375 
L 183.634142 208.498365 
L 183.391872 209.503356 
L 183.156391 210.508346 
L 182.927584 211.513336 
L 182.705314 212.518326 
L 182.705314 212.518326 
z
" clip-path="url(#p28c71a3658)" style="fill: none; stroke: #000000; stroke-opacity: 0.3"/>
   </g>
   <g id="FillBetweenPolyCollection_15">
    <path d="M 180.210586 210.345257 
L 178.228575 210.345257 
L 178.113973 208.864224 
L 177.993081 207.383191 
L 177.865508 205.902158 
L 177.730904 204.421125 
L 177.589081 202.940092 
L 177.440137 201.459059 
L 177.284554 199.978026 
L 177.123241 198.496993 
L 176.957512 197.01596 
L 176.78898 195.534927 
L 176.619359 194.053894 
L 176.450201 192.572861 
L 176.282573 191.091828 
L 176.116711 189.610795 
L 175.951702 188.129762 
L 175.785223 186.648729 
L 175.61339 185.167696 
L 175.430748 183.686663 
L 175.230413 182.20563 
L 175.004394 180.724597 
L 174.744055 179.243564 
L 174.440711 177.762531 
L 174.086308 176.281498 
L 173.674126 174.800465 
L 173.199461 173.319432 
L 172.6602 171.838399 
L 172.057246 170.357366 
L 171.394736 168.876333 
L 170.679998 167.3953 
L 169.92326 165.914267 
L 169.137091 164.433234 
L 168.335639 162.952201 
L 167.533724 161.471168 
L 166.745886 159.990135 
L 165.985488 158.509102 
L 165.263979 157.028069 
L 164.590407 155.547036 
L 163.971229 154.066003 
L 163.410427 152.58497 
L 162.909905 151.103937 
L 162.470078 149.622904 
L 162.090563 148.141871 
L 161.770847 146.660838 
L 161.510842 145.179805 
L 161.311231 143.698772 
L 161.173572 142.217739 
L 161.100162 140.736706 
L 161.093706 139.255673 
L 161.156849 137.77464 
L 161.29167 136.293607 
L 161.49922 134.812574 
L 161.779164 133.331541 
L 162.129575 131.850508 
L 162.546897 130.369475 
L 163.026043 128.888442 
L 163.560609 127.407409 
L 164.143149 125.926376 
L 164.765476 124.445343 
L 165.418955 122.96431 
L 166.094766 121.483277 
L 166.784154 120.002244 
L 167.478664 118.521211 
L 168.170383 117.040178 
L 168.852182 115.559145 
L 169.517975 114.078112 
L 170.162956 112.597079 
L 170.783777 111.116046 
L 171.378652 109.635013 
L 171.947318 108.15398 
L 172.490854 106.672947 
L 173.011358 105.191914 
L 173.511492 103.710881 
L 173.993968 102.229848 
L 174.461033 100.748815 
L 174.914016 99.267782 
L 175.353024 97.786749 
L 175.776803 96.305716 
L 176.182807 94.824683 
L 176.567437 93.34365 
L 176.926424 91.862617 
L 177.255294 90.381584 
L 177.549851 88.900551 
L 177.806622 87.419518 
L 178.023212 85.938485 
L 178.198552 84.457452 
L 178.333018 82.976419 
L 178.428444 81.495386 
L 178.488022 80.014353 
L 178.516139 78.53332 
L 178.518139 77.052287 
L 178.500051 75.571254 
L 178.468278 74.090221 
L 178.429278 72.609188 
L 178.389234 71.128155 
L 178.353731 69.647122 
L 178.327475 68.166089 
L 178.314057 66.685056 
L 178.3158 65.204023 
L 178.333696 63.72299 
L 180.105465 63.72299 
L 180.105465 63.72299 
L 180.123361 65.204023 
L 180.125104 66.685056 
L 180.111686 68.166089 
L 180.085429 69.647122 
L 180.049927 71.128155 
L 180.009882 72.609188 
L 179.970883 74.090221 
L 179.93911 75.571254 
L 179.921021 77.052287 
L 179.923022 78.53332 
L 179.951139 80.014353 
L 180.010717 81.495386 
L 180.106143 82.976419 
L 180.240609 84.457452 
L 180.415949 85.938485 
L 180.632539 87.419518 
L 180.889309 88.900551 
L 181.183867 90.381584 
L 181.512737 91.862617 
L 181.871724 93.34365 
L 182.256354 94.824683 
L 182.662358 96.305716 
L 183.086137 97.786749 
L 183.525144 99.267782 
L 183.978128 100.748815 
L 184.445192 102.229848 
L 184.927669 103.710881 
L 185.427803 105.191914 
L 185.948307 106.672947 
L 186.491843 108.15398 
L 187.060509 109.635013 
L 187.655384 111.116046 
L 188.276205 112.597079 
L 188.921185 114.078112 
L 189.586979 115.559145 
L 190.268778 117.040178 
L 190.960496 118.521211 
L 191.655007 120.002244 
L 192.344395 121.483277 
L 193.020206 122.96431 
L 193.673685 124.445343 
L 194.296012 125.926376 
L 194.878552 127.407409 
L 195.413117 128.888442 
L 195.892263 130.369475 
L 196.309586 131.850508 
L 196.659997 133.331541 
L 196.939941 134.812574 
L 197.14749 136.293607 
L 197.282312 137.77464 
L 197.345455 139.255673 
L 197.338999 140.736706 
L 197.265589 142.217739 
L 197.12793 143.698772 
L 196.928318 145.179805 
L 196.668314 146.660838 
L 196.348598 148.141871 
L 195.969082 149.622904 
L 195.529255 151.103937 
L 195.028734 152.58497 
L 194.467932 154.066003 
L 193.848754 155.547036 
L 193.175182 157.028069 
L 192.453673 158.509102 
L 191.693274 159.990135 
L 190.905437 161.471168 
L 190.103522 162.952201 
L 189.30207 164.433234 
L 188.5159 165.914267 
L 187.759162 167.3953 
L 187.044425 168.876333 
L 186.381915 170.357366 
L 185.778961 171.838399 
L 185.2397 173.319432 
L 184.765034 174.800465 
L 184.352853 176.281498 
L 183.99845 177.762531 
L 183.695106 179.243564 
L 183.434767 180.724597 
L 183.208748 182.20563 
L 183.008413 183.686663 
L 182.825771 185.167696 
L 182.653938 186.648729 
L 182.487459 188.129762 
L 182.32245 189.610795 
L 182.156588 191.091828 
L 181.98896 192.572861 
L 181.819802 194.053894 
L 181.650181 195.534927 
L 181.481649 197.01596 
L 181.31592 198.496993 
L 181.154607 199.978026 
L 180.999024 201.459059 
L 180.85008 202.940092 
L 180.708257 204.421125 
L 180.573653 205.902158 
L 180.44608 207.383191 
L 180.325188 208.864224 
L 180.210586 210.345257 
L 180.210586 210.345257 
z
" clip-path="url(#p28c71a3658)" style="fill: none; stroke: #000000; stroke-opacity: 0.3"/>
   </g>
   <g id="matplotlib.axis_1">
    <g id="xtick_1">
     <g id="line2d_1">
      <defs>
       <path id="m4257e585c4" d="M 0 0 
L 0 3.5 
" style="stroke: #000000; stroke-width: 0.8"/>
      </defs>
      <g>
       <use xlink:href="#m4257e585c4" x="58.38042" y="291.6" style="stroke: #000000; stroke-width: 0.8"/>
      </g>
     </g>
     <g id="text_1">
      <text style="font-size: 10px; font-family: 'DejaVu Sans', 'Bitstream Vera Sans', 'Computer Modern Sans Serif', 'Lucida Grande', 'Verdana', 'Geneva', 'Lucid', 'Arial', 'Helvetica', 'Avant Garde', sans-serif; text-anchor: middle" x="58.38042" y="306.198438" transform="rotate(-0 58.38042 306.198438)">-0.3</text>
     </g>
    </g>
    <g id="xtick_2">
     <g id="line2d_2">
      <g>
       <use xlink:href="#m4257e585c4" x="118.8" y="291.6" style="stroke: #000000; stroke-width: 0.8"/>
      </g>
     </g>
     <g id="text_2">
      <text style="font-size: 10px; font-family: 'DejaVu Sans', 'Bitstream Vera Sans', 'Computer Modern Sans Serif', 'Lucida Grande', 'Verdana', 'Geneva', 'Lucid', 'Arial', 'Helvetica', 'Avant Garde', sans-serif; text-anchor: middle" x="118.8" y="306.198438" transform="rotate(-0 118.8 306.198438)">0</text>
     </g>
    </g>
    <g id="xtick_3">
     <g id="line2d_3">
      <g>
       <use xlink:href="#m4257e585c4" x="179.21958" y="291.6" style="stroke: #000000; stroke-width: 0.8"/>
      </g>
     </g>
     <g id="text_3">
      <text style="font-size: 10px; font-family: 'DejaVu Sans', 'Bitstream Vera Sans', 'Computer Modern Sans Serif', 'Lucida Grande', 'Verdana', 'Geneva', 'Lucid', 'Arial', 'Helvetica', 'Avant Garde', sans-serif; text-anchor: middle" x="179.21958" y="306.198438" transform="rotate(-0 179.21958 306.198438)">+0.3</text>
     </g>
    </g>
   </g>
   <g id="matplotlib.axis_2">
    <g id="ytick_1">
     <g id="line2d_4">
      <defs>
       <path id="m9200c86d84" d="M 0 0 
L -3.5 0 
" style="stroke: #000000; stroke-width: 0.8"/>
      </defs>
      <g>
       <use xlink:href="#m9200c86d84" x="32.4" y="291.6" style="stroke: #000000; stroke-width: 0.8"/>
      </g>
     </g>
     <g id="text_4">
      <text style="font-size: 10px; font-family: 'DejaVu Sans', 'Bitstream Vera Sans', 'Computer Modern Sans Serif', 'Lucida Grande', 'Verdana', 'Geneva', 'Lucid', 'Arial', 'Helvetica', 'Avant Garde', sans-serif; text-anchor: end" x="25.4" y="295.399219" transform="rotate(-0 25.4 295.399219)">0.1</text>
     </g>
    </g>
    <g id="ytick_2">
     <g id="line2d_5">
      <g>
       <use xlink:href="#m9200c86d84" x="32.4" y="199.8" style="stroke: #000000; stroke-width: 0.8"/>
      </g>
     </g>
     <g id="text_5">
      <text style="font-size: 10px; font-family: 'DejaVu Sans', 'Bitstream Vera Sans', 'Computer Modern Sans Serif', 'Lucida Grande', 'Verdana', 'Geneva', 'Lucid', 'Arial', 'Helvetica', 'Avant Garde', sans-serif; text-anchor: end" x="25.4" y="203.599219" transform="rotate(-0 25.4 203.599219)">0.2</text>
     </g>
    </g>
    <g id="ytick_3">
     <g id="line2d_6">
      <g>
       <use xlink:href="#m9200c86d84" x="32.4" y="108" style="stroke: #000000; stroke-width: 0.8"/>
      </g>
     </g>
     <g id="text_6">
      <text style="font-size: 10px; font-family: 'DejaVu Sans', 'Bitstream Vera Sans', 'Computer Modern Sans Serif', 'Lucida Grande', 'Verdana', 'Geneva', 'Lucid', 'Arial', 'Helvetica', 'Avant Garde', sans-serif; text-anchor: end" x="25.4" y="111.799219" transform="rotate(-0 25.4 111.799219)">0.3</text>
     </g>
    </g>
    <g id="ytick_4">
     <g id="line2d_7">
      <g>
       <use xlink:href="#m9200c86d84" x="32.4" y="16.2" style="stroke: #000000; stroke-width: 0.8"/>
      </g>
     </g>
     <g id="text_7">
      <text style="font-size: 10px; font-family: 'DejaVu Sans', 'Bitstream Vera Sans', 'Computer Modern Sans Serif', 'Lucida Grande', 'Verdana', 'Geneva', 'Lucid', 'Arial', 'Helvetica', 'Avant Garde', sans-serif; text-anchor: end" x="25.4" y="19.999219" transform="rotate(-0 25.4 19.999219)">0.4</text>
     </g>
    </g>
    <g id="text_8">
     <!-- $E_{f}$ -->
     <g transform="translate(20.848437 160.27) rotate(-90)">
      <text>
       <tspan x="0" y="-0.796875" style="font-style: oblique; font-size: 14px; font-family: 'DejaVu Sans'">E</tspan>
       <tspan x="8.845703" y="1.5" style="font-style: oblique; font-size: 9.8px; font-family: 'DejaVu Sans'">f</tspan>
      </text>
     </g>
    </g>
   </g>
   <g id="line2d_8">
    <path d="M 58.38042 269.568 
L 58.38042 264.06 
" clip-path="url(#p28c71a3658)" style="fill: none; stroke: #000000; stroke-linecap: square"/>
   </g>
   <g id="line2d_9">
    <path d="M 58.38042 269.568 
L 118.8 269.568 
" clip-path="url(#p28c71a3658)" style="fill: none; stroke: #000000; stroke-linecap: square"/>
   </g>
   <g id="line2d_10">
    <path d="M 118.8 269.568 
L 118.8 264.06 
" clip-path="url(#p28c71a3658)" style="fill: none; stroke: #000000; stroke-linecap: square"/>
   </g>
   <g id="line2d_11">
    <path d="M 58.38042 255.798 
L 58.38042 250.29 
" clip-path="url(#p28c71a3658)" style="fill: none; stroke: #000000; stroke-linecap: square"/>
   </g>
   <g id="line2d_12">
    <path d="M 58.38042 255.798 
L 179.21958 255.798 
" clip-path="url(#p28c71a3658)" style="fill: none; stroke: #000000; stroke-linecap: square"/>
   </g>
   <g id="line2d_13">
    <path d="M 179.21958 255.798 
L 179.21958 250.29 
" clip-path="url(#p28c71a3658)" style="fill: none; stroke: #000000; stroke-linecap: square"/>
   </g>
   <g id="line2d_14">
    <path d="M 118.8 242.028 
L 118.8 236.52 
" clip-path="url(#p28c71a3658)" style="fill: none; stroke: #000000; stroke-linecap: square"/>
   </g>
   <g id="line2d_15">
    <path d="M 118.8 242.028 
L 179.21958 242.028 
" clip-path="url(#p28c71a3658)" style="fill: none; stroke: #000000; stroke-linecap: square"/>
   </g>
   <g id="line2d_16">
    <path d="M 179.21958 242.028 
L 179.21958 236.52 
" clip-path="url(#p28c71a3658)" style="fill: none; stroke: #000000; stroke-linecap: square"/>
   </g>
   <g id="patch_3">
    <path d="M 32.4 291.6 
L 32.4 16.2 
" style="fill: none; stroke: #000000; stroke-width: 0.8; stroke-linejoin: miter; stroke-linecap: square"/>
   </g>
   <g id="patch_4">
    <path d="M 205.2 291.6 
L 205.2 16.2 
" style="fill: none; stroke: #000000; stroke-width: 0.8; stroke-linejoin: miter; stroke-linecap: square"/>
   </g>
   <g id="patch_5">
    <path d="M 32.4 291.6 
L 205.2 291.6 
" style="fill: none; stroke: #000000; stroke-width: 0.8; stroke-linejoin: miter; stroke-linecap: square"/>
   </g>
   <g id="patch_6">
    <path d="M 32.4 16.2 
L 205.2 16.2 
" style="fill: none; stroke: #000000; stroke-width: 0.8; stroke-linejoin: miter; stroke-linecap: square"/>
   </g>
   <g id="text_9">
    <text style="font-weight: 700; font-size: 12px; font-family: 'DejaVu Sans', 'Bitstream Vera Sans', 'Computer Modern Sans Serif', 'Lucida Grande', 'Verdana', 'Geneva', 'Lucid', 'Arial', 'Helvetica', 'Avant Garde', sans-serif; text-anchor: middle" x="58.38042" y="289.104375" transform="rotate(-0 58.38042 289.104375)">#20</text>
   </g>
   <g id="text_10">
    <text style="font-weight: 700; font-size: 12px; font-family: 'DejaVu Sans', 'Bitstream Vera Sans', 'Computer Modern Sans Serif', 'Lucida Grande', 'Verdana', 'Geneva', 'Lucid', 'Arial', 'Helvetica', 'Avant Garde', sans-serif; text-anchor: middle" x="118.8" y="289.104375" transform="rotate(-0 118.8 289.104375)">#22</text>
   </g>
   <g id="text_11">
    <text style="font-weight: 700; font-size: 12px; font-family: 'DejaVu Sans', 'Bitstream Vera Sans', 'Computer Modern Sans Serif', 'Lucida Grande', 'Verdana', 'Geneva', 'Lucid', 'Arial', 'Helvetica', 'Avant Garde', sans-serif; text-anchor: middle" x="179.21958" y="289.104375" transform="rotate(-0 179.21958 289.104375)">#24</text>
   </g>
   <g id="text_12">
    <text style="font-size: 12px; font-family: 'DejaVu Sans', 'Bitstream Vera Sans', 'Computer Modern Sans Serif', 'Lucida Grande', 'Verdana', 'Geneva', 'Lucid', 'Arial', 'Helvetica', 'Avant Garde', sans-serif; text-anchor: middle" x="88.59021" y="268.449375" transform="rotate(-0 88.59021 268.449375)">***</text>
   </g>
   <g id="text_13">
    <text style="font-size: 12px; font-family: 'DejaVu Sans', 'Bitstream Vera Sans', 'Computer Modern Sans Serif', 'Lucida Grande', 'Verdana', 'Geneva', 'Lucid', 'Arial', 'Helvetica', 'Avant Garde', sans-serif; text-anchor: middle" x="118.8" y="254.679375" transform="rotate(-0 118.8 254.679375)">***</text>
   </g>
   <g id="text_14">
    <text style="font-size: 12px; font-family: 'DejaVu Sans', 'Bitstream Vera Sans', 'Computer Modern Sans Serif', 'Lucida Grande', 'Verdana', 'Geneva', 'Lucid', 'Arial', 'Helvetica', 'Avant Garde', sans-serif; text-anchor: middle" x="149.00979" y="240.909375" transform="rotate(-0 149.00979 240.909375)">ns</text>
   </g>
   <g id="line2d_17">
    <path d="M 32.4 166.21886 
L 205.2 166.21886 
" clip-path="url(#p28c71a3658)" style="fill: none; stroke-dasharray: 3.7,1.6; stroke-dashoffset: 0; stroke: #808080; stroke-opacity: 0.7"/>
   </g>
   <g id="line2d_18">
    <path d="M 32.4 145.832862 
L 205.2 145.832862 
" clip-path="url(#p28c71a3658)" style="fill: none; stroke-dasharray: 3.7,1.6; stroke-dashoffset: 0; stroke: #808080; stroke-opacity: 0.7"/>
   </g>
   <g id="line2d_19">
    <path d="M 32.4 145.516875 
L 205.2 145.516875 
" clip-path="url(#p28c71a3658)" style="fill: none; stroke-dasharray: 3.7,1.6; stroke-dashoffset: 0; stroke: #808080; stroke-opacity: 0.7"/>
   </g>
   <g id="LineCollection_1">
    <path d="M 58.38042 172.059422 
L 58.38042 160.378298 
" clip-path="url(#p28c71a3658)" style="fill: none; stroke: #000000; stroke-width: 2"/>
   </g>
   <g id="line2d_20">
    <defs>
     <path id="m9f98dc45d5" d="M 5 0 
L -5 -0 
" style="stroke: #000000; stroke-width: 2"/>
    </defs>
    <g clip-path="url(#p28c71a3658)">
     <use xlink:href="#m9f98dc45d5" x="58.38042" y="172.059422" style="stroke: #000000; stroke-width: 2"/>
    </g>
   </g>
   <g id="line2d_21">
    <g clip-path="url(#p28c71a3658)">
     <use xlink:href="#m9f98dc45d5" x="58.38042" y="160.378298" style="stroke: #000000; stroke-width: 2"/>
    </g>
   </g>
   <g id="LineCollection_2">
    <path d="M 118.8 148.916626 
L 118.8 142.749098 
" clip-path="url(#p28c71a3658)" style="fill: none; stroke: #000000; stroke-width: 2"/>
   </g>
   <g id="line2d_22">
    <g clip-path="url(#p28c71a3658)">
     <use xlink:href="#m9f98dc45d5" x="118.8" y="148.916626" style="stroke: #000000; stroke-width: 2"/>
    </g>
   </g>
   <g id="line2d_23">
    <g clip-path="url(#p28c71a3658)">
     <use xlink:href="#m9f98dc45d5" x="118.8" y="142.749098" style="stroke: #000000; stroke-width: 2"/>
    </g>
   </g>
   <g id="LineCollection_3">
    <path d="M 179.21958 151.985913 
L 179.21958 139.047838 
" clip-path="url(#p28c71a3658)" style="fill: none; stroke: #000000; stroke-width: 2"/>
   </g>
   <g id="line2d_24">
    <g clip-path="url(#p28c71a3658)">
     <use xlink:href="#m9f98dc45d5" x="179.21958" y="151.985913" style="stroke: #000000; stroke-width: 2"/>
    </g>
   </g>
   <g id="line2d_25">
    <g clip-path="url(#p28c71a3658)">
     <use xlink:href="#m9f98dc45d5" x="179.21958" y="139.047838" style="stroke: #000000; stroke-width: 2"/>
    </g>
   </g>
   <g id="line2d_26">
    <defs>
     <path id="m7c6a60f077" d="M 0 4 
C 1.060812 4 2.078319 3.578535 2.828427 2.828427 
C 3.578535 2.078319 4 1.060812 4 0 
C 4 -1.060812 3.578535 -2.078319 2.828427 -2.828427 
C 2.078319 -3.578535 1.060812 -4 0 -4 
C -1.060812 -4 -2.078319 -3.578535 -2.828427 -2.828427 
C -3.578535 -2.078319 -4 -1.060812 -4 0 
C -4 1.060812 -3.578535 2.078319 -2.828427 2.828427 
C -2.078319 3.578535 -1.060812 4 0 4 
z
" style="stroke: #000000"/>
    </defs>
    <g clip-path="url(#p28c71a3658)">
     <use xlink:href="#m7c6a60f077" x="58.38042" y="166.21886" style="stroke: #000000"/>
    </g>
   </g>
   <g id="line2d_27">
    <g clip-path="url(#p28c71a3658)">
     <use xlink:href="#m7c6a60f077" x="118.8" y="145.832862" style="stroke: #000000"/>
    </g>
   </g>
   <g id="line2d_28">
    <g clip-path="url(#p28c71a3658)">
     <use xlink:href="#m7c6a60f077" x="179.21958" y="145.516875" style="stroke: #000000"/>
    </g>
   </g>
  </g>
 </g>
 <defs>
  <clipPath id="p28c71a3658">
   <rect x="32.4" y="16.2" width="172.8" height="275.4"/>
  </clipPath>
 </defs>
</svg>
