<?xml version="1.0" encoding="utf-8" standalone="no"?>
<!DOCTYPE svg PUBLIC "-//W3C//DTD SVG 1.1//EN"
  "http://www.w3.org/Graphics/SVG/1.1/DTD/svg11.dtd">
<svg xmlns:xlink="http://www.w3.org/1999/xlink" width="144pt" height="324pt" viewBox="0 0 144 324" xmlns="http://www.w3.org/2000/svg" version="1.1">
 <metadata>
  <rdf:RDF xmlns:dc="http://purl.org/dc/elements/1.1/" xmlns:cc="http://creativecommons.org/ns#" xmlns:rdf="http://www.w3.org/1999/02/22-rdf-syntax-ns#">
   <cc:Work>
    <dc:type rdf:resource="http://purl.org/dc/dcmitype/StillImage"/>
    <dc:date>2025-12-11T09:10:01.742483</dc:date>
    <dc:format>image/svg+xml</dc:format>
    <dc:creator>
     <cc:Agent>
      <dc:title>Matplotlib v3.10.0, https://matplotlib.org/</dc:title>
     </cc:Agent>
    </dc:creator>
   </cc:Work>
  </rdf:RDF>
 </metadata>
 <defs>
  <style type="text/css">*{stroke-linejoin: round; stroke-linecap: butt}</style>
 </defs>
 <g id="figure_1">
  <g id="patch_1">
   <path d="M 0 324 
L 144 324 
L 144 0 
L 0 0 
z
" style="fill: #ffffff"/>
  </g>
  <g id="axes_1">
   <g id="patch_2">
    <path d="M 21.6 291.6 
L 136.8 291.6 
L 136.8 16.2 
L 21.6 16.2 
z
" style="fill: #ffffff"/>
   </g>
   <g id="FillBetweenPolyCollection_1">
    <path d="M 51.861774 221.033567 
L 48.938226 221.033567 
L 48.747623 219.948978 
L 48.542825 218.864388 
L 48.324177 217.779799 
L 48.092524 216.69521 
L 47.849263 215.61062 
L 47.596318 214.526031 
L 47.336025 213.441442 
L 47.070914 212.356852 
L 46.80342 211.272263 
L 46.535556 210.187674 
L 46.268598 209.103085 
L 46.002828 208.018495 
L 45.737395 206.933906 
L 45.470328 205.849317 
L 45.198698 204.764727 
L 44.918939 203.680138 
L 44.627276 202.595549 
L 44.32021 201.510959 
L 43.994988 200.42637 
L 43.649992 199.341781 
L 43.284985 198.257191 
L 42.901169 197.172602 
L 42.50105 196.088013 
L 42.088107 195.003423 
L 41.666315 193.918834 
L 41.239587 192.834245 
L 40.811205 191.749655 
L 40.383337 190.665066 
L 39.956706 189.580477 
L 39.530479 188.495887 
L 39.102411 187.411298 
L 38.66924 186.326709 
L 38.227314 185.242119 
L 37.773367 184.15753 
L 37.305364 183.072941 
L 36.823309 181.988351 
L 36.329899 180.903762 
L 35.830937 179.819173 
L 35.335414 178.734583 
L 34.855248 177.649994 
L 34.404651 176.565405 
L 33.999189 175.480815 
L 33.65462 174.396226 
L 33.385606 173.311637 
L 33.204453 172.227047 
L 33.12 171.142458 
L 33.136782 170.057869 
L 33.254565 168.97328 
L 33.468308 167.88869 
L 33.768548 166.804101 
L 34.142185 165.719512 
L 34.573576 164.634922 
L 35.045817 163.550333 
L 35.542081 162.465744 
L 36.046878 161.381154 
L 36.547101 160.296565 
L 37.032771 159.211976 
L 37.497424 158.127386 
L 37.938117 157.042797 
L 38.355093 155.958208 
L 38.751174 154.873618 
L 39.130965 153.789029 
L 39.499989 152.70444 
L 39.863847 151.61985 
L 40.227516 150.535261 
L 40.594822 149.450672 
L 40.968158 148.366082 
L 41.348422 147.281493 
L 41.735174 146.196904 
L 42.126931 145.112314 
L 42.521565 144.027725 
L 42.916713 142.943136 
L 43.31014 141.858546 
L 43.700005 140.773957 
L 44.085006 139.689368 
L 44.464382 138.604778 
L 44.837805 137.520189 
L 45.205178 136.4356 
L 45.566406 135.35101 
L 45.921151 134.266421 
L 46.268661 133.181832 
L 46.607657 132.097242 
L 46.93634 131.012653 
L 47.252477 129.928064 
L 47.553587 128.843475 
L 47.837165 127.758885 
L 48.100943 126.674296 
L 48.343121 125.589707 
L 48.562561 124.505117 
L 48.758901 123.420528 
L 48.932595 122.335939 
L 49.084866 121.251349 
L 49.217588 120.16676 
L 49.333108 119.082171 
L 49.434051 117.997581 
L 49.523104 116.912992 
L 49.602821 115.828403 
L 49.675468 114.743813 
L 49.742902 113.659224 
L 51.057098 113.659224 
L 51.057098 113.659224 
L 51.124532 114.743813 
L 51.197179 115.828403 
L 51.276896 116.912992 
L 51.365949 117.997581 
L 51.466892 119.082171 
L 51.582412 120.16676 
L 51.715134 121.251349 
L 51.867405 122.335939 
L 52.041099 123.420528 
L 52.237439 124.505117 
L 52.456879 125.589707 
L 52.699057 126.674296 
L 52.962835 127.758885 
L 53.246413 128.843475 
L 53.547523 129.928064 
L 53.86366 131.012653 
L 54.192343 132.097242 
L 54.531339 133.181832 
L 54.878849 134.266421 
L 55.233594 135.35101 
L 55.594822 136.4356 
L 55.962195 137.520189 
L 56.335618 138.604778 
L 56.714994 139.689368 
L 57.099995 140.773957 
L 57.48986 141.858546 
L 57.883287 142.943136 
L 58.278435 144.027725 
L 58.673069 145.112314 
L 59.064826 146.196904 
L 59.451578 147.281493 
L 59.831842 148.366082 
L 60.205178 149.450672 
L 60.572484 150.535261 
L 60.936153 151.61985 
L 61.300011 152.70444 
L 61.669035 153.789029 
L 62.048826 154.873618 
L 62.444907 155.958208 
L 62.861883 157.042797 
L 63.302576 158.127386 
L 63.767229 159.211976 
L 64.252899 160.296565 
L 64.753122 161.381154 
L 65.257919 162.465744 
L 65.754183 163.550333 
L 66.226424 164.634922 
L 66.657815 165.719512 
L 67.031452 166.804101 
L 67.331692 167.88869 
L 67.545435 168.97328 
L 67.663218 170.057869 
L 67.68 171.142458 
L 67.595547 172.227047 
L 67.414394 173.311637 
L 67.14538 174.396226 
L 66.800811 175.480815 
L 66.395349 176.565405 
L 65.944752 177.649994 
L 65.464586 178.734583 
L 64.969063 179.819173 
L 64.470101 180.903762 
L 63.976691 181.988351 
L 63.494636 183.072941 
L 63.026633 184.15753 
L 62.572686 185.242119 
L 62.13076 186.326709 
L 61.697589 187.411298 
L 61.269521 188.495887 
L 60.843294 189.580477 
L 60.416663 190.665066 
L 59.988795 191.749655 
L 59.560413 192.834245 
L 59.133685 193.918834 
L 58.711893 195.003423 
L 58.29895 196.088013 
L 57.898831 197.172602 
L 57.515015 198.257191 
L 57.150008 199.341781 
L 56.805012 200.42637 
L 56.47979 201.510959 
L 56.172724 202.595549 
L 55.881061 203.680138 
L 55.601302 204.764727 
L 55.329672 205.849317 
L 55.062605 206.933906 
L 54.797172 208.018495 
L 54.531402 209.103085 
L 54.264444 210.187674 
L 53.99658 211.272263 
L 53.729086 212.356852 
L 53.463975 213.441442 
L 53.203682 214.526031 
L 52.950737 215.61062 
L 52.707476 216.69521 
L 52.475823 217.779799 
L 52.257175 218.864388 
L 52.052377 219.948978 
L 51.861774 221.033567 
L 51.861774 221.033567 
z
" clip-path="url(#pb67147d994)" style="fill: none; stroke: #000000; stroke-opacity: 0.3"/>
   </g>
   <g id="FillBetweenPolyCollection_2">
    <path d="M 50.674585 266.609067 
L 50.125415 266.609067 
L 50.127146 265.090201 
L 50.136503 263.571335 
L 50.151291 262.052469 
L 50.168532 260.533603 
L 50.184949 259.014738 
L 50.197493 257.495872 
L 50.20385 255.977006 
L 50.20281 254.45814 
L 50.194446 252.939275 
L 50.180074 251.420409 
L 50.161983 249.901543 
L 50.142988 248.382677 
L 50.125881 246.863812 
L 50.112871 245.344946 
L 50.105125 243.82608 
L 50.102503 242.307214 
L 50.103544 240.788348 
L 50.105696 239.269483 
L 50.105747 237.750617 
L 50.100343 236.231751 
L 50.086478 234.712885 
L 50.061846 233.19402 
L 50.024981 231.675154 
L 49.975176 230.156288 
L 49.912219 228.637422 
L 49.836034 227.118557 
L 49.746299 225.599691 
L 49.642127 224.080825 
L 49.521833 222.561959 
L 49.382781 221.043093 
L 49.221295 219.524228 
L 49.032597 218.005362 
L 48.810797 216.486496 
L 48.548954 214.96763 
L 48.239287 213.448765 
L 47.87356 211.929899 
L 47.44367 210.411033 
L 46.942363 208.892167 
L 46.363974 207.373302 
L 45.705078 205.854436 
L 44.96496 204.33557 
L 44.145899 202.816704 
L 43.253336 201.297838 
L 42.296021 199.778973 
L 41.286204 198.260107 
L 40.239878 196.741241 
L 39.176933 195.222375 
L 38.12106 193.70351 
L 37.099195 192.184644 
L 36.140413 190.665778 
L 35.274254 189.146912 
L 34.528602 187.628047 
L 33.927319 186.109181 
L 33.487856 184.590315 
L 33.219133 183.071449 
L 33.12 181.552584 
L 33.178642 180.033718 
L 33.373289 178.514852 
L 33.674466 176.995986 
L 34.048716 175.47712 
L 34.46337 173.958255 
L 34.891475 172.439389 
L 35.315772 170.920523 
L 35.730667 169.401657 
L 36.14155 167.882792 
L 36.561497 166.363926 
L 37.006159 164.84506 
L 37.488205 163.326194 
L 38.012838 161.807329 
L 38.575645 160.288463 
L 39.163313 158.769597 
L 39.75692 157.250731 
L 40.336771 155.731865 
L 40.88733 154.213 
L 41.40086 152.694134 
L 41.878826 151.175268 
L 42.330809 149.656402 
L 42.771395 148.137537 
L 43.215992 146.618671 
L 43.676744 145.099805 
L 44.159547 143.580939 
L 44.662772 142.062074 
L 45.177814 140.543208 
L 45.691111 139.024342 
L 46.186982 137.505476 
L 46.65057 135.98661 
L 47.070259 134.467745 
L 47.43918 132.948879 
L 47.755666 131.430013 
L 48.022796 129.911147 
L 48.247266 128.392282 
L 48.437926 126.873416 
L 48.60429 125.35455 
L 48.755249 123.835684 
L 48.898124 122.316819 
L 49.038114 120.797953 
L 49.178114 119.279087 
L 49.318853 117.760221 
L 49.459262 116.241355 
L 51.340738 116.241355 
L 51.340738 116.241355 
L 51.481147 117.760221 
L 51.621886 119.279087 
L 51.761886 120.797953 
L 51.901876 122.316819 
L 52.044751 123.835684 
L 52.19571 125.35455 
L 52.362074 126.873416 
L 52.552734 128.392282 
L 52.777204 129.911147 
L 53.044334 131.430013 
L 53.36082 132.948879 
L 53.729741 134.467745 
L 54.14943 135.98661 
L 54.613018 137.505476 
L 55.108889 139.024342 
L 55.622186 140.543208 
L 56.137228 142.062074 
L 56.640453 143.580939 
L 57.123256 145.099805 
L 57.584008 146.618671 
L 58.028605 148.137537 
L 58.469191 149.656402 
L 58.921174 151.175268 
L 59.39914 152.694134 
L 59.91267 154.213 
L 60.463229 155.731865 
L 61.04308 157.250731 
L 61.636687 158.769597 
L 62.224355 160.288463 
L 62.787162 161.807329 
L 63.311795 163.326194 
L 63.793841 164.84506 
L 64.238503 166.363926 
L 64.65845 167.882792 
L 65.069333 169.401657 
L 65.484228 170.920523 
L 65.908525 172.439389 
L 66.33663 173.958255 
L 66.751284 175.47712 
L 67.125534 176.995986 
L 67.426711 178.514852 
L 67.621358 180.033718 
L 67.68 181.552584 
L 67.580867 183.071449 
L 67.312144 184.590315 
L 66.872681 186.109181 
L 66.271398 187.628047 
L 65.525746 189.146912 
L 64.659587 190.665778 
L 63.700805 192.184644 
L 62.67894 193.70351 
L 61.623067 195.222375 
L 60.560122 196.741241 
L 59.513796 198.260107 
L 58.503979 199.778973 
L 57.546664 201.297838 
L 56.654101 202.816704 
L 55.83504 204.33557 
L 55.094922 205.854436 
L 54.436026 207.373302 
L 53.857637 208.892167 
L 53.35633 210.411033 
L 52.92644 211.929899 
L 52.560713 213.448765 
L 52.251046 214.96763 
L 51.989203 216.486496 
L 51.767403 218.005362 
L 51.578705 219.524228 
L 51.417219 221.043093 
L 51.278167 222.561959 
L 51.157873 224.080825 
L 51.053701 225.599691 
L 50.963966 227.118557 
L 50.887781 228.637422 
L 50.824824 230.156288 
L 50.775019 231.675154 
L 50.738154 233.19402 
L 50.713522 234.712885 
L 50.699657 236.231751 
L 50.694253 237.750617 
L 50.694304 239.269483 
L 50.696456 240.788348 
L 50.697497 242.307214 
L 50.694875 243.82608 
L 50.687129 245.344946 
L 50.674119 246.863812 
L 50.657012 248.382677 
L 50.638017 249.901543 
L 50.619926 251.420409 
L 50.605554 252.939275 
L 50.59719 254.45814 
L 50.59615 255.977006 
L 50.602507 257.495872 
L 50.615051 259.014738 
L 50.631468 260.533603 
L 50.648709 262.052469 
L 50.663497 263.571335 
L 50.672854 265.090201 
L 50.674585 266.609067 
L 50.674585 266.609067 
z
" clip-path="url(#pb67147d994)" style="fill: none; stroke: #000000; stroke-opacity: 0.3"/>
   </g>
   <g id="FillBetweenPolyCollection_3">
    <path d="M 50.743562 294.231824 
L 50.056438 294.231824 
L 50.064178 291.996309 
L 50.086367 289.760794 
L 50.120139 287.525279 
L 50.1614 285.289765 
L 50.205639 283.05425 
L 50.24873 280.818735 
L 50.287512 278.58322 
L 50.320077 276.347705 
L 50.345745 274.112191 
L 50.36481 271.876676 
L 50.378192 269.641161 
L 50.387086 267.405646 
L 50.39269 265.170131 
L 50.396038 262.934617 
L 50.397925 260.699102 
L 50.398904 258.463587 
L 50.399313 256.228072 
L 50.399303 253.992557 
L 50.398858 251.757043 
L 50.397776 249.521528 
L 50.39562 247.286013 
L 50.391634 245.050498 
L 50.38463 242.814983 
L 50.372861 240.579469 
L 50.353911 238.343954 
L 50.32463 236.108439 
L 50.281126 233.872924 
L 50.218814 231.637409 
L 50.132478 229.401894 
L 50.016266 227.16638 
L 49.863512 224.930865 
L 49.666346 222.69535 
L 49.41513 220.459835 
L 49.09793 218.22432 
L 48.700392 215.988806 
L 48.206433 213.753291 
L 47.600059 211.517776 
L 46.868334 209.282261 
L 46.005034 207.046746 
L 45.014156 204.811232 
L 43.912205 202.575717 
L 42.728331 200.340202 
L 41.501907 198.104687 
L 40.277841 195.869172 
L 39.100589 193.633658 
L 38.008221 191.398143 
L 37.02788 189.162628 
L 36.17357 186.927113 
L 35.446622 184.691598 
L 34.838561 182.456084 
L 34.335642 180.220569 
L 33.923977 177.985054 
L 33.594159 175.749539 
L 33.344401 173.514024 
L 33.181569 171.278509 
L 33.12 169.042995 
L 33.178529 166.80748 
L 33.376512 164.571965 
L 33.729798 162.33645 
L 34.247403 160.100935 
L 34.929328 157.865421 
L 35.765617 155.629906 
L 36.736499 153.394391 
L 37.813473 151.158876 
L 38.961183 148.923361 
L 40.140018 146.687847 
L 41.309293 144.452332 
L 42.430717 142.216817 
L 43.471721 139.981302 
L 44.408143 137.745787 
L 45.225819 135.510273 
L 45.920863 133.274758 
L 46.498629 131.039243 
L 46.971635 128.803728 
L 47.356842 126.568213 
L 47.672779 124.332699 
L 47.936937 122.097184 
L 48.163783 119.861669 
L 48.363612 117.626154 
L 48.542318 115.390639 
L 48.702021 113.155125 
L 48.842348 110.91961 
L 48.962051 108.684095 
L 49.060571 106.44858 
L 49.139185 104.213065 
L 49.201453 101.97755 
L 49.252878 99.742036 
L 49.299883 97.506521 
L 49.348423 95.271006 
L 49.402667 93.035491 
L 49.464153 90.799976 
L 49.5317 88.564462 
L 49.602111 86.328947 
L 49.67141 84.093432 
L 49.736209 81.857917 
L 49.794744 79.622402 
L 49.847252 77.386888 
L 49.895633 75.151373 
L 49.942572 72.915858 
L 50.857428 72.915858 
L 50.857428 72.915858 
L 50.904367 75.151373 
L 50.952748 77.386888 
L 51.005256 79.622402 
L 51.063791 81.857917 
L 51.12859 84.093432 
L 51.197889 86.328947 
L 51.2683 88.564462 
L 51.335847 90.799976 
L 51.397333 93.035491 
L 51.451577 95.271006 
L 51.500117 97.506521 
L 51.547122 99.742036 
L 51.598547 101.97755 
L 51.660815 104.213065 
L 51.739429 106.44858 
L 51.837949 108.684095 
L 51.957652 110.91961 
L 52.097979 113.155125 
L 52.257682 115.390639 
L 52.436388 117.626154 
L 52.636217 119.861669 
L 52.863063 122.097184 
L 53.127221 124.332699 
L 53.443158 126.568213 
L 53.828365 128.803728 
L 54.301371 131.039243 
L 54.879137 133.274758 
L 55.574181 135.510273 
L 56.391857 137.745787 
L 57.328279 139.981302 
L 58.369283 142.216817 
L 59.490707 144.452332 
L 60.659982 146.687847 
L 61.838817 148.923361 
L 62.986527 151.158876 
L 64.063501 153.394391 
L 65.034383 155.629906 
L 65.870672 157.865421 
L 66.552597 160.100935 
L 67.070202 162.33645 
L 67.423488 164.571965 
L 67.621471 166.80748 
L 67.68 169.042995 
L 67.618431 171.278509 
L 67.455599 173.514024 
L 67.205841 175.749539 
L 66.876023 177.985054 
L 66.464358 180.220569 
L 65.961439 182.456084 
L 65.353378 184.691598 
L 64.62643 186.927113 
L 63.77212 189.162628 
L 62.791779 191.398143 
L 61.699411 193.633658 
L 60.522159 195.869172 
L 59.298093 198.104687 
L 58.071669 200.340202 
L 56.887795 202.575717 
L 55.785844 204.811232 
L 54.794966 207.046746 
L 53.931666 209.282261 
L 53.199941 211.517776 
L 52.593567 213.753291 
L 52.099608 215.988806 
L 51.70207 218.22432 
L 51.38487 220.459835 
L 51.133654 222.69535 
L 50.936488 224.930865 
L 50.783734 227.16638 
L 50.667522 229.401894 
L 50.581186 231.637409 
L 50.518874 233.872924 
L 50.47537 236.108439 
L 50.446089 238.343954 
L 50.427139 240.579469 
L 50.41537 242.814983 
L 50.408366 245.050498 
L 50.40438 247.286013 
L 50.402224 249.521528 
L 50.401142 251.757043 
L 50.400697 253.992557 
L 50.400687 256.228072 
L 50.401096 258.463587 
L 50.402075 260.699102 
L 50.403962 262.934617 
L 50.40731 265.170131 
L 50.412914 267.405646 
L 50.421808 269.641161 
L 50.43519 271.876676 
L 50.454255 274.112191 
L 50.479923 276.347705 
L 50.512488 278.58322 
L 50.55127 280.818735 
L 50.594361 283.05425 
L 50.6386 285.289765 
L 50.679861 287.525279 
L 50.713633 289.760794 
L 50.735822 291.996309 
L 50.743562 294.231824 
L 50.743562 294.231824 
z
" clip-path="url(#pb67147d994)" style="fill: none; stroke: #000000; stroke-opacity: 0.3"/>
   </g>
   <g id="FillBetweenPolyCollection_4">
    <path d="M 50.646215 242.382839 
L 50.153785 242.382839 
L 50.156082 241.093519 
L 50.165228 239.804199 
L 50.179479 238.514878 
L 50.196373 237.225558 
L 50.213035 235.936238 
L 50.226527 234.646917 
L 50.234179 233.357597 
L 50.233852 232.068277 
L 50.224089 230.778957 
L 50.204134 229.489636 
L 50.17383 228.200316 
L 50.133391 226.910996 
L 50.083104 225.621675 
L 50.02298 224.332355 
L 49.952429 223.043035 
L 49.869993 221.753714 
L 49.773198 220.464394 
L 49.658538 219.175074 
L 49.521607 217.885754 
L 49.357347 216.596433 
L 49.160389 215.307113 
L 48.925464 214.017793 
L 48.647844 212.728472 
L 48.323833 211.439152 
L 47.951292 210.149832 
L 47.530185 208.860512 
L 47.063087 207.571191 
L 46.555561 206.281871 
L 46.016248 204.992551 
L 45.45654 203.70323 
L 44.889723 202.41391 
L 44.329608 201.12459 
L 43.788772 199.83527 
L 43.276675 198.545949 
L 42.798005 197.256629 
L 42.351603 195.967309 
L 41.93026 194.677988 
L 41.52152 193.388668 
L 41.109445 192.099348 
L 40.677111 190.810028 
L 40.209474 189.520707 
L 39.696137 188.231387 
L 39.133587 186.942067 
L 38.526498 185.652746 
L 37.887858 184.363426 
L 37.237837 183.074106 
L 36.601484 181.784786 
L 36.00555 180.495465 
L 35.474832 179.206145 
L 35.028582 177.916825 
L 34.677514 176.627504 
L 34.421954 175.338184 
L 34.251527 174.048864 
L 34.146573 172.759544 
L 34.08124 171.470223 
L 34.027828 170.180903 
L 33.961699 168.891583 
L 33.86589 167.602262 
L 33.73451 166.312942 
L 33.574226 165.023622 
L 33.403507 163.734301 
L 33.249738 162.444981 
L 33.1448 161.155661 
L 33.12 159.866341 
L 33.201364 158.57702 
L 33.406146 157.2877 
L 33.741104 155.99838 
L 34.202664 154.709059 
L 34.778679 153.419739 
L 35.451194 152.130419 
L 36.199515 150.841099 
L 37.002911 149.551778 
L 37.842528 148.262458 
L 38.70232 146.973138 
L 39.569096 145.683817 
L 40.43197 144.394497 
L 41.281561 143.105177 
L 42.109267 141.815857 
L 42.906809 140.526536 
L 43.666124 139.237216 
L 44.379543 137.947896 
L 45.040163 136.658575 
L 45.642285 135.369255 
L 46.18184 134.079935 
L 46.656769 132.790615 
L 47.067303 131.501294 
L 47.416134 130.211974 
L 47.708405 128.922654 
L 47.951462 127.633333 
L 48.154345 126.344013 
L 48.327018 125.054693 
L 48.479431 123.765373 
L 48.620563 122.476052 
L 48.757618 121.186732 
L 48.895491 119.897412 
L 49.036613 118.608091 
L 49.181134 117.318771 
L 49.327393 116.029451 
L 49.472524 114.74013 
L 51.327476 114.74013 
L 51.327476 114.74013 
L 51.472607 116.029451 
L 51.618866 117.318771 
L 51.763387 118.608091 
L 51.904509 119.897412 
L 52.042382 121.186732 
L 52.179437 122.476052 
L 52.320569 123.765373 
L 52.472982 125.054693 
L 52.645655 126.344013 
L 52.848538 127.633333 
L 53.091595 128.922654 
L 53.383866 130.211974 
L 53.732697 131.501294 
L 54.143231 132.790615 
L 54.61816 134.079935 
L 55.157715 135.369255 
L 55.759837 136.658575 
L 56.420457 137.947896 
L 57.133876 139.237216 
L 57.893191 140.526536 
L 58.690733 141.815857 
L 59.518439 143.105177 
L 60.36803 144.394497 
L 61.230904 145.683817 
L 62.09768 146.973138 
L 62.957472 148.262458 
L 63.797089 149.551778 
L 64.600485 150.841099 
L 65.348806 152.130419 
L 66.021321 153.419739 
L 66.597336 154.709059 
L 67.058896 155.99838 
L 67.393854 157.2877 
L 67.598636 158.57702 
L 67.68 159.866341 
L 67.6552 161.155661 
L 67.550262 162.444981 
L 67.396493 163.734301 
L 67.225774 165.023622 
L 67.06549 166.312942 
L 66.93411 167.602262 
L 66.838301 168.891583 
L 66.772172 170.180903 
L 66.71876 171.470223 
L 66.653427 172.759544 
L 66.548473 174.048864 
L 66.378046 175.338184 
L 66.122486 176.627504 
L 65.771418 177.916825 
L 65.325168 179.206145 
L 64.79445 180.495465 
L 64.198516 181.784786 
L 63.562163 183.074106 
L 62.912142 184.363426 
L 62.273502 185.652746 
L 61.666413 186.942067 
L 61.103863 188.231387 
L 60.590526 189.520707 
L 60.122889 190.810028 
L 59.690555 192.099348 
L 59.27848 193.388668 
L 58.86974 194.677988 
L 58.448397 195.967309 
L 58.001995 197.256629 
L 57.523325 198.545949 
L 57.011228 199.83527 
L 56.470392 201.12459 
L 55.910277 202.41391 
L 55.34346 203.70323 
L 54.783752 204.992551 
L 54.244439 206.281871 
L 53.736913 207.571191 
L 53.269815 208.860512 
L 52.848708 210.149832 
L 52.476167 211.439152 
L 52.152156 212.728472 
L 51.874536 214.017793 
L 51.639611 215.307113 
L 51.442653 216.596433 
L 51.278393 217.885754 
L 51.141462 219.175074 
L 51.026802 220.464394 
L 50.930007 221.753714 
L 50.847571 223.043035 
L 50.77702 224.332355 
L 50.716896 225.621675 
L 50.666609 226.910996 
L 50.62617 228.200316 
L 50.595866 229.489636 
L 50.575911 230.778957 
L 50.566148 232.068277 
L 50.565821 233.357597 
L 50.573473 234.646917 
L 50.586965 235.936238 
L 50.603627 237.225558 
L 50.620521 238.514878 
L 50.634772 239.804199 
L 50.643918 241.093519 
L 50.646215 242.382839 
L 50.646215 242.382839 
z
" clip-path="url(#pb67147d994)" style="fill: none; stroke: #000000; stroke-opacity: 0.3"/>
   </g>
   <g id="FillBetweenPolyCollection_5">
    <path d="M 51.778961 223.760572 
L 49.021039 223.760572 
L 48.842742 222.654742 
L 48.653536 221.548913 
L 48.45242 220.443083 
L 48.238089 219.337254 
L 48.009149 218.231424 
L 47.764407 217.125595 
L 47.503182 216.019765 
L 47.22559 214.913936 
L 46.932735 213.808106 
L 46.62678 212.702277 
L 46.310833 211.596447 
L 45.988685 210.490618 
L 45.664378 209.384788 
L 45.341694 208.278959 
L 45.02361 207.173129 
L 44.711812 206.0673 
L 44.406345 204.96147 
L 44.105453 203.855641 
L 43.805647 202.749811 
L 43.501993 201.643982 
L 43.188581 200.538152 
L 42.859111 199.432323 
L 42.507517 198.326493 
L 42.128536 197.220664 
L 41.718173 196.114834 
L 41.274005 195.009005 
L 40.795322 193.903175 
L 40.283136 192.797346 
L 39.740088 191.691516 
L 39.17031 190.585687 
L 38.579297 189.479857 
L 37.9738 188.374028 
L 37.361759 187.268198 
L 36.752238 186.162369 
L 36.155333 185.056539 
L 35.582006 183.95071 
L 35.043795 182.84488 
L 34.552403 181.739051 
L 34.119161 180.633221 
L 33.754419 179.527392 
L 33.466915 178.421562 
L 33.263205 177.315733 
L 33.147217 176.209903 
L 33.12 175.104074 
L 33.179678 173.998244 
L 33.321626 172.892415 
L 33.538831 171.786585 
L 33.822387 170.680756 
L 34.162075 169.574926 
L 34.54694 168.469097 
L 34.965844 167.363267 
L 35.407939 166.257438 
L 35.863063 165.151609 
L 36.322056 164.045779 
L 36.777022 162.93995 
L 37.221548 161.83412 
L 37.6509 160.728291 
L 38.062178 159.622461 
L 38.454416 158.516632 
L 38.828587 157.410802 
L 39.187475 156.304973 
L 39.535385 155.199143 
L 39.877677 154.093314 
L 40.220158 152.987484 
L 40.568378 151.881655 
L 40.92692 150.775825 
L 41.29878 149.669996 
L 41.684932 148.564166 
L 42.084153 147.458337 
L 42.493142 146.352507 
L 42.906919 145.246678 
L 43.319456 144.140848 
L 43.724438 143.035019 
L 44.11605 141.929189 
L 44.489659 140.82336 
L 44.842309 139.71753 
L 45.172954 138.611701 
L 45.482412 137.505871 
L 45.773063 136.400042 
L 46.048352 135.294212 
L 46.312184 134.188383 
L 46.568309 133.082553 
L 46.819782 131.976724 
L 47.068585 130.870894 
L 47.315434 129.765065 
L 47.559791 128.659235 
L 47.800055 127.553406 
L 48.033889 126.447576 
L 48.258611 125.341747 
L 48.471598 124.235917 
L 48.670633 123.130088 
L 48.854156 122.024258 
L 49.021406 120.918429 
L 49.172427 119.812599 
L 49.307977 118.70677 
L 49.429359 117.60094 
L 49.538207 116.495111 
L 49.636263 115.389281 
L 49.725184 114.283452 
L 51.074816 114.283452 
L 51.074816 114.283452 
L 51.163737 115.389281 
L 51.261793 116.495111 
L 51.370641 117.60094 
L 51.492023 118.70677 
L 51.627573 119.812599 
L 51.778594 120.918429 
L 51.945844 122.024258 
L 52.129367 123.130088 
L 52.328402 124.235917 
L 52.541389 125.341747 
L 52.766111 126.447576 
L 52.999945 127.553406 
L 53.240209 128.659235 
L 53.484566 129.765065 
L 53.731415 130.870894 
L 53.980218 131.976724 
L 54.231691 133.082553 
L 54.487816 134.188383 
L 54.751648 135.294212 
L 55.026937 136.400042 
L 55.317588 137.505871 
L 55.627046 138.611701 
L 55.957691 139.71753 
L 56.310341 140.82336 
L 56.68395 141.929189 
L 57.075562 143.035019 
L 57.480544 144.140848 
L 57.893081 145.246678 
L 58.306858 146.352507 
L 58.715847 147.458337 
L 59.115068 148.564166 
L 59.50122 149.669996 
L 59.87308 150.775825 
L 60.231622 151.881655 
L 60.579842 152.987484 
L 60.922323 154.093314 
L 61.264615 155.199143 
L 61.612525 156.304973 
L 61.971413 157.410802 
L 62.345584 158.516632 
L 62.737822 159.622461 
L 63.1491 160.728291 
L 63.578452 161.83412 
L 64.022978 162.93995 
L 64.477944 164.045779 
L 64.936937 165.151609 
L 65.392061 166.257438 
L 65.834156 167.363267 
L 66.25306 168.469097 
L 66.637925 169.574926 
L 66.977613 170.680756 
L 67.261169 171.786585 
L 67.478374 172.892415 
L 67.620322 173.998244 
L 67.68 175.104074 
L 67.652783 176.209903 
L 67.536795 177.315733 
L 67.333085 178.421562 
L 67.045581 179.527392 
L 66.680839 180.633221 
L 66.247597 181.739051 
L 65.756205 182.84488 
L 65.217994 183.95071 
L 64.644667 185.056539 
L 64.047762 186.162369 
L 63.438241 187.268198 
L 62.8262 188.374028 
L 62.220703 189.479857 
L 61.62969 190.585687 
L 61.059912 191.691516 
L 60.516864 192.797346 
L 60.004678 193.903175 
L 59.525995 195.009005 
L 59.081827 196.114834 
L 58.671464 197.220664 
L 58.292483 198.326493 
L 57.940889 199.432323 
L 57.611419 200.538152 
L 57.298007 201.643982 
L 56.994353 202.749811 
L 56.694547 203.855641 
L 56.393655 204.96147 
L 56.088188 206.0673 
L 55.77639 207.173129 
L 55.458306 208.278959 
L 55.135622 209.384788 
L 54.811315 210.490618 
L 54.489167 211.596447 
L 54.17322 212.702277 
L 53.867265 213.808106 
L 53.57441 214.913936 
L 53.296818 216.019765 
L 53.035593 217.125595 
L 52.790851 218.231424 
L 52.561911 219.337254 
L 52.34758 220.443083 
L 52.146464 221.548913 
L 51.957258 222.654742 
L 51.778961 223.760572 
L 51.778961 223.760572 
z
" clip-path="url(#pb67147d994)" style="fill: none; stroke: #000000; stroke-opacity: 0.3"/>
   </g>
   <g id="FillBetweenPolyCollection_6">
    <path d="M 54.061678 218.74762 
L 46.738322 218.74762 
L 46.443418 217.883603 
L 46.14715 217.019587 
L 45.850258 216.15557 
L 45.553025 215.291553 
L 45.25528 214.427537 
L 44.956427 213.56352 
L 44.6555 212.699504 
L 44.351243 211.835487 
L 44.042208 210.97147 
L 43.726845 210.107454 
L 43.403615 209.243437 
L 43.071073 208.37942 
L 42.727958 207.515404 
L 42.373253 206.651387 
L 42.006238 205.78737 
L 41.626522 204.923354 
L 41.234058 204.059337 
L 40.829155 203.19532 
L 40.412472 202.331304 
L 39.985015 201.467287 
L 39.548126 200.603271 
L 39.10348 199.739254 
L 38.653075 198.875237 
L 38.199229 198.011221 
L 37.74457 197.147204 
L 37.292031 196.283187 
L 36.844827 195.419171 
L 36.406432 194.555154 
L 35.980538 193.691137 
L 35.571 192.827121 
L 35.181761 191.963104 
L 34.816766 191.099088 
L 34.479852 190.235071 
L 34.174631 189.371054 
L 33.904357 188.507038 
L 33.671789 187.643021 
L 33.479054 186.779004 
L 33.327518 185.914988 
L 33.217665 185.050971 
L 33.149005 184.186954 
L 33.12 183.322938 
L 33.128036 182.458921 
L 33.169429 181.594904 
L 33.239478 180.730888 
L 33.332578 179.866871 
L 33.442371 179.002855 
L 33.561955 178.138838 
L 33.684142 177.274821 
L 33.801741 176.410805 
L 33.907877 175.546788 
L 33.996315 174.682771 
L 34.061778 173.818755 
L 34.100239 172.954738 
L 34.10917 172.090721 
L 34.087723 171.226705 
L 34.036847 170.362688 
L 33.959303 169.498671 
L 33.859597 168.634655 
L 33.743822 167.770638 
L 33.619408 166.906622 
L 33.494808 166.042605 
L 33.379126 165.178588 
L 33.281714 164.314572 
L 33.211755 163.450555 
L 33.177863 162.586538 
L 33.187716 161.722522 
L 33.24775 160.858505 
L 33.362911 159.994488 
L 33.536499 159.130472 
L 33.770091 158.266455 
L 34.063546 157.402439 
L 34.415089 156.538422 
L 34.821463 155.674405 
L 35.278133 154.810389 
L 35.779526 153.946372 
L 36.319296 153.082355 
L 36.890594 152.218339 
L 37.486325 151.354322 
L 38.099391 150.490305 
L 38.722897 149.626289 
L 39.350335 148.762272 
L 39.975715 147.898255 
L 40.593669 147.034239 
L 41.199516 146.170222 
L 41.789299 145.306206 
L 42.359787 144.442189 
L 42.908466 143.578172 
L 43.4335 142.714156 
L 43.933688 141.850139 
L 44.408407 140.986122 
L 44.857538 140.122106 
L 45.281401 139.258089 
L 45.68067 138.394072 
L 46.056296 137.530056 
L 46.409423 136.666039 
L 46.741305 135.802022 
L 47.053235 134.938006 
L 47.346474 134.073989 
L 47.622194 133.209973 
L 53.177806 133.209973 
L 53.177806 133.209973 
L 53.453526 134.073989 
L 53.746765 134.938006 
L 54.058695 135.802022 
L 54.390577 136.666039 
L 54.743704 137.530056 
L 55.11933 138.394072 
L 55.518599 139.258089 
L 55.942462 140.122106 
L 56.391593 140.986122 
L 56.866312 141.850139 
L 57.3665 142.714156 
L 57.891534 143.578172 
L 58.440213 144.442189 
L 59.010701 145.306206 
L 59.600484 146.170222 
L 60.206331 147.034239 
L 60.824285 147.898255 
L 61.449665 148.762272 
L 62.077103 149.626289 
L 62.700609 150.490305 
L 63.313675 151.354322 
L 63.909406 152.218339 
L 64.480704 153.082355 
L 65.020474 153.946372 
L 65.521867 154.810389 
L 65.978537 155.674405 
L 66.384911 156.538422 
L 66.736454 157.402439 
L 67.029909 158.266455 
L 67.263501 159.130472 
L 67.437089 159.994488 
L 67.55225 160.858505 
L 67.612284 161.722522 
L 67.622137 162.586538 
L 67.588245 163.450555 
L 67.518286 164.314572 
L 67.420874 165.178588 
L 67.305192 166.042605 
L 67.180592 166.906622 
L 67.056178 167.770638 
L 66.940403 168.634655 
L 66.840697 169.498671 
L 66.763153 170.362688 
L 66.712277 171.226705 
L 66.69083 172.090721 
L 66.699761 172.954738 
L 66.738222 173.818755 
L 66.803685 174.682771 
L 66.892123 175.546788 
L 66.998259 176.410805 
L 67.115858 177.274821 
L 67.238045 178.138838 
L 67.357629 179.002855 
L 67.467422 179.866871 
L 67.560522 180.730888 
L 67.630571 181.594904 
L 67.671964 182.458921 
L 67.68 183.322938 
L 67.650995 184.186954 
L 67.582335 185.050971 
L 67.472482 185.914988 
L 67.320946 186.779004 
L 67.128211 187.643021 
L 66.895643 188.507038 
L 66.625369 189.371054 
L 66.320148 190.235071 
L 65.983234 191.099088 
L 65.618239 191.963104 
L 65.229 192.827121 
L 64.819462 193.691137 
L 64.393568 194.555154 
L 63.955173 195.419171 
L 63.507969 196.283187 
L 63.05543 197.147204 
L 62.600771 198.011221 
L 62.146925 198.875237 
L 61.69652 199.739254 
L 61.251874 200.603271 
L 60.814985 201.467287 
L 60.387528 202.331304 
L 59.970845 203.19532 
L 59.565942 204.059337 
L 59.173478 204.923354 
L 58.793762 205.78737 
L 58.426747 206.651387 
L 58.072042 207.515404 
L 57.728927 208.37942 
L 57.396385 209.243437 
L 57.073155 210.107454 
L 56.757792 210.97147 
L 56.448757 211.835487 
L 56.1445 212.699504 
L 55.843573 213.56352 
L 55.54472 214.427537 
L 55.246975 215.291553 
L 54.949742 216.15557 
L 54.65285 217.019587 
L 54.356582 217.883603 
L 54.061678 218.74762 
L 54.061678 218.74762 
z
" clip-path="url(#pb67147d994)" style="fill: none; stroke: #000000; stroke-opacity: 0.3"/>
   </g>
   <g id="FillBetweenPolyCollection_7">
    <path d="M 50.917405 240.03451 
L 49.882595 240.03451 
L 49.878629 238.795369 
L 49.879749 237.556229 
L 49.88441 236.317088 
L 49.890534 235.077947 
L 49.895588 233.838807 
L 49.896695 232.599666 
L 49.890758 231.360526 
L 49.8746 230.121385 
L 49.845095 228.882245 
L 49.799293 227.643104 
L 49.734517 226.403963 
L 49.648424 225.164823 
L 49.539038 223.925682 
L 49.404736 222.686542 
L 49.244193 221.447401 
L 49.056306 220.208261 
L 48.840085 218.96912 
L 48.594544 217.729979 
L 48.318609 216.490839 
L 48.011055 215.251698 
L 47.67049 214.012558 
L 47.295418 212.773417 
L 46.884355 211.534277 
L 46.436032 210.295136 
L 45.949633 209.055995 
L 45.425068 207.816855 
L 44.863245 206.577714 
L 44.266285 205.338574 
L 43.637671 204.099433 
L 42.982285 202.860292 
L 42.306315 201.621152 
L 41.617046 200.382011 
L 40.922528 199.142871 
L 40.231168 197.90373 
L 39.551272 196.66459 
L 38.890594 195.425449 
L 38.255934 194.186308 
L 37.652827 192.947168 
L 37.085351 191.708027 
L 36.556082 190.468887 
L 36.066187 189.229746 
L 35.615645 187.990606 
L 35.203576 186.751465 
L 34.828634 185.512324 
L 34.489432 184.273184 
L 34.184938 183.034043 
L 33.914824 181.794903 
L 33.6797 180.555762 
L 33.481245 179.316622 
L 33.32218 178.077481 
L 33.206111 176.83834 
L 33.137245 175.5992 
L 33.12 174.360059 
L 33.158556 173.120919 
L 33.256384 171.881778 
L 33.415805 170.642638 
L 33.63762 169.403497 
L 33.920847 168.164356 
L 34.262596 166.925216 
L 34.658089 165.686075 
L 35.100826 164.446935 
L 35.582874 163.207794 
L 36.095258 161.968654 
L 36.628416 160.729513 
L 37.172664 159.490372 
L 37.718663 158.251232 
L 38.25781 157.012091 
L 38.782569 155.772951 
L 39.286686 154.53381 
L 39.765312 153.29467 
L 40.215023 152.055529 
L 40.63375 150.816388 
L 41.020656 149.577248 
L 41.375968 148.338107 
L 41.700799 147.098967 
L 41.996986 145.859826 
L 42.266952 144.620686 
L 42.513601 143.381545 
L 42.74025 142.142404 
L 42.950579 140.903264 
L 43.14859 139.664123 
L 43.338556 138.424983 
L 43.524934 137.185842 
L 43.71225 135.946702 
L 43.904934 134.707561 
L 44.107117 133.46842 
L 44.322415 132.22928 
L 44.553707 130.990139 
L 44.802936 129.750999 
L 45.070962 128.511858 
L 45.357481 127.272717 
L 45.661023 126.033577 
L 45.979035 124.794436 
L 46.30804 123.555296 
L 46.643852 122.316155 
L 46.981837 121.077015 
L 47.317191 119.837874 
L 47.645204 118.598733 
L 47.9615 117.359593 
L 52.8385 117.359593 
L 52.8385 117.359593 
L 53.154796 118.598733 
L 53.482809 119.837874 
L 53.818163 121.077015 
L 54.156148 122.316155 
L 54.49196 123.555296 
L 54.820965 124.794436 
L 55.138977 126.033577 
L 55.442519 127.272717 
L 55.729038 128.511858 
L 55.997064 129.750999 
L 56.246293 130.990139 
L 56.477585 132.22928 
L 56.692883 133.46842 
L 56.895066 134.707561 
L 57.08775 135.946702 
L 57.275066 137.185842 
L 57.461444 138.424983 
L 57.65141 139.664123 
L 57.849421 140.903264 
L 58.05975 142.142404 
L 58.286399 143.381545 
L 58.533048 144.620686 
L 58.803014 145.859826 
L 59.099201 147.098967 
L 59.424032 148.338107 
L 59.779344 149.577248 
L 60.16625 150.816388 
L 60.584977 152.055529 
L 61.034688 153.29467 
L 61.513314 154.53381 
L 62.017431 155.772951 
L 62.54219 157.012091 
L 63.081337 158.251232 
L 63.627336 159.490372 
L 64.171584 160.729513 
L 64.704742 161.968654 
L 65.217126 163.207794 
L 65.699174 164.446935 
L 66.141911 165.686075 
L 66.537404 166.925216 
L 66.879153 168.164356 
L 67.16238 169.403497 
L 67.384195 170.642638 
L 67.543616 171.881778 
L 67.641444 173.120919 
L 67.68 174.360059 
L 67.662755 175.5992 
L 67.593889 176.83834 
L 67.47782 178.077481 
L 67.318755 179.316622 
L 67.1203 180.555762 
L 66.885176 181.794903 
L 66.615062 183.034043 
L 66.310568 184.273184 
L 65.971366 185.512324 
L 65.596424 186.751465 
L 65.184355 187.990606 
L 64.733813 189.229746 
L 64.243918 190.468887 
L 63.714649 191.708027 
L 63.147173 192.947168 
L 62.544066 194.186308 
L 61.909406 195.425449 
L 61.248728 196.66459 
L 60.568832 197.90373 
L 59.877472 199.142871 
L 59.182954 200.382011 
L 58.493685 201.621152 
L 57.817715 202.860292 
L 57.162329 204.099433 
L 56.533715 205.338574 
L 55.936755 206.577714 
L 55.374932 207.816855 
L 54.850367 209.055995 
L 54.363968 210.295136 
L 53.915645 211.534277 
L 53.504582 212.773417 
L 53.12951 214.012558 
L 52.788945 215.251698 
L 52.481391 216.490839 
L 52.205456 217.729979 
L 51.959915 218.96912 
L 51.743694 220.208261 
L 51.555807 221.447401 
L 51.395264 222.686542 
L 51.260962 223.925682 
L 51.151576 225.164823 
L 51.065483 226.403963 
L 51.000707 227.643104 
L 50.954905 228.882245 
L 50.9254 230.121385 
L 50.909242 231.360526 
L 50.903305 232.599666 
L 50.904412 233.838807 
L 50.909466 235.077947 
L 50.91559 236.317088 
L 50.920251 237.556229 
L 50.921371 238.795369 
L 50.917405 240.03451 
L 50.917405 240.03451 
z
" clip-path="url(#pb67147d994)" style="fill: none; stroke: #000000; stroke-opacity: 0.3"/>
   </g>
   <g id="FillBetweenPolyCollection_8">
    <path d="M 108.180344 189.425042 
L 107.819656 189.425042 
L 107.825424 187.986003 
L 107.841643 186.546965 
L 107.865391 185.107926 
L 107.89276 183.668888 
L 107.919887 182.229849 
L 107.943776 180.79081 
L 107.962678 179.351772 
L 107.975996 177.912733 
L 107.983873 176.473695 
L 107.986674 175.034656 
L 107.984588 173.595618 
L 107.977449 172.156579 
L 107.964844 170.71754 
L 107.946462 169.278502 
L 107.922541 167.839463 
L 107.894229 166.400425 
L 107.863629 164.961386 
L 107.833373 163.522347 
L 107.80577 162.083309 
L 107.78181 160.64427 
L 107.760445 159.205232 
L 107.738529 157.766193 
L 107.711509 156.327154 
L 107.674578 154.888116 
L 107.623738 153.449077 
L 107.556265 152.010039 
L 107.470391 150.571 
L 107.364481 149.131962 
L 107.236289 147.692923 
L 107.082779 146.253884 
L 106.900663 144.814846 
L 106.687306 143.375807 
L 106.441483 141.936769 
L 106.163554 140.49773 
L 105.855036 139.058691 
L 105.517839 137.619653 
L 105.153491 136.180614 
L 104.762492 134.741576 
L 104.343674 133.302537 
L 103.893439 131.863499 
L 103.40498 130.42446 
L 102.867929 128.985421 
L 102.269075 127.546383 
L 101.594544 126.107344 
L 100.833239 124.668306 
L 99.980609 123.229267 
L 99.041436 121.790228 
L 98.030539 120.35119 
L 96.971187 118.912151 
L 95.892069 117.473113 
L 94.824418 116.034074 
L 93.800793 114.595035 
L 92.856027 113.155997 
L 92.029413 111.716958 
L 91.365971 110.27792 
L 90.914356 108.838881 
L 90.72 107.399843 
L 90.814275 105.960804 
L 91.202948 104.521765 
L 91.858725 103.082727 
L 92.722077 101.643688 
L 93.711783 100.20465 
L 94.742532 98.765611 
L 95.743699 97.326572 
L 96.672542 95.887534 
L 97.517334 94.448495 
L 98.29013 93.009457 
L 99.0132 91.570418 
L 99.705385 90.131379 
L 100.373971 88.692341 
L 101.014499 87.253302 
L 101.616972 85.814264 
L 102.174089 84.375225 
L 102.686837 82.936187 
L 103.164759 81.497148 
L 103.621417 80.058109 
L 104.068006 78.619071 
L 104.50863 77.180032 
L 104.939358 75.740994 
L 105.350872 74.301955 
L 105.732804 72.862916 
L 106.077452 71.423878 
L 106.381469 69.984839 
L 106.645522 68.545801 
L 106.872817 67.106762 
L 107.067549 65.667723 
L 107.233871 64.228685 
L 107.375398 62.789646 
L 107.494977 61.350608 
L 107.594545 59.911569 
L 107.675103 58.472531 
L 107.736965 57.033492 
L 107.780377 55.594453 
L 107.806356 54.155415 
L 107.817419 52.716376 
L 107.817835 51.277338 
L 107.813188 49.838299 
L 107.809327 48.39926 
L 107.811065 46.960222 
L 108.188935 46.960222 
L 108.188935 46.960222 
L 108.190673 48.39926 
L 108.186812 49.838299 
L 108.182165 51.277338 
L 108.182581 52.716376 
L 108.193644 54.155415 
L 108.219623 55.594453 
L 108.263035 57.033492 
L 108.324897 58.472531 
L 108.405455 59.911569 
L 108.505023 61.350608 
L 108.624602 62.789646 
L 108.766129 64.228685 
L 108.932451 65.667723 
L 109.127183 67.106762 
L 109.354478 68.545801 
L 109.618531 69.984839 
L 109.922548 71.423878 
L 110.267196 72.862916 
L 110.649128 74.301955 
L 111.060642 75.740994 
L 111.49137 77.180032 
L 111.931994 78.619071 
L 112.378583 80.058109 
L 112.835241 81.497148 
L 113.313163 82.936187 
L 113.825911 84.375225 
L 114.383028 85.814264 
L 114.985501 87.253302 
L 115.626029 88.692341 
L 116.294615 90.131379 
L 116.9868 91.570418 
L 117.70987 93.009457 
L 118.482666 94.448495 
L 119.327458 95.887534 
L 120.256301 97.326572 
L 121.257468 98.765611 
L 122.288217 100.20465 
L 123.277923 101.643688 
L 124.141275 103.082727 
L 124.797052 104.521765 
L 125.185725 105.960804 
L 125.28 107.399843 
L 125.085644 108.838881 
L 124.634029 110.27792 
L 123.970587 111.716958 
L 123.143973 113.155997 
L 122.199207 114.595035 
L 121.175582 116.034074 
L 120.107931 117.473113 
L 119.028813 118.912151 
L 117.969461 120.35119 
L 116.958564 121.790228 
L 116.019391 123.229267 
L 115.166761 124.668306 
L 114.405456 126.107344 
L 113.730925 127.546383 
L 113.132071 128.985421 
L 112.59502 130.42446 
L 112.106561 131.863499 
L 111.656326 133.302537 
L 111.237508 134.741576 
L 110.846509 136.180614 
L 110.482161 137.619653 
L 110.144964 139.058691 
L 109.836446 140.49773 
L 109.558517 141.936769 
L 109.312694 143.375807 
L 109.099337 144.814846 
L 108.917221 146.253884 
L 108.763711 147.692923 
L 108.635519 149.131962 
L 108.529609 150.571 
L 108.443735 152.010039 
L 108.376262 153.449077 
L 108.325422 154.888116 
L 108.288491 156.327154 
L 108.261471 157.766193 
L 108.239555 159.205232 
L 108.21819 160.64427 
L 108.19423 162.083309 
L 108.166627 163.522347 
L 108.136371 164.961386 
L 108.105771 166.400425 
L 108.077459 167.839463 
L 108.053538 169.278502 
L 108.035156 170.71754 
L 108.022551 172.156579 
L 108.015412 173.595618 
L 108.013326 175.034656 
L 108.016127 176.473695 
L 108.024004 177.912733 
L 108.037322 179.351772 
L 108.056224 180.79081 
L 108.080113 182.229849 
L 108.10724 183.668888 
L 108.134609 185.107926 
L 108.158357 186.546965 
L 108.174576 187.986003 
L 108.180344 189.425042 
L 108.180344 189.425042 
z
" clip-path="url(#pb67147d994)" style="fill: none; stroke: #000000; stroke-opacity: 0.3"/>
   </g>
   <g id="FillBetweenPolyCollection_9">
    <path d="M 110.093242 145.900087 
L 105.906758 145.900087 
L 105.561542 144.749627 
L 105.216192 143.599167 
L 104.876851 142.448707 
L 104.545952 141.298246 
L 104.22162 140.147786 
L 103.89787 138.997326 
L 103.565534 137.846865 
L 103.213718 136.696405 
L 102.831488 135.545945 
L 102.409481 134.395484 
L 101.941183 133.245024 
L 101.423759 132.094564 
L 100.858387 130.944104 
L 100.250154 129.793643 
L 99.607604 128.643183 
L 98.941999 127.492723 
L 98.266401 126.342262 
L 97.594634 125.191802 
L 96.940196 124.041342 
L 96.315209 122.890882 
L 95.72948 121.740421 
L 95.189758 120.589961 
L 94.699259 119.439501 
L 94.257551 118.28904 
L 93.860834 117.13858 
L 93.502638 115.98812 
L 93.174864 114.837659 
L 92.869037 113.687199 
L 92.577564 112.536739 
L 92.294824 111.386279 
L 92.017928 110.235818 
L 91.747186 109.085358 
L 91.486337 107.934898 
L 91.242719 106.784437 
L 91.027449 105.633977 
L 90.855551 104.483517 
L 90.745805 103.333057 
L 90.72 102.182596 
L 90.801331 101.032136 
L 91.011893 99.881676 
L 91.369554 98.731215 
L 91.88475 97.580755 
L 92.55792 96.430295 
L 93.378199 95.279834 
L 94.32375 94.129374 
L 95.363698 92.978914 
L 96.461279 91.828454 
L 97.57758 90.677993 
L 98.675186 89.527533 
L 99.721195 88.377073 
L 100.689285 87.226612 
L 101.560783 86.076152 
L 102.324876 84.925692 
L 102.978169 83.775231 
L 103.523808 82.624771 
L 103.970313 81.474311 
L 104.330203 80.323851 
L 104.618477 79.17339 
L 104.851033 78.02293 
L 105.043165 76.87247 
L 105.208301 75.722009 
L 105.357144 74.571549 
L 105.49733 73.421089 
L 105.633601 72.270629 
L 105.768383 71.120168 
L 105.902574 69.969708 
L 106.036331 68.819248 
L 106.169653 67.668787 
L 106.302656 66.518327 
L 106.435547 65.367867 
L 106.568381 64.217406 
L 106.700758 63.066946 
L 106.831618 61.916486 
L 106.959229 60.766026 
L 107.081413 59.615565 
L 107.195939 58.465105 
L 107.300962 57.314645 
L 107.395383 56.164184 
L 107.479007 55.013724 
L 107.552475 53.863264 
L 107.616991 52.712803 
L 107.673946 51.562343 
L 107.724548 50.411883 
L 107.769558 49.261423 
L 107.809186 48.110962 
L 107.843141 46.960502 
L 107.870797 45.810042 
L 107.891424 44.659581 
L 107.90441 43.509121 
L 107.909467 42.358661 
L 107.906773 41.208201 
L 107.897066 40.05774 
L 107.881678 38.90728 
L 107.862492 37.75682 
L 107.841819 36.606359 
L 107.822188 35.455899 
L 107.806068 34.305439 
L 107.79555 33.154978 
L 107.792063 32.004518 
L 108.207937 32.004518 
L 108.207937 32.004518 
L 108.20445 33.154978 
L 108.193932 34.305439 
L 108.177812 35.455899 
L 108.158181 36.606359 
L 108.137508 37.75682 
L 108.118322 38.90728 
L 108.102934 40.05774 
L 108.093227 41.208201 
L 108.090533 42.358661 
L 108.09559 43.509121 
L 108.108576 44.659581 
L 108.129203 45.810042 
L 108.156859 46.960502 
L 108.190814 48.110962 
L 108.230442 49.261423 
L 108.275452 50.411883 
L 108.326054 51.562343 
L 108.383009 52.712803 
L 108.447525 53.863264 
L 108.520993 55.013724 
L 108.604617 56.164184 
L 108.699038 57.314645 
L 108.804061 58.465105 
L 108.918587 59.615565 
L 109.040771 60.766026 
L 109.168382 61.916486 
L 109.299242 63.066946 
L 109.431619 64.217406 
L 109.564453 65.367867 
L 109.697344 66.518327 
L 109.830347 67.668787 
L 109.963669 68.819248 
L 110.097426 69.969708 
L 110.231617 71.120168 
L 110.366399 72.270629 
L 110.50267 73.421089 
L 110.642856 74.571549 
L 110.791699 75.722009 
L 110.956835 76.87247 
L 111.148967 78.02293 
L 111.381523 79.17339 
L 111.669797 80.323851 
L 112.029687 81.474311 
L 112.476192 82.624771 
L 113.021831 83.775231 
L 113.675124 84.925692 
L 114.439217 86.076152 
L 115.310715 87.226612 
L 116.278805 88.377073 
L 117.324814 89.527533 
L 118.42242 90.677993 
L 119.538721 91.828454 
L 120.636302 92.978914 
L 121.67625 94.129374 
L 122.621801 95.279834 
L 123.44208 96.430295 
L 124.11525 97.580755 
L 124.630446 98.731215 
L 124.988107 99.881676 
L 125.198669 101.032136 
L 125.28 102.182596 
L 125.254195 103.333057 
L 125.144449 104.483517 
L 124.972551 105.633977 
L 124.757281 106.784437 
L 124.513663 107.934898 
L 124.252814 109.085358 
L 123.982072 110.235818 
L 123.705176 111.386279 
L 123.422436 112.536739 
L 123.130963 113.687199 
L 122.825136 114.837659 
L 122.497362 115.98812 
L 122.139166 117.13858 
L 121.742449 118.28904 
L 121.300741 119.439501 
L 120.810242 120.589961 
L 120.27052 121.740421 
L 119.684791 122.890882 
L 119.059804 124.041342 
L 118.405366 125.191802 
L 117.733599 126.342262 
L 117.058001 127.492723 
L 116.392396 128.643183 
L 115.749846 129.793643 
L 115.141613 130.944104 
L 114.576241 132.094564 
L 114.058817 133.245024 
L 113.590519 134.395484 
L 113.168512 135.545945 
L 112.786282 136.696405 
L 112.434466 137.846865 
L 112.10213 138.997326 
L 111.77838 140.147786 
L 111.454048 141.298246 
L 111.123149 142.448707 
L 110.783808 143.599167 
L 110.438458 144.749627 
L 110.093242 145.900087 
L 110.093242 145.900087 
z
" clip-path="url(#pb67147d994)" style="fill: none; stroke: #000000; stroke-opacity: 0.3"/>
   </g>
   <g id="FillBetweenPolyCollection_10">
    <path d="M 108.253056 160.18644 
L 107.746944 160.18644 
L 107.750022 159.117291 
L 107.761215 158.048142 
L 107.778307 156.978993 
L 107.798201 155.909845 
L 107.817383 154.840696 
L 107.832441 153.771547 
L 107.84052 152.702398 
L 107.839653 151.63325 
L 107.828874 150.564101 
L 107.808116 149.494952 
L 107.777886 148.425803 
L 107.738765 147.356655 
L 107.690821 146.287506 
L 107.633068 145.218357 
L 107.56311 144.149208 
L 107.477101 143.08006 
L 107.37009 142.010911 
L 107.236729 140.941762 
L 107.072198 139.872613 
L 106.873151 138.803465 
L 106.638422 137.734316 
L 106.369337 136.665167 
L 106.069531 135.596018 
L 105.744336 134.52687 
L 105.39986 133.457721 
L 105.041925 132.388572 
L 104.675014 131.319424 
L 104.301309 130.250275 
L 103.919926 129.181126 
L 103.526411 128.111977 
L 103.11268 127.042829 
L 102.667552 125.97368 
L 102.178029 124.904531 
L 101.631307 123.835382 
L 101.017298 122.766234 
L 100.331206 121.697085 
L 99.575592 120.627936 
L 98.761338 119.558787 
L 97.907158 118.489639 
L 97.037599 117.42049 
L 96.179849 116.351341 
L 95.359999 115.282192 
L 94.599512 114.213044 
L 93.912643 113.143895 
L 93.305346 112.074746 
L 92.775834 111.005597 
L 92.316688 109.936449 
L 91.918018 108.8673 
L 91.571091 107.798151 
L 91.271683 106.729002 
L 91.022542 105.659854 
L 90.834466 104.590705 
L 90.725744 103.521556 
L 90.72 102.452407 
L 90.842727 101.383259 
L 91.117049 100.31411 
L 91.559387 99.244961 
L 92.175722 98.175812 
L 92.959103 97.106664 
L 93.888841 96.037515 
L 94.931641 94.968366 
L 96.0446 93.899218 
L 97.179721 92.830069 
L 98.289305 91.76092 
L 99.331367 90.691771 
L 100.274163 89.622623 
L 101.099046 88.553474 
L 101.801165 87.484325 
L 102.387995 86.415176 
L 102.87609 85.346028 
L 103.286875 84.276879 
L 103.642348 83.20773 
L 103.961555 82.138581 
L 104.258355 81.069433 
L 104.540684 80.000284 
L 104.811139 78.931135 
L 105.068472 77.861986 
L 105.30948 76.792838 
L 105.530798 75.723689 
L 105.730246 74.65454 
L 105.907552 73.585391 
L 106.064447 72.516243 
L 106.204279 71.447094 
L 106.331332 70.377945 
L 106.450074 69.308796 
L 106.564454 68.239648 
L 106.677381 67.170499 
L 106.790393 66.10135 
L 106.903546 65.032201 
L 107.015531 63.963053 
L 107.124001 62.893904 
L 107.22609 61.824755 
L 107.319045 60.755606 
L 107.400848 59.686458 
L 107.470685 58.617309 
L 107.529137 57.54816 
L 107.578039 56.479011 
L 107.620039 55.409863 
L 107.657988 54.340714 
L 108.342012 54.340714 
L 108.342012 54.340714 
L 108.379961 55.409863 
L 108.421961 56.479011 
L 108.470863 57.54816 
L 108.529315 58.617309 
L 108.599152 59.686458 
L 108.680955 60.755606 
L 108.77391 61.824755 
L 108.875999 62.893904 
L 108.984469 63.963053 
L 109.096454 65.032201 
L 109.209607 66.10135 
L 109.322619 67.170499 
L 109.435546 68.239648 
L 109.549926 69.308796 
L 109.668668 70.377945 
L 109.795721 71.447094 
L 109.935553 72.516243 
L 110.092448 73.585391 
L 110.269754 74.65454 
L 110.469202 75.723689 
L 110.69052 76.792838 
L 110.931528 77.861986 
L 111.188861 78.931135 
L 111.459316 80.000284 
L 111.741645 81.069433 
L 112.038445 82.138581 
L 112.357652 83.20773 
L 112.713125 84.276879 
L 113.12391 85.346028 
L 113.612005 86.415176 
L 114.198835 87.484325 
L 114.900954 88.553474 
L 115.725837 89.622623 
L 116.668633 90.691771 
L 117.710695 91.76092 
L 118.820279 92.830069 
L 119.9554 93.899218 
L 121.068359 94.968366 
L 122.111159 96.037515 
L 123.040897 97.106664 
L 123.824278 98.175812 
L 124.440613 99.244961 
L 124.882951 100.31411 
L 125.157273 101.383259 
L 125.28 102.452407 
L 125.274256 103.521556 
L 125.165534 104.590705 
L 124.977458 105.659854 
L 124.728317 106.729002 
L 124.428909 107.798151 
L 124.081982 108.8673 
L 123.683312 109.936449 
L 123.224166 111.005597 
L 122.694654 112.074746 
L 122.087357 113.143895 
L 121.400488 114.213044 
L 120.640001 115.282192 
L 119.820151 116.351341 
L 118.962401 117.42049 
L 118.092842 118.489639 
L 117.238662 119.558787 
L 116.424408 120.627936 
L 115.668794 121.697085 
L 114.982702 122.766234 
L 114.368693 123.835382 
L 113.821971 124.904531 
L 113.332448 125.97368 
L 112.88732 127.042829 
L 112.473589 128.111977 
L 112.080074 129.181126 
L 111.698691 130.250275 
L 111.324986 131.319424 
L 110.958075 132.388572 
L 110.60014 133.457721 
L 110.255664 134.52687 
L 109.930469 135.596018 
L 109.630663 136.665167 
L 109.361578 137.734316 
L 109.126849 138.803465 
L 108.927802 139.872613 
L 108.763271 140.941762 
L 108.62991 142.010911 
L 108.522899 143.08006 
L 108.43689 144.149208 
L 108.366932 145.218357 
L 108.309179 146.287506 
L 108.261235 147.356655 
L 108.222114 148.425803 
L 108.191884 149.494952 
L 108.171126 150.564101 
L 108.160347 151.63325 
L 108.15948 152.702398 
L 108.167559 153.771547 
L 108.182617 154.840696 
L 108.201799 155.909845 
L 108.221693 156.978993 
L 108.238785 158.048142 
L 108.249978 159.117291 
L 108.253056 160.18644 
L 108.253056 160.18644 
z
" clip-path="url(#pb67147d994)" style="fill: none; stroke: #000000; stroke-opacity: 0.3"/>
   </g>
   <g id="FillBetweenPolyCollection_11">
    <path d="M 108.243042 184.393577 
L 107.756958 184.393577 
L 107.752119 182.966529 
L 107.753283 181.539481 
L 107.757618 180.112432 
L 107.761974 178.685384 
L 107.76382 177.258335 
L 107.761995 175.831287 
L 107.756998 174.404239 
L 107.750706 172.97719 
L 107.7456 171.550142 
L 107.743748 170.123094 
L 107.745876 168.696045 
L 107.750808 167.268997 
L 107.755464 165.841948 
L 107.755351 164.4149 
L 107.745393 162.987852 
L 107.720777 161.560803 
L 107.677571 160.133755 
L 107.612924 158.706706 
L 107.524874 157.279658 
L 107.411938 155.85261 
L 107.272772 154.425561 
L 107.10618 152.998513 
L 106.911605 151.571464 
L 106.689966 150.144416 
L 106.444483 148.717368 
L 106.180994 147.290319 
L 105.907371 145.863271 
L 105.631963 144.436222 
L 105.361397 143.009174 
L 105.098411 141.582126 
L 104.840457 140.155077 
L 104.579553 138.728029 
L 104.303447 137.300981 
L 103.997657 135.873932 
L 103.647723 134.446884 
L 103.241007 133.019835 
L 102.767647 131.592787 
L 102.220676 130.165739 
L 101.595614 128.73869 
L 100.890082 127.311642 
L 100.103892 125.884593 
L 99.239925 124.457545 
L 98.305713 123.030497 
L 97.31528 121.603448 
L 96.290495 120.1764 
L 95.261158 118.749351 
L 94.263245 117.322303 
L 93.335384 115.895255 
L 92.514218 114.468206 
L 91.829866 113.041158 
L 91.30276 111.614109 
L 90.942723 110.187061 
L 90.750351 108.760013 
L 90.72 107.332964 
L 90.843129 105.905916 
L 91.110811 104.478868 
L 91.51472 103.051819 
L 92.046617 101.624771 
L 92.696979 100.197722 
L 93.453654 98.770674 
L 94.301235 97.343626 
L 95.221387 95.916577 
L 96.193859 94.489529 
L 97.197677 93.06248 
L 98.212067 91.635432 
L 99.216975 90.208384 
L 100.193399 88.781335 
L 101.123862 87.354287 
L 101.993273 85.927238 
L 102.790062 84.50019 
L 103.507195 83.073142 
L 104.142589 81.646093 
L 104.698645 80.219045 
L 105.180967 78.791996 
L 105.596751 77.364948 
L 105.953393 75.9379 
L 106.257762 74.510851 
L 106.516183 73.083803 
L 106.734844 71.656755 
L 106.920166 70.229706 
L 107.078745 68.802658 
L 107.216791 67.375609 
L 107.339282 65.948561 
L 107.449206 64.521513 
L 107.547242 63.094464 
L 107.632036 61.667416 
L 107.700971 60.240367 
L 107.751192 58.813319 
L 107.780598 57.386271 
L 107.788615 55.959222 
L 107.776631 54.532174 
L 107.748107 53.105125 
L 107.708349 51.678077 
L 107.663989 50.251029 
L 107.622205 48.82398 
L 107.589754 47.396932 
L 107.571989 45.969883 
L 107.572053 44.542835 
L 107.59044 43.115787 
L 108.40956 43.115787 
L 108.40956 43.115787 
L 108.427947 44.542835 
L 108.428011 45.969883 
L 108.410246 47.396932 
L 108.377795 48.82398 
L 108.336011 50.251029 
L 108.291651 51.678077 
L 108.251893 53.105125 
L 108.223369 54.532174 
L 108.211385 55.959222 
L 108.219402 57.386271 
L 108.248808 58.813319 
L 108.299029 60.240367 
L 108.367964 61.667416 
L 108.452758 63.094464 
L 108.550794 64.521513 
L 108.660718 65.948561 
L 108.783209 67.375609 
L 108.921255 68.802658 
L 109.079834 70.229706 
L 109.265156 71.656755 
L 109.483817 73.083803 
L 109.742238 74.510851 
L 110.046607 75.9379 
L 110.403249 77.364948 
L 110.819033 78.791996 
L 111.301355 80.219045 
L 111.857411 81.646093 
L 112.492805 83.073142 
L 113.209938 84.50019 
L 114.006727 85.927238 
L 114.876138 87.354287 
L 115.806601 88.781335 
L 116.783025 90.208384 
L 117.787933 91.635432 
L 118.802323 93.06248 
L 119.806141 94.489529 
L 120.778613 95.916577 
L 121.698765 97.343626 
L 122.546346 98.770674 
L 123.303021 100.197722 
L 123.953383 101.624771 
L 124.48528 103.051819 
L 124.889189 104.478868 
L 125.156871 105.905916 
L 125.28 107.332964 
L 125.249649 108.760013 
L 125.057277 110.187061 
L 124.69724 111.614109 
L 124.170134 113.041158 
L 123.485782 114.468206 
L 122.664616 115.895255 
L 121.736755 117.322303 
L 120.738842 118.749351 
L 119.709505 120.1764 
L 118.68472 121.603448 
L 117.694287 123.030497 
L 116.760075 124.457545 
L 115.896108 125.884593 
L 115.109918 127.311642 
L 114.404386 128.73869 
L 113.779324 130.165739 
L 113.232353 131.592787 
L 112.758993 133.019835 
L 112.352277 134.446884 
L 112.002343 135.873932 
L 111.696553 137.300981 
L 111.420447 138.728029 
L 111.159543 140.155077 
L 110.901589 141.582126 
L 110.638603 143.009174 
L 110.368037 144.436222 
L 110.092629 145.863271 
L 109.819006 147.290319 
L 109.555517 148.717368 
L 109.310034 150.144416 
L 109.088395 151.571464 
L 108.89382 152.998513 
L 108.727228 154.425561 
L 108.588062 155.85261 
L 108.475126 157.279658 
L 108.387076 158.706706 
L 108.322429 160.133755 
L 108.279223 161.560803 
L 108.254607 162.987852 
L 108.244649 164.4149 
L 108.244536 165.841948 
L 108.249192 167.268997 
L 108.254124 168.696045 
L 108.256252 170.123094 
L 108.2544 171.550142 
L 108.249294 172.97719 
L 108.243002 174.404239 
L 108.238005 175.831287 
L 108.23618 177.258335 
L 108.238026 178.685384 
L 108.242382 180.112432 
L 108.246717 181.539481 
L 108.247881 182.966529 
L 108.243042 184.393577 
L 108.243042 184.393577 
z
" clip-path="url(#pb67147d994)" style="fill: none; stroke: #000000; stroke-opacity: 0.3"/>
   </g>
   <g id="matplotlib.axis_1">
    <g id="xtick_1">
     <g id="line2d_1">
      <defs>
       <path id="m318700a395" d="M 0 0 
L 0 3.5 
" style="stroke: #000000; stroke-width: 0.8"/>
      </defs>
      <g>
       <use xlink:href="#m318700a395" x="50.4" y="291.6" style="stroke: #000000; stroke-width: 0.8"/>
      </g>
     </g>
     <g id="text_1">
      <text style="font-size: 10px; font-family: 'DejaVu Sans', 'Bitstream Vera Sans', 'Computer Modern Sans Serif', 'Lucida Grande', 'Verdana', 'Geneva', 'Lucid', 'Arial', 'Helvetica', 'Avant Garde', sans-serif; text-anchor: middle" x="50.4" y="306.198438" transform="rotate(-0 50.4 306.198438)">0.3</text>
     </g>
    </g>
    <g id="xtick_2">
     <g id="line2d_2">
      <g>
       <use xlink:href="#m318700a395" x="108" y="291.6" style="stroke: #000000; stroke-width: 0.8"/>
      </g>
     </g>
     <g id="text_2">
      <text style="font-size: 10px; font-family: 'DejaVu Sans', 'Bitstream Vera Sans', 'Computer Modern Sans Serif', 'Lucida Grande', 'Verdana', 'Geneva', 'Lucid', 'Arial', 'Helvetica', 'Avant Garde', sans-serif; text-anchor: middle" x="108" y="306.198438" transform="rotate(-0 108 306.198438)">0.6</text>
     </g>
    </g>
   </g>
   <g id="matplotlib.axis_2">
    <g id="ytick_1">
     <g id="line2d_3">
      <defs>
       <path id="m16dd54cda6" d="M 0 0 
L -3.5 0 
" style="stroke: #000000; stroke-width: 0.8"/>
      </defs>
      <g>
       <use xlink:href="#m16dd54cda6" x="21.6" y="291.6" style="stroke: #000000; stroke-width: 0.8"/>
      </g>
     </g>
    </g>
    <g id="ytick_2">
     <g id="line2d_4">
      <g>
       <use xlink:href="#m16dd54cda6" x="21.6" y="199.8" style="stroke: #000000; stroke-width: 0.8"/>
      </g>
     </g>
    </g>
    <g id="ytick_3">
     <g id="line2d_5">
      <g>
       <use xlink:href="#m16dd54cda6" x="21.6" y="108" style="stroke: #000000; stroke-width: 0.8"/>
      </g>
     </g>
    </g>
    <g id="ytick_4">
     <g id="line2d_6">
      <g>
       <use xlink:href="#m16dd54cda6" x="21.6" y="16.2" style="stroke: #000000; stroke-width: 0.8"/>
      </g>
     </g>
    </g>
   </g>
   <g id="line2d_7">
    <path d="M 50.4 269.568 
L 50.4 264.06 
" clip-path="url(#pb67147d994)" style="fill: none; stroke: #000000; stroke-linecap: square"/>
   </g>
   <g id="line2d_8">
    <path d="M 50.4 269.568 
L 108 269.568 
" clip-path="url(#pb67147d994)" style="fill: none; stroke: #000000; stroke-linecap: square"/>
   </g>
   <g id="line2d_9">
    <path d="M 108 269.568 
L 108 264.06 
" clip-path="url(#pb67147d994)" style="fill: none; stroke: #000000; stroke-linecap: square"/>
   </g>
   <g id="patch_3">
    <path d="M 21.6 291.6 
L 21.6 16.2 
" style="fill: none; stroke: #000000; stroke-width: 0.8; stroke-linejoin: miter; stroke-linecap: square"/>
   </g>
   <g id="patch_4">
    <path d="M 136.8 291.6 
L 136.8 16.2 
" style="fill: none; stroke: #000000; stroke-width: 0.8; stroke-linejoin: miter; stroke-linecap: square"/>
   </g>
   <g id="patch_5">
    <path d="M 21.6 291.6 
L 136.8 291.6 
" style="fill: none; stroke: #000000; stroke-width: 0.8; stroke-linejoin: miter; stroke-linecap: square"/>
   </g>
   <g id="patch_6">
    <path d="M 21.6 16.2 
L 136.8 16.2 
" style="fill: none; stroke: #000000; stroke-width: 0.8; stroke-linejoin: miter; stroke-linecap: square"/>
   </g>
   <g id="text_3">
    <text style="font-weight: 700; font-size: 12px; font-family: 'DejaVu Sans', 'Bitstream Vera Sans', 'Computer Modern Sans Serif', 'Lucida Grande', 'Verdana', 'Geneva', 'Lucid', 'Arial', 'Helvetica', 'Avant Garde', sans-serif; text-anchor: middle" x="50.4" y="289.104375" transform="rotate(-0 50.4 289.104375)">#5</text>
   </g>
   <g id="text_4">
    <text style="font-weight: 700; font-size: 12px; font-family: 'DejaVu Sans', 'Bitstream Vera Sans', 'Computer Modern Sans Serif', 'Lucida Grande', 'Verdana', 'Geneva', 'Lucid', 'Arial', 'Helvetica', 'Avant Garde', sans-serif; text-anchor: middle" x="108" y="289.104375" transform="rotate(-0 108 289.104375)">#19</text>
   </g>
   <g id="text_5">
    <text style="font-size: 12px; font-family: 'DejaVu Sans', 'Bitstream Vera Sans', 'Computer Modern Sans Serif', 'Lucida Grande', 'Verdana', 'Geneva', 'Lucid', 'Arial', 'Helvetica', 'Avant Garde', sans-serif; text-anchor: middle" x="79.2" y="268.449375" transform="rotate(-0 79.2 268.449375)">****</text>
   </g>
   <g id="line2d_10">
    <path d="M 21.6 171.919185 
L 136.8 171.919185 
" clip-path="url(#pb67147d994)" style="fill: none; stroke-dasharray: 3.7,1.6; stroke-dashoffset: 0; stroke: #808080; stroke-opacity: 0.7"/>
   </g>
   <g id="line2d_11">
    <path d="M 21.6 106.498598 
L 136.8 106.498598 
" clip-path="url(#pb67147d994)" style="fill: none; stroke-dasharray: 3.7,1.6; stroke-dashoffset: 0; stroke: #808080; stroke-opacity: 0.7"/>
   </g>
   <g id="LineCollection_1">
    <path d="M 50.4 175.755985 
L 50.4 168.082385 
" clip-path="url(#pb67147d994)" style="fill: none; stroke: #000000; stroke-width: 2"/>
   </g>
   <g id="line2d_12">
    <defs>
     <path id="m937e358b8f" d="M 5 0 
L -5 -0 
" style="stroke: #000000; stroke-width: 2"/>
    </defs>
    <g clip-path="url(#pb67147d994)">
     <use xlink:href="#m937e358b8f" x="50.4" y="175.755985" style="stroke: #000000; stroke-width: 2"/>
    </g>
   </g>
   <g id="line2d_13">
    <g clip-path="url(#pb67147d994)">
     <use xlink:href="#m937e358b8f" x="50.4" y="168.082385" style="stroke: #000000; stroke-width: 2"/>
    </g>
   </g>
   <g id="LineCollection_2">
    <path d="M 108 108.075843 
L 108 104.921353 
" clip-path="url(#pb67147d994)" style="fill: none; stroke: #000000; stroke-width: 2"/>
   </g>
   <g id="line2d_14">
    <g clip-path="url(#pb67147d994)">
     <use xlink:href="#m937e358b8f" x="108" y="108.075843" style="stroke: #000000; stroke-width: 2"/>
    </g>
   </g>
   <g id="line2d_15">
    <g clip-path="url(#pb67147d994)">
     <use xlink:href="#m937e358b8f" x="108" y="104.921353" style="stroke: #000000; stroke-width: 2"/>
    </g>
   </g>
   <g id="line2d_16">
    <defs>
     <path id="mbe6a705188" d="M 0 4 
C 1.060812 4 2.078319 3.578535 2.828427 2.828427 
C 3.578535 2.078319 4 1.060812 4 0 
C 4 -1.060812 3.578535 -2.078319 2.828427 -2.828427 
C 2.078319 -3.578535 1.060812 -4 0 -4 
C -1.060812 -4 -2.078319 -3.578535 -2.828427 -2.828427 
C -3.578535 -2.078319 -4 -1.060812 -4 0 
C -4 1.060812 -3.578535 2.078319 -2.828427 2.828427 
C -2.078319 3.578535 -1.060812 4 0 4 
z
" style="stroke: #000000"/>
    </defs>
    <g clip-path="url(#pb67147d994)">
     <use xlink:href="#mbe6a705188" x="50.4" y="171.919185" style="stroke: #000000"/>
    </g>
   </g>
   <g id="line2d_17">
    <g clip-path="url(#pb67147d994)">
     <use xlink:href="#mbe6a705188" x="108" y="106.498598" style="stroke: #000000"/>
    </g>
   </g>
  </g>
 </g>
 <defs>
  <clipPath id="pb67147d994">
   <rect x="21.6" y="16.2" width="115.2" height="275.4"/>
  </clipPath>
 </defs>
</svg>
