<?xml version="1.0" encoding="utf-8" standalone="no"?>
<!DOCTYPE svg PUBLIC "-//W3C//DTD SVG 1.1//EN"
  "http://www.w3.org/Graphics/SVG/1.1/DTD/svg11.dtd">
<svg xmlns:xlink="http://www.w3.org/1999/xlink" width="144pt" height="324pt" viewBox="0 0 144 324" xmlns="http://www.w3.org/2000/svg" version="1.1">
 <metadata>
  <rdf:RDF xmlns:dc="http://purl.org/dc/elements/1.1/" xmlns:cc="http://creativecommons.org/ns#" xmlns:rdf="http://www.w3.org/1999/02/22-rdf-syntax-ns#">
   <cc:Work>
    <dc:type rdf:resource="http://purl.org/dc/dcmitype/StillImage"/>
    <dc:date>2025-12-11T11:14:58.142135</dc:date>
    <dc:format>image/svg+xml</dc:format>
    <dc:creator>
     <cc:Agent>
      <dc:title>Matplotlib v3.10.3, https://matplotlib.org/</dc:title>
     </cc:Agent>
    </dc:creator>
   </cc:Work>
  </rdf:RDF>
 </metadata>
 <defs>
  <style type="text/css">*{stroke-linejoin: round; stroke-linecap: butt}</style>
 </defs>
 <g id="figure_1">
  <g id="patch_1">
   <path d="M 0 324 
L 144 324 
L 144 0 
L 0 0 
z
" style="fill: #ffffff"/>
  </g>
  <g id="axes_1">
   <g id="patch_2">
    <path d="M 21.6 291.6 
L 136.8 291.6 
L 136.8 16.2 
L 21.6 16.2 
z
" style="fill: #ffffff"/>
   </g>
   <g id="FillBetweenPolyCollection_1">
    <path d="M 52.017416 202.779525 
L 48.782584 202.779525 
L 48.664983 201.904975 
L 48.552363 201.030426 
L 48.444723 200.155877 
L 48.341414 199.281327 
L 48.241153 198.406778 
L 48.14208 197.532228 
L 48.041859 196.657679 
L 47.937823 195.78313 
L 47.827148 194.90858 
L 47.707027 194.034031 
L 47.574863 193.159482 
L 47.428422 192.284932 
L 47.265968 191.410383 
L 47.086349 190.535833 
L 46.889028 189.661284 
L 46.674063 188.786735 
L 46.442037 187.912185 
L 46.193934 187.037636 
L 45.930999 186.163087 
L 45.65457 185.288537 
L 45.365925 184.413988 
L 45.066141 183.539438 
L 44.756003 182.664889 
L 44.435954 181.79034 
L 44.106108 180.91579 
L 43.766321 180.041241 
L 43.416311 179.166692 
L 43.05582 178.292142 
L 42.684794 177.417593 
L 42.303562 176.543043 
L 41.912989 175.668494 
L 41.51458 174.793945 
L 41.110524 173.919395 
L 40.703657 173.044846 
L 40.297348 172.170296 
L 39.895308 171.295747 
L 39.501345 170.421198 
L 39.119088 169.546648 
L 38.751698 168.672099 
L 38.401612 167.79755 
L 38.07034 166.923 
L 37.75834 166.048451 
L 37.464992 165.173901 
L 37.188664 164.299352 
L 36.926872 163.424803 
L 36.676522 162.550253 
L 36.434192 161.675704 
L 36.196446 160.801155 
L 35.960138 159.926605 
L 35.722692 159.052056 
L 35.482328 158.177506 
L 35.238236 157.302957 
L 34.99068 156.428408 
L 34.741052 155.553858 
L 34.491865 154.679309 
L 34.24671 153.80476 
L 34.010169 152.93021 
L 33.787707 152.055661 
L 33.585536 151.181111 
L 33.410443 150.306562 
L 33.269606 149.432013 
L 33.17037 148.557463 
L 33.12 147.682914 
L 33.125406 146.808364 
L 33.192848 145.933815 
L 33.327638 145.059266 
L 33.533844 144.184716 
L 33.81402 143.310167 
L 34.168981 142.435618 
L 34.597634 141.561068 
L 35.096887 140.686519 
L 35.661653 139.811969 
L 36.284935 138.93742 
L 36.958021 138.062871 
L 37.67076 137.188321 
L 38.411914 136.313772 
L 39.169577 135.439223 
L 39.931622 134.564673 
L 40.686169 133.690124 
L 41.42203 132.815574 
L 42.129122 131.941025 
L 42.798819 131.066476 
L 43.424225 130.191926 
L 44.000357 129.317377 
L 44.524233 128.442828 
L 44.994861 127.568278 
L 45.413139 126.693729 
L 45.781667 125.819179 
L 46.104494 124.94463 
L 46.386809 124.070081 
L 46.634594 123.195531 
L 46.854259 122.320982 
L 47.052286 121.446433 
L 47.234879 120.571883 
L 47.407671 119.697334 
L 47.575471 118.822784 
L 47.742083 117.948235 
L 47.910196 117.073686 
L 48.081361 116.199136 
L 52.718639 116.199136 
L 52.718639 116.199136 
L 52.889804 117.073686 
L 53.057917 117.948235 
L 53.224529 118.822784 
L 53.392329 119.697334 
L 53.565121 120.571883 
L 53.747714 121.446433 
L 53.945741 122.320982 
L 54.165406 123.195531 
L 54.413191 124.070081 
L 54.695506 124.94463 
L 55.018333 125.819179 
L 55.386861 126.693729 
L 55.805139 127.568278 
L 56.275767 128.442828 
L 56.799643 129.317377 
L 57.375775 130.191926 
L 58.001181 131.066476 
L 58.670878 131.941025 
L 59.37797 132.815574 
L 60.113831 133.690124 
L 60.868378 134.564673 
L 61.630423 135.439223 
L 62.388086 136.313772 
L 63.12924 137.188321 
L 63.841979 138.062871 
L 64.515065 138.93742 
L 65.138347 139.811969 
L 65.703113 140.686519 
L 66.202366 141.561068 
L 66.631019 142.435618 
L 66.98598 143.310167 
L 67.266156 144.184716 
L 67.472362 145.059266 
L 67.607152 145.933815 
L 67.674594 146.808364 
L 67.68 147.682914 
L 67.62963 148.557463 
L 67.530394 149.432013 
L 67.389557 150.306562 
L 67.214464 151.181111 
L 67.012293 152.055661 
L 66.789831 152.93021 
L 66.55329 153.80476 
L 66.308135 154.679309 
L 66.058948 155.553858 
L 65.80932 156.428408 
L 65.561764 157.302957 
L 65.317672 158.177506 
L 65.077308 159.052056 
L 64.839862 159.926605 
L 64.603554 160.801155 
L 64.365808 161.675704 
L 64.123478 162.550253 
L 63.873128 163.424803 
L 63.611336 164.299352 
L 63.335008 165.173901 
L 63.04166 166.048451 
L 62.72966 166.923 
L 62.398388 167.79755 
L 62.048302 168.672099 
L 61.680912 169.546648 
L 61.298655 170.421198 
L 60.904692 171.295747 
L 60.502652 172.170296 
L 60.096343 173.044846 
L 59.689476 173.919395 
L 59.28542 174.793945 
L 58.887011 175.668494 
L 58.496438 176.543043 
L 58.115206 177.417593 
L 57.74418 178.292142 
L 57.383689 179.166692 
L 57.033679 180.041241 
L 56.693892 180.91579 
L 56.364046 181.79034 
L 56.043997 182.664889 
L 55.733859 183.539438 
L 55.434075 184.413988 
L 55.14543 185.288537 
L 54.869001 186.163087 
L 54.606066 187.037636 
L 54.357963 187.912185 
L 54.125937 188.786735 
L 53.910972 189.661284 
L 53.713651 190.535833 
L 53.534032 191.410383 
L 53.371578 192.284932 
L 53.225137 193.159482 
L 53.092973 194.034031 
L 52.972852 194.90858 
L 52.862177 195.78313 
L 52.758141 196.657679 
L 52.65792 197.532228 
L 52.558847 198.406778 
L 52.458586 199.281327 
L 52.355277 200.155877 
L 52.247637 201.030426 
L 52.135017 201.904975 
L 52.017416 202.779525 
L 52.017416 202.779525 
z
" clip-path="url(#pc6e339c9cf)" style="fill: none; stroke: #000000; stroke-opacity: 0.3"/>
   </g>
   <g id="FillBetweenPolyCollection_2">
    <path d="M 51.658248 219.903733 
L 49.141752 219.903733 
L 49.013836 218.176036 
L 48.878218 216.448339 
L 48.726592 214.720643 
L 48.548998 212.992946 
L 48.335127 211.265249 
L 48.075825 209.537552 
L 47.764492 207.809856 
L 47.398074 206.082159 
L 46.977395 204.354462 
L 46.506747 202.626765 
L 45.992799 200.899069 
L 45.443095 199.171372 
L 44.864522 197.443675 
L 44.262151 195.715978 
L 43.638769 193.988282 
L 42.995246 192.260585 
L 42.331618 190.532888 
L 41.648571 188.805191 
L 40.948857 187.077495 
L 40.238192 185.349798 
L 39.525309 183.622101 
L 38.821109 181.894404 
L 38.137124 180.166708 
L 37.483724 178.439011 
L 36.868619 176.711314 
L 36.296087 174.983617 
L 35.767176 173.255921 
L 35.280808 171.528224 
L 34.835426 169.800527 
L 34.430681 168.07283 
L 34.06864 166.345134 
L 33.754163 164.617437 
L 33.494362 162.88974 
L 33.297356 161.162043 
L 33.170703 159.434347 
L 33.12 157.70665 
L 33.148036 155.978953 
L 33.254694 154.251256 
L 33.437589 152.52356 
L 33.693187 150.795863 
L 34.018074 149.068166 
L 34.40999 147.340469 
L 34.868357 145.612773 
L 35.39414 143.885076 
L 35.989082 142.157379 
L 36.654454 140.429682 
L 37.389592 138.701986 
L 38.190516 136.974289 
L 39.048922 135.246592 
L 39.951736 133.518895 
L 40.881361 131.791198 
L 41.816603 130.063502 
L 42.734183 128.335805 
L 43.610628 126.608108 
L 44.424331 124.880411 
L 45.157508 123.152715 
L 45.797825 121.425018 
L 46.339488 119.697321 
L 46.783659 117.969624 
L 47.138121 116.241928 
L 47.416212 114.514231 
L 47.635144 112.786534 
L 47.813916 111.058837 
L 47.971092 109.331141 
L 48.122767 107.603444 
L 48.280996 105.875747 
L 48.452899 104.14805 
L 48.640541 102.420354 
L 48.841526 100.692657 
L 49.050144 98.96496 
L 49.258819 97.237263 
L 49.459579 95.509567 
L 49.645311 93.78187 
L 49.810633 92.054173 
L 49.95233 90.326476 
L 50.069366 88.59878 
L 50.162578 86.871083 
L 50.234175 85.143386 
L 50.287174 83.415689 
L 50.324871 81.687993 
L 50.350419 79.960296 
L 50.366536 78.232599 
L 50.37534 76.504902 
L 50.3783 74.777206 
L 50.376266 73.049509 
L 50.369559 71.321812 
L 50.358118 69.594115 
L 50.341664 67.866419 
L 50.319901 66.138722 
L 50.292723 64.411025 
L 50.260406 62.683328 
L 50.223775 60.955632 
L 50.184286 59.227935 
L 50.144014 57.500238 
L 50.105523 55.772541 
L 50.071624 54.044845 
L 50.045045 52.317148 
L 50.028076 50.589451 
L 50.022241 48.861754 
L 50.777759 48.861754 
L 50.777759 48.861754 
L 50.771924 50.589451 
L 50.754955 52.317148 
L 50.728376 54.044845 
L 50.694477 55.772541 
L 50.655986 57.500238 
L 50.615714 59.227935 
L 50.576225 60.955632 
L 50.539594 62.683328 
L 50.507277 64.411025 
L 50.480099 66.138722 
L 50.458336 67.866419 
L 50.441882 69.594115 
L 50.430441 71.321812 
L 50.423734 73.049509 
L 50.4217 74.777206 
L 50.42466 76.504902 
L 50.433464 78.232599 
L 50.449581 79.960296 
L 50.475129 81.687993 
L 50.512826 83.415689 
L 50.565825 85.143386 
L 50.637422 86.871083 
L 50.730634 88.59878 
L 50.84767 90.326476 
L 50.989367 92.054173 
L 51.154689 93.78187 
L 51.340421 95.509567 
L 51.541181 97.237263 
L 51.749856 98.96496 
L 51.958474 100.692657 
L 52.159459 102.420354 
L 52.347101 104.14805 
L 52.519004 105.875747 
L 52.677233 107.603444 
L 52.828908 109.331141 
L 52.986084 111.058837 
L 53.164856 112.786534 
L 53.383788 114.514231 
L 53.661879 116.241928 
L 54.016341 117.969624 
L 54.460512 119.697321 
L 55.002175 121.425018 
L 55.642492 123.152715 
L 56.375669 124.880411 
L 57.189372 126.608108 
L 58.065817 128.335805 
L 58.983397 130.063502 
L 59.918639 131.791198 
L 60.848264 133.518895 
L 61.751078 135.246592 
L 62.609484 136.974289 
L 63.410408 138.701986 
L 64.145546 140.429682 
L 64.810918 142.157379 
L 65.40586 143.885076 
L 65.931643 145.612773 
L 66.39001 147.340469 
L 66.781926 149.068166 
L 67.106813 150.795863 
L 67.362411 152.52356 
L 67.545306 154.251256 
L 67.651964 155.978953 
L 67.68 157.70665 
L 67.629297 159.434347 
L 67.502644 161.162043 
L 67.305638 162.88974 
L 67.045837 164.617437 
L 66.73136 166.345134 
L 66.369319 168.07283 
L 65.964574 169.800527 
L 65.519192 171.528224 
L 65.032824 173.255921 
L 64.503913 174.983617 
L 63.931381 176.711314 
L 63.316276 178.439011 
L 62.662876 180.166708 
L 61.978891 181.894404 
L 61.274691 183.622101 
L 60.561808 185.349798 
L 59.851143 187.077495 
L 59.151429 188.805191 
L 58.468382 190.532888 
L 57.804754 192.260585 
L 57.161231 193.988282 
L 56.537849 195.715978 
L 55.935478 197.443675 
L 55.356905 199.171372 
L 54.807201 200.899069 
L 54.293253 202.626765 
L 53.822605 204.354462 
L 53.401926 206.082159 
L 53.035508 207.809856 
L 52.724175 209.537552 
L 52.464873 211.265249 
L 52.251002 212.992946 
L 52.073408 214.720643 
L 51.921782 216.448339 
L 51.786164 218.176036 
L 51.658248 219.903733 
L 51.658248 219.903733 
z
" clip-path="url(#pc6e339c9cf)" style="fill: none; stroke: #000000; stroke-opacity: 0.3"/>
   </g>
   <g id="FillBetweenPolyCollection_3">
    <path d="M 51.753462 208.257211 
L 49.046538 208.257211 
L 48.900728 207.328969 
L 48.742822 206.400727 
L 48.572077 205.472485 
L 48.387877 204.544243 
L 48.189783 203.616001 
L 47.977581 202.687759 
L 47.751313 201.759517 
L 47.511291 200.831276 
L 47.258092 199.903034 
L 46.992531 198.974792 
L 46.715612 198.04655 
L 46.428469 197.118308 
L 46.13229 196.190066 
L 45.828248 195.261824 
L 45.517423 194.333582 
L 45.20075 193.40534 
L 44.878976 192.477098 
L 44.552647 191.548856 
L 44.22211 190.620614 
L 43.887543 189.692372 
L 43.549003 188.76413 
L 43.206477 187.835888 
L 42.859946 186.907646 
L 42.509438 185.979404 
L 42.155063 185.051162 
L 41.797043 184.12292 
L 41.435712 183.194678 
L 41.071499 182.266436 
L 40.704897 181.338195 
L 40.336429 180.409953 
L 39.966606 179.481711 
L 39.595906 178.553469 
L 39.22476 177.625227 
L 38.85357 176.696985 
L 38.482749 175.768743 
L 38.112779 174.840501 
L 37.744294 173.912259 
L 37.378159 172.984017 
L 37.01555 172.055775 
L 36.658005 171.127533 
L 36.307451 170.199291 
L 35.966182 169.271049 
L 35.636792 168.342807 
L 35.322064 167.414565 
L 35.024812 166.486323 
L 34.747705 165.558081 
L 34.493072 164.629839 
L 34.262722 163.701597 
L 34.057785 162.773355 
L 33.878614 161.845114 
L 33.724737 160.916872 
L 33.59489 159.98863 
L 33.487115 159.060388 
L 33.398935 158.132146 
L 33.327574 157.203904 
L 33.270216 156.275662 
L 33.224278 155.34742 
L 33.187663 154.419178 
L 33.158979 153.490936 
L 33.137699 152.562694 
L 33.124246 151.634452 
L 33.12 150.70621 
L 33.127218 149.777968 
L 33.148886 148.849726 
L 33.188506 147.921484 
L 33.249849 146.993242 
L 33.33668 146.065 
L 33.452497 145.136758 
L 33.600282 144.208516 
L 33.782299 143.280274 
L 33.999947 142.352033 
L 34.253661 141.423791 
L 34.542886 140.495549 
L 34.866097 139.567307 
L 35.220879 138.639065 
L 35.604041 137.710823 
L 36.011765 136.782581 
L 36.439778 135.854339 
L 36.883534 134.926097 
L 37.338401 133.997855 
L 37.799842 133.069613 
L 38.263589 132.141371 
L 38.725804 131.213129 
L 39.183206 130.284887 
L 39.633187 129.356645 
L 40.073876 128.428403 
L 40.504185 127.500161 
L 40.923796 126.571919 
L 41.33311 125.643677 
L 41.733164 124.715435 
L 42.125488 123.787193 
L 42.511951 122.858952 
L 42.894571 121.93071 
L 43.275321 121.002468 
L 43.655941 120.074226 
L 44.037763 119.145984 
L 44.421573 118.217742 
L 44.807512 117.2895 
L 45.195027 116.361258 
L 55.604973 116.361258 
L 55.604973 116.361258 
L 55.992488 117.2895 
L 56.378427 118.217742 
L 56.762237 119.145984 
L 57.144059 120.074226 
L 57.524679 121.002468 
L 57.905429 121.93071 
L 58.288049 122.858952 
L 58.674512 123.787193 
L 59.066836 124.715435 
L 59.46689 125.643677 
L 59.876204 126.571919 
L 60.295815 127.500161 
L 60.726124 128.428403 
L 61.166813 129.356645 
L 61.616794 130.284887 
L 62.074196 131.213129 
L 62.536411 132.141371 
L 63.000158 133.069613 
L 63.461599 133.997855 
L 63.916466 134.926097 
L 64.360222 135.854339 
L 64.788235 136.782581 
L 65.195959 137.710823 
L 65.579121 138.639065 
L 65.933903 139.567307 
L 66.257114 140.495549 
L 66.546339 141.423791 
L 66.800053 142.352033 
L 67.017701 143.280274 
L 67.199718 144.208516 
L 67.347503 145.136758 
L 67.46332 146.065 
L 67.550151 146.993242 
L 67.611494 147.921484 
L 67.651114 148.849726 
L 67.672782 149.777968 
L 67.68 150.70621 
L 67.675754 151.634452 
L 67.662301 152.562694 
L 67.641021 153.490936 
L 67.612337 154.419178 
L 67.575722 155.34742 
L 67.529784 156.275662 
L 67.472426 157.203904 
L 67.401065 158.132146 
L 67.312885 159.060388 
L 67.20511 159.98863 
L 67.075263 160.916872 
L 66.921386 161.845114 
L 66.742215 162.773355 
L 66.537278 163.701597 
L 66.306928 164.629839 
L 66.052295 165.558081 
L 65.775188 166.486323 
L 65.477936 167.414565 
L 65.163208 168.342807 
L 64.833818 169.271049 
L 64.492549 170.199291 
L 64.141995 171.127533 
L 63.78445 172.055775 
L 63.421841 172.984017 
L 63.055706 173.912259 
L 62.687221 174.840501 
L 62.317251 175.768743 
L 61.94643 176.696985 
L 61.57524 177.625227 
L 61.204094 178.553469 
L 60.833394 179.481711 
L 60.463571 180.409953 
L 60.095103 181.338195 
L 59.728501 182.266436 
L 59.364288 183.194678 
L 59.002957 184.12292 
L 58.644937 185.051162 
L 58.290562 185.979404 
L 57.940054 186.907646 
L 57.593523 187.835888 
L 57.250997 188.76413 
L 56.912457 189.692372 
L 56.57789 190.620614 
L 56.247353 191.548856 
L 55.921024 192.477098 
L 55.59925 193.40534 
L 55.282577 194.333582 
L 54.971752 195.261824 
L 54.66771 196.190066 
L 54.371531 197.118308 
L 54.084388 198.04655 
L 53.807469 198.974792 
L 53.541908 199.903034 
L 53.288709 200.831276 
L 53.048687 201.759517 
L 52.822419 202.687759 
L 52.610217 203.616001 
L 52.412123 204.544243 
L 52.227923 205.472485 
L 52.057178 206.400727 
L 51.899272 207.328969 
L 51.753462 208.257211 
L 51.753462 208.257211 
z
" clip-path="url(#pc6e339c9cf)" style="fill: none; stroke: #000000; stroke-opacity: 0.3"/>
   </g>
   <g id="FillBetweenPolyCollection_4">
    <path d="M 50.761094 253.237157 
L 50.038906 253.237157 
L 50.035983 251.765379 
L 50.04025 250.293601 
L 50.04948 248.821823 
L 50.060845 247.350045 
L 50.071396 245.878267 
L 50.078573 244.406489 
L 50.080664 242.934711 
L 50.077096 241.462933 
L 50.068519 239.991155 
L 50.056649 238.519377 
L 50.043906 237.047599 
L 50.032914 235.57582 
L 50.025962 234.104042 
L 50.024531 232.632264 
L 50.028986 231.160486 
L 50.038483 229.688708 
L 50.051115 228.21693 
L 50.064253 226.745152 
L 50.075016 225.273374 
L 50.080754 223.801596 
L 50.079438 222.329818 
L 50.069875 220.85804 
L 50.051687 219.386261 
L 50.025046 217.914483 
L 49.990233 216.442705 
L 49.947093 214.970927 
L 49.894527 213.499149 
L 49.830138 212.027371 
L 49.750118 210.555593 
L 49.649429 209.083815 
L 49.522236 207.612037 
L 49.362504 206.140259 
L 49.164621 204.668481 
L 48.923913 203.196702 
L 48.636946 201.724924 
L 48.301605 200.253146 
L 47.916981 198.781368 
L 47.483207 197.30959 
L 47.001351 195.837812 
L 46.473475 194.366034 
L 45.902878 192.894256 
L 45.294444 191.422478 
L 44.654959 189.9507 
L 43.993234 188.478922 
L 43.319897 187.007144 
L 42.646831 185.535365 
L 41.986285 184.063587 
L 41.349805 182.591809 
L 40.747138 181.120031 
L 40.18526 179.648253 
L 39.667656 178.176475 
L 39.193902 176.704697 
L 38.759611 175.232919 
L 38.356764 173.761141 
L 37.974467 172.289363 
L 37.600137 170.817585 
L 37.221091 169.345806 
L 36.826405 167.874028 
L 36.408829 166.40225 
L 35.966463 164.930472 
L 35.503847 163.458694 
L 35.032214 161.986916 
L 34.568715 160.515138 
L 34.13468 159.04336 
L 33.75312 157.571582 
L 33.44589 156.099804 
L 33.231006 154.628026 
L 33.120615 153.156248 
L 33.12 151.684469 
L 33.227778 150.212691 
L 33.437214 148.740913 
L 33.73832 147.269135 
L 34.120252 145.797357 
L 34.57345 144.325579 
L 35.091068 142.853801 
L 35.669412 141.382023 
L 36.307357 139.910245 
L 37.004957 138.438467 
L 37.761648 136.966689 
L 38.5745 135.49491 
L 39.436945 134.023132 
L 40.338247 132.551354 
L 41.263804 131.079576 
L 42.196169 129.607798 
L 43.116541 128.13602 
L 44.006406 126.664242 
L 44.849058 125.192464 
L 45.630761 123.720686 
L 46.341468 122.248908 
L 46.975095 120.77713 
L 47.529409 119.305351 
L 48.005646 117.833573 
L 48.407957 116.361795 
L 48.74276 114.890017 
L 49.018045 113.418239 
L 49.242675 111.946461 
L 49.425705 110.474683 
L 49.575761 109.002905 
L 49.700523 107.531127 
L 51.099477 107.531127 
L 51.099477 107.531127 
L 51.224239 109.002905 
L 51.374295 110.474683 
L 51.557325 111.946461 
L 51.781955 113.418239 
L 52.05724 114.890017 
L 52.392043 116.361795 
L 52.794354 117.833573 
L 53.270591 119.305351 
L 53.824905 120.77713 
L 54.458532 122.248908 
L 55.169239 123.720686 
L 55.950942 125.192464 
L 56.793594 126.664242 
L 57.683459 128.13602 
L 58.603831 129.607798 
L 59.536196 131.079576 
L 60.461753 132.551354 
L 61.363055 134.023132 
L 62.2255 135.49491 
L 63.038352 136.966689 
L 63.795043 138.438467 
L 64.492643 139.910245 
L 65.130588 141.382023 
L 65.708932 142.853801 
L 66.22655 144.325579 
L 66.679748 145.797357 
L 67.06168 147.269135 
L 67.362786 148.740913 
L 67.572222 150.212691 
L 67.68 151.684469 
L 67.679385 153.156248 
L 67.568994 154.628026 
L 67.35411 156.099804 
L 67.04688 157.571582 
L 66.66532 159.04336 
L 66.231285 160.515138 
L 65.767786 161.986916 
L 65.296153 163.458694 
L 64.833537 164.930472 
L 64.391171 166.40225 
L 63.973595 167.874028 
L 63.578909 169.345806 
L 63.199863 170.817585 
L 62.825533 172.289363 
L 62.443236 173.761141 
L 62.040389 175.232919 
L 61.606098 176.704697 
L 61.132344 178.176475 
L 60.61474 179.648253 
L 60.052862 181.120031 
L 59.450195 182.591809 
L 58.813715 184.063587 
L 58.153169 185.535365 
L 57.480103 187.007144 
L 56.806766 188.478922 
L 56.145041 189.9507 
L 55.505556 191.422478 
L 54.897122 192.894256 
L 54.326525 194.366034 
L 53.798649 195.837812 
L 53.316793 197.30959 
L 52.883019 198.781368 
L 52.498395 200.253146 
L 52.163054 201.724924 
L 51.876087 203.196702 
L 51.635379 204.668481 
L 51.437496 206.140259 
L 51.277764 207.612037 
L 51.150571 209.083815 
L 51.049882 210.555593 
L 50.969862 212.027371 
L 50.905473 213.499149 
L 50.852907 214.970927 
L 50.809767 216.442705 
L 50.774954 217.914483 
L 50.748313 219.386261 
L 50.730125 220.85804 
L 50.720562 222.329818 
L 50.719246 223.801596 
L 50.724984 225.273374 
L 50.735747 226.745152 
L 50.748885 228.21693 
L 50.761517 229.688708 
L 50.771014 231.160486 
L 50.775469 232.632264 
L 50.774038 234.104042 
L 50.767086 235.57582 
L 50.756094 237.047599 
L 50.743351 238.519377 
L 50.731481 239.991155 
L 50.722904 241.462933 
L 50.719336 242.934711 
L 50.721427 244.406489 
L 50.728604 245.878267 
L 50.739155 247.350045 
L 50.75052 248.821823 
L 50.75975 250.293601 
L 50.764017 251.765379 
L 50.761094 253.237157 
L 50.761094 253.237157 
z
" clip-path="url(#pc6e339c9cf)" style="fill: none; stroke: #000000; stroke-opacity: 0.3"/>
   </g>
   <g id="FillBetweenPolyCollection_5">
    <path d="M 55.195861 192.121581 
L 45.604139 192.121581 
L 44.797423 190.434248 
L 43.921957 188.746915 
L 42.986435 187.059582 
L 42.002859 185.372249 
L 40.986405 183.684916 
L 39.955058 181.997583 
L 38.929 180.31025 
L 37.929795 178.622917 
L 36.979402 176.935584 
L 36.099106 175.248251 
L 35.308439 173.560918 
L 34.624209 171.873585 
L 34.059706 170.186252 
L 33.624168 168.498919 
L 33.32254 166.811586 
L 33.15554 165.124253 
L 33.12 163.43692 
L 33.209438 161.749587 
L 33.414763 160.062254 
L 33.725056 158.374921 
L 34.12832 156.687588 
L 34.612146 155.000255 
L 35.164252 153.312922 
L 35.77286 151.625589 
L 36.426921 149.938256 
L 37.116214 148.250923 
L 37.831343 146.56359 
L 38.56368 144.876257 
L 39.305279 143.188924 
L 40.048808 141.501591 
L 40.787499 139.814258 
L 41.515134 138.126925 
L 42.226065 136.439592 
L 42.915243 134.752259 
L 43.578262 133.064926 
L 44.211382 131.377593 
L 44.811541 129.69026 
L 45.376328 128.002927 
L 45.903936 126.315594 
L 46.393097 124.628261 
L 46.843003 122.940928 
L 47.25323 121.253595 
L 47.623687 119.566262 
L 47.954574 117.878929 
L 48.246384 116.191596 
L 48.499914 114.504263 
L 48.716308 112.81693 
L 48.8971 111.129597 
L 49.04425 109.442264 
L 49.160166 107.754931 
L 49.247699 106.067598 
L 49.310099 104.380265 
L 49.350946 102.692932 
L 49.374049 101.005599 
L 49.383322 99.318266 
L 49.382651 97.630933 
L 49.37577 95.9436 
L 49.366135 94.256267 
L 49.356834 92.568934 
L 49.350503 90.881601 
L 49.349285 89.194268 
L 49.354803 87.506935 
L 49.368158 85.819602 
L 49.389942 84.132269 
L 49.42027 82.444936 
L 49.458809 80.757603 
L 49.504829 79.07027 
L 49.557249 77.382937 
L 49.614692 75.695604 
L 49.675547 74.008271 
L 49.738039 72.320938 
L 49.800293 70.633605 
L 49.860417 68.946272 
L 49.916575 67.258939 
L 49.96706 65.571606 
L 50.010367 63.884273 
L 50.045251 62.19694 
L 50.070778 60.509607 
L 50.086362 58.822274 
L 50.091792 57.134941 
L 50.087233 55.447608 
L 50.073225 53.760275 
L 50.050657 52.072942 
L 50.020733 50.385609 
L 49.98492 48.698276 
L 49.944889 47.010943 
L 49.902448 45.32361 
L 49.859464 43.636277 
L 49.817794 41.948944 
L 49.779206 40.261611 
L 49.745318 38.574278 
L 49.717539 36.886945 
L 49.697019 35.199612 
L 49.684617 33.512279 
L 49.680876 31.824946 
L 49.686014 30.137613 
L 49.699921 28.45028 
L 49.722177 26.762947 
L 49.752071 25.075614 
L 51.047929 25.075614 
L 51.047929 25.075614 
L 51.077823 26.762947 
L 51.100079 28.45028 
L 51.113986 30.137613 
L 51.119124 31.824946 
L 51.115383 33.512279 
L 51.102981 35.199612 
L 51.082461 36.886945 
L 51.054682 38.574278 
L 51.020794 40.261611 
L 50.982206 41.948944 
L 50.940536 43.636277 
L 50.897552 45.32361 
L 50.855111 47.010943 
L 50.81508 48.698276 
L 50.779267 50.385609 
L 50.749343 52.072942 
L 50.726775 53.760275 
L 50.712767 55.447608 
L 50.708208 57.134941 
L 50.713638 58.822274 
L 50.729222 60.509607 
L 50.754749 62.19694 
L 50.789633 63.884273 
L 50.83294 65.571606 
L 50.883425 67.258939 
L 50.939583 68.946272 
L 50.999707 70.633605 
L 51.061961 72.320938 
L 51.124453 74.008271 
L 51.185308 75.695604 
L 51.242751 77.382937 
L 51.295171 79.07027 
L 51.341191 80.757603 
L 51.37973 82.444936 
L 51.410058 84.132269 
L 51.431842 85.819602 
L 51.445197 87.506935 
L 51.450715 89.194268 
L 51.449497 90.881601 
L 51.443166 92.568934 
L 51.433865 94.256267 
L 51.42423 95.9436 
L 51.417349 97.630933 
L 51.416678 99.318266 
L 51.425951 101.005599 
L 51.449054 102.692932 
L 51.489901 104.380265 
L 51.552301 106.067598 
L 51.639834 107.754931 
L 51.75575 109.442264 
L 51.9029 111.129597 
L 52.083692 112.81693 
L 52.300086 114.504263 
L 52.553616 116.191596 
L 52.845426 117.878929 
L 53.176313 119.566262 
L 53.54677 121.253595 
L 53.956997 122.940928 
L 54.406903 124.628261 
L 54.896064 126.315594 
L 55.423672 128.002927 
L 55.988459 129.69026 
L 56.588618 131.377593 
L 57.221738 133.064926 
L 57.884757 134.752259 
L 58.573935 136.439592 
L 59.284866 138.126925 
L 60.012501 139.814258 
L 60.751192 141.501591 
L 61.494721 143.188924 
L 62.23632 144.876257 
L 62.968657 146.56359 
L 63.683786 148.250923 
L 64.373079 149.938256 
L 65.02714 151.625589 
L 65.635748 153.312922 
L 66.187854 155.000255 
L 66.67168 156.687588 
L 67.074944 158.374921 
L 67.385237 160.062254 
L 67.590562 161.749587 
L 67.68 163.43692 
L 67.64446 165.124253 
L 67.47746 166.811586 
L 67.175832 168.498919 
L 66.740294 170.186252 
L 66.175791 171.873585 
L 65.491561 173.560918 
L 64.700894 175.248251 
L 63.820598 176.935584 
L 62.870205 178.622917 
L 61.871 180.31025 
L 60.844942 181.997583 
L 59.813595 183.684916 
L 58.797141 185.372249 
L 57.813565 187.059582 
L 56.878043 188.746915 
L 56.002577 190.434248 
L 55.195861 192.121581 
L 55.195861 192.121581 
z
" clip-path="url(#pc6e339c9cf)" style="fill: none; stroke: #000000; stroke-opacity: 0.3"/>
   </g>
   <g id="FillBetweenPolyCollection_6">
    <path d="M 51.612256 219.903969 
L 49.187744 219.903969 
L 49.185635 218.795576 
L 49.192013 217.687182 
L 49.205823 216.578788 
L 49.225617 215.470394 
L 49.249572 214.362 
L 49.275524 213.253607 
L 49.301013 212.145213 
L 49.323331 211.036819 
L 49.339578 209.928425 
L 49.346728 208.820032 
L 49.341686 207.711638 
L 49.321353 206.603244 
L 49.282684 205.49485 
L 49.222751 204.386456 
L 49.138789 203.278063 
L 49.028252 202.169669 
L 48.888851 201.061275 
L 48.718596 199.952881 
L 48.51582 198.844488 
L 48.279211 197.736094 
L 48.007824 196.6277 
L 47.701091 195.519306 
L 47.358826 194.410912 
L 46.981222 193.302519 
L 46.568841 192.194125 
L 46.122606 191.085731 
L 45.643785 189.977337 
L 45.133978 188.868943 
L 44.595107 187.76055 
L 44.02941 186.652156 
L 43.439434 185.543762 
L 42.828041 184.435368 
L 42.198419 183.326975 
L 41.554091 182.218581 
L 40.89893 181.110187 
L 40.237176 180.001793 
L 39.573438 178.893399 
L 38.912699 177.785006 
L 38.260292 176.676612 
L 37.621873 175.568218 
L 37.003357 174.459824 
L 36.410844 173.351431 
L 35.85051 172.243037 
L 35.328478 171.134643 
L 34.850669 170.026249 
L 34.422632 168.917855 
L 34.049374 167.809462 
L 33.735175 166.701068 
L 33.483415 165.592674 
L 33.296422 164.48428 
L 33.175334 163.375886 
L 33.12 162.267493 
L 33.128923 161.159099 
L 33.199247 160.050705 
L 33.326795 158.942311 
L 33.506167 157.833918 
L 33.73088 156.725524 
L 33.993565 155.61713 
L 34.286208 154.508736 
L 34.600419 153.400342 
L 34.927734 152.291949 
L 35.259924 151.183555 
L 35.589297 150.075161 
L 35.908996 148.966767 
L 36.213251 147.858374 
L 36.497597 146.74998 
L 36.759034 145.641586 
L 36.996117 144.533192 
L 37.208983 143.424798 
L 37.3993 142.316405 
L 37.570147 141.208011 
L 37.725828 140.099617 
L 37.871636 138.991223 
L 38.013559 137.882829 
L 38.157974 136.774436 
L 38.311321 135.666042 
L 38.479776 134.557648 
L 38.668957 133.449254 
L 38.883655 132.340861 
L 39.127623 131.232467 
L 39.403418 130.124073 
L 39.712306 129.015679 
L 40.054245 127.907285 
L 40.427917 126.798892 
L 40.830837 125.690498 
L 41.259498 124.582104 
L 41.70957 123.47371 
L 42.176117 122.365316 
L 42.653832 121.256923 
L 43.137269 120.148529 
L 43.621067 119.040135 
L 44.100144 117.931741 
L 44.569864 116.823348 
L 45.026161 115.714954 
L 45.465625 114.60656 
L 45.885545 113.498166 
L 46.283911 112.389772 
L 46.659386 111.281379 
L 47.011246 110.172985 
L 53.788754 110.172985 
L 53.788754 110.172985 
L 54.140614 111.281379 
L 54.516089 112.389772 
L 54.914455 113.498166 
L 55.334375 114.60656 
L 55.773839 115.714954 
L 56.230136 116.823348 
L 56.699856 117.931741 
L 57.178933 119.040135 
L 57.662731 120.148529 
L 58.146168 121.256923 
L 58.623883 122.365316 
L 59.09043 123.47371 
L 59.540502 124.582104 
L 59.969163 125.690498 
L 60.372083 126.798892 
L 60.745755 127.907285 
L 61.087694 129.015679 
L 61.396582 130.124073 
L 61.672377 131.232467 
L 61.916345 132.340861 
L 62.131043 133.449254 
L 62.320224 134.557648 
L 62.488679 135.666042 
L 62.642026 136.774436 
L 62.786441 137.882829 
L 62.928364 138.991223 
L 63.074172 140.099617 
L 63.229853 141.208011 
L 63.4007 142.316405 
L 63.591017 143.424798 
L 63.803883 144.533192 
L 64.040966 145.641586 
L 64.302403 146.74998 
L 64.586749 147.858374 
L 64.891004 148.966767 
L 65.210703 150.075161 
L 65.540076 151.183555 
L 65.872266 152.291949 
L 66.199581 153.400342 
L 66.513792 154.508736 
L 66.806435 155.61713 
L 67.06912 156.725524 
L 67.293833 157.833918 
L 67.473205 158.942311 
L 67.600753 160.050705 
L 67.671077 161.159099 
L 67.68 162.267493 
L 67.624666 163.375886 
L 67.503578 164.48428 
L 67.316585 165.592674 
L 67.064825 166.701068 
L 66.750626 167.809462 
L 66.377368 168.917855 
L 65.949331 170.026249 
L 65.471522 171.134643 
L 64.94949 172.243037 
L 64.389156 173.351431 
L 63.796643 174.459824 
L 63.178127 175.568218 
L 62.539708 176.676612 
L 61.887301 177.785006 
L 61.226562 178.893399 
L 60.562824 180.001793 
L 59.90107 181.110187 
L 59.245909 182.218581 
L 58.601581 183.326975 
L 57.971959 184.435368 
L 57.360566 185.543762 
L 56.77059 186.652156 
L 56.204893 187.76055 
L 55.666022 188.868943 
L 55.156215 189.977337 
L 54.677394 191.085731 
L 54.231159 192.194125 
L 53.818778 193.302519 
L 53.441174 194.410912 
L 53.098909 195.519306 
L 52.792176 196.6277 
L 52.520789 197.736094 
L 52.28418 198.844488 
L 52.081404 199.952881 
L 51.911149 201.061275 
L 51.771748 202.169669 
L 51.661211 203.278063 
L 51.577249 204.386456 
L 51.517316 205.49485 
L 51.478647 206.603244 
L 51.458314 207.711638 
L 51.453272 208.820032 
L 51.460422 209.928425 
L 51.476669 211.036819 
L 51.498987 212.145213 
L 51.524476 213.253607 
L 51.550428 214.362 
L 51.574383 215.470394 
L 51.594177 216.578788 
L 51.607987 217.687182 
L 51.614365 218.795576 
L 51.612256 219.903969 
L 51.612256 219.903969 
z
" clip-path="url(#pc6e339c9cf)" style="fill: none; stroke: #000000; stroke-opacity: 0.3"/>
   </g>
   <g id="FillBetweenPolyCollection_7">
    <path d="M 51.283968 307.76523 
L 49.516032 307.76523 
L 49.522179 305.860725 
L 49.540363 303.956221 
L 49.569838 302.051717 
L 49.609411 300.147213 
L 49.657533 298.242708 
L 49.712388 296.338204 
L 49.772016 294.4337 
L 49.834421 292.529195 
L 49.897684 290.624691 
L 49.960053 288.720187 
L 50.020018 286.815683 
L 50.076358 284.911178 
L 50.128165 283.006674 
L 50.174842 281.10217 
L 50.216088 279.197665 
L 50.251858 277.293161 
L 50.282322 275.388657 
L 50.307812 273.484152 
L 50.328773 271.579648 
L 50.345716 269.675144 
L 50.359176 267.77064 
L 50.369682 265.866135 
L 50.377724 263.961631 
L 50.383744 262.057127 
L 50.388114 260.152622 
L 50.391135 258.248118 
L 50.393025 256.343614 
L 50.393924 254.43911 
L 50.393881 252.534605 
L 50.392851 250.630101 
L 50.390684 248.725597 
L 50.387111 246.821092 
L 50.381723 244.916588 
L 50.373948 243.012084 
L 50.363024 241.10758 
L 50.347963 239.203075 
L 50.327518 237.298571 
L 50.300151 235.394067 
L 50.263999 233.489562 
L 50.216854 231.585058 
L 50.156148 229.680554 
L 50.078961 227.776049 
L 49.98204 225.871545 
L 49.861854 223.967041 
L 49.714669 222.062537 
L 49.536655 220.158032 
L 49.324024 218.253528 
L 49.073193 216.349024 
L 48.780967 214.444519 
L 48.444732 212.540015 
L 48.062652 210.635511 
L 47.633845 208.731007 
L 47.158535 206.826502 
L 46.638153 204.921998 
L 46.075388 203.017494 
L 45.474162 201.112989 
L 44.839539 199.208485 
L 44.177558 197.303981 
L 43.495004 195.399476 
L 42.799129 193.494972 
L 42.097343 191.590468 
L 41.396899 189.685964 
L 40.704596 187.781459 
L 40.026524 185.876955 
L 39.367878 183.972451 
L 38.732847 182.067946 
L 38.124591 180.163442 
L 37.545303 178.258938 
L 36.996357 176.354434 
L 36.478507 174.449929 
L 35.992138 172.545425 
L 35.537533 170.640921 
L 35.115134 168.736416 
L 34.725778 166.831912 
L 34.370884 164.927408 
L 34.052582 163.022903 
L 33.773774 161.118399 
L 33.538118 159.213895 
L 33.349941 157.309391 
L 33.214087 155.404886 
L 33.135707 153.500382 
L 33.12 151.595878 
L 33.171929 149.691373 
L 33.295912 147.786869 
L 33.495526 145.882365 
L 33.773215 143.977861 
L 34.130051 142.073356 
L 34.56553 140.168852 
L 35.077444 138.264348 
L 35.661826 136.359843 
L 36.312966 134.455339 
L 37.023524 132.550835 
L 37.784708 130.646331 
L 38.586527 128.741826 
L 39.418097 126.837322 
L 40.267987 124.932818 
L 41.124587 123.028313 
L 41.976475 121.123809 
L 42.81277 119.219305 
L 57.98723 119.219305 
L 57.98723 119.219305 
L 58.823525 121.123809 
L 59.675413 123.028313 
L 60.532013 124.932818 
L 61.381903 126.837322 
L 62.213473 128.741826 
L 63.015292 130.646331 
L 63.776476 132.550835 
L 64.487034 134.455339 
L 65.138174 136.359843 
L 65.722556 138.264348 
L 66.23447 140.168852 
L 66.669949 142.073356 
L 67.026785 143.977861 
L 67.304474 145.882365 
L 67.504088 147.786869 
L 67.628071 149.691373 
L 67.68 151.595878 
L 67.664293 153.500382 
L 67.585913 155.404886 
L 67.450059 157.309391 
L 67.261882 159.213895 
L 67.026226 161.118399 
L 66.747418 163.022903 
L 66.429116 164.927408 
L 66.074222 166.831912 
L 65.684866 168.736416 
L 65.262467 170.640921 
L 64.807862 172.545425 
L 64.321493 174.449929 
L 63.803643 176.354434 
L 63.254697 178.258938 
L 62.675409 180.163442 
L 62.067153 182.067946 
L 61.432122 183.972451 
L 60.773476 185.876955 
L 60.095404 187.781459 
L 59.403101 189.685964 
L 58.702657 191.590468 
L 58.000871 193.494972 
L 57.304996 195.399476 
L 56.622442 197.303981 
L 55.960461 199.208485 
L 55.325838 201.112989 
L 54.724612 203.017494 
L 54.161847 204.921998 
L 53.641465 206.826502 
L 53.166155 208.731007 
L 52.737348 210.635511 
L 52.355268 212.540015 
L 52.019033 214.444519 
L 51.726807 216.349024 
L 51.475976 218.253528 
L 51.263345 220.158032 
L 51.085331 222.062537 
L 50.938146 223.967041 
L 50.81796 225.871545 
L 50.721039 227.776049 
L 50.643852 229.680554 
L 50.583146 231.585058 
L 50.536001 233.489562 
L 50.499849 235.394067 
L 50.472482 237.298571 
L 50.452037 239.203075 
L 50.436976 241.10758 
L 50.426052 243.012084 
L 50.418277 244.916588 
L 50.412889 246.821092 
L 50.409316 248.725597 
L 50.407149 250.630101 
L 50.406119 252.534605 
L 50.406076 254.43911 
L 50.406975 256.343614 
L 50.408865 258.248118 
L 50.411886 260.152622 
L 50.416256 262.057127 
L 50.422276 263.961631 
L 50.430318 265.866135 
L 50.440824 267.77064 
L 50.454284 269.675144 
L 50.471227 271.579648 
L 50.492188 273.484152 
L 50.517678 275.388657 
L 50.548142 277.293161 
L 50.583912 279.197665 
L 50.625158 281.10217 
L 50.671835 283.006674 
L 50.723642 284.911178 
L 50.779982 286.815683 
L 50.839947 288.720187 
L 50.902316 290.624691 
L 50.965579 292.529195 
L 51.027984 294.4337 
L 51.087612 296.338204 
L 51.142467 298.242708 
L 51.190589 300.147213 
L 51.230162 302.051717 
L 51.259637 303.956221 
L 51.277821 305.860725 
L 51.283968 307.76523 
L 51.283968 307.76523 
z
" clip-path="url(#pc6e339c9cf)" style="fill: none; stroke: #000000; stroke-opacity: 0.3"/>
   </g>
   <g id="FillBetweenPolyCollection_8">
    <path d="M 113.92983 219.540021 
L 102.07017 219.540021 
L 101.755074 218.575805 
L 101.441878 217.611589 
L 101.131376 216.647373 
L 100.824269 215.683157 
L 100.521173 214.718942 
L 100.222645 213.754726 
L 99.929197 212.79051 
L 99.641328 211.826294 
L 99.359537 210.862079 
L 99.084353 209.897863 
L 98.816347 208.933647 
L 98.556145 207.969431 
L 98.304436 207.005216 
L 98.061964 206.041 
L 97.829521 205.076784 
L 97.607927 204.112568 
L 97.398001 203.148352 
L 97.200529 202.184137 
L 97.016225 201.219921 
L 96.845685 200.255705 
L 96.689344 199.291489 
L 96.547431 198.327274 
L 96.419927 197.363058 
L 96.30653 196.398842 
L 96.206626 195.434626 
L 96.119268 194.470411 
L 96.04317 193.506195 
L 95.976708 192.541979 
L 95.91794 191.577763 
L 95.864633 190.613548 
L 95.814311 189.649332 
L 95.764301 188.685116 
L 95.711807 187.7209 
L 95.653983 186.756684 
L 95.588009 185.792469 
L 95.511183 184.828253 
L 95.421006 183.864037 
L 95.315264 182.899821 
L 95.192115 181.935606 
L 95.05016 180.97139 
L 94.888507 180.007174 
L 94.706825 179.042958 
L 94.505378 178.078743 
L 94.28505 177.114527 
L 94.047343 176.150311 
L 93.79437 175.186095 
L 93.528818 174.221879 
L 93.253898 173.257664 
L 92.973282 172.293448 
L 92.691024 171.329232 
L 92.411465 170.365016 
L 92.139135 169.400801 
L 91.878648 168.436585 
L 91.634589 167.472369 
L 91.411415 166.508153 
L 91.213346 165.543938 
L 91.044273 164.579722 
L 90.907676 163.615506 
L 90.806553 162.65129 
L 90.743365 161.687075 
L 90.72 160.722859 
L 90.737747 159.758643 
L 90.797296 158.794427 
L 90.898743 157.830211 
L 91.041619 156.865996 
L 91.224927 155.90178 
L 91.447186 154.937564 
L 91.706489 153.973348 
L 92.00056 153.009133 
L 92.326821 152.044917 
L 92.682446 151.080701 
L 93.064432 150.116485 
L 93.469651 149.15227 
L 93.894905 148.188054 
L 94.336977 147.223838 
L 94.792672 146.259622 
L 95.258857 145.295407 
L 95.732495 144.331191 
L 96.210672 143.366975 
L 96.690625 142.402759 
L 97.169763 141.438543 
L 97.645684 140.474328 
L 98.11619 139.510112 
L 98.579307 138.545896 
L 99.033287 137.58168 
L 99.476622 136.617465 
L 99.908045 135.653249 
L 100.326534 134.689033 
L 100.731309 133.724817 
L 101.121823 132.760602 
L 101.49775 131.796386 
L 101.858974 130.83217 
L 102.205565 129.867954 
L 102.537755 128.903738 
L 102.855913 127.939523 
L 103.160516 126.975307 
L 103.452118 126.011091 
L 103.731317 125.046875 
L 103.998732 124.08266 
L 112.001268 124.08266 
L 112.001268 124.08266 
L 112.268683 125.046875 
L 112.547882 126.011091 
L 112.839484 126.975307 
L 113.144087 127.939523 
L 113.462245 128.903738 
L 113.794435 129.867954 
L 114.141026 130.83217 
L 114.50225 131.796386 
L 114.878177 132.760602 
L 115.268691 133.724817 
L 115.673466 134.689033 
L 116.091955 135.653249 
L 116.523378 136.617465 
L 116.966713 137.58168 
L 117.420693 138.545896 
L 117.88381 139.510112 
L 118.354316 140.474328 
L 118.830237 141.438543 
L 119.309375 142.402759 
L 119.789328 143.366975 
L 120.267505 144.331191 
L 120.741143 145.295407 
L 121.207328 146.259622 
L 121.663023 147.223838 
L 122.105095 148.188054 
L 122.530349 149.15227 
L 122.935568 150.116485 
L 123.317554 151.080701 
L 123.673179 152.044917 
L 123.99944 153.009133 
L 124.293511 153.973348 
L 124.552814 154.937564 
L 124.775073 155.90178 
L 124.958381 156.865996 
L 125.101257 157.830211 
L 125.202704 158.794427 
L 125.262253 159.758643 
L 125.28 160.722859 
L 125.256635 161.687075 
L 125.193447 162.65129 
L 125.092324 163.615506 
L 124.955727 164.579722 
L 124.786654 165.543938 
L 124.588585 166.508153 
L 124.365411 167.472369 
L 124.121352 168.436585 
L 123.860865 169.400801 
L 123.588535 170.365016 
L 123.308976 171.329232 
L 123.026718 172.293448 
L 122.746102 173.257664 
L 122.471182 174.221879 
L 122.20563 175.186095 
L 121.952657 176.150311 
L 121.71495 177.114527 
L 121.494622 178.078743 
L 121.293175 179.042958 
L 121.111493 180.007174 
L 120.94984 180.97139 
L 120.807885 181.935606 
L 120.684736 182.899821 
L 120.578994 183.864037 
L 120.488817 184.828253 
L 120.411991 185.792469 
L 120.346017 186.756684 
L 120.288193 187.7209 
L 120.235699 188.685116 
L 120.185689 189.649332 
L 120.135367 190.613548 
L 120.08206 191.577763 
L 120.023292 192.541979 
L 119.95683 193.506195 
L 119.880732 194.470411 
L 119.793374 195.434626 
L 119.69347 196.398842 
L 119.580073 197.363058 
L 119.452569 198.327274 
L 119.310656 199.291489 
L 119.154315 200.255705 
L 118.983775 201.219921 
L 118.799471 202.184137 
L 118.601999 203.148352 
L 118.392073 204.112568 
L 118.170479 205.076784 
L 117.938036 206.041 
L 117.695564 207.005216 
L 117.443855 207.969431 
L 117.183653 208.933647 
L 116.915647 209.897863 
L 116.640463 210.862079 
L 116.358672 211.826294 
L 116.070803 212.79051 
L 115.777355 213.754726 
L 115.478827 214.718942 
L 115.175731 215.683157 
L 114.868624 216.647373 
L 114.558122 217.611589 
L 114.244926 218.575805 
L 113.92983 219.540021 
L 113.92983 219.540021 
z
" clip-path="url(#pc6e339c9cf)" style="fill: none; stroke: #000000; stroke-opacity: 0.3"/>
   </g>
   <g id="FillBetweenPolyCollection_9">
    <path d="M 109.499364 244.063909 
L 106.500636 244.063909 
L 106.431073 242.865038 
L 106.36035 241.666167 
L 106.287394 240.467296 
L 106.211013 239.268425 
L 106.12995 238.069554 
L 106.042936 236.870683 
L 105.948737 235.671811 
L 105.846209 234.47294 
L 105.734327 233.274069 
L 105.612217 232.075198 
L 105.479162 230.876327 
L 105.334594 229.677456 
L 105.178078 228.478585 
L 105.009266 227.279714 
L 104.827853 226.080843 
L 104.633516 224.881971 
L 104.425856 223.6831 
L 104.20434 222.484229 
L 103.968253 221.285358 
L 103.716668 220.086487 
L 103.448429 218.887616 
L 103.162168 217.688745 
L 102.856339 216.489874 
L 102.529289 215.291003 
L 102.179347 214.092132 
L 101.804937 212.89326 
L 101.404713 211.694389 
L 100.9777 210.495518 
L 100.523433 209.296647 
L 100.0421 208.097776 
L 99.534652 206.898905 
L 99.002899 205.700034 
L 98.449568 204.501163 
L 97.878311 203.302292 
L 97.293682 202.103421 
L 96.701051 200.904549 
L 96.106477 199.705678 
L 95.516539 198.506807 
L 94.938124 197.307936 
L 94.378192 196.109065 
L 93.84352 194.910194 
L 93.340451 193.711323 
L 92.874642 192.512452 
L 92.450846 191.313581 
L 92.072728 190.11471 
L 91.742729 188.915838 
L 91.461992 187.716967 
L 91.230341 186.518096 
L 91.046335 185.319225 
L 90.907376 184.120354 
L 90.809874 182.921483 
L 90.74946 181.722612 
L 90.721228 180.523741 
L 90.72 179.32487 
L 90.74059 178.125999 
L 90.778056 176.927127 
L 90.82793 175.728256 
L 90.8864 174.529385 
L 90.950455 173.330514 
L 91.017961 172.131643 
L 91.0877 170.932772 
L 91.159337 169.733901 
L 91.233349 168.53503 
L 91.310915 167.336159 
L 91.393766 166.137288 
L 91.484032 164.938416 
L 91.584071 163.739545 
L 91.696315 162.540674 
L 91.823119 161.341803 
L 91.966648 160.142932 
L 92.128778 158.944061 
L 92.311042 157.74519 
L 92.514591 156.546319 
L 92.740196 155.347448 
L 92.988261 154.148576 
L 93.258859 152.949705 
L 93.551778 151.750834 
L 93.866565 150.551963 
L 94.202571 149.353092 
L 94.558994 148.154221 
L 94.934901 146.95535 
L 95.329251 145.756479 
L 95.740899 144.557608 
L 96.168593 143.358737 
L 96.610966 142.159865 
L 97.06652 140.960994 
L 97.533617 139.762123 
L 98.010465 138.563252 
L 98.495114 137.364381 
L 98.985463 136.16551 
L 99.479267 134.966639 
L 99.974166 133.767768 
L 100.467712 132.568897 
L 100.957408 131.370026 
L 101.440751 130.171154 
L 101.915284 128.972283 
L 102.378638 127.773412 
L 102.828578 126.574541 
L 103.263052 125.37567 
L 112.736948 125.37567 
L 112.736948 125.37567 
L 113.171422 126.574541 
L 113.621362 127.773412 
L 114.084716 128.972283 
L 114.559249 130.171154 
L 115.042592 131.370026 
L 115.532288 132.568897 
L 116.025834 133.767768 
L 116.520733 134.966639 
L 117.014537 136.16551 
L 117.504886 137.364381 
L 117.989535 138.563252 
L 118.466383 139.762123 
L 118.93348 140.960994 
L 119.389034 142.159865 
L 119.831407 143.358737 
L 120.259101 144.557608 
L 120.670749 145.756479 
L 121.065099 146.95535 
L 121.441006 148.154221 
L 121.797429 149.353092 
L 122.133435 150.551963 
L 122.448222 151.750834 
L 122.741141 152.949705 
L 123.011739 154.148576 
L 123.259804 155.347448 
L 123.485409 156.546319 
L 123.688958 157.74519 
L 123.871222 158.944061 
L 124.033352 160.142932 
L 124.176881 161.341803 
L 124.303685 162.540674 
L 124.415929 163.739545 
L 124.515968 164.938416 
L 124.606234 166.137288 
L 124.689085 167.336159 
L 124.766651 168.53503 
L 124.840663 169.733901 
L 124.9123 170.932772 
L 124.982039 172.131643 
L 125.049545 173.330514 
L 125.1136 174.529385 
L 125.17207 175.728256 
L 125.221944 176.927127 
L 125.25941 178.125999 
L 125.28 179.32487 
L 125.278772 180.523741 
L 125.25054 181.722612 
L 125.190126 182.921483 
L 125.092624 184.120354 
L 124.953665 185.319225 
L 124.769659 186.518096 
L 124.538008 187.716967 
L 124.257271 188.915838 
L 123.927272 190.11471 
L 123.549154 191.313581 
L 123.125358 192.512452 
L 122.659549 193.711323 
L 122.15648 194.910194 
L 121.621808 196.109065 
L 121.061876 197.307936 
L 120.483461 198.506807 
L 119.893523 199.705678 
L 119.298949 200.904549 
L 118.706318 202.103421 
L 118.121689 203.302292 
L 117.550432 204.501163 
L 116.997101 205.700034 
L 116.465348 206.898905 
L 115.9579 208.097776 
L 115.476567 209.296647 
L 115.0223 210.495518 
L 114.595287 211.694389 
L 114.195063 212.89326 
L 113.820653 214.092132 
L 113.470711 215.291003 
L 113.143661 216.489874 
L 112.837832 217.688745 
L 112.551571 218.887616 
L 112.283332 220.086487 
L 112.031747 221.285358 
L 111.79566 222.484229 
L 111.574144 223.6831 
L 111.366484 224.881971 
L 111.172147 226.080843 
L 110.990734 227.279714 
L 110.821922 228.478585 
L 110.665406 229.677456 
L 110.520838 230.876327 
L 110.387783 232.075198 
L 110.265673 233.274069 
L 110.153791 234.47294 
L 110.051263 235.671811 
L 109.957064 236.870683 
L 109.87005 238.069554 
L 109.788987 239.268425 
L 109.712606 240.467296 
L 109.63965 241.666167 
L 109.568927 242.865038 
L 109.499364 244.063909 
L 109.499364 244.063909 
z
" clip-path="url(#pc6e339c9cf)" style="fill: none; stroke: #000000; stroke-opacity: 0.3"/>
   </g>
   <g id="FillBetweenPolyCollection_10">
    <path d="M 111.065246 238.897301 
L 104.934754 238.897301 
L 104.775822 237.706841 
L 104.614728 236.51638 
L 104.451289 235.32592 
L 104.285254 234.135459 
L 104.116319 232.944999 
L 103.944133 231.754538 
L 103.768325 230.564078 
L 103.58851 229.373617 
L 103.404319 228.183157 
L 103.215412 226.992696 
L 103.021495 225.802236 
L 102.822345 224.611775 
L 102.617813 223.421315 
L 102.407847 222.230854 
L 102.192487 221.040393 
L 101.971877 219.849933 
L 101.74626 218.659472 
L 101.515969 217.469012 
L 101.281417 216.278551 
L 101.043085 215.088091 
L 100.801499 213.89763 
L 100.557211 212.70717 
L 100.310776 211.516709 
L 100.062727 210.326249 
L 99.813556 209.135788 
L 99.563689 207.945328 
L 99.313472 206.754867 
L 99.063156 205.564407 
L 98.812887 204.373946 
L 98.562705 203.183485 
L 98.312542 201.993025 
L 98.062238 200.802564 
L 97.811547 199.612104 
L 97.560162 198.421643 
L 97.307736 197.231183 
L 97.053911 196.040722 
L 96.798348 194.850262 
L 96.540757 193.659801 
L 96.280929 192.469341 
L 96.018764 191.27888 
L 95.754297 190.08842 
L 95.487721 188.897959 
L 95.219397 187.707499 
L 94.94987 186.517038 
L 94.679865 185.326577 
L 94.410283 184.136117 
L 94.142186 182.945656 
L 93.876777 181.755196 
L 93.61537 180.564735 
L 93.359356 179.374275 
L 93.110164 178.183814 
L 92.869222 176.993354 
L 92.637909 175.802893 
L 92.417518 174.612433 
L 92.209212 173.421972 
L 92.01399 172.231512 
L 91.832658 171.041051 
L 91.665803 169.850591 
L 91.513784 168.66013 
L 91.376724 167.469669 
L 91.254521 166.279209 
L 91.146856 165.088748 
L 91.053227 163.898288 
L 90.972978 162.707827 
L 90.905341 161.517367 
L 90.849486 160.326906 
L 90.80457 159.136446 
L 90.769794 157.945985 
L 90.74445 156.755525 
L 90.727976 155.565064 
L 90.72 154.374604 
L 90.720376 153.184143 
L 90.729216 151.993683 
L 90.746909 150.803222 
L 90.774127 149.612762 
L 90.811824 148.422301 
L 90.86122 147.23184 
L 90.923771 146.04138 
L 91.001136 144.850919 
L 91.095126 143.660459 
L 91.207652 142.469998 
L 91.34066 141.279538 
L 91.496068 140.089077 
L 91.675701 138.898617 
L 91.881219 137.708156 
L 92.11406 136.517696 
L 92.375375 135.327235 
L 92.665982 134.136775 
L 92.986316 132.946314 
L 93.336403 131.755854 
L 93.715831 130.565393 
L 94.123743 129.374932 
L 94.558837 128.184472 
L 95.01938 126.994011 
L 95.503231 125.803551 
L 96.007875 124.61309 
L 96.53047 123.42263 
L 97.067896 122.232169 
L 97.616817 121.041709 
L 118.383183 121.041709 
L 118.383183 121.041709 
L 118.932104 122.232169 
L 119.46953 123.42263 
L 119.992125 124.61309 
L 120.496769 125.803551 
L 120.98062 126.994011 
L 121.441163 128.184472 
L 121.876257 129.374932 
L 122.284169 130.565393 
L 122.663597 131.755854 
L 123.013684 132.946314 
L 123.334018 134.136775 
L 123.624625 135.327235 
L 123.88594 136.517696 
L 124.118781 137.708156 
L 124.324299 138.898617 
L 124.503932 140.089077 
L 124.65934 141.279538 
L 124.792348 142.469998 
L 124.904874 143.660459 
L 124.998864 144.850919 
L 125.076229 146.04138 
L 125.13878 147.23184 
L 125.188176 148.422301 
L 125.225873 149.612762 
L 125.253091 150.803222 
L 125.270784 151.993683 
L 125.279624 153.184143 
L 125.28 154.374604 
L 125.272024 155.565064 
L 125.25555 156.755525 
L 125.230206 157.945985 
L 125.19543 159.136446 
L 125.150514 160.326906 
L 125.094659 161.517367 
L 125.027022 162.707827 
L 124.946773 163.898288 
L 124.853144 165.088748 
L 124.745479 166.279209 
L 124.623276 167.469669 
L 124.486216 168.66013 
L 124.334197 169.850591 
L 124.167342 171.041051 
L 123.98601 172.231512 
L 123.790788 173.421972 
L 123.582482 174.612433 
L 123.362091 175.802893 
L 123.130778 176.993354 
L 122.889836 178.183814 
L 122.640644 179.374275 
L 122.38463 180.564735 
L 122.123223 181.755196 
L 121.857814 182.945656 
L 121.589717 184.136117 
L 121.320135 185.326577 
L 121.05013 186.517038 
L 120.780603 187.707499 
L 120.512279 188.897959 
L 120.245703 190.08842 
L 119.981236 191.27888 
L 119.719071 192.469341 
L 119.459243 193.659801 
L 119.201652 194.850262 
L 118.946089 196.040722 
L 118.692264 197.231183 
L 118.439838 198.421643 
L 118.188453 199.612104 
L 117.937762 200.802564 
L 117.687458 201.993025 
L 117.437295 203.183485 
L 117.187113 204.373946 
L 116.936844 205.564407 
L 116.686528 206.754867 
L 116.436311 207.945328 
L 116.186444 209.135788 
L 115.937273 210.326249 
L 115.689224 211.516709 
L 115.442789 212.70717 
L 115.198501 213.89763 
L 114.956915 215.088091 
L 114.718583 216.278551 
L 114.484031 217.469012 
L 114.25374 218.659472 
L 114.028123 219.849933 
L 113.807513 221.040393 
L 113.592153 222.230854 
L 113.382187 223.421315 
L 113.177655 224.611775 
L 112.978505 225.802236 
L 112.784588 226.992696 
L 112.595681 228.183157 
L 112.41149 229.373617 
L 112.231675 230.564078 
L 112.055867 231.754538 
L 111.883681 232.944999 
L 111.714746 234.135459 
L 111.548711 235.32592 
L 111.385272 236.51638 
L 111.224178 237.706841 
L 111.065246 238.897301 
L 111.065246 238.897301 
z
" clip-path="url(#pc6e339c9cf)" style="fill: none; stroke: #000000; stroke-opacity: 0.3"/>
   </g>
   <g id="matplotlib.axis_1">
    <g id="xtick_1">
     <g id="line2d_1">
      <defs>
       <path id="md0445e2cce" d="M 0 0 
L 0 3.5 
" style="stroke: #000000; stroke-width: 0.8"/>
      </defs>
      <g>
       <use xlink:href="#md0445e2cce" x="50.4" y="291.6" style="stroke: #000000; stroke-width: 0.8"/>
      </g>
     </g>
     <g id="text_1">
      <text style="font-size: 10px; font-family: 'DejaVu Sans', 'Bitstream Vera Sans', 'Computer Modern Sans Serif', 'Lucida Grande', 'Verdana', 'Geneva', 'Lucid', 'Arial', 'Helvetica', 'Avant Garde', sans-serif; text-anchor: middle" x="50.4" y="306.198438" transform="rotate(-0 50.4 306.198438)">0.3</text>
     </g>
    </g>
    <g id="xtick_2">
     <g id="line2d_2">
      <g>
       <use xlink:href="#md0445e2cce" x="108" y="291.6" style="stroke: #000000; stroke-width: 0.8"/>
      </g>
     </g>
     <g id="text_2">
      <text style="font-size: 10px; font-family: 'DejaVu Sans', 'Bitstream Vera Sans', 'Computer Modern Sans Serif', 'Lucida Grande', 'Verdana', 'Geneva', 'Lucid', 'Arial', 'Helvetica', 'Avant Garde', sans-serif; text-anchor: middle" x="108" y="306.198438" transform="rotate(-0 108 306.198438)">0.6</text>
     </g>
    </g>
   </g>
   <g id="matplotlib.axis_2">
    <g id="ytick_1">
     <g id="line2d_3">
      <defs>
       <path id="m49b91d6115" d="M 0 0 
L -3.5 0 
" style="stroke: #000000; stroke-width: 0.8"/>
      </defs>
      <g>
       <use xlink:href="#m49b91d6115" x="21.6" y="291.6" style="stroke: #000000; stroke-width: 0.8"/>
      </g>
     </g>
     <g id="text_3">
      <text style="font-size: 10px; font-family: 'DejaVu Sans', 'Bitstream Vera Sans', 'Computer Modern Sans Serif', 'Lucida Grande', 'Verdana', 'Geneva', 'Lucid', 'Arial', 'Helvetica', 'Avant Garde', sans-serif; text-anchor: end" x="14.6" y="295.399219" transform="rotate(-0 14.6 295.399219)">0.1</text>
     </g>
    </g>
    <g id="ytick_2">
     <g id="line2d_4">
      <g>
       <use xlink:href="#m49b91d6115" x="21.6" y="199.8" style="stroke: #000000; stroke-width: 0.8"/>
      </g>
     </g>
     <g id="text_4">
      <text style="font-size: 10px; font-family: 'DejaVu Sans', 'Bitstream Vera Sans', 'Computer Modern Sans Serif', 'Lucida Grande', 'Verdana', 'Geneva', 'Lucid', 'Arial', 'Helvetica', 'Avant Garde', sans-serif; text-anchor: end" x="14.6" y="203.599219" transform="rotate(-0 14.6 203.599219)">0.2</text>
     </g>
    </g>
    <g id="ytick_3">
     <g id="line2d_5">
      <g>
       <use xlink:href="#m49b91d6115" x="21.6" y="108" style="stroke: #000000; stroke-width: 0.8"/>
      </g>
     </g>
     <g id="text_5">
      <text style="font-size: 10px; font-family: 'DejaVu Sans', 'Bitstream Vera Sans', 'Computer Modern Sans Serif', 'Lucida Grande', 'Verdana', 'Geneva', 'Lucid', 'Arial', 'Helvetica', 'Avant Garde', sans-serif; text-anchor: end" x="14.6" y="111.799219" transform="rotate(-0 14.6 111.799219)">0.3</text>
     </g>
    </g>
    <g id="ytick_4">
     <g id="line2d_6">
      <g>
       <use xlink:href="#m49b91d6115" x="21.6" y="16.2" style="stroke: #000000; stroke-width: 0.8"/>
      </g>
     </g>
     <g id="text_6">
      <text style="font-size: 10px; font-family: 'DejaVu Sans', 'Bitstream Vera Sans', 'Computer Modern Sans Serif', 'Lucida Grande', 'Verdana', 'Geneva', 'Lucid', 'Arial', 'Helvetica', 'Avant Garde', sans-serif; text-anchor: end" x="14.6" y="19.999219" transform="rotate(-0 14.6 19.999219)">0.4</text>
     </g>
    </g>
    <g id="text_7">
     <!-- $E_{f}$ -->
     <g transform="translate(16.384437 160.27) rotate(-90)">
      <text>
       <tspan x="0" y="-0.796875" style="font-style: oblique; font-size: 14px; font-family: 'DejaVu Sans'">E</tspan>
       <tspan x="8.845703" y="1.5" style="font-style: oblique; font-size: 9.8px; font-family: 'DejaVu Sans'">f</tspan>
      </text>
     </g>
    </g>
   </g>
   <g id="line2d_7">
    <path d="M 50.4 269.568 
L 50.4 264.06 
" clip-path="url(#pc6e339c9cf)" style="fill: none; stroke: #000000; stroke-linecap: square"/>
   </g>
   <g id="line2d_8">
    <path d="M 50.4 269.568 
L 108 269.568 
" clip-path="url(#pc6e339c9cf)" style="fill: none; stroke: #000000; stroke-linecap: square"/>
   </g>
   <g id="line2d_9">
    <path d="M 108 269.568 
L 108 264.06 
" clip-path="url(#pc6e339c9cf)" style="fill: none; stroke: #000000; stroke-linecap: square"/>
   </g>
   <g id="patch_3">
    <path d="M 21.6 291.6 
L 21.6 16.2 
" style="fill: none; stroke: #000000; stroke-width: 0.8; stroke-linejoin: miter; stroke-linecap: square"/>
   </g>
   <g id="patch_4">
    <path d="M 136.8 291.6 
L 136.8 16.2 
" style="fill: none; stroke: #000000; stroke-width: 0.8; stroke-linejoin: miter; stroke-linecap: square"/>
   </g>
   <g id="patch_5">
    <path d="M 21.6 291.6 
L 136.8 291.6 
" style="fill: none; stroke: #000000; stroke-width: 0.8; stroke-linejoin: miter; stroke-linecap: square"/>
   </g>
   <g id="patch_6">
    <path d="M 21.6 16.2 
L 136.8 16.2 
" style="fill: none; stroke: #000000; stroke-width: 0.8; stroke-linejoin: miter; stroke-linecap: square"/>
   </g>
   <g id="text_8">
    <text style="font-weight: 700; font-size: 12px; font-family: 'DejaVu Sans', 'Bitstream Vera Sans', 'Computer Modern Sans Serif', 'Lucida Grande', 'Verdana', 'Geneva', 'Lucid', 'Arial', 'Helvetica', 'Avant Garde', sans-serif; text-anchor: middle" x="50.4" y="289.104375" transform="rotate(-0 50.4 289.104375)">#6</text>
   </g>
   <g id="text_9">
    <text style="font-weight: 700; font-size: 12px; font-family: 'DejaVu Sans', 'Bitstream Vera Sans', 'Computer Modern Sans Serif', 'Lucida Grande', 'Verdana', 'Geneva', 'Lucid', 'Arial', 'Helvetica', 'Avant Garde', sans-serif; text-anchor: middle" x="108" y="289.104375" transform="rotate(-0 108 289.104375)">#20</text>
   </g>
   <g id="text_10">
    <text style="font-size: 12px; font-family: 'DejaVu Sans', 'Bitstream Vera Sans', 'Computer Modern Sans Serif', 'Lucida Grande', 'Verdana', 'Geneva', 'Lucid', 'Arial', 'Helvetica', 'Avant Garde', sans-serif; text-anchor: middle" x="79.2" y="268.449375" transform="rotate(-0 79.2 268.449375)">**</text>
   </g>
   <g id="line2d_10">
    <path d="M 21.6 156.394406 
L 136.8 156.394406 
" clip-path="url(#pc6e339c9cf)" style="fill: none; stroke-dasharray: 3.7,1.6; stroke-dashoffset: 0; stroke: #808080; stroke-opacity: 0.7"/>
   </g>
   <g id="line2d_11">
    <path d="M 21.6 167.948742 
L 136.8 167.948742 
" clip-path="url(#pc6e339c9cf)" style="fill: none; stroke-dasharray: 3.7,1.6; stroke-dashoffset: 0; stroke: #808080; stroke-opacity: 0.7"/>
   </g>
   <g id="line2d_12">
    <path d="M 21.6 167.948742 
L 136.8 167.948742 
" clip-path="url(#pc6e339c9cf)" style="fill: none; stroke-dasharray: 3.7,1.6; stroke-dashoffset: 0; stroke: #808080; stroke-opacity: 0.7"/>
   </g>
   <g id="LineCollection_1">
    <path d="M 50.4 158.639609 
L 50.4 154.149203 
" clip-path="url(#pc6e339c9cf)" style="fill: none; stroke: #000000; stroke-width: 2"/>
   </g>
   <g id="line2d_13">
    <defs>
     <path id="m9e475e0565" d="M 5 0 
L -5 -0 
" style="stroke: #000000; stroke-width: 2"/>
    </defs>
    <g clip-path="url(#pc6e339c9cf)">
     <use xlink:href="#m9e475e0565" x="50.4" y="158.639609" style="stroke: #000000; stroke-width: 2"/>
    </g>
   </g>
   <g id="line2d_14">
    <g clip-path="url(#pc6e339c9cf)">
     <use xlink:href="#m9e475e0565" x="50.4" y="154.149203" style="stroke: #000000; stroke-width: 2"/>
    </g>
   </g>
   <g id="LineCollection_2">
    <path d="M 108 173.71184 
L 108 162.185643 
" clip-path="url(#pc6e339c9cf)" style="fill: none; stroke: #000000; stroke-width: 2"/>
   </g>
   <g id="line2d_15">
    <g clip-path="url(#pc6e339c9cf)">
     <use xlink:href="#m9e475e0565" x="108" y="173.71184" style="stroke: #000000; stroke-width: 2"/>
    </g>
   </g>
   <g id="line2d_16">
    <g clip-path="url(#pc6e339c9cf)">
     <use xlink:href="#m9e475e0565" x="108" y="162.185643" style="stroke: #000000; stroke-width: 2"/>
    </g>
   </g>
   <g id="line2d_17">
    <defs>
     <path id="m4a3c5728e3" d="M 0 4 
C 1.060812 4 2.078319 3.578535 2.828427 2.828427 
C 3.578535 2.078319 4 1.060812 4 0 
C 4 -1.060812 3.578535 -2.078319 2.828427 -2.828427 
C 2.078319 -3.578535 1.060812 -4 0 -4 
C -1.060812 -4 -2.078319 -3.578535 -2.828427 -2.828427 
C -3.578535 -2.078319 -4 -1.060812 -4 0 
C -4 1.060812 -3.578535 2.078319 -2.828427 2.828427 
C -2.078319 3.578535 -1.060812 4 0 4 
z
" style="stroke: #000000"/>
    </defs>
    <g clip-path="url(#pc6e339c9cf)">
     <use xlink:href="#m4a3c5728e3" x="50.4" y="156.394406" style="stroke: #000000"/>
    </g>
   </g>
   <g id="line2d_18">
    <g clip-path="url(#pc6e339c9cf)">
     <use xlink:href="#m4a3c5728e3" x="108" y="167.948742" style="stroke: #000000"/>
    </g>
   </g>
  </g>
 </g>
 <defs>
  <clipPath id="pc6e339c9cf">
   <rect x="21.6" y="16.2" width="115.2" height="275.4"/>
  </clipPath>
 </defs>
</svg>
