<?xml version="1.0" encoding="utf-8" standalone="no"?>
<!DOCTYPE svg PUBLIC "-//W3C//DTD SVG 1.1//EN"
  "http://www.w3.org/Graphics/SVG/1.1/DTD/svg11.dtd">
<svg xmlns:xlink="http://www.w3.org/1999/xlink" width="216pt" height="324pt" viewBox="0 0 216 324" xmlns="http://www.w3.org/2000/svg" version="1.1">
 <metadata>
  <rdf:RDF xmlns:dc="http://purl.org/dc/elements/1.1/" xmlns:cc="http://creativecommons.org/ns#" xmlns:rdf="http://www.w3.org/1999/02/22-rdf-syntax-ns#">
   <cc:Work>
    <dc:type rdf:resource="http://purl.org/dc/dcmitype/StillImage"/>
    <dc:date>2025-12-11T09:10:02.385552</dc:date>
    <dc:format>image/svg+xml</dc:format>
    <dc:creator>
     <cc:Agent>
      <dc:title>Matplotlib v3.10.0, https://matplotlib.org/</dc:title>
     </cc:Agent>
    </dc:creator>
   </cc:Work>
  </rdf:RDF>
 </metadata>
 <defs>
  <style type="text/css">*{stroke-linejoin: round; stroke-linecap: butt}</style>
 </defs>
 <g id="figure_1">
  <g id="patch_1">
   <path d="M 0 324 
L 216 324 
L 216 0 
L 0 0 
z
" style="fill: #ffffff"/>
  </g>
  <g id="axes_1">
   <g id="patch_2">
    <path d="M 32.4 291.6 
L 205.2 291.6 
L 205.2 16.2 
L 32.4 16.2 
z
" style="fill: #ffffff"/>
   </g>
   <g id="FillBetweenPolyCollection_1">
    <path d="M 62.412256 219.903969 
L 59.987744 219.903969 
L 59.985635 218.795576 
L 59.992013 217.687182 
L 60.005823 216.578788 
L 60.025617 215.470394 
L 60.049572 214.362 
L 60.075524 213.253607 
L 60.101013 212.145213 
L 60.123331 211.036819 
L 60.139578 209.928425 
L 60.146728 208.820032 
L 60.141686 207.711638 
L 60.121353 206.603244 
L 60.082684 205.49485 
L 60.022751 204.386456 
L 59.938789 203.278063 
L 59.828252 202.169669 
L 59.688851 201.061275 
L 59.518596 199.952881 
L 59.31582 198.844488 
L 59.079211 197.736094 
L 58.807824 196.6277 
L 58.501091 195.519306 
L 58.158826 194.410912 
L 57.781222 193.302519 
L 57.368841 192.194125 
L 56.922606 191.085731 
L 56.443785 189.977337 
L 55.933978 188.868943 
L 55.395107 187.76055 
L 54.82941 186.652156 
L 54.239434 185.543762 
L 53.628041 184.435368 
L 52.998419 183.326975 
L 52.354091 182.218581 
L 51.69893 181.110187 
L 51.037176 180.001793 
L 50.373438 178.893399 
L 49.712699 177.785006 
L 49.060292 176.676612 
L 48.421873 175.568218 
L 47.803357 174.459824 
L 47.210844 173.351431 
L 46.65051 172.243037 
L 46.128478 171.134643 
L 45.650669 170.026249 
L 45.222632 168.917855 
L 44.849374 167.809462 
L 44.535175 166.701068 
L 44.283415 165.592674 
L 44.096422 164.48428 
L 43.975334 163.375886 
L 43.92 162.267493 
L 43.928923 161.159099 
L 43.999247 160.050705 
L 44.126795 158.942311 
L 44.306167 157.833918 
L 44.53088 156.725524 
L 44.793565 155.61713 
L 45.086208 154.508736 
L 45.400419 153.400342 
L 45.727734 152.291949 
L 46.059924 151.183555 
L 46.389297 150.075161 
L 46.708996 148.966767 
L 47.013251 147.858374 
L 47.297597 146.74998 
L 47.559034 145.641586 
L 47.796117 144.533192 
L 48.008983 143.424798 
L 48.1993 142.316405 
L 48.370147 141.208011 
L 48.525828 140.099617 
L 48.671636 138.991223 
L 48.813559 137.882829 
L 48.957974 136.774436 
L 49.111321 135.666042 
L 49.279776 134.557648 
L 49.468957 133.449254 
L 49.683655 132.340861 
L 49.927623 131.232467 
L 50.203418 130.124073 
L 50.512306 129.015679 
L 50.854245 127.907285 
L 51.227917 126.798892 
L 51.630837 125.690498 
L 52.059498 124.582104 
L 52.50957 123.47371 
L 52.976117 122.365316 
L 53.453832 121.256923 
L 53.937269 120.148529 
L 54.421067 119.040135 
L 54.900144 117.931741 
L 55.369864 116.823348 
L 55.826161 115.714954 
L 56.265625 114.60656 
L 56.685545 113.498166 
L 57.083911 112.389772 
L 57.459386 111.281379 
L 57.811246 110.172985 
L 64.588754 110.172985 
L 64.588754 110.172985 
L 64.940614 111.281379 
L 65.316089 112.389772 
L 65.714455 113.498166 
L 66.134375 114.60656 
L 66.573839 115.714954 
L 67.030136 116.823348 
L 67.499856 117.931741 
L 67.978933 119.040135 
L 68.462731 120.148529 
L 68.946168 121.256923 
L 69.423883 122.365316 
L 69.89043 123.47371 
L 70.340502 124.582104 
L 70.769163 125.690498 
L 71.172083 126.798892 
L 71.545755 127.907285 
L 71.887694 129.015679 
L 72.196582 130.124073 
L 72.472377 131.232467 
L 72.716345 132.340861 
L 72.931043 133.449254 
L 73.120224 134.557648 
L 73.288679 135.666042 
L 73.442026 136.774436 
L 73.586441 137.882829 
L 73.728364 138.991223 
L 73.874172 140.099617 
L 74.029853 141.208011 
L 74.2007 142.316405 
L 74.391017 143.424798 
L 74.603883 144.533192 
L 74.840966 145.641586 
L 75.102403 146.74998 
L 75.386749 147.858374 
L 75.691004 148.966767 
L 76.010703 150.075161 
L 76.340076 151.183555 
L 76.672266 152.291949 
L 76.999581 153.400342 
L 77.313792 154.508736 
L 77.606435 155.61713 
L 77.86912 156.725524 
L 78.093833 157.833918 
L 78.273205 158.942311 
L 78.400753 160.050705 
L 78.471077 161.159099 
L 78.48 162.267493 
L 78.424666 163.375886 
L 78.303578 164.48428 
L 78.116585 165.592674 
L 77.864825 166.701068 
L 77.550626 167.809462 
L 77.177368 168.917855 
L 76.749331 170.026249 
L 76.271522 171.134643 
L 75.74949 172.243037 
L 75.189156 173.351431 
L 74.596643 174.459824 
L 73.978127 175.568218 
L 73.339708 176.676612 
L 72.687301 177.785006 
L 72.026562 178.893399 
L 71.362824 180.001793 
L 70.70107 181.110187 
L 70.045909 182.218581 
L 69.401581 183.326975 
L 68.771959 184.435368 
L 68.160566 185.543762 
L 67.57059 186.652156 
L 67.004893 187.76055 
L 66.466022 188.868943 
L 65.956215 189.977337 
L 65.477394 191.085731 
L 65.031159 192.194125 
L 64.618778 193.302519 
L 64.241174 194.410912 
L 63.898909 195.519306 
L 63.592176 196.6277 
L 63.320789 197.736094 
L 63.08418 198.844488 
L 62.881404 199.952881 
L 62.711149 201.061275 
L 62.571748 202.169669 
L 62.461211 203.278063 
L 62.377249 204.386456 
L 62.317316 205.49485 
L 62.278647 206.603244 
L 62.258314 207.711638 
L 62.253272 208.820032 
L 62.260422 209.928425 
L 62.276669 211.036819 
L 62.298987 212.145213 
L 62.324476 213.253607 
L 62.350428 214.362 
L 62.374383 215.470394 
L 62.394177 216.578788 
L 62.407987 217.687182 
L 62.414365 218.795576 
L 62.412256 219.903969 
L 62.412256 219.903969 
z
" clip-path="url(#pbbe450c640)" style="fill: none; stroke: #000000; stroke-opacity: 0.3"/>
   </g>
   <g id="FillBetweenPolyCollection_2">
    <path d="M 62.817416 202.779525 
L 59.582584 202.779525 
L 59.464983 201.904975 
L 59.352363 201.030426 
L 59.244723 200.155877 
L 59.141414 199.281327 
L 59.041153 198.406778 
L 58.94208 197.532228 
L 58.841859 196.657679 
L 58.737823 195.78313 
L 58.627148 194.90858 
L 58.507027 194.034031 
L 58.374863 193.159482 
L 58.228422 192.284932 
L 58.065968 191.410383 
L 57.886349 190.535833 
L 57.689028 189.661284 
L 57.474063 188.786735 
L 57.242037 187.912185 
L 56.993934 187.037636 
L 56.730999 186.163087 
L 56.45457 185.288537 
L 56.165925 184.413988 
L 55.866141 183.539438 
L 55.556003 182.664889 
L 55.235954 181.79034 
L 54.906108 180.91579 
L 54.566321 180.041241 
L 54.216311 179.166692 
L 53.85582 178.292142 
L 53.484794 177.417593 
L 53.103562 176.543043 
L 52.712989 175.668494 
L 52.31458 174.793945 
L 51.910524 173.919395 
L 51.503657 173.044846 
L 51.097348 172.170296 
L 50.695308 171.295747 
L 50.301345 170.421198 
L 49.919088 169.546648 
L 49.551698 168.672099 
L 49.201612 167.79755 
L 48.87034 166.923 
L 48.55834 166.048451 
L 48.264992 165.173901 
L 47.988664 164.299352 
L 47.726872 163.424803 
L 47.476522 162.550253 
L 47.234192 161.675704 
L 46.996446 160.801155 
L 46.760138 159.926605 
L 46.522692 159.052056 
L 46.282328 158.177506 
L 46.038236 157.302957 
L 45.79068 156.428408 
L 45.541052 155.553858 
L 45.291865 154.679309 
L 45.04671 153.80476 
L 44.810169 152.93021 
L 44.587707 152.055661 
L 44.385536 151.181111 
L 44.210443 150.306562 
L 44.069606 149.432013 
L 43.97037 148.557463 
L 43.92 147.682914 
L 43.925406 146.808364 
L 43.992848 145.933815 
L 44.127638 145.059266 
L 44.333844 144.184716 
L 44.61402 143.310167 
L 44.968981 142.435618 
L 45.397634 141.561068 
L 45.896887 140.686519 
L 46.461653 139.811969 
L 47.084935 138.93742 
L 47.758021 138.062871 
L 48.47076 137.188321 
L 49.211914 136.313772 
L 49.969577 135.439223 
L 50.731622 134.564673 
L 51.486169 133.690124 
L 52.22203 132.815574 
L 52.929122 131.941025 
L 53.598819 131.066476 
L 54.224225 130.191926 
L 54.800357 129.317377 
L 55.324233 128.442828 
L 55.794861 127.568278 
L 56.213139 126.693729 
L 56.581667 125.819179 
L 56.904494 124.94463 
L 57.186809 124.070081 
L 57.434594 123.195531 
L 57.654259 122.320982 
L 57.852286 121.446433 
L 58.034879 120.571883 
L 58.207671 119.697334 
L 58.375471 118.822784 
L 58.542083 117.948235 
L 58.710196 117.073686 
L 58.881361 116.199136 
L 63.518639 116.199136 
L 63.518639 116.199136 
L 63.689804 117.073686 
L 63.857917 117.948235 
L 64.024529 118.822784 
L 64.192329 119.697334 
L 64.365121 120.571883 
L 64.547714 121.446433 
L 64.745741 122.320982 
L 64.965406 123.195531 
L 65.213191 124.070081 
L 65.495506 124.94463 
L 65.818333 125.819179 
L 66.186861 126.693729 
L 66.605139 127.568278 
L 67.075767 128.442828 
L 67.599643 129.317377 
L 68.175775 130.191926 
L 68.801181 131.066476 
L 69.470878 131.941025 
L 70.17797 132.815574 
L 70.913831 133.690124 
L 71.668378 134.564673 
L 72.430423 135.439223 
L 73.188086 136.313772 
L 73.92924 137.188321 
L 74.641979 138.062871 
L 75.315065 138.93742 
L 75.938347 139.811969 
L 76.503113 140.686519 
L 77.002366 141.561068 
L 77.431019 142.435618 
L 77.78598 143.310167 
L 78.066156 144.184716 
L 78.272362 145.059266 
L 78.407152 145.933815 
L 78.474594 146.808364 
L 78.48 147.682914 
L 78.42963 148.557463 
L 78.330394 149.432013 
L 78.189557 150.306562 
L 78.014464 151.181111 
L 77.812293 152.055661 
L 77.589831 152.93021 
L 77.35329 153.80476 
L 77.108135 154.679309 
L 76.858948 155.553858 
L 76.60932 156.428408 
L 76.361764 157.302957 
L 76.117672 158.177506 
L 75.877308 159.052056 
L 75.639862 159.926605 
L 75.403554 160.801155 
L 75.165808 161.675704 
L 74.923478 162.550253 
L 74.673128 163.424803 
L 74.411336 164.299352 
L 74.135008 165.173901 
L 73.84166 166.048451 
L 73.52966 166.923 
L 73.198388 167.79755 
L 72.848302 168.672099 
L 72.480912 169.546648 
L 72.098655 170.421198 
L 71.704692 171.295747 
L 71.302652 172.170296 
L 70.896343 173.044846 
L 70.489476 173.919395 
L 70.08542 174.793945 
L 69.687011 175.668494 
L 69.296438 176.543043 
L 68.915206 177.417593 
L 68.54418 178.292142 
L 68.183689 179.166692 
L 67.833679 180.041241 
L 67.493892 180.91579 
L 67.164046 181.79034 
L 66.843997 182.664889 
L 66.533859 183.539438 
L 66.234075 184.413988 
L 65.94543 185.288537 
L 65.669001 186.163087 
L 65.406066 187.037636 
L 65.157963 187.912185 
L 64.925937 188.786735 
L 64.710972 189.661284 
L 64.513651 190.535833 
L 64.334032 191.410383 
L 64.171578 192.284932 
L 64.025137 193.159482 
L 63.892973 194.034031 
L 63.772852 194.90858 
L 63.662177 195.78313 
L 63.558141 196.657679 
L 63.45792 197.532228 
L 63.358847 198.406778 
L 63.258586 199.281327 
L 63.155277 200.155877 
L 63.047637 201.030426 
L 62.935017 201.904975 
L 62.817416 202.779525 
L 62.817416 202.779525 
z
" clip-path="url(#pbbe450c640)" style="fill: none; stroke: #000000; stroke-opacity: 0.3"/>
   </g>
   <g id="FillBetweenPolyCollection_3">
    <path d="M 61.561094 253.237157 
L 60.838906 253.237157 
L 60.835983 251.765379 
L 60.84025 250.293601 
L 60.84948 248.821823 
L 60.860845 247.350045 
L 60.871396 245.878267 
L 60.878573 244.406489 
L 60.880664 242.934711 
L 60.877096 241.462933 
L 60.868519 239.991155 
L 60.856649 238.519377 
L 60.843906 237.047599 
L 60.832914 235.57582 
L 60.825962 234.104042 
L 60.824531 232.632264 
L 60.828986 231.160486 
L 60.838483 229.688708 
L 60.851115 228.21693 
L 60.864253 226.745152 
L 60.875016 225.273374 
L 60.880754 223.801596 
L 60.879438 222.329818 
L 60.869875 220.85804 
L 60.851687 219.386261 
L 60.825046 217.914483 
L 60.790233 216.442705 
L 60.747093 214.970927 
L 60.694527 213.499149 
L 60.630138 212.027371 
L 60.550118 210.555593 
L 60.449429 209.083815 
L 60.322236 207.612037 
L 60.162504 206.140259 
L 59.964621 204.668481 
L 59.723913 203.196702 
L 59.436946 201.724924 
L 59.101605 200.253146 
L 58.716981 198.781368 
L 58.283207 197.30959 
L 57.801351 195.837812 
L 57.273475 194.366034 
L 56.702878 192.894256 
L 56.094444 191.422478 
L 55.454959 189.9507 
L 54.793234 188.478922 
L 54.119897 187.007144 
L 53.446831 185.535365 
L 52.786285 184.063587 
L 52.149805 182.591809 
L 51.547138 181.120031 
L 50.98526 179.648253 
L 50.467656 178.176475 
L 49.993902 176.704697 
L 49.559611 175.232919 
L 49.156764 173.761141 
L 48.774467 172.289363 
L 48.400137 170.817585 
L 48.021091 169.345806 
L 47.626405 167.874028 
L 47.208829 166.40225 
L 46.766463 164.930472 
L 46.303847 163.458694 
L 45.832214 161.986916 
L 45.368715 160.515138 
L 44.93468 159.04336 
L 44.55312 157.571582 
L 44.24589 156.099804 
L 44.031006 154.628026 
L 43.920615 153.156248 
L 43.92 151.684469 
L 44.027778 150.212691 
L 44.237214 148.740913 
L 44.53832 147.269135 
L 44.920252 145.797357 
L 45.37345 144.325579 
L 45.891068 142.853801 
L 46.469412 141.382023 
L 47.107357 139.910245 
L 47.804957 138.438467 
L 48.561648 136.966689 
L 49.3745 135.49491 
L 50.236945 134.023132 
L 51.138247 132.551354 
L 52.063804 131.079576 
L 52.996169 129.607798 
L 53.916541 128.13602 
L 54.806406 126.664242 
L 55.649058 125.192464 
L 56.430761 123.720686 
L 57.141468 122.248908 
L 57.775095 120.77713 
L 58.329409 119.305351 
L 58.805646 117.833573 
L 59.207957 116.361795 
L 59.54276 114.890017 
L 59.818045 113.418239 
L 60.042675 111.946461 
L 60.225705 110.474683 
L 60.375761 109.002905 
L 60.500523 107.531127 
L 61.899477 107.531127 
L 61.899477 107.531127 
L 62.024239 109.002905 
L 62.174295 110.474683 
L 62.357325 111.946461 
L 62.581955 113.418239 
L 62.85724 114.890017 
L 63.192043 116.361795 
L 63.594354 117.833573 
L 64.070591 119.305351 
L 64.624905 120.77713 
L 65.258532 122.248908 
L 65.969239 123.720686 
L 66.750942 125.192464 
L 67.593594 126.664242 
L 68.483459 128.13602 
L 69.403831 129.607798 
L 70.336196 131.079576 
L 71.261753 132.551354 
L 72.163055 134.023132 
L 73.0255 135.49491 
L 73.838352 136.966689 
L 74.595043 138.438467 
L 75.292643 139.910245 
L 75.930588 141.382023 
L 76.508932 142.853801 
L 77.02655 144.325579 
L 77.479748 145.797357 
L 77.86168 147.269135 
L 78.162786 148.740913 
L 78.372222 150.212691 
L 78.48 151.684469 
L 78.479385 153.156248 
L 78.368994 154.628026 
L 78.15411 156.099804 
L 77.84688 157.571582 
L 77.46532 159.04336 
L 77.031285 160.515138 
L 76.567786 161.986916 
L 76.096153 163.458694 
L 75.633537 164.930472 
L 75.191171 166.40225 
L 74.773595 167.874028 
L 74.378909 169.345806 
L 73.999863 170.817585 
L 73.625533 172.289363 
L 73.243236 173.761141 
L 72.840389 175.232919 
L 72.406098 176.704697 
L 71.932344 178.176475 
L 71.41474 179.648253 
L 70.852862 181.120031 
L 70.250195 182.591809 
L 69.613715 184.063587 
L 68.953169 185.535365 
L 68.280103 187.007144 
L 67.606766 188.478922 
L 66.945041 189.9507 
L 66.305556 191.422478 
L 65.697122 192.894256 
L 65.126525 194.366034 
L 64.598649 195.837812 
L 64.116793 197.30959 
L 63.683019 198.781368 
L 63.298395 200.253146 
L 62.963054 201.724924 
L 62.676087 203.196702 
L 62.435379 204.668481 
L 62.237496 206.140259 
L 62.077764 207.612037 
L 61.950571 209.083815 
L 61.849882 210.555593 
L 61.769862 212.027371 
L 61.705473 213.499149 
L 61.652907 214.970927 
L 61.609767 216.442705 
L 61.574954 217.914483 
L 61.548313 219.386261 
L 61.530125 220.85804 
L 61.520562 222.329818 
L 61.519246 223.801596 
L 61.524984 225.273374 
L 61.535747 226.745152 
L 61.548885 228.21693 
L 61.561517 229.688708 
L 61.571014 231.160486 
L 61.575469 232.632264 
L 61.574038 234.104042 
L 61.567086 235.57582 
L 61.556094 237.047599 
L 61.543351 238.519377 
L 61.531481 239.991155 
L 61.522904 241.462933 
L 61.519336 242.934711 
L 61.521427 244.406489 
L 61.528604 245.878267 
L 61.539155 247.350045 
L 61.55052 248.821823 
L 61.55975 250.293601 
L 61.564017 251.765379 
L 61.561094 253.237157 
L 61.561094 253.237157 
z
" clip-path="url(#pbbe450c640)" style="fill: none; stroke: #000000; stroke-opacity: 0.3"/>
   </g>
   <g id="FillBetweenPolyCollection_4">
    <path d="M 62.458248 219.903733 
L 59.941752 219.903733 
L 59.813836 218.176036 
L 59.678218 216.448339 
L 59.526592 214.720643 
L 59.348998 212.992946 
L 59.135127 211.265249 
L 58.875825 209.537552 
L 58.564492 207.809856 
L 58.198074 206.082159 
L 57.777395 204.354462 
L 57.306747 202.626765 
L 56.792799 200.899069 
L 56.243095 199.171372 
L 55.664522 197.443675 
L 55.062151 195.715978 
L 54.438769 193.988282 
L 53.795246 192.260585 
L 53.131618 190.532888 
L 52.448571 188.805191 
L 51.748857 187.077495 
L 51.038192 185.349798 
L 50.325309 183.622101 
L 49.621109 181.894404 
L 48.937124 180.166708 
L 48.283724 178.439011 
L 47.668619 176.711314 
L 47.096087 174.983617 
L 46.567176 173.255921 
L 46.080808 171.528224 
L 45.635426 169.800527 
L 45.230681 168.07283 
L 44.86864 166.345134 
L 44.554163 164.617437 
L 44.294362 162.88974 
L 44.097356 161.162043 
L 43.970703 159.434347 
L 43.92 157.70665 
L 43.948036 155.978953 
L 44.054694 154.251256 
L 44.237589 152.52356 
L 44.493187 150.795863 
L 44.818074 149.068166 
L 45.20999 147.340469 
L 45.668357 145.612773 
L 46.19414 143.885076 
L 46.789082 142.157379 
L 47.454454 140.429682 
L 48.189592 138.701986 
L 48.990516 136.974289 
L 49.848922 135.246592 
L 50.751736 133.518895 
L 51.681361 131.791198 
L 52.616603 130.063502 
L 53.534183 128.335805 
L 54.410628 126.608108 
L 55.224331 124.880411 
L 55.957508 123.152715 
L 56.597825 121.425018 
L 57.139488 119.697321 
L 57.583659 117.969624 
L 57.938121 116.241928 
L 58.216212 114.514231 
L 58.435144 112.786534 
L 58.613916 111.058837 
L 58.771092 109.331141 
L 58.922767 107.603444 
L 59.080996 105.875747 
L 59.252899 104.14805 
L 59.440541 102.420354 
L 59.641526 100.692657 
L 59.850144 98.96496 
L 60.058819 97.237263 
L 60.259579 95.509567 
L 60.445311 93.78187 
L 60.610633 92.054173 
L 60.75233 90.326476 
L 60.869366 88.59878 
L 60.962578 86.871083 
L 61.034175 85.143386 
L 61.087174 83.415689 
L 61.124871 81.687993 
L 61.150419 79.960296 
L 61.166536 78.232599 
L 61.17534 76.504902 
L 61.1783 74.777206 
L 61.176266 73.049509 
L 61.169559 71.321812 
L 61.158118 69.594115 
L 61.141664 67.866419 
L 61.119901 66.138722 
L 61.092723 64.411025 
L 61.060406 62.683328 
L 61.023775 60.955632 
L 60.984286 59.227935 
L 60.944014 57.500238 
L 60.905523 55.772541 
L 60.871624 54.044845 
L 60.845045 52.317148 
L 60.828076 50.589451 
L 60.822241 48.861754 
L 61.577759 48.861754 
L 61.577759 48.861754 
L 61.571924 50.589451 
L 61.554955 52.317148 
L 61.528376 54.044845 
L 61.494477 55.772541 
L 61.455986 57.500238 
L 61.415714 59.227935 
L 61.376225 60.955632 
L 61.339594 62.683328 
L 61.307277 64.411025 
L 61.280099 66.138722 
L 61.258336 67.866419 
L 61.241882 69.594115 
L 61.230441 71.321812 
L 61.223734 73.049509 
L 61.2217 74.777206 
L 61.22466 76.504902 
L 61.233464 78.232599 
L 61.249581 79.960296 
L 61.275129 81.687993 
L 61.312826 83.415689 
L 61.365825 85.143386 
L 61.437422 86.871083 
L 61.530634 88.59878 
L 61.64767 90.326476 
L 61.789367 92.054173 
L 61.954689 93.78187 
L 62.140421 95.509567 
L 62.341181 97.237263 
L 62.549856 98.96496 
L 62.758474 100.692657 
L 62.959459 102.420354 
L 63.147101 104.14805 
L 63.319004 105.875747 
L 63.477233 107.603444 
L 63.628908 109.331141 
L 63.786084 111.058837 
L 63.964856 112.786534 
L 64.183788 114.514231 
L 64.461879 116.241928 
L 64.816341 117.969624 
L 65.260512 119.697321 
L 65.802175 121.425018 
L 66.442492 123.152715 
L 67.175669 124.880411 
L 67.989372 126.608108 
L 68.865817 128.335805 
L 69.783397 130.063502 
L 70.718639 131.791198 
L 71.648264 133.518895 
L 72.551078 135.246592 
L 73.409484 136.974289 
L 74.210408 138.701986 
L 74.945546 140.429682 
L 75.610918 142.157379 
L 76.20586 143.885076 
L 76.731643 145.612773 
L 77.19001 147.340469 
L 77.581926 149.068166 
L 77.906813 150.795863 
L 78.162411 152.52356 
L 78.345306 154.251256 
L 78.451964 155.978953 
L 78.48 157.70665 
L 78.429297 159.434347 
L 78.302644 161.162043 
L 78.105638 162.88974 
L 77.845837 164.617437 
L 77.53136 166.345134 
L 77.169319 168.07283 
L 76.764574 169.800527 
L 76.319192 171.528224 
L 75.832824 173.255921 
L 75.303913 174.983617 
L 74.731381 176.711314 
L 74.116276 178.439011 
L 73.462876 180.166708 
L 72.778891 181.894404 
L 72.074691 183.622101 
L 71.361808 185.349798 
L 70.651143 187.077495 
L 69.951429 188.805191 
L 69.268382 190.532888 
L 68.604754 192.260585 
L 67.961231 193.988282 
L 67.337849 195.715978 
L 66.735478 197.443675 
L 66.156905 199.171372 
L 65.607201 200.899069 
L 65.093253 202.626765 
L 64.622605 204.354462 
L 64.201926 206.082159 
L 63.835508 207.809856 
L 63.524175 209.537552 
L 63.264873 211.265249 
L 63.051002 212.992946 
L 62.873408 214.720643 
L 62.721782 216.448339 
L 62.586164 218.176036 
L 62.458248 219.903733 
L 62.458248 219.903733 
z
" clip-path="url(#pbbe450c640)" style="fill: none; stroke: #000000; stroke-opacity: 0.3"/>
   </g>
   <g id="FillBetweenPolyCollection_5">
    <path d="M 62.553462 208.257211 
L 59.846538 208.257211 
L 59.700728 207.328969 
L 59.542822 206.400727 
L 59.372077 205.472485 
L 59.187877 204.544243 
L 58.989783 203.616001 
L 58.777581 202.687759 
L 58.551313 201.759517 
L 58.311291 200.831276 
L 58.058092 199.903034 
L 57.792531 198.974792 
L 57.515612 198.04655 
L 57.228469 197.118308 
L 56.93229 196.190066 
L 56.628248 195.261824 
L 56.317423 194.333582 
L 56.00075 193.40534 
L 55.678976 192.477098 
L 55.352647 191.548856 
L 55.02211 190.620614 
L 54.687543 189.692372 
L 54.349003 188.76413 
L 54.006477 187.835888 
L 53.659946 186.907646 
L 53.309438 185.979404 
L 52.955063 185.051162 
L 52.597043 184.12292 
L 52.235712 183.194678 
L 51.871499 182.266436 
L 51.504897 181.338195 
L 51.136429 180.409953 
L 50.766606 179.481711 
L 50.395906 178.553469 
L 50.02476 177.625227 
L 49.65357 176.696985 
L 49.282749 175.768743 
L 48.912779 174.840501 
L 48.544294 173.912259 
L 48.178159 172.984017 
L 47.81555 172.055775 
L 47.458005 171.127533 
L 47.107451 170.199291 
L 46.766182 169.271049 
L 46.436792 168.342807 
L 46.122064 167.414565 
L 45.824812 166.486323 
L 45.547705 165.558081 
L 45.293072 164.629839 
L 45.062722 163.701597 
L 44.857785 162.773355 
L 44.678614 161.845114 
L 44.524737 160.916872 
L 44.39489 159.98863 
L 44.287115 159.060388 
L 44.198935 158.132146 
L 44.127574 157.203904 
L 44.070216 156.275662 
L 44.024278 155.34742 
L 43.987663 154.419178 
L 43.958979 153.490936 
L 43.937699 152.562694 
L 43.924246 151.634452 
L 43.92 150.70621 
L 43.927218 149.777968 
L 43.948886 148.849726 
L 43.988506 147.921484 
L 44.049849 146.993242 
L 44.13668 146.065 
L 44.252497 145.136758 
L 44.400282 144.208516 
L 44.582299 143.280274 
L 44.799947 142.352033 
L 45.053661 141.423791 
L 45.342886 140.495549 
L 45.666097 139.567307 
L 46.020879 138.639065 
L 46.404041 137.710823 
L 46.811765 136.782581 
L 47.239778 135.854339 
L 47.683534 134.926097 
L 48.138401 133.997855 
L 48.599842 133.069613 
L 49.063589 132.141371 
L 49.525804 131.213129 
L 49.983206 130.284887 
L 50.433187 129.356645 
L 50.873876 128.428403 
L 51.304185 127.500161 
L 51.723796 126.571919 
L 52.13311 125.643677 
L 52.533164 124.715435 
L 52.925488 123.787193 
L 53.311951 122.858952 
L 53.694571 121.93071 
L 54.075321 121.002468 
L 54.455941 120.074226 
L 54.837763 119.145984 
L 55.221573 118.217742 
L 55.607512 117.2895 
L 55.995027 116.361258 
L 66.404973 116.361258 
L 66.404973 116.361258 
L 66.792488 117.2895 
L 67.178427 118.217742 
L 67.562237 119.145984 
L 67.944059 120.074226 
L 68.324679 121.002468 
L 68.705429 121.93071 
L 69.088049 122.858952 
L 69.474512 123.787193 
L 69.866836 124.715435 
L 70.26689 125.643677 
L 70.676204 126.571919 
L 71.095815 127.500161 
L 71.526124 128.428403 
L 71.966813 129.356645 
L 72.416794 130.284887 
L 72.874196 131.213129 
L 73.336411 132.141371 
L 73.800158 133.069613 
L 74.261599 133.997855 
L 74.716466 134.926097 
L 75.160222 135.854339 
L 75.588235 136.782581 
L 75.995959 137.710823 
L 76.379121 138.639065 
L 76.733903 139.567307 
L 77.057114 140.495549 
L 77.346339 141.423791 
L 77.600053 142.352033 
L 77.817701 143.280274 
L 77.999718 144.208516 
L 78.147503 145.136758 
L 78.26332 146.065 
L 78.350151 146.993242 
L 78.411494 147.921484 
L 78.451114 148.849726 
L 78.472782 149.777968 
L 78.48 150.70621 
L 78.475754 151.634452 
L 78.462301 152.562694 
L 78.441021 153.490936 
L 78.412337 154.419178 
L 78.375722 155.34742 
L 78.329784 156.275662 
L 78.272426 157.203904 
L 78.201065 158.132146 
L 78.112885 159.060388 
L 78.00511 159.98863 
L 77.875263 160.916872 
L 77.721386 161.845114 
L 77.542215 162.773355 
L 77.337278 163.701597 
L 77.106928 164.629839 
L 76.852295 165.558081 
L 76.575188 166.486323 
L 76.277936 167.414565 
L 75.963208 168.342807 
L 75.633818 169.271049 
L 75.292549 170.199291 
L 74.941995 171.127533 
L 74.58445 172.055775 
L 74.221841 172.984017 
L 73.855706 173.912259 
L 73.487221 174.840501 
L 73.117251 175.768743 
L 72.74643 176.696985 
L 72.37524 177.625227 
L 72.004094 178.553469 
L 71.633394 179.481711 
L 71.263571 180.409953 
L 70.895103 181.338195 
L 70.528501 182.266436 
L 70.164288 183.194678 
L 69.802957 184.12292 
L 69.444937 185.051162 
L 69.090562 185.979404 
L 68.740054 186.907646 
L 68.393523 187.835888 
L 68.050997 188.76413 
L 67.712457 189.692372 
L 67.37789 190.620614 
L 67.047353 191.548856 
L 66.721024 192.477098 
L 66.39925 193.40534 
L 66.082577 194.333582 
L 65.771752 195.261824 
L 65.46771 196.190066 
L 65.171531 197.118308 
L 64.884388 198.04655 
L 64.607469 198.974792 
L 64.341908 199.903034 
L 64.088709 200.831276 
L 63.848687 201.759517 
L 63.622419 202.687759 
L 63.410217 203.616001 
L 63.212123 204.544243 
L 63.027923 205.472485 
L 62.857178 206.400727 
L 62.699272 207.328969 
L 62.553462 208.257211 
L 62.553462 208.257211 
z
" clip-path="url(#pbbe450c640)" style="fill: none; stroke: #000000; stroke-opacity: 0.3"/>
   </g>
   <g id="FillBetweenPolyCollection_6">
    <path d="M 62.083968 307.76523 
L 60.316032 307.76523 
L 60.322179 305.860725 
L 60.340363 303.956221 
L 60.369838 302.051717 
L 60.409411 300.147213 
L 60.457533 298.242708 
L 60.512388 296.338204 
L 60.572016 294.4337 
L 60.634421 292.529195 
L 60.697684 290.624691 
L 60.760053 288.720187 
L 60.820018 286.815683 
L 60.876358 284.911178 
L 60.928165 283.006674 
L 60.974842 281.10217 
L 61.016088 279.197665 
L 61.051858 277.293161 
L 61.082322 275.388657 
L 61.107812 273.484152 
L 61.128773 271.579648 
L 61.145716 269.675144 
L 61.159176 267.77064 
L 61.169682 265.866135 
L 61.177724 263.961631 
L 61.183744 262.057127 
L 61.188114 260.152622 
L 61.191135 258.248118 
L 61.193025 256.343614 
L 61.193924 254.43911 
L 61.193881 252.534605 
L 61.192851 250.630101 
L 61.190684 248.725597 
L 61.187111 246.821092 
L 61.181723 244.916588 
L 61.173948 243.012084 
L 61.163024 241.10758 
L 61.147963 239.203075 
L 61.127518 237.298571 
L 61.100151 235.394067 
L 61.063999 233.489562 
L 61.016854 231.585058 
L 60.956148 229.680554 
L 60.878961 227.776049 
L 60.78204 225.871545 
L 60.661854 223.967041 
L 60.514669 222.062537 
L 60.336655 220.158032 
L 60.124024 218.253528 
L 59.873193 216.349024 
L 59.580967 214.444519 
L 59.244732 212.540015 
L 58.862652 210.635511 
L 58.433845 208.731007 
L 57.958535 206.826502 
L 57.438153 204.921998 
L 56.875388 203.017494 
L 56.274162 201.112989 
L 55.639539 199.208485 
L 54.977558 197.303981 
L 54.295004 195.399476 
L 53.599129 193.494972 
L 52.897343 191.590468 
L 52.196899 189.685964 
L 51.504596 187.781459 
L 50.826524 185.876955 
L 50.167878 183.972451 
L 49.532847 182.067946 
L 48.924591 180.163442 
L 48.345303 178.258938 
L 47.796357 176.354434 
L 47.278507 174.449929 
L 46.792138 172.545425 
L 46.337533 170.640921 
L 45.915134 168.736416 
L 45.525778 166.831912 
L 45.170884 164.927408 
L 44.852582 163.022903 
L 44.573774 161.118399 
L 44.338118 159.213895 
L 44.149941 157.309391 
L 44.014087 155.404886 
L 43.935707 153.500382 
L 43.92 151.595878 
L 43.971929 149.691373 
L 44.095912 147.786869 
L 44.295526 145.882365 
L 44.573215 143.977861 
L 44.930051 142.073356 
L 45.36553 140.168852 
L 45.877444 138.264348 
L 46.461826 136.359843 
L 47.112966 134.455339 
L 47.823524 132.550835 
L 48.584708 130.646331 
L 49.386527 128.741826 
L 50.218097 126.837322 
L 51.067987 124.932818 
L 51.924587 123.028313 
L 52.776475 121.123809 
L 53.61277 119.219305 
L 68.78723 119.219305 
L 68.78723 119.219305 
L 69.623525 121.123809 
L 70.475413 123.028313 
L 71.332013 124.932818 
L 72.181903 126.837322 
L 73.013473 128.741826 
L 73.815292 130.646331 
L 74.576476 132.550835 
L 75.287034 134.455339 
L 75.938174 136.359843 
L 76.522556 138.264348 
L 77.03447 140.168852 
L 77.469949 142.073356 
L 77.826785 143.977861 
L 78.104474 145.882365 
L 78.304088 147.786869 
L 78.428071 149.691373 
L 78.48 151.595878 
L 78.464293 153.500382 
L 78.385913 155.404886 
L 78.250059 157.309391 
L 78.061882 159.213895 
L 77.826226 161.118399 
L 77.547418 163.022903 
L 77.229116 164.927408 
L 76.874222 166.831912 
L 76.484866 168.736416 
L 76.062467 170.640921 
L 75.607862 172.545425 
L 75.121493 174.449929 
L 74.603643 176.354434 
L 74.054697 178.258938 
L 73.475409 180.163442 
L 72.867153 182.067946 
L 72.232122 183.972451 
L 71.573476 185.876955 
L 70.895404 187.781459 
L 70.203101 189.685964 
L 69.502657 191.590468 
L 68.800871 193.494972 
L 68.104996 195.399476 
L 67.422442 197.303981 
L 66.760461 199.208485 
L 66.125838 201.112989 
L 65.524612 203.017494 
L 64.961847 204.921998 
L 64.441465 206.826502 
L 63.966155 208.731007 
L 63.537348 210.635511 
L 63.155268 212.540015 
L 62.819033 214.444519 
L 62.526807 216.349024 
L 62.275976 218.253528 
L 62.063345 220.158032 
L 61.885331 222.062537 
L 61.738146 223.967041 
L 61.61796 225.871545 
L 61.521039 227.776049 
L 61.443852 229.680554 
L 61.383146 231.585058 
L 61.336001 233.489562 
L 61.299849 235.394067 
L 61.272482 237.298571 
L 61.252037 239.203075 
L 61.236976 241.10758 
L 61.226052 243.012084 
L 61.218277 244.916588 
L 61.212889 246.821092 
L 61.209316 248.725597 
L 61.207149 250.630101 
L 61.206119 252.534605 
L 61.206076 254.43911 
L 61.206975 256.343614 
L 61.208865 258.248118 
L 61.211886 260.152622 
L 61.216256 262.057127 
L 61.222276 263.961631 
L 61.230318 265.866135 
L 61.240824 267.77064 
L 61.254284 269.675144 
L 61.271227 271.579648 
L 61.292188 273.484152 
L 61.317678 275.388657 
L 61.348142 277.293161 
L 61.383912 279.197665 
L 61.425158 281.10217 
L 61.471835 283.006674 
L 61.523642 284.911178 
L 61.579982 286.815683 
L 61.639947 288.720187 
L 61.702316 290.624691 
L 61.765579 292.529195 
L 61.827984 294.4337 
L 61.887612 296.338204 
L 61.942467 298.242708 
L 61.990589 300.147213 
L 62.030162 302.051717 
L 62.059637 303.956221 
L 62.077821 305.860725 
L 62.083968 307.76523 
L 62.083968 307.76523 
z
" clip-path="url(#pbbe450c640)" style="fill: none; stroke: #000000; stroke-opacity: 0.3"/>
   </g>
   <g id="FillBetweenPolyCollection_7">
    <path d="M 65.995861 192.121581 
L 56.404139 192.121581 
L 55.597423 190.434248 
L 54.721957 188.746915 
L 53.786435 187.059582 
L 52.802859 185.372249 
L 51.786405 183.684916 
L 50.755058 181.997583 
L 49.729 180.31025 
L 48.729795 178.622917 
L 47.779402 176.935584 
L 46.899106 175.248251 
L 46.108439 173.560918 
L 45.424209 171.873585 
L 44.859706 170.186252 
L 44.424168 168.498919 
L 44.12254 166.811586 
L 43.95554 165.124253 
L 43.92 163.43692 
L 44.009438 161.749587 
L 44.214763 160.062254 
L 44.525056 158.374921 
L 44.92832 156.687588 
L 45.412146 155.000255 
L 45.964252 153.312922 
L 46.57286 151.625589 
L 47.226921 149.938256 
L 47.916214 148.250923 
L 48.631343 146.56359 
L 49.36368 144.876257 
L 50.105279 143.188924 
L 50.848808 141.501591 
L 51.587499 139.814258 
L 52.315134 138.126925 
L 53.026065 136.439592 
L 53.715243 134.752259 
L 54.378262 133.064926 
L 55.011382 131.377593 
L 55.611541 129.69026 
L 56.176328 128.002927 
L 56.703936 126.315594 
L 57.193097 124.628261 
L 57.643003 122.940928 
L 58.05323 121.253595 
L 58.423687 119.566262 
L 58.754574 117.878929 
L 59.046384 116.191596 
L 59.299914 114.504263 
L 59.516308 112.81693 
L 59.6971 111.129597 
L 59.84425 109.442264 
L 59.960166 107.754931 
L 60.047699 106.067598 
L 60.110099 104.380265 
L 60.150946 102.692932 
L 60.174049 101.005599 
L 60.183322 99.318266 
L 60.182651 97.630933 
L 60.17577 95.9436 
L 60.166135 94.256267 
L 60.156834 92.568934 
L 60.150503 90.881601 
L 60.149285 89.194268 
L 60.154803 87.506935 
L 60.168158 85.819602 
L 60.189942 84.132269 
L 60.22027 82.444936 
L 60.258809 80.757603 
L 60.304829 79.07027 
L 60.357249 77.382937 
L 60.414692 75.695604 
L 60.475547 74.008271 
L 60.538039 72.320938 
L 60.600293 70.633605 
L 60.660417 68.946272 
L 60.716575 67.258939 
L 60.76706 65.571606 
L 60.810367 63.884273 
L 60.845251 62.19694 
L 60.870778 60.509607 
L 60.886362 58.822274 
L 60.891792 57.134941 
L 60.887233 55.447608 
L 60.873225 53.760275 
L 60.850657 52.072942 
L 60.820733 50.385609 
L 60.78492 48.698276 
L 60.744889 47.010943 
L 60.702448 45.32361 
L 60.659464 43.636277 
L 60.617794 41.948944 
L 60.579206 40.261611 
L 60.545318 38.574278 
L 60.517539 36.886945 
L 60.497019 35.199612 
L 60.484617 33.512279 
L 60.480876 31.824946 
L 60.486014 30.137613 
L 60.499921 28.45028 
L 60.522177 26.762947 
L 60.552071 25.075614 
L 61.847929 25.075614 
L 61.847929 25.075614 
L 61.877823 26.762947 
L 61.900079 28.45028 
L 61.913986 30.137613 
L 61.919124 31.824946 
L 61.915383 33.512279 
L 61.902981 35.199612 
L 61.882461 36.886945 
L 61.854682 38.574278 
L 61.820794 40.261611 
L 61.782206 41.948944 
L 61.740536 43.636277 
L 61.697552 45.32361 
L 61.655111 47.010943 
L 61.61508 48.698276 
L 61.579267 50.385609 
L 61.549343 52.072942 
L 61.526775 53.760275 
L 61.512767 55.447608 
L 61.508208 57.134941 
L 61.513638 58.822274 
L 61.529222 60.509607 
L 61.554749 62.19694 
L 61.589633 63.884273 
L 61.63294 65.571606 
L 61.683425 67.258939 
L 61.739583 68.946272 
L 61.799707 70.633605 
L 61.861961 72.320938 
L 61.924453 74.008271 
L 61.985308 75.695604 
L 62.042751 77.382937 
L 62.095171 79.07027 
L 62.141191 80.757603 
L 62.17973 82.444936 
L 62.210058 84.132269 
L 62.231842 85.819602 
L 62.245197 87.506935 
L 62.250715 89.194268 
L 62.249497 90.881601 
L 62.243166 92.568934 
L 62.233865 94.256267 
L 62.22423 95.9436 
L 62.217349 97.630933 
L 62.216678 99.318266 
L 62.225951 101.005599 
L 62.249054 102.692932 
L 62.289901 104.380265 
L 62.352301 106.067598 
L 62.439834 107.754931 
L 62.55575 109.442264 
L 62.7029 111.129597 
L 62.883692 112.81693 
L 63.100086 114.504263 
L 63.353616 116.191596 
L 63.645426 117.878929 
L 63.976313 119.566262 
L 64.34677 121.253595 
L 64.756997 122.940928 
L 65.206903 124.628261 
L 65.696064 126.315594 
L 66.223672 128.002927 
L 66.788459 129.69026 
L 67.388618 131.377593 
L 68.021738 133.064926 
L 68.684757 134.752259 
L 69.373935 136.439592 
L 70.084866 138.126925 
L 70.812501 139.814258 
L 71.551192 141.501591 
L 72.294721 143.188924 
L 73.03632 144.876257 
L 73.768657 146.56359 
L 74.483786 148.250923 
L 75.173079 149.938256 
L 75.82714 151.625589 
L 76.435748 153.312922 
L 76.987854 155.000255 
L 77.47168 156.687588 
L 77.874944 158.374921 
L 78.185237 160.062254 
L 78.390562 161.749587 
L 78.48 163.43692 
L 78.44446 165.124253 
L 78.27746 166.811586 
L 77.975832 168.498919 
L 77.540294 170.186252 
L 76.975791 171.873585 
L 76.291561 173.560918 
L 75.500894 175.248251 
L 74.620598 176.935584 
L 73.670205 178.622917 
L 72.671 180.31025 
L 71.644942 181.997583 
L 70.613595 183.684916 
L 69.597141 185.372249 
L 68.613565 187.059582 
L 67.678043 188.746915 
L 66.802577 190.434248 
L 65.995861 192.121581 
L 65.995861 192.121581 
z
" clip-path="url(#pbbe450c640)" style="fill: none; stroke: #000000; stroke-opacity: 0.3"/>
   </g>
   <g id="FillBetweenPolyCollection_8">
    <path d="M 119.245226 200.356849 
L 118.354774 200.356849 
L 118.355468 199.25767 
L 118.363275 198.158492 
L 118.376726 197.059313 
L 118.393724 195.960134 
L 118.411666 194.860955 
L 118.427581 193.761777 
L 118.438294 192.662598 
L 118.440582 191.563419 
L 118.431331 190.46424 
L 118.407656 189.365062 
L 118.367011 188.265883 
L 118.307277 187.166704 
L 118.226831 186.067526 
L 118.124617 184.968347 
L 118.000198 183.869168 
L 117.853817 182.769989 
L 117.686432 181.670811 
L 117.499727 180.571632 
L 117.296085 179.472453 
L 117.078484 178.373274 
L 116.850332 177.274096 
L 116.615206 176.174917 
L 116.376533 175.075738 
L 116.137217 173.976559 
L 115.89926 172.877381 
L 115.663432 171.778202 
L 115.42904 170.679023 
L 115.193841 169.579844 
L 114.954141 168.480666 
L 114.705074 167.381487 
L 114.441061 166.282308 
L 114.156382 165.18313 
L 113.845811 164.083951 
L 113.505234 162.984772 
L 113.13217 161.885593 
L 112.726136 160.786415 
L 112.288811 159.687236 
L 111.823983 158.588057 
L 111.337287 157.488878 
L 110.835769 156.3897 
L 110.327322 155.290521 
L 109.820055 154.191342 
L 109.32166 153.092163 
L 108.838825 151.992985 
L 108.37675 150.893806 
L 107.938798 149.794627 
L 107.526304 148.695448 
L 107.138543 147.59627 
L 106.772873 146.497091 
L 106.425021 145.397912 
L 106.089511 144.298734 
L 105.760206 143.199555 
L 105.430925 142.100376 
L 105.096118 141.001197 
L 104.751552 139.902019 
L 104.394941 138.80284 
L 104.026495 137.703661 
L 103.6493 136.604482 
L 103.26948 135.505304 
L 102.896106 134.406125 
L 102.540805 133.306946 
L 102.217091 132.207767 
L 101.939458 131.108589 
L 101.72231 130.00941 
L 101.578842 128.910231 
L 101.52 127.811053 
L 101.553634 126.711874 
L 101.683965 125.612695 
L 101.911408 124.513516 
L 102.232766 123.414338 
L 102.641754 122.315159 
L 103.129748 121.21598 
L 103.686643 120.116801 
L 104.301689 119.017623 
L 104.964184 117.918444 
L 105.663965 116.819265 
L 106.391638 115.720086 
L 107.1386 114.620908 
L 107.89689 113.521729 
L 108.658965 112.42255 
L 109.41748 111.323371 
L 110.165157 110.224193 
L 110.89478 109.125014 
L 111.599325 108.025835 
L 112.272218 106.926657 
L 112.907651 105.827478 
L 113.500913 104.728299 
L 114.048677 103.62912 
L 114.549177 102.529942 
L 115.002262 101.430763 
L 115.409314 100.331584 
L 115.773037 99.232405 
L 116.097152 98.133227 
L 116.386034 97.034048 
L 116.644329 95.934869 
L 116.876603 94.83569 
L 117.087034 93.736512 
L 117.279199 92.637333 
L 117.455935 91.538154 
L 120.144065 91.538154 
L 120.144065 91.538154 
L 120.320801 92.637333 
L 120.512966 93.736512 
L 120.723397 94.83569 
L 120.955671 95.934869 
L 121.213966 97.034048 
L 121.502848 98.133227 
L 121.826963 99.232405 
L 122.190686 100.331584 
L 122.597738 101.430763 
L 123.050823 102.529942 
L 123.551323 103.62912 
L 124.099087 104.728299 
L 124.692349 105.827478 
L 125.327782 106.926657 
L 126.000675 108.025835 
L 126.70522 109.125014 
L 127.434843 110.224193 
L 128.18252 111.323371 
L 128.941035 112.42255 
L 129.70311 113.521729 
L 130.4614 114.620908 
L 131.208362 115.720086 
L 131.936035 116.819265 
L 132.635816 117.918444 
L 133.298311 119.017623 
L 133.913357 120.116801 
L 134.470252 121.21598 
L 134.958246 122.315159 
L 135.367234 123.414338 
L 135.688592 124.513516 
L 135.916035 125.612695 
L 136.046366 126.711874 
L 136.08 127.811053 
L 136.021158 128.910231 
L 135.87769 130.00941 
L 135.660542 131.108589 
L 135.382909 132.207767 
L 135.059195 133.306946 
L 134.703894 134.406125 
L 134.33052 135.505304 
L 133.9507 136.604482 
L 133.573505 137.703661 
L 133.205059 138.80284 
L 132.848448 139.902019 
L 132.503882 141.001197 
L 132.169075 142.100376 
L 131.839794 143.199555 
L 131.510489 144.298734 
L 131.174979 145.397912 
L 130.827127 146.497091 
L 130.461457 147.59627 
L 130.073696 148.695448 
L 129.661202 149.794627 
L 129.22325 150.893806 
L 128.761175 151.992985 
L 128.27834 153.092163 
L 127.779945 154.191342 
L 127.272678 155.290521 
L 126.764231 156.3897 
L 126.262713 157.488878 
L 125.776017 158.588057 
L 125.311189 159.687236 
L 124.873864 160.786415 
L 124.46783 161.885593 
L 124.094766 162.984772 
L 123.754189 164.083951 
L 123.443618 165.18313 
L 123.158939 166.282308 
L 122.894926 167.381487 
L 122.645859 168.480666 
L 122.406159 169.579844 
L 122.17096 170.679023 
L 121.936568 171.778202 
L 121.70074 172.877381 
L 121.462783 173.976559 
L 121.223467 175.075738 
L 120.984794 176.174917 
L 120.749668 177.274096 
L 120.521516 178.373274 
L 120.303915 179.472453 
L 120.100273 180.571632 
L 119.913568 181.670811 
L 119.746183 182.769989 
L 119.599802 183.869168 
L 119.475383 184.968347 
L 119.373169 186.067526 
L 119.292723 187.166704 
L 119.232989 188.265883 
L 119.192344 189.365062 
L 119.168669 190.46424 
L 119.159418 191.563419 
L 119.161706 192.662598 
L 119.172419 193.761777 
L 119.188334 194.860955 
L 119.206276 195.960134 
L 119.223274 197.059313 
L 119.236725 198.158492 
L 119.244532 199.25767 
L 119.245226 200.356849 
L 119.245226 200.356849 
z
" clip-path="url(#pbbe450c640)" style="fill: none; stroke: #000000; stroke-opacity: 0.3"/>
   </g>
   <g id="FillBetweenPolyCollection_9">
    <path d="M 119.141958 236.219274 
L 118.458042 236.219274 
L 118.464722 234.568632 
L 118.48399 232.917989 
L 118.513674 231.267347 
L 118.550606 229.616704 
L 118.591179 227.966062 
L 118.631915 226.315419 
L 118.66994 224.664777 
L 118.703255 223.014134 
L 118.730821 221.363492 
L 118.752446 219.71285 
L 118.768574 218.062207 
L 118.780032 216.411565 
L 118.787794 214.760922 
L 118.792803 213.11028 
L 118.795864 211.459637 
L 118.797586 209.808995 
L 118.798365 208.158352 
L 118.798381 206.50771 
L 118.797583 204.857067 
L 118.795651 203.206425 
L 118.791921 201.555782 
L 118.785279 199.90514 
L 118.774029 198.254498 
L 118.755763 196.603855 
L 118.727277 194.953213 
L 118.684591 193.30257 
L 118.623121 191.651928 
L 118.538055 190.001285 
L 118.424942 188.350643 
L 118.280431 186.7 
L 118.103059 185.049358 
L 117.893897 183.398715 
L 117.656857 181.748073 
L 117.398464 180.09743 
L 117.126984 178.446788 
L 116.850933 176.796146 
L 116.577141 175.145503 
L 116.308705 173.494861 
L 116.04328 171.844218 
L 115.772127 170.193576 
L 115.48029 168.542933 
L 115.148033 166.892291 
L 114.753431 165.241648 
L 114.275743 163.591006 
L 113.699026 161.940363 
L 113.015381 160.289721 
L 112.227281 158.639079 
L 111.348564 156.988436 
L 110.403881 155.337794 
L 109.426567 153.687151 
L 108.455074 152.036509 
L 107.528322 150.385866 
L 106.680531 148.735224 
L 105.936334 147.084581 
L 105.307098 145.433939 
L 104.789355 143.783296 
L 104.365949 142.132654 
L 104.00994 140.482011 
L 103.690638 138.831369 
L 103.380512 137.180727 
L 103.061412 135.530084 
L 102.728633 133.879442 
L 102.391902 132.228799 
L 102.073154 130.578157 
L 101.801766 128.927514 
L 101.608554 127.276872 
L 101.52 125.626229 
L 101.554018 123.975587 
L 101.718033 122.324944 
L 102.009502 120.674302 
L 102.418411 119.02366 
L 102.930858 117.373017 
L 103.532673 115.722375 
L 104.21216 114.071732 
L 104.961344 112.42109 
L 105.775565 110.770447 
L 106.65166 109.119805 
L 107.585339 107.469162 
L 108.568506 105.81852 
L 109.587272 104.167877 
L 110.621225 102.517235 
L 111.644223 100.866592 
L 112.626643 99.21595 
L 113.538697 97.565308 
L 114.354186 95.914665 
L 115.053968 94.264023 
L 115.62845 92.61338 
L 116.078621 90.962738 
L 116.415451 89.312095 
L 116.657795 87.661453 
L 116.829273 86.01081 
L 116.954738 84.360168 
L 117.056996 82.709525 
L 117.154336 81.058883 
L 117.25916 79.40824 
L 117.377775 77.757598 
L 117.511144 76.106956 
L 117.656252 74.456313 
L 117.807699 72.805671 
L 119.792301 72.805671 
L 119.792301 72.805671 
L 119.943748 74.456313 
L 120.088856 76.106956 
L 120.222225 77.757598 
L 120.34084 79.40824 
L 120.445664 81.058883 
L 120.543004 82.709525 
L 120.645262 84.360168 
L 120.770727 86.01081 
L 120.942205 87.661453 
L 121.184549 89.312095 
L 121.521379 90.962738 
L 121.97155 92.61338 
L 122.546032 94.264023 
L 123.245814 95.914665 
L 124.061303 97.565308 
L 124.973357 99.21595 
L 125.955777 100.866592 
L 126.978775 102.517235 
L 128.012728 104.167877 
L 129.031494 105.81852 
L 130.014661 107.469162 
L 130.94834 109.119805 
L 131.824435 110.770447 
L 132.638656 112.42109 
L 133.38784 114.071732 
L 134.067327 115.722375 
L 134.669142 117.373017 
L 135.181589 119.02366 
L 135.590498 120.674302 
L 135.881967 122.324944 
L 136.045982 123.975587 
L 136.08 125.626229 
L 135.991446 127.276872 
L 135.798234 128.927514 
L 135.526846 130.578157 
L 135.208098 132.228799 
L 134.871367 133.879442 
L 134.538588 135.530084 
L 134.219488 137.180727 
L 133.909362 138.831369 
L 133.59006 140.482011 
L 133.234051 142.132654 
L 132.810645 143.783296 
L 132.292902 145.433939 
L 131.663666 147.084581 
L 130.919469 148.735224 
L 130.071678 150.385866 
L 129.144926 152.036509 
L 128.173433 153.687151 
L 127.196119 155.337794 
L 126.251436 156.988436 
L 125.372719 158.639079 
L 124.584619 160.289721 
L 123.900974 161.940363 
L 123.324257 163.591006 
L 122.846569 165.241648 
L 122.451967 166.892291 
L 122.11971 168.542933 
L 121.827873 170.193576 
L 121.55672 171.844218 
L 121.291295 173.494861 
L 121.022859 175.145503 
L 120.749067 176.796146 
L 120.473016 178.446788 
L 120.201536 180.09743 
L 119.943143 181.748073 
L 119.706103 183.398715 
L 119.496941 185.049358 
L 119.319569 186.7 
L 119.175058 188.350643 
L 119.061945 190.001285 
L 118.976879 191.651928 
L 118.915409 193.30257 
L 118.872723 194.953213 
L 118.844237 196.603855 
L 118.825971 198.254498 
L 118.814721 199.90514 
L 118.808079 201.555782 
L 118.804349 203.206425 
L 118.802417 204.857067 
L 118.801619 206.50771 
L 118.801635 208.158352 
L 118.802414 209.808995 
L 118.804136 211.459637 
L 118.807197 213.11028 
L 118.812206 214.760922 
L 118.819968 216.411565 
L 118.831426 218.062207 
L 118.847554 219.71285 
L 118.869179 221.363492 
L 118.896745 223.014134 
L 118.93006 224.664777 
L 118.968085 226.315419 
L 119.008821 227.966062 
L 119.049394 229.616704 
L 119.086326 231.267347 
L 119.11601 232.917989 
L 119.135278 234.568632 
L 119.141958 236.219274 
L 119.141958 236.219274 
z
" clip-path="url(#pbbe450c640)" style="fill: none; stroke: #000000; stroke-opacity: 0.3"/>
   </g>
   <g id="FillBetweenPolyCollection_10">
    <path d="M 119.24902 182.46995 
L 118.35098 182.46995 
L 118.339003 181.478928 
L 118.328382 180.487905 
L 118.316593 179.496883 
L 118.300429 178.50586 
L 118.276129 177.514838 
L 118.239561 176.523816 
L 118.186456 175.532793 
L 118.11268 174.541771 
L 118.014518 173.550748 
L 117.88896 172.559726 
L 117.73396 171.568703 
L 117.548645 170.577681 
L 117.333445 169.586659 
L 117.090141 168.595636 
L 116.821788 167.604614 
L 116.532541 166.613591 
L 116.227367 165.622569 
L 115.911673 164.631546 
L 115.590886 163.640524 
L 115.270014 162.649502 
L 114.953247 161.658479 
L 114.643623 160.667457 
L 114.342816 159.676434 
L 114.051041 158.685412 
L 113.767099 157.694389 
L 113.488538 156.703367 
L 113.211902 155.712344 
L 112.933034 154.721322 
L 112.647392 153.7303 
L 112.350342 152.739277 
L 112.037408 151.748255 
L 111.704469 150.757232 
L 111.347921 149.76621 
L 110.964803 148.775187 
L 110.55293 147.784165 
L 110.111037 146.793143 
L 109.638953 145.80212 
L 109.137791 144.811098 
L 108.610131 143.820075 
L 108.060159 142.829053 
L 107.4937 141.83803 
L 106.918129 140.847008 
L 106.3421 139.855986 
L 105.775108 138.864963 
L 105.226897 137.873941 
L 104.706773 136.882918 
L 104.222902 135.891896 
L 103.781671 134.900873 
L 103.387217 133.909851 
L 103.041185 132.918829 
L 102.742766 131.927806 
L 102.489003 130.936784 
L 102.275356 129.945761 
L 102.096431 128.954739 
L 101.94679 127.963716 
L 101.821746 126.972694 
L 101.718032 125.981672 
L 101.63427 124.990649 
L 101.571191 123.999627 
L 101.531585 123.008604 
L 101.52 122.017582 
L 101.542223 121.026559 
L 101.604628 120.035537 
L 101.713442 119.044515 
L 101.874033 118.053492 
L 102.090284 117.06247 
L 102.364108 116.071447 
L 102.695166 115.080425 
L 103.080799 114.089402 
L 103.516176 113.09838 
L 103.99464 112.107357 
L 104.508204 111.116335 
L 105.04815 110.125313 
L 105.605651 109.13429 
L 106.172365 108.143268 
L 106.740925 107.152245 
L 107.305301 106.161223 
L 107.860981 105.1702 
L 108.404987 104.179178 
L 108.935746 103.188156 
L 109.452824 102.197133 
L 109.95661 101.206111 
L 110.447963 100.215088 
L 110.927897 99.224066 
L 111.397319 98.233043 
L 111.85686 97.242021 
L 112.306789 96.250999 
L 112.747004 95.259976 
L 113.177091 94.268954 
L 113.596405 93.277931 
L 114.004164 92.286909 
L 114.399527 91.295886 
L 114.781643 90.304864 
L 115.149675 89.313842 
L 115.502797 88.322819 
L 115.840174 87.331797 
L 116.16095 86.340774 
L 116.464241 85.349752 
L 116.74915 84.358729 
L 120.85085 84.358729 
L 120.85085 84.358729 
L 121.135759 85.349752 
L 121.43905 86.340774 
L 121.759826 87.331797 
L 122.097203 88.322819 
L 122.450325 89.313842 
L 122.818357 90.304864 
L 123.200473 91.295886 
L 123.595836 92.286909 
L 124.003595 93.277931 
L 124.422909 94.268954 
L 124.852996 95.259976 
L 125.293211 96.250999 
L 125.74314 97.242021 
L 126.202681 98.233043 
L 126.672103 99.224066 
L 127.152037 100.215088 
L 127.64339 101.206111 
L 128.147176 102.197133 
L 128.664254 103.188156 
L 129.195013 104.179178 
L 129.739019 105.1702 
L 130.294699 106.161223 
L 130.859075 107.152245 
L 131.427635 108.143268 
L 131.994349 109.13429 
L 132.55185 110.125313 
L 133.091796 111.116335 
L 133.60536 112.107357 
L 134.083824 113.09838 
L 134.519201 114.089402 
L 134.904834 115.080425 
L 135.235892 116.071447 
L 135.509716 117.06247 
L 135.725967 118.053492 
L 135.886558 119.044515 
L 135.995372 120.035537 
L 136.057777 121.026559 
L 136.08 122.017582 
L 136.068415 123.008604 
L 136.028809 123.999627 
L 135.96573 124.990649 
L 135.881968 125.981672 
L 135.778254 126.972694 
L 135.65321 127.963716 
L 135.503569 128.954739 
L 135.324644 129.945761 
L 135.110997 130.936784 
L 134.857234 131.927806 
L 134.558815 132.918829 
L 134.212783 133.909851 
L 133.818329 134.900873 
L 133.377098 135.891896 
L 132.893227 136.882918 
L 132.373103 137.873941 
L 131.824892 138.864963 
L 131.2579 139.855986 
L 130.681871 140.847008 
L 130.1063 141.83803 
L 129.539841 142.829053 
L 128.989869 143.820075 
L 128.462209 144.811098 
L 127.961047 145.80212 
L 127.488963 146.793143 
L 127.04707 147.784165 
L 126.635197 148.775187 
L 126.252079 149.76621 
L 125.895531 150.757232 
L 125.562592 151.748255 
L 125.249658 152.739277 
L 124.952608 153.7303 
L 124.666966 154.721322 
L 124.388098 155.712344 
L 124.111462 156.703367 
L 123.832901 157.694389 
L 123.548959 158.685412 
L 123.257184 159.676434 
L 122.956377 160.667457 
L 122.646753 161.658479 
L 122.329986 162.649502 
L 122.009114 163.640524 
L 121.688327 164.631546 
L 121.372633 165.622569 
L 121.067459 166.613591 
L 120.778212 167.604614 
L 120.509859 168.595636 
L 120.266555 169.586659 
L 120.051355 170.577681 
L 119.86604 171.568703 
L 119.71104 172.559726 
L 119.585482 173.550748 
L 119.48732 174.541771 
L 119.413544 175.532793 
L 119.360439 176.523816 
L 119.323871 177.514838 
L 119.299571 178.50586 
L 119.283407 179.496883 
L 119.271618 180.487905 
L 119.260997 181.478928 
L 119.24902 182.46995 
L 119.24902 182.46995 
z
" clip-path="url(#pbbe450c640)" style="fill: none; stroke: #000000; stroke-opacity: 0.3"/>
   </g>
   <g id="FillBetweenPolyCollection_11">
    <path d="M 119.230912 319.710368 
L 118.369088 319.710368 
L 118.375256 317.45566 
L 118.393235 315.200952 
L 118.421526 312.946244 
L 118.457859 310.691536 
L 118.499495 308.436828 
L 118.543566 306.18212 
L 118.587393 303.927412 
L 118.62874 301.672704 
L 118.665967 299.417996 
L 118.698082 297.163288 
L 118.724702 294.90858 
L 118.745945 292.653872 
L 118.762286 290.399164 
L 118.77441 288.144456 
L 118.783079 285.889748 
L 118.78903 283.63504 
L 118.792901 281.380332 
L 118.795191 279.125625 
L 118.796235 276.870917 
L 118.796202 274.616209 
L 118.795085 272.361501 
L 118.792706 270.106793 
L 118.788719 267.852085 
L 118.782615 265.597377 
L 118.773748 263.342669 
L 118.761377 261.087961 
L 118.744739 258.833253 
L 118.723158 256.578545 
L 118.696171 254.323837 
L 118.663682 252.069129 
L 118.626095 249.814421 
L 118.584416 247.559713 
L 118.540282 245.305005 
L 118.495887 243.050297 
L 118.45381 240.795589 
L 118.416736 238.540882 
L 118.387102 236.286174 
L 118.366738 234.031466 
L 118.356534 231.776758 
L 118.356217 229.52205 
L 118.36427 227.267342 
L 118.378021 225.012634 
L 118.39388 222.757926 
L 118.407703 220.503218 
L 118.415213 218.24851 
L 118.412427 215.993802 
L 118.396006 213.739094 
L 118.363503 211.484386 
L 118.313463 209.229678 
L 118.245377 206.97497 
L 118.159504 204.720262 
L 118.0566 202.465554 
L 117.937592 200.210846 
L 117.803252 197.956139 
L 117.653903 195.701431 
L 117.489198 193.446723 
L 117.307956 191.192015 
L 117.108057 188.937307 
L 116.886354 186.682599 
L 116.638578 184.427891 
L 116.359222 182.173183 
L 116.04141 179.918475 
L 115.676833 177.663767 
L 115.255827 175.409059 
L 114.76774 173.154351 
L 114.201678 170.899643 
L 113.547703 168.644935 
L 112.798445 166.390227 
L 111.950969 164.135519 
L 111.008637 161.880811 
L 109.982592 159.626103 
L 108.892495 157.371396 
L 107.766209 155.116688 
L 106.638284 152.86198 
L 105.547322 150.607272 
L 104.532546 148.352564 
L 103.630095 146.097856 
L 102.869676 143.843148 
L 102.272138 141.58844 
L 101.848396 139.333732 
L 101.599833 137.079024 
L 101.52 134.824316 
L 101.597186 132.569608 
L 101.817258 130.3149 
L 102.166163 128.060192 
L 102.631633 125.805484 
L 103.203831 123.550776 
L 103.874971 121.296068 
L 104.638153 119.04136 
L 105.485829 116.786652 
L 106.408316 114.531945 
L 107.392761 112.277237 
L 108.422764 110.022529 
L 109.478757 107.767821 
L 110.539021 105.513113 
L 111.581143 103.258405 
L 112.583627 101.003697 
L 113.527419 98.748989 
L 114.397092 96.494281 
L 123.202908 96.494281 
L 123.202908 96.494281 
L 124.072581 98.748989 
L 125.016373 101.003697 
L 126.018857 103.258405 
L 127.060979 105.513113 
L 128.121243 107.767821 
L 129.177236 110.022529 
L 130.207239 112.277237 
L 131.191684 114.531945 
L 132.114171 116.786652 
L 132.961847 119.04136 
L 133.725029 121.296068 
L 134.396169 123.550776 
L 134.968367 125.805484 
L 135.433837 128.060192 
L 135.782742 130.3149 
L 136.002814 132.569608 
L 136.08 134.824316 
L 136.000167 137.079024 
L 135.751604 139.333732 
L 135.327862 141.58844 
L 134.730324 143.843148 
L 133.969905 146.097856 
L 133.067454 148.352564 
L 132.052678 150.607272 
L 130.961716 152.86198 
L 129.833791 155.116688 
L 128.707505 157.371396 
L 127.617408 159.626103 
L 126.591363 161.880811 
L 125.649031 164.135519 
L 124.801555 166.390227 
L 124.052297 168.644935 
L 123.398322 170.899643 
L 122.83226 173.154351 
L 122.344173 175.409059 
L 121.923167 177.663767 
L 121.55859 179.918475 
L 121.240778 182.173183 
L 120.961422 184.427891 
L 120.713646 186.682599 
L 120.491943 188.937307 
L 120.292044 191.192015 
L 120.110802 193.446723 
L 119.946097 195.701431 
L 119.796748 197.956139 
L 119.662408 200.210846 
L 119.5434 202.465554 
L 119.440496 204.720262 
L 119.354623 206.97497 
L 119.286537 209.229678 
L 119.236497 211.484386 
L 119.203994 213.739094 
L 119.187573 215.993802 
L 119.184787 218.24851 
L 119.192297 220.503218 
L 119.20612 222.757926 
L 119.221979 225.012634 
L 119.23573 227.267342 
L 119.243783 229.52205 
L 119.243466 231.776758 
L 119.233262 234.031466 
L 119.212898 236.286174 
L 119.183264 238.540882 
L 119.14619 240.795589 
L 119.104113 243.050297 
L 119.059718 245.305005 
L 119.015584 247.559713 
L 118.973905 249.814421 
L 118.936318 252.069129 
L 118.903829 254.323837 
L 118.876842 256.578545 
L 118.855261 258.833253 
L 118.838623 261.087961 
L 118.826252 263.342669 
L 118.817385 265.597377 
L 118.811281 267.852085 
L 118.807294 270.106793 
L 118.804915 272.361501 
L 118.803798 274.616209 
L 118.803765 276.870917 
L 118.804809 279.125625 
L 118.807099 281.380332 
L 118.81097 283.63504 
L 118.816921 285.889748 
L 118.82559 288.144456 
L 118.837714 290.399164 
L 118.854055 292.653872 
L 118.875298 294.90858 
L 118.901918 297.163288 
L 118.934033 299.417996 
L 118.97126 301.672704 
L 119.012607 303.927412 
L 119.056434 306.18212 
L 119.100505 308.436828 
L 119.142141 310.691536 
L 119.178474 312.946244 
L 119.206765 315.200952 
L 119.224744 317.45566 
L 119.230912 319.710368 
L 119.230912 319.710368 
z
" clip-path="url(#pbbe450c640)" style="fill: none; stroke: #000000; stroke-opacity: 0.3"/>
   </g>
   <g id="FillBetweenPolyCollection_12">
    <path d="M 176.943723 186.279834 
L 175.856277 186.279834 
L 175.81146 184.45325 
L 175.771792 182.626666 
L 175.734838 180.800082 
L 175.69603 178.973498 
L 175.648438 177.146914 
L 175.582674 175.32033 
L 175.486996 173.493746 
L 175.347686 171.667162 
L 175.149761 169.840578 
L 174.87804 168.013994 
L 174.518558 166.18741 
L 174.060204 164.360826 
L 173.496447 162.534242 
L 172.826887 160.707658 
L 172.058354 158.881074 
L 171.205232 157.05449 
L 170.288747 155.227906 
L 169.335074 153.401322 
L 168.372381 151.574738 
L 167.427192 149.748154 
L 166.520744 147.92157 
L 165.666165 146.094986 
L 164.867259 144.268402 
L 164.119374 142.441818 
L 163.412325 140.615234 
L 162.734806 138.78865 
L 162.07922 136.962066 
L 161.445681 135.135482 
L 160.844098 133.308898 
L 160.293738 131.482315 
L 159.820369 129.655731 
L 159.451713 127.829147 
L 159.212443 126.002563 
L 159.12 124.175979 
L 159.182215 122.349395 
L 159.397148 120.522811 
L 159.754896 118.696227 
L 160.240579 116.869643 
L 160.837489 115.043059 
L 161.529501 113.216475 
L 162.302182 111.389891 
L 163.142581 109.563307 
L 164.038094 107.736723 
L 164.975046 105.910139 
L 165.937654 104.083555 
L 166.907807 102.256971 
L 167.865792 100.430387 
L 168.791767 98.603803 
L 169.667589 96.777219 
L 170.478519 94.950635 
L 171.214423 93.124051 
L 171.870254 91.297467 
L 172.445812 89.470883 
L 172.944923 87.644299 
L 173.374312 85.817715 
L 173.742399 83.991131 
L 174.05822 82.164547 
L 174.330579 80.337963 
L 174.567423 78.511379 
L 174.775428 76.684795 
L 174.959722 74.858211 
L 175.123761 73.031628 
L 175.269331 71.205044 
L 175.396752 69.37846 
L 175.505274 67.551876 
L 175.593659 65.725292 
L 175.660874 63.898708 
L 175.706771 62.072124 
L 175.732613 60.24554 
L 175.741331 58.418956 
L 175.737443 56.592372 
L 175.726642 54.765788 
L 175.715132 52.939204 
L 175.708841 51.11262 
L 175.712665 49.286036 
L 175.729873 47.459452 
L 175.761781 45.632868 
L 175.807728 43.806284 
L 175.865332 41.9797 
L 175.930969 40.153116 
L 176.000362 38.326532 
L 176.069169 36.499948 
L 176.133473 34.673364 
L 176.19012 32.84678 
L 176.236853 31.020196 
L 176.272291 29.193612 
L 176.295799 27.367028 
L 176.307311 25.540444 
L 176.307185 23.71386 
L 176.296144 21.887276 
L 176.275291 20.060692 
L 176.246205 18.234108 
L 176.211033 16.407525 
L 176.17253 14.580941 
L 176.133973 12.754357 
L 176.098923 10.927773 
L 176.070854 9.101189 
L 176.052707 7.274605 
L 176.046464 5.448021 
L 176.753536 5.448021 
L 176.753536 5.448021 
L 176.747293 7.274605 
L 176.729146 9.101189 
L 176.701077 10.927773 
L 176.666027 12.754357 
L 176.62747 14.580941 
L 176.588967 16.407525 
L 176.553795 18.234108 
L 176.524709 20.060692 
L 176.503856 21.887276 
L 176.492815 23.71386 
L 176.492689 25.540444 
L 176.504201 27.367028 
L 176.527709 29.193612 
L 176.563147 31.020196 
L 176.60988 32.84678 
L 176.666527 34.673364 
L 176.730831 36.499948 
L 176.799638 38.326532 
L 176.869031 40.153116 
L 176.934668 41.9797 
L 176.992272 43.806284 
L 177.038219 45.632868 
L 177.070127 47.459452 
L 177.087335 49.286036 
L 177.091159 51.11262 
L 177.084868 52.939204 
L 177.073358 54.765788 
L 177.062557 56.592372 
L 177.058669 58.418956 
L 177.067387 60.24554 
L 177.093229 62.072124 
L 177.139126 63.898708 
L 177.206341 65.725292 
L 177.294726 67.551876 
L 177.403248 69.37846 
L 177.530669 71.205044 
L 177.676239 73.031628 
L 177.840278 74.858211 
L 178.024572 76.684795 
L 178.232577 78.511379 
L 178.469421 80.337963 
L 178.74178 82.164547 
L 179.057601 83.991131 
L 179.425688 85.817715 
L 179.855077 87.644299 
L 180.354188 89.470883 
L 180.929746 91.297467 
L 181.585577 93.124051 
L 182.321481 94.950635 
L 183.132411 96.777219 
L 184.008233 98.603803 
L 184.934208 100.430387 
L 185.892193 102.256971 
L 186.862346 104.083555 
L 187.824954 105.910139 
L 188.761906 107.736723 
L 189.657419 109.563307 
L 190.497818 111.389891 
L 191.270499 113.216475 
L 191.962511 115.043059 
L 192.559421 116.869643 
L 193.045104 118.696227 
L 193.402852 120.522811 
L 193.617785 122.349395 
L 193.68 124.175979 
L 193.587557 126.002563 
L 193.348287 127.829147 
L 192.979631 129.655731 
L 192.506262 131.482315 
L 191.955902 133.308898 
L 191.354319 135.135482 
L 190.72078 136.962066 
L 190.065194 138.78865 
L 189.387675 140.615234 
L 188.680626 142.441818 
L 187.932741 144.268402 
L 187.133835 146.094986 
L 186.279256 147.92157 
L 185.372808 149.748154 
L 184.427619 151.574738 
L 183.464926 153.401322 
L 182.511253 155.227906 
L 181.594768 157.05449 
L 180.741646 158.881074 
L 179.973113 160.707658 
L 179.303553 162.534242 
L 178.739796 164.360826 
L 178.281442 166.18741 
L 177.92196 168.013994 
L 177.650239 169.840578 
L 177.452314 171.667162 
L 177.313004 173.493746 
L 177.217326 175.32033 
L 177.151562 177.146914 
L 177.10397 178.973498 
L 177.065162 180.800082 
L 177.028208 182.626666 
L 176.98854 184.45325 
L 176.943723 186.279834 
L 176.943723 186.279834 
z
" clip-path="url(#pbbe450c640)" style="fill: none; stroke: #000000; stroke-opacity: 0.3"/>
   </g>
   <g id="FillBetweenPolyCollection_13">
    <path d="M 176.656105 236.647928 
L 176.143895 236.647928 
L 176.138325 234.800358 
L 176.138194 232.952788 
L 176.141295 231.105219 
L 176.14512 229.257649 
L 176.147525 227.410079 
L 176.147323 225.56251 
L 176.144608 223.71494 
L 176.140731 221.86737 
L 176.137921 220.019801 
L 176.138672 218.172231 
L 176.145063 216.324661 
L 176.158211 214.477092 
L 176.177977 212.629522 
L 176.202985 210.781952 
L 176.230893 208.934383 
L 176.258818 207.086813 
L 176.283758 205.239243 
L 176.302913 203.391674 
L 176.313831 201.544104 
L 176.314403 199.696534 
L 176.302735 197.848965 
L 176.276986 196.001395 
L 176.235215 194.153825 
L 176.175273 192.306256 
L 176.09477 190.458686 
L 175.991118 188.611116 
L 175.861668 186.763547 
L 175.703945 184.915977 
L 175.516005 183.068407 
L 175.29684 181.220838 
L 175.046754 179.373268 
L 174.76755 177.525698 
L 174.462381 175.678129 
L 174.135182 173.830559 
L 173.789726 171.982989 
L 173.428486 170.13542 
L 173.051626 168.28785 
L 172.656429 166.44028 
L 172.237398 164.592711 
L 171.787097 162.745141 
L 171.297577 160.897571 
L 170.762078 159.050002 
L 170.176649 157.202432 
L 169.54131 155.354862 
L 168.860505 153.507293 
L 168.142735 151.659723 
L 167.399404 149.812153 
L 166.643102 147.964584 
L 165.885705 146.117014 
L 165.13674 144.269444 
L 164.402505 142.421875 
L 163.686249 140.574305 
L 162.98946 138.726735 
L 162.31397 136.879166 
L 161.66429 135.031596 
L 161.049476 133.184026 
L 160.483932 131.336457 
L 159.986847 129.488887 
L 159.580426 127.641317 
L 159.287391 125.793748 
L 159.128405 123.946178 
L 159.12 122.098608 
L 159.273273 120.251039 
L 159.593289 118.403469 
L 160.078874 116.555899 
L 160.722489 114.70833 
L 161.510019 112.86076 
L 162.420634 111.01319 
L 163.427044 109.165621 
L 164.496509 107.318051 
L 165.592757 105.470481 
L 166.678724 103.622912 
L 167.719693 101.775342 
L 168.686343 99.927772 
L 169.557203 98.080203 
L 170.32012 96.232633 
L 170.972588 94.385063 
L 171.520903 92.537494 
L 171.978316 90.689924 
L 172.36248 88.842354 
L 172.692585 86.994785 
L 172.986658 85.147215 
L 173.259423 83.299645 
L 173.521018 81.452076 
L 173.776635 79.604506 
L 174.026966 77.756936 
L 174.269216 75.909367 
L 174.498389 74.061797 
L 174.708633 72.214227 
L 174.894508 70.366658 
L 175.052103 68.519088 
L 175.179917 66.671518 
L 175.2794 64.823949 
L 175.355018 62.976379 
L 175.413738 61.12881 
L 175.463954 59.28124 
L 175.514047 57.43367 
L 175.570882 55.586101 
L 175.638628 53.738531 
L 177.161372 53.738531 
L 177.161372 53.738531 
L 177.229118 55.586101 
L 177.285953 57.43367 
L 177.336046 59.28124 
L 177.386262 61.12881 
L 177.444982 62.976379 
L 177.5206 64.823949 
L 177.620083 66.671518 
L 177.747897 68.519088 
L 177.905492 70.366658 
L 178.091367 72.214227 
L 178.301611 74.061797 
L 178.530784 75.909367 
L 178.773034 77.756936 
L 179.023365 79.604506 
L 179.278982 81.452076 
L 179.540577 83.299645 
L 179.813342 85.147215 
L 180.107415 86.994785 
L 180.43752 88.842354 
L 180.821684 90.689924 
L 181.279097 92.537494 
L 181.827412 94.385063 
L 182.47988 96.232633 
L 183.242797 98.080203 
L 184.113657 99.927772 
L 185.080307 101.775342 
L 186.121276 103.622912 
L 187.207243 105.470481 
L 188.303491 107.318051 
L 189.372956 109.165621 
L 190.379366 111.01319 
L 191.289981 112.86076 
L 192.077511 114.70833 
L 192.721126 116.555899 
L 193.206711 118.403469 
L 193.526727 120.251039 
L 193.68 122.098608 
L 193.671595 123.946178 
L 193.512609 125.793748 
L 193.219574 127.641317 
L 192.813153 129.488887 
L 192.316068 131.336457 
L 191.750524 133.184026 
L 191.13571 135.031596 
L 190.48603 136.879166 
L 189.81054 138.726735 
L 189.113751 140.574305 
L 188.397495 142.421875 
L 187.66326 144.269444 
L 186.914295 146.117014 
L 186.156898 147.964584 
L 185.400596 149.812153 
L 184.657265 151.659723 
L 183.939495 153.507293 
L 183.25869 155.354862 
L 182.623351 157.202432 
L 182.037922 159.050002 
L 181.502423 160.897571 
L 181.012903 162.745141 
L 180.562602 164.592711 
L 180.143571 166.44028 
L 179.748374 168.28785 
L 179.371514 170.13542 
L 179.010274 171.982989 
L 178.664818 173.830559 
L 178.337619 175.678129 
L 178.03245 177.525698 
L 177.753246 179.373268 
L 177.50316 181.220838 
L 177.283995 183.068407 
L 177.096055 184.915977 
L 176.938332 186.763547 
L 176.808882 188.611116 
L 176.70523 190.458686 
L 176.624727 192.306256 
L 176.564785 194.153825 
L 176.523014 196.001395 
L 176.497265 197.848965 
L 176.485597 199.696534 
L 176.486169 201.544104 
L 176.497087 203.391674 
L 176.516242 205.239243 
L 176.541182 207.086813 
L 176.569107 208.934383 
L 176.597015 210.781952 
L 176.622023 212.629522 
L 176.641789 214.477092 
L 176.654937 216.324661 
L 176.661328 218.172231 
L 176.662079 220.019801 
L 176.659269 221.86737 
L 176.655392 223.71494 
L 176.652677 225.56251 
L 176.652475 227.410079 
L 176.65488 229.257649 
L 176.658705 231.105219 
L 176.661806 232.952788 
L 176.661675 234.800358 
L 176.656105 236.647928 
L 176.656105 236.647928 
z
" clip-path="url(#pbbe450c640)" style="fill: none; stroke: #000000; stroke-opacity: 0.3"/>
   </g>
   <g id="FillBetweenPolyCollection_14">
    <path d="M 176.597185 209.587117 
L 176.202815 209.587117 
L 176.202672 207.728848 
L 176.208997 205.870579 
L 176.218005 204.01231 
L 176.22506 202.154041 
L 176.225817 200.295771 
L 176.217303 198.437502 
L 176.198618 196.579233 
L 176.171069 194.720964 
L 176.137728 192.862695 
L 176.102523 191.004426 
L 176.069095 189.146157 
L 176.039664 187.287887 
L 176.014151 185.429618 
L 175.989756 183.571349 
L 175.96111 181.71308 
L 175.921034 179.854811 
L 175.861781 177.996542 
L 175.776484 176.138272 
L 175.660368 174.280003 
L 175.511292 172.421734 
L 175.329311 170.563465 
L 175.115306 168.705196 
L 174.869131 166.846927 
L 174.588035 164.988658 
L 174.266187 163.130388 
L 173.895769 161.272119 
L 173.469554 159.41385 
L 172.984111 157.555581 
L 172.442402 155.697312 
L 171.854576 153.839043 
L 171.236396 151.980773 
L 170.605674 150.122504 
L 169.977898 148.264235 
L 169.362476 146.405966 
L 168.760678 144.547697 
L 168.165554 142.689428 
L 167.563483 140.831159 
L 166.936706 138.972889 
L 166.266405 137.11462 
L 165.536244 135.256351 
L 164.736405 133.398082 
L 163.867948 131.539813 
L 162.94682 129.681544 
L 162.006437 127.823274 
L 161.097662 125.965005 
L 160.285368 124.106736 
L 159.641404 122.248467 
L 159.234689 120.390198 
L 159.12 118.531929 
L 159.327757 116.67366 
L 159.857313 114.81539 
L 160.675743 112.957121 
L 161.722838 111.098852 
L 162.921273 109.240583 
L 164.189376 107.382314 
L 165.453273 105.524045 
L 166.655634 103.665775 
L 167.75962 101.807506 
L 168.748209 99.949237 
L 169.620341 98.090968 
L 170.385704 96.232699 
L 171.059748 94.37443 
L 171.659744 92.516161 
L 172.202039 90.657891 
L 172.700205 88.799622 
L 173.163754 86.941353 
L 173.597316 85.083084 
L 174.000505 83.224815 
L 174.368741 81.366546 
L 174.695149 79.508276 
L 174.973203 77.650007 
L 175.199384 75.791738 
L 175.37499 73.933469 
L 175.506422 72.0752 
L 175.603859 70.216931 
L 175.678765 68.358662 
L 175.741136 66.500392 
L 175.797396 64.642123 
L 175.849619 62.783854 
L 175.896219 60.925585 
L 175.933782 59.067316 
L 175.959336 57.209047 
L 175.972265 55.350777 
L 175.975214 53.492508 
L 175.973696 51.634239 
L 175.974577 49.77597 
L 175.983991 47.917701 
L 176.005457 46.059432 
L 176.038832 44.201163 
L 176.08044 42.342893 
L 176.124265 40.484624 
L 176.163759 38.626355 
L 176.193657 36.768086 
L 176.211289 34.909817 
L 176.217078 33.051548 
L 176.21419 31.193278 
L 176.207517 29.335009 
L 176.202316 27.47674 
L 176.202892 25.618471 
L 176.597108 25.618471 
L 176.597108 25.618471 
L 176.597684 27.47674 
L 176.592483 29.335009 
L 176.58581 31.193278 
L 176.582922 33.051548 
L 176.588711 34.909817 
L 176.606343 36.768086 
L 176.636241 38.626355 
L 176.675735 40.484624 
L 176.71956 42.342893 
L 176.761168 44.201163 
L 176.794543 46.059432 
L 176.816009 47.917701 
L 176.825423 49.77597 
L 176.826304 51.634239 
L 176.824786 53.492508 
L 176.827735 55.350777 
L 176.840664 57.209047 
L 176.866218 59.067316 
L 176.903781 60.925585 
L 176.950381 62.783854 
L 177.002604 64.642123 
L 177.058864 66.500392 
L 177.121235 68.358662 
L 177.196141 70.216931 
L 177.293578 72.0752 
L 177.42501 73.933469 
L 177.600616 75.791738 
L 177.826797 77.650007 
L 178.104851 79.508276 
L 178.431259 81.366546 
L 178.799495 83.224815 
L 179.202684 85.083084 
L 179.636246 86.941353 
L 180.099795 88.799622 
L 180.597961 90.657891 
L 181.140256 92.516161 
L 181.740252 94.37443 
L 182.414296 96.232699 
L 183.179659 98.090968 
L 184.051791 99.949237 
L 185.04038 101.807506 
L 186.144366 103.665775 
L 187.346727 105.524045 
L 188.610624 107.382314 
L 189.878727 109.240583 
L 191.077162 111.098852 
L 192.124257 112.957121 
L 192.942687 114.81539 
L 193.472243 116.67366 
L 193.68 118.531929 
L 193.565311 120.390198 
L 193.158596 122.248467 
L 192.514632 124.106736 
L 191.702338 125.965005 
L 190.793563 127.823274 
L 189.85318 129.681544 
L 188.932052 131.539813 
L 188.063595 133.398082 
L 187.263756 135.256351 
L 186.533595 137.11462 
L 185.863294 138.972889 
L 185.236517 140.831159 
L 184.634446 142.689428 
L 184.039322 144.547697 
L 183.437524 146.405966 
L 182.822102 148.264235 
L 182.194326 150.122504 
L 181.563604 151.980773 
L 180.945424 153.839043 
L 180.357598 155.697312 
L 179.815889 157.555581 
L 179.330446 159.41385 
L 178.904231 161.272119 
L 178.533813 163.130388 
L 178.211965 164.988658 
L 177.930869 166.846927 
L 177.684694 168.705196 
L 177.470689 170.563465 
L 177.288708 172.421734 
L 177.139632 174.280003 
L 177.023516 176.138272 
L 176.938219 177.996542 
L 176.878966 179.854811 
L 176.83889 181.71308 
L 176.810244 183.571349 
L 176.785849 185.429618 
L 176.760336 187.287887 
L 176.730905 189.146157 
L 176.697477 191.004426 
L 176.662272 192.862695 
L 176.628931 194.720964 
L 176.601382 196.579233 
L 176.582697 198.437502 
L 176.574183 200.295771 
L 176.57494 202.154041 
L 176.581995 204.01231 
L 176.591003 205.870579 
L 176.597328 207.728848 
L 176.597185 209.587117 
L 176.597185 209.587117 
z
" clip-path="url(#pbbe450c640)" style="fill: none; stroke: #000000; stroke-opacity: 0.3"/>
   </g>
   <g id="FillBetweenPolyCollection_15">
    <path d="M 180.627426 160.92195 
L 172.172574 160.92195 
L 171.651192 159.68102 
L 171.106438 158.440091 
L 170.541857 157.199162 
L 169.961682 155.958233 
L 169.370878 154.717304 
L 168.775083 153.476374 
L 168.180404 152.235445 
L 167.593076 150.994516 
L 167.018997 149.753587 
L 166.463188 148.512657 
L 165.929276 147.271728 
L 165.419074 146.030799 
L 164.932348 144.78987 
L 164.466844 143.548941 
L 164.018599 142.308011 
L 163.582524 141.067082 
L 163.153212 139.826153 
L 162.725864 138.585224 
L 162.297227 137.344294 
L 161.86642 136.103365 
L 161.43552 134.862436 
L 161.009847 133.621507 
L 160.597877 132.380578 
L 160.210799 131.139648 
L 159.861762 129.898719 
L 159.56489 128.65779 
L 159.334173 127.416861 
L 159.182367 126.175932 
L 159.12 124.935002 
L 159.15459 123.694073 
L 159.290133 122.453144 
L 159.52688 121.212215 
L 159.861411 119.971285 
L 160.286954 118.730356 
L 160.79389 117.489427 
L 161.37039 116.248498 
L 162.003111 115.007569 
L 162.677893 113.766639 
L 163.380425 112.52571 
L 164.096842 111.284781 
L 164.814242 110.043852 
L 165.521116 108.802923 
L 166.207673 107.561993 
L 166.866068 106.321064 
L 167.490521 105.080135 
L 168.077323 103.839206 
L 168.624733 102.598276 
L 169.13278 101.357347 
L 169.602987 100.116418 
L 170.038034 98.875489 
L 170.441413 97.63456 
L 170.817081 96.39363 
L 171.169154 95.152701 
L 171.501646 93.911772 
L 171.81828 92.670843 
L 172.122333 91.429913 
L 172.416549 90.188984 
L 172.703078 88.948055 
L 172.983441 87.707126 
L 173.258519 86.466197 
L 173.528564 85.225267 
L 173.793223 83.984338 
L 174.051604 82.743409 
L 174.302356 81.50248 
L 174.543789 80.261551 
L 174.774021 79.020621 
L 174.99113 77.779692 
L 175.193315 76.538763 
L 175.379046 75.297834 
L 175.547177 74.056904 
L 175.697028 72.815975 
L 175.828422 71.575046 
L 175.94167 70.334117 
L 176.037525 69.093188 
L 176.117093 67.852258 
L 176.181728 66.611329 
L 176.232917 65.3704 
L 176.27217 64.129471 
L 176.300915 62.888542 
L 176.320419 61.647612 
L 176.331738 60.406683 
L 176.335687 59.165754 
L 176.332849 57.924825 
L 176.323606 56.683895 
L 176.308198 55.442966 
L 176.2868 54.202037 
L 176.259618 52.961108 
L 176.226976 51.720179 
L 176.189414 50.479249 
L 176.147751 49.23832 
L 176.103128 47.997391 
L 176.057018 46.756462 
L 176.011177 45.515532 
L 175.96757 44.274603 
L 175.928245 43.033674 
L 175.895187 41.792745 
L 175.87016 40.551816 
L 175.85455 39.310886 
L 175.849246 38.069957 
L 176.950754 38.069957 
L 176.950754 38.069957 
L 176.94545 39.310886 
L 176.92984 40.551816 
L 176.904813 41.792745 
L 176.871755 43.033674 
L 176.83243 44.274603 
L 176.788823 45.515532 
L 176.742982 46.756462 
L 176.696872 47.997391 
L 176.652249 49.23832 
L 176.610586 50.479249 
L 176.573024 51.720179 
L 176.540382 52.961108 
L 176.5132 54.202037 
L 176.491802 55.442966 
L 176.476394 56.683895 
L 176.467151 57.924825 
L 176.464313 59.165754 
L 176.468262 60.406683 
L 176.479581 61.647612 
L 176.499085 62.888542 
L 176.52783 64.129471 
L 176.567083 65.3704 
L 176.618272 66.611329 
L 176.682907 67.852258 
L 176.762475 69.093188 
L 176.85833 70.334117 
L 176.971578 71.575046 
L 177.102972 72.815975 
L 177.252823 74.056904 
L 177.420954 75.297834 
L 177.606685 76.538763 
L 177.80887 77.779692 
L 178.025979 79.020621 
L 178.256211 80.261551 
L 178.497644 81.50248 
L 178.748396 82.743409 
L 179.006777 83.984338 
L 179.271436 85.225267 
L 179.541481 86.466197 
L 179.816559 87.707126 
L 180.096922 88.948055 
L 180.383451 90.188984 
L 180.677667 91.429913 
L 180.98172 92.670843 
L 181.298354 93.911772 
L 181.630846 95.152701 
L 181.982919 96.39363 
L 182.358587 97.63456 
L 182.761966 98.875489 
L 183.197013 100.116418 
L 183.66722 101.357347 
L 184.175267 102.598276 
L 184.722677 103.839206 
L 185.309479 105.080135 
L 185.933932 106.321064 
L 186.592327 107.561993 
L 187.278884 108.802923 
L 187.985758 110.043852 
L 188.703158 111.284781 
L 189.419575 112.52571 
L 190.122107 113.766639 
L 190.796889 115.007569 
L 191.42961 116.248498 
L 192.00611 117.489427 
L 192.513046 118.730356 
L 192.938589 119.971285 
L 193.27312 121.212215 
L 193.509867 122.453144 
L 193.64541 123.694073 
L 193.68 124.935002 
L 193.617633 126.175932 
L 193.465827 127.416861 
L 193.23511 128.65779 
L 192.938238 129.898719 
L 192.589201 131.139648 
L 192.202123 132.380578 
L 191.790153 133.621507 
L 191.36448 134.862436 
L 190.93358 136.103365 
L 190.502773 137.344294 
L 190.074136 138.585224 
L 189.646788 139.826153 
L 189.217476 141.067082 
L 188.781401 142.308011 
L 188.333156 143.548941 
L 187.867652 144.78987 
L 187.380926 146.030799 
L 186.870724 147.271728 
L 186.336812 148.512657 
L 185.781003 149.753587 
L 185.206924 150.994516 
L 184.619596 152.235445 
L 184.024917 153.476374 
L 183.429122 154.717304 
L 182.838318 155.958233 
L 182.258143 157.199162 
L 181.693562 158.440091 
L 181.148808 159.68102 
L 180.627426 160.92195 
L 180.627426 160.92195 
z
" clip-path="url(#pbbe450c640)" style="fill: none; stroke: #000000; stroke-opacity: 0.3"/>
   </g>
   <g id="matplotlib.axis_1">
    <g id="xtick_1">
     <g id="line2d_1">
      <defs>
       <path id="m78b28e5951" d="M 0 0 
L 0 3.5 
" style="stroke: #000000; stroke-width: 0.8"/>
      </defs>
      <g>
       <use xlink:href="#m78b28e5951" x="61.2" y="291.6" style="stroke: #000000; stroke-width: 0.8"/>
      </g>
     </g>
     <g id="text_1">
      <text style="font-size: 10px; font-family: 'DejaVu Sans', 'Bitstream Vera Sans', 'Computer Modern Sans Serif', 'Lucida Grande', 'Verdana', 'Geneva', 'Lucid', 'Arial', 'Helvetica', 'Avant Garde', sans-serif; text-anchor: middle" x="61.2" y="306.198438" transform="rotate(-0 61.2 306.198438)">-0.3</text>
     </g>
    </g>
    <g id="xtick_2">
     <g id="line2d_2">
      <g>
       <use xlink:href="#m78b28e5951" x="118.8" y="291.6" style="stroke: #000000; stroke-width: 0.8"/>
      </g>
     </g>
     <g id="text_2">
      <text style="font-size: 10px; font-family: 'DejaVu Sans', 'Bitstream Vera Sans', 'Computer Modern Sans Serif', 'Lucida Grande', 'Verdana', 'Geneva', 'Lucid', 'Arial', 'Helvetica', 'Avant Garde', sans-serif; text-anchor: middle" x="118.8" y="306.198438" transform="rotate(-0 118.8 306.198438)">0</text>
     </g>
    </g>
    <g id="xtick_3">
     <g id="line2d_3">
      <g>
       <use xlink:href="#m78b28e5951" x="176.4" y="291.6" style="stroke: #000000; stroke-width: 0.8"/>
      </g>
     </g>
     <g id="text_3">
      <text style="font-size: 10px; font-family: 'DejaVu Sans', 'Bitstream Vera Sans', 'Computer Modern Sans Serif', 'Lucida Grande', 'Verdana', 'Geneva', 'Lucid', 'Arial', 'Helvetica', 'Avant Garde', sans-serif; text-anchor: middle" x="176.4" y="306.198438" transform="rotate(-0 176.4 306.198438)">+0.3</text>
     </g>
    </g>
   </g>
   <g id="matplotlib.axis_2">
    <g id="ytick_1">
     <g id="line2d_4">
      <defs>
       <path id="mcf492cfa73" d="M 0 0 
L -3.5 0 
" style="stroke: #000000; stroke-width: 0.8"/>
      </defs>
      <g>
       <use xlink:href="#mcf492cfa73" x="32.4" y="291.6" style="stroke: #000000; stroke-width: 0.8"/>
      </g>
     </g>
     <g id="text_4">
      <text style="font-size: 10px; font-family: 'DejaVu Sans', 'Bitstream Vera Sans', 'Computer Modern Sans Serif', 'Lucida Grande', 'Verdana', 'Geneva', 'Lucid', 'Arial', 'Helvetica', 'Avant Garde', sans-serif; text-anchor: end" x="25.4" y="295.399219" transform="rotate(-0 25.4 295.399219)">0.1</text>
     </g>
    </g>
    <g id="ytick_2">
     <g id="line2d_5">
      <g>
       <use xlink:href="#mcf492cfa73" x="32.4" y="199.8" style="stroke: #000000; stroke-width: 0.8"/>
      </g>
     </g>
     <g id="text_5">
      <text style="font-size: 10px; font-family: 'DejaVu Sans', 'Bitstream Vera Sans', 'Computer Modern Sans Serif', 'Lucida Grande', 'Verdana', 'Geneva', 'Lucid', 'Arial', 'Helvetica', 'Avant Garde', sans-serif; text-anchor: end" x="25.4" y="203.599219" transform="rotate(-0 25.4 203.599219)">0.2</text>
     </g>
    </g>
    <g id="ytick_3">
     <g id="line2d_6">
      <g>
       <use xlink:href="#mcf492cfa73" x="32.4" y="108" style="stroke: #000000; stroke-width: 0.8"/>
      </g>
     </g>
     <g id="text_6">
      <text style="font-size: 10px; font-family: 'DejaVu Sans', 'Bitstream Vera Sans', 'Computer Modern Sans Serif', 'Lucida Grande', 'Verdana', 'Geneva', 'Lucid', 'Arial', 'Helvetica', 'Avant Garde', sans-serif; text-anchor: end" x="25.4" y="111.799219" transform="rotate(-0 25.4 111.799219)">0.3</text>
     </g>
    </g>
    <g id="ytick_4">
     <g id="line2d_7">
      <g>
       <use xlink:href="#mcf492cfa73" x="32.4" y="16.2" style="stroke: #000000; stroke-width: 0.8"/>
      </g>
     </g>
     <g id="text_7">
      <text style="font-size: 10px; font-family: 'DejaVu Sans', 'Bitstream Vera Sans', 'Computer Modern Sans Serif', 'Lucida Grande', 'Verdana', 'Geneva', 'Lucid', 'Arial', 'Helvetica', 'Avant Garde', sans-serif; text-anchor: end" x="25.4" y="19.999219" transform="rotate(-0 25.4 19.999219)">0.4</text>
     </g>
    </g>
    <g id="text_8">
     <!-- $E_{f}$ -->
     <g transform="translate(26.032438 160.27) rotate(-90)">
      <text>
       <tspan x="0" y="-0.796875" style="font-style: oblique; font-size: 14px; font-family: 'DejaVu Sans'">E</tspan>
       <tspan x="8.845703" y="1.5" style="font-style: oblique; font-size: 9.8px; font-family: 'DejaVu Sans'">f</tspan>
      </text>
     </g>
    </g>
   </g>
   <g id="line2d_8">
    <path d="M 61.2 269.568 
L 61.2 264.06 
" clip-path="url(#pbbe450c640)" style="fill: none; stroke: #000000; stroke-linecap: square"/>
   </g>
   <g id="line2d_9">
    <path d="M 61.2 269.568 
L 118.8 269.568 
" clip-path="url(#pbbe450c640)" style="fill: none; stroke: #000000; stroke-linecap: square"/>
   </g>
   <g id="line2d_10">
    <path d="M 118.8 269.568 
L 118.8 264.06 
" clip-path="url(#pbbe450c640)" style="fill: none; stroke: #000000; stroke-linecap: square"/>
   </g>
   <g id="line2d_11">
    <path d="M 61.2 255.798 
L 61.2 250.29 
" clip-path="url(#pbbe450c640)" style="fill: none; stroke: #000000; stroke-linecap: square"/>
   </g>
   <g id="line2d_12">
    <path d="M 61.2 255.798 
L 176.4 255.798 
" clip-path="url(#pbbe450c640)" style="fill: none; stroke: #000000; stroke-linecap: square"/>
   </g>
   <g id="line2d_13">
    <path d="M 176.4 255.798 
L 176.4 250.29 
" clip-path="url(#pbbe450c640)" style="fill: none; stroke: #000000; stroke-linecap: square"/>
   </g>
   <g id="line2d_14">
    <path d="M 118.8 242.028 
L 118.8 236.52 
" clip-path="url(#pbbe450c640)" style="fill: none; stroke: #000000; stroke-linecap: square"/>
   </g>
   <g id="line2d_15">
    <path d="M 118.8 242.028 
L 176.4 242.028 
" clip-path="url(#pbbe450c640)" style="fill: none; stroke: #000000; stroke-linecap: square"/>
   </g>
   <g id="line2d_16">
    <path d="M 176.4 242.028 
L 176.4 236.52 
" clip-path="url(#pbbe450c640)" style="fill: none; stroke: #000000; stroke-linecap: square"/>
   </g>
   <g id="patch_3">
    <path d="M 32.4 291.6 
L 32.4 16.2 
" style="fill: none; stroke: #000000; stroke-width: 0.8; stroke-linejoin: miter; stroke-linecap: square"/>
   </g>
   <g id="patch_4">
    <path d="M 205.2 291.6 
L 205.2 16.2 
" style="fill: none; stroke: #000000; stroke-width: 0.8; stroke-linejoin: miter; stroke-linecap: square"/>
   </g>
   <g id="patch_5">
    <path d="M 32.4 291.6 
L 205.2 291.6 
" style="fill: none; stroke: #000000; stroke-width: 0.8; stroke-linejoin: miter; stroke-linecap: square"/>
   </g>
   <g id="patch_6">
    <path d="M 32.4 16.2 
L 205.2 16.2 
" style="fill: none; stroke: #000000; stroke-width: 0.8; stroke-linejoin: miter; stroke-linecap: square"/>
   </g>
   <g id="text_9">
    <text style="font-weight: 700; font-size: 12px; font-family: 'DejaVu Sans', 'Bitstream Vera Sans', 'Computer Modern Sans Serif', 'Lucida Grande', 'Verdana', 'Geneva', 'Lucid', 'Arial', 'Helvetica', 'Avant Garde', sans-serif; text-anchor: middle" x="61.2" y="289.104375" transform="rotate(-0 61.2 289.104375)">#6</text>
   </g>
   <g id="text_10">
    <text style="font-weight: 700; font-size: 12px; font-family: 'DejaVu Sans', 'Bitstream Vera Sans', 'Computer Modern Sans Serif', 'Lucida Grande', 'Verdana', 'Geneva', 'Lucid', 'Arial', 'Helvetica', 'Avant Garde', sans-serif; text-anchor: middle" x="118.8" y="289.104375" transform="rotate(-0 118.8 289.104375)">#8</text>
   </g>
   <g id="text_11">
    <text style="font-weight: 700; font-size: 12px; font-family: 'DejaVu Sans', 'Bitstream Vera Sans', 'Computer Modern Sans Serif', 'Lucida Grande', 'Verdana', 'Geneva', 'Lucid', 'Arial', 'Helvetica', 'Avant Garde', sans-serif; text-anchor: middle" x="176.4" y="289.104375" transform="rotate(-0 176.4 289.104375)">#10</text>
   </g>
   <g id="text_12">
    <text style="font-size: 12px; font-family: 'DejaVu Sans', 'Bitstream Vera Sans', 'Computer Modern Sans Serif', 'Lucida Grande', 'Verdana', 'Geneva', 'Lucid', 'Arial', 'Helvetica', 'Avant Garde', sans-serif; text-anchor: middle" x="90" y="268.449375" transform="rotate(-0 90 268.449375)">****</text>
   </g>
   <g id="text_13">
    <text style="font-size: 12px; font-family: 'DejaVu Sans', 'Bitstream Vera Sans', 'Computer Modern Sans Serif', 'Lucida Grande', 'Verdana', 'Geneva', 'Lucid', 'Arial', 'Helvetica', 'Avant Garde', sans-serif; text-anchor: middle" x="118.8" y="254.679375" transform="rotate(-0 118.8 254.679375)">****</text>
   </g>
   <g id="text_14">
    <text style="font-size: 12px; font-family: 'DejaVu Sans', 'Bitstream Vera Sans', 'Computer Modern Sans Serif', 'Lucida Grande', 'Verdana', 'Geneva', 'Lucid', 'Arial', 'Helvetica', 'Avant Garde', sans-serif; text-anchor: middle" x="147.6" y="240.909375" transform="rotate(-0 147.6 240.909375)">ns</text>
   </g>
   <g id="line2d_17">
    <path d="M 32.4 156.394406 
L 205.2 156.394406 
" clip-path="url(#pbbe450c640)" style="fill: none; stroke-dasharray: 3.7,1.6; stroke-dashoffset: 0; stroke: #808080; stroke-opacity: 0.7"/>
   </g>
   <g id="line2d_18">
    <path d="M 32.4 129.76437 
L 205.2 129.76437 
" clip-path="url(#pbbe450c640)" style="fill: none; stroke-dasharray: 3.7,1.6; stroke-dashoffset: 0; stroke: #808080; stroke-opacity: 0.7"/>
   </g>
   <g id="line2d_19">
    <path d="M 32.4 123.792773 
L 205.2 123.792773 
" clip-path="url(#pbbe450c640)" style="fill: none; stroke-dasharray: 3.7,1.6; stroke-dashoffset: 0; stroke: #808080; stroke-opacity: 0.7"/>
   </g>
   <g id="LineCollection_1">
    <path d="M 61.2 158.639609 
L 61.2 154.149203 
" clip-path="url(#pbbe450c640)" style="fill: none; stroke: #000000; stroke-width: 2"/>
   </g>
   <g id="line2d_20">
    <defs>
     <path id="mdc45299e55" d="M 5 0 
L -5 -0 
" style="stroke: #000000; stroke-width: 2"/>
    </defs>
    <g clip-path="url(#pbbe450c640)">
     <use xlink:href="#mdc45299e55" x="61.2" y="158.639609" style="stroke: #000000; stroke-width: 2"/>
    </g>
   </g>
   <g id="line2d_21">
    <g clip-path="url(#pbbe450c640)">
     <use xlink:href="#mdc45299e55" x="61.2" y="154.149203" style="stroke: #000000; stroke-width: 2"/>
    </g>
   </g>
   <g id="LineCollection_2">
    <path d="M 118.8 135.153853 
L 118.8 124.374887 
" clip-path="url(#pbbe450c640)" style="fill: none; stroke: #000000; stroke-width: 2"/>
   </g>
   <g id="line2d_22">
    <g clip-path="url(#pbbe450c640)">
     <use xlink:href="#mdc45299e55" x="118.8" y="135.153853" style="stroke: #000000; stroke-width: 2"/>
    </g>
   </g>
   <g id="line2d_23">
    <g clip-path="url(#pbbe450c640)">
     <use xlink:href="#mdc45299e55" x="118.8" y="124.374887" style="stroke: #000000; stroke-width: 2"/>
    </g>
   </g>
   <g id="LineCollection_3">
    <path d="M 176.4 126.095257 
L 176.4 121.49029 
" clip-path="url(#pbbe450c640)" style="fill: none; stroke: #000000; stroke-width: 2"/>
   </g>
   <g id="line2d_24">
    <g clip-path="url(#pbbe450c640)">
     <use xlink:href="#mdc45299e55" x="176.4" y="126.095257" style="stroke: #000000; stroke-width: 2"/>
    </g>
   </g>
   <g id="line2d_25">
    <g clip-path="url(#pbbe450c640)">
     <use xlink:href="#mdc45299e55" x="176.4" y="121.49029" style="stroke: #000000; stroke-width: 2"/>
    </g>
   </g>
   <g id="line2d_26">
    <defs>
     <path id="ma8c27ac05b" d="M 0 4 
C 1.060812 4 2.078319 3.578535 2.828427 2.828427 
C 3.578535 2.078319 4 1.060812 4 0 
C 4 -1.060812 3.578535 -2.078319 2.828427 -2.828427 
C 2.078319 -3.578535 1.060812 -4 0 -4 
C -1.060812 -4 -2.078319 -3.578535 -2.828427 -2.828427 
C -3.578535 -2.078319 -4 -1.060812 -4 0 
C -4 1.060812 -3.578535 2.078319 -2.828427 2.828427 
C -2.078319 3.578535 -1.060812 4 0 4 
z
" style="stroke: #000000"/>
    </defs>
    <g clip-path="url(#pbbe450c640)">
     <use xlink:href="#ma8c27ac05b" x="61.2" y="156.394406" style="stroke: #000000"/>
    </g>
   </g>
   <g id="line2d_27">
    <g clip-path="url(#pbbe450c640)">
     <use xlink:href="#ma8c27ac05b" x="118.8" y="129.76437" style="stroke: #000000"/>
    </g>
   </g>
   <g id="line2d_28">
    <g clip-path="url(#pbbe450c640)">
     <use xlink:href="#ma8c27ac05b" x="176.4" y="123.792773" style="stroke: #000000"/>
    </g>
   </g>
  </g>
 </g>
 <defs>
  <clipPath id="pbbe450c640">
   <rect x="32.4" y="16.2" width="172.8" height="275.4"/>
  </clipPath>
 </defs>
</svg>
