<?xml version="1.0" encoding="utf-8" standalone="no"?>
<!DOCTYPE svg PUBLIC "-//W3C//DTD SVG 1.1//EN"
  "http://www.w3.org/Graphics/SVG/1.1/DTD/svg11.dtd">
<svg xmlns:xlink="http://www.w3.org/1999/xlink" width="144pt" height="324pt" viewBox="0 0 144 324" xmlns="http://www.w3.org/2000/svg" version="1.1">
 <metadata>
  <rdf:RDF xmlns:dc="http://purl.org/dc/elements/1.1/" xmlns:cc="http://creativecommons.org/ns#" xmlns:rdf="http://www.w3.org/1999/02/22-rdf-syntax-ns#">
   <cc:Work>
    <dc:type rdf:resource="http://purl.org/dc/dcmitype/StillImage"/>
    <dc:date>2025-12-11T09:10:02.207306</dc:date>
    <dc:format>image/svg+xml</dc:format>
    <dc:creator>
     <cc:Agent>
      <dc:title>Matplotlib v3.10.0, https://matplotlib.org/</dc:title>
     </cc:Agent>
    </dc:creator>
   </cc:Work>
  </rdf:RDF>
 </metadata>
 <defs>
  <style type="text/css">*{stroke-linejoin: round; stroke-linecap: butt}</style>
 </defs>
 <g id="figure_1">
  <g id="patch_1">
   <path d="M 0 324 
L 144 324 
L 144 0 
L 0 0 
z
" style="fill: #ffffff"/>
  </g>
  <g id="axes_1">
   <g id="patch_2">
    <path d="M 21.6 291.6 
L 136.8 291.6 
L 136.8 16.2 
L 21.6 16.2 
z
" style="fill: #ffffff"/>
   </g>
   <g id="FillBetweenPolyCollection_1">
    <path d="M 51.507365 178.049598 
L 49.292635 178.049598 
L 49.175165 177.002478 
L 49.055981 175.955358 
L 48.936069 174.908238 
L 48.816222 173.861117 
L 48.696948 172.813997 
L 48.578404 171.766877 
L 48.460336 170.719757 
L 48.342079 169.672636 
L 48.222597 168.625516 
L 48.100567 167.578396 
L 47.97452 166.531275 
L 47.842989 165.484155 
L 47.704672 164.437035 
L 47.558552 163.389915 
L 47.403968 162.342794 
L 47.240606 161.295674 
L 47.068402 160.248554 
L 46.887376 159.201434 
L 46.697416 158.154313 
L 46.498048 157.107193 
L 46.288244 156.060073 
L 46.06631 155.012953 
L 45.829882 153.965832 
L 45.576048 152.918712 
L 45.301585 151.871592 
L 45.003297 150.824472 
L 44.678383 149.777351 
L 44.324809 148.730231 
L 43.941611 147.683111 
L 43.52909 146.635991 
L 43.088879 145.58887 
L 42.623871 144.54175 
L 42.138029 143.49463 
L 41.636114 142.44751 
L 41.123369 141.400389 
L 40.605218 140.353269 
L 40.087005 139.306149 
L 39.573801 138.259029 
L 39.070287 137.211908 
L 38.580697 136.164788 
L 38.108799 135.117668 
L 37.657878 134.070548 
L 37.230698 133.023427 
L 36.829419 131.976307 
L 36.455471 130.929187 
L 36.109407 129.882067 
L 35.790757 128.834946 
L 35.49795 127.787826 
L 35.228336 126.740706 
L 34.978364 125.693586 
L 34.743928 124.646465 
L 34.520888 123.599345 
L 34.30572 122.552225 
L 34.096238 121.505104 
L 33.892286 120.457984 
L 33.696311 119.410864 
L 33.513703 118.363744 
L 33.352833 117.316623 
L 33.224738 116.269503 
L 33.142447 115.222383 
L 33.12 114.175263 
L 33.171254 113.128142 
L 33.308594 112.081022 
L 33.541698 111.033902 
L 33.876511 109.986782 
L 34.314534 108.939661 
L 34.852519 107.892541 
L 35.482607 106.845421 
L 36.192878 105.798301 
L 36.968245 104.75118 
L 37.791577 103.70406 
L 38.644909 102.65694 
L 39.51062 101.60982 
L 40.372439 100.562699 
L 41.216201 99.515579 
L 42.030311 98.468459 
L 42.805899 97.421339 
L 43.536723 96.374218 
L 44.218862 95.327098 
L 44.85029 94.279978 
L 45.43042 93.232858 
L 45.959665 92.185737 
L 46.439089 91.138617 
L 46.870166 90.091497 
L 47.25465 89.044377 
L 47.594543 87.997256 
L 47.892132 86.950136 
L 48.150053 85.903016 
L 48.371361 84.855896 
L 48.559556 83.808775 
L 48.71856 82.761655 
L 48.852643 81.714535 
L 48.966272 80.667415 
L 49.063938 79.620294 
L 49.149946 78.573174 
L 49.228215 77.526054 
L 49.302095 76.478933 
L 49.374233 75.431813 
L 49.446498 74.384693 
L 51.353502 74.384693 
L 51.353502 74.384693 
L 51.425767 75.431813 
L 51.497905 76.478933 
L 51.571785 77.526054 
L 51.650054 78.573174 
L 51.736062 79.620294 
L 51.833728 80.667415 
L 51.947357 81.714535 
L 52.08144 82.761655 
L 52.240444 83.808775 
L 52.428639 84.855896 
L 52.649947 85.903016 
L 52.907868 86.950136 
L 53.205457 87.997256 
L 53.54535 89.044377 
L 53.929834 90.091497 
L 54.360911 91.138617 
L 54.840335 92.185737 
L 55.36958 93.232858 
L 55.94971 94.279978 
L 56.581138 95.327098 
L 57.263277 96.374218 
L 57.994101 97.421339 
L 58.769689 98.468459 
L 59.583799 99.515579 
L 60.427561 100.562699 
L 61.28938 101.60982 
L 62.155091 102.65694 
L 63.008423 103.70406 
L 63.831755 104.75118 
L 64.607122 105.798301 
L 65.317393 106.845421 
L 65.947481 107.892541 
L 66.485466 108.939661 
L 66.923489 109.986782 
L 67.258302 111.033902 
L 67.491406 112.081022 
L 67.628746 113.128142 
L 67.68 114.175263 
L 67.657553 115.222383 
L 67.575262 116.269503 
L 67.447167 117.316623 
L 67.286297 118.363744 
L 67.103689 119.410864 
L 66.907714 120.457984 
L 66.703762 121.505104 
L 66.49428 122.552225 
L 66.279112 123.599345 
L 66.056072 124.646465 
L 65.821636 125.693586 
L 65.571664 126.740706 
L 65.30205 127.787826 
L 65.009243 128.834946 
L 64.690593 129.882067 
L 64.344529 130.929187 
L 63.970581 131.976307 
L 63.569302 133.023427 
L 63.142122 134.070548 
L 62.691201 135.117668 
L 62.219303 136.164788 
L 61.729713 137.211908 
L 61.226199 138.259029 
L 60.712995 139.306149 
L 60.194782 140.353269 
L 59.676631 141.400389 
L 59.163886 142.44751 
L 58.661971 143.49463 
L 58.176129 144.54175 
L 57.711121 145.58887 
L 57.27091 146.635991 
L 56.858389 147.683111 
L 56.475191 148.730231 
L 56.121617 149.777351 
L 55.796703 150.824472 
L 55.498415 151.871592 
L 55.223952 152.918712 
L 54.970118 153.965832 
L 54.73369 155.012953 
L 54.511756 156.060073 
L 54.301952 157.107193 
L 54.102584 158.154313 
L 53.912624 159.201434 
L 53.731598 160.248554 
L 53.559394 161.295674 
L 53.396032 162.342794 
L 53.241448 163.389915 
L 53.095328 164.437035 
L 52.957011 165.484155 
L 52.82548 166.531275 
L 52.699433 167.578396 
L 52.577403 168.625516 
L 52.457921 169.672636 
L 52.339664 170.719757 
L 52.221596 171.766877 
L 52.103052 172.813997 
L 51.983778 173.861117 
L 51.863931 174.908238 
L 51.744019 175.955358 
L 51.624835 177.002478 
L 51.507365 178.049598 
L 51.507365 178.049598 
z
" clip-path="url(#pf52681aa46)" style="fill: none; stroke: #000000; stroke-opacity: 0.3"/>
   </g>
   <g id="FillBetweenPolyCollection_2">
    <path d="M 50.741796 215.777143 
L 50.058204 215.777143 
L 50.06406 214.319532 
L 50.08103 212.861922 
L 50.107431 211.404312 
L 50.140763 209.946701 
L 50.178099 208.489091 
L 50.21651 207.03148 
L 50.253425 205.57387 
L 50.286889 204.116259 
L 50.315674 202.658649 
L 50.339258 201.201038 
L 50.357708 199.743428 
L 50.371499 198.285818 
L 50.381325 196.828207 
L 50.387928 195.370597 
L 50.391955 193.912986 
L 50.393855 192.455376 
L 50.393795 190.997765 
L 50.391587 189.540155 
L 50.386615 188.082544 
L 50.377755 186.624934 
L 50.3633 185.167323 
L 50.340909 183.709713 
L 50.307607 182.252103 
L 50.259883 180.794492 
L 50.193895 179.336882 
L 50.105811 177.879271 
L 49.99225 176.421661 
L 49.850772 174.96405 
L 49.680316 173.50644 
L 49.48149 172.048829 
L 49.256608 170.591219 
L 49.009423 169.133609 
L 48.74457 167.675998 
L 48.466799 166.218388 
L 48.180144 164.760777 
L 47.887196 163.303167 
L 47.588626 161.845556 
L 47.283058 160.387946 
L 46.967307 158.930335 
L 46.636924 157.472725 
L 46.286922 156.015114 
L 45.912522 154.557504 
L 45.509763 153.099894 
L 45.075819 151.642283 
L 44.608954 150.184673 
L 44.108119 148.727062 
L 43.572275 147.269452 
L 42.999679 145.811841 
L 42.387387 144.354231 
L 41.7313 142.89662 
L 41.026951 141.43901 
L 40.271079 139.9814 
L 39.463819 138.523789 
L 38.611064 137.066179 
L 37.726433 135.608568 
L 36.832224 134.150958 
L 35.958882 132.693347 
L 35.142826 131.235737 
L 34.422845 129.778126 
L 33.835653 128.320516 
L 33.411425 126.862905 
L 33.170226 125.405295 
L 33.12 123.947685 
L 33.256498 122.490074 
L 33.565019 121.032464 
L 34.023472 119.574853 
L 34.60599 118.117243 
L 35.286299 116.659632 
L 36.040205 115.202022 
L 36.846872 113.744411 
L 37.688902 112.286801 
L 38.551542 110.829191 
L 39.421472 109.37158 
L 40.285663 107.91397 
L 41.130687 106.456359 
L 41.942689 104.998749 
L 42.708027 103.541138 
L 43.414424 102.083528 
L 44.052365 100.625917 
L 44.616405 99.168307 
L 45.106077 97.710696 
L 45.526152 96.253086 
L 45.886117 94.795476 
L 46.198927 93.337865 
L 46.479195 91.880255 
L 46.741144 90.422644 
L 46.996706 88.965034 
L 47.254096 87.507423 
L 47.517125 86.049813 
L 47.785329 84.592202 
L 48.054815 83.134592 
L 48.319596 81.676982 
L 48.573088 80.219371 
L 48.809466 78.761761 
L 49.024615 77.30415 
L 49.216578 75.84654 
L 49.385483 74.388929 
L 49.533085 72.931319 
L 49.662083 71.473708 
L 51.137917 71.473708 
L 51.137917 71.473708 
L 51.266915 72.931319 
L 51.414517 74.388929 
L 51.583422 75.84654 
L 51.775385 77.30415 
L 51.990534 78.761761 
L 52.226912 80.219371 
L 52.480404 81.676982 
L 52.745185 83.134592 
L 53.014671 84.592202 
L 53.282875 86.049813 
L 53.545904 87.507423 
L 53.803294 88.965034 
L 54.058856 90.422644 
L 54.320805 91.880255 
L 54.601073 93.337865 
L 54.913883 94.795476 
L 55.273848 96.253086 
L 55.693923 97.710696 
L 56.183595 99.168307 
L 56.747635 100.625917 
L 57.385576 102.083528 
L 58.091973 103.541138 
L 58.857311 104.998749 
L 59.669313 106.456359 
L 60.514337 107.91397 
L 61.378528 109.37158 
L 62.248458 110.829191 
L 63.111098 112.286801 
L 63.953128 113.744411 
L 64.759795 115.202022 
L 65.513701 116.659632 
L 66.19401 118.117243 
L 66.776528 119.574853 
L 67.234981 121.032464 
L 67.543502 122.490074 
L 67.68 123.947685 
L 67.629774 125.405295 
L 67.388575 126.862905 
L 66.964347 128.320516 
L 66.377155 129.778126 
L 65.657174 131.235737 
L 64.841118 132.693347 
L 63.967776 134.150958 
L 63.073567 135.608568 
L 62.188936 137.066179 
L 61.336181 138.523789 
L 60.528921 139.9814 
L 59.773049 141.43901 
L 59.0687 142.89662 
L 58.412613 144.354231 
L 57.800321 145.811841 
L 57.227725 147.269452 
L 56.691881 148.727062 
L 56.191046 150.184673 
L 55.724181 151.642283 
L 55.290237 153.099894 
L 54.887478 154.557504 
L 54.513078 156.015114 
L 54.163076 157.472725 
L 53.832693 158.930335 
L 53.516942 160.387946 
L 53.211374 161.845556 
L 52.912804 163.303167 
L 52.619856 164.760777 
L 52.333201 166.218388 
L 52.05543 167.675998 
L 51.790577 169.133609 
L 51.543392 170.591219 
L 51.31851 172.048829 
L 51.119684 173.50644 
L 50.949228 174.96405 
L 50.80775 176.421661 
L 50.694189 177.879271 
L 50.606105 179.336882 
L 50.540117 180.794492 
L 50.492393 182.252103 
L 50.459091 183.709713 
L 50.4367 185.167323 
L 50.422245 186.624934 
L 50.413385 188.082544 
L 50.408413 189.540155 
L 50.406205 190.997765 
L 50.406145 192.455376 
L 50.408045 193.912986 
L 50.412072 195.370597 
L 50.418675 196.828207 
L 50.428501 198.285818 
L 50.442292 199.743428 
L 50.460742 201.201038 
L 50.484326 202.658649 
L 50.513111 204.116259 
L 50.546575 205.57387 
L 50.58349 207.03148 
L 50.621901 208.489091 
L 50.659237 209.946701 
L 50.692569 211.404312 
L 50.71897 212.861922 
L 50.73594 214.319532 
L 50.741796 215.777143 
L 50.741796 215.777143 
z
" clip-path="url(#pf52681aa46)" style="fill: none; stroke: #000000; stroke-opacity: 0.3"/>
   </g>
   <g id="FillBetweenPolyCollection_3">
    <path d="M 50.71871 197.650543 
L 50.08129 197.650543 
L 50.07773 196.127146 
L 50.079873 194.603749 
L 50.084648 193.080353 
L 50.088099 191.556956 
L 50.085935 190.033559 
L 50.07414 188.510162 
L 50.049575 186.986765 
L 50.010418 185.463368 
L 49.956389 183.939971 
L 49.888685 182.416575 
L 49.809621 180.893178 
L 49.722031 179.369781 
L 49.62851 177.846384 
L 49.530645 176.322987 
L 49.428371 174.79959 
L 49.319598 173.276193 
L 49.200177 171.752796 
L 49.064239 170.2294 
L 48.904798 168.706003 
L 48.714486 167.182606 
L 48.486232 165.659209 
L 48.21372 164.135812 
L 47.89154 162.612415 
L 47.515073 161.089018 
L 47.080257 159.565622 
L 46.583439 158.042225 
L 46.021525 156.518828 
L 45.39254 154.995431 
L 44.696534 153.472034 
L 43.936657 151.948637 
L 43.120068 150.42524 
L 42.258394 148.901844 
L 41.367523 147.378447 
L 40.466688 145.85505 
L 39.577003 144.331653 
L 38.719685 142.808256 
L 37.914277 141.284859 
L 37.177063 139.761462 
L 36.519843 138.238065 
L 35.949084 136.714669 
L 35.465472 135.191272 
L 35.06392 133.667875 
L 34.734108 132.144478 
L 34.461694 130.621081 
L 34.230242 129.097684 
L 34.023783 127.574287 
L 33.829742 126.050891 
L 33.641735 124.527494 
L 33.461676 123.004097 
L 33.300653 121.4807 
L 33.178208 119.957303 
L 33.12 118.433906 
L 33.154147 116.910509 
L 33.306885 115.387113 
L 33.598355 113.863716 
L 34.039303 112.340319 
L 34.629315 110.816922 
L 35.356809 109.293525 
L 36.200665 107.770128 
L 37.132983 106.246731 
L 38.122329 104.723335 
L 39.136799 103.199938 
L 40.146483 101.676541 
L 41.125143 100.153144 
L 42.051205 98.629747 
L 42.90831 97.10635 
L 43.685632 95.582953 
L 44.378066 94.059556 
L 44.986207 92.53616 
L 45.515941 91.012763 
L 45.977486 89.489366 
L 46.383851 87.965969 
L 46.748874 86.442572 
L 47.085187 84.919175 
L 47.40251 83.395778 
L 47.706634 81.872382 
L 47.999263 80.348985 
L 48.278685 78.825588 
L 48.541001 77.302191 
L 48.781589 75.778794 
L 48.996409 74.255397 
L 49.182912 72.732 
L 49.340409 71.208604 
L 49.469941 69.685207 
L 49.573794 68.16181 
L 49.654853 66.638413 
L 49.71601 65.115016 
L 49.759784 63.591619 
L 49.788217 62.068222 
L 49.803044 60.544825 
L 49.806054 59.021429 
L 49.799493 57.498032 
L 49.786359 55.974635 
L 49.770467 54.451238 
L 49.756234 52.927841 
L 49.748197 51.404444 
L 49.750385 49.881047 
L 49.765686 48.357651 
L 49.795379 46.834254 
L 51.004621 46.834254 
L 51.004621 46.834254 
L 51.034314 48.357651 
L 51.049615 49.881047 
L 51.051803 51.404444 
L 51.043766 52.927841 
L 51.029533 54.451238 
L 51.013641 55.974635 
L 51.000507 57.498032 
L 50.993946 59.021429 
L 50.996956 60.544825 
L 51.011783 62.068222 
L 51.040216 63.591619 
L 51.08399 65.115016 
L 51.145147 66.638413 
L 51.226206 68.16181 
L 51.330059 69.685207 
L 51.459591 71.208604 
L 51.617088 72.732 
L 51.803591 74.255397 
L 52.018411 75.778794 
L 52.258999 77.302191 
L 52.521315 78.825588 
L 52.800737 80.348985 
L 53.093366 81.872382 
L 53.39749 83.395778 
L 53.714813 84.919175 
L 54.051126 86.442572 
L 54.416149 87.965969 
L 54.822514 89.489366 
L 55.284059 91.012763 
L 55.813793 92.53616 
L 56.421934 94.059556 
L 57.114368 95.582953 
L 57.89169 97.10635 
L 58.748795 98.629747 
L 59.674857 100.153144 
L 60.653517 101.676541 
L 61.663201 103.199938 
L 62.677671 104.723335 
L 63.667017 106.246731 
L 64.599335 107.770128 
L 65.443191 109.293525 
L 66.170685 110.816922 
L 66.760697 112.340319 
L 67.201645 113.863716 
L 67.493115 115.387113 
L 67.645853 116.910509 
L 67.68 118.433906 
L 67.621792 119.957303 
L 67.499347 121.4807 
L 67.338324 123.004097 
L 67.158265 124.527494 
L 66.970258 126.050891 
L 66.776217 127.574287 
L 66.569758 129.097684 
L 66.338306 130.621081 
L 66.065892 132.144478 
L 65.73608 133.667875 
L 65.334528 135.191272 
L 64.850916 136.714669 
L 64.280157 138.238065 
L 63.622937 139.761462 
L 62.885723 141.284859 
L 62.080315 142.808256 
L 61.222997 144.331653 
L 60.333312 145.85505 
L 59.432477 147.378447 
L 58.541606 148.901844 
L 57.679932 150.42524 
L 56.863343 151.948637 
L 56.103466 153.472034 
L 55.40746 154.995431 
L 54.778475 156.518828 
L 54.216561 158.042225 
L 53.719743 159.565622 
L 53.284927 161.089018 
L 52.90846 162.612415 
L 52.58628 164.135812 
L 52.313768 165.659209 
L 52.085514 167.182606 
L 51.895202 168.706003 
L 51.735761 170.2294 
L 51.599823 171.752796 
L 51.480402 173.276193 
L 51.371629 174.79959 
L 51.269355 176.322987 
L 51.17149 177.846384 
L 51.077969 179.369781 
L 50.990379 180.893178 
L 50.911315 182.416575 
L 50.843611 183.939971 
L 50.789582 185.463368 
L 50.750425 186.986765 
L 50.72586 188.510162 
L 50.714065 190.033559 
L 50.711901 191.556956 
L 50.715352 193.080353 
L 50.720127 194.603749 
L 50.72227 196.127146 
L 50.71871 197.650543 
L 50.71871 197.650543 
z
" clip-path="url(#pf52681aa46)" style="fill: none; stroke: #000000; stroke-opacity: 0.3"/>
   </g>
   <g id="FillBetweenPolyCollection_4">
    <path d="M 51.18251 165.312278 
L 49.61749 165.312278 
L 49.485033 164.324255 
L 49.332562 163.336231 
L 49.157044 162.348208 
L 48.956005 161.360185 
L 48.728045 160.372161 
L 48.473282 159.384138 
L 48.193611 158.396115 
L 47.892688 157.408091 
L 47.575583 156.420068 
L 47.248114 155.432045 
L 46.915929 154.444021 
L 46.583461 153.455998 
L 46.252944 152.467974 
L 45.923638 151.479951 
L 45.591451 150.491928 
L 45.249049 149.503904 
L 44.886495 148.515881 
L 44.492379 147.527858 
L 44.055333 146.539834 
L 43.565731 145.551811 
L 43.01738 144.563788 
L 42.40896 143.575764 
L 41.744993 142.587741 
L 41.036174 141.599718 
L 40.298955 140.611694 
L 39.554373 139.623671 
L 38.826215 138.635648 
L 38.138726 137.647624 
L 37.51413 136.659601 
L 36.970307 135.671578 
L 36.518942 134.683554 
L 36.164417 133.695531 
L 35.903584 132.707508 
L 35.726441 131.719484 
L 35.617561 130.731461 
L 35.558036 129.743438 
L 35.527604 128.755414 
L 35.506655 127.767391 
L 35.477867 126.779368 
L 35.427317 125.791344 
L 35.345053 124.803321 
L 35.225219 123.815298 
L 35.065874 122.827274 
L 34.868691 121.839251 
L 34.63867 120.851228 
L 34.383922 119.863204 
L 34.115512 118.875181 
L 33.847279 117.887158 
L 33.595489 116.899134 
L 33.37823 115.911111 
L 33.214468 114.923088 
L 33.122802 113.935064 
L 33.12 112.947041 
L 33.219513 111.959018 
L 33.430175 110.970994 
L 33.755283 109.982971 
L 34.192218 108.994948 
L 34.732668 108.006924 
L 35.36342 107.018901 
L 36.067599 106.030877 
L 36.826163 105.042854 
L 37.619461 104.054831 
L 38.42862 103.066807 
L 39.236655 102.078784 
L 40.029181 101.090761 
L 40.794746 100.102737 
L 41.524809 99.114714 
L 42.213477 98.126691 
L 42.857084 97.138667 
L 43.453731 96.150644 
L 44.002838 95.162621 
L 44.504788 94.174597 
L 44.960663 93.186574 
L 45.372087 92.198551 
L 45.741146 91.210527 
L 46.070381 90.222504 
L 46.362787 89.234481 
L 46.621821 88.246457 
L 46.85136 87.258434 
L 47.05561 86.270411 
L 47.238964 85.282387 
L 47.405807 84.294364 
L 47.560318 83.306341 
L 47.706273 82.318317 
L 47.8469 81.330294 
L 47.984782 80.342271 
L 48.121829 79.354247 
L 48.25929 78.366224 
L 48.397815 77.378201 
L 48.537519 76.390177 
L 48.678068 75.402154 
L 48.818756 74.414131 
L 48.95859 73.426107 
L 49.096373 72.438084 
L 49.230803 71.450061 
L 49.360561 70.462037 
L 49.484408 69.474014 
L 49.601254 68.485991 
L 49.710214 67.497967 
L 51.089786 67.497967 
L 51.089786 67.497967 
L 51.198746 68.485991 
L 51.315592 69.474014 
L 51.439439 70.462037 
L 51.569197 71.450061 
L 51.703627 72.438084 
L 51.84141 73.426107 
L 51.981244 74.414131 
L 52.121932 75.402154 
L 52.262481 76.390177 
L 52.402185 77.378201 
L 52.54071 78.366224 
L 52.678171 79.354247 
L 52.815218 80.342271 
L 52.9531 81.330294 
L 53.093727 82.318317 
L 53.239682 83.306341 
L 53.394193 84.294364 
L 53.561036 85.282387 
L 53.74439 86.270411 
L 53.94864 87.258434 
L 54.178179 88.246457 
L 54.437213 89.234481 
L 54.729619 90.222504 
L 55.058854 91.210527 
L 55.427913 92.198551 
L 55.839337 93.186574 
L 56.295212 94.174597 
L 56.797162 95.162621 
L 57.346269 96.150644 
L 57.942916 97.138667 
L 58.586523 98.126691 
L 59.275191 99.114714 
L 60.005254 100.102737 
L 60.770819 101.090761 
L 61.563345 102.078784 
L 62.37138 103.066807 
L 63.180539 104.054831 
L 63.973837 105.042854 
L 64.732401 106.030877 
L 65.43658 107.018901 
L 66.067332 108.006924 
L 66.607782 108.994948 
L 67.044717 109.982971 
L 67.369825 110.970994 
L 67.580487 111.959018 
L 67.68 112.947041 
L 67.677198 113.935064 
L 67.585532 114.923088 
L 67.42177 115.911111 
L 67.204511 116.899134 
L 66.952721 117.887158 
L 66.684488 118.875181 
L 66.416078 119.863204 
L 66.16133 120.851228 
L 65.931309 121.839251 
L 65.734126 122.827274 
L 65.574781 123.815298 
L 65.454947 124.803321 
L 65.372683 125.791344 
L 65.322133 126.779368 
L 65.293345 127.767391 
L 65.272396 128.755414 
L 65.241964 129.743438 
L 65.182439 130.731461 
L 65.073559 131.719484 
L 64.896416 132.707508 
L 64.635583 133.695531 
L 64.281058 134.683554 
L 63.829693 135.671578 
L 63.28587 136.659601 
L 62.661274 137.647624 
L 61.973785 138.635648 
L 61.245627 139.623671 
L 60.501045 140.611694 
L 59.763826 141.599718 
L 59.055007 142.587741 
L 58.39104 143.575764 
L 57.78262 144.563788 
L 57.234269 145.551811 
L 56.744667 146.539834 
L 56.307621 147.527858 
L 55.913505 148.515881 
L 55.550951 149.503904 
L 55.208549 150.491928 
L 54.876362 151.479951 
L 54.547056 152.467974 
L 54.216539 153.455998 
L 53.884071 154.444021 
L 53.551886 155.432045 
L 53.224417 156.420068 
L 52.907312 157.408091 
L 52.606389 158.396115 
L 52.326718 159.384138 
L 52.071955 160.372161 
L 51.843995 161.360185 
L 51.642956 162.348208 
L 51.467438 163.336231 
L 51.314967 164.324255 
L 51.18251 165.312278 
L 51.18251 165.312278 
z
" clip-path="url(#pf52681aa46)" style="fill: none; stroke: #000000; stroke-opacity: 0.3"/>
   </g>
   <g id="FillBetweenPolyCollection_5">
    <path d="M 51.30572 169.228413 
L 49.49428 169.228413 
L 49.398243 168.14716 
L 49.304565 167.065907 
L 49.213505 165.984654 
L 49.124557 164.903401 
L 49.036464 163.822149 
L 48.947331 162.740896 
L 48.854819 161.659643 
L 48.75639 160.57839 
L 48.649552 159.497138 
L 48.532053 158.415885 
L 48.401962 157.334632 
L 48.257607 156.253379 
L 48.097362 155.172126 
L 47.919323 154.090874 
L 47.720925 153.009621 
L 47.498607 151.928368 
L 47.247613 150.847115 
L 46.961992 149.765863 
L 46.634858 148.68461 
L 46.258897 147.603357 
L 45.827065 146.522104 
L 45.3334 145.440852 
L 44.77384 144.359599 
L 44.146935 143.278346 
L 43.454352 142.197093 
L 42.701127 141.11584 
L 41.895595 140.034588 
L 41.049052 138.953335 
L 40.17517 137.872082 
L 39.289266 136.790829 
L 38.407546 135.709577 
L 37.54641 134.628324 
L 36.721937 133.547071 
L 35.949567 132.465818 
L 35.243975 131.384565 
L 34.619062 130.303313 
L 34.087938 129.22206 
L 33.662766 128.140807 
L 33.354366 127.059554 
L 33.171518 125.978302 
L 33.12 124.897049 
L 33.201491 123.815796 
L 33.412535 122.734543 
L 33.743803 121.653291 
L 34.179907 120.572038 
L 34.699928 119.490785 
L 35.278747 118.409532 
L 35.889119 117.328279 
L 36.504264 116.247027 
L 37.10066 115.165774 
L 37.660609 114.084521 
L 38.174165 113.003268 
L 38.640068 111.922016 
L 39.065484 110.840763 
L 39.464536 109.75951 
L 39.85582 108.678257 
L 40.25929 107.597005 
L 40.693 106.515752 
L 41.170228 105.434499 
L 41.697439 104.353246 
L 42.273387 103.271993 
L 42.889441 102.190741 
L 43.531033 101.109488 
L 44.179897 100.028235 
L 44.816688 98.946982 
L 45.423527 97.86573 
L 45.986057 96.784477 
L 46.494757 95.703224 
L 46.945392 94.621971 
L 47.338656 93.540718 
L 47.679187 92.459466 
L 47.974228 91.378213 
L 48.232193 90.29696 
L 48.46138 89.215707 
L 48.669007 88.134455 
L 48.860621 87.053202 
L 49.039891 85.971949 
L 49.208716 84.890696 
L 49.367531 83.809444 
L 49.515727 82.728191 
L 49.652082 81.646938 
L 49.775139 80.565685 
L 49.883511 79.484432 
L 49.976075 78.40318 
L 50.052101 77.321927 
L 50.111306 76.240674 
L 50.153872 75.159421 
L 50.180443 74.078169 
L 50.192123 72.996916 
L 50.190468 71.915663 
L 50.177477 70.83441 
L 50.155569 69.753158 
L 50.127527 68.671905 
L 50.096396 67.590652 
L 50.065333 66.509399 
L 50.037405 65.428146 
L 50.015361 64.346894 
L 50.001407 63.265641 
L 49.997015 62.184388 
L 50.802985 62.184388 
L 50.802985 62.184388 
L 50.798593 63.265641 
L 50.784639 64.346894 
L 50.762595 65.428146 
L 50.734667 66.509399 
L 50.703604 67.590652 
L 50.672473 68.671905 
L 50.644431 69.753158 
L 50.622523 70.83441 
L 50.609532 71.915663 
L 50.607877 72.996916 
L 50.619557 74.078169 
L 50.646128 75.159421 
L 50.688694 76.240674 
L 50.747899 77.321927 
L 50.823925 78.40318 
L 50.916489 79.484432 
L 51.024861 80.565685 
L 51.147918 81.646938 
L 51.284273 82.728191 
L 51.432469 83.809444 
L 51.591284 84.890696 
L 51.760109 85.971949 
L 51.939379 87.053202 
L 52.130993 88.134455 
L 52.33862 89.215707 
L 52.567807 90.29696 
L 52.825772 91.378213 
L 53.120813 92.459466 
L 53.461344 93.540718 
L 53.854608 94.621971 
L 54.305243 95.703224 
L 54.813943 96.784477 
L 55.376473 97.86573 
L 55.983312 98.946982 
L 56.620103 100.028235 
L 57.268967 101.109488 
L 57.910559 102.190741 
L 58.526613 103.271993 
L 59.102561 104.353246 
L 59.629772 105.434499 
L 60.107 106.515752 
L 60.54071 107.597005 
L 60.94418 108.678257 
L 61.335464 109.75951 
L 61.734516 110.840763 
L 62.159932 111.922016 
L 62.625835 113.003268 
L 63.139391 114.084521 
L 63.69934 115.165774 
L 64.295736 116.247027 
L 64.910881 117.328279 
L 65.521253 118.409532 
L 66.100072 119.490785 
L 66.620093 120.572038 
L 67.056197 121.653291 
L 67.387465 122.734543 
L 67.598509 123.815796 
L 67.68 124.897049 
L 67.628482 125.978302 
L 67.445634 127.059554 
L 67.137234 128.140807 
L 66.712062 129.22206 
L 66.180938 130.303313 
L 65.556025 131.384565 
L 64.850433 132.465818 
L 64.078063 133.547071 
L 63.25359 134.628324 
L 62.392454 135.709577 
L 61.510734 136.790829 
L 60.62483 137.872082 
L 59.750948 138.953335 
L 58.904405 140.034588 
L 58.098873 141.11584 
L 57.345648 142.197093 
L 56.653065 143.278346 
L 56.02616 144.359599 
L 55.4666 145.440852 
L 54.972935 146.522104 
L 54.541103 147.603357 
L 54.165142 148.68461 
L 53.838008 149.765863 
L 53.552387 150.847115 
L 53.301393 151.928368 
L 53.079075 153.009621 
L 52.880677 154.090874 
L 52.702638 155.172126 
L 52.542393 156.253379 
L 52.398038 157.334632 
L 52.267947 158.415885 
L 52.150448 159.497138 
L 52.04361 160.57839 
L 51.945181 161.659643 
L 51.852669 162.740896 
L 51.763536 163.822149 
L 51.675443 164.903401 
L 51.586495 165.984654 
L 51.495435 167.065907 
L 51.401757 168.14716 
L 51.30572 169.228413 
L 51.30572 169.228413 
z
" clip-path="url(#pf52681aa46)" style="fill: none; stroke: #000000; stroke-opacity: 0.3"/>
   </g>
   <g id="FillBetweenPolyCollection_6">
    <path d="M 53.505889 169.806042 
L 47.294111 169.806042 
L 46.966432 168.721125 
L 46.638374 167.636208 
L 46.313069 166.551292 
L 45.992837 165.466375 
L 45.679051 164.381458 
L 45.372087 163.296541 
L 45.071409 162.211624 
L 44.775755 161.126707 
L 44.483428 160.041791 
L 44.192643 158.956874 
L 43.901897 157.871957 
L 43.610308 156.78704 
L 43.317866 155.702123 
L 43.02557 154.617207 
L 42.735403 153.53229 
L 42.450151 152.447373 
L 42.173079 151.362456 
L 41.907487 150.277539 
L 41.656212 149.192622 
L 41.42113 148.107706 
L 41.202722 147.022789 
L 40.99976 145.937872 
L 40.809165 144.852955 
L 40.626052 143.768038 
L 40.443972 142.683121 
L 40.255323 141.598205 
L 40.051901 140.513288 
L 39.825541 139.428371 
L 39.568779 138.343454 
L 39.275496 137.258537 
L 38.941476 136.173621 
L 38.564851 135.088704 
L 38.146394 134.003787 
L 37.68965 132.91887 
L 37.200903 131.833953 
L 36.688978 130.749036 
L 36.164906 129.66412 
L 35.641469 128.579203 
L 35.132643 127.494286 
L 34.652987 126.409369 
L 34.217005 125.324452 
L 33.838505 124.239535 
L 33.530002 123.154619 
L 33.302197 122.069702 
L 33.163555 120.984785 
L 33.12 119.899868 
L 33.174758 118.814951 
L 33.328328 117.730035 
L 33.578588 116.645118 
L 33.921017 115.560201 
L 34.348994 114.475284 
L 34.854162 113.390367 
L 35.426812 112.30545 
L 36.056265 111.220534 
L 36.731233 110.135617 
L 37.440151 109.0507 
L 38.171462 107.965783 
L 38.913877 106.880866 
L 39.656619 105.795949 
L 40.389635 104.711033 
L 41.103823 103.626116 
L 41.791232 102.541199 
L 42.445265 101.456282 
L 43.060842 100.371365 
L 43.634532 99.286449 
L 44.164606 98.201532 
L 44.651021 97.116615 
L 45.095305 96.031698 
L 45.50035 94.946781 
L 45.870121 93.861864 
L 46.209298 92.776948 
L 46.522878 91.692031 
L 46.81578 90.607114 
L 47.092475 89.522197 
L 47.356682 88.43728 
L 47.611149 87.352363 
L 47.85754 86.267447 
L 48.096427 85.18253 
L 48.327378 84.097613 
L 48.549138 83.012696 
L 48.759857 81.927779 
L 48.957357 80.842863 
L 49.1394 79.757946 
L 49.303943 78.673029 
L 49.449347 77.588112 
L 49.574538 76.503195 
L 49.67911 75.418278 
L 49.763364 74.333362 
L 49.828302 73.248445 
L 49.875559 72.163528 
L 49.907313 71.078611 
L 49.926147 69.993694 
L 49.934908 68.908777 
L 49.936552 67.823861 
L 49.933983 66.738944 
L 49.929914 65.654027 
L 49.926734 64.56911 
L 49.92641 63.484193 
L 49.930413 62.399277 
L 50.869587 62.399277 
L 50.869587 62.399277 
L 50.87359 63.484193 
L 50.873266 64.56911 
L 50.870086 65.654027 
L 50.866017 66.738944 
L 50.863448 67.823861 
L 50.865092 68.908777 
L 50.873853 69.993694 
L 50.892687 71.078611 
L 50.924441 72.163528 
L 50.971698 73.248445 
L 51.036636 74.333362 
L 51.12089 75.418278 
L 51.225462 76.503195 
L 51.350653 77.588112 
L 51.496057 78.673029 
L 51.6606 79.757946 
L 51.842643 80.842863 
L 52.040143 81.927779 
L 52.250862 83.012696 
L 52.472622 84.097613 
L 52.703573 85.18253 
L 52.94246 86.267447 
L 53.188851 87.352363 
L 53.443318 88.43728 
L 53.707525 89.522197 
L 53.98422 90.607114 
L 54.277122 91.692031 
L 54.590702 92.776948 
L 54.929879 93.861864 
L 55.29965 94.946781 
L 55.704695 96.031698 
L 56.148979 97.116615 
L 56.635394 98.201532 
L 57.165468 99.286449 
L 57.739158 100.371365 
L 58.354735 101.456282 
L 59.008768 102.541199 
L 59.696177 103.626116 
L 60.410365 104.711033 
L 61.143381 105.795949 
L 61.886123 106.880866 
L 62.628538 107.965783 
L 63.359849 109.0507 
L 64.068767 110.135617 
L 64.743735 111.220534 
L 65.373188 112.30545 
L 65.945838 113.390367 
L 66.451006 114.475284 
L 66.878983 115.560201 
L 67.221412 116.645118 
L 67.471672 117.730035 
L 67.625242 118.814951 
L 67.68 119.899868 
L 67.636445 120.984785 
L 67.497803 122.069702 
L 67.269998 123.154619 
L 66.961495 124.239535 
L 66.582995 125.324452 
L 66.147013 126.409369 
L 65.667357 127.494286 
L 65.158531 128.579203 
L 64.635094 129.66412 
L 64.111022 130.749036 
L 63.599097 131.833953 
L 63.11035 132.91887 
L 62.653606 134.003787 
L 62.235149 135.088704 
L 61.858524 136.173621 
L 61.524504 137.258537 
L 61.231221 138.343454 
L 60.974459 139.428371 
L 60.748099 140.513288 
L 60.544677 141.598205 
L 60.356028 142.683121 
L 60.173948 143.768038 
L 59.990835 144.852955 
L 59.80024 145.937872 
L 59.597278 147.022789 
L 59.37887 148.107706 
L 59.143788 149.192622 
L 58.892513 150.277539 
L 58.626921 151.362456 
L 58.349849 152.447373 
L 58.064597 153.53229 
L 57.77443 154.617207 
L 57.482134 155.702123 
L 57.189692 156.78704 
L 56.898103 157.871957 
L 56.607357 158.956874 
L 56.316572 160.041791 
L 56.024245 161.126707 
L 55.728591 162.211624 
L 55.427913 163.296541 
L 55.120949 164.381458 
L 54.807163 165.466375 
L 54.486931 166.551292 
L 54.161626 167.636208 
L 53.833568 168.721125 
L 53.505889 169.806042 
L 53.505889 169.806042 
z
" clip-path="url(#pf52681aa46)" style="fill: none; stroke: #000000; stroke-opacity: 0.3"/>
   </g>
   <g id="FillBetweenPolyCollection_7">
    <path d="M 53.068752 160.043897 
L 47.731248 160.043897 
L 47.479868 159.267568 
L 47.219596 158.49124 
L 46.950817 157.714911 
L 46.673718 156.938583 
L 46.388276 156.162254 
L 46.09424 155.385926 
L 45.791152 154.609597 
L 45.47838 153.833269 
L 45.155169 153.05694 
L 44.820715 152.280612 
L 44.474256 151.504283 
L 44.115169 150.727954 
L 43.743069 149.951626 
L 43.357907 149.175297 
L 42.960052 148.398969 
L 42.550354 147.62264 
L 42.130177 146.846312 
L 41.701397 146.069983 
L 41.266373 145.293655 
L 40.827874 144.517326 
L 40.38898 143.740998 
L 39.95296 142.964669 
L 39.523132 142.188341 
L 39.102716 141.412012 
L 38.694695 140.635684 
L 38.301692 139.859355 
L 37.925863 139.083027 
L 37.568829 138.306698 
L 37.231632 137.53037 
L 36.914728 136.754041 
L 36.618015 135.977713 
L 36.34088 135.201384 
L 36.082272 134.425056 
L 35.840792 133.648727 
L 35.614788 132.872399 
L 35.402457 132.09607 
L 35.201943 131.319742 
L 35.01144 130.543413 
L 34.829277 129.767085 
L 34.654008 128.990756 
L 34.484494 128.214428 
L 34.31997 127.438099 
L 34.160117 126.661771 
L 34.00511 125.885442 
L 33.855663 125.109114 
L 33.713051 124.332785 
L 33.579115 123.556457 
L 33.456236 122.780128 
L 33.347285 122.0038 
L 33.255543 121.227471 
L 33.184589 120.451143 
L 33.13816 119.674814 
L 33.12 118.898486 
L 33.133684 118.122157 
L 33.182449 117.345829 
L 33.269033 116.5695 
L 33.395532 115.793172 
L 33.563285 115.016843 
L 33.772806 114.240515 
L 34.023748 113.464186 
L 34.314923 112.687858 
L 34.644353 111.911529 
L 35.009374 111.1352 
L 35.406754 110.358872 
L 35.83284 109.582543 
L 36.283714 108.806215 
L 36.755337 108.029886 
L 37.243693 107.253558 
L 37.744896 106.477229 
L 38.255282 105.700901 
L 38.771467 104.924572 
L 39.29037 104.148244 
L 39.809212 103.371915 
L 40.325495 102.595587 
L 40.836965 101.819258 
L 41.34156 101.04293 
L 41.837368 100.266601 
L 42.32259 99.490273 
L 42.795509 98.713944 
L 43.254487 97.937616 
L 43.697969 97.161287 
L 44.12451 96.384959 
L 44.532814 95.60863 
L 44.921782 94.832302 
L 45.290562 94.055973 
L 45.638595 93.279645 
L 45.965653 92.503316 
L 46.271862 91.726988 
L 46.557702 90.950659 
L 46.823995 90.174331 
L 47.071863 89.398002 
L 47.302672 88.621674 
L 47.517967 87.845345 
L 47.719387 87.069017 
L 47.908585 86.292688 
L 48.087148 85.51636 
L 48.256522 84.740031 
L 48.417957 83.963703 
L 48.572464 83.187374 
L 52.227536 83.187374 
L 52.227536 83.187374 
L 52.382043 83.963703 
L 52.543478 84.740031 
L 52.712852 85.51636 
L 52.891415 86.292688 
L 53.080613 87.069017 
L 53.282033 87.845345 
L 53.497328 88.621674 
L 53.728137 89.398002 
L 53.976005 90.174331 
L 54.242298 90.950659 
L 54.528138 91.726988 
L 54.834347 92.503316 
L 55.161405 93.279645 
L 55.509438 94.055973 
L 55.878218 94.832302 
L 56.267186 95.60863 
L 56.67549 96.384959 
L 57.102031 97.161287 
L 57.545513 97.937616 
L 58.004491 98.713944 
L 58.47741 99.490273 
L 58.962632 100.266601 
L 59.45844 101.04293 
L 59.963035 101.819258 
L 60.474505 102.595587 
L 60.990788 103.371915 
L 61.50963 104.148244 
L 62.028533 104.924572 
L 62.544718 105.700901 
L 63.055104 106.477229 
L 63.556307 107.253558 
L 64.044663 108.029886 
L 64.516286 108.806215 
L 64.96716 109.582543 
L 65.393246 110.358872 
L 65.790626 111.1352 
L 66.155647 111.911529 
L 66.485077 112.687858 
L 66.776252 113.464186 
L 67.027194 114.240515 
L 67.236715 115.016843 
L 67.404468 115.793172 
L 67.530967 116.5695 
L 67.617551 117.345829 
L 67.666316 118.122157 
L 67.68 118.898486 
L 67.66184 119.674814 
L 67.615411 120.451143 
L 67.544457 121.227471 
L 67.452715 122.0038 
L 67.343764 122.780128 
L 67.220885 123.556457 
L 67.086949 124.332785 
L 66.944337 125.109114 
L 66.79489 125.885442 
L 66.639883 126.661771 
L 66.48003 127.438099 
L 66.315506 128.214428 
L 66.145992 128.990756 
L 65.970723 129.767085 
L 65.78856 130.543413 
L 65.598057 131.319742 
L 65.397543 132.09607 
L 65.185212 132.872399 
L 64.959208 133.648727 
L 64.717728 134.425056 
L 64.45912 135.201384 
L 64.181985 135.977713 
L 63.885272 136.754041 
L 63.568368 137.53037 
L 63.231171 138.306698 
L 62.874137 139.083027 
L 62.498308 139.859355 
L 62.105305 140.635684 
L 61.697284 141.412012 
L 61.276868 142.188341 
L 60.84704 142.964669 
L 60.41102 143.740998 
L 59.972126 144.517326 
L 59.533627 145.293655 
L 59.098603 146.069983 
L 58.669823 146.846312 
L 58.249646 147.62264 
L 57.839948 148.398969 
L 57.442093 149.175297 
L 57.056931 149.951626 
L 56.684831 150.727954 
L 56.325744 151.504283 
L 55.979285 152.280612 
L 55.644831 153.05694 
L 55.32162 153.833269 
L 55.008848 154.609597 
L 54.70576 155.385926 
L 54.411724 156.162254 
L 54.126282 156.938583 
L 53.849183 157.714911 
L 53.580404 158.49124 
L 53.320132 159.267568 
L 53.068752 160.043897 
L 53.068752 160.043897 
z
" clip-path="url(#pf52681aa46)" style="fill: none; stroke: #000000; stroke-opacity: 0.3"/>
   </g>
   <g id="FillBetweenPolyCollection_8">
    <path d="M 108.777088 208.206686 
L 107.222912 208.206686 
L 107.090667 206.714874 
L 106.93431 205.223062 
L 106.749412 203.73125 
L 106.532037 202.239438 
L 106.27928 200.747626 
L 105.989729 199.255814 
L 105.663767 197.764002 
L 105.30363 196.27219 
L 104.913163 194.780378 
L 104.497276 193.288566 
L 104.061148 191.796754 
L 103.609292 190.304942 
L 103.144632 188.81313 
L 102.667762 187.321318 
L 102.176574 185.829505 
L 101.666356 184.337693 
L 101.130428 182.845881 
L 100.561262 181.354069 
L 99.951937 179.862257 
L 99.297714 178.370445 
L 98.59745 176.878633 
L 97.854609 175.386821 
L 97.077657 173.895009 
L 96.279764 172.403197 
L 95.477839 170.911385 
L 94.691063 169.419573 
L 93.939165 167.927761 
L 93.240718 166.435949 
L 92.611713 164.944137 
L 92.064595 163.452325 
L 91.607808 161.960513 
L 91.245821 160.468701 
L 90.979495 158.976889 
L 90.806608 157.485077 
L 90.722396 155.993265 
L 90.72 154.501453 
L 90.790815 153.00964 
L 90.924795 151.517828 
L 91.110837 150.026016 
L 91.337335 148.534204 
L 91.592974 147.042392 
L 91.867728 145.55058 
L 92.15394 144.058768 
L 92.447302 142.566956 
L 92.747501 141.075144 
L 93.058358 139.583332 
L 93.387341 138.09152 
L 93.744456 136.599708 
L 94.140648 135.107896 
L 94.585949 133.616084 
L 95.087662 132.124272 
L 95.648889 130.63246 
L 96.267649 129.140648 
L 96.936733 127.648836 
L 97.644326 126.157024 
L 98.375271 124.665212 
L 99.112772 123.1734 
L 99.840259 121.681588 
L 100.543099 120.189776 
L 101.209926 118.697963 
L 101.83341 117.206151 
L 102.4104 115.714339 
L 102.941485 114.222527 
L 103.430116 112.730715 
L 103.881466 111.238903 
L 104.301246 109.747091 
L 104.694648 108.255279 
L 105.065569 106.763467 
L 105.41617 105.271655 
L 105.746793 103.779843 
L 106.056164 102.288031 
L 106.341826 100.796219 
L 106.600674 99.304407 
L 106.829517 97.812595 
L 107.025574 96.320783 
L 107.186878 94.828971 
L 107.312538 93.337159 
L 107.402892 91.845347 
L 107.459542 90.353535 
L 107.485303 88.861723 
L 107.484081 87.369911 
L 107.460687 85.878098 
L 107.420593 84.386286 
L 107.369634 82.894474 
L 107.313671 81.402662 
L 107.258225 79.91085 
L 107.208127 78.419038 
L 107.167217 76.927226 
L 107.138146 75.435414 
L 107.122295 73.943602 
L 107.119852 72.45179 
L 107.130002 70.959978 
L 107.151227 69.468166 
L 107.181635 67.976354 
L 107.219278 66.484542 
L 107.26239 64.99273 
L 107.309527 63.500918 
L 107.359596 62.009106 
L 107.41179 60.517294 
L 108.58821 60.517294 
L 108.58821 60.517294 
L 108.640404 62.009106 
L 108.690473 63.500918 
L 108.73761 64.99273 
L 108.780722 66.484542 
L 108.818365 67.976354 
L 108.848773 69.468166 
L 108.869998 70.959978 
L 108.880148 72.45179 
L 108.877705 73.943602 
L 108.861854 75.435414 
L 108.832783 76.927226 
L 108.791873 78.419038 
L 108.741775 79.91085 
L 108.686329 81.402662 
L 108.630366 82.894474 
L 108.579407 84.386286 
L 108.539313 85.878098 
L 108.515919 87.369911 
L 108.514697 88.861723 
L 108.540458 90.353535 
L 108.597108 91.845347 
L 108.687462 93.337159 
L 108.813122 94.828971 
L 108.974426 96.320783 
L 109.170483 97.812595 
L 109.399326 99.304407 
L 109.658174 100.796219 
L 109.943836 102.288031 
L 110.253207 103.779843 
L 110.58383 105.271655 
L 110.934431 106.763467 
L 111.305352 108.255279 
L 111.698754 109.747091 
L 112.118534 111.238903 
L 112.569884 112.730715 
L 113.058515 114.222527 
L 113.5896 115.714339 
L 114.16659 117.206151 
L 114.790074 118.697963 
L 115.456901 120.189776 
L 116.159741 121.681588 
L 116.887228 123.1734 
L 117.624729 124.665212 
L 118.355674 126.157024 
L 119.063267 127.648836 
L 119.732351 129.140648 
L 120.351111 130.63246 
L 120.912338 132.124272 
L 121.414051 133.616084 
L 121.859352 135.107896 
L 122.255544 136.599708 
L 122.612659 138.09152 
L 122.941642 139.583332 
L 123.252499 141.075144 
L 123.552698 142.566956 
L 123.84606 144.058768 
L 124.132272 145.55058 
L 124.407026 147.042392 
L 124.662665 148.534204 
L 124.889163 150.026016 
L 125.075205 151.517828 
L 125.209185 153.00964 
L 125.28 154.501453 
L 125.277604 155.993265 
L 125.193392 157.485077 
L 125.020505 158.976889 
L 124.754179 160.468701 
L 124.392192 161.960513 
L 123.935405 163.452325 
L 123.388287 164.944137 
L 122.759282 166.435949 
L 122.060835 167.927761 
L 121.308937 169.419573 
L 120.522161 170.911385 
L 119.720236 172.403197 
L 118.922343 173.895009 
L 118.145391 175.386821 
L 117.40255 176.878633 
L 116.702286 178.370445 
L 116.048063 179.862257 
L 115.438738 181.354069 
L 114.869572 182.845881 
L 114.333644 184.337693 
L 113.823426 185.829505 
L 113.332238 187.321318 
L 112.855368 188.81313 
L 112.390708 190.304942 
L 111.938852 191.796754 
L 111.502724 193.288566 
L 111.086837 194.780378 
L 110.69637 196.27219 
L 110.336233 197.764002 
L 110.010271 199.255814 
L 109.72072 200.747626 
L 109.467963 202.239438 
L 109.250588 203.73125 
L 109.06569 205.223062 
L 108.909333 206.714874 
L 108.777088 208.206686 
L 108.777088 208.206686 
z
" clip-path="url(#pf52681aa46)" style="fill: none; stroke: #000000; stroke-opacity: 0.3"/>
   </g>
   <g id="FillBetweenPolyCollection_9">
    <path d="M 108.775763 197.54922 
L 107.224237 197.54922 
L 107.114198 196.331569 
L 106.981017 195.113918 
L 106.817353 193.896267 
L 106.615159 192.678616 
L 106.366217 191.460965 
L 106.062799 190.243314 
L 105.698405 189.025663 
L 105.268505 187.808012 
L 104.771203 186.590361 
L 104.207746 185.37271 
L 103.582791 184.155059 
L 102.904393 182.937407 
L 102.183677 181.719756 
L 101.434212 180.502105 
L 100.671157 179.284454 
L 99.910255 178.066803 
L 99.166793 176.849152 
L 98.454655 175.631501 
L 97.785554 174.41385 
L 97.168524 173.196199 
L 96.609688 171.978548 
L 96.112293 170.760897 
L 95.676932 169.543246 
L 95.301895 168.325595 
L 94.983553 167.107943 
L 94.716705 165.890292 
L 94.494869 164.672641 
L 94.310493 163.45499 
L 94.155139 162.237339 
L 94.019683 161.019688 
L 93.894578 159.802037 
L 93.770226 158.584386 
L 93.637473 157.366735 
L 93.4882 156.149084 
L 93.31596 154.931433 
L 93.116601 153.713782 
L 92.888779 152.496131 
L 92.634299 151.27848 
L 92.358227 150.060828 
L 92.068735 148.843177 
L 91.776675 147.625526 
L 91.494918 146.407875 
L 91.237508 145.190224 
L 91.018701 143.972573 
L 90.851998 142.754922 
L 90.749259 141.537271 
L 90.72 140.31962 
L 90.770934 139.101969 
L 90.905806 137.884318 
L 91.125502 136.666667 
L 91.42839 135.449016 
L 91.810807 134.231364 
L 92.267587 133.013713 
L 92.79253 131.796062 
L 93.378742 130.578411 
L 94.018812 129.36076 
L 94.704837 128.143109 
L 95.428359 126.925458 
L 96.180285 125.707807 
L 96.950883 124.490156 
L 97.729908 123.272505 
L 98.506883 122.054854 
L 99.271532 120.837203 
L 100.014282 119.619552 
L 100.726773 118.4019 
L 101.402284 117.184249 
L 102.035991 115.966598 
L 102.625037 114.748947 
L 103.168393 113.531296 
L 103.666559 112.313645 
L 104.121163 111.095994 
L 104.534533 109.878343 
L 104.909318 108.660692 
L 105.248196 107.443041 
L 105.553709 106.22539 
L 105.82821 105.007739 
L 106.073892 103.790088 
L 106.292862 102.572437 
L 106.487214 101.354785 
L 106.659062 100.137134 
L 106.810524 98.919483 
L 106.943646 97.701832 
L 107.060307 96.484181 
L 107.162101 95.26653 
L 107.25027 94.048879 
L 107.325676 92.831228 
L 107.388855 91.613577 
L 107.440132 90.395926 
L 107.479788 89.178275 
L 107.50825 87.960624 
L 107.526265 86.742973 
L 107.535026 85.525321 
L 107.536227 84.30767 
L 107.532024 83.090019 
L 107.524915 81.872368 
L 107.51755 80.654717 
L 107.5125 79.437066 
L 107.512012 78.219415 
L 107.517806 77.001764 
L 108.482194 77.001764 
L 108.482194 77.001764 
L 108.487988 78.219415 
L 108.4875 79.437066 
L 108.48245 80.654717 
L 108.475085 81.872368 
L 108.467976 83.090019 
L 108.463773 84.30767 
L 108.464974 85.525321 
L 108.473735 86.742973 
L 108.49175 87.960624 
L 108.520212 89.178275 
L 108.559868 90.395926 
L 108.611145 91.613577 
L 108.674324 92.831228 
L 108.74973 94.048879 
L 108.837899 95.26653 
L 108.939693 96.484181 
L 109.056354 97.701832 
L 109.189476 98.919483 
L 109.340938 100.137134 
L 109.512786 101.354785 
L 109.707138 102.572437 
L 109.926108 103.790088 
L 110.17179 105.007739 
L 110.446291 106.22539 
L 110.751804 107.443041 
L 111.090682 108.660692 
L 111.465467 109.878343 
L 111.878837 111.095994 
L 112.333441 112.313645 
L 112.831607 113.531296 
L 113.374963 114.748947 
L 113.964009 115.966598 
L 114.597716 117.184249 
L 115.273227 118.4019 
L 115.985718 119.619552 
L 116.728468 120.837203 
L 117.493117 122.054854 
L 118.270092 123.272505 
L 119.049117 124.490156 
L 119.819715 125.707807 
L 120.571641 126.925458 
L 121.295163 128.143109 
L 121.981188 129.36076 
L 122.621258 130.578411 
L 123.20747 131.796062 
L 123.732413 133.013713 
L 124.189193 134.231364 
L 124.57161 135.449016 
L 124.874498 136.666667 
L 125.094194 137.884318 
L 125.229066 139.101969 
L 125.28 140.31962 
L 125.250741 141.537271 
L 125.148002 142.754922 
L 124.981299 143.972573 
L 124.762492 145.190224 
L 124.505082 146.407875 
L 124.223325 147.625526 
L 123.931265 148.843177 
L 123.641773 150.060828 
L 123.365701 151.27848 
L 123.111221 152.496131 
L 122.883399 153.713782 
L 122.68404 154.931433 
L 122.5118 156.149084 
L 122.362527 157.366735 
L 122.229774 158.584386 
L 122.105422 159.802037 
L 121.980317 161.019688 
L 121.844861 162.237339 
L 121.689507 163.45499 
L 121.505131 164.672641 
L 121.283295 165.890292 
L 121.016447 167.107943 
L 120.698105 168.325595 
L 120.323068 169.543246 
L 119.887707 170.760897 
L 119.390312 171.978548 
L 118.831476 173.196199 
L 118.214446 174.41385 
L 117.545345 175.631501 
L 116.833207 176.849152 
L 116.089745 178.066803 
L 115.328843 179.284454 
L 114.565788 180.502105 
L 113.816323 181.719756 
L 113.095607 182.937407 
L 112.417209 184.155059 
L 111.792254 185.37271 
L 111.228797 186.590361 
L 110.731495 187.808012 
L 110.301595 189.025663 
L 109.937201 190.243314 
L 109.633783 191.460965 
L 109.384841 192.678616 
L 109.182647 193.896267 
L 109.018983 195.113918 
L 108.885802 196.331569 
L 108.775763 197.54922 
L 108.775763 197.54922 
z
" clip-path="url(#pf52681aa46)" style="fill: none; stroke: #000000; stroke-opacity: 0.3"/>
   </g>
   <g id="FillBetweenPolyCollection_10">
    <path d="M 109.196859 220.600096 
L 106.803141 220.600096 
L 106.73694 219.356002 
L 106.681593 218.111907 
L 106.63712 216.867813 
L 106.602652 215.623719 
L 106.57644 214.379625 
L 106.555945 213.13553 
L 106.537988 211.891436 
L 106.518963 210.647342 
L 106.495078 209.403248 
L 106.462611 208.159153 
L 106.418148 206.915059 
L 106.358774 205.670965 
L 106.282208 204.42687 
L 106.18685 203.182776 
L 106.07175 201.938682 
L 105.936496 200.694588 
L 105.781031 199.450493 
L 105.605442 198.206399 
L 105.409724 196.962305 
L 105.193578 195.718211 
L 104.956255 194.474116 
L 104.696479 193.230022 
L 104.412476 191.985928 
L 104.102091 190.741834 
L 103.76302 189.497739 
L 103.393099 188.253645 
L 102.990661 187.009551 
L 102.554884 185.765456 
L 102.086118 184.521362 
L 101.586128 183.277268 
L 101.058229 182.033174 
L 100.507275 180.789079 
L 99.939499 179.544985 
L 99.362188 178.300891 
L 98.783243 177.056797 
L 98.210637 175.812702 
L 97.65183 174.568608 
L 97.113214 173.324514 
L 96.599639 172.080419 
L 96.114088 170.836325 
L 95.657536 169.592231 
L 95.229033 168.348137 
L 94.825984 167.104042 
L 94.444627 165.859948 
L 94.080629 164.615854 
L 93.729752 163.37176 
L 93.388492 162.127665 
L 93.054624 160.883571 
L 92.72759 159.639477 
L 92.408676 158.395383 
L 92.100978 157.151288 
L 91.809165 155.907194 
L 91.539064 154.6631 
L 91.297164 153.419005 
L 91.090062 152.174911 
L 90.923959 150.930817 
L 90.804249 149.686723 
L 90.735233 148.442628 
L 90.72 147.198534 
L 90.76045 145.95444 
L 90.857439 144.710346 
L 91.010998 143.466251 
L 91.220594 142.222157 
L 91.485347 140.978063 
L 91.804201 139.733968 
L 92.175987 138.489874 
L 92.599386 137.24578 
L 93.072796 136.001686 
L 93.594125 134.757591 
L 94.160547 133.513497 
L 94.768267 132.269403 
L 95.412343 131.025309 
L 96.086588 129.781214 
L 96.783589 128.53712 
L 97.494858 127.293026 
L 98.211089 126.048932 
L 98.922536 124.804837 
L 99.619447 123.560743 
L 100.29254 122.316649 
L 100.933464 121.072554 
L 101.535219 119.82846 
L 102.092482 118.584366 
L 102.601827 117.340272 
L 103.061811 116.096177 
L 103.47293 114.852083 
L 103.837455 113.607989 
L 104.159146 112.363895 
L 104.442902 111.1198 
L 104.694352 109.875706 
L 104.919432 108.631612 
L 105.123993 107.387518 
L 105.313443 106.143423 
L 105.492471 104.899329 
L 105.664855 103.655235 
L 105.833363 102.41114 
L 105.999733 101.167046 
L 106.164743 99.922952 
L 106.328331 98.678858 
L 106.489764 97.434763 
L 109.510236 97.434763 
L 109.510236 97.434763 
L 109.671669 98.678858 
L 109.835257 99.922952 
L 110.000267 101.167046 
L 110.166637 102.41114 
L 110.335145 103.655235 
L 110.507529 104.899329 
L 110.686557 106.143423 
L 110.876007 107.387518 
L 111.080568 108.631612 
L 111.305648 109.875706 
L 111.557098 111.1198 
L 111.840854 112.363895 
L 112.162545 113.607989 
L 112.52707 114.852083 
L 112.938189 116.096177 
L 113.398173 117.340272 
L 113.907518 118.584366 
L 114.464781 119.82846 
L 115.066536 121.072554 
L 115.70746 122.316649 
L 116.380553 123.560743 
L 117.077464 124.804837 
L 117.788911 126.048932 
L 118.505142 127.293026 
L 119.216411 128.53712 
L 119.913412 129.781214 
L 120.587657 131.025309 
L 121.231733 132.269403 
L 121.839453 133.513497 
L 122.405875 134.757591 
L 122.927204 136.001686 
L 123.400614 137.24578 
L 123.824013 138.489874 
L 124.195799 139.733968 
L 124.514653 140.978063 
L 124.779406 142.222157 
L 124.989002 143.466251 
L 125.142561 144.710346 
L 125.23955 145.95444 
L 125.28 147.198534 
L 125.264767 148.442628 
L 125.195751 149.686723 
L 125.076041 150.930817 
L 124.909938 152.174911 
L 124.702836 153.419005 
L 124.460936 154.6631 
L 124.190835 155.907194 
L 123.899022 157.151288 
L 123.591324 158.395383 
L 123.27241 159.639477 
L 122.945376 160.883571 
L 122.611508 162.127665 
L 122.270248 163.37176 
L 121.919371 164.615854 
L 121.555373 165.859948 
L 121.174016 167.104042 
L 120.770967 168.348137 
L 120.342464 169.592231 
L 119.885912 170.836325 
L 119.400361 172.080419 
L 118.886786 173.324514 
L 118.34817 174.568608 
L 117.789363 175.812702 
L 117.216757 177.056797 
L 116.637812 178.300891 
L 116.060501 179.544985 
L 115.492725 180.789079 
L 114.941771 182.033174 
L 114.413872 183.277268 
L 113.913882 184.521362 
L 113.445116 185.765456 
L 113.009339 187.009551 
L 112.606901 188.253645 
L 112.23698 189.497739 
L 111.897909 190.741834 
L 111.587524 191.985928 
L 111.303521 193.230022 
L 111.043745 194.474116 
L 110.806422 195.718211 
L 110.590276 196.962305 
L 110.394558 198.206399 
L 110.218969 199.450493 
L 110.063504 200.694588 
L 109.92825 201.938682 
L 109.81315 203.182776 
L 109.717792 204.42687 
L 109.641226 205.670965 
L 109.581852 206.915059 
L 109.537389 208.159153 
L 109.504922 209.403248 
L 109.481037 210.647342 
L 109.462012 211.891436 
L 109.444055 213.13553 
L 109.42356 214.379625 
L 109.397348 215.623719 
L 109.36288 216.867813 
L 109.318407 218.111907 
L 109.26306 219.356002 
L 109.196859 220.600096 
L 109.196859 220.600096 
z
" clip-path="url(#pf52681aa46)" style="fill: none; stroke: #000000; stroke-opacity: 0.3"/>
   </g>
   <g id="matplotlib.axis_1">
    <g id="xtick_1">
     <g id="line2d_1">
      <defs>
       <path id="m7422021d87" d="M 0 0 
L 0 3.5 
" style="stroke: #000000; stroke-width: 0.8"/>
      </defs>
      <g>
       <use xlink:href="#m7422021d87" x="50.4" y="291.6" style="stroke: #000000; stroke-width: 0.8"/>
      </g>
     </g>
     <g id="text_1">
      <text style="font-size: 10px; font-family: 'DejaVu Sans', 'Bitstream Vera Sans', 'Computer Modern Sans Serif', 'Lucida Grande', 'Verdana', 'Geneva', 'Lucid', 'Arial', 'Helvetica', 'Avant Garde', sans-serif; text-anchor: middle" x="50.4" y="306.198438" transform="rotate(-0 50.4 306.198438)">0.3</text>
     </g>
    </g>
    <g id="xtick_2">
     <g id="line2d_2">
      <g>
       <use xlink:href="#m7422021d87" x="108" y="291.6" style="stroke: #000000; stroke-width: 0.8"/>
      </g>
     </g>
     <g id="text_2">
      <text style="font-size: 10px; font-family: 'DejaVu Sans', 'Bitstream Vera Sans', 'Computer Modern Sans Serif', 'Lucida Grande', 'Verdana', 'Geneva', 'Lucid', 'Arial', 'Helvetica', 'Avant Garde', sans-serif; text-anchor: middle" x="108" y="306.198438" transform="rotate(-0 108 306.198438)">0.6</text>
     </g>
    </g>
   </g>
   <g id="matplotlib.axis_2">
    <g id="ytick_1">
     <g id="line2d_3">
      <defs>
       <path id="m430c727c5c" d="M 0 0 
L -3.5 0 
" style="stroke: #000000; stroke-width: 0.8"/>
      </defs>
      <g>
       <use xlink:href="#m430c727c5c" x="21.6" y="291.6" style="stroke: #000000; stroke-width: 0.8"/>
      </g>
     </g>
    </g>
    <g id="ytick_2">
     <g id="line2d_4">
      <g>
       <use xlink:href="#m430c727c5c" x="21.6" y="199.8" style="stroke: #000000; stroke-width: 0.8"/>
      </g>
     </g>
    </g>
    <g id="ytick_3">
     <g id="line2d_5">
      <g>
       <use xlink:href="#m430c727c5c" x="21.6" y="108" style="stroke: #000000; stroke-width: 0.8"/>
      </g>
     </g>
    </g>
    <g id="ytick_4">
     <g id="line2d_6">
      <g>
       <use xlink:href="#m430c727c5c" x="21.6" y="16.2" style="stroke: #000000; stroke-width: 0.8"/>
      </g>
     </g>
    </g>
   </g>
   <g id="line2d_7">
    <path d="M 50.4 269.568 
L 50.4 264.06 
" clip-path="url(#pf52681aa46)" style="fill: none; stroke: #000000; stroke-linecap: square"/>
   </g>
   <g id="line2d_8">
    <path d="M 50.4 269.568 
L 108 269.568 
" clip-path="url(#pf52681aa46)" style="fill: none; stroke: #000000; stroke-linecap: square"/>
   </g>
   <g id="line2d_9">
    <path d="M 108 269.568 
L 108 264.06 
" clip-path="url(#pf52681aa46)" style="fill: none; stroke: #000000; stroke-linecap: square"/>
   </g>
   <g id="patch_3">
    <path d="M 21.6 291.6 
L 21.6 16.2 
" style="fill: none; stroke: #000000; stroke-width: 0.8; stroke-linejoin: miter; stroke-linecap: square"/>
   </g>
   <g id="patch_4">
    <path d="M 136.8 291.6 
L 136.8 16.2 
" style="fill: none; stroke: #000000; stroke-width: 0.8; stroke-linejoin: miter; stroke-linecap: square"/>
   </g>
   <g id="patch_5">
    <path d="M 21.6 291.6 
L 136.8 291.6 
" style="fill: none; stroke: #000000; stroke-width: 0.8; stroke-linejoin: miter; stroke-linecap: square"/>
   </g>
   <g id="patch_6">
    <path d="M 21.6 16.2 
L 136.8 16.2 
" style="fill: none; stroke: #000000; stroke-width: 0.8; stroke-linejoin: miter; stroke-linecap: square"/>
   </g>
   <g id="text_3">
    <text style="font-weight: 700; font-size: 12px; font-family: 'DejaVu Sans', 'Bitstream Vera Sans', 'Computer Modern Sans Serif', 'Lucida Grande', 'Verdana', 'Geneva', 'Lucid', 'Arial', 'Helvetica', 'Avant Garde', sans-serif; text-anchor: middle" x="50.4" y="289.104375" transform="rotate(-0 50.4 289.104375)">#7</text>
   </g>
   <g id="text_4">
    <text style="font-weight: 700; font-size: 12px; font-family: 'DejaVu Sans', 'Bitstream Vera Sans', 'Computer Modern Sans Serif', 'Lucida Grande', 'Verdana', 'Geneva', 'Lucid', 'Arial', 'Helvetica', 'Avant Garde', sans-serif; text-anchor: middle" x="108" y="289.104375" transform="rotate(-0 108 289.104375)">#21</text>
   </g>
   <g id="text_5">
    <text style="font-size: 12px; font-family: 'DejaVu Sans', 'Bitstream Vera Sans', 'Computer Modern Sans Serif', 'Lucida Grande', 'Verdana', 'Geneva', 'Lucid', 'Arial', 'Helvetica', 'Avant Garde', sans-serif; text-anchor: middle" x="79.2" y="268.449375" transform="rotate(-0 79.2 268.449375)">****</text>
   </g>
   <g id="line2d_10">
    <path d="M 21.6 122.254909 
L 136.8 122.254909 
" clip-path="url(#pf52681aa46)" style="fill: none; stroke-dasharray: 3.7,1.6; stroke-dashoffset: 0; stroke: #808080; stroke-opacity: 0.7"/>
   </g>
   <g id="line2d_11">
    <path d="M 21.6 149.228793 
L 136.8 149.228793 
" clip-path="url(#pf52681aa46)" style="fill: none; stroke-dasharray: 3.7,1.6; stroke-dashoffset: 0; stroke: #808080; stroke-opacity: 0.7"/>
   </g>
   <g id="LineCollection_1">
    <path d="M 50.4 124.07137 
L 50.4 120.438447 
" clip-path="url(#pf52681aa46)" style="fill: none; stroke: #000000; stroke-width: 2"/>
   </g>
   <g id="line2d_12">
    <defs>
     <path id="m041e17c9ed" d="M 5 0 
L -5 -0 
" style="stroke: #000000; stroke-width: 2"/>
    </defs>
    <g clip-path="url(#pf52681aa46)">
     <use xlink:href="#m041e17c9ed" x="50.4" y="124.07137" style="stroke: #000000; stroke-width: 2"/>
    </g>
   </g>
   <g id="line2d_13">
    <g clip-path="url(#pf52681aa46)">
     <use xlink:href="#m041e17c9ed" x="50.4" y="120.438447" style="stroke: #000000; stroke-width: 2"/>
    </g>
   </g>
   <g id="LineCollection_2">
    <path d="M 108 152.312907 
L 108 146.144679 
" clip-path="url(#pf52681aa46)" style="fill: none; stroke: #000000; stroke-width: 2"/>
   </g>
   <g id="line2d_14">
    <g clip-path="url(#pf52681aa46)">
     <use xlink:href="#m041e17c9ed" x="108" y="152.312907" style="stroke: #000000; stroke-width: 2"/>
    </g>
   </g>
   <g id="line2d_15">
    <g clip-path="url(#pf52681aa46)">
     <use xlink:href="#m041e17c9ed" x="108" y="146.144679" style="stroke: #000000; stroke-width: 2"/>
    </g>
   </g>
   <g id="line2d_16">
    <defs>
     <path id="m302a4221fc" d="M 0 4 
C 1.060812 4 2.078319 3.578535 2.828427 2.828427 
C 3.578535 2.078319 4 1.060812 4 0 
C 4 -1.060812 3.578535 -2.078319 2.828427 -2.828427 
C 2.078319 -3.578535 1.060812 -4 0 -4 
C -1.060812 -4 -2.078319 -3.578535 -2.828427 -2.828427 
C -3.578535 -2.078319 -4 -1.060812 -4 0 
C -4 1.060812 -3.578535 2.078319 -2.828427 2.828427 
C -2.078319 3.578535 -1.060812 4 0 4 
z
" style="stroke: #000000"/>
    </defs>
    <g clip-path="url(#pf52681aa46)">
     <use xlink:href="#m302a4221fc" x="50.4" y="122.254909" style="stroke: #000000"/>
    </g>
   </g>
   <g id="line2d_17">
    <g clip-path="url(#pf52681aa46)">
     <use xlink:href="#m302a4221fc" x="108" y="149.228793" style="stroke: #000000"/>
    </g>
   </g>
  </g>
 </g>
 <defs>
  <clipPath id="pf52681aa46">
   <rect x="21.6" y="16.2" width="115.2" height="275.4"/>
  </clipPath>
 </defs>
</svg>
