<?xml version="1.0" encoding="utf-8" standalone="no"?>
<!DOCTYPE svg PUBLIC "-//W3C//DTD SVG 1.1//EN"
  "http://www.w3.org/Graphics/SVG/1.1/DTD/svg11.dtd">
<svg xmlns:xlink="http://www.w3.org/1999/xlink" width="144pt" height="324pt" viewBox="0 0 144 324" xmlns="http://www.w3.org/2000/svg" version="1.1">
 <metadata>
  <rdf:RDF xmlns:dc="http://purl.org/dc/elements/1.1/" xmlns:cc="http://creativecommons.org/ns#" xmlns:rdf="http://www.w3.org/1999/02/22-rdf-syntax-ns#">
   <cc:Work>
    <dc:type rdf:resource="http://purl.org/dc/dcmitype/StillImage"/>
    <dc:date>2025-12-11T11:14:58.857109</dc:date>
    <dc:format>image/svg+xml</dc:format>
    <dc:creator>
     <cc:Agent>
      <dc:title>Matplotlib v3.10.3, https://matplotlib.org/</dc:title>
     </cc:Agent>
    </dc:creator>
   </cc:Work>
  </rdf:RDF>
 </metadata>
 <defs>
  <style type="text/css">*{stroke-linejoin: round; stroke-linecap: butt}</style>
 </defs>
 <g id="figure_1">
  <g id="patch_1">
   <path d="M 0 324 
L 144 324 
L 144 0 
L 0 0 
z
" style="fill: #ffffff"/>
  </g>
  <g id="axes_1">
   <g id="patch_2">
    <path d="M 21.6 291.6 
L 136.8 291.6 
L 136.8 16.2 
L 21.6 16.2 
z
" style="fill: #ffffff"/>
   </g>
   <g id="FillBetweenPolyCollection_1">
    <path d="M 50.741958 236.219274 
L 50.058042 236.219274 
L 50.064722 234.568632 
L 50.08399 232.917989 
L 50.113674 231.267347 
L 50.150606 229.616704 
L 50.191179 227.966062 
L 50.231915 226.315419 
L 50.26994 224.664777 
L 50.303255 223.014134 
L 50.330821 221.363492 
L 50.352446 219.71285 
L 50.368574 218.062207 
L 50.380032 216.411565 
L 50.387794 214.760922 
L 50.392803 213.11028 
L 50.395864 211.459637 
L 50.397586 209.808995 
L 50.398365 208.158352 
L 50.398381 206.50771 
L 50.397583 204.857067 
L 50.395651 203.206425 
L 50.391921 201.555782 
L 50.385279 199.90514 
L 50.374029 198.254498 
L 50.355763 196.603855 
L 50.327277 194.953213 
L 50.284591 193.30257 
L 50.223121 191.651928 
L 50.138055 190.001285 
L 50.024942 188.350643 
L 49.880431 186.7 
L 49.703059 185.049358 
L 49.493897 183.398715 
L 49.256857 181.748073 
L 48.998464 180.09743 
L 48.726984 178.446788 
L 48.450933 176.796146 
L 48.177141 175.145503 
L 47.908705 173.494861 
L 47.64328 171.844218 
L 47.372127 170.193576 
L 47.08029 168.542933 
L 46.748033 166.892291 
L 46.353431 165.241648 
L 45.875743 163.591006 
L 45.299026 161.940363 
L 44.615381 160.289721 
L 43.827281 158.639079 
L 42.948564 156.988436 
L 42.003881 155.337794 
L 41.026567 153.687151 
L 40.055074 152.036509 
L 39.128322 150.385866 
L 38.280531 148.735224 
L 37.536334 147.084581 
L 36.907098 145.433939 
L 36.389355 143.783296 
L 35.965949 142.132654 
L 35.60994 140.482011 
L 35.290638 138.831369 
L 34.980512 137.180727 
L 34.661412 135.530084 
L 34.328633 133.879442 
L 33.991902 132.228799 
L 33.673154 130.578157 
L 33.401766 128.927514 
L 33.208554 127.276872 
L 33.12 125.626229 
L 33.154018 123.975587 
L 33.318033 122.324944 
L 33.609502 120.674302 
L 34.018411 119.02366 
L 34.530858 117.373017 
L 35.132673 115.722375 
L 35.81216 114.071732 
L 36.561344 112.42109 
L 37.375565 110.770447 
L 38.25166 109.119805 
L 39.185339 107.469162 
L 40.168506 105.81852 
L 41.187272 104.167877 
L 42.221225 102.517235 
L 43.244223 100.866592 
L 44.226643 99.21595 
L 45.138697 97.565308 
L 45.954186 95.914665 
L 46.653968 94.264023 
L 47.22845 92.61338 
L 47.678621 90.962738 
L 48.015451 89.312095 
L 48.257795 87.661453 
L 48.429273 86.01081 
L 48.554738 84.360168 
L 48.656996 82.709525 
L 48.754336 81.058883 
L 48.85916 79.40824 
L 48.977775 77.757598 
L 49.111144 76.106956 
L 49.256252 74.456313 
L 49.407699 72.805671 
L 51.392301 72.805671 
L 51.392301 72.805671 
L 51.543748 74.456313 
L 51.688856 76.106956 
L 51.822225 77.757598 
L 51.94084 79.40824 
L 52.045664 81.058883 
L 52.143004 82.709525 
L 52.245262 84.360168 
L 52.370727 86.01081 
L 52.542205 87.661453 
L 52.784549 89.312095 
L 53.121379 90.962738 
L 53.57155 92.61338 
L 54.146032 94.264023 
L 54.845814 95.914665 
L 55.661303 97.565308 
L 56.573357 99.21595 
L 57.555777 100.866592 
L 58.578775 102.517235 
L 59.612728 104.167877 
L 60.631494 105.81852 
L 61.614661 107.469162 
L 62.54834 109.119805 
L 63.424435 110.770447 
L 64.238656 112.42109 
L 64.98784 114.071732 
L 65.667327 115.722375 
L 66.269142 117.373017 
L 66.781589 119.02366 
L 67.190498 120.674302 
L 67.481967 122.324944 
L 67.645982 123.975587 
L 67.68 125.626229 
L 67.591446 127.276872 
L 67.398234 128.927514 
L 67.126846 130.578157 
L 66.808098 132.228799 
L 66.471367 133.879442 
L 66.138588 135.530084 
L 65.819488 137.180727 
L 65.509362 138.831369 
L 65.19006 140.482011 
L 64.834051 142.132654 
L 64.410645 143.783296 
L 63.892902 145.433939 
L 63.263666 147.084581 
L 62.519469 148.735224 
L 61.671678 150.385866 
L 60.744926 152.036509 
L 59.773433 153.687151 
L 58.796119 155.337794 
L 57.851436 156.988436 
L 56.972719 158.639079 
L 56.184619 160.289721 
L 55.500974 161.940363 
L 54.924257 163.591006 
L 54.446569 165.241648 
L 54.051967 166.892291 
L 53.71971 168.542933 
L 53.427873 170.193576 
L 53.15672 171.844218 
L 52.891295 173.494861 
L 52.622859 175.145503 
L 52.349067 176.796146 
L 52.073016 178.446788 
L 51.801536 180.09743 
L 51.543143 181.748073 
L 51.306103 183.398715 
L 51.096941 185.049358 
L 50.919569 186.7 
L 50.775058 188.350643 
L 50.661945 190.001285 
L 50.576879 191.651928 
L 50.515409 193.30257 
L 50.472723 194.953213 
L 50.444237 196.603855 
L 50.425971 198.254498 
L 50.414721 199.90514 
L 50.408079 201.555782 
L 50.404349 203.206425 
L 50.402417 204.857067 
L 50.401619 206.50771 
L 50.401635 208.158352 
L 50.402414 209.808995 
L 50.404136 211.459637 
L 50.407197 213.11028 
L 50.412206 214.760922 
L 50.419968 216.411565 
L 50.431426 218.062207 
L 50.447554 219.71285 
L 50.469179 221.363492 
L 50.496745 223.014134 
L 50.53006 224.664777 
L 50.568085 226.315419 
L 50.608821 227.966062 
L 50.649394 229.616704 
L 50.686326 231.267347 
L 50.71601 232.917989 
L 50.735278 234.568632 
L 50.741958 236.219274 
L 50.741958 236.219274 
z
" clip-path="url(#pbaa013deb9)" style="fill: none; stroke: #000000; stroke-opacity: 0.3"/>
   </g>
   <g id="FillBetweenPolyCollection_2">
    <path d="M 50.830912 319.710368 
L 49.969088 319.710368 
L 49.975256 317.45566 
L 49.993235 315.200952 
L 50.021526 312.946244 
L 50.057859 310.691536 
L 50.099495 308.436828 
L 50.143566 306.18212 
L 50.187393 303.927412 
L 50.22874 301.672704 
L 50.265967 299.417996 
L 50.298082 297.163288 
L 50.324702 294.90858 
L 50.345945 292.653872 
L 50.362286 290.399164 
L 50.37441 288.144456 
L 50.383079 285.889748 
L 50.38903 283.63504 
L 50.392901 281.380332 
L 50.395191 279.125625 
L 50.396235 276.870917 
L 50.396202 274.616209 
L 50.395085 272.361501 
L 50.392706 270.106793 
L 50.388719 267.852085 
L 50.382615 265.597377 
L 50.373748 263.342669 
L 50.361377 261.087961 
L 50.344739 258.833253 
L 50.323158 256.578545 
L 50.296171 254.323837 
L 50.263682 252.069129 
L 50.226095 249.814421 
L 50.184416 247.559713 
L 50.140282 245.305005 
L 50.095887 243.050297 
L 50.05381 240.795589 
L 50.016736 238.540882 
L 49.987102 236.286174 
L 49.966738 234.031466 
L 49.956534 231.776758 
L 49.956217 229.52205 
L 49.96427 227.267342 
L 49.978021 225.012634 
L 49.99388 222.757926 
L 50.007703 220.503218 
L 50.015213 218.24851 
L 50.012427 215.993802 
L 49.996006 213.739094 
L 49.963503 211.484386 
L 49.913463 209.229678 
L 49.845377 206.97497 
L 49.759504 204.720262 
L 49.6566 202.465554 
L 49.537592 200.210846 
L 49.403252 197.956139 
L 49.253903 195.701431 
L 49.089198 193.446723 
L 48.907956 191.192015 
L 48.708057 188.937307 
L 48.486354 186.682599 
L 48.238578 184.427891 
L 47.959222 182.173183 
L 47.64141 179.918475 
L 47.276833 177.663767 
L 46.855827 175.409059 
L 46.36774 173.154351 
L 45.801678 170.899643 
L 45.147703 168.644935 
L 44.398445 166.390227 
L 43.550969 164.135519 
L 42.608637 161.880811 
L 41.582592 159.626103 
L 40.492495 157.371396 
L 39.366209 155.116688 
L 38.238284 152.86198 
L 37.147322 150.607272 
L 36.132546 148.352564 
L 35.230095 146.097856 
L 34.469676 143.843148 
L 33.872138 141.58844 
L 33.448396 139.333732 
L 33.199833 137.079024 
L 33.12 134.824316 
L 33.197186 132.569608 
L 33.417258 130.3149 
L 33.766163 128.060192 
L 34.231633 125.805484 
L 34.803831 123.550776 
L 35.474971 121.296068 
L 36.238153 119.04136 
L 37.085829 116.786652 
L 38.008316 114.531945 
L 38.992761 112.277237 
L 40.022764 110.022529 
L 41.078757 107.767821 
L 42.139021 105.513113 
L 43.181143 103.258405 
L 44.183627 101.003697 
L 45.127419 98.748989 
L 45.997092 96.494281 
L 54.802908 96.494281 
L 54.802908 96.494281 
L 55.672581 98.748989 
L 56.616373 101.003697 
L 57.618857 103.258405 
L 58.660979 105.513113 
L 59.721243 107.767821 
L 60.777236 110.022529 
L 61.807239 112.277237 
L 62.791684 114.531945 
L 63.714171 116.786652 
L 64.561847 119.04136 
L 65.325029 121.296068 
L 65.996169 123.550776 
L 66.568367 125.805484 
L 67.033837 128.060192 
L 67.382742 130.3149 
L 67.602814 132.569608 
L 67.68 134.824316 
L 67.600167 137.079024 
L 67.351604 139.333732 
L 66.927862 141.58844 
L 66.330324 143.843148 
L 65.569905 146.097856 
L 64.667454 148.352564 
L 63.652678 150.607272 
L 62.561716 152.86198 
L 61.433791 155.116688 
L 60.307505 157.371396 
L 59.217408 159.626103 
L 58.191363 161.880811 
L 57.249031 164.135519 
L 56.401555 166.390227 
L 55.652297 168.644935 
L 54.998322 170.899643 
L 54.43226 173.154351 
L 53.944173 175.409059 
L 53.523167 177.663767 
L 53.15859 179.918475 
L 52.840778 182.173183 
L 52.561422 184.427891 
L 52.313646 186.682599 
L 52.091943 188.937307 
L 51.892044 191.192015 
L 51.710802 193.446723 
L 51.546097 195.701431 
L 51.396748 197.956139 
L 51.262408 200.210846 
L 51.1434 202.465554 
L 51.040496 204.720262 
L 50.954623 206.97497 
L 50.886537 209.229678 
L 50.836497 211.484386 
L 50.803994 213.739094 
L 50.787573 215.993802 
L 50.784787 218.24851 
L 50.792297 220.503218 
L 50.80612 222.757926 
L 50.821979 225.012634 
L 50.83573 227.267342 
L 50.843783 229.52205 
L 50.843466 231.776758 
L 50.833262 234.031466 
L 50.812898 236.286174 
L 50.783264 238.540882 
L 50.74619 240.795589 
L 50.704113 243.050297 
L 50.659718 245.305005 
L 50.615584 247.559713 
L 50.573905 249.814421 
L 50.536318 252.069129 
L 50.503829 254.323837 
L 50.476842 256.578545 
L 50.455261 258.833253 
L 50.438623 261.087961 
L 50.426252 263.342669 
L 50.417385 265.597377 
L 50.411281 267.852085 
L 50.407294 270.106793 
L 50.404915 272.361501 
L 50.403798 274.616209 
L 50.403765 276.870917 
L 50.404809 279.125625 
L 50.407099 281.380332 
L 50.41097 283.63504 
L 50.416921 285.889748 
L 50.42559 288.144456 
L 50.437714 290.399164 
L 50.454055 292.653872 
L 50.475298 294.90858 
L 50.501918 297.163288 
L 50.534033 299.417996 
L 50.57126 301.672704 
L 50.612607 303.927412 
L 50.656434 306.18212 
L 50.700505 308.436828 
L 50.742141 310.691536 
L 50.778474 312.946244 
L 50.806765 315.200952 
L 50.824744 317.45566 
L 50.830912 319.710368 
L 50.830912 319.710368 
z
" clip-path="url(#pbaa013deb9)" style="fill: none; stroke: #000000; stroke-opacity: 0.3"/>
   </g>
   <g id="FillBetweenPolyCollection_3">
    <path d="M 50.845226 200.356849 
L 49.954774 200.356849 
L 49.955468 199.25767 
L 49.963275 198.158492 
L 49.976726 197.059313 
L 49.993724 195.960134 
L 50.011666 194.860955 
L 50.027581 193.761777 
L 50.038294 192.662598 
L 50.040582 191.563419 
L 50.031331 190.46424 
L 50.007656 189.365062 
L 49.967011 188.265883 
L 49.907277 187.166704 
L 49.826831 186.067526 
L 49.724617 184.968347 
L 49.600198 183.869168 
L 49.453817 182.769989 
L 49.286432 181.670811 
L 49.099727 180.571632 
L 48.896085 179.472453 
L 48.678484 178.373274 
L 48.450332 177.274096 
L 48.215206 176.174917 
L 47.976533 175.075738 
L 47.737217 173.976559 
L 47.49926 172.877381 
L 47.263432 171.778202 
L 47.02904 170.679023 
L 46.793841 169.579844 
L 46.554141 168.480666 
L 46.305074 167.381487 
L 46.041061 166.282308 
L 45.756382 165.18313 
L 45.445811 164.083951 
L 45.105234 162.984772 
L 44.73217 161.885593 
L 44.326136 160.786415 
L 43.888811 159.687236 
L 43.423983 158.588057 
L 42.937287 157.488878 
L 42.435769 156.3897 
L 41.927322 155.290521 
L 41.420055 154.191342 
L 40.92166 153.092163 
L 40.438825 151.992985 
L 39.97675 150.893806 
L 39.538798 149.794627 
L 39.126304 148.695448 
L 38.738543 147.59627 
L 38.372873 146.497091 
L 38.025021 145.397912 
L 37.689511 144.298734 
L 37.360206 143.199555 
L 37.030925 142.100376 
L 36.696118 141.001197 
L 36.351552 139.902019 
L 35.994941 138.80284 
L 35.626495 137.703661 
L 35.2493 136.604482 
L 34.86948 135.505304 
L 34.496106 134.406125 
L 34.140805 133.306946 
L 33.817091 132.207767 
L 33.539458 131.108589 
L 33.32231 130.00941 
L 33.178842 128.910231 
L 33.12 127.811053 
L 33.153634 126.711874 
L 33.283965 125.612695 
L 33.511408 124.513516 
L 33.832766 123.414338 
L 34.241754 122.315159 
L 34.729748 121.21598 
L 35.286643 120.116801 
L 35.901689 119.017623 
L 36.564184 117.918444 
L 37.263965 116.819265 
L 37.991638 115.720086 
L 38.7386 114.620908 
L 39.49689 113.521729 
L 40.258965 112.42255 
L 41.01748 111.323371 
L 41.765157 110.224193 
L 42.49478 109.125014 
L 43.199325 108.025835 
L 43.872218 106.926657 
L 44.507651 105.827478 
L 45.100913 104.728299 
L 45.648677 103.62912 
L 46.149177 102.529942 
L 46.602262 101.430763 
L 47.009314 100.331584 
L 47.373037 99.232405 
L 47.697152 98.133227 
L 47.986034 97.034048 
L 48.244329 95.934869 
L 48.476603 94.83569 
L 48.687034 93.736512 
L 48.879199 92.637333 
L 49.055935 91.538154 
L 51.744065 91.538154 
L 51.744065 91.538154 
L 51.920801 92.637333 
L 52.112966 93.736512 
L 52.323397 94.83569 
L 52.555671 95.934869 
L 52.813966 97.034048 
L 53.102848 98.133227 
L 53.426963 99.232405 
L 53.790686 100.331584 
L 54.197738 101.430763 
L 54.650823 102.529942 
L 55.151323 103.62912 
L 55.699087 104.728299 
L 56.292349 105.827478 
L 56.927782 106.926657 
L 57.600675 108.025835 
L 58.30522 109.125014 
L 59.034843 110.224193 
L 59.78252 111.323371 
L 60.541035 112.42255 
L 61.30311 113.521729 
L 62.0614 114.620908 
L 62.808362 115.720086 
L 63.536035 116.819265 
L 64.235816 117.918444 
L 64.898311 119.017623 
L 65.513357 120.116801 
L 66.070252 121.21598 
L 66.558246 122.315159 
L 66.967234 123.414338 
L 67.288592 124.513516 
L 67.516035 125.612695 
L 67.646366 126.711874 
L 67.68 127.811053 
L 67.621158 128.910231 
L 67.47769 130.00941 
L 67.260542 131.108589 
L 66.982909 132.207767 
L 66.659195 133.306946 
L 66.303894 134.406125 
L 65.93052 135.505304 
L 65.5507 136.604482 
L 65.173505 137.703661 
L 64.805059 138.80284 
L 64.448448 139.902019 
L 64.103882 141.001197 
L 63.769075 142.100376 
L 63.439794 143.199555 
L 63.110489 144.298734 
L 62.774979 145.397912 
L 62.427127 146.497091 
L 62.061457 147.59627 
L 61.673696 148.695448 
L 61.261202 149.794627 
L 60.82325 150.893806 
L 60.361175 151.992985 
L 59.87834 153.092163 
L 59.379945 154.191342 
L 58.872678 155.290521 
L 58.364231 156.3897 
L 57.862713 157.488878 
L 57.376017 158.588057 
L 56.911189 159.687236 
L 56.473864 160.786415 
L 56.06783 161.885593 
L 55.694766 162.984772 
L 55.354189 164.083951 
L 55.043618 165.18313 
L 54.758939 166.282308 
L 54.494926 167.381487 
L 54.245859 168.480666 
L 54.006159 169.579844 
L 53.77096 170.679023 
L 53.536568 171.778202 
L 53.30074 172.877381 
L 53.062783 173.976559 
L 52.823467 175.075738 
L 52.584794 176.174917 
L 52.349668 177.274096 
L 52.121516 178.373274 
L 51.903915 179.472453 
L 51.700273 180.571632 
L 51.513568 181.670811 
L 51.346183 182.769989 
L 51.199802 183.869168 
L 51.075383 184.968347 
L 50.973169 186.067526 
L 50.892723 187.166704 
L 50.832989 188.265883 
L 50.792344 189.365062 
L 50.768669 190.46424 
L 50.759418 191.563419 
L 50.761706 192.662598 
L 50.772419 193.761777 
L 50.788334 194.860955 
L 50.806276 195.960134 
L 50.823274 197.059313 
L 50.836725 198.158492 
L 50.844532 199.25767 
L 50.845226 200.356849 
L 50.845226 200.356849 
z
" clip-path="url(#pbaa013deb9)" style="fill: none; stroke: #000000; stroke-opacity: 0.3"/>
   </g>
   <g id="FillBetweenPolyCollection_4">
    <path d="M 50.84902 182.46995 
L 49.95098 182.46995 
L 49.939003 181.478928 
L 49.928382 180.487905 
L 49.916593 179.496883 
L 49.900429 178.50586 
L 49.876129 177.514838 
L 49.839561 176.523816 
L 49.786456 175.532793 
L 49.71268 174.541771 
L 49.614518 173.550748 
L 49.48896 172.559726 
L 49.33396 171.568703 
L 49.148645 170.577681 
L 48.933445 169.586659 
L 48.690141 168.595636 
L 48.421788 167.604614 
L 48.132541 166.613591 
L 47.827367 165.622569 
L 47.511673 164.631546 
L 47.190886 163.640524 
L 46.870014 162.649502 
L 46.553247 161.658479 
L 46.243623 160.667457 
L 45.942816 159.676434 
L 45.651041 158.685412 
L 45.367099 157.694389 
L 45.088538 156.703367 
L 44.811902 155.712344 
L 44.533034 154.721322 
L 44.247392 153.7303 
L 43.950342 152.739277 
L 43.637408 151.748255 
L 43.304469 150.757232 
L 42.947921 149.76621 
L 42.564803 148.775187 
L 42.15293 147.784165 
L 41.711037 146.793143 
L 41.238953 145.80212 
L 40.737791 144.811098 
L 40.210131 143.820075 
L 39.660159 142.829053 
L 39.0937 141.83803 
L 38.518129 140.847008 
L 37.9421 139.855986 
L 37.375108 138.864963 
L 36.826897 137.873941 
L 36.306773 136.882918 
L 35.822902 135.891896 
L 35.381671 134.900873 
L 34.987217 133.909851 
L 34.641185 132.918829 
L 34.342766 131.927806 
L 34.089003 130.936784 
L 33.875356 129.945761 
L 33.696431 128.954739 
L 33.54679 127.963716 
L 33.421746 126.972694 
L 33.318032 125.981672 
L 33.23427 124.990649 
L 33.171191 123.999627 
L 33.131585 123.008604 
L 33.12 122.017582 
L 33.142223 121.026559 
L 33.204628 120.035537 
L 33.313442 119.044515 
L 33.474033 118.053492 
L 33.690284 117.06247 
L 33.964108 116.071447 
L 34.295166 115.080425 
L 34.680799 114.089402 
L 35.116176 113.09838 
L 35.59464 112.107357 
L 36.108204 111.116335 
L 36.64815 110.125313 
L 37.205651 109.13429 
L 37.772365 108.143268 
L 38.340925 107.152245 
L 38.905301 106.161223 
L 39.460981 105.1702 
L 40.004987 104.179178 
L 40.535746 103.188156 
L 41.052824 102.197133 
L 41.55661 101.206111 
L 42.047963 100.215088 
L 42.527897 99.224066 
L 42.997319 98.233043 
L 43.45686 97.242021 
L 43.906789 96.250999 
L 44.347004 95.259976 
L 44.777091 94.268954 
L 45.196405 93.277931 
L 45.604164 92.286909 
L 45.999527 91.295886 
L 46.381643 90.304864 
L 46.749675 89.313842 
L 47.102797 88.322819 
L 47.440174 87.331797 
L 47.76095 86.340774 
L 48.064241 85.349752 
L 48.34915 84.358729 
L 52.45085 84.358729 
L 52.45085 84.358729 
L 52.735759 85.349752 
L 53.03905 86.340774 
L 53.359826 87.331797 
L 53.697203 88.322819 
L 54.050325 89.313842 
L 54.418357 90.304864 
L 54.800473 91.295886 
L 55.195836 92.286909 
L 55.603595 93.277931 
L 56.022909 94.268954 
L 56.452996 95.259976 
L 56.893211 96.250999 
L 57.34314 97.242021 
L 57.802681 98.233043 
L 58.272103 99.224066 
L 58.752037 100.215088 
L 59.24339 101.206111 
L 59.747176 102.197133 
L 60.264254 103.188156 
L 60.795013 104.179178 
L 61.339019 105.1702 
L 61.894699 106.161223 
L 62.459075 107.152245 
L 63.027635 108.143268 
L 63.594349 109.13429 
L 64.15185 110.125313 
L 64.691796 111.116335 
L 65.20536 112.107357 
L 65.683824 113.09838 
L 66.119201 114.089402 
L 66.504834 115.080425 
L 66.835892 116.071447 
L 67.109716 117.06247 
L 67.325967 118.053492 
L 67.486558 119.044515 
L 67.595372 120.035537 
L 67.657777 121.026559 
L 67.68 122.017582 
L 67.668415 123.008604 
L 67.628809 123.999627 
L 67.56573 124.990649 
L 67.481968 125.981672 
L 67.378254 126.972694 
L 67.25321 127.963716 
L 67.103569 128.954739 
L 66.924644 129.945761 
L 66.710997 130.936784 
L 66.457234 131.927806 
L 66.158815 132.918829 
L 65.812783 133.909851 
L 65.418329 134.900873 
L 64.977098 135.891896 
L 64.493227 136.882918 
L 63.973103 137.873941 
L 63.424892 138.864963 
L 62.8579 139.855986 
L 62.281871 140.847008 
L 61.7063 141.83803 
L 61.139841 142.829053 
L 60.589869 143.820075 
L 60.062209 144.811098 
L 59.561047 145.80212 
L 59.088963 146.793143 
L 58.64707 147.784165 
L 58.235197 148.775187 
L 57.852079 149.76621 
L 57.495531 150.757232 
L 57.162592 151.748255 
L 56.849658 152.739277 
L 56.552608 153.7303 
L 56.266966 154.721322 
L 55.988098 155.712344 
L 55.711462 156.703367 
L 55.432901 157.694389 
L 55.148959 158.685412 
L 54.857184 159.676434 
L 54.556377 160.667457 
L 54.246753 161.658479 
L 53.929986 162.649502 
L 53.609114 163.640524 
L 53.288327 164.631546 
L 52.972633 165.622569 
L 52.667459 166.613591 
L 52.378212 167.604614 
L 52.109859 168.595636 
L 51.866555 169.586659 
L 51.651355 170.577681 
L 51.46604 171.568703 
L 51.31104 172.559726 
L 51.185482 173.550748 
L 51.08732 174.541771 
L 51.013544 175.532793 
L 50.960439 176.523816 
L 50.923871 177.514838 
L 50.899571 178.50586 
L 50.883407 179.496883 
L 50.871618 180.487905 
L 50.860997 181.478928 
L 50.84902 182.46995 
L 50.84902 182.46995 
z
" clip-path="url(#pbaa013deb9)" style="fill: none; stroke: #000000; stroke-opacity: 0.3"/>
   </g>
   <g id="FillBetweenPolyCollection_5">
    <path d="M 109.22096 201.033239 
L 106.77904 201.033239 
L 106.652061 199.999545 
L 106.521193 198.965852 
L 106.386613 197.932159 
L 106.248311 196.898465 
L 106.106091 195.864772 
L 105.959581 194.831078 
L 105.808239 193.797385 
L 105.651381 192.763692 
L 105.488193 191.729998 
L 105.317747 190.696305 
L 105.139019 189.662612 
L 104.950894 188.628918 
L 104.752168 187.595225 
L 104.541558 186.561531 
L 104.317693 185.527838 
L 104.079115 184.494145 
L 103.824282 183.460451 
L 103.551564 182.426758 
L 103.259268 181.393065 
L 102.945658 180.359371 
L 102.609002 179.325678 
L 102.247648 178.291984 
L 101.860114 177.258291 
L 101.445206 176.224598 
L 101.00216 175.190904 
L 100.530783 174.157211 
L 100.03159 173.123518 
L 99.505926 172.089824 
L 98.956043 171.056131 
L 98.385128 170.022437 
L 97.797284 168.988744 
L 97.197442 167.955051 
L 96.591225 166.921357 
L 95.984783 165.887664 
L 95.384598 164.853971 
L 94.797286 163.820277 
L 94.229424 162.786584 
L 93.687386 161.75289 
L 93.177214 160.719197 
L 92.704516 159.685504 
L 92.274373 158.65181 
L 91.89125 157.618117 
L 91.558897 156.584424 
L 91.280238 155.55073 
L 91.057236 154.517037 
L 90.890752 153.483343 
L 90.780414 152.44965 
L 90.724518 151.415957 
L 90.72 150.382263 
L 90.762492 149.34857 
L 90.846502 148.314877 
L 90.965706 147.281183 
L 91.113363 146.24749 
L 91.282812 145.213796 
L 91.468021 144.180103 
L 91.664121 143.14641 
L 91.867871 142.112716 
L 92.07799 141.079023 
L 92.295306 140.04533 
L 92.522702 139.011636 
L 92.764837 137.977943 
L 93.027672 136.944249 
L 93.317849 135.910556 
L 93.641972 134.876863 
L 94.005885 133.843169 
L 94.414002 132.809476 
L 94.868766 131.775783 
L 95.370288 130.742089 
L 95.916191 129.708396 
L 96.501662 128.674702 
L 97.119694 127.641009 
L 97.761493 126.607316 
L 98.416991 125.573622 
L 99.075414 124.539929 
L 99.725868 123.506236 
L 100.357891 122.472542 
L 100.961938 121.438849 
L 101.529782 120.405155 
L 102.054815 119.371462 
L 102.532247 118.337769 
L 102.959207 117.304075 
L 103.334752 116.270382 
L 103.659784 115.236689 
L 103.936904 114.202995 
L 104.170189 113.169302 
L 104.364928 112.135608 
L 104.527309 111.101915 
L 104.664087 110.068222 
L 104.782233 109.034528 
L 104.888593 108.000835 
L 104.989567 106.967142 
L 105.090824 105.933448 
L 105.197071 104.899755 
L 105.311879 103.866061 
L 105.43759 102.832368 
L 105.575289 101.798675 
L 105.724865 100.764981 
L 105.885122 99.731288 
L 106.053966 98.697595 
L 109.946034 98.697595 
L 109.946034 98.697595 
L 110.114878 99.731288 
L 110.275135 100.764981 
L 110.424711 101.798675 
L 110.56241 102.832368 
L 110.688121 103.866061 
L 110.802929 104.899755 
L 110.909176 105.933448 
L 111.010433 106.967142 
L 111.111407 108.000835 
L 111.217767 109.034528 
L 111.335913 110.068222 
L 111.472691 111.101915 
L 111.635072 112.135608 
L 111.829811 113.169302 
L 112.063096 114.202995 
L 112.340216 115.236689 
L 112.665248 116.270382 
L 113.040793 117.304075 
L 113.467753 118.337769 
L 113.945185 119.371462 
L 114.470218 120.405155 
L 115.038062 121.438849 
L 115.642109 122.472542 
L 116.274132 123.506236 
L 116.924586 124.539929 
L 117.583009 125.573622 
L 118.238507 126.607316 
L 118.880306 127.641009 
L 119.498338 128.674702 
L 120.083809 129.708396 
L 120.629712 130.742089 
L 121.131234 131.775783 
L 121.585998 132.809476 
L 121.994115 133.843169 
L 122.358028 134.876863 
L 122.682151 135.910556 
L 122.972328 136.944249 
L 123.235163 137.977943 
L 123.477298 139.011636 
L 123.704694 140.04533 
L 123.92201 141.079023 
L 124.132129 142.112716 
L 124.335879 143.14641 
L 124.531979 144.180103 
L 124.717188 145.213796 
L 124.886637 146.24749 
L 125.034294 147.281183 
L 125.153498 148.314877 
L 125.237508 149.34857 
L 125.28 150.382263 
L 125.275482 151.415957 
L 125.219586 152.44965 
L 125.109248 153.483343 
L 124.942764 154.517037 
L 124.719762 155.55073 
L 124.441103 156.584424 
L 124.10875 157.618117 
L 123.725627 158.65181 
L 123.295484 159.685504 
L 122.822786 160.719197 
L 122.312614 161.75289 
L 121.770576 162.786584 
L 121.202714 163.820277 
L 120.615402 164.853971 
L 120.015217 165.887664 
L 119.408775 166.921357 
L 118.802558 167.955051 
L 118.202716 168.988744 
L 117.614872 170.022437 
L 117.043957 171.056131 
L 116.494074 172.089824 
L 115.96841 173.123518 
L 115.469217 174.157211 
L 114.99784 175.190904 
L 114.554794 176.224598 
L 114.139886 177.258291 
L 113.752352 178.291984 
L 113.390998 179.325678 
L 113.054342 180.359371 
L 112.740732 181.393065 
L 112.448436 182.426758 
L 112.175718 183.460451 
L 111.920885 184.494145 
L 111.682307 185.527838 
L 111.458442 186.561531 
L 111.247832 187.595225 
L 111.049106 188.628918 
L 110.860981 189.662612 
L 110.682253 190.696305 
L 110.511807 191.729998 
L 110.348619 192.763692 
L 110.191761 193.797385 
L 110.040419 194.831078 
L 109.893909 195.864772 
L 109.751689 196.898465 
L 109.613387 197.932159 
L 109.478807 198.965852 
L 109.347939 199.999545 
L 109.22096 201.033239 
L 109.22096 201.033239 
z
" clip-path="url(#pbaa013deb9)" style="fill: none; stroke: #000000; stroke-opacity: 0.3"/>
   </g>
   <g id="FillBetweenPolyCollection_6">
    <path d="M 112.806715 183.904124 
L 103.193285 183.904124 
L 102.928056 183.108973 
L 102.674562 182.313823 
L 102.435216 181.518672 
L 102.212209 180.723521 
L 102.007453 179.928371 
L 101.822551 179.13322 
L 101.658753 178.33807 
L 101.51693 177.542919 
L 101.397558 176.747769 
L 101.300695 175.952618 
L 101.225976 175.157467 
L 101.172605 174.362317 
L 101.139356 173.567166 
L 101.124575 172.772016 
L 101.126187 171.976865 
L 101.141706 171.181714 
L 101.168255 170.386564 
L 101.202587 169.591413 
L 101.241112 168.796263 
L 101.279943 168.001112 
L 101.314936 167.205962 
L 101.341757 166.410811 
L 101.35595 165.61566 
L 101.35302 164.82051 
L 101.328525 164.025359 
L 101.278181 163.230209 
L 101.197972 162.435058 
L 101.084263 161.639907 
L 100.933911 160.844757 
L 100.744384 160.049606 
L 100.513854 159.254456 
L 100.24129 158.459305 
L 99.926532 157.664155 
L 99.570338 156.869004 
L 99.174409 156.073853 
L 98.74139 155.278703 
L 98.274842 154.483552 
L 97.779178 153.688402 
L 97.259582 152.893251 
L 96.721899 152.0981 
L 96.172503 151.30295 
L 95.618146 150.507799 
L 95.065804 149.712649 
L 94.522507 148.917498 
L 93.995179 148.122348 
L 93.49047 147.327197 
L 93.01462 146.532046 
L 92.573316 145.736896 
L 92.171587 144.941745 
L 91.813712 144.146595 
L 91.503155 143.351444 
L 91.242529 142.556293 
L 91.033575 141.761143 
L 90.877175 140.965992 
L 90.773384 140.170842 
L 90.721473 139.375691 
L 90.72 138.580541 
L 90.766882 137.78539 
L 90.859487 136.990239 
L 90.994723 136.195089 
L 91.169136 135.399938 
L 91.379009 134.604788 
L 91.620456 133.809637 
L 91.889515 133.014486 
L 92.182239 132.219336 
L 92.494775 131.424185 
L 92.82344 130.629035 
L 93.16479 129.833884 
L 93.515672 129.038734 
L 93.873277 128.243583 
L 94.235168 127.448432 
L 94.599313 126.653282 
L 94.964087 125.858131 
L 95.328277 125.062981 
L 95.691068 124.26783 
L 96.052012 123.472679 
L 96.410996 122.677529 
L 96.768194 121.882378 
L 97.124006 121.087228 
L 97.479005 120.292077 
L 97.833865 119.496927 
L 98.189297 118.701776 
L 98.545987 117.906625 
L 98.90453 117.111475 
L 99.265383 116.316324 
L 99.628818 115.521174 
L 99.994888 114.726023 
L 100.363404 113.930872 
L 100.733931 113.135722 
L 101.105785 112.340571 
L 101.478048 111.545421 
L 101.849593 110.75027 
L 102.219121 109.95512 
L 102.585192 109.159969 
L 102.946278 108.364818 
L 103.300803 107.569668 
L 103.647194 106.774517 
L 103.983922 105.979367 
L 104.309547 105.184216 
L 111.690453 105.184216 
L 111.690453 105.184216 
L 112.016078 105.979367 
L 112.352806 106.774517 
L 112.699197 107.569668 
L 113.053722 108.364818 
L 113.414808 109.159969 
L 113.780879 109.95512 
L 114.150407 110.75027 
L 114.521952 111.545421 
L 114.894215 112.340571 
L 115.266069 113.135722 
L 115.636596 113.930872 
L 116.005112 114.726023 
L 116.371182 115.521174 
L 116.734617 116.316324 
L 117.09547 117.111475 
L 117.454013 117.906625 
L 117.810703 118.701776 
L 118.166135 119.496927 
L 118.520995 120.292077 
L 118.875994 121.087228 
L 119.231806 121.882378 
L 119.589004 122.677529 
L 119.947988 123.472679 
L 120.308932 124.26783 
L 120.671723 125.062981 
L 121.035913 125.858131 
L 121.400687 126.653282 
L 121.764832 127.448432 
L 122.126723 128.243583 
L 122.484328 129.038734 
L 122.83521 129.833884 
L 123.17656 130.629035 
L 123.505225 131.424185 
L 123.817761 132.219336 
L 124.110485 133.014486 
L 124.379544 133.809637 
L 124.620991 134.604788 
L 124.830864 135.399938 
L 125.005277 136.195089 
L 125.140513 136.990239 
L 125.233118 137.78539 
L 125.28 138.580541 
L 125.278527 139.375691 
L 125.226616 140.170842 
L 125.122825 140.965992 
L 124.966425 141.761143 
L 124.757471 142.556293 
L 124.496845 143.351444 
L 124.186288 144.146595 
L 123.828413 144.941745 
L 123.426684 145.736896 
L 122.98538 146.532046 
L 122.50953 147.327197 
L 122.004821 148.122348 
L 121.477493 148.917498 
L 120.934196 149.712649 
L 120.381854 150.507799 
L 119.827497 151.30295 
L 119.278101 152.0981 
L 118.740418 152.893251 
L 118.220822 153.688402 
L 117.725158 154.483552 
L 117.25861 155.278703 
L 116.825591 156.073853 
L 116.429662 156.869004 
L 116.073468 157.664155 
L 115.75871 158.459305 
L 115.486146 159.254456 
L 115.255616 160.049606 
L 115.066089 160.844757 
L 114.915737 161.639907 
L 114.802028 162.435058 
L 114.721819 163.230209 
L 114.671475 164.025359 
L 114.64698 164.82051 
L 114.64405 165.61566 
L 114.658243 166.410811 
L 114.685064 167.205962 
L 114.720057 168.001112 
L 114.758888 168.796263 
L 114.797413 169.591413 
L 114.831745 170.386564 
L 114.858294 171.181714 
L 114.873813 171.976865 
L 114.875425 172.772016 
L 114.860644 173.567166 
L 114.827395 174.362317 
L 114.774024 175.157467 
L 114.699305 175.952618 
L 114.602442 176.747769 
L 114.48307 177.542919 
L 114.341247 178.33807 
L 114.177449 179.13322 
L 113.992547 179.928371 
L 113.787791 180.723521 
L 113.564784 181.518672 
L 113.325438 182.313823 
L 113.071944 183.108973 
L 112.806715 183.904124 
L 112.806715 183.904124 
z
" clip-path="url(#pbaa013deb9)" style="fill: none; stroke: #000000; stroke-opacity: 0.3"/>
   </g>
   <g id="FillBetweenPolyCollection_7">
    <path d="M 108.474313 209.527573 
L 107.525687 209.527573 
L 107.505932 208.463402 
L 107.485697 207.399231 
L 107.462371 206.335059 
L 107.432778 205.270888 
L 107.39333 204.206717 
L 107.340244 203.142545 
L 107.269789 202.078374 
L 107.178553 201.014202 
L 107.063718 199.950031 
L 106.923298 198.88586 
L 106.756339 197.821688 
L 106.563047 196.757517 
L 106.344829 195.693346 
L 106.104233 194.629174 
L 105.844791 193.565003 
L 105.570765 192.500832 
L 105.286812 191.43666 
L 104.997596 190.372489 
L 104.707386 189.308318 
L 104.419667 188.244146 
L 104.136812 187.179975 
L 103.859842 186.115803 
L 103.588305 185.051632 
L 103.320272 183.987461 
L 103.052464 182.923289 
L 102.780488 181.859118 
L 102.499164 180.794947 
L 102.202907 179.730775 
L 101.886154 178.666604 
L 101.543789 177.602433 
L 101.171556 176.538261 
L 100.766432 175.47409 
L 100.326955 174.409918 
L 99.853462 173.345747 
L 99.348243 172.281576 
L 98.815563 171.217404 
L 98.261559 170.153233 
L 97.693969 169.089062 
L 97.121717 168.02489 
L 96.554359 166.960719 
L 96.001439 165.896548 
L 95.4718 164.832376 
L 94.972943 163.768205 
L 94.510494 162.704034 
L 94.087851 161.639862 
L 93.706074 160.575691 
L 93.364009 159.511519 
L 93.058654 158.447348 
L 92.785695 157.383177 
L 92.540143 156.319005 
L 92.316984 155.254834 
L 92.111747 154.190663 
L 91.920921 153.126491 
L 91.742191 152.06232 
L 91.574466 150.998149 
L 91.417756 149.933977 
L 91.272915 148.869806 
L 91.141346 147.805634 
L 91.024708 146.741463 
L 90.92469 145.677292 
L 90.842867 144.61312 
L 90.78065 143.548949 
L 90.739304 142.484778 
L 90.72 141.420606 
L 90.72387 140.356435 
L 90.752034 139.292264 
L 90.80558 138.228092 
L 90.885513 137.163921 
L 90.99268 136.09975 
L 91.127724 135.035578 
L 91.291072 133.971407 
L 91.483013 132.907235 
L 91.703831 131.843064 
L 91.954012 130.778893 
L 92.234457 129.714721 
L 92.546658 128.65055 
L 92.892784 127.586379 
L 93.275611 126.522207 
L 93.698295 125.458036 
L 94.163968 124.393865 
L 94.675215 123.329693 
L 95.233484 122.265522 
L 95.838526 121.20135 
L 96.487949 120.137179 
L 97.176975 119.073008 
L 97.89844 118.008836 
L 98.643064 116.944665 
L 99.399963 115.880494 
L 100.157345 114.816322 
L 100.903303 113.752151 
L 101.626604 112.68798 
L 102.31739 111.623808 
L 102.967697 110.559637 
L 103.571772 109.495466 
L 104.126146 108.431294 
L 104.629507 107.367123 
L 105.0824 106.302951 
L 105.48682 105.23878 
L 105.845774 104.174609 
L 110.154226 104.174609 
L 110.154226 104.174609 
L 110.51318 105.23878 
L 110.9176 106.302951 
L 111.370493 107.367123 
L 111.873854 108.431294 
L 112.428228 109.495466 
L 113.032303 110.559637 
L 113.68261 111.623808 
L 114.373396 112.68798 
L 115.096697 113.752151 
L 115.842655 114.816322 
L 116.600037 115.880494 
L 117.356936 116.944665 
L 118.10156 118.008836 
L 118.823025 119.073008 
L 119.512051 120.137179 
L 120.161474 121.20135 
L 120.766516 122.265522 
L 121.324785 123.329693 
L 121.836032 124.393865 
L 122.301705 125.458036 
L 122.724389 126.522207 
L 123.107216 127.586379 
L 123.453342 128.65055 
L 123.765543 129.714721 
L 124.045988 130.778893 
L 124.296169 131.843064 
L 124.516987 132.907235 
L 124.708928 133.971407 
L 124.872276 135.035578 
L 125.00732 136.09975 
L 125.114487 137.163921 
L 125.19442 138.228092 
L 125.247966 139.292264 
L 125.27613 140.356435 
L 125.28 141.420606 
L 125.260696 142.484778 
L 125.21935 143.548949 
L 125.157133 144.61312 
L 125.07531 145.677292 
L 124.975292 146.741463 
L 124.858654 147.805634 
L 124.727085 148.869806 
L 124.582244 149.933977 
L 124.425534 150.998149 
L 124.257809 152.06232 
L 124.079079 153.126491 
L 123.888253 154.190663 
L 123.683016 155.254834 
L 123.459857 156.319005 
L 123.214305 157.383177 
L 122.941346 158.447348 
L 122.635991 159.511519 
L 122.293926 160.575691 
L 121.912149 161.639862 
L 121.489506 162.704034 
L 121.027057 163.768205 
L 120.5282 164.832376 
L 119.998561 165.896548 
L 119.445641 166.960719 
L 118.878283 168.02489 
L 118.306031 169.089062 
L 117.738441 170.153233 
L 117.184437 171.217404 
L 116.651757 172.281576 
L 116.146538 173.345747 
L 115.673045 174.409918 
L 115.233568 175.47409 
L 114.828444 176.538261 
L 114.456211 177.602433 
L 114.113846 178.666604 
L 113.797093 179.730775 
L 113.500836 180.794947 
L 113.219512 181.859118 
L 112.947536 182.923289 
L 112.679728 183.987461 
L 112.411695 185.051632 
L 112.140158 186.115803 
L 111.863188 187.179975 
L 111.580333 188.244146 
L 111.292614 189.308318 
L 111.002404 190.372489 
L 110.713188 191.43666 
L 110.429235 192.500832 
L 110.155209 193.565003 
L 109.895767 194.629174 
L 109.655171 195.693346 
L 109.436953 196.757517 
L 109.243661 197.821688 
L 109.076702 198.88586 
L 108.936282 199.950031 
L 108.821447 201.014202 
L 108.730211 202.078374 
L 108.659756 203.142545 
L 108.60667 204.206717 
L 108.567222 205.270888 
L 108.537629 206.335059 
L 108.514303 207.399231 
L 108.494068 208.463402 
L 108.474313 209.527573 
L 108.474313 209.527573 
z
" clip-path="url(#pbaa013deb9)" style="fill: none; stroke: #000000; stroke-opacity: 0.3"/>
   </g>
   <g id="FillBetweenPolyCollection_8">
    <path d="M 108.496988 209.563201 
L 107.503012 209.563201 
L 107.474618 208.53046 
L 107.444553 207.497718 
L 107.410652 206.464977 
L 107.370443 205.432236 
L 107.32132 204.399494 
L 107.260755 203.366753 
L 107.186501 202.334011 
L 107.096784 201.30127 
L 106.990445 200.268528 
L 106.867029 199.235787 
L 106.726793 198.203045 
L 106.570652 197.170304 
L 106.400036 196.137562 
L 106.216711 195.104821 
L 106.022548 194.072079 
L 105.81929 193.039338 
L 105.608324 192.006597 
L 105.390491 190.973855 
L 105.16595 189.941114 
L 104.93411 188.908372 
L 104.693629 187.875631 
L 104.442495 186.842889 
L 104.178173 185.810148 
L 103.897809 184.777406 
L 103.59848 183.744665 
L 103.277471 182.711923 
L 102.932559 181.679182 
L 102.562286 180.64644 
L 102.166188 179.613699 
L 101.744974 178.580958 
L 101.300613 177.548216 
L 100.836339 176.515475 
L 100.356533 175.482733 
L 99.866516 174.449992 
L 99.372224 173.41725 
L 98.879816 172.384509 
L 98.395232 171.351767 
L 97.92374 170.319026 
L 97.469516 169.286284 
L 97.03532 168.253543 
L 96.622279 167.220801 
L 96.229837 166.18806 
L 95.855877 165.155319 
L 95.497009 164.122577 
L 95.149006 163.089836 
L 94.80735 162.057094 
L 94.467822 161.024353 
L 94.127078 159.991611 
L 93.783145 158.95887 
L 93.435772 157.926128 
L 93.086603 156.893387 
L 92.739153 155.860645 
L 92.398584 154.827904 
L 92.071326 153.795162 
L 91.764573 152.762421 
L 91.48573 151.72968 
L 91.241862 150.696938 
L 91.039213 149.664197 
L 90.882834 148.631455 
L 90.776348 147.598714 
L 90.721858 146.565972 
L 90.72 145.533231 
L 90.770104 144.500489 
L 90.870434 143.467748 
L 91.018467 142.435006 
L 91.211186 141.402265 
L 91.445338 140.369523 
L 91.717647 139.336782 
L 92.024962 138.304041 
L 92.364338 137.271299 
L 92.733057 136.238558 
L 93.12859 135.205816 
L 93.548532 134.173075 
L 93.990508 133.140333 
L 94.452091 132.107592 
L 94.930735 131.07485 
L 95.423745 130.042109 
L 95.928292 129.009367 
L 96.441474 127.976626 
L 96.960412 126.943884 
L 97.482379 125.911143 
L 98.004926 124.878402 
L 98.525997 123.84566 
L 99.043994 122.812919 
L 99.557794 121.780177 
L 100.06669 120.747436 
L 100.570275 119.714694 
L 101.068274 118.681953 
L 101.560353 117.649211 
L 102.045932 116.61647 
L 102.524035 115.583728 
L 102.993196 114.550987 
L 103.451441 113.518245 
L 103.896348 112.485504 
L 104.325177 111.452763 
L 104.735047 110.420021 
L 105.123138 109.38728 
L 105.486896 108.354538 
L 105.824204 107.321797 
L 110.175796 107.321797 
L 110.175796 107.321797 
L 110.513104 108.354538 
L 110.876862 109.38728 
L 111.264953 110.420021 
L 111.674823 111.452763 
L 112.103652 112.485504 
L 112.548559 113.518245 
L 113.006804 114.550987 
L 113.475965 115.583728 
L 113.954068 116.61647 
L 114.439647 117.649211 
L 114.931726 118.681953 
L 115.429725 119.714694 
L 115.93331 120.747436 
L 116.442206 121.780177 
L 116.956006 122.812919 
L 117.474003 123.84566 
L 117.995074 124.878402 
L 118.517621 125.911143 
L 119.039588 126.943884 
L 119.558526 127.976626 
L 120.071708 129.009367 
L 120.576255 130.042109 
L 121.069265 131.07485 
L 121.547909 132.107592 
L 122.009492 133.140333 
L 122.451468 134.173075 
L 122.87141 135.205816 
L 123.266943 136.238558 
L 123.635662 137.271299 
L 123.975038 138.304041 
L 124.282353 139.336782 
L 124.554662 140.369523 
L 124.788814 141.402265 
L 124.981533 142.435006 
L 125.129566 143.467748 
L 125.229896 144.500489 
L 125.28 145.533231 
L 125.278142 146.565972 
L 125.223652 147.598714 
L 125.117166 148.631455 
L 124.960787 149.664197 
L 124.758138 150.696938 
L 124.51427 151.72968 
L 124.235427 152.762421 
L 123.928674 153.795162 
L 123.601416 154.827904 
L 123.260847 155.860645 
L 122.913397 156.893387 
L 122.564228 157.926128 
L 122.216855 158.95887 
L 121.872922 159.991611 
L 121.532178 161.024353 
L 121.19265 162.057094 
L 120.850994 163.089836 
L 120.502991 164.122577 
L 120.144123 165.155319 
L 119.770163 166.18806 
L 119.377721 167.220801 
L 118.96468 168.253543 
L 118.530484 169.286284 
L 118.07626 170.319026 
L 117.604768 171.351767 
L 117.120184 172.384509 
L 116.627776 173.41725 
L 116.133484 174.449992 
L 115.643467 175.482733 
L 115.163661 176.515475 
L 114.699387 177.548216 
L 114.255026 178.580958 
L 113.833812 179.613699 
L 113.437714 180.64644 
L 113.067441 181.679182 
L 112.722529 182.711923 
L 112.40152 183.744665 
L 112.102191 184.777406 
L 111.821827 185.810148 
L 111.557505 186.842889 
L 111.306371 187.875631 
L 111.06589 188.908372 
L 110.83405 189.941114 
L 110.609509 190.973855 
L 110.391676 192.006597 
L 110.18071 193.039338 
L 109.977452 194.072079 
L 109.783289 195.104821 
L 109.599964 196.137562 
L 109.429348 197.170304 
L 109.273207 198.203045 
L 109.132971 199.235787 
L 109.009555 200.268528 
L 108.903216 201.30127 
L 108.813499 202.334011 
L 108.739245 203.366753 
L 108.67868 204.399494 
L 108.629557 205.432236 
L 108.589348 206.464977 
L 108.555447 207.497718 
L 108.525382 208.53046 
L 108.496988 209.563201 
L 108.496988 209.563201 
z
" clip-path="url(#pbaa013deb9)" style="fill: none; stroke: #000000; stroke-opacity: 0.3"/>
   </g>
   <g id="matplotlib.axis_1">
    <g id="xtick_1">
     <g id="line2d_1">
      <defs>
       <path id="me7fb49068c" d="M 0 0 
L 0 3.5 
" style="stroke: #000000; stroke-width: 0.8"/>
      </defs>
      <g>
       <use xlink:href="#me7fb49068c" x="50.4" y="291.6" style="stroke: #000000; stroke-width: 0.8"/>
      </g>
     </g>
     <g id="text_1">
      <text style="font-size: 10px; font-family: 'DejaVu Sans', 'Bitstream Vera Sans', 'Computer Modern Sans Serif', 'Lucida Grande', 'Verdana', 'Geneva', 'Lucid', 'Arial', 'Helvetica', 'Avant Garde', sans-serif; text-anchor: middle" x="50.4" y="306.198438" transform="rotate(-0 50.4 306.198438)">0.3</text>
     </g>
    </g>
    <g id="xtick_2">
     <g id="line2d_2">
      <g>
       <use xlink:href="#me7fb49068c" x="108" y="291.6" style="stroke: #000000; stroke-width: 0.8"/>
      </g>
     </g>
     <g id="text_2">
      <text style="font-size: 10px; font-family: 'DejaVu Sans', 'Bitstream Vera Sans', 'Computer Modern Sans Serif', 'Lucida Grande', 'Verdana', 'Geneva', 'Lucid', 'Arial', 'Helvetica', 'Avant Garde', sans-serif; text-anchor: middle" x="108" y="306.198438" transform="rotate(-0 108 306.198438)">0.6</text>
     </g>
    </g>
   </g>
   <g id="matplotlib.axis_2">
    <g id="ytick_1">
     <g id="line2d_3">
      <defs>
       <path id="m575444469a" d="M 0 0 
L -3.5 0 
" style="stroke: #000000; stroke-width: 0.8"/>
      </defs>
      <g>
       <use xlink:href="#m575444469a" x="21.6" y="291.6" style="stroke: #000000; stroke-width: 0.8"/>
      </g>
     </g>
    </g>
    <g id="ytick_2">
     <g id="line2d_4">
      <g>
       <use xlink:href="#m575444469a" x="21.6" y="199.8" style="stroke: #000000; stroke-width: 0.8"/>
      </g>
     </g>
    </g>
    <g id="ytick_3">
     <g id="line2d_5">
      <g>
       <use xlink:href="#m575444469a" x="21.6" y="108" style="stroke: #000000; stroke-width: 0.8"/>
      </g>
     </g>
    </g>
    <g id="ytick_4">
     <g id="line2d_6">
      <g>
       <use xlink:href="#m575444469a" x="21.6" y="16.2" style="stroke: #000000; stroke-width: 0.8"/>
      </g>
     </g>
    </g>
   </g>
   <g id="line2d_7">
    <path d="M 50.4 269.568 
L 50.4 264.06 
" clip-path="url(#pbaa013deb9)" style="fill: none; stroke: #000000; stroke-linecap: square"/>
   </g>
   <g id="line2d_8">
    <path d="M 50.4 269.568 
L 108 269.568 
" clip-path="url(#pbaa013deb9)" style="fill: none; stroke: #000000; stroke-linecap: square"/>
   </g>
   <g id="line2d_9">
    <path d="M 108 269.568 
L 108 264.06 
" clip-path="url(#pbaa013deb9)" style="fill: none; stroke: #000000; stroke-linecap: square"/>
   </g>
   <g id="patch_3">
    <path d="M 21.6 291.6 
L 21.6 16.2 
" style="fill: none; stroke: #000000; stroke-width: 0.8; stroke-linejoin: miter; stroke-linecap: square"/>
   </g>
   <g id="patch_4">
    <path d="M 136.8 291.6 
L 136.8 16.2 
" style="fill: none; stroke: #000000; stroke-width: 0.8; stroke-linejoin: miter; stroke-linecap: square"/>
   </g>
   <g id="patch_5">
    <path d="M 21.6 291.6 
L 136.8 291.6 
" style="fill: none; stroke: #000000; stroke-width: 0.8; stroke-linejoin: miter; stroke-linecap: square"/>
   </g>
   <g id="patch_6">
    <path d="M 21.6 16.2 
L 136.8 16.2 
" style="fill: none; stroke: #000000; stroke-width: 0.8; stroke-linejoin: miter; stroke-linecap: square"/>
   </g>
   <g id="text_3">
    <text style="font-weight: 700; font-size: 12px; font-family: 'DejaVu Sans', 'Bitstream Vera Sans', 'Computer Modern Sans Serif', 'Lucida Grande', 'Verdana', 'Geneva', 'Lucid', 'Arial', 'Helvetica', 'Avant Garde', sans-serif; text-anchor: middle" x="50.4" y="289.104375" transform="rotate(-0 50.4 289.104375)">#8</text>
   </g>
   <g id="text_4">
    <text style="font-weight: 700; font-size: 12px; font-family: 'DejaVu Sans', 'Bitstream Vera Sans', 'Computer Modern Sans Serif', 'Lucida Grande', 'Verdana', 'Geneva', 'Lucid', 'Arial', 'Helvetica', 'Avant Garde', sans-serif; text-anchor: middle" x="108" y="289.104375" transform="rotate(-0 108 289.104375)">#22</text>
   </g>
   <g id="text_5">
    <text style="font-size: 12px; font-family: 'DejaVu Sans', 'Bitstream Vera Sans', 'Computer Modern Sans Serif', 'Lucida Grande', 'Verdana', 'Geneva', 'Lucid', 'Arial', 'Helvetica', 'Avant Garde', sans-serif; text-anchor: middle" x="79.2" y="268.449375" transform="rotate(-0 79.2 268.449375)">**</text>
   </g>
   <g id="line2d_10">
    <path d="M 21.6 129.76437 
L 136.8 129.76437 
" clip-path="url(#pbaa013deb9)" style="fill: none; stroke-dasharray: 3.7,1.6; stroke-dashoffset: 0; stroke: #808080; stroke-opacity: 0.7"/>
   </g>
   <g id="line2d_11">
    <path d="M 21.6 129.76437 
L 136.8 129.76437 
" clip-path="url(#pbaa013deb9)" style="fill: none; stroke-dasharray: 3.7,1.6; stroke-dashoffset: 0; stroke: #808080; stroke-opacity: 0.7"/>
   </g>
   <g id="line2d_12">
    <path d="M 21.6 145.832862 
L 136.8 145.832862 
" clip-path="url(#pbaa013deb9)" style="fill: none; stroke-dasharray: 3.7,1.6; stroke-dashoffset: 0; stroke: #808080; stroke-opacity: 0.7"/>
   </g>
   <g id="line2d_13">
    <path d="M 21.6 145.832862 
L 136.8 145.832862 
" clip-path="url(#pbaa013deb9)" style="fill: none; stroke-dasharray: 3.7,1.6; stroke-dashoffset: 0; stroke: #808080; stroke-opacity: 0.7"/>
   </g>
   <g id="LineCollection_1">
    <path d="M 50.4 135.153853 
L 50.4 124.374887 
" clip-path="url(#pbaa013deb9)" style="fill: none; stroke: #000000; stroke-width: 2"/>
   </g>
   <g id="line2d_14">
    <defs>
     <path id="md2951ffd84" d="M 5 0 
L -5 -0 
" style="stroke: #000000; stroke-width: 2"/>
    </defs>
    <g clip-path="url(#pbaa013deb9)">
     <use xlink:href="#md2951ffd84" x="50.4" y="135.153853" style="stroke: #000000; stroke-width: 2"/>
    </g>
   </g>
   <g id="line2d_15">
    <g clip-path="url(#pbaa013deb9)">
     <use xlink:href="#md2951ffd84" x="50.4" y="124.374887" style="stroke: #000000; stroke-width: 2"/>
    </g>
   </g>
   <g id="LineCollection_2">
    <path d="M 108 148.916626 
L 108 142.749098 
" clip-path="url(#pbaa013deb9)" style="fill: none; stroke: #000000; stroke-width: 2"/>
   </g>
   <g id="line2d_16">
    <g clip-path="url(#pbaa013deb9)">
     <use xlink:href="#md2951ffd84" x="108" y="148.916626" style="stroke: #000000; stroke-width: 2"/>
    </g>
   </g>
   <g id="line2d_17">
    <g clip-path="url(#pbaa013deb9)">
     <use xlink:href="#md2951ffd84" x="108" y="142.749098" style="stroke: #000000; stroke-width: 2"/>
    </g>
   </g>
   <g id="line2d_18">
    <defs>
     <path id="mf6cde80223" d="M 0 4 
C 1.060812 4 2.078319 3.578535 2.828427 2.828427 
C 3.578535 2.078319 4 1.060812 4 0 
C 4 -1.060812 3.578535 -2.078319 2.828427 -2.828427 
C 2.078319 -3.578535 1.060812 -4 0 -4 
C -1.060812 -4 -2.078319 -3.578535 -2.828427 -2.828427 
C -3.578535 -2.078319 -4 -1.060812 -4 0 
C -4 1.060812 -3.578535 2.078319 -2.828427 2.828427 
C -2.078319 3.578535 -1.060812 4 0 4 
z
" style="stroke: #000000"/>
    </defs>
    <g clip-path="url(#pbaa013deb9)">
     <use xlink:href="#mf6cde80223" x="50.4" y="129.76437" style="stroke: #000000"/>
    </g>
   </g>
   <g id="line2d_19">
    <g clip-path="url(#pbaa013deb9)">
     <use xlink:href="#mf6cde80223" x="108" y="145.832862" style="stroke: #000000"/>
    </g>
   </g>
  </g>
 </g>
 <defs>
  <clipPath id="pbaa013deb9">
   <rect x="21.6" y="16.2" width="115.2" height="275.4"/>
  </clipPath>
 </defs>
</svg>
