<?xml version="1.0" encoding="utf-8" standalone="no"?>
<!DOCTYPE svg PUBLIC "-//W3C//DTD SVG 1.1//EN"
  "http://www.w3.org/Graphics/SVG/1.1/DTD/svg11.dtd">
<svg xmlns:xlink="http://www.w3.org/1999/xlink" width="144pt" height="324pt" viewBox="0 0 144 324" xmlns="http://www.w3.org/2000/svg" version="1.1">
 <metadata>
  <rdf:RDF xmlns:dc="http://purl.org/dc/elements/1.1/" xmlns:cc="http://creativecommons.org/ns#" xmlns:rdf="http://www.w3.org/1999/02/22-rdf-syntax-ns#">
   <cc:Work>
    <dc:type rdf:resource="http://purl.org/dc/dcmitype/StillImage"/>
    <dc:date>2025-12-11T09:10:02.277750</dc:date>
    <dc:format>image/svg+xml</dc:format>
    <dc:creator>
     <cc:Agent>
      <dc:title>Matplotlib v3.10.0, https://matplotlib.org/</dc:title>
     </cc:Agent>
    </dc:creator>
   </cc:Work>
  </rdf:RDF>
 </metadata>
 <defs>
  <style type="text/css">*{stroke-linejoin: round; stroke-linecap: butt}</style>
 </defs>
 <g id="figure_1">
  <g id="patch_1">
   <path d="M 0 324 
L 144 324 
L 144 0 
L 0 0 
z
" style="fill: #ffffff"/>
  </g>
  <g id="axes_1">
   <g id="patch_2">
    <path d="M 21.6 291.6 
L 136.8 291.6 
L 136.8 16.2 
L 21.6 16.2 
z
" style="fill: #ffffff"/>
   </g>
   <g id="FillBetweenPolyCollection_1">
    <path d="M 50.784591 247.994815 
L 50.015409 247.994815 
L 50.020469 246.091241 
L 50.035302 244.187667 
L 50.058716 242.284093 
L 50.08889 240.380519 
L 50.123587 238.476945 
L 50.160383 236.573371 
L 50.196902 234.669797 
L 50.230993 232.766223 
L 50.260849 230.86265 
L 50.285054 228.959076 
L 50.302564 227.055502 
L 50.312655 225.151928 
L 50.314842 223.248354 
L 50.308813 221.34478 
L 50.294378 219.441206 
L 50.27144 217.537632 
L 50.239988 215.634058 
L 50.200091 213.730485 
L 50.151875 211.826911 
L 50.095477 209.923337 
L 50.030968 208.019763 
L 49.958248 206.116189 
L 49.87696 204.212615 
L 49.786444 202.309041 
L 49.685768 200.405467 
L 49.57388 198.501893 
L 49.449866 196.59832 
L 49.313301 194.694746 
L 49.164618 192.791172 
L 49.005424 190.887598 
L 48.838651 188.984024 
L 48.668472 187.08045 
L 48.499936 185.176876 
L 48.338329 183.273302 
L 48.188343 181.369728 
L 48.053167 179.466154 
L 47.933674 177.562581 
L 47.827859 175.659007 
L 47.730646 173.755433 
L 47.634147 171.851859 
L 47.528332 169.948285 
L 47.402025 168.044711 
L 47.244046 166.141137 
L 47.044286 164.237563 
L 46.794537 162.333989 
L 46.48891 160.430416 
L 46.123787 158.526842 
L 45.697354 156.623268 
L 45.208862 154.719694 
L 44.657842 152.81612 
L 44.043524 150.912546 
L 43.36471 149.008972 
L 42.620218 147.105398 
L 41.80995 145.201824 
L 40.93642 143.29825 
L 40.006496 141.394677 
L 39.032996 139.491103 
L 38.035741 137.587529 
L 37.041745 135.683955 
L 36.08433 133.780381 
L 35.201134 131.876807 
L 34.4312 129.973233 
L 33.81148 128.069659 
L 33.373252 126.166085 
L 33.138966 124.262512 
L 33.12 122.358938 
L 33.315669 120.455364 
L 33.71362 118.55179 
L 34.291545 116.648216 
L 35.019892 114.744642 
L 35.865148 112.841068 
L 36.793155 110.937494 
L 37.771984 109.03392 
L 38.773988 107.130347 
L 39.776849 105.226773 
L 40.763619 103.323199 
L 41.721957 101.419625 
L 42.642869 99.516051 
L 43.519313 97.612477 
L 44.34501 95.708903 
L 45.11368 93.805329 
L 45.818825 91.901755 
L 46.454024 89.998181 
L 47.013597 88.094608 
L 47.493453 86.191034 
L 47.891901 84.28746 
L 48.210242 82.383886 
L 48.453036 80.480312 
L 48.627984 78.576738 
L 48.74546 76.673164 
L 48.817753 74.76959 
L 48.858135 72.866016 
L 48.879859 70.962443 
L 48.895199 69.058869 
L 48.91463 67.155295 
L 48.946207 65.251721 
L 48.995208 63.348147 
L 49.064046 61.444573 
L 49.152452 59.540999 
L 51.647548 59.540999 
L 51.647548 59.540999 
L 51.735954 61.444573 
L 51.804792 63.348147 
L 51.853793 65.251721 
L 51.88537 67.155295 
L 51.904801 69.058869 
L 51.920141 70.962443 
L 51.941865 72.866016 
L 51.982247 74.76959 
L 52.05454 76.673164 
L 52.172016 78.576738 
L 52.346964 80.480312 
L 52.589758 82.383886 
L 52.908099 84.28746 
L 53.306547 86.191034 
L 53.786403 88.094608 
L 54.345976 89.998181 
L 54.981175 91.901755 
L 55.68632 93.805329 
L 56.45499 95.708903 
L 57.280687 97.612477 
L 58.157131 99.516051 
L 59.078043 101.419625 
L 60.036381 103.323199 
L 61.023151 105.226773 
L 62.026012 107.130347 
L 63.028016 109.03392 
L 64.006845 110.937494 
L 64.934852 112.841068 
L 65.780108 114.744642 
L 66.508455 116.648216 
L 67.08638 118.55179 
L 67.484331 120.455364 
L 67.68 122.358938 
L 67.661034 124.262512 
L 67.426748 126.166085 
L 66.98852 128.069659 
L 66.3688 129.973233 
L 65.598866 131.876807 
L 64.71567 133.780381 
L 63.758255 135.683955 
L 62.764259 137.587529 
L 61.767004 139.491103 
L 60.793504 141.394677 
L 59.86358 143.29825 
L 58.99005 145.201824 
L 58.179782 147.105398 
L 57.43529 149.008972 
L 56.756476 150.912546 
L 56.142158 152.81612 
L 55.591138 154.719694 
L 55.102646 156.623268 
L 54.676213 158.526842 
L 54.31109 160.430416 
L 54.005463 162.333989 
L 53.755714 164.237563 
L 53.555954 166.141137 
L 53.397975 168.044711 
L 53.271668 169.948285 
L 53.165853 171.851859 
L 53.069354 173.755433 
L 52.972141 175.659007 
L 52.866326 177.562581 
L 52.746833 179.466154 
L 52.611657 181.369728 
L 52.461671 183.273302 
L 52.300064 185.176876 
L 52.131528 187.08045 
L 51.961349 188.984024 
L 51.794576 190.887598 
L 51.635382 192.791172 
L 51.486699 194.694746 
L 51.350134 196.59832 
L 51.22612 198.501893 
L 51.114232 200.405467 
L 51.013556 202.309041 
L 50.92304 204.212615 
L 50.841752 206.116189 
L 50.769032 208.019763 
L 50.704523 209.923337 
L 50.648125 211.826911 
L 50.599909 213.730485 
L 50.560012 215.634058 
L 50.52856 217.537632 
L 50.505622 219.441206 
L 50.491187 221.34478 
L 50.485158 223.248354 
L 50.487345 225.151928 
L 50.497436 227.055502 
L 50.514946 228.959076 
L 50.539151 230.86265 
L 50.569007 232.766223 
L 50.603098 234.669797 
L 50.639617 236.573371 
L 50.676413 238.476945 
L 50.71111 240.380519 
L 50.741284 242.284093 
L 50.764698 244.187667 
L 50.779531 246.091241 
L 50.784591 247.994815 
L 50.784591 247.994815 
z
" clip-path="url(#p3c9dde6959)" style="fill: none; stroke: #000000; stroke-opacity: 0.3"/>
   </g>
   <g id="FillBetweenPolyCollection_2">
    <path d="M 53.249369 169.936707 
L 47.550631 169.936707 
L 47.250891 168.801476 
L 46.951491 167.666246 
L 46.656114 166.531015 
L 46.367735 165.395785 
L 46.08832 164.260554 
L 45.81857 163.125323 
L 45.557742 161.990093 
L 45.303567 160.854862 
L 45.052279 159.719632 
L 44.798765 158.584401 
L 44.536829 157.449171 
L 44.25955 156.31394 
L 43.959721 155.178709 
L 43.630337 154.043479 
L 43.26509 152.908248 
L 42.858846 151.773018 
L 42.408065 150.637787 
L 41.911141 149.502557 
L 41.368629 148.367326 
L 40.783364 147.232095 
L 40.160446 146.096865 
L 39.50711 144.961634 
L 38.832474 143.826404 
L 38.147206 142.691173 
L 37.463098 141.555943 
L 36.792602 140.420712 
L 36.148328 139.285481 
L 35.542547 138.150251 
L 34.986717 137.01502 
L 34.491045 135.87979 
L 34.064128 134.744559 
L 33.712656 133.609329 
L 33.441219 132.474098 
L 33.252201 131.338867 
L 33.145777 130.203637 
L 33.12 129.068406 
L 33.170975 127.933176 
L 33.293114 126.797945 
L 33.479441 125.662715 
L 33.721955 124.527484 
L 34.012013 123.392253 
L 34.340717 122.257023 
L 34.699305 121.121792 
L 35.079494 119.986562 
L 35.473794 118.851331 
L 35.875751 117.716101 
L 36.280122 116.58087 
L 36.682966 115.445639 
L 37.08166 114.310409 
L 37.474819 113.175178 
L 37.862164 112.039948 
L 38.244305 110.904717 
L 38.6225 109.769487 
L 38.998377 108.634256 
L 39.373662 107.499025 
L 39.74992 106.363795 
L 40.12834 105.228564 
L 40.509564 104.093334 
L 40.893591 102.958103 
L 41.279737 101.822873 
L 41.666664 100.687642 
L 42.05246 99.552411 
L 42.434768 98.417181 
L 42.810933 97.28195 
L 43.178167 96.14672 
L 43.533703 95.011489 
L 43.874937 93.876259 
L 44.199541 92.741028 
L 44.505548 91.605797 
L 44.791412 90.470567 
L 45.056039 89.335336 
L 45.298801 88.200106 
L 45.519542 87.064875 
L 45.718569 85.929645 
L 45.896646 84.794414 
L 46.054978 83.659184 
L 46.195194 82.523953 
L 46.319313 81.388722 
L 46.429699 80.253492 
L 46.529002 79.118261 
L 46.620063 77.983031 
L 46.705825 76.8478 
L 46.789206 75.71257 
L 46.872984 74.577339 
L 46.959674 73.442108 
L 47.051427 72.306878 
L 47.149941 71.171647 
L 47.256412 70.036417 
L 47.37151 68.901186 
L 47.495389 67.765956 
L 47.627726 66.630725 
L 47.767785 65.495494 
L 47.914494 64.360264 
L 48.066526 63.225033 
L 48.222385 62.089803 
L 48.380479 60.954572 
L 48.539189 59.819342 
L 48.696919 58.684111 
L 48.852136 57.54888 
L 51.947864 57.54888 
L 51.947864 57.54888 
L 52.103081 58.684111 
L 52.260811 59.819342 
L 52.419521 60.954572 
L 52.577615 62.089803 
L 52.733474 63.225033 
L 52.885506 64.360264 
L 53.032215 65.495494 
L 53.172274 66.630725 
L 53.304611 67.765956 
L 53.42849 68.901186 
L 53.543588 70.036417 
L 53.650059 71.171647 
L 53.748573 72.306878 
L 53.840326 73.442108 
L 53.927016 74.577339 
L 54.010794 75.71257 
L 54.094175 76.8478 
L 54.179937 77.983031 
L 54.270998 79.118261 
L 54.370301 80.253492 
L 54.480687 81.388722 
L 54.604806 82.523953 
L 54.745022 83.659184 
L 54.903354 84.794414 
L 55.081431 85.929645 
L 55.280458 87.064875 
L 55.501199 88.200106 
L 55.743961 89.335336 
L 56.008588 90.470567 
L 56.294452 91.605797 
L 56.600459 92.741028 
L 56.925063 93.876259 
L 57.266297 95.011489 
L 57.621833 96.14672 
L 57.989067 97.28195 
L 58.365232 98.417181 
L 58.74754 99.552411 
L 59.133336 100.687642 
L 59.520263 101.822873 
L 59.906409 102.958103 
L 60.290436 104.093334 
L 60.67166 105.228564 
L 61.05008 106.363795 
L 61.426338 107.499025 
L 61.801623 108.634256 
L 62.1775 109.769487 
L 62.555695 110.904717 
L 62.937836 112.039948 
L 63.325181 113.175178 
L 63.71834 114.310409 
L 64.117034 115.445639 
L 64.519878 116.58087 
L 64.924249 117.716101 
L 65.326206 118.851331 
L 65.720506 119.986562 
L 66.100695 121.121792 
L 66.459283 122.257023 
L 66.787987 123.392253 
L 67.078045 124.527484 
L 67.320559 125.662715 
L 67.506886 126.797945 
L 67.629025 127.933176 
L 67.68 129.068406 
L 67.654223 130.203637 
L 67.547799 131.338867 
L 67.358781 132.474098 
L 67.087344 133.609329 
L 66.735872 134.744559 
L 66.308955 135.87979 
L 65.813283 137.01502 
L 65.257453 138.150251 
L 64.651672 139.285481 
L 64.007398 140.420712 
L 63.336902 141.555943 
L 62.652794 142.691173 
L 61.967526 143.826404 
L 61.29289 144.961634 
L 60.639554 146.096865 
L 60.016636 147.232095 
L 59.431371 148.367326 
L 58.888859 149.502557 
L 58.391935 150.637787 
L 57.941154 151.773018 
L 57.53491 152.908248 
L 57.169663 154.043479 
L 56.840279 155.178709 
L 56.54045 156.31394 
L 56.263171 157.449171 
L 56.001235 158.584401 
L 55.747721 159.719632 
L 55.496433 160.854862 
L 55.242258 161.990093 
L 54.98143 163.125323 
L 54.71168 164.260554 
L 54.432265 165.395785 
L 54.143886 166.531015 
L 53.848509 167.666246 
L 53.549109 168.801476 
L 53.249369 169.936707 
L 53.249369 169.936707 
z
" clip-path="url(#p3c9dde6959)" style="fill: none; stroke: #000000; stroke-opacity: 0.3"/>
   </g>
   <g id="FillBetweenPolyCollection_3">
    <path d="M 52.994108 174.636539 
L 47.805892 174.636539 
L 47.365776 172.898209 
L 46.888981 171.159878 
L 46.377252 169.421547 
L 45.832467 167.683217 
L 45.25653 165.944886 
L 44.6513 164.206556 
L 44.018604 162.468225 
L 43.360303 160.729894 
L 42.678447 158.991564 
L 41.975495 157.253233 
L 41.254567 155.514902 
L 40.519717 153.776572 
L 39.776158 152.038241 
L 39.030406 150.299911 
L 38.290298 148.56158 
L 37.564861 146.823249 
L 36.864025 145.084919 
L 36.198211 143.346588 
L 35.577826 141.608257 
L 35.012716 139.869927 
L 34.511655 138.131596 
L 34.081888 136.393266 
L 33.728809 134.654935 
L 33.455764 132.916604 
L 33.264022 131.178274 
L 33.152895 129.439943 
L 33.12 127.701613 
L 33.161636 125.963282 
L 33.273227 124.224951 
L 33.449779 122.486621 
L 33.686297 120.74829 
L 33.978082 119.009959 
L 34.320877 117.271629 
L 34.710841 115.533298 
L 35.144357 113.794968 
L 35.617726 112.056637 
L 36.126837 110.318306 
L 36.666872 108.579976 
L 37.232166 106.841645 
L 37.816223 105.103315 
L 38.411934 103.364984 
L 39.011944 101.626653 
L 39.609093 99.888323 
L 40.196869 98.149992 
L 40.769777 96.411661 
L 41.323588 94.673331 
L 41.855436 92.935 
L 42.363788 91.19667 
L 42.848306 89.458339 
L 43.309658 87.720008 
L 43.749284 85.981678 
L 44.169159 84.243347 
L 44.571546 82.505017 
L 44.958724 80.766686 
L 45.332719 79.028355 
L 45.695021 77.290025 
L 46.04633 75.551694 
L 46.386384 73.813363 
L 46.71389 72.075033 
L 47.026623 70.336702 
L 47.321682 68.598372 
L 47.595898 66.860041 
L 47.846333 65.12171 
L 48.070795 63.38338 
L 48.268272 61.645049 
L 48.439211 59.906719 
L 48.58558 58.168388 
L 48.710698 56.430057 
L 48.818861 54.691727 
L 48.914819 52.953396 
L 49.003205 51.215065 
L 49.087991 49.476735 
L 49.172069 47.738404 
L 49.25701 46.000074 
L 49.343018 44.261743 
L 49.429072 42.523412 
L 49.513216 40.785082 
L 49.592946 39.046751 
L 49.665614 37.30842 
L 49.728812 35.57009 
L 49.78067 33.831759 
L 49.820057 32.093429 
L 49.846664 30.355098 
L 49.860982 28.616767 
L 49.864201 26.878437 
L 49.858053 25.140106 
L 49.844635 23.401776 
L 49.826236 21.663445 
L 49.80519 19.925114 
L 49.783771 18.186784 
L 49.764104 16.448453 
L 49.748122 14.710122 
L 49.737511 12.971792 
L 49.733677 11.233461 
L 49.737684 9.495131 
L 49.75021 7.7568 
L 49.771483 6.018469 
L 49.801251 4.280139 
L 49.838775 2.541808 
L 50.961225 2.541808 
L 50.961225 2.541808 
L 50.998749 4.280139 
L 51.028517 6.018469 
L 51.04979 7.7568 
L 51.062316 9.495131 
L 51.066323 11.233461 
L 51.062489 12.971792 
L 51.051878 14.710122 
L 51.035896 16.448453 
L 51.016229 18.186784 
L 50.99481 19.925114 
L 50.973764 21.663445 
L 50.955365 23.401776 
L 50.941947 25.140106 
L 50.935799 26.878437 
L 50.939018 28.616767 
L 50.953336 30.355098 
L 50.979943 32.093429 
L 51.01933 33.831759 
L 51.071188 35.57009 
L 51.134386 37.30842 
L 51.207054 39.046751 
L 51.286784 40.785082 
L 51.370928 42.523412 
L 51.456982 44.261743 
L 51.54299 46.000074 
L 51.627931 47.738404 
L 51.712009 49.476735 
L 51.796795 51.215065 
L 51.885181 52.953396 
L 51.981139 54.691727 
L 52.089302 56.430057 
L 52.21442 58.168388 
L 52.360789 59.906719 
L 52.531728 61.645049 
L 52.729205 63.38338 
L 52.953667 65.12171 
L 53.204102 66.860041 
L 53.478318 68.598372 
L 53.773377 70.336702 
L 54.08611 72.075033 
L 54.413616 73.813363 
L 54.75367 75.551694 
L 55.104979 77.290025 
L 55.467281 79.028355 
L 55.841276 80.766686 
L 56.228454 82.505017 
L 56.630841 84.243347 
L 57.050716 85.981678 
L 57.490342 87.720008 
L 57.951694 89.458339 
L 58.436212 91.19667 
L 58.944564 92.935 
L 59.476412 94.673331 
L 60.030223 96.411661 
L 60.603131 98.149992 
L 61.190907 99.888323 
L 61.788056 101.626653 
L 62.388066 103.364984 
L 62.983777 105.103315 
L 63.567834 106.841645 
L 64.133128 108.579976 
L 64.673163 110.318306 
L 65.182274 112.056637 
L 65.655643 113.794968 
L 66.089159 115.533298 
L 66.479123 117.271629 
L 66.821918 119.009959 
L 67.113703 120.74829 
L 67.350221 122.486621 
L 67.526773 124.224951 
L 67.638364 125.963282 
L 67.68 127.701613 
L 67.647105 129.439943 
L 67.535978 131.178274 
L 67.344236 132.916604 
L 67.071191 134.654935 
L 66.718112 136.393266 
L 66.288345 138.131596 
L 65.787284 139.869927 
L 65.222174 141.608257 
L 64.601789 143.346588 
L 63.935975 145.084919 
L 63.235139 146.823249 
L 62.509702 148.56158 
L 61.769594 150.299911 
L 61.023842 152.038241 
L 60.280283 153.776572 
L 59.545433 155.514902 
L 58.824505 157.253233 
L 58.121553 158.991564 
L 57.439697 160.729894 
L 56.781396 162.468225 
L 56.1487 164.206556 
L 55.54347 165.944886 
L 54.967533 167.683217 
L 54.422748 169.421547 
L 53.911019 171.159878 
L 53.434224 172.898209 
L 52.994108 174.636539 
L 52.994108 174.636539 
z
" clip-path="url(#p3c9dde6959)" style="fill: none; stroke: #000000; stroke-opacity: 0.3"/>
   </g>
   <g id="FillBetweenPolyCollection_4">
    <path d="M 52.194168 175.407409 
L 48.605832 175.407409 
L 48.33061 173.392003 
L 48.037032 171.376597 
L 47.72377 169.361191 
L 47.388838 167.345786 
L 47.030053 165.33038 
L 46.645622 163.314974 
L 46.234748 161.299568 
L 45.798089 159.284162 
L 45.337949 157.268756 
L 44.858099 155.25335 
L 44.363197 153.237944 
L 43.857881 151.222538 
L 43.345688 149.207132 
L 42.828027 147.191726 
L 42.303484 145.17632 
L 41.767678 143.160914 
L 41.21382 141.145508 
L 40.633956 139.130102 
L 40.020734 137.114696 
L 39.369364 135.09929 
L 38.679426 133.083885 
L 37.95615 131.068479 
L 37.210955 129.053073 
L 36.461146 127.037667 
L 35.728864 125.022261 
L 35.039506 123.006855 
L 34.419847 120.991449 
L 33.896138 118.976043 
L 33.492332 116.960637 
L 33.228576 114.945231 
L 33.12 112.929825 
L 33.175821 110.914419 
L 33.398785 108.899013 
L 33.784949 106.883607 
L 34.323827 104.868201 
L 34.998903 102.852795 
L 35.788501 100.83739 
L 36.666983 98.821984 
L 37.606213 96.806578 
L 38.577198 94.791172 
L 39.551796 92.775766 
L 40.504355 90.76036 
L 41.41313 88.744954 
L 42.261327 86.729548 
L 43.037642 84.714142 
L 43.736264 82.698736 
L 44.356339 80.68333 
L 44.901025 78.667924 
L 45.376325 76.652518 
L 45.789889 74.637112 
L 46.149989 72.621706 
L 46.464766 70.6063 
L 46.741806 68.590894 
L 46.987981 66.575489 
L 47.20945 64.560083 
L 47.411725 62.544677 
L 47.599679 60.529271 
L 47.777475 58.513865 
L 47.948406 56.498459 
L 48.114724 54.483053 
L 48.277514 52.467647 
L 48.436694 50.452241 
L 48.59119 48.436835 
L 48.739268 46.421429 
L 48.878976 44.406023 
L 49.008613 42.390617 
L 49.127113 40.375211 
L 49.234272 38.359805 
L 49.330749 36.344399 
L 49.417867 34.328993 
L 49.497265 32.313588 
L 49.570496 30.298182 
L 49.638687 28.282776 
L 49.702354 26.26737 
L 49.761401 24.251964 
L 49.815315 22.236558 
L 49.863464 20.221152 
L 49.905437 18.205746 
L 49.941297 16.19034 
L 49.971695 14.174934 
L 49.997806 12.159528 
L 50.021112 10.144122 
L 50.043089 8.128716 
L 50.064877 6.11331 
L 50.08703 4.097904 
L 50.109385 2.082498 
L 50.131099 0.067093 
L 50.141545 -1 
M 50.658455 -1 
L 50.668901 0.067093 
L 50.690615 2.082498 
L 50.71297 4.097904 
L 50.735123 6.11331 
L 50.756911 8.128716 
L 50.778888 10.144122 
L 50.802194 12.159528 
L 50.828305 14.174934 
L 50.858703 16.19034 
L 50.894563 18.205746 
L 50.936536 20.221152 
L 50.984685 22.236558 
L 51.038599 24.251964 
L 51.097646 26.26737 
L 51.161313 28.282776 
L 51.229504 30.298182 
L 51.302735 32.313588 
L 51.382133 34.328993 
L 51.469251 36.344399 
L 51.565728 38.359805 
L 51.672887 40.375211 
L 51.791387 42.390617 
L 51.921024 44.406023 
L 52.060732 46.421429 
L 52.20881 48.436835 
L 52.363306 50.452241 
L 52.522486 52.467647 
L 52.685276 54.483053 
L 52.851594 56.498459 
L 53.022525 58.513865 
L 53.200321 60.529271 
L 53.388275 62.544677 
L 53.59055 64.560083 
L 53.812019 66.575489 
L 54.058194 68.590894 
L 54.335234 70.6063 
L 54.650011 72.621706 
L 55.010111 74.637112 
L 55.423675 76.652518 
L 55.898975 78.667924 
L 56.443661 80.68333 
L 57.063736 82.698736 
L 57.762358 84.714142 
L 58.538673 86.729548 
L 59.38687 88.744954 
L 60.295645 90.76036 
L 61.248204 92.775766 
L 62.222802 94.791172 
L 63.193787 96.806578 
L 64.133017 98.821984 
L 65.011499 100.83739 
L 65.801097 102.852795 
L 66.476173 104.868201 
L 67.015051 106.883607 
L 67.401215 108.899013 
L 67.624179 110.914419 
L 67.68 112.929825 
L 67.571424 114.945231 
L 67.307668 116.960637 
L 66.903862 118.976043 
L 66.380153 120.991449 
L 65.760494 123.006855 
L 65.071136 125.022261 
L 64.338854 127.037667 
L 63.589045 129.053073 
L 62.84385 131.068479 
L 62.120574 133.083885 
L 61.430636 135.09929 
L 60.779266 137.114696 
L 60.166044 139.130102 
L 59.58618 141.145508 
L 59.032322 143.160914 
L 58.496516 145.17632 
L 57.971973 147.191726 
L 57.454312 149.207132 
L 56.942119 151.222538 
L 56.436803 153.237944 
L 55.941901 155.25335 
L 55.462051 157.268756 
L 55.001911 159.284162 
L 54.565252 161.299568 
L 54.154378 163.314974 
L 53.769947 165.33038 
L 53.411162 167.345786 
L 53.07623 169.361191 
L 52.762968 171.376597 
L 52.46939 173.392003 
L 52.194168 175.407409 
L 52.194168 175.407409 
" clip-path="url(#p3c9dde6959)" style="fill: none; stroke: #000000; stroke-opacity: 0.3"/>
   </g>
   <g id="FillBetweenPolyCollection_5">
    <path d="M 52.903493 160.916263 
L 47.896507 160.916263 
L 47.614693 159.794116 
L 47.315897 158.671968 
L 46.998086 157.54982 
L 46.658617 156.427673 
L 46.294402 155.305525 
L 45.902171 154.183378 
L 45.478801 153.06123 
L 45.021707 151.939082 
L 44.529228 150.816935 
L 44.000993 149.694787 
L 43.438217 148.57264 
L 42.843869 147.450492 
L 42.222723 146.328344 
L 41.581238 145.206197 
L 40.927293 144.084049 
L 40.269788 142.961901 
L 39.618141 141.839754 
L 38.981724 140.717606 
L 38.369298 139.595459 
L 37.788479 138.473311 
L 37.245307 137.351163 
L 36.743934 136.229016 
L 36.286475 135.106868 
L 35.873025 133.98472 
L 35.501838 132.862573 
L 35.169666 131.740425 
L 34.872208 130.618278 
L 34.604645 129.49613 
L 34.362222 128.373982 
L 34.140803 127.251835 
L 33.937384 126.129687 
L 33.750496 125.007539 
L 33.580474 123.885392 
L 33.429563 122.763244 
L 33.301843 121.641097 
L 33.20299 120.518949 
L 33.139866 119.396801 
L 33.12 118.274654 
L 33.150969 117.152506 
L 33.239768 116.030359 
L 33.392196 114.908211 
L 33.612334 113.786063 
L 33.90214 112.663916 
L 34.261216 111.541768 
L 34.686752 110.41962 
L 35.173642 109.297473 
L 35.714771 108.175325 
L 36.301416 107.053178 
L 36.923748 105.93103 
L 37.571356 104.808882 
L 38.233782 103.686735 
L 38.900988 102.564587 
L 39.563761 101.442439 
L 40.214008 100.320292 
L 40.84495 99.198144 
L 41.451214 98.075997 
L 42.02883 96.953849 
L 42.575158 95.831701 
L 43.088763 94.709554 
L 43.569258 93.587406 
L 44.017132 92.465259 
L 44.43358 91.343111 
L 44.820342 90.220963 
L 45.179556 89.098816 
L 45.513622 87.976668 
L 45.825078 86.85452 
L 46.116489 85.732373 
L 46.390331 84.610225 
L 46.648887 83.488078 
L 46.894149 82.36593 
L 47.127721 81.243782 
L 47.350753 80.121635 
L 47.563891 78.999487 
L 47.767259 77.877339 
L 47.960487 76.755192 
L 48.142768 75.633044 
L 48.312961 74.510897 
L 48.469716 73.388749 
L 48.611629 72.266601 
L 48.737395 71.144454 
L 48.845965 70.022306 
L 48.936673 68.900159 
L 49.009349 67.778011 
L 49.064376 66.655863 
L 49.102724 65.533716 
L 49.125936 64.411568 
L 49.13607 63.28942 
L 49.135625 62.167273 
L 49.127427 61.045125 
L 49.114507 59.922978 
L 49.099966 58.80083 
L 49.086833 57.678682 
L 49.077936 56.556535 
L 49.075773 55.434387 
L 49.082408 54.312239 
L 49.099377 53.190092 
L 49.127633 52.067944 
L 49.167514 50.945797 
L 49.218746 49.823649 
L 51.581254 49.823649 
L 51.581254 49.823649 
L 51.632486 50.945797 
L 51.672367 52.067944 
L 51.700623 53.190092 
L 51.717592 54.312239 
L 51.724227 55.434387 
L 51.722064 56.556535 
L 51.713167 57.678682 
L 51.700034 58.80083 
L 51.685493 59.922978 
L 51.672573 61.045125 
L 51.664375 62.167273 
L 51.66393 63.28942 
L 51.674064 64.411568 
L 51.697276 65.533716 
L 51.735624 66.655863 
L 51.790651 67.778011 
L 51.863327 68.900159 
L 51.954035 70.022306 
L 52.062605 71.144454 
L 52.188371 72.266601 
L 52.330284 73.388749 
L 52.487039 74.510897 
L 52.657232 75.633044 
L 52.839513 76.755192 
L 53.032741 77.877339 
L 53.236109 78.999487 
L 53.449247 80.121635 
L 53.672279 81.243782 
L 53.905851 82.36593 
L 54.151113 83.488078 
L 54.409669 84.610225 
L 54.683511 85.732373 
L 54.974922 86.85452 
L 55.286378 87.976668 
L 55.620444 89.098816 
L 55.979658 90.220963 
L 56.36642 91.343111 
L 56.782868 92.465259 
L 57.230742 93.587406 
L 57.711237 94.709554 
L 58.224842 95.831701 
L 58.77117 96.953849 
L 59.348786 98.075997 
L 59.95505 99.198144 
L 60.585992 100.320292 
L 61.236239 101.442439 
L 61.899012 102.564587 
L 62.566218 103.686735 
L 63.228644 104.808882 
L 63.876252 105.93103 
L 64.498584 107.053178 
L 65.085229 108.175325 
L 65.626358 109.297473 
L 66.113248 110.41962 
L 66.538784 111.541768 
L 66.89786 112.663916 
L 67.187666 113.786063 
L 67.407804 114.908211 
L 67.560232 116.030359 
L 67.649031 117.152506 
L 67.68 118.274654 
L 67.660134 119.396801 
L 67.59701 120.518949 
L 67.498157 121.641097 
L 67.370437 122.763244 
L 67.219526 123.885392 
L 67.049504 125.007539 
L 66.862616 126.129687 
L 66.659197 127.251835 
L 66.437778 128.373982 
L 66.195355 129.49613 
L 65.927792 130.618278 
L 65.630334 131.740425 
L 65.298162 132.862573 
L 64.926975 133.98472 
L 64.513525 135.106868 
L 64.056066 136.229016 
L 63.554693 137.351163 
L 63.011521 138.473311 
L 62.430702 139.595459 
L 61.818276 140.717606 
L 61.181859 141.839754 
L 60.530212 142.961901 
L 59.872707 144.084049 
L 59.218762 145.206197 
L 58.577277 146.328344 
L 57.956131 147.450492 
L 57.361783 148.57264 
L 56.799007 149.694787 
L 56.270772 150.816935 
L 55.778293 151.939082 
L 55.321199 153.06123 
L 54.897829 154.183378 
L 54.505598 155.305525 
L 54.141383 156.427673 
L 53.801914 157.54982 
L 53.484103 158.671968 
L 53.185307 159.794116 
L 52.903493 160.916263 
L 52.903493 160.916263 
z
" clip-path="url(#p3c9dde6959)" style="fill: none; stroke: #000000; stroke-opacity: 0.3"/>
   </g>
   <g id="FillBetweenPolyCollection_6">
    <path d="M 50.984095 194.695808 
L 49.815905 194.695808 
L 49.745742 193.068851 
L 49.660948 191.441894 
L 49.554512 189.814937 
L 49.418352 188.18798 
L 49.243818 186.561023 
L 49.022305 184.934066 
L 48.745903 183.307109 
L 48.408057 181.680152 
L 48.004136 180.053195 
L 47.531898 178.426238 
L 46.991802 176.799281 
L 46.38715 175.172324 
L 45.724061 173.545367 
L 45.011262 171.91841 
L 44.259717 170.291453 
L 43.482097 168.664496 
L 42.692101 167.037539 
L 41.903652 165.410582 
L 41.130002 163.783625 
L 40.382807 162.156668 
L 39.671254 160.529712 
L 39.001354 158.902755 
L 38.375523 157.275798 
L 37.792576 155.648841 
L 37.248193 154.021884 
L 36.735883 152.394927 
L 36.248373 150.76797 
L 35.779241 149.141013 
L 35.324588 147.514056 
L 34.884439 145.887099 
L 34.463653 144.260142 
L 34.072119 142.633185 
L 33.724169 141.006228 
L 33.43724 139.379271 
L 33.229971 137.752314 
L 33.12 136.125357 
L 33.121776 134.4984 
L 33.244703 132.871443 
L 33.491862 131.244486 
L 33.859442 129.617529 
L 34.336929 127.990572 
L 34.907956 126.363615 
L 35.551689 124.736658 
L 36.24454 123.109701 
L 36.962029 121.482744 
L 37.680624 119.855787 
L 38.379408 118.22883 
L 39.041467 116.601873 
L 39.654899 114.974916 
L 40.213382 113.347959 
L 40.716223 111.721003 
L 41.1679 110.094046 
L 41.577092 108.467089 
L 41.955302 106.840132 
L 42.315225 105.213175 
L 42.669045 103.586218 
L 43.026917 101.959261 
L 43.395822 100.332304 
L 43.778975 98.705347 
L 44.175847 97.07839 
L 44.582762 95.451433 
L 44.993927 93.824476 
L 45.402678 92.197519 
L 45.802696 90.570562 
L 46.18896 88.943605 
L 46.558302 87.316648 
L 46.909494 85.689691 
L 47.242925 84.062734 
L 47.559993 82.435777 
L 47.862382 80.80882 
L 48.151412 79.181863 
L 48.427575 77.554906 
L 48.690345 75.927949 
L 48.93826 74.300992 
L 49.169214 72.674035 
L 49.380874 71.047078 
L 49.571114 69.420121 
L 49.738381 67.793164 
L 49.881925 66.166207 
L 50.001878 64.539251 
L 50.099187 62.912294 
L 50.175438 61.285337 
L 50.232615 59.65838 
L 50.272854 58.031423 
L 50.298229 56.404466 
L 50.310604 54.777509 
L 50.311578 53.150552 
L 50.302502 51.523595 
L 50.284579 49.896638 
L 50.259006 48.269681 
L 50.227126 46.642724 
L 50.190566 45.015767 
L 50.151303 43.38881 
L 50.111666 41.761853 
L 50.074226 40.134896 
L 50.041613 38.507939 
L 50.016273 36.880982 
L 50.000201 35.254025 
L 49.994704 33.627068 
L 50.805296 33.627068 
L 50.805296 33.627068 
L 50.799799 35.254025 
L 50.783727 36.880982 
L 50.758387 38.507939 
L 50.725774 40.134896 
L 50.688334 41.761853 
L 50.648697 43.38881 
L 50.609434 45.015767 
L 50.572874 46.642724 
L 50.540994 48.269681 
L 50.515421 49.896638 
L 50.497498 51.523595 
L 50.488422 53.150552 
L 50.489396 54.777509 
L 50.501771 56.404466 
L 50.527146 58.031423 
L 50.567385 59.65838 
L 50.624562 61.285337 
L 50.700813 62.912294 
L 50.798122 64.539251 
L 50.918075 66.166207 
L 51.061619 67.793164 
L 51.228886 69.420121 
L 51.419126 71.047078 
L 51.630786 72.674035 
L 51.86174 74.300992 
L 52.109655 75.927949 
L 52.372425 77.554906 
L 52.648588 79.181863 
L 52.937618 80.80882 
L 53.240007 82.435777 
L 53.557075 84.062734 
L 53.890506 85.689691 
L 54.241698 87.316648 
L 54.61104 88.943605 
L 54.997304 90.570562 
L 55.397322 92.197519 
L 55.806073 93.824476 
L 56.217238 95.451433 
L 56.624153 97.07839 
L 57.021025 98.705347 
L 57.404178 100.332304 
L 57.773083 101.959261 
L 58.130955 103.586218 
L 58.484775 105.213175 
L 58.844698 106.840132 
L 59.222908 108.467089 
L 59.6321 110.094046 
L 60.083777 111.721003 
L 60.586618 113.347959 
L 61.145101 114.974916 
L 61.758533 116.601873 
L 62.420592 118.22883 
L 63.119376 119.855787 
L 63.837971 121.482744 
L 64.55546 123.109701 
L 65.248311 124.736658 
L 65.892044 126.363615 
L 66.463071 127.990572 
L 66.940558 129.617529 
L 67.308138 131.244486 
L 67.555297 132.871443 
L 67.678224 134.4984 
L 67.68 136.125357 
L 67.570029 137.752314 
L 67.36276 139.379271 
L 67.075831 141.006228 
L 66.727881 142.633185 
L 66.336347 144.260142 
L 65.915561 145.887099 
L 65.475412 147.514056 
L 65.020759 149.141013 
L 64.551627 150.76797 
L 64.064117 152.394927 
L 63.551807 154.021884 
L 63.007424 155.648841 
L 62.424477 157.275798 
L 61.798646 158.902755 
L 61.128746 160.529712 
L 60.417193 162.156668 
L 59.669998 163.783625 
L 58.896348 165.410582 
L 58.107899 167.037539 
L 57.317903 168.664496 
L 56.540283 170.291453 
L 55.788738 171.91841 
L 55.075939 173.545367 
L 54.41285 175.172324 
L 53.808198 176.799281 
L 53.268102 178.426238 
L 52.795864 180.053195 
L 52.391943 181.680152 
L 52.054097 183.307109 
L 51.777695 184.934066 
L 51.556182 186.561023 
L 51.381648 188.18798 
L 51.245488 189.814937 
L 51.139052 191.441894 
L 51.054258 193.068851 
L 50.984095 194.695808 
L 50.984095 194.695808 
z
" clip-path="url(#p3c9dde6959)" style="fill: none; stroke: #000000; stroke-opacity: 0.3"/>
   </g>
   <g id="FillBetweenPolyCollection_7">
    <path d="M 51.134842 199.189054 
L 49.665158 199.189054 
L 49.588306 197.434322 
L 49.512347 195.67959 
L 49.437815 193.924858 
L 49.364848 192.170127 
L 49.293055 190.415395 
L 49.221397 188.660663 
L 49.148069 186.905931 
L 49.070448 185.151199 
L 48.98509 183.396468 
L 48.887818 181.641736 
L 48.773886 179.887004 
L 48.638184 178.132272 
L 48.475481 176.37754 
L 48.280636 174.622809 
L 48.048766 172.868077 
L 47.775335 171.113345 
L 47.456182 169.358613 
L 47.087502 167.603882 
L 46.665821 165.84915 
L 46.188019 164.094418 
L 45.651435 162.339686 
L 45.054084 160.584954 
L 44.394983 158.830223 
L 43.674577 157.075491 
L 42.895212 155.320759 
L 42.0616 153.566027 
L 41.181229 151.811295 
L 40.264649 150.056564 
L 39.325592 148.301832 
L 38.380882 146.5471 
L 37.450116 144.792368 
L 36.555093 143.037637 
L 35.718997 141.282905 
L 34.965351 139.528173 
L 34.316778 137.773441 
L 33.793664 136.018709 
L 33.412801 134.263978 
L 33.186173 132.509246 
L 33.12 130.754514 
L 33.214206 128.999782 
L 33.46238 127.24505 
L 33.852288 125.490319 
L 34.366899 123.735587 
L 34.985797 121.980855 
L 35.686819 120.226123 
L 36.447687 118.471391 
L 37.247443 116.71666 
L 38.067503 114.961928 
L 38.892238 113.207196 
L 39.709088 111.452464 
L 40.508255 109.697733 
L 41.282148 107.943001 
L 42.024714 106.188269 
L 42.730832 104.433537 
L 43.395891 102.678805 
L 44.015592 100.924074 
L 44.586004 99.169342 
L 45.103785 97.41461 
L 45.56651 95.659878 
L 45.972994 93.905146 
L 46.32353 92.150415 
L 46.619997 90.395683 
L 46.865803 88.640951 
L 47.065697 86.886219 
L 47.225473 85.131488 
L 47.351624 83.376756 
L 47.451002 81.622024 
L 47.530507 79.867292 
L 47.596842 78.11256 
L 47.656332 76.357829 
L 47.714787 74.603097 
L 47.777402 72.848365 
L 47.848647 71.093633 
L 47.932156 69.338901 
L 48.030589 67.58417 
L 48.145495 65.829438 
L 48.277186 64.074706 
L 48.424673 62.319974 
L 48.585676 60.565242 
L 48.75674 58.810511 
L 48.933465 57.055779 
L 49.110829 55.301047 
L 49.283572 53.546315 
L 49.446611 51.791584 
L 49.595415 50.036852 
L 49.726333 48.28212 
L 49.836813 46.527388 
L 49.925525 44.772656 
L 49.992374 43.017925 
L 50.038428 41.263193 
L 50.06577 39.508461 
L 50.077302 37.753729 
L 50.076506 35.998997 
L 50.067196 34.244266 
L 50.05325 32.489534 
L 50.03836 30.734802 
L 50.025785 28.98007 
L 50.018155 27.225339 
L 50.01732 25.470607 
L 50.78268 25.470607 
L 50.78268 25.470607 
L 50.781845 27.225339 
L 50.774215 28.98007 
L 50.76164 30.734802 
L 50.74675 32.489534 
L 50.732804 34.244266 
L 50.723494 35.998997 
L 50.722698 37.753729 
L 50.73423 39.508461 
L 50.761572 41.263193 
L 50.807626 43.017925 
L 50.874475 44.772656 
L 50.963187 46.527388 
L 51.073667 48.28212 
L 51.204585 50.036852 
L 51.353389 51.791584 
L 51.516428 53.546315 
L 51.689171 55.301047 
L 51.866535 57.055779 
L 52.04326 58.810511 
L 52.214324 60.565242 
L 52.375327 62.319974 
L 52.522814 64.074706 
L 52.654505 65.829438 
L 52.769411 67.58417 
L 52.867844 69.338901 
L 52.951353 71.093633 
L 53.022598 72.848365 
L 53.085213 74.603097 
L 53.143668 76.357829 
L 53.203158 78.11256 
L 53.269493 79.867292 
L 53.348998 81.622024 
L 53.448376 83.376756 
L 53.574527 85.131488 
L 53.734303 86.886219 
L 53.934197 88.640951 
L 54.180003 90.395683 
L 54.47647 92.150415 
L 54.827006 93.905146 
L 55.23349 95.659878 
L 55.696215 97.41461 
L 56.213996 99.169342 
L 56.784408 100.924074 
L 57.404109 102.678805 
L 58.069168 104.433537 
L 58.775286 106.188269 
L 59.517852 107.943001 
L 60.291745 109.697733 
L 61.090912 111.452464 
L 61.907762 113.207196 
L 62.732497 114.961928 
L 63.552557 116.71666 
L 64.352313 118.471391 
L 65.113181 120.226123 
L 65.814203 121.980855 
L 66.433101 123.735587 
L 66.947712 125.490319 
L 67.33762 127.24505 
L 67.585794 128.999782 
L 67.68 130.754514 
L 67.613827 132.509246 
L 67.387199 134.263978 
L 67.006336 136.018709 
L 66.483222 137.773441 
L 65.834649 139.528173 
L 65.081003 141.282905 
L 64.244907 143.037637 
L 63.349884 144.792368 
L 62.419118 146.5471 
L 61.474408 148.301832 
L 60.535351 150.056564 
L 59.618771 151.811295 
L 58.7384 153.566027 
L 57.904788 155.320759 
L 57.125423 157.075491 
L 56.405017 158.830223 
L 55.745916 160.584954 
L 55.148565 162.339686 
L 54.611981 164.094418 
L 54.134179 165.84915 
L 53.712498 167.603882 
L 53.343818 169.358613 
L 53.024665 171.113345 
L 52.751234 172.868077 
L 52.519364 174.622809 
L 52.324519 176.37754 
L 52.161816 178.132272 
L 52.026114 179.887004 
L 51.912182 181.641736 
L 51.81491 183.396468 
L 51.729552 185.151199 
L 51.651931 186.905931 
L 51.578603 188.660663 
L 51.506945 190.415395 
L 51.435152 192.170127 
L 51.362185 193.924858 
L 51.287653 195.67959 
L 51.211694 197.434322 
L 51.134842 199.189054 
L 51.134842 199.189054 
z
" clip-path="url(#p3c9dde6959)" style="fill: none; stroke: #000000; stroke-opacity: 0.3"/>
   </g>
   <g id="FillBetweenPolyCollection_8">
    <path d="M 108.230992 193.684205 
L 107.769008 193.684205 
L 107.761232 192.202954 
L 107.755517 190.721703 
L 107.750002 189.240452 
L 107.742425 187.759202 
L 107.730394 186.277951 
L 107.711671 184.7967 
L 107.684385 183.315449 
L 107.647131 181.834199 
L 107.598922 180.352948 
L 107.538996 178.871697 
L 107.466528 177.390446 
L 107.38031 175.909196 
L 107.278477 174.427945 
L 107.15837 172.946694 
L 107.016571 171.465443 
L 106.849133 169.984193 
L 106.651966 168.502942 
L 106.421317 167.021691 
L 106.154259 165.54044 
L 105.849097 164.059189 
L 105.505625 162.577939 
L 105.125183 161.096688 
L 104.710491 159.615437 
L 104.265283 158.134186 
L 103.793749 156.652936 
L 103.299857 155.171685 
L 102.786609 153.690434 
L 102.255341 152.209183 
L 101.705188 150.727933 
L 101.13284 149.246682 
L 100.532727 147.765431 
L 99.89772 146.28418 
L 99.220349 144.80293 
L 98.494472 143.321679 
L 97.717191 141.840428 
L 96.890758 140.359177 
L 96.024117 138.877927 
L 95.133787 137.396676 
L 94.243808 135.915425 
L 93.384637 134.434174 
L 92.591006 132.952924 
L 91.898942 131.471673 
L 91.342293 129.990422 
L 90.949197 128.509171 
L 90.738992 127.027921 
L 90.72 125.54667 
L 90.888524 124.065419 
L 91.229219 122.584168 
L 91.716789 121.102918 
L 92.318755 119.621667 
L 92.998887 118.140416 
L 93.720789 116.659165 
L 94.451152 115.177914 
L 95.162276 113.696664 
L 95.833627 112.215413 
L 96.452372 110.734162 
L 97.013028 109.252911 
L 97.516441 107.771661 
L 97.968385 106.29041 
L 98.378036 104.809159 
L 98.756515 103.327908 
L 99.115629 101.846658 
L 99.466825 100.365407 
L 99.820368 98.884156 
L 100.18469 97.402905 
L 100.565868 95.921655 
L 100.967225 94.440404 
L 101.38907 92.959153 
L 101.828616 91.477902 
L 102.280156 89.996652 
L 102.735533 88.515401 
L 103.184923 87.03415 
L 103.617877 85.552899 
L 104.024482 84.071649 
L 104.396478 82.590398 
L 104.728126 81.109147 
L 105.016675 79.627896 
L 105.262364 78.146646 
L 105.46799 76.665395 
L 105.638177 75.184144 
L 105.778519 73.702893 
L 105.894793 72.221642 
L 105.992378 70.740392 
L 106.075931 69.259141 
L 106.149309 67.77789 
L 106.215638 66.296639 
L 106.277463 64.815389 
L 106.336875 63.334138 
L 106.39559 61.852887 
L 106.454993 60.371636 
L 106.51616 58.890386 
L 106.579903 57.409135 
L 106.646846 55.927884 
L 106.7175 54.446633 
L 106.792318 52.965383 
L 106.871689 51.484132 
L 106.955846 50.002881 
L 107.044718 48.52163 
L 107.137763 47.04038 
L 108.862237 47.04038 
L 108.862237 47.04038 
L 108.955282 48.52163 
L 109.044154 50.002881 
L 109.128311 51.484132 
L 109.207682 52.965383 
L 109.2825 54.446633 
L 109.353154 55.927884 
L 109.420097 57.409135 
L 109.48384 58.890386 
L 109.545007 60.371636 
L 109.60441 61.852887 
L 109.663125 63.334138 
L 109.722537 64.815389 
L 109.784362 66.296639 
L 109.850691 67.77789 
L 109.924069 69.259141 
L 110.007622 70.740392 
L 110.105207 72.221642 
L 110.221481 73.702893 
L 110.361823 75.184144 
L 110.53201 76.665395 
L 110.737636 78.146646 
L 110.983325 79.627896 
L 111.271874 81.109147 
L 111.603522 82.590398 
L 111.975518 84.071649 
L 112.382123 85.552899 
L 112.815077 87.03415 
L 113.264467 88.515401 
L 113.719844 89.996652 
L 114.171384 91.477902 
L 114.61093 92.959153 
L 115.032775 94.440404 
L 115.434132 95.921655 
L 115.81531 97.402905 
L 116.179632 98.884156 
L 116.533175 100.365407 
L 116.884371 101.846658 
L 117.243485 103.327908 
L 117.621964 104.809159 
L 118.031615 106.29041 
L 118.483559 107.771661 
L 118.986972 109.252911 
L 119.547628 110.734162 
L 120.166373 112.215413 
L 120.837724 113.696664 
L 121.548848 115.177914 
L 122.279211 116.659165 
L 123.001113 118.140416 
L 123.681245 119.621667 
L 124.283211 121.102918 
L 124.770781 122.584168 
L 125.111476 124.065419 
L 125.28 125.54667 
L 125.261008 127.027921 
L 125.050803 128.509171 
L 124.657707 129.990422 
L 124.101058 131.471673 
L 123.408994 132.952924 
L 122.615363 134.434174 
L 121.756192 135.915425 
L 120.866213 137.396676 
L 119.975883 138.877927 
L 119.109242 140.359177 
L 118.282809 141.840428 
L 117.505528 143.321679 
L 116.779651 144.80293 
L 116.10228 146.28418 
L 115.467273 147.765431 
L 114.86716 149.246682 
L 114.294812 150.727933 
L 113.744659 152.209183 
L 113.213391 153.690434 
L 112.700143 155.171685 
L 112.206251 156.652936 
L 111.734717 158.134186 
L 111.289509 159.615437 
L 110.874817 161.096688 
L 110.494375 162.577939 
L 110.150903 164.059189 
L 109.845741 165.54044 
L 109.578683 167.021691 
L 109.348034 168.502942 
L 109.150867 169.984193 
L 108.983429 171.465443 
L 108.84163 172.946694 
L 108.721523 174.427945 
L 108.61969 175.909196 
L 108.533472 177.390446 
L 108.461004 178.871697 
L 108.401078 180.352948 
L 108.352869 181.834199 
L 108.315615 183.315449 
L 108.288329 184.7967 
L 108.269606 186.277951 
L 108.257575 187.759202 
L 108.249998 189.240452 
L 108.244483 190.721703 
L 108.238768 192.202954 
L 108.230992 193.684205 
L 108.230992 193.684205 
z
" clip-path="url(#p3c9dde6959)" style="fill: none; stroke: #000000; stroke-opacity: 0.3"/>
   </g>
   <g id="FillBetweenPolyCollection_9">
    <path d="M 109.079821 173.010073 
L 106.920179 173.010073 
L 106.765416 171.755939 
L 106.592205 170.501804 
L 106.397069 169.24767 
L 106.175976 167.993536 
L 105.924439 166.739402 
L 105.637659 165.485268 
L 105.310711 164.231134 
L 104.938771 162.976999 
L 104.517397 161.722865 
L 104.042858 160.468731 
L 103.512509 159.214597 
L 102.925185 157.960463 
L 102.281598 156.706328 
L 101.584661 155.452194 
L 100.839709 154.19806 
L 100.054555 152.943926 
L 99.239328 151.689792 
L 98.40609 150.435658 
L 97.568235 149.181523 
L 96.739733 147.927389 
L 95.934276 146.673255 
L 95.164462 145.419121 
L 94.441098 144.164987 
L 93.77273 142.910853 
L 93.165467 141.656718 
L 92.623112 140.402584 
L 92.147569 139.14845 
L 91.739452 137.894316 
L 91.398771 136.640182 
L 91.125578 135.386047 
L 90.920432 134.131913 
L 90.78461 132.877779 
L 90.72 131.623645 
L 90.728703 130.369511 
L 90.812404 129.115377 
L 90.971638 127.861242 
L 91.205078 126.607108 
L 91.508997 125.352974 
L 91.877005 124.09884 
L 92.300148 122.844706 
L 92.767351 121.590571 
L 93.266174 120.336437 
L 93.783761 119.082303 
L 94.307853 117.828169 
L 94.827708 116.574035 
L 95.334819 115.319901 
L 95.823312 114.065766 
L 96.290019 112.811632 
L 96.734212 111.557498 
L 97.157089 110.303364 
L 97.5611 109.04923 
L 97.949223 107.795095 
L 98.324309 106.540961 
L 98.688579 105.286827 
L 99.043319 104.032693 
L 99.388794 102.778559 
L 99.724357 101.524425 
L 100.048713 100.27029 
L 100.360265 99.016156 
L 100.657474 97.762022 
L 100.939186 96.507888 
L 101.204859 95.253754 
L 101.454683 93.999619 
L 101.689579 92.745485 
L 101.911093 91.491351 
L 102.121225 90.237217 
L 102.322224 88.983083 
L 102.516393 87.728949 
L 102.70593 86.474814 
L 102.892831 85.22068 
L 103.078843 83.966546 
L 103.26547 82.712412 
L 103.453992 81.458278 
L 103.645482 80.204143 
L 103.840787 78.950009 
L 104.040479 77.695875 
L 104.244754 76.441741 
L 104.453323 75.187607 
L 104.665303 73.933473 
L 104.879157 72.679338 
L 105.092699 71.425204 
L 105.303187 70.17107 
L 105.507509 68.916936 
L 105.702449 67.662802 
L 105.884991 66.408668 
L 106.052633 65.154533 
L 106.203662 63.900399 
L 106.337348 62.646265 
L 106.454029 61.392131 
L 106.555081 60.137997 
L 106.642759 58.883862 
L 106.719953 57.629728 
L 106.789875 56.375594 
L 106.85573 55.12146 
L 106.920401 53.867326 
L 106.986199 52.613192 
L 107.054691 51.359057 
L 107.12662 50.104923 
L 107.201933 48.850789 
L 108.798067 48.850789 
L 108.798067 48.850789 
L 108.87338 50.104923 
L 108.945309 51.359057 
L 109.013801 52.613192 
L 109.079599 53.867326 
L 109.14427 55.12146 
L 109.210125 56.375594 
L 109.280047 57.629728 
L 109.357241 58.883862 
L 109.444919 60.137997 
L 109.545971 61.392131 
L 109.662652 62.646265 
L 109.796338 63.900399 
L 109.947367 65.154533 
L 110.115009 66.408668 
L 110.297551 67.662802 
L 110.492491 68.916936 
L 110.696813 70.17107 
L 110.907301 71.425204 
L 111.120843 72.679338 
L 111.334697 73.933473 
L 111.546677 75.187607 
L 111.755246 76.441741 
L 111.959521 77.695875 
L 112.159213 78.950009 
L 112.354518 80.204143 
L 112.546008 81.458278 
L 112.73453 82.712412 
L 112.921157 83.966546 
L 113.107169 85.22068 
L 113.29407 86.474814 
L 113.483607 87.728949 
L 113.677776 88.983083 
L 113.878775 90.237217 
L 114.088907 91.491351 
L 114.310421 92.745485 
L 114.545317 93.999619 
L 114.795141 95.253754 
L 115.060814 96.507888 
L 115.342526 97.762022 
L 115.639735 99.016156 
L 115.951287 100.27029 
L 116.275643 101.524425 
L 116.611206 102.778559 
L 116.956681 104.032693 
L 117.311421 105.286827 
L 117.675691 106.540961 
L 118.050777 107.795095 
L 118.4389 109.04923 
L 118.842911 110.303364 
L 119.265788 111.557498 
L 119.709981 112.811632 
L 120.176688 114.065766 
L 120.665181 115.319901 
L 121.172292 116.574035 
L 121.692147 117.828169 
L 122.216239 119.082303 
L 122.733826 120.336437 
L 123.232649 121.590571 
L 123.699852 122.844706 
L 124.122995 124.09884 
L 124.491003 125.352974 
L 124.794922 126.607108 
L 125.028362 127.861242 
L 125.187596 129.115377 
L 125.271297 130.369511 
L 125.28 131.623645 
L 125.21539 132.877779 
L 125.079568 134.131913 
L 124.874422 135.386047 
L 124.601229 136.640182 
L 124.260548 137.894316 
L 123.852431 139.14845 
L 123.376888 140.402584 
L 122.834533 141.656718 
L 122.22727 142.910853 
L 121.558902 144.164987 
L 120.835538 145.419121 
L 120.065724 146.673255 
L 119.260267 147.927389 
L 118.431765 149.181523 
L 117.59391 150.435658 
L 116.760672 151.689792 
L 115.945445 152.943926 
L 115.160291 154.19806 
L 114.415339 155.452194 
L 113.718402 156.706328 
L 113.074815 157.960463 
L 112.487491 159.214597 
L 111.957142 160.468731 
L 111.482603 161.722865 
L 111.061229 162.976999 
L 110.689289 164.231134 
L 110.362341 165.485268 
L 110.075561 166.739402 
L 109.824024 167.993536 
L 109.602931 169.24767 
L 109.407795 170.501804 
L 109.234584 171.755939 
L 109.079821 173.010073 
L 109.079821 173.010073 
z
" clip-path="url(#p3c9dde6959)" style="fill: none; stroke: #000000; stroke-opacity: 0.3"/>
   </g>
   <g id="FillBetweenPolyCollection_10">
    <path d="M 108.265073 190.090688 
L 107.734927 190.090688 
L 107.726911 188.720018 
L 107.719536 187.349348 
L 107.7108 185.978677 
L 107.698134 184.608007 
L 107.67851 183.237337 
L 107.648578 181.866666 
L 107.604841 180.495996 
L 107.543842 179.125326 
L 107.462336 177.754655 
L 107.357448 176.383985 
L 107.226783 175.013315 
L 107.068484 173.642644 
L 106.881229 172.271974 
L 106.664181 170.901304 
L 106.416892 169.530633 
L 106.139187 168.159963 
L 105.831058 166.789293 
L 105.492583 165.418622 
L 105.123897 164.047952 
L 104.725211 162.677282 
L 104.29688 161.306612 
L 103.839486 159.935941 
L 103.353911 158.565271 
L 102.841362 157.194601 
L 102.303324 155.82393 
L 101.74144 154.45326 
L 101.157326 153.08259 
L 100.552377 151.711919 
L 99.927612 150.341249 
L 99.283629 148.970579 
L 98.620733 147.599908 
L 97.939252 146.229238 
L 97.24006 144.858568 
L 96.525236 143.487897 
L 95.798798 142.117227 
L 95.067377 140.746557 
L 94.340722 139.375886 
L 93.631923 138.005216 
L 92.957251 136.634546 
L 92.33559 135.263875 
L 91.78747 133.893205 
L 91.333751 132.522535 
L 90.994094 131.151864 
L 90.785345 129.781194 
L 90.72 128.410524 
L 90.804925 127.039853 
L 91.040449 125.669183 
L 91.419967 124.298513 
L 91.930081 122.927842 
L 92.551323 121.557172 
L 93.259373 120.186502 
L 94.026695 118.815831 
L 94.82443 117.445161 
L 95.624368 116.074491 
L 96.400815 114.70382 
L 97.132176 113.33315 
L 97.802109 111.96248 
L 98.40017 110.591809 
L 98.9219 109.221139 
L 99.36841 107.850469 
L 99.745525 106.479798 
L 100.062645 105.109128 
L 100.331435 103.738458 
L 100.564521 102.367787 
L 100.774281 100.997117 
L 100.971845 99.626447 
L 101.16635 98.255776 
L 101.364462 96.885106 
L 101.570175 95.514436 
L 101.784849 94.143765 
L 102.007455 92.773095 
L 102.235001 91.402425 
L 102.463078 90.031755 
L 102.686502 88.661084 
L 102.899974 87.290414 
L 103.098725 85.919744 
L 103.279067 84.549073 
L 103.438799 83.178403 
L 103.577429 81.807733 
L 103.696189 80.437062 
L 103.797845 79.066392 
L 103.886355 77.695722 
L 103.966416 76.325051 
L 104.042988 74.954381 
L 104.120845 73.583711 
L 104.204239 72.21304 
L 104.296666 70.84237 
L 104.400773 69.4717 
L 104.518362 68.101029 
L 104.65046 66.730359 
L 104.797416 65.359689 
L 104.958977 63.989018 
L 105.134345 62.618348 
L 105.322185 61.247678 
L 105.520632 59.877007 
L 105.727283 58.506337 
L 105.939237 57.135667 
L 106.153173 55.764996 
L 106.36549 54.394326 
L 109.63451 54.394326 
L 109.63451 54.394326 
L 109.846827 55.764996 
L 110.060763 57.135667 
L 110.272717 58.506337 
L 110.479368 59.877007 
L 110.677815 61.247678 
L 110.865655 62.618348 
L 111.041023 63.989018 
L 111.202584 65.359689 
L 111.34954 66.730359 
L 111.481638 68.101029 
L 111.599227 69.4717 
L 111.703334 70.84237 
L 111.795761 72.21304 
L 111.879155 73.583711 
L 111.957012 74.954381 
L 112.033584 76.325051 
L 112.113645 77.695722 
L 112.202155 79.066392 
L 112.303811 80.437062 
L 112.422571 81.807733 
L 112.561201 83.178403 
L 112.720933 84.549073 
L 112.901275 85.919744 
L 113.100026 87.290414 
L 113.313498 88.661084 
L 113.536922 90.031755 
L 113.764999 91.402425 
L 113.992545 92.773095 
L 114.215151 94.143765 
L 114.429825 95.514436 
L 114.635538 96.885106 
L 114.83365 98.255776 
L 115.028155 99.626447 
L 115.225719 100.997117 
L 115.435479 102.367787 
L 115.668565 103.738458 
L 115.937355 105.109128 
L 116.254475 106.479798 
L 116.63159 107.850469 
L 117.0781 109.221139 
L 117.59983 110.591809 
L 118.197891 111.96248 
L 118.867824 113.33315 
L 119.599185 114.70382 
L 120.375632 116.074491 
L 121.17557 117.445161 
L 121.973305 118.815831 
L 122.740627 120.186502 
L 123.448677 121.557172 
L 124.069919 122.927842 
L 124.580033 124.298513 
L 124.959551 125.669183 
L 125.195075 127.039853 
L 125.28 128.410524 
L 125.214655 129.781194 
L 125.005906 131.151864 
L 124.666249 132.522535 
L 124.21253 133.893205 
L 123.66441 135.263875 
L 123.042749 136.634546 
L 122.368077 138.005216 
L 121.659278 139.375886 
L 120.932623 140.746557 
L 120.201202 142.117227 
L 119.474764 143.487897 
L 118.75994 144.858568 
L 118.060748 146.229238 
L 117.379267 147.599908 
L 116.716371 148.970579 
L 116.072388 150.341249 
L 115.447623 151.711919 
L 114.842674 153.08259 
L 114.25856 154.45326 
L 113.696676 155.82393 
L 113.158638 157.194601 
L 112.646089 158.565271 
L 112.160514 159.935941 
L 111.70312 161.306612 
L 111.274789 162.677282 
L 110.876103 164.047952 
L 110.507417 165.418622 
L 110.168942 166.789293 
L 109.860813 168.159963 
L 109.583108 169.530633 
L 109.335819 170.901304 
L 109.118771 172.271974 
L 108.931516 173.642644 
L 108.773217 175.013315 
L 108.642552 176.383985 
L 108.537664 177.754655 
L 108.456158 179.125326 
L 108.395159 180.495996 
L 108.351422 181.866666 
L 108.32149 183.237337 
L 108.301866 184.608007 
L 108.2892 185.978677 
L 108.280464 187.349348 
L 108.273089 188.720018 
L 108.265073 190.090688 
L 108.265073 190.090688 
z
" clip-path="url(#p3c9dde6959)" style="fill: none; stroke: #000000; stroke-opacity: 0.3"/>
   </g>
   <g id="FillBetweenPolyCollection_11">
    <path d="M 108.678712 170.602541 
L 107.321288 170.602541 
L 107.211847 169.182751 
L 107.087433 167.762962 
L 106.943106 166.343172 
L 106.772312 164.923382 
L 106.566863 163.503593 
L 106.317042 162.083803 
L 106.01186 160.664013 
L 105.639484 159.244223 
L 105.187866 157.824434 
L 104.645577 156.404644 
L 104.002862 154.984854 
L 103.252885 153.565064 
L 102.39311 152.145275 
L 101.426699 150.725485 
L 100.363752 149.305695 
L 99.222155 147.885905 
L 98.027765 146.466116 
L 96.813701 145.046326 
L 95.618591 143.626536 
L 94.483833 142.206747 
L 93.450091 140.786957 
L 92.553494 139.367167 
L 91.822127 137.947377 
L 91.273388 136.527588 
L 90.91269 135.107798 
L 90.733693 133.688008 
L 90.72 132.268218 
L 90.847925 130.848429 
L 91.089794 129.428639 
L 91.417208 128.008849 
L 91.803785 126.58906 
L 92.227106 125.16927 
L 92.669793 123.74948 
L 93.119828 122.32969 
L 93.570309 120.909901 
L 94.018837 119.490111 
L 94.466683 118.070321 
L 94.917812 116.650531 
L 95.37779 115.230742 
L 95.852618 113.810952 
L 96.347558 112.391162 
L 96.866085 110.971373 
L 97.409099 109.551583 
L 97.974534 108.131793 
L 98.557416 106.712003 
L 99.150317 105.292214 
L 99.744105 103.872424 
L 100.328788 102.452634 
L 100.894329 101.032844 
L 101.431324 99.613055 
L 101.931543 98.193265 
L 102.388378 96.773475 
L 102.797277 95.353685 
L 103.156165 93.933896 
L 103.465817 92.514106 
L 103.730037 91.094316 
L 103.955511 89.674527 
L 104.151208 88.254737 
L 104.327334 86.834947 
L 104.493975 85.415157 
L 104.659679 83.995368 
L 104.830295 82.575578 
L 105.008337 81.155788 
L 105.193034 79.735998 
L 105.381045 78.316209 
L 105.567645 76.896419 
L 105.748082 75.476629 
L 105.918768 74.05684 
L 106.078034 72.63705 
L 106.226317 71.21726 
L 106.36579 69.79747 
L 106.499609 68.377681 
L 106.630998 66.957891 
L 106.762414 65.538101 
L 106.894987 64.118311 
L 107.02832 62.698522 
L 107.160634 61.278732 
L 107.289186 59.858942 
L 107.410814 58.439152 
L 107.52248 57.019363 
L 107.621702 55.599573 
L 107.706815 54.179783 
L 107.777043 52.759994 
L 107.832416 51.340204 
L 107.873582 49.920414 
L 107.901575 48.500624 
L 107.917612 47.080835 
L 107.922945 45.661045 
L 107.918797 44.241255 
L 107.90639 42.821465 
L 107.887027 41.401676 
L 107.862205 39.981886 
L 107.833702 38.562096 
L 107.803608 37.142307 
L 107.774265 35.722517 
L 107.748117 34.302727 
L 107.727473 32.882937 
L 107.714249 31.463148 
L 107.709716 30.043358 
L 108.290284 30.043358 
L 108.290284 30.043358 
L 108.285751 31.463148 
L 108.272527 32.882937 
L 108.251883 34.302727 
L 108.225735 35.722517 
L 108.196392 37.142307 
L 108.166298 38.562096 
L 108.137795 39.981886 
L 108.112973 41.401676 
L 108.09361 42.821465 
L 108.081203 44.241255 
L 108.077055 45.661045 
L 108.082388 47.080835 
L 108.098425 48.500624 
L 108.126418 49.920414 
L 108.167584 51.340204 
L 108.222957 52.759994 
L 108.293185 54.179783 
L 108.378298 55.599573 
L 108.47752 57.019363 
L 108.589186 58.439152 
L 108.710814 59.858942 
L 108.839366 61.278732 
L 108.97168 62.698522 
L 109.105013 64.118311 
L 109.237586 65.538101 
L 109.369002 66.957891 
L 109.500391 68.377681 
L 109.63421 69.79747 
L 109.773683 71.21726 
L 109.921966 72.63705 
L 110.081232 74.05684 
L 110.251918 75.476629 
L 110.432355 76.896419 
L 110.618955 78.316209 
L 110.806966 79.735998 
L 110.991663 81.155788 
L 111.169705 82.575578 
L 111.340321 83.995368 
L 111.506025 85.415157 
L 111.672666 86.834947 
L 111.848792 88.254737 
L 112.044489 89.674527 
L 112.269963 91.094316 
L 112.534183 92.514106 
L 112.843835 93.933896 
L 113.202723 95.353685 
L 113.611622 96.773475 
L 114.068457 98.193265 
L 114.568676 99.613055 
L 115.105671 101.032844 
L 115.671212 102.452634 
L 116.255895 103.872424 
L 116.849683 105.292214 
L 117.442584 106.712003 
L 118.025466 108.131793 
L 118.590901 109.551583 
L 119.133915 110.971373 
L 119.652442 112.391162 
L 120.147382 113.810952 
L 120.62221 115.230742 
L 121.082188 116.650531 
L 121.533317 118.070321 
L 121.981163 119.490111 
L 122.429691 120.909901 
L 122.880172 122.32969 
L 123.330207 123.74948 
L 123.772894 125.16927 
L 124.196215 126.58906 
L 124.582792 128.008849 
L 124.910206 129.428639 
L 125.152075 130.848429 
L 125.28 132.268218 
L 125.266307 133.688008 
L 125.08731 135.107798 
L 124.726612 136.527588 
L 124.177873 137.947377 
L 123.446506 139.367167 
L 122.549909 140.786957 
L 121.516167 142.206747 
L 120.381409 143.626536 
L 119.186299 145.046326 
L 117.972235 146.466116 
L 116.777845 147.885905 
L 115.636248 149.305695 
L 114.573301 150.725485 
L 113.60689 152.145275 
L 112.747115 153.565064 
L 111.997138 154.984854 
L 111.354423 156.404644 
L 110.812134 157.824434 
L 110.360516 159.244223 
L 109.98814 160.664013 
L 109.682958 162.083803 
L 109.433137 163.503593 
L 109.227688 164.923382 
L 109.056894 166.343172 
L 108.912567 167.762962 
L 108.788153 169.182751 
L 108.678712 170.602541 
L 108.678712 170.602541 
z
" clip-path="url(#p3c9dde6959)" style="fill: none; stroke: #000000; stroke-opacity: 0.3"/>
   </g>
   <g id="matplotlib.axis_1">
    <g id="xtick_1">
     <g id="line2d_1">
      <defs>
       <path id="mb63d4ac904" d="M 0 0 
L 0 3.5 
" style="stroke: #000000; stroke-width: 0.8"/>
      </defs>
      <g>
       <use xlink:href="#mb63d4ac904" x="50.4" y="291.6" style="stroke: #000000; stroke-width: 0.8"/>
      </g>
     </g>
     <g id="text_1">
      <text style="font-size: 10px; font-family: 'DejaVu Sans', 'Bitstream Vera Sans', 'Computer Modern Sans Serif', 'Lucida Grande', 'Verdana', 'Geneva', 'Lucid', 'Arial', 'Helvetica', 'Avant Garde', sans-serif; text-anchor: middle" x="50.4" y="306.198438" transform="rotate(-0 50.4 306.198438)">0.3</text>
     </g>
    </g>
    <g id="xtick_2">
     <g id="line2d_2">
      <g>
       <use xlink:href="#mb63d4ac904" x="108" y="291.6" style="stroke: #000000; stroke-width: 0.8"/>
      </g>
     </g>
     <g id="text_2">
      <text style="font-size: 10px; font-family: 'DejaVu Sans', 'Bitstream Vera Sans', 'Computer Modern Sans Serif', 'Lucida Grande', 'Verdana', 'Geneva', 'Lucid', 'Arial', 'Helvetica', 'Avant Garde', sans-serif; text-anchor: middle" x="108" y="306.198438" transform="rotate(-0 108 306.198438)">0.6</text>
     </g>
    </g>
   </g>
   <g id="matplotlib.axis_2">
    <g id="ytick_1">
     <g id="line2d_3">
      <defs>
       <path id="m1d53900904" d="M 0 0 
L -3.5 0 
" style="stroke: #000000; stroke-width: 0.8"/>
      </defs>
      <g>
       <use xlink:href="#m1d53900904" x="21.6" y="291.6" style="stroke: #000000; stroke-width: 0.8"/>
      </g>
     </g>
    </g>
    <g id="ytick_2">
     <g id="line2d_4">
      <g>
       <use xlink:href="#m1d53900904" x="21.6" y="199.8" style="stroke: #000000; stroke-width: 0.8"/>
      </g>
     </g>
    </g>
    <g id="ytick_3">
     <g id="line2d_5">
      <g>
       <use xlink:href="#m1d53900904" x="21.6" y="108" style="stroke: #000000; stroke-width: 0.8"/>
      </g>
     </g>
    </g>
    <g id="ytick_4">
     <g id="line2d_6">
      <g>
       <use xlink:href="#m1d53900904" x="21.6" y="16.2" style="stroke: #000000; stroke-width: 0.8"/>
      </g>
     </g>
    </g>
   </g>
   <g id="line2d_7">
    <path d="M 50.4 269.568 
L 50.4 264.06 
" clip-path="url(#p3c9dde6959)" style="fill: none; stroke: #000000; stroke-linecap: square"/>
   </g>
   <g id="line2d_8">
    <path d="M 50.4 269.568 
L 108 269.568 
" clip-path="url(#p3c9dde6959)" style="fill: none; stroke: #000000; stroke-linecap: square"/>
   </g>
   <g id="line2d_9">
    <path d="M 108 269.568 
L 108 264.06 
" clip-path="url(#p3c9dde6959)" style="fill: none; stroke: #000000; stroke-linecap: square"/>
   </g>
   <g id="patch_3">
    <path d="M 21.6 291.6 
L 21.6 16.2 
" style="fill: none; stroke: #000000; stroke-width: 0.8; stroke-linejoin: miter; stroke-linecap: square"/>
   </g>
   <g id="patch_4">
    <path d="M 136.8 291.6 
L 136.8 16.2 
" style="fill: none; stroke: #000000; stroke-width: 0.8; stroke-linejoin: miter; stroke-linecap: square"/>
   </g>
   <g id="patch_5">
    <path d="M 21.6 291.6 
L 136.8 291.6 
" style="fill: none; stroke: #000000; stroke-width: 0.8; stroke-linejoin: miter; stroke-linecap: square"/>
   </g>
   <g id="patch_6">
    <path d="M 21.6 16.2 
L 136.8 16.2 
" style="fill: none; stroke: #000000; stroke-width: 0.8; stroke-linejoin: miter; stroke-linecap: square"/>
   </g>
   <g id="text_3">
    <text style="font-weight: 700; font-size: 12px; font-family: 'DejaVu Sans', 'Bitstream Vera Sans', 'Computer Modern Sans Serif', 'Lucida Grande', 'Verdana', 'Geneva', 'Lucid', 'Arial', 'Helvetica', 'Avant Garde', sans-serif; text-anchor: middle" x="50.4" y="289.104375" transform="rotate(-0 50.4 289.104375)">#9</text>
   </g>
   <g id="text_4">
    <text style="font-weight: 700; font-size: 12px; font-family: 'DejaVu Sans', 'Bitstream Vera Sans', 'Computer Modern Sans Serif', 'Lucida Grande', 'Verdana', 'Geneva', 'Lucid', 'Arial', 'Helvetica', 'Avant Garde', sans-serif; text-anchor: middle" x="108" y="289.104375" transform="rotate(-0 108 289.104375)">#23</text>
   </g>
   <g id="text_5">
    <text style="font-size: 12px; font-family: 'DejaVu Sans', 'Bitstream Vera Sans', 'Computer Modern Sans Serif', 'Lucida Grande', 'Verdana', 'Geneva', 'Lucid', 'Arial', 'Helvetica', 'Avant Garde', sans-serif; text-anchor: middle" x="79.2" y="268.449375" transform="rotate(-0 79.2 268.449375)">ns</text>
   </g>
   <g id="line2d_10">
    <path d="M 21.6 124.142867 
L 136.8 124.142867 
" clip-path="url(#p3c9dde6959)" style="fill: none; stroke-dasharray: 3.7,1.6; stroke-dashoffset: 0; stroke: #808080; stroke-opacity: 0.7"/>
   </g>
   <g id="line2d_11">
    <path d="M 21.6 124.791502 
L 136.8 124.791502 
" clip-path="url(#p3c9dde6959)" style="fill: none; stroke-dasharray: 3.7,1.6; stroke-dashoffset: 0; stroke: #808080; stroke-opacity: 0.7"/>
   </g>
   <g id="LineCollection_1">
    <path d="M 50.4 131.270746 
L 50.4 117.014988 
" clip-path="url(#p3c9dde6959)" style="fill: none; stroke: #000000; stroke-width: 2"/>
   </g>
   <g id="line2d_12">
    <defs>
     <path id="me24e2fc53d" d="M 5 0 
L -5 -0 
" style="stroke: #000000; stroke-width: 2"/>
    </defs>
    <g clip-path="url(#p3c9dde6959)">
     <use xlink:href="#me24e2fc53d" x="50.4" y="131.270746" style="stroke: #000000; stroke-width: 2"/>
    </g>
   </g>
   <g id="line2d_13">
    <g clip-path="url(#p3c9dde6959)">
     <use xlink:href="#me24e2fc53d" x="50.4" y="117.014988" style="stroke: #000000; stroke-width: 2"/>
    </g>
   </g>
   <g id="LineCollection_2">
    <path d="M 108 125.978932 
L 108 123.604073 
" clip-path="url(#p3c9dde6959)" style="fill: none; stroke: #000000; stroke-width: 2"/>
   </g>
   <g id="line2d_14">
    <g clip-path="url(#p3c9dde6959)">
     <use xlink:href="#me24e2fc53d" x="108" y="125.978932" style="stroke: #000000; stroke-width: 2"/>
    </g>
   </g>
   <g id="line2d_15">
    <g clip-path="url(#p3c9dde6959)">
     <use xlink:href="#me24e2fc53d" x="108" y="123.604073" style="stroke: #000000; stroke-width: 2"/>
    </g>
   </g>
   <g id="line2d_16">
    <defs>
     <path id="mb83d42b98e" d="M 0 4 
C 1.060812 4 2.078319 3.578535 2.828427 2.828427 
C 3.578535 2.078319 4 1.060812 4 0 
C 4 -1.060812 3.578535 -2.078319 2.828427 -2.828427 
C 2.078319 -3.578535 1.060812 -4 0 -4 
C -1.060812 -4 -2.078319 -3.578535 -2.828427 -2.828427 
C -3.578535 -2.078319 -4 -1.060812 -4 0 
C -4 1.060812 -3.578535 2.078319 -2.828427 2.828427 
C -2.078319 3.578535 -1.060812 4 0 4 
z
" style="stroke: #000000"/>
    </defs>
    <g clip-path="url(#p3c9dde6959)">
     <use xlink:href="#mb83d42b98e" x="50.4" y="124.142867" style="stroke: #000000"/>
    </g>
   </g>
   <g id="line2d_17">
    <g clip-path="url(#p3c9dde6959)">
     <use xlink:href="#mb83d42b98e" x="108" y="124.791502" style="stroke: #000000"/>
    </g>
   </g>
  </g>
 </g>
 <defs>
  <clipPath id="p3c9dde6959">
   <rect x="21.6" y="16.2" width="115.2" height="275.4"/>
  </clipPath>
 </defs>
</svg>
